<?xml version="1.0" encoding="utf-8" standalone="no"?>
<!DOCTYPE svg PUBLIC "-//W3C//DTD SVG 1.1//EN"
  "http://www.w3.org/Graphics/SVG/1.1/DTD/svg11.dtd">
<svg xmlns:xlink="http://www.w3.org/1999/xlink" width="720pt" height="216pt" viewBox="0 0 720 216" xmlns="http://www.w3.org/2000/svg" version="1.1">
 <metadata>
  <rdf:RDF xmlns:dc="http://purl.org/dc/elements/1.1/" xmlns:cc="http://creativecommons.org/ns#" xmlns:rdf="http://www.w3.org/1999/02/22-rdf-syntax-ns#">
   <cc:Work>
    <dc:type rdf:resource="http://purl.org/dc/dcmitype/StillImage"/>
    <dc:date>2024-11-23T04:45:55.412189</dc:date>
    <dc:format>image/svg+xml</dc:format>
    <dc:creator>
     <cc:Agent>
      <dc:title>Matplotlib v3.7.2, https://matplotlib.org/</dc:title>
     </cc:Agent>
    </dc:creator>
   </cc:Work>
  </rdf:RDF>
 </metadata>
 <defs>
  <style type="text/css">*{stroke-linejoin: round; stroke-linecap: butt}</style>
 </defs>
 <g id="figure_1">
  <g id="patch_1">
   <path d="M 0 216 
L 720 216 
L 720 0 
L 0 0 
z
" style="fill: #ffffff"/>
  </g>
  <g id="axes_1">
   <g id="patch_2">
    <path d="M 90 192.24 
L 648 192.24 
L 648 25.92 
L 90 25.92 
z
" style="fill: #ffffff"/>
   </g>
   <g id="line2d_1">
    <path d="M 90 39.280569 
L 648 39.280569 
" clip-path="url(#p1470249cf0)" style="fill: none; stroke: #000000; stroke-width: 0.5; stroke-linecap: square"/>
   </g>
   <g id="patch_3">
    <path d="M 90 37.350993 
L 109.669759 37.350993 
L 109.669759 37.727314 
L 102.59322 37.727314 
L 102.59322 39.280569 
L 97.090262 39.280569 
L 97.090262 37.727314 
L 90 37.727314 
L 90 37.350993 
z
" clip-path="url(#p1470249cf0)" style="fill: #ff0000"/>
   </g>
   <g id="patch_4">
    <path d="M 103.625259 36.566913 
L 96.060586 36.566913 
L 94.866164 37.350993 
L 90 37.350993 
L 96.949365 33.046853 
L 102.720394 33.046853 
L 109.669759 37.350993 
L 104.807616 37.350993 
L 103.625259 36.566913 
z
M 97.267073 35.768073 
L 102.406707 35.768073 
L 99.840912 34.056011 
L 97.267073 35.768073 
z
" clip-path="url(#p1470249cf0)" style="fill: #008000"/>
   </g>
   <g id="patch_5">
    <path d="M 110.705009 38.601164 
L 130.374768 38.601164 
L 130.374768 38.733667 
L 123.298229 38.733667 
L 123.298229 39.280569 
L 117.795271 39.280569 
L 117.795271 38.733667 
L 110.705009 38.733667 
L 110.705009 38.601164 
z
" clip-path="url(#p1470249cf0)" style="fill: #ff0000"/>
   </g>
   <g id="patch_6">
    <path d="M 124.330268 37.873342 
L 116.765595 37.873342 
L 115.571173 38.601164 
L 110.705009 38.601164 
L 117.654374 34.605848 
L 123.425403 34.605848 
L 130.374768 38.601164 
L 125.512626 38.601164 
L 124.330268 37.873342 
z
M 117.972082 37.13182 
L 123.111717 37.13182 
L 120.545921 35.542598 
L 117.972082 37.13182 
z
" clip-path="url(#p1470249cf0)" style="fill: #008000"/>
   </g>
   <g id="patch_7">
    <path d="M 131.410019 33.52581 
L 151.079777 33.52581 
L 151.079777 34.648148 
L 144.003239 34.648148 
L 144.003239 39.280569 
L 138.50028 39.280569 
L 138.50028 34.648148 
L 131.410019 34.648148 
L 131.410019 33.52581 
z
" clip-path="url(#p1470249cf0)" style="fill: #ff0000"/>
   </g>
   <g id="patch_8">
    <path d="M 145.035278 32.476263 
L 137.470605 32.476263 
L 136.276183 33.52581 
L 131.410019 33.52581 
L 138.359383 27.764416 
L 144.130413 27.764416 
L 151.079777 33.52581 
L 146.217635 33.52581 
L 145.035278 32.476263 
z
M 138.677092 31.40696 
L 143.816726 31.40696 
L 141.25093 29.115244 
L 138.677092 31.40696 
z
" clip-path="url(#p1470249cf0)" style="fill: #008000"/>
   </g>
   <g id="patch_9">
    <path d="M 152.115028 37.419064 
L 171.784787 37.419064 
L 171.784787 37.782109 
L 164.708248 37.782109 
L 164.708248 39.280569 
L 159.20529 39.280569 
L 159.20529 37.782109 
L 152.115028 37.782109 
L 152.115028 37.419064 
z
" clip-path="url(#p1470249cf0)" style="fill: #ff0000"/>
   </g>
   <g id="patch_10">
    <path d="M 171.784787 37.164415 
Q 169.801059 37.291739 167.66745 37.355692 
Q 165.533841 37.419064 163.259167 37.419064 
Q 158.119109 37.419064 155.117069 37.039998 
Q 152.115028 36.660932 152.115028 36.012683 
Q 152.115028 35.356875 155.169968 34.980716 
Q 158.229316 34.604557 163.550114 34.604557 
Q 165.599966 34.604557 167.477894 34.65572 
Q 169.360231 34.7063 171.026562 34.806299 
L 171.026562 35.36734 
Q 169.307332 35.238853 167.605734 35.175482 
Q 165.904137 35.111529 164.193723 35.111529 
Q 161.028576 35.111529 159.313754 35.345248 
Q 157.598932 35.578385 157.598932 36.012683 
Q 157.598932 36.442911 159.252038 36.677792 
Q 160.905144 36.912092 163.946859 36.912092 
Q 164.775617 36.912092 165.48535 36.89872 
Q 166.195084 36.884767 166.759344 36.855697 
L 166.759344 36.328959 
L 163.519256 36.328959 
L 163.519256 35.859777 
L 171.784787 35.859777 
L 171.784787 37.164415 
z
" clip-path="url(#p1470249cf0)" style="fill: #ffa600"/>
   </g>
   <g id="patch_11">
    <path d="M 165.740287 32.809964 
L 158.175614 32.809964 
L 156.981192 34.604557 
L 152.115028 34.604557 
L 159.064393 24.753294 
L 164.835422 24.753294 
L 171.784787 34.604557 
L 166.922644 34.604557 
L 165.740287 32.809964 
z
M 159.382101 30.98159 
L 164.521735 30.98159 
L 161.95594 27.063042 
L 159.382101 30.98159 
z
" clip-path="url(#p1470249cf0)" style="fill: #008000"/>
   </g>
   <g id="patch_12">
    <path d="M 186.445296 39.208459 
L 178.880623 39.208459 
L 177.686201 39.280569 
L 172.820037 39.280569 
L 179.769402 38.884726 
L 185.540431 38.884726 
L 192.489796 39.280569 
L 187.627654 39.280569 
L 186.445296 39.208459 
z
M 180.08711 39.134991 
L 185.226745 39.134991 
L 182.660949 38.977536 
L 180.08711 39.134991 
z
" clip-path="url(#p1470249cf0)" style="fill: #008000"/>
   </g>
   <g id="patch_13">
    <path d="M 172.820037 37.285932 
L 192.489796 37.285932 
L 192.489796 37.597741 
L 185.413257 37.597741 
L 185.413257 38.884726 
L 179.910299 38.884726 
L 179.910299 37.597741 
L 172.820037 37.597741 
L 172.820037 37.285932 
z
" clip-path="url(#p1470249cf0)" style="fill: #ff0000"/>
   </g>
   <g id="patch_14">
    <path d="M 193.525046 35.850093 
L 213.194805 35.850093 
L 213.194805 36.519131 
L 206.118266 36.519131 
L 206.118266 39.280569 
L 200.615308 39.280569 
L 200.615308 36.519131 
L 193.525046 36.519131 
L 193.525046 35.850093 
z
" clip-path="url(#p1470249cf0)" style="fill: #ff0000"/>
   </g>
   <g id="patch_15">
    <path d="M 214.230056 37.061246 
L 233.899814 37.061246 
L 233.899814 37.494076 
L 226.823276 37.494076 
L 226.823276 39.280569 
L 221.320318 39.280569 
L 221.320318 37.494076 
L 214.230056 37.494076 
L 214.230056 37.061246 
z
" clip-path="url(#p1470249cf0)" style="fill: #ff0000"/>
   </g>
   <g id="patch_16">
    <path d="M 248.560324 38.780887 
L 240.995651 38.780887 
L 239.801229 39.280569 
L 234.935065 39.280569 
L 241.88443 36.537608 
L 247.655459 36.537608 
L 254.604824 39.280569 
L 249.742681 39.280569 
L 248.560324 38.780887 
z
M 242.202138 38.271799 
L 247.341772 38.271799 
L 244.775977 37.180728 
L 242.202138 38.271799 
z
" clip-path="url(#p1470249cf0)" style="fill: #008000"/>
   </g>
   <g id="patch_17">
    <path d="M 275.309833 39.199572 
Q 273.664492 39.23972 271.885342 39.260028 
Q 270.106193 39.280569 268.168457 39.280569 
Q 262.389939 39.280569 259.015006 39.128378 
Q 255.640074 38.976187 255.640074 38.715921 
Q 255.640074 38.454722 259.015006 38.302764 
Q 262.389939 38.150573 268.168457 38.150573 
Q 270.106193 38.150573 271.885342 38.171114 
Q 273.664492 38.191422 275.309833 38.231571 
L 275.309833 38.456823 
Q 273.649624 38.403603 272.038974 38.37886 
Q 270.428323 38.354117 268.649174 38.354117 
Q 265.457608 38.354117 263.6289 38.450521 
Q 261.805149 38.54669 261.805149 38.715921 
Q 261.805149 38.884452 263.6289 38.980855 
Q 265.457608 39.077025 268.649174 39.077025 
Q 270.428323 39.077025 272.038974 39.052282 
Q 273.649624 39.027306 275.309833 38.974086 
L 275.309833 39.199572 
z
" clip-path="url(#p1470249cf0)" style="fill: #0000ff"/>
   </g>
   <g id="patch_18">
    <path d="M 269.265333 37.834989 
L 261.70066 37.834989 
L 260.506238 38.150573 
L 255.640074 38.150573 
L 262.589439 36.418202 
L 268.360468 36.418202 
L 275.309833 38.150573 
L 270.447691 38.150573 
L 269.265333 37.834989 
z
M 262.907147 37.513465 
L 268.046782 37.513465 
L 265.480986 36.824377 
L 262.907147 37.513465 
z
" clip-path="url(#p1470249cf0)" style="fill: #008000"/>
   </g>
   <g id="patch_19">
    <path d="M 276.345083 36.12933 
L 296.014842 36.12933 
L 296.014842 36.74391 
L 288.938303 36.74391 
L 288.938303 39.280569 
L 283.435345 39.280569 
L 283.435345 36.74391 
L 276.345083 36.74391 
L 276.345083 36.12933 
z
" clip-path="url(#p1470249cf0)" style="fill: #ff0000"/>
   </g>
   <g id="patch_20">
    <path d="M 310.675352 38.788279 
L 303.110679 38.788279 
L 301.916257 39.280569 
L 297.050093 39.280569 
L 303.999458 36.578185 
L 309.770487 36.578185 
L 316.719852 39.280569 
L 311.857709 39.280569 
L 310.675352 38.788279 
z
M 304.317166 38.286722 
L 309.4568 38.286722 
L 306.891005 37.211791 
L 304.317166 38.286722 
z
" clip-path="url(#p1470249cf0)" style="fill: #008000"/>
   </g>
   <g id="patch_21">
    <path d="M 331.380361 39.114637 
L 323.815688 39.114637 
L 322.621266 39.280569 
L 317.755102 39.280569 
L 324.704467 38.3697 
L 330.475496 38.3697 
L 337.424861 39.280569 
L 332.562718 39.280569 
L 331.380361 39.114637 
z
M 325.022175 38.945582 
L 330.161809 38.945582 
L 327.596014 38.583264 
L 325.022175 38.945582 
z
" clip-path="url(#p1470249cf0)" style="fill: #008000"/>
   </g>
   <g id="patch_22">
    <path d="M 372.79038 39.124093 
L 365.225707 39.124093 
L 364.031285 39.280569 
L 359.165121 39.280569 
L 366.114485 38.42161 
L 371.885515 38.42161 
L 378.834879 39.280569 
L 373.972737 39.280569 
L 372.79038 39.124093 
z
M 366.432194 38.964672 
L 371.571828 38.964672 
L 369.006032 38.623003 
L 366.432194 38.964672 
z
" clip-path="url(#p1470249cf0)" style="fill: #008000"/>
   </g>
   <g id="patch_23">
    <path d="M 379.87013 38.676406 
L 399.539889 38.676406 
L 399.539889 38.794234 
L 392.46335 38.794234 
L 392.46335 39.280569 
L 386.960392 39.280569 
L 386.960392 38.794234 
L 379.87013 38.794234 
L 379.87013 38.676406 
z
" clip-path="url(#p1470249cf0)" style="fill: #ff0000"/>
   </g>
   <g id="patch_24">
    <path d="M 420.244898 39.135597 
Q 418.599557 39.207456 416.820407 39.243804 
Q 415.041258 39.280569 413.103522 39.280569 
Q 407.325003 39.280569 403.950071 39.008171 
Q 400.575139 38.735774 400.575139 38.26994 
Q 400.575139 37.802436 403.950071 37.530456 
Q 407.325003 37.258058 413.103522 37.258058 
Q 415.041258 37.258058 416.820407 37.294823 
Q 418.599557 37.331171 420.244898 37.40303 
L 420.244898 37.806196 
Q 418.584689 37.71094 416.974039 37.666655 
Q 415.363388 37.622369 413.584239 37.622369 
Q 410.392673 37.622369 408.563965 37.794915 
Q 406.740213 37.967044 406.740213 38.26994 
Q 406.740213 38.571583 408.563965 38.744129 
Q 410.392673 38.916258 413.584239 38.916258 
Q 415.363388 38.916258 416.974039 38.871973 
Q 418.584689 38.827269 420.244898 38.732014 
L 420.244898 39.135597 
z
" clip-path="url(#p1470249cf0)" style="fill: #0000ff"/>
   </g>
   <g id="patch_25">
    <path d="M 400.575139 31.540829 
L 420.244898 31.540829 
L 420.244898 32.655848 
L 413.168359 32.655848 
L 413.168359 37.258058 
L 407.665401 37.258058 
L 407.665401 32.655848 
L 400.575139 32.655848 
L 400.575139 31.540829 
z
" clip-path="url(#p1470249cf0)" style="fill: #ff0000"/>
   </g>
   <g id="patch_26">
    <path d="M 434.905408 38.485815 
L 427.340735 38.485815 
L 426.146312 39.280569 
L 421.280148 39.280569 
L 428.229513 34.917834 
L 434.000542 34.917834 
L 440.949907 39.280569 
L 436.087765 39.280569 
L 434.905408 38.485815 
z
M 428.547221 37.6761 
L 433.686856 37.6761 
L 431.12106 35.94073 
L 428.547221 37.6761 
z
" clip-path="url(#p1470249cf0)" style="fill: #008000"/>
   </g>
   <g id="patch_27">
    <path d="M 544.474954 39.245531 
Q 542.829612 39.262899 541.050463 39.271683 
Q 539.271314 39.280569 537.333577 39.280569 
Q 531.555059 39.280569 528.180127 39.214734 
Q 524.805195 39.148899 524.805195 39.036313 
Q 524.805195 38.923323 528.180127 38.857588 
Q 531.555059 38.791753 537.333577 38.791753 
Q 539.271314 38.791753 541.050463 38.800639 
Q 542.829612 38.809424 544.474954 38.826791 
L 544.474954 38.924231 
Q 542.814745 38.901209 541.204094 38.890506 
Q 539.593444 38.879803 537.814295 38.879803 
Q 534.622729 38.879803 532.794021 38.921505 
Q 530.970269 38.963106 530.970269 39.036313 
Q 530.970269 39.109216 532.794021 39.150918 
Q 534.622729 39.19252 537.814295 39.19252 
Q 539.593444 39.19252 541.204094 39.181816 
Q 542.814745 39.171012 544.474954 39.14799 
L 544.474954 39.245531 
z
" clip-path="url(#p1470249cf0)" style="fill: #0000ff"/>
   </g>
   <g id="patch_28">
    <path d="M 565.179963 39.247911 
Q 563.534622 39.264099 561.755472 39.272287 
Q 559.976323 39.280569 558.038587 39.280569 
Q 552.260068 39.280569 548.885136 39.219206 
Q 545.510204 39.157843 545.510204 39.052904 
Q 545.510204 38.947589 548.885136 38.886319 
Q 552.260068 38.824956 558.038587 38.824956 
Q 559.976323 38.824956 561.755472 38.833238 
Q 563.534622 38.841426 565.179963 38.857614 
L 565.179963 38.948436 
Q 563.519754 38.926977 561.909104 38.917001 
Q 560.298453 38.907025 558.519304 38.907025 
Q 555.327738 38.907025 553.49903 38.945894 
Q 551.675278 38.98467 551.675278 39.052904 
Q 551.675278 39.120855 553.49903 39.159725 
Q 555.327738 39.1985 558.519304 39.1985 
Q 560.298453 39.1985 561.909104 39.188524 
Q 563.519754 39.178454 565.179963 39.156996 
L 565.179963 39.247911 
z
" clip-path="url(#p1470249cf0)" style="fill: #0000ff"/>
   </g>
   <g id="patch_29">
    <path d="M 559.135463 38.373643 
L 551.57079 38.373643 
L 550.376368 38.824956 
L 545.510204 38.824956 
L 552.459569 36.347513 
L 558.230598 36.347513 
L 565.179963 38.824956 
L 560.317821 38.824956 
L 559.135463 38.373643 
z
M 552.777277 37.913835 
L 557.916911 37.913835 
L 555.351116 36.92838 
L 552.777277 37.913835 
z
" clip-path="url(#p1470249cf0)" style="fill: #008000"/>
   </g>
   <g id="patch_30">
    <path d="M 566.215213 39.261255 
L 585.884972 39.261255 
L 585.884972 39.265022 
L 578.808433 39.265022 
L 578.808433 39.280569 
L 573.305475 39.280569 
L 573.305475 39.265022 
L 566.215213 39.265022 
L 566.215213 39.261255 
z
" clip-path="url(#p1470249cf0)" style="fill: #ff0000"/>
   </g>
   <g id="patch_31">
    <path d="M 579.840473 39.055543 
L 572.275799 39.055543 
L 571.081377 39.261255 
L 566.215213 39.261255 
L 573.164578 38.132019 
L 578.935607 38.132019 
L 585.884972 39.261255 
L 581.02283 39.261255 
L 579.840473 39.055543 
z
M 573.482286 38.845959 
L 578.621921 38.845959 
L 576.056125 38.396782 
L 573.482286 38.845959 
z
" clip-path="url(#p1470249cf0)" style="fill: #008000"/>
   </g>
   <g id="patch_32">
    <path d="M 586.920223 34.31082 
L 606.589981 34.31082 
L 606.589981 35.28006 
L 599.513443 35.28006 
L 599.513443 39.280569 
L 594.010485 39.280569 
L 594.010485 35.28006 
L 586.920223 35.28006 
L 586.920223 34.31082 
z
" clip-path="url(#p1470249cf0)" style="fill: #ff0000"/>
   </g>
   <g id="patch_33">
    <path d="M 607.625232 32.612435 
L 627.294991 32.612435 
L 627.294991 33.912907 
L 620.218452 33.912907 
L 620.218452 39.280569 
L 614.715494 39.280569 
L 614.715494 33.912907 
L 607.625232 33.912907 
L 607.625232 32.612435 
z
" clip-path="url(#p1470249cf0)" style="fill: #ff0000"/>
   </g>
   <g id="patch_34">
    <path d="M 621.250491 31.260016 
L 613.685818 31.260016 
L 612.491396 32.612435 
L 607.625232 32.612435 
L 614.574597 25.188447 
L 620.345626 25.188447 
L 627.294991 32.612435 
L 622.432848 32.612435 
L 621.250491 31.260016 
z
M 614.892305 29.882139 
L 620.031939 29.882139 
L 617.466144 26.929091 
L 614.892305 29.882139 
z
" clip-path="url(#p1470249cf0)" style="fill: #008000"/>
   </g>
   <g id="patch_35">
    <path d="M 641.9555 38.672439 
L 634.390827 38.672439 
L 633.196405 39.280569 
L 628.330241 39.280569 
L 635.279606 35.942293 
L 641.050635 35.942293 
L 648 39.280569 
L 643.137858 39.280569 
L 641.9555 38.672439 
z
M 635.597314 38.052862 
L 640.736949 38.052862 
L 638.171153 36.724992 
L 635.597314 38.052862 
z
" clip-path="url(#p1470249cf0)" style="fill: #008000"/>
   </g>
   <g id="patch_36">
    <path d="M 628.330241 31.382169 
L 648 31.382169 
L 648 32.27152 
L 640.923461 32.27152 
L 640.923461 35.942293 
L 635.420503 35.942293 
L 635.420503 32.27152 
L 628.330241 32.27152 
L 628.330241 31.382169 
z
" clip-path="url(#p1470249cf0)" style="fill: #ff0000"/>
   </g>
   <g id="patch_37">
    <path d="M 109.669759 41.803217 
Q 108.024417 40.890638 106.245268 40.429043 
Q 104.466119 39.962142 102.528383 39.962142 
Q 96.749864 39.962142 93.374932 43.421454 
Q 90 46.880766 90 52.796614 
Q 90 58.733685 93.374932 62.187691 
Q 96.749864 65.647004 102.528383 65.647004 
Q 104.466119 65.647004 106.245268 65.180103 
Q 108.024417 64.718507 109.669759 63.805928 
L 109.669759 58.685934 
Q 108.00955 59.895632 106.398899 60.458035 
Q 104.788249 61.020439 103.0091 61.020439 
Q 99.817534 61.020439 97.988826 58.829187 
Q 96.165074 56.643242 96.165074 52.796614 
Q 96.165074 48.965903 97.988826 46.774652 
Q 99.817534 44.588706 103.0091 44.588706 
Q 104.788249 44.588706 106.398899 45.15111 
Q 108.00955 45.718819 109.669759 46.928517 
L 109.669759 41.803217 
z
" clip-path="url(#p1470249cf0)" style="fill: #0000ff"/>
   </g>
   <g id="patch_38">
    <path d="M 109.669759 39.342236 
Q 107.686031 39.311403 105.552422 39.295915 
Q 103.418813 39.280569 101.144139 39.280569 
Q 96.004081 39.280569 93.002041 39.372365 
Q 90 39.464161 90 39.621144 
Q 90 39.779957 93.05494 39.871049 
Q 96.114289 39.962142 101.435086 39.962142 
Q 103.484938 39.962142 105.362866 39.949752 
Q 107.245203 39.937503 108.911534 39.913287 
L 108.911534 39.777423 
Q 107.192304 39.808538 105.490707 39.823884 
Q 103.789109 39.839371 102.078695 39.839371 
Q 98.913548 39.839371 97.198726 39.782773 
Q 95.483904 39.726316 95.483904 39.621144 
Q 95.483904 39.516958 97.13701 39.460079 
Q 98.790116 39.403339 101.831832 39.403339 
Q 102.660589 39.403339 103.370322 39.406578 
Q 104.080056 39.409957 104.644316 39.416996 
L 104.644316 39.544554 
L 101.404228 39.544554 
L 101.404228 39.658172 
L 109.669759 39.658172 
L 109.669759 39.342236 
z
" clip-path="url(#p1470249cf0)" style="fill: #ffa600"/>
   </g>
   <g id="patch_39">
    <path d="M 130.374768 39.444882 
Q 128.729427 39.363436 126.950277 39.322239 
Q 125.171128 39.280569 123.233392 39.280569 
Q 117.454874 39.280569 114.079941 39.589307 
Q 110.705009 39.898045 110.705009 40.426025 
Q 110.705009 40.955898 114.079941 41.264163 
Q 117.454874 41.5729 123.233392 41.5729 
Q 125.171128 41.5729 126.950277 41.53123 
Q 128.729427 41.490034 130.374768 41.408588 
L 130.374768 40.951637 
Q 128.714559 41.0596 127.103909 41.109794 
Q 125.493258 41.159987 123.714109 41.159987 
Q 120.522543 41.159987 118.693835 40.964422 
Q 116.870084 40.76933 116.870084 40.426025 
Q 116.870084 40.08414 118.693835 39.888574 
Q 120.522543 39.693482 123.714109 39.693482 
Q 125.493258 39.693482 127.103909 39.743676 
Q 128.714559 39.794343 130.374768 39.902307 
L 130.374768 39.444882 
z
" clip-path="url(#p1470249cf0)" style="fill: #0000ff"/>
   </g>
   <g id="patch_40">
    <path d="M 130.374768 42.905473 
Q 128.391041 42.239187 126.257432 41.904522 
Q 124.123823 41.5729 121.849149 41.5729 
Q 116.709091 41.5729 113.70705 43.556547 
Q 110.705009 45.540194 110.705009 48.932473 
Q 110.705009 52.364303 113.759949 54.332737 
Q 116.819298 56.301172 122.140095 56.301172 
Q 124.189947 56.301172 126.067876 56.03344 
Q 127.950212 55.768751 129.616543 55.245458 
L 129.616543 52.30954 
Q 127.897313 52.98191 126.195716 53.313532 
Q 124.494119 53.648197 122.783705 53.648197 
Q 119.618558 53.648197 117.903735 52.425151 
Q 116.188913 51.205147 116.188913 48.932473 
Q 116.188913 46.681095 117.842019 45.451964 
Q 119.495126 44.225876 122.536841 44.225876 
Q 123.365598 44.225876 124.075332 44.295851 
Q 124.785065 44.368869 125.349325 44.520989 
L 125.349325 47.277405 
L 122.109237 47.277405 
L 122.109237 49.732624 
L 130.374768 49.732624 
L 130.374768 42.905473 
z
" clip-path="url(#p1470249cf0)" style="fill: #ffa600"/>
   </g>
   <g id="patch_41">
    <path d="M 151.079777 44.075515 
Q 149.434436 43.869166 147.655287 43.764792 
Q 145.876137 43.659218 143.938401 43.659218 
Q 138.159883 43.659218 134.784951 44.441424 
Q 131.410019 45.223629 131.410019 46.561296 
Q 131.410019 47.903762 134.784951 48.684768 
Q 138.159883 49.466974 143.938401 49.466974 
Q 145.876137 49.466974 147.655287 49.3614 
Q 149.434436 49.257026 151.079777 49.050677 
L 151.079777 47.892965 
Q 149.419568 48.166497 147.808918 48.293665 
Q 146.198268 48.420834 144.419118 48.420834 
Q 141.227552 48.420834 139.398845 47.925357 
Q 137.575093 47.43108 137.575093 46.561296 
Q 137.575093 45.695112 139.398845 45.199635 
Q 141.227552 44.705358 144.419118 44.705358 
Q 146.198268 44.705358 147.808918 44.832526 
Q 149.419568 44.960894 151.079777 45.234426 
L 151.079777 44.075515 
z
" clip-path="url(#p1470249cf0)" style="fill: #0000ff"/>
   </g>
   <g id="patch_42">
    <path d="M 151.079777 39.676737 
Q 149.09605 39.478653 146.962441 39.379159 
Q 144.828832 39.280569 142.554158 39.280569 
Q 137.4141 39.280569 134.412059 39.870298 
Q 131.410019 40.460028 131.410019 41.468537 
Q 131.410019 42.488805 134.464959 43.074012 
Q 137.524307 43.659218 142.845105 43.659218 
Q 144.894956 43.659218 146.772885 43.579623 
Q 148.655222 43.500932 150.321553 43.345359 
L 150.321553 42.472524 
Q 148.602322 42.672417 146.900725 42.771006 
Q 145.199128 42.870501 143.488714 42.870501 
Q 140.323567 42.870501 138.608745 42.506895 
Q 136.893923 42.144193 136.893923 41.468537 
Q 136.893923 40.799212 138.547029 40.433797 
Q 140.200135 40.069287 143.24185 40.069287 
Q 144.070607 40.069287 144.780341 40.09009 
Q 145.490075 40.111798 146.054335 40.157023 
L 146.054335 40.976493 
L 142.814247 40.976493 
L 142.814247 41.706419 
L 151.079777 41.706419 
L 151.079777 39.676737 
z
" clip-path="url(#p1470249cf0)" style="fill: #ffa600"/>
   </g>
   <g id="patch_43">
    <path d="M 171.784787 39.364198 
Q 170.139445 39.322745 168.360296 39.301778 
Q 166.581147 39.280569 164.64341 39.280569 
Q 158.864892 39.280569 155.48996 39.437704 
Q 152.115028 39.59484 152.115028 39.863561 
Q 152.115028 40.133245 155.48996 40.29014 
Q 158.864892 40.447275 164.64341 40.447275 
Q 166.581147 40.447275 168.360296 40.426066 
Q 170.139445 40.405099 171.784787 40.363646 
L 171.784787 40.131076 
Q 170.124578 40.186025 168.513927 40.211572 
Q 166.903277 40.237118 165.124128 40.237118 
Q 161.932562 40.237118 160.103854 40.137583 
Q 158.280102 40.038289 158.280102 39.863561 
Q 158.280102 39.689555 160.103854 39.59002 
Q 161.932562 39.490726 165.124128 39.490726 
Q 166.903277 39.490726 168.513927 39.516272 
Q 170.124578 39.54206 171.784787 39.597009 
L 171.784787 39.364198 
z
" clip-path="url(#p1470249cf0)" style="fill: #0000ff"/>
   </g>
   <g id="patch_44">
    <path d="M 192.489796 39.462648 
Q 190.844455 39.372395 189.065305 39.326745 
Q 187.286156 39.280569 185.34842 39.280569 
Q 179.569901 39.280569 176.194969 39.622688 
Q 172.820037 39.964806 172.820037 40.549871 
Q 172.820037 41.137035 176.194969 41.478629 
Q 179.569901 41.820747 185.34842 41.820747 
Q 187.286156 41.820747 189.065305 41.774572 
Q 190.844455 41.728921 192.489796 41.638669 
L 192.489796 41.132312 
Q 190.829587 41.251949 189.218937 41.307569 
Q 187.608286 41.36319 185.829137 41.36319 
Q 182.637571 41.36319 180.808863 41.14648 
Q 178.985111 40.930294 178.985111 40.549871 
Q 178.985111 40.171022 180.808863 39.954312 
Q 182.637571 39.738127 185.829137 39.738127 
Q 187.608286 39.738127 189.218937 39.793747 
Q 190.829587 39.849892 192.489796 39.969529 
L 192.489796 39.462648 
z
" clip-path="url(#p1470249cf0)" style="fill: #0000ff"/>
   </g>
   <g id="patch_45">
    <path d="M 192.489796 47.07278 
Q 190.506069 44.446764 188.37246 43.12776 
Q 186.238851 41.820747 183.964177 41.820747 
Q 178.824119 41.820747 175.822078 49.638842 
Q 172.820037 57.456936 172.820037 70.826836 
Q 172.820037 84.352619 175.874977 92.110759 
Q 178.934326 99.868898 184.255123 99.868898 
Q 186.304975 99.868898 188.182903 98.813695 
Q 190.06524 97.770483 191.731571 95.708041 
L 191.731571 84.136782 
Q 190.012341 86.78678 188.310744 88.093793 
Q 186.609146 89.412797 184.898733 89.412797 
Q 181.733585 89.412797 180.018763 84.592438 
Q 178.303941 79.78407 178.303941 70.826836 
Q 178.303941 61.953539 179.957047 57.109199 
Q 181.610153 52.276849 184.651869 52.276849 
Q 185.480626 52.276849 186.190359 52.552641 
Q 186.900093 52.840423 187.464353 53.43997 
L 187.464353 64.303764 
L 184.224265 64.303764 
L 184.224265 73.980454 
L 192.489796 73.980454 
L 192.489796 47.07278 
z
" clip-path="url(#p1470249cf0)" style="fill: #ffa600"/>
   </g>
   <g id="patch_46">
    <path d="M 207.150306 39.730908 
L 199.585632 39.730908 
L 198.39121 39.280569 
L 193.525046 39.280569 
L 200.474411 41.752663 
L 206.24544 41.752663 
L 213.194805 39.280569 
L 208.332663 39.280569 
L 207.150306 39.730908 
z
M 200.792119 40.189723 
L 205.931754 40.189723 
L 203.365958 41.17305 
L 200.792119 40.189723 
z
" clip-path="url(#p1470249cf0)" style="fill: #008000"/>
   </g>
   <g id="patch_47">
    <path d="M 213.194805 48.771485 
Q 211.549464 47.54677 209.770315 46.927292 
Q 207.991165 46.300694 206.053429 46.300694 
Q 200.274911 46.300694 196.899979 50.943217 
Q 193.525046 55.585741 193.525046 63.525025 
Q 193.525046 71.492792 196.899979 76.128195 
Q 200.274911 80.770718 206.053429 80.770718 
Q 207.991165 80.770718 209.770315 80.14412 
Q 211.549464 79.524642 213.194805 78.299927 
L 213.194805 71.428708 
Q 211.534596 73.052167 209.923946 73.806933 
Q 208.313295 74.561699 206.534146 74.561699 
Q 203.34258 74.561699 201.513873 71.62096 
Q 199.690121 68.687341 199.690121 63.525025 
Q 199.690121 58.384071 201.513873 55.443332 
Q 203.34258 52.509713 206.534146 52.509713 
Q 208.313295 52.509713 209.923946 53.264479 
Q 211.534596 54.026365 213.194805 55.649824 
L 213.194805 48.771485 
z
" clip-path="url(#p1470249cf0)" style="fill: #0000ff"/>
   </g>
   <g id="patch_48">
    <path d="M 213.194805 42.164156 
Q 211.211078 41.958409 209.077469 41.855066 
Q 206.94386 41.752663 204.669186 41.752663 
Q 199.529128 41.752663 196.527087 42.365205 
Q 193.525046 42.977747 193.525046 44.025269 
Q 193.525046 45.085004 196.579987 45.692849 
Q 199.639335 46.300694 204.960133 46.300694 
Q 207.009984 46.300694 208.887913 46.218019 
Q 210.77025 46.136284 212.436581 45.974693 
L 212.436581 45.068094 
Q 210.71735 45.275719 209.015753 45.378123 
Q 207.314156 45.481466 205.603742 45.481466 
Q 202.438595 45.481466 200.723773 45.103794 
Q 199.00895 44.727062 199.00895 44.025269 
Q 199.00895 43.330052 200.662057 42.950502 
Q 202.315163 42.571891 205.356878 42.571891 
Q 206.185635 42.571891 206.895369 42.593499 
Q 207.605102 42.616046 208.169363 42.66302 
L 208.169363 43.514191 
L 204.929275 43.514191 
L 204.929275 44.272353 
L 213.194805 44.272353 
L 213.194805 42.164156 
z
" clip-path="url(#p1470249cf0)" style="fill: #ffa600"/>
   </g>
   <g id="patch_49">
    <path d="M 227.855315 42.956297 
L 220.290642 42.956297 
L 219.09622 42.05946 
L 214.230056 42.05946 
L 221.17942 46.982569 
L 226.95045 46.982569 
L 233.899814 42.05946 
L 229.037672 42.05946 
L 227.855315 42.956297 
z
M 221.497129 43.870016 
L 226.636763 43.870016 
L 224.070967 45.828287 
L 221.497129 43.870016 
z
" clip-path="url(#p1470249cf0)" style="fill: #008000"/>
   </g>
   <g id="patch_50">
    <path d="M 233.899814 48.387688 
Q 232.254473 47.691203 230.475324 47.338911 
Q 228.696175 46.982569 226.758438 46.982569 
Q 220.97992 46.982569 217.604988 49.622735 
Q 214.230056 52.262901 214.230056 56.777908 
Q 214.230056 61.309112 217.604988 63.945228 
Q 220.97992 66.585394 226.758438 66.585394 
Q 228.696175 66.585394 230.475324 66.229052 
Q 232.254473 65.87676 233.899814 65.180275 
L 233.899814 61.272668 
Q 232.239606 62.195916 230.628955 62.625145 
Q 229.018305 63.054375 227.239155 63.054375 
Q 224.04759 63.054375 222.218882 61.382 
Q 220.39513 59.713674 220.39513 56.777908 
Q 220.39513 53.854289 222.218882 52.181914 
Q 224.04759 50.513588 227.239155 50.513588 
Q 229.018305 50.513588 230.628955 50.942818 
Q 232.239606 51.376096 233.899814 52.299345 
L 233.899814 48.387688 
z
" clip-path="url(#p1470249cf0)" style="fill: #0000ff"/>
   </g>
   <g id="patch_51">
    <path d="M 233.899814 39.531995 
Q 231.916087 39.406282 229.782478 39.343139 
Q 227.648869 39.280569 225.374195 39.280569 
Q 220.234137 39.280569 217.232096 39.654838 
Q 214.230056 40.029107 214.230056 40.669153 
Q 214.230056 41.316662 217.284996 41.688061 
Q 220.344344 42.05946 225.665142 42.05946 
Q 227.714993 42.05946 229.592922 42.008945 
Q 231.475259 41.959004 233.14159 41.86027 
L 233.14159 41.306329 
Q 231.422359 41.43319 229.720762 41.49576 
Q 228.019165 41.558903 226.308751 41.558903 
Q 223.143604 41.558903 221.428782 41.328142 
Q 219.71396 41.097955 219.71396 40.669153 
Q 219.71396 40.244369 221.367066 40.01246 
Q 223.020172 39.781125 226.061887 39.781125 
Q 226.890644 39.781125 227.600378 39.794328 
Q 228.310112 39.808105 228.874372 39.836806 
L 228.874372 40.35688 
L 225.634284 40.35688 
L 225.634284 40.820124 
L 233.899814 40.820124 
L 233.899814 39.531995 
z
" clip-path="url(#p1470249cf0)" style="fill: #ffa600"/>
   </g>
   <g id="patch_52">
    <path d="M 254.604824 44.776001 
Q 252.959482 44.591541 251.180333 44.498239 
Q 249.401184 44.403864 247.463447 44.403864 
Q 241.684929 44.403864 238.309997 45.103097 
Q 234.935065 45.80233 234.935065 46.998104 
Q 234.935065 48.198167 238.309997 48.896328 
Q 241.684929 49.595561 247.463447 49.595561 
Q 249.401184 49.595561 251.180333 49.501186 
Q 252.959482 49.407883 254.604824 49.223423 
L 254.604824 48.188515 
Q 252.944615 48.433032 251.333964 48.546711 
Q 249.723314 48.66039 247.944165 48.66039 
Q 244.752599 48.66039 242.923891 48.217471 
Q 241.100139 47.775625 241.100139 46.998104 
Q 241.100139 46.2238 242.923891 45.780881 
Q 244.752599 45.339034 247.944165 45.339034 
Q 249.723314 45.339034 251.333964 45.452713 
Q 252.944615 45.567464 254.604824 45.811981 
L 254.604824 44.776001 
z
" clip-path="url(#p1470249cf0)" style="fill: #0000ff"/>
   </g>
   <g id="patch_53">
    <path d="M 254.604824 39.74411 
Q 252.621096 39.51234 250.487487 39.395925 
Q 248.353878 39.280569 246.079204 39.280569 
Q 240.939146 39.280569 237.937106 39.970589 
Q 234.935065 40.66061 234.935065 41.840629 
Q 234.935065 43.034406 237.990005 43.719135 
Q 241.049353 44.403864 246.370151 44.403864 
Q 248.420003 44.403864 250.297931 44.310732 
Q 252.180268 44.218659 253.846599 44.036629 
L 253.846599 43.015357 
Q 252.127369 43.249244 250.425771 43.3646 
Q 248.724174 43.481015 247.01376 43.481015 
Q 243.848613 43.481015 242.133791 43.055573 
Q 240.418969 42.631189 240.418969 41.840629 
Q 240.418969 41.057477 242.072075 40.629919 
Q 243.725181 40.203418 246.766897 40.203418 
Q 247.595654 40.203418 248.305387 40.22776 
Q 249.015121 40.253159 249.579381 40.306075 
L 249.579381 41.264907 
L 246.339293 41.264907 
L 246.339293 42.118965 
L 254.604824 42.118965 
L 254.604824 39.74411 
z
" clip-path="url(#p1470249cf0)" style="fill: #ffa600"/>
   </g>
   <g id="patch_54">
    <path d="M 234.935065 83.266929 
L 254.604824 83.266929 
L 254.604824 76.700074 
L 247.528285 76.700074 
L 247.528285 49.595561 
L 242.025327 49.595561 
L 242.025327 76.700074 
L 234.935065 76.700074 
L 234.935065 83.266929 
z
" clip-path="url(#p1470249cf0)" style="fill: #ff0000"/>
   </g>
   <g id="patch_55">
    <path d="M 275.309833 47.481427 
Q 273.326106 46.801767 271.192497 46.460386 
Q 269.058888 46.122107 266.784214 46.122107 
Q 261.644156 46.122107 258.642115 48.14557 
Q 255.640074 50.169032 255.640074 53.629401 
Q 255.640074 57.130115 258.695014 59.138059 
Q 261.754363 61.146004 267.07516 61.146004 
Q 269.125012 61.146004 271.002941 60.872899 
Q 272.885277 60.602897 274.551608 60.0691 
L 274.551608 57.074252 
Q 272.832378 57.760119 271.130781 58.098397 
Q 269.429183 58.439779 267.71877 58.439779 
Q 264.553622 58.439779 262.8388 57.192184 
Q 261.123978 55.947693 261.123978 53.629401 
Q 261.123978 51.332833 262.777084 50.079031 
Q 264.430191 48.828333 267.471906 48.828333 
Q 268.300663 48.828333 269.010397 48.899713 
Q 269.72013 48.974196 270.28439 49.12937 
L 270.28439 51.941113 
L 267.044302 51.941113 
L 267.044302 54.445613 
L 275.309833 54.445613 
L 275.309833 47.481427 
z
" clip-path="url(#p1470249cf0)" style="fill: #ffa600"/>
   </g>
   <g id="patch_56">
    <path d="M 255.640074 46.122107 
L 275.309833 46.122107 
L 275.309833 44.787817 
L 268.233294 44.787817 
L 268.233294 39.280569 
L 262.730336 39.280569 
L 262.730336 44.787817 
L 255.640074 44.787817 
L 255.640074 46.122107 
z
" clip-path="url(#p1470249cf0)" style="fill: #ff0000"/>
   </g>
   <g id="patch_57">
    <path d="M 289.970343 39.303458 
L 282.40567 39.303458 
L 281.211247 39.280569 
L 276.345083 39.280569 
L 283.294448 39.406217 
L 289.065478 39.406217 
L 296.014842 39.280569 
L 291.1527 39.280569 
L 289.970343 39.303458 
z
M 283.612157 39.326778 
L 288.751791 39.326778 
L 286.185995 39.376758 
L 283.612157 39.326778 
z
" clip-path="url(#p1470249cf0)" style="fill: #008000"/>
   </g>
   <g id="patch_58">
    <path d="M 296.014842 45.619962 
Q 294.369501 44.126488 292.590352 43.371068 
Q 290.811202 42.606965 288.873466 42.606965 
Q 283.094948 42.606965 279.720016 48.268274 
Q 276.345083 53.929582 276.345083 63.611115 
Q 276.345083 73.327379 279.720016 78.980005 
Q 283.094948 84.641314 288.873466 84.641314 
Q 290.811202 84.641314 292.590352 83.877211 
Q 294.369501 83.121791 296.014842 81.628316 
L 296.014842 73.249232 
Q 294.354633 75.228954 292.743983 76.149351 
Q 291.133332 77.069747 289.354183 77.069747 
Q 286.162617 77.069747 284.33391 73.483673 
Q 282.510158 69.906282 282.510158 63.611115 
Q 282.510158 57.341997 284.33391 53.755923 
Q 286.162617 50.178531 289.354183 50.178531 
Q 291.133332 50.178531 292.743983 51.098928 
Q 294.354633 52.028008 296.014842 54.007729 
L 296.014842 45.619962 
z
" clip-path="url(#p1470249cf0)" style="fill: #0000ff"/>
   </g>
   <g id="patch_59">
    <path d="M 296.014842 39.695812 
Q 294.031115 39.551015 291.897506 39.478285 
Q 289.763897 39.406217 287.489223 39.406217 
Q 282.349165 39.406217 279.347124 39.837303 
Q 276.345083 40.268389 276.345083 41.005599 
Q 276.345083 41.751405 279.400024 42.179185 
Q 282.459372 42.606965 287.78017 42.606965 
Q 289.830021 42.606965 291.70795 42.548782 
Q 293.590287 42.491259 295.256618 42.377537 
L 295.256618 41.739504 
Q 293.537387 41.885623 291.83579 41.957691 
Q 290.134193 42.030421 288.423779 42.030421 
Q 285.258632 42.030421 283.54381 41.764628 
Q 281.828988 41.499497 281.828988 41.005599 
Q 281.828988 40.51633 283.482094 40.249215 
Q 285.1352 39.982762 288.176915 39.982762 
Q 289.005672 39.982762 289.715406 39.997969 
Q 290.425139 40.013837 290.9894 40.046896 
L 290.9894 40.64592 
L 287.749312 40.64592 
L 287.749312 41.179488 
L 296.014842 41.179488 
L 296.014842 39.695812 
z
" clip-path="url(#p1470249cf0)" style="fill: #ffa600"/>
   </g>
   <g id="patch_60">
    <path d="M 316.719852 43.969856 
Q 315.07451 43.593224 313.295361 43.402719 
Q 311.516212 43.210023 309.578475 43.210023 
Q 303.799957 43.210023 300.425025 44.63772 
Q 297.050093 46.065417 297.050093 48.506954 
Q 297.050093 50.957249 300.425025 52.382756 
Q 303.799957 53.810453 309.578475 53.810453 
Q 311.516212 53.810453 313.295361 53.617758 
Q 315.07451 53.427252 316.719852 53.050621 
L 316.719852 50.937542 
Q 315.059643 51.436798 313.448992 51.668908 
Q 311.838342 51.901018 310.059193 51.901018 
Q 306.867627 51.901018 305.038919 50.996664 
Q 303.215167 50.0945 303.215167 48.506954 
Q 303.215167 46.925977 305.038919 46.021623 
Q 306.867627 45.119458 310.059193 45.119458 
Q 311.838342 45.119458 313.448992 45.351569 
Q 315.059643 45.585868 316.719852 46.085124 
L 316.719852 43.969856 
z
" clip-path="url(#p1470249cf0)" style="fill: #0000ff"/>
   </g>
   <g id="patch_61">
    <path d="M 316.719852 39.636095 
Q 314.736124 39.458332 312.602515 39.369045 
Q 310.468906 39.280569 308.194232 39.280569 
Q 303.054174 39.280569 300.052133 39.809799 
Q 297.050093 40.33903 297.050093 41.244079 
Q 297.050093 42.15968 300.105033 42.684851 
Q 303.164381 43.210023 308.485179 43.210023 
Q 310.535031 43.210023 312.412959 43.138593 
Q 314.295296 43.067975 315.961627 42.928362 
L 315.961627 42.145069 
Q 314.242397 42.324455 312.540799 42.412931 
Q 310.839202 42.502218 309.128788 42.502218 
Q 305.963641 42.502218 304.248819 42.175914 
Q 302.533997 41.850421 302.533997 41.244079 
Q 302.533997 40.643418 304.187103 40.31549 
Q 305.840209 39.988374 308.881924 39.988374 
Q 309.710682 39.988374 310.420415 40.007043 
Q 311.130149 40.026524 311.694409 40.067109 
L 311.694409 40.802512 
L 308.454321 40.802512 
L 308.454321 41.457557 
L 316.719852 41.457557 
L 316.719852 39.636095 
z
" clip-path="url(#p1470249cf0)" style="fill: #ffa600"/>
   </g>
   <g id="patch_62">
    <path d="M 297.050093 95.952364 
L 316.719852 95.952364 
L 316.719852 87.733517 
L 309.643313 87.733517 
L 309.643313 53.810453 
L 304.140355 53.810453 
L 304.140355 87.733517 
L 297.050093 87.733517 
L 297.050093 95.952364 
z
" clip-path="url(#p1470249cf0)" style="fill: #ff0000"/>
   </g>
   <g id="patch_63">
    <path d="M 337.424861 52.608854 
Q 335.441133 46.046372 333.307525 42.750148 
Q 331.173916 39.48389 328.899242 39.48389 
Q 323.759184 39.48389 320.757143 59.021507 
Q 317.755102 78.559124 317.755102 111.970846 
Q 317.755102 145.772122 320.810042 165.159911 
Q 323.869391 184.547699 329.190188 184.547699 
Q 331.24004 184.547699 333.117968 181.91072 
Q 335.000305 179.303707 336.666636 174.149612 
L 336.666636 145.23274 
Q 334.947406 151.855153 333.245809 155.121411 
Q 331.544211 158.417635 329.833798 158.417635 
Q 326.66865 158.417635 324.953828 146.371436 
Q 323.239006 134.355202 323.239006 111.970846 
Q 323.239006 89.79625 324.892112 77.69012 
Q 326.545218 65.613954 329.586934 65.613954 
Q 330.415691 65.613954 331.125424 66.303165 
Q 331.835158 67.022341 332.399418 68.520624 
L 332.399418 95.669522 
L 329.15933 95.669522 
L 329.15933 119.851817 
L 337.424861 119.851817 
L 337.424861 52.608854 
z
" clip-path="url(#p1470249cf0)" style="fill: #ffa600"/>
   </g>
   <g id="patch_64">
    <path d="M 317.755102 39.48389 
L 337.424861 39.48389 
L 337.424861 39.444237 
L 330.348322 39.444237 
L 330.348322 39.280569 
L 324.845364 39.280569 
L 324.845364 39.444237 
L 317.755102 39.444237 
L 317.755102 39.48389 
z
" clip-path="url(#p1470249cf0)" style="fill: #ff0000"/>
   </g>
   <g id="patch_65">
    <path d="M 352.085371 39.856767 
L 344.520697 39.856767 
L 343.326275 39.729307 
L 338.460111 39.729307 
L 345.409476 40.428986 
L 351.180505 40.428986 
L 358.12987 39.729307 
L 353.267728 39.729307 
L 352.085371 39.856767 
z
M 345.727184 39.986626 
L 350.866819 39.986626 
L 348.301023 40.264938 
L 345.727184 39.986626 
z
" clip-path="url(#p1470249cf0)" style="fill: #008000"/>
   </g>
   <g id="patch_66">
    <path d="M 358.12987 50.186206 
Q 356.146143 45.307596 354.012534 42.857153 
Q 351.878925 40.428986 349.604251 40.428986 
Q 344.464193 40.428986 341.462152 54.953433 
Q 338.460111 69.477879 338.460111 94.316464 
Q 338.460111 119.444647 341.515051 133.857709 
Q 344.5744 148.270771 349.895197 148.270771 
Q 351.945049 148.270771 353.822978 146.310417 
Q 355.705314 144.372339 357.371645 140.540736 
L 357.371645 119.043665 
Q 355.652415 123.966829 353.950818 126.394995 
Q 352.249221 128.845439 350.538807 128.845439 
Q 347.37366 128.845439 345.658837 119.890182 
Q 343.944015 110.957202 343.944015 94.316464 
Q 343.944015 77.831663 345.597122 68.831853 
Q 347.250228 59.854319 350.291943 59.854319 
Q 351.1207 59.854319 351.830434 60.366685 
Q 352.540167 60.901327 353.104427 62.015165 
L 353.104427 82.197907 
L 349.864339 82.197907 
L 349.864339 100.175251 
L 358.12987 100.175251 
L 358.12987 50.186206 
z
" clip-path="url(#p1470249cf0)" style="fill: #ffa600"/>
   </g>
   <g id="patch_67">
    <path d="M 338.460111 39.729307 
L 358.12987 39.729307 
L 358.12987 39.641791 
L 351.053331 39.641791 
L 351.053331 39.280569 
L 345.550373 39.280569 
L 345.550373 39.641791 
L 338.460111 39.641791 
L 338.460111 39.729307 
z
" clip-path="url(#p1470249cf0)" style="fill: #ff0000"/>
   </g>
   <g id="patch_68">
    <path d="M 378.834879 52.345615 
Q 376.851152 45.813092 374.717543 42.531916 
Q 372.583934 39.280569 370.30926 39.280569 
Q 365.169202 39.280569 362.167161 58.728994 
Q 359.165121 78.177418 359.165121 111.436611 
Q 359.165121 145.083578 362.220061 164.382858 
Q 365.279409 183.682139 370.600207 183.682139 
Q 372.650058 183.682139 374.527987 181.057198 
Q 376.410324 178.462086 378.076655 173.33152 
L 378.076655 144.546658 
Q 376.357424 151.138839 374.655827 154.390186 
Q 372.95423 157.671362 371.243816 157.671362 
Q 368.078669 157.671362 366.363847 145.680156 
Q 364.649025 133.718778 364.649025 111.436611 
Q 364.649025 89.363245 366.302131 77.312381 
Q 367.955237 65.291346 370.996952 65.291346 
Q 371.825709 65.291346 372.535443 65.97741 
Q 373.245177 66.693303 373.809437 68.184746 
L 373.809437 95.209704 
L 370.569349 95.209704 
L 370.569349 119.281604 
L 378.834879 119.281604 
L 378.834879 52.345615 
z
" clip-path="url(#p1470249cf0)" style="fill: #ffa600"/>
   </g>
   <g id="patch_69">
    <path d="M 393.495389 55.298968 
L 385.930716 55.298968 
L 384.736294 42.984377 
L 379.87013 42.984377 
L 386.819495 110.584242 
L 392.590524 110.584242 
L 399.539889 42.984377 
L 394.677746 42.984377 
L 393.495389 55.298968 
z
M 387.137203 67.845364 
L 392.276837 67.845364 
L 389.711042 94.734638 
L 387.137203 67.845364 
z
" clip-path="url(#p1470249cf0)" style="fill: #008000"/>
   </g>
   <g id="patch_70">
    <path d="M 399.539889 39.296563 
Q 397.894547 39.288635 396.115398 39.284625 
Q 394.336249 39.280569 392.398512 39.280569 
Q 386.619994 39.280569 383.245062 39.310622 
Q 379.87013 39.340674 379.87013 39.392068 
Q 379.87013 39.443646 383.245062 39.473652 
Q 386.619994 39.503705 392.398512 39.503705 
Q 394.336249 39.503705 396.115398 39.499649 
Q 397.894547 39.495639 399.539889 39.487711 
L 399.539889 39.443231 
Q 397.87968 39.45374 396.269029 39.458626 
Q 394.658379 39.463512 392.87923 39.463512 
Q 389.687664 39.463512 387.858956 39.444476 
Q 386.035204 39.425485 386.035204 39.392068 
Q 386.035204 39.358789 387.858956 39.339752 
Q 389.687664 39.320762 392.87923 39.320762 
Q 394.658379 39.320762 396.269029 39.325648 
Q 397.87968 39.33058 399.539889 39.341089 
L 399.539889 39.296563 
z
" clip-path="url(#p1470249cf0)" style="fill: #0000ff"/>
   </g>
   <g id="patch_71">
    <path d="M 399.539889 39.818626 
Q 397.556161 39.661166 395.422552 39.582076 
Q 393.288943 39.503705 391.014269 39.503705 
Q 385.874211 39.503705 382.872171 39.972492 
Q 379.87013 40.441279 379.87013 41.242962 
Q 379.87013 42.053993 382.92507 42.519185 
Q 385.984418 42.984377 391.305216 42.984377 
Q 393.355068 42.984377 395.232996 42.921105 
Q 397.115333 42.858552 398.781664 42.734884 
L 398.781664 42.041051 
Q 397.062434 42.199949 395.360836 42.27832 
Q 393.659239 42.35741 391.948825 42.35741 
Q 388.783678 42.35741 387.068856 42.068373 
Q 385.354034 41.780054 385.354034 41.242962 
Q 385.354034 40.710903 387.00714 40.420428 
Q 388.660246 40.130672 391.701961 40.130672 
Q 392.530719 40.130672 393.240452 40.147209 
Q 393.950186 40.164465 394.514446 40.200415 
L 394.514446 40.851827 
L 391.274358 40.851827 
L 391.274358 41.432059 
L 399.539889 41.432059 
L 399.539889 39.818626 
z
" clip-path="url(#p1470249cf0)" style="fill: #ffa600"/>
   </g>
   <g id="patch_72">
    <path d="M 414.200398 41.336064 
L 406.635725 41.336064 
L 405.441303 39.280569 
L 400.575139 39.280569 
L 407.524504 50.564027 
L 413.295533 50.564027 
L 420.244898 39.280569 
L 415.382756 39.280569 
L 414.200398 41.336064 
z
M 407.842212 43.430251 
L 412.981847 43.430251 
L 410.416051 47.918484 
L 407.842212 43.430251 
z
" clip-path="url(#p1470249cf0)" style="fill: #008000"/>
   </g>
   <g id="patch_73">
    <path d="M 420.244898 52.827985 
Q 418.261171 51.696006 416.127562 51.127432 
Q 413.993953 50.564027 411.719279 50.564027 
Q 406.579221 50.564027 403.57718 53.93412 
Q 400.575139 57.304212 400.575139 63.067484 
Q 400.575139 68.897951 403.630079 72.2422 
Q 406.689428 75.586448 412.010225 75.586448 
Q 414.060077 75.586448 415.938005 75.131589 
Q 417.820342 74.681898 419.486673 73.792856 
L 419.486673 68.804912 
Q 417.767443 69.947228 416.065846 70.510634 
Q 414.364248 71.079207 412.653835 71.079207 
Q 409.488687 71.079207 407.773865 69.001328 
Q 406.059043 66.928618 406.059043 63.067484 
Q 406.059043 59.242532 407.712149 57.154316 
Q 409.365255 55.071268 412.406971 55.071268 
Q 413.235728 55.071268 413.945462 55.190151 
Q 414.655195 55.314204 415.219455 55.572646 
L 415.219455 60.255628 
L 411.979367 60.255628 
L 411.979367 64.426893 
L 420.244898 64.426893 
L 420.244898 52.827985 
z
" clip-path="url(#p1470249cf0)" style="fill: #ffa600"/>
   </g>
   <g id="patch_74">
    <path d="M 440.949907 39.499531 
Q 439.304566 39.390997 437.525417 39.336098 
Q 435.746267 39.280569 433.808531 39.280569 
Q 428.030013 39.280569 424.655081 39.691991 
Q 421.280148 40.103413 421.280148 40.806995 
Q 421.280148 41.513101 424.655081 41.923892 
Q 428.030013 42.335314 433.808531 42.335314 
Q 435.746267 42.335314 437.525417 42.279785 
Q 439.304566 42.224886 440.949907 42.116352 
L 440.949907 41.507422 
Q 439.289698 41.651293 437.679048 41.718181 
Q 436.068397 41.785069 434.289248 41.785069 
Q 431.097682 41.785069 429.268975 41.524459 
Q 427.445223 41.264481 427.445223 40.806995 
Q 427.445223 40.351402 429.268975 40.090793 
Q 431.097682 39.830814 434.289248 39.830814 
Q 436.068397 39.830814 437.679048 39.897702 
Q 439.289698 39.965221 440.949907 40.109092 
L 440.949907 39.499531 
z
" clip-path="url(#p1470249cf0)" style="fill: #0000ff"/>
   </g>
   <g id="patch_75">
    <path d="M 440.949907 42.783921 
Q 438.96618 42.559618 436.832571 42.446954 
Q 434.698962 42.335314 432.424288 42.335314 
Q 427.28423 42.335314 424.282189 43.003104 
Q 421.280148 43.670894 421.280148 44.812897 
Q 421.280148 45.968214 424.335089 46.630883 
Q 427.394437 47.293552 432.715235 47.293552 
Q 434.765086 47.293552 436.643015 47.203421 
Q 438.525352 47.114314 440.191683 46.938149 
L 440.191683 45.949778 
Q 438.472452 46.176131 436.770855 46.28777 
Q 435.069258 46.400434 433.358844 46.400434 
Q 430.193697 46.400434 428.478875 45.988699 
Q 426.764052 45.577987 426.764052 44.812897 
Q 426.764052 44.054976 428.417159 43.641192 
Q 430.070265 43.228432 433.11198 43.228432 
Q 433.940737 43.228432 434.650471 43.251989 
Q 435.360204 43.27657 435.924465 43.327781 
L 435.924465 44.255722 
L 432.684377 44.255722 
L 432.684377 45.082266 
L 440.949907 45.082266 
L 440.949907 42.783921 
z
" clip-path="url(#p1470249cf0)" style="fill: #ffa600"/>
   </g>
   <g id="patch_76">
    <path d="M 421.280148 74.171517 
L 440.949907 74.171517 
L 440.949907 68.929565 
L 433.873368 68.929565 
L 433.873368 47.293552 
L 428.37041 47.293552 
L 428.37041 68.929565 
L 421.280148 68.929565 
L 421.280148 74.171517 
z
" clip-path="url(#p1470249cf0)" style="fill: #ff0000"/>
   </g>
   <g id="patch_77">
    <path d="M 455.610417 39.315789 
L 448.045744 39.315789 
L 446.851322 39.280569 
L 441.985158 39.280569 
L 448.934522 39.473907 
L 454.705552 39.473907 
L 461.654917 39.280569 
L 456.792774 39.280569 
L 455.610417 39.315789 
z
M 449.252231 39.351672 
L 454.391865 39.351672 
L 451.82607 39.428577 
L 449.252231 39.351672 
z
" clip-path="url(#p1470249cf0)" style="fill: #008000"/>
   </g>
   <g id="patch_78">
    <path d="M 461.654917 39.793482 
Q 460.009575 39.635076 458.230426 39.554952 
Q 456.451277 39.473907 454.51354 39.473907 
Q 448.735022 39.473907 445.36009 40.074377 
Q 441.985158 40.674847 441.985158 41.701725 
Q 441.985158 42.732287 445.36009 43.331836 
Q 448.735022 43.932307 454.51354 43.932307 
Q 456.451277 43.932307 458.230426 43.851262 
Q 460.009575 43.771137 461.654917 43.612731 
L 461.654917 42.723998 
Q 459.994708 42.933979 458.384057 43.031601 
Q 456.773407 43.129224 454.994257 43.129224 
Q 451.802692 43.129224 449.973984 42.748864 
Q 448.150232 42.369426 448.150232 41.701725 
Q 448.150232 41.036787 449.973984 40.656428 
Q 451.802692 40.27699 454.994257 40.27699 
Q 456.773407 40.27699 458.384057 40.374612 
Q 459.994708 40.473156 461.654917 40.683136 
L 461.654917 39.793482 
z
" clip-path="url(#p1470249cf0)" style="fill: #0000ff"/>
   </g>
   <g id="patch_79">
    <path d="M 461.654917 45.116802 
Q 459.671189 44.524554 457.53758 44.227078 
Q 455.403971 43.932307 453.129297 43.932307 
Q 447.989239 43.932307 444.987198 45.695527 
Q 441.985158 47.458748 441.985158 50.474072 
Q 441.985158 53.524552 445.040098 55.274252 
Q 448.099446 57.023951 453.420244 57.023951 
Q 455.470095 57.023951 457.348024 56.78597 
Q 459.230361 56.550694 460.896692 56.085549 
L 460.896692 53.475874 
Q 459.177461 54.073531 457.475864 54.368302 
Q 455.774267 54.665778 454.063853 54.665778 
Q 450.898706 54.665778 449.183884 53.578639 
Q 447.469062 52.494204 447.469062 50.474072 
Q 447.469062 48.472871 449.122168 47.380323 
Q 450.775274 46.290479 453.816989 46.290479 
Q 454.645747 46.290479 455.35548 46.352679 
Q 456.065214 46.417583 456.629474 46.552799 
L 456.629474 49.002919 
L 453.389386 49.002919 
L 453.389386 51.18531 
L 461.654917 51.18531 
L 461.654917 45.116802 
z
" clip-path="url(#p1470249cf0)" style="fill: #ffa600"/>
   </g>
   <g id="patch_80">
    <path d="M 441.985158 127.426222 
L 461.654917 127.426222 
L 461.654917 113.695818 
L 454.578378 113.695818 
L 454.578378 57.023951 
L 449.07542 57.023951 
L 449.07542 113.695818 
L 441.985158 113.695818 
L 441.985158 127.426222 
z
" clip-path="url(#p1470249cf0)" style="fill: #ff0000"/>
   </g>
   <g id="patch_81">
    <path d="M 476.315426 39.396145 
L 468.750753 39.396145 
L 467.556331 39.280569 
L 462.690167 39.280569 
L 469.639532 39.915013 
L 475.410561 39.915013 
L 482.359926 39.280569 
L 477.497783 39.280569 
L 476.315426 39.396145 
z
M 469.95724 39.513897 
L 475.096874 39.513897 
L 472.531079 39.76626 
L 469.95724 39.513897 
z
" clip-path="url(#p1470249cf0)" style="fill: #008000"/>
   </g>
   <g id="patch_82">
    <path d="M 482.359926 53.696948 
Q 480.376198 46.805981 478.242589 43.344764 
Q 476.10898 39.915013 473.834306 39.915013 
Q 468.694248 39.915013 465.692208 60.430587 
Q 462.690167 80.94616 462.690167 116.030308 
Q 462.690167 151.523509 465.745107 171.881755 
Q 468.804456 192.24 474.125253 192.24 
Q 476.175105 192.24 478.053033 189.471027 
Q 479.93537 186.733519 481.601701 181.321436 
L 481.601701 150.957128 
Q 479.882471 157.911027 478.180873 161.340777 
Q 476.479276 164.801994 474.768862 164.801994 
Q 471.603715 164.801994 469.888893 152.152821 
Q 468.174071 139.535114 468.174071 116.030308 
Q 468.174071 92.745762 469.827177 80.033658 
Q 471.480283 67.35302 474.521999 67.35302 
Q 475.350756 67.35302 476.060489 68.076729 
Q 476.770223 68.831903 477.334483 70.405183 
L 477.334483 98.91302 
L 474.094395 98.91302 
L 474.094395 124.305762 
L 482.359926 124.305762 
L 482.359926 53.696948 
z
" clip-path="url(#p1470249cf0)" style="fill: #ffa600"/>
   </g>
   <g id="patch_83">
    <path d="M 497.020435 42.965536 
L 489.455762 42.965536 
L 488.26134 41.4828 
L 483.395176 41.4828 
L 490.344541 49.622147 
L 496.11557 49.622147 
L 503.064935 41.4828 
L 498.202793 41.4828 
L 497.020435 42.965536 
z
M 490.662249 44.476182 
L 495.801884 44.476182 
L 493.236088 47.713779 
L 490.662249 44.476182 
z
" clip-path="url(#p1470249cf0)" style="fill: #008000"/>
   </g>
   <g id="patch_84">
    <path d="M 503.064935 39.304812 
Q 501.419594 39.292795 499.640444 39.286717 
Q 497.861295 39.280569 495.923559 39.280569 
Q 490.145041 39.280569 486.770108 39.326121 
Q 483.395176 39.371672 483.395176 39.449571 
Q 483.395176 39.52775 486.770108 39.573231 
Q 490.145041 39.618783 495.923559 39.618783 
Q 497.861295 39.618783 499.640444 39.612635 
Q 501.419594 39.606557 503.064935 39.59454 
L 503.064935 39.527121 
Q 501.404726 39.54305 499.794076 39.550456 
Q 498.183425 39.557861 496.404276 39.557861 
Q 493.21271 39.557861 491.384002 39.529007 
Q 489.560251 39.500223 489.560251 39.449571 
Q 489.560251 39.399129 491.384002 39.370275 
Q 493.21271 39.341491 496.404276 39.341491 
Q 498.183425 39.341491 499.794076 39.348897 
Q 501.404726 39.356372 503.064935 39.372301 
L 503.064935 39.304812 
z
" clip-path="url(#p1470249cf0)" style="fill: #0000ff"/>
   </g>
   <g id="patch_85">
    <path d="M 503.064935 39.787434 
Q 501.081208 39.703108 498.947599 39.660753 
Q 496.81399 39.618783 494.539316 39.618783 
Q 489.399258 39.618783 486.397217 39.869834 
Q 483.395176 40.120886 483.395176 40.550214 
Q 483.395176 40.984548 486.450116 41.233674 
Q 489.509465 41.4828 494.830262 41.4828 
Q 496.880114 41.4828 498.758043 41.448916 
Q 500.640379 41.415417 502.30671 41.349189 
L 502.30671 40.977617 
Q 500.58748 41.062713 498.885883 41.104683 
Q 497.184286 41.147038 495.473872 41.147038 
Q 492.308725 41.147038 490.593902 40.992249 
Q 488.87908 40.837845 488.87908 40.550214 
Q 488.87908 40.265279 490.532186 40.109719 
Q 492.185293 39.954545 495.227008 39.954545 
Q 496.055765 39.954545 496.765499 39.963401 
Q 497.475232 39.972642 498.039492 39.991894 
L 498.039492 40.340748 
L 494.799404 40.340748 
L 494.799404 40.651482 
L 503.064935 40.651482 
L 503.064935 39.787434 
z
" clip-path="url(#p1470249cf0)" style="fill: #ffa600"/>
   </g>
   <g id="patch_86">
    <path d="M 483.395176 149.18668 
L 503.064935 149.18668 
L 503.064935 129.768822 
L 495.988396 129.768822 
L 495.988396 49.622147 
L 490.485438 49.622147 
L 490.485438 129.768822 
L 483.395176 129.768822 
L 483.395176 149.18668 
z
" clip-path="url(#p1470249cf0)" style="fill: #ff0000"/>
   </g>
   <g id="patch_87">
    <path d="M 517.725445 64.928761 
L 510.160772 64.928761 
L 508.96635 45.597134 
L 504.100186 45.597134 
L 511.04955 151.716397 
L 516.82058 151.716397 
L 523.769944 45.597134 
L 518.907802 45.597134 
L 517.725445 64.928761 
z
M 511.367259 84.624278 
L 516.506893 84.624278 
L 513.941097 126.835455 
L 511.367259 84.624278 
z
" clip-path="url(#p1470249cf0)" style="fill: #008000"/>
   </g>
   <g id="patch_88">
    <path d="M 523.769944 40.473723 
Q 521.786217 40.218891 519.652608 40.090893 
Q 517.518999 39.964058 515.244325 39.964058 
Q 510.104267 39.964058 507.102226 40.722737 
Q 504.100186 41.481416 504.100186 42.778851 
Q 504.100186 44.091412 507.155126 44.844273 
Q 510.214474 45.597134 515.535272 45.597134 
Q 517.585123 45.597134 519.463052 45.494735 
Q 521.345389 45.393501 523.01172 45.193358 
L 523.01172 44.070467 
Q 521.292489 44.327626 519.590892 44.454461 
Q 517.889295 44.582459 516.178881 44.582459 
Q 513.013734 44.582459 511.298912 44.114684 
Q 509.58409 43.648073 509.58409 42.778851 
Q 509.58409 41.917773 511.237196 41.447671 
Q 512.890302 40.978733 515.932017 40.978733 
Q 516.760774 40.978733 517.470508 41.005497 
Q 518.180241 41.033423 518.744502 41.091604 
L 518.744502 42.145842 
L 515.504414 42.145842 
L 515.504414 43.084882 
L 523.769944 43.084882 
L 523.769944 40.473723 
z
" clip-path="url(#p1470249cf0)" style="fill: #ffa600"/>
   </g>
   <g id="patch_89">
    <path d="M 504.100186 39.964058 
L 523.769944 39.964058 
L 523.769944 39.830759 
L 516.693406 39.830759 
L 516.693406 39.280569 
L 511.190447 39.280569 
L 511.190447 39.830759 
L 504.100186 39.830759 
L 504.100186 39.964058 
z
" clip-path="url(#p1470249cf0)" style="fill: #ff0000"/>
   </g>
   <g id="patch_90">
    <path d="M 538.430454 39.379117 
L 530.865781 39.379117 
L 529.671359 39.280569 
L 524.805195 39.280569 
L 531.75456 39.82154 
L 537.525589 39.82154 
L 544.474954 39.280569 
L 539.612811 39.280569 
L 538.430454 39.379117 
z
M 532.072268 39.47952 
L 537.211902 39.47952 
L 534.646107 39.694703 
L 532.072268 39.47952 
z
" clip-path="url(#p1470249cf0)" style="fill: #008000"/>
   </g>
   <g id="patch_91">
    <path d="M 544.474954 51.391867 
Q 542.491226 45.606704 540.357617 42.700914 
Q 538.224008 39.82154 535.949334 39.82154 
Q 530.809276 39.82154 527.807236 57.04495 
Q 524.805195 74.268359 524.805195 103.722502 
Q 524.805195 133.520057 527.860135 150.611385 
Q 530.919483 167.702713 536.240281 167.702713 
Q 538.290133 167.702713 540.168061 165.378081 
Q 542.050398 163.079865 543.716729 158.536266 
L 543.716729 133.044564 
Q 541.997499 138.88256 540.295901 141.761934 
Q 538.594304 144.667724 536.88389 144.667724 
Q 533.718743 144.667724 532.003921 134.048382 
Q 530.289099 123.455457 530.289099 103.722502 
Q 530.289099 84.174461 531.942205 73.502287 
Q 533.595311 62.856529 536.637026 62.856529 
Q 537.465784 62.856529 538.175517 63.464104 
Q 538.885251 64.098094 539.449511 65.418908 
L 539.449511 89.35205 
L 536.209423 89.35205 
L 536.209423 110.669982 
L 544.474954 110.669982 
L 544.474954 51.391867 
z
" clip-path="url(#p1470249cf0)" style="fill: #ffa600"/>
   </g>
   <g id="patch_92">
    <path d="M 565.179963 39.284047 
Q 563.196236 39.282308 561.062627 39.281435 
Q 558.929018 39.280569 556.654344 39.280569 
Q 551.514286 39.280569 548.512245 39.285747 
Q 545.510204 39.290924 545.510204 39.299778 
Q 545.510204 39.308735 548.565144 39.313873 
Q 551.624493 39.319011 556.94529 39.319011 
Q 558.995142 39.319011 560.87307 39.318312 
Q 562.755407 39.317621 564.421738 39.316255 
L 564.421738 39.308593 
Q 562.702508 39.310347 561.000911 39.311213 
Q 559.299313 39.312087 557.5889 39.312087 
Q 554.423752 39.312087 552.70893 39.308894 
Q 550.994108 39.30571 550.994108 39.299778 
Q 550.994108 39.293902 552.647214 39.290694 
Q 554.30032 39.287494 557.342036 39.287494 
Q 558.170793 39.287494 558.880526 39.287676 
Q 559.59026 39.287867 560.15452 39.288264 
L 560.15452 39.295458 
L 556.914432 39.295458 
L 556.914432 39.301867 
L 565.179963 39.301867 
L 565.179963 39.284047 
z
" clip-path="url(#p1470249cf0)" style="fill: #ffa600"/>
   </g>
   <g id="patch_93">
    <path d="M 545.510204 140.325145 
L 565.179963 140.325145 
L 565.179963 120.626135 
L 558.103424 120.626135 
L 558.103424 39.319011 
L 552.600466 39.319011 
L 552.600466 120.626135 
L 545.510204 120.626135 
L 545.510204 140.325145 
z
" clip-path="url(#p1470249cf0)" style="fill: #ff0000"/>
   </g>
   <g id="patch_94">
    <path d="M 585.884972 40.74936 
Q 584.239631 40.321354 582.460482 40.104862 
Q 580.681332 39.885882 578.743596 39.885882 
Q 572.965078 39.885882 569.590146 41.508325 
Q 566.215213 43.130768 566.215213 45.905344 
Q 566.215213 48.689875 569.590146 50.309829 
Q 572.965078 51.932272 578.743596 51.932272 
Q 580.681332 51.932272 582.460482 51.713292 
Q 584.239631 51.4968 585.884972 51.068794 
L 585.884972 48.667479 
Q 584.224763 49.234836 582.614113 49.498608 
Q 581.003462 49.762379 579.224313 49.762379 
Q 576.032747 49.762379 574.20404 48.734666 
Q 572.380288 47.709441 572.380288 45.905344 
Q 572.380288 44.108713 574.20404 43.081 
Q 576.032747 42.055775 579.224313 42.055775 
Q 581.003462 42.055775 582.614113 42.319547 
Q 584.224763 42.585806 585.884972 43.153164 
L 585.884972 40.74936 
z
" clip-path="url(#p1470249cf0)" style="fill: #0000ff"/>
   </g>
   <g id="patch_95">
    <path d="M 585.884972 39.335336 
Q 583.901245 39.307953 581.767636 39.294198 
Q 579.634027 39.280569 577.359353 39.280569 
Q 572.219295 39.280569 569.217254 39.362094 
Q 566.215213 39.44362 566.215213 39.583038 
Q 566.215213 39.724082 569.270153 39.804982 
Q 572.329502 39.885882 577.650299 39.885882 
Q 579.700151 39.885882 581.57808 39.874879 
Q 583.460417 39.864 585.126747 39.842494 
L 585.126747 39.721831 
Q 583.407517 39.749465 581.70592 39.763094 
Q 580.004323 39.776848 578.293909 39.776848 
Q 575.128762 39.776848 573.41394 39.726583 
Q 571.699117 39.676442 571.699117 39.583038 
Q 571.699117 39.490509 573.352224 39.439994 
Q 575.00533 39.389603 578.047045 39.389603 
Q 578.875802 39.389603 579.585536 39.392479 
Q 580.295269 39.39548 580.85953 39.401732 
L 580.85953 39.515017 
L 577.619442 39.515017 
L 577.619442 39.615923 
L 585.884972 39.615923 
L 585.884972 39.335336 
z
" clip-path="url(#p1470249cf0)" style="fill: #ffa600"/>
   </g>
   <g id="patch_96">
    <path d="M 600.545482 39.499121 
L 592.980809 39.499121 
L 591.786387 39.280569 
L 586.920223 39.280569 
L 593.869587 40.480293 
L 599.640617 40.480293 
L 606.589981 39.280569 
L 601.727839 39.280569 
L 600.545482 39.499121 
z
M 594.187296 39.721788 
L 599.32693 39.721788 
L 596.761134 40.199003 
L 594.187296 39.721788 
z
" clip-path="url(#p1470249cf0)" style="fill: #008000"/>
   </g>
   <g id="patch_97">
    <path d="M 606.589981 42.452635 
Q 604.94464 42.139111 603.165491 41.980527 
Q 601.386342 41.820119 599.448605 41.820119 
Q 593.670087 41.820119 590.295155 43.008592 
Q 586.920223 44.197065 586.920223 46.2295 
Q 586.920223 48.269226 590.295155 49.455876 
Q 593.670087 50.644349 599.448605 50.644349 
Q 601.386342 50.644349 603.165491 50.483942 
Q 604.94464 50.325357 606.589981 50.011834 
L 606.589981 48.252821 
Q 604.929773 48.668422 603.319122 48.86164 
Q 601.708472 49.054858 599.929322 49.054858 
Q 596.737757 49.054858 594.909049 48.302037 
Q 593.085297 47.551038 593.085297 46.2295 
Q 593.085297 44.91343 594.909049 44.160609 
Q 596.737757 43.409611 599.929322 43.409611 
Q 601.708472 43.409611 603.319122 43.602829 
Q 604.929773 43.79787 606.589981 44.213471 
L 606.589981 42.452635 
z
" clip-path="url(#p1470249cf0)" style="fill: #0000ff"/>
   </g>
   <g id="patch_98">
    <path d="M 606.589981 40.601516 
Q 604.606254 40.540905 602.472645 40.51046 
Q 600.339036 40.480293 598.064362 40.480293 
Q 592.924304 40.480293 589.922263 40.660744 
Q 586.920223 40.841196 586.920223 41.149791 
Q 586.920223 41.461983 589.975163 41.641051 
Q 593.034511 41.820119 598.355309 41.820119 
Q 600.40516 41.820119 602.283089 41.795764 
Q 604.165426 41.771685 605.831757 41.724081 
L 605.831757 41.457002 
Q 604.112526 41.518167 602.410929 41.548335 
Q 600.709332 41.578779 598.998918 41.578779 
Q 595.833771 41.578779 594.118949 41.467519 
Q 592.404127 41.356535 592.404127 41.149791 
Q 592.404127 40.944984 594.057233 40.83317 
Q 595.710339 40.721633 598.752054 40.721633 
Q 599.580811 40.721633 600.290545 40.727999 
Q 601.000279 40.734641 601.564539 40.748479 
L 601.564539 40.99923 
L 598.324451 40.99923 
L 598.324451 41.22258 
L 606.589981 41.22258 
L 606.589981 40.601516 
z
" clip-path="url(#p1470249cf0)" style="fill: #ffa600"/>
   </g>
   <g id="patch_99">
    <path d="M 627.294991 39.433238 
Q 625.649649 39.357564 623.8705 39.319286 
Q 622.091351 39.280569 620.153614 39.280569 
Q 614.375096 39.280569 611.000164 39.567429 
Q 607.625232 39.854288 607.625232 40.344853 
Q 607.625232 40.837178 611.000164 41.123597 
Q 614.375096 41.410457 620.153614 41.410457 
Q 622.091351 41.410457 623.8705 41.37174 
Q 625.649649 41.333462 627.294991 41.257788 
L 627.294991 40.833218 
Q 625.634782 40.933531 624.024131 40.980168 
Q 622.413481 41.026804 620.634332 41.026804 
Q 617.442766 41.026804 615.614058 40.845097 
Q 613.790306 40.66383 613.790306 40.344853 
Q 613.790306 40.027196 615.614058 39.845489 
Q 617.442766 39.664222 620.634332 39.664222 
Q 622.413481 39.664222 624.024131 39.710858 
Q 625.634782 39.757935 627.294991 39.858248 
L 627.294991 39.433238 
z
" clip-path="url(#p1470249cf0)" style="fill: #0000ff"/>
   </g>
   <g id="patch_100">
    <path d="M 627.294991 42.024922 
Q 625.311263 41.717689 623.177654 41.563372 
Q 621.044045 41.410457 618.769371 41.410457 
Q 613.629313 41.410457 610.627273 42.32514 
Q 607.625232 43.239824 607.625232 44.804045 
Q 607.625232 46.386503 610.680172 47.294173 
Q 613.73952 48.201842 619.060318 48.201842 
Q 621.11017 48.201842 622.988098 48.078387 
Q 624.870435 47.956336 626.536766 47.715039 
L 626.536766 46.361251 
Q 624.817536 46.67129 623.115938 46.824205 
Q 621.414341 46.978523 619.703927 46.978523 
Q 616.53878 46.978523 614.823958 46.414561 
Q 613.109136 45.852003 613.109136 44.804045 
Q 613.109136 43.765907 614.762242 43.19914 
Q 616.415348 42.633776 619.457064 42.633776 
Q 620.285821 42.633776 620.995554 42.666042 
Q 621.705288 42.699712 622.269548 42.769856 
L 622.269548 44.040873 
L 619.02946 44.040873 
L 619.02946 45.173005 
L 627.294991 45.173005 
L 627.294991 42.024922 
z
" clip-path="url(#p1470249cf0)" style="fill: #ffa600"/>
   </g>
   <g id="patch_101">
    <path d="M 648 39.579326 
Q 646.354659 39.431239 644.575509 39.356334 
Q 642.79636 39.280569 640.858624 39.280569 
Q 635.080106 39.280569 631.705173 39.841922 
Q 628.330241 40.403274 628.330241 41.363256 
Q 628.330241 42.326681 631.705173 42.887173 
Q 635.080106 43.448525 640.858624 43.448525 
Q 642.79636 43.448525 644.575509 43.37276 
Q 646.354659 43.297855 648 43.149768 
L 648 42.318932 
Q 646.339791 42.515234 644.729141 42.606496 
Q 643.11849 42.697759 641.339341 42.697759 
Q 638.147775 42.697759 636.319067 42.342179 
Q 634.495316 41.987459 634.495316 41.363256 
Q 634.495316 40.741635 636.319067 40.386055 
Q 638.147775 40.031335 641.339341 40.031335 
Q 643.11849 40.031335 644.729141 40.122598 
Q 646.339791 40.214722 648 40.411023 
L 648 39.579326 
z
" clip-path="url(#p1470249cf0)" style="fill: #0000ff"/>
   </g>
   <g id="patch_102">
    <path d="M 648 43.912618 
Q 646.016273 43.680571 643.882664 43.564018 
Q 641.749055 43.448525 639.474381 43.448525 
Q 634.334323 43.448525 631.332282 44.139366 
Q 628.330241 44.830208 628.330241 46.011631 
Q 628.330241 47.206829 631.385181 47.892372 
Q 634.44453 48.577916 639.765327 48.577916 
Q 641.815179 48.577916 643.693107 48.484674 
Q 645.575444 48.392491 647.241775 48.210244 
L 647.241775 47.187757 
Q 645.522545 47.421922 643.820948 47.537416 
Q 642.11935 47.653969 640.408937 47.653969 
Q 637.243789 47.653969 635.528967 47.22802 
Q 633.814145 46.803132 633.814145 46.011631 
Q 633.814145 45.227547 635.467251 44.79948 
Q 637.120358 44.372472 640.162073 44.372472 
Q 640.99083 44.372472 641.700564 44.396843 
Q 642.410297 44.422272 642.974557 44.475251 
L 642.974557 45.435224 
L 639.734469 45.435224 
L 639.734469 46.290299 
L 648 46.290299 
L 648 43.912618 
z
" clip-path="url(#p1470249cf0)" style="fill: #ffa600"/>
   </g>
   <g id="matplotlib.axis_1">
    <g id="xtick_1">
     <g id="line2d_2">
      <defs>
       <path id="mc095e7898b" d="M 0 0 
L 0 3.5 
" style="stroke: #000000; stroke-width: 0.8"/>
      </defs>
      <g>
       <use xlink:href="#mc095e7898b" x="99.834879" y="192.24" style="stroke: #000000; stroke-width: 0.8"/>
      </g>
     </g>
     <g id="text_1">
      <!-- 0 -->
      <g transform="translate(96.653629 206.838437) scale(0.1 -0.1)">
       <defs>
        <path id="DejaVuSans-30" d="M 2034 4250 
Q 1547 4250 1301 3770 
Q 1056 3291 1056 2328 
Q 1056 1369 1301 889 
Q 1547 409 2034 409 
Q 2525 409 2770 889 
Q 3016 1369 3016 2328 
Q 3016 3291 2770 3770 
Q 2525 4250 2034 4250 
z
M 2034 4750 
Q 2819 4750 3233 4129 
Q 3647 3509 3647 2328 
Q 3647 1150 3233 529 
Q 2819 -91 2034 -91 
Q 1250 -91 836 529 
Q 422 1150 422 2328 
Q 422 3509 836 4129 
Q 1250 4750 2034 4750 
z
" transform="scale(0.015625)"/>
       </defs>
       <use xlink:href="#DejaVuSans-30"/>
      </g>
     </g>
    </g>
    <g id="xtick_2">
     <g id="line2d_3">
      <g>
       <use xlink:href="#mc095e7898b" x="203.359926" y="192.24" style="stroke: #000000; stroke-width: 0.8"/>
      </g>
     </g>
     <g id="text_2">
      <!-- 5 -->
      <g transform="translate(200.178676 206.838437) scale(0.1 -0.1)">
       <defs>
        <path id="DejaVuSans-35" d="M 691 4666 
L 3169 4666 
L 3169 4134 
L 1269 4134 
L 1269 2991 
Q 1406 3038 1543 3061 
Q 1681 3084 1819 3084 
Q 2600 3084 3056 2656 
Q 3513 2228 3513 1497 
Q 3513 744 3044 326 
Q 2575 -91 1722 -91 
Q 1428 -91 1123 -41 
Q 819 9 494 109 
L 494 744 
Q 775 591 1075 516 
Q 1375 441 1709 441 
Q 2250 441 2565 725 
Q 2881 1009 2881 1497 
Q 2881 1984 2565 2268 
Q 2250 2553 1709 2553 
Q 1456 2553 1204 2497 
Q 953 2441 691 2322 
L 691 4666 
z
" transform="scale(0.015625)"/>
       </defs>
       <use xlink:href="#DejaVuSans-35"/>
      </g>
     </g>
    </g>
    <g id="xtick_3">
     <g id="line2d_4">
      <g>
       <use xlink:href="#mc095e7898b" x="306.884972" y="192.24" style="stroke: #000000; stroke-width: 0.8"/>
      </g>
     </g>
     <g id="text_3">
      <!-- 10 -->
      <g transform="translate(300.522472 206.838437) scale(0.1 -0.1)">
       <defs>
        <path id="DejaVuSans-31" d="M 794 531 
L 1825 531 
L 1825 4091 
L 703 3866 
L 703 4441 
L 1819 4666 
L 2450 4666 
L 2450 531 
L 3481 531 
L 3481 0 
L 794 0 
L 794 531 
z
" transform="scale(0.015625)"/>
       </defs>
       <use xlink:href="#DejaVuSans-31"/>
       <use xlink:href="#DejaVuSans-30" x="63.623047"/>
      </g>
     </g>
    </g>
    <g id="xtick_4">
     <g id="line2d_5">
      <g>
       <use xlink:href="#mc095e7898b" x="410.410019" y="192.24" style="stroke: #000000; stroke-width: 0.8"/>
      </g>
     </g>
     <g id="text_4">
      <!-- 15 -->
      <g transform="translate(404.047519 206.838437) scale(0.1 -0.1)">
       <use xlink:href="#DejaVuSans-31"/>
       <use xlink:href="#DejaVuSans-35" x="63.623047"/>
      </g>
     </g>
    </g>
    <g id="xtick_5">
     <g id="line2d_6">
      <g>
       <use xlink:href="#mc095e7898b" x="513.935065" y="192.24" style="stroke: #000000; stroke-width: 0.8"/>
      </g>
     </g>
     <g id="text_5">
      <!-- 20 -->
      <g transform="translate(507.572565 206.838437) scale(0.1 -0.1)">
       <defs>
        <path id="DejaVuSans-32" d="M 1228 531 
L 3431 531 
L 3431 0 
L 469 0 
L 469 531 
Q 828 903 1448 1529 
Q 2069 2156 2228 2338 
Q 2531 2678 2651 2914 
Q 2772 3150 2772 3378 
Q 2772 3750 2511 3984 
Q 2250 4219 1831 4219 
Q 1534 4219 1204 4116 
Q 875 4013 500 3803 
L 500 4441 
Q 881 4594 1212 4672 
Q 1544 4750 1819 4750 
Q 2544 4750 2975 4387 
Q 3406 4025 3406 3419 
Q 3406 3131 3298 2873 
Q 3191 2616 2906 2266 
Q 2828 2175 2409 1742 
Q 1991 1309 1228 531 
z
" transform="scale(0.015625)"/>
       </defs>
       <use xlink:href="#DejaVuSans-32"/>
       <use xlink:href="#DejaVuSans-30" x="63.623047"/>
      </g>
     </g>
    </g>
    <g id="xtick_6">
     <g id="line2d_7">
      <g>
       <use xlink:href="#mc095e7898b" x="617.460111" y="192.24" style="stroke: #000000; stroke-width: 0.8"/>
      </g>
     </g>
     <g id="text_6">
      <!-- 25 -->
      <g transform="translate(611.097611 206.838437) scale(0.1 -0.1)">
       <use xlink:href="#DejaVuSans-32"/>
       <use xlink:href="#DejaVuSans-35" x="63.623047"/>
      </g>
     </g>
    </g>
   </g>
   <g id="matplotlib.axis_2">
    <g id="ytick_1">
     <g id="line2d_8">
      <defs>
       <path id="m99c1a494a4" d="M 0 0 
L -3.5 0 
" style="stroke: #000000; stroke-width: 0.8"/>
      </defs>
      <g>
       <use xlink:href="#m99c1a494a4" x="90" y="189.563758" style="stroke: #000000; stroke-width: 0.8"/>
      </g>
     </g>
     <g id="text_7">
      <!-- 0.012 -->
      <g transform="translate(45.992188 193.362977) scale(0.1 -0.1)">
       <defs>
        <path id="DejaVuSans-2212" d="M 678 2272 
L 4684 2272 
L 4684 1741 
L 678 1741 
L 678 2272 
z
" transform="scale(0.015625)"/>
        <path id="DejaVuSans-2e" d="M 684 794 
L 1344 794 
L 1344 0 
L 684 0 
L 684 794 
z
" transform="scale(0.015625)"/>
       </defs>
       <use xlink:href="#DejaVuSans-2212"/>
       <use xlink:href="#DejaVuSans-30" x="83.789062"/>
       <use xlink:href="#DejaVuSans-2e" x="147.412109"/>
       <use xlink:href="#DejaVuSans-30" x="179.199219"/>
       <use xlink:href="#DejaVuSans-31" x="242.822266"/>
       <use xlink:href="#DejaVuSans-32" x="306.445312"/>
      </g>
     </g>
    </g>
    <g id="ytick_2">
     <g id="line2d_9">
      <g>
       <use xlink:href="#m99c1a494a4" x="90" y="164.51656" style="stroke: #000000; stroke-width: 0.8"/>
      </g>
     </g>
     <g id="text_8">
      <!-- 0.010 -->
      <g transform="translate(45.992188 168.315779) scale(0.1 -0.1)">
       <use xlink:href="#DejaVuSans-2212"/>
       <use xlink:href="#DejaVuSans-30" x="83.789062"/>
       <use xlink:href="#DejaVuSans-2e" x="147.412109"/>
       <use xlink:href="#DejaVuSans-30" x="179.199219"/>
       <use xlink:href="#DejaVuSans-31" x="242.822266"/>
       <use xlink:href="#DejaVuSans-30" x="306.445312"/>
      </g>
     </g>
    </g>
    <g id="ytick_3">
     <g id="line2d_10">
      <g>
       <use xlink:href="#m99c1a494a4" x="90" y="139.469362" style="stroke: #000000; stroke-width: 0.8"/>
      </g>
     </g>
     <g id="text_9">
      <!-- 0.008 -->
      <g transform="translate(45.992188 143.268581) scale(0.1 -0.1)">
       <defs>
        <path id="DejaVuSans-38" d="M 2034 2216 
Q 1584 2216 1326 1975 
Q 1069 1734 1069 1313 
Q 1069 891 1326 650 
Q 1584 409 2034 409 
Q 2484 409 2743 651 
Q 3003 894 3003 1313 
Q 3003 1734 2745 1975 
Q 2488 2216 2034 2216 
z
M 1403 2484 
Q 997 2584 770 2862 
Q 544 3141 544 3541 
Q 544 4100 942 4425 
Q 1341 4750 2034 4750 
Q 2731 4750 3128 4425 
Q 3525 4100 3525 3541 
Q 3525 3141 3298 2862 
Q 3072 2584 2669 2484 
Q 3125 2378 3379 2068 
Q 3634 1759 3634 1313 
Q 3634 634 3220 271 
Q 2806 -91 2034 -91 
Q 1263 -91 848 271 
Q 434 634 434 1313 
Q 434 1759 690 2068 
Q 947 2378 1403 2484 
z
M 1172 3481 
Q 1172 3119 1398 2916 
Q 1625 2713 2034 2713 
Q 2441 2713 2670 2916 
Q 2900 3119 2900 3481 
Q 2900 3844 2670 4047 
Q 2441 4250 2034 4250 
Q 1625 4250 1398 4047 
Q 1172 3844 1172 3481 
z
" transform="scale(0.015625)"/>
       </defs>
       <use xlink:href="#DejaVuSans-2212"/>
       <use xlink:href="#DejaVuSans-30" x="83.789062"/>
       <use xlink:href="#DejaVuSans-2e" x="147.412109"/>
       <use xlink:href="#DejaVuSans-30" x="179.199219"/>
       <use xlink:href="#DejaVuSans-30" x="242.822266"/>
       <use xlink:href="#DejaVuSans-38" x="306.445312"/>
      </g>
     </g>
    </g>
    <g id="ytick_4">
     <g id="line2d_11">
      <g>
       <use xlink:href="#m99c1a494a4" x="90" y="114.422164" style="stroke: #000000; stroke-width: 0.8"/>
      </g>
     </g>
     <g id="text_10">
      <!-- 0.006 -->
      <g transform="translate(45.992188 118.221382) scale(0.1 -0.1)">
       <defs>
        <path id="DejaVuSans-36" d="M 2113 2584 
Q 1688 2584 1439 2293 
Q 1191 2003 1191 1497 
Q 1191 994 1439 701 
Q 1688 409 2113 409 
Q 2538 409 2786 701 
Q 3034 994 3034 1497 
Q 3034 2003 2786 2293 
Q 2538 2584 2113 2584 
z
M 3366 4563 
L 3366 3988 
Q 3128 4100 2886 4159 
Q 2644 4219 2406 4219 
Q 1781 4219 1451 3797 
Q 1122 3375 1075 2522 
Q 1259 2794 1537 2939 
Q 1816 3084 2150 3084 
Q 2853 3084 3261 2657 
Q 3669 2231 3669 1497 
Q 3669 778 3244 343 
Q 2819 -91 2113 -91 
Q 1303 -91 875 529 
Q 447 1150 447 2328 
Q 447 3434 972 4092 
Q 1497 4750 2381 4750 
Q 2619 4750 2861 4703 
Q 3103 4656 3366 4563 
z
" transform="scale(0.015625)"/>
       </defs>
       <use xlink:href="#DejaVuSans-2212"/>
       <use xlink:href="#DejaVuSans-30" x="83.789062"/>
       <use xlink:href="#DejaVuSans-2e" x="147.412109"/>
       <use xlink:href="#DejaVuSans-30" x="179.199219"/>
       <use xlink:href="#DejaVuSans-30" x="242.822266"/>
       <use xlink:href="#DejaVuSans-36" x="306.445312"/>
      </g>
     </g>
    </g>
    <g id="ytick_5">
     <g id="line2d_12">
      <g>
       <use xlink:href="#m99c1a494a4" x="90" y="89.374966" style="stroke: #000000; stroke-width: 0.8"/>
      </g>
     </g>
     <g id="text_11">
      <!-- 0.004 -->
      <g transform="translate(45.992188 93.174184) scale(0.1 -0.1)">
       <defs>
        <path id="DejaVuSans-34" d="M 2419 4116 
L 825 1625 
L 2419 1625 
L 2419 4116 
z
M 2253 4666 
L 3047 4666 
L 3047 1625 
L 3713 1625 
L 3713 1100 
L 3047 1100 
L 3047 0 
L 2419 0 
L 2419 1100 
L 313 1100 
L 313 1709 
L 2253 4666 
z
" transform="scale(0.015625)"/>
       </defs>
       <use xlink:href="#DejaVuSans-2212"/>
       <use xlink:href="#DejaVuSans-30" x="83.789062"/>
       <use xlink:href="#DejaVuSans-2e" x="147.412109"/>
       <use xlink:href="#DejaVuSans-30" x="179.199219"/>
       <use xlink:href="#DejaVuSans-30" x="242.822266"/>
       <use xlink:href="#DejaVuSans-34" x="306.445312"/>
      </g>
     </g>
    </g>
    <g id="ytick_6">
     <g id="line2d_13">
      <g>
       <use xlink:href="#m99c1a494a4" x="90" y="64.327767" style="stroke: #000000; stroke-width: 0.8"/>
      </g>
     </g>
     <g id="text_12">
      <!-- 0.002 -->
      <g transform="translate(45.992188 68.126986) scale(0.1 -0.1)">
       <use xlink:href="#DejaVuSans-2212"/>
       <use xlink:href="#DejaVuSans-30" x="83.789062"/>
       <use xlink:href="#DejaVuSans-2e" x="147.412109"/>
       <use xlink:href="#DejaVuSans-30" x="179.199219"/>
       <use xlink:href="#DejaVuSans-30" x="242.822266"/>
       <use xlink:href="#DejaVuSans-32" x="306.445312"/>
      </g>
     </g>
    </g>
    <g id="ytick_7">
     <g id="line2d_14">
      <g>
       <use xlink:href="#m99c1a494a4" x="90" y="39.280569" style="stroke: #000000; stroke-width: 0.8"/>
      </g>
     </g>
     <g id="text_13">
      <!-- 0.000 -->
      <g transform="translate(54.371875 43.079788) scale(0.1 -0.1)">
       <use xlink:href="#DejaVuSans-30"/>
       <use xlink:href="#DejaVuSans-2e" x="63.623047"/>
       <use xlink:href="#DejaVuSans-30" x="95.410156"/>
       <use xlink:href="#DejaVuSans-30" x="159.033203"/>
       <use xlink:href="#DejaVuSans-30" x="222.65625"/>
      </g>
     </g>
    </g>
   </g>
  </g>
 </g>
 <defs>
  <clipPath id="p1470249cf0">
   <rect x="90" y="25.92" width="558" height="166.32"/>
  </clipPath>
 </defs>
</svg>
