<?xml version="1.0" encoding="utf-8" standalone="no"?>
<!DOCTYPE svg PUBLIC "-//W3C//DTD SVG 1.1//EN"
  "http://www.w3.org/Graphics/SVG/1.1/DTD/svg11.dtd">
<svg xmlns:xlink="http://www.w3.org/1999/xlink" width="720pt" height="216pt" viewBox="0 0 720 216" xmlns="http://www.w3.org/2000/svg" version="1.1">
 <metadata>
  <rdf:RDF xmlns:dc="http://purl.org/dc/elements/1.1/" xmlns:cc="http://creativecommons.org/ns#" xmlns:rdf="http://www.w3.org/1999/02/22-rdf-syntax-ns#">
   <cc:Work>
    <dc:type rdf:resource="http://purl.org/dc/dcmitype/StillImage"/>
    <dc:date>2024-11-23T04:45:25.372356</dc:date>
    <dc:format>image/svg+xml</dc:format>
    <dc:creator>
     <cc:Agent>
      <dc:title>Matplotlib v3.7.2, https://matplotlib.org/</dc:title>
     </cc:Agent>
    </dc:creator>
   </cc:Work>
  </rdf:RDF>
 </metadata>
 <defs>
  <style type="text/css">*{stroke-linejoin: round; stroke-linecap: butt}</style>
 </defs>
 <g id="figure_1">
  <g id="patch_1">
   <path d="M 0 216 
L 720 216 
L 720 0 
L 0 0 
z
" style="fill: #ffffff"/>
  </g>
  <g id="axes_1">
   <g id="patch_2">
    <path d="M 90 192.24 
L 648 192.24 
L 648 25.92 
L 90 25.92 
z
" style="fill: #ffffff"/>
   </g>
   <g id="line2d_1">
    <path clip-path="url(#p46ff90b330)" style="fill: none; stroke: #000000; stroke-width: 0.5; stroke-linecap: square"/>
   </g>
   <g id="patch_3">
    <path d="M 102.260459 -16.555758 
L 95.453516 -16.555758 
L 94.378735 -15.163862 
L 90 -15.163862 
L 96.253268 -22.80455 
L 101.446231 -22.80455 
L 107.699499 -15.163862 
L 103.324383 -15.163862 
L 102.260459 -16.555758 
z
M 96.539153 -17.973854 
L 101.163965 -17.973854 
L 98.855178 -21.013099 
L 96.539153 -17.973854 
z
" clip-path="url(#p46ff90b330)" style="fill: #008000"/>
   </g>
   <g id="patch_4">
    <path d="M 90 -39.046576 
L 107.699499 -39.046576 
L 107.699499 -35.878928 
L 101.331796 -35.878928 
L 101.331796 -22.80455 
L 96.380052 -22.80455 
L 96.380052 -35.878928 
L 90 -35.878928 
L 90 -39.046576 
z
" clip-path="url(#p46ff90b330)" style="fill: #ff0000"/>
   </g>
   <g id="patch_5">
    <path d="M 120.89151 -17.212442 
L 114.084567 -17.212442 
L 113.009787 -15.163862 
L 108.631052 -15.163862 
L 114.88432 -26.409363 
L 120.077283 -26.409363 
L 126.330551 -15.163862 
L 121.955434 -15.163862 
L 120.89151 -17.212442 
z
M 115.170204 -19.299584 
L 119.795017 -19.299584 
L 117.48623 -23.772719 
L 115.170204 -19.299584 
z
" clip-path="url(#p46ff90b330)" style="fill: #008000"/>
   </g>
   <g id="patch_6">
    <path d="M 108.631052 -53.571627 
L 126.330551 -53.571627 
L 126.330551 -48.274229 
L 119.962847 -48.274229 
L 119.962847 -26.409363 
L 115.011104 -26.409363 
L 115.011104 -48.274229 
L 108.631052 -48.274229 
L 108.631052 -53.571627 
z
" clip-path="url(#p46ff90b330)" style="fill: #ff0000"/>
   </g>
   <g id="patch_7">
    <path d="M 139.522562 -16.34715 
L 132.715619 -16.34715 
L 131.640839 -15.163862 
L 127.262104 -15.163862 
L 133.515372 -21.659417 
L 138.708335 -21.659417 
L 144.961603 -15.163862 
L 140.586486 -15.163862 
L 139.522562 -16.34715 
z
M 133.801256 -17.552712 
L 138.426069 -17.552712 
L 136.117281 -20.136456 
L 133.801256 -17.552712 
z
" clip-path="url(#p46ff90b330)" style="fill: #008000"/>
   </g>
   <g id="patch_8">
    <path d="M 127.262104 -31.806322 
L 144.961603 -31.806322 
L 144.961603 -29.827392 
L 138.593899 -29.827392 
L 138.593899 -21.659417 
L 133.642156 -21.659417 
L 133.642156 -29.827392 
L 127.262104 -29.827392 
L 127.262104 -31.806322 
z
" clip-path="url(#p46ff90b330)" style="fill: #ff0000"/>
   </g>
   <g id="patch_9">
    <path d="M 158.153614 -15.349745 
L 151.346671 -15.349745 
L 150.27189 -15.163862 
L 145.893155 -15.163862 
L 152.146423 -16.184249 
L 157.339386 -16.184249 
L 163.592654 -15.163862 
L 159.217538 -15.163862 
L 158.153614 -15.349745 
z
M 152.432308 -15.539126 
L 157.057121 -15.539126 
L 154.748333 -15.945007 
L 152.432308 -15.539126 
z
" clip-path="url(#p46ff90b330)" style="fill: #008000"/>
   </g>
   <g id="patch_10">
    <path d="M 145.893155 -26.360653 
L 163.592654 -26.360653 
L 163.592654 -24.375971 
L 157.224951 -24.375971 
L 157.224951 -16.184249 
L 152.273207 -16.184249 
L 152.273207 -24.375971 
L 145.893155 -24.375971 
L 145.893155 -26.360653 
z
" clip-path="url(#p46ff90b330)" style="fill: #ff0000"/>
   </g>
   <g id="patch_11">
    <path d="M 176.784666 -16.315683 
L 169.977723 -16.315683 
L 168.902942 -15.163862 
L 164.524207 -15.163862 
L 170.777475 -21.486684 
L 175.970438 -21.486684 
L 182.223706 -15.163862 
L 177.84859 -15.163862 
L 176.784666 -16.315683 
z
M 171.06336 -17.489186 
L 175.688172 -17.489186 
L 173.379385 -20.004222 
L 171.06336 -17.489186 
z
" clip-path="url(#p46ff90b330)" style="fill: #008000"/>
   </g>
   <g id="patch_12">
    <path d="M 219.48581 -15.219764 
Q 217.700786 -15.191813 215.780894 -15.177774 
Q 213.861002 -15.163862 211.814176 -15.163862 
Q 207.188981 -15.163862 204.487646 -15.247077 
Q 201.786311 -15.330292 201.786311 -15.472601 
Q 201.786311 -15.616568 204.535247 -15.699145 
Q 207.288149 -15.781722 212.075979 -15.781722 
Q 213.920503 -15.781722 215.610325 -15.770491 
Q 217.304114 -15.759387 218.803534 -15.737435 
L 218.803534 -15.614271 
Q 217.256514 -15.642477 215.72536 -15.656389 
Q 214.194207 -15.670428 212.65512 -15.670428 
Q 209.807016 -15.670428 208.263962 -15.619121 
Q 206.720909 -15.567941 206.720909 -15.472601 
Q 206.720909 -15.378154 208.208428 -15.326591 
Q 209.695948 -15.275156 212.432984 -15.275156 
Q 213.178727 -15.275156 213.817369 -15.278091 
Q 214.45601 -15.281155 214.96375 -15.287536 
L 214.96375 -15.40317 
L 212.048212 -15.40317 
L 212.048212 -15.506168 
L 219.48581 -15.506168 
L 219.48581 -15.219764 
z
" clip-path="url(#p46ff90b330)" style="fill: #ffa600"/>
   </g>
   <g id="patch_13">
    <path d="M 201.786311 -18.699791 
L 219.48581 -18.699791 
L 219.48581 -18.130686 
L 213.118106 -18.130686 
L 213.118106 -15.781722 
L 208.166363 -15.781722 
L 208.166363 -18.130686 
L 201.786311 -18.130686 
L 201.786311 -18.699791 
z
" clip-path="url(#p46ff90b330)" style="fill: #ff0000"/>
   </g>
   <g id="patch_14">
    <path d="M 214.046769 -19.501101 
L 207.239826 -19.501101 
L 206.165046 -18.699791 
L 201.786311 -18.699791 
L 208.039579 -23.098509 
L 213.232542 -23.098509 
L 219.48581 -18.699791 
L 215.110693 -18.699791 
L 214.046769 -19.501101 
z
M 208.325463 -20.317494 
L 212.950276 -20.317494 
L 210.641488 -22.067177 
L 208.325463 -20.317494 
z
" clip-path="url(#p46ff90b330)" style="fill: #008000"/>
   </g>
   <g id="patch_15">
    <path d="M 307.202028 -15.813247 
L 300.395085 -15.813247 
L 299.320305 -15.163862 
L 294.941569 -15.163862 
L 301.194837 -18.728606 
L 306.3878 -18.728606 
L 312.641068 -15.163862 
L 308.265952 -15.163862 
L 307.202028 -15.813247 
z
M 301.480722 -16.474857 
L 306.105535 -16.474857 
L 303.796747 -17.892809 
L 301.480722 -16.474857 
z
" clip-path="url(#p46ff90b330)" style="fill: #008000"/>
   </g>
   <g id="patch_16">
    <path d="M 344.464131 -15.655662 
L 337.657188 -15.655662 
L 336.582408 -15.163862 
L 332.203673 -15.163862 
L 338.456941 -17.863557 
L 343.649904 -17.863557 
L 349.903172 -15.163862 
L 345.528056 -15.163862 
L 344.464131 -15.655662 
z
M 338.742825 -16.15672 
L 343.367638 -16.15672 
L 341.058851 -17.230581 
L 338.742825 -16.15672 
z
" clip-path="url(#p46ff90b330)" style="fill: #008000"/>
   </g>
   <g id="patch_17">
    <path d="M 368.534224 -15.912375 
Q 367.053691 -15.541354 365.452754 -15.353686 
Q 363.851817 -15.163862 362.108177 -15.163862 
Q 356.908476 -15.163862 353.8716 -16.570289 
Q 350.834725 -17.976716 350.834725 -20.381879 
Q 350.834725 -22.79567 353.8716 -24.19994 
Q 356.908476 -25.606367 362.108177 -25.606367 
Q 363.851817 -25.606367 365.452754 -25.416542 
Q 367.053691 -25.228875 368.534224 -24.857854 
L 368.534224 -22.776256 
Q 367.040313 -23.268074 365.590996 -23.496726 
Q 364.14168 -23.725379 362.540743 -23.725379 
Q 359.668866 -23.725379 358.023334 -22.834498 
Q 356.382262 -21.945774 356.382262 -20.381879 
Q 356.382262 -18.824455 358.023334 -17.933574 
Q 359.668866 -17.04485 362.540743 -17.04485 
Q 364.14168 -17.04485 365.590996 -17.273503 
Q 367.040313 -17.504312 368.534224 -17.99613 
L 368.534224 -15.912375 
z
" clip-path="url(#p46ff90b330)" style="fill: #0000ff"/>
   </g>
   <g id="patch_18">
    <path d="M 381.726235 -15.308032 
L 374.919292 -15.308032 
L 373.844512 -15.163862 
L 369.465776 -15.163862 
L 375.719044 -15.955273 
L 380.912007 -15.955273 
L 387.165275 -15.163862 
L 382.790159 -15.163862 
L 381.726235 -15.308032 
z
M 376.004929 -15.454917 
L 380.629742 -15.454917 
L 378.320954 -15.769717 
L 376.004929 -15.454917 
z
" clip-path="url(#p46ff90b330)" style="fill: #008000"/>
   </g>
   <g id="patch_19">
    <path d="M 369.465776 -19.082154 
L 387.165275 -19.082154 
L 387.165275 -18.472325 
L 380.797572 -18.472325 
L 380.797572 -15.955273 
L 375.845828 -15.955273 
L 375.845828 -18.472325 
L 369.465776 -18.472325 
L 369.465776 -19.082154 
z
" clip-path="url(#p46ff90b330)" style="fill: #ff0000"/>
   </g>
   <g id="patch_20">
    <path d="M 425.358932 -17.569465 
L 443.058431 -17.569465 
L 443.058431 -17.100305 
L 436.690727 -17.100305 
L 436.690727 -15.163862 
L 431.738984 -15.163862 
L 431.738984 -17.100305 
L 425.358932 -17.100305 
L 425.358932 -17.569465 
z
" clip-path="url(#p46ff90b330)" style="fill: #ff0000"/>
   </g>
   <g id="patch_21">
    <path d="M 462.621035 -21.79956 
L 480.320534 -21.79956 
L 480.320534 -20.505414 
L 473.952831 -20.505414 
L 473.952831 -15.163862 
L 469.001087 -15.163862 
L 469.001087 -20.505414 
L 462.621035 -20.505414 
L 462.621035 -21.79956 
z
" clip-path="url(#p46ff90b330)" style="fill: #ff0000"/>
   </g>
   <g id="patch_22">
    <path d="M 474.881494 -23.070145 
L 468.074551 -23.070145 
L 466.99977 -21.79956 
L 462.621035 -21.79956 
L 468.874303 -28.774324 
L 474.067266 -28.774324 
L 480.320534 -21.79956 
L 475.945418 -21.79956 
L 474.881494 -23.070145 
z
M 469.160188 -24.364647 
L 473.785 -24.364647 
L 471.476213 -27.139007 
L 469.160188 -24.364647 
z
" clip-path="url(#p46ff90b330)" style="fill: #008000"/>
   </g>
   <g id="patch_23">
    <path d="M 493.512545 -15.366543 
L 486.705603 -15.366543 
L 485.630822 -15.163862 
L 481.252087 -15.163862 
L 487.505355 -16.276459 
L 492.698318 -16.276459 
L 498.951586 -15.163862 
L 494.57647 -15.163862 
L 493.512545 -15.366543 
z
M 487.791239 -15.573038 
L 492.416052 -15.573038 
L 490.107265 -16.015597 
L 487.791239 -15.573038 
z
" clip-path="url(#p46ff90b330)" style="fill: #008000"/>
   </g>
   <g id="patch_24">
    <path d="M 499.883139 -16.51258 
L 517.582638 -16.51258 
L 517.582638 -16.249542 
L 511.214934 -16.249542 
L 511.214934 -15.163862 
L 506.263191 -15.163862 
L 506.263191 -16.249542 
L 499.883139 -16.249542 
L 499.883139 -16.51258 
z
" clip-path="url(#p46ff90b330)" style="fill: #ff0000"/>
   </g>
   <g id="patch_25">
    <path d="M 512.143597 -17.963932 
L 505.336654 -17.963932 
L 504.261874 -16.51258 
L 499.883139 -16.51258 
L 506.136407 -24.47965 
L 511.32937 -24.47965 
L 517.582638 -16.51258 
L 513.207521 -16.51258 
L 512.143597 -17.963932 
z
M 506.422291 -19.442604 
L 511.047104 -19.442604 
L 508.738316 -22.611674 
L 506.422291 -19.442604 
z
" clip-path="url(#p46ff90b330)" style="fill: #008000"/>
   </g>
   <g id="patch_26">
    <path d="M 549.405701 -15.918203 
L 542.598758 -15.918203 
L 541.523977 -15.163862 
L 537.145242 -15.163862 
L 543.39851 -19.304751 
L 548.591473 -19.304751 
L 554.844741 -15.163862 
L 550.469625 -15.163862 
L 549.405701 -15.918203 
z
M 543.684395 -16.686743 
L 548.309208 -16.686743 
L 546.00042 -18.333869 
L 543.684395 -16.686743 
z
" clip-path="url(#p46ff90b330)" style="fill: #008000"/>
   </g>
   <g id="patch_27">
    <path d="M 537.145242 -31.090426 
L 554.844741 -31.090426 
L 554.844741 -28.791891 
L 548.477038 -28.791891 
L 548.477038 -19.304751 
L 543.525294 -19.304751 
L 543.525294 -28.791891 
L 537.145242 -28.791891 
L 537.145242 -31.090426 
z
" clip-path="url(#p46ff90b330)" style="fill: #ff0000"/>
   </g>
   <g id="patch_28">
    <path d="M 555.776294 -16.778727 
L 573.475793 -16.778727 
L 573.475793 -16.463783 
L 567.108089 -16.463783 
L 567.108089 -15.163862 
L 562.156346 -15.163862 
L 562.156346 -16.463783 
L 555.776294 -16.463783 
L 555.776294 -16.778727 
z
" clip-path="url(#p46ff90b330)" style="fill: #ff0000"/>
   </g>
   <g id="patch_29">
    <path d="M 574.407346 -23.987769 
L 592.106845 -23.987769 
L 592.106845 -22.266861 
L 585.739141 -22.266861 
L 585.739141 -15.163862 
L 580.787398 -15.163862 
L 580.787398 -22.266861 
L 574.407346 -22.266861 
L 574.407346 -23.987769 
z
" clip-path="url(#p46ff90b330)" style="fill: #ff0000"/>
   </g>
   <g id="patch_30">
    <path d="M 623.929908 -15.499838 
L 617.122965 -15.499838 
L 616.048184 -15.163862 
L 611.669449 -15.163862 
L 617.922717 -17.008172 
L 623.11568 -17.008172 
L 629.368948 -15.163862 
L 624.993832 -15.163862 
L 623.929908 -15.499838 
z
M 618.208602 -15.842138 
L 622.833415 -15.842138 
L 620.524627 -16.575751 
L 618.208602 -15.842138 
z
" clip-path="url(#p46ff90b330)" style="fill: #008000"/>
   </g>
   <g id="patch_31">
    <path d="M 107.699499 -13.553892 
Q 106.218967 -14.351917 104.618029 -14.75557 
Q 103.017092 -15.163862 101.273453 -15.163862 
Q 96.073751 -15.163862 93.036876 -12.138788 
Q 90 -9.113714 90 -3.940466 
Q 90 1.251341 93.036876 4.271775 
Q 96.073751 7.29685 101.273453 7.29685 
Q 103.017092 7.29685 104.618029 6.888557 
Q 106.218967 6.484905 107.699499 5.686879 
L 107.699499 1.209584 
Q 106.205588 2.267432 104.756272 2.759238 
Q 103.306955 3.251045 101.706018 3.251045 
Q 98.834142 3.251045 97.18861 1.334855 
Q 95.547538 -0.576695 95.547538 -3.940466 
Q 95.547538 -7.290318 97.18861 -9.206507 
Q 98.834142 -11.118057 101.706018 -11.118057 
Q 103.306955 -11.118057 104.756272 -10.626251 
Q 106.205588 -10.129805 107.699499 -9.071957 
L 107.699499 -13.553892 
z
" clip-path="url(#p46ff90b330)" style="fill: #0000ff"/>
   </g>
   <g id="patch_32">
    <path d="M 107.699499 13.316956 
Q 105.914476 10.306903 103.994584 8.795004 
Q 102.074692 7.29685 100.027865 7.29685 
Q 95.402671 7.29685 92.701335 16.258286 
Q 90 25.219722 90 40.544877 
Q 90 56.048712 92.748936 64.941425 
Q 95.501839 73.834139 100.289668 73.834139 
Q 102.134193 73.834139 103.824015 72.62462 
Q 105.517804 71.428846 107.017224 69.064786 
L 107.017224 55.80131 
Q 105.470203 58.838852 103.93905 60.337007 
Q 102.407896 61.848905 100.868809 61.848905 
Q 98.020705 61.848905 96.477652 56.323603 
Q 94.934598 50.812044 94.934598 40.544877 
Q 94.934598 30.373922 96.422118 24.821131 
Q 97.909637 19.282083 100.646673 19.282083 
Q 101.392416 19.282083 102.031058 19.598208 
Q 102.6697 19.928076 103.17744 20.615303 
L 103.17744 33.067851 
L 100.261901 33.067851 
L 100.261901 44.15969 
L 107.699499 44.15969 
L 107.699499 13.316956 
z
" clip-path="url(#p46ff90b330)" style="fill: #ffa600"/>
   </g>
   <g id="patch_33">
    <path d="M 126.330551 -12.690255 
Q 124.850018 -13.916365 123.249081 -14.536549 
Q 121.648144 -15.163862 119.904504 -15.163862 
Q 114.704803 -15.163862 111.667927 -10.516046 
Q 108.631052 -5.868231 108.631052 2.080104 
Q 108.631052 10.056953 111.667927 14.69764 
Q 114.704803 19.345456 119.904504 19.345456 
Q 121.648144 19.345456 123.249081 18.718143 
Q 124.850018 18.097959 126.330551 16.871848 
L 126.330551 9.992796 
Q 124.83664 11.618106 123.387324 12.373732 
Q 121.938007 13.129359 120.33707 13.129359 
Q 117.465193 13.129359 115.819662 10.185267 
Q 114.178589 7.248304 114.178589 2.080104 
Q 114.178589 -3.06671 115.819662 -6.010802 
Q 117.465193 -8.947765 120.33707 -8.947765 
Q 121.938007 -8.947765 123.387324 -8.192139 
Q 124.83664 -7.429384 126.330551 -5.804074 
L 126.330551 -12.690255 
z
" clip-path="url(#p46ff90b330)" style="fill: #0000ff"/>
   </g>
   <g id="patch_34">
    <path d="M 126.330551 23.415328 
Q 124.545527 21.380392 122.625636 20.358278 
Q 120.705744 19.345456 118.658917 19.345456 
Q 114.033723 19.345456 111.332387 25.403804 
Q 108.631052 31.462153 108.631052 41.822672 
Q 108.631052 52.303987 111.379988 58.315876 
Q 114.132891 64.327765 118.92072 64.327765 
Q 120.765244 64.327765 122.455067 63.510074 
Q 124.148856 62.701675 125.648275 61.10346 
L 125.648275 52.136732 
Q 124.101255 54.190252 122.570102 55.203074 
Q 121.038948 56.225188 119.499861 56.225188 
Q 116.651757 56.225188 115.108704 52.489826 
Q 113.56565 48.763756 113.56565 41.822672 
Q 113.56565 34.946633 115.053169 31.192687 
Q 116.540689 27.448032 119.277725 27.448032 
Q 120.023468 27.448032 120.66211 27.661747 
Q 121.300752 27.884754 121.808492 28.349351 
L 121.808492 36.767854 
L 118.892953 36.767854 
L 118.892953 44.266454 
L 126.330551 44.266454 
L 126.330551 23.415328 
z
" clip-path="url(#p46ff90b330)" style="fill: #ffa600"/>
   </g>
   <g id="patch_35">
    <path d="M 144.961603 6.922175 
Q 143.48107 4.704866 141.880133 3.583321 
Q 140.279195 2.448884 138.535556 2.448884 
Q 133.335855 2.448884 130.298979 10.85403 
Q 127.262104 19.259175 127.262104 33.633006 
Q 127.262104 48.058401 130.298979 56.450655 
Q 133.335855 64.855801 138.535556 64.855801 
Q 140.279195 64.855801 141.880133 63.721364 
Q 143.48107 62.599819 144.961603 60.38251 
L 144.961603 47.942379 
Q 143.467692 50.881602 142.018375 52.248083 
Q 140.569059 53.614563 138.968121 53.614563 
Q 136.096245 53.614563 134.450713 48.290445 
Q 132.809641 42.979218 132.809641 33.633006 
Q 132.809641 24.325467 134.450713 19.001349 
Q 136.096245 13.690122 138.968121 13.690122 
Q 140.569059 13.690122 142.018375 15.056602 
Q 143.467692 16.435974 144.961603 19.375197 
L 144.961603 6.922175 
z
" clip-path="url(#p46ff90b330)" style="fill: #0000ff"/>
   </g>
   <g id="patch_36">
    <path d="M 144.961603 -13.57031 
Q 143.176579 -14.367086 141.256687 -14.767293 
Q 139.336795 -15.163862 137.289969 -15.163862 
Q 132.664774 -15.163862 129.963439 -12.791726 
Q 127.262104 -10.41959 127.262104 -6.362946 
Q 127.262104 -2.259006 130.01104 0.094939 
Q 132.763942 2.448884 137.551772 2.448884 
Q 139.396296 2.448884 141.086118 2.128718 
Q 142.779907 1.812191 144.279327 1.186413 
L 144.279327 -2.324494 
Q 142.732307 -1.520442 141.201153 -1.123873 
Q 139.67 -0.723666 138.130913 -0.723666 
Q 135.282809 -0.723666 133.739755 -2.186241 
Q 132.196702 -3.645177 132.196702 -6.362946 
Q 132.196702 -9.055248 133.684221 -10.525099 
Q 135.171741 -11.991312 137.908777 -11.991312 
Q 138.65452 -11.991312 139.293162 -11.907632 
Q 139.931803 -11.820314 140.439543 -11.638402 
L 140.439543 -8.342152 
L 137.524005 -8.342152 
L 137.524005 -5.406088 
L 144.961603 -5.406088 
L 144.961603 -13.57031 
z
" clip-path="url(#p46ff90b330)" style="fill: #ffa600"/>
   </g>
   <g id="patch_37">
    <path d="M 163.592654 -14.904017 
Q 162.112122 -15.032816 160.511185 -15.097965 
Q 158.910247 -15.163862 157.166608 -15.163862 
Q 151.966906 -15.163862 148.930031 -14.675623 
Q 145.893155 -14.187385 145.893155 -13.352436 
Q 145.893155 -12.514493 148.930031 -12.027003 
Q 151.966906 -11.538764 157.166608 -11.538764 
Q 158.910247 -11.538764 160.511185 -11.604662 
Q 162.112122 -11.66981 163.592654 -11.798609 
L 163.592654 -12.521233 
Q 162.098744 -12.350499 160.649427 -12.271123 
Q 159.200111 -12.191746 157.599173 -12.191746 
Q 154.727297 -12.191746 153.081765 -12.501014 
Q 151.440693 -12.809533 151.440693 -13.352436 
Q 151.440693 -13.893093 153.081765 -14.202361 
Q 154.727297 -14.51088 157.599173 -14.51088 
Q 159.200111 -14.51088 160.649427 -14.431504 
Q 162.098744 -14.351379 163.592654 -14.180645 
L 163.592654 -14.904017 
z
" clip-path="url(#p46ff90b330)" style="fill: #0000ff"/>
   </g>
   <g id="patch_38">
    <path d="M 163.592654 -6.810343 
Q 161.807631 -9.174554 159.887739 -10.362057 
Q 157.967847 -11.538764 155.92102 -11.538764 
Q 151.295826 -11.538764 148.594491 -4.500109 
Q 145.893155 2.538546 145.893155 14.57551 
Q 145.893155 26.752815 148.642091 33.737493 
Q 151.394994 40.72217 156.182824 40.72217 
Q 158.027348 40.72217 159.71717 39.772168 
Q 161.410959 38.832961 162.910379 36.976138 
L 162.910379 26.558496 
Q 161.363358 28.944298 159.832205 30.121006 
Q 158.301052 31.308509 156.761965 31.308509 
Q 153.913861 31.308509 152.370807 26.968724 
Q 150.827753 22.639736 150.827753 14.57551 
Q 150.827753 6.586852 152.315273 2.225477 
Q 153.802792 -2.125103 156.539828 -2.125103 
Q 157.285572 -2.125103 157.924213 -1.876807 
Q 158.562855 -1.617715 159.070595 -1.077941 
L 159.070595 8.702767 
L 156.155057 8.702767 
L 156.155057 17.414722 
L 163.592654 17.414722 
L 163.592654 -6.810343 
z
" clip-path="url(#p46ff90b330)" style="fill: #ffa600"/>
   </g>
   <g id="patch_39">
    <path d="M 182.223706 38.109227 
Q 180.743174 36.031042 179.142236 34.979867 
Q 177.541299 33.91661 175.79766 33.91661 
Q 170.597958 33.91661 167.561083 41.794381 
Q 164.524207 49.672151 164.524207 63.144106 
Q 164.524207 76.66439 167.561083 84.530079 
Q 170.597958 92.40785 175.79766 92.40785 
Q 177.541299 92.40785 179.142236 91.344592 
Q 180.743174 90.293417 182.223706 88.215232 
L 182.223706 76.555648 
Q 180.729795 79.310452 179.280479 80.591193 
Q 177.831162 81.871935 176.230225 81.871935 
Q 173.358349 81.871935 171.712817 76.881875 
Q 170.071745 71.903897 170.071745 63.144106 
Q 170.071745 54.420562 171.712817 49.430502 
Q 173.358349 44.452524 176.230225 44.452524 
Q 177.831162 44.452524 179.280479 45.733266 
Q 180.729795 47.02609 182.223706 49.780894 
L 182.223706 38.109227 
z
" clip-path="url(#p46ff90b330)" style="fill: #0000ff"/>
   </g>
   <g id="patch_40">
    <path d="M 182.223706 -6.538669 
Q 180.438683 -8.550866 178.518791 -9.561559 
Q 176.598899 -10.563064 174.552072 -10.563064 
Q 169.926878 -10.563064 167.225542 -4.572412 
Q 164.524207 1.418241 164.524207 11.662991 
Q 164.524207 22.027187 167.273143 27.971898 
Q 170.026046 33.91661 174.813876 33.91661 
Q 176.6584 33.91661 178.348222 33.108055 
Q 180.042011 32.308689 181.541431 30.728333 
L 181.541431 21.861801 
Q 179.99441 23.892374 178.463257 24.893879 
Q 176.932103 25.904572 175.393016 25.904572 
Q 172.544912 25.904572 171.001859 22.210949 
Q 169.458805 18.526514 169.458805 11.662991 
Q 169.458805 4.863784 170.946325 1.151785 
Q 172.433844 -2.551026 175.17088 -2.551026 
Q 175.916623 -2.551026 176.555265 -2.339699 
Q 177.193907 -2.119184 177.701647 -1.659779 
L 177.701647 6.664655 
L 174.786108 6.664655 
L 174.786108 14.079466 
L 182.223706 14.079466 
L 182.223706 -6.538669 
z
" clip-path="url(#p46ff90b330)" style="fill: #ffa600"/>
   </g>
   <g id="patch_41">
    <path d="M 164.524207 -10.563064 
L 182.223706 -10.563064 
L 182.223706 -11.460348 
L 175.856003 -11.460348 
L 175.856003 -15.163862 
L 170.904259 -15.163862 
L 170.904259 -11.460348 
L 164.524207 -11.460348 
L 164.524207 -10.563064 
z
" clip-path="url(#p46ff90b330)" style="fill: #ff0000"/>
   </g>
   <g id="patch_42">
    <path d="M 195.415717 -13.487918 
L 188.608774 -13.487918 
L 187.533994 -15.163862 
L 183.155259 -15.163862 
L 189.408527 -5.963916 
L 194.60149 -5.963916 
L 200.854758 -15.163862 
L 196.479641 -15.163862 
L 195.415717 -13.487918 
z
M 189.694411 -11.780427 
L 194.319224 -11.780427 
L 192.010437 -8.120954 
L 189.694411 -11.780427 
z
" clip-path="url(#p46ff90b330)" style="fill: #008000"/>
   </g>
   <g id="patch_43">
    <path d="M 200.854758 10.923615 
Q 199.374225 9.315347 197.773288 8.501863 
Q 196.172351 7.679028 194.428711 7.679028 
Q 189.22901 7.679028 186.192134 13.775485 
Q 183.155259 19.871942 183.155259 30.297633 
Q 183.155259 40.760724 186.192134 46.847831 
Q 189.22901 52.944289 194.428711 52.944289 
Q 196.172351 52.944289 197.773288 52.121454 
Q 199.374225 51.307969 200.854758 49.699702 
L 200.854758 40.676571 
Q 199.360847 42.808461 197.911531 43.799603 
Q 196.462214 44.790744 194.861277 44.790744 
Q 191.9894 44.790744 190.343869 40.929031 
Q 188.702796 37.076669 188.702796 30.297633 
Q 188.702796 23.546648 190.343869 19.684935 
Q 191.9894 15.832572 194.861277 15.832572 
Q 196.462214 15.832572 197.911531 16.823714 
Q 199.360847 17.824206 200.854758 19.956096 
L 200.854758 10.923615 
z
" clip-path="url(#p46ff90b330)" style="fill: #0000ff"/>
   </g>
   <g id="patch_44">
    <path d="M 200.854758 61.10608 
Q 199.069734 57.025184 197.149843 54.975419 
Q 195.229951 52.944289 193.183124 52.944289 
Q 188.55793 52.944289 185.856594 65.093805 
Q 183.155259 77.243321 183.155259 98.020485 
Q 183.155259 119.039893 185.904195 131.096238 
Q 188.657098 143.152583 193.444927 143.152583 
Q 195.289451 143.152583 196.979274 141.512771 
Q 198.673063 139.891593 200.172482 136.686506 
L 200.172482 118.704477 
Q 198.625462 122.822641 197.094309 124.853772 
Q 195.563155 126.903537 194.024068 126.903537 
Q 191.175964 126.903537 189.632911 119.412578 
Q 188.089857 111.940252 188.089857 98.020485 
Q 188.089857 84.231156 189.577376 76.702928 
Q 191.064896 69.193335 193.801932 69.193335 
Q 194.547675 69.193335 195.186317 69.621922 
Q 195.824959 70.069143 196.332699 71.000855 
L 196.332699 87.883465 
L 193.41716 87.883465 
L 193.41716 102.921286 
L 200.854758 102.921286 
L 200.854758 61.10608 
z
" clip-path="url(#p46ff90b330)" style="fill: #ffa600"/>
   </g>
   <g id="patch_45">
    <path d="M 183.155259 7.679028 
L 200.854758 7.679028 
L 200.854758 5.018274 
L 194.487054 5.018274 
L 194.487054 -5.963916 
L 189.535311 -5.963916 
L 189.535311 5.018274 
L 183.155259 5.018274 
L 183.155259 7.679028 
z
" clip-path="url(#p46ff90b330)" style="fill: #ff0000"/>
   </g>
   <g id="patch_46">
    <path d="M 219.48581 -0.217007 
Q 218.005277 -7.625823 216.40434 -11.373305 
Q 214.803402 -15.163862 213.059763 -15.163862 
Q 207.860062 -15.163862 204.823186 12.920718 
Q 201.786311 41.005297 201.786311 89.033375 
Q 201.786311 137.23375 204.823186 165.275255 
Q 207.860062 193.359835 213.059763 193.359835 
Q 214.803402 193.359835 216.40434 189.569278 
Q 218.005277 185.821796 219.48581 178.412981 
L 219.48581 136.84608 
Q 217.991899 146.667068 216.542582 151.232966 
Q 215.093266 155.798863 213.492328 155.798863 
Q 210.620452 155.798863 208.97492 138.009091 
Q 207.333848 120.262394 207.333848 89.033375 
Q 207.333848 57.933579 208.97492 40.143807 
Q 210.620452 22.39711 213.492328 22.39711 
Q 215.093266 22.39711 216.542582 26.963008 
Q 217.991899 31.57198 219.48581 41.392968 
L 219.48581 -0.217007 
z
" clip-path="url(#p46ff90b330)" style="fill: #0000ff"/>
   </g>
   <g id="patch_47">
    <path d="M 232.677821 8.596668 
L 225.870878 8.596668 
L 224.796097 5.884176 
L 220.417362 5.884176 
L 226.67063 20.774162 
L 231.863593 20.774162 
L 238.116861 5.884176 
L 233.741745 5.884176 
L 232.677821 8.596668 
z
M 226.956515 11.360218 
L 231.581328 11.360218 
L 229.27254 17.283025 
L 226.956515 11.360218 
z
" clip-path="url(#p46ff90b330)" style="fill: #008000"/>
   </g>
   <g id="patch_48">
    <path d="M 238.116861 -14.710739 
Q 236.636329 -14.935342 235.035392 -15.048949 
Q 233.434454 -15.163862 231.690815 -15.163862 
Q 226.491113 -15.163862 223.454238 -14.312461 
Q 220.417362 -13.461061 220.417362 -12.005062 
Q 220.417362 -10.543839 223.454238 -9.693744 
Q 226.491113 -8.842344 231.690815 -8.842344 
Q 233.434454 -8.842344 235.035392 -8.957257 
Q 236.636329 -9.070864 238.116861 -9.295467 
L 238.116861 -10.555592 
Q 236.622951 -10.257863 235.173634 -10.119445 
Q 233.724318 -9.981027 232.12338 -9.981027 
Q 229.251504 -9.981027 227.605972 -10.520334 
Q 225.9649 -11.058336 225.9649 -12.005062 
Q 225.9649 -12.94787 227.605972 -13.487178 
Q 229.251504 -14.025179 232.12338 -14.025179 
Q 233.724318 -14.025179 235.173634 -13.886761 
Q 236.622951 -13.747038 238.116861 -13.449309 
L 238.116861 -14.710739 
z
" clip-path="url(#p46ff90b330)" style="fill: #0000ff"/>
   </g>
   <g id="patch_49">
    <path d="M 238.116861 29.613261 
Q 236.331838 25.193712 234.411946 22.973846 
Q 232.492054 20.774162 230.445227 20.774162 
Q 225.820033 20.774162 223.118698 33.931908 
Q 220.417362 47.089655 220.417362 69.591016 
Q 220.417362 92.354725 223.166298 105.411568 
Q 225.919201 118.468412 230.707031 118.468412 
Q 232.551555 118.468412 234.241377 116.69252 
Q 235.935166 114.936808 237.434586 111.465746 
L 237.434586 91.991474 
Q 235.887565 96.451385 234.356412 98.65107 
Q 232.825259 100.870935 231.286172 100.870935 
Q 228.438068 100.870935 226.895014 92.758337 
Q 225.35196 84.665919 225.35196 69.591016 
Q 225.35196 54.657377 226.83948 46.504418 
Q 228.327 38.371639 231.064035 38.371639 
Q 231.809779 38.371639 232.44842 38.835792 
Q 233.087062 39.320127 233.594802 40.329156 
L 233.594802 58.612773 
L 230.679264 58.612773 
L 230.679264 74.898512 
L 238.116861 74.898512 
L 238.116861 29.613261 
z
" clip-path="url(#p46ff90b330)" style="fill: #ffa600"/>
   </g>
   <g id="patch_50">
    <path d="M 220.417362 5.884176 
L 238.116861 5.884176 
L 238.116861 3.012094 
L 231.749158 3.012094 
L 231.749158 -8.842344 
L 226.797414 -8.842344 
L 226.797414 3.012094 
L 220.417362 3.012094 
L 220.417362 5.884176 
z
" clip-path="url(#p46ff90b330)" style="fill: #ff0000"/>
   </g>
   <g id="patch_51">
    <path d="M 251.308873 -13.358891 
L 244.50193 -13.358891 
L 243.427149 -13.870026 
L 239.048414 -13.870026 
L 245.301682 -11.064193 
L 250.494645 -11.064193 
L 256.747913 -13.870026 
L 252.372797 -13.870026 
L 251.308873 -13.358891 
z
M 245.587567 -12.838134 
L 250.212379 -12.838134 
L 247.903592 -11.722055 
L 245.587567 -12.838134 
z
" clip-path="url(#p46ff90b330)" style="fill: #008000"/>
   </g>
   <g id="patch_52">
    <path d="M 256.747913 -10.839732 
Q 255.267381 -10.950993 253.666443 -11.00727 
Q 252.065506 -11.064193 250.321867 -11.064193 
Q 245.122165 -11.064193 242.08529 -10.64244 
Q 239.048414 -10.220686 239.048414 -9.499436 
Q 239.048414 -8.775598 242.08529 -8.354492 
Q 245.122165 -7.932738 250.321867 -7.932738 
Q 252.065506 -7.932738 253.666443 -7.989662 
Q 255.267381 -8.045939 256.747913 -8.157199 
L 256.747913 -8.78142 
Q 255.254002 -8.633936 253.804686 -8.565368 
Q 252.355369 -8.496801 250.754432 -8.496801 
Q 247.882556 -8.496801 246.237024 -8.763955 
Q 244.595952 -9.030462 244.595952 -9.499436 
Q 244.595952 -9.96647 246.237024 -10.233623 
Q 247.882556 -10.50013 250.754432 -10.50013 
Q 252.355369 -10.50013 253.804686 -10.431563 
Q 255.254002 -10.362349 256.747913 -10.214864 
L 256.747913 -10.839732 
z
" clip-path="url(#p46ff90b330)" style="fill: #0000ff"/>
   </g>
   <g id="patch_53">
    <path d="M 256.747913 9.712974 
Q 254.96289 0.890118 253.042998 -3.541454 
Q 251.123106 -7.932738 249.076279 -7.932738 
Q 244.451085 -7.932738 241.74975 18.334394 
Q 239.048414 44.601527 239.048414 89.521546 
Q 239.048414 134.965296 241.79735 161.030993 
Q 244.550253 187.09669 249.338083 187.09669 
Q 251.182607 187.09669 252.872429 183.551433 
Q 254.566218 180.046463 256.065638 173.117097 
L 256.065638 134.24013 
Q 254.518617 143.14356 252.987464 147.534844 
Q 251.45631 151.966415 249.917223 151.966415 
Q 247.069119 151.966415 245.526066 135.771036 
Q 243.983012 119.615944 243.983012 89.521546 
Q 243.983012 59.709156 245.470532 43.433203 
Q 246.958051 27.197537 249.695087 27.197537 
Q 250.44083 27.197537 251.079472 28.124138 
Q 251.718114 29.091027 252.225854 31.105377 
L 252.225854 67.605411 
L 249.310315 67.605411 
L 249.310315 100.11703 
L 256.747913 100.11703 
L 256.747913 9.712974 
z
" clip-path="url(#p46ff90b330)" style="fill: #ffa600"/>
   </g>
   <g id="patch_54">
    <path d="M 239.048414 -13.870026 
L 256.747913 -13.870026 
L 256.747913 -14.12236 
L 250.38021 -14.12236 
L 250.38021 -15.163862 
L 245.428466 -15.163862 
L 245.428466 -14.12236 
L 239.048414 -14.12236 
L 239.048414 -13.870026 
z
" clip-path="url(#p46ff90b330)" style="fill: #ff0000"/>
   </g>
   <g id="patch_55">
    <path d="M 269.939924 -15.15076 
L 263.132981 -15.15076 
L 262.058201 -15.163862 
L 257.679466 -15.163862 
L 263.932734 -15.091938 
L 269.125697 -15.091938 
L 275.378965 -15.163862 
L 271.003849 -15.163862 
L 269.939924 -15.15076 
z
M 264.218618 -15.137411 
L 268.843431 -15.137411 
L 266.534644 -15.108801 
L 264.218618 -15.137411 
z
" clip-path="url(#p46ff90b330)" style="fill: #008000"/>
   </g>
   <g id="patch_56">
    <path d="M 275.378965 4.522185 
Q 273.898432 -1.720905 272.297495 -4.878746 
Q 270.696558 -8.072885 268.952919 -8.072885 
Q 263.753217 -8.072885 260.716341 15.592779 
Q 257.679466 39.258444 257.679466 79.729634 
Q 257.679466 120.346012 260.716341 143.97538 
Q 263.753217 167.641044 268.952919 167.641044 
Q 270.696558 167.641044 272.297495 164.446906 
Q 273.898432 161.289064 275.378965 155.045974 
L 275.378965 120.019339 
Q 273.885054 128.295062 272.435738 132.142548 
Q 270.986421 135.990033 269.385484 135.990033 
Q 266.513607 135.990033 264.868076 120.999359 
Q 263.227003 106.044982 263.227003 79.729634 
Q 263.227003 53.523177 264.868076 38.532503 
Q 266.513607 23.578126 269.385484 23.578126 
Q 270.986421 23.578126 272.435738 27.425612 
Q 273.885054 31.309394 275.378965 39.585117 
L 275.378965 4.522185 
z
" clip-path="url(#p46ff90b330)" style="fill: #0000ff"/>
   </g>
   <g id="patch_57">
    <path d="M 275.378965 -13.952258 
Q 273.593941 -14.244691 271.67405 -14.391575 
Q 269.754158 -14.537124 267.707331 -14.537124 
Q 263.082137 -14.537124 260.380801 -13.666502 
Q 257.679466 -12.795879 257.679466 -11.307008 
Q 257.679466 -9.800777 260.428402 -8.936831 
Q 263.181305 -8.072885 267.969134 -8.072885 
Q 269.813659 -8.072885 271.503481 -8.190393 
Q 273.19727 -8.306565 274.696689 -8.536238 
L 274.696689 -9.824813 
Q 273.149669 -9.529709 271.618516 -9.38416 
Q 270.087362 -9.237276 268.548275 -9.237276 
Q 265.700171 -9.237276 264.157118 -9.774071 
Q 262.614064 -10.309531 262.614064 -11.307008 
Q 262.614064 -12.295137 264.101583 -12.834603 
Q 265.589103 -13.372733 268.326139 -13.372733 
Q 269.071882 -13.372733 269.710524 -13.342021 
Q 270.349166 -13.309974 270.856906 -13.243208 
L 270.856906 -12.033417 
L 267.941367 -12.033417 
L 267.941367 -10.955821 
L 275.378965 -10.955821 
L 275.378965 -13.952258 
z
" clip-path="url(#p46ff90b330)" style="fill: #ffa600"/>
   </g>
   <g id="patch_58">
    <path d="M 257.679466 -14.537124 
L 275.378965 -14.537124 
L 275.378965 -14.645328 
L 269.011261 -14.645328 
L 269.011261 -15.091938 
L 264.059518 -15.091938 
L 264.059518 -14.645328 
L 257.679466 -14.645328 
L 257.679466 -14.537124 
z
" clip-path="url(#p46ff90b330)" style="fill: #ff0000"/>
   </g>
   <g id="patch_59">
    <path d="M 288.570976 -13.707316 
L 281.764033 -13.707316 
L 280.689253 -15.163862 
L 276.310518 -15.163862 
L 282.563786 -7.168279 
L 287.756749 -7.168279 
L 294.010017 -15.163862 
L 289.6349 -15.163862 
L 288.570976 -13.707316 
z
M 282.84967 -12.223352 
L 287.474483 -12.223352 
L 285.165695 -9.04294 
L 282.84967 -12.223352 
z
" clip-path="url(#p46ff90b330)" style="fill: #008000"/>
   </g>
   <g id="patch_60">
    <path d="M 294.010017 6.030814 
Q 292.529484 4.823654 290.928547 4.213055 
Q 289.32761 3.595439 287.58397 3.595439 
Q 282.384269 3.595439 279.347393 8.171417 
Q 276.310518 12.747395 276.310518 20.57288 
Q 276.310518 28.426437 279.347393 32.995397 
Q 282.384269 37.571376 287.58397 37.571376 
Q 289.32761 37.571376 290.928547 36.953759 
Q 292.529484 36.343161 294.010017 35.136001 
L 294.010017 28.363272 
Q 292.516106 29.963461 291.066789 30.707408 
Q 289.617473 31.451356 288.016535 31.451356 
Q 285.144659 31.451356 283.499127 28.552768 
Q 281.858055 25.661199 281.858055 20.57288 
Q 281.858055 15.505615 283.499127 12.607028 
Q 285.144659 9.715459 288.016535 9.715459 
Q 289.617473 9.715459 291.066789 10.459406 
Q 292.516106 11.210372 294.010017 12.810561 
L 294.010017 6.030814 
z
" clip-path="url(#p46ff90b330)" style="fill: #0000ff"/>
   </g>
   <g id="patch_61">
    <path d="M 294.010017 43.014637 
Q 292.224993 40.293006 290.305101 38.925977 
Q 288.385209 37.571376 286.338383 37.571376 
Q 281.713188 37.571376 279.011853 45.67413 
Q 276.310518 53.776884 276.310518 67.633588 
Q 276.310518 81.651849 279.059454 89.692466 
Q 281.812356 97.733082 286.600186 97.733082 
Q 288.44471 97.733082 290.134532 96.639459 
Q 291.828321 95.558263 293.327741 93.420727 
L 293.327741 81.428154 
Q 291.780721 84.174639 290.249567 85.529241 
Q 288.718414 86.89627 287.179327 86.89627 
Q 284.331223 86.89627 282.788169 81.9004 
Q 281.245116 76.916958 281.245116 67.633588 
Q 281.245116 58.43721 282.732635 53.416485 
Q 284.220155 48.408188 286.957191 48.408188 
Q 287.702934 48.408188 288.341576 48.694021 
Q 288.980217 48.992282 289.487957 49.613659 
L 289.487957 60.873007 
L 286.572419 60.873007 
L 286.572419 70.90203 
L 294.010017 70.90203 
L 294.010017 43.014637 
z
" clip-path="url(#p46ff90b330)" style="fill: #ffa600"/>
   </g>
   <g id="patch_62">
    <path d="M 276.310518 3.595439 
L 294.010017 3.595439 
L 294.010017 1.496214 
L 287.642313 1.496214 
L 287.642313 -7.168279 
L 282.69057 -7.168279 
L 282.69057 1.496214 
L 276.310518 1.496214 
L 276.310518 3.595439 
z
" clip-path="url(#p46ff90b330)" style="fill: #ff0000"/>
   </g>
   <g id="patch_63">
    <path d="M 312.641068 -15.07649 
Q 311.160536 -15.119798 309.559599 -15.141704 
Q 307.958661 -15.163862 306.215022 -15.163862 
Q 301.01532 -15.163862 297.978445 -14.999694 
Q 294.941569 -14.835525 294.941569 -14.554777 
Q 294.941569 -14.273022 297.978445 -14.109105 
Q 301.01532 -13.944937 306.215022 -13.944937 
Q 307.958661 -13.944937 309.559599 -13.967094 
Q 311.160536 -13.989 312.641068 -14.032309 
L 312.641068 -14.275288 
Q 311.147158 -14.217879 309.697841 -14.191189 
Q 308.248525 -14.164499 306.647587 -14.164499 
Q 303.775711 -14.164499 302.130179 -14.26849 
Q 300.489107 -14.372228 300.489107 -14.554777 
Q 300.489107 -14.736571 302.130179 -14.840561 
Q 303.775711 -14.944299 306.647587 -14.944299 
Q 308.248525 -14.944299 309.697841 -14.917609 
Q 311.147158 -14.890668 312.641068 -14.833259 
L 312.641068 -15.07649 
z
" clip-path="url(#p46ff90b330)" style="fill: #0000ff"/>
   </g>
   <g id="patch_64">
    <path d="M 312.641068 8.595673 
Q 310.856045 -0.227255 308.936153 -4.658863 
Q 307.016261 -9.050184 304.969434 -9.050184 
Q 300.34424 -9.050184 297.642905 17.217165 
Q 294.941569 43.484514 294.941569 88.404903 
Q 294.941569 133.849028 297.690505 159.914941 
Q 300.443408 185.980853 305.231238 185.980853 
Q 307.075762 185.980853 308.765584 182.435566 
Q 310.459373 178.930567 311.958793 172.001144 
L 311.958793 133.123856 
Q 310.411772 142.027359 308.880619 146.41868 
Q 307.349466 150.850288 305.810379 150.850288 
Q 302.962275 150.850288 301.419221 134.654775 
Q 299.876167 118.49955 299.876167 88.404903 
Q 299.876167 58.592268 301.363687 42.316181 
Q 302.851207 26.080381 305.588242 26.080381 
Q 306.333986 26.080381 306.972627 27.00699 
Q 307.611269 27.973886 308.119009 29.988253 
L 308.119009 66.488588 
L 305.203471 66.488588 
L 305.203471 99.000475 
L 312.641068 99.000475 
L 312.641068 8.595673 
z
" clip-path="url(#p46ff90b330)" style="fill: #ffa600"/>
   </g>
   <g id="patch_65">
    <path d="M 294.941569 -9.050184 
L 312.641068 -9.050184 
L 312.641068 -10.004797 
L 306.273365 -10.004797 
L 306.273365 -13.944937 
L 301.321621 -13.944937 
L 301.321621 -10.004797 
L 294.941569 -10.004797 
L 294.941569 -9.050184 
z
" clip-path="url(#p46ff90b330)" style="fill: #ff0000"/>
   </g>
   <g id="patch_66">
    <path d="M 325.83308 -13.59617 
L 319.026137 -13.59617 
L 317.951356 -14.400839 
L 313.572621 -14.400839 
L 319.825889 -9.983679 
L 325.018852 -9.983679 
L 331.27212 -14.400839 
L 326.897004 -14.400839 
L 325.83308 -13.59617 
z
M 320.111774 -12.776354 
L 324.736586 -12.776354 
L 322.427799 -11.019335 
L 320.111774 -12.776354 
z
" clip-path="url(#p46ff90b330)" style="fill: #008000"/>
   </g>
   <g id="patch_67">
    <path d="M 331.27212 8.419932 
Q 329.791588 2.855263 328.19065 0.040576 
Q 326.589713 -2.806464 324.846074 -2.806464 
Q 319.646372 -2.806464 316.609497 18.287514 
Q 313.572621 39.381491 313.572621 75.454781 
Q 313.572621 111.657481 316.609497 132.719106 
Q 319.646372 153.813084 324.846074 153.813084 
Q 326.589713 153.813084 328.19065 150.966044 
Q 329.791588 148.151357 331.27212 142.586688 
L 331.27212 111.366307 
Q 329.778209 118.742728 328.328893 122.172117 
Q 326.879576 125.601506 325.278639 125.601506 
Q 322.406763 125.601506 320.761231 112.23983 
Q 319.120159 98.910507 319.120159 75.454781 
Q 319.120159 52.096113 320.761231 38.734437 
Q 322.406763 25.405113 325.278639 25.405113 
Q 326.879576 25.405113 328.328893 28.834502 
Q 329.778209 32.296244 331.27212 39.672666 
L 331.27212 8.419932 
z
" clip-path="url(#p46ff90b330)" style="fill: #0000ff"/>
   </g>
   <g id="patch_68">
    <path d="M 331.27212 -9.334305 
Q 329.487097 -9.658992 327.567205 -9.822076 
Q 325.647313 -9.983679 323.600486 -9.983679 
Q 318.975292 -9.983679 316.273957 -9.01703 
Q 313.572621 -8.050382 313.572621 -6.397295 
Q 313.572621 -4.724934 316.321557 -3.765699 
Q 319.07446 -2.806464 323.86229 -2.806464 
Q 325.706814 -2.806464 327.396636 -2.936932 
Q 329.090425 -3.065917 330.589845 -3.320922 
L 330.589845 -4.751621 
Q 329.042824 -4.423969 327.511671 -4.262366 
Q 325.980517 -4.099282 324.44143 -4.099282 
Q 321.593326 -4.099282 320.050273 -4.695283 
Q 318.507219 -5.289801 318.507219 -6.397295 
Q 318.507219 -7.494411 319.994739 -8.093377 
Q 321.482258 -8.690861 324.219294 -8.690861 
Q 324.965037 -8.690861 325.603679 -8.656761 
Q 326.242321 -8.621179 326.750061 -8.54705 
L 326.750061 -7.203824 
L 323.834523 -7.203824 
L 323.834523 -6.007374 
L 331.27212 -6.007374 
L 331.27212 -9.334305 
z
" clip-path="url(#p46ff90b330)" style="fill: #ffa600"/>
   </g>
   <g id="patch_69">
    <path d="M 313.572621 -14.400839 
L 331.27212 -14.400839 
L 331.27212 -14.54965 
L 324.904417 -14.54965 
L 324.904417 -15.163862 
L 319.952673 -15.163862 
L 319.952673 -14.54965 
L 313.572621 -14.54965 
L 313.572621 -14.400839 
z
" clip-path="url(#p46ff90b330)" style="fill: #ff0000"/>
   </g>
   <g id="patch_70">
    <path d="M 349.903172 18.976592 
Q 348.422639 16.341324 346.821702 15.00837 
Q 345.220765 13.660093 343.477126 13.660093 
Q 338.277424 13.660093 335.240548 23.649594 
Q 332.203673 33.639095 332.203673 50.722368 
Q 332.203673 67.866926 335.240548 77.841105 
Q 338.277424 87.830607 343.477126 87.830607 
Q 345.220765 87.830607 346.821702 86.48233 
Q 348.422639 85.149375 349.903172 82.514108 
L 349.903172 67.729034 
Q 348.409261 71.222295 346.959945 72.846355 
Q 345.510628 74.470415 343.909691 74.470415 
Q 341.037814 74.470415 339.392283 68.14271 
Q 337.75121 61.830325 337.75121 50.722368 
Q 337.75121 39.660374 339.392283 33.332669 
Q 341.037814 27.020285 343.909691 27.020285 
Q 345.510628 27.020285 346.959945 28.644345 
Q 348.409261 30.283726 349.903172 33.776987 
L 349.903172 18.976592 
z
" clip-path="url(#p46ff90b330)" style="fill: #0000ff"/>
   </g>
   <g id="patch_71">
    <path d="M 349.903172 -1.114398 
Q 348.118149 -1.849264 346.198257 -2.218374 
Q 344.278365 -2.584129 342.231538 -2.584129 
Q 337.606344 -2.584129 334.905008 -0.39631 
Q 332.203673 1.791509 332.203673 5.532949 
Q 332.203673 9.31801 334.952609 11.489052 
Q 337.705512 13.660093 342.493341 13.660093 
Q 344.337866 13.660093 346.027688 13.364805 
Q 347.721477 13.072872 349.220896 12.495717 
L 349.220896 9.25761 
Q 347.673876 9.999187 346.142723 10.364942 
Q 344.611569 10.734053 343.072482 10.734053 
Q 340.224378 10.734053 338.681325 9.385121 
Q 337.138271 8.039545 337.138271 5.532949 
Q 337.138271 3.049841 338.62579 1.694198 
Q 340.11331 0.341911 342.850346 0.341911 
Q 343.596089 0.341911 344.234731 0.419089 
Q 344.873373 0.499622 345.381113 0.6674 
L 345.381113 3.707529 
L 342.465574 3.707529 
L 342.465574 6.415459 
L 349.903172 6.415459 
L 349.903172 -1.114398 
z
" clip-path="url(#p46ff90b330)" style="fill: #ffa600"/>
   </g>
   <g id="patch_72">
    <path d="M 332.203673 -2.584129 
L 349.903172 -2.584129 
L 349.903172 -5.037528 
L 343.535468 -5.037528 
L 343.535468 -15.163862 
L 338.583725 -15.163862 
L 338.583725 -5.037528 
L 332.203673 -5.037528 
L 332.203673 -2.584129 
z
" clip-path="url(#p46ff90b330)" style="fill: #ff0000"/>
   </g>
   <g id="patch_73">
    <path d="M 363.095183 -14.99502 
L 356.28824 -14.99502 
L 355.21346 -15.163862 
L 350.834725 -15.163862 
L 357.087993 -14.237021 
L 362.280956 -14.237021 
L 368.534224 -15.163862 
L 364.159107 -15.163862 
L 363.095183 -14.99502 
z
M 357.373877 -14.823001 
L 361.99869 -14.823001 
L 359.689902 -14.45433 
L 357.373877 -14.823001 
z
" clip-path="url(#p46ff90b330)" style="fill: #008000"/>
   </g>
   <g id="patch_74">
    <path d="M 368.534224 8.023173 
Q 366.7492 -0.640453 364.829308 -4.992046 
Q 362.909416 -9.304079 360.86259 -9.304079 
Q 356.237396 -9.304079 353.53606 16.488999 
Q 350.834725 42.282078 350.834725 86.391406 
Q 350.834725 131.015014 353.583661 156.610292 
Q 356.336563 182.205571 361.124393 182.205571 
Q 362.968917 182.205571 364.658739 178.724297 
Q 366.352528 175.282582 367.851948 168.478273 
L 367.851948 130.302935 
Q 366.304928 139.045681 364.773774 143.357714 
Q 363.242621 147.709307 361.703534 147.709307 
Q 358.85543 147.709307 357.312376 131.806213 
Q 355.769323 115.942678 355.769323 86.391406 
Q 355.769323 57.117054 357.256842 41.134839 
Q 358.744362 25.192185 361.481398 25.192185 
Q 362.227141 25.192185 362.865783 26.102064 
Q 363.504424 27.051502 364.012164 29.029499 
L 364.012164 64.870801 
L 361.096626 64.870801 
L 361.096626 96.795669 
L 368.534224 96.795669 
L 368.534224 8.023173 
z
" clip-path="url(#p46ff90b330)" style="fill: #ffa600"/>
   </g>
   <g id="patch_75">
    <path d="M 350.834725 -9.304079 
L 368.534224 -9.304079 
L 368.534224 -10.26614 
L 362.16652 -10.26614 
L 362.16652 -14.237021 
L 357.214777 -14.237021 
L 357.214777 -10.26614 
L 350.834725 -10.26614 
L 350.834725 -9.304079 
z
" clip-path="url(#p46ff90b330)" style="fill: #ff0000"/>
   </g>
   <g id="patch_76">
    <path d="M 387.165275 7.654208 
Q 385.684743 0.439544 384.083806 -3.209734 
Q 382.482868 -6.900958 380.739229 -6.900958 
Q 375.539527 -6.900958 372.502652 20.447654 
Q 369.465776 47.796266 369.465776 94.565748 
Q 369.465776 141.503013 372.502652 168.80968 
Q 375.539527 196.158292 380.739229 196.158292 
Q 382.482868 196.158292 384.083806 192.467068 
Q 385.684743 188.81779 387.165275 181.603125 
L 387.165275 141.125502 
Q 385.671365 150.689127 384.222048 155.135374 
Q 382.772732 159.58162 381.171794 159.58162 
Q 378.299918 159.58162 376.654386 142.258036 
Q 375.013314 124.976398 375.013314 94.565748 
Q 375.013314 64.280936 376.654386 46.957352 
Q 378.299918 29.675713 381.171794 29.675713 
Q 382.772732 29.675713 384.222048 34.12196 
Q 385.671365 38.610153 387.165275 48.173778 
L 387.165275 7.654208 
z
" clip-path="url(#p46ff90b330)" style="fill: #0000ff"/>
   </g>
   <g id="patch_77">
    <path d="M 387.165275 -14.416258 
Q 385.380252 -14.79006 383.46036 -14.977814 
Q 381.540468 -15.163862 379.493641 -15.163862 
Q 374.868447 -15.163862 372.167112 -14.05099 
Q 369.465776 -12.938118 369.465776 -11.03497 
Q 369.465776 -9.109633 372.214712 -8.005296 
Q 374.967615 -6.900958 379.755445 -6.900958 
Q 381.599969 -6.900958 383.289791 -7.051161 
Q 384.98358 -7.199658 386.483 -7.493238 
L 386.483 -9.140357 
Q 384.93598 -8.763141 383.404826 -8.577093 
Q 381.873673 -8.389339 380.334586 -8.389339 
Q 377.486482 -8.389339 375.943428 -9.075496 
Q 374.400374 -9.759947 374.400374 -11.03497 
Q 374.400374 -12.298046 375.887894 -12.987617 
Q 377.375414 -13.675481 380.112449 -13.675481 
Q 380.858193 -13.675481 381.496834 -13.636223 
Q 382.135476 -13.595259 382.643216 -13.509916 
L 382.643216 -11.963501 
L 379.727678 -11.963501 
L 379.727678 -10.586066 
L 387.165275 -10.586066 
L 387.165275 -14.416258 
z
" clip-path="url(#p46ff90b330)" style="fill: #ffa600"/>
   </g>
   <g id="patch_78">
    <path d="M 400.357287 -14.610447 
L 393.550344 -14.610447 
L 392.475563 -15.163862 
L 388.096828 -15.163862 
L 394.350096 -12.125939 
L 399.543059 -12.125939 
L 405.796327 -15.163862 
L 401.421211 -15.163862 
L 400.357287 -14.610447 
z
M 394.635981 -14.046615 
L 399.260793 -14.046615 
L 396.952006 -12.838217 
L 394.635981 -14.046615 
z
" clip-path="url(#p46ff90b330)" style="fill: #008000"/>
   </g>
   <g id="patch_79">
    <path d="M 405.796327 55.881189 
Q 404.315795 53.102598 402.714857 51.697148 
Q 401.11392 50.275544 399.370281 50.275544 
Q 394.170579 50.275544 391.133704 60.808341 
Q 388.096828 71.341138 388.096828 89.353513 
Q 388.096828 107.430507 391.133704 117.947149 
Q 394.170579 128.479947 399.370281 128.479947 
Q 401.11392 128.479947 402.714857 127.058342 
Q 404.315795 125.652892 405.796327 122.874301 
L 405.796327 107.285116 
Q 404.302416 110.968364 402.8531 112.680751 
Q 401.403783 114.393138 399.802846 114.393138 
Q 396.93097 114.393138 395.285438 107.72129 
Q 393.644366 101.065596 393.644366 89.353513 
Q 393.644366 77.689894 395.285438 71.018046 
Q 396.93097 64.362352 399.802846 64.362352 
Q 401.403783 64.362352 402.8531 66.074739 
Q 404.302416 67.803281 405.796327 71.486529 
L 405.796327 55.881189 
z
" clip-path="url(#p46ff90b330)" style="fill: #0000ff"/>
   </g>
   <g id="patch_80">
    <path d="M 405.796327 -1.970417 
Q 404.011304 -4.56907 402.091412 -5.874329 
Q 400.17152 -7.167722 398.124693 -7.167722 
Q 393.499499 -7.167722 390.798164 0.568905 
Q 388.096828 8.305531 388.096828 21.536112 
Q 388.096828 34.920951 390.845764 42.598247 
Q 393.598667 50.275544 398.386497 50.275544 
Q 400.231021 50.275544 401.920843 49.231336 
Q 403.614632 48.198995 405.114052 46.158045 
L 405.114052 34.707363 
Q 403.567031 37.329747 402.035878 38.62314 
Q 400.504724 39.928399 398.965637 39.928399 
Q 396.117533 39.928399 394.57448 35.15827 
Q 393.031426 30.400008 393.031426 21.536112 
Q 393.031426 12.755278 394.518946 7.961418 
Q 396.006465 3.179423 398.743501 3.179423 
Q 399.489244 3.179423 400.127886 3.452341 
Q 400.766528 3.737125 401.274268 4.330424 
L 401.274268 15.081013 
L 398.35873 15.081013 
L 398.35873 24.656868 
L 405.796327 24.656868 
L 405.796327 -1.970417 
z
" clip-path="url(#p46ff90b330)" style="fill: #ffa600"/>
   </g>
   <g id="patch_81">
    <path d="M 388.096828 -7.167722 
L 405.796327 -7.167722 
L 405.796327 -8.134712 
L 399.428624 -8.134712 
L 399.428624 -12.125939 
L 394.47688 -12.125939 
L 394.47688 -8.134712 
L 388.096828 -8.134712 
L 388.096828 -7.167722 
z
" clip-path="url(#p46ff90b330)" style="fill: #ff0000"/>
   </g>
   <g id="patch_82">
    <path d="M 418.988338 -6.916341 
L 412.181395 -6.916341 
L 411.106615 -8.249137 
L 406.72788 -8.249137 
L 412.981148 -0.932873 
L 418.174111 -0.932873 
L 424.427379 -8.249137 
L 420.052263 -8.249137 
L 418.988338 -6.916341 
z
M 413.267032 -5.558458 
L 417.891845 -5.558458 
L 415.583058 -2.648259 
L 413.267032 -5.558458 
z
" clip-path="url(#p46ff90b330)" style="fill: #008000"/>
   </g>
   <g id="patch_83">
    <path d="M 424.427379 -0.236538 
Q 422.946846 -0.581695 421.345909 -0.756281 
Q 419.744972 -0.932873 418.001333 -0.932873 
Q 412.801631 -0.932873 409.764755 0.375513 
Q 406.72788 1.683899 406.72788 3.921399 
Q 406.72788 6.166927 409.764755 7.473306 
Q 412.801631 8.781691 418.001333 8.781691 
Q 419.744972 8.781691 421.345909 8.605099 
Q 422.946846 8.430514 424.427379 8.085357 
L 424.427379 6.148866 
Q 422.933468 6.6064 421.484152 6.819113 
Q 420.034835 7.031826 418.433898 7.031826 
Q 415.562021 7.031826 413.91649 6.203048 
Q 412.275417 5.376276 412.275417 3.921399 
Q 412.275417 2.472543 413.91649 1.643765 
Q 415.562021 0.816993 418.433898 0.816993 
Q 420.034835 0.816993 421.484152 1.029706 
Q 422.933468 1.244426 424.427379 1.70196 
L 424.427379 -0.236538 
z
" clip-path="url(#p46ff90b330)" style="fill: #0000ff"/>
   </g>
   <g id="patch_84">
    <path d="M 424.427379 17.588669 
Q 422.642356 13.18518 420.722464 10.973382 
Q 418.802572 8.781691 416.755745 8.781691 
Q 412.130551 8.781691 409.429215 21.891621 
Q 406.72788 35.001551 406.72788 57.421139 
Q 406.72788 80.102122 409.476816 93.111515 
Q 412.229719 106.120909 417.017548 106.120909 
Q 418.862073 106.120909 420.551895 104.351471 
Q 422.245684 102.602139 423.745103 99.143692 
L 423.745103 79.740191 
Q 422.198083 84.183895 420.66693 86.375585 
Q 419.135776 88.587383 417.596689 88.587383 
Q 414.748585 88.587383 413.205532 80.504267 
Q 411.662478 72.441258 411.662478 57.421139 
Q 411.662478 42.541771 413.149997 34.418441 
Q 414.637517 26.315217 417.374553 26.315217 
Q 418.120296 26.315217 418.758938 26.777684 
Q 419.39758 27.260258 419.90532 28.265621 
L 419.90532 46.482793 
L 416.989781 46.482793 
L 416.989781 62.709347 
L 424.427379 62.709347 
L 424.427379 17.588669 
z
" clip-path="url(#p46ff90b330)" style="fill: #ffa600"/>
   </g>
   <g id="patch_85">
    <path d="M 406.72788 -8.249137 
L 424.427379 -8.249137 
L 424.427379 -9.597701 
L 418.059675 -9.597701 
L 418.059675 -15.163862 
L 413.107932 -15.163862 
L 413.107932 -9.597701 
L 406.72788 -9.597701 
L 406.72788 -8.249137 
z
" clip-path="url(#p46ff90b330)" style="fill: #ff0000"/>
   </g>
   <g id="patch_86">
    <path d="M 437.61939 -12.806733 
L 430.812447 -12.806733 
L 429.737667 -15.163862 
L 425.358932 -15.163862 
L 431.6122 -2.224609 
L 436.805163 -2.224609 
L 443.058431 -15.163862 
L 438.683314 -15.163862 
L 437.61939 -12.806733 
z
M 431.898084 -10.405234 
L 436.522897 -10.405234 
L 434.214109 -5.258373 
L 431.898084 -10.405234 
z
" clip-path="url(#p46ff90b330)" style="fill: #008000"/>
   </g>
   <g id="patch_87">
    <path d="M 443.058431 0.817793 
Q 441.577898 -0.690257 439.976961 -1.453049 
Q 438.376024 -2.224609 436.632384 -2.224609 
Q 431.432683 -2.224609 428.395807 3.491951 
Q 425.358932 9.208511 425.358932 18.98453 
Q 425.358932 28.79562 428.395807 34.503412 
Q 431.432683 40.219972 436.632384 40.219972 
Q 438.376024 40.219972 439.976961 39.448412 
Q 441.577898 38.68562 443.058431 37.17757 
L 443.058431 28.71671 
Q 441.56452 30.715753 440.115203 31.645132 
Q 438.665887 32.574512 437.06495 32.574512 
Q 434.193073 32.574512 432.547541 28.953439 
Q 430.906469 25.341134 430.906469 18.98453 
Q 430.906469 12.654229 432.547541 9.033156 
Q 434.193073 5.420851 437.06495 5.420851 
Q 438.665887 5.420851 440.115203 6.350231 
Q 441.56452 7.288378 443.058431 9.28742 
L 443.058431 0.817793 
z
" clip-path="url(#p46ff90b330)" style="fill: #0000ff"/>
   </g>
   <g id="patch_88">
    <path d="M 443.058431 47.209707 
Q 441.273407 43.714839 439.353515 41.959427 
Q 437.433623 40.219972 435.386797 40.219972 
Q 430.761603 40.219972 428.060267 50.624782 
Q 425.358932 61.029592 425.358932 78.823094 
Q 425.358932 96.824053 428.107868 107.149072 
Q 430.86077 117.47409 435.6486 117.47409 
Q 437.493124 117.47409 439.182946 116.06976 
Q 440.876735 114.681388 442.376155 111.936561 
L 442.376155 96.536804 
Q 440.829135 100.063588 439.297981 101.803042 
Q 437.766828 103.558455 436.227741 103.558455 
Q 433.379637 103.558455 431.836583 97.143219 
Q 430.29353 90.743942 430.29353 78.823094 
Q 430.29353 67.013954 431.781049 60.566802 
Q 433.268569 54.135608 436.005605 54.135608 
Q 436.751348 54.135608 437.38999 54.502649 
Q 438.028631 54.885648 438.536371 55.683563 
L 438.536371 70.14178 
L 435.620833 70.14178 
L 435.620833 83.020126 
L 443.058431 83.020126 
L 443.058431 47.209707 
z
" clip-path="url(#p46ff90b330)" style="fill: #ffa600"/>
   </g>
   <g id="patch_89">
    <path d="M 456.250442 12.145498 
L 449.443499 12.145498 
L 448.368719 7.684888 
L 443.989983 7.684888 
L 450.243251 32.171013 
L 455.436214 32.171013 
L 461.689482 7.684888 
L 457.314366 7.684888 
L 456.250442 12.145498 
z
M 450.529136 16.690072 
L 455.153949 16.690072 
L 452.845161 26.429945 
L 450.529136 16.690072 
z
" clip-path="url(#p46ff90b330)" style="fill: #008000"/>
   </g>
   <g id="patch_90">
    <path d="M 461.689482 36.927982 
Q 460.20895 34.570061 458.608013 33.377391 
Q 457.007075 32.171013 455.263436 32.171013 
Q 450.063734 32.171013 447.026859 41.10918 
Q 443.989983 50.047348 443.989983 65.332712 
Q 443.989983 80.672911 447.026859 89.59737 
Q 450.063734 98.535538 455.263436 98.535538 
Q 457.007075 98.535538 458.608013 97.329159 
Q 460.20895 96.13649 461.689482 93.778568 
L 461.689482 80.549531 
Q 460.195572 83.675148 458.746255 85.128286 
Q 457.296939 86.581424 455.696001 86.581424 
Q 452.824125 86.581424 451.178593 80.91967 
Q 449.537521 75.271626 449.537521 65.332712 
Q 449.537521 55.434925 451.178593 49.773171 
Q 452.824125 44.125127 455.696001 44.125127 
Q 457.296939 44.125127 458.746255 45.578264 
Q 460.195572 47.045111 461.689482 50.170728 
L 461.689482 36.927982 
z
" clip-path="url(#p46ff90b330)" style="fill: #0000ff"/>
   </g>
   <g id="patch_91">
    <path d="M 461.689482 -7.573398 
Q 459.904459 -8.332327 457.984567 -8.713525 
Q 456.064675 -9.091256 454.017848 -9.091256 
Q 449.392654 -9.091256 446.691319 -6.831796 
Q 443.989983 -4.572336 443.989983 -0.708382 
Q 443.989983 3.200622 446.738919 5.442755 
Q 449.491822 7.684888 454.279652 7.684888 
Q 456.124176 7.684888 457.813998 7.37993 
Q 459.507787 7.078438 461.007207 6.482384 
L 461.007207 3.138244 
Q 459.460187 3.904104 457.929033 4.281836 
Q 456.39788 4.663033 454.858793 4.663033 
Q 452.010689 4.663033 450.467635 3.269931 
Q 448.924581 1.880293 448.924581 -0.708382 
Q 448.924581 -3.2728 450.412101 -4.672834 
Q 451.899621 -6.069402 454.636656 -6.069402 
Q 455.3824 -6.069402 456.021041 -5.989697 
Q 456.659683 -5.906527 457.167423 -5.733255 
L 457.167423 -2.593576 
L 454.251885 -2.593576 
L 454.251885 0.203026 
L 461.689482 0.203026 
L 461.689482 -7.573398 
z
" clip-path="url(#p46ff90b330)" style="fill: #ffa600"/>
   </g>
   <g id="patch_92">
    <path d="M 443.989983 -9.091256 
L 461.689482 -9.091256 
L 461.689482 -10.275584 
L 455.321779 -10.275584 
L 455.321779 -15.163862 
L 450.370035 -15.163862 
L 450.370035 -10.275584 
L 443.989983 -10.275584 
L 443.989983 -9.091256 
z
" clip-path="url(#p46ff90b330)" style="fill: #ff0000"/>
   </g>
   <g id="patch_93">
    <path d="M 480.320534 -12.980037 
Q 478.840002 -14.062509 477.239064 -14.610039 
Q 475.638127 -15.163862 473.894488 -15.163862 
Q 468.694786 -15.163862 465.657911 -11.060537 
Q 462.621035 -6.957212 462.621035 0.059977 
Q 462.621035 7.10234 465.657911 11.199372 
Q 468.694786 15.302697 473.894488 15.302697 
Q 475.638127 15.302697 477.239064 14.748874 
Q 478.840002 14.201344 480.320534 13.118872 
L 480.320534 7.045699 
Q 478.826623 8.480604 477.377307 9.147709 
Q 475.92799 9.814814 474.327053 9.814814 
Q 471.455177 9.814814 469.809645 7.215622 
Q 468.168573 4.622724 468.168573 0.059977 
Q 468.168573 -4.483889 469.809645 -7.083081 
Q 471.455177 -9.675979 474.327053 -9.675979 
Q 475.92799 -9.675979 477.377307 -9.008875 
Q 478.826623 -8.335476 480.320534 -6.900571 
L 480.320534 -12.980037 
z
" clip-path="url(#p46ff90b330)" style="fill: #0000ff"/>
   </g>
   <g id="patch_94">
    <path d="M 480.320534 26.774571 
Q 478.535511 21.038634 476.615619 18.157569 
Q 474.695727 15.302697 472.6489 15.302697 
Q 468.023706 15.302697 465.322371 32.37955 
Q 462.621035 49.456404 462.621035 78.659919 
Q 462.621035 108.203924 465.369971 125.14982 
Q 468.122874 142.095716 472.910704 142.095716 
Q 474.755228 142.095716 476.44505 139.790865 
Q 478.138839 137.512205 479.638259 133.007268 
L 479.638259 107.732477 
Q 478.091238 113.520797 476.560085 116.37567 
Q 475.028931 119.256734 473.489844 119.256734 
Q 470.64174 119.256734 469.098687 108.727754 
Q 467.555633 98.224965 467.555633 78.659919 
Q 467.555633 59.278214 469.043153 48.696851 
Q 470.530672 38.141679 473.267708 38.141679 
Q 474.013451 38.141679 474.652093 38.744083 
Q 475.290735 39.372679 475.798475 40.682254 
L 475.798475 64.411747 
L 472.882937 64.411747 
L 472.882937 85.548282 
L 480.320534 85.548282 
L 480.320534 26.774571 
z
" clip-path="url(#p46ff90b330)" style="fill: #ffa600"/>
   </g>
   <g id="patch_95">
    <path d="M 498.951586 21.158267 
Q 497.471053 19.704583 495.870116 18.969289 
Q 494.269179 18.225543 492.52554 18.225543 
Q 487.325838 18.225543 484.288962 23.736023 
Q 481.252087 29.246502 481.252087 38.670098 
Q 481.252087 48.127501 484.288962 53.629529 
Q 487.325838 59.140009 492.52554 59.140009 
Q 494.269179 59.140009 495.870116 58.396263 
Q 497.471053 57.660969 498.951586 56.207284 
L 498.951586 48.051436 
Q 497.457675 49.978414 496.008359 50.874289 
Q 494.559042 51.770165 492.958105 51.770165 
Q 490.086228 51.770165 488.440697 48.279631 
Q 486.799624 44.797549 486.799624 38.670098 
Q 486.799624 32.568003 488.440697 29.077469 
Q 490.086228 25.595387 492.958105 25.595387 
Q 494.559042 25.595387 496.008359 26.491262 
Q 497.457675 27.395589 498.951586 29.322567 
L 498.951586 21.158267 
z
" clip-path="url(#p46ff90b330)" style="fill: #0000ff"/>
   </g>
   <g id="patch_96">
    <path d="M 498.951586 -7.6702 
Q 497.166563 -8.958224 495.246671 -9.605176 
Q 493.326779 -10.246247 491.279952 -10.246247 
Q 486.654758 -10.246247 483.953422 -6.411583 
Q 481.252087 -2.57692 481.252087 3.980826 
Q 481.252087 10.615029 484.001023 14.420286 
Q 486.753926 18.225543 491.541755 18.225543 
Q 493.38628 18.225543 495.076102 17.707981 
Q 496.769891 17.1963 498.26931 16.184702 
L 498.26931 10.509164 
Q 496.72229 11.808951 495.191137 12.450022 
Q 493.659983 13.096974 492.120896 13.096974 
Q 489.272792 13.096974 487.729739 10.732657 
Q 486.186685 8.374221 486.186685 3.980826 
Q 486.186685 -0.3714 487.674205 -2.74748 
Q 489.161724 -5.117678 491.89876 -5.117678 
Q 492.644503 -5.117678 493.283145 -4.982407 
Q 493.921787 -4.841253 494.429527 -4.547184 
L 494.429527 0.781352 
L 491.513988 0.781352 
L 491.513988 5.52763 
L 498.951586 5.52763 
L 498.951586 -7.6702 
z
" clip-path="url(#p46ff90b330)" style="fill: #ffa600"/>
   </g>
   <g id="patch_97">
    <path d="M 481.252087 -10.246247 
L 498.951586 -10.246247 
L 498.951586 -11.205319 
L 492.583882 -11.205319 
L 492.583882 -15.163862 
L 487.632139 -15.163862 
L 487.632139 -11.205319 
L 481.252087 -11.205319 
L 481.252087 -10.246247 
z
" clip-path="url(#p46ff90b330)" style="fill: #ff0000"/>
   </g>
   <g id="patch_98">
    <path d="M 517.582638 -12.950586 
Q 516.102105 -14.047656 514.501168 -14.60257 
Q 512.900231 -15.163862 511.156591 -15.163862 
Q 505.95689 -15.163862 502.920014 -11.005199 
Q 499.883139 -6.846536 499.883139 0.265288 
Q 499.883139 7.402626 502.920014 11.554911 
Q 505.95689 15.713574 511.156591 15.713574 
Q 512.900231 15.713574 514.501168 15.152282 
Q 516.102105 14.597368 517.582638 13.500297 
L 517.582638 7.345221 
Q 516.088727 8.799477 514.63941 9.475579 
Q 513.190094 10.151681 511.589157 10.151681 
Q 508.71728 10.151681 507.071748 7.517435 
Q 505.430676 4.889569 505.430676 0.265288 
Q 505.430676 -4.339857 507.071748 -6.974102 
Q 508.71728 -9.601969 511.589157 -9.601969 
Q 513.190094 -9.601969 514.63941 -8.925867 
Q 516.088727 -8.243387 517.582638 -6.789131 
L 517.582638 -12.950586 
z
" clip-path="url(#p46ff90b330)" style="fill: #0000ff"/>
   </g>
   <g id="patch_99">
    <path d="M 517.582638 22.584875 
Q 515.797614 19.149224 513.877722 17.423555 
Q 511.957831 15.713574 509.911004 15.713574 
Q 505.28581 15.713574 502.584474 25.942086 
Q 499.883139 36.170598 499.883139 53.662608 
Q 499.883139 71.358562 502.632075 81.508634 
Q 505.384978 91.658707 510.172807 91.658707 
Q 512.017331 91.658707 513.707153 90.278171 
Q 515.400942 88.913324 516.900362 86.215005 
L 516.900362 71.076179 
Q 515.353342 74.543206 513.822188 76.253187 
Q 512.291035 77.978856 510.751948 77.978856 
Q 507.903844 77.978856 506.36079 71.67232 
Q 504.817737 65.381471 504.817737 53.662608 
Q 504.817737 42.053561 506.305256 35.715649 
Q 507.792776 29.393424 510.529812 29.393424 
Q 511.275555 29.393424 511.914197 29.754246 
Q 512.552838 30.130755 513.060578 30.915151 
L 513.060578 45.12839 
L 510.14504 45.12839 
L 510.14504 57.788526 
L 517.582638 57.788526 
L 517.582638 22.584875 
z
" clip-path="url(#p46ff90b330)" style="fill: #ffa600"/>
   </g>
   <g id="patch_100">
    <path d="M 530.774649 -8.591382 
L 523.967706 -8.591382 
L 522.892926 -10.588939 
L 518.51419 -10.588939 
L 524.767458 0.376474 
L 529.960421 0.376474 
L 536.213689 -10.588939 
L 531.838573 -10.588939 
L 530.774649 -8.591382 
z
M 525.053343 -6.556224 
L 529.678156 -6.556224 
L 527.369368 -2.1945 
L 525.053343 -6.556224 
z
" clip-path="url(#p46ff90b330)" style="fill: #008000"/>
   </g>
   <g id="patch_101">
    <path d="M 536.213689 27.930358 
Q 534.733157 26.070808 533.13222 25.130222 
Q 531.531282 24.178825 529.787643 24.178825 
Q 524.587941 24.178825 521.551066 31.227815 
Q 518.51419 38.276806 518.51419 50.331445 
Q 518.51419 62.429329 521.551066 69.467509 
Q 524.587941 76.5165 529.787643 76.5165 
Q 531.531282 76.5165 533.13222 75.565102 
Q 534.733157 74.624516 536.213689 72.764966 
L 536.213689 62.332027 
Q 534.719779 64.797012 533.270462 65.943013 
Q 531.821146 67.089015 530.220208 67.089015 
Q 527.348332 67.089015 525.7028 62.623933 
Q 524.061728 58.169663 524.061728 50.331445 
Q 524.061728 42.525661 525.7028 38.060579 
Q 527.348332 33.606309 530.220208 33.606309 
Q 531.821146 33.606309 533.270462 34.752311 
Q 534.719779 35.909124 536.213689 38.374108 
L 536.213689 27.930358 
z
" clip-path="url(#p46ff90b330)" style="fill: #0000ff"/>
   </g>
   <g id="patch_102">
    <path d="M 536.213689 2.530043 
Q 534.428666 1.453258 532.508774 0.912408 
Q 530.588882 0.376474 528.542055 0.376474 
Q 523.916861 0.376474 521.215526 3.582244 
Q 518.51419 6.788014 518.51419 12.270274 
Q 518.51419 17.816453 521.263126 20.997639 
Q 524.016029 24.178825 528.803859 24.178825 
Q 530.648383 24.178825 532.338205 23.746144 
Q 534.031994 23.31838 535.531414 22.472686 
L 535.531414 17.72795 
Q 533.984394 18.814568 532.45324 19.350502 
Q 530.922087 19.891353 529.383 19.891353 
Q 526.534896 19.891353 524.991842 17.914789 
Q 523.448788 15.943142 523.448788 12.270274 
Q 523.448788 8.631823 524.936308 6.645426 
Q 526.423828 4.663945 529.160864 4.663945 
Q 529.906607 4.663945 530.545248 4.777032 
Q 531.18389 4.895036 531.69163 5.140877 
L 531.69163 9.595521 
L 528.776092 9.595521 
L 528.776092 13.563399 
L 536.213689 13.563399 
L 536.213689 2.530043 
z
" clip-path="url(#p46ff90b330)" style="fill: #ffa600"/>
   </g>
   <g id="patch_103">
    <path d="M 518.51419 -10.588939 
L 536.213689 -10.588939 
L 536.213689 -11.481177 
L 529.845986 -11.481177 
L 529.845986 -15.163862 
L 524.894242 -15.163862 
L 524.894242 -11.481177 
L 518.51419 -11.481177 
L 518.51419 -10.588939 
z
" clip-path="url(#p46ff90b330)" style="fill: #ff0000"/>
   </g>
   <g id="patch_104">
    <path d="M 554.844741 -12.739559 
Q 553.364209 -13.941231 551.763271 -14.549053 
Q 550.162334 -15.163862 548.418695 -15.163862 
Q 543.218993 -15.163862 540.182118 -10.608688 
Q 537.145242 -6.053514 537.145242 1.736393 
Q 537.145242 9.554245 540.182118 14.102433 
Q 543.218993 18.657607 548.418695 18.657607 
Q 550.162334 18.657607 551.763271 18.042798 
Q 553.364209 17.434976 554.844741 16.233304 
L 554.844741 9.491367 
Q 553.35083 11.084281 551.901514 11.824846 
Q 550.452197 12.565411 548.85126 12.565411 
Q 545.979384 12.565411 544.333852 9.680002 
Q 542.69278 6.801579 542.69278 1.736393 
Q 542.69278 -3.307834 544.333852 -6.193243 
Q 545.979384 -9.071666 548.85126 -9.071666 
Q 550.452197 -9.071666 551.901514 -8.331101 
Q 553.35083 -7.583549 554.844741 -5.990636 
L 554.844741 -12.739559 
z
" clip-path="url(#p46ff90b330)" style="fill: #0000ff"/>
   </g>
   <g id="patch_105">
    <path d="M 554.844741 25.280713 
Q 553.059718 21.96916 551.139826 20.305823 
Q 549.219934 18.657607 547.173107 18.657607 
Q 542.547913 18.657607 539.846578 28.516659 
Q 537.145242 38.375711 537.145242 55.235899 
Q 537.145242 72.292664 539.894178 82.07611 
Q 542.647081 91.859555 547.434911 91.859555 
Q 549.279435 91.859555 550.969257 90.528886 
Q 552.663046 89.213337 554.162466 86.612483 
L 554.162466 72.020482 
Q 552.615445 75.362277 551.084292 77.010493 
Q 549.553138 78.67383 548.014052 78.67383 
Q 545.165947 78.67383 543.622894 72.595089 
Q 542.07984 66.53147 542.07984 55.235899 
Q 542.07984 44.046178 543.56736 37.937195 
Q 545.054879 31.843333 547.791915 31.843333 
Q 548.537658 31.843333 549.1763 32.191122 
Q 549.814942 32.554032 550.322682 33.310094 
L 550.322682 47.009942 
L 547.407144 47.009942 
L 547.407144 59.212787 
L 554.844741 59.212787 
L 554.844741 25.280713 
z
" clip-path="url(#p46ff90b330)" style="fill: #ffa600"/>
   </g>
   <g id="patch_106">
    <path d="M 568.036752 -14.105835 
L 561.22981 -14.105835 
L 560.155029 -15.163862 
L 555.776294 -15.163862 
L 562.029562 -9.355918 
L 567.222525 -9.355918 
L 573.475793 -15.163862 
L 569.100677 -15.163862 
L 568.036752 -14.105835 
z
M 562.315446 -13.027893 
L 566.940259 -13.027893 
L 564.631472 -10.717661 
L 562.315446 -13.027893 
z
" clip-path="url(#p46ff90b330)" style="fill: #008000"/>
   </g>
   <g id="patch_107">
    <path d="M 573.475793 -8.639449 
Q 571.99526 -8.994586 570.394323 -9.17422 
Q 568.793386 -9.355918 567.049747 -9.355918 
Q 561.850045 -9.355918 558.813169 -8.0097 
Q 555.776294 -6.663482 555.776294 -4.361284 
Q 555.776294 -2.050828 558.813169 -0.706674 
Q 561.850045 0.639544 567.049747 0.639544 
Q 568.793386 0.639544 570.394323 0.457845 
Q 571.99526 0.278212 573.475793 -0.076925 
L 573.475793 -2.06941 
Q 571.981882 -1.598647 570.532566 -1.379783 
Q 569.083249 -1.16092 567.482312 -1.16092 
Q 564.610435 -1.16092 562.964904 -2.013662 
Q 561.323831 -2.86434 561.323831 -4.361284 
Q 561.323831 -5.852035 562.964904 -6.704777 
Q 564.610435 -7.555455 567.482312 -7.555455 
Q 569.083249 -7.555455 570.532566 -7.336591 
Q 571.981882 -7.115663 573.475793 -6.644899 
L 573.475793 -8.639449 
z
" clip-path="url(#p46ff90b330)" style="fill: #0000ff"/>
   </g>
   <g id="patch_108">
    <path d="M 573.475793 5.867866 
Q 571.69077 3.253705 569.770878 1.940656 
Q 567.850986 0.639544 565.804159 0.639544 
Q 561.178965 0.639544 558.477629 8.422343 
Q 555.776294 16.205143 555.776294 29.514686 
Q 555.776294 42.979407 558.52523 50.702523 
Q 561.278133 58.425639 566.065962 58.425639 
Q 567.910487 58.425639 569.600309 57.3752 
Q 571.294098 56.336697 572.793517 54.283566 
L 572.793517 42.764545 
Q 571.246497 45.40258 569.715344 46.703692 
Q 568.18419 48.016741 566.645103 48.016741 
Q 563.796999 48.016741 562.253946 43.218144 
Q 560.710892 38.431483 560.710892 29.514686 
Q 560.710892 20.681447 562.198412 15.858976 
Q 563.685931 11.048442 566.422967 11.048442 
Q 567.16871 11.048442 567.807352 11.322988 
Q 568.445994 11.609472 568.953734 12.206312 
L 568.953734 23.021062 
L 566.038195 23.021062 
L 566.038195 32.654067 
L 573.475793 32.654067 
L 573.475793 5.867866 
z
" clip-path="url(#p46ff90b330)" style="fill: #ffa600"/>
   </g>
   <g id="patch_109">
    <path d="M 586.667804 -15.119256 
L 579.860861 -15.119256 
L 578.786081 -15.163862 
L 574.407346 -15.163862 
L 580.660614 -14.919001 
L 585.853577 -14.919001 
L 592.106845 -15.163862 
L 587.731728 -15.163862 
L 586.667804 -15.119256 
z
M 580.946498 -15.07381 
L 585.571311 -15.07381 
L 583.262523 -14.976412 
L 580.946498 -15.07381 
z
" clip-path="url(#p46ff90b330)" style="fill: #008000"/>
   </g>
   <g id="patch_110">
    <path d="M 592.106845 38.373676 
Q 590.626312 35.970559 589.025375 34.755029 
Q 587.424438 33.525527 585.680798 33.525527 
Q 580.481097 33.525527 577.444221 42.635017 
Q 574.407346 51.744507 574.407346 67.322853 
Q 574.407346 82.957086 577.444221 92.052604 
Q 580.481097 101.162095 585.680798 101.162095 
Q 587.424438 101.162095 589.025375 99.932593 
Q 590.626312 98.717063 592.106845 96.313946 
L 592.106845 82.831341 
Q 590.612934 86.016869 589.163617 87.497859 
Q 587.714301 88.97885 586.113364 88.97885 
Q 583.241487 88.97885 581.595955 83.208575 
Q 579.954883 77.452271 579.954883 67.322853 
Q 579.954883 57.23535 581.595955 51.465075 
Q 583.241487 45.708772 586.113364 45.708772 
Q 587.714301 45.708772 589.163617 47.189762 
Q 590.612934 48.684725 592.106845 51.870252 
L 592.106845 38.373676 
z
" clip-path="url(#p46ff90b330)" style="fill: #0000ff"/>
   </g>
   <g id="patch_111">
    <path d="M 592.106845 -10.535877 
Q 590.321821 -12.727439 588.401929 -13.828224 
Q 586.482038 -14.919001 584.435211 -14.919001 
Q 579.810017 -14.919001 577.108681 -8.394351 
Q 574.407346 -1.8697 574.407346 9.288252 
Q 574.407346 20.576298 577.156282 27.050912 
Q 579.909185 33.525527 584.697014 33.525527 
Q 586.541538 33.525527 588.23136 32.644899 
Q 589.925149 31.774279 591.424569 30.053052 
L 591.424569 20.396169 
Q 589.877549 22.607746 588.346395 23.698523 
Q 586.815242 24.799308 585.276155 24.799308 
Q 582.428051 24.799308 580.884997 20.77644 
Q 579.341944 16.76358 579.341944 9.288252 
Q 579.341944 1.882974 580.829463 -2.159907 
Q 582.316983 -6.192782 585.054019 -6.192782 
Q 585.799762 -6.192782 586.438404 -5.962618 
Q 587.077045 -5.722446 587.584785 -5.22209 
L 587.584785 3.844372 
L 584.669247 3.844372 
L 584.669247 11.920128 
L 592.106845 11.920128 
L 592.106845 -10.535877 
z
" clip-path="url(#p46ff90b330)" style="fill: #ffa600"/>
   </g>
   <g id="patch_112">
    <path d="M 605.298856 -14.291924 
L 598.491913 -14.291924 
L 597.417133 -15.163862 
L 593.038397 -15.163862 
L 599.291665 -10.377435 
L 604.484628 -10.377435 
L 610.737896 -15.163862 
L 606.36278 -15.163862 
L 605.298856 -14.291924 
z
M 599.57755 -13.403573 
L 604.202363 -13.403573 
L 601.893575 -11.49967 
L 599.57755 -13.403573 
z
" clip-path="url(#p46ff90b330)" style="fill: #008000"/>
   </g>
   <g id="patch_113">
    <path d="M 610.737896 17.761806 
Q 609.257364 16.350394 607.656427 15.636483 
Q 606.055489 14.914365 604.31185 14.914365 
Q 599.112148 14.914365 596.075273 20.264601 
Q 593.038397 25.614837 593.038397 34.764397 
Q 593.038397 43.94678 596.075273 49.28881 
Q 599.112148 54.639046 604.31185 54.639046 
Q 606.055489 54.639046 607.656427 53.916928 
Q 609.257364 53.203017 610.737896 51.791605 
L 610.737896 43.872927 
Q 609.243986 45.743869 607.794669 46.613692 
Q 606.345353 47.483516 604.744415 47.483516 
Q 601.872539 47.483516 600.227007 44.094486 
Q 598.585935 40.713662 598.585935 34.764397 
Q 598.585935 28.839749 600.227007 25.450719 
Q 601.872539 22.069895 604.744415 22.069895 
Q 606.345353 22.069895 607.794669 22.939719 
Q 609.243986 23.817748 610.737896 25.68869 
L 610.737896 17.761806 
z
" clip-path="url(#p46ff90b330)" style="fill: #0000ff"/>
   </g>
   <g id="patch_114">
    <path d="M 610.737896 -0.637628 
Q 608.952873 -1.411166 607.032981 -1.799701 
Q 605.113089 -2.184703 603.066262 -2.184703 
Q 598.441068 -2.184703 595.739733 0.118249 
Q 593.038397 2.421201 593.038397 6.359532 
Q 593.038397 10.343781 595.787333 12.629073 
Q 598.540236 14.914365 603.328066 14.914365 
Q 605.17259 14.914365 606.862412 14.603537 
Q 608.556201 14.296241 610.055621 13.688714 
L 610.055621 10.280203 
Q 608.508601 11.060805 606.977447 11.445808 
Q 605.446294 11.834343 603.907207 11.834343 
Q 601.059103 11.834343 599.516049 10.414424 
Q 597.972995 8.998038 597.972995 6.359532 
Q 597.972995 3.745752 599.460515 2.318769 
Q 600.948035 0.895319 603.685071 0.895319 
Q 604.430814 0.895319 605.069455 0.976558 
Q 605.708097 1.061329 606.215837 1.237936 
L 606.215837 4.438051 
L 603.300299 4.438051 
L 603.300299 7.288484 
L 610.737896 7.288484 
L 610.737896 -0.637628 
z
" clip-path="url(#p46ff90b330)" style="fill: #ffa600"/>
   </g>
   <g id="patch_115">
    <path d="M 593.038397 -2.184703 
L 610.737896 -2.184703 
L 610.737896 -3.782514 
L 604.370193 -3.782514 
L 604.370193 -10.377435 
L 599.418449 -10.377435 
L 599.418449 -3.782514 
L 593.038397 -3.782514 
L 593.038397 -2.184703 
z
" clip-path="url(#p46ff90b330)" style="fill: #ff0000"/>
   </g>
   <g id="patch_116">
    <path d="M 629.368948 -15.076277 
Q 627.888416 -15.119691 626.287478 -15.14165 
Q 624.686541 -15.163862 622.942902 -15.163862 
Q 617.7432 -15.163862 614.706325 -14.999293 
Q 611.669449 -14.834723 611.669449 -14.553289 
Q 611.669449 -14.270846 614.706325 -14.106529 
Q 617.7432 -13.94196 622.942902 -13.94196 
Q 624.686541 -13.94196 626.287478 -13.964172 
Q 627.888416 -13.986131 629.368948 -14.029545 
L 629.368948 -14.273118 
Q 627.875037 -14.215569 626.425721 -14.188814 
Q 624.976404 -14.162059 623.375467 -14.162059 
Q 620.503591 -14.162059 618.858059 -14.266303 
Q 617.216987 -14.370294 617.216987 -14.553289 
Q 617.216987 -14.735527 618.858059 -14.839771 
Q 620.503591 -14.943763 623.375467 -14.943763 
Q 624.976404 -14.943763 626.425721 -14.917008 
Q 627.875037 -14.89 629.368948 -14.832452 
L 629.368948 -15.076277 
z
" clip-path="url(#p46ff90b330)" style="fill: #0000ff"/>
   </g>
   <g id="patch_117">
    <path d="M 629.368948 3.685649 
Q 627.583925 -4.320995 625.664033 -8.342596 
Q 623.744141 -12.327638 621.697314 -12.327638 
Q 617.07212 -12.327638 614.370785 11.509492 
Q 611.669449 35.346621 611.669449 76.111038 
Q 611.669449 117.350735 614.418385 141.005064 
Q 617.171288 164.659394 621.959118 164.659394 
Q 623.803642 164.659394 625.493464 161.442113 
Q 627.187253 158.261391 628.686673 151.973069 
L 628.686673 116.692654 
Q 627.139652 124.772418 625.608499 128.757459 
Q 624.077345 132.779061 622.538259 132.779061 
Q 619.690154 132.779061 618.147101 118.081935 
Q 616.604047 103.421369 616.604047 76.111038 
Q 616.604047 49.056627 618.091567 34.286381 
Q 619.579086 19.552695 622.316122 19.552695 
Q 623.061865 19.552695 623.700507 20.393575 
Q 624.339149 21.271016 624.846889 23.099016 
L 624.846889 56.22239 
L 621.931351 56.22239 
L 621.931351 85.726322 
L 629.368948 85.726322 
L 629.368948 3.685649 
z
" clip-path="url(#p46ff90b330)" style="fill: #ffa600"/>
   </g>
   <g id="patch_118">
    <path d="M 611.669449 -12.327638 
L 629.368948 -12.327638 
L 629.368948 -12.642476 
L 623.001245 -12.642476 
L 623.001245 -13.94196 
L 618.049501 -13.94196 
L 618.049501 -12.642476 
L 611.669449 -12.642476 
L 611.669449 -12.327638 
z
" clip-path="url(#p46ff90b330)" style="fill: #ff0000"/>
   </g>
   <g id="patch_119">
    <path d="M 642.560959 -15.075915 
L 635.754017 -15.075915 
L 634.679236 -15.163862 
L 630.300501 -15.163862 
L 636.553769 -14.681085 
L 641.746732 -14.681085 
L 648 -15.163862 
L 643.624884 -15.163862 
L 642.560959 -15.075915 
z
M 636.839653 -14.986313 
L 641.464466 -14.986313 
L 639.155679 -14.794278 
L 636.839653 -14.986313 
z
" clip-path="url(#p46ff90b330)" style="fill: #008000"/>
   </g>
   <g id="patch_120">
    <path d="M 648 13.086709 
Q 646.519467 8.963741 644.91853 6.878287 
Q 643.317593 4.768861 641.573954 4.768861 
Q 636.374252 4.768861 633.337376 20.397786 
Q 630.300501 36.02671 630.300501 62.754088 
Q 630.300501 89.577349 633.337376 105.182303 
Q 636.374252 120.811227 641.573954 120.811227 
Q 643.317593 120.811227 644.91853 118.701802 
Q 646.519467 116.616347 648 112.493379 
L 648 89.361613 
Q 646.506089 94.826942 645.056773 97.367841 
Q 643.607456 99.90874 642.006519 99.90874 
Q 639.134642 99.90874 637.489111 90.008823 
Q 635.848038 80.132877 635.848038 62.754088 
Q 635.848038 45.447212 637.489111 35.547295 
Q 639.134642 25.671349 642.006519 25.671349 
Q 643.607456 25.671349 645.056773 28.212248 
Q 646.506089 30.777117 648 36.242447 
L 648 13.086709 
z
" clip-path="url(#p46ff90b330)" style="fill: #0000ff"/>
   </g>
   <g id="patch_121">
    <path d="M 648 -5.145714 
Q 646.214977 -5.638853 644.295085 -5.886548 
Q 642.375193 -6.131992 640.328366 -6.131992 
Q 635.703172 -6.131992 633.001836 -4.663833 
Q 630.300501 -3.195675 630.300501 -0.684943 
Q 630.300501 1.855062 633.049437 3.311961 
Q 635.80234 4.768861 640.590169 4.768861 
Q 642.434694 4.768861 644.124516 4.570705 
Q 645.818305 4.3748 647.317724 3.987495 
L 647.317724 1.81453 
Q 645.770704 2.312172 644.239551 2.557616 
Q 642.708397 2.805312 641.16931 2.805312 
Q 638.321206 2.805312 636.778153 1.900097 
Q 635.235099 0.997135 635.235099 -0.684943 
Q 635.235099 -2.351258 636.722619 -3.260976 
Q 638.210138 -4.168442 640.947174 -4.168442 
Q 641.692917 -4.168442 642.331559 -4.116651 
Q 642.970201 -4.062609 643.477941 -3.95002 
L 643.477941 -1.90991 
L 640.562402 -1.90991 
L 640.562402 -0.092726 
L 648 -0.092726 
L 648 -5.145714 
z
" clip-path="url(#p46ff90b330)" style="fill: #ffa600"/>
   </g>
   <g id="patch_122">
    <path d="M 630.300501 -6.131992 
L 648 -6.131992 
L 648 -7.799303 
L 641.632296 -7.799303 
L 641.632296 -14.681085 
L 636.680553 -14.681085 
L 636.680553 -7.799303 
L 630.300501 -7.799303 
L 630.300501 -6.131992 
z
" clip-path="url(#p46ff90b330)" style="fill: #ff0000"/>
   </g>
   <g id="matplotlib.axis_1">
    <g id="xtick_1">
     <g id="line2d_2">
      <defs>
       <path id="me3c654ba52" d="M 0 0 
L 0 3.5 
" style="stroke: #000000; stroke-width: 0.8"/>
      </defs>
      <g>
       <use xlink:href="#me3c654ba52" x="98.84975" y="192.24" style="stroke: #000000; stroke-width: 0.8"/>
      </g>
     </g>
     <g id="text_1">
      <!-- 0 -->
      <g transform="translate(95.6685 206.838437) scale(0.1 -0.1)">
       <defs>
        <path id="DejaVuSans-30" d="M 2034 4250 
Q 1547 4250 1301 3770 
Q 1056 3291 1056 2328 
Q 1056 1369 1301 889 
Q 1547 409 2034 409 
Q 2525 409 2770 889 
Q 3016 1369 3016 2328 
Q 3016 3291 2770 3770 
Q 2525 4250 2034 4250 
z
M 2034 4750 
Q 2819 4750 3233 4129 
Q 3647 3509 3647 2328 
Q 3647 1150 3233 529 
Q 2819 -91 2034 -91 
Q 1250 -91 836 529 
Q 422 1150 422 2328 
Q 422 3509 836 4129 
Q 1250 4750 2034 4750 
z
" transform="scale(0.015625)"/>
       </defs>
       <use xlink:href="#DejaVuSans-30"/>
      </g>
     </g>
    </g>
    <g id="xtick_2">
     <g id="line2d_3">
      <g>
       <use xlink:href="#me3c654ba52" x="192.005008" y="192.24" style="stroke: #000000; stroke-width: 0.8"/>
      </g>
     </g>
     <g id="text_2">
      <!-- 5 -->
      <g transform="translate(188.823758 206.838437) scale(0.1 -0.1)">
       <defs>
        <path id="DejaVuSans-35" d="M 691 4666 
L 3169 4666 
L 3169 4134 
L 1269 4134 
L 1269 2991 
Q 1406 3038 1543 3061 
Q 1681 3084 1819 3084 
Q 2600 3084 3056 2656 
Q 3513 2228 3513 1497 
Q 3513 744 3044 326 
Q 2575 -91 1722 -91 
Q 1428 -91 1123 -41 
Q 819 9 494 109 
L 494 744 
Q 775 591 1075 516 
Q 1375 441 1709 441 
Q 2250 441 2565 725 
Q 2881 1009 2881 1497 
Q 2881 1984 2565 2268 
Q 2250 2553 1709 2553 
Q 1456 2553 1204 2497 
Q 953 2441 691 2322 
L 691 4666 
z
" transform="scale(0.015625)"/>
       </defs>
       <use xlink:href="#DejaVuSans-35"/>
      </g>
     </g>
    </g>
    <g id="xtick_3">
     <g id="line2d_4">
      <g>
       <use xlink:href="#me3c654ba52" x="285.160267" y="192.24" style="stroke: #000000; stroke-width: 0.8"/>
      </g>
     </g>
     <g id="text_3">
      <!-- 10 -->
      <g transform="translate(278.797767 206.838437) scale(0.1 -0.1)">
       <defs>
        <path id="DejaVuSans-31" d="M 794 531 
L 1825 531 
L 1825 4091 
L 703 3866 
L 703 4441 
L 1819 4666 
L 2450 4666 
L 2450 531 
L 3481 531 
L 3481 0 
L 794 0 
L 794 531 
z
" transform="scale(0.015625)"/>
       </defs>
       <use xlink:href="#DejaVuSans-31"/>
       <use xlink:href="#DejaVuSans-30" x="63.623047"/>
      </g>
     </g>
    </g>
    <g id="xtick_4">
     <g id="line2d_5">
      <g>
       <use xlink:href="#me3c654ba52" x="378.315526" y="192.24" style="stroke: #000000; stroke-width: 0.8"/>
      </g>
     </g>
     <g id="text_4">
      <!-- 15 -->
      <g transform="translate(371.953026 206.838437) scale(0.1 -0.1)">
       <use xlink:href="#DejaVuSans-31"/>
       <use xlink:href="#DejaVuSans-35" x="63.623047"/>
      </g>
     </g>
    </g>
    <g id="xtick_5">
     <g id="line2d_6">
      <g>
       <use xlink:href="#me3c654ba52" x="471.470785" y="192.24" style="stroke: #000000; stroke-width: 0.8"/>
      </g>
     </g>
     <g id="text_5">
      <!-- 20 -->
      <g transform="translate(465.108285 206.838437) scale(0.1 -0.1)">
       <defs>
        <path id="DejaVuSans-32" d="M 1228 531 
L 3431 531 
L 3431 0 
L 469 0 
L 469 531 
Q 828 903 1448 1529 
Q 2069 2156 2228 2338 
Q 2531 2678 2651 2914 
Q 2772 3150 2772 3378 
Q 2772 3750 2511 3984 
Q 2250 4219 1831 4219 
Q 1534 4219 1204 4116 
Q 875 4013 500 3803 
L 500 4441 
Q 881 4594 1212 4672 
Q 1544 4750 1819 4750 
Q 2544 4750 2975 4387 
Q 3406 4025 3406 3419 
Q 3406 3131 3298 2873 
Q 3191 2616 2906 2266 
Q 2828 2175 2409 1742 
Q 1991 1309 1228 531 
z
" transform="scale(0.015625)"/>
       </defs>
       <use xlink:href="#DejaVuSans-32"/>
       <use xlink:href="#DejaVuSans-30" x="63.623047"/>
      </g>
     </g>
    </g>
    <g id="xtick_6">
     <g id="line2d_7">
      <g>
       <use xlink:href="#me3c654ba52" x="564.626043" y="192.24" style="stroke: #000000; stroke-width: 0.8"/>
      </g>
     </g>
     <g id="text_6">
      <!-- 25 -->
      <g transform="translate(558.263543 206.838437) scale(0.1 -0.1)">
       <use xlink:href="#DejaVuSans-32"/>
       <use xlink:href="#DejaVuSans-35" x="63.623047"/>
      </g>
     </g>
    </g>
   </g>
   <g id="matplotlib.axis_2">
    <g id="ytick_1">
     <g id="line2d_8">
      <defs>
       <path id="m7db356f090" d="M 0 0 
L -3.5 0 
" style="stroke: #000000; stroke-width: 0.8"/>
      </defs>
      <g>
       <use xlink:href="#m7db356f090" x="90" y="158.938519" style="stroke: #000000; stroke-width: 0.8"/>
      </g>
     </g>
     <g id="text_7">
      <!-- 0.005 -->
      <g transform="translate(45.992188 162.737738) scale(0.1 -0.1)">
       <defs>
        <path id="DejaVuSans-2212" d="M 678 2272 
L 4684 2272 
L 4684 1741 
L 678 1741 
L 678 2272 
z
" transform="scale(0.015625)"/>
        <path id="DejaVuSans-2e" d="M 684 794 
L 1344 794 
L 1344 0 
L 684 0 
L 684 794 
z
" transform="scale(0.015625)"/>
       </defs>
       <use xlink:href="#DejaVuSans-2212"/>
       <use xlink:href="#DejaVuSans-30" x="83.789062"/>
       <use xlink:href="#DejaVuSans-2e" x="147.412109"/>
       <use xlink:href="#DejaVuSans-30" x="179.199219"/>
       <use xlink:href="#DejaVuSans-30" x="242.822266"/>
       <use xlink:href="#DejaVuSans-35" x="306.445312"/>
      </g>
     </g>
    </g>
    <g id="ytick_2">
     <g id="line2d_9">
      <g>
       <use xlink:href="#m7db356f090" x="90" y="124.118043" style="stroke: #000000; stroke-width: 0.8"/>
      </g>
     </g>
     <g id="text_8">
      <!-- 0.004 -->
      <g transform="translate(45.992188 127.917262) scale(0.1 -0.1)">
       <defs>
        <path id="DejaVuSans-34" d="M 2419 4116 
L 825 1625 
L 2419 1625 
L 2419 4116 
z
M 2253 4666 
L 3047 4666 
L 3047 1625 
L 3713 1625 
L 3713 1100 
L 3047 1100 
L 3047 0 
L 2419 0 
L 2419 1100 
L 313 1100 
L 313 1709 
L 2253 4666 
z
" transform="scale(0.015625)"/>
       </defs>
       <use xlink:href="#DejaVuSans-2212"/>
       <use xlink:href="#DejaVuSans-30" x="83.789062"/>
       <use xlink:href="#DejaVuSans-2e" x="147.412109"/>
       <use xlink:href="#DejaVuSans-30" x="179.199219"/>
       <use xlink:href="#DejaVuSans-30" x="242.822266"/>
       <use xlink:href="#DejaVuSans-34" x="306.445312"/>
      </g>
     </g>
    </g>
    <g id="ytick_3">
     <g id="line2d_10">
      <g>
       <use xlink:href="#m7db356f090" x="90" y="89.297567" style="stroke: #000000; stroke-width: 0.8"/>
      </g>
     </g>
     <g id="text_9">
      <!-- 0.003 -->
      <g transform="translate(45.992188 93.096786) scale(0.1 -0.1)">
       <defs>
        <path id="DejaVuSans-33" d="M 2597 2516 
Q 3050 2419 3304 2112 
Q 3559 1806 3559 1356 
Q 3559 666 3084 287 
Q 2609 -91 1734 -91 
Q 1441 -91 1130 -33 
Q 819 25 488 141 
L 488 750 
Q 750 597 1062 519 
Q 1375 441 1716 441 
Q 2309 441 2620 675 
Q 2931 909 2931 1356 
Q 2931 1769 2642 2001 
Q 2353 2234 1838 2234 
L 1294 2234 
L 1294 2753 
L 1863 2753 
Q 2328 2753 2575 2939 
Q 2822 3125 2822 3475 
Q 2822 3834 2567 4026 
Q 2313 4219 1838 4219 
Q 1578 4219 1281 4162 
Q 984 4106 628 3988 
L 628 4550 
Q 988 4650 1302 4700 
Q 1616 4750 1894 4750 
Q 2613 4750 3031 4423 
Q 3450 4097 3450 3541 
Q 3450 3153 3228 2886 
Q 3006 2619 2597 2516 
z
" transform="scale(0.015625)"/>
       </defs>
       <use xlink:href="#DejaVuSans-2212"/>
       <use xlink:href="#DejaVuSans-30" x="83.789062"/>
       <use xlink:href="#DejaVuSans-2e" x="147.412109"/>
       <use xlink:href="#DejaVuSans-30" x="179.199219"/>
       <use xlink:href="#DejaVuSans-30" x="242.822266"/>
       <use xlink:href="#DejaVuSans-33" x="306.445312"/>
      </g>
     </g>
    </g>
    <g id="ytick_4">
     <g id="line2d_11">
      <g>
       <use xlink:href="#m7db356f090" x="90" y="54.477091" style="stroke: #000000; stroke-width: 0.8"/>
      </g>
     </g>
     <g id="text_10">
      <!-- 0.002 -->
      <g transform="translate(45.992188 58.276309) scale(0.1 -0.1)">
       <use xlink:href="#DejaVuSans-2212"/>
       <use xlink:href="#DejaVuSans-30" x="83.789062"/>
       <use xlink:href="#DejaVuSans-2e" x="147.412109"/>
       <use xlink:href="#DejaVuSans-30" x="179.199219"/>
       <use xlink:href="#DejaVuSans-30" x="242.822266"/>
       <use xlink:href="#DejaVuSans-32" x="306.445312"/>
      </g>
     </g>
    </g>
   </g>
  </g>
 </g>
 <defs>
  <clipPath id="p46ff90b330">
   <rect x="90" y="25.92" width="558" height="166.32"/>
  </clipPath>
 </defs>
</svg>
