<?xml version="1.0" encoding="utf-8" standalone="no"?>
<!DOCTYPE svg PUBLIC "-//W3C//DTD SVG 1.1//EN"
  "http://www.w3.org/Graphics/SVG/1.1/DTD/svg11.dtd">
<svg xmlns:xlink="http://www.w3.org/1999/xlink" width="720pt" height="216pt" viewBox="0 0 720 216" xmlns="http://www.w3.org/2000/svg" version="1.1">
 <metadata>
  <rdf:RDF xmlns:dc="http://purl.org/dc/elements/1.1/" xmlns:cc="http://creativecommons.org/ns#" xmlns:rdf="http://www.w3.org/1999/02/22-rdf-syntax-ns#">
   <cc:Work>
    <dc:type rdf:resource="http://purl.org/dc/dcmitype/StillImage"/>
    <dc:date>2024-11-23T04:44:20.356389</dc:date>
    <dc:format>image/svg+xml</dc:format>
    <dc:creator>
     <cc:Agent>
      <dc:title>Matplotlib v3.7.2, https://matplotlib.org/</dc:title>
     </cc:Agent>
    </dc:creator>
   </cc:Work>
  </rdf:RDF>
 </metadata>
 <defs>
  <style type="text/css">*{stroke-linejoin: round; stroke-linecap: butt}</style>
 </defs>
 <g id="figure_1">
  <g id="patch_1">
   <path d="M 0 216 
L 720 216 
L 720 0 
L 0 0 
z
" style="fill: #ffffff"/>
  </g>
  <g id="axes_1">
   <g id="patch_2">
    <path d="M 90 192.24 
L 648 192.24 
L 648 25.92 
L 90 25.92 
z
" style="fill: #ffffff"/>
   </g>
   <g id="line2d_1">
    <path d="M 90 18.078443 
L 648 18.078443 
" clip-path="url(#ped67bb2978)" style="fill: none; stroke: #000000; stroke-width: 0.5; stroke-linecap: square"/>
   </g>
   <g id="patch_3">
    <path d="M 118.355269 17.989669 
L 102.612571 17.989669 
L 100.126882 18.078443 
L 90 18.078443 
L 104.462192 17.591125 
L 116.472171 17.591125 
L 130.934363 18.078443 
L 120.81585 18.078443 
L 118.355269 17.989669 
z
M 105.123368 17.899224 
L 115.819364 17.899224 
L 110.479735 17.705382 
L 105.123368 17.899224 
z
" clip-path="url(#ped67bb2978)" style="fill: #008000"/>
   </g>
   <g id="patch_4">
    <path d="M 90 16.746493 
L 130.934363 16.746493 
L 130.934363 16.91122 
L 116.207512 16.91122 
L 116.207512 17.591125 
L 104.75541 17.591125 
L 104.75541 16.91122 
L 90 16.91122 
L 90 16.746493 
z
" clip-path="url(#ped67bb2978)" style="fill: #ff0000"/>
   </g>
   <g id="patch_5">
    <path d="M 130.934363 15.897313 
Q 126.806065 16.321903 122.365852 16.535167 
Q 117.925639 16.746493 113.191858 16.746493 
Q 102.49498 16.746493 96.24749 15.482417 
Q 90 14.21834 90 12.056615 
Q 90 9.869685 96.357578 8.615302 
Q 102.72433 7.36092 113.797341 7.36092 
Q 118.063249 7.36092 121.97137 7.531531 
Q 125.888666 7.700204 129.356436 8.033672 
L 129.356436 9.904583 
Q 125.778578 9.476115 122.237416 9.26479 
Q 118.696254 9.051525 115.136745 9.051525 
Q 108.549817 9.051525 104.981133 9.83091 
Q 101.412449 10.608355 101.412449 12.056615 
Q 101.412449 13.491303 104.852697 14.274565 
Q 108.292945 15.055888 114.623001 15.055888 
Q 116.347712 15.055888 117.824725 15.011296 
Q 119.301738 14.964766 120.476009 14.867827 
L 120.476009 13.111304 
L 113.733123 13.111304 
L 113.733123 11.546719 
L 130.934363 11.546719 
L 130.934363 15.897313 
z
" clip-path="url(#ped67bb2978)" style="fill: #ffa600"/>
   </g>
   <g id="patch_6">
    <path d="M 161.444072 17.687753 
L 145.701374 17.687753 
L 143.215685 18.078443 
L 133.088803 18.078443 
L 147.550995 15.933784 
L 159.560974 15.933784 
L 174.023166 18.078443 
L 163.904653 18.078443 
L 161.444072 17.687753 
z
M 148.212171 17.289709 
L 158.908167 17.289709 
L 153.568539 16.436625 
L 148.212171 17.289709 
z
" clip-path="url(#ped67bb2978)" style="fill: #008000"/>
   </g>
   <g id="patch_7">
    <path d="M 174.023166 15.423483 
Q 169.894869 15.678633 165.454655 15.806791 
Q 161.014442 15.933784 156.280661 15.933784 
Q 145.583783 15.933784 139.336293 15.174157 
Q 133.088803 14.414531 133.088803 13.115476 
Q 133.088803 11.801275 139.446381 11.047474 
Q 145.813133 10.293672 156.886145 10.293672 
Q 161.152052 10.293672 165.060174 10.396199 
Q 168.977469 10.49756 172.445239 10.697952 
L 172.445239 11.822246 
Q 168.867381 11.564765 165.326219 11.437773 
Q 161.785058 11.309615 158.225548 11.309615 
Q 151.63862 11.309615 148.069936 11.777974 
Q 144.501252 12.245167 144.501252 13.115476 
Q 144.501252 13.977629 147.9415 14.448318 
Q 151.381748 14.917841 157.711804 14.917841 
Q 159.436515 14.917841 160.913528 14.891045 
Q 162.390541 14.863083 163.564812 14.80483 
L 163.564812 13.749275 
L 156.821927 13.749275 
L 156.821927 12.809062 
L 174.023166 12.809062 
L 174.023166 15.423483 
z
" clip-path="url(#ped67bb2978)" style="fill: #ffa600"/>
   </g>
   <g id="patch_8">
    <path d="M 217.111969 17.787314 
Q 213.68788 17.93162 209.985326 18.004612 
Q 206.282773 18.078443 202.250186 18.078443 
Q 190.224621 18.078443 183.201114 17.531422 
Q 176.177606 16.984401 176.177606 16.048928 
Q 176.177606 15.110099 183.201114 14.563917 
Q 190.224621 14.016896 202.250186 14.016896 
Q 206.282773 14.016896 209.985326 14.090727 
Q 213.68788 14.163719 217.111969 14.308025 
L 217.111969 15.11765 
Q 213.65694 14.92636 210.305046 14.837427 
Q 206.953151 14.748495 203.250598 14.748495 
Q 196.60869 14.748495 192.803001 15.094997 
Q 189.007626 15.440661 189.007626 16.048928 
Q 189.007626 16.654678 192.803001 17.001181 
Q 196.60869 17.346845 203.250598 17.346845 
Q 206.953151 17.346845 210.305046 17.257912 
Q 213.65694 17.16814 217.111969 16.97685 
L 217.111969 17.787314 
z
" clip-path="url(#ped67bb2978)" style="fill: #0000ff"/>
   </g>
   <g id="patch_9">
    <path d="M 432.555985 18.072575 
Q 428.427687 18.075509 423.987474 18.076983 
Q 419.547261 18.078443 414.813479 18.078443 
Q 404.116602 18.078443 397.869112 18.069707 
Q 391.621622 18.060972 391.621622 18.046032 
Q 391.621622 18.030918 397.9792 18.02225 
Q 404.345952 18.013581 415.418963 18.013581 
Q 419.68487 18.013581 423.592992 18.01476 
Q 427.510288 18.015925 430.978058 18.01823 
L 430.978058 18.03116 
Q 427.4002 18.028199 423.859038 18.026738 
Q 420.317876 18.025264 416.758366 18.025264 
Q 410.171438 18.025264 406.602754 18.03065 
Q 403.034071 18.036023 403.034071 18.046032 
Q 403.034071 18.055947 406.474319 18.06136 
Q 409.914566 18.06676 416.244623 18.06676 
Q 417.969333 18.06676 419.446347 18.066452 
Q 420.92336 18.06613 422.097631 18.06546 
L 422.097631 18.053321 
L 415.354745 18.053321 
L 415.354745 18.042508 
L 432.555985 18.042508 
L 432.555985 18.072575 
z
" clip-path="url(#ped67bb2978)" style="fill: #ffa600"/>
   </g>
   <g id="patch_10">
    <path d="M 604.911197 17.604839 
Q 600.782899 17.841641 596.342686 17.960583 
Q 591.902473 18.078443 587.168692 18.078443 
Q 576.471814 18.078443 570.224324 17.373443 
Q 563.976834 16.668443 563.976834 15.462806 
Q 563.976834 14.243112 570.334412 13.543518 
Q 576.701164 12.843924 587.774175 12.843924 
Q 592.040083 12.843924 595.948204 12.939078 
Q 599.8655 13.03315 603.33327 13.219131 
L 603.33327 14.262575 
Q 599.755412 14.02361 596.21425 13.90575 
Q 592.673088 13.786808 589.113579 13.786808 
Q 582.526651 13.786808 578.957967 14.221486 
Q 575.389283 14.655083 575.389283 15.462806 
Q 575.389283 16.262959 578.829531 16.6998 
Q 582.269779 17.13556 588.599835 17.13556 
Q 590.324546 17.13556 591.801559 17.11069 
Q 593.278572 17.084739 594.452843 17.030674 
L 594.452843 16.051027 
L 587.709957 16.051027 
L 587.709957 15.178427 
L 604.911197 15.178427 
L 604.911197 17.604839 
z
" clip-path="url(#ped67bb2978)" style="fill: #ffa600"/>
   </g>
   <g id="patch_11">
    <path d="M 648 17.597575 
Q 643.871703 17.838009 639.431489 17.958775 
Q 634.991276 18.078443 630.257495 18.078443 
Q 619.560617 18.078443 613.313127 17.36263 
Q 607.065637 16.646817 607.065637 15.422689 
Q 607.065637 14.184288 613.423215 13.473964 
Q 619.789967 12.76364 630.862978 12.76364 
Q 635.128886 12.76364 639.037007 12.860253 
Q 642.954303 12.955768 646.422073 13.144602 
L 646.422073 14.20405 
Q 642.844215 13.96142 639.303053 13.841752 
Q 635.761891 13.720986 632.202382 13.720986 
Q 625.615454 13.720986 622.04677 14.162331 
Q 618.478086 14.602578 618.478086 15.422689 
Q 618.478086 16.235115 621.918334 16.678655 
Q 625.358582 17.121098 631.688638 17.121098 
Q 633.413349 17.121098 634.890362 17.095847 
Q 636.367375 17.069498 637.541646 17.014604 
L 637.541646 16.019932 
L 630.798761 16.019932 
L 630.798761 15.133948 
L 648 15.133948 
L 648 17.597575 
z
" clip-path="url(#ped67bb2978)" style="fill: #ffa600"/>
   </g>
   <g id="patch_12">
    <path d="M 130.934363 19.774919 
Q 127.510274 18.934015 123.80772 18.508673 
Q 120.105166 18.078443 116.07258 18.078443 
Q 104.047015 18.078443 97.023507 21.266058 
Q 90 24.453672 90 29.904883 
Q 90 35.37565 97.023507 38.558376 
Q 104.047015 41.74599 116.07258 41.74599 
Q 120.105166 41.74599 123.80772 41.31576 
Q 127.510274 40.890418 130.934363 40.049514 
L 130.934363 35.33165 
Q 127.479334 36.446337 124.127439 36.964568 
Q 120.775545 37.4828 117.072991 37.4828 
Q 110.431084 37.4828 106.625395 35.463652 
Q 102.83002 33.449393 102.83002 29.904883 
Q 102.83002 26.37504 106.625395 24.355892 
Q 110.431084 22.341633 117.072991 22.341633 
Q 120.775545 22.341633 124.127439 22.859865 
Q 127.479334 23.382985 130.934363 24.497673 
L 130.934363 19.774919 
z
" clip-path="url(#ped67bb2978)" style="fill: #0000ff"/>
   </g>
   <g id="patch_13">
    <path d="M 174.023166 22.404643 
Q 170.599077 21.901949 166.896523 21.647679 
Q 163.193969 21.390486 159.161383 21.390486 
Q 147.135818 21.390486 140.112311 23.296048 
Q 133.088803 25.20161 133.088803 28.460355 
Q 133.088803 31.730791 140.112311 33.63343 
Q 147.135818 35.538992 159.161383 35.538992 
Q 163.193969 35.538992 166.896523 35.281799 
Q 170.599077 35.02753 174.023166 34.524835 
L 174.023166 31.704487 
Q 170.568137 32.370849 167.216242 32.680649 
Q 163.864348 32.990449 160.161794 32.990449 
Q 153.519887 32.990449 149.714198 31.783398 
Q 145.918823 30.57927 145.918823 28.460355 
Q 145.918823 26.350208 149.714198 25.143158 
Q 153.519887 23.939029 160.161794 23.939029 
Q 163.864348 23.939029 167.216242 24.248829 
Q 170.568137 24.561552 174.023166 25.227914 
L 174.023166 22.404643 
z
" clip-path="url(#ped67bb2978)" style="fill: #0000ff"/>
   </g>
   <g id="patch_14">
    <path d="M 133.088803 21.390486 
L 174.023166 21.390486 
L 174.023166 20.744546 
L 159.296315 20.744546 
L 159.296315 18.078443 
L 147.844213 18.078443 
L 147.844213 20.744546 
L 133.088803 20.744546 
L 133.088803 21.390486 
z
" clip-path="url(#ped67bb2978)" style="fill: #ff0000"/>
   </g>
   <g id="patch_15">
    <path d="M 204.532875 22.638314 
L 188.790177 22.638314 
L 186.304488 21.751844 
L 176.177606 21.751844 
L 190.639798 26.618043 
L 202.649778 26.618043 
L 217.111969 21.751844 
L 206.993457 21.751844 
L 204.532875 22.638314 
z
M 191.300974 23.54147 
L 201.99697 23.54147 
L 196.657342 25.477104 
L 191.300974 23.54147 
z
" clip-path="url(#ped67bb2978)" style="fill: #008000"/>
   </g>
   <g id="patch_16">
    <path d="M 217.111969 27.88068 
Q 212.983672 27.249361 208.543458 26.932261 
Q 204.103245 26.618043 199.369464 26.618043 
Q 188.672587 26.618043 182.425096 28.497585 
Q 176.177606 30.377127 176.177606 33.591375 
Q 176.177606 36.843098 182.535184 38.708226 
Q 188.901936 40.573355 199.974948 40.573355 
Q 204.240855 40.573355 208.148977 40.319674 
Q 212.066272 40.068876 215.534042 39.573046 
L 215.534042 36.791209 
Q 211.956184 37.428293 208.415022 37.742511 
Q 204.873861 38.059611 201.314351 38.059611 
Q 194.727423 38.059611 191.158739 36.900752 
Q 187.590055 35.744776 187.590055 33.591375 
Q 187.590055 31.458152 191.030303 30.293528 
Q 194.470551 29.131786 200.800607 29.131786 
Q 202.525318 29.131786 204.002331 29.198089 
Q 205.479344 29.267275 206.653616 29.411411 
L 206.653616 32.023168 
L 199.91073 32.023168 
L 199.91073 34.349533 
L 217.111969 34.349533 
L 217.111969 27.88068 
z
" clip-path="url(#ped67bb2978)" style="fill: #ffa600"/>
   </g>
   <g id="patch_17">
    <path d="M 176.177606 21.751844 
L 217.111969 21.751844 
L 217.111969 21.035428 
L 202.385118 21.035428 
L 202.385118 18.078443 
L 190.933016 18.078443 
L 190.933016 21.035428 
L 176.177606 21.035428 
L 176.177606 21.751844 
z
" clip-path="url(#ped67bb2978)" style="fill: #ff0000"/>
   </g>
   <g id="patch_18">
    <path d="M 247.621678 27.137524 
L 231.87898 27.137524 
L 229.393291 25.357583 
L 219.266409 25.357583 
L 233.728601 35.128411 
L 245.738581 35.128411 
L 260.200772 25.357583 
L 250.08226 25.357583 
L 247.621678 27.137524 
z
M 234.389777 28.950969 
L 245.085773 28.950969 
L 239.746145 32.837522 
L 234.389777 28.950969 
z
" clip-path="url(#ped67bb2978)" style="fill: #008000"/>
   </g>
   <g id="patch_19">
    <path d="M 260.200772 18.241245 
Q 256.776683 18.160548 253.07413 18.11973 
Q 249.371576 18.078443 245.338989 18.078443 
Q 233.313424 18.078443 226.289917 18.384341 
Q 219.266409 18.690238 219.266409 19.21336 
Q 219.266409 19.738359 226.289917 20.043787 
Q 233.313424 20.349684 245.338989 20.349684 
Q 249.371576 20.349684 253.07413 20.308398 
Q 256.776683 20.26758 260.200772 20.186883 
L 260.200772 19.734136 
Q 256.745743 19.841107 253.393849 19.890838 
Q 250.041954 19.94057 246.339401 19.94057 
Q 239.697493 19.94057 235.891804 19.746804 
Q 232.096429 19.553507 232.096429 19.21336 
Q 232.096429 18.874621 235.891804 18.680855 
Q 239.697493 18.487558 246.339401 18.487558 
Q 250.041954 18.487558 253.393849 18.537289 
Q 256.745743 18.58749 260.200772 18.694461 
L 260.200772 18.241245 
z
" clip-path="url(#ped67bb2978)" style="fill: #0000ff"/>
   </g>
   <g id="patch_20">
    <path d="M 260.200772 37.560026 
Q 256.072475 36.344218 251.632261 35.733539 
Q 247.192048 35.128411 242.458267 35.128411 
Q 231.76139 35.128411 225.513899 38.748075 
Q 219.266409 42.367739 219.266409 48.557809 
Q 219.266409 54.82005 225.623987 58.411956 
Q 231.990739 62.003862 243.063751 62.003862 
Q 247.329658 62.003862 251.23778 61.515319 
Q 255.155075 61.032327 258.622845 60.077446 
L 258.622845 54.720121 
Q 255.044987 55.947032 251.503826 56.55216 
Q 247.962664 57.162839 244.403154 57.162839 
Q 237.816226 57.162839 234.247542 54.931083 
Q 230.678858 52.704878 230.678858 48.557809 
Q 230.678858 44.449601 234.119106 42.206742 
Q 237.559354 39.969434 243.88941 39.969434 
Q 245.614121 39.969434 247.091134 40.097122 
Q 248.568147 40.230361 249.742419 40.507942 
L 249.742419 45.537721 
L 242.999533 45.537721 
L 242.999533 50.017888 
L 260.200772 50.017888 
L 260.200772 37.560026 
z
" clip-path="url(#ped67bb2978)" style="fill: #ffa600"/>
   </g>
   <g id="patch_21">
    <path d="M 219.266409 25.357583 
L 260.200772 25.357583 
L 260.200772 24.380903 
L 245.473921 24.380903 
L 245.473921 20.349684 
L 234.021819 20.349684 
L 234.021819 24.380903 
L 219.266409 24.380903 
L 219.266409 25.357583 
z
" clip-path="url(#ped67bb2978)" style="fill: #ff0000"/>
   </g>
   <g id="patch_22">
    <path d="M 290.710482 53.140023 
L 274.967783 53.140023 
L 272.482094 48.510376 
L 262.355212 48.510376 
L 276.817404 73.924411 
L 288.827384 73.924411 
L 303.289575 48.510376 
L 293.171063 48.510376 
L 290.710482 53.140023 
z
M 277.478581 57.856815 
L 288.174576 57.856815 
L 282.834948 67.965784 
L 277.478581 57.856815 
z
" clip-path="url(#ped67bb2978)" style="fill: #008000"/>
   </g>
   <g id="patch_23">
    <path d="M 303.289575 18.68617 
Q 299.865486 18.384934 296.162933 18.232564 
Q 292.460379 18.078443 288.427792 18.078443 
Q 276.402227 18.078443 269.37872 19.220339 
Q 262.355212 20.362235 262.355212 22.315016 
Q 262.355212 24.274804 269.37872 25.414948 
Q 276.402227 26.556844 288.427792 26.556844 
Q 292.460379 26.556844 296.162933 26.402723 
Q 299.865486 26.250353 303.289575 25.949117 
L 303.289575 24.259041 
Q 299.834546 24.658355 296.482652 24.844 
Q 293.130758 25.029646 289.428204 25.029646 
Q 282.786297 25.029646 278.980607 24.306328 
Q 275.185232 23.584762 275.185232 22.315016 
Q 275.185232 21.050525 278.980607 20.327207 
Q 282.786297 19.605641 289.428204 19.605641 
Q 293.130758 19.605641 296.482652 19.791287 
Q 299.834546 19.978684 303.289575 20.377997 
L 303.289575 18.68617 
z
" clip-path="url(#ped67bb2978)" style="fill: #0000ff"/>
   </g>
   <g id="patch_24">
    <path d="M 303.289575 27.34234 
Q 299.161278 26.949592 294.721065 26.752321 
Q 290.280851 26.556844 285.54707 26.556844 
Q 274.850193 26.556844 268.602703 27.726121 
Q 262.355212 28.895399 262.355212 30.895007 
Q 262.355212 32.917928 268.71279 34.078239 
Q 275.079543 35.23855 286.152554 35.23855 
Q 290.418461 35.23855 294.326583 35.080733 
Q 298.243878 34.92471 301.711648 34.61625 
L 301.711648 32.885648 
Q 298.13379 33.281983 294.592629 33.47746 
Q 291.051467 33.674731 287.491957 33.674731 
Q 280.905029 33.674731 277.336345 32.953796 
Q 273.767661 32.234654 273.767661 30.895007 
Q 273.767661 29.567913 277.207909 28.843391 
Q 280.648157 28.120663 286.978213 28.120663 
Q 288.702924 28.120663 290.179937 28.16191 
Q 291.65695 28.204951 292.831222 28.29462 
L 292.831222 29.919413 
L 286.088336 29.919413 
L 286.088336 31.366663 
L 303.289575 31.366663 
L 303.289575 27.34234 
z
" clip-path="url(#ped67bb2978)" style="fill: #ffa600"/>
   </g>
   <g id="patch_25">
    <path d="M 262.355212 48.510376 
L 303.289575 48.510376 
L 303.289575 45.922 
L 288.562724 45.922 
L 288.562724 35.23855 
L 277.110622 35.23855 
L 277.110622 45.922 
L 262.355212 45.922 
L 262.355212 48.510376 
z
" clip-path="url(#ped67bb2978)" style="fill: #ff0000"/>
   </g>
   <g id="patch_26">
    <path d="M 333.799285 20.731632 
L 318.056586 20.731632 
L 315.570897 19.359772 
L 305.444015 19.359772 
L 319.906207 26.890478 
L 331.916187 26.890478 
L 346.378378 19.359772 
L 336.259866 19.359772 
L 333.799285 20.731632 
z
M 320.567384 22.129316 
L 331.26338 22.129316 
L 325.923751 25.124813 
L 320.567384 22.129316 
z
" clip-path="url(#ped67bb2978)" style="fill: #008000"/>
   </g>
   <g id="patch_27">
    <path d="M 346.378378 43.82504 
Q 342.95429 40.73918 339.251736 39.17831 
Q 335.549182 37.599498 331.516595 37.599498 
Q 319.49103 37.599498 312.467523 49.297058 
Q 305.444015 60.994617 305.444015 80.99888 
Q 305.444015 101.074906 312.467523 112.754525 
Q 319.49103 124.452084 331.516595 124.452084 
Q 335.549182 124.452084 339.251736 122.873272 
Q 342.95429 121.312402 346.378378 118.226542 
L 346.378378 100.913437 
Q 342.923349 105.003994 339.571455 106.905745 
Q 336.219561 108.807495 332.517007 108.807495 
Q 325.8751 108.807495 322.069411 101.397845 
Q 318.274035 94.006135 318.274035 80.99888 
Q 318.274035 68.045447 322.069411 60.635796 
Q 325.8751 53.244087 332.517007 53.244087 
Q 336.219561 53.244087 339.571455 55.145837 
Q 342.923349 57.065529 346.378378 61.156087 
L 346.378378 43.82504 
z
" clip-path="url(#ped67bb2978)" style="fill: #0000ff"/>
   </g>
   <g id="patch_28">
    <path d="M 346.378378 18.194374 
Q 342.250081 18.136409 337.809868 18.107294 
Q 333.369654 18.078443 328.635873 18.078443 
Q 317.938996 18.078443 311.691506 18.251016 
Q 305.444015 18.423589 305.444015 18.71871 
Q 305.444015 19.017272 311.801594 19.188522 
Q 318.168346 19.359772 329.241357 19.359772 
Q 333.507264 19.359772 337.415386 19.336479 
Q 341.332681 19.313452 344.800451 19.267927 
L 344.800451 19.012508 
Q 341.222594 19.071003 337.681432 19.099853 
Q 334.14027 19.128968 330.58076 19.128968 
Q 323.993832 19.128968 320.425148 19.022566 
Q 316.856464 18.916428 316.856464 18.71871 
Q 316.856464 18.522845 320.296712 18.415914 
Q 323.73696 18.309247 330.067016 18.309247 
Q 331.791727 18.309247 333.26874 18.315334 
Q 334.745754 18.321687 335.920025 18.334921 
L 335.920025 18.574723 
L 329.177139 18.574723 
L 329.177139 18.788322 
L 346.378378 18.788322 
L 346.378378 18.194374 
z
" clip-path="url(#ped67bb2978)" style="fill: #ffa600"/>
   </g>
   <g id="patch_29">
    <path d="M 305.444015 37.599498 
L 346.378378 37.599498 
L 346.378378 35.510941 
L 331.651527 35.510941 
L 331.651527 26.890478 
L 320.199425 26.890478 
L 320.199425 35.510941 
L 305.444015 35.510941 
L 305.444015 37.599498 
z
" clip-path="url(#ped67bb2978)" style="fill: #ff0000"/>
   </g>
   <g id="patch_30">
    <path d="M 376.888088 18.251531 
L 361.14539 18.251531 
L 358.6597 18.186256 
L 348.532819 18.186256 
L 362.99501 18.544579 
L 375.00499 18.544579 
L 389.467181 18.186256 
L 379.348669 18.186256 
L 376.888088 18.251531 
z
M 363.656187 18.318036 
L 374.352183 18.318036 
L 369.012554 18.460566 
L 363.656187 18.318036 
z
" clip-path="url(#ped67bb2978)" style="fill: #008000"/>
   </g>
   <g id="patch_31">
    <path d="M 389.467181 33.002822 
Q 386.043093 26.908297 382.340539 23.825601 
Q 378.637985 20.707472 374.605398 20.707472 
Q 362.579833 20.707472 355.556326 43.809974 
Q 348.532819 66.912475 348.532819 106.420586 
Q 348.532819 146.070431 355.556326 169.137499 
Q 362.579833 192.24 374.605398 192.24 
Q 378.637985 192.24 382.340539 189.121871 
Q 386.043093 186.039175 389.467181 179.94465 
L 389.467181 145.751531 
Q 386.012152 153.83032 382.660258 157.586248 
Q 379.308364 161.342176 375.60581 161.342176 
Q 368.963903 161.342176 365.158214 146.70823 
Q 361.362838 132.109717 361.362838 106.420586 
Q 361.362838 80.837755 365.158214 66.203809 
Q 368.963903 51.605296 375.60581 51.605296 
Q 379.308364 51.605296 382.660258 55.361224 
Q 386.012152 59.152586 389.467181 67.231374 
L 389.467181 33.002822 
z
" clip-path="url(#ped67bb2978)" style="fill: #0000ff"/>
   </g>
   <g id="patch_32">
    <path d="M 389.467181 18.088198 
Q 385.338884 18.083321 380.898671 18.080871 
Q 376.458457 18.078443 371.724676 18.078443 
Q 361.027799 18.078443 354.780309 18.092964 
Q 348.532819 18.107484 348.532819 18.132316 
Q 348.532819 18.157438 354.890397 18.171847 
Q 361.257149 18.186256 372.33016 18.186256 
Q 376.596067 18.186256 380.504189 18.184296 
Q 384.421485 18.182359 387.889254 18.178528 
L 387.889254 18.157037 
Q 384.311397 18.161959 380.770235 18.164386 
Q 377.229073 18.166836 373.669563 18.166836 
Q 367.082635 18.166836 363.513951 18.157883 
Q 359.945268 18.148953 359.945268 18.132316 
Q 359.945268 18.115836 363.385515 18.106839 
Q 366.825763 18.097863 373.155819 18.097863 
Q 374.88053 18.097863 376.357543 18.098376 
Q 377.834557 18.09891 379.008828 18.100024 
L 379.008828 18.120201 
L 372.265942 18.120201 
L 372.265942 18.138174 
L 389.467181 18.138174 
L 389.467181 18.088198 
z
" clip-path="url(#ped67bb2978)" style="fill: #ffa600"/>
   </g>
   <g id="patch_33">
    <path d="M 348.532819 20.707472 
L 389.467181 20.707472 
L 389.467181 20.285648 
L 374.74033 20.285648 
L 374.74033 18.544579 
L 363.288228 18.544579 
L 363.288228 20.285648 
L 348.532819 20.285648 
L 348.532819 20.707472 
z
" clip-path="url(#ped67bb2978)" style="fill: #ff0000"/>
   </g>
   <g id="patch_34">
    <path d="M 419.976891 18.704655 
L 404.234193 18.704655 
L 401.748503 18.518587 
L 391.621622 18.518587 
L 406.083813 19.539991 
L 418.093793 19.539991 
L 432.555985 18.518587 
L 422.437472 18.518587 
L 419.976891 18.704655 
z
M 406.74499 18.894226 
L 417.440986 18.894226 
L 412.101357 19.300511 
L 406.74499 18.894226 
z
" clip-path="url(#ped67bb2978)" style="fill: #008000"/>
   </g>
   <g id="patch_35">
    <path d="M 432.555985 30.924445 
Q 429.131896 25.281431 425.429342 22.427115 
Q 421.726788 19.539991 417.694201 19.539991 
Q 405.668637 19.539991 398.645129 40.930954 
Q 391.621622 62.321916 391.621622 98.903087 
Q 391.621622 135.61549 398.645129 156.973645 
Q 405.668637 178.364607 417.694201 178.364607 
Q 421.726788 178.364607 425.429342 175.477483 
Q 429.131896 172.623168 432.555985 166.980153 
L 432.555985 135.320216 
Q 429.100955 142.800492 425.749061 146.278163 
Q 422.397167 149.755835 418.694613 149.755835 
Q 412.052706 149.755835 408.247017 136.206038 
Q 404.451641 122.68905 404.451641 98.903087 
Q 404.451641 75.215549 408.247017 61.665752 
Q 412.052706 48.148763 418.694613 48.148763 
Q 422.397167 48.148763 425.749061 51.626435 
Q 429.100955 55.136915 432.555985 62.61719 
L 432.555985 30.924445 
z
" clip-path="url(#ped67bb2978)" style="fill: #0000ff"/>
   </g>
   <g id="patch_36">
    <path d="M 391.621622 18.518587 
L 432.555985 18.518587 
L 432.555985 18.432747 
L 417.829134 18.432747 
L 417.829134 18.078443 
L 406.377032 18.078443 
L 406.377032 18.432747 
L 391.621622 18.432747 
L 391.621622 18.518587 
z
" clip-path="url(#ped67bb2978)" style="fill: #ff0000"/>
   </g>
   <g id="patch_37">
    <path d="M 463.065694 19.394382 
L 447.322996 19.394382 
L 444.837307 18.961609 
L 434.710425 18.961609 
L 449.172616 21.337278 
L 461.182596 21.337278 
L 475.644788 18.961609 
L 465.526275 18.961609 
L 463.065694 19.394382 
z
M 449.833793 19.835301 
L 460.529789 19.835301 
L 455.19016 20.780274 
L 449.833793 19.835301 
z
" clip-path="url(#ped67bb2978)" style="fill: #008000"/>
   </g>
   <g id="patch_38">
    <path d="M 475.644788 31.839203 
Q 472.220699 28.250267 468.518145 26.434933 
Q 464.815591 24.598733 460.783005 24.598733 
Q 448.75744 24.598733 441.733932 38.203304 
Q 434.710425 51.807875 434.710425 75.07336 
Q 434.710425 98.422309 441.733932 112.006014 
Q 448.75744 125.610585 460.783005 125.610585 
Q 464.815591 125.610585 468.518145 123.774385 
Q 472.220699 121.959052 475.644788 118.370116 
L 475.644788 98.234516 
Q 472.189758 102.991943 468.837864 105.203729 
Q 465.48597 107.415515 461.783416 107.415515 
Q 455.141509 107.415515 451.33582 98.797896 
Q 447.540444 90.201142 447.540444 75.07336 
Q 447.540444 60.008176 451.33582 51.390557 
Q 455.141509 42.793804 461.783416 42.793804 
Q 465.48597 42.793804 468.837864 45.00559 
Q 472.189758 47.238242 475.644788 51.995668 
L 475.644788 31.839203 
z
" clip-path="url(#ped67bb2978)" style="fill: #0000ff"/>
   </g>
   <g id="patch_39">
    <path d="M 475.644788 18.15835 
Q 471.51649 18.118397 467.076277 18.098329 
Q 462.636064 18.078443 457.902283 18.078443 
Q 447.205405 18.078443 440.957915 18.197391 
Q 434.710425 18.316338 434.710425 18.519753 
Q 434.710425 18.725539 441.068003 18.843574 
Q 447.434755 18.961609 458.507766 18.961609 
Q 462.773674 18.961609 466.681795 18.945555 
Q 470.599091 18.929683 474.066861 18.898304 
L 474.066861 18.722255 
Q 470.489003 18.762573 466.947841 18.782458 
Q 463.406679 18.802526 459.847169 18.802526 
Q 453.260241 18.802526 449.691558 18.729188 
Q 446.122874 18.656031 446.122874 18.519753 
Q 446.122874 18.384751 449.563122 18.311047 
Q 453.00337 18.237526 459.333426 18.237526 
Q 461.058137 18.237526 462.53515 18.241722 
Q 464.012163 18.246101 465.186434 18.255222 
L 465.186434 18.420508 
L 458.443548 18.420508 
L 458.443548 18.567733 
L 475.644788 18.567733 
L 475.644788 18.15835 
z
" clip-path="url(#ped67bb2978)" style="fill: #ffa600"/>
   </g>
   <g id="patch_40">
    <path d="M 434.710425 24.598733 
L 475.644788 24.598733 
L 475.644788 23.962659 
L 460.917937 23.962659 
L 460.917937 21.337278 
L 449.465835 21.337278 
L 449.465835 23.962659 
L 434.710425 23.962659 
L 434.710425 24.598733 
z
" clip-path="url(#ped67bb2978)" style="fill: #ff0000"/>
   </g>
   <g id="patch_41">
    <path d="M 506.154497 21.893298 
L 490.411799 21.893298 
L 487.92611 21.058457 
L 477.799228 21.058457 
L 492.261419 25.641244 
L 504.271399 25.641244 
L 518.733591 21.058457 
L 508.615078 21.058457 
L 506.154497 21.893298 
z
M 492.922596 22.743854 
L 503.618592 22.743854 
L 498.278963 24.566754 
L 492.922596 22.743854 
z
" clip-path="url(#ped67bb2978)" style="fill: #008000"/>
   </g>
   <g id="patch_42">
    <path d="M 518.733591 33.309593 
Q 515.309502 32.041473 511.606948 31.40004 
Q 507.904394 30.751235 503.871808 30.751235 
Q 491.846243 30.751235 484.822735 35.558294 
Q 477.799228 40.365353 477.799228 48.586015 
Q 477.799228 56.836167 484.822735 61.635854 
Q 491.846243 66.442913 503.871808 66.442913 
Q 507.904394 66.442913 511.606948 65.794108 
Q 515.309502 65.152675 518.733591 63.884555 
L 518.733591 56.769812 
Q 515.278561 58.450808 511.926667 59.232324 
Q 508.574773 60.01384 504.872219 60.01384 
Q 498.230312 60.01384 494.424623 56.968877 
Q 490.629247 53.931288 490.629247 48.586015 
Q 490.629247 43.26286 494.424623 40.217898 
Q 498.230312 37.180308 504.872219 37.180308 
Q 508.574773 37.180308 511.926667 37.961824 
Q 515.278561 38.750712 518.733591 40.431708 
L 518.733591 33.309593 
z
" clip-path="url(#ped67bb2978)" style="fill: #0000ff"/>
   </g>
   <g id="patch_43">
    <path d="M 518.733591 18.348067 
Q 514.605293 18.213255 510.16508 18.145541 
Q 505.724867 18.078443 500.991086 18.078443 
Q 490.294208 18.078443 484.046718 18.4798 
Q 477.799228 18.881157 477.799228 19.567527 
Q 477.799228 20.261899 484.156806 20.660178 
Q 490.523558 21.058457 501.596569 21.058457 
Q 505.862477 21.058457 509.770598 21.004286 
Q 513.687894 20.950731 517.155664 20.844851 
L 517.155664 20.250818 
Q 513.577806 20.386861 510.036644 20.453959 
Q 506.495482 20.521673 502.935972 20.521673 
Q 496.349044 20.521673 492.780361 20.27421 
Q 489.211677 20.027363 489.211677 19.567527 
Q 489.211677 19.111999 492.651925 18.863305 
Q 496.092173 18.615227 502.422229 18.615227 
Q 504.14694 18.615227 505.623953 18.629386 
Q 507.100966 18.64416 508.275237 18.674938 
L 508.275237 19.232652 
L 501.532351 19.232652 
L 501.532351 19.729424 
L 518.733591 19.729424 
L 518.733591 18.348067 
z
" clip-path="url(#ped67bb2978)" style="fill: #ffa600"/>
   </g>
   <g id="patch_44">
    <path d="M 477.799228 30.751235 
L 518.733591 30.751235 
L 518.733591 29.754644 
L 504.00674 29.754644 
L 504.00674 25.641244 
L 492.554638 25.641244 
L 492.554638 29.754644 
L 477.799228 29.754644 
L 477.799228 30.751235 
z
" clip-path="url(#ped67bb2978)" style="fill: #ff0000"/>
   </g>
   <g id="patch_45">
    <path d="M 549.2433 18.871242 
L 533.500602 18.871242 
L 531.014913 18.563602 
L 520.888031 18.563602 
L 535.350222 20.252365 
L 547.360202 20.252365 
L 561.822394 18.563602 
L 551.703881 18.563602 
L 549.2433 18.871242 
z
M 536.011399 19.184673 
L 546.707395 19.184673 
L 541.367766 19.856414 
L 536.011399 19.184673 
z
" clip-path="url(#ped67bb2978)" style="fill: #008000"/>
   </g>
   <g id="patch_46">
    <path d="M 561.822394 20.52044 
Q 558.398305 20.387561 554.695751 20.320349 
Q 550.993197 20.252365 546.960611 20.252365 
Q 534.935046 20.252365 527.911538 20.756068 
Q 520.888031 21.259771 520.888031 22.121165 
Q 520.888031 22.985649 527.911538 23.48858 
Q 534.935046 23.992283 546.960611 23.992283 
Q 550.993197 23.992283 554.695751 23.924298 
Q 558.398305 23.857087 561.822394 23.724208 
L 561.822394 22.978696 
Q 558.367364 23.154838 555.01547 23.236728 
Q 551.663576 23.318619 547.961022 23.318619 
Q 541.319115 23.318619 537.513426 22.999555 
Q 533.71805 22.681264 533.71805 22.121165 
Q 533.71805 21.563384 537.513426 21.24432 
Q 541.319115 20.926029 547.961022 20.926029 
Q 551.663576 20.926029 555.01547 21.00792 
Q 558.367364 21.090582 561.822394 21.266724 
L 561.822394 20.52044 
z
" clip-path="url(#ped67bb2978)" style="fill: #0000ff"/>
   </g>
   <g id="patch_47">
    <path d="M 561.822394 18.122339 
Q 557.694096 18.100391 553.253883 18.089367 
Q 548.81367 18.078443 544.079889 18.078443 
Q 533.383011 18.078443 527.135521 18.143786 
Q 520.888031 18.209128 520.888031 18.320872 
Q 520.888031 18.433919 527.245609 18.49876 
Q 533.612361 18.563602 544.685372 18.563602 
Q 548.95128 18.563602 552.859401 18.554783 
Q 556.776697 18.546064 560.244467 18.528826 
L 560.244467 18.432115 
Q 556.666609 18.454263 553.125447 18.465187 
Q 549.584285 18.476211 546.024775 18.476211 
Q 539.437848 18.476211 535.869164 18.435923 
Q 532.30048 18.395736 532.30048 18.320872 
Q 532.30048 18.24671 535.740728 18.206222 
Q 539.180976 18.165834 545.511032 18.165834 
Q 547.235743 18.165834 548.712756 18.168139 
Q 550.189769 18.170544 551.36404 18.175555 
L 551.36404 18.266353 
L 544.621154 18.266353 
L 544.621154 18.34723 
L 561.822394 18.34723 
L 561.822394 18.122339 
z
" clip-path="url(#ped67bb2978)" style="fill: #ffa600"/>
   </g>
   <g id="patch_48">
    <path d="M 520.888031 29.267885 
L 561.822394 29.267885 
L 561.822394 28.238996 
L 547.095543 28.238996 
L 547.095543 23.992283 
L 535.643441 23.992283 
L 535.643441 28.238996 
L 520.888031 28.238996 
L 520.888031 29.267885 
z
" clip-path="url(#ped67bb2978)" style="fill: #ff0000"/>
   </g>
   <g id="patch_49">
    <path d="M 592.332103 22.562053 
L 576.589405 22.562053 
L 574.103716 21.740411 
L 563.976834 21.740411 
L 578.439026 26.250739 
L 590.449005 26.250739 
L 604.911197 21.740411 
L 594.792684 21.740411 
L 592.332103 22.562053 
z
M 579.100202 23.39916 
L 589.796198 23.39916 
L 584.456569 25.193238 
L 579.100202 23.39916 
z
" clip-path="url(#ped67bb2978)" style="fill: #008000"/>
   </g>
   <g id="patch_50">
    <path d="M 604.911197 18.340931 
Q 601.487108 18.210822 597.784554 18.145011 
Q 594.082 18.078443 590.049414 18.078443 
Q 578.023849 18.078443 571.000341 18.571648 
Q 563.976834 19.064852 563.976834 19.908293 
Q 563.976834 20.754759 571.000341 21.247207 
Q 578.023849 21.740411 590.049414 21.740411 
Q 594.082 21.740411 597.784554 21.673844 
Q 601.487108 21.608033 604.911197 21.477924 
L 604.911197 20.747951 
Q 601.456168 20.920421 598.104273 21.000604 
Q 594.752379 21.080788 591.049825 21.080788 
Q 584.407918 21.080788 580.602229 20.768375 
Q 576.806854 20.456718 576.806854 19.908293 
Q 576.806854 19.362137 580.602229 19.049723 
Q 584.407918 18.738067 591.049825 18.738067 
Q 594.752379 18.738067 598.104273 18.81825 
Q 601.456168 18.89919 604.911197 19.07166 
L 604.911197 18.340931 
z
" clip-path="url(#ped67bb2978)" style="fill: #0000ff"/>
   </g>
   <g id="patch_51">
    <path d="M 563.976834 31.154519 
L 604.911197 31.154519 
L 604.911197 30.198145 
L 590.184346 30.198145 
L 590.184346 26.250739 
L 578.732244 26.250739 
L 578.732244 30.198145 
L 563.976834 30.198145 
L 563.976834 31.154519 
z
" clip-path="url(#ped67bb2978)" style="fill: #ff0000"/>
   </g>
   <g id="patch_52">
    <path d="M 635.420906 18.538884 
L 619.678208 18.538884 
L 617.192519 18.078443 
L 607.065637 18.078443 
L 621.527829 20.605992 
L 633.537808 20.605992 
L 648 18.078443 
L 637.881487 18.078443 
L 635.420906 18.538884 
z
M 622.189005 19.007992 
L 632.885001 19.007992 
L 627.545373 20.013378 
L 622.189005 19.007992 
z
" clip-path="url(#ped67bb2978)" style="fill: #008000"/>
   </g>
   <g id="patch_53">
    <path d="M 648 26.88035 
Q 644.575911 26.1188 640.873357 25.733598 
Q 637.170803 25.343967 633.138217 25.343967 
Q 621.112652 25.343967 614.089145 28.230772 
Q 607.065637 31.117577 607.065637 36.054367 
Q 607.065637 41.008868 614.089145 43.891245 
Q 621.112652 46.77805 633.138217 46.77805 
Q 637.170803 46.77805 640.873357 46.38842 
Q 644.575911 46.003217 648 45.241668 
L 648 40.969019 
Q 644.544971 41.978516 641.193076 42.447843 
Q 637.841182 42.91717 634.138628 42.91717 
Q 627.496721 42.91717 623.691032 41.088565 
Q 619.895657 39.264388 619.895657 36.054367 
Q 619.895657 32.857629 623.691032 31.029025 
Q 627.496721 29.204847 634.138628 29.204847 
Q 637.841182 29.204847 641.193076 29.674175 
Q 644.544971 30.147929 648 31.157425 
L 648 26.88035 
z
" clip-path="url(#ped67bb2978)" style="fill: #0000ff"/>
   </g>
   <g id="patch_54">
    <path d="M 607.065637 25.343967 
L 648 25.343967 
L 648 24.41993 
L 633.273149 24.41993 
L 633.273149 20.605992 
L 621.821047 20.605992 
L 621.821047 24.41993 
L 607.065637 24.41993 
L 607.065637 25.343967 
z
" clip-path="url(#ped67bb2978)" style="fill: #ff0000"/>
   </g>
   <g id="matplotlib.axis_1">
    <g id="xtick_1">
     <g id="line2d_2">
      <defs>
       <path id="mb9ab17222d" d="M 0 0 
L 0 3.5 
" style="stroke: #000000; stroke-width: 0.8"/>
      </defs>
      <g>
       <use xlink:href="#mb9ab17222d" x="110.467181" y="192.24" style="stroke: #000000; stroke-width: 0.8"/>
      </g>
     </g>
     <g id="text_1">
      <!-- 0 -->
      <g transform="translate(107.285931 206.838437) scale(0.1 -0.1)">
       <defs>
        <path id="DejaVuSans-30" d="M 2034 4250 
Q 1547 4250 1301 3770 
Q 1056 3291 1056 2328 
Q 1056 1369 1301 889 
Q 1547 409 2034 409 
Q 2525 409 2770 889 
Q 3016 1369 3016 2328 
Q 3016 3291 2770 3770 
Q 2525 4250 2034 4250 
z
M 2034 4750 
Q 2819 4750 3233 4129 
Q 3647 3509 3647 2328 
Q 3647 1150 3233 529 
Q 2819 -91 2034 -91 
Q 1250 -91 836 529 
Q 422 1150 422 2328 
Q 422 3509 836 4129 
Q 1250 4750 2034 4750 
z
" transform="scale(0.015625)"/>
       </defs>
       <use xlink:href="#DejaVuSans-30"/>
      </g>
     </g>
    </g>
    <g id="xtick_2">
     <g id="line2d_3">
      <g>
       <use xlink:href="#mb9ab17222d" x="196.644788" y="192.24" style="stroke: #000000; stroke-width: 0.8"/>
      </g>
     </g>
     <g id="text_2">
      <!-- 2 -->
      <g transform="translate(193.463538 206.838437) scale(0.1 -0.1)">
       <defs>
        <path id="DejaVuSans-32" d="M 1228 531 
L 3431 531 
L 3431 0 
L 469 0 
L 469 531 
Q 828 903 1448 1529 
Q 2069 2156 2228 2338 
Q 2531 2678 2651 2914 
Q 2772 3150 2772 3378 
Q 2772 3750 2511 3984 
Q 2250 4219 1831 4219 
Q 1534 4219 1204 4116 
Q 875 4013 500 3803 
L 500 4441 
Q 881 4594 1212 4672 
Q 1544 4750 1819 4750 
Q 2544 4750 2975 4387 
Q 3406 4025 3406 3419 
Q 3406 3131 3298 2873 
Q 3191 2616 2906 2266 
Q 2828 2175 2409 1742 
Q 1991 1309 1228 531 
z
" transform="scale(0.015625)"/>
       </defs>
       <use xlink:href="#DejaVuSans-32"/>
      </g>
     </g>
    </g>
    <g id="xtick_3">
     <g id="line2d_4">
      <g>
       <use xlink:href="#mb9ab17222d" x="282.822394" y="192.24" style="stroke: #000000; stroke-width: 0.8"/>
      </g>
     </g>
     <g id="text_3">
      <!-- 4 -->
      <g transform="translate(279.641144 206.838437) scale(0.1 -0.1)">
       <defs>
        <path id="DejaVuSans-34" d="M 2419 4116 
L 825 1625 
L 2419 1625 
L 2419 4116 
z
M 2253 4666 
L 3047 4666 
L 3047 1625 
L 3713 1625 
L 3713 1100 
L 3047 1100 
L 3047 0 
L 2419 0 
L 2419 1100 
L 313 1100 
L 313 1709 
L 2253 4666 
z
" transform="scale(0.015625)"/>
       </defs>
       <use xlink:href="#DejaVuSans-34"/>
      </g>
     </g>
    </g>
    <g id="xtick_4">
     <g id="line2d_5">
      <g>
       <use xlink:href="#mb9ab17222d" x="369" y="192.24" style="stroke: #000000; stroke-width: 0.8"/>
      </g>
     </g>
     <g id="text_4">
      <!-- 6 -->
      <g transform="translate(365.81875 206.838437) scale(0.1 -0.1)">
       <defs>
        <path id="DejaVuSans-36" d="M 2113 2584 
Q 1688 2584 1439 2293 
Q 1191 2003 1191 1497 
Q 1191 994 1439 701 
Q 1688 409 2113 409 
Q 2538 409 2786 701 
Q 3034 994 3034 1497 
Q 3034 2003 2786 2293 
Q 2538 2584 2113 2584 
z
M 3366 4563 
L 3366 3988 
Q 3128 4100 2886 4159 
Q 2644 4219 2406 4219 
Q 1781 4219 1451 3797 
Q 1122 3375 1075 2522 
Q 1259 2794 1537 2939 
Q 1816 3084 2150 3084 
Q 2853 3084 3261 2657 
Q 3669 2231 3669 1497 
Q 3669 778 3244 343 
Q 2819 -91 2113 -91 
Q 1303 -91 875 529 
Q 447 1150 447 2328 
Q 447 3434 972 4092 
Q 1497 4750 2381 4750 
Q 2619 4750 2861 4703 
Q 3103 4656 3366 4563 
z
" transform="scale(0.015625)"/>
       </defs>
       <use xlink:href="#DejaVuSans-36"/>
      </g>
     </g>
    </g>
    <g id="xtick_5">
     <g id="line2d_6">
      <g>
       <use xlink:href="#mb9ab17222d" x="455.177606" y="192.24" style="stroke: #000000; stroke-width: 0.8"/>
      </g>
     </g>
     <g id="text_5">
      <!-- 8 -->
      <g transform="translate(451.996356 206.838437) scale(0.1 -0.1)">
       <defs>
        <path id="DejaVuSans-38" d="M 2034 2216 
Q 1584 2216 1326 1975 
Q 1069 1734 1069 1313 
Q 1069 891 1326 650 
Q 1584 409 2034 409 
Q 2484 409 2743 651 
Q 3003 894 3003 1313 
Q 3003 1734 2745 1975 
Q 2488 2216 2034 2216 
z
M 1403 2484 
Q 997 2584 770 2862 
Q 544 3141 544 3541 
Q 544 4100 942 4425 
Q 1341 4750 2034 4750 
Q 2731 4750 3128 4425 
Q 3525 4100 3525 3541 
Q 3525 3141 3298 2862 
Q 3072 2584 2669 2484 
Q 3125 2378 3379 2068 
Q 3634 1759 3634 1313 
Q 3634 634 3220 271 
Q 2806 -91 2034 -91 
Q 1263 -91 848 271 
Q 434 634 434 1313 
Q 434 1759 690 2068 
Q 947 2378 1403 2484 
z
M 1172 3481 
Q 1172 3119 1398 2916 
Q 1625 2713 2034 2713 
Q 2441 2713 2670 2916 
Q 2900 3119 2900 3481 
Q 2900 3844 2670 4047 
Q 2441 4250 2034 4250 
Q 1625 4250 1398 4047 
Q 1172 3844 1172 3481 
z
" transform="scale(0.015625)"/>
       </defs>
       <use xlink:href="#DejaVuSans-38"/>
      </g>
     </g>
    </g>
    <g id="xtick_6">
     <g id="line2d_7">
      <g>
       <use xlink:href="#mb9ab17222d" x="541.355212" y="192.24" style="stroke: #000000; stroke-width: 0.8"/>
      </g>
     </g>
     <g id="text_6">
      <!-- 10 -->
      <g transform="translate(534.992712 206.838437) scale(0.1 -0.1)">
       <defs>
        <path id="DejaVuSans-31" d="M 794 531 
L 1825 531 
L 1825 4091 
L 703 3866 
L 703 4441 
L 1819 4666 
L 2450 4666 
L 2450 531 
L 3481 531 
L 3481 0 
L 794 0 
L 794 531 
z
" transform="scale(0.015625)"/>
       </defs>
       <use xlink:href="#DejaVuSans-31"/>
       <use xlink:href="#DejaVuSans-30" x="63.623047"/>
      </g>
     </g>
    </g>
    <g id="xtick_7">
     <g id="line2d_8">
      <g>
       <use xlink:href="#mb9ab17222d" x="627.532819" y="192.24" style="stroke: #000000; stroke-width: 0.8"/>
      </g>
     </g>
     <g id="text_7">
      <!-- 12 -->
      <g transform="translate(621.170319 206.838437) scale(0.1 -0.1)">
       <use xlink:href="#DejaVuSans-31"/>
       <use xlink:href="#DejaVuSans-32" x="63.623047"/>
      </g>
     </g>
    </g>
   </g>
   <g id="matplotlib.axis_2">
    <g id="ytick_1">
     <g id="line2d_9">
      <defs>
       <path id="m8823cfb2da" d="M 0 0 
L -3.5 0 
" style="stroke: #000000; stroke-width: 0.8"/>
      </defs>
      <g>
       <use xlink:href="#m8823cfb2da" x="90" y="179.715932" style="stroke: #000000; stroke-width: 0.8"/>
      </g>
     </g>
     <g id="text_8">
      <!-- −0.012 -->
      <g transform="translate(45.992188 183.515151) scale(0.1 -0.1)">
       <defs>
        <path id="DejaVuSans-2212" d="M 678 2272 
L 4684 2272 
L 4684 1741 
L 678 1741 
L 678 2272 
z
" transform="scale(0.015625)"/>
        <path id="DejaVuSans-2e" d="M 684 794 
L 1344 794 
L 1344 0 
L 684 0 
L 684 794 
z
" transform="scale(0.015625)"/>
       </defs>
       <use xlink:href="#DejaVuSans-2212"/>
       <use xlink:href="#DejaVuSans-30" x="83.789062"/>
       <use xlink:href="#DejaVuSans-2e" x="147.412109"/>
       <use xlink:href="#DejaVuSans-30" x="179.199219"/>
       <use xlink:href="#DejaVuSans-31" x="242.822266"/>
       <use xlink:href="#DejaVuSans-32" x="306.445312"/>
      </g>
     </g>
    </g>
    <g id="ytick_2">
     <g id="line2d_10">
      <g>
       <use xlink:href="#m8823cfb2da" x="90" y="152.776351" style="stroke: #000000; stroke-width: 0.8"/>
      </g>
     </g>
     <g id="text_9">
      <!-- −0.010 -->
      <g transform="translate(45.992188 156.575569) scale(0.1 -0.1)">
       <use xlink:href="#DejaVuSans-2212"/>
       <use xlink:href="#DejaVuSans-30" x="83.789062"/>
       <use xlink:href="#DejaVuSans-2e" x="147.412109"/>
       <use xlink:href="#DejaVuSans-30" x="179.199219"/>
       <use xlink:href="#DejaVuSans-31" x="242.822266"/>
       <use xlink:href="#DejaVuSans-30" x="306.445312"/>
      </g>
     </g>
    </g>
    <g id="ytick_3">
     <g id="line2d_11">
      <g>
       <use xlink:href="#m8823cfb2da" x="90" y="125.836769" style="stroke: #000000; stroke-width: 0.8"/>
      </g>
     </g>
     <g id="text_10">
      <!-- −0.008 -->
      <g transform="translate(45.992188 129.635988) scale(0.1 -0.1)">
       <use xlink:href="#DejaVuSans-2212"/>
       <use xlink:href="#DejaVuSans-30" x="83.789062"/>
       <use xlink:href="#DejaVuSans-2e" x="147.412109"/>
       <use xlink:href="#DejaVuSans-30" x="179.199219"/>
       <use xlink:href="#DejaVuSans-30" x="242.822266"/>
       <use xlink:href="#DejaVuSans-38" x="306.445312"/>
      </g>
     </g>
    </g>
    <g id="ytick_4">
     <g id="line2d_12">
      <g>
       <use xlink:href="#m8823cfb2da" x="90" y="98.897188" style="stroke: #000000; stroke-width: 0.8"/>
      </g>
     </g>
     <g id="text_11">
      <!-- −0.006 -->
      <g transform="translate(45.992188 102.696406) scale(0.1 -0.1)">
       <use xlink:href="#DejaVuSans-2212"/>
       <use xlink:href="#DejaVuSans-30" x="83.789062"/>
       <use xlink:href="#DejaVuSans-2e" x="147.412109"/>
       <use xlink:href="#DejaVuSans-30" x="179.199219"/>
       <use xlink:href="#DejaVuSans-30" x="242.822266"/>
       <use xlink:href="#DejaVuSans-36" x="306.445312"/>
      </g>
     </g>
    </g>
    <g id="ytick_5">
     <g id="line2d_13">
      <g>
       <use xlink:href="#m8823cfb2da" x="90" y="71.957606" style="stroke: #000000; stroke-width: 0.8"/>
      </g>
     </g>
     <g id="text_12">
      <!-- −0.004 -->
      <g transform="translate(45.992188 75.756825) scale(0.1 -0.1)">
       <use xlink:href="#DejaVuSans-2212"/>
       <use xlink:href="#DejaVuSans-30" x="83.789062"/>
       <use xlink:href="#DejaVuSans-2e" x="147.412109"/>
       <use xlink:href="#DejaVuSans-30" x="179.199219"/>
       <use xlink:href="#DejaVuSans-30" x="242.822266"/>
       <use xlink:href="#DejaVuSans-34" x="306.445312"/>
      </g>
     </g>
    </g>
    <g id="ytick_6">
     <g id="line2d_14">
      <g>
       <use xlink:href="#m8823cfb2da" x="90" y="45.018025" style="stroke: #000000; stroke-width: 0.8"/>
      </g>
     </g>
     <g id="text_13">
      <!-- −0.002 -->
      <g transform="translate(45.992188 48.817244) scale(0.1 -0.1)">
       <use xlink:href="#DejaVuSans-2212"/>
       <use xlink:href="#DejaVuSans-30" x="83.789062"/>
       <use xlink:href="#DejaVuSans-2e" x="147.412109"/>
       <use xlink:href="#DejaVuSans-30" x="179.199219"/>
       <use xlink:href="#DejaVuSans-30" x="242.822266"/>
       <use xlink:href="#DejaVuSans-32" x="306.445312"/>
      </g>
     </g>
    </g>
   </g>
  </g>
 </g>
 <defs>
  <clipPath id="ped67bb2978">
   <rect x="90" y="25.92" width="558" height="166.32"/>
  </clipPath>
 </defs>
</svg>
