<?xml version="1.0" encoding="utf-8" standalone="no"?>
<!DOCTYPE svg PUBLIC "-//W3C//DTD SVG 1.1//EN"
  "http://www.w3.org/Graphics/SVG/1.1/DTD/svg11.dtd">
<svg xmlns:xlink="http://www.w3.org/1999/xlink" width="720pt" height="216pt" viewBox="0 0 720 216" xmlns="http://www.w3.org/2000/svg" version="1.1">
 <metadata>
  <rdf:RDF xmlns:dc="http://purl.org/dc/elements/1.1/" xmlns:cc="http://creativecommons.org/ns#" xmlns:rdf="http://www.w3.org/1999/02/22-rdf-syntax-ns#">
   <cc:Work>
    <dc:type rdf:resource="http://purl.org/dc/dcmitype/StillImage"/>
    <dc:date>2024-11-23T04:44:12.182282</dc:date>
    <dc:format>image/svg+xml</dc:format>
    <dc:creator>
     <cc:Agent>
      <dc:title>Matplotlib v3.7.2, https://matplotlib.org/</dc:title>
     </cc:Agent>
    </dc:creator>
   </cc:Work>
  </rdf:RDF>
 </metadata>
 <defs>
  <style type="text/css">*{stroke-linejoin: round; stroke-linecap: butt}</style>
 </defs>
 <g id="figure_1">
  <g id="patch_1">
   <path d="M 0 216 
L 720 216 
L 720 0 
L 0 0 
z
" style="fill: #ffffff"/>
  </g>
  <g id="axes_1">
   <g id="patch_2">
    <path d="M 90 192.24 
L 648 192.24 
L 648 25.92 
L 90 25.92 
z
" style="fill: #ffffff"/>
   </g>
   <g id="line2d_1">
    <path d="M 90 25.845062 
L 648 25.845062 
" clip-path="url(#p406b68180d)" style="fill: none; stroke: #000000; stroke-width: 0.5; stroke-linecap: square"/>
   </g>
   <g id="patch_3">
    <path d="M 106.728963 25.500201 
L 97.44113 25.500201 
L 95.97463 25.845062 
L 90 25.845062 
L 98.532364 23.951981 
L 105.617978 23.951981 
L 114.150342 25.845062 
L 108.18065 25.845062 
L 106.728963 25.500201 
z
M 98.922443 25.148849 
L 105.232837 25.148849 
L 102.082577 24.395837 
L 98.922443 25.148849 
z
" clip-path="url(#p406b68180d)" style="fill: #008000"/>
   </g>
   <g id="patch_4">
    <path d="M 90 21.790614 
L 114.150342 21.790614 
L 114.150342 22.212141 
L 105.461835 22.212141 
L 105.461835 23.951981 
L 98.705356 23.951981 
L 98.705356 22.212141 
L 90 22.212141 
L 90 21.790614 
z
" clip-path="url(#p406b68180d)" style="fill: #ff0000"/>
   </g>
   <g id="patch_5">
    <path d="M 139.571754 25.777738 
Q 137.55162 25.811109 135.367197 25.827988 
Q 133.182775 25.845062 130.803641 25.845062 
Q 123.708831 25.845062 119.565122 25.718563 
Q 115.421412 25.592064 115.421412 25.375735 
Q 115.421412 25.158629 119.565122 25.032324 
Q 123.708831 24.905825 130.803641 24.905825 
Q 133.182775 24.905825 135.367197 24.922899 
Q 137.55162 24.939778 139.571754 24.973149 
L 139.571754 25.160376 
Q 137.533365 25.11614 135.555824 25.095574 
Q 133.578283 25.075008 131.393861 25.075008 
Q 127.475287 25.075008 125.230017 25.155137 
Q 122.990832 25.235072 122.990832 25.375735 
Q 122.990832 25.515815 125.230017 25.595944 
Q 127.475287 25.675879 131.393861 25.675879 
Q 133.578283 25.675879 135.555824 25.655313 
Q 137.533365 25.634553 139.571754 25.590317 
L 139.571754 25.777738 
z
" clip-path="url(#p406b68180d)" style="fill: #0000ff"/>
   </g>
   <g id="patch_6">
    <path d="M 115.421412 21.328922 
L 139.571754 21.328922 
L 139.571754 22.026518 
L 130.883247 22.026518 
L 130.883247 24.905825 
L 124.126768 24.905825 
L 124.126768 22.026518 
L 115.421412 22.026518 
L 115.421412 21.328922 
z
" clip-path="url(#p406b68180d)" style="fill: #ff0000"/>
   </g>
   <g id="patch_7">
    <path d="M 140.842825 23.167901 
L 164.993166 23.167901 
L 164.993166 23.690022 
L 156.30466 23.690022 
L 156.30466 25.845062 
L 149.54818 25.845062 
L 149.54818 23.690022 
L 140.842825 23.690022 
L 140.842825 23.167901 
z
" clip-path="url(#p406b68180d)" style="fill: #ff0000"/>
   </g>
   <g id="patch_8">
    <path d="M 157.571788 22.621363 
L 148.283954 22.621363 
L 146.817454 23.167901 
L 140.842825 23.167901 
L 149.375188 20.167727 
L 156.460803 20.167727 
L 164.993166 23.167901 
L 159.023474 23.167901 
L 157.571788 22.621363 
z
M 149.765267 22.064537 
L 156.075661 22.064537 
L 152.925402 20.871154 
L 149.765267 22.064537 
z
" clip-path="url(#p406b68180d)" style="fill: #008000"/>
   </g>
   <g id="patch_9">
    <path d="M 166.264237 24.003523 
L 190.414579 24.003523 
L 190.414579 24.362674 
L 181.726072 24.362674 
L 181.726072 25.845062 
L 174.969593 25.845062 
L 174.969593 24.362674 
L 166.264237 24.362674 
L 166.264237 24.003523 
z
" clip-path="url(#p406b68180d)" style="fill: #ff0000"/>
   </g>
   <g id="patch_10">
    <path d="M 208.414612 25.703383 
L 199.126779 25.703383 
L 197.660279 25.845062 
L 191.685649 25.845062 
L 200.218013 25.067328 
L 207.303627 25.067328 
L 215.835991 25.845062 
L 209.866299 25.845062 
L 208.414612 25.703383 
z
M 200.608092 25.559037 
L 206.918486 25.559037 
L 203.768227 25.249677 
L 200.608092 25.559037 
z
" clip-path="url(#p406b68180d)" style="fill: #008000"/>
   </g>
   <g id="patch_11">
    <path d="M 191.685649 22.615015 
L 215.835991 22.615015 
L 215.835991 23.093284 
L 207.147484 23.093284 
L 207.147484 25.067328 
L 200.391005 25.067328 
L 200.391005 23.093284 
L 191.685649 23.093284 
L 191.685649 22.615015 
z
" clip-path="url(#p406b68180d)" style="fill: #ff0000"/>
   </g>
   <g id="patch_12">
    <path d="M 217.107062 25.489058 
L 241.257403 25.489058 
L 241.257403 25.558488 
L 232.568897 25.558488 
L 232.568897 25.845062 
L 225.812417 25.845062 
L 225.812417 25.558488 
L 217.107062 25.558488 
L 217.107062 25.489058 
z
" clip-path="url(#p406b68180d)" style="fill: #ff0000"/>
   </g>
   <g id="patch_13">
    <path d="M 241.257403 25.399497 
Q 238.821802 25.444277 236.202177 25.46677 
Q 233.582552 25.489058 230.789729 25.489058 
Q 224.478815 25.489058 220.792938 25.355739 
Q 217.107062 25.222421 217.107062 24.994429 
Q 217.107062 24.76378 220.857888 24.631484 
Q 224.614126 24.499188 231.146951 24.499188 
Q 233.663739 24.499188 235.969442 24.517182 
Q 238.280557 24.534971 240.326462 24.570141 
L 240.326462 24.767461 
Q 238.215608 24.722271 236.126403 24.699983 
Q 234.037198 24.677491 231.937168 24.677491 
Q 228.051031 24.677491 225.945589 24.759691 
Q 223.840146 24.841686 223.840146 24.994429 
Q 223.840146 25.145742 225.869814 25.22835 
Q 227.899482 25.310754 231.634071 25.310754 
Q 232.651611 25.310754 233.523015 25.306051 
Q 234.394419 25.301144 235.087213 25.29092 
L 235.087213 25.105665 
L 231.109064 25.105665 
L 231.109064 24.940652 
L 241.257403 24.940652 
L 241.257403 25.399497 
z
" clip-path="url(#p406b68180d)" style="fill: #ffa600"/>
   </g>
   <g id="patch_14">
    <path d="M 233.836024 23.931408 
L 224.548191 23.931408 
L 223.081691 24.499188 
L 217.107062 24.499188 
L 225.639425 21.382409 
L 232.72504 21.382409 
L 241.257403 24.499188 
L 235.287711 24.499188 
L 233.836024 23.931408 
z
M 226.029504 23.35294 
L 232.339898 23.35294 
L 229.189639 22.113175 
L 226.029504 23.35294 
z
" clip-path="url(#p406b68180d)" style="fill: #008000"/>
   </g>
   <g id="patch_15">
    <path d="M 242.528474 23.316095 
L 266.678815 23.316095 
L 266.678815 23.809314 
L 257.990309 23.809314 
L 257.990309 25.845062 
L 251.23383 25.845062 
L 251.23383 23.809314 
L 242.528474 23.809314 
L 242.528474 23.316095 
z
" clip-path="url(#p406b68180d)" style="fill: #ff0000"/>
   </g>
   <g id="patch_16">
    <path d="M 259.257437 22.79579 
L 249.969603 22.79579 
L 248.503103 23.316095 
L 242.528474 23.316095 
L 251.060837 20.459926 
L 258.146452 20.459926 
L 266.678815 23.316095 
L 260.709124 23.316095 
L 259.257437 22.79579 
z
M 251.450917 22.265691 
L 257.76131 22.265691 
L 254.611051 21.129589 
L 251.450917 22.265691 
z
" clip-path="url(#p406b68180d)" style="fill: #008000"/>
   </g>
   <g id="patch_17">
    <path d="M 284.678849 25.833191 
L 275.391016 25.833191 
L 273.924516 25.845062 
L 267.949886 25.845062 
L 276.48225 25.779896 
L 283.567864 25.779896 
L 292.100228 25.845062 
L 286.130536 25.845062 
L 284.678849 25.833191 
z
M 276.872329 25.821096 
L 283.182723 25.821096 
L 280.032464 25.795175 
L 276.872329 25.821096 
z
" clip-path="url(#p406b68180d)" style="fill: #008000"/>
   </g>
   <g id="patch_18">
    <path d="M 293.371298 25.604018 
L 317.52164 25.604018 
L 317.52164 25.651028 
L 308.833133 25.651028 
L 308.833133 25.845062 
L 302.076654 25.845062 
L 302.076654 25.651028 
L 293.371298 25.651028 
L 293.371298 25.604018 
z
" clip-path="url(#p406b68180d)" style="fill: #ff0000"/>
   </g>
   <g id="patch_19">
    <path d="M 318.792711 19.685132 
L 342.943052 19.685132 
L 342.943052 20.88649 
L 334.254546 20.88649 
L 334.254546 25.845062 
L 327.498066 25.845062 
L 327.498066 20.88649 
L 318.792711 20.88649 
L 318.792711 19.685132 
z
" clip-path="url(#p406b68180d)" style="fill: #ff0000"/>
   </g>
   <g id="patch_20">
    <path d="M 386.364498 25.811369 
L 377.076665 25.811369 
L 375.610165 25.845062 
L 369.635535 25.845062 
L 378.167899 25.660106 
L 385.253513 25.660106 
L 393.785877 25.845062 
L 387.816185 25.845062 
L 386.364498 25.811369 
z
M 378.557978 25.777041 
L 384.868372 25.777041 
L 381.718113 25.703471 
L 378.557978 25.777041 
z
" clip-path="url(#p406b68180d)" style="fill: #008000"/>
   </g>
   <g id="patch_21">
    <path d="M 444.628702 25.740234 
Q 442.608567 25.792195 440.424145 25.818477 
Q 438.239722 25.845062 435.860588 25.845062 
Q 428.765779 25.845062 424.622069 25.648095 
Q 420.47836 25.451128 420.47836 25.114291 
Q 420.47836 24.776245 424.622069 24.579581 
Q 428.765779 24.382614 435.860588 24.382614 
Q 438.239722 24.382614 440.424145 24.409198 
Q 442.608567 24.435481 444.628702 24.487441 
L 444.628702 24.778964 
Q 442.590313 24.710086 440.612772 24.678064 
Q 438.635231 24.646042 436.450808 24.646042 
Q 432.532234 24.646042 430.286964 24.770808 
Q 428.047779 24.895271 428.047779 25.114291 
Q 428.047779 25.332404 430.286964 25.45717 
Q 432.532234 25.581634 436.450808 25.581634 
Q 438.635231 25.581634 440.612772 25.549612 
Q 442.590313 25.517287 444.628702 25.448409 
L 444.628702 25.740234 
z
" clip-path="url(#p406b68180d)" style="fill: #0000ff"/>
   </g>
   <g id="patch_22">
    <path d="M 488.050147 25.514191 
L 478.762314 25.514191 
L 477.295814 25.845062 
L 471.321185 25.845062 
L 479.853548 24.028778 
L 486.939163 24.028778 
L 495.471526 25.845062 
L 489.501834 25.845062 
L 488.050147 25.514191 
z
M 480.243627 25.177093 
L 486.554021 25.177093 
L 483.403762 24.454628 
L 480.243627 25.177093 
z
" clip-path="url(#p406b68180d)" style="fill: #008000"/>
   </g>
   <g id="patch_23">
    <path d="M 513.47156 25.820124 
L 504.183726 25.820124 
L 502.717226 25.845062 
L 496.742597 25.845062 
L 505.27496 25.70817 
L 512.360575 25.70817 
L 520.892938 25.845062 
L 514.923247 25.845062 
L 513.47156 25.820124 
z
M 505.66504 25.794718 
L 511.975433 25.794718 
L 508.825174 25.740266 
L 505.66504 25.794718 
z
" clip-path="url(#p406b68180d)" style="fill: #008000"/>
   </g>
   <g id="patch_24">
    <path d="M 496.742597 25.184467 
L 520.892938 25.184467 
L 520.892938 25.286604 
L 512.204432 25.286604 
L 512.204432 25.70817 
L 505.447953 25.70817 
L 505.447953 25.286604 
L 496.742597 25.286604 
L 496.742597 25.184467 
z
" clip-path="url(#p406b68180d)" style="fill: #ff0000"/>
   </g>
   <g id="patch_25">
    <path d="M 538.892972 25.583753 
L 529.605139 25.583753 
L 528.138639 25.845062 
L 522.164009 25.845062 
L 530.696373 24.410633 
L 537.781987 24.410633 
L 546.314351 25.845062 
L 540.344659 25.845062 
L 538.892972 25.583753 
z
M 531.086452 25.317526 
L 537.396846 25.317526 
L 534.246587 24.746952 
L 531.086452 25.317526 
z
" clip-path="url(#p406b68180d)" style="fill: #008000"/>
   </g>
   <g id="patch_26">
    <path d="M 547.585421 22.951256 
L 571.735763 22.951256 
L 571.735763 23.515629 
L 563.047256 23.515629 
L 563.047256 25.845062 
L 556.290777 25.845062 
L 556.290777 23.515629 
L 547.585421 23.515629 
L 547.585421 22.951256 
z
" clip-path="url(#p406b68180d)" style="fill: #ff0000"/>
   </g>
   <g id="patch_27">
    <path d="M 564.314384 21.286729 
L 555.026551 21.286729 
L 553.560051 22.951256 
L 547.585421 22.951256 
L 556.117785 13.813981 
L 563.203399 13.813981 
L 571.735763 22.951256 
L 565.766071 22.951256 
L 564.314384 21.286729 
z
M 556.507864 19.590869 
L 562.818258 19.590869 
L 559.667999 15.956325 
L 556.507864 19.590869 
z
" clip-path="url(#p406b68180d)" style="fill: #008000"/>
   </g>
   <g id="patch_28">
    <path d="M 589.735797 25.436817 
L 580.447963 25.436817 
L 578.981463 25.845062 
L 573.006834 25.845062 
L 581.539197 23.604036 
L 588.624812 23.604036 
L 597.157175 25.845062 
L 591.187483 25.845062 
L 589.735797 25.436817 
z
M 581.929276 25.020887 
L 588.23967 25.020887 
L 585.089411 24.129471 
L 581.929276 25.020887 
z
" clip-path="url(#p406b68180d)" style="fill: #008000"/>
   </g>
   <g id="patch_29">
    <path d="M 573.006834 20.237215 
L 597.157175 20.237215 
L 597.157175 20.893839 
L 588.468669 20.893839 
L 588.468669 23.604036 
L 581.712189 23.604036 
L 581.712189 20.893839 
L 573.006834 20.893839 
L 573.006834 20.237215 
z
" clip-path="url(#p406b68180d)" style="fill: #ff0000"/>
   </g>
   <g id="patch_30">
    <path d="M 598.428246 23.411965 
L 622.578588 23.411965 
L 622.578588 23.886487 
L 613.890081 23.886487 
L 613.890081 25.845062 
L 607.133602 25.845062 
L 607.133602 23.886487 
L 598.428246 23.886487 
L 598.428246 23.411965 
z
" clip-path="url(#p406b68180d)" style="fill: #ff0000"/>
   </g>
   <g id="patch_31">
    <path d="M 615.157209 22.650536 
L 605.869376 22.650536 
L 604.402876 23.411965 
L 598.428246 23.411965 
L 606.96061 19.232165 
L 614.046224 19.232165 
L 622.578588 23.411965 
L 616.608896 23.411965 
L 615.157209 22.650536 
z
M 607.350689 21.874773 
L 613.661083 21.874773 
L 610.510823 20.21217 
L 607.350689 21.874773 
z
" clip-path="url(#p406b68180d)" style="fill: #008000"/>
   </g>
   <g id="patch_32">
    <path d="M 623.849658 23.365159 
L 648 23.365159 
L 648 23.848809 
L 639.311493 23.848809 
L 639.311493 25.845062 
L 632.555014 25.845062 
L 632.555014 23.848809 
L 623.849658 23.848809 
L 623.849658 23.365159 
z
" clip-path="url(#p406b68180d)" style="fill: #ff0000"/>
   </g>
   <g id="patch_33">
    <path d="M 640.578621 22.858097 
L 631.290788 22.858097 
L 629.824288 23.365159 
L 623.849658 23.365159 
L 632.382022 20.581688 
L 639.467636 20.581688 
L 648 23.365159 
L 642.030308 23.365159 
L 640.578621 22.858097 
z
M 632.772101 22.341491 
L 639.082495 22.341491 
L 635.932236 21.234306 
L 632.772101 22.341491 
z
" clip-path="url(#p406b68180d)" style="fill: #008000"/>
   </g>
   <g id="patch_34">
    <path d="M 114.150342 30.893001 
Q 112.130207 30.685562 109.945785 30.580637 
Q 107.761362 30.474506 105.382228 30.474506 
Q 98.287419 30.474506 94.143709 31.260841 
Q 90 32.047177 90 33.391906 
Q 90 34.74146 94.143709 35.52659 
Q 98.287419 36.312925 105.382228 36.312925 
Q 107.761362 36.312925 109.945785 36.206794 
Q 112.130207 36.101869 114.150342 35.894431 
L 114.150342 34.730606 
Q 112.111953 35.005582 110.134412 35.133422 
Q 108.156871 35.261262 105.972448 35.261262 
Q 102.053874 35.261262 99.808604 34.763169 
Q 97.569419 34.266282 97.569419 33.391906 
Q 97.569419 32.521149 99.808604 32.023056 
Q 102.053874 31.526169 105.972448 31.526169 
Q 108.156871 31.526169 110.134412 31.654009 
Q 112.111953 31.783055 114.150342 32.058031 
L 114.150342 30.893001 
z
" clip-path="url(#p406b68180d)" style="fill: #0000ff"/>
   </g>
   <g id="patch_35">
    <path d="M 114.150342 26.263921 
Q 111.71474 26.054491 109.095116 25.949298 
Q 106.475491 25.845062 103.682668 25.845062 
Q 97.371754 25.845062 93.685877 26.468569 
Q 90 27.092076 90 28.158349 
Q 90 29.237055 93.750826 29.855781 
Q 97.507065 30.474506 104.039889 30.474506 
Q 106.556678 30.474506 108.86238 30.390352 
Q 111.173495 30.307154 113.219401 30.14267 
L 113.219401 29.219842 
Q 111.108546 29.431184 109.019341 29.53542 
Q 106.930136 29.640613 104.830107 29.640613 
Q 100.943969 29.640613 98.838527 29.256181 
Q 96.733085 28.872705 96.733085 28.158349 
Q 96.733085 27.450688 98.762753 27.064343 
Q 100.792421 26.678955 104.52701 26.678955 
Q 105.54455 26.678955 106.415954 26.70095 
Q 107.287358 26.723901 107.980151 26.771716 
L 107.980151 27.638123 
L 104.002002 27.638123 
L 104.002002 28.409856 
L 114.150342 28.409856 
L 114.150342 26.263921 
z
" clip-path="url(#p406b68180d)" style="fill: #ffa600"/>
   </g>
   <g id="patch_36">
    <path d="M 132.150375 25.960919 
L 122.862542 25.960919 
L 121.396042 25.845062 
L 115.421412 25.845062 
L 123.953776 26.48105 
L 131.03939 26.48105 
L 139.571754 25.845062 
L 133.602062 25.845062 
L 132.150375 25.960919 
z
M 124.343855 26.078957 
L 130.654249 26.078957 
L 127.50399 26.331935 
L 124.343855 26.078957 
z
" clip-path="url(#p406b68180d)" style="fill: #008000"/>
   </g>
   <g id="patch_37">
    <path d="M 139.571754 28.098435 
Q 137.136153 27.289742 134.516528 26.88355 
Q 131.896903 26.48105 129.10408 26.48105 
Q 122.793166 26.48105 119.107289 28.888664 
Q 115.421412 31.296279 115.421412 35.413595 
Q 115.421412 39.578916 119.172239 41.968067 
Q 122.928477 44.357218 129.461302 44.357218 
Q 131.97809 44.357218 134.283793 44.032264 
Q 136.594908 43.711002 138.640813 43.075865 
L 138.640813 39.512448 
Q 136.529958 40.328526 134.440754 40.731026 
Q 132.351549 41.137218 130.251519 41.137218 
Q 126.365382 41.137218 124.259939 39.652769 
Q 122.154497 38.172012 122.154497 35.413595 
Q 122.154497 32.681026 124.184165 31.189192 
Q 126.213833 29.701049 129.948422 29.701049 
Q 130.965962 29.701049 131.837366 29.785981 
Q 132.70877 29.874605 133.401564 30.059238 
L 133.401564 33.404788 
L 129.423415 33.404788 
L 129.423415 36.384764 
L 139.571754 36.384764 
L 139.571754 28.098435 
z
" clip-path="url(#p406b68180d)" style="fill: #ffa600"/>
   </g>
   <g id="patch_38">
    <path d="M 164.993166 29.592542 
Q 162.973032 29.108685 160.788609 28.863943 
Q 158.604187 28.616388 156.225053 28.616388 
Q 149.130243 28.616388 144.986534 30.450545 
Q 140.842825 32.284702 140.842825 35.421335 
Q 140.842825 38.56922 144.986534 40.400564 
Q 149.130243 42.234721 156.225053 42.234721 
Q 158.604187 42.234721 160.788609 41.987166 
Q 162.973032 41.742424 164.993166 41.258567 
L 164.993166 38.543902 
Q 162.954778 39.185295 160.977236 39.483486 
Q 158.999695 39.781677 156.815273 39.781677 
Q 152.896699 39.781677 150.651429 38.619857 
Q 148.412244 37.46085 148.412244 35.421335 
Q 148.412244 33.390259 150.651429 32.228439 
Q 152.896699 31.069432 156.815273 31.069432 
Q 158.999695 31.069432 160.977236 31.367623 
Q 162.954778 31.668627 164.993166 32.31002 
L 164.993166 29.592542 
z
" clip-path="url(#p406b68180d)" style="fill: #0000ff"/>
   </g>
   <g id="patch_39">
    <path d="M 164.993166 26.095804 
Q 162.557565 25.970433 159.93794 25.907461 
Q 157.318315 25.845062 154.525492 25.845062 
Q 148.214578 25.845062 144.528701 26.218312 
Q 140.842825 26.591562 140.842825 27.229866 
Q 140.842825 27.875612 144.593651 28.246 
Q 148.34989 28.616388 154.882714 28.616388 
Q 157.399502 28.616388 159.705205 28.566011 
Q 162.01632 28.516206 164.062225 28.417741 
L 164.062225 27.865308 
Q 161.951371 27.991823 159.862166 28.054223 
Q 157.772961 28.117194 155.672931 28.117194 
Q 151.786794 28.117194 149.681352 27.887061 
Q 147.57591 27.657501 147.57591 27.229866 
Q 147.57591 26.806239 149.605577 26.574961 
Q 151.635245 26.344255 155.369834 26.344255 
Q 156.387374 26.344255 157.258779 26.357422 
Q 158.130183 26.371161 158.822976 26.399785 
L 158.822976 26.918443 
L 154.844827 26.918443 
L 154.844827 27.380426 
L 164.993166 27.380426 
L 164.993166 26.095804 
z
" clip-path="url(#p406b68180d)" style="fill: #ffa600"/>
   </g>
   <g id="patch_40">
    <path d="M 182.9932 31.065381 
L 173.705367 31.065381 
L 172.238867 29.597317 
L 166.264237 29.597317 
L 174.796601 37.656123 
L 181.882215 37.656123 
L 190.414579 29.597317 
L 184.444887 29.597317 
L 182.9932 31.065381 
z
M 175.18668 32.561078 
L 181.497074 32.561078 
L 178.346814 35.766638 
L 175.18668 32.561078 
z
" clip-path="url(#p406b68180d)" style="fill: #008000"/>
   </g>
   <g id="patch_41">
    <path d="M 190.414579 26.114021 
Q 188.394444 25.980704 186.210022 25.91327 
Q 184.025599 25.845062 181.646465 25.845062 
Q 174.551656 25.845062 170.407946 26.350426 
Q 166.264237 26.855791 166.264237 27.720027 
Q 166.264237 28.587363 170.407946 29.091952 
Q 174.551656 29.597317 181.646465 29.597317 
Q 184.025599 29.597317 186.210022 29.529108 
Q 188.394444 29.461675 190.414579 29.328358 
L 190.414579 28.580387 
Q 188.37619 28.757109 186.398649 28.83927 
Q 184.421108 28.92143 182.236685 28.92143 
Q 178.318111 28.92143 176.072841 28.601314 
Q 173.833656 28.281974 173.833656 27.720027 
Q 173.833656 27.160405 176.072841 26.840289 
Q 178.318111 26.520948 182.236685 26.520948 
Q 184.421108 26.520948 186.398649 26.603109 
Q 188.37619 26.686044 190.414579 26.862767 
L 190.414579 26.114021 
z
" clip-path="url(#p406b68180d)" style="fill: #0000ff"/>
   </g>
   <g id="patch_42">
    <path d="M 190.414579 38.830749 
Q 187.978977 38.243436 185.359352 37.948438 
Q 182.739728 37.656123 179.946905 37.656123 
Q 173.635991 37.656123 169.950114 39.404654 
Q 166.264237 41.153185 166.264237 44.143388 
Q 166.264237 47.168454 170.015063 48.903576 
Q 173.771302 50.638698 180.304126 50.638698 
Q 182.820914 50.638698 185.126617 50.4027 
Q 187.437732 50.169384 189.483638 49.708115 
L 189.483638 47.120181 
Q 187.372783 47.712858 185.283578 48.005174 
Q 183.194373 48.300172 181.094344 48.300172 
Q 177.208206 48.300172 175.102764 47.22209 
Q 172.997322 46.146689 172.997322 44.143388 
Q 172.997322 42.158858 175.02699 41.075413 
Q 177.056658 39.994649 180.791247 39.994649 
Q 181.808787 39.994649 182.680191 40.05633 
Q 183.551595 40.120693 184.244388 40.254783 
L 184.244388 42.68449 
L 180.266239 42.68449 
L 180.266239 44.8487 
L 190.414579 44.8487 
L 190.414579 38.830749 
z
" clip-path="url(#p406b68180d)" style="fill: #ffa600"/>
   </g>
   <g id="patch_43">
    <path d="M 215.835991 27.037399 
Q 213.815856 26.446384 211.631434 26.147441 
Q 209.447012 25.845062 207.067877 25.845062 
Q 199.973068 25.845062 195.829359 28.085418 
Q 191.685649 30.325774 191.685649 34.157058 
Q 191.685649 38.002087 195.829359 40.239007 
Q 199.973068 42.479363 207.067877 42.479363 
Q 209.447012 42.479363 211.631434 42.176984 
Q 213.815856 41.878041 215.835991 41.287026 
L 215.835991 37.971162 
Q 213.797602 38.754599 211.820061 39.118829 
Q 209.84252 39.483059 207.658097 39.483059 
Q 203.739523 39.483059 201.494254 38.063937 
Q 199.255068 36.648252 199.255068 34.157058 
Q 199.255068 31.676173 201.494254 30.257052 
Q 203.739523 28.841366 207.658097 28.841366 
Q 209.84252 28.841366 211.820061 29.205596 
Q 213.797602 29.573262 215.835991 30.356699 
L 215.835991 27.037399 
z
" clip-path="url(#p406b68180d)" style="fill: #0000ff"/>
   </g>
   <g id="patch_44">
    <path d="M 215.835991 46.674067 
Q 213.400389 44.576715 210.780765 43.523251 
Q 208.16114 42.479363 205.368317 42.479363 
Q 199.057403 42.479363 195.371526 48.723534 
Q 191.685649 54.967706 191.685649 65.646004 
Q 191.685649 76.448804 195.436475 82.64509 
Q 199.192714 88.841376 205.725539 88.841376 
Q 208.242327 88.841376 210.548029 87.998605 
Q 212.859145 87.16541 214.90505 85.518175 
L 214.90505 76.276419 
Q 212.794195 78.392924 210.70499 79.436812 
Q 208.615786 80.490276 206.515756 80.490276 
Q 202.629618 80.490276 200.524176 76.640343 
Q 198.418734 72.799986 198.418734 65.646004 
Q 198.418734 58.559062 200.448402 54.689974 
Q 202.47807 50.830463 206.212659 50.830463 
Q 207.230199 50.830463 208.101603 51.050733 
Q 208.973007 51.28058 209.6658 51.759427 
L 209.6658 60.436144 
L 205.687651 60.436144 
L 205.687651 68.164742 
L 215.835991 68.164742 
L 215.835991 46.674067 
z
" clip-path="url(#p406b68180d)" style="fill: #ffa600"/>
   </g>
   <g id="patch_45">
    <path d="M 241.257403 34.365057 
Q 239.237269 30.141889 237.052846 28.005752 
Q 234.868424 25.845062 232.48929 25.845062 
Q 225.39448 25.845062 221.250771 41.853813 
Q 217.107062 57.862565 217.107062 85.239494 
Q 217.107062 112.714637 221.250771 128.698835 
Q 225.39448 144.707587 232.48929 144.707587 
Q 234.868424 144.707587 237.052846 142.546897 
Q 239.237269 140.41076 241.257403 136.187592 
L 241.257403 112.493657 
Q 239.219015 118.09181 237.241473 120.69446 
Q 235.263932 123.297109 233.07951 123.297109 
Q 229.160936 123.297109 226.915666 113.156597 
Q 224.676481 103.040637 224.676481 85.239494 
Q 224.676481 67.512012 226.915666 57.371499 
Q 229.160936 47.255539 233.07951 47.255539 
Q 235.263932 47.255539 237.241473 49.858189 
Q 239.219015 52.485392 241.257403 58.083545 
L 241.257403 34.365057 
z
" clip-path="url(#p406b68180d)" style="fill: #0000ff"/>
   </g>
   <g id="patch_46">
    <path d="M 266.678815 25.882052 
Q 264.658681 25.863717 262.474259 25.854443 
Q 260.289836 25.845062 257.910702 25.845062 
Q 250.815893 25.845062 246.672183 25.914566 
Q 242.528474 25.98407 242.528474 26.102931 
Q 242.528474 26.222218 246.672183 26.291615 
Q 250.815893 26.36112 257.910702 26.36112 
Q 260.289836 26.36112 262.474259 26.351739 
Q 264.658681 26.342464 266.678815 26.324129 
L 266.678815 26.221258 
Q 264.640427 26.245564 262.662886 26.256863 
Q 260.685344 26.268163 258.500922 26.268163 
Q 254.582348 26.268163 252.337078 26.224137 
Q 250.097893 26.180217 250.097893 26.102931 
Q 250.097893 26.025965 252.337078 25.981938 
Q 254.582348 25.938018 258.500922 25.938018 
Q 260.685344 25.938018 262.662886 25.949318 
Q 264.640427 25.960724 266.678815 25.98503 
L 266.678815 25.882052 
z
" clip-path="url(#p406b68180d)" style="fill: #0000ff"/>
   </g>
   <g id="patch_47">
    <path d="M 266.678815 37.001302 
Q 264.243214 31.681211 261.623589 29.009019 
Q 259.003965 26.36112 256.211142 26.36112 
Q 249.900228 26.36112 246.214351 42.19993 
Q 242.528474 58.038741 242.528474 85.12505 
Q 242.528474 112.527164 246.2793 128.244511 
Q 250.035539 143.961859 256.568363 143.961859 
Q 259.085151 143.961859 261.390854 141.824105 
Q 263.701969 139.710644 265.747874 135.532308 
L 265.747874 112.089896 
Q 263.63702 117.458573 261.547815 120.106472 
Q 259.45861 122.778664 257.358581 122.778664 
Q 253.472443 122.778664 251.367001 113.013017 
Q 249.261559 103.271663 249.261559 85.12505 
Q 249.261559 67.148486 251.291227 57.334254 
Q 253.320895 47.544314 257.055483 47.544314 
Q 258.073024 47.544314 258.944428 48.103045 
Q 259.815832 48.686069 260.508625 49.900702 
L 260.508625 71.909846 
L 256.530476 71.909846 
L 256.530476 91.514018 
L 266.678815 91.514018 
L 266.678815 37.001302 
z
" clip-path="url(#p406b68180d)" style="fill: #ffa600"/>
   </g>
   <g id="patch_48">
    <path d="M 292.100228 37.74965 
Q 290.080093 32.437967 287.895671 29.751243 
Q 285.711249 27.033638 283.332114 27.033638 
Q 276.237305 27.033638 272.093596 47.168624 
Q 267.949886 67.30361 267.949886 101.736906 
Q 267.949886 136.293731 272.093596 156.397835 
Q 276.237305 176.532821 283.332114 176.532821 
Q 285.711249 176.532821 287.895671 173.815215 
Q 290.080093 171.128492 292.100228 165.816808 
L 292.100228 136.015794 
Q 290.061839 143.056862 288.084298 146.330342 
Q 286.106757 149.603821 283.922334 149.603821 
Q 280.00376 149.603821 277.75849 136.849604 
Q 275.519305 124.12627 275.519305 101.736906 
Q 275.519305 79.440189 277.75849 66.685972 
Q 280.00376 53.962638 283.922334 53.962638 
Q 286.106757 53.962638 288.084298 57.236117 
Q 290.061839 60.540478 292.100228 67.581547 
L 292.100228 37.74965 
z
" clip-path="url(#p406b68180d)" style="fill: #0000ff"/>
   </g>
   <g id="patch_49">
    <path d="M 292.100228 25.952601 
Q 289.664626 25.898831 287.045002 25.871824 
Q 284.425377 25.845062 281.632554 25.845062 
Q 275.32164 25.845062 271.635763 26.005143 
Q 267.949886 26.165224 267.949886 26.438982 
Q 267.949886 26.715931 271.700712 26.874785 
Q 275.456951 27.033638 281.989775 27.033638 
Q 284.506564 27.033638 286.812266 27.012032 
Q 289.123382 26.990671 291.169287 26.948441 
L 291.169287 26.711512 
Q 289.058432 26.765772 286.969227 26.792534 
Q 284.880023 26.819542 282.779993 26.819542 
Q 278.893855 26.819542 276.788413 26.720842 
Q 274.682971 26.622387 274.682971 26.438982 
Q 274.682971 26.257295 276.712639 26.158103 
Q 278.742307 26.059158 282.476896 26.059158 
Q 283.494436 26.059158 284.36584 26.064805 
Q 285.237244 26.070697 285.930037 26.082973 
L 285.930037 26.305417 
L 281.951888 26.305417 
L 281.951888 26.503554 
L 292.100228 26.503554 
L 292.100228 25.952601 
z
" clip-path="url(#p406b68180d)" style="fill: #ffa600"/>
   </g>
   <g id="patch_50">
    <path d="M 310.100261 27.020339 
L 300.812428 27.020339 
L 299.345928 26.805609 
L 293.371298 26.805609 
L 301.903662 27.984351 
L 308.989276 27.984351 
L 317.52164 26.805609 
L 311.551948 26.805609 
L 310.100261 27.020339 
z
M 302.293741 27.239111 
L 308.604135 27.239111 
L 305.453876 27.707981 
L 302.293741 27.239111 
z
" clip-path="url(#p406b68180d)" style="fill: #008000"/>
   </g>
   <g id="patch_51">
    <path d="M 317.52164 39.775376 
Q 315.501506 33.930833 313.317083 30.974582 
Q 311.132661 27.984351 308.753527 27.984351 
Q 301.658717 27.984351 297.515008 50.139245 
Q 293.371298 72.29414 293.371298 110.181728 
Q 293.371298 148.205235 297.515008 170.32615 
Q 301.658717 192.481044 308.753527 192.481044 
Q 311.132661 192.481044 313.317083 189.490813 
Q 315.501506 186.534562 317.52164 180.690019 
L 317.52164 147.899416 
Q 315.483251 155.646833 313.50571 159.248702 
Q 311.528169 162.850572 309.343747 162.850572 
Q 305.425173 162.850572 303.179903 148.816873 
Q 300.940718 134.817155 300.940718 110.181728 
Q 300.940718 85.64824 303.179903 71.614542 
Q 305.425173 57.614823 309.343747 57.614823 
Q 311.528169 57.614823 313.50571 61.216693 
Q 315.483251 64.852542 317.52164 72.599959 
L 317.52164 39.775376 
z
" clip-path="url(#p406b68180d)" style="fill: #0000ff"/>
   </g>
   <g id="patch_52">
    <path d="M 317.52164 25.931969 
Q 315.086039 25.888516 312.466414 25.866689 
Q 309.846789 25.845062 307.053966 25.845062 
Q 300.743052 25.845062 297.057175 25.974431 
Q 293.371298 26.1038 293.371298 26.325038 
Q 293.371298 26.548855 297.122125 26.677232 
Q 300.878363 26.805609 307.411188 26.805609 
Q 309.927976 26.805609 312.233679 26.788148 
Q 314.544794 26.770886 316.590699 26.736758 
L 316.590699 26.545283 
Q 314.479844 26.589134 312.39064 26.610762 
Q 310.301435 26.632588 308.201405 26.632588 
Q 304.315268 26.632588 302.209826 26.552823 
Q 300.104383 26.473257 300.104383 26.325038 
Q 300.104383 26.178208 302.134051 26.098046 
Q 304.163719 26.018083 307.898308 26.018083 
Q 308.915848 26.018083 309.787252 26.022647 
Q 310.658656 26.027409 311.35145 26.03733 
L 311.35145 26.217098 
L 307.373301 26.217098 
L 307.373301 26.377222 
L 317.52164 26.377222 
L 317.52164 25.931969 
z
" clip-path="url(#p406b68180d)" style="fill: #ffa600"/>
   </g>
   <g id="patch_53">
    <path d="M 335.521674 26.406767 
L 326.23384 26.406767 
L 324.76734 25.845062 
L 318.792711 25.845062 
L 327.325074 28.928493 
L 334.410689 28.928493 
L 342.943052 25.845062 
L 336.97336 25.845062 
L 335.521674 26.406767 
z
M 327.715153 26.979045 
L 334.025547 26.979045 
L 330.875288 28.205545 
L 327.715153 26.979045 
z
" clip-path="url(#p406b68180d)" style="fill: #008000"/>
   </g>
   <g id="patch_54">
    <path d="M 342.943052 42.384273 
Q 340.922918 40.71747 338.738496 39.874378 
Q 336.554073 39.021596 334.174939 39.021596 
Q 327.08013 39.021596 322.93642 45.33994 
Q 318.792711 51.658285 318.792711 62.46343 
Q 318.792711 73.307338 322.93642 79.615992 
Q 327.08013 85.934337 334.174939 85.934337 
Q 336.554073 85.934337 338.738496 85.081555 
Q 340.922918 84.238463 342.943052 82.57166 
L 342.943052 73.220122 
Q 340.904664 75.429604 338.927123 76.45682 
Q 336.949581 77.484036 334.765159 77.484036 
Q 330.846585 77.484036 328.601315 73.481771 
Q 326.36213 69.489197 326.36213 62.46343 
Q 326.36213 55.466736 328.601315 51.464471 
Q 330.846585 47.471897 334.765159 47.471897 
Q 336.949581 47.471897 338.927123 48.499113 
Q 340.904664 49.536019 342.943052 51.745502 
L 342.943052 42.384273 
z
" clip-path="url(#p406b68180d)" style="fill: #0000ff"/>
   </g>
   <g id="patch_55">
    <path d="M 342.943052 29.841688 
Q 340.507451 29.38509 337.887826 29.155749 
Q 335.268202 28.928493 332.475379 28.928493 
Q 326.164464 28.928493 322.478588 30.287861 
Q 318.792711 31.64723 318.792711 33.971917 
Q 318.792711 36.323708 322.543537 37.672652 
Q 326.299776 39.021596 332.8326 39.021596 
Q 335.349388 39.021596 337.655091 38.838122 
Q 339.966206 38.656734 342.012111 38.298128 
L 342.012111 36.286179 
Q 339.901257 36.746947 337.812052 36.974203 
Q 335.722847 37.203544 333.622817 37.203544 
Q 329.73668 37.203544 327.631238 36.365406 
Q 325.525796 35.529353 325.525796 33.971917 
Q 325.525796 32.429075 327.555464 31.586767 
Q 329.585131 30.746544 333.31972 30.746544 
Q 334.337261 30.746544 335.208665 30.794497 
Q 336.080069 30.844535 336.772862 30.948781 
L 336.772862 32.83772 
L 332.794713 32.83772 
L 332.794713 34.520251 
L 342.943052 34.520251 
L 342.943052 29.841688 
z
" clip-path="url(#p406b68180d)" style="fill: #ffa600"/>
   </g>
   <g id="patch_56">
    <path d="M 360.943086 26.377964 
L 351.655253 26.377964 
L 350.188753 26.139617 
L 344.214123 26.139617 
L 352.746487 27.448005 
L 359.832101 27.448005 
L 368.364465 26.139617 
L 362.394773 26.139617 
L 360.943086 26.377964 
z
M 353.136566 26.620799 
L 359.44696 26.620799 
L 356.2967 27.141238 
L 353.136566 26.620799 
z
" clip-path="url(#p406b68180d)" style="fill: #008000"/>
   </g>
   <g id="patch_57">
    <path d="M 368.364465 45.874463 
Q 366.34433 43.002475 364.159908 41.549783 
Q 361.975485 40.080394 359.596351 40.080394 
Q 352.501542 40.080394 348.357832 50.967232 
Q 344.214123 61.85407 344.214123 80.471899 
Q 344.214123 99.156518 348.357832 110.026658 
Q 352.501542 120.913496 359.596351 120.913496 
Q 361.975485 120.913496 364.159908 119.444107 
Q 366.34433 117.991415 368.364465 115.119427 
L 368.364465 99.006239 
Q 366.326076 102.813293 364.348535 104.583239 
Q 362.370994 106.353185 360.186571 106.353185 
Q 356.267997 106.353185 354.022727 99.457074 
Q 351.783542 92.577662 351.783542 80.471899 
Q 351.783542 68.416228 354.022727 61.520118 
Q 356.267997 54.640705 360.186571 54.640705 
Q 362.370994 54.640705 364.348535 56.410651 
Q 366.326076 58.197295 368.364465 62.004348 
L 368.364465 45.874463 
z
" clip-path="url(#p406b68180d)" style="fill: #0000ff"/>
   </g>
   <g id="patch_58">
    <path d="M 368.364465 25.871712 
Q 365.928863 25.858387 363.309239 25.851694 
Q 360.689614 25.845062 357.896791 25.845062 
Q 351.585877 25.845062 347.9 25.884733 
Q 344.214123 25.924405 344.214123 25.992248 
Q 344.214123 26.060882 347.964949 26.100249 
Q 351.721188 26.139617 358.254012 26.139617 
Q 360.770801 26.139617 363.076503 26.134262 
Q 365.387618 26.128969 367.433524 26.118503 
L 367.433524 26.059787 
Q 365.322669 26.073234 363.233464 26.079866 
Q 361.144259 26.086559 359.04423 26.086559 
Q 355.158092 26.086559 353.05265 26.062099 
Q 350.947208 26.0377 350.947208 25.992248 
Q 350.947208 25.947222 352.976876 25.92264 
Q 355.006544 25.898119 358.741133 25.898119 
Q 359.758673 25.898119 360.630077 25.899519 
Q 361.501481 25.900979 362.194274 25.904021 
L 362.194274 25.959148 
L 358.216125 25.959148 
L 358.216125 26.00825 
L 368.364465 26.00825 
L 368.364465 25.871712 
z
" clip-path="url(#p406b68180d)" style="fill: #ffa600"/>
   </g>
   <g id="patch_59">
    <path d="M 344.214123 40.080394 
L 368.364465 40.080394 
L 368.364465 37.616726 
L 359.675958 37.616726 
L 359.675958 27.448005 
L 352.919479 27.448005 
L 352.919479 37.616726 
L 344.214123 37.616726 
L 344.214123 40.080394 
z
" clip-path="url(#p406b68180d)" style="fill: #ff0000"/>
   </g>
   <g id="patch_60">
    <path d="M 393.785877 39.149628 
Q 391.765743 34.276325 389.58132 31.81134 
Q 387.396898 29.318022 385.017764 29.318022 
Q 377.922954 29.318022 373.779245 47.791241 
Q 369.635535 66.26446 369.635535 97.85593 
Q 369.635535 129.560734 373.779245 148.005619 
Q 377.922954 166.478838 385.017764 166.478838 
Q 387.396898 166.478838 389.58132 163.98552 
Q 391.765743 161.520535 393.785877 156.647232 
L 393.785877 129.305735 
Q 391.747488 135.765695 389.769947 138.76901 
Q 387.792406 141.772324 385.607984 141.772324 
Q 381.68941 141.772324 379.44414 130.07073 
Q 377.204955 118.397469 377.204955 97.85593 
Q 377.204955 77.399391 379.44414 65.697797 
Q 381.68941 54.024536 385.607984 54.024536 
Q 387.792406 54.024536 389.769947 57.02785 
Q 391.747488 60.059498 393.785877 66.519458 
L 393.785877 39.149628 
z
" clip-path="url(#p406b68180d)" style="fill: #0000ff"/>
   </g>
   <g id="patch_61">
    <path d="M 393.785877 25.852244 
Q 391.350276 25.848653 388.730651 25.846849 
Q 386.111026 25.845062 383.318203 25.845062 
Q 377.007289 25.845062 373.321412 25.855753 
Q 369.635535 25.866445 369.635535 25.884729 
Q 369.635535 25.903226 373.386362 25.913836 
Q 377.1426 25.924446 383.675425 25.924446 
Q 386.192213 25.924446 388.497916 25.923003 
Q 390.809031 25.921576 392.854936 25.918755 
L 392.854936 25.902931 
Q 390.744081 25.906555 388.654877 25.908343 
Q 386.565672 25.910146 384.465642 25.910146 
Q 380.579505 25.910146 378.474062 25.903554 
Q 376.36862 25.896979 376.36862 25.884729 
Q 376.36862 25.872594 378.398288 25.86597 
Q 380.427956 25.859361 384.162545 25.859361 
Q 385.180085 25.859361 386.051489 25.859738 
Q 386.922893 25.860132 387.615687 25.860952 
L 387.615687 25.875808 
L 383.637538 25.875808 
L 383.637538 25.889042 
L 393.785877 25.889042 
L 393.785877 25.852244 
z
" clip-path="url(#p406b68180d)" style="fill: #ffa600"/>
   </g>
   <g id="patch_62">
    <path d="M 369.635535 29.318022 
L 393.785877 29.318022 
L 393.785877 28.65618 
L 385.09737 28.65618 
L 385.09737 25.924446 
L 378.340891 25.924446 
L 378.340891 28.65618 
L 369.635535 28.65618 
L 369.635535 29.318022 
z
" clip-path="url(#p406b68180d)" style="fill: #ff0000"/>
   </g>
   <g id="patch_63">
    <path d="M 411.785911 30.96913 
L 402.498077 30.96913 
L 401.031577 28.780119 
L 395.056948 28.780119 
L 403.589311 40.796502 
L 410.674926 40.796502 
L 419.207289 28.780119 
L 413.237597 28.780119 
L 411.785911 30.96913 
z
M 403.97939 33.199346 
L 410.289784 33.199346 
L 407.139525 37.979116 
L 403.97939 33.199346 
z
" clip-path="url(#p406b68180d)" style="fill: #008000"/>
   </g>
   <g id="patch_64">
    <path d="M 419.207289 27.405937 
Q 417.187155 27.353342 415.002732 27.326739 
Q 412.81831 27.29983 410.439176 27.29983 
Q 403.344366 27.29983 399.200657 27.4992 
Q 395.056948 27.69857 395.056948 28.039516 
Q 395.056948 28.381686 399.200657 28.580749 
Q 403.344366 28.780119 410.439176 28.780119 
Q 412.81831 28.780119 415.002732 28.75321 
Q 417.187155 28.726607 419.207289 28.674013 
L 419.207289 28.378933 
Q 417.168901 28.448652 415.191359 28.481065 
Q 413.213818 28.513477 411.029396 28.513477 
Q 407.110822 28.513477 404.865552 28.38719 
Q 402.626367 28.261208 402.626367 28.039516 
Q 402.626367 27.818742 404.865552 27.692454 
Q 407.110822 27.566472 411.029396 27.566472 
Q 413.213818 27.566472 415.191359 27.598885 
Q 417.168901 27.631603 419.207289 27.701322 
L 419.207289 27.405937 
z
" clip-path="url(#p406b68180d)" style="fill: #0000ff"/>
   </g>
   <g id="patch_65">
    <path d="M 419.207289 25.976685 
Q 416.771688 25.910873 414.152063 25.877817 
Q 411.532438 25.845062 408.739615 25.845062 
Q 402.428701 25.845062 398.742824 26.040994 
Q 395.056948 26.236927 395.056948 26.571995 
Q 395.056948 26.910971 398.807774 27.1054 
Q 402.564013 27.29983 409.096837 27.29983 
Q 411.613625 27.29983 413.919328 27.273386 
Q 416.230443 27.247241 418.276348 27.195553 
L 418.276348 26.905561 
Q 416.165494 26.971974 414.076289 27.00473 
Q 411.987084 27.037786 409.887054 27.037786 
Q 406.000917 27.037786 403.895475 26.916981 
Q 401.790033 26.796476 401.790033 26.571995 
Q 401.790033 26.349618 403.8197 26.228212 
Q 405.849368 26.107106 409.583957 26.107106 
Q 410.601497 26.107106 411.472902 26.114018 
Q 412.344306 26.12123 413.037099 26.136256 
L 413.037099 26.408518 
L 409.05895 26.408518 
L 409.05895 26.651029 
L 419.207289 26.651029 
L 419.207289 25.976685 
z
" clip-path="url(#p406b68180d)" style="fill: #ffa600"/>
   </g>
   <g id="patch_66">
    <path d="M 395.056948 128.037022 
L 419.207289 128.037022 
L 419.207289 111.02269 
L 410.518783 111.02269 
L 410.518783 40.796502 
L 403.762303 40.796502 
L 403.762303 111.02269 
L 395.056948 111.02269 
L 395.056948 128.037022 
z
" clip-path="url(#p406b68180d)" style="fill: #ff0000"/>
   </g>
   <g id="patch_67">
    <path d="M 437.207323 30.91799 
L 427.91949 30.91799 
L 426.45299 28.122623 
L 420.47836 28.122623 
L 429.010724 43.46754 
L 436.096338 43.46754 
L 444.628702 28.122623 
L 438.65901 28.122623 
L 437.207323 30.91799 
z
M 429.400803 33.765975 
L 435.711197 33.765975 
L 432.560937 39.869739 
L 429.400803 33.765975 
z
" clip-path="url(#p406b68180d)" style="fill: #008000"/>
   </g>
   <g id="patch_68">
    <path d="M 444.628702 48.113055 
Q 442.1931 45.790297 439.573475 44.623616 
Q 436.953851 43.46754 434.161028 43.46754 
Q 427.850114 43.46754 424.164237 50.382781 
Q 420.47836 57.298022 420.47836 69.123933 
Q 420.47836 81.087724 424.229186 87.949934 
Q 427.985425 94.812144 434.518249 94.812144 
Q 437.035037 94.812144 439.34074 93.878799 
Q 441.651855 92.95606 443.697761 91.131794 
L 443.697761 80.896813 
Q 441.586906 83.240783 439.497701 84.396858 
Q 437.408496 85.56354 435.308467 85.56354 
Q 431.422329 85.56354 429.316887 81.299848 
Q 427.211445 77.046763 427.211445 69.123933 
Q 427.211445 61.275347 429.241113 56.990443 
Q 431.270781 52.716145 435.00537 52.716145 
Q 436.02291 52.716145 436.894314 52.960087 
Q 437.765718 53.214636 438.458511 53.744946 
L 438.458511 63.354161 
L 434.480362 63.354161 
L 434.480362 71.913363 
L 444.628702 71.913363 
L 444.628702 48.113055 
z
" clip-path="url(#p406b68180d)" style="fill: #ffa600"/>
   </g>
   <g id="patch_69">
    <path d="M 420.47836 28.122623 
L 444.628702 28.122623 
L 444.628702 27.678435 
L 435.940195 27.678435 
L 435.940195 25.845062 
L 429.183716 25.845062 
L 429.183716 27.678435 
L 420.47836 27.678435 
L 420.47836 28.122623 
z
" clip-path="url(#p406b68180d)" style="fill: #ff0000"/>
   </g>
   <g id="patch_70">
    <path d="M 462.628735 25.987515 
L 453.340902 25.987515 
L 451.874402 25.845062 
L 445.899772 25.845062 
L 454.432136 26.627044 
L 461.51775 26.627044 
L 470.050114 25.845062 
L 464.080422 25.845062 
L 462.628735 25.987515 
z
M 454.822215 26.132649 
L 461.132609 26.132649 
L 457.98235 26.443699 
L 454.822215 26.132649 
z
" clip-path="url(#p406b68180d)" style="fill: #008000"/>
   </g>
   <g id="patch_71">
    <path d="M 470.050114 28.5129 
Q 468.029979 28.088555 465.845557 27.873915 
Q 463.661135 27.656808 461.282 27.656808 
Q 454.187191 27.656808 450.043482 29.265372 
Q 445.899772 30.873937 445.899772 33.624779 
Q 445.899772 36.385489 450.043482 37.991587 
Q 454.187191 39.600151 461.282 39.600151 
Q 463.661135 39.600151 465.845557 39.383044 
Q 468.029979 39.168404 470.050114 38.744059 
L 470.050114 36.363285 
Q 468.011725 36.925789 466.034184 37.187304 
Q 464.056643 37.44882 461.87222 37.44882 
Q 457.953646 37.44882 455.708377 36.429898 
Q 453.469191 35.413443 453.469191 33.624779 
Q 453.469191 31.843516 455.708377 30.824594 
Q 457.953646 29.808139 461.87222 29.808139 
Q 464.056643 29.808139 466.034184 30.069654 
Q 468.011725 30.333637 470.050114 30.896141 
L 470.050114 28.5129 
z
" clip-path="url(#p406b68180d)" style="fill: #0000ff"/>
   </g>
   <g id="patch_72">
    <path d="M 470.050114 42.957758 
Q 467.614512 41.278955 464.994888 40.43572 
Q 462.375263 39.600151 459.58244 39.600151 
Q 453.271526 39.600151 449.585649 44.598233 
Q 445.899772 49.596316 445.899772 58.14365 
Q 445.899772 66.790639 449.650598 71.750392 
Q 453.406837 76.710146 459.939662 76.710146 
Q 462.45645 76.710146 464.762152 76.035558 
Q 467.073268 75.368636 469.119173 74.050124 
L 469.119173 66.652655 
Q 467.008318 68.34679 464.919113 69.182359 
Q 462.829909 70.025594 460.729879 70.025594 
Q 456.843741 70.025594 454.738299 66.943954 
Q 452.632857 63.86998 452.632857 58.14365 
Q 452.632857 52.47098 454.662525 49.374008 
Q 456.692193 46.284703 460.426782 46.284703 
Q 461.444322 46.284703 462.315726 46.461015 
Q 463.18713 46.644994 463.879924 47.028282 
L 463.879924 53.973471 
L 459.901774 53.973471 
L 459.901774 60.159747 
L 470.050114 60.159747 
L 470.050114 42.957758 
z
" clip-path="url(#p406b68180d)" style="fill: #ffa600"/>
   </g>
   <g id="patch_73">
    <path d="M 445.899772 27.656808 
L 470.050114 27.656808 
L 470.050114 27.455975 
L 461.361607 27.455975 
L 461.361607 26.627044 
L 454.605128 26.627044 
L 454.605128 27.455975 
L 445.899772 27.455975 
L 445.899772 27.656808 
z
" clip-path="url(#p406b68180d)" style="fill: #ff0000"/>
   </g>
   <g id="patch_74">
    <path d="M 495.471526 48.000649 
Q 493.451392 47.051227 491.266969 46.570997 
Q 489.082547 46.085246 486.703413 46.085246 
Q 479.608603 46.085246 475.464894 49.684216 
Q 471.321185 53.283187 471.321185 59.437867 
Q 471.321185 65.614628 475.464894 69.208078 
Q 479.608603 72.807049 486.703413 72.807049 
Q 489.082547 72.807049 491.266969 72.321298 
Q 493.451392 71.841067 495.471526 70.891646 
L 495.471526 65.564949 
Q 493.433138 66.823484 491.455596 67.408593 
Q 489.478055 67.993702 487.293633 67.993702 
Q 483.375059 67.993702 481.129789 65.713986 
Q 478.890604 63.43979 478.890604 59.437867 
Q 478.890604 55.452505 481.129789 53.172789 
Q 483.375059 50.898593 487.293633 50.898593 
Q 489.478055 50.898593 491.455596 51.483702 
Q 493.433138 52.07433 495.471526 53.332866 
L 495.471526 48.000649 
z
" clip-path="url(#p406b68180d)" style="fill: #0000ff"/>
   </g>
   <g id="patch_75">
    <path d="M 495.471526 26.640202 
Q 493.035925 26.242632 490.4163 26.042939 
Q 487.796675 25.845062 485.003852 25.845062 
Q 478.692938 25.845062 475.007061 27.028695 
Q 471.321185 28.212328 471.321185 30.236486 
Q 471.321185 32.284244 475.072011 33.4588 
Q 478.828249 34.633356 485.361074 34.633356 
Q 487.877862 34.633356 490.183565 34.473602 
Q 492.49468 34.315663 494.540585 34.003416 
L 494.540585 32.251567 
Q 492.429731 32.652768 490.340526 32.850645 
Q 488.251321 33.050338 486.151291 33.050338 
Q 482.265154 33.050338 480.159712 32.320552 
Q 478.054269 31.592581 478.054269 30.236486 
Q 478.054269 28.893099 480.083937 28.159682 
Q 482.113605 27.42808 485.848194 27.42808 
Q 486.865734 27.42808 487.737138 27.469834 
Q 488.608542 27.513404 489.301336 27.604173 
L 489.301336 29.248915 
L 485.323187 29.248915 
L 485.323187 30.713933 
L 495.471526 30.713933 
L 495.471526 26.640202 
z
" clip-path="url(#p406b68180d)" style="fill: #ffa600"/>
   </g>
   <g id="patch_76">
    <path d="M 471.321185 46.085246 
L 495.471526 46.085246 
L 495.471526 43.851809 
L 486.78302 43.851809 
L 486.78302 34.633356 
L 480.02654 34.633356 
L 480.02654 43.851809 
L 471.321185 43.851809 
L 471.321185 46.085246 
z
" clip-path="url(#p406b68180d)" style="fill: #ff0000"/>
   </g>
   <g id="patch_77">
    <path d="M 520.892938 25.938481 
Q 518.872804 25.892175 516.688382 25.868753 
Q 514.503959 25.845062 512.124825 25.845062 
Q 505.030016 25.845062 500.886306 26.020592 
Q 496.742597 26.196122 496.742597 26.496301 
Q 496.742597 26.797556 500.886306 26.972817 
Q 505.030016 27.148348 512.124825 27.148348 
Q 514.503959 27.148348 516.688382 27.124657 
Q 518.872804 27.101235 520.892938 27.054929 
L 520.892938 26.795133 
Q 518.85455 26.856515 516.877009 26.885052 
Q 514.899467 26.913589 512.715045 26.913589 
Q 508.796471 26.913589 506.551201 26.802402 
Q 504.312016 26.691484 504.312016 26.496301 
Q 504.312016 26.301925 506.551201 26.190738 
Q 508.796471 26.07982 512.715045 26.07982 
Q 514.899467 26.07982 516.877009 26.108357 
Q 518.85455 26.137164 520.892938 26.198545 
L 520.892938 25.938481 
z
" clip-path="url(#p406b68180d)" style="fill: #0000ff"/>
   </g>
   <g id="patch_78">
    <path d="M 520.892938 39.416494 
Q 518.457337 33.282421 515.837712 30.20138 
Q 513.218088 27.148348 510.425265 27.148348 
Q 504.114351 27.148348 500.428474 45.41052 
Q 496.742597 63.672693 496.742597 94.903249 
Q 496.742597 126.497929 500.493423 144.620054 
Q 504.249662 162.742179 510.782486 162.742179 
Q 513.299274 162.742179 515.604977 160.277346 
Q 517.916092 157.840522 519.961997 153.022894 
L 519.961997 125.993758 
Q 517.851143 132.18385 515.761938 135.236882 
Q 513.672733 138.317924 511.572704 138.317924 
Q 507.686566 138.317924 505.581124 127.058118 
Q 503.475682 115.826321 503.475682 94.903249 
Q 503.475682 74.176243 505.50535 62.860419 
Q 507.535018 51.572603 511.269606 51.572603 
Q 512.287147 51.572603 513.158551 52.216821 
Q 514.029955 52.889048 514.722748 54.289522 
L 514.722748 79.666099 
L 510.744599 79.666099 
L 510.744599 102.269739 
L 520.892938 102.269739 
L 520.892938 39.416494 
z
" clip-path="url(#p406b68180d)" style="fill: #ffa600"/>
   </g>
   <g id="patch_79">
    <path d="M 546.314351 26.430171 
Q 544.294216 26.331194 542.109794 26.28113 
Q 539.925372 26.230491 537.546237 26.230491 
Q 530.451428 26.230491 526.307719 26.605682 
Q 522.164009 26.980873 522.164009 27.622497 
Q 522.164009 28.266421 526.307719 28.641037 
Q 530.451428 29.016228 537.546237 29.016228 
Q 539.925372 29.016228 542.109794 28.965589 
Q 544.294216 28.915525 546.314351 28.816548 
L 546.314351 28.261242 
Q 544.275962 28.392444 542.298421 28.453442 
Q 540.32088 28.514439 538.136457 28.514439 
Q 534.217883 28.514439 531.972613 28.276779 
Q 529.733428 28.039695 529.733428 27.622497 
Q 529.733428 27.207024 531.972613 26.969365 
Q 534.217883 26.73228 538.136457 26.73228 
Q 540.32088 26.73228 542.298421 26.793278 
Q 544.275962 26.854851 546.314351 26.986052 
L 546.314351 26.430171 
z
" clip-path="url(#p406b68180d)" style="fill: #0000ff"/>
   </g>
   <g id="patch_80">
    <path d="M 546.314351 34.324321 
Q 543.878749 31.670275 541.259125 30.337192 
Q 538.6395 29.016228 535.846677 29.016228 
Q 529.535763 29.016228 525.849886 36.917773 
Q 522.164009 44.819318 522.164009 58.331929 
Q 522.164009 72.002086 525.914835 79.843036 
Q 529.671074 87.683987 536.203898 87.683987 
Q 538.720687 87.683987 541.026389 86.61752 
Q 543.337505 85.563173 545.38341 83.478717 
L 545.38341 71.783945 
Q 543.272555 74.46223 541.18335 75.783194 
Q 539.094146 77.116276 536.994116 77.116276 
Q 533.107978 77.116276 531.002536 72.244465 
Q 528.897094 67.384773 528.897094 58.331929 
Q 528.897094 49.363918 530.926762 44.467869 
Q 532.95643 39.583939 536.691019 39.583939 
Q 537.708559 39.583939 538.579963 39.862674 
Q 539.451367 40.153528 540.14416 40.759475 
L 540.14416 51.739229 
L 536.166011 51.739229 
L 536.166011 61.519209 
L 546.314351 61.519209 
L 546.314351 34.324321 
z
" clip-path="url(#p406b68180d)" style="fill: #ffa600"/>
   </g>
   <g id="patch_81">
    <path d="M 522.164009 26.230491 
L 546.314351 26.230491 
L 546.314351 26.155322 
L 537.625844 26.155322 
L 537.625844 25.845062 
L 530.869365 25.845062 
L 530.869365 26.155322 
L 522.164009 26.155322 
L 522.164009 26.230491 
z
" clip-path="url(#p406b68180d)" style="fill: #ff0000"/>
   </g>
   <g id="patch_82">
    <path d="M 571.735763 29.762037 
Q 569.715629 28.645625 567.531206 28.080928 
Q 565.346784 27.509741 562.96765 27.509741 
Q 555.87284 27.509741 551.729131 31.741721 
Q 547.585421 35.973701 547.585421 43.210906 
Q 547.585421 50.474074 551.729131 54.699563 
Q 555.87284 58.931543 562.96765 58.931543 
Q 565.346784 58.931543 567.531206 58.360355 
Q 569.715629 57.795658 571.735763 56.679247 
L 571.735763 50.415657 
Q 569.697374 51.895551 567.719833 52.583573 
Q 565.742292 53.271594 563.55787 53.271594 
Q 559.639296 53.271594 557.394026 50.590907 
Q 555.154841 47.916711 555.154841 43.210906 
Q 555.154841 38.524572 557.394026 35.843885 
Q 559.639296 33.169689 563.55787 33.169689 
Q 565.742292 33.169689 567.719833 33.857711 
Q 569.697374 34.552223 571.735763 36.032117 
L 571.735763 29.762037 
z
" clip-path="url(#p406b68180d)" style="fill: #0000ff"/>
   </g>
   <g id="patch_83">
    <path d="M 571.735763 25.995677 
Q 569.300162 25.920369 566.680537 25.882544 
Q 564.060912 25.845062 561.268089 25.845062 
Q 554.957175 25.845062 551.271298 26.069266 
Q 547.585421 26.293469 547.585421 26.676885 
Q 547.585421 27.064772 551.336248 27.287256 
Q 555.092486 27.509741 561.625311 27.509741 
Q 564.142099 27.509741 566.447802 27.47948 
Q 568.758917 27.449563 570.804822 27.390418 
L 570.804822 27.058582 
Q 568.693967 27.134578 566.604763 27.172059 
Q 564.515558 27.209885 562.415528 27.209885 
Q 558.529391 27.209885 556.423949 27.071649 
Q 554.318506 26.933757 554.318506 26.676885 
Q 554.318506 26.422421 556.348174 26.283497 
Q 558.377842 26.144917 562.112431 26.144917 
Q 563.129971 26.144917 564.001375 26.152826 
Q 564.872779 26.161079 565.565573 26.178273 
L 565.565573 26.48982 
L 561.587424 26.48982 
L 561.587424 26.767323 
L 571.735763 26.767323 
L 571.735763 25.995677 
z
" clip-path="url(#p406b68180d)" style="fill: #ffa600"/>
   </g>
   <g id="patch_84">
    <path d="M 597.157175 26.018208 
Q 595.137041 25.932383 592.952619 25.888972 
Q 590.768196 25.845062 588.389062 25.845062 
Q 581.294253 25.845062 577.150543 26.170397 
Q 573.006834 26.495733 573.006834 27.052096 
Q 573.006834 27.610456 577.150543 27.935292 
Q 581.294253 28.260627 588.389062 28.260627 
Q 590.768196 28.260627 592.952619 28.216717 
Q 595.137041 28.173306 597.157175 28.087481 
L 597.157175 27.605965 
Q 595.118787 27.719732 593.141246 27.772624 
Q 591.163704 27.825516 588.979282 27.825516 
Q 585.060708 27.825516 582.815438 27.619437 
Q 580.576253 27.413857 580.576253 27.052096 
Q 580.576253 26.691832 582.815438 26.485753 
Q 585.060708 26.280173 588.979282 26.280173 
Q 591.163704 26.280173 593.141246 26.333065 
Q 595.118787 26.386456 597.157175 26.500223 
L 597.157175 26.018208 
z
" clip-path="url(#p406b68180d)" style="fill: #0000ff"/>
   </g>
   <g id="patch_85">
    <path d="M 597.157175 29.856291 
Q 594.721574 29.058459 592.101949 28.657722 
Q 589.482325 28.260627 586.689502 28.260627 
Q 580.378587 28.260627 576.692711 30.635908 
Q 573.006834 33.011189 573.006834 37.07321 
Q 573.006834 41.182592 576.75766 43.539657 
Q 580.513899 45.896723 587.046723 45.896723 
Q 589.563511 45.896723 591.869214 45.576133 
Q 594.180329 45.259186 596.226234 44.632578 
L 596.226234 41.117017 
Q 594.11538 41.922135 592.026175 42.319229 
Q 589.93697 42.719967 587.83694 42.719967 
Q 583.950803 42.719967 581.845361 41.255453 
Q 579.739919 39.794583 579.739919 37.07321 
Q 579.739919 34.37734 581.769587 32.90554 
Q 583.799254 31.437383 587.533843 31.437383 
Q 588.551384 31.437383 589.422788 31.521174 
Q 590.294192 31.608607 590.986985 31.790761 
L 590.986985 35.091381 
L 587.008836 35.091381 
L 587.008836 38.031337 
L 597.157175 38.031337 
L 597.157175 29.856291 
z
" clip-path="url(#p406b68180d)" style="fill: #ffa600"/>
   </g>
   <g id="patch_86">
    <path d="M 622.578588 26.126649 
Q 620.558453 25.987072 618.374031 25.916473 
Q 616.189608 25.845062 613.810474 25.845062 
Q 606.715665 25.845062 602.571955 26.374153 
Q 598.428246 26.903244 598.428246 27.808055 
Q 598.428246 28.716112 602.571955 29.244391 
Q 606.715665 29.773482 613.810474 29.773482 
Q 616.189608 29.773482 618.374031 29.702071 
Q 620.558453 29.631472 622.578588 29.491896 
L 622.578588 28.708808 
Q 620.540199 28.893828 618.562658 28.979846 
Q 616.585117 29.065864 614.400694 29.065864 
Q 610.48212 29.065864 608.23685 28.730718 
Q 605.997665 28.396385 605.997665 27.808055 
Q 605.997665 27.222159 608.23685 26.887014 
Q 610.48212 26.552681 614.400694 26.552681 
Q 616.585117 26.552681 618.562658 26.638698 
Q 620.540199 26.725528 622.578588 26.910547 
L 622.578588 26.126649 
z
" clip-path="url(#p406b68180d)" style="fill: #0000ff"/>
   </g>
   <g id="patch_87">
    <path d="M 622.578588 30.885171 
Q 620.142986 30.329327 617.523362 30.050136 
Q 614.903737 29.773482 612.110914 29.773482 
Q 605.8 29.773482 602.114123 31.428326 
Q 598.428246 33.083169 598.428246 35.913153 
Q 598.428246 38.776133 602.179072 40.418286 
Q 605.935311 42.060439 612.468135 42.060439 
Q 614.984924 42.060439 617.290626 41.837086 
Q 619.601741 41.616271 621.647647 41.179717 
L 621.647647 38.730448 
Q 619.536792 39.291368 617.447587 39.568022 
Q 615.358382 39.847213 613.258353 39.847213 
Q 609.372215 39.847213 607.266773 38.826895 
Q 605.161331 37.809116 605.161331 35.913153 
Q 605.161331 34.034957 607.190999 33.009564 
Q 609.220667 31.986708 612.955256 31.986708 
Q 613.972796 31.986708 614.8442 32.045085 
Q 615.715604 32.105999 616.408397 32.232904 
L 616.408397 34.532425 
L 612.430248 34.532425 
L 612.430248 36.580674 
L 622.578588 36.580674 
L 622.578588 30.885171 
z
" clip-path="url(#p406b68180d)" style="fill: #ffa600"/>
   </g>
   <g id="patch_88">
    <path d="M 648 26.938561 
Q 645.979866 26.776098 643.795443 26.693922 
Q 641.611021 26.610802 639.231887 26.610802 
Q 632.137077 26.610802 627.993368 27.226649 
Q 623.849658 27.842497 623.849658 28.895671 
Q 623.849658 29.952624 627.993368 30.567527 
Q 632.137077 31.183374 639.231887 31.183374 
Q 641.611021 31.183374 643.795443 31.100253 
Q 645.979866 31.018077 648 30.855615 
L 648 29.944123 
Q 645.961611 30.15948 643.98407 30.259603 
Q 642.006529 30.359725 639.822107 30.359725 
Q 635.903533 30.359725 633.658263 29.969626 
Q 631.419078 29.580471 631.419078 28.895671 
Q 631.419078 28.213705 633.658263 27.823605 
Q 635.903533 27.43445 639.822107 27.43445 
Q 642.006529 27.43445 643.98407 27.534573 
Q 645.961611 27.63564 648 27.850997 
L 648 26.938561 
z
" clip-path="url(#p406b68180d)" style="fill: #0000ff"/>
   </g>
   <g id="patch_89">
    <path d="M 648 25.914344 
Q 645.564399 25.879703 642.944774 25.862303 
Q 640.325149 25.845062 637.532326 25.845062 
Q 631.221412 25.845062 627.535535 25.948194 
Q 623.849658 26.051326 623.849658 26.227695 
Q 623.849658 26.406119 627.600485 26.508461 
Q 631.356723 26.610802 637.889548 26.610802 
Q 640.406336 26.610802 642.712039 26.596882 
Q 645.023154 26.583121 647.069059 26.555914 
L 647.069059 26.403272 
Q 644.958204 26.43823 642.869 26.455471 
Q 640.779795 26.472871 638.679765 26.472871 
Q 634.793628 26.472871 632.688185 26.409283 
Q 630.582743 26.345854 630.582743 26.227695 
Q 630.582743 26.110643 632.612411 26.046739 
Q 634.642079 25.982993 638.376668 25.982993 
Q 639.394208 25.982993 640.265612 25.986631 
Q 641.137016 25.990427 641.82981 25.998336 
L 641.82981 26.141646 
L 637.851661 26.141646 
L 637.851661 26.269295 
L 648 26.269295 
L 648 25.914344 
z
" clip-path="url(#p406b68180d)" style="fill: #ffa600"/>
   </g>
   <g id="matplotlib.axis_1">
    <g id="xtick_1">
     <g id="line2d_2">
      <defs>
       <path id="m847c1bf01c" d="M 0 0 
L 0 3.5 
" style="stroke: #000000; stroke-width: 0.8"/>
      </defs>
      <g>
       <use xlink:href="#m847c1bf01c" x="102.075171" y="192.24" style="stroke: #000000; stroke-width: 0.8"/>
      </g>
     </g>
     <g id="text_1">
      <!-- 0.0 -->
      <g transform="translate(94.123608 206.838437) scale(0.1 -0.1)">
       <defs>
        <path id="DejaVuSans-30" d="M 2034 4250 
Q 1547 4250 1301 3770 
Q 1056 3291 1056 2328 
Q 1056 1369 1301 889 
Q 1547 409 2034 409 
Q 2525 409 2770 889 
Q 3016 1369 3016 2328 
Q 3016 3291 2770 3770 
Q 2525 4250 2034 4250 
z
M 2034 4750 
Q 2819 4750 3233 4129 
Q 3647 3509 3647 2328 
Q 3647 1150 3233 529 
Q 2819 -91 2034 -91 
Q 1250 -91 836 529 
Q 422 1150 422 2328 
Q 422 3509 836 4129 
Q 1250 4750 2034 4750 
z
" transform="scale(0.015625)"/>
        <path id="DejaVuSans-2e" d="M 684 794 
L 1344 794 
L 1344 0 
L 684 0 
L 684 794 
z
" transform="scale(0.015625)"/>
       </defs>
       <use xlink:href="#DejaVuSans-30"/>
       <use xlink:href="#DejaVuSans-2e" x="63.623047"/>
       <use xlink:href="#DejaVuSans-30" x="95.410156"/>
      </g>
     </g>
    </g>
    <g id="xtick_2">
     <g id="line2d_3">
      <g>
       <use xlink:href="#m847c1bf01c" x="165.628702" y="192.24" style="stroke: #000000; stroke-width: 0.8"/>
      </g>
     </g>
     <g id="text_2">
      <!-- 2.5 -->
      <g transform="translate(157.677139 206.838437) scale(0.1 -0.1)">
       <defs>
        <path id="DejaVuSans-32" d="M 1228 531 
L 3431 531 
L 3431 0 
L 469 0 
L 469 531 
Q 828 903 1448 1529 
Q 2069 2156 2228 2338 
Q 2531 2678 2651 2914 
Q 2772 3150 2772 3378 
Q 2772 3750 2511 3984 
Q 2250 4219 1831 4219 
Q 1534 4219 1204 4116 
Q 875 4013 500 3803 
L 500 4441 
Q 881 4594 1212 4672 
Q 1544 4750 1819 4750 
Q 2544 4750 2975 4387 
Q 3406 4025 3406 3419 
Q 3406 3131 3298 2873 
Q 3191 2616 2906 2266 
Q 2828 2175 2409 1742 
Q 1991 1309 1228 531 
z
" transform="scale(0.015625)"/>
        <path id="DejaVuSans-35" d="M 691 4666 
L 3169 4666 
L 3169 4134 
L 1269 4134 
L 1269 2991 
Q 1406 3038 1543 3061 
Q 1681 3084 1819 3084 
Q 2600 3084 3056 2656 
Q 3513 2228 3513 1497 
Q 3513 744 3044 326 
Q 2575 -91 1722 -91 
Q 1428 -91 1123 -41 
Q 819 9 494 109 
L 494 744 
Q 775 591 1075 516 
Q 1375 441 1709 441 
Q 2250 441 2565 725 
Q 2881 1009 2881 1497 
Q 2881 1984 2565 2268 
Q 2250 2553 1709 2553 
Q 1456 2553 1204 2497 
Q 953 2441 691 2322 
L 691 4666 
z
" transform="scale(0.015625)"/>
       </defs>
       <use xlink:href="#DejaVuSans-32"/>
       <use xlink:href="#DejaVuSans-2e" x="63.623047"/>
       <use xlink:href="#DejaVuSans-35" x="95.410156"/>
      </g>
     </g>
    </g>
    <g id="xtick_3">
     <g id="line2d_4">
      <g>
       <use xlink:href="#m847c1bf01c" x="229.182232" y="192.24" style="stroke: #000000; stroke-width: 0.8"/>
      </g>
     </g>
     <g id="text_3">
      <!-- 5.0 -->
      <g transform="translate(221.23067 206.838437) scale(0.1 -0.1)">
       <use xlink:href="#DejaVuSans-35"/>
       <use xlink:href="#DejaVuSans-2e" x="63.623047"/>
       <use xlink:href="#DejaVuSans-30" x="95.410156"/>
      </g>
     </g>
    </g>
    <g id="xtick_4">
     <g id="line2d_5">
      <g>
       <use xlink:href="#m847c1bf01c" x="292.735763" y="192.24" style="stroke: #000000; stroke-width: 0.8"/>
      </g>
     </g>
     <g id="text_4">
      <!-- 7.5 -->
      <g transform="translate(284.784201 206.838437) scale(0.1 -0.1)">
       <defs>
        <path id="DejaVuSans-37" d="M 525 4666 
L 3525 4666 
L 3525 4397 
L 1831 0 
L 1172 0 
L 2766 4134 
L 525 4134 
L 525 4666 
z
" transform="scale(0.015625)"/>
       </defs>
       <use xlink:href="#DejaVuSans-37"/>
       <use xlink:href="#DejaVuSans-2e" x="63.623047"/>
       <use xlink:href="#DejaVuSans-35" x="95.410156"/>
      </g>
     </g>
    </g>
    <g id="xtick_5">
     <g id="line2d_6">
      <g>
       <use xlink:href="#m847c1bf01c" x="356.289294" y="192.24" style="stroke: #000000; stroke-width: 0.8"/>
      </g>
     </g>
     <g id="text_5">
      <!-- 10.0 -->
      <g transform="translate(345.156481 206.838437) scale(0.1 -0.1)">
       <defs>
        <path id="DejaVuSans-31" d="M 794 531 
L 1825 531 
L 1825 4091 
L 703 3866 
L 703 4441 
L 1819 4666 
L 2450 4666 
L 2450 531 
L 3481 531 
L 3481 0 
L 794 0 
L 794 531 
z
" transform="scale(0.015625)"/>
       </defs>
       <use xlink:href="#DejaVuSans-31"/>
       <use xlink:href="#DejaVuSans-30" x="63.623047"/>
       <use xlink:href="#DejaVuSans-2e" x="127.246094"/>
       <use xlink:href="#DejaVuSans-30" x="159.033203"/>
      </g>
     </g>
    </g>
    <g id="xtick_6">
     <g id="line2d_7">
      <g>
       <use xlink:href="#m847c1bf01c" x="419.842825" y="192.24" style="stroke: #000000; stroke-width: 0.8"/>
      </g>
     </g>
     <g id="text_6">
      <!-- 12.5 -->
      <g transform="translate(408.710012 206.838437) scale(0.1 -0.1)">
       <use xlink:href="#DejaVuSans-31"/>
       <use xlink:href="#DejaVuSans-32" x="63.623047"/>
       <use xlink:href="#DejaVuSans-2e" x="127.246094"/>
       <use xlink:href="#DejaVuSans-35" x="159.033203"/>
      </g>
     </g>
    </g>
    <g id="xtick_7">
     <g id="line2d_8">
      <g>
       <use xlink:href="#m847c1bf01c" x="483.396355" y="192.24" style="stroke: #000000; stroke-width: 0.8"/>
      </g>
     </g>
     <g id="text_7">
      <!-- 15.0 -->
      <g transform="translate(472.263543 206.838437) scale(0.1 -0.1)">
       <use xlink:href="#DejaVuSans-31"/>
       <use xlink:href="#DejaVuSans-35" x="63.623047"/>
       <use xlink:href="#DejaVuSans-2e" x="127.246094"/>
       <use xlink:href="#DejaVuSans-30" x="159.033203"/>
      </g>
     </g>
    </g>
    <g id="xtick_8">
     <g id="line2d_9">
      <g>
       <use xlink:href="#m847c1bf01c" x="546.949886" y="192.24" style="stroke: #000000; stroke-width: 0.8"/>
      </g>
     </g>
     <g id="text_8">
      <!-- 17.5 -->
      <g transform="translate(535.817074 206.838437) scale(0.1 -0.1)">
       <use xlink:href="#DejaVuSans-31"/>
       <use xlink:href="#DejaVuSans-37" x="63.623047"/>
       <use xlink:href="#DejaVuSans-2e" x="127.246094"/>
       <use xlink:href="#DejaVuSans-35" x="159.033203"/>
      </g>
     </g>
    </g>
    <g id="xtick_9">
     <g id="line2d_10">
      <g>
       <use xlink:href="#m847c1bf01c" x="610.503417" y="192.24" style="stroke: #000000; stroke-width: 0.8"/>
      </g>
     </g>
     <g id="text_9">
      <!-- 20.0 -->
      <g transform="translate(599.370604 206.838437) scale(0.1 -0.1)">
       <use xlink:href="#DejaVuSans-32"/>
       <use xlink:href="#DejaVuSans-30" x="63.623047"/>
       <use xlink:href="#DejaVuSans-2e" x="127.246094"/>
       <use xlink:href="#DejaVuSans-30" x="159.033203"/>
      </g>
     </g>
    </g>
   </g>
   <g id="matplotlib.axis_2">
    <g id="ytick_1">
     <g id="line2d_11">
      <defs>
       <path id="md2f12f21c4" d="M 0 0 
L -3.5 0 
" style="stroke: #000000; stroke-width: 0.8"/>
      </defs>
      <g>
       <use xlink:href="#md2f12f21c4" x="90" y="179.204371" style="stroke: #000000; stroke-width: 0.8"/>
      </g>
     </g>
     <g id="text_10">
      <!-- 0.012 -->
      <g transform="translate(45.992188 183.00359) scale(0.1 -0.1)">
       <defs>
        <path id="DejaVuSans-2212" d="M 678 2272 
L 4684 2272 
L 4684 1741 
L 678 1741 
L 678 2272 
z
" transform="scale(0.015625)"/>
       </defs>
       <use xlink:href="#DejaVuSans-2212"/>
       <use xlink:href="#DejaVuSans-30" x="83.789062"/>
       <use xlink:href="#DejaVuSans-2e" x="147.412109"/>
       <use xlink:href="#DejaVuSans-30" x="179.199219"/>
       <use xlink:href="#DejaVuSans-31" x="242.822266"/>
       <use xlink:href="#DejaVuSans-32" x="306.445312"/>
      </g>
     </g>
    </g>
    <g id="ytick_2">
     <g id="line2d_12">
      <g>
       <use xlink:href="#md2f12f21c4" x="90" y="153.644486" style="stroke: #000000; stroke-width: 0.8"/>
      </g>
     </g>
     <g id="text_11">
      <!-- 0.010 -->
      <g transform="translate(45.992188 157.443705) scale(0.1 -0.1)">
       <use xlink:href="#DejaVuSans-2212"/>
       <use xlink:href="#DejaVuSans-30" x="83.789062"/>
       <use xlink:href="#DejaVuSans-2e" x="147.412109"/>
       <use xlink:href="#DejaVuSans-30" x="179.199219"/>
       <use xlink:href="#DejaVuSans-31" x="242.822266"/>
       <use xlink:href="#DejaVuSans-30" x="306.445312"/>
      </g>
     </g>
    </g>
    <g id="ytick_3">
     <g id="line2d_13">
      <g>
       <use xlink:href="#md2f12f21c4" x="90" y="128.084601" style="stroke: #000000; stroke-width: 0.8"/>
      </g>
     </g>
     <g id="text_12">
      <!-- 0.008 -->
      <g transform="translate(45.992188 131.88382) scale(0.1 -0.1)">
       <defs>
        <path id="DejaVuSans-38" d="M 2034 2216 
Q 1584 2216 1326 1975 
Q 1069 1734 1069 1313 
Q 1069 891 1326 650 
Q 1584 409 2034 409 
Q 2484 409 2743 651 
Q 3003 894 3003 1313 
Q 3003 1734 2745 1975 
Q 2488 2216 2034 2216 
z
M 1403 2484 
Q 997 2584 770 2862 
Q 544 3141 544 3541 
Q 544 4100 942 4425 
Q 1341 4750 2034 4750 
Q 2731 4750 3128 4425 
Q 3525 4100 3525 3541 
Q 3525 3141 3298 2862 
Q 3072 2584 2669 2484 
Q 3125 2378 3379 2068 
Q 3634 1759 3634 1313 
Q 3634 634 3220 271 
Q 2806 -91 2034 -91 
Q 1263 -91 848 271 
Q 434 634 434 1313 
Q 434 1759 690 2068 
Q 947 2378 1403 2484 
z
M 1172 3481 
Q 1172 3119 1398 2916 
Q 1625 2713 2034 2713 
Q 2441 2713 2670 2916 
Q 2900 3119 2900 3481 
Q 2900 3844 2670 4047 
Q 2441 4250 2034 4250 
Q 1625 4250 1398 4047 
Q 1172 3844 1172 3481 
z
" transform="scale(0.015625)"/>
       </defs>
       <use xlink:href="#DejaVuSans-2212"/>
       <use xlink:href="#DejaVuSans-30" x="83.789062"/>
       <use xlink:href="#DejaVuSans-2e" x="147.412109"/>
       <use xlink:href="#DejaVuSans-30" x="179.199219"/>
       <use xlink:href="#DejaVuSans-30" x="242.822266"/>
       <use xlink:href="#DejaVuSans-38" x="306.445312"/>
      </g>
     </g>
    </g>
    <g id="ytick_4">
     <g id="line2d_14">
      <g>
       <use xlink:href="#md2f12f21c4" x="90" y="102.524716" style="stroke: #000000; stroke-width: 0.8"/>
      </g>
     </g>
     <g id="text_13">
      <!-- 0.006 -->
      <g transform="translate(45.992188 106.323935) scale(0.1 -0.1)">
       <defs>
        <path id="DejaVuSans-36" d="M 2113 2584 
Q 1688 2584 1439 2293 
Q 1191 2003 1191 1497 
Q 1191 994 1439 701 
Q 1688 409 2113 409 
Q 2538 409 2786 701 
Q 3034 994 3034 1497 
Q 3034 2003 2786 2293 
Q 2538 2584 2113 2584 
z
M 3366 4563 
L 3366 3988 
Q 3128 4100 2886 4159 
Q 2644 4219 2406 4219 
Q 1781 4219 1451 3797 
Q 1122 3375 1075 2522 
Q 1259 2794 1537 2939 
Q 1816 3084 2150 3084 
Q 2853 3084 3261 2657 
Q 3669 2231 3669 1497 
Q 3669 778 3244 343 
Q 2819 -91 2113 -91 
Q 1303 -91 875 529 
Q 447 1150 447 2328 
Q 447 3434 972 4092 
Q 1497 4750 2381 4750 
Q 2619 4750 2861 4703 
Q 3103 4656 3366 4563 
z
" transform="scale(0.015625)"/>
       </defs>
       <use xlink:href="#DejaVuSans-2212"/>
       <use xlink:href="#DejaVuSans-30" x="83.789062"/>
       <use xlink:href="#DejaVuSans-2e" x="147.412109"/>
       <use xlink:href="#DejaVuSans-30" x="179.199219"/>
       <use xlink:href="#DejaVuSans-30" x="242.822266"/>
       <use xlink:href="#DejaVuSans-36" x="306.445312"/>
      </g>
     </g>
    </g>
    <g id="ytick_5">
     <g id="line2d_15">
      <g>
       <use xlink:href="#md2f12f21c4" x="90" y="76.964832" style="stroke: #000000; stroke-width: 0.8"/>
      </g>
     </g>
     <g id="text_14">
      <!-- 0.004 -->
      <g transform="translate(45.992188 80.76405) scale(0.1 -0.1)">
       <defs>
        <path id="DejaVuSans-34" d="M 2419 4116 
L 825 1625 
L 2419 1625 
L 2419 4116 
z
M 2253 4666 
L 3047 4666 
L 3047 1625 
L 3713 1625 
L 3713 1100 
L 3047 1100 
L 3047 0 
L 2419 0 
L 2419 1100 
L 313 1100 
L 313 1709 
L 2253 4666 
z
" transform="scale(0.015625)"/>
       </defs>
       <use xlink:href="#DejaVuSans-2212"/>
       <use xlink:href="#DejaVuSans-30" x="83.789062"/>
       <use xlink:href="#DejaVuSans-2e" x="147.412109"/>
       <use xlink:href="#DejaVuSans-30" x="179.199219"/>
       <use xlink:href="#DejaVuSans-30" x="242.822266"/>
       <use xlink:href="#DejaVuSans-34" x="306.445312"/>
      </g>
     </g>
    </g>
    <g id="ytick_6">
     <g id="line2d_16">
      <g>
       <use xlink:href="#md2f12f21c4" x="90" y="51.404947" style="stroke: #000000; stroke-width: 0.8"/>
      </g>
     </g>
     <g id="text_15">
      <!-- 0.002 -->
      <g transform="translate(45.992188 55.204165) scale(0.1 -0.1)">
       <use xlink:href="#DejaVuSans-2212"/>
       <use xlink:href="#DejaVuSans-30" x="83.789062"/>
       <use xlink:href="#DejaVuSans-2e" x="147.412109"/>
       <use xlink:href="#DejaVuSans-30" x="179.199219"/>
       <use xlink:href="#DejaVuSans-30" x="242.822266"/>
       <use xlink:href="#DejaVuSans-32" x="306.445312"/>
      </g>
     </g>
    </g>
   </g>
  </g>
 </g>
 <defs>
  <clipPath id="p406b68180d">
   <rect x="90" y="25.92" width="558" height="166.32"/>
  </clipPath>
 </defs>
</svg>
