<?xml version="1.0" encoding="utf-8" standalone="no"?>
<!DOCTYPE svg PUBLIC "-//W3C//DTD SVG 1.1//EN"
  "http://www.w3.org/Graphics/SVG/1.1/DTD/svg11.dtd">
<svg xmlns:xlink="http://www.w3.org/1999/xlink" width="720pt" height="216pt" viewBox="0 0 720 216" xmlns="http://www.w3.org/2000/svg" version="1.1">
 <metadata>
  <rdf:RDF xmlns:dc="http://purl.org/dc/elements/1.1/" xmlns:cc="http://creativecommons.org/ns#" xmlns:rdf="http://www.w3.org/1999/02/22-rdf-syntax-ns#">
   <cc:Work>
    <dc:type rdf:resource="http://purl.org/dc/dcmitype/StillImage"/>
    <dc:date>2024-11-23T04:46:07.617728</dc:date>
    <dc:format>image/svg+xml</dc:format>
    <dc:creator>
     <cc:Agent>
      <dc:title>Matplotlib v3.7.2, https://matplotlib.org/</dc:title>
     </cc:Agent>
    </dc:creator>
   </cc:Work>
  </rdf:RDF>
 </metadata>
 <defs>
  <style type="text/css">*{stroke-linejoin: round; stroke-linecap: butt}</style>
 </defs>
 <g id="figure_1">
  <g id="patch_1">
   <path d="M 0 216 
L 720 216 
L 720 0 
L 0 0 
z
" style="fill: #ffffff"/>
  </g>
  <g id="axes_1">
   <g id="patch_2">
    <path d="M 90 192.24 
L 648 192.24 
L 648 25.92 
L 90 25.92 
z
" style="fill: #ffffff"/>
   </g>
   <g id="line2d_1">
    <path d="M 90 45.769925 
L 648 45.769925 
" clip-path="url(#p9a6cae1665)" style="fill: none; stroke: #000000; stroke-width: 0.5; stroke-linecap: square"/>
   </g>
   <g id="patch_3">
    <path d="M 115.303103 45.666411 
Q 113.186542 45.717721 110.897851 45.743674 
Q 108.60916 45.769925 106.116463 45.769925 
Q 98.683 45.769925 94.3415 45.575426 
Q 90 45.380927 90 45.04831 
Q 90 44.7145 94.3415 44.5203 
Q 98.683 44.325801 106.116463 44.325801 
Q 108.60916 44.325801 110.897851 44.352052 
Q 113.186542 44.378005 115.303103 44.429315 
L 115.303103 44.717185 
Q 113.167416 44.64917 111.095482 44.617549 
Q 109.023547 44.585928 106.734856 44.585928 
Q 102.629238 44.585928 100.276796 44.709131 
Q 97.930728 44.832035 97.930728 45.04831 
Q 97.930728 45.263691 100.276796 45.386893 
Q 102.629238 45.509798 106.734856 45.509798 
Q 109.023547 45.509798 111.095482 45.478177 
Q 113.167416 45.446257 115.303103 45.378242 
L 115.303103 45.666411 
z
" clip-path="url(#p9a6cae1665)" style="fill: #0000ff"/>
   </g>
   <g id="patch_4">
    <path d="M 90 41.560786 
L 115.303103 41.560786 
L 115.303103 42.100041 
L 106.19987 42.100041 
L 106.19987 44.325801 
L 99.120886 44.325801 
L 99.120886 42.100041 
L 90 42.100041 
L 90 41.560786 
z
" clip-path="url(#p9a6cae1665)" style="fill: #ff0000"/>
   </g>
   <g id="patch_5">
    <path d="M 107.527481 40.674472 
L 97.796315 40.674472 
L 96.259815 41.560786 
L 90 41.560786 
L 98.939636 36.695442 
L 106.363466 36.695442 
L 115.303103 41.560786 
L 109.048461 41.560786 
L 107.527481 40.674472 
z
M 99.348335 39.771474 
L 105.959941 39.771474 
L 102.659311 37.83618 
L 99.348335 39.771474 
z
" clip-path="url(#p9a6cae1665)" style="fill: #008000"/>
   </g>
   <g id="patch_6">
    <path d="M 141.937947 45.597708 
Q 139.386088 45.683817 136.641422 45.727067 
Q 133.896755 45.769925 130.970623 45.769925 
Q 124.358472 45.769925 120.496659 45.513566 
Q 116.634845 45.257207 116.634845 44.818801 
Q 116.634845 44.375284 120.564708 44.120891 
Q 124.500242 43.866498 131.344896 43.866498 
Q 133.981817 43.866498 136.397577 43.901099 
Q 138.819008 43.935306 140.96257 44.002935 
L 140.96257 44.382362 
Q 138.750959 44.295467 136.562031 44.252609 
Q 134.373102 44.209359 132.172833 44.209359 
Q 128.101199 44.209359 125.895259 44.367421 
Q 123.689318 44.525089 123.689318 44.818801 
Q 123.689318 45.109761 125.815868 45.268609 
Q 127.942417 45.427064 131.855268 45.427064 
Q 132.921378 45.427064 133.834377 45.418021 
Q 134.747375 45.408584 135.473237 45.388925 
L 135.473237 45.032696 
L 131.3052 45.032696 
L 131.3052 44.715393 
L 141.937947 44.715393 
L 141.937947 45.597708 
z
" clip-path="url(#p9a6cae1665)" style="fill: #ffa600"/>
   </g>
   <g id="patch_7">
    <path d="M 116.634845 39.883637 
L 141.937947 39.883637 
L 141.937947 40.660406 
L 132.834715 40.660406 
L 132.834715 43.866498 
L 125.755731 43.866498 
L 125.755731 40.660406 
L 116.634845 40.660406 
L 116.634845 39.883637 
z
" clip-path="url(#p9a6cae1665)" style="fill: #ff0000"/>
   </g>
   <g id="patch_8">
    <path d="M 134.162326 37.082481 
L 124.43116 37.082481 
L 122.89466 39.883637 
L 116.634845 39.883637 
L 125.574481 24.50694 
L 132.998311 24.50694 
L 141.937947 39.883637 
L 135.683306 39.883637 
L 134.162326 37.082481 
z
M 125.98318 34.228598 
L 132.594786 34.228598 
L 129.294156 28.112192 
L 125.98318 34.228598 
z
" clip-path="url(#p9a6cae1665)" style="fill: #008000"/>
   </g>
   <g id="patch_9">
    <path d="M 143.26969 45.400598 
L 168.572792 45.400598 
L 168.572792 45.472627 
L 159.46956 45.472627 
L 159.46956 45.769925 
L 152.390576 45.769925 
L 152.390576 45.472627 
L 143.26969 45.472627 
L 143.26969 45.400598 
z
" clip-path="url(#p9a6cae1665)" style="fill: #ff0000"/>
   </g>
   <g id="patch_10">
    <path d="M 160.797171 44.233873 
L 151.066005 44.233873 
L 149.529505 45.400598 
L 143.26969 45.400598 
L 152.209326 38.995967 
L 159.633156 38.995967 
L 168.572792 45.400598 
L 162.318151 45.400598 
L 160.797171 44.233873 
z
M 152.618025 43.045187 
L 159.229631 43.045187 
L 155.929001 40.49761 
L 152.618025 43.045187 
z
" clip-path="url(#p9a6cae1665)" style="fill: #008000"/>
   </g>
   <g id="patch_11">
    <path d="M 168.572792 38.326493 
Q 166.020933 38.66123 163.276267 38.829363 
Q 160.5316 38.995967 157.605468 38.995967 
Q 150.993317 38.995967 147.131503 37.999399 
Q 143.26969 37.00283 143.26969 35.298575 
Q 143.26969 33.57445 147.199553 32.585523 
Q 151.135087 31.596597 157.979741 31.596597 
Q 160.616662 31.596597 163.032422 31.731103 
Q 165.453853 31.864081 167.597415 32.126979 
L 167.597415 33.601962 
Q 165.385804 33.264168 163.196875 33.097564 
Q 161.007947 32.929431 158.807677 32.929431 
Q 154.736044 32.929431 152.530104 33.54388 
Q 150.324163 34.1568 150.324163 35.298575 
Q 150.324163 36.42965 152.450712 37.047156 
Q 154.577262 37.663133 158.490113 37.663133 
Q 159.556223 37.663133 160.469221 37.627978 
Q 161.38222 37.591294 162.108082 37.51487 
L 162.108082 36.130068 
L 157.940045 36.130068 
L 157.940045 34.896585 
L 168.572792 34.896585 
L 168.572792 38.326493 
z
" clip-path="url(#p9a6cae1665)" style="fill: #ffa600"/>
   </g>
   <g id="patch_12">
    <path d="M 195.207637 45.721124 
Q 193.091076 45.745314 190.802386 45.757549 
Q 188.513695 45.769925 186.020998 45.769925 
Q 178.587534 45.769925 174.246034 45.67823 
Q 169.904535 45.586535 169.904535 45.429725 
Q 169.904535 45.272353 174.246034 45.180798 
Q 178.587534 45.089103 186.020998 45.089103 
Q 188.513695 45.089103 190.802386 45.101479 
Q 193.091076 45.113715 195.207637 45.137904 
L 195.207637 45.273619 
Q 193.071951 45.241553 191.000016 45.226646 
Q 188.928082 45.211738 186.639391 45.211738 
Q 182.533773 45.211738 180.18133 45.269821 
Q 177.835263 45.327764 177.835263 45.429725 
Q 177.835263 45.531265 180.18133 45.589348 
Q 182.533773 45.64729 186.639391 45.64729 
Q 188.928082 45.64729 191.000016 45.632382 
Q 193.071951 45.617334 195.207637 45.585269 
L 195.207637 45.721124 
z
" clip-path="url(#p9a6cae1665)" style="fill: #0000ff"/>
   </g>
   <g id="patch_13">
    <path d="M 169.904535 43.656114 
L 195.207637 43.656114 
L 195.207637 43.935587 
L 186.104405 43.935587 
L 186.104405 45.089103 
L 179.02542 45.089103 
L 179.02542 43.935587 
L 169.904535 43.935587 
L 169.904535 43.656114 
z
" clip-path="url(#p9a6cae1665)" style="fill: #ff0000"/>
   </g>
   <g id="patch_14">
    <path d="M 196.539379 45.642472 
L 221.842482 45.642472 
L 221.842482 45.667329 
L 212.73925 45.667329 
L 212.73925 45.769925 
L 205.660265 45.769925 
L 205.660265 45.667329 
L 196.539379 45.667329 
L 196.539379 45.642472 
z
" clip-path="url(#p9a6cae1665)" style="fill: #ff0000"/>
   </g>
   <g id="patch_15">
    <path d="M 214.066861 43.958887 
L 204.335694 43.958887 
L 202.799194 45.642472 
L 196.539379 45.642472 
L 205.479016 36.400581 
L 212.902846 36.400581 
L 221.842482 45.642472 
L 215.587841 45.642472 
L 214.066861 43.958887 
z
M 205.887714 42.243611 
L 212.499321 42.243611 
L 209.198691 38.567454 
L 205.887714 42.243611 
z
" clip-path="url(#p9a6cae1665)" style="fill: #008000"/>
   </g>
   <g id="patch_16">
    <path d="M 240.701706 45.240976 
L 230.970539 45.240976 
L 229.434039 45.769925 
L 223.174224 45.769925 
L 232.113861 42.866305 
L 239.537691 42.866305 
L 248.477327 45.769925 
L 242.222686 45.769925 
L 240.701706 45.240976 
z
M 232.522559 44.70207 
L 239.134165 44.70207 
L 235.833536 43.547094 
L 232.522559 44.70207 
z
" clip-path="url(#p9a6cae1665)" style="fill: #008000"/>
   </g>
   <g id="patch_17">
    <path d="M 275.112172 45.7504 
Q 272.995611 45.760078 270.70692 45.764973 
Q 268.418229 45.769925 265.925533 45.769925 
Q 258.492069 45.769925 254.150569 45.733239 
Q 249.809069 45.696553 249.809069 45.633816 
Q 249.809069 45.570854 254.150569 45.534224 
Q 258.492069 45.497538 265.925533 45.497538 
Q 268.418229 45.497538 270.70692 45.50249 
Q 272.995611 45.507385 275.112172 45.517063 
L 275.112172 45.57136 
Q 272.976485 45.558531 270.904551 45.552567 
Q 268.832616 45.546603 266.543925 45.546603 
Q 262.438307 45.546603 260.085865 45.569841 
Q 257.739797 45.593023 257.739797 45.633816 
Q 257.739797 45.674441 260.085865 45.697679 
Q 262.438307 45.72086 266.543925 45.72086 
Q 268.832616 45.72086 270.904551 45.714896 
Q 272.976485 45.708876 275.112172 45.696047 
L 275.112172 45.7504 
z
" clip-path="url(#p9a6cae1665)" style="fill: #0000ff"/>
   </g>
   <g id="patch_18">
    <path d="M 267.336551 44.665547 
L 257.605384 44.665547 
L 256.068884 45.497538 
L 249.809069 45.497538 
L 258.748706 40.930397 
L 266.172535 40.930397 
L 275.112172 45.497538 
L 268.85753 45.497538 
L 267.336551 44.665547 
z
M 259.157404 43.817895 
L 265.76901 43.817895 
L 262.468381 42.001218 
L 259.157404 43.817895 
z
" clip-path="url(#p9a6cae1665)" style="fill: #008000"/>
   </g>
   <g id="patch_19">
    <path d="M 303.078759 42.710953 
L 328.381862 42.710953 
L 328.381862 43.307538 
L 319.278629 43.307538 
L 319.278629 45.769925 
L 312.199645 45.769925 
L 312.199645 43.307538 
L 303.078759 43.307538 
L 303.078759 42.710953 
z
" clip-path="url(#p9a6cae1665)" style="fill: #ff0000"/>
   </g>
   <g id="patch_20">
    <path d="M 356.348449 42.614836 
L 381.651551 42.614836 
L 381.651551 43.230166 
L 372.548319 43.230166 
L 372.548319 45.769925 
L 365.469335 45.769925 
L 365.469335 43.230166 
L 356.348449 43.230166 
L 356.348449 42.614836 
z
" clip-path="url(#p9a6cae1665)" style="fill: #ff0000"/>
   </g>
   <g id="patch_21">
    <path d="M 427.14562 45.505746 
L 417.414453 45.505746 
L 415.877953 45.769925 
L 409.618138 45.769925 
L 418.557775 44.319736 
L 425.981605 44.319736 
L 434.921241 45.769925 
L 428.6666 45.769925 
L 427.14562 45.505746 
z
M 418.966473 45.236593 
L 425.578079 45.236593 
L 422.27745 44.65975 
L 418.966473 45.236593 
z
" clip-path="url(#p9a6cae1665)" style="fill: #008000"/>
   </g>
   <g id="patch_22">
    <path d="M 516.157518 45.038284 
L 541.460621 45.038284 
L 541.460621 45.180974 
L 532.357388 45.180974 
L 532.357388 45.769925 
L 525.278404 45.769925 
L 525.278404 45.180974 
L 516.157518 45.180974 
L 516.157518 45.038284 
z
" clip-path="url(#p9a6cae1665)" style="fill: #ff0000"/>
   </g>
   <g id="patch_23">
    <path d="M 533.684999 42.853246 
L 523.953833 42.853246 
L 522.417333 45.038284 
L 516.157518 45.038284 
L 525.097154 33.043713 
L 532.520984 33.043713 
L 541.460621 45.038284 
L 535.205979 45.038284 
L 533.684999 42.853246 
z
M 525.505853 40.627079 
L 532.117459 40.627079 
L 528.816829 35.855985 
L 525.505853 40.627079 
z
" clip-path="url(#p9a6cae1665)" style="fill: #008000"/>
   </g>
   <g id="patch_24">
    <path d="M 568.095465 45.756711 
Q 565.543606 45.763318 562.79894 45.766637 
Q 560.054273 45.769925 557.128141 45.769925 
Q 550.51599 45.769925 546.654177 45.750255 
Q 542.792363 45.730585 542.792363 45.696947 
Q 542.792363 45.662917 546.722226 45.643398 
Q 550.65776 45.623879 557.502414 45.623879 
Q 560.139335 45.623879 562.555095 45.626534 
Q 564.976526 45.629159 567.120088 45.634348 
L 567.120088 45.66346 
Q 564.908477 45.656793 562.719548 45.653505 
Q 560.53062 45.650186 558.33035 45.650186 
Q 554.258717 45.650186 552.052777 45.662314 
Q 549.846836 45.674411 549.846836 45.696947 
Q 549.846836 45.719272 551.973385 45.73146 
Q 554.099935 45.743618 558.012786 45.743618 
Q 559.078896 45.743618 559.991894 45.742924 
Q 560.904893 45.7422 561.630755 45.740692 
L 561.630755 45.713359 
L 557.462718 45.713359 
L 557.462718 45.689013 
L 568.095465 45.689013 
L 568.095465 45.756711 
z
" clip-path="url(#p9a6cae1665)" style="fill: #ffa600"/>
   </g>
   <g id="patch_25">
    <path d="M 569.427208 43.850968 
L 594.73031 43.850968 
L 594.73031 44.225218 
L 585.627078 44.225218 
L 585.627078 45.769925 
L 578.548093 45.769925 
L 578.548093 44.225218 
L 569.427208 44.225218 
L 569.427208 43.850968 
z
" clip-path="url(#p9a6cae1665)" style="fill: #ff0000"/>
   </g>
   <g id="patch_26">
    <path d="M 596.062053 40.450184 
L 621.365155 40.450184 
L 621.365155 41.487681 
L 612.261923 41.487681 
L 612.261923 45.769925 
L 605.182938 45.769925 
L 605.182938 41.487681 
L 596.062053 41.487681 
L 596.062053 40.450184 
z
" clip-path="url(#p9a6cae1665)" style="fill: #ff0000"/>
   </g>
   <g id="patch_27">
    <path d="M 648 45.692361 
Q 645.883439 45.730808 643.594748 45.750255 
Q 641.306058 45.769925 638.813361 45.769925 
Q 631.379897 45.769925 627.038397 45.624185 
Q 622.696897 45.478445 622.696897 45.229212 
Q 622.696897 44.979085 627.038397 44.833569 
Q 631.379897 44.687829 638.813361 44.687829 
Q 641.306058 44.687829 643.594748 44.707499 
Q 645.883439 44.726946 648 44.765393 
L 648 44.981097 
Q 645.864314 44.930132 643.792379 44.906439 
Q 641.720444 44.882745 639.431754 44.882745 
Q 635.326136 44.882745 632.973693 44.975061 
Q 630.627625 45.067155 630.627625 45.229212 
Q 630.627625 45.390599 632.973693 45.482916 
Q 635.326136 45.575009 639.431754 45.575009 
Q 641.720444 45.575009 643.792379 45.551315 
Q 645.864314 45.527398 648 45.476433 
L 648 45.692361 
z
" clip-path="url(#p9a6cae1665)" style="fill: #0000ff"/>
   </g>
   <g id="patch_28">
    <path d="M 622.696897 43.336058 
L 648 43.336058 
L 648 43.599691 
L 638.896767 43.599691 
L 638.896767 44.687829 
L 631.817783 44.687829 
L 631.817783 43.599691 
L 622.696897 43.599691 
L 622.696897 43.336058 
z
" clip-path="url(#p9a6cae1665)" style="fill: #ff0000"/>
   </g>
   <g id="patch_29">
    <path d="M 648 42.933637 
Q 645.448141 43.134847 642.703474 43.235912 
Q 639.958808 43.336058 637.032676 43.336058 
Q 630.420525 43.336058 626.558711 42.73702 
Q 622.696897 42.137983 622.696897 41.113556 
Q 622.696897 40.077185 626.626761 39.482741 
Q 630.562295 38.888298 637.406949 38.888298 
Q 640.04387 38.888298 642.45963 38.969149 
Q 644.881061 39.049082 647.024623 39.207111 
L 647.024623 40.093722 
Q 644.813011 39.890675 642.624083 39.790529 
Q 640.435155 39.689464 638.234885 39.689464 
Q 634.163252 39.689464 631.957311 40.058809 
Q 629.751371 40.427236 629.751371 41.113556 
Q 629.751371 41.793445 631.87792 42.164627 
Q 634.004469 42.534891 637.91732 42.534891 
Q 638.98343 42.534891 639.896429 42.513759 
Q 640.809428 42.491709 641.53529 42.445771 
L 641.53529 41.613366 
L 637.367253 41.613366 
L 637.367253 40.87192 
L 648 40.87192 
L 648 42.933637 
z
" clip-path="url(#p9a6cae1665)" style="fill: #ffa600"/>
   </g>
   <g id="patch_30">
    <path d="M 115.303103 46.262853 
Q 112.751243 46.016389 110.006577 45.892594 
Q 107.26191 45.769925 104.335778 45.769925 
Q 97.723627 45.769925 93.861814 46.50369 
Q 90 47.237456 90 48.492285 
Q 90 49.761744 93.929863 50.489883 
Q 97.865397 51.218021 104.710051 51.218021 
Q 107.346972 51.218021 109.762733 51.118985 
Q 112.184163 51.021075 114.327725 50.827505 
L 114.327725 49.741487 
Q 112.116114 49.990202 109.927186 50.112871 
Q 107.738258 50.236666 105.537988 50.236666 
Q 101.466354 50.236666 99.260414 49.784252 
Q 97.054473 49.332964 97.054473 48.492285 
Q 97.054473 47.659484 99.181023 47.204819 
Q 101.307572 46.75128 105.220423 46.75128 
Q 106.286533 46.75128 107.199532 46.777164 
Q 108.11253 46.804174 108.838392 46.860445 
L 108.838392 47.880063 
L 104.670356 47.880063 
L 104.670356 48.788267 
L 115.303103 48.788267 
L 115.303103 46.262853 
z
" clip-path="url(#p9a6cae1665)" style="fill: #ffa600"/>
   </g>
   <g id="patch_31">
    <path d="M 141.937947 45.871212 
Q 139.821387 45.821006 137.532696 45.795612 
Q 135.244005 45.769925 132.751308 45.769925 
Q 125.317845 45.769925 120.976345 45.96024 
Q 116.634845 46.150555 116.634845 46.476017 
Q 116.634845 46.802647 120.976345 46.99267 
Q 125.317845 47.182985 132.751308 47.182985 
Q 135.244005 47.182985 137.532696 47.157298 
Q 139.821387 47.131904 141.937947 47.081698 
L 141.937947 46.80002 
Q 139.802261 46.866572 137.730326 46.897513 
Q 135.658392 46.928453 133.369701 46.928453 
Q 129.264083 46.928453 126.91164 46.807901 
Q 124.565573 46.687641 124.565573 46.476017 
Q 124.565573 46.26527 126.91164 46.144717 
Q 129.264083 46.024457 133.369701 46.024457 
Q 135.658392 46.024457 137.730326 46.055398 
Q 139.802261 46.08663 141.937947 46.153182 
L 141.937947 45.871212 
z
" clip-path="url(#p9a6cae1665)" style="fill: #0000ff"/>
   </g>
   <g id="patch_32">
    <path d="M 168.572792 46.313045 
Q 166.456231 46.043833 164.167541 45.907661 
Q 161.87885 45.769925 159.386153 45.769925 
Q 151.952689 45.769925 147.61119 46.790427 
Q 143.26969 47.810929 143.26969 49.556113 
Q 143.26969 51.307558 147.61119 52.326495 
Q 151.952689 53.346997 159.386153 53.346997 
Q 161.87885 53.346997 164.167541 53.20926 
Q 166.456231 53.073089 168.572792 52.803877 
L 168.572792 51.293471 
Q 166.437106 51.650334 164.365171 51.816244 
Q 162.293237 51.982153 160.004546 51.982153 
Q 155.898928 51.982153 153.546485 51.335731 
Q 151.200418 50.690874 151.200418 49.556113 
Q 151.200418 48.426048 153.546485 47.779625 
Q 155.898928 47.134768 160.004546 47.134768 
Q 162.293237 47.134768 164.365171 47.300678 
Q 166.437106 47.468153 168.572792 47.825016 
L 168.572792 46.313045 
z
" clip-path="url(#p9a6cae1665)" style="fill: #0000ff"/>
   </g>
   <g id="patch_33">
    <path d="M 187.432016 45.947947 
L 177.700849 45.947947 
L 176.164349 45.769925 
L 169.904535 45.769925 
L 178.844171 46.747162 
L 186.268001 46.747162 
L 195.207637 45.769925 
L 188.952996 45.769925 
L 187.432016 45.947947 
z
M 179.25287 46.12932 
L 185.864476 46.12932 
L 182.563846 46.518037 
L 179.25287 46.12932 
z
" clip-path="url(#p9a6cae1665)" style="fill: #008000"/>
   </g>
   <g id="patch_34">
    <path d="M 195.207637 47.325438 
Q 192.655778 47.0363 189.911111 46.891071 
Q 187.166445 46.747162 184.240313 46.747162 
Q 177.628162 46.747162 173.766348 47.607974 
Q 169.904535 48.468787 169.904535 49.940882 
Q 169.904535 51.430141 173.834398 52.284352 
Q 177.769932 53.138563 184.614586 53.138563 
Q 187.251507 53.138563 189.667267 53.02238 
Q 192.088698 52.907517 194.23226 52.680431 
L 194.23226 51.406376 
Q 192.020649 51.698154 189.83172 51.842063 
Q 187.642792 51.987292 185.442522 51.987292 
Q 181.370889 51.987292 179.164948 51.456546 
Q 176.959008 50.92712 176.959008 49.940882 
Q 176.959008 48.963886 179.085557 48.430499 
Q 181.212107 47.898433 185.124958 47.898433 
Q 186.191068 47.898433 187.104066 47.928799 
Q 188.017065 47.960485 188.742927 48.026498 
L 188.742927 49.222658 
L 184.57489 49.222658 
L 184.57489 50.288112 
L 195.207637 50.288112 
L 195.207637 47.325438 
z
" clip-path="url(#p9a6cae1665)" style="fill: #ffa600"/>
   </g>
   <g id="patch_35">
    <path d="M 221.842482 45.959974 
Q 219.725921 45.865771 217.43723 45.818122 
Q 215.14854 45.769925 212.655843 45.769925 
Q 205.222379 45.769925 200.880879 46.127019 
Q 196.539379 46.484113 196.539379 47.094788 
Q 196.539379 47.707654 200.880879 48.0642 
Q 205.222379 48.421295 212.655843 48.421295 
Q 215.14854 48.421295 217.43723 48.373098 
Q 219.725921 48.325449 221.842482 48.231246 
L 221.842482 47.702725 
Q 219.706796 47.827598 217.634861 47.885653 
Q 215.562927 47.943708 213.274236 47.943708 
Q 209.168618 47.943708 206.816175 47.717512 
Q 204.470108 47.491864 204.470108 47.094788 
Q 204.470108 46.699356 206.816175 46.47316 
Q 209.168618 46.247511 213.274236 46.247511 
Q 215.562927 46.247511 217.634861 46.305566 
Q 219.706796 46.364169 221.842482 46.489043 
L 221.842482 45.959974 
z
" clip-path="url(#p9a6cae1665)" style="fill: #0000ff"/>
   </g>
   <g id="patch_36">
    <path d="M 221.842482 52.448506 
Q 219.290623 50.4349 216.545956 49.4235 
Q 213.80129 48.421295 210.875158 48.421295 
Q 204.263007 48.421295 200.401193 54.416138 
Q 196.539379 60.410982 196.539379 70.6629 
Q 196.539379 81.034347 200.469243 86.983218 
Q 204.404777 92.932089 211.249431 92.932089 
Q 213.886352 92.932089 216.302112 92.122969 
Q 218.723543 91.323044 220.867105 89.741582 
L 220.867105 80.868846 
Q 218.655493 82.90084 216.466565 83.903046 
Q 214.277637 84.914446 212.077367 84.914446 
Q 208.005734 84.914446 205.799793 81.218238 
Q 203.593853 77.531226 203.593853 70.6629 
Q 203.593853 63.858936 205.720402 60.14434 
Q 207.846952 56.438938 211.759802 56.438938 
Q 212.825913 56.438938 213.738911 56.650413 
Q 214.65191 56.871082 215.377772 57.330809 
L 215.377772 65.661067 
L 211.209735 65.661067 
L 211.209735 73.081066 
L 221.842482 73.081066 
L 221.842482 52.448506 
z
" clip-path="url(#p9a6cae1665)" style="fill: #ffa600"/>
   </g>
   <g id="patch_37">
    <path d="M 248.477327 46.844488 
Q 246.360766 46.690836 244.072075 46.613117 
Q 241.783384 46.534504 239.290688 46.534504 
Q 231.857224 46.534504 227.515724 47.116952 
Q 223.174224 47.699399 223.174224 48.695456 
Q 223.174224 49.695086 227.515724 50.27664 
Q 231.857224 50.859088 239.290688 50.859088 
Q 241.783384 50.859088 244.072075 50.780475 
Q 246.360766 50.702756 248.477327 50.549104 
L 248.477327 49.687046 
Q 246.341641 49.890724 244.269706 49.985416 
Q 242.197771 50.080109 239.909081 50.080109 
Q 235.803463 50.080109 233.45102 49.711166 
Q 231.104952 49.343116 231.104952 48.695456 
Q 231.104952 48.050476 233.45102 47.681533 
Q 235.803463 47.313483 239.909081 47.313483 
Q 242.197771 47.313483 244.269706 47.408175 
Q 246.341641 47.503761 248.477327 47.707439 
L 248.477327 46.844488 
z
" clip-path="url(#p9a6cae1665)" style="fill: #0000ff"/>
   </g>
   <g id="patch_38">
    <path d="M 248.477327 45.839102 
Q 245.925468 45.804513 243.180801 45.78714 
Q 240.436135 45.769925 237.510003 45.769925 
Q 230.897852 45.769925 227.036038 45.872901 
Q 223.174224 45.975876 223.174224 46.151978 
Q 223.174224 46.330132 227.104088 46.432318 
Q 231.039622 46.534504 237.884275 46.534504 
Q 240.521197 46.534504 242.936957 46.520605 
Q 245.358388 46.506865 247.50195 46.479699 
L 247.50195 46.327289 
Q 245.290338 46.362193 243.10141 46.379409 
Q 240.912482 46.396782 238.712212 46.396782 
Q 234.640579 46.396782 232.434638 46.333291 
Q 230.228698 46.269957 230.228698 46.151978 
Q 230.228698 46.035103 232.355247 45.971296 
Q 234.481796 45.907647 238.394647 45.907647 
Q 239.460757 45.907647 240.373756 45.91128 
Q 241.286755 45.91507 242.012617 45.922967 
L 242.012617 46.066059 
L 237.84458 46.066059 
L 237.84458 46.193515 
L 248.477327 46.193515 
L 248.477327 45.839102 
z
" clip-path="url(#p9a6cae1665)" style="fill: #ffa600"/>
   </g>
   <g id="patch_39">
    <path d="M 223.174224 75.433804 
L 248.477327 75.433804 
L 248.477327 70.64105 
L 239.374094 70.64105 
L 239.374094 50.859088 
L 232.29511 50.859088 
L 232.29511 70.64105 
L 223.174224 70.64105 
L 223.174224 75.433804 
z
" clip-path="url(#p9a6cae1665)" style="fill: #ff0000"/>
   </g>
   <g id="patch_40">
    <path d="M 275.112172 45.876216 
Q 272.560313 45.82307 269.815646 45.796376 
Q 267.07098 45.769925 264.144848 45.769925 
Q 257.532697 45.769925 253.670883 45.928148 
Q 249.809069 46.086371 249.809069 46.356952 
Q 249.809069 46.630687 253.738933 46.787697 
Q 257.674467 46.944706 264.51912 46.944706 
Q 267.156042 46.944706 269.571802 46.923351 
Q 271.993233 46.902239 274.136795 46.860499 
L 274.136795 46.626319 
Q 271.925183 46.67995 269.736255 46.706401 
Q 267.547327 46.733095 265.347057 46.733095 
Q 261.275424 46.733095 259.069483 46.635541 
Q 256.863542 46.538229 256.863542 46.356952 
Q 256.863542 46.177373 258.990092 46.079333 
Q 261.116641 45.981536 265.029492 45.981536 
Q 266.095602 45.981536 267.008601 45.987118 
Q 267.921599 45.992942 268.647462 46.005075 
L 268.647462 46.224937 
L 264.479425 46.224937 
L 264.479425 46.420775 
L 275.112172 46.420775 
L 275.112172 45.876216 
z
" clip-path="url(#p9a6cae1665)" style="fill: #ffa600"/>
   </g>
   <g id="patch_41">
    <path d="M 249.809069 90.414087 
L 275.112172 90.414087 
L 275.112172 81.936347 
L 266.008939 81.936347 
L 266.008939 46.944706 
L 258.929955 46.944706 
L 258.929955 81.936347 
L 249.809069 81.936347 
L 249.809069 90.414087 
z
" clip-path="url(#p9a6cae1665)" style="fill: #ff0000"/>
   </g>
   <g id="patch_42">
    <path d="M 293.971396 59.858239 
L 284.240229 59.858239 
L 282.703729 46.777092 
L 276.443914 46.777092 
L 285.38355 118.584893 
L 292.80738 118.584893 
L 301.747017 46.777092 
L 295.492375 46.777092 
L 293.971396 59.858239 
z
M 285.792249 73.185619 
L 292.403855 73.185619 
L 289.103225 101.748688 
L 285.792249 73.185619 
z
" clip-path="url(#p9a6cae1665)" style="fill: #008000"/>
   </g>
   <g id="patch_43">
    <path d="M 301.747017 45.783795 
Q 299.195157 45.77686 296.450491 45.773377 
Q 293.705825 45.769925 290.779693 45.769925 
Q 284.167542 45.769925 280.305728 45.790572 
Q 276.443914 45.81122 276.443914 45.846529 
Q 276.443914 45.882251 280.373777 45.90274 
Q 284.309312 45.923229 291.153965 45.923229 
Q 293.790886 45.923229 296.206647 45.920442 
Q 298.628078 45.917687 300.771639 45.91224 
L 300.771639 45.881681 
Q 298.560028 45.888679 296.3711 45.892131 
Q 294.182172 45.895615 291.981902 45.895615 
Q 287.910269 45.895615 285.704328 45.882884 
Q 283.498387 45.870185 283.498387 45.846529 
Q 283.498387 45.823095 285.624937 45.810301 
Q 287.751486 45.797539 291.664337 45.797539 
Q 292.730447 45.797539 293.643446 45.798268 
Q 294.556444 45.799028 295.282306 45.800611 
L 295.282306 45.829302 
L 291.11427 45.829302 
L 291.11427 45.854858 
L 301.747017 45.854858 
L 301.747017 45.783795 
z
" clip-path="url(#p9a6cae1665)" style="fill: #ffa600"/>
   </g>
   <g id="patch_44">
    <path d="M 276.443914 46.777092 
L 301.747017 46.777092 
L 301.747017 46.610565 
L 292.643784 46.610565 
L 292.643784 45.923229 
L 285.5648 45.923229 
L 285.5648 46.610565 
L 276.443914 46.610565 
L 276.443914 46.777092 
z
" clip-path="url(#p9a6cae1665)" style="fill: #ff0000"/>
   </g>
   <g id="patch_45">
    <path d="M 320.60624 60.99287 
L 310.875074 60.99287 
L 309.338574 51.418406 
L 303.078759 51.418406 
L 312.018395 103.976584 
L 319.442225 103.976584 
L 328.381862 51.418406 
L 322.12722 51.418406 
L 320.60624 60.99287 
z
M 312.427094 70.74756 
L 319.0387 70.74756 
L 315.73807 91.653685 
L 312.427094 70.74756 
z
" clip-path="url(#p9a6cae1665)" style="fill: #008000"/>
   </g>
   <g id="patch_46">
    <path d="M 328.381862 48.710539 
Q 326.265301 48.6069 323.97661 48.554478 
Q 321.687919 48.501453 319.195222 48.501453 
Q 311.761759 48.501453 307.420259 48.894317 
Q 303.078759 49.287181 303.078759 49.959026 
Q 303.078759 50.633281 307.420259 51.025542 
Q 311.761759 51.418406 319.195222 51.418406 
Q 321.687919 51.418406 323.97661 51.365381 
Q 326.265301 51.312959 328.381862 51.20932 
L 328.381862 50.627858 
Q 326.246175 50.76524 324.174241 50.82911 
Q 322.102306 50.892981 319.813615 50.892981 
Q 315.707997 50.892981 313.355554 50.644127 
Q 311.009487 50.395876 311.009487 49.959026 
Q 311.009487 49.523983 313.355554 49.27513 
Q 315.707997 49.026878 319.813615 49.026878 
Q 322.102306 49.026878 324.174241 49.090749 
Q 326.246175 49.155222 328.381862 49.292604 
L 328.381862 48.710539 
z
" clip-path="url(#p9a6cae1665)" style="fill: #0000ff"/>
   </g>
   <g id="patch_47">
    <path d="M 328.381862 46.017066 
Q 325.830002 45.893495 323.085336 45.831428 
Q 320.340669 45.769925 317.414537 45.769925 
Q 310.802386 45.769925 306.940573 46.137815 
Q 303.078759 46.505705 303.078759 47.134843 
Q 303.078759 47.771315 307.008622 48.136384 
Q 310.944156 48.501453 317.78881 48.501453 
Q 320.425731 48.501453 322.841492 48.4518 
Q 325.262922 48.40271 327.406484 48.305659 
L 327.406484 47.761159 
Q 325.194873 47.885858 323.005945 47.947361 
Q 320.817016 48.009428 318.616747 48.009428 
Q 314.545113 48.009428 312.339173 47.7826 
Q 310.133232 47.556337 310.133232 47.134843 
Q 310.133232 46.717299 312.259782 46.489342 
Q 314.386331 46.26195 318.299182 46.26195 
Q 319.365292 46.26195 320.278291 46.274928 
Q 321.191289 46.28847 321.917151 46.316682 
L 321.917151 46.827891 
L 317.749115 46.827891 
L 317.749115 47.28324 
L 328.381862 47.28324 
L 328.381862 46.017066 
z
" clip-path="url(#p9a6cae1665)" style="fill: #ffa600"/>
   </g>
   <g id="patch_48">
    <path d="M 347.241085 45.791405 
L 337.509919 45.791405 
L 335.973419 45.769925 
L 329.713604 45.769925 
L 338.65324 45.887835 
L 346.07707 45.887835 
L 355.016706 45.769925 
L 348.762065 45.769925 
L 347.241085 45.791405 
z
M 339.061939 45.813289 
L 345.673545 45.813289 
L 342.372915 45.86019 
L 339.061939 45.813289 
z
" clip-path="url(#p9a6cae1665)" style="fill: #008000"/>
   </g>
   <g id="patch_49">
    <path d="M 329.713604 192.24 
L 355.016706 192.24 
L 355.016706 163.69725 
L 345.913474 163.69725 
L 345.913474 45.887835 
L 338.83449 45.887835 
L 338.83449 163.69725 
L 329.713604 163.69725 
L 329.713604 192.24 
z
" clip-path="url(#p9a6cae1665)" style="fill: #ff0000"/>
   </g>
   <g id="patch_50">
    <path d="M 381.651551 46.244882 
Q 379.53499 46.009457 377.2463 45.890375 
Q 374.957609 45.769925 372.464912 45.769925 
Q 365.031448 45.769925 360.689949 46.662352 
Q 356.348449 47.554779 356.348449 49.080938 
Q 356.348449 50.612572 360.689949 51.50363 
Q 365.031448 52.396057 372.464912 52.396057 
Q 374.957609 52.396057 377.2463 52.275607 
Q 379.53499 52.156525 381.651551 51.9211 
L 381.651551 50.600253 
Q 379.515865 50.912329 377.44393 51.057417 
Q 375.371996 51.202505 373.083305 51.202505 
Q 368.977687 51.202505 366.625244 50.63721 
Q 364.279177 50.073284 364.279177 49.080938 
Q 364.279177 48.092698 366.625244 47.527403 
Q 368.977687 46.963477 373.083305 46.963477 
Q 375.371996 46.963477 377.44393 47.108565 
Q 379.515865 47.255022 381.651551 47.567097 
L 381.651551 46.244882 
z
" clip-path="url(#p9a6cae1665)" style="fill: #0000ff"/>
   </g>
   <g id="patch_51">
    <path d="M 381.651551 55.648793 
Q 379.099692 54.022425 376.355026 53.205528 
Q 373.610359 52.396057 370.684227 52.396057 
Q 364.072076 52.396057 360.210262 57.238029 
Q 356.348449 62.08 356.348449 70.360366 
Q 356.348449 78.737274 360.278312 83.542114 
Q 364.213846 88.346954 371.0585 88.346954 
Q 373.695421 88.346954 376.111181 87.693437 
Q 378.532612 87.047345 380.676174 85.770015 
L 380.676174 78.6036 
Q 378.464563 80.244821 376.275634 81.054291 
Q 374.086706 81.871188 371.886436 81.871188 
Q 367.814803 81.871188 365.608863 78.885801 
Q 363.402922 75.90784 363.402922 70.360366 
Q 363.402922 64.864877 365.529471 61.864637 
Q 367.656021 58.871823 371.568872 58.871823 
Q 372.634982 58.871823 373.54798 59.042629 
Q 374.460979 59.220861 375.186841 59.592177 
L 375.186841 66.320439 
L 371.018804 66.320439 
L 371.018804 72.313493 
L 381.651551 72.313493 
L 381.651551 55.648793 
z
" clip-path="url(#p9a6cae1665)" style="fill: #ffa600"/>
   </g>
   <g id="patch_52">
    <path d="M 400.510775 68.553769 
L 390.779608 68.553769 
L 389.243108 45.769925 
L 382.983294 45.769925 
L 391.92293 170.839825 
L 399.34676 170.839825 
L 408.286396 45.769925 
L 402.031755 45.769925 
L 400.510775 68.553769 
z
M 392.331629 91.766485 
L 398.943235 91.766485 
L 395.642605 141.515678 
L 392.331629 91.766485 
z
" clip-path="url(#p9a6cae1665)" style="fill: #008000"/>
   </g>
   <g id="patch_53">
    <path d="M 434.921241 54.366356 
Q 432.80468 53.872165 430.515989 53.622196 
Q 428.227299 53.369354 425.734602 53.369354 
Q 418.301138 53.369354 413.959638 55.242683 
Q 409.618138 57.116012 409.618138 60.319634 
Q 409.618138 63.534749 413.959638 65.405205 
Q 418.301138 67.278534 425.734602 67.278534 
Q 428.227299 67.278534 430.515989 67.025692 
Q 432.80468 66.775724 434.921241 66.281532 
L 434.921241 63.508891 
Q 432.785555 64.163981 430.71362 64.468541 
Q 428.641685 64.7731 426.352995 64.7731 
Q 422.247377 64.7731 419.894934 63.586467 
Q 417.548866 62.402707 417.548866 60.319634 
Q 417.548866 58.245181 419.894934 57.058548 
Q 422.247377 55.874788 426.352995 55.874788 
Q 428.641685 55.874788 430.71362 56.179347 
Q 432.785555 56.48678 434.921241 57.141871 
L 434.921241 54.366356 
z
" clip-path="url(#p9a6cae1665)" style="fill: #0000ff"/>
   </g>
   <g id="patch_54">
    <path d="M 434.921241 46.4575 
Q 432.369382 46.113712 429.624715 45.941034 
Q 426.880049 45.769925 423.953917 45.769925 
Q 417.341766 45.769925 413.479952 46.793438 
Q 409.618138 47.816951 409.618138 49.567285 
Q 409.618138 51.338025 413.548002 52.35369 
Q 417.483536 53.369354 424.32819 53.369354 
Q 426.965111 53.369354 429.380871 53.231211 
Q 431.802302 53.094638 433.945864 52.824631 
L 433.945864 51.309769 
Q 431.734252 51.656696 429.545324 51.827805 
Q 427.356396 52.000483 425.156126 52.000483 
Q 421.084493 52.000483 418.878552 51.369422 
Q 416.672612 50.739929 416.672612 49.567285 
Q 416.672612 48.405629 418.799161 47.771427 
Q 420.925711 47.138795 424.838561 47.138795 
Q 425.904672 47.138795 426.81767 47.174901 
Q 427.730669 47.212576 428.456531 47.291067 
L 428.456531 48.71331 
L 424.288494 48.71331 
L 424.288494 49.980144 
L 434.921241 49.980144 
L 434.921241 46.4575 
z
" clip-path="url(#p9a6cae1665)" style="fill: #ffa600"/>
   </g>
   <g id="patch_55">
    <path d="M 409.618138 97.600659 
L 434.921241 97.600659 
L 434.921241 91.687 
L 425.818009 91.687 
L 425.818009 67.278534 
L 418.739024 67.278534 
L 418.739024 91.687 
L 409.618138 91.687 
L 409.618138 97.600659 
z
" clip-path="url(#p9a6cae1665)" style="fill: #ff0000"/>
   </g>
   <g id="patch_56">
    <path d="M 436.252983 170.795119 
L 461.556086 170.795119 
L 461.556086 146.411723 
L 452.452853 146.411723 
L 452.452853 45.769925 
L 445.373869 45.769925 
L 445.373869 146.411723 
L 436.252983 146.411723 
L 436.252983 170.795119 
z
" clip-path="url(#p9a6cae1665)" style="fill: #ff0000"/>
   </g>
   <g id="patch_57">
    <path d="M 480.41531 58.289855 
L 470.684143 58.289855 
L 469.147643 48.579601 
L 462.887828 48.579601 
L 471.827465 101.883187 
L 479.251294 101.883187 
L 488.190931 48.579601 
L 481.936289 48.579601 
L 480.41531 58.289855 
z
M 472.236163 68.182891 
L 478.847769 68.182891 
L 475.54714 89.385518 
L 472.236163 68.182891 
z
" clip-path="url(#p9a6cae1665)" style="fill: #008000"/>
   </g>
   <g id="patch_58">
    <path d="M 488.190931 45.869555 
Q 486.07437 45.820171 483.785679 45.795191 
Q 481.496988 45.769925 479.004292 45.769925 
Q 471.570828 45.769925 467.229328 45.957127 
Q 462.887828 46.144329 462.887828 46.464467 
Q 462.887828 46.785753 467.229328 46.972668 
Q 471.570828 47.15987 479.004292 47.15987 
Q 481.496988 47.15987 483.785679 47.134603 
Q 486.07437 47.109624 488.190931 47.060239 
L 488.190931 46.783169 
Q 486.055244 46.848632 483.98331 46.879067 
Q 481.911375 46.909502 479.622684 46.909502 
Q 475.517066 46.909502 473.164624 46.790921 
Q 470.818556 46.672628 470.818556 46.464467 
Q 470.818556 46.257166 473.164624 46.138586 
Q 475.517066 46.020293 479.622684 46.020293 
Q 481.911375 46.020293 483.98331 46.050728 
Q 486.055244 46.081449 488.190931 46.146913 
L 488.190931 45.869555 
z
" clip-path="url(#p9a6cae1665)" style="fill: #0000ff"/>
   </g>
   <g id="patch_59">
    <path d="M 488.190931 47.288323 
Q 485.639071 47.224096 482.894405 47.191836 
Q 480.149739 47.15987 477.223607 47.15987 
Q 470.611456 47.15987 466.749642 47.351083 
Q 462.887828 47.542297 462.887828 47.869295 
Q 462.887828 48.200106 466.817691 48.389854 
Q 470.753226 48.579601 477.597879 48.579601 
Q 480.234801 48.579601 482.650561 48.553793 
Q 485.071992 48.528278 487.215553 48.477835 
L 487.215553 48.194828 
Q 485.003942 48.259641 482.815014 48.291607 
Q 480.626086 48.323867 478.425816 48.323867 
Q 474.354183 48.323867 472.148242 48.205972 
Q 469.942301 48.08837 469.942301 47.869295 
Q 469.942301 47.652274 472.068851 47.533792 
Q 474.1954 47.415603 478.108251 47.415603 
Q 479.174361 47.415603 480.08736 47.422348 
Q 481.000358 47.429387 481.726221 47.44405 
L 481.726221 47.709755 
L 477.558184 47.709755 
L 477.558184 47.946426 
L 488.190931 47.946426 
L 488.190931 47.288323 
z
" clip-path="url(#p9a6cae1665)" style="fill: #ffa600"/>
   </g>
   <g id="patch_60">
    <path d="M 507.050154 61.866116 
L 497.318988 61.866116 
L 495.782488 46.035804 
L 489.522673 46.035804 
L 498.462309 132.934901 
L 505.886139 132.934901 
L 514.825776 46.035804 
L 508.571134 46.035804 
L 507.050154 61.866116 
z
M 498.871008 77.994409 
L 505.482614 77.994409 
L 502.181984 112.560359 
L 498.871008 77.994409 
z
" clip-path="url(#p9a6cae1665)" style="fill: #008000"/>
   </g>
   <g id="patch_61">
    <path d="M 514.825776 45.793981 
Q 512.273916 45.781953 509.52925 45.775911 
Q 506.784583 45.769925 503.858451 45.769925 
Q 497.246301 45.769925 493.384487 45.805734 
Q 489.522673 45.841544 489.522673 45.902782 
Q 489.522673 45.964735 493.452536 46.00027 
Q 497.38807 46.035804 504.232724 46.035804 
Q 506.869645 46.035804 509.285406 46.030971 
Q 511.706837 46.026193 513.850398 46.016746 
L 513.850398 45.963746 
Q 511.638787 45.975884 509.449859 45.981871 
Q 507.260931 45.987912 505.060661 45.987912 
Q 500.989027 45.987912 498.783087 45.965833 
Q 496.577146 45.943809 496.577146 45.902782 
Q 496.577146 45.86214 498.703696 45.839951 
Q 500.830245 45.817817 504.743096 45.817817 
Q 505.809206 45.817817 506.722205 45.819081 
Q 507.635203 45.820399 508.361065 45.823145 
L 508.361065 45.872905 
L 504.193029 45.872905 
L 504.193029 45.917227 
L 514.825776 45.917227 
L 514.825776 45.793981 
z
" clip-path="url(#p9a6cae1665)" style="fill: #ffa600"/>
   </g>
   <g id="patch_62">
    <path d="M 541.460621 50.856817 
Q 539.34406 48.699111 537.055369 47.607713 
Q 534.766678 46.503771 532.273981 46.503771 
Q 524.840518 46.503771 520.499018 54.682982 
Q 516.157518 62.862192 516.157518 76.849646 
Q 516.157518 90.88728 520.499018 99.053946 
Q 524.840518 107.233156 532.273981 107.233156 
Q 534.766678 107.233156 537.055369 106.129214 
Q 539.34406 105.037816 541.460621 102.88011 
L 541.460621 90.774376 
Q 539.324934 93.634591 537.253 94.96434 
Q 535.181065 96.294089 532.892374 96.294089 
Q 528.786756 96.294089 526.434313 91.113086 
Q 524.088246 85.944628 524.088246 76.849646 
Q 524.088246 67.792299 526.434313 62.611296 
Q 528.786756 57.442838 532.892374 57.442838 
Q 535.181065 57.442838 537.253 58.772587 
Q 539.324934 60.114881 541.460621 62.975096 
L 541.460621 50.856817 
z
" clip-path="url(#p9a6cae1665)" style="fill: #0000ff"/>
   </g>
   <g id="patch_63">
    <path d="M 541.460621 45.836321 
Q 538.908761 45.803123 536.164095 45.786448 
Q 533.419428 45.769925 530.493296 45.769925 
Q 523.881145 45.769925 520.019332 45.868761 
Q 516.157518 45.967598 516.157518 46.13662 
Q 516.157518 46.307614 520.087381 46.405692 
Q 524.022915 46.503771 530.867569 46.503771 
Q 533.50449 46.503771 535.92025 46.490431 
Q 538.341681 46.477243 540.485243 46.451169 
L 540.485243 46.304885 
Q 538.273632 46.338386 536.084704 46.35491 
Q 533.895775 46.371584 531.695506 46.371584 
Q 527.623872 46.371584 525.417932 46.310645 
Q 523.211991 46.249858 523.211991 46.13662 
Q 523.211991 46.024444 525.338541 45.963202 
Q 527.46509 45.902111 531.377941 45.902111 
Q 532.444051 45.902111 533.35705 45.905598 
Q 534.270048 45.909236 534.99591 45.916815 
L 534.99591 46.054156 
L 530.827873 46.054156 
L 530.827873 46.176489 
L 541.460621 46.176489 
L 541.460621 45.836321 
z
" clip-path="url(#p9a6cae1665)" style="fill: #ffa600"/>
   </g>
   <g id="patch_64">
    <path d="M 560.319844 47.462062 
L 550.588678 47.462062 
L 549.052178 47.126136 
L 542.792363 47.126136 
L 551.731999 48.970174 
L 559.155829 48.970174 
L 568.095465 47.126136 
L 561.840824 47.126136 
L 560.319844 47.462062 
z
M 552.140698 47.804312 
L 558.752304 47.804312 
L 555.451674 48.537817 
L 552.140698 47.804312 
z
" clip-path="url(#p9a6cae1665)" style="fill: #008000"/>
   </g>
   <g id="patch_65">
    <path d="M 568.095465 50.480196 
Q 565.978905 49.731713 563.690214 49.353119 
Q 561.401523 48.970174 558.908826 48.970174 
Q 551.475362 48.970174 547.133863 51.807449 
Q 542.792363 54.644724 542.792363 59.496813 
Q 542.792363 64.366308 547.133863 67.199232 
Q 551.475362 70.036507 558.908826 70.036507 
Q 561.401523 70.036507 563.690214 69.653562 
Q 565.978905 69.274968 568.095465 68.526485 
L 568.095465 64.327143 
Q 565.959779 65.319319 563.887844 65.780594 
Q 561.81591 66.241869 559.527219 66.241869 
Q 555.421601 66.241869 553.069158 64.444638 
Q 550.723091 62.651759 550.723091 59.496813 
Q 550.723091 56.354922 553.069158 54.557691 
Q 555.421601 52.764812 559.527219 52.764812 
Q 561.81591 52.764812 563.887844 53.226087 
Q 565.959779 53.691713 568.095465 54.683889 
L 568.095465 50.480196 
z
" clip-path="url(#p9a6cae1665)" style="fill: #0000ff"/>
   </g>
   <g id="patch_66">
    <path d="M 542.792363 47.126136 
L 568.095465 47.126136 
L 568.095465 46.861637 
L 558.992233 46.861637 
L 558.992233 45.769925 
L 551.913249 45.769925 
L 551.913249 46.861637 
L 542.792363 46.861637 
L 542.792363 47.126136 
z
" clip-path="url(#p9a6cae1665)" style="fill: #ff0000"/>
   </g>
   <g id="patch_67">
    <path d="M 586.954689 49.720023 
L 577.223522 49.720023 
L 575.687022 48.774496 
L 569.427208 48.774496 
L 578.366844 53.964884 
L 585.790674 53.964884 
L 594.73031 48.774496 
L 588.475669 48.774496 
L 586.954689 49.720023 
z
M 578.775543 50.683349 
L 585.387149 50.683349 
L 582.086519 52.747935 
L 578.775543 50.683349 
z
" clip-path="url(#p9a6cae1665)" style="fill: #008000"/>
   </g>
   <g id="patch_68">
    <path d="M 594.73031 45.985291 
Q 592.613749 45.878539 590.325059 45.824542 
Q 588.036368 45.769925 585.543671 45.769925 
Q 578.110207 45.769925 573.768707 46.174589 
Q 569.427208 46.579254 569.427208 47.27128 
Q 569.427208 47.965788 573.768707 48.369832 
Q 578.110207 48.774496 585.543671 48.774496 
Q 588.036368 48.774496 590.325059 48.719879 
Q 592.613749 48.665882 594.73031 48.55913 
L 594.73031 47.960202 
Q 592.594624 48.101711 590.522689 48.1675 
Q 588.450755 48.233289 586.162064 48.233289 
Q 582.056446 48.233289 579.704003 47.97696 
Q 577.357936 47.721252 577.357936 47.27128 
Q 577.357936 46.82317 579.704003 46.566841 
Q 582.056446 46.311133 586.162064 46.311133 
Q 588.450755 46.311133 590.522689 46.376922 
Q 592.594624 46.443331 594.73031 46.58484 
L 594.73031 45.985291 
z
" clip-path="url(#p9a6cae1665)" style="fill: #0000ff"/>
   </g>
   <g id="patch_69">
    <path d="M 594.73031 55.465939 
Q 592.178451 54.715412 589.433785 54.338434 
Q 586.689118 53.964884 583.762986 53.964884 
Q 577.150835 53.964884 573.289021 56.199332 
Q 569.427208 58.433779 569.427208 62.254959 
Q 569.427208 66.120691 573.357071 68.338003 
Q 577.292605 70.555316 584.137259 70.555316 
Q 586.77418 70.555316 589.18994 70.253734 
Q 591.611371 69.955579 593.754933 69.366123 
L 593.754933 66.059004 
Q 591.543322 66.816386 589.354393 67.189936 
Q 587.165465 67.566913 584.965195 67.566913 
Q 580.893562 67.566913 578.687621 66.189232 
Q 576.481681 64.814978 576.481681 62.254959 
Q 576.481681 59.71893 578.60823 58.334394 
Q 580.73478 56.953286 584.647631 56.953286 
Q 585.713741 56.953286 586.626739 57.032109 
Q 587.539738 57.114359 588.2656 57.285712 
L 588.2656 60.390635 
L 584.097563 60.390635 
L 584.097563 63.156278 
L 594.73031 63.156278 
L 594.73031 55.465939 
z
" clip-path="url(#p9a6cae1665)" style="fill: #ffa600"/>
   </g>
   <g id="patch_70">
    <path d="M 613.589534 46.155359 
L 603.858367 46.155359 
L 602.321867 45.769925 
L 596.062053 45.769925 
L 605.001689 47.885733 
L 612.425519 47.885733 
L 621.365155 45.769925 
L 615.110514 45.769925 
L 613.589534 46.155359 
z
M 605.410387 46.548049 
L 612.021994 46.548049 
L 608.721364 47.389656 
L 605.410387 46.548049 
z
" clip-path="url(#p9a6cae1665)" style="fill: #008000"/>
   </g>
   <g id="patch_71">
    <path d="M 621.365155 51.27659 
Q 619.248594 50.990294 616.959903 50.845482 
Q 614.671213 50.699005 612.178516 50.699005 
Q 604.745052 50.699005 600.403552 51.784265 
Q 596.062053 52.869525 596.062053 54.725452 
Q 596.062053 56.588038 600.403552 57.671633 
Q 604.745052 58.756893 612.178516 58.756893 
Q 614.671213 58.756893 616.959903 58.610416 
Q 619.248594 58.465604 621.365155 58.179308 
L 621.365155 56.573057 
Q 619.229469 56.952565 617.157534 57.129003 
Q 615.0856 57.305441 612.796909 57.305441 
Q 608.691291 57.305441 606.338848 56.617999 
Q 603.992781 55.932221 603.992781 54.725452 
Q 603.992781 53.523677 606.338848 52.836234 
Q 608.691291 52.150457 612.796909 52.150457 
Q 615.0856 52.150457 617.157534 52.326895 
Q 619.229469 52.504997 621.365155 52.884505 
L 621.365155 51.27659 
z
" clip-path="url(#p9a6cae1665)" style="fill: #0000ff"/>
   </g>
   <g id="patch_72">
    <path d="M 621.365155 48.14027 
Q 618.813296 48.013001 616.068629 47.949077 
Q 613.323963 47.885733 610.397831 47.885733 
Q 603.78568 47.885733 599.923866 48.264633 
Q 596.062053 48.643532 596.062053 49.291497 
Q 596.062053 49.947017 599.991916 50.323011 
Q 603.92745 50.699005 610.772104 50.699005 
Q 613.409025 50.699005 615.824785 50.647865 
Q 618.246216 50.597306 620.389778 50.497351 
L 620.389778 49.936557 
Q 618.178166 50.064987 615.989238 50.128331 
Q 613.80031 50.192256 611.60004 50.192256 
Q 607.528407 50.192256 605.322466 49.95864 
Q 603.116526 49.725605 603.116526 49.291497 
Q 603.116526 48.861458 605.243075 48.626679 
Q 607.369625 48.392482 611.282476 48.392482 
Q 612.348586 48.392482 613.261584 48.405848 
Q 614.174583 48.419796 614.900445 48.448852 
L 614.900445 48.97536 
L 610.732408 48.97536 
L 610.732408 49.444336 
L 621.365155 49.444336 
L 621.365155 48.14027 
z
" clip-path="url(#p9a6cae1665)" style="fill: #ffa600"/>
   </g>
   <g id="patch_73">
    <path d="M 640.224379 46.640241 
L 630.493212 46.640241 
L 628.956712 45.769925 
L 622.696897 45.769925 
L 631.636534 50.547446 
L 639.060364 50.547446 
L 648 45.769925 
L 641.745359 45.769925 
L 640.224379 46.640241 
z
M 632.045232 47.526939 
L 638.656838 47.526939 
L 635.356209 49.427299 
L 632.045232 47.526939 
z
" clip-path="url(#p9a6cae1665)" style="fill: #008000"/>
   </g>
   <g id="matplotlib.axis_1">
    <g id="xtick_1">
     <g id="line2d_2">
      <defs>
       <path id="mb1b2d24b7a" d="M 0 0 
L 0 3.5 
" style="stroke: #000000; stroke-width: 0.8"/>
      </defs>
      <g>
       <use xlink:href="#mb1b2d24b7a" x="102.651551" y="192.24" style="stroke: #000000; stroke-width: 0.8"/>
      </g>
     </g>
     <g id="text_1">
      <!-- 0.0 -->
      <g transform="translate(94.699989 206.838437) scale(0.1 -0.1)">
       <defs>
        <path id="DejaVuSans-30" d="M 2034 4250 
Q 1547 4250 1301 3770 
Q 1056 3291 1056 2328 
Q 1056 1369 1301 889 
Q 1547 409 2034 409 
Q 2525 409 2770 889 
Q 3016 1369 3016 2328 
Q 3016 3291 2770 3770 
Q 2525 4250 2034 4250 
z
M 2034 4750 
Q 2819 4750 3233 4129 
Q 3647 3509 3647 2328 
Q 3647 1150 3233 529 
Q 2819 -91 2034 -91 
Q 1250 -91 836 529 
Q 422 1150 422 2328 
Q 422 3509 836 4129 
Q 1250 4750 2034 4750 
z
" transform="scale(0.015625)"/>
        <path id="DejaVuSans-2e" d="M 684 794 
L 1344 794 
L 1344 0 
L 684 0 
L 684 794 
z
" transform="scale(0.015625)"/>
       </defs>
       <use xlink:href="#DejaVuSans-30"/>
       <use xlink:href="#DejaVuSans-2e" x="63.623047"/>
       <use xlink:href="#DejaVuSans-30" x="95.410156"/>
      </g>
     </g>
    </g>
    <g id="xtick_2">
     <g id="line2d_3">
      <g>
       <use xlink:href="#mb1b2d24b7a" x="169.238663" y="192.24" style="stroke: #000000; stroke-width: 0.8"/>
      </g>
     </g>
     <g id="text_2">
      <!-- 2.5 -->
      <g transform="translate(161.287101 206.838437) scale(0.1 -0.1)">
       <defs>
        <path id="DejaVuSans-32" d="M 1228 531 
L 3431 531 
L 3431 0 
L 469 0 
L 469 531 
Q 828 903 1448 1529 
Q 2069 2156 2228 2338 
Q 2531 2678 2651 2914 
Q 2772 3150 2772 3378 
Q 2772 3750 2511 3984 
Q 2250 4219 1831 4219 
Q 1534 4219 1204 4116 
Q 875 4013 500 3803 
L 500 4441 
Q 881 4594 1212 4672 
Q 1544 4750 1819 4750 
Q 2544 4750 2975 4387 
Q 3406 4025 3406 3419 
Q 3406 3131 3298 2873 
Q 3191 2616 2906 2266 
Q 2828 2175 2409 1742 
Q 1991 1309 1228 531 
z
" transform="scale(0.015625)"/>
        <path id="DejaVuSans-35" d="M 691 4666 
L 3169 4666 
L 3169 4134 
L 1269 4134 
L 1269 2991 
Q 1406 3038 1543 3061 
Q 1681 3084 1819 3084 
Q 2600 3084 3056 2656 
Q 3513 2228 3513 1497 
Q 3513 744 3044 326 
Q 2575 -91 1722 -91 
Q 1428 -91 1123 -41 
Q 819 9 494 109 
L 494 744 
Q 775 591 1075 516 
Q 1375 441 1709 441 
Q 2250 441 2565 725 
Q 2881 1009 2881 1497 
Q 2881 1984 2565 2268 
Q 2250 2553 1709 2553 
Q 1456 2553 1204 2497 
Q 953 2441 691 2322 
L 691 4666 
z
" transform="scale(0.015625)"/>
       </defs>
       <use xlink:href="#DejaVuSans-32"/>
       <use xlink:href="#DejaVuSans-2e" x="63.623047"/>
       <use xlink:href="#DejaVuSans-35" x="95.410156"/>
      </g>
     </g>
    </g>
    <g id="xtick_3">
     <g id="line2d_4">
      <g>
       <use xlink:href="#mb1b2d24b7a" x="235.825776" y="192.24" style="stroke: #000000; stroke-width: 0.8"/>
      </g>
     </g>
     <g id="text_3">
      <!-- 5.0 -->
      <g transform="translate(227.874213 206.838437) scale(0.1 -0.1)">
       <use xlink:href="#DejaVuSans-35"/>
       <use xlink:href="#DejaVuSans-2e" x="63.623047"/>
       <use xlink:href="#DejaVuSans-30" x="95.410156"/>
      </g>
     </g>
    </g>
    <g id="xtick_4">
     <g id="line2d_5">
      <g>
       <use xlink:href="#mb1b2d24b7a" x="302.412888" y="192.24" style="stroke: #000000; stroke-width: 0.8"/>
      </g>
     </g>
     <g id="text_4">
      <!-- 7.5 -->
      <g transform="translate(294.461325 206.838437) scale(0.1 -0.1)">
       <defs>
        <path id="DejaVuSans-37" d="M 525 4666 
L 3525 4666 
L 3525 4397 
L 1831 0 
L 1172 0 
L 2766 4134 
L 525 4134 
L 525 4666 
z
" transform="scale(0.015625)"/>
       </defs>
       <use xlink:href="#DejaVuSans-37"/>
       <use xlink:href="#DejaVuSans-2e" x="63.623047"/>
       <use xlink:href="#DejaVuSans-35" x="95.410156"/>
      </g>
     </g>
    </g>
    <g id="xtick_5">
     <g id="line2d_6">
      <g>
       <use xlink:href="#mb1b2d24b7a" x="369" y="192.24" style="stroke: #000000; stroke-width: 0.8"/>
      </g>
     </g>
     <g id="text_5">
      <!-- 10.0 -->
      <g transform="translate(357.867188 206.838437) scale(0.1 -0.1)">
       <defs>
        <path id="DejaVuSans-31" d="M 794 531 
L 1825 531 
L 1825 4091 
L 703 3866 
L 703 4441 
L 1819 4666 
L 2450 4666 
L 2450 531 
L 3481 531 
L 3481 0 
L 794 0 
L 794 531 
z
" transform="scale(0.015625)"/>
       </defs>
       <use xlink:href="#DejaVuSans-31"/>
       <use xlink:href="#DejaVuSans-30" x="63.623047"/>
       <use xlink:href="#DejaVuSans-2e" x="127.246094"/>
       <use xlink:href="#DejaVuSans-30" x="159.033203"/>
      </g>
     </g>
    </g>
    <g id="xtick_6">
     <g id="line2d_7">
      <g>
       <use xlink:href="#mb1b2d24b7a" x="435.587112" y="192.24" style="stroke: #000000; stroke-width: 0.8"/>
      </g>
     </g>
     <g id="text_6">
      <!-- 12.5 -->
      <g transform="translate(424.4543 206.838437) scale(0.1 -0.1)">
       <use xlink:href="#DejaVuSans-31"/>
       <use xlink:href="#DejaVuSans-32" x="63.623047"/>
       <use xlink:href="#DejaVuSans-2e" x="127.246094"/>
       <use xlink:href="#DejaVuSans-35" x="159.033203"/>
      </g>
     </g>
    </g>
    <g id="xtick_7">
     <g id="line2d_8">
      <g>
       <use xlink:href="#mb1b2d24b7a" x="502.174224" y="192.24" style="stroke: #000000; stroke-width: 0.8"/>
      </g>
     </g>
     <g id="text_7">
      <!-- 15.0 -->
      <g transform="translate(491.041412 206.838437) scale(0.1 -0.1)">
       <use xlink:href="#DejaVuSans-31"/>
       <use xlink:href="#DejaVuSans-35" x="63.623047"/>
       <use xlink:href="#DejaVuSans-2e" x="127.246094"/>
       <use xlink:href="#DejaVuSans-30" x="159.033203"/>
      </g>
     </g>
    </g>
    <g id="xtick_8">
     <g id="line2d_9">
      <g>
       <use xlink:href="#mb1b2d24b7a" x="568.761337" y="192.24" style="stroke: #000000; stroke-width: 0.8"/>
      </g>
     </g>
     <g id="text_8">
      <!-- 17.5 -->
      <g transform="translate(557.628524 206.838437) scale(0.1 -0.1)">
       <use xlink:href="#DejaVuSans-31"/>
       <use xlink:href="#DejaVuSans-37" x="63.623047"/>
       <use xlink:href="#DejaVuSans-2e" x="127.246094"/>
       <use xlink:href="#DejaVuSans-35" x="159.033203"/>
      </g>
     </g>
    </g>
    <g id="xtick_9">
     <g id="line2d_10">
      <g>
       <use xlink:href="#mb1b2d24b7a" x="635.348449" y="192.24" style="stroke: #000000; stroke-width: 0.8"/>
      </g>
     </g>
     <g id="text_9">
      <!-- 20.0 -->
      <g transform="translate(624.215636 206.838437) scale(0.1 -0.1)">
       <use xlink:href="#DejaVuSans-32"/>
       <use xlink:href="#DejaVuSans-30" x="63.623047"/>
       <use xlink:href="#DejaVuSans-2e" x="127.246094"/>
       <use xlink:href="#DejaVuSans-30" x="159.033203"/>
      </g>
     </g>
    </g>
   </g>
   <g id="matplotlib.axis_2">
    <g id="ytick_1">
     <g id="line2d_11">
      <defs>
       <path id="m352f422e41" d="M 0 0 
L -3.5 0 
" style="stroke: #000000; stroke-width: 0.8"/>
      </defs>
      <g>
       <use xlink:href="#m352f422e41" x="90" y="171.45997" style="stroke: #000000; stroke-width: 0.8"/>
      </g>
     </g>
     <g id="text_10">
      <!-- 0.012 -->
      <g transform="translate(45.992188 175.259189) scale(0.1 -0.1)">
       <defs>
        <path id="DejaVuSans-2212" d="M 678 2272 
L 4684 2272 
L 4684 1741 
L 678 1741 
L 678 2272 
z
" transform="scale(0.015625)"/>
       </defs>
       <use xlink:href="#DejaVuSans-2212"/>
       <use xlink:href="#DejaVuSans-30" x="83.789062"/>
       <use xlink:href="#DejaVuSans-2e" x="147.412109"/>
       <use xlink:href="#DejaVuSans-30" x="179.199219"/>
       <use xlink:href="#DejaVuSans-31" x="242.822266"/>
       <use xlink:href="#DejaVuSans-32" x="306.445312"/>
      </g>
     </g>
    </g>
    <g id="ytick_2">
     <g id="line2d_12">
      <g>
       <use xlink:href="#m352f422e41" x="90" y="150.511629" style="stroke: #000000; stroke-width: 0.8"/>
      </g>
     </g>
     <g id="text_11">
      <!-- 0.010 -->
      <g transform="translate(45.992188 154.310848) scale(0.1 -0.1)">
       <use xlink:href="#DejaVuSans-2212"/>
       <use xlink:href="#DejaVuSans-30" x="83.789062"/>
       <use xlink:href="#DejaVuSans-2e" x="147.412109"/>
       <use xlink:href="#DejaVuSans-30" x="179.199219"/>
       <use xlink:href="#DejaVuSans-31" x="242.822266"/>
       <use xlink:href="#DejaVuSans-30" x="306.445312"/>
      </g>
     </g>
    </g>
    <g id="ytick_3">
     <g id="line2d_13">
      <g>
       <use xlink:href="#m352f422e41" x="90" y="129.563288" style="stroke: #000000; stroke-width: 0.8"/>
      </g>
     </g>
     <g id="text_12">
      <!-- 0.008 -->
      <g transform="translate(45.992188 133.362507) scale(0.1 -0.1)">
       <defs>
        <path id="DejaVuSans-38" d="M 2034 2216 
Q 1584 2216 1326 1975 
Q 1069 1734 1069 1313 
Q 1069 891 1326 650 
Q 1584 409 2034 409 
Q 2484 409 2743 651 
Q 3003 894 3003 1313 
Q 3003 1734 2745 1975 
Q 2488 2216 2034 2216 
z
M 1403 2484 
Q 997 2584 770 2862 
Q 544 3141 544 3541 
Q 544 4100 942 4425 
Q 1341 4750 2034 4750 
Q 2731 4750 3128 4425 
Q 3525 4100 3525 3541 
Q 3525 3141 3298 2862 
Q 3072 2584 2669 2484 
Q 3125 2378 3379 2068 
Q 3634 1759 3634 1313 
Q 3634 634 3220 271 
Q 2806 -91 2034 -91 
Q 1263 -91 848 271 
Q 434 634 434 1313 
Q 434 1759 690 2068 
Q 947 2378 1403 2484 
z
M 1172 3481 
Q 1172 3119 1398 2916 
Q 1625 2713 2034 2713 
Q 2441 2713 2670 2916 
Q 2900 3119 2900 3481 
Q 2900 3844 2670 4047 
Q 2441 4250 2034 4250 
Q 1625 4250 1398 4047 
Q 1172 3844 1172 3481 
z
" transform="scale(0.015625)"/>
       </defs>
       <use xlink:href="#DejaVuSans-2212"/>
       <use xlink:href="#DejaVuSans-30" x="83.789062"/>
       <use xlink:href="#DejaVuSans-2e" x="147.412109"/>
       <use xlink:href="#DejaVuSans-30" x="179.199219"/>
       <use xlink:href="#DejaVuSans-30" x="242.822266"/>
       <use xlink:href="#DejaVuSans-38" x="306.445312"/>
      </g>
     </g>
    </g>
    <g id="ytick_4">
     <g id="line2d_14">
      <g>
       <use xlink:href="#m352f422e41" x="90" y="108.614948" style="stroke: #000000; stroke-width: 0.8"/>
      </g>
     </g>
     <g id="text_13">
      <!-- 0.006 -->
      <g transform="translate(45.992188 112.414166) scale(0.1 -0.1)">
       <defs>
        <path id="DejaVuSans-36" d="M 2113 2584 
Q 1688 2584 1439 2293 
Q 1191 2003 1191 1497 
Q 1191 994 1439 701 
Q 1688 409 2113 409 
Q 2538 409 2786 701 
Q 3034 994 3034 1497 
Q 3034 2003 2786 2293 
Q 2538 2584 2113 2584 
z
M 3366 4563 
L 3366 3988 
Q 3128 4100 2886 4159 
Q 2644 4219 2406 4219 
Q 1781 4219 1451 3797 
Q 1122 3375 1075 2522 
Q 1259 2794 1537 2939 
Q 1816 3084 2150 3084 
Q 2853 3084 3261 2657 
Q 3669 2231 3669 1497 
Q 3669 778 3244 343 
Q 2819 -91 2113 -91 
Q 1303 -91 875 529 
Q 447 1150 447 2328 
Q 447 3434 972 4092 
Q 1497 4750 2381 4750 
Q 2619 4750 2861 4703 
Q 3103 4656 3366 4563 
z
" transform="scale(0.015625)"/>
       </defs>
       <use xlink:href="#DejaVuSans-2212"/>
       <use xlink:href="#DejaVuSans-30" x="83.789062"/>
       <use xlink:href="#DejaVuSans-2e" x="147.412109"/>
       <use xlink:href="#DejaVuSans-30" x="179.199219"/>
       <use xlink:href="#DejaVuSans-30" x="242.822266"/>
       <use xlink:href="#DejaVuSans-36" x="306.445312"/>
      </g>
     </g>
    </g>
    <g id="ytick_5">
     <g id="line2d_15">
      <g>
       <use xlink:href="#m352f422e41" x="90" y="87.666607" style="stroke: #000000; stroke-width: 0.8"/>
      </g>
     </g>
     <g id="text_14">
      <!-- 0.004 -->
      <g transform="translate(45.992188 91.465825) scale(0.1 -0.1)">
       <defs>
        <path id="DejaVuSans-34" d="M 2419 4116 
L 825 1625 
L 2419 1625 
L 2419 4116 
z
M 2253 4666 
L 3047 4666 
L 3047 1625 
L 3713 1625 
L 3713 1100 
L 3047 1100 
L 3047 0 
L 2419 0 
L 2419 1100 
L 313 1100 
L 313 1709 
L 2253 4666 
z
" transform="scale(0.015625)"/>
       </defs>
       <use xlink:href="#DejaVuSans-2212"/>
       <use xlink:href="#DejaVuSans-30" x="83.789062"/>
       <use xlink:href="#DejaVuSans-2e" x="147.412109"/>
       <use xlink:href="#DejaVuSans-30" x="179.199219"/>
       <use xlink:href="#DejaVuSans-30" x="242.822266"/>
       <use xlink:href="#DejaVuSans-34" x="306.445312"/>
      </g>
     </g>
    </g>
    <g id="ytick_6">
     <g id="line2d_16">
      <g>
       <use xlink:href="#m352f422e41" x="90" y="66.718266" style="stroke: #000000; stroke-width: 0.8"/>
      </g>
     </g>
     <g id="text_15">
      <!-- 0.002 -->
      <g transform="translate(45.992188 70.517485) scale(0.1 -0.1)">
       <use xlink:href="#DejaVuSans-2212"/>
       <use xlink:href="#DejaVuSans-30" x="83.789062"/>
       <use xlink:href="#DejaVuSans-2e" x="147.412109"/>
       <use xlink:href="#DejaVuSans-30" x="179.199219"/>
       <use xlink:href="#DejaVuSans-30" x="242.822266"/>
       <use xlink:href="#DejaVuSans-32" x="306.445312"/>
      </g>
     </g>
    </g>
    <g id="ytick_7">
     <g id="line2d_17">
      <g>
       <use xlink:href="#m352f422e41" x="90" y="45.769925" style="stroke: #000000; stroke-width: 0.8"/>
      </g>
     </g>
     <g id="text_16">
      <!-- 0.000 -->
      <g transform="translate(54.371875 49.569144) scale(0.1 -0.1)">
       <use xlink:href="#DejaVuSans-30"/>
       <use xlink:href="#DejaVuSans-2e" x="63.623047"/>
       <use xlink:href="#DejaVuSans-30" x="95.410156"/>
       <use xlink:href="#DejaVuSans-30" x="159.033203"/>
       <use xlink:href="#DejaVuSans-30" x="222.65625"/>
      </g>
     </g>
    </g>
   </g>
  </g>
 </g>
 <defs>
  <clipPath id="p9a6cae1665">
   <rect x="90" y="25.92" width="558" height="166.32"/>
  </clipPath>
 </defs>
</svg>
