<?xml version="1.0" encoding="utf-8" standalone="no"?>
<!DOCTYPE svg PUBLIC "-//W3C//DTD SVG 1.1//EN"
  "http://www.w3.org/Graphics/SVG/1.1/DTD/svg11.dtd">
<svg xmlns:xlink="http://www.w3.org/1999/xlink" width="720pt" height="216pt" viewBox="0 0 720 216" xmlns="http://www.w3.org/2000/svg" version="1.1">
 <metadata>
  <rdf:RDF xmlns:dc="http://purl.org/dc/elements/1.1/" xmlns:cc="http://creativecommons.org/ns#" xmlns:rdf="http://www.w3.org/1999/02/22-rdf-syntax-ns#">
   <cc:Work>
    <dc:type rdf:resource="http://purl.org/dc/dcmitype/StillImage"/>
    <dc:date>2024-11-23T04:44:57.646697</dc:date>
    <dc:format>image/svg+xml</dc:format>
    <dc:creator>
     <cc:Agent>
      <dc:title>Matplotlib v3.7.2, https://matplotlib.org/</dc:title>
     </cc:Agent>
    </dc:creator>
   </cc:Work>
  </rdf:RDF>
 </metadata>
 <defs>
  <style type="text/css">*{stroke-linejoin: round; stroke-linecap: butt}</style>
 </defs>
 <g id="figure_1">
  <g id="patch_1">
   <path d="M 0 216 
L 720 216 
L 720 0 
L 0 0 
z
" style="fill: #ffffff"/>
  </g>
  <g id="axes_1">
   <g id="patch_2">
    <path d="M 90 192.24 
L 648 192.24 
L 648 25.92 
L 90 25.92 
z
" style="fill: #ffffff"/>
   </g>
   <g id="line2d_1">
    <path d="M 90 42.072656 
L 648 42.072656 
" clip-path="url(#p617f78f733)" style="fill: none; stroke: #000000; stroke-width: 0.5; stroke-linecap: square"/>
   </g>
   <g id="patch_3">
    <path d="M 102.260459 41.442873 
L 95.453516 41.442873 
L 94.378735 42.072656 
L 90 42.072656 
L 96.253268 38.615521 
L 101.446231 38.615521 
L 107.699499 42.072656 
L 103.324383 42.072656 
L 102.260459 41.442873 
z
M 96.539153 40.801236 
L 101.163965 40.801236 
L 98.855178 39.426088 
L 96.539153 40.801236 
z
" clip-path="url(#p617f78f733)" style="fill: #008000"/>
   </g>
   <g id="patch_4">
    <path d="M 90 34.673646 
L 107.699499 34.673646 
L 107.699499 35.442422 
L 101.331796 35.442422 
L 101.331796 38.615521 
L 96.380052 38.615521 
L 96.380052 35.442422 
L 90 35.442422 
L 90 34.673646 
z
" clip-path="url(#p617f78f733)" style="fill: #ff0000"/>
   </g>
   <g id="patch_5">
    <path d="M 107.699499 33.111876 
Q 105.914476 33.892761 103.994584 34.284987 
Q 102.074692 34.673646 100.027865 34.673646 
Q 95.402671 34.673646 92.701335 32.34882 
Q 90 30.023993 90 26.048254 
Q 90 22.026161 92.748936 19.719163 
Q 95.501839 17.412165 100.289668 17.412165 
Q 102.134193 17.412165 103.824015 17.725945 
Q 105.517804 18.03616 107.017224 18.649457 
L 107.017224 22.090344 
Q 105.470203 21.302327 103.93905 20.913667 
Q 102.407896 20.521442 100.868809 20.521442 
Q 98.020705 20.521442 96.477652 21.954848 
Q 94.934598 23.384687 94.934598 26.048254 
Q 94.934598 28.686861 96.422118 30.127398 
Q 97.909637 31.564369 100.646673 31.564369 
Q 101.392416 31.564369 102.031058 31.482358 
Q 102.6697 31.396782 103.17744 31.218497 
L 103.17744 27.987987 
L 100.261901 27.987987 
L 100.261901 25.110479 
L 107.699499 25.110479 
L 107.699499 33.111876 
z
" clip-path="url(#p617f78f733)" style="fill: #ffa600"/>
   </g>
   <g id="patch_6">
    <path d="M 108.631052 38.346985 
L 126.330551 38.346985 
L 126.330551 39.073595 
L 119.962847 39.073595 
L 119.962847 42.072656 
L 115.011104 42.072656 
L 115.011104 39.073595 
L 108.631052 39.073595 
L 108.631052 38.346985 
z
" clip-path="url(#p617f78f733)" style="fill: #ff0000"/>
   </g>
   <g id="patch_7">
    <path d="M 120.89151 37.088565 
L 114.084567 37.088565 
L 113.009787 38.346985 
L 108.631052 38.346985 
L 114.88432 31.438997 
L 120.077283 31.438997 
L 126.330551 38.346985 
L 121.955434 38.346985 
L 120.89151 37.088565 
z
M 115.170204 35.806456 
L 119.795017 35.806456 
L 117.48623 33.058658 
L 115.170204 35.806456 
z
" clip-path="url(#p617f78f733)" style="fill: #008000"/>
   </g>
   <g id="patch_8">
    <path d="M 126.330551 28.394499 
Q 124.545527 29.916748 122.625636 30.681348 
Q 120.705744 31.438997 118.658917 31.438997 
Q 114.033723 31.438997 111.332387 26.907004 
Q 108.631052 22.375012 108.631052 14.624749 
Q 108.631052 6.784124 111.379988 2.286886 
Q 114.132891 -2.210351 118.92072 -2.210351 
Q 120.765244 -2.210351 122.455067 -1.598671 
Q 124.148856 -0.993942 125.648275 0.201614 
L 125.648275 6.909241 
Q 124.101255 5.37309 122.570102 4.615441 
Q 121.038948 3.850841 119.499861 3.850841 
Q 116.651757 3.850841 115.108704 6.645106 
Q 113.56565 9.43242 113.56565 14.624749 
Q 113.56565 19.768421 115.053169 22.576588 
Q 116.540689 25.377805 119.277725 25.377805 
Q 120.023468 25.377805 120.66211 25.217934 
Q 121.300752 25.051112 121.808492 24.703566 
L 121.808492 18.406043 
L 118.892953 18.406043 
L 118.892953 12.79666 
L 126.330551 12.79666 
L 126.330551 28.394499 
z
" clip-path="url(#p617f78f733)" style="fill: #ffa600"/>
   </g>
   <g id="patch_9">
    <path d="M 139.522562 41.251064 
L 132.715619 41.251064 
L 131.640839 42.072656 
L 127.262104 42.072656 
L 133.515372 37.562601 
L 138.708335 37.562601 
L 144.961603 42.072656 
L 140.586486 42.072656 
L 139.522562 41.251064 
z
M 133.801256 40.414007 
L 138.426069 40.414007 
L 136.117281 38.620038 
L 133.801256 40.414007 
z
" clip-path="url(#p617f78f733)" style="fill: #008000"/>
   </g>
   <g id="patch_10">
    <path d="M 127.262104 28.722531 
L 144.961603 28.722531 
L 144.961603 30.446591 
L 138.593899 30.446591 
L 138.593899 37.562601 
L 133.642156 37.562601 
L 133.642156 30.446591 
L 127.262104 30.446591 
L 127.262104 28.722531 
z
" clip-path="url(#p617f78f733)" style="fill: #ff0000"/>
   </g>
   <g id="patch_11">
    <path d="M 144.961603 27.205439 
Q 143.176579 27.963985 141.256687 28.34499 
Q 139.336795 28.722531 137.289969 28.722531 
Q 132.664774 28.722531 129.963439 26.464212 
Q 127.262104 24.205893 127.262104 20.34389 
Q 127.262104 16.436859 130.01104 14.195859 
Q 132.763942 11.954858 137.551772 11.954858 
Q 139.396296 11.954858 141.086118 12.259662 
Q 142.779907 12.561002 144.279327 13.156755 
L 144.279327 16.499205 
Q 142.732307 15.733732 141.201153 15.356191 
Q 139.67 14.975186 138.130913 14.975186 
Q 135.282809 14.975186 133.739755 16.367586 
Q 132.196702 17.756521 132.196702 20.34389 
Q 132.196702 22.907013 133.684221 24.306339 
Q 135.171741 25.702202 137.908777 25.702202 
Q 138.65452 25.702202 139.293162 25.622538 
Q 139.931803 25.539409 140.439543 25.366225 
L 140.439543 22.228132 
L 137.524005 22.228132 
L 137.524005 19.432942 
L 144.961603 19.432942 
L 144.961603 27.205439 
z
" clip-path="url(#p617f78f733)" style="fill: #ffa600"/>
   </g>
   <g id="patch_12">
    <path d="M 158.153614 41.355068 
L 151.346671 41.355068 
L 150.27189 42.072656 
L 145.893155 42.072656 
L 152.146423 38.13352 
L 157.339386 38.13352 
L 163.592654 42.072656 
L 159.217538 42.072656 
L 158.153614 41.355068 
z
M 152.432308 40.623972 
L 157.057121 40.623972 
L 154.748333 39.057098 
L 152.432308 40.623972 
z
" clip-path="url(#p617f78f733)" style="fill: #008000"/>
   </g>
   <g id="patch_13">
    <path d="M 145.893155 33.450482 
L 163.592654 33.450482 
L 163.592654 34.363805 
L 157.224951 34.363805 
L 157.224951 38.13352 
L 152.273207 38.13352 
L 152.273207 34.363805 
L 145.893155 34.363805 
L 145.893155 33.450482 
z
" clip-path="url(#p617f78f733)" style="fill: #ff0000"/>
   </g>
   <g id="patch_14">
    <path d="M 164.524207 37.735376 
L 182.223706 37.735376 
L 182.223706 38.581267 
L 175.856003 38.581267 
L 175.856003 42.072656 
L 170.904259 42.072656 
L 170.904259 38.581267 
L 164.524207 38.581267 
L 164.524207 37.735376 
z
" clip-path="url(#p617f78f733)" style="fill: #ff0000"/>
   </g>
   <g id="patch_15">
    <path d="M 183.155259 39.449678 
L 200.854758 39.449678 
L 200.854758 39.961232 
L 194.487054 39.961232 
L 194.487054 42.072656 
L 189.535311 42.072656 
L 189.535311 39.961232 
L 183.155259 39.961232 
L 183.155259 39.449678 
z
" clip-path="url(#p617f78f733)" style="fill: #ff0000"/>
   </g>
   <g id="patch_16">
    <path d="M 201.786311 40.315386 
L 219.48581 40.315386 
L 219.48581 40.658103 
L 213.118106 40.658103 
L 213.118106 42.072656 
L 208.166363 42.072656 
L 208.166363 40.658103 
L 201.786311 40.658103 
L 201.786311 40.315386 
z
" clip-path="url(#p617f78f733)" style="fill: #ff0000"/>
   </g>
   <g id="patch_17">
    <path d="M 239.048414 38.039136 
L 256.747913 38.039136 
L 256.747913 38.825785 
L 250.38021 38.825785 
L 250.38021 42.072656 
L 245.428466 42.072656 
L 245.428466 38.825785 
L 239.048414 38.825785 
L 239.048414 38.039136 
z
" clip-path="url(#p617f78f733)" style="fill: #ff0000"/>
   </g>
   <g id="patch_18">
    <path d="M 257.679466 41.062826 
L 275.378965 41.062826 
L 275.378965 41.259771 
L 269.011261 41.259771 
L 269.011261 42.072656 
L 264.059518 42.072656 
L 264.059518 41.259771 
L 257.679466 41.259771 
L 257.679466 41.062826 
z
" clip-path="url(#p617f78f733)" style="fill: #ff0000"/>
   </g>
   <g id="patch_19">
    <path d="M 275.378965 40.729378 
Q 273.593941 40.896102 271.67405 40.979845 
Q 269.754158 41.062826 267.707331 41.062826 
Q 263.082137 41.062826 260.380801 40.566461 
Q 257.679466 40.070096 257.679466 39.22125 
Q 257.679466 38.362508 260.428402 37.86995 
Q 263.181305 37.377391 267.969134 37.377391 
Q 269.813659 37.377391 271.503481 37.444385 
Q 273.19727 37.510618 274.696689 37.641561 
L 274.696689 38.376212 
Q 273.149669 38.207965 271.618516 38.124984 
Q 270.087362 38.041241 268.548275 38.041241 
Q 265.700171 38.041241 264.157118 38.347282 
Q 262.614064 38.652562 262.614064 39.22125 
Q 262.614064 39.78461 264.101583 40.092173 
Q 265.589103 40.398976 268.326139 40.398976 
Q 269.071882 40.398976 269.710524 40.381466 
Q 270.349166 40.363195 270.856906 40.32513 
L 270.856906 39.635396 
L 267.941367 39.635396 
L 267.941367 39.021029 
L 275.378965 39.021029 
L 275.378965 40.729378 
z
" clip-path="url(#p617f78f733)" style="fill: #ffa600"/>
   </g>
   <g id="patch_20">
    <path d="M 307.202028 41.09173 
L 300.395085 41.09173 
L 299.320305 42.072656 
L 294.941569 42.072656 
L 301.194837 36.687951 
L 306.3878 36.687951 
L 312.641068 42.072656 
L 308.265952 42.072656 
L 307.202028 41.09173 
z
M 301.480722 40.09234 
L 306.105535 40.09234 
L 303.796747 37.95046 
L 301.480722 40.09234 
z
" clip-path="url(#p617f78f733)" style="fill: #008000"/>
   </g>
   <g id="patch_21">
    <path d="M 325.83308 42.023956 
L 319.026137 42.023956 
L 317.951356 42.072656 
L 313.572621 42.072656 
L 319.825889 41.805322 
L 325.018852 41.805322 
L 331.27212 42.072656 
L 326.897004 42.072656 
L 325.83308 42.023956 
z
M 320.111774 41.974339 
L 324.736586 41.974339 
L 322.427799 41.868002 
L 320.111774 41.974339 
z
" clip-path="url(#p617f78f733)" style="fill: #008000"/>
   </g>
   <g id="patch_22">
    <path d="M 462.621035 39.551926 
L 480.320534 39.551926 
L 480.320534 40.043539 
L 473.952831 40.043539 
L 473.952831 42.072656 
L 469.001087 42.072656 
L 469.001087 40.043539 
L 462.621035 40.043539 
L 462.621035 39.551926 
z
" clip-path="url(#p617f78f733)" style="fill: #ff0000"/>
   </g>
   <g id="patch_23">
    <path d="M 474.881494 39.010529 
L 468.074551 39.010529 
L 466.99977 39.551926 
L 462.621035 39.551926 
L 468.874303 36.579974 
L 474.067266 36.579974 
L 480.320534 39.551926 
L 475.945418 39.551926 
L 474.881494 39.010529 
z
M 469.160188 38.458941 
L 473.785 38.458941 
L 471.476213 37.276784 
L 469.160188 38.458941 
z
" clip-path="url(#p617f78f733)" style="fill: #008000"/>
   </g>
   <g id="patch_24">
    <path d="M 499.883139 40.717417 
L 517.582638 40.717417 
L 517.582638 40.981727 
L 511.214934 40.981727 
L 511.214934 42.072656 
L 506.263191 42.072656 
L 506.263191 40.981727 
L 499.883139 40.981727 
L 499.883139 40.717417 
z
" clip-path="url(#p617f78f733)" style="fill: #ff0000"/>
   </g>
   <g id="patch_25">
    <path d="M 518.51419 41.098946 
L 536.213689 41.098946 
L 536.213689 41.288847 
L 529.845986 41.288847 
L 529.845986 42.072656 
L 524.894242 42.072656 
L 524.894242 41.288847 
L 518.51419 41.288847 
L 518.51419 41.098946 
z
" clip-path="url(#p617f78f733)" style="fill: #ff0000"/>
   </g>
   <g id="patch_26">
    <path d="M 568.036752 41.960728 
L 561.22981 41.960728 
L 560.155029 42.072656 
L 555.776294 42.072656 
L 562.029562 41.458239 
L 567.222525 41.458239 
L 573.475793 42.072656 
L 569.100677 42.072656 
L 568.036752 41.960728 
z
M 562.315446 41.846694 
L 566.940259 41.846694 
L 564.631472 41.602297 
L 562.315446 41.846694 
z
" clip-path="url(#p617f78f733)" style="fill: #008000"/>
   </g>
   <g id="patch_27">
    <path d="M 555.776294 37.524392 
L 573.475793 37.524392 
L 573.475793 38.291602 
L 567.108089 38.291602 
L 567.108089 41.458239 
L 562.156346 41.458239 
L 562.156346 38.291602 
L 555.776294 38.291602 
L 555.776294 37.524392 
z
" clip-path="url(#p617f78f733)" style="fill: #ff0000"/>
   </g>
   <g id="patch_28">
    <path d="M 574.407346 39.276638 
L 592.106845 39.276638 
L 592.106845 39.82194 
L 585.739141 39.82194 
L 585.739141 42.072656 
L 580.787398 42.072656 
L 580.787398 39.82194 
L 574.407346 39.82194 
L 574.407346 39.276638 
z
" clip-path="url(#p617f78f733)" style="fill: #ff0000"/>
   </g>
   <g id="patch_29">
    <path d="M 586.667804 38.581079 
L 579.860861 38.581079 
L 578.786081 39.276638 
L 574.407346 39.276638 
L 580.660614 35.458429 
L 585.853577 35.458429 
L 592.106845 39.276638 
L 587.731728 39.276638 
L 586.667804 38.581079 
z
M 580.946498 37.872428 
L 585.571311 37.872428 
L 583.262523 36.353654 
L 580.946498 37.872428 
z
" clip-path="url(#p617f78f733)" style="fill: #008000"/>
   </g>
   <g id="patch_30">
    <path d="M 593.038397 37.982392 
L 610.737896 37.982392 
L 610.737896 38.780107 
L 604.370193 38.780107 
L 604.370193 42.072656 
L 599.418449 42.072656 
L 599.418449 38.780107 
L 593.038397 38.780107 
L 593.038397 37.982392 
z
" clip-path="url(#p617f78f733)" style="fill: #ff0000"/>
   </g>
   <g id="patch_31">
    <path d="M 605.298856 36.561235 
L 598.491913 36.561235 
L 597.417133 37.982392 
L 593.038397 37.982392 
L 599.291665 30.181076 
L 604.484628 30.181076 
L 610.737896 37.982392 
L 606.36278 37.982392 
L 605.298856 36.561235 
z
M 599.57755 35.113327 
L 604.202363 35.113327 
L 601.893575 32.010189 
L 599.57755 35.113327 
z
" clip-path="url(#p617f78f733)" style="fill: #008000"/>
   </g>
   <g id="patch_32">
    <path d="M 611.669449 39.029693 
L 629.368948 39.029693 
L 629.368948 39.623155 
L 623.001245 39.623155 
L 623.001245 42.072656 
L 618.049501 42.072656 
L 618.049501 39.623155 
L 611.669449 39.623155 
L 611.669449 39.029693 
z
" clip-path="url(#p617f78f733)" style="fill: #ff0000"/>
   </g>
   <g id="patch_33">
    <path d="M 623.929908 37.959384 
L 617.122965 37.959384 
L 616.048184 39.029693 
L 611.669449 39.029693 
L 617.922717 33.154326 
L 623.11568 33.154326 
L 629.368948 39.029693 
L 624.993832 39.029693 
L 623.929908 37.959384 
z
M 618.208602 36.868928 
L 622.833415 36.868928 
L 620.524627 34.531876 
L 618.208602 36.868928 
z
" clip-path="url(#p617f78f733)" style="fill: #008000"/>
   </g>
   <g id="patch_34">
    <path d="M 629.368948 32.469331 
Q 627.583925 32.811828 625.664033 32.983859 
Q 623.744141 33.154326 621.697314 33.154326 
Q 617.07212 33.154326 614.370785 32.134653 
Q 611.669449 31.11498 611.669449 29.371214 
Q 611.669449 27.607118 614.418385 26.595264 
Q 617.171288 25.583411 621.959118 25.583411 
Q 623.803642 25.583411 625.493464 25.721035 
Q 627.187253 25.857096 628.686673 26.12609 
L 628.686673 27.635268 
Q 627.139652 27.289643 625.608499 27.119176 
Q 624.077345 26.947145 622.538259 26.947145 
Q 619.690154 26.947145 618.147101 27.575839 
Q 616.604047 28.202969 616.604047 29.371214 
Q 616.604047 30.528512 618.091567 31.160334 
Q 619.579086 31.790592 622.316122 31.790592 
Q 623.061865 31.790592 623.700507 31.754621 
Q 624.339149 31.717088 624.846889 31.638892 
L 624.846889 30.221984 
L 621.931351 30.221984 
L 621.931351 28.959904 
L 629.368948 28.959904 
L 629.368948 32.469331 
z
" clip-path="url(#p617f78f733)" style="fill: #ffa600"/>
   </g>
   <g id="patch_35">
    <path d="M 630.300501 37.000905 
L 648 37.000905 
L 648 37.990038 
L 641.632296 37.990038 
L 641.632296 42.072656 
L 636.680553 42.072656 
L 636.680553 37.990038 
L 630.300501 37.990038 
L 630.300501 37.000905 
z
" clip-path="url(#p617f78f733)" style="fill: #ff0000"/>
   </g>
   <g id="patch_36">
    <path d="M 642.560959 35.005239 
L 635.754017 35.005239 
L 634.679236 37.000905 
L 630.300501 37.000905 
L 636.553769 26.045869 
L 641.746732 26.045869 
L 648 37.000905 
L 643.624884 37.000905 
L 642.560959 35.005239 
z
M 636.839653 32.972006 
L 641.464466 32.972006 
L 639.155679 28.61441 
L 636.839653 32.972006 
z
" clip-path="url(#p617f78f733)" style="fill: #008000"/>
   </g>
   <g id="patch_37">
    <path d="M 107.699499 44.246769 
Q 106.218967 43.16911 104.618029 42.624016 
Q 103.017092 42.072656 101.273453 42.072656 
Q 96.073751 42.072656 93.036876 46.157733 
Q 90 50.24281 90 57.228793 
Q 90 64.239838 93.036876 68.318649 
Q 96.073751 72.403726 101.273453 72.403726 
Q 103.017092 72.403726 104.618029 71.852366 
Q 106.218967 71.307272 107.699499 70.229613 
L 107.699499 64.183449 
Q 106.205588 65.611972 104.756272 66.276111 
Q 103.306955 66.940249 101.706018 66.940249 
Q 98.834142 66.940249 97.18861 64.352616 
Q 95.547538 61.771248 95.547538 57.228793 
Q 95.547538 52.705134 97.18861 50.117501 
Q 98.834142 47.536133 101.706018 47.536133 
Q 103.306955 47.536133 104.756272 48.200271 
Q 106.205588 48.870675 107.699499 50.299199 
L 107.699499 44.246769 
z
" clip-path="url(#p617f78f733)" style="fill: #0000ff"/>
   </g>
   <g id="patch_38">
    <path d="M 126.330551 44.089023 
Q 124.850018 43.089555 123.249081 42.584011 
Q 121.648144 42.072656 119.904504 42.072656 
Q 114.704803 42.072656 111.667927 45.861333 
Q 108.631052 49.650011 108.631052 56.129115 
Q 108.631052 62.631462 111.667927 66.414329 
Q 114.704803 70.203007 119.904504 70.203007 
Q 121.648144 70.203007 123.249081 69.691652 
Q 124.850018 69.186107 126.330551 68.18664 
L 126.330551 62.579165 
Q 124.83664 63.90404 123.387324 64.51999 
Q 121.938007 65.135941 120.33707 65.135941 
Q 117.465193 65.135941 115.819662 62.736058 
Q 114.178589 60.341985 114.178589 56.129115 
Q 114.178589 51.933677 115.819662 49.533794 
Q 117.465193 47.139722 120.33707 47.139722 
Q 121.938007 47.139722 123.387324 47.755672 
Q 124.83664 48.377434 126.330551 49.702309 
L 126.330551 44.089023 
z
" clip-path="url(#p617f78f733)" style="fill: #0000ff"/>
   </g>
   <g id="patch_39">
    <path d="M 144.961603 43.079395 
Q 143.48107 42.580377 141.880133 42.327967 
Q 140.279195 42.072656 138.535556 42.072656 
Q 133.335855 42.072656 130.298979 43.964281 
Q 127.262104 45.855906 127.262104 49.090817 
Q 127.262104 52.337333 130.298979 54.226057 
Q 133.335855 56.117682 138.535556 56.117682 
Q 140.279195 56.117682 141.880133 55.862371 
Q 143.48107 55.609961 144.961603 55.110943 
L 144.961603 52.311222 
Q 143.467692 52.97271 142.018375 53.280244 
Q 140.569059 53.587779 138.968121 53.587779 
Q 136.096245 53.587779 134.450713 52.389556 
Q 132.809641 51.194235 132.809641 49.090817 
Q 132.809641 46.996103 134.450713 45.797881 
Q 136.096245 44.602559 138.968121 44.602559 
Q 140.569059 44.602559 142.018375 44.910093 
Q 143.467692 45.220529 144.961603 45.882017 
L 144.961603 43.079395 
z
" clip-path="url(#p617f78f733)" style="fill: #0000ff"/>
   </g>
   <g id="patch_40">
    <path d="M 163.592654 48.326477 
Q 162.112122 46.789585 160.511185 46.012203 
Q 158.910247 45.225886 157.166608 45.225886 
Q 151.966906 45.225886 148.930031 51.051781 
Q 145.893155 56.877676 145.893155 66.840671 
Q 145.893155 76.839408 148.930031 82.656368 
Q 151.966906 88.482263 157.166608 88.482263 
Q 158.910247 88.482263 160.511185 87.695946 
Q 162.112122 86.918564 163.592654 85.381672 
L 163.592654 76.75899 
Q 162.098744 78.796266 160.649427 79.74342 
Q 159.200111 80.690575 157.599173 80.690575 
Q 154.727297 80.690575 153.081765 77.000246 
Q 151.440693 73.318852 151.440693 66.840671 
Q 151.440693 60.389297 153.081765 56.698967 
Q 154.727297 53.017574 157.599173 53.017574 
Q 159.200111 53.017574 160.649427 53.964728 
Q 162.098744 54.920819 163.592654 56.958095 
L 163.592654 48.326477 
z
" clip-path="url(#p617f78f733)" style="fill: #0000ff"/>
   </g>
   <g id="patch_41">
    <path d="M 163.592654 42.357951 
Q 161.807631 42.215303 159.887739 42.143654 
Q 157.967847 42.072656 155.92102 42.072656 
Q 151.295826 42.072656 148.594491 42.497342 
Q 145.893155 42.922028 145.893155 43.648294 
Q 145.893155 44.383027 148.642091 44.804456 
Q 151.394994 45.225886 156.182824 45.225886 
Q 158.027348 45.225886 159.71717 45.168566 
Q 161.410959 45.111898 162.910379 44.999864 
L 162.910379 44.371302 
Q 161.363358 44.515253 159.832205 44.586251 
Q 158.301052 44.657901 156.761965 44.657901 
Q 153.913861 44.657901 152.370807 44.396054 
Q 150.827753 44.134859 150.827753 43.648294 
Q 150.827753 43.166288 152.315273 42.903139 
Q 153.802792 42.640641 156.539828 42.640641 
Q 157.285572 42.640641 157.924213 42.655622 
Q 158.562855 42.671255 159.070595 42.703823 
L 159.070595 43.293954 
L 156.155057 43.293954 
L 156.155057 43.819601 
L 163.592654 43.819601 
L 163.592654 42.357951 
z
" clip-path="url(#p617f78f733)" style="fill: #ffa600"/>
   </g>
   <g id="patch_42">
    <path d="M 176.784666 44.406013 
L 169.977723 44.406013 
L 168.902942 43.9169 
L 164.524207 43.9169 
L 170.777475 46.601845 
L 175.970438 46.601845 
L 182.223706 43.9169 
L 177.84859 43.9169 
L 176.784666 44.406013 
z
M 171.06336 44.904333 
L 175.688172 44.904333 
L 173.379385 45.972327 
L 171.06336 44.904333 
z
" clip-path="url(#p617f78f733)" style="fill: #008000"/>
   </g>
   <g id="patch_43">
    <path d="M 182.223706 49.162255 
Q 180.743174 47.893118 179.142236 47.251171 
Q 177.541299 46.601845 175.79766 46.601845 
Q 170.597958 46.601845 167.561083 51.412759 
Q 164.524207 56.223673 164.524207 64.450926 
Q 164.524207 72.707694 167.561083 77.51123 
Q 170.597958 82.322144 175.79766 82.322144 
Q 177.541299 82.322144 179.142236 81.672818 
Q 180.743174 81.030871 182.223706 79.761734 
L 182.223706 72.641286 
Q 180.729795 74.32363 179.280479 75.105773 
Q 177.831162 75.887915 176.230225 75.887915 
Q 173.358349 75.887915 171.712817 72.840511 
Q 170.071745 69.800486 170.071745 64.450926 
Q 170.071745 59.123503 171.712817 56.076099 
Q 173.358349 53.036074 176.230225 53.036074 
Q 177.831162 53.036074 179.280479 53.818216 
Q 180.729795 54.607737 182.223706 56.290082 
L 182.223706 49.162255 
z
" clip-path="url(#p617f78f733)" style="fill: #0000ff"/>
   </g>
   <g id="patch_44">
    <path d="M 182.223706 42.239518 
Q 180.438683 42.156087 178.518791 42.114181 
Q 176.598899 42.072656 174.552072 42.072656 
Q 169.926878 42.072656 167.225542 42.321044 
Q 164.524207 42.569432 164.524207 42.994206 
Q 164.524207 43.423933 167.273143 43.670416 
Q 170.026046 43.9169 174.813876 43.9169 
Q 176.6584 43.9169 178.348222 43.883375 
Q 180.042011 43.850231 181.541431 43.784705 
L 181.541431 43.417076 
Q 179.99441 43.501268 178.463257 43.542793 
Q 176.932103 43.584699 175.393016 43.584699 
Q 172.544912 43.584699 171.001859 43.431552 
Q 169.458805 43.278786 169.458805 42.994206 
Q 169.458805 42.712293 170.946325 42.558384 
Q 172.433844 42.404856 175.17088 42.404856 
Q 175.916623 42.404856 176.555265 42.413618 
Q 177.193907 42.422761 177.701647 42.441809 
L 177.701647 42.786962 
L 174.786108 42.786962 
L 174.786108 43.0944 
L 182.223706 43.0944 
L 182.223706 42.239518 
z
" clip-path="url(#p617f78f733)" style="fill: #ffa600"/>
   </g>
   <g id="patch_45">
    <path d="M 195.415717 42.092679 
L 188.608774 42.092679 
L 187.533994 42.072656 
L 183.155259 42.072656 
L 189.408527 42.182572 
L 194.60149 42.182572 
L 200.854758 42.072656 
L 196.479641 42.072656 
L 195.415717 42.092679 
z
M 189.694411 42.113079 
L 194.319224 42.113079 
L 192.010437 42.156801 
L 189.694411 42.113079 
z
" clip-path="url(#p617f78f733)" style="fill: #008000"/>
   </g>
   <g id="patch_46">
    <path d="M 200.854758 43.066432 
Q 199.374225 42.628323 197.773288 42.406721 
Q 196.172351 42.182572 194.428711 42.182572 
Q 189.22901 42.182572 186.192134 43.843311 
Q 183.155259 45.50405 183.155259 48.344117 
Q 183.155259 51.194372 186.192134 52.852564 
Q 189.22901 54.513303 194.428711 54.513303 
Q 196.172351 54.513303 197.773288 54.289154 
Q 199.374225 54.067552 200.854758 53.629443 
L 200.854758 51.171448 
Q 199.360847 51.752197 197.911531 52.022195 
Q 196.462214 52.292192 194.861277 52.292192 
Q 191.9894 52.292192 190.343869 51.240221 
Q 188.702796 50.190797 188.702796 48.344117 
Q 188.702796 46.505078 190.343869 45.453107 
Q 191.9894 44.403683 194.861277 44.403683 
Q 196.462214 44.403683 197.911531 44.673681 
Q 199.360847 44.946225 200.854758 45.526974 
L 200.854758 43.066432 
z
" clip-path="url(#p617f78f733)" style="fill: #0000ff"/>
   </g>
   <g id="patch_47">
    <path d="M 200.854758 56.85098 
Q 199.069734 55.682142 197.149843 55.095054 
Q 195.229951 54.513303 193.183124 54.513303 
Q 188.55793 54.513303 185.856594 57.993133 
Q 183.155259 61.472964 183.155259 67.423901 
Q 183.155259 73.444222 185.904195 76.897367 
Q 188.657098 80.350512 193.444927 80.350512 
Q 195.289451 80.350512 196.979274 79.880841 
Q 198.673063 79.416508 200.172482 78.498516 
L 200.172482 73.348153 
Q 198.625462 74.527666 197.094309 75.109417 
Q 195.563155 75.696505 194.024068 75.696505 
Q 191.175964 75.696505 189.632911 73.550965 
Q 188.089857 71.410763 188.089857 67.423901 
Q 188.089857 63.4744 189.577376 61.318186 
Q 191.064896 59.167309 193.801932 59.167309 
Q 194.547675 59.167309 195.186317 59.290064 
Q 195.824959 59.418156 196.332699 59.685014 
L 196.332699 64.520484 
L 193.41716 64.520484 
L 193.41716 68.827575 
L 200.854758 68.827575 
L 200.854758 56.85098 
z
" clip-path="url(#p617f78f733)" style="fill: #ffa600"/>
   </g>
   <g id="patch_48">
    <path d="M 214.046769 42.113501 
L 207.239826 42.113501 
L 206.165046 42.072656 
L 201.786311 42.072656 
L 208.039579 42.296874 
L 213.232542 42.296874 
L 219.48581 42.072656 
L 215.110693 42.072656 
L 214.046769 42.113501 
z
M 208.325463 42.155116 
L 212.950276 42.155116 
L 210.641488 42.244303 
L 208.325463 42.155116 
z
" clip-path="url(#p617f78f733)" style="fill: #008000"/>
   </g>
   <g id="patch_49">
    <path d="M 219.48581 61.195917 
Q 218.005277 59.332134 216.40434 58.389407 
Q 214.803402 57.435844 213.059763 57.435844 
Q 207.860062 57.435844 204.823186 64.50088 
Q 201.786311 71.565916 201.786311 83.647995 
Q 201.786311 95.773418 204.823186 102.827618 
Q 207.860062 109.892654 213.059763 109.892654 
Q 214.803402 109.892654 216.40434 108.939091 
Q 218.005277 107.996364 219.48581 106.132581 
L 219.48581 95.675894 
Q 217.991899 98.14649 216.542582 99.2951 
Q 215.093266 100.44371 213.492328 100.44371 
Q 210.620452 100.44371 208.97492 95.968465 
Q 207.333848 91.504055 207.333848 83.647995 
Q 207.333848 75.824443 208.97492 71.349197 
Q 210.620452 66.884788 213.492328 66.884788 
Q 215.093266 66.884788 216.542582 68.033398 
Q 217.991899 69.192844 219.48581 71.66344 
L 219.48581 61.195917 
z
" clip-path="url(#p617f78f733)" style="fill: #0000ff"/>
   </g>
   <g id="patch_50">
    <path d="M 219.48581 43.666605 
Q 217.700786 42.981739 215.780894 42.637743 
Q 213.861002 42.296874 211.814176 42.296874 
Q 207.188981 42.296874 204.487646 44.335834 
Q 201.786311 46.374795 201.786311 49.861668 
Q 201.786311 53.389195 204.535247 55.412519 
Q 207.288149 57.435844 212.075979 57.435844 
Q 213.920503 57.435844 215.610325 57.160647 
Q 217.304114 56.888577 218.803534 56.350691 
L 218.803534 53.332905 
Q 217.256514 54.024025 215.72536 54.364894 
Q 214.194207 54.70889 212.65512 54.70889 
Q 209.807016 54.70889 208.263962 53.45174 
Q 206.720909 52.197716 206.720909 49.861668 
Q 206.720909 47.54751 208.208428 46.284105 
Q 209.695948 45.023827 212.432984 45.023827 
Q 213.178727 45.023827 213.817369 45.095754 
Q 214.45601 45.170808 214.96375 45.32717 
L 214.96375 48.160449 
L 212.048212 48.160449 
L 212.048212 50.684132 
L 219.48581 50.684132 
L 219.48581 43.666605 
z
" clip-path="url(#p617f78f733)" style="fill: #ffa600"/>
   </g>
   <g id="patch_51">
    <path d="M 232.677821 44.350381 
L 225.870878 44.350381 
L 224.796097 43.377214 
L 220.417362 43.377214 
L 226.67063 48.71933 
L 231.863593 48.71933 
L 238.116861 43.377214 
L 233.741745 43.377214 
L 232.677821 44.350381 
z
M 226.956515 45.341867 
L 231.581328 45.341867 
L 229.27254 47.466807 
L 226.956515 45.341867 
z
" clip-path="url(#p617f78f733)" style="fill: #008000"/>
   </g>
   <g id="patch_52">
    <path d="M 238.116861 59.995005 
Q 236.636329 58.668335 235.035392 57.997287 
Q 233.434454 57.318526 231.690815 57.318526 
Q 226.491113 57.318526 223.454238 62.34753 
Q 220.417362 67.376535 220.417362 75.97675 
Q 220.417362 84.607818 223.454238 89.629109 
Q 226.491113 94.658113 231.690815 94.658113 
Q 233.434454 94.658113 235.035392 93.979352 
Q 236.636329 93.308304 238.116861 91.981634 
L 238.116861 84.538399 
Q 236.622951 86.297008 235.173634 87.114607 
Q 233.724318 87.932206 232.12338 87.932206 
Q 229.251504 87.932206 227.605972 84.746655 
Q 225.9649 81.568818 225.9649 75.97675 
Q 225.9649 70.407821 227.605972 67.222271 
Q 229.251504 64.044434 232.12338 64.044434 
Q 233.724318 64.044434 235.173634 64.862033 
Q 236.622951 65.687345 238.116861 67.445954 
L 238.116861 59.995005 
z
" clip-path="url(#p617f78f733)" style="fill: #0000ff"/>
   </g>
   <g id="patch_53">
    <path d="M 238.116861 49.497361 
Q 236.331838 49.108346 234.411946 48.91295 
Q 232.492054 48.71933 230.445227 48.71933 
Q 225.820033 48.71933 223.118698 49.877495 
Q 220.417362 51.03566 220.417362 53.016263 
Q 220.417362 55.01996 223.166298 56.169243 
Q 225.919201 57.318526 230.707031 57.318526 
Q 232.551555 57.318526 234.241377 57.162209 
Q 235.935166 57.007669 237.434586 56.70214 
L 237.434586 54.987986 
Q 235.887565 55.380554 234.356412 55.574173 
Q 232.825259 55.769569 231.286172 55.769569 
Q 228.438068 55.769569 226.895014 55.055486 
Q 225.35196 54.343179 225.35196 53.016263 
Q 225.35196 51.701782 226.83948 50.984146 
Q 228.327 50.268287 231.064035 50.268287 
Q 231.809779 50.268287 232.44842 50.309142 
Q 233.087062 50.351774 233.594802 50.44059 
L 233.594802 52.049942 
L 230.679264 52.049942 
L 230.679264 53.483437 
L 238.116861 53.483437 
L 238.116861 49.497361 
z
" clip-path="url(#p617f78f733)" style="fill: #ffa600"/>
   </g>
   <g id="patch_54">
    <path d="M 220.417362 43.377214 
L 238.116861 43.377214 
L 238.116861 43.122789 
L 231.749158 43.122789 
L 231.749158 42.072656 
L 226.797414 42.072656 
L 226.797414 43.122789 
L 220.417362 43.122789 
L 220.417362 43.377214 
z
" clip-path="url(#p617f78f733)" style="fill: #ff0000"/>
   </g>
   <g id="patch_55">
    <path d="M 251.308873 42.164356 
L 244.50193 42.164356 
L 243.427149 42.072656 
L 239.048414 42.072656 
L 245.301682 42.576036 
L 250.494645 42.576036 
L 256.747913 42.072656 
L 252.372797 42.072656 
L 251.308873 42.164356 
z
M 245.587567 42.257782 
L 250.212379 42.257782 
L 247.903592 42.458012 
L 245.587567 42.257782 
z
" clip-path="url(#p617f78f733)" style="fill: #008000"/>
   </g>
   <g id="patch_56">
    <path d="M 256.747913 42.993454 
Q 255.267381 42.786549 253.666443 42.681894 
Q 252.065506 42.576036 250.321867 42.576036 
Q 245.122165 42.576036 242.08529 43.36035 
Q 239.048414 44.144664 239.048414 45.485937 
Q 239.048414 46.832022 242.08529 47.615134 
Q 245.122165 48.399448 250.321867 48.399448 
Q 252.065506 48.399448 253.666443 48.293589 
Q 255.267381 48.188934 256.747913 47.982029 
L 256.747913 46.821196 
Q 255.254002 47.095465 253.804686 47.222976 
Q 252.355369 47.350488 250.754432 47.350488 
Q 247.882556 47.350488 246.237024 46.853675 
Q 244.595952 46.358066 244.595952 45.485937 
Q 244.595952 44.617418 246.237024 44.120605 
Q 247.882556 43.624996 250.754432 43.624996 
Q 252.355369 43.624996 253.804686 43.752507 
Q 255.254002 43.881221 256.747913 44.15549 
L 256.747913 42.993454 
z
" clip-path="url(#p617f78f733)" style="fill: #0000ff"/>
   </g>
   <g id="patch_57">
    <path d="M 256.747913 53.840063 
Q 254.96289 51.119755 253.042998 49.753391 
Q 251.123106 48.399448 249.076279 48.399448 
Q 244.451085 48.399448 241.74975 56.498263 
Q 239.048414 64.597078 239.048414 78.447046 
Q 239.048414 92.458493 241.79735 100.4952 
Q 244.550253 108.531908 249.338083 108.531908 
Q 251.182607 108.531908 252.872429 107.438816 
Q 254.566218 106.358146 256.065638 104.221649 
L 256.065638 92.234906 
Q 254.518617 94.980056 252.987464 96.333999 
Q 251.45631 97.700364 249.917223 97.700364 
Q 247.069119 97.700364 245.526066 92.706923 
Q 243.983012 87.725903 243.983012 78.447046 
Q 243.983012 69.255139 245.470532 64.236855 
Q 246.958051 59.230992 249.695087 59.230992 
Q 250.44083 59.230992 251.079472 59.516686 
Q 251.718114 59.814802 252.225854 60.435877 
L 252.225854 71.689752 
L 249.310315 71.689752 
L 249.310315 81.713899 
L 256.747913 81.713899 
L 256.747913 53.840063 
z
" clip-path="url(#p617f78f733)" style="fill: #ffa600"/>
   </g>
   <g id="patch_58">
    <path d="M 269.939924 42.597984 
L 263.132981 42.597984 
L 262.058201 42.072656 
L 257.679466 42.072656 
L 263.932734 44.956399 
L 269.125697 44.956399 
L 275.378965 42.072656 
L 271.003849 42.072656 
L 269.939924 42.597984 
z
M 264.218618 43.133201 
L 268.843431 43.133201 
L 266.534644 44.28027 
L 264.218618 43.133201 
z
" clip-path="url(#p617f78f733)" style="fill: #008000"/>
   </g>
   <g id="patch_59">
    <path d="M 275.378965 50.072744 
Q 273.898432 47.536688 272.297495 46.253916 
Q 270.696558 44.956399 268.952919 44.956399 
Q 263.753217 44.956399 260.716341 54.569819 
Q 257.679466 64.18324 257.679466 80.623369 
Q 257.679466 97.122476 260.716341 106.721152 
Q 263.753217 116.334573 268.952919 116.334573 
Q 270.696558 116.334573 272.297495 115.037056 
Q 273.898432 113.754284 275.378965 111.218228 
L 275.378965 96.989775 
Q 273.885054 100.351524 272.435738 101.914442 
Q 270.986421 103.47736 269.385484 103.47736 
Q 266.513607 103.47736 264.868076 97.387877 
Q 263.227003 91.313139 263.227003 80.623369 
Q 263.227003 69.977833 264.868076 63.88835 
Q 266.513607 57.813612 269.385484 57.813612 
Q 270.986421 57.813612 272.435738 59.37653 
Q 273.885054 60.954192 275.378965 64.315941 
L 275.378965 50.072744 
z
" clip-path="url(#p617f78f733)" style="fill: #0000ff"/>
   </g>
   <g id="patch_60">
    <path d="M 288.570976 45.878804 
L 281.764033 45.878804 
L 280.689253 45.149126 
L 276.310518 45.149126 
L 282.563786 49.154632 
L 287.756749 49.154632 
L 294.010017 45.149126 
L 289.6349 45.149126 
L 288.570976 45.878804 
z
M 282.84967 46.622218 
L 287.474483 46.622218 
L 285.165695 48.215493 
L 282.84967 46.622218 
z
" clip-path="url(#p617f78f733)" style="fill: #008000"/>
   </g>
   <g id="patch_61">
    <path d="M 294.010017 60.24879 
Q 292.529484 59.246948 290.928547 58.740202 
Q 289.32761 58.227631 287.58397 58.227631 
Q 282.384269 58.227631 279.347393 62.025313 
Q 276.310518 65.822994 276.310518 72.317495 
Q 276.310518 78.835294 279.347393 82.627151 
Q 282.384269 86.424832 287.58397 86.424832 
Q 289.32761 86.424832 290.928547 85.912262 
Q 292.529484 85.405516 294.010017 84.403674 
L 294.010017 78.782872 
Q 292.516106 80.110896 291.066789 80.72831 
Q 289.617473 81.345725 288.016535 81.345725 
Q 285.144659 81.345725 283.499127 78.940138 
Q 281.858055 76.540377 281.858055 72.317495 
Q 281.858055 68.112087 283.499127 65.706501 
Q 285.144659 63.306739 288.016535 63.306739 
Q 289.617473 63.306739 291.066789 63.924153 
Q 292.516106 64.547392 294.010017 65.875416 
L 294.010017 60.24879 
z
" clip-path="url(#p617f78f733)" style="fill: #0000ff"/>
   </g>
   <g id="patch_62">
    <path d="M 294.010017 49.975531 
Q 292.224993 49.565082 290.305101 49.35892 
Q 288.385209 49.154632 286.338383 49.154632 
Q 281.713188 49.154632 279.011853 50.37661 
Q 276.310518 51.598588 276.310518 53.68832 
Q 276.310518 55.802417 279.059454 57.015024 
Q 281.812356 58.227631 286.600186 58.227631 
Q 288.44471 58.227631 290.134532 58.062702 
Q 291.828321 57.899646 293.327741 57.577284 
L 293.327741 55.768682 
Q 291.780721 56.18288 290.249567 56.387167 
Q 288.718414 56.593329 287.179327 56.593329 
Q 284.331223 56.593329 282.788169 55.839901 
Q 281.245116 55.088347 281.245116 53.68832 
Q 281.245116 52.301413 282.732635 51.544236 
Q 284.220155 50.788934 286.957191 50.788934 
Q 287.702934 50.788934 288.341576 50.832041 
Q 288.980217 50.877021 289.487957 50.970731 
L 289.487957 52.668756 
L 286.572419 52.668756 
L 286.572419 54.181235 
L 294.010017 54.181235 
L 294.010017 49.975531 
z
" clip-path="url(#p617f78f733)" style="fill: #ffa600"/>
   </g>
   <g id="patch_63">
    <path d="M 276.310518 45.149126 
L 294.010017 45.149126 
L 294.010017 44.549128 
L 287.642313 44.549128 
L 287.642313 42.072656 
L 282.69057 42.072656 
L 282.69057 44.549128 
L 276.310518 44.549128 
L 276.310518 45.149126 
z
" clip-path="url(#p617f78f733)" style="fill: #ff0000"/>
   </g>
   <g id="patch_64">
    <path d="M 312.641068 71.524415 
Q 311.160536 70.809255 309.559599 70.447518 
Q 307.958661 70.081622 306.215022 70.081622 
Q 301.01532 70.081622 297.978445 72.792575 
Q 294.941569 75.503527 294.941569 80.139588 
Q 294.941569 84.79228 297.978445 87.499075 
Q 301.01532 90.210027 306.215022 90.210027 
Q 307.958661 90.210027 309.559599 89.844132 
Q 311.160536 89.482394 312.641068 88.767235 
L 312.641068 84.754859 
Q 311.147158 85.702861 309.697841 86.143599 
Q 308.248525 86.584336 306.647587 86.584336 
Q 303.775711 86.584336 302.130179 84.867123 
Q 300.489107 83.154067 300.489107 80.139588 
Q 300.489107 77.137583 302.130179 75.420369 
Q 303.775711 73.707313 306.647587 73.707313 
Q 308.248525 73.707313 309.697841 74.148051 
Q 311.147158 74.592946 312.641068 75.540948 
L 312.641068 71.524415 
z
" clip-path="url(#p617f78f733)" style="fill: #0000ff"/>
   </g>
   <g id="patch_65">
    <path d="M 312.641068 52.181608 
Q 310.856045 51.291283 308.936153 50.844087 
Q 307.016261 50.400957 304.969434 50.400957 
Q 300.34424 50.400957 297.642905 53.051607 
Q 294.941569 55.702256 294.941569 60.235192 
Q 294.941569 64.820978 297.690505 67.4513 
Q 300.443408 70.081622 305.231238 70.081622 
Q 307.075762 70.081622 308.765584 69.723866 
Q 310.459373 69.370175 311.958793 68.670924 
L 311.958793 64.7478 
Q 310.411772 65.646257 308.880619 66.089387 
Q 307.349466 66.536582 305.810379 66.536582 
Q 302.962275 66.536582 301.419221 64.902286 
Q 299.876167 63.272055 299.876167 60.235192 
Q 299.876167 57.226786 301.363687 55.584359 
Q 302.851207 53.945998 305.588242 53.945998 
Q 306.333986 53.945998 306.972627 54.039502 
Q 307.611269 54.137072 308.119009 54.340343 
L 308.119009 58.023607 
L 305.203471 58.023607 
L 305.203471 61.304395 
L 312.641068 61.304395 
L 312.641068 52.181608 
z
" clip-path="url(#p617f78f733)" style="fill: #ffa600"/>
   </g>
   <g id="patch_66">
    <path d="M 294.941569 50.400957 
L 312.641068 50.400957 
L 312.641068 48.776706 
L 306.273365 48.776706 
L 306.273365 42.072656 
L 301.321621 42.072656 
L 301.321621 48.776706 
L 294.941569 48.776706 
L 294.941569 50.400957 
z
" clip-path="url(#p617f78f733)" style="fill: #ff0000"/>
   </g>
   <g id="patch_67">
    <path d="M 331.27212 68.434143 
Q 329.791588 67.43194 328.19065 66.925012 
Q 326.589713 66.412257 324.846074 66.412257 
Q 319.646372 66.412257 316.609497 70.211304 
Q 313.572621 74.010351 313.572621 80.507188 
Q 313.572621 87.027332 316.609497 90.820552 
Q 319.646372 94.619599 324.846074 94.619599 
Q 326.589713 94.619599 328.19065 94.106844 
Q 329.791588 93.599916 331.27212 92.597713 
L 331.27212 86.974891 
Q 329.778209 88.303392 328.328893 88.921028 
Q 326.879576 89.538665 325.278639 89.538665 
Q 322.406763 89.538665 320.761231 87.132213 
Q 319.120159 84.731588 319.120159 80.507188 
Q 319.120159 76.300268 320.761231 73.893816 
Q 322.406763 71.493191 325.278639 71.493191 
Q 326.879576 71.493191 328.328893 72.110828 
Q 329.778209 72.734291 331.27212 74.062792 
L 331.27212 68.434143 
z
" clip-path="url(#p617f78f733)" style="fill: #0000ff"/>
   </g>
   <g id="patch_68">
    <path d="M 331.27212 44.292882 
Q 329.487097 43.192691 327.567205 42.640083 
Q 325.647313 42.092499 323.600486 42.092499 
Q 318.975292 42.092499 316.273957 45.367955 
Q 313.572621 48.643411 313.572621 54.244843 
Q 313.572621 59.911582 316.321557 63.16192 
Q 319.07446 66.412257 323.86229 66.412257 
Q 325.706814 66.412257 327.396636 65.970171 
Q 329.090425 65.533109 330.589845 64.669031 
L 330.589845 59.821156 
Q 329.042824 60.931394 327.511671 61.478978 
Q 325.980517 62.031586 324.44143 62.031586 
Q 321.593326 62.031586 320.050273 60.012056 
Q 318.507219 57.997551 318.507219 54.244843 
Q 318.507219 50.527301 319.994739 48.497724 
Q 321.482258 46.47317 324.219294 46.47317 
Q 324.965037 46.47317 325.603679 46.588716 
Q 326.242321 46.709285 326.750061 46.96047 
L 326.750061 51.511947 
L 323.834523 51.511947 
L 323.834523 55.566077 
L 331.27212 55.566077 
L 331.27212 44.292882 
z
" clip-path="url(#p617f78f733)" style="fill: #ffa600"/>
   </g>
   <g id="patch_69">
    <path d="M 313.572621 42.092499 
L 331.27212 42.092499 
L 331.27212 42.088629 
L 324.904417 42.088629 
L 324.904417 42.072656 
L 319.952673 42.072656 
L 319.952673 42.088629 
L 313.572621 42.088629 
L 313.572621 42.092499 
z
" clip-path="url(#p617f78f733)" style="fill: #ff0000"/>
   </g>
   <g id="patch_70">
    <path d="M 344.464131 42.087712 
L 337.657188 42.087712 
L 336.582408 42.072656 
L 332.203673 42.072656 
L 338.456941 42.155306 
L 343.649904 42.155306 
L 349.903172 42.072656 
L 345.528056 42.072656 
L 344.464131 42.087712 
z
M 338.742825 42.103052 
L 343.367638 42.103052 
L 341.058851 42.135928 
L 338.742825 42.103052 
z
" clip-path="url(#p617f78f733)" style="fill: #008000"/>
   </g>
   <g id="patch_71">
    <path d="M 349.903172 56.775809 
Q 348.422639 52.62656 346.821702 50.527811 
Q 345.220765 48.40494 343.477126 48.40494 
Q 338.277424 48.40494 335.240548 64.133489 
Q 332.203673 79.862039 332.203673 106.759789 
Q 332.203673 133.754032 335.240548 149.458459 
Q 338.277424 165.187008 343.477126 165.187008 
Q 345.220765 165.187008 346.821702 163.064136 
Q 348.422639 160.965388 349.903172 156.816139 
L 349.903172 133.536921 
Q 348.409261 139.037088 346.959945 141.594184 
Q 345.510628 144.151279 343.909691 144.151279 
Q 341.037814 144.151279 339.392283 134.188256 
Q 337.75121 124.249357 337.75121 106.759789 
Q 337.75121 89.342591 339.392283 79.379568 
Q 341.037814 69.440669 343.909691 69.440669 
Q 345.510628 69.440669 346.959945 71.997764 
Q 348.409261 74.578983 349.903172 80.079151 
L 349.903172 56.775809 
z
" clip-path="url(#p617f78f733)" style="fill: #0000ff"/>
   </g>
   <g id="patch_72">
    <path d="M 349.903172 43.754477 
Q 348.118149 43.523168 346.198257 43.406986 
Q 344.278365 43.29186 342.231538 43.29186 
Q 337.606344 43.29186 334.905008 43.980504 
Q 332.203673 44.669149 332.203673 45.846815 
Q 332.203673 47.038213 334.952609 47.721576 
Q 337.705512 48.40494 342.493341 48.40494 
Q 344.337866 48.40494 346.027688 48.311994 
Q 347.721477 48.220104 349.220896 48.038437 
L 349.220896 47.019201 
Q 347.673876 47.252622 346.142723 47.367748 
Q 344.611569 47.483931 343.072482 47.483931 
Q 340.224378 47.483931 338.681325 47.059337 
Q 337.138271 46.635799 337.138271 45.846815 
Q 337.138271 45.065225 338.62579 44.638519 
Q 340.11331 44.212869 342.850346 44.212869 
Q 343.596089 44.212869 344.234731 44.237162 
Q 344.873373 44.262511 345.381113 44.315321 
L 345.381113 45.272241 
L 342.465574 45.272241 
L 342.465574 46.124597 
L 349.903172 46.124597 
L 349.903172 43.754477 
z
" clip-path="url(#p617f78f733)" style="fill: #ffa600"/>
   </g>
   <g id="patch_73">
    <path d="M 332.203673 43.29186 
L 349.903172 43.29186 
L 349.903172 43.0702 
L 343.535468 43.0702 
L 343.535468 42.155306 
L 338.583725 42.155306 
L 338.583725 43.0702 
L 332.203673 43.0702 
L 332.203673 43.29186 
z
" clip-path="url(#p617f78f733)" style="fill: #ff0000"/>
   </g>
   <g id="patch_74">
    <path d="M 363.095183 43.834274 
L 356.28824 43.834274 
L 355.21346 43.549103 
L 350.834725 43.549103 
L 357.087993 45.114526 
L 362.280956 45.114526 
L 368.534224 43.549103 
L 364.159107 43.549103 
L 363.095183 43.834274 
z
M 357.373877 44.124814 
L 361.99869 44.124814 
L 359.689902 44.747494 
L 357.373877 44.124814 
z
" clip-path="url(#p617f78f733)" style="fill: #008000"/>
   </g>
   <g id="patch_75">
    <path d="M 368.534224 45.258263 
Q 367.053691 45.187016 365.452754 45.150978 
Q 363.851817 45.114526 362.108177 45.114526 
Q 356.908476 45.114526 353.8716 45.384602 
Q 350.834725 45.654679 350.834725 46.116542 
Q 350.834725 46.580062 353.8716 46.849724 
Q 356.908476 47.119801 362.108177 47.119801 
Q 363.851817 47.119801 365.452754 47.083349 
Q 367.053691 47.047311 368.534224 46.976064 
L 368.534224 46.576334 
Q 367.040313 46.670778 365.590996 46.714686 
Q 364.14168 46.758594 362.540743 46.758594 
Q 359.668866 46.758594 358.023334 46.587519 
Q 356.382262 46.416857 356.382262 46.116542 
Q 356.382262 45.81747 358.023334 45.646394 
Q 359.668866 45.475732 362.540743 45.475732 
Q 364.14168 45.475732 365.590996 45.519641 
Q 367.040313 45.563963 368.534224 45.658407 
L 368.534224 45.258263 
z
" clip-path="url(#p617f78f733)" style="fill: #0000ff"/>
   </g>
   <g id="patch_76">
    <path d="M 368.534224 58.177009 
Q 366.7492 52.648405 364.829308 49.87148 
Q 362.909416 47.119801 360.86259 47.119801 
Q 356.237396 47.119801 353.53606 63.579389 
Q 350.834725 80.038978 350.834725 108.186895 
Q 350.834725 136.662993 353.583661 152.996358 
Q 356.336563 169.329723 361.124393 169.329723 
Q 362.968917 169.329723 364.658739 167.108184 
Q 366.352528 164.911889 367.851948 160.569789 
L 367.851948 136.208588 
Q 366.304928 141.787681 364.773774 144.539361 
Q 363.242621 147.316286 361.703534 147.316286 
Q 358.85543 147.316286 357.312376 137.167889 
Q 355.769323 127.044737 355.769323 108.186895 
Q 355.769323 89.505766 357.256842 79.30688 
Q 358.744362 69.133238 361.481398 69.133238 
Q 362.227141 69.133238 362.865783 69.713868 
Q 363.504424 70.319743 364.012164 71.581981 
L 364.012164 94.453741 
L 361.096626 94.453741 
L 361.096626 114.826269 
L 368.534224 114.826269 
L 368.534224 58.177009 
z
" clip-path="url(#p617f78f733)" style="fill: #ffa600"/>
   </g>
   <g id="patch_77">
    <path d="M 350.834725 43.549103 
L 368.534224 43.549103 
L 368.534224 43.261155 
L 362.16652 43.261155 
L 362.16652 42.072656 
L 357.214777 42.072656 
L 357.214777 43.261155 
L 350.834725 43.261155 
L 350.834725 43.549103 
z
" clip-path="url(#p617f78f733)" style="fill: #ff0000"/>
   </g>
   <g id="patch_78">
    <path d="M 381.726235 42.098891 
L 374.919292 42.098891 
L 373.844512 42.072656 
L 369.465776 42.072656 
L 375.719044 42.216675 
L 380.912007 42.216675 
L 387.165275 42.072656 
L 382.790159 42.072656 
L 381.726235 42.098891 
z
M 376.004929 42.125621 
L 380.629742 42.125621 
L 378.320954 42.182908 
L 376.004929 42.125621 
z
" clip-path="url(#p617f78f733)" style="fill: #008000"/>
   </g>
   <g id="patch_79">
    <path d="M 387.165275 55.715672 
Q 385.684743 50.490442 384.083806 47.847448 
Q 382.482868 45.174074 380.739229 45.174074 
Q 375.539527 45.174074 372.502652 64.981342 
Q 369.465776 84.78861 369.465776 118.661468 
Q 369.465776 152.655844 372.502652 172.432732 
Q 375.539527 192.24 380.739229 192.24 
Q 382.482868 192.24 384.083806 189.566626 
Q 385.684743 186.923632 387.165275 181.698402 
L 387.165275 152.38243 
Q 385.671365 159.308898 384.222048 162.529098 
Q 382.772732 165.749298 381.171794 165.749298 
Q 378.299918 165.749298 376.654386 153.20267 
Q 375.013314 140.686421 375.013314 118.661468 
Q 375.013314 96.727653 376.654386 84.181025 
Q 378.299918 71.664776 381.171794 71.664776 
Q 382.772732 71.664776 384.222048 74.884976 
Q 385.671365 78.135555 387.165275 85.062023 
L 387.165275 55.715672 
z
" clip-path="url(#p617f78f733)" style="fill: #0000ff"/>
   </g>
   <g id="patch_80">
    <path d="M 387.165275 43.693465 
Q 385.380252 43.619821 383.46036 43.582831 
Q 381.540468 43.546177 379.493641 43.546177 
Q 374.868447 43.546177 372.167112 43.765427 
Q 369.465776 43.984677 369.465776 44.359621 
Q 369.465776 44.738937 372.214712 44.956505 
Q 374.967615 45.174074 379.755445 45.174074 
Q 381.599969 45.174074 383.289791 45.144482 
Q 384.98358 45.115226 386.483 45.057387 
L 386.483 44.732884 
Q 384.93598 44.8072 383.404826 44.843854 
Q 381.873673 44.880844 380.334586 44.880844 
Q 377.486482 44.880844 375.943428 44.745662 
Q 374.400374 44.610817 374.400374 44.359621 
Q 374.400374 44.110779 375.887894 43.974925 
Q 377.375414 43.839407 380.112449 43.839407 
Q 380.858193 43.839407 381.496834 43.847141 
Q 382.135476 43.855212 382.643216 43.872025 
L 382.643216 44.176689 
L 379.727678 44.176689 
L 379.727678 44.448061 
L 387.165275 44.448061 
L 387.165275 43.693465 
z
" clip-path="url(#p617f78f733)" style="fill: #ffa600"/>
   </g>
   <g id="patch_81">
    <path d="M 369.465776 43.546177 
L 387.165275 43.546177 
L 387.165275 43.286887 
L 380.797572 43.286887 
L 380.797572 42.216675 
L 375.845828 42.216675 
L 375.845828 43.286887 
L 369.465776 43.286887 
L 369.465776 43.546177 
z
" clip-path="url(#p617f78f733)" style="fill: #ff0000"/>
   </g>
   <g id="patch_82">
    <path d="M 400.357287 61.784389 
L 393.550344 61.784389 
L 392.475563 58.451299 
L 388.096828 58.451299 
L 394.350096 76.748 
L 399.543059 76.748 
L 405.796327 58.451299 
L 401.421211 58.451299 
L 400.357287 61.784389 
z
M 394.635981 65.180219 
L 399.260793 65.180219 
L 396.952006 72.458117 
L 394.635981 65.180219 
z
" clip-path="url(#p617f78f733)" style="fill: #008000"/>
   </g>
   <g id="patch_83">
    <path d="M 405.796327 79.573673 
Q 404.315795 78.173051 402.714857 77.464597 
Q 401.11392 76.748 399.370281 76.748 
Q 394.170579 76.748 391.133704 82.057334 
Q 388.096828 87.366668 388.096828 96.446282 
Q 388.096828 105.558467 391.133704 110.859659 
Q 394.170579 116.168993 399.370281 116.168993 
Q 401.11392 116.168993 402.714857 115.452396 
Q 404.315795 114.743942 405.796327 113.34332 
L 405.796327 105.485179 
Q 404.302416 107.341817 402.8531 108.204991 
Q 401.403783 109.068165 399.802846 109.068165 
Q 396.93097 109.068165 395.285438 105.705044 
Q 393.644366 102.350066 393.644366 96.446282 
Q 393.644366 90.566927 395.285438 87.203805 
Q 396.93097 83.848827 399.802846 83.848827 
Q 401.403783 83.848827 402.8531 84.712001 
Q 404.302416 85.583318 405.796327 87.439957 
L 405.796327 79.573673 
z
" clip-path="url(#p617f78f733)" style="fill: #0000ff"/>
   </g>
   <g id="patch_84">
    <path d="M 405.796327 50.573873 
Q 404.011304 50.182059 402.091412 49.985257 
Q 400.17152 49.790245 398.124693 49.790245 
Q 393.499499 49.790245 390.798164 50.956741 
Q 388.096828 52.123237 388.096828 54.118088 
Q 388.096828 56.136198 390.845764 57.293749 
Q 393.598667 58.451299 398.386497 58.451299 
Q 400.231021 58.451299 401.920843 58.293858 
Q 403.614632 58.138206 405.114052 57.83048 
L 405.114052 56.103994 
Q 403.567031 56.499386 402.035878 56.694399 
Q 400.504724 56.8912 398.965637 56.8912 
Q 396.117533 56.8912 394.57448 56.17198 
Q 393.031426 55.454549 393.031426 54.118088 
Q 393.031426 52.794151 394.518946 52.071353 
Q 396.006465 51.350344 398.743501 51.350344 
Q 399.489244 51.350344 400.127886 51.391493 
Q 400.766528 51.434432 401.274268 51.523887 
L 401.274268 53.144816 
L 398.35873 53.144816 
L 398.35873 54.588623 
L 405.796327 54.588623 
L 405.796327 50.573873 
z
" clip-path="url(#p617f78f733)" style="fill: #ffa600"/>
   </g>
   <g id="patch_85">
    <path d="M 388.096828 49.790245 
L 405.796327 49.790245 
L 405.796327 48.2851 
L 399.428624 48.2851 
L 399.428624 42.072656 
L 394.47688 42.072656 
L 394.47688 48.2851 
L 388.096828 48.2851 
L 388.096828 49.790245 
z
" clip-path="url(#p617f78f733)" style="fill: #ff0000"/>
   </g>
   <g id="patch_86">
    <path d="M 418.988338 42.1191 
L 412.181395 42.1191 
L 411.106615 42.072656 
L 406.72788 42.072656 
L 412.981148 42.327607 
L 418.174111 42.327607 
L 424.427379 42.072656 
L 420.052263 42.072656 
L 418.988338 42.1191 
z
M 413.267032 42.166418 
L 417.891845 42.166418 
L 415.583058 42.267831 
L 413.267032 42.166418 
z
" clip-path="url(#p617f78f733)" style="fill: #008000"/>
   </g>
   <g id="patch_87">
    <path d="M 424.427379 42.399561 
Q 422.946846 42.363895 421.345909 42.345855 
Q 419.744972 42.327607 418.001333 42.327607 
Q 412.801631 42.327607 409.764755 42.462806 
Q 406.72788 42.598004 406.72788 42.829209 
Q 406.72788 43.061244 409.764755 43.196234 
Q 412.801631 43.331433 418.001333 43.331433 
Q 419.744972 43.331433 421.345909 43.313185 
Q 422.946846 43.295145 424.427379 43.259479 
L 424.427379 43.059377 
Q 422.933468 43.106655 421.484152 43.128635 
Q 420.034835 43.150615 418.433898 43.150615 
Q 415.562021 43.150615 413.91649 43.064976 
Q 412.275417 42.979544 412.275417 42.829209 
Q 412.275417 42.679496 413.91649 42.593856 
Q 415.562021 42.508425 418.433898 42.508425 
Q 420.034835 42.508425 421.484152 42.530405 
Q 422.933468 42.552592 424.427379 42.59987 
L 424.427379 42.399561 
z
" clip-path="url(#p617f78f733)" style="fill: #0000ff"/>
   </g>
   <g id="patch_88">
    <path d="M 424.427379 53.407936 
Q 422.642356 49.1024 420.722464 46.939802 
Q 418.802572 44.796864 416.755745 44.796864 
Q 412.130551 44.796864 409.429215 57.615172 
Q 406.72788 70.433481 406.72788 92.35436 
Q 406.72788 114.53082 409.476816 127.250828 
Q 412.229719 139.970836 417.017548 139.970836 
Q 418.862073 139.970836 420.551895 138.240758 
Q 422.245684 136.530339 423.745103 133.148822 
L 423.745103 114.17694 
Q 422.198083 118.521796 420.66693 120.664734 
Q 419.135776 122.827332 417.596689 122.827332 
Q 414.748585 122.827332 413.205532 114.924019 
Q 411.662478 107.040367 411.662478 92.35436 
Q 411.662478 77.805974 413.149997 69.863341 
Q 414.637517 61.940368 417.374553 61.940368 
Q 418.120296 61.940368 418.758938 62.392548 
Q 419.39758 62.864388 419.90532 63.847387 
L 419.90532 81.65933 
L 416.989781 81.65933 
L 416.989781 97.524935 
L 424.427379 97.524935 
L 424.427379 53.407936 
z
" clip-path="url(#p617f78f733)" style="fill: #ffa600"/>
   </g>
   <g id="patch_89">
    <path d="M 406.72788 44.796864 
L 424.427379 44.796864 
L 424.427379 44.511064 
L 418.059675 44.511064 
L 418.059675 43.331433 
L 413.107932 43.331433 
L 413.107932 44.511064 
L 406.72788 44.511064 
L 406.72788 44.796864 
z
" clip-path="url(#p617f78f733)" style="fill: #ff0000"/>
   </g>
   <g id="patch_90">
    <path d="M 437.61939 42.263586 
L 430.812447 42.263586 
L 429.737667 42.072656 
L 425.358932 42.072656 
L 431.6122 43.12075 
L 436.805163 43.12075 
L 443.058431 42.072656 
L 438.683314 42.072656 
L 437.61939 42.263586 
z
M 431.898084 42.45811 
L 436.522897 42.45811 
L 434.214109 42.875012 
L 431.898084 42.45811 
z
" clip-path="url(#p617f78f733)" style="fill: #008000"/>
   </g>
   <g id="patch_91">
    <path d="M 443.058431 58.123733 
Q 441.577898 53.644148 439.976961 51.378312 
Q 438.376024 49.086431 436.632384 49.086431 
Q 431.432683 49.086431 428.395807 66.067184 
Q 425.358932 83.047937 425.358932 112.087108 
Q 425.358932 141.230455 428.395807 158.185164 
Q 431.432683 175.165917 436.632384 175.165917 
Q 438.376024 175.165917 439.976961 172.874036 
Q 441.577898 170.608199 443.058431 166.128614 
L 443.058431 140.996058 
Q 441.56452 146.934113 440.115203 149.694787 
Q 438.665887 152.455462 437.06495 152.455462 
Q 434.193073 152.455462 432.547541 141.699249 
Q 430.906469 130.96908 430.906469 112.087108 
Q 430.906469 93.283268 432.547541 82.527055 
Q 434.193073 71.796886 437.06495 71.796886 
Q 438.665887 71.796886 440.115203 74.55756 
Q 441.56452 77.344279 443.058431 83.282334 
L 443.058431 58.123733 
z
" clip-path="url(#p617f78f733)" style="fill: #0000ff"/>
   </g>
   <g id="patch_92">
    <path d="M 443.058431 43.32406 
Q 441.273407 43.222405 439.353515 43.171346 
Q 437.433623 43.12075 435.386797 43.12075 
Q 430.761603 43.12075 428.060267 43.423394 
Q 425.358932 43.726038 425.358932 44.243597 
Q 425.358932 44.76719 428.107868 45.067513 
Q 430.86077 45.367836 435.6486 45.367836 
Q 437.493124 45.367836 439.182946 45.326988 
Q 440.876735 45.286605 442.376155 45.206766 
L 442.376155 44.758835 
Q 440.829135 44.861418 439.297981 44.912013 
Q 437.766828 44.963073 436.227741 44.963073 
Q 433.379637 44.963073 431.836583 44.776473 
Q 430.29353 44.590338 430.29353 44.243597 
Q 430.29353 43.900105 431.781049 43.712577 
Q 433.268569 43.525514 436.005605 43.525514 
Q 436.751348 43.525514 437.38999 43.53619 
Q 438.028631 43.54733 438.536371 43.570539 
L 438.536371 43.991084 
L 435.620833 43.991084 
L 435.620833 44.365676 
L 443.058431 44.365676 
L 443.058431 43.32406 
z
" clip-path="url(#p617f78f733)" style="fill: #ffa600"/>
   </g>
   <g id="patch_93">
    <path d="M 425.358932 49.086431 
L 443.058431 49.086431 
L 443.058431 48.361201 
L 436.690727 48.361201 
L 436.690727 45.367836 
L 431.738984 45.367836 
L 431.738984 48.361201 
L 425.358932 48.361201 
L 425.358932 49.086431 
z
" clip-path="url(#p617f78f733)" style="fill: #ff0000"/>
   </g>
   <g id="patch_94">
    <path d="M 456.250442 50.322961 
L 449.443499 50.322961 
L 448.368719 48.969885 
L 443.989983 48.969885 
L 450.243251 56.397474 
L 455.436214 56.397474 
L 461.689482 48.969885 
L 457.314366 48.969885 
L 456.250442 50.322961 
z
M 450.529136 51.701506 
L 455.153949 51.701506 
L 452.845161 54.655986 
L 450.529136 51.701506 
z
" clip-path="url(#p617f78f733)" style="fill: #008000"/>
   </g>
   <g id="patch_95">
    <path d="M 461.689482 61.567798 
Q 460.20895 59.004986 458.608013 57.70868 
Q 457.007075 56.397474 455.263436 56.397474 
Q 450.063734 56.397474 447.026859 66.112318 
Q 443.989983 75.827163 443.989983 92.440739 
Q 443.989983 109.113915 447.026859 118.813859 
Q 450.063734 128.528704 455.263436 128.528704 
Q 457.007075 128.528704 458.608013 127.217498 
Q 460.20895 125.921192 461.689482 123.35838 
L 461.689482 108.979814 
Q 460.195572 112.37703 458.746255 113.956437 
Q 457.296939 115.535844 455.696001 115.535844 
Q 452.824125 115.535844 451.178593 109.382116 
Q 449.537521 103.243288 449.537521 92.440739 
Q 449.537521 81.68289 451.178593 75.529161 
Q 452.824125 69.390333 455.696001 69.390333 
Q 457.296939 69.390333 458.746255 70.969741 
Q 460.195572 72.564048 461.689482 75.961263 
L 461.689482 61.567798 
z
" clip-path="url(#p617f78f733)" style="fill: #0000ff"/>
   </g>
   <g id="patch_96">
    <path d="M 461.689482 44.972727 
Q 459.904459 44.773914 457.984567 44.674053 
Q 456.064675 44.5751 454.017848 44.5751 
Q 449.392654 44.5751 446.691319 45.167002 
Q 443.989983 45.758905 443.989983 46.771131 
Q 443.989983 47.795159 446.738919 48.382522 
Q 449.491822 48.969885 454.279652 48.969885 
Q 456.124176 48.969885 457.813998 48.889997 
Q 459.507787 48.811016 461.007207 48.65487 
L 461.007207 47.778818 
Q 459.460187 47.979447 457.929033 48.0784 
Q 456.39788 48.178261 454.858793 48.178261 
Q 452.010689 48.178261 450.467635 47.813315 
Q 448.924581 47.449277 448.924581 46.771131 
Q 448.924581 46.099339 450.412101 45.732578 
Q 451.899621 45.366724 454.636656 45.366724 
Q 455.3824 45.366724 456.021041 45.387604 
Q 456.659683 45.409392 457.167423 45.454783 
L 457.167423 46.277273 
L 454.251885 46.277273 
L 454.251885 47.009889 
L 461.689482 47.009889 
L 461.689482 44.972727 
z
" clip-path="url(#p617f78f733)" style="fill: #ffa600"/>
   </g>
   <g id="patch_97">
    <path d="M 443.989983 44.5751 
L 461.689482 44.5751 
L 461.689482 44.087053 
L 455.321779 44.087053 
L 455.321779 42.072656 
L 450.370035 42.072656 
L 450.370035 44.087053 
L 443.989983 44.087053 
L 443.989983 44.5751 
z
" clip-path="url(#p617f78f733)" style="fill: #ff0000"/>
   </g>
   <g id="patch_98">
    <path d="M 480.320534 42.132431 
Q 478.840002 42.102802 477.239064 42.087815 
Q 475.638127 42.072656 473.894488 42.072656 
Q 468.694786 42.072656 465.657911 42.184971 
Q 462.621035 42.297287 462.621035 42.48936 
Q 462.621035 42.682123 465.657911 42.794266 
Q 468.694786 42.906581 473.894488 42.906581 
Q 475.638127 42.906581 477.239064 42.891422 
Q 478.840002 42.876435 480.320534 42.846806 
L 480.320534 42.680572 
Q 478.826623 42.719848 477.377307 42.738108 
Q 475.92799 42.756368 474.327053 42.756368 
Q 471.455177 42.756368 469.809645 42.685223 
Q 468.168573 42.614251 468.168573 42.48936 
Q 468.168573 42.364986 469.809645 42.293842 
Q 471.455177 42.222869 474.327053 42.222869 
Q 475.92799 42.222869 477.377307 42.241129 
Q 478.826623 42.259561 480.320534 42.298837 
L 480.320534 42.132431 
z
" clip-path="url(#p617f78f733)" style="fill: #0000ff"/>
   </g>
   <g id="patch_99">
    <path d="M 480.320534 52.16113 
Q 478.535511 47.533856 476.615619 45.209654 
Q 474.695727 42.906581 472.6489 42.906581 
Q 468.023706 42.906581 465.322371 56.682759 
Q 462.621035 70.458937 462.621035 94.017892 
Q 462.621035 117.851525 465.369971 131.522058 
Q 468.122874 145.19259 472.910704 145.19259 
Q 474.755228 145.19259 476.44505 143.333229 
Q 478.138839 141.494996 479.638259 137.86079 
L 479.638259 117.471201 
Q 478.091238 122.140734 476.560085 124.443807 
Q 475.028931 126.768008 473.489844 126.768008 
Q 470.64174 126.768008 469.098687 118.274107 
Q 467.555633 109.801335 467.555633 94.017892 
Q 467.555633 78.382353 469.043153 69.846193 
Q 470.530672 61.331163 473.267708 61.331163 
Q 474.013451 61.331163 474.652093 61.817133 
Q 475.290735 62.324231 475.798475 63.380686 
L 475.798475 82.523658 
L 472.882937 82.523658 
L 472.882937 99.574847 
L 480.320534 99.574847 
L 480.320534 52.16113 
z
" clip-path="url(#p617f78f733)" style="fill: #ffa600"/>
   </g>
   <g id="patch_100">
    <path d="M 493.512545 42.461091 
L 486.705603 42.461091 
L 485.630822 42.072656 
L 481.252087 42.072656 
L 487.505355 44.204939 
L 492.698318 44.204939 
L 498.951586 42.072656 
L 494.57647 42.072656 
L 493.512545 42.461091 
z
M 487.791239 42.856839 
L 492.416052 42.856839 
L 490.107265 43.705 
L 487.791239 42.856839 
z
" clip-path="url(#p617f78f733)" style="fill: #008000"/>
   </g>
   <g id="patch_101">
    <path d="M 498.951586 59.251071 
Q 497.471053 56.145607 495.870116 54.574819 
Q 494.269179 52.985977 492.52554 52.985977 
Q 487.325838 52.985977 484.288962 64.757855 
Q 481.252087 76.529733 481.252087 96.66109 
Q 481.252087 116.864666 484.288962 128.618489 
Q 487.325838 140.390367 492.52554 140.390367 
Q 494.269179 140.390367 495.870116 138.801525 
Q 497.471053 137.230738 498.951586 134.125273 
L 498.951586 116.702171 
Q 497.457675 120.818717 496.008359 122.73255 
Q 494.559042 124.646383 492.958105 124.646383 
Q 490.086228 124.646383 488.440697 117.189656 
Q 486.799624 109.750985 486.799624 96.66109 
Q 486.799624 83.625359 488.440697 76.168633 
Q 490.086228 68.729961 492.958105 68.729961 
Q 494.559042 68.729961 496.008359 70.643794 
Q 497.457675 72.575682 498.951586 76.692229 
L 498.951586 59.251071 
z
" clip-path="url(#p617f78f733)" style="fill: #0000ff"/>
   </g>
   <g id="patch_102">
    <path d="M 498.951586 47.582599 
Q 497.166563 47.313842 495.246671 47.178849 
Q 493.326779 47.045084 491.279952 47.045084 
Q 486.654758 47.045084 483.953422 47.845221 
Q 481.252087 48.645358 481.252087 50.01369 
Q 481.252087 51.397975 484.001023 52.191976 
Q 486.753926 52.985977 491.541755 52.985977 
Q 493.38628 52.985977 495.076102 52.877983 
Q 496.769891 52.771216 498.26931 52.560137 
L 498.26931 51.375886 
Q 496.72229 51.647098 495.191137 51.780863 
Q 493.659983 51.915855 492.120896 51.915855 
Q 489.272792 51.915855 487.729739 51.422519 
Q 486.186685 50.930411 486.186685 50.01369 
Q 486.186685 49.105559 487.674205 48.609769 
Q 489.161724 48.115206 491.89876 48.115206 
Q 492.644503 48.115206 493.283145 48.143431 
Q 493.921787 48.172884 494.429527 48.234244 
L 494.429527 49.346091 
L 491.513988 49.346091 
L 491.513988 50.336444 
L 498.951586 50.336444 
L 498.951586 47.582599 
z
" clip-path="url(#p617f78f733)" style="fill: #ffa600"/>
   </g>
   <g id="patch_103">
    <path d="M 481.252087 47.045084 
L 498.951586 47.045084 
L 498.951586 46.491177 
L 492.583882 46.491177 
L 492.583882 44.204939 
L 487.632139 44.204939 
L 487.632139 46.491177 
L 481.252087 46.491177 
L 481.252087 47.045084 
z
" clip-path="url(#p617f78f733)" style="fill: #ff0000"/>
   </g>
   <g id="patch_104">
    <path d="M 512.143597 42.585015 
L 505.336654 42.585015 
L 504.261874 42.072656 
L 499.883139 42.072656 
L 506.136407 44.885208 
L 511.32937 44.885208 
L 517.582638 42.072656 
L 513.207521 42.072656 
L 512.143597 42.585015 
z
M 506.422291 43.107019 
L 511.047104 43.107019 
L 508.738316 44.225771 
L 506.422291 43.107019 
z
" clip-path="url(#p617f78f733)" style="fill: #008000"/>
   </g>
   <g id="patch_105">
    <path d="M 517.582638 53.356837 
Q 516.102105 50.782853 514.501168 49.480897 
Q 512.900231 48.163975 511.156591 48.163975 
Q 505.95689 48.163975 502.920014 57.921168 
Q 499.883139 67.678362 499.883139 84.36436 
Q 499.883139 101.110219 502.920014 110.852447 
Q 505.95689 120.609641 511.156591 120.609641 
Q 512.900231 120.609641 514.501168 119.292719 
Q 516.102105 117.990762 517.582638 115.416779 
L 517.582638 100.975533 
Q 516.088727 104.387558 514.63941 105.97385 
Q 513.190094 107.560143 511.589157 107.560143 
Q 508.71728 107.560143 507.071748 101.379589 
Q 505.430676 95.214 505.430676 84.36436 
Q 505.430676 73.559615 507.071748 67.379062 
Q 508.71728 61.213473 511.589157 61.213473 
Q 513.190094 61.213473 514.63941 62.799765 
Q 516.088727 64.401022 517.582638 67.813047 
L 517.582638 53.356837 
z
" clip-path="url(#p617f78f733)" style="fill: #0000ff"/>
   </g>
   <g id="patch_106">
    <path d="M 517.582638 45.181861 
Q 515.797614 45.033535 513.877722 44.959033 
Q 511.957831 44.885208 509.911004 44.885208 
Q 505.28581 44.885208 502.584474 45.326802 
Q 499.883139 45.768396 499.883139 46.523575 
Q 499.883139 47.28756 502.632075 47.725767 
Q 505.384978 48.163975 510.172807 48.163975 
Q 512.017331 48.163975 513.707153 48.104373 
Q 515.400942 48.045449 516.900362 47.928955 
L 516.900362 47.275369 
Q 515.353342 47.42505 513.822188 47.498875 
Q 512.291035 47.573377 510.751948 47.573377 
Q 507.903844 47.573377 506.36079 47.301106 
Q 504.817737 47.029512 504.817737 46.523575 
Q 504.817737 46.02238 506.305256 45.748754 
Q 507.792776 45.475806 510.529812 45.475806 
Q 511.275555 45.475806 511.914197 45.491384 
Q 512.552838 45.507639 513.060578 45.541503 
L 513.060578 46.155129 
L 510.14504 46.155129 
L 510.14504 46.701703 
L 517.582638 46.701703 
L 517.582638 45.181861 
z
" clip-path="url(#p617f78f733)" style="fill: #ffa600"/>
   </g>
   <g id="patch_107">
    <path d="M 530.774649 42.322864 
L 523.967706 42.322864 
L 522.892926 42.072656 
L 518.51419 42.072656 
L 524.767458 43.446153 
L 529.960421 43.446153 
L 536.213689 42.072656 
L 531.838573 42.072656 
L 530.774649 42.322864 
z
M 525.053343 42.577782 
L 529.678156 42.577782 
L 527.369368 43.12412 
L 525.053343 42.577782 
z
" clip-path="url(#p617f78f733)" style="fill: #008000"/>
   </g>
   <g id="patch_108">
    <path d="M 536.213689 44.161599 
Q 534.733157 43.806968 533.13222 43.627591 
Q 531.531282 43.446153 529.787643 43.446153 
Q 524.587941 43.446153 521.551066 44.790449 
Q 518.51419 46.134745 518.51419 48.433657 
Q 518.51419 50.740815 521.551066 52.08305 
Q 524.587941 53.427346 529.787643 53.427346 
Q 531.531282 53.427346 533.13222 53.245907 
Q 534.733157 53.06653 536.213689 52.7119 
L 536.213689 50.722259 
Q 534.719779 51.19235 533.270462 51.410902 
Q 531.821146 51.629453 530.220208 51.629453 
Q 527.348332 51.629453 525.7028 50.777928 
Q 524.061728 49.928465 524.061728 48.433657 
Q 524.061728 46.945034 525.7028 46.093509 
Q 527.348332 45.244046 530.220208 45.244046 
Q 531.821146 45.244046 533.270462 45.462597 
Q 534.719779 45.68321 536.213689 46.153301 
L 536.213689 44.161599 
z
" clip-path="url(#p617f78f733)" style="fill: #0000ff"/>
   </g>
   <g id="patch_109">
    <path d="M 536.213689 58.011435 
Q 534.428666 55.71939 532.508774 54.568135 
Q 530.588882 53.427346 528.542055 53.427346 
Q 523.916861 53.427346 521.215526 60.25115 
Q 518.51419 67.074953 518.51419 78.744494 
Q 518.51419 90.550093 521.263126 97.321567 
Q 524.016029 104.093041 528.803859 104.093041 
Q 530.648383 104.093041 532.338205 103.172037 
Q 534.031994 102.261498 535.531414 100.461354 
L 535.531414 90.361706 
Q 533.984394 92.674682 532.45324 93.815472 
Q 530.922087 94.966727 529.383 94.966727 
Q 526.534896 94.966727 524.991842 90.759412 
Q 523.448788 86.562564 523.448788 78.744494 
Q 523.448788 70.999687 524.936308 66.77144 
Q 526.423828 62.55366 529.160864 62.55366 
Q 529.906607 62.55366 530.545248 62.794377 
Q 531.18389 63.04556 531.69163 63.568858 
L 531.69163 73.051014 
L 528.776092 73.051014 
L 528.776092 81.497041 
L 536.213689 81.497041 
L 536.213689 58.011435 
z
" clip-path="url(#p617f78f733)" style="fill: #ffa600"/>
   </g>
   <g id="patch_110">
    <path d="M 549.405701 42.169578 
L 542.598758 42.169578 
L 541.523977 42.072656 
L 537.145242 42.072656 
L 543.39851 42.6047 
L 548.591473 42.6047 
L 554.844741 42.072656 
L 550.469625 42.072656 
L 549.405701 42.169578 
z
M 543.684395 42.268324 
L 548.309208 42.268324 
L 546.00042 42.479956 
L 543.684395 42.268324 
z
" clip-path="url(#p617f78f733)" style="fill: #008000"/>
   </g>
   <g id="patch_111">
    <path d="M 554.844741 61.452453 
Q 553.364209 60.380812 551.763271 59.838761 
Q 550.162334 59.29048 548.418695 59.29048 
Q 543.218993 59.29048 540.182118 63.352746 
Q 537.145242 67.415012 537.145242 74.361985 
Q 537.145242 81.33388 540.182118 85.389915 
Q 543.218993 89.452181 548.418695 89.452181 
Q 550.162334 89.452181 551.763271 88.903899 
Q 553.364209 88.361849 554.844741 87.290208 
L 554.844741 81.277805 
Q 553.35083 82.698352 551.901514 83.358782 
Q 550.452197 84.019212 548.85126 84.019212 
Q 545.979384 84.019212 544.333852 81.446028 
Q 542.69278 78.879075 542.69278 74.361985 
Q 542.69278 69.863586 544.333852 67.290402 
Q 545.979384 64.723449 548.85126 64.723449 
Q 550.452197 64.723449 551.901514 65.383879 
Q 553.35083 66.050539 554.844741 67.471086 
L 554.844741 61.452453 
z
" clip-path="url(#p617f78f733)" style="fill: #0000ff"/>
   </g>
   <g id="patch_112">
    <path d="M 554.844741 45.018107 
Q 553.059718 44.308216 551.139826 43.95165 
Q 549.219934 43.598325 547.173107 43.598325 
Q 542.547913 43.598325 539.846578 45.71179 
Q 537.145242 47.825255 537.145242 51.43954 
Q 537.145242 55.095965 539.894178 57.193223 
Q 542.647081 59.29048 547.434911 59.29048 
Q 549.279435 59.29048 550.969257 59.005227 
Q 552.663046 58.723216 554.162466 58.165676 
L 554.162466 55.037618 
Q 552.615445 55.753992 551.084292 56.107316 
Q 549.553138 56.463883 548.014052 56.463883 
Q 545.165947 56.463883 543.622894 55.160795 
Q 542.07984 53.860949 542.07984 51.43954 
Q 542.07984 49.040822 543.56736 47.731252 
Q 545.054879 46.424923 547.791915 46.424923 
Q 548.537658 46.424923 549.1763 46.499477 
Q 549.814942 46.577274 550.322682 46.739349 
L 550.322682 49.676158 
L 547.407144 49.676158 
L 547.407144 52.292058 
L 554.844741 52.292058 
L 554.844741 45.018107 
z
" clip-path="url(#p617f78f733)" style="fill: #ffa600"/>
   </g>
   <g id="patch_113">
    <path d="M 537.145242 43.598325 
L 554.844741 43.598325 
L 554.844741 43.40454 
L 548.477038 43.40454 
L 548.477038 42.6047 
L 543.525294 42.6047 
L 543.525294 43.40454 
L 537.145242 43.40454 
L 537.145242 43.598325 
z
" clip-path="url(#p617f78f733)" style="fill: #ff0000"/>
   </g>
   <g id="patch_114">
    <path d="M 573.475793 49.715457 
Q 571.99526 48.050186 570.394323 47.207869 
Q 568.793386 46.35587 567.049747 46.35587 
Q 561.850045 46.35587 558.813169 52.668408 
Q 555.776294 58.980946 555.776294 69.77616 
Q 555.776294 80.610102 558.813169 86.912958 
Q 561.850045 93.225496 567.049747 93.225496 
Q 568.793386 93.225496 570.394323 92.373497 
Q 571.99526 91.53118 573.475793 89.865909 
L 573.475793 80.522966 
Q 571.981882 82.730418 570.532566 83.756689 
Q 569.083249 84.782961 567.482312 84.782961 
Q 564.610435 84.782961 562.964904 80.784375 
Q 561.323831 76.79547 561.323831 69.77616 
Q 561.323831 62.785896 562.964904 58.78731 
Q 564.610435 54.798405 567.482312 54.798405 
Q 569.083249 54.798405 570.532566 55.824677 
Q 571.981882 56.86063 573.475793 59.068082 
L 573.475793 49.715457 
z
" clip-path="url(#p617f78f733)" style="fill: #0000ff"/>
   </g>
   <g id="patch_115">
    <path d="M 573.475793 42.460189 
Q 571.69077 42.266422 569.770878 42.169097 
Q 567.850986 42.072656 565.804159 42.072656 
Q 561.178965 42.072656 558.477629 42.649532 
Q 555.776294 43.226407 555.776294 44.212936 
Q 555.776294 45.210966 558.52523 45.783418 
Q 561.278133 46.35587 566.065962 46.35587 
Q 567.910487 46.35587 569.600309 46.278009 
Q 571.294098 46.201034 572.793517 46.048852 
L 572.793517 45.19504 
Q 571.246497 45.390576 569.715344 45.487017 
Q 568.18419 45.584343 566.645103 45.584343 
Q 563.796999 45.584343 562.253946 45.228662 
Q 560.710892 44.873865 560.710892 44.212936 
Q 560.710892 43.558199 562.198412 43.200749 
Q 563.685931 42.844183 566.422967 42.844183 
Q 567.16871 42.844183 567.807352 42.864533 
Q 568.445994 42.885767 568.953734 42.930006 
L 568.953734 43.731616 
L 566.038195 43.731616 
L 566.038195 44.445633 
L 573.475793 44.445633 
L 573.475793 42.460189 
z
" clip-path="url(#p617f78f733)" style="fill: #ffa600"/>
   </g>
   <g id="patch_116">
    <path d="M 592.106845 51.468249 
Q 590.626312 51.009481 589.025375 50.777429 
Q 587.424438 50.542711 585.680798 50.542711 
Q 580.481097 50.542711 577.444221 52.281761 
Q 574.407346 54.020812 574.407346 56.994802 
Q 574.407346 59.97946 577.444221 61.715843 
Q 580.481097 63.454894 585.680798 63.454894 
Q 587.424438 63.454894 589.025375 63.220175 
Q 590.626312 62.988124 592.106845 62.529356 
L 592.106845 59.955455 
Q 590.612934 60.563589 589.163617 60.846318 
Q 587.714301 61.129047 586.113364 61.129047 
Q 583.241487 61.129047 581.595955 60.027471 
Q 579.954883 58.928562 579.954883 56.994802 
Q 579.954883 55.069043 581.595955 53.967467 
Q 583.241487 52.868558 586.113364 52.868558 
Q 587.714301 52.868558 589.163617 53.151287 
Q 590.612934 53.436683 592.106845 54.044817 
L 592.106845 51.468249 
z
" clip-path="url(#p617f78f733)" style="fill: #0000ff"/>
   </g>
   <g id="patch_117">
    <path d="M 592.106845 42.839002 
Q 590.321821 42.455829 588.401929 42.263368 
Q 586.482038 42.072656 584.435211 42.072656 
Q 579.810017 42.072656 577.108681 43.213427 
Q 574.407346 44.354199 574.407346 46.305059 
Q 574.407346 48.278664 577.156282 49.410688 
Q 579.909185 50.542711 584.697014 50.542711 
Q 586.541538 50.542711 588.23136 50.388742 
Q 589.925149 50.236522 591.424569 49.935583 
L 591.424569 48.24717 
Q 589.877549 48.633843 588.346395 48.824555 
Q 586.815242 49.017016 585.276155 49.017016 
Q 582.428051 49.017016 580.884997 48.313657 
Q 579.341944 47.612047 579.341944 46.305059 
Q 579.341944 45.010318 580.829463 44.303459 
Q 582.316983 43.59835 585.054019 43.59835 
Q 585.799762 43.59835 586.438404 43.638592 
Q 587.077045 43.680584 587.584785 43.768066 
L 587.584785 45.353249 
L 584.669247 45.353249 
L 584.669247 46.765217 
L 592.106845 46.765217 
L 592.106845 42.839002 
z
" clip-path="url(#p617f78f733)" style="fill: #ffa600"/>
   </g>
   <g id="patch_118">
    <path d="M 610.737896 48.740696 
Q 609.257364 47.68523 607.656427 47.151361 
Q 606.055489 46.611356 604.31185 46.611356 
Q 599.112148 46.611356 596.075273 50.612306 
Q 593.038397 54.613255 593.038397 61.45537 
Q 593.038397 68.322031 596.075273 72.316844 
Q 599.112148 76.317794 604.31185 76.317794 
Q 606.055489 76.317794 607.656427 75.777788 
Q 609.257364 75.243919 610.737896 74.188454 
L 610.737896 68.266803 
Q 609.243986 69.665908 607.794669 70.316369 
Q 606.345353 70.96683 604.744415 70.96683 
Q 601.872539 70.96683 600.227007 68.432486 
Q 598.585935 65.904279 598.585935 61.45537 
Q 598.585935 57.024871 600.227007 54.490527 
Q 601.872539 51.962319 604.744415 51.962319 
Q 606.345353 51.962319 607.794669 52.61278 
Q 609.243986 53.269378 610.737896 54.668483 
L 610.737896 48.740696 
z
" clip-path="url(#p617f78f733)" style="fill: #0000ff"/>
   </g>
   <g id="patch_119">
    <path d="M 610.737896 42.483304 
Q 608.952873 42.27798 607.032981 42.174849 
Q 605.113089 42.072656 603.066262 42.072656 
Q 598.441068 42.072656 595.739733 42.683941 
Q 593.038397 43.295226 593.038397 44.340599 
Q 593.038397 45.398161 595.787333 46.004758 
Q 598.540236 46.611356 603.328066 46.611356 
Q 605.17259 46.611356 606.862412 46.528851 
Q 608.556201 46.447284 610.055621 46.286025 
L 610.055621 45.381285 
Q 608.508601 45.588484 606.977447 45.690678 
Q 605.446294 45.793809 603.907207 45.793809 
Q 601.059103 45.793809 599.516049 45.416912 
Q 597.972995 45.040952 597.972995 44.340599 
Q 597.972995 43.646809 599.460515 43.268037 
Q 600.948035 42.890203 603.685071 42.890203 
Q 604.430814 42.890203 605.069455 42.911767 
Q 605.708097 42.934268 606.215837 42.981146 
L 606.215837 43.83057 
L 603.300299 43.83057 
L 603.300299 44.587176 
L 610.737896 44.587176 
L 610.737896 42.483304 
z
" clip-path="url(#p617f78f733)" style="fill: #ffa600"/>
   </g>
   <g id="patch_120">
    <path d="M 629.368948 43.672443 
Q 627.888416 42.879465 626.287478 42.478366 
Q 624.686541 42.072656 622.942902 42.072656 
Q 617.7432 42.072656 614.706325 45.078597 
Q 611.669449 48.084537 611.669449 53.225065 
Q 611.669449 58.384034 614.706325 61.385365 
Q 617.7432 64.391305 622.942902 64.391305 
Q 624.686541 64.391305 626.287478 63.985596 
Q 627.888416 63.584496 629.368948 62.791518 
L 629.368948 58.342541 
Q 627.875037 59.393698 626.425721 59.882394 
Q 624.976404 60.37109 623.375467 60.37109 
Q 620.503591 60.37109 618.858059 58.46702 
Q 617.216987 56.567561 617.216987 53.225065 
Q 617.216987 49.896401 618.858059 47.992331 
Q 620.503591 46.092871 623.375467 46.092871 
Q 624.976404 46.092871 626.425721 46.581567 
Q 627.875037 47.074873 629.368948 48.12603 
L 629.368948 43.672443 
z
" clip-path="url(#p617f78f733)" style="fill: #0000ff"/>
   </g>
   <g id="patch_121">
    <path d="M 648 46.898164 
Q 646.519467 46.023591 644.91853 45.58122 
Q 643.317593 45.133763 641.573954 45.133763 
Q 636.374252 45.133763 633.337376 48.449007 
Q 630.300501 51.76425 630.300501 57.433722 
Q 630.300501 63.123534 633.337376 66.433692 
Q 636.374252 69.748935 641.573954 69.748935 
Q 643.317593 69.748935 644.91853 69.301479 
Q 646.519467 68.859108 648 67.984534 
L 648 63.077771 
Q 646.506089 64.237089 645.056773 64.77607 
Q 643.607456 65.315052 642.006519 65.315052 
Q 639.134642 65.315052 637.489111 63.215059 
Q 635.848038 61.120151 635.848038 57.433722 
Q 635.848038 53.762548 637.489111 51.662555 
Q 639.134642 49.567647 642.006519 49.567647 
Q 643.607456 49.567647 645.056773 50.106628 
Q 646.506089 50.650694 648 51.810012 
L 648 46.898164 
z
" clip-path="url(#p617f78f733)" style="fill: #0000ff"/>
   </g>
   <g id="patch_122">
    <path d="M 648 42.349616 
Q 646.214977 42.211136 644.295085 42.14158 
Q 642.375193 42.072656 640.328366 42.072656 
Q 635.703172 42.072656 633.001836 42.484935 
Q 630.300501 42.897214 630.300501 43.602261 
Q 630.300501 44.315529 633.049437 44.724646 
Q 635.80234 45.133763 640.590169 45.133763 
Q 642.434694 45.133763 644.124516 45.078118 
Q 645.818305 45.023106 647.317724 44.914345 
L 647.317724 44.304147 
Q 645.770704 44.443892 644.239551 44.512816 
Q 642.708397 44.582372 641.16931 44.582372 
Q 638.321206 44.582372 636.778153 44.328176 
Q 635.235099 44.074611 635.235099 43.602261 
Q 635.235099 43.134337 636.722619 42.878876 
Q 638.210138 42.624047 640.947174 42.624047 
Q 641.692917 42.624047 642.331559 42.638591 
Q 642.970201 42.653767 643.477941 42.685383 
L 643.477941 43.258274 
L 640.562402 43.258274 
L 640.562402 43.768564 
L 648 43.768564 
L 648 42.349616 
z
" clip-path="url(#p617f78f733)" style="fill: #ffa600"/>
   </g>
   <g id="matplotlib.axis_1">
    <g id="xtick_1">
     <g id="line2d_2">
      <defs>
       <path id="me4c5b15fe6" d="M 0 0 
L 0 3.5 
" style="stroke: #000000; stroke-width: 0.8"/>
      </defs>
      <g>
       <use xlink:href="#me4c5b15fe6" x="98.84975" y="192.24" style="stroke: #000000; stroke-width: 0.8"/>
      </g>
     </g>
     <g id="text_1">
      <!-- 0 -->
      <g transform="translate(95.6685 206.838437) scale(0.1 -0.1)">
       <defs>
        <path id="DejaVuSans-30" d="M 2034 4250 
Q 1547 4250 1301 3770 
Q 1056 3291 1056 2328 
Q 1056 1369 1301 889 
Q 1547 409 2034 409 
Q 2525 409 2770 889 
Q 3016 1369 3016 2328 
Q 3016 3291 2770 3770 
Q 2525 4250 2034 4250 
z
M 2034 4750 
Q 2819 4750 3233 4129 
Q 3647 3509 3647 2328 
Q 3647 1150 3233 529 
Q 2819 -91 2034 -91 
Q 1250 -91 836 529 
Q 422 1150 422 2328 
Q 422 3509 836 4129 
Q 1250 4750 2034 4750 
z
" transform="scale(0.015625)"/>
       </defs>
       <use xlink:href="#DejaVuSans-30"/>
      </g>
     </g>
    </g>
    <g id="xtick_2">
     <g id="line2d_3">
      <g>
       <use xlink:href="#me4c5b15fe6" x="192.005008" y="192.24" style="stroke: #000000; stroke-width: 0.8"/>
      </g>
     </g>
     <g id="text_2">
      <!-- 5 -->
      <g transform="translate(188.823758 206.838437) scale(0.1 -0.1)">
       <defs>
        <path id="DejaVuSans-35" d="M 691 4666 
L 3169 4666 
L 3169 4134 
L 1269 4134 
L 1269 2991 
Q 1406 3038 1543 3061 
Q 1681 3084 1819 3084 
Q 2600 3084 3056 2656 
Q 3513 2228 3513 1497 
Q 3513 744 3044 326 
Q 2575 -91 1722 -91 
Q 1428 -91 1123 -41 
Q 819 9 494 109 
L 494 744 
Q 775 591 1075 516 
Q 1375 441 1709 441 
Q 2250 441 2565 725 
Q 2881 1009 2881 1497 
Q 2881 1984 2565 2268 
Q 2250 2553 1709 2553 
Q 1456 2553 1204 2497 
Q 953 2441 691 2322 
L 691 4666 
z
" transform="scale(0.015625)"/>
       </defs>
       <use xlink:href="#DejaVuSans-35"/>
      </g>
     </g>
    </g>
    <g id="xtick_3">
     <g id="line2d_4">
      <g>
       <use xlink:href="#me4c5b15fe6" x="285.160267" y="192.24" style="stroke: #000000; stroke-width: 0.8"/>
      </g>
     </g>
     <g id="text_3">
      <!-- 10 -->
      <g transform="translate(278.797767 206.838437) scale(0.1 -0.1)">
       <defs>
        <path id="DejaVuSans-31" d="M 794 531 
L 1825 531 
L 1825 4091 
L 703 3866 
L 703 4441 
L 1819 4666 
L 2450 4666 
L 2450 531 
L 3481 531 
L 3481 0 
L 794 0 
L 794 531 
z
" transform="scale(0.015625)"/>
       </defs>
       <use xlink:href="#DejaVuSans-31"/>
       <use xlink:href="#DejaVuSans-30" x="63.623047"/>
      </g>
     </g>
    </g>
    <g id="xtick_4">
     <g id="line2d_5">
      <g>
       <use xlink:href="#me4c5b15fe6" x="378.315526" y="192.24" style="stroke: #000000; stroke-width: 0.8"/>
      </g>
     </g>
     <g id="text_4">
      <!-- 15 -->
      <g transform="translate(371.953026 206.838437) scale(0.1 -0.1)">
       <use xlink:href="#DejaVuSans-31"/>
       <use xlink:href="#DejaVuSans-35" x="63.623047"/>
      </g>
     </g>
    </g>
    <g id="xtick_5">
     <g id="line2d_6">
      <g>
       <use xlink:href="#me4c5b15fe6" x="471.470785" y="192.24" style="stroke: #000000; stroke-width: 0.8"/>
      </g>
     </g>
     <g id="text_5">
      <!-- 20 -->
      <g transform="translate(465.108285 206.838437) scale(0.1 -0.1)">
       <defs>
        <path id="DejaVuSans-32" d="M 1228 531 
L 3431 531 
L 3431 0 
L 469 0 
L 469 531 
Q 828 903 1448 1529 
Q 2069 2156 2228 2338 
Q 2531 2678 2651 2914 
Q 2772 3150 2772 3378 
Q 2772 3750 2511 3984 
Q 2250 4219 1831 4219 
Q 1534 4219 1204 4116 
Q 875 4013 500 3803 
L 500 4441 
Q 881 4594 1212 4672 
Q 1544 4750 1819 4750 
Q 2544 4750 2975 4387 
Q 3406 4025 3406 3419 
Q 3406 3131 3298 2873 
Q 3191 2616 2906 2266 
Q 2828 2175 2409 1742 
Q 1991 1309 1228 531 
z
" transform="scale(0.015625)"/>
       </defs>
       <use xlink:href="#DejaVuSans-32"/>
       <use xlink:href="#DejaVuSans-30" x="63.623047"/>
      </g>
     </g>
    </g>
    <g id="xtick_6">
     <g id="line2d_7">
      <g>
       <use xlink:href="#me4c5b15fe6" x="564.626043" y="192.24" style="stroke: #000000; stroke-width: 0.8"/>
      </g>
     </g>
     <g id="text_6">
      <!-- 25 -->
      <g transform="translate(558.263543 206.838437) scale(0.1 -0.1)">
       <use xlink:href="#DejaVuSans-32"/>
       <use xlink:href="#DejaVuSans-35" x="63.623047"/>
      </g>
     </g>
    </g>
   </g>
   <g id="matplotlib.axis_2">
    <g id="ytick_1">
     <g id="line2d_8">
      <defs>
       <path id="m5b53e65671" d="M 0 0 
L -3.5 0 
" style="stroke: #000000; stroke-width: 0.8"/>
      </defs>
      <g>
       <use xlink:href="#m5b53e65671" x="90" y="163.28708" style="stroke: #000000; stroke-width: 0.8"/>
      </g>
     </g>
     <g id="text_7">
      <!-- 0.006 -->
      <g transform="translate(45.992188 167.086299) scale(0.1 -0.1)">
       <defs>
        <path id="DejaVuSans-2212" d="M 678 2272 
L 4684 2272 
L 4684 1741 
L 678 1741 
L 678 2272 
z
" transform="scale(0.015625)"/>
        <path id="DejaVuSans-2e" d="M 684 794 
L 1344 794 
L 1344 0 
L 684 0 
L 684 794 
z
" transform="scale(0.015625)"/>
        <path id="DejaVuSans-36" d="M 2113 2584 
Q 1688 2584 1439 2293 
Q 1191 2003 1191 1497 
Q 1191 994 1439 701 
Q 1688 409 2113 409 
Q 2538 409 2786 701 
Q 3034 994 3034 1497 
Q 3034 2003 2786 2293 
Q 2538 2584 2113 2584 
z
M 3366 4563 
L 3366 3988 
Q 3128 4100 2886 4159 
Q 2644 4219 2406 4219 
Q 1781 4219 1451 3797 
Q 1122 3375 1075 2522 
Q 1259 2794 1537 2939 
Q 1816 3084 2150 3084 
Q 2853 3084 3261 2657 
Q 3669 2231 3669 1497 
Q 3669 778 3244 343 
Q 2819 -91 2113 -91 
Q 1303 -91 875 529 
Q 447 1150 447 2328 
Q 447 3434 972 4092 
Q 1497 4750 2381 4750 
Q 2619 4750 2861 4703 
Q 3103 4656 3366 4563 
z
" transform="scale(0.015625)"/>
       </defs>
       <use xlink:href="#DejaVuSans-2212"/>
       <use xlink:href="#DejaVuSans-30" x="83.789062"/>
       <use xlink:href="#DejaVuSans-2e" x="147.412109"/>
       <use xlink:href="#DejaVuSans-30" x="179.199219"/>
       <use xlink:href="#DejaVuSans-30" x="242.822266"/>
       <use xlink:href="#DejaVuSans-36" x="306.445312"/>
      </g>
     </g>
    </g>
    <g id="ytick_2">
     <g id="line2d_9">
      <g>
       <use xlink:href="#m5b53e65671" x="90" y="122.882272" style="stroke: #000000; stroke-width: 0.8"/>
      </g>
     </g>
     <g id="text_8">
      <!-- 0.004 -->
      <g transform="translate(45.992188 126.681491) scale(0.1 -0.1)">
       <defs>
        <path id="DejaVuSans-34" d="M 2419 4116 
L 825 1625 
L 2419 1625 
L 2419 4116 
z
M 2253 4666 
L 3047 4666 
L 3047 1625 
L 3713 1625 
L 3713 1100 
L 3047 1100 
L 3047 0 
L 2419 0 
L 2419 1100 
L 313 1100 
L 313 1709 
L 2253 4666 
z
" transform="scale(0.015625)"/>
       </defs>
       <use xlink:href="#DejaVuSans-2212"/>
       <use xlink:href="#DejaVuSans-30" x="83.789062"/>
       <use xlink:href="#DejaVuSans-2e" x="147.412109"/>
       <use xlink:href="#DejaVuSans-30" x="179.199219"/>
       <use xlink:href="#DejaVuSans-30" x="242.822266"/>
       <use xlink:href="#DejaVuSans-34" x="306.445312"/>
      </g>
     </g>
    </g>
    <g id="ytick_3">
     <g id="line2d_10">
      <g>
       <use xlink:href="#m5b53e65671" x="90" y="82.477464" style="stroke: #000000; stroke-width: 0.8"/>
      </g>
     </g>
     <g id="text_9">
      <!-- 0.002 -->
      <g transform="translate(45.992188 86.276683) scale(0.1 -0.1)">
       <use xlink:href="#DejaVuSans-2212"/>
       <use xlink:href="#DejaVuSans-30" x="83.789062"/>
       <use xlink:href="#DejaVuSans-2e" x="147.412109"/>
       <use xlink:href="#DejaVuSans-30" x="179.199219"/>
       <use xlink:href="#DejaVuSans-30" x="242.822266"/>
       <use xlink:href="#DejaVuSans-32" x="306.445312"/>
      </g>
     </g>
    </g>
    <g id="ytick_4">
     <g id="line2d_11">
      <g>
       <use xlink:href="#m5b53e65671" x="90" y="42.072656" style="stroke: #000000; stroke-width: 0.8"/>
      </g>
     </g>
     <g id="text_10">
      <!-- 0.000 -->
      <g transform="translate(54.371875 45.871874) scale(0.1 -0.1)">
       <use xlink:href="#DejaVuSans-30"/>
       <use xlink:href="#DejaVuSans-2e" x="63.623047"/>
       <use xlink:href="#DejaVuSans-30" x="95.410156"/>
       <use xlink:href="#DejaVuSans-30" x="159.033203"/>
       <use xlink:href="#DejaVuSans-30" x="222.65625"/>
      </g>
     </g>
    </g>
   </g>
  </g>
 </g>
 <defs>
  <clipPath id="p617f78f733">
   <rect x="90" y="25.92" width="558" height="166.32"/>
  </clipPath>
 </defs>
</svg>
