<?xml version="1.0" encoding="utf-8" standalone="no"?>
<!DOCTYPE svg PUBLIC "-//W3C//DTD SVG 1.1//EN"
  "http://www.w3.org/Graphics/SVG/1.1/DTD/svg11.dtd">
<svg xmlns:xlink="http://www.w3.org/1999/xlink" width="720pt" height="216pt" viewBox="0 0 720 216" xmlns="http://www.w3.org/2000/svg" version="1.1">
 <metadata>
  <rdf:RDF xmlns:dc="http://purl.org/dc/elements/1.1/" xmlns:cc="http://creativecommons.org/ns#" xmlns:rdf="http://www.w3.org/1999/02/22-rdf-syntax-ns#">
   <cc:Work>
    <dc:type rdf:resource="http://purl.org/dc/dcmitype/StillImage"/>
    <dc:date>2024-11-23T04:43:57.507114</dc:date>
    <dc:format>image/svg+xml</dc:format>
    <dc:creator>
     <cc:Agent>
      <dc:title>Matplotlib v3.7.2, https://matplotlib.org/</dc:title>
     </cc:Agent>
    </dc:creator>
   </cc:Work>
  </rdf:RDF>
 </metadata>
 <defs>
  <style type="text/css">*{stroke-linejoin: round; stroke-linecap: butt}</style>
 </defs>
 <g id="figure_1">
  <g id="patch_1">
   <path d="M 0 216 
L 720 216 
L 720 0 
L 0 0 
z
" style="fill: #ffffff"/>
  </g>
  <g id="axes_1">
   <g id="patch_2">
    <path d="M 90 192.24 
L 648 192.24 
L 648 25.92 
L 90 25.92 
z
" style="fill: #ffffff"/>
   </g>
   <g id="line2d_1">
    <path d="M 90 5.34055 
L 648 5.34055 
" clip-path="url(#pabf6ad34ca)" style="fill: none; stroke: #000000; stroke-width: 0.5; stroke-linecap: square"/>
   </g>
   <g id="patch_3">
    <path d="M 90 4.151961 
L 107.699499 4.151961 
L 107.699499 4.383769 
L 101.331796 4.383769 
L 101.331796 5.34055 
L 96.380052 5.34055 
L 96.380052 4.383769 
L 90 4.383769 
L 90 4.151961 
z
" clip-path="url(#pabf6ad34ca)" style="fill: #ff0000"/>
   </g>
   <g id="patch_4">
    <path d="M 102.260459 3.30551 
L 95.453516 3.30551 
L 94.378735 4.151961 
L 90 4.151961 
L 96.253268 -0.494553 
L 101.446231 -0.494553 
L 107.699499 4.151961 
L 103.324383 4.151961 
L 102.260459 3.30551 
z
M 96.539153 2.443127 
L 101.163965 2.443127 
L 98.855178 0.594878 
L 96.539153 2.443127 
z
" clip-path="url(#pabf6ad34ca)" style="fill: #008000"/>
   </g>
   <g id="patch_5">
    <path d="M 108.631052 2.075992 
L 126.330551 2.075992 
L 126.330551 2.712672 
L 119.962847 2.712672 
L 119.962847 5.34055 
L 115.011104 5.34055 
L 115.011104 2.712672 
L 108.631052 2.712672 
L 108.631052 2.075992 
z
" clip-path="url(#pabf6ad34ca)" style="fill: #ff0000"/>
   </g>
   <g id="patch_6">
    <path d="M 120.89151 0.473447 
L 114.084567 0.473447 
L 113.009787 2.075992 
L 108.631052 2.075992 
L 114.88432 -6.72104 
L 120.077283 -6.72104 
L 126.330551 2.075992 
L 121.955434 2.075992 
L 120.89151 0.473447 
z
M 115.170204 -1.159264 
L 119.795017 -1.159264 
L 117.48623 -4.65847 
L 115.170204 -1.159264 
z
" clip-path="url(#pabf6ad34ca)" style="fill: #008000"/>
   </g>
   <g id="patch_7">
    <path d="M 127.262104 -1.426752 
L 144.961603 -1.426752 
L 144.961603 -0.10694 
L 138.593899 -0.10694 
L 138.593899 5.34055 
L 133.642156 5.34055 
L 133.642156 -0.10694 
L 127.262104 -0.10694 
L 127.262104 -1.426752 
z
" clip-path="url(#pabf6ad34ca)" style="fill: #ff0000"/>
   </g>
   <g id="patch_8">
    <path d="M 139.522562 -2.836932 
L 132.715619 -2.836932 
L 131.640839 -1.426752 
L 127.262104 -1.426752 
L 133.515372 -9.16781 
L 138.708335 -9.16781 
L 144.961603 -1.426752 
L 140.586486 -1.426752 
L 139.522562 -2.836932 
z
M 133.801256 -4.273656 
L 138.426069 -4.273656 
L 136.117281 -7.352826 
L 133.801256 -4.273656 
z
" clip-path="url(#pabf6ad34ca)" style="fill: #008000"/>
   </g>
   <g id="patch_9">
    <path d="M 158.153614 4.973598 
L 151.346671 4.973598 
L 150.27189 5.34055 
L 145.893155 5.34055 
L 152.146423 3.326204 
L 157.339386 3.326204 
L 163.592654 5.34055 
L 159.217538 5.34055 
L 158.153614 4.973598 
z
M 152.432308 4.59974 
L 157.057121 4.59974 
L 154.748333 3.798491 
L 152.432308 4.59974 
z
" clip-path="url(#pabf6ad34ca)" style="fill: #008000"/>
   </g>
   <g id="patch_10">
    <path d="M 145.893155 -2.121513 
L 163.592654 -2.121513 
L 163.592654 -1.059056 
L 157.224951 -1.059056 
L 157.224951 3.326204 
L 152.273207 3.326204 
L 152.273207 -1.059056 
L 145.893155 -1.059056 
L 145.893155 -2.121513 
z
" clip-path="url(#pabf6ad34ca)" style="fill: #ff0000"/>
   </g>
   <g id="patch_11">
    <path d="M 176.784666 4.516604 
L 169.977723 4.516604 
L 168.902942 5.34055 
L 164.524207 5.34055 
L 170.777475 0.817574 
L 175.970438 0.817574 
L 182.223706 5.34055 
L 177.84859 5.34055 
L 176.784666 4.516604 
z
M 171.06336 3.677149 
L 175.688172 3.677149 
L 173.379385 1.87804 
L 171.06336 3.677149 
z
" clip-path="url(#pabf6ad34ca)" style="fill: #008000"/>
   </g>
   <g id="patch_12">
    <path d="M 164.524207 -3.79235 
L 182.223706 -3.79235 
L 182.223706 -2.893286 
L 175.856003 -2.893286 
L 175.856003 0.817574 
L 170.904259 0.817574 
L 170.904259 -2.893286 
L 164.524207 -2.893286 
L 164.524207 -3.79235 
z
" clip-path="url(#pabf6ad34ca)" style="fill: #ff0000"/>
   </g>
   <g id="patch_13">
    <path d="M 195.415717 5.312557 
L 188.608774 5.312557 
L 187.533994 5.34055 
L 183.155259 5.34055 
L 189.408527 5.186887 
L 194.60149 5.186887 
L 200.854758 5.34055 
L 196.479641 5.34055 
L 195.415717 5.312557 
z
M 189.694411 5.284038 
L 194.319224 5.284038 
L 192.010437 5.222915 
L 189.694411 5.284038 
z
" clip-path="url(#pabf6ad34ca)" style="fill: #008000"/>
   </g>
   <g id="patch_14">
    <path d="M 183.155259 1.159569 
L 200.854758 1.159569 
L 200.854758 1.945008 
L 194.487054 1.945008 
L 194.487054 5.186887 
L 189.535311 5.186887 
L 189.535311 1.945008 
L 183.155259 1.945008 
L 183.155259 1.159569 
z
" clip-path="url(#pabf6ad34ca)" style="fill: #ff0000"/>
   </g>
   <g id="patch_15">
    <path d="M 232.677821 5.044727 
L 225.870878 5.044727 
L 224.796097 5.34055 
L 220.417362 5.34055 
L 226.67063 3.716659 
L 231.863593 3.716659 
L 238.116861 5.34055 
L 233.741745 5.34055 
L 232.677821 5.044727 
z
M 226.956515 4.743336 
L 231.581328 4.743336 
L 229.27254 4.097399 
L 226.956515 4.743336 
z
" clip-path="url(#pabf6ad34ca)" style="fill: #008000"/>
   </g>
   <g id="patch_16">
    <path d="M 269.939924 5.312978 
L 263.132981 5.312978 
L 262.058201 5.34055 
L 257.679466 5.34055 
L 263.932734 5.189196 
L 269.125697 5.189196 
L 275.378965 5.34055 
L 271.003849 5.34055 
L 269.939924 5.312978 
z
M 264.218618 5.284887 
L 268.843431 5.284887 
L 266.534644 5.224683 
L 264.218618 5.284887 
z
" clip-path="url(#pabf6ad34ca)" style="fill: #008000"/>
   </g>
   <g id="patch_17">
    <path d="M 307.202028 5.334879 
L 300.395085 5.334879 
L 299.320305 5.34055 
L 294.941569 5.34055 
L 301.194837 5.309423 
L 306.3878 5.309423 
L 312.641068 5.34055 
L 308.265952 5.34055 
L 307.202028 5.334879 
z
M 301.480722 5.329102 
L 306.105535 5.329102 
L 303.796747 5.316721 
L 301.480722 5.329102 
z
" clip-path="url(#pabf6ad34ca)" style="fill: #008000"/>
   </g>
   <g id="patch_18">
    <path d="M 294.941569 5.161405 
L 312.641068 5.161405 
L 312.641068 5.190273 
L 306.273365 5.190273 
L 306.273365 5.309423 
L 301.321621 5.309423 
L 301.321621 5.190273 
L 294.941569 5.190273 
L 294.941569 5.161405 
z
" clip-path="url(#pabf6ad34ca)" style="fill: #ff0000"/>
   </g>
   <g id="patch_19">
    <path d="M 332.203673 3.448796 
L 349.903172 3.448796 
L 349.903172 3.817741 
L 343.535468 3.817741 
L 343.535468 5.34055 
L 338.583725 5.34055 
L 338.583725 3.817741 
L 332.203673 3.817741 
L 332.203673 3.448796 
z
" clip-path="url(#pabf6ad34ca)" style="fill: #ff0000"/>
   </g>
   <g id="patch_20">
    <path d="M 350.834725 4.26053 
L 368.534224 4.26053 
L 368.534224 4.471164 
L 362.16652 4.471164 
L 362.16652 5.34055 
L 357.214777 5.34055 
L 357.214777 4.471164 
L 350.834725 4.471164 
L 350.834725 4.26053 
z
" clip-path="url(#pabf6ad34ca)" style="fill: #ff0000"/>
   </g>
   <g id="patch_21">
    <path d="M 363.095183 3.713652 
L 356.28824 3.713652 
L 355.21346 4.26053 
L 350.834725 4.26053 
L 357.087993 1.258489 
L 362.280956 1.258489 
L 368.534224 4.26053 
L 364.159107 4.26053 
L 363.095183 3.713652 
z
M 357.373877 3.156479 
L 361.99869 3.156479 
L 359.689902 1.962354 
L 357.373877 3.156479 
z
" clip-path="url(#pabf6ad34ca)" style="fill: #008000"/>
   </g>
   <g id="patch_22">
    <path d="M 388.096828 4.153956 
L 405.796327 4.153956 
L 405.796327 4.385375 
L 399.428624 4.385375 
L 399.428624 5.34055 
L 394.47688 5.34055 
L 394.47688 4.385375 
L 388.096828 4.385375 
L 388.096828 4.153956 
z
" clip-path="url(#pabf6ad34ca)" style="fill: #ff0000"/>
   </g>
   <g id="patch_23">
    <path d="M 418.988338 5.056173 
L 412.181395 5.056173 
L 411.106615 5.34055 
L 406.72788 5.34055 
L 412.981148 3.779491 
L 418.174111 3.779491 
L 424.427379 5.34055 
L 420.052263 5.34055 
L 418.988338 5.056173 
z
M 413.267032 4.766444 
L 417.891845 4.766444 
L 415.583058 4.1455 
L 413.267032 4.766444 
z
" clip-path="url(#pabf6ad34ca)" style="fill: #008000"/>
   </g>
   <g id="patch_24">
    <path d="M 437.61939 4.774538 
L 430.812447 4.774538 
L 429.737667 5.34055 
L 425.358932 5.34055 
L 431.6122 2.233478 
L 436.805163 2.233478 
L 443.058431 5.34055 
L 438.683314 5.34055 
L 437.61939 4.774538 
z
M 431.898084 4.197872 
L 436.522897 4.197872 
L 434.214109 2.961968 
L 431.898084 4.197872 
z
" clip-path="url(#pabf6ad34ca)" style="fill: #008000"/>
   </g>
   <g id="patch_25">
    <path d="M 443.989983 1.40412 
L 461.689482 1.40412 
L 461.689482 2.171833 
L 455.321779 2.171833 
L 455.321779 5.34055 
L 450.370035 5.34055 
L 450.370035 2.171833 
L 443.989983 2.171833 
L 443.989983 1.40412 
z
" clip-path="url(#pabf6ad34ca)" style="fill: #ff0000"/>
   </g>
   <g id="patch_26">
    <path d="M 456.250442 0.496637 
L 449.443499 0.496637 
L 448.368719 1.40412 
L 443.989983 1.40412 
L 450.243251 -3.577424 
L 455.436214 -3.577424 
L 461.689482 1.40412 
L 457.314366 1.40412 
L 456.250442 0.496637 
z
M 450.529136 -0.427927 
L 455.153949 -0.427927 
L 452.845161 -2.409441 
L 450.529136 -0.427927 
z
" clip-path="url(#pabf6ad34ca)" style="fill: #008000"/>
   </g>
   <g id="patch_27">
    <path d="M 474.881494 4.943283 
L 468.074551 4.943283 
L 466.99977 5.34055 
L 462.621035 5.34055 
L 468.874303 3.15979 
L 474.067266 3.15979 
L 480.320534 5.34055 
L 475.945418 5.34055 
L 474.881494 4.943283 
z
M 469.160188 4.538538 
L 473.785 4.538538 
L 471.476213 3.671095 
L 469.160188 4.538538 
z
" clip-path="url(#pabf6ad34ca)" style="fill: #008000"/>
   </g>
   <g id="patch_28">
    <path d="M 462.621035 0.160336 
L 480.320534 0.160336 
L 480.320534 0.745313 
L 473.952831 0.745313 
L 473.952831 3.15979 
L 469.001087 3.15979 
L 469.001087 0.745313 
L 462.621035 0.745313 
L 462.621035 0.160336 
z
" clip-path="url(#pabf6ad34ca)" style="fill: #ff0000"/>
   </g>
   <g id="patch_29">
    <path d="M 493.512545 5.079889 
L 486.705603 5.079889 
L 485.630822 5.34055 
L 481.252087 5.34055 
L 487.505355 3.909677 
L 492.698318 3.909677 
L 498.951586 5.34055 
L 494.57647 5.34055 
L 493.512545 5.079889 
z
M 487.791239 4.814322 
L 492.416052 4.814322 
L 490.107265 4.245163 
L 487.791239 4.814322 
z
" clip-path="url(#pabf6ad34ca)" style="fill: #008000"/>
   </g>
   <g id="patch_30">
    <path d="M 481.252087 -1.52546 
L 498.951586 -1.52546 
L 498.951586 -0.465457 
L 492.583882 -0.465457 
L 492.583882 3.909677 
L 487.632139 3.909677 
L 487.632139 -0.465457 
L 481.252087 -0.465457 
L 481.252087 -1.52546 
z
" clip-path="url(#pabf6ad34ca)" style="fill: #ff0000"/>
   </g>
   <g id="patch_31">
    <path d="M 512.143597 4.850991 
L 505.336654 4.850991 
L 504.261874 5.34055 
L 499.883139 5.34055 
L 506.136407 2.653163 
L 511.32937 2.653163 
L 517.582638 5.34055 
L 513.207521 5.34055 
L 512.143597 4.850991 
z
M 506.422291 4.352218 
L 511.047104 4.352218 
L 508.738316 3.283253 
L 506.422291 4.352218 
z
" clip-path="url(#pabf6ad34ca)" style="fill: #008000"/>
   </g>
   <g id="patch_32">
    <path d="M 499.883139 -2.64909 
L 517.582638 -2.64909 
L 517.582638 -1.615003 
L 511.214934 -1.615003 
L 511.214934 2.653163 
L 506.263191 2.653163 
L 506.263191 -1.615003 
L 499.883139 -1.615003 
L 499.883139 -2.64909 
z
" clip-path="url(#pabf6ad34ca)" style="fill: #ff0000"/>
   </g>
   <g id="patch_33">
    <path d="M 530.774649 4.99649 
L 523.967706 4.99649 
L 522.892926 5.34055 
L 518.51419 5.34055 
L 524.767458 3.451862 
L 529.960421 3.451862 
L 536.213689 5.34055 
L 531.838573 5.34055 
L 530.774649 4.99649 
z
M 525.053343 4.645953 
L 529.678156 4.645953 
L 527.369368 3.894688 
L 525.053343 4.645953 
z
" clip-path="url(#pabf6ad34ca)" style="fill: #008000"/>
   </g>
   <g id="patch_34">
    <path d="M 518.51419 -2.31291 
L 536.213689 -2.31291 
L 536.213689 -1.188618 
L 529.845986 -1.188618 
L 529.845986 3.451862 
L 524.894242 3.451862 
L 524.894242 -1.188618 
L 518.51419 -1.188618 
L 518.51419 -2.31291 
z
" clip-path="url(#pabf6ad34ca)" style="fill: #ff0000"/>
   </g>
   <g id="patch_35">
    <path d="M 549.405701 5.004212 
L 542.598758 5.004212 
L 541.523977 5.34055 
L 537.145242 5.34055 
L 543.39851 3.494254 
L 548.591473 3.494254 
L 554.844741 5.34055 
L 550.469625 5.34055 
L 549.405701 5.004212 
z
M 543.684395 4.661543 
L 548.309208 4.661543 
L 546.00042 3.92714 
L 543.684395 4.661543 
z
" clip-path="url(#pabf6ad34ca)" style="fill: #008000"/>
   </g>
   <g id="patch_36">
    <path d="M 537.145242 0.526538 
L 554.844741 0.526538 
L 554.844741 1.105325 
L 548.477038 1.105325 
L 548.477038 3.494254 
L 543.525294 3.494254 
L 543.525294 1.105325 
L 537.145242 1.105325 
L 537.145242 0.526538 
z
" clip-path="url(#pabf6ad34ca)" style="fill: #ff0000"/>
   </g>
   <g id="patch_37">
    <path d="M 555.776294 2.006484 
L 573.475793 2.006484 
L 573.475793 2.65672 
L 567.108089 2.65672 
L 567.108089 5.34055 
L 562.156346 5.34055 
L 562.156346 2.65672 
L 555.776294 2.65672 
L 555.776294 2.006484 
z
" clip-path="url(#pabf6ad34ca)" style="fill: #ff0000"/>
   </g>
   <g id="patch_38">
    <path d="M 568.036752 0.247855 
L 561.22981 0.247855 
L 560.155029 2.006484 
L 555.776294 2.006484 
L 562.029562 -7.647359 
L 567.222525 -7.647359 
L 573.475793 2.006484 
L 569.100677 2.006484 
L 568.036752 0.247855 
z
M 562.315446 -1.543879 
L 566.940259 -1.543879 
L 564.631472 -5.383899 
L 562.315446 -1.543879 
z
" clip-path="url(#pabf6ad34ca)" style="fill: #008000"/>
   </g>
   <g id="patch_39">
    <path d="M 574.407346 1.760132 
L 592.106845 1.760132 
L 592.106845 2.458413 
L 585.739141 2.458413 
L 585.739141 5.34055 
L 580.787398 5.34055 
L 580.787398 2.458413 
L 574.407346 2.458413 
L 574.407346 1.760132 
z
" clip-path="url(#pabf6ad34ca)" style="fill: #ff0000"/>
   </g>
   <g id="patch_40">
    <path d="M 586.667804 0.337484 
L 579.860861 0.337484 
L 578.786081 1.760132 
L 574.407346 1.760132 
L 580.660614 -6.049364 
L 585.853577 -6.049364 
L 592.106845 1.760132 
L 587.731728 1.760132 
L 586.667804 0.337484 
z
M 580.946498 -1.111942 
L 585.571311 -1.111942 
L 583.262523 -4.218334 
L 580.946498 -1.111942 
z
" clip-path="url(#pabf6ad34ca)" style="fill: #008000"/>
   </g>
   <g id="patch_41">
    <path d="M 593.038397 0.10564 
L 610.737896 0.10564 
L 610.737896 1.126593 
L 604.370193 1.126593 
L 604.370193 5.34055 
L 599.418449 5.34055 
L 599.418449 1.126593 
L 593.038397 1.126593 
L 593.038397 0.10564 
z
" clip-path="url(#pabf6ad34ca)" style="fill: #ff0000"/>
   </g>
   <g id="patch_42">
    <path d="M 605.298856 -1.790603 
L 598.491913 -1.790603 
L 597.417133 0.10564 
L 593.038397 0.10564 
L 599.291665 -10.303621 
L 604.484628 -10.303621 
L 610.737896 0.10564 
L 606.36278 0.10564 
L 605.298856 -1.790603 
z
M 599.57755 -3.722541 
L 604.202363 -3.722541 
L 601.893575 -7.863044 
L 599.57755 -3.722541 
z
" clip-path="url(#pabf6ad34ca)" style="fill: #008000"/>
   </g>
   <g id="patch_43">
    <path d="M 611.669449 0.910118 
L 629.368948 0.910118 
L 629.368948 1.774175 
L 623.001245 1.774175 
L 623.001245 5.34055 
L 618.049501 5.34055 
L 618.049501 1.774175 
L 611.669449 1.774175 
L 611.669449 0.910118 
z
" clip-path="url(#pabf6ad34ca)" style="fill: #ff0000"/>
   </g>
   <g id="patch_44">
    <path d="M 623.929908 -0.732843 
L 617.122965 -0.732843 
L 616.048184 0.910118 
L 611.669449 0.910118 
L 617.922717 -8.10877 
L 623.11568 -8.10877 
L 629.368948 0.910118 
L 624.993832 0.910118 
L 623.929908 -0.732843 
z
M 618.208602 -2.40673 
L 622.833415 -2.40673 
L 620.524627 -5.994183 
L 618.208602 -2.40673 
z
" clip-path="url(#pabf6ad34ca)" style="fill: #008000"/>
   </g>
   <g id="patch_45">
    <path d="M 630.300501 -2.155142 
L 648 -2.155142 
L 648 -0.693274 
L 641.632296 -0.693274 
L 641.632296 5.34055 
L 636.680553 5.34055 
L 636.680553 -0.693274 
L 630.300501 -0.693274 
L 630.300501 -2.155142 
z
" clip-path="url(#pabf6ad34ca)" style="fill: #ff0000"/>
   </g>
   <g id="patch_46">
    <path d="M 642.560959 -3.544795 
L 635.754017 -3.544795 
L 634.679236 -2.155142 
L 630.300501 -2.155142 
L 636.553769 -9.783518 
L 641.746732 -9.783518 
L 648 -2.155142 
L 643.624884 -2.155142 
L 642.560959 -3.544795 
z
M 636.839653 -4.960606 
L 641.464466 -4.960606 
L 639.155679 -7.994954 
L 636.839653 -4.960606 
z
" clip-path="url(#pabf6ad34ca)" style="fill: #008000"/>
   </g>
   <g id="patch_47">
    <path d="M 107.699499 16.413098 
Q 106.218967 15.487598 104.618029 15.019467 
Q 103.017092 14.545955 101.273453 14.545955 
Q 96.073751 14.545955 93.036876 18.054247 
Q 90 21.56254 90 27.56215 
Q 90 33.583284 93.036876 37.086196 
Q 96.073751 40.594488 101.273453 40.594488 
Q 103.017092 40.594488 104.618029 40.120976 
Q 106.218967 39.652845 107.699499 38.727345 
L 107.699499 33.534857 
Q 106.205588 34.761683 104.756272 35.33205 
Q 103.306955 35.902416 101.706018 35.902416 
Q 98.834142 35.902416 97.18861 33.680139 
Q 95.547538 31.463242 95.547538 27.56215 
Q 95.547538 23.677201 97.18861 21.454923 
Q 98.834142 19.238027 101.706018 19.238027 
Q 103.306955 19.238027 104.756272 19.808394 
Q 106.205588 20.384141 107.699499 21.610967 
L 107.699499 16.413098 
z
" clip-path="url(#pabf6ad34ca)" style="fill: #0000ff"/>
   </g>
   <g id="patch_48">
    <path d="M 107.699499 6.173429 
Q 105.914476 5.756989 103.994584 5.547819 
Q 102.074692 5.34055 100.027865 5.34055 
Q 95.402671 5.34055 92.701335 6.58036 
Q 90 7.820171 90 9.9404 
Q 90 12.085349 92.748936 13.315652 
Q 95.501839 14.545955 100.289668 14.545955 
Q 102.134193 14.545955 103.824015 14.378618 
Q 105.517804 14.213184 107.017224 13.886117 
L 107.017224 12.051121 
Q 105.470203 12.471363 103.93905 12.678632 
Q 102.407896 12.887803 100.868809 12.887803 
Q 98.020705 12.887803 96.477652 12.12338 
Q 94.934598 11.360858 94.934598 9.9404 
Q 94.934598 8.533253 96.422118 7.765026 
Q 97.909637 6.998701 100.646673 6.998701 
Q 101.392416 6.998701 102.031058 7.042437 
Q 102.6697 7.088074 103.17744 7.183152 
L 103.17744 8.905957 
L 100.261901 8.905957 
L 100.261901 10.440508 
L 107.699499 10.440508 
L 107.699499 6.173429 
z
" clip-path="url(#pabf6ad34ca)" style="fill: #ffa600"/>
   </g>
   <g id="patch_49">
    <path d="M 126.330551 13.587354 
Q 124.850018 12.653707 123.249081 12.181456 
Q 121.648144 11.703776 119.904504 11.703776 
Q 114.704803 11.703776 111.667927 15.242949 
Q 108.631052 18.782121 108.631052 24.834541 
Q 108.631052 30.908673 111.667927 34.442417 
Q 114.704803 37.98159 119.904504 37.98159 
Q 121.648144 37.98159 123.249081 37.50391 
Q 124.850018 37.031659 126.330551 36.098012 
L 126.330551 30.859819 
Q 124.83664 32.097444 123.387324 32.672831 
Q 121.938007 33.248218 120.33707 33.248218 
Q 117.465193 33.248218 115.819662 31.00638 
Q 114.178589 28.76997 114.178589 24.834541 
Q 114.178589 20.915396 115.819662 18.673558 
Q 117.465193 16.437148 120.33707 16.437148 
Q 121.938007 16.437148 123.387324 17.012535 
Q 124.83664 17.59335 126.330551 18.830975 
L 126.330551 13.587354 
z
" clip-path="url(#pabf6ad34ca)" style="fill: #0000ff"/>
   </g>
   <g id="patch_50">
    <path d="M 126.330551 5.916276 
Q 124.545527 5.628413 122.625636 5.483824 
Q 120.705744 5.34055 118.658917 5.34055 
Q 114.033723 5.34055 111.332387 6.197567 
Q 108.631052 7.054585 108.631052 8.520191 
Q 108.631052 10.002885 111.379988 10.85333 
Q 114.132891 11.703776 118.92072 11.703776 
Q 120.765244 11.703776 122.455067 11.588105 
Q 124.148856 11.473748 125.648275 11.247664 
L 125.648275 9.979225 
Q 124.101255 10.269717 122.570102 10.412991 
Q 121.038948 10.55758 119.499861 10.55758 
Q 116.651757 10.55758 115.108704 10.029174 
Q 113.56565 9.502081 113.56565 8.520191 
Q 113.56565 7.547502 115.053169 7.016466 
Q 116.540689 6.486745 119.277725 6.486745 
Q 120.023468 6.486745 120.66211 6.516978 
Q 121.300752 6.548524 121.808492 6.614246 
L 121.808492 7.805133 
L 118.892953 7.805133 
L 118.892953 8.86589 
L 126.330551 8.86589 
L 126.330551 5.916276 
z
" clip-path="url(#pabf6ad34ca)" style="fill: #ffa600"/>
   </g>
   <g id="patch_51">
    <path d="M 144.961603 24.33692 
Q 143.48107 23.314511 141.880133 22.797363 
Q 140.279195 22.27427 138.535556 22.27427 
Q 133.335855 22.27427 130.298979 26.149911 
Q 127.262104 30.025553 127.262104 36.653375 
Q 127.262104 43.304974 130.298979 47.174671 
Q 133.335855 51.050313 138.535556 51.050313 
Q 140.279195 51.050313 141.880133 50.52722 
Q 143.48107 50.010072 144.961603 48.987663 
L 144.961603 43.251476 
Q 143.467692 44.606762 142.018375 45.236851 
Q 140.569059 45.86694 138.968121 45.86694 
Q 136.096245 45.86694 134.450713 43.411971 
Q 132.809641 40.962946 132.809641 36.653375 
Q 132.809641 32.361637 134.450713 29.906668 
Q 136.096245 27.457643 138.968121 27.457643 
Q 140.569059 27.457643 142.018375 28.087732 
Q 143.467692 28.723765 144.961603 30.079051 
L 144.961603 24.33692 
z
" clip-path="url(#pabf6ad34ca)" style="fill: #0000ff"/>
   </g>
   <g id="patch_52">
    <path d="M 144.961603 6.872665 
Q 143.176579 6.106607 141.256687 5.721829 
Q 139.336795 5.34055 137.289969 5.34055 
Q 132.664774 5.34055 129.963439 7.621232 
Q 127.262104 9.901915 127.262104 13.802163 
Q 127.262104 17.747884 130.01104 20.011077 
Q 132.763942 22.27427 137.551772 22.27427 
Q 139.396296 22.27427 141.086118 21.966448 
Q 142.779907 21.662124 144.279327 21.060471 
L 144.279327 17.684921 
Q 142.732307 18.457974 141.201153 18.839254 
Q 139.67 19.224032 138.130913 19.224032 
Q 135.282809 19.224032 133.739755 17.817844 
Q 132.196702 16.415154 132.196702 13.802163 
Q 132.196702 11.213658 133.684221 9.800474 
Q 135.171741 8.390788 137.908777 8.390788 
Q 138.65452 8.390788 139.293162 8.471242 
Q 139.931803 8.555193 140.439543 8.730092 
L 140.439543 11.899262 
L 137.524005 11.899262 
L 137.524005 14.722132 
L 144.961603 14.722132 
L 144.961603 6.872665 
z
" clip-path="url(#pabf6ad34ca)" style="fill: #ffa600"/>
   </g>
   <g id="patch_53">
    <path d="M 163.592654 16.902288 
Q 162.112122 15.7686 160.511185 15.195165 
Q 158.910247 14.615139 157.166608 14.615139 
Q 151.966906 14.615139 148.930031 18.912606 
Q 145.893155 23.210072 145.893155 30.559268 
Q 145.893155 37.934828 148.930031 42.225704 
Q 151.966906 46.523171 157.166608 46.523171 
Q 158.910247 46.523171 160.511185 45.943144 
Q 162.112122 45.369709 163.592654 44.236022 
L 163.592654 37.875507 
Q 162.098744 39.378303 160.649427 40.07697 
Q 159.200111 40.775638 157.599173 40.775638 
Q 154.727297 40.775638 153.081765 38.05347 
Q 151.440693 35.337893 151.440693 30.559268 
Q 151.440693 25.800417 153.081765 23.078248 
Q 154.727297 20.362671 157.599173 20.362671 
Q 159.200111 20.362671 160.649427 21.061339 
Q 162.098744 21.766598 163.592654 23.269393 
L 163.592654 16.902288 
z
" clip-path="url(#pabf6ad34ca)" style="fill: #0000ff"/>
   </g>
   <g id="patch_54">
    <path d="M 163.592654 6.179688 
Q 161.807631 5.760119 159.887739 5.549376 
Q 157.967847 5.34055 155.92102 5.34055 
Q 151.295826 5.34055 148.594491 6.589678 
Q 145.893155 7.838807 145.893155 9.97497 
Q 145.893155 12.13604 148.642091 13.375589 
Q 151.394994 14.615139 156.182824 14.615139 
Q 158.027348 14.615139 159.71717 14.446545 
Q 161.410959 14.279867 162.910379 13.950342 
L 162.910379 12.101555 
Q 161.363358 12.524956 159.832205 12.733782 
Q 158.301052 12.944525 156.761965 12.944525 
Q 153.913861 12.944525 152.370807 12.174357 
Q 150.827753 11.406104 150.827753 9.97497 
Q 150.827753 8.557248 152.315273 7.783248 
Q 153.802792 7.011163 156.539828 7.011163 
Q 157.285572 7.011163 157.924213 7.055228 
Q 158.562855 7.101208 159.070595 7.197 
L 159.070595 8.932753 
L 156.155057 8.932753 
L 156.155057 10.478837 
L 163.592654 10.478837 
L 163.592654 6.179688 
z
" clip-path="url(#pabf6ad34ca)" style="fill: #ffa600"/>
   </g>
   <g id="patch_55">
    <path d="M 182.223706 20.97717 
Q 180.743174 20.06415 179.142236 19.602332 
Q 177.541299 19.135205 175.79766 19.135205 
Q 170.597958 19.135205 167.561083 22.596188 
Q 164.524207 26.05717 164.524207 31.975874 
Q 164.524207 37.915811 167.561083 41.371485 
Q 170.597958 44.832468 175.79766 44.832468 
Q 177.541299 44.832468 179.142236 44.365341 
Q 180.743174 43.903523 182.223706 42.990503 
L 182.223706 37.868037 
Q 180.729795 39.078319 179.280479 39.640994 
Q 177.831162 40.203669 176.230225 40.203669 
Q 173.358349 40.203669 171.712817 38.01136 
Q 170.071745 35.824359 170.071745 31.975874 
Q 170.071745 28.143314 171.712817 25.951005 
Q 173.358349 23.764004 176.230225 23.764004 
Q 177.831162 23.764004 179.280479 24.326679 
Q 180.729795 24.894662 182.223706 26.104944 
L 182.223706 20.97717 
z
" clip-path="url(#pabf6ad34ca)" style="fill: #0000ff"/>
   </g>
   <g id="patch_56">
    <path d="M 182.223706 6.588651 
Q 180.438683 5.9646 178.518791 5.65115 
Q 176.598899 5.34055 174.552072 5.34055 
Q 169.926878 5.34055 167.225542 7.198454 
Q 164.524207 9.056359 164.524207 12.233603 
Q 164.524207 15.447892 167.273143 17.291549 
Q 170.026046 19.135205 174.813876 19.135205 
Q 176.6584 19.135205 178.348222 18.884445 
Q 180.042011 18.636535 181.541431 18.146413 
L 181.541431 15.3966 
Q 179.99441 16.02635 178.463257 16.33695 
Q 176.932103 16.650401 175.393016 16.650401 
Q 172.544912 16.650401 171.001859 15.504883 
Q 169.458805 14.362215 169.458805 12.233603 
Q 169.458805 10.124939 170.946325 8.973722 
Q 172.433844 7.825354 175.17088 7.825354 
Q 175.916623 7.825354 176.555265 7.890894 
Q 177.193907 7.959283 177.701647 8.10176 
L 177.701647 10.68345 
L 174.786108 10.68345 
L 174.786108 12.983034 
L 182.223706 12.983034 
L 182.223706 6.588651 
z
" clip-path="url(#pabf6ad34ca)" style="fill: #ffa600"/>
   </g>
   <g id="patch_57">
    <path d="M 200.854758 13.955921 
Q 199.374225 11.102713 197.773288 9.659521 
Q 196.172351 8.19974 194.428711 8.19974 
Q 189.22901 8.19974 186.192134 19.015388 
Q 183.155259 29.831035 183.155259 48.32712 
Q 183.155259 66.889558 186.192134 77.688617 
Q 189.22901 88.504264 194.428711 88.504264 
Q 196.172351 88.504264 197.773288 87.044484 
Q 199.374225 85.601292 200.854758 82.748084 
L 200.854758 66.740262 
Q 199.360847 70.522421 197.911531 72.280793 
Q 196.462214 74.039165 194.861277 74.039165 
Q 191.9894 74.039165 190.343869 67.188149 
Q 188.702796 60.353722 188.702796 48.32712 
Q 188.702796 36.350283 190.343869 29.499267 
Q 191.9894 22.664839 194.861277 22.664839 
Q 196.462214 22.664839 197.911531 24.423211 
Q 199.360847 26.198172 200.854758 29.980331 
L 200.854758 13.955921 
z
" clip-path="url(#pabf6ad34ca)" style="fill: #0000ff"/>
   </g>
   <g id="patch_58">
    <path d="M 200.854758 5.599241 
Q 199.069734 5.469895 197.149843 5.404927 
Q 195.229951 5.34055 193.183124 5.34055 
Q 188.55793 5.34055 185.856594 5.725634 
Q 183.155259 6.110718 183.155259 6.769259 
Q 183.155259 7.435478 185.904195 7.817609 
Q 188.657098 8.19974 193.444927 8.19974 
Q 195.289451 8.19974 196.979274 8.147766 
Q 198.673063 8.096382 200.172482 7.994795 
L 200.172482 7.424847 
Q 198.625462 7.555374 197.094309 7.619751 
Q 195.563155 7.68472 194.024068 7.68472 
Q 191.175964 7.68472 189.632911 7.44729 
Q 188.089857 7.210452 188.089857 6.769259 
Q 188.089857 6.3322 189.577376 6.09359 
Q 191.064896 5.85557 193.801932 5.85557 
Q 194.547675 5.85557 195.186317 5.869154 
Q 195.824959 5.883329 196.332699 5.91286 
L 196.332699 6.447962 
L 193.41716 6.447962 
L 193.41716 6.924592 
L 200.854758 6.924592 
L 200.854758 5.599241 
z
" clip-path="url(#pabf6ad34ca)" style="fill: #ffa600"/>
   </g>
   <g id="patch_59">
    <path d="M 214.046769 6.041815 
L 207.239826 6.041815 
L 206.165046 5.34055 
L 201.786311 5.34055 
L 208.039579 9.190086 
L 213.232542 9.190086 
L 219.48581 5.34055 
L 215.110693 5.34055 
L 214.046769 6.041815 
z
M 208.325463 6.756281 
L 212.950276 6.756281 
L 210.641488 8.287516 
L 208.325463 6.756281 
z
" clip-path="url(#pabf6ad34ca)" style="fill: #008000"/>
   </g>
   <g id="patch_60">
    <path d="M 219.48581 18.031071 
Q 218.005277 17.519388 216.40434 17.260571 
Q 214.803402 16.998779 213.059763 16.998779 
Q 207.860062 16.998779 204.823186 18.938417 
Q 201.786311 20.878055 201.786311 24.195074 
Q 201.786311 27.523992 204.823186 29.460655 
Q 207.860062 31.400293 213.059763 31.400293 
Q 214.803402 31.400293 216.40434 31.138501 
Q 218.005277 30.879685 219.48581 30.368001 
L 219.48581 27.497218 
Q 217.991899 28.175496 216.542582 28.490836 
Q 215.093266 28.806176 213.492328 28.806176 
Q 210.620452 28.806176 208.97492 27.57754 
Q 207.333848 26.35188 207.333848 24.195074 
Q 207.333848 22.047193 208.97492 20.818557 
Q 210.620452 19.592896 213.492328 19.592896 
Q 215.093266 19.592896 216.542582 19.908236 
Q 217.991899 20.226551 219.48581 20.904829 
L 219.48581 18.031071 
z
" clip-path="url(#pabf6ad34ca)" style="fill: #0000ff"/>
   </g>
   <g id="patch_61">
    <path d="M 219.48581 34.127636 
Q 217.700786 32.763964 215.780894 32.079015 
Q 213.861002 31.400293 211.814176 31.400293 
Q 207.188981 31.400293 204.487646 35.460173 
Q 201.786311 39.520053 201.786311 46.462946 
Q 201.786311 53.486787 204.535247 57.515533 
Q 207.288149 61.544279 212.075979 61.544279 
Q 213.920503 61.544279 215.610325 60.99632 
Q 217.304114 60.454587 218.803534 59.383576 
L 218.803534 53.374704 
Q 217.256514 54.750829 215.72536 55.429552 
Q 214.194207 56.114501 212.65512 56.114501 
Q 209.807016 56.114501 208.263962 53.611323 
Q 206.720909 51.114373 206.720909 46.462946 
Q 206.720909 41.855106 208.208428 39.339475 
Q 209.695948 36.830071 212.432984 36.830071 
Q 213.178727 36.830071 213.817369 36.973288 
Q 214.45601 37.122731 214.96375 37.434072 
L 214.96375 43.075561 
L 212.048212 43.075561 
L 212.048212 48.100597 
L 219.48581 48.100597 
L 219.48581 34.127636 
z
" clip-path="url(#pabf6ad34ca)" style="fill: #ffa600"/>
   </g>
   <g id="patch_62">
    <path d="M 201.786311 16.998779 
L 219.48581 16.998779 
L 219.48581 15.475867 
L 213.118106 15.475867 
L 213.118106 9.190086 
L 208.166363 9.190086 
L 208.166363 15.475867 
L 201.786311 15.475867 
L 201.786311 16.998779 
z
" clip-path="url(#pabf6ad34ca)" style="fill: #ff0000"/>
   </g>
   <g id="patch_63">
    <path d="M 238.116861 25.425804 
Q 236.636329 20.372155 235.035392 17.81595 
Q 233.434454 15.230362 231.690815 15.230362 
Q 226.491113 15.230362 223.454238 34.387214 
Q 220.417362 53.544066 220.417362 86.304634 
Q 220.417362 119.182728 223.454238 138.310198 
Q 226.491113 157.46705 231.690815 157.46705 
Q 233.434454 157.46705 235.035392 154.881462 
Q 236.636329 152.325257 238.116861 147.271609 
L 238.116861 118.918293 
Q 236.622951 125.617314 235.173634 128.731772 
Q 233.724318 131.846229 232.12338 131.846229 
Q 229.251504 131.846229 227.605972 119.711598 
Q 225.9649 107.606348 225.9649 86.304634 
Q 225.9649 65.091064 227.605972 52.956433 
Q 229.251504 40.851183 232.12338 40.851183 
Q 233.724318 40.851183 235.173634 43.96564 
Q 236.622951 47.109479 238.116861 53.808501 
L 238.116861 25.425804 
z
" clip-path="url(#pabf6ad34ca)" style="fill: #0000ff"/>
   </g>
   <g id="patch_64">
    <path d="M 238.116861 7.118576 
Q 236.331838 6.715106 234.411946 6.512449 
Q 232.492054 6.311635 230.445227 6.311635 
Q 225.820033 6.311635 223.118698 7.512835 
Q 220.417362 8.714036 220.417362 10.768235 
Q 220.417362 12.846385 223.166298 14.038374 
Q 225.919201 15.230362 230.707031 15.230362 
Q 232.551555 15.230362 234.241377 15.068237 
Q 235.935166 14.907954 237.434586 14.591073 
L 237.434586 12.813223 
Q 235.887565 13.220379 234.356412 13.421193 
Q 232.825259 13.623849 231.286172 13.623849 
Q 228.438068 13.623849 226.895014 12.883232 
Q 225.35196 12.144457 225.35196 10.768235 
Q 225.35196 9.40491 226.83948 8.660608 
Q 228.327 7.918148 231.064035 7.918148 
Q 231.809779 7.918148 232.44842 7.960522 
Q 233.087062 8.004738 233.594802 8.096855 
L 233.594802 9.766007 
L 230.679264 9.766007 
L 230.679264 11.252769 
L 238.116861 11.252769 
L 238.116861 7.118576 
z
" clip-path="url(#pabf6ad34ca)" style="fill: #ffa600"/>
   </g>
   <g id="patch_65">
    <path d="M 220.417362 6.311635 
L 238.116861 6.311635 
L 238.116861 6.122247 
L 231.749158 6.122247 
L 231.749158 5.34055 
L 226.797414 5.34055 
L 226.797414 6.122247 
L 220.417362 6.122247 
L 220.417362 6.311635 
z
" clip-path="url(#pabf6ad34ca)" style="fill: #ff0000"/>
   </g>
   <g id="patch_66">
    <path d="M 251.308873 54.039004 
L 244.50193 54.039004 
L 243.427149 45.165319 
L 239.048414 45.165319 
L 245.301682 93.876627 
L 250.494645 93.876627 
L 256.747913 45.165319 
L 252.372797 45.165319 
L 251.308873 54.039004 
z
M 245.587567 63.079722 
L 250.212379 63.079722 
L 247.903592 82.455673 
L 245.587567 63.079722 
z
" clip-path="url(#pabf6ad34ca)" style="fill: #008000"/>
   </g>
   <g id="patch_67">
    <path d="M 256.747913 20.523632 
Q 255.267381 19.580514 253.666443 19.103472 
Q 252.065506 18.620947 250.321867 18.620947 
Q 245.122165 18.620947 242.08529 22.196021 
Q 239.048414 25.771094 239.048414 31.884908 
Q 239.048414 38.020655 242.08529 41.590246 
Q 245.122165 45.165319 250.321867 45.165319 
Q 252.065506 45.165319 253.666443 44.682794 
Q 255.267381 44.205752 256.747913 43.262634 
L 256.747913 37.971306 
Q 255.254002 39.221485 253.804686 39.802709 
Q 252.355369 40.383933 250.754432 40.383933 
Q 247.882556 40.383933 246.237024 38.119354 
Q 244.595952 35.860258 244.595952 31.884908 
Q 244.595952 27.926008 246.237024 25.661429 
Q 247.882556 23.402334 250.754432 23.402334 
Q 252.355369 23.402334 253.804686 23.983557 
Q 255.254002 24.570264 256.747913 25.820443 
L 256.747913 20.523632 
z
" clip-path="url(#pabf6ad34ca)" style="fill: #0000ff"/>
   </g>
   <g id="patch_68">
    <path d="M 256.747913 5.734459 
Q 254.96289 5.537504 253.042998 5.438577 
Q 251.123106 5.34055 249.076279 5.34055 
Q 244.451085 5.34055 241.74975 5.926917 
Q 239.048414 6.513284 239.048414 7.516044 
Q 239.048414 8.530495 241.79735 9.112366 
Q 244.550253 9.694237 249.338083 9.694237 
Q 251.182607 9.694237 252.872429 9.615095 
Q 254.566218 9.536853 256.065638 9.382167 
L 256.065638 8.514307 
Q 254.518617 8.713061 252.987464 8.811088 
Q 251.45631 8.910015 249.917223 8.910015 
Q 247.069119 8.910015 245.526066 8.548482 
Q 243.983012 8.187848 243.983012 7.516044 
Q 243.983012 6.850535 245.470532 6.487203 
Q 246.958051 6.124771 249.695087 6.124771 
Q 250.44083 6.124771 251.079472 6.145456 
Q 251.718114 6.16704 252.225854 6.212006 
L 252.225854 7.026805 
L 249.310315 7.026805 
L 249.310315 7.75257 
L 256.747913 7.75257 
L 256.747913 5.734459 
z
" clip-path="url(#pabf6ad34ca)" style="fill: #ffa600"/>
   </g>
   <g id="patch_69">
    <path d="M 239.048414 18.620947 
L 256.747913 18.620947 
L 256.747913 16.87999 
L 250.38021 16.87999 
L 250.38021 9.694237 
L 245.428466 9.694237 
L 245.428466 16.87999 
L 239.048414 16.87999 
L 239.048414 18.620947 
z
" clip-path="url(#pabf6ad34ca)" style="fill: #ff0000"/>
   </g>
   <g id="patch_70">
    <path d="M 275.378965 5.499696 
Q 273.898432 5.461023 272.297495 5.441462 
Q 270.696558 5.421676 268.952919 5.421676 
Q 263.753217 5.421676 260.716341 5.568272 
Q 257.679466 5.714868 257.679466 5.965565 
Q 257.679466 6.217161 260.716341 6.363531 
Q 263.753217 6.510127 268.952919 6.510127 
Q 270.696558 6.510127 272.297495 6.490341 
Q 273.898432 6.47078 275.378965 6.432108 
L 275.378965 6.215137 
Q 273.885054 6.266401 272.435738 6.290234 
Q 270.986421 6.314067 269.385484 6.314067 
Q 266.513607 6.314067 264.868076 6.221208 
Q 263.227003 6.128574 263.227003 5.965565 
Q 263.227003 5.80323 264.868076 5.710371 
Q 266.513607 5.617737 269.385484 5.617737 
Q 270.986421 5.617737 272.435738 5.64157 
Q 273.885054 5.665628 275.378965 5.716891 
L 275.378965 5.499696 
z
" clip-path="url(#pabf6ad34ca)" style="fill: #0000ff"/>
   </g>
   <g id="patch_71">
    <path d="M 275.378965 21.608493 
Q 273.593941 14.05931 271.67405 10.267483 
Q 269.754158 6.510127 267.707331 6.510127 
Q 263.082137 6.510127 260.380801 28.98532 
Q 257.679466 51.460513 257.679466 89.895851 
Q 257.679466 128.779313 260.428402 151.08215 
Q 263.181305 173.384987 267.969134 173.384987 
Q 269.813659 173.384987 271.503481 170.351526 
Q 273.19727 167.352535 274.696689 161.423497 
L 274.696689 128.158832 
Q 273.149669 135.776958 271.618516 139.534313 
Q 270.087362 143.32614 268.548275 143.32614 
Q 265.700171 143.32614 264.157118 129.468736 
Q 262.614064 115.645803 262.614064 89.895851 
Q 262.614064 64.387196 264.101583 50.460849 
Q 265.589103 36.568974 268.326139 36.568974 
Q 269.071882 36.568974 269.710524 37.361811 
Q 270.349166 38.189118 270.856906 39.912676 
L 270.856906 71.143542 
L 267.941367 71.143542 
L 267.941367 98.961764 
L 275.378965 98.961764 
L 275.378965 21.608493 
z
" clip-path="url(#pabf6ad34ca)" style="fill: #ffa600"/>
   </g>
   <g id="patch_72">
    <path d="M 257.679466 5.421676 
L 275.378965 5.421676 
L 275.378965 5.405854 
L 269.011261 5.405854 
L 269.011261 5.34055 
L 264.059518 5.34055 
L 264.059518 5.405854 
L 257.679466 5.405854 
L 257.679466 5.421676 
z
" clip-path="url(#pabf6ad34ca)" style="fill: #ff0000"/>
   </g>
   <g id="patch_73">
    <path d="M 288.570976 26.574056 
L 281.764033 26.574056 
L 280.689253 15.691427 
L 276.310518 15.691427 
L 282.563786 75.43066 
L 287.756749 75.43066 
L 294.010017 15.691427 
L 289.6349 15.691427 
L 288.570976 26.574056 
z
M 282.84967 37.661535 
L 287.474483 37.661535 
L 285.165695 61.424076 
L 282.84967 37.661535 
z
" clip-path="url(#pabf6ad34ca)" style="fill: #008000"/>
   </g>
   <g id="patch_74">
    <path d="M 294.010017 5.88356 
Q 292.529484 5.732598 290.928547 5.65624 
Q 289.32761 5.579004 287.58397 5.579004 
Q 282.384269 5.579004 279.347393 6.151254 
Q 276.310518 6.723504 276.310518 7.702122 
Q 276.310518 8.684251 279.347393 9.255624 
Q 282.384269 9.827874 287.58397 9.827874 
Q 289.32761 9.827874 290.928547 9.750638 
Q 292.529484 9.674279 294.010017 9.523317 
L 294.010017 8.676352 
Q 292.516106 8.876464 291.066789 8.969499 
Q 289.617473 9.062533 288.016535 9.062533 
Q 285.144659 9.062533 283.499127 8.700049 
Q 281.858055 8.338443 281.858055 7.702122 
Q 281.858055 7.068434 283.499127 6.70595 
Q 285.144659 6.344344 288.016535 6.344344 
Q 289.617473 6.344344 291.066789 6.437379 
Q 292.516106 6.531291 294.010017 6.731403 
L 294.010017 5.88356 
z
" clip-path="url(#pabf6ad34ca)" style="fill: #0000ff"/>
   </g>
   <g id="patch_75">
    <path d="M 294.010017 5.362124 
Q 292.224993 5.351337 290.305101 5.345919 
Q 288.385209 5.34055 286.338383 5.34055 
Q 281.713188 5.34055 279.011853 5.372665 
Q 276.310518 5.404781 276.310518 5.459703 
Q 276.310518 5.515265 279.059454 5.547134 
Q 281.812356 5.579004 286.600186 5.579004 
Q 288.44471 5.579004 290.134532 5.574669 
Q 291.828321 5.570384 293.327741 5.561911 
L 293.327741 5.514378 
Q 291.780721 5.525264 290.249567 5.530633 
Q 288.718414 5.536051 287.179327 5.536051 
Q 284.331223 5.536051 282.788169 5.51625 
Q 281.245116 5.496498 281.245116 5.459703 
Q 281.245116 5.423252 282.732635 5.403352 
Q 284.220155 5.383502 286.957191 5.383502 
Q 287.702934 5.383502 288.341576 5.384635 
Q 288.980217 5.385817 289.487957 5.38828 
L 289.487957 5.432907 
L 286.572419 5.432907 
L 286.572419 5.472657 
L 294.010017 5.472657 
L 294.010017 5.362124 
z
" clip-path="url(#pabf6ad34ca)" style="fill: #ffa600"/>
   </g>
   <g id="patch_76">
    <path d="M 276.310518 15.691427 
L 294.010017 15.691427 
L 294.010017 14.547871 
L 287.642313 14.547871 
L 287.642313 9.827874 
L 282.69057 9.827874 
L 282.69057 14.547871 
L 276.310518 14.547871 
L 276.310518 15.691427 
z
" clip-path="url(#pabf6ad34ca)" style="fill: #ff0000"/>
   </g>
   <g id="patch_77">
    <path d="M 312.641068 5.365044 
Q 311.160536 5.352903 309.559599 5.346762 
Q 307.958661 5.34055 306.215022 5.34055 
Q 301.01532 5.34055 297.978445 5.386574 
Q 294.941569 5.432599 294.941569 5.511307 
Q 294.941569 5.590298 297.978445 5.636252 
Q 301.01532 5.682277 306.215022 5.682277 
Q 307.958661 5.682277 309.559599 5.676065 
Q 311.160536 5.669924 312.641068 5.657782 
L 312.641068 5.589663 
Q 311.147158 5.605757 309.697841 5.61324 
Q 308.248525 5.620722 306.647587 5.620722 
Q 303.775711 5.620722 302.130179 5.591568 
Q 300.489107 5.562485 300.489107 5.511307 
Q 300.489107 5.460341 302.130179 5.431187 
Q 303.775711 5.402104 306.647587 5.402104 
Q 308.248525 5.402104 309.697841 5.409587 
Q 311.147158 5.41714 312.641068 5.433235 
L 312.641068 5.365044 
z
" clip-path="url(#pabf6ad34ca)" style="fill: #0000ff"/>
   </g>
   <g id="patch_78">
    <path d="M 312.641068 21.264977 
Q 310.856045 13.473627 308.936153 9.560164 
Q 307.016261 5.682277 304.969434 5.682277 
Q 300.34424 5.682277 297.642905 28.878443 
Q 294.941569 52.074609 294.941569 91.742898 
Q 294.941569 131.873688 297.690505 154.891969 
Q 300.443408 177.91025 305.231238 177.91025 
Q 307.075762 177.91025 308.765584 174.779479 
Q 310.459373 171.684286 311.958793 165.565052 
L 311.958793 131.233303 
Q 310.411772 139.095807 308.880619 142.973694 
Q 307.349466 146.887157 305.810379 146.887157 
Q 302.962275 146.887157 301.419221 132.585227 
Q 299.876167 118.318873 299.876167 91.742898 
Q 299.876167 65.415962 301.363687 51.042877 
Q 302.851207 36.70537 305.588242 36.70537 
Q 306.333986 36.70537 306.972627 37.523639 
Q 307.611269 38.377486 308.119009 40.156333 
L 308.119009 72.389042 
L 305.203471 72.389042 
L 305.203471 101.099634 
L 312.641068 101.099634 
L 312.641068 21.264977 
z
" clip-path="url(#pabf6ad34ca)" style="fill: #ffa600"/>
   </g>
   <g id="patch_79">
    <path d="M 325.83308 5.991877 
L 319.026137 5.991877 
L 317.951356 5.402068 
L 313.572621 5.402068 
L 319.825889 8.639777 
L 325.018852 8.639777 
L 331.27212 5.402068 
L 326.897004 5.402068 
L 325.83308 5.991877 
z
M 320.111774 6.59279 
L 324.736586 6.59279 
L 322.427799 7.880657 
L 320.111774 6.59279 
z
" clip-path="url(#pabf6ad34ca)" style="fill: #008000"/>
   </g>
   <g id="patch_80">
    <path d="M 331.27212 21.800131 
Q 329.791588 15.276843 328.19065 11.977273 
Q 326.589713 8.639777 324.846074 8.639777 
Q 319.646372 8.639777 316.609497 33.36759 
Q 313.572621 58.095404 313.572621 100.382999 
Q 313.572621 142.822299 316.609497 167.512186 
Q 319.646372 192.24 324.846074 192.24 
Q 326.589713 192.24 328.19065 188.902504 
Q 329.791588 185.602933 331.27212 179.079645 
L 331.27212 142.480964 
Q 329.778209 151.128114 328.328893 155.14828 
Q 326.879576 159.168446 325.278639 159.168446 
Q 322.406763 159.168446 320.761231 143.504969 
Q 319.120159 127.879418 319.120159 100.382999 
Q 319.120159 73.000359 320.761231 57.336882 
Q 322.406763 41.711331 325.278639 41.711331 
Q 326.879576 41.711331 328.328893 45.731497 
Q 329.778209 49.789589 331.27212 58.436739 
L 331.27212 21.800131 
z
" clip-path="url(#pabf6ad34ca)" style="fill: #0000ff"/>
   </g>
   <g id="patch_81">
    <path d="M 313.572621 5.402068 
L 331.27212 5.402068 
L 331.27212 5.39007 
L 324.904417 5.39007 
L 324.904417 5.34055 
L 319.952673 5.34055 
L 319.952673 5.39007 
L 313.572621 5.39007 
L 313.572621 5.402068 
z
" clip-path="url(#pabf6ad34ca)" style="fill: #ff0000"/>
   </g>
   <g id="patch_82">
    <path d="M 344.464131 12.876496 
L 337.657188 12.876496 
L 336.582408 8.545105 
L 332.203673 8.545105 
L 338.456941 32.321898 
L 343.649904 32.321898 
L 349.903172 8.545105 
L 345.528056 8.545105 
L 344.464131 12.876496 
z
M 338.742825 17.28942 
L 343.367638 17.28942 
L 341.058851 26.747142 
L 338.742825 17.28942 
z
" clip-path="url(#pabf6ad34ca)" style="fill: #008000"/>
   </g>
   <g id="patch_83">
    <path d="M 349.903172 5.57025 
Q 348.422639 5.456393 346.821702 5.398802 
Q 345.220765 5.34055 343.477126 5.34055 
Q 338.277424 5.34055 335.240548 5.772148 
Q 332.203673 6.203747 332.203673 6.941834 
Q 332.203673 7.682569 335.240548 8.113506 
Q 338.277424 8.545105 343.477126 8.545105 
Q 345.220765 8.545105 346.821702 8.486852 
Q 348.422639 8.429261 349.903172 8.315404 
L 349.903172 7.676611 
Q 348.409261 7.827539 346.959945 7.897706 
Q 345.510628 7.967874 343.909691 7.967874 
Q 341.037814 7.967874 339.392283 7.694484 
Q 337.75121 7.421756 337.75121 6.941834 
Q 337.75121 6.463898 339.392283 6.190508 
Q 341.037814 5.91778 343.909691 5.91778 
Q 345.510628 5.91778 346.959945 5.987948 
Q 348.409261 6.058778 349.903172 6.209705 
L 349.903172 5.57025 
z
" clip-path="url(#pabf6ad34ca)" style="fill: #0000ff"/>
   </g>
   <g id="patch_84">
    <path d="M 349.903172 36.38653 
Q 348.118149 34.354214 346.198257 33.333416 
Q 344.278365 32.321898 342.231538 32.321898 
Q 337.606344 32.321898 334.905008 38.372447 
Q 332.203673 44.422996 332.203673 54.770177 
Q 332.203673 65.237998 334.952609 71.242147 
Q 337.705512 77.246296 342.493341 77.246296 
Q 344.337866 77.246296 346.027688 76.429658 
Q 347.721477 75.622299 349.220896 74.026142 
L 349.220896 65.070958 
Q 347.673876 67.121835 346.142723 68.133353 
Q 344.611569 69.154151 343.072482 69.154151 
Q 340.224378 69.154151 338.681325 65.423598 
Q 337.138271 61.702324 337.138271 54.770177 
Q 337.138271 47.90299 338.62579 44.153876 
Q 340.11331 40.414043 342.850346 40.414043 
Q 343.596089 40.414043 344.234731 40.627483 
Q 344.873373 40.850202 345.381113 41.314202 
L 345.381113 49.721866 
L 342.465574 49.721866 
L 342.465574 57.210813 
L 349.903172 57.210813 
L 349.903172 36.38653 
z
" clip-path="url(#pabf6ad34ca)" style="fill: #ffa600"/>
   </g>
   <g id="patch_85">
    <path d="M 368.534224 44.612238 
Q 367.053691 42.288077 365.452754 41.112484 
Q 363.851817 39.923379 362.108177 39.923379 
Q 356.908476 39.923379 353.8716 48.733569 
Q 350.834725 57.543759 350.834725 72.610265 
Q 350.834725 87.730821 353.8716 96.527499 
Q 356.908476 105.337689 362.108177 105.337689 
Q 363.851817 105.337689 365.452754 104.148584 
Q 367.053691 102.972991 368.534224 100.64883 
L 368.534224 87.609208 
Q 367.040313 90.690072 365.590996 92.122404 
Q 364.14168 93.554735 362.540743 93.554735 
Q 359.668866 93.554735 358.023334 87.974048 
Q 356.382262 82.406872 356.382262 72.610265 
Q 356.382262 62.854196 358.023334 57.273508 
Q 359.668866 51.706332 362.540743 51.706332 
Q 364.14168 51.706332 365.590996 53.138664 
Q 367.040313 54.584508 368.534224 57.665372 
L 368.534224 44.612238 
z
" clip-path="url(#pabf6ad34ca)" style="fill: #0000ff"/>
   </g>
   <g id="patch_86">
    <path d="M 368.534224 8.469506 
Q 366.7492 6.905028 364.829308 6.119217 
Q 362.909416 5.34055 360.86259 5.34055 
Q 356.237396 5.34055 353.53606 9.998266 
Q 350.834725 14.655982 350.834725 22.621249 
Q 350.834725 30.679384 353.583661 35.301381 
Q 356.336563 39.923379 361.124393 39.923379 
Q 362.968917 39.923379 364.658739 39.29473 
Q 366.352528 38.673225 367.851948 37.444502 
L 367.851948 30.550796 
Q 366.304928 32.129562 364.773774 32.908229 
Q 363.242621 33.69404 361.703534 33.69404 
Q 358.85543 33.69404 357.312376 30.822258 
Q 355.769323 27.95762 355.769323 22.621249 
Q 355.769323 17.334883 357.256842 14.448814 
Q 358.744362 11.569888 361.481398 11.569888 
Q 362.227141 11.569888 362.865783 11.734194 
Q 363.504424 11.905644 364.012164 12.26283 
L 364.012164 18.735056 
L 361.096626 18.735056 
L 361.096626 24.500051 
L 368.534224 24.500051 
L 368.534224 8.469506 
z
" clip-path="url(#pabf6ad34ca)" style="fill: #ffa600"/>
   </g>
   <g id="patch_87">
    <path d="M 381.726235 9.399484 
L 374.919292 9.399484 
L 373.844512 8.55725 
L 369.465776 8.55725 
L 375.719044 13.18062 
L 380.912007 13.18062 
L 387.165275 8.55725 
L 382.790159 8.55725 
L 381.726235 9.399484 
z
M 376.004929 10.257572 
L 380.629742 10.257572 
L 378.320954 12.096616 
L 376.004929 10.257572 
z
" clip-path="url(#pabf6ad34ca)" style="fill: #008000"/>
   </g>
   <g id="patch_88">
    <path d="M 387.165275 25.604405 
Q 385.684743 23.856724 384.083806 22.972723 
Q 382.482868 22.078561 380.739229 22.078561 
Q 375.539527 22.078561 372.502652 28.703491 
Q 369.465776 35.328421 369.465776 46.657865 
Q 369.465776 58.027952 372.502652 64.642721 
Q 375.539527 71.267651 380.739229 71.267651 
Q 382.482868 71.267651 384.083806 70.373489 
Q 385.684743 69.489487 387.165275 67.741807 
L 387.165275 57.936503 
Q 385.671365 60.253197 384.222048 61.330256 
Q 382.772732 62.407315 381.171794 62.407315 
Q 378.299918 62.407315 376.654386 58.210849 
Q 375.013314 54.024543 375.013314 46.657865 
Q 375.013314 39.321669 376.654386 35.125202 
Q 378.299918 30.938897 381.171794 30.938897 
Q 382.772732 30.938897 384.222048 32.015956 
Q 385.671365 33.103176 387.165275 35.41987 
L 387.165275 25.604405 
z
" clip-path="url(#pabf6ad34ca)" style="fill: #0000ff"/>
   </g>
   <g id="patch_89">
    <path d="M 387.165275 13.985681 
Q 385.380252 13.583151 383.46036 13.380967 
Q 381.540468 13.18062 379.493641 13.18062 
Q 374.868447 13.18062 372.167112 14.379021 
Q 369.465776 15.577422 369.465776 17.626834 
Q 369.465776 19.70014 372.214712 20.88935 
Q 374.967615 22.078561 379.755445 22.078561 
Q 381.599969 22.078561 383.289791 21.916813 
Q 384.98358 21.756904 386.483 21.440762 
L 386.483 19.667055 
Q 384.93598 20.073262 383.404826 20.273608 
Q 381.873673 20.475792 380.334586 20.475792 
Q 377.486482 20.475792 375.943428 19.736901 
Q 374.400374 18.999848 374.400374 17.626834 
Q 374.400374 16.266686 375.887894 15.524118 
Q 377.375414 14.783389 380.112449 14.783389 
Q 380.858193 14.783389 381.496834 14.825664 
Q 382.135476 14.869777 382.643216 14.961679 
L 382.643216 16.626941 
L 379.727678 16.626941 
L 379.727678 18.110237 
L 387.165275 18.110237 
L 387.165275 13.985681 
z
" clip-path="url(#pabf6ad34ca)" style="fill: #ffa600"/>
   </g>
   <g id="patch_90">
    <path d="M 369.465776 8.55725 
L 387.165275 8.55725 
L 387.165275 7.929904 
L 380.797572 7.929904 
L 380.797572 5.34055 
L 375.845828 5.34055 
L 375.845828 7.929904 
L 369.465776 7.929904 
L 369.465776 8.55725 
z
" clip-path="url(#pabf6ad34ca)" style="fill: #ff0000"/>
   </g>
   <g id="patch_91">
    <path d="M 400.357287 5.418273 
L 393.550344 5.418273 
L 392.475563 5.34055 
L 388.096828 5.34055 
L 394.350096 5.767205 
L 399.543059 5.767205 
L 405.796327 5.34055 
L 401.421211 5.34055 
L 400.357287 5.418273 
z
M 394.635981 5.497459 
L 399.260793 5.497459 
L 396.952006 5.66717 
L 394.635981 5.497459 
z
" clip-path="url(#pabf6ad34ca)" style="fill: #008000"/>
   </g>
   <g id="patch_92">
    <path d="M 405.796327 29.548626 
Q 404.315795 27.704069 402.714857 26.771066 
Q 401.11392 25.827339 399.370281 25.827339 
Q 394.170579 25.827339 391.133704 32.819498 
Q 388.096828 39.811657 388.096828 51.769108 
Q 388.096828 63.769455 391.133704 70.75089 
Q 394.170579 77.743049 399.370281 77.743049 
Q 401.11392 77.743049 402.714857 76.799322 
Q 404.315795 75.86632 405.796327 74.021762 
L 405.796327 63.672937 
Q 404.302416 66.118048 402.8531 67.25481 
Q 401.403783 68.391573 399.802846 68.391573 
Q 396.93097 68.391573 395.285438 63.96249 
Q 393.644366 59.544132 393.644366 51.769108 
Q 393.644366 44.026256 395.285438 39.597174 
Q 396.93097 35.178816 399.802846 35.178816 
Q 401.403783 35.178816 402.8531 36.315578 
Q 404.302416 37.463064 405.796327 39.908175 
L 405.796327 29.548626 
z
" clip-path="url(#pabf6ad34ca)" style="fill: #0000ff"/>
   </g>
   <g id="patch_93">
    <path d="M 405.796327 7.582189 
Q 404.011304 6.674697 402.091412 6.218879 
Q 400.17152 5.767205 398.124693 5.767205 
Q 393.499499 5.767205 390.798164 8.468962 
Q 388.096828 11.170719 388.096828 15.791056 
Q 388.096828 20.465262 390.845764 23.1463 
Q 393.598667 25.827339 398.386497 25.827339 
Q 400.231021 25.827339 401.920843 25.462684 
Q 403.614632 25.102174 405.114052 24.38944 
L 405.114052 20.390674 
Q 403.567031 21.306453 402.035878 21.758127 
Q 400.504724 22.213945 398.965637 22.213945 
Q 396.117533 22.213945 394.57448 20.548138 
Q 393.031426 18.886474 393.031426 15.791056 
Q 393.031426 12.724644 394.518946 11.050549 
Q 396.006465 9.380598 398.743501 9.380598 
Q 399.489244 9.380598 400.127886 9.475905 
Q 400.766528 9.575356 401.274268 9.782546 
L 401.274268 13.536829 
L 398.35873 13.536829 
L 398.35873 16.880875 
L 405.796327 16.880875 
L 405.796327 7.582189 
z
" clip-path="url(#pabf6ad34ca)" style="fill: #ffa600"/>
   </g>
   <g id="patch_94">
    <path d="M 424.427379 37.369891 
Q 422.946846 36.272475 421.345909 35.717386 
Q 419.744972 35.155917 418.001333 35.155917 
Q 412.801631 35.155917 409.764755 39.315892 
Q 406.72788 43.475866 406.72788 50.589933 
Q 406.72788 57.729521 409.764755 61.883115 
Q 412.801631 66.04309 418.001333 66.04309 
Q 419.744972 66.04309 421.345909 65.481621 
Q 422.946846 64.926532 424.427379 63.829116 
L 424.427379 57.672098 
Q 422.933468 59.126813 421.484152 59.803128 
Q 420.034835 60.479443 418.433898 60.479443 
Q 415.562021 60.479443 413.91649 57.844367 
Q 412.275417 55.215671 412.275417 50.589933 
Q 412.275417 45.983335 413.91649 43.34826 
Q 415.562021 40.719564 418.433898 40.719564 
Q 420.034835 40.719564 421.484152 41.395879 
Q 422.933468 42.078574 424.427379 43.533289 
L 424.427379 37.369891 
z
" clip-path="url(#pabf6ad34ca)" style="fill: #0000ff"/>
   </g>
   <g id="patch_95">
    <path d="M 424.427379 8.299751 
Q 422.642356 6.963957 420.722464 6.29301 
Q 418.802572 5.628163 416.755745 5.628163 
Q 412.130551 5.628163 409.429215 9.605047 
Q 406.72788 13.581931 406.72788 20.382891 
Q 406.72788 27.263144 409.476816 31.209531 
Q 412.229719 35.155917 417.017548 35.155917 
Q 418.862073 35.155917 420.551895 34.61916 
Q 422.245684 34.088502 423.745103 33.039385 
L 423.745103 27.153353 
Q 422.198083 28.501346 420.66693 29.166193 
Q 419.135776 29.83714 417.596689 29.83714 
Q 414.748585 29.83714 413.205532 27.385134 
Q 411.662478 24.939229 411.662478 20.382891 
Q 411.662478 15.869249 413.149997 13.405045 
Q 414.637517 10.94694 417.374553 10.94694 
Q 418.120296 10.94694 418.758938 11.087229 
Q 419.39758 11.233617 419.90532 11.538593 
L 419.90532 17.064754 
L 416.989781 17.064754 
L 416.989781 21.987063 
L 424.427379 21.987063 
L 424.427379 8.299751 
z
" clip-path="url(#pabf6ad34ca)" style="fill: #ffa600"/>
   </g>
   <g id="patch_96">
    <path d="M 406.72788 5.628163 
L 424.427379 5.628163 
L 424.427379 5.57207 
L 418.059675 5.57207 
L 418.059675 5.34055 
L 413.107932 5.34055 
L 413.107932 5.57207 
L 406.72788 5.57207 
L 406.72788 5.628163 
z
" clip-path="url(#pabf6ad34ca)" style="fill: #ff0000"/>
   </g>
   <g id="patch_97">
    <path d="M 443.058431 26.931655 
Q 441.577898 25.252914 439.976961 24.403783 
Q 438.376024 23.544891 436.632384 23.544891 
Q 431.432683 23.544891 428.395807 29.908494 
Q 425.358932 36.272097 425.358932 47.154639 
Q 425.358932 58.076221 428.395807 64.430064 
Q 431.432683 70.793666 436.632384 70.793666 
Q 438.376024 70.793666 439.976961 69.934775 
Q 441.577898 69.085644 443.058431 67.406902 
L 443.058431 57.98838 
Q 441.56452 60.213689 440.115203 61.248262 
Q 438.665887 62.282836 437.06495 62.282836 
Q 434.193073 62.282836 432.547541 58.251903 
Q 430.906469 54.230731 430.906469 47.154639 
Q 430.906469 40.107827 432.547541 36.076894 
Q 434.193073 32.055722 437.06495 32.055722 
Q 438.665887 32.055722 440.115203 33.090296 
Q 441.56452 34.134629 443.058431 36.359938 
L 443.058431 26.931655 
z
" clip-path="url(#pabf6ad34ca)" style="fill: #0000ff"/>
   </g>
   <g id="patch_98">
    <path d="M 443.058431 8.028426 
Q 441.273407 7.256655 439.353515 6.869008 
Q 437.433623 6.484885 435.386797 6.484885 
Q 430.761603 6.484885 428.060267 8.782576 
Q 425.358932 11.080268 425.358932 15.009602 
Q 425.358932 18.984749 428.107868 21.26482 
Q 430.86077 23.544891 435.6486 23.544891 
Q 437.493124 23.544891 439.182946 23.234774 
Q 440.876735 22.92818 442.376155 22.32204 
L 442.376155 18.921316 
Q 440.829135 19.700135 439.297981 20.084258 
Q 437.766828 20.471905 436.227741 20.471905 
Q 433.379637 20.471905 431.836583 19.05523 
Q 430.29353 17.64208 430.29353 15.009602 
Q 430.29353 12.401793 431.781049 10.97807 
Q 433.268569 9.557871 436.005605 9.557871 
Q 436.751348 9.557871 437.38999 9.638924 
Q 438.028631 9.723502 438.536371 9.899705 
L 438.536371 13.09251 
L 435.620833 13.09251 
L 435.620833 15.936432 
L 443.058431 15.936432 
L 443.058431 8.028426 
z
" clip-path="url(#pabf6ad34ca)" style="fill: #ffa600"/>
   </g>
   <g id="patch_99">
    <path d="M 425.358932 6.484885 
L 443.058431 6.484885 
L 443.058431 6.261708 
L 436.690727 6.261708 
L 436.690727 5.34055 
L 431.738984 5.34055 
L 431.738984 6.261708 
L 425.358932 6.261708 
L 425.358932 6.484885 
z
" clip-path="url(#pabf6ad34ca)" style="fill: #ff0000"/>
   </g>
   <g id="patch_100">
    <path d="M 461.689482 30.08219 
Q 460.20895 28.88769 458.608013 28.283496 
Q 457.007075 27.672356 455.263436 27.672356 
Q 450.063734 27.672356 447.026859 32.200344 
Q 443.989983 36.728332 443.989983 44.471746 
Q 443.989983 52.242939 447.026859 56.763982 
Q 450.063734 61.29197 455.263436 61.29197 
Q 457.007075 61.29197 458.608013 60.68083 
Q 460.20895 60.076635 461.689482 58.882136 
L 461.689482 52.180436 
Q 460.195572 53.763843 458.746255 54.499988 
Q 457.296939 55.236133 455.696001 55.236133 
Q 452.824125 55.236133 451.178593 52.367945 
Q 449.537521 49.506701 449.537521 44.471746 
Q 449.537521 39.457625 451.178593 36.589436 
Q 452.824125 33.728193 455.696001 33.728193 
Q 457.296939 33.728193 458.746255 34.464338 
Q 460.195572 35.207428 461.689482 36.790834 
L 461.689482 30.08219 
z
" clip-path="url(#pabf6ad34ca)" style="fill: #0000ff"/>
   </g>
   <g id="patch_101">
    <path d="M 461.689482 7.361068 
Q 459.904459 6.350809 457.984567 5.843373 
Q 456.064675 5.34055 454.017848 5.34055 
Q 449.392654 5.34055 446.691319 8.348262 
Q 443.989983 11.355975 443.989983 16.499533 
Q 443.989983 21.703061 446.738919 24.687709 
Q 449.491822 27.672356 454.279652 27.672356 
Q 456.124176 27.672356 457.813998 27.266407 
Q 459.507787 26.865071 461.007207 26.071626 
L 461.007207 21.620026 
Q 459.460187 22.639512 457.929033 23.142335 
Q 456.39788 23.649771 454.858793 23.649771 
Q 452.010689 23.649771 450.467635 21.795322 
Q 448.924581 19.945487 448.924581 16.499533 
Q 448.924581 13.085872 450.412101 11.222197 
Q 451.899621 9.363135 454.636656 9.363135 
Q 455.3824 9.363135 456.021041 9.469235 
Q 456.659683 9.579949 457.167423 9.810601 
L 457.167423 13.990031 
L 454.251885 13.990031 
L 454.251885 17.712767 
L 461.689482 17.712767 
L 461.689482 7.361068 
z
" clip-path="url(#pabf6ad34ca)" style="fill: #ffa600"/>
   </g>
   <g id="patch_102">
    <path d="M 480.320534 25.374957 
Q 478.840002 23.786979 477.239064 22.983758 
Q 475.638127 22.171304 473.894488 22.171304 
Q 468.694786 22.171304 465.657911 28.190849 
Q 462.621035 34.210395 462.621035 44.504557 
Q 462.621035 54.835649 465.657911 60.845962 
Q 468.694786 66.865508 473.894488 66.865508 
Q 475.638127 66.865508 477.239064 66.053054 
Q 478.840002 65.249832 480.320534 63.661854 
L 480.320534 54.752557 
Q 478.826623 56.857551 477.377307 57.836189 
Q 475.92799 58.814827 474.327053 58.814827 
Q 471.455177 58.814827 469.809645 55.001832 
Q 468.168573 51.19807 468.168573 44.504557 
Q 468.168573 37.838741 469.809645 34.025746 
Q 471.455177 30.221984 474.327053 30.221984 
Q 475.92799 30.221984 477.377307 31.200622 
Q 478.826623 32.188492 480.320534 34.293487 
L 480.320534 25.374957 
z
" clip-path="url(#pabf6ad34ca)" style="fill: #0000ff"/>
   </g>
   <g id="patch_103">
    <path d="M 480.320534 6.863349 
Q 478.535511 6.101949 476.615619 5.719511 
Q 474.695727 5.34055 472.6489 5.34055 
Q 468.023706 5.34055 465.322371 7.607365 
Q 462.621035 9.87418 462.621035 13.750711 
Q 462.621035 17.672441 465.369971 19.921872 
Q 468.122874 22.171304 472.910704 22.171304 
Q 474.755228 22.171304 476.44505 21.865353 
Q 478.138839 21.562879 479.638259 20.964885 
L 479.638259 17.60986 
Q 478.091238 18.378213 476.560085 18.757174 
Q 475.028931 19.139612 473.489844 19.139612 
Q 470.64174 19.139612 469.098687 17.741975 
Q 467.555633 16.347814 467.555633 13.750711 
Q 467.555633 11.177946 469.043153 9.773355 
Q 470.530672 8.372241 473.267708 8.372241 
Q 474.013451 8.372241 474.652093 8.452205 
Q 475.290735 8.535646 475.798475 8.709482 
L 475.798475 11.859381 
L 472.882937 11.859381 
L 472.882937 14.665086 
L 480.320534 14.665086 
L 480.320534 6.863349 
z
" clip-path="url(#pabf6ad34ca)" style="fill: #ffa600"/>
   </g>
   <g id="patch_104">
    <path d="M 498.951586 30.484907 
Q 497.471053 29.125663 495.870116 28.438138 
Q 494.269179 27.742711 492.52554 27.742711 
Q 487.325838 27.742711 484.288962 32.895194 
Q 481.252087 38.047678 481.252087 46.859056 
Q 481.252087 55.702045 484.288962 60.846625 
Q 487.325838 65.999109 492.52554 65.999109 
Q 494.269179 65.999109 495.870116 65.303682 
Q 497.471053 64.616157 498.951586 63.256913 
L 498.951586 55.630922 
Q 497.457675 57.43271 496.008359 58.270384 
Q 494.559042 59.108058 492.958105 59.108058 
Q 490.086228 59.108058 488.440697 55.844291 
Q 486.799624 52.588428 486.799624 46.859056 
Q 486.799624 41.153392 488.440697 37.889626 
Q 490.086228 34.633762 492.958105 34.633762 
Q 494.559042 34.633762 496.008359 35.471436 
Q 497.457675 36.317012 498.951586 38.118801 
L 498.951586 30.484907 
z
" clip-path="url(#pabf6ad34ca)" style="fill: #0000ff"/>
   </g>
   <g id="patch_105">
    <path d="M 498.951586 7.367434 
Q 497.166563 6.353992 495.246671 5.844957 
Q 493.326779 5.34055 491.279952 5.34055 
Q 486.654758 5.34055 483.953422 8.357738 
Q 481.252087 11.374926 481.252087 16.534689 
Q 481.252087 21.75461 484.001023 24.748661 
Q 486.753926 27.742711 491.541755 27.742711 
Q 493.38628 27.742711 495.076102 27.335483 
Q 496.769891 26.932883 498.26931 26.136938 
L 498.26931 21.671313 
Q 496.72229 22.694011 495.191137 23.198418 
Q 493.659983 23.707453 492.120896 23.707453 
Q 489.272792 23.707453 487.729739 21.847162 
Q 486.186685 19.991498 486.186685 16.534689 
Q 486.186685 13.110273 487.674205 11.240726 
Q 489.161724 9.375808 491.89876 9.375808 
Q 492.644503 9.375808 493.283145 9.482242 
Q 493.921787 9.593304 494.429527 9.824684 
L 494.429527 14.01728 
L 491.513988 14.01728 
L 491.513988 17.751745 
L 498.951586 17.751745 
L 498.951586 7.367434 
z
" clip-path="url(#pabf6ad34ca)" style="fill: #ffa600"/>
   </g>
   <g id="patch_106">
    <path d="M 517.582638 27.842542 
Q 516.102105 26.533153 514.501168 25.870846 
Q 512.900231 25.200927 511.156591 25.200927 
Q 505.95689 25.200927 502.920014 30.164423 
Q 499.883139 35.127919 499.883139 43.616106 
Q 499.883139 52.134744 502.920014 57.090627 
Q 505.95689 62.054123 511.156591 62.054123 
Q 512.900231 62.054123 514.501168 61.384203 
Q 516.102105 60.721896 517.582638 59.412508 
L 517.582638 52.066229 
Q 516.088727 53.80193 514.63941 54.608879 
Q 513.190094 55.415828 511.589157 55.415828 
Q 508.71728 55.415828 507.071748 52.271773 
Q 505.430676 49.135331 505.430676 43.616106 
Q 505.430676 38.119719 507.071748 34.975664 
Q 508.71728 31.839222 511.589157 31.839222 
Q 513.190094 31.839222 514.63941 32.646171 
Q 516.088727 33.460732 517.582638 35.196433 
L 517.582638 27.842542 
z
" clip-path="url(#pabf6ad34ca)" style="fill: #0000ff"/>
   </g>
   <g id="patch_107">
    <path d="M 517.582638 7.13746 
Q 515.797614 6.239005 513.877722 5.787726 
Q 511.957831 5.34055 509.911004 5.34055 
Q 505.28581 5.34055 502.584474 8.015403 
Q 499.883139 10.690257 499.883139 15.264584 
Q 499.883139 19.892245 502.632075 22.546586 
Q 505.384978 25.200927 510.172807 25.200927 
Q 512.017331 25.200927 513.707153 24.839903 
Q 515.400942 24.482983 516.900362 23.777347 
L 516.900362 19.818399 
Q 515.353342 20.72506 513.822188 21.172236 
Q 512.291035 21.623515 510.751948 21.623515 
Q 507.903844 21.623515 506.36079 19.974296 
Q 504.817737 18.329179 504.817737 15.264584 
Q 504.817737 12.228708 506.305256 10.571283 
Q 507.792776 8.917961 510.529812 8.917961 
Q 511.275555 8.917961 511.914197 9.012319 
Q 512.552838 9.11078 513.060578 9.315907 
L 513.060578 13.032805 
L 510.14504 13.032805 
L 510.14504 16.343551 
L 517.582638 16.343551 
L 517.582638 7.13746 
z
" clip-path="url(#pabf6ad34ca)" style="fill: #ffa600"/>
   </g>
   <g id="patch_108">
    <path d="M 536.213689 26.713703 
Q 534.733157 25.624966 533.13222 25.074268 
Q 531.531282 24.517241 529.787643 24.517241 
Q 524.587941 24.517241 521.551066 28.64431 
Q 518.51419 32.77138 518.51419 39.829176 
Q 518.51419 46.912292 521.551066 51.033032 
Q 524.587941 55.160101 529.787643 55.160101 
Q 531.531282 55.160101 533.13222 54.603074 
Q 534.733157 54.052376 536.213689 52.963639 
L 536.213689 46.855323 
Q 534.719779 48.298531 533.270462 48.969497 
Q 531.821146 49.640462 530.220208 49.640462 
Q 527.348332 49.640462 525.7028 47.026229 
Q 524.061728 44.418326 524.061728 39.829176 
Q 524.061728 35.259016 525.7028 32.644783 
Q 527.348332 30.03688 530.220208 30.03688 
Q 531.821146 30.03688 533.270462 30.707845 
Q 534.719779 31.385141 536.213689 32.828349 
L 536.213689 26.713703 
z
" clip-path="url(#pabf6ad34ca)" style="fill: #0000ff"/>
   </g>
   <g id="patch_109">
    <path d="M 536.213689 7.075602 
Q 534.428666 6.208076 532.508774 5.772332 
Q 530.588882 5.34055 528.542055 5.34055 
Q 523.916861 5.34055 521.215526 7.923322 
Q 518.51419 10.506095 518.51419 14.922953 
Q 518.51419 19.391308 521.263126 21.954274 
Q 524.016029 24.517241 528.803859 24.517241 
Q 530.648383 24.517241 532.338205 24.168645 
Q 534.031994 23.824012 535.531414 23.142667 
L 535.531414 19.320005 
Q 533.984394 20.195454 532.45324 20.627236 
Q 530.922087 21.06298 529.383 21.06298 
Q 526.534896 21.06298 524.991842 19.470534 
Q 523.448788 17.88205 523.448788 14.922953 
Q 523.448788 11.991585 524.936308 10.391217 
Q 526.423828 8.79481 529.160864 8.79481 
Q 529.906607 8.79481 530.545248 8.88592 
Q 531.18389 8.980991 531.69163 9.179057 
L 531.69163 12.768002 
L 528.776092 12.768002 
L 528.776092 15.964777 
L 536.213689 15.964777 
L 536.213689 7.075602 
z
" clip-path="url(#pabf6ad34ca)" style="fill: #ffa600"/>
   </g>
   <g id="patch_110">
    <path d="M 554.844741 26.217815 
Q 553.364209 24.615749 551.763271 23.805402 
Q 550.162334 22.985741 548.418695 22.985741 
Q 543.218993 22.985741 540.182118 29.058687 
Q 537.145242 35.131634 537.145242 45.517118 
Q 537.145242 55.939859 540.182118 62.003492 
Q 543.218993 68.076438 548.418695 68.076438 
Q 550.162334 68.076438 551.763271 67.256777 
Q 553.364209 66.44643 554.844741 64.844364 
L 554.844741 55.85603 
Q 553.35083 57.979699 551.901514 58.967018 
Q 550.452197 59.954338 548.85126 59.954338 
Q 545.979384 59.954338 544.333852 56.107517 
Q 542.69278 52.270011 542.69278 45.517118 
Q 542.69278 38.792168 544.333852 34.945347 
Q 545.979384 31.107841 548.85126 31.107841 
Q 550.452197 31.107841 551.901514 32.095161 
Q 553.35083 33.091794 554.844741 35.215463 
L 554.844741 26.217815 
z
" clip-path="url(#pabf6ad34ca)" style="fill: #0000ff"/>
   </g>
   <g id="patch_111">
    <path d="M 554.844741 6.937037 
Q 553.059718 6.138793 551.139826 5.737849 
Q 549.219934 5.34055 547.173107 5.34055 
Q 542.547913 5.34055 539.846578 7.717055 
Q 537.145242 10.093561 537.145242 14.157678 
Q 537.145242 18.269178 539.894178 20.62746 
Q 542.647081 22.985741 547.434911 22.985741 
Q 549.279435 22.985741 550.969257 22.664985 
Q 552.663046 22.347875 554.162466 21.720944 
L 554.162466 18.203569 
Q 552.615445 19.009103 551.084292 19.406402 
Q 549.553138 19.807346 548.014052 19.807346 
Q 545.165947 19.807346 543.622894 18.342077 
Q 542.07984 16.880453 542.07984 14.157678 
Q 542.07984 11.460416 543.56736 9.987858 
Q 545.054879 8.518944 547.791915 8.518944 
Q 548.537658 8.518944 549.1763 8.602778 
Q 549.814942 8.690256 550.322682 8.872504 
L 550.322682 12.174826 
L 547.407144 12.174826 
L 547.407144 15.116299 
L 554.844741 15.116299 
L 554.844741 6.937037 
z
" clip-path="url(#pabf6ad34ca)" style="fill: #ffa600"/>
   </g>
   <g id="patch_112">
    <path d="M 573.475793 25.041868 
Q 571.99526 24.022794 570.394323 23.507332 
Q 568.793386 22.985946 567.049747 22.985946 
Q 561.850045 22.985946 558.813169 26.848947 
Q 555.776294 30.711948 555.776294 37.318154 
Q 555.776294 43.948059 558.813169 47.805136 
Q 561.850045 51.668137 567.049747 51.668137 
Q 568.793386 51.668137 570.394323 51.14675 
Q 571.99526 50.631289 573.475793 49.612215 
L 573.475793 43.894736 
Q 571.981882 45.245601 570.532566 45.873635 
Q 569.083249 46.501669 567.482312 46.501669 
Q 564.610435 46.501669 562.964904 44.054707 
Q 561.323831 41.613669 561.323831 37.318154 
Q 561.323831 33.040413 562.964904 30.593451 
Q 564.610435 28.152413 567.482312 28.152413 
Q 569.083249 28.152413 570.532566 28.780447 
Q 571.981882 29.414406 573.475793 30.765272 
L 573.475793 25.041868 
z
" clip-path="url(#pabf6ad34ca)" style="fill: #0000ff"/>
   </g>
   <g id="patch_113">
    <path d="M 573.475793 6.937055 
Q 571.69077 6.138802 569.770878 5.737853 
Q 567.850986 5.34055 565.804159 5.34055 
Q 561.178965 5.34055 558.477629 7.717083 
Q 555.776294 10.093616 555.776294 14.15778 
Q 555.776294 18.269329 558.52523 20.627637 
Q 561.278133 22.985946 566.065962 22.985946 
Q 567.910487 22.985946 569.600309 22.665186 
Q 571.294098 22.348072 572.793517 21.721134 
L 572.793517 18.203719 
Q 571.246497 19.009262 569.715344 19.406565 
Q 568.18419 19.807514 566.645103 19.807514 
Q 563.796999 19.807514 562.253946 18.342228 
Q 560.710892 16.880588 560.710892 14.15778 
Q 560.710892 11.460488 562.198412 9.987912 
Q 563.685931 8.518981 566.422967 8.518981 
Q 567.16871 8.518981 567.807352 8.602816 
Q 568.445994 8.690295 568.953734 8.872545 
L 568.953734 12.174906 
L 566.038195 12.174906 
L 566.038195 15.116412 
L 573.475793 15.116412 
L 573.475793 6.937055 
z
" clip-path="url(#pabf6ad34ca)" style="fill: #ffa600"/>
   </g>
   <g id="patch_114">
    <path d="M 592.106845 20.350713 
Q 590.626312 19.212817 589.025375 18.637254 
Q 587.424438 18.055075 585.680798 18.055075 
Q 580.481097 18.055075 577.444221 22.368493 
Q 574.407346 26.68191 574.407346 34.058384 
Q 574.407346 41.46132 577.444221 45.768122 
Q 580.481097 50.08154 585.680798 50.08154 
Q 587.424438 50.08154 589.025375 49.499361 
Q 590.626312 48.923798 592.106845 47.785902 
L 592.106845 41.401779 
Q 590.612934 42.910152 589.163617 43.611414 
Q 587.714301 44.312675 586.113364 44.312675 
Q 583.241487 44.312675 581.595955 41.580402 
Q 579.954883 38.854746 579.954883 34.058384 
Q 579.954883 29.281869 581.595955 26.549597 
Q 583.241487 23.82394 586.113364 23.82394 
Q 587.714301 23.82394 589.163617 24.525202 
Q 590.612934 25.233078 592.106845 26.741451 
L 592.106845 20.350713 
z
" clip-path="url(#pabf6ad34ca)" style="fill: #0000ff"/>
   </g>
   <g id="patch_115">
    <path d="M 592.106845 6.490924 
Q 590.321821 5.915737 588.401929 5.62683 
Q 586.482038 5.34055 584.435211 5.34055 
Q 579.810017 5.34055 577.108681 7.052979 
Q 574.407346 8.765408 574.407346 11.693873 
Q 574.407346 14.65648 577.156282 16.355778 
Q 579.909185 18.055075 584.697014 18.055075 
Q 586.541538 18.055075 588.23136 17.823949 
Q 589.925149 17.59545 591.424569 17.143705 
L 591.424569 14.609205 
Q 589.877549 15.189645 588.346395 15.475925 
Q 586.815242 15.764832 585.276155 15.764832 
Q 582.428051 15.764832 580.884997 14.709009 
Q 579.341944 13.655812 579.341944 11.693873 
Q 579.341944 9.750318 580.829463 8.689242 
Q 582.316983 7.630793 585.054019 7.630793 
Q 585.799762 7.630793 586.438404 7.6912 
Q 587.077045 7.754235 587.584785 7.885556 
L 587.584785 10.265097 
L 584.669247 10.265097 
L 584.669247 12.384622 
L 592.106845 12.384622 
L 592.106845 6.490924 
z
" clip-path="url(#pabf6ad34ca)" style="fill: #ffa600"/>
   </g>
   <g id="patch_116">
    <path d="M 610.737896 22.023791 
Q 609.257364 20.996221 607.656427 20.476462 
Q 606.055489 19.950728 604.31185 19.950728 
Q 599.112148 19.950728 596.075273 23.845935 
Q 593.038397 27.741141 593.038397 34.402422 
Q 593.038397 41.087599 596.075273 44.976831 
Q 599.112148 48.872038 604.31185 48.872038 
Q 606.055489 48.872038 607.656427 48.346304 
Q 609.257364 47.826545 610.737896 46.798975 
L 610.737896 41.033831 
Q 609.243986 42.395959 607.794669 43.029228 
Q 606.345353 43.662498 604.744415 43.662498 
Q 601.872539 43.662498 600.227007 41.195136 
Q 598.585935 38.733748 598.585935 34.402422 
Q 598.585935 30.089018 600.227007 27.621656 
Q 601.872539 25.160268 604.744415 25.160268 
Q 606.345353 25.160268 607.794669 25.793538 
Q 609.243986 26.432782 610.737896 27.794909 
L 610.737896 22.023791 
z
" clip-path="url(#pabf6ad34ca)" style="fill: #0000ff"/>
   </g>
   <g id="patch_117">
    <path d="M 610.737896 6.662437 
Q 608.952873 6.001493 607.032981 5.669512 
Q 605.113089 5.34055 603.066262 5.34055 
Q 598.441068 5.34055 595.739733 7.308291 
Q 593.038397 9.276033 593.038397 12.641112 
Q 593.038397 16.045426 595.787333 17.998077 
Q 598.540236 19.950728 603.328066 19.950728 
Q 605.17259 19.950728 606.862412 19.685144 
Q 608.556201 19.422577 610.055621 18.90348 
L 610.055621 15.991101 
Q 608.508601 16.658081 606.977447 16.987044 
Q 605.446294 17.319025 603.907207 17.319025 
Q 601.059103 17.319025 599.516049 16.105786 
Q 597.972995 14.895564 597.972995 12.641112 
Q 597.972995 10.407786 599.460515 9.18851 
Q 600.948035 7.972253 603.685071 7.972253 
Q 604.430814 7.972253 605.069455 8.041667 
Q 605.708097 8.114099 606.215837 8.265 
L 606.215837 10.999315 
L 603.300299 10.999315 
L 603.300299 13.434848 
L 610.737896 13.434848 
L 610.737896 6.662437 
z
" clip-path="url(#pabf6ad34ca)" style="fill: #ffa600"/>
   </g>
   <g id="patch_118">
    <path d="M 629.368948 19.05083 
Q 627.888416 17.846726 626.287478 17.237672 
Q 624.686541 16.621619 622.942902 16.621619 
Q 617.7432 16.621619 614.706325 21.186016 
Q 611.669449 25.750414 611.669449 33.556094 
Q 611.669449 41.389776 614.706325 45.947173 
Q 617.7432 50.511571 622.942902 50.511571 
Q 624.686541 50.511571 626.287478 49.895517 
Q 627.888416 49.286464 629.368948 48.082359 
L 629.368948 41.326771 
Q 627.875037 42.92291 626.425721 43.664974 
Q 624.976404 44.407039 623.375467 44.407039 
Q 620.503591 44.407039 618.858059 41.515787 
Q 617.216987 38.631536 617.216987 33.556094 
Q 617.216987 28.501654 618.858059 25.610402 
Q 620.503591 22.726151 623.375467 22.726151 
Q 624.976404 22.726151 626.425721 23.468215 
Q 627.875037 24.21728 629.368948 25.813419 
L 629.368948 19.05083 
z
" clip-path="url(#pabf6ad34ca)" style="fill: #0000ff"/>
   </g>
   <g id="patch_119">
    <path d="M 629.368948 6.361229 
Q 627.583925 5.850889 625.664033 5.594554 
Q 623.744141 5.34055 621.697314 5.34055 
Q 617.07212 5.34055 614.370785 6.859917 
Q 611.669449 8.379284 611.669449 10.977589 
Q 611.669449 13.606187 614.418385 15.113903 
Q 617.171288 16.621619 621.959118 16.621619 
Q 623.803642 16.621619 625.493464 16.416551 
Q 627.187253 16.213813 628.686673 15.812999 
L 628.686673 13.564242 
Q 627.139652 14.079242 625.608499 14.333247 
Q 624.077345 14.589582 622.538259 14.589582 
Q 619.690154 14.589582 618.147101 13.652794 
Q 616.604047 12.718336 616.604047 10.977589 
Q 616.604047 9.253153 618.091567 8.311705 
Q 619.579086 7.372587 622.316122 7.372587 
Q 623.061865 7.372587 623.700507 7.426184 
Q 624.339149 7.482112 624.846889 7.598628 
L 624.846889 9.709896 
L 621.931351 9.709896 
L 621.931351 11.590462 
L 629.368948 11.590462 
L 629.368948 6.361229 
z
" clip-path="url(#pabf6ad34ca)" style="fill: #ffa600"/>
   </g>
   <g id="patch_120">
    <path d="M 648 18.962 
Q 646.519467 17.738681 644.91853 17.119909 
Q 643.317593 16.494026 641.573954 16.494026 
Q 636.374252 16.494026 633.337376 21.131256 
Q 630.300501 25.768487 630.300501 33.698721 
Q 630.300501 41.657404 633.337376 46.287522 
Q 636.374252 50.924753 641.573954 50.924753 
Q 643.317593 50.924753 644.91853 50.298869 
Q 646.519467 49.680097 648 48.456779 
L 648 41.593393 
Q 646.506089 43.215001 645.056773 43.968907 
Q 643.607456 44.722812 642.006519 44.722812 
Q 639.134642 44.722812 637.489111 41.785425 
Q 635.848038 38.855151 635.848038 33.698721 
Q 635.848038 28.563628 637.489111 25.626241 
Q 639.134642 22.695966 642.006519 22.695966 
Q 643.607456 22.695966 645.056773 23.449872 
Q 646.506089 24.21089 648 25.832498 
L 648 18.962 
z
" clip-path="url(#pabf6ad34ca)" style="fill: #0000ff"/>
   </g>
   <g id="patch_121">
    <path d="M 648 6.349685 
Q 646.214977 5.845117 644.295085 5.591681 
Q 642.375193 5.34055 640.328366 5.34055 
Q 635.703172 5.34055 633.001836 6.842732 
Q 630.300501 8.344915 630.300501 10.913832 
Q 630.300501 13.5127 633.049437 15.003363 
Q 635.80234 16.494026 640.590169 16.494026 
Q 642.434694 16.494026 644.124516 16.291277 
Q 645.818305 16.090832 647.317724 15.694551 
L 647.317724 13.471228 
Q 645.770704 13.980404 644.239551 14.231536 
Q 642.708397 14.484971 641.16931 14.484971 
Q 638.321206 14.484971 636.778153 13.558779 
Q 635.235099 12.634891 635.235099 10.913832 
Q 635.235099 9.2089 636.722619 8.2781 
Q 638.210138 7.349604 640.947174 7.349604 
Q 641.692917 7.349604 642.331559 7.402595 
Q 642.970201 7.45789 643.477941 7.573088 
L 643.477941 9.660477 
L 640.562402 9.660477 
L 640.562402 11.519773 
L 648 11.519773 
L 648 6.349685 
z
" clip-path="url(#pabf6ad34ca)" style="fill: #ffa600"/>
   </g>
   <g id="matplotlib.axis_1">
    <g id="xtick_1">
     <g id="line2d_2">
      <defs>
       <path id="mefb9a6f1bb" d="M 0 0 
L 0 3.5 
" style="stroke: #000000; stroke-width: 0.8"/>
      </defs>
      <g>
       <use xlink:href="#mefb9a6f1bb" x="98.84975" y="192.24" style="stroke: #000000; stroke-width: 0.8"/>
      </g>
     </g>
     <g id="text_1">
      <!-- 0 -->
      <g transform="translate(95.6685 206.838437) scale(0.1 -0.1)">
       <defs>
        <path id="DejaVuSans-30" d="M 2034 4250 
Q 1547 4250 1301 3770 
Q 1056 3291 1056 2328 
Q 1056 1369 1301 889 
Q 1547 409 2034 409 
Q 2525 409 2770 889 
Q 3016 1369 3016 2328 
Q 3016 3291 2770 3770 
Q 2525 4250 2034 4250 
z
M 2034 4750 
Q 2819 4750 3233 4129 
Q 3647 3509 3647 2328 
Q 3647 1150 3233 529 
Q 2819 -91 2034 -91 
Q 1250 -91 836 529 
Q 422 1150 422 2328 
Q 422 3509 836 4129 
Q 1250 4750 2034 4750 
z
" transform="scale(0.015625)"/>
       </defs>
       <use xlink:href="#DejaVuSans-30"/>
      </g>
     </g>
    </g>
    <g id="xtick_2">
     <g id="line2d_3">
      <g>
       <use xlink:href="#mefb9a6f1bb" x="192.005008" y="192.24" style="stroke: #000000; stroke-width: 0.8"/>
      </g>
     </g>
     <g id="text_2">
      <!-- 5 -->
      <g transform="translate(188.823758 206.838437) scale(0.1 -0.1)">
       <defs>
        <path id="DejaVuSans-35" d="M 691 4666 
L 3169 4666 
L 3169 4134 
L 1269 4134 
L 1269 2991 
Q 1406 3038 1543 3061 
Q 1681 3084 1819 3084 
Q 2600 3084 3056 2656 
Q 3513 2228 3513 1497 
Q 3513 744 3044 326 
Q 2575 -91 1722 -91 
Q 1428 -91 1123 -41 
Q 819 9 494 109 
L 494 744 
Q 775 591 1075 516 
Q 1375 441 1709 441 
Q 2250 441 2565 725 
Q 2881 1009 2881 1497 
Q 2881 1984 2565 2268 
Q 2250 2553 1709 2553 
Q 1456 2553 1204 2497 
Q 953 2441 691 2322 
L 691 4666 
z
" transform="scale(0.015625)"/>
       </defs>
       <use xlink:href="#DejaVuSans-35"/>
      </g>
     </g>
    </g>
    <g id="xtick_3">
     <g id="line2d_4">
      <g>
       <use xlink:href="#mefb9a6f1bb" x="285.160267" y="192.24" style="stroke: #000000; stroke-width: 0.8"/>
      </g>
     </g>
     <g id="text_3">
      <!-- 10 -->
      <g transform="translate(278.797767 206.838437) scale(0.1 -0.1)">
       <defs>
        <path id="DejaVuSans-31" d="M 794 531 
L 1825 531 
L 1825 4091 
L 703 3866 
L 703 4441 
L 1819 4666 
L 2450 4666 
L 2450 531 
L 3481 531 
L 3481 0 
L 794 0 
L 794 531 
z
" transform="scale(0.015625)"/>
       </defs>
       <use xlink:href="#DejaVuSans-31"/>
       <use xlink:href="#DejaVuSans-30" x="63.623047"/>
      </g>
     </g>
    </g>
    <g id="xtick_4">
     <g id="line2d_5">
      <g>
       <use xlink:href="#mefb9a6f1bb" x="378.315526" y="192.24" style="stroke: #000000; stroke-width: 0.8"/>
      </g>
     </g>
     <g id="text_4">
      <!-- 15 -->
      <g transform="translate(371.953026 206.838437) scale(0.1 -0.1)">
       <use xlink:href="#DejaVuSans-31"/>
       <use xlink:href="#DejaVuSans-35" x="63.623047"/>
      </g>
     </g>
    </g>
    <g id="xtick_5">
     <g id="line2d_6">
      <g>
       <use xlink:href="#mefb9a6f1bb" x="471.470785" y="192.24" style="stroke: #000000; stroke-width: 0.8"/>
      </g>
     </g>
     <g id="text_5">
      <!-- 20 -->
      <g transform="translate(465.108285 206.838437) scale(0.1 -0.1)">
       <defs>
        <path id="DejaVuSans-32" d="M 1228 531 
L 3431 531 
L 3431 0 
L 469 0 
L 469 531 
Q 828 903 1448 1529 
Q 2069 2156 2228 2338 
Q 2531 2678 2651 2914 
Q 2772 3150 2772 3378 
Q 2772 3750 2511 3984 
Q 2250 4219 1831 4219 
Q 1534 4219 1204 4116 
Q 875 4013 500 3803 
L 500 4441 
Q 881 4594 1212 4672 
Q 1544 4750 1819 4750 
Q 2544 4750 2975 4387 
Q 3406 4025 3406 3419 
Q 3406 3131 3298 2873 
Q 3191 2616 2906 2266 
Q 2828 2175 2409 1742 
Q 1991 1309 1228 531 
z
" transform="scale(0.015625)"/>
       </defs>
       <use xlink:href="#DejaVuSans-32"/>
       <use xlink:href="#DejaVuSans-30" x="63.623047"/>
      </g>
     </g>
    </g>
    <g id="xtick_6">
     <g id="line2d_7">
      <g>
       <use xlink:href="#mefb9a6f1bb" x="564.626043" y="192.24" style="stroke: #000000; stroke-width: 0.8"/>
      </g>
     </g>
     <g id="text_6">
      <!-- 25 -->
      <g transform="translate(558.263543 206.838437) scale(0.1 -0.1)">
       <use xlink:href="#DejaVuSans-32"/>
       <use xlink:href="#DejaVuSans-35" x="63.623047"/>
      </g>
     </g>
    </g>
   </g>
   <g id="matplotlib.axis_2">
    <g id="ytick_1">
     <g id="line2d_8">
      <defs>
       <path id="md39e12e177" d="M 0 0 
L -3.5 0 
" style="stroke: #000000; stroke-width: 0.8"/>
      </defs>
      <g>
       <use xlink:href="#md39e12e177" x="90" y="187.248725" style="stroke: #000000; stroke-width: 0.8"/>
      </g>
     </g>
     <g id="text_7">
      <!-- 0.008 -->
      <g transform="translate(45.992188 191.047943) scale(0.1 -0.1)">
       <defs>
        <path id="DejaVuSans-2212" d="M 678 2272 
L 4684 2272 
L 4684 1741 
L 678 1741 
L 678 2272 
z
" transform="scale(0.015625)"/>
        <path id="DejaVuSans-2e" d="M 684 794 
L 1344 794 
L 1344 0 
L 684 0 
L 684 794 
z
" transform="scale(0.015625)"/>
        <path id="DejaVuSans-38" d="M 2034 2216 
Q 1584 2216 1326 1975 
Q 1069 1734 1069 1313 
Q 1069 891 1326 650 
Q 1584 409 2034 409 
Q 2484 409 2743 651 
Q 3003 894 3003 1313 
Q 3003 1734 2745 1975 
Q 2488 2216 2034 2216 
z
M 1403 2484 
Q 997 2584 770 2862 
Q 544 3141 544 3541 
Q 544 4100 942 4425 
Q 1341 4750 2034 4750 
Q 2731 4750 3128 4425 
Q 3525 4100 3525 3541 
Q 3525 3141 3298 2862 
Q 3072 2584 2669 2484 
Q 3125 2378 3379 2068 
Q 3634 1759 3634 1313 
Q 3634 634 3220 271 
Q 2806 -91 2034 -91 
Q 1263 -91 848 271 
Q 434 634 434 1313 
Q 434 1759 690 2068 
Q 947 2378 1403 2484 
z
M 1172 3481 
Q 1172 3119 1398 2916 
Q 1625 2713 2034 2713 
Q 2441 2713 2670 2916 
Q 2900 3119 2900 3481 
Q 2900 3844 2670 4047 
Q 2441 4250 2034 4250 
Q 1625 4250 1398 4047 
Q 1172 3844 1172 3481 
z
" transform="scale(0.015625)"/>
       </defs>
       <use xlink:href="#DejaVuSans-2212"/>
       <use xlink:href="#DejaVuSans-30" x="83.789062"/>
       <use xlink:href="#DejaVuSans-2e" x="147.412109"/>
       <use xlink:href="#DejaVuSans-30" x="179.199219"/>
       <use xlink:href="#DejaVuSans-30" x="242.822266"/>
       <use xlink:href="#DejaVuSans-38" x="306.445312"/>
      </g>
     </g>
    </g>
    <g id="ytick_2">
     <g id="line2d_9">
      <g>
       <use xlink:href="#md39e12e177" x="90" y="164.510203" style="stroke: #000000; stroke-width: 0.8"/>
      </g>
     </g>
     <g id="text_8">
      <!-- 0.007 -->
      <g transform="translate(45.992188 168.309422) scale(0.1 -0.1)">
       <defs>
        <path id="DejaVuSans-37" d="M 525 4666 
L 3525 4666 
L 3525 4397 
L 1831 0 
L 1172 0 
L 2766 4134 
L 525 4134 
L 525 4666 
z
" transform="scale(0.015625)"/>
       </defs>
       <use xlink:href="#DejaVuSans-2212"/>
       <use xlink:href="#DejaVuSans-30" x="83.789062"/>
       <use xlink:href="#DejaVuSans-2e" x="147.412109"/>
       <use xlink:href="#DejaVuSans-30" x="179.199219"/>
       <use xlink:href="#DejaVuSans-30" x="242.822266"/>
       <use xlink:href="#DejaVuSans-37" x="306.445312"/>
      </g>
     </g>
    </g>
    <g id="ytick_3">
     <g id="line2d_10">
      <g>
       <use xlink:href="#md39e12e177" x="90" y="141.771681" style="stroke: #000000; stroke-width: 0.8"/>
      </g>
     </g>
     <g id="text_9">
      <!-- 0.006 -->
      <g transform="translate(45.992188 145.5709) scale(0.1 -0.1)">
       <defs>
        <path id="DejaVuSans-36" d="M 2113 2584 
Q 1688 2584 1439 2293 
Q 1191 2003 1191 1497 
Q 1191 994 1439 701 
Q 1688 409 2113 409 
Q 2538 409 2786 701 
Q 3034 994 3034 1497 
Q 3034 2003 2786 2293 
Q 2538 2584 2113 2584 
z
M 3366 4563 
L 3366 3988 
Q 3128 4100 2886 4159 
Q 2644 4219 2406 4219 
Q 1781 4219 1451 3797 
Q 1122 3375 1075 2522 
Q 1259 2794 1537 2939 
Q 1816 3084 2150 3084 
Q 2853 3084 3261 2657 
Q 3669 2231 3669 1497 
Q 3669 778 3244 343 
Q 2819 -91 2113 -91 
Q 1303 -91 875 529 
Q 447 1150 447 2328 
Q 447 3434 972 4092 
Q 1497 4750 2381 4750 
Q 2619 4750 2861 4703 
Q 3103 4656 3366 4563 
z
" transform="scale(0.015625)"/>
       </defs>
       <use xlink:href="#DejaVuSans-2212"/>
       <use xlink:href="#DejaVuSans-30" x="83.789062"/>
       <use xlink:href="#DejaVuSans-2e" x="147.412109"/>
       <use xlink:href="#DejaVuSans-30" x="179.199219"/>
       <use xlink:href="#DejaVuSans-30" x="242.822266"/>
       <use xlink:href="#DejaVuSans-36" x="306.445312"/>
      </g>
     </g>
    </g>
    <g id="ytick_4">
     <g id="line2d_11">
      <g>
       <use xlink:href="#md39e12e177" x="90" y="119.033159" style="stroke: #000000; stroke-width: 0.8"/>
      </g>
     </g>
     <g id="text_10">
      <!-- 0.005 -->
      <g transform="translate(45.992188 122.832378) scale(0.1 -0.1)">
       <use xlink:href="#DejaVuSans-2212"/>
       <use xlink:href="#DejaVuSans-30" x="83.789062"/>
       <use xlink:href="#DejaVuSans-2e" x="147.412109"/>
       <use xlink:href="#DejaVuSans-30" x="179.199219"/>
       <use xlink:href="#DejaVuSans-30" x="242.822266"/>
       <use xlink:href="#DejaVuSans-35" x="306.445312"/>
      </g>
     </g>
    </g>
    <g id="ytick_5">
     <g id="line2d_12">
      <g>
       <use xlink:href="#md39e12e177" x="90" y="96.294637" style="stroke: #000000; stroke-width: 0.8"/>
      </g>
     </g>
     <g id="text_11">
      <!-- 0.004 -->
      <g transform="translate(45.992188 100.093856) scale(0.1 -0.1)">
       <defs>
        <path id="DejaVuSans-34" d="M 2419 4116 
L 825 1625 
L 2419 1625 
L 2419 4116 
z
M 2253 4666 
L 3047 4666 
L 3047 1625 
L 3713 1625 
L 3713 1100 
L 3047 1100 
L 3047 0 
L 2419 0 
L 2419 1100 
L 313 1100 
L 313 1709 
L 2253 4666 
z
" transform="scale(0.015625)"/>
       </defs>
       <use xlink:href="#DejaVuSans-2212"/>
       <use xlink:href="#DejaVuSans-30" x="83.789062"/>
       <use xlink:href="#DejaVuSans-2e" x="147.412109"/>
       <use xlink:href="#DejaVuSans-30" x="179.199219"/>
       <use xlink:href="#DejaVuSans-30" x="242.822266"/>
       <use xlink:href="#DejaVuSans-34" x="306.445312"/>
      </g>
     </g>
    </g>
    <g id="ytick_6">
     <g id="line2d_13">
      <g>
       <use xlink:href="#md39e12e177" x="90" y="73.556115" style="stroke: #000000; stroke-width: 0.8"/>
      </g>
     </g>
     <g id="text_12">
      <!-- 0.003 -->
      <g transform="translate(45.992188 77.355334) scale(0.1 -0.1)">
       <defs>
        <path id="DejaVuSans-33" d="M 2597 2516 
Q 3050 2419 3304 2112 
Q 3559 1806 3559 1356 
Q 3559 666 3084 287 
Q 2609 -91 1734 -91 
Q 1441 -91 1130 -33 
Q 819 25 488 141 
L 488 750 
Q 750 597 1062 519 
Q 1375 441 1716 441 
Q 2309 441 2620 675 
Q 2931 909 2931 1356 
Q 2931 1769 2642 2001 
Q 2353 2234 1838 2234 
L 1294 2234 
L 1294 2753 
L 1863 2753 
Q 2328 2753 2575 2939 
Q 2822 3125 2822 3475 
Q 2822 3834 2567 4026 
Q 2313 4219 1838 4219 
Q 1578 4219 1281 4162 
Q 984 4106 628 3988 
L 628 4550 
Q 988 4650 1302 4700 
Q 1616 4750 1894 4750 
Q 2613 4750 3031 4423 
Q 3450 4097 3450 3541 
Q 3450 3153 3228 2886 
Q 3006 2619 2597 2516 
z
" transform="scale(0.015625)"/>
       </defs>
       <use xlink:href="#DejaVuSans-2212"/>
       <use xlink:href="#DejaVuSans-30" x="83.789062"/>
       <use xlink:href="#DejaVuSans-2e" x="147.412109"/>
       <use xlink:href="#DejaVuSans-30" x="179.199219"/>
       <use xlink:href="#DejaVuSans-30" x="242.822266"/>
       <use xlink:href="#DejaVuSans-33" x="306.445312"/>
      </g>
     </g>
    </g>
    <g id="ytick_7">
     <g id="line2d_14">
      <g>
       <use xlink:href="#md39e12e177" x="90" y="50.817593" style="stroke: #000000; stroke-width: 0.8"/>
      </g>
     </g>
     <g id="text_13">
      <!-- 0.002 -->
      <g transform="translate(45.992188 54.616812) scale(0.1 -0.1)">
       <use xlink:href="#DejaVuSans-2212"/>
       <use xlink:href="#DejaVuSans-30" x="83.789062"/>
       <use xlink:href="#DejaVuSans-2e" x="147.412109"/>
       <use xlink:href="#DejaVuSans-30" x="179.199219"/>
       <use xlink:href="#DejaVuSans-30" x="242.822266"/>
       <use xlink:href="#DejaVuSans-32" x="306.445312"/>
      </g>
     </g>
    </g>
    <g id="ytick_8">
     <g id="line2d_15">
      <g>
       <use xlink:href="#md39e12e177" x="90" y="28.079071" style="stroke: #000000; stroke-width: 0.8"/>
      </g>
     </g>
     <g id="text_14">
      <!-- 0.001 -->
      <g transform="translate(45.992188 31.87829) scale(0.1 -0.1)">
       <use xlink:href="#DejaVuSans-2212"/>
       <use xlink:href="#DejaVuSans-30" x="83.789062"/>
       <use xlink:href="#DejaVuSans-2e" x="147.412109"/>
       <use xlink:href="#DejaVuSans-30" x="179.199219"/>
       <use xlink:href="#DejaVuSans-30" x="242.822266"/>
       <use xlink:href="#DejaVuSans-31" x="306.445312"/>
      </g>
     </g>
    </g>
   </g>
  </g>
 </g>
 <defs>
  <clipPath id="pabf6ad34ca">
   <rect x="90" y="25.92" width="558" height="166.32"/>
  </clipPath>
 </defs>
</svg>
