<?xml version="1.0" encoding="utf-8" standalone="no"?>
<!DOCTYPE svg PUBLIC "-//W3C//DTD SVG 1.1//EN"
  "http://www.w3.org/Graphics/SVG/1.1/DTD/svg11.dtd">
<svg xmlns:xlink="http://www.w3.org/1999/xlink" width="720pt" height="216pt" viewBox="0 0 720 216" xmlns="http://www.w3.org/2000/svg" version="1.1">
 <metadata>
  <rdf:RDF xmlns:dc="http://purl.org/dc/elements/1.1/" xmlns:cc="http://creativecommons.org/ns#" xmlns:rdf="http://www.w3.org/1999/02/22-rdf-syntax-ns#">
   <cc:Work>
    <dc:type rdf:resource="http://purl.org/dc/dcmitype/StillImage"/>
    <dc:date>2024-11-23T04:45:15.234385</dc:date>
    <dc:format>image/svg+xml</dc:format>
    <dc:creator>
     <cc:Agent>
      <dc:title>Matplotlib v3.7.2, https://matplotlib.org/</dc:title>
     </cc:Agent>
    </dc:creator>
   </cc:Work>
  </rdf:RDF>
 </metadata>
 <defs>
  <style type="text/css">*{stroke-linejoin: round; stroke-linecap: butt}</style>
 </defs>
 <g id="figure_1">
  <g id="patch_1">
   <path d="M 0 216 
L 720 216 
L 720 0 
L 0 0 
z
" style="fill: #ffffff"/>
  </g>
  <g id="axes_1">
   <g id="patch_2">
    <path d="M 90 192.24 
L 648 192.24 
L 648 25.92 
L 90 25.92 
z
" style="fill: #ffffff"/>
   </g>
   <g id="line2d_1">
    <path d="M 90 26.543962 
L 648 26.543962 
" clip-path="url(#p9f8bce8ad5)" style="fill: none; stroke: #000000; stroke-width: 0.5; stroke-linecap: square"/>
   </g>
   <g id="patch_3">
    <path d="M 130.934363 26.202971 
Q 126.806065 26.373466 122.365852 26.459103 
Q 117.925639 26.543962 113.191858 26.543962 
Q 102.49498 26.543962 96.24749 26.036368 
Q 90 25.528774 90 24.660726 
Q 90 23.782557 96.357578 23.278856 
Q 102.72433 22.775155 113.797341 22.775155 
Q 118.063249 22.775155 121.97137 22.843664 
Q 125.888666 22.911395 129.356436 23.045301 
L 129.356436 23.796571 
Q 125.778578 23.624518 122.237416 23.53966 
Q 118.696254 23.454023 115.136745 23.454023 
Q 108.549817 23.454023 104.981133 23.766987 
Q 101.412449 24.079173 101.412449 24.660726 
Q 101.412449 25.23683 104.852697 25.551351 
Q 108.292945 25.865094 114.623001 25.865094 
Q 116.347712 25.865094 117.824725 25.847188 
Q 119.301738 25.828503 120.476009 25.789578 
L 120.476009 25.08424 
L 113.733123 25.08424 
L 113.733123 24.455976 
L 130.934363 24.455976 
L 130.934363 26.202971 
z
" clip-path="url(#p9f8bce8ad5)" style="fill: #ffa600"/>
   </g>
   <g id="patch_4">
    <path d="M 130.934363 22.39211 
Q 127.510274 22.581976 123.80772 22.678014 
Q 120.105166 22.775155 116.07258 22.775155 
Q 104.047015 22.775155 97.023507 22.055427 
Q 90 21.3357 90 20.104878 
Q 90 18.869641 97.023507 18.151017 
Q 104.047015 17.43129 116.07258 17.43129 
Q 120.105166 17.43129 123.80772 17.528431 
Q 127.510274 17.624468 130.934363 17.814335 
L 130.934363 18.879575 
Q 127.479334 18.627892 124.127439 18.510881 
Q 120.775545 18.39387 117.072991 18.39387 
Q 110.431084 18.39387 106.625395 18.849771 
Q 102.83002 19.304568 102.83002 20.104878 
Q 102.83002 20.901877 106.625395 21.357778 
Q 110.431084 21.812575 117.072991 21.812575 
Q 120.775545 21.812575 124.127439 21.695564 
Q 127.479334 21.577449 130.934363 21.325765 
L 130.934363 22.39211 
z
" clip-path="url(#p9f8bce8ad5)" style="fill: #0000ff"/>
   </g>
   <g id="patch_5">
    <path d="M 174.023166 26.157099 
Q 169.894869 26.35053 165.454655 26.447688 
Q 161.014442 26.543962 156.280661 26.543962 
Q 145.583783 26.543962 139.336293 25.968083 
Q 133.088803 25.392205 133.088803 24.407382 
Q 133.088803 23.411078 139.446381 22.839616 
Q 145.813133 22.268153 156.886145 22.268153 
Q 161.152052 22.268153 165.060174 22.345879 
Q 168.977469 22.422722 172.445239 22.574641 
L 172.445239 23.426976 
Q 168.867381 23.231778 165.326219 23.135504 
Q 161.785058 23.038347 158.225548 23.038347 
Q 151.63862 23.038347 148.069936 23.393413 
Q 144.501252 23.747596 144.501252 24.407382 
Q 144.501252 25.060987 147.9415 25.417819 
Q 151.381748 25.773769 157.711804 25.773769 
Q 159.436515 25.773769 160.913528 25.753454 
Q 162.390541 25.732256 163.564812 25.688093 
L 163.564812 24.88787 
L 156.821927 24.88787 
L 156.821927 24.175088 
L 174.023166 24.175088 
L 174.023166 26.157099 
z
" clip-path="url(#p9f8bce8ad5)" style="fill: #ffa600"/>
   </g>
   <g id="patch_6">
    <path d="M 174.023166 21.420064 
Q 170.599077 21.840443 166.896523 22.053076 
Q 163.193969 22.268153 159.161383 22.268153 
Q 147.135818 22.268153 140.112311 20.674626 
Q 133.088803 19.081098 133.088803 16.355969 
Q 133.088803 13.621065 140.112311 12.029981 
Q 147.135818 10.436453 159.161383 10.436453 
Q 163.193969 10.436453 166.896523 10.651531 
Q 170.599077 10.864164 174.023166 11.284542 
L 174.023166 13.643061 
Q 170.568137 13.085816 167.216242 12.826745 
Q 163.864348 12.567675 160.161794 12.567675 
Q 153.519887 12.567675 149.714198 13.577072 
Q 145.918823 14.584025 145.918823 16.355969 
Q 145.918823 18.120582 149.714198 19.129979 
Q 153.519887 20.136932 160.161794 20.136932 
Q 163.864348 20.136932 167.216242 19.877862 
Q 170.568137 19.616347 174.023166 19.059101 
L 174.023166 21.420064 
z
" clip-path="url(#p9f8bce8ad5)" style="fill: #0000ff"/>
   </g>
   <g id="patch_7">
    <path d="M 260.200772 26.209592 
Q 256.776683 26.375332 253.07413 26.459165 
Q 249.371576 26.543962 245.338989 26.543962 
Q 233.313424 26.543962 226.289917 25.915694 
Q 219.266409 25.287426 219.266409 24.213011 
Q 219.266409 23.134741 226.289917 22.507437 
Q 233.313424 21.879169 245.338989 21.879169 
Q 249.371576 21.879169 253.07413 21.963966 
Q 256.776683 22.047799 260.200772 22.213539 
L 260.200772 23.143414 
Q 256.745743 22.923713 253.393849 22.821571 
Q 250.041954 22.719429 246.339401 22.719429 
Q 239.697493 22.719429 235.891804 23.117396 
Q 232.096429 23.5144 232.096429 24.213011 
Q 232.096429 24.908731 235.891804 25.306698 
Q 239.697493 25.703702 246.339401 25.703702 
Q 250.041954 25.703702 253.393849 25.60156 
Q 256.745743 25.498455 260.200772 25.278754 
L 260.200772 26.209592 
z
" clip-path="url(#p9f8bce8ad5)" style="fill: #0000ff"/>
   </g>
   <g id="patch_8">
    <path d="M 303.289575 26.23227 
Q 299.161278 26.388116 294.721065 26.466395 
Q 290.280851 26.543962 285.54707 26.543962 
Q 274.850193 26.543962 268.602703 26.079983 
Q 262.355212 25.616004 262.355212 24.822543 
Q 262.355212 24.019831 268.71279 23.55941 
Q 275.079543 23.09899 286.152554 23.09899 
Q 290.418461 23.09899 294.326583 23.161613 
Q 298.243878 23.223524 301.711648 23.345923 
L 301.711648 24.03264 
Q 298.13379 23.875372 294.592629 23.797804 
Q 291.051467 23.719526 287.491957 23.719526 
Q 280.905029 23.719526 277.336345 24.005599 
Q 273.767661 24.29096 273.767661 24.822543 
Q 273.767661 25.349145 277.207909 25.636641 
Q 280.648157 25.923426 286.978213 25.923426 
Q 288.702924 25.923426 290.179937 25.907058 
Q 291.65695 25.889979 292.831222 25.854398 
L 292.831222 25.209667 
L 286.088336 25.209667 
L 286.088336 24.635386 
L 303.289575 24.635386 
L 303.289575 26.23227 
z
" clip-path="url(#p9f8bce8ad5)" style="fill: #ffa600"/>
   </g>
   <g id="patch_9">
    <path d="M 346.378378 26.530481 
Q 342.250081 26.537221 337.809868 26.540607 
Q 333.369654 26.543962 328.635873 26.543962 
Q 317.938996 26.543962 311.691506 26.523894 
Q 305.444015 26.503827 305.444015 26.469509 
Q 305.444015 26.434791 311.801594 26.414878 
Q 318.168346 26.394964 329.241357 26.394964 
Q 333.507264 26.394964 337.415386 26.397673 
Q 341.332681 26.40035 344.800451 26.405644 
L 344.800451 26.435345 
Q 341.222594 26.428543 337.681432 26.425188 
Q 334.14027 26.421803 330.58076 26.421803 
Q 323.993832 26.421803 320.425148 26.434176 
Q 316.856464 26.446518 316.856464 26.469509 
Q 316.856464 26.492285 320.296712 26.504719 
Q 323.73696 26.517123 330.067016 26.517123 
Q 331.791727 26.517123 333.26874 26.516415 
Q 334.745754 26.515676 335.920025 26.514138 
L 335.920025 26.486252 
L 329.177139 26.486252 
L 329.177139 26.461414 
L 346.378378 26.461414 
L 346.378378 26.530481 
z
" clip-path="url(#p9f8bce8ad5)" style="fill: #ffa600"/>
   </g>
   <g id="patch_10">
    <path d="M 346.378378 26.131943 
Q 342.95429 26.262316 339.251736 26.328261 
Q 335.549182 26.394964 331.516595 26.394964 
Q 319.49103 26.394964 312.467523 25.900756 
Q 305.444015 25.406549 305.444015 24.561393 
Q 305.444015 23.713206 312.467523 23.219756 
Q 319.49103 22.725549 331.516595 22.725549 
Q 335.549182 22.725549 339.251736 22.792252 
Q 342.95429 22.858196 346.378378 22.98857 
L 346.378378 23.720028 
Q 342.923349 23.547207 339.571455 23.46686 
Q 336.219561 23.386513 332.517007 23.386513 
Q 325.8751 23.386513 322.069411 23.699562 
Q 318.274035 24.011853 318.274035 24.561393 
Q 318.274035 25.10866 322.069411 25.421709 
Q 325.8751 25.733999 332.517007 25.733999 
Q 336.219561 25.733999 339.571455 25.653653 
Q 342.923349 25.572548 346.378378 25.399727 
L 346.378378 26.131943 
z
" clip-path="url(#p9f8bce8ad5)" style="fill: #0000ff"/>
   </g>
   <g id="patch_11">
    <path d="M 475.644788 26.448175 
Q 471.51649 26.496068 467.076277 26.520124 
Q 462.636064 26.543962 457.902283 26.543962 
Q 447.205405 26.543962 440.957915 26.401375 
Q 434.710425 26.258788 434.710425 26.014947 
Q 434.710425 25.768263 441.068003 25.62677 
Q 447.434755 25.485277 458.507766 25.485277 
Q 462.773674 25.485277 466.681795 25.504522 
Q 470.599091 25.523548 474.066861 25.561163 
L 474.066861 25.7722 
Q 470.489003 25.723869 466.947841 25.700032 
Q 463.406679 25.675976 459.847169 25.675976 
Q 453.260241 25.675976 449.691558 25.76389 
Q 446.122874 25.851585 446.122874 26.014947 
Q 446.122874 26.176779 449.563122 26.26513 
Q 453.00337 26.353263 459.333426 26.353263 
Q 461.058137 26.353263 462.53515 26.348233 
Q 464.012163 26.342984 465.186434 26.33205 
L 465.186434 26.133915 
L 458.443548 26.133915 
L 458.443548 25.957431 
L 475.644788 25.957431 
L 475.644788 26.448175 
z
" clip-path="url(#p9f8bce8ad5)" style="fill: #ffa600"/>
   </g>
   <g id="patch_12">
    <path d="M 561.822394 26.347906 
Q 558.398305 26.445086 554.695751 26.494242 
Q 550.993197 26.543962 546.960611 26.543962 
Q 534.935046 26.543962 527.911538 26.175581 
Q 520.888031 25.8072 520.888031 25.177223 
Q 520.888031 24.544986 527.911538 24.17717 
Q 534.935046 23.808789 546.960611 23.808789 
Q 550.993197 23.808789 554.695751 23.858509 
Q 558.398305 23.907664 561.822394 24.004844 
L 561.822394 24.550071 
Q 558.367364 24.421251 555.01547 24.36136 
Q 551.663576 24.30147 547.961022 24.30147 
Q 541.319115 24.30147 537.513426 24.534816 
Q 533.71805 24.767597 533.71805 25.177223 
Q 533.71805 25.585154 537.513426 25.8185 
Q 541.319115 26.05128 547.961022 26.05128 
Q 551.663576 26.05128 555.01547 25.99139 
Q 558.367364 25.930935 561.822394 25.802115 
L 561.822394 26.347906 
z
" clip-path="url(#p9f8bce8ad5)" style="fill: #0000ff"/>
   </g>
   <g id="patch_13">
    <path d="M 604.911197 26.028129 
Q 601.487108 26.283816 597.784554 26.413145 
Q 594.082 26.543962 590.049414 26.543962 
Q 578.023849 26.543962 571.000341 25.574732 
Q 563.976834 24.605502 563.976834 22.948 
Q 563.976834 21.284552 571.000341 20.316809 
Q 578.023849 19.347579 590.049414 19.347579 
Q 594.082 19.347579 597.784554 19.478395 
Q 601.487108 19.607725 604.911197 19.863411 
L 604.911197 21.297931 
Q 601.456168 20.958998 598.104273 20.801424 
Q 594.752379 20.64385 591.049825 20.64385 
Q 584.407918 20.64385 580.602229 21.257794 
Q 576.806854 21.870252 576.806854 22.948 
Q 576.806854 24.021288 580.602229 24.635233 
Q 584.407918 25.247691 591.049825 25.247691 
Q 594.752379 25.247691 598.104273 25.090117 
Q 601.456168 24.931056 604.911197 24.592123 
L 604.911197 26.028129 
z
" clip-path="url(#p9f8bce8ad5)" style="fill: #0000ff"/>
   </g>
   <g id="patch_14">
    <path d="M 648 25.828887 
Q 644.575911 26.183333 640.873357 26.362617 
Q 637.170803 26.543962 633.138217 26.543962 
Q 621.112652 26.543962 614.089145 25.200362 
Q 607.065637 23.856763 607.065637 21.559043 
Q 607.065637 19.25308 614.089145 17.911541 
Q 621.112652 16.567942 633.138217 16.567942 
Q 637.170803 16.567942 640.873357 16.749286 
Q 644.575911 16.92857 648 17.283017 
L 648 19.271627 
Q 644.544971 18.801779 641.193076 18.583341 
Q 637.841182 18.364903 634.138628 18.364903 
Q 627.496721 18.364903 623.691032 19.215987 
Q 619.895657 20.06501 619.895657 21.559043 
Q 619.895657 23.046894 623.691032 23.897977 
Q 627.496721 24.747 634.138628 24.747 
Q 637.841182 24.747 641.193076 24.528563 
Q 644.544971 24.308064 648 23.838216 
L 648 25.828887 
z
" clip-path="url(#p9f8bce8ad5)" style="fill: #0000ff"/>
   </g>
   <g id="patch_15">
    <path d="M 118.355269 27.288984 
L 102.612571 27.288984 
L 100.126882 26.543962 
L 90 26.543962 
L 104.462192 30.633694 
L 116.472171 30.633694 
L 130.934363 26.543962 
L 120.81585 26.543962 
L 118.355269 27.288984 
z
M 105.123368 28.048029 
L 115.819364 28.048029 
L 110.479735 29.674807 
L 105.123368 28.048029 
z
" clip-path="url(#p9f8bce8ad5)" style="fill: #008000"/>
   </g>
   <g id="patch_16">
    <path d="M 90 35.032672 
L 130.934363 35.032672 
L 130.934363 34.174749 
L 116.207512 34.174749 
L 116.207512 30.633694 
L 104.75541 30.633694 
L 104.75541 34.174749 
L 90 34.174749 
L 90 35.032672 
z
" clip-path="url(#p9f8bce8ad5)" style="fill: #ff0000"/>
   </g>
   <g id="patch_17">
    <path d="M 161.444072 35.085722 
L 145.701374 35.085722 
L 143.215685 33.16965 
L 133.088803 33.16965 
L 147.550995 43.687762 
L 159.560974 43.687762 
L 174.023166 33.16965 
L 163.904653 33.16965 
L 161.444072 35.085722 
z
M 148.212171 37.037862 
L 158.908167 37.037862 
L 153.568539 41.221663 
L 148.212171 37.037862 
z
" clip-path="url(#p9f8bce8ad5)" style="fill: #008000"/>
   </g>
   <g id="patch_18">
    <path d="M 133.088803 33.16965 
L 174.023166 33.16965 
L 174.023166 31.877456 
L 159.296315 31.877456 
L 159.296315 26.543962 
L 147.844213 26.543962 
L 147.844213 31.877456 
L 133.088803 31.877456 
L 133.088803 33.16965 
z
" clip-path="url(#p9f8bce8ad5)" style="fill: #ff0000"/>
   </g>
   <g id="patch_19">
    <path d="M 204.532875 34.624872 
L 188.790177 34.624872 
L 186.304488 32.115435 
L 176.177606 32.115435 
L 190.639798 45.89077 
L 202.649778 45.89077 
L 217.111969 32.115435 
L 206.993457 32.115435 
L 204.532875 34.624872 
z
M 191.300974 37.181546 
L 201.99697 37.181546 
L 196.657342 42.660976 
L 191.300974 37.181546 
z
" clip-path="url(#p9f8bce8ad5)" style="fill: #008000"/>
   </g>
   <g id="patch_20">
    <path d="M 217.111969 26.878126 
Q 213.68788 26.85464 209.985326 26.84276 
Q 206.282773 26.830744 202.250186 26.830744 
Q 190.224621 26.830744 183.201114 26.919773 
Q 176.177606 27.008802 176.177606 27.161052 
Q 176.177606 27.313849 183.201114 27.402742 
Q 190.224621 27.491771 202.250186 27.491771 
Q 206.282773 27.491771 209.985326 27.479754 
Q 213.68788 27.467875 217.111969 27.444389 
L 217.111969 27.31262 
Q 213.65694 27.343753 210.305046 27.358227 
Q 206.953151 27.372701 203.250598 27.372701 
Q 196.60869 27.372701 192.803001 27.316307 
Q 189.007626 27.260049 189.007626 27.161052 
Q 189.007626 27.062465 192.803001 27.006071 
Q 196.60869 26.949813 203.250598 26.949813 
Q 206.953151 26.949813 210.305046 26.964287 
Q 213.65694 26.978898 217.111969 27.010031 
L 217.111969 26.878126 
z
" clip-path="url(#p9f8bce8ad5)" style="fill: #0000ff"/>
   </g>
   <g id="patch_21">
    <path d="M 217.111969 26.569909 
Q 212.983672 26.556935 208.543458 26.550419 
Q 204.103245 26.543962 199.369464 26.543962 
Q 188.672587 26.543962 182.425096 26.582586 
Q 176.177606 26.621211 176.177606 26.687264 
Q 176.177606 26.754087 182.535184 26.792415 
Q 188.901936 26.830744 199.974948 26.830744 
Q 204.240855 26.830744 208.148977 26.825531 
Q 212.066272 26.820377 215.534042 26.810187 
L 215.534042 26.753021 
Q 211.956184 26.766113 208.415022 26.77257 
Q 204.873861 26.779086 201.314351 26.779086 
Q 194.727423 26.779086 191.158739 26.755272 
Q 187.590055 26.731516 187.590055 26.687264 
Q 187.590055 26.643426 191.030303 26.619493 
Q 194.470551 26.595619 200.800607 26.595619 
Q 202.525318 26.595619 204.002331 26.596982 
Q 205.479344 26.598403 206.653616 26.601365 
L 206.653616 26.655037 
L 199.91073 26.655037 
L 199.91073 26.702844 
L 217.111969 26.702844 
L 217.111969 26.569909 
z
" clip-path="url(#p9f8bce8ad5)" style="fill: #ffa600"/>
   </g>
   <g id="patch_22">
    <path d="M 176.177606 32.115435 
L 217.111969 32.115435 
L 217.111969 31.213691 
L 202.385118 31.213691 
L 202.385118 27.491771 
L 190.933016 27.491771 
L 190.933016 31.213691 
L 176.177606 31.213691 
L 176.177606 32.115435 
z
" clip-path="url(#p9f8bce8ad5)" style="fill: #ff0000"/>
   </g>
   <g id="patch_23">
    <path d="M 247.621678 42.570981 
L 231.87898 42.570981 
L 229.393291 37.732695 
L 219.266409 37.732695 
L 233.728601 64.292041 
L 245.738581 64.292041 
L 260.200772 37.732695 
L 250.08226 37.732695 
L 247.621678 42.570981 
z
M 234.389777 47.500341 
L 245.085773 47.500341 
L 239.746145 58.064882 
L 234.389777 47.500341 
z
" clip-path="url(#p9f8bce8ad5)" style="fill: #008000"/>
   </g>
   <g id="patch_24">
    <path d="M 260.200772 26.582654 
Q 256.072475 26.563308 251.632261 26.553591 
Q 247.192048 26.543962 242.458267 26.543962 
Q 231.76139 26.543962 225.513899 26.601558 
Q 219.266409 26.659155 219.266409 26.757652 
Q 219.266409 26.857298 225.623987 26.914453 
Q 231.990739 26.971608 243.063751 26.971608 
Q 247.329658 26.971608 251.23778 26.963834 
Q 255.155075 26.956149 258.622845 26.940955 
L 258.622845 26.855708 
Q 255.044987 26.875231 251.503826 26.88486 
Q 247.962664 26.894577 244.403154 26.894577 
Q 237.816226 26.894577 234.247542 26.859065 
Q 230.678858 26.823641 230.678858 26.757652 
Q 230.678858 26.692282 234.119106 26.656593 
Q 237.559354 26.620993 243.88941 26.620993 
Q 245.614121 26.620993 247.091134 26.623025 
Q 248.568147 26.625145 249.742419 26.629562 
L 249.742419 26.709596 
L 242.999533 26.709596 
L 242.999533 26.780885 
L 260.200772 26.780885 
L 260.200772 26.582654 
z
" clip-path="url(#p9f8bce8ad5)" style="fill: #ffa600"/>
   </g>
   <g id="patch_25">
    <path d="M 219.266409 37.732695 
L 260.200772 37.732695 
L 260.200772 35.633983 
L 245.473921 35.633983 
L 245.473921 26.971608 
L 234.021819 26.971608 
L 234.021819 35.633983 
L 219.266409 35.633983 
L 219.266409 37.732695 
z
" clip-path="url(#p9f8bce8ad5)" style="fill: #ff0000"/>
   </g>
   <g id="patch_26">
    <path d="M 290.710482 76.693415 
L 274.967783 76.693415 
L 272.482094 69.978038 
L 262.355212 69.978038 
L 276.817404 106.841508 
L 288.827384 106.841508 
L 303.289575 69.978038 
L 293.171063 69.978038 
L 290.710482 76.693415 
z
M 277.478581 83.535199 
L 288.174576 83.535199 
L 282.834948 98.198423 
L 277.478581 83.535199 
z
" clip-path="url(#p9f8bce8ad5)" style="fill: #008000"/>
   </g>
   <g id="patch_27">
    <path d="M 303.289575 27.615193 
Q 299.865486 27.084208 296.162933 26.815628 
Q 292.460379 26.543962 288.427792 26.543962 
Q 276.402227 26.543962 269.37872 28.556765 
Q 262.355212 30.569568 262.355212 34.011708 
Q 262.355212 37.466196 269.37872 39.475912 
Q 276.402227 41.488715 288.427792 41.488715 
Q 292.460379 41.488715 296.162933 41.217049 
Q 299.865486 40.948469 303.289575 40.417484 
L 303.289575 37.438412 
Q 299.834546 38.142276 296.482652 38.469511 
Q 293.130758 38.796746 289.428204 38.796746 
Q 282.786297 38.796746 278.980607 37.521765 
Q 275.185232 36.249871 275.185232 34.011708 
Q 275.185232 31.782806 278.980607 30.507825 
Q 282.786297 29.235931 289.428204 29.235931 
Q 293.130758 29.235931 296.482652 29.563166 
Q 299.834546 29.893488 303.289575 30.597352 
L 303.289575 27.615193 
z
" clip-path="url(#p9f8bce8ad5)" style="fill: #0000ff"/>
   </g>
   <g id="patch_28">
    <path d="M 262.355212 69.978038 
L 303.289575 69.978038 
L 303.289575 64.421826 
L 288.562724 64.421826 
L 288.562724 41.488715 
L 277.110622 41.488715 
L 277.110622 64.421826 
L 262.355212 64.421826 
L 262.355212 69.978038 
z
" clip-path="url(#p9f8bce8ad5)" style="fill: #ff0000"/>
   </g>
   <g id="patch_29">
    <path d="M 333.799285 27.603168 
L 318.056586 27.603168 
L 315.570897 26.543962 
L 305.444015 26.543962 
L 319.906207 32.358382 
L 331.916187 32.358382 
L 346.378378 26.543962 
L 336.259866 26.543962 
L 333.799285 27.603168 
z
M 320.567384 28.682313 
L 331.26338 28.682313 
L 325.923751 30.995121 
L 320.567384 28.682313 
z
" clip-path="url(#p9f8bce8ad5)" style="fill: #008000"/>
   </g>
   <g id="patch_30">
    <path d="M 305.444015 131.982891 
L 346.378378 131.982891 
L 346.378378 112.553336 
L 331.651527 112.553336 
L 331.651527 32.358382 
L 320.199425 32.358382 
L 320.199425 112.553336 
L 305.444015 112.553336 
L 305.444015 131.982891 
z
" clip-path="url(#p9f8bce8ad5)" style="fill: #ff0000"/>
   </g>
   <g id="patch_31">
    <path d="M 389.467181 26.735455 
Q 386.043093 26.640536 382.340539 26.592525 
Q 378.637985 26.543962 374.605398 26.543962 
Q 362.579833 26.543962 355.556326 26.903771 
Q 348.532819 27.26358 348.532819 27.878898 
Q 348.532819 28.496423 355.556326 28.85568 
Q 362.579833 29.215489 374.605398 29.215489 
Q 378.637985 29.215489 382.340539 29.166926 
Q 386.043093 29.118914 389.467181 29.023995 
L 389.467181 28.491456 
Q 386.012152 28.617279 382.660258 28.675775 
Q 379.308364 28.734272 375.60581 28.734272 
Q 368.963903 28.734272 365.158214 28.506356 
Q 361.362838 28.278992 361.362838 27.878898 
Q 361.362838 27.480459 365.158214 27.252543 
Q 368.963903 27.025179 375.60581 27.025179 
Q 379.308364 27.025179 382.660258 27.083675 
Q 386.012152 27.142724 389.467181 27.268547 
L 389.467181 26.735455 
z
" clip-path="url(#p9f8bce8ad5)" style="fill: #0000ff"/>
   </g>
   <g id="patch_32">
    <path d="M 348.532819 191.702411 
L 389.467181 191.702411 
L 389.467181 160.012934 
L 374.74033 160.012934 
L 374.74033 29.215489 
L 363.288228 29.215489 
L 363.288228 160.012934 
L 348.532819 160.012934 
L 348.532819 191.702411 
z
" clip-path="url(#p9f8bce8ad5)" style="fill: #ff0000"/>
   </g>
   <g id="patch_33">
    <path d="M 432.555985 36.700759 
Q 429.131896 32.138599 425.429342 29.830994 
Q 421.726788 27.496866 417.694201 27.496866 
Q 405.668637 27.496866 398.645129 44.790636 
Q 391.621622 62.084406 391.621622 91.658874 
Q 391.621622 121.33944 398.645129 138.606685 
Q 405.668637 155.900455 417.694201 155.900455 
Q 421.726788 155.900455 425.429342 153.566327 
Q 429.131896 151.258722 432.555985 146.696562 
L 432.555985 121.100722 
Q 429.100955 127.148236 425.749061 129.9598 
Q 422.397167 132.771364 418.694613 132.771364 
Q 412.052706 132.771364 408.247017 121.816875 
Q 404.451641 110.88891 404.451641 91.658874 
Q 404.451641 72.508411 408.247017 61.553922 
Q 412.052706 50.625957 418.694613 50.625957 
Q 422.397167 50.625957 425.749061 53.437521 
Q 429.100955 56.275609 432.555985 62.323123 
L 432.555985 36.700759 
z
" clip-path="url(#p9f8bce8ad5)" style="fill: #0000ff"/>
   </g>
   <g id="patch_34">
    <path d="M 391.621622 27.496866 
L 432.555985 27.496866 
L 432.555985 27.311023 
L 417.829134 27.311023 
L 417.829134 26.543962 
L 406.377032 26.543962 
L 406.377032 27.311023 
L 391.621622 27.311023 
L 391.621622 27.496866 
z
" clip-path="url(#p9f8bce8ad5)" style="fill: #ff0000"/>
   </g>
   <g id="patch_35">
    <path d="M 463.065694 26.814934 
L 447.322996 26.814934 
L 444.837307 26.543962 
L 434.710425 26.543962 
L 449.172616 28.031438 
L 461.182596 28.031438 
L 475.644788 26.543962 
L 465.526275 26.543962 
L 463.065694 26.814934 
z
M 449.833793 27.091006 
L 460.529789 27.091006 
L 455.19016 27.682681 
L 449.833793 27.091006 
z
" clip-path="url(#p9f8bce8ad5)" style="fill: #008000"/>
   </g>
   <g id="patch_36">
    <path d="M 475.644788 39.877696 
Q 472.220699 34.005775 468.518145 31.035676 
Q 464.815591 28.031438 460.783005 28.031438 
Q 448.75744 28.031438 441.733932 50.290113 
Q 434.710425 72.548787 434.710425 110.613853 
Q 434.710425 148.815474 441.733932 171.04001 
Q 448.75744 193.298685 460.783005 193.298685 
Q 464.815591 193.298685 468.518145 190.294447 
Q 472.220699 187.324347 475.644788 181.452427 
L 475.644788 148.508223 
Q 472.189758 156.291931 468.837864 159.910673 
Q 465.48597 163.529414 461.783416 163.529414 
Q 455.141509 163.529414 451.33582 149.429977 
Q 447.540444 135.36468 447.540444 110.613853 
Q 447.540444 85.965443 451.33582 71.866006 
Q 455.141509 57.800708 461.783416 57.800708 
Q 465.48597 57.800708 468.837864 61.41945 
Q 472.189758 65.072331 475.644788 72.856039 
L 475.644788 39.877696 
z
" clip-path="url(#p9f8bce8ad5)" style="fill: #0000ff"/>
   </g>
   <g id="patch_37">
    <path d="M 506.154497 49.819805 
L 490.411799 49.819805 
L 487.92611 45.352796 
L 477.799228 45.352796 
L 492.261419 69.874045 
L 504.271399 69.874045 
L 518.733591 45.352796 
L 508.615078 45.352796 
L 506.154497 49.819805 
z
M 492.922596 54.370898 
L 503.618592 54.370898 
L 498.278963 64.124743 
L 492.922596 54.370898 
z
" clip-path="url(#p9f8bce8ad5)" style="fill: #008000"/>
   </g>
   <g id="patch_38">
    <path d="M 518.733591 32.974898 
Q 515.309502 32.501156 511.606948 32.26153 
Q 507.904394 32.01915 503.871808 32.01915 
Q 491.846243 32.01915 484.822735 33.814965 
Q 477.799228 35.610779 477.799228 38.681842 
Q 477.799228 41.763922 484.822735 43.556982 
Q 491.846243 45.352796 503.871808 45.352796 
Q 507.904394 45.352796 511.606948 45.110416 
Q 515.309502 44.870791 518.733591 44.397048 
L 518.733591 41.739133 
Q 515.278561 42.367117 511.926667 42.659075 
Q 508.574773 42.951032 504.872219 42.951032 
Q 498.230312 42.951032 494.424623 41.813499 
Q 490.629247 40.678721 490.629247 38.681842 
Q 490.629247 36.693225 494.424623 35.555693 
Q 498.230312 34.420914 504.872219 34.420914 
Q 508.574773 34.420914 511.926667 34.712872 
Q 515.278561 35.007584 518.733591 35.635568 
L 518.733591 32.974898 
z
" clip-path="url(#p9f8bce8ad5)" style="fill: #0000ff"/>
   </g>
   <g id="patch_39">
    <path d="M 477.799228 32.01915 
L 518.733591 32.01915 
L 518.733591 30.951336 
L 504.00674 30.951336 
L 504.00674 26.543962 
L 492.554638 26.543962 
L 492.554638 30.951336 
L 477.799228 30.951336 
L 477.799228 32.01915 
z
" clip-path="url(#p9f8bce8ad5)" style="fill: #ff0000"/>
   </g>
   <g id="patch_40">
    <path d="M 549.2433 37.194198 
L 533.500602 37.194198 
L 531.014913 34.125153 
L 520.888031 34.125153 
L 535.350222 50.972406 
L 547.360202 50.972406 
L 561.822394 34.125153 
L 551.703881 34.125153 
L 549.2433 37.194198 
z
M 536.011399 40.321014 
L 546.707395 40.321014 
L 541.367766 47.022365 
L 536.011399 40.321014 
z
" clip-path="url(#p9f8bce8ad5)" style="fill: #008000"/>
   </g>
   <g id="patch_41">
    <path d="M 561.822394 26.842689 
Q 557.694096 26.693325 553.253883 26.618303 
Q 548.81367 26.543962 544.079889 26.543962 
Q 533.383011 26.543962 527.135521 26.988643 
Q 520.888031 27.433324 520.888031 28.193783 
Q 520.888031 28.963108 527.245609 29.404379 
Q 533.612361 29.84565 544.685372 29.84565 
Q 548.95128 29.84565 552.859401 29.785631 
Q 556.776697 29.726295 560.244467 29.608987 
L 560.244467 28.950831 
Q 556.666609 29.101559 553.125447 29.1759 
Q 549.584285 29.250923 546.024775 29.250923 
Q 539.437848 29.250923 535.869164 28.976748 
Q 532.30048 28.703256 532.30048 28.193783 
Q 532.30048 27.689083 535.740728 27.413545 
Q 539.180976 27.138688 545.511032 27.138688 
Q 547.235743 27.138688 548.712756 27.154375 
Q 550.189769 27.170744 551.36404 27.204845 
L 551.36404 27.82276 
L 544.621154 27.82276 
L 544.621154 28.373155 
L 561.822394 28.373155 
L 561.822394 26.842689 
z
" clip-path="url(#p9f8bce8ad5)" style="fill: #ffa600"/>
   </g>
   <g id="patch_42">
    <path d="M 520.888031 34.125153 
L 561.822394 34.125153 
L 561.822394 33.290531 
L 547.095543 33.290531 
L 547.095543 29.84565 
L 535.643441 29.84565 
L 535.643441 33.290531 
L 520.888031 33.290531 
L 520.888031 34.125153 
z
" clip-path="url(#p9f8bce8ad5)" style="fill: #ff0000"/>
   </g>
   <g id="patch_43">
    <path d="M 592.332103 36.586573 
L 576.589405 36.586573 
L 574.103716 34.052279 
L 563.976834 34.052279 
L 578.439026 47.96406 
L 590.449005 47.96406 
L 604.911197 34.052279 
L 594.792684 34.052279 
L 592.332103 36.586573 
z
M 579.100202 39.168571 
L 589.796198 39.168571 
L 584.456569 44.702275 
L 579.100202 39.168571 
z
" clip-path="url(#p9f8bce8ad5)" style="fill: #008000"/>
   </g>
   <g id="patch_44">
    <path d="M 604.911197 26.760463 
Q 600.782899 26.652212 596.342686 26.59784 
Q 591.902473 26.543962 587.168692 26.543962 
Q 576.471814 26.543962 570.224324 26.866242 
Q 563.976834 27.188523 563.976834 27.739663 
Q 563.976834 28.297228 570.334412 28.617037 
Q 576.701164 28.936846 587.774175 28.936846 
Q 592.040083 28.936846 595.948204 28.893348 
Q 599.8655 28.850345 603.33327 28.765326 
L 603.33327 28.288331 
Q 599.755412 28.39757 596.21425 28.451448 
Q 592.673088 28.505821 589.113579 28.505821 
Q 582.526651 28.505821 578.957967 28.307114 
Q 575.389283 28.108901 575.389283 27.739663 
Q 575.389283 27.373884 578.829531 27.174189 
Q 582.269779 26.974987 588.599835 26.974987 
Q 590.324546 26.974987 591.801559 26.986356 
Q 593.278572 26.998219 594.452843 27.022934 
L 594.452843 27.470766 
L 587.709957 27.470766 
L 587.709957 27.869662 
L 604.911197 27.869662 
L 604.911197 26.760463 
z
" clip-path="url(#p9f8bce8ad5)" style="fill: #ffa600"/>
   </g>
   <g id="patch_45">
    <path d="M 563.976834 34.052279 
L 604.911197 34.052279 
L 604.911197 33.054627 
L 590.184346 33.054627 
L 590.184346 28.936846 
L 578.732244 28.936846 
L 578.732244 33.054627 
L 563.976834 33.054627 
L 563.976834 34.052279 
z
" clip-path="url(#p9f8bce8ad5)" style="fill: #ff0000"/>
   </g>
   <g id="patch_46">
    <path d="M 635.420906 35.687398 
L 619.678208 35.687398 
L 617.192519 33.715844 
L 607.065637 33.715844 
L 621.527829 44.538513 
L 633.537808 44.538513 
L 648 33.715844 
L 637.881487 33.715844 
L 635.420906 35.687398 
z
M 622.189005 37.696063 
L 632.885001 37.696063 
L 627.545373 42.001007 
L 622.189005 37.696063 
z
" clip-path="url(#p9f8bce8ad5)" style="fill: #008000"/>
   </g>
   <g id="patch_47">
    <path d="M 648 26.655348 
Q 643.871703 26.599655 639.431489 26.571681 
Q 634.991276 26.543962 630.257495 26.543962 
Q 619.560617 26.543962 613.313127 26.709769 
Q 607.065637 26.875576 607.065637 27.159127 
Q 607.065637 27.445984 613.423215 27.61052 
Q 619.789967 27.775056 630.862978 27.775056 
Q 635.128886 27.775056 639.037007 27.752677 
Q 642.954303 27.730552 646.422073 27.686812 
L 646.422073 27.441407 
Q 642.844215 27.497608 639.303053 27.525327 
Q 635.761891 27.553301 632.202382 27.553301 
Q 625.615454 27.553301 622.04677 27.45107 
Q 618.478086 27.349094 618.478086 27.159127 
Q 618.478086 26.970941 621.918334 26.868202 
Q 625.358582 26.765716 631.688638 26.765716 
Q 633.413349 26.765716 634.890362 26.771565 
Q 636.367375 26.777669 637.541646 26.790384 
L 637.541646 27.020785 
L 630.798761 27.020785 
L 630.798761 27.22601 
L 648 27.22601 
L 648 26.655348 
z
" clip-path="url(#p9f8bce8ad5)" style="fill: #ffa600"/>
   </g>
   <g id="patch_48">
    <path d="M 607.065637 33.715844 
L 648 33.715844 
L 648 32.557225 
L 633.273149 32.557225 
L 633.273149 27.775056 
L 621.821047 27.775056 
L 621.821047 32.557225 
L 607.065637 32.557225 
L 607.065637 33.715844 
z
" clip-path="url(#p9f8bce8ad5)" style="fill: #ff0000"/>
   </g>
   <g id="matplotlib.axis_1">
    <g id="xtick_1">
     <g id="line2d_2">
      <defs>
       <path id="md68a6bd6db" d="M 0 0 
L 0 3.5 
" style="stroke: #000000; stroke-width: 0.8"/>
      </defs>
      <g>
       <use xlink:href="#md68a6bd6db" x="110.467181" y="192.24" style="stroke: #000000; stroke-width: 0.8"/>
      </g>
     </g>
     <g id="text_1">
      <!-- 0 -->
      <g transform="translate(107.285931 206.838437) scale(0.1 -0.1)">
       <defs>
        <path id="DejaVuSans-30" d="M 2034 4250 
Q 1547 4250 1301 3770 
Q 1056 3291 1056 2328 
Q 1056 1369 1301 889 
Q 1547 409 2034 409 
Q 2525 409 2770 889 
Q 3016 1369 3016 2328 
Q 3016 3291 2770 3770 
Q 2525 4250 2034 4250 
z
M 2034 4750 
Q 2819 4750 3233 4129 
Q 3647 3509 3647 2328 
Q 3647 1150 3233 529 
Q 2819 -91 2034 -91 
Q 1250 -91 836 529 
Q 422 1150 422 2328 
Q 422 3509 836 4129 
Q 1250 4750 2034 4750 
z
" transform="scale(0.015625)"/>
       </defs>
       <use xlink:href="#DejaVuSans-30"/>
      </g>
     </g>
    </g>
    <g id="xtick_2">
     <g id="line2d_3">
      <g>
       <use xlink:href="#md68a6bd6db" x="196.644788" y="192.24" style="stroke: #000000; stroke-width: 0.8"/>
      </g>
     </g>
     <g id="text_2">
      <!-- 2 -->
      <g transform="translate(193.463538 206.838437) scale(0.1 -0.1)">
       <defs>
        <path id="DejaVuSans-32" d="M 1228 531 
L 3431 531 
L 3431 0 
L 469 0 
L 469 531 
Q 828 903 1448 1529 
Q 2069 2156 2228 2338 
Q 2531 2678 2651 2914 
Q 2772 3150 2772 3378 
Q 2772 3750 2511 3984 
Q 2250 4219 1831 4219 
Q 1534 4219 1204 4116 
Q 875 4013 500 3803 
L 500 4441 
Q 881 4594 1212 4672 
Q 1544 4750 1819 4750 
Q 2544 4750 2975 4387 
Q 3406 4025 3406 3419 
Q 3406 3131 3298 2873 
Q 3191 2616 2906 2266 
Q 2828 2175 2409 1742 
Q 1991 1309 1228 531 
z
" transform="scale(0.015625)"/>
       </defs>
       <use xlink:href="#DejaVuSans-32"/>
      </g>
     </g>
    </g>
    <g id="xtick_3">
     <g id="line2d_4">
      <g>
       <use xlink:href="#md68a6bd6db" x="282.822394" y="192.24" style="stroke: #000000; stroke-width: 0.8"/>
      </g>
     </g>
     <g id="text_3">
      <!-- 4 -->
      <g transform="translate(279.641144 206.838437) scale(0.1 -0.1)">
       <defs>
        <path id="DejaVuSans-34" d="M 2419 4116 
L 825 1625 
L 2419 1625 
L 2419 4116 
z
M 2253 4666 
L 3047 4666 
L 3047 1625 
L 3713 1625 
L 3713 1100 
L 3047 1100 
L 3047 0 
L 2419 0 
L 2419 1100 
L 313 1100 
L 313 1709 
L 2253 4666 
z
" transform="scale(0.015625)"/>
       </defs>
       <use xlink:href="#DejaVuSans-34"/>
      </g>
     </g>
    </g>
    <g id="xtick_4">
     <g id="line2d_5">
      <g>
       <use xlink:href="#md68a6bd6db" x="369" y="192.24" style="stroke: #000000; stroke-width: 0.8"/>
      </g>
     </g>
     <g id="text_4">
      <!-- 6 -->
      <g transform="translate(365.81875 206.838437) scale(0.1 -0.1)">
       <defs>
        <path id="DejaVuSans-36" d="M 2113 2584 
Q 1688 2584 1439 2293 
Q 1191 2003 1191 1497 
Q 1191 994 1439 701 
Q 1688 409 2113 409 
Q 2538 409 2786 701 
Q 3034 994 3034 1497 
Q 3034 2003 2786 2293 
Q 2538 2584 2113 2584 
z
M 3366 4563 
L 3366 3988 
Q 3128 4100 2886 4159 
Q 2644 4219 2406 4219 
Q 1781 4219 1451 3797 
Q 1122 3375 1075 2522 
Q 1259 2794 1537 2939 
Q 1816 3084 2150 3084 
Q 2853 3084 3261 2657 
Q 3669 2231 3669 1497 
Q 3669 778 3244 343 
Q 2819 -91 2113 -91 
Q 1303 -91 875 529 
Q 447 1150 447 2328 
Q 447 3434 972 4092 
Q 1497 4750 2381 4750 
Q 2619 4750 2861 4703 
Q 3103 4656 3366 4563 
z
" transform="scale(0.015625)"/>
       </defs>
       <use xlink:href="#DejaVuSans-36"/>
      </g>
     </g>
    </g>
    <g id="xtick_5">
     <g id="line2d_6">
      <g>
       <use xlink:href="#md68a6bd6db" x="455.177606" y="192.24" style="stroke: #000000; stroke-width: 0.8"/>
      </g>
     </g>
     <g id="text_5">
      <!-- 8 -->
      <g transform="translate(451.996356 206.838437) scale(0.1 -0.1)">
       <defs>
        <path id="DejaVuSans-38" d="M 2034 2216 
Q 1584 2216 1326 1975 
Q 1069 1734 1069 1313 
Q 1069 891 1326 650 
Q 1584 409 2034 409 
Q 2484 409 2743 651 
Q 3003 894 3003 1313 
Q 3003 1734 2745 1975 
Q 2488 2216 2034 2216 
z
M 1403 2484 
Q 997 2584 770 2862 
Q 544 3141 544 3541 
Q 544 4100 942 4425 
Q 1341 4750 2034 4750 
Q 2731 4750 3128 4425 
Q 3525 4100 3525 3541 
Q 3525 3141 3298 2862 
Q 3072 2584 2669 2484 
Q 3125 2378 3379 2068 
Q 3634 1759 3634 1313 
Q 3634 634 3220 271 
Q 2806 -91 2034 -91 
Q 1263 -91 848 271 
Q 434 634 434 1313 
Q 434 1759 690 2068 
Q 947 2378 1403 2484 
z
M 1172 3481 
Q 1172 3119 1398 2916 
Q 1625 2713 2034 2713 
Q 2441 2713 2670 2916 
Q 2900 3119 2900 3481 
Q 2900 3844 2670 4047 
Q 2441 4250 2034 4250 
Q 1625 4250 1398 4047 
Q 1172 3844 1172 3481 
z
" transform="scale(0.015625)"/>
       </defs>
       <use xlink:href="#DejaVuSans-38"/>
      </g>
     </g>
    </g>
    <g id="xtick_6">
     <g id="line2d_7">
      <g>
       <use xlink:href="#md68a6bd6db" x="541.355212" y="192.24" style="stroke: #000000; stroke-width: 0.8"/>
      </g>
     </g>
     <g id="text_6">
      <!-- 10 -->
      <g transform="translate(534.992712 206.838437) scale(0.1 -0.1)">
       <defs>
        <path id="DejaVuSans-31" d="M 794 531 
L 1825 531 
L 1825 4091 
L 703 3866 
L 703 4441 
L 1819 4666 
L 2450 4666 
L 2450 531 
L 3481 531 
L 3481 0 
L 794 0 
L 794 531 
z
" transform="scale(0.015625)"/>
       </defs>
       <use xlink:href="#DejaVuSans-31"/>
       <use xlink:href="#DejaVuSans-30" x="63.623047"/>
      </g>
     </g>
    </g>
    <g id="xtick_7">
     <g id="line2d_8">
      <g>
       <use xlink:href="#md68a6bd6db" x="627.532819" y="192.24" style="stroke: #000000; stroke-width: 0.8"/>
      </g>
     </g>
     <g id="text_7">
      <!-- 12 -->
      <g transform="translate(621.170319 206.838437) scale(0.1 -0.1)">
       <use xlink:href="#DejaVuSans-31"/>
       <use xlink:href="#DejaVuSans-32" x="63.623047"/>
      </g>
     </g>
    </g>
   </g>
   <g id="matplotlib.axis_2">
    <g id="ytick_1">
     <g id="line2d_9">
      <defs>
       <path id="mc78f121bc3" d="M 0 0 
L -3.5 0 
" style="stroke: #000000; stroke-width: 0.8"/>
      </defs>
      <g>
       <use xlink:href="#mc78f121bc3" x="90" y="185.561496" style="stroke: #000000; stroke-width: 0.8"/>
      </g>
     </g>
     <g id="text_8">
      <!-- −0.012 -->
      <g transform="translate(45.992188 189.360715) scale(0.1 -0.1)">
       <defs>
        <path id="DejaVuSans-2212" d="M 678 2272 
L 4684 2272 
L 4684 1741 
L 678 1741 
L 678 2272 
z
" transform="scale(0.015625)"/>
        <path id="DejaVuSans-2e" d="M 684 794 
L 1344 794 
L 1344 0 
L 684 0 
L 684 794 
z
" transform="scale(0.015625)"/>
       </defs>
       <use xlink:href="#DejaVuSans-2212"/>
       <use xlink:href="#DejaVuSans-30" x="83.789062"/>
       <use xlink:href="#DejaVuSans-2e" x="147.412109"/>
       <use xlink:href="#DejaVuSans-30" x="179.199219"/>
       <use xlink:href="#DejaVuSans-31" x="242.822266"/>
       <use xlink:href="#DejaVuSans-32" x="306.445312"/>
      </g>
     </g>
    </g>
    <g id="ytick_2">
     <g id="line2d_10">
      <g>
       <use xlink:href="#mc78f121bc3" x="90" y="159.058574" style="stroke: #000000; stroke-width: 0.8"/>
      </g>
     </g>
     <g id="text_9">
      <!-- −0.010 -->
      <g transform="translate(45.992188 162.857792) scale(0.1 -0.1)">
       <use xlink:href="#DejaVuSans-2212"/>
       <use xlink:href="#DejaVuSans-30" x="83.789062"/>
       <use xlink:href="#DejaVuSans-2e" x="147.412109"/>
       <use xlink:href="#DejaVuSans-30" x="179.199219"/>
       <use xlink:href="#DejaVuSans-31" x="242.822266"/>
       <use xlink:href="#DejaVuSans-30" x="306.445312"/>
      </g>
     </g>
    </g>
    <g id="ytick_3">
     <g id="line2d_11">
      <g>
       <use xlink:href="#mc78f121bc3" x="90" y="132.555651" style="stroke: #000000; stroke-width: 0.8"/>
      </g>
     </g>
     <g id="text_10">
      <!-- −0.008 -->
      <g transform="translate(45.992188 136.35487) scale(0.1 -0.1)">
       <use xlink:href="#DejaVuSans-2212"/>
       <use xlink:href="#DejaVuSans-30" x="83.789062"/>
       <use xlink:href="#DejaVuSans-2e" x="147.412109"/>
       <use xlink:href="#DejaVuSans-30" x="179.199219"/>
       <use xlink:href="#DejaVuSans-30" x="242.822266"/>
       <use xlink:href="#DejaVuSans-38" x="306.445312"/>
      </g>
     </g>
    </g>
    <g id="ytick_4">
     <g id="line2d_12">
      <g>
       <use xlink:href="#mc78f121bc3" x="90" y="106.052729" style="stroke: #000000; stroke-width: 0.8"/>
      </g>
     </g>
     <g id="text_11">
      <!-- −0.006 -->
      <g transform="translate(45.992188 109.851948) scale(0.1 -0.1)">
       <use xlink:href="#DejaVuSans-2212"/>
       <use xlink:href="#DejaVuSans-30" x="83.789062"/>
       <use xlink:href="#DejaVuSans-2e" x="147.412109"/>
       <use xlink:href="#DejaVuSans-30" x="179.199219"/>
       <use xlink:href="#DejaVuSans-30" x="242.822266"/>
       <use xlink:href="#DejaVuSans-36" x="306.445312"/>
      </g>
     </g>
    </g>
    <g id="ytick_5">
     <g id="line2d_13">
      <g>
       <use xlink:href="#mc78f121bc3" x="90" y="79.549806" style="stroke: #000000; stroke-width: 0.8"/>
      </g>
     </g>
     <g id="text_12">
      <!-- −0.004 -->
      <g transform="translate(45.992188 83.349025) scale(0.1 -0.1)">
       <use xlink:href="#DejaVuSans-2212"/>
       <use xlink:href="#DejaVuSans-30" x="83.789062"/>
       <use xlink:href="#DejaVuSans-2e" x="147.412109"/>
       <use xlink:href="#DejaVuSans-30" x="179.199219"/>
       <use xlink:href="#DejaVuSans-30" x="242.822266"/>
       <use xlink:href="#DejaVuSans-34" x="306.445312"/>
      </g>
     </g>
    </g>
    <g id="ytick_6">
     <g id="line2d_14">
      <g>
       <use xlink:href="#mc78f121bc3" x="90" y="53.046884" style="stroke: #000000; stroke-width: 0.8"/>
      </g>
     </g>
     <g id="text_13">
      <!-- −0.002 -->
      <g transform="translate(45.992188 56.846103) scale(0.1 -0.1)">
       <use xlink:href="#DejaVuSans-2212"/>
       <use xlink:href="#DejaVuSans-30" x="83.789062"/>
       <use xlink:href="#DejaVuSans-2e" x="147.412109"/>
       <use xlink:href="#DejaVuSans-30" x="179.199219"/>
       <use xlink:href="#DejaVuSans-30" x="242.822266"/>
       <use xlink:href="#DejaVuSans-32" x="306.445312"/>
      </g>
     </g>
    </g>
    <g id="ytick_7">
     <g id="line2d_15">
      <g>
       <use xlink:href="#mc78f121bc3" x="90" y="26.543962" style="stroke: #000000; stroke-width: 0.8"/>
      </g>
     </g>
     <g id="text_14">
      <!-- 0.000 -->
      <g transform="translate(54.371875 30.34318) scale(0.1 -0.1)">
       <use xlink:href="#DejaVuSans-30"/>
       <use xlink:href="#DejaVuSans-2e" x="63.623047"/>
       <use xlink:href="#DejaVuSans-30" x="95.410156"/>
       <use xlink:href="#DejaVuSans-30" x="159.033203"/>
       <use xlink:href="#DejaVuSans-30" x="222.65625"/>
      </g>
     </g>
    </g>
   </g>
  </g>
 </g>
 <defs>
  <clipPath id="p9f8bce8ad5">
   <rect x="90" y="25.92" width="558" height="166.32"/>
  </clipPath>
 </defs>
</svg>
