<?xml version="1.0" encoding="utf-8" standalone="no"?>
<!DOCTYPE svg PUBLIC "-//W3C//DTD SVG 1.1//EN"
  "http://www.w3.org/Graphics/SVG/1.1/DTD/svg11.dtd">
<svg xmlns:xlink="http://www.w3.org/1999/xlink" width="720pt" height="216pt" viewBox="0 0 720 216" xmlns="http://www.w3.org/2000/svg" version="1.1">
 <metadata>
  <rdf:RDF xmlns:dc="http://purl.org/dc/elements/1.1/" xmlns:cc="http://creativecommons.org/ns#" xmlns:rdf="http://www.w3.org/1999/02/22-rdf-syntax-ns#">
   <cc:Work>
    <dc:type rdf:resource="http://purl.org/dc/dcmitype/StillImage"/>
    <dc:date>2024-11-23T04:46:45.952474</dc:date>
    <dc:format>image/svg+xml</dc:format>
    <dc:creator>
     <cc:Agent>
      <dc:title>Matplotlib v3.7.2, https://matplotlib.org/</dc:title>
     </cc:Agent>
    </dc:creator>
   </cc:Work>
  </rdf:RDF>
 </metadata>
 <defs>
  <style type="text/css">*{stroke-linejoin: round; stroke-linecap: butt}</style>
 </defs>
 <g id="figure_1">
  <g id="patch_1">
   <path d="M 0 216 
L 720 216 
L 720 0 
L 0 0 
z
" style="fill: #ffffff"/>
  </g>
  <g id="axes_1">
   <g id="patch_2">
    <path d="M 90 192.24 
L 648 192.24 
L 648 25.92 
L 90 25.92 
z
" style="fill: #ffffff"/>
   </g>
   <g id="line2d_1">
    <path d="M 90 43.397256 
L 648 43.397256 
" clip-path="url(#p823f6665b6)" style="fill: none; stroke: #000000; stroke-width: 0.5; stroke-linecap: square"/>
   </g>
   <g id="patch_3">
    <path d="M 90 38.339343 
L 119.532033 38.339343 
L 119.532033 39.325777 
L 108.907369 39.325777 
L 108.907369 43.397256 
L 100.645268 43.397256 
L 100.645268 39.325777 
L 90 39.325777 
L 90 38.339343 
z
" clip-path="url(#p823f6665b6)" style="fill: #ff0000"/>
   </g>
   <g id="patch_4">
    <path d="M 110.456866 37.111326 
L 99.09932 37.111326 
L 97.306023 38.339343 
L 90 38.339343 
L 100.433726 31.598253 
L 109.098307 31.598253 
L 119.532033 38.339343 
L 112.232048 38.339343 
L 110.456866 37.111326 
z
M 100.910731 35.860194 
L 108.627341 35.860194 
L 104.775074 33.178783 
L 100.910731 35.860194 
z
" clip-path="url(#p823f6665b6)" style="fill: #008000"/>
   </g>
   <g id="patch_5">
    <path d="M 150.618384 42.847058 
Q 148.148081 43.119779 145.476879 43.257725 
Q 142.805677 43.397256 139.896374 43.397256 
Q 131.220548 43.397256 126.15345 42.363455 
Q 121.086351 41.329654 121.086351 39.561726 
Q 121.086351 37.787457 126.15345 36.755241 
Q 131.220548 35.72144 139.896374 35.72144 
Q 142.805677 35.72144 145.476879 35.860971 
Q 148.148081 35.998917 150.618384 36.271638 
L 150.618384 37.801727 
Q 148.125759 37.440214 145.70754 37.272142 
Q 143.289321 37.10407 140.618119 37.10407 
Q 135.826325 37.10407 133.080717 37.758917 
Q 130.342549 38.412177 130.342549 39.561726 
Q 130.342549 40.706519 133.080717 41.361365 
Q 135.826325 42.014626 140.618119 42.014626 
Q 143.289321 42.014626 145.70754 41.846554 
Q 148.125759 41.676897 150.618384 41.315383 
L 150.618384 42.847058 
z
" clip-path="url(#p823f6665b6)" style="fill: #0000ff"/>
   </g>
   <g id="patch_6">
    <path d="M 141.543216 33.134974 
L 130.185671 33.134974 
L 128.392374 35.72144 
L 121.086351 35.72144 
L 131.520077 21.523261 
L 140.184658 21.523261 
L 150.618384 35.72144 
L 143.318399 35.72144 
L 141.543216 33.134974 
z
M 131.997082 30.499821 
L 139.713692 30.499821 
L 135.861425 24.852195 
L 131.997082 30.499821 
z
" clip-path="url(#p823f6665b6)" style="fill: #008000"/>
   </g>
   <g id="patch_7">
    <path d="M 181.704735 43.344463 
Q 179.234432 43.370631 176.56323 43.383868 
Q 173.892028 43.397256 170.982725 43.397256 
Q 162.306899 43.397256 157.239801 43.29806 
Q 152.172702 43.198864 152.172702 43.029226 
Q 152.172702 42.858979 157.239801 42.759935 
Q 162.306899 42.660739 170.982725 42.660739 
Q 173.892028 42.660739 176.56323 42.674127 
Q 179.234432 42.687364 181.704735 42.713532 
L 181.704735 42.860349 
Q 179.21211 42.82566 176.793891 42.809533 
Q 174.375672 42.793406 171.70447 42.793406 
Q 166.912676 42.793406 164.167068 42.856241 
Q 161.4289 42.918923 161.4289 43.029226 
Q 161.4289 43.139072 164.167068 43.201906 
Q 166.912676 43.264589 171.70447 43.264589 
Q 174.375672 43.264589 176.793891 43.248462 
Q 179.21211 43.232183 181.704735 43.197494 
L 181.704735 43.344463 
z
" clip-path="url(#p823f6665b6)" style="fill: #0000ff"/>
   </g>
   <g id="patch_8">
    <path d="M 152.172702 39.602031 
L 181.704735 39.602031 
L 181.704735 40.198564 
L 171.080071 40.198564 
L 171.080071 42.660739 
L 162.81797 42.660739 
L 162.81797 40.198564 
L 152.172702 40.198564 
L 152.172702 39.602031 
z
" clip-path="url(#p823f6665b6)" style="fill: #ff0000"/>
   </g>
   <g id="patch_9">
    <path d="M 172.629567 38.644824 
L 161.272022 38.644824 
L 159.478725 39.602031 
L 152.172702 39.602031 
L 162.606428 34.347525 
L 171.271009 34.347525 
L 181.704735 39.602031 
L 174.40475 39.602031 
L 172.629567 38.644824 
z
M 163.083433 37.669598 
L 170.800043 37.669598 
L 166.947776 35.579507 
L 163.083433 37.669598 
z
" clip-path="url(#p823f6665b6)" style="fill: #008000"/>
   </g>
   <g id="patch_10">
    <path d="M 183.259053 38.025246 
L 212.791086 38.025246 
L 212.791086 39.072938 
L 202.166422 39.072938 
L 202.166422 43.397256 
L 193.904321 43.397256 
L 193.904321 39.072938 
L 183.259053 39.072938 
L 183.259053 38.025246 
z
" clip-path="url(#p823f6665b6)" style="fill: #ff0000"/>
   </g>
   <g id="patch_11">
    <path d="M 203.715918 36.757588 
L 192.358373 36.757588 
L 190.565076 38.025246 
L 183.259053 38.025246 
L 193.692779 31.066552 
L 202.35736 31.066552 
L 212.791086 38.025246 
L 205.491101 38.025246 
L 203.715918 36.757588 
z
M 194.169784 35.466069 
L 201.886394 35.466069 
L 198.034127 32.698102 
L 194.169784 35.466069 
z
" clip-path="url(#p823f6665b6)" style="fill: #008000"/>
   </g>
   <g id="patch_12">
    <path d="M 234.802269 43.130199 
L 223.444724 43.130199 
L 221.651427 43.397256 
L 214.345404 43.397256 
L 224.77913 41.931268 
L 233.443711 41.931268 
L 243.877437 43.397256 
L 236.577452 43.397256 
L 234.802269 43.130199 
z
M 225.256135 42.858114 
L 232.972745 42.858114 
L 229.120478 42.274987 
L 225.256135 42.858114 
z
" clip-path="url(#p823f6665b6)" style="fill: #008000"/>
   </g>
   <g id="patch_13">
    <path d="M 328.061322 43.240428 
L 316.703777 43.240428 
L 314.91048 43.397256 
L 307.604457 43.397256 
L 318.038183 42.536361 
L 326.702764 42.536361 
L 337.13649 43.397256 
L 329.836505 43.397256 
L 328.061322 43.240428 
z
M 318.515188 43.080648 
L 326.231797 43.080648 
L 322.379531 42.738208 
L 318.515188 43.080648 
z
" clip-path="url(#p823f6665b6)" style="fill: #008000"/>
   </g>
   <g id="patch_14">
    <path d="M 616.913649 43.280176 
Q 614.443345 43.33821 611.772144 43.367564 
Q 609.100942 43.397256 606.191638 43.397256 
Q 597.515813 43.397256 592.448714 43.177266 
Q 587.381616 42.957277 587.381616 42.581067 
Q 587.381616 42.203508 592.448714 41.983856 
Q 597.515813 41.763866 606.191638 41.763866 
Q 609.100942 41.763866 611.772144 41.793558 
Q 614.443345 41.822913 616.913649 41.880947 
L 616.913649 42.206545 
Q 614.421023 42.129616 612.002804 42.093851 
Q 609.584586 42.058086 606.913384 42.058086 
Q 602.12159 42.058086 599.375981 42.197435 
Q 596.637814 42.336447 596.637814 42.581067 
Q 596.637814 42.824676 599.375981 42.964025 
Q 602.12159 43.103037 606.913384 43.103037 
Q 609.584586 43.103037 612.002804 43.067272 
Q 614.421023 43.031169 616.913649 42.95424 
L 616.913649 43.280176 
z
" clip-path="url(#p823f6665b6)" style="fill: #0000ff"/>
   </g>
   <g id="patch_15">
    <path d="M 119.532033 43.547004 
Q 117.06173 43.472777 114.390528 43.435232 
Q 111.719326 43.397256 108.810023 43.397256 
Q 100.134197 43.397256 95.067099 43.678626 
Q 90 43.959996 90 44.441172 
Q 90 44.924075 95.067099 45.205014 
Q 100.134197 45.486383 108.810023 45.486383 
Q 111.719326 45.486383 114.390528 45.448407 
Q 117.06173 45.410862 119.532033 45.336636 
L 119.532033 44.920191 
Q 117.039408 45.018585 114.621189 45.064329 
Q 112.20297 45.110073 109.531768 45.110073 
Q 104.739974 45.110073 101.994366 44.931843 
Q 99.256198 44.754045 99.256198 44.441172 
Q 99.256198 44.129594 101.994366 43.951365 
Q 104.739974 43.773567 109.531768 43.773567 
Q 112.20297 43.773567 114.621189 43.819311 
Q 117.039408 43.865486 119.532033 43.96388 
L 119.532033 43.547004 
z
" clip-path="url(#p823f6665b6)" style="fill: #0000ff"/>
   </g>
   <g id="patch_16">
    <path d="M 119.532033 45.997636 
Q 116.55368 45.742009 113.350294 45.613613 
Q 110.146909 45.486383 106.73173 45.486383 
Q 99.014484 45.486383 94.507242 46.247425 
Q 90 47.008467 90 48.309943 
Q 90 49.626592 94.586665 50.381798 
Q 99.179949 51.137004 107.168556 51.137004 
Q 110.246188 51.137004 113.065696 51.034286 
Q 115.891823 50.932736 118.39364 50.73197 
L 118.39364 49.605582 
Q 115.8124 49.863542 113.257635 49.990772 
Q 110.702869 50.119168 108.134866 50.119168 
Q 103.382737 50.119168 100.808115 49.649937 
Q 98.233494 49.181873 98.233494 48.309943 
Q 98.233494 47.446183 100.715455 46.974617 
Q 103.197417 46.504219 107.764226 46.504219 
Q 109.008516 46.504219 110.074105 46.531065 
Q 111.139694 46.559079 111.98687 46.617441 
L 111.98687 47.674963 
L 107.122226 47.674963 
L 107.122226 48.616927 
L 119.532033 48.616927 
L 119.532033 45.997636 
z
" clip-path="url(#p823f6665b6)" style="fill: #ffa600"/>
   </g>
   <g id="patch_17">
    <path d="M 150.618384 44.024635 
Q 147.640031 43.837152 144.436645 43.742982 
Q 141.23326 43.649668 137.818081 43.649668 
Q 130.100835 43.649668 125.593593 44.207838 
Q 121.086351 44.766008 121.086351 45.720548 
Q 121.086351 46.686216 125.673016 47.240106 
Q 130.2663 47.793995 138.254906 47.793995 
Q 141.332539 47.793995 144.152047 47.718659 
Q 146.978174 47.64418 149.479991 47.496932 
L 149.479991 46.670806 
Q 146.898751 46.860002 144.343986 46.953316 
Q 141.78922 47.047486 139.221217 47.047486 
Q 134.469088 47.047486 131.894466 46.703338 
Q 129.319845 46.360046 129.319845 45.720548 
Q 129.319845 45.087042 131.801806 44.741182 
Q 134.283768 44.396178 138.850577 44.396178 
Q 140.094867 44.396178 141.160456 44.415868 
Q 142.226045 44.436414 143.073221 44.479218 
L 143.073221 45.254835 
L 138.208577 45.254835 
L 138.208577 45.945699 
L 150.618384 45.945699 
L 150.618384 44.024635 
z
" clip-path="url(#p823f6665b6)" style="fill: #ffa600"/>
   </g>
   <g id="patch_18">
    <path d="M 121.086351 43.649668 
L 150.618384 43.649668 
L 150.618384 43.600441 
L 139.99372 43.600441 
L 139.99372 43.397256 
L 131.731619 43.397256 
L 131.731619 43.600441 
L 121.086351 43.600441 
L 121.086351 43.649668 
z
" clip-path="url(#p823f6665b6)" style="fill: #ff0000"/>
   </g>
   <g id="patch_19">
    <path d="M 181.704735 44.339473 
Q 178.726381 43.868364 175.522996 43.631735 
Q 172.319611 43.397256 168.904432 43.397256 
Q 161.187186 43.397256 156.679944 44.799825 
Q 152.172702 46.202394 152.172702 48.60096 
Q 152.172702 51.02749 156.759367 52.419303 
Q 161.35265 53.811117 169.341257 53.811117 
Q 172.41889 53.811117 175.238398 53.621813 
Q 178.064525 53.43466 180.566342 53.064657 
L 180.566342 50.988769 
Q 177.985102 51.46418 175.430337 51.698658 
Q 172.875571 51.935288 170.307568 51.935288 
Q 165.555439 51.935288 162.980817 51.070514 
Q 160.406196 50.207891 160.406196 48.60096 
Q 160.406196 47.009087 162.888157 46.14001 
Q 165.370119 45.273085 169.936928 45.273085 
Q 171.181218 45.273085 172.246807 45.322562 
Q 173.312396 45.37419 174.159572 45.481749 
L 174.159572 47.430718 
L 169.294928 47.430718 
L 169.294928 49.16672 
L 181.704735 49.16672 
L 181.704735 44.339473 
z
" clip-path="url(#p823f6665b6)" style="fill: #ffa600"/>
   </g>
   <g id="patch_20">
    <path d="M 212.791086 44.12717 
Q 210.320783 43.765368 207.649581 43.582364 
Q 204.978379 43.397256 202.069076 43.397256 
Q 193.39325 43.397256 188.326152 44.768736 
Q 183.259053 46.140216 183.259053 48.485615 
Q 183.259053 50.839428 188.326152 52.208804 
Q 193.39325 53.580284 202.069076 53.580284 
Q 204.978379 53.580284 207.649581 53.395176 
Q 210.320783 53.212172 212.791086 52.850371 
L 212.791086 50.820496 
Q 210.298461 51.300094 207.880242 51.523064 
Q 205.462023 51.746035 202.790821 51.746035 
Q 197.999027 51.746035 195.253419 50.877291 
Q 192.515251 50.01065 192.515251 48.485615 
Q 192.515251 46.96689 195.253419 46.098146 
Q 197.999027 45.231505 202.790821 45.231505 
Q 205.462023 45.231505 207.880242 45.454476 
Q 210.298461 45.67955 212.791086 46.159147 
L 212.791086 44.12717 
z
" clip-path="url(#p823f6665b6)" style="fill: #0000ff"/>
   </g>
   <g id="patch_21">
    <path d="M 212.791086 54.525818 
Q 209.812732 54.053051 206.609347 53.815588 
Q 203.405962 53.580284 199.990783 53.580284 
Q 192.273537 53.580284 187.766295 54.987791 
Q 183.259053 56.395298 183.259053 58.802308 
Q 183.259053 61.237382 187.845718 62.634095 
Q 192.439001 64.030809 200.427608 64.030809 
Q 203.505241 64.030809 206.324749 63.840838 
Q 209.150876 63.653027 211.652693 63.281721 
L 211.652693 61.198524 
Q 209.071453 61.675609 206.516687 61.910913 
Q 203.961922 62.148376 201.393919 62.148376 
Q 196.64179 62.148376 194.067168 61.280557 
Q 191.492547 60.414897 191.492547 58.802308 
Q 191.492547 57.204831 193.974508 56.332694 
Q 196.45647 55.462717 201.023279 55.462717 
Q 202.267569 55.462717 203.333158 55.512368 
Q 204.398747 55.564178 205.245923 55.672116 
L 205.245923 57.627946 
L 200.381278 57.627946 
L 200.381278 59.37006 
L 212.791086 59.37006 
L 212.791086 54.525818 
z
" clip-path="url(#p823f6665b6)" style="fill: #ffa600"/>
   </g>
   <g id="patch_22">
    <path d="M 243.877437 43.739001 
Q 241.407134 43.569606 238.735932 43.483923 
Q 236.06473 43.397256 233.155427 43.397256 
Q 224.479601 43.397256 219.412503 44.039381 
Q 214.345404 44.681506 214.345404 45.779618 
Q 214.345404 46.88167 219.412503 47.52281 
Q 224.479601 48.164935 233.155427 48.164935 
Q 236.06473 48.164935 238.735932 48.078268 
Q 241.407134 47.992586 243.877437 47.823191 
L 243.877437 46.872807 
Q 241.384812 47.097353 238.966593 47.201748 
Q 236.548374 47.306142 233.877172 47.306142 
Q 229.085378 47.306142 226.33977 46.899398 
Q 223.601602 46.493638 223.601602 45.779618 
Q 223.601602 45.068554 226.33977 44.661809 
Q 229.085378 44.256049 233.877172 44.256049 
Q 236.548374 44.256049 238.966593 44.360444 
Q 241.384812 44.465823 243.877437 44.69037 
L 243.877437 43.739001 
z
" clip-path="url(#p823f6665b6)" style="fill: #0000ff"/>
   </g>
   <g id="patch_23">
    <path d="M 243.877437 64.105521 
Q 240.899083 62.829646 237.695698 62.188796 
Q 234.492313 61.553772 231.077134 61.553772 
Q 223.359888 61.553772 218.852646 65.352265 
Q 214.345404 69.150759 214.345404 75.646648 
Q 214.345404 82.218275 218.932069 85.987638 
Q 223.525352 89.757002 231.513959 89.757002 
Q 234.591592 89.757002 237.4111 89.244322 
Q 240.237227 88.737468 242.739044 87.735411 
L 242.739044 82.113408 
Q 240.157804 83.400934 237.603038 84.035959 
Q 235.048273 84.676809 232.48027 84.676809 
Q 227.728141 84.676809 225.153519 82.334793 
Q 222.578898 79.998603 222.578898 75.646648 
Q 222.578898 71.335475 225.060859 68.981807 
Q 227.542821 66.633965 232.10963 66.633965 
Q 233.35392 66.633965 234.419509 66.767961 
Q 235.485098 66.907783 236.332274 67.199079 
L 236.332274 72.477353 
L 231.467629 72.477353 
L 231.467629 77.178863 
L 243.877437 77.178863 
L 243.877437 64.105521 
z
" clip-path="url(#p823f6665b6)" style="fill: #ffa600"/>
   </g>
   <g id="patch_24">
    <path d="M 214.345404 61.553772 
L 243.877437 61.553772 
L 243.877437 58.942576 
L 233.252773 58.942576 
L 233.252773 48.164935 
L 224.990672 48.164935 
L 224.990672 58.942576 
L 214.345404 58.942576 
L 214.345404 61.553772 
z
" clip-path="url(#p823f6665b6)" style="fill: #ff0000"/>
   </g>
   <g id="patch_25">
    <path d="M 274.963788 45.0672 
Q 272.493485 44.931361 269.822283 44.862652 
Q 267.151081 44.793153 264.241778 44.793153 
Q 255.565952 44.793153 250.498854 45.308077 
Q 245.431755 45.823001 245.431755 46.703584 
Q 245.431755 47.587326 250.498854 48.10146 
Q 255.565952 48.616384 264.241778 48.616384 
Q 267.151081 48.616384 269.822283 48.546886 
Q 272.493485 48.478176 274.963788 48.342338 
L 274.963788 47.580218 
Q 272.471163 47.760284 270.052944 47.843998 
Q 267.634725 47.927713 264.963523 47.927713 
Q 260.171729 47.927713 257.426121 47.601542 
Q 254.687953 47.276161 254.687953 46.703584 
Q 254.687953 46.133377 257.426121 45.807206 
Q 260.171729 45.481824 264.963523 45.481824 
Q 267.634725 45.481824 270.052944 45.565539 
Q 272.471163 45.650043 274.963788 45.830109 
L 274.963788 45.0672 
z
" clip-path="url(#p823f6665b6)" style="fill: #0000ff"/>
   </g>
   <g id="patch_26">
    <path d="M 274.963788 51.968522 
Q 271.985434 50.292453 268.782049 49.450592 
Q 265.578664 48.616384 262.163485 48.616384 
Q 254.446239 48.616384 249.938997 53.606325 
Q 245.431755 58.596265 245.431755 67.129675 
Q 245.431755 75.762577 250.01842 80.714251 
Q 254.611703 85.665924 262.60031 85.665924 
Q 265.677943 85.665924 268.497451 84.992436 
Q 271.323578 84.3266 273.825395 83.010235 
L 273.825395 75.624818 
Q 271.244155 77.316193 268.689389 78.150401 
Q 266.134624 78.992262 263.566621 78.992262 
Q 258.814492 78.992262 256.23987 75.915643 
Q 253.665249 72.846676 253.665249 67.129675 
Q 253.665249 61.466246 256.14721 58.37432 
Q 258.629172 55.290047 263.195981 55.290047 
Q 264.440271 55.290047 265.50586 55.466072 
Q 266.571449 55.649751 267.418625 56.032415 
L 267.418625 62.966289 
L 262.55398 62.966289 
L 262.55398 69.142488 
L 274.963788 69.142488 
L 274.963788 51.968522 
z
" clip-path="url(#p823f6665b6)" style="fill: #ffa600"/>
   </g>
   <g id="patch_27">
    <path d="M 245.431755 44.793153 
L 274.963788 44.793153 
L 274.963788 44.520914 
L 264.339124 44.520914 
L 264.339124 43.397256 
L 256.077023 43.397256 
L 256.077023 44.520914 
L 245.431755 44.520914 
L 245.431755 44.793153 
z
" clip-path="url(#p823f6665b6)" style="fill: #ff0000"/>
   </g>
   <g id="patch_28">
    <path d="M 296.974971 55.687071 
L 285.617426 55.687071 
L 283.824129 46.254849 
L 276.518106 46.254849 
L 286.951832 98.032197 
L 295.616413 98.032197 
L 306.050139 46.254849 
L 298.750154 46.254849 
L 296.974971 55.687071 
z
M 287.428837 65.29684 
L 295.145446 65.29684 
L 291.29318 85.892373 
L 287.428837 65.29684 
z
" clip-path="url(#p823f6665b6)" style="fill: #008000"/>
   </g>
   <g id="patch_29">
    <path d="M 306.050139 43.590755 
Q 303.579836 43.566682 300.908634 43.554506 
Q 298.237432 43.542189 295.328129 43.542189 
Q 286.652303 43.542189 281.585205 43.633443 
Q 276.518106 43.724697 276.518106 43.880752 
Q 276.518106 44.037367 281.585205 44.128481 
Q 286.652303 44.219735 295.328129 44.219735 
Q 298.237432 44.219735 300.908634 44.207419 
Q 303.579836 44.195242 306.050139 44.171169 
L 306.050139 44.036108 
Q 303.557514 44.068019 301.139295 44.082854 
Q 298.721076 44.09769 296.049874 44.09769 
Q 291.25808 44.09769 288.512472 44.039887 
Q 285.774304 43.982223 285.774304 43.880752 
Q 285.774304 43.779701 288.512472 43.721898 
Q 291.25808 43.664234 296.049874 43.664234 
Q 298.721076 43.664234 301.139295 43.67907 
Q 303.557514 43.694046 306.050139 43.725957 
L 306.050139 43.590755 
z
" clip-path="url(#p823f6665b6)" style="fill: #0000ff"/>
   </g>
   <g id="patch_30">
    <path d="M 306.050139 44.403867 
Q 303.071785 44.311801 299.8684 44.265558 
Q 296.665015 44.219735 293.249836 44.219735 
Q 285.53259 44.219735 281.025348 44.49383 
Q 276.518106 44.767925 276.518106 45.236662 
Q 276.518106 45.710863 281.104771 45.982856 
Q 285.698054 46.254849 293.686661 46.254849 
Q 296.764294 46.254849 299.583802 46.217855 
Q 302.409929 46.181281 304.911746 46.108973 
L 304.911746 45.703296 
Q 302.330506 45.796202 299.77574 45.842025 
Q 297.220975 45.888268 294.652972 45.888268 
Q 289.900843 45.888268 287.326221 45.719271 
Q 284.7516 45.550694 284.7516 45.236662 
Q 284.7516 44.925572 287.233561 44.755734 
Q 289.715523 44.586316 294.282332 44.586316 
Q 295.526622 44.586316 296.592211 44.595985 
Q 297.6578 44.606075 298.504976 44.627094 
L 298.504976 45.007969 
L 293.640331 45.007969 
L 293.640331 45.347224 
L 306.050139 45.347224 
L 306.050139 44.403867 
z
" clip-path="url(#p823f6665b6)" style="fill: #ffa600"/>
   </g>
   <g id="patch_31">
    <path d="M 276.518106 43.542189 
L 306.050139 43.542189 
L 306.050139 43.513923 
L 295.425475 43.513923 
L 295.425475 43.397256 
L 287.163374 43.397256 
L 287.163374 43.513923 
L 276.518106 43.513923 
L 276.518106 43.542189 
z
" clip-path="url(#p823f6665b6)" style="fill: #ff0000"/>
   </g>
   <g id="patch_32">
    <path d="M 337.13649 57.093118 
Q 334.666187 55.737758 331.994985 55.052198 
Q 329.323783 54.358757 326.41448 54.358757 
Q 317.738654 54.358757 312.671556 59.496518 
Q 307.604457 64.634279 307.604457 73.420481 
Q 307.604457 82.238203 312.671556 87.368084 
Q 317.738654 92.505845 326.41448 92.505845 
Q 329.323783 92.505845 331.994985 91.812405 
Q 334.666187 91.126844 337.13649 89.771484 
L 337.13649 82.167283 
Q 334.643865 83.963923 332.225646 84.799203 
Q 329.807427 85.634483 327.136225 85.634483 
Q 322.344431 85.634483 319.598823 82.380043 
Q 316.860655 79.133482 316.860655 73.420481 
Q 316.860655 67.73112 319.598823 64.476679 
Q 322.344431 61.230119 327.136225 61.230119 
Q 329.807427 61.230119 332.225646 62.065399 
Q 334.643865 62.908559 337.13649 64.705199 
L 337.13649 57.093118 
z
" clip-path="url(#p823f6665b6)" style="fill: #0000ff"/>
   </g>
   <g id="patch_33">
    <path d="M 307.604457 54.358757 
L 337.13649 54.358757 
L 337.13649 52.220959 
L 326.511826 52.220959 
L 326.511826 43.397256 
L 318.249725 43.397256 
L 318.249725 52.220959 
L 307.604457 52.220959 
L 307.604457 54.358757 
z
" clip-path="url(#p823f6665b6)" style="fill: #ff0000"/>
   </g>
   <g id="patch_34">
    <path d="M 368.222841 55.230709 
Q 365.244487 49.313983 362.041102 46.342111 
Q 358.837717 43.397256 355.422538 43.397256 
Q 347.705292 43.397256 343.19805 61.012351 
Q 338.690808 78.627445 338.690808 108.751418 
Q 338.690808 139.226612 343.277473 156.706621 
Q 347.870756 174.18663 355.859363 174.18663 
Q 358.936996 174.18663 361.756504 171.809133 
Q 364.582631 169.458653 367.084448 164.811726 
L 367.084448 138.740305 
Q 364.503208 144.711066 361.948442 147.655921 
Q 359.393677 150.627792 356.825674 150.627792 
Q 352.073545 150.627792 349.498923 139.766952 
Q 346.924302 128.933129 346.924302 108.751418 
Q 346.924302 88.758826 349.406263 77.843951 
Q 351.888225 66.956094 356.455034 66.956094 
Q 357.699324 66.956094 358.764913 67.577485 
Q 359.830502 68.225894 360.677678 69.576745 
L 360.677678 94.054161 
L 355.813033 94.054161 
L 355.813033 115.856893 
L 368.222841 115.856893 
L 368.222841 55.230709 
z
" clip-path="url(#p823f6665b6)" style="fill: #ffa600"/>
   </g>
   <g id="patch_35">
    <path d="M 369.777159 192.24 
L 399.309192 192.24 
L 399.309192 163.211518 
L 388.684528 163.211518 
L 388.684528 43.397256 
L 380.422427 43.397256 
L 380.422427 163.211518 
L 369.777159 163.211518 
L 369.777159 192.24 
z
" clip-path="url(#p823f6665b6)" style="fill: #ff0000"/>
   </g>
   <g id="patch_36">
    <path d="M 421.320375 43.757625 
L 409.96283 43.757625 
L 408.169533 43.397256 
L 400.86351 43.397256 
L 411.297236 45.375469 
L 419.961817 45.375469 
L 430.395543 43.397256 
L 423.095558 43.397256 
L 421.320375 43.757625 
z
M 411.774241 44.124777 
L 419.49085 44.124777 
L 415.638584 44.911653 
L 411.774241 44.124777 
z
" clip-path="url(#p823f6665b6)" style="fill: #008000"/>
   </g>
   <g id="patch_37">
    <path d="M 430.395543 46.810975 
Q 427.92524 46.099427 425.254038 45.739516 
Q 422.582836 45.375469 419.673533 45.375469 
Q 410.997707 45.375469 405.930608 48.07273 
Q 400.86351 50.769992 400.86351 55.38264 
Q 400.86351 60.011836 405.930608 62.704961 
Q 410.997707 65.402222 419.673533 65.402222 
Q 422.582836 65.402222 425.254038 65.038175 
Q 427.92524 64.678264 430.395543 63.966717 
L 430.395543 59.974604 
Q 427.902918 60.917818 425.484699 61.35633 
Q 423.06648 61.794842 420.395278 61.794842 
Q 415.603484 61.794842 412.857876 60.0863 
Q 410.119708 58.381896 410.119708 55.38264 
Q 410.119708 52.395795 412.857876 50.687254 
Q 415.603484 48.982849 420.395278 48.982849 
Q 423.06648 48.982849 425.484699 49.421361 
Q 427.902918 49.86401 430.395543 50.807224 
L 430.395543 46.810975 
z
" clip-path="url(#p823f6665b6)" style="fill: #0000ff"/>
   </g>
   <g id="patch_38">
    <path d="M 430.395543 68.185668 
Q 427.417189 66.793945 424.213804 66.094906 
Q 421.010419 65.402222 417.59524 65.402222 
Q 409.877994 65.402222 405.370752 69.545616 
Q 400.86351 73.68901 400.86351 80.774722 
Q 400.86351 87.943048 405.450175 92.054668 
Q 410.043458 96.166287 418.032065 96.166287 
Q 421.109698 96.166287 423.929206 95.607056 
Q 426.755333 95.05418 429.25715 93.961137 
L 429.25715 87.82866 
Q 426.67591 89.233093 424.121144 89.925777 
Q 421.566379 90.624815 418.998376 90.624815 
Q 414.246247 90.624815 411.671625 88.070146 
Q 409.097004 85.521832 409.097004 80.774722 
Q 409.097004 76.072097 411.578965 73.504718 
Q 414.060927 70.943694 418.627736 70.943694 
Q 419.872026 70.943694 420.937615 71.089857 
Q 422.003204 71.242374 422.85038 71.560119 
L 422.85038 77.317657 
L 417.985735 77.317657 
L 417.985735 82.446061 
L 430.395543 82.446061 
L 430.395543 68.185668 
z
" clip-path="url(#p823f6665b6)" style="fill: #ffa600"/>
   </g>
   <g id="patch_39">
    <path d="M 452.406726 62.335382 
L 441.049181 62.335382 
L 439.255884 43.397256 
L 431.949861 43.397256 
L 442.383587 147.356429 
L 451.048168 147.356429 
L 461.481894 43.397256 
L 454.181909 43.397256 
L 452.406726 62.335382 
z
M 442.860592 81.629991 
L 450.577201 81.629991 
L 446.724934 122.981946 
L 442.860592 81.629991 
z
" clip-path="url(#p823f6665b6)" style="fill: #008000"/>
   </g>
   <g id="patch_40">
    <path d="M 492.568245 50.852796 
Q 490.097941 47.803366 487.42674 46.260921 
Q 484.755538 44.700748 481.846235 44.700748 
Q 473.170409 44.700748 468.10331 56.260216 
Q 463.036212 67.819685 463.036212 87.587794 
Q 463.036212 107.426821 468.10331 118.96856 
Q 473.170409 130.528029 481.846235 130.528029 
Q 484.755538 130.528029 487.42674 128.967855 
Q 490.097941 127.425411 492.568245 124.375981 
L 492.568245 107.267258 
Q 490.075619 111.309526 487.657401 113.188826 
Q 485.239182 115.068126 482.56798 115.068126 
Q 477.776186 115.068126 475.030578 107.745948 
Q 472.29241 100.441498 472.29241 87.587794 
Q 472.29241 74.787279 475.030578 67.4651 
Q 477.776186 60.16065 482.56798 60.16065 
Q 485.239182 60.16065 487.657401 62.039951 
Q 490.075619 63.93698 492.568245 67.979248 
L 492.568245 50.852796 
z
" clip-path="url(#p823f6665b6)" style="fill: #0000ff"/>
   </g>
   <g id="patch_41">
    <path d="M 463.036212 44.700748 
L 492.568245 44.700748 
L 492.568245 44.44653 
L 481.943581 44.44653 
L 481.943581 43.397256 
L 473.68148 43.397256 
L 473.68148 44.44653 
L 463.036212 44.44653 
L 463.036212 44.700748 
z
" clip-path="url(#p823f6665b6)" style="fill: #ff0000"/>
   </g>
   <g id="patch_42">
    <path d="M 514.579428 48.316892 
L 503.221883 48.316892 
L 501.428586 47.202952 
L 494.122563 47.202952 
L 504.556289 53.317829 
L 513.22087 53.317829 
L 523.654596 47.202952 
L 516.354611 47.202952 
L 514.579428 48.316892 
z
M 505.033293 49.451801 
L 512.749903 49.451801 
L 508.897636 51.884122 
L 505.033293 49.451801 
z
" clip-path="url(#p823f6665b6)" style="fill: #008000"/>
   </g>
   <g id="patch_43">
    <path d="M 523.654596 43.670046 
Q 521.184292 43.53483 518.513091 43.466436 
Q 515.841889 43.397256 512.932585 43.397256 
Q 504.25676 43.397256 499.189661 43.909818 
Q 494.122563 44.422381 494.122563 45.298925 
Q 494.122563 46.178614 499.189661 46.69039 
Q 504.25676 47.202952 512.932585 47.202952 
Q 515.841889 47.202952 518.513091 47.133772 
Q 521.184292 47.065378 523.654596 46.930162 
L 523.654596 46.171538 
Q 521.16197 46.350778 518.743752 46.434109 
Q 516.325533 46.517439 513.654331 46.517439 
Q 508.862537 46.517439 506.116928 46.192764 
Q 503.378761 45.868875 503.378761 45.298925 
Q 503.378761 44.731333 506.116928 44.406658 
Q 508.862537 44.082769 513.654331 44.082769 
Q 516.325533 44.082769 518.743752 44.166099 
Q 521.16197 44.250216 523.654596 44.429456 
L 523.654596 43.670046 
z
" clip-path="url(#p823f6665b6)" style="fill: #0000ff"/>
   </g>
   <g id="patch_44">
    <path d="M 523.654596 68.905019 
Q 520.676242 67.739964 517.472857 67.154777 
Q 514.269472 66.574909 510.854293 66.574909 
Q 503.137047 66.574909 498.629805 70.043475 
Q 494.122563 73.51204 494.122563 79.443712 
Q 494.122563 85.444543 498.709228 88.886509 
Q 503.302511 92.328475 511.291118 92.328475 
Q 514.368751 92.328475 517.188259 91.860325 
Q 520.014386 91.397495 522.516203 90.482475 
L 522.516203 85.348785 
Q 519.934963 86.52448 517.380197 87.104348 
Q 514.825431 87.689535 512.257429 87.689535 
Q 507.505299 87.689535 504.930678 85.550941 
Q 502.356057 83.417667 502.356057 79.443712 
Q 502.356057 75.506997 504.838018 73.357763 
Q 507.31998 71.213849 511.886789 71.213849 
Q 513.131079 71.213849 514.196668 71.336207 
Q 515.262257 71.463884 516.109433 71.729878 
L 516.109433 76.549695 
L 511.244788 76.549695 
L 511.244788 80.842842 
L 523.654596 80.842842 
L 523.654596 68.905019 
z
" clip-path="url(#p823f6665b6)" style="fill: #ffa600"/>
   </g>
   <g id="patch_45">
    <path d="M 494.122563 66.574909 
L 523.654596 66.574909 
L 523.654596 63.989409 
L 513.029932 63.989409 
L 513.029932 53.317829 
L 504.767831 53.317829 
L 504.767831 63.989409 
L 494.122563 63.989409 
L 494.122563 66.574909 
z
" clip-path="url(#p823f6665b6)" style="fill: #ff0000"/>
   </g>
   <g id="patch_46">
    <path d="M 545.665779 62.558574 
L 534.308234 62.558574 
L 532.514937 60.108927 
L 525.208914 60.108927 
L 535.64264 73.556048 
L 544.307221 73.556048 
L 554.740947 60.108927 
L 547.440962 60.108927 
L 545.665779 62.558574 
z
M 536.119644 65.054332 
L 543.836254 65.054332 
L 539.983987 70.403208 
L 536.119644 65.054332 
z
" clip-path="url(#p823f6665b6)" style="fill: #008000"/>
   </g>
   <g id="patch_47">
    <path d="M 554.740947 48.126778 
Q 552.270643 47.909236 549.599442 47.7992 
Q 546.92824 47.6879 544.018936 47.6879 
Q 535.343111 47.6879 530.276012 48.512535 
Q 525.208914 49.337169 525.208914 50.747396 
Q 525.208914 52.162681 530.276012 52.986051 
Q 535.343111 53.810686 544.018936 53.810686 
Q 546.92824 53.810686 549.599442 53.699386 
Q 552.270643 53.58935 554.740947 53.371808 
L 554.740947 52.151298 
Q 552.248321 52.439668 549.830103 52.573734 
Q 547.411884 52.7078 544.740682 52.7078 
Q 539.948888 52.7078 537.203279 52.185447 
Q 534.465112 51.664359 534.465112 50.747396 
Q 534.465112 49.834227 537.203279 49.311874 
Q 539.948888 48.790786 544.740682 48.790786 
Q 547.411884 48.790786 549.830103 48.924852 
Q 552.248321 49.060183 554.740947 49.348552 
L 554.740947 48.126778 
z
" clip-path="url(#p823f6665b6)" style="fill: #0000ff"/>
   </g>
   <g id="patch_48">
    <path d="M 554.740947 54.380533 
Q 551.762593 54.09561 548.559208 53.952497 
Q 545.355823 53.810686 541.940644 53.810686 
Q 534.223398 53.810686 529.716156 54.658951 
Q 525.208914 55.507217 525.208914 56.957855 
Q 525.208914 58.425406 529.795579 59.267166 
Q 534.388862 60.108927 542.377469 60.108927 
Q 545.455102 60.108927 548.27461 59.994437 
Q 551.100737 59.881248 553.602554 59.657473 
L 553.602554 58.401988 
Q 551.021314 58.689513 548.466548 58.831324 
Q 545.911782 58.974437 543.34378 58.974437 
Q 538.59165 58.974437 536.017029 58.451426 
Q 533.442408 57.929717 533.442408 56.957855 
Q 533.442408 55.9951 535.924369 55.469487 
Q 538.406331 54.945176 542.97314 54.945176 
Q 544.21743 54.945176 545.283019 54.975099 
Q 546.348608 55.006324 547.195784 55.071375 
L 547.195784 56.2501 
L 542.331139 56.2501 
L 542.331139 57.300023 
L 554.740947 57.300023 
L 554.740947 54.380533 
z
" clip-path="url(#p823f6665b6)" style="fill: #ffa600"/>
   </g>
   <g id="patch_49">
    <path d="M 525.208914 47.6879 
L 554.740947 47.6879 
L 554.740947 46.851105 
L 544.116283 46.851105 
L 544.116283 43.397256 
L 535.854182 43.397256 
L 535.854182 46.851105 
L 525.208914 46.851105 
L 525.208914 47.6879 
z
" clip-path="url(#p823f6665b6)" style="fill: #ff0000"/>
   </g>
   <g id="patch_50">
    <path d="M 576.75213 48.135795 
L 565.394585 48.135795 
L 563.601288 45.917247 
L 556.295265 45.917247 
L 566.728991 58.095773 
L 575.393572 58.095773 
L 585.827298 45.917247 
L 578.527313 45.917247 
L 576.75213 48.135795 
z
M 567.205995 50.396104 
L 574.922605 50.396104 
L 571.070338 55.24037 
L 567.205995 50.396104 
z
" clip-path="url(#p823f6665b6)" style="fill: #008000"/>
   </g>
   <g id="patch_51">
    <path d="M 585.827298 60.086152 
Q 583.356994 59.099566 580.685793 58.600537 
Q 578.014591 58.095773 575.105287 58.095773 
Q 566.429462 58.095773 561.362363 61.835622 
Q 556.295265 65.57547 556.295265 71.971071 
Q 556.295265 78.389615 561.362363 82.123728 
Q 566.429462 85.863577 575.105287 85.863577 
Q 578.014591 85.863577 580.685793 85.358812 
Q 583.356994 84.859783 585.827298 83.873198 
L 585.827298 78.337992 
Q 583.334672 79.645792 580.916453 80.253804 
Q 578.498235 80.861816 575.827033 80.861816 
Q 571.035239 80.861816 568.28963 78.492863 
Q 565.551463 76.129645 565.551463 71.971071 
Q 565.551463 67.829705 568.28963 65.460751 
Q 571.035239 63.097534 575.827033 63.097534 
Q 578.498235 63.097534 580.916453 63.705546 
Q 583.334672 64.319294 585.827298 65.627094 
L 585.827298 60.086152 
z
" clip-path="url(#p823f6665b6)" style="fill: #0000ff"/>
   </g>
   <g id="patch_52">
    <path d="M 585.827298 44.584129 
Q 582.848944 44.517821 579.645559 44.484516 
Q 576.442174 44.451513 573.026995 44.451513 
Q 565.309749 44.451513 560.802507 44.648923 
Q 556.295265 44.846332 556.295265 45.183926 
Q 556.295265 45.525456 560.88193 45.721351 
Q 565.475213 45.917247 573.46382 45.917247 
Q 576.541452 45.917247 579.360961 45.890602 
Q 582.187088 45.864261 584.688905 45.812184 
L 584.688905 45.520006 
Q 582.107665 45.586919 579.552899 45.619922 
Q 576.998133 45.653227 574.430131 45.653227 
Q 569.678001 45.653227 567.10338 45.531511 
Q 564.528758 45.410099 564.528758 45.183926 
Q 564.528758 44.959872 567.01072 44.837551 
Q 569.492682 44.715533 574.059491 44.715533 
Q 575.303781 44.715533 576.36937 44.722497 
Q 577.434959 44.729764 578.282135 44.744902 
L 578.282135 45.019216 
L 573.41749 45.019216 
L 573.41749 45.263556 
L 585.827298 45.263556 
L 585.827298 44.584129 
z
" clip-path="url(#p823f6665b6)" style="fill: #ffa600"/>
   </g>
   <g id="patch_53">
    <path d="M 556.295265 44.451513 
L 585.827298 44.451513 
L 585.827298 44.245904 
L 575.202634 44.245904 
L 575.202634 43.397256 
L 566.940532 43.397256 
L 566.940532 44.245904 
L 556.295265 44.245904 
L 556.295265 44.451513 
z
" clip-path="url(#p823f6665b6)" style="fill: #ff0000"/>
   </g>
   <g id="patch_54">
    <path d="M 607.838481 50.147671 
L 596.480936 50.147671 
L 594.687639 48.991617 
L 587.381616 48.991617 
L 597.815342 55.33767 
L 606.479923 55.33767 
L 616.913649 48.991617 
L 609.613664 48.991617 
L 607.838481 50.147671 
z
M 598.292346 51.325485 
L 606.008956 51.325485 
L 602.156689 53.849762 
L 598.292346 51.325485 
z
" clip-path="url(#p823f6665b6)" style="fill: #008000"/>
   </g>
   <g id="patch_55">
    <path d="M 616.913649 43.903418 
Q 613.935295 43.650337 610.73191 43.523219 
Q 607.528525 43.397256 604.113346 43.397256 
Q 596.3961 43.397256 591.888858 44.150721 
Q 587.381616 44.904186 587.381616 46.192703 
Q 587.381616 47.496244 591.968281 48.243931 
Q 596.561564 48.991617 604.550171 48.991617 
Q 607.627803 48.991617 610.447312 48.889923 
Q 613.273439 48.789384 615.775256 48.590617 
L 615.775256 47.475443 
Q 613.194016 47.730835 610.63925 47.856798 
Q 608.084484 47.983916 605.516481 47.983916 
Q 600.764352 47.983916 598.189731 47.519356 
Q 595.615109 47.055952 595.615109 46.192703 
Q 595.615109 45.337544 598.097071 44.870673 
Q 600.579033 44.404958 605.145842 44.404958 
Q 606.390132 44.404958 607.455721 44.431537 
Q 608.52131 44.459272 609.368486 44.517053 
L 609.368486 45.564045 
L 604.503841 45.564045 
L 604.503841 46.496632 
L 616.913649 46.496632 
L 616.913649 43.903418 
z
" clip-path="url(#p823f6665b6)" style="fill: #ffa600"/>
   </g>
   <g id="patch_56">
    <path d="M 587.381616 66.170309 
L 616.913649 66.170309 
L 616.913649 64.057643 
L 606.288985 64.057643 
L 606.288985 55.33767 
L 598.026883 55.33767 
L 598.026883 64.057643 
L 587.381616 64.057643 
L 587.381616 66.170309 
z
" clip-path="url(#p823f6665b6)" style="fill: #ff0000"/>
   </g>
   <g id="patch_57">
    <path d="M 638.924832 45.253781 
L 627.567287 45.253781 
L 625.77399 44.824746 
L 618.467967 44.824746 
L 628.901693 47.179899 
L 637.566274 47.179899 
L 648 44.824746 
L 640.700015 44.824746 
L 638.924832 45.253781 
z
M 629.378697 45.690893 
L 637.095307 45.690893 
L 633.24304 46.627705 
L 629.378697 45.690893 
z
" clip-path="url(#p823f6665b6)" style="fill: #008000"/>
   </g>
   <g id="patch_58">
    <path d="M 648 48.434806 
Q 645.529696 47.812777 642.858495 47.498146 
Q 640.187293 47.179899 637.277989 47.179899 
Q 628.602164 47.179899 623.535065 49.537822 
Q 618.467967 51.895744 618.467967 55.928082 
Q 618.467967 59.974884 623.535065 62.329191 
Q 628.602164 64.687113 637.277989 64.687113 
Q 640.187293 64.687113 642.858495 64.368866 
Q 645.529696 64.054235 648 63.432207 
L 648 59.942336 
Q 645.507374 60.766886 643.089155 61.150229 
Q 640.670937 61.533573 637.999735 61.533573 
Q 633.207941 61.533573 630.462332 60.03998 
Q 627.724165 58.550005 627.724165 55.928082 
Q 627.724165 53.317008 630.462332 51.823415 
Q 633.207941 50.33344 637.999735 50.33344 
Q 640.670937 50.33344 643.089155 50.716783 
Q 645.507374 51.103743 648 51.928292 
L 648 48.434806 
z
" clip-path="url(#p823f6665b6)" style="fill: #0000ff"/>
   </g>
   <g id="patch_59">
    <path d="M 648 66.473334 
Q 645.021646 65.580223 641.818261 65.131629 
Q 638.614876 64.687113 635.199697 64.687113 
Q 627.482451 64.687113 622.975209 67.346053 
Q 618.467967 70.004992 618.467967 74.552105 
Q 618.467967 79.152234 623.054632 81.790782 
Q 627.647915 84.429331 635.636522 84.429331 
Q 638.714154 84.429331 641.533663 84.070456 
Q 644.35979 83.715659 646.861607 83.014221 
L 646.861607 79.078827 
Q 644.280367 79.980093 641.725601 80.424609 
Q 639.170835 80.873204 636.602832 80.873204 
Q 631.850703 80.873204 629.276082 79.233796 
Q 626.70146 77.598467 626.70146 74.552105 
Q 626.70146 71.53429 629.183422 69.886727 
Q 631.665384 68.243241 636.232193 68.243241 
Q 637.476483 68.243241 638.542072 68.337038 
Q 639.607661 68.434913 640.454837 68.638819 
L 640.454837 72.333603 
L 635.590192 72.333603 
L 635.590192 75.624653 
L 648 75.624653 
L 648 66.473334 
z
" clip-path="url(#p823f6665b6)" style="fill: #ffa600"/>
   </g>
   <g id="patch_60">
    <path d="M 618.467967 44.824746 
L 648 44.824746 
L 648 44.546346 
L 637.375336 44.546346 
L 637.375336 43.397256 
L 629.113234 43.397256 
L 629.113234 44.546346 
L 618.467967 44.546346 
L 618.467967 44.824746 
z
" clip-path="url(#p823f6665b6)" style="fill: #ff0000"/>
   </g>
   <g id="matplotlib.axis_1">
    <g id="xtick_1">
     <g id="line2d_2">
      <defs>
       <path id="m7396e06efe" d="M 0 0 
L 0 3.5 
" style="stroke: #000000; stroke-width: 0.8"/>
      </defs>
      <g>
       <use xlink:href="#m7396e06efe" x="104.766017" y="192.24" style="stroke: #000000; stroke-width: 0.8"/>
      </g>
     </g>
     <g id="text_1">
      <!-- 0 -->
      <g transform="translate(101.584767 206.838437) scale(0.1 -0.1)">
       <defs>
        <path id="DejaVuSans-30" d="M 2034 4250 
Q 1547 4250 1301 3770 
Q 1056 3291 1056 2328 
Q 1056 1369 1301 889 
Q 1547 409 2034 409 
Q 2525 409 2770 889 
Q 3016 1369 3016 2328 
Q 3016 3291 2770 3770 
Q 2525 4250 2034 4250 
z
M 2034 4750 
Q 2819 4750 3233 4129 
Q 3647 3509 3647 2328 
Q 3647 1150 3233 529 
Q 2819 -91 2034 -91 
Q 1250 -91 836 529 
Q 422 1150 422 2328 
Q 422 3509 836 4129 
Q 1250 4750 2034 4750 
z
" transform="scale(0.015625)"/>
       </defs>
       <use xlink:href="#DejaVuSans-30"/>
      </g>
     </g>
    </g>
    <g id="xtick_2">
     <g id="line2d_3">
      <g>
       <use xlink:href="#m7396e06efe" x="166.938719" y="192.24" style="stroke: #000000; stroke-width: 0.8"/>
      </g>
     </g>
     <g id="text_2">
      <!-- 2 -->
      <g transform="translate(163.757469 206.838437) scale(0.1 -0.1)">
       <defs>
        <path id="DejaVuSans-32" d="M 1228 531 
L 3431 531 
L 3431 0 
L 469 0 
L 469 531 
Q 828 903 1448 1529 
Q 2069 2156 2228 2338 
Q 2531 2678 2651 2914 
Q 2772 3150 2772 3378 
Q 2772 3750 2511 3984 
Q 2250 4219 1831 4219 
Q 1534 4219 1204 4116 
Q 875 4013 500 3803 
L 500 4441 
Q 881 4594 1212 4672 
Q 1544 4750 1819 4750 
Q 2544 4750 2975 4387 
Q 3406 4025 3406 3419 
Q 3406 3131 3298 2873 
Q 3191 2616 2906 2266 
Q 2828 2175 2409 1742 
Q 1991 1309 1228 531 
z
" transform="scale(0.015625)"/>
       </defs>
       <use xlink:href="#DejaVuSans-32"/>
      </g>
     </g>
    </g>
    <g id="xtick_3">
     <g id="line2d_4">
      <g>
       <use xlink:href="#m7396e06efe" x="229.111421" y="192.24" style="stroke: #000000; stroke-width: 0.8"/>
      </g>
     </g>
     <g id="text_3">
      <!-- 4 -->
      <g transform="translate(225.930171 206.838437) scale(0.1 -0.1)">
       <defs>
        <path id="DejaVuSans-34" d="M 2419 4116 
L 825 1625 
L 2419 1625 
L 2419 4116 
z
M 2253 4666 
L 3047 4666 
L 3047 1625 
L 3713 1625 
L 3713 1100 
L 3047 1100 
L 3047 0 
L 2419 0 
L 2419 1100 
L 313 1100 
L 313 1709 
L 2253 4666 
z
" transform="scale(0.015625)"/>
       </defs>
       <use xlink:href="#DejaVuSans-34"/>
      </g>
     </g>
    </g>
    <g id="xtick_4">
     <g id="line2d_5">
      <g>
       <use xlink:href="#m7396e06efe" x="291.284123" y="192.24" style="stroke: #000000; stroke-width: 0.8"/>
      </g>
     </g>
     <g id="text_4">
      <!-- 6 -->
      <g transform="translate(288.102873 206.838437) scale(0.1 -0.1)">
       <defs>
        <path id="DejaVuSans-36" d="M 2113 2584 
Q 1688 2584 1439 2293 
Q 1191 2003 1191 1497 
Q 1191 994 1439 701 
Q 1688 409 2113 409 
Q 2538 409 2786 701 
Q 3034 994 3034 1497 
Q 3034 2003 2786 2293 
Q 2538 2584 2113 2584 
z
M 3366 4563 
L 3366 3988 
Q 3128 4100 2886 4159 
Q 2644 4219 2406 4219 
Q 1781 4219 1451 3797 
Q 1122 3375 1075 2522 
Q 1259 2794 1537 2939 
Q 1816 3084 2150 3084 
Q 2853 3084 3261 2657 
Q 3669 2231 3669 1497 
Q 3669 778 3244 343 
Q 2819 -91 2113 -91 
Q 1303 -91 875 529 
Q 447 1150 447 2328 
Q 447 3434 972 4092 
Q 1497 4750 2381 4750 
Q 2619 4750 2861 4703 
Q 3103 4656 3366 4563 
z
" transform="scale(0.015625)"/>
       </defs>
       <use xlink:href="#DejaVuSans-36"/>
      </g>
     </g>
    </g>
    <g id="xtick_5">
     <g id="line2d_6">
      <g>
       <use xlink:href="#m7396e06efe" x="353.456825" y="192.24" style="stroke: #000000; stroke-width: 0.8"/>
      </g>
     </g>
     <g id="text_5">
      <!-- 8 -->
      <g transform="translate(350.275575 206.838437) scale(0.1 -0.1)">
       <defs>
        <path id="DejaVuSans-38" d="M 2034 2216 
Q 1584 2216 1326 1975 
Q 1069 1734 1069 1313 
Q 1069 891 1326 650 
Q 1584 409 2034 409 
Q 2484 409 2743 651 
Q 3003 894 3003 1313 
Q 3003 1734 2745 1975 
Q 2488 2216 2034 2216 
z
M 1403 2484 
Q 997 2584 770 2862 
Q 544 3141 544 3541 
Q 544 4100 942 4425 
Q 1341 4750 2034 4750 
Q 2731 4750 3128 4425 
Q 3525 4100 3525 3541 
Q 3525 3141 3298 2862 
Q 3072 2584 2669 2484 
Q 3125 2378 3379 2068 
Q 3634 1759 3634 1313 
Q 3634 634 3220 271 
Q 2806 -91 2034 -91 
Q 1263 -91 848 271 
Q 434 634 434 1313 
Q 434 1759 690 2068 
Q 947 2378 1403 2484 
z
M 1172 3481 
Q 1172 3119 1398 2916 
Q 1625 2713 2034 2713 
Q 2441 2713 2670 2916 
Q 2900 3119 2900 3481 
Q 2900 3844 2670 4047 
Q 2441 4250 2034 4250 
Q 1625 4250 1398 4047 
Q 1172 3844 1172 3481 
z
" transform="scale(0.015625)"/>
       </defs>
       <use xlink:href="#DejaVuSans-38"/>
      </g>
     </g>
    </g>
    <g id="xtick_6">
     <g id="line2d_7">
      <g>
       <use xlink:href="#m7396e06efe" x="415.629526" y="192.24" style="stroke: #000000; stroke-width: 0.8"/>
      </g>
     </g>
     <g id="text_6">
      <!-- 10 -->
      <g transform="translate(409.267026 206.838437) scale(0.1 -0.1)">
       <defs>
        <path id="DejaVuSans-31" d="M 794 531 
L 1825 531 
L 1825 4091 
L 703 3866 
L 703 4441 
L 1819 4666 
L 2450 4666 
L 2450 531 
L 3481 531 
L 3481 0 
L 794 0 
L 794 531 
z
" transform="scale(0.015625)"/>
       </defs>
       <use xlink:href="#DejaVuSans-31"/>
       <use xlink:href="#DejaVuSans-30" x="63.623047"/>
      </g>
     </g>
    </g>
    <g id="xtick_7">
     <g id="line2d_8">
      <g>
       <use xlink:href="#m7396e06efe" x="477.802228" y="192.24" style="stroke: #000000; stroke-width: 0.8"/>
      </g>
     </g>
     <g id="text_7">
      <!-- 12 -->
      <g transform="translate(471.439728 206.838437) scale(0.1 -0.1)">
       <use xlink:href="#DejaVuSans-31"/>
       <use xlink:href="#DejaVuSans-32" x="63.623047"/>
      </g>
     </g>
    </g>
    <g id="xtick_8">
     <g id="line2d_9">
      <g>
       <use xlink:href="#m7396e06efe" x="539.97493" y="192.24" style="stroke: #000000; stroke-width: 0.8"/>
      </g>
     </g>
     <g id="text_8">
      <!-- 14 -->
      <g transform="translate(533.61243 206.838437) scale(0.1 -0.1)">
       <use xlink:href="#DejaVuSans-31"/>
       <use xlink:href="#DejaVuSans-34" x="63.623047"/>
      </g>
     </g>
    </g>
    <g id="xtick_9">
     <g id="line2d_10">
      <g>
       <use xlink:href="#m7396e06efe" x="602.147632" y="192.24" style="stroke: #000000; stroke-width: 0.8"/>
      </g>
     </g>
     <g id="text_9">
      <!-- 16 -->
      <g transform="translate(595.785132 206.838437) scale(0.1 -0.1)">
       <use xlink:href="#DejaVuSans-31"/>
       <use xlink:href="#DejaVuSans-36" x="63.623047"/>
      </g>
     </g>
    </g>
   </g>
   <g id="matplotlib.axis_2">
    <g id="ytick_1">
     <g id="line2d_11">
      <defs>
       <path id="mdba90cbdd0" d="M 0 0 
L -3.5 0 
" style="stroke: #000000; stroke-width: 0.8"/>
      </defs>
      <g>
       <use xlink:href="#mdba90cbdd0" x="90" y="177.777792" style="stroke: #000000; stroke-width: 0.8"/>
      </g>
     </g>
     <g id="text_10">
      <!-- −0.0150 -->
      <g transform="translate(39.629687 181.577011) scale(0.1 -0.1)">
       <defs>
        <path id="DejaVuSans-2212" d="M 678 2272 
L 4684 2272 
L 4684 1741 
L 678 1741 
L 678 2272 
z
" transform="scale(0.015625)"/>
        <path id="DejaVuSans-2e" d="M 684 794 
L 1344 794 
L 1344 0 
L 684 0 
L 684 794 
z
" transform="scale(0.015625)"/>
        <path id="DejaVuSans-35" d="M 691 4666 
L 3169 4666 
L 3169 4134 
L 1269 4134 
L 1269 2991 
Q 1406 3038 1543 3061 
Q 1681 3084 1819 3084 
Q 2600 3084 3056 2656 
Q 3513 2228 3513 1497 
Q 3513 744 3044 326 
Q 2575 -91 1722 -91 
Q 1428 -91 1123 -41 
Q 819 9 494 109 
L 494 744 
Q 775 591 1075 516 
Q 1375 441 1709 441 
Q 2250 441 2565 725 
Q 2881 1009 2881 1497 
Q 2881 1984 2565 2268 
Q 2250 2553 1709 2553 
Q 1456 2553 1204 2497 
Q 953 2441 691 2322 
L 691 4666 
z
" transform="scale(0.015625)"/>
       </defs>
       <use xlink:href="#DejaVuSans-2212"/>
       <use xlink:href="#DejaVuSans-30" x="83.789062"/>
       <use xlink:href="#DejaVuSans-2e" x="147.412109"/>
       <use xlink:href="#DejaVuSans-30" x="179.199219"/>
       <use xlink:href="#DejaVuSans-31" x="242.822266"/>
       <use xlink:href="#DejaVuSans-35" x="306.445312"/>
       <use xlink:href="#DejaVuSans-30" x="370.068359"/>
      </g>
     </g>
    </g>
    <g id="ytick_2">
     <g id="line2d_12">
      <g>
       <use xlink:href="#mdba90cbdd0" x="90" y="155.381036" style="stroke: #000000; stroke-width: 0.8"/>
      </g>
     </g>
     <g id="text_11">
      <!-- −0.0125 -->
      <g transform="translate(39.629687 159.180255) scale(0.1 -0.1)">
       <use xlink:href="#DejaVuSans-2212"/>
       <use xlink:href="#DejaVuSans-30" x="83.789062"/>
       <use xlink:href="#DejaVuSans-2e" x="147.412109"/>
       <use xlink:href="#DejaVuSans-30" x="179.199219"/>
       <use xlink:href="#DejaVuSans-31" x="242.822266"/>
       <use xlink:href="#DejaVuSans-32" x="306.445312"/>
       <use xlink:href="#DejaVuSans-35" x="370.068359"/>
      </g>
     </g>
    </g>
    <g id="ytick_3">
     <g id="line2d_13">
      <g>
       <use xlink:href="#mdba90cbdd0" x="90" y="132.98428" style="stroke: #000000; stroke-width: 0.8"/>
      </g>
     </g>
     <g id="text_12">
      <!-- −0.0100 -->
      <g transform="translate(39.629687 136.783499) scale(0.1 -0.1)">
       <use xlink:href="#DejaVuSans-2212"/>
       <use xlink:href="#DejaVuSans-30" x="83.789062"/>
       <use xlink:href="#DejaVuSans-2e" x="147.412109"/>
       <use xlink:href="#DejaVuSans-30" x="179.199219"/>
       <use xlink:href="#DejaVuSans-31" x="242.822266"/>
       <use xlink:href="#DejaVuSans-30" x="306.445312"/>
       <use xlink:href="#DejaVuSans-30" x="370.068359"/>
      </g>
     </g>
    </g>
    <g id="ytick_4">
     <g id="line2d_14">
      <g>
       <use xlink:href="#mdba90cbdd0" x="90" y="110.587524" style="stroke: #000000; stroke-width: 0.8"/>
      </g>
     </g>
     <g id="text_13">
      <!-- −0.0075 -->
      <g transform="translate(39.629687 114.386743) scale(0.1 -0.1)">
       <defs>
        <path id="DejaVuSans-37" d="M 525 4666 
L 3525 4666 
L 3525 4397 
L 1831 0 
L 1172 0 
L 2766 4134 
L 525 4134 
L 525 4666 
z
" transform="scale(0.015625)"/>
       </defs>
       <use xlink:href="#DejaVuSans-2212"/>
       <use xlink:href="#DejaVuSans-30" x="83.789062"/>
       <use xlink:href="#DejaVuSans-2e" x="147.412109"/>
       <use xlink:href="#DejaVuSans-30" x="179.199219"/>
       <use xlink:href="#DejaVuSans-30" x="242.822266"/>
       <use xlink:href="#DejaVuSans-37" x="306.445312"/>
       <use xlink:href="#DejaVuSans-35" x="370.068359"/>
      </g>
     </g>
    </g>
    <g id="ytick_5">
     <g id="line2d_15">
      <g>
       <use xlink:href="#mdba90cbdd0" x="90" y="88.190768" style="stroke: #000000; stroke-width: 0.8"/>
      </g>
     </g>
     <g id="text_14">
      <!-- −0.0050 -->
      <g transform="translate(39.629687 91.989987) scale(0.1 -0.1)">
       <use xlink:href="#DejaVuSans-2212"/>
       <use xlink:href="#DejaVuSans-30" x="83.789062"/>
       <use xlink:href="#DejaVuSans-2e" x="147.412109"/>
       <use xlink:href="#DejaVuSans-30" x="179.199219"/>
       <use xlink:href="#DejaVuSans-30" x="242.822266"/>
       <use xlink:href="#DejaVuSans-35" x="306.445312"/>
       <use xlink:href="#DejaVuSans-30" x="370.068359"/>
      </g>
     </g>
    </g>
    <g id="ytick_6">
     <g id="line2d_16">
      <g>
       <use xlink:href="#mdba90cbdd0" x="90" y="65.794012" style="stroke: #000000; stroke-width: 0.8"/>
      </g>
     </g>
     <g id="text_15">
      <!-- −0.0025 -->
      <g transform="translate(39.629687 69.593231) scale(0.1 -0.1)">
       <use xlink:href="#DejaVuSans-2212"/>
       <use xlink:href="#DejaVuSans-30" x="83.789062"/>
       <use xlink:href="#DejaVuSans-2e" x="147.412109"/>
       <use xlink:href="#DejaVuSans-30" x="179.199219"/>
       <use xlink:href="#DejaVuSans-30" x="242.822266"/>
       <use xlink:href="#DejaVuSans-32" x="306.445312"/>
       <use xlink:href="#DejaVuSans-35" x="370.068359"/>
      </g>
     </g>
    </g>
    <g id="ytick_7">
     <g id="line2d_17">
      <g>
       <use xlink:href="#mdba90cbdd0" x="90" y="43.397256" style="stroke: #000000; stroke-width: 0.8"/>
      </g>
     </g>
     <g id="text_16">
      <!-- 0.0000 -->
      <g transform="translate(48.009375 47.196475) scale(0.1 -0.1)">
       <use xlink:href="#DejaVuSans-30"/>
       <use xlink:href="#DejaVuSans-2e" x="63.623047"/>
       <use xlink:href="#DejaVuSans-30" x="95.410156"/>
       <use xlink:href="#DejaVuSans-30" x="159.033203"/>
       <use xlink:href="#DejaVuSans-30" x="222.65625"/>
       <use xlink:href="#DejaVuSans-30" x="286.279297"/>
      </g>
     </g>
    </g>
   </g>
  </g>
 </g>
 <defs>
  <clipPath id="p823f6665b6">
   <rect x="90" y="25.92" width="558" height="166.32"/>
  </clipPath>
 </defs>
</svg>
