<?xml version="1.0" encoding="utf-8" standalone="no"?>
<!DOCTYPE svg PUBLIC "-//W3C//DTD SVG 1.1//EN"
  "http://www.w3.org/Graphics/SVG/1.1/DTD/svg11.dtd">
<svg xmlns:xlink="http://www.w3.org/1999/xlink" width="720pt" height="216pt" viewBox="0 0 720 216" xmlns="http://www.w3.org/2000/svg" version="1.1">
 <metadata>
  <rdf:RDF xmlns:dc="http://purl.org/dc/elements/1.1/" xmlns:cc="http://creativecommons.org/ns#" xmlns:rdf="http://www.w3.org/1999/02/22-rdf-syntax-ns#">
   <cc:Work>
    <dc:type rdf:resource="http://purl.org/dc/dcmitype/StillImage"/>
    <dc:date>2024-11-23T04:43:11.526708</dc:date>
    <dc:format>image/svg+xml</dc:format>
    <dc:creator>
     <cc:Agent>
      <dc:title>Matplotlib v3.7.2, https://matplotlib.org/</dc:title>
     </cc:Agent>
    </dc:creator>
   </cc:Work>
  </rdf:RDF>
 </metadata>
 <defs>
  <style type="text/css">*{stroke-linejoin: round; stroke-linecap: butt}</style>
 </defs>
 <g id="figure_1">
  <g id="patch_1">
   <path d="M 0 216 
L 720 216 
L 720 0 
L 0 0 
z
" style="fill: #ffffff"/>
  </g>
  <g id="axes_1">
   <g id="patch_2">
    <path d="M 90 192.24 
L 648 192.24 
L 648 25.92 
L 90 25.92 
z
" style="fill: #ffffff"/>
   </g>
   <g id="line2d_1">
    <path d="M 90 -0.074228 
L 648 -0.074228 
" clip-path="url(#p8056c4ecd6)" style="fill: none; stroke: #000000; stroke-width: 0.5; stroke-linecap: square"/>
   </g>
   <g id="patch_3">
    <path d="M 104.150317 -0.598622 
L 96.294135 -0.598622 
L 95.053685 -0.074228 
L 90 -0.074228 
L 97.217163 -2.952845 
L 103.210583 -2.952845 
L 110.427746 -0.074228 
L 105.378237 -0.074228 
L 104.150317 -0.598622 
z
M 97.547114 -1.132888 
L 102.884808 -1.132888 
L 100.220138 -2.277919 
L 97.547114 -1.132888 
z
" clip-path="url(#p8056c4ecd6)" style="fill: #008000"/>
   </g>
   <g id="patch_4">
    <path d="M 90 -11.511977 
L 110.427746 -11.511977 
L 110.427746 -9.842708 
L 103.078508 -9.842708 
L 103.078508 -2.952845 
L 97.36349 -2.952845 
L 97.36349 -9.842708 
L 90 -9.842708 
L 90 -11.511977 
z
" clip-path="url(#p8056c4ecd6)" style="fill: #ff0000"/>
   </g>
   <g id="patch_5">
    <path d="M 125.653208 -0.490915 
L 117.797025 -0.490915 
L 116.556575 -0.074228 
L 111.50289 -0.074228 
L 118.720053 -2.361593 
L 124.713473 -2.361593 
L 131.930636 -0.074228 
L 126.881128 -0.074228 
L 125.653208 -0.490915 
z
M 119.050005 -0.915445 
L 124.387698 -0.915445 
L 121.723028 -1.825293 
L 119.050005 -0.915445 
z
" clip-path="url(#p8056c4ecd6)" style="fill: #008000"/>
   </g>
   <g id="patch_6">
    <path d="M 111.50289 -8.166484 
L 131.930636 -8.166484 
L 131.930636 -7.034369 
L 124.581398 -7.034369 
L 124.581398 -2.361593 
L 118.86638 -2.361593 
L 118.86638 -7.034369 
L 111.50289 -7.034369 
L 111.50289 -8.166484 
z
" clip-path="url(#p8056c4ecd6)" style="fill: #ff0000"/>
   </g>
   <g id="patch_7">
    <path d="M 133.00578 -2.416311 
L 153.433526 -2.416311 
L 153.433526 -1.95954 
L 146.084288 -1.95954 
L 146.084288 -0.074228 
L 140.36927 -0.074228 
L 140.36927 -1.95954 
L 133.00578 -1.95954 
L 133.00578 -2.416311 
z
" clip-path="url(#p8056c4ecd6)" style="fill: #ff0000"/>
   </g>
   <g id="patch_8">
    <path d="M 168.658988 -0.266383 
L 160.802805 -0.266383 
L 159.562355 -0.074228 
L 154.508671 -0.074228 
L 161.725834 -1.129049 
L 167.719253 -1.129049 
L 174.936416 -0.074228 
L 169.886908 -0.074228 
L 168.658988 -0.266383 
z
M 162.055785 -0.462156 
L 167.393478 -0.462156 
L 164.728808 -0.881734 
L 162.055785 -0.462156 
z
" clip-path="url(#p8056c4ecd6)" style="fill: #008000"/>
   </g>
   <g id="patch_9">
    <path d="M 154.508671 -3.211565 
L 174.936416 -3.211565 
L 174.936416 -2.805417 
L 167.587178 -2.805417 
L 167.587178 -1.129049 
L 161.87216 -1.129049 
L 161.87216 -2.805417 
L 154.508671 -2.805417 
L 154.508671 -3.211565 
z
" clip-path="url(#p8056c4ecd6)" style="fill: #ff0000"/>
   </g>
   <g id="patch_10">
    <path d="M 190.161878 -0.51584 
L 182.305695 -0.51584 
L 181.065245 -0.074228 
L 176.011561 -0.074228 
L 183.228724 -2.49842 
L 189.222143 -2.49842 
L 196.439306 -0.074228 
L 191.389798 -0.074228 
L 190.161878 -0.51584 
z
M 183.558675 -0.965765 
L 188.896369 -0.965765 
L 186.231698 -1.930039 
L 183.558675 -0.965765 
z
" clip-path="url(#p8056c4ecd6)" style="fill: #008000"/>
   </g>
   <g id="patch_11">
    <path d="M 197.514451 -0.270068 
L 217.942197 -0.270068 
L 217.942197 -0.231874 
L 210.592959 -0.231874 
L 210.592959 -0.074228 
L 204.877941 -0.074228 
L 204.877941 -0.231874 
L 197.514451 -0.231874 
L 197.514451 -0.270068 
z
" clip-path="url(#p8056c4ecd6)" style="fill: #ff0000"/>
   </g>
   <g id="patch_12">
    <path d="M 448.19656 -0.265696 
L 440.340377 -0.265696 
L 439.099928 -0.074228 
L 434.046243 -0.074228 
L 441.263406 -1.125273 
L 447.256825 -1.125273 
L 454.473988 -0.074228 
L 449.42448 -0.074228 
L 448.19656 -0.265696 
z
M 441.593357 -0.460767 
L 446.931051 -0.460767 
L 444.266381 -0.878843 
L 441.593357 -0.460767 
z
" clip-path="url(#p8056c4ecd6)" style="fill: #008000"/>
   </g>
   <g id="patch_13">
    <path d="M 469.69945 -0.080096 
L 461.843268 -0.080096 
L 460.602818 -0.074228 
L 455.549133 -0.074228 
L 462.766296 -0.106443 
L 468.759716 -0.106443 
L 475.976879 -0.074228 
L 470.92737 -0.074228 
L 469.69945 -0.080096 
z
M 463.096247 -0.086076 
L 468.433941 -0.086076 
L 465.769271 -0.09889 
L 463.096247 -0.086076 
z
" clip-path="url(#p8056c4ecd6)" style="fill: #008000"/>
   </g>
   <g id="patch_14">
    <path d="M 491.202341 -0.196776 
L 483.346158 -0.196776 
L 482.105708 -0.074228 
L 477.052023 -0.074228 
L 484.269186 -0.746948 
L 490.262606 -0.746948 
L 497.479769 -0.074228 
L 492.430261 -0.074228 
L 491.202341 -0.196776 
z
M 484.599137 -0.321632 
L 489.936831 -0.321632 
L 487.272161 -0.58922 
L 484.599137 -0.321632 
z
" clip-path="url(#p8056c4ecd6)" style="fill: #008000"/>
   </g>
   <g id="patch_15">
    <path d="M 520.057803 -1.39322 
L 540.485549 -1.39322 
L 540.485549 -1.13598 
L 533.136311 -1.13598 
L 533.136311 -0.074228 
L 527.421293 -0.074228 
L 527.421293 -1.13598 
L 520.057803 -1.13598 
L 520.057803 -1.39322 
z
" clip-path="url(#p8056c4ecd6)" style="fill: #ff0000"/>
   </g>
   <g id="patch_16">
    <path d="M 534.208121 -1.722945 
L 526.351938 -1.722945 
L 525.111488 -1.39322 
L 520.057803 -1.39322 
L 527.274967 -3.203219 
L 533.268386 -3.203219 
L 540.485549 -1.39322 
L 535.436041 -1.39322 
L 534.208121 -1.722945 
z
M 527.604918 -2.058878 
L 532.942611 -2.058878 
L 530.277941 -2.778843 
L 527.604918 -2.058878 
z
" clip-path="url(#p8056c4ecd6)" style="fill: #008000"/>
   </g>
   <g id="patch_17">
    <path d="M 555.711011 -0.350996 
L 547.854828 -0.350996 
L 546.614378 -0.074228 
L 541.560694 -0.074228 
L 548.777857 -1.59352 
L 554.771276 -1.59352 
L 561.988439 -0.074228 
L 556.938931 -0.074228 
L 555.711011 -0.350996 
z
M 549.107808 -0.632973 
L 554.445502 -0.632973 
L 551.780831 -1.237304 
L 549.107808 -0.632973 
z
" clip-path="url(#p8056c4ecd6)" style="fill: #008000"/>
   </g>
   <g id="patch_18">
    <path d="M 563.063584 -2.56207 
L 583.491329 -2.56207 
L 583.491329 -2.076872 
L 576.142092 -2.076872 
L 576.142092 -0.074228 
L 570.427074 -0.074228 
L 570.427074 -2.076872 
L 563.063584 -2.076872 
L 563.063584 -2.56207 
z
" clip-path="url(#p8056c4ecd6)" style="fill: #ff0000"/>
   </g>
   <g id="patch_19">
    <path d="M 577.213901 -3.432471 
L 569.357718 -3.432471 
L 568.117269 -2.56207 
L 563.063584 -2.56207 
L 570.280747 -7.340057 
L 576.274166 -7.340057 
L 583.491329 -2.56207 
L 578.441821 -2.56207 
L 577.213901 -3.432471 
z
M 570.610698 -4.319255 
L 575.948392 -4.319255 
L 573.283722 -6.219801 
L 570.610698 -4.319255 
z
" clip-path="url(#p8056c4ecd6)" style="fill: #008000"/>
   </g>
   <g id="patch_20">
    <path d="M 598.716791 -0.534832 
L 590.860609 -0.534832 
L 589.620159 -0.074228 
L 584.566474 -0.074228 
L 591.783637 -2.602674 
L 597.777057 -2.602674 
L 604.99422 -0.074228 
L 599.944711 -0.074228 
L 598.716791 -0.534832 
z
M 592.113588 -1.004106 
L 597.451282 -1.004106 
L 594.786612 -2.009849 
L 592.113588 -1.004106 
z
" clip-path="url(#p8056c4ecd6)" style="fill: #008000"/>
   </g>
   <g id="patch_21">
    <path d="M 584.566474 -5.603198 
L 604.99422 -5.603198 
L 604.99422 -5.018012 
L 597.644982 -5.018012 
L 597.644982 -2.602674 
L 591.929964 -2.602674 
L 591.929964 -5.018012 
L 584.566474 -5.018012 
L 584.566474 -5.603198 
z
" clip-path="url(#p8056c4ecd6)" style="fill: #ff0000"/>
   </g>
   <g id="patch_22">
    <path d="M 606.069364 -4.571827 
L 626.49711 -4.571827 
L 626.49711 -3.69467 
L 619.147872 -3.69467 
L 619.147872 -0.074228 
L 613.432854 -0.074228 
L 613.432854 -3.69467 
L 606.069364 -3.69467 
L 606.069364 -4.571827 
z
" clip-path="url(#p8056c4ecd6)" style="fill: #ff0000"/>
   </g>
   <g id="patch_23">
    <path d="M 620.219682 -5.673739 
L 612.363499 -5.673739 
L 611.123049 -4.571827 
L 606.069364 -4.571827 
L 613.286527 -10.620673 
L 619.279947 -10.620673 
L 626.49711 -4.571827 
L 621.447602 -4.571827 
L 620.219682 -5.673739 
z
M 613.616479 -6.796392 
L 618.954172 -6.796392 
L 616.289502 -9.202448 
L 613.616479 -6.796392 
z
" clip-path="url(#p8056c4ecd6)" style="fill: #008000"/>
   </g>
   <g id="patch_24">
    <path d="M 641.722572 -0.519586 
L 633.866389 -0.519586 
L 632.625939 -0.074228 
L 627.572254 -0.074228 
L 634.789417 -2.518982 
L 640.782837 -2.518982 
L 648 -0.074228 
L 642.950492 -0.074228 
L 641.722572 -0.519586 
z
M 635.119369 -0.973327 
L 640.457062 -0.973327 
L 637.792392 -1.94578 
L 635.119369 -0.973327 
z
" clip-path="url(#p8056c4ecd6)" style="fill: #008000"/>
   </g>
   <g id="patch_25">
    <path d="M 627.572254 -7.289284 
L 648 -7.289284 
L 648 -6.358942 
L 640.650762 -6.358942 
L 640.650762 -2.518982 
L 634.935744 -2.518982 
L 634.935744 -6.358942 
L 627.572254 -6.358942 
L 627.572254 -7.289284 
z
" clip-path="url(#p8056c4ecd6)" style="fill: #ff0000"/>
   </g>
   <g id="patch_26">
    <path d="M 110.427746 8.210806 
Q 108.719 6.960139 106.87129 6.327535 
Q 105.02358 5.687659 103.011172 5.687659 
Q 97.009975 5.687659 93.504987 10.428557 
Q 90 15.169455 90 23.276972 
Q 90 31.413575 93.504987 36.147201 
Q 97.009975 40.888099 103.011172 40.888099 
Q 105.02358 40.888099 106.87129 40.248223 
Q 108.719 39.615619 110.427746 38.364952 
L 110.427746 31.348133 
Q 108.70356 33.005993 107.030842 33.776752 
Q 105.358124 34.547512 103.510414 34.547512 
Q 100.195859 34.547512 98.296681 31.544458 
Q 96.402649 28.548676 96.402649 23.276972 
Q 96.402649 18.027082 98.296681 15.024029 
Q 100.195859 12.028247 103.510414 12.028247 
Q 105.358124 12.028247 107.030842 12.799006 
Q 108.70356 13.577037 110.427746 15.234897 
L 110.427746 8.210806 
z
" clip-path="url(#p8056c4ecd6)" style="fill: #0000ff"/>
   </g>
   <g id="patch_27">
    <path d="M 110.427746 0.447091 
Q 108.367574 0.186432 106.151745 0.055507 
Q 103.935916 -0.074228 101.573586 -0.074228 
Q 96.235453 -0.074228 93.117726 0.7018 
Q 90 1.477828 90 2.80493 
Q 90 4.147506 93.172664 4.917582 
Q 96.349907 5.687659 101.875745 5.687659 
Q 104.004589 5.687659 105.954884 5.582919 
Q 107.909758 5.479369 109.640302 5.27465 
L 109.640302 4.126082 
Q 107.85482 4.389122 106.087651 4.518857 
Q 104.320481 4.649782 102.544156 4.649782 
Q 99.257038 4.649782 97.476134 4.17131 
Q 95.69523 3.69403 95.69523 2.80493 
Q 95.69523 1.924163 97.412039 1.443311 
Q 99.128849 0.96365 102.287779 0.96365 
Q 103.148473 0.96365 103.885556 0.991025 
Q 104.62264 1.01959 105.208644 1.079102 
L 105.208644 2.157447 
L 101.843697 2.157447 
L 101.843697 3.11796 
L 110.427746 3.11796 
L 110.427746 0.447091 
z
" clip-path="url(#p8056c4ecd6)" style="fill: #ffa600"/>
   </g>
   <g id="patch_28">
    <path d="M 131.930636 0.912972 
Q 130.22189 0.42364 128.37418 0.176128 
Q 126.52647 -0.074228 124.514062 -0.074228 
Q 118.512865 -0.074228 115.007878 1.780684 
Q 111.50289 3.635596 111.50289 6.807722 
Q 111.50289 9.991229 115.007878 11.843295 
Q 118.512865 13.698207 124.514062 13.698207 
Q 126.52647 13.698207 128.37418 13.447851 
Q 130.22189 13.20034 131.930636 12.711007 
L 131.930636 9.965624 
Q 130.20645 10.614274 128.533732 10.915839 
Q 126.861014 11.217405 125.013304 11.217405 
Q 121.698749 11.217405 119.799571 10.042438 
Q 117.90554 8.870316 117.90554 6.807722 
Q 117.90554 4.753663 119.799571 3.578696 
Q 121.698749 2.406574 125.013304 2.406574 
Q 126.861014 2.406574 128.533732 2.70814 
Q 130.20645 3.01255 131.930636 3.6612 
L 131.930636 0.912972 
z
" clip-path="url(#p8056c4ecd6)" style="fill: #0000ff"/>
   </g>
   <g id="patch_29">
    <path d="M 131.930636 15.536165 
Q 129.870464 14.617186 127.654635 14.155598 
Q 125.438806 13.698207 123.076476 13.698207 
Q 117.738343 13.698207 114.620616 16.434162 
Q 111.50289 19.170118 111.50289 23.848937 
Q 111.50289 28.582308 114.675554 31.297282 
Q 117.852797 34.012256 123.378635 34.012256 
Q 125.507479 34.012256 127.457774 33.642986 
Q 129.412648 33.277912 131.143192 32.556157 
L 131.143192 28.506775 
Q 129.35771 29.434147 127.590541 29.891538 
Q 125.823372 30.353126 124.047046 30.353126 
Q 120.759928 30.353126 118.979024 28.666233 
Q 117.19812 26.983536 117.19812 23.848937 
Q 117.19812 20.743712 118.91493 19.048426 
Q 120.631739 17.357338 123.790669 17.357338 
Q 124.651363 17.357338 125.388447 17.453851 
Q 126.12553 17.554561 126.711535 17.764374 
L 126.711535 21.566177 
L 123.346588 21.566177 
L 123.346588 24.952551 
L 131.930636 24.952551 
L 131.930636 15.536165 
z
" clip-path="url(#p8056c4ecd6)" style="fill: #ffa600"/>
   </g>
   <g id="patch_30">
    <path d="M 147.156098 0.057242 
L 139.299915 0.057242 
L 138.059465 -0.074228 
L 133.00578 -0.074228 
L 140.222943 0.647464 
L 146.216363 0.647464 
L 153.433526 -0.074228 
L 148.384018 -0.074228 
L 147.156098 0.057242 
z
M 140.552895 0.191187 
L 145.890588 0.191187 
L 143.225918 0.478255 
L 140.552895 0.191187 
z
" clip-path="url(#p8056c4ecd6)" style="fill: #008000"/>
   </g>
   <g id="patch_31">
    <path d="M 153.433526 15.144463 
Q 151.72478 14.378515 149.87707 13.991088 
Q 148.02936 13.599208 146.016952 13.599208 
Q 140.015755 13.599208 136.510768 16.502686 
Q 133.00578 19.406163 133.00578 24.371467 
Q 133.00578 29.354583 136.510768 32.253608 
Q 140.015755 35.157086 146.016952 35.157086 
Q 148.02936 35.157086 149.87707 34.765205 
Q 151.72478 34.377778 153.433526 33.61183 
L 153.433526 29.314505 
Q 151.70934 30.329831 150.036622 30.801869 
Q 148.363904 31.273907 146.516194 31.273907 
Q 143.201639 31.273907 141.302461 29.434741 
Q 139.40843 27.600028 139.40843 24.371467 
Q 139.40843 21.156266 141.302461 19.3171 
Q 143.201639 17.482387 146.516194 17.482387 
Q 148.363904 17.482387 150.036622 17.954424 
Q 151.70934 18.430915 153.433526 19.446242 
L 153.433526 15.144463 
z
" clip-path="url(#p8056c4ecd6)" style="fill: #0000ff"/>
   </g>
   <g id="patch_32">
    <path d="M 153.433526 1.819301 
Q 151.373354 1.233383 149.157525 0.939086 
Q 146.941696 0.647464 144.579366 0.647464 
Q 139.241233 0.647464 136.123507 2.391843 
Q 133.00578 4.136221 133.00578 7.119323 
Q 133.00578 10.137205 136.178445 11.868206 
Q 139.355687 13.599208 144.881525 13.599208 
Q 147.010369 13.599208 148.960665 13.36377 
Q 150.915539 13.131008 152.646083 12.670834 
L 152.646083 10.089047 
Q 150.860601 10.680316 149.093431 10.971938 
Q 147.326262 11.266235 145.549936 11.266235 
Q 142.262818 11.266235 140.481914 10.190713 
Q 138.70101 9.117867 138.70101 7.119323 
Q 138.70101 5.139507 140.41782 4.058634 
Q 142.134629 2.980437 145.293559 2.980437 
Q 146.154253 2.980437 146.891337 3.041972 
Q 147.62842 3.106182 148.214425 3.239953 
L 148.214425 5.66389 
L 144.849478 5.66389 
L 144.849478 7.82296 
L 153.433526 7.82296 
L 153.433526 1.819301 
z
" clip-path="url(#p8056c4ecd6)" style="fill: #ffa600"/>
   </g>
   <g id="patch_33">
    <path d="M 174.936416 1.109062 
Q 173.227671 0.522532 171.379961 0.225857 
Q 169.532251 -0.074228 167.519842 -0.074228 
Q 161.518645 -0.074228 158.013658 2.14913 
Q 154.508671 4.372487 154.508671 8.174702 
Q 154.508671 11.990556 158.013658 14.210504 
Q 161.518645 16.433861 167.519842 16.433861 
Q 169.532251 16.433861 171.379961 16.133776 
Q 173.227671 15.837101 174.936416 15.250571 
L 174.936416 11.959866 
Q 173.21223 12.737359 171.539512 13.098825 
Q 169.866794 13.460291 168.019084 13.460291 
Q 164.704529 13.460291 162.805351 12.051937 
Q 160.91132 10.646994 160.91132 8.174702 
Q 160.91132 5.71264 162.805351 4.304286 
Q 164.704529 2.899342 168.019084 2.899342 
Q 169.866794 2.899342 171.539512 3.260809 
Q 173.21223 3.625685 174.936416 4.403178 
L 174.936416 1.109062 
z
" clip-path="url(#p8056c4ecd6)" style="fill: #0000ff"/>
   </g>
   <g id="patch_34">
    <path d="M 174.936416 18.505169 
Q 172.876245 17.469515 170.660416 16.949324 
Q 168.444587 16.433861 166.082257 16.433861 
Q 160.744123 16.433861 157.626397 19.517178 
Q 154.508671 22.600495 154.508671 27.873345 
Q 154.508671 33.207672 157.681335 36.267343 
Q 160.858577 39.327015 166.384415 39.327015 
Q 168.513259 39.327015 170.463555 38.910862 
Q 172.418429 38.499438 174.148973 37.686047 
L 174.148973 33.12255 
Q 172.363491 34.167662 170.596321 34.683124 
Q 168.829152 35.203315 167.052826 35.203315 
Q 163.765708 35.203315 161.984804 33.302252 
Q 160.2039 31.405918 160.2039 27.873345 
Q 160.2039 24.373875 161.92071 22.463354 
Q 163.63752 20.557561 166.796449 20.557561 
Q 167.657143 20.557561 168.394227 20.666328 
Q 169.131311 20.779825 169.717315 21.016275 
L 169.717315 25.300762 
L 166.352368 25.300762 
L 166.352368 29.117075 
L 174.936416 29.117075 
L 174.936416 18.505169 
z
" clip-path="url(#p8056c4ecd6)" style="fill: #ffa600"/>
   </g>
   <g id="patch_35">
    <path d="M 196.439306 11.943594 
Q 194.730561 10.050395 192.882851 9.092788 
Q 191.035141 8.124174 189.022733 8.124174 
Q 183.021535 8.124174 179.516548 15.300721 
Q 176.011561 22.477268 176.011561 34.750043 
Q 176.011561 47.066846 179.516548 54.232386 
Q 183.021535 61.408932 189.022733 61.408932 
Q 191.035141 61.408932 192.882851 60.440319 
Q 194.730561 59.482712 196.439306 57.589513 
L 196.439306 46.967783 
Q 194.71512 49.477373 193.042402 50.644112 
Q 191.369684 51.810852 189.521974 51.810852 
Q 186.20742 51.810852 184.308241 47.264972 
Q 182.41421 42.730099 182.41421 34.750043 
Q 182.41421 26.803008 184.308241 22.257128 
Q 186.20742 17.722255 189.521974 17.722255 
Q 191.369684 17.722255 193.042402 18.888994 
Q 194.71512 20.06674 196.439306 22.57633 
L 196.439306 11.943594 
z
" clip-path="url(#p8056c4ecd6)" style="fill: #0000ff"/>
   </g>
   <g id="patch_36">
    <path d="M 196.439306 0.258118 
Q 194.379135 0.091945 192.163306 0.008479 
Q 189.947477 -0.074228 187.585147 -0.074228 
Q 182.247013 -0.074228 179.129287 0.420498 
Q 176.011561 0.915223 176.011561 1.761265 
Q 176.011561 2.61717 179.184225 3.108102 
Q 182.361467 3.599034 187.887305 3.599034 
Q 190.016149 3.599034 191.966445 3.532261 
Q 193.921319 3.466247 195.651863 3.335737 
L 195.651863 2.603512 
Q 193.866381 2.771203 192.099212 2.85391 
Q 190.332042 2.937376 188.555716 2.937376 
Q 185.268598 2.937376 183.487694 2.632346 
Q 181.706791 2.328075 181.706791 1.761265 
Q 181.706791 1.199766 183.4236 0.893219 
Q 185.14041 0.58743 188.29934 0.58743 
Q 189.160033 0.58743 189.897117 0.604882 
Q 190.634201 0.623092 191.220205 0.661031 
L 191.220205 1.348488 
L 187.855258 1.348488 
L 187.855258 1.960824 
L 196.439306 1.960824 
L 196.439306 0.258118 
z
" clip-path="url(#p8056c4ecd6)" style="fill: #ffa600"/>
   </g>
   <g id="patch_37">
    <path d="M 176.011561 8.124174 
L 196.439306 8.124174 
L 196.439306 7.241646 
L 189.090069 7.241646 
L 189.090069 3.599034 
L 183.37505 3.599034 
L 183.37505 7.241646 
L 176.011561 7.241646 
L 176.011561 8.124174 
z
" clip-path="url(#p8056c4ecd6)" style="fill: #ff0000"/>
   </g>
   <g id="patch_38">
    <path d="M 211.664768 -0.018649 
L 203.808586 -0.018649 
L 202.568136 -0.074228 
L 197.514451 -0.074228 
L 204.731614 0.23087 
L 210.725033 0.23087 
L 217.942197 -0.074228 
L 212.892688 -0.074228 
L 211.664768 -0.018649 
z
M 205.061565 0.037977 
L 210.399259 0.037977 
L 207.734589 0.159336 
L 205.061565 0.037977 
z
" clip-path="url(#p8056c4ecd6)" style="fill: #008000"/>
   </g>
   <g id="patch_39">
    <path d="M 217.942197 0.432687 
Q 216.233451 0.332651 214.385741 0.282051 
Q 212.538031 0.23087 210.525623 0.23087 
Q 204.524426 0.23087 201.019438 0.610077 
Q 197.514451 0.989284 197.514451 1.637775 
Q 197.514451 2.288593 201.019438 2.667219 
Q 204.524426 3.046426 210.525623 3.046426 
Q 212.538031 3.046426 214.385741 2.995244 
Q 216.233451 2.944645 217.942197 2.844608 
L 217.942197 2.283358 
Q 216.21801 2.415965 214.545292 2.477615 
Q 212.872575 2.539265 211.024865 2.539265 
Q 207.71031 2.539265 205.811132 2.299062 
Q 203.9171 2.05944 203.9171 1.637775 
Q 203.9171 1.217856 205.811132 0.977652 
Q 207.71031 0.738031 211.024865 0.738031 
Q 212.872575 0.738031 214.545292 0.799681 
Q 216.21801 0.861913 217.942197 0.994519 
L 217.942197 0.432687 
z
" clip-path="url(#p8056c4ecd6)" style="fill: #0000ff"/>
   </g>
   <g id="patch_40">
    <path d="M 217.942197 15.960378 
Q 215.882025 9.503402 213.666196 6.260172 
Q 211.450367 3.046426 209.088037 3.046426 
Q 203.749903 3.046426 200.632177 22.269934 
Q 197.514451 41.493443 197.514451 74.368 
Q 197.514451 107.625849 200.687115 126.701938 
Q 203.864357 145.778027 209.390195 145.778027 
Q 211.519039 145.778027 213.469335 143.183443 
Q 215.424209 140.618343 217.154753 135.547111 
L 217.154753 107.095139 
Q 215.369271 113.611083 213.602102 116.824829 
Q 211.834932 120.068059 210.058607 120.068059 
Q 206.771488 120.068059 204.990585 108.215527 
Q 203.209681 96.39248 203.209681 74.368 
Q 203.209681 52.549908 204.92649 40.638409 
Q 206.6433 28.756394 209.80223 28.756394 
Q 210.662924 28.756394 211.400007 29.434524 
Q 212.137091 30.142138 212.723095 31.616333 
L 212.723095 58.328754 
L 209.358148 58.328754 
L 209.358148 82.122268 
L 217.942197 82.122268 
L 217.942197 15.960378 
z
" clip-path="url(#p8056c4ecd6)" style="fill: #ffa600"/>
   </g>
   <g id="patch_41">
    <path d="M 233.167658 0.040008 
L 225.311476 0.040008 
L 224.071026 -0.074228 
L 219.017341 -0.074228 
L 226.234504 0.552859 
L 232.227924 0.552859 
L 239.445087 -0.074228 
L 234.395579 -0.074228 
L 233.167658 0.040008 
z
M 226.564455 0.156394 
L 231.902149 0.156394 
L 229.237479 0.405831 
L 226.564455 0.156394 
z
" clip-path="url(#p8056c4ecd6)" style="fill: #008000"/>
   </g>
   <g id="patch_42">
    <path d="M 239.445087 15.34386 
Q 237.736341 9.464659 235.888631 6.490876 
Q 234.040921 3.482912 232.028513 3.482912 
Q 226.027316 3.482912 222.522328 25.769189 
Q 219.017341 48.055466 219.017341 86.167734 
Q 219.017341 124.416728 222.522328 146.668823 
Q 226.027316 168.9551 232.028513 168.9551 
Q 234.040921 168.9551 235.888631 165.947136 
Q 237.736341 162.973354 239.445087 157.094152 
L 239.445087 124.109095 
Q 237.720901 131.902456 236.048183 135.525685 
Q 234.375465 139.148914 232.527755 139.148914 
Q 229.2132 139.148914 227.314022 125.031993 
Q 225.41999 110.949254 225.41999 86.167734 
Q 225.41999 61.488759 227.314022 47.371838 
Q 229.2132 33.289099 232.527755 33.289099 
Q 234.375465 33.289099 236.048183 36.912328 
Q 237.720901 40.569738 239.445087 48.363099 
L 239.445087 15.34386 
z
" clip-path="url(#p8056c4ecd6)" style="fill: #0000ff"/>
   </g>
   <g id="patch_43">
    <path d="M 239.445087 0.638974 
Q 237.384915 0.595916 235.169086 0.574289 
Q 232.953257 0.552859 230.590927 0.552859 
Q 225.252794 0.552859 222.135067 0.681049 
Q 219.017341 0.809239 219.017341 1.02846 
Q 219.017341 1.250238 222.190005 1.377445 
Q 225.367248 1.504652 230.893086 1.504652 
Q 233.02193 1.504652 234.972225 1.48735 
Q 236.927099 1.470245 238.657643 1.436428 
L 238.657643 1.246699 
Q 236.872161 1.29015 235.104992 1.31158 
Q 233.337823 1.333207 231.561497 1.333207 
Q 228.274379 1.333207 226.493475 1.25417 
Q 224.712571 1.175329 224.712571 1.02846 
Q 224.712571 0.882968 226.429381 0.803538 
Q 228.14619 0.724303 231.30512 0.724303 
Q 232.165814 0.724303 232.902897 0.728825 
Q 233.639981 0.733544 234.225985 0.743375 
L 234.225985 0.921504 
L 230.861038 0.921504 
L 230.861038 1.080169 
L 239.445087 1.080169 
L 239.445087 0.638974 
z
" clip-path="url(#p8056c4ecd6)" style="fill: #ffa600"/>
   </g>
   <g id="patch_44">
    <path d="M 219.017341 3.482912 
L 239.445087 3.482912 
L 239.445087 3.097097 
L 232.095849 3.097097 
L 232.095849 1.504652 
L 226.380831 1.504652 
L 226.380831 3.097097 
L 219.017341 3.097097 
L 219.017341 3.482912 
z
" clip-path="url(#p8056c4ecd6)" style="fill: #ff0000"/>
   </g>
   <g id="patch_45">
    <path d="M 254.670549 2.511454 
L 246.814366 2.511454 
L 245.573916 2.199764 
L 240.520231 2.199764 
L 247.737394 3.91076 
L 253.730814 3.91076 
L 260.947977 2.199764 
L 255.898469 2.199764 
L 254.670549 2.511454 
z
M 248.067346 2.829011 
L 253.405039 2.829011 
L 250.740369 3.509596 
L 248.067346 2.829011 
z
" clip-path="url(#p8056c4ecd6)" style="fill: #008000"/>
   </g>
   <g id="patch_46">
    <path d="M 260.947977 0.005036 
Q 259.239231 -0.034253 257.391521 -0.054126 
Q 255.543811 -0.074228 253.531403 -0.074228 
Q 247.530206 -0.074228 244.025219 0.074707 
Q 240.520231 0.223641 240.520231 0.478337 
Q 240.520231 0.733947 244.025219 0.882653 
Q 247.530206 1.031587 253.531403 1.031587 
Q 255.543811 1.031587 257.391521 1.011486 
Q 259.239231 0.991613 260.947977 0.952323 
L 260.947977 0.731891 
Q 259.223791 0.783972 257.551073 0.808186 
Q 255.878355 0.832399 254.030645 0.832399 
Q 250.71609 0.832399 248.816912 0.738059 
Q 246.922881 0.643947 246.922881 0.478337 
Q 246.922881 0.313413 248.816912 0.219072 
Q 250.71609 0.12496 254.030645 0.12496 
Q 255.878355 0.12496 257.551073 0.149174 
Q 259.223791 0.173615 260.947977 0.225697 
L 260.947977 0.005036 
z
" clip-path="url(#p8056c4ecd6)" style="fill: #0000ff"/>
   </g>
   <g id="patch_47">
    <path d="M 260.947977 19.814589 
Q 258.887805 11.862675 256.671976 7.868562 
Q 254.456147 3.91076 252.093817 3.91076 
Q 246.755684 3.91076 243.637958 27.584954 
Q 240.520231 51.259148 240.520231 91.744924 
Q 240.520231 132.702732 243.692895 156.195375 
Q 246.870138 179.688018 252.395976 179.688018 
Q 254.52482 179.688018 256.475115 176.492728 
Q 258.429989 173.333749 260.160534 167.088409 
L 260.160534 132.04915 
Q 258.375051 140.073685 256.607882 144.031487 
Q 254.840713 148.0256 253.064387 148.0256 
Q 249.777269 148.0256 247.996365 133.428934 
Q 246.215461 118.868579 246.215461 91.744924 
Q 246.215461 64.87544 247.932271 50.206154 
Q 249.64908 35.573179 252.80801 35.573179 
Q 253.668704 35.573179 254.405788 36.408311 
Q 255.142871 37.279754 255.728876 39.09526 
L 255.728876 71.992222 
L 252.363929 71.992222 
L 252.363929 101.294484 
L 260.947977 101.294484 
L 260.947977 19.814589 
z
" clip-path="url(#p8056c4ecd6)" style="fill: #ffa600"/>
   </g>
   <g id="patch_48">
    <path d="M 240.520231 2.199764 
L 260.947977 2.199764 
L 260.947977 1.971937 
L 253.598739 1.971937 
L 253.598739 1.031587 
L 247.883721 1.031587 
L 247.883721 1.971937 
L 240.520231 1.971937 
L 240.520231 2.199764 
z
" clip-path="url(#p8056c4ecd6)" style="fill: #ff0000"/>
   </g>
   <g id="patch_49">
    <path d="M 276.173439 0.063304 
L 268.317256 0.063304 
L 267.076806 -0.074228 
L 262.023121 -0.074228 
L 269.240284 0.680744 
L 275.233704 0.680744 
L 282.450867 -0.074228 
L 277.401359 -0.074228 
L 276.173439 0.063304 
z
M 269.570236 0.203426 
L 274.907929 0.203426 
L 272.243259 0.503732 
L 269.570236 0.203426 
z
" clip-path="url(#p8056c4ecd6)" style="fill: #008000"/>
   </g>
   <g id="patch_50">
    <path d="M 282.450867 16.606289 
Q 280.742121 9.884215 278.894411 6.484097 
Q 277.046702 3.044896 275.034293 3.044896 
Q 269.033096 3.044896 265.528109 28.526245 
Q 262.023121 54.007593 262.023121 97.583825 
Q 262.023121 141.316385 265.528109 166.758652 
Q 269.033096 192.24 275.034293 192.24 
Q 277.046702 192.24 278.894411 188.8008 
Q 280.742121 185.400681 282.450867 178.678608 
L 282.450867 140.964649 
Q 280.726681 149.875304 279.053963 154.017977 
Q 277.381245 158.160651 275.533535 158.160651 
Q 272.21898 158.160651 270.319802 142.019858 
Q 268.425771 125.918147 268.425771 97.583825 
Q 268.425771 69.366749 270.319802 53.225957 
Q 272.21898 37.124246 275.533535 37.124246 
Q 277.381245 37.124246 279.053963 41.266919 
Q 280.726681 45.448674 282.450867 54.359329 
L 282.450867 16.606289 
z
" clip-path="url(#p8056c4ecd6)" style="fill: #0000ff"/>
   </g>
   <g id="patch_51">
    <path d="M 282.450867 1.758786 
Q 280.390695 1.694817 278.174867 1.662686 
Q 275.959038 1.630847 273.596707 1.630847 
Q 268.258574 1.630847 265.140848 1.821295 
Q 262.023121 2.011744 262.023121 2.337433 
Q 262.023121 2.666921 265.195786 2.855908 
Q 268.373028 3.044896 273.898866 3.044896 
Q 276.02771 3.044896 277.978006 3.019191 
Q 279.93288 2.993779 281.663424 2.943538 
L 281.663424 2.661663 
Q 279.877942 2.726217 278.110772 2.758055 
Q 276.343603 2.790186 274.567277 2.790186 
Q 271.280159 2.790186 269.499255 2.672763 
Q 267.718351 2.555631 267.718351 2.337433 
Q 267.718351 2.121281 269.435161 2.003273 
Q 271.151971 1.885557 274.3109 1.885557 
Q 275.171594 1.885557 275.908678 1.892275 
Q 276.645761 1.899286 277.231766 1.913891 
L 277.231766 2.178532 
L 273.866819 2.178532 
L 273.866819 2.414255 
L 282.450867 2.414255 
L 282.450867 1.758786 
z
" clip-path="url(#p8056c4ecd6)" style="fill: #ffa600"/>
   </g>
   <g id="patch_52">
    <path d="M 262.023121 1.630847 
L 282.450867 1.630847 
L 282.450867 1.44555 
L 275.101629 1.44555 
L 275.101629 0.680744 
L 269.386611 0.680744 
L 269.386611 1.44555 
L 262.023121 1.44555 
L 262.023121 1.630847 
z
" clip-path="url(#p8056c4ecd6)" style="fill: #ff0000"/>
   </g>
   <g id="patch_53">
    <path d="M 297.676329 5.914804 
L 289.820146 5.914804 
L 288.579696 4.590653 
L 283.526012 4.590653 
L 290.743175 11.859464 
L 296.736594 11.859464 
L 303.953757 4.590653 
L 298.904249 4.590653 
L 297.676329 5.914804 
z
M 291.073126 7.26388 
L 296.410819 7.26388 
L 293.746149 10.155203 
L 291.073126 7.26388 
z
" clip-path="url(#p8056c4ecd6)" style="fill: #008000"/>
   </g>
   <g id="patch_54">
    <path d="M 303.953757 0.566406 
Q 302.245012 0.412385 300.397302 0.334479 
Q 298.549592 0.255677 296.537183 0.255677 
Q 290.535986 0.255677 287.030999 0.839525 
Q 283.526012 1.423372 283.526012 2.421822 
Q 283.526012 3.423854 287.030999 4.006806 
Q 290.535986 4.590653 296.537183 4.590653 
Q 298.549592 4.590653 300.397302 4.511851 
Q 302.245012 4.433945 303.953757 4.279924 
L 303.953757 3.415795 
Q 302.229571 3.619962 300.556853 3.714882 
Q 298.884135 3.809802 297.036425 3.809802 
Q 293.721871 3.809802 291.822692 3.439972 
Q 289.928661 3.071038 289.928661 2.421822 
Q 289.928661 1.775292 291.822692 1.405462 
Q 293.721871 1.036528 297.036425 1.036528 
Q 298.884135 1.036528 300.556853 1.131448 
Q 302.229571 1.227263 303.953757 1.431431 
L 303.953757 0.566406 
z
" clip-path="url(#p8056c4ecd6)" style="fill: #0000ff"/>
   </g>
   <g id="patch_55">
    <path d="M 303.953757 22.340543 
Q 301.893586 17.100004 299.677757 14.467769 
Q 297.461928 11.859464 295.099598 11.859464 
Q 289.761464 11.859464 286.643738 27.461436 
Q 283.526012 43.063407 283.526012 69.744693 
Q 283.526012 96.737061 286.698676 112.219386 
Q 289.875918 127.70171 295.401756 127.70171 
Q 297.5306 127.70171 299.480896 125.595923 
Q 301.43577 123.514064 303.166314 119.398207 
L 303.166314 96.306332 
Q 301.380832 101.59473 299.613662 104.203035 
Q 297.846493 106.83527 296.070167 106.83527 
Q 292.783049 106.83527 291.002145 97.215649 
Q 289.221241 87.619958 289.221241 69.744693 
Q 289.221241 52.036934 290.938051 42.369454 
Q 292.654861 32.725905 295.81379 32.725905 
Q 296.674484 32.725905 297.411568 33.276281 
Q 298.148652 33.850587 298.734656 35.047057 
L 298.734656 56.727097 
L 295.369709 56.727097 
L 295.369709 76.038126 
L 303.953757 76.038126 
L 303.953757 22.340543 
z
" clip-path="url(#p8056c4ecd6)" style="fill: #ffa600"/>
   </g>
   <g id="patch_56">
    <path d="M 283.526012 0.255677 
L 303.953757 0.255677 
L 303.953757 0.191337 
L 296.604519 0.191337 
L 296.604519 -0.074228 
L 290.889501 -0.074228 
L 290.889501 0.191337 
L 283.526012 0.191337 
L 283.526012 0.255677 
z
" clip-path="url(#p8056c4ecd6)" style="fill: #ff0000"/>
   </g>
   <g id="patch_57">
    <path d="M 319.179219 -0.028865 
L 311.323036 -0.028865 
L 310.082587 -0.074228 
L 305.028902 -0.074228 
L 312.246065 0.174786 
L 318.239484 0.174786 
L 325.456647 -0.074228 
L 320.407139 -0.074228 
L 319.179219 -0.028865 
z
M 312.576016 0.017351 
L 317.91371 0.017351 
L 315.249039 0.116401 
L 312.576016 0.017351 
z
" clip-path="url(#p8056c4ecd6)" style="fill: #008000"/>
   </g>
   <g id="patch_58">
    <path d="M 325.456647 17.203679 
Q 323.747902 13.453273 321.900192 11.556266 
Q 320.052482 9.637453 318.040074 9.637453 
Q 312.038876 9.637453 308.533889 23.854109 
Q 305.028902 38.070765 305.028902 62.382991 
Q 305.028902 86.782435 308.533889 100.977286 
Q 312.038876 115.193942 318.040074 115.193942 
Q 320.052482 115.193942 321.900192 113.27513 
Q 323.747902 111.378122 325.456647 107.627716 
L 325.456647 86.586193 
Q 323.732461 91.557661 322.059743 93.868958 
Q 320.387025 96.180255 318.539316 96.180255 
Q 315.224761 96.180255 313.325583 87.174919 
Q 311.431551 78.191388 311.431551 62.382991 
Q 311.431551 46.640007 313.325583 37.634671 
Q 315.224761 28.65114 318.539316 28.65114 
Q 320.387025 28.65114 322.059743 30.962437 
Q 323.732461 33.295538 325.456647 38.267007 
L 325.456647 17.203679 
z
" clip-path="url(#p8056c4ecd6)" style="fill: #0000ff"/>
   </g>
   <g id="patch_59">
    <path d="M 325.456647 4.569654 
Q 323.396476 4.317588 321.180647 4.190979 
Q 318.964818 4.065521 316.602488 4.065521 
Q 311.264354 4.065521 308.146628 4.815965 
Q 305.028902 5.566409 305.028902 6.849761 
Q 305.028902 8.148075 308.201566 8.892764 
Q 311.378808 9.637453 316.904646 9.637453 
Q 319.03349 9.637453 320.983786 9.536166 
Q 322.93866 9.43603 324.669204 9.23806 
L 324.669204 8.127357 
Q 322.883722 8.381725 321.116553 8.507183 
Q 319.349383 8.633792 317.573058 8.633792 
Q 314.285939 8.633792 312.505035 8.171095 
Q 310.724132 7.709549 310.724132 6.849761 
Q 310.724132 5.99803 312.440941 5.533031 
Q 314.157751 5.069183 317.316681 5.069183 
Q 318.177375 5.069183 318.914458 5.095655 
Q 319.651542 5.123279 320.237546 5.180828 
L 320.237546 6.223623 
L 316.872599 6.223623 
L 316.872599 7.152471 
L 325.456647 7.152471 
L 325.456647 4.569654 
z
" clip-path="url(#p8056c4ecd6)" style="fill: #ffa600"/>
   </g>
   <g id="patch_60">
    <path d="M 305.028902 4.065521 
L 325.456647 4.065521 
L 325.456647 3.306719 
L 318.10741 3.306719 
L 318.10741 0.174786 
L 312.392391 0.174786 
L 312.392391 3.306719 
L 305.028902 3.306719 
L 305.028902 4.065521 
z
" clip-path="url(#p8056c4ecd6)" style="fill: #ff0000"/>
   </g>
   <g id="patch_61">
    <path d="M 340.682109 3.289288 
L 332.825927 3.289288 
L 331.585477 2.45612 
L 326.531792 2.45612 
L 333.748955 7.02972 
L 339.742375 7.02972 
L 346.959538 2.45612 
L 341.910029 2.45612 
L 340.682109 3.289288 
z
M 334.078906 4.138139 
L 339.4166 4.138139 
L 336.75193 5.957385 
L 334.078906 4.138139 
z
" clip-path="url(#p8056c4ecd6)" style="fill: #008000"/>
   </g>
   <g id="patch_62">
    <path d="M 346.959538 7.57285 
Q 345.250792 7.303633 343.403082 7.167459 
Q 341.555372 7.02972 339.542964 7.02972 
Q 333.541767 7.02972 330.036779 8.05024 
Q 326.531792 9.07076 326.531792 10.815975 
Q 326.531792 12.56745 330.036779 13.586405 
Q 333.541767 14.606925 339.542964 14.606925 
Q 341.555372 14.606925 343.403082 14.469186 
Q 345.250792 14.333013 346.959538 14.063796 
L 346.959538 12.553363 
Q 345.235351 12.910232 343.562634 13.076145 
Q 341.889916 13.242058 340.042206 13.242058 
Q 336.727651 13.242058 334.828473 12.595624 
Q 332.934441 11.950756 332.934441 10.815975 
Q 332.934441 9.68589 334.828473 9.039456 
Q 336.727651 8.394588 340.042206 8.394588 
Q 341.889916 8.394588 343.562634 8.5605 
Q 345.235351 8.727978 346.959538 9.084847 
L 346.959538 7.57285 
z
" clip-path="url(#p8056c4ecd6)" style="fill: #0000ff"/>
   </g>
   <g id="patch_63">
    <path d="M 346.959538 20.957754 
Q 344.899366 17.78234 342.683537 16.187383 
Q 340.467708 14.606925 338.105378 14.606925 
Q 332.767245 14.606925 329.649518 24.060671 
Q 326.531792 33.514416 326.531792 49.681481 
Q 326.531792 66.03704 329.704456 75.418288 
Q 332.881699 84.799535 338.407536 84.799535 
Q 340.53638 84.799535 342.486676 83.523569 
Q 344.44155 82.262103 346.172094 79.768171 
L 346.172094 65.776047 
Q 344.386612 68.980461 342.619443 70.560919 
Q 340.852273 72.155876 339.075948 72.155876 
Q 335.788829 72.155876 334.007926 66.327033 
Q 332.227022 60.512689 332.227022 49.681481 
Q 332.227022 38.95177 333.943831 33.093927 
Q 335.660641 27.250585 338.819571 27.250585 
Q 339.680265 27.250585 340.417348 27.584076 
Q 341.154432 27.932066 341.740436 28.657047 
L 341.740436 41.793693 
L 338.375489 41.793693 
L 338.375489 53.494878 
L 346.959538 53.494878 
L 346.959538 20.957754 
z
" clip-path="url(#p8056c4ecd6)" style="fill: #ffa600"/>
   </g>
   <g id="patch_64">
    <path d="M 326.531792 2.45612 
L 346.959538 2.45612 
L 346.959538 1.962632 
L 339.6103 1.962632 
L 339.6103 -0.074228 
L 333.895282 -0.074228 
L 333.895282 1.962632 
L 326.531792 1.962632 
L 326.531792 2.45612 
z
" clip-path="url(#p8056c4ecd6)" style="fill: #ff0000"/>
   </g>
   <g id="patch_65">
    <path d="M 362.184999 -0.054752 
L 354.328817 -0.054752 
L 353.088367 -0.074228 
L 348.034682 -0.074228 
L 355.251845 0.032683 
L 361.245265 0.032683 
L 368.462428 -0.074228 
L 363.41292 -0.074228 
L 362.184999 -0.054752 
z
M 355.581796 -0.03491 
L 360.91949 -0.03491 
L 358.25482 0.007616 
L 355.581796 -0.03491 
z
" clip-path="url(#p8056c4ecd6)" style="fill: #008000"/>
   </g>
   <g id="patch_66">
    <path d="M 368.462428 13.993246 
Q 366.753682 10.353436 364.905972 8.512368 
Q 363.058262 6.65014 361.045854 6.65014 
Q 355.044657 6.65014 351.539669 20.447562 
Q 348.034682 34.244984 348.034682 57.840269 
Q 348.034682 81.520201 351.539669 95.296462 
Q 355.044657 109.093884 361.045854 109.093884 
Q 363.058262 109.093884 364.905972 107.231655 
Q 366.753682 105.390588 368.462428 101.750778 
L 368.462428 81.329746 
Q 366.738242 86.154612 365.065524 88.397751 
Q 363.392806 90.64089 361.545096 90.64089 
Q 358.230541 90.64089 356.331363 81.901112 
Q 354.437332 73.182495 354.437332 57.840269 
Q 354.437332 42.561529 356.331363 33.82175 
Q 358.230541 25.103134 361.545096 25.103134 
Q 363.392806 25.103134 365.065524 27.346273 
Q 366.738242 29.610574 368.462428 34.43544 
L 368.462428 13.993246 
z
" clip-path="url(#p8056c4ecd6)" style="fill: #0000ff"/>
   </g>
   <g id="patch_67">
    <path d="M 368.462428 2.490904 
Q 366.402256 2.284029 364.186427 2.180119 
Q 361.970598 2.077153 359.608268 2.077153 
Q 354.270135 2.077153 351.152408 2.693057 
Q 348.034682 3.30896 348.034682 4.36223 
Q 348.034682 5.42778 351.207346 6.03896 
Q 354.384589 6.65014 359.910427 6.65014 
Q 362.039271 6.65014 363.989566 6.567012 
Q 365.94444 6.484828 367.674984 6.322351 
L 367.674984 5.410776 
Q 365.889502 5.619541 364.122333 5.722506 
Q 362.355164 5.826416 360.578838 5.826416 
Q 357.29172 5.826416 355.510816 5.446672 
Q 353.729912 5.067873 353.729912 4.36223 
Q 353.729912 3.663198 355.446722 3.281565 
Q 357.163531 2.900877 360.322461 2.900877 
Q 361.183155 2.900877 361.920238 2.922603 
Q 362.657322 2.945275 363.243326 2.992506 
L 363.243326 3.848347 
L 359.87838 3.848347 
L 359.87838 4.610669 
L 368.462428 4.610669 
L 368.462428 2.490904 
z
" clip-path="url(#p8056c4ecd6)" style="fill: #ffa600"/>
   </g>
   <g id="patch_68">
    <path d="M 348.034682 2.077153 
L 368.462428 2.077153 
L 368.462428 1.678425 
L 361.11319 1.678425 
L 361.11319 0.032683 
L 355.398172 0.032683 
L 355.398172 1.678425 
L 348.034682 1.678425 
L 348.034682 2.077153 
z
" clip-path="url(#p8056c4ecd6)" style="fill: #ff0000"/>
   </g>
   <g id="patch_69">
    <path d="M 383.68789 0.433686 
L 375.831707 0.433686 
L 374.591257 -0.074228 
L 369.537572 -0.074228 
L 376.754735 2.713921 
L 382.748155 2.713921 
L 389.965318 -0.074228 
L 384.91581 -0.074228 
L 383.68789 0.433686 
z
M 377.084687 0.951161 
L 382.42238 0.951161 
L 379.75771 2.060206 
L 377.084687 0.951161 
z
" clip-path="url(#p8056c4ecd6)" style="fill: #008000"/>
   </g>
   <g id="patch_70">
    <path d="M 389.965318 2.916822 
Q 388.256572 2.816248 386.408862 2.765377 
Q 384.561152 2.713921 382.548744 2.713921 
Q 376.547547 2.713921 373.04256 3.095163 
Q 369.537572 3.476405 369.537572 4.128376 
Q 369.537572 4.782685 373.04256 5.163342 
Q 376.547547 5.544584 382.548744 5.544584 
Q 384.561152 5.544584 386.408862 5.493128 
Q 388.256572 5.442257 389.965318 5.341684 
L 389.965318 4.777423 
Q 388.241132 4.91074 386.568414 4.972721 
Q 384.895696 5.034702 383.047986 5.034702 
Q 379.733431 5.034702 377.834253 4.79321 
Q 375.940222 4.552303 375.940222 4.128376 
Q 375.940222 3.706203 377.834253 3.464711 
Q 379.733431 3.223803 383.047986 3.223803 
Q 384.895696 3.223803 386.568414 3.285784 
Q 388.241132 3.34835 389.965318 3.481668 
L 389.965318 2.916822 
z
" clip-path="url(#p8056c4ecd6)" style="fill: #0000ff"/>
   </g>
   <g id="patch_71">
    <path d="M 389.965318 16.536386 
Q 387.905146 12.719988 385.689317 10.803076 
Q 383.473488 8.90359 381.111158 8.90359 
Q 375.773025 8.90359 372.655299 20.265651 
Q 369.537572 31.627713 369.537572 51.058232 
Q 369.537572 70.715295 372.710236 81.990225 
Q 375.887479 93.265154 381.413317 93.265154 
Q 383.542161 93.265154 385.492457 91.731624 
Q 387.44733 90.215521 389.177875 87.218167 
L 389.177875 70.401619 
Q 387.392393 74.25287 385.625223 76.152356 
Q 383.858054 78.069268 382.081728 78.069268 
Q 378.79461 78.069268 377.013706 71.063825 
Q 375.232802 64.075809 375.232802 51.058232 
Q 375.232802 38.162641 376.949612 31.122345 
Q 378.666421 24.099476 381.825351 24.099476 
Q 382.686045 24.099476 383.423129 24.500285 
Q 384.160212 24.91852 384.746217 25.789844 
L 384.746217 41.57823 
L 381.38127 41.57823 
L 381.38127 55.641395 
L 389.965318 55.641395 
L 389.965318 16.536386 
z
" clip-path="url(#p8056c4ecd6)" style="fill: #ffa600"/>
   </g>
   <g id="patch_72">
    <path d="M 369.537572 8.90359 
L 389.965318 8.90359 
L 389.965318 8.24849 
L 382.61608 8.24849 
L 382.61608 5.544584 
L 376.901062 5.544584 
L 376.901062 8.24849 
L 369.537572 8.24849 
L 369.537572 8.90359 
z
" clip-path="url(#p8056c4ecd6)" style="fill: #ff0000"/>
   </g>
   <g id="patch_73">
    <path d="M 405.19078 -0.028247 
L 397.334597 -0.028247 
L 396.094147 -0.074228 
L 391.040462 -0.074228 
L 398.257625 0.17818 
L 404.251045 0.17818 
L 411.468208 -0.074228 
L 406.4187 -0.074228 
L 405.19078 -0.028247 
z
M 398.587577 0.018599 
L 403.92527 0.018599 
L 401.2606 0.119 
L 398.587577 0.018599 
z
" clip-path="url(#p8056c4ecd6)" style="fill: #008000"/>
   </g>
   <g id="patch_74">
    <path d="M 411.468208 12.705524 
Q 409.759462 8.809914 407.911752 6.83946 
Q 406.064043 4.846358 404.051634 4.846358 
Q 398.050437 4.846358 394.54545 19.613437 
Q 391.040462 34.380515 391.040462 59.634032 
Q 391.040462 84.978145 394.54545 99.722574 
Q 398.050437 114.489653 404.051634 114.489653 
Q 406.064043 114.489653 407.911752 112.496551 
Q 409.759462 110.526097 411.468208 106.630487 
L 411.468208 84.774304 
Q 409.744022 89.938252 408.071304 92.339035 
Q 406.398586 94.739818 404.550876 94.739818 
Q 401.236321 94.739818 399.337143 85.385825 
Q 397.443112 76.05448 397.443112 59.634032 
Q 397.443112 43.281531 399.337143 33.927538 
Q 401.236321 24.596193 404.550876 24.596193 
Q 406.398586 24.596193 408.071304 26.996976 
Q 409.744022 29.420408 411.468208 34.584355 
L 411.468208 12.705524 
z
" clip-path="url(#p8056c4ecd6)" style="fill: #0000ff"/>
   </g>
   <g id="patch_75">
    <path d="M 411.468208 1.84443 
Q 409.408037 1.695117 407.192208 1.62012 
Q 404.976379 1.545805 402.614048 1.545805 
Q 397.275915 1.545805 394.158189 1.990333 
Q 391.040462 2.434861 391.040462 3.195059 
Q 391.040462 3.964119 394.213127 4.405239 
Q 397.390369 4.846358 402.916207 4.846358 
Q 405.045051 4.846358 406.995347 4.78636 
Q 408.950221 4.727044 410.680765 4.609776 
L 410.680765 3.951847 
Q 408.895283 4.102523 407.128113 4.176838 
Q 405.360944 4.251835 403.584618 4.251835 
Q 400.2975 4.251835 398.516596 3.977755 
Q 396.735692 3.704357 396.735692 3.195059 
Q 396.735692 2.690533 398.452502 2.415089 
Q 400.169312 2.140327 403.328241 2.140327 
Q 404.188935 2.140327 404.926019 2.156008 
Q 405.663102 2.172371 406.249107 2.206461 
L 406.249107 2.824164 
L 402.88416 2.824164 
L 402.88416 3.37437 
L 411.468208 3.37437 
L 411.468208 1.84443 
z
" clip-path="url(#p8056c4ecd6)" style="fill: #ffa600"/>
   </g>
   <g id="patch_76">
    <path d="M 391.040462 1.545805 
L 411.468208 1.545805 
L 411.468208 1.27908 
L 404.11897 1.27908 
L 404.11897 0.17818 
L 398.403952 0.17818 
L 398.403952 1.27908 
L 391.040462 1.27908 
L 391.040462 1.545805 
z
" clip-path="url(#p8056c4ecd6)" style="fill: #ff0000"/>
   </g>
   <g id="patch_77">
    <path d="M 426.69367 2.86173 
L 418.837487 2.86173 
L 417.597037 2.080636 
L 412.543353 2.080636 
L 419.760516 6.368382 
L 425.753935 6.368382 
L 432.971098 2.080636 
L 427.92159 2.080636 
L 426.69367 2.86173 
z
M 420.090467 3.657527 
L 425.42816 3.657527 
L 422.76349 5.363068 
L 420.090467 3.657527 
z
" clip-path="url(#p8056c4ecd6)" style="fill: #008000"/>
   </g>
   <g id="patch_78">
    <path d="M 432.971098 6.982459 
Q 431.262353 6.678075 429.414643 6.524114 
Q 427.566933 6.368382 425.554524 6.368382 
Q 419.553327 6.368382 416.04834 7.52221 
Q 412.543353 8.676038 412.543353 10.649225 
Q 412.543353 12.629491 416.04834 13.781549 
Q 419.553327 14.935377 425.554524 14.935377 
Q 427.566933 14.935377 429.414643 14.779645 
Q 431.262353 14.625684 432.971098 14.3213 
L 432.971098 12.613564 
Q 431.246912 13.017049 429.574194 13.204635 
Q 427.901476 13.39222 426.053766 13.39222 
Q 422.739212 13.39222 420.840033 12.661345 
Q 418.946002 11.932239 418.946002 10.649225 
Q 418.946002 9.37152 420.840033 8.640644 
Q 422.739212 7.911538 426.053766 7.911538 
Q 427.901476 7.911538 429.574194 8.099124 
Q 431.246912 8.288479 432.971098 8.691965 
L 432.971098 6.982459 
z
" clip-path="url(#p8056c4ecd6)" style="fill: #0000ff"/>
   </g>
   <g id="patch_79">
    <path d="M 432.971098 20.274411 
Q 430.910927 17.604894 428.695098 16.26404 
Q 426.479269 14.935377 424.116939 14.935377 
Q 418.778805 14.935377 415.661079 22.88298 
Q 412.543353 30.830583 412.543353 44.42196 
Q 412.543353 58.171802 415.716017 66.058457 
Q 418.893259 73.945113 424.419097 73.945113 
Q 426.547941 73.945113 428.498237 72.87243 
Q 430.453111 71.811937 432.183655 69.71533 
L 432.183655 57.95239 
Q 430.398173 60.646286 428.631003 61.97495 
Q 426.863834 63.315803 425.087508 63.315803 
Q 421.80039 63.315803 420.019486 58.415593 
Q 418.238582 53.527574 418.238582 44.42196 
Q 418.238582 35.401674 419.955392 30.477086 
Q 421.672202 25.564687 424.831131 25.564687 
Q 425.691825 25.564687 426.428909 25.845047 
Q 427.165993 26.137597 427.751997 26.747076 
L 427.751997 37.790831 
L 424.38705 37.790831 
L 424.38705 47.627819 
L 432.971098 47.627819 
L 432.971098 20.274411 
z
" clip-path="url(#p8056c4ecd6)" style="fill: #ffa600"/>
   </g>
   <g id="patch_80">
    <path d="M 412.543353 2.080636 
L 432.971098 2.080636 
L 432.971098 1.660378 
L 425.62186 1.660378 
L 425.62186 -0.074228 
L 419.906842 -0.074228 
L 419.906842 1.660378 
L 412.543353 1.660378 
L 412.543353 2.080636 
z
" clip-path="url(#p8056c4ecd6)" style="fill: #ff0000"/>
   </g>
   <g id="patch_81">
    <path d="M 454.473988 17.237536 
Q 452.765243 14.77456 450.917533 13.528753 
Q 449.069823 12.268626 447.057415 12.268626 
Q 441.056217 12.268626 437.55123 21.605021 
Q 434.046243 30.941417 434.046243 46.907798 
Q 434.046243 62.931459 437.55123 72.253534 
Q 441.056217 81.58993 447.057415 81.58993 
Q 449.069823 81.58993 450.917533 80.329803 
Q 452.765243 79.083995 454.473988 76.62102 
L 454.473988 62.802582 
Q 452.749802 66.067457 451.077084 67.585337 
Q 449.404366 69.103217 447.556657 69.103217 
Q 444.242102 69.103217 442.342924 63.189212 
Q 440.448892 57.289526 440.448892 46.907798 
Q 440.448892 36.569029 442.342924 30.655024 
Q 444.242102 24.755339 447.556657 24.755339 
Q 449.404366 24.755339 451.077084 26.273219 
Q 452.749802 27.805419 454.473988 31.070293 
L 454.473988 17.237536 
z
" clip-path="url(#p8056c4ecd6)" style="fill: #0000ff"/>
   </g>
   <g id="patch_82">
    <path d="M 454.473988 2.938714 
Q 452.413817 2.474655 450.197988 2.241566 
Q 447.982159 2.010596 445.619829 2.010596 
Q 440.281695 2.010596 437.163969 3.392177 
Q 434.046243 4.773759 434.046243 7.136433 
Q 434.046243 9.526653 437.218907 10.89764 
Q 440.396149 12.268626 445.921987 12.268626 
Q 448.050831 12.268626 450.001127 12.082155 
Q 451.956001 11.897803 453.686545 11.533337 
L 453.686545 9.488511 
Q 451.901063 9.956808 450.133894 10.187778 
Q 448.366724 10.420867 446.590399 10.420867 
Q 443.30328 10.420867 441.522376 9.569033 
Q 439.741473 8.719318 439.741473 7.136433 
Q 439.741473 5.56838 441.458282 4.712308 
Q 443.175092 3.858355 446.334022 3.858355 
Q 447.194716 3.858355 447.931799 3.907092 
Q 448.668883 3.957948 449.254887 4.063897 
L 449.254887 5.983702 
L 445.88994 5.983702 
L 445.88994 7.693727 
L 454.473988 7.693727 
L 454.473988 2.938714 
z
" clip-path="url(#p8056c4ecd6)" style="fill: #ffa600"/>
   </g>
   <g id="patch_83">
    <path d="M 434.046243 2.010596 
L 454.473988 2.010596 
L 454.473988 1.603997 
L 447.124751 1.603997 
L 447.124751 -0.074228 
L 441.409732 -0.074228 
L 441.409732 1.603997 
L 434.046243 1.603997 
L 434.046243 2.010596 
z
" clip-path="url(#p8056c4ecd6)" style="fill: #ff0000"/>
   </g>
   <g id="patch_84">
    <path d="M 475.976879 3.692783 
Q 474.268133 3.240831 472.420423 3.012228 
Q 470.572713 2.780997 468.560305 2.780997 
Q 462.559108 2.780997 459.05412 4.494208 
Q 455.549133 6.20742 455.549133 9.137222 
Q 455.549133 12.077535 459.05412 13.788119 
Q 462.559108 15.501331 468.560305 15.501331 
Q 470.572713 15.501331 472.420423 15.2701 
Q 474.268133 15.041497 475.976879 14.589545 
L 475.976879 12.053886 
Q 474.252692 12.652985 472.579975 12.931513 
Q 470.907257 13.210042 469.059547 13.210042 
Q 465.744992 13.210042 463.845814 12.124832 
Q 461.951782 11.042251 461.951782 9.137222 
Q 461.951782 7.240077 463.845814 6.154868 
Q 465.744992 5.072286 469.059547 5.072286 
Q 470.907257 5.072286 472.579975 5.350814 
Q 474.252692 5.63197 475.976879 6.231069 
L 475.976879 3.692783 
z
" clip-path="url(#p8056c4ecd6)" style="fill: #0000ff"/>
   </g>
   <g id="patch_85">
    <path d="M 475.976879 18.788848 
Q 473.916707 17.145089 471.700878 16.319457 
Q 469.485049 15.501331 467.122719 15.501331 
Q 461.784586 15.501331 458.666859 20.395078 
Q 455.549133 25.288825 455.549133 33.657732 
Q 455.549133 42.124215 458.721797 46.980433 
Q 461.89904 51.836651 467.424878 51.836651 
Q 469.553721 51.836651 471.504017 51.176145 
Q 473.458891 50.523145 475.189435 49.232157 
L 475.189435 41.989111 
Q 473.403953 43.647881 471.636784 44.466008 
Q 469.869614 45.29164 468.093289 45.29164 
Q 464.806171 45.29164 463.025267 42.27433 
Q 461.244363 39.264525 461.244363 33.657732 
Q 461.244363 28.10348 462.961172 25.071158 
Q 464.677982 22.046342 467.836912 22.046342 
Q 468.697606 22.046342 469.434689 22.218974 
Q 470.171773 22.399112 470.757777 22.7744 
L 470.757777 29.574606 
L 467.39283 29.574606 
L 467.39283 35.631744 
L 475.976879 35.631744 
L 475.976879 18.788848 
z
" clip-path="url(#p8056c4ecd6)" style="fill: #ffa600"/>
   </g>
   <g id="patch_86">
    <path d="M 455.549133 2.780997 
L 475.976879 2.780997 
L 475.976879 2.224148 
L 468.627641 2.224148 
L 468.627641 -0.074228 
L 462.912623 -0.074228 
L 462.912623 2.224148 
L 455.549133 2.224148 
L 455.549133 2.780997 
z
" clip-path="url(#p8056c4ecd6)" style="fill: #ff0000"/>
   </g>
   <g id="patch_87">
    <path d="M 497.479769 19.759 
Q 495.771023 17.602477 493.923313 16.511678 
Q 492.075603 15.408341 490.063195 15.408341 
Q 484.061998 15.408341 480.55701 23.583067 
Q 477.052023 31.757793 477.052023 45.737578 
Q 477.052023 59.767515 480.55701 67.929703 
Q 484.061998 76.10443 490.063195 76.10443 
Q 492.075603 76.10443 493.923313 75.001092 
Q 495.771023 73.910293 497.479769 71.75377 
L 497.479769 59.654674 
Q 495.755583 62.51332 494.082865 63.84234 
Q 492.410147 65.17136 490.562437 65.17136 
Q 487.247882 65.17136 485.348704 59.993198 
Q 483.454673 54.827573 483.454673 45.737578 
Q 483.454673 36.685197 485.348704 31.507035 
Q 487.247882 26.34141 490.562437 26.34141 
Q 492.410147 26.34141 494.082865 27.67043 
Q 495.755583 29.011988 497.479769 31.870635 
L 497.479769 19.759 
z
" clip-path="url(#p8056c4ecd6)" style="fill: #0000ff"/>
   </g>
   <g id="patch_88">
    <path d="M 497.479769 2.631206 
Q 495.419597 1.995686 493.203768 1.676475 
Q 490.987939 1.360167 488.625609 1.360167 
Q 483.287476 1.360167 480.169749 3.252216 
Q 477.052023 5.144265 477.052023 8.379901 
Q 477.052023 11.653262 480.224687 13.530801 
Q 483.40193 15.408341 488.927768 15.408341 
Q 491.056612 15.408341 493.006907 15.152972 
Q 494.961781 14.900505 496.692325 14.401376 
L 496.692325 11.601027 
Q 494.906843 12.242351 493.139674 12.558659 
Q 491.372505 12.87787 489.596179 12.87787 
Q 486.309061 12.87787 484.528157 11.7113 
Q 482.747253 10.547632 482.747253 8.379901 
Q 482.747253 6.232483 484.464063 5.060109 
Q 486.180872 3.890637 489.339802 3.890637 
Q 490.200496 3.890637 490.93758 3.957381 
Q 491.674663 4.027027 492.260667 4.172123 
L 492.260667 6.801259 
L 488.895721 6.801259 
L 488.895721 9.143105 
L 497.479769 9.143105 
L 497.479769 2.631206 
z
" clip-path="url(#p8056c4ecd6)" style="fill: #ffa600"/>
   </g>
   <g id="patch_89">
    <path d="M 477.052023 1.360167 
L 497.479769 1.360167 
L 497.479769 1.08042 
L 490.130531 1.08042 
L 490.130531 -0.074228 
L 484.415513 -0.074228 
L 484.415513 1.08042 
L 477.052023 1.08042 
L 477.052023 1.360167 
z
" clip-path="url(#p8056c4ecd6)" style="fill: #ff0000"/>
   </g>
   <g id="patch_90">
    <path d="M 512.705231 2.188495 
L 504.849048 2.188495 
L 503.608598 1.792861 
L 498.554913 1.792861 
L 505.772076 3.964655 
L 511.765496 3.964655 
L 518.982659 1.792861 
L 513.933151 1.792861 
L 512.705231 2.188495 
z
M 506.102028 2.591575 
L 511.439721 2.591575 
L 508.775051 3.455452 
L 506.102028 2.591575 
z
" clip-path="url(#p8056c4ecd6)" style="fill: #008000"/>
   </g>
   <g id="patch_91">
    <path d="M 518.982659 4.683603 
Q 517.273913 4.327237 515.426203 4.146982 
Q 513.578493 3.964655 511.566085 3.964655 
Q 505.564888 3.964655 502.059901 5.31553 
Q 498.554913 6.666405 498.554913 8.976567 
Q 498.554913 11.295017 502.059901 12.64382 
Q 505.564888 13.994695 511.566085 13.994695 
Q 513.578493 13.994695 515.426203 13.812368 
Q 517.273913 13.632114 518.982659 13.275748 
L 518.982659 11.27637 
Q 517.258473 11.748762 515.585755 11.968383 
Q 513.913037 12.188003 512.065327 12.188003 
Q 508.750772 12.188003 506.851594 11.332311 
Q 504.957563 10.478691 504.957563 8.976567 
Q 504.957563 7.48066 506.851594 6.624967 
Q 508.750772 5.771347 512.065327 5.771347 
Q 513.913037 5.771347 515.585755 5.990968 
Q 517.258473 6.21266 518.982659 6.685052 
L 518.982659 4.683603 
z
" clip-path="url(#p8056c4ecd6)" style="fill: #0000ff"/>
   </g>
   <g id="patch_92">
    <path d="M 518.982659 17.520923 
Q 516.922487 15.757809 514.706658 14.872227 
Q 512.490829 13.994695 510.128499 13.994695 
Q 504.790366 13.994695 501.67264 19.243784 
Q 498.554913 24.492872 498.554913 33.469457 
Q 498.554913 42.550702 501.727578 47.759537 
Q 504.90482 52.968372 510.430658 52.968372 
Q 512.559502 52.968372 514.509798 52.259906 
Q 516.464671 51.559491 518.195216 50.174762 
L 518.195216 42.405789 
Q 516.409734 44.185005 514.642564 45.062536 
Q 512.875395 45.948119 511.099069 45.948119 
Q 507.811951 45.948119 506.031047 42.711717 
Q 504.250143 39.483367 504.250143 33.469457 
Q 504.250143 27.511903 505.966953 24.2594 
Q 507.683762 21.014948 510.842692 21.014948 
Q 511.703386 21.014948 512.44047 21.200116 
Q 513.177553 21.393334 513.763558 21.795871 
L 513.763558 29.08985 
L 510.398611 29.08985 
L 510.398611 35.586804 
L 518.982659 35.586804 
L 518.982659 17.520923 
z
" clip-path="url(#p8056c4ecd6)" style="fill: #ffa600"/>
   </g>
   <g id="patch_93">
    <path d="M 498.554913 1.792861 
L 518.982659 1.792861 
L 518.982659 1.428727 
L 511.633421 1.428727 
L 511.633421 -0.074228 
L 505.918403 -0.074228 
L 505.918403 1.428727 
L 498.554913 1.428727 
L 498.554913 1.792861 
z
" clip-path="url(#p8056c4ecd6)" style="fill: #ff0000"/>
   </g>
   <g id="patch_94">
    <path d="M 540.485549 17.805988 
Q 538.776803 16.126965 536.929094 15.277692 
Q 535.081384 14.418658 533.068975 14.418658 
Q 527.067778 14.418658 523.562791 20.783324 
Q 520.057803 27.14799 520.057803 38.032349 
Q 520.057803 48.955756 523.562791 55.310661 
Q 527.067778 61.675327 533.068975 61.675327 
Q 535.081384 61.675327 536.929094 60.816292 
Q 538.776803 59.967019 540.485549 58.287997 
L 540.485549 48.867901 
Q 538.761363 51.093581 537.088645 52.128328 
Q 535.415927 53.163074 533.568217 53.163074 
Q 530.253662 53.163074 528.354484 49.131468 
Q 526.460453 45.109624 526.460453 38.032349 
Q 526.460453 30.98436 528.354484 26.952754 
Q 530.253662 22.93091 533.568217 22.93091 
Q 535.415927 22.93091 537.088645 23.965657 
Q 538.761363 25.010165 540.485549 27.235845 
L 540.485549 17.805988 
z
" clip-path="url(#p8056c4ecd6)" style="fill: #0000ff"/>
   </g>
   <g id="patch_95">
    <path d="M 540.485549 1.237047 
Q 538.425378 0.58141 536.209549 0.252094 
Q 533.99372 -0.074228 531.63139 -0.074228 
Q 526.293256 -0.074228 523.17553 1.877716 
Q 520.057803 3.82966 520.057803 7.167724 
Q 520.057803 10.544707 523.230468 12.481682 
Q 526.40771 14.418658 531.933548 14.418658 
Q 534.062392 14.418658 536.012688 14.155205 
Q 537.967562 13.894746 539.698106 13.379816 
L 539.698106 10.490819 
Q 537.912624 11.152444 536.145454 11.478766 
Q 534.378285 11.808082 532.601959 11.808082 
Q 529.314841 11.808082 527.533937 10.604583 
Q 525.753033 9.404077 525.753033 7.167724 
Q 525.753033 4.952328 527.469843 3.742841 
Q 529.186653 2.536348 532.345582 2.536348 
Q 533.206276 2.536348 533.94336 2.605205 
Q 534.680443 2.677055 535.266448 2.826744 
L 535.266448 5.539108 
L 531.901501 5.539108 
L 531.901501 7.955088 
L 540.485549 7.955088 
L 540.485549 1.237047 
z
" clip-path="url(#p8056c4ecd6)" style="fill: #ffa600"/>
   </g>
   <g id="patch_96">
    <path d="M 561.988439 1.904301 
Q 560.279694 1.275964 558.431984 0.958143 
Q 556.584274 0.636668 554.571865 0.636668 
Q 548.570668 0.636668 545.065681 3.018502 
Q 541.560694 5.400336 541.560694 9.473564 
Q 541.560694 13.561405 545.065681 15.939586 
Q 548.570668 18.32142 554.571865 18.32142 
Q 556.584274 18.32142 558.431984 17.999945 
Q 560.279694 17.682124 561.988439 17.053787 
L 561.988439 13.528527 
Q 560.264253 14.361438 558.591535 14.748669 
Q 556.918817 15.1359 555.071107 15.1359 
Q 551.756553 15.1359 549.857374 13.627161 
Q 547.963343 12.122076 547.963343 9.473564 
Q 547.963343 6.836012 549.857374 5.327274 
Q 551.756553 3.822188 555.071107 3.822188 
Q 556.918817 3.822188 558.591535 4.209419 
Q 560.264253 4.600303 561.988439 5.433214 
L 561.988439 1.904301 
z
" clip-path="url(#p8056c4ecd6)" style="fill: #0000ff"/>
   </g>
   <g id="patch_97">
    <path d="M 561.988439 20.705169 
Q 559.928268 19.513294 557.712439 18.914636 
Q 555.49661 18.32142 553.13428 18.32142 
Q 547.796146 18.32142 544.67842 21.869832 
Q 541.560694 25.418244 541.560694 31.486465 
Q 541.560694 37.625436 544.733358 41.146637 
Q 547.9106 44.667837 553.436438 44.667837 
Q 555.565282 44.667837 557.515578 44.188911 
Q 559.470452 43.715426 561.200996 42.779342 
L 561.200996 37.527474 
Q 559.415514 38.730233 557.648345 39.323449 
Q 555.881175 39.922108 554.104849 39.922108 
Q 550.817731 39.922108 549.036827 37.734283 
Q 547.255923 35.551901 547.255923 31.486465 
Q 547.255923 27.459126 548.972733 25.260416 
Q 550.689543 23.067149 553.848473 23.067149 
Q 554.709166 23.067149 555.44625 23.192323 
Q 556.183334 23.32294 556.769338 23.595057 
L 556.769338 28.525827 
L 553.404391 28.525827 
L 553.404391 32.917803 
L 561.988439 32.917803 
L 561.988439 20.705169 
z
" clip-path="url(#p8056c4ecd6)" style="fill: #ffa600"/>
   </g>
   <g id="patch_98">
    <path d="M 541.560694 0.636668 
L 561.988439 0.636668 
L 561.988439 0.498024 
L 554.639202 0.498024 
L 554.639202 -0.074228 
L 548.924183 -0.074228 
L 548.924183 0.498024 
L 541.560694 0.498024 
L 541.560694 0.636668 
z
" clip-path="url(#p8056c4ecd6)" style="fill: #ff0000"/>
   </g>
   <g id="patch_99">
    <path d="M 583.491329 19.35744 
Q 581.782584 17.952716 579.934874 17.242187 
Q 578.087164 16.523491 576.074756 16.523491 
Q 570.073559 16.523491 566.568571 21.848375 
Q 563.063584 27.173259 563.063584 36.279463 
Q 563.063584 45.418336 566.568571 50.735053 
Q 570.073559 56.059937 576.074756 56.059937 
Q 578.087164 56.059937 579.934874 55.341241 
Q 581.782584 54.630712 583.491329 53.225988 
L 583.491329 45.344833 
Q 581.767143 47.206909 580.094425 48.072611 
Q 578.421708 48.938313 576.573998 48.938313 
Q 573.259443 48.938313 571.360265 45.565342 
Q 569.466233 42.200538 569.466233 36.279463 
Q 569.466233 30.382889 571.360265 27.009919 
Q 573.259443 23.645115 576.573998 23.645115 
Q 578.421708 23.645115 580.094425 24.510817 
Q 581.767143 25.384686 583.491329 27.246762 
L 583.491329 19.35744 
z
" clip-path="url(#p8056c4ecd6)" style="fill: #0000ff"/>
   </g>
   <g id="patch_100">
    <path d="M 583.491329 1.427487 
Q 581.431158 0.676629 579.215329 0.299487 
Q 576.9995 -0.074228 574.63717 -0.074228 
Q 569.299036 -0.074228 566.18131 2.161201 
Q 563.063584 4.39663 563.063584 8.219489 
Q 563.063584 12.086918 566.236248 14.305204 
Q 569.41349 16.523491 574.939328 16.523491 
Q 577.068172 16.523491 579.018468 16.221776 
Q 580.973342 15.923491 582.703886 15.333776 
L 582.703886 12.025204 
Q 580.918404 12.782918 579.151235 13.156633 
Q 577.384065 13.533776 575.60774 13.533776 
Q 572.320621 13.533776 570.539718 12.15549 
Q 568.758814 10.780632 568.758814 8.219489 
Q 568.758814 5.682345 570.475623 4.297202 
Q 572.192433 2.915487 575.351363 2.915487 
Q 576.212057 2.915487 576.94914 2.994344 
Q 577.686224 3.07663 578.272228 3.248059 
L 578.272228 6.354345 
L 574.907281 6.354345 
L 574.907281 9.121203 
L 583.491329 9.121203 
L 583.491329 1.427487 
z
" clip-path="url(#p8056c4ecd6)" style="fill: #ffa600"/>
   </g>
   <g id="patch_101">
    <path d="M 604.99422 1.144346 
Q 603.285474 0.540326 601.437764 0.234805 
Q 599.590054 -0.074228 597.577646 -0.074228 
Q 591.576449 -0.074228 588.071461 2.215426 
Q 584.566474 4.50508 584.566474 8.420669 
Q 584.566474 12.350305 588.071461 14.636447 
Q 591.576449 16.926101 597.577646 16.926101 
Q 599.590054 16.926101 601.437764 16.617068 
Q 603.285474 16.311546 604.99422 15.707527 
L 604.99422 12.318699 
Q 603.270034 13.119376 601.597316 13.49162 
Q 599.924598 13.863864 598.076888 13.863864 
Q 594.762333 13.863864 592.863155 12.413516 
Q 590.969123 10.96668 590.969123 8.420669 
Q 590.969123 5.885193 592.863155 4.434845 
Q 594.762333 2.988009 598.076888 2.988009 
Q 599.924598 2.988009 601.597316 3.360253 
Q 603.270034 3.736009 604.99422 4.536685 
L 604.99422 1.144346 
z
" clip-path="url(#p8056c4ecd6)" style="fill: #0000ff"/>
   </g>
   <g id="patch_102">
    <path d="M 604.99422 18.717568 
Q 602.934048 17.821834 600.718219 17.371922 
Q 598.50239 16.926101 596.14006 16.926101 
Q 590.801927 16.926101 587.6842 19.592852 
Q 584.566474 22.259603 584.566474 26.820075 
Q 584.566474 31.433718 587.739138 34.080018 
Q 590.916381 36.726319 596.442219 36.726319 
Q 598.571063 36.726319 600.521358 36.366389 
Q 602.476232 36.01055 604.206776 35.307051 
L 604.206776 31.360096 
Q 602.421294 32.26401 600.654125 32.709832 
Q 598.886955 33.159744 597.11063 33.159744 
Q 593.823512 33.159744 592.042608 31.51552 
Q 590.261704 29.875386 590.261704 26.820075 
Q 590.261704 23.793394 591.978513 22.14099 
Q 593.695323 20.492676 596.854253 20.492676 
Q 597.714947 20.492676 598.45203 20.586748 
Q 599.189114 20.684911 599.775118 20.889416 
L 599.775118 24.595055 
L 596.410171 24.595055 
L 596.410171 27.895773 
L 604.99422 27.895773 
L 604.99422 18.717568 
z
" clip-path="url(#p8056c4ecd6)" style="fill: #ffa600"/>
   </g>
   <g id="patch_103">
    <path d="M 626.49711 19.672782 
Q 624.788364 18.815912 622.940654 18.382495 
Q 621.092944 17.944097 619.080536 17.944097 
Q 613.079339 17.944097 609.574352 21.192232 
Q 606.069364 24.440368 606.069364 29.995079 
Q 606.069364 35.569716 609.574352 38.81287 
Q 613.079339 42.061006 619.080536 42.061006 
Q 621.092944 42.061006 622.940654 41.622607 
Q 624.788364 41.18919 626.49711 40.33232 
L 626.49711 35.52488 
Q 624.772924 36.660731 623.100206 37.188802 
Q 621.427488 37.716874 619.579778 37.716874 
Q 616.265223 37.716874 614.366045 35.659389 
Q 612.472014 33.606886 612.472014 29.995079 
Q 612.472014 26.398217 614.366045 24.340732 
Q 616.265223 22.288229 619.579778 22.288229 
Q 621.427488 22.288229 623.100206 22.8163 
Q 624.772924 23.349353 626.49711 24.485204 
L 626.49711 19.672782 
z
" clip-path="url(#p8056c4ecd6)" style="fill: #0000ff"/>
   </g>
   <g id="patch_104">
    <path d="M 626.49711 1.556019 
Q 624.436938 0.740896 622.221109 0.331473 
Q 620.00528 -0.074228 617.64295 -0.074228 
Q 612.304817 -0.074228 609.18709 2.352533 
Q 606.069364 4.779293 606.069364 8.929351 
Q 606.069364 13.127796 609.242028 15.535946 
Q 612.419271 17.944097 617.945109 17.944097 
Q 620.073953 17.944097 622.024248 17.616558 
Q 623.979122 17.292742 625.709666 16.652554 
L 625.709666 13.060799 
Q 623.924184 13.883367 622.157015 14.289068 
Q 620.389846 14.698491 618.61352 14.698491 
Q 615.326402 14.698491 613.545498 13.202236 
Q 611.764594 11.709704 611.764594 8.929351 
Q 611.764594 6.175053 613.481404 4.671354 
Q 615.198213 3.171378 618.357143 3.171378 
Q 619.217837 3.171378 619.954921 3.256985 
Q 620.692004 3.346313 621.278009 3.532415 
L 621.278009 6.90457 
L 617.913062 6.90457 
L 617.913062 9.908244 
L 626.49711 9.908244 
L 626.49711 1.556019 
z
" clip-path="url(#p8056c4ecd6)" style="fill: #ffa600"/>
   </g>
   <g id="patch_105">
    <path d="M 648 16.542407 
Q 646.291254 15.730232 644.443544 15.319423 
Q 642.595834 14.903892 640.583426 14.903892 
Q 634.582229 14.903892 631.077242 17.982601 
Q 627.572254 21.06131 627.572254 26.326281 
Q 627.572254 31.61014 631.077242 34.684127 
Q 634.582229 37.762836 640.583426 37.762836 
Q 642.595834 37.762836 644.443544 37.347305 
Q 646.291254 36.936496 648 36.124321 
L 648 31.567642 
Q 646.275814 32.644246 644.603096 33.144772 
Q 642.930378 33.645299 641.082668 33.645299 
Q 637.768113 33.645299 635.868935 31.695135 
Q 633.974904 29.749693 633.974904 26.326281 
Q 633.974904 22.917035 635.868935 20.966871 
Q 637.768113 19.021429 641.082668 19.021429 
Q 642.930378 19.021429 644.603096 19.521956 
Q 646.275814 20.027204 648 21.103808 
L 648 16.542407 
z
" clip-path="url(#p8056c4ecd6)" style="fill: #0000ff"/>
   </g>
   <g id="patch_106">
    <path d="M 648 1.28095 
Q 645.939828 0.603361 643.723999 0.26302 
Q 641.50817 -0.074228 639.14584 -0.074228 
Q 633.807707 -0.074228 630.689981 1.943069 
Q 627.572254 3.960366 627.572254 7.410191 
Q 627.572254 10.900238 630.744919 12.902065 
Q 633.922161 14.903892 639.447999 14.903892 
Q 641.576843 14.903892 643.527139 14.631618 
Q 645.482013 14.362439 647.212557 13.830269 
L 647.212557 10.844546 
Q 645.427075 11.528323 643.659905 11.86557 
Q 641.892736 12.205912 640.11641 12.205912 
Q 636.829292 12.205912 635.048388 10.962118 
Q 633.267484 9.721419 633.267484 7.410191 
Q 633.267484 5.120621 634.984294 3.870639 
Q 636.701103 2.623752 639.860033 2.623752 
Q 640.720727 2.623752 641.457811 2.694914 
Q 642.194894 2.769171 642.780899 2.923871 
L 642.780899 5.727047 
L 639.415952 5.727047 
L 639.415952 8.223916 
L 648 8.223916 
L 648 1.28095 
z
" clip-path="url(#p8056c4ecd6)" style="fill: #ffa600"/>
   </g>
   <g id="matplotlib.axis_1">
    <g id="xtick_1">
     <g id="line2d_2">
      <defs>
       <path id="mae9db5fed3" d="M 0 0 
L 0 3.5 
" style="stroke: #000000; stroke-width: 0.8"/>
      </defs>
      <g>
       <use xlink:href="#mae9db5fed3" x="100.213873" y="192.24" style="stroke: #000000; stroke-width: 0.8"/>
      </g>
     </g>
     <g id="text_1">
      <!-- 0 -->
      <g transform="translate(97.032623 206.838437) scale(0.1 -0.1)">
       <defs>
        <path id="DejaVuSans-30" d="M 2034 4250 
Q 1547 4250 1301 3770 
Q 1056 3291 1056 2328 
Q 1056 1369 1301 889 
Q 1547 409 2034 409 
Q 2525 409 2770 889 
Q 3016 1369 3016 2328 
Q 3016 3291 2770 3770 
Q 2525 4250 2034 4250 
z
M 2034 4750 
Q 2819 4750 3233 4129 
Q 3647 3509 3647 2328 
Q 3647 1150 3233 529 
Q 2819 -91 2034 -91 
Q 1250 -91 836 529 
Q 422 1150 422 2328 
Q 422 3509 836 4129 
Q 1250 4750 2034 4750 
z
" transform="scale(0.015625)"/>
       </defs>
       <use xlink:href="#DejaVuSans-30"/>
      </g>
     </g>
    </g>
    <g id="xtick_2">
     <g id="line2d_3">
      <g>
       <use xlink:href="#mae9db5fed3" x="207.728324" y="192.24" style="stroke: #000000; stroke-width: 0.8"/>
      </g>
     </g>
     <g id="text_2">
      <!-- 5 -->
      <g transform="translate(204.547074 206.838437) scale(0.1 -0.1)">
       <defs>
        <path id="DejaVuSans-35" d="M 691 4666 
L 3169 4666 
L 3169 4134 
L 1269 4134 
L 1269 2991 
Q 1406 3038 1543 3061 
Q 1681 3084 1819 3084 
Q 2600 3084 3056 2656 
Q 3513 2228 3513 1497 
Q 3513 744 3044 326 
Q 2575 -91 1722 -91 
Q 1428 -91 1123 -41 
Q 819 9 494 109 
L 494 744 
Q 775 591 1075 516 
Q 1375 441 1709 441 
Q 2250 441 2565 725 
Q 2881 1009 2881 1497 
Q 2881 1984 2565 2268 
Q 2250 2553 1709 2553 
Q 1456 2553 1204 2497 
Q 953 2441 691 2322 
L 691 4666 
z
" transform="scale(0.015625)"/>
       </defs>
       <use xlink:href="#DejaVuSans-35"/>
      </g>
     </g>
    </g>
    <g id="xtick_3">
     <g id="line2d_4">
      <g>
       <use xlink:href="#mae9db5fed3" x="315.242775" y="192.24" style="stroke: #000000; stroke-width: 0.8"/>
      </g>
     </g>
     <g id="text_3">
      <!-- 10 -->
      <g transform="translate(308.880275 206.838437) scale(0.1 -0.1)">
       <defs>
        <path id="DejaVuSans-31" d="M 794 531 
L 1825 531 
L 1825 4091 
L 703 3866 
L 703 4441 
L 1819 4666 
L 2450 4666 
L 2450 531 
L 3481 531 
L 3481 0 
L 794 0 
L 794 531 
z
" transform="scale(0.015625)"/>
       </defs>
       <use xlink:href="#DejaVuSans-31"/>
       <use xlink:href="#DejaVuSans-30" x="63.623047"/>
      </g>
     </g>
    </g>
    <g id="xtick_4">
     <g id="line2d_5">
      <g>
       <use xlink:href="#mae9db5fed3" x="422.757225" y="192.24" style="stroke: #000000; stroke-width: 0.8"/>
      </g>
     </g>
     <g id="text_4">
      <!-- 15 -->
      <g transform="translate(416.394725 206.838437) scale(0.1 -0.1)">
       <use xlink:href="#DejaVuSans-31"/>
       <use xlink:href="#DejaVuSans-35" x="63.623047"/>
      </g>
     </g>
    </g>
    <g id="xtick_5">
     <g id="line2d_6">
      <g>
       <use xlink:href="#mae9db5fed3" x="530.271676" y="192.24" style="stroke: #000000; stroke-width: 0.8"/>
      </g>
     </g>
     <g id="text_5">
      <!-- 20 -->
      <g transform="translate(523.909176 206.838437) scale(0.1 -0.1)">
       <defs>
        <path id="DejaVuSans-32" d="M 1228 531 
L 3431 531 
L 3431 0 
L 469 0 
L 469 531 
Q 828 903 1448 1529 
Q 2069 2156 2228 2338 
Q 2531 2678 2651 2914 
Q 2772 3150 2772 3378 
Q 2772 3750 2511 3984 
Q 2250 4219 1831 4219 
Q 1534 4219 1204 4116 
Q 875 4013 500 3803 
L 500 4441 
Q 881 4594 1212 4672 
Q 1544 4750 1819 4750 
Q 2544 4750 2975 4387 
Q 3406 4025 3406 3419 
Q 3406 3131 3298 2873 
Q 3191 2616 2906 2266 
Q 2828 2175 2409 1742 
Q 1991 1309 1228 531 
z
" transform="scale(0.015625)"/>
       </defs>
       <use xlink:href="#DejaVuSans-32"/>
       <use xlink:href="#DejaVuSans-30" x="63.623047"/>
      </g>
     </g>
    </g>
    <g id="xtick_6">
     <g id="line2d_7">
      <g>
       <use xlink:href="#mae9db5fed3" x="637.786127" y="192.24" style="stroke: #000000; stroke-width: 0.8"/>
      </g>
     </g>
     <g id="text_6">
      <!-- 25 -->
      <g transform="translate(631.423627 206.838437) scale(0.1 -0.1)">
       <use xlink:href="#DejaVuSans-32"/>
       <use xlink:href="#DejaVuSans-35" x="63.623047"/>
      </g>
     </g>
    </g>
   </g>
   <g id="matplotlib.axis_2">
    <g id="ytick_1">
     <g id="line2d_8">
      <defs>
       <path id="m2d31fe1706" d="M 0 0 
L -3.5 0 
" style="stroke: #000000; stroke-width: 0.8"/>
      </defs>
      <g>
       <use xlink:href="#m2d31fe1706" x="90" y="176.964475" style="stroke: #000000; stroke-width: 0.8"/>
      </g>
     </g>
     <g id="text_7">
      <!-- 0.008 -->
      <g transform="translate(45.992188 180.763694) scale(0.1 -0.1)">
       <defs>
        <path id="DejaVuSans-2212" d="M 678 2272 
L 4684 2272 
L 4684 1741 
L 678 1741 
L 678 2272 
z
" transform="scale(0.015625)"/>
        <path id="DejaVuSans-2e" d="M 684 794 
L 1344 794 
L 1344 0 
L 684 0 
L 684 794 
z
" transform="scale(0.015625)"/>
        <path id="DejaVuSans-38" d="M 2034 2216 
Q 1584 2216 1326 1975 
Q 1069 1734 1069 1313 
Q 1069 891 1326 650 
Q 1584 409 2034 409 
Q 2484 409 2743 651 
Q 3003 894 3003 1313 
Q 3003 1734 2745 1975 
Q 2488 2216 2034 2216 
z
M 1403 2484 
Q 997 2584 770 2862 
Q 544 3141 544 3541 
Q 544 4100 942 4425 
Q 1341 4750 2034 4750 
Q 2731 4750 3128 4425 
Q 3525 4100 3525 3541 
Q 3525 3141 3298 2862 
Q 3072 2584 2669 2484 
Q 3125 2378 3379 2068 
Q 3634 1759 3634 1313 
Q 3634 634 3220 271 
Q 2806 -91 2034 -91 
Q 1263 -91 848 271 
Q 434 634 434 1313 
Q 434 1759 690 2068 
Q 947 2378 1403 2484 
z
M 1172 3481 
Q 1172 3119 1398 2916 
Q 1625 2713 2034 2713 
Q 2441 2713 2670 2916 
Q 2900 3119 2900 3481 
Q 2900 3844 2670 4047 
Q 2441 4250 2034 4250 
Q 1625 4250 1398 4047 
Q 1172 3844 1172 3481 
z
" transform="scale(0.015625)"/>
       </defs>
       <use xlink:href="#DejaVuSans-2212"/>
       <use xlink:href="#DejaVuSans-30" x="83.789062"/>
       <use xlink:href="#DejaVuSans-2e" x="147.412109"/>
       <use xlink:href="#DejaVuSans-30" x="179.199219"/>
       <use xlink:href="#DejaVuSans-30" x="242.822266"/>
       <use xlink:href="#DejaVuSans-38" x="306.445312"/>
      </g>
     </g>
    </g>
    <g id="ytick_2">
     <g id="line2d_9">
      <g>
       <use xlink:href="#m2d31fe1706" x="90" y="154.834637" style="stroke: #000000; stroke-width: 0.8"/>
      </g>
     </g>
     <g id="text_8">
      <!-- 0.007 -->
      <g transform="translate(45.992188 158.633856) scale(0.1 -0.1)">
       <defs>
        <path id="DejaVuSans-37" d="M 525 4666 
L 3525 4666 
L 3525 4397 
L 1831 0 
L 1172 0 
L 2766 4134 
L 525 4134 
L 525 4666 
z
" transform="scale(0.015625)"/>
       </defs>
       <use xlink:href="#DejaVuSans-2212"/>
       <use xlink:href="#DejaVuSans-30" x="83.789062"/>
       <use xlink:href="#DejaVuSans-2e" x="147.412109"/>
       <use xlink:href="#DejaVuSans-30" x="179.199219"/>
       <use xlink:href="#DejaVuSans-30" x="242.822266"/>
       <use xlink:href="#DejaVuSans-37" x="306.445312"/>
      </g>
     </g>
    </g>
    <g id="ytick_3">
     <g id="line2d_10">
      <g>
       <use xlink:href="#m2d31fe1706" x="90" y="132.704799" style="stroke: #000000; stroke-width: 0.8"/>
      </g>
     </g>
     <g id="text_9">
      <!-- 0.006 -->
      <g transform="translate(45.992188 136.504018) scale(0.1 -0.1)">
       <defs>
        <path id="DejaVuSans-36" d="M 2113 2584 
Q 1688 2584 1439 2293 
Q 1191 2003 1191 1497 
Q 1191 994 1439 701 
Q 1688 409 2113 409 
Q 2538 409 2786 701 
Q 3034 994 3034 1497 
Q 3034 2003 2786 2293 
Q 2538 2584 2113 2584 
z
M 3366 4563 
L 3366 3988 
Q 3128 4100 2886 4159 
Q 2644 4219 2406 4219 
Q 1781 4219 1451 3797 
Q 1122 3375 1075 2522 
Q 1259 2794 1537 2939 
Q 1816 3084 2150 3084 
Q 2853 3084 3261 2657 
Q 3669 2231 3669 1497 
Q 3669 778 3244 343 
Q 2819 -91 2113 -91 
Q 1303 -91 875 529 
Q 447 1150 447 2328 
Q 447 3434 972 4092 
Q 1497 4750 2381 4750 
Q 2619 4750 2861 4703 
Q 3103 4656 3366 4563 
z
" transform="scale(0.015625)"/>
       </defs>
       <use xlink:href="#DejaVuSans-2212"/>
       <use xlink:href="#DejaVuSans-30" x="83.789062"/>
       <use xlink:href="#DejaVuSans-2e" x="147.412109"/>
       <use xlink:href="#DejaVuSans-30" x="179.199219"/>
       <use xlink:href="#DejaVuSans-30" x="242.822266"/>
       <use xlink:href="#DejaVuSans-36" x="306.445312"/>
      </g>
     </g>
    </g>
    <g id="ytick_4">
     <g id="line2d_11">
      <g>
       <use xlink:href="#m2d31fe1706" x="90" y="110.574961" style="stroke: #000000; stroke-width: 0.8"/>
      </g>
     </g>
     <g id="text_10">
      <!-- 0.005 -->
      <g transform="translate(45.992188 114.37418) scale(0.1 -0.1)">
       <use xlink:href="#DejaVuSans-2212"/>
       <use xlink:href="#DejaVuSans-30" x="83.789062"/>
       <use xlink:href="#DejaVuSans-2e" x="147.412109"/>
       <use xlink:href="#DejaVuSans-30" x="179.199219"/>
       <use xlink:href="#DejaVuSans-30" x="242.822266"/>
       <use xlink:href="#DejaVuSans-35" x="306.445312"/>
      </g>
     </g>
    </g>
    <g id="ytick_5">
     <g id="line2d_12">
      <g>
       <use xlink:href="#m2d31fe1706" x="90" y="88.445124" style="stroke: #000000; stroke-width: 0.8"/>
      </g>
     </g>
     <g id="text_11">
      <!-- 0.004 -->
      <g transform="translate(45.992188 92.244342) scale(0.1 -0.1)">
       <defs>
        <path id="DejaVuSans-34" d="M 2419 4116 
L 825 1625 
L 2419 1625 
L 2419 4116 
z
M 2253 4666 
L 3047 4666 
L 3047 1625 
L 3713 1625 
L 3713 1100 
L 3047 1100 
L 3047 0 
L 2419 0 
L 2419 1100 
L 313 1100 
L 313 1709 
L 2253 4666 
z
" transform="scale(0.015625)"/>
       </defs>
       <use xlink:href="#DejaVuSans-2212"/>
       <use xlink:href="#DejaVuSans-30" x="83.789062"/>
       <use xlink:href="#DejaVuSans-2e" x="147.412109"/>
       <use xlink:href="#DejaVuSans-30" x="179.199219"/>
       <use xlink:href="#DejaVuSans-30" x="242.822266"/>
       <use xlink:href="#DejaVuSans-34" x="306.445312"/>
      </g>
     </g>
    </g>
    <g id="ytick_6">
     <g id="line2d_13">
      <g>
       <use xlink:href="#m2d31fe1706" x="90" y="66.315286" style="stroke: #000000; stroke-width: 0.8"/>
      </g>
     </g>
     <g id="text_12">
      <!-- 0.003 -->
      <g transform="translate(45.992188 70.114504) scale(0.1 -0.1)">
       <defs>
        <path id="DejaVuSans-33" d="M 2597 2516 
Q 3050 2419 3304 2112 
Q 3559 1806 3559 1356 
Q 3559 666 3084 287 
Q 2609 -91 1734 -91 
Q 1441 -91 1130 -33 
Q 819 25 488 141 
L 488 750 
Q 750 597 1062 519 
Q 1375 441 1716 441 
Q 2309 441 2620 675 
Q 2931 909 2931 1356 
Q 2931 1769 2642 2001 
Q 2353 2234 1838 2234 
L 1294 2234 
L 1294 2753 
L 1863 2753 
Q 2328 2753 2575 2939 
Q 2822 3125 2822 3475 
Q 2822 3834 2567 4026 
Q 2313 4219 1838 4219 
Q 1578 4219 1281 4162 
Q 984 4106 628 3988 
L 628 4550 
Q 988 4650 1302 4700 
Q 1616 4750 1894 4750 
Q 2613 4750 3031 4423 
Q 3450 4097 3450 3541 
Q 3450 3153 3228 2886 
Q 3006 2619 2597 2516 
z
" transform="scale(0.015625)"/>
       </defs>
       <use xlink:href="#DejaVuSans-2212"/>
       <use xlink:href="#DejaVuSans-30" x="83.789062"/>
       <use xlink:href="#DejaVuSans-2e" x="147.412109"/>
       <use xlink:href="#DejaVuSans-30" x="179.199219"/>
       <use xlink:href="#DejaVuSans-30" x="242.822266"/>
       <use xlink:href="#DejaVuSans-33" x="306.445312"/>
      </g>
     </g>
    </g>
    <g id="ytick_7">
     <g id="line2d_14">
      <g>
       <use xlink:href="#m2d31fe1706" x="90" y="44.185448" style="stroke: #000000; stroke-width: 0.8"/>
      </g>
     </g>
     <g id="text_13">
      <!-- 0.002 -->
      <g transform="translate(45.992188 47.984667) scale(0.1 -0.1)">
       <use xlink:href="#DejaVuSans-2212"/>
       <use xlink:href="#DejaVuSans-30" x="83.789062"/>
       <use xlink:href="#DejaVuSans-2e" x="147.412109"/>
       <use xlink:href="#DejaVuSans-30" x="179.199219"/>
       <use xlink:href="#DejaVuSans-30" x="242.822266"/>
       <use xlink:href="#DejaVuSans-32" x="306.445312"/>
      </g>
     </g>
    </g>
   </g>
  </g>
 </g>
 <defs>
  <clipPath id="p8056c4ecd6">
   <rect x="90" y="25.92" width="558" height="166.32"/>
  </clipPath>
 </defs>
</svg>
