<?xml version="1.0" encoding="utf-8" standalone="no"?>
<!DOCTYPE svg PUBLIC "-//W3C//DTD SVG 1.1//EN"
  "http://www.w3.org/Graphics/SVG/1.1/DTD/svg11.dtd">
<svg xmlns:xlink="http://www.w3.org/1999/xlink" width="720pt" height="216pt" viewBox="0 0 720 216" xmlns="http://www.w3.org/2000/svg" version="1.1">
 <metadata>
  <rdf:RDF xmlns:dc="http://purl.org/dc/elements/1.1/" xmlns:cc="http://creativecommons.org/ns#" xmlns:rdf="http://www.w3.org/1999/02/22-rdf-syntax-ns#">
   <cc:Work>
    <dc:type rdf:resource="http://purl.org/dc/dcmitype/StillImage"/>
    <dc:date>2024-11-23T04:46:58.909190</dc:date>
    <dc:format>image/svg+xml</dc:format>
    <dc:creator>
     <cc:Agent>
      <dc:title>Matplotlib v3.7.2, https://matplotlib.org/</dc:title>
     </cc:Agent>
    </dc:creator>
   </cc:Work>
  </rdf:RDF>
 </metadata>
 <defs>
  <style type="text/css">*{stroke-linejoin: round; stroke-linecap: butt}</style>
 </defs>
 <g id="figure_1">
  <g id="patch_1">
   <path d="M 0 216 
L 720 216 
L 720 0 
L 0 0 
z
" style="fill: #ffffff"/>
  </g>
  <g id="axes_1">
   <g id="patch_2">
    <path d="M 90 192.24 
L 648 192.24 
L 648 25.92 
L 90 25.92 
z
" style="fill: #ffffff"/>
   </g>
   <g id="line2d_1">
    <path d="M 90 78.343834 
L 648 78.343834 
" clip-path="url(#p71c308b042)" style="fill: none; stroke: #000000; stroke-width: 0.5; stroke-linecap: square"/>
   </g>
   <g id="patch_3">
    <path d="M 126.330551 77.655831 
Q 124.850018 77.996858 123.249081 78.169354 
Q 121.648144 78.343834 119.904504 78.343834 
Q 114.704803 78.343834 111.667927 77.051102 
Q 108.631052 75.75837 108.631052 73.54764 
Q 108.631052 71.328979 111.667927 70.038229 
Q 114.704803 68.745498 119.904504 68.745498 
Q 121.648144 68.745498 123.249081 68.919977 
Q 124.850018 69.092473 126.330551 69.433501 
L 126.330551 71.346823 
Q 124.83664 70.894763 123.387324 70.684595 
Q 121.938007 70.474427 120.33707 70.474427 
Q 117.465193 70.474427 115.819662 71.29329 
Q 114.178589 72.110169 114.178589 73.54764 
Q 114.178589 74.979162 115.819662 75.798024 
Q 117.465193 76.614904 120.33707 76.614904 
Q 121.938007 76.614904 123.387324 76.404736 
Q 124.83664 76.192585 126.330551 75.740525 
L 126.330551 77.655831 
z
" clip-path="url(#p71c308b042)" style="fill: #0000ff"/>
   </g>
   <g id="patch_4">
    <path d="M 108.631052 37.738862 
L 126.330551 37.738862 
L 126.330551 43.78602 
L 119.962847 43.78602 
L 119.962847 68.745498 
L 115.011104 68.745498 
L 115.011104 43.78602 
L 108.631052 43.78602 
L 108.631052 37.738862 
z
" clip-path="url(#p71c308b042)" style="fill: #ff0000"/>
   </g>
   <g id="patch_5">
    <path d="M 139.522562 76.751043 
L 132.715619 76.751043 
L 131.640839 78.343834 
L 127.262104 78.343834 
L 133.515372 69.600353 
L 138.708335 69.600353 
L 144.961603 78.343834 
L 140.586486 78.343834 
L 139.522562 76.751043 
z
M 133.801256 75.128271 
L 138.426069 75.128271 
L 136.117281 71.650368 
L 133.801256 75.128271 
z
" clip-path="url(#p71c308b042)" style="fill: #008000"/>
   </g>
   <g id="patch_6">
    <path d="M 158.153614 77.928352 
L 151.346671 77.928352 
L 150.27189 78.343834 
L 145.893155 78.343834 
L 152.146423 76.063083 
L 157.339386 76.063083 
L 163.592654 78.343834 
L 159.217538 78.343834 
L 158.153614 77.928352 
z
M 152.432308 77.505049 
L 157.057121 77.505049 
L 154.748333 76.597832 
L 152.432308 77.505049 
z
" clip-path="url(#p71c308b042)" style="fill: #008000"/>
   </g>
   <g id="patch_7">
    <path d="M 163.592654 74.664195 
Q 161.807631 75.363639 159.887739 75.714958 
Q 157.967847 76.063083 155.92102 76.063083 
Q 151.295826 76.063083 148.594491 73.98072 
Q 145.893155 71.898357 145.893155 68.337261 
Q 145.893155 64.734645 148.642091 62.668251 
Q 151.394994 60.601858 156.182824 60.601858 
Q 158.027348 60.601858 159.71717 60.882913 
Q 161.410959 61.160774 162.910379 61.710109 
L 162.910379 64.792134 
Q 161.363358 64.086302 159.832205 63.738177 
Q 158.301052 63.386858 156.761965 63.386858 
Q 153.913861 63.386858 152.370807 64.670769 
Q 150.827753 65.951486 150.827753 68.337261 
Q 150.827753 70.700679 152.315273 71.990977 
Q 153.802792 73.278082 156.539828 73.278082 
Q 157.285572 73.278082 157.924213 73.204624 
Q 158.562855 73.127973 159.070595 72.968283 
L 159.070595 70.074692 
L 156.155057 70.074692 
L 156.155057 67.497289 
L 163.592654 67.497289 
L 163.592654 74.664195 
z
" clip-path="url(#p71c308b042)" style="fill: #ffa600"/>
   </g>
   <g id="patch_8">
    <path d="M 182.223706 75.83902 
Q 180.438683 77.091427 178.518791 77.720489 
Q 176.598899 78.343834 174.552072 78.343834 
Q 169.926878 78.343834 167.225542 74.615207 
Q 164.524207 70.88658 164.524207 64.510171 
Q 164.524207 58.059418 167.273143 54.359385 
Q 170.026046 50.659353 174.813876 50.659353 
Q 176.6584 50.659353 178.348222 51.162603 
Q 180.042011 51.660134 181.541431 52.64376 
L 181.541431 58.162356 
Q 179.99441 56.898512 178.463257 56.275167 
Q 176.932103 55.646105 175.393016 55.646105 
Q 172.544912 55.646105 171.001859 57.945043 
Q 169.458805 60.238263 169.458805 64.510171 
Q 169.458805 68.742048 170.946325 71.052424 
Q 172.433844 73.357081 175.17088 73.357081 
Q 175.916623 73.357081 176.555265 73.22555 
Q 177.193907 73.0883 177.701647 72.802362 
L 177.701647 67.621173 
L 174.786108 67.621173 
L 174.786108 63.006139 
L 182.223706 63.006139 
L 182.223706 75.83902 
z
" clip-path="url(#p71c308b042)" style="fill: #ffa600"/>
   </g>
   <g id="patch_9">
    <path d="M 195.415717 76.277272 
L 188.608774 76.277272 
L 187.533994 78.343834 
L 183.155259 78.343834 
L 189.408527 66.999626 
L 194.60149 66.999626 
L 200.854758 78.343834 
L 196.479641 78.343834 
L 195.415717 76.277272 
z
M 189.694411 74.17181 
L 194.319224 74.17181 
L 192.010437 69.659412 
L 189.694411 74.17181 
z
" clip-path="url(#p71c308b042)" style="fill: #008000"/>
   </g>
   <g id="patch_10">
    <path d="M 214.046769 77.390145 
L 207.239826 77.390145 
L 206.165046 78.343834 
L 201.786311 78.343834 
L 208.039579 73.108644 
L 213.232542 73.108644 
L 219.48581 78.343834 
L 215.110693 78.343834 
L 214.046769 77.390145 
z
M 208.325463 76.418504 
L 212.950276 76.418504 
L 210.641488 74.336097 
L 208.325463 76.418504 
z
" clip-path="url(#p71c308b042)" style="fill: #008000"/>
   </g>
   <g id="patch_11">
    <path d="M 257.679466 69.914847 
L 275.378965 69.914847 
L 275.378965 71.558734 
L 269.011261 71.558734 
L 269.011261 78.343834 
L 264.059518 78.343834 
L 264.059518 71.558734 
L 257.679466 71.558734 
L 257.679466 69.914847 
z
" clip-path="url(#p71c308b042)" style="fill: #ff0000"/>
   </g>
   <g id="patch_12">
    <path d="M 331.27212 78.147647 
Q 329.791588 78.244892 328.19065 78.29408 
Q 326.589713 78.343834 324.846074 78.343834 
Q 319.646372 78.343834 316.609497 77.975206 
Q 313.572621 77.606578 313.572621 76.976179 
Q 313.572621 76.343519 316.609497 75.975457 
Q 319.646372 75.606829 324.846074 75.606829 
Q 326.589713 75.606829 328.19065 75.656582 
Q 329.791588 75.70577 331.27212 75.803016 
L 331.27212 76.348607 
Q 329.778209 76.219701 328.328893 76.159771 
Q 326.879576 76.09984 325.278639 76.09984 
Q 322.406763 76.09984 320.761231 76.333342 
Q 319.120159 76.566279 319.120159 76.976179 
Q 319.120159 77.384384 320.761231 77.617886 
Q 322.406763 77.850822 325.278639 77.850822 
Q 326.879576 77.850822 328.328893 77.790892 
Q 329.778209 77.730396 331.27212 77.60149 
L 331.27212 78.147647 
z
" clip-path="url(#p71c308b042)" style="fill: #0000ff"/>
   </g>
   <g id="patch_13">
    <path d="M 349.903172 78.024585 
Q 348.422639 78.182829 346.821702 78.262871 
Q 345.220765 78.343834 343.477126 78.343834 
Q 338.277424 78.343834 335.240548 77.743978 
Q 332.203673 77.144122 332.203673 76.118295 
Q 332.203673 75.088788 335.240548 74.489852 
Q 338.277424 73.889996 343.477126 73.889996 
Q 345.220765 73.889996 346.821702 73.970958 
Q 348.422639 74.051001 349.903172 74.209245 
L 349.903172 75.097068 
Q 348.409261 74.887303 346.959945 74.78978 
Q 345.510628 74.692257 343.909691 74.692257 
Q 341.037814 74.692257 339.392283 75.072227 
Q 337.75121 75.451277 337.75121 76.118295 
Q 337.75121 76.782552 339.392283 77.162522 
Q 341.037814 77.541572 343.909691 77.541572 
Q 345.510628 77.541572 346.959945 77.44405 
Q 348.409261 77.345607 349.903172 77.135842 
L 349.903172 78.024585 
z
" clip-path="url(#p71c308b042)" style="fill: #0000ff"/>
   </g>
   <g id="patch_14">
    <path d="M 387.165275 78.313869 
Q 385.684743 78.328721 384.083806 78.336234 
Q 382.482868 78.343834 380.739229 78.343834 
Q 375.539527 78.343834 372.502652 78.28753 
Q 369.465776 78.231227 369.465776 78.134942 
Q 369.465776 78.038311 372.502652 77.982095 
Q 375.539527 77.925792 380.739229 77.925792 
Q 382.482868 77.925792 384.083806 77.933391 
Q 385.684743 77.940904 387.165275 77.955757 
L 387.165275 78.039089 
Q 385.671365 78.0194 384.222048 78.010246 
Q 382.772732 78.001093 381.171794 78.001093 
Q 378.299918 78.001093 376.654386 78.036757 
Q 375.013314 78.072335 375.013314 78.134942 
Q 375.013314 78.19729 376.654386 78.232954 
Q 378.299918 78.268532 381.171794 78.268532 
Q 382.772732 78.268532 384.222048 78.259379 
Q 385.671365 78.250139 387.165275 78.23045 
L 387.165275 78.313869 
z
" clip-path="url(#p71c308b042)" style="fill: #0000ff"/>
   </g>
   <g id="patch_15">
    <path d="M 437.61939 78.312624 
L 430.812447 78.312624 
L 429.737667 78.343834 
L 425.358932 78.343834 
L 431.6122 78.172511 
L 436.805163 78.172511 
L 443.058431 78.343834 
L 438.683314 78.343834 
L 437.61939 78.312624 
z
M 431.898084 78.280827 
L 436.522897 78.280827 
L 434.214109 78.212679 
L 431.898084 78.280827 
z
" clip-path="url(#p71c308b042)" style="fill: #008000"/>
   </g>
   <g id="patch_16">
    <path d="M 474.881494 77.886989 
L 468.074551 77.886989 
L 466.99977 78.343834 
L 462.621035 78.343834 
L 468.874303 75.836025 
L 474.067266 75.836025 
L 480.320534 78.343834 
L 475.945418 78.343834 
L 474.881494 77.886989 
z
M 469.160188 77.421545 
L 473.785 77.421545 
L 471.476213 76.424011 
L 469.160188 77.421545 
z
" clip-path="url(#p71c308b042)" style="fill: #008000"/>
   </g>
   <g id="patch_17">
    <path d="M 481.252087 77.234676 
L 498.951586 77.234676 
L 498.951586 77.450992 
L 492.583882 77.450992 
L 492.583882 78.343834 
L 487.632139 78.343834 
L 487.632139 77.450992 
L 481.252087 77.450992 
L 481.252087 77.234676 
z
" clip-path="url(#p71c308b042)" style="fill: #ff0000"/>
   </g>
   <g id="patch_18">
    <path d="M 549.405701 77.154049 
L 542.598758 77.154049 
L 541.523977 78.343834 
L 537.145242 78.343834 
L 543.39851 71.812615 
L 548.591473 71.812615 
L 554.844741 78.343834 
L 550.469625 78.343834 
L 549.405701 77.154049 
z
M 543.684395 75.941868 
L 548.309208 75.941868 
L 546.00042 73.343938 
L 543.684395 75.941868 
z
" clip-path="url(#p71c308b042)" style="fill: #008000"/>
   </g>
   <g id="patch_19">
    <path d="M 555.776294 25.462405 
L 573.475793 25.462405 
L 573.475793 35.775757 
L 567.108089 35.775757 
L 567.108089 78.343834 
L 562.156346 78.343834 
L 562.156346 35.775757 
L 555.776294 35.775757 
L 555.776294 25.462405 
z
" clip-path="url(#p71c308b042)" style="fill: #ff0000"/>
   </g>
   <g id="patch_20">
    <path d="M 574.407346 55.601151 
L 592.106845 55.601151 
L 592.106845 60.036608 
L 585.739141 60.036608 
L 585.739141 78.343834 
L 580.787398 78.343834 
L 580.787398 60.036608 
L 574.407346 60.036608 
L 574.407346 55.601151 
z
" clip-path="url(#p71c308b042)" style="fill: #ff0000"/>
   </g>
   <g id="patch_21">
    <path d="M 593.038397 76.680608 
L 610.737896 76.680608 
L 610.737896 77.004983 
L 604.370193 77.004983 
L 604.370193 78.343834 
L 599.418449 78.343834 
L 599.418449 77.004983 
L 593.038397 77.004983 
L 593.038397 76.680608 
z
" clip-path="url(#p71c308b042)" style="fill: #ff0000"/>
   </g>
   <g id="patch_22">
    <path d="M 107.699499 82.208987 
Q 106.218967 81.783598 104.618029 81.56843 
Q 103.017092 81.350789 101.273453 81.350789 
Q 96.073751 81.350789 93.036876 82.963312 
Q 90 84.575835 90 87.333447 
Q 90 90.100952 93.036876 91.711002 
Q 96.073751 93.323525 101.273453 93.323525 
Q 103.017092 93.323525 104.618029 93.105884 
Q 106.218967 92.890716 107.699499 92.465326 
L 107.699499 90.078693 
Q 106.205588 90.642582 104.756272 90.90474 
Q 103.306955 91.166899 101.706018 91.166899 
Q 98.834142 91.166899 97.18861 90.145469 
Q 95.547538 89.126513 95.547538 87.333447 
Q 95.547538 85.5478 97.18861 84.526371 
Q 98.834142 83.507414 101.706018 83.507414 
Q 103.306955 83.507414 104.756272 83.769573 
Q 106.205588 84.034205 107.699499 84.598093 
L 107.699499 82.208987 
z
" clip-path="url(#p71c308b042)" style="fill: #0000ff"/>
   </g>
   <g id="patch_23">
    <path d="M 107.699499 78.615894 
Q 105.914476 78.479864 103.994584 78.411538 
Q 102.074692 78.343834 100.027865 78.343834 
Q 95.402671 78.343834 92.701335 78.748819 
Q 90 79.153804 90 79.846379 
Q 90 80.547029 92.748936 80.948909 
Q 95.501839 81.350789 100.289668 81.350789 
Q 102.134193 81.350789 103.824015 81.296128 
Q 105.517804 81.242089 107.017224 81.135252 
L 107.017224 80.535848 
Q 105.470203 80.673121 103.93905 80.740826 
Q 102.407896 80.809152 100.868809 80.809152 
Q 98.020705 80.809152 96.477652 80.559452 
Q 94.934598 80.310373 94.934598 79.846379 
Q 94.934598 79.386733 96.422118 79.135791 
Q 97.909637 78.885471 100.646673 78.885471 
Q 101.392416 78.885471 102.031058 78.899757 
Q 102.6697 78.914664 103.17744 78.945721 
L 103.17744 79.508477 
L 100.261901 79.508477 
L 100.261901 80.00974 
L 107.699499 80.00974 
L 107.699499 78.615894 
z
" clip-path="url(#p71c308b042)" style="fill: #ffa600"/>
   </g>
   <g id="patch_24">
    <path d="M 144.961603 78.495285 
Q 143.176579 78.419559 141.256687 78.381524 
Q 139.336795 78.343834 137.289969 78.343834 
Q 132.664774 78.343834 129.963439 78.569283 
Q 127.262104 78.794731 127.262104 79.180277 
Q 127.262104 79.570318 130.01104 79.794038 
Q 132.763942 80.017758 137.551772 80.017758 
Q 139.396296 80.017758 141.086118 79.987329 
Q 142.779907 79.957246 144.279327 79.897772 
L 144.279327 79.564093 
Q 142.732307 79.640511 141.201153 79.678201 
Q 139.67 79.716237 138.130913 79.716237 
Q 135.282809 79.716237 133.739755 79.577233 
Q 132.196702 79.438575 132.196702 79.180277 
Q 132.196702 78.924399 133.684221 78.784704 
Q 135.171741 78.645354 137.908777 78.645354 
Q 138.65452 78.645354 139.293162 78.653307 
Q 139.931803 78.661606 140.439543 78.678895 
L 140.439543 78.992172 
L 137.524005 78.992172 
L 137.524005 79.271217 
L 144.961603 79.271217 
L 144.961603 78.495285 
z
" clip-path="url(#p71c308b042)" style="fill: #ffa600"/>
   </g>
   <g id="patch_25">
    <path d="M 163.592654 78.356563 
Q 162.112122 78.350253 160.511185 78.347062 
Q 158.910247 78.343834 157.166608 78.343834 
Q 151.966906 78.343834 148.930031 78.367752 
Q 145.893155 78.391671 145.893155 78.432575 
Q 145.893155 78.473625 148.930031 78.497507 
Q 151.966906 78.521426 157.166608 78.521426 
Q 158.910247 78.521426 160.511185 78.518198 
Q 162.112122 78.515006 163.592654 78.508696 
L 163.592654 78.473295 
Q 162.098744 78.48166 160.649427 78.485548 
Q 159.200111 78.489437 157.599173 78.489437 
Q 154.727297 78.489437 153.081765 78.474286 
Q 151.440693 78.459172 151.440693 78.432575 
Q 151.440693 78.406088 153.081765 78.390937 
Q 154.727297 78.375823 157.599173 78.375823 
Q 159.200111 78.375823 160.649427 78.379712 
Q 162.098744 78.383637 163.592654 78.392001 
L 163.592654 78.356563 
z
" clip-path="url(#p71c308b042)" style="fill: #0000ff"/>
   </g>
   <g id="patch_26">
    <path d="M 182.223706 78.489472 
Q 180.743174 78.417282 179.142236 78.380768 
Q 177.541299 78.343834 175.79766 78.343834 
Q 170.597958 78.343834 167.561083 78.617482 
Q 164.524207 78.891131 164.524207 79.359105 
Q 164.524207 79.828757 167.561083 80.101986 
Q 170.597958 80.375635 175.79766 80.375635 
Q 177.541299 80.375635 179.142236 80.338701 
Q 180.743174 80.302186 182.223706 80.229997 
L 182.223706 79.82498 
Q 180.729795 79.920673 179.280479 79.965162 
Q 177.831162 80.009651 176.230225 80.009651 
Q 173.358349 80.009651 171.712817 79.836312 
Q 170.071745 79.663392 170.071745 79.359105 
Q 170.071745 79.056076 171.712817 78.882737 
Q 173.358349 78.709818 176.230225 78.709818 
Q 177.831162 78.709818 179.280479 78.754307 
Q 180.729795 78.799216 182.223706 78.894909 
L 182.223706 78.489472 
z
" clip-path="url(#p71c308b042)" style="fill: #0000ff"/>
   </g>
   <g id="patch_27">
    <path d="M 200.854758 80.976846 
Q 199.069734 79.66034 197.149843 78.999081 
Q 195.229951 78.343834 193.183124 78.343834 
Q 188.55793 78.343834 185.856594 82.263295 
Q 183.155259 86.182756 183.155259 92.885515 
Q 183.155259 99.666424 185.904195 103.555828 
Q 188.657098 107.445232 193.444927 107.445232 
Q 195.289451 107.445232 196.979274 106.916225 
Q 198.673063 106.393229 200.172482 105.359261 
L 200.172482 99.558218 
Q 198.625462 100.886747 197.094309 101.541994 
Q 195.563155 102.203253 194.024068 102.203253 
Q 191.175964 102.203253 189.632911 99.786653 
Q 188.089857 97.376064 188.089857 92.885515 
Q 188.089857 88.437047 189.577376 86.008424 
Q 191.064896 83.585812 193.801932 83.585812 
Q 194.547675 83.585812 195.186317 83.724075 
Q 195.824959 83.86835 196.332699 84.168922 
L 196.332699 89.61529 
L 193.41716 89.61529 
L 193.41716 94.466525 
L 200.854758 94.466525 
L 200.854758 80.976846 
z
" clip-path="url(#p71c308b042)" style="fill: #ffa600"/>
   </g>
   <g id="patch_28">
    <path d="M 219.48581 78.919721 
Q 217.700786 78.631777 215.780894 78.487148 
Q 213.861002 78.343834 211.814176 78.343834 
Q 207.188981 78.343834 204.487646 79.20109 
Q 201.786311 80.058347 201.786311 81.524361 
Q 201.786311 83.007467 204.535247 83.85815 
Q 207.288149 84.708832 212.075979 84.708832 
Q 213.920503 84.708832 215.610325 84.593129 
Q 217.304114 84.47874 218.803534 84.252593 
L 218.803534 82.983801 
Q 217.256514 83.274374 215.72536 83.417688 
Q 214.194207 83.562317 212.65512 83.562317 
Q 209.807016 83.562317 208.263962 83.033763 
Q 206.720909 82.506524 206.720909 81.524361 
Q 206.720909 80.551401 208.208428 80.020217 
Q 209.695948 79.490348 212.432984 79.490348 
Q 213.178727 79.490348 213.817369 79.520589 
Q 214.45601 79.552145 214.96375 79.617885 
L 214.96375 80.809104 
L 212.048212 80.809104 
L 212.048212 81.870156 
L 219.48581 81.870156 
L 219.48581 78.919721 
z
" clip-path="url(#p71c308b042)" style="fill: #ffa600"/>
   </g>
   <g id="patch_29">
    <path d="M 238.116861 84.00444 
Q 236.636329 81.198606 235.035392 79.779376 
Q 233.434454 78.343834 231.690815 78.343834 
Q 226.491113 78.343834 223.454238 88.979902 
Q 220.417362 99.61597 220.417362 117.804952 
Q 220.417362 136.059185 223.454238 146.67894 
Q 226.491113 157.315009 231.690815 157.315009 
Q 233.434454 157.315009 235.035392 155.879466 
Q 236.636329 154.460236 238.116861 151.654402 
L 238.116861 135.912368 
Q 236.622951 139.63173 235.173634 141.360906 
Q 233.724318 143.090083 232.12338 143.090083 
Q 229.251504 143.090083 227.605972 136.352819 
Q 225.9649 129.631868 225.9649 117.804952 
Q 225.9649 106.026974 227.605972 99.28971 
Q 229.251504 92.568759 232.12338 92.568759 
Q 233.724318 92.568759 235.173634 94.297936 
Q 236.622951 96.043426 238.116861 99.762787 
L 238.116861 84.00444 
z
" clip-path="url(#p71c308b042)" style="fill: #0000ff"/>
   </g>
   <g id="patch_30">
    <path d="M 251.308873 87.682888 
L 244.50193 87.682888 
L 243.427149 85.366706 
L 239.048414 85.366706 
L 245.301682 98.081182 
L 250.494645 98.081182 
L 256.747913 85.366706 
L 252.372797 85.366706 
L 251.308873 87.682888 
z
M 245.587567 90.042668 
L 250.212379 90.042668 
L 247.903592 95.10012 
L 245.587567 90.042668 
z
" clip-path="url(#p71c308b042)" style="fill: #008000"/>
   </g>
   <g id="patch_31">
    <path d="M 256.747913 81.517335 
Q 255.267381 81.370007 253.666443 81.295486 
Q 252.065506 81.220109 250.321867 81.220109 
Q 245.122165 81.220109 242.08529 81.778585 
Q 239.048414 82.337061 239.048414 83.292123 
Q 239.048414 84.250611 242.08529 84.80823 
Q 245.122165 85.366706 250.321867 85.366706 
Q 252.065506 85.366706 253.666443 85.291329 
Q 255.267381 85.216808 256.747913 85.06948 
L 256.747913 84.242902 
Q 255.254002 84.438197 253.804686 84.528992 
Q 252.355369 84.619788 250.754432 84.619788 
Q 247.882556 84.619788 246.237024 84.266029 
Q 244.595952 83.913127 244.595952 83.292123 
Q 244.595952 82.673688 246.237024 82.31993 
Q 247.882556 81.967028 250.754432 81.967028 
Q 252.355369 81.967028 253.804686 82.057823 
Q 255.254002 82.149475 256.747913 82.34477 
L 256.747913 81.517335 
z
" clip-path="url(#p71c308b042)" style="fill: #0000ff"/>
   </g>
   <g id="patch_32">
    <path d="M 239.048414 81.220109 
L 256.747913 81.220109 
L 256.747913 80.659155 
L 250.38021 80.659155 
L 250.38021 78.343834 
L 245.428466 78.343834 
L 245.428466 80.659155 
L 239.048414 80.659155 
L 239.048414 81.220109 
z
" clip-path="url(#p71c308b042)" style="fill: #ff0000"/>
   </g>
   <g id="patch_33">
    <path d="M 275.378965 87.646767 
Q 273.898432 84.927099 272.297495 83.551453 
Q 270.696558 82.159996 268.952919 82.159996 
Q 263.753217 82.159996 260.716341 92.469433 
Q 257.679466 102.77887 257.679466 120.409273 
Q 257.679466 138.102924 260.716341 148.396549 
Q 263.753217 158.705987 268.952919 158.705987 
Q 270.696558 158.705987 272.297495 157.314529 
Q 273.898432 155.938883 275.378965 153.219216 
L 275.378965 137.960616 
Q 273.885054 141.565757 272.435738 143.241831 
Q 270.986421 144.917905 269.385484 144.917905 
Q 266.513607 144.917905 264.868076 138.38754 
Q 263.227003 131.872988 263.227003 120.409273 
Q 263.227003 108.992994 264.868076 102.46263 
Q 266.513607 95.948078 269.385484 95.948078 
Q 270.986421 95.948078 272.435738 97.624152 
Q 273.885054 99.316038 275.378965 102.921179 
L 275.378965 87.646767 
z
" clip-path="url(#p71c308b042)" style="fill: #0000ff"/>
   </g>
   <g id="patch_34">
    <path d="M 275.378965 78.689109 
Q 273.593941 78.516471 271.67405 78.429758 
Q 269.754158 78.343834 267.707331 78.343834 
Q 263.082137 78.343834 260.380801 78.857805 
Q 257.679466 79.371777 257.679466 80.250732 
Q 257.679466 81.139935 260.428402 81.649965 
Q 263.181305 82.159996 267.969134 82.159996 
Q 269.813659 82.159996 271.503481 82.090625 
Q 273.19727 82.022043 274.696689 81.886455 
L 274.696689 81.125746 
Q 273.149669 81.29996 271.618516 81.385885 
Q 270.087362 81.472598 268.548275 81.472598 
Q 265.700171 81.472598 264.157118 81.155701 
Q 262.614064 80.839593 262.614064 80.250732 
Q 262.614064 79.66739 264.101583 79.348917 
Q 265.589103 79.031231 268.326139 79.031231 
Q 269.071882 79.031231 269.710524 79.049362 
Q 270.349166 79.068282 270.856906 79.107697 
L 270.856906 79.821897 
L 267.941367 79.821897 
L 267.941367 80.458055 
L 275.378965 80.458055 
L 275.378965 78.689109 
z
" clip-path="url(#p71c308b042)" style="fill: #ffa600"/>
   </g>
   <g id="patch_35">
    <path d="M 294.010017 78.93832 
Q 292.224993 78.641077 290.305101 78.491777 
Q 288.385209 78.343834 286.338383 78.343834 
Q 281.713188 78.343834 279.011853 79.228777 
Q 276.310518 80.113721 276.310518 81.627083 
Q 276.310518 83.15809 279.059454 84.036247 
Q 281.812356 84.914405 286.600186 84.914405 
Q 288.44471 84.914405 290.134532 84.794964 
Q 291.828321 84.676881 293.327741 84.44343 
L 293.327741 83.133659 
Q 291.780721 83.433617 290.249567 83.58156 
Q 288.718414 83.73086 287.179327 83.73086 
Q 284.331223 83.73086 282.788169 83.185235 
Q 281.245116 82.640968 281.245116 81.627083 
Q 281.245116 80.622699 282.732635 80.07436 
Q 284.220155 79.527378 286.957191 79.527378 
Q 287.702934 79.527378 288.341576 79.558595 
Q 288.980217 79.59117 289.487957 79.659034 
L 289.487957 80.888725 
L 286.572419 80.888725 
L 286.572419 81.984047 
L 294.010017 81.984047 
L 294.010017 78.93832 
z
" clip-path="url(#p71c308b042)" style="fill: #ffa600"/>
   </g>
   <g id="patch_36">
    <path d="M 276.310518 122.638943 
L 294.010017 122.638943 
L 294.010017 115.281607 
L 287.642313 115.281607 
L 287.642313 84.914405 
L 282.69057 84.914405 
L 282.69057 115.281607 
L 276.310518 115.281607 
L 276.310518 122.638943 
z
" clip-path="url(#p71c308b042)" style="fill: #ff0000"/>
   </g>
   <g id="patch_37">
    <path d="M 312.641068 86.904584 
Q 310.856045 82.624209 308.936153 80.474249 
Q 307.016261 78.343834 304.969434 78.343834 
Q 300.34424 78.343834 297.642905 91.087234 
Q 294.941569 103.830635 294.941569 125.623414 
Q 294.941569 147.670279 297.690505 160.315954 
Q 300.443408 172.961629 305.231238 172.961629 
Q 307.075762 172.961629 308.765584 171.241661 
Q 310.459373 169.541238 311.958793 166.179482 
L 311.958793 147.318467 
Q 310.411772 151.637933 308.880619 153.768348 
Q 307.349466 155.918308 305.810379 155.918308 
Q 302.962275 155.918308 301.419221 148.061181 
Q 299.876167 140.223598 299.876167 125.623414 
Q 299.876167 111.160045 301.363687 103.263827 
Q 302.851207 95.387155 305.588242 95.387155 
Q 306.333986 95.387155 306.972627 95.836692 
Q 307.611269 96.305774 308.119009 97.283029 
L 308.119009 114.990883 
L 305.203471 114.990883 
L 305.203471 130.763773 
L 312.641068 130.763773 
L 312.641068 86.904584 
z
" clip-path="url(#p71c308b042)" style="fill: #ffa600"/>
   </g>
   <g id="patch_38">
    <path d="M 325.83308 83.551507 
L 319.026137 83.551507 
L 317.951356 81.904443 
L 313.572621 81.904443 
L 319.825889 90.945854 
L 325.018852 90.945854 
L 331.27212 81.904443 
L 326.897004 81.904443 
L 325.83308 83.551507 
z
M 320.111774 85.229574 
L 324.736586 85.229574 
L 322.427799 88.825986 
L 320.111774 85.229574 
z
" clip-path="url(#p71c308b042)" style="fill: #008000"/>
   </g>
   <g id="patch_39">
    <path d="M 313.572621 81.904443 
L 331.27212 81.904443 
L 331.27212 81.210025 
L 324.904417 81.210025 
L 324.904417 78.343834 
L 319.952673 78.343834 
L 319.952673 81.210025 
L 313.572621 81.210025 
L 313.572621 81.904443 
z
" clip-path="url(#p71c308b042)" style="fill: #ff0000"/>
   </g>
   <g id="patch_40">
    <path d="M 344.464131 92.041187 
L 337.657188 92.041187 
L 336.582408 89.220634 
L 332.203673 89.220634 
L 338.456941 104.703809 
L 343.649904 104.703809 
L 349.903172 89.220634 
L 345.528056 89.220634 
L 344.464131 92.041187 
z
M 338.742825 94.914832 
L 343.367638 94.914832 
L 341.058851 101.073592 
L 338.742825 94.914832 
z
" clip-path="url(#p71c308b042)" style="fill: #008000"/>
   </g>
   <g id="patch_41">
    <path d="M 349.903172 79.327936 
Q 348.118149 78.835885 346.198257 78.588736 
Q 344.278365 78.343834 342.231538 78.343834 
Q 337.606344 78.343834 334.905008 79.808753 
Q 332.203673 81.273672 332.203673 83.778864 
Q 332.203673 86.313264 334.952609 87.766949 
Q 337.705512 89.220634 342.493341 89.220634 
Q 344.337866 89.220634 346.027688 89.022915 
Q 347.721477 88.827443 349.220896 88.440992 
L 349.220896 86.272821 
Q 347.673876 86.769366 346.142723 87.014268 
Q 344.611569 87.261417 343.072482 87.261417 
Q 340.224378 87.261417 338.681325 86.3582 
Q 337.138271 85.45723 337.138271 83.778864 
Q 337.138271 82.116225 338.62579 81.208515 
Q 340.11331 80.303051 342.850346 80.303051 
Q 343.596089 80.303051 344.234731 80.354727 
Q 344.873373 80.408651 345.381113 80.520991 
L 345.381113 82.5566 
L 342.465574 82.5566 
L 342.465574 84.369774 
L 349.903172 84.369774 
L 349.903172 79.327936 
z
" clip-path="url(#p71c308b042)" style="fill: #ffa600"/>
   </g>
   <g id="patch_42">
    <path d="M 368.534224 81.54768 
Q 367.053691 79.959606 365.452754 79.156336 
Q 363.851817 78.343834 362.108177 78.343834 
Q 356.908476 78.343834 353.8716 84.363742 
Q 350.834725 90.38365 350.834725 100.678432 
Q 350.834725 111.010145 353.8716 117.020821 
Q 356.908476 123.040729 362.108177 123.040729 
Q 363.851817 123.040729 365.452754 122.228226 
Q 367.053691 121.424956 368.534224 119.836882 
L 368.534224 110.927049 
Q 367.040313 113.03217 365.590996 114.010867 
Q 364.14168 114.989563 362.540743 114.989563 
Q 359.668866 114.989563 358.023334 111.176339 
Q 356.382262 107.372348 356.382262 100.678432 
Q 356.382262 94.012214 358.023334 90.19899 
Q 359.668866 86.394999 362.540743 86.394999 
Q 364.14168 86.394999 365.590996 87.373696 
Q 367.040313 88.361626 368.534224 90.466747 
L 368.534224 81.54768 
z
" clip-path="url(#p71c308b042)" style="fill: #0000ff"/>
   </g>
   <g id="patch_43">
    <path d="M 369.465776 108.402906 
L 387.165275 108.402906 
L 387.165275 102.54055 
L 380.797572 102.54055 
L 380.797572 78.343834 
L 375.845828 78.343834 
L 375.845828 102.54055 
L 369.465776 102.54055 
L 369.465776 108.402906 
z
" clip-path="url(#p71c308b042)" style="fill: #ff0000"/>
   </g>
   <g id="patch_44">
    <path d="M 405.796327 83.777546 
Q 404.315795 83.535619 402.714857 83.41325 
Q 401.11392 83.289473 399.370281 83.289473 
Q 394.170579 83.289473 391.133704 84.206544 
Q 388.096828 85.123615 388.096828 86.691919 
Q 388.096828 88.265849 391.133704 89.181514 
Q 394.170579 90.098585 399.370281 90.098585 
Q 401.11392 90.098585 402.714857 89.974808 
Q 404.315795 89.852438 405.796327 89.610512 
L 405.796327 88.25319 
Q 404.302416 88.573884 402.8531 88.722978 
Q 401.403783 88.872073 399.802846 88.872073 
Q 396.93097 88.872073 395.285438 88.291167 
Q 393.644366 87.711668 393.644366 86.691919 
Q 393.644366 85.67639 395.285438 85.095484 
Q 396.93097 84.515985 399.802846 84.515985 
Q 401.403783 84.515985 402.8531 84.66508 
Q 404.302416 84.815581 405.796327 85.136274 
L 405.796327 83.777546 
z
" clip-path="url(#p71c308b042)" style="fill: #0000ff"/>
   </g>
   <g id="patch_45">
    <path d="M 405.796327 95.171884 
Q 404.011304 92.635235 402.091412 91.361118 
Q 400.17152 90.098585 398.124693 90.098585 
Q 393.499499 90.098585 390.798164 97.65062 
Q 388.096828 105.202654 388.096828 118.11756 
Q 388.096828 131.183044 390.845764 138.677164 
Q 393.598667 146.171285 398.386497 146.171285 
Q 400.231021 146.171285 401.920843 145.151992 
Q 403.614632 144.144282 405.114052 142.152027 
L 405.114052 130.974552 
Q 403.567031 133.534368 402.035878 134.796901 
Q 400.504724 136.071017 398.965637 136.071017 
Q 396.117533 136.071017 394.57448 131.414701 
Q 393.031426 126.769968 393.031426 118.11756 
Q 393.031426 109.546233 394.518946 104.866751 
Q 396.006465 100.198852 398.743501 100.198852 
Q 399.489244 100.198852 400.127886 100.465258 
Q 400.766528 100.743247 401.274268 101.322391 
L 401.274268 111.816476 
L 398.35873 111.816476 
L 398.35873 121.163857 
L 405.796327 121.163857 
L 405.796327 95.171884 
z
" clip-path="url(#p71c308b042)" style="fill: #ffa600"/>
   </g>
   <g id="patch_46">
    <path d="M 388.096828 83.289473 
L 405.796327 83.289473 
L 405.796327 82.324936 
L 399.428624 82.324936 
L 399.428624 78.343834 
L 394.47688 78.343834 
L 394.47688 82.324936 
L 388.096828 82.324936 
L 388.096828 83.289473 
z
" clip-path="url(#p71c308b042)" style="fill: #ff0000"/>
   </g>
   <g id="patch_47">
    <path d="M 418.988338 79.451438 
L 412.181395 79.451438 
L 411.106615 78.343834 
L 406.72788 78.343834 
L 412.981148 84.423929 
L 418.174111 84.423929 
L 424.427379 78.343834 
L 420.052263 78.343834 
L 418.988338 79.451438 
z
M 413.267032 80.579891 
L 417.891845 80.579891 
L 415.583058 82.998377 
L 413.267032 80.579891 
z
" clip-path="url(#p71c308b042)" style="fill: #008000"/>
   </g>
   <g id="patch_48">
    <path d="M 424.427379 92.029723 
Q 422.642356 88.226826 420.722464 86.316695 
Q 418.802572 84.423929 416.755745 84.423929 
Q 412.130551 84.423929 409.429215 95.745795 
Q 406.72788 107.067662 406.72788 126.429442 
Q 406.72788 146.016965 409.476816 157.252007 
Q 412.229719 168.48705 417.017548 168.48705 
Q 418.862073 168.48705 420.551895 166.958945 
Q 422.245684 165.448205 423.745103 162.461455 
L 423.745103 145.704398 
Q 422.198083 149.542025 420.66693 151.434791 
Q 419.135776 153.344922 417.596689 153.344922 
Q 414.748585 153.344922 413.205532 146.364262 
Q 411.662478 139.400967 411.662478 126.429442 
Q 411.662478 113.579471 413.149997 106.564082 
Q 414.637517 99.566057 417.374553 99.566057 
Q 418.120296 99.566057 418.758938 99.965448 
Q 419.39758 100.382204 419.90532 101.250445 
L 419.90532 116.982977 
L 416.989781 116.982977 
L 416.989781 130.996391 
L 424.427379 130.996391 
L 424.427379 92.029723 
z
" clip-path="url(#p71c308b042)" style="fill: #ffa600"/>
   </g>
   <g id="patch_49">
    <path d="M 443.058431 79.66233 
Q 441.577898 79.008781 439.976961 78.678207 
Q 438.376024 78.343834 436.632384 78.343834 
Q 431.432683 78.343834 428.395807 80.821239 
Q 425.358932 83.298644 425.358932 87.535312 
Q 425.358932 91.787178 428.395807 94.260784 
Q 431.432683 96.738189 436.632384 96.738189 
Q 438.376024 96.738189 439.976961 96.403815 
Q 441.577898 96.073241 443.058431 95.419693 
L 443.058431 91.752981 
Q 441.56452 92.619312 440.115203 93.022081 
Q 438.665887 93.424849 437.06495 93.424849 
Q 434.193073 93.424849 432.547541 91.855572 
Q 430.906469 90.290095 430.906469 87.535312 
Q 430.906469 84.791927 432.547541 83.22265 
Q 434.193073 81.657173 437.06495 81.657173 
Q 438.665887 81.657173 440.115203 82.059942 
Q 441.56452 82.46651 443.058431 83.332842 
L 443.058431 79.66233 
z
" clip-path="url(#p71c308b042)" style="fill: #0000ff"/>
   </g>
   <g id="patch_50">
    <path d="M 425.358932 129.929715 
L 443.058431 129.929715 
L 443.058431 123.456443 
L 436.690727 123.456443 
L 436.690727 96.738189 
L 431.738984 96.738189 
L 431.738984 123.456443 
L 425.358932 123.456443 
L 425.358932 129.929715 
z
" clip-path="url(#p71c308b042)" style="fill: #ff0000"/>
   </g>
   <g id="patch_51">
    <path d="M 461.689482 87.461408 
Q 459.904459 82.902621 457.984567 80.612819 
Q 456.064675 78.343834 454.017848 78.343834 
Q 449.392654 78.343834 446.691319 91.916113 
Q 443.989983 105.488392 443.989983 128.698655 
Q 443.989983 152.179532 446.738919 165.647729 
Q 449.491822 179.115927 454.279652 179.115927 
Q 456.124176 179.115927 457.813998 177.284085 
Q 459.507787 175.47306 461.007207 171.892643 
L 461.007207 151.804837 
Q 459.460187 156.405257 457.929033 158.674242 
Q 456.39788 160.964044 454.858793 160.964044 
Q 452.010689 160.964044 450.467635 152.595859 
Q 448.924581 144.248491 448.924581 128.698655 
Q 448.924581 113.294535 450.412101 104.884717 
Q 451.899621 96.495716 454.636656 96.495716 
Q 455.3824 96.495716 456.021041 96.974493 
Q 456.659683 97.474086 457.167423 98.514905 
L 457.167423 117.374545 
L 454.251885 117.374545 
L 454.251885 134.173363 
L 461.689482 134.173363 
L 461.689482 87.461408 
z
" clip-path="url(#p71c308b042)" style="fill: #ffa600"/>
   </g>
   <g id="patch_52">
    <path d="M 480.320534 86.687601 
Q 478.840002 82.551786 477.239064 80.459832 
Q 475.638127 78.343834 473.894488 78.343834 
Q 468.694786 78.343834 465.657911 94.02146 
Q 462.621035 109.699087 462.621035 136.509753 
Q 462.621035 163.4166 465.657911 179.070182 
Q 468.694786 194.747809 473.894488 194.747809 
Q 475.638127 194.747809 477.239064 192.63181 
Q 478.840002 190.539857 480.320534 186.404041 
L 480.320534 163.200191 
Q 478.826623 168.682552 477.377307 171.231368 
Q 475.92799 173.780185 474.327053 173.780185 
Q 471.455177 173.780185 469.809645 163.849418 
Q 468.168573 153.942697 468.168573 136.509753 
Q 468.168573 119.148945 469.809645 109.218178 
Q 471.455177 99.311457 474.327053 99.311457 
Q 475.92799 99.311457 477.377307 101.860274 
Q 478.826623 104.433136 480.320534 109.915496 
L 480.320534 86.687601 
z
" clip-path="url(#p71c308b042)" style="fill: #0000ff"/>
   </g>
   <g id="patch_53">
    <path d="M 493.512545 80.839016 
L 486.705603 80.839016 
L 485.630822 78.343834 
L 481.252087 78.343834 
L 487.505355 92.040916 
L 492.698318 92.040916 
L 498.951586 78.343834 
L 494.57647 78.343834 
L 493.512545 80.839016 
z
M 487.791239 83.381166 
L 492.416052 83.381166 
L 490.107265 88.82947 
L 487.791239 83.381166 
z
" clip-path="url(#p71c308b042)" style="fill: #008000"/>
   </g>
   <g id="patch_54">
    <path d="M 517.582638 84.830829 
Q 515.797614 81.587331 513.877722 79.958177 
Q 511.957831 78.343834 509.911004 78.343834 
Q 505.28581 78.343834 502.584474 88.000274 
Q 499.883139 97.656715 499.883139 114.170414 
Q 499.883139 130.876649 502.632075 140.459037 
Q 505.384978 150.041426 510.172807 150.041426 
Q 512.017331 150.041426 513.707153 148.738103 
Q 515.400942 147.44959 516.900362 144.902185 
L 516.900362 130.61006 
Q 515.353342 133.883179 513.822188 135.497523 
Q 512.291035 137.126677 510.751948 137.126677 
Q 507.903844 137.126677 506.36079 131.172859 
Q 504.817737 125.233852 504.817737 114.170414 
Q 504.817737 103.21065 506.305256 97.227211 
Q 507.792776 91.258583 510.529812 91.258583 
Q 511.275555 91.258583 511.914197 91.599224 
Q 512.552838 91.954676 513.060578 92.6952 
L 513.060578 106.113506 
L 510.14504 106.113506 
L 510.14504 118.065573 
L 517.582638 118.065573 
L 517.582638 84.830829 
z
" clip-path="url(#p71c308b042)" style="fill: #ffa600"/>
   </g>
   <g id="patch_55">
    <path d="M 530.774649 78.82064 
L 523.967706 78.82064 
L 522.892926 78.343834 
L 518.51419 78.343834 
L 524.767458 80.961222 
L 529.960421 80.961222 
L 536.213689 78.343834 
L 531.838573 78.343834 
L 530.774649 78.82064 
z
M 525.053343 79.306422 
L 529.678156 79.306422 
L 527.369368 80.347543 
L 525.053343 79.306422 
z
" clip-path="url(#p71c308b042)" style="fill: #008000"/>
   </g>
   <g id="patch_56">
    <path d="M 518.51419 84.720112 
L 536.213689 84.720112 
L 536.213689 83.987024 
L 529.845986 83.987024 
L 529.845986 80.961222 
L 524.894242 80.961222 
L 524.894242 83.987024 
L 518.51419 83.987024 
L 518.51419 84.720112 
z
" clip-path="url(#p71c308b042)" style="fill: #ff0000"/>
   </g>
   <g id="patch_57">
    <path d="M 554.844741 84.856557 
Q 553.059718 81.600195 551.139826 79.96458 
Q 549.219934 78.343834 547.173107 78.343834 
Q 542.547913 78.343834 539.846578 88.038572 
Q 537.145242 97.73331 537.145242 114.312502 
Q 537.145242 131.084995 539.894178 140.705387 
Q 542.647081 150.325779 547.434911 150.325779 
Q 549.279435 150.325779 550.969257 149.017287 
Q 552.663046 147.723664 554.162466 145.166156 
L 554.162466 130.817348 
Q 552.615445 134.103448 551.084292 135.724195 
Q 549.553138 137.35981 548.014052 137.35981 
Q 545.165947 137.35981 543.622894 131.382379 
Q 542.07984 125.419818 542.07984 114.312502 
Q 542.07984 103.309272 543.56736 97.302103 
Q 545.054879 91.309803 547.791915 91.309803 
Q 548.537658 91.309803 549.1763 91.651795 
Q 549.814942 92.008656 550.322682 92.752118 
L 550.322682 106.223641 
L 547.407144 106.223641 
L 547.407144 118.22311 
L 554.844741 118.22311 
L 554.844741 84.856557 
z
" clip-path="url(#p71c308b042)" style="fill: #ffa600"/>
   </g>
   <g id="patch_58">
    <path d="M 568.036752 78.427193 
L 561.22981 78.427193 
L 560.155029 78.343834 
L 555.776294 78.343834 
L 562.029562 78.801429 
L 567.222525 78.801429 
L 573.475793 78.343834 
L 569.100677 78.343834 
L 568.036752 78.427193 
z
M 562.315446 78.512122 
L 566.940259 78.512122 
L 564.631472 78.69414 
L 562.315446 78.512122 
z
" clip-path="url(#p71c308b042)" style="fill: #008000"/>
   </g>
   <g id="patch_59">
    <path d="M 592.106845 79.749105 
Q 590.321821 79.046469 588.401929 78.693547 
Q 586.482038 78.343834 584.435211 78.343834 
Q 579.810017 78.343834 577.108681 80.435699 
Q 574.407346 82.527564 574.407346 86.10491 
Q 574.407346 89.723965 577.156282 91.799788 
Q 579.909185 93.875611 584.697014 93.875611 
Q 586.541538 93.875611 588.23136 93.593273 
Q 589.925149 93.314144 591.424569 92.762303 
L 591.424569 89.666214 
Q 589.877549 90.375266 588.346395 90.72498 
Q 586.815242 91.077902 585.276155 91.077902 
Q 582.428051 91.077902 580.884997 89.788132 
Q 579.341944 88.501571 579.341944 86.10491 
Q 579.341944 83.730707 580.829463 82.434521 
Q 582.316983 81.141543 585.054019 81.141543 
Q 585.799762 81.141543 586.438404 81.215335 
Q 587.077045 81.292337 587.584785 81.452756 
L 587.584785 84.35955 
L 584.669247 84.35955 
L 584.669247 86.948714 
L 592.106845 86.948714 
L 592.106845 79.749105 
z
" clip-path="url(#p71c308b042)" style="fill: #ffa600"/>
   </g>
   <g id="patch_60">
    <path d="M 605.298856 84.883187 
L 598.491913 84.883187 
L 597.417133 78.343834 
L 593.038397 78.343834 
L 599.291665 114.24104 
L 604.484628 114.24104 
L 610.737896 78.343834 
L 606.36278 78.343834 
L 605.298856 84.883187 
z
M 599.57755 91.545635 
L 604.202363 91.545635 
L 601.893575 105.824507 
L 599.57755 91.545635 
z
" clip-path="url(#p71c308b042)" style="fill: #008000"/>
   </g>
   <g id="patch_61">
    <path d="M 623.929908 78.806144 
L 617.122965 78.806144 
L 616.048184 78.343834 
L 611.669449 78.343834 
L 617.922717 80.881647 
L 623.11568 80.881647 
L 629.368948 78.343834 
L 624.993832 78.343834 
L 623.929908 78.806144 
z
M 618.208602 79.277157 
L 622.833415 79.277157 
L 620.524627 80.286626 
L 618.208602 79.277157 
z
" clip-path="url(#p71c308b042)" style="fill: #008000"/>
   </g>
   <g id="patch_62">
    <path d="M 629.368948 86.056088 
Q 627.888416 83.491236 626.287478 82.193897 
Q 624.686541 80.881647 622.942902 80.881647 
Q 617.7432 80.881647 614.706325 90.604228 
Q 611.669449 100.32681 611.669449 116.953617 
Q 611.669449 133.640072 614.706325 143.347741 
Q 617.7432 153.070323 622.942902 153.070323 
Q 624.686541 153.070323 626.287478 151.758072 
Q 627.888416 150.460734 629.368948 147.895881 
L 629.368948 133.505864 
Q 627.875037 136.905786 626.425721 138.486451 
Q 624.976404 140.067116 623.375467 140.067116 
Q 620.503591 140.067116 618.858059 133.908487 
Q 617.216987 127.76477 617.216987 116.953617 
Q 617.216987 106.1872 618.858059 100.028571 
Q 620.503591 93.884854 623.375467 93.884854 
Q 624.976404 93.884854 626.425721 95.465519 
Q 627.875037 97.061096 629.368948 100.461017 
L 629.368948 86.056088 
z
" clip-path="url(#p71c308b042)" style="fill: #0000ff"/>
   </g>
   <g id="patch_63">
    <path d="M 630.300501 164.009282 
L 648 164.009282 
L 648 147.302133 
L 641.632296 147.302133 
L 641.632296 78.343834 
L 636.680553 78.343834 
L 636.680553 147.302133 
L 630.300501 147.302133 
L 630.300501 164.009282 
z
" clip-path="url(#p71c308b042)" style="fill: #ff0000"/>
   </g>
   <g id="matplotlib.axis_1">
    <g id="xtick_1">
     <g id="line2d_2">
      <defs>
       <path id="m6df280235e" d="M 0 0 
L 0 3.5 
" style="stroke: #000000; stroke-width: 0.8"/>
      </defs>
      <g>
       <use xlink:href="#m6df280235e" x="98.84975" y="192.24" style="stroke: #000000; stroke-width: 0.8"/>
      </g>
     </g>
     <g id="text_1">
      <!-- 0 -->
      <g transform="translate(95.6685 206.838437) scale(0.1 -0.1)">
       <defs>
        <path id="DejaVuSans-30" d="M 2034 4250 
Q 1547 4250 1301 3770 
Q 1056 3291 1056 2328 
Q 1056 1369 1301 889 
Q 1547 409 2034 409 
Q 2525 409 2770 889 
Q 3016 1369 3016 2328 
Q 3016 3291 2770 3770 
Q 2525 4250 2034 4250 
z
M 2034 4750 
Q 2819 4750 3233 4129 
Q 3647 3509 3647 2328 
Q 3647 1150 3233 529 
Q 2819 -91 2034 -91 
Q 1250 -91 836 529 
Q 422 1150 422 2328 
Q 422 3509 836 4129 
Q 1250 4750 2034 4750 
z
" transform="scale(0.015625)"/>
       </defs>
       <use xlink:href="#DejaVuSans-30"/>
      </g>
     </g>
    </g>
    <g id="xtick_2">
     <g id="line2d_3">
      <g>
       <use xlink:href="#m6df280235e" x="192.005008" y="192.24" style="stroke: #000000; stroke-width: 0.8"/>
      </g>
     </g>
     <g id="text_2">
      <!-- 5 -->
      <g transform="translate(188.823758 206.838437) scale(0.1 -0.1)">
       <defs>
        <path id="DejaVuSans-35" d="M 691 4666 
L 3169 4666 
L 3169 4134 
L 1269 4134 
L 1269 2991 
Q 1406 3038 1543 3061 
Q 1681 3084 1819 3084 
Q 2600 3084 3056 2656 
Q 3513 2228 3513 1497 
Q 3513 744 3044 326 
Q 2575 -91 1722 -91 
Q 1428 -91 1123 -41 
Q 819 9 494 109 
L 494 744 
Q 775 591 1075 516 
Q 1375 441 1709 441 
Q 2250 441 2565 725 
Q 2881 1009 2881 1497 
Q 2881 1984 2565 2268 
Q 2250 2553 1709 2553 
Q 1456 2553 1204 2497 
Q 953 2441 691 2322 
L 691 4666 
z
" transform="scale(0.015625)"/>
       </defs>
       <use xlink:href="#DejaVuSans-35"/>
      </g>
     </g>
    </g>
    <g id="xtick_3">
     <g id="line2d_4">
      <g>
       <use xlink:href="#m6df280235e" x="285.160267" y="192.24" style="stroke: #000000; stroke-width: 0.8"/>
      </g>
     </g>
     <g id="text_3">
      <!-- 10 -->
      <g transform="translate(278.797767 206.838437) scale(0.1 -0.1)">
       <defs>
        <path id="DejaVuSans-31" d="M 794 531 
L 1825 531 
L 1825 4091 
L 703 3866 
L 703 4441 
L 1819 4666 
L 2450 4666 
L 2450 531 
L 3481 531 
L 3481 0 
L 794 0 
L 794 531 
z
" transform="scale(0.015625)"/>
       </defs>
       <use xlink:href="#DejaVuSans-31"/>
       <use xlink:href="#DejaVuSans-30" x="63.623047"/>
      </g>
     </g>
    </g>
    <g id="xtick_4">
     <g id="line2d_5">
      <g>
       <use xlink:href="#m6df280235e" x="378.315526" y="192.24" style="stroke: #000000; stroke-width: 0.8"/>
      </g>
     </g>
     <g id="text_4">
      <!-- 15 -->
      <g transform="translate(371.953026 206.838437) scale(0.1 -0.1)">
       <use xlink:href="#DejaVuSans-31"/>
       <use xlink:href="#DejaVuSans-35" x="63.623047"/>
      </g>
     </g>
    </g>
    <g id="xtick_5">
     <g id="line2d_6">
      <g>
       <use xlink:href="#m6df280235e" x="471.470785" y="192.24" style="stroke: #000000; stroke-width: 0.8"/>
      </g>
     </g>
     <g id="text_5">
      <!-- 20 -->
      <g transform="translate(465.108285 206.838437) scale(0.1 -0.1)">
       <defs>
        <path id="DejaVuSans-32" d="M 1228 531 
L 3431 531 
L 3431 0 
L 469 0 
L 469 531 
Q 828 903 1448 1529 
Q 2069 2156 2228 2338 
Q 2531 2678 2651 2914 
Q 2772 3150 2772 3378 
Q 2772 3750 2511 3984 
Q 2250 4219 1831 4219 
Q 1534 4219 1204 4116 
Q 875 4013 500 3803 
L 500 4441 
Q 881 4594 1212 4672 
Q 1544 4750 1819 4750 
Q 2544 4750 2975 4387 
Q 3406 4025 3406 3419 
Q 3406 3131 3298 2873 
Q 3191 2616 2906 2266 
Q 2828 2175 2409 1742 
Q 1991 1309 1228 531 
z
" transform="scale(0.015625)"/>
       </defs>
       <use xlink:href="#DejaVuSans-32"/>
       <use xlink:href="#DejaVuSans-30" x="63.623047"/>
      </g>
     </g>
    </g>
    <g id="xtick_6">
     <g id="line2d_7">
      <g>
       <use xlink:href="#m6df280235e" x="564.626043" y="192.24" style="stroke: #000000; stroke-width: 0.8"/>
      </g>
     </g>
     <g id="text_6">
      <!-- 25 -->
      <g transform="translate(558.263543 206.838437) scale(0.1 -0.1)">
       <use xlink:href="#DejaVuSans-32"/>
       <use xlink:href="#DejaVuSans-35" x="63.623047"/>
      </g>
     </g>
    </g>
   </g>
   <g id="matplotlib.axis_2">
    <g id="ytick_1">
     <g id="line2d_8">
      <defs>
       <path id="m37694780a9" d="M 0 0 
L -3.5 0 
" style="stroke: #000000; stroke-width: 0.8"/>
      </defs>
      <g>
       <use xlink:href="#m37694780a9" x="90" y="170.146349" style="stroke: #000000; stroke-width: 0.8"/>
      </g>
     </g>
     <g id="text_7">
      <!-- −0.008 -->
      <g transform="translate(45.992188 173.945568) scale(0.1 -0.1)">
       <defs>
        <path id="DejaVuSans-2212" d="M 678 2272 
L 4684 2272 
L 4684 1741 
L 678 1741 
L 678 2272 
z
" transform="scale(0.015625)"/>
        <path id="DejaVuSans-2e" d="M 684 794 
L 1344 794 
L 1344 0 
L 684 0 
L 684 794 
z
" transform="scale(0.015625)"/>
        <path id="DejaVuSans-38" d="M 2034 2216 
Q 1584 2216 1326 1975 
Q 1069 1734 1069 1313 
Q 1069 891 1326 650 
Q 1584 409 2034 409 
Q 2484 409 2743 651 
Q 3003 894 3003 1313 
Q 3003 1734 2745 1975 
Q 2488 2216 2034 2216 
z
M 1403 2484 
Q 997 2584 770 2862 
Q 544 3141 544 3541 
Q 544 4100 942 4425 
Q 1341 4750 2034 4750 
Q 2731 4750 3128 4425 
Q 3525 4100 3525 3541 
Q 3525 3141 3298 2862 
Q 3072 2584 2669 2484 
Q 3125 2378 3379 2068 
Q 3634 1759 3634 1313 
Q 3634 634 3220 271 
Q 2806 -91 2034 -91 
Q 1263 -91 848 271 
Q 434 634 434 1313 
Q 434 1759 690 2068 
Q 947 2378 1403 2484 
z
M 1172 3481 
Q 1172 3119 1398 2916 
Q 1625 2713 2034 2713 
Q 2441 2713 2670 2916 
Q 2900 3119 2900 3481 
Q 2900 3844 2670 4047 
Q 2441 4250 2034 4250 
Q 1625 4250 1398 4047 
Q 1172 3844 1172 3481 
z
" transform="scale(0.015625)"/>
       </defs>
       <use xlink:href="#DejaVuSans-2212"/>
       <use xlink:href="#DejaVuSans-30" x="83.789062"/>
       <use xlink:href="#DejaVuSans-2e" x="147.412109"/>
       <use xlink:href="#DejaVuSans-30" x="179.199219"/>
       <use xlink:href="#DejaVuSans-30" x="242.822266"/>
       <use xlink:href="#DejaVuSans-38" x="306.445312"/>
      </g>
     </g>
    </g>
    <g id="ytick_2">
     <g id="line2d_9">
      <g>
       <use xlink:href="#m37694780a9" x="90" y="147.19572" style="stroke: #000000; stroke-width: 0.8"/>
      </g>
     </g>
     <g id="text_8">
      <!-- −0.006 -->
      <g transform="translate(45.992188 150.994939) scale(0.1 -0.1)">
       <defs>
        <path id="DejaVuSans-36" d="M 2113 2584 
Q 1688 2584 1439 2293 
Q 1191 2003 1191 1497 
Q 1191 994 1439 701 
Q 1688 409 2113 409 
Q 2538 409 2786 701 
Q 3034 994 3034 1497 
Q 3034 2003 2786 2293 
Q 2538 2584 2113 2584 
z
M 3366 4563 
L 3366 3988 
Q 3128 4100 2886 4159 
Q 2644 4219 2406 4219 
Q 1781 4219 1451 3797 
Q 1122 3375 1075 2522 
Q 1259 2794 1537 2939 
Q 1816 3084 2150 3084 
Q 2853 3084 3261 2657 
Q 3669 2231 3669 1497 
Q 3669 778 3244 343 
Q 2819 -91 2113 -91 
Q 1303 -91 875 529 
Q 447 1150 447 2328 
Q 447 3434 972 4092 
Q 1497 4750 2381 4750 
Q 2619 4750 2861 4703 
Q 3103 4656 3366 4563 
z
" transform="scale(0.015625)"/>
       </defs>
       <use xlink:href="#DejaVuSans-2212"/>
       <use xlink:href="#DejaVuSans-30" x="83.789062"/>
       <use xlink:href="#DejaVuSans-2e" x="147.412109"/>
       <use xlink:href="#DejaVuSans-30" x="179.199219"/>
       <use xlink:href="#DejaVuSans-30" x="242.822266"/>
       <use xlink:href="#DejaVuSans-36" x="306.445312"/>
      </g>
     </g>
    </g>
    <g id="ytick_3">
     <g id="line2d_10">
      <g>
       <use xlink:href="#m37694780a9" x="90" y="124.245091" style="stroke: #000000; stroke-width: 0.8"/>
      </g>
     </g>
     <g id="text_9">
      <!-- −0.004 -->
      <g transform="translate(45.992188 128.04431) scale(0.1 -0.1)">
       <defs>
        <path id="DejaVuSans-34" d="M 2419 4116 
L 825 1625 
L 2419 1625 
L 2419 4116 
z
M 2253 4666 
L 3047 4666 
L 3047 1625 
L 3713 1625 
L 3713 1100 
L 3047 1100 
L 3047 0 
L 2419 0 
L 2419 1100 
L 313 1100 
L 313 1709 
L 2253 4666 
z
" transform="scale(0.015625)"/>
       </defs>
       <use xlink:href="#DejaVuSans-2212"/>
       <use xlink:href="#DejaVuSans-30" x="83.789062"/>
       <use xlink:href="#DejaVuSans-2e" x="147.412109"/>
       <use xlink:href="#DejaVuSans-30" x="179.199219"/>
       <use xlink:href="#DejaVuSans-30" x="242.822266"/>
       <use xlink:href="#DejaVuSans-34" x="306.445312"/>
      </g>
     </g>
    </g>
    <g id="ytick_4">
     <g id="line2d_11">
      <g>
       <use xlink:href="#m37694780a9" x="90" y="101.294462" style="stroke: #000000; stroke-width: 0.8"/>
      </g>
     </g>
     <g id="text_10">
      <!-- −0.002 -->
      <g transform="translate(45.992188 105.093681) scale(0.1 -0.1)">
       <use xlink:href="#DejaVuSans-2212"/>
       <use xlink:href="#DejaVuSans-30" x="83.789062"/>
       <use xlink:href="#DejaVuSans-2e" x="147.412109"/>
       <use xlink:href="#DejaVuSans-30" x="179.199219"/>
       <use xlink:href="#DejaVuSans-30" x="242.822266"/>
       <use xlink:href="#DejaVuSans-32" x="306.445312"/>
      </g>
     </g>
    </g>
    <g id="ytick_5">
     <g id="line2d_12">
      <g>
       <use xlink:href="#m37694780a9" x="90" y="78.343834" style="stroke: #000000; stroke-width: 0.8"/>
      </g>
     </g>
     <g id="text_11">
      <!-- 0.000 -->
      <g transform="translate(54.371875 82.143052) scale(0.1 -0.1)">
       <use xlink:href="#DejaVuSans-30"/>
       <use xlink:href="#DejaVuSans-2e" x="63.623047"/>
       <use xlink:href="#DejaVuSans-30" x="95.410156"/>
       <use xlink:href="#DejaVuSans-30" x="159.033203"/>
       <use xlink:href="#DejaVuSans-30" x="222.65625"/>
      </g>
     </g>
    </g>
    <g id="ytick_6">
     <g id="line2d_13">
      <g>
       <use xlink:href="#m37694780a9" x="90" y="55.393205" style="stroke: #000000; stroke-width: 0.8"/>
      </g>
     </g>
     <g id="text_12">
      <!-- 0.002 -->
      <g transform="translate(54.371875 59.192423) scale(0.1 -0.1)">
       <use xlink:href="#DejaVuSans-30"/>
       <use xlink:href="#DejaVuSans-2e" x="63.623047"/>
       <use xlink:href="#DejaVuSans-30" x="95.410156"/>
       <use xlink:href="#DejaVuSans-30" x="159.033203"/>
       <use xlink:href="#DejaVuSans-32" x="222.65625"/>
      </g>
     </g>
    </g>
    <g id="ytick_7">
     <g id="line2d_14">
      <g>
       <use xlink:href="#m37694780a9" x="90" y="32.442576" style="stroke: #000000; stroke-width: 0.8"/>
      </g>
     </g>
     <g id="text_13">
      <!-- 0.004 -->
      <g transform="translate(54.371875 36.241795) scale(0.1 -0.1)">
       <use xlink:href="#DejaVuSans-30"/>
       <use xlink:href="#DejaVuSans-2e" x="63.623047"/>
       <use xlink:href="#DejaVuSans-30" x="95.410156"/>
       <use xlink:href="#DejaVuSans-30" x="159.033203"/>
       <use xlink:href="#DejaVuSans-34" x="222.65625"/>
      </g>
     </g>
    </g>
   </g>
  </g>
 </g>
 <defs>
  <clipPath id="p71c308b042">
   <rect x="90" y="25.92" width="558" height="166.32"/>
  </clipPath>
 </defs>
</svg>
