<?xml version="1.0" encoding="utf-8" standalone="no"?>
<!DOCTYPE svg PUBLIC "-//W3C//DTD SVG 1.1//EN"
  "http://www.w3.org/Graphics/SVG/1.1/DTD/svg11.dtd">
<svg xmlns:xlink="http://www.w3.org/1999/xlink" width="720pt" height="216pt" viewBox="0 0 720 216" xmlns="http://www.w3.org/2000/svg" version="1.1">
 <metadata>
  <rdf:RDF xmlns:dc="http://purl.org/dc/elements/1.1/" xmlns:cc="http://creativecommons.org/ns#" xmlns:rdf="http://www.w3.org/1999/02/22-rdf-syntax-ns#">
   <cc:Work>
    <dc:type rdf:resource="http://purl.org/dc/dcmitype/StillImage"/>
    <dc:date>2024-11-23T04:45:33.070939</dc:date>
    <dc:format>image/svg+xml</dc:format>
    <dc:creator>
     <cc:Agent>
      <dc:title>Matplotlib v3.7.2, https://matplotlib.org/</dc:title>
     </cc:Agent>
    </dc:creator>
   </cc:Work>
  </rdf:RDF>
 </metadata>
 <defs>
  <style type="text/css">*{stroke-linejoin: round; stroke-linecap: butt}</style>
 </defs>
 <g id="figure_1">
  <g id="patch_1">
   <path d="M 0 216 
L 720 216 
L 720 0 
L 0 0 
z
" style="fill: #ffffff"/>
  </g>
  <g id="axes_1">
   <g id="patch_2">
    <path d="M 90 192.24 
L 648 192.24 
L 648 25.92 
L 90 25.92 
z
" style="fill: #ffffff"/>
   </g>
   <g id="line2d_1">
    <path d="M 90 34.102532 
L 648 34.102532 
" clip-path="url(#p8d1b19a038)" style="fill: none; stroke: #000000; stroke-width: 0.5; stroke-linecap: square"/>
   </g>
   <g id="patch_3">
    <path d="M 102.260459 33.974092 
L 95.453516 33.974092 
L 94.378735 34.102532 
L 90 34.102532 
L 96.253268 33.397471 
L 101.446231 33.397471 
L 107.699499 34.102532 
L 103.324383 34.102532 
L 102.260459 33.974092 
z
M 96.539153 33.843234 
L 101.163965 33.843234 
L 98.855178 33.562781 
L 96.539153 33.843234 
z
" clip-path="url(#p8d1b19a038)" style="fill: #008000"/>
   </g>
   <g id="patch_4">
    <path d="M 90 24.246076 
L 107.699499 24.246076 
L 107.699499 26.030853 
L 101.331796 26.030853 
L 101.331796 33.397471 
L 96.380052 33.397471 
L 96.380052 26.030853 
L 90 26.030853 
L 90 24.246076 
z
" clip-path="url(#p8d1b19a038)" style="fill: #ff0000"/>
   </g>
   <g id="patch_5">
    <path d="M 108.631052 19.387179 
L 126.330551 19.387179 
L 126.330551 22.257083 
L 119.962847 22.257083 
L 119.962847 34.102532 
L 115.011104 34.102532 
L 115.011104 22.257083 
L 108.631052 22.257083 
L 108.631052 19.387179 
z
" clip-path="url(#p8d1b19a038)" style="fill: #ff0000"/>
   </g>
   <g id="patch_6">
    <path d="M 127.262104 31.602313 
L 144.961603 31.602313 
L 144.961603 32.089925 
L 138.593899 32.089925 
L 138.593899 34.102532 
L 133.642156 34.102532 
L 133.642156 32.089925 
L 127.262104 32.089925 
L 127.262104 31.602313 
z
" clip-path="url(#p8d1b19a038)" style="fill: #ff0000"/>
   </g>
   <g id="patch_7">
    <path d="M 139.522562 31.119791 
L 132.715619 31.119791 
L 131.640839 31.602313 
L 127.262104 31.602313 
L 133.515372 28.953549 
L 138.708335 28.953549 
L 144.961603 31.602313 
L 140.586486 31.602313 
L 139.522562 31.119791 
z
M 133.801256 30.628185 
L 138.426069 30.628185 
L 136.117281 29.574583 
L 133.801256 30.628185 
z
" clip-path="url(#p8d1b19a038)" style="fill: #008000"/>
   </g>
   <g id="patch_8">
    <path d="M 145.893155 19.294408 
L 163.592654 19.294408 
L 163.592654 22.182405 
L 157.224951 22.182405 
L 157.224951 34.102532 
L 152.273207 34.102532 
L 152.273207 22.182405 
L 145.893155 22.182405 
L 145.893155 19.294408 
z
" clip-path="url(#p8d1b19a038)" style="fill: #ff0000"/>
   </g>
   <g id="patch_9">
    <path d="M 164.524207 28.270661 
L 182.223706 28.270661 
L 182.223706 29.408038 
L 175.856003 29.408038 
L 175.856003 34.102532 
L 170.904259 34.102532 
L 170.904259 29.408038 
L 164.524207 29.408038 
L 164.524207 28.270661 
z
" clip-path="url(#p8d1b19a038)" style="fill: #ff0000"/>
   </g>
   <g id="patch_10">
    <path d="M 176.784666 27.130042 
L 169.977723 27.130042 
L 168.902942 28.270661 
L 164.524207 28.270661 
L 170.777475 22.009335 
L 175.970438 22.009335 
L 182.223706 28.270661 
L 177.84859 28.270661 
L 176.784666 27.130042 
z
M 171.06336 25.967953 
L 175.688172 25.967953 
L 173.379385 23.477378 
L 171.06336 25.967953 
z
" clip-path="url(#p8d1b19a038)" style="fill: #008000"/>
   </g>
   <g id="patch_11">
    <path d="M 183.155259 33.33152 
L 200.854758 33.33152 
L 200.854758 33.481889 
L 194.487054 33.481889 
L 194.487054 34.102532 
L 189.535311 34.102532 
L 189.535311 33.481889 
L 183.155259 33.481889 
L 183.155259 33.33152 
z
" clip-path="url(#p8d1b19a038)" style="fill: #ff0000"/>
   </g>
   <g id="patch_12">
    <path d="M 195.415717 30.00649 
L 188.608774 30.00649 
L 187.533994 33.33152 
L 183.155259 33.33152 
L 189.408527 15.079061 
L 194.60149 15.079061 
L 200.854758 33.33152 
L 196.479641 33.33152 
L 195.415717 30.00649 
z
M 189.694411 26.618871 
L 194.319224 26.618871 
L 192.010437 19.35857 
L 189.694411 26.618871 
z
" clip-path="url(#p8d1b19a038)" style="fill: #008000"/>
   </g>
   <g id="patch_13">
    <path d="M 201.786311 30.313953 
L 219.48581 30.313953 
L 219.48581 31.052831 
L 213.118106 31.052831 
L 213.118106 34.102532 
L 208.166363 34.102532 
L 208.166363 31.052831 
L 201.786311 31.052831 
L 201.786311 30.313953 
z
" clip-path="url(#p8d1b19a038)" style="fill: #ff0000"/>
   </g>
   <g id="patch_14">
    <path d="M 214.046769 29.381128 
L 207.239826 29.381128 
L 206.165046 30.313953 
L 201.786311 30.313953 
L 208.039579 25.193293 
L 213.232542 25.193293 
L 219.48581 30.313953 
L 215.110693 30.313953 
L 214.046769 29.381128 
z
M 208.325463 28.430744 
L 212.950276 28.430744 
L 210.641488 26.393893 
L 208.325463 28.430744 
z
" clip-path="url(#p8d1b19a038)" style="fill: #008000"/>
   </g>
   <g id="patch_15">
    <path d="M 232.677821 33.671316 
L 225.870878 33.671316 
L 224.796097 34.102532 
L 220.417362 34.102532 
L 226.67063 31.73541 
L 231.863593 31.73541 
L 238.116861 34.102532 
L 233.741745 34.102532 
L 232.677821 33.671316 
z
M 226.956515 33.231983 
L 231.581328 33.231983 
L 229.27254 32.29041 
L 226.956515 33.231983 
z
" clip-path="url(#p8d1b19a038)" style="fill: #008000"/>
   </g>
   <g id="patch_16">
    <path d="M 220.417362 28.385855 
L 238.116861 28.385855 
L 238.116861 29.039111 
L 231.749158 29.039111 
L 231.749158 31.73541 
L 226.797414 31.73541 
L 226.797414 29.039111 
L 220.417362 29.039111 
L 220.417362 28.385855 
z
" clip-path="url(#p8d1b19a038)" style="fill: #ff0000"/>
   </g>
   <g id="patch_17">
    <path d="M 239.048414 31.615429 
L 256.747913 31.615429 
L 256.747913 32.100484 
L 250.38021 32.100484 
L 250.38021 34.102532 
L 245.428466 34.102532 
L 245.428466 32.100484 
L 239.048414 32.100484 
L 239.048414 31.615429 
z
" clip-path="url(#p8d1b19a038)" style="fill: #ff0000"/>
   </g>
   <g id="patch_18">
    <path d="M 251.308873 30.509171 
L 244.50193 30.509171 
L 243.427149 31.615429 
L 239.048414 31.615429 
L 245.301682 25.542724 
L 250.494645 25.542724 
L 256.747913 31.615429 
L 252.372797 31.615429 
L 251.308873 30.509171 
z
M 245.587567 29.38209 
L 250.212379 29.38209 
L 247.903592 26.966543 
L 245.587567 29.38209 
z
" clip-path="url(#p8d1b19a038)" style="fill: #008000"/>
   </g>
   <g id="patch_19">
    <path d="M 269.939924 33.917914 
L 263.132981 33.917914 
L 262.058201 34.102532 
L 257.679466 34.102532 
L 263.932734 33.089091 
L 269.125697 33.089091 
L 275.378965 34.102532 
L 271.003849 34.102532 
L 269.939924 33.917914 
z
M 264.218618 33.729822 
L 268.843431 33.729822 
L 266.534644 33.326704 
L 264.218618 33.729822 
z
" clip-path="url(#p8d1b19a038)" style="fill: #008000"/>
   </g>
   <g id="patch_20">
    <path d="M 276.310518 30.756571 
L 294.010017 30.756571 
L 294.010017 31.409127 
L 287.642313 31.409127 
L 287.642313 34.102532 
L 282.69057 34.102532 
L 282.69057 31.409127 
L 276.310518 31.409127 
L 276.310518 30.756571 
z
" clip-path="url(#p8d1b19a038)" style="fill: #ff0000"/>
   </g>
   <g id="patch_21">
    <path d="M 288.570976 30.134168 
L 281.764033 30.134168 
L 280.689253 30.756571 
L 276.310518 30.756571 
L 282.563786 27.339945 
L 287.756749 27.339945 
L 294.010017 30.756571 
L 289.6349 30.756571 
L 288.570976 30.134168 
z
M 282.84967 29.500049 
L 287.474483 29.500049 
L 285.165695 28.141014 
L 282.84967 29.500049 
z
" clip-path="url(#p8d1b19a038)" style="fill: #008000"/>
   </g>
   <g id="patch_22">
    <path d="M 307.202028 34.027443 
L 300.395085 34.027443 
L 299.320305 34.102532 
L 294.941569 34.102532 
L 301.194837 33.690341 
L 306.3878 33.690341 
L 312.641068 34.102532 
L 308.265952 34.102532 
L 307.202028 34.027443 
z
M 301.480722 33.950942 
L 306.105535 33.950942 
L 303.796747 33.786984 
L 301.480722 33.950942 
z
" clip-path="url(#p8d1b19a038)" style="fill: #008000"/>
   </g>
   <g id="patch_23">
    <path d="M 294.941569 28.472711 
L 312.641068 28.472711 
L 312.641068 29.490294 
L 306.273365 29.490294 
L 306.273365 33.690341 
L 301.321621 33.690341 
L 301.321621 29.490294 
L 294.941569 29.490294 
L 294.941569 28.472711 
z
" clip-path="url(#p8d1b19a038)" style="fill: #ff0000"/>
   </g>
   <g id="patch_24">
    <path d="M 313.572621 33.076197 
L 331.27212 33.076197 
L 331.27212 33.276361 
L 324.904417 33.276361 
L 324.904417 34.102532 
L 319.952673 34.102532 
L 319.952673 33.276361 
L 313.572621 33.276361 
L 313.572621 33.076197 
z
" clip-path="url(#p8d1b19a038)" style="fill: #ff0000"/>
   </g>
   <g id="patch_25">
    <path d="M 325.83308 30.203738 
L 319.026137 30.203738 
L 317.951356 33.076197 
L 313.572621 33.076197 
L 319.825889 17.30809 
L 325.018852 17.30809 
L 331.27212 33.076197 
L 326.897004 33.076197 
L 325.83308 30.203738 
z
M 320.111774 27.27721 
L 324.736586 27.27721 
L 322.427799 21.005113 
L 320.111774 27.27721 
z
" clip-path="url(#p8d1b19a038)" style="fill: #008000"/>
   </g>
   <g id="patch_26">
    <path d="M 344.464131 34.098899 
L 337.657188 34.098899 
L 336.582408 34.102532 
L 332.203673 34.102532 
L 338.456941 34.082588 
L 343.649904 34.082588 
L 349.903172 34.102532 
L 345.528056 34.102532 
L 344.464131 34.098899 
z
M 338.742825 34.095197 
L 343.367638 34.095197 
L 341.058851 34.087264 
L 338.742825 34.095197 
z
" clip-path="url(#p8d1b19a038)" style="fill: #008000"/>
   </g>
   <g id="patch_27">
    <path d="M 369.465776 28.698285 
L 387.165275 28.698285 
L 387.165275 29.752264 
L 380.797572 29.752264 
L 380.797572 34.102532 
L 375.845828 34.102532 
L 375.845828 29.752264 
L 369.465776 29.752264 
L 369.465776 28.698285 
z
" clip-path="url(#p8d1b19a038)" style="fill: #ff0000"/>
   </g>
   <g id="patch_28">
    <path d="M 388.096828 31.345304 
L 405.796327 31.345304 
L 405.796327 31.88304 
L 399.428624 31.88304 
L 399.428624 34.102532 
L 394.47688 34.102532 
L 394.47688 31.88304 
L 388.096828 31.88304 
L 388.096828 31.345304 
z
" clip-path="url(#p8d1b19a038)" style="fill: #ff0000"/>
   </g>
   <g id="patch_29">
    <path d="M 437.61939 34.092873 
L 430.812447 34.092873 
L 429.737667 34.102532 
L 425.358932 34.102532 
L 431.6122 34.049511 
L 436.805163 34.049511 
L 443.058431 34.102532 
L 438.683314 34.102532 
L 437.61939 34.092873 
z
M 431.898084 34.083033 
L 436.522897 34.083033 
L 434.214109 34.061942 
L 431.898084 34.083033 
z
" clip-path="url(#p8d1b19a038)" style="fill: #008000"/>
   </g>
   <g id="patch_30">
    <path d="M 474.881494 33.852295 
L 468.074551 33.852295 
L 466.99977 34.102532 
L 462.621035 34.102532 
L 468.874303 32.728881 
L 474.067266 32.728881 
L 480.320534 34.102532 
L 475.945418 34.102532 
L 474.881494 33.852295 
z
M 469.160188 33.597348 
L 473.785 33.597348 
L 471.476213 33.05095 
L 469.160188 33.597348 
z
" clip-path="url(#p8d1b19a038)" style="fill: #008000"/>
   </g>
   <g id="patch_31">
    <path d="M 462.621035 31.315753 
L 480.320534 31.315753 
L 480.320534 31.591352 
L 473.952831 31.591352 
L 473.952831 32.728881 
L 469.001087 32.728881 
L 469.001087 31.591352 
L 462.621035 31.591352 
L 462.621035 31.315753 
z
" clip-path="url(#p8d1b19a038)" style="fill: #ff0000"/>
   </g>
   <g id="patch_32">
    <path d="M 512.143597 33.831236 
L 505.336654 33.831236 
L 504.261874 34.102532 
L 499.883139 34.102532 
L 506.136407 32.61328 
L 511.32937 32.61328 
L 517.582638 34.102532 
L 513.207521 34.102532 
L 512.143597 33.831236 
z
M 506.422291 33.554834 
L 511.047104 33.554834 
L 508.738316 32.962453 
L 506.422291 33.554834 
z
" clip-path="url(#p8d1b19a038)" style="fill: #008000"/>
   </g>
   <g id="patch_33">
    <path d="M 499.883139 29.306034 
L 517.582638 29.306034 
L 517.582638 29.951039 
L 511.214934 29.951039 
L 511.214934 32.61328 
L 506.263191 32.61328 
L 506.263191 29.951039 
L 499.883139 29.951039 
L 499.883139 29.306034 
z
" clip-path="url(#p8d1b19a038)" style="fill: #ff0000"/>
   </g>
   <g id="patch_34">
    <path d="M 518.51419 19.21384 
L 536.213689 19.21384 
L 536.213689 22.11755 
L 529.845986 22.11755 
L 529.845986 34.102532 
L 524.894242 34.102532 
L 524.894242 22.11755 
L 518.51419 22.11755 
L 518.51419 19.21384 
z
" clip-path="url(#p8d1b19a038)" style="fill: #ff0000"/>
   </g>
   <g id="patch_35">
    <path d="M 549.405701 33.850284 
L 542.598758 33.850284 
L 541.523977 34.102532 
L 537.145242 34.102532 
L 543.39851 32.717841 
L 548.591473 32.717841 
L 554.844741 34.102532 
L 550.469625 34.102532 
L 549.405701 33.850284 
z
M 543.684395 33.593288 
L 548.309208 33.593288 
L 546.00042 33.042498 
L 543.684395 33.593288 
z
" clip-path="url(#p8d1b19a038)" style="fill: #008000"/>
   </g>
   <g id="patch_36">
    <path d="M 537.145242 1.291793 
L 554.844741 1.291793 
L 554.844741 7.420748 
L 548.477038 7.420748 
L 548.477038 32.717841 
L 543.525294 32.717841 
L 543.525294 7.420748 
L 537.145242 7.420748 
L 537.145242 1.291793 
z
" clip-path="url(#p8d1b19a038)" style="fill: #ff0000"/>
   </g>
   <g id="patch_37">
    <path d="M 568.036752 33.421583 
L 561.22981 33.421583 
L 560.155029 34.102532 
L 555.776294 34.102532 
L 562.029562 30.364523 
L 567.222525 30.364523 
L 573.475793 34.102532 
L 569.100677 34.102532 
L 568.036752 33.421583 
z
M 562.315446 32.727816 
L 566.940259 32.727816 
L 564.631472 31.240944 
L 562.315446 32.727816 
z
" clip-path="url(#p8d1b19a038)" style="fill: #008000"/>
   </g>
   <g id="patch_38">
    <path d="M 555.776294 3.140063 
L 573.475793 3.140063 
L 573.475793 8.449591 
L 567.108089 8.449591 
L 567.108089 30.364523 
L 562.156346 30.364523 
L 562.156346 8.449591 
L 555.776294 8.449591 
L 555.776294 3.140063 
z
" clip-path="url(#p8d1b19a038)" style="fill: #ff0000"/>
   </g>
   <g id="patch_39">
    <path d="M 586.667804 33.442179 
L 579.860861 33.442179 
L 578.786081 34.102532 
L 574.407346 34.102532 
L 580.660614 30.477582 
L 585.853577 30.477582 
L 592.106845 34.102532 
L 587.731728 34.102532 
L 586.667804 33.442179 
z
M 580.946498 32.769396 
L 585.571311 32.769396 
L 583.262523 31.327495 
L 580.946498 32.769396 
z
" clip-path="url(#p8d1b19a038)" style="fill: #008000"/>
   </g>
   <g id="patch_40">
    <path d="M 574.407346 1.055983 
L 592.106845 1.055983 
L 592.106845 6.794014 
L 585.739141 6.794014 
L 585.739141 30.477582 
L 580.787398 30.477582 
L 580.787398 6.794014 
L 574.407346 6.794014 
L 574.407346 1.055983 
z
" clip-path="url(#p8d1b19a038)" style="fill: #ff0000"/>
   </g>
   <g id="patch_41">
    <path d="M 593.038397 20.687148 
L 610.737896 20.687148 
L 610.737896 23.303521 
L 604.370193 23.303521 
L 604.370193 34.102532 
L 599.418449 34.102532 
L 599.418449 23.303521 
L 593.038397 23.303521 
L 593.038397 20.687148 
z
" clip-path="url(#p8d1b19a038)" style="fill: #ff0000"/>
   </g>
   <g id="patch_42">
    <path d="M 623.929908 33.470304 
L 617.122965 33.470304 
L 616.048184 34.102532 
L 611.669449 34.102532 
L 617.922717 30.631973 
L 623.11568 30.631973 
L 629.368948 34.102532 
L 624.993832 34.102532 
L 623.929908 33.470304 
z
M 618.208602 32.826175 
L 622.833415 32.826175 
L 620.524627 31.445687 
L 618.208602 32.826175 
z
" clip-path="url(#p8d1b19a038)" style="fill: #008000"/>
   </g>
   <g id="patch_43">
    <path d="M 611.669449 23.065187 
L 629.368948 23.065187 
L 629.368948 24.540921 
L 623.001245 24.540921 
L 623.001245 30.631973 
L 618.049501 30.631973 
L 618.049501 24.540921 
L 611.669449 24.540921 
L 611.669449 23.065187 
z
" clip-path="url(#p8d1b19a038)" style="fill: #ff0000"/>
   </g>
   <g id="patch_44">
    <path d="M 642.560959 34.04576 
L 635.754017 34.04576 
L 634.679236 34.102532 
L 630.300501 34.102532 
L 636.553769 33.79089 
L 641.746732 33.79089 
L 648 34.102532 
L 643.624884 34.102532 
L 642.560959 34.04576 
z
M 636.839653 33.98792 
L 641.464466 33.98792 
L 639.155679 33.863958 
L 636.839653 33.98792 
z
" clip-path="url(#p8d1b19a038)" style="fill: #008000"/>
   </g>
   <g id="patch_45">
    <path d="M 630.300501 26.157902 
L 648 26.157902 
L 648 27.646547 
L 641.632296 27.646547 
L 641.632296 33.79089 
L 636.680553 33.79089 
L 636.680553 27.646547 
L 630.300501 27.646547 
L 630.300501 26.157902 
z
" clip-path="url(#p8d1b19a038)" style="fill: #ff0000"/>
   </g>
   <g id="patch_46">
    <path d="M 107.699499 34.857582 
Q 106.218967 34.483321 104.618029 34.294014 
Q 103.017092 34.102532 101.273453 34.102532 
Q 96.073751 34.102532 93.036876 35.521242 
Q 90 36.939952 90 39.366121 
Q 90 41.800993 93.036876 43.217528 
Q 96.073751 44.636238 101.273453 44.636238 
Q 103.017092 44.636238 104.618029 44.444756 
Q 106.218967 44.255449 107.699499 43.881188 
L 107.699499 41.78141 
Q 106.205588 42.277523 104.756272 42.508172 
Q 103.306955 42.738822 101.706018 42.738822 
Q 98.834142 42.738822 97.18861 41.84016 
Q 95.547538 40.943675 95.547538 39.366121 
Q 95.547538 37.795095 97.18861 36.896434 
Q 98.834142 35.999948 101.706018 35.999948 
Q 103.306955 35.999948 104.756272 36.230597 
Q 106.205588 36.463422 107.699499 36.959536 
L 107.699499 34.857582 
z
" clip-path="url(#p8d1b19a038)" style="fill: #0000ff"/>
   </g>
   <g id="patch_47">
    <path d="M 107.699499 48.898026 
Q 105.914476 46.767132 103.994584 45.69682 
Q 102.074692 44.636238 100.027865 44.636238 
Q 95.402671 44.636238 92.701335 50.98027 
Q 90 57.324302 90 68.173374 
Q 90 79.148939 92.748936 85.44432 
Q 95.501839 91.739701 100.289668 91.739701 
Q 102.134193 91.739701 103.824015 90.883452 
Q 105.517804 90.036932 107.017224 88.363353 
L 107.017224 78.973797 
Q 105.470203 81.124151 103.93905 82.184733 
Q 102.407896 83.255045 100.868809 83.255045 
Q 98.020705 83.255045 96.477652 79.343541 
Q 94.934598 75.441767 94.934598 68.173374 
Q 94.934598 60.973093 96.422118 57.042128 
Q 97.909637 53.120894 100.646673 53.120894 
Q 101.392416 53.120894 102.031058 53.344687 
Q 102.6697 53.578209 103.17744 54.064715 
L 103.17744 62.880194 
L 100.261901 62.880194 
L 100.261901 70.732393 
L 107.699499 70.732393 
L 107.699499 48.898026 
z
" clip-path="url(#p8d1b19a038)" style="fill: #ffa600"/>
   </g>
   <g id="patch_48">
    <path d="M 120.89151 34.245813 
L 114.084567 34.245813 
L 113.009787 34.102532 
L 108.631052 34.102532 
L 114.88432 34.889061 
L 120.077283 34.889061 
L 126.330551 34.102532 
L 121.955434 34.102532 
L 120.89151 34.245813 
z
M 115.170204 34.391791 
L 119.795017 34.391791 
L 117.48623 34.704649 
L 115.170204 34.391791 
z
" clip-path="url(#p8d1b19a038)" style="fill: #008000"/>
   </g>
   <g id="patch_49">
    <path d="M 126.330551 35.228387 
Q 124.850018 35.060191 123.249081 34.975115 
Q 121.648144 34.889061 119.904504 34.889061 
Q 114.704803 34.889061 111.667927 35.526642 
Q 108.631052 36.164224 108.631052 37.254567 
Q 108.631052 38.348821 111.667927 38.985425 
Q 114.704803 39.623006 119.904504 39.623006 
Q 121.648144 39.623006 123.249081 39.536952 
Q 124.850018 39.451876 126.330551 39.28368 
L 126.330551 38.34002 
Q 124.83664 38.562978 123.387324 38.666634 
Q 121.938007 38.77029 120.33707 38.77029 
Q 117.465193 38.77029 115.819662 38.366423 
Q 114.178589 37.963534 114.178589 37.254567 
Q 114.178589 36.548533 115.819662 36.144666 
Q 117.465193 35.741777 120.33707 35.741777 
Q 121.938007 35.741777 123.387324 35.845433 
Q 124.83664 35.950067 126.330551 36.173025 
L 126.330551 35.228387 
z
" clip-path="url(#p8d1b19a038)" style="fill: #0000ff"/>
   </g>
   <g id="patch_50">
    <path d="M 126.330551 41.291816 
Q 124.545527 40.457411 122.625636 40.038304 
Q 120.705744 39.623006 118.658917 39.623006 
Q 114.033723 39.623006 111.332387 42.10717 
Q 108.631052 44.591334 108.631052 48.839559 
Q 108.631052 53.137315 111.379988 55.602429 
Q 114.132891 58.067543 118.92072 58.067543 
Q 120.765244 58.067543 122.455067 57.732257 
Q 124.148856 57.400781 125.648275 56.745449 
L 125.648275 53.068734 
Q 124.101255 53.910759 122.570102 54.326056 
Q 121.038948 54.745164 119.499861 54.745164 
Q 116.651757 54.745164 115.108704 53.213517 
Q 113.56565 51.68568 113.56565 48.839559 
Q 113.56565 46.02011 115.053169 44.480842 
Q 116.540689 42.945385 119.277725 42.945385 
Q 120.023468 42.945385 120.66211 43.033017 
Q 121.300752 43.124458 121.808492 43.314962 
L 121.808492 46.766883 
L 118.892953 46.766883 
L 118.892953 49.841607 
L 126.330551 49.841607 
L 126.330551 41.291816 
z
" clip-path="url(#p8d1b19a038)" style="fill: #ffa600"/>
   </g>
   <g id="patch_51">
    <path d="M 144.961603 35.642209 
Q 143.48107 34.879026 141.880133 34.492998 
Q 140.279195 34.102532 138.535556 34.102532 
Q 133.335855 34.102532 130.298979 36.995528 
Q 127.262104 39.888524 127.262104 44.835903 
Q 127.262104 49.801029 130.298979 52.689588 
Q 133.335855 55.582585 138.535556 55.582585 
Q 140.279195 55.582585 141.880133 55.192119 
Q 143.48107 54.80609 144.961603 54.042907 
L 144.961603 49.761095 
Q 143.467692 50.772757 142.018375 51.24309 
Q 140.569059 51.713424 138.968121 51.713424 
Q 136.096245 51.713424 134.450713 49.880897 
Q 132.809641 48.052808 132.809641 44.835903 
Q 132.809641 41.632309 134.450713 39.799782 
Q 136.096245 37.971692 138.968121 37.971692 
Q 140.569059 37.971692 142.018375 38.442026 
Q 143.467692 38.916797 144.961603 39.928458 
L 144.961603 35.642209 
z
" clip-path="url(#p8d1b19a038)" style="fill: #0000ff"/>
   </g>
   <g id="patch_52">
    <path d="M 144.961603 59.762055 
Q 143.176579 57.67232 141.256687 56.622681 
Q 139.336795 55.582585 137.289969 55.582585 
Q 132.664774 55.582585 129.963439 61.804079 
Q 127.262104 68.025573 127.262104 78.665092 
Q 127.262104 89.428659 130.01104 95.602443 
Q 132.763942 101.776226 137.551772 101.776226 
Q 139.396296 101.776226 141.086118 100.936515 
Q 142.779907 100.106347 144.279327 98.465093 
L 144.279327 89.2569 
Q 142.732307 91.36572 141.201153 92.405816 
Q 139.67 93.455455 138.130913 93.455455 
Q 135.282809 93.455455 133.739755 89.619503 
Q 132.196702 85.793093 132.196702 78.665092 
Q 132.196702 71.603887 133.684221 67.748851 
Q 135.171741 63.903356 137.908777 63.903356 
Q 138.65452 63.903356 139.293162 64.122826 
Q 139.931803 64.351838 140.439543 64.828947 
L 140.439543 73.474152 
L 137.524005 73.474152 
L 137.524005 81.174683 
L 144.961603 81.174683 
L 144.961603 59.762055 
z
" clip-path="url(#p8d1b19a038)" style="fill: #ffa600"/>
   </g>
   <g id="patch_53">
    <path d="M 158.153614 34.382103 
L 151.346671 34.382103 
L 150.27189 34.102532 
L 145.893155 34.102532 
L 152.146423 35.637214 
L 157.339386 35.637214 
L 163.592654 34.102532 
L 159.217538 34.102532 
L 158.153614 34.382103 
z
M 152.432308 34.666937 
L 157.057121 34.666937 
L 154.748333 35.277389 
L 152.432308 34.666937 
z
" clip-path="url(#p8d1b19a038)" style="fill: #008000"/>
   </g>
   <g id="patch_54">
    <path d="M 163.592654 36.235969 
Q 162.112122 35.93918 160.511185 35.789059 
Q 158.910247 35.637214 157.166608 35.637214 
Q 151.966906 35.637214 148.930031 36.762252 
Q 145.893155 37.88729 145.893155 39.811242 
Q 145.893155 41.742097 148.930031 42.865409 
Q 151.966906 43.990447 157.166608 43.990447 
Q 158.910247 43.990447 160.511185 43.838602 
Q 162.112122 43.688481 163.592654 43.391692 
L 163.592654 41.726567 
Q 162.098744 42.119985 160.649427 42.30289 
Q 159.200111 42.485795 157.599173 42.485795 
Q 154.727297 42.485795 153.081765 41.773156 
Q 151.440693 41.062243 151.440693 39.811242 
Q 151.440693 38.565418 153.081765 37.852779 
Q 154.727297 37.141866 157.599173 37.141866 
Q 159.200111 37.141866 160.649427 37.324771 
Q 162.098744 37.509401 163.592654 37.902819 
L 163.592654 36.235969 
z
" clip-path="url(#p8d1b19a038)" style="fill: #0000ff"/>
   </g>
   <g id="patch_55">
    <path d="M 163.592654 46.043343 
Q 161.807631 45.016895 159.887739 44.501328 
Q 157.967847 43.990447 155.92102 43.990447 
Q 151.295826 43.990447 148.594491 47.046356 
Q 145.893155 50.102265 145.893155 55.328244 
Q 145.893155 60.615154 148.642091 63.647628 
Q 151.394994 66.680102 156.182824 66.680102 
Q 158.027348 66.680102 159.71717 66.267648 
Q 161.410959 65.859881 162.910379 65.053721 
L 162.910379 60.530788 
Q 161.363358 61.56661 159.832205 62.077491 
Q 158.301052 62.593058 156.761965 62.593058 
Q 153.913861 62.593058 152.370807 60.708894 
Q 150.827753 58.829416 150.827753 55.328244 
Q 150.827753 51.859881 152.315273 49.966343 
Q 153.802792 48.077491 156.539828 48.077491 
Q 157.285572 48.077491 157.924213 48.185291 
Q 158.562855 48.297779 159.070595 48.532128 
L 159.070595 52.778529 
L 156.155057 52.778529 
L 156.155057 56.560919 
L 163.592654 56.560919 
L 163.592654 46.043343 
z
" clip-path="url(#p8d1b19a038)" style="fill: #ffa600"/>
   </g>
   <g id="patch_56">
    <path d="M 182.223706 35.374799 
Q 180.743174 34.744165 179.142236 34.425182 
Q 177.541299 34.102532 175.79766 34.102532 
Q 170.597958 34.102532 167.561083 36.493073 
Q 164.524207 38.883615 164.524207 42.971735 
Q 164.524207 47.07452 167.561083 49.461395 
Q 170.597958 51.851937 175.79766 51.851937 
Q 177.541299 51.851937 179.142236 51.529287 
Q 180.743174 51.210304 182.223706 50.57967 
L 182.223706 47.041522 
Q 180.729795 47.877478 179.280479 48.266125 
Q 177.831162 48.654771 176.230225 48.654771 
Q 173.358349 48.654771 171.712817 47.140517 
Q 170.071745 45.629929 170.071745 42.971735 
Q 170.071745 40.32454 171.712817 38.810286 
Q 173.358349 37.299698 176.230225 37.299698 
Q 177.831162 37.299698 179.280479 37.688344 
Q 180.729795 38.080657 182.223706 38.916613 
L 182.223706 35.374799 
z
" clip-path="url(#p8d1b19a038)" style="fill: #0000ff"/>
   </g>
   <g id="patch_57">
    <path d="M 182.223706 54.65181 
Q 180.438683 53.251873 178.518791 52.548709 
Q 176.598899 51.851937 174.552072 51.851937 
Q 169.926878 51.851937 167.225542 56.019784 
Q 164.524207 60.18763 164.524207 67.31516 
Q 164.524207 74.52579 167.273143 78.661675 
Q 170.026046 82.797559 174.813876 82.797559 
Q 176.6584 82.797559 178.348222 82.235028 
Q 180.042011 81.678889 181.541431 80.579396 
L 181.541431 74.410727 
Q 179.99441 75.823448 178.463257 76.52022 
Q 176.932103 77.223384 175.393016 77.223384 
Q 172.544912 77.223384 171.001859 74.653638 
Q 169.458805 72.090285 169.458805 67.31516 
Q 169.458805 62.584782 170.946325 60.002251 
Q 172.433844 57.426112 175.17088 57.426112 
Q 175.916623 57.426112 176.555265 57.573138 
Q 177.193907 57.726555 177.701647 58.046175 
L 177.701647 63.837692 
L 174.786108 63.837692 
L 174.786108 68.996362 
L 182.223706 68.996362 
L 182.223706 54.65181 
z
" clip-path="url(#p8d1b19a038)" style="fill: #ffa600"/>
   </g>
   <g id="patch_58">
    <path d="M 200.854758 34.415702 
Q 199.374225 34.260471 197.773288 34.181953 
Q 196.172351 34.102532 194.428711 34.102532 
Q 189.22901 34.102532 186.192134 34.690968 
Q 183.155259 35.279403 183.155259 36.285701 
Q 183.155259 37.295608 186.192134 37.883141 
Q 189.22901 38.471577 194.428711 38.471577 
Q 196.172351 38.471577 197.773288 38.392156 
Q 199.374225 38.313638 200.854758 38.158407 
L 200.854758 37.287485 
Q 199.360847 37.493257 197.911531 37.588923 
Q 196.462214 37.684589 194.861277 37.684589 
Q 191.9894 37.684589 190.343869 37.311853 
Q 188.702796 36.94002 188.702796 36.285701 
Q 188.702796 35.634089 190.343869 35.261353 
Q 191.9894 34.889519 194.861277 34.889519 
Q 196.462214 34.889519 197.911531 34.985185 
Q 199.360847 35.081754 200.854758 35.287526 
L 200.854758 34.415702 
z
" clip-path="url(#p8d1b19a038)" style="fill: #0000ff"/>
   </g>
   <g id="patch_59">
    <path d="M 200.854758 40.350432 
Q 199.069734 39.411005 197.149843 38.939146 
Q 195.229951 38.471577 193.183124 38.471577 
Q 188.55793 38.471577 185.856594 41.268411 
Q 183.155259 44.065245 183.155259 48.848175 
Q 183.155259 53.68687 185.904195 56.462256 
Q 188.657098 59.237642 193.444927 59.237642 
Q 195.289451 59.237642 196.979274 58.860155 
Q 198.673063 58.486958 200.172482 57.749143 
L 200.172482 53.609657 
Q 198.625462 54.557663 197.094309 55.025232 
Q 195.563155 55.497091 194.024068 55.497091 
Q 191.175964 55.497091 189.632911 53.772662 
Q 188.089857 52.052523 188.089857 48.848175 
Q 188.089857 45.673854 189.577376 43.940846 
Q 191.064896 42.212128 193.801932 42.212128 
Q 194.547675 42.212128 195.186317 42.31079 
Q 195.824959 42.413741 196.332699 42.628222 
L 196.332699 46.51462 
L 193.41716 46.51462 
L 193.41716 49.976346 
L 200.854758 49.976346 
L 200.854758 40.350432 
z
" clip-path="url(#p8d1b19a038)" style="fill: #ffa600"/>
   </g>
   <g id="patch_60">
    <path d="M 219.48581 59.583987 
Q 218.005277 58.307873 216.40434 57.662397 
Q 214.803402 57.009502 213.059763 57.009502 
Q 207.860062 57.009502 204.823186 61.846863 
Q 201.786311 66.684223 201.786311 74.956704 
Q 201.786311 83.258862 204.823186 88.088803 
Q 207.860062 92.926164 213.059763 92.926164 
Q 214.803402 92.926164 216.40434 92.273269 
Q 218.005277 91.627793 219.48581 90.351679 
L 219.48581 83.192088 
Q 217.991899 84.883681 216.542582 85.670123 
Q 215.093266 86.456565 213.492328 86.456565 
Q 210.620452 86.456565 208.97492 83.392409 
Q 207.333848 80.335671 207.333848 74.956704 
Q 207.333848 69.599995 208.97492 66.535838 
Q 210.620452 63.479101 213.492328 63.479101 
Q 215.093266 63.479101 216.542582 64.265543 
Q 217.991899 65.059404 219.48581 66.750997 
L 219.48581 59.583987 
z
" clip-path="url(#p8d1b19a038)" style="fill: #0000ff"/>
   </g>
   <g id="patch_61">
    <path d="M 219.48581 36.17509 
Q 217.700786 35.138811 215.780894 34.618305 
Q 213.861002 34.102532 211.814176 34.102532 
Q 207.188981 34.102532 204.487646 37.187709 
Q 201.786311 40.272887 201.786311 45.548919 
Q 201.786311 50.886465 204.535247 53.947983 
Q 207.288149 57.009502 212.075979 57.009502 
Q 213.920503 57.009502 215.610325 56.593097 
Q 217.304114 56.181425 218.803534 55.367544 
L 218.803534 50.801292 
Q 217.256514 51.847034 215.72536 52.362808 
Q 214.194207 52.883313 212.65512 52.883313 
Q 209.807016 52.883313 208.263962 50.981103 
Q 206.720909 49.083624 206.720909 45.548919 
Q 206.720909 42.047337 208.208428 40.135663 
Q 209.695948 38.22872 212.432984 38.22872 
Q 213.178727 38.22872 213.817369 38.337553 
Q 214.45601 38.451118 214.96375 38.687711 
L 214.96375 42.974783 
L 212.048212 42.974783 
L 212.048212 46.7934 
L 219.48581 46.7934 
L 219.48581 36.17509 
z
" clip-path="url(#p8d1b19a038)" style="fill: #ffa600"/>
   </g>
   <g id="patch_62">
    <path d="M 238.116861 49.923483 
Q 236.636329 49.247224 235.035392 48.905163 
Q 233.434454 48.559169 231.690815 48.559169 
Q 226.491113 48.559169 223.454238 51.122664 
Q 220.417362 53.686159 220.417362 58.07005 
Q 220.417362 62.469668 223.454238 65.029231 
Q 226.491113 67.592726 231.690815 67.592726 
Q 233.434454 67.592726 235.035392 67.246733 
Q 236.636329 66.904672 238.116861 66.228412 
L 238.116861 62.434283 
Q 236.622951 63.330719 235.173634 63.747484 
Q 233.724318 64.164249 232.12338 64.164249 
Q 229.251504 64.164249 227.605972 62.54044 
Q 225.9649 60.920562 225.9649 58.07005 
Q 225.9649 55.231333 227.605972 53.607524 
Q 229.251504 51.987647 232.12338 51.987647 
Q 233.724318 51.987647 235.173634 52.404412 
Q 236.622951 52.825108 238.116861 53.721545 
L 238.116861 49.923483 
z
" clip-path="url(#p8d1b19a038)" style="fill: #0000ff"/>
   </g>
   <g id="patch_63">
    <path d="M 238.116861 35.410527 
Q 236.331838 34.75653 234.411946 34.428038 
Q 232.492054 34.102532 230.445227 34.102532 
Q 225.820033 34.102532 223.118698 36.049594 
Q 220.417362 37.996656 220.417362 41.326371 
Q 220.417362 44.694908 223.166298 46.627039 
Q 225.919201 48.559169 230.707031 48.559169 
Q 232.551555 48.559169 234.241377 48.296376 
Q 235.935166 48.036568 237.434586 47.522926 
L 237.434586 44.641155 
Q 235.887565 45.301125 234.356412 45.626631 
Q 232.825259 45.955123 231.286172 45.955123 
Q 228.438068 45.955123 226.895014 44.754634 
Q 225.35196 43.557131 225.35196 41.326371 
Q 225.35196 39.116515 226.83948 37.910054 
Q 228.327 36.706578 231.064035 36.706578 
Q 231.809779 36.706578 232.44842 36.775263 
Q 233.087062 36.846934 233.594802 36.996248 
L 233.594802 39.701828 
L 230.679264 39.701828 
L 230.679264 42.111766 
L 238.116861 42.111766 
L 238.116861 35.410527 
z
" clip-path="url(#p8d1b19a038)" style="fill: #ffa600"/>
   </g>
   <g id="patch_64">
    <path d="M 256.747913 34.526727 
Q 255.267381 34.316463 253.666443 34.210109 
Q 252.065506 34.102532 250.321867 34.102532 
Q 245.122165 34.102532 242.08529 34.899578 
Q 239.048414 35.696624 239.048414 37.059671 
Q 239.048414 38.427608 242.08529 39.223432 
Q 245.122165 40.020479 250.321867 40.020479 
Q 252.065506 40.020479 253.666443 39.912902 
Q 255.267381 39.806547 256.747913 39.596284 
L 256.747913 38.416606 
Q 255.254002 38.695328 253.804686 38.824909 
Q 252.355369 38.95449 250.754432 38.95449 
Q 247.882556 38.95449 246.237024 38.449613 
Q 244.595952 37.945958 244.595952 37.059671 
Q 244.595952 36.177053 246.237024 35.672175 
Q 247.882556 35.16852 250.754432 35.16852 
Q 252.355369 35.16852 253.804686 35.298101 
Q 255.254002 35.428905 256.747913 35.707627 
L 256.747913 34.526727 
z
" clip-path="url(#p8d1b19a038)" style="fill: #0000ff"/>
   </g>
   <g id="patch_65">
    <path d="M 256.747913 48.437377 
Q 254.96289 44.228928 253.042998 42.115095 
Q 251.123106 40.020479 249.076279 40.020479 
Q 244.451085 40.020479 241.74975 52.549742 
Q 239.048414 65.079006 239.048414 86.505584 
Q 239.048414 108.181979 241.79735 120.61516 
Q 244.550253 133.04834 249.338083 133.04834 
Q 251.182607 133.04834 252.872429 131.357274 
Q 254.566218 129.685424 256.065638 126.380159 
L 256.065638 107.836079 
Q 254.518617 112.082962 252.987464 114.177578 
Q 251.45631 116.291411 249.917223 116.291411 
Q 247.069119 116.291411 245.526066 108.566313 
Q 243.983012 100.860431 243.983012 86.505584 
Q 243.983012 72.285254 245.470532 64.521723 
Q 246.958051 56.777408 249.695087 56.777408 
Q 250.44083 56.777408 251.079472 57.219391 
Q 251.718114 57.680591 252.225854 58.641424 
L 252.225854 76.05172 
L 249.310315 76.05172 
L 249.310315 91.559567 
L 256.747913 91.559567 
L 256.747913 48.437377 
z
" clip-path="url(#p8d1b19a038)" style="fill: #ffa600"/>
   </g>
   <g id="patch_66">
    <path d="M 275.378965 54.258192 
Q 273.898432 51.492653 272.297495 50.093805 
Q 270.696558 48.678879 268.952919 48.678879 
Q 263.753217 48.678879 260.716341 59.162199 
Q 257.679466 69.645519 257.679466 87.573283 
Q 257.679466 105.565362 260.716341 116.032604 
Q 263.753217 126.515924 268.952919 126.515924 
Q 270.696558 126.515924 272.297495 125.100997 
Q 273.898432 123.702149 275.378965 120.936611 
L 275.378965 105.420654 
Q 273.885054 109.0866 272.435738 110.790944 
Q 270.986421 112.495287 269.385484 112.495287 
Q 266.513607 112.495287 264.868076 105.854779 
Q 263.227003 99.23035 263.227003 87.573283 
Q 263.227003 75.964453 264.868076 69.323945 
Q 266.513607 62.699516 269.385484 62.699516 
Q 270.986421 62.699516 272.435738 64.403859 
Q 273.885054 66.124281 275.378965 69.790228 
L 275.378965 54.258192 
z
" clip-path="url(#p8d1b19a038)" style="fill: #0000ff"/>
   </g>
   <g id="patch_67">
    <path d="M 275.378965 37.825616 
Q 273.593941 37.285788 271.67405 37.014641 
Q 269.754158 36.745959 267.707331 36.745959 
Q 263.082137 36.745959 260.380801 38.35312 
Q 257.679466 39.96028 257.679466 42.708722 
Q 257.679466 45.489208 260.428402 47.084043 
Q 263.181305 48.678879 267.969134 48.678879 
Q 269.813659 48.678879 271.503481 48.461961 
Q 273.19727 48.247509 274.696689 47.823534 
L 274.696689 45.444838 
Q 273.149669 45.989596 271.618516 46.258278 
Q 270.087362 46.529425 268.548275 46.529425 
Q 265.700171 46.529425 264.157118 45.538507 
Q 262.614064 44.550054 262.614064 42.708722 
Q 262.614064 40.884644 264.101583 39.888796 
Q 265.589103 38.895413 268.326139 38.895413 
Q 269.071882 38.895413 269.710524 38.952107 
Q 270.349166 39.011267 270.856906 39.134515 
L 270.856906 41.367778 
L 267.941367 41.367778 
L 267.941367 43.357009 
L 275.378965 43.357009 
L 275.378965 37.825616 
z
" clip-path="url(#p8d1b19a038)" style="fill: #ffa600"/>
   </g>
   <g id="patch_68">
    <path d="M 257.679466 36.745959 
L 275.378965 36.745959 
L 275.378965 36.230417 
L 269.011261 36.230417 
L 269.011261 34.102532 
L 264.059518 34.102532 
L 264.059518 36.230417 
L 257.679466 36.230417 
L 257.679466 36.745959 
z
" clip-path="url(#p8d1b19a038)" style="fill: #ff0000"/>
   </g>
   <g id="patch_69">
    <path d="M 294.010017 74.427758 
Q 292.529484 72.70327 290.928547 71.831 
Q 289.32761 70.948704 287.58397 70.948704 
Q 282.384269 70.948704 279.347393 77.485716 
Q 276.310518 84.022729 276.310518 95.201822 
Q 276.310518 106.42102 279.347393 112.948006 
Q 282.384269 119.485018 287.58397 119.485018 
Q 289.32761 119.485018 290.928547 118.602722 
Q 292.529484 117.730452 294.010017 116.005964 
L 294.010017 106.330785 
Q 292.516106 108.616734 291.066789 109.6795 
Q 289.617473 110.742265 288.016535 110.742265 
Q 285.144659 110.742265 283.499127 106.601489 
Q 281.858055 102.470739 281.858055 95.201822 
Q 281.858055 87.962983 283.499127 83.822207 
Q 285.144659 79.691457 288.016535 79.691457 
Q 289.617473 79.691457 291.066789 80.754223 
Q 292.516106 81.827014 294.010017 84.112964 
L 294.010017 74.427758 
z
" clip-path="url(#p8d1b19a038)" style="fill: #0000ff"/>
   </g>
   <g id="patch_70">
    <path d="M 294.010017 37.436269 
Q 292.224993 35.769401 290.305101 34.932161 
Q 288.385209 34.102532 286.338383 34.102532 
Q 281.713188 34.102532 279.011853 39.065082 
Q 276.310518 44.027632 276.310518 52.514201 
Q 276.310518 61.099717 279.059454 66.02421 
Q 281.812356 70.948704 286.600186 70.948704 
Q 288.44471 70.948704 290.134532 70.278912 
Q 291.828321 69.616731 293.327741 68.307592 
L 293.327741 60.962714 
Q 291.780721 62.644805 290.249567 63.474434 
Q 288.718414 64.311674 287.179327 64.311674 
Q 284.331223 64.311674 282.788169 61.251942 
Q 281.245116 58.199822 281.245116 52.514201 
Q 281.245116 46.881859 282.732635 43.806905 
Q 284.220155 40.739562 286.957191 40.739562 
Q 287.702934 40.739562 288.341576 40.914621 
Q 288.980217 41.097292 289.487957 41.477855 
L 289.487957 48.373669 
L 286.572419 48.373669 
L 286.572419 54.515966 
L 294.010017 54.515966 
L 294.010017 37.436269 
z
" clip-path="url(#p8d1b19a038)" style="fill: #ffa600"/>
   </g>
   <g id="patch_71">
    <path d="M 312.641068 35.473141 
Q 311.160536 34.793761 309.559599 34.450121 
Q 307.958661 34.102532 306.215022 34.102532 
Q 301.01532 34.102532 297.978445 36.677855 
Q 294.941569 39.253179 294.941569 43.657298 
Q 294.941569 48.077217 297.978445 50.648591 
Q 301.01532 53.223915 306.215022 53.223915 
Q 307.958661 53.223915 309.559599 52.876325 
Q 311.160536 52.532685 312.641068 51.853305 
L 312.641068 48.041668 
Q 311.147158 48.942242 309.697841 49.360929 
Q 308.248525 49.779617 306.647587 49.779617 
Q 303.775711 49.779617 302.130179 48.148315 
Q 300.489107 46.520963 300.489107 43.657298 
Q 300.489107 40.805483 302.130179 39.174181 
Q 303.775711 37.54683 306.647587 37.54683 
Q 308.248525 37.54683 309.697841 37.965517 
Q 311.147158 38.388155 312.641068 39.288728 
L 312.641068 35.473141 
z
" clip-path="url(#p8d1b19a038)" style="fill: #0000ff"/>
   </g>
   <g id="patch_72">
    <path d="M 312.641068 55.167923 
Q 310.856045 54.195919 308.936153 53.707697 
Q 307.016261 53.223915 304.969434 53.223915 
Q 300.34424 53.223915 297.642905 56.117735 
Q 294.941569 59.011555 294.941569 63.960342 
Q 294.941569 68.966828 297.690505 71.838456 
Q 300.443408 74.710084 305.231238 74.710084 
Q 307.075762 74.710084 308.765584 74.319507 
Q 310.459373 73.933368 311.958793 73.169968 
L 311.958793 68.886937 
Q 310.411772 69.867818 308.880619 70.351601 
Q 307.349466 70.839822 305.810379 70.839822 
Q 302.962275 70.839822 301.419221 69.055595 
Q 299.876167 67.275807 299.876167 63.960342 
Q 299.876167 60.675945 301.363687 58.882842 
Q 302.851207 57.094177 305.588242 57.094177 
Q 306.333986 57.094177 306.972627 57.19626 
Q 307.611269 57.302781 308.119009 57.524699 
L 308.119009 61.545866 
L 305.203471 61.545866 
L 305.203471 65.127634 
L 312.641068 65.127634 
L 312.641068 55.167923 
z
" clip-path="url(#p8d1b19a038)" style="fill: #ffa600"/>
   </g>
   <g id="patch_73">
    <path d="M 331.27212 34.812562 
Q 329.791588 34.460616 328.19065 34.282597 
Q 326.589713 34.102532 324.846074 34.102532 
Q 319.646372 34.102532 316.609497 35.436652 
Q 313.572621 36.770772 313.572621 39.052281 
Q 313.572621 41.341975 316.609497 42.67405 
Q 319.646372 44.00817 324.846074 44.00817 
Q 326.589713 44.00817 328.19065 43.828104 
Q 329.791588 43.650085 331.27212 43.298139 
L 331.27212 41.32356 
Q 329.778209 41.790093 328.328893 42.006989 
Q 326.879576 42.223886 325.278639 42.223886 
Q 322.406763 42.223886 320.761231 41.378807 
Q 319.120159 40.535774 319.120159 39.052281 
Q 319.120159 37.574927 320.761231 36.729848 
Q 322.406763 35.886815 325.278639 35.886815 
Q 326.879576 35.886815 328.328893 36.103712 
Q 329.778209 36.322655 331.27212 36.789188 
L 331.27212 34.812562 
z
" clip-path="url(#p8d1b19a038)" style="fill: #0000ff"/>
   </g>
   <g id="patch_74">
    <path d="M 331.27212 47.278866 
Q 329.487097 45.643518 327.567205 44.82211 
Q 325.647313 44.00817 323.600486 44.00817 
Q 318.975292 44.00817 316.273957 48.876878 
Q 313.572621 53.745586 313.572621 62.071674 
Q 313.572621 70.494838 316.321557 75.326209 
Q 319.07446 80.157581 323.86229 80.157581 
Q 325.706814 80.157581 327.396636 79.500455 
Q 329.090425 78.850796 330.589845 77.566413 
L 330.589845 70.360426 
Q 329.042824 72.010709 327.511671 72.824649 
Q 325.980517 73.646057 324.44143 73.646057 
Q 321.593326 73.646057 320.050273 70.644185 
Q 318.507219 67.64978 318.507219 62.071674 
Q 318.507219 56.54584 319.994739 53.529033 
Q 321.482258 50.519693 324.219294 50.519693 
Q 324.965037 50.519693 325.603679 50.691442 
Q 326.242321 50.870659 326.750061 51.244026 
L 326.750061 58.009439 
L 323.834523 58.009439 
L 323.834523 64.035586 
L 331.27212 64.035586 
L 331.27212 47.278866 
z
" clip-path="url(#p8d1b19a038)" style="fill: #ffa600"/>
   </g>
   <g id="patch_75">
    <path d="M 349.903172 61.106065 
Q 348.422639 59.866281 346.821702 59.239181 
Q 345.220765 58.604873 343.477126 58.604873 
Q 338.277424 58.604873 335.240548 63.304519 
Q 332.203673 68.004165 332.203673 76.041137 
Q 332.203673 84.10694 335.240548 88.799378 
Q 338.277424 93.499024 343.477126 93.499024 
Q 345.220765 93.499024 346.821702 92.864716 
Q 348.422639 92.237616 349.903172 90.997832 
L 349.903172 84.042068 
Q 348.409261 85.685502 346.959945 86.449555 
Q 345.510628 87.213608 343.909691 87.213608 
Q 341.037814 87.213608 339.392283 84.236685 
Q 337.75121 81.26697 337.75121 76.041137 
Q 337.75121 70.836927 339.392283 67.860004 
Q 341.037814 64.890289 343.909691 64.890289 
Q 345.510628 64.890289 346.959945 65.654342 
Q 348.409261 66.425603 349.903172 68.069038 
L 349.903172 61.106065 
z
" clip-path="url(#p8d1b19a038)" style="fill: #0000ff"/>
   </g>
   <g id="patch_76">
    <path d="M 349.903172 41.414476 
Q 348.118149 40.559446 346.198257 40.129979 
Q 344.278365 39.704416 342.231538 39.704416 
Q 337.606344 39.704416 334.905008 42.249985 
Q 332.203673 44.795553 332.203673 49.148788 
Q 332.203673 53.552778 334.952609 56.078826 
Q 337.705512 58.604873 342.493341 58.604873 
Q 344.337866 58.604873 346.027688 58.2613 
Q 347.721477 57.92163 349.220896 57.2501 
L 349.220896 53.482502 
Q 347.673876 54.34534 346.142723 54.770903 
Q 344.611569 55.20037 343.072482 55.20037 
Q 340.224378 55.20037 338.681325 53.630863 
Q 337.138271 52.06526 337.138271 49.148788 
Q 337.138271 46.259646 338.62579 44.68233 
Q 340.11331 43.108919 342.850346 43.108919 
Q 343.596089 43.108919 344.234731 43.198717 
Q 344.873373 43.292419 345.381113 43.487631 
L 345.381113 47.024878 
L 342.465574 47.024878 
L 342.465574 50.175605 
L 349.903172 50.175605 
L 349.903172 41.414476 
z
" clip-path="url(#p8d1b19a038)" style="fill: #ffa600"/>
   </g>
   <g id="patch_77">
    <path d="M 332.203673 39.704416 
L 349.903172 39.704416 
L 349.903172 38.611893 
L 343.535468 38.611893 
L 343.535468 34.102532 
L 338.583725 34.102532 
L 338.583725 38.611893 
L 332.203673 38.611893 
L 332.203673 39.704416 
z
" clip-path="url(#p8d1b19a038)" style="fill: #ff0000"/>
   </g>
   <g id="patch_78">
    <path d="M 363.095183 35.675624 
L 356.28824 35.675624 
L 355.21346 35.450936 
L 350.834725 35.450936 
L 357.087993 36.684345 
L 362.280956 36.684345 
L 368.534224 35.450936 
L 364.159107 35.450936 
L 363.095183 35.675624 
z
M 357.373877 35.904543 
L 361.99869 35.904543 
L 359.689902 36.395157 
L 357.373877 35.904543 
z
" clip-path="url(#p8d1b19a038)" style="fill: #008000"/>
   </g>
   <g id="patch_79">
    <path d="M 368.534224 34.311301 
Q 367.053691 34.267684 365.452754 34.245622 
Q 363.851817 34.223306 362.108177 34.223306 
Q 356.908476 34.223306 353.8716 34.388646 
Q 350.834725 34.553987 350.834725 34.83674 
Q 350.834725 35.120508 353.8716 35.285595 
Q 356.908476 35.450936 362.108177 35.450936 
Q 363.851817 35.450936 365.452754 35.42862 
Q 367.053691 35.406557 368.534224 35.36294 
L 368.534224 35.118225 
Q 367.040313 35.176044 365.590996 35.202924 
Q 364.14168 35.229805 362.540743 35.229805 
Q 359.668866 35.229805 358.023334 35.125072 
Q 356.382262 35.020593 356.382262 34.83674 
Q 356.382262 34.653648 358.023334 34.548915 
Q 359.668866 34.444436 362.540743 34.444436 
Q 364.14168 34.444436 365.590996 34.471317 
Q 367.040313 34.498451 368.534224 34.55627 
L 368.534224 34.311301 
z
" clip-path="url(#p8d1b19a038)" style="fill: #0000ff"/>
   </g>
   <g id="patch_80">
    <path d="M 368.534224 50.283892 
Q 366.7492 43.484119 364.829308 40.068707 
Q 362.909416 36.684345 360.86259 36.684345 
Q 356.237396 36.684345 353.53606 56.92842 
Q 350.834725 77.172495 350.834725 111.792347 
Q 350.834725 146.815839 353.583661 166.904668 
Q 356.336563 186.993497 361.124393 186.993497 
Q 362.968917 186.993497 364.658739 184.261168 
Q 366.352528 181.559888 367.851948 176.219426 
L 367.851948 146.256953 
Q 366.304928 153.118825 364.773774 156.503187 
Q 363.242621 159.918599 361.703534 159.918599 
Q 358.85543 159.918599 357.312376 147.436823 
Q 355.769323 134.986095 355.769323 111.792347 
Q 355.769323 88.815943 357.256842 76.272068 
Q 358.744362 63.759243 361.481398 63.759243 
Q 362.227141 63.759243 362.865783 64.473374 
Q 363.504424 65.218555 364.012164 66.771015 
L 364.012164 94.901585 
L 361.096626 94.901585 
L 361.096626 119.958285 
L 368.534224 119.958285 
L 368.534224 50.283892 
z
" clip-path="url(#p8d1b19a038)" style="fill: #ffa600"/>
   </g>
   <g id="patch_81">
    <path d="M 350.834725 34.223306 
L 368.534224 34.223306 
L 368.534224 34.199751 
L 362.16652 34.199751 
L 362.16652 34.102532 
L 357.214777 34.102532 
L 357.214777 34.199751 
L 350.834725 34.199751 
L 350.834725 34.223306 
z
" clip-path="url(#p8d1b19a038)" style="fill: #ff0000"/>
   </g>
   <g id="patch_82">
    <path d="M 381.726235 34.103021 
L 374.919292 34.103021 
L 373.844512 34.102532 
L 369.465776 34.102532 
L 375.719044 34.105215 
L 380.912007 34.105215 
L 387.165275 34.102532 
L 382.790159 34.102532 
L 381.726235 34.103021 
z
M 376.004929 34.103519 
L 380.629742 34.103519 
L 378.320954 34.104586 
L 376.004929 34.103519 
z
" clip-path="url(#p8d1b19a038)" style="fill: #008000"/>
   </g>
   <g id="patch_83">
    <path d="M 387.165275 50.55858 
Q 385.684743 45.605759 384.083806 43.100553 
Q 382.482868 40.566552 380.739229 40.566552 
Q 375.539527 40.566552 372.502652 59.341199 
Q 369.465776 78.115847 369.465776 110.222797 
Q 369.465776 142.44493 372.502652 161.190782 
Q 375.539527 179.965429 380.739229 179.965429 
Q 382.482868 179.965429 384.083806 177.431428 
Q 385.684743 174.926222 387.165275 169.973401 
L 387.165275 142.185771 
Q 385.671365 148.751138 384.222048 151.803458 
Q 382.772732 154.855778 381.171794 154.855778 
Q 378.299918 154.855778 376.654386 142.963248 
Q 375.013314 131.099514 375.013314 110.222797 
Q 375.013314 89.432467 376.654386 77.539937 
Q 378.299918 65.676203 381.171794 65.676203 
Q 382.772732 65.676203 384.222048 68.728523 
Q 385.671365 71.809638 387.165275 78.375006 
L 387.165275 50.55858 
z
" clip-path="url(#p8d1b19a038)" style="fill: #0000ff"/>
   </g>
   <g id="patch_84">
    <path d="M 387.165275 34.689818 
Q 385.380252 34.397517 383.46036 34.250698 
Q 381.540468 34.105215 379.493641 34.105215 
Q 374.868447 34.105215 372.167112 34.975447 
Q 369.465776 35.845678 369.465776 37.333881 
Q 369.465776 38.839435 372.214712 39.702994 
Q 374.967615 40.566552 379.755445 40.566552 
Q 381.599969 40.566552 383.289791 40.449097 
Q 384.98358 40.332977 386.483 40.103407 
L 386.483 38.815411 
Q 384.93598 39.110382 383.404826 39.255865 
Q 381.873673 39.402684 380.334586 39.402684 
Q 377.486482 39.402684 375.943428 38.86613 
Q 374.400374 38.33091 374.400374 37.333881 
Q 374.400374 36.346195 375.887894 35.806972 
Q 377.375414 35.269083 380.112449 35.269083 
Q 380.858193 35.269083 381.496834 35.299781 
Q 382.135476 35.331814 382.643216 35.39855 
L 382.643216 36.607798 
L 379.727678 36.607798 
L 379.727678 37.68491 
L 387.165275 37.68491 
L 387.165275 34.689818 
z
" clip-path="url(#p8d1b19a038)" style="fill: #ffa600"/>
   </g>
   <g id="patch_85">
    <path d="M 400.357287 43.826557 
L 393.550344 43.826557 
L 392.475563 41.563956 
L 388.096828 41.563956 
L 394.350096 53.984306 
L 399.543059 53.984306 
L 405.796327 41.563956 
L 401.421211 41.563956 
L 400.357287 43.826557 
z
M 394.635981 46.131749 
L 399.260793 46.131749 
L 396.952006 51.072205 
L 394.635981 46.131749 
z
" clip-path="url(#p8d1b19a038)" style="fill: #008000"/>
   </g>
   <g id="patch_86">
    <path d="M 405.796327 34.637362 
Q 404.315795 34.372259 402.714857 34.238166 
Q 401.11392 34.102532 399.370281 34.102532 
Q 394.170579 34.102532 391.133704 35.107458 
Q 388.096828 36.112385 388.096828 37.830932 
Q 388.096828 39.555644 391.133704 40.55903 
Q 394.170579 41.563956 399.370281 41.563956 
Q 401.11392 41.563956 402.714857 41.428322 
Q 404.315795 41.294229 405.796327 41.029125 
L 405.796327 39.541773 
Q 404.302416 39.893189 402.8531 40.056566 
Q 401.403783 40.219944 399.802846 40.219944 
Q 396.93097 40.219944 395.285438 39.583388 
Q 393.644366 38.948373 393.644366 37.830932 
Q 393.644366 36.718115 395.285438 36.081559 
Q 396.93097 35.446544 399.802846 35.446544 
Q 401.403783 35.446544 402.8531 35.609921 
Q 404.302416 35.77484 405.796327 36.126256 
L 405.796327 34.637362 
z
" clip-path="url(#p8d1b19a038)" style="fill: #0000ff"/>
   </g>
   <g id="patch_87">
    <path d="M 405.796327 56.087612 
Q 404.011304 55.035959 402.091412 54.507732 
Q 400.17152 53.984306 398.124693 53.984306 
Q 393.499499 53.984306 390.798164 57.115254 
Q 388.096828 60.246203 388.096828 65.600508 
Q 388.096828 71.01724 390.845764 74.124178 
Q 393.598667 77.231116 398.386497 77.231116 
Q 400.231021 77.231116 401.920843 76.808534 
Q 403.614632 76.390754 405.114052 75.564798 
L 405.114052 70.930803 
Q 403.567031 71.99206 402.035878 72.515485 
Q 400.504724 73.043713 398.965637 73.043713 
Q 396.117533 73.043713 394.57448 71.113282 
Q 393.031426 69.187652 393.031426 65.600508 
Q 393.031426 62.046978 394.518946 60.106943 
Q 396.006465 58.171709 398.743501 58.171709 
Q 399.489244 58.171709 400.127886 58.282157 
Q 400.766528 58.397407 401.274268 58.63751 
L 401.274268 62.988183 
L 398.35873 62.988183 
L 398.35873 66.863452 
L 405.796327 66.863452 
L 405.796327 56.087612 
z
" clip-path="url(#p8d1b19a038)" style="fill: #ffa600"/>
   </g>
   <g id="patch_88">
    <path d="M 418.988338 36.903136 
L 412.181395 36.903136 
L 411.106615 35.932681 
L 406.72788 35.932681 
L 412.981148 41.259909 
L 418.174111 41.259909 
L 424.427379 35.932681 
L 420.052263 35.932681 
L 418.988338 36.903136 
z
M 413.267032 37.891858 
L 417.891845 37.891858 
L 415.583058 40.010876 
L 413.267032 37.891858 
z
" clip-path="url(#p8d1b19a038)" style="fill: #008000"/>
   </g>
   <g id="patch_89">
    <path d="M 424.427379 34.769001 
Q 422.946846 34.724463 421.345909 34.701936 
Q 419.744972 34.679149 418.001333 34.679149 
Q 412.801631 34.679149 409.764755 34.847978 
Q 406.72788 35.016808 406.72788 35.305526 
Q 406.72788 35.595281 409.764755 35.763851 
Q 412.801631 35.932681 418.001333 35.932681 
Q 419.744972 35.932681 421.345909 35.909894 
Q 422.946846 35.887366 424.427379 35.842828 
L 424.427379 35.592951 
Q 422.933468 35.651989 421.484152 35.679437 
Q 420.034835 35.706885 418.433898 35.706885 
Q 415.562021 35.706885 413.91649 35.599942 
Q 412.275417 35.493258 412.275417 35.305526 
Q 412.275417 35.118571 413.91649 35.011629 
Q 415.562021 34.904945 418.433898 34.904945 
Q 420.034835 34.904945 421.484152 34.932393 
Q 422.933468 34.9601 424.427379 35.019138 
L 424.427379 34.769001 
z
" clip-path="url(#p8d1b19a038)" style="fill: #0000ff"/>
   </g>
   <g id="patch_90">
    <path d="M 424.427379 54.920161 
Q 422.642356 48.090035 420.722464 44.659378 
Q 418.802572 41.259909 416.755745 41.259909 
Q 412.130551 41.259909 409.429215 61.594348 
Q 406.72788 81.928787 406.72788 116.703173 
Q 406.72788 151.883 409.476816 172.0615 
Q 412.229719 192.24 417.017548 192.24 
Q 418.862073 192.24 420.551895 189.495474 
Q 422.245684 186.782137 423.745103 181.417837 
L 423.745103 151.321619 
Q 422.198083 158.214121 420.66693 161.61359 
Q 419.135776 165.044247 417.596689 165.044247 
Q 414.748585 165.044247 413.205532 152.506756 
Q 411.662478 140.000452 411.662478 116.703173 
Q 411.662478 93.624208 413.149997 81.024341 
Q 414.637517 68.455661 417.374553 68.455661 
Q 418.120296 68.455661 418.758938 69.172981 
Q 419.39758 69.921488 419.90532 71.480877 
L 419.90532 99.737015 
L 416.989781 99.737015 
L 416.989781 124.905561 
L 424.427379 124.905561 
L 424.427379 54.920161 
z
" clip-path="url(#p8d1b19a038)" style="fill: #ffa600"/>
   </g>
   <g id="patch_91">
    <path d="M 406.72788 34.679149 
L 424.427379 34.679149 
L 424.427379 34.566692 
L 418.059675 34.566692 
L 418.059675 34.102532 
L 413.107932 34.102532 
L 413.107932 34.566692 
L 406.72788 34.566692 
L 406.72788 34.679149 
z
" clip-path="url(#p8d1b19a038)" style="fill: #ff0000"/>
   </g>
   <g id="patch_92">
    <path d="M 443.058431 47.416326 
Q 441.577898 42.414696 439.976961 39.884802 
Q 438.376024 37.325828 436.632384 37.325828 
Q 431.432683 37.325828 428.395807 56.285496 
Q 425.358932 75.245164 425.358932 107.668522 
Q 425.358932 140.208197 428.395807 159.138786 
Q 431.432683 178.098453 436.632384 178.098453 
Q 438.376024 178.098453 439.976961 175.53948 
Q 441.577898 173.009585 443.058431 168.007955 
L 443.058431 139.946484 
Q 441.56452 146.576552 440.115203 149.658952 
Q 438.665887 152.741352 437.06495 152.741352 
Q 434.193073 152.741352 432.547541 140.731623 
Q 430.906469 128.750974 430.906469 107.668522 
Q 430.906469 86.673307 432.547541 74.663579 
Q 434.193073 62.68293 437.06495 62.68293 
Q 438.665887 62.68293 440.115203 65.76533 
Q 441.56452 68.876809 443.058431 75.506877 
L 443.058431 47.416326 
z
" clip-path="url(#p8d1b19a038)" style="fill: #0000ff"/>
   </g>
   <g id="patch_93">
    <path d="M 443.058431 34.188703 
Q 441.273407 34.145617 439.353515 34.123976 
Q 437.433623 34.102532 435.386797 34.102532 
Q 430.761603 34.102532 428.060267 34.230805 
Q 425.358932 34.359077 425.358932 34.57844 
Q 425.358932 34.80036 428.107868 34.927649 
Q 430.86077 35.054938 435.6486 35.054938 
Q 437.493124 35.054938 439.182946 35.037625 
Q 440.876735 35.020509 442.376155 34.98667 
L 442.376155 34.796818 
Q 440.829135 34.840297 439.297981 34.861742 
Q 437.766828 34.883383 436.227741 34.883383 
Q 433.379637 34.883383 431.836583 34.804294 
Q 430.29353 34.725403 430.29353 34.57844 
Q 430.29353 34.432854 431.781049 34.353372 
Q 433.268569 34.274087 436.005605 34.274087 
Q 436.751348 34.274087 437.38999 34.278612 
Q 438.028631 34.283334 438.536371 34.29317 
L 438.536371 34.471415 
L 435.620833 34.471415 
L 435.620833 34.630182 
L 443.058431 34.630182 
L 443.058431 34.188703 
z
" clip-path="url(#p8d1b19a038)" style="fill: #ffa600"/>
   </g>
   <g id="patch_94">
    <path d="M 425.358932 37.325828 
L 443.058431 37.325828 
L 443.058431 36.882941 
L 436.690727 36.882941 
L 436.690727 35.054938 
L 431.738984 35.054938 
L 431.738984 36.882941 
L 425.358932 36.882941 
L 425.358932 37.325828 
z
" clip-path="url(#p8d1b19a038)" style="fill: #ff0000"/>
   </g>
   <g id="patch_95">
    <path d="M 456.250442 47.620292 
L 449.443499 47.620292 
L 448.368719 46.400587 
L 443.989983 46.400587 
L 450.243251 53.096053 
L 455.436214 53.096053 
L 461.689482 46.400587 
L 457.314366 46.400587 
L 456.250442 47.620292 
z
M 450.529136 48.862957 
L 455.153949 48.862957 
L 452.845161 51.52622 
L 450.529136 48.862957 
z
" clip-path="url(#p8d1b19a038)" style="fill: #008000"/>
   </g>
   <g id="patch_96">
    <path d="M 461.689482 55.924906 
Q 460.20895 54.522708 458.608013 53.813457 
Q 457.007075 53.096053 455.263436 53.096053 
Q 450.063734 53.096053 447.026859 58.411363 
Q 443.989983 63.726673 443.989983 72.816505 
Q 443.989983 81.938946 447.026859 87.246104 
Q 450.063734 92.561414 455.263436 92.561414 
Q 457.007075 92.561414 458.608013 91.84401 
Q 460.20895 91.134759 461.689482 89.73256 
L 461.689482 81.865576 
Q 460.195572 83.724304 458.746255 84.588449 
Q 457.296939 85.452595 455.696001 85.452595 
Q 452.824125 85.452595 451.178593 82.085688 
Q 449.537521 78.726934 449.537521 72.816505 
Q 449.537521 66.930533 451.178593 63.563626 
Q 452.824125 60.204872 455.696001 60.204872 
Q 457.296939 60.204872 458.746255 61.069018 
Q 460.195572 61.941316 461.689482 63.800044 
L 461.689482 55.924906 
z
" clip-path="url(#p8d1b19a038)" style="fill: #0000ff"/>
   </g>
   <g id="patch_97">
    <path d="M 461.689482 34.630685 
Q 459.904459 34.366608 457.984567 34.233967 
Q 456.064675 34.102532 454.017848 34.102532 
Q 449.392654 34.102532 446.691319 34.888732 
Q 443.989983 35.674933 443.989983 37.019433 
Q 443.989983 38.379608 446.738919 39.159779 
Q 449.491822 39.939951 454.279652 39.939951 
Q 456.124176 39.939951 457.813998 39.833838 
Q 459.507787 39.728931 461.007207 39.521528 
L 461.007207 38.357903 
Q 459.460187 38.624391 457.929033 38.755827 
Q 456.39788 38.888468 454.858793 38.888468 
Q 452.010689 38.888468 450.467635 38.403724 
Q 448.924581 37.920187 448.924581 37.019433 
Q 448.924581 36.127119 450.412101 35.639964 
Q 451.899621 35.154015 454.636656 35.154015 
Q 455.3824 35.154015 456.021041 35.181749 
Q 456.659683 35.210689 457.167423 35.27098 
L 457.167423 36.363461 
L 454.251885 36.363461 
L 454.251885 37.336566 
L 461.689482 37.336566 
L 461.689482 34.630685 
z
" clip-path="url(#p8d1b19a038)" style="fill: #ffa600"/>
   </g>
   <g id="patch_98">
    <path d="M 443.989983 46.400587 
L 461.689482 46.400587 
L 461.689482 45.140583 
L 455.321779 45.140583 
L 455.321779 39.939951 
L 450.370035 39.939951 
L 450.370035 45.140583 
L 443.989983 45.140583 
L 443.989983 46.400587 
z
" clip-path="url(#p8d1b19a038)" style="fill: #ff0000"/>
   </g>
   <g id="patch_99">
    <path d="M 480.320534 34.362953 
Q 478.840002 34.233868 477.239064 34.168575 
Q 475.638127 34.102532 473.894488 34.102532 
Q 468.694786 34.102532 465.657911 34.591854 
Q 462.621035 35.081175 462.621035 35.917976 
Q 462.621035 36.757778 465.657911 37.246349 
Q 468.694786 37.735671 473.894488 37.735671 
Q 475.638127 37.735671 477.239064 37.669628 
Q 478.840002 37.604335 480.320534 37.47525 
L 480.320534 36.751024 
Q 478.826623 36.922136 477.377307 37.001689 
Q 475.92799 37.081241 474.327053 37.081241 
Q 471.455177 37.081241 469.809645 36.771287 
Q 468.168573 36.462084 468.168573 35.917976 
Q 468.168573 35.376119 469.809645 35.066166 
Q 471.455177 34.756962 474.327053 34.756962 
Q 475.92799 34.756962 477.377307 34.836515 
Q 478.826623 34.916817 480.320534 35.08793 
L 480.320534 34.362953 
z
" clip-path="url(#p8d1b19a038)" style="fill: #0000ff"/>
   </g>
   <g id="patch_100">
    <path d="M 480.320534 51.091043 
Q 478.535511 44.413357 476.615619 41.059268 
Q 474.695727 37.735671 472.6489 37.735671 
Q 468.023706 37.735671 465.322371 57.61627 
Q 462.621035 77.496869 462.621035 111.495132 
Q 462.621035 145.889788 465.369971 165.617928 
Q 468.122874 185.346068 472.910704 185.346068 
Q 474.755228 185.346068 476.44505 182.662797 
Q 478.138839 180.010018 479.638259 174.765443 
L 479.638259 145.340937 
Q 478.091238 152.079606 476.560085 155.403203 
Q 475.028931 158.757292 473.489844 158.757292 
Q 470.64174 158.757292 469.098687 146.499622 
Q 467.555633 134.272444 467.555633 111.495132 
Q 467.555633 88.931262 469.043153 76.612609 
Q 470.530672 64.324448 473.267708 64.324448 
Q 474.013451 64.324448 474.652093 65.025757 
Q 475.290735 65.757558 475.798475 67.282144 
L 475.798475 94.907639 
L 472.882937 94.907639 
L 472.882937 119.514454 
L 480.320534 119.514454 
L 480.320534 51.091043 
z
" clip-path="url(#p8d1b19a038)" style="fill: #ffa600"/>
   </g>
   <g id="patch_101">
    <path d="M 493.512545 37.464437 
L 486.705603 37.464437 
L 485.630822 36.911976 
L 481.252087 36.911976 
L 487.505355 39.944665 
L 492.698318 39.944665 
L 498.951586 36.911976 
L 494.57647 36.911976 
L 493.512545 37.464437 
z
M 487.791239 38.027298 
L 492.416052 38.027298 
L 490.107265 39.233614 
L 487.791239 38.027298 
z
" clip-path="url(#p8d1b19a038)" style="fill: #008000"/>
   </g>
   <g id="patch_102">
    <path d="M 498.951586 54.20182 
Q 497.471053 50.505784 495.870116 48.636278 
Q 494.269179 46.745283 492.52554 46.745283 
Q 487.325838 46.745283 484.288962 60.755837 
Q 481.252087 74.766391 481.252087 98.726158 
Q 481.252087 122.77188 484.288962 136.760945 
Q 487.325838 150.7715 492.52554 150.7715 
Q 494.269179 150.7715 495.870116 148.880505 
Q 497.471053 147.010998 498.951586 143.314962 
L 498.951586 122.578482 
Q 497.457675 127.477879 496.008359 129.755668 
Q 494.559042 132.033458 492.958105 132.033458 
Q 490.086228 132.033458 488.440697 123.158674 
Q 486.799624 114.305379 486.799624 98.726158 
Q 486.799624 83.211403 488.440697 74.33662 
Q 490.086228 65.483325 492.958105 65.483325 
Q 494.559042 65.483325 496.008359 67.761114 
Q 497.457675 70.060392 498.951586 74.959788 
L 498.951586 54.20182 
z
" clip-path="url(#p8d1b19a038)" style="fill: #0000ff"/>
   </g>
   <g id="patch_103">
    <path d="M 498.951586 40.559965 
Q 497.166563 40.252315 495.246671 40.097787 
Q 493.326779 39.944665 491.279952 39.944665 
Q 486.654758 39.944665 483.953422 40.860592 
Q 481.252087 41.776519 481.252087 43.342866 
Q 481.252087 44.927476 484.001023 45.836379 
Q 486.753926 46.745283 491.541755 46.745283 
Q 493.38628 46.745283 495.076102 46.62166 
Q 496.769891 46.499443 498.26931 46.257818 
L 498.26931 44.90219 
Q 496.72229 45.21265 495.191137 45.365773 
Q 493.659983 45.5203 492.120896 45.5203 
Q 489.272792 45.5203 487.729739 44.955572 
Q 486.186685 44.392249 486.186685 43.342866 
Q 486.186685 42.303317 487.674205 41.73578 
Q 489.161724 41.169647 491.89876 41.169647 
Q 492.644503 41.169647 493.283145 41.201957 
Q 493.921787 41.235672 494.429527 41.305912 
L 494.429527 42.578657 
L 491.513988 42.578657 
L 491.513988 43.712328 
L 498.951586 43.712328 
L 498.951586 40.559965 
z
" clip-path="url(#p8d1b19a038)" style="fill: #ffa600"/>
   </g>
   <g id="patch_104">
    <path d="M 481.252087 36.911976 
L 498.951586 36.911976 
L 498.951586 36.364056 
L 492.583882 36.364056 
L 492.583882 34.102532 
L 487.632139 34.102532 
L 487.632139 36.364056 
L 481.252087 36.364056 
L 481.252087 36.911976 
z
" clip-path="url(#p8d1b19a038)" style="fill: #ff0000"/>
   </g>
   <g id="patch_105">
    <path d="M 517.582638 53.058206 
Q 516.102105 49.406929 514.501168 47.560062 
Q 512.900231 45.691966 511.156591 45.691966 
Q 505.95689 45.691966 502.920014 59.532855 
Q 499.883139 73.373743 499.883139 97.043361 
Q 499.883139 120.797892 502.920014 134.617552 
Q 505.95689 148.45844 511.156591 148.45844 
Q 512.900231 148.45844 514.501168 146.590345 
Q 516.102105 144.743478 517.582638 141.092201 
L 517.582638 120.606837 
Q 516.088727 125.446902 514.63941 127.697108 
Q 513.190094 129.947313 511.589157 129.947313 
Q 508.71728 129.947313 507.071748 121.180002 
Q 505.430676 112.433919 505.430676 97.043361 
Q 505.430676 81.716487 507.071748 72.949176 
Q 508.71728 64.203093 511.589157 64.203093 
Q 513.190094 64.203093 514.63941 66.453299 
Q 516.088727 68.724733 517.582638 73.564798 
L 517.582638 53.058206 
z
" clip-path="url(#p8d1b19a038)" style="fill: #0000ff"/>
   </g>
   <g id="patch_106">
    <path d="M 517.582638 35.151111 
Q 515.797614 34.626821 513.877722 34.36348 
Q 511.957831 34.102532 509.911004 34.102532 
Q 505.28581 34.102532 502.584474 35.663431 
Q 499.883139 37.224329 499.883139 39.893658 
Q 499.883139 42.594109 502.632075 44.143038 
Q 505.384978 45.691966 510.172807 45.691966 
Q 512.017331 45.691966 513.707153 45.481293 
Q 515.400942 45.273013 516.900362 44.861243 
L 516.900362 42.551017 
Q 515.353342 43.080094 513.822188 43.341042 
Q 512.291035 43.604384 510.751948 43.604384 
Q 507.903844 43.604384 506.36079 42.641989 
Q 504.817737 41.681988 504.817737 39.893658 
Q 504.817737 38.122086 506.305256 37.154903 
Q 507.792776 36.190114 510.529812 36.190114 
Q 511.275555 36.190114 511.914197 36.245177 
Q 512.552838 36.302633 513.060578 36.422334 
L 513.060578 38.591313 
L 510.14504 38.591313 
L 510.14504 40.523284 
L 517.582638 40.523284 
L 517.582638 35.151111 
z
" clip-path="url(#p8d1b19a038)" style="fill: #ffa600"/>
   </g>
   <g id="patch_107">
    <path d="M 530.774649 43.05072 
L 523.967706 43.05072 
L 522.892926 40.749205 
L 518.51419 40.749205 
L 524.767458 53.383172 
L 529.960421 53.383172 
L 536.213689 40.749205 
L 531.838573 40.749205 
L 530.774649 43.05072 
z
M 525.053343 45.395559 
L 529.678156 45.395559 
L 527.369368 50.420986 
L 525.053343 45.395559 
z
" clip-path="url(#p8d1b19a038)" style="fill: #008000"/>
   </g>
   <g id="patch_108">
    <path d="M 536.213689 34.578961 
Q 534.733157 34.342806 533.13222 34.223355 
Q 531.531282 34.102532 529.787643 34.102532 
Q 524.587941 34.102532 521.551066 34.997725 
Q 518.51419 35.892918 518.51419 37.423809 
Q 518.51419 38.960191 521.551066 39.854011 
Q 524.587941 40.749205 529.787643 40.749205 
Q 531.531282 40.749205 533.13222 40.628381 
Q 534.733157 40.50893 536.213689 40.272775 
L 536.213689 38.947834 
Q 534.719779 39.260877 533.270462 39.406415 
Q 531.821146 39.551952 530.220208 39.551952 
Q 527.348332 39.551952 525.7028 38.984905 
Q 524.061728 38.419231 524.061728 37.423809 
Q 524.061728 36.432506 525.7028 35.865458 
Q 527.348332 35.299784 530.220208 35.299784 
Q 531.821146 35.299784 533.270462 35.445322 
Q 534.719779 35.592232 536.213689 35.905275 
L 536.213689 34.578961 
z
" clip-path="url(#p8d1b19a038)" style="fill: #0000ff"/>
   </g>
   <g id="patch_109">
    <path d="M 536.213689 56.17513 
Q 534.428666 54.779151 532.508774 54.077974 
Q 530.588882 53.383172 528.542055 53.383172 
Q 523.916861 53.383172 521.215526 57.539237 
Q 518.51419 61.695303 518.51419 68.802684 
Q 518.51419 75.992932 521.263126 80.117126 
Q 524.016029 84.24132 528.803859 84.24132 
Q 530.648383 84.24132 532.338205 83.680378 
Q 534.031994 83.125811 535.531414 82.029426 
L 535.531414 75.878194 
Q 533.984394 77.286922 532.45324 77.981724 
Q 530.922087 78.682901 529.383 78.682901 
Q 526.534896 78.682901 524.991842 76.120419 
Q 523.448788 73.564311 523.448788 68.802684 
Q 523.448788 64.085678 524.936308 61.510447 
Q 526.423828 58.941591 529.160864 58.941591 
Q 529.906607 58.941591 530.545248 59.0882 
Q 531.18389 59.241184 531.69163 59.559901 
L 531.69163 65.335047 
L 528.776092 65.335047 
L 528.776092 70.479134 
L 536.213689 70.479134 
L 536.213689 56.17513 
z
" clip-path="url(#p8d1b19a038)" style="fill: #ffa600"/>
   </g>
   <g id="patch_110">
    <path d="M 554.844741 53.475155 
Q 553.364209 52.5403 551.763271 52.067437 
Q 550.162334 51.589139 548.418695 51.589139 
Q 543.218993 51.589139 540.182118 55.132893 
Q 537.145242 58.676648 537.145242 64.736903 
Q 537.145242 70.818898 540.182118 74.357218 
Q 543.218993 77.900972 548.418695 77.900972 
Q 550.162334 77.900972 551.763271 77.422674 
Q 553.364209 76.949811 554.844741 76.014956 
L 554.844741 70.769982 
Q 553.35083 72.009209 551.901514 72.58534 
Q 550.452197 73.161472 548.85126 73.161472 
Q 545.979384 73.161472 544.333852 70.916732 
Q 542.69278 68.677427 542.69278 64.736903 
Q 542.69278 60.812684 544.333852 58.567944 
Q 545.979384 56.328639 548.85126 56.328639 
Q 550.452197 56.328639 551.901514 56.90477 
Q 553.35083 57.486337 554.844741 58.725564 
L 554.844741 53.475155 
z
" clip-path="url(#p8d1b19a038)" style="fill: #0000ff"/>
   </g>
   <g id="patch_111">
    <path d="M 554.844741 35.684671 
Q 553.059718 34.893601 551.139826 34.49626 
Q 549.219934 34.102532 547.173107 34.102532 
Q 542.547913 34.102532 539.846578 36.457679 
Q 537.145242 38.812826 537.145242 42.840417 
Q 537.145242 46.914966 539.894178 49.252052 
Q 542.647081 51.589139 547.434911 51.589139 
Q 549.279435 51.589139 550.969257 51.271266 
Q 552.663046 50.957006 554.162466 50.335709 
L 554.162466 46.849947 
Q 552.615445 47.64824 551.084292 48.041969 
Q 549.553138 48.43931 548.014052 48.43931 
Q 545.165947 48.43931 543.622894 46.98721 
Q 542.07984 45.538722 542.07984 42.840417 
Q 542.07984 40.167397 543.56736 38.708073 
Q 545.054879 37.252361 547.791915 37.252361 
Q 548.537658 37.252361 549.1763 37.335441 
Q 549.814942 37.422133 550.322682 37.602743 
L 550.322682 40.875386 
L 547.407144 40.875386 
L 547.407144 43.790423 
L 554.844741 43.790423 
L 554.844741 35.684671 
z
" clip-path="url(#p8d1b19a038)" style="fill: #ffa600"/>
   </g>
   <g id="patch_112">
    <path d="M 573.475793 46.331227 
Q 571.99526 45.587814 570.394323 45.211785 
Q 568.793386 44.831434 567.049747 44.831434 
Q 561.850045 44.831434 558.813169 47.649489 
Q 555.776294 50.467545 555.776294 55.286765 
Q 555.776294 60.123274 558.813169 62.937007 
Q 561.850045 65.755062 567.049747 65.755062 
Q 568.793386 65.755062 570.394323 65.374711 
Q 571.99526 64.998682 573.475793 64.255269 
L 573.475793 60.084374 
Q 571.981882 61.069829 570.532566 61.527979 
Q 569.083249 61.986129 567.482312 61.986129 
Q 564.610435 61.986129 562.964904 60.201073 
Q 561.323831 58.420338 561.323831 55.286765 
Q 561.323831 52.166158 562.964904 50.381101 
Q 564.610435 48.600367 567.482312 48.600367 
Q 569.083249 48.600367 570.532566 49.058517 
Q 571.981882 49.520989 573.475793 50.506444 
L 573.475793 46.331227 
z
" clip-path="url(#p8d1b19a038)" style="fill: #0000ff"/>
   </g>
   <g id="patch_113">
    <path d="M 573.475793 35.073253 
Q 571.69077 34.587892 569.770878 34.344104 
Q 567.850986 34.102532 565.804159 34.102532 
Q 561.178965 34.102532 558.477629 35.547532 
Q 555.776294 36.992531 555.776294 39.463659 
Q 555.776294 41.963597 558.52523 43.397516 
Q 561.278133 44.831434 566.065962 44.831434 
Q 567.910487 44.831434 569.600309 44.636403 
Q 571.294098 44.443589 572.793517 44.062393 
L 572.793517 41.923704 
Q 571.246497 42.413497 569.715344 42.655069 
Q 568.18419 42.898858 566.645103 42.898858 
Q 563.796999 42.898858 562.253946 42.007922 
Q 560.710892 41.119203 560.710892 39.463659 
Q 560.710892 37.823628 562.198412 36.92826 
Q 563.685931 36.035108 566.422967 36.035108 
Q 567.16871 36.035108 567.807352 36.086082 
Q 568.445994 36.139272 568.953734 36.250085 
L 568.953734 38.258015 
L 566.038195 38.258015 
L 566.038195 40.046534 
L 573.475793 40.046534 
L 573.475793 35.073253 
z
" clip-path="url(#p8d1b19a038)" style="fill: #ffa600"/>
   </g>
   <g id="patch_114">
    <path d="M 592.106845 34.155544 
Q 590.626312 34.129267 589.025375 34.115976 
Q 587.424438 34.102532 585.680798 34.102532 
Q 580.481097 34.102532 577.444221 34.202139 
Q 574.407346 34.301747 574.407346 34.472087 
Q 574.407346 34.643039 577.444221 34.742494 
Q 580.481097 34.842101 585.680798 34.842101 
Q 587.424438 34.842101 589.025375 34.828657 
Q 590.626312 34.815366 592.106845 34.789089 
L 592.106845 34.641664 
Q 590.612934 34.676496 589.163617 34.69269 
Q 587.714301 34.708884 586.113364 34.708884 
Q 583.241487 34.708884 581.595955 34.645789 
Q 579.954883 34.582847 579.954883 34.472087 
Q 579.954883 34.361786 581.595955 34.298691 
Q 583.241487 34.235749 586.113364 34.235749 
Q 587.714301 34.235749 589.163617 34.251943 
Q 590.612934 34.268289 592.106845 34.303121 
L 592.106845 34.155544 
z
" clip-path="url(#p8d1b19a038)" style="fill: #0000ff"/>
   </g>
   <g id="patch_115">
    <path d="M 592.106845 37.024813 
Q 590.321821 35.933457 588.401929 35.385287 
Q 586.482038 34.842101 584.435211 34.842101 
Q 579.810017 34.842101 577.108681 38.091252 
Q 574.407346 41.340403 574.407346 46.89685 
Q 574.407346 52.518081 577.156282 55.742315 
Q 579.909185 58.966549 584.697014 58.966549 
Q 586.541538 58.966549 588.23136 58.528013 
Q 589.925149 58.094461 591.424569 57.237323 
L 591.424569 52.42838 
Q 589.877549 53.529703 588.346395 54.072889 
Q 586.815242 54.621059 585.276155 54.621059 
Q 582.428051 54.621059 580.884997 52.617748 
Q 579.341944 50.61942 579.341944 46.89685 
Q 579.341944 43.209163 580.829463 41.195886 
Q 582.316983 39.187592 585.054019 39.187592 
Q 585.799762 39.187592 586.438404 39.302209 
Q 587.077045 39.421809 587.584785 39.670977 
L 587.584785 44.185902 
L 584.669247 44.185902 
L 584.669247 48.207474 
L 592.106845 48.207474 
L 592.106845 37.024813 
z
" clip-path="url(#p8d1b19a038)" style="fill: #ffa600"/>
   </g>
   <g id="patch_116">
    <path d="M 605.298856 34.209497 
L 598.491913 34.209497 
L 597.417133 34.102532 
L 593.038397 34.102532 
L 599.291665 34.689707 
L 604.484628 34.689707 
L 610.737896 34.102532 
L 606.36278 34.102532 
L 605.298856 34.209497 
z
M 599.57755 34.318475 
L 604.202363 34.318475 
L 601.893575 34.552036 
L 599.57755 34.318475 
z
" clip-path="url(#p8d1b19a038)" style="fill: #008000"/>
   </g>
   <g id="patch_117">
    <path d="M 610.737896 52.462223 
Q 609.257364 50.425262 607.656427 49.394939 
Q 606.055489 48.352773 604.31185 48.352773 
Q 599.112148 48.352773 596.075273 56.074276 
Q 593.038397 63.795778 593.038397 77.000495 
Q 593.038397 90.252583 596.075273 97.962243 
Q 599.112148 105.683746 604.31185 105.683746 
Q 606.055489 105.683746 607.656427 104.64158 
Q 609.257364 103.611257 610.737896 101.574296 
L 610.737896 90.145998 
Q 609.243986 92.846156 607.794669 94.101492 
Q 606.345353 95.356828 604.744415 95.356828 
Q 601.872539 95.356828 600.227007 90.465754 
Q 598.585935 85.586522 598.585935 77.000495 
Q 598.585935 68.449997 600.227007 63.558922 
Q 601.872539 58.679691 604.744415 58.679691 
Q 606.345353 58.679691 607.794669 59.935027 
Q 609.243986 61.202206 610.737896 63.902364 
L 610.737896 52.462223 
z
" clip-path="url(#p8d1b19a038)" style="fill: #0000ff"/>
   </g>
   <g id="patch_118">
    <path d="M 610.737896 35.925902 
Q 608.952873 35.307804 607.032981 34.997344 
Q 605.113089 34.689707 603.066262 34.689707 
Q 598.441068 34.689707 595.739733 36.529888 
Q 593.038397 38.37007 593.038397 41.517006 
Q 593.038397 44.700633 595.787333 46.526703 
Q 598.540236 48.352773 603.328066 48.352773 
Q 605.17259 48.352773 606.862412 48.104405 
Q 608.556201 47.858859 610.055621 47.373413 
L 610.055621 44.649831 
Q 608.508601 45.273573 606.977447 45.581211 
Q 605.446294 45.891671 603.907207 45.891671 
Q 601.059103 45.891671 599.516049 44.757081 
Q 597.972995 43.625313 597.972995 41.517006 
Q 597.972995 39.428457 599.460515 38.288221 
Q 600.948035 37.150808 603.685071 37.150808 
Q 604.430814 37.150808 605.069455 37.215723 
Q 605.708097 37.283459 606.215837 37.424578 
L 606.215837 39.98164 
L 603.300299 39.98164 
L 603.300299 42.259288 
L 610.737896 42.259288 
L 610.737896 35.925902 
z
" clip-path="url(#p8d1b19a038)" style="fill: #ffa600"/>
   </g>
   <g id="patch_119">
    <path d="M 629.368948 35.384546 
Q 627.888416 34.749081 626.287478 34.427654 
Q 624.686541 34.102532 622.942902 34.102532 
Q 617.7432 34.102532 614.706325 36.511388 
Q 611.669449 38.920245 611.669449 43.039685 
Q 611.669449 47.173903 614.706325 49.579065 
Q 617.7432 51.987922 622.942902 51.987922 
Q 624.686541 51.987922 626.287478 51.6628 
Q 627.888416 51.341373 629.368948 50.705908 
L 629.368948 47.140652 
Q 627.875037 47.983013 626.425721 48.374637 
Q 624.976404 48.766261 623.375467 48.766261 
Q 620.503591 48.766261 618.858059 47.240405 
Q 617.216987 45.718245 617.216987 43.039685 
Q 617.216987 40.372209 618.858059 38.846353 
Q 620.503591 37.324193 623.375467 37.324193 
Q 624.976404 37.324193 626.425721 37.715817 
Q 627.875037 38.111135 629.368948 38.953496 
L 629.368948 35.384546 
z
" clip-path="url(#p8d1b19a038)" style="fill: #0000ff"/>
   </g>
   <g id="patch_120">
    <path d="M 629.368948 55.828544 
Q 627.583925 53.908233 625.664033 52.943693 
Q 623.744141 51.987922 621.697314 51.987922 
Q 617.07212 51.987922 614.370785 57.705013 
Q 611.669449 63.422105 611.669449 73.199032 
Q 611.669449 83.089951 614.418385 88.7632 
Q 617.171288 94.436449 621.959118 94.436449 
Q 623.803642 94.436449 625.493464 93.664817 
Q 627.187253 92.901953 628.686673 91.393764 
L 628.686673 82.932118 
Q 627.139652 84.869966 625.608499 85.825738 
Q 624.077345 86.790277 622.538259 86.790277 
Q 619.690154 86.790277 618.147101 83.265322 
Q 616.604047 79.749136 616.604047 73.199032 
Q 616.604047 66.710309 618.091567 63.167817 
Q 619.579086 59.634093 622.316122 59.634093 
Q 623.061865 59.634093 623.700507 59.83577 
Q 624.339149 60.046215 624.846889 60.484642 
L 624.846889 68.428944 
L 621.931351 68.428944 
L 621.931351 75.50516 
L 629.368948 75.50516 
L 629.368948 55.828544 
z
" clip-path="url(#p8d1b19a038)" style="fill: #ffa600"/>
   </g>
   <g id="patch_121">
    <path d="M 648 35.200921 
Q 646.519467 34.656475 644.91853 34.381086 
Q 643.317593 34.102532 641.573954 34.102532 
Q 636.374252 34.102532 633.337376 36.166365 
Q 630.300501 38.230197 630.300501 41.759605 
Q 630.300501 45.301674 633.337376 47.362341 
Q 636.374252 49.426174 641.573954 49.426174 
Q 643.317593 49.426174 644.91853 49.14762 
Q 646.519467 48.872231 648 48.327784 
L 648 45.273185 
Q 646.506089 45.994894 645.056773 46.330425 
Q 643.607456 46.665956 642.006519 46.665956 
Q 639.134642 46.665956 637.489111 45.358651 
Q 635.848038 44.054511 635.848038 41.759605 
Q 635.848038 39.474195 637.489111 38.16689 
Q 639.134642 36.86275 642.006519 36.86275 
Q 643.607456 36.86275 645.056773 37.198281 
Q 646.506089 37.536977 648 38.258686 
L 648 35.200921 
z
" clip-path="url(#p8d1b19a038)" style="fill: #0000ff"/>
   </g>
   <g id="patch_122">
    <path d="M 648 53.646217 
Q 646.214977 51.536196 644.295085 50.476367 
Q 642.375193 49.426174 640.328366 49.426174 
Q 635.703172 49.426174 633.001836 55.708065 
Q 630.300501 61.989956 630.300501 72.732761 
Q 630.300501 83.600819 633.049437 89.834536 
Q 635.80234 96.068253 640.590169 96.068253 
Q 642.434694 96.068253 644.124516 95.22039 
Q 645.818305 94.382163 647.317724 92.724977 
L 647.317724 83.427392 
Q 645.770704 85.556684 644.239551 86.606877 
Q 642.708397 87.666705 641.16931 87.666705 
Q 638.321206 87.666705 636.778153 83.793515 
Q 635.235099 79.929959 635.235099 72.732761 
Q 635.235099 65.603007 636.722619 61.710547 
Q 638.210138 57.827722 640.947174 57.827722 
Q 641.692917 57.827722 642.331559 58.049322 
Q 642.970201 58.280557 643.477941 58.762298 
L 643.477941 67.491429 
L 640.562402 67.491429 
L 640.562402 75.266714 
L 648 75.266714 
L 648 53.646217 
z
" clip-path="url(#p8d1b19a038)" style="fill: #ffa600"/>
   </g>
   <g id="matplotlib.axis_1">
    <g id="xtick_1">
     <g id="line2d_2">
      <defs>
       <path id="m1803d56c8e" d="M 0 0 
L 0 3.5 
" style="stroke: #000000; stroke-width: 0.8"/>
      </defs>
      <g>
       <use xlink:href="#m1803d56c8e" x="98.84975" y="192.24" style="stroke: #000000; stroke-width: 0.8"/>
      </g>
     </g>
     <g id="text_1">
      <!-- 0 -->
      <g transform="translate(95.6685 206.838437) scale(0.1 -0.1)">
       <defs>
        <path id="DejaVuSans-30" d="M 2034 4250 
Q 1547 4250 1301 3770 
Q 1056 3291 1056 2328 
Q 1056 1369 1301 889 
Q 1547 409 2034 409 
Q 2525 409 2770 889 
Q 3016 1369 3016 2328 
Q 3016 3291 2770 3770 
Q 2525 4250 2034 4250 
z
M 2034 4750 
Q 2819 4750 3233 4129 
Q 3647 3509 3647 2328 
Q 3647 1150 3233 529 
Q 2819 -91 2034 -91 
Q 1250 -91 836 529 
Q 422 1150 422 2328 
Q 422 3509 836 4129 
Q 1250 4750 2034 4750 
z
" transform="scale(0.015625)"/>
       </defs>
       <use xlink:href="#DejaVuSans-30"/>
      </g>
     </g>
    </g>
    <g id="xtick_2">
     <g id="line2d_3">
      <g>
       <use xlink:href="#m1803d56c8e" x="192.005008" y="192.24" style="stroke: #000000; stroke-width: 0.8"/>
      </g>
     </g>
     <g id="text_2">
      <!-- 5 -->
      <g transform="translate(188.823758 206.838437) scale(0.1 -0.1)">
       <defs>
        <path id="DejaVuSans-35" d="M 691 4666 
L 3169 4666 
L 3169 4134 
L 1269 4134 
L 1269 2991 
Q 1406 3038 1543 3061 
Q 1681 3084 1819 3084 
Q 2600 3084 3056 2656 
Q 3513 2228 3513 1497 
Q 3513 744 3044 326 
Q 2575 -91 1722 -91 
Q 1428 -91 1123 -41 
Q 819 9 494 109 
L 494 744 
Q 775 591 1075 516 
Q 1375 441 1709 441 
Q 2250 441 2565 725 
Q 2881 1009 2881 1497 
Q 2881 1984 2565 2268 
Q 2250 2553 1709 2553 
Q 1456 2553 1204 2497 
Q 953 2441 691 2322 
L 691 4666 
z
" transform="scale(0.015625)"/>
       </defs>
       <use xlink:href="#DejaVuSans-35"/>
      </g>
     </g>
    </g>
    <g id="xtick_3">
     <g id="line2d_4">
      <g>
       <use xlink:href="#m1803d56c8e" x="285.160267" y="192.24" style="stroke: #000000; stroke-width: 0.8"/>
      </g>
     </g>
     <g id="text_3">
      <!-- 10 -->
      <g transform="translate(278.797767 206.838437) scale(0.1 -0.1)">
       <defs>
        <path id="DejaVuSans-31" d="M 794 531 
L 1825 531 
L 1825 4091 
L 703 3866 
L 703 4441 
L 1819 4666 
L 2450 4666 
L 2450 531 
L 3481 531 
L 3481 0 
L 794 0 
L 794 531 
z
" transform="scale(0.015625)"/>
       </defs>
       <use xlink:href="#DejaVuSans-31"/>
       <use xlink:href="#DejaVuSans-30" x="63.623047"/>
      </g>
     </g>
    </g>
    <g id="xtick_4">
     <g id="line2d_5">
      <g>
       <use xlink:href="#m1803d56c8e" x="378.315526" y="192.24" style="stroke: #000000; stroke-width: 0.8"/>
      </g>
     </g>
     <g id="text_4">
      <!-- 15 -->
      <g transform="translate(371.953026 206.838437) scale(0.1 -0.1)">
       <use xlink:href="#DejaVuSans-31"/>
       <use xlink:href="#DejaVuSans-35" x="63.623047"/>
      </g>
     </g>
    </g>
    <g id="xtick_5">
     <g id="line2d_6">
      <g>
       <use xlink:href="#m1803d56c8e" x="471.470785" y="192.24" style="stroke: #000000; stroke-width: 0.8"/>
      </g>
     </g>
     <g id="text_5">
      <!-- 20 -->
      <g transform="translate(465.108285 206.838437) scale(0.1 -0.1)">
       <defs>
        <path id="DejaVuSans-32" d="M 1228 531 
L 3431 531 
L 3431 0 
L 469 0 
L 469 531 
Q 828 903 1448 1529 
Q 2069 2156 2228 2338 
Q 2531 2678 2651 2914 
Q 2772 3150 2772 3378 
Q 2772 3750 2511 3984 
Q 2250 4219 1831 4219 
Q 1534 4219 1204 4116 
Q 875 4013 500 3803 
L 500 4441 
Q 881 4594 1212 4672 
Q 1544 4750 1819 4750 
Q 2544 4750 2975 4387 
Q 3406 4025 3406 3419 
Q 3406 3131 3298 2873 
Q 3191 2616 2906 2266 
Q 2828 2175 2409 1742 
Q 1991 1309 1228 531 
z
" transform="scale(0.015625)"/>
       </defs>
       <use xlink:href="#DejaVuSans-32"/>
       <use xlink:href="#DejaVuSans-30" x="63.623047"/>
      </g>
     </g>
    </g>
    <g id="xtick_6">
     <g id="line2d_7">
      <g>
       <use xlink:href="#m1803d56c8e" x="564.626043" y="192.24" style="stroke: #000000; stroke-width: 0.8"/>
      </g>
     </g>
     <g id="text_6">
      <!-- 25 -->
      <g transform="translate(558.263543 206.838437) scale(0.1 -0.1)">
       <use xlink:href="#DejaVuSans-32"/>
       <use xlink:href="#DejaVuSans-35" x="63.623047"/>
      </g>
     </g>
    </g>
   </g>
   <g id="matplotlib.axis_2">
    <g id="ytick_1">
     <g id="line2d_8">
      <defs>
       <path id="m0aa2c1406b" d="M 0 0 
L -3.5 0 
" style="stroke: #000000; stroke-width: 0.8"/>
      </defs>
      <g>
       <use xlink:href="#m0aa2c1406b" x="90" y="180.901632" style="stroke: #000000; stroke-width: 0.8"/>
      </g>
     </g>
     <g id="text_7">
      <!-- 0.007 -->
      <g transform="translate(45.992188 184.700851) scale(0.1 -0.1)">
       <defs>
        <path id="DejaVuSans-2212" d="M 678 2272 
L 4684 2272 
L 4684 1741 
L 678 1741 
L 678 2272 
z
" transform="scale(0.015625)"/>
        <path id="DejaVuSans-2e" d="M 684 794 
L 1344 794 
L 1344 0 
L 684 0 
L 684 794 
z
" transform="scale(0.015625)"/>
        <path id="DejaVuSans-37" d="M 525 4666 
L 3525 4666 
L 3525 4397 
L 1831 0 
L 1172 0 
L 2766 4134 
L 525 4134 
L 525 4666 
z
" transform="scale(0.015625)"/>
       </defs>
       <use xlink:href="#DejaVuSans-2212"/>
       <use xlink:href="#DejaVuSans-30" x="83.789062"/>
       <use xlink:href="#DejaVuSans-2e" x="147.412109"/>
       <use xlink:href="#DejaVuSans-30" x="179.199219"/>
       <use xlink:href="#DejaVuSans-30" x="242.822266"/>
       <use xlink:href="#DejaVuSans-37" x="306.445312"/>
      </g>
     </g>
    </g>
    <g id="ytick_2">
     <g id="line2d_9">
      <g>
       <use xlink:href="#m0aa2c1406b" x="90" y="159.930332" style="stroke: #000000; stroke-width: 0.8"/>
      </g>
     </g>
     <g id="text_8">
      <!-- 0.006 -->
      <g transform="translate(45.992188 163.729551) scale(0.1 -0.1)">
       <defs>
        <path id="DejaVuSans-36" d="M 2113 2584 
Q 1688 2584 1439 2293 
Q 1191 2003 1191 1497 
Q 1191 994 1439 701 
Q 1688 409 2113 409 
Q 2538 409 2786 701 
Q 3034 994 3034 1497 
Q 3034 2003 2786 2293 
Q 2538 2584 2113 2584 
z
M 3366 4563 
L 3366 3988 
Q 3128 4100 2886 4159 
Q 2644 4219 2406 4219 
Q 1781 4219 1451 3797 
Q 1122 3375 1075 2522 
Q 1259 2794 1537 2939 
Q 1816 3084 2150 3084 
Q 2853 3084 3261 2657 
Q 3669 2231 3669 1497 
Q 3669 778 3244 343 
Q 2819 -91 2113 -91 
Q 1303 -91 875 529 
Q 447 1150 447 2328 
Q 447 3434 972 4092 
Q 1497 4750 2381 4750 
Q 2619 4750 2861 4703 
Q 3103 4656 3366 4563 
z
" transform="scale(0.015625)"/>
       </defs>
       <use xlink:href="#DejaVuSans-2212"/>
       <use xlink:href="#DejaVuSans-30" x="83.789062"/>
       <use xlink:href="#DejaVuSans-2e" x="147.412109"/>
       <use xlink:href="#DejaVuSans-30" x="179.199219"/>
       <use xlink:href="#DejaVuSans-30" x="242.822266"/>
       <use xlink:href="#DejaVuSans-36" x="306.445312"/>
      </g>
     </g>
    </g>
    <g id="ytick_3">
     <g id="line2d_10">
      <g>
       <use xlink:href="#m0aa2c1406b" x="90" y="138.959032" style="stroke: #000000; stroke-width: 0.8"/>
      </g>
     </g>
     <g id="text_9">
      <!-- 0.005 -->
      <g transform="translate(45.992188 142.758251) scale(0.1 -0.1)">
       <use xlink:href="#DejaVuSans-2212"/>
       <use xlink:href="#DejaVuSans-30" x="83.789062"/>
       <use xlink:href="#DejaVuSans-2e" x="147.412109"/>
       <use xlink:href="#DejaVuSans-30" x="179.199219"/>
       <use xlink:href="#DejaVuSans-30" x="242.822266"/>
       <use xlink:href="#DejaVuSans-35" x="306.445312"/>
      </g>
     </g>
    </g>
    <g id="ytick_4">
     <g id="line2d_11">
      <g>
       <use xlink:href="#m0aa2c1406b" x="90" y="117.987732" style="stroke: #000000; stroke-width: 0.8"/>
      </g>
     </g>
     <g id="text_10">
      <!-- 0.004 -->
      <g transform="translate(45.992188 121.786951) scale(0.1 -0.1)">
       <defs>
        <path id="DejaVuSans-34" d="M 2419 4116 
L 825 1625 
L 2419 1625 
L 2419 4116 
z
M 2253 4666 
L 3047 4666 
L 3047 1625 
L 3713 1625 
L 3713 1100 
L 3047 1100 
L 3047 0 
L 2419 0 
L 2419 1100 
L 313 1100 
L 313 1709 
L 2253 4666 
z
" transform="scale(0.015625)"/>
       </defs>
       <use xlink:href="#DejaVuSans-2212"/>
       <use xlink:href="#DejaVuSans-30" x="83.789062"/>
       <use xlink:href="#DejaVuSans-2e" x="147.412109"/>
       <use xlink:href="#DejaVuSans-30" x="179.199219"/>
       <use xlink:href="#DejaVuSans-30" x="242.822266"/>
       <use xlink:href="#DejaVuSans-34" x="306.445312"/>
      </g>
     </g>
    </g>
    <g id="ytick_5">
     <g id="line2d_12">
      <g>
       <use xlink:href="#m0aa2c1406b" x="90" y="97.016432" style="stroke: #000000; stroke-width: 0.8"/>
      </g>
     </g>
     <g id="text_11">
      <!-- 0.003 -->
      <g transform="translate(45.992188 100.815651) scale(0.1 -0.1)">
       <defs>
        <path id="DejaVuSans-33" d="M 2597 2516 
Q 3050 2419 3304 2112 
Q 3559 1806 3559 1356 
Q 3559 666 3084 287 
Q 2609 -91 1734 -91 
Q 1441 -91 1130 -33 
Q 819 25 488 141 
L 488 750 
Q 750 597 1062 519 
Q 1375 441 1716 441 
Q 2309 441 2620 675 
Q 2931 909 2931 1356 
Q 2931 1769 2642 2001 
Q 2353 2234 1838 2234 
L 1294 2234 
L 1294 2753 
L 1863 2753 
Q 2328 2753 2575 2939 
Q 2822 3125 2822 3475 
Q 2822 3834 2567 4026 
Q 2313 4219 1838 4219 
Q 1578 4219 1281 4162 
Q 984 4106 628 3988 
L 628 4550 
Q 988 4650 1302 4700 
Q 1616 4750 1894 4750 
Q 2613 4750 3031 4423 
Q 3450 4097 3450 3541 
Q 3450 3153 3228 2886 
Q 3006 2619 2597 2516 
z
" transform="scale(0.015625)"/>
       </defs>
       <use xlink:href="#DejaVuSans-2212"/>
       <use xlink:href="#DejaVuSans-30" x="83.789062"/>
       <use xlink:href="#DejaVuSans-2e" x="147.412109"/>
       <use xlink:href="#DejaVuSans-30" x="179.199219"/>
       <use xlink:href="#DejaVuSans-30" x="242.822266"/>
       <use xlink:href="#DejaVuSans-33" x="306.445312"/>
      </g>
     </g>
    </g>
    <g id="ytick_6">
     <g id="line2d_13">
      <g>
       <use xlink:href="#m0aa2c1406b" x="90" y="76.045132" style="stroke: #000000; stroke-width: 0.8"/>
      </g>
     </g>
     <g id="text_12">
      <!-- 0.002 -->
      <g transform="translate(45.992188 79.844351) scale(0.1 -0.1)">
       <use xlink:href="#DejaVuSans-2212"/>
       <use xlink:href="#DejaVuSans-30" x="83.789062"/>
       <use xlink:href="#DejaVuSans-2e" x="147.412109"/>
       <use xlink:href="#DejaVuSans-30" x="179.199219"/>
       <use xlink:href="#DejaVuSans-30" x="242.822266"/>
       <use xlink:href="#DejaVuSans-32" x="306.445312"/>
      </g>
     </g>
    </g>
    <g id="ytick_7">
     <g id="line2d_14">
      <g>
       <use xlink:href="#m0aa2c1406b" x="90" y="55.073832" style="stroke: #000000; stroke-width: 0.8"/>
      </g>
     </g>
     <g id="text_13">
      <!-- 0.001 -->
      <g transform="translate(45.992188 58.873051) scale(0.1 -0.1)">
       <use xlink:href="#DejaVuSans-2212"/>
       <use xlink:href="#DejaVuSans-30" x="83.789062"/>
       <use xlink:href="#DejaVuSans-2e" x="147.412109"/>
       <use xlink:href="#DejaVuSans-30" x="179.199219"/>
       <use xlink:href="#DejaVuSans-30" x="242.822266"/>
       <use xlink:href="#DejaVuSans-31" x="306.445312"/>
      </g>
     </g>
    </g>
    <g id="ytick_8">
     <g id="line2d_15">
      <g>
       <use xlink:href="#m0aa2c1406b" x="90" y="34.102532" style="stroke: #000000; stroke-width: 0.8"/>
      </g>
     </g>
     <g id="text_14">
      <!-- 0.000 -->
      <g transform="translate(54.371875 37.901751) scale(0.1 -0.1)">
       <use xlink:href="#DejaVuSans-30"/>
       <use xlink:href="#DejaVuSans-2e" x="63.623047"/>
       <use xlink:href="#DejaVuSans-30" x="95.410156"/>
       <use xlink:href="#DejaVuSans-30" x="159.033203"/>
       <use xlink:href="#DejaVuSans-30" x="222.65625"/>
      </g>
     </g>
    </g>
   </g>
  </g>
 </g>
 <defs>
  <clipPath id="p8d1b19a038">
   <rect x="90" y="25.92" width="558" height="166.32"/>
  </clipPath>
 </defs>
</svg>
