<?xml version="1.0" encoding="utf-8" standalone="no"?>
<!DOCTYPE svg PUBLIC "-//W3C//DTD SVG 1.1//EN"
  "http://www.w3.org/Graphics/SVG/1.1/DTD/svg11.dtd">
<svg xmlns:xlink="http://www.w3.org/1999/xlink" width="720pt" height="216pt" viewBox="0 0 720 216" xmlns="http://www.w3.org/2000/svg" version="1.1">
 <metadata>
  <rdf:RDF xmlns:dc="http://purl.org/dc/elements/1.1/" xmlns:cc="http://creativecommons.org/ns#" xmlns:rdf="http://www.w3.org/1999/02/22-rdf-syntax-ns#">
   <cc:Work>
    <dc:type rdf:resource="http://purl.org/dc/dcmitype/StillImage"/>
    <dc:date>2024-11-23T04:43:47.237548</dc:date>
    <dc:format>image/svg+xml</dc:format>
    <dc:creator>
     <cc:Agent>
      <dc:title>Matplotlib v3.7.2, https://matplotlib.org/</dc:title>
     </cc:Agent>
    </dc:creator>
   </cc:Work>
  </rdf:RDF>
 </metadata>
 <defs>
  <style type="text/css">*{stroke-linejoin: round; stroke-linecap: butt}</style>
 </defs>
 <g id="figure_1">
  <g id="patch_1">
   <path d="M 0 216 
L 720 216 
L 720 0 
L 0 0 
z
" style="fill: #ffffff"/>
  </g>
  <g id="axes_1">
   <g id="patch_2">
    <path d="M 90 192.24 
L 648 192.24 
L 648 25.92 
L 90 25.92 
z
" style="fill: #ffffff"/>
   </g>
   <g id="line2d_1">
    <path d="M 90 5.736581 
L 648 5.736581 
" clip-path="url(#p1007862c2f)" style="fill: none; stroke: #000000; stroke-width: 0.5; stroke-linecap: square"/>
   </g>
   <g id="patch_3">
    <path d="M 90 4.353125 
L 117.973615 4.353125 
L 117.973615 4.622937 
L 107.909619 4.622937 
L 107.909619 5.736581 
L 100.083512 5.736581 
L 100.083512 4.622937 
L 90 4.622937 
L 90 4.353125 
z
" clip-path="url(#p1007862c2f)" style="fill: #ff0000"/>
   </g>
   <g id="patch_4">
    <path d="M 109.377348 4.015442 
L 98.619145 4.015442 
L 96.920481 4.353125 
L 90 4.353125 
L 99.883134 2.499442 
L 108.090481 2.499442 
L 117.973615 4.353125 
L 111.058853 4.353125 
L 109.377348 4.015442 
z
M 100.334967 3.671402 
L 107.644368 3.671402 
L 103.995386 2.934061 
L 100.334967 3.671402 
z
" clip-path="url(#p1007862c2f)" style="fill: #008000"/>
   </g>
   <g id="patch_5">
    <path d="M 138.823258 5.281819 
L 128.065055 5.281819 
L 126.366392 5.736581 
L 119.44591 5.736581 
L 129.329044 3.240207 
L 137.536391 3.240207 
L 147.419525 5.736581 
L 140.504763 5.736581 
L 138.823258 5.281819 
z
M 129.780877 4.818497 
L 137.090278 4.818497 
L 133.441297 3.825512 
L 129.780877 4.818497 
z
" clip-path="url(#p1007862c2f)" style="fill: #008000"/>
   </g>
   <g id="patch_6">
    <path d="M 119.44591 -0.787665 
L 147.419525 -0.787665 
L 147.419525 -0.002118 
L 137.355529 -0.002118 
L 137.355529 3.240207 
L 129.529423 3.240207 
L 129.529423 -0.002118 
L 119.44591 -0.002118 
L 119.44591 -0.787665 
z
" clip-path="url(#p1007862c2f)" style="fill: #ff0000"/>
   </g>
   <g id="patch_7">
    <path d="M 148.891821 4.710052 
L 176.865435 4.710052 
L 176.865435 4.910254 
L 166.80144 4.910254 
L 166.80144 5.736581 
L 158.975333 5.736581 
L 158.975333 4.910254 
L 148.891821 4.910254 
L 148.891821 4.710052 
z
" clip-path="url(#p1007862c2f)" style="fill: #ff0000"/>
   </g>
   <g id="patch_8">
    <path d="M 197.715078 5.497497 
L 186.956876 5.497497 
L 185.258212 5.736581 
L 178.337731 5.736581 
L 188.220864 4.42415 
L 196.428212 4.42415 
L 206.311346 5.736581 
L 199.396584 5.736581 
L 197.715078 5.497497 
z
M 188.672698 5.253912 
L 195.982098 5.253912 
L 192.333117 4.731865 
L 188.672698 5.253912 
z
" clip-path="url(#p1007862c2f)" style="fill: #008000"/>
   </g>
   <g id="patch_9">
    <path d="M 286.052809 4.191516 
L 275.294607 4.191516 
L 273.595943 5.736581 
L 266.675462 5.736581 
L 276.558595 -2.744916 
L 284.765943 -2.744916 
L 294.649077 5.736581 
L 287.734315 5.736581 
L 286.052809 4.191516 
z
M 277.010428 2.617368 
L 284.319829 2.617368 
L 280.670848 -0.756327 
L 277.010428 2.617368 
z
" clip-path="url(#p1007862c2f)" style="fill: #008000"/>
   </g>
   <g id="patch_10">
    <path d="M 324.094987 5.73306 
Q 321.755042 5.734805 319.224801 5.735688 
Q 316.69456 5.736581 313.938781 5.736581 
Q 305.720783 5.736581 300.921078 5.729965 
Q 296.121372 5.723348 296.121372 5.712033 
Q 296.121372 5.700678 300.921078 5.694072 
Q 305.720783 5.687456 313.938781 5.687456 
Q 316.69456 5.687456 319.224801 5.688349 
Q 321.755042 5.689232 324.094987 5.690977 
L 324.094987 5.70077 
Q 321.733898 5.698456 319.44329 5.69738 
Q 317.152681 5.696305 314.62244 5.696305 
Q 310.083511 5.696305 307.48279 5.700496 
Q 304.889116 5.704676 304.889116 5.712033 
Q 304.889116 5.71936 307.48279 5.723551 
Q 310.083511 5.727732 314.62244 5.727732 
Q 317.152681 5.727732 319.44329 5.726656 
Q 321.733898 5.725571 324.094987 5.723257 
L 324.094987 5.73306 
z
" clip-path="url(#p1007862c2f)" style="fill: #0000ff"/>
   </g>
   <g id="patch_11">
    <path d="M 384.459103 5.726194 
L 412.432718 5.726194 
L 412.432718 5.728219 
L 402.368722 5.728219 
L 402.368722 5.736581 
L 394.542615 5.736581 
L 394.542615 5.728219 
L 384.459103 5.728219 
L 384.459103 5.726194 
z
" clip-path="url(#p1007862c2f)" style="fill: #ff0000"/>
   </g>
   <g id="patch_12">
    <path d="M 413.905013 5.451407 
L 441.878628 5.451407 
L 441.878628 5.507024 
L 431.814632 5.507024 
L 431.814632 5.736581 
L 423.988525 5.736581 
L 423.988525 5.507024 
L 413.905013 5.507024 
L 413.905013 5.451407 
z
" clip-path="url(#p1007862c2f)" style="fill: #ff0000"/>
   </g>
   <g id="patch_13">
    <path d="M 433.282361 5.372243 
L 422.524158 5.372243 
L 420.825494 5.451407 
L 413.905013 5.451407 
L 423.788147 5.016842 
L 431.995494 5.016842 
L 441.878628 5.451407 
L 434.963866 5.451407 
L 433.282361 5.372243 
z
M 424.23998 5.291588 
L 431.549381 5.291588 
L 427.9004 5.118731 
L 424.23998 5.291588 
z
" clip-path="url(#p1007862c2f)" style="fill: #008000"/>
   </g>
   <g id="patch_14">
    <path d="M 462.728271 5.677368 
L 451.970068 5.677368 
L 450.271405 5.736581 
L 443.350923 5.736581 
L 453.234057 5.41154 
L 461.441405 5.41154 
L 471.324538 5.736581 
L 464.409776 5.736581 
L 462.728271 5.677368 
z
M 453.68589 5.617042 
L 460.995291 5.617042 
L 457.34631 5.48775 
L 453.68589 5.617042 
z
" clip-path="url(#p1007862c2f)" style="fill: #008000"/>
   </g>
   <g id="patch_15">
    <path d="M 443.350923 4.877525 
L 471.324538 4.877525 
L 471.324538 4.981673 
L 461.260542 4.981673 
L 461.260542 5.41154 
L 453.434436 5.41154 
L 453.434436 4.981673 
L 443.350923 4.981673 
L 443.350923 4.877525 
z
" clip-path="url(#p1007862c2f)" style="fill: #ff0000"/>
   </g>
   <g id="patch_16">
    <path d="M 472.796834 4.90363 
L 500.770449 4.90363 
L 500.770449 5.066079 
L 490.706453 5.066079 
L 490.706453 5.736581 
L 482.880346 5.736581 
L 482.880346 5.066079 
L 472.796834 5.066079 
L 472.796834 4.90363 
z
" clip-path="url(#p1007862c2f)" style="fill: #ff0000"/>
   </g>
   <g id="patch_17">
    <path d="M 492.174181 4.107747 
L 481.415979 4.107747 
L 479.717315 4.90363 
L 472.796834 4.90363 
L 482.679967 0.5347 
L 490.887315 0.5347 
L 500.770449 4.90363 
L 493.855687 4.90363 
L 492.174181 4.107747 
z
M 483.1318 3.296882 
L 490.441201 3.296882 
L 486.79222 1.559048 
L 483.1318 3.296882 
z
" clip-path="url(#p1007862c2f)" style="fill: #008000"/>
   </g>
   <g id="patch_18">
    <path d="M 502.242744 5.588032 
L 530.216359 5.588032 
L 530.216359 5.617003 
L 520.152363 5.617003 
L 520.152363 5.736581 
L 512.326256 5.736581 
L 512.326256 5.617003 
L 502.242744 5.617003 
L 502.242744 5.588032 
z
" clip-path="url(#p1007862c2f)" style="fill: #ff0000"/>
   </g>
   <g id="patch_19">
    <path d="M 521.620092 5.405292 
L 510.861889 5.405292 
L 509.163225 5.588032 
L 502.242744 5.588032 
L 512.125878 4.584898 
L 520.333225 4.584898 
L 530.216359 5.588032 
L 523.301597 5.588032 
L 521.620092 5.405292 
z
M 512.577711 5.219113 
L 519.887112 5.219113 
L 516.238131 4.820095 
L 512.577711 5.219113 
z
" clip-path="url(#p1007862c2f)" style="fill: #008000"/>
   </g>
   <g id="patch_20">
    <path d="M 551.066002 5.082718 
L 540.307799 5.082718 
L 538.609136 5.736581 
L 531.688654 5.736581 
L 541.571788 2.14726 
L 549.779136 2.14726 
L 559.662269 5.736581 
L 552.747507 5.736581 
L 551.066002 5.082718 
z
M 542.023621 4.416548 
L 549.333022 4.416548 
L 545.684041 2.98882 
L 542.023621 4.416548 
z
" clip-path="url(#p1007862c2f)" style="fill: #008000"/>
   </g>
   <g id="patch_21">
    <path d="M 561.134565 3.748093 
L 589.108179 3.748093 
L 589.108179 4.135903 
L 579.044184 4.135903 
L 579.044184 5.736581 
L 571.218077 5.736581 
L 571.218077 4.135903 
L 561.134565 4.135903 
L 561.134565 3.748093 
z
" clip-path="url(#p1007862c2f)" style="fill: #ff0000"/>
   </g>
   <g id="patch_22">
    <path d="M 580.511912 3.203484 
L 569.753709 3.203484 
L 568.055046 3.748093 
L 561.134565 3.748093 
L 571.017698 0.75851 
L 579.225046 0.75851 
L 589.108179 3.748093 
L 582.193418 3.748093 
L 580.511912 3.203484 
z
M 571.469531 2.648623 
L 578.778932 2.648623 
L 575.129951 1.459454 
L 571.469531 2.648623 
z
" clip-path="url(#p1007862c2f)" style="fill: #008000"/>
   </g>
   <g id="patch_23">
    <path d="M 590.580475 4.540098 
L 618.55409 4.540098 
L 618.55409 4.773445 
L 608.490094 4.773445 
L 608.490094 5.736581 
L 600.663987 5.736581 
L 600.663987 4.773445 
L 590.580475 4.773445 
L 590.580475 4.540098 
z
" clip-path="url(#p1007862c2f)" style="fill: #ff0000"/>
   </g>
   <g id="patch_24">
    <path d="M 609.957822 4.04499 
L 599.19962 4.04499 
L 597.500956 4.540098 
L 590.580475 4.540098 
L 600.463609 1.822248 
L 608.670956 1.822248 
L 618.55409 4.540098 
L 611.639328 4.540098 
L 609.957822 4.04499 
z
M 600.915442 3.540563 
L 608.224842 3.540563 
L 604.575861 2.459481 
L 600.915442 3.540563 
z
" clip-path="url(#p1007862c2f)" style="fill: #008000"/>
   </g>
   <g id="patch_25">
    <path d="M 620.026385 3.115954 
L 648 3.115954 
L 648 3.627049 
L 637.936004 3.627049 
L 637.936004 5.736581 
L 630.109898 5.736581 
L 630.109898 3.627049 
L 620.026385 3.627049 
L 620.026385 3.115954 
z
" clip-path="url(#p1007862c2f)" style="fill: #ff0000"/>
   </g>
   <g id="patch_26">
    <path d="M 639.403733 2.635169 
L 628.64553 2.635169 
L 626.946866 3.115954 
L 620.026385 3.115954 
L 629.909519 0.476731 
L 638.116866 0.476731 
L 648 3.115954 
L 641.085238 3.115954 
L 639.403733 2.635169 
z
M 630.361352 2.145335 
L 637.670753 2.145335 
L 634.021772 1.095529 
L 630.361352 2.145335 
z
" clip-path="url(#p1007862c2f)" style="fill: #008000"/>
   </g>
   <g id="patch_27">
    <path d="M 117.973615 16.577617 
Q 115.63367 16.096158 113.103429 15.852629 
Q 110.573188 15.606301 107.817409 15.606301 
Q 99.599411 15.606301 94.799706 17.431367 
Q 90 19.256434 90 22.377521 
Q 90 25.509805 94.799706 27.332072 
Q 99.599411 29.157139 107.817409 29.157139 
Q 110.573188 29.157139 113.103429 28.910811 
Q 115.63367 28.667282 117.973615 28.185823 
L 117.973615 25.484613 
Q 115.612526 26.122826 113.321918 26.419539 
Q 111.031309 26.716252 108.501068 26.716252 
Q 103.962139 26.716252 101.361418 25.56019 
Q 98.767744 24.406928 98.767744 22.377521 
Q 98.767744 20.356512 101.361418 19.20045 
Q 103.962139 18.047187 108.501068 18.047187 
Q 111.031309 18.047187 113.321918 18.343901 
Q 115.612526 18.643413 117.973615 19.281626 
L 117.973615 16.577617 
z
" clip-path="url(#p1007862c2f)" style="fill: #0000ff"/>
   </g>
   <g id="patch_28">
    <path d="M 117.973615 6.629565 
Q 115.15243 6.183073 112.118089 5.958808 
Q 109.083748 5.736581 105.848789 5.736581 
Q 98.538786 5.736581 94.269393 7.065864 
Q 90 8.395146 90 10.668383 
Q 90 12.968123 94.344625 14.287212 
Q 98.695519 15.606301 106.262563 15.606301 
Q 109.177787 15.606301 111.848509 15.426889 
Q 114.5255 15.249515 116.895295 14.898845 
L 116.895295 12.931425 
Q 114.450268 13.381995 112.030319 13.604222 
Q 109.610369 13.828487 107.177881 13.828487 
Q 102.676524 13.828487 100.237766 13.008899 
Q 97.799009 12.191349 97.799009 10.668383 
Q 97.799009 9.159688 100.149996 8.336022 
Q 102.500983 7.514395 106.8268 7.514395 
Q 108.005428 7.514395 109.014786 7.561286 
Q 110.024143 7.610217 110.826613 7.712156 
L 110.826613 9.559288 
L 106.218678 9.559288 
L 106.218678 11.204581 
L 117.973615 11.204581 
L 117.973615 6.629565 
z
" clip-path="url(#p1007862c2f)" style="fill: #ffa600"/>
   </g>
   <g id="patch_29">
    <path d="M 147.419525 20.469966 
Q 145.07958 19.894704 142.549339 19.603729 
Q 140.019098 19.309409 137.26332 19.309409 
Q 129.045322 19.309409 124.245616 21.490051 
Q 119.44591 23.670693 119.44591 27.399858 
Q 119.44591 31.142401 124.245616 33.319698 
Q 129.045322 35.50034 137.26332 35.50034 
Q 140.019098 35.50034 142.549339 35.20602 
Q 145.07958 34.915045 147.419525 34.339784 
L 147.419525 31.1123 
Q 145.058436 31.874856 142.767828 32.229378 
Q 140.47722 32.583899 137.946978 32.583899 
Q 133.40805 32.583899 130.807328 31.202603 
Q 128.213655 29.824651 128.213655 27.399858 
Q 128.213655 24.985098 130.807328 23.603802 
Q 133.40805 22.22585 137.946978 22.22585 
Q 140.47722 22.22585 142.767828 22.580372 
Q 145.058436 22.938238 147.419525 23.700794 
L 147.419525 20.469966 
z
" clip-path="url(#p1007862c2f)" style="fill: #0000ff"/>
   </g>
   <g id="patch_30">
    <path d="M 147.419525 6.964612 
Q 144.59834 6.350596 141.563999 6.042187 
Q 138.529658 5.736581 135.2947 5.736581 
Q 127.984696 5.736581 123.715303 7.564609 
Q 119.44591 9.392637 119.44591 12.518789 
Q 119.44591 15.68139 123.790535 17.4954 
Q 128.141429 19.309409 135.708473 19.309409 
Q 138.623698 19.309409 141.294419 19.062682 
Q 143.97141 18.818758 146.341206 18.336517 
L 146.341206 15.630923 
Q 143.896179 16.250546 141.476229 16.556152 
Q 139.056279 16.864562 136.623791 16.864562 
Q 132.122434 16.864562 129.683677 15.737465 
Q 127.244919 14.613171 127.244919 12.518789 
Q 127.244919 10.444034 129.595906 9.311329 
Q 131.946894 8.181428 136.27271 8.181428 
Q 137.451339 8.181428 138.460696 8.245914 
Q 139.470053 8.313203 140.272524 8.45339 
L 140.272524 10.993564 
L 135.664588 10.993564 
L 135.664588 13.256169 
L 147.419525 13.256169 
L 147.419525 6.964612 
z
" clip-path="url(#p1007862c2f)" style="fill: #ffa600"/>
   </g>
   <g id="patch_31">
    <path d="M 168.269168 5.79986 
L 157.510965 5.79986 
L 155.812302 5.736581 
L 148.891821 5.736581 
L 158.774954 6.083948 
L 166.982302 6.083948 
L 176.865435 5.736581 
L 169.950673 5.736581 
L 168.269168 5.79986 
z
M 159.226787 5.864331 
L 166.536188 5.864331 
L 162.887207 6.002504 
L 159.226787 5.864331 
z
" clip-path="url(#p1007862c2f)" style="fill: #008000"/>
   </g>
   <g id="patch_32">
    <path d="M 176.865435 14.23264 
Q 174.525491 13.402944 171.995249 12.983271 
Q 169.465008 12.558776 166.70923 12.558776 
Q 158.491232 12.558776 153.691526 15.703905 
Q 148.891821 18.849034 148.891821 24.227591 
Q 148.891821 29.625444 153.691526 32.765749 
Q 158.491232 35.910878 166.70923 35.910878 
Q 169.465008 35.910878 171.995249 35.486382 
Q 174.525491 35.06671 176.865435 34.237014 
L 176.865435 29.582029 
Q 174.504347 30.68186 172.213738 31.193184 
Q 169.92313 31.704509 167.392889 31.704509 
Q 162.85396 31.704509 160.253238 29.712272 
Q 157.659565 27.724859 157.659565 24.227591 
Q 157.659565 20.744795 160.253238 18.752558 
Q 162.85396 16.765145 167.392889 16.765145 
Q 169.92313 16.765145 172.213738 17.276469 
Q 174.504347 17.792618 176.865435 18.892449 
L 176.865435 14.23264 
z
" clip-path="url(#p1007862c2f)" style="fill: #0000ff"/>
   </g>
   <g id="patch_33">
    <path d="M 176.865435 6.669772 
Q 174.044251 6.37686 171.00991 6.229735 
Q 167.975569 6.083948 164.74061 6.083948 
Q 157.430607 6.083948 153.161214 6.955997 
Q 148.891821 7.828045 148.891821 9.319355 
Q 148.891821 10.828053 153.236445 11.693414 
Q 157.587339 12.558776 165.154384 12.558776 
Q 168.069608 12.558776 170.74033 12.441076 
Q 173.417321 12.324713 175.787116 12.094664 
L 175.787116 10.803978 
Q 173.342089 11.099565 170.922139 11.245353 
Q 168.50219 11.392477 166.069701 11.392477 
Q 161.568344 11.392477 159.129587 10.854803 
Q 156.690829 10.318466 156.690829 9.319355 
Q 156.690829 8.329607 159.041817 7.789258 
Q 161.392804 7.250246 165.718621 7.250246 
Q 166.897249 7.250246 167.906606 7.281009 
Q 168.915963 7.313109 169.718434 7.379983 
L 169.718434 8.591757 
L 165.110499 8.591757 
L 165.110499 9.671117 
L 176.865435 9.671117 
L 176.865435 6.669772 
z
" clip-path="url(#p1007862c2f)" style="fill: #ffa600"/>
   </g>
   <g id="patch_34">
    <path d="M 206.311346 15.301078 
Q 203.971401 13.939953 201.44116 13.251478 
Q 198.910918 12.555089 196.15514 12.555089 
Q 187.937142 12.555089 183.137437 17.714699 
Q 178.337731 22.87431 178.337731 31.697878 
Q 178.337731 40.5531 183.137437 45.704797 
Q 187.937142 50.864408 196.15514 50.864408 
Q 198.910918 50.864408 201.44116 50.168019 
Q 203.971401 49.479543 206.311346 48.118419 
L 206.311346 40.481878 
Q 203.950257 42.286159 201.659649 43.124992 
Q 199.36904 43.963824 196.838799 43.963824 
Q 192.29987 43.963824 189.699149 40.695543 
Q 187.105475 37.435175 187.105475 31.697878 
Q 187.105475 25.984321 189.699149 22.71604 
Q 192.29987 19.455672 196.838799 19.455672 
Q 199.36904 19.455672 201.659649 20.294505 
Q 203.950257 21.141251 206.311346 22.945532 
L 206.311346 15.301078 
z
" clip-path="url(#p1007862c2f)" style="fill: #0000ff"/>
   </g>
   <g id="patch_35">
    <path d="M 206.311346 6.792267 
Q 203.490161 6.505631 200.45582 6.361659 
Q 197.421479 6.218995 194.18652 6.218995 
Q 186.876517 6.218995 182.607124 7.072359 
Q 178.337731 7.925722 178.337731 9.385079 
Q 178.337731 10.86145 182.682355 11.708269 
Q 187.033249 12.555089 194.600294 12.555089 
Q 197.515518 12.555089 200.18624 12.439911 
Q 202.863231 12.326042 205.233026 12.100921 
L 205.233026 10.837891 
Q 202.787999 11.127144 200.36805 11.269808 
Q 197.9481 11.41378 195.515612 11.41378 
Q 191.014255 11.41378 188.575497 10.887627 
Q 186.13674 10.362782 186.13674 9.385079 
Q 186.13674 8.416537 188.487727 7.887766 
Q 190.838714 7.360304 195.164531 7.360304 
Q 196.343159 7.360304 197.352517 7.390407 
Q 198.361874 7.421819 199.164344 7.487261 
L 199.164344 8.67307 
L 194.556409 8.67307 
L 194.556409 9.729304 
L 206.311346 9.729304 
L 206.311346 6.792267 
z
" clip-path="url(#p1007862c2f)" style="fill: #ffa600"/>
   </g>
   <g id="patch_36">
    <path d="M 178.337731 6.218995 
L 206.311346 6.218995 
L 206.311346 6.124911 
L 196.24735 6.124911 
L 196.24735 5.736581 
L 188.421243 5.736581 
L 188.421243 6.124911 
L 178.337731 6.124911 
L 178.337731 6.218995 
z
" clip-path="url(#p1007862c2f)" style="fill: #ff0000"/>
   </g>
   <g id="patch_37">
    <path d="M 227.160989 34.260543 
L 216.402786 34.260543 
L 214.704122 23.81775 
L 207.783641 23.81775 
L 217.666775 81.14254 
L 225.874122 81.14254 
L 235.757256 23.81775 
L 228.842494 23.81775 
L 227.160989 34.260543 
z
M 218.118608 44.899906 
L 225.428009 44.899906 
L 221.779028 67.702052 
L 218.118608 44.899906 
z
" clip-path="url(#p1007862c2f)" style="fill: #008000"/>
   </g>
   <g id="patch_38">
    <path d="M 235.757256 5.894953 
Q 233.417311 5.833043 230.88707 5.801728 
Q 228.356829 5.770053 225.601051 5.770053 
Q 217.383052 5.770053 212.583347 6.004736 
Q 207.783641 6.239418 207.783641 6.640755 
Q 207.783641 7.043531 212.583347 7.277854 
Q 217.383052 7.512537 225.601051 7.512537 
Q 228.356829 7.512537 230.88707 7.480862 
Q 233.417311 7.449547 235.757256 7.387636 
L 235.757256 7.040291 
Q 233.396167 7.122358 231.105559 7.160512 
Q 228.81495 7.198666 226.284709 7.198666 
Q 221.74578 7.198666 219.145059 7.05001 
Q 216.551385 6.901713 216.551385 6.640755 
Q 216.551385 6.380876 219.145059 6.23222 
Q 221.74578 6.083923 226.284709 6.083923 
Q 228.81495 6.083923 231.105559 6.122077 
Q 233.396167 6.160591 235.757256 6.242658 
L 235.757256 5.894953 
z
" clip-path="url(#p1007862c2f)" style="fill: #0000ff"/>
   </g>
   <g id="patch_39">
    <path d="M 235.757256 8.987786 
Q 232.936071 8.250161 229.90173 7.879665 
Q 226.867389 7.512537 223.632431 7.512537 
Q 216.322427 7.512537 212.053034 9.70857 
Q 207.783641 11.904604 207.783641 15.660091 
Q 207.783641 19.459364 212.128266 21.638557 
Q 216.47916 23.81775 224.046204 23.81775 
Q 226.961429 23.81775 229.63215 23.521353 
Q 232.309141 23.228324 234.678936 22.649002 
L 234.678936 19.398737 
Q 232.23391 20.143099 229.81396 20.510227 
Q 227.39401 20.880723 224.961522 20.880723 
Q 220.460165 20.880723 218.021407 19.526727 
Q 215.58265 18.176099 215.58265 15.660091 
Q 215.58265 13.16766 217.933637 11.806928 
Q 220.284625 10.449563 224.610441 10.449563 
Q 225.78907 10.449563 226.798427 10.527031 
Q 227.807784 10.607866 228.610254 10.776274 
L 228.610254 13.827818 
L 224.002319 13.827818 
L 224.002319 16.545914 
L 235.757256 16.545914 
L 235.757256 8.987786 
z
" clip-path="url(#p1007862c2f)" style="fill: #ffa600"/>
   </g>
   <g id="patch_40">
    <path d="M 207.783641 5.770053 
L 235.757256 5.770053 
L 235.757256 5.763525 
L 225.69326 5.763525 
L 225.69326 5.736581 
L 217.867153 5.736581 
L 217.867153 5.763525 
L 207.783641 5.763525 
L 207.783641 5.770053 
z
" clip-path="url(#p1007862c2f)" style="fill: #ff0000"/>
   </g>
   <g id="patch_41">
    <path d="M 256.606899 27.585379 
L 245.848696 27.585379 
L 244.150033 16.619768 
L 237.229551 16.619768 
L 247.112685 76.814526 
L 255.320033 76.814526 
L 265.203166 16.619768 
L 258.288404 16.619768 
L 256.606899 27.585379 
z
M 247.564518 38.757403 
L 254.873919 38.757403 
L 251.224938 62.701139 
L 247.564518 38.757403 
z
" clip-path="url(#p1007862c2f)" style="fill: #008000"/>
   </g>
   <g id="patch_42">
    <path d="M 265.203166 8.871585 
Q 262.863222 8.733627 260.33298 8.663846 
Q 257.802739 8.593263 255.046961 8.593263 
Q 246.828963 8.593263 242.029257 9.116219 
Q 237.229551 9.639175 237.229551 10.533494 
Q 237.229551 11.431022 242.029257 11.953176 
Q 246.828963 12.476132 255.046961 12.476132 
Q 257.802739 12.476132 260.33298 12.405549 
Q 262.863222 12.335768 265.203166 12.19781 
L 265.203166 11.423803 
Q 262.842078 11.606677 260.551469 11.691698 
Q 258.260861 11.776718 255.730619 11.776718 
Q 251.191691 11.776718 248.590969 11.445459 
Q 245.997296 11.115002 245.997296 10.533494 
Q 245.997296 9.954393 248.590969 9.623134 
Q 251.191691 9.292677 255.730619 9.292677 
Q 258.260861 9.292677 260.551469 9.377697 
Q 262.842078 9.46352 265.203166 9.646394 
L 265.203166 8.871585 
z
" clip-path="url(#p1007862c2f)" style="fill: #0000ff"/>
   </g>
   <g id="patch_43">
    <path d="M 265.203166 5.995045 
Q 262.381981 5.865813 259.34764 5.800902 
Q 256.313299 5.736581 253.078341 5.736581 
Q 245.768337 5.736581 241.498944 6.121327 
Q 237.229551 6.506073 237.229551 7.164037 
Q 237.229551 7.829671 241.574176 8.211467 
Q 245.92507 8.593263 253.492115 8.593263 
Q 256.407339 8.593263 259.078061 8.541334 
Q 261.755051 8.489995 264.124847 8.388498 
L 264.124847 7.819049 
Q 261.67982 7.949462 259.25987 8.013783 
Q 256.839921 8.078694 254.407432 8.078694 
Q 249.906075 8.078694 247.467318 7.841473 
Q 245.02856 7.604843 245.02856 7.164037 
Q 245.02856 6.727361 247.379547 6.48896 
Q 249.730535 6.251149 254.056352 6.251149 
Q 255.23498 6.251149 256.244337 6.264722 
Q 257.253694 6.278884 258.056165 6.308389 
L 258.056165 6.843021 
L 253.448229 6.843021 
L 253.448229 7.319233 
L 265.203166 7.319233 
L 265.203166 5.995045 
z
" clip-path="url(#p1007862c2f)" style="fill: #ffa600"/>
   </g>
   <g id="patch_44">
    <path d="M 237.229551 16.619768 
L 265.203166 16.619768 
L 265.203166 15.811643 
L 255.13917 15.811643 
L 255.13917 12.476132 
L 247.313064 12.476132 
L 247.313064 15.811643 
L 237.229551 15.811643 
L 237.229551 16.619768 
z
" clip-path="url(#p1007862c2f)" style="fill: #ff0000"/>
   </g>
   <g id="patch_45">
    <path d="M 294.649077 7.154265 
Q 292.309132 6.741969 289.778891 6.533423 
Q 287.248649 6.322481 284.492871 6.322481 
Q 276.274873 6.322481 271.475167 7.885372 
Q 266.675462 9.448263 266.675462 12.120998 
Q 266.675462 14.803321 271.475167 16.363815 
Q 276.274873 17.926705 284.492871 17.926705 
Q 287.248649 17.926705 289.778891 17.715763 
Q 292.309132 17.507218 294.649077 17.094922 
L 294.649077 14.781747 
Q 292.287988 15.32828 289.997379 15.582369 
Q 287.706771 15.836459 285.17653 15.836459 
Q 280.637601 15.836459 278.036879 14.846468 
Q 275.443206 13.858875 275.443206 12.120998 
Q 275.443206 10.390312 278.036879 9.400321 
Q 280.637601 8.412728 285.17653 8.412728 
Q 287.706771 8.412728 289.997379 8.666817 
Q 292.287988 8.923304 294.649077 9.469836 
L 294.649077 7.154265 
z
" clip-path="url(#p1007862c2f)" style="fill: #0000ff"/>
   </g>
   <g id="patch_46">
    <path d="M 294.649077 20.379148 
Q 291.827892 19.152927 288.793551 18.537017 
Q 285.75921 17.926705 282.524251 17.926705 
Q 275.214248 17.926705 270.944855 21.577374 
Q 266.675462 25.228042 266.675462 31.471133 
Q 266.675462 37.787013 271.020086 41.409685 
Q 275.37098 45.032358 282.938025 45.032358 
Q 285.853249 45.032358 288.523971 44.539629 
Q 291.200962 44.0525 293.570757 43.089441 
L 293.570757 37.686228 
Q 291.12573 38.923647 288.705781 39.533958 
Q 286.285831 40.149869 283.853343 40.149869 
Q 279.351986 40.149869 276.913228 37.898997 
Q 274.47447 35.653724 274.47447 31.471133 
Q 274.47447 27.327736 276.825458 25.065666 
Q 279.176445 22.809194 283.502262 22.809194 
Q 284.68089 22.809194 285.690247 22.937976 
Q 286.699605 23.072356 287.502075 23.352315 
L 287.502075 28.425176 
L 282.89414 28.425176 
L 282.89414 32.943718 
L 294.649077 32.943718 
L 294.649077 20.379148 
z
" clip-path="url(#p1007862c2f)" style="fill: #ffa600"/>
   </g>
   <g id="patch_47">
    <path d="M 266.675462 6.322481 
L 294.649077 6.322481 
L 294.649077 6.208214 
L 284.585081 6.208214 
L 284.585081 5.736581 
L 276.758974 5.736581 
L 276.758974 6.208214 
L 266.675462 6.208214 
L 266.675462 6.322481 
z
" clip-path="url(#p1007862c2f)" style="fill: #ff0000"/>
   </g>
   <g id="patch_48">
    <path d="M 315.49872 37.959901 
L 304.740517 37.959901 
L 303.041853 5.968933 
L 296.121372 5.968933 
L 306.004506 181.580526 
L 314.211853 181.580526 
L 324.094987 5.968933 
L 317.180225 5.968933 
L 315.49872 37.959901 
z
M 306.456339 70.553051 
L 313.76574 70.553051 
L 310.116759 140.40627 
L 306.456339 70.553051 
z
" clip-path="url(#p1007862c2f)" style="fill: #008000"/>
   </g>
   <g id="patch_49">
    <path d="M 324.094987 5.789836 
Q 321.273802 5.780928 318.239461 5.776453 
Q 315.20512 5.772019 311.970161 5.772019 
Q 304.660158 5.772019 300.390765 5.79854 
Q 296.121372 5.825061 296.121372 5.870415 
Q 296.121372 5.916298 300.465997 5.942616 
Q 304.816891 5.968933 312.383935 5.968933 
Q 315.299159 5.968933 317.969881 5.965354 
Q 320.646872 5.961815 323.016667 5.954819 
L 323.016667 5.915566 
Q 320.57164 5.924556 318.151691 5.928989 
Q 315.731741 5.933464 313.299253 5.933464 
Q 308.797896 5.933464 306.359138 5.917112 
Q 303.920381 5.900801 303.920381 5.870415 
Q 303.920381 5.840315 306.271368 5.823882 
Q 308.622355 5.807489 312.948172 5.807489 
Q 314.1268 5.807489 315.136158 5.808425 
Q 316.145515 5.809401 316.947985 5.811435 
L 316.947985 5.848288 
L 312.34005 5.848288 
L 312.34005 5.881113 
L 324.094987 5.881113 
L 324.094987 5.789836 
z
" clip-path="url(#p1007862c2f)" style="fill: #ffa600"/>
   </g>
   <g id="patch_50">
    <path d="M 296.121372 5.772019 
L 324.094987 5.772019 
L 324.094987 5.765108 
L 314.030991 5.765108 
L 314.030991 5.736581 
L 306.204884 5.736581 
L 306.204884 5.765108 
L 296.121372 5.765108 
L 296.121372 5.772019 
z
" clip-path="url(#p1007862c2f)" style="fill: #ff0000"/>
   </g>
   <g id="patch_51">
    <path d="M 325.567282 189.070323 
L 353.540897 189.070323 
L 353.540897 153.315136 
L 343.476901 153.315136 
L 343.476901 5.736581 
L 335.650795 5.736581 
L 335.650795 153.315136 
L 325.567282 153.315136 
L 325.567282 189.070323 
z
" clip-path="url(#p1007862c2f)" style="fill: #ff0000"/>
   </g>
   <g id="patch_52">
    <path d="M 374.39054 5.862872 
L 363.632337 5.862872 
L 361.933674 5.736581 
L 355.013193 5.736581 
L 364.896326 6.429844 
L 373.103674 6.429844 
L 382.986807 5.736581 
L 376.072046 5.736581 
L 374.39054 5.862872 
z
M 365.348159 5.99154 
L 372.65756 5.99154 
L 369.008579 6.2673 
L 365.348159 5.99154 
z
" clip-path="url(#p1007862c2f)" style="fill: #008000"/>
   </g>
   <g id="patch_53">
    <path d="M 382.986807 23.241422 
Q 380.165623 14.835633 377.131282 10.613547 
Q 374.096941 6.429844 370.861982 6.429844 
Q 363.551979 6.429844 359.282586 31.455298 
Q 355.013193 56.480752 355.013193 99.277348 
Q 355.013193 142.572918 359.357817 167.406459 
Q 363.708711 192.24 371.275756 192.24 
Q 374.19098 192.24 376.861702 188.862331 
Q 379.538693 185.523045 381.908488 178.921239 
L 381.908488 141.882032 
Q 379.463461 150.364586 377.043511 154.548289 
Q 374.623562 158.770375 372.191073 158.770375 
Q 367.689716 158.770375 365.250959 143.34057 
Q 362.812201 127.949149 362.812201 99.277348 
Q 362.812201 70.874226 365.163189 55.367656 
Q 367.514176 39.899469 371.839993 39.899469 
Q 373.018621 39.899469 374.027978 40.782269 
Q 375.037336 41.703452 375.839806 43.622581 
L 375.839806 78.397215 
L 371.231871 78.397215 
L 371.231871 109.371971 
L 382.986807 109.371971 
L 382.986807 23.241422 
z
" clip-path="url(#p1007862c2f)" style="fill: #ffa600"/>
   </g>
   <g id="patch_54">
    <path d="M 403.83645 5.856232 
L 393.078248 5.856232 
L 391.379584 5.820096 
L 384.459103 5.820096 
L 394.342236 6.018462 
L 402.549584 6.018462 
L 412.432718 5.820096 
L 405.517956 5.820096 
L 403.83645 5.856232 
z
M 394.79407 5.893048 
L 402.10347 5.893048 
L 398.454489 5.971953 
L 394.79407 5.893048 
z
" clip-path="url(#p1007862c2f)" style="fill: #008000"/>
   </g>
   <g id="patch_55">
    <path d="M 412.432718 5.742567 
Q 410.092773 5.7396 407.562532 5.738099 
Q 405.03229 5.736581 402.276512 5.736581 
Q 394.058514 5.736581 389.258809 5.747829 
Q 384.459103 5.759077 384.459103 5.778312 
Q 384.459103 5.797617 389.258809 5.808848 
Q 394.058514 5.820096 402.276512 5.820096 
Q 405.03229 5.820096 407.562532 5.818578 
Q 410.092773 5.817077 412.432718 5.814109 
L 412.432718 5.797462 
Q 410.071629 5.801395 407.781021 5.803224 
Q 405.490412 5.805052 402.960171 5.805052 
Q 398.421242 5.805052 395.820521 5.797927 
Q 393.226847 5.79082 393.226847 5.778312 
Q 393.226847 5.765857 395.820521 5.758732 
Q 398.421242 5.751624 402.960171 5.751624 
Q 405.490412 5.751624 407.781021 5.753453 
Q 410.071629 5.755299 412.432718 5.759232 
L 412.432718 5.742567 
z
" clip-path="url(#p1007862c2f)" style="fill: #0000ff"/>
   </g>
   <g id="patch_56">
    <path d="M 412.432718 19.639341 
Q 409.611533 12.828902 406.577192 9.408133 
Q 403.542851 6.018462 400.307892 6.018462 
Q 392.997889 6.018462 388.728496 26.294291 
Q 384.459103 46.57012 384.459103 81.244276 
Q 384.459103 116.322704 388.803728 136.443044 
Q 393.154621 156.563383 400.721666 156.563383 
Q 403.63689 156.563383 406.307612 153.826768 
Q 408.984603 151.121251 411.354398 145.772413 
L 411.354398 115.762942 
Q 408.909371 122.635577 406.489422 126.025248 
Q 404.069472 129.446017 401.636984 129.446017 
Q 397.135627 129.446017 394.696869 116.944662 
Q 392.258112 104.474405 392.258112 81.244276 
Q 392.258112 58.231832 394.609099 45.668281 
Q 396.960086 33.135829 401.285903 33.135829 
Q 402.464531 33.135829 403.473889 33.85108 
Q 404.483246 34.59743 405.285716 36.152325 
L 405.285716 64.32702 
L 400.677781 64.32702 
L 400.677781 89.423023 
L 412.432718 89.423023 
L 412.432718 19.639341 
z
" clip-path="url(#p1007862c2f)" style="fill: #ffa600"/>
   </g>
   <g id="patch_57">
    <path d="M 441.878628 18.644105 
Q 439.538683 12.344134 437.008442 9.157521 
Q 434.478201 5.93428 431.722423 5.93428 
Q 423.504424 5.93428 418.704719 29.815565 
Q 413.905013 53.696851 413.905013 94.53678 
Q 413.905013 135.52322 418.704719 159.367878 
Q 423.504424 183.249164 431.722423 183.249164 
Q 434.478201 183.249164 437.008442 180.025923 
Q 439.538683 176.839309 441.878628 170.539338 
L 441.878628 135.19357 
Q 439.517539 143.544695 437.226931 147.427235 
Q 434.936322 151.309775 432.406081 151.309775 
Q 427.867152 151.309775 425.266431 136.182519 
Q 422.672757 121.091891 422.672757 94.53678 
Q 422.672757 68.091553 425.266431 52.964296 
Q 427.867152 37.873668 432.406081 37.873668 
Q 434.936322 37.873668 437.226931 41.756208 
Q 439.517539 45.675376 441.878628 54.026501 
L 441.878628 18.644105 
z
" clip-path="url(#p1007862c2f)" style="fill: #0000ff"/>
   </g>
   <g id="patch_58">
    <path d="M 441.878628 5.754468 
Q 439.057443 5.745524 436.023102 5.741032 
Q 432.988761 5.736581 429.753803 5.736581 
Q 422.443799 5.736581 418.174406 5.763208 
Q 413.905013 5.789834 413.905013 5.835369 
Q 413.905013 5.881435 418.249638 5.907857 
Q 422.600532 5.93428 430.167576 5.93428 
Q 433.082801 5.93428 435.753522 5.930686 
Q 438.430513 5.927133 440.800308 5.920109 
L 440.800308 5.8807 
Q 438.355282 5.889725 435.935332 5.894176 
Q 433.515382 5.898669 431.082894 5.898669 
Q 426.581537 5.898669 424.142779 5.882252 
Q 421.704022 5.865875 421.704022 5.835369 
Q 421.704022 5.805149 424.055009 5.78865 
Q 426.405997 5.772192 430.731813 5.772192 
Q 431.910442 5.772192 432.919799 5.773131 
Q 433.929156 5.774111 434.731626 5.776153 
L 434.731626 5.813153 
L 430.123691 5.813153 
L 430.123691 5.84611 
L 441.878628 5.84611 
L 441.878628 5.754468 
z
" clip-path="url(#p1007862c2f)" style="fill: #ffa600"/>
   </g>
   <g id="patch_59">
    <path d="M 471.324538 6.141376 
Q 468.984594 5.940728 466.454352 5.839238 
Q 463.924111 5.736581 461.168333 5.736581 
Q 452.950335 5.736581 448.150629 6.497176 
Q 443.350923 7.257772 443.350923 8.558483 
Q 443.350923 9.86386 448.150629 10.623289 
Q 452.950335 11.383884 461.168333 11.383884 
Q 463.924111 11.383884 466.454352 11.281227 
Q 468.984594 11.179737 471.324538 10.979089 
L 471.324538 9.853361 
Q 468.96345 10.119336 466.672841 10.242992 
Q 464.382233 10.366647 461.851991 10.366647 
Q 457.313063 10.366647 454.712341 9.884858 
Q 452.118668 9.404237 452.118668 8.558483 
Q 452.118668 7.716229 454.712341 7.23444 
Q 457.313063 6.753819 461.851991 6.753819 
Q 464.382233 6.753819 466.672841 6.877474 
Q 468.96345 7.002295 471.324538 7.268271 
L 471.324538 6.141376 
z
" clip-path="url(#p1007862c2f)" style="fill: #0000ff"/>
   </g>
   <g id="patch_60">
    <path d="M 471.324538 19.217805 
Q 468.503353 15.300845 465.469012 13.333422 
Q 462.434671 11.383884 459.199713 11.383884 
Q 451.88971 11.383884 447.620317 23.045337 
Q 443.350923 34.706789 443.350923 54.649303 
Q 443.350923 74.82433 447.695548 86.396354 
Q 452.046442 97.968378 459.613487 97.968378 
Q 462.528711 97.968378 465.199433 96.394439 
Q 467.876423 94.838387 470.246219 91.762053 
L 470.246219 74.502388 
Q 467.801192 78.45512 465.381242 80.404657 
Q 462.961293 82.37208 460.528804 82.37208 
Q 456.027447 82.37208 453.58869 75.182043 
Q 451.149932 68.009893 451.149932 54.649303 
Q 451.149932 41.413912 453.50092 34.188104 
Q 455.851907 26.980182 460.177724 26.980182 
Q 461.356352 26.980182 462.365709 27.391553 
Q 463.375066 27.820809 464.177537 28.715092 
L 464.177537 44.919502 
L 459.569602 44.919502 
L 459.569602 59.353232 
L 471.324538 59.353232 
L 471.324538 19.217805 
z
" clip-path="url(#p1007862c2f)" style="fill: #ffa600"/>
   </g>
   <g id="patch_61">
    <path d="M 500.770449 6.801396 
Q 498.430504 6.273591 495.900263 6.00662 
Q 493.370021 5.736581 490.614243 5.736581 
Q 482.396245 5.736581 477.596539 7.737329 
Q 472.796834 9.738077 472.796834 13.159601 
Q 472.796834 16.5934 477.596539 18.591079 
Q 482.396245 20.591827 490.614243 20.591827 
Q 493.370021 20.591827 495.900263 20.321787 
Q 498.430504 20.054816 500.770449 19.527012 
L 500.770449 16.565782 
Q 498.40936 17.26543 496.118751 17.590705 
Q 493.828143 17.91598 491.297902 17.91598 
Q 486.758973 17.91598 484.158252 16.648635 
Q 481.564578 15.384359 481.564578 13.159601 
Q 481.564578 10.944049 484.158252 9.676704 
Q 486.758973 8.412428 491.297902 8.412428 
Q 493.828143 8.412428 496.118751 8.737703 
Q 498.40936 9.066046 500.770449 9.765694 
L 500.770449 6.801396 
z
" clip-path="url(#p1007862c2f)" style="fill: #0000ff"/>
   </g>
   <g id="patch_62">
    <path d="M 500.770449 26.409146 
Q 497.949264 23.500486 494.914923 22.039516 
Q 491.880582 20.591827 488.645623 20.591827 
Q 481.33562 20.591827 477.066227 29.251398 
Q 472.796834 37.910969 472.796834 52.719898 
Q 472.796834 67.701487 477.141458 76.294651 
Q 481.492352 84.887814 489.059397 84.887814 
Q 491.974621 84.887814 494.645343 83.719037 
Q 497.322334 82.563543 499.692129 80.279116 
L 499.692129 67.462419 
Q 497.247102 70.397642 494.827153 71.845331 
Q 492.407203 73.306302 489.974715 73.306302 
Q 485.473358 73.306302 483.0346 67.967118 
Q 480.595842 62.641216 480.595842 52.719898 
Q 480.595842 42.89155 482.94683 37.525804 
Q 485.297817 32.173339 489.623634 32.173339 
Q 490.802262 32.173339 491.811619 32.478815 
Q 492.820977 32.797572 493.623447 33.461649 
L 493.623447 45.494734 
L 489.015512 45.494734 
L 489.015512 56.212946 
L 500.770449 56.212946 
L 500.770449 26.409146 
z
" clip-path="url(#p1007862c2f)" style="fill: #ffa600"/>
   </g>
   <g id="patch_63">
    <path d="M 530.216359 12.64286 
Q 527.876414 9.745954 525.346173 8.280659 
Q 522.815932 6.798522 520.060154 6.798522 
Q 511.842155 6.798522 507.04245 17.779814 
Q 502.242744 28.761105 502.242744 47.540461 
Q 502.242744 66.387187 507.04245 77.351637 
Q 511.842155 88.332928 520.060154 88.332928 
Q 522.815932 88.332928 525.346173 86.850791 
Q 527.876414 85.385496 530.216359 82.488591 
L 530.216359 66.235605 
Q 527.85527 70.075689 525.564662 71.860991 
Q 523.274053 73.646293 520.743812 73.646293 
Q 516.204883 73.646293 513.604162 66.690352 
Q 511.010488 59.751253 511.010488 47.540461 
Q 511.010488 35.380197 513.604162 28.424256 
Q 516.204883 21.485157 520.743812 21.485157 
Q 523.274053 21.485157 525.564662 23.270459 
Q 527.85527 25.072604 530.216359 28.912687 
L 530.216359 12.64286 
z
" clip-path="url(#p1007862c2f)" style="fill: #0000ff"/>
   </g>
   <g id="patch_64">
    <path d="M 530.216359 5.832662 
Q 527.395174 5.784622 524.360833 5.760492 
Q 521.326492 5.736581 518.091533 5.736581 
Q 510.78153 5.736581 506.512137 5.879606 
Q 502.242744 6.022631 502.242744 6.267222 
Q 502.242744 6.514665 506.587369 6.656593 
Q 510.938263 6.798522 518.505307 6.798522 
Q 521.420532 6.798522 524.091253 6.779218 
Q 526.768244 6.760133 529.138039 6.722403 
L 529.138039 6.510716 
Q 526.693012 6.559196 524.273063 6.583106 
Q 521.853113 6.607236 519.420625 6.607236 
Q 514.919268 6.607236 512.48051 6.519052 
Q 510.041753 6.431087 510.041753 6.267222 
Q 510.041753 6.104893 512.39274 6.01627 
Q 514.743727 5.927866 519.069544 5.927866 
Q 520.248172 5.927866 521.25753 5.932912 
Q 522.266887 5.938176 523.069357 5.949145 
L 523.069357 6.147888 
L 518.461422 6.147888 
L 518.461422 6.324915 
L 530.216359 6.324915 
L 530.216359 5.832662 
z
" clip-path="url(#p1007862c2f)" style="fill: #ffa600"/>
   </g>
   <g id="patch_65">
    <path d="M 559.662269 21.098279 
Q 557.322325 20.291189 554.792083 19.882951 
Q 552.261842 19.470021 549.506064 19.470021 
Q 541.288066 19.470021 536.48836 22.529456 
Q 531.688654 25.588891 531.688654 30.8209 
Q 531.688654 36.071678 536.48836 39.126421 
Q 541.288066 42.185856 549.506064 42.185856 
Q 552.261842 42.185856 554.792083 41.772926 
Q 557.322325 41.364688 559.662269 40.557598 
L 559.662269 36.029447 
Q 557.30118 37.099311 555.010572 37.596703 
Q 552.719964 38.094096 550.189722 38.094096 
Q 545.650794 38.094096 543.050072 36.156141 
Q 540.456399 34.222879 540.456399 30.8209 
Q 540.456399 27.432998 543.050072 25.495043 
Q 545.650794 23.561781 550.189722 23.561781 
Q 552.719964 23.561781 555.010572 24.059174 
Q 557.30118 24.561259 559.662269 25.631122 
L 559.662269 21.098279 
z
" clip-path="url(#p1007862c2f)" style="fill: #0000ff"/>
   </g>
   <g id="patch_66">
    <path d="M 559.662269 7.304705 
Q 556.841084 6.699616 553.806743 6.395691 
Q 550.772402 6.094528 547.537444 6.094528 
Q 540.22744 6.094528 535.958047 7.895978 
Q 531.688654 9.697429 531.688654 12.77813 
Q 531.688654 15.89475 536.033279 17.682386 
Q 540.384173 19.470021 547.951217 19.470021 
Q 550.866442 19.470021 553.537163 19.226881 
Q 556.214154 18.986503 558.58395 18.511274 
L 558.58395 15.845017 
Q 556.138923 16.455631 553.718973 16.756794 
Q 551.299023 17.060719 548.866535 17.060719 
Q 544.365178 17.060719 541.926421 15.950009 
Q 539.487663 14.842062 539.487663 12.77813 
Q 539.487663 10.733539 541.83865 9.617303 
Q 544.189638 8.50383 548.515454 8.50383 
Q 549.694083 8.50383 550.70344 8.567378 
Q 551.712797 8.633689 552.515268 8.771837 
L 552.515268 11.27508 
L 547.907332 11.27508 
L 547.907332 13.504789 
L 559.662269 13.504789 
L 559.662269 7.304705 
z
" clip-path="url(#p1007862c2f)" style="fill: #ffa600"/>
   </g>
   <g id="patch_67">
    <path d="M 531.688654 6.094528 
L 559.662269 6.094528 
L 559.662269 6.024718 
L 549.598273 6.024718 
L 549.598273 5.736581 
L 541.772167 5.736581 
L 541.772167 6.024718 
L 531.688654 6.024718 
L 531.688654 6.094528 
z
" clip-path="url(#p1007862c2f)" style="fill: #ff0000"/>
   </g>
   <g id="patch_68">
    <path d="M 589.108179 6.99444 
Q 586.768235 6.370948 584.237994 6.055577 
Q 581.707752 5.736581 578.951974 5.736581 
Q 570.733976 5.736581 565.93427 8.100051 
Q 561.134565 10.463522 561.134565 14.505346 
Q 561.134565 18.56167 565.93427 20.921516 
Q 570.733976 23.284986 578.951974 23.284986 
Q 581.707752 23.284986 584.237994 22.96599 
Q 586.768235 22.650619 589.108179 22.027127 
L 589.108179 18.529046 
Q 586.747091 19.355535 584.456482 19.739781 
Q 582.165874 20.124026 579.635633 20.124026 
Q 575.096704 20.124026 572.495982 18.62692 
Q 569.902309 17.133438 569.902309 14.505346 
Q 569.902309 11.888129 572.495982 10.391023 
Q 575.096704 8.897541 579.635633 8.897541 
Q 582.165874 8.897541 584.456482 9.281786 
Q 586.747091 9.669657 589.108179 10.496146 
L 589.108179 6.99444 
z
" clip-path="url(#p1007862c2f)" style="fill: #0000ff"/>
   </g>
   <g id="patch_69">
    <path d="M 589.108179 25.499649 
Q 586.286995 24.392317 583.252654 23.836124 
Q 580.218313 23.284986 576.983354 23.284986 
Q 569.673351 23.284986 565.403958 26.581698 
Q 561.134565 29.878411 561.134565 35.516193 
Q 561.134565 41.219708 565.479189 44.491139 
Q 569.830083 47.762569 577.397128 47.762569 
Q 580.312352 47.762569 582.983074 47.317614 
Q 585.660065 46.877715 588.02986 46.008031 
L 588.02986 41.128694 
Q 585.584833 42.246138 583.164883 42.797276 
Q 580.744934 43.353469 578.312446 43.353469 
Q 573.811088 43.353469 571.372331 41.320834 
Q 568.933573 39.293255 568.933573 35.516193 
Q 568.933573 31.774526 571.284561 29.731778 
Q 573.635548 27.694086 577.961365 27.694086 
Q 579.139993 27.694086 580.14935 27.810381 
Q 581.158708 27.931733 581.961178 28.184548 
L 581.961178 32.765562 
L 577.353243 32.765562 
L 577.353243 36.846002 
L 589.108179 36.846002 
L 589.108179 25.499649 
z
" clip-path="url(#p1007862c2f)" style="fill: #ffa600"/>
   </g>
   <g id="patch_70">
    <path d="M 618.55409 20.085472 
Q 616.214145 19.212505 613.683904 18.770945 
Q 611.153663 18.324311 608.397884 18.324311 
Q 600.179886 18.324311 595.380181 21.633467 
Q 590.580475 24.942623 590.580475 30.601685 
Q 590.580475 36.281049 595.380181 39.58513 
Q 600.179886 42.894285 608.397884 42.894285 
Q 611.153663 42.894285 613.683904 42.447651 
Q 616.214145 42.006092 618.55409 41.133124 
L 618.55409 36.235371 
Q 616.193001 37.39256 613.902393 37.930552 
Q 611.611784 38.468543 609.081543 38.468543 
Q 604.542614 38.468543 601.941893 36.372406 
Q 599.348219 34.281345 599.348219 30.601685 
Q 599.348219 26.937252 601.941893 24.841115 
Q 604.542614 22.750053 609.081543 22.750053 
Q 611.611784 22.750053 613.902393 23.288045 
Q 616.193001 23.831112 618.55409 24.988301 
L 618.55409 20.085472 
z
" clip-path="url(#p1007862c2f)" style="fill: #0000ff"/>
   </g>
   <g id="patch_71">
    <path d="M 618.55409 6.875483 
Q 615.732905 6.306032 612.698564 6.020006 
Q 609.664223 5.736581 606.429264 5.736581 
Q 599.119261 5.736581 594.849868 7.431933 
Q 590.580475 9.127285 590.580475 12.026546 
Q 590.580475 14.959609 594.9251 16.64196 
Q 599.275993 18.324311 606.843038 18.324311 
Q 609.758262 18.324311 612.428984 18.09549 
Q 615.105975 17.86927 617.47577 17.42203 
L 617.47577 14.912805 
Q 615.030743 15.487456 612.610794 15.770882 
Q 610.190844 16.056907 607.758356 16.056907 
Q 603.256999 16.056907 600.818241 15.011613 
Q 598.379484 13.96892 598.379484 12.026546 
Q 598.379484 10.102373 600.730471 9.051878 
Q 603.081458 8.003984 607.407275 8.003984 
Q 608.585903 8.003984 609.595261 8.06379 
Q 610.604618 8.126195 611.407088 8.256207 
L 611.407088 10.612019 
L 606.799153 10.612019 
L 606.799153 12.710407 
L 618.55409 12.710407 
L 618.55409 6.875483 
z
" clip-path="url(#p1007862c2f)" style="fill: #ffa600"/>
   </g>
   <g id="patch_72">
    <path d="M 648 6.901039 
Q 645.660055 6.323844 643.129814 6.03189 
Q 640.599573 5.736581 637.843795 5.736581 
Q 629.625796 5.736581 624.826091 7.924555 
Q 620.026385 10.112529 620.026385 13.854233 
Q 620.026385 17.60936 624.826091 19.793978 
Q 629.625796 21.981952 637.843795 21.981952 
Q 640.599573 21.981952 643.129814 21.686643 
Q 645.660055 21.394689 648 20.817494 
L 648 17.579158 
Q 645.638911 18.344278 643.348303 18.699991 
Q 641.057694 19.055705 638.527453 19.055705 
Q 633.988525 19.055705 631.387803 17.669764 
Q 628.794129 16.287179 628.794129 13.854233 
Q 628.794129 11.431354 631.387803 10.045413 
Q 633.988525 8.662828 638.527453 8.662828 
Q 641.057694 8.662828 643.348303 9.018542 
Q 645.638911 9.377611 648 10.142731 
L 648 6.901039 
z
" clip-path="url(#p1007862c2f)" style="fill: #0000ff"/>
   </g>
   <g id="patch_73">
    <path d="M 648 23.611976 
Q 645.178815 22.796964 642.144474 22.387597 
Q 639.110133 21.981952 635.875175 21.981952 
Q 628.565171 21.981952 624.295778 24.40838 
Q 620.026385 26.834809 620.026385 30.984299 
Q 620.026385 35.182168 624.37101 37.589989 
Q 628.721904 39.99781 636.288948 39.99781 
Q 639.204173 39.99781 641.874894 39.670316 
Q 644.551885 39.346544 646.92168 38.706444 
L 646.92168 35.115181 
Q 644.476654 35.937636 642.056704 36.343281 
Q 639.636754 36.752648 637.204266 36.752648 
Q 632.702909 36.752648 630.264151 35.256599 
Q 627.825394 33.764271 627.825394 30.984299 
Q 627.825394 28.230377 630.176381 26.726885 
Q 632.527369 25.227114 636.853185 25.227114 
Q 638.031814 25.227114 639.041171 25.312709 
Q 640.050528 25.402025 640.852998 25.588101 
L 640.852998 28.959794 
L 636.245063 28.959794 
L 636.245063 31.963057 
L 648 31.963057 
L 648 23.611976 
z
" clip-path="url(#p1007862c2f)" style="fill: #ffa600"/>
   </g>
   <g id="matplotlib.axis_1">
    <g id="xtick_1">
     <g id="line2d_2">
      <defs>
       <path id="mbaf4fbe11d" d="M 0 0 
L 0 3.5 
" style="stroke: #000000; stroke-width: 0.8"/>
      </defs>
      <g>
       <use xlink:href="#mbaf4fbe11d" x="103.986807" y="192.24" style="stroke: #000000; stroke-width: 0.8"/>
      </g>
     </g>
     <g id="text_1">
      <!-- 0.0 -->
      <g transform="translate(96.035245 206.838437) scale(0.1 -0.1)">
       <defs>
        <path id="DejaVuSans-30" d="M 2034 4250 
Q 1547 4250 1301 3770 
Q 1056 3291 1056 2328 
Q 1056 1369 1301 889 
Q 1547 409 2034 409 
Q 2525 409 2770 889 
Q 3016 1369 3016 2328 
Q 3016 3291 2770 3770 
Q 2525 4250 2034 4250 
z
M 2034 4750 
Q 2819 4750 3233 4129 
Q 3647 3509 3647 2328 
Q 3647 1150 3233 529 
Q 2819 -91 2034 -91 
Q 1250 -91 836 529 
Q 422 1150 422 2328 
Q 422 3509 836 4129 
Q 1250 4750 2034 4750 
z
" transform="scale(0.015625)"/>
        <path id="DejaVuSans-2e" d="M 684 794 
L 1344 794 
L 1344 0 
L 684 0 
L 684 794 
z
" transform="scale(0.015625)"/>
       </defs>
       <use xlink:href="#DejaVuSans-30"/>
       <use xlink:href="#DejaVuSans-2e" x="63.623047"/>
       <use xlink:href="#DejaVuSans-30" x="95.410156"/>
      </g>
     </g>
    </g>
    <g id="xtick_2">
     <g id="line2d_3">
      <g>
       <use xlink:href="#mbaf4fbe11d" x="177.601583" y="192.24" style="stroke: #000000; stroke-width: 0.8"/>
      </g>
     </g>
     <g id="text_2">
      <!-- 2.5 -->
      <g transform="translate(169.650021 206.838437) scale(0.1 -0.1)">
       <defs>
        <path id="DejaVuSans-32" d="M 1228 531 
L 3431 531 
L 3431 0 
L 469 0 
L 469 531 
Q 828 903 1448 1529 
Q 2069 2156 2228 2338 
Q 2531 2678 2651 2914 
Q 2772 3150 2772 3378 
Q 2772 3750 2511 3984 
Q 2250 4219 1831 4219 
Q 1534 4219 1204 4116 
Q 875 4013 500 3803 
L 500 4441 
Q 881 4594 1212 4672 
Q 1544 4750 1819 4750 
Q 2544 4750 2975 4387 
Q 3406 4025 3406 3419 
Q 3406 3131 3298 2873 
Q 3191 2616 2906 2266 
Q 2828 2175 2409 1742 
Q 1991 1309 1228 531 
z
" transform="scale(0.015625)"/>
        <path id="DejaVuSans-35" d="M 691 4666 
L 3169 4666 
L 3169 4134 
L 1269 4134 
L 1269 2991 
Q 1406 3038 1543 3061 
Q 1681 3084 1819 3084 
Q 2600 3084 3056 2656 
Q 3513 2228 3513 1497 
Q 3513 744 3044 326 
Q 2575 -91 1722 -91 
Q 1428 -91 1123 -41 
Q 819 9 494 109 
L 494 744 
Q 775 591 1075 516 
Q 1375 441 1709 441 
Q 2250 441 2565 725 
Q 2881 1009 2881 1497 
Q 2881 1984 2565 2268 
Q 2250 2553 1709 2553 
Q 1456 2553 1204 2497 
Q 953 2441 691 2322 
L 691 4666 
z
" transform="scale(0.015625)"/>
       </defs>
       <use xlink:href="#DejaVuSans-32"/>
       <use xlink:href="#DejaVuSans-2e" x="63.623047"/>
       <use xlink:href="#DejaVuSans-35" x="95.410156"/>
      </g>
     </g>
    </g>
    <g id="xtick_3">
     <g id="line2d_4">
      <g>
       <use xlink:href="#mbaf4fbe11d" x="251.216359" y="192.24" style="stroke: #000000; stroke-width: 0.8"/>
      </g>
     </g>
     <g id="text_3">
      <!-- 5.0 -->
      <g transform="translate(243.264796 206.838437) scale(0.1 -0.1)">
       <use xlink:href="#DejaVuSans-35"/>
       <use xlink:href="#DejaVuSans-2e" x="63.623047"/>
       <use xlink:href="#DejaVuSans-30" x="95.410156"/>
      </g>
     </g>
    </g>
    <g id="xtick_4">
     <g id="line2d_5">
      <g>
       <use xlink:href="#mbaf4fbe11d" x="324.831135" y="192.24" style="stroke: #000000; stroke-width: 0.8"/>
      </g>
     </g>
     <g id="text_4">
      <!-- 7.5 -->
      <g transform="translate(316.879572 206.838437) scale(0.1 -0.1)">
       <defs>
        <path id="DejaVuSans-37" d="M 525 4666 
L 3525 4666 
L 3525 4397 
L 1831 0 
L 1172 0 
L 2766 4134 
L 525 4134 
L 525 4666 
z
" transform="scale(0.015625)"/>
       </defs>
       <use xlink:href="#DejaVuSans-37"/>
       <use xlink:href="#DejaVuSans-2e" x="63.623047"/>
       <use xlink:href="#DejaVuSans-35" x="95.410156"/>
      </g>
     </g>
    </g>
    <g id="xtick_5">
     <g id="line2d_6">
      <g>
       <use xlink:href="#mbaf4fbe11d" x="398.44591" y="192.24" style="stroke: #000000; stroke-width: 0.8"/>
      </g>
     </g>
     <g id="text_5">
      <!-- 10.0 -->
      <g transform="translate(387.313098 206.838437) scale(0.1 -0.1)">
       <defs>
        <path id="DejaVuSans-31" d="M 794 531 
L 1825 531 
L 1825 4091 
L 703 3866 
L 703 4441 
L 1819 4666 
L 2450 4666 
L 2450 531 
L 3481 531 
L 3481 0 
L 794 0 
L 794 531 
z
" transform="scale(0.015625)"/>
       </defs>
       <use xlink:href="#DejaVuSans-31"/>
       <use xlink:href="#DejaVuSans-30" x="63.623047"/>
       <use xlink:href="#DejaVuSans-2e" x="127.246094"/>
       <use xlink:href="#DejaVuSans-30" x="159.033203"/>
      </g>
     </g>
    </g>
    <g id="xtick_6">
     <g id="line2d_7">
      <g>
       <use xlink:href="#mbaf4fbe11d" x="472.060686" y="192.24" style="stroke: #000000; stroke-width: 0.8"/>
      </g>
     </g>
     <g id="text_6">
      <!-- 12.5 -->
      <g transform="translate(460.927874 206.838437) scale(0.1 -0.1)">
       <use xlink:href="#DejaVuSans-31"/>
       <use xlink:href="#DejaVuSans-32" x="63.623047"/>
       <use xlink:href="#DejaVuSans-2e" x="127.246094"/>
       <use xlink:href="#DejaVuSans-35" x="159.033203"/>
      </g>
     </g>
    </g>
    <g id="xtick_7">
     <g id="line2d_8">
      <g>
       <use xlink:href="#mbaf4fbe11d" x="545.675462" y="192.24" style="stroke: #000000; stroke-width: 0.8"/>
      </g>
     </g>
     <g id="text_7">
      <!-- 15.0 -->
      <g transform="translate(534.542649 206.838437) scale(0.1 -0.1)">
       <use xlink:href="#DejaVuSans-31"/>
       <use xlink:href="#DejaVuSans-35" x="63.623047"/>
       <use xlink:href="#DejaVuSans-2e" x="127.246094"/>
       <use xlink:href="#DejaVuSans-30" x="159.033203"/>
      </g>
     </g>
    </g>
    <g id="xtick_8">
     <g id="line2d_9">
      <g>
       <use xlink:href="#mbaf4fbe11d" x="619.290237" y="192.24" style="stroke: #000000; stroke-width: 0.8"/>
      </g>
     </g>
     <g id="text_8">
      <!-- 17.5 -->
      <g transform="translate(608.157425 206.838437) scale(0.1 -0.1)">
       <use xlink:href="#DejaVuSans-31"/>
       <use xlink:href="#DejaVuSans-37" x="63.623047"/>
       <use xlink:href="#DejaVuSans-2e" x="127.246094"/>
       <use xlink:href="#DejaVuSans-35" x="159.033203"/>
      </g>
     </g>
    </g>
   </g>
   <g id="matplotlib.axis_2">
    <g id="ytick_1">
     <g id="line2d_10">
      <defs>
       <path id="m9e69d01e79" d="M 0 0 
L -3.5 0 
" style="stroke: #000000; stroke-width: 0.8"/>
      </defs>
      <g>
       <use xlink:href="#m9e69d01e79" x="90" y="162.961936" style="stroke: #000000; stroke-width: 0.8"/>
      </g>
     </g>
     <g id="text_9">
      <!-- 0.010 -->
      <g transform="translate(45.992188 166.761155) scale(0.1 -0.1)">
       <defs>
        <path id="DejaVuSans-2212" d="M 678 2272 
L 4684 2272 
L 4684 1741 
L 678 1741 
L 678 2272 
z
" transform="scale(0.015625)"/>
       </defs>
       <use xlink:href="#DejaVuSans-2212"/>
       <use xlink:href="#DejaVuSans-30" x="83.789062"/>
       <use xlink:href="#DejaVuSans-2e" x="147.412109"/>
       <use xlink:href="#DejaVuSans-30" x="179.199219"/>
       <use xlink:href="#DejaVuSans-31" x="242.822266"/>
       <use xlink:href="#DejaVuSans-30" x="306.445312"/>
      </g>
     </g>
    </g>
    <g id="ytick_2">
     <g id="line2d_11">
      <g>
       <use xlink:href="#m9e69d01e79" x="90" y="131.516865" style="stroke: #000000; stroke-width: 0.8"/>
      </g>
     </g>
     <g id="text_10">
      <!-- 0.008 -->
      <g transform="translate(45.992188 135.316084) scale(0.1 -0.1)">
       <defs>
        <path id="DejaVuSans-38" d="M 2034 2216 
Q 1584 2216 1326 1975 
Q 1069 1734 1069 1313 
Q 1069 891 1326 650 
Q 1584 409 2034 409 
Q 2484 409 2743 651 
Q 3003 894 3003 1313 
Q 3003 1734 2745 1975 
Q 2488 2216 2034 2216 
z
M 1403 2484 
Q 997 2584 770 2862 
Q 544 3141 544 3541 
Q 544 4100 942 4425 
Q 1341 4750 2034 4750 
Q 2731 4750 3128 4425 
Q 3525 4100 3525 3541 
Q 3525 3141 3298 2862 
Q 3072 2584 2669 2484 
Q 3125 2378 3379 2068 
Q 3634 1759 3634 1313 
Q 3634 634 3220 271 
Q 2806 -91 2034 -91 
Q 1263 -91 848 271 
Q 434 634 434 1313 
Q 434 1759 690 2068 
Q 947 2378 1403 2484 
z
M 1172 3481 
Q 1172 3119 1398 2916 
Q 1625 2713 2034 2713 
Q 2441 2713 2670 2916 
Q 2900 3119 2900 3481 
Q 2900 3844 2670 4047 
Q 2441 4250 2034 4250 
Q 1625 4250 1398 4047 
Q 1172 3844 1172 3481 
z
" transform="scale(0.015625)"/>
       </defs>
       <use xlink:href="#DejaVuSans-2212"/>
       <use xlink:href="#DejaVuSans-30" x="83.789062"/>
       <use xlink:href="#DejaVuSans-2e" x="147.412109"/>
       <use xlink:href="#DejaVuSans-30" x="179.199219"/>
       <use xlink:href="#DejaVuSans-30" x="242.822266"/>
       <use xlink:href="#DejaVuSans-38" x="306.445312"/>
      </g>
     </g>
    </g>
    <g id="ytick_3">
     <g id="line2d_12">
      <g>
       <use xlink:href="#m9e69d01e79" x="90" y="100.071794" style="stroke: #000000; stroke-width: 0.8"/>
      </g>
     </g>
     <g id="text_11">
      <!-- 0.006 -->
      <g transform="translate(45.992188 103.871013) scale(0.1 -0.1)">
       <defs>
        <path id="DejaVuSans-36" d="M 2113 2584 
Q 1688 2584 1439 2293 
Q 1191 2003 1191 1497 
Q 1191 994 1439 701 
Q 1688 409 2113 409 
Q 2538 409 2786 701 
Q 3034 994 3034 1497 
Q 3034 2003 2786 2293 
Q 2538 2584 2113 2584 
z
M 3366 4563 
L 3366 3988 
Q 3128 4100 2886 4159 
Q 2644 4219 2406 4219 
Q 1781 4219 1451 3797 
Q 1122 3375 1075 2522 
Q 1259 2794 1537 2939 
Q 1816 3084 2150 3084 
Q 2853 3084 3261 2657 
Q 3669 2231 3669 1497 
Q 3669 778 3244 343 
Q 2819 -91 2113 -91 
Q 1303 -91 875 529 
Q 447 1150 447 2328 
Q 447 3434 972 4092 
Q 1497 4750 2381 4750 
Q 2619 4750 2861 4703 
Q 3103 4656 3366 4563 
z
" transform="scale(0.015625)"/>
       </defs>
       <use xlink:href="#DejaVuSans-2212"/>
       <use xlink:href="#DejaVuSans-30" x="83.789062"/>
       <use xlink:href="#DejaVuSans-2e" x="147.412109"/>
       <use xlink:href="#DejaVuSans-30" x="179.199219"/>
       <use xlink:href="#DejaVuSans-30" x="242.822266"/>
       <use xlink:href="#DejaVuSans-36" x="306.445312"/>
      </g>
     </g>
    </g>
    <g id="ytick_4">
     <g id="line2d_13">
      <g>
       <use xlink:href="#m9e69d01e79" x="90" y="68.626723" style="stroke: #000000; stroke-width: 0.8"/>
      </g>
     </g>
     <g id="text_12">
      <!-- 0.004 -->
      <g transform="translate(45.992188 72.425942) scale(0.1 -0.1)">
       <defs>
        <path id="DejaVuSans-34" d="M 2419 4116 
L 825 1625 
L 2419 1625 
L 2419 4116 
z
M 2253 4666 
L 3047 4666 
L 3047 1625 
L 3713 1625 
L 3713 1100 
L 3047 1100 
L 3047 0 
L 2419 0 
L 2419 1100 
L 313 1100 
L 313 1709 
L 2253 4666 
z
" transform="scale(0.015625)"/>
       </defs>
       <use xlink:href="#DejaVuSans-2212"/>
       <use xlink:href="#DejaVuSans-30" x="83.789062"/>
       <use xlink:href="#DejaVuSans-2e" x="147.412109"/>
       <use xlink:href="#DejaVuSans-30" x="179.199219"/>
       <use xlink:href="#DejaVuSans-30" x="242.822266"/>
       <use xlink:href="#DejaVuSans-34" x="306.445312"/>
      </g>
     </g>
    </g>
    <g id="ytick_5">
     <g id="line2d_14">
      <g>
       <use xlink:href="#m9e69d01e79" x="90" y="37.181652" style="stroke: #000000; stroke-width: 0.8"/>
      </g>
     </g>
     <g id="text_13">
      <!-- 0.002 -->
      <g transform="translate(45.992188 40.980871) scale(0.1 -0.1)">
       <use xlink:href="#DejaVuSans-2212"/>
       <use xlink:href="#DejaVuSans-30" x="83.789062"/>
       <use xlink:href="#DejaVuSans-2e" x="147.412109"/>
       <use xlink:href="#DejaVuSans-30" x="179.199219"/>
       <use xlink:href="#DejaVuSans-30" x="242.822266"/>
       <use xlink:href="#DejaVuSans-32" x="306.445312"/>
      </g>
     </g>
    </g>
   </g>
  </g>
 </g>
 <defs>
  <clipPath id="p1007862c2f">
   <rect x="90" y="25.92" width="558" height="166.32"/>
  </clipPath>
 </defs>
</svg>
