<?xml version="1.0" encoding="utf-8" standalone="no"?>
<!DOCTYPE svg PUBLIC "-//W3C//DTD SVG 1.1//EN"
  "http://www.w3.org/Graphics/SVG/1.1/DTD/svg11.dtd">
<svg xmlns:xlink="http://www.w3.org/1999/xlink" width="720pt" height="216pt" viewBox="0 0 720 216" xmlns="http://www.w3.org/2000/svg" version="1.1">
 <metadata>
  <rdf:RDF xmlns:dc="http://purl.org/dc/elements/1.1/" xmlns:cc="http://creativecommons.org/ns#" xmlns:rdf="http://www.w3.org/1999/02/22-rdf-syntax-ns#">
   <cc:Work>
    <dc:type rdf:resource="http://purl.org/dc/dcmitype/StillImage"/>
    <dc:date>2024-11-23T04:45:42.713848</dc:date>
    <dc:format>image/svg+xml</dc:format>
    <dc:creator>
     <cc:Agent>
      <dc:title>Matplotlib v3.7.2, https://matplotlib.org/</dc:title>
     </cc:Agent>
    </dc:creator>
   </cc:Work>
  </rdf:RDF>
 </metadata>
 <defs>
  <style type="text/css">*{stroke-linejoin: round; stroke-linecap: butt}</style>
 </defs>
 <g id="figure_1">
  <g id="patch_1">
   <path d="M 0 216 
L 720 216 
L 720 0 
L 0 0 
z
" style="fill: #ffffff"/>
  </g>
  <g id="axes_1">
   <g id="patch_2">
    <path d="M 90 192.24 
L 648 192.24 
L 648 25.92 
L 90 25.92 
z
" style="fill: #ffffff"/>
   </g>
   <g id="line2d_1">
    <path d="M 90 28.910607 
L 648 28.910607 
" clip-path="url(#p99779bcb88)" style="fill: none; stroke: #000000; stroke-width: 0.5; stroke-linecap: square"/>
   </g>
   <g id="patch_3">
    <path d="M 102.260459 28.024446 
L 95.453516 28.024446 
L 94.378735 28.910607 
L 90 28.910607 
L 96.253268 24.046108 
L 101.446231 24.046108 
L 107.699499 28.910607 
L 103.324383 28.910607 
L 102.260459 28.024446 
z
M 96.539153 27.121605 
L 101.163965 27.121605 
L 98.855178 25.186648 
L 96.539153 27.121605 
z
" clip-path="url(#p99779bcb88)" style="fill: #008000"/>
   </g>
   <g id="patch_4">
    <path d="M 90 17.110008 
L 107.699499 17.110008 
L 107.699499 18.462741 
L 101.331796 18.462741 
L 101.331796 24.046108 
L 96.380052 24.046108 
L 96.380052 18.462741 
L 90 18.462741 
L 90 17.110008 
z
" clip-path="url(#p99779bcb88)" style="fill: #ff0000"/>
   </g>
   <g id="patch_5">
    <path d="M 126.330551 28.886272 
Q 124.545527 28.898439 122.625636 28.904551 
Q 120.705744 28.910607 118.658917 28.910607 
Q 114.033723 28.910607 111.332387 28.874382 
Q 108.631052 28.838157 108.631052 28.776208 
Q 108.631052 28.713537 111.379988 28.677591 
Q 114.132891 28.641644 118.92072 28.641644 
Q 120.765244 28.641644 122.455067 28.646533 
Q 124.148856 28.651367 125.648275 28.660923 
L 125.648275 28.714538 
Q 124.101255 28.702259 122.570102 28.696203 
Q 121.038948 28.690091 119.499861 28.690091 
Q 116.651757 28.690091 115.108704 28.712426 
Q 113.56565 28.734706 113.56565 28.776208 
Q 113.56565 28.817322 115.053169 28.839768 
Q 116.540689 28.862159 119.277725 28.862159 
Q 120.023468 28.862159 120.66211 28.860881 
Q 121.300752 28.859547 121.808492 28.856769 
L 121.808492 28.806433 
L 118.892953 28.806433 
L 118.892953 28.761596 
L 126.330551 28.761596 
L 126.330551 28.886272 
z
" clip-path="url(#p99779bcb88)" style="fill: #ffa600"/>
   </g>
   <g id="patch_6">
    <path d="M 108.631052 21.451335 
L 126.330551 21.451335 
L 126.330551 22.853646 
L 119.962847 22.853646 
L 119.962847 28.641644 
L 115.011104 28.641644 
L 115.011104 22.853646 
L 108.631052 22.853646 
L 108.631052 21.451335 
z
" clip-path="url(#p99779bcb88)" style="fill: #ff0000"/>
   </g>
   <g id="patch_7">
    <path d="M 120.89151 17.36359 
L 114.084567 17.36359 
L 113.009787 21.451335 
L 108.631052 21.451335 
L 114.88432 -0.987984 
L 120.077283 -0.987984 
L 126.330551 21.451335 
L 121.955434 21.451335 
L 120.89151 17.36359 
z
M 115.170204 13.198898 
L 119.795017 13.198898 
L 117.48623 4.273185 
L 115.170204 13.198898 
z
" clip-path="url(#p99779bcb88)" style="fill: #008000"/>
   </g>
   <g id="patch_8">
    <path d="M 127.262104 14.173038 
L 144.961603 14.173038 
L 144.961603 17.047275 
L 138.593899 17.047275 
L 138.593899 28.910607 
L 133.642156 28.910607 
L 133.642156 17.047275 
L 127.262104 17.047275 
L 127.262104 14.173038 
z
" clip-path="url(#p99779bcb88)" style="fill: #ff0000"/>
   </g>
   <g id="patch_9">
    <path d="M 158.153614 28.40413 
L 151.346671 28.40413 
L 150.27189 28.910607 
L 145.893155 28.910607 
L 152.146423 26.130348 
L 157.339386 26.130348 
L 163.592654 28.910607 
L 159.217538 28.910607 
L 158.153614 28.40413 
z
M 152.432308 27.88812 
L 157.057121 27.88812 
L 154.748333 26.782213 
L 152.432308 27.88812 
z
" clip-path="url(#p99779bcb88)" style="fill: #008000"/>
   </g>
   <g id="patch_10">
    <path d="M 163.592654 25.785231 
Q 161.807631 25.957789 159.887739 26.044462 
Q 157.967847 26.130348 155.92102 26.130348 
Q 151.295826 26.130348 148.594491 25.616612 
Q 145.893155 25.102876 145.893155 24.224324 
Q 145.893155 23.33553 148.642091 22.825733 
Q 151.394994 22.315937 156.182824 22.315937 
Q 158.027348 22.315937 159.71717 22.385276 
Q 161.410959 22.453826 162.910379 22.589352 
L 162.910379 23.349712 
Q 161.363358 23.175578 159.832205 23.089693 
Q 158.301052 23.00302 156.761965 23.00302 
Q 153.913861 23.00302 152.370807 23.319771 
Q 150.827753 23.635734 150.827753 24.224324 
Q 150.827753 24.807399 152.315273 25.125726 
Q 153.802792 25.443265 156.539828 25.443265 
Q 157.285572 25.443265 157.924213 25.425143 
Q 158.562855 25.406232 159.070595 25.366835 
L 159.070595 24.652963 
L 156.155057 24.652963 
L 156.155057 24.017096 
L 163.592654 24.017096 
L 163.592654 25.785231 
z
" clip-path="url(#p99779bcb88)" style="fill: #ffa600"/>
   </g>
   <g id="patch_11">
    <path d="M 145.893155 16.270289 
L 163.592654 16.270289 
L 163.592654 17.449359 
L 157.224951 17.449359 
L 157.224951 22.315937 
L 152.273207 22.315937 
L 152.273207 17.449359 
L 145.893155 17.449359 
L 145.893155 16.270289 
z
" clip-path="url(#p99779bcb88)" style="fill: #ff0000"/>
   </g>
   <g id="patch_12">
    <path d="M 182.223706 28.84994 
Q 180.438683 28.880273 178.518791 28.895509 
Q 176.598899 28.910607 174.552072 28.910607 
Q 169.926878 28.910607 167.225542 28.8203 
Q 164.524207 28.729993 164.524207 28.575558 
Q 164.524207 28.419322 167.273143 28.329708 
Q 170.026046 28.240094 174.813876 28.240094 
Q 176.6584 28.240094 178.348222 28.252283 
Q 180.042011 28.264333 181.541431 28.288156 
L 181.541431 28.421815 
Q 179.99441 28.391205 178.463257 28.376108 
Q 176.932103 28.360872 175.393016 28.360872 
Q 172.544912 28.360872 171.001859 28.416552 
Q 169.458805 28.472093 169.458805 28.575558 
Q 169.458805 28.678053 170.946325 28.73401 
Q 172.433844 28.789828 175.17088 28.789828 
Q 175.916623 28.789828 176.555265 28.786643 
Q 177.193907 28.783319 177.701647 28.776393 
L 177.701647 28.650906 
L 174.786108 28.650906 
L 174.786108 28.539131 
L 182.223706 28.539131 
L 182.223706 28.84994 
z
" clip-path="url(#p99779bcb88)" style="fill: #ffa600"/>
   </g>
   <g id="patch_13">
    <path d="M 164.524207 21.684772 
L 182.223706 21.684772 
L 182.223706 22.963243 
L 175.856003 22.963243 
L 175.856003 28.240094 
L 170.904259 28.240094 
L 170.904259 22.963243 
L 164.524207 22.963243 
L 164.524207 21.684772 
z
" clip-path="url(#p99779bcb88)" style="fill: #ff0000"/>
   </g>
   <g id="patch_14">
    <path d="M 195.415717 27.367241 
L 188.608774 27.367241 
L 187.533994 28.910607 
L 183.155259 28.910607 
L 189.408527 20.438438 
L 194.60149 20.438438 
L 200.854758 28.910607 
L 196.479641 28.910607 
L 195.415717 27.367241 
z
M 189.694411 25.794824 
L 194.319224 25.794824 
L 192.010437 22.42484 
L 189.694411 25.794824 
z
" clip-path="url(#p99779bcb88)" style="fill: #008000"/>
   </g>
   <g id="patch_15">
    <path d="M 214.046769 28.736224 
L 207.239826 28.736224 
L 206.165046 28.910607 
L 201.786311 28.910607 
L 208.039579 27.95335 
L 213.232542 27.95335 
L 219.48581 28.910607 
L 215.110693 28.910607 
L 214.046769 28.736224 
z
M 208.325463 28.558559 
L 212.950276 28.558559 
L 210.641488 28.17779 
L 208.325463 28.558559 
z
" clip-path="url(#p99779bcb88)" style="fill: #008000"/>
   </g>
   <g id="patch_16">
    <path d="M 201.786311 25.281854 
L 219.48581 25.281854 
L 219.48581 25.80287 
L 213.118106 25.80287 
L 213.118106 27.95335 
L 208.166363 27.95335 
L 208.166363 25.80287 
L 201.786311 25.80287 
L 201.786311 25.281854 
z
" clip-path="url(#p99779bcb88)" style="fill: #ff0000"/>
   </g>
   <g id="patch_17">
    <path d="M 220.417362 25.417439 
L 238.116861 25.417439 
L 238.116861 26.098704 
L 231.749158 26.098704 
L 231.749158 28.910607 
L 226.797414 28.910607 
L 226.797414 26.098704 
L 220.417362 26.098704 
L 220.417362 25.417439 
z
" clip-path="url(#p99779bcb88)" style="fill: #ff0000"/>
   </g>
   <g id="patch_18">
    <path d="M 239.048414 26.591072 
L 256.747913 26.591072 
L 256.747913 27.043446 
L 250.38021 27.043446 
L 250.38021 28.910607 
L 245.428466 28.910607 
L 245.428466 27.043446 
L 239.048414 27.043446 
L 239.048414 26.591072 
z
" clip-path="url(#p99779bcb88)" style="fill: #ff0000"/>
   </g>
   <g id="patch_19">
    <path d="M 251.308873 26.04904 
L 244.50193 26.04904 
L 243.427149 26.591072 
L 239.048414 26.591072 
L 245.301682 23.615637 
L 250.494645 23.615637 
L 256.747913 26.591072 
L 252.372797 26.591072 
L 251.308873 26.04904 
z
M 245.587567 25.496806 
L 250.212379 25.496806 
L 247.903592 24.313264 
L 245.587567 25.496806 
z
" clip-path="url(#p99779bcb88)" style="fill: #008000"/>
   </g>
   <g id="patch_20">
    <path d="M 275.378965 27.889327 
Q 273.593941 28.399967 271.67405 28.656453 
Q 269.754158 28.910607 267.707331 28.910607 
Q 263.082137 28.910607 260.380801 27.390346 
Q 257.679466 25.870086 257.679466 23.270254 
Q 257.679466 20.640111 260.428402 19.131509 
Q 263.181305 17.622907 267.969134 17.622907 
Q 269.813659 17.622907 271.503481 17.828096 
Q 273.19727 18.030952 274.696689 18.432003 
L 274.696689 20.682081 
Q 273.149669 20.166778 271.618516 19.912624 
Q 270.087362 19.656139 268.548275 19.656139 
Q 265.700171 19.656139 264.157118 20.593477 
Q 262.614064 21.528484 262.614064 23.270254 
Q 262.614064 24.995703 264.101583 25.937705 
Q 265.589103 26.877375 268.326139 26.877375 
Q 269.071882 26.877375 269.710524 26.823746 
Q 270.349166 26.767786 270.856906 26.651201 
L 270.856906 24.538692 
L 267.941367 24.538692 
L 267.941367 22.65702 
L 275.378965 22.65702 
L 275.378965 27.889327 
z
" clip-path="url(#p99779bcb88)" style="fill: #ffa600"/>
   </g>
   <g id="patch_21">
    <path d="M 294.010017 27.005173 
Q 292.224993 27.95789 290.305101 28.436423 
Q 288.385209 28.910607 286.338383 28.910607 
Q 281.713188 28.910607 279.011853 26.074207 
Q 276.310518 23.237808 276.310518 18.387217 
Q 276.310518 13.480072 279.059454 10.665424 
Q 281.812356 7.850776 286.600186 7.850776 
Q 288.44471 7.850776 290.134532 8.233603 
Q 291.828321 8.61208 293.327741 9.360332 
L 293.327741 13.558377 
Q 291.780721 12.59696 290.249567 12.122776 
Q 288.718414 11.644243 287.179327 11.644243 
Q 284.331223 11.644243 282.788169 13.393066 
Q 281.245116 15.137538 281.245116 18.387217 
Q 281.245116 21.606443 282.732635 23.363967 
Q 284.220155 25.11714 286.957191 25.11714 
Q 287.702934 25.11714 288.341576 25.017083 
Q 288.980217 24.912675 289.487957 24.69516 
L 289.487957 20.753783 
L 286.572419 20.753783 
L 286.572419 17.243086 
L 294.010017 17.243086 
L 294.010017 27.005173 
z
" clip-path="url(#p99779bcb88)" style="fill: #ffa600"/>
   </g>
   <g id="patch_22">
    <path d="M 331.27212 28.817188 
Q 329.487097 28.863897 327.567205 28.887359 
Q 325.647313 28.910607 323.600486 28.910607 
Q 318.975292 28.910607 316.273957 28.771546 
Q 313.572621 28.632485 313.572621 28.394673 
Q 313.572621 28.154089 316.321557 28.016095 
Q 319.07446 27.8781 323.86229 27.8781 
Q 325.706814 27.8781 327.396636 27.896869 
Q 329.090425 27.915425 330.589845 27.95211 
L 330.589845 28.157928 
Q 329.042824 28.110793 327.511671 28.087545 
Q 325.980517 28.064084 324.44143 28.064084 
Q 321.593326 28.064084 320.050273 28.149824 
Q 318.507219 28.23535 318.507219 28.394673 
Q 318.507219 28.552503 319.994739 28.63867 
Q 321.482258 28.724623 324.219294 28.724623 
Q 324.965037 28.724623 325.603679 28.719718 
Q 326.242321 28.714599 326.750061 28.703935 
L 326.750061 28.5107 
L 323.834523 28.5107 
L 323.834523 28.33858 
L 331.27212 28.33858 
L 331.27212 28.817188 
z
" clip-path="url(#p99779bcb88)" style="fill: #ffa600"/>
   </g>
   <g id="patch_23">
    <path d="M 325.83308 25.968992 
L 319.026137 25.968992 
L 317.951356 27.8781 
L 313.572621 27.8781 
L 319.825889 17.398217 
L 325.018852 17.398217 
L 331.27212 27.8781 
L 326.897004 27.8781 
L 325.83308 25.968992 
z
M 320.111774 24.023947 
L 324.736586 24.023947 
L 322.427799 19.855352 
L 320.111774 24.023947 
z
" clip-path="url(#p99779bcb88)" style="fill: #008000"/>
   </g>
   <g id="patch_24">
    <path d="M 418.988338 28.699433 
L 412.181395 28.699433 
L 411.106615 28.910607 
L 406.72788 28.910607 
L 412.981148 27.751386 
L 418.174111 27.751386 
L 424.427379 28.910607 
L 420.052263 28.910607 
L 418.988338 28.699433 
z
M 413.267032 28.484284 
L 417.891845 28.484284 
L 415.583058 28.023179 
L 413.267032 28.484284 
z
" clip-path="url(#p99779bcb88)" style="fill: #008000"/>
   </g>
   <g id="patch_25">
    <path d="M 474.881494 28.686604 
L 468.074551 28.686604 
L 466.99977 28.910607 
L 462.621035 28.910607 
L 468.874303 27.680965 
L 474.067266 27.680965 
L 480.320534 28.910607 
L 475.945418 28.910607 
L 474.881494 28.686604 
z
M 469.160188 28.458385 
L 473.785 28.458385 
L 471.476213 27.96927 
L 469.160188 28.458385 
z
" clip-path="url(#p99779bcb88)" style="fill: #008000"/>
   </g>
   <g id="patch_26">
    <path d="M 493.512545 28.715537 
L 486.705603 28.715537 
L 485.630822 28.910607 
L 481.252087 28.910607 
L 487.505355 27.839788 
L 492.698318 27.839788 
L 498.951586 28.910607 
L 494.57647 28.910607 
L 493.512545 28.715537 
z
M 487.791239 28.516795 
L 492.416052 28.516795 
L 490.107265 28.090855 
L 487.791239 28.516795 
z
" clip-path="url(#p99779bcb88)" style="fill: #008000"/>
   </g>
   <g id="patch_27">
    <path d="M 530.774649 28.813476 
L 523.967706 28.813476 
L 522.892926 28.910607 
L 518.51419 28.910607 
L 524.767458 28.377418 
L 529.960421 28.377418 
L 536.213689 28.910607 
L 531.838573 28.910607 
L 530.774649 28.813476 
z
M 525.053343 28.714517 
L 529.678156 28.714517 
L 527.369368 28.50243 
L 525.053343 28.714517 
z
" clip-path="url(#p99779bcb88)" style="fill: #008000"/>
   </g>
   <g id="patch_28">
    <path d="M 518.51419 27.24736 
L 536.213689 27.24736 
L 536.213689 27.467753 
L 529.845986 27.467753 
L 529.845986 28.377418 
L 524.894242 28.377418 
L 524.894242 27.467753 
L 518.51419 27.467753 
L 518.51419 27.24736 
z
" clip-path="url(#p99779bcb88)" style="fill: #ff0000"/>
   </g>
   <g id="patch_29">
    <path d="M 537.145242 27.7836 
L 554.844741 27.7836 
L 554.844741 28.003398 
L 548.477038 28.003398 
L 548.477038 28.910607 
L 543.525294 28.910607 
L 543.525294 28.003398 
L 537.145242 28.003398 
L 537.145242 27.7836 
z
" clip-path="url(#p99779bcb88)" style="fill: #ff0000"/>
   </g>
   <g id="patch_30">
    <path d="M 568.036752 28.311762 
L 561.22981 28.311762 
L 560.155029 28.910607 
L 555.776294 28.910607 
L 562.029562 25.623303 
L 567.222525 25.623303 
L 573.475793 28.910607 
L 569.100677 28.910607 
L 568.036752 28.311762 
z
M 562.315446 27.701646 
L 566.940259 27.701646 
L 564.631472 26.394051 
L 562.315446 27.701646 
z
" clip-path="url(#p99779bcb88)" style="fill: #008000"/>
   </g>
   <g id="patch_31">
    <path d="M 555.776294 17.01275 
L 573.475793 17.01275 
L 573.475793 18.692048 
L 567.108089 18.692048 
L 567.108089 25.623303 
L 562.156346 25.623303 
L 562.156346 18.692048 
L 555.776294 18.692048 
L 555.776294 17.01275 
z
" clip-path="url(#p99779bcb88)" style="fill: #ff0000"/>
   </g>
   <g id="patch_32">
    <path d="M 586.667804 28.436481 
L 579.860861 28.436481 
L 578.786081 28.910607 
L 574.407346 28.910607 
L 580.660614 26.307937 
L 585.853577 26.307937 
L 592.106845 28.910607 
L 587.731728 28.910607 
L 586.667804 28.436481 
z
M 580.946498 27.953431 
L 585.571311 27.953431 
L 583.262523 26.918165 
L 580.946498 27.953431 
z
" clip-path="url(#p99779bcb88)" style="fill: #008000"/>
   </g>
   <g id="patch_33">
    <path d="M 574.407346 1.37347 
L 592.106845 1.37347 
L 592.106845 6.236386 
L 585.739141 6.236386 
L 585.739141 26.307937 
L 580.787398 26.307937 
L 580.787398 6.236386 
L 574.407346 6.236386 
L 574.407346 1.37347 
z
" clip-path="url(#p99779bcb88)" style="fill: #ff0000"/>
   </g>
   <g id="patch_34">
    <path d="M 593.038397 28.577025 
L 610.737896 28.577025 
L 610.737896 28.642083 
L 604.370193 28.642083 
L 604.370193 28.910607 
L 599.418449 28.910607 
L 599.418449 28.642083 
L 593.038397 28.642083 
L 593.038397 28.577025 
z
" clip-path="url(#p99779bcb88)" style="fill: #ff0000"/>
   </g>
   <g id="patch_35">
    <path d="M 605.298856 26.693767 
L 598.491913 26.693767 
L 597.417133 28.577025 
L 593.038397 28.577025 
L 599.291665 18.239046 
L 604.484628 18.239046 
L 610.737896 28.577025 
L 606.36278 28.577025 
L 605.298856 26.693767 
z
M 599.57755 24.775059 
L 604.202363 24.775059 
L 601.893575 20.66291 
L 599.57755 24.775059 
z
" clip-path="url(#p99779bcb88)" style="fill: #008000"/>
   </g>
   <g id="patch_36">
    <path d="M 611.669449 27.994774 
L 629.368948 27.994774 
L 629.368948 28.173387 
L 623.001245 28.173387 
L 623.001245 28.910607 
L 618.049501 28.910607 
L 618.049501 28.173387 
L 611.669449 28.173387 
L 611.669449 27.994774 
z
" clip-path="url(#p99779bcb88)" style="fill: #ff0000"/>
   </g>
   <g id="patch_37">
    <path d="M 629.368948 27.850758 
Q 627.583925 27.922766 625.664033 27.958934 
Q 623.744141 27.994774 621.697314 27.994774 
Q 617.07212 27.994774 614.370785 27.780394 
Q 611.669449 27.566014 611.669449 27.199397 
Q 611.669449 26.828506 614.418385 26.61577 
Q 617.171288 26.403034 621.959118 26.403034 
Q 623.803642 26.403034 625.493464 26.431969 
Q 627.187253 26.460575 628.686673 26.517129 
L 628.686673 26.834425 
Q 627.139652 26.761759 625.608499 26.72592 
Q 624.077345 26.689751 622.538259 26.689751 
Q 619.690154 26.689751 618.147101 26.82193 
Q 616.604047 26.953781 616.604047 27.199397 
Q 616.604047 27.442712 618.091567 27.575549 
Q 619.579086 27.708057 622.316122 27.708057 
Q 623.061865 27.708057 623.700507 27.700494 
Q 624.339149 27.692603 624.846889 27.676163 
L 624.846889 27.378267 
L 621.931351 27.378267 
L 621.931351 27.112922 
L 629.368948 27.112922 
L 629.368948 27.850758 
z
" clip-path="url(#p99779bcb88)" style="fill: #ffa600"/>
   </g>
   <g id="patch_38">
    <path d="M 623.929908 23.611186 
L 617.122965 23.611186 
L 616.048184 26.403034 
L 611.669449 26.403034 
L 617.922717 11.07743 
L 623.11568 11.07743 
L 629.368948 26.403034 
L 624.993832 26.403034 
L 623.929908 23.611186 
z
M 618.208602 20.766786 
L 622.833415 20.766786 
L 620.524627 14.670703 
L 618.208602 20.766786 
z
" clip-path="url(#p99779bcb88)" style="fill: #008000"/>
   </g>
   <g id="patch_39">
    <path d="M 630.300501 23.32415 
L 648 23.32415 
L 648 24.413665 
L 641.632296 24.413665 
L 641.632296 28.910607 
L 636.680553 28.910607 
L 636.680553 24.413665 
L 630.300501 24.413665 
L 630.300501 23.32415 
z
" clip-path="url(#p99779bcb88)" style="fill: #ff0000"/>
   </g>
   <g id="patch_40">
    <path d="M 642.560959 21.920949 
L 635.754017 21.920949 
L 634.679236 23.32415 
L 630.300501 23.32415 
L 636.553769 15.621403 
L 641.746732 15.621403 
L 648 23.32415 
L 643.624884 23.32415 
L 642.560959 21.920949 
z
M 636.839653 20.491335 
L 641.464466 20.491335 
L 639.155679 17.427405 
L 636.839653 20.491335 
z
" clip-path="url(#p99779bcb88)" style="fill: #008000"/>
   </g>
   <g id="patch_41">
    <path d="M 107.699499 52.312511 
Q 106.218967 51.50379 104.618029 51.094728 
Q 103.017092 50.680964 101.273453 50.680964 
Q 96.073751 50.680964 93.036876 53.746579 
Q 90 56.812193 90 62.05477 
Q 90 67.316154 93.036876 70.377066 
Q 96.073751 73.442681 101.273453 73.442681 
Q 103.017092 73.442681 104.618029 73.028917 
Q 106.218967 72.619855 107.699499 71.811135 
L 107.699499 67.273837 
Q 106.205588 68.345862 104.756272 68.844259 
Q 103.306955 69.342657 101.706018 69.342657 
Q 98.834142 69.342657 97.18861 67.400787 
Q 95.547538 65.46362 95.547538 62.05477 
Q 95.547538 58.660025 97.18861 56.718156 
Q 98.834142 54.780988 101.706018 54.780988 
Q 103.306955 54.780988 104.756272 55.279386 
Q 106.205588 55.782485 107.699499 56.85451 
L 107.699499 52.312511 
z
" clip-path="url(#p99779bcb88)" style="fill: #0000ff"/>
   </g>
   <g id="patch_42">
    <path d="M 107.699499 30.880327 
Q 105.914476 29.895467 103.994584 29.400788 
Q 102.074692 28.910607 100.027865 28.910607 
Q 95.402671 28.910607 92.701335 31.842702 
Q 90 34.774797 90 39.78904 
Q 90 44.861745 92.748936 47.771354 
Q 95.501839 50.680964 100.289668 50.680964 
Q 102.134193 50.680964 103.824015 50.285221 
Q 105.517804 49.893976 107.017224 49.120478 
L 107.017224 44.780797 
Q 105.470203 45.774652 103.93905 46.264833 
Q 102.407896 46.759512 100.868809 46.759512 
Q 98.020705 46.759512 96.477652 44.951686 
Q 94.934598 43.148358 94.934598 39.78904 
Q 94.934598 36.461202 96.422118 34.644382 
Q 97.909637 32.832059 100.646673 32.832059 
Q 101.392416 32.832059 102.031058 32.935492 
Q 102.6697 33.043422 103.17744 33.268276 
L 103.17744 37.342629 
L 100.261901 37.342629 
L 100.261901 40.971772 
L 107.699499 40.971772 
L 107.699499 30.880327 
z
" clip-path="url(#p99779bcb88)" style="fill: #ffa600"/>
   </g>
   <g id="patch_43">
    <path d="M 126.330551 31.460126 
Q 124.850018 30.196387 123.249081 29.557171 
Q 121.648144 28.910607 119.904504 28.910607 
Q 114.704803 28.910607 111.667927 33.701059 
Q 108.631052 38.491511 108.631052 46.683771 
Q 108.631052 54.905421 111.667927 59.688526 
Q 114.704803 64.478978 119.904504 64.478978 
Q 121.648144 64.478978 123.249081 63.832414 
Q 124.850018 63.193197 126.330551 61.929458 
L 126.330551 54.839296 
Q 124.83664 56.514484 123.387324 57.2933 
Q 121.938007 58.072116 120.33707 58.072116 
Q 117.465193 58.072116 115.819662 55.037673 
Q 114.178589 52.010578 114.178589 46.683771 
Q 114.178589 41.379007 115.819662 38.344564 
Q 117.465193 35.317469 120.33707 35.317469 
Q 121.938007 35.317469 123.387324 36.096285 
Q 124.83664 36.882448 126.330551 38.557636 
L 126.330551 31.460126 
z
" clip-path="url(#p99779bcb88)" style="fill: #0000ff"/>
   </g>
   <g id="patch_44">
    <path d="M 139.522562 29.503804 
L 132.715619 29.503804 
L 131.640839 28.910607 
L 127.262104 28.910607 
L 133.515372 32.166912 
L 138.708335 32.166912 
L 144.961603 28.910607 
L 140.586486 28.910607 
L 139.522562 29.503804 
z
M 133.801256 30.108168 
L 138.426069 30.108168 
L 136.117281 31.403432 
L 133.801256 30.108168 
z
" clip-path="url(#p99779bcb88)" style="fill: #008000"/>
   </g>
   <g id="patch_45">
    <path d="M 144.961603 33.623709 
Q 143.48107 32.901608 141.880133 32.536359 
Q 140.279195 32.166912 138.535556 32.166912 
Q 133.335855 32.166912 130.298979 34.90418 
Q 127.262104 37.641448 127.262104 42.322511 
Q 127.262104 47.020368 130.298979 49.753438 
Q 133.335855 52.490706 138.535556 52.490706 
Q 140.279195 52.490706 141.880133 52.121259 
Q 143.48107 51.75601 144.961603 51.033908 
L 144.961603 46.982584 
Q 143.467692 47.939788 142.018375 48.384804 
Q 140.569059 48.82982 138.968121 48.82982 
Q 136.096245 48.82982 134.450713 47.095937 
Q 132.809641 45.366253 132.809641 42.322511 
Q 132.809641 39.291365 134.450713 37.557482 
Q 136.096245 35.827798 138.968121 35.827798 
Q 140.569059 35.827798 142.018375 36.272814 
Q 143.467692 36.722028 144.961603 37.679232 
L 144.961603 33.623709 
z
" clip-path="url(#p99779bcb88)" style="fill: #0000ff"/>
   </g>
   <g id="patch_46">
    <path d="M 144.961603 56.387432 
Q 143.176579 54.439069 141.256687 53.460439 
Q 139.336795 52.490706 137.289969 52.490706 
Q 132.664774 52.490706 129.963439 58.291312 
Q 127.262104 64.091917 127.262104 74.011665 
Q 127.262104 84.047068 130.01104 89.803191 
Q 132.763942 95.559313 137.551772 95.559313 
Q 139.396296 95.559313 141.086118 94.776409 
Q 142.779907 94.002402 144.279327 92.472181 
L 144.279327 83.886929 
Q 142.732307 85.853085 141.201153 86.822818 
Q 139.67 87.801448 138.130913 87.801448 
Q 135.282809 87.801448 133.739755 84.225001 
Q 132.196702 80.65745 132.196702 74.011665 
Q 132.196702 67.428155 133.684221 63.833915 
Q 135.171741 60.248571 137.908777 60.248571 
Q 138.65452 60.248571 139.293162 60.453194 
Q 139.931803 60.666713 140.439543 61.111545 
L 140.439543 69.171895 
L 137.524005 69.171895 
L 137.524005 76.351479 
L 144.961603 76.351479 
L 144.961603 56.387432 
z
" clip-path="url(#p99779bcb88)" style="fill: #ffa600"/>
   </g>
   <g id="patch_47">
    <path d="M 163.592654 35.801984 
Q 162.112122 32.386085 160.511185 30.658276 
Q 158.910247 28.910607 157.166608 28.910607 
Q 151.966906 28.910607 148.930031 41.859247 
Q 145.893155 54.807888 145.893155 76.951652 
Q 145.893155 99.174856 148.930031 112.103637 
Q 151.966906 125.052278 157.166608 125.052278 
Q 158.910247 125.052278 160.511185 123.304609 
Q 162.112122 121.576799 163.592654 118.1609 
L 163.592654 98.996117 
Q 162.098744 103.52417 160.649427 105.629317 
Q 159.200111 107.734464 157.599173 107.734464 
Q 154.727297 107.734464 153.081765 99.532334 
Q 151.440693 91.350064 151.440693 76.951652 
Q 151.440693 62.61282 153.081765 54.41069 
Q 154.727297 46.22842 157.599173 46.22842 
Q 159.200111 46.22842 160.649427 48.333568 
Q 162.098744 50.458575 163.592654 54.986627 
L 163.592654 35.801984 
z
" clip-path="url(#p99779bcb88)" style="fill: #0000ff"/>
   </g>
   <g id="patch_48">
    <path d="M 176.784666 29.232849 
L 169.977723 29.232849 
L 168.902942 28.910607 
L 164.524207 28.910607 
L 170.777475 30.679531 
L 175.970438 30.679531 
L 182.223706 28.910607 
L 177.84859 28.910607 
L 176.784666 29.232849 
z
M 171.06336 29.561158 
L 175.688172 29.561158 
L 173.379385 30.264785 
L 171.06336 29.561158 
z
" clip-path="url(#p99779bcb88)" style="fill: #008000"/>
   </g>
   <g id="patch_49">
    <path d="M 182.223706 31.52967 
Q 180.743174 31.108275 179.142236 30.895128 
Q 177.541299 30.679531 175.79766 30.679531 
Q 170.597958 30.679531 167.561083 32.276911 
Q 164.524207 33.874291 164.524207 36.606007 
Q 164.524207 39.347523 167.561083 40.942453 
Q 170.597958 42.539833 175.79766 42.539833 
Q 177.541299 42.539833 179.142236 42.324236 
Q 180.743174 42.111088 182.223706 41.689694 
L 182.223706 39.325473 
Q 180.729795 39.884066 179.280479 40.143763 
Q 177.831162 40.40346 176.230225 40.40346 
Q 173.358349 40.40346 171.712817 39.391622 
Q 170.071745 38.382235 170.071745 36.606007 
Q 170.071745 34.837129 171.712817 33.825291 
Q 173.358349 32.815904 176.230225 32.815904 
Q 177.831162 32.815904 179.280479 33.075601 
Q 180.729795 33.337747 182.223706 33.896341 
L 182.223706 31.52967 
z
" clip-path="url(#p99779bcb88)" style="fill: #0000ff"/>
   </g>
   <g id="patch_50">
    <path d="M 200.854758 47.074518 
Q 199.374225 44.80031 197.773288 43.649983 
Q 196.172351 42.486435 194.428711 42.486435 
Q 189.22901 42.486435 186.192134 51.107272 
Q 183.155259 59.72811 183.155259 74.4708 
Q 183.155259 89.266379 186.192134 97.873994 
Q 189.22901 106.494832 194.428711 106.494832 
Q 196.172351 106.494832 197.773288 105.331283 
Q 199.374225 104.180957 200.854758 101.906748 
L 200.854758 89.147379 
Q 199.360847 92.162028 197.911531 93.563575 
Q 196.462214 94.965123 194.861277 94.965123 
Q 191.9894 94.965123 190.343869 89.504377 
Q 188.702796 84.056854 188.702796 74.4708 
Q 188.702796 64.924412 190.343869 59.463667 
Q 191.9894 54.016144 194.861277 54.016144 
Q 196.462214 54.016144 197.911531 55.417691 
Q 199.360847 56.83246 200.854758 59.847109 
L 200.854758 47.074518 
z
" clip-path="url(#p99779bcb88)" style="fill: #0000ff"/>
   </g>
   <g id="patch_51">
    <path d="M 200.854758 30.513392 
Q 199.069734 29.917867 197.149843 29.618744 
Q 195.229951 29.322342 193.183124 29.322342 
Q 188.55793 29.322342 185.856594 31.09532 
Q 183.155259 32.868298 183.155259 35.900309 
Q 183.155259 38.967671 185.904195 40.727053 
Q 188.657098 42.486435 193.444927 42.486435 
Q 195.289451 42.486435 196.979274 42.247137 
Q 198.673063 42.010558 200.172482 41.54284 
L 200.172482 38.918723 
Q 198.625462 39.519687 197.094309 39.81609 
Q 195.563155 40.115212 194.024068 40.115212 
Q 191.175964 40.115212 189.632911 39.022056 
Q 188.089857 37.93162 188.089857 35.900309 
Q 188.089857 33.888033 189.577376 32.789439 
Q 191.064896 31.693564 193.801932 31.693564 
Q 194.547675 31.693564 195.186317 31.756108 
Q 195.824959 31.821371 196.332699 31.957336 
L 196.332699 34.421014 
L 193.41716 34.421014 
L 193.41716 36.615483 
L 200.854758 36.615483 
L 200.854758 30.513392 
z
" clip-path="url(#p99779bcb88)" style="fill: #ffa600"/>
   </g>
   <g id="patch_52">
    <path d="M 183.155259 29.322342 
L 200.854758 29.322342 
L 200.854758 29.242042 
L 194.487054 29.242042 
L 194.487054 28.910607 
L 189.535311 28.910607 
L 189.535311 29.242042 
L 183.155259 29.242042 
L 183.155259 29.322342 
z
" clip-path="url(#p99779bcb88)" style="fill: #ff0000"/>
   </g>
   <g id="patch_53">
    <path d="M 219.48581 48.068678 
Q 218.005277 45.779501 216.40434 44.621604 
Q 214.803402 43.450397 213.059763 43.450397 
Q 207.860062 43.450397 204.823186 52.127975 
Q 201.786311 60.805553 201.786311 75.645276 
Q 201.786311 90.538236 204.823186 99.202505 
Q 207.860062 107.880083 213.059763 107.880083 
Q 214.803402 107.880083 216.40434 106.708876 
Q 218.005277 105.550979 219.48581 103.261802 
L 219.48581 90.418454 
Q 217.991899 93.452944 216.542582 94.863716 
Q 215.093266 96.274488 213.492328 96.274488 
Q 210.620452 96.274488 208.97492 90.777801 
Q 207.333848 85.294424 207.333848 75.645276 
Q 207.333848 66.036056 208.97492 60.53937 
Q 210.620452 55.055992 213.492328 55.055992 
Q 215.093266 55.055992 216.542582 56.466764 
Q 217.991899 57.890845 219.48581 60.925336 
L 219.48581 48.068678 
z
" clip-path="url(#p99779bcb88)" style="fill: #0000ff"/>
   </g>
   <g id="patch_54">
    <path d="M 219.48581 30.226126 
Q 217.700786 29.568366 215.780894 29.237985 
Q 213.861002 28.910607 211.814176 28.910607 
Q 207.188981 28.910607 204.487646 30.868868 
Q 201.786311 32.827129 201.786311 36.175996 
Q 201.786311 39.563909 204.535247 41.507153 
Q 207.288149 43.450397 212.075979 43.450397 
Q 213.920503 43.450397 215.610325 43.186092 
Q 217.304114 42.92479 218.803534 42.408193 
L 218.803534 39.509846 
Q 217.256514 40.173613 215.72536 40.500991 
Q 214.194207 40.831372 212.65512 40.831372 
Q 209.807016 40.831372 208.263962 39.623978 
Q 206.720909 38.419587 206.720909 36.175996 
Q 206.720909 33.95343 208.208428 32.740029 
Q 209.695948 31.529631 212.432984 31.529631 
Q 213.178727 31.529631 213.817369 31.598711 
Q 214.45601 31.670794 214.96375 31.820967 
L 214.96375 34.54211 
L 212.048212 34.54211 
L 212.048212 36.965909 
L 219.48581 36.965909 
L 219.48581 30.226126 
z
" clip-path="url(#p99779bcb88)" style="fill: #ffa600"/>
   </g>
   <g id="patch_55">
    <path d="M 232.677821 29.099377 
L 225.870878 29.099377 
L 224.796097 28.910607 
L 220.417362 28.910607 
L 226.67063 29.946845 
L 231.863593 29.946845 
L 238.116861 28.910607 
L 233.741745 28.910607 
L 232.677821 29.099377 
z
M 226.956515 29.291701 
L 231.581328 29.291701 
L 229.27254 29.703887 
L 226.956515 29.291701 
z
" clip-path="url(#p99779bcb88)" style="fill: #008000"/>
   </g>
   <g id="patch_56">
    <path d="M 238.116861 53.380571 
Q 236.636329 51.839151 235.035392 51.059479 
Q 233.434454 50.270845 231.690815 50.270845 
Q 226.491113 50.270845 223.454238 56.113904 
Q 220.417362 61.956962 220.417362 71.94931 
Q 220.417362 81.977504 223.454238 87.811601 
Q 226.491113 93.65466 231.690815 93.65466 
Q 233.434454 93.65466 235.035392 92.866026 
Q 236.636329 92.086354 238.116861 90.544934 
L 238.116861 81.896848 
Q 236.622951 83.940127 235.173634 84.890072 
Q 233.724318 85.840017 232.12338 85.840017 
Q 229.251504 85.840017 227.605972 82.138816 
Q 225.9649 78.446576 225.9649 71.94931 
Q 225.9649 65.478929 227.605972 61.777728 
Q 229.251504 58.085488 232.12338 58.085488 
Q 233.724318 58.085488 235.173634 59.035433 
Q 236.622951 59.99434 238.116861 62.037618 
L 238.116861 53.380571 
z
" clip-path="url(#p99779bcb88)" style="fill: #0000ff"/>
   </g>
   <g id="patch_57">
    <path d="M 238.116861 31.785703 
Q 236.331838 30.866274 234.411946 30.404461 
Q 232.492054 29.946845 230.445227 29.946845 
Q 225.820033 29.946845 223.118698 32.684141 
Q 220.417362 35.421436 220.417362 40.102548 
Q 220.417362 44.838237 223.166298 47.554541 
Q 225.919201 50.270845 230.707031 50.270845 
Q 232.551555 50.270845 234.241377 49.901394 
Q 235.935166 49.536141 237.434586 48.814033 
L 237.434586 44.762667 
Q 235.887565 45.690493 234.356412 46.148108 
Q 232.825259 46.609922 231.286172 46.609922 
Q 228.438068 46.609922 226.895014 44.922203 
Q 225.35196 43.238682 225.35196 40.102548 
Q 225.35196 36.995801 226.83948 35.299685 
Q 228.327 33.607768 231.064035 33.607768 
Q 231.809779 33.607768 232.44842 33.704329 
Q 233.087062 33.805088 233.594802 34.015004 
L 233.594802 37.818669 
L 230.679264 37.818669 
L 230.679264 41.206702 
L 238.116861 41.206702 
L 238.116861 31.785703 
z
" clip-path="url(#p99779bcb88)" style="fill: #ffa600"/>
   </g>
   <g id="patch_58">
    <path d="M 256.747913 37.784547 
Q 255.267381 34.197402 253.666443 32.382975 
Q 252.065506 30.547691 250.321867 30.547691 
Q 245.122165 30.547691 242.08529 44.145473 
Q 239.048414 57.743254 239.048414 80.997129 
Q 239.048414 104.334426 242.08529 117.911352 
Q 245.122165 131.509134 250.321867 131.509134 
Q 252.065506 131.509134 253.666443 129.67385 
Q 255.267381 127.859422 256.747913 124.272277 
L 256.747913 104.146727 
Q 255.254002 108.901779 253.804686 111.112461 
Q 252.355369 113.323144 250.754432 113.323144 
Q 247.882556 113.323144 246.237024 104.709825 
Q 244.595952 96.117362 244.595952 80.997129 
Q 244.595952 65.939463 246.237024 57.326144 
Q 247.882556 48.733681 250.754432 48.733681 
Q 252.355369 48.733681 253.804686 50.944363 
Q 255.254002 53.175901 256.747913 57.930954 
L 256.747913 37.784547 
z
" clip-path="url(#p99779bcb88)" style="fill: #0000ff"/>
   </g>
   <g id="patch_59">
    <path d="M 256.747913 29.058725 
Q 254.96289 28.984666 253.042998 28.947467 
Q 251.123106 28.910607 249.076279 28.910607 
Q 244.451085 28.910607 241.74975 29.131094 
Q 239.048414 29.351581 239.048414 29.728642 
Q 239.048414 30.110098 241.79735 30.328895 
Q 244.550253 30.547691 249.338083 30.547691 
Q 251.182607 30.547691 252.872429 30.517932 
Q 254.566218 30.488511 256.065638 30.430346 
L 256.065638 30.104011 
Q 254.518617 30.178747 252.987464 30.215607 
Q 251.45631 30.252806 249.917223 30.252806 
Q 247.069119 30.252806 245.526066 30.116862 
Q 243.983012 29.981255 243.983012 29.728642 
Q 243.983012 29.478395 245.470532 29.341774 
Q 246.958051 29.205491 249.695087 29.205491 
Q 250.44083 29.205491 251.079472 29.213269 
Q 251.718114 29.221385 252.225854 29.238294 
L 252.225854 29.544677 
L 249.310315 29.544677 
L 249.310315 29.81758 
L 256.747913 29.81758 
L 256.747913 29.058725 
z
" clip-path="url(#p99779bcb88)" style="fill: #ffa600"/>
   </g>
   <g id="patch_60">
    <path d="M 269.939924 31.258319 
L 263.132981 31.258319 
L 262.058201 29.49443 
L 257.679466 29.49443 
L 263.932734 39.177141 
L 269.125697 39.177141 
L 275.378965 29.49443 
L 271.003849 29.49443 
L 269.939924 31.258319 
z
M 264.218618 33.05541 
L 268.843431 33.05541 
L 266.534644 36.906912 
L 264.218618 33.05541 
z
" clip-path="url(#p99779bcb88)" style="fill: #008000"/>
   </g>
   <g id="patch_61">
    <path d="M 275.378965 42.368356 
Q 273.898432 40.786543 272.297495 39.98644 
Q 270.696558 39.177141 268.952919 39.177141 
Q 263.753217 39.177141 260.716341 45.173315 
Q 257.679466 51.16949 257.679466 61.423683 
Q 257.679466 71.714664 260.716341 77.701641 
Q 263.753217 83.697816 268.952919 83.697816 
Q 270.696558 83.697816 272.297495 82.888516 
Q 273.898432 82.088413 275.378965 80.5066 
L 275.378965 71.631894 
Q 273.885054 73.728716 272.435738 74.703554 
Q 270.986421 75.678392 269.385484 75.678392 
Q 266.513607 75.678392 264.868076 71.880202 
Q 263.227003 68.091209 263.227003 61.423683 
Q 263.227003 54.783748 264.868076 50.985558 
Q 266.513607 47.196564 269.385484 47.196564 
Q 270.986421 47.196564 272.435738 48.171402 
Q 273.885054 49.155437 275.378965 51.252259 
L 275.378965 42.368356 
z
" clip-path="url(#p99779bcb88)" style="fill: #0000ff"/>
   </g>
   <g id="patch_62">
    <path d="M 257.679466 29.49443 
L 275.378965 29.49443 
L 275.378965 29.380568 
L 269.011261 29.380568 
L 269.011261 28.910607 
L 264.059518 28.910607 
L 264.059518 29.380568 
L 257.679466 29.380568 
L 257.679466 29.49443 
z
" clip-path="url(#p99779bcb88)" style="fill: #ff0000"/>
   </g>
   <g id="patch_63">
    <path d="M 288.570976 29.496494 
L 281.764033 29.496494 
L 280.689253 28.910607 
L 276.310518 28.910607 
L 282.563786 32.126785 
L 287.756749 32.126785 
L 294.010017 28.910607 
L 289.6349 28.910607 
L 288.570976 29.496494 
z
M 282.84967 30.09341 
L 287.474483 30.09341 
L 285.165695 31.372713 
L 282.84967 30.09341 
z
" clip-path="url(#p99779bcb88)" style="fill: #008000"/>
   </g>
   <g id="patch_64">
    <path d="M 294.010017 39.503063 
Q 292.529484 37.758311 290.928547 36.875792 
Q 289.32761 35.983128 287.58397 35.983128 
Q 282.384269 35.983128 279.347393 42.596954 
Q 276.310518 49.210781 276.310518 60.521236 
Q 276.310518 71.872267 279.347393 78.47595 
Q 282.384269 85.089777 287.58397 85.089777 
Q 289.32761 85.089777 290.928547 84.197113 
Q 292.529484 83.314593 294.010017 81.569841 
L 294.010017 71.780972 
Q 292.516106 74.093783 291.066789 75.169037 
Q 289.617473 76.244291 288.016535 76.244291 
Q 285.144659 76.244291 283.499127 72.054857 
Q 281.858055 67.875568 281.858055 60.521236 
Q 281.858055 53.197336 283.499127 49.007903 
Q 285.144659 44.828614 288.016535 44.828614 
Q 289.617473 44.828614 291.066789 45.903868 
Q 292.516106 46.989266 294.010017 49.302076 
L 294.010017 39.503063 
z
" clip-path="url(#p99779bcb88)" style="fill: #0000ff"/>
   </g>
   <g id="patch_65">
    <path d="M 276.310518 35.983128 
L 294.010017 35.983128 
L 294.010017 35.231034 
L 287.642313 35.231034 
L 287.642313 32.126785 
L 282.69057 32.126785 
L 282.69057 35.231034 
L 276.310518 35.231034 
L 276.310518 35.983128 
z
" clip-path="url(#p99779bcb88)" style="fill: #ff0000"/>
   </g>
   <g id="patch_66">
    <path d="M 307.202028 33.611474 
L 300.395085 33.611474 
L 299.320305 31.644402 
L 294.941569 31.644402 
L 301.194837 42.44247 
L 306.3878 42.44247 
L 312.641068 31.644402 
L 308.265952 31.644402 
L 307.202028 33.611474 
z
M 301.480722 35.615573 
L 306.105535 35.615573 
L 303.796747 39.910733 
L 301.480722 35.615573 
z
" clip-path="url(#p99779bcb88)" style="fill: #008000"/>
   </g>
   <g id="patch_67">
    <path d="M 312.641068 62.154615 
Q 311.160536 61.444528 309.559599 61.085356 
Q 307.958661 60.722055 306.215022 60.722055 
Q 301.01532 60.722055 297.978445 63.413781 
Q 294.941569 66.105506 294.941569 70.708687 
Q 294.941569 75.328381 297.978445 78.015979 
Q 301.01532 80.707704 306.215022 80.707704 
Q 307.958661 80.707704 309.559599 80.344404 
Q 311.160536 79.985232 312.641068 79.275145 
L 312.641068 75.291226 
Q 311.147158 76.232504 309.697841 76.670116 
Q 308.248525 77.107728 306.647587 77.107728 
Q 303.775711 77.107728 302.130179 75.402693 
Q 300.489107 73.701787 300.489107 70.708687 
Q 300.489107 67.727973 302.130179 66.022938 
Q 303.775711 64.322032 306.647587 64.322032 
Q 308.248525 64.322032 309.697841 64.759643 
Q 311.147158 65.201384 312.641068 66.142662 
L 312.641068 62.154615 
z
" clip-path="url(#p99779bcb88)" style="fill: #0000ff"/>
   </g>
   <g id="patch_68">
    <path d="M 312.641068 44.096355 
Q 310.856045 43.269413 308.936153 42.854054 
Q 307.016261 42.44247 304.969434 42.44247 
Q 300.34424 42.44247 297.642905 44.904418 
Q 294.941569 47.366366 294.941569 51.576599 
Q 294.941569 55.83592 297.690505 58.278987 
Q 300.443408 60.722055 305.231238 60.722055 
Q 307.075762 60.722055 308.765584 60.389768 
Q 310.459373 60.061256 311.958793 59.411786 
L 311.958793 55.767952 
Q 310.411772 56.602446 308.880619 57.01403 
Q 307.349466 57.429389 305.810379 57.429389 
Q 302.962275 57.429389 301.419221 55.911439 
Q 299.876167 54.397266 299.876167 51.576599 
Q 299.876167 48.782364 301.363687 47.256862 
Q 302.851207 45.735137 305.588242 45.735137 
Q 306.333986 45.735137 306.972627 45.821985 
Q 307.611269 45.912608 308.119009 46.101408 
L 308.119009 49.522458 
L 305.203471 49.522458 
L 305.203471 52.569685 
L 312.641068 52.569685 
L 312.641068 44.096355 
z
" clip-path="url(#p99779bcb88)" style="fill: #ffa600"/>
   </g>
   <g id="patch_69">
    <path d="M 294.941569 31.644402 
L 312.641068 31.644402 
L 312.641068 31.111236 
L 306.273365 31.111236 
L 306.273365 28.910607 
L 301.321621 28.910607 
L 301.321621 31.111236 
L 294.941569 31.111236 
L 294.941569 31.644402 
z
" clip-path="url(#p99779bcb88)" style="fill: #ff0000"/>
   </g>
   <g id="patch_70">
    <path d="M 331.27212 37.527823 
Q 329.791588 34.106453 328.19065 32.375877 
Q 326.589713 30.625408 324.846074 30.625408 
Q 319.646372 30.625408 316.609497 43.594786 
Q 313.572621 56.564164 313.572621 78.743391 
Q 313.572621 101.002184 316.609497 113.95167 
Q 319.646372 126.921048 324.846074 126.921048 
Q 326.589713 126.921048 328.19065 125.17058 
Q 329.791588 123.440003 331.27212 120.018634 
L 331.27212 100.823159 
Q 329.778209 105.358463 328.328893 107.466981 
Q 326.879576 109.5755 325.278639 109.5755 
Q 322.406763 109.5755 320.761231 101.360235 
Q 319.120159 93.164861 319.120159 78.743391 
Q 319.120159 64.381595 320.761231 56.16633 
Q 322.406763 47.970956 325.278639 47.970956 
Q 326.879576 47.970956 328.328893 50.079475 
Q 329.778209 52.207885 331.27212 56.743189 
L 331.27212 37.527823 
z
" clip-path="url(#p99779bcb88)" style="fill: #0000ff"/>
   </g>
   <g id="patch_71">
    <path d="M 313.572621 30.625408 
L 331.27212 30.625408 
L 331.27212 30.290974 
L 324.904417 30.290974 
L 324.904417 28.910607 
L 319.952673 28.910607 
L 319.952673 30.290974 
L 313.572621 30.290974 
L 313.572621 30.625408 
z
" clip-path="url(#p99779bcb88)" style="fill: #ff0000"/>
   </g>
   <g id="patch_72">
    <path d="M 344.464131 29.724327 
L 337.657188 29.724327 
L 336.582408 28.910607 
L 332.203673 28.910607 
L 338.456941 33.377453 
L 343.649904 33.377453 
L 349.903172 28.910607 
L 345.528056 28.910607 
L 344.464131 29.724327 
z
M 338.742825 30.553364 
L 343.367638 30.553364 
L 341.058851 32.330147 
L 338.742825 30.553364 
z
" clip-path="url(#p99779bcb88)" style="fill: #008000"/>
   </g>
   <g id="patch_73">
    <path d="M 349.903172 55.653778 
Q 348.422639 54.602624 346.821702 54.070936 
Q 345.220765 53.533136 343.477126 53.533136 
Q 338.277424 53.533136 335.240548 57.517742 
Q 332.203673 61.502348 332.203673 68.316513 
Q 332.203673 75.155124 335.240548 79.133619 
Q 338.277424 83.118225 343.477126 83.118225 
Q 345.220765 83.118225 346.821702 82.580425 
Q 348.422639 82.048737 349.903172 80.997583 
L 349.903172 75.100122 
Q 348.409261 76.493512 346.959945 77.141316 
Q 345.510628 77.78912 343.909691 77.78912 
Q 341.037814 77.78912 339.392283 75.265128 
Q 337.75121 72.747249 337.75121 68.316513 
Q 337.75121 63.904112 339.392283 61.380121 
Q 341.037814 58.862241 343.909691 58.862241 
Q 345.510628 58.862241 346.959945 59.510045 
Q 348.409261 60.163961 349.903172 61.557351 
L 349.903172 55.653778 
z
" clip-path="url(#p99779bcb88)" style="fill: #0000ff"/>
   </g>
   <g id="patch_74">
    <path d="M 349.903172 40.091514 
Q 348.118149 39.422944 346.198257 39.087132 
Q 344.278365 38.754373 342.231538 38.754373 
Q 337.606344 38.754373 334.905008 40.74482 
Q 332.203673 42.735267 332.203673 46.139176 
Q 332.203673 49.582771 334.952609 51.557954 
Q 337.705512 53.533136 342.493341 53.533136 
Q 344.337866 53.533136 346.027688 53.264487 
Q 347.721477 52.998891 349.220896 52.473803 
L 349.220896 49.52782 
Q 347.673876 50.202496 346.142723 50.535255 
Q 344.611569 50.871066 343.072482 50.871066 
Q 340.224378 50.871066 338.681325 49.643827 
Q 337.138271 48.419642 337.138271 46.139176 
Q 337.138271 43.880079 338.62579 42.646735 
Q 340.11331 41.416443 342.850346 41.416443 
Q 343.596089 41.416443 344.234731 41.486659 
Q 344.873373 41.559927 345.381113 41.712568 
L 345.381113 44.478435 
L 342.465574 44.478435 
L 342.465574 46.942071 
L 349.903172 46.942071 
L 349.903172 40.091514 
z
" clip-path="url(#p99779bcb88)" style="fill: #ffa600"/>
   </g>
   <g id="patch_75">
    <path d="M 332.203673 38.754373 
L 349.903172 38.754373 
L 349.903172 37.705724 
L 343.535468 37.705724 
L 343.535468 33.377453 
L 338.583725 33.377453 
L 338.583725 37.705724 
L 332.203673 37.705724 
L 332.203673 38.754373 
z
" clip-path="url(#p99779bcb88)" style="fill: #ff0000"/>
   </g>
   <g id="patch_76">
    <path d="M 363.095183 28.927049 
L 356.28824 28.927049 
L 355.21346 28.910607 
L 350.834725 28.910607 
L 357.087993 29.000867 
L 362.280956 29.000867 
L 368.534224 28.910607 
L 364.159107 28.910607 
L 363.095183 28.927049 
z
M 357.373877 28.943801 
L 361.99869 28.943801 
L 359.689902 28.979704 
L 357.373877 28.943801 
z
" clip-path="url(#p99779bcb88)" style="fill: #008000"/>
   </g>
   <g id="patch_77">
    <path d="M 368.534224 29.025938 
Q 367.053691 29.013511 365.452754 29.007225 
Q 363.851817 29.000867 362.108177 29.000867 
Q 356.908476 29.000867 353.8716 29.047975 
Q 350.834725 29.095084 350.834725 29.175646 
Q 350.834725 29.256496 353.8716 29.303533 
Q 356.908476 29.350641 362.108177 29.350641 
Q 363.851817 29.350641 365.452754 29.344283 
Q 367.053691 29.337997 368.534224 29.32557 
L 368.534224 29.255846 
Q 367.040313 29.27232 365.590996 29.279978 
Q 364.14168 29.287637 362.540743 29.287637 
Q 359.668866 29.287637 358.023334 29.257797 
Q 356.382262 29.228029 356.382262 29.175646 
Q 356.382262 29.123479 358.023334 29.093639 
Q 359.668866 29.063871 362.540743 29.063871 
Q 364.14168 29.063871 365.590996 29.07153 
Q 367.040313 29.079261 368.534224 29.095734 
L 368.534224 29.025938 
z
" clip-path="url(#p99779bcb88)" style="fill: #0000ff"/>
   </g>
   <g id="patch_78">
    <path d="M 368.534224 40.737836 
Q 366.7492 35.853425 364.829308 33.400067 
Q 362.909416 30.969013 360.86259 30.969013 
Q 356.237396 30.969013 353.53606 45.51073 
Q 350.834725 60.052448 350.834725 84.920568 
Q 350.834725 110.078631 353.583661 124.508832 
Q 356.336563 138.939032 361.124393 138.939032 
Q 362.968917 138.939032 364.658739 136.976347 
Q 366.352528 135.035964 367.851948 131.199806 
L 367.851948 109.677172 
Q 366.304928 114.60619 364.773774 117.037244 
Q 363.242621 119.490601 361.703534 119.490601 
Q 358.85543 119.490601 357.312376 110.524696 
Q 355.769323 101.581094 355.769323 84.920568 
Q 355.769323 68.416165 357.256842 59.405653 
Q 358.744362 50.417445 361.481398 50.417445 
Q 362.227141 50.417445 362.865783 50.93042 
Q 363.504424 51.465697 364.012164 52.58086 
L 364.012164 72.787602 
L 361.096626 72.787602 
L 361.096626 90.786322 
L 368.534224 90.786322 
L 368.534224 40.737836 
z
" clip-path="url(#p99779bcb88)" style="fill: #ffa600"/>
   </g>
   <g id="patch_79">
    <path d="M 350.834725 30.969013 
L 368.534224 30.969013 
L 368.534224 30.653386 
L 362.16652 30.653386 
L 362.16652 29.350641 
L 357.214777 29.350641 
L 357.214777 30.653386 
L 350.834725 30.653386 
L 350.834725 30.969013 
z
" clip-path="url(#p99779bcb88)" style="fill: #ff0000"/>
   </g>
   <g id="patch_80">
    <path d="M 381.726235 28.974319 
L 374.919292 28.974319 
L 373.844512 28.910607 
L 369.465776 28.910607 
L 375.719044 29.260351 
L 380.912007 29.260351 
L 387.165275 28.910607 
L 382.790159 28.910607 
L 381.726235 28.974319 
z
M 376.004929 29.039231 
L 380.629742 29.039231 
L 378.320954 29.178349 
L 376.004929 29.039231 
z
" clip-path="url(#p99779bcb88)" style="fill: #008000"/>
   </g>
   <g id="patch_81">
    <path d="M 387.165275 40.951 
Q 385.684743 35.376528 384.083806 32.556883 
Q 382.482868 29.704828 380.739229 29.704828 
Q 375.539527 29.704828 372.502652 50.835963 
Q 369.465776 71.967098 369.465776 108.103932 
Q 369.465776 144.370404 372.502652 165.46913 
Q 375.539527 186.600265 380.739229 186.600265 
Q 382.482868 186.600265 384.083806 183.74821 
Q 385.684743 180.928564 387.165275 175.354093 
L 387.165275 144.078717 
Q 385.671365 151.468132 384.222048 154.903562 
Q 382.772732 158.338992 381.171794 158.338992 
Q 378.299918 158.338992 376.654386 144.953779 
Q 375.013314 131.600976 375.013314 108.103932 
Q 375.013314 84.704117 376.654386 71.318904 
Q 378.299918 57.966101 381.171794 57.966101 
Q 382.772732 57.966101 384.222048 61.401531 
Q 385.671365 64.86937 387.165275 72.258786 
L 387.165275 40.951 
z
" clip-path="url(#p99779bcb88)" style="fill: #0000ff"/>
   </g>
   <g id="patch_82">
    <path d="M 369.465776 29.704828 
L 387.165275 29.704828 
L 387.165275 29.618143 
L 380.797572 29.618143 
L 380.797572 29.260351 
L 375.845828 29.260351 
L 375.845828 29.618143 
L 369.465776 29.618143 
L 369.465776 29.704828 
z
" clip-path="url(#p99779bcb88)" style="fill: #ff0000"/>
   </g>
   <g id="patch_83">
    <path d="M 400.357287 39.84614 
L 393.550344 39.84614 
L 392.475563 38.108199 
L 388.096828 38.108199 
L 394.350096 47.648473 
L 399.543059 47.648473 
L 405.796327 38.108199 
L 401.421211 38.108199 
L 400.357287 39.84614 
z
M 394.635981 41.616795 
L 399.260793 41.616795 
L 396.952006 45.41164 
L 394.635981 41.616795 
z
" clip-path="url(#p99779bcb88)" style="fill: #008000"/>
   </g>
   <g id="patch_84">
    <path d="M 405.796327 48.683982 
Q 404.315795 48.170704 402.714857 47.91108 
Q 401.11392 47.648473 399.370281 47.648473 
Q 394.170579 47.648473 391.133704 49.594156 
Q 388.096828 51.539839 388.096828 54.867197 
Q 388.096828 58.206491 391.133704 60.14919 
Q 394.170579 62.094874 399.370281 62.094874 
Q 401.11392 62.094874 402.714857 61.832266 
Q 404.315795 61.572643 405.796327 61.059364 
L 405.796327 58.179633 
Q 404.302416 58.860026 402.8531 59.176348 
Q 401.403783 59.492671 399.802846 59.492671 
Q 396.93097 59.492671 395.285438 58.260206 
Q 393.644366 57.030725 393.644366 54.867197 
Q 393.644366 52.712621 395.285438 51.480156 
Q 396.93097 50.250675 399.802846 50.250675 
Q 401.403783 50.250675 402.8531 50.566998 
Q 404.302416 50.886305 405.796327 51.566697 
L 405.796327 48.683982 
z
" clip-path="url(#p99779bcb88)" style="fill: #0000ff"/>
   </g>
   <g id="patch_85">
    <path d="M 405.796327 63.462415 
Q 404.011304 62.778644 402.091412 62.435198 
Q 400.17152 62.094874 398.124693 62.094874 
Q 393.499499 62.094874 390.798164 64.130574 
Q 388.096828 66.166275 388.096828 69.647573 
Q 388.096828 73.16946 390.845764 75.18955 
Q 393.598667 77.20964 398.386497 77.20964 
Q 400.231021 77.20964 401.920843 76.934882 
Q 403.614632 76.663248 405.114052 76.126222 
L 405.114052 73.11326 
Q 403.567031 73.803275 402.035878 74.1436 
Q 400.504724 74.487046 398.965637 74.487046 
Q 396.117533 74.487046 394.57448 73.231905 
Q 393.031426 71.979887 393.031426 69.647573 
Q 393.031426 67.337115 394.518946 66.07573 
Q 396.006465 64.817467 398.743501 64.817467 
Q 399.489244 64.817467 400.127886 64.889279 
Q 400.766528 64.964213 401.274268 65.120325 
L 401.274268 67.949074 
L 398.35873 67.949074 
L 398.35873 70.468722 
L 405.796327 70.468722 
L 405.796327 63.462415 
z
" clip-path="url(#p99779bcb88)" style="fill: #ffa600"/>
   </g>
   <g id="patch_86">
    <path d="M 388.096828 38.108199 
L 405.796327 38.108199 
L 405.796327 36.314412 
L 399.428624 36.314412 
L 399.428624 28.910607 
L 394.47688 28.910607 
L 394.47688 36.314412 
L 388.096828 36.314412 
L 388.096828 38.108199 
z
" clip-path="url(#p99779bcb88)" style="fill: #ff0000"/>
   </g>
   <g id="patch_87">
    <path d="M 424.427379 30.664812 
Q 422.946846 30.541393 421.345909 30.478966 
Q 419.744972 30.415822 418.001333 30.415822 
Q 412.801631 30.415822 409.764755 30.883665 
Q 406.72788 31.351508 406.72788 32.151578 
Q 406.72788 32.954517 409.764755 33.421643 
Q 412.801631 33.889486 418.001333 33.889486 
Q 419.744972 33.889486 421.345909 33.826341 
Q 422.946846 33.763914 424.427379 33.640496 
L 424.427379 32.948059 
Q 422.933468 33.111661 421.484152 33.187721 
Q 420.034835 33.263781 418.433898 33.263781 
Q 415.562021 33.263781 413.91649 32.967433 
Q 412.275417 32.671802 412.275417 32.151578 
Q 412.275417 31.633506 413.91649 31.337157 
Q 415.562021 31.041526 418.433898 31.041526 
Q 420.034835 31.041526 421.484152 31.117587 
Q 422.933468 31.194365 424.427379 31.357966 
L 424.427379 30.664812 
z
" clip-path="url(#p99779bcb88)" style="fill: #0000ff"/>
   </g>
   <g id="patch_88">
    <path d="M 424.427379 44.262596 
Q 422.642356 39.076041 420.722464 36.470922 
Q 418.802572 33.889486 416.755745 33.889486 
Q 412.130551 33.889486 409.429215 49.330737 
Q 406.72788 64.771989 406.72788 91.178423 
Q 406.72788 117.892736 409.476816 133.215573 
Q 412.229719 148.53841 417.017548 148.53841 
Q 418.862073 148.53841 420.551895 146.454314 
Q 422.245684 144.393902 423.745103 140.320443 
L 423.745103 117.466444 
Q 422.198083 122.700365 420.66693 125.281801 
Q 419.135776 127.88692 417.596689 127.88692 
Q 414.748585 127.88692 413.205532 118.366394 
Q 411.662478 108.86955 411.662478 91.178423 
Q 411.662478 73.653077 413.149997 64.085185 
Q 414.637517 54.540975 417.374553 54.540975 
Q 418.120296 54.540975 418.758938 55.085682 
Q 419.39758 55.654072 419.90532 56.838217 
L 419.90532 78.294925 
L 416.989781 78.294925 
L 416.989781 97.407026 
L 424.427379 97.407026 
L 424.427379 44.262596 
z
" clip-path="url(#p99779bcb88)" style="fill: #ffa600"/>
   </g>
   <g id="patch_89">
    <path d="M 406.72788 30.415822 
L 424.427379 30.415822 
L 424.427379 30.122263 
L 418.059675 30.122263 
L 418.059675 28.910607 
L 413.107932 28.910607 
L 413.107932 30.122263 
L 406.72788 30.122263 
L 406.72788 30.415822 
z
" clip-path="url(#p99779bcb88)" style="fill: #ff0000"/>
   </g>
   <g id="patch_90">
    <path d="M 437.61939 29.580626 
L 430.812447 29.580626 
L 429.737667 29.410395 
L 425.358932 29.410395 
L 431.6122 30.344864 
L 436.805163 30.344864 
L 443.058431 29.410395 
L 438.683314 29.410395 
L 437.61939 29.580626 
z
M 431.898084 29.754062 
L 436.522897 29.754062 
L 434.214109 30.125767 
L 431.898084 29.754062 
z
" clip-path="url(#p99779bcb88)" style="fill: #008000"/>
   </g>
   <g id="patch_91">
    <path d="M 443.058431 43.693728 
Q 441.577898 38.008379 439.976961 35.13265 
Q 438.376024 32.223867 436.632384 32.223867 
Q 431.432683 32.223867 428.395807 53.775307 
Q 425.358932 75.326746 425.358932 112.182352 
Q 425.358932 149.170175 428.395807 170.68856 
Q 431.432683 192.24 436.632384 192.24 
Q 438.376024 192.24 439.976961 189.331217 
Q 441.577898 186.455488 443.058431 180.770139 
L 443.058431 148.872686 
Q 441.56452 156.409079 440.115203 159.912841 
Q 438.665887 163.416602 437.06495 163.416602 
Q 434.193073 163.416602 432.547541 149.765154 
Q 430.906469 136.146759 430.906469 112.182352 
Q 430.906469 88.317108 432.547541 74.665659 
Q 434.193073 61.047265 437.06495 61.047265 
Q 438.665887 61.047265 440.115203 64.551026 
Q 441.56452 68.087842 443.058431 75.624235 
L 443.058431 43.693728 
z
" clip-path="url(#p99779bcb88)" style="fill: #0000ff"/>
   </g>
   <g id="patch_92">
    <path d="M 443.058431 28.955826 
Q 441.273407 28.933216 439.353515 28.92186 
Q 437.433623 28.910607 435.386797 28.910607 
Q 430.761603 28.910607 428.060267 28.977919 
Q 425.358932 29.045232 425.358932 29.160346 
Q 425.358932 29.276802 428.107868 29.343598 
Q 430.86077 29.410395 435.6486 29.410395 
Q 437.493124 29.410395 439.182946 29.40131 
Q 440.876735 29.392328 442.376155 29.374571 
L 442.376155 29.274943 
Q 440.829135 29.297759 439.297981 29.309013 
Q 437.766828 29.320369 436.227741 29.320369 
Q 433.379637 29.320369 431.836583 29.278866 
Q 430.29353 29.237467 430.29353 29.160346 
Q 430.29353 29.083948 431.781049 29.042238 
Q 433.268569 29.000632 436.005605 29.000632 
Q 436.751348 29.000632 437.38999 29.003007 
Q 438.028631 29.005485 438.536371 29.010647 
L 438.536371 29.104183 
L 435.620833 29.104183 
L 435.620833 29.187498 
L 443.058431 29.187498 
L 443.058431 28.955826 
z
" clip-path="url(#p99779bcb88)" style="fill: #ffa600"/>
   </g>
   <g id="patch_93">
    <path d="M 425.358932 32.223867 
L 443.058431 32.223867 
L 443.058431 31.857409 
L 436.690727 31.857409 
L 436.690727 30.344864 
L 431.738984 30.344864 
L 431.738984 31.857409 
L 425.358932 31.857409 
L 425.358932 32.223867 
z
" clip-path="url(#p99779bcb88)" style="fill: #ff0000"/>
   </g>
   <g id="patch_94">
    <path d="M 456.250442 39.546961 
L 449.443499 39.546961 
L 448.368719 37.556224 
L 443.989983 37.556224 
L 450.243251 48.484201 
L 455.436214 48.484201 
L 461.689482 37.556224 
L 457.314366 37.556224 
L 456.250442 39.546961 
z
M 450.529136 41.575171 
L 455.153949 41.575171 
L 452.845161 45.922005 
L 450.529136 41.575171 
z
" clip-path="url(#p99779bcb88)" style="fill: #008000"/>
   </g>
   <g id="patch_95">
    <path d="M 461.689482 66.376105 
Q 460.20895 65.553616 458.608013 65.137589 
Q 457.007075 64.716781 455.263436 64.716781 
Q 450.063734 64.716781 447.026859 67.83459 
Q 443.989983 70.952399 443.989983 76.284235 
Q 443.989983 81.635199 447.026859 84.748227 
Q 450.063734 87.866036 455.263436 87.866036 
Q 457.007075 87.866036 458.608013 87.445227 
Q 460.20895 87.029201 461.689482 86.206711 
L 461.689482 81.592162 
Q 460.195572 82.682439 458.746255 83.189322 
Q 457.296939 83.696205 455.696001 83.696205 
Q 452.824125 83.696205 451.178593 81.721274 
Q 449.537521 79.751124 449.537521 76.284235 
Q 449.537521 72.831692 451.178593 70.856761 
Q 452.824125 68.886611 455.696001 68.886611 
Q 457.296939 68.886611 458.746255 69.393494 
Q 460.195572 69.905159 461.689482 70.995436 
L 461.689482 66.376105 
z
" clip-path="url(#p99779bcb88)" style="fill: #0000ff"/>
   </g>
   <g id="patch_96">
    <path d="M 461.689482 49.952879 
Q 459.904459 49.21854 457.984567 48.849694 
Q 456.064675 48.484201 454.017848 48.484201 
Q 449.392654 48.484201 446.691319 50.670452 
Q 443.989983 52.856703 443.989983 56.595461 
Q 443.989983 60.37781 446.738919 62.547295 
Q 449.491822 64.716781 454.279652 64.716781 
Q 456.124176 64.716781 457.813998 64.421704 
Q 459.507787 64.12998 461.007207 63.553239 
L 461.007207 60.317453 
Q 459.460187 61.058498 457.929033 61.423991 
Q 456.39788 61.792837 454.858793 61.792837 
Q 452.010689 61.792837 450.467635 60.444873 
Q 448.924581 59.100261 448.924581 56.595461 
Q 448.924581 54.114133 450.412101 52.759462 
Q 451.899621 51.408144 454.636656 51.408144 
Q 455.3824 51.408144 456.021041 51.485267 
Q 456.659683 51.565742 457.167423 51.733399 
L 457.167423 54.77135 
L 454.251885 54.77135 
L 454.251885 57.477338 
L 461.689482 57.477338 
L 461.689482 49.952879 
z
" clip-path="url(#p99779bcb88)" style="fill: #ffa600"/>
   </g>
   <g id="patch_97">
    <path d="M 443.989983 37.556224 
L 461.689482 37.556224 
L 461.689482 35.870088 
L 455.321779 35.870088 
L 455.321779 28.910607 
L 450.370035 28.910607 
L 450.370035 35.870088 
L 443.989983 35.870088 
L 443.989983 37.556224 
z
" clip-path="url(#p99779bcb88)" style="fill: #ff0000"/>
   </g>
   <g id="patch_98">
    <path d="M 480.320534 31.185005 
Q 478.840002 30.702851 477.239064 30.45897 
Q 475.638127 30.212286 473.894488 30.212286 
Q 468.694786 30.212286 465.657911 32.039989 
Q 462.621035 33.867692 462.621035 36.993289 
Q 462.621035 40.130098 465.657911 41.954998 
Q 468.694786 43.782701 473.894488 43.782701 
Q 475.638127 43.782701 477.239064 43.536017 
Q 478.840002 43.292136 480.320534 42.809982 
L 480.320534 40.104869 
Q 478.826623 40.744004 477.377307 41.041146 
Q 475.92799 41.338288 474.327053 41.338288 
Q 471.455177 41.338288 469.809645 40.180556 
Q 468.168573 39.025627 468.168573 36.993289 
Q 468.168573 34.96936 469.809645 33.811628 
Q 471.455177 32.656699 474.327053 32.656699 
Q 475.92799 32.656699 477.377307 32.953841 
Q 478.826623 33.253786 480.320534 33.892921 
L 480.320534 31.185005 
z
" clip-path="url(#p99779bcb88)" style="fill: #0000ff"/>
   </g>
   <g id="patch_99">
    <path d="M 480.320534 50.641615 
Q 478.535511 47.212158 476.615619 45.4896 
Q 474.695727 43.782701 472.6489 43.782701 
Q 468.023706 43.782701 465.322371 53.992774 
Q 462.621035 64.202847 462.621035 81.663325 
Q 462.621035 99.327378 465.369971 109.459153 
Q 468.122874 119.590928 472.910704 119.590928 
Q 474.755228 119.590928 476.44505 118.212881 
Q 478.138839 116.850494 479.638259 114.157039 
L 479.638259 99.045505 
Q 478.091238 102.506281 476.560085 104.21318 
Q 475.028931 105.935738 473.489844 105.935738 
Q 470.64174 105.935738 469.098687 99.64057 
Q 467.555633 93.361062 467.555633 81.663325 
Q 467.555633 70.075205 469.043153 63.748718 
Q 470.530672 57.437891 473.267708 57.437891 
Q 474.013451 57.437891 474.652093 57.798062 
Q 475.290735 58.173893 475.798475 58.956874 
L 475.798475 73.144491 
L 472.882937 73.144491 
L 472.882937 85.781805 
L 480.320534 85.781805 
L 480.320534 50.641615 
z
" clip-path="url(#p99779bcb88)" style="fill: #ffa600"/>
   </g>
   <g id="patch_100">
    <path d="M 462.621035 30.212286 
L 480.320534 30.212286 
L 480.320534 29.958422 
L 473.952831 29.958422 
L 473.952831 28.910607 
L 469.001087 28.910607 
L 469.001087 29.958422 
L 462.621035 29.958422 
L 462.621035 30.212286 
z
" clip-path="url(#p99779bcb88)" style="fill: #ff0000"/>
   </g>
   <g id="patch_101">
    <path d="M 498.951586 41.794169 
Q 497.471053 38.170863 495.870116 36.338143 
Q 494.269179 34.484359 492.52554 34.484359 
Q 487.325838 34.484359 484.288962 48.219219 
Q 481.252087 61.954079 481.252087 85.442376 
Q 481.252087 109.014936 484.288962 122.72873 
Q 487.325838 136.463591 492.52554 136.463591 
Q 494.269179 136.463591 495.870116 134.609806 
Q 497.471053 132.777087 498.951586 129.15378 
L 498.951586 108.825344 
Q 497.457675 113.628332 496.008359 115.8613 
Q 494.559042 118.094268 492.958105 118.094268 
Q 490.086228 118.094268 488.440697 109.394119 
Q 486.799624 100.715035 486.799624 85.442376 
Q 486.799624 70.232914 488.440697 61.532765 
Q 490.086228 52.853681 492.958105 52.853681 
Q 494.559042 52.853681 496.008359 55.086649 
Q 497.457675 57.340683 498.951586 62.143671 
L 498.951586 41.794169 
z
" clip-path="url(#p99779bcb88)" style="fill: #0000ff"/>
   </g>
   <g id="patch_102">
    <path d="M 498.951586 28.995393 
Q 497.166563 28.953 495.246671 28.931706 
Q 493.326779 28.910607 491.279952 28.910607 
Q 486.654758 28.910607 483.953422 29.036818 
Q 481.252087 29.163029 481.252087 29.378866 
Q 481.252087 29.59722 484.001023 29.722463 
Q 486.753926 29.847707 491.541755 29.847707 
Q 493.38628 29.847707 495.076102 29.830672 
Q 496.769891 29.813831 498.26931 29.780536 
L 498.26931 29.593735 
Q 496.72229 29.636516 495.191137 29.657615 
Q 493.659983 29.678909 492.120896 29.678909 
Q 489.272792 29.678909 487.729739 29.601091 
Q 486.186685 29.523467 486.186685 29.378866 
Q 486.186685 29.23562 487.674205 29.157416 
Q 489.161724 29.079405 491.89876 29.079405 
Q 492.644503 29.079405 493.283145 29.083857 
Q 493.921787 29.088503 494.429527 29.098181 
L 494.429527 29.273561 
L 491.513988 29.273561 
L 491.513988 29.429777 
L 498.951586 29.429777 
L 498.951586 28.995393 
z
" clip-path="url(#p99779bcb88)" style="fill: #ffa600"/>
   </g>
   <g id="patch_103">
    <path d="M 481.252087 34.484359 
L 498.951586 34.484359 
L 498.951586 33.580082 
L 492.583882 33.580082 
L 492.583882 29.847707 
L 487.632139 29.847707 
L 487.632139 33.580082 
L 481.252087 33.580082 
L 481.252087 34.484359 
z
" clip-path="url(#p99779bcb88)" style="fill: #ff0000"/>
   </g>
   <g id="patch_104">
    <path d="M 512.143597 29.43697 
L 505.336654 29.43697 
L 504.261874 28.910607 
L 499.883139 28.910607 
L 506.136407 31.800031 
L 511.32937 31.800031 
L 517.582638 28.910607 
L 513.207521 28.910607 
L 512.143597 29.43697 
z
M 506.422291 29.973241 
L 511.047104 29.973241 
L 508.738316 31.12257 
L 506.422291 29.973241 
z
" clip-path="url(#p99779bcb88)" style="fill: #008000"/>
   </g>
   <g id="patch_105">
    <path d="M 517.582638 44.666063 
Q 516.102105 42.051503 514.501168 40.729022 
Q 512.900231 39.391339 511.156591 39.391339 
Q 505.95689 39.391339 502.920014 49.302348 
Q 499.883139 59.213357 499.883139 76.162398 
Q 499.883139 93.172243 502.920014 103.06805 
Q 505.95689 112.979059 511.156591 112.979059 
Q 512.900231 112.979059 514.501168 111.641377 
Q 516.102105 110.318896 517.582638 107.704335 
L 517.582638 93.035434 
Q 516.088727 96.501247 514.63941 98.112546 
Q 513.190094 99.723845 511.589157 99.723845 
Q 508.71728 99.723845 507.071748 93.445859 
Q 505.430676 87.183075 505.430676 76.162398 
Q 505.430676 65.187324 507.071748 58.909338 
Q 508.71728 52.646554 511.589157 52.646554 
Q 513.190094 52.646554 514.63941 54.257853 
Q 516.088727 55.884352 517.582638 59.350165 
L 517.582638 44.666063 
z
" clip-path="url(#p99779bcb88)" style="fill: #0000ff"/>
   </g>
   <g id="patch_106">
    <path d="M 517.582638 35.75728 
Q 515.797614 35.576526 513.877722 35.485737 
Q 511.957831 35.395772 509.911004 35.395772 
Q 505.28581 35.395772 502.584474 35.933907 
Q 499.883139 36.472042 499.883139 37.392318 
Q 499.883139 38.323324 502.632075 38.857332 
Q 505.384978 39.391339 510.172807 39.391339 
Q 512.017331 39.391339 513.707153 39.318708 
Q 515.400942 39.246901 516.900362 39.10494 
L 516.900362 38.308467 
Q 515.353342 38.490872 513.822188 38.580836 
Q 512.291035 38.671626 510.751948 38.671626 
Q 507.903844 38.671626 506.36079 38.339831 
Q 504.817737 38.008862 504.817737 37.392318 
Q 504.817737 36.781552 506.305256 36.448106 
Q 507.792776 36.115486 510.529812 36.115486 
Q 511.275555 36.115486 511.914197 36.13447 
Q 512.552838 36.154278 513.060578 36.195546 
L 513.060578 36.943322 
L 510.14504 36.943322 
L 510.14504 37.609388 
L 517.582638 37.609388 
L 517.582638 35.75728 
z
" clip-path="url(#p99779bcb88)" style="fill: #ffa600"/>
   </g>
   <g id="patch_107">
    <path d="M 499.883139 35.395772 
L 517.582638 35.395772 
L 517.582638 34.694503 
L 511.214934 34.694503 
L 511.214934 31.800031 
L 506.263191 31.800031 
L 506.263191 34.694503 
L 499.883139 34.694503 
L 499.883139 35.395772 
z
" clip-path="url(#p99779bcb88)" style="fill: #ff0000"/>
   </g>
   <g id="patch_108">
    <path d="M 536.213689 29.064166 
Q 534.733157 28.98805 533.13222 28.94955 
Q 531.531282 28.910607 529.787643 28.910607 
Q 524.587941 28.910607 521.551066 29.19914 
Q 518.51419 29.487673 518.51419 29.9811 
Q 518.51419 30.476297 521.551066 30.764387 
Q 524.587941 31.05292 529.787643 31.05292 
Q 531.531282 31.05292 533.13222 31.013977 
Q 534.733157 30.975477 536.213689 30.899361 
L 536.213689 30.472314 
Q 534.719779 30.573212 533.270462 30.620121 
Q 531.821146 30.66703 530.220208 30.66703 
Q 527.348332 30.66703 525.7028 30.484262 
Q 524.061728 30.301938 524.061728 29.9811 
Q 524.061728 29.661589 525.7028 29.478822 
Q 527.348332 29.296497 530.220208 29.296497 
Q 531.821146 29.296497 533.270462 29.343406 
Q 534.719779 29.390757 536.213689 29.491656 
L 536.213689 29.064166 
z
" clip-path="url(#p99779bcb88)" style="fill: #0000ff"/>
   </g>
   <g id="patch_109">
    <path d="M 536.213689 40.463422 
Q 534.428666 35.758171 532.508774 33.394803 
Q 530.588882 31.05292 528.542055 31.05292 
Q 523.916861 31.05292 521.215526 45.061247 
Q 518.51419 59.069574 518.51419 83.025532 
Q 518.51419 107.260797 521.263126 121.161698 
Q 524.016029 135.062599 528.803859 135.062599 
Q 530.648383 135.062599 532.338205 133.171905 
Q 534.031994 131.302696 535.531414 127.607247 
L 535.531414 106.874064 
Q 533.984394 111.622285 532.45324 113.964168 
Q 530.922087 116.327536 529.383 116.327536 
Q 526.534896 116.327536 524.991842 107.6905 
Q 523.448788 99.07495 523.448788 83.025532 
Q 523.448788 67.126511 524.936308 58.446505 
Q 526.423828 49.787983 529.160864 49.787983 
Q 529.906607 49.787983 530.545248 50.282142 
Q 531.18389 50.797786 531.69163 51.872044 
L 531.69163 71.337603 
L 528.776092 71.337603 
L 528.776092 88.67613 
L 536.213689 88.67613 
L 536.213689 40.463422 
z
" clip-path="url(#p99779bcb88)" style="fill: #ffa600"/>
   </g>
   <g id="patch_110">
    <path d="M 549.405701 29.247623 
L 542.598758 29.247623 
L 541.523977 28.910607 
L 537.145242 28.910607 
L 543.39851 30.760632 
L 548.591473 30.760632 
L 554.844741 28.910607 
L 550.469625 28.910607 
L 549.405701 29.247623 
z
M 543.684395 29.590984 
L 548.309208 29.590984 
L 546.00042 30.326871 
L 543.684395 29.590984 
z
" clip-path="url(#p99779bcb88)" style="fill: #008000"/>
   </g>
   <g id="patch_111">
    <path d="M 554.844741 46.482718 
Q 553.364209 43.53805 551.763271 42.048596 
Q 550.162334 40.542022 548.418695 40.542022 
Q 543.218993 40.542022 540.182118 51.704367 
Q 537.145242 62.866712 537.145242 81.955692 
Q 537.145242 101.113153 540.182118 112.258378 
Q 543.218993 123.420723 548.418695 123.420723 
Q 550.162334 123.420723 551.763271 121.914149 
Q 553.364209 120.424695 554.844741 117.480027 
L 554.844741 100.959071 
Q 553.35083 104.862468 551.901514 106.677205 
Q 550.452197 108.491942 548.85126 108.491942 
Q 545.979384 108.491942 544.333852 101.421316 
Q 542.69278 94.367809 542.69278 81.955692 
Q 542.69278 69.594936 544.333852 62.524309 
Q 545.979384 55.470803 548.85126 55.470803 
Q 550.452197 55.470803 551.901514 57.28554 
Q 553.35083 59.117397 554.844741 63.020794 
L 554.844741 46.482718 
z
" clip-path="url(#p99779bcb88)" style="fill: #0000ff"/>
   </g>
   <g id="patch_112">
    <path d="M 554.844741 31.645624 
Q 553.059718 31.203128 551.139826 30.980869 
Q 549.219934 30.760632 547.173107 30.760632 
Q 542.547913 30.760632 539.846578 32.078018 
Q 537.145242 33.395404 537.145242 35.648296 
Q 537.145242 37.927455 539.894178 39.234739 
Q 542.647081 40.542022 547.434911 40.542022 
Q 549.279435 40.542022 550.969257 40.364215 
Q 552.663046 40.188429 554.162466 39.840898 
L 554.162466 37.891085 
Q 552.615445 38.337623 551.084292 38.557861 
Q 549.553138 38.780119 548.014052 38.780119 
Q 545.165947 38.780119 543.622894 37.967866 
Q 542.07984 37.157633 542.07984 35.648296 
Q 542.07984 34.153103 543.56736 33.336809 
Q 545.054879 32.522535 547.791915 32.522535 
Q 548.537658 32.522535 549.1763 32.569007 
Q 549.814942 32.6175 550.322682 32.718526 
L 550.322682 34.549127 
L 547.407144 34.549127 
L 547.407144 36.179696 
L 554.844741 36.179696 
L 554.844741 31.645624 
z
" clip-path="url(#p99779bcb88)" style="fill: #ffa600"/>
   </g>
   <g id="patch_113">
    <path d="M 573.475793 43.960987 
Q 571.99526 42.792632 570.394323 42.201662 
Q 568.793386 41.603899 567.049747 41.603899 
Q 561.850045 41.603899 558.813169 46.032778 
Q 555.776294 50.461658 555.776294 58.035585 
Q 555.776294 65.636683 558.813169 70.058769 
Q 561.850045 74.487649 567.049747 74.487649 
Q 568.793386 74.487649 570.394323 73.889886 
Q 571.99526 73.298916 573.475793 72.130561 
L 573.475793 65.575548 
Q 571.981882 67.124297 570.532566 67.84433 
Q 569.083249 68.564362 567.482312 68.564362 
Q 564.610435 68.564362 562.964904 65.758952 
Q 561.323831 62.960335 561.323831 58.035585 
Q 561.323831 53.131212 562.964904 50.325802 
Q 564.610435 47.527185 567.482312 47.527185 
Q 569.083249 47.527185 570.532566 48.247218 
Q 571.981882 48.974043 573.475793 50.522792 
L 573.475793 43.960987 
z
" clip-path="url(#p99779bcb88)" style="fill: #0000ff"/>
   </g>
   <g id="patch_114">
    <path d="M 573.475793 30.05906 
Q 571.69077 29.484833 569.770878 29.196409 
Q 567.850986 28.910607 565.804159 28.910607 
Q 561.178965 28.910607 558.477629 30.620176 
Q 555.776294 32.329746 555.776294 35.25332 
Q 555.776294 38.21098 558.52523 39.90744 
Q 561.278133 41.603899 566.065962 41.603899 
Q 567.910487 41.603899 569.600309 41.37316 
Q 571.294098 41.145042 572.793517 40.694051 
L 572.793517 38.163783 
Q 571.246497 38.743254 569.715344 39.029056 
Q 568.18419 39.317481 566.645103 39.317481 
Q 563.796999 39.317481 562.253946 38.263421 
Q 560.710892 37.211983 560.710892 35.25332 
Q 560.710892 33.313011 562.198412 32.253707 
Q 563.685931 31.197025 566.422967 31.197025 
Q 567.16871 31.197025 567.807352 31.257332 
Q 568.445994 31.320261 568.953734 31.451363 
L 568.953734 33.82693 
L 566.038195 33.82693 
L 566.038195 35.942916 
L 573.475793 35.942916 
L 573.475793 30.05906 
z
" clip-path="url(#p99779bcb88)" style="fill: #ffa600"/>
   </g>
   <g id="patch_115">
    <path d="M 592.106845 31.927131 
Q 590.626312 31.103108 589.025375 30.686305 
Q 587.424438 30.264712 585.680798 30.264712 
Q 580.481097 30.264712 577.444221 33.388335 
Q 574.407346 36.511959 574.407346 41.853738 
Q 574.407346 47.214681 577.444221 50.333513 
Q 580.481097 53.457137 585.680798 53.457137 
Q 587.424438 53.457137 589.025375 53.035543 
Q 590.626312 52.618741 592.106845 51.794717 
L 592.106845 47.171563 
Q 590.612934 48.263873 589.163617 48.771701 
Q 587.714301 49.27953 586.113364 49.27953 
Q 583.241487 49.27953 581.595955 47.300916 
Q 579.954883 45.327092 579.954883 41.853738 
Q 579.954883 38.394756 581.595955 36.416142 
Q 583.241487 34.442319 586.113364 34.442319 
Q 587.714301 34.442319 589.163617 34.950147 
Q 590.612934 35.462766 592.106845 36.555076 
L 592.106845 31.927131 
z
" clip-path="url(#p99779bcb88)" style="fill: #0000ff"/>
   </g>
   <g id="patch_116">
    <path d="M 592.106845 29.033122 
Q 590.321821 28.971864 588.401929 28.941096 
Q 586.482038 28.910607 584.435211 28.910607 
Q 579.810017 28.910607 577.108681 29.092981 
Q 574.407346 29.275356 574.407346 29.58724 
Q 574.407346 29.902759 577.156282 30.083736 
Q 579.909185 30.264712 584.697014 30.264712 
Q 586.541538 30.264712 588.23136 30.240097 
Q 589.925149 30.215762 591.424569 30.167651 
L 591.424569 29.897725 
Q 589.877549 29.959542 588.346395 29.990031 
Q 586.815242 30.0208 585.276155 30.0208 
Q 582.428051 30.0208 580.884997 29.908354 
Q 579.341944 29.796188 579.341944 29.58724 
Q 579.341944 29.38025 580.829463 29.267245 
Q 582.316983 29.154519 585.054019 29.154519 
Q 585.799762 29.154519 586.438404 29.160952 
Q 587.077045 29.167666 587.584785 29.181651 
L 587.584785 29.435074 
L 584.669247 29.435074 
L 584.669247 29.660805 
L 592.106845 29.660805 
L 592.106845 29.033122 
z
" clip-path="url(#p99779bcb88)" style="fill: #ffa600"/>
   </g>
   <g id="patch_117">
    <path d="M 610.737896 34.18099 
Q 609.257364 33.115662 607.656427 32.576804 
Q 606.055489 32.031753 604.31185 32.031753 
Q 599.112148 32.031753 596.075273 36.070088 
Q 593.038397 40.108424 593.038397 47.014473 
Q 593.038397 53.945297 596.075273 57.977438 
Q 599.112148 62.015774 604.31185 62.015774 
Q 606.055489 62.015774 607.656427 61.470722 
Q 609.257364 60.931865 610.737896 59.866537 
L 610.737896 53.889553 
Q 609.243986 55.301732 607.794669 55.958271 
Q 606.345353 56.61481 604.744415 56.61481 
Q 601.872539 56.61481 600.227007 54.056785 
Q 598.585935 51.504953 598.585935 47.014473 
Q 598.585935 42.542574 600.227007 39.984548 
Q 601.872539 37.432717 604.744415 37.432717 
Q 606.345353 37.432717 607.794669 38.089256 
Q 609.243986 38.751989 610.737896 40.164168 
L 610.737896 34.18099 
z
" clip-path="url(#p99779bcb88)" style="fill: #0000ff"/>
   </g>
   <g id="patch_118">
    <path d="M 610.737896 29.192999 
Q 608.952873 29.051803 607.032981 28.980882 
Q 605.113089 28.910607 603.066262 28.910607 
Q 598.441068 28.910607 595.739733 29.330972 
Q 593.038397 29.751337 593.038397 30.470213 
Q 593.038397 31.19747 595.787333 31.614612 
Q 598.540236 32.031753 603.328066 32.031753 
Q 605.17259 32.031753 606.862412 31.975017 
Q 608.556201 31.918925 610.055621 31.808031 
L 610.055621 31.185865 
Q 608.508601 31.328351 606.977447 31.398626 
Q 605.446294 31.469547 603.907207 31.469547 
Q 601.059103 31.469547 599.516049 31.210365 
Q 597.972995 30.951827 597.972995 30.470213 
Q 597.972995 29.993111 599.460515 29.73264 
Q 600.948035 29.472813 603.685071 29.472813 
Q 604.430814 29.472813 605.069455 29.487641 
Q 605.708097 29.503115 606.215837 29.535352 
L 606.215837 30.119479 
L 603.300299 30.119479 
L 603.300299 30.639777 
L 610.737896 30.639777 
L 610.737896 29.192999 
z
" clip-path="url(#p99779bcb88)" style="fill: #ffa600"/>
   </g>
   <g id="patch_119">
    <path d="M 629.368948 30.723015 
Q 627.888416 29.824645 626.287478 29.370238 
Q 624.686541 28.910607 622.942902 28.910607 
Q 617.7432 28.910607 614.706325 32.316054 
Q 611.669449 35.721502 611.669449 41.545236 
Q 611.669449 47.389862 614.706325 50.790087 
Q 617.7432 54.195535 622.942902 54.195535 
Q 624.686541 54.195535 626.287478 53.735904 
Q 627.888416 53.281496 629.368948 52.383126 
L 629.368948 47.342854 
Q 627.875037 48.533717 626.425721 49.087363 
Q 624.976404 49.641009 623.375467 49.641009 
Q 620.503591 49.641009 618.858059 47.483878 
Q 617.216987 45.331969 617.216987 41.545236 
Q 617.216987 37.774173 618.858059 35.617041 
Q 620.503591 33.465132 623.375467 33.465132 
Q 624.976404 33.465132 626.425721 34.018778 
Q 627.875037 34.577648 629.368948 35.76851 
L 629.368948 30.723015 
z
" clip-path="url(#p99779bcb88)" style="fill: #0000ff"/>
   </g>
   <g id="patch_120">
    <path d="M 648 38.528028 
Q 646.519467 38.06781 644.91853 37.835025 
Q 643.317593 37.599564 641.573954 37.599564 
Q 636.374252 37.599564 633.337376 39.344114 
Q 630.300501 41.088663 630.300501 44.072057 
Q 630.300501 47.066153 633.337376 48.808027 
Q 636.374252 50.552576 641.573954 50.552576 
Q 643.317593 50.552576 644.91853 50.317116 
Q 646.519467 50.084331 648 49.624112 
L 648 47.042072 
Q 646.506089 47.652129 645.056773 47.935752 
Q 643.607456 48.219375 642.006519 48.219375 
Q 639.134642 48.219375 637.489111 47.114316 
Q 635.848038 46.011932 635.848038 44.072057 
Q 635.848038 42.140209 637.489111 41.035149 
Q 639.134642 39.932765 642.006519 39.932765 
Q 643.607456 39.932765 645.056773 40.216388 
Q 646.506089 40.502687 648 41.112744 
L 648 38.528028 
z
" clip-path="url(#p99779bcb88)" style="fill: #0000ff"/>
   </g>
   <g id="patch_121">
    <path d="M 648 29.696759 
Q 646.214977 29.303683 644.295085 29.106247 
Q 642.375193 28.910607 640.328366 28.910607 
Q 635.703172 28.910607 633.001836 30.080861 
Q 630.300501 31.251115 630.300501 33.252393 
Q 630.300501 35.277004 633.049437 36.438284 
Q 635.80234 37.599564 640.590169 37.599564 
Q 642.434694 37.599564 644.124516 37.441616 
Q 645.818305 37.285462 647.317724 36.976745 
L 647.317724 35.244697 
Q 645.770704 35.641363 644.239551 35.837003 
Q 642.708397 36.034439 641.16931 36.034439 
Q 638.321206 36.034439 636.778153 35.312902 
Q 635.235099 34.59316 635.235099 33.252393 
Q 635.235099 31.92419 636.722619 31.199064 
Q 638.210138 30.475732 640.947174 30.475732 
Q 641.692917 30.475732 642.331559 30.517014 
Q 642.970201 30.56009 643.477941 30.649834 
L 643.477941 32.275985 
L 640.562402 32.275985 
L 640.562402 33.724443 
L 648 33.724443 
L 648 29.696759 
z
" clip-path="url(#p99779bcb88)" style="fill: #ffa600"/>
   </g>
   <g id="matplotlib.axis_1">
    <g id="xtick_1">
     <g id="line2d_2">
      <defs>
       <path id="m72c10e25ce" d="M 0 0 
L 0 3.5 
" style="stroke: #000000; stroke-width: 0.8"/>
      </defs>
      <g>
       <use xlink:href="#m72c10e25ce" x="98.84975" y="192.24" style="stroke: #000000; stroke-width: 0.8"/>
      </g>
     </g>
     <g id="text_1">
      <!-- 0 -->
      <g transform="translate(95.6685 206.838437) scale(0.1 -0.1)">
       <defs>
        <path id="DejaVuSans-30" d="M 2034 4250 
Q 1547 4250 1301 3770 
Q 1056 3291 1056 2328 
Q 1056 1369 1301 889 
Q 1547 409 2034 409 
Q 2525 409 2770 889 
Q 3016 1369 3016 2328 
Q 3016 3291 2770 3770 
Q 2525 4250 2034 4250 
z
M 2034 4750 
Q 2819 4750 3233 4129 
Q 3647 3509 3647 2328 
Q 3647 1150 3233 529 
Q 2819 -91 2034 -91 
Q 1250 -91 836 529 
Q 422 1150 422 2328 
Q 422 3509 836 4129 
Q 1250 4750 2034 4750 
z
" transform="scale(0.015625)"/>
       </defs>
       <use xlink:href="#DejaVuSans-30"/>
      </g>
     </g>
    </g>
    <g id="xtick_2">
     <g id="line2d_3">
      <g>
       <use xlink:href="#m72c10e25ce" x="192.005008" y="192.24" style="stroke: #000000; stroke-width: 0.8"/>
      </g>
     </g>
     <g id="text_2">
      <!-- 5 -->
      <g transform="translate(188.823758 206.838437) scale(0.1 -0.1)">
       <defs>
        <path id="DejaVuSans-35" d="M 691 4666 
L 3169 4666 
L 3169 4134 
L 1269 4134 
L 1269 2991 
Q 1406 3038 1543 3061 
Q 1681 3084 1819 3084 
Q 2600 3084 3056 2656 
Q 3513 2228 3513 1497 
Q 3513 744 3044 326 
Q 2575 -91 1722 -91 
Q 1428 -91 1123 -41 
Q 819 9 494 109 
L 494 744 
Q 775 591 1075 516 
Q 1375 441 1709 441 
Q 2250 441 2565 725 
Q 2881 1009 2881 1497 
Q 2881 1984 2565 2268 
Q 2250 2553 1709 2553 
Q 1456 2553 1204 2497 
Q 953 2441 691 2322 
L 691 4666 
z
" transform="scale(0.015625)"/>
       </defs>
       <use xlink:href="#DejaVuSans-35"/>
      </g>
     </g>
    </g>
    <g id="xtick_3">
     <g id="line2d_4">
      <g>
       <use xlink:href="#m72c10e25ce" x="285.160267" y="192.24" style="stroke: #000000; stroke-width: 0.8"/>
      </g>
     </g>
     <g id="text_3">
      <!-- 10 -->
      <g transform="translate(278.797767 206.838437) scale(0.1 -0.1)">
       <defs>
        <path id="DejaVuSans-31" d="M 794 531 
L 1825 531 
L 1825 4091 
L 703 3866 
L 703 4441 
L 1819 4666 
L 2450 4666 
L 2450 531 
L 3481 531 
L 3481 0 
L 794 0 
L 794 531 
z
" transform="scale(0.015625)"/>
       </defs>
       <use xlink:href="#DejaVuSans-31"/>
       <use xlink:href="#DejaVuSans-30" x="63.623047"/>
      </g>
     </g>
    </g>
    <g id="xtick_4">
     <g id="line2d_5">
      <g>
       <use xlink:href="#m72c10e25ce" x="378.315526" y="192.24" style="stroke: #000000; stroke-width: 0.8"/>
      </g>
     </g>
     <g id="text_4">
      <!-- 15 -->
      <g transform="translate(371.953026 206.838437) scale(0.1 -0.1)">
       <use xlink:href="#DejaVuSans-31"/>
       <use xlink:href="#DejaVuSans-35" x="63.623047"/>
      </g>
     </g>
    </g>
    <g id="xtick_5">
     <g id="line2d_6">
      <g>
       <use xlink:href="#m72c10e25ce" x="471.470785" y="192.24" style="stroke: #000000; stroke-width: 0.8"/>
      </g>
     </g>
     <g id="text_5">
      <!-- 20 -->
      <g transform="translate(465.108285 206.838437) scale(0.1 -0.1)">
       <defs>
        <path id="DejaVuSans-32" d="M 1228 531 
L 3431 531 
L 3431 0 
L 469 0 
L 469 531 
Q 828 903 1448 1529 
Q 2069 2156 2228 2338 
Q 2531 2678 2651 2914 
Q 2772 3150 2772 3378 
Q 2772 3750 2511 3984 
Q 2250 4219 1831 4219 
Q 1534 4219 1204 4116 
Q 875 4013 500 3803 
L 500 4441 
Q 881 4594 1212 4672 
Q 1544 4750 1819 4750 
Q 2544 4750 2975 4387 
Q 3406 4025 3406 3419 
Q 3406 3131 3298 2873 
Q 3191 2616 2906 2266 
Q 2828 2175 2409 1742 
Q 1991 1309 1228 531 
z
" transform="scale(0.015625)"/>
       </defs>
       <use xlink:href="#DejaVuSans-32"/>
       <use xlink:href="#DejaVuSans-30" x="63.623047"/>
      </g>
     </g>
    </g>
    <g id="xtick_6">
     <g id="line2d_7">
      <g>
       <use xlink:href="#m72c10e25ce" x="564.626043" y="192.24" style="stroke: #000000; stroke-width: 0.8"/>
      </g>
     </g>
     <g id="text_6">
      <!-- 25 -->
      <g transform="translate(558.263543 206.838437) scale(0.1 -0.1)">
       <use xlink:href="#DejaVuSans-32"/>
       <use xlink:href="#DejaVuSans-35" x="63.623047"/>
      </g>
     </g>
    </g>
   </g>
   <g id="matplotlib.axis_2">
    <g id="ytick_1">
     <g id="line2d_8">
      <defs>
       <path id="m98615dc55b" d="M 0 0 
L -3.5 0 
" style="stroke: #000000; stroke-width: 0.8"/>
      </defs>
      <g>
       <use xlink:href="#m98615dc55b" x="90" y="184.469273" style="stroke: #000000; stroke-width: 0.8"/>
      </g>
     </g>
     <g id="text_7">
      <!-- 0.007 -->
      <g transform="translate(45.992188 188.268492) scale(0.1 -0.1)">
       <defs>
        <path id="DejaVuSans-2212" d="M 678 2272 
L 4684 2272 
L 4684 1741 
L 678 1741 
L 678 2272 
z
" transform="scale(0.015625)"/>
        <path id="DejaVuSans-2e" d="M 684 794 
L 1344 794 
L 1344 0 
L 684 0 
L 684 794 
z
" transform="scale(0.015625)"/>
        <path id="DejaVuSans-37" d="M 525 4666 
L 3525 4666 
L 3525 4397 
L 1831 0 
L 1172 0 
L 2766 4134 
L 525 4134 
L 525 4666 
z
" transform="scale(0.015625)"/>
       </defs>
       <use xlink:href="#DejaVuSans-2212"/>
       <use xlink:href="#DejaVuSans-30" x="83.789062"/>
       <use xlink:href="#DejaVuSans-2e" x="147.412109"/>
       <use xlink:href="#DejaVuSans-30" x="179.199219"/>
       <use xlink:href="#DejaVuSans-30" x="242.822266"/>
       <use xlink:href="#DejaVuSans-37" x="306.445312"/>
      </g>
     </g>
    </g>
    <g id="ytick_2">
     <g id="line2d_9">
      <g>
       <use xlink:href="#m98615dc55b" x="90" y="162.246606" style="stroke: #000000; stroke-width: 0.8"/>
      </g>
     </g>
     <g id="text_8">
      <!-- 0.006 -->
      <g transform="translate(45.992188 166.045825) scale(0.1 -0.1)">
       <defs>
        <path id="DejaVuSans-36" d="M 2113 2584 
Q 1688 2584 1439 2293 
Q 1191 2003 1191 1497 
Q 1191 994 1439 701 
Q 1688 409 2113 409 
Q 2538 409 2786 701 
Q 3034 994 3034 1497 
Q 3034 2003 2786 2293 
Q 2538 2584 2113 2584 
z
M 3366 4563 
L 3366 3988 
Q 3128 4100 2886 4159 
Q 2644 4219 2406 4219 
Q 1781 4219 1451 3797 
Q 1122 3375 1075 2522 
Q 1259 2794 1537 2939 
Q 1816 3084 2150 3084 
Q 2853 3084 3261 2657 
Q 3669 2231 3669 1497 
Q 3669 778 3244 343 
Q 2819 -91 2113 -91 
Q 1303 -91 875 529 
Q 447 1150 447 2328 
Q 447 3434 972 4092 
Q 1497 4750 2381 4750 
Q 2619 4750 2861 4703 
Q 3103 4656 3366 4563 
z
" transform="scale(0.015625)"/>
       </defs>
       <use xlink:href="#DejaVuSans-2212"/>
       <use xlink:href="#DejaVuSans-30" x="83.789062"/>
       <use xlink:href="#DejaVuSans-2e" x="147.412109"/>
       <use xlink:href="#DejaVuSans-30" x="179.199219"/>
       <use xlink:href="#DejaVuSans-30" x="242.822266"/>
       <use xlink:href="#DejaVuSans-36" x="306.445312"/>
      </g>
     </g>
    </g>
    <g id="ytick_3">
     <g id="line2d_10">
      <g>
       <use xlink:href="#m98615dc55b" x="90" y="140.02394" style="stroke: #000000; stroke-width: 0.8"/>
      </g>
     </g>
     <g id="text_9">
      <!-- 0.005 -->
      <g transform="translate(45.992188 143.823158) scale(0.1 -0.1)">
       <use xlink:href="#DejaVuSans-2212"/>
       <use xlink:href="#DejaVuSans-30" x="83.789062"/>
       <use xlink:href="#DejaVuSans-2e" x="147.412109"/>
       <use xlink:href="#DejaVuSans-30" x="179.199219"/>
       <use xlink:href="#DejaVuSans-30" x="242.822266"/>
       <use xlink:href="#DejaVuSans-35" x="306.445312"/>
      </g>
     </g>
    </g>
    <g id="ytick_4">
     <g id="line2d_11">
      <g>
       <use xlink:href="#m98615dc55b" x="90" y="117.801273" style="stroke: #000000; stroke-width: 0.8"/>
      </g>
     </g>
     <g id="text_10">
      <!-- 0.004 -->
      <g transform="translate(45.992188 121.600492) scale(0.1 -0.1)">
       <defs>
        <path id="DejaVuSans-34" d="M 2419 4116 
L 825 1625 
L 2419 1625 
L 2419 4116 
z
M 2253 4666 
L 3047 4666 
L 3047 1625 
L 3713 1625 
L 3713 1100 
L 3047 1100 
L 3047 0 
L 2419 0 
L 2419 1100 
L 313 1100 
L 313 1709 
L 2253 4666 
z
" transform="scale(0.015625)"/>
       </defs>
       <use xlink:href="#DejaVuSans-2212"/>
       <use xlink:href="#DejaVuSans-30" x="83.789062"/>
       <use xlink:href="#DejaVuSans-2e" x="147.412109"/>
       <use xlink:href="#DejaVuSans-30" x="179.199219"/>
       <use xlink:href="#DejaVuSans-30" x="242.822266"/>
       <use xlink:href="#DejaVuSans-34" x="306.445312"/>
      </g>
     </g>
    </g>
    <g id="ytick_5">
     <g id="line2d_12">
      <g>
       <use xlink:href="#m98615dc55b" x="90" y="95.578606" style="stroke: #000000; stroke-width: 0.8"/>
      </g>
     </g>
     <g id="text_11">
      <!-- 0.003 -->
      <g transform="translate(45.992188 99.377825) scale(0.1 -0.1)">
       <defs>
        <path id="DejaVuSans-33" d="M 2597 2516 
Q 3050 2419 3304 2112 
Q 3559 1806 3559 1356 
Q 3559 666 3084 287 
Q 2609 -91 1734 -91 
Q 1441 -91 1130 -33 
Q 819 25 488 141 
L 488 750 
Q 750 597 1062 519 
Q 1375 441 1716 441 
Q 2309 441 2620 675 
Q 2931 909 2931 1356 
Q 2931 1769 2642 2001 
Q 2353 2234 1838 2234 
L 1294 2234 
L 1294 2753 
L 1863 2753 
Q 2328 2753 2575 2939 
Q 2822 3125 2822 3475 
Q 2822 3834 2567 4026 
Q 2313 4219 1838 4219 
Q 1578 4219 1281 4162 
Q 984 4106 628 3988 
L 628 4550 
Q 988 4650 1302 4700 
Q 1616 4750 1894 4750 
Q 2613 4750 3031 4423 
Q 3450 4097 3450 3541 
Q 3450 3153 3228 2886 
Q 3006 2619 2597 2516 
z
" transform="scale(0.015625)"/>
       </defs>
       <use xlink:href="#DejaVuSans-2212"/>
       <use xlink:href="#DejaVuSans-30" x="83.789062"/>
       <use xlink:href="#DejaVuSans-2e" x="147.412109"/>
       <use xlink:href="#DejaVuSans-30" x="179.199219"/>
       <use xlink:href="#DejaVuSans-30" x="242.822266"/>
       <use xlink:href="#DejaVuSans-33" x="306.445312"/>
      </g>
     </g>
    </g>
    <g id="ytick_6">
     <g id="line2d_13">
      <g>
       <use xlink:href="#m98615dc55b" x="90" y="73.35594" style="stroke: #000000; stroke-width: 0.8"/>
      </g>
     </g>
     <g id="text_12">
      <!-- 0.002 -->
      <g transform="translate(45.992188 77.155159) scale(0.1 -0.1)">
       <use xlink:href="#DejaVuSans-2212"/>
       <use xlink:href="#DejaVuSans-30" x="83.789062"/>
       <use xlink:href="#DejaVuSans-2e" x="147.412109"/>
       <use xlink:href="#DejaVuSans-30" x="179.199219"/>
       <use xlink:href="#DejaVuSans-30" x="242.822266"/>
       <use xlink:href="#DejaVuSans-32" x="306.445312"/>
      </g>
     </g>
    </g>
    <g id="ytick_7">
     <g id="line2d_14">
      <g>
       <use xlink:href="#m98615dc55b" x="90" y="51.133273" style="stroke: #000000; stroke-width: 0.8"/>
      </g>
     </g>
     <g id="text_13">
      <!-- 0.001 -->
      <g transform="translate(45.992188 54.932492) scale(0.1 -0.1)">
       <use xlink:href="#DejaVuSans-2212"/>
       <use xlink:href="#DejaVuSans-30" x="83.789062"/>
       <use xlink:href="#DejaVuSans-2e" x="147.412109"/>
       <use xlink:href="#DejaVuSans-30" x="179.199219"/>
       <use xlink:href="#DejaVuSans-30" x="242.822266"/>
       <use xlink:href="#DejaVuSans-31" x="306.445312"/>
      </g>
     </g>
    </g>
    <g id="ytick_8">
     <g id="line2d_15">
      <g>
       <use xlink:href="#m98615dc55b" x="90" y="28.910607" style="stroke: #000000; stroke-width: 0.8"/>
      </g>
     </g>
     <g id="text_14">
      <!-- 0.000 -->
      <g transform="translate(54.371875 32.709825) scale(0.1 -0.1)">
       <use xlink:href="#DejaVuSans-30"/>
       <use xlink:href="#DejaVuSans-2e" x="63.623047"/>
       <use xlink:href="#DejaVuSans-30" x="95.410156"/>
       <use xlink:href="#DejaVuSans-30" x="159.033203"/>
       <use xlink:href="#DejaVuSans-30" x="222.65625"/>
      </g>
     </g>
    </g>
   </g>
  </g>
 </g>
 <defs>
  <clipPath id="p99779bcb88">
   <rect x="90" y="25.92" width="558" height="166.32"/>
  </clipPath>
 </defs>
</svg>
