<?xml version="1.0" encoding="utf-8" standalone="no"?>
<!DOCTYPE svg PUBLIC "-//W3C//DTD SVG 1.1//EN"
  "http://www.w3.org/Graphics/SVG/1.1/DTD/svg11.dtd">
<svg xmlns:xlink="http://www.w3.org/1999/xlink" width="720pt" height="216pt" viewBox="0 0 720 216" xmlns="http://www.w3.org/2000/svg" version="1.1">
 <metadata>
  <rdf:RDF xmlns:dc="http://purl.org/dc/elements/1.1/" xmlns:cc="http://creativecommons.org/ns#" xmlns:rdf="http://www.w3.org/1999/02/22-rdf-syntax-ns#">
   <cc:Work>
    <dc:type rdf:resource="http://purl.org/dc/dcmitype/StillImage"/>
    <dc:date>2024-11-23T04:46:28.388000</dc:date>
    <dc:format>image/svg+xml</dc:format>
    <dc:creator>
     <cc:Agent>
      <dc:title>Matplotlib v3.7.2, https://matplotlib.org/</dc:title>
     </cc:Agent>
    </dc:creator>
   </cc:Work>
  </rdf:RDF>
 </metadata>
 <defs>
  <style type="text/css">*{stroke-linejoin: round; stroke-linecap: butt}</style>
 </defs>
 <g id="figure_1">
  <g id="patch_1">
   <path d="M 0 216 
L 720 216 
L 720 0 
L 0 0 
z
" style="fill: #ffffff"/>
  </g>
  <g id="axes_1">
   <g id="patch_2">
    <path d="M 90 192.24 
L 648 192.24 
L 648 25.92 
L 90 25.92 
z
" style="fill: #ffffff"/>
   </g>
   <g id="line2d_1">
    <path d="M 90 92.720842 
L 648 92.720842 
" clip-path="url(#p5cbcba7fd8)" style="fill: none; stroke: #000000; stroke-width: 0.5; stroke-linecap: square"/>
   </g>
   <g id="patch_3">
    <path d="M 102.260459 91.326318 
L 95.453516 91.326318 
L 94.378735 92.720842 
L 90 92.720842 
L 96.253268 85.065726 
L 101.446231 85.065726 
L 107.699499 92.720842 
L 103.324383 92.720842 
L 102.260459 91.326318 
z
M 96.539153 89.905544 
L 101.163965 89.905544 
L 98.855178 86.86056 
L 96.539153 89.905544 
z
" clip-path="url(#p5cbcba7fd8)" style="fill: #008000"/>
   </g>
   <g id="patch_4">
    <path d="M 90 39.848633 
L 107.699499 39.848633 
L 107.699499 48.667226 
L 101.331796 48.667226 
L 101.331796 85.065726 
L 96.380052 85.065726 
L 96.380052 48.667226 
L 90 48.667226 
L 90 39.848633 
z
" clip-path="url(#p5cbcba7fd8)" style="fill: #ff0000"/>
   </g>
   <g id="patch_5">
    <path d="M 126.330551 92.653304 
Q 124.850018 92.686781 123.249081 92.703714 
Q 121.648144 92.720842 119.904504 92.720842 
Q 114.704803 92.720842 111.667927 92.59394 
Q 108.631052 92.467039 108.631052 92.250023 
Q 108.631052 92.032227 111.667927 91.905521 
Q 114.704803 91.77862 119.904504 91.77862 
Q 121.648144 91.77862 123.249081 91.795747 
Q 124.850018 91.812681 126.330551 91.846158 
L 126.330551 92.033979 
Q 124.83664 91.989603 123.387324 91.968972 
Q 121.938007 91.94834 120.33707 91.94834 
Q 117.465193 91.94834 115.819662 92.028724 
Q 114.178589 92.108913 114.178589 92.250023 
Q 114.178589 92.390548 115.819662 92.470932 
Q 117.465193 92.551121 120.33707 92.551121 
Q 121.938007 92.551121 123.387324 92.53049 
Q 124.83664 92.509664 126.330551 92.465288 
L 126.330551 92.653304 
z
" clip-path="url(#p5cbcba7fd8)" style="fill: #0000ff"/>
   </g>
   <g id="patch_6">
    <path d="M 120.89151 89.879988 
L 114.084567 89.879988 
L 113.009787 91.77862 
L 108.631052 91.77862 
L 114.88432 81.356247 
L 120.077283 81.356247 
L 126.330551 91.77862 
L 121.955434 91.77862 
L 120.89151 89.879988 
z
M 115.170204 87.945617 
L 119.795017 87.945617 
L 117.48623 83.799898 
L 115.170204 87.945617 
z
" clip-path="url(#p5cbcba7fd8)" style="fill: #008000"/>
   </g>
   <g id="patch_7">
    <path d="M 108.631052 53.263314 
L 126.330551 53.263314 
L 126.330551 58.742219 
L 119.962847 58.742219 
L 119.962847 81.356247 
L 115.011104 81.356247 
L 115.011104 58.742219 
L 108.631052 58.742219 
L 108.631052 53.263314 
z
" clip-path="url(#p5cbcba7fd8)" style="fill: #ff0000"/>
   </g>
   <g id="patch_8">
    <path d="M 139.522562 92.541429 
L 132.715619 92.541429 
L 131.640839 92.720842 
L 127.262104 92.720842 
L 133.515372 91.735972 
L 138.708335 91.735972 
L 144.961603 92.720842 
L 140.586486 92.720842 
L 139.522562 92.541429 
z
M 133.801256 92.358639 
L 138.426069 92.358639 
L 136.117281 91.966887 
L 133.801256 92.358639 
z
" clip-path="url(#p5cbcba7fd8)" style="fill: #008000"/>
   </g>
   <g id="patch_9">
    <path d="M 144.961603 91.283371 
Q 143.48107 91.507715 141.880133 91.621191 
Q 140.279195 91.735972 138.535556 91.735972 
Q 133.335855 91.735972 130.298979 90.885551 
Q 127.262104 90.03513 127.262104 88.580805 
Q 127.262104 87.121263 130.298979 86.272146 
Q 133.335855 85.421725 138.535556 85.421725 
Q 140.279195 85.421725 141.880133 85.536506 
Q 143.48107 85.649982 144.961603 85.874327 
L 144.961603 87.133002 
Q 143.467692 86.835616 142.018375 86.697357 
Q 140.569059 86.559098 138.968121 86.559098 
Q 136.096245 86.559098 134.450713 87.097785 
Q 132.809641 87.635168 132.809641 88.580805 
Q 132.809641 89.522529 134.450713 90.061216 
Q 136.096245 90.598599 138.968121 90.598599 
Q 140.569059 90.598599 142.018375 90.46034 
Q 143.467692 90.320777 144.961603 90.023391 
L 144.961603 91.283371 
z
" clip-path="url(#p5cbcba7fd8)" style="fill: #0000ff"/>
   </g>
   <g id="patch_10">
    <path d="M 127.262104 67.072255 
L 144.961603 67.072255 
L 144.961603 70.650913 
L 138.593899 70.650913 
L 138.593899 85.421725 
L 133.642156 85.421725 
L 133.642156 70.650913 
L 127.262104 70.650913 
L 127.262104 67.072255 
z
" clip-path="url(#p5cbcba7fd8)" style="fill: #ff0000"/>
   </g>
   <g id="patch_11">
    <path d="M 145.893155 73.347227 
L 163.592654 73.347227 
L 163.592654 77.125622 
L 157.224951 77.125622 
L 157.224951 92.720842 
L 152.273207 92.720842 
L 152.273207 77.125622 
L 145.893155 77.125622 
L 145.893155 73.347227 
z
" clip-path="url(#p5cbcba7fd8)" style="fill: #ff0000"/>
   </g>
   <g id="patch_12">
    <path d="M 176.784666 92.162082 
L 169.977723 92.162082 
L 168.902942 92.720842 
L 164.524207 92.720842 
L 170.777475 89.653582 
L 175.970438 89.653582 
L 182.223706 92.720842 
L 177.84859 92.720842 
L 176.784666 92.162082 
z
M 171.06336 91.592805 
L 175.688172 91.592805 
L 173.379385 90.372738 
L 171.06336 91.592805 
z
" clip-path="url(#p5cbcba7fd8)" style="fill: #008000"/>
   </g>
   <g id="patch_13">
    <path d="M 164.524207 73.687443 
L 182.223706 73.687443 
L 182.223706 76.801285 
L 175.856003 76.801285 
L 175.856003 89.653582 
L 170.904259 89.653582 
L 170.904259 76.801285 
L 164.524207 76.801285 
L 164.524207 73.687443 
z
" clip-path="url(#p5cbcba7fd8)" style="fill: #ff0000"/>
   </g>
   <g id="patch_14">
    <path d="M 183.155259 89.844153 
L 200.854758 89.844153 
L 200.854758 90.405187 
L 194.487054 90.405187 
L 194.487054 92.720842 
L 189.535311 92.720842 
L 189.535311 90.405187 
L 183.155259 90.405187 
L 183.155259 89.844153 
z
" clip-path="url(#p5cbcba7fd8)" style="fill: #ff0000"/>
   </g>
   <g id="patch_15">
    <path d="M 195.415717 89.057668 
L 188.608774 89.057668 
L 187.533994 89.844153 
L 183.155259 89.844153 
L 189.408527 85.526813 
L 194.60149 85.526813 
L 200.854758 89.844153 
L 196.479641 89.844153 
L 195.415717 89.057668 
z
M 189.694411 88.256379 
L 194.319224 88.256379 
L 192.010437 86.539066 
L 189.694411 88.256379 
z
" clip-path="url(#p5cbcba7fd8)" style="fill: #008000"/>
   </g>
   <g id="patch_16">
    <path d="M 201.786311 91.990003 
L 219.48581 91.990003 
L 219.48581 92.132537 
L 213.118106 92.132537 
L 213.118106 92.720842 
L 208.166363 92.720842 
L 208.166363 92.132537 
L 201.786311 92.132537 
L 201.786311 91.990003 
z
" clip-path="url(#p5cbcba7fd8)" style="fill: #ff0000"/>
   </g>
   <g id="patch_17">
    <path d="M 214.046769 91.722004 
L 207.239826 91.722004 
L 206.165046 91.990003 
L 201.786311 91.990003 
L 208.039579 90.518848 
L 213.232542 90.518848 
L 219.48581 91.990003 
L 215.110693 91.990003 
L 214.046769 91.722004 
z
M 208.325463 91.448961 
L 212.950276 91.448961 
L 210.641488 90.863778 
L 208.325463 91.448961 
z
" clip-path="url(#p5cbcba7fd8)" style="fill: #008000"/>
   </g>
   <g id="patch_18">
    <path d="M 220.417362 90.321485 
L 238.116861 90.321485 
L 238.116861 90.789426 
L 231.749158 90.789426 
L 231.749158 92.720842 
L 226.797414 92.720842 
L 226.797414 90.789426 
L 220.417362 90.789426 
L 220.417362 90.321485 
z
" clip-path="url(#p5cbcba7fd8)" style="fill: #ff0000"/>
   </g>
   <g id="patch_19">
    <path d="M 232.677821 89.714791 
L 225.870878 89.714791 
L 224.796097 90.321485 
L 220.417362 90.321485 
L 226.67063 86.991093 
L 231.863593 86.991093 
L 238.116861 90.321485 
L 233.741745 90.321485 
L 232.677821 89.714791 
z
M 226.956515 89.096677 
L 231.581328 89.096677 
L 229.27254 87.771943 
L 226.956515 89.096677 
z
" clip-path="url(#p5cbcba7fd8)" style="fill: #008000"/>
   </g>
   <g id="patch_20">
    <path d="M 239.048414 90.461146 
L 256.747913 90.461146 
L 256.747913 90.90185 
L 250.38021 90.90185 
L 250.38021 92.720842 
L 245.428466 92.720842 
L 245.428466 90.90185 
L 239.048414 90.90185 
L 239.048414 90.461146 
z
" clip-path="url(#p5cbcba7fd8)" style="fill: #ff0000"/>
   </g>
   <g id="patch_21">
    <path d="M 269.939924 92.353063 
L 263.132981 92.353063 
L 262.058201 92.720842 
L 257.679466 92.720842 
L 263.932734 90.701954 
L 269.125697 90.701954 
L 275.378965 92.720842 
L 271.003849 92.720842 
L 269.939924 92.353063 
z
M 264.218618 91.978362 
L 268.843431 91.978362 
L 266.534644 91.175306 
L 264.218618 91.978362 
z
" clip-path="url(#p5cbcba7fd8)" style="fill: #008000"/>
   </g>
   <g id="patch_22">
    <path d="M 257.679466 87.625298 
L 275.378965 87.625298 
L 275.378965 88.225331 
L 269.011261 88.225331 
L 269.011261 90.701954 
L 264.059518 90.701954 
L 264.059518 88.225331 
L 257.679466 88.225331 
L 257.679466 87.625298 
z
" clip-path="url(#p5cbcba7fd8)" style="fill: #ff0000"/>
   </g>
   <g id="patch_23">
    <path d="M 276.310518 83.577878 
L 294.010017 83.577878 
L 294.010017 85.361011 
L 287.642313 85.361011 
L 287.642313 92.720842 
L 282.69057 92.720842 
L 282.69057 85.361011 
L 276.310518 85.361011 
L 276.310518 83.577878 
z
" clip-path="url(#p5cbcba7fd8)" style="fill: #ff0000"/>
   </g>
   <g id="patch_24">
    <path d="M 294.941569 90.738907 
L 312.641068 90.738907 
L 312.641068 91.125439 
L 306.273365 91.125439 
L 306.273365 92.720842 
L 301.321621 92.720842 
L 301.321621 91.125439 
L 294.941569 91.125439 
L 294.941569 90.738907 
z
" clip-path="url(#p5cbcba7fd8)" style="fill: #ff0000"/>
   </g>
   <g id="patch_25">
    <path d="M 307.202028 90.292206 
L 300.395085 90.292206 
L 299.320305 90.738907 
L 294.941569 90.738907 
L 301.194837 88.286783 
L 306.3878 88.286783 
L 312.641068 90.738907 
L 308.265952 90.738907 
L 307.202028 90.292206 
z
M 301.480722 89.837097 
L 306.105535 89.837097 
L 303.796747 88.861713 
L 301.480722 89.837097 
z
" clip-path="url(#p5cbcba7fd8)" style="fill: #008000"/>
   </g>
   <g id="patch_26">
    <path d="M 313.572621 92.088567 
L 331.27212 92.088567 
L 331.27212 92.211878 
L 324.904417 92.211878 
L 324.904417 92.720842 
L 319.952673 92.720842 
L 319.952673 92.211878 
L 313.572621 92.211878 
L 313.572621 92.088567 
z
" clip-path="url(#p5cbcba7fd8)" style="fill: #ff0000"/>
   </g>
   <g id="patch_27">
    <path d="M 325.83308 91.22211 
L 319.026137 91.22211 
L 317.951356 92.088567 
L 313.572621 92.088567 
L 319.825889 87.332229 
L 325.018852 87.332229 
L 331.27212 92.088567 
L 326.897004 92.088567 
L 325.83308 91.22211 
z
M 320.111774 90.339344 
L 324.736586 90.339344 
L 322.427799 88.44741 
L 320.111774 90.339344 
z
" clip-path="url(#p5cbcba7fd8)" style="fill: #008000"/>
   </g>
   <g id="patch_28">
    <path d="M 344.464131 91.953907 
L 337.657188 91.953907 
L 336.582408 92.720842 
L 332.203673 92.720842 
L 338.456941 88.51082 
L 343.649904 88.51082 
L 349.903172 92.720842 
L 345.528056 92.720842 
L 344.464131 91.953907 
z
M 338.742825 91.172535 
L 343.367638 91.172535 
L 341.058851 89.49791 
L 338.742825 91.172535 
z
" clip-path="url(#p5cbcba7fd8)" style="fill: #008000"/>
   </g>
   <g id="patch_29">
    <path d="M 332.203673 74.807272 
L 349.903172 74.807272 
L 349.903172 77.479846 
L 343.535468 77.479846 
L 343.535468 88.51082 
L 338.583725 88.51082 
L 338.583725 77.479846 
L 332.203673 77.479846 
L 332.203673 74.807272 
z
" clip-path="url(#p5cbcba7fd8)" style="fill: #ff0000"/>
   </g>
   <g id="patch_30">
    <path d="M 363.095183 91.790994 
L 356.28824 91.790994 
L 355.21346 92.720842 
L 350.834725 92.720842 
L 357.087993 87.616523 
L 362.280956 87.616523 
L 368.534224 92.720842 
L 364.159107 92.720842 
L 363.095183 91.790994 
z
M 357.373877 90.843643 
L 361.99869 90.843643 
L 359.689902 88.813292 
L 357.373877 90.843643 
z
" clip-path="url(#p5cbcba7fd8)" style="fill: #008000"/>
   </g>
   <g id="patch_31">
    <path d="M 369.465776 90.958428 
L 387.165275 90.958428 
L 387.165275 91.302147 
L 380.797572 91.302147 
L 380.797572 92.720842 
L 375.845828 92.720842 
L 375.845828 91.302147 
L 369.465776 91.302147 
L 369.465776 90.958428 
z
" clip-path="url(#p5cbcba7fd8)" style="fill: #ff0000"/>
   </g>
   <g id="patch_32">
    <path d="M 381.726235 89.915346 
L 374.919292 89.915346 
L 373.844512 90.958428 
L 369.465776 90.958428 
L 375.719044 85.232523 
L 380.912007 85.232523 
L 387.165275 90.958428 
L 382.790159 90.958428 
L 381.726235 89.915346 
z
M 376.004929 88.85263 
L 380.629742 88.85263 
L 378.320954 86.575031 
L 376.004929 88.85263 
z
" clip-path="url(#p5cbcba7fd8)" style="fill: #008000"/>
   </g>
   <g id="patch_33">
    <path d="M 388.096828 91.626974 
L 405.796327 91.626974 
L 405.796327 91.840308 
L 399.428624 91.840308 
L 399.428624 92.720842 
L 394.47688 92.720842 
L 394.47688 91.840308 
L 388.096828 91.840308 
L 388.096828 91.626974 
z
" clip-path="url(#p5cbcba7fd8)" style="fill: #ff0000"/>
   </g>
   <g id="patch_34">
    <path d="M 400.357287 91.123633 
L 393.550344 91.123633 
L 392.475563 91.626974 
L 388.096828 91.626974 
L 394.350096 88.86393 
L 399.543059 88.86393 
L 405.796327 91.626974 
L 401.421211 91.626974 
L 400.357287 91.123633 
z
M 394.635981 90.610818 
L 399.260793 90.610818 
L 396.952006 89.511759 
L 394.635981 90.610818 
z
" clip-path="url(#p5cbcba7fd8)" style="fill: #008000"/>
   </g>
   <g id="patch_35">
    <path d="M 443.989983 92.406293 
L 461.689482 92.406293 
L 461.689482 92.467638 
L 455.321779 92.467638 
L 455.321779 92.720842 
L 450.370035 92.720842 
L 450.370035 92.467638 
L 443.989983 92.467638 
L 443.989983 92.406293 
z
" clip-path="url(#p5cbcba7fd8)" style="fill: #ff0000"/>
   </g>
   <g id="patch_36">
    <path d="M 481.252087 92.479036 
L 498.951586 92.479036 
L 498.951586 92.526195 
L 492.583882 92.526195 
L 492.583882 92.720842 
L 487.632139 92.720842 
L 487.632139 92.526195 
L 481.252087 92.526195 
L 481.252087 92.479036 
z
" clip-path="url(#p5cbcba7fd8)" style="fill: #ff0000"/>
   </g>
   <g id="patch_37">
    <path d="M 517.582638 92.694408 
Q 516.102105 92.707511 514.501168 92.714138 
Q 512.900231 92.720842 511.156591 92.720842 
Q 505.95689 92.720842 502.920014 92.671174 
Q 499.883139 92.621507 499.883139 92.53657 
Q 499.883139 92.451328 502.920014 92.401736 
Q 505.95689 92.352069 511.156591 92.352069 
Q 512.900231 92.352069 514.501168 92.358773 
Q 516.102105 92.3654 517.582638 92.378502 
L 517.582638 92.452013 
Q 516.088727 92.434645 514.63941 92.42657 
Q 513.190094 92.418495 511.589157 92.418495 
Q 508.71728 92.418495 507.071748 92.449956 
Q 505.430676 92.481341 505.430676 92.53657 
Q 505.430676 92.591569 507.071748 92.62303 
Q 508.71728 92.654415 511.589157 92.654415 
Q 513.190094 92.654415 514.63941 92.646341 
Q 516.088727 92.63819 517.582638 92.620821 
L 517.582638 92.694408 
z
" clip-path="url(#p5cbcba7fd8)" style="fill: #0000ff"/>
   </g>
   <g id="patch_38">
    <path d="M 518.51419 91.291772 
L 536.213689 91.291772 
L 536.213689 91.57048 
L 529.845986 91.57048 
L 529.845986 92.720842 
L 524.894242 92.720842 
L 524.894242 91.57048 
L 518.51419 91.57048 
L 518.51419 91.291772 
z
" clip-path="url(#p5cbcba7fd8)" style="fill: #ff0000"/>
   </g>
   <g id="patch_39">
    <path d="M 530.774649 90.976309 
L 523.967706 90.976309 
L 522.892926 91.291772 
L 518.51419 91.291772 
L 524.767458 89.560068 
L 529.960421 89.560068 
L 536.213689 91.291772 
L 531.838573 91.291772 
L 530.774649 90.976309 
z
M 525.053343 90.654909 
L 529.678156 90.654909 
L 527.369368 89.966087 
L 525.053343 90.654909 
z
" clip-path="url(#p5cbcba7fd8)" style="fill: #008000"/>
   </g>
   <g id="patch_40">
    <path d="M 537.145242 78.224871 
L 554.844741 78.224871 
L 554.844741 81.051989 
L 548.477038 81.051989 
L 548.477038 92.720842 
L 543.525294 92.720842 
L 543.525294 81.051989 
L 537.145242 81.051989 
L 537.145242 78.224871 
z
" clip-path="url(#p5cbcba7fd8)" style="fill: #ff0000"/>
   </g>
   <g id="patch_41">
    <path d="M 555.776294 89.068718 
L 573.475793 89.068718 
L 573.475793 89.780984 
L 567.108089 89.780984 
L 567.108089 92.720842 
L 562.156346 92.720842 
L 562.156346 89.780984 
L 555.776294 89.780984 
L 555.776294 89.068718 
z
" clip-path="url(#p5cbcba7fd8)" style="fill: #ff0000"/>
   </g>
   <g id="patch_42">
    <path d="M 568.036752 87.498791 
L 561.22981 87.498791 
L 560.155029 89.068718 
L 555.776294 89.068718 
L 562.029562 80.450744 
L 567.222525 80.450744 
L 573.475793 89.068718 
L 569.100677 89.068718 
L 568.036752 87.498791 
z
M 562.315446 85.899313 
L 566.940259 85.899313 
L 564.631472 82.471332 
L 562.315446 85.899313 
z
" clip-path="url(#p5cbcba7fd8)" style="fill: #008000"/>
   </g>
   <g id="patch_43">
    <path d="M 586.667804 92.617377 
L 579.860861 92.617377 
L 578.786081 92.720842 
L 574.407346 92.720842 
L 580.660614 92.152883 
L 585.853577 92.152883 
L 592.106845 92.720842 
L 587.731728 92.720842 
L 586.667804 92.617377 
z
M 580.946498 92.511965 
L 585.571311 92.511965 
L 583.262523 92.286048 
L 580.946498 92.511965 
z
" clip-path="url(#p5cbcba7fd8)" style="fill: #008000"/>
   </g>
   <g id="patch_44">
    <path d="M 574.407346 66.314812 
L 592.106845 66.314812 
L 592.106845 71.353956 
L 585.739141 71.353956 
L 585.739141 92.152883 
L 580.787398 92.152883 
L 580.787398 71.353956 
L 574.407346 71.353956 
L 574.407346 66.314812 
z
" clip-path="url(#p5cbcba7fd8)" style="fill: #ff0000"/>
   </g>
   <g id="patch_45">
    <path d="M 593.038397 79.158937 
L 610.737896 79.158937 
L 610.737896 81.803886 
L 604.370193 81.803886 
L 604.370193 92.720842 
L 599.418449 92.720842 
L 599.418449 81.803886 
L 593.038397 81.803886 
L 593.038397 79.158937 
z
" clip-path="url(#p5cbcba7fd8)" style="fill: #ff0000"/>
   </g>
   <g id="patch_46">
    <path d="M 605.298856 75.219944 
L 598.491913 75.219944 
L 597.417133 79.158937 
L 593.038397 79.158937 
L 599.291665 57.536186 
L 604.484628 57.536186 
L 610.737896 79.158937 
L 606.36278 79.158937 
L 605.298856 75.219944 
z
M 599.57755 71.206806 
L 604.202363 71.206806 
L 601.893575 62.605901 
L 599.57755 71.206806 
z
" clip-path="url(#p5cbcba7fd8)" style="fill: #008000"/>
   </g>
   <g id="patch_47">
    <path d="M 623.929908 90.592147 
L 617.122965 90.592147 
L 616.048184 92.720842 
L 611.669449 92.720842 
L 617.922717 81.035558 
L 623.11568 81.035558 
L 629.368948 92.720842 
L 624.993832 92.720842 
L 623.929908 90.592147 
z
M 618.208602 88.423382 
L 622.833415 88.423382 
L 620.524627 83.775314 
L 618.208602 88.423382 
z
" clip-path="url(#p5cbcba7fd8)" style="fill: #008000"/>
   </g>
   <g id="patch_48">
    <path d="M 611.669449 60.74518 
L 629.368948 60.74518 
L 629.368948 64.702369 
L 623.001245 64.702369 
L 623.001245 81.035558 
L 618.049501 81.035558 
L 618.049501 64.702369 
L 611.669449 64.702369 
L 611.669449 60.74518 
z
" clip-path="url(#p5cbcba7fd8)" style="fill: #ff0000"/>
   </g>
   <g id="patch_49">
    <path d="M 642.560959 92.544843 
L 635.754017 92.544843 
L 634.679236 92.720842 
L 630.300501 92.720842 
L 636.553769 91.754714 
L 641.746732 91.754714 
L 648 92.720842 
L 643.624884 92.720842 
L 642.560959 92.544843 
z
M 636.839653 92.365532 
L 641.464466 92.365532 
L 639.155679 91.981234 
L 636.839653 92.365532 
z
" clip-path="url(#p5cbcba7fd8)" style="fill: #008000"/>
   </g>
   <g id="patch_50">
    <path d="M 630.300501 23.958161 
L 648 23.958161 
L 648 37.180378 
L 641.632296 37.180378 
L 641.632296 91.754714 
L 636.680553 91.754714 
L 636.680553 37.180378 
L 630.300501 37.180378 
L 630.300501 23.958161 
z
" clip-path="url(#p5cbcba7fd8)" style="fill: #ff0000"/>
   </g>
   <g id="patch_51">
    <path d="M 107.699499 93.127159 
Q 106.218967 92.925757 104.618029 92.823885 
Q 103.017092 92.720842 101.273453 92.720842 
Q 96.073751 92.720842 93.036876 93.484296 
Q 90 94.247751 90 95.553352 
Q 90 96.863637 93.036876 97.62592 
Q 96.073751 98.389375 101.273453 98.389375 
Q 103.017092 98.389375 104.618029 98.286332 
Q 106.218967 98.18446 107.699499 97.983058 
L 107.699499 96.853098 
Q 106.205588 97.120073 104.756272 97.244193 
Q 103.306955 97.368313 101.706018 97.368313 
Q 98.834142 97.368313 97.18861 96.884713 
Q 95.547538 96.402285 95.547538 95.553352 
Q 95.547538 94.707931 97.18861 94.224332 
Q 98.834142 93.741904 101.706018 93.741904 
Q 103.306955 93.741904 104.756272 93.866023 
Q 106.205588 93.991314 107.699499 94.258289 
L 107.699499 93.127159 
z
" clip-path="url(#p5cbcba7fd8)" style="fill: #0000ff"/>
   </g>
   <g id="patch_52">
    <path d="M 126.330551 93.361957 
Q 124.545527 93.041399 122.625636 92.880389 
Q 120.705744 92.720842 118.658917 92.720842 
Q 114.033723 92.720842 111.332387 93.675196 
Q 108.631052 94.62955 108.631052 96.261613 
Q 108.631052 97.912705 111.379988 98.85974 
Q 114.132891 99.806776 118.92072 99.806776 
Q 120.765244 99.806776 122.455067 99.677967 
Q 124.148856 99.550623 125.648275 99.29886 
L 125.648275 97.886358 
Q 124.101255 98.209843 122.570102 98.36939 
Q 121.038948 98.5304 119.499861 98.5304 
Q 116.651757 98.5304 115.108704 97.941979 
Q 113.56565 97.355022 113.56565 96.261613 
Q 113.56565 95.17845 115.053169 94.587102 
Q 116.540689 93.997217 119.277725 93.997217 
Q 120.023468 93.997217 120.66211 94.030883 
Q 121.300752 94.066013 121.808492 94.1392 
L 121.808492 95.465342 
L 118.892953 95.465342 
L 118.892953 96.646575 
L 126.330551 96.646575 
L 126.330551 93.361957 
z
" clip-path="url(#p5cbcba7fd8)" style="fill: #ffa600"/>
   </g>
   <g id="patch_53">
    <path d="M 144.961603 94.657801 
Q 143.176579 93.689322 141.256687 93.20287 
Q 139.336795 92.720842 137.289969 92.720842 
Q 132.664774 92.720842 129.963439 95.60417 
Q 127.262104 98.487498 127.262104 103.418344 
Q 127.262104 108.406679 130.01104 111.267895 
Q 132.763942 114.129112 137.551772 114.129112 
Q 139.396296 114.129112 141.086118 113.739952 
Q 142.779907 113.355213 144.279327 112.59458 
L 144.279327 108.327077 
Q 142.732307 109.304402 141.201153 109.786431 
Q 139.67 110.272882 138.130913 110.272882 
Q 135.282809 110.272882 133.739755 108.495124 
Q 132.196702 106.721789 132.196702 103.418344 
Q 132.196702 100.145854 133.684221 98.359252 
Q 135.171741 96.577072 137.908777 96.577072 
Q 138.65452 96.577072 139.293162 96.678785 
Q 139.931803 96.784919 140.439543 97.006034 
L 140.439543 101.012622 
L 137.524005 101.012622 
L 137.524005 104.581404 
L 144.961603 104.581404 
L 144.961603 94.657801 
z
" clip-path="url(#p5cbcba7fd8)" style="fill: #ffa600"/>
   </g>
   <g id="patch_54">
    <path d="M 163.592654 98.586825 
Q 162.112122 98.375831 160.511185 98.269107 
Q 158.910247 98.161156 157.166608 98.161156 
Q 151.966906 98.161156 148.930031 98.960973 
Q 145.893155 99.76079 145.893155 101.128576 
Q 145.893155 102.501268 148.930031 103.299859 
Q 151.966906 104.099676 157.166608 104.099676 
Q 158.910247 104.099676 160.511185 103.991725 
Q 162.112122 103.885001 163.592654 103.674007 
L 163.592654 102.490228 
Q 162.098744 102.769919 160.649427 102.89995 
Q 159.200111 103.029982 157.599173 103.029982 
Q 154.727297 103.029982 153.081765 102.523349 
Q 151.440693 102.017943 151.440693 101.128576 
Q 151.440693 100.242889 153.081765 99.736256 
Q 154.727297 99.23085 157.599173 99.23085 
Q 159.200111 99.23085 160.649427 99.360882 
Q 162.098744 99.49214 163.592654 99.771831 
L 163.592654 98.586825 
z
" clip-path="url(#p5cbcba7fd8)" style="fill: #0000ff"/>
   </g>
   <g id="patch_55">
    <path d="M 163.592654 93.213066 
Q 161.807631 92.966954 159.887739 92.843336 
Q 157.967847 92.720842 155.92102 92.720842 
Q 151.295826 92.720842 148.594491 93.453559 
Q 145.893155 94.186276 145.893155 95.439313 
Q 145.893155 96.706959 148.642091 97.434057 
Q 151.394994 98.161156 156.182824 98.161156 
Q 158.027348 98.161156 159.71717 98.062261 
Q 161.410959 97.964491 162.910379 97.771197 
L 162.910379 96.686731 
Q 161.363358 96.93509 159.832205 97.057584 
Q 158.301052 97.181202 156.761965 97.181202 
Q 153.913861 97.181202 152.370807 96.729435 
Q 150.827753 96.278791 150.827753 95.439313 
Q 150.827753 94.607701 152.315273 94.153686 
Q 153.802792 93.700795 156.539828 93.700795 
Q 157.285572 93.700795 157.924213 93.726642 
Q 158.562855 93.753614 159.070595 93.809803 
L 159.070595 94.827966 
L 156.155057 94.827966 
L 156.155057 95.734872 
L 163.592654 95.734872 
L 163.592654 93.213066 
z
" clip-path="url(#p5cbcba7fd8)" style="fill: #ffa600"/>
   </g>
   <g id="patch_56">
    <path d="M 182.223706 96.379478 
Q 180.743174 96.182238 179.142236 96.082471 
Q 177.541299 95.981558 175.79766 95.981558 
Q 170.597958 95.981558 167.561083 96.729234 
Q 164.524207 97.476911 164.524207 98.755529 
Q 164.524207 100.038735 167.561083 100.785264 
Q 170.597958 101.532941 175.79766 101.532941 
Q 177.541299 101.532941 179.142236 101.432027 
Q 180.743174 101.332261 182.223706 101.135021 
L 182.223706 100.028414 
Q 180.729795 100.289871 179.280479 100.411426 
Q 177.831162 100.532981 176.230225 100.532981 
Q 173.358349 100.532981 171.712817 100.059376 
Q 170.071745 99.586918 170.071745 98.755529 
Q 170.071745 97.927581 171.712817 97.453976 
Q 173.358349 96.981518 176.230225 96.981518 
Q 177.831162 96.981518 179.280479 97.103073 
Q 180.729795 97.225774 182.223706 97.487231 
L 182.223706 96.379478 
z
" clip-path="url(#p5cbcba7fd8)" style="fill: #0000ff"/>
   </g>
   <g id="patch_57">
    <path d="M 182.223706 93.015862 
Q 180.438683 92.868352 178.518791 92.79426 
Q 176.598899 92.720842 174.552072 92.720842 
Q 169.926878 92.720842 167.225542 93.160004 
Q 164.524207 93.599167 164.524207 94.350189 
Q 164.524207 95.109968 167.273143 95.545763 
Q 170.026046 95.981558 174.813876 95.981558 
Q 176.6584 95.981558 178.348222 95.922285 
Q 180.042011 95.863685 181.541431 95.747832 
L 181.541431 95.097844 
Q 179.99441 95.246701 178.463257 95.32012 
Q 176.932103 95.394211 175.393016 95.394211 
Q 172.544912 95.394211 171.001859 95.123439 
Q 169.458805 94.853341 169.458805 94.350189 
Q 169.458805 93.851753 170.946325 93.579634 
Q 172.433844 93.308188 175.17088 93.308188 
Q 175.916623 93.308188 176.555265 93.32368 
Q 177.193907 93.339846 177.701647 93.373524 
L 177.701647 93.983771 
L 174.786108 93.983771 
L 174.786108 94.527336 
L 182.223706 94.527336 
L 182.223706 93.015862 
z
" clip-path="url(#p5cbcba7fd8)" style="fill: #ffa600"/>
   </g>
   <g id="patch_58">
    <path d="M 200.854758 93.425831 
Q 199.374225 93.076384 197.773288 92.899628 
Q 196.172351 92.720842 194.428711 92.720842 
Q 189.22901 92.720842 186.192134 94.045489 
Q 183.155259 95.370137 183.155259 97.635448 
Q 183.155259 99.908885 186.192134 101.231501 
Q 189.22901 102.556149 194.428711 102.556149 
Q 196.172351 102.556149 197.773288 102.377362 
Q 199.374225 102.200607 200.854758 101.85116 
L 200.854758 99.8906 
Q 199.360847 100.35382 197.911531 100.569177 
Q 196.462214 100.784534 194.861277 100.784534 
Q 191.9894 100.784534 190.343869 99.945455 
Q 188.702796 99.108407 188.702796 97.635448 
Q 188.702796 96.168583 190.343869 95.329504 
Q 191.9894 94.492457 194.861277 94.492457 
Q 196.462214 94.492457 197.911531 94.707813 
Q 199.360847 94.925202 200.854758 95.388422 
L 200.854758 93.425831 
z
" clip-path="url(#p5cbcba7fd8)" style="fill: #0000ff"/>
   </g>
   <g id="patch_59">
    <path d="M 200.854758 104.704102 
Q 199.069734 103.630126 197.149843 103.090685 
Q 195.229951 102.556149 193.183124 102.556149 
Q 188.55793 102.556149 185.856594 105.753559 
Q 183.155259 108.95097 183.155259 114.418934 
Q 183.155259 119.95065 185.904195 123.12354 
Q 188.657098 126.296431 193.444927 126.296431 
Q 195.289451 126.296431 196.979274 125.864878 
Q 198.673063 125.43823 200.172482 124.594741 
L 200.172482 119.862378 
Q 198.625462 120.946163 197.094309 121.480699 
Q 195.563155 122.020139 194.024068 122.020139 
Q 191.175964 122.020139 189.632911 120.04873 
Q 188.089857 118.082224 188.089857 114.418934 
Q 188.089857 110.789971 189.577376 108.808753 
Q 191.064896 106.83244 193.801932 106.83244 
Q 194.547675 106.83244 195.186317 106.945232 
Q 195.824959 107.062928 196.332699 107.308128 
L 196.332699 111.751156 
L 193.41716 111.751156 
L 193.41716 115.708687 
L 200.854758 115.708687 
L 200.854758 104.704102 
z
" clip-path="url(#p5cbcba7fd8)" style="fill: #ffa600"/>
   </g>
   <g id="patch_60">
    <path d="M 219.48581 92.732835 
Q 218.005277 92.72689 216.40434 92.723883 
Q 214.803402 92.720842 213.059763 92.720842 
Q 207.860062 92.720842 204.823186 92.743376 
Q 201.786311 92.76591 201.786311 92.804446 
Q 201.786311 92.843121 204.823186 92.86562 
Q 207.860062 92.888154 213.059763 92.888154 
Q 214.803402 92.888154 216.40434 92.885113 
Q 218.005277 92.882106 219.48581 92.876161 
L 219.48581 92.84281 
Q 217.991899 92.85069 216.542582 92.854353 
Q 215.093266 92.858017 213.492328 92.858017 
Q 210.620452 92.858017 208.97492 92.843743 
Q 207.333848 92.829503 207.333848 92.804446 
Q 207.333848 92.779493 208.97492 92.765219 
Q 210.620452 92.750979 213.492328 92.750979 
Q 215.093266 92.750979 216.542582 92.754643 
Q 217.991899 92.758341 219.48581 92.766221 
L 219.48581 92.732835 
z
" clip-path="url(#p5cbcba7fd8)" style="fill: #0000ff"/>
   </g>
   <g id="patch_61">
    <path d="M 219.48581 94.656125 
Q 217.700786 93.77214 215.780894 93.328129 
Q 213.861002 92.888154 211.814176 92.888154 
Q 207.188981 92.888154 204.487646 95.519928 
Q 201.786311 98.151701 201.786311 102.652356 
Q 201.786311 107.205485 204.535247 109.817076 
Q 207.288149 112.428667 212.075979 112.428667 
Q 213.920503 112.428667 215.610325 112.073458 
Q 217.304114 111.722286 218.803534 111.028015 
L 218.803534 107.132829 
Q 217.256514 108.024887 215.72536 108.464861 
Q 214.194207 108.908872 212.65512 108.908872 
Q 209.807016 108.908872 208.263962 107.286214 
Q 206.720909 105.667593 206.720909 102.652356 
Q 206.720909 99.665374 208.208428 98.034643 
Q 209.695948 96.407949 212.432984 96.407949 
Q 213.178727 96.407949 213.817369 96.500788 
Q 214.45601 96.597663 214.96375 96.799486 
L 214.96375 100.456521 
L 212.048212 100.456521 
L 212.048212 103.713946 
L 219.48581 103.713946 
L 219.48581 94.656125 
z
" clip-path="url(#p5cbcba7fd8)" style="fill: #ffa600"/>
   </g>
   <g id="patch_62">
    <path d="M 238.116861 93.083373 
Q 236.636329 92.903674 235.035392 92.81278 
Q 233.434454 92.720842 231.690815 92.720842 
Q 226.491113 92.720842 223.454238 93.402024 
Q 220.417362 94.083206 220.417362 95.248111 
Q 220.417362 96.417195 223.454238 97.097332 
Q 226.491113 97.778514 231.690815 97.778514 
Q 233.434454 97.778514 235.035392 97.686575 
Q 236.636329 97.595681 238.116861 97.415983 
L 238.116861 96.407792 
Q 236.622951 96.645997 235.173634 96.756741 
Q 233.724318 96.867485 232.12338 96.867485 
Q 229.251504 96.867485 227.605972 96.436 
Q 225.9649 96.00556 225.9649 95.248111 
Q 225.9649 94.493796 227.605972 94.062311 
Q 229.251504 93.63187 232.12338 93.63187 
Q 233.724318 93.63187 235.173634 93.742615 
Q 236.622951 93.854404 238.116861 94.092609 
L 238.116861 93.083373 
z
" clip-path="url(#p5cbcba7fd8)" style="fill: #0000ff"/>
   </g>
   <g id="patch_63">
    <path d="M 238.116861 102.072781 
Q 236.331838 99.925648 234.411946 98.847179 
Q 232.492054 97.778514 230.445227 97.778514 
Q 225.820033 97.778514 223.118698 104.170894 
Q 220.417362 110.563273 220.417362 121.495027 
Q 220.417362 132.554236 223.166298 138.897594 
Q 225.919201 145.240952 230.707031 145.240952 
Q 232.551555 145.240952 234.241377 144.378177 
Q 235.935166 143.525206 237.434586 141.838873 
L 237.434586 132.377759 
Q 235.887565 134.544501 234.356412 135.613166 
Q 232.825259 136.691635 231.286172 136.691635 
Q 228.438068 136.691635 226.895014 132.750321 
Q 225.35196 128.818811 225.35196 121.495027 
Q 225.35196 114.239872 226.83948 110.27895 
Q 228.327 106.327832 231.064035 106.327832 
Q 231.809779 106.327832 232.44842 106.55333 
Q 233.087062 106.788632 233.594802 107.278845 
L 233.594802 116.161508 
L 230.679264 116.161508 
L 230.679264 124.073548 
L 238.116861 124.073548 
L 238.116861 102.072781 
z
" clip-path="url(#p5cbcba7fd8)" style="fill: #ffa600"/>
   </g>
   <g id="patch_64">
    <path d="M 256.747913 99.776311 
Q 255.267381 98.164959 253.666443 97.349914 
Q 252.065506 96.525501 250.321867 96.525501 
Q 245.122165 96.525501 242.08529 102.633652 
Q 239.048414 108.741803 239.048414 119.18749 
Q 239.048414 129.670651 242.08529 135.769433 
Q 245.122165 141.877584 250.321867 141.877584 
Q 252.065506 141.877584 253.666443 141.053171 
Q 255.267381 140.238126 256.747913 138.626774 
L 256.747913 129.586336 
Q 255.254002 131.722315 253.804686 132.715358 
Q 252.355369 133.708401 250.754432 133.708401 
Q 247.882556 133.708401 246.237024 129.839281 
Q 244.595952 125.979529 244.595952 119.18749 
Q 244.595952 112.423556 246.237024 108.554436 
Q 247.882556 104.694684 250.754432 104.694684 
Q 252.355369 104.694684 253.804686 105.687727 
Q 255.254002 106.690138 256.747913 108.826118 
L 256.747913 99.776311 
z
" clip-path="url(#p5cbcba7fd8)" style="fill: #0000ff"/>
   </g>
   <g id="patch_65">
    <path d="M 256.747913 93.065076 
Q 254.96289 92.892959 253.042998 92.806507 
Q 251.123106 92.720842 249.076279 92.720842 
Q 244.451085 92.720842 241.74975 93.233264 
Q 239.048414 93.745687 239.048414 94.621992 
Q 239.048414 95.508515 241.79735 96.017008 
Q 244.550253 96.525501 249.338083 96.525501 
Q 251.182607 96.525501 252.872429 96.45634 
Q 254.566218 96.387964 256.065638 96.252785 
L 256.065638 95.494368 
Q 254.518617 95.668058 252.987464 95.753723 
Q 251.45631 95.840175 249.917223 95.840175 
Q 247.069119 95.840175 245.526066 95.524234 
Q 243.983012 95.209078 243.983012 94.621992 
Q 243.983012 94.040408 245.470532 93.722895 
Q 246.958051 93.406168 249.695087 93.406168 
Q 250.44083 93.406168 251.079472 93.424244 
Q 251.718114 93.443106 252.225854 93.482402 
L 252.225854 94.19445 
L 249.310315 94.19445 
L 249.310315 94.828691 
L 256.747913 94.828691 
L 256.747913 93.065076 
z
" clip-path="url(#p5cbcba7fd8)" style="fill: #ffa600"/>
   </g>
   <g id="patch_66">
    <path d="M 275.378965 93.128807 
Q 273.898432 92.926588 272.297495 92.824303 
Q 270.696558 92.720842 268.952919 92.720842 
Q 263.753217 92.720842 260.716341 93.487393 
Q 257.679466 94.253944 257.679466 95.56484 
Q 257.679466 96.880439 260.716341 97.645815 
Q 263.753217 98.412366 268.952919 98.412366 
Q 270.696558 98.412366 272.297495 98.308905 
Q 273.898432 98.20662 275.378965 98.004401 
L 275.378965 96.869858 
Q 273.885054 97.137916 272.435738 97.262539 
Q 270.986421 97.387163 269.385484 97.387163 
Q 266.513607 97.387163 264.868076 96.901602 
Q 263.227003 96.417217 263.227003 95.56484 
Q 263.227003 94.715991 264.868076 94.23043 
Q 266.513607 93.746045 269.385484 93.746045 
Q 270.986421 93.746045 272.435738 93.870668 
Q 273.885054 93.996467 275.378965 94.264525 
L 275.378965 93.128807 
z
" clip-path="url(#p5cbcba7fd8)" style="fill: #0000ff"/>
   </g>
   <g id="patch_67">
    <path d="M 275.378965 104.304781 
Q 273.593941 101.358574 271.67405 99.878743 
Q 269.754158 98.412366 267.707331 98.412366 
Q 263.082137 98.412366 260.380801 107.183724 
Q 257.679466 115.955083 257.679466 130.955181 
Q 257.679466 146.130169 260.428402 154.834263 
Q 263.181305 163.538356 267.969134 163.538356 
Q 269.813659 163.538356 271.503481 162.354492 
Q 273.19727 161.18408 274.696689 158.870164 
L 274.696689 145.888015 
Q 273.149669 148.861129 271.618516 150.327507 
Q 270.087362 151.807337 268.548275 151.807337 
Q 265.700171 151.807337 264.157118 146.39923 
Q 262.614064 141.004575 262.614064 130.955181 
Q 262.614064 120.999959 264.101583 115.564945 
Q 265.589103 110.143385 268.326139 110.143385 
Q 269.071882 110.143385 269.710524 110.452804 
Q 270.349166 110.775676 270.856906 111.448326 
L 270.856906 123.636748 
L 267.941367 123.636748 
L 267.941367 134.493321 
L 275.378965 134.493321 
L 275.378965 104.304781 
z
" clip-path="url(#p5cbcba7fd8)" style="fill: #ffa600"/>
   </g>
   <g id="patch_68">
    <path d="M 288.570976 92.820164 
L 281.764033 92.820164 
L 280.689253 92.720842 
L 276.310518 92.720842 
L 282.563786 93.266063 
L 287.756749 93.266063 
L 294.010017 92.720842 
L 289.6349 92.720842 
L 288.570976 92.820164 
z
M 282.84967 92.921356 
L 287.474483 92.921356 
L 285.165695 93.138229 
L 282.84967 92.921356 
z
" clip-path="url(#p5cbcba7fd8)" style="fill: #008000"/>
   </g>
   <g id="patch_69">
    <path d="M 294.010017 93.667697 
Q 292.529484 93.468616 290.928547 93.367918 
Q 289.32761 93.266063 287.58397 93.266063 
Q 282.384269 93.266063 279.347393 94.020719 
Q 276.310518 94.775376 276.310518 96.065931 
Q 276.310518 97.361115 279.347393 98.114614 
Q 282.384269 98.869271 287.58397 98.869271 
Q 289.32761 98.869271 290.928547 98.767415 
Q 292.529484 98.666717 294.010017 98.467636 
L 294.010017 97.350698 
Q 292.516106 97.614597 291.066789 97.737286 
Q 289.617473 97.859976 288.016535 97.859976 
Q 285.144659 97.859976 283.499127 97.381949 
Q 281.858055 96.905081 281.858055 96.065931 
Q 281.858055 95.230253 283.499127 94.752227 
Q 285.144659 94.275358 288.016535 94.275358 
Q 289.617473 94.275358 291.066789 94.398047 
Q 292.516106 94.521894 294.010017 94.785793 
L 294.010017 93.667697 
z
" clip-path="url(#p5cbcba7fd8)" style="fill: #0000ff"/>
   </g>
   <g id="patch_70">
    <path d="M 294.010017 100.380274 
Q 292.224993 99.624773 290.305101 99.245297 
Q 288.385209 98.869271 286.338383 98.869271 
Q 281.713188 98.869271 279.011853 101.118527 
Q 276.310518 103.367784 276.310518 107.214288 
Q 276.310518 111.10564 279.059454 113.337647 
Q 281.812356 115.569655 286.600186 115.569655 
Q 288.44471 115.569655 290.134532 115.266074 
Q 291.828321 114.965943 293.327741 114.372581 
L 293.327741 111.043544 
Q 291.780721 111.805945 290.249567 112.181971 
Q 288.718414 112.561447 287.179327 112.561447 
Q 284.331223 112.561447 282.788169 111.174635 
Q 281.245116 109.791274 281.245116 107.214288 
Q 281.245116 104.661451 282.732635 103.26774 
Q 284.220155 101.877479 286.957191 101.877479 
Q 287.702934 101.877479 288.341576 101.956824 
Q 288.980217 102.039618 289.487957 102.212107 
L 289.487957 105.337608 
L 286.572419 105.337608 
L 286.572419 108.12158 
L 294.010017 108.12158 
L 294.010017 100.380274 
z
" clip-path="url(#p5cbcba7fd8)" style="fill: #ffa600"/>
   </g>
   <g id="patch_71">
    <path d="M 312.641068 92.912691 
Q 311.160536 92.817596 309.559599 92.769495 
Q 307.958661 92.720842 306.215022 92.720842 
Q 301.01532 92.720842 297.978445 93.08132 
Q 294.941569 93.441799 294.941569 94.058262 
Q 294.941569 94.676936 297.978445 95.036862 
Q 301.01532 95.39734 306.215022 95.39734 
Q 307.958661 95.39734 309.559599 95.348687 
Q 311.160536 95.300586 312.641068 95.20549 
L 312.641068 94.67196 
Q 311.147158 94.798017 309.697841 94.856622 
Q 308.248525 94.915228 306.647587 94.915228 
Q 303.775711 94.915228 302.130179 94.686888 
Q 300.489107 94.459101 300.489107 94.058262 
Q 300.489107 93.659081 302.130179 93.430741 
Q 303.775711 93.202954 306.647587 93.202954 
Q 308.248525 93.202954 309.697841 93.26156 
Q 311.147158 93.320718 312.641068 93.446775 
L 312.641068 92.912691 
z
" clip-path="url(#p5cbcba7fd8)" style="fill: #0000ff"/>
   </g>
   <g id="patch_72">
    <path d="M 312.641068 97.958067 
Q 310.856045 96.677704 308.936153 96.034599 
Q 307.016261 95.39734 304.969434 95.39734 
Q 300.34424 95.39734 297.642905 99.209198 
Q 294.941569 103.021057 294.941569 109.539802 
Q 294.941569 116.13455 297.690505 119.917177 
Q 300.443408 123.699803 305.231238 123.699803 
Q 307.075762 123.699803 308.765584 123.185319 
Q 310.459373 122.676681 311.958793 121.671099 
L 311.958793 116.029315 
Q 310.411772 117.321371 308.880619 117.95863 
Q 307.349466 118.601735 305.810379 118.601735 
Q 302.962275 118.601735 301.419221 116.251479 
Q 299.876167 113.907069 299.876167 109.539802 
Q 299.876167 105.21346 301.363687 102.851511 
Q 302.851207 100.495408 305.588242 100.495408 
Q 306.333986 100.495408 306.972627 100.629876 
Q 307.611269 100.770189 308.119009 101.06251 
L 308.119009 106.359356 
L 305.203471 106.359356 
L 305.203471 111.077407 
L 312.641068 111.077407 
L 312.641068 97.958067 
z
" clip-path="url(#p5cbcba7fd8)" style="fill: #ffa600"/>
   </g>
   <g id="patch_73">
    <path d="M 331.27212 93.287766 
Q 329.791588 93.006755 328.19065 92.864615 
Q 326.589713 92.720842 324.846074 92.720842 
Q 319.646372 92.720842 316.609497 93.786071 
Q 313.572621 94.851301 313.572621 96.672975 
Q 313.572621 98.501184 316.609497 99.56478 
Q 319.646372 100.63001 324.846074 100.63001 
Q 326.589713 100.63001 328.19065 100.486236 
Q 329.791588 100.344097 331.27212 100.063085 
L 331.27212 98.48648 
Q 329.778209 98.858983 328.328893 99.032165 
Q 326.879576 99.205346 325.278639 99.205346 
Q 322.406763 99.205346 320.761231 98.530592 
Q 319.120159 97.857471 319.120159 96.672975 
Q 319.120159 95.49338 320.761231 94.818625 
Q 322.406763 94.145505 325.278639 94.145505 
Q 326.879576 94.145505 328.328893 94.318686 
Q 329.778209 94.493502 331.27212 94.866005 
L 331.27212 93.287766 
z
" clip-path="url(#p5cbcba7fd8)" style="fill: #0000ff"/>
   </g>
   <g id="patch_74">
    <path d="M 331.27212 102.985308 
Q 329.487097 101.807659 327.567205 101.216145 
Q 325.647313 100.63001 323.600486 100.63001 
Q 318.975292 100.63001 316.273957 104.13607 
Q 313.572621 107.64213 313.572621 113.637922 
Q 313.572621 119.703621 316.321557 123.182794 
Q 319.07446 126.661967 323.86229 126.661967 
Q 325.706814 126.661967 327.396636 126.188757 
Q 329.090425 125.720923 330.589845 124.796012 
L 330.589845 119.606828 
Q 329.042824 120.795232 327.511671 121.381368 
Q 325.980517 121.972881 324.44143 121.972881 
Q 321.593326 121.972881 320.050273 119.811169 
Q 318.507219 117.654835 318.507219 113.637922 
Q 318.507219 109.658652 319.994739 107.486185 
Q 321.482258 105.319096 324.219294 105.319096 
Q 324.965037 105.319096 325.603679 105.442776 
Q 326.242321 105.571833 326.750061 105.840703 
L 326.750061 110.712621 
L 323.834523 110.712621 
L 323.834523 115.052177 
L 331.27212 115.052177 
L 331.27212 102.985308 
z
" clip-path="url(#p5cbcba7fd8)" style="fill: #ffa600"/>
   </g>
   <g id="patch_75">
    <path d="M 349.903172 93.003794 
Q 348.422639 92.863541 346.821702 92.792599 
Q 345.220765 92.720842 343.477126 92.720842 
Q 338.277424 92.720842 335.240548 93.252498 
Q 332.203673 93.784154 332.203673 94.693351 
Q 332.203673 95.605809 335.240548 96.13665 
Q 338.277424 96.668306 343.477126 96.668306 
Q 345.220765 96.668306 346.821702 96.596549 
Q 348.422639 96.525607 349.903172 96.385354 
L 349.903172 95.59847 
Q 348.409261 95.784387 346.959945 95.870822 
Q 345.510628 95.957257 343.909691 95.957257 
Q 341.037814 95.957257 339.392283 95.620487 
Q 337.75121 95.284532 337.75121 94.693351 
Q 337.75121 94.104615 339.392283 93.767845 
Q 341.037814 93.431891 343.909691 93.431891 
Q 345.510628 93.431891 346.959945 93.518326 
Q 348.409261 93.605576 349.903172 93.791492 
L 349.903172 93.003794 
z
" clip-path="url(#p5cbcba7fd8)" style="fill: #0000ff"/>
   </g>
   <g id="patch_76">
    <path d="M 349.903172 97.600544 
Q 348.118149 97.134425 346.198257 96.900301 
Q 344.278365 96.668306 342.231538 96.668306 
Q 337.606344 96.668306 334.905008 98.056021 
Q 332.203673 99.443737 332.203673 101.816901 
Q 332.203673 104.217733 334.952609 105.594807 
Q 337.705512 106.97188 342.493341 106.97188 
Q 344.337866 106.97188 346.027688 106.784581 
Q 347.721477 106.599411 349.220896 106.233326 
L 349.220896 104.179422 
Q 347.673876 104.649798 346.142723 104.881794 
Q 344.611569 105.115917 343.072482 105.115917 
Q 340.224378 105.115917 338.681325 104.260301 
Q 337.138271 103.406814 337.138271 101.816901 
Q 337.138271 100.241886 338.62579 99.382013 
Q 340.11331 98.524269 342.850346 98.524269 
Q 343.596089 98.524269 344.234731 98.573222 
Q 344.873373 98.624304 345.381113 98.730723 
L 345.381113 100.659052 
L 342.465574 100.659052 
L 342.465574 102.376669 
L 349.903172 102.376669 
L 349.903172 97.600544 
z
" clip-path="url(#p5cbcba7fd8)" style="fill: #ffa600"/>
   </g>
   <g id="patch_77">
    <path d="M 368.534224 92.772998 
Q 367.053691 92.747145 365.452754 92.734069 
Q 363.851817 92.720842 362.108177 92.720842 
Q 356.908476 92.720842 353.8716 92.818842 
Q 350.834725 92.916842 350.834725 93.084434 
Q 350.834725 93.252628 353.8716 93.350477 
Q 356.908476 93.448478 362.108177 93.448478 
Q 363.851817 93.448478 365.452754 93.435251 
Q 367.053691 93.422174 368.534224 93.396321 
L 368.534224 93.251275 
Q 367.040313 93.285545 365.590996 93.301477 
Q 364.14168 93.31741 362.540743 93.31741 
Q 359.668866 93.31741 358.023334 93.255333 
Q 356.382262 93.193407 356.382262 93.084434 
Q 356.382262 92.975913 358.023334 92.913836 
Q 359.668866 92.851909 362.540743 92.851909 
Q 364.14168 92.851909 365.590996 92.867842 
Q 367.040313 92.883925 368.534224 92.918195 
L 368.534224 92.772998 
z
" clip-path="url(#p5cbcba7fd8)" style="fill: #0000ff"/>
   </g>
   <g id="patch_78">
    <path d="M 368.534224 97.138699 
Q 366.7492 95.742769 364.829308 95.041617 
Q 362.909416 94.346839 360.86259 94.346839 
Q 356.237396 94.346839 353.53606 98.502758 
Q 350.834725 102.658677 350.834725 109.765808 
Q 350.834725 116.955803 353.583661 121.079851 
Q 356.336563 125.2039 361.124393 125.2039 
Q 362.968917 125.2039 364.658739 124.642978 
Q 366.352528 124.08843 367.851948 122.992084 
L 367.851948 116.841069 
Q 366.304928 118.249747 364.773774 118.944525 
Q 363.242621 119.645677 361.703534 119.645677 
Q 358.85543 119.645677 357.312376 117.083285 
Q 355.769323 114.527267 355.769323 109.765808 
Q 355.769323 105.048968 357.256842 102.473828 
Q 358.744362 99.905062 361.481398 99.905062 
Q 362.227141 99.905062 362.865783 100.051667 
Q 363.504424 100.204645 364.012164 100.523351 
L 364.012164 106.298293 
L 361.096626 106.298293 
L 361.096626 111.442199 
L 368.534224 111.442199 
L 368.534224 97.138699 
z
" clip-path="url(#p5cbcba7fd8)" style="fill: #ffa600"/>
   </g>
   <g id="patch_79">
    <path d="M 350.834725 94.346839 
L 368.534224 94.346839 
L 368.534224 94.171634 
L 362.16652 94.171634 
L 362.16652 93.448478 
L 357.214777 93.448478 
L 357.214777 94.171634 
L 350.834725 94.171634 
L 350.834725 94.346839 
z
" clip-path="url(#p5cbcba7fd8)" style="fill: #ff0000"/>
   </g>
   <g id="patch_80">
    <path d="M 387.165275 93.013336 
Q 385.684743 92.868353 384.083806 92.795019 
Q 382.482868 92.720842 380.739229 92.720842 
Q 375.539527 92.720842 372.502652 93.270427 
Q 369.465776 93.820013 369.465776 94.759872 
Q 369.465776 95.703102 372.502652 96.251845 
Q 375.539527 96.801431 380.739229 96.801431 
Q 382.482868 96.801431 384.083806 96.727254 
Q 385.684743 96.653919 387.165275 96.508937 
L 387.165275 95.695516 
Q 385.671365 95.887703 384.222048 95.977052 
Q 382.772732 96.066402 381.171794 96.066402 
Q 378.299918 96.066402 376.654386 95.718275 
Q 375.013314 95.370991 375.013314 94.759872 
Q 375.013314 94.151282 376.654386 93.803154 
Q 378.299918 93.45587 381.171794 93.45587 
Q 382.772732 93.45587 384.222048 93.54522 
Q 385.671365 93.635413 387.165275 93.827599 
L 387.165275 93.013336 
z
" clip-path="url(#p5cbcba7fd8)" style="fill: #0000ff"/>
   </g>
   <g id="patch_81">
    <path d="M 387.165275 99.168005 
Q 385.380252 97.984718 383.46036 97.390373 
Q 381.540468 96.801431 379.493641 96.801431 
Q 374.868447 96.801431 372.167112 100.324277 
Q 369.465776 103.847123 369.465776 109.871623 
Q 369.465776 115.966363 372.214712 119.462193 
Q 374.967615 122.958024 379.755445 122.958024 
Q 381.599969 122.958024 383.289791 122.482548 
Q 384.98358 122.012475 386.483 121.083135 
L 386.483 115.869106 
Q 384.93598 117.0632 383.404826 117.652142 
Q 381.873673 118.246487 380.334586 118.246487 
Q 377.486482 118.246487 375.943428 116.074425 
Q 374.400374 113.907767 374.400374 109.871623 
Q 374.400374 105.8733 375.887894 103.690432 
Q 377.375414 101.512967 380.112449 101.512967 
Q 380.858193 101.512967 381.496834 101.63724 
Q 382.135476 101.766915 382.643216 102.037072 
L 382.643216 106.932315 
L 379.727678 106.932315 
L 379.727678 111.292648 
L 387.165275 111.292648 
L 387.165275 99.168005 
z
" clip-path="url(#p5cbcba7fd8)" style="fill: #ffa600"/>
   </g>
   <g id="patch_82">
    <path d="M 405.796327 96.665641 
Q 404.315795 95.253254 402.714857 94.538848 
Q 401.11392 93.816232 399.370281 93.816232 
Q 394.170579 93.816232 391.133704 99.170165 
Q 388.096828 104.524098 388.096828 113.679982 
Q 388.096828 122.868711 391.133704 128.214433 
Q 394.170579 133.568367 399.370281 133.568367 
Q 401.11392 133.568367 402.714857 132.84575 
Q 404.315795 132.131344 405.796327 130.718957 
L 405.796327 122.794807 
Q 404.302416 124.667042 402.8531 125.537466 
Q 401.403783 126.407891 399.802846 126.407891 
Q 396.93097 126.407891 395.285438 123.016519 
Q 393.644366 119.633359 393.644366 113.679982 
Q 393.644366 107.751239 395.285438 104.359867 
Q 396.93097 100.976707 399.802846 100.976707 
Q 401.403783 100.976707 402.8531 101.847132 
Q 404.302416 102.725768 405.796327 104.598002 
L 405.796327 96.665641 
z
" clip-path="url(#p5cbcba7fd8)" style="fill: #0000ff"/>
   </g>
   <g id="patch_83">
    <path d="M 405.796327 92.819949 
Q 404.011304 92.770396 402.091412 92.745505 
Q 400.17152 92.720842 398.124693 92.720842 
Q 393.499499 92.720842 390.798164 92.868372 
Q 388.096828 93.015902 388.096828 93.268197 
Q 388.096828 93.523434 390.845764 93.669833 
Q 393.598667 93.816232 398.386497 93.816232 
Q 400.231021 93.816232 401.920843 93.796319 
Q 403.614632 93.776634 405.114052 93.737715 
L 405.114052 93.519361 
Q 403.567031 93.569367 402.035878 93.594031 
Q 400.504724 93.618921 398.965637 93.618921 
Q 396.117533 93.618921 394.57448 93.527959 
Q 393.031426 93.437223 393.031426 93.268197 
Q 393.031426 93.100755 394.518946 93.00934 
Q 396.006465 92.918152 398.743501 92.918152 
Q 399.489244 92.918152 400.127886 92.923356 
Q 400.766528 92.928787 401.274268 92.940101 
L 401.274268 93.145104 
L 398.35873 93.145104 
L 398.35873 93.327707 
L 405.796327 93.327707 
L 405.796327 92.819949 
z
" clip-path="url(#p5cbcba7fd8)" style="fill: #ffa600"/>
   </g>
   <g id="patch_84">
    <path d="M 418.988338 92.902317 
L 412.181395 92.902317 
L 411.106615 92.720842 
L 406.72788 92.720842 
L 412.981148 93.717033 
L 418.174111 93.717033 
L 424.427379 92.720842 
L 420.052263 92.720842 
L 418.988338 92.902317 
z
M 413.267032 93.087208 
L 417.891845 93.087208 
L 415.583058 93.483464 
L 413.267032 93.087208 
z
" clip-path="url(#p5cbcba7fd8)" style="fill: #008000"/>
   </g>
   <g id="patch_85">
    <path d="M 424.427379 102.631113 
Q 422.642356 98.174073 420.722464 95.935377 
Q 418.802572 93.717033 416.755745 93.717033 
Q 412.130551 93.717033 409.429215 106.986393 
Q 406.72788 120.255754 406.72788 142.947989 
Q 406.72788 165.904797 409.476816 179.072398 
Q 412.229719 192.24 417.017548 192.24 
Q 418.862073 192.24 420.551895 190.449043 
Q 422.245684 188.678438 423.745103 185.177932 
L 423.745103 165.538465 
Q 422.198083 170.036208 420.66693 172.254552 
Q 419.135776 174.493248 417.596689 174.493248 
Q 414.748585 174.493248 413.205532 166.311832 
Q 411.662478 158.150768 411.662478 142.947989 
Q 411.662478 127.887672 413.149997 119.665552 
Q 414.637517 111.463785 417.374553 111.463785 
Q 418.120296 111.463785 418.758938 111.931876 
Q 419.39758 112.420319 419.90532 113.437908 
L 419.90532 131.87662 
L 416.989781 131.87662 
L 416.989781 148.300507 
L 424.427379 148.300507 
L 424.427379 102.631113 
z
" clip-path="url(#p5cbcba7fd8)" style="fill: #ffa600"/>
   </g>
   <g id="patch_86">
    <path d="M 437.61939 92.75137 
L 430.812447 92.75137 
L 429.737667 92.720842 
L 425.358932 92.720842 
L 431.6122 92.888424 
L 436.805163 92.888424 
L 443.058431 92.720842 
L 438.683314 92.720842 
L 437.61939 92.75137 
z
M 431.898084 92.782473 
L 436.522897 92.782473 
L 434.214109 92.849132 
L 431.898084 92.782473 
z
" clip-path="url(#p5cbcba7fd8)" style="fill: #008000"/>
   </g>
   <g id="patch_87">
    <path d="M 443.058431 98.228213 
Q 441.577898 96.155423 439.976961 95.106977 
Q 438.376024 94.04648 436.632384 94.04648 
Q 431.432683 94.04648 428.395807 101.903799 
Q 425.358932 109.761117 425.358932 123.198096 
Q 425.358932 136.683278 428.395807 144.528546 
Q 431.432683 152.385864 436.632384 152.385864 
Q 438.376024 152.385864 439.976961 151.325367 
Q 441.577898 150.276921 443.058431 148.204132 
L 443.058431 136.574818 
Q 441.56452 139.32247 440.115203 140.599886 
Q 438.665887 141.877303 437.06495 141.877303 
Q 434.193073 141.877303 432.547541 136.900198 
Q 430.906469 131.935144 430.906469 123.198096 
Q 430.906469 114.4972 432.547541 109.520095 
Q 434.193073 104.555041 437.06495 104.555041 
Q 438.665887 104.555041 440.115203 105.832458 
Q 441.56452 107.121926 443.058431 109.869577 
L 443.058431 98.228213 
z
" clip-path="url(#p5cbcba7fd8)" style="fill: #0000ff"/>
   </g>
   <g id="patch_88">
    <path d="M 443.058431 93.281844 
Q 441.273407 93.243812 439.353515 93.224709 
Q 437.433623 93.20578 435.386797 93.20578 
Q 430.761603 93.20578 428.060267 93.319008 
Q 425.358932 93.432236 425.358932 93.62587 
Q 425.358932 93.821761 428.107868 93.934121 
Q 430.86077 94.04648 435.6486 94.04648 
Q 437.493124 94.04648 439.182946 94.031198 
Q 440.876735 94.01609 442.376155 93.98622 
L 442.376155 93.818635 
Q 440.829135 93.857015 439.297981 93.875944 
Q 437.766828 93.895047 436.227741 93.895047 
Q 433.379637 93.895047 431.836583 93.825234 
Q 430.29353 93.755596 430.29353 93.62587 
Q 430.29353 93.49736 431.781049 93.4272 
Q 433.268569 93.357214 436.005605 93.357214 
Q 436.751348 93.357214 437.38999 93.361208 
Q 438.028631 93.365376 438.536371 93.374059 
L 438.536371 93.531397 
L 435.620833 93.531397 
L 435.620833 93.671543 
L 443.058431 93.671543 
L 443.058431 93.281844 
z
" clip-path="url(#p5cbcba7fd8)" style="fill: #ffa600"/>
   </g>
   <g id="patch_89">
    <path d="M 425.358932 93.20578 
L 443.058431 93.20578 
L 443.058431 93.143887 
L 436.690727 93.143887 
L 436.690727 92.888424 
L 431.738984 92.888424 
L 431.738984 93.143887 
L 425.358932 93.143887 
L 425.358932 93.20578 
z
" clip-path="url(#p5cbcba7fd8)" style="fill: #ff0000"/>
   </g>
   <g id="patch_90">
    <path d="M 456.250442 94.406614 
L 449.443499 94.406614 
L 448.368719 94.040725 
L 443.989983 94.040725 
L 450.243251 96.049238 
L 455.436214 96.049238 
L 461.689482 94.040725 
L 457.314366 94.040725 
L 456.250442 94.406614 
z
M 450.529136 94.77939 
L 455.153949 94.77939 
L 452.845161 95.578318 
L 450.529136 94.77939 
z
" clip-path="url(#p5cbcba7fd8)" style="fill: #008000"/>
   </g>
   <g id="patch_91">
    <path d="M 461.689482 92.81545 
Q 460.20895 92.768555 458.608013 92.744835 
Q 457.007075 92.720842 455.263436 92.720842 
Q 450.063734 92.720842 447.026859 92.898607 
Q 443.989983 93.076373 443.989983 93.380375 
Q 443.989983 93.685466 447.026859 93.86296 
Q 450.063734 94.040725 455.263436 94.040725 
Q 457.007075 94.040725 458.608013 94.016732 
Q 460.20895 93.993012 461.689482 93.946117 
L 461.689482 93.683013 
Q 460.195572 93.745176 458.746255 93.774077 
Q 457.296939 93.802977 455.696001 93.802977 
Q 452.824125 93.802977 451.178593 93.690374 
Q 449.537521 93.578044 449.537521 93.380375 
Q 449.537521 93.183523 451.178593 93.07092 
Q 452.824125 92.95859 455.696001 92.95859 
Q 457.296939 92.95859 458.746255 92.98749 
Q 460.195572 93.016664 461.689482 93.078827 
L 461.689482 92.81545 
z
" clip-path="url(#p5cbcba7fd8)" style="fill: #0000ff"/>
   </g>
   <g id="patch_92">
    <path d="M 461.689482 103.425777 
Q 459.904459 99.737507 457.984567 97.884952 
Q 456.064675 96.049238 454.017848 96.049238 
Q 449.392654 96.049238 446.691319 107.029839 
Q 443.989983 118.010441 443.989983 136.788616 
Q 443.989983 155.78573 446.738919 166.682124 
Q 449.491822 177.578518 454.279652 177.578518 
Q 456.124176 177.578518 457.813998 176.096474 
Q 459.507787 174.631271 461.007207 171.734548 
L 461.007207 155.482585 
Q 459.460187 159.204537 457.929033 161.040251 
Q 456.39788 162.892806 454.858793 162.892806 
Q 452.010689 162.892806 450.467635 156.122558 
Q 448.924581 149.369152 448.924581 136.788616 
Q 448.924581 124.32597 450.412101 117.52204 
Q 451.899621 110.73495 454.636656 110.73495 
Q 455.3824 110.73495 456.021041 111.122303 
Q 456.659683 111.526497 457.167423 112.368567 
L 457.167423 127.626887 
L 454.251885 127.626887 
L 454.251885 141.217908 
L 461.689482 141.217908 
L 461.689482 103.425777 
z
" clip-path="url(#p5cbcba7fd8)" style="fill: #ffa600"/>
   </g>
   <g id="patch_93">
    <path d="M 480.320534 102.986049 
Q 478.840002 100.798317 477.239064 99.691732 
Q 475.638127 98.572428 473.894488 98.572428 
Q 468.694786 98.572428 465.657911 106.865456 
Q 462.621035 115.158484 462.621035 129.340579 
Q 462.621035 143.573552 465.657911 151.85386 
Q 468.694786 160.146888 473.894488 160.146888 
Q 475.638127 160.146888 477.239064 159.027584 
Q 478.840002 157.920999 480.320534 155.733267 
L 480.320534 143.459077 
Q 478.826623 146.359093 477.377307 147.707346 
Q 475.92799 149.055599 474.327053 149.055599 
Q 471.455177 149.055599 469.809645 143.8025 
Q 468.168573 138.562121 468.168573 129.340579 
Q 468.168573 120.157195 469.809645 114.904096 
Q 471.455177 109.663717 474.327053 109.663717 
Q 475.92799 109.663717 477.377307 111.01197 
Q 478.826623 112.372942 480.320534 115.272958 
L 480.320534 102.986049 
z
" clip-path="url(#p5cbcba7fd8)" style="fill: #0000ff"/>
   </g>
   <g id="patch_94">
    <path d="M 462.621035 98.572428 
L 480.320534 98.572428 
L 480.320534 97.431206 
L 473.952831 97.431206 
L 473.952831 92.720842 
L 469.001087 92.720842 
L 469.001087 97.431206 
L 462.621035 97.431206 
L 462.621035 98.572428 
z
" clip-path="url(#p5cbcba7fd8)" style="fill: #ff0000"/>
   </g>
   <g id="patch_95">
    <path d="M 493.512545 95.254994 
L 486.705603 95.254994 
L 485.630822 94.834908 
L 481.252087 94.834908 
L 487.505355 97.140931 
L 492.698318 97.140931 
L 498.951586 94.834908 
L 494.57647 94.834908 
L 493.512545 95.254994 
z
M 487.791239 95.682987 
L 492.416052 95.682987 
L 490.107265 96.600256 
L 487.791239 95.682987 
z
" clip-path="url(#p5cbcba7fd8)" style="fill: #008000"/>
   </g>
   <g id="patch_96">
    <path d="M 498.951586 92.872377 
Q 497.471053 92.797264 495.870116 92.759271 
Q 494.269179 92.720842 492.52554 92.720842 
Q 487.325838 92.720842 484.288962 93.00557 
Q 481.252087 93.290299 481.252087 93.77722 
Q 481.252087 94.265888 484.288962 94.550179 
Q 487.325838 94.834908 492.52554 94.834908 
Q 494.269179 94.834908 495.870116 94.796478 
Q 497.471053 94.758486 498.951586 94.683373 
L 498.951586 94.261957 
Q 497.457675 94.361525 496.008359 94.407815 
Q 494.559042 94.454105 492.958105 94.454105 
Q 490.086228 94.454105 488.440697 94.273748 
Q 486.799624 94.093828 486.799624 93.77722 
Q 486.799624 93.461922 488.440697 93.281565 
Q 490.086228 93.101644 492.958105 93.101644 
Q 494.559042 93.101644 496.008359 93.147935 
Q 497.457675 93.194662 498.951586 93.294229 
L 498.951586 92.872377 
z
" clip-path="url(#p5cbcba7fd8)" style="fill: #0000ff"/>
   </g>
   <g id="patch_97">
    <path d="M 498.951586 103.856236 
Q 497.166563 100.498583 495.246671 98.812092 
Q 493.326779 97.140931 491.279952 97.140931 
Q 486.654758 97.140931 483.953422 107.137229 
Q 481.252087 117.133527 481.252087 134.228422 
Q 481.252087 151.52263 484.001023 161.442269 
Q 486.753926 171.361908 491.541755 171.361908 
Q 493.38628 171.361908 495.076102 170.012714 
Q 496.769891 168.678853 498.26931 166.041793 
L 498.26931 151.246659 
Q 496.72229 154.634974 495.191137 156.306135 
Q 493.659983 157.992626 492.120896 157.992626 
Q 489.272792 157.992626 487.729739 151.829265 
Q 486.186685 145.681235 486.186685 134.228422 
Q 486.186685 122.882931 487.674205 116.688906 
Q 489.161724 110.510213 491.89876 110.510213 
Q 492.644503 110.510213 493.283145 110.862843 
Q 493.921787 111.230805 494.429527 111.997392 
L 494.429527 125.887953 
L 491.513988 125.887953 
L 491.513988 138.260671 
L 498.951586 138.260671 
L 498.951586 103.856236 
z
" clip-path="url(#p5cbcba7fd8)" style="fill: #ffa600"/>
   </g>
   <g id="patch_98">
    <path d="M 512.143597 93.477225 
L 505.336654 93.477225 
L 504.261874 92.720842 
L 499.883139 92.720842 
L 506.136407 96.872942 
L 511.32937 96.872942 
L 517.582638 92.720842 
L 513.207521 92.720842 
L 512.143597 93.477225 
z
M 506.422291 94.247846 
L 511.047104 94.247846 
L 508.738316 95.899432 
L 506.422291 94.247846 
z
" clip-path="url(#p5cbcba7fd8)" style="fill: #008000"/>
   </g>
   <g id="patch_99">
    <path d="M 517.582638 97.967223 
Q 515.797614 97.420082 513.877722 97.145263 
Q 511.957831 96.872942 509.911004 96.872942 
Q 505.28581 96.872942 502.584474 98.501872 
Q 499.883139 100.130802 499.883139 102.916473 
Q 499.883139 105.734622 502.632075 107.351061 
Q 505.384978 108.967499 510.172807 108.967499 
Q 512.017331 108.967499 513.707153 108.747644 
Q 515.400942 108.530287 516.900362 108.100569 
L 516.900362 105.689652 
Q 515.353342 106.241789 513.822188 106.51411 
Q 512.291035 106.78893 510.751948 106.78893 
Q 507.903844 106.78893 506.36079 105.78459 
Q 504.817737 104.782747 504.817737 102.916473 
Q 504.817737 101.067687 506.305256 100.05835 
Q 507.792776 99.051511 510.529812 99.051511 
Q 511.275555 99.051511 511.914197 99.108973 
Q 512.552838 99.168934 513.060578 99.293852 
L 513.060578 101.557365 
L 510.14504 101.557365 
L 510.14504 103.573541 
L 517.582638 103.573541 
L 517.582638 97.967223 
z
" clip-path="url(#p5cbcba7fd8)" style="fill: #ffa600"/>
   </g>
   <g id="patch_100">
    <path d="M 536.213689 97.453359 
Q 534.733157 97.237485 533.13222 97.128293 
Q 531.531282 97.017845 529.787643 97.017845 
Q 524.587941 97.017845 521.551066 97.83616 
Q 518.51419 98.654474 518.51419 100.053892 
Q 518.51419 101.458331 521.551066 102.27539 
Q 524.587941 103.093705 529.787643 103.093705 
Q 531.531282 103.093705 533.13222 102.983257 
Q 534.733157 102.874065 536.213689 102.658191 
L 536.213689 101.447035 
Q 534.719779 101.733194 533.270462 101.866233 
Q 531.821146 101.999272 530.220208 101.999272 
Q 527.348332 101.999272 525.7028 101.480922 
Q 524.061728 100.963828 524.061728 100.053892 
Q 524.061728 99.147722 525.7028 98.629373 
Q 527.348332 98.112278 530.220208 98.112278 
Q 531.821146 98.112278 533.270462 98.245317 
Q 534.719779 98.379611 536.213689 98.66577 
L 536.213689 97.453359 
z
" clip-path="url(#p5cbcba7fd8)" style="fill: #0000ff"/>
   </g>
   <g id="patch_101">
    <path d="M 536.213689 93.109622 
Q 534.428666 92.915232 532.508774 92.817593 
Q 530.588882 92.720842 528.542055 92.720842 
Q 523.916861 92.720842 521.215526 93.299575 
Q 518.51419 93.878308 518.51419 94.868012 
Q 518.51419 95.869256 521.263126 96.44355 
Q 524.016029 97.017845 528.803859 97.017845 
Q 530.648383 97.017845 532.338205 96.939734 
Q 534.031994 96.86251 535.531414 96.709839 
L 535.531414 95.853278 
Q 533.984394 96.049444 532.45324 96.146195 
Q 530.922087 96.243834 529.383 96.243834 
Q 526.534896 96.243834 524.991842 95.887008 
Q 523.448788 95.53107 523.448788 94.868012 
Q 523.448788 94.211168 524.936308 93.852566 
Q 526.423828 93.494853 529.160864 93.494853 
Q 529.906607 93.494853 530.545248 93.515268 
Q 531.18389 93.536571 531.69163 93.580952 
L 531.69163 94.385143 
L 528.776092 94.385143 
L 528.776092 95.101458 
L 536.213689 95.101458 
L 536.213689 93.109622 
z
" clip-path="url(#p5cbcba7fd8)" style="fill: #ffa600"/>
   </g>
   <g id="patch_102">
    <path d="M 549.405701 93.319244 
L 542.598758 93.319244 
L 541.523977 92.720842 
L 537.145242 92.720842 
L 543.39851 96.005717 
L 548.591473 96.005717 
L 554.844741 92.720842 
L 550.469625 92.720842 
L 549.405701 93.319244 
z
M 543.684395 93.92891 
L 548.309208 93.92891 
L 546.00042 95.235539 
L 543.684395 93.92891 
z
" clip-path="url(#p5cbcba7fd8)" style="fill: #008000"/>
   </g>
   <g id="patch_103">
    <path d="M 554.844741 96.276861 
Q 553.364209 96.142462 551.763271 96.07448 
Q 550.162334 96.005717 548.418695 96.005717 
Q 543.218993 96.005717 540.182118 96.515187 
Q 537.145242 97.024657 537.145242 97.895912 
Q 537.145242 98.770293 540.182118 99.278981 
Q 543.218993 99.788451 548.418695 99.788451 
Q 550.162334 99.788451 551.763271 99.719688 
Q 553.364209 99.651707 554.844741 99.517307 
L 554.844741 98.763261 
Q 553.35083 98.941419 551.901514 99.024247 
Q 550.452197 99.107074 548.85126 99.107074 
Q 545.979384 99.107074 544.333852 98.784358 
Q 542.69278 98.462424 542.69278 97.895912 
Q 542.69278 97.331745 544.333852 97.009029 
Q 545.979384 96.687094 548.85126 96.687094 
Q 550.452197 96.687094 551.901514 96.769922 
Q 553.35083 96.853531 554.844741 97.031689 
L 554.844741 96.276861 
z
" clip-path="url(#p5cbcba7fd8)" style="fill: #0000ff"/>
   </g>
   <g id="patch_104">
    <path d="M 554.844741 100.540283 
Q 553.059718 100.164367 551.139826 99.975551 
Q 549.219934 99.788451 547.173107 99.788451 
Q 542.547913 99.788451 539.846578 100.907617 
Q 537.145242 102.026783 537.145242 103.940695 
Q 537.145242 105.876921 539.894178 106.987505 
Q 542.647081 108.098088 547.434911 108.098088 
Q 549.279435 108.098088 550.969257 107.947035 
Q 552.663046 107.797699 554.162466 107.502459 
L 554.162466 105.846024 
Q 552.615445 106.225373 551.084292 106.412473 
Q 549.553138 106.601289 548.014052 106.601289 
Q 545.165947 106.601289 543.622894 105.911251 
Q 542.07984 105.22293 542.07984 103.940695 
Q 542.07984 102.670476 543.56736 101.977004 
Q 545.054879 101.28525 547.791915 101.28525 
Q 548.537658 101.28525 549.1763 101.32473 
Q 549.814942 101.365926 550.322682 101.451752 
L 550.322682 103.006912 
L 547.407144 103.006912 
L 547.407144 104.392138 
L 554.844741 104.392138 
L 554.844741 100.540283 
z
" clip-path="url(#p5cbcba7fd8)" style="fill: #ffa600"/>
   </g>
   <g id="patch_105">
    <path d="M 573.475793 93.111025 
Q 571.99526 92.91762 570.394323 92.819793 
Q 568.793386 92.720842 567.049747 92.720842 
Q 561.850045 92.720842 558.813169 93.453981 
Q 555.776294 94.18712 555.776294 95.440877 
Q 555.776294 96.699133 558.813169 97.431147 
Q 561.850045 98.164286 567.049747 98.164286 
Q 568.793386 98.164286 570.394323 98.065335 
Q 571.99526 97.967508 573.475793 97.774103 
L 573.475793 96.689013 
Q 571.981882 96.945387 570.532566 97.064578 
Q 569.083249 97.183769 567.482312 97.183769 
Q 564.610435 97.183769 562.964904 96.719373 
Q 561.323831 96.256101 561.323831 95.440877 
Q 561.323831 94.629027 562.964904 94.164631 
Q 564.610435 93.701359 567.482312 93.701359 
Q 569.083249 93.701359 570.532566 93.82055 
Q 571.981882 93.940866 573.475793 94.19724 
L 573.475793 93.111025 
z
" clip-path="url(#p5cbcba7fd8)" style="fill: #0000ff"/>
   </g>
   <g id="patch_106">
    <path d="M 573.475793 100.417611 
Q 571.69077 99.290949 569.770878 98.725045 
Q 567.850986 98.164286 565.804159 98.164286 
Q 561.178965 98.164286 558.477629 101.51855 
Q 555.776294 104.872814 555.776294 110.609017 
Q 555.776294 116.4121 558.52523 119.740641 
Q 561.278133 123.069182 566.065962 123.069182 
Q 567.910487 123.069182 569.600309 122.616459 
Q 571.294098 122.168881 572.793517 121.284014 
L 572.793517 116.319497 
Q 571.246497 117.456449 569.715344 118.017208 
Q 568.18419 118.583111 566.645103 118.583111 
Q 563.796999 118.583111 562.253946 116.514991 
Q 560.710892 114.452016 560.710892 110.609017 
Q 560.710892 106.802031 562.198412 104.723622 
Q 563.685931 102.650357 566.422967 102.650357 
Q 567.16871 102.650357 567.807352 102.768682 
Q 568.445994 102.892152 568.953734 103.149381 
L 568.953734 107.810368 
L 566.038195 107.810368 
L 566.038195 111.962041 
L 573.475793 111.962041 
L 573.475793 100.417611 
z
" clip-path="url(#p5cbcba7fd8)" style="fill: #ffa600"/>
   </g>
   <g id="patch_107">
    <path d="M 592.106845 96.647799 
Q 590.626312 96.435939 589.025375 96.328778 
Q 587.424438 96.220384 585.680798 96.220384 
Q 580.481097 96.220384 577.444221 97.023482 
Q 574.407346 97.826579 574.407346 99.199974 
Q 574.407346 100.578296 577.444221 101.380162 
Q 580.481097 102.183259 585.680798 102.183259 
Q 587.424438 102.183259 589.025375 102.074865 
Q 590.626312 101.967704 592.106845 101.755844 
L 592.106845 100.56721 
Q 590.612934 100.848048 589.163617 100.978613 
Q 587.714301 101.109178 586.113364 101.109178 
Q 583.241487 101.109178 581.595955 100.600467 
Q 579.954883 100.092989 579.954883 99.199974 
Q 579.954883 98.310654 581.595955 97.801944 
Q 583.241487 97.294465 586.113364 97.294465 
Q 587.714301 97.294465 589.163617 97.42503 
Q 590.612934 97.556827 592.106845 97.837665 
L 592.106845 96.647799 
z
" clip-path="url(#p5cbcba7fd8)" style="fill: #0000ff"/>
   </g>
   <g id="patch_108">
    <path d="M 592.106845 93.03747 
Q 590.321821 92.879156 588.401929 92.799637 
Q 586.482038 92.720842 584.435211 92.720842 
Q 579.810017 92.720842 577.108681 93.19217 
Q 574.407346 93.663499 574.407346 94.469529 
Q 574.407346 95.284956 577.156282 95.75267 
Q 579.909185 96.220384 584.697014 96.220384 
Q 586.541538 96.220384 588.23136 96.156769 
Q 589.925149 96.093877 591.424569 95.969539 
L 591.424569 95.271944 
Q 589.877549 95.431704 588.346395 95.5105 
Q 586.815242 95.590018 585.276155 95.590018 
Q 582.428051 95.590018 580.884997 95.299414 
Q 579.341944 95.009532 579.341944 94.469529 
Q 579.341944 93.934585 580.829463 93.642535 
Q 582.316983 93.351207 585.054019 93.351207 
Q 585.799762 93.351207 586.438404 93.367834 
Q 587.077045 93.385184 587.584785 93.421328 
L 587.584785 94.076273 
L 584.669247 94.076273 
L 584.669247 94.65965 
L 592.106845 94.65965 
L 592.106845 93.03747 
z
" clip-path="url(#p5cbcba7fd8)" style="fill: #ffa600"/>
   </g>
   <g id="patch_109">
    <path d="M 610.737896 92.957173 
Q 609.257364 92.840029 607.656427 92.780776 
Q 606.055489 92.720842 604.31185 92.720842 
Q 599.112148 92.720842 596.075273 93.1649 
Q 593.038397 93.608959 593.038397 94.368354 
Q 593.038397 95.130473 596.075273 95.57385 
Q 599.112148 96.017909 604.31185 96.017909 
Q 606.055489 96.017909 607.656427 95.957974 
Q 609.257364 95.898721 610.737896 95.781577 
L 610.737896 95.124343 
Q 609.243986 95.279627 607.794669 95.351821 
Q 606.345353 95.424014 604.744415 95.424014 
Q 601.872539 95.424014 600.227007 95.142732 
Q 598.585935 94.86213 598.585935 94.368354 
Q 598.585935 93.87662 600.227007 93.595337 
Q 601.872539 93.314736 604.744415 93.314736 
Q 606.345353 93.314736 607.794669 93.38693 
Q 609.243986 93.459804 610.737896 93.615088 
L 610.737896 92.957173 
z
" clip-path="url(#p5cbcba7fd8)" style="fill: #0000ff"/>
   </g>
   <g id="patch_110">
    <path d="M 610.737896 96.612681 
Q 608.952873 96.315295 607.032981 96.165923 
Q 605.113089 96.017909 603.066262 96.017909 
Q 598.441068 96.017909 595.739733 96.903278 
Q 593.038397 97.788648 593.038397 99.302738 
Q 593.038397 100.834482 595.787333 101.713061 
Q 598.540236 102.591641 603.328066 102.591641 
Q 605.17259 102.591641 606.862412 102.472143 
Q 608.556201 102.354004 610.055621 102.12044 
L 610.055621 100.810039 
Q 608.508601 101.110141 606.977447 101.258155 
Q 605.446294 101.407527 603.907207 101.407527 
Q 601.059103 101.407527 599.516049 100.86164 
Q 597.972995 100.317111 597.972995 99.302738 
Q 597.972995 98.297871 599.460515 97.749268 
Q 600.948035 97.202022 603.685071 97.202022 
Q 604.430814 97.202022 605.069455 97.233255 
Q 605.708097 97.265845 606.215837 97.333741 
L 606.215837 98.564025 
L 603.300299 98.564025 
L 603.300299 99.659873 
L 610.737896 99.659873 
L 610.737896 96.612681 
z
" clip-path="url(#p5cbcba7fd8)" style="fill: #ffa600"/>
   </g>
   <g id="patch_111">
    <path d="M 629.368948 93.001309 
Q 627.888416 92.862288 626.287478 92.791969 
Q 624.686541 92.720842 622.942902 92.720842 
Q 617.7432 92.720842 614.706325 93.24783 
Q 611.669449 93.774818 611.669449 94.676033 
Q 611.669449 95.58048 614.706325 96.10666 
Q 617.7432 96.633648 622.942902 96.633648 
Q 624.686541 96.633648 626.287478 96.562521 
Q 627.888416 96.492202 629.368948 96.353181 
L 629.368948 95.573206 
Q 627.875037 95.75749 626.425721 95.843166 
Q 624.976404 95.928842 623.375467 95.928842 
Q 620.503591 95.928842 618.858059 95.595029 
Q 617.216987 95.262024 617.216987 94.676033 
Q 617.216987 94.092466 618.858059 93.758653 
Q 620.503591 93.425648 623.375467 93.425648 
Q 624.976404 93.425648 626.425721 93.511324 
Q 627.875037 93.597808 629.368948 93.782092 
L 629.368948 93.001309 
z
" clip-path="url(#p5cbcba7fd8)" style="fill: #0000ff"/>
   </g>
   <g id="patch_112">
    <path d="M 629.368948 98.574314 
Q 627.583925 97.603981 625.664033 97.116599 
Q 623.744141 96.633648 621.697314 96.633648 
Q 617.07212 96.633648 614.370785 99.522493 
Q 611.669449 102.411338 611.669449 107.351617 
Q 611.669449 112.349496 614.418385 115.216187 
Q 617.171288 118.082879 621.959118 118.082879 
Q 623.803642 118.082879 625.493464 117.692973 
Q 627.187253 117.307498 628.686673 116.54541 
L 628.686673 112.269743 
Q 627.139652 113.248937 625.608499 113.731888 
Q 624.077345 114.21927 622.538259 114.21927 
Q 619.690154 114.21927 618.147101 112.438111 
Q 616.604047 110.661383 616.604047 107.351617 
Q 616.604047 104.072867 618.091567 102.282847 
Q 619.579086 100.497257 622.316122 100.497257 
Q 623.061865 100.497257 623.700507 100.599164 
Q 624.339149 100.705502 624.846889 100.927039 
L 624.846889 104.941293 
L 621.931351 104.941293 
L 621.931351 108.516903 
L 629.368948 108.516903 
L 629.368948 98.574314 
z
" clip-path="url(#p5cbcba7fd8)" style="fill: #ffa600"/>
   </g>
   <g id="patch_113">
    <path d="M 648 92.757871 
Q 646.519467 92.739517 644.91853 92.730232 
Q 643.317593 92.720842 641.573954 92.720842 
Q 636.374252 92.720842 633.337376 92.790419 
Q 630.300501 92.859996 630.300501 92.978982 
Q 630.300501 93.098395 633.337376 93.167865 
Q 636.374252 93.237442 641.573954 93.237442 
Q 643.317593 93.237442 644.91853 93.228052 
Q 646.519467 93.218768 648 93.200413 
L 648 93.097434 
Q 646.506089 93.121765 645.056773 93.133077 
Q 643.607456 93.144388 642.006519 93.144388 
Q 639.134642 93.144388 637.489111 93.100315 
Q 635.848038 93.056349 635.848038 92.978982 
Q 635.848038 92.901935 637.489111 92.857862 
Q 639.134642 92.813896 642.006519 92.813896 
Q 643.607456 92.813896 645.056773 92.825208 
Q 646.506089 92.836626 648 92.860957 
L 648 92.757871 
z
" clip-path="url(#p5cbcba7fd8)" style="fill: #0000ff"/>
   </g>
   <g id="patch_114">
    <path d="M 648 93.368204 
Q 646.214977 93.302823 644.295085 93.269983 
Q 642.375193 93.237442 640.328366 93.237442 
Q 635.703172 93.237442 633.001836 93.432091 
Q 630.300501 93.62674 630.300501 93.959614 
Q 630.300501 94.296368 633.049437 94.489524 
Q 635.80234 94.68268 640.590169 94.68268 
Q 642.434694 94.68268 644.124516 94.656409 
Q 645.818305 94.630436 647.317724 94.579087 
L 647.317724 94.290994 
Q 645.770704 94.356972 644.239551 94.389513 
Q 642.708397 94.422352 641.16931 94.422352 
Q 638.321206 94.422352 636.778153 94.302339 
Q 635.235099 94.182624 635.235099 93.959614 
Q 635.235099 93.738693 636.722619 93.618082 
Q 638.210138 93.49777 640.947174 93.49777 
Q 641.692917 93.49777 642.331559 93.504637 
Q 642.970201 93.511802 643.477941 93.526729 
L 643.477941 93.797207 
L 640.562402 93.797207 
L 640.562402 94.03813 
L 648 94.03813 
L 648 93.368204 
z
" clip-path="url(#p5cbcba7fd8)" style="fill: #ffa600"/>
   </g>
   <g id="matplotlib.axis_1">
    <g id="xtick_1">
     <g id="line2d_2">
      <defs>
       <path id="meef538bed0" d="M 0 0 
L 0 3.5 
" style="stroke: #000000; stroke-width: 0.8"/>
      </defs>
      <g>
       <use xlink:href="#meef538bed0" x="98.84975" y="192.24" style="stroke: #000000; stroke-width: 0.8"/>
      </g>
     </g>
     <g id="text_1">
      <!-- 0 -->
      <g transform="translate(95.6685 206.838437) scale(0.1 -0.1)">
       <defs>
        <path id="DejaVuSans-30" d="M 2034 4250 
Q 1547 4250 1301 3770 
Q 1056 3291 1056 2328 
Q 1056 1369 1301 889 
Q 1547 409 2034 409 
Q 2525 409 2770 889 
Q 3016 1369 3016 2328 
Q 3016 3291 2770 3770 
Q 2525 4250 2034 4250 
z
M 2034 4750 
Q 2819 4750 3233 4129 
Q 3647 3509 3647 2328 
Q 3647 1150 3233 529 
Q 2819 -91 2034 -91 
Q 1250 -91 836 529 
Q 422 1150 422 2328 
Q 422 3509 836 4129 
Q 1250 4750 2034 4750 
z
" transform="scale(0.015625)"/>
       </defs>
       <use xlink:href="#DejaVuSans-30"/>
      </g>
     </g>
    </g>
    <g id="xtick_2">
     <g id="line2d_3">
      <g>
       <use xlink:href="#meef538bed0" x="192.005008" y="192.24" style="stroke: #000000; stroke-width: 0.8"/>
      </g>
     </g>
     <g id="text_2">
      <!-- 5 -->
      <g transform="translate(188.823758 206.838437) scale(0.1 -0.1)">
       <defs>
        <path id="DejaVuSans-35" d="M 691 4666 
L 3169 4666 
L 3169 4134 
L 1269 4134 
L 1269 2991 
Q 1406 3038 1543 3061 
Q 1681 3084 1819 3084 
Q 2600 3084 3056 2656 
Q 3513 2228 3513 1497 
Q 3513 744 3044 326 
Q 2575 -91 1722 -91 
Q 1428 -91 1123 -41 
Q 819 9 494 109 
L 494 744 
Q 775 591 1075 516 
Q 1375 441 1709 441 
Q 2250 441 2565 725 
Q 2881 1009 2881 1497 
Q 2881 1984 2565 2268 
Q 2250 2553 1709 2553 
Q 1456 2553 1204 2497 
Q 953 2441 691 2322 
L 691 4666 
z
" transform="scale(0.015625)"/>
       </defs>
       <use xlink:href="#DejaVuSans-35"/>
      </g>
     </g>
    </g>
    <g id="xtick_3">
     <g id="line2d_4">
      <g>
       <use xlink:href="#meef538bed0" x="285.160267" y="192.24" style="stroke: #000000; stroke-width: 0.8"/>
      </g>
     </g>
     <g id="text_3">
      <!-- 10 -->
      <g transform="translate(278.797767 206.838437) scale(0.1 -0.1)">
       <defs>
        <path id="DejaVuSans-31" d="M 794 531 
L 1825 531 
L 1825 4091 
L 703 3866 
L 703 4441 
L 1819 4666 
L 2450 4666 
L 2450 531 
L 3481 531 
L 3481 0 
L 794 0 
L 794 531 
z
" transform="scale(0.015625)"/>
       </defs>
       <use xlink:href="#DejaVuSans-31"/>
       <use xlink:href="#DejaVuSans-30" x="63.623047"/>
      </g>
     </g>
    </g>
    <g id="xtick_4">
     <g id="line2d_5">
      <g>
       <use xlink:href="#meef538bed0" x="378.315526" y="192.24" style="stroke: #000000; stroke-width: 0.8"/>
      </g>
     </g>
     <g id="text_4">
      <!-- 15 -->
      <g transform="translate(371.953026 206.838437) scale(0.1 -0.1)">
       <use xlink:href="#DejaVuSans-31"/>
       <use xlink:href="#DejaVuSans-35" x="63.623047"/>
      </g>
     </g>
    </g>
    <g id="xtick_5">
     <g id="line2d_6">
      <g>
       <use xlink:href="#meef538bed0" x="471.470785" y="192.24" style="stroke: #000000; stroke-width: 0.8"/>
      </g>
     </g>
     <g id="text_5">
      <!-- 20 -->
      <g transform="translate(465.108285 206.838437) scale(0.1 -0.1)">
       <defs>
        <path id="DejaVuSans-32" d="M 1228 531 
L 3431 531 
L 3431 0 
L 469 0 
L 469 531 
Q 828 903 1448 1529 
Q 2069 2156 2228 2338 
Q 2531 2678 2651 2914 
Q 2772 3150 2772 3378 
Q 2772 3750 2511 3984 
Q 2250 4219 1831 4219 
Q 1534 4219 1204 4116 
Q 875 4013 500 3803 
L 500 4441 
Q 881 4594 1212 4672 
Q 1544 4750 1819 4750 
Q 2544 4750 2975 4387 
Q 3406 4025 3406 3419 
Q 3406 3131 3298 2873 
Q 3191 2616 2906 2266 
Q 2828 2175 2409 1742 
Q 1991 1309 1228 531 
z
" transform="scale(0.015625)"/>
       </defs>
       <use xlink:href="#DejaVuSans-32"/>
       <use xlink:href="#DejaVuSans-30" x="63.623047"/>
      </g>
     </g>
    </g>
    <g id="xtick_6">
     <g id="line2d_7">
      <g>
       <use xlink:href="#meef538bed0" x="564.626043" y="192.24" style="stroke: #000000; stroke-width: 0.8"/>
      </g>
     </g>
     <g id="text_6">
      <!-- 25 -->
      <g transform="translate(558.263543 206.838437) scale(0.1 -0.1)">
       <use xlink:href="#DejaVuSans-32"/>
       <use xlink:href="#DejaVuSans-35" x="63.623047"/>
      </g>
     </g>
    </g>
   </g>
   <g id="matplotlib.axis_2">
    <g id="ytick_1">
     <g id="line2d_8">
      <defs>
       <path id="m8f89d26042" d="M 0 0 
L -3.5 0 
" style="stroke: #000000; stroke-width: 0.8"/>
      </defs>
      <g>
       <use xlink:href="#m8f89d26042" x="90" y="170.315625" style="stroke: #000000; stroke-width: 0.8"/>
      </g>
     </g>
     <g id="text_7">
      <!-- 0.0075 -->
      <g transform="translate(39.629687 174.114843) scale(0.1 -0.1)">
       <defs>
        <path id="DejaVuSans-2212" d="M 678 2272 
L 4684 2272 
L 4684 1741 
L 678 1741 
L 678 2272 
z
" transform="scale(0.015625)"/>
        <path id="DejaVuSans-2e" d="M 684 794 
L 1344 794 
L 1344 0 
L 684 0 
L 684 794 
z
" transform="scale(0.015625)"/>
        <path id="DejaVuSans-37" d="M 525 4666 
L 3525 4666 
L 3525 4397 
L 1831 0 
L 1172 0 
L 2766 4134 
L 525 4134 
L 525 4666 
z
" transform="scale(0.015625)"/>
       </defs>
       <use xlink:href="#DejaVuSans-2212"/>
       <use xlink:href="#DejaVuSans-30" x="83.789062"/>
       <use xlink:href="#DejaVuSans-2e" x="147.412109"/>
       <use xlink:href="#DejaVuSans-30" x="179.199219"/>
       <use xlink:href="#DejaVuSans-30" x="242.822266"/>
       <use xlink:href="#DejaVuSans-37" x="306.445312"/>
       <use xlink:href="#DejaVuSans-35" x="370.068359"/>
      </g>
     </g>
    </g>
    <g id="ytick_2">
     <g id="line2d_9">
      <g>
       <use xlink:href="#m8f89d26042" x="90" y="144.450697" style="stroke: #000000; stroke-width: 0.8"/>
      </g>
     </g>
     <g id="text_8">
      <!-- 0.0050 -->
      <g transform="translate(39.629687 148.249916) scale(0.1 -0.1)">
       <use xlink:href="#DejaVuSans-2212"/>
       <use xlink:href="#DejaVuSans-30" x="83.789062"/>
       <use xlink:href="#DejaVuSans-2e" x="147.412109"/>
       <use xlink:href="#DejaVuSans-30" x="179.199219"/>
       <use xlink:href="#DejaVuSans-30" x="242.822266"/>
       <use xlink:href="#DejaVuSans-35" x="306.445312"/>
       <use xlink:href="#DejaVuSans-30" x="370.068359"/>
      </g>
     </g>
    </g>
    <g id="ytick_3">
     <g id="line2d_10">
      <g>
       <use xlink:href="#m8f89d26042" x="90" y="118.585769" style="stroke: #000000; stroke-width: 0.8"/>
      </g>
     </g>
     <g id="text_9">
      <!-- 0.0025 -->
      <g transform="translate(39.629687 122.384988) scale(0.1 -0.1)">
       <use xlink:href="#DejaVuSans-2212"/>
       <use xlink:href="#DejaVuSans-30" x="83.789062"/>
       <use xlink:href="#DejaVuSans-2e" x="147.412109"/>
       <use xlink:href="#DejaVuSans-30" x="179.199219"/>
       <use xlink:href="#DejaVuSans-30" x="242.822266"/>
       <use xlink:href="#DejaVuSans-32" x="306.445312"/>
       <use xlink:href="#DejaVuSans-35" x="370.068359"/>
      </g>
     </g>
    </g>
    <g id="ytick_4">
     <g id="line2d_11">
      <g>
       <use xlink:href="#m8f89d26042" x="90" y="92.720842" style="stroke: #000000; stroke-width: 0.8"/>
      </g>
     </g>
     <g id="text_10">
      <!-- 0.0000 -->
      <g transform="translate(48.009375 96.52006) scale(0.1 -0.1)">
       <use xlink:href="#DejaVuSans-30"/>
       <use xlink:href="#DejaVuSans-2e" x="63.623047"/>
       <use xlink:href="#DejaVuSans-30" x="95.410156"/>
       <use xlink:href="#DejaVuSans-30" x="159.033203"/>
       <use xlink:href="#DejaVuSans-30" x="222.65625"/>
       <use xlink:href="#DejaVuSans-30" x="286.279297"/>
      </g>
     </g>
    </g>
    <g id="ytick_5">
     <g id="line2d_12">
      <g>
       <use xlink:href="#m8f89d26042" x="90" y="66.855914" style="stroke: #000000; stroke-width: 0.8"/>
      </g>
     </g>
     <g id="text_11">
      <!-- 0.0025 -->
      <g transform="translate(48.009375 70.655133) scale(0.1 -0.1)">
       <use xlink:href="#DejaVuSans-30"/>
       <use xlink:href="#DejaVuSans-2e" x="63.623047"/>
       <use xlink:href="#DejaVuSans-30" x="95.410156"/>
       <use xlink:href="#DejaVuSans-30" x="159.033203"/>
       <use xlink:href="#DejaVuSans-32" x="222.65625"/>
       <use xlink:href="#DejaVuSans-35" x="286.279297"/>
      </g>
     </g>
    </g>
    <g id="ytick_6">
     <g id="line2d_13">
      <g>
       <use xlink:href="#m8f89d26042" x="90" y="40.990986" style="stroke: #000000; stroke-width: 0.8"/>
      </g>
     </g>
     <g id="text_12">
      <!-- 0.0050 -->
      <g transform="translate(48.009375 44.790205) scale(0.1 -0.1)">
       <use xlink:href="#DejaVuSans-30"/>
       <use xlink:href="#DejaVuSans-2e" x="63.623047"/>
       <use xlink:href="#DejaVuSans-30" x="95.410156"/>
       <use xlink:href="#DejaVuSans-30" x="159.033203"/>
       <use xlink:href="#DejaVuSans-35" x="222.65625"/>
       <use xlink:href="#DejaVuSans-30" x="286.279297"/>
      </g>
     </g>
    </g>
   </g>
  </g>
 </g>
 <defs>
  <clipPath id="p5cbcba7fd8">
   <rect x="90" y="25.92" width="558" height="166.32"/>
  </clipPath>
 </defs>
</svg>
