<?xml version="1.0" encoding="utf-8" standalone="no"?>
<!DOCTYPE svg PUBLIC "-//W3C//DTD SVG 1.1//EN"
  "http://www.w3.org/Graphics/SVG/1.1/DTD/svg11.dtd">
<svg xmlns:xlink="http://www.w3.org/1999/xlink" width="720pt" height="216pt" viewBox="0 0 720 216" xmlns="http://www.w3.org/2000/svg" version="1.1">
 <metadata>
  <rdf:RDF xmlns:dc="http://purl.org/dc/elements/1.1/" xmlns:cc="http://creativecommons.org/ns#" xmlns:rdf="http://www.w3.org/1999/02/22-rdf-syntax-ns#">
   <cc:Work>
    <dc:type rdf:resource="http://purl.org/dc/dcmitype/StillImage"/>
    <dc:date>2024-11-23T04:44:59.159097</dc:date>
    <dc:format>image/svg+xml</dc:format>
    <dc:creator>
     <cc:Agent>
      <dc:title>Matplotlib v3.7.2, https://matplotlib.org/</dc:title>
     </cc:Agent>
    </dc:creator>
   </cc:Work>
  </rdf:RDF>
 </metadata>
 <defs>
  <style type="text/css">*{stroke-linejoin: round; stroke-linecap: butt}</style>
 </defs>
 <g id="figure_1">
  <g id="patch_1">
   <path d="M 0 216 
L 720 216 
L 720 0 
L 0 0 
z
" style="fill: #ffffff"/>
  </g>
  <g id="axes_1">
   <g id="patch_2">
    <path d="M 90 192.24 
L 648 192.24 
L 648 25.92 
L 90 25.92 
z
" style="fill: #ffffff"/>
   </g>
   <g id="line2d_1">
    <path d="M 90 42.302451 
L 648 42.302451 
" clip-path="url(#pedb1a54024)" style="fill: none; stroke: #000000; stroke-width: 0.5; stroke-linecap: square"/>
   </g>
   <g id="patch_3">
    <path d="M 117.973615 42.244416 
Q 115.63367 42.273182 113.103429 42.287733 
Q 110.573188 42.302451 107.817409 42.302451 
Q 99.599411 42.302451 94.799706 42.193406 
Q 90 42.084362 90 41.897882 
Q 90 41.710734 94.799706 41.601857 
Q 99.599411 41.492813 107.817409 41.492813 
Q 110.573188 41.492813 113.103429 41.50753 
Q 115.63367 41.522081 117.973615 41.550847 
L 117.973615 41.712239 
Q 115.612526 41.674107 113.321918 41.656379 
Q 111.031309 41.638651 108.501068 41.638651 
Q 103.962139 41.638651 101.361418 41.707724 
Q 98.767744 41.776629 98.767744 41.897882 
Q 98.767744 42.018634 101.361418 42.087707 
Q 103.962139 42.156612 108.501068 42.156612 
Q 111.031309 42.156612 113.321918 42.138884 
Q 115.612526 42.120989 117.973615 42.082857 
L 117.973615 42.244416 
z
" clip-path="url(#pedb1a54024)" style="fill: #0000ff"/>
   </g>
   <g id="patch_4">
    <path d="M 109.377348 41.044247 
L 98.619145 41.044247 
L 96.920481 41.492813 
L 90 41.492813 
L 99.883134 39.030449 
L 108.090481 39.030449 
L 117.973615 41.492813 
L 111.058853 41.492813 
L 109.377348 41.044247 
z
M 100.334967 40.587237 
L 107.644368 40.587237 
L 103.995386 39.60778 
L 100.334967 40.587237 
z
" clip-path="url(#pedb1a54024)" style="fill: #008000"/>
   </g>
   <g id="patch_5">
    <path d="M 90 34.097473 
L 117.973615 34.097473 
L 117.973615 35.059541 
L 107.909619 35.059541 
L 107.909619 39.030449 
L 100.083512 39.030449 
L 100.083512 35.059541 
L 90 35.059541 
L 90 34.097473 
z
" clip-path="url(#pedb1a54024)" style="fill: #ff0000"/>
   </g>
   <g id="patch_6">
    <path d="M 138.823258 42.268584 
L 128.065055 42.268584 
L 126.366392 42.302451 
L 119.44591 42.302451 
L 129.329044 42.116546 
L 137.536391 42.116546 
L 147.419525 42.302451 
L 140.504763 42.302451 
L 138.823258 42.268584 
z
M 129.780877 42.234081 
L 137.090278 42.234081 
L 133.441297 42.160133 
L 129.780877 42.234081 
z
" clip-path="url(#pedb1a54024)" style="fill: #008000"/>
   </g>
   <g id="patch_7">
    <path d="M 147.419525 41.886917 
Q 145.07958 42.000739 142.549339 42.058311 
Q 140.019098 42.116546 137.26332 42.116546 
Q 129.045322 42.116546 124.245616 41.685082 
Q 119.44591 41.253619 119.44591 40.515763 
Q 119.44591 39.775261 124.245616 39.344459 
Q 129.045322 38.912995 137.26332 38.912995 
Q 140.019098 38.912995 142.549339 38.97123 
Q 145.07958 39.028802 147.419525 39.142624 
L 147.419525 39.781216 
Q 145.058436 39.630336 142.767828 39.560191 
Q 140.47722 39.490045 137.946978 39.490045 
Q 133.40805 39.490045 130.807328 39.763349 
Q 128.213655 40.035992 128.213655 40.515763 
Q 128.213655 40.993549 130.807328 41.266854 
Q 133.40805 41.539496 137.946978 41.539496 
Q 140.47722 41.539496 142.767828 41.469351 
Q 145.058436 41.398543 147.419525 41.247663 
L 147.419525 41.886917 
z
" clip-path="url(#pedb1a54024)" style="fill: #0000ff"/>
   </g>
   <g id="patch_8">
    <path d="M 119.44591 32.396852 
L 147.419525 32.396852 
L 147.419525 33.667682 
L 137.355529 33.667682 
L 137.355529 38.912995 
L 129.529423 38.912995 
L 129.529423 33.667682 
L 119.44591 33.667682 
L 119.44591 32.396852 
z
" clip-path="url(#pedb1a54024)" style="fill: #ff0000"/>
   </g>
   <g id="patch_9">
    <path d="M 168.269168 42.118773 
L 157.510965 42.118773 
L 155.812302 42.302451 
L 148.891821 42.302451 
L 158.774954 41.294168 
L 166.982302 41.294168 
L 176.865435 42.302451 
L 169.950673 42.302451 
L 168.269168 42.118773 
z
M 159.226787 41.931638 
L 166.536188 41.931638 
L 162.887207 41.530572 
L 159.226787 41.931638 
z
" clip-path="url(#pedb1a54024)" style="fill: #008000"/>
   </g>
   <g id="patch_10">
    <path d="M 148.891821 39.276409 
L 176.865435 39.276409 
L 176.865435 39.669928 
L 166.80144 39.669928 
L 166.80144 41.294168 
L 158.975333 41.294168 
L 158.975333 39.669928 
L 148.891821 39.669928 
L 148.891821 39.276409 
z
" clip-path="url(#pedb1a54024)" style="fill: #ff0000"/>
   </g>
   <g id="patch_11">
    <path d="M 176.865435 38.98672 
Q 174.525491 39.130312 171.995249 39.202943 
Q 169.465008 39.276409 166.70923 39.276409 
Q 158.491232 39.276409 153.691526 38.732094 
Q 148.891821 38.187779 148.891821 37.256934 
Q 148.891821 36.322749 153.691526 35.779269 
Q 158.491232 35.234954 166.70923 35.234954 
Q 169.465008 35.234954 171.995249 35.30842 
Q 174.525491 35.381051 176.865435 35.524643 
L 176.865435 36.330263 
Q 174.504347 36.139919 172.213738 36.051427 
Q 169.92313 35.962934 167.392889 35.962934 
Q 162.85396 35.962934 160.253238 36.307722 
Q 157.659565 36.651676 157.659565 37.256934 
Q 157.659565 37.859687 160.253238 38.204476 
Q 162.85396 38.548429 167.392889 38.548429 
Q 169.92313 38.548429 172.213738 38.459937 
Q 174.504347 38.370609 176.865435 38.180266 
L 176.865435 38.98672 
z
" clip-path="url(#pedb1a54024)" style="fill: #0000ff"/>
   </g>
   <g id="patch_12">
    <path d="M 206.311346 42.142698 
Q 203.971401 42.221884 201.44116 42.261937 
Q 198.910918 42.302451 196.15514 42.302451 
Q 187.937142 42.302451 183.137437 42.002282 
Q 178.337731 41.702113 178.337731 41.188788 
Q 178.337731 40.673622 183.137437 40.373913 
Q 187.937142 40.073745 196.15514 40.073745 
Q 198.910918 40.073745 201.44116 40.114258 
Q 203.971401 40.154312 206.311346 40.233497 
L 206.311346 40.677765 
Q 203.950257 40.572798 201.659649 40.523998 
Q 199.36904 40.475197 196.838799 40.475197 
Q 192.29987 40.475197 189.699149 40.665335 
Q 187.105475 40.855012 187.105475 41.188788 
Q 187.105475 41.521184 189.699149 41.711321 
Q 192.29987 41.900998 196.838799 41.900998 
Q 199.36904 41.900998 201.659649 41.852198 
Q 203.950257 41.802937 206.311346 41.69797 
L 206.311346 42.142698 
z
" clip-path="url(#pedb1a54024)" style="fill: #0000ff"/>
   </g>
   <g id="patch_13">
    <path d="M 197.715078 39.06981 
L 186.956876 39.06981 
L 185.258212 40.073745 
L 178.337731 40.073745 
L 188.220864 34.562734 
L 196.428212 34.562734 
L 206.311346 40.073745 
L 199.396584 40.073745 
L 197.715078 39.06981 
z
M 188.672698 38.046978 
L 195.982098 38.046978 
L 192.333117 35.854857 
L 188.672698 38.046978 
z
" clip-path="url(#pedb1a54024)" style="fill: #008000"/>
   </g>
   <g id="patch_14">
    <path d="M 178.337731 22.624107 
L 206.311346 22.624107 
L 206.311346 24.952472 
L 196.24735 24.952472 
L 196.24735 34.562734 
L 188.421243 34.562734 
L 188.421243 24.952472 
L 178.337731 24.952472 
L 178.337731 22.624107 
z
" clip-path="url(#pedb1a54024)" style="fill: #ff0000"/>
   </g>
   <g id="patch_15">
    <path d="M 227.160989 41.588231 
L 216.402786 41.588231 
L 214.704122 42.302451 
L 207.783641 42.302451 
L 217.666775 38.381803 
L 225.874122 38.381803 
L 235.757256 42.302451 
L 228.842494 42.302451 
L 227.160989 41.588231 
z
M 218.118608 40.860567 
L 225.428009 40.860567 
L 221.779028 39.301046 
L 218.118608 40.860567 
z
" clip-path="url(#pedb1a54024)" style="fill: #008000"/>
   </g>
   <g id="patch_16">
    <path d="M 207.783641 32.701924 
L 235.757256 32.701924 
L 235.757256 33.809659 
L 225.69326 33.809659 
L 225.69326 38.381803 
L 217.867153 38.381803 
L 217.867153 33.809659 
L 207.783641 33.809659 
L 207.783641 32.701924 
z
" clip-path="url(#pedb1a54024)" style="fill: #ff0000"/>
   </g>
   <g id="patch_17">
    <path d="M 237.229551 42.21108 
L 265.203166 42.21108 
L 265.203166 42.2289 
L 255.13917 42.2289 
L 255.13917 42.302451 
L 247.313064 42.302451 
L 247.313064 42.2289 
L 237.229551 42.2289 
L 237.229551 42.21108 
z
" clip-path="url(#pedb1a54024)" style="fill: #ff0000"/>
   </g>
   <g id="patch_18">
    <path d="M 265.203166 42.153521 
Q 262.863222 42.182052 260.33298 42.196483 
Q 257.802739 42.21108 255.046961 42.21108 
Q 246.828963 42.21108 242.029257 42.102929 
Q 237.229551 41.994778 237.229551 41.809827 
Q 237.229551 41.624212 242.029257 41.516227 
Q 246.828963 41.408076 255.046961 41.408076 
Q 257.802739 41.408076 260.33298 41.422673 
Q 262.863222 41.437104 265.203166 41.465635 
L 265.203166 41.625705 
Q 262.842078 41.587885 260.551469 41.570303 
Q 258.260861 41.55272 255.730619 41.55272 
Q 251.191691 41.55272 248.590969 41.621226 
Q 245.997296 41.689567 245.997296 41.809827 
Q 245.997296 41.929589 248.590969 41.998096 
Q 251.191691 42.066436 255.730619 42.066436 
Q 258.260861 42.066436 260.551469 42.048853 
Q 262.842078 42.031105 265.203166 41.993285 
L 265.203166 42.153521 
z
" clip-path="url(#pedb1a54024)" style="fill: #0000ff"/>
   </g>
   <g id="patch_19">
    <path d="M 266.675462 42.270473 
L 294.649077 42.270473 
L 294.649077 42.276709 
L 284.585081 42.276709 
L 284.585081 42.302451 
L 276.758974 42.302451 
L 276.758974 42.276709 
L 266.675462 42.276709 
L 266.675462 42.270473 
z
" clip-path="url(#pedb1a54024)" style="fill: #ff0000"/>
   </g>
   <g id="patch_20">
    <path d="M 294.649077 42.256766 
Q 292.309132 42.26356 289.778891 42.266997 
Q 287.248649 42.270473 284.492871 42.270473 
Q 276.274873 42.270473 271.475167 42.244718 
Q 266.675462 42.218963 266.675462 42.174919 
Q 266.675462 42.130717 271.475167 42.105001 
Q 276.274873 42.079246 284.492871 42.079246 
Q 287.248649 42.079246 289.778891 42.082722 
Q 292.309132 42.086159 294.649077 42.092953 
L 294.649077 42.131072 
Q 292.287988 42.122066 289.997379 42.117879 
Q 287.706771 42.113691 285.17653 42.113691 
Q 280.637601 42.113691 278.036879 42.130006 
Q 275.443206 42.14628 275.443206 42.174919 
Q 275.443206 42.203439 278.036879 42.219753 
Q 280.637601 42.236028 285.17653 42.236028 
Q 287.706771 42.236028 289.997379 42.23184 
Q 292.287988 42.227614 294.649077 42.218607 
L 294.649077 42.256766 
z
" clip-path="url(#pedb1a54024)" style="fill: #0000ff"/>
   </g>
   <g id="patch_21">
    <path d="M 324.094987 42.301146 
Q 321.755042 42.301793 319.224801 42.30212 
Q 316.69456 42.302451 313.938781 42.302451 
Q 305.720783 42.302451 300.921078 42.299999 
Q 296.121372 42.297548 296.121372 42.293356 
Q 296.121372 42.289149 300.921078 42.286701 
Q 305.720783 42.28425 313.938781 42.28425 
Q 316.69456 42.28425 319.224801 42.284581 
Q 321.755042 42.284908 324.094987 42.285554 
L 324.094987 42.289182 
Q 321.733898 42.288325 319.44329 42.287927 
Q 317.152681 42.287528 314.62244 42.287528 
Q 310.083511 42.287528 307.48279 42.289081 
Q 304.889116 42.29063 304.889116 42.293356 
Q 304.889116 42.29607 307.48279 42.297623 
Q 310.083511 42.299172 314.62244 42.299172 
Q 317.152681 42.299172 319.44329 42.298774 
Q 321.733898 42.298371 324.094987 42.297514 
L 324.094987 42.301146 
z
" clip-path="url(#pedb1a54024)" style="fill: #0000ff"/>
   </g>
   <g id="patch_22">
    <path d="M 296.121372 41.788427 
L 324.094987 41.788427 
L 324.094987 41.885127 
L 314.030991 41.885127 
L 314.030991 42.28425 
L 306.204884 42.28425 
L 306.204884 41.885127 
L 296.121372 41.885127 
L 296.121372 41.788427 
z
" clip-path="url(#pedb1a54024)" style="fill: #ff0000"/>
   </g>
   <g id="patch_23">
    <path d="M 353.540897 42.219827 
Q 351.200953 42.260782 348.670711 42.281497 
Q 346.14047 42.302451 343.384692 42.302451 
Q 335.166694 42.302451 330.366988 42.147205 
Q 325.567282 41.991959 325.567282 41.72647 
Q 325.567282 41.460028 330.366988 41.30502 
Q 335.166694 41.149774 343.384692 41.149774 
Q 346.14047 41.149774 348.670711 41.170728 
Q 351.200953 41.191443 353.540897 41.232397 
L 353.540897 41.462171 
Q 351.179808 41.407882 348.8892 41.382643 
Q 346.598592 41.357404 344.06835 41.357404 
Q 339.529422 41.357404 336.9287 41.455742 
Q 334.335027 41.553842 334.335027 41.72647 
Q 334.335027 41.898383 336.9287 41.996721 
Q 339.529422 42.094821 344.06835 42.094821 
Q 346.598592 42.094821 348.8892 42.069582 
Q 351.179808 42.044104 353.540897 41.989816 
L 353.540897 42.219827 
z
" clip-path="url(#pedb1a54024)" style="fill: #0000ff"/>
   </g>
   <g id="patch_24">
    <path d="M 412.432718 42.271205 
Q 409.611533 42.286828 406.577192 42.294675 
Q 403.542851 42.302451 400.307892 42.302451 
Q 392.997889 42.302451 388.728496 42.255939 
Q 384.459103 42.209427 384.459103 42.129887 
Q 384.459103 42.049419 388.803728 42.003264 
Q 393.154621 41.957109 400.721666 41.957109 
Q 403.63689 41.957109 406.307612 41.963387 
Q 408.984603 41.969593 411.354398 41.981863 
L 411.354398 42.050703 
Q 408.909371 42.034937 406.489422 42.027162 
Q 404.069472 42.019315 401.636984 42.019315 
Q 397.135627 42.019315 394.696869 42.047992 
Q 392.258112 42.076598 392.258112 42.129887 
Q 392.258112 42.182676 394.609099 42.211496 
Q 396.960086 42.240245 401.285903 42.240245 
Q 402.464531 42.240245 403.473889 42.238604 
Q 404.483246 42.236892 405.285716 42.233325 
L 405.285716 42.168694 
L 400.677781 42.168694 
L 400.677781 42.111125 
L 412.432718 42.111125 
L 412.432718 42.271205 
z
" clip-path="url(#pedb1a54024)" style="fill: #ffa600"/>
   </g>
   <g id="patch_25">
    <path d="M 433.282361 42.301618 
L 422.524158 42.301618 
L 420.825494 42.302451 
L 413.905013 42.302451 
L 423.788147 42.297881 
L 431.995494 42.297881 
L 441.878628 42.302451 
L 434.963866 42.302451 
L 433.282361 42.301618 
z
M 424.23998 42.30077 
L 431.549381 42.30077 
L 427.9004 42.298953 
L 424.23998 42.30077 
z
" clip-path="url(#pedb1a54024)" style="fill: #008000"/>
   </g>
   <g id="patch_26">
    <path d="M 492.174181 42.291054 
L 481.415979 42.291054 
L 479.717315 42.302451 
L 472.796834 42.302451 
L 482.679967 42.239888 
L 490.887315 42.239888 
L 500.770449 42.302451 
L 493.855687 42.302451 
L 492.174181 42.291054 
z
M 483.1318 42.279442 
L 490.441201 42.279442 
L 486.79222 42.254557 
L 483.1318 42.279442 
z
" clip-path="url(#pedb1a54024)" style="fill: #008000"/>
   </g>
   <g id="patch_27">
    <path d="M 521.620092 41.822558 
L 510.861889 41.822558 
L 509.163225 42.302451 
L 502.242744 42.302451 
L 512.125878 39.668124 
L 520.333225 39.668124 
L 530.216359 42.302451 
L 523.301597 42.302451 
L 521.620092 41.822558 
z
M 512.577711 41.333633 
L 519.887112 41.333633 
L 516.238131 40.285774 
L 512.577711 41.333633 
z
" clip-path="url(#pedb1a54024)" style="fill: #008000"/>
   </g>
   <g id="patch_28">
    <path d="M 559.662269 42.209958 
Q 556.841084 42.256204 553.806743 42.279433 
Q 550.772402 42.302451 547.537444 42.302451 
Q 540.22744 42.302451 535.958047 42.164767 
Q 531.688654 42.027084 531.688654 41.791628 
Q 531.688654 41.553428 536.033279 41.4168 
Q 540.384173 41.280173 547.951217 41.280173 
Q 550.866442 41.280173 553.537163 41.298756 
Q 556.214154 41.317128 558.58395 41.353449 
L 558.58395 41.557229 
Q 556.138923 41.51056 553.718973 41.487543 
Q 551.299023 41.464314 548.866535 41.464314 
Q 544.365178 41.464314 541.926421 41.549204 
Q 539.487663 41.633884 539.487663 41.791628 
Q 539.487663 41.947895 541.83865 42.033208 
Q 544.189638 42.11831 548.515454 42.11831 
Q 549.694083 42.11831 550.70344 42.113453 
Q 551.712797 42.108385 552.515268 42.097826 
L 552.515268 41.906505 
L 547.907332 41.906505 
L 547.907332 41.736091 
L 559.662269 41.736091 
L 559.662269 42.209958 
z
" clip-path="url(#pedb1a54024)" style="fill: #ffa600"/>
   </g>
   <g id="patch_29">
    <path d="M 551.066002 40.960003 
L 540.307799 40.960003 
L 538.609136 41.280173 
L 531.688654 41.280173 
L 541.571788 39.522626 
L 549.779136 39.522626 
L 559.662269 41.280173 
L 552.747507 41.280173 
L 551.066002 40.960003 
z
M 542.023621 40.633806 
L 549.333022 40.633806 
L 545.684041 39.934704 
L 542.023621 40.633806 
z
" clip-path="url(#pedb1a54024)" style="fill: #008000"/>
   </g>
   <g id="patch_30">
    <path d="M 531.688654 36.676876 
L 559.662269 36.676876 
L 559.662269 37.231877 
L 549.598273 37.231877 
L 549.598273 39.522626 
L 541.772167 39.522626 
L 541.772167 37.231877 
L 531.688654 37.231877 
L 531.688654 36.676876 
z
" clip-path="url(#pedb1a54024)" style="fill: #ff0000"/>
   </g>
   <g id="patch_31">
    <path d="M 561.134565 41.746106 
L 589.108179 41.746106 
L 589.108179 41.854609 
L 579.044184 41.854609 
L 579.044184 42.302451 
L 571.218077 42.302451 
L 571.218077 41.854609 
L 561.134565 41.854609 
L 561.134565 41.746106 
z
" clip-path="url(#pedb1a54024)" style="fill: #ff0000"/>
   </g>
   <g id="patch_32">
    <path d="M 580.511912 41.360998 
L 569.753709 41.360998 
L 568.055046 41.746106 
L 561.134565 41.746106 
L 571.017698 39.63209 
L 579.225046 39.63209 
L 589.108179 41.746106 
L 582.193418 41.746106 
L 580.511912 41.360998 
z
M 571.469531 40.968641 
L 578.778932 40.968641 
L 575.129951 40.127747 
L 571.469531 40.968641 
z
" clip-path="url(#pedb1a54024)" style="fill: #008000"/>
   </g>
   <g id="patch_33">
    <path d="M 590.580475 41.597028 
L 618.55409 41.597028 
L 618.55409 41.734605 
L 608.490094 41.734605 
L 608.490094 42.302451 
L 600.663987 42.302451 
L 600.663987 41.734605 
L 590.580475 41.734605 
L 590.580475 41.597028 
z
" clip-path="url(#pedb1a54024)" style="fill: #ff0000"/>
   </g>
   <g id="patch_34">
    <path d="M 609.957822 41.367002 
L 599.19962 41.367002 
L 597.500956 41.597028 
L 590.580475 41.597028 
L 600.463609 40.334325 
L 608.670956 40.334325 
L 618.55409 41.597028 
L 611.639328 41.597028 
L 609.957822 41.367002 
z
M 600.915442 41.132647 
L 608.224842 41.132647 
L 604.575861 40.630381 
L 600.915442 41.132647 
z
" clip-path="url(#pedb1a54024)" style="fill: #008000"/>
   </g>
   <g id="patch_35">
    <path d="M 639.403733 42.173783 
L 628.64553 42.173783 
L 626.946866 42.302451 
L 620.026385 42.302451 
L 629.909519 41.59614 
L 638.116866 41.59614 
L 648 42.302451 
L 641.085238 42.302451 
L 639.403733 42.173783 
z
M 630.361352 42.042693 
L 637.670753 42.042693 
L 634.021772 41.761743 
L 630.361352 42.042693 
z
" clip-path="url(#pedb1a54024)" style="fill: #008000"/>
   </g>
   <g id="patch_36">
    <path d="M 117.973615 42.539802 
Q 115.15243 42.421126 112.118089 42.361518 
Q 109.083748 42.302451 105.848789 42.302451 
Q 98.538786 42.302451 94.269393 42.655769 
Q 90 43.009087 90 43.613304 
Q 90 44.224567 94.344625 44.575175 
Q 98.695519 44.925784 106.262563 44.925784 
Q 109.177787 44.925784 111.848509 44.878097 
Q 114.5255 44.830952 116.895295 44.737745 
L 116.895295 44.214812 
Q 114.450268 44.334572 112.030319 44.393639 
Q 109.610369 44.453248 107.177881 44.453248 
Q 102.676524 44.453248 100.237766 44.235405 
Q 97.799009 44.018103 97.799009 43.613304 
Q 97.799009 43.212299 100.149996 42.993372 
Q 102.500983 42.774987 106.8268 42.774987 
Q 108.005428 42.774987 109.014786 42.78745 
Q 110.024143 42.800456 110.826613 42.827551 
L 110.826613 43.318511 
L 106.218678 43.318511 
L 106.218678 43.755824 
L 117.973615 43.755824 
L 117.973615 42.539802 
z
" clip-path="url(#pedb1a54024)" style="fill: #ffa600"/>
   </g>
   <g id="patch_37">
    <path d="M 147.419525 42.543669 
Q 144.59834 42.42306 141.563999 42.36248 
Q 138.529658 42.302451 135.2947 42.302451 
Q 127.984696 42.302451 123.715303 42.661524 
Q 119.44591 43.020598 119.44591 43.634659 
Q 119.44591 44.255879 123.790535 44.612199 
Q 128.141429 44.968519 135.708473 44.968519 
Q 138.623698 44.968519 141.294419 44.920055 
Q 143.97141 44.872142 146.341206 44.777417 
L 146.341206 44.245966 
Q 143.896179 44.367676 141.476229 44.427705 
Q 139.056279 44.488285 136.623791 44.488285 
Q 132.122434 44.488285 129.683677 44.266893 
Q 127.244919 44.046052 127.244919 43.634659 
Q 127.244919 43.227121 129.595906 43.004627 
Q 131.946894 42.782684 136.27271 42.782684 
Q 137.451339 42.782684 138.460696 42.795351 
Q 139.470053 42.808569 140.272524 42.836105 
L 140.272524 43.335063 
L 135.664588 43.335063 
L 135.664588 43.7795 
L 147.419525 43.7795 
L 147.419525 42.543669 
z
" clip-path="url(#pedb1a54024)" style="fill: #ffa600"/>
   </g>
   <g id="patch_38">
    <path d="M 176.865435 42.312757 
Q 174.044251 42.307604 171.00991 42.305015 
Q 167.975569 42.302451 164.74061 42.302451 
Q 157.430607 42.302451 153.161214 42.317792 
Q 148.891821 42.333134 148.891821 42.359371 
Q 148.891821 42.385913 153.236445 42.401137 
Q 157.587339 42.416361 165.154384 42.416361 
Q 168.069608 42.416361 170.74033 42.414291 
Q 173.417321 42.412243 175.787116 42.408196 
L 175.787116 42.385489 
Q 173.342089 42.39069 170.922139 42.393254 
Q 168.50219 42.395843 166.069701 42.395843 
Q 161.568344 42.395843 159.129587 42.386384 
Q 156.690829 42.376948 156.690829 42.359371 
Q 156.690829 42.341958 159.041817 42.332452 
Q 161.392804 42.322969 165.718621 42.322969 
Q 166.897249 42.322969 167.906606 42.32351 
Q 168.915963 42.324075 169.718434 42.325252 
L 169.718434 42.34657 
L 165.110499 42.34657 
L 165.110499 42.365559 
L 176.865435 42.365559 
L 176.865435 42.312757 
z
" clip-path="url(#pedb1a54024)" style="fill: #ffa600"/>
   </g>
   <g id="patch_39">
    <path d="M 206.311346 42.600654 
Q 203.490161 42.451552 200.45582 42.376661 
Q 197.421479 42.302451 194.18652 42.302451 
Q 186.876517 42.302451 182.607124 42.746351 
Q 178.337731 43.190252 178.337731 43.949376 
Q 178.337731 44.717351 182.682355 45.157847 
Q 187.033249 45.598344 194.600294 45.598344 
Q 197.515518 45.598344 200.18624 45.538431 
Q 202.863231 45.479199 205.233026 45.362096 
L 205.233026 44.705096 
Q 202.787999 44.855559 200.36805 44.92977 
Q 197.9481 45.004661 195.515612 45.004661 
Q 191.014255 45.004661 188.575497 44.730968 
Q 186.13674 44.457955 186.13674 43.949376 
Q 186.13674 43.445562 188.487727 43.170507 
Q 190.838714 42.896133 195.164531 42.896133 
Q 196.343159 42.896133 197.352517 42.911792 
Q 198.361874 42.928132 199.164344 42.962174 
L 199.164344 43.579005 
L 194.556409 43.579005 
L 194.556409 44.128434 
L 206.311346 44.128434 
L 206.311346 42.600654 
z
" clip-path="url(#pedb1a54024)" style="fill: #ffa600"/>
   </g>
   <g id="patch_40">
    <path d="M 235.757256 42.391356 
Q 233.417311 42.347287 230.88707 42.324997 
Q 228.356829 42.302451 225.601051 42.302451 
Q 217.383052 42.302451 212.583347 42.4695 
Q 207.783641 42.63655 207.783641 42.922225 
Q 207.783641 43.208925 212.583347 43.375719 
Q 217.383052 43.542768 225.601051 43.542768 
Q 228.356829 43.542768 230.88707 43.520222 
Q 233.417311 43.497931 235.757256 43.453863 
L 235.757256 43.206619 
Q 233.396167 43.265036 231.105559 43.292194 
Q 228.81495 43.319352 226.284709 43.319352 
Q 221.74578 43.319352 219.145059 43.213537 
Q 216.551385 43.107978 216.551385 42.922225 
Q 216.551385 42.737241 219.145059 42.631426 
Q 221.74578 42.525867 226.284709 42.525867 
Q 228.81495 42.525867 231.105559 42.553025 
Q 233.396167 42.58044 235.757256 42.638856 
L 235.757256 42.391356 
z
" clip-path="url(#pedb1a54024)" style="fill: #0000ff"/>
   </g>
   <g id="patch_41">
    <path d="M 235.757256 47.247416 
Q 232.936071 45.395092 229.90173 44.464701 
Q 226.867389 43.542768 223.632431 43.542768 
Q 216.322427 43.542768 212.053034 49.057449 
Q 207.783641 54.57213 207.783641 64.00291 
Q 207.783641 73.543646 212.128266 79.016036 
Q 216.47916 84.488427 224.046204 84.488427 
Q 226.961429 84.488427 229.63215 83.744114 
Q 232.309141 83.008259 234.678936 81.553466 
L 234.678936 73.3914 
Q 232.23391 75.26064 229.81396 76.182573 
Q 227.39401 77.112964 224.961522 77.112964 
Q 220.460165 77.112964 218.021407 73.712808 
Q 215.58265 70.32111 215.58265 64.00291 
Q 215.58265 57.743917 217.933637 54.326845 
Q 220.284625 50.918231 224.610441 50.918231 
Q 225.78907 50.918231 226.798427 51.112767 
Q 227.807784 51.315762 228.610254 51.738666 
L 228.610254 59.401704 
L 224.002319 59.401704 
L 224.002319 66.22739 
L 235.757256 66.22739 
L 235.757256 47.247416 
z
" clip-path="url(#pedb1a54024)" style="fill: #ffa600"/>
   </g>
   <g id="patch_42">
    <path d="M 256.606899 42.35761 
L 245.848696 42.35761 
L 244.150033 42.302451 
L 237.229551 42.302451 
L 247.112685 42.605244 
L 255.320033 42.605244 
L 265.203166 42.302451 
L 258.288404 42.302451 
L 256.606899 42.35761 
z
M 247.564518 42.413808 
L 254.873919 42.413808 
L 251.224938 42.53425 
L 247.564518 42.413808 
z
" clip-path="url(#pedb1a54024)" style="fill: #008000"/>
   </g>
   <g id="patch_43">
    <path d="M 265.203166 49.695435 
Q 262.381981 46.150339 259.34764 44.369698 
Q 256.313299 42.605244 253.078341 42.605244 
Q 245.768337 42.605244 241.498944 53.159592 
Q 237.229551 63.713941 237.229551 81.763172 
Q 237.229551 100.022843 241.574176 110.496254 
Q 245.92507 120.969664 253.492115 120.969664 
Q 256.407339 120.969664 259.078061 119.545151 
Q 261.755051 118.136825 264.124847 115.352549 
L 264.124847 99.731465 
Q 261.67982 103.308936 259.25987 105.07339 
Q 256.839921 106.854032 254.407432 106.854032 
Q 249.906075 106.854032 247.467318 100.346596 
Q 245.02856 93.855348 245.02856 81.763172 
Q 245.02856 69.78431 247.379547 63.244499 
Q 249.730535 56.720876 254.056352 56.720876 
Q 255.23498 56.720876 256.244337 57.093192 
Q 257.253694 57.481695 258.056165 58.291078 
L 258.056165 72.95709 
L 253.448229 72.95709 
L 253.448229 86.020525 
L 265.203166 86.020525 
L 265.203166 49.695435 
z
" clip-path="url(#pedb1a54024)" style="fill: #ffa600"/>
   </g>
   <g id="patch_44">
    <path d="M 286.052809 42.649773 
L 275.294607 42.649773 
L 273.595943 42.302451 
L 266.675462 42.302451 
L 276.558595 44.209048 
L 284.765943 44.209048 
L 294.649077 42.302451 
L 287.734315 42.302451 
L 286.052809 42.649773 
z
M 277.010428 43.003634 
L 284.319829 43.003634 
L 280.670848 43.762023 
L 277.010428 43.003634 
z
" clip-path="url(#pedb1a54024)" style="fill: #008000"/>
   </g>
   <g id="patch_45">
    <path d="M 294.649077 51.515203 
Q 291.827892 47.862126 288.793551 46.027247 
Q 285.75921 44.209048 282.524251 44.209048 
Q 275.214248 44.209048 270.944855 55.084877 
Q 266.675462 65.960706 266.675462 84.559707 
Q 266.675462 103.375558 271.020086 114.167983 
Q 275.37098 124.960409 282.938025 124.960409 
Q 285.853249 124.960409 288.523971 123.492505 
Q 291.200962 122.041283 293.570757 119.172199 
L 293.570757 103.075305 
Q 291.12573 106.761744 288.705781 108.579943 
Q 286.285831 110.414822 283.853343 110.414822 
Q 279.351986 110.414822 276.913228 103.709173 
Q 274.47447 97.020204 274.47447 84.559707 
Q 274.47447 72.215975 276.825458 65.476965 
Q 279.176445 58.754635 283.502262 58.754635 
Q 284.68089 58.754635 285.690247 59.138292 
Q 286.699605 59.538629 287.502075 60.372665 
L 287.502075 75.485396 
L 282.89414 75.485396 
L 282.89414 88.946736 
L 294.649077 88.946736 
L 294.649077 51.515203 
z
" clip-path="url(#pedb1a54024)" style="fill: #ffa600"/>
   </g>
   <g id="patch_46">
    <path d="M 315.49872 45.926649 
L 304.740517 45.926649 
L 303.041853 42.302451 
L 296.121372 42.302451 
L 306.004506 62.19717 
L 314.211853 62.19717 
L 324.094987 42.302451 
L 317.180225 42.302451 
L 315.49872 45.926649 
z
M 306.456339 49.619068 
L 313.76574 49.619068 
L 310.116759 57.532613 
L 306.456339 49.619068 
z
" clip-path="url(#pedb1a54024)" style="fill: #008000"/>
   </g>
   <g id="patch_47">
    <path d="M 324.094987 65.15353 
Q 321.273802 63.67535 318.239461 62.932885 
Q 315.20512 62.19717 311.970161 62.19717 
Q 304.660158 62.19717 300.390765 66.597961 
Q 296.121372 70.998751 296.121372 78.524643 
Q 296.121372 86.13828 300.465997 90.505322 
Q 304.816891 94.872364 312.383935 94.872364 
Q 315.299159 94.872364 317.969881 94.278392 
Q 320.646872 93.69117 323.016667 92.530225 
L 323.016667 86.016786 
Q 320.57164 87.508465 318.151691 88.24418 
Q 315.731741 88.986644 313.299253 88.986644 
Q 308.797896 88.986644 306.359138 86.273273 
Q 303.920381 83.566652 303.920381 78.524643 
Q 303.920381 73.52988 306.271368 70.80301 
Q 308.622355 68.08289 312.948172 68.08289 
Q 314.1268 68.08289 315.136158 68.238133 
Q 316.145515 68.400125 316.947985 68.737609 
L 316.947985 74.852817 
L 312.34005 74.852817 
L 312.34005 80.299808 
L 324.094987 80.299808 
L 324.094987 65.15353 
z
" clip-path="url(#pedb1a54024)" style="fill: #ffa600"/>
   </g>
   <g id="patch_48">
    <path d="M 344.94463 56.312895 
L 334.186427 56.312895 
L 332.487764 50.590074 
L 325.567282 50.590074 
L 335.450416 82.004992 
L 343.657764 82.004992 
L 353.540897 50.590074 
L 346.626135 50.590074 
L 344.94463 56.312895 
z
M 335.902249 62.143439 
L 343.21165 62.143439 
L 339.562669 74.639386 
L 335.902249 62.143439 
z
" clip-path="url(#pedb1a54024)" style="fill: #008000"/>
   </g>
   <g id="patch_49">
    <path d="M 353.540897 43.563568 
Q 350.719712 43.214078 347.685371 43.038535 
Q 344.65103 42.864588 341.416072 42.864588 
Q 334.106068 42.864588 329.836675 43.905079 
Q 325.567282 44.94557 325.567282 46.724937 
Q 325.567282 48.525051 329.911907 49.557563 
Q 334.262801 50.590074 341.829845 50.590074 
Q 344.74507 50.590074 347.415791 50.44964 
Q 350.092782 50.310801 352.462578 50.036316 
L 352.462578 48.496325 
Q 350.017551 48.849007 347.597601 49.022954 
Q 345.177651 49.198497 342.745163 49.198497 
Q 338.243806 49.198497 335.805049 48.556968 
Q 333.366291 47.917034 333.366291 46.724937 
Q 333.366291 45.544012 335.717278 44.89929 
Q 338.068266 44.256165 342.394082 44.256165 
Q 343.572711 44.256165 344.582068 44.292869 
Q 345.591425 44.33117 346.393896 44.410962 
L 346.393896 45.856798 
L 341.78596 45.856798 
L 341.78596 47.144645 
L 353.540897 47.144645 
L 353.540897 43.563568 
z
" clip-path="url(#pedb1a54024)" style="fill: #ffa600"/>
   </g>
   <g id="patch_50">
    <path d="M 325.567282 42.864588 
L 353.540897 42.864588 
L 353.540897 42.754955 
L 343.476901 42.754955 
L 343.476901 42.302451 
L 335.650795 42.302451 
L 335.650795 42.754955 
L 325.567282 42.754955 
L 325.567282 42.864588 
z
" clip-path="url(#pedb1a54024)" style="fill: #ff0000"/>
   </g>
   <g id="patch_51">
    <path d="M 374.39054 57.169637 
L 363.632337 57.169637 
L 361.933674 51.835897 
L 355.013193 51.835897 
L 364.896326 81.11499 
L 373.103674 81.11499 
L 382.986807 51.835897 
L 376.072046 51.835897 
L 374.39054 57.169637 
z
M 365.348159 62.603776 
L 372.65756 62.603776 
L 369.008579 74.250154 
L 365.348159 62.603776 
z
" clip-path="url(#pedb1a54024)" style="fill: #008000"/>
   </g>
   <g id="patch_52">
    <path d="M 382.986807 42.523857 
Q 380.646863 42.453396 378.116621 42.417756 
Q 375.58638 42.381706 372.830602 42.381706 
Q 364.612604 42.381706 359.812898 42.648802 
Q 355.013193 42.915898 355.013193 43.372666 
Q 355.013193 43.831071 359.812898 44.097758 
Q 364.612604 44.364854 372.830602 44.364854 
Q 375.58638 44.364854 378.116621 44.328804 
Q 380.646863 44.293164 382.986807 44.222703 
L 382.986807 43.827385 
Q 380.625719 43.920786 378.33511 43.96421 
Q 376.044502 44.007634 373.514261 44.007634 
Q 368.975332 44.007634 366.37461 43.838445 
Q 363.780937 43.669667 363.780937 43.372666 
Q 363.780937 43.076893 366.37461 42.907705 
Q 368.975332 42.738927 373.514261 42.738927 
Q 376.044502 42.738927 378.33511 42.78235 
Q 380.625719 42.826184 382.986807 42.919585 
L 382.986807 42.523857 
z
" clip-path="url(#pedb1a54024)" style="fill: #0000ff"/>
   </g>
   <g id="patch_53">
    <path d="M 382.986807 42.309621 
Q 380.165623 42.306036 377.131282 42.304235 
Q 374.096941 42.302451 370.861982 42.302451 
Q 363.551979 42.302451 359.282586 42.313125 
Q 355.013193 42.323799 355.013193 42.342054 
Q 355.013193 42.360521 359.357817 42.371114 
Q 363.708711 42.381706 371.275756 42.381706 
Q 374.19098 42.381706 376.861702 42.380265 
Q 379.538693 42.378841 381.908488 42.376025 
L 381.908488 42.360226 
Q 379.463461 42.363844 377.043511 42.365629 
Q 374.623562 42.36743 372.191073 42.36743 
Q 367.689716 42.36743 365.250959 42.360848 
Q 362.812201 42.354283 362.812201 42.342054 
Q 362.812201 42.329939 365.163189 42.323324 
Q 367.514176 42.316727 371.839993 42.316727 
Q 373.018621 42.316727 374.027978 42.317103 
Q 375.037336 42.317496 375.839806 42.318315 
L 375.839806 42.333148 
L 371.231871 42.333148 
L 371.231871 42.346359 
L 382.986807 42.346359 
L 382.986807 42.309621 
z
" clip-path="url(#pedb1a54024)" style="fill: #ffa600"/>
   </g>
   <g id="patch_54">
    <path d="M 355.013193 51.835897 
L 382.986807 51.835897 
L 382.986807 50.378836 
L 372.922812 50.378836 
L 372.922812 44.364854 
L 365.096705 44.364854 
L 365.096705 50.378836 
L 355.013193 50.378836 
L 355.013193 51.835897 
z
" clip-path="url(#pedb1a54024)" style="fill: #ff0000"/>
   </g>
   <g id="patch_55">
    <path d="M 403.83645 42.499455 
L 393.078248 42.499455 
L 391.379584 42.302451 
L 384.459103 42.302451 
L 394.342236 43.383888 
L 402.549584 43.383888 
L 412.432718 42.302451 
L 405.517956 42.302451 
L 403.83645 42.499455 
z
M 394.79407 42.700167 
L 402.10347 42.700167 
L 398.454489 43.130332 
L 394.79407 42.700167 
z
" clip-path="url(#pedb1a54024)" style="fill: #008000"/>
   </g>
   <g id="patch_56">
    <path d="M 412.432718 44.995214 
Q 410.092773 44.196517 407.562532 43.792524 
Q 405.03229 43.383888 402.276512 43.383888 
Q 394.058514 43.383888 389.258809 46.411509 
Q 384.459103 49.43913 384.459103 54.616733 
Q 384.459103 59.812911 389.258809 62.835888 
Q 394.058514 65.863509 402.276512 65.863509 
Q 405.03229 65.863509 407.562532 65.454873 
Q 410.092773 65.050881 412.432718 64.252183 
L 412.432718 59.771119 
Q 410.071629 60.829857 407.781021 61.322078 
Q 405.490412 61.814299 402.960171 61.814299 
Q 398.421242 61.814299 395.820521 59.896496 
Q 393.226847 57.983336 393.226847 54.616733 
Q 393.226847 51.264061 395.820521 49.346258 
Q 398.421242 47.433099 402.960171 47.433099 
Q 405.490412 47.433099 407.781021 47.92532 
Q 410.071629 48.422184 412.432718 49.480922 
L 412.432718 44.995214 
z
" clip-path="url(#pedb1a54024)" style="fill: #0000ff"/>
   </g>
   <g id="patch_57">
    <path d="M 384.459103 101.633934 
L 412.432718 101.633934 
L 412.432718 94.657705 
L 402.368722 94.657705 
L 402.368722 65.863509 
L 394.542615 65.863509 
L 394.542615 94.657705 
L 384.459103 94.657705 
L 384.459103 101.633934 
z
" clip-path="url(#pedb1a54024)" style="fill: #ff0000"/>
   </g>
   <g id="patch_58">
    <path d="M 441.878628 63.77119 
Q 439.538683 61.882835 437.008442 60.927679 
Q 434.478201 59.961545 431.722423 59.961545 
Q 423.504424 59.961545 418.704719 67.119725 
Q 413.905013 74.277906 413.905013 86.519273 
Q 413.905013 98.804555 418.704719 105.951757 
Q 423.504424 113.109937 431.722423 113.109937 
Q 434.478201 113.109937 437.008442 112.143803 
Q 439.538683 111.188647 441.878628 109.300292 
L 441.878628 98.705746 
Q 439.517539 101.208913 437.226931 102.372667 
Q 434.936322 103.53642 432.406081 103.53642 
Q 427.867152 103.53642 425.266431 99.002174 
Q 422.672757 94.478906 422.672757 86.519273 
Q 422.672757 78.592576 425.266431 74.05833 
Q 427.867152 69.535062 432.406081 69.535062 
Q 434.936322 69.535062 437.226931 70.698816 
Q 439.517539 71.873548 441.878628 74.376715 
L 441.878628 63.77119 
z
" clip-path="url(#pedb1a54024)" style="fill: #0000ff"/>
   </g>
   <g id="patch_59">
    <path d="M 441.878628 42.363374 
Q 439.057443 42.332912 436.023102 42.317612 
Q 432.988761 42.302451 429.753803 42.302451 
Q 422.443799 42.302451 418.174406 42.39314 
Q 413.905013 42.48383 413.905013 42.63892 
Q 413.905013 42.795818 418.249638 42.885812 
Q 422.600532 42.975807 430.167576 42.975807 
Q 433.082801 42.975807 435.753522 42.963566 
Q 438.430513 42.951465 440.800308 42.927541 
L 440.800308 42.793315 
Q 438.355282 42.824055 435.935332 42.839216 
Q 433.515382 42.854516 431.082894 42.854516 
Q 426.581537 42.854516 424.142779 42.7986 
Q 421.704022 42.742823 421.704022 42.63892 
Q 421.704022 42.53599 424.055009 42.479796 
Q 426.405997 42.423741 430.731813 42.423741 
Q 431.910442 42.423741 432.919799 42.42694 
Q 433.929156 42.430278 434.731626 42.437233 
L 434.731626 42.563253 
L 430.123691 42.563253 
L 430.123691 42.675502 
L 441.878628 42.675502 
L 441.878628 42.363374 
z
" clip-path="url(#pedb1a54024)" style="fill: #ffa600"/>
   </g>
   <g id="patch_60">
    <path d="M 413.905013 59.961545 
L 441.878628 59.961545 
L 441.878628 56.648852 
L 431.814632 56.648852 
L 431.814632 42.975807 
L 423.988525 42.975807 
L 423.988525 56.648852 
L 413.905013 56.648852 
L 413.905013 59.961545 
z
" clip-path="url(#pedb1a54024)" style="fill: #ff0000"/>
   </g>
   <g id="patch_61">
    <path d="M 471.324538 54.178602 
Q 468.984594 49.102854 466.454352 46.53547 
Q 463.924111 43.938576 461.168333 43.938576 
Q 452.950335 43.938576 448.150629 63.179202 
Q 443.350923 82.419828 443.350923 115.32366 
Q 443.350923 148.345532 448.150629 167.556648 
Q 452.950335 186.797274 461.168333 186.797274 
Q 463.924111 186.797274 466.454352 184.20038 
Q 468.984594 181.632996 471.324538 176.557248 
L 471.324538 148.07994 
Q 468.96345 154.808258 466.672841 157.936335 
Q 464.382233 161.064412 461.851991 161.064412 
Q 457.313063 161.064412 454.712341 148.876715 
Q 452.118668 136.718528 452.118668 115.32366 
Q 452.118668 94.017322 454.712341 81.829625 
Q 457.313063 69.671438 461.851991 69.671438 
Q 464.382233 69.671438 466.672841 72.799515 
Q 468.96345 75.957103 471.324538 82.68542 
L 471.324538 54.178602 
z
" clip-path="url(#pedb1a54024)" style="fill: #0000ff"/>
   </g>
   <g id="patch_62">
    <path d="M 443.350923 43.938576 
L 471.324538 43.938576 
L 471.324538 43.619486 
L 461.260542 43.619486 
L 461.260542 42.302451 
L 453.434436 42.302451 
L 453.434436 43.619486 
L 443.350923 43.619486 
L 443.350923 43.938576 
z
" clip-path="url(#pedb1a54024)" style="fill: #ff0000"/>
   </g>
   <g id="patch_63">
    <path d="M 500.770449 53.054369 
Q 498.430504 47.724888 495.900263 45.029162 
Q 493.370021 42.302451 490.614243 42.302451 
Q 482.396245 42.302451 477.596539 62.504903 
Q 472.796834 82.707356 472.796834 117.256028 
Q 472.796834 151.928642 477.596539 172.10011 
Q 482.396245 192.302562 490.614243 192.302562 
Q 493.370021 192.302562 495.900263 189.575851 
Q 498.430504 186.880125 500.770449 181.550643 
L 500.770449 151.649774 
Q 498.40936 158.714436 496.118751 161.998883 
Q 493.828143 165.283331 491.297902 165.283331 
Q 486.758973 165.283331 484.158252 152.486379 
Q 481.564578 139.720412 481.564578 117.256028 
Q 481.564578 94.884601 484.158252 82.087648 
Q 486.758973 69.321682 491.297902 69.321682 
Q 493.828143 69.321682 496.118751 72.606129 
Q 498.40936 75.921563 500.770449 82.986224 
L 500.770449 53.054369 
z
" clip-path="url(#pedb1a54024)" style="fill: #0000ff"/>
   </g>
   <g id="patch_64">
    <path d="M 530.216359 48.966565 
Q 527.876414 45.724106 525.346173 44.084026 
Q 522.815932 42.425094 520.060154 42.425094 
Q 511.842155 42.425094 507.04245 54.716273 
Q 502.242744 67.007453 502.242744 88.026878 
Q 502.242744 109.12171 507.04245 121.394038 
Q 511.842155 133.685218 520.060154 133.685218 
Q 522.815932 133.685218 525.346173 132.026285 
Q 527.876414 130.386205 530.216359 127.143746 
L 530.216359 108.952046 
Q 527.85527 113.250189 525.564662 115.248448 
Q 523.274053 117.246707 520.743812 117.246707 
Q 516.204883 117.246707 513.604162 109.461037 
Q 511.010488 101.694218 511.010488 88.026878 
Q 511.010488 74.416093 513.604162 66.630423 
Q 516.204883 58.863604 520.743812 58.863604 
Q 523.274053 58.863604 525.564662 60.861863 
Q 527.85527 62.878974 530.216359 67.177116 
L 530.216359 48.966565 
z
" clip-path="url(#pedb1a54024)" style="fill: #0000ff"/>
   </g>
   <g id="patch_65">
    <path d="M 530.216359 42.360744 
Q 527.395174 42.357543 524.360833 42.355936 
Q 521.326492 42.354343 518.091533 42.354343 
Q 510.78153 42.354343 506.512137 42.363872 
Q 502.242744 42.3734 502.242744 42.389696 
Q 502.242744 42.406182 506.587369 42.415638 
Q 510.938263 42.425094 518.505307 42.425094 
Q 521.420532 42.425094 524.091253 42.423807 
Q 526.768244 42.422536 529.138039 42.420022 
L 529.138039 42.405919 
Q 526.693012 42.409149 524.273063 42.410742 
Q 521.853113 42.412349 519.420625 42.412349 
Q 514.919268 42.412349 512.48051 42.406474 
Q 510.041753 42.400613 510.041753 42.389696 
Q 510.041753 42.378881 512.39274 42.372977 
Q 514.743727 42.367087 519.069544 42.367087 
Q 520.248172 42.367087 521.25753 42.367423 
Q 522.266887 42.367774 523.069357 42.368504 
L 523.069357 42.381746 
L 518.461422 42.381746 
L 518.461422 42.39354 
L 530.216359 42.39354 
L 530.216359 42.360744 
z
" clip-path="url(#pedb1a54024)" style="fill: #ffa600"/>
   </g>
   <g id="patch_66">
    <path d="M 502.242744 42.354343 
L 530.216359 42.354343 
L 530.216359 42.344222 
L 520.152363 42.344222 
L 520.152363 42.302451 
L 512.326256 42.302451 
L 512.326256 42.344222 
L 502.242744 42.344222 
L 502.242744 42.354343 
z
" clip-path="url(#pedb1a54024)" style="fill: #ff0000"/>
   </g>
   <g id="patch_67">
    <path d="M 559.662269 43.931599 
Q 557.322325 43.124067 554.792083 42.715606 
Q 552.261842 42.302451 549.506064 42.302451 
Q 541.288066 42.302451 536.48836 45.36356 
Q 531.688654 48.424669 531.688654 53.659541 
Q 531.688654 58.913192 536.48836 61.969606 
Q 541.288066 65.030715 549.506064 65.030715 
Q 552.261842 65.030715 554.792083 64.61756 
Q 557.322325 64.209099 559.662269 63.401567 
L 559.662269 58.870938 
Q 557.30118 59.941387 555.010572 60.439052 
Q 552.719964 60.936717 550.189722 60.936717 
Q 545.650794 60.936717 543.050072 58.997701 
Q 540.456399 57.063381 540.456399 53.659541 
Q 540.456399 50.269785 543.050072 48.330769 
Q 545.650794 46.396449 550.189722 46.396449 
Q 552.719964 46.396449 555.010572 46.894114 
Q 557.30118 47.396474 559.662269 48.466923 
L 559.662269 43.931599 
z
" clip-path="url(#pedb1a54024)" style="fill: #0000ff"/>
   </g>
   <g id="patch_68">
    <path d="M 589.108179 43.421672 
Q 586.768235 43.163717 584.237994 43.033239 
Q 581.707752 42.901262 578.951974 42.901262 
Q 570.733976 42.901262 565.93427 43.879093 
Q 561.134565 44.856924 561.134565 46.529136 
Q 561.134565 48.207346 565.93427 49.183677 
Q 570.733976 50.161508 578.951974 50.161508 
Q 581.707752 50.161508 584.237994 50.029531 
Q 586.768235 49.899054 589.108179 49.641098 
L 589.108179 48.193848 
Q 586.747091 48.535789 584.456482 48.694762 
Q 582.165874 48.853734 579.635633 48.853734 
Q 575.096704 48.853734 572.495982 48.234341 
Q 569.902309 47.616448 569.902309 46.529136 
Q 569.902309 45.446323 572.495982 44.82693 
Q 575.096704 44.209036 579.635633 44.209036 
Q 582.165874 44.209036 584.456482 44.368009 
Q 586.747091 44.528481 589.108179 44.870422 
L 589.108179 43.421672 
z
" clip-path="url(#pedb1a54024)" style="fill: #0000ff"/>
   </g>
   <g id="patch_69">
    <path d="M 589.108179 42.356629 
Q 586.286995 42.32954 583.252654 42.315933 
Q 580.218313 42.302451 576.983354 42.302451 
Q 569.673351 42.302451 565.403958 42.3831 
Q 561.134565 42.46375 561.134565 42.601671 
Q 561.134565 42.7412 565.479189 42.821231 
Q 569.830083 42.901262 577.397128 42.901262 
Q 580.312352 42.901262 582.983074 42.890377 
Q 585.660065 42.879616 588.02986 42.85834 
L 588.02986 42.738973 
Q 585.584833 42.76631 583.164883 42.779793 
Q 580.744934 42.793399 578.312446 42.793399 
Q 573.811088 42.793399 571.372331 42.743674 
Q 568.933573 42.694072 568.933573 42.601671 
Q 568.933573 42.510136 571.284561 42.460163 
Q 573.635548 42.410313 577.961365 42.410313 
Q 579.139993 42.410313 580.14935 42.413158 
Q 581.158708 42.416127 581.961178 42.422312 
L 581.961178 42.53438 
L 577.353243 42.53438 
L 577.353243 42.634203 
L 589.108179 42.634203 
L 589.108179 42.356629 
z
" clip-path="url(#pedb1a54024)" style="fill: #ffa600"/>
   </g>
   <g id="patch_70">
    <path d="M 618.55409 42.540333 
Q 616.214145 42.42242 613.683904 42.362778 
Q 611.153663 42.302451 608.397884 42.302451 
Q 600.179886 42.302451 595.380181 42.749423 
Q 590.580475 43.196395 590.580475 43.960773 
Q 590.580475 44.727893 595.380181 45.17418 
Q 600.179886 45.621153 608.397884 45.621153 
Q 611.153663 45.621153 613.683904 45.560825 
Q 616.214145 45.501183 618.55409 45.38327 
L 618.55409 44.721723 
Q 616.193001 44.878027 613.902393 44.950694 
Q 611.611784 45.023361 609.081543 45.023361 
Q 604.542614 45.023361 601.941893 44.740233 
Q 599.348219 44.45779 599.348219 43.960773 
Q 599.348219 43.465813 601.941893 43.182685 
Q 604.542614 42.900242 609.081543 42.900242 
Q 611.611784 42.900242 613.902393 42.972909 
Q 616.193001 43.046262 618.55409 43.202565 
L 618.55409 42.540333 
z
" clip-path="url(#pedb1a54024)" style="fill: #0000ff"/>
   </g>
   <g id="patch_71">
    <path d="M 618.55409 46.028003 
Q 615.732905 45.824578 612.698564 45.722401 
Q 609.664223 45.621153 606.429264 45.621153 
Q 599.119261 45.621153 594.849868 46.226783 
Q 590.580475 46.832414 590.580475 47.868116 
Q 590.580475 48.915895 594.9251 49.516881 
Q 599.275993 50.117867 606.843038 50.117867 
Q 609.758262 50.117867 612.428984 50.036125 
Q 615.105975 49.955313 617.47577 49.795545 
L 617.47577 48.899175 
Q 615.030743 49.104457 612.610794 49.205705 
Q 610.190844 49.307882 607.758356 49.307882 
Q 603.256999 49.307882 600.818241 48.934472 
Q 598.379484 48.561991 598.379484 47.868116 
Q 598.379484 47.180744 600.730471 46.805476 
Q 603.081458 46.431137 607.407275 46.431137 
Q 608.585903 46.431137 609.595261 46.452501 
Q 610.604618 46.474794 611.407088 46.521239 
L 611.407088 47.362805 
L 606.799153 47.362805 
L 606.799153 48.112412 
L 618.55409 48.112412 
L 618.55409 46.028003 
z
" clip-path="url(#pedb1a54024)" style="fill: #ffa600"/>
   </g>
   <g id="patch_72">
    <path d="M 648 43.333044 
Q 645.660055 43.185506 643.129814 43.11088 
Q 640.599573 43.035395 637.843795 43.035395 
Q 629.625796 43.035395 624.826091 43.594666 
Q 620.026385 44.153937 620.026385 45.110358 
Q 620.026385 46.070211 624.826091 46.628623 
Q 629.625796 47.187894 637.843795 47.187894 
Q 640.599573 47.187894 643.129814 47.11241 
Q 645.660055 47.037783 648 46.890245 
L 648 46.062491 
Q 645.638911 46.258064 643.348303 46.348988 
Q 641.057694 46.439912 638.527453 46.439912 
Q 633.988525 46.439912 631.387803 46.085651 
Q 628.794129 45.732246 628.794129 45.110358 
Q 628.794129 44.491043 631.387803 44.136781 
Q 633.988525 43.783377 638.527453 43.783377 
Q 641.057694 43.783377 643.348303 43.874301 
Q 645.638911 43.966083 648 44.161657 
L 648 43.333044 
z
" clip-path="url(#pedb1a54024)" style="fill: #0000ff"/>
   </g>
   <g id="patch_73">
    <path d="M 648 42.649183 
Q 645.178815 42.629973 642.144474 42.620324 
Q 639.110133 42.610763 635.875175 42.610763 
Q 628.565171 42.610763 624.295778 42.667954 
Q 620.026385 42.725144 620.026385 42.822948 
Q 620.026385 42.921891 624.37101 42.978643 
Q 628.721904 43.035395 636.288948 43.035395 
Q 639.204173 43.035395 641.874894 43.027676 
Q 644.551885 43.020045 646.92168 43.004958 
L 646.92168 42.920312 
Q 644.476654 42.939697 642.056704 42.949258 
Q 639.636754 42.958907 637.204266 42.958907 
Q 632.702909 42.958907 630.264151 42.923645 
Q 627.825394 42.888471 627.825394 42.822948 
Q 627.825394 42.758038 630.176381 42.722601 
Q 632.527369 42.687251 636.853185 42.687251 
Q 638.031814 42.687251 639.041171 42.689269 
Q 640.050528 42.691374 640.852998 42.69576 
L 640.852998 42.77523 
L 636.245063 42.77523 
L 636.245063 42.846017 
L 648 42.846017 
L 648 42.649183 
z
" clip-path="url(#pedb1a54024)" style="fill: #ffa600"/>
   </g>
   <g id="patch_74">
    <path d="M 620.026385 42.610763 
L 648 42.610763 
L 648 42.550633 
L 637.936004 42.550633 
L 637.936004 42.302451 
L 630.109898 42.302451 
L 630.109898 42.550633 
L 620.026385 42.550633 
L 620.026385 42.610763 
z
" clip-path="url(#pedb1a54024)" style="fill: #ff0000"/>
   </g>
   <g id="matplotlib.axis_1">
    <g id="xtick_1">
     <g id="line2d_2">
      <defs>
       <path id="mcbaa59796c" d="M 0 0 
L 0 3.5 
" style="stroke: #000000; stroke-width: 0.8"/>
      </defs>
      <g>
       <use xlink:href="#mcbaa59796c" x="103.986807" y="192.24" style="stroke: #000000; stroke-width: 0.8"/>
      </g>
     </g>
     <g id="text_1">
      <!-- 0.0 -->
      <g transform="translate(96.035245 206.838437) scale(0.1 -0.1)">
       <defs>
        <path id="DejaVuSans-30" d="M 2034 4250 
Q 1547 4250 1301 3770 
Q 1056 3291 1056 2328 
Q 1056 1369 1301 889 
Q 1547 409 2034 409 
Q 2525 409 2770 889 
Q 3016 1369 3016 2328 
Q 3016 3291 2770 3770 
Q 2525 4250 2034 4250 
z
M 2034 4750 
Q 2819 4750 3233 4129 
Q 3647 3509 3647 2328 
Q 3647 1150 3233 529 
Q 2819 -91 2034 -91 
Q 1250 -91 836 529 
Q 422 1150 422 2328 
Q 422 3509 836 4129 
Q 1250 4750 2034 4750 
z
" transform="scale(0.015625)"/>
        <path id="DejaVuSans-2e" d="M 684 794 
L 1344 794 
L 1344 0 
L 684 0 
L 684 794 
z
" transform="scale(0.015625)"/>
       </defs>
       <use xlink:href="#DejaVuSans-30"/>
       <use xlink:href="#DejaVuSans-2e" x="63.623047"/>
       <use xlink:href="#DejaVuSans-30" x="95.410156"/>
      </g>
     </g>
    </g>
    <g id="xtick_2">
     <g id="line2d_3">
      <g>
       <use xlink:href="#mcbaa59796c" x="177.601583" y="192.24" style="stroke: #000000; stroke-width: 0.8"/>
      </g>
     </g>
     <g id="text_2">
      <!-- 2.5 -->
      <g transform="translate(169.650021 206.838437) scale(0.1 -0.1)">
       <defs>
        <path id="DejaVuSans-32" d="M 1228 531 
L 3431 531 
L 3431 0 
L 469 0 
L 469 531 
Q 828 903 1448 1529 
Q 2069 2156 2228 2338 
Q 2531 2678 2651 2914 
Q 2772 3150 2772 3378 
Q 2772 3750 2511 3984 
Q 2250 4219 1831 4219 
Q 1534 4219 1204 4116 
Q 875 4013 500 3803 
L 500 4441 
Q 881 4594 1212 4672 
Q 1544 4750 1819 4750 
Q 2544 4750 2975 4387 
Q 3406 4025 3406 3419 
Q 3406 3131 3298 2873 
Q 3191 2616 2906 2266 
Q 2828 2175 2409 1742 
Q 1991 1309 1228 531 
z
" transform="scale(0.015625)"/>
        <path id="DejaVuSans-35" d="M 691 4666 
L 3169 4666 
L 3169 4134 
L 1269 4134 
L 1269 2991 
Q 1406 3038 1543 3061 
Q 1681 3084 1819 3084 
Q 2600 3084 3056 2656 
Q 3513 2228 3513 1497 
Q 3513 744 3044 326 
Q 2575 -91 1722 -91 
Q 1428 -91 1123 -41 
Q 819 9 494 109 
L 494 744 
Q 775 591 1075 516 
Q 1375 441 1709 441 
Q 2250 441 2565 725 
Q 2881 1009 2881 1497 
Q 2881 1984 2565 2268 
Q 2250 2553 1709 2553 
Q 1456 2553 1204 2497 
Q 953 2441 691 2322 
L 691 4666 
z
" transform="scale(0.015625)"/>
       </defs>
       <use xlink:href="#DejaVuSans-32"/>
       <use xlink:href="#DejaVuSans-2e" x="63.623047"/>
       <use xlink:href="#DejaVuSans-35" x="95.410156"/>
      </g>
     </g>
    </g>
    <g id="xtick_3">
     <g id="line2d_4">
      <g>
       <use xlink:href="#mcbaa59796c" x="251.216359" y="192.24" style="stroke: #000000; stroke-width: 0.8"/>
      </g>
     </g>
     <g id="text_3">
      <!-- 5.0 -->
      <g transform="translate(243.264796 206.838437) scale(0.1 -0.1)">
       <use xlink:href="#DejaVuSans-35"/>
       <use xlink:href="#DejaVuSans-2e" x="63.623047"/>
       <use xlink:href="#DejaVuSans-30" x="95.410156"/>
      </g>
     </g>
    </g>
    <g id="xtick_4">
     <g id="line2d_5">
      <g>
       <use xlink:href="#mcbaa59796c" x="324.831135" y="192.24" style="stroke: #000000; stroke-width: 0.8"/>
      </g>
     </g>
     <g id="text_4">
      <!-- 7.5 -->
      <g transform="translate(316.879572 206.838437) scale(0.1 -0.1)">
       <defs>
        <path id="DejaVuSans-37" d="M 525 4666 
L 3525 4666 
L 3525 4397 
L 1831 0 
L 1172 0 
L 2766 4134 
L 525 4134 
L 525 4666 
z
" transform="scale(0.015625)"/>
       </defs>
       <use xlink:href="#DejaVuSans-37"/>
       <use xlink:href="#DejaVuSans-2e" x="63.623047"/>
       <use xlink:href="#DejaVuSans-35" x="95.410156"/>
      </g>
     </g>
    </g>
    <g id="xtick_5">
     <g id="line2d_6">
      <g>
       <use xlink:href="#mcbaa59796c" x="398.44591" y="192.24" style="stroke: #000000; stroke-width: 0.8"/>
      </g>
     </g>
     <g id="text_5">
      <!-- 10.0 -->
      <g transform="translate(387.313098 206.838437) scale(0.1 -0.1)">
       <defs>
        <path id="DejaVuSans-31" d="M 794 531 
L 1825 531 
L 1825 4091 
L 703 3866 
L 703 4441 
L 1819 4666 
L 2450 4666 
L 2450 531 
L 3481 531 
L 3481 0 
L 794 0 
L 794 531 
z
" transform="scale(0.015625)"/>
       </defs>
       <use xlink:href="#DejaVuSans-31"/>
       <use xlink:href="#DejaVuSans-30" x="63.623047"/>
       <use xlink:href="#DejaVuSans-2e" x="127.246094"/>
       <use xlink:href="#DejaVuSans-30" x="159.033203"/>
      </g>
     </g>
    </g>
    <g id="xtick_6">
     <g id="line2d_7">
      <g>
       <use xlink:href="#mcbaa59796c" x="472.060686" y="192.24" style="stroke: #000000; stroke-width: 0.8"/>
      </g>
     </g>
     <g id="text_6">
      <!-- 12.5 -->
      <g transform="translate(460.927874 206.838437) scale(0.1 -0.1)">
       <use xlink:href="#DejaVuSans-31"/>
       <use xlink:href="#DejaVuSans-32" x="63.623047"/>
       <use xlink:href="#DejaVuSans-2e" x="127.246094"/>
       <use xlink:href="#DejaVuSans-35" x="159.033203"/>
      </g>
     </g>
    </g>
    <g id="xtick_7">
     <g id="line2d_8">
      <g>
       <use xlink:href="#mcbaa59796c" x="545.675462" y="192.24" style="stroke: #000000; stroke-width: 0.8"/>
      </g>
     </g>
     <g id="text_7">
      <!-- 15.0 -->
      <g transform="translate(534.542649 206.838437) scale(0.1 -0.1)">
       <use xlink:href="#DejaVuSans-31"/>
       <use xlink:href="#DejaVuSans-35" x="63.623047"/>
       <use xlink:href="#DejaVuSans-2e" x="127.246094"/>
       <use xlink:href="#DejaVuSans-30" x="159.033203"/>
      </g>
     </g>
    </g>
    <g id="xtick_8">
     <g id="line2d_9">
      <g>
       <use xlink:href="#mcbaa59796c" x="619.290237" y="192.24" style="stroke: #000000; stroke-width: 0.8"/>
      </g>
     </g>
     <g id="text_8">
      <!-- 17.5 -->
      <g transform="translate(608.157425 206.838437) scale(0.1 -0.1)">
       <use xlink:href="#DejaVuSans-31"/>
       <use xlink:href="#DejaVuSans-37" x="63.623047"/>
       <use xlink:href="#DejaVuSans-2e" x="127.246094"/>
       <use xlink:href="#DejaVuSans-35" x="159.033203"/>
      </g>
     </g>
    </g>
   </g>
   <g id="matplotlib.axis_2">
    <g id="ytick_1">
     <g id="line2d_10">
      <defs>
       <path id="m230f4a6665" d="M 0 0 
L -3.5 0 
" style="stroke: #000000; stroke-width: 0.8"/>
      </defs>
      <g>
       <use xlink:href="#m230f4a6665" x="90" y="168.197096" style="stroke: #000000; stroke-width: 0.8"/>
      </g>
     </g>
     <g id="text_9">
      <!-- 0.0125 -->
      <g transform="translate(39.629687 171.996315) scale(0.1 -0.1)">
       <defs>
        <path id="DejaVuSans-2212" d="M 678 2272 
L 4684 2272 
L 4684 1741 
L 678 1741 
L 678 2272 
z
" transform="scale(0.015625)"/>
       </defs>
       <use xlink:href="#DejaVuSans-2212"/>
       <use xlink:href="#DejaVuSans-30" x="83.789062"/>
       <use xlink:href="#DejaVuSans-2e" x="147.412109"/>
       <use xlink:href="#DejaVuSans-30" x="179.199219"/>
       <use xlink:href="#DejaVuSans-31" x="242.822266"/>
       <use xlink:href="#DejaVuSans-32" x="306.445312"/>
       <use xlink:href="#DejaVuSans-35" x="370.068359"/>
      </g>
     </g>
    </g>
    <g id="ytick_2">
     <g id="line2d_11">
      <g>
       <use xlink:href="#m230f4a6665" x="90" y="143.018167" style="stroke: #000000; stroke-width: 0.8"/>
      </g>
     </g>
     <g id="text_10">
      <!-- 0.0100 -->
      <g transform="translate(39.629687 146.817386) scale(0.1 -0.1)">
       <use xlink:href="#DejaVuSans-2212"/>
       <use xlink:href="#DejaVuSans-30" x="83.789062"/>
       <use xlink:href="#DejaVuSans-2e" x="147.412109"/>
       <use xlink:href="#DejaVuSans-30" x="179.199219"/>
       <use xlink:href="#DejaVuSans-31" x="242.822266"/>
       <use xlink:href="#DejaVuSans-30" x="306.445312"/>
       <use xlink:href="#DejaVuSans-30" x="370.068359"/>
      </g>
     </g>
    </g>
    <g id="ytick_3">
     <g id="line2d_12">
      <g>
       <use xlink:href="#m230f4a6665" x="90" y="117.839238" style="stroke: #000000; stroke-width: 0.8"/>
      </g>
     </g>
     <g id="text_11">
      <!-- 0.0075 -->
      <g transform="translate(39.629687 121.638457) scale(0.1 -0.1)">
       <use xlink:href="#DejaVuSans-2212"/>
       <use xlink:href="#DejaVuSans-30" x="83.789062"/>
       <use xlink:href="#DejaVuSans-2e" x="147.412109"/>
       <use xlink:href="#DejaVuSans-30" x="179.199219"/>
       <use xlink:href="#DejaVuSans-30" x="242.822266"/>
       <use xlink:href="#DejaVuSans-37" x="306.445312"/>
       <use xlink:href="#DejaVuSans-35" x="370.068359"/>
      </g>
     </g>
    </g>
    <g id="ytick_4">
     <g id="line2d_13">
      <g>
       <use xlink:href="#m230f4a6665" x="90" y="92.660309" style="stroke: #000000; stroke-width: 0.8"/>
      </g>
     </g>
     <g id="text_12">
      <!-- 0.0050 -->
      <g transform="translate(39.629687 96.459527) scale(0.1 -0.1)">
       <use xlink:href="#DejaVuSans-2212"/>
       <use xlink:href="#DejaVuSans-30" x="83.789062"/>
       <use xlink:href="#DejaVuSans-2e" x="147.412109"/>
       <use xlink:href="#DejaVuSans-30" x="179.199219"/>
       <use xlink:href="#DejaVuSans-30" x="242.822266"/>
       <use xlink:href="#DejaVuSans-35" x="306.445312"/>
       <use xlink:href="#DejaVuSans-30" x="370.068359"/>
      </g>
     </g>
    </g>
    <g id="ytick_5">
     <g id="line2d_14">
      <g>
       <use xlink:href="#m230f4a6665" x="90" y="67.48138" style="stroke: #000000; stroke-width: 0.8"/>
      </g>
     </g>
     <g id="text_13">
      <!-- 0.0025 -->
      <g transform="translate(39.629687 71.280598) scale(0.1 -0.1)">
       <use xlink:href="#DejaVuSans-2212"/>
       <use xlink:href="#DejaVuSans-30" x="83.789062"/>
       <use xlink:href="#DejaVuSans-2e" x="147.412109"/>
       <use xlink:href="#DejaVuSans-30" x="179.199219"/>
       <use xlink:href="#DejaVuSans-30" x="242.822266"/>
       <use xlink:href="#DejaVuSans-32" x="306.445312"/>
       <use xlink:href="#DejaVuSans-35" x="370.068359"/>
      </g>
     </g>
    </g>
    <g id="ytick_6">
     <g id="line2d_15">
      <g>
       <use xlink:href="#m230f4a6665" x="90" y="42.302451" style="stroke: #000000; stroke-width: 0.8"/>
      </g>
     </g>
     <g id="text_14">
      <!-- 0.0000 -->
      <g transform="translate(48.009375 46.101669) scale(0.1 -0.1)">
       <use xlink:href="#DejaVuSans-30"/>
       <use xlink:href="#DejaVuSans-2e" x="63.623047"/>
       <use xlink:href="#DejaVuSans-30" x="95.410156"/>
       <use xlink:href="#DejaVuSans-30" x="159.033203"/>
       <use xlink:href="#DejaVuSans-30" x="222.65625"/>
       <use xlink:href="#DejaVuSans-30" x="286.279297"/>
      </g>
     </g>
    </g>
   </g>
  </g>
 </g>
 <defs>
  <clipPath id="pedb1a54024">
   <rect x="90" y="25.92" width="558" height="166.32"/>
  </clipPath>
 </defs>
</svg>
