<?xml version="1.0" encoding="utf-8" standalone="no"?>
<!DOCTYPE svg PUBLIC "-//W3C//DTD SVG 1.1//EN"
  "http://www.w3.org/Graphics/SVG/1.1/DTD/svg11.dtd">
<svg xmlns:xlink="http://www.w3.org/1999/xlink" width="720pt" height="216pt" viewBox="0 0 720 216" xmlns="http://www.w3.org/2000/svg" version="1.1">
 <metadata>
  <rdf:RDF xmlns:dc="http://purl.org/dc/elements/1.1/" xmlns:cc="http://creativecommons.org/ns#" xmlns:rdf="http://www.w3.org/1999/02/22-rdf-syntax-ns#">
   <cc:Work>
    <dc:type rdf:resource="http://purl.org/dc/dcmitype/StillImage"/>
    <dc:date>2024-11-23T04:46:34.352011</dc:date>
    <dc:format>image/svg+xml</dc:format>
    <dc:creator>
     <cc:Agent>
      <dc:title>Matplotlib v3.7.2, https://matplotlib.org/</dc:title>
     </cc:Agent>
    </dc:creator>
   </cc:Work>
  </rdf:RDF>
 </metadata>
 <defs>
  <style type="text/css">*{stroke-linejoin: round; stroke-linecap: butt}</style>
 </defs>
 <g id="figure_1">
  <g id="patch_1">
   <path d="M 0 216 
L 720 216 
L 720 0 
L 0 0 
z
" style="fill: #ffffff"/>
  </g>
  <g id="axes_1">
   <g id="patch_2">
    <path d="M 90 192.24 
L 648 192.24 
L 648 25.92 
L 90 25.92 
z
" style="fill: #ffffff"/>
   </g>
   <g id="line2d_1">
    <path d="M 90 66.102448 
L 648 66.102448 
" clip-path="url(#p47ccf08037)" style="fill: none; stroke: #000000; stroke-width: 0.5; stroke-linecap: square"/>
   </g>
   <g id="patch_3">
    <path d="M 107.699499 65.955976 
Q 106.218967 66.028579 104.618029 66.065302 
Q 103.017092 66.102448 101.273453 66.102448 
Q 96.073751 66.102448 93.036876 65.827232 
Q 90 65.552015 90 65.081361 
Q 90 64.609019 93.036876 64.334225 
Q 96.073751 64.059008 101.273453 64.059008 
Q 103.017092 64.059008 104.618029 64.096154 
Q 106.218967 64.132878 107.699499 64.205481 
L 107.699499 64.612818 
Q 106.205588 64.516577 104.756272 64.471833 
Q 103.306955 64.427089 101.706018 64.427089 
Q 98.834142 64.427089 97.18861 64.601421 
Q 95.547538 64.775331 95.547538 65.081361 
Q 95.547538 65.386126 97.18861 65.560458 
Q 98.834142 65.734367 101.706018 65.734367 
Q 103.306955 65.734367 104.756272 65.689624 
Q 106.205588 65.644458 107.699499 65.548216 
L 107.699499 65.955976 
z
" clip-path="url(#p47ccf08037)" style="fill: #0000ff"/>
   </g>
   <g id="patch_4">
    <path d="M 107.699499 63.870552 
Q 105.914476 63.96478 103.994584 64.012109 
Q 102.074692 64.059008 100.027865 64.059008 
Q 95.402671 64.059008 92.701335 63.778475 
Q 90 63.497942 90 63.018197 
Q 90 62.532858 92.748936 62.254476 
Q 95.501839 61.976094 100.289668 61.976094 
Q 102.134193 61.976094 103.824015 62.013958 
Q 105.517804 62.051391 107.017224 62.125396 
L 107.017224 62.540602 
Q 105.470203 62.445514 103.93905 62.398615 
Q 102.407896 62.351286 100.868809 62.351286 
Q 98.020705 62.351286 96.477652 62.524252 
Q 94.934598 62.696789 94.934598 63.018197 
Q 94.934598 63.336593 96.422118 63.51042 
Q 97.909637 63.683817 100.646673 63.683817 
Q 101.392416 63.683817 102.031058 63.673921 
Q 102.6697 63.663594 103.17744 63.642081 
L 103.17744 63.252261 
L 100.261901 63.252261 
L 100.261901 62.905037 
L 107.699499 62.905037 
L 107.699499 63.870552 
z
" clip-path="url(#p47ccf08037)" style="fill: #ffa600"/>
   </g>
   <g id="patch_5">
    <path d="M 126.330551 65.952942 
Q 124.850018 66.027049 123.249081 66.064533 
Q 121.648144 66.102448 119.904504 66.102448 
Q 114.704803 66.102448 111.667927 65.821532 
Q 108.631052 65.540616 108.631052 65.060214 
Q 108.631052 64.578089 111.667927 64.297604 
Q 114.704803 64.016688 119.904504 64.016688 
Q 121.648144 64.016688 123.249081 64.054603 
Q 124.850018 64.092087 126.330551 64.166194 
L 126.330551 64.581967 
Q 124.83664 64.483733 123.387324 64.438062 
Q 121.938007 64.392392 120.33707 64.392392 
Q 117.465193 64.392392 115.819662 64.570334 
Q 114.178589 64.747846 114.178589 65.060214 
Q 114.178589 65.37129 115.819662 65.549233 
Q 117.465193 65.726744 120.33707 65.726744 
Q 121.938007 65.726744 123.387324 65.681074 
Q 124.83664 65.634972 126.330551 65.536738 
L 126.330551 65.952942 
z
" clip-path="url(#p47ccf08037)" style="fill: #0000ff"/>
   </g>
   <g id="patch_6">
    <path d="M 126.330551 63.42026 
Q 124.545527 63.718474 122.625636 63.868262 
Q 120.705744 64.016688 118.658917 64.016688 
Q 114.033723 64.016688 111.332387 63.128855 
Q 108.631052 62.241023 108.631052 60.722721 
Q 108.631052 59.186716 111.379988 58.305693 
Q 114.132891 57.424669 118.92072 57.424669 
Q 120.765244 57.424669 122.455067 57.544499 
Q 124.148856 57.662967 125.648275 57.897181 
L 125.648275 59.211227 
Q 124.101255 58.91029 122.570102 58.761864 
Q 121.038948 58.612076 119.499861 58.612076 
Q 116.651757 58.612076 115.108704 59.159482 
Q 113.56565 59.705526 113.56565 60.722721 
Q 113.56565 61.730383 115.053169 62.280512 
Q 116.540689 62.82928 119.277725 62.82928 
Q 120.023468 62.82928 120.66211 62.797961 
Q 121.300752 62.76528 121.808492 62.697194 
L 121.808492 61.463489 
L 118.892953 61.463489 
L 118.892953 60.364592 
L 126.330551 60.364592 
L 126.330551 63.42026 
z
" clip-path="url(#p47ccf08037)" style="fill: #ffa600"/>
   </g>
   <g id="patch_7">
    <path d="M 144.961603 65.72257 
Q 143.48107 65.910867 141.880133 66.00611 
Q 140.279195 66.102448 138.535556 66.102448 
Q 133.335855 66.102448 130.298979 65.388671 
Q 127.262104 64.674893 127.262104 63.454246 
Q 127.262104 62.22922 130.298979 61.516537 
Q 133.335855 60.802759 138.535556 60.802759 
Q 140.279195 60.802759 141.880133 60.899097 
Q 143.48107 60.994341 144.961603 61.182638 
L 144.961603 62.239072 
Q 143.467692 61.989469 142.018375 61.873426 
Q 140.569059 61.757382 138.968121 61.757382 
Q 136.096245 61.757382 134.450713 62.209514 
Q 132.809641 62.660552 132.809641 63.454246 
Q 132.809641 64.244656 134.450713 64.696788 
Q 136.096245 65.147826 138.968121 65.147826 
Q 140.569059 65.147826 142.018375 65.031782 
Q 143.467692 64.914644 144.961603 64.66504 
L 144.961603 65.72257 
z
" clip-path="url(#p47ccf08037)" style="fill: #0000ff"/>
   </g>
   <g id="patch_8">
    <path d="M 163.592654 65.497936 
Q 162.112122 65.797579 160.511185 65.949143 
Q 158.910247 66.102448 157.166608 66.102448 
Q 151.966906 66.102448 148.930031 64.966592 
Q 145.893155 63.830736 145.893155 61.888283 
Q 145.893155 59.938862 148.930031 58.804748 
Q 151.966906 57.668892 157.166608 57.668892 
Q 158.910247 57.668892 160.511185 57.822198 
Q 162.112122 57.973761 163.592654 58.273404 
L 163.592654 59.954541 
Q 162.098744 59.55734 160.649427 59.372676 
Q 159.200111 59.188012 157.599173 59.188012 
Q 154.727297 59.188012 153.081765 59.907504 
Q 151.440693 60.625253 151.440693 61.888283 
Q 151.440693 63.146087 153.081765 63.865579 
Q 154.727297 64.583328 157.599173 64.583328 
Q 159.200111 64.583328 160.649427 64.398664 
Q 162.098744 64.212259 163.592654 63.815057 
L 163.592654 65.497936 
z
" clip-path="url(#p47ccf08037)" style="fill: #0000ff"/>
   </g>
   <g id="patch_9">
    <path d="M 163.592654 55.709851 
Q 161.807631 56.689372 159.887739 57.181368 
Q 157.967847 57.668892 155.92102 57.668892 
Q 151.295826 57.668892 148.594491 54.752694 
Q 145.893155 51.836496 145.893155 46.849439 
Q 145.893155 41.804237 148.642091 38.910402 
Q 151.394994 36.016568 156.182824 36.016568 
Q 158.027348 36.016568 159.71717 36.410165 
Q 161.410959 36.79929 162.910379 37.568594 
L 162.910379 41.884746 
Q 161.363358 40.89628 159.832205 40.408756 
Q 158.301052 39.916759 156.761965 39.916759 
Q 153.913861 39.916759 152.370807 41.714783 
Q 150.827753 43.508335 150.827753 46.849439 
Q 150.827753 50.159234 152.315273 51.966204 
Q 153.802792 53.768701 156.539828 53.768701 
Q 157.285572 53.768701 157.924213 53.665829 
Q 158.562855 53.558484 159.070595 53.334849 
L 159.070595 49.282586 
L 156.155057 49.282586 
L 156.155057 45.67312 
L 163.592654 45.67312 
L 163.592654 55.709851 
z
" clip-path="url(#p47ccf08037)" style="fill: #ffa600"/>
   </g>
   <g id="patch_10">
    <path d="M 164.524207 64.399707 
L 182.223706 64.399707 
L 182.223706 64.731789 
L 175.856003 64.731789 
L 175.856003 66.102448 
L 170.904259 66.102448 
L 170.904259 64.731789 
L 164.524207 64.731789 
L 164.524207 64.399707 
z
" clip-path="url(#p47ccf08037)" style="fill: #ff0000"/>
   </g>
   <g id="patch_11">
    <path d="M 182.223706 62.980025 
Q 180.743174 63.683729 179.142236 64.039672 
Q 177.541299 64.399707 175.79766 64.399707 
Q 170.597958 64.399707 167.561083 61.732178 
Q 164.524207 59.064649 164.524207 54.502848 
Q 164.524207 49.924681 167.561083 47.261244 
Q 170.597958 44.593715 175.79766 44.593715 
Q 177.541299 44.593715 179.142236 44.95375 
Q 180.743174 45.309693 182.223706 46.013397 
L 182.223706 49.961503 
Q 180.729795 49.028686 179.280479 48.595008 
Q 177.831162 48.16133 176.230225 48.16133 
Q 173.358349 48.16133 171.712817 49.851038 
Q 170.071745 51.536654 170.071745 54.502848 
Q 170.071745 57.456768 171.712817 59.146475 
Q 173.358349 60.832092 176.230225 60.832092 
Q 177.831162 60.832092 179.280479 60.398414 
Q 180.729795 59.960644 182.223706 59.027828 
L 182.223706 62.980025 
z
" clip-path="url(#p47ccf08037)" style="fill: #0000ff"/>
   </g>
   <g id="patch_12">
    <path d="M 182.223706 42.31402 
Q 180.438683 43.453868 178.518791 44.026394 
Q 176.598899 44.593715 174.552072 44.593715 
Q 169.926878 44.593715 167.225542 41.200196 
Q 164.524207 37.806677 164.524207 32.003343 
Q 164.524207 26.132346 167.273143 22.764851 
Q 170.026046 19.397356 174.813876 19.397356 
Q 176.6584 19.397356 178.348222 19.855377 
Q 180.042011 20.308193 181.541431 21.203416 
L 181.541431 26.226032 
Q 179.99441 25.075775 178.463257 24.508454 
Q 176.932103 23.935927 175.393016 23.935927 
Q 172.544912 23.935927 171.001859 26.02825 
Q 169.458805 28.115369 169.458805 32.003343 
Q 169.458805 35.854883 170.946325 37.957616 
Q 172.433844 40.055144 175.17088 40.055144 
Q 175.916623 40.055144 176.555265 39.935434 
Q 177.193907 39.810519 177.701647 39.55028 
L 177.701647 34.834745 
L 174.786108 34.834745 
L 174.786108 30.634484 
L 182.223706 30.634484 
L 182.223706 42.31402 
z
" clip-path="url(#p47ccf08037)" style="fill: #ffa600"/>
   </g>
   <g id="patch_13">
    <path d="M 200.854758 65.184641 
Q 199.374225 65.639577 197.773288 65.86969 
Q 196.172351 66.102448 194.428711 66.102448 
Q 189.22901 66.102448 186.192134 64.377923 
Q 183.155259 62.653398 183.155259 59.704249 
Q 183.155259 56.744519 186.192134 55.022639 
Q 189.22901 53.298114 194.428711 53.298114 
Q 196.172351 53.298114 197.773288 53.530872 
Q 199.374225 53.760985 200.854758 54.215921 
L 200.854758 56.768324 
Q 199.360847 56.165269 197.911531 55.884902 
Q 196.462214 55.604534 194.861277 55.604534 
Q 191.9894 55.604534 190.343869 56.69691 
Q 188.702796 57.78664 188.702796 59.704249 
Q 188.702796 61.613922 190.343869 62.706298 
Q 191.9894 63.796028 194.861277 63.796028 
Q 196.462214 63.796028 197.911531 63.515661 
Q 199.360847 63.232648 200.854758 62.629593 
L 200.854758 65.184641 
z
" clip-path="url(#p47ccf08037)" style="fill: #0000ff"/>
   </g>
   <g id="patch_14">
    <path d="M 200.854758 49.911733 
Q 199.069734 51.604924 197.149843 52.455385 
Q 195.229951 53.298114 193.183124 53.298114 
Q 188.55793 53.298114 185.856594 48.2572 
Q 183.155259 43.216286 183.155259 34.595704 
Q 183.155259 25.874613 185.904195 20.872356 
Q 188.657098 15.870099 193.444927 15.870099 
Q 195.289451 15.870099 196.979274 16.550468 
Q 198.673063 17.223105 200.172482 18.552917 
L 200.172482 26.013779 
Q 198.625462 24.305126 197.094309 23.462396 
Q 195.563155 22.611935 194.024068 22.611935 
Q 191.175964 22.611935 189.632911 25.719984 
Q 188.089857 28.820301 188.089857 34.595704 
Q 188.089857 40.316987 189.577376 43.440498 
Q 191.064896 46.556278 193.801932 46.556278 
Q 194.547675 46.556278 195.186317 46.378454 
Q 195.824959 46.192899 196.332699 45.806326 
L 196.332699 38.80162 
L 193.41716 38.80162 
L 193.41716 32.562329 
L 200.854758 32.562329 
L 200.854758 49.911733 
z
" clip-path="url(#p47ccf08037)" style="fill: #ffa600"/>
   </g>
   <g id="patch_15">
    <path d="M 219.48581 65.05298 
Q 218.005277 65.573177 216.40434 65.836301 
Q 214.803402 66.102448 213.059763 66.102448 
Q 207.860062 66.102448 204.823186 64.130537 
Q 201.786311 62.158625 201.786311 58.786414 
Q 201.786311 55.402105 204.823186 53.433218 
Q 207.860062 51.461306 213.059763 51.461306 
Q 214.803402 51.461306 216.40434 51.727454 
Q 218.005277 51.990577 219.48581 52.510774 
L 219.48581 55.429325 
Q 217.991899 54.73976 216.542582 54.419174 
Q 215.093266 54.098587 213.492328 54.098587 
Q 210.620452 54.098587 208.97492 55.347666 
Q 207.333848 56.59372 207.333848 58.786414 
Q 207.333848 60.970034 208.97492 62.219113 
Q 210.620452 63.465168 213.492328 63.465168 
Q 215.093266 63.465168 216.542582 63.144581 
Q 217.991899 62.820969 219.48581 62.131405 
L 219.48581 65.05298 
z
" clip-path="url(#p47ccf08037)" style="fill: #0000ff"/>
   </g>
   <g id="patch_16">
    <path d="M 219.48581 49.723614 
Q 217.700786 50.59246 215.780894 51.028867 
Q 213.861002 51.461306 211.814176 51.461306 
Q 207.188981 51.461306 204.487646 48.874605 
Q 201.786311 46.287904 201.786311 41.864327 
Q 201.786311 37.389176 204.535247 34.822311 
Q 207.288149 32.255447 212.075979 32.255447 
Q 213.920503 32.255447 215.610325 32.604572 
Q 217.304114 32.94973 218.803534 33.632111 
L 218.803534 37.460588 
Q 217.256514 36.583807 215.72536 36.151368 
Q 214.194207 35.714961 212.65512 35.714961 
Q 209.807016 35.714961 208.263962 37.309829 
Q 206.720909 38.90073 206.720909 41.864327 
Q 206.720909 44.800154 208.208428 46.402956 
Q 209.695948 48.001792 212.432984 48.001792 
Q 213.178727 48.001792 213.817369 47.910543 
Q 214.45601 47.815327 214.96375 47.61696 
L 214.96375 44.022556 
L 212.048212 44.022556 
L 212.048212 40.820919 
L 219.48581 40.820919 
L 219.48581 49.723614 
z
" clip-path="url(#p47ccf08037)" style="fill: #ffa600"/>
   </g>
   <g id="patch_17">
    <path d="M 238.116861 65.874769 
Q 236.636329 65.987624 235.035392 66.044708 
Q 233.434454 66.102448 231.690815 66.102448 
Q 226.491113 66.102448 223.454238 65.674647 
Q 220.417362 65.246846 220.417362 64.515254 
Q 220.417362 63.781037 223.454238 63.353892 
Q 226.491113 62.926091 231.690815 62.926091 
Q 233.434454 62.926091 235.035392 62.983831 
Q 236.636329 63.040915 238.116861 63.15377 
L 238.116861 63.786942 
Q 236.622951 63.637343 235.173634 63.567793 
Q 233.724318 63.498242 232.12338 63.498242 
Q 229.251504 63.498242 227.605972 63.769226 
Q 225.9649 64.039555 225.9649 64.515254 
Q 225.9649 64.988984 227.605972 65.259969 
Q 229.251504 65.530297 232.12338 65.530297 
Q 233.724318 65.530297 235.173634 65.460747 
Q 236.622951 65.39054 238.116861 65.240941 
L 238.116861 65.874769 
z
" clip-path="url(#p47ccf08037)" style="fill: #0000ff"/>
   </g>
   <g id="patch_18">
    <path d="M 238.116861 61.509758 
Q 236.331838 62.217924 234.411946 62.573624 
Q 232.492054 62.926091 230.445227 62.926091 
Q 225.820033 62.926091 223.118698 60.817759 
Q 220.417362 58.709427 220.417362 55.103921 
Q 220.417362 51.456378 223.166298 49.364214 
Q 225.919201 47.27205 230.707031 47.27205 
Q 232.551555 47.27205 234.241377 47.55661 
Q 235.935166 47.837937 237.434586 48.394122 
L 237.434586 51.514583 
Q 235.887565 50.799949 234.356412 50.447483 
Q 232.825259 50.091782 231.286172 50.091782 
Q 228.438068 50.091782 226.895014 51.391705 
Q 225.35196 52.688394 225.35196 55.103921 
Q 225.35196 57.496813 226.83948 58.803203 
Q 228.327 60.106359 231.064035 60.106359 
Q 231.809779 60.106359 232.44842 60.031985 
Q 233.087062 59.954378 233.594802 59.792696 
L 233.594802 56.86302 
L 230.679264 56.86302 
L 230.679264 54.253474 
L 238.116861 54.253474 
L 238.116861 61.509758 
z
" clip-path="url(#p47ccf08037)" style="fill: #ffa600"/>
   </g>
   <g id="patch_19">
    <path d="M 256.747913 65.90463 
Q 254.96289 66.003539 253.042998 66.05322 
Q 251.123106 66.102448 249.076279 66.102448 
Q 244.451085 66.102448 241.74975 65.807979 
Q 239.048414 65.51351 239.048414 65.009931 
Q 239.048414 64.500482 241.79735 64.208271 
Q 244.550253 63.91606 249.338083 63.91606 
Q 251.182607 63.91606 252.872429 63.955804 
Q 254.566218 63.995097 256.065638 64.072779 
L 256.065638 64.508611 
Q 254.518617 64.408799 252.987464 64.35957 
Q 251.45631 64.30989 249.917223 64.30989 
Q 247.069119 64.30989 245.526066 64.491449 
Q 243.983012 64.672556 243.983012 65.009931 
Q 243.983012 65.344145 245.470532 65.526607 
Q 246.958051 65.708618 249.695087 65.708618 
Q 250.44083 65.708618 251.079472 65.698231 
Q 251.718114 65.687391 252.225854 65.664809 
L 252.225854 65.255624 
L 249.310315 65.255624 
L 249.310315 64.89115 
L 256.747913 64.89115 
L 256.747913 65.90463 
z
" clip-path="url(#p47ccf08037)" style="fill: #ffa600"/>
   </g>
   <g id="patch_20">
    <path d="M 256.747913 63.086995 
Q 255.267381 63.497943 253.666443 63.705807 
Q 252.065506 63.91606 250.321867 63.91606 
Q 245.122165 63.91606 242.08529 62.358278 
Q 239.048414 60.800496 239.048414 58.136499 
Q 239.048414 55.462944 242.08529 53.907552 
Q 245.122165 52.34977 250.321867 52.34977 
Q 252.065506 52.34977 253.666443 52.560023 
Q 255.267381 52.767886 256.747913 53.178835 
L 256.747913 55.484447 
Q 255.254002 54.939702 253.804686 54.686443 
Q 252.355369 54.433184 250.754432 54.433184 
Q 247.882556 54.433184 246.237024 55.419938 
Q 244.595952 56.404303 244.595952 58.136499 
Q 244.595952 59.861527 246.237024 60.848281 
Q 247.882556 61.832646 250.754432 61.832646 
Q 252.355369 61.832646 253.804686 61.579387 
Q 255.254002 61.323739 256.747913 60.778993 
L 256.747913 63.086995 
z
" clip-path="url(#p47ccf08037)" style="fill: #0000ff"/>
   </g>
   <g id="patch_21">
    <path d="M 275.378965 66.015873 
Q 273.898432 66.058787 272.297495 66.080493 
Q 270.696558 66.102448 268.952919 66.102448 
Q 263.753217 66.102448 260.716341 65.939777 
Q 257.679466 65.777107 257.679466 65.498919 
Q 257.679466 65.219734 260.716341 65.057313 
Q 263.753217 64.894642 268.952919 64.894642 
Q 270.696558 64.894642 272.297495 64.916598 
Q 273.898432 64.938304 275.378965 64.981217 
L 275.378965 65.22198 
Q 273.885054 65.165095 272.435738 65.138648 
Q 270.986421 65.112202 269.385484 65.112202 
Q 266.513607 65.112202 264.868076 65.215243 
Q 263.227003 65.318035 263.227003 65.498919 
Q 263.227003 65.679055 264.868076 65.782096 
Q 266.513607 65.884888 269.385484 65.884888 
Q 270.986421 65.884888 272.435738 65.858442 
Q 273.885054 65.831746 275.378965 65.774861 
L 275.378965 66.015873 
z
" clip-path="url(#p47ccf08037)" style="fill: #0000ff"/>
   </g>
   <g id="patch_22">
    <path d="M 275.378965 64.12565 
Q 273.593941 64.510146 271.67405 64.703272 
Q 269.754158 64.894642 267.707331 64.894642 
Q 263.082137 64.894642 260.380801 63.749932 
Q 257.679466 62.605222 257.679466 60.647628 
Q 257.679466 58.66721 260.428402 57.531278 
Q 263.181305 56.395347 267.969134 56.395347 
Q 269.813659 56.395347 271.503481 56.549848 
Q 273.19727 56.702593 274.696689 57.004571 
L 274.696689 58.698812 
Q 273.149669 58.310805 271.618516 58.119435 
Q 270.087362 57.926309 268.548275 57.926309 
Q 265.700171 57.926309 264.157118 58.632096 
Q 262.614064 59.336128 262.614064 60.647628 
Q 262.614064 61.946839 264.101583 62.656137 
Q 265.589103 63.363681 268.326139 63.363681 
Q 269.071882 63.363681 269.710524 63.3233 
Q 270.349166 63.281163 270.856906 63.193379 
L 270.856906 61.602723 
L 267.941367 61.602723 
L 267.941367 60.185882 
L 275.378965 60.185882 
L 275.378965 64.12565 
z
" clip-path="url(#p47ccf08037)" style="fill: #ffa600"/>
   </g>
   <g id="patch_23">
    <path d="M 294.010017 65.483551 
Q 292.529484 65.790324 290.928547 65.945495 
Q 289.32761 66.102448 287.58397 66.102448 
Q 282.384269 66.102448 279.347393 64.939564 
Q 276.310518 63.77668 276.310518 61.788005 
Q 276.310518 59.792196 279.347393 58.631095 
Q 282.384269 57.468211 287.58397 57.468211 
Q 289.32761 57.468211 290.928547 57.625165 
Q 292.529484 57.780335 294.010017 58.087108 
L 294.010017 59.808248 
Q 292.516106 59.401595 291.066789 59.212537 
Q 289.617473 59.02348 288.016535 59.02348 
Q 285.144659 59.02348 283.499127 59.760092 
Q 281.858055 60.494921 281.858055 61.788005 
Q 281.858055 63.075739 283.499127 63.812351 
Q 285.144659 64.54718 288.016535 64.54718 
Q 289.617473 64.54718 291.066789 64.358122 
Q 292.516106 64.16728 294.010017 63.760628 
L 294.010017 65.483551 
z
" clip-path="url(#p47ccf08037)" style="fill: #0000ff"/>
   </g>
   <g id="patch_24">
    <path d="M 312.641068 66.080725 
Q 310.856045 66.091587 308.936153 66.097042 
Q 307.016261 66.102448 304.969434 66.102448 
Q 300.34424 66.102448 297.642905 66.070112 
Q 294.941569 66.037776 294.941569 65.982477 
Q 294.941569 65.926533 297.690505 65.894445 
Q 300.443408 65.862357 305.231238 65.862357 
Q 307.075762 65.862357 308.765584 65.866721 
Q 310.459373 65.871036 311.958793 65.879567 
L 311.958793 65.927426 
Q 310.411772 65.916466 308.880619 65.91106 
Q 307.349466 65.905604 305.810379 65.905604 
Q 302.962275 65.905604 301.419221 65.925542 
Q 299.876167 65.945429 299.876167 65.982477 
Q 299.876167 66.019178 301.363687 66.039214 
Q 302.851207 66.059201 305.588242 66.059201 
Q 306.333986 66.059201 306.972627 66.05806 
Q 307.611269 66.05687 308.119009 66.05439 
L 308.119009 66.009457 
L 305.203471 66.009457 
L 305.203471 65.969433 
L 312.641068 65.969433 
L 312.641068 66.080725 
z
" clip-path="url(#p47ccf08037)" style="fill: #ffa600"/>
   </g>
   <g id="patch_25">
    <path d="M 312.641068 64.433074 
Q 311.160536 65.141537 309.559599 65.499888 
Q 307.958661 65.862357 306.215022 65.862357 
Q 301.01532 65.862357 297.978445 63.176788 
Q 294.941569 60.491219 294.941569 55.898567 
Q 294.941569 51.289438 297.978445 48.607988 
Q 301.01532 45.922419 306.215022 45.922419 
Q 307.958661 45.922419 309.559599 46.284889 
Q 311.160536 46.643239 312.641068 47.351702 
L 312.641068 51.326509 
Q 311.147158 50.387383 309.697841 49.950773 
Q 308.248525 49.514162 306.647587 49.514162 
Q 303.775711 49.514162 302.130179 51.215297 
Q 300.489107 52.912313 300.489107 55.898567 
Q 300.489107 58.872463 302.130179 60.573598 
Q 303.775711 62.270614 306.647587 62.270614 
Q 308.248525 62.270614 309.697841 61.834004 
Q 311.147158 61.393274 312.641068 60.454148 
L 312.641068 64.433074 
z
" clip-path="url(#p47ccf08037)" style="fill: #0000ff"/>
   </g>
   <g id="patch_26">
    <path d="M 331.27212 65.727924 
Q 329.791588 65.913567 328.19065 66.007468 
Q 326.589713 66.102448 324.846074 66.102448 
Q 319.646372 66.102448 316.609497 65.398732 
Q 313.572621 64.695015 313.572621 63.491573 
Q 313.572621 62.283814 316.609497 61.581177 
Q 319.646372 60.87746 324.846074 60.87746 
Q 326.589713 60.87746 328.19065 60.97244 
Q 329.791588 61.066341 331.27212 61.251984 
L 331.27212 62.293528 
Q 329.778209 62.047443 328.328893 61.933035 
Q 326.879576 61.818627 325.278639 61.818627 
Q 322.406763 61.818627 320.761231 62.264386 
Q 319.120159 62.709066 319.120159 63.491573 
Q 319.120159 64.270842 320.761231 64.716601 
Q 322.406763 65.161281 325.278639 65.161281 
Q 326.879576 65.161281 328.328893 65.046873 
Q 329.778209 64.931386 331.27212 64.685301 
L 331.27212 65.727924 
z
" clip-path="url(#p47ccf08037)" style="fill: #0000ff"/>
   </g>
   <g id="patch_27">
    <path d="M 331.27212 60.195492 
Q 329.487097 60.536476 327.567205 60.707746 
Q 325.647313 60.87746 323.600486 60.87746 
Q 318.975292 60.87746 316.273957 59.862292 
Q 313.572621 58.847124 313.572621 57.111063 
Q 313.572621 55.35476 316.321557 54.347377 
Q 319.07446 53.339994 323.86229 53.339994 
Q 325.706814 53.339994 327.396636 53.477011 
Q 329.090425 53.612471 330.589845 53.880276 
L 330.589845 55.382786 
Q 329.042824 55.038688 327.511671 54.868974 
Q 325.980517 54.697704 324.44143 54.697704 
Q 321.593326 54.697704 320.050273 55.32362 
Q 318.507219 55.947979 318.507219 57.111063 
Q 318.507219 58.263247 319.994739 58.892278 
Q 321.482258 59.519751 324.219294 59.519751 
Q 324.965037 59.519751 325.603679 59.48394 
Q 326.242321 59.446572 326.750061 59.368721 
L 326.750061 57.958074 
L 323.834523 57.958074 
L 323.834523 56.70157 
L 331.27212 56.70157 
L 331.27212 60.195492 
z
" clip-path="url(#p47ccf08037)" style="fill: #ffa600"/>
   </g>
   <g id="patch_28">
    <path d="M 349.903172 65.673342 
Q 348.118149 65.887895 346.198257 65.995661 
Q 344.278365 66.102448 342.231538 66.102448 
Q 337.606344 66.102448 334.905008 65.463687 
Q 332.203673 64.824926 332.203673 63.732566 
Q 332.203673 62.62747 334.952609 61.993607 
Q 337.705512 61.359744 342.493341 61.359744 
Q 344.337866 61.359744 346.027688 61.445957 
Q 347.721477 61.531191 349.220896 61.699698 
L 349.220896 62.645104 
Q 347.673876 62.428591 346.142723 62.321805 
Q 344.611569 62.214038 343.072482 62.214038 
Q 340.224378 62.214038 338.681325 62.607876 
Q 337.138271 63.000733 337.138271 63.732566 
Q 337.138271 64.45754 338.62579 64.853337 
Q 340.11331 65.248154 342.850346 65.248154 
Q 343.596089 65.248154 344.234731 65.225621 
Q 344.873373 65.202108 345.381113 65.153124 
L 345.381113 64.26552 
L 342.465574 64.26552 
L 342.465574 63.474906 
L 349.903172 63.474906 
L 349.903172 65.673342 
z
" clip-path="url(#p47ccf08037)" style="fill: #ffa600"/>
   </g>
   <g id="patch_29">
    <path d="M 349.903172 60.042944 
Q 348.422639 60.695652 346.821702 61.0258 
Q 345.220765 61.359744 343.477126 61.359744 
Q 338.277424 61.359744 335.240548 58.885525 
Q 332.203673 56.411307 332.203673 52.180089 
Q 332.203673 47.933692 335.240548 45.463268 
Q 338.277424 42.989049 343.477126 42.989049 
Q 345.220765 42.989049 346.821702 43.322993 
Q 348.422639 43.653142 349.903172 44.30585 
L 349.903172 47.967845 
Q 348.409261 47.102628 346.959945 46.700378 
Q 345.510628 46.298127 343.909691 46.298127 
Q 341.037814 46.298127 339.392283 47.865385 
Q 337.75121 49.428849 337.75121 52.180089 
Q 337.75121 54.919945 339.392283 56.487203 
Q 341.037814 58.050666 343.909691 58.050666 
Q 345.510628 58.050666 346.959945 57.648416 
Q 348.409261 57.242371 349.903172 56.377153 
L 349.903172 60.042944 
z
" clip-path="url(#p47ccf08037)" style="fill: #0000ff"/>
   </g>
   <g id="patch_30">
    <path d="M 405.796327 66.003449 
Q 404.315795 66.052521 402.714857 66.077342 
Q 401.11392 66.102448 399.370281 66.102448 
Q 394.170579 66.102448 391.133704 65.916433 
Q 388.096828 65.730418 388.096828 65.412309 
Q 388.096828 65.093059 391.133704 64.907329 
Q 394.170579 64.721314 399.370281 64.721314 
Q 401.11392 64.721314 402.714857 64.74642 
Q 404.315795 64.771241 405.796327 64.820313 
L 405.796327 65.095627 
Q 404.302416 65.030578 402.8531 65.000337 
Q 401.403783 64.970095 399.802846 64.970095 
Q 396.93097 64.970095 395.285438 65.087924 
Q 393.644366 65.205467 393.644366 65.412309 
Q 393.644366 65.618295 395.285438 65.736124 
Q 396.93097 65.853667 399.802846 65.853667 
Q 401.403783 65.853667 402.8531 65.823425 
Q 404.302416 65.792898 405.796327 65.72785 
L 405.796327 66.003449 
z
" clip-path="url(#p47ccf08037)" style="fill: #0000ff"/>
   </g>
   <g id="patch_31">
    <path d="M 498.951586 65.025678 
Q 497.166563 65.564063 495.246671 65.834485 
Q 493.326779 66.102448 491.279952 66.102448 
Q 486.654758 66.102448 483.953422 64.499585 
Q 481.252087 62.896721 481.252087 60.155628 
Q 481.252087 57.382575 484.001023 55.792004 
Q 486.753926 54.201432 491.541755 54.201432 
Q 493.38628 54.201432 495.076102 54.417769 
Q 496.769891 54.631648 498.26931 55.05449 
L 498.26931 57.426826 
Q 496.72229 56.883524 495.191137 56.615561 
Q 493.659983 56.345139 492.120896 56.345139 
Q 489.272792 56.345139 487.729739 57.333408 
Q 486.186685 58.319218 486.186685 60.155628 
Q 486.186685 61.974829 487.674205 62.968014 
Q 489.161724 63.958741 491.89876 63.958741 
Q 492.644503 63.958741 493.283145 63.902198 
Q 493.921787 63.843197 494.429527 63.720278 
L 494.429527 61.492986 
L 491.513988 61.492986 
L 491.513988 59.509074 
L 498.951586 59.509074 
L 498.951586 65.025678 
z
" clip-path="url(#p47ccf08037)" style="fill: #ffa600"/>
   </g>
   <g id="patch_32">
    <path d="M 498.951586 53.300564 
Q 497.471053 53.747104 495.870116 53.97297 
Q 494.269179 54.201432 492.52554 54.201432 
Q 487.325838 54.201432 484.288962 52.508735 
Q 481.252087 50.816039 481.252087 47.92132 
Q 481.252087 45.016216 484.288962 43.326116 
Q 487.325838 41.633419 492.52554 41.633419 
Q 494.269179 41.633419 495.870116 41.861881 
Q 497.471053 42.087747 498.951586 42.534287 
L 498.951586 45.039582 
Q 497.457675 44.447657 496.008359 44.172464 
Q 494.559042 43.897271 492.958105 43.897271 
Q 490.086228 43.897271 488.440697 44.969485 
Q 486.799624 46.039103 486.799624 47.92132 
Q 486.799624 49.795748 488.440697 50.867962 
Q 490.086228 51.93758 492.958105 51.93758 
Q 494.559042 51.93758 496.008359 51.662387 
Q 497.457675 51.384598 498.951586 50.792673 
L 498.951586 53.300564 
z
" clip-path="url(#p47ccf08037)" style="fill: #0000ff"/>
   </g>
   <g id="patch_33">
    <path d="M 517.582638 65.90669 
Q 515.797614 66.004569 513.877722 66.053732 
Q 511.957831 66.102448 509.911004 66.102448 
Q 505.28581 66.102448 502.584474 65.811046 
Q 499.883139 65.519643 499.883139 65.021309 
Q 499.883139 64.517164 502.632075 64.227997 
Q 505.384978 63.938829 510.172807 63.938829 
Q 512.017331 63.938829 513.707153 63.978159 
Q 515.400942 64.017043 516.900362 64.093916 
L 516.900362 64.525209 
Q 515.353342 64.426436 513.822188 64.37772 
Q 512.291035 64.328557 510.751948 64.328557 
Q 507.903844 64.328557 506.36079 64.508226 
Q 504.817737 64.687447 504.817737 65.021309 
Q 504.817737 65.352042 506.305256 65.532604 
Q 507.792776 65.71272 510.529812 65.71272 
Q 511.275555 65.71272 511.914197 65.70244 
Q 512.552838 65.691714 513.060578 65.669367 
L 513.060578 65.264442 
L 510.14504 65.264442 
L 510.14504 64.903765 
L 517.582638 64.903765 
L 517.582638 65.90669 
z
" clip-path="url(#p47ccf08037)" style="fill: #ffa600"/>
   </g>
   <g id="patch_34">
    <path d="M 517.582638 63.422234 
Q 516.102105 63.678298 514.501168 63.807819 
Q 512.900231 63.938829 511.156591 63.938829 
Q 505.95689 63.938829 502.920014 62.968167 
Q 499.883139 61.997505 499.883139 60.337554 
Q 499.883139 58.671647 502.920014 57.702474 
Q 505.95689 56.731812 511.156591 56.731812 
Q 512.900231 56.731812 514.501168 56.862822 
Q 516.102105 56.992343 517.582638 57.248407 
L 517.582638 58.685046 
Q 516.088727 58.345612 514.63941 58.187805 
Q 513.190094 58.029998 511.589157 58.029998 
Q 508.71728 58.029998 507.071748 58.64485 
Q 505.430676 59.258213 505.430676 60.337554 
Q 505.430676 61.412428 507.071748 62.02728 
Q 508.71728 62.640643 511.589157 62.640643 
Q 513.190094 62.640643 514.63941 62.482836 
Q 516.088727 62.32354 517.582638 61.984106 
L 517.582638 63.422234 
z
" clip-path="url(#p47ccf08037)" style="fill: #0000ff"/>
   </g>
   <g id="patch_35">
    <path d="M 536.213689 65.591632 
Q 534.428666 65.84704 532.508774 65.975327 
Q 530.588882 66.102448 528.542055 66.102448 
Q 523.916861 66.102448 521.215526 65.342055 
Q 518.51419 64.581661 518.51419 63.281295 
Q 518.51419 61.965768 521.263126 61.211206 
Q 524.016029 60.456644 528.803859 60.456644 
Q 530.648383 60.456644 532.338205 60.559273 
Q 534.031994 60.660737 535.531414 60.861331 
L 535.531414 61.98676 
Q 533.984394 61.72902 532.45324 61.601899 
Q 530.922087 61.473611 529.383 61.473611 
Q 526.534896 61.473611 524.991842 61.942443 
Q 523.448788 62.410108 523.448788 63.281295 
Q 523.448788 64.144319 524.936308 64.615483 
Q 526.423828 65.08548 529.160864 65.08548 
Q 529.906607 65.08548 530.545248 65.058657 
Q 531.18389 65.030667 531.69163 64.972354 
L 531.69163 63.915734 
L 528.776092 63.915734 
L 528.776092 62.974572 
L 536.213689 62.974572 
L 536.213689 65.591632 
z
" clip-path="url(#p47ccf08037)" style="fill: #ffa600"/>
   </g>
   <g id="patch_36">
    <path d="M 536.213689 59.285866 
Q 534.733157 59.866194 533.13222 60.159732 
Q 531.531282 60.456644 529.787643 60.456644 
Q 524.587941 60.456644 521.551066 58.256797 
Q 518.51419 56.05695 518.51419 52.294943 
Q 518.51419 48.519439 521.551066 46.322967 
Q 524.587941 44.12312 529.787643 44.12312 
Q 531.531282 44.12312 533.13222 44.420032 
Q 534.733157 44.71357 536.213689 45.293897 
L 536.213689 48.549805 
Q 534.719779 47.780534 533.270462 47.42289 
Q 531.821146 47.065246 530.220208 47.065246 
Q 527.348332 47.065246 525.7028 48.458707 
Q 524.061728 49.848794 524.061728 52.294943 
Q 524.061728 54.730969 525.7028 56.12443 
Q 527.348332 57.514517 530.220208 57.514517 
Q 531.821146 57.514517 533.270462 57.156874 
Q 534.719779 56.795856 536.213689 56.026584 
L 536.213689 59.285866 
z
" clip-path="url(#p47ccf08037)" style="fill: #0000ff"/>
   </g>
   <g id="patch_37">
    <path d="M 554.844741 64.521626 
Q 553.059718 65.312037 551.139826 65.709047 
Q 549.219934 66.102448 547.173107 66.102448 
Q 542.547913 66.102448 539.846578 63.74926 
Q 537.145242 61.396072 537.145242 57.371832 
Q 537.145242 53.300672 539.894178 50.96553 
Q 542.647081 48.630387 547.434911 48.630387 
Q 549.279435 48.630387 550.969257 48.947996 
Q 552.663046 49.261995 554.162466 49.882774 
L 554.162466 53.365637 
Q 552.615445 52.568007 551.084292 52.174606 
Q 549.553138 51.777596 548.014052 51.777596 
Q 545.165947 51.777596 543.622894 53.228488 
Q 542.07984 54.675771 542.07984 57.371832 
Q 542.07984 60.042628 543.56736 61.500738 
Q 545.054879 62.95524 547.791915 62.95524 
Q 548.537658 62.95524 549.1763 62.872228 
Q 549.814942 62.785608 550.322682 62.605149 
L 550.322682 59.335228 
L 547.407144 59.335228 
L 547.407144 56.422616 
L 554.844741 56.422616 
L 554.844741 64.521626 
z
" clip-path="url(#p47ccf08037)" style="fill: #ffa600"/>
   </g>
   <g id="patch_38">
    <path d="M 573.475793 64.145102 
Q 571.69077 65.123775 569.770878 65.615346 
Q 567.850986 66.102448 565.804159 66.102448 
Q 561.178965 66.102448 558.477629 63.188773 
Q 555.776294 60.275097 555.776294 55.292355 
Q 555.776294 50.251517 558.52523 47.360186 
Q 561.278133 44.468854 566.065962 44.468854 
Q 567.910487 44.468854 569.600309 44.862111 
Q 571.294098 45.250899 572.793517 46.019538 
L 572.793517 50.331956 
Q 571.246497 49.344345 569.715344 48.857243 
Q 568.18419 48.365672 566.645103 48.365672 
Q 563.796999 48.365672 562.253946 50.162141 
Q 560.710892 51.95414 560.710892 55.292355 
Q 560.710892 58.599287 562.198412 60.404693 
Q 563.685931 62.205631 566.422967 62.205631 
Q 567.16871 62.205631 567.807352 62.102848 
Q 568.445994 61.995596 568.953734 61.772154 
L 568.953734 57.723397 
L 566.038195 57.723397 
L 566.038195 54.117053 
L 573.475793 54.117053 
L 573.475793 64.145102 
z
" clip-path="url(#p47ccf08037)" style="fill: #ffa600"/>
   </g>
   <g id="patch_39">
    <path d="M 573.475793 42.095485 
Q 571.99526 43.27191 570.394323 43.866962 
Q 568.793386 44.468854 567.049747 44.468854 
Q 561.850045 44.468854 558.813169 40.009382 
Q 555.776294 35.54991 555.776294 27.923665 
Q 555.776294 20.270061 558.813169 15.817428 
Q 561.850045 11.357956 567.049747 11.357956 
Q 568.793386 11.357956 570.394323 11.959848 
Q 571.99526 12.5549 573.475793 13.731326 
L 573.475793 20.331618 
Q 571.981882 18.772171 570.532566 18.047165 
Q 569.083249 17.322158 567.482312 17.322158 
Q 564.610435 17.322158 562.964904 20.146947 
Q 561.323831 22.964896 561.323831 27.923665 
Q 561.323831 32.861915 562.964904 35.686703 
Q 564.610435 38.504652 567.482312 38.504652 
Q 569.083249 38.504652 570.532566 37.779646 
Q 571.981882 37.0478 573.475793 35.488353 
L 573.475793 42.095485 
z
" clip-path="url(#p47ccf08037)" style="fill: #0000ff"/>
   </g>
   <g id="patch_40">
    <path d="M 592.106845 65.187142 
Q 590.321821 65.644795 588.401929 65.874667 
Q 586.482038 66.102448 584.435211 66.102448 
Q 579.810017 66.102448 577.108681 64.739938 
Q 574.407346 63.377427 574.407346 61.047366 
Q 574.407346 58.690139 577.156282 57.338077 
Q 579.909185 55.986015 584.697014 55.986015 
Q 586.541538 55.986015 588.23136 56.169912 
Q 589.925149 56.35172 591.424569 56.711155 
L 591.424569 58.727754 
Q 589.877549 58.265922 588.346395 58.03814 
Q 586.815242 57.808269 585.276155 57.808269 
Q 582.428051 57.808269 580.884997 58.648344 
Q 579.341944 59.48633 579.341944 61.047366 
Q 579.341944 62.593774 580.829463 63.438029 
Q 582.316983 64.280195 585.054019 64.280195 
Q 585.799762 64.280195 586.438404 64.232131 
Q 587.077045 64.181977 587.584785 64.07749 
L 587.584785 62.184185 
L 584.669247 62.184185 
L 584.669247 60.497765 
L 592.106845 60.497765 
L 592.106845 65.187142 
z
" clip-path="url(#p47ccf08037)" style="fill: #ffa600"/>
   </g>
   <g id="patch_41">
    <path d="M 592.106845 55.167666 
Q 590.626312 55.573303 589.025375 55.77848 
Q 587.424438 55.986015 585.680798 55.986015 
Q 580.481097 55.986015 577.444221 54.448367 
Q 574.407346 52.91072 574.407346 50.281154 
Q 574.407346 47.642154 577.444221 46.106865 
Q 580.481097 44.569217 585.680798 44.569217 
Q 587.424438 44.569217 589.025375 44.776752 
Q 590.626312 44.981929 592.106845 45.387566 
L 592.106845 47.663379 
Q 590.612934 47.125674 589.163617 46.875689 
Q 587.714301 46.625703 586.113364 46.625703 
Q 583.241487 46.625703 581.595955 47.599704 
Q 579.954883 48.571346 579.954883 50.281154 
Q 579.954883 51.983886 581.595955 52.957887 
Q 583.241487 53.929529 586.113364 53.929529 
Q 587.714301 53.929529 589.163617 53.679544 
Q 590.612934 53.4272 592.106845 52.889495 
L 592.106845 55.167666 
z
" clip-path="url(#p47ccf08037)" style="fill: #0000ff"/>
   </g>
   <g id="patch_42">
    <path d="M 586.667804 41.403737 
L 579.860861 41.403737 
L 578.786081 44.569217 
L 574.407346 44.569217 
L 580.660614 27.192591 
L 585.853577 27.192591 
L 592.106845 44.569217 
L 587.731728 44.569217 
L 586.667804 41.403737 
z
M 580.946498 38.178671 
L 585.571311 38.178671 
L 583.262523 31.266751 
L 580.946498 38.178671 
z
" clip-path="url(#p47ccf08037)" style="fill: #008000"/>
   </g>
   <g id="patch_43">
    <path d="M 593.038397 64.241556 
L 610.737896 64.241556 
L 610.737896 64.604482 
L 604.370193 64.604482 
L 604.370193 66.102448 
L 599.418449 66.102448 
L 599.418449 64.604482 
L 593.038397 64.604482 
L 593.038397 64.241556 
z
" clip-path="url(#p47ccf08037)" style="fill: #ff0000"/>
   </g>
   <g id="patch_44">
    <path d="M 605.298856 63.546973 
L 598.491913 63.546973 
L 597.417133 64.241556 
L 593.038397 64.241556 
L 599.291665 60.428705 
L 604.484628 60.428705 
L 610.737896 64.241556 
L 606.36278 64.241556 
L 605.298856 63.546973 
z
M 599.57755 62.839316 
L 604.202363 62.839316 
L 601.893575 61.322674 
L 599.57755 62.839316 
z
" clip-path="url(#p47ccf08037)" style="fill: #008000"/>
   </g>
   <g id="patch_45">
    <path d="M 610.737896 59.973971 
Q 609.257364 60.199372 607.656427 60.313383 
Q 606.055489 60.428705 604.31185 60.428705 
Q 599.112148 60.428705 596.075273 59.574276 
Q 593.038397 58.719847 593.038397 57.258669 
Q 593.038397 55.792249 596.075273 54.939131 
Q 599.112148 54.084702 604.31185 54.084702 
Q 606.055489 54.084702 607.656427 54.200023 
Q 609.257364 54.314035 610.737896 54.539436 
L 610.737896 55.804043 
Q 609.243986 55.505255 607.794669 55.366345 
Q 606.345353 55.227435 604.744415 55.227435 
Q 601.872539 55.227435 600.227007 55.76866 
Q 598.585935 56.308576 598.585935 57.258669 
Q 598.585935 58.204831 600.227007 58.746057 
Q 601.872539 59.285972 604.744415 59.285972 
Q 606.345353 59.285972 607.794669 59.147062 
Q 609.243986 59.006841 610.737896 58.708053 
L 610.737896 59.973971 
z
" clip-path="url(#p47ccf08037)" style="fill: #0000ff"/>
   </g>
   <g id="patch_46">
    <path d="M 610.737896 53.010463 
Q 608.952873 53.547583 607.032981 53.817368 
Q 605.113089 54.084702 603.066262 54.084702 
Q 598.441068 54.084702 595.739733 52.485607 
Q 593.038397 50.886513 593.038397 48.151865 
Q 593.038397 45.385334 595.787333 43.798502 
Q 598.540236 42.211671 603.328066 42.211671 
Q 605.17259 42.211671 606.862412 42.4275 
Q 608.556201 42.640876 610.055621 43.062723 
L 610.055621 45.429481 
Q 608.508601 44.887456 606.977447 44.620123 
Q 605.446294 44.350337 603.907207 44.350337 
Q 601.059103 44.350337 599.516049 45.336282 
Q 597.972995 46.319774 597.972995 48.151865 
Q 597.972995 49.966788 599.460515 50.957638 
Q 600.948035 51.946036 603.685071 51.946036 
Q 604.430814 51.946036 605.069455 51.889626 
Q 605.708097 51.830763 606.215837 51.708133 
L 606.215837 49.486079 
L 603.300299 49.486079 
L 603.300299 47.506832 
L 610.737896 47.506832 
L 610.737896 53.010463 
z
" clip-path="url(#p47ccf08037)" style="fill: #ffa600"/>
   </g>
   <g id="patch_47">
    <path d="M 611.669449 60.030869 
L 629.368948 60.030869 
L 629.368948 61.214996 
L 623.001245 61.214996 
L 623.001245 66.102448 
L 618.049501 66.102448 
L 618.049501 61.214996 
L 611.669449 61.214996 
L 611.669449 60.030869 
z
" clip-path="url(#p47ccf08037)" style="fill: #ff0000"/>
   </g>
   <g id="patch_48">
    <path d="M 629.368948 59.57255 
Q 627.888416 59.799728 626.287478 59.914638 
Q 624.686541 60.030869 622.942902 60.030869 
Q 617.7432 60.030869 614.706325 59.169704 
Q 611.669449 58.308539 611.669449 56.835841 
Q 611.669449 55.35786 614.706325 54.498016 
Q 617.7432 53.636851 622.942902 53.636851 
Q 624.686541 53.636851 626.287478 53.753082 
Q 627.888416 53.867992 629.368948 54.09517 
L 629.368948 55.369747 
Q 627.875037 55.068604 626.425721 54.928598 
Q 624.976404 54.788593 623.375467 54.788593 
Q 620.503591 54.788593 618.858059 55.334086 
Q 617.216987 55.878257 617.216987 56.835841 
Q 617.216987 57.789463 618.858059 58.334955 
Q 620.503591 58.879127 623.375467 58.879127 
Q 624.976404 58.879127 626.425721 58.739122 
Q 627.875037 58.597795 629.368948 58.296652 
L 629.368948 59.57255 
z
" clip-path="url(#p47ccf08037)" style="fill: #0000ff"/>
   </g>
   <g id="patch_49">
    <path d="M 623.929908 52.441368 
L 617.122965 52.441368 
L 616.048184 53.636851 
L 611.669449 53.636851 
L 617.922717 47.074351 
L 623.11568 47.074351 
L 629.368948 53.636851 
L 624.993832 53.636851 
L 623.929908 52.441368 
z
M 618.208602 51.223381 
L 622.833415 51.223381 
L 620.524627 48.613008 
L 618.208602 51.223381 
z
" clip-path="url(#p47ccf08037)" style="fill: #008000"/>
   </g>
   <g id="patch_50">
    <path d="M 629.368948 46.113616 
Q 627.583925 46.593984 625.664033 46.835264 
Q 623.744141 47.074351 621.697314 47.074351 
Q 617.07212 47.074351 614.370785 45.644216 
Q 611.669449 44.214081 611.669449 41.768374 
Q 611.669449 39.294152 614.418385 37.874984 
Q 617.171288 36.455816 621.959118 36.455816 
Q 623.803642 36.455816 625.493464 36.64884 
Q 627.187253 36.839671 628.686673 37.216946 
L 628.686673 39.333634 
Q 627.139652 38.84888 625.608499 38.609793 
Q 624.077345 38.368512 622.538259 38.368512 
Q 619.690154 38.368512 618.147101 39.250283 
Q 616.604047 40.12986 616.604047 41.768374 
Q 616.604047 43.391534 618.091567 44.277691 
Q 619.579086 45.161655 622.316122 45.161655 
Q 623.061865 45.161655 623.700507 45.111205 
Q 624.339149 45.058562 624.846889 44.948889 
L 624.846889 42.961616 
L 621.931351 42.961616 
L 621.931351 41.191494 
L 629.368948 41.191494 
L 629.368948 46.113616 
z
" clip-path="url(#p47ccf08037)" style="fill: #ffa600"/>
   </g>
   <g id="patch_51">
    <path d="M 642.560959 65.913976 
L 635.754017 65.913976 
L 634.679236 66.102448 
L 630.300501 66.102448 
L 636.553769 65.067845 
L 641.746732 65.067845 
L 648 66.102448 
L 643.624884 66.102448 
L 642.560959 65.913976 
z
M 636.839653 65.721955 
L 641.464466 65.721955 
L 639.155679 65.31042 
L 636.839653 65.721955 
z
" clip-path="url(#p47ccf08037)" style="fill: #008000"/>
   </g>
   <g id="patch_52">
    <path d="M 648 64.763816 
Q 646.519467 64.914516 644.91853 64.990742 
Q 643.317593 65.067845 641.573954 65.067845 
Q 636.374252 65.067845 633.337376 64.496587 
Q 630.300501 63.925329 630.300501 62.948409 
Q 630.300501 61.967983 633.337376 61.397602 
Q 636.374252 60.826344 641.573954 60.826344 
Q 643.317593 60.826344 644.91853 60.903446 
Q 646.519467 60.979672 648 61.130372 
L 648 61.975869 
Q 646.506089 61.776104 645.056773 61.683231 
Q 643.607456 61.590357 642.006519 61.590357 
Q 639.134642 61.590357 637.489111 61.952212 
Q 635.848038 62.313191 635.848038 62.948409 
Q 635.848038 63.580998 637.489111 63.942853 
Q 639.134642 64.303831 642.006519 64.303831 
Q 643.607456 64.303831 645.056773 64.210958 
Q 646.506089 64.117209 648 63.917444 
L 648 64.763816 
z
" clip-path="url(#p47ccf08037)" style="fill: #0000ff"/>
   </g>
   <g id="patch_53">
    <path d="M 648 59.436278 
Q 646.214977 60.131311 644.295085 60.480414 
Q 642.375193 60.826344 640.328366 60.826344 
Q 635.703172 60.826344 633.001836 58.757113 
Q 630.300501 56.687883 630.300501 53.149244 
Q 630.300501 49.569348 633.049437 47.515986 
Q 635.80234 45.462623 640.590169 45.462623 
Q 642.434694 45.462623 644.124516 45.741906 
Q 645.818305 46.018015 647.317724 46.563886 
L 647.317724 49.626474 
Q 645.770704 48.925094 644.239551 48.579164 
Q 642.708397 48.230061 641.16931 48.230061 
Q 638.321206 48.230061 636.778153 49.505875 
Q 635.235099 50.778515 635.235099 53.149244 
Q 635.235099 55.497758 636.722619 56.779919 
Q 638.210138 58.058907 640.947174 58.058907 
Q 641.692917 58.058907 642.331559 57.985912 
Q 642.970201 57.909744 643.477941 57.751061 
L 643.477941 54.875719 
L 640.562402 54.875719 
L 640.562402 52.31457 
L 648 52.31457 
L 648 59.436278 
z
" clip-path="url(#p47ccf08037)" style="fill: #ffa600"/>
   </g>
   <g id="patch_54">
    <path d="M 630.300501 25.92 
L 648 25.92 
L 648 29.731356 
L 641.632296 29.731356 
L 641.632296 45.462623 
L 636.680553 45.462623 
L 636.680553 29.731356 
L 630.300501 29.731356 
L 630.300501 25.92 
z
" clip-path="url(#p47ccf08037)" style="fill: #ff0000"/>
   </g>
   <g id="patch_55">
    <path d="M 102.260459 88.006705 
L 95.453516 88.006705 
L 94.378735 82.675638 
L 90 82.675638 
L 96.253268 111.940059 
L 101.446231 111.940059 
L 107.699499 82.675638 
L 103.324383 82.675638 
L 102.260459 88.006705 
z
M 96.539153 93.438121 
L 101.163965 93.438121 
L 98.855178 105.078663 
L 96.539153 93.438121 
z
" clip-path="url(#p47ccf08037)" style="fill: #008000"/>
   </g>
   <g id="patch_56">
    <path d="M 90 82.675638 
L 107.699499 82.675638 
L 107.699499 79.443404 
L 101.331796 79.443404 
L 101.331796 66.102448 
L 96.380052 66.102448 
L 96.380052 79.443404 
L 90 79.443404 
L 90 82.675638 
z
" clip-path="url(#p47ccf08037)" style="fill: #ff0000"/>
   </g>
   <g id="patch_57">
    <path d="M 120.89151 67.819512 
L 114.084567 67.819512 
L 113.009787 66.102448 
L 108.631052 66.102448 
L 114.88432 75.528119 
L 120.077283 75.528119 
L 126.330551 66.102448 
L 121.955434 66.102448 
L 120.89151 67.819512 
z
M 115.170204 69.568897 
L 119.795017 69.568897 
L 117.48623 73.318157 
L 115.170204 69.568897 
z
" clip-path="url(#p47ccf08037)" style="fill: #008000"/>
   </g>
   <g id="patch_58">
    <path d="M 108.631052 95.5944 
L 126.330551 95.5944 
L 126.330551 91.680916 
L 119.962847 91.680916 
L 119.962847 75.528119 
L 115.011104 75.528119 
L 115.011104 91.680916 
L 108.631052 91.680916 
L 108.631052 95.5944 
z
" clip-path="url(#p47ccf08037)" style="fill: #ff0000"/>
   </g>
   <g id="patch_59">
    <path d="M 139.522562 87.809353 
L 132.715619 87.809353 
L 131.640839 83.542427 
L 127.262104 83.542427 
L 133.515372 106.965342 
L 138.708335 106.965342 
L 144.961603 83.542427 
L 140.586486 83.542427 
L 139.522562 87.809353 
z
M 133.801256 92.156598 
L 138.426069 92.156598 
L 136.117281 101.473557 
L 133.801256 92.156598 
z
" clip-path="url(#p47ccf08037)" style="fill: #008000"/>
   </g>
   <g id="patch_60">
    <path d="M 144.961603 66.167226 
Q 143.176579 66.134837 141.256687 66.118569 
Q 139.336795 66.102448 137.289969 66.102448 
Q 132.664774 66.102448 129.963439 66.198876 
Q 127.262104 66.295304 127.262104 66.460207 
Q 127.262104 66.627034 130.01104 66.722722 
Q 132.763942 66.81841 137.551772 66.81841 
Q 139.396296 66.81841 141.086118 66.805396 
Q 142.779907 66.792529 144.279327 66.767091 
L 144.279327 66.624371 
Q 142.732307 66.657056 141.201153 66.673177 
Q 139.67 66.689445 138.130913 66.689445 
Q 135.282809 66.689445 133.739755 66.629991 
Q 132.196702 66.570685 132.196702 66.460207 
Q 132.196702 66.350765 133.684221 66.291015 
Q 135.171741 66.231413 137.908777 66.231413 
Q 138.65452 66.231413 139.293162 66.234815 
Q 139.931803 66.238364 140.439543 66.245759 
L 140.439543 66.379752 
L 137.524005 66.379752 
L 137.524005 66.499104 
L 144.961603 66.499104 
L 144.961603 66.167226 
z
" clip-path="url(#p47ccf08037)" style="fill: #ffa600"/>
   </g>
   <g id="patch_61">
    <path d="M 127.262104 83.542427 
L 144.961603 83.542427 
L 144.961603 80.280778 
L 138.593899 80.280778 
L 138.593899 66.81841 
L 133.642156 66.81841 
L 133.642156 80.280778 
L 127.262104 80.280778 
L 127.262104 83.542427 
z
" clip-path="url(#p47ccf08037)" style="fill: #ff0000"/>
   </g>
   <g id="patch_62">
    <path d="M 158.153614 70.848481 
L 151.346671 70.848481 
L 150.27189 66.969744 
L 145.893155 66.969744 
L 152.146423 88.261732 
L 157.339386 88.261732 
L 163.592654 66.969744 
L 159.217538 66.969744 
L 158.153614 70.848481 
z
M 152.432308 74.800231 
L 157.057121 74.800231 
L 154.748333 83.269568 
L 152.432308 74.800231 
z
" clip-path="url(#p47ccf08037)" style="fill: #008000"/>
   </g>
   <g id="patch_63">
    <path d="M 145.893155 66.969744 
L 163.592654 66.969744 
L 163.592654 66.800597 
L 157.224951 66.800597 
L 157.224951 66.102448 
L 152.273207 66.102448 
L 152.273207 66.800597 
L 145.893155 66.800597 
L 145.893155 66.969744 
z
" clip-path="url(#p47ccf08037)" style="fill: #ff0000"/>
   </g>
   <g id="patch_64">
    <path d="M 176.784666 68.796974 
L 169.977723 68.796974 
L 168.902942 66.102448 
L 164.524207 66.102448 
L 170.777475 80.893811 
L 175.970438 80.893811 
L 182.223706 66.102448 
L 177.84859 66.102448 
L 176.784666 68.796974 
z
M 171.06336 71.542221 
L 175.688172 71.542221 
L 173.379385 77.425798 
L 171.06336 71.542221 
z
" clip-path="url(#p47ccf08037)" style="fill: #008000"/>
   </g>
   <g id="patch_65">
    <path d="M 195.415717 73.777027 
L 188.608774 73.777027 
L 187.533994 71.000042 
L 183.155259 71.000042 
L 189.408527 86.244056 
L 194.60149 86.244056 
L 200.854758 71.000042 
L 196.479641 71.000042 
L 195.415717 73.777027 
z
M 189.694411 76.606285 
L 194.319224 76.606285 
L 192.010437 82.669913 
L 189.694411 76.606285 
z
" clip-path="url(#p47ccf08037)" style="fill: #008000"/>
   </g>
   <g id="patch_66">
    <path d="M 183.155259 71.000042 
L 200.854758 71.000042 
L 200.854758 70.044875 
L 194.487054 70.044875 
L 194.487054 66.102448 
L 189.535311 66.102448 
L 189.535311 70.044875 
L 183.155259 70.044875 
L 183.155259 71.000042 
z
" clip-path="url(#p47ccf08037)" style="fill: #ff0000"/>
   </g>
   <g id="patch_67">
    <path d="M 214.046769 76.781865 
L 207.239826 76.781865 
L 206.165046 74.40605 
L 201.786311 74.40605 
L 208.039579 87.447878 
L 213.232542 87.447878 
L 219.48581 74.40605 
L 215.110693 74.40605 
L 214.046769 76.781865 
z
M 208.325463 79.202402 
L 212.950276 79.202402 
L 210.641488 84.390064 
L 208.325463 79.202402 
z
" clip-path="url(#p47ccf08037)" style="fill: #008000"/>
   </g>
   <g id="patch_68">
    <path d="M 201.786311 74.40605 
L 219.48581 74.40605 
L 219.48581 72.786616 
L 213.118106 72.786616 
L 213.118106 66.102448 
L 208.166363 66.102448 
L 208.166363 72.786616 
L 201.786311 72.786616 
L 201.786311 74.40605 
z
" clip-path="url(#p47ccf08037)" style="fill: #ff0000"/>
   </g>
   <g id="patch_69">
    <path d="M 232.677821 67.341488 
L 225.870878 67.341488 
L 224.796097 66.102448 
L 220.417362 66.102448 
L 226.67063 72.904046 
L 231.863593 72.904046 
L 238.116861 66.102448 
L 233.741745 66.102448 
L 232.677821 67.341488 
z
M 226.956515 68.60385 
L 231.581328 68.60385 
L 229.27254 71.309329 
L 226.956515 68.60385 
z
" clip-path="url(#p47ccf08037)" style="fill: #008000"/>
   </g>
   <g id="patch_70">
    <path d="M 220.417362 81.885487 
L 238.116861 81.885487 
L 238.116861 80.133856 
L 231.749158 80.133856 
L 231.749158 72.904046 
L 226.797414 72.904046 
L 226.797414 80.133856 
L 220.417362 80.133856 
L 220.417362 81.885487 
z
" clip-path="url(#p47ccf08037)" style="fill: #ff0000"/>
   </g>
   <g id="patch_71">
    <path d="M 251.308873 70.478997 
L 244.50193 70.478997 
L 243.427149 66.102448 
L 239.048414 66.102448 
L 245.301682 90.127125 
L 250.494645 90.127125 
L 256.747913 66.102448 
L 252.372797 66.102448 
L 251.308873 70.478997 
z
M 245.587567 74.937927 
L 250.212379 74.937927 
L 247.903592 84.49425 
L 245.587567 74.937927 
z
" clip-path="url(#p47ccf08037)" style="fill: #008000"/>
   </g>
   <g id="patch_72">
    <path d="M 269.939924 70.972712 
L 263.132981 70.972712 
L 262.058201 66.13717 
L 257.679466 66.13717 
L 263.932734 92.681452 
L 269.125697 92.681452 
L 275.378965 66.13717 
L 271.003849 66.13717 
L 269.939924 70.972712 
z
M 264.218618 75.899276 
L 268.843431 75.899276 
L 266.534644 86.457825 
L 264.218618 75.899276 
z
" clip-path="url(#p47ccf08037)" style="fill: #008000"/>
   </g>
   <g id="patch_73">
    <path d="M 257.679466 66.13717 
L 275.378965 66.13717 
L 275.378965 66.130398 
L 269.011261 66.130398 
L 269.011261 66.102448 
L 264.059518 66.102448 
L 264.059518 66.130398 
L 257.679466 66.130398 
L 257.679466 66.13717 
z
" clip-path="url(#p47ccf08037)" style="fill: #ff0000"/>
   </g>
   <g id="patch_74">
    <path d="M 288.570976 81.423352 
L 281.764033 81.423352 
L 280.689253 72.617721 
L 276.310518 72.617721 
L 282.563786 120.955458 
L 287.756749 120.955458 
L 294.010017 72.617721 
L 289.6349 72.617721 
L 288.570976 81.423352 
z
M 282.84967 90.394737 
L 287.474483 90.394737 
L 285.165695 109.622092 
L 282.84967 90.394737 
z
" clip-path="url(#p47ccf08037)" style="fill: #008000"/>
   </g>
   <g id="patch_75">
    <path d="M 294.010017 68.15293 
Q 292.224993 67.930857 290.305101 67.819313 
Q 288.385209 67.708784 286.338383 67.708784 
Q 281.713188 67.708784 279.011853 68.369934 
Q 276.310518 69.031084 276.310518 70.161731 
Q 276.310518 71.305561 279.059454 71.961641 
Q 281.812356 72.617721 286.600186 72.617721 
Q 288.44471 72.617721 290.134532 72.528486 
Q 291.828321 72.440265 293.327741 72.265851 
L 293.327741 71.287309 
Q 291.780721 71.51141 290.249567 71.62194 
Q 288.718414 71.733483 287.179327 71.733483 
Q 284.331223 71.733483 282.788169 71.325842 
Q 281.245116 70.919214 281.245116 70.161731 
Q 281.245116 69.411346 282.732635 69.001677 
Q 284.220155 68.593021 286.957191 68.593021 
Q 287.702934 68.593021 288.341576 68.616344 
Q 288.980217 68.640681 289.487957 68.691382 
L 289.487957 69.610097 
L 286.572419 69.610097 
L 286.572419 70.428422 
L 294.010017 70.428422 
L 294.010017 68.15293 
z
" clip-path="url(#p47ccf08037)" style="fill: #ffa600"/>
   </g>
   <g id="patch_76">
    <path d="M 276.310518 67.708784 
L 294.010017 67.708784 
L 294.010017 67.395503 
L 287.642313 67.395503 
L 287.642313 66.102448 
L 282.69057 66.102448 
L 282.69057 67.395503 
L 276.310518 67.395503 
L 276.310518 67.708784 
z
" clip-path="url(#p47ccf08037)" style="fill: #ff0000"/>
   </g>
   <g id="patch_77">
    <path d="M 307.202028 75.803659 
L 300.395085 75.803659 
L 299.320305 68.588911 
L 294.941569 68.588911 
L 301.194837 108.193632 
L 306.3878 108.193632 
L 312.641068 68.588911 
L 308.265952 68.588911 
L 307.202028 75.803659 
z
M 301.480722 83.154214 
L 306.105535 83.154214 
L 303.796747 98.907828 
L 301.480722 83.154214 
z
" clip-path="url(#p47ccf08037)" style="fill: #008000"/>
   </g>
   <g id="patch_78">
    <path d="M 294.941569 68.588911 
L 312.641068 68.588911 
L 312.641068 68.103981 
L 306.273365 68.103981 
L 306.273365 66.102448 
L 301.321621 66.102448 
L 301.321621 68.103981 
L 294.941569 68.103981 
L 294.941569 68.588911 
z
" clip-path="url(#p47ccf08037)" style="fill: #ff0000"/>
   </g>
   <g id="patch_79">
    <path d="M 325.83308 78.087563 
L 319.026137 78.087563 
L 317.951356 71.701642 
L 313.572621 71.701642 
L 319.825889 106.756595 
L 325.018852 106.756595 
L 331.27212 71.701642 
L 326.897004 71.701642 
L 325.83308 78.087563 
z
M 320.111774 84.59369 
L 324.736586 84.59369 
L 322.427799 98.537538 
L 320.111774 84.59369 
z
" clip-path="url(#p47ccf08037)" style="fill: #008000"/>
   </g>
   <g id="patch_80">
    <path d="M 313.572621 71.701642 
L 331.27212 71.701642 
L 331.27212 70.609643 
L 324.904417 70.609643 
L 324.904417 66.102448 
L 319.952673 66.102448 
L 319.952673 70.609643 
L 313.572621 70.609643 
L 313.572621 71.701642 
z
" clip-path="url(#p47ccf08037)" style="fill: #ff0000"/>
   </g>
   <g id="patch_81">
    <path d="M 344.464131 73.765558 
L 337.657188 73.765558 
L 336.582408 66.17483 
L 332.203673 66.17483 
L 338.456941 107.843464 
L 343.649904 107.843464 
L 349.903172 66.17483 
L 345.528056 66.17483 
L 344.464131 73.765558 
z
M 338.742825 81.499171 
L 343.367638 81.499171 
L 341.058851 98.07375 
L 338.742825 81.499171 
z
" clip-path="url(#p47ccf08037)" style="fill: #008000"/>
   </g>
   <g id="patch_82">
    <path d="M 332.203673 66.17483 
L 349.903172 66.17483 
L 349.903172 66.160713 
L 343.535468 66.160713 
L 343.535468 66.102448 
L 338.583725 66.102448 
L 338.583725 66.160713 
L 332.203673 66.160713 
L 332.203673 66.17483 
z
" clip-path="url(#p47ccf08037)" style="fill: #ff0000"/>
   </g>
   <g id="patch_83">
    <path d="M 363.095183 76.280807 
L 356.28824 76.280807 
L 355.21346 72.906784 
L 350.834725 72.906784 
L 357.087993 91.428186 
L 362.280956 91.428186 
L 368.534224 72.906784 
L 364.159107 72.906784 
L 363.095183 76.280807 
z
M 357.373877 79.718341 
L 361.99869 79.718341 
L 359.689902 87.08562 
L 357.373877 79.718341 
z
" clip-path="url(#p47ccf08037)" style="fill: #008000"/>
   </g>
   <g id="patch_84">
    <path d="M 368.534224 67.92153 
Q 367.053691 67.730728 365.452754 67.634218 
Q 363.851817 67.536599 362.108177 67.536599 
Q 356.908476 67.536599 353.8716 68.259871 
Q 350.834725 68.983143 350.834725 70.220027 
Q 350.834725 71.461349 353.8716 72.183512 
Q 356.908476 72.906784 362.108177 72.906784 
Q 363.851817 72.906784 365.452754 72.809164 
Q 367.053691 72.712654 368.534224 72.521852 
L 368.534224 71.451365 
Q 367.040313 71.704288 365.590996 71.821876 
Q 364.14168 71.939463 362.540743 71.939463 
Q 359.668866 71.939463 358.023334 71.481317 
Q 356.382262 71.024279 356.382262 70.220027 
Q 356.382262 69.419103 358.023334 68.960957 
Q 359.668866 68.50392 362.540743 68.50392 
Q 364.14168 68.50392 365.590996 68.621507 
Q 367.040313 68.740203 368.534224 68.993127 
L 368.534224 67.92153 
z
" clip-path="url(#p47ccf08037)" style="fill: #0000ff"/>
   </g>
   <g id="patch_85">
    <path d="M 368.534224 66.232206 
Q 366.7492 66.167327 364.829308 66.13474 
Q 362.909416 66.102448 360.86259 66.102448 
Q 356.237396 66.102448 353.53606 66.295604 
Q 350.834725 66.488759 350.834725 66.819079 
Q 350.834725 67.15325 353.583661 67.344924 
Q 356.336563 67.536599 361.124393 67.536599 
Q 362.968917 67.536599 364.658739 67.510528 
Q 366.352528 67.484755 367.851948 67.4338 
L 367.851948 67.147917 
Q 366.304928 67.213389 364.773774 67.24568 
Q 363.242621 67.278268 361.703534 67.278268 
Q 358.85543 67.278268 357.312376 67.159175 
Q 355.769323 67.040378 355.769323 66.819079 
Q 355.769323 66.599853 357.256842 66.480168 
Q 358.744362 66.360779 361.481398 66.360779 
Q 362.227141 66.360779 362.865783 66.367593 
Q 363.504424 66.374703 364.012164 66.389515 
L 364.012164 66.657919 
L 361.096626 66.657919 
L 361.096626 66.896993 
L 368.534224 66.896993 
L 368.534224 66.232206 
z
" clip-path="url(#p47ccf08037)" style="fill: #ffa600"/>
   </g>
   <g id="patch_86">
    <path d="M 350.834725 109.973558 
L 368.534224 109.973558 
L 368.534224 106.356694 
L 362.16652 106.356694 
L 362.16652 91.428186 
L 357.214777 91.428186 
L 357.214777 106.356694 
L 350.834725 106.356694 
L 350.834725 109.973558 
z
" clip-path="url(#p47ccf08037)" style="fill: #ff0000"/>
   </g>
   <g id="patch_87">
    <path d="M 381.726235 104.2742 
L 374.919292 104.2742 
L 373.844512 95.563448 
L 369.465776 95.563448 
L 375.719044 143.380353 
L 380.912007 143.380353 
L 387.165275 95.563448 
L 382.790159 95.563448 
L 381.726235 104.2742 
z
M 376.004929 113.148919 
L 380.629742 113.148919 
L 378.320954 132.169103 
L 376.004929 113.148919 
z
" clip-path="url(#p47ccf08037)" style="fill: #008000"/>
   </g>
   <g id="patch_88">
    <path d="M 387.165275 66.282033 
Q 385.684743 66.193017 384.083806 66.147991 
Q 382.482868 66.102448 380.739229 66.102448 
Q 375.539527 66.102448 372.502652 66.439882 
Q 369.465776 66.777315 369.465776 67.354367 
Q 369.465776 67.933489 372.502652 68.270405 
Q 375.539527 68.607838 380.739229 68.607838 
Q 382.482868 68.607838 384.083806 68.562295 
Q 385.684743 68.51727 387.165275 68.428254 
L 387.165275 67.928832 
Q 385.671365 68.04683 384.222048 68.101689 
Q 382.772732 68.156547 381.171794 68.156547 
Q 378.299918 68.156547 376.654386 67.942805 
Q 375.013314 67.72958 375.013314 67.354367 
Q 375.013314 66.980706 376.654386 66.766964 
Q 378.299918 66.553739 381.171794 66.553739 
Q 382.772732 66.553739 384.222048 66.608598 
Q 385.671365 66.663974 387.165275 66.781973 
L 387.165275 66.282033 
z
" clip-path="url(#p47ccf08037)" style="fill: #0000ff"/>
   </g>
   <g id="patch_89">
    <path d="M 387.165275 69.471519 
Q 385.380252 69.039679 383.46036 68.822773 
Q 381.540468 68.607838 379.493641 68.607838 
Q 374.868447 68.607838 372.167112 69.8935 
Q 369.465776 71.179162 369.465776 73.377802 
Q 369.465776 75.602076 372.214712 76.877878 
Q 374.967615 78.153681 379.755445 78.153681 
Q 381.599969 78.153681 383.289791 77.980156 
Q 384.98358 77.808603 386.483 77.46944 
L 386.483 75.566582 
Q 384.93598 76.002366 383.404826 76.2173 
Q 381.873673 76.434207 380.334586 76.434207 
Q 377.486482 76.434207 375.943428 75.641513 
Q 374.400374 74.850792 374.400374 73.377802 
Q 374.400374 71.918615 375.887894 71.121978 
Q 377.375414 70.327313 380.112449 70.327313 
Q 380.858193 70.327313 381.496834 70.372666 
Q 382.135476 70.419991 382.643216 70.518584 
L 382.643216 72.305102 
L 379.727678 72.305102 
L 379.727678 73.896405 
L 387.165275 73.896405 
L 387.165275 69.471519 
z
" clip-path="url(#p47ccf08037)" style="fill: #ffa600"/>
   </g>
   <g id="patch_90">
    <path d="M 369.465776 95.563448 
L 387.165275 95.563448 
L 387.165275 92.168058 
L 380.797572 92.168058 
L 380.797572 78.153681 
L 375.845828 78.153681 
L 375.845828 92.168058 
L 369.465776 92.168058 
L 369.465776 95.563448 
z
" clip-path="url(#p47ccf08037)" style="fill: #ff0000"/>
   </g>
   <g id="patch_91">
    <path d="M 400.357287 81.586939 
L 393.550344 81.586939 
L 392.475563 76.613818 
L 388.096828 76.613818 
L 394.350096 103.91333 
L 399.543059 103.91333 
L 405.796327 76.613818 
L 401.421211 76.613818 
L 400.357287 81.586939 
z
M 394.635981 86.653673 
L 399.260793 86.653673 
L 396.952006 97.51263 
L 394.635981 86.653673 
z
" clip-path="url(#p47ccf08037)" style="fill: #008000"/>
   </g>
   <g id="patch_92">
    <path d="M 405.796327 109.239979 
Q 404.011304 106.576655 402.091412 105.238912 
Q 400.17152 103.91333 398.124693 103.91333 
Q 393.499499 103.91333 390.798164 111.842497 
Q 388.096828 119.771665 388.096828 133.331514 
Q 388.096828 147.04946 390.845764 154.917821 
Q 393.598667 162.786182 398.386497 162.786182 
Q 400.231021 162.786182 401.920843 161.715987 
Q 403.614632 160.657954 405.114052 158.566211 
L 405.114052 146.830556 
Q 403.567031 149.518204 402.035878 150.843785 
Q 400.504724 152.181528 398.965637 152.181528 
Q 396.117533 152.181528 394.57448 147.292686 
Q 393.031426 142.416005 393.031426 133.331514 
Q 393.031426 124.332152 394.518946 119.418987 
Q 396.006465 114.517983 398.743501 114.517983 
Q 399.489244 114.517983 400.127886 114.797693 
Q 400.766528 115.089564 401.274268 115.697629 
L 401.274268 126.715767 
L 398.35873 126.715767 
L 398.35873 136.529936 
L 405.796327 136.529936 
L 405.796327 109.239979 
z
" clip-path="url(#p47ccf08037)" style="fill: #ffa600"/>
   </g>
   <g id="patch_93">
    <path d="M 388.096828 76.613818 
L 405.796327 76.613818 
L 405.796327 74.563808 
L 399.428624 74.563808 
L 399.428624 66.102448 
L 394.47688 66.102448 
L 394.47688 74.563808 
L 388.096828 74.563808 
L 388.096828 76.613818 
z
" clip-path="url(#p47ccf08037)" style="fill: #ff0000"/>
   </g>
   <g id="patch_94">
    <path d="M 418.988338 88.226948 
L 412.181395 88.226948 
L 411.106615 67.216627 
L 406.72788 67.216627 
L 412.981148 182.550927 
L 418.174111 182.550927 
L 424.427379 67.216627 
L 420.052263 67.216627 
L 418.988338 88.226948 
z
M 413.267032 109.632756 
L 417.891845 109.632756 
L 415.583058 155.509409 
L 413.267032 109.632756 
z
" clip-path="url(#p47ccf08037)" style="fill: #008000"/>
   </g>
   <g id="patch_95">
    <path d="M 424.427379 66.203256 
Q 422.642356 66.152852 420.722464 66.127535 
Q 418.802572 66.102448 416.755745 66.102448 
Q 412.130551 66.102448 409.429215 66.252509 
Q 406.72788 66.40257 406.72788 66.659192 
Q 406.72788 66.918807 409.476816 67.067717 
Q 412.229719 67.216627 417.017548 67.216627 
Q 418.862073 67.216627 420.551895 67.196374 
Q 422.245684 67.17635 423.745103 67.136763 
L 423.745103 66.914664 
Q 422.198083 66.965528 420.66693 66.990615 
Q 419.135776 67.015932 417.596689 67.015932 
Q 414.748585 67.015932 413.205532 66.92341 
Q 411.662478 66.831118 411.662478 66.659192 
Q 411.662478 66.488878 413.149997 66.395896 
Q 414.637517 66.303143 417.374553 66.303143 
Q 418.120296 66.303143 418.758938 66.308437 
Q 419.39758 66.31396 419.90532 66.325468 
L 419.90532 66.533988 
L 416.989781 66.533988 
L 416.989781 66.719723 
L 424.427379 66.719723 
L 424.427379 66.203256 
z
" clip-path="url(#p47ccf08037)" style="fill: #ffa600"/>
   </g>
   <g id="patch_96">
    <path d="M 437.61939 89.790457 
L 430.812447 89.790457 
L 429.737667 66.970197 
L 425.358932 66.970197 
L 431.6122 192.24 
L 436.805163 192.24 
L 443.058431 66.970197 
L 438.683314 66.970197 
L 437.61939 89.790457 
z
M 431.898084 113.040274 
L 436.522897 113.040274 
L 434.214109 162.868983 
L 431.898084 113.040274 
z
" clip-path="url(#p47ccf08037)" style="fill: #008000"/>
   </g>
   <g id="patch_97">
    <path d="M 443.058431 66.303026 
Q 441.577898 66.277491 439.976961 66.264576 
Q 438.376024 66.251511 436.632384 66.251511 
Q 431.432683 66.251511 428.395807 66.348306 
Q 425.358932 66.445101 425.358932 66.610631 
Q 425.358932 66.776756 428.395807 66.873402 
Q 431.432683 66.970197 436.632384 66.970197 
Q 438.376024 66.970197 439.976961 66.957133 
Q 441.577898 66.944217 443.058431 66.918682 
L 443.058431 66.77542 
Q 441.56452 66.809268 440.115203 66.825005 
Q 438.665887 66.840741 437.06495 66.840741 
Q 434.193073 66.840741 432.547541 66.779428 
Q 430.906469 66.718263 430.906469 66.610631 
Q 430.906469 66.503445 432.547541 66.442131 
Q 434.193073 66.380967 437.06495 66.380967 
Q 438.665887 66.380967 440.115203 66.396703 
Q 441.56452 66.412588 443.058431 66.446437 
L 443.058431 66.303026 
z
" clip-path="url(#p47ccf08037)" style="fill: #0000ff"/>
   </g>
   <g id="patch_98">
    <path d="M 443.058431 66.115935 
Q 441.273407 66.109192 439.353515 66.105805 
Q 437.433623 66.102448 435.386797 66.102448 
Q 430.761603 66.102448 428.060267 66.122525 
Q 425.358932 66.142601 425.358932 66.176934 
Q 425.358932 66.211667 428.107868 66.231589 
Q 430.86077 66.251511 435.6486 66.251511 
Q 437.493124 66.251511 439.182946 66.248802 
Q 440.876735 66.246123 442.376155 66.240827 
L 442.376155 66.211112 
Q 440.829135 66.217917 439.297981 66.221274 
Q 437.766828 66.224661 436.227741 66.224661 
Q 433.379637 66.224661 431.836583 66.212283 
Q 430.29353 66.199935 430.29353 66.176934 
Q 430.29353 66.154148 431.781049 66.141708 
Q 433.268569 66.129299 436.005605 66.129299 
Q 436.751348 66.129299 437.38999 66.130007 
Q 438.028631 66.130746 438.536371 66.132286 
L 438.536371 66.160183 
L 435.620833 66.160183 
L 435.620833 66.185032 
L 443.058431 66.185032 
L 443.058431 66.115935 
z
" clip-path="url(#p47ccf08037)" style="fill: #ffa600"/>
   </g>
   <g id="patch_99">
    <path d="M 456.250442 93.710357 
L 449.443499 93.710357 
L 448.368719 72.825331 
L 443.989983 72.825331 
L 450.243251 187.47184 
L 455.436214 187.47184 
L 461.689482 72.825331 
L 457.314366 72.825331 
L 456.250442 93.710357 
z
M 450.529136 114.988513 
L 455.153949 114.988513 
L 452.845161 160.591582 
L 450.529136 114.988513 
z
" clip-path="url(#p47ccf08037)" style="fill: #008000"/>
   </g>
   <g id="patch_100">
    <path d="M 461.689482 68.084982 
Q 459.904459 67.849203 457.984567 67.730775 
Q 456.064675 67.613424 454.017848 67.613424 
Q 449.392654 67.613424 446.691319 68.315379 
Q 443.989983 69.017333 443.989983 70.217762 
Q 443.989983 71.432187 446.738919 72.128759 
Q 449.491822 72.825331 454.279652 72.825331 
Q 456.124176 72.825331 457.813998 72.730588 
Q 459.507787 72.636922 461.007207 72.451744 
L 461.007207 71.412808 
Q 459.460187 71.650741 457.929033 71.768092 
Q 456.39788 71.88652 454.858793 71.88652 
Q 452.010689 71.88652 450.467635 71.453719 
Q 448.924581 71.021996 448.924581 70.217762 
Q 448.924581 69.421065 450.412101 68.986111 
Q 451.899621 68.552235 454.636656 68.552235 
Q 455.3824 68.552235 456.021041 68.576997 
Q 456.659683 68.602836 457.167423 68.656666 
L 457.167423 69.632082 
L 454.251885 69.632082 
L 454.251885 70.500913 
L 461.689482 70.500913 
L 461.689482 68.084982 
z
" clip-path="url(#p47ccf08037)" style="fill: #ffa600"/>
   </g>
   <g id="patch_101">
    <path d="M 443.989983 67.613424 
L 461.689482 67.613424 
L 461.689482 67.318741 
L 455.321779 67.318741 
L 455.321779 66.102448 
L 450.370035 66.102448 
L 450.370035 67.318741 
L 443.989983 67.318741 
L 443.989983 67.613424 
z
" clip-path="url(#p47ccf08037)" style="fill: #ff0000"/>
   </g>
   <g id="patch_102">
    <path d="M 474.881494 118.959345 
L 468.074551 118.959345 
L 466.99977 113.611221 
L 462.621035 113.611221 
L 468.874303 142.969276 
L 474.067266 142.969276 
L 480.320534 113.611221 
L 475.945418 113.611221 
L 474.881494 118.959345 
z
M 469.160188 124.40814 
L 473.785 124.40814 
L 471.476213 136.085926 
L 469.160188 124.40814 
z
" clip-path="url(#p47ccf08037)" style="fill: #008000"/>
   </g>
   <g id="patch_103">
    <path d="M 480.320534 72.059682 
Q 478.840002 71.555092 477.239064 71.299864 
Q 475.638127 71.041702 473.894488 71.041702 
Q 468.694786 71.041702 465.657911 72.954449 
Q 462.621035 74.867195 462.621035 78.138227 
Q 462.621035 81.420993 465.657911 83.330806 
Q 468.694786 85.243553 473.894488 85.243553 
Q 475.638127 85.243553 477.239064 84.985391 
Q 478.840002 84.730162 480.320534 84.225573 
L 480.320534 81.39459 
Q 478.826623 82.063465 477.377307 82.374433 
Q 475.92799 82.685401 474.327053 82.685401 
Q 471.455177 82.685401 469.809645 81.473799 
Q 468.168573 80.265131 468.168573 78.138227 
Q 468.168573 76.020124 469.809645 74.808522 
Q 471.455177 73.599854 474.327053 73.599854 
Q 475.92799 73.599854 477.377307 73.910822 
Q 478.826623 74.224724 480.320534 74.893598 
L 480.320534 72.059682 
z
" clip-path="url(#p47ccf08037)" style="fill: #0000ff"/>
   </g>
   <g id="patch_104">
    <path d="M 480.320534 66.549338 
Q 478.535511 66.325893 476.615619 66.213661 
Q 474.695727 66.102448 472.6489 66.102448 
Q 468.023706 66.102448 465.322371 66.767681 
Q 462.621035 67.432914 462.621035 68.570545 
Q 462.621035 69.721439 465.369971 70.38157 
Q 468.122874 71.041702 472.910704 71.041702 
Q 474.755228 71.041702 476.44505 70.951916 
Q 478.138839 70.86315 479.638259 70.687659 
L 479.638259 69.703073 
Q 478.091238 69.928559 476.560085 70.039771 
Q 475.028931 70.152004 473.489844 70.152004 
Q 470.64174 70.152004 469.098687 69.741845 
Q 467.555633 69.332706 467.555633 68.570545 
Q 467.555633 67.815525 469.043153 67.403326 
Q 470.530672 66.992146 473.267708 66.992146 
Q 474.013451 66.992146 474.652093 67.015613 
Q 475.290735 67.0401 475.798475 67.091115 
L 475.798475 68.015504 
L 472.882937 68.015504 
L 472.882937 68.838882 
L 480.320534 68.838882 
L 480.320534 66.549338 
z
" clip-path="url(#p47ccf08037)" style="fill: #ffa600"/>
   </g>
   <g id="patch_105">
    <path d="M 462.621035 113.611221 
L 480.320534 113.611221 
L 480.320534 108.078735 
L 473.952831 108.078735 
L 473.952831 85.243553 
L 469.001087 85.243553 
L 469.001087 108.078735 
L 462.621035 108.078735 
L 462.621035 113.611221 
z
" clip-path="url(#p47ccf08037)" style="fill: #ff0000"/>
   </g>
   <g id="patch_106">
    <path d="M 493.512545 77.395153 
L 486.705603 77.395153 
L 485.630822 73.039404 
L 481.252087 73.039404 
L 487.505355 96.949907 
L 492.698318 96.949907 
L 498.951586 73.039404 
L 494.57647 73.039404 
L 493.512545 77.395153 
z
M 487.791239 81.832893 
L 492.416052 81.832893 
L 490.107265 91.343801 
L 487.791239 81.832893 
z
" clip-path="url(#p47ccf08037)" style="fill: #008000"/>
   </g>
   <g id="patch_107">
    <path d="M 481.252087 73.039404 
L 498.951586 73.039404 
L 498.951586 71.686504 
L 492.583882 71.686504 
L 492.583882 66.102448 
L 487.632139 66.102448 
L 487.632139 71.686504 
L 481.252087 71.686504 
L 481.252087 73.039404 
z
" clip-path="url(#p47ccf08037)" style="fill: #ff0000"/>
   </g>
   <g id="patch_108">
    <path d="M 512.143597 69.802489 
L 505.336654 69.802489 
L 504.261874 66.220136 
L 499.883139 66.220136 
L 506.136407 85.885142 
L 511.32937 85.885142 
L 517.582638 66.220136 
L 513.207521 66.220136 
L 512.143597 69.802489 
z
M 506.422291 73.452273 
L 511.047104 73.452273 
L 508.738316 81.274444 
L 506.422291 73.452273 
z
" clip-path="url(#p47ccf08037)" style="fill: #008000"/>
   </g>
   <g id="patch_109">
    <path d="M 499.883139 66.220136 
L 517.582638 66.220136 
L 517.582638 66.197184 
L 511.214934 66.197184 
L 511.214934 66.102448 
L 506.263191 66.102448 
L 506.263191 66.197184 
L 499.883139 66.197184 
L 499.883139 66.220136 
z
" clip-path="url(#p47ccf08037)" style="fill: #ff0000"/>
   </g>
   <g id="patch_110">
    <path d="M 530.774649 72.841339 
L 523.967706 72.841339 
L 522.892926 70.742482 
L 518.51419 70.742482 
L 524.767458 82.26397 
L 529.960421 82.26397 
L 536.213689 70.742482 
L 531.838573 70.742482 
L 530.774649 72.841339 
z
M 525.053343 74.979703 
L 529.678156 74.979703 
L 527.369368 79.562618 
L 525.053343 74.979703 
z
" clip-path="url(#p47ccf08037)" style="fill: #008000"/>
   </g>
   <g id="patch_111">
    <path d="M 518.51419 70.742482 
L 536.213689 70.742482 
L 536.213689 69.837547 
L 529.845986 69.837547 
L 529.845986 66.102448 
L 524.894242 66.102448 
L 524.894242 69.837547 
L 518.51419 69.837547 
L 518.51419 70.742482 
z
" clip-path="url(#p47ccf08037)" style="fill: #ff0000"/>
   </g>
   <g id="patch_112">
    <path d="M 549.405701 67.059886 
L 542.598758 67.059886 
L 541.523977 66.102448 
L 537.145242 66.102448 
L 543.39851 71.358216 
L 548.591473 71.358216 
L 554.844741 66.102448 
L 550.469625 66.102448 
L 549.405701 67.059886 
z
M 543.684395 68.035345 
L 548.309208 68.035345 
L 546.00042 70.125938 
L 543.684395 68.035345 
z
" clip-path="url(#p47ccf08037)" style="fill: #008000"/>
   </g>
   <g id="patch_113">
    <path d="M 554.844741 81.480317 
Q 553.364209 81.118046 551.763271 80.934805 
Q 550.162334 80.749457 548.418695 80.749457 
Q 543.218993 80.749457 540.182118 82.122715 
Q 537.145242 83.495974 537.145242 85.844414 
Q 537.145242 88.201279 540.182118 89.572431 
Q 543.218993 90.94569 548.418695 90.94569 
Q 550.162334 90.94569 551.763271 90.760342 
Q 553.364209 90.5771 554.844741 90.21483 
L 554.844741 88.182323 
Q 553.35083 88.662542 551.901514 88.885802 
Q 550.452197 89.109062 548.85126 89.109062 
Q 545.979384 89.109062 544.333852 88.239191 
Q 542.69278 87.371427 542.69278 85.844414 
Q 542.69278 84.32372 544.333852 83.453849 
Q 545.979384 82.586085 548.85126 82.586085 
Q 550.452197 82.586085 551.901514 82.809344 
Q 553.35083 83.03471 554.844741 83.51493 
L 554.844741 81.480317 
z
" clip-path="url(#p47ccf08037)" style="fill: #0000ff"/>
   </g>
   <g id="patch_114">
    <path d="M 537.145242 80.749457 
L 554.844741 80.749457 
L 554.844741 78.917903 
L 548.477038 78.917903 
L 548.477038 71.358216 
L 543.525294 71.358216 
L 543.525294 78.917903 
L 537.145242 78.917903 
L 537.145242 80.749457 
z
" clip-path="url(#p47ccf08037)" style="fill: #ff0000"/>
   </g>
   <g id="patch_115">
    <path d="M 568.036752 74.0912 
L 561.22981 74.0912 
L 560.155029 72.364188 
L 555.776294 72.364188 
L 562.029562 81.844467 
L 567.222525 81.844467 
L 573.475793 72.364188 
L 569.100677 72.364188 
L 568.036752 74.0912 
z
M 562.315446 75.85072 
L 566.940259 75.85072 
L 564.631472 79.621701 
L 562.315446 75.85072 
z
" clip-path="url(#p47ccf08037)" style="fill: #008000"/>
   </g>
   <g id="patch_116">
    <path d="M 555.776294 72.364188 
L 573.475793 72.364188 
L 573.475793 71.142975 
L 567.108089 71.142975 
L 567.108089 66.102448 
L 562.156346 66.102448 
L 562.156346 71.142975 
L 555.776294 71.142975 
L 555.776294 72.364188 
z
" clip-path="url(#p47ccf08037)" style="fill: #ff0000"/>
   </g>
   <g id="patch_117">
    <path d="M 574.407346 76.860844 
L 592.106845 76.860844 
L 592.106845 74.762657 
L 585.739141 74.762657 
L 585.739141 66.102448 
L 580.787398 66.102448 
L 580.787398 74.762657 
L 574.407346 74.762657 
L 574.407346 76.860844 
z
" clip-path="url(#p47ccf08037)" style="fill: #ff0000"/>
   </g>
   <g id="matplotlib.axis_1">
    <g id="xtick_1">
     <g id="line2d_2">
      <defs>
       <path id="mddff78e6d0" d="M 0 0 
L 0 3.5 
" style="stroke: #000000; stroke-width: 0.8"/>
      </defs>
      <g>
       <use xlink:href="#mddff78e6d0" x="98.84975" y="192.24" style="stroke: #000000; stroke-width: 0.8"/>
      </g>
     </g>
     <g id="text_1">
      <!-- 0 -->
      <g transform="translate(95.6685 206.838437) scale(0.1 -0.1)">
       <defs>
        <path id="DejaVuSans-30" d="M 2034 4250 
Q 1547 4250 1301 3770 
Q 1056 3291 1056 2328 
Q 1056 1369 1301 889 
Q 1547 409 2034 409 
Q 2525 409 2770 889 
Q 3016 1369 3016 2328 
Q 3016 3291 2770 3770 
Q 2525 4250 2034 4250 
z
M 2034 4750 
Q 2819 4750 3233 4129 
Q 3647 3509 3647 2328 
Q 3647 1150 3233 529 
Q 2819 -91 2034 -91 
Q 1250 -91 836 529 
Q 422 1150 422 2328 
Q 422 3509 836 4129 
Q 1250 4750 2034 4750 
z
" transform="scale(0.015625)"/>
       </defs>
       <use xlink:href="#DejaVuSans-30"/>
      </g>
     </g>
    </g>
    <g id="xtick_2">
     <g id="line2d_3">
      <g>
       <use xlink:href="#mddff78e6d0" x="192.005008" y="192.24" style="stroke: #000000; stroke-width: 0.8"/>
      </g>
     </g>
     <g id="text_2">
      <!-- 5 -->
      <g transform="translate(188.823758 206.838437) scale(0.1 -0.1)">
       <defs>
        <path id="DejaVuSans-35" d="M 691 4666 
L 3169 4666 
L 3169 4134 
L 1269 4134 
L 1269 2991 
Q 1406 3038 1543 3061 
Q 1681 3084 1819 3084 
Q 2600 3084 3056 2656 
Q 3513 2228 3513 1497 
Q 3513 744 3044 326 
Q 2575 -91 1722 -91 
Q 1428 -91 1123 -41 
Q 819 9 494 109 
L 494 744 
Q 775 591 1075 516 
Q 1375 441 1709 441 
Q 2250 441 2565 725 
Q 2881 1009 2881 1497 
Q 2881 1984 2565 2268 
Q 2250 2553 1709 2553 
Q 1456 2553 1204 2497 
Q 953 2441 691 2322 
L 691 4666 
z
" transform="scale(0.015625)"/>
       </defs>
       <use xlink:href="#DejaVuSans-35"/>
      </g>
     </g>
    </g>
    <g id="xtick_3">
     <g id="line2d_4">
      <g>
       <use xlink:href="#mddff78e6d0" x="285.160267" y="192.24" style="stroke: #000000; stroke-width: 0.8"/>
      </g>
     </g>
     <g id="text_3">
      <!-- 10 -->
      <g transform="translate(278.797767 206.838437) scale(0.1 -0.1)">
       <defs>
        <path id="DejaVuSans-31" d="M 794 531 
L 1825 531 
L 1825 4091 
L 703 3866 
L 703 4441 
L 1819 4666 
L 2450 4666 
L 2450 531 
L 3481 531 
L 3481 0 
L 794 0 
L 794 531 
z
" transform="scale(0.015625)"/>
       </defs>
       <use xlink:href="#DejaVuSans-31"/>
       <use xlink:href="#DejaVuSans-30" x="63.623047"/>
      </g>
     </g>
    </g>
    <g id="xtick_4">
     <g id="line2d_5">
      <g>
       <use xlink:href="#mddff78e6d0" x="378.315526" y="192.24" style="stroke: #000000; stroke-width: 0.8"/>
      </g>
     </g>
     <g id="text_4">
      <!-- 15 -->
      <g transform="translate(371.953026 206.838437) scale(0.1 -0.1)">
       <use xlink:href="#DejaVuSans-31"/>
       <use xlink:href="#DejaVuSans-35" x="63.623047"/>
      </g>
     </g>
    </g>
    <g id="xtick_5">
     <g id="line2d_6">
      <g>
       <use xlink:href="#mddff78e6d0" x="471.470785" y="192.24" style="stroke: #000000; stroke-width: 0.8"/>
      </g>
     </g>
     <g id="text_5">
      <!-- 20 -->
      <g transform="translate(465.108285 206.838437) scale(0.1 -0.1)">
       <defs>
        <path id="DejaVuSans-32" d="M 1228 531 
L 3431 531 
L 3431 0 
L 469 0 
L 469 531 
Q 828 903 1448 1529 
Q 2069 2156 2228 2338 
Q 2531 2678 2651 2914 
Q 2772 3150 2772 3378 
Q 2772 3750 2511 3984 
Q 2250 4219 1831 4219 
Q 1534 4219 1204 4116 
Q 875 4013 500 3803 
L 500 4441 
Q 881 4594 1212 4672 
Q 1544 4750 1819 4750 
Q 2544 4750 2975 4387 
Q 3406 4025 3406 3419 
Q 3406 3131 3298 2873 
Q 3191 2616 2906 2266 
Q 2828 2175 2409 1742 
Q 1991 1309 1228 531 
z
" transform="scale(0.015625)"/>
       </defs>
       <use xlink:href="#DejaVuSans-32"/>
       <use xlink:href="#DejaVuSans-30" x="63.623047"/>
      </g>
     </g>
    </g>
    <g id="xtick_6">
     <g id="line2d_7">
      <g>
       <use xlink:href="#mddff78e6d0" x="564.626043" y="192.24" style="stroke: #000000; stroke-width: 0.8"/>
      </g>
     </g>
     <g id="text_6">
      <!-- 25 -->
      <g transform="translate(558.263543 206.838437) scale(0.1 -0.1)">
       <use xlink:href="#DejaVuSans-32"/>
       <use xlink:href="#DejaVuSans-35" x="63.623047"/>
      </g>
     </g>
    </g>
   </g>
   <g id="matplotlib.axis_2">
    <g id="ytick_1">
     <g id="line2d_8">
      <defs>
       <path id="m2ba3126f38" d="M 0 0 
L -3.5 0 
" style="stroke: #000000; stroke-width: 0.8"/>
      </defs>
      <g>
       <use xlink:href="#m2ba3126f38" x="90" y="188.855921" style="stroke: #000000; stroke-width: 0.8"/>
      </g>
     </g>
     <g id="text_7">
      <!-- 0.010 -->
      <g transform="translate(45.992188 192.65514) scale(0.1 -0.1)">
       <defs>
        <path id="DejaVuSans-2212" d="M 678 2272 
L 4684 2272 
L 4684 1741 
L 678 1741 
L 678 2272 
z
" transform="scale(0.015625)"/>
        <path id="DejaVuSans-2e" d="M 684 794 
L 1344 794 
L 1344 0 
L 684 0 
L 684 794 
z
" transform="scale(0.015625)"/>
       </defs>
       <use xlink:href="#DejaVuSans-2212"/>
       <use xlink:href="#DejaVuSans-30" x="83.789062"/>
       <use xlink:href="#DejaVuSans-2e" x="147.412109"/>
       <use xlink:href="#DejaVuSans-30" x="179.199219"/>
       <use xlink:href="#DejaVuSans-31" x="242.822266"/>
       <use xlink:href="#DejaVuSans-30" x="306.445312"/>
      </g>
     </g>
    </g>
    <g id="ytick_2">
     <g id="line2d_9">
      <g>
       <use xlink:href="#m2ba3126f38" x="90" y="164.305226" style="stroke: #000000; stroke-width: 0.8"/>
      </g>
     </g>
     <g id="text_8">
      <!-- 0.008 -->
      <g transform="translate(45.992188 168.104445) scale(0.1 -0.1)">
       <defs>
        <path id="DejaVuSans-38" d="M 2034 2216 
Q 1584 2216 1326 1975 
Q 1069 1734 1069 1313 
Q 1069 891 1326 650 
Q 1584 409 2034 409 
Q 2484 409 2743 651 
Q 3003 894 3003 1313 
Q 3003 1734 2745 1975 
Q 2488 2216 2034 2216 
z
M 1403 2484 
Q 997 2584 770 2862 
Q 544 3141 544 3541 
Q 544 4100 942 4425 
Q 1341 4750 2034 4750 
Q 2731 4750 3128 4425 
Q 3525 4100 3525 3541 
Q 3525 3141 3298 2862 
Q 3072 2584 2669 2484 
Q 3125 2378 3379 2068 
Q 3634 1759 3634 1313 
Q 3634 634 3220 271 
Q 2806 -91 2034 -91 
Q 1263 -91 848 271 
Q 434 634 434 1313 
Q 434 1759 690 2068 
Q 947 2378 1403 2484 
z
M 1172 3481 
Q 1172 3119 1398 2916 
Q 1625 2713 2034 2713 
Q 2441 2713 2670 2916 
Q 2900 3119 2900 3481 
Q 2900 3844 2670 4047 
Q 2441 4250 2034 4250 
Q 1625 4250 1398 4047 
Q 1172 3844 1172 3481 
z
" transform="scale(0.015625)"/>
       </defs>
       <use xlink:href="#DejaVuSans-2212"/>
       <use xlink:href="#DejaVuSans-30" x="83.789062"/>
       <use xlink:href="#DejaVuSans-2e" x="147.412109"/>
       <use xlink:href="#DejaVuSans-30" x="179.199219"/>
       <use xlink:href="#DejaVuSans-30" x="242.822266"/>
       <use xlink:href="#DejaVuSans-38" x="306.445312"/>
      </g>
     </g>
    </g>
    <g id="ytick_3">
     <g id="line2d_10">
      <g>
       <use xlink:href="#m2ba3126f38" x="90" y="139.754532" style="stroke: #000000; stroke-width: 0.8"/>
      </g>
     </g>
     <g id="text_9">
      <!-- 0.006 -->
      <g transform="translate(45.992188 143.553751) scale(0.1 -0.1)">
       <defs>
        <path id="DejaVuSans-36" d="M 2113 2584 
Q 1688 2584 1439 2293 
Q 1191 2003 1191 1497 
Q 1191 994 1439 701 
Q 1688 409 2113 409 
Q 2538 409 2786 701 
Q 3034 994 3034 1497 
Q 3034 2003 2786 2293 
Q 2538 2584 2113 2584 
z
M 3366 4563 
L 3366 3988 
Q 3128 4100 2886 4159 
Q 2644 4219 2406 4219 
Q 1781 4219 1451 3797 
Q 1122 3375 1075 2522 
Q 1259 2794 1537 2939 
Q 1816 3084 2150 3084 
Q 2853 3084 3261 2657 
Q 3669 2231 3669 1497 
Q 3669 778 3244 343 
Q 2819 -91 2113 -91 
Q 1303 -91 875 529 
Q 447 1150 447 2328 
Q 447 3434 972 4092 
Q 1497 4750 2381 4750 
Q 2619 4750 2861 4703 
Q 3103 4656 3366 4563 
z
" transform="scale(0.015625)"/>
       </defs>
       <use xlink:href="#DejaVuSans-2212"/>
       <use xlink:href="#DejaVuSans-30" x="83.789062"/>
       <use xlink:href="#DejaVuSans-2e" x="147.412109"/>
       <use xlink:href="#DejaVuSans-30" x="179.199219"/>
       <use xlink:href="#DejaVuSans-30" x="242.822266"/>
       <use xlink:href="#DejaVuSans-36" x="306.445312"/>
      </g>
     </g>
    </g>
    <g id="ytick_4">
     <g id="line2d_11">
      <g>
       <use xlink:href="#m2ba3126f38" x="90" y="115.203837" style="stroke: #000000; stroke-width: 0.8"/>
      </g>
     </g>
     <g id="text_10">
      <!-- 0.004 -->
      <g transform="translate(45.992188 119.003056) scale(0.1 -0.1)">
       <defs>
        <path id="DejaVuSans-34" d="M 2419 4116 
L 825 1625 
L 2419 1625 
L 2419 4116 
z
M 2253 4666 
L 3047 4666 
L 3047 1625 
L 3713 1625 
L 3713 1100 
L 3047 1100 
L 3047 0 
L 2419 0 
L 2419 1100 
L 313 1100 
L 313 1709 
L 2253 4666 
z
" transform="scale(0.015625)"/>
       </defs>
       <use xlink:href="#DejaVuSans-2212"/>
       <use xlink:href="#DejaVuSans-30" x="83.789062"/>
       <use xlink:href="#DejaVuSans-2e" x="147.412109"/>
       <use xlink:href="#DejaVuSans-30" x="179.199219"/>
       <use xlink:href="#DejaVuSans-30" x="242.822266"/>
       <use xlink:href="#DejaVuSans-34" x="306.445312"/>
      </g>
     </g>
    </g>
    <g id="ytick_5">
     <g id="line2d_12">
      <g>
       <use xlink:href="#m2ba3126f38" x="90" y="90.653143" style="stroke: #000000; stroke-width: 0.8"/>
      </g>
     </g>
     <g id="text_11">
      <!-- 0.002 -->
      <g transform="translate(45.992188 94.452362) scale(0.1 -0.1)">
       <use xlink:href="#DejaVuSans-2212"/>
       <use xlink:href="#DejaVuSans-30" x="83.789062"/>
       <use xlink:href="#DejaVuSans-2e" x="147.412109"/>
       <use xlink:href="#DejaVuSans-30" x="179.199219"/>
       <use xlink:href="#DejaVuSans-30" x="242.822266"/>
       <use xlink:href="#DejaVuSans-32" x="306.445312"/>
      </g>
     </g>
    </g>
    <g id="ytick_6">
     <g id="line2d_13">
      <g>
       <use xlink:href="#m2ba3126f38" x="90" y="66.102448" style="stroke: #000000; stroke-width: 0.8"/>
      </g>
     </g>
     <g id="text_12">
      <!-- 0.000 -->
      <g transform="translate(54.371875 69.901667) scale(0.1 -0.1)">
       <use xlink:href="#DejaVuSans-30"/>
       <use xlink:href="#DejaVuSans-2e" x="63.623047"/>
       <use xlink:href="#DejaVuSans-30" x="95.410156"/>
       <use xlink:href="#DejaVuSans-30" x="159.033203"/>
       <use xlink:href="#DejaVuSans-30" x="222.65625"/>
      </g>
     </g>
    </g>
    <g id="ytick_7">
     <g id="line2d_14">
      <g>
       <use xlink:href="#m2ba3126f38" x="90" y="41.551754" style="stroke: #000000; stroke-width: 0.8"/>
      </g>
     </g>
     <g id="text_13">
      <!-- 0.002 -->
      <g transform="translate(54.371875 45.350973) scale(0.1 -0.1)">
       <use xlink:href="#DejaVuSans-30"/>
       <use xlink:href="#DejaVuSans-2e" x="63.623047"/>
       <use xlink:href="#DejaVuSans-30" x="95.410156"/>
       <use xlink:href="#DejaVuSans-30" x="159.033203"/>
       <use xlink:href="#DejaVuSans-32" x="222.65625"/>
      </g>
     </g>
    </g>
   </g>
  </g>
 </g>
 <defs>
  <clipPath id="p47ccf08037">
   <rect x="90" y="25.92" width="558" height="166.32"/>
  </clipPath>
 </defs>
</svg>
