<?xml version="1.0" encoding="utf-8" standalone="no"?>
<!DOCTYPE svg PUBLIC "-//W3C//DTD SVG 1.1//EN"
  "http://www.w3.org/Graphics/SVG/1.1/DTD/svg11.dtd">
<svg xmlns:xlink="http://www.w3.org/1999/xlink" width="720pt" height="216pt" viewBox="0 0 720 216" xmlns="http://www.w3.org/2000/svg" version="1.1">
 <metadata>
  <rdf:RDF xmlns:dc="http://purl.org/dc/elements/1.1/" xmlns:cc="http://creativecommons.org/ns#" xmlns:rdf="http://www.w3.org/1999/02/22-rdf-syntax-ns#">
   <cc:Work>
    <dc:type rdf:resource="http://purl.org/dc/dcmitype/StillImage"/>
    <dc:date>2024-11-23T04:44:05.328200</dc:date>
    <dc:format>image/svg+xml</dc:format>
    <dc:creator>
     <cc:Agent>
      <dc:title>Matplotlib v3.7.2, https://matplotlib.org/</dc:title>
     </cc:Agent>
    </dc:creator>
   </cc:Work>
  </rdf:RDF>
 </metadata>
 <defs>
  <style type="text/css">*{stroke-linejoin: round; stroke-linecap: butt}</style>
 </defs>
 <g id="figure_1">
  <g id="patch_1">
   <path d="M 0 216 
L 720 216 
L 720 0 
L 0 0 
z
" style="fill: #ffffff"/>
  </g>
  <g id="axes_1">
   <g id="patch_2">
    <path d="M 90 192.24 
L 648 192.24 
L 648 25.92 
L 90 25.92 
z
" style="fill: #ffffff"/>
   </g>
   <g id="line2d_1">
    <path d="M 90 10.071864 
L 648 10.071864 
" clip-path="url(#p2ff477ee78)" style="fill: none; stroke: #000000; stroke-width: 0.5; stroke-linecap: square"/>
   </g>
   <g id="patch_3">
    <path d="M 90 3.827674 
L 107.699499 3.827674 
L 107.699499 5.045465 
L 101.331796 5.045465 
L 101.331796 10.071864 
L 96.380052 10.071864 
L 96.380052 5.045465 
L 90 5.045465 
L 90 3.827674 
z
" clip-path="url(#p2ff477ee78)" style="fill: #ff0000"/>
   </g>
   <g id="patch_4">
    <path d="M 102.260459 2.058832 
L 95.453516 2.058832 
L 94.378735 3.827674 
L 90 3.827674 
L 96.253268 -5.882229 
L 101.446231 -5.882229 
L 107.699499 3.827674 
L 103.324383 3.827674 
L 102.260459 2.058832 
z
M 96.539153 0.256694 
L 101.163965 0.256694 
L 98.855178 -3.605625 
L 96.539153 0.256694 
z
" clip-path="url(#p2ff477ee78)" style="fill: #008000"/>
   </g>
   <g id="patch_5">
    <path d="M 108.631052 7.024513 
L 126.330551 7.024513 
L 126.330551 7.618832 
L 119.962847 7.618832 
L 119.962847 10.071864 
L 115.011104 10.071864 
L 115.011104 7.618832 
L 108.631052 7.618832 
L 108.631052 7.024513 
z
" clip-path="url(#p2ff477ee78)" style="fill: #ff0000"/>
   </g>
   <g id="patch_6">
    <path d="M 120.89151 5.001732 
L 114.084567 5.001732 
L 113.009787 7.024513 
L 108.631052 7.024513 
L 114.88432 -4.079367 
L 120.077283 -4.079367 
L 126.330551 7.024513 
L 121.955434 7.024513 
L 120.89151 5.001732 
z
M 115.170204 2.940874 
L 119.795017 2.940874 
L 117.48623 -1.475929 
L 115.170204 2.940874 
z
" clip-path="url(#p2ff477ee78)" style="fill: #008000"/>
   </g>
   <g id="patch_7">
    <path d="M 127.262104 5.165195 
L 144.961603 5.165195 
L 144.961603 6.122132 
L 138.593899 6.122132 
L 138.593899 10.071864 
L 133.642156 10.071864 
L 133.642156 6.122132 
L 127.262104 6.122132 
L 127.262104 5.165195 
z
" clip-path="url(#p2ff477ee78)" style="fill: #ff0000"/>
   </g>
   <g id="patch_8">
    <path d="M 139.522562 3.590711 
L 132.715619 3.590711 
L 131.640839 5.165195 
L 127.262104 5.165195 
L 133.515372 -3.477798 
L 138.708335 -3.477798 
L 144.961603 5.165195 
L 140.586486 5.165195 
L 139.522562 3.590711 
z
M 133.801256 1.986589 
L 138.426069 1.986589 
L 136.117281 -1.451344 
L 133.801256 1.986589 
z
" clip-path="url(#p2ff477ee78)" style="fill: #008000"/>
   </g>
   <g id="patch_9">
    <path d="M 158.153614 9.677833 
L 151.346671 9.677833 
L 150.27189 10.071864 
L 145.893155 10.071864 
L 152.146423 7.908862 
L 157.339386 7.908862 
L 163.592654 10.071864 
L 159.217538 10.071864 
L 158.153614 9.677833 
z
M 152.432308 9.276384 
L 157.057121 9.276384 
L 154.748333 8.416004 
L 152.432308 9.276384 
z
" clip-path="url(#p2ff477ee78)" style="fill: #008000"/>
   </g>
   <g id="patch_10">
    <path d="M 145.893155 3.656076 
L 163.592654 3.656076 
L 163.592654 4.485488 
L 157.224951 4.485488 
L 157.224951 7.908862 
L 152.273207 7.908862 
L 152.273207 4.485488 
L 145.893155 4.485488 
L 145.893155 3.656076 
z
" clip-path="url(#p2ff477ee78)" style="fill: #ff0000"/>
   </g>
   <g id="patch_11">
    <path d="M 164.524207 9.048299 
L 182.223706 9.048299 
L 182.223706 9.247923 
L 175.856003 9.247923 
L 175.856003 10.071864 
L 170.904259 10.071864 
L 170.904259 9.247923 
L 164.524207 9.247923 
L 164.524207 9.048299 
z
" clip-path="url(#p2ff477ee78)" style="fill: #ff0000"/>
   </g>
   <g id="patch_12">
    <path d="M 176.784666 8.718303 
L 169.977723 8.718303 
L 168.902942 9.048299 
L 164.524207 9.048299 
L 170.777475 7.236815 
L 175.970438 7.236815 
L 182.223706 9.048299 
L 177.84859 9.048299 
L 176.784666 8.718303 
z
M 171.06336 8.382096 
L 175.688172 8.382096 
L 173.379385 7.66154 
L 171.06336 8.382096 
z
" clip-path="url(#p2ff477ee78)" style="fill: #008000"/>
   </g>
   <g id="patch_13">
    <path d="M 195.415717 10.065389 
L 188.608774 10.065389 
L 187.533994 10.071864 
L 183.155259 10.071864 
L 189.408527 10.036316 
L 194.60149 10.036316 
L 200.854758 10.071864 
L 196.479641 10.071864 
L 195.415717 10.065389 
z
M 189.694411 10.058791 
L 194.319224 10.058791 
L 192.010437 10.044651 
L 189.694411 10.058791 
z
" clip-path="url(#p2ff477ee78)" style="fill: #008000"/>
   </g>
   <g id="patch_14">
    <path d="M 183.155259 8.593628 
L 200.854758 8.593628 
L 200.854758 8.874992 
L 194.487054 8.874992 
L 194.487054 10.036316 
L 189.535311 10.036316 
L 189.535311 8.874992 
L 183.155259 8.874992 
L 183.155259 8.593628 
z
" clip-path="url(#p2ff477ee78)" style="fill: #ff0000"/>
   </g>
   <g id="patch_15">
    <path d="M 201.786311 9.721648 
L 219.48581 9.721648 
L 219.48581 9.78995 
L 213.118106 9.78995 
L 213.118106 10.071864 
L 208.166363 10.071864 
L 208.166363 9.78995 
L 201.786311 9.78995 
L 201.786311 9.721648 
z
" clip-path="url(#p2ff477ee78)" style="fill: #ff0000"/>
   </g>
   <g id="patch_16">
    <path d="M 232.677821 9.967097 
L 225.870878 9.967097 
L 224.796097 10.071864 
L 220.417362 10.071864 
L 226.67063 9.496755 
L 231.863593 9.496755 
L 238.116861 10.071864 
L 233.741745 10.071864 
L 232.677821 9.967097 
z
M 226.956515 9.860358 
L 231.581328 9.860358 
L 229.27254 9.631597 
L 226.956515 9.860358 
z
" clip-path="url(#p2ff477ee78)" style="fill: #008000"/>
   </g>
   <g id="patch_17">
    <path d="M 220.417362 8.187822 
L 238.116861 8.187822 
L 238.116861 8.443101 
L 231.749158 8.443101 
L 231.749158 9.496755 
L 226.797414 9.496755 
L 226.797414 8.443101 
L 220.417362 8.443101 
L 220.417362 8.187822 
z
" clip-path="url(#p2ff477ee78)" style="fill: #ff0000"/>
   </g>
   <g id="patch_18">
    <path d="M 276.310518 7.543506 
L 294.010017 7.543506 
L 294.010017 8.036607 
L 287.642313 8.036607 
L 287.642313 10.071864 
L 282.69057 10.071864 
L 282.69057 8.036607 
L 276.310518 8.036607 
L 276.310518 7.543506 
z
" clip-path="url(#p2ff477ee78)" style="fill: #ff0000"/>
   </g>
   <g id="patch_19">
    <path d="M 294.941569 8.815753 
L 312.641068 8.815753 
L 312.641068 9.060729 
L 306.273365 9.060729 
L 306.273365 10.071864 
L 301.321621 10.071864 
L 301.321621 9.060729 
L 294.941569 9.060729 
L 294.941569 8.815753 
z
" clip-path="url(#p2ff477ee78)" style="fill: #ff0000"/>
   </g>
   <g id="patch_20">
    <path d="M 344.464131 9.973382 
L 337.657188 9.973382 
L 336.582408 10.071864 
L 332.203673 10.071864 
L 338.456941 9.531256 
L 343.649904 9.531256 
L 349.903172 10.071864 
L 345.528056 10.071864 
L 344.464131 9.973382 
z
M 338.742825 9.873046 
L 343.367638 9.873046 
L 341.058851 9.658008 
L 338.742825 9.873046 
z
" clip-path="url(#p2ff477ee78)" style="fill: #008000"/>
   </g>
   <g id="patch_21">
    <path d="M 381.726235 10.057431 
L 374.919292 10.057431 
L 373.844512 10.071864 
L 369.465776 10.071864 
L 375.719044 9.992633 
L 380.912007 9.992633 
L 387.165275 10.071864 
L 382.790159 10.071864 
L 381.726235 10.057431 
z
M 376.004929 10.042726 
L 380.629742 10.042726 
L 378.320954 10.01121 
L 376.004929 10.042726 
z
" clip-path="url(#p2ff477ee78)" style="fill: #008000"/>
   </g>
   <g id="patch_22">
    <path d="M 369.465776 9.660942 
L 387.165275 9.660942 
L 387.165275 9.725631 
L 380.797572 9.725631 
L 380.797572 9.992633 
L 375.845828 9.992633 
L 375.845828 9.725631 
L 369.465776 9.725631 
L 369.465776 9.660942 
z
" clip-path="url(#p2ff477ee78)" style="fill: #ff0000"/>
   </g>
   <g id="patch_23">
    <path d="M 387.165275 9.625724 
Q 385.380252 9.643333 383.46036 9.652178 
Q 381.540468 9.660942 379.493641 9.660942 
Q 374.868447 9.660942 372.167112 9.608518 
Q 369.465776 9.556093 369.465776 9.46644 
Q 369.465776 9.375742 372.214712 9.323719 
Q 374.967615 9.271696 379.755445 9.271696 
Q 381.599969 9.271696 383.289791 9.278772 
Q 384.98358 9.285767 386.483 9.299597 
L 386.483 9.377189 
Q 384.93598 9.359419 383.404826 9.350655 
Q 381.873673 9.34181 380.334586 9.34181 
Q 377.486482 9.34181 375.943428 9.374133 
Q 374.400374 9.406376 374.400374 9.46644 
Q 374.400374 9.52594 375.887894 9.558424 
Q 377.375414 9.590828 380.112449 9.590828 
Q 380.858193 9.590828 381.496834 9.588979 
Q 382.135476 9.587049 382.643216 9.583029 
L 382.643216 9.510181 
L 379.727678 9.510181 
L 379.727678 9.445293 
L 387.165275 9.445293 
L 387.165275 9.625724 
z
" clip-path="url(#p2ff477ee78)" style="fill: #ffa600"/>
   </g>
   <g id="patch_24">
    <path d="M 418.988338 10.036794 
L 412.181395 10.036794 
L 411.106615 10.071864 
L 406.72788 10.071864 
L 412.981148 9.879349 
L 418.174111 9.879349 
L 424.427379 10.071864 
L 420.052263 10.071864 
L 418.988338 10.036794 
z
M 413.267032 10.001063 
L 417.891845 10.001063 
L 415.583058 9.924486 
L 413.267032 10.001063 
z
" clip-path="url(#p2ff477ee78)" style="fill: #008000"/>
   </g>
   <g id="patch_25">
    <path d="M 474.881494 9.969854 
L 468.074551 9.969854 
L 466.99977 10.071864 
L 462.621035 10.071864 
L 468.874303 9.511889 
L 474.067266 9.511889 
L 480.320534 10.071864 
L 475.945418 10.071864 
L 474.881494 9.969854 
z
M 469.160188 9.865924 
L 473.785 9.865924 
L 471.476213 9.643182 
L 469.160188 9.865924 
z
" clip-path="url(#p2ff477ee78)" style="fill: #008000"/>
   </g>
   <g id="patch_26">
    <path d="M 499.883139 10.032961 
L 517.582638 10.032961 
L 517.582638 10.040549 
L 511.214934 10.040549 
L 511.214934 10.071864 
L 506.263191 10.071864 
L 506.263191 10.040549 
L 499.883139 10.040549 
L 499.883139 10.032961 
z
" clip-path="url(#p2ff477ee78)" style="fill: #ff0000"/>
   </g>
   <g id="patch_27">
    <path d="M 530.774649 9.839185 
L 523.967706 9.839185 
L 522.892926 10.071864 
L 518.51419 10.071864 
L 524.767458 8.794592 
L 529.960421 8.794592 
L 536.213689 10.071864 
L 531.838573 10.071864 
L 530.774649 9.839185 
z
M 525.053343 9.602126 
L 529.678156 9.602126 
L 527.369368 9.094064 
L 525.053343 9.602126 
z
" clip-path="url(#p2ff477ee78)" style="fill: #008000"/>
   </g>
   <g id="patch_28">
    <path d="M 518.51419 1.787644 
L 536.213689 1.787644 
L 536.213689 3.154194 
L 529.845986 3.154194 
L 529.845986 8.794592 
L 524.894242 8.794592 
L 524.894242 3.154194 
L 518.51419 3.154194 
L 518.51419 1.787644 
z
" clip-path="url(#p2ff477ee78)" style="fill: #ff0000"/>
   </g>
   <g id="patch_29">
    <path d="M 537.145242 8.839337 
L 554.844741 8.839337 
L 554.844741 9.079714 
L 548.477038 9.079714 
L 548.477038 10.071864 
L 543.525294 10.071864 
L 543.525294 9.079714 
L 537.145242 9.079714 
L 537.145242 8.839337 
z
" clip-path="url(#p2ff477ee78)" style="fill: #ff0000"/>
   </g>
   <g id="patch_30">
    <path d="M 549.405701 7.896332 
L 542.598758 7.896332 
L 541.523977 8.839337 
L 537.145242 8.839337 
L 543.39851 3.662793 
L 548.591473 3.662793 
L 554.844741 8.839337 
L 550.469625 8.839337 
L 549.405701 7.896332 
z
M 543.684395 6.935576 
L 548.309208 6.935576 
L 546.00042 4.876496 
L 543.684395 6.935576 
z
" clip-path="url(#p2ff477ee78)" style="fill: #008000"/>
   </g>
   <g id="patch_31">
    <path d="M 568.036752 9.156804 
L 561.22981 9.156804 
L 560.155029 10.071864 
L 555.776294 10.071864 
L 562.029562 5.048722 
L 567.222525 5.048722 
L 573.475793 10.071864 
L 569.100677 10.071864 
L 568.036752 9.156804 
z
M 562.315446 8.224519 
L 566.940259 8.224519 
L 564.631472 6.226458 
L 562.315446 8.224519 
z
" clip-path="url(#p2ff477ee78)" style="fill: #008000"/>
   </g>
   <g id="patch_32">
    <path d="M 555.776294 -2.708473 
L 573.475793 -2.708473 
L 573.475793 -1.195604 
L 567.108089 -1.195604 
L 567.108089 5.048722 
L 562.156346 5.048722 
L 562.156346 -1.195604 
L 555.776294 -1.195604 
L 555.776294 -2.708473 
z
" clip-path="url(#p2ff477ee78)" style="fill: #ff0000"/>
   </g>
   <g id="patch_33">
    <path d="M 574.407346 4.509217 
L 592.106845 4.509217 
L 592.106845 5.594089 
L 585.739141 5.594089 
L 585.739141 10.071864 
L 580.787398 10.071864 
L 580.787398 5.594089 
L 574.407346 5.594089 
L 574.407346 4.509217 
z
" clip-path="url(#p2ff477ee78)" style="fill: #ff0000"/>
   </g>
   <g id="patch_34">
    <path d="M 586.667804 2.223544 
L 579.860861 2.223544 
L 578.786081 4.509217 
L 574.407346 4.509217 
L 580.660614 -8.037784 
L 585.853577 -8.037784 
L 592.106845 4.509217 
L 587.731728 4.509217 
L 586.667804 2.223544 
z
M 580.946498 -0.105153 
L 585.571311 -0.105153 
L 583.262523 -5.095988 
L 580.946498 -0.105153 
z
" clip-path="url(#p2ff477ee78)" style="fill: #008000"/>
   </g>
   <g id="patch_35">
    <path d="M 605.298856 8.713237 
L 598.491913 8.713237 
L 597.417133 10.071864 
L 593.038397 10.071864 
L 599.291665 2.613798 
L 604.484628 2.613798 
L 610.737896 10.071864 
L 606.36278 10.071864 
L 605.298856 8.713237 
z
M 599.57755 7.329035 
L 604.202363 7.329035 
L 601.893575 4.362432 
L 599.57755 7.329035 
z
" clip-path="url(#p2ff477ee78)" style="fill: #008000"/>
   </g>
   <g id="patch_36">
    <path d="M 593.038397 -7.540658 
L 610.737896 -7.540658 
L 610.737896 -5.560256 
L 604.370193 -5.560256 
L 604.370193 2.613798 
L 599.418449 2.613798 
L 599.418449 -5.560256 
L 593.038397 -5.560256 
L 593.038397 -7.540658 
z
" clip-path="url(#p2ff477ee78)" style="fill: #ff0000"/>
   </g>
   <g id="patch_37">
    <path d="M 611.669449 1.91029 
L 629.368948 1.91029 
L 629.368948 3.502024 
L 623.001245 3.502024 
L 623.001245 10.071864 
L 618.049501 10.071864 
L 618.049501 3.502024 
L 611.669449 3.502024 
L 611.669449 1.91029 
z
" clip-path="url(#p2ff477ee78)" style="fill: #ff0000"/>
   </g>
   <g id="patch_38">
    <path d="M 623.929908 -0.230976 
L 617.122965 -0.230976 
L 616.048184 1.91029 
L 611.669449 1.91029 
L 617.922717 -9.844002 
L 623.11568 -9.844002 
L 629.368948 1.91029 
L 624.993832 1.91029 
L 623.929908 -0.230976 
z
M 618.208602 -2.412549 
L 622.833415 -2.412549 
L 620.524627 -7.088066 
L 618.208602 -2.412549 
z
" clip-path="url(#p2ff477ee78)" style="fill: #008000"/>
   </g>
   <g id="patch_39">
    <path d="M 642.560959 8.431834 
L 635.754017 8.431834 
L 634.679236 10.071864 
L 630.300501 10.071864 
L 636.553769 1.069064 
L 641.746732 1.069064 
L 648 10.071864 
L 643.624884 10.071864 
L 642.560959 8.431834 
z
M 636.839653 6.760933 
L 641.464466 6.760933 
L 639.155679 3.179879 
L 636.839653 6.760933 
z
" clip-path="url(#p2ff477ee78)" style="fill: #008000"/>
   </g>
   <g id="patch_40">
    <path d="M 630.300501 -10.204638 
L 648 -10.204638 
L 648 -8.005952 
L 641.632296 -8.005952 
L 641.632296 1.069064 
L 636.680553 1.069064 
L 636.680553 -8.005952 
L 630.300501 -8.005952 
L 630.300501 -10.204638 
z
" clip-path="url(#p2ff477ee78)" style="fill: #ff0000"/>
   </g>
   <g id="patch_41">
    <path d="M 107.699499 29.667024 
Q 106.218967 28.784625 104.618029 28.338295 
Q 103.017092 27.886835 101.273453 27.886835 
Q 96.073751 27.886835 93.036876 31.231744 
Q 90 34.576653 90 40.296857 
Q 90 46.037582 93.036876 49.377361 
Q 96.073751 52.72227 101.273453 52.72227 
Q 103.017092 52.72227 104.618029 52.27081 
Q 106.218967 51.82448 107.699499 50.942081 
L 107.699499 45.99141 
Q 106.205588 47.161102 104.756272 47.704907 
Q 103.306955 48.248711 101.706018 48.248711 
Q 98.834142 48.248711 97.18861 46.129927 
Q 95.547538 44.016273 95.547538 40.296857 
Q 95.547538 36.592832 97.18861 34.474048 
Q 98.834142 32.360394 101.706018 32.360394 
Q 103.306955 32.360394 104.756272 32.904198 
Q 106.205588 33.453133 107.699499 34.622825 
L 107.699499 29.667024 
z
" clip-path="url(#p2ff477ee78)" style="fill: #0000ff"/>
   </g>
   <g id="patch_42">
    <path d="M 107.699499 11.683712 
Q 105.914476 10.877788 103.994584 10.472986 
Q 102.074692 10.071864 100.027865 10.071864 
Q 95.402671 10.071864 92.701335 12.471236 
Q 90 14.870609 90 18.97383 
Q 90 23.124891 92.748936 25.505863 
Q 95.501839 27.886835 100.289668 27.886835 
Q 102.134193 27.886835 103.824015 27.562993 
Q 105.517804 27.242832 107.017224 26.609869 
L 107.017224 23.05865 
Q 105.470203 23.871935 103.93905 24.273057 
Q 102.407896 24.677859 100.868809 24.677859 
Q 98.020705 24.677859 96.477652 23.198491 
Q 94.934598 21.722804 94.934598 18.97383 
Q 94.934598 16.250616 96.422118 14.763888 
Q 97.909637 13.280841 100.646673 13.280841 
Q 101.392416 13.280841 102.031058 13.365481 
Q 102.6697 13.453801 103.17744 13.637802 
L 103.17744 16.971899 
L 100.261901 16.971899 
L 100.261901 19.941675 
L 107.699499 19.941675 
L 107.699499 11.683712 
z
" clip-path="url(#p2ff477ee78)" style="fill: #ffa600"/>
   </g>
   <g id="patch_43">
    <path d="M 126.330551 11.464566 
Q 124.850018 10.774235 123.249081 10.425057 
Q 121.648144 10.071864 119.904504 10.071864 
Q 114.704803 10.071864 111.667927 12.688698 
Q 108.631052 15.305532 108.631052 19.780638 
Q 108.631052 24.271799 111.667927 26.884619 
Q 114.704803 29.501453 119.904504 29.501453 
Q 121.648144 29.501453 123.249081 29.148261 
Q 124.850018 28.799082 126.330551 28.108752 
L 126.330551 24.235677 
Q 124.83664 25.150766 123.387324 25.576202 
Q 121.938007 26.001639 120.33707 26.001639 
Q 117.465193 26.001639 115.819662 24.344043 
Q 114.178589 22.690461 114.178589 19.780638 
Q 114.178589 16.882856 115.819662 15.225261 
Q 117.465193 13.571679 120.33707 13.571679 
Q 121.938007 13.571679 123.387324 13.997115 
Q 124.83664 14.426564 126.330551 15.341654 
L 126.330551 11.464566 
z
" clip-path="url(#p2ff477ee78)" style="fill: #0000ff"/>
   </g>
   <g id="patch_44">
    <path d="M 126.330551 32.010939 
Q 124.545527 30.756196 122.625636 30.12596 
Q 120.705744 29.501453 118.658917 29.501453 
Q 114.033723 29.501453 111.332387 33.237035 
Q 108.631052 36.972617 108.631052 43.360921 
Q 108.631052 49.823707 111.379988 53.530641 
Q 114.132891 57.237576 118.92072 57.237576 
Q 120.765244 57.237576 122.455067 56.733387 
Q 124.148856 56.234928 125.648275 55.249468 
L 125.648275 49.720577 
Q 124.101255 50.986779 122.570102 51.611286 
Q 121.038948 52.241522 119.499861 52.241522 
Q 116.651757 52.241522 115.108704 49.938295 
Q 113.56565 47.640797 113.56565 43.360921 
Q 113.56565 39.12115 115.053169 36.806464 
Q 116.540689 34.497507 119.277725 34.497507 
Q 120.023468 34.497507 120.66211 34.629284 
Q 121.300752 34.76679 121.808492 35.053261 
L 121.808492 40.244116 
L 118.892953 40.244116 
L 118.892953 44.867758 
L 126.330551 44.867758 
L 126.330551 32.010939 
z
" clip-path="url(#p2ff477ee78)" style="fill: #ffa600"/>
   </g>
   <g id="patch_45">
    <path d="M 144.961603 27.975687 
Q 143.48107 26.63052 141.880133 25.950116 
Q 140.279195 25.261892 138.535556 25.261892 
Q 133.335855 25.261892 130.298979 30.361011 
Q 127.262104 35.46013 127.262104 44.18025 
Q 127.262104 52.931653 130.298979 58.022952 
Q 133.335855 63.122071 138.535556 63.122071 
Q 140.279195 63.122071 141.880133 62.433846 
Q 143.48107 61.753442 144.961603 60.408276 
L 144.961603 52.861266 
Q 143.467692 54.644394 142.018375 55.473392 
Q 140.569059 56.30239 138.968121 56.30239 
Q 136.096245 56.30239 134.450713 53.072426 
Q 132.809641 49.850283 132.809641 44.18025 
Q 132.809641 38.533679 134.450713 35.303716 
Q 136.096245 32.081573 138.968121 32.081573 
Q 140.569059 32.081573 142.018375 32.910571 
Q 143.467692 33.747389 144.961603 35.530517 
L 144.961603 27.975687 
z
" clip-path="url(#p2ff477ee78)" style="fill: #0000ff"/>
   </g>
   <g id="patch_46">
    <path d="M 144.961603 11.446215 
Q 143.176579 10.75904 141.256687 10.413883 
Q 139.336795 10.071864 137.289969 10.071864 
Q 132.664774 10.071864 129.963439 12.117701 
Q 127.262104 14.163539 127.262104 17.662171 
Q 127.262104 21.201595 130.01104 23.231743 
Q 132.763942 25.261892 137.551772 25.261892 
Q 139.396296 25.261892 141.086118 24.985766 
Q 142.779907 24.712779 144.279327 24.173079 
L 144.279327 21.145115 
Q 142.732307 21.838566 141.201153 22.180585 
Q 139.67 22.525741 138.130913 22.525741 
Q 135.282809 22.525741 133.739755 21.264351 
Q 132.196702 20.006098 132.196702 17.662171 
Q 132.196702 15.340209 133.684221 14.072543 
Q 135.171741 12.808015 137.908777 12.808015 
Q 138.65452 12.808015 139.293162 12.880184 
Q 139.931803 12.955491 140.439543 13.11238 
L 140.439543 15.955215 
L 137.524005 15.955215 
L 137.524005 18.487409 
L 144.961603 18.487409 
L 144.961603 11.446215 
z
" clip-path="url(#p2ff477ee78)" style="fill: #ffa600"/>
   </g>
   <g id="patch_47">
    <path d="M 163.592654 38.691483 
Q 162.112122 37.64905 160.511185 37.121772 
Q 158.910247 36.588434 157.166608 36.588434 
Q 151.966906 36.588434 148.930031 40.539985 
Q 145.893155 44.491536 145.893155 51.249173 
Q 145.893155 58.031053 148.930031 61.976543 
Q 151.966906 65.928094 157.166608 65.928094 
Q 158.910247 65.928094 160.511185 65.394756 
Q 162.112122 64.867478 163.592654 63.825044 
L 163.592654 57.976507 
Q 162.098744 59.358337 160.649427 60.000767 
Q 159.200111 60.643197 157.599173 60.643197 
Q 154.727297 60.643197 153.081765 58.140144 
Q 151.440693 55.643152 151.440693 51.249173 
Q 151.440693 46.873376 153.081765 44.370323 
Q 154.727297 41.87333 157.599173 41.87333 
Q 159.200111 41.87333 160.649427 42.51576 
Q 162.098744 43.164251 163.592654 44.546082 
L 163.592654 38.691483 
z
" clip-path="url(#p2ff477ee78)" style="fill: #0000ff"/>
   </g>
   <g id="patch_48">
    <path d="M 163.592654 12.471009 
Q 161.807631 11.271436 159.887739 10.668912 
Q 157.967847 10.071864 155.92102 10.071864 
Q 151.295826 10.071864 148.594491 13.643193 
Q 145.893155 17.214522 145.893155 23.321933 
Q 145.893155 29.500551 148.642091 33.044492 
Q 151.394994 36.588434 156.182824 36.588434 
Q 158.027348 36.588434 159.71717 36.106414 
Q 161.410959 35.629872 162.910379 34.687742 
L 162.910379 29.401956 
Q 161.363358 30.612483 159.832205 31.209531 
Q 158.301052 31.812055 156.761965 31.812055 
Q 153.913861 31.812055 152.370807 29.610101 
Q 150.827753 27.413624 150.827753 23.321933 
Q 150.827753 19.268584 152.315273 17.055675 
Q 153.802792 14.848243 156.539828 14.848243 
Q 157.285572 14.848243 157.924213 14.974225 
Q 158.562855 15.105685 159.070595 15.37956 
L 159.070595 20.342174 
L 156.155057 20.342174 
L 156.155057 24.762515 
L 163.592654 24.762515 
L 163.592654 12.471009 
z
" clip-path="url(#p2ff477ee78)" style="fill: #ffa600"/>
   </g>
   <g id="patch_49">
    <path d="M 182.223706 11.663332 
Q 180.743174 10.874478 179.142236 10.475464 
Q 177.541299 10.071864 175.79766 10.071864 
Q 170.597958 10.071864 167.561083 13.062172 
Q 164.524207 16.052481 164.524207 21.166274 
Q 164.524207 26.298414 167.561083 29.284136 
Q 170.597958 32.274444 175.79766 32.274444 
Q 177.541299 32.274444 179.142236 31.870844 
Q 180.743174 31.47183 182.223706 30.682976 
L 182.223706 26.257137 
Q 180.729795 27.302827 179.280479 27.788982 
Q 177.831162 28.275136 176.230225 28.275136 
Q 173.358349 28.275136 171.712817 26.380968 
Q 170.071745 24.491387 170.071745 21.166274 
Q 170.071745 17.854921 171.712817 15.960753 
Q 173.358349 14.071172 176.230225 14.071172 
Q 177.831162 14.071172 179.280479 14.557327 
Q 180.729795 15.048067 182.223706 16.093758 
L 182.223706 11.663332 
z
" clip-path="url(#p2ff477ee78)" style="fill: #0000ff"/>
   </g>
   <g id="patch_50">
    <path d="M 182.223706 36.449539 
Q 180.438683 34.361991 178.518791 33.313452 
Q 176.598899 32.274444 174.552072 32.274444 
Q 169.926878 32.274444 167.225542 38.489426 
Q 164.524207 44.704408 164.524207 55.332789 
Q 164.524207 66.085089 167.273143 72.25241 
Q 170.026046 78.419731 174.813876 78.419731 
Q 176.6584 78.419731 178.348222 77.580899 
Q 180.042011 76.751599 181.541431 75.112064 
L 181.541431 65.91351 
Q 179.99441 68.020122 178.463257 69.05913 
Q 176.932103 70.107669 175.393016 70.107669 
Q 172.544912 70.107669 171.001859 66.275733 
Q 169.458805 62.453328 169.458805 55.332789 
Q 169.458805 48.278975 170.946325 44.427974 
Q 172.433844 40.586505 175.17088 40.586505 
Q 175.916623 40.586505 176.555265 40.805746 
Q 177.193907 41.034518 177.701647 41.511127 
L 177.701647 50.147283 
L 174.786108 50.147283 
L 174.786108 57.839753 
L 182.223706 57.839753 
L 182.223706 36.449539 
z
" clip-path="url(#p2ff477ee78)" style="fill: #ffa600"/>
   </g>
   <g id="patch_51">
    <path d="M 200.854758 35.26386 
Q 199.374225 32.701404 197.773288 31.405277 
Q 196.172351 30.094253 194.428711 30.094253 
Q 189.22901 30.094253 186.192134 39.807752 
Q 183.155259 49.52125 183.155259 66.132525 
Q 183.155259 82.803391 186.192134 92.501992 
Q 189.22901 102.215491 194.428711 102.215491 
Q 196.172351 102.215491 197.773288 100.904466 
Q 199.374225 99.60834 200.854758 97.045883 
L 200.854758 82.669309 
Q 199.360847 86.066054 197.911531 87.645243 
Q 196.462214 89.224431 194.861277 89.224431 
Q 191.9894 89.224431 190.343869 83.071555 
Q 188.702796 76.933578 188.702796 66.132525 
Q 188.702796 55.376166 190.343869 49.22329 
Q 191.9894 43.085313 194.861277 43.085313 
Q 196.462214 43.085313 197.911531 44.664501 
Q 199.360847 46.258587 200.854758 49.655332 
L 200.854758 35.26386 
z
" clip-path="url(#p2ff477ee78)" style="fill: #0000ff"/>
   </g>
   <g id="patch_52">
    <path d="M 200.854758 11.883433 
Q 199.069734 10.977649 197.149843 10.522689 
Q 195.229951 10.071864 193.183124 10.071864 
Q 188.55793 10.071864 185.856594 12.768538 
Q 183.155259 15.465212 183.155259 20.076855 
Q 183.155259 24.742266 185.904195 27.418259 
Q 188.657098 30.094253 193.444927 30.094253 
Q 195.289451 30.094253 196.979274 29.730285 
Q 198.673063 29.370453 200.172482 28.65906 
L 200.172482 24.667818 
Q 198.625462 25.581874 197.094309 26.032698 
Q 195.563155 26.487659 194.024068 26.487659 
Q 191.175964 26.487659 189.632911 24.824986 
Q 188.089857 23.166449 188.089857 20.076855 
Q 188.089857 17.016213 189.577376 15.345268 
Q 191.064896 13.678459 193.801932 13.678459 
Q 194.547675 13.678459 195.186317 13.773587 
Q 195.824959 13.872851 196.332699 14.079651 
L 196.332699 17.826869 
L 193.41716 17.826869 
L 193.41716 21.164623 
L 200.854758 21.164623 
L 200.854758 11.883433 
z
" clip-path="url(#p2ff477ee78)" style="fill: #ffa600"/>
   </g>
   <g id="patch_53">
    <path d="M 214.046769 11.809042 
L 207.239826 11.809042 
L 206.165046 10.071864 
L 201.786311 10.071864 
L 208.039579 19.607947 
L 213.232542 19.607947 
L 219.48581 10.071864 
L 215.110693 10.071864 
L 214.046769 11.809042 
z
M 208.325463 13.578919 
L 212.950276 13.578919 
L 210.641488 17.372098 
L 208.325463 13.578919 
z
" clip-path="url(#p2ff477ee78)" style="fill: #008000"/>
   </g>
   <g id="patch_54">
    <path d="M 219.48581 51.551105 
Q 218.005277 50.457492 216.40434 49.904327 
Q 214.803402 49.344805 213.059763 49.344805 
Q 207.860062 49.344805 204.823186 53.49036 
Q 201.786311 57.635914 201.786311 64.725322 
Q 201.786311 71.840162 204.823186 75.979359 
Q 207.860062 80.124914 213.059763 80.124914 
Q 214.803402 80.124914 216.40434 79.565391 
Q 218.005277 79.012227 219.48581 77.918614 
L 219.48581 71.782938 
Q 217.991899 73.232611 216.542582 73.906582 
Q 215.093266 74.580552 213.492328 74.580552 
Q 210.620452 74.580552 208.97492 71.95461 
Q 207.333848 69.335026 207.333848 64.725322 
Q 207.333848 60.134692 208.97492 57.50875 
Q 210.620452 54.889166 213.492328 54.889166 
Q 215.093266 54.889166 216.542582 55.563137 
Q 217.991899 56.243466 219.48581 57.693138 
L 219.48581 51.551105 
z
" clip-path="url(#p2ff477ee78)" style="fill: #0000ff"/>
   </g>
   <g id="patch_55">
    <path d="M 219.48581 22.298454 
Q 217.700786 20.953201 215.780894 20.277503 
Q 213.861002 19.607947 211.814176 19.607947 
Q 207.188981 19.607947 204.487646 23.612994 
Q 201.786311 27.618041 201.786311 34.467162 
Q 201.786311 41.396138 204.535247 45.370471 
Q 207.288149 49.344805 212.075979 49.344805 
Q 213.920503 49.344805 215.610325 48.804246 
Q 217.304114 48.26983 218.803534 47.213284 
L 218.803534 41.28557 
Q 217.256514 42.643108 215.72536 43.312664 
Q 214.194207 43.988362 212.65512 43.988362 
Q 209.807016 43.988362 208.263962 41.518993 
Q 206.720909 39.055766 206.720909 34.467162 
Q 206.720909 29.921557 208.208428 27.439902 
Q 209.695948 24.96439 212.432984 24.96439 
Q 213.178727 24.96439 213.817369 25.105672 
Q 214.45601 25.253097 214.96375 25.560233 
L 214.96375 31.125528 
L 212.048212 31.125528 
L 212.048212 36.082695 
L 219.48581 36.082695 
L 219.48581 22.298454 
z
" clip-path="url(#p2ff477ee78)" style="fill: #ffa600"/>
   </g>
   <g id="patch_56">
    <path d="M 238.116861 11.278431 
Q 236.636329 10.680363 235.035392 10.377852 
Q 233.434454 10.071864 231.690815 10.071864 
Q 226.491113 10.071864 223.454238 12.338957 
Q 220.417362 14.606051 220.417362 18.483058 
Q 220.417362 22.373974 223.454238 24.637591 
Q 226.491113 26.904684 231.690815 26.904684 
Q 233.434454 26.904684 235.035392 26.598696 
Q 236.636329 26.296185 238.116861 25.698117 
L 238.116861 22.34268 
Q 236.622951 23.135467 235.173634 23.504044 
Q 233.724318 23.87262 232.12338 23.87262 
Q 229.251504 23.87262 227.605972 22.436563 
Q 225.9649 21.003983 225.9649 18.483058 
Q 225.9649 15.972566 227.605972 14.536508 
Q 229.251504 13.103928 232.12338 13.103928 
Q 233.724318 13.103928 235.173634 13.472504 
Q 236.622951 13.844558 238.116861 14.637345 
L 238.116861 11.278431 
z
" clip-path="url(#p2ff477ee78)" style="fill: #0000ff"/>
   </g>
   <g id="patch_57">
    <path d="M 238.116861 34.267051 
Q 236.331838 30.585867 234.411946 28.736871 
Q 232.492054 26.904684 230.445227 26.904684 
Q 225.820033 26.904684 223.118698 37.864189 
Q 220.417362 48.823694 220.417362 67.565792 
Q 220.417362 86.526407 223.166298 97.401867 
Q 225.919201 108.277327 230.707031 108.277327 
Q 232.551555 108.277327 234.241377 106.79813 
Q 235.935166 105.335742 237.434586 102.444584 
L 237.434586 86.223844 
Q 235.887565 89.938646 234.356412 91.770833 
Q 232.825259 93.619829 231.286172 93.619829 
Q 228.438068 93.619829 226.895014 86.862589 
Q 225.35196 80.122157 225.35196 67.565792 
Q 225.35196 55.12709 226.83948 48.336231 
Q 228.327 41.562181 231.064035 41.562181 
Q 231.809779 41.562181 232.44842 41.948789 
Q 233.087062 42.352207 233.594802 43.19266 
L 233.594802 58.421665 
L 230.679264 58.421665 
L 230.679264 71.986574 
L 238.116861 71.986574 
L 238.116861 34.267051 
z
" clip-path="url(#p2ff477ee78)" style="fill: #ffa600"/>
   </g>
   <g id="patch_58">
    <path d="M 251.308873 11.415463 
L 244.50193 11.415463 
L 243.427149 10.954295 
L 239.048414 10.954295 
L 245.301682 13.485835 
L 250.494645 13.485835 
L 256.747913 10.954295 
L 252.372797 10.954295 
L 251.308873 11.415463 
z
M 245.587567 11.885311 
L 250.212379 11.885311 
L 247.903592 12.892285 
L 245.587567 11.885311 
z
" clip-path="url(#p2ff477ee78)" style="fill: #008000"/>
   </g>
   <g id="patch_59">
    <path d="M 256.747913 49.048357 
Q 255.267381 46.747407 253.666443 45.583553 
Q 252.065506 44.406323 250.321867 44.406323 
Q 245.122165 44.406323 242.08529 53.128532 
Q 239.048414 61.850741 239.048414 76.766789 
Q 239.048414 91.736347 242.08529 100.445179 
Q 245.122165 109.167388 250.321867 109.167388 
Q 252.065506 109.167388 253.666443 107.990157 
Q 255.267381 106.826304 256.747913 104.525353 
L 256.747913 91.615948 
Q 255.254002 94.666046 253.804686 96.084074 
Q 252.355369 97.502102 250.754432 97.502102 
Q 247.882556 97.502102 246.237024 91.977144 
Q 244.595952 86.465564 244.595952 76.766789 
Q 244.595952 67.108146 246.237024 61.583189 
Q 247.882556 56.071609 250.754432 56.071609 
Q 252.355369 56.071609 253.804686 57.489636 
Q 255.254002 58.921042 256.747913 61.97114 
L 256.747913 49.048357 
z
" clip-path="url(#p2ff477ee78)" style="fill: #0000ff"/>
   </g>
   <g id="patch_60">
    <path d="M 256.747913 16.283433 
Q 254.96289 14.884634 253.042998 14.182041 
Q 251.123106 13.485835 249.076279 13.485835 
Q 244.451085 13.485835 241.74975 17.650296 
Q 239.048414 21.814758 239.048414 28.936498 
Q 239.048414 36.141272 241.79735 40.273797 
Q 244.550253 44.406323 249.338083 44.406323 
Q 251.182607 44.406323 252.872429 43.844248 
Q 254.566218 43.288561 256.065638 42.189961 
L 256.065638 36.026302 
Q 254.518617 37.437876 252.987464 38.134082 
Q 251.45631 38.836675 249.917223 38.836675 
Q 247.069119 38.836675 245.526066 36.269016 
Q 243.983012 33.707745 243.983012 28.936498 
Q 243.983012 24.209962 245.470532 21.629529 
Q 246.958051 19.055483 249.695087 19.055483 
Q 250.44083 19.055483 251.079472 19.202389 
Q 251.718114 19.355682 252.225854 19.675042 
L 252.225854 25.461855 
L 249.310315 25.461855 
L 249.310315 30.616334 
L 256.747913 30.616334 
L 256.747913 16.283433 
z
" clip-path="url(#p2ff477ee78)" style="fill: #ffa600"/>
   </g>
   <g id="patch_61">
    <path d="M 239.048414 10.954295 
L 256.747913 10.954295 
L 256.747913 10.782196 
L 250.38021 10.782196 
L 250.38021 10.071864 
L 245.428466 10.071864 
L 245.428466 10.782196 
L 239.048414 10.782196 
L 239.048414 10.954295 
z
" clip-path="url(#p2ff477ee78)" style="fill: #ff0000"/>
   </g>
   <g id="patch_62">
    <path d="M 269.939924 11.350283 
L 263.132981 11.350283 
L 262.058201 10.127643 
L 257.679466 10.127643 
L 263.932734 16.839217 
L 269.125697 16.839217 
L 275.378965 10.127643 
L 271.003849 10.127643 
L 269.939924 11.350283 
z
M 264.218618 12.595937 
L 268.843431 12.595937 
L 266.534644 15.265607 
L 264.218618 12.595937 
z
" clip-path="url(#p2ff477ee78)" style="fill: #008000"/>
   </g>
   <g id="patch_63">
    <path d="M 275.378965 27.873717 
Q 273.898432 25.937096 272.297495 24.957525 
Q 270.696558 23.966696 268.952919 23.966696 
Q 263.753217 23.966696 260.716341 31.307843 
Q 257.679466 38.648991 257.679466 51.203254 
Q 257.679466 63.802555 260.716341 71.132443 
Q 263.753217 78.47359 268.952919 78.47359 
Q 270.696558 78.47359 272.297495 77.482761 
Q 273.898432 76.50319 275.378965 74.566569 
L 275.378965 63.70122 
Q 273.885054 66.26837 272.435738 67.461869 
Q 270.986421 68.655369 269.385484 68.655369 
Q 266.513607 68.655369 264.868076 64.005224 
Q 263.227003 59.36634 263.227003 51.203254 
Q 263.227003 43.073946 264.868076 38.423802 
Q 266.513607 33.784917 269.385484 33.784917 
Q 270.986421 33.784917 272.435738 34.978417 
Q 273.885054 36.183176 275.378965 38.750326 
L 275.378965 27.873717 
z
" clip-path="url(#p2ff477ee78)" style="fill: #0000ff"/>
   </g>
   <g id="patch_64">
    <path d="M 275.378965 17.484091 
Q 273.593941 17.161654 271.67405 16.999699 
Q 269.754158 16.839217 267.707331 16.839217 
Q 263.082137 16.839217 260.380801 17.799166 
Q 257.679466 18.759116 257.679466 20.400748 
Q 257.679466 22.061519 260.428402 23.014107 
Q 263.181305 23.966696 267.969134 23.966696 
Q 269.813659 23.966696 271.503481 23.837132 
Q 273.19727 23.70904 274.696689 23.455802 
L 274.696689 22.035018 
Q 273.149669 22.360399 271.618516 22.520882 
Q 270.087362 22.682836 268.548275 22.682836 
Q 265.700171 22.682836 264.157118 22.090966 
Q 262.614064 21.500567 262.614064 20.400748 
Q 262.614064 19.311234 264.101583 18.716419 
Q 265.589103 18.123076 268.326139 18.123076 
Q 269.071882 18.123076 269.710524 18.156939 
Q 270.349166 18.192274 270.856906 18.26589 
L 270.856906 19.599808 
L 267.941367 19.599808 
L 267.941367 20.787967 
L 275.378965 20.787967 
L 275.378965 17.484091 
z
" clip-path="url(#p2ff477ee78)" style="fill: #ffa600"/>
   </g>
   <g id="patch_65">
    <path d="M 257.679466 10.127643 
L 275.378965 10.127643 
L 275.378965 10.116764 
L 269.011261 10.116764 
L 269.011261 10.071864 
L 264.059518 10.071864 
L 264.059518 10.116764 
L 257.679466 10.116764 
L 257.679466 10.127643 
z
" clip-path="url(#p2ff477ee78)" style="fill: #ff0000"/>
   </g>
   <g id="patch_66">
    <path d="M 288.570976 10.165427 
L 281.764033 10.165427 
L 280.689253 10.071864 
L 276.310518 10.071864 
L 282.563786 10.58547 
L 287.756749 10.58547 
L 294.010017 10.071864 
L 289.6349 10.071864 
L 288.570976 10.165427 
z
M 282.84967 10.260751 
L 287.474483 10.260751 
L 285.165695 10.465049 
L 282.84967 10.260751 
z
" clip-path="url(#p2ff477ee78)" style="fill: #008000"/>
   </g>
   <g id="patch_67">
    <path d="M 294.010017 11.245985 
Q 292.529484 10.918582 290.928547 10.752978 
Q 289.32761 10.58547 287.58397 10.58547 
Q 282.384269 10.58547 279.347393 11.826553 
Q 276.310518 13.067636 276.310518 15.19004 
Q 276.310518 17.320058 279.347393 18.559237 
Q 282.384269 19.80032 287.58397 19.80032 
Q 289.32761 19.80032 290.928547 19.632812 
Q 292.529484 19.467208 294.010017 19.139805 
L 294.010017 17.302926 
Q 292.516106 17.736925 291.066789 17.938696 
Q 289.617473 18.140467 288.016535 18.140467 
Q 285.144659 18.140467 283.499127 17.354321 
Q 281.858055 16.570078 281.858055 15.19004 
Q 281.858055 13.815712 283.499127 13.029565 
Q 285.144659 12.245323 288.016535 12.245323 
Q 289.617473 12.245323 291.066789 12.447094 
Q 292.516106 12.650769 294.010017 13.084767 
L 294.010017 11.245985 
z
" clip-path="url(#p2ff477ee78)" style="fill: #0000ff"/>
   </g>
   <g id="patch_68">
    <path d="M 294.010017 28.287831 
Q 292.224993 24.044075 290.305101 21.912509 
Q 288.385209 19.80032 286.338383 19.80032 
Q 281.713188 19.80032 279.011853 32.434696 
Q 276.310518 45.069072 276.310518 66.675405 
Q 276.310518 88.533651 279.059454 101.071138 
Q 281.812356 113.608624 286.600186 113.608624 
Q 288.44471 113.608624 290.134532 111.903371 
Q 291.828321 110.217496 293.327741 106.884501 
L 293.327741 88.184849 
Q 291.780721 92.46736 290.249567 94.579549 
Q 288.718414 96.711115 287.179327 96.711115 
Q 284.331223 96.711115 282.788169 88.921208 
Q 281.245116 81.15068 281.245116 66.675405 
Q 281.245116 52.335776 282.732635 44.507114 
Q 284.220155 36.697829 286.957191 36.697829 
Q 287.702934 36.697829 288.341576 37.14352 
Q 288.980217 37.60859 289.487957 38.577483 
L 289.487957 56.13384 
L 286.572419 56.13384 
L 286.572419 71.771787 
L 294.010017 71.771787 
L 294.010017 28.287831 
z
" clip-path="url(#p2ff477ee78)" style="fill: #ffa600"/>
   </g>
   <g id="patch_69">
    <path d="M 307.202028 10.916924 
L 300.395085 10.916924 
L 299.320305 10.071864 
L 294.941569 10.071864 
L 301.194837 14.710748 
L 306.3878 14.710748 
L 312.641068 10.071864 
L 308.265952 10.071864 
L 307.202028 10.916924 
z
M 301.480722 11.777892 
L 306.105535 11.777892 
L 303.796747 13.623106 
L 301.480722 11.777892 
z
" clip-path="url(#p2ff477ee78)" style="fill: #008000"/>
   </g>
   <g id="patch_70">
    <path d="M 312.641068 34.488953 
Q 311.160536 32.17988 309.559599 31.011919 
Q 307.958661 29.830532 306.215022 29.830532 
Q 301.01532 29.830532 297.978445 38.583531 
Q 294.941569 47.336529 294.941569 62.30523 
Q 294.941569 77.327631 297.978445 86.067205 
Q 301.01532 94.820203 306.215022 94.820203 
Q 307.958661 94.820203 309.559599 93.638817 
Q 311.160536 92.470855 312.641068 90.161782 
L 312.641068 77.206807 
Q 311.147158 80.267672 309.697841 81.690705 
Q 308.248525 83.113739 306.647587 83.113739 
Q 303.775711 83.113739 302.130179 77.569278 
Q 300.489107 72.038242 300.489107 62.30523 
Q 300.489107 52.612493 302.130179 47.068032 
Q 303.775711 41.536997 306.647587 41.536997 
Q 308.248525 41.536997 309.697841 42.96003 
Q 311.147158 44.396488 312.641068 47.457353 
L 312.641068 34.488953 
z
" clip-path="url(#p2ff477ee78)" style="fill: #0000ff"/>
   </g>
   <g id="patch_71">
    <path d="M 312.641068 16.078743 
Q 310.856045 15.394745 308.936153 15.051185 
Q 307.016261 14.710748 304.969434 14.710748 
Q 300.34424 14.710748 297.642905 16.747124 
Q 294.941569 18.783501 294.941569 22.265955 
Q 294.941569 25.789012 297.690505 27.809772 
Q 300.443408 29.830532 305.231238 29.830532 
Q 307.075762 29.830532 308.765584 29.555684 
Q 310.459373 29.283959 311.958793 28.746755 
L 311.958793 25.732793 
Q 310.411772 26.423037 308.880619 26.763474 
Q 307.349466 27.107035 305.810379 27.107035 
Q 302.962275 27.107035 301.419221 25.851477 
Q 299.876167 24.599043 299.876167 22.265955 
Q 299.876167 19.95473 301.363687 18.692926 
Q 302.851207 17.434245 305.588242 17.434245 
Q 306.333986 17.434245 306.972627 17.506081 
Q 307.611269 17.581039 308.119009 17.737203 
L 308.119009 20.566892 
L 305.203471 20.566892 
L 305.203471 23.087377 
L 312.641068 23.087377 
L 312.641068 16.078743 
z
" clip-path="url(#p2ff477ee78)" style="fill: #ffa600"/>
   </g>
   <g id="patch_72">
    <path d="M 325.83308 10.121811 
L 319.026137 10.121811 
L 317.951356 10.071864 
L 313.572621 10.071864 
L 319.825889 10.346044 
L 325.018852 10.346044 
L 331.27212 10.071864 
L 326.897004 10.071864 
L 325.83308 10.121811 
z
M 320.111774 10.172699 
L 324.736586 10.172699 
L 322.427799 10.28176 
L 320.111774 10.172699 
z
" clip-path="url(#p2ff477ee78)" style="fill: #008000"/>
   </g>
   <g id="patch_73">
    <path d="M 331.27212 33.720605 
Q 329.791588 32.863867 328.19065 32.430517 
Q 326.589713 31.992186 324.846074 31.992186 
Q 319.646372 31.992186 316.609497 35.23982 
Q 313.572621 38.487455 313.572621 44.041309 
Q 313.572621 49.615087 316.609497 52.857741 
Q 319.646372 56.105376 324.846074 56.105376 
Q 326.589713 56.105376 328.19065 55.667045 
Q 329.791588 55.233695 331.27212 54.376957 
L 331.27212 49.570258 
Q 329.778209 50.705934 328.328893 51.233924 
Q 326.879576 51.761913 325.278639 51.761913 
Q 322.406763 51.761913 320.761231 49.704746 
Q 319.120159 47.652559 319.120159 44.041309 
Q 319.120159 40.445002 320.761231 38.387834 
Q 322.406763 36.335648 325.278639 36.335648 
Q 326.879576 36.335648 328.328893 36.863638 
Q 329.778209 37.396608 331.27212 38.532284 
L 331.27212 33.720605 
z
" clip-path="url(#p2ff477ee78)" style="fill: #0000ff"/>
   </g>
   <g id="patch_74">
    <path d="M 331.27212 16.925955 
Q 329.487097 16.176579 327.567205 15.80018 
Q 325.647313 15.427202 323.600486 15.427202 
Q 318.975292 15.427202 316.273957 17.658223 
Q 313.572621 19.889243 313.572621 23.704561 
Q 313.572621 27.564363 316.321557 29.778274 
Q 319.07446 31.992186 323.86229 31.992186 
Q 325.706814 31.992186 327.396636 31.691066 
Q 329.090425 31.393369 330.589845 30.804817 
L 330.589845 27.502771 
Q 329.042824 28.258991 327.511671 28.631968 
Q 325.980517 29.008367 324.44143 29.008367 
Q 321.593326 29.008367 320.050273 27.632799 
Q 318.507219 26.260653 318.507219 23.704561 
Q 318.507219 21.172422 319.994739 19.79001 
Q 321.482258 18.411021 324.219294 18.411021 
Q 324.965037 18.411021 325.603679 18.489722 
Q 326.242321 18.571846 326.750061 18.742936 
L 326.750061 21.843096 
L 323.834523 21.843096 
L 323.834523 24.604497 
L 331.27212 24.604497 
L 331.27212 16.925955 
z
" clip-path="url(#p2ff477ee78)" style="fill: #ffa600"/>
   </g>
   <g id="patch_75">
    <path d="M 313.572621 15.427202 
L 331.27212 15.427202 
L 331.27212 14.436235 
L 324.904417 14.436235 
L 324.904417 10.346044 
L 319.952673 10.346044 
L 319.952673 14.436235 
L 313.572621 14.436235 
L 313.572621 15.427202 
z
" clip-path="url(#p2ff477ee78)" style="fill: #ff0000"/>
   </g>
   <g id="patch_76">
    <path d="M 349.903172 12.810616 
Q 348.422639 11.779052 346.821702 11.257272 
Q 345.220765 10.729496 343.477126 10.729496 
Q 338.277424 10.729496 335.240548 14.639843 
Q 332.203673 18.55019 332.203673 25.237364 
Q 332.203673 31.948528 335.240548 35.852878 
Q 338.277424 39.763226 343.477126 39.763226 
Q 345.220765 39.763226 346.821702 39.235449 
Q 348.422639 38.713669 349.903172 37.682105 
L 349.903172 31.894551 
Q 348.409261 33.261973 346.959945 33.897705 
Q 345.510628 34.533436 343.909691 34.533436 
Q 341.037814 34.533436 339.392283 32.056483 
Q 337.75121 29.585527 337.75121 25.237364 
Q 337.75121 20.907194 339.392283 18.430241 
Q 341.037814 15.959285 343.909691 15.959285 
Q 345.510628 15.959285 346.959945 16.595017 
Q 348.409261 17.236746 349.903172 18.604168 
L 349.903172 12.810616 
z
" clip-path="url(#p2ff477ee78)" style="fill: #0000ff"/>
   </g>
   <g id="patch_77">
    <path d="M 349.903172 43.296224 
Q 348.118149 41.529725 346.198257 40.642442 
Q 344.278365 39.763226 342.231538 39.763226 
Q 337.606344 39.763226 334.905008 45.022392 
Q 332.203673 50.281557 332.203673 59.275376 
Q 332.203673 68.374056 334.952609 73.59289 
Q 337.705512 78.811725 342.493341 78.811725 
Q 344.337866 78.811725 346.027688 78.101899 
Q 347.721477 77.400139 349.220896 76.012752 
L 349.220896 68.228864 
Q 347.673876 70.011495 346.142723 70.890712 
Q 344.611569 71.777994 343.072482 71.777994 
Q 340.224378 71.777994 338.681325 68.53538 
Q 337.138271 65.300831 337.138271 59.275376 
Q 337.138271 53.306384 338.62579 50.047637 
Q 340.11331 46.796957 342.850346 46.796957 
Q 343.596089 46.796957 344.234731 46.982479 
Q 344.873373 47.176068 345.381113 47.579379 
L 345.381113 54.88736 
L 342.465574 54.88736 
L 342.465574 61.396788 
L 349.903172 61.396788 
L 349.903172 43.296224 
z
" clip-path="url(#p2ff477ee78)" style="fill: #ffa600"/>
   </g>
   <g id="patch_78">
    <path d="M 332.203673 10.729496 
L 349.903172 10.729496 
L 349.903172 10.601239 
L 343.535468 10.601239 
L 343.535468 10.071864 
L 338.583725 10.071864 
L 338.583725 10.601239 
L 332.203673 10.601239 
L 332.203673 10.729496 
z
" clip-path="url(#p2ff477ee78)" style="fill: #ff0000"/>
   </g>
   <g id="patch_79">
    <path d="M 363.095183 12.146131 
L 356.28824 12.146131 
L 355.21346 11.626713 
L 350.834725 11.626713 
L 357.087993 14.478011 
L 362.280956 14.478011 
L 368.534224 11.626713 
L 364.159107 11.626713 
L 363.095183 12.146131 
z
M 357.373877 12.675326 
L 361.99869 12.675326 
L 359.689902 13.80949 
L 357.373877 12.675326 
z
" clip-path="url(#p2ff477ee78)" style="fill: #008000"/>
   </g>
   <g id="patch_80">
    <path d="M 368.534224 14.840008 
Q 367.053691 14.660574 365.452754 14.569814 
Q 363.851817 14.478011 362.108177 14.478011 
Q 356.908476 14.478011 353.8716 15.158189 
Q 350.834725 15.838367 350.834725 17.001555 
Q 350.834725 18.168916 353.8716 18.848051 
Q 356.908476 19.528229 362.108177 19.528229 
Q 363.851817 19.528229 365.452754 19.436426 
Q 367.053691 19.345666 368.534224 19.166232 
L 368.534224 18.159527 
Q 367.040313 18.397381 365.590996 18.507962 
Q 364.14168 18.618543 362.540743 18.618543 
Q 359.668866 18.618543 358.023334 18.187694 
Q 356.382262 17.757888 356.382262 17.001555 
Q 356.382262 16.248352 358.023334 15.817503 
Q 359.668866 15.387697 362.540743 15.387697 
Q 364.14168 15.387697 365.590996 15.498278 
Q 367.040313 15.609903 368.534224 15.847756 
L 368.534224 14.840008 
z
" clip-path="url(#p2ff477ee78)" style="fill: #0000ff"/>
   </g>
   <g id="patch_81">
    <path d="M 368.534224 29.624299 
Q 366.7492 24.576264 364.829308 22.040721 
Q 362.909416 19.528229 360.86259 19.528229 
Q 356.237396 19.528229 353.53606 34.557083 
Q 350.834725 49.585937 350.834725 75.287121 
Q 350.834725 101.28796 353.583661 116.201562 
Q 356.336563 131.115164 361.124393 131.115164 
Q 362.968917 131.115164 364.658739 129.08673 
Q 366.352528 127.081346 367.851948 123.116679 
L 367.851948 100.873053 
Q 366.304928 105.967189 364.773774 108.479682 
Q 363.242621 111.015224 361.703534 111.015224 
Q 358.85543 111.015224 357.312376 101.748968 
Q 355.769323 92.505762 355.769323 75.287121 
Q 355.769323 58.229833 357.256842 48.917475 
Q 358.744362 39.628168 361.481398 39.628168 
Q 362.227141 39.628168 362.865783 40.158327 
Q 363.504424 40.711537 364.012164 41.864056 
L 364.012164 62.747709 
L 361.096626 62.747709 
L 361.096626 81.349373 
L 368.534224 81.349373 
L 368.534224 29.624299 
z
" clip-path="url(#p2ff477ee78)" style="fill: #ffa600"/>
   </g>
   <g id="patch_82">
    <path d="M 350.834725 11.626713 
L 368.534224 11.626713 
L 368.534224 11.323474 
L 362.16652 11.323474 
L 362.16652 10.071864 
L 357.214777 10.071864 
L 357.214777 11.323474 
L 350.834725 11.323474 
L 350.834725 11.626713 
z
" clip-path="url(#p2ff477ee78)" style="fill: #ff0000"/>
   </g>
   <g id="patch_83">
    <path d="M 387.165275 23.186923 
Q 385.684743 16.686087 384.083806 13.397873 
Q 382.482868 10.071864 380.739229 10.071864 
Q 375.539527 10.071864 372.502652 34.714569 
Q 369.465776 59.357274 369.465776 101.499323 
Q 369.465776 143.792554 372.502652 168.397463 
Q 375.539527 193.040168 380.739229 193.040168 
Q 382.482868 193.040168 384.083806 189.714159 
Q 385.684743 186.425945 387.165275 179.925109 
L 387.165275 143.452394 
Q 385.671365 152.069782 384.222048 156.076111 
Q 382.772732 160.08244 381.171794 160.08244 
Q 378.299918 160.08244 376.654386 144.472874 
Q 375.013314 128.901104 375.013314 101.499323 
Q 375.013314 74.210929 376.654386 58.601363 
Q 378.299918 43.029592 381.171794 43.029592 
Q 382.772732 43.029592 384.222048 47.035922 
Q 385.671365 51.080046 387.165275 59.697434 
L 387.165275 23.186923 
z
" clip-path="url(#p2ff477ee78)" style="fill: #0000ff"/>
   </g>
   <g id="patch_84">
    <path d="M 400.357287 11.426804 
L 393.550344 11.426804 
L 392.475563 10.071864 
L 388.096828 10.071864 
L 394.350096 17.509684 
L 399.543059 17.509684 
L 405.796327 10.071864 
L 401.421211 10.071864 
L 400.357287 11.426804 
z
M 394.635981 12.807248 
L 399.260793 12.807248 
L 396.952006 15.765797 
L 394.635981 12.807248 
z
" clip-path="url(#p2ff477ee78)" style="fill: #008000"/>
   </g>
   <g id="patch_85">
    <path d="M 405.796327 27.509263 
Q 404.315795 27.085982 402.714857 26.87188 
Q 401.11392 26.655317 399.370281 26.655317 
Q 394.170579 26.655317 391.133704 28.25985 
Q 388.096828 29.864383 388.096828 32.608331 
Q 388.096828 35.362123 391.133704 36.964195 
Q 394.170579 38.568728 399.370281 38.568728 
Q 401.11392 38.568728 402.714857 38.352165 
Q 404.315795 38.138063 405.796327 37.714782 
L 405.796327 35.339974 
Q 404.302416 35.901069 402.8531 36.161928 
Q 401.403783 36.422788 399.802846 36.422788 
Q 396.93097 36.422788 395.285438 35.40642 
Q 393.644366 34.392513 393.644366 32.608331 
Q 393.644366 30.831532 395.285438 29.815164 
Q 396.93097 28.801257 399.802846 28.801257 
Q 401.403783 28.801257 402.8531 29.062117 
Q 404.302416 29.325437 405.796327 29.886531 
L 405.796327 27.509263 
z
" clip-path="url(#p2ff477ee78)" style="fill: #0000ff"/>
   </g>
   <g id="patch_86">
    <path d="M 405.796327 43.537168 
Q 404.011304 41.052948 402.091412 39.805166 
Q 400.17152 38.568728 398.124693 38.568728 
Q 393.499499 38.568728 390.798164 45.96467 
Q 388.096828 53.360613 388.096828 66.008582 
Q 388.096828 78.804017 390.845764 86.143242 
Q 393.598667 93.482467 398.386497 93.482467 
Q 400.231021 93.482467 401.920843 92.484242 
Q 403.614632 91.49736 405.114052 89.546283 
L 405.114052 78.599834 
Q 403.567031 81.106741 402.035878 82.343179 
Q 400.504724 83.590961 398.965637 83.590961 
Q 396.117533 83.590961 394.57448 79.030886 
Q 393.031426 74.482154 393.031426 66.008582 
Q 393.031426 57.614414 394.518946 53.031652 
Q 396.006465 48.460234 398.743501 48.460234 
Q 399.489244 48.460234 400.127886 48.721134 
Q 400.766528 48.993377 401.274268 49.56055 
L 401.274268 59.837734 
L 398.35873 59.837734 
L 398.35873 68.991915 
L 405.796327 68.991915 
L 405.796327 43.537168 
z
" clip-path="url(#p2ff477ee78)" style="fill: #ffa600"/>
   </g>
   <g id="patch_87">
    <path d="M 388.096828 26.655317 
L 405.796327 26.655317 
L 405.796327 24.871664 
L 399.428624 24.871664 
L 399.428624 17.509684 
L 394.47688 17.509684 
L 394.47688 24.871664 
L 388.096828 24.871664 
L 388.096828 26.655317 
z
" clip-path="url(#p2ff477ee78)" style="fill: #ff0000"/>
   </g>
   <g id="patch_88">
    <path d="M 424.427379 12.435947 
Q 422.946846 12.23899 421.345909 12.139366 
Q 419.744972 12.038597 418.001333 12.038597 
Q 412.801631 12.038597 409.764755 12.785202 
Q 406.72788 13.531807 406.72788 14.808594 
Q 406.72788 16.08996 409.764755 16.83542 
Q 412.801631 17.582026 418.001333 17.582026 
Q 419.744972 17.582026 421.345909 17.481257 
Q 422.946846 17.381633 424.427379 17.184676 
L 424.427379 16.079654 
Q 422.933468 16.340737 421.484152 16.462118 
Q 420.034835 16.583498 418.433898 16.583498 
Q 415.562021 16.583498 413.91649 16.110572 
Q 412.275417 15.638791 412.275417 14.808594 
Q 412.275417 13.981832 413.91649 13.508905 
Q 415.562021 13.037124 418.433898 13.037124 
Q 420.034835 13.037124 421.484152 13.158505 
Q 422.933468 13.28103 424.427379 13.542113 
L 424.427379 12.435947 
z
" clip-path="url(#p2ff477ee78)" style="fill: #0000ff"/>
   </g>
   <g id="patch_89">
    <path d="M 424.427379 31.254128 
Q 422.642356 24.418077 420.722464 20.984444 
Q 418.802572 17.582026 416.755745 17.582026 
Q 412.130551 17.582026 409.429215 37.934105 
Q 406.72788 58.286184 406.72788 93.090736 
Q 406.72788 128.301081 409.476816 148.497086 
Q 412.229719 168.693091 417.017548 168.693091 
Q 418.862073 168.693091 420.551895 165.946185 
Q 422.245684 163.230493 423.745103 157.86154 
L 423.745103 127.739214 
Q 422.198083 134.637695 420.66693 138.040113 
Q 419.135776 141.473746 417.596689 141.473746 
Q 414.748585 141.473746 413.205532 128.925378 
Q 411.662478 116.408225 411.662478 93.090736 
Q 411.662478 69.991751 413.149997 57.380953 
Q 414.637517 44.80137 417.374553 44.80137 
Q 418.120296 44.80137 418.758938 45.519312 
Q 419.39758 46.268468 419.90532 47.82921 
L 419.90532 76.10986 
L 416.989781 76.10986 
L 416.989781 101.30024 
L 424.427379 101.30024 
L 424.427379 31.254128 
z
" clip-path="url(#p2ff477ee78)" style="fill: #ffa600"/>
   </g>
   <g id="patch_90">
    <path d="M 406.72788 12.038597 
L 424.427379 12.038597 
L 424.427379 11.655029 
L 418.059675 11.655029 
L 418.059675 10.071864 
L 413.107932 10.071864 
L 413.107932 11.655029 
L 406.72788 11.655029 
L 406.72788 12.038597 
z
" clip-path="url(#p2ff477ee78)" style="fill: #ff0000"/>
   </g>
   <g id="patch_91">
    <path d="M 437.61939 10.896404 
L 430.812447 10.896404 
L 429.737667 10.600996 
L 425.358932 10.600996 
L 431.6122 12.222609 
L 436.805163 12.222609 
L 443.058431 10.600996 
L 438.683314 10.600996 
L 437.61939 10.896404 
z
M 431.898084 11.197372 
L 436.522897 11.197372 
L 434.214109 11.842403 
L 431.898084 11.197372 
z
" clip-path="url(#p2ff477ee78)" style="fill: #008000"/>
   </g>
   <g id="patch_92">
    <path d="M 443.058431 26.10216 
Q 441.577898 20.065134 439.976961 17.011522 
Q 438.376024 13.922811 436.632384 13.922811 
Q 431.432683 13.922811 428.395807 36.807351 
Q 425.358932 59.691892 425.358932 98.827265 
Q 425.358932 138.103033 428.395807 160.952475 
Q 431.432683 183.837016 436.632384 183.837016 
Q 438.376024 183.837016 439.976961 180.748305 
Q 441.577898 177.694692 443.058431 171.657666 
L 443.058431 137.787142 
Q 441.56452 145.789712 440.115203 149.510204 
Q 438.665887 153.230697 437.06495 153.230697 
Q 434.193073 153.230697 432.547541 138.734815 
Q 430.906469 124.274031 430.906469 98.827265 
Q 430.906469 73.485795 432.547541 58.989912 
Q 434.193073 44.529129 437.06495 44.529129 
Q 438.665887 44.529129 440.115203 48.249622 
Q 441.56452 52.005213 443.058431 60.007783 
L 443.058431 26.10216 
z
" clip-path="url(#p2ff477ee78)" style="fill: #0000ff"/>
   </g>
   <g id="patch_93">
    <path d="M 443.058431 12.376439 
Q 441.273407 12.299524 439.353515 12.260891 
Q 437.433623 12.222609 435.386797 12.222609 
Q 430.761603 12.222609 428.060267 12.451597 
Q 425.358932 12.680585 425.358932 13.072183 
Q 425.358932 13.468347 428.107868 13.695579 
Q 430.86077 13.922811 435.6486 13.922811 
Q 437.493124 13.922811 439.182946 13.891904 
Q 440.876735 13.861349 442.376155 13.800941 
L 442.376155 13.462025 
Q 440.829135 13.539642 439.297981 13.577924 
Q 437.766828 13.616557 436.227741 13.616557 
Q 433.379637 13.616557 431.836583 13.475371 
Q 430.29353 13.334536 430.29353 13.072183 
Q 430.29353 12.812289 431.781049 12.6704 
Q 433.268569 12.528863 436.005605 12.528863 
Q 436.751348 12.528863 437.38999 12.536941 
Q 438.028631 12.54537 438.536371 12.562931 
L 438.536371 12.881126 
L 435.620833 12.881126 
L 435.620833 13.164551 
L 443.058431 13.164551 
L 443.058431 12.376439 
z
" clip-path="url(#p2ff477ee78)" style="fill: #ffa600"/>
   </g>
   <g id="patch_94">
    <path d="M 425.358932 10.600996 
L 443.058431 10.600996 
L 443.058431 10.497801 
L 436.690727 10.497801 
L 436.690727 10.071864 
L 431.738984 10.071864 
L 431.738984 10.497801 
L 425.358932 10.497801 
L 425.358932 10.600996 
z
" clip-path="url(#p2ff477ee78)" style="fill: #ff0000"/>
   </g>
   <g id="patch_95">
    <path d="M 456.250442 19.948454 
L 449.443499 19.948454 
L 448.368719 17.093015 
L 443.989983 17.093015 
L 450.243251 32.7677 
L 455.436214 32.7677 
L 461.689482 17.093015 
L 457.314366 17.093015 
L 456.250442 19.948454 
z
M 450.529136 22.857644 
L 455.153949 22.857644 
L 452.845161 29.092581 
L 450.529136 22.857644 
z
" clip-path="url(#p2ff477ee78)" style="fill: #008000"/>
   </g>
   <g id="patch_96">
    <path d="M 461.689482 61.167928 
Q 460.20895 60.129807 458.608013 59.604711 
Q 457.007075 59.073579 455.263436 59.073579 
Q 450.063734 59.073579 447.026859 63.008783 
Q 443.989983 66.943988 443.989983 73.67367 
Q 443.989983 80.427495 447.026859 84.356663 
Q 450.063734 88.291868 455.263436 88.291868 
Q 457.007075 88.291868 458.608013 87.760736 
Q 460.20895 87.23564 461.689482 86.197518 
L 461.689482 80.373174 
Q 460.195572 81.749289 458.746255 82.389061 
Q 457.296939 83.028834 455.696001 83.028834 
Q 452.824125 83.028834 451.178593 80.536135 
Q 449.537521 78.049472 449.537521 73.67367 
Q 449.537521 69.315974 451.178593 66.823276 
Q 452.824125 64.336613 455.696001 64.336613 
Q 457.296939 64.336613 458.746255 64.976385 
Q 460.195572 65.622193 461.689482 66.998308 
L 461.689482 61.167928 
z
" clip-path="url(#p2ff477ee78)" style="fill: #0000ff"/>
   </g>
   <g id="patch_97">
    <path d="M 461.689482 35.147781 
Q 459.904459 33.95774 457.984567 33.360003 
Q 456.064675 32.7677 454.017848 32.7677 
Q 449.392654 32.7677 446.691319 36.310652 
Q 443.989983 39.853605 443.989983 45.912488 
Q 443.989983 52.042013 446.738919 55.557796 
Q 449.491822 59.073579 454.279652 59.073579 
Q 456.124176 59.073579 457.813998 58.595389 
Q 459.507787 58.122633 461.007207 57.187989 
L 461.007207 51.944202 
Q 459.460187 53.145111 457.929033 53.737414 
Q 456.39788 54.335151 454.858793 54.335151 
Q 452.010689 54.335151 450.467635 52.150693 
Q 448.924581 49.971668 448.924581 45.912488 
Q 448.924581 41.891346 450.412101 39.696019 
Q 451.899621 37.506127 454.636656 37.506127 
Q 455.3824 37.506127 456.021041 37.631108 
Q 456.659683 37.761524 457.167423 38.033223 
L 457.167423 42.956405 
L 454.251885 42.956405 
L 454.251885 47.341624 
L 461.689482 47.341624 
L 461.689482 35.147781 
z
" clip-path="url(#p2ff477ee78)" style="fill: #ffa600"/>
   </g>
   <g id="patch_98">
    <path d="M 443.989983 17.093015 
L 461.689482 17.093015 
L 461.689482 15.723695 
L 455.321779 15.723695 
L 455.321779 10.071864 
L 450.370035 10.071864 
L 450.370035 15.723695 
L 443.989983 15.723695 
L 443.989983 17.093015 
z
" clip-path="url(#p2ff477ee78)" style="fill: #ff0000"/>
   </g>
   <g id="patch_99">
    <path d="M 480.320534 13.477215 
Q 478.840002 13.183499 477.239064 13.034934 
Q 475.638127 12.884661 473.894488 12.884661 
Q 468.694786 12.884661 465.657911 13.998047 
Q 462.621035 15.111433 462.621035 17.015459 
Q 462.621035 18.926315 465.657911 20.037994 
Q 468.694786 21.151379 473.894488 21.151379 
Q 475.638127 21.151379 477.239064 21.001106 
Q 478.840002 20.852541 480.320534 20.558826 
L 480.320534 18.910947 
Q 478.826623 19.30029 477.377307 19.481301 
Q 475.92799 19.662311 474.327053 19.662311 
Q 471.455177 19.662311 469.809645 18.957053 
Q 468.168573 18.253503 468.168573 17.015459 
Q 468.168573 15.782538 469.809645 15.07728 
Q 471.455177 14.373729 474.327053 14.373729 
Q 475.92799 14.373729 477.377307 14.55474 
Q 478.826623 14.737458 480.320534 15.126801 
L 480.320534 13.477215 
z
" clip-path="url(#p2ff477ee78)" style="fill: #0000ff"/>
   </g>
   <g id="patch_100">
    <path d="M 480.320534 33.103577 
Q 478.535511 27.127478 476.615619 24.125785 
Q 474.695727 21.151379 472.6489 21.151379 
Q 468.023706 21.151379 465.322371 38.943236 
Q 462.621035 56.735092 462.621035 87.16135 
Q 462.621035 117.942354 465.369971 135.59777 
Q 468.122874 153.253186 472.910704 153.253186 
Q 474.755228 153.253186 476.44505 150.851831 
Q 478.138839 148.477764 479.638259 143.784207 
L 479.638259 117.451167 
Q 478.091238 123.481843 476.560085 126.456248 
Q 475.028931 129.457942 473.489844 129.457942 
Q 470.64174 129.457942 469.098687 118.488116 
Q 467.555633 107.545579 467.555633 87.16135 
Q 467.555633 66.968139 469.043153 55.943737 
Q 470.530672 44.946623 473.267708 44.946623 
Q 474.013451 44.946623 474.652093 45.57425 
Q 475.290735 46.229165 475.798475 47.593571 
L 475.798475 72.316611 
L 472.882937 72.316611 
L 472.882937 94.338127 
L 480.320534 94.338127 
L 480.320534 33.103577 
z
" clip-path="url(#p2ff477ee78)" style="fill: #ffa600"/>
   </g>
   <g id="patch_101">
    <path d="M 462.621035 12.884661 
L 480.320534 12.884661 
L 480.320534 12.336087 
L 473.952831 12.336087 
L 473.952831 10.071864 
L 469.001087 10.071864 
L 469.001087 12.336087 
L 462.621035 12.336087 
L 462.621035 12.884661 
z
" clip-path="url(#p2ff477ee78)" style="fill: #ff0000"/>
   </g>
   <g id="patch_102">
    <path d="M 493.512545 13.287727 
L 486.705603 13.287727 
L 485.630822 12.712826 
L 481.252087 12.712826 
L 487.505355 15.868695 
L 492.698318 15.868695 
L 498.951586 12.712826 
L 494.57647 12.712826 
L 493.512545 13.287727 
z
M 487.791239 13.87345 
L 492.416052 13.87345 
L 490.107265 15.128764 
L 487.791239 13.87345 
z
" clip-path="url(#p2ff477ee78)" style="fill: #008000"/>
   </g>
   <g id="patch_103">
    <path d="M 498.951586 28.048316 
Q 497.471053 23.753036 495.870116 21.580423 
Q 494.269179 19.382838 492.52554 19.382838 
Q 487.325838 19.382838 484.288962 35.664947 
Q 481.252087 51.947055 481.252087 79.791459 
Q 481.252087 107.735753 484.288962 123.992889 
Q 487.325838 140.274997 492.52554 140.274997 
Q 494.269179 140.274997 495.870116 138.077412 
Q 497.471053 135.9048 498.951586 131.609519 
L 498.951586 107.511 
Q 497.457675 113.204743 496.008359 115.851834 
Q 494.559042 118.498926 492.958105 118.498926 
Q 490.086228 118.498926 488.440697 108.185259 
Q 486.799624 97.896564 486.799624 79.791459 
Q 486.799624 61.761271 488.440697 51.447604 
Q 490.086228 41.15891 492.958105 41.15891 
Q 494.559042 41.15891 496.008359 43.806001 
Q 497.457675 46.478065 498.951586 52.171808 
L 498.951586 28.048316 
z
" clip-path="url(#p2ff477ee78)" style="fill: #0000ff"/>
   </g>
   <g id="patch_104">
    <path d="M 498.951586 16.186645 
Q 497.166563 16.02767 495.246671 15.94782 
Q 493.326779 15.868695 491.279952 15.868695 
Q 486.654758 15.868695 483.953422 16.34199 
Q 481.252087 16.815285 481.252087 17.624678 
Q 481.252087 18.443507 484.001023 18.913173 
Q 486.753926 19.382838 491.541755 19.382838 
Q 493.38628 19.382838 495.076102 19.318958 
Q 496.769891 19.255803 498.26931 19.130946 
L 498.26931 18.430441 
Q 496.72229 18.590867 495.191137 18.669992 
Q 493.659983 18.749842 492.120896 18.749842 
Q 489.272792 18.749842 487.729739 18.458025 
Q 486.186685 18.166934 486.186685 17.624678 
Q 486.186685 17.087502 487.674205 16.794234 
Q 489.161724 16.501691 491.89876 16.501691 
Q 492.644503 16.501691 493.283145 16.518387 
Q 493.921787 16.535809 494.429527 16.572104 
L 494.429527 17.229781 
L 491.513988 17.229781 
L 491.513988 17.815593 
L 498.951586 17.815593 
L 498.951586 16.186645 
z
" clip-path="url(#p2ff477ee78)" style="fill: #ffa600"/>
   </g>
   <g id="patch_105">
    <path d="M 481.252087 12.712826 
L 498.951586 12.712826 
L 498.951586 12.197765 
L 492.583882 12.197765 
L 492.583882 10.071864 
L 487.632139 10.071864 
L 487.632139 12.197765 
L 481.252087 12.197765 
L 481.252087 12.712826 
z
" clip-path="url(#p2ff477ee78)" style="fill: #ff0000"/>
   </g>
   <g id="patch_106">
    <path d="M 512.143597 10.238148 
L 505.336654 10.238148 
L 504.261874 10.071864 
L 499.883139 10.071864 
L 506.136407 10.984664 
L 511.32937 10.984664 
L 517.582638 10.071864 
L 513.207521 10.071864 
L 512.143597 10.238148 
z
M 506.422291 10.407562 
L 511.047104 10.407562 
L 508.738316 10.770647 
L 506.422291 10.407562 
z
" clip-path="url(#p2ff477ee78)" style="fill: #008000"/>
   </g>
   <g id="patch_107">
    <path d="M 517.582638 42.031136 
Q 516.102105 40.289953 514.501168 39.409239 
Q 512.900231 38.518401 511.156591 38.518401 
Q 505.95689 38.518401 502.920014 45.118698 
Q 499.883139 51.718996 499.883139 63.006314 
Q 499.883139 74.334125 502.920014 80.924299 
Q 505.95689 87.524596 511.156591 87.524596 
Q 512.900231 87.524596 514.501168 86.633758 
Q 516.102105 85.753044 517.582638 84.011861 
L 517.582638 74.243016 
Q 516.088727 76.551096 514.63941 77.62415 
Q 513.190094 78.697204 511.589157 78.697204 
Q 508.71728 78.697204 507.071748 74.516341 
Q 505.430676 70.345601 505.430676 63.006314 
Q 505.430676 55.697396 507.071748 51.516533 
Q 508.71728 47.345793 511.589157 47.345793 
Q 513.190094 47.345793 514.63941 48.418847 
Q 516.088727 49.502025 517.582638 51.810104 
L 517.582638 42.031136 
z
" clip-path="url(#p2ff477ee78)" style="fill: #0000ff"/>
   </g>
   <g id="patch_108">
    <path d="M 517.582638 13.475839 
Q 515.797614 12.230251 513.877722 11.604614 
Q 511.957831 10.984664 509.911004 10.984664 
Q 505.28581 10.984664 502.584474 14.692988 
Q 499.883139 18.401312 499.883139 24.743001 
Q 499.883139 31.158629 502.632075 34.838515 
Q 505.384978 38.518401 510.172807 38.518401 
Q 512.017331 38.518401 513.707153 38.017891 
Q 515.400942 37.523069 516.900362 36.544799 
L 516.900362 31.056252 
Q 515.353342 32.313215 513.822188 32.933165 
Q 512.291035 33.558802 510.751948 33.558802 
Q 507.903844 33.558802 506.36079 31.272382 
Q 504.817737 28.991649 504.817737 24.743001 
Q 504.817737 20.534167 506.305256 18.236371 
Q 507.792776 15.944263 510.529812 15.944263 
Q 511.275555 15.944263 511.914197 16.075078 
Q 512.552838 16.211581 513.060578 16.495962 
L 513.060578 21.64894 
L 510.14504 21.64894 
L 510.14504 26.238844 
L 517.582638 26.238844 
L 517.582638 13.475839 
z
" clip-path="url(#p2ff477ee78)" style="fill: #ffa600"/>
   </g>
   <g id="patch_109">
    <path d="M 536.213689 10.88964 
Q 534.733157 10.484287 533.13222 10.279254 
Q 531.531282 10.071864 529.787643 10.071864 
Q 524.587941 10.071864 521.551066 11.608434 
Q 518.51419 13.145003 518.51419 15.772726 
Q 518.51419 18.409875 521.551066 19.944087 
Q 524.587941 21.480657 529.787643 21.480657 
Q 531.531282 21.480657 533.13222 21.273267 
Q 534.733157 21.068234 536.213689 20.662881 
L 536.213689 18.388664 
Q 534.719779 18.925992 533.270462 19.175803 
Q 531.821146 19.425613 530.220208 19.425613 
Q 527.348332 19.425613 525.7028 18.452295 
Q 524.061728 17.481334 524.061728 15.772726 
Q 524.061728 14.071187 525.7028 13.097869 
Q 527.348332 12.126908 530.220208 12.126908 
Q 531.821146 12.126908 533.270462 12.376718 
Q 534.719779 12.628886 536.213689 13.166214 
L 536.213689 10.88964 
z
" clip-path="url(#p2ff477ee78)" style="fill: #0000ff"/>
   </g>
   <g id="patch_110">
    <path d="M 536.213689 26.636201 
Q 534.428666 24.058429 532.508774 22.763658 
Q 530.588882 21.480657 528.542055 21.480657 
Q 523.916861 21.480657 521.215526 29.15512 
Q 518.51419 36.829583 518.51419 49.953856 
Q 518.51419 63.231148 521.263126 70.846758 
Q 524.016029 78.462368 528.803859 78.462368 
Q 530.648383 78.462368 532.338205 77.426551 
Q 534.031994 76.402504 535.531414 74.377953 
L 535.531414 63.019277 
Q 533.984394 65.62059 532.45324 66.903591 
Q 530.922087 68.198362 529.383 68.198362 
Q 526.534896 68.198362 524.991842 63.466561 
Q 523.448788 58.746531 523.448788 49.953856 
Q 523.448788 41.243576 524.936308 36.488234 
Q 526.423828 31.744663 529.160864 31.744663 
Q 529.906607 31.744663 530.545248 32.015388 
Q 531.18389 32.297883 531.69163 32.886416 
L 531.69163 43.550624 
L 528.776092 43.550624 
L 528.776092 53.049537 
L 536.213689 53.049537 
L 536.213689 26.636201 
z
" clip-path="url(#p2ff477ee78)" style="fill: #ffa600"/>
   </g>
   <g id="patch_111">
    <path d="M 554.844741 22.2178 
Q 553.364209 20.465213 551.763271 19.57873 
Q 550.162334 18.682057 548.418695 18.682057 
Q 543.218993 18.682057 540.182118 25.325587 
Q 537.145242 31.969116 537.145242 43.330368 
Q 537.145242 54.732377 540.182118 61.365717 
Q 543.218993 68.009247 548.418695 68.009247 
Q 550.162334 68.009247 551.763271 67.112574 
Q 553.364209 66.226091 554.844741 64.473503 
L 554.844741 54.640671 
Q 553.35083 56.963869 551.901514 58.043952 
Q 550.452197 59.124035 548.85126 59.124035 
Q 545.979384 59.124035 544.333852 54.915787 
Q 542.69278 50.717728 542.69278 43.330368 
Q 542.69278 35.973575 544.333852 31.765327 
Q 545.979384 27.567268 548.85126 27.567268 
Q 550.452197 27.567268 551.901514 28.647352 
Q 553.35083 29.737624 554.844741 32.060822 
L 554.844741 22.2178 
z
" clip-path="url(#p2ff477ee78)" style="fill: #0000ff"/>
   </g>
   <g id="patch_112">
    <path d="M 554.844741 10.85089 
Q 553.059718 10.461377 551.139826 10.265731 
Q 549.219934 10.071864 547.173107 10.071864 
Q 542.547913 10.071864 539.846578 11.23151 
Q 537.145242 12.391156 537.145242 14.374293 
Q 537.145242 16.380551 539.894178 17.531304 
Q 542.647081 18.682057 547.434911 18.682057 
Q 549.279435 18.682057 550.969257 18.52554 
Q 552.663046 18.370802 554.162466 18.064883 
L 554.162466 16.348536 
Q 552.615445 16.741606 551.084292 16.935474 
Q 549.553138 17.131119 548.014052 17.131119 
Q 545.165947 17.131119 543.622894 16.416123 
Q 542.07984 15.702905 542.07984 14.374293 
Q 542.07984 13.05813 543.56736 12.339577 
Q 545.054879 11.622802 547.791915 11.622802 
Q 548.537658 11.622802 549.1763 11.663709 
Q 549.814942 11.706396 550.322682 11.795326 
L 550.322682 13.406735 
L 547.407144 13.406735 
L 547.407144 14.842064 
L 554.844741 14.842064 
L 554.844741 10.85089 
z
" clip-path="url(#p2ff477ee78)" style="fill: #ffa600"/>
   </g>
   <g id="patch_113">
    <path d="M 573.475793 11.847983 
Q 571.99526 10.967601 570.394323 10.522292 
Q 568.793386 10.071864 567.049747 10.071864 
Q 561.850045 10.071864 558.813169 13.409125 
Q 555.776294 16.746386 555.776294 22.453512 
Q 555.776294 28.181111 558.813169 31.513253 
Q 561.850045 34.850514 567.049747 34.850514 
Q 568.793386 34.850514 570.394323 34.400086 
Q 571.99526 33.954777 573.475793 33.074395 
L 573.475793 28.135045 
Q 571.981882 29.302062 570.532566 29.844623 
Q 569.083249 30.387184 567.482312 30.387184 
Q 564.610435 30.387184 562.964904 28.273244 
Q 561.323831 26.164423 561.323831 22.453512 
Q 561.323831 18.757956 562.964904 16.644016 
Q 564.610435 14.535195 567.482312 14.535195 
Q 569.083249 14.535195 570.532566 15.077756 
Q 571.981882 15.625435 573.475793 16.792452 
L 573.475793 11.847983 
z
" clip-path="url(#p2ff477ee78)" style="fill: #0000ff"/>
   </g>
   <g id="patch_114">
    <path d="M 573.475793 37.156347 
Q 571.69077 36.003431 569.770878 35.42434 
Q 567.850986 34.850514 565.804159 34.850514 
Q 561.178965 34.850514 558.477629 38.282941 
Q 555.776294 41.715368 555.776294 47.58524 
Q 555.776294 53.523549 558.52523 56.929654 
Q 561.278133 60.335759 566.065962 60.335759 
Q 567.910487 60.335759 569.600309 59.872487 
Q 571.294098 59.414479 572.793517 58.508992 
L 572.793517 53.428789 
Q 571.246497 54.592234 569.715344 55.16606 
Q 568.18419 55.745151 566.645103 55.745151 
Q 563.796999 55.745151 562.253946 53.628839 
Q 560.710892 51.517791 560.710892 47.58524 
Q 560.710892 43.689541 562.198412 41.562699 
Q 563.685931 39.441122 566.422967 39.441122 
Q 567.16871 39.441122 567.807352 39.562205 
Q 568.445994 39.688552 568.953734 39.951775 
L 568.953734 44.721374 
L 566.038195 44.721374 
L 566.038195 48.969793 
L 573.475793 48.969793 
L 573.475793 37.156347 
z
" clip-path="url(#p2ff477ee78)" style="fill: #ffa600"/>
   </g>
   <g id="patch_115">
    <path d="M 592.106845 19.180511 
Q 590.626312 18.229454 589.025375 17.748396 
Q 587.424438 17.261808 585.680798 17.261808 
Q 580.481097 17.261808 577.444221 20.866979 
Q 574.407346 24.47215 574.407346 30.637434 
Q 574.407346 36.824836 577.444221 40.424477 
Q 580.481097 44.029648 585.680798 44.029648 
Q 587.424438 44.029648 589.025375 43.543061 
Q 590.626312 43.062003 592.106845 42.110945 
L 592.106845 36.775071 
Q 590.612934 38.035775 589.163617 38.621892 
Q 587.714301 39.208009 586.113364 39.208009 
Q 583.241487 39.208009 581.595955 36.924365 
Q 579.954883 34.646251 579.954883 30.637434 
Q 579.954883 26.645205 581.595955 24.361562 
Q 583.241487 22.083448 586.113364 22.083448 
Q 587.714301 22.083448 589.163617 22.669564 
Q 590.612934 23.26121 592.106845 24.521914 
L 592.106845 19.180511 
z
" clip-path="url(#p2ff477ee78)" style="fill: #0000ff"/>
   </g>
   <g id="patch_116">
    <path d="M 592.106845 10.72239 
Q 590.321821 10.397127 588.401929 10.233753 
Q 586.482038 10.071864 584.435211 10.071864 
Q 579.810017 10.071864 577.108681 11.040227 
Q 574.407346 12.008589 574.407346 13.664608 
Q 574.407346 15.339935 577.156282 16.300872 
Q 579.909185 17.261808 584.697014 17.261808 
Q 586.541538 17.261808 588.23136 17.131109 
Q 589.925149 17.001895 591.424569 16.746437 
L 591.424569 15.313201 
Q 589.877549 15.641435 588.346395 15.803323 
Q 586.815242 15.966697 585.276155 15.966697 
Q 582.428051 15.966697 580.884997 15.369639 
Q 579.341944 14.774067 579.341944 13.664608 
Q 579.341944 12.565547 580.829463 11.965518 
Q 582.316983 11.366975 585.054019 11.366975 
Q 585.799762 11.366975 586.438404 11.401135 
Q 587.077045 11.43678 587.584785 11.511041 
L 587.584785 12.856649 
L 584.669247 12.856649 
L 584.669247 14.055221 
L 592.106845 14.055221 
L 592.106845 10.72239 
z
" clip-path="url(#p2ff477ee78)" style="fill: #ffa600"/>
   </g>
   <g id="patch_117">
    <path d="M 610.737896 11.275089 
Q 609.257364 10.678678 607.656427 10.377005 
Q 606.055489 10.071864 604.31185 10.071864 
Q 599.112148 10.071864 596.075273 12.332678 
Q 593.038397 14.593492 593.038397 18.459761 
Q 593.038397 22.3399 596.075273 24.597246 
Q 599.112148 26.85806 604.31185 26.85806 
Q 606.055489 26.85806 607.656427 26.55292 
Q 609.257364 26.251247 610.737896 25.654836 
L 610.737896 22.308692 
Q 609.243986 23.099284 607.794669 23.466839 
Q 606.345353 23.834395 604.744415 23.834395 
Q 601.872539 23.834395 600.227007 22.402315 
Q 598.585935 20.973703 598.585935 18.459761 
Q 598.585935 15.956222 600.227007 14.524142 
Q 601.872539 13.095529 604.744415 13.095529 
Q 606.345353 13.095529 607.794669 13.463085 
Q 609.243986 13.834108 610.737896 14.624699 
L 610.737896 11.275089 
z
" clip-path="url(#p2ff477ee78)" style="fill: #0000ff"/>
   </g>
   <g id="patch_118">
    <path d="M 610.737896 28.906723 
Q 608.952873 27.882392 607.032981 27.367887 
Q 605.113089 26.85806 603.066262 26.85806 
Q 598.441068 26.85806 595.739733 29.907668 
Q 593.038397 32.957276 593.038397 38.17248 
Q 593.038397 43.448488 595.787333 46.47471 
Q 598.540236 49.500931 603.328066 49.500931 
Q 605.17259 49.500931 606.862412 49.089327 
Q 608.556201 48.682401 610.055621 47.877903 
L 610.055621 43.364297 
Q 608.508601 44.397983 606.977447 44.90781 
Q 605.446294 45.422314 603.907207 45.422314 
Q 601.059103 45.422314 599.516049 43.542035 
Q 597.972995 41.666432 597.972995 38.17248 
Q 597.972995 34.711268 599.460515 32.821634 
Q 600.948035 30.936677 603.685071 30.936677 
Q 604.430814 30.936677 605.069455 31.044255 
Q 605.708097 31.15651 606.215837 31.390376 
L 606.215837 35.628021 
L 603.300299 35.628021 
L 603.300299 39.402613 
L 610.737896 39.402613 
L 610.737896 28.906723 
z
" clip-path="url(#p2ff477ee78)" style="fill: #ffa600"/>
   </g>
   <g id="patch_119">
    <path d="M 629.368948 28.445989 
Q 627.888416 27.283531 626.287478 26.695543 
Q 624.686541 26.100797 622.942902 26.100797 
Q 617.7432 26.100797 614.706325 30.507324 
Q 611.669449 34.91385 611.669449 42.449551 
Q 611.669449 50.012286 614.706325 54.412054 
Q 617.7432 58.818581 622.942902 58.818581 
Q 624.686541 58.818581 626.287478 58.223835 
Q 627.888416 57.635847 629.368948 56.473389 
L 629.368948 49.95146 
Q 627.875037 51.492392 626.425721 52.208791 
Q 624.976404 52.925189 623.375467 52.925189 
Q 620.503591 52.925189 618.858059 50.133939 
Q 617.216987 47.349446 617.216987 42.449551 
Q 617.216987 37.569931 618.858059 34.778681 
Q 620.503591 31.994189 623.375467 31.994189 
Q 624.976404 31.994189 626.425721 32.710587 
Q 627.875037 33.433744 629.368948 34.974677 
L 629.368948 28.445989 
z
" clip-path="url(#p2ff477ee78)" style="fill: #0000ff"/>
   </g>
   <g id="patch_120">
    <path d="M 629.368948 11.522117 
Q 627.583925 10.796991 625.664033 10.432772 
Q 623.744141 10.071864 621.697314 10.071864 
Q 617.07212 10.071864 614.370785 12.230688 
Q 611.669449 14.389511 611.669449 18.081364 
Q 611.669449 21.816261 614.418385 23.958529 
Q 617.171288 26.100797 621.959118 26.100797 
Q 623.803642 26.100797 625.493464 25.809422 
Q 627.187253 25.521359 628.686673 24.951853 
L 628.686673 21.756662 
Q 627.139652 22.48841 625.608499 22.849318 
Q 624.077345 23.213537 622.538259 23.213537 
Q 619.690154 23.213537 618.147101 21.882483 
Q 616.604047 20.55474 616.604047 18.081364 
Q 616.604047 15.631166 618.091567 14.29349 
Q 619.579086 12.959125 622.316122 12.959125 
Q 623.061865 12.959125 623.700507 13.03528 
Q 624.339149 13.114746 624.846889 13.2803 
L 624.846889 16.280137 
L 621.931351 16.280137 
L 621.931351 18.952178 
L 629.368948 18.952178 
L 629.368948 11.522117 
z
" clip-path="url(#p2ff477ee78)" style="fill: #ffa600"/>
   </g>
   <g id="patch_121">
    <path d="M 648 11.700439 
Q 646.519467 10.893192 644.91853 10.484875 
Q 643.317593 10.071864 641.573954 10.071864 
Q 636.374252 10.071864 633.337376 13.131896 
Q 630.300501 16.191927 630.300501 21.424956 
Q 630.300501 26.676758 633.337376 29.732096 
Q 636.374252 32.792127 641.573954 32.792127 
Q 643.317593 32.792127 644.91853 32.379117 
Q 646.519467 31.9708 648 31.163553 
L 648 26.634518 
Q 646.506089 27.704591 645.056773 28.202081 
Q 643.607456 28.69957 642.006519 28.69957 
Q 639.134642 28.69957 637.489111 26.761238 
Q 635.848038 24.827598 635.848038 21.424956 
Q 635.848038 18.036394 637.489111 16.098061 
Q 639.134642 14.164421 642.006519 14.164421 
Q 643.607456 14.164421 645.056773 14.661911 
Q 646.506089 15.164094 648 16.234167 
L 648 11.700439 
z
" clip-path="url(#p2ff477ee78)" style="fill: #0000ff"/>
   </g>
   <g id="patch_122">
    <path d="M 648 35.334571 
Q 646.214977 34.063349 644.295085 33.424836 
Q 642.375193 32.792127 640.328366 32.792127 
Q 635.703172 32.792127 633.001836 36.57677 
Q 630.300501 40.361413 630.300501 46.833616 
Q 630.300501 53.38128 633.049437 57.136899 
Q 635.80234 60.892519 640.590169 60.892519 
Q 642.434694 60.892519 644.124516 60.381708 
Q 645.818305 59.876702 647.317724 58.878299 
L 647.317724 53.276796 
Q 645.770704 54.559627 644.239551 55.192336 
Q 642.708397 55.830849 641.16931 55.830849 
Q 638.321206 55.830849 636.778153 53.497373 
Q 635.235099 51.169702 635.235099 46.833616 
Q 635.235099 42.538163 636.722619 40.193077 
Q 638.210138 37.853797 640.947174 37.853797 
Q 641.692917 37.853797 642.331559 37.987304 
Q 642.970201 38.126616 643.477941 38.416849 
L 643.477941 43.675877 
L 640.562402 43.675877 
L 640.562402 48.360243 
L 648 48.360243 
L 648 35.334571 
z
" clip-path="url(#p2ff477ee78)" style="fill: #ffa600"/>
   </g>
   <g id="matplotlib.axis_1">
    <g id="xtick_1">
     <g id="line2d_2">
      <defs>
       <path id="me683458894" d="M 0 0 
L 0 3.5 
" style="stroke: #000000; stroke-width: 0.8"/>
      </defs>
      <g>
       <use xlink:href="#me683458894" x="98.84975" y="192.24" style="stroke: #000000; stroke-width: 0.8"/>
      </g>
     </g>
     <g id="text_1">
      <!-- 0 -->
      <g transform="translate(95.6685 206.838437) scale(0.1 -0.1)">
       <defs>
        <path id="DejaVuSans-30" d="M 2034 4250 
Q 1547 4250 1301 3770 
Q 1056 3291 1056 2328 
Q 1056 1369 1301 889 
Q 1547 409 2034 409 
Q 2525 409 2770 889 
Q 3016 1369 3016 2328 
Q 3016 3291 2770 3770 
Q 2525 4250 2034 4250 
z
M 2034 4750 
Q 2819 4750 3233 4129 
Q 3647 3509 3647 2328 
Q 3647 1150 3233 529 
Q 2819 -91 2034 -91 
Q 1250 -91 836 529 
Q 422 1150 422 2328 
Q 422 3509 836 4129 
Q 1250 4750 2034 4750 
z
" transform="scale(0.015625)"/>
       </defs>
       <use xlink:href="#DejaVuSans-30"/>
      </g>
     </g>
    </g>
    <g id="xtick_2">
     <g id="line2d_3">
      <g>
       <use xlink:href="#me683458894" x="192.005008" y="192.24" style="stroke: #000000; stroke-width: 0.8"/>
      </g>
     </g>
     <g id="text_2">
      <!-- 5 -->
      <g transform="translate(188.823758 206.838437) scale(0.1 -0.1)">
       <defs>
        <path id="DejaVuSans-35" d="M 691 4666 
L 3169 4666 
L 3169 4134 
L 1269 4134 
L 1269 2991 
Q 1406 3038 1543 3061 
Q 1681 3084 1819 3084 
Q 2600 3084 3056 2656 
Q 3513 2228 3513 1497 
Q 3513 744 3044 326 
Q 2575 -91 1722 -91 
Q 1428 -91 1123 -41 
Q 819 9 494 109 
L 494 744 
Q 775 591 1075 516 
Q 1375 441 1709 441 
Q 2250 441 2565 725 
Q 2881 1009 2881 1497 
Q 2881 1984 2565 2268 
Q 2250 2553 1709 2553 
Q 1456 2553 1204 2497 
Q 953 2441 691 2322 
L 691 4666 
z
" transform="scale(0.015625)"/>
       </defs>
       <use xlink:href="#DejaVuSans-35"/>
      </g>
     </g>
    </g>
    <g id="xtick_3">
     <g id="line2d_4">
      <g>
       <use xlink:href="#me683458894" x="285.160267" y="192.24" style="stroke: #000000; stroke-width: 0.8"/>
      </g>
     </g>
     <g id="text_3">
      <!-- 10 -->
      <g transform="translate(278.797767 206.838437) scale(0.1 -0.1)">
       <defs>
        <path id="DejaVuSans-31" d="M 794 531 
L 1825 531 
L 1825 4091 
L 703 3866 
L 703 4441 
L 1819 4666 
L 2450 4666 
L 2450 531 
L 3481 531 
L 3481 0 
L 794 0 
L 794 531 
z
" transform="scale(0.015625)"/>
       </defs>
       <use xlink:href="#DejaVuSans-31"/>
       <use xlink:href="#DejaVuSans-30" x="63.623047"/>
      </g>
     </g>
    </g>
    <g id="xtick_4">
     <g id="line2d_5">
      <g>
       <use xlink:href="#me683458894" x="378.315526" y="192.24" style="stroke: #000000; stroke-width: 0.8"/>
      </g>
     </g>
     <g id="text_4">
      <!-- 15 -->
      <g transform="translate(371.953026 206.838437) scale(0.1 -0.1)">
       <use xlink:href="#DejaVuSans-31"/>
       <use xlink:href="#DejaVuSans-35" x="63.623047"/>
      </g>
     </g>
    </g>
    <g id="xtick_5">
     <g id="line2d_6">
      <g>
       <use xlink:href="#me683458894" x="471.470785" y="192.24" style="stroke: #000000; stroke-width: 0.8"/>
      </g>
     </g>
     <g id="text_5">
      <!-- 20 -->
      <g transform="translate(465.108285 206.838437) scale(0.1 -0.1)">
       <defs>
        <path id="DejaVuSans-32" d="M 1228 531 
L 3431 531 
L 3431 0 
L 469 0 
L 469 531 
Q 828 903 1448 1529 
Q 2069 2156 2228 2338 
Q 2531 2678 2651 2914 
Q 2772 3150 2772 3378 
Q 2772 3750 2511 3984 
Q 2250 4219 1831 4219 
Q 1534 4219 1204 4116 
Q 875 4013 500 3803 
L 500 4441 
Q 881 4594 1212 4672 
Q 1544 4750 1819 4750 
Q 2544 4750 2975 4387 
Q 3406 4025 3406 3419 
Q 3406 3131 3298 2873 
Q 3191 2616 2906 2266 
Q 2828 2175 2409 1742 
Q 1991 1309 1228 531 
z
" transform="scale(0.015625)"/>
       </defs>
       <use xlink:href="#DejaVuSans-32"/>
       <use xlink:href="#DejaVuSans-30" x="63.623047"/>
      </g>
     </g>
    </g>
    <g id="xtick_6">
     <g id="line2d_7">
      <g>
       <use xlink:href="#me683458894" x="564.626043" y="192.24" style="stroke: #000000; stroke-width: 0.8"/>
      </g>
     </g>
     <g id="text_6">
      <!-- 25 -->
      <g transform="translate(558.263543 206.838437) scale(0.1 -0.1)">
       <use xlink:href="#DejaVuSans-32"/>
       <use xlink:href="#DejaVuSans-35" x="63.623047"/>
      </g>
     </g>
    </g>
   </g>
   <g id="matplotlib.axis_2">
    <g id="ytick_1">
     <g id="line2d_8">
      <defs>
       <path id="m87e232ff15" d="M 0 0 
L -3.5 0 
" style="stroke: #000000; stroke-width: 0.8"/>
      </defs>
      <g>
       <use xlink:href="#m87e232ff15" x="90" y="184.162227" style="stroke: #000000; stroke-width: 0.8"/>
      </g>
     </g>
     <g id="text_7">
      <!-- 0.007 -->
      <g transform="translate(45.992188 187.961446) scale(0.1 -0.1)">
       <defs>
        <path id="DejaVuSans-2212" d="M 678 2272 
L 4684 2272 
L 4684 1741 
L 678 1741 
L 678 2272 
z
" transform="scale(0.015625)"/>
        <path id="DejaVuSans-2e" d="M 684 794 
L 1344 794 
L 1344 0 
L 684 0 
L 684 794 
z
" transform="scale(0.015625)"/>
        <path id="DejaVuSans-37" d="M 525 4666 
L 3525 4666 
L 3525 4397 
L 1831 0 
L 1172 0 
L 2766 4134 
L 525 4134 
L 525 4666 
z
" transform="scale(0.015625)"/>
       </defs>
       <use xlink:href="#DejaVuSans-2212"/>
       <use xlink:href="#DejaVuSans-30" x="83.789062"/>
       <use xlink:href="#DejaVuSans-2e" x="147.412109"/>
       <use xlink:href="#DejaVuSans-30" x="179.199219"/>
       <use xlink:href="#DejaVuSans-30" x="242.822266"/>
       <use xlink:href="#DejaVuSans-37" x="306.445312"/>
      </g>
     </g>
    </g>
    <g id="ytick_2">
     <g id="line2d_9">
      <g>
       <use xlink:href="#m87e232ff15" x="90" y="159.292175" style="stroke: #000000; stroke-width: 0.8"/>
      </g>
     </g>
     <g id="text_8">
      <!-- 0.006 -->
      <g transform="translate(45.992188 163.091394) scale(0.1 -0.1)">
       <defs>
        <path id="DejaVuSans-36" d="M 2113 2584 
Q 1688 2584 1439 2293 
Q 1191 2003 1191 1497 
Q 1191 994 1439 701 
Q 1688 409 2113 409 
Q 2538 409 2786 701 
Q 3034 994 3034 1497 
Q 3034 2003 2786 2293 
Q 2538 2584 2113 2584 
z
M 3366 4563 
L 3366 3988 
Q 3128 4100 2886 4159 
Q 2644 4219 2406 4219 
Q 1781 4219 1451 3797 
Q 1122 3375 1075 2522 
Q 1259 2794 1537 2939 
Q 1816 3084 2150 3084 
Q 2853 3084 3261 2657 
Q 3669 2231 3669 1497 
Q 3669 778 3244 343 
Q 2819 -91 2113 -91 
Q 1303 -91 875 529 
Q 447 1150 447 2328 
Q 447 3434 972 4092 
Q 1497 4750 2381 4750 
Q 2619 4750 2861 4703 
Q 3103 4656 3366 4563 
z
" transform="scale(0.015625)"/>
       </defs>
       <use xlink:href="#DejaVuSans-2212"/>
       <use xlink:href="#DejaVuSans-30" x="83.789062"/>
       <use xlink:href="#DejaVuSans-2e" x="147.412109"/>
       <use xlink:href="#DejaVuSans-30" x="179.199219"/>
       <use xlink:href="#DejaVuSans-30" x="242.822266"/>
       <use xlink:href="#DejaVuSans-36" x="306.445312"/>
      </g>
     </g>
    </g>
    <g id="ytick_3">
     <g id="line2d_10">
      <g>
       <use xlink:href="#m87e232ff15" x="90" y="134.422123" style="stroke: #000000; stroke-width: 0.8"/>
      </g>
     </g>
     <g id="text_9">
      <!-- 0.005 -->
      <g transform="translate(45.992188 138.221342) scale(0.1 -0.1)">
       <use xlink:href="#DejaVuSans-2212"/>
       <use xlink:href="#DejaVuSans-30" x="83.789062"/>
       <use xlink:href="#DejaVuSans-2e" x="147.412109"/>
       <use xlink:href="#DejaVuSans-30" x="179.199219"/>
       <use xlink:href="#DejaVuSans-30" x="242.822266"/>
       <use xlink:href="#DejaVuSans-35" x="306.445312"/>
      </g>
     </g>
    </g>
    <g id="ytick_4">
     <g id="line2d_11">
      <g>
       <use xlink:href="#m87e232ff15" x="90" y="109.552072" style="stroke: #000000; stroke-width: 0.8"/>
      </g>
     </g>
     <g id="text_10">
      <!-- 0.004 -->
      <g transform="translate(45.992188 113.35129) scale(0.1 -0.1)">
       <defs>
        <path id="DejaVuSans-34" d="M 2419 4116 
L 825 1625 
L 2419 1625 
L 2419 4116 
z
M 2253 4666 
L 3047 4666 
L 3047 1625 
L 3713 1625 
L 3713 1100 
L 3047 1100 
L 3047 0 
L 2419 0 
L 2419 1100 
L 313 1100 
L 313 1709 
L 2253 4666 
z
" transform="scale(0.015625)"/>
       </defs>
       <use xlink:href="#DejaVuSans-2212"/>
       <use xlink:href="#DejaVuSans-30" x="83.789062"/>
       <use xlink:href="#DejaVuSans-2e" x="147.412109"/>
       <use xlink:href="#DejaVuSans-30" x="179.199219"/>
       <use xlink:href="#DejaVuSans-30" x="242.822266"/>
       <use xlink:href="#DejaVuSans-34" x="306.445312"/>
      </g>
     </g>
    </g>
    <g id="ytick_5">
     <g id="line2d_12">
      <g>
       <use xlink:href="#m87e232ff15" x="90" y="84.68202" style="stroke: #000000; stroke-width: 0.8"/>
      </g>
     </g>
     <g id="text_11">
      <!-- 0.003 -->
      <g transform="translate(45.992188 88.481238) scale(0.1 -0.1)">
       <defs>
        <path id="DejaVuSans-33" d="M 2597 2516 
Q 3050 2419 3304 2112 
Q 3559 1806 3559 1356 
Q 3559 666 3084 287 
Q 2609 -91 1734 -91 
Q 1441 -91 1130 -33 
Q 819 25 488 141 
L 488 750 
Q 750 597 1062 519 
Q 1375 441 1716 441 
Q 2309 441 2620 675 
Q 2931 909 2931 1356 
Q 2931 1769 2642 2001 
Q 2353 2234 1838 2234 
L 1294 2234 
L 1294 2753 
L 1863 2753 
Q 2328 2753 2575 2939 
Q 2822 3125 2822 3475 
Q 2822 3834 2567 4026 
Q 2313 4219 1838 4219 
Q 1578 4219 1281 4162 
Q 984 4106 628 3988 
L 628 4550 
Q 988 4650 1302 4700 
Q 1616 4750 1894 4750 
Q 2613 4750 3031 4423 
Q 3450 4097 3450 3541 
Q 3450 3153 3228 2886 
Q 3006 2619 2597 2516 
z
" transform="scale(0.015625)"/>
       </defs>
       <use xlink:href="#DejaVuSans-2212"/>
       <use xlink:href="#DejaVuSans-30" x="83.789062"/>
       <use xlink:href="#DejaVuSans-2e" x="147.412109"/>
       <use xlink:href="#DejaVuSans-30" x="179.199219"/>
       <use xlink:href="#DejaVuSans-30" x="242.822266"/>
       <use xlink:href="#DejaVuSans-33" x="306.445312"/>
      </g>
     </g>
    </g>
    <g id="ytick_6">
     <g id="line2d_13">
      <g>
       <use xlink:href="#m87e232ff15" x="90" y="59.811968" style="stroke: #000000; stroke-width: 0.8"/>
      </g>
     </g>
     <g id="text_12">
      <!-- 0.002 -->
      <g transform="translate(45.992188 63.611187) scale(0.1 -0.1)">
       <use xlink:href="#DejaVuSans-2212"/>
       <use xlink:href="#DejaVuSans-30" x="83.789062"/>
       <use xlink:href="#DejaVuSans-2e" x="147.412109"/>
       <use xlink:href="#DejaVuSans-30" x="179.199219"/>
       <use xlink:href="#DejaVuSans-30" x="242.822266"/>
       <use xlink:href="#DejaVuSans-32" x="306.445312"/>
      </g>
     </g>
    </g>
    <g id="ytick_7">
     <g id="line2d_14">
      <g>
       <use xlink:href="#m87e232ff15" x="90" y="34.941916" style="stroke: #000000; stroke-width: 0.8"/>
      </g>
     </g>
     <g id="text_13">
      <!-- 0.001 -->
      <g transform="translate(45.992188 38.741135) scale(0.1 -0.1)">
       <use xlink:href="#DejaVuSans-2212"/>
       <use xlink:href="#DejaVuSans-30" x="83.789062"/>
       <use xlink:href="#DejaVuSans-2e" x="147.412109"/>
       <use xlink:href="#DejaVuSans-30" x="179.199219"/>
       <use xlink:href="#DejaVuSans-30" x="242.822266"/>
       <use xlink:href="#DejaVuSans-31" x="306.445312"/>
      </g>
     </g>
    </g>
   </g>
  </g>
 </g>
 <defs>
  <clipPath id="p2ff477ee78">
   <rect x="90" y="25.92" width="558" height="166.32"/>
  </clipPath>
 </defs>
</svg>
