<?xml version="1.0" encoding="utf-8" standalone="no"?>
<!DOCTYPE svg PUBLIC "-//W3C//DTD SVG 1.1//EN"
  "http://www.w3.org/Graphics/SVG/1.1/DTD/svg11.dtd">
<svg xmlns:xlink="http://www.w3.org/1999/xlink" width="720pt" height="216pt" viewBox="0 0 720 216" xmlns="http://www.w3.org/2000/svg" version="1.1">
 <metadata>
  <rdf:RDF xmlns:dc="http://purl.org/dc/elements/1.1/" xmlns:cc="http://creativecommons.org/ns#" xmlns:rdf="http://www.w3.org/1999/02/22-rdf-syntax-ns#">
   <cc:Work>
    <dc:type rdf:resource="http://purl.org/dc/dcmitype/StillImage"/>
    <dc:date>2024-11-23T04:45:53.373609</dc:date>
    <dc:format>image/svg+xml</dc:format>
    <dc:creator>
     <cc:Agent>
      <dc:title>Matplotlib v3.7.2, https://matplotlib.org/</dc:title>
     </cc:Agent>
    </dc:creator>
   </cc:Work>
  </rdf:RDF>
 </metadata>
 <defs>
  <style type="text/css">*{stroke-linejoin: round; stroke-linecap: butt}</style>
 </defs>
 <g id="figure_1">
  <g id="patch_1">
   <path d="M 0 216 
L 720 216 
L 720 0 
L 0 0 
z
" style="fill: #ffffff"/>
  </g>
  <g id="axes_1">
   <g id="patch_2">
    <path d="M 90 192.24 
L 648 192.24 
L 648 25.92 
L 90 25.92 
z
" style="fill: #ffffff"/>
   </g>
   <g id="line2d_1">
    <path d="M 90 39.280569 
L 648 39.280569 
" clip-path="url(#pdf561ff52a)" style="fill: none; stroke: #000000; stroke-width: 0.5; stroke-linecap: square"/>
   </g>
   <g id="patch_3">
    <path d="M 90 35.942293 
L 109.669759 35.942293 
L 109.669759 36.59335 
L 102.59322 36.59335 
L 102.59322 39.280569 
L 97.090262 39.280569 
L 97.090262 36.59335 
L 90 36.59335 
L 90 35.942293 
z
" clip-path="url(#pdf561ff52a)" style="fill: #ff0000"/>
   </g>
   <g id="patch_4">
    <path d="M 103.625259 35.11158 
L 96.060586 35.11158 
L 94.866164 35.942293 
L 90 35.942293 
L 96.949365 31.382169 
L 102.720394 31.382169 
L 109.669759 35.942293 
L 104.807616 35.942293 
L 103.625259 35.11158 
z
M 97.267073 34.265231 
L 102.406707 34.265231 
L 99.840912 32.451345 
L 97.267073 34.265231 
z
" clip-path="url(#pdf561ff52a)" style="fill: #008000"/>
   </g>
   <g id="patch_5">
    <path d="M 124.330268 38.065843 
L 116.765595 38.065843 
L 115.571173 39.280569 
L 110.705009 39.280569 
L 117.654374 32.612435 
L 123.425403 32.612435 
L 130.374768 39.280569 
L 125.512626 39.280569 
L 124.330268 38.065843 
z
M 117.972082 36.828251 
L 123.111717 36.828251 
L 120.545921 34.17586 
L 117.972082 36.828251 
z
" clip-path="url(#pdf561ff52a)" style="fill: #008000"/>
   </g>
   <g id="patch_6">
    <path d="M 110.705009 25.188447 
L 130.374768 25.188447 
L 130.374768 26.636332 
L 123.298229 26.636332 
L 123.298229 32.612435 
L 117.795271 32.612435 
L 117.795271 26.636332 
L 110.705009 26.636332 
L 110.705009 25.188447 
z
" clip-path="url(#pdf561ff52a)" style="fill: #ff0000"/>
   </g>
   <g id="patch_7">
    <path d="M 145.035278 38.375236 
L 137.470605 38.375236 
L 136.276183 39.280569 
L 131.410019 39.280569 
L 138.359383 34.31082 
L 144.130413 34.31082 
L 151.079777 39.280569 
L 146.217635 39.280569 
L 145.035278 38.375236 
z
M 138.677092 37.45286 
L 143.816726 37.45286 
L 141.25093 35.476038 
L 138.677092 37.45286 
z
" clip-path="url(#pdf561ff52a)" style="fill: #008000"/>
   </g>
   <g id="patch_8">
    <path d="M 165.740287 39.277051 
L 158.175614 39.277051 
L 156.981192 39.280569 
L 152.115028 39.280569 
L 159.064393 39.261255 
L 164.835422 39.261255 
L 171.784787 39.280569 
L 166.922644 39.280569 
L 165.740287 39.277051 
z
M 159.382101 39.273466 
L 164.521735 39.273466 
L 161.95594 39.265783 
L 159.382101 39.273466 
z
" clip-path="url(#pdf561ff52a)" style="fill: #008000"/>
   </g>
   <g id="patch_9">
    <path d="M 152.115028 38.132019 
L 171.784787 38.132019 
L 171.784787 38.352251 
L 164.708248 38.352251 
L 164.708248 39.261255 
L 159.20529 39.261255 
L 159.20529 38.352251 
L 152.115028 38.352251 
L 152.115028 38.132019 
z
" clip-path="url(#pdf561ff52a)" style="fill: #ff0000"/>
   </g>
   <g id="patch_10">
    <path d="M 192.489796 39.239347 
Q 190.506069 39.259958 188.37246 39.270311 
Q 186.238851 39.280569 183.964177 39.280569 
Q 178.824119 39.280569 175.822078 39.219206 
Q 172.820037 39.157843 172.820037 39.052904 
Q 172.820037 38.946742 175.874977 38.885849 
Q 178.934326 38.824956 184.255123 38.824956 
Q 186.304975 38.824956 188.182903 38.833238 
Q 190.06524 38.841426 191.731571 38.857614 
L 191.731571 38.948436 
Q 190.012341 38.927636 188.310744 38.917377 
Q 186.609146 38.907025 184.898733 38.907025 
Q 181.733585 38.907025 180.018763 38.944859 
Q 178.303941 38.9826 178.303941 39.052904 
Q 178.303941 39.122549 179.957047 39.160572 
Q 181.610153 39.1985 184.651869 39.1985 
Q 185.480626 39.1985 186.190359 39.196336 
Q 186.900093 39.194077 187.464353 39.189371 
L 187.464353 39.104103 
L 184.224265 39.104103 
L 184.224265 39.028151 
L 192.489796 39.028151 
L 192.489796 39.239347 
z
" clip-path="url(#pdf561ff52a)" style="fill: #ffa600"/>
   </g>
   <g id="patch_11">
    <path d="M 172.820037 36.347513 
L 192.489796 36.347513 
L 192.489796 36.830684 
L 185.413257 36.830684 
L 185.413257 38.824956 
L 179.910299 38.824956 
L 179.910299 36.830684 
L 172.820037 36.830684 
L 172.820037 36.347513 
z
" clip-path="url(#pdf561ff52a)" style="fill: #ff0000"/>
   </g>
   <g id="patch_12">
    <path d="M 213.194805 39.236342 
Q 211.211078 39.258456 209.077469 39.269563 
Q 206.94386 39.280569 204.669186 39.280569 
Q 199.529128 39.280569 196.527087 39.214734 
Q 193.525046 39.148899 193.525046 39.036313 
Q 193.525046 38.922414 196.579987 38.857084 
Q 199.639335 38.791753 204.960133 38.791753 
Q 207.009984 38.791753 208.887913 38.800639 
Q 210.77025 38.809424 212.436581 38.826791 
L 212.436581 38.924231 
Q 210.71735 38.901916 209.015753 38.89091 
Q 207.314156 38.879803 205.603742 38.879803 
Q 202.438595 38.879803 200.723773 38.920394 
Q 199.00895 38.960885 199.00895 39.036313 
Q 199.00895 39.111034 200.662057 39.151827 
Q 202.315163 39.19252 205.356878 39.19252 
Q 206.185635 39.19252 206.895369 39.190197 
Q 207.605102 39.187774 208.169363 39.182725 
L 208.169363 39.091243 
L 204.929275 39.091243 
L 204.929275 39.009756 
L 213.194805 39.009756 
L 213.194805 39.236342 
z
" clip-path="url(#pdf561ff52a)" style="fill: #ffa600"/>
   </g>
   <g id="patch_13">
    <path d="M 297.050093 34.917834 
L 316.719852 34.917834 
L 316.719852 35.768689 
L 309.643313 35.768689 
L 309.643313 39.280569 
L 304.140355 39.280569 
L 304.140355 35.768689 
L 297.050093 35.768689 
L 297.050093 34.917834 
z
" clip-path="url(#pdf561ff52a)" style="fill: #ff0000"/>
   </g>
   <g id="patch_14">
    <path d="M 337.424861 39.097578 
Q 335.441133 39.189074 333.307525 39.23503 
Q 331.173916 39.280569 328.899242 39.280569 
Q 323.759184 39.280569 320.757143 39.008171 
Q 317.755102 38.735774 317.755102 38.26994 
Q 317.755102 37.798675 320.810042 37.528367 
Q 323.869391 37.258058 329.190188 37.258058 
Q 331.24004 37.258058 333.117968 37.294823 
Q 335.000305 37.331171 336.666636 37.40303 
L 336.666636 37.806196 
Q 334.947406 37.713865 333.245809 37.668326 
Q 331.544211 37.622369 329.833798 37.622369 
Q 326.66865 37.622369 324.953828 37.79032 
Q 323.239006 37.957853 323.239006 38.26994 
Q 323.239006 38.579103 324.892112 38.74789 
Q 326.545218 38.916258 329.586934 38.916258 
Q 330.415691 38.916258 331.125424 38.906649 
Q 331.835158 38.896622 332.399418 38.875733 
L 332.399418 38.497217 
L 329.15933 38.497217 
L 329.15933 38.160062 
L 337.424861 38.160062 
L 337.424861 39.097578 
z
" clip-path="url(#pdf561ff52a)" style="fill: #ffa600"/>
   </g>
   <g id="patch_15">
    <path d="M 331.380361 36.216557 
L 323.815688 36.216557 
L 322.621266 37.258058 
L 317.755102 37.258058 
L 324.704467 31.540829 
L 330.475496 31.540829 
L 337.424861 37.258058 
L 332.562718 37.258058 
L 331.380361 36.216557 
z
M 325.022175 35.155451 
L 330.161809 35.155451 
L 327.596014 32.881302 
L 325.022175 35.155451 
z
" clip-path="url(#pdf561ff52a)" style="fill: #008000"/>
   </g>
   <g id="patch_16">
    <path d="M 352.085371 39.170509 
L 344.520697 39.170509 
L 343.326275 39.280569 
L 338.460111 39.280569 
L 345.409476 38.676406 
L 351.180505 38.676406 
L 358.12987 39.280569 
L 353.267728 39.280569 
L 352.085371 39.170509 
z
M 345.727184 39.058378 
L 350.866819 39.058378 
L 348.301023 38.818059 
L 345.727184 39.058378 
z
" clip-path="url(#pdf561ff52a)" style="fill: #008000"/>
   </g>
   <g id="patch_17">
    <path d="M 359.165121 38.42161 
L 378.834879 38.42161 
L 378.834879 38.589131 
L 371.758341 38.589131 
L 371.758341 39.280569 
L 366.255382 39.280569 
L 366.255382 38.589131 
L 359.165121 38.589131 
L 359.165121 38.42161 
z
" clip-path="url(#pdf561ff52a)" style="fill: #ff0000"/>
   </g>
   <g id="patch_18">
    <path d="M 400.575139 38.3697 
L 420.244898 38.3697 
L 420.244898 38.547345 
L 413.168359 38.547345 
L 413.168359 39.280569 
L 407.665401 39.280569 
L 407.665401 38.547345 
L 400.575139 38.547345 
L 400.575139 38.3697 
z
" clip-path="url(#pdf561ff52a)" style="fill: #ff0000"/>
   </g>
   <g id="patch_19">
    <path d="M 421.280148 36.578185 
L 440.949907 36.578185 
L 440.949907 37.105225 
L 433.873368 37.105225 
L 433.873368 39.280569 
L 428.37041 39.280569 
L 428.37041 37.105225 
L 421.280148 37.105225 
L 421.280148 36.578185 
z
" clip-path="url(#pdf561ff52a)" style="fill: #ff0000"/>
   </g>
   <g id="patch_20">
    <path d="M 455.610417 38.706511 
L 448.045744 38.706511 
L 446.851322 39.280569 
L 441.985158 39.280569 
L 448.934522 36.12933 
L 454.705552 36.12933 
L 461.654917 39.280569 
L 456.792774 39.280569 
L 455.610417 38.706511 
z
M 449.252231 38.121648 
L 454.391865 38.121648 
L 451.82607 36.868176 
L 449.252231 38.121648 
z
" clip-path="url(#pdf561ff52a)" style="fill: #008000"/>
   </g>
   <g id="patch_21">
    <path d="M 482.359926 39.17833 
Q 480.376198 39.22945 478.242589 39.255126 
Q 476.10898 39.280569 473.834306 39.280569 
Q 468.694248 39.280569 465.692208 39.128378 
Q 462.690167 38.976187 462.690167 38.715921 
Q 462.690167 38.452621 465.745107 38.301597 
Q 468.804456 38.150573 474.125253 38.150573 
Q 476.175105 38.150573 478.053033 38.171114 
Q 479.93537 38.191422 481.601701 38.231571 
L 481.601701 38.456823 
Q 479.882471 38.405237 478.180873 38.379794 
Q 476.479276 38.354117 474.768862 38.354117 
Q 471.603715 38.354117 469.888893 38.447953 
Q 468.174071 38.541555 468.174071 38.715921 
Q 468.174071 38.888654 469.827177 38.982956 
Q 471.480283 39.077025 474.521999 39.077025 
Q 475.350756 39.077025 476.060489 39.071656 
Q 476.770223 39.066054 477.334483 39.054383 
L 477.334483 38.842903 
L 474.094395 38.842903 
L 474.094395 38.654531 
L 482.359926 38.654531 
L 482.359926 39.17833 
z
" clip-path="url(#pdf561ff52a)" style="fill: #ffa600"/>
   </g>
   <g id="patch_22">
    <path d="M 462.690167 36.418202 
L 482.359926 36.418202 
L 482.359926 36.756063 
L 475.283387 36.756063 
L 475.283387 38.150573 
L 469.780429 38.150573 
L 469.780429 36.756063 
L 462.690167 36.756063 
L 462.690167 36.418202 
z
" clip-path="url(#pdf561ff52a)" style="fill: #ff0000"/>
   </g>
   <g id="patch_23">
    <path d="M 483.395176 36.537608 
L 503.064935 36.537608 
L 503.064935 37.072562 
L 495.988396 37.072562 
L 495.988396 39.280569 
L 490.485438 39.280569 
L 490.485438 37.072562 
L 483.395176 37.072562 
L 483.395176 36.537608 
z
" clip-path="url(#pdf561ff52a)" style="fill: #ff0000"/>
   </g>
   <g id="patch_24">
    <path d="M 517.725445 38.876277 
L 510.160772 38.876277 
L 508.96635 39.280569 
L 504.100186 39.280569 
L 511.04955 37.061246 
L 516.82058 37.061246 
L 523.769944 39.280569 
L 518.907802 39.280569 
L 517.725445 38.876277 
z
M 511.367259 38.464376 
L 516.506893 38.464376 
L 513.941097 37.581593 
L 511.367259 38.464376 
z
" clip-path="url(#pdf561ff52a)" style="fill: #008000"/>
   </g>
   <g id="patch_25">
    <path d="M 538.430454 38.655643 
L 530.865781 38.655643 
L 529.671359 39.280569 
L 524.805195 39.280569 
L 531.75456 35.850093 
L 537.525589 35.850093 
L 544.474954 39.280569 
L 539.612811 39.280569 
L 538.430454 38.655643 
z
M 532.072268 38.018954 
L 537.211902 38.018954 
L 534.646107 36.654409 
L 532.072268 38.018954 
z
" clip-path="url(#pdf561ff52a)" style="fill: #008000"/>
   </g>
   <g id="patch_26">
    <path d="M 545.510204 38.884726 
L 565.179963 38.884726 
L 565.179963 38.961927 
L 558.103424 38.961927 
L 558.103424 39.280569 
L 552.600466 39.280569 
L 552.600466 38.961927 
L 545.510204 38.961927 
L 545.510204 38.884726 
z
" clip-path="url(#pdf561ff52a)" style="fill: #ff0000"/>
   </g>
   <g id="patch_27">
    <path d="M 559.135463 38.593476 
L 551.57079 38.593476 
L 550.376368 38.884726 
L 545.510204 38.884726 
L 552.459569 37.285932 
L 558.230598 37.285932 
L 565.179963 38.884726 
L 560.317821 38.884726 
L 559.135463 38.593476 
z
M 552.777277 38.296743 
L 557.916911 38.296743 
L 555.351116 37.660788 
L 552.777277 38.296743 
z
" clip-path="url(#pdf561ff52a)" style="fill: #008000"/>
   </g>
   <g id="patch_28">
    <path d="M 579.840473 38.941461 
L 572.275799 38.941461 
L 571.081377 39.280569 
L 566.215213 39.280569 
L 573.164578 37.419064 
L 578.935607 37.419064 
L 585.884972 39.280569 
L 581.02283 39.280569 
L 579.840473 38.941461 
z
M 573.482286 38.595969 
L 578.621921 38.595969 
L 576.056125 37.855516 
L 573.482286 38.595969 
z
" clip-path="url(#pdf561ff52a)" style="fill: #008000"/>
   </g>
   <g id="patch_29">
    <path d="M 585.884972 37.217322 
Q 584.239631 37.317321 582.460482 37.367901 
Q 580.681332 37.419064 578.743596 37.419064 
Q 572.965078 37.419064 569.590146 37.039998 
Q 566.215213 36.660932 566.215213 36.012683 
Q 566.215213 35.362108 569.590146 34.983623 
Q 572.965078 34.604557 578.743596 34.604557 
Q 580.681332 34.604557 582.460482 34.65572 
Q 584.239631 34.7063 585.884972 34.806299 
L 585.884972 35.36734 
Q 584.224763 35.234784 582.614113 35.173156 
Q 581.003462 35.111529 579.224313 35.111529 
Q 576.032747 35.111529 574.20404 35.351643 
Q 572.380288 35.591175 572.380288 36.012683 
Q 572.380288 36.432446 574.20404 36.67256 
Q 576.032747 36.912092 579.224313 36.912092 
Q 581.003462 36.912092 582.614113 36.850465 
Q 584.224763 36.788256 585.884972 36.655699 
L 585.884972 37.217322 
z
" clip-path="url(#pdf561ff52a)" style="fill: #0000ff"/>
   </g>
   <g id="patch_30">
    <path d="M 566.215213 24.753294 
L 585.884972 24.753294 
L 585.884972 26.674565 
L 578.808433 26.674565 
L 578.808433 34.604557 
L 573.305475 34.604557 
L 573.305475 26.674565 
L 566.215213 26.674565 
L 566.215213 24.753294 
z
" clip-path="url(#pdf561ff52a)" style="fill: #ff0000"/>
   </g>
   <g id="patch_31">
    <path d="M 600.545482 38.232231 
L 592.980809 38.232231 
L 591.786387 39.280569 
L 586.920223 39.280569 
L 593.869587 33.52581 
L 599.640617 33.52581 
L 606.589981 39.280569 
L 601.727839 39.280569 
L 600.545482 38.232231 
z
M 594.187296 37.16416 
L 599.32693 37.16416 
L 596.761134 34.875083 
L 594.187296 37.16416 
z
" clip-path="url(#pdf561ff52a)" style="fill: #008000"/>
   </g>
   <g id="patch_32">
    <path d="M 586.920223 27.764416 
L 606.589981 27.764416 
L 606.589981 28.888049 
L 599.513443 28.888049 
L 599.513443 33.52581 
L 594.010485 33.52581 
L 594.010485 28.888049 
L 586.920223 28.888049 
L 586.920223 27.764416 
z
" clip-path="url(#pdf561ff52a)" style="fill: #ff0000"/>
   </g>
   <g id="patch_33">
    <path d="M 621.250491 39.156803 
L 613.685818 39.156803 
L 612.491396 39.280569 
L 607.625232 39.280569 
L 614.574597 38.601164 
L 620.345626 38.601164 
L 627.294991 39.280569 
L 622.432848 39.280569 
L 621.250491 39.156803 
z
M 614.892305 39.030707 
L 620.031939 39.030707 
L 617.466144 38.760459 
L 614.892305 39.030707 
z
" clip-path="url(#pdf561ff52a)" style="fill: #008000"/>
   </g>
   <g id="patch_34">
    <path d="M 607.625232 34.605848 
L 627.294991 34.605848 
L 627.294991 35.385046 
L 620.218452 35.385046 
L 620.218452 38.601164 
L 614.715494 38.601164 
L 614.715494 35.385046 
L 607.625232 35.385046 
L 607.625232 34.605848 
z
" clip-path="url(#pdf561ff52a)" style="fill: #ff0000"/>
   </g>
   <g id="patch_35">
    <path d="M 641.9555 38.92906 
L 634.390827 38.92906 
L 633.196405 39.280569 
L 628.330241 39.280569 
L 635.279606 37.350993 
L 641.050635 37.350993 
L 648 39.280569 
L 643.137858 39.280569 
L 641.9555 38.92906 
z
M 635.597314 38.570935 
L 640.736949 38.570935 
L 638.171153 37.803406 
L 635.597314 38.570935 
z
" clip-path="url(#pdf561ff52a)" style="fill: #008000"/>
   </g>
   <g id="patch_36">
    <path d="M 628.330241 33.046853 
L 648 33.046853 
L 648 33.88628 
L 640.923461 33.88628 
L 640.923461 37.350993 
L 635.420503 37.350993 
L 635.420503 33.88628 
L 628.330241 33.88628 
L 628.330241 33.046853 
z
" clip-path="url(#pdf561ff52a)" style="fill: #ff0000"/>
   </g>
   <g id="patch_37">
    <path d="M 109.669759 43.816197 
Q 108.024417 43.63395 106.245268 43.541767 
Q 104.466119 43.448525 102.528383 43.448525 
Q 96.749864 43.448525 93.374932 44.139366 
Q 90 44.830208 90 46.011631 
Q 90 47.197293 93.374932 47.887075 
Q 96.749864 48.577916 102.528383 48.577916 
Q 104.466119 48.577916 106.245268 48.484674 
Q 108.024417 48.392491 109.669759 48.210244 
L 109.669759 47.187757 
Q 108.00955 47.429339 106.398899 47.541654 
Q 104.788249 47.653969 103.0091 47.653969 
Q 99.817534 47.653969 97.988826 47.216365 
Q 96.165074 46.779821 96.165074 46.011631 
Q 96.165074 45.24662 97.988826 44.809016 
Q 99.817534 44.372472 103.0091 44.372472 
Q 104.788249 44.372472 106.398899 44.484787 
Q 108.00955 44.598161 109.669759 44.839744 
L 109.669759 43.816197 
z
" clip-path="url(#pdf561ff52a)" style="fill: #0000ff"/>
   </g>
   <g id="patch_38">
    <path d="M 109.669759 39.657674 
Q 107.686031 39.469122 105.552422 39.374415 
Q 103.418813 39.280569 101.144139 39.280569 
Q 96.004081 39.280569 93.002041 39.841922 
Q 90 40.403274 90 41.363256 
Q 90 42.33443 93.05494 42.891477 
Q 96.114289 43.448525 101.435086 43.448525 
Q 103.484938 43.448525 105.362866 43.37276 
Q 107.245203 43.297855 108.911534 43.149768 
L 108.911534 42.318932 
Q 107.192304 42.509207 105.490707 42.603052 
Q 103.789109 42.697759 102.078695 42.697759 
Q 98.913548 42.697759 97.198726 42.351649 
Q 95.483904 42.0064 95.483904 41.363256 
Q 95.483904 40.726138 97.13701 40.378306 
Q 98.790116 40.031335 101.831832 40.031335 
Q 102.660589 40.031335 103.370322 40.051137 
Q 104.080056 40.071801 104.644316 40.114849 
L 104.644316 40.894888 
L 101.404228 40.894888 
L 101.404228 41.589691 
L 109.669759 41.589691 
L 109.669759 39.657674 
z
" clip-path="url(#pdf561ff52a)" style="fill: #ffa600"/>
   </g>
   <g id="patch_39">
    <path d="M 130.374768 41.897259 
Q 128.729427 41.655962 126.950277 41.533911 
Q 125.171128 41.410457 123.233392 41.410457 
Q 117.454874 41.410457 114.079941 42.32514 
Q 110.705009 43.239824 110.705009 44.804045 
Q 110.705009 46.373877 114.079941 47.287158 
Q 117.454874 48.201842 123.233392 48.201842 
Q 125.171128 48.201842 126.950277 48.078387 
Q 128.729427 47.956336 130.374768 47.715039 
L 130.374768 46.361251 
Q 128.714559 46.68111 127.103909 46.829816 
Q 125.493258 46.978523 123.714109 46.978523 
Q 120.522543 46.978523 118.693835 46.399129 
Q 116.870084 45.821139 116.870084 44.804045 
Q 116.870084 43.791159 118.693835 43.211766 
Q 120.522543 42.633776 123.714109 42.633776 
Q 125.493258 42.633776 127.103909 42.782482 
Q 128.714559 42.932591 130.374768 43.25245 
L 130.374768 41.897259 
z
" clip-path="url(#pdf561ff52a)" style="fill: #0000ff"/>
   </g>
   <g id="patch_40">
    <path d="M 130.374768 39.473275 
Q 128.391041 39.376922 126.257432 39.328526 
Q 124.123823 39.280569 121.849149 39.280569 
Q 116.709091 39.280569 113.70705 39.567429 
Q 110.705009 39.854288 110.705009 40.344853 
Q 110.705009 40.841138 113.759949 41.125797 
Q 116.819298 41.410457 122.140095 41.410457 
Q 124.189947 41.410457 126.067876 41.37174 
Q 127.950212 41.333462 129.616543 41.257788 
L 129.616543 40.833218 
Q 127.897313 40.930451 126.195716 40.978408 
Q 124.494119 41.026804 122.783705 41.026804 
Q 119.618558 41.026804 117.903735 40.849937 
Q 116.188913 40.67351 116.188913 40.344853 
Q 116.188913 40.019276 117.842019 39.841529 
Q 119.495126 39.664222 122.536841 39.664222 
Q 123.365598 39.664222 124.075332 39.674341 
Q 124.785065 39.6849 125.349325 39.706899 
L 125.349325 40.10551 
L 122.109237 40.10551 
L 122.109237 40.460565 
L 130.374768 40.460565 
L 130.374768 39.473275 
z
" clip-path="url(#pdf561ff52a)" style="fill: #ffa600"/>
   </g>
   <g id="patch_41">
    <path d="M 151.079777 40.576331 
Q 149.434436 40.528727 147.655287 40.504648 
Q 145.876137 40.480293 143.938401 40.480293 
Q 138.159883 40.480293 134.784951 40.660744 
Q 131.410019 40.841196 131.410019 41.149791 
Q 131.410019 41.459493 134.784951 41.639668 
Q 138.159883 41.820119 143.938401 41.820119 
Q 145.876137 41.820119 147.655287 41.795764 
Q 149.434436 41.771685 151.079777 41.724081 
L 151.079777 41.457002 
Q 149.419568 41.520104 147.808918 41.549442 
Q 146.198268 41.578779 144.419118 41.578779 
Q 141.227552 41.578779 139.398845 41.464474 
Q 137.575093 41.350447 137.575093 41.149791 
Q 137.575093 40.949965 139.398845 40.835661 
Q 141.227552 40.721633 144.419118 40.721633 
Q 146.198268 40.721633 147.808918 40.75097 
Q 149.419568 40.780584 151.079777 40.843687 
L 151.079777 40.576331 
z
" clip-path="url(#pdf561ff52a)" style="fill: #0000ff"/>
   </g>
   <g id="patch_42">
    <path d="M 151.079777 42.618511 
Q 149.09605 42.219315 146.962441 42.018806 
Q 144.828832 41.820119 142.554158 41.820119 
Q 137.4141 41.820119 134.412059 43.008592 
Q 131.410019 44.197065 131.410019 46.2295 
Q 131.410019 48.285631 134.464959 49.46499 
Q 137.524307 50.644349 142.845105 50.644349 
Q 144.894956 50.644349 146.772885 50.483942 
Q 148.655222 50.325357 150.321553 50.011834 
L 150.321553 48.252821 
Q 148.602322 48.655662 146.900725 48.854349 
Q 145.199128 49.054858 143.488714 49.054858 
Q 140.323567 49.054858 138.608745 48.322088 
Q 136.893923 47.59114 136.893923 46.2295 
Q 136.893923 44.88062 138.547029 44.144204 
Q 140.200135 43.409611 143.24185 43.409611 
Q 144.070607 43.409611 144.780341 43.451536 
Q 145.490075 43.495283 146.054335 43.586424 
L 146.054335 45.237891 
L 142.814247 45.237891 
L 142.814247 46.7089 
L 151.079777 46.7089 
L 151.079777 42.618511 
z
" clip-path="url(#pdf561ff52a)" style="fill: #ffa600"/>
   </g>
   <g id="patch_43">
    <path d="M 131.410019 40.480293 
L 151.079777 40.480293 
L 151.079777 40.246313 
L 144.003239 40.246313 
L 144.003239 39.280569 
L 138.50028 39.280569 
L 138.50028 40.246313 
L 131.410019 40.246313 
L 131.410019 40.480293 
z
" clip-path="url(#pdf561ff52a)" style="fill: #ff0000"/>
   </g>
   <g id="patch_44">
    <path d="M 171.784787 39.323958 
Q 170.139445 39.302451 168.360296 39.291573 
Q 166.581147 39.280569 164.64341 39.280569 
Q 158.864892 39.280569 155.48996 39.362094 
Q 152.115028 39.44362 152.115028 39.583038 
Q 152.115028 39.722957 155.48996 39.804357 
Q 158.864892 39.885882 164.64341 39.885882 
Q 166.581147 39.885882 168.360296 39.874879 
Q 170.139445 39.864 171.784787 39.842494 
L 171.784787 39.721831 
Q 170.124578 39.75034 168.513927 39.763594 
Q 166.903277 39.776848 165.124128 39.776848 
Q 161.932562 39.776848 160.103854 39.725207 
Q 158.280102 39.673691 158.280102 39.583038 
Q 158.280102 39.49276 160.103854 39.441119 
Q 161.932562 39.389603 165.124128 39.389603 
Q 166.903277 39.389603 168.513927 39.402857 
Q 170.124578 39.416236 171.784787 39.444745 
L 171.784787 39.323958 
z
" clip-path="url(#pdf561ff52a)" style="fill: #0000ff"/>
   </g>
   <g id="patch_45">
    <path d="M 171.784787 40.975806 
Q 169.801059 40.430844 167.66745 40.157119 
Q 165.533841 39.885882 163.259167 39.885882 
Q 158.119109 39.885882 155.117069 41.508325 
Q 152.115028 43.130768 152.115028 45.905344 
Q 152.115028 48.71227 155.169968 50.322271 
Q 158.229316 51.932272 163.550114 51.932272 
Q 165.599966 51.932272 167.477894 51.713292 
Q 169.360231 51.4968 171.026562 51.068794 
L 171.026562 48.667479 
Q 169.307332 49.217417 167.605734 49.488654 
Q 165.904137 49.762379 164.193723 49.762379 
Q 161.028576 49.762379 159.313754 48.762038 
Q 157.598932 47.764186 157.598932 45.905344 
Q 157.598932 44.063922 159.252038 43.058604 
Q 160.905144 42.055775 163.946859 42.055775 
Q 164.775617 42.055775 165.48535 42.113009 
Q 166.195084 42.17273 166.759344 42.297151 
L 166.759344 44.55165 
L 163.519256 44.55165 
L 163.519256 46.559796 
L 171.784787 46.559796 
L 171.784787 40.975806 
z
" clip-path="url(#pdf561ff52a)" style="fill: #ffa600"/>
   </g>
   <g id="patch_46">
    <path d="M 186.445296 57.719185 
L 178.880623 57.719185 
L 177.686201 39.319011 
L 172.820037 39.319011 
L 179.769402 140.325145 
L 185.540431 140.325145 
L 192.489796 39.319011 
L 187.627654 39.319011 
L 186.445296 57.719185 
z
M 180.08711 76.465716 
L 185.226745 76.465716 
L 182.660949 116.643038 
L 180.08711 76.465716 
z
" clip-path="url(#pdf561ff52a)" style="fill: #008000"/>
   </g>
   <g id="patch_47">
    <path d="M 192.489796 39.283325 
Q 190.844455 39.281959 189.065305 39.281268 
Q 187.286156 39.280569 185.34842 39.280569 
Q 179.569901 39.280569 176.194969 39.285747 
Q 172.820037 39.290924 172.820037 39.299778 
Q 172.820037 39.308664 176.194969 39.313834 
Q 179.569901 39.319011 185.34842 39.319011 
Q 187.286156 39.319011 189.065305 39.318312 
Q 190.844455 39.317621 192.489796 39.316255 
L 192.489796 39.308593 
Q 190.829587 39.310403 189.218937 39.311245 
Q 187.608286 39.312087 185.829137 39.312087 
Q 182.637571 39.312087 180.808863 39.308807 
Q 178.985111 39.305535 178.985111 39.299778 
Q 178.985111 39.294045 180.808863 39.290765 
Q 182.637571 39.287494 185.829137 39.287494 
Q 187.608286 39.287494 189.218937 39.288335 
Q 190.829587 39.289185 192.489796 39.290996 
L 192.489796 39.283325 
z
" clip-path="url(#pdf561ff52a)" style="fill: #0000ff"/>
   </g>
   <g id="patch_48">
    <path d="M 213.194805 48.987987 
Q 211.549464 44.444388 209.770315 42.146172 
Q 207.991165 39.82154 206.053429 39.82154 
Q 200.274911 39.82154 196.899979 57.04495 
Q 193.525046 74.268359 193.525046 103.722502 
Q 193.525046 133.28231 196.899979 150.479303 
Q 200.274911 167.702713 206.053429 167.702713 
Q 207.991165 167.702713 209.770315 165.378081 
Q 211.549464 163.079865 213.194805 158.536266 
L 213.194805 133.044564 
Q 211.534596 139.067474 209.923946 141.867599 
Q 208.313295 144.667724 206.534146 144.667724 
Q 203.34258 144.667724 201.513873 133.757803 
Q 199.690121 122.874299 199.690121 103.722502 
Q 199.690121 84.649954 201.513873 73.740033 
Q 203.34258 62.856529 206.534146 62.856529 
Q 208.313295 62.856529 209.923946 65.656654 
Q 211.534596 68.483195 213.194805 74.506105 
L 213.194805 48.987987 
z
" clip-path="url(#pdf561ff52a)" style="fill: #0000ff"/>
   </g>
   <g id="patch_49">
    <path d="M 193.525046 39.82154 
L 213.194805 39.82154 
L 213.194805 39.716036 
L 206.118266 39.716036 
L 206.118266 39.280569 
L 200.615308 39.280569 
L 200.615308 39.716036 
L 193.525046 39.716036 
L 193.525046 39.82154 
z
" clip-path="url(#pdf561ff52a)" style="fill: #ff0000"/>
   </g>
   <g id="patch_50">
    <path d="M 227.855315 39.40508 
L 220.290642 39.40508 
L 219.09622 39.280569 
L 214.230056 39.280569 
L 221.17942 39.964058 
L 226.95045 39.964058 
L 233.899814 39.280569 
L 229.037672 39.280569 
L 227.855315 39.40508 
z
M 221.497129 39.531934 
L 226.636763 39.531934 
L 224.070967 39.803806 
L 221.497129 39.531934 
z
" clip-path="url(#pdf561ff52a)" style="fill: #008000"/>
   </g>
   <g id="patch_51">
    <path d="M 233.899814 40.367834 
Q 232.254473 40.167691 230.475324 40.066457 
Q 228.696175 39.964058 226.758438 39.964058 
Q 220.97992 39.964058 217.604988 40.722737 
Q 214.230056 41.481416 214.230056 42.778851 
Q 214.230056 44.080939 217.604988 44.838455 
Q 220.97992 45.597134 226.758438 45.597134 
Q 228.696175 45.597134 230.475324 45.494735 
Q 232.254473 45.393501 233.899814 45.193358 
L 233.899814 44.070467 
Q 232.239606 44.335772 230.628955 44.459115 
Q 229.018305 44.582459 227.239155 44.582459 
Q 224.04759 44.582459 222.218882 44.101884 
Q 220.39513 43.622474 220.39513 42.778851 
Q 220.39513 41.938718 222.218882 41.458144 
Q 224.04759 40.978733 227.239155 40.978733 
Q 229.018305 40.978733 230.628955 41.102077 
Q 232.239606 41.226584 233.899814 41.491889 
L 233.899814 40.367834 
z
" clip-path="url(#pdf561ff52a)" style="fill: #0000ff"/>
   </g>
   <g id="patch_52">
    <path d="M 214.230056 151.716397 
L 233.899814 151.716397 
L 233.899814 131.020184 
L 226.823276 131.020184 
L 226.823276 45.597134 
L 221.320318 45.597134 
L 221.320318 131.020184 
L 214.230056 131.020184 
L 214.230056 151.716397 
z
" clip-path="url(#pdf561ff52a)" style="fill: #ff0000"/>
   </g>
   <g id="patch_53">
    <path d="M 248.560324 67.759706 
L 240.995651 67.759706 
L 239.801229 49.622147 
L 234.935065 49.622147 
L 241.88443 149.18668 
L 247.655459 149.18668 
L 254.604824 49.622147 
L 249.742681 49.622147 
L 248.560324 67.759706 
z
M 242.202138 86.238679 
L 247.341772 86.238679 
L 244.775977 125.842574 
L 242.202138 86.238679 
z
" clip-path="url(#pdf561ff52a)" style="fill: #008000"/>
   </g>
   <g id="patch_54">
    <path d="M 254.604824 39.752395 
Q 252.959482 39.686166 251.180333 39.652667 
Q 249.401184 39.618783 247.463447 39.618783 
Q 241.684929 39.618783 238.309997 39.869834 
Q 234.935065 40.120886 234.935065 40.550214 
Q 234.935065 40.981083 238.309997 41.231749 
Q 241.684929 41.4828 247.463447 41.4828 
Q 249.401184 41.4828 251.180333 41.448916 
Q 252.959482 41.415417 254.604824 41.349189 
L 254.604824 40.977617 
Q 252.944615 41.065408 251.333964 41.106223 
Q 249.723314 41.147038 247.944165 41.147038 
Q 244.752599 41.147038 242.923891 40.988014 
Q 241.100139 40.829374 241.100139 40.550214 
Q 241.100139 40.272209 242.923891 40.113185 
Q 244.752599 39.954545 247.944165 39.954545 
Q 249.723314 39.954545 251.333964 39.99536 
Q 252.944615 40.03656 254.604824 40.124351 
L 254.604824 39.752395 
z
" clip-path="url(#pdf561ff52a)" style="fill: #0000ff"/>
   </g>
   <g id="patch_55">
    <path d="M 254.604824 39.31117 
Q 252.621096 39.295869 250.487487 39.288184 
Q 248.353878 39.280569 246.079204 39.280569 
Q 240.939146 39.280569 237.937106 39.326121 
Q 234.935065 39.371672 234.935065 39.449571 
Q 234.935065 39.528378 237.990005 39.573581 
Q 241.049353 39.618783 246.370151 39.618783 
Q 248.420003 39.618783 250.297931 39.612635 
Q 252.180268 39.606557 253.846599 39.59454 
L 253.846599 39.527121 
Q 252.127369 39.542561 250.425771 39.550176 
Q 248.724174 39.557861 247.01376 39.557861 
Q 243.848613 39.557861 242.133791 39.529776 
Q 240.418969 39.50176 240.418969 39.449571 
Q 240.418969 39.397872 242.072075 39.369646 
Q 243.725181 39.341491 246.766897 39.341491 
Q 247.595654 39.341491 248.305387 39.343098 
Q 249.015121 39.344775 249.579381 39.348268 
L 249.579381 39.411565 
L 246.339293 39.411565 
L 246.339293 39.467946 
L 254.604824 39.467946 
L 254.604824 39.31117 
z
" clip-path="url(#pdf561ff52a)" style="fill: #ffa600"/>
   </g>
   <g id="patch_56">
    <path d="M 234.935065 49.622147 
L 254.604824 49.622147 
L 254.604824 48.034747 
L 247.528285 48.034747 
L 247.528285 41.4828 
L 242.025327 41.4828 
L 242.025327 48.034747 
L 234.935065 48.034747 
L 234.935065 49.622147 
z
" clip-path="url(#pdf561ff52a)" style="fill: #ff0000"/>
   </g>
   <g id="patch_57">
    <path d="M 275.309833 50.833578 
Q 273.664492 45.421494 271.885342 42.683987 
Q 270.106193 39.915013 268.168457 39.915013 
Q 262.389939 39.915013 259.015006 60.430587 
Q 255.640074 80.94616 255.640074 116.030308 
Q 255.640074 151.240319 259.015006 171.724427 
Q 262.389939 192.24 268.168457 192.24 
Q 270.106193 192.24 271.885342 189.471027 
Q 273.664492 186.733519 275.309833 181.321436 
L 275.309833 150.957128 
Q 273.649624 158.131286 272.038974 161.46664 
Q 270.428323 164.801994 268.649174 164.801994 
Q 265.457608 164.801994 263.6289 151.8067 
Q 261.805149 138.842871 261.805149 116.030308 
Q 261.805149 93.312143 263.6289 80.316848 
Q 265.457608 67.35302 268.649174 67.35302 
Q 270.428323 67.35302 272.038974 70.688374 
Q 273.649624 74.055193 275.309833 81.229351 
L 275.309833 50.833578 
z
" clip-path="url(#pdf561ff52a)" style="fill: #0000ff"/>
   </g>
   <g id="patch_58">
    <path d="M 255.640074 39.915013 
L 275.309833 39.915013 
L 275.309833 39.791279 
L 268.233294 39.791279 
L 268.233294 39.280569 
L 262.730336 39.280569 
L 262.730336 39.791279 
L 255.640074 39.791279 
L 255.640074 39.915013 
z
" clip-path="url(#pdf561ff52a)" style="fill: #ff0000"/>
   </g>
   <g id="patch_59">
    <path d="M 289.970343 69.849054 
L 282.40567 69.849054 
L 281.211247 57.023951 
L 276.345083 57.023951 
L 283.294448 127.426222 
L 289.065478 127.426222 
L 296.014842 57.023951 
L 291.1527 57.023951 
L 289.970343 69.849054 
z
M 283.612157 82.91557 
L 288.751791 82.91557 
L 286.185995 110.91956 
L 283.612157 82.91557 
z
" clip-path="url(#pdf561ff52a)" style="fill: #008000"/>
   </g>
   <g id="patch_60">
    <path d="M 296.014842 44.870708 
Q 294.369501 44.405564 292.590352 44.170287 
Q 290.811202 43.932307 288.873466 43.932307 
Q 283.094948 43.932307 279.720016 45.695527 
Q 276.345083 47.458748 276.345083 50.474072 
Q 276.345083 53.500213 279.720016 55.26073 
Q 283.094948 57.023951 288.873466 57.023951 
Q 290.811202 57.023951 292.590352 56.78597 
Q 294.369501 56.550694 296.014842 56.085549 
L 296.014842 53.475874 
Q 294.354633 54.092461 292.743983 54.379119 
Q 291.133332 54.665778 289.354183 54.665778 
Q 286.162617 54.665778 284.33391 53.548891 
Q 282.510158 52.434709 282.510158 50.474072 
Q 282.510158 48.521549 284.33391 47.404662 
Q 286.162617 46.290479 289.354183 46.290479 
Q 291.133332 46.290479 292.743983 46.577138 
Q 294.354633 46.866501 296.014842 47.483087 
L 296.014842 44.870708 
z
" clip-path="url(#pdf561ff52a)" style="fill: #0000ff"/>
   </g>
   <g id="patch_61">
    <path d="M 296.014842 39.87729 
Q 294.031115 39.675599 291.897506 39.574292 
Q 289.763897 39.473907 287.489223 39.473907 
Q 282.349165 39.473907 279.347124 40.074377 
Q 276.345083 40.674847 276.345083 41.701725 
Q 276.345083 42.740576 279.400024 43.336441 
Q 282.459372 43.932307 287.78017 43.932307 
Q 289.830021 43.932307 291.70795 43.851262 
Q 293.590287 43.771137 295.256618 43.612731 
L 295.256618 42.723998 
Q 293.537387 42.927532 291.83579 43.027917 
Q 290.134193 43.129224 288.423779 43.129224 
Q 285.258632 43.129224 283.54381 42.758995 
Q 281.828988 42.389687 281.828988 41.701725 
Q 281.828988 41.02021 283.482094 40.648139 
Q 285.1352 40.27699 288.176915 40.27699 
Q 289.005672 40.27699 289.715406 40.298172 
Q 290.425139 40.320275 290.9894 40.366324 
L 290.9894 41.200719 
L 287.749312 41.200719 
L 287.749312 41.94394 
L 296.014842 41.94394 
L 296.014842 39.87729 
z
" clip-path="url(#pdf561ff52a)" style="fill: #ffa600"/>
   </g>
   <g id="patch_62">
    <path d="M 276.345083 39.473907 
L 296.014842 39.473907 
L 296.014842 39.436201 
L 288.938303 39.436201 
L 288.938303 39.280569 
L 283.435345 39.280569 
L 283.435345 39.436201 
L 276.345083 39.436201 
L 276.345083 39.473907 
z
" clip-path="url(#pdf561ff52a)" style="fill: #ff0000"/>
   </g>
   <g id="patch_63">
    <path d="M 310.675352 52.189881 
L 303.110679 52.189881 
L 301.916257 47.293552 
L 297.050093 47.293552 
L 303.999458 74.171517 
L 309.770487 74.171517 
L 316.719852 47.293552 
L 311.857709 47.293552 
L 310.675352 52.189881 
z
M 304.317166 57.178376 
L 309.4568 57.178376 
L 306.891005 67.869654 
L 304.317166 57.178376 
z
" clip-path="url(#pdf561ff52a)" style="fill: #008000"/>
   </g>
   <g id="patch_64">
    <path d="M 316.719852 42.690717 
Q 315.07451 42.514552 313.295361 42.425445 
Q 311.516212 42.335314 309.578475 42.335314 
Q 303.799957 42.335314 300.425025 43.003104 
Q 297.050093 43.670894 297.050093 44.812897 
Q 297.050093 45.958996 300.425025 46.625762 
Q 303.799957 47.293552 309.578475 47.293552 
Q 311.516212 47.293552 313.295361 47.203421 
Q 315.07451 47.114314 316.719852 46.938149 
L 316.719852 45.949778 
Q 315.059643 46.1833 313.448992 46.291867 
Q 311.838342 46.400434 310.059193 46.400434 
Q 306.867627 46.400434 305.038919 45.977432 
Q 303.215167 45.555455 303.215167 44.812897 
Q 303.215167 44.073411 305.038919 43.650409 
Q 306.867627 43.228432 310.059193 43.228432 
Q 311.838342 43.228432 313.448992 43.336999 
Q 315.059643 43.44659 316.719852 43.680112 
L 316.719852 42.690717 
z
" clip-path="url(#pdf561ff52a)" style="fill: #0000ff"/>
   </g>
   <g id="patch_65">
    <path d="M 316.719852 39.556954 
Q 314.736124 39.418761 312.602515 39.34935 
Q 310.468906 39.280569 308.194232 39.280569 
Q 303.054174 39.280569 300.052133 39.691991 
Q 297.050093 40.103413 297.050093 40.806995 
Q 297.050093 41.51878 300.105033 41.927047 
Q 303.164381 42.335314 308.485179 42.335314 
Q 310.535031 42.335314 312.412959 42.279785 
Q 314.295296 42.224886 315.961627 42.116352 
L 315.961627 41.507422 
Q 314.242397 41.646876 312.540799 41.715657 
Q 310.839202 41.785069 309.128788 41.785069 
Q 305.963641 41.785069 304.248819 41.5314 
Q 302.533997 41.278363 302.533997 40.806995 
Q 302.533997 40.340044 304.187103 40.085114 
Q 305.840209 39.830814 308.881924 39.830814 
Q 309.710682 39.830814 310.420415 39.845328 
Q 311.130149 39.860472 311.694409 39.892023 
L 311.694409 40.463723 
L 308.454321 40.463723 
L 308.454321 40.972952 
L 316.719852 40.972952 
L 316.719852 39.556954 
z
" clip-path="url(#pdf561ff52a)" style="fill: #ffa600"/>
   </g>
   <g id="patch_66">
    <path d="M 337.424861 52.357619 
Q 335.779519 51.468576 334.00037 51.018886 
Q 332.221221 50.564027 330.283485 50.564027 
Q 324.504966 50.564027 321.130034 53.93412 
Q 317.755102 57.304212 317.755102 63.067484 
Q 317.755102 68.851432 321.130034 72.216355 
Q 324.504966 75.586448 330.283485 75.586448 
Q 332.221221 75.586448 334.00037 75.131589 
Q 335.779519 74.681898 337.424861 73.792856 
L 337.424861 68.804912 
Q 335.764652 69.98341 334.154001 70.531309 
Q 332.543351 71.079207 330.764202 71.079207 
Q 327.572636 71.079207 325.743928 68.944471 
Q 323.920176 66.814903 323.920176 63.067484 
Q 323.920176 59.335572 325.743928 57.200835 
Q 327.572636 55.071268 330.764202 55.071268 
Q 332.543351 55.071268 334.154001 55.619166 
Q 335.764652 56.172233 337.424861 57.350732 
L 337.424861 52.357619 
z
" clip-path="url(#pdf561ff52a)" style="fill: #0000ff"/>
   </g>
   <g id="patch_67">
    <path d="M 317.755102 50.564027 
L 337.424861 50.564027 
L 337.424861 48.363438 
L 330.348322 48.363438 
L 330.348322 39.280569 
L 324.845364 39.280569 
L 324.845364 48.363438 
L 317.755102 48.363438 
L 317.755102 50.564027 
z
" clip-path="url(#pdf561ff52a)" style="fill: #ff0000"/>
   </g>
   <g id="patch_68">
    <path d="M 358.12987 39.753197 
Q 356.484529 39.62953 354.705379 39.566977 
Q 352.92623 39.503705 350.988494 39.503705 
Q 345.209976 39.503705 341.835043 39.972492 
Q 338.460111 40.441279 338.460111 41.242962 
Q 338.460111 42.047522 341.835043 42.51559 
Q 345.209976 42.984377 350.988494 42.984377 
Q 352.92623 42.984377 354.705379 42.921105 
Q 356.484529 42.858552 358.12987 42.734884 
L 358.12987 42.041051 
Q 356.469661 42.204982 354.859011 42.281196 
Q 353.24836 42.35741 351.469211 42.35741 
Q 348.277645 42.35741 346.448938 42.060464 
Q 344.625186 41.764236 344.625186 41.242962 
Q 344.625186 40.723845 346.448938 40.426899 
Q 348.277645 40.130672 351.469211 40.130672 
Q 353.24836 40.130672 354.859011 40.206885 
Q 356.469661 40.283818 358.12987 40.44775 
L 358.12987 39.753197 
z
" clip-path="url(#pdf561ff52a)" style="fill: #0000ff"/>
   </g>
   <g id="patch_69">
    <path d="M 358.12987 39.300758 
Q 356.146143 39.290663 354.012534 39.285593 
Q 351.878925 39.280569 349.604251 39.280569 
Q 344.464193 39.280569 341.462152 39.310622 
Q 338.460111 39.340674 338.460111 39.392068 
Q 338.460111 39.444061 341.515051 39.473883 
Q 344.5744 39.503705 349.895197 39.503705 
Q 351.945049 39.503705 353.822978 39.499649 
Q 355.705314 39.495639 357.371645 39.487711 
L 357.371645 39.443231 
Q 355.652415 39.453418 353.950818 39.458442 
Q 352.249221 39.463512 350.538807 39.463512 
Q 347.37366 39.463512 345.658837 39.444983 
Q 343.944015 39.426499 343.944015 39.392068 
Q 343.944015 39.357959 345.597122 39.339338 
Q 347.250228 39.320762 350.291943 39.320762 
Q 351.1207 39.320762 351.830434 39.321822 
Q 352.540167 39.322929 353.104427 39.325233 
L 353.104427 39.366993 
L 349.864339 39.366993 
L 349.864339 39.40419 
L 358.12987 39.40419 
L 358.12987 39.300758 
z
" clip-path="url(#pdf561ff52a)" style="fill: #ffa600"/>
   </g>
   <g id="patch_70">
    <path d="M 338.460111 110.584242 
L 358.12987 110.584242 
L 358.12987 97.400385 
L 351.053331 97.400385 
L 351.053331 42.984377 
L 345.550373 42.984377 
L 345.550373 97.400385 
L 338.460111 97.400385 
L 338.460111 110.584242 
z
" clip-path="url(#pdf561ff52a)" style="fill: #ff0000"/>
   </g>
   <g id="patch_71">
    <path d="M 378.834879 49.631188 
Q 377.189538 44.500622 375.410389 41.90551 
Q 373.63124 39.280569 371.693503 39.280569 
Q 365.914985 39.280569 362.540053 58.728994 
Q 359.165121 78.177418 359.165121 111.436611 
Q 359.165121 144.815118 362.540053 164.233714 
Q 365.914985 183.682139 371.693503 183.682139 
Q 373.63124 183.682139 375.410389 181.057198 
Q 377.189538 178.462086 378.834879 173.33152 
L 378.834879 144.546658 
Q 377.17467 151.347641 375.56402 154.509502 
Q 373.95337 157.671362 372.17422 157.671362 
Q 368.982655 157.671362 367.153947 145.352038 
Q 365.330195 133.062543 365.330195 111.436611 
Q 365.330195 89.900165 367.153947 77.580841 
Q 368.982655 65.291346 372.17422 65.291346 
Q 373.95337 65.291346 375.56402 68.453206 
Q 377.17467 71.644895 378.834879 78.445878 
L 378.834879 49.631188 
z
" clip-path="url(#pdf561ff52a)" style="fill: #0000ff"/>
   </g>
   <g id="patch_72">
    <path d="M 393.495389 39.362315 
L 385.930716 39.362315 
L 384.736294 39.280569 
L 379.87013 39.280569 
L 386.819495 39.729307 
L 392.590524 39.729307 
L 399.539889 39.280569 
L 394.677746 39.280569 
L 393.495389 39.362315 
z
M 387.137203 39.4456 
L 392.276837 39.4456 
L 389.711042 39.624095 
L 387.137203 39.4456 
z
" clip-path="url(#pdf561ff52a)" style="fill: #008000"/>
   </g>
   <g id="patch_73">
    <path d="M 399.539889 48.159021 
Q 397.894547 44.327419 396.115398 42.389341 
Q 394.336249 40.428986 392.398512 40.428986 
Q 386.619994 40.428986 383.245062 54.953433 
Q 379.87013 69.477879 379.87013 94.316464 
Q 379.87013 119.244156 383.245062 133.746325 
Q 386.619994 148.270771 392.398512 148.270771 
Q 394.336249 148.270771 396.115398 146.310417 
Q 397.894547 144.372339 399.539889 140.540736 
L 399.539889 119.043665 
Q 397.87968 124.122766 396.269029 126.484102 
Q 394.658379 128.845439 392.87923 128.845439 
Q 389.687664 128.845439 387.858956 119.645137 
Q 386.035204 110.467113 386.035204 94.316464 
Q 386.035204 78.232645 387.858956 69.032344 
Q 389.687664 59.854319 392.87923 59.854319 
Q 394.658379 59.854319 396.269029 62.215656 
Q 397.87968 64.599269 399.539889 69.678369 
L 399.539889 48.159021 
z
" clip-path="url(#pdf561ff52a)" style="fill: #0000ff"/>
   </g>
   <g id="patch_74">
    <path d="M 379.87013 40.428986 
L 399.539889 40.428986 
L 399.539889 40.292529 
L 392.46335 40.292529 
L 392.46335 39.729307 
L 386.960392 39.729307 
L 386.960392 40.292529 
L 379.87013 40.292529 
L 379.87013 40.428986 
z
" clip-path="url(#pdf561ff52a)" style="fill: #ff0000"/>
   </g>
   <g id="patch_75">
    <path d="M 414.200398 39.317608 
L 406.635725 39.317608 
L 405.441303 39.280569 
L 400.575139 39.280569 
L 407.524504 39.48389 
L 413.295533 39.48389 
L 420.244898 39.280569 
L 415.382756 39.280569 
L 414.200398 39.317608 
z
M 407.842212 39.355344 
L 412.981847 39.355344 
L 410.416051 39.436219 
L 407.842212 39.355344 
z
" clip-path="url(#pdf561ff52a)" style="fill: #008000"/>
   </g>
   <g id="patch_76">
    <path d="M 420.244898 49.881978 
Q 418.599557 44.727882 416.820407 42.120869 
Q 415.041258 39.48389 413.103522 39.48389 
Q 407.325003 39.48389 403.950071 59.021507 
Q 400.575139 78.559124 400.575139 111.970846 
Q 400.575139 145.502431 403.950071 165.010082 
Q 407.325003 184.547699 413.103522 184.547699 
Q 415.041258 184.547699 416.820407 181.91072 
Q 418.599557 179.303707 420.244898 174.149612 
L 420.244898 145.23274 
Q 418.584689 152.064913 416.974039 155.241274 
Q 415.363388 158.417635 413.584239 158.417635 
Q 410.392673 158.417635 408.563965 146.041813 
Q 406.740213 133.695957 406.740213 111.970846 
Q 406.740213 90.335632 408.563965 77.959811 
Q 410.392673 65.613954 413.584239 65.613954 
Q 415.363388 65.613954 416.974039 68.790316 
Q 418.584689 71.996642 420.244898 78.828815 
L 420.244898 49.881978 
z
" clip-path="url(#pdf561ff52a)" style="fill: #0000ff"/>
   </g>
   <g id="patch_77">
    <path d="M 434.905408 61.487398 
L 427.340735 61.487398 
L 426.146312 53.810453 
L 421.280148 53.810453 
L 428.229513 95.952364 
L 434.000542 95.952364 
L 440.949907 53.810453 
L 436.087765 53.810453 
L 434.905408 61.487398 
z
M 428.547221 69.30885 
L 433.686856 69.30885 
L 431.12106 86.071685 
L 428.547221 69.30885 
z
" clip-path="url(#pdf561ff52a)" style="fill: #008000"/>
   </g>
   <g id="patch_78">
    <path d="M 440.949907 39.56223 
Q 439.304566 39.422617 437.525417 39.351999 
Q 435.746267 39.280569 433.808531 39.280569 
Q 428.030013 39.280569 424.655081 39.809799 
Q 421.280148 40.33903 421.280148 41.244079 
Q 421.280148 42.152374 424.655081 42.680793 
Q 428.030013 43.210023 433.808531 43.210023 
Q 435.746267 43.210023 437.525417 43.138593 
Q 439.304566 43.067975 440.949907 42.928362 
L 440.949907 42.145069 
Q 439.289698 42.330137 437.679048 42.416178 
Q 436.068397 42.502218 434.289248 42.502218 
Q 431.097682 42.502218 429.268975 42.166985 
Q 427.445223 41.832563 427.445223 41.244079 
Q 427.445223 40.658029 429.268975 40.322796 
Q 431.097682 39.988374 434.289248 39.988374 
Q 436.068397 39.988374 437.679048 40.074415 
Q 439.289698 40.161267 440.949907 40.346335 
L 440.949907 39.56223 
z
" clip-path="url(#pdf561ff52a)" style="fill: #0000ff"/>
   </g>
   <g id="patch_79">
    <path d="M 440.949907 44.16912 
Q 438.96618 43.689572 436.832571 43.448703 
Q 434.698962 43.210023 432.424288 43.210023 
Q 427.28423 43.210023 424.282189 44.63772 
Q 421.280148 46.065417 421.280148 48.506954 
Q 421.280148 50.976957 424.335089 52.393705 
Q 427.394437 53.810453 432.715235 53.810453 
Q 434.765086 53.810453 436.643015 53.617758 
Q 438.525352 53.427252 440.191683 53.050621 
L 440.191683 50.937542 
Q 438.472452 51.42147 436.770855 51.660149 
Q 435.069258 51.901018 433.358844 51.901018 
Q 430.193697 51.901018 428.478875 51.020751 
Q 426.764052 50.142674 426.764052 48.506954 
Q 426.764052 46.886562 428.417159 46.001915 
Q 430.070265 45.119458 433.11198 45.119458 
Q 433.940737 45.119458 434.650471 45.169822 
Q 435.360204 45.222375 435.924465 45.331861 
L 435.924465 47.315747 
L 432.684377 47.315747 
L 432.684377 49.08285 
L 440.949907 49.08285 
L 440.949907 44.16912 
z
" clip-path="url(#pdf561ff52a)" style="fill: #ffa600"/>
   </g>
   <g id="patch_80">
    <path d="M 461.654917 39.635645 
Q 460.009575 39.521923 458.230426 39.464401 
Q 456.451277 39.406217 454.51354 39.406217 
Q 448.735022 39.406217 445.36009 39.837303 
Q 441.985158 40.268389 441.985158 41.005599 
Q 441.985158 41.745454 445.36009 42.175879 
Q 448.735022 42.606965 454.51354 42.606965 
Q 456.451277 42.606965 458.230426 42.548782 
Q 460.009575 42.491259 461.654917 42.377537 
L 461.654917 41.739504 
Q 459.994708 41.890251 458.384057 41.960336 
Q 456.773407 42.030421 454.994257 42.030421 
Q 451.802692 42.030421 449.973984 41.757355 
Q 448.150232 41.484951 448.150232 41.005599 
Q 448.150232 40.528231 449.973984 40.255166 
Q 451.802692 39.982762 454.994257 39.982762 
Q 456.773407 39.982762 458.384057 40.052846 
Q 459.994708 40.123592 461.654917 40.27434 
L 461.654917 39.635645 
z
" clip-path="url(#pdf561ff52a)" style="fill: #0000ff"/>
   </g>
   <g id="patch_81">
    <path d="M 461.654917 46.410114 
Q 459.671189 44.50854 457.53758 43.553411 
Q 455.403971 42.606965 453.129297 42.606965 
Q 447.989239 42.606965 444.987198 48.268274 
Q 441.985158 53.929582 441.985158 63.611115 
Q 441.985158 73.405526 445.040098 79.02342 
Q 448.099446 84.641314 453.420244 84.641314 
Q 455.470095 84.641314 457.348024 83.877211 
Q 459.230361 83.121791 460.896692 81.628316 
L 460.896692 73.249232 
Q 459.177461 75.168173 457.475864 76.114619 
Q 455.774267 77.069747 454.063853 77.069747 
Q 450.898706 77.069747 449.183884 73.579186 
Q 447.469062 70.097307 447.469062 63.611115 
Q 447.469062 57.185703 449.122168 53.677776 
Q 450.775274 50.178531 453.816989 50.178531 
Q 454.645747 50.178531 455.35548 50.37824 
Q 456.065214 50.586632 456.629474 51.020781 
L 456.629474 58.887569 
L 453.389386 58.887569 
L 453.389386 65.894741 
L 461.654917 65.894741 
L 461.654917 46.410114 
z
" clip-path="url(#pdf561ff52a)" style="fill: #ffa600"/>
   </g>
   <g id="patch_82">
    <path d="M 441.985158 39.406217 
L 461.654917 39.406217 
L 461.654917 39.381712 
L 454.578378 39.381712 
L 454.578378 39.280569 
L 449.07542 39.280569 
L 449.07542 39.381712 
L 441.985158 39.381712 
L 441.985158 39.406217 
z
" clip-path="url(#pdf561ff52a)" style="fill: #ff0000"/>
   </g>
   <g id="patch_83">
    <path d="M 476.315426 40.526885 
L 468.750753 40.526885 
L 467.556331 39.280569 
L 462.690167 39.280569 
L 469.639532 46.122107 
L 475.410561 46.122107 
L 482.359926 39.280569 
L 477.497783 39.280569 
L 476.315426 40.526885 
z
M 469.95724 41.79666 
L 475.096874 41.79666 
L 472.531079 44.518026 
L 469.95724 41.79666 
z
" clip-path="url(#pdf561ff52a)" style="fill: #008000"/>
   </g>
   <g id="patch_84">
    <path d="M 482.359926 47.199011 
Q 480.714584 46.665215 478.935435 46.395213 
Q 477.156286 46.122107 475.21855 46.122107 
Q 469.440031 46.122107 466.065099 48.14557 
Q 462.690167 50.169032 462.690167 53.629401 
Q 462.690167 57.102183 466.065099 59.122542 
Q 469.440031 61.146004 475.21855 61.146004 
Q 477.156286 61.146004 478.935435 60.872899 
Q 480.714584 60.602897 482.359926 60.0691 
L 482.359926 57.074252 
Q 480.699717 57.781843 479.089066 58.110811 
Q 477.478416 58.439779 475.699267 58.439779 
Q 472.507701 58.439779 470.678993 57.158046 
Q 468.855241 55.879416 468.855241 53.629401 
Q 468.855241 51.388696 470.678993 50.106963 
Q 472.507701 48.828333 475.699267 48.828333 
Q 477.478416 48.828333 479.089066 49.157301 
Q 480.699717 49.489372 482.359926 50.196963 
L 482.359926 47.199011 
z
" clip-path="url(#pdf561ff52a)" style="fill: #0000ff"/>
   </g>
   <g id="patch_85">
    <path d="M 497.020435 55.729436 
L 489.455762 55.729436 
L 488.26134 49.595561 
L 483.395176 49.595561 
L 490.344541 83.266929 
L 496.11557 83.266929 
L 503.064935 49.595561 
L 498.202793 49.595561 
L 497.020435 55.729436 
z
M 490.662249 61.978773 
L 495.801884 61.978773 
L 493.236088 75.37227 
L 490.662249 61.978773 
z
" clip-path="url(#pdf561ff52a)" style="fill: #008000"/>
   </g>
   <g id="patch_86">
    <path d="M 503.064935 39.647804 
Q 501.419594 39.465774 499.640444 39.373701 
Q 497.861295 39.280569 495.923559 39.280569 
Q 490.145041 39.280569 486.770108 39.970589 
Q 483.395176 40.66061 483.395176 41.840629 
Q 483.395176 43.024882 486.770108 43.713843 
Q 490.145041 44.403864 495.923559 44.403864 
Q 497.861295 44.403864 499.640444 44.310732 
Q 501.419594 44.218659 503.064935 44.036629 
L 503.064935 43.015357 
Q 501.404726 43.256652 499.794076 43.368833 
Q 498.183425 43.481015 496.404276 43.481015 
Q 493.21271 43.481015 491.384002 43.043931 
Q 489.560251 42.607906 489.560251 41.840629 
Q 489.560251 41.076527 491.384002 40.639443 
Q 493.21271 40.203418 496.404276 40.203418 
Q 498.183425 40.203418 499.794076 40.3156 
Q 501.404726 40.428839 503.064935 40.670134 
L 503.064935 39.647804 
z
" clip-path="url(#pdf561ff52a)" style="fill: #0000ff"/>
   </g>
   <g id="patch_87">
    <path d="M 503.064935 44.873594 
Q 501.081208 44.638729 498.947599 44.52076 
Q 496.81399 44.403864 494.539316 44.403864 
Q 489.399258 44.403864 486.397217 45.103097 
Q 483.395176 45.80233 483.395176 46.998104 
Q 483.395176 48.207819 486.450116 48.90169 
Q 489.509465 49.595561 494.830262 49.595561 
Q 496.880114 49.595561 498.758043 49.501186 
Q 500.640379 49.407883 502.30671 49.223423 
L 502.30671 48.188515 
Q 500.58748 48.425525 498.885883 48.542422 
Q 497.184286 48.66039 495.473872 48.66039 
Q 492.308725 48.66039 490.593902 48.229268 
Q 488.87908 47.799218 488.87908 46.998104 
Q 488.87908 46.204496 490.532186 45.771229 
Q 492.185293 45.339034 495.227008 45.339034 
Q 496.055765 45.339034 496.765499 45.3637 
Q 497.475232 45.389439 498.039492 45.443061 
L 498.039492 46.414694 
L 494.799404 46.414694 
L 494.799404 47.280156 
L 503.064935 47.280156 
L 503.064935 44.873594 
z
" clip-path="url(#pdf561ff52a)" style="fill: #ffa600"/>
   </g>
   <g id="patch_88">
    <path d="M 523.769944 39.479758 
Q 522.124603 39.381025 520.345454 39.331084 
Q 518.566304 39.280569 516.628568 39.280569 
Q 510.85005 39.280569 507.475118 39.654838 
Q 504.100186 40.029107 504.100186 40.669153 
Q 504.100186 41.311495 507.475118 41.68519 
Q 510.85005 42.05946 516.628568 42.05946 
Q 518.566304 42.05946 520.345454 42.008945 
Q 522.124603 41.959004 523.769944 41.86027 
L 523.769944 41.306329 
Q 522.109735 41.437209 520.499085 41.498056 
Q 518.888435 41.558903 517.109285 41.558903 
Q 513.917719 41.558903 512.089012 41.321828 
Q 510.26526 41.085327 510.26526 40.669153 
Q 510.26526 40.254702 512.089012 40.017627 
Q 513.917719 39.781125 517.109285 39.781125 
Q 518.888435 39.781125 520.499085 39.841973 
Q 522.109735 39.903394 523.769944 40.034274 
L 523.769944 39.479758 
z
" clip-path="url(#pdf561ff52a)" style="fill: #0000ff"/>
   </g>
   <g id="patch_89">
    <path d="M 523.769944 48.756178 
Q 521.786217 47.869373 519.652608 47.423947 
Q 517.518999 46.982569 515.244325 46.982569 
Q 510.104267 46.982569 507.102226 49.622735 
Q 504.100186 52.262901 504.100186 56.777908 
Q 504.100186 61.345556 507.155126 63.965475 
Q 510.214474 66.585394 515.535272 66.585394 
Q 517.585123 66.585394 519.463052 66.229052 
Q 521.345389 65.87676 523.01172 65.180275 
L 523.01172 61.272668 
Q 521.292489 62.167571 519.590892 62.608948 
Q 517.889295 63.054375 516.178881 63.054375 
Q 513.013734 63.054375 511.298912 61.426543 
Q 509.58409 59.80276 509.58409 56.777908 
Q 509.58409 53.781401 511.237196 52.14547 
Q 512.890302 50.513588 515.932017 50.513588 
Q 516.760774 50.513588 517.470508 50.606723 
Q 518.180241 50.703907 518.744502 50.906374 
L 518.744502 54.57507 
L 515.504414 54.57507 
L 515.504414 57.842882 
L 523.769944 57.842882 
L 523.769944 48.756178 
z
" clip-path="url(#pdf561ff52a)" style="fill: #ffa600"/>
   </g>
   <g id="patch_90">
    <path d="M 504.100186 46.982569 
L 523.769944 46.982569 
L 523.769944 46.022426 
L 516.693406 46.022426 
L 516.693406 42.05946 
L 511.190447 42.05946 
L 511.190447 46.022426 
L 504.100186 46.022426 
L 504.100186 46.982569 
z
" clip-path="url(#pdf561ff52a)" style="fill: #ff0000"/>
   </g>
   <g id="patch_91">
    <path d="M 544.474954 42.078663 
Q 542.829612 41.917072 541.050463 41.835337 
Q 539.271314 41.752663 537.333577 41.752663 
Q 531.555059 41.752663 528.180127 42.365205 
Q 524.805195 42.977747 524.805195 44.025269 
Q 524.805195 45.076549 528.180127 45.688152 
Q 531.555059 46.300694 537.333577 46.300694 
Q 539.271314 46.300694 541.050463 46.218019 
Q 542.829612 46.136284 544.474954 45.974693 
L 544.474954 45.068094 
Q 542.814745 45.282295 541.204094 45.381881 
Q 539.593444 45.481466 537.814295 45.481466 
Q 534.622729 45.481466 532.794021 45.09346 
Q 530.970269 44.706393 530.970269 44.025269 
Q 530.970269 43.346963 532.794021 42.958957 
Q 534.622729 42.571891 537.814295 42.571891 
Q 539.593444 42.571891 541.204094 42.671476 
Q 542.814745 42.772 544.474954 42.986202 
L 544.474954 42.078663 
z
" clip-path="url(#pdf561ff52a)" style="fill: #0000ff"/>
   </g>
   <g id="patch_92">
    <path d="M 544.474954 49.419444 
Q 542.491226 47.860069 540.357617 47.076821 
Q 538.224008 46.300694 535.949334 46.300694 
Q 530.809276 46.300694 527.807236 50.943217 
Q 524.805195 55.585741 524.805195 63.525025 
Q 524.805195 71.556876 527.860135 76.163797 
Q 530.919483 80.770718 536.240281 80.770718 
Q 538.290133 80.770718 540.168061 80.14412 
Q 542.050398 79.524642 543.716729 78.299927 
L 543.716729 71.428708 
Q 541.997499 73.002324 540.295901 73.778451 
Q 538.594304 74.561699 536.88389 74.561699 
Q 533.718743 74.561699 532.003921 71.699284 
Q 530.289099 68.84399 530.289099 63.525025 
Q 530.289099 58.255904 531.942205 55.379248 
Q 533.595311 52.509713 536.637026 52.509713 
Q 537.465784 52.509713 538.175517 52.673483 
Q 538.885251 52.844373 539.449511 53.200395 
L 539.449511 59.651509 
L 536.209423 59.651509 
L 536.209423 65.3977 
L 544.474954 65.3977 
L 544.474954 49.419444 
z
" clip-path="url(#pdf561ff52a)" style="fill: #ffa600"/>
   </g>
   <g id="patch_93">
    <path d="M 524.805195 41.752663 
L 544.474954 41.752663 
L 544.474954 41.270535 
L 537.398415 41.270535 
L 537.398415 39.280569 
L 531.895457 39.280569 
L 531.895457 41.270535 
L 524.805195 41.270535 
L 524.805195 41.752663 
z
" clip-path="url(#pdf561ff52a)" style="fill: #ff0000"/>
   </g>
   <g id="patch_94">
    <path d="M 565.179963 45.981604 
Q 563.534622 43.919162 561.755472 42.87595 
Q 559.976323 41.820747 558.038587 41.820747 
Q 552.260068 41.820747 548.885136 49.638842 
Q 545.510204 57.456936 545.510204 70.826836 
Q 545.510204 84.244701 548.885136 92.050804 
Q 552.260068 99.868898 558.038587 99.868898 
Q 559.976323 99.868898 561.755472 98.813695 
Q 563.534622 97.770483 565.179963 95.708041 
L 565.179963 84.136782 
Q 563.519754 86.870717 561.909104 88.141757 
Q 560.298453 89.412797 558.519304 89.412797 
Q 555.327738 89.412797 553.49903 84.460538 
Q 551.675278 79.52027 551.675278 70.826836 
Q 551.675278 62.169376 553.49903 57.217117 
Q 555.327738 52.276849 558.519304 52.276849 
Q 560.298453 52.276849 561.909104 53.547889 
Q 563.519754 54.83092 565.179963 57.564854 
L 565.179963 45.981604 
z
" clip-path="url(#pdf561ff52a)" style="fill: #0000ff"/>
   </g>
   <g id="patch_95">
    <path d="M 565.179963 39.510397 
Q 563.196236 39.395483 561.062627 39.337764 
Q 558.929018 39.280569 556.654344 39.280569 
Q 551.514286 39.280569 548.512245 39.622688 
Q 545.510204 39.964806 545.510204 40.549871 
Q 545.510204 41.141757 548.565144 41.481252 
Q 551.624493 41.820747 556.94529 41.820747 
Q 558.995142 41.820747 560.87307 41.774572 
Q 562.755407 41.728921 564.421738 41.638669 
L 564.421738 41.132312 
Q 562.702508 41.248276 561.000911 41.305471 
Q 559.299313 41.36319 557.5889 41.36319 
Q 554.423752 41.36319 552.70893 41.152252 
Q 550.994108 40.941838 550.994108 40.549871 
Q 550.994108 40.161577 552.647214 39.949589 
Q 554.30032 39.738127 557.342036 39.738127 
Q 558.170793 39.738127 558.880526 39.750195 
Q 559.59026 39.762788 560.15452 39.789025 
L 560.15452 40.264423 
L 556.914432 40.264423 
L 556.914432 40.687873 
L 565.179963 40.687873 
L 565.179963 39.510397 
z
" clip-path="url(#pdf561ff52a)" style="fill: #ffa600"/>
   </g>
   <g id="patch_96">
    <path d="M 585.884972 39.386129 
Q 583.901245 39.333349 581.767636 39.306839 
Q 579.634027 39.280569 577.359353 39.280569 
Q 572.219295 39.280569 569.217254 39.437704 
Q 566.215213 39.59484 566.215213 39.863561 
Q 566.215213 40.135414 569.270153 40.291345 
Q 572.329502 40.447275 577.650299 40.447275 
Q 579.700151 40.447275 581.57808 40.426066 
Q 583.460417 40.405099 585.126747 40.363646 
L 585.126747 40.131076 
Q 583.407517 40.184338 581.70592 40.210608 
Q 580.004323 40.237118 578.293909 40.237118 
Q 575.128762 40.237118 573.41394 40.140234 
Q 571.699117 40.043591 571.699117 39.863561 
Q 571.699117 39.685217 573.352224 39.587851 
Q 575.00533 39.490726 578.047045 39.490726 
Q 578.875802 39.490726 579.585536 39.496269 
Q 580.295269 39.502053 580.85953 39.514103 
L 580.85953 39.732454 
L 577.619442 39.732454 
L 577.619442 39.926945 
L 585.884972 39.926945 
L 585.884972 39.386129 
z
" clip-path="url(#pdf561ff52a)" style="fill: #ffa600"/>
   </g>
   <g id="patch_97">
    <path d="M 606.589981 39.594428 
Q 604.94464 39.438855 603.165491 39.360164 
Q 601.386342 39.280569 599.448605 39.280569 
Q 593.670087 39.280569 590.295155 39.870298 
Q 586.920223 40.460028 586.920223 41.468537 
Q 586.920223 42.480664 590.295155 43.069489 
Q 593.670087 43.659218 599.448605 43.659218 
Q 601.386342 43.659218 603.165491 43.579623 
Q 604.94464 43.500932 606.589981 43.345359 
L 606.589981 42.472524 
Q 604.929773 42.678748 603.319122 42.774624 
Q 601.708472 42.870501 599.929322 42.870501 
Q 596.737757 42.870501 594.909049 42.496945 
Q 593.085297 42.124294 593.085297 41.468537 
Q 593.085297 40.815493 594.909049 40.441938 
Q 596.737757 40.069287 599.929322 40.069287 
Q 601.708472 40.069287 603.319122 40.165163 
Q 604.929773 40.261944 606.589981 40.468168 
L 606.589981 39.594428 
z
" clip-path="url(#pdf561ff52a)" style="fill: #0000ff"/>
   </g>
   <g id="patch_98">
    <path d="M 606.589981 44.184688 
Q 604.606254 43.921953 602.472645 43.789986 
Q 600.339036 43.659218 598.064362 43.659218 
Q 592.924304 43.659218 589.922263 44.441424 
Q 586.920223 45.223629 586.920223 46.561296 
Q 586.920223 47.91456 589.975163 48.690767 
Q 593.034511 49.466974 598.355309 49.466974 
Q 600.40516 49.466974 602.283089 49.3614 
Q 604.165426 49.257026 605.831757 49.050677 
L 605.831757 47.892965 
Q 604.112526 48.158099 602.410929 48.288867 
Q 600.709332 48.420834 598.998918 48.420834 
Q 595.833771 48.420834 594.118949 47.938554 
Q 592.404127 47.457473 592.404127 46.561296 
Q 592.404127 45.673517 594.057233 45.188838 
Q 595.710339 44.705358 598.752054 44.705358 
Q 599.580811 44.705358 600.290545 44.732951 
Q 601.000279 44.761744 601.564539 44.821729 
L 601.564539 45.908659 
L 598.324451 45.908659 
L 598.324451 46.876818 
L 606.589981 46.876818 
L 606.589981 44.184688 
z
" clip-path="url(#pdf561ff52a)" style="fill: #ffa600"/>
   </g>
   <g id="patch_99">
    <path d="M 627.294991 42.628614 
Q 625.649649 42.105321 623.8705 41.840632 
Q 622.091351 41.5729 620.153614 41.5729 
Q 614.375096 41.5729 611.000164 43.556547 
Q 607.625232 45.540194 607.625232 48.932473 
Q 607.625232 52.336921 611.000164 54.317525 
Q 614.375096 56.301172 620.153614 56.301172 
Q 622.091351 56.301172 623.8705 56.03344 
Q 625.649649 55.768751 627.294991 55.245458 
L 627.294991 52.30954 
Q 625.634782 53.003207 624.024131 53.325702 
Q 622.413481 53.648197 620.634332 53.648197 
Q 617.442766 53.648197 615.614058 52.391684 
Q 613.790306 51.138214 613.790306 48.932473 
Q 613.790306 46.735858 615.614058 45.479346 
Q 617.442766 44.225876 620.634332 44.225876 
Q 622.413481 44.225876 624.024131 44.54837 
Q 625.634782 44.873907 627.294991 45.567575 
L 627.294991 42.628614 
z
" clip-path="url(#pdf561ff52a)" style="fill: #0000ff"/>
   </g>
   <g id="patch_100">
    <path d="M 627.294991 39.487973 
Q 625.311263 39.384271 623.177654 39.332183 
Q 621.044045 39.280569 618.769371 39.280569 
Q 613.629313 39.280569 610.627273 39.589307 
Q 607.625232 39.898045 607.625232 40.426025 
Q 607.625232 40.96016 610.680172 41.26653 
Q 613.73952 41.5729 619.060318 41.5729 
Q 621.11017 41.5729 622.988098 41.53123 
Q 624.870435 41.490034 626.536766 41.408588 
L 626.536766 40.951637 
Q 624.817536 41.056285 623.115938 41.1079 
Q 621.414341 41.159987 619.703927 41.159987 
Q 616.53878 41.159987 614.823958 40.96963 
Q 613.109136 40.779747 613.109136 40.426025 
Q 613.109136 40.075617 614.762242 39.884313 
Q 616.415348 39.693482 619.457064 39.693482 
Q 620.285821 39.693482 620.995554 39.704373 
Q 621.705288 39.715738 622.269548 39.739414 
L 622.269548 40.168427 
L 619.02946 40.168427 
L 619.02946 40.550561 
L 627.294991 40.550561 
L 627.294991 39.487973 
z
" clip-path="url(#pdf561ff52a)" style="fill: #ffa600"/>
   </g>
   <g id="patch_101">
    <path d="M 648 39.329424 
Q 646.354659 39.305208 644.575509 39.292959 
Q 642.79636 39.280569 640.858624 39.280569 
Q 635.080106 39.280569 631.705173 39.372365 
Q 628.330241 39.464161 628.330241 39.621144 
Q 628.330241 39.77869 631.705173 39.870346 
Q 635.080106 39.962142 640.858624 39.962142 
Q 642.79636 39.962142 644.575509 39.949752 
Q 646.354659 39.937503 648 39.913287 
L 648 39.777423 
Q 646.339791 39.809524 644.729141 39.824447 
Q 643.11849 39.839371 641.339341 39.839371 
Q 638.147775 39.839371 636.319067 39.781224 
Q 634.495316 39.723218 634.495316 39.621144 
Q 634.495316 39.519493 636.319067 39.461346 
Q 638.147775 39.403339 641.339341 39.403339 
Q 643.11849 39.403339 644.729141 39.418263 
Q 646.339791 39.433328 648 39.465429 
L 648 39.329424 
z
" clip-path="url(#pdf561ff52a)" style="fill: #0000ff"/>
   </g>
   <g id="patch_102">
    <path d="M 648 42.286035 
Q 646.016273 41.124089 643.882664 40.540462 
Q 641.749055 39.962142 639.474381 39.962142 
Q 634.334323 39.962142 631.332282 43.421454 
Q 628.330241 46.880766 628.330241 52.796614 
Q 628.330241 58.781436 631.385181 62.21422 
Q 634.44453 65.647004 639.765327 65.647004 
Q 641.815179 65.647004 643.693107 65.180103 
Q 645.575444 64.718507 647.241775 63.805928 
L 647.241775 58.685934 
Q 645.522545 59.858492 643.820948 60.436813 
Q 642.11935 61.020439 640.408937 61.020439 
Q 637.243789 61.020439 635.528967 58.88755 
Q 633.814145 56.759967 633.814145 52.796614 
Q 633.814145 48.870401 635.467251 46.726901 
Q 637.120358 44.588706 640.162073 44.588706 
Q 640.99083 44.588706 641.700564 44.710737 
Q 642.410297 44.838074 642.974557 45.103359 
L 642.974557 49.910317 
L 639.734469 49.910317 
L 639.734469 54.192011 
L 648 54.192011 
L 648 42.286035 
z
" clip-path="url(#pdf561ff52a)" style="fill: #ffa600"/>
   </g>
   <g id="matplotlib.axis_1">
    <g id="xtick_1">
     <g id="line2d_2">
      <defs>
       <path id="mc06c0d6126" d="M 0 0 
L 0 3.5 
" style="stroke: #000000; stroke-width: 0.8"/>
      </defs>
      <g>
       <use xlink:href="#mc06c0d6126" x="99.834879" y="192.24" style="stroke: #000000; stroke-width: 0.8"/>
      </g>
     </g>
     <g id="text_1">
      <!-- 0 -->
      <g transform="translate(96.653629 206.838437) scale(0.1 -0.1)">
       <defs>
        <path id="DejaVuSans-30" d="M 2034 4250 
Q 1547 4250 1301 3770 
Q 1056 3291 1056 2328 
Q 1056 1369 1301 889 
Q 1547 409 2034 409 
Q 2525 409 2770 889 
Q 3016 1369 3016 2328 
Q 3016 3291 2770 3770 
Q 2525 4250 2034 4250 
z
M 2034 4750 
Q 2819 4750 3233 4129 
Q 3647 3509 3647 2328 
Q 3647 1150 3233 529 
Q 2819 -91 2034 -91 
Q 1250 -91 836 529 
Q 422 1150 422 2328 
Q 422 3509 836 4129 
Q 1250 4750 2034 4750 
z
" transform="scale(0.015625)"/>
       </defs>
       <use xlink:href="#DejaVuSans-30"/>
      </g>
     </g>
    </g>
    <g id="xtick_2">
     <g id="line2d_3">
      <g>
       <use xlink:href="#mc06c0d6126" x="203.359926" y="192.24" style="stroke: #000000; stroke-width: 0.8"/>
      </g>
     </g>
     <g id="text_2">
      <!-- 5 -->
      <g transform="translate(200.178676 206.838437) scale(0.1 -0.1)">
       <defs>
        <path id="DejaVuSans-35" d="M 691 4666 
L 3169 4666 
L 3169 4134 
L 1269 4134 
L 1269 2991 
Q 1406 3038 1543 3061 
Q 1681 3084 1819 3084 
Q 2600 3084 3056 2656 
Q 3513 2228 3513 1497 
Q 3513 744 3044 326 
Q 2575 -91 1722 -91 
Q 1428 -91 1123 -41 
Q 819 9 494 109 
L 494 744 
Q 775 591 1075 516 
Q 1375 441 1709 441 
Q 2250 441 2565 725 
Q 2881 1009 2881 1497 
Q 2881 1984 2565 2268 
Q 2250 2553 1709 2553 
Q 1456 2553 1204 2497 
Q 953 2441 691 2322 
L 691 4666 
z
" transform="scale(0.015625)"/>
       </defs>
       <use xlink:href="#DejaVuSans-35"/>
      </g>
     </g>
    </g>
    <g id="xtick_3">
     <g id="line2d_4">
      <g>
       <use xlink:href="#mc06c0d6126" x="306.884972" y="192.24" style="stroke: #000000; stroke-width: 0.8"/>
      </g>
     </g>
     <g id="text_3">
      <!-- 10 -->
      <g transform="translate(300.522472 206.838437) scale(0.1 -0.1)">
       <defs>
        <path id="DejaVuSans-31" d="M 794 531 
L 1825 531 
L 1825 4091 
L 703 3866 
L 703 4441 
L 1819 4666 
L 2450 4666 
L 2450 531 
L 3481 531 
L 3481 0 
L 794 0 
L 794 531 
z
" transform="scale(0.015625)"/>
       </defs>
       <use xlink:href="#DejaVuSans-31"/>
       <use xlink:href="#DejaVuSans-30" x="63.623047"/>
      </g>
     </g>
    </g>
    <g id="xtick_4">
     <g id="line2d_5">
      <g>
       <use xlink:href="#mc06c0d6126" x="410.410019" y="192.24" style="stroke: #000000; stroke-width: 0.8"/>
      </g>
     </g>
     <g id="text_4">
      <!-- 15 -->
      <g transform="translate(404.047519 206.838437) scale(0.1 -0.1)">
       <use xlink:href="#DejaVuSans-31"/>
       <use xlink:href="#DejaVuSans-35" x="63.623047"/>
      </g>
     </g>
    </g>
    <g id="xtick_5">
     <g id="line2d_6">
      <g>
       <use xlink:href="#mc06c0d6126" x="513.935065" y="192.24" style="stroke: #000000; stroke-width: 0.8"/>
      </g>
     </g>
     <g id="text_5">
      <!-- 20 -->
      <g transform="translate(507.572565 206.838437) scale(0.1 -0.1)">
       <defs>
        <path id="DejaVuSans-32" d="M 1228 531 
L 3431 531 
L 3431 0 
L 469 0 
L 469 531 
Q 828 903 1448 1529 
Q 2069 2156 2228 2338 
Q 2531 2678 2651 2914 
Q 2772 3150 2772 3378 
Q 2772 3750 2511 3984 
Q 2250 4219 1831 4219 
Q 1534 4219 1204 4116 
Q 875 4013 500 3803 
L 500 4441 
Q 881 4594 1212 4672 
Q 1544 4750 1819 4750 
Q 2544 4750 2975 4387 
Q 3406 4025 3406 3419 
Q 3406 3131 3298 2873 
Q 3191 2616 2906 2266 
Q 2828 2175 2409 1742 
Q 1991 1309 1228 531 
z
" transform="scale(0.015625)"/>
       </defs>
       <use xlink:href="#DejaVuSans-32"/>
       <use xlink:href="#DejaVuSans-30" x="63.623047"/>
      </g>
     </g>
    </g>
    <g id="xtick_6">
     <g id="line2d_7">
      <g>
       <use xlink:href="#mc06c0d6126" x="617.460111" y="192.24" style="stroke: #000000; stroke-width: 0.8"/>
      </g>
     </g>
     <g id="text_6">
      <!-- 25 -->
      <g transform="translate(611.097611 206.838437) scale(0.1 -0.1)">
       <use xlink:href="#DejaVuSans-32"/>
       <use xlink:href="#DejaVuSans-35" x="63.623047"/>
      </g>
     </g>
    </g>
   </g>
   <g id="matplotlib.axis_2">
    <g id="ytick_1">
     <g id="line2d_8">
      <defs>
       <path id="m2d693b6306" d="M 0 0 
L -3.5 0 
" style="stroke: #000000; stroke-width: 0.8"/>
      </defs>
      <g>
       <use xlink:href="#m2d693b6306" x="90" y="189.563758" style="stroke: #000000; stroke-width: 0.8"/>
      </g>
     </g>
     <g id="text_7">
      <!-- 0.012 -->
      <g transform="translate(45.992188 193.362977) scale(0.1 -0.1)">
       <defs>
        <path id="DejaVuSans-2212" d="M 678 2272 
L 4684 2272 
L 4684 1741 
L 678 1741 
L 678 2272 
z
" transform="scale(0.015625)"/>
        <path id="DejaVuSans-2e" d="M 684 794 
L 1344 794 
L 1344 0 
L 684 0 
L 684 794 
z
" transform="scale(0.015625)"/>
       </defs>
       <use xlink:href="#DejaVuSans-2212"/>
       <use xlink:href="#DejaVuSans-30" x="83.789062"/>
       <use xlink:href="#DejaVuSans-2e" x="147.412109"/>
       <use xlink:href="#DejaVuSans-30" x="179.199219"/>
       <use xlink:href="#DejaVuSans-31" x="242.822266"/>
       <use xlink:href="#DejaVuSans-32" x="306.445312"/>
      </g>
     </g>
    </g>
    <g id="ytick_2">
     <g id="line2d_9">
      <g>
       <use xlink:href="#m2d693b6306" x="90" y="164.51656" style="stroke: #000000; stroke-width: 0.8"/>
      </g>
     </g>
     <g id="text_8">
      <!-- 0.010 -->
      <g transform="translate(45.992188 168.315779) scale(0.1 -0.1)">
       <use xlink:href="#DejaVuSans-2212"/>
       <use xlink:href="#DejaVuSans-30" x="83.789062"/>
       <use xlink:href="#DejaVuSans-2e" x="147.412109"/>
       <use xlink:href="#DejaVuSans-30" x="179.199219"/>
       <use xlink:href="#DejaVuSans-31" x="242.822266"/>
       <use xlink:href="#DejaVuSans-30" x="306.445312"/>
      </g>
     </g>
    </g>
    <g id="ytick_3">
     <g id="line2d_10">
      <g>
       <use xlink:href="#m2d693b6306" x="90" y="139.469362" style="stroke: #000000; stroke-width: 0.8"/>
      </g>
     </g>
     <g id="text_9">
      <!-- 0.008 -->
      <g transform="translate(45.992188 143.268581) scale(0.1 -0.1)">
       <defs>
        <path id="DejaVuSans-38" d="M 2034 2216 
Q 1584 2216 1326 1975 
Q 1069 1734 1069 1313 
Q 1069 891 1326 650 
Q 1584 409 2034 409 
Q 2484 409 2743 651 
Q 3003 894 3003 1313 
Q 3003 1734 2745 1975 
Q 2488 2216 2034 2216 
z
M 1403 2484 
Q 997 2584 770 2862 
Q 544 3141 544 3541 
Q 544 4100 942 4425 
Q 1341 4750 2034 4750 
Q 2731 4750 3128 4425 
Q 3525 4100 3525 3541 
Q 3525 3141 3298 2862 
Q 3072 2584 2669 2484 
Q 3125 2378 3379 2068 
Q 3634 1759 3634 1313 
Q 3634 634 3220 271 
Q 2806 -91 2034 -91 
Q 1263 -91 848 271 
Q 434 634 434 1313 
Q 434 1759 690 2068 
Q 947 2378 1403 2484 
z
M 1172 3481 
Q 1172 3119 1398 2916 
Q 1625 2713 2034 2713 
Q 2441 2713 2670 2916 
Q 2900 3119 2900 3481 
Q 2900 3844 2670 4047 
Q 2441 4250 2034 4250 
Q 1625 4250 1398 4047 
Q 1172 3844 1172 3481 
z
" transform="scale(0.015625)"/>
       </defs>
       <use xlink:href="#DejaVuSans-2212"/>
       <use xlink:href="#DejaVuSans-30" x="83.789062"/>
       <use xlink:href="#DejaVuSans-2e" x="147.412109"/>
       <use xlink:href="#DejaVuSans-30" x="179.199219"/>
       <use xlink:href="#DejaVuSans-30" x="242.822266"/>
       <use xlink:href="#DejaVuSans-38" x="306.445312"/>
      </g>
     </g>
    </g>
    <g id="ytick_4">
     <g id="line2d_11">
      <g>
       <use xlink:href="#m2d693b6306" x="90" y="114.422164" style="stroke: #000000; stroke-width: 0.8"/>
      </g>
     </g>
     <g id="text_10">
      <!-- 0.006 -->
      <g transform="translate(45.992188 118.221382) scale(0.1 -0.1)">
       <defs>
        <path id="DejaVuSans-36" d="M 2113 2584 
Q 1688 2584 1439 2293 
Q 1191 2003 1191 1497 
Q 1191 994 1439 701 
Q 1688 409 2113 409 
Q 2538 409 2786 701 
Q 3034 994 3034 1497 
Q 3034 2003 2786 2293 
Q 2538 2584 2113 2584 
z
M 3366 4563 
L 3366 3988 
Q 3128 4100 2886 4159 
Q 2644 4219 2406 4219 
Q 1781 4219 1451 3797 
Q 1122 3375 1075 2522 
Q 1259 2794 1537 2939 
Q 1816 3084 2150 3084 
Q 2853 3084 3261 2657 
Q 3669 2231 3669 1497 
Q 3669 778 3244 343 
Q 2819 -91 2113 -91 
Q 1303 -91 875 529 
Q 447 1150 447 2328 
Q 447 3434 972 4092 
Q 1497 4750 2381 4750 
Q 2619 4750 2861 4703 
Q 3103 4656 3366 4563 
z
" transform="scale(0.015625)"/>
       </defs>
       <use xlink:href="#DejaVuSans-2212"/>
       <use xlink:href="#DejaVuSans-30" x="83.789062"/>
       <use xlink:href="#DejaVuSans-2e" x="147.412109"/>
       <use xlink:href="#DejaVuSans-30" x="179.199219"/>
       <use xlink:href="#DejaVuSans-30" x="242.822266"/>
       <use xlink:href="#DejaVuSans-36" x="306.445312"/>
      </g>
     </g>
    </g>
    <g id="ytick_5">
     <g id="line2d_12">
      <g>
       <use xlink:href="#m2d693b6306" x="90" y="89.374966" style="stroke: #000000; stroke-width: 0.8"/>
      </g>
     </g>
     <g id="text_11">
      <!-- 0.004 -->
      <g transform="translate(45.992188 93.174184) scale(0.1 -0.1)">
       <defs>
        <path id="DejaVuSans-34" d="M 2419 4116 
L 825 1625 
L 2419 1625 
L 2419 4116 
z
M 2253 4666 
L 3047 4666 
L 3047 1625 
L 3713 1625 
L 3713 1100 
L 3047 1100 
L 3047 0 
L 2419 0 
L 2419 1100 
L 313 1100 
L 313 1709 
L 2253 4666 
z
" transform="scale(0.015625)"/>
       </defs>
       <use xlink:href="#DejaVuSans-2212"/>
       <use xlink:href="#DejaVuSans-30" x="83.789062"/>
       <use xlink:href="#DejaVuSans-2e" x="147.412109"/>
       <use xlink:href="#DejaVuSans-30" x="179.199219"/>
       <use xlink:href="#DejaVuSans-30" x="242.822266"/>
       <use xlink:href="#DejaVuSans-34" x="306.445312"/>
      </g>
     </g>
    </g>
    <g id="ytick_6">
     <g id="line2d_13">
      <g>
       <use xlink:href="#m2d693b6306" x="90" y="64.327767" style="stroke: #000000; stroke-width: 0.8"/>
      </g>
     </g>
     <g id="text_12">
      <!-- 0.002 -->
      <g transform="translate(45.992188 68.126986) scale(0.1 -0.1)">
       <use xlink:href="#DejaVuSans-2212"/>
       <use xlink:href="#DejaVuSans-30" x="83.789062"/>
       <use xlink:href="#DejaVuSans-2e" x="147.412109"/>
       <use xlink:href="#DejaVuSans-30" x="179.199219"/>
       <use xlink:href="#DejaVuSans-30" x="242.822266"/>
       <use xlink:href="#DejaVuSans-32" x="306.445312"/>
      </g>
     </g>
    </g>
    <g id="ytick_7">
     <g id="line2d_14">
      <g>
       <use xlink:href="#m2d693b6306" x="90" y="39.280569" style="stroke: #000000; stroke-width: 0.8"/>
      </g>
     </g>
     <g id="text_13">
      <!-- 0.000 -->
      <g transform="translate(54.371875 43.079788) scale(0.1 -0.1)">
       <use xlink:href="#DejaVuSans-30"/>
       <use xlink:href="#DejaVuSans-2e" x="63.623047"/>
       <use xlink:href="#DejaVuSans-30" x="95.410156"/>
       <use xlink:href="#DejaVuSans-30" x="159.033203"/>
       <use xlink:href="#DejaVuSans-30" x="222.65625"/>
      </g>
     </g>
    </g>
   </g>
  </g>
 </g>
 <defs>
  <clipPath id="pdf561ff52a">
   <rect x="90" y="25.92" width="558" height="166.32"/>
  </clipPath>
 </defs>
</svg>
