<?xml version="1.0" encoding="utf-8" standalone="no"?>
<!DOCTYPE svg PUBLIC "-//W3C//DTD SVG 1.1//EN"
  "http://www.w3.org/Graphics/SVG/1.1/DTD/svg11.dtd">
<svg xmlns:xlink="http://www.w3.org/1999/xlink" width="720pt" height="216pt" viewBox="0 0 720 216" xmlns="http://www.w3.org/2000/svg" version="1.1">
 <metadata>
  <rdf:RDF xmlns:dc="http://purl.org/dc/elements/1.1/" xmlns:cc="http://creativecommons.org/ns#" xmlns:rdf="http://www.w3.org/1999/02/22-rdf-syntax-ns#">
   <cc:Work>
    <dc:type rdf:resource="http://purl.org/dc/dcmitype/StillImage"/>
    <dc:date>2024-11-23T04:44:45.019929</dc:date>
    <dc:format>image/svg+xml</dc:format>
    <dc:creator>
     <cc:Agent>
      <dc:title>Matplotlib v3.7.2, https://matplotlib.org/</dc:title>
     </cc:Agent>
    </dc:creator>
   </cc:Work>
  </rdf:RDF>
 </metadata>
 <defs>
  <style type="text/css">*{stroke-linejoin: round; stroke-linecap: butt}</style>
 </defs>
 <g id="figure_1">
  <g id="patch_1">
   <path d="M 0 216 
L 720 216 
L 720 0 
L 0 0 
z
" style="fill: #ffffff"/>
  </g>
  <g id="axes_1">
   <g id="patch_2">
    <path d="M 90 192.24 
L 648 192.24 
L 648 25.92 
L 90 25.92 
z
" style="fill: #ffffff"/>
   </g>
   <g id="line2d_1">
    <path d="M 90 35.21099 
L 648 35.21099 
" clip-path="url(#p6f762a3bf4)" style="fill: none; stroke: #000000; stroke-width: 0.5; stroke-linecap: square"/>
   </g>
   <g id="patch_3">
    <path d="M 102.260459 34.869063 
L 95.453516 34.869063 
L 94.378735 35.21099 
L 90 35.21099 
L 96.253268 33.33401 
L 101.446231 33.33401 
L 107.699499 35.21099 
L 103.324383 35.21099 
L 102.260459 34.869063 
z
M 96.539153 34.520699 
L 101.163965 34.520699 
L 98.855178 33.77409 
L 96.539153 34.520699 
z
" clip-path="url(#p6f762a3bf4)" style="fill: #008000"/>
   </g>
   <g id="patch_4">
    <path d="M 90 17.872023 
L 107.699499 17.872023 
L 107.699499 20.887542 
L 101.331796 20.887542 
L 101.331796 33.33401 
L 96.380052 33.33401 
L 96.380052 20.887542 
L 90 20.887542 
L 90 17.872023 
z
" clip-path="url(#p6f762a3bf4)" style="fill: #ff0000"/>
   </g>
   <g id="patch_5">
    <path d="M 120.89151 34.866761 
L 114.084567 34.866761 
L 113.009787 35.21099 
L 108.631052 35.21099 
L 114.88432 33.321376 
L 120.077283 33.321376 
L 126.330551 35.21099 
L 121.955434 35.21099 
L 120.89151 34.866761 
z
M 115.170204 34.516053 
L 119.795017 34.516053 
L 117.48623 33.764419 
L 115.170204 34.516053 
z
" clip-path="url(#p6f762a3bf4)" style="fill: #008000"/>
   </g>
   <g id="patch_6">
    <path d="M 108.631052 29.238548 
L 126.330551 29.238548 
L 126.330551 30.034813 
L 119.962847 30.034813 
L 119.962847 33.321376 
L 115.011104 33.321376 
L 115.011104 30.034813 
L 108.631052 30.034813 
L 108.631052 29.238548 
z
" clip-path="url(#p6f762a3bf4)" style="fill: #ff0000"/>
   </g>
   <g id="patch_7">
    <path d="M 127.262104 30.717495 
L 144.961603 30.717495 
L 144.961603 31.593851 
L 138.593899 31.593851 
L 138.593899 35.21099 
L 133.642156 35.21099 
L 133.642156 31.593851 
L 127.262104 31.593851 
L 127.262104 30.717495 
z
" clip-path="url(#p6f762a3bf4)" style="fill: #ff0000"/>
   </g>
   <g id="patch_8">
    <path d="M 145.893155 31.814599 
L 163.592654 31.814599 
L 163.592654 32.47699 
L 157.224951 32.47699 
L 157.224951 35.21099 
L 152.273207 35.21099 
L 152.273207 32.47699 
L 145.893155 32.47699 
L 145.893155 31.814599 
z
" clip-path="url(#p6f762a3bf4)" style="fill: #ff0000"/>
   </g>
   <g id="patch_9">
    <path d="M 176.784666 34.900905 
L 169.977723 34.900905 
L 168.902942 35.21099 
L 164.524207 35.21099 
L 170.777475 33.508804 
L 175.970438 33.508804 
L 182.223706 35.21099 
L 177.84859 35.21099 
L 176.784666 34.900905 
z
M 171.06336 34.584982 
L 175.688172 34.584982 
L 173.379385 33.907902 
L 171.06336 34.584982 
z
" clip-path="url(#p6f762a3bf4)" style="fill: #008000"/>
   </g>
   <g id="patch_10">
    <path d="M 164.524207 28.805343 
L 182.223706 28.805343 
L 182.223706 29.722649 
L 175.856003 29.722649 
L 175.856003 33.508804 
L 170.904259 33.508804 
L 170.904259 29.722649 
L 164.524207 29.722649 
L 164.524207 28.805343 
z
" clip-path="url(#p6f762a3bf4)" style="fill: #ff0000"/>
   </g>
   <g id="patch_11">
    <path d="M 195.415717 35.09763 
L 188.608774 35.09763 
L 187.533994 35.21099 
L 183.155259 35.21099 
L 189.408527 34.58871 
L 194.60149 34.58871 
L 200.854758 35.21099 
L 196.479641 35.21099 
L 195.415717 35.09763 
z
M 189.694411 34.982136 
L 194.319224 34.982136 
L 192.010437 34.734611 
L 189.694411 34.982136 
z
" clip-path="url(#p6f762a3bf4)" style="fill: #008000"/>
   </g>
   <g id="patch_12">
    <path d="M 201.786311 33.719437 
L 219.48581 33.719437 
L 219.48581 34.010331 
L 213.118106 34.010331 
L 213.118106 35.21099 
L 208.166363 35.21099 
L 208.166363 34.010331 
L 201.786311 34.010331 
L 201.786311 33.719437 
z
" clip-path="url(#p6f762a3bf4)" style="fill: #ff0000"/>
   </g>
   <g id="patch_13">
    <path d="M 214.046769 33.153617 
L 207.239826 33.153617 
L 206.165046 33.719437 
L 201.786311 33.719437 
L 208.039579 30.613421 
L 213.232542 30.613421 
L 219.48581 33.719437 
L 215.110693 33.719437 
L 214.046769 33.153617 
z
M 208.325463 32.577147 
L 212.950276 32.577147 
L 210.641488 31.341664 
L 208.325463 32.577147 
z
" clip-path="url(#p6f762a3bf4)" style="fill: #008000"/>
   </g>
   <g id="patch_14">
    <path d="M 232.677821 35.087343 
L 225.870878 35.087343 
L 224.796097 35.21099 
L 220.417362 35.21099 
L 226.67063 34.532242 
L 231.863593 34.532242 
L 238.116861 35.21099 
L 233.741745 35.21099 
L 232.677821 35.087343 
z
M 226.956515 34.961369 
L 231.581328 34.961369 
L 229.27254 34.691383 
L 226.956515 34.961369 
z
" clip-path="url(#p6f762a3bf4)" style="fill: #008000"/>
   </g>
   <g id="patch_15">
    <path d="M 239.048414 34.509082 
L 256.747913 34.509082 
L 256.747913 34.645974 
L 250.38021 34.645974 
L 250.38021 35.21099 
L 245.428466 35.21099 
L 245.428466 34.645974 
L 239.048414 34.645974 
L 239.048414 34.509082 
z
" clip-path="url(#p6f762a3bf4)" style="fill: #ff0000"/>
   </g>
   <g id="patch_16">
    <path d="M 288.570976 35.182796 
L 281.764033 35.182796 
L 280.689253 35.21099 
L 276.310518 35.21099 
L 282.563786 35.056221 
L 287.756749 35.056221 
L 294.010017 35.21099 
L 289.6349 35.21099 
L 288.570976 35.182796 
z
M 282.84967 35.154071 
L 287.474483 35.154071 
L 285.165695 35.092508 
L 282.84967 35.154071 
z
" clip-path="url(#p6f762a3bf4)" style="fill: #008000"/>
   </g>
   <g id="patch_17">
    <path d="M 276.310518 34.054324 
L 294.010017 34.054324 
L 294.010017 34.249721 
L 287.642313 34.249721 
L 287.642313 35.056221 
L 282.69057 35.056221 
L 282.69057 34.249721 
L 276.310518 34.249721 
L 276.310518 34.054324 
z
" clip-path="url(#p6f762a3bf4)" style="fill: #ff0000"/>
   </g>
   <g id="patch_18">
    <path d="M 294.941569 32.979069 
L 312.641068 32.979069 
L 312.641068 33.414356 
L 306.273365 33.414356 
L 306.273365 35.21099 
L 301.321621 35.21099 
L 301.321621 33.414356 
L 294.941569 33.414356 
L 294.941569 32.979069 
z
" clip-path="url(#p6f762a3bf4)" style="fill: #ff0000"/>
   </g>
   <g id="patch_19">
    <path d="M 307.202028 32.542019 
L 300.395085 32.542019 
L 299.320305 32.979069 
L 294.941569 32.979069 
L 301.194837 30.57992 
L 306.3878 30.57992 
L 312.641068 32.979069 
L 308.265952 32.979069 
L 307.202028 32.542019 
z
M 301.480722 32.096742 
L 306.105535 32.096742 
L 303.796747 31.142429 
L 301.480722 32.096742 
z
" clip-path="url(#p6f762a3bf4)" style="fill: #008000"/>
   </g>
   <g id="patch_20">
    <path d="M 332.203673 33.854263 
L 349.903172 33.854263 
L 349.903172 34.118862 
L 343.535468 34.118862 
L 343.535468 35.21099 
L 338.583725 35.21099 
L 338.583725 34.118862 
L 332.203673 34.118862 
L 332.203673 33.854263 
z
" clip-path="url(#p6f762a3bf4)" style="fill: #ff0000"/>
   </g>
   <g id="patch_21">
    <path d="M 363.095183 33.751342 
L 356.28824 33.751342 
L 355.21346 35.21099 
L 350.834725 35.21099 
L 357.087993 27.198382 
L 362.280956 27.198382 
L 368.534224 35.21099 
L 364.159107 35.21099 
L 363.095183 33.751342 
z
M 357.373877 32.264219 
L 361.99869 32.264219 
L 359.689902 29.077035 
L 357.373877 32.264219 
z
" clip-path="url(#p6f762a3bf4)" style="fill: #008000"/>
   </g>
   <g id="patch_22">
    <path d="M 381.726235 35.112584 
L 374.919292 35.112584 
L 373.844512 35.21099 
L 369.465776 35.21099 
L 375.719044 34.6708 
L 380.912007 34.6708 
L 387.165275 35.21099 
L 382.790159 35.21099 
L 381.726235 35.112584 
z
M 376.004929 35.012326 
L 380.629742 35.012326 
L 378.320954 34.797454 
L 376.004929 35.012326 
z
" clip-path="url(#p6f762a3bf4)" style="fill: #008000"/>
   </g>
   <g id="patch_23">
    <path d="M 369.465776 8.687029 
L 387.165275 8.687029 
L 387.165275 13.754588 
L 380.797572 13.754588 
L 380.797572 34.6708 
L 375.845828 34.6708 
L 375.845828 13.754588 
L 369.465776 13.754588 
L 369.465776 8.687029 
z
" clip-path="url(#p6f762a3bf4)" style="fill: #ff0000"/>
   </g>
   <g id="patch_24">
    <path d="M 400.357287 35.192553 
L 393.550344 35.192553 
L 392.475563 35.21099 
L 388.096828 35.21099 
L 394.350096 35.109781 
L 399.543059 35.109781 
L 405.796327 35.21099 
L 401.421211 35.21099 
L 400.357287 35.192553 
z
M 394.635981 35.173769 
L 399.260793 35.173769 
L 396.952006 35.133511 
L 394.635981 35.173769 
z
" clip-path="url(#p6f762a3bf4)" style="fill: #008000"/>
   </g>
   <g id="patch_25">
    <path d="M 474.881494 35.160893 
L 468.074551 35.160893 
L 466.99977 35.21099 
L 462.621035 35.21099 
L 468.874303 34.935986 
L 474.067266 34.935986 
L 480.320534 35.21099 
L 475.945418 35.21099 
L 474.881494 35.160893 
z
M 469.160188 35.109853 
L 473.785 35.109853 
L 471.476213 35.000464 
L 469.160188 35.109853 
z
" clip-path="url(#p6f762a3bf4)" style="fill: #008000"/>
   </g>
   <g id="patch_26">
    <path d="M 462.621035 31.621086 
L 480.320534 31.621086 
L 480.320534 32.267583 
L 473.952831 32.267583 
L 473.952831 34.935986 
L 469.001087 34.935986 
L 469.001087 32.267583 
L 462.621035 32.267583 
L 462.621035 31.621086 
z
" clip-path="url(#p6f762a3bf4)" style="fill: #ff0000"/>
   </g>
   <g id="patch_27">
    <path d="M 493.512545 35.144445 
L 486.705603 35.144445 
L 485.630822 35.21099 
L 481.252087 35.21099 
L 487.505355 34.845698 
L 492.698318 34.845698 
L 498.951586 35.21099 
L 494.57647 35.21099 
L 493.512545 35.144445 
z
M 487.791239 35.076648 
L 492.416052 35.076648 
L 490.107265 34.931345 
L 487.791239 35.076648 
z
" clip-path="url(#p6f762a3bf4)" style="fill: #008000"/>
   </g>
   <g id="patch_28">
    <path d="M 499.883139 32.636049 
L 517.582638 32.636049 
L 517.582638 33.138235 
L 511.214934 33.138235 
L 511.214934 35.21099 
L 506.263191 35.21099 
L 506.263191 33.138235 
L 499.883139 33.138235 
L 499.883139 32.636049 
z
" clip-path="url(#p6f762a3bf4)" style="fill: #ff0000"/>
   </g>
   <g id="patch_29">
    <path d="M 512.143597 31.115235 
L 505.336654 31.115235 
L 504.261874 32.636049 
L 499.883139 32.636049 
L 506.136407 24.287674 
L 511.32937 24.287674 
L 517.582638 32.636049 
L 513.207521 32.636049 
L 512.143597 31.115235 
z
M 506.422291 29.565794 
L 511.047104 29.565794 
L 508.738316 26.245052 
L 506.422291 29.565794 
z
" clip-path="url(#p6f762a3bf4)" style="fill: #008000"/>
   </g>
   <g id="patch_30">
    <path d="M 530.774649 34.221639 
L 523.967706 34.221639 
L 522.892926 35.21099 
L 518.51419 35.21099 
L 524.767458 29.780033 
L 529.960421 29.780033 
L 536.213689 35.21099 
L 531.838573 35.21099 
L 530.774649 34.221639 
z
M 525.053343 33.213664 
L 529.678156 33.213664 
L 527.369368 31.053386 
L 525.053343 33.213664 
z
" clip-path="url(#p6f762a3bf4)" style="fill: #008000"/>
   </g>
   <g id="patch_31">
    <path d="M 518.51419 23.322345 
L 536.213689 23.322345 
L 536.213689 24.581774 
L 529.845986 24.581774 
L 529.845986 29.780033 
L 524.894242 29.780033 
L 524.894242 24.581774 
L 518.51419 24.581774 
L 518.51419 23.322345 
z
" clip-path="url(#p6f762a3bf4)" style="fill: #ff0000"/>
   </g>
   <g id="patch_32">
    <path d="M 537.145242 32.088231 
L 554.844741 32.088231 
L 554.844741 32.697256 
L 548.477038 32.697256 
L 548.477038 35.21099 
L 543.525294 35.21099 
L 543.525294 32.697256 
L 537.145242 32.697256 
L 537.145242 32.088231 
z
" clip-path="url(#p6f762a3bf4)" style="fill: #ff0000"/>
   </g>
   <g id="patch_33">
    <path d="M 549.405701 31.278718 
L 542.598758 31.278718 
L 541.523977 32.088231 
L 537.145242 32.088231 
L 543.39851 27.644481 
L 548.591473 27.644481 
L 554.844741 32.088231 
L 550.469625 32.088231 
L 549.405701 31.278718 
z
M 543.684395 30.453967 
L 548.309208 30.453967 
L 546.00042 28.686372 
L 543.684395 30.453967 
z
" clip-path="url(#p6f762a3bf4)" style="fill: #008000"/>
   </g>
   <g id="patch_34">
    <path d="M 555.776294 33.540629 
L 573.475793 33.540629 
L 573.475793 33.866396 
L 567.108089 33.866396 
L 567.108089 35.21099 
L 562.156346 35.21099 
L 562.156346 33.866396 
L 555.776294 33.866396 
L 555.776294 33.540629 
z
" clip-path="url(#p6f762a3bf4)" style="fill: #ff0000"/>
   </g>
   <g id="patch_35">
    <path d="M 568.036752 33.158438 
L 561.22981 33.158438 
L 560.155029 33.540629 
L 555.776294 33.540629 
L 562.029562 31.442625 
L 567.222525 31.442625 
L 573.475793 33.540629 
L 569.100677 33.540629 
L 568.036752 33.158438 
z
M 562.315446 32.769053 
L 566.940259 32.769053 
L 564.631472 31.934528 
L 562.315446 32.769053 
z
" clip-path="url(#p6f762a3bf4)" style="fill: #008000"/>
   </g>
   <g id="patch_36">
    <path d="M 586.667804 34.47899 
L 579.860861 34.47899 
L 578.786081 35.21099 
L 574.407346 35.21099 
L 580.660614 31.192738 
L 585.853577 31.192738 
L 592.106845 35.21099 
L 587.731728 35.21099 
L 586.667804 34.47899 
z
M 580.946498 33.73321 
L 585.571311 33.73321 
L 583.262523 32.134865 
L 580.946498 33.73321 
z
" clip-path="url(#p6f762a3bf4)" style="fill: #008000"/>
   </g>
   <g id="patch_37">
    <path d="M 574.407346 26.371 
L 592.106845 26.371 
L 592.106845 27.311373 
L 585.739141 27.311373 
L 585.739141 31.192738 
L 580.787398 31.192738 
L 580.787398 27.311373 
L 574.407346 27.311373 
L 574.407346 26.371 
z
" clip-path="url(#p6f762a3bf4)" style="fill: #ff0000"/>
   </g>
   <g id="patch_38">
    <path d="M 593.038397 34.715711 
L 610.737896 34.715711 
L 610.737896 34.812304 
L 604.370193 34.812304 
L 604.370193 35.21099 
L 599.418449 35.21099 
L 599.418449 34.812304 
L 593.038397 34.812304 
L 593.038397 34.715711 
z
" clip-path="url(#p6f762a3bf4)" style="fill: #ff0000"/>
   </g>
   <g id="patch_39">
    <path d="M 605.298856 33.333681 
L 598.491913 33.333681 
L 597.417133 34.715711 
L 593.038397 34.715711 
L 599.291665 27.129178 
L 604.484628 27.129178 
L 610.737896 34.715711 
L 606.36278 34.715711 
L 605.298856 33.333681 
z
M 599.57755 31.925636 
L 604.202363 31.925636 
L 601.893575 28.907932 
L 599.57755 31.925636 
z
" clip-path="url(#p6f762a3bf4)" style="fill: #008000"/>
   </g>
   <g id="patch_40">
    <path d="M 623.929908 34.963259 
L 617.122965 34.963259 
L 616.048184 35.21099 
L 611.669449 35.21099 
L 617.922717 33.851093 
L 623.11568 33.851093 
L 629.368948 35.21099 
L 624.993832 35.21099 
L 623.929908 34.963259 
z
M 618.208602 34.710865 
L 622.833415 34.710865 
L 620.524627 34.169938 
L 618.208602 34.710865 
z
" clip-path="url(#p6f762a3bf4)" style="fill: #008000"/>
   </g>
   <g id="patch_41">
    <path d="M 611.669449 21.018012 
L 629.368948 21.018012 
L 629.368948 23.52082 
L 623.001245 23.52082 
L 623.001245 33.851093 
L 618.049501 33.851093 
L 618.049501 23.52082 
L 611.669449 23.52082 
L 611.669449 21.018012 
z
" clip-path="url(#p6f762a3bf4)" style="fill: #ff0000"/>
   </g>
   <g id="patch_42">
    <path d="M 642.560959 35.17225 
L 635.754017 35.17225 
L 634.679236 35.21099 
L 630.300501 35.21099 
L 636.553769 34.998328 
L 641.746732 34.998328 
L 648 35.21099 
L 643.624884 35.21099 
L 642.560959 35.17225 
z
M 636.839653 35.13278 
L 641.464466 35.13278 
L 639.155679 35.04819 
L 636.839653 35.13278 
z
" clip-path="url(#p6f762a3bf4)" style="fill: #008000"/>
   </g>
   <g id="patch_43">
    <path d="M 630.300501 10.095547 
L 648 10.095547 
L 648 14.952283 
L 641.632296 14.952283 
L 641.632296 34.998328 
L 636.680553 34.998328 
L 636.680553 14.952283 
L 630.300501 14.952283 
L 630.300501 10.095547 
z
" clip-path="url(#p6f762a3bf4)" style="fill: #ff0000"/>
   </g>
   <g id="patch_44">
    <path d="M 107.699499 35.881579 
Q 106.218967 35.549183 104.618029 35.381053 
Q 103.017092 35.21099 101.273453 35.21099 
Q 96.073751 35.21099 93.036876 36.471001 
Q 90 37.731012 90 39.885784 
Q 90 42.048287 93.036876 43.306366 
Q 96.073751 44.566376 101.273453 44.566376 
Q 103.017092 44.566376 104.618029 44.396313 
Q 106.218967 44.228183 107.699499 43.895788 
L 107.699499 42.030895 
Q 106.205588 42.471512 104.756272 42.67636 
Q 103.306955 42.881209 101.706018 42.881209 
Q 98.834142 42.881209 97.18861 42.083073 
Q 95.547538 41.28687 95.547538 39.885784 
Q 95.547538 38.490496 97.18861 37.692361 
Q 98.834142 36.896158 101.706018 36.896158 
Q 103.306955 36.896158 104.756272 37.101006 
Q 106.205588 37.307787 107.699499 37.748404 
L 107.699499 35.881579 
z
" clip-path="url(#p6f762a3bf4)" style="fill: #0000ff"/>
   </g>
   <g id="patch_45">
    <path d="M 107.699499 45.799077 
Q 105.914476 45.182726 103.994584 44.873144 
Q 102.074692 44.566376 100.027865 44.566376 
Q 95.402671 44.566376 92.701335 46.401355 
Q 90 48.236334 90 51.374373 
Q 90 54.548999 92.748936 56.369906 
Q 95.501839 58.190812 100.289668 58.190812 
Q 102.134193 58.190812 103.824015 57.943147 
Q 105.517804 57.698295 107.017224 57.214221 
L 107.017224 54.49834 
Q 105.470203 55.120319 103.93905 55.427087 
Q 102.407896 55.736669 100.868809 55.736669 
Q 98.020705 55.736669 96.477652 54.605286 
Q 94.934598 53.476718 94.934598 51.374373 
Q 94.934598 49.291728 96.422118 48.154717 
Q 97.909637 47.02052 100.646673 47.02052 
Q 101.392416 47.02052 102.031058 47.08525 
Q 102.6697 47.152796 103.17744 47.293515 
L 103.17744 49.843347 
L 100.261901 49.843347 
L 100.261901 52.114556 
L 107.699499 52.114556 
L 107.699499 45.799077 
z
" clip-path="url(#p6f762a3bf4)" style="fill: #ffa600"/>
   </g>
   <g id="patch_46">
    <path d="M 126.330551 35.660826 
Q 124.850018 35.437853 123.249081 35.32507 
Q 121.648144 35.21099 119.904504 35.21099 
Q 114.704803 35.21099 111.667927 36.056215 
Q 108.631052 36.901439 108.631052 38.346877 
Q 108.631052 39.7975 111.667927 40.641428 
Q 114.704803 41.486652 119.904504 41.486652 
Q 121.648144 41.486652 123.249081 41.372573 
Q 124.850018 41.25979 126.330551 41.036817 
L 126.330551 39.785832 
Q 124.83664 40.081402 123.387324 40.218816 
Q 121.938007 40.356229 120.33707 40.356229 
Q 117.465193 40.356229 115.819662 39.820834 
Q 114.178589 39.286735 114.178589 38.346877 
Q 114.178589 37.410907 115.819662 36.875512 
Q 117.465193 36.341413 120.33707 36.341413 
Q 121.938007 36.341413 123.387324 36.478827 
Q 124.83664 36.617537 126.330551 36.913106 
L 126.330551 35.660826 
z
" clip-path="url(#p6f762a3bf4)" style="fill: #0000ff"/>
   </g>
   <g id="patch_47">
    <path d="M 126.330551 46.745203 
Q 124.545527 44.115928 122.625636 42.795287 
Q 120.705744 41.486652 118.658917 41.486652 
Q 114.033723 41.486652 111.332387 49.314449 
Q 108.631052 57.142245 108.631052 70.528738 
Q 108.631052 84.071306 111.379988 91.839074 
Q 114.132891 99.606841 118.92072 99.606841 
Q 120.765244 99.606841 122.455067 98.550329 
Q 124.148856 97.505822 125.648275 95.440821 
L 125.648275 83.855201 
Q 124.101255 86.508488 122.570102 87.817123 
Q 121.038948 89.137764 119.499861 89.137764 
Q 116.651757 89.137764 115.108704 84.311423 
Q 113.56565 79.497088 113.56565 70.528738 
Q 113.56565 61.644429 115.053169 56.794077 
Q 116.540689 51.95573 119.277725 51.95573 
Q 120.023468 51.95573 120.66211 52.231864 
Q 121.300752 52.520004 121.808492 53.120295 
L 121.808492 63.99757 
L 118.892953 63.99757 
L 118.892953 73.686269 
L 126.330551 73.686269 
L 126.330551 46.745203 
z
" clip-path="url(#p6f762a3bf4)" style="fill: #ffa600"/>
   </g>
   <g id="patch_48">
    <path d="M 139.522562 35.289904 
L 132.715619 35.289904 
L 131.640839 35.21099 
L 127.262104 35.21099 
L 133.515372 35.644181 
L 138.708335 35.644181 
L 144.961603 35.21099 
L 140.586486 35.21099 
L 139.522562 35.289904 
z
M 133.801256 35.370303 
L 138.426069 35.370303 
L 136.117281 35.542614 
L 133.801256 35.370303 
z
" clip-path="url(#p6f762a3bf4)" style="fill: #008000"/>
   </g>
   <g id="patch_49">
    <path d="M 144.961603 43.990045 
Q 143.48107 41.078075 141.880133 39.605159 
Q 140.279195 38.115314 138.535556 38.115314 
Q 133.335855 38.115314 130.298979 49.153714 
Q 127.262104 60.192113 127.262104 79.069131 
Q 127.262104 98.013869 130.298979 109.035339 
Q 133.335855 120.073738 138.535556 120.073738 
Q 140.279195 120.073738 141.880133 118.583893 
Q 143.48107 117.110978 144.961603 114.199007 
L 144.961603 97.861498 
Q 143.467692 101.721552 142.018375 103.516139 
Q 140.569059 105.310725 138.968121 105.310725 
Q 136.096245 105.310725 134.450713 98.31861 
Q 132.809641 91.343425 132.809641 79.069131 
Q 132.809641 66.845627 134.450713 59.853512 
Q 136.096245 52.878327 138.968121 52.878327 
Q 140.569059 52.878327 142.018375 54.672913 
Q 143.467692 56.48443 144.961603 60.344484 
L 144.961603 43.990045 
z
" clip-path="url(#p6f762a3bf4)" style="fill: #0000ff"/>
   </g>
   <g id="patch_50">
    <path d="M 144.961603 35.867762 
Q 143.176579 35.755971 141.256687 35.699821 
Q 139.336795 35.644181 137.289969 35.644181 
Q 132.664774 35.644181 129.963439 35.977 
Q 127.262104 36.309819 127.262104 36.878982 
Q 127.262104 37.45478 130.01104 37.785047 
Q 132.763942 38.115314 137.551772 38.115314 
Q 139.396296 38.115314 141.086118 38.070393 
Q 142.779907 38.025984 144.279327 37.938185 
L 144.279327 37.445591 
Q 142.732307 37.558403 141.201153 37.614043 
Q 139.67 37.670193 138.130913 37.670193 
Q 135.282809 37.670193 133.739755 37.464989 
Q 132.196702 37.260295 132.196702 36.878982 
Q 132.196702 36.501242 133.684221 36.295016 
Q 135.171741 36.089301 137.908777 36.089301 
Q 138.65452 36.089301 139.293162 36.101042 
Q 139.931803 36.113293 140.439543 36.138816 
L 140.439543 36.601292 
L 137.524005 36.601292 
L 137.524005 37.013232 
L 144.961603 37.013232 
L 144.961603 35.867762 
z
" clip-path="url(#p6f762a3bf4)" style="fill: #ffa600"/>
   </g>
   <g id="patch_51">
    <path d="M 158.153614 40.117224 
L 151.346671 40.117224 
L 150.27189 38.426021 
L 145.893155 38.426021 
L 152.146423 47.70973 
L 157.339386 47.70973 
L 163.592654 38.426021 
L 159.217538 38.426021 
L 158.153614 40.117224 
z
M 152.432308 41.840261 
L 157.057121 41.840261 
L 154.748333 45.533053 
L 152.432308 41.840261 
z
" clip-path="url(#p6f762a3bf4)" style="fill: #008000"/>
   </g>
   <g id="patch_52">
    <path d="M 163.592654 35.441442 
Q 162.112122 35.327212 160.511185 35.269433 
Q 158.910247 35.21099 157.166608 35.21099 
Q 151.966906 35.21099 148.930031 35.644 
Q 145.893155 36.07701 145.893155 36.81751 
Q 145.893155 37.560666 148.930031 37.993012 
Q 151.966906 38.426021 157.166608 38.426021 
Q 158.910247 38.426021 160.511185 38.367578 
Q 162.112122 38.309799 163.592654 38.19557 
L 163.592654 37.554689 
Q 162.098744 37.706109 160.649427 37.776507 
Q 159.200111 37.846904 157.599173 37.846904 
Q 154.727297 37.846904 153.081765 37.57262 
Q 151.440693 37.299001 151.440693 36.81751 
Q 151.440693 36.338011 153.081765 36.063727 
Q 154.727297 35.790108 157.599173 35.790108 
Q 159.200111 35.790108 160.649427 35.860505 
Q 162.098744 35.931566 163.592654 36.082987 
L 163.592654 35.441442 
z
" clip-path="url(#p6f762a3bf4)" style="fill: #0000ff"/>
   </g>
   <g id="patch_53">
    <path d="M 163.592654 49.268422 
Q 161.807631 48.489076 159.887739 48.097624 
Q 157.967847 47.70973 155.92102 47.70973 
Q 151.295826 47.70973 148.594491 50.029974 
Q 145.893155 52.350218 145.893155 56.31812 
Q 145.893155 60.332285 148.642091 62.634736 
Q 151.394994 64.937187 156.182824 64.937187 
Q 158.027348 64.937187 159.71717 64.624025 
Q 161.410959 64.314422 162.910379 63.702333 
L 162.910379 60.268229 
Q 161.363358 61.054692 159.832205 61.442586 
Q 158.301052 61.834038 156.761965 61.834038 
Q 153.913861 61.834038 152.370807 60.403458 
Q 150.827753 58.976437 150.827753 56.31812 
Q 150.827753 53.684714 152.315273 52.247017 
Q 153.802792 50.812879 156.539828 50.812879 
Q 157.285572 50.812879 157.924213 50.894728 
Q 158.562855 50.980135 159.070595 51.158068 
L 159.070595 54.382211 
L 156.155057 54.382211 
L 156.155057 57.254047 
L 163.592654 57.254047 
L 163.592654 49.268422 
z
" clip-path="url(#p6f762a3bf4)" style="fill: #ffa600"/>
   </g>
   <g id="patch_54">
    <path d="M 182.223706 36.540142 
Q 180.743174 35.881312 179.142236 35.548066 
Q 177.541299 35.21099 175.79766 35.21099 
Q 170.597958 35.21099 167.561083 37.708417 
Q 164.524207 40.205843 164.524207 44.476749 
Q 164.524207 48.762977 167.561083 51.256573 
Q 170.597958 53.754 175.79766 53.754 
Q 177.541299 53.754 179.142236 53.416924 
Q 180.743174 53.083678 182.223706 52.424848 
L 182.223706 48.728503 
Q 180.729795 49.601836 179.280479 50.00786 
Q 177.831162 50.413883 176.230225 50.413883 
Q 173.358349 50.413883 171.712817 48.831924 
Q 170.071745 47.253796 170.071745 44.476749 
Q 170.071745 41.711194 171.712817 40.129235 
Q 173.358349 38.551107 176.230225 38.551107 
Q 177.831162 38.551107 179.280479 38.95713 
Q 180.729795 39.366984 182.223706 40.240317 
L 182.223706 36.540142 
z
" clip-path="url(#p6f762a3bf4)" style="fill: #0000ff"/>
   </g>
   <g id="patch_55">
    <path d="M 182.223706 57.037068 
Q 180.438683 55.395534 178.518791 54.571019 
Q 176.598899 53.754 174.552072 53.754 
Q 169.926878 53.754 167.225542 58.641124 
Q 164.524207 63.528249 164.524207 71.885833 
Q 164.524207 80.340859 167.273143 85.190506 
Q 170.026046 90.040153 174.813876 90.040153 
Q 176.6584 90.040153 178.348222 89.380541 
Q 180.042011 88.728424 181.541431 87.439183 
L 181.541431 80.205938 
Q 179.99441 81.862464 178.463257 82.679483 
Q 176.932103 83.503998 175.393016 83.503998 
Q 172.544912 83.503998 171.001859 80.490771 
Q 169.458805 77.485039 169.458805 71.885833 
Q 169.458805 66.339096 170.946325 63.310877 
Q 172.433844 60.290154 175.17088 60.290154 
Q 175.916623 60.290154 176.555265 60.462553 
Q 177.193907 60.642447 177.701647 61.017227 
L 177.701647 67.808232 
L 174.786108 67.808232 
L 174.786108 73.857173 
L 182.223706 73.857173 
L 182.223706 57.037068 
z
" clip-path="url(#p6f762a3bf4)" style="fill: #ffa600"/>
   </g>
   <g id="patch_56">
    <path d="M 200.854758 44.771525 
Q 199.374225 44.112041 197.773288 43.778465 
Q 196.172351 43.441055 194.428711 43.441055 
Q 189.22901 43.441055 186.192134 45.940958 
Q 183.155259 48.440861 183.155259 52.716001 
Q 183.155259 57.006479 186.192134 59.502547 
Q 189.22901 62.00245 194.428711 62.00245 
Q 196.172351 62.00245 197.773288 61.66504 
Q 199.374225 61.331464 200.854758 60.671981 
L 200.854758 56.971971 
Q 199.360847 57.84617 197.911531 58.252596 
Q 196.462214 58.659022 194.861277 58.659022 
Q 191.9894 58.659022 190.343869 57.075495 
Q 188.702796 55.495801 188.702796 52.716001 
Q 188.702796 49.947704 190.343869 48.364177 
Q 191.9894 46.784484 194.861277 46.784484 
Q 196.462214 46.784484 197.911531 47.190909 
Q 199.360847 47.60117 200.854758 48.475369 
L 200.854758 44.771525 
z
" clip-path="url(#p6f762a3bf4)" style="fill: #0000ff"/>
   </g>
   <g id="patch_57">
    <path d="M 200.854758 35.440156 
Q 199.069734 35.325573 197.149843 35.26802 
Q 195.229951 35.21099 193.183124 35.21099 
Q 188.55793 35.21099 185.856594 35.552123 
Q 183.155259 35.893256 183.155259 36.476635 
Q 183.155259 37.066815 185.904195 37.405332 
Q 188.657098 37.743848 193.444927 37.743848 
Q 195.289451 37.743848 196.979274 37.697806 
Q 198.673063 37.652287 200.172482 37.562295 
L 200.172482 37.057397 
Q 198.625462 37.173027 197.094309 37.230057 
Q 195.563155 37.28761 194.024068 37.28761 
Q 191.175964 37.28761 189.632911 37.077279 
Q 188.089857 36.867472 188.089857 36.476635 
Q 188.089857 36.089459 189.577376 35.878083 
Q 191.064896 35.667229 193.801932 35.667229 
Q 194.547675 35.667229 195.186317 35.679263 
Q 195.824959 35.69182 196.332699 35.71798 
L 196.332699 36.192008 
L 193.41716 36.192008 
L 193.41716 36.614239 
L 200.854758 36.614239 
L 200.854758 35.440156 
z
" clip-path="url(#p6f762a3bf4)" style="fill: #ffa600"/>
   </g>
   <g id="patch_58">
    <path d="M 183.155259 43.441055 
L 200.854758 43.441055 
L 200.854758 42.329941 
L 194.487054 42.329941 
L 194.487054 37.743848 
L 189.535311 37.743848 
L 189.535311 42.329941 
L 183.155259 42.329941 
L 183.155259 43.441055 
z
" clip-path="url(#p6f762a3bf4)" style="fill: #ff0000"/>
   </g>
   <g id="patch_59">
    <path d="M 219.48581 36.159236 
Q 218.005277 35.689212 216.40434 35.451468 
Q 214.803402 35.21099 213.059763 35.21099 
Q 207.860062 35.21099 204.823186 36.992709 
Q 201.786311 38.774428 201.786311 41.821386 
Q 201.786311 44.879275 204.823186 46.658262 
Q 207.860062 48.439981 213.059763 48.439981 
Q 214.803402 48.439981 216.40434 48.199503 
Q 218.005277 47.961759 219.48581 47.491734 
L 219.48581 44.854681 
Q 217.991899 45.477736 216.542582 45.767402 
Q 215.093266 46.057068 213.492328 46.057068 
Q 210.620452 46.057068 208.97492 44.928464 
Q 207.333848 43.802592 207.333848 41.821386 
Q 207.333848 39.848378 208.97492 38.719774 
Q 210.620452 37.593903 213.492328 37.593903 
Q 215.093266 37.593903 216.542582 37.883569 
Q 217.991899 38.175967 219.48581 38.799022 
L 219.48581 36.159236 
z
" clip-path="url(#p6f762a3bf4)" style="fill: #0000ff"/>
   </g>
   <g id="patch_60">
    <path d="M 219.48581 53.041083 
Q 217.700786 50.740532 215.780894 49.585004 
Q 213.861002 48.439981 211.814176 48.439981 
Q 207.188981 48.439981 204.487646 55.28911 
Q 201.786311 62.13824 201.786311 73.851093 
Q 201.786311 85.700507 204.535247 92.497113 
Q 207.288149 99.293719 212.075979 99.293719 
Q 213.920503 99.293719 215.610325 98.369296 
Q 217.304114 97.455379 218.803534 95.648553 
L 218.803534 85.511421 
Q 217.256514 87.832982 215.72536 88.978005 
Q 214.194207 90.133533 212.65512 90.133533 
Q 209.807016 90.133533 208.263962 85.910603 
Q 206.720909 81.698178 206.720909 73.851093 
Q 206.720909 66.07754 208.208428 61.833601 
Q 209.695948 57.600167 212.432984 57.600167 
Q 213.178727 57.600167 213.817369 57.841777 
Q 214.45601 58.093892 214.96375 58.619132 
L 214.96375 68.136481 
L 212.048212 68.136481 
L 212.048212 76.613855 
L 219.48581 76.613855 
L 219.48581 53.041083 
z
" clip-path="url(#p6f762a3bf4)" style="fill: #ffa600"/>
   </g>
   <g id="patch_61">
    <path d="M 238.116861 36.744527 
Q 236.636329 36.566792 235.035392 36.476891 
Q 233.434454 36.385957 231.690815 36.385957 
Q 226.491113 36.385957 223.454238 37.059696 
Q 220.417362 37.733435 220.417362 38.885611 
Q 220.417362 40.04192 223.454238 40.714626 
Q 226.491113 41.388365 231.690815 41.388365 
Q 233.434454 41.388365 235.035392 41.297431 
Q 236.636329 41.20753 238.116861 41.029795 
L 238.116861 40.03262 
Q 236.622951 40.268222 235.173634 40.377757 
Q 233.724318 40.487291 232.12338 40.487291 
Q 229.251504 40.487291 227.605972 40.060521 
Q 225.9649 39.634784 225.9649 38.885611 
Q 225.9649 38.139538 227.605972 37.712768 
Q 229.251504 37.287031 232.12338 37.287031 
Q 233.724318 37.287031 235.173634 37.396566 
Q 236.622951 37.507133 238.116861 37.742735 
L 238.116861 36.744527 
z
" clip-path="url(#p6f762a3bf4)" style="fill: #0000ff"/>
   </g>
   <g id="patch_62">
    <path d="M 238.116861 42.141861 
Q 236.331838 41.765113 234.411946 41.575879 
Q 232.492054 41.388365 230.445227 41.388365 
Q 225.820033 41.388365 223.118698 42.510007 
Q 220.417362 43.63165 220.417362 45.549796 
Q 220.417362 47.490306 223.166298 48.603347 
Q 225.919201 49.716387 230.707031 49.716387 
Q 232.551555 49.716387 234.241377 49.565 
Q 235.935166 49.415333 237.434586 49.11944 
L 237.434586 47.45934 
Q 235.887565 47.839529 234.356412 48.027043 
Q 232.825259 48.216277 231.286172 48.216277 
Q 228.438068 48.216277 226.895014 47.524712 
Q 225.35196 46.834867 225.35196 45.549796 
Q 225.35196 44.276766 226.83948 43.581761 
Q 228.327 42.888475 231.064035 42.888475 
Q 231.809779 42.888475 232.44842 42.928043 
Q 233.087062 42.96933 233.594802 43.055346 
L 233.594802 44.613947 
L 230.679264 44.613947 
L 230.679264 46.002237 
L 238.116861 46.002237 
L 238.116861 42.141861 
z
" clip-path="url(#p6f762a3bf4)" style="fill: #ffa600"/>
   </g>
   <g id="patch_63">
    <path d="M 220.417362 36.385957 
L 238.116861 36.385957 
L 238.116861 36.156806 
L 231.749158 36.156806 
L 231.749158 35.21099 
L 226.797414 35.21099 
L 226.797414 36.156806 
L 220.417362 36.156806 
L 220.417362 36.385957 
z
" clip-path="url(#p6f762a3bf4)" style="fill: #ff0000"/>
   </g>
   <g id="patch_64">
    <path d="M 251.308873 35.302522 
L 244.50193 35.302522 
L 243.427149 35.21099 
L 239.048414 35.21099 
L 245.301682 35.713446 
L 250.494645 35.713446 
L 256.747913 35.21099 
L 252.372797 35.21099 
L 251.308873 35.302522 
z
M 245.587567 35.395777 
L 250.212379 35.395777 
L 247.903592 35.59564 
L 245.587567 35.395777 
z
" clip-path="url(#p6f762a3bf4)" style="fill: #008000"/>
   </g>
   <g id="patch_65">
    <path d="M 256.747913 36.121987 
Q 255.267381 35.919483 253.666443 35.817053 
Q 252.065506 35.713446 250.321867 35.713446 
Q 245.122165 35.713446 242.08529 36.481079 
Q 239.048414 37.248712 239.048414 38.561459 
Q 239.048414 39.878915 242.08529 40.64537 
Q 245.122165 41.413003 250.321867 41.413003 
Q 252.065506 41.413003 253.666443 41.309396 
Q 255.267381 41.206967 256.747913 41.004462 
L 256.747913 39.868319 
Q 255.254002 40.136755 253.804686 40.261554 
Q 252.355369 40.386353 250.754432 40.386353 
Q 247.882556 40.386353 246.237024 39.900107 
Q 244.595952 39.415038 244.595952 38.561459 
Q 244.595952 37.711411 246.237024 37.225165 
Q 247.882556 36.740097 250.754432 36.740097 
Q 252.355369 36.740097 253.804686 36.864896 
Q 255.254002 36.990872 256.747913 37.259308 
L 256.747913 36.121987 
z
" clip-path="url(#p6f762a3bf4)" style="fill: #0000ff"/>
   </g>
   <g id="patch_66">
    <path d="M 256.747913 48.187543 
Q 254.96289 44.800273 253.042998 43.098905 
Q 251.123106 41.413003 249.076279 41.413003 
Q 244.451085 41.413003 241.74975 51.497478 
Q 239.048414 61.581952 239.048414 78.827641 
Q 239.048414 96.274401 241.79735 106.281541 
Q 244.550253 116.288681 249.338083 116.288681 
Q 251.182607 116.288681 252.872429 114.927586 
Q 254.566218 113.581958 256.065638 110.921637 
L 256.065638 95.995996 
Q 254.518617 99.414199 252.987464 101.100101 
Q 251.45631 102.801469 249.917223 102.801469 
Q 247.069119 102.801469 245.526066 96.583741 
Q 243.983012 90.38148 243.983012 78.827641 
Q 243.983012 67.382072 245.470532 61.13341 
Q 246.958051 54.900215 249.695087 54.900215 
Q 250.44083 54.900215 251.079472 55.255955 
Q 251.718114 55.627163 252.225854 56.400512 
L 252.225854 70.413601 
L 249.310315 70.413601 
L 249.310315 82.895459 
L 256.747913 82.895459 
L 256.747913 48.187543 
z
" clip-path="url(#p6f762a3bf4)" style="fill: #ffa600"/>
   </g>
   <g id="patch_67">
    <path d="M 269.939924 37.641447 
L 263.132981 37.641447 
L 262.058201 37.109655 
L 257.679466 37.109655 
L 263.932734 40.02888 
L 269.125697 40.02888 
L 275.378965 37.109655 
L 271.003849 37.109655 
L 269.939924 37.641447 
z
M 264.218618 38.183249 
L 268.843431 38.183249 
L 266.534644 39.344432 
L 264.218618 38.183249 
z
" clip-path="url(#p6f762a3bf4)" style="fill: #008000"/>
   </g>
   <g id="patch_68">
    <path d="M 275.378965 45.004589 
Q 273.898432 42.538243 272.297495 41.290731 
Q 270.696558 40.02888 268.952919 40.02888 
Q 263.753217 40.02888 260.716341 49.378051 
Q 257.679466 58.727223 257.679466 74.715453 
Q 257.679466 90.76104 260.716341 100.095872 
Q 263.753217 109.445044 268.952919 109.445044 
Q 270.696558 109.445044 272.297495 108.183193 
Q 273.898432 106.93568 275.378965 104.469335 
L 275.378965 90.631987 
Q 273.885054 93.901329 272.435738 95.421287 
Q 270.986421 96.941244 269.385484 96.941244 
Q 266.513607 96.941244 264.868076 91.019146 
Q 263.227003 85.111387 263.227003 74.715453 
Q 263.227003 64.362536 264.868076 58.440438 
Q 266.513607 52.532679 269.385484 52.532679 
Q 270.986421 52.532679 272.435738 54.052637 
Q 273.885054 55.586933 275.378965 58.856275 
L 275.378965 45.004589 
z
" clip-path="url(#p6f762a3bf4)" style="fill: #0000ff"/>
   </g>
   <g id="patch_69">
    <path d="M 275.378965 35.755655 
Q 273.593941 35.688309 271.67405 35.654482 
Q 269.754158 35.620962 267.707331 35.620962 
Q 263.082137 35.620962 260.380801 35.821464 
Q 257.679466 36.021965 257.679466 36.364847 
Q 257.679466 36.711727 260.428402 36.910691 
Q 263.181305 37.109655 267.969134 37.109655 
Q 269.813659 37.109655 271.503481 37.082593 
Q 273.19727 37.055839 274.696689 37.002946 
L 274.696689 36.706192 
Q 273.149669 36.774153 271.618516 36.807673 
Q 270.087362 36.841499 268.548275 36.841499 
Q 265.700171 36.841499 264.157118 36.717877 
Q 262.614064 36.594563 262.614064 36.364847 
Q 262.614064 36.137284 264.101583 36.013047 
Q 265.589103 35.889118 268.326139 35.889118 
Q 269.071882 35.889118 269.710524 35.896191 
Q 270.349166 35.903571 270.856906 35.918947 
L 270.856906 36.197558 
L 267.941367 36.197558 
L 267.941367 36.445724 
L 275.378965 36.445724 
L 275.378965 35.755655 
z
" clip-path="url(#p6f762a3bf4)" style="fill: #ffa600"/>
   </g>
   <g id="patch_70">
    <path d="M 257.679466 35.620962 
L 275.378965 35.620962 
L 275.378965 35.541006 
L 269.011261 35.541006 
L 269.011261 35.21099 
L 264.059518 35.21099 
L 264.059518 35.541006 
L 257.679466 35.541006 
L 257.679466 35.620962 
z
" clip-path="url(#p6f762a3bf4)" style="fill: #ff0000"/>
   </g>
   <g id="patch_71">
    <path d="M 294.010017 49.9325 
Q 292.529484 48.64546 290.928547 47.994457 
Q 289.32761 47.335972 287.58397 47.335972 
Q 282.384269 47.335972 279.347393 52.214751 
Q 276.310518 57.093531 276.310518 65.436842 
Q 276.310518 73.810084 279.347393 78.681381 
Q 282.384269 83.56016 287.58397 83.56016 
Q 289.32761 83.56016 290.928547 82.901675 
Q 292.529484 82.250672 294.010017 80.963632 
L 294.010017 73.742739 
Q 292.516106 75.448816 291.066789 76.241991 
Q 289.617473 77.035167 288.016535 77.035167 
Q 285.144659 77.035167 283.499127 73.944775 
Q 281.858055 70.861865 281.858055 65.436842 
Q 281.858055 60.034267 283.499127 56.943875 
Q 285.144659 53.860965 288.016535 53.860965 
Q 289.617473 53.860965 291.066789 54.654141 
Q 292.516106 55.454799 294.010017 57.160876 
L 294.010017 49.9325 
z
" clip-path="url(#p6f762a3bf4)" style="fill: #0000ff"/>
   </g>
   <g id="patch_72">
    <path d="M 294.010017 36.308024 
Q 292.224993 35.759507 290.305101 35.483996 
Q 288.385209 35.21099 286.338383 35.21099 
Q 281.713188 35.21099 279.011853 36.844018 
Q 276.310518 38.477046 276.310518 41.269724 
Q 276.310518 44.094962 279.059454 45.715467 
Q 281.812356 47.335972 286.600186 47.335972 
Q 288.44471 47.335972 290.134532 47.115563 
Q 291.828321 46.897659 293.327741 46.46686 
L 293.327741 44.049879 
Q 291.780721 44.603405 290.249567 44.876411 
Q 288.718414 45.151922 287.179327 45.151922 
Q 284.331223 45.151922 282.788169 44.145055 
Q 281.245116 43.140693 281.245116 41.269724 
Q 281.245116 39.416287 282.732635 38.404411 
Q 284.220155 37.39504 286.957191 37.39504 
Q 287.702934 37.39504 288.341576 37.452647 
Q 288.980217 37.512758 289.487957 37.63799 
L 289.487957 39.907198 
L 286.572419 39.907198 
L 286.572419 41.928445 
L 294.010017 41.928445 
L 294.010017 36.308024 
z
" clip-path="url(#p6f762a3bf4)" style="fill: #ffa600"/>
   </g>
   <g id="patch_73">
    <path d="M 312.641068 35.945113 
Q 311.160536 35.581225 309.559599 35.397165 
Q 307.958661 35.21099 306.215022 35.21099 
Q 301.01532 35.21099 297.978445 36.590379 
Q 294.941569 37.969769 294.941569 40.328693 
Q 294.941569 42.696081 297.978445 44.073354 
Q 301.01532 45.452744 306.215022 45.452744 
Q 307.958661 45.452744 309.559599 45.266568 
Q 311.160536 45.082509 312.641068 44.718621 
L 312.641068 42.67704 
Q 311.147158 43.159403 309.697841 43.38366 
Q 308.248525 43.607916 306.647587 43.607916 
Q 303.775711 43.607916 302.130179 42.734162 
Q 300.489107 41.862524 300.489107 40.328693 
Q 300.489107 38.80121 302.130179 37.927456 
Q 303.775711 37.055817 306.647587 37.055817 
Q 308.248525 37.055817 309.697841 37.280074 
Q 311.147158 37.506446 312.641068 37.988809 
L 312.641068 35.945113 
z
" clip-path="url(#p6f762a3bf4)" style="fill: #0000ff"/>
   </g>
   <g id="patch_74">
    <path d="M 312.641068 51.68274 
Q 310.856045 48.567742 308.936153 47.003131 
Q 307.016261 45.452744 304.969434 45.452744 
Q 300.34424 45.452744 297.642905 54.72662 
Q 294.941569 64.000495 294.941569 79.859961 
Q 294.941569 95.904335 297.690505 105.107092 
Q 300.443408 114.30985 305.231238 114.30985 
Q 307.075762 114.30985 308.765584 113.058161 
Q 310.459373 111.820696 311.958793 109.374213 
L 311.958793 95.648308 
Q 310.411772 98.791754 308.880619 100.342141 
Q 307.349466 101.906752 305.810379 101.906752 
Q 302.962275 101.906752 301.419221 96.18881 
Q 299.876167 90.485092 299.876167 79.859961 
Q 299.876167 69.334396 301.363687 63.588007 
Q 302.851207 57.855841 305.588242 57.855841 
Q 306.333986 57.855841 306.972627 58.182987 
Q 307.611269 58.524357 308.119009 59.235544 
L 308.119009 72.122249 
L 305.203471 72.122249 
L 305.203471 83.600804 
L 312.641068 83.600804 
L 312.641068 51.68274 
z
" clip-path="url(#p6f762a3bf4)" style="fill: #ffa600"/>
   </g>
   <g id="patch_75">
    <path d="M 325.83308 38.878148 
L 319.026137 38.878148 
L 317.951356 38.096618 
L 313.572621 38.096618 
L 319.825889 42.38676 
L 325.018852 42.38676 
L 331.27212 38.096618 
L 326.897004 38.096618 
L 325.83308 38.878148 
z
M 320.111774 39.67439 
L 324.736586 39.67439 
L 322.427799 41.380884 
L 320.111774 39.67439 
z
" clip-path="url(#p6f762a3bf4)" style="fill: #008000"/>
   </g>
   <g id="patch_76">
    <path d="M 331.27212 49.358462 
Q 329.791588 48.720515 328.19065 48.397833 
Q 326.589713 48.071441 324.846074 48.071441 
Q 319.646372 48.071441 316.609497 50.489706 
Q 313.572621 52.90797 313.572621 57.043499 
Q 313.572621 61.193864 316.609497 63.60842 
Q 319.646372 66.026684 324.846074 66.026684 
Q 326.589713 66.026684 328.19065 65.700293 
Q 329.791588 65.37761 331.27212 64.739663 
L 331.27212 61.160483 
Q 329.778209 62.006134 328.328893 62.399287 
Q 326.879576 62.792441 325.278639 62.792441 
Q 322.406763 62.792441 320.761231 61.260626 
Q 319.120159 59.73252 319.120159 57.043499 
Q 319.120159 54.365605 320.761231 52.83379 
Q 322.406763 51.305684 325.278639 51.305684 
Q 326.879576 51.305684 328.328893 51.698838 
Q 329.778209 52.0957 331.27212 52.941351 
L 331.27212 49.358462 
z
" clip-path="url(#p6f762a3bf4)" style="fill: #0000ff"/>
   </g>
   <g id="patch_77">
    <path d="M 331.27212 42.901094 
Q 329.487097 42.643927 327.567205 42.514756 
Q 325.647313 42.38676 323.600486 42.38676 
Q 318.975292 42.38676 316.273957 43.152389 
Q 313.572621 43.918019 313.572621 45.227339 
Q 313.572621 46.551925 316.321557 47.311683 
Q 319.07446 48.071441 323.86229 48.071441 
Q 325.706814 48.071441 327.396636 47.968105 
Q 329.090425 47.865942 330.589845 47.663967 
L 330.589845 46.530788 
Q 329.042824 46.790304 327.511671 46.9183 
Q 325.980517 47.04747 324.44143 47.04747 
Q 321.593326 47.04747 320.050273 46.575411 
Q 318.507219 46.104525 318.507219 45.227339 
Q 318.507219 44.358373 319.994739 43.883965 
Q 321.482258 43.410731 324.219294 43.410731 
Q 324.965037 43.410731 325.603679 43.437739 
Q 326.242321 43.465922 326.750061 43.524636 
L 326.750061 44.588532 
L 323.834523 44.588532 
L 323.834523 45.536174 
L 331.27212 45.536174 
L 331.27212 42.901094 
z
" clip-path="url(#p6f762a3bf4)" style="fill: #ffa600"/>
   </g>
   <g id="patch_78">
    <path d="M 313.572621 38.096618 
L 331.27212 38.096618 
L 331.27212 37.53384 
L 324.904417 37.53384 
L 324.904417 35.21099 
L 319.952673 35.21099 
L 319.952673 37.53384 
L 313.572621 37.53384 
L 313.572621 38.096618 
z
" clip-path="url(#p6f762a3bf4)" style="fill: #ff0000"/>
   </g>
   <g id="patch_79">
    <path d="M 344.464131 35.825395 
L 337.657188 35.825395 
L 336.582408 35.21099 
L 332.203673 35.21099 
L 338.456941 38.58371 
L 343.649904 38.58371 
L 349.903172 35.21099 
L 345.528056 35.21099 
L 344.464131 35.825395 
z
M 338.742825 36.451365 
L 343.367638 36.451365 
L 341.058851 37.792935 
L 338.742825 36.451365 
z
" clip-path="url(#p6f762a3bf4)" style="fill: #008000"/>
   </g>
   <g id="patch_80">
    <path d="M 349.903172 38.911713 
Q 348.422639 38.749129 346.821702 38.666892 
Q 345.220765 38.58371 343.477126 38.58371 
Q 338.277424 38.58371 335.240548 39.200015 
Q 332.203673 39.81632 332.203673 40.870278 
Q 332.203673 41.928016 335.240548 42.543376 
Q 338.277424 43.159681 343.477126 43.159681 
Q 345.220765 43.159681 346.821702 43.076499 
Q 348.422639 42.994262 349.903172 42.831678 
L 349.903172 41.919509 
Q 348.409261 42.135027 346.959945 42.235224 
Q 345.510628 42.33542 343.909691 42.33542 
Q 341.037814 42.33542 339.392283 41.945031 
Q 337.75121 41.555586 337.75121 40.870278 
Q 337.75121 40.187805 339.392283 39.797415 
Q 341.037814 39.407971 343.909691 39.407971 
Q 345.510628 39.407971 346.959945 39.508168 
Q 348.409261 39.60931 349.903172 39.824827 
L 349.903172 38.911713 
z
" clip-path="url(#p6f762a3bf4)" style="fill: #0000ff"/>
   </g>
   <g id="patch_81">
    <path d="M 349.903172 49.631387 
Q 348.118149 46.395534 346.198257 44.77022 
Q 344.278365 43.159681 342.231538 43.159681 
Q 337.606344 43.159681 334.905008 52.793362 
Q 332.203673 62.427043 332.203673 78.90182 
Q 332.203673 95.568679 334.952609 105.128482 
Q 337.705512 114.688285 342.493341 114.688285 
Q 344.337866 114.688285 346.027688 113.388033 
Q 347.721477 112.102558 349.220896 109.561157 
L 349.220896 95.302718 
Q 347.673876 98.568122 346.142723 100.178661 
Q 344.611569 101.803975 343.072482 101.803975 
Q 340.224378 101.803975 338.681325 95.86419 
Q 337.138271 89.939181 337.138271 78.90182 
Q 337.138271 67.967887 338.62579 61.998551 
Q 340.11331 56.043991 342.850346 56.043991 
Q 343.596089 56.043991 344.234731 56.383829 
Q 344.873373 56.738443 345.381113 57.477223 
L 345.381113 70.863902 
L 342.465574 70.863902 
L 342.465574 82.787798 
L 349.903172 82.787798 
L 349.903172 49.631387 
z
" clip-path="url(#p6f762a3bf4)" style="fill: #ffa600"/>
   </g>
   <g id="patch_82">
    <path d="M 368.534224 49.590758 
Q 367.053691 49.086438 365.452754 48.831345 
Q 363.851817 48.573321 362.108177 48.573321 
Q 356.908476 48.573321 353.8716 50.485048 
Q 350.834725 52.396775 350.834725 55.666062 
Q 350.834725 58.947078 353.8716 60.855873 
Q 356.908476 62.7676 362.108177 62.7676 
Q 363.851817 62.7676 365.452754 62.509575 
Q 367.053691 62.254483 368.534224 61.750162 
L 368.534224 58.920689 
Q 367.040313 59.589207 365.590996 59.900009 
Q 364.14168 60.210811 362.540743 60.210811 
Q 359.668866 60.210811 358.023334 58.999856 
Q 356.382262 57.791832 356.382262 55.666062 
Q 356.382262 53.549088 358.023334 52.338133 
Q 359.668866 51.130109 362.540743 51.130109 
Q 364.14168 51.130109 365.590996 51.440911 
Q 367.040313 51.754646 368.534224 52.423163 
L 368.534224 49.590758 
z
" clip-path="url(#p6f762a3bf4)" style="fill: #0000ff"/>
   </g>
   <g id="patch_83">
    <path d="M 368.534224 37.682857 
Q 366.7492 37.141178 364.829308 36.869102 
Q 362.909416 36.599499 360.86259 36.599499 
Q 356.237396 36.599499 353.53606 38.212168 
Q 350.834725 39.824837 350.834725 42.5827 
Q 350.834725 45.372717 353.583661 46.973019 
Q 356.336563 48.573321 361.124393 48.573321 
Q 362.968917 48.573321 364.658739 48.35566 
Q 366.352528 48.140473 367.851948 47.715044 
L 367.851948 45.328195 
Q 366.304928 45.874821 364.773774 46.144423 
Q 363.242621 46.416499 361.703534 46.416499 
Q 358.85543 46.416499 357.312376 45.422185 
Q 355.769323 44.430344 355.769323 42.5827 
Q 355.769323 40.75237 357.256842 39.753108 
Q 358.744362 38.75632 361.481398 38.75632 
Q 362.227141 38.75632 362.865783 38.813209 
Q 363.504424 38.872571 364.012164 38.996242 
L 364.012164 41.23716 
L 361.096626 41.23716 
L 361.096626 43.233209 
L 368.534224 43.233209 
L 368.534224 37.682857 
z
" clip-path="url(#p6f762a3bf4)" style="fill: #ffa600"/>
   </g>
   <g id="patch_84">
    <path d="M 350.834725 36.599499 
L 368.534224 36.599499 
L 368.534224 36.328701 
L 362.16652 36.328701 
L 362.16652 35.21099 
L 357.214777 35.21099 
L 357.214777 36.328701 
L 350.834725 36.328701 
L 350.834725 36.599499 
z
" clip-path="url(#p6f762a3bf4)" style="fill: #ff0000"/>
   </g>
   <g id="patch_85">
    <path d="M 387.165275 36.038493 
Q 385.684743 35.628319 384.083806 35.420847 
Q 382.482868 35.21099 380.739229 35.21099 
Q 375.539527 35.21099 372.502652 36.765837 
Q 369.465776 38.320683 369.465776 40.979661 
Q 369.465776 43.648178 372.502652 45.20064 
Q 375.539527 46.755486 380.739229 46.755486 
Q 382.482868 46.755486 384.083806 46.54563 
Q 385.684743 46.338158 387.165275 45.927984 
L 387.165275 43.626716 
Q 385.671365 44.170435 384.222048 44.423217 
Q 382.772732 44.675998 381.171794 44.675998 
Q 378.299918 44.675998 376.654386 43.691103 
Q 375.013314 42.708593 375.013314 40.979661 
Q 375.013314 39.257883 376.654386 38.272988 
Q 378.299918 37.290478 381.171794 37.290478 
Q 382.772732 37.290478 384.222048 37.54326 
Q 385.671365 37.798426 387.165275 38.342146 
L 387.165275 36.038493 
z
" clip-path="url(#p6f762a3bf4)" style="fill: #0000ff"/>
   </g>
   <g id="patch_86">
    <path d="M 387.165275 48.020499 
Q 385.380252 47.387993 383.46036 47.070295 
Q 381.540468 46.755486 379.493641 46.755486 
Q 374.868447 46.755486 372.167112 48.638564 
Q 369.465776 50.521643 369.465776 53.741937 
Q 369.465776 56.999778 372.214712 58.868415 
Q 374.967615 60.737052 379.755445 60.737052 
Q 381.599969 60.737052 383.289791 60.482895 
Q 384.98358 60.231625 386.483 59.734862 
L 386.483 56.947791 
Q 384.93598 57.586074 383.404826 57.900883 
Q 381.873673 58.21858 380.334586 58.21858 
Q 377.486482 58.21858 375.943428 57.057541 
Q 374.400374 55.89939 374.400374 53.741937 
Q 374.400374 51.604701 375.887894 50.437886 
Q 377.375414 49.273959 380.112449 49.273959 
Q 380.858193 49.273959 381.496834 49.340386 
Q 382.135476 49.409702 382.643216 49.55411 
L 382.643216 52.17078 
L 379.727678 52.17078 
L 379.727678 54.501522 
L 387.165275 54.501522 
L 387.165275 48.020499 
z
" clip-path="url(#p6f762a3bf4)" style="fill: #ffa600"/>
   </g>
   <g id="patch_87">
    <path d="M 405.796327 49.513965 
Q 404.315795 46.370057 402.714857 44.779825 
Q 401.11392 43.171314 399.370281 43.171314 
Q 394.170579 43.171314 391.133704 55.088918 
Q 388.096828 67.006522 388.096828 87.387087 
Q 388.096828 107.840767 391.133704 119.740092 
Q 394.170579 131.657696 399.370281 131.657696 
Q 401.11392 131.657696 402.714857 130.049185 
Q 404.315795 128.458953 405.796327 125.315045 
L 405.796327 107.67626 
Q 404.302416 111.843766 402.8531 113.78129 
Q 401.403783 115.718815 399.802846 115.718815 
Q 396.93097 115.718815 395.285438 108.16978 
Q 393.644366 100.639024 393.644366 87.387087 
Q 393.644366 74.189986 395.285438 66.640951 
Q 396.93097 59.110196 399.802846 59.110196 
Q 401.403783 59.110196 402.8531 61.04772 
Q 404.302416 63.003523 405.796327 67.171029 
L 405.796327 49.513965 
z
" clip-path="url(#p6f762a3bf4)" style="fill: #0000ff"/>
   </g>
   <g id="patch_88">
    <path d="M 405.796327 38.157382 
Q 404.011304 37.907995 402.091412 37.782732 
Q 400.17152 37.658608 398.124693 37.658608 
Q 393.499499 37.658608 390.798164 38.401075 
Q 388.096828 39.143543 388.096828 40.413253 
Q 388.096828 41.697767 390.845764 42.434541 
Q 393.598667 43.171314 398.386497 43.171314 
Q 400.231021 43.171314 401.920843 43.071104 
Q 403.614632 42.972032 405.114052 42.776167 
L 405.114052 41.677269 
Q 403.567031 41.928934 402.035878 42.053058 
Q 400.504724 42.178321 398.965637 42.178321 
Q 396.117533 42.178321 394.57448 41.720542 
Q 393.031426 41.263902 393.031426 40.413253 
Q 393.031426 39.570575 394.518946 39.110519 
Q 396.006465 38.651601 398.743501 38.651601 
Q 399.489244 38.651601 400.127886 38.677793 
Q 400.766528 38.705123 401.274268 38.76206 
L 401.274268 39.793771 
L 398.35873 39.793771 
L 398.35873 40.712745 
L 405.796327 40.712745 
L 405.796327 38.157382 
z
" clip-path="url(#p6f762a3bf4)" style="fill: #ffa600"/>
   </g>
   <g id="patch_89">
    <path d="M 388.096828 37.658608 
L 405.796327 37.658608 
L 405.796327 37.181254 
L 399.428624 37.181254 
L 399.428624 35.21099 
L 394.47688 35.21099 
L 394.47688 37.181254 
L 388.096828 37.181254 
L 388.096828 37.658608 
z
" clip-path="url(#p6f762a3bf4)" style="fill: #ff0000"/>
   </g>
   <g id="patch_90">
    <path d="M 418.988338 35.287332 
L 412.181395 35.287332 
L 411.106615 35.21099 
L 406.72788 35.21099 
L 412.981148 35.630062 
L 418.174111 35.630062 
L 424.427379 35.21099 
L 420.052263 35.21099 
L 418.988338 35.287332 
z
M 413.267032 35.365111 
L 417.891845 35.365111 
L 415.583058 35.531805 
L 413.267032 35.365111 
z
" clip-path="url(#p6f762a3bf4)" style="fill: #008000"/>
   </g>
   <g id="patch_91">
    <path d="M 424.427379 35.674784 
Q 422.946846 35.652616 421.345909 35.641403 
Q 419.744972 35.630062 418.001333 35.630062 
Q 412.801631 35.630062 409.764755 35.714094 
Q 406.72788 35.798126 406.72788 35.941831 
Q 406.72788 36.086051 409.764755 36.169954 
Q 412.801631 36.253986 418.001333 36.253986 
Q 419.744972 36.253986 421.345909 36.242645 
Q 422.946846 36.231432 424.427379 36.209264 
L 424.427379 36.084891 
Q 422.933468 36.114277 421.484152 36.127938 
Q 420.034835 36.1416 418.433898 36.1416 
Q 415.562021 36.1416 413.91649 36.088371 
Q 412.275417 36.035271 412.275417 35.941831 
Q 412.275417 35.848777 413.91649 35.795548 
Q 415.562021 35.742448 418.433898 35.742448 
Q 420.034835 35.742448 421.484152 35.75611 
Q 422.933468 35.7699 424.427379 35.799286 
L 424.427379 35.674784 
z
" clip-path="url(#p6f762a3bf4)" style="fill: #0000ff"/>
   </g>
   <g id="patch_92">
    <path d="M 424.427379 48.656478 
Q 422.642356 43.245995 420.722464 40.5284 
Q 418.802572 37.835511 416.755745 37.835511 
Q 412.130551 37.835511 409.429215 53.943434 
Q 406.72788 70.051357 406.72788 97.597882 
Q 406.72788 125.465576 409.476816 141.449972 
Q 412.229719 157.434368 417.017548 157.434368 
Q 418.862073 157.434368 420.551895 155.260293 
Q 422.245684 153.110923 423.745103 148.861593 
L 423.745103 125.020879 
Q 422.198083 130.480773 420.66693 133.173662 
Q 419.135776 135.891257 417.596689 135.891257 
Q 414.748585 135.891257 413.205532 125.959685 
Q 411.662478 116.052818 411.662478 97.597882 
Q 411.662478 79.315883 413.149997 69.3349 
Q 414.637517 59.378623 417.374553 59.378623 
Q 418.120296 59.378623 418.758938 59.946847 
Q 419.39758 60.539777 419.90532 61.775047 
L 419.90532 84.158142 
L 416.989781 84.158142 
L 416.989781 104.095403 
L 424.427379 104.095403 
L 424.427379 48.656478 
z
" clip-path="url(#p6f762a3bf4)" style="fill: #ffa600"/>
   </g>
   <g id="patch_93">
    <path d="M 406.72788 37.835511 
L 424.427379 37.835511 
L 424.427379 37.52707 
L 418.059675 37.52707 
L 418.059675 36.253986 
L 413.107932 36.253986 
L 413.107932 37.52707 
L 406.72788 37.52707 
L 406.72788 37.835511 
z
" clip-path="url(#p6f762a3bf4)" style="fill: #ff0000"/>
   </g>
   <g id="patch_94">
    <path d="M 437.61939 37.502699 
L 430.812447 37.502699 
L 429.737667 37.263725 
L 425.358932 37.263725 
L 431.6122 38.575549 
L 436.805163 38.575549 
L 443.058431 37.263725 
L 438.683314 37.263725 
L 437.61939 37.502699 
z
M 431.898084 37.74617 
L 436.522897 37.74617 
L 434.214109 38.267976 
L 431.898084 37.74617 
z
" clip-path="url(#p6f762a3bf4)" style="fill: #008000"/>
   </g>
   <g id="patch_95">
    <path d="M 443.058431 49.590126 
Q 441.577898 44.130451 439.976961 41.368871 
Q 438.376024 38.575549 436.632384 38.575549 
Q 431.432683 38.575549 428.395807 59.271526 
Q 425.358932 79.967502 425.358932 115.360161 
Q 425.358932 150.879789 428.395807 171.544024 
Q 431.432683 192.24 436.632384 192.24 
Q 438.376024 192.24 439.976961 189.446678 
Q 441.577898 186.685098 443.058431 181.225424 
L 443.058431 150.594109 
Q 441.56452 157.831352 440.115203 161.196035 
Q 438.665887 164.560719 437.06495 164.560719 
Q 434.193073 164.560719 432.547541 151.451151 
Q 430.906469 138.373325 430.906469 115.360161 
Q 430.906469 92.442224 432.547541 79.332656 
Q 434.193073 66.254831 437.06495 66.254831 
Q 438.665887 66.254831 440.115203 69.619514 
Q 441.56452 73.01594 443.058431 80.253183 
L 443.058431 49.590126 
z
" clip-path="url(#p6f762a3bf4)" style="fill: #0000ff"/>
   </g>
   <g id="patch_96">
    <path d="M 443.058431 36.171592 
Q 441.273407 36.117271 439.353515 36.089986 
Q 437.433623 36.06295 435.386797 36.06295 
Q 430.761603 36.06295 428.060267 36.224674 
Q 425.358932 36.386397 425.358932 36.662965 
Q 425.358932 36.942758 428.107868 37.103241 
Q 430.86077 37.263725 435.6486 37.263725 
Q 437.493124 37.263725 439.182946 37.241897 
Q 440.876735 37.220317 442.376155 37.177654 
L 442.376155 36.938293 
Q 440.829135 36.99311 439.297981 37.020147 
Q 437.766828 37.047432 436.227741 37.047432 
Q 433.379637 37.047432 431.836583 36.947718 
Q 430.29353 36.848253 430.29353 36.662965 
Q 430.29353 36.479414 431.781049 36.379204 
Q 433.268569 36.279243 436.005605 36.279243 
Q 436.751348 36.279243 437.38999 36.284948 
Q 438.028631 36.290901 438.536371 36.303303 
L 438.536371 36.52803 
L 435.620833 36.52803 
L 435.620833 36.7282 
L 443.058431 36.7282 
L 443.058431 36.171592 
z
" clip-path="url(#p6f762a3bf4)" style="fill: #ffa600"/>
   </g>
   <g id="patch_97">
    <path d="M 425.358932 36.06295 
L 443.058431 36.06295 
L 443.058431 35.896794 
L 436.690727 35.896794 
L 436.690727 35.21099 
L 431.738984 35.21099 
L 431.738984 35.896794 
L 425.358932 35.896794 
L 425.358932 36.06295 
z
" clip-path="url(#p6f762a3bf4)" style="fill: #ff0000"/>
   </g>
   <g id="patch_98">
    <path d="M 456.250442 37.232245 
L 449.443499 37.232245 
L 448.368719 36.632974 
L 443.989983 36.632974 
L 450.243251 39.922619 
L 455.436214 39.922619 
L 461.689482 36.632974 
L 457.314366 36.632974 
L 456.250442 37.232245 
z
M 450.529136 37.842796 
L 455.153949 37.842796 
L 452.845161 39.151322 
L 450.529136 37.842796 
z
" clip-path="url(#p6f762a3bf4)" style="fill: #008000"/>
   </g>
   <g id="patch_99">
    <path d="M 461.689482 35.732995 
Q 460.20895 35.69855 458.608013 35.681127 
Q 457.007075 35.663504 455.263436 35.663504 
Q 450.063734 35.663504 447.026859 35.794075 
Q 443.989983 35.924646 443.989983 36.147938 
Q 443.989983 36.372032 447.026859 36.502403 
Q 450.063734 36.632974 455.263436 36.632974 
Q 457.007075 36.632974 458.608013 36.615351 
Q 460.20895 36.597928 461.689482 36.563483 
L 461.689482 36.37023 
Q 460.195572 36.415889 458.746255 36.437117 
Q 457.296939 36.458345 455.696001 36.458345 
Q 452.824125 36.458345 451.178593 36.375637 
Q 449.537521 36.293129 449.537521 36.147938 
Q 449.537521 36.003349 451.178593 35.920641 
Q 452.824125 35.838133 455.696001 35.838133 
Q 457.296939 35.838133 458.746255 35.859361 
Q 460.195572 35.880789 461.689482 35.926448 
L 461.689482 35.732995 
z
" clip-path="url(#p6f762a3bf4)" style="fill: #0000ff"/>
   </g>
   <g id="patch_100">
    <path d="M 461.689482 50.582428 
Q 459.904459 45.252523 457.984567 42.575402 
Q 456.064675 39.922619 454.017848 39.922619 
Q 449.392654 39.922619 446.691319 55.790645 
Q 443.989983 71.65867 443.989983 98.794941 
Q 443.989983 126.247599 446.738919 141.993937 
Q 449.491822 157.740276 454.279652 157.740276 
Q 456.124176 157.740276 457.813998 155.598579 
Q 459.507787 153.48122 461.007207 149.295176 
L 461.007207 125.809525 
Q 459.460187 131.188104 457.929033 133.840887 
Q 456.39788 136.518008 454.858793 136.518008 
Q 452.010689 136.518008 450.467635 126.734348 
Q 448.924581 116.975026 448.924581 98.794941 
Q 448.924581 80.785219 450.412101 70.952884 
Q 451.899621 61.144886 454.636656 61.144886 
Q 455.3824 61.144886 456.021041 61.704648 
Q 456.659683 62.288747 457.167423 63.50562 
L 457.167423 85.555361 
L 454.251885 85.555361 
L 454.251885 105.195694 
L 461.689482 105.195694 
L 461.689482 50.582428 
z
" clip-path="url(#p6f762a3bf4)" style="fill: #ffa600"/>
   </g>
   <g id="patch_101">
    <path d="M 443.989983 35.663504 
L 461.689482 35.663504 
L 461.689482 35.575251 
L 455.321779 35.575251 
L 455.321779 35.21099 
L 450.370035 35.21099 
L 450.370035 35.575251 
L 443.989983 35.575251 
L 443.989983 35.663504 
z
" clip-path="url(#p6f762a3bf4)" style="fill: #ff0000"/>
   </g>
   <g id="patch_102">
    <path d="M 480.320534 44.598266 
Q 478.840002 41.21462 477.239064 39.503124 
Q 475.638127 37.771957 473.894488 37.771957 
Q 468.694786 37.771957 465.657911 50.598336 
Q 462.621035 63.424715 462.621035 85.359397 
Q 462.621035 107.372769 465.657911 120.179476 
Q 468.694786 133.005855 473.894488 133.005855 
Q 475.638127 133.005855 477.239064 131.274687 
Q 478.840002 129.563192 480.320534 126.179546 
L 480.320534 107.195718 
Q 478.826623 111.681016 477.377307 113.766286 
Q 475.92799 115.851556 474.327053 115.851556 
Q 471.455177 115.851556 469.809645 107.726871 
Q 468.168573 99.621859 468.168573 85.359397 
Q 468.168573 71.155953 469.809645 63.031268 
Q 471.455177 54.926255 474.327053 54.926255 
Q 475.92799 54.926255 477.377307 57.011525 
Q 478.826623 59.116468 480.320534 63.601766 
L 480.320534 44.598266 
z
" clip-path="url(#p6f762a3bf4)" style="fill: #0000ff"/>
   </g>
   <g id="patch_103">
    <path d="M 480.320534 35.442699 
Q 478.535511 35.326845 476.615619 35.268653 
Q 474.695727 35.21099 472.6489 35.21099 
Q 468.023706 35.21099 465.322371 35.555909 
Q 462.621035 35.900827 462.621035 36.49068 
Q 462.621035 37.08741 465.369971 37.429683 
Q 468.122874 37.771957 472.910704 37.771957 
Q 474.755228 37.771957 476.44505 37.725403 
Q 478.138839 37.679379 479.638259 37.588388 
L 479.638259 37.077888 
Q 478.091238 37.1948 476.560085 37.252463 
Q 475.028931 37.310655 473.489844 37.310655 
Q 470.64174 37.310655 469.098687 37.09799 
Q 467.555633 36.885855 467.555633 36.49068 
Q 467.555633 36.099208 469.043153 35.885486 
Q 470.530672 35.672292 473.267708 35.672292 
Q 474.013451 35.672292 474.652093 35.684459 
Q 475.290735 35.697156 475.798475 35.723607 
L 475.798475 36.202895 
L 472.882937 36.202895 
L 472.882937 36.629811 
L 480.320534 36.629811 
L 480.320534 35.442699 
z
" clip-path="url(#p6f762a3bf4)" style="fill: #ffa600"/>
   </g>
   <g id="patch_104">
    <path d="M 498.951586 43.697803 
Q 497.471053 42.69343 495.870116 42.185404 
Q 494.269179 41.671538 492.52554 41.671538 
Q 487.325838 41.671538 484.288962 45.478814 
Q 481.252087 49.28609 481.252087 55.796999 
Q 481.252087 62.331265 484.288962 66.132702 
Q 487.325838 69.939978 492.52554 69.939978 
Q 494.269179 69.939978 495.870116 69.426112 
Q 497.471053 68.918086 498.951586 67.913713 
L 498.951586 62.278711 
Q 497.457675 63.61009 496.008359 64.229064 
Q 494.559042 64.848038 492.958105 64.848038 
Q 490.086228 64.848038 488.440697 62.436374 
Q 486.799624 60.030549 486.799624 55.796999 
Q 486.799624 51.580966 488.440697 49.169302 
Q 490.086228 46.763478 492.958105 46.763478 
Q 494.559042 46.763478 496.008359 47.382452 
Q 497.457675 48.007266 498.951586 49.338644 
L 498.951586 43.697803 
z
" clip-path="url(#p6f762a3bf4)" style="fill: #0000ff"/>
   </g>
   <g id="patch_105">
    <path d="M 498.951586 35.874966 
Q 497.166563 35.586651 495.246671 35.441835 
Q 493.326779 35.298336 491.279952 35.298336 
Q 486.654758 35.298336 483.953422 36.156698 
Q 481.252087 37.015059 481.252087 38.482962 
Q 481.252087 39.96798 484.001023 40.819759 
Q 486.753926 41.671538 491.541755 41.671538 
Q 493.38628 41.671538 495.076102 41.555686 
Q 496.769891 41.44115 498.26931 41.214711 
L 498.26931 39.944283 
Q 496.72229 40.235231 495.191137 40.37873 
Q 493.659983 40.523546 492.120896 40.523546 
Q 489.272792 40.523546 487.729739 39.99431 
Q 486.186685 39.466392 486.186685 38.482962 
Q 486.186685 37.508749 487.674205 36.97688 
Q 489.161724 36.446329 491.89876 36.446329 
Q 492.644503 36.446329 493.283145 36.476608 
Q 493.921787 36.508205 494.429527 36.57403 
L 494.429527 37.766784 
L 491.513988 37.766784 
L 491.513988 38.829203 
L 498.951586 38.829203 
L 498.951586 35.874966 
z
" clip-path="url(#p6f762a3bf4)" style="fill: #ffa600"/>
   </g>
   <g id="patch_106">
    <path d="M 481.252087 35.298336 
L 498.951586 35.298336 
L 498.951586 35.281301 
L 492.583882 35.281301 
L 492.583882 35.21099 
L 487.632139 35.21099 
L 487.632139 35.281301 
L 481.252087 35.281301 
L 481.252087 35.298336 
z
" clip-path="url(#p6f762a3bf4)" style="fill: #ff0000"/>
   </g>
   <g id="patch_107">
    <path d="M 517.582638 35.945331 
Q 516.102105 35.581335 514.501168 35.397221 
Q 512.900231 35.21099 511.156591 35.21099 
Q 505.95689 35.21099 502.920014 36.590788 
Q 499.883139 37.970587 499.883139 40.330211 
Q 499.883139 42.698301 502.920014 44.075983 
Q 505.95689 45.455781 511.156591 45.455781 
Q 512.900231 45.455781 514.501168 45.26955 
Q 516.102105 45.085436 517.582638 44.72144 
L 517.582638 42.679254 
Q 516.088727 43.16176 514.63941 43.386083 
Q 513.190094 43.610406 511.589157 43.610406 
Q 508.71728 43.610406 507.071748 42.736393 
Q 505.430676 41.864496 505.430676 40.330211 
Q 505.430676 38.802275 507.071748 37.928262 
Q 508.71728 37.056365 511.589157 37.056365 
Q 513.190094 37.056365 514.63941 37.280688 
Q 516.088727 37.507127 517.582638 37.989633 
L 517.582638 35.945331 
z
" clip-path="url(#p6f762a3bf4)" style="fill: #0000ff"/>
   </g>
   <g id="patch_108">
    <path d="M 517.582638 47.510487 
Q 515.797614 46.483134 513.877722 45.967112 
Q 511.957831 45.455781 509.911004 45.455781 
Q 505.28581 45.455781 502.584474 48.514384 
Q 499.883139 51.572988 499.883139 56.803576 
Q 499.883139 62.095147 502.632075 65.130296 
Q 505.384978 68.165444 510.172807 68.165444 
Q 512.017331 68.165444 513.707153 67.752626 
Q 515.400942 67.344499 516.900362 66.537628 
L 516.900362 62.010707 
Q 515.353342 63.047443 513.822188 63.558774 
Q 512.291035 64.074796 510.751948 64.074796 
Q 507.903844 64.074796 506.36079 62.18897 
Q 504.817737 60.307835 504.817737 56.803576 
Q 504.817737 53.332154 506.305256 51.436946 
Q 507.792776 49.546429 510.529812 49.546429 
Q 511.275555 49.546429 511.914197 49.654324 
Q 512.552838 49.766911 513.060578 50.001466 
L 513.060578 54.251612 
L 510.14504 54.251612 
L 510.14504 58.037337 
L 517.582638 58.037337 
L 517.582638 47.510487 
z
" clip-path="url(#p6f762a3bf4)" style="fill: #ffa600"/>
   </g>
   <g id="patch_109">
    <path d="M 536.213689 41.986276 
Q 534.733157 39.663499 533.13222 38.488606 
Q 531.531282 37.300208 529.787643 37.300208 
Q 524.587941 37.300208 521.551066 46.105153 
Q 518.51419 54.910097 518.51419 69.967633 
Q 518.51419 85.079186 521.551066 93.870626 
Q 524.587941 102.675571 529.787643 102.675571 
Q 531.531282 102.675571 533.13222 101.487173 
Q 534.733157 100.31228 536.213689 97.989504 
L 536.213689 84.957646 
Q 534.719779 88.036675 533.270462 89.468154 
Q 531.821146 90.899633 530.220208 90.899633 
Q 527.348332 90.899633 525.7028 85.322267 
Q 524.061728 79.758407 524.061728 69.967633 
Q 524.061728 60.217372 525.7028 54.640007 
Q 527.348332 49.076146 530.220208 49.076146 
Q 531.821146 49.076146 533.270462 50.507625 
Q 534.719779 51.952608 536.213689 55.031638 
L 536.213689 41.986276 
z
" clip-path="url(#p6f762a3bf4)" style="fill: #0000ff"/>
   </g>
   <g id="patch_110">
    <path d="M 536.213689 35.400017 
Q 534.428666 35.305503 532.508774 35.258031 
Q 530.588882 35.21099 528.542055 35.21099 
Q 523.916861 35.21099 521.215526 35.492372 
Q 518.51419 35.773754 518.51419 36.254952 
Q 518.51419 36.74176 521.263126 37.020984 
Q 524.016029 37.300208 528.803859 37.300208 
Q 530.648383 37.300208 532.338205 37.26223 
Q 534.031994 37.224684 535.531414 37.150455 
L 535.531414 36.733992 
Q 533.984394 36.829368 532.45324 36.876409 
Q 530.922087 36.923882 529.383 36.923882 
Q 526.534896 36.923882 524.991842 36.750391 
Q 523.448788 36.577333 523.448788 36.254952 
Q 523.448788 35.935592 524.936308 35.761239 
Q 526.423828 35.587317 529.160864 35.587317 
Q 529.906607 35.587317 530.545248 35.597243 
Q 531.18389 35.607601 531.69163 35.629179 
L 531.69163 36.020179 
L 528.776092 36.020179 
L 528.776092 36.368454 
L 536.213689 36.368454 
L 536.213689 35.400017 
z
" clip-path="url(#p6f762a3bf4)" style="fill: #ffa600"/>
   </g>
   <g id="patch_111">
    <path d="M 554.844741 35.663372 
Q 553.364209 35.439136 551.763271 35.325715 
Q 550.162334 35.21099 548.418695 35.21099 
Q 543.218993 35.21099 540.182118 36.060998 
Q 537.145242 36.911006 537.145242 38.364623 
Q 537.145242 39.823455 540.182118 40.672159 
Q 543.218993 41.522167 548.418695 41.522167 
Q 550.162334 41.522167 551.763271 41.407442 
Q 553.364209 41.294021 554.844741 41.069786 
L 554.844741 39.811722 
Q 553.35083 40.108964 551.901514 40.247156 
Q 550.452197 40.385347 548.85126 40.385347 
Q 545.979384 40.385347 544.333852 39.846922 
Q 542.69278 39.3098 542.69278 38.364623 
Q 542.69278 37.423357 544.333852 36.884932 
Q 545.979384 36.34781 548.85126 36.34781 
Q 550.452197 36.34781 551.901514 36.486002 
Q 553.35083 36.625497 554.844741 36.922739 
L 554.844741 35.663372 
z
" clip-path="url(#p6f762a3bf4)" style="fill: #0000ff"/>
   </g>
   <g id="patch_112">
    <path d="M 554.844741 43.085456 
Q 553.059718 42.303812 551.139826 41.911205 
Q 549.219934 41.522167 547.173107 41.522167 
Q 542.547913 41.522167 539.846578 43.849254 
Q 537.145242 46.176342 537.145242 50.155946 
Q 537.145242 54.18195 539.894178 56.491191 
Q 542.647081 58.800433 547.434911 58.800433 
Q 549.279435 58.800433 550.969257 58.486347 
Q 552.663046 58.175831 554.162466 57.561937 
L 554.162466 54.117705 
Q 552.615445 54.906488 551.084292 55.295525 
Q 549.553138 55.688132 548.014052 55.688132 
Q 545.165947 55.688132 543.622894 54.253333 
Q 542.07984 52.822103 542.07984 50.155946 
Q 542.07984 47.514774 543.56736 46.072836 
Q 545.054879 44.634468 547.791915 44.634468 
Q 548.537658 44.634468 549.1763 44.716558 
Q 549.814942 44.802218 550.322682 44.980676 
L 550.322682 48.214327 
L 547.407144 48.214327 
L 547.407144 51.094633 
L 554.844741 51.094633 
L 554.844741 43.085456 
z
" clip-path="url(#p6f762a3bf4)" style="fill: #ffa600"/>
   </g>
   <g id="patch_113">
    <path d="M 573.475793 35.568433 
Q 571.99526 35.391257 570.394323 35.301638 
Q 568.793386 35.21099 567.049747 35.21099 
Q 561.850045 35.21099 558.813169 35.882611 
Q 555.776294 36.554232 555.776294 37.702786 
Q 555.776294 38.855461 558.813169 39.526052 
Q 561.850045 40.197673 567.049747 40.197673 
Q 568.793386 40.197673 570.394323 40.107025 
Q 571.99526 40.017406 573.475793 39.84023 
L 573.475793 38.84619 
Q 571.981882 39.081051 570.532566 39.190241 
Q 569.083249 39.299431 567.482312 39.299431 
Q 564.610435 39.299431 562.964904 38.874003 
Q 561.323831 38.449604 561.323831 37.702786 
Q 561.323831 36.959059 562.964904 36.53363 
Q 564.610435 36.109232 567.482312 36.109232 
Q 569.083249 36.109232 570.532566 36.218422 
Q 571.981882 36.328642 573.475793 36.563503 
L 573.475793 35.568433 
z
" clip-path="url(#p6f762a3bf4)" style="fill: #0000ff"/>
   </g>
   <g id="patch_114">
    <path d="M 573.475793 46.335907 
Q 571.69077 43.26679 569.770878 41.725224 
Q 567.850986 40.197673 565.804159 40.197673 
Q 561.178965 40.197673 558.477629 49.334952 
Q 555.776294 58.472232 555.776294 74.098101 
Q 555.776294 89.906156 558.52523 98.973364 
Q 561.278133 108.040573 566.065962 108.040573 
Q 567.910487 108.040573 569.600309 106.80732 
Q 571.294098 105.588082 572.793517 103.177634 
L 572.793517 89.653899 
Q 571.246497 92.751045 569.715344 94.278596 
Q 568.18419 95.820162 566.645103 95.820162 
Q 563.796999 95.820162 562.253946 90.18644 
Q 560.710892 84.566733 560.710892 74.098101 
Q 560.710892 63.727569 562.198412 58.065819 
Q 563.685931 52.418084 566.422967 52.418084 
Q 567.16871 52.418084 567.807352 52.740411 
Q 568.445994 53.076752 568.953734 53.777464 
L 568.953734 66.474359 
L 566.038195 66.474359 
L 566.038195 77.783844 
L 573.475793 77.783844 
L 573.475793 46.335907 
z
" clip-path="url(#p6f762a3bf4)" style="fill: #ffa600"/>
   </g>
   <g id="patch_115">
    <path d="M 592.106845 46.793598 
Q 590.626312 44.315131 589.025375 43.061488 
Q 587.424438 41.793436 585.680798 41.793436 
Q 580.481097 41.793436 577.444221 51.188553 
Q 574.407346 60.583671 574.407346 76.650474 
Q 574.407346 92.774917 577.444221 102.155625 
Q 580.481097 111.550742 585.680798 111.550742 
Q 587.424438 111.550742 589.025375 110.28269 
Q 590.626312 109.029047 592.106845 106.55058 
L 592.106845 92.64523 
Q 590.612934 95.930639 589.163617 97.458066 
Q 587.714301 98.985493 586.113364 98.985493 
Q 583.241487 98.985493 581.595955 93.034291 
Q 579.954883 87.097499 579.954883 76.650474 
Q 579.954883 66.246679 581.595955 60.295477 
Q 583.241487 54.358685 586.113364 54.358685 
Q 587.714301 54.358685 589.163617 55.886112 
Q 590.612934 57.427949 592.106845 60.713358 
L 592.106845 46.793598 
z
" clip-path="url(#p6f762a3bf4)" style="fill: #0000ff"/>
   </g>
   <g id="patch_116">
    <path d="M 592.106845 35.806551 
Q 590.321821 35.508771 588.401929 35.359201 
Q 586.482038 35.21099 584.435211 35.21099 
Q 579.810017 35.21099 577.108681 36.097533 
Q 574.407346 36.984076 574.407346 38.500173 
Q 574.407346 40.033947 577.156282 40.913691 
Q 579.909185 41.793436 584.697014 41.793436 
Q 586.541538 41.793436 588.23136 41.673779 
Q 589.925149 41.555483 591.424569 41.32161 
L 591.424569 40.009472 
Q 589.877549 40.309972 588.346395 40.458182 
Q 586.815242 40.607752 585.276155 40.607752 
Q 582.428051 40.607752 580.884997 40.061142 
Q 579.341944 39.51589 579.341944 38.500173 
Q 579.341944 37.493974 580.829463 36.944644 
Q 582.316983 36.396673 585.054019 36.396673 
Q 585.799762 36.396673 586.438404 36.427947 
Q 587.077045 36.460581 587.584785 36.528567 
L 587.584785 37.760481 
L 584.669247 37.760481 
L 584.669247 38.857782 
L 592.106845 38.857782 
L 592.106845 35.806551 
z
" clip-path="url(#p6f762a3bf4)" style="fill: #ffa600"/>
   </g>
   <g id="patch_117">
    <path d="M 610.737896 35.575591 
Q 609.257364 35.394867 607.656427 35.303454 
Q 606.055489 35.21099 604.31185 35.21099 
Q 599.112148 35.21099 596.075273 35.896061 
Q 593.038397 36.581132 593.038397 37.752687 
Q 593.038397 38.928445 596.075273 39.612465 
Q 599.112148 40.297536 604.31185 40.297536 
Q 606.055489 40.297536 607.656427 40.205072 
Q 609.257364 40.113659 610.737896 39.932935 
L 610.737896 38.918988 
Q 609.243986 39.158553 607.794669 39.26993 
Q 606.345353 39.381306 604.744415 39.381306 
Q 601.872539 39.381306 600.227007 38.947358 
Q 598.585935 38.51446 598.585935 37.752687 
Q 598.585935 36.994066 600.227007 36.560117 
Q 601.872539 36.12722 604.744415 36.12722 
Q 606.345353 36.12722 607.794669 36.238596 
Q 609.243986 36.351024 610.737896 36.590588 
L 610.737896 35.575591 
z
" clip-path="url(#p6f762a3bf4)" style="fill: #0000ff"/>
   </g>
   <g id="patch_118">
    <path d="M 610.737896 42.257925 
Q 608.952873 41.27773 607.032981 40.785395 
Q 605.113089 40.297536 603.066262 40.297536 
Q 598.441068 40.297536 595.739733 43.215741 
Q 593.038397 46.133946 593.038397 51.124435 
Q 593.038397 56.173108 595.787333 59.068934 
Q 598.540236 61.964761 603.328066 61.964761 
Q 605.17259 61.964761 606.862412 61.570892 
Q 608.556201 61.1815 610.055621 60.411667 
L 610.055621 56.092544 
Q 608.508601 57.081691 606.977447 57.56955 
Q 605.446294 58.061885 603.907207 58.061885 
Q 601.059103 58.061885 599.516049 56.262624 
Q 597.972995 54.467838 597.972995 51.124435 
Q 597.972995 47.812361 599.460515 46.004148 
Q 600.948035 44.200411 603.685071 44.200411 
Q 604.430814 44.200411 605.069455 44.303354 
Q 605.708097 44.410773 606.215837 44.634561 
L 606.215837 48.689613 
L 603.300299 48.689613 
L 603.300299 52.301563 
L 610.737896 52.301563 
L 610.737896 42.257925 
z
" clip-path="url(#p6f762a3bf4)" style="fill: #ffa600"/>
   </g>
   <g id="patch_119">
    <path d="M 629.368948 42.265586 
Q 627.888416 39.372583 626.287478 37.909262 
Q 624.686541 36.42912 622.942902 36.42912 
Q 617.7432 36.42912 614.706325 47.395622 
Q 611.669449 58.362123 611.669449 77.116186 
Q 611.669449 95.937528 614.706325 106.887209 
Q 617.7432 117.853711 622.942902 117.853711 
Q 624.686541 117.853711 626.287478 116.373569 
Q 627.888416 114.910248 629.368948 112.017244 
L 629.368948 95.78615 
Q 627.875037 99.621061 626.425721 101.403959 
Q 624.976404 103.186856 623.375467 103.186856 
Q 620.503591 103.186856 618.858059 96.240284 
Q 617.216987 89.310532 617.216987 77.116186 
Q 617.216987 64.972299 618.858059 58.025727 
Q 620.503591 51.095975 623.375467 51.095975 
Q 624.976404 51.095975 626.425721 52.878872 
Q 627.875037 54.67859 629.368948 58.513501 
L 629.368948 42.265586 
z
" clip-path="url(#p6f762a3bf4)" style="fill: #0000ff"/>
   </g>
   <g id="patch_120">
    <path d="M 629.368948 35.321203 
Q 627.583925 35.266097 625.664033 35.238418 
Q 623.744141 35.21099 621.697314 35.21099 
Q 617.07212 35.21099 614.370785 35.375051 
Q 611.669449 35.539113 611.669449 35.819678 
Q 611.669449 36.103514 614.418385 36.266317 
Q 617.171288 36.42912 621.959118 36.42912 
Q 623.803642 36.42912 625.493464 36.406977 
Q 627.187253 36.385085 628.686673 36.341805 
L 628.686673 36.098985 
Q 627.139652 36.154594 625.608499 36.182022 
Q 624.077345 36.209701 622.538259 36.209701 
Q 619.690154 36.209701 618.147101 36.108546 
Q 616.604047 36.007644 616.604047 35.819678 
Q 616.604047 35.633473 618.091567 35.531816 
Q 619.579086 35.43041 622.316122 35.43041 
Q 623.061865 35.43041 623.700507 35.436197 
Q 624.339149 35.442236 624.846889 35.454817 
L 624.846889 35.682792 
L 621.931351 35.682792 
L 621.931351 35.885856 
L 629.368948 35.885856 
L 629.368948 35.321203 
z
" clip-path="url(#p6f762a3bf4)" style="fill: #ffa600"/>
   </g>
   <g id="patch_121">
    <path d="M 648 42.032114 
Q 646.519467 41.687527 644.91853 41.51323 
Q 643.317593 41.33693 641.573954 41.33693 
Q 636.374252 41.33693 633.337376 42.643154 
Q 630.300501 43.949378 630.300501 46.183181 
Q 630.300501 48.424999 633.337376 49.729219 
Q 636.374252 51.035443 641.573954 51.035443 
Q 643.317593 51.035443 644.91853 50.859143 
Q 646.519467 50.684846 648 50.34026 
L 648 48.406968 
Q 646.506089 48.863746 645.056773 49.076107 
Q 643.607456 49.288469 642.006519 49.288469 
Q 639.134642 49.288469 637.489111 48.46106 
Q 635.848038 47.635655 635.848038 46.183181 
Q 635.848038 44.736719 637.489111 43.90931 
Q 639.134642 43.083904 642.006519 43.083904 
Q 643.607456 43.083904 645.056773 43.296266 
Q 646.506089 43.510631 648 43.967409 
L 648 42.032114 
z
" clip-path="url(#p6f762a3bf4)" style="fill: #0000ff"/>
   </g>
   <g id="patch_122">
    <path d="M 648 35.765248 
Q 646.214977 35.488119 644.295085 35.348922 
Q 642.375193 35.21099 640.328366 35.21099 
Q 635.703172 35.21099 633.001836 36.03605 
Q 630.300501 36.861109 630.300501 38.272062 
Q 630.300501 39.699465 633.049437 40.518198 
Q 635.80234 41.33693 640.590169 41.33693 
Q 642.434694 41.33693 644.124516 41.225572 
Q 645.818305 41.11548 647.317724 40.897826 
L 647.317724 39.676688 
Q 645.770704 39.956347 644.239551 40.094279 
Q 642.708397 40.233476 641.16931 40.233476 
Q 638.321206 40.233476 636.778153 39.724774 
Q 635.235099 39.217337 635.235099 38.272062 
Q 635.235099 37.335645 636.722619 36.824412 
Q 638.210138 36.314444 640.947174 36.314444 
Q 641.692917 36.314444 642.331559 36.343549 
Q 642.970201 36.373919 643.477941 36.43719 
L 643.477941 37.583669 
L 640.562402 37.583669 
L 640.562402 38.60487 
L 648 38.60487 
L 648 35.765248 
z
" clip-path="url(#p6f762a3bf4)" style="fill: #ffa600"/>
   </g>
   <g id="matplotlib.axis_1">
    <g id="xtick_1">
     <g id="line2d_2">
      <defs>
       <path id="m5b4f0bde9b" d="M 0 0 
L 0 3.5 
" style="stroke: #000000; stroke-width: 0.8"/>
      </defs>
      <g>
       <use xlink:href="#m5b4f0bde9b" x="98.84975" y="192.24" style="stroke: #000000; stroke-width: 0.8"/>
      </g>
     </g>
     <g id="text_1">
      <!-- 0 -->
      <g transform="translate(95.6685 206.838437) scale(0.1 -0.1)">
       <defs>
        <path id="DejaVuSans-30" d="M 2034 4250 
Q 1547 4250 1301 3770 
Q 1056 3291 1056 2328 
Q 1056 1369 1301 889 
Q 1547 409 2034 409 
Q 2525 409 2770 889 
Q 3016 1369 3016 2328 
Q 3016 3291 2770 3770 
Q 2525 4250 2034 4250 
z
M 2034 4750 
Q 2819 4750 3233 4129 
Q 3647 3509 3647 2328 
Q 3647 1150 3233 529 
Q 2819 -91 2034 -91 
Q 1250 -91 836 529 
Q 422 1150 422 2328 
Q 422 3509 836 4129 
Q 1250 4750 2034 4750 
z
" transform="scale(0.015625)"/>
       </defs>
       <use xlink:href="#DejaVuSans-30"/>
      </g>
     </g>
    </g>
    <g id="xtick_2">
     <g id="line2d_3">
      <g>
       <use xlink:href="#m5b4f0bde9b" x="192.005008" y="192.24" style="stroke: #000000; stroke-width: 0.8"/>
      </g>
     </g>
     <g id="text_2">
      <!-- 5 -->
      <g transform="translate(188.823758 206.838437) scale(0.1 -0.1)">
       <defs>
        <path id="DejaVuSans-35" d="M 691 4666 
L 3169 4666 
L 3169 4134 
L 1269 4134 
L 1269 2991 
Q 1406 3038 1543 3061 
Q 1681 3084 1819 3084 
Q 2600 3084 3056 2656 
Q 3513 2228 3513 1497 
Q 3513 744 3044 326 
Q 2575 -91 1722 -91 
Q 1428 -91 1123 -41 
Q 819 9 494 109 
L 494 744 
Q 775 591 1075 516 
Q 1375 441 1709 441 
Q 2250 441 2565 725 
Q 2881 1009 2881 1497 
Q 2881 1984 2565 2268 
Q 2250 2553 1709 2553 
Q 1456 2553 1204 2497 
Q 953 2441 691 2322 
L 691 4666 
z
" transform="scale(0.015625)"/>
       </defs>
       <use xlink:href="#DejaVuSans-35"/>
      </g>
     </g>
    </g>
    <g id="xtick_3">
     <g id="line2d_4">
      <g>
       <use xlink:href="#m5b4f0bde9b" x="285.160267" y="192.24" style="stroke: #000000; stroke-width: 0.8"/>
      </g>
     </g>
     <g id="text_3">
      <!-- 10 -->
      <g transform="translate(278.797767 206.838437) scale(0.1 -0.1)">
       <defs>
        <path id="DejaVuSans-31" d="M 794 531 
L 1825 531 
L 1825 4091 
L 703 3866 
L 703 4441 
L 1819 4666 
L 2450 4666 
L 2450 531 
L 3481 531 
L 3481 0 
L 794 0 
L 794 531 
z
" transform="scale(0.015625)"/>
       </defs>
       <use xlink:href="#DejaVuSans-31"/>
       <use xlink:href="#DejaVuSans-30" x="63.623047"/>
      </g>
     </g>
    </g>
    <g id="xtick_4">
     <g id="line2d_5">
      <g>
       <use xlink:href="#m5b4f0bde9b" x="378.315526" y="192.24" style="stroke: #000000; stroke-width: 0.8"/>
      </g>
     </g>
     <g id="text_4">
      <!-- 15 -->
      <g transform="translate(371.953026 206.838437) scale(0.1 -0.1)">
       <use xlink:href="#DejaVuSans-31"/>
       <use xlink:href="#DejaVuSans-35" x="63.623047"/>
      </g>
     </g>
    </g>
    <g id="xtick_5">
     <g id="line2d_6">
      <g>
       <use xlink:href="#m5b4f0bde9b" x="471.470785" y="192.24" style="stroke: #000000; stroke-width: 0.8"/>
      </g>
     </g>
     <g id="text_5">
      <!-- 20 -->
      <g transform="translate(465.108285 206.838437) scale(0.1 -0.1)">
       <defs>
        <path id="DejaVuSans-32" d="M 1228 531 
L 3431 531 
L 3431 0 
L 469 0 
L 469 531 
Q 828 903 1448 1529 
Q 2069 2156 2228 2338 
Q 2531 2678 2651 2914 
Q 2772 3150 2772 3378 
Q 2772 3750 2511 3984 
Q 2250 4219 1831 4219 
Q 1534 4219 1204 4116 
Q 875 4013 500 3803 
L 500 4441 
Q 881 4594 1212 4672 
Q 1544 4750 1819 4750 
Q 2544 4750 2975 4387 
Q 3406 4025 3406 3419 
Q 3406 3131 3298 2873 
Q 3191 2616 2906 2266 
Q 2828 2175 2409 1742 
Q 1991 1309 1228 531 
z
" transform="scale(0.015625)"/>
       </defs>
       <use xlink:href="#DejaVuSans-32"/>
       <use xlink:href="#DejaVuSans-30" x="63.623047"/>
      </g>
     </g>
    </g>
    <g id="xtick_6">
     <g id="line2d_7">
      <g>
       <use xlink:href="#m5b4f0bde9b" x="564.626043" y="192.24" style="stroke: #000000; stroke-width: 0.8"/>
      </g>
     </g>
     <g id="text_6">
      <!-- 25 -->
      <g transform="translate(558.263543 206.838437) scale(0.1 -0.1)">
       <use xlink:href="#DejaVuSans-32"/>
       <use xlink:href="#DejaVuSans-35" x="63.623047"/>
      </g>
     </g>
    </g>
   </g>
   <g id="matplotlib.axis_2">
    <g id="ytick_1">
     <g id="line2d_8">
      <defs>
       <path id="m23c86519da" d="M 0 0 
L -3.5 0 
" style="stroke: #000000; stroke-width: 0.8"/>
      </defs>
      <g>
       <use xlink:href="#m23c86519da" x="90" y="168.660066" style="stroke: #000000; stroke-width: 0.8"/>
      </g>
     </g>
     <g id="text_7">
      <!-- 0.008 -->
      <g transform="translate(45.992188 172.459285) scale(0.1 -0.1)">
       <defs>
        <path id="DejaVuSans-2212" d="M 678 2272 
L 4684 2272 
L 4684 1741 
L 678 1741 
L 678 2272 
z
" transform="scale(0.015625)"/>
        <path id="DejaVuSans-2e" d="M 684 794 
L 1344 794 
L 1344 0 
L 684 0 
L 684 794 
z
" transform="scale(0.015625)"/>
        <path id="DejaVuSans-38" d="M 2034 2216 
Q 1584 2216 1326 1975 
Q 1069 1734 1069 1313 
Q 1069 891 1326 650 
Q 1584 409 2034 409 
Q 2484 409 2743 651 
Q 3003 894 3003 1313 
Q 3003 1734 2745 1975 
Q 2488 2216 2034 2216 
z
M 1403 2484 
Q 997 2584 770 2862 
Q 544 3141 544 3541 
Q 544 4100 942 4425 
Q 1341 4750 2034 4750 
Q 2731 4750 3128 4425 
Q 3525 4100 3525 3541 
Q 3525 3141 3298 2862 
Q 3072 2584 2669 2484 
Q 3125 2378 3379 2068 
Q 3634 1759 3634 1313 
Q 3634 634 3220 271 
Q 2806 -91 2034 -91 
Q 1263 -91 848 271 
Q 434 634 434 1313 
Q 434 1759 690 2068 
Q 947 2378 1403 2484 
z
M 1172 3481 
Q 1172 3119 1398 2916 
Q 1625 2713 2034 2713 
Q 2441 2713 2670 2916 
Q 2900 3119 2900 3481 
Q 2900 3844 2670 4047 
Q 2441 4250 2034 4250 
Q 1625 4250 1398 4047 
Q 1172 3844 1172 3481 
z
" transform="scale(0.015625)"/>
       </defs>
       <use xlink:href="#DejaVuSans-2212"/>
       <use xlink:href="#DejaVuSans-30" x="83.789062"/>
       <use xlink:href="#DejaVuSans-2e" x="147.412109"/>
       <use xlink:href="#DejaVuSans-30" x="179.199219"/>
       <use xlink:href="#DejaVuSans-30" x="242.822266"/>
       <use xlink:href="#DejaVuSans-38" x="306.445312"/>
      </g>
     </g>
    </g>
    <g id="ytick_2">
     <g id="line2d_9">
      <g>
       <use xlink:href="#m23c86519da" x="90" y="135.297797" style="stroke: #000000; stroke-width: 0.8"/>
      </g>
     </g>
     <g id="text_8">
      <!-- 0.006 -->
      <g transform="translate(45.992188 139.097016) scale(0.1 -0.1)">
       <defs>
        <path id="DejaVuSans-36" d="M 2113 2584 
Q 1688 2584 1439 2293 
Q 1191 2003 1191 1497 
Q 1191 994 1439 701 
Q 1688 409 2113 409 
Q 2538 409 2786 701 
Q 3034 994 3034 1497 
Q 3034 2003 2786 2293 
Q 2538 2584 2113 2584 
z
M 3366 4563 
L 3366 3988 
Q 3128 4100 2886 4159 
Q 2644 4219 2406 4219 
Q 1781 4219 1451 3797 
Q 1122 3375 1075 2522 
Q 1259 2794 1537 2939 
Q 1816 3084 2150 3084 
Q 2853 3084 3261 2657 
Q 3669 2231 3669 1497 
Q 3669 778 3244 343 
Q 2819 -91 2113 -91 
Q 1303 -91 875 529 
Q 447 1150 447 2328 
Q 447 3434 972 4092 
Q 1497 4750 2381 4750 
Q 2619 4750 2861 4703 
Q 3103 4656 3366 4563 
z
" transform="scale(0.015625)"/>
       </defs>
       <use xlink:href="#DejaVuSans-2212"/>
       <use xlink:href="#DejaVuSans-30" x="83.789062"/>
       <use xlink:href="#DejaVuSans-2e" x="147.412109"/>
       <use xlink:href="#DejaVuSans-30" x="179.199219"/>
       <use xlink:href="#DejaVuSans-30" x="242.822266"/>
       <use xlink:href="#DejaVuSans-36" x="306.445312"/>
      </g>
     </g>
    </g>
    <g id="ytick_3">
     <g id="line2d_10">
      <g>
       <use xlink:href="#m23c86519da" x="90" y="101.935528" style="stroke: #000000; stroke-width: 0.8"/>
      </g>
     </g>
     <g id="text_9">
      <!-- 0.004 -->
      <g transform="translate(45.992188 105.734747) scale(0.1 -0.1)">
       <defs>
        <path id="DejaVuSans-34" d="M 2419 4116 
L 825 1625 
L 2419 1625 
L 2419 4116 
z
M 2253 4666 
L 3047 4666 
L 3047 1625 
L 3713 1625 
L 3713 1100 
L 3047 1100 
L 3047 0 
L 2419 0 
L 2419 1100 
L 313 1100 
L 313 1709 
L 2253 4666 
z
" transform="scale(0.015625)"/>
       </defs>
       <use xlink:href="#DejaVuSans-2212"/>
       <use xlink:href="#DejaVuSans-30" x="83.789062"/>
       <use xlink:href="#DejaVuSans-2e" x="147.412109"/>
       <use xlink:href="#DejaVuSans-30" x="179.199219"/>
       <use xlink:href="#DejaVuSans-30" x="242.822266"/>
       <use xlink:href="#DejaVuSans-34" x="306.445312"/>
      </g>
     </g>
    </g>
    <g id="ytick_4">
     <g id="line2d_11">
      <g>
       <use xlink:href="#m23c86519da" x="90" y="68.573259" style="stroke: #000000; stroke-width: 0.8"/>
      </g>
     </g>
     <g id="text_10">
      <!-- 0.002 -->
      <g transform="translate(45.992188 72.372478) scale(0.1 -0.1)">
       <use xlink:href="#DejaVuSans-2212"/>
       <use xlink:href="#DejaVuSans-30" x="83.789062"/>
       <use xlink:href="#DejaVuSans-2e" x="147.412109"/>
       <use xlink:href="#DejaVuSans-30" x="179.199219"/>
       <use xlink:href="#DejaVuSans-30" x="242.822266"/>
       <use xlink:href="#DejaVuSans-32" x="306.445312"/>
      </g>
     </g>
    </g>
    <g id="ytick_5">
     <g id="line2d_12">
      <g>
       <use xlink:href="#m23c86519da" x="90" y="35.21099" style="stroke: #000000; stroke-width: 0.8"/>
      </g>
     </g>
     <g id="text_11">
      <!-- 0.000 -->
      <g transform="translate(54.371875 39.010209) scale(0.1 -0.1)">
       <use xlink:href="#DejaVuSans-30"/>
       <use xlink:href="#DejaVuSans-2e" x="63.623047"/>
       <use xlink:href="#DejaVuSans-30" x="95.410156"/>
       <use xlink:href="#DejaVuSans-30" x="159.033203"/>
       <use xlink:href="#DejaVuSans-30" x="222.65625"/>
      </g>
     </g>
    </g>
   </g>
  </g>
 </g>
 <defs>
  <clipPath id="p6f762a3bf4">
   <rect x="90" y="25.92" width="558" height="166.32"/>
  </clipPath>
 </defs>
</svg>
