<?xml version="1.0" encoding="utf-8" standalone="no"?>
<!DOCTYPE svg PUBLIC "-//W3C//DTD SVG 1.1//EN"
  "http://www.w3.org/Graphics/SVG/1.1/DTD/svg11.dtd">
<svg xmlns:xlink="http://www.w3.org/1999/xlink" width="720pt" height="216pt" viewBox="0 0 720 216" xmlns="http://www.w3.org/2000/svg" version="1.1">
 <metadata>
  <rdf:RDF xmlns:dc="http://purl.org/dc/elements/1.1/" xmlns:cc="http://creativecommons.org/ns#" xmlns:rdf="http://www.w3.org/1999/02/22-rdf-syntax-ns#">
   <cc:Work>
    <dc:type rdf:resource="http://purl.org/dc/dcmitype/StillImage"/>
    <dc:date>2024-11-23T04:42:58.942477</dc:date>
    <dc:format>image/svg+xml</dc:format>
    <dc:creator>
     <cc:Agent>
      <dc:title>Matplotlib v3.7.2, https://matplotlib.org/</dc:title>
     </cc:Agent>
    </dc:creator>
   </cc:Work>
  </rdf:RDF>
 </metadata>
 <defs>
  <style type="text/css">*{stroke-linejoin: round; stroke-linecap: butt}</style>
 </defs>
 <g id="figure_1">
  <g id="patch_1">
   <path d="M 0 216 
L 720 216 
L 720 0 
L 0 0 
z
" style="fill: #ffffff"/>
  </g>
  <g id="axes_1">
   <g id="patch_2">
    <path d="M 90 192.24 
L 648 192.24 
L 648 25.92 
L 90 25.92 
z
" style="fill: #ffffff"/>
   </g>
   <g id="line2d_1">
    <path d="M 90 23.982495 
L 648 23.982495 
" clip-path="url(#p2cf6a50252)" style="fill: none; stroke: #000000; stroke-width: 0.5; stroke-linecap: square"/>
   </g>
   <g id="patch_3">
    <path d="M 111.66376 23.760014 
L 99.636153 23.760014 
L 97.737057 23.982495 
L 90 23.982495 
L 101.049285 22.761206 
L 110.225051 22.761206 
L 121.274336 23.982495 
L 113.543673 23.982495 
L 111.66376 23.760014 
z
M 101.554432 23.533345 
L 109.726299 23.533345 
L 105.64676 23.047552 
L 101.554432 23.533345 
z
" clip-path="url(#p2cf6a50252)" style="fill: #008000"/>
   </g>
   <g id="patch_4">
    <path d="M 90 20.582759 
L 121.274336 20.582759 
L 121.274336 21.007616 
L 110.022848 21.007616 
L 110.022848 22.761206 
L 101.273307 22.761206 
L 101.273307 21.007616 
L 90 21.007616 
L 90 20.582759 
z
" clip-path="url(#p2cf6a50252)" style="fill: #ff0000"/>
   </g>
   <g id="patch_5">
    <path d="M 154.19469 23.863916 
Q 151.578646 23.922693 148.749851 23.952423 
Q 145.921056 23.982495 142.840113 23.982495 
Q 133.652439 23.982495 128.286397 23.759691 
Q 122.920354 23.536886 122.920354 23.155864 
Q 122.920354 22.773475 128.286397 22.551013 
Q 133.652439 22.328209 142.840113 22.328209 
Q 145.921056 22.328209 148.749851 22.35828 
Q 151.578646 22.38801 154.19469 22.446787 
L 154.19469 22.77655 
Q 151.555007 22.698637 148.99412 22.662415 
Q 146.433234 22.626192 143.604439 22.626192 
Q 138.529943 22.626192 135.622352 22.767324 
Q 132.72264 22.908114 132.72264 23.155864 
Q 132.72264 23.402589 135.622352 23.543721 
Q 138.529943 23.684511 143.604439 23.684511 
Q 146.433234 23.684511 148.99412 23.648288 
Q 151.555007 23.611724 154.19469 23.533811 
L 154.19469 23.863916 
z
" clip-path="url(#p2cf6a50252)" style="fill: #0000ff"/>
   </g>
   <g id="patch_6">
    <path d="M 122.920354 19.686492 
L 154.19469 19.686492 
L 154.19469 20.2017 
L 142.943202 20.2017 
L 142.943202 22.328209 
L 134.193661 22.328209 
L 134.193661 20.2017 
L 122.920354 20.2017 
L 122.920354 19.686492 
z
" clip-path="url(#p2cf6a50252)" style="fill: #ff0000"/>
   </g>
   <g id="patch_7">
    <path d="M 155.840708 20.805973 
L 187.115044 20.805973 
L 187.115044 21.425483 
L 175.863556 21.425483 
L 175.863556 23.982495 
L 167.114015 23.982495 
L 167.114015 21.425483 
L 155.840708 21.425483 
L 155.840708 20.805973 
z
" clip-path="url(#p2cf6a50252)" style="fill: #ff0000"/>
   </g>
   <g id="patch_8">
    <path d="M 187.115044 20.540018 
Q 184.499 20.671846 181.670205 20.738526 
Q 178.84141 20.805973 175.760467 20.805973 
Q 166.572793 20.805973 161.206751 20.306253 
Q 155.840708 19.806534 155.840708 18.951953 
Q 155.840708 18.094306 161.206751 17.595353 
Q 166.572793 17.095634 175.760467 17.095634 
Q 178.84141 17.095634 181.670205 17.16308 
Q 184.499 17.229761 187.115044 17.361588 
L 187.115044 18.101204 
Q 184.475361 17.926455 181.914474 17.845213 
Q 179.353588 17.76397 176.524793 17.76397 
Q 171.450297 17.76397 168.542706 18.08051 
Q 165.642994 18.396283 165.642994 18.951953 
Q 165.642994 19.505323 168.542706 19.821863 
Q 171.450297 20.137636 176.524793 20.137636 
Q 179.353588 20.137636 181.914474 20.056394 
Q 184.475361 19.974385 187.115044 19.799636 
L 187.115044 20.540018 
z
" clip-path="url(#p2cf6a50252)" style="fill: #0000ff"/>
   </g>
   <g id="patch_9">
    <path d="M 220.035398 23.824802 
Q 217.419354 23.902967 214.590559 23.942503 
Q 211.761764 23.982495 208.680821 23.982495 
Q 199.493147 23.982495 194.127105 23.686197 
Q 188.761062 23.389899 188.761062 22.883193 
Q 188.761062 22.374669 194.127105 22.078826 
Q 199.493147 21.782528 208.680821 21.782528 
Q 211.761764 21.782528 214.590559 21.822519 
Q 217.419354 21.862055 220.035398 21.94022 
L 220.035398 22.378759 
Q 217.395715 22.275146 214.834828 22.226975 
Q 212.273942 22.178803 209.445147 22.178803 
Q 204.370651 22.178803 201.46306 22.366489 
Q 198.563348 22.55372 198.563348 22.883193 
Q 198.563348 23.211302 201.46306 23.398988 
Q 204.370651 23.586219 209.445147 23.586219 
Q 212.273942 23.586219 214.834828 23.538048 
Q 217.395715 23.489422 220.035398 23.385809 
L 220.035398 23.824802 
z
" clip-path="url(#p2cf6a50252)" style="fill: #0000ff"/>
   </g>
   <g id="patch_10">
    <path d="M 210.424822 20.921659 
L 198.397215 20.921659 
L 196.498119 21.782528 
L 188.761062 21.782528 
L 199.810347 17.056864 
L 208.986113 17.056864 
L 220.035398 21.782528 
L 212.304735 21.782528 
L 210.424822 20.921659 
z
M 200.315494 20.044585 
L 208.487361 20.044585 
L 204.407821 18.164853 
L 200.315494 20.044585 
z
" clip-path="url(#p2cf6a50252)" style="fill: #008000"/>
   </g>
   <g id="patch_11">
    <path d="M 276.26553 23.979213 
L 264.237923 23.979213 
L 262.338827 23.982495 
L 254.60177 23.982495 
L 265.651055 23.964481 
L 274.826821 23.964481 
L 285.876106 23.982495 
L 278.145443 23.982495 
L 276.26553 23.979213 
z
M 266.156202 23.97587 
L 274.328069 23.97587 
L 270.248529 23.968704 
L 266.156202 23.97587 
z
" clip-path="url(#p2cf6a50252)" style="fill: #008000"/>
   </g>
   <g id="patch_12">
    <path d="M 287.522124 23.978308 
L 318.79646 23.978308 
L 318.79646 23.979125 
L 307.544972 23.979125 
L 307.544972 23.982495 
L 298.795431 23.982495 
L 298.795431 23.979125 
L 287.522124 23.979125 
L 287.522124 23.978308 
z
" clip-path="url(#p2cf6a50252)" style="fill: #ff0000"/>
   </g>
   <g id="patch_13">
    <path d="M 320.442478 20.376001 
L 351.716814 20.376001 
L 351.716814 21.079368 
L 340.465326 21.079368 
L 340.465326 23.982495 
L 331.715785 23.982495 
L 331.715785 21.079368 
L 320.442478 21.079368 
L 320.442478 20.376001 
z
" clip-path="url(#p2cf6a50252)" style="fill: #ff0000"/>
   </g>
   <g id="patch_14">
    <path d="M 342.106238 18.971832 
L 330.078631 18.971832 
L 328.179535 20.376001 
L 320.442478 20.376001 
L 331.491763 12.66794 
L 340.667529 12.66794 
L 351.716814 20.376001 
L 343.986151 20.376001 
L 342.106238 18.971832 
z
M 331.99691 17.541232 
L 340.168777 17.541232 
L 336.089237 14.475188 
L 331.99691 17.541232 
z
" clip-path="url(#p2cf6a50252)" style="fill: #008000"/>
   </g>
   <g id="patch_15">
    <path d="M 353.362832 23.928334 
L 384.637168 23.928334 
L 384.637168 23.938897 
L 373.38568 23.938897 
L 373.38568 23.982495 
L 364.636139 23.982495 
L 364.636139 23.938897 
L 353.362832 23.938897 
L 353.362832 23.928334 
z
" clip-path="url(#p2cf6a50252)" style="fill: #ff0000"/>
   </g>
   <g id="patch_16">
    <path d="M 375.026592 23.915554 
L 362.998985 23.915554 
L 361.099889 23.928334 
L 353.362832 23.928334 
L 364.412117 23.858181 
L 373.587883 23.858181 
L 384.637168 23.928334 
L 376.906505 23.928334 
L 375.026592 23.915554 
z
M 364.917264 23.902534 
L 373.089131 23.902534 
L 369.009591 23.874629 
L 364.917264 23.902534 
z
" clip-path="url(#p2cf6a50252)" style="fill: #008000"/>
   </g>
   <g id="patch_17">
    <path d="M 407.946946 23.95227 
L 395.919339 23.95227 
L 394.020243 23.982495 
L 386.283186 23.982495 
L 397.332471 23.816582 
L 406.508237 23.816582 
L 417.557522 23.982495 
L 409.826859 23.982495 
L 407.946946 23.95227 
z
M 397.837618 23.921477 
L 406.009485 23.921477 
L 401.929945 23.855482 
L 397.837618 23.921477 
z
" clip-path="url(#p2cf6a50252)" style="fill: #008000"/>
   </g>
   <g id="patch_18">
    <path d="M 419.20354 21.767046 
L 450.477876 21.767046 
L 450.477876 22.19912 
L 439.226388 22.19912 
L 439.226388 23.982495 
L 430.476847 23.982495 
L 430.476847 22.19912 
L 419.20354 22.19912 
L 419.20354 21.767046 
z
" clip-path="url(#p2cf6a50252)" style="fill: #ff0000"/>
   </g>
   <g id="patch_19">
    <path d="M 440.8673 21.289977 
L 428.839693 21.289977 
L 426.940597 21.767046 
L 419.20354 21.767046 
L 430.252825 19.148217 
L 439.428591 19.148217 
L 450.477876 21.767046 
L 442.747213 21.767046 
L 440.8673 21.289977 
z
M 430.757972 20.803928 
L 438.929839 20.803928 
L 434.850299 19.762233 
L 430.757972 20.803928 
z
" clip-path="url(#p2cf6a50252)" style="fill: #008000"/>
   </g>
   <g id="patch_20">
    <path d="M 483.39823 23.943479 
Q 480.782186 23.962818 477.953391 23.9726 
Q 475.124596 23.982495 472.043652 23.982495 
Q 462.855979 23.982495 457.489936 23.909186 
Q 452.123894 23.835877 452.123894 23.710509 
Q 452.123894 23.584692 457.489936 23.511495 
Q 462.855979 23.438186 472.043652 23.438186 
Q 475.124596 23.438186 477.953391 23.448081 
Q 480.782186 23.457863 483.39823 23.477202 
L 483.39823 23.585704 
Q 480.758547 23.560068 478.19766 23.54815 
Q 475.636773 23.536232 472.807979 23.536232 
Q 467.733483 23.536232 464.825892 23.582668 
Q 461.92618 23.628992 461.92618 23.710509 
Q 461.92618 23.791689 464.825892 23.838125 
Q 467.733483 23.884449 472.807979 23.884449 
Q 475.636773 23.884449 478.19766 23.872531 
Q 480.758547 23.8605 483.39823 23.834865 
L 483.39823 23.943479 
z
" clip-path="url(#p2cf6a50252)" style="fill: #0000ff"/>
   </g>
   <g id="patch_21">
    <path d="M 452.123894 21.655767 
L 483.39823 21.655767 
L 483.39823 22.003389 
L 472.146742 22.003389 
L 472.146742 23.438186 
L 463.397201 23.438186 
L 463.397201 22.003389 
L 452.123894 22.003389 
L 452.123894 21.655767 
z
" clip-path="url(#p2cf6a50252)" style="fill: #ff0000"/>
   </g>
   <g id="patch_22">
    <path d="M 473.787654 21.155146 
L 461.760047 21.155146 
L 459.860951 21.655767 
L 452.123894 21.655767 
L 463.173179 18.907652 
L 472.348945 18.907652 
L 483.39823 21.655767 
L 475.667567 21.655767 
L 473.787654 21.155146 
z
M 463.678326 20.645102 
L 471.850193 20.645102 
L 467.770653 19.551981 
L 463.678326 20.645102 
z
" clip-path="url(#p2cf6a50252)" style="fill: #008000"/>
   </g>
   <g id="patch_23">
    <path d="M 516.318584 23.943508 
Q 513.164516 23.963001 509.772141 23.972792 
Q 506.379765 23.982495 502.763101 23.982495 
Q 494.59056 23.982495 489.817404 23.92446 
Q 485.044248 23.866425 485.044248 23.767178 
Q 485.044248 23.666773 489.901512 23.609184 
Q 494.765786 23.551594 503.225697 23.551594 
Q 506.484901 23.551594 509.470752 23.559427 
Q 512.463612 23.56717 515.113029 23.58248 
L 515.113029 23.668376 
Q 512.379504 23.648704 509.674014 23.639002 
Q 506.968525 23.629211 504.249017 23.629211 
Q 499.216527 23.629211 496.49001 23.664993 
Q 493.763493 23.700687 493.763493 23.767178 
Q 493.763493 23.833046 496.391883 23.869006 
Q 499.020273 23.904877 503.856511 23.904877 
Q 505.174211 23.904877 506.302666 23.90283 
Q 507.431121 23.900694 508.328279 23.896243 
L 508.328279 23.815599 
L 503.176634 23.815599 
L 503.176634 23.743768 
L 516.318584 23.743768 
L 516.318584 23.943508 
z
" clip-path="url(#p2cf6a50252)" style="fill: #ffa600"/>
   </g>
   <g id="patch_24">
    <path d="M 506.708008 22.738237 
L 494.680401 22.738237 
L 492.781305 23.551594 
L 485.044248 23.551594 
L 496.093533 19.086744 
L 505.269299 19.086744 
L 516.318584 23.551594 
L 508.587921 23.551594 
L 506.708008 22.738237 
z
M 496.59868 21.90957 
L 504.770547 21.90957 
L 500.691007 20.133582 
L 496.59868 21.90957 
z
" clip-path="url(#p2cf6a50252)" style="fill: #008000"/>
   </g>
   <g id="patch_25">
    <path d="M 539.628362 23.450561 
L 527.600755 23.450561 
L 525.701659 23.982495 
L 517.964602 23.982495 
L 529.013887 21.062493 
L 538.189653 21.062493 
L 549.238938 23.982495 
L 541.508275 23.982495 
L 539.628362 23.450561 
z
M 529.519034 22.908615 
L 537.690901 22.908615 
L 533.611361 21.747122 
L 529.519034 22.908615 
z
" clip-path="url(#p2cf6a50252)" style="fill: #008000"/>
   </g>
   <g id="patch_26">
    <path d="M 582.159292 23.847199 
Q 579.005224 23.914847 575.612849 23.948825 
Q 572.220473 23.982495 568.603809 23.982495 
Q 560.431268 23.982495 555.658112 23.781096 
Q 550.884956 23.579697 550.884956 23.23528 
Q 550.884956 22.886847 555.74222 22.686993 
Q 560.606494 22.487138 569.066405 22.487138 
Q 572.325609 22.487138 575.31146 22.514321 
Q 578.30432 22.541194 580.953737 22.594324 
L 580.953737 22.892407 
Q 578.220212 22.824142 575.514722 22.790472 
Q 572.809233 22.756494 570.089725 22.756494 
Q 565.057235 22.756494 562.330718 22.880669 
Q 559.604201 23.004536 559.604201 23.23528 
Q 559.604201 23.463861 562.232591 23.588655 
Q 564.860981 23.713139 569.697219 23.713139 
Q 571.014919 23.713139 572.143374 23.706034 
Q 573.271829 23.698621 574.168986 23.683176 
L 574.168986 23.403318 
L 569.017342 23.403318 
L 569.017342 23.15404 
L 582.159292 23.15404 
L 582.159292 23.847199 
z
" clip-path="url(#p2cf6a50252)" style="fill: #ffa600"/>
   </g>
   <g id="patch_27">
    <path d="M 582.159292 22.207369 
Q 579.543248 22.346044 576.714453 22.416188 
Q 573.885658 22.487138 570.804714 22.487138 
Q 561.617041 22.487138 556.250998 21.961462 
Q 550.884956 21.435785 550.884956 20.536814 
Q 550.884956 19.634619 556.250998 19.109748 
Q 561.617041 18.584072 570.804714 18.584072 
Q 573.885658 18.584072 576.714453 18.655022 
Q 579.543248 18.725166 582.159292 18.863842 
L 582.159292 19.641875 
Q 579.519609 19.458049 576.958722 19.372587 
Q 574.397835 19.287124 571.569041 19.287124 
Q 566.494545 19.287124 563.586954 19.620106 
Q 560.687242 19.952282 560.687242 20.536814 
Q 560.687242 21.118928 563.586954 21.45191 
Q 566.494545 21.784086 571.569041 21.784086 
Q 574.397835 21.784086 576.958722 21.698624 
Q 579.519609 21.612355 582.159292 21.428529 
L 582.159292 22.207369 
z
" clip-path="url(#p2cf6a50252)" style="fill: #0000ff"/>
   </g>
   <g id="patch_28">
    <path d="M 583.80531 23.113537 
L 615.079646 23.113537 
L 615.079646 23.283008 
L 603.828158 23.283008 
L 603.828158 23.982495 
L 595.078617 23.982495 
L 595.078617 23.283008 
L 583.80531 23.283008 
L 583.80531 23.113537 
z
" clip-path="url(#p2cf6a50252)" style="fill: #ff0000"/>
   </g>
   <g id="patch_29">
    <path d="M 638.389424 23.91796 
L 626.361817 23.91796 
L 624.462721 23.982495 
L 616.725664 23.982495 
L 627.774949 23.62824 
L 636.950715 23.62824 
L 648 23.982495 
L 640.269337 23.982495 
L 638.389424 23.91796 
z
M 628.280095 23.852212 
L 636.451963 23.852212 
L 632.372423 23.711299 
L 628.280095 23.852212 
z
" clip-path="url(#p2cf6a50252)" style="fill: #008000"/>
   </g>
   <g id="patch_30">
    <path d="M 616.725664 22.324729 
L 648 22.324729 
L 648 22.57895 
L 636.748512 22.57895 
L 636.748512 23.62824 
L 627.998971 23.62824 
L 627.998971 22.57895 
L 616.725664 22.57895 
L 616.725664 22.324729 
z
" clip-path="url(#p2cf6a50252)" style="fill: #ff0000"/>
   </g>
   <g id="patch_31">
    <path d="M 121.274336 24.256937 
Q 118.658292 24.120902 115.829497 24.052094 
Q 113.000702 23.982495 109.919759 23.982495 
Q 100.732085 23.982495 95.366043 24.498162 
Q 90 25.01383 90 25.895685 
Q 90 26.780703 95.366043 27.29558 
Q 100.732085 27.811247 109.919759 27.811247 
Q 113.000702 27.811247 115.829497 27.741648 
Q 118.658292 27.67284 121.274336 27.536805 
L 121.274336 26.773585 
Q 118.634653 26.95391 116.073766 27.037746 
Q 113.51288 27.121582 110.684085 27.121582 
Q 105.609589 27.121582 102.701998 26.794939 
Q 99.802286 26.469088 99.802286 25.895685 
Q 99.802286 25.324654 102.701998 24.998012 
Q 105.609589 24.67216 110.684085 24.67216 
Q 113.51288 24.67216 116.073766 24.755996 
Q 118.634653 24.840622 121.274336 25.020948 
L 121.274336 24.256937 
z
" clip-path="url(#p2cf6a50252)" style="fill: #0000ff"/>
   </g>
   <g id="patch_32">
    <path d="M 121.274336 28.269284 
Q 118.120268 28.040266 114.727893 27.925234 
Q 111.335518 27.811247 107.718853 27.811247 
Q 99.546312 27.811247 94.773156 28.493073 
Q 90 29.174899 90 30.340905 
Q 90 31.520506 94.857265 32.197103 
Q 99.721538 32.873701 108.18145 32.873701 
Q 111.440653 32.873701 114.426504 32.781675 
Q 117.419364 32.690695 120.068781 32.510827 
L 120.068781 31.501683 
Q 117.335256 31.732792 114.629766 31.846779 
Q 111.924277 31.961811 109.204769 31.961811 
Q 104.172279 31.961811 101.445762 31.541421 
Q 98.719246 31.122077 98.719246 30.340905 
Q 98.719246 29.567054 101.347636 29.144573 
Q 103.976026 28.723137 108.812263 28.723137 
Q 110.129963 28.723137 111.258418 28.747189 
Q 112.386874 28.772287 113.284031 28.824575 
L 113.284031 29.77202 
L 108.132386 29.77202 
L 108.132386 30.615936 
L 121.274336 30.615936 
L 121.274336 28.269284 
z
" clip-path="url(#p2cf6a50252)" style="fill: #ffa600"/>
   </g>
   <g id="patch_33">
    <path d="M 144.584114 24.619373 
L 132.556507 24.619373 
L 130.657411 23.982495 
L 122.920354 23.982495 
L 133.969639 27.478581 
L 143.145405 27.478581 
L 154.19469 23.982495 
L 146.464027 23.982495 
L 144.584114 24.619373 
z
M 134.474786 25.268239 
L 142.646653 25.268239 
L 138.567114 26.658881 
L 134.474786 25.268239 
z
" clip-path="url(#p2cf6a50252)" style="fill: #008000"/>
   </g>
   <g id="patch_34">
    <path d="M 154.19469 27.873787 
Q 151.040622 27.676184 147.648247 27.576931 
Q 144.255872 27.478581 140.639207 27.478581 
Q 132.466666 27.478581 127.69351 28.066878 
Q 122.920354 28.655176 122.920354 29.661237 
Q 122.920354 30.679028 127.777619 31.262814 
Q 132.641892 31.8466 141.101804 31.8466 
Q 144.361007 31.8466 147.346858 31.767198 
Q 150.339718 31.688698 152.989135 31.533503 
L 152.989135 30.662787 
Q 150.25561 30.862194 147.55012 30.960545 
Q 144.844631 31.059797 142.125123 31.059797 
Q 137.092633 31.059797 134.366116 30.697074 
Q 131.6396 30.335253 131.6396 29.661237 
Q 131.6396 28.993537 134.26799 28.629009 
Q 136.89638 28.265384 141.732617 28.265384 
Q 143.050317 28.265384 144.178772 28.286137 
Q 145.307228 28.307792 146.204385 28.352906 
L 146.204385 29.170388 
L 141.05274 29.170388 
L 141.05274 29.898541 
L 154.19469 29.898541 
L 154.19469 27.873787 
z
" clip-path="url(#p2cf6a50252)" style="fill: #ffa600"/>
   </g>
   <g id="patch_35">
    <path d="M 177.504468 24.164399 
L 165.476861 24.164399 
L 163.577765 23.982495 
L 155.840708 23.982495 
L 166.889993 24.981045 
L 176.065759 24.981045 
L 187.115044 23.982495 
L 179.384381 23.982495 
L 177.504468 24.164399 
z
M 167.39514 24.349728 
L 175.567007 24.349728 
L 171.487467 24.746923 
L 167.39514 24.349728 
z
" clip-path="url(#p2cf6a50252)" style="fill: #008000"/>
   </g>
   <g id="patch_36">
    <path d="M 187.115044 27.044095 
Q 183.960976 26.01257 180.568601 25.494453 
Q 177.176226 24.981045 173.559561 24.981045 
Q 165.38702 24.981045 160.613864 28.052069 
Q 155.840708 31.123092 155.840708 36.374919 
Q 155.840708 41.687978 160.697973 44.735451 
Q 165.562246 47.782923 174.022158 47.782923 
Q 177.281361 47.782923 180.267212 47.368429 
Q 183.260072 46.958645 185.909489 46.148498 
L 185.909489 41.603195 
Q 183.175964 42.64414 180.470474 43.157547 
Q 177.764985 43.675665 175.045477 43.675665 
Q 170.012987 43.675665 167.28647 41.782181 
Q 164.559954 39.893407 164.559954 36.374919 
Q 164.559954 32.889402 167.188344 30.986497 
Q 169.816734 29.088304 174.652971 29.088304 
Q 175.970671 29.088304 177.099126 29.196637 
Q 178.227582 29.309681 179.124739 29.545189 
L 179.124739 33.812593 
L 173.973094 33.812593 
L 173.973094 37.613691 
L 187.115044 37.613691 
L 187.115044 27.044095 
z
" clip-path="url(#p2cf6a50252)" style="fill: #ffa600"/>
   </g>
   <g id="patch_37">
    <path d="M 220.035398 28.497652 
Q 216.88133 27.618596 213.488955 27.177061 
Q 210.09658 26.73954 206.479915 26.73954 
Q 198.307374 26.73954 193.534218 29.356639 
Q 188.761062 31.973737 188.761062 36.449297 
Q 188.761062 40.977038 193.618327 43.574067 
Q 198.4826 46.171095 206.942512 46.171095 
Q 210.201715 46.171095 213.187566 45.817867 
Q 216.180426 45.468653 218.829843 44.778253 
L 218.829843 40.904787 
Q 216.096318 41.791871 213.390828 42.229392 
Q 210.685339 42.670927 207.965831 42.670927 
Q 202.933341 42.670927 200.206824 41.057317 
Q 197.480308 39.447721 197.480308 36.449297 
Q 197.480308 33.47897 200.108698 31.857333 
Q 202.737088 30.239709 207.573325 30.239709 
Q 208.891025 30.239709 210.01948 30.33203 
Q 211.147936 30.428365 212.045093 30.629062 
L 212.045093 34.265705 
L 206.893448 34.265705 
L 206.893448 37.504967 
L 220.035398 37.504967 
L 220.035398 28.497652 
z
" clip-path="url(#p2cf6a50252)" style="fill: #ffa600"/>
   </g>
   <g id="patch_38">
    <path d="M 188.761062 26.73954 
L 220.035398 26.73954 
L 220.035398 26.20184 
L 208.78391 26.20184 
L 208.78391 23.982495 
L 200.034369 23.982495 
L 200.034369 26.20184 
L 188.761062 26.20184 
L 188.761062 26.73954 
z
" clip-path="url(#p2cf6a50252)" style="fill: #ff0000"/>
   </g>
   <g id="patch_39">
    <path d="M 243.345176 25.413929 
L 231.317569 25.413929 
L 229.418473 24.519081 
L 221.681416 24.519081 
L 232.730701 29.431272 
L 241.906467 29.431272 
L 252.955752 24.519081 
L 245.225089 24.519081 
L 243.345176 25.413929 
z
M 233.235848 26.325622 
L 241.407715 26.325622 
L 237.328175 28.279549 
L 233.235848 26.325622 
z
" clip-path="url(#p2cf6a50252)" style="fill: #008000"/>
   </g>
   <g id="patch_40">
    <path d="M 252.955752 24.071262 
Q 250.339708 24.054123 247.510913 24.045453 
Q 244.682118 24.036684 241.601175 24.036684 
Q 232.413501 24.036684 227.047459 24.101655 
Q 221.681416 24.166625 221.681416 24.277733 
Q 221.681416 24.38924 227.047459 24.454111 
Q 232.413501 24.519081 241.601175 24.519081 
Q 244.682118 24.519081 247.510913 24.510312 
Q 250.339708 24.501643 252.955752 24.484503 
L 252.955752 24.388343 
Q 250.316069 24.411063 247.755182 24.421625 
Q 245.194296 24.432188 242.365501 24.432188 
Q 237.291005 24.432188 234.383414 24.391033 
Q 231.483702 24.349978 231.483702 24.277733 
Q 231.483702 24.205787 234.383414 24.164633 
Q 237.291005 24.123577 242.365501 24.123577 
Q 245.194296 24.123577 247.755182 24.13414 
Q 250.316069 24.144803 252.955752 24.167522 
L 252.955752 24.071262 
z
" clip-path="url(#p2cf6a50252)" style="fill: #0000ff"/>
   </g>
   <g id="patch_41">
    <path d="M 252.955752 36.646029 
Q 249.801684 33.03865 246.409309 31.226725 
Q 243.016934 29.431272 239.400269 29.431272 
Q 231.227728 29.431272 226.454572 40.171047 
Q 221.681416 50.910823 221.681416 69.277157 
Q 221.681416 87.857628 226.538681 98.515044 
Q 231.402954 109.172459 239.862866 109.172459 
Q 243.122069 109.172459 246.10792 107.722919 
Q 249.10078 106.289851 251.750197 103.456658 
L 251.750197 87.561131 
Q 249.016672 91.201454 246.311182 92.996907 
Q 243.605693 94.808833 240.886185 94.808833 
Q 235.853695 94.808833 233.127178 88.187069 
Q 230.400662 81.581778 230.400662 69.277157 
Q 230.400662 57.087841 233.029052 50.433134 
Q 235.657442 43.794898 240.493679 43.794898 
Q 241.811379 43.794898 242.939834 44.173755 
Q 244.06829 44.569084 244.965447 45.392687 
L 244.965447 60.316363 
L 239.813802 60.316363 
L 239.813802 73.609306 
L 252.955752 73.609306 
L 252.955752 36.646029 
z
" clip-path="url(#p2cf6a50252)" style="fill: #ffa600"/>
   </g>
   <g id="patch_42">
    <path d="M 221.681416 24.036684 
L 252.955752 24.036684 
L 252.955752 24.026116 
L 241.704264 24.026116 
L 241.704264 23.982495 
L 232.954723 23.982495 
L 232.954723 24.026116 
L 221.681416 24.026116 
L 221.681416 24.036684 
z
" clip-path="url(#p2cf6a50252)" style="fill: #ff0000"/>
   </g>
   <g id="patch_43">
    <path d="M 285.876106 23.987487 
Q 283.260062 23.985012 280.431267 23.983761 
Q 277.602472 23.982495 274.521529 23.982495 
Q 265.333855 23.982495 259.967812 23.991875 
Q 254.60177 24.001254 254.60177 24.017295 
Q 254.60177 24.033394 259.967812 24.042759 
Q 265.333855 24.052139 274.521529 24.052139 
Q 277.602472 24.052139 280.431267 24.050873 
Q 283.260062 24.049621 285.876106 24.047147 
L 285.876106 24.033264 
Q 283.236423 24.036544 280.675536 24.038069 
Q 278.11465 24.039594 275.285855 24.039594 
Q 270.211359 24.039594 267.303768 24.033652 
Q 264.404056 24.027725 264.404056 24.017295 
Q 264.404056 24.006908 267.303768 24.000967 
Q 270.211359 23.99504 275.285855 23.99504 
Q 278.11465 23.99504 280.675536 23.996564 
Q 283.236423 23.998104 285.876106 24.001384 
L 285.876106 23.987487 
z
" clip-path="url(#p2cf6a50252)" style="fill: #0000ff"/>
   </g>
   <g id="patch_44">
    <path d="M 285.876106 36.19098 
Q 282.722038 30.16509 279.329663 27.138388 
Q 275.937288 24.139201 272.320623 24.139201 
Q 264.148082 24.139201 259.374926 42.079292 
Q 254.60177 60.019383 254.60177 90.69914 
Q 254.60177 121.736599 259.459035 139.539112 
Q 264.323308 157.341626 272.78322 157.341626 
Q 276.042423 157.341626 279.028274 154.920264 
Q 282.021134 152.526418 284.670551 147.793755 
L 284.670551 121.24132 
Q 281.937026 127.32224 279.231536 130.321427 
Q 276.526047 133.34813 273.806539 133.34813 
Q 268.774049 133.34813 266.047532 122.286908 
Q 263.321016 111.253202 263.321016 90.69914 
Q 263.321016 70.337687 265.949406 59.221434 
Q 268.577796 48.132697 273.414033 48.132697 
Q 274.731733 48.132697 275.860188 48.765553 
Q 276.988644 49.425924 277.885801 50.801698 
L 277.885801 75.730721 
L 272.734156 75.730721 
L 272.734156 97.935711 
L 285.876106 97.935711 
L 285.876106 36.19098 
z
" clip-path="url(#p2cf6a50252)" style="fill: #ffa600"/>
   </g>
   <g id="patch_45">
    <path d="M 254.60177 24.139201 
L 285.876106 24.139201 
L 285.876106 24.122221 
L 274.624618 24.122221 
L 274.624618 24.052139 
L 265.875077 24.052139 
L 265.875077 24.122221 
L 254.60177 24.122221 
L 254.60177 24.139201 
z
" clip-path="url(#p2cf6a50252)" style="fill: #ff0000"/>
   </g>
   <g id="patch_46">
    <path d="M 309.185884 24.023881 
L 297.158277 24.023881 
L 295.259181 23.997495 
L 287.522124 23.997495 
L 298.571409 24.142339 
L 307.747175 24.142339 
L 318.79646 23.997495 
L 311.065797 23.997495 
L 309.185884 24.023881 
z
M 299.076556 24.050764 
L 307.248423 24.050764 
L 303.168883 24.108379 
L 299.076556 24.050764 
z
" clip-path="url(#p2cf6a50252)" style="fill: #008000"/>
   </g>
   <g id="patch_47">
    <path d="M 318.79646 23.98357 
Q 316.180416 23.983037 313.351621 23.982767 
Q 310.522826 23.982495 307.441883 23.982495 
Q 298.254209 23.982495 292.888166 23.984515 
Q 287.522124 23.986535 287.522124 23.98999 
Q 287.522124 23.993458 292.888166 23.995475 
Q 298.254209 23.997495 307.441883 23.997495 
Q 310.522826 23.997495 313.351621 23.997223 
Q 316.180416 23.996953 318.79646 23.99642 
L 318.79646 23.99343 
Q 316.156777 23.994136 313.59589 23.994465 
Q 311.035004 23.994793 308.206209 23.994793 
Q 303.131713 23.994793 300.224122 23.993514 
Q 297.32441 23.992237 297.32441 23.98999 
Q 297.32441 23.987753 300.224122 23.986473 
Q 303.131713 23.985197 308.206209 23.985197 
Q 311.035004 23.985197 313.59589 23.985525 
Q 316.156777 23.985857 318.79646 23.986563 
L 318.79646 23.98357 
z
" clip-path="url(#p2cf6a50252)" style="fill: #0000ff"/>
   </g>
   <g id="patch_48">
    <path d="M 318.79646 39.351719 
Q 315.642392 31.747029 312.250017 27.927322 
Q 308.857642 24.142339 305.240977 24.142339 
Q 297.068436 24.142339 292.29528 46.782786 
Q 287.522124 69.423233 287.522124 108.141176 
Q 287.522124 147.310538 292.379389 169.777362 
Q 297.243662 192.244186 305.703574 192.244186 
Q 308.962777 192.244186 311.948628 189.18842 
Q 314.941488 186.167379 317.590905 180.194746 
L 317.590905 146.685495 
Q 314.85738 154.359635 312.15189 158.144617 
Q 309.446401 161.964325 306.726893 161.964325 
Q 301.694403 161.964325 298.967886 148.005031 
Q 296.24137 134.080461 296.24137 108.141176 
Q 296.24137 82.444963 298.86976 68.41622 
Q 301.49815 54.422201 306.334387 54.422201 
Q 307.652087 54.422201 308.780542 55.220867 
Q 309.908998 56.054258 310.806155 57.790488 
L 310.806155 89.250987 
L 305.65451 89.250987 
L 305.65451 117.273749 
L 318.79646 117.273749 
L 318.79646 39.351719 
z
" clip-path="url(#p2cf6a50252)" style="fill: #ffa600"/>
   </g>
   <g id="patch_49">
    <path d="M 351.716814 28.520996 
Q 349.10077 26.494155 346.271975 25.46895 
Q 343.44318 24.431962 340.362237 24.431962 
Q 331.174563 24.431962 325.80852 32.115105 
Q 320.442478 39.798248 320.442478 52.937365 
Q 320.442478 66.123618 325.80852 73.794977 
Q 331.174563 81.47812 340.362237 81.47812 
Q 343.44318 81.47812 346.271975 80.441131 
Q 349.10077 79.415926 351.716814 77.389085 
L 351.716814 66.017562 
Q 349.077131 68.704305 346.516244 69.953405 
Q 343.955358 71.202505 341.126563 71.202505 
Q 336.052067 71.202505 333.144476 66.335729 
Q 330.244764 61.480737 330.244764 52.937365 
Q 330.244764 44.429344 333.144476 39.562568 
Q 336.052067 34.707576 341.126563 34.707576 
Q 343.955358 34.707576 346.516244 35.956676 
Q 349.077131 37.21756 351.716814 39.904303 
L 351.716814 28.520996 
z
" clip-path="url(#p2cf6a50252)" style="fill: #0000ff"/>
   </g>
   <g id="patch_50">
    <path d="M 351.716814 24.023161 
Q 348.562746 24.002828 345.170371 23.992615 
Q 341.777996 23.982495 338.161331 23.982495 
Q 329.98879 23.982495 325.215634 24.04303 
Q 320.442478 24.103566 320.442478 24.207089 
Q 320.442478 24.311819 325.299743 24.37189 
Q 330.164016 24.431962 338.623928 24.431962 
Q 341.883131 24.431962 344.868982 24.423791 
Q 347.861842 24.415714 350.511259 24.399744 
L 350.511259 24.310148 
Q 347.777734 24.330667 345.072244 24.340787 
Q 342.366755 24.351 339.647247 24.351 
Q 334.614757 24.351 331.88824 24.313676 
Q 329.161724 24.276445 329.161724 24.207089 
Q 329.161724 24.138383 331.790114 24.100873 
Q 334.418504 24.063456 339.254741 24.063456 
Q 340.572441 24.063456 341.700896 24.065592 
Q 342.829351 24.06782 343.726509 24.072462 
L 343.726509 24.156581 
L 338.574864 24.156581 
L 338.574864 24.231507 
L 351.716814 24.231507 
L 351.716814 24.023161 
z
" clip-path="url(#p2cf6a50252)" style="fill: #ffa600"/>
   </g>
   <g id="patch_51">
    <path d="M 384.637168 23.991135 
Q 382.021124 23.986852 379.192329 23.984686 
Q 376.363534 23.982495 373.282591 23.982495 
Q 364.094917 23.982495 358.728874 23.998729 
Q 353.362832 24.014963 353.362832 24.042725 
Q 353.362832 24.070587 358.728874 24.086796 
Q 364.094917 24.10303 373.282591 24.10303 
Q 376.363534 24.10303 379.192329 24.100839 
Q 382.021124 24.098673 384.637168 24.09439 
L 384.637168 24.070363 
Q 381.997485 24.07604 379.436598 24.078679 
Q 376.875712 24.081318 374.046917 24.081318 
Q 368.972421 24.081318 366.06483 24.071035 
Q 363.165118 24.060777 363.165118 24.042725 
Q 363.165118 24.024748 366.06483 24.014465 
Q 368.972421 24.004206 374.046917 24.004206 
Q 376.875712 24.004206 379.436598 24.006846 
Q 381.997485 24.00951 384.637168 24.015187 
L 384.637168 23.991135 
z
" clip-path="url(#p2cf6a50252)" style="fill: #0000ff"/>
   </g>
   <g id="patch_52">
    <path d="M 384.637168 35.816142 
Q 381.4831 29.959586 378.090725 27.017937 
Q 374.698349 24.10303 371.081685 24.10303 
Q 362.909144 24.10303 358.135988 41.538986 
Q 353.362832 58.974942 353.362832 88.792567 
Q 353.362832 118.95784 358.220097 136.260085 
Q 363.08437 153.56233 371.544282 153.56233 
Q 374.803485 153.56233 377.789336 151.209011 
Q 380.782196 148.882434 383.431613 144.282764 
L 383.431613 118.47648 
Q 380.698088 124.38652 377.992598 127.301427 
Q 375.287109 130.243076 372.567601 130.243076 
Q 367.535111 130.243076 364.808594 119.492686 
Q 362.082078 108.769038 362.082078 88.792567 
Q 362.082078 69.003291 364.710468 58.199417 
Q 367.338858 47.422284 372.175095 47.422284 
Q 373.492795 47.422284 374.62125 48.037356 
Q 375.749705 48.679171 376.646863 50.016284 
L 376.646863 74.244775 
L 371.495218 74.244775 
L 371.495218 95.825782 
L 384.637168 95.825782 
L 384.637168 35.816142 
z
" clip-path="url(#p2cf6a50252)" style="fill: #ffa600"/>
   </g>
   <g id="patch_53">
    <path d="M 417.557522 24.005393 
Q 414.941478 23.994043 412.112683 23.988302 
Q 409.283888 23.982495 406.202945 23.982495 
Q 397.015271 23.982495 391.649228 24.025519 
Q 386.283186 24.068544 386.283186 24.142122 
Q 386.283186 24.215964 391.649228 24.258923 
Q 397.015271 24.301947 406.202945 24.301947 
Q 409.283888 24.301947 412.112683 24.29614 
Q 414.941478 24.290399 417.557522 24.279049 
L 417.557522 24.21537 
Q 414.917839 24.230415 412.356952 24.23741 
Q 409.796066 24.244405 406.967271 24.244405 
Q 401.892775 24.244405 398.985184 24.217152 
Q 396.085472 24.189964 396.085472 24.142122 
Q 396.085472 24.094478 398.985184 24.067224 
Q 401.892775 24.040037 406.967271 24.040037 
Q 409.796066 24.040037 412.356952 24.047032 
Q 414.917839 24.054093 417.557522 24.069138 
L 417.557522 24.005393 
z
" clip-path="url(#p2cf6a50252)" style="fill: #0000ff"/>
   </g>
   <g id="patch_54">
    <path d="M 417.557522 33.427758 
Q 414.403454 30.616772 411.011079 29.204862 
Q 407.618703 27.805787 404.002039 27.805787 
Q 395.829498 27.805787 391.056342 36.174565 
Q 386.283186 44.543344 386.283186 58.854981 
Q 386.283186 73.333481 391.140451 81.638082 
Q 396.004724 89.942683 404.464635 89.942683 
Q 407.723839 89.942683 410.70969 88.813154 
Q 413.70255 87.696461 416.351967 85.488747 
L 416.351967 73.102442 
Q 413.618442 75.939098 410.912952 77.338173 
Q 408.207463 78.750083 405.487955 78.750083 
Q 400.455465 78.750083 397.728948 73.590192 
Q 395.002432 68.443137 395.002432 58.854981 
Q 395.002432 49.356675 397.630822 44.171113 
Q 400.259212 38.998386 405.095449 38.998386 
Q 406.413149 38.998386 407.541604 39.293604 
Q 408.670059 39.601657 409.567217 40.243435 
L 409.567217 51.872443 
L 404.415572 51.872443 
L 404.415572 62.230731 
L 417.557522 62.230731 
L 417.557522 33.427758 
z
" clip-path="url(#p2cf6a50252)" style="fill: #ffa600"/>
   </g>
   <g id="patch_55">
    <path d="M 386.283186 27.805787 
L 417.557522 27.805787 
L 417.557522 27.122441 
L 406.306034 27.122441 
L 406.306034 24.301947 
L 397.556493 24.301947 
L 397.556493 27.122441 
L 386.283186 27.122441 
L 386.283186 27.805787 
z
" clip-path="url(#p2cf6a50252)" style="fill: #ff0000"/>
   </g>
   <g id="patch_56">
    <path d="M 450.477876 24.002701 
Q 447.861832 23.992685 445.033037 23.987619 
Q 442.204242 23.982495 439.123298 23.982495 
Q 429.935625 23.982495 424.569582 24.020461 
Q 419.20354 24.058428 419.20354 24.123356 
Q 419.20354 24.188517 424.569582 24.226426 
Q 429.935625 24.264393 439.123298 24.264393 
Q 442.204242 24.264393 445.033037 24.259268 
Q 447.861832 24.254202 450.477876 24.244186 
L 450.477876 24.187993 
Q 447.838193 24.20127 445.277306 24.207442 
Q 442.71642 24.213615 439.887625 24.213615 
Q 434.813129 24.213615 431.905538 24.189565 
Q 429.005826 24.165574 429.005826 24.123356 
Q 429.005826 24.081313 431.905538 24.057264 
Q 434.813129 24.033272 439.887625 24.033272 
Q 442.71642 24.033272 445.277306 24.039445 
Q 447.838193 24.045676 450.477876 24.058952 
L 450.477876 24.002701 
z
" clip-path="url(#p2cf6a50252)" style="fill: #0000ff"/>
   </g>
   <g id="patch_57">
    <path d="M 450.477876 26.027658 
Q 447.323808 25.146025 443.931433 24.703196 
Q 440.539057 24.264393 436.922393 24.264393 
Q 428.749852 24.264393 423.976696 26.889162 
Q 419.20354 29.513932 419.20354 34.00261 
Q 419.20354 38.543623 424.060805 41.148264 
Q 428.925078 43.752905 437.384989 43.752905 
Q 440.644193 43.752905 443.630044 43.398642 
Q 446.622904 43.048404 449.272321 42.35598 
L 449.272321 38.47116 
Q 446.538796 39.360844 443.833306 39.799648 
Q 441.127817 40.242477 438.408309 40.242477 
Q 433.375819 40.242477 430.649302 38.624137 
Q 427.922786 37.009824 427.922786 34.00261 
Q 427.922786 31.023577 430.551176 29.397186 
Q 433.179565 27.774821 438.015803 27.774821 
Q 439.333503 27.774821 440.461958 27.867412 
Q 441.590413 27.96403 442.487571 28.165316 
L 442.487571 31.812618 
L 437.335926 31.812618 
L 437.335926 35.061375 
L 450.477876 35.061375 
L 450.477876 26.027658 
z
" clip-path="url(#p2cf6a50252)" style="fill: #ffa600"/>
   </g>
   <g id="patch_58">
    <path d="M 483.39823 27.657093 
Q 480.244162 25.819794 476.851787 24.89695 
Q 473.459411 23.982495 469.842747 23.982495 
Q 461.670206 23.982495 456.89705 29.452445 
Q 452.123894 34.922396 452.123894 44.276683 
Q 452.123894 53.740033 456.981158 59.168037 
Q 461.845432 64.59604 470.305343 64.59604 
Q 473.564547 64.59604 476.550398 63.857764 
Q 479.543258 63.127878 482.192675 61.684885 
L 482.192675 53.589023 
Q 479.45915 55.443101 476.75366 56.357556 
Q 474.048171 57.2804 471.328663 57.2804 
Q 466.296173 57.2804 463.569656 53.907823 
Q 460.84314 50.543636 460.84314 44.276683 
Q 460.84314 38.068457 463.471529 34.679101 
Q 466.099919 31.298134 470.936157 31.298134 
Q 472.253857 31.298134 473.382312 31.491093 
Q 474.510767 31.692441 475.407925 32.111915 
L 475.407925 39.712798 
L 470.25628 39.712798 
L 470.25628 46.48312 
L 483.39823 46.48312 
L 483.39823 27.657093 
z
" clip-path="url(#p2cf6a50252)" style="fill: #ffa600"/>
   </g>
   <g id="patch_59">
    <path d="M 516.318584 29.486527 
Q 513.70254 27.147818 510.873745 25.964867 
Q 508.04495 24.768318 504.964006 24.768318 
Q 495.776333 24.768318 490.41029 33.633655 
Q 485.044248 42.498992 485.044248 57.659806 
Q 485.044248 72.875009 490.41029 81.726749 
Q 495.776333 90.592086 504.964006 90.592086 
Q 508.04495 90.592086 510.873745 89.395537 
Q 513.70254 88.212586 516.318584 85.873877 
L 516.318584 72.752635 
Q 513.678901 75.852783 511.118014 77.29408 
Q 508.557127 78.735377 505.728333 78.735377 
Q 500.653837 78.735377 497.746246 73.119757 
Q 494.846534 67.517735 494.846534 57.659806 
Q 494.846534 47.842669 497.746246 42.227049 
Q 500.653837 36.625027 505.728333 36.625027 
Q 508.557127 36.625027 511.118014 38.066324 
Q 513.678901 39.521218 516.318584 42.621367 
L 516.318584 29.486527 
z
" clip-path="url(#p2cf6a50252)" style="fill: #0000ff"/>
   </g>
   <g id="patch_60">
    <path d="M 485.044248 24.768318 
L 516.318584 24.768318 
L 516.318584 24.615061 
L 505.067096 24.615061 
L 505.067096 23.982495 
L 496.317555 23.982495 
L 496.317555 24.615061 
L 485.044248 24.615061 
L 485.044248 24.768318 
z
" clip-path="url(#p2cf6a50252)" style="fill: #ff0000"/>
   </g>
   <g id="patch_61">
    <path d="M 549.238938 30.04226 
Q 546.622894 29.523713 543.794099 29.261424 
Q 540.965304 28.996121 537.88436 28.996121 
Q 528.696687 28.996121 523.330644 30.961778 
Q 517.964602 32.927435 517.964602 36.28895 
Q 517.964602 39.662524 523.330644 41.625166 
Q 528.696687 43.590823 537.88436 43.590823 
Q 540.965304 43.590823 543.794099 43.325519 
Q 546.622894 43.063231 549.238938 42.544683 
L 549.238938 39.63539 
Q 546.599255 40.322767 544.038368 40.642337 
Q 541.477481 40.961907 538.648687 40.961907 
Q 533.574191 40.961907 530.6666 39.71679 
Q 527.766888 38.474688 527.766888 36.28895 
Q 527.766888 34.112256 530.6666 32.867139 
Q 533.574191 31.625036 538.648687 31.625036 
Q 541.477481 31.625036 544.038368 31.944606 
Q 546.599255 32.267191 549.238938 32.954568 
L 549.238938 30.04226 
z
" clip-path="url(#p2cf6a50252)" style="fill: #0000ff"/>
   </g>
   <g id="patch_62">
    <path d="M 549.238938 24.025625 
Q 546.08487 24.00406 542.692495 23.993228 
Q 539.300119 23.982495 535.683455 23.982495 
Q 527.510914 23.982495 522.737758 24.046698 
Q 517.964602 24.110902 517.964602 24.220699 
Q 517.964602 24.331775 522.821866 24.395487 
Q 527.68614 24.459199 536.146051 24.459199 
Q 539.405255 24.459199 542.391106 24.450533 
Q 545.383966 24.441966 548.033383 24.425029 
L 548.033383 24.330003 
Q 545.299858 24.351765 542.594368 24.362499 
Q 539.888879 24.373331 537.169371 24.373331 
Q 532.136881 24.373331 529.410364 24.333745 
Q 526.683847 24.294258 526.683847 24.220699 
Q 526.683847 24.147829 529.312237 24.108047 
Q 531.940627 24.068362 536.776865 24.068362 
Q 538.094565 24.068362 539.22302 24.070627 
Q 540.351475 24.072991 541.248633 24.077914 
L 541.248633 24.16713 
L 536.096988 24.16713 
L 536.096988 24.246597 
L 549.238938 24.246597 
L 549.238938 24.025625 
z
" clip-path="url(#p2cf6a50252)" style="fill: #ffa600"/>
   </g>
   <g id="patch_63">
    <path d="M 517.964602 28.996121 
L 549.238938 28.996121 
L 549.238938 28.111294 
L 537.98745 28.111294 
L 537.98745 24.459199 
L 529.237909 24.459199 
L 529.237909 28.111294 
L 517.964602 28.111294 
L 517.964602 28.996121 
z
" clip-path="url(#p2cf6a50252)" style="fill: #ff0000"/>
   </g>
   <g id="patch_64">
    <path d="M 572.548716 24.718345 
L 560.521109 24.718345 
L 558.622013 23.982495 
L 550.884956 23.982495 
L 561.934241 28.02188 
L 571.110007 28.02188 
L 582.159292 23.982495 
L 574.428629 23.982495 
L 572.548716 24.718345 
z
M 562.439387 25.468046 
L 570.611255 25.468046 
L 566.531715 27.074797 
L 562.439387 25.468046 
z
" clip-path="url(#p2cf6a50252)" style="fill: #008000"/>
   </g>
   <g id="patch_65">
    <path d="M 550.884956 33.054417 
L 582.159292 33.054417 
L 582.159292 32.072932 
L 570.907804 32.072932 
L 570.907804 28.02188 
L 562.158263 28.02188 
L 562.158263 32.072932 
L 550.884956 32.072932 
L 550.884956 33.054417 
z
" clip-path="url(#p2cf6a50252)" style="fill: #ff0000"/>
   </g>
   <g id="patch_66">
    <path d="M 605.46907 24.615951 
L 593.441463 24.615951 
L 591.542367 24.455148 
L 583.80531 24.455148 
L 594.854595 25.337863 
L 604.030361 25.337863 
L 615.079646 24.455148 
L 607.348983 24.455148 
L 605.46907 24.615951 
z
M 595.359741 24.779781 
L 603.531609 24.779781 
L 599.452069 25.1309 
L 595.359741 24.779781 
z
" clip-path="url(#p2cf6a50252)" style="fill: #008000"/>
   </g>
   <g id="patch_67">
    <path d="M 615.079646 25.441877 
Q 612.463602 25.390319 609.634807 25.364241 
Q 606.806012 25.337863 603.725068 25.337863 
Q 594.537395 25.337863 589.171352 25.533301 
Q 583.80531 25.728738 583.80531 26.062961 
Q 583.80531 26.398382 589.171352 26.59352 
Q 594.537395 26.788958 603.725068 26.788958 
Q 606.806012 26.788958 609.634807 26.76258 
Q 612.463602 26.736501 615.079646 26.684944 
L 615.079646 26.395684 
Q 612.439963 26.464028 609.879076 26.495801 
Q 607.318189 26.527575 604.489395 26.527575 
Q 599.414899 26.527575 596.507308 26.403778 
Q 593.607596 26.28028 593.607596 26.062961 
Q 593.607596 25.846541 596.507308 25.722743 
Q 599.414899 25.599246 604.489395 25.599246 
Q 607.318189 25.599246 609.879076 25.631019 
Q 612.439963 25.663093 615.079646 25.731436 
L 615.079646 25.441877 
z
" clip-path="url(#p2cf6a50252)" style="fill: #0000ff"/>
   </g>
   <g id="patch_68">
    <path d="M 615.079646 24.025259 
Q 611.925578 24.003877 608.533203 23.993137 
Q 605.140827 23.982495 601.524163 23.982495 
Q 593.351622 23.982495 588.578466 24.046153 
Q 583.80531 24.109811 583.80531 24.218675 
Q 583.80531 24.328807 588.662574 24.391978 
Q 593.526848 24.455148 601.986759 24.455148 
Q 605.245963 24.455148 608.231814 24.446556 
Q 611.224674 24.438061 613.874091 24.421268 
L 613.874091 24.32705 
Q 611.140566 24.348627 608.435076 24.35927 
Q 605.729587 24.37001 603.010079 24.37001 
Q 597.977589 24.37001 595.251072 24.33076 
Q 592.524555 24.291608 592.524555 24.218675 
Q 592.524555 24.146424 595.152945 24.10698 
Q 597.781335 24.067633 602.617573 24.067633 
Q 603.935272 24.067633 605.063728 24.069878 
Q 606.192183 24.072222 607.08934 24.077103 
L 607.08934 24.165561 
L 601.937696 24.165561 
L 601.937696 24.244353 
L 615.079646 24.244353 
L 615.079646 24.025259 
z
" clip-path="url(#p2cf6a50252)" style="fill: #ffa600"/>
   </g>
   <g id="patch_69">
    <path d="M 648 26.613464 
Q 645.383956 26.506848 642.555161 26.45292 
Q 639.726366 26.398372 636.645422 26.398372 
Q 627.457749 26.398372 622.091706 26.802522 
Q 616.725664 27.206672 616.725664 27.897818 
Q 616.725664 28.591444 622.091706 28.994974 
Q 627.457749 29.399125 636.645422 29.399125 
Q 639.726366 29.399125 642.555161 29.344577 
Q 645.383956 29.290649 648 29.184032 
L 648 28.585865 
Q 645.360317 28.727194 642.79943 28.792899 
Q 640.238543 28.858605 637.409749 28.858605 
Q 632.335253 28.858605 629.427662 28.602602 
Q 626.52795 28.347218 626.52795 27.897818 
Q 626.52795 27.450278 629.427662 27.194275 
Q 632.335253 26.938892 637.409749 26.938892 
Q 640.238543 26.938892 642.79943 27.004597 
Q 645.360317 27.070922 648 27.212251 
L 648 26.613464 
z
" clip-path="url(#p2cf6a50252)" style="fill: #0000ff"/>
   </g>
   <g id="patch_70">
    <path d="M 648 24.201076 
Q 644.845932 24.091785 641.453557 24.036891 
Q 638.061181 23.982495 634.444517 23.982495 
Q 626.271976 23.982495 621.49882 24.307872 
Q 616.725664 24.633249 616.725664 25.189685 
Q 616.725664 25.752608 621.582928 26.07549 
Q 626.447202 26.398372 634.907113 26.398372 
Q 638.166317 26.398372 641.152168 26.354456 
Q 644.145028 26.311039 646.794445 26.225203 
L 646.794445 25.743625 
Q 644.06092 25.853914 641.35543 25.90831 
Q 638.649941 25.963205 635.930433 25.963205 
Q 630.897943 25.963205 628.171426 25.762588 
Q 625.444909 25.562471 625.444909 25.189685 
Q 625.444909 24.820391 628.073299 24.618777 
Q 630.701689 24.417662 635.537927 24.417662 
Q 636.855626 24.417662 637.984082 24.42914 
Q 639.112537 24.441117 640.009694 24.466069 
L 640.009694 24.918204 
L 634.85805 24.918204 
L 634.85805 25.320934 
L 648 25.320934 
L 648 24.201076 
z
" clip-path="url(#p2cf6a50252)" style="fill: #ffa600"/>
   </g>
   <g id="matplotlib.axis_1">
    <g id="xtick_1">
     <g id="line2d_2">
      <defs>
       <path id="m20808a6ab3" d="M 0 0 
L 0 3.5 
" style="stroke: #000000; stroke-width: 0.8"/>
      </defs>
      <g>
       <use xlink:href="#m20808a6ab3" x="105.637168" y="192.24" style="stroke: #000000; stroke-width: 0.8"/>
      </g>
     </g>
     <g id="text_1">
      <!-- 0 -->
      <g transform="translate(102.455918 206.838437) scale(0.1 -0.1)">
       <defs>
        <path id="DejaVuSans-30" d="M 2034 4250 
Q 1547 4250 1301 3770 
Q 1056 3291 1056 2328 
Q 1056 1369 1301 889 
Q 1547 409 2034 409 
Q 2525 409 2770 889 
Q 3016 1369 3016 2328 
Q 3016 3291 2770 3770 
Q 2525 4250 2034 4250 
z
M 2034 4750 
Q 2819 4750 3233 4129 
Q 3647 3509 3647 2328 
Q 3647 1150 3233 529 
Q 2819 -91 2034 -91 
Q 1250 -91 836 529 
Q 422 1150 422 2328 
Q 422 3509 836 4129 
Q 1250 4750 2034 4750 
z
" transform="scale(0.015625)"/>
       </defs>
       <use xlink:href="#DejaVuSans-30"/>
      </g>
     </g>
    </g>
    <g id="xtick_2">
     <g id="line2d_3">
      <g>
       <use xlink:href="#m20808a6ab3" x="171.477876" y="192.24" style="stroke: #000000; stroke-width: 0.8"/>
      </g>
     </g>
     <g id="text_2">
      <!-- 2 -->
      <g transform="translate(168.296626 206.838437) scale(0.1 -0.1)">
       <defs>
        <path id="DejaVuSans-32" d="M 1228 531 
L 3431 531 
L 3431 0 
L 469 0 
L 469 531 
Q 828 903 1448 1529 
Q 2069 2156 2228 2338 
Q 2531 2678 2651 2914 
Q 2772 3150 2772 3378 
Q 2772 3750 2511 3984 
Q 2250 4219 1831 4219 
Q 1534 4219 1204 4116 
Q 875 4013 500 3803 
L 500 4441 
Q 881 4594 1212 4672 
Q 1544 4750 1819 4750 
Q 2544 4750 2975 4387 
Q 3406 4025 3406 3419 
Q 3406 3131 3298 2873 
Q 3191 2616 2906 2266 
Q 2828 2175 2409 1742 
Q 1991 1309 1228 531 
z
" transform="scale(0.015625)"/>
       </defs>
       <use xlink:href="#DejaVuSans-32"/>
      </g>
     </g>
    </g>
    <g id="xtick_3">
     <g id="line2d_4">
      <g>
       <use xlink:href="#m20808a6ab3" x="237.318584" y="192.24" style="stroke: #000000; stroke-width: 0.8"/>
      </g>
     </g>
     <g id="text_3">
      <!-- 4 -->
      <g transform="translate(234.137334 206.838437) scale(0.1 -0.1)">
       <defs>
        <path id="DejaVuSans-34" d="M 2419 4116 
L 825 1625 
L 2419 1625 
L 2419 4116 
z
M 2253 4666 
L 3047 4666 
L 3047 1625 
L 3713 1625 
L 3713 1100 
L 3047 1100 
L 3047 0 
L 2419 0 
L 2419 1100 
L 313 1100 
L 313 1709 
L 2253 4666 
z
" transform="scale(0.015625)"/>
       </defs>
       <use xlink:href="#DejaVuSans-34"/>
      </g>
     </g>
    </g>
    <g id="xtick_4">
     <g id="line2d_5">
      <g>
       <use xlink:href="#m20808a6ab3" x="303.159292" y="192.24" style="stroke: #000000; stroke-width: 0.8"/>
      </g>
     </g>
     <g id="text_4">
      <!-- 6 -->
      <g transform="translate(299.978042 206.838437) scale(0.1 -0.1)">
       <defs>
        <path id="DejaVuSans-36" d="M 2113 2584 
Q 1688 2584 1439 2293 
Q 1191 2003 1191 1497 
Q 1191 994 1439 701 
Q 1688 409 2113 409 
Q 2538 409 2786 701 
Q 3034 994 3034 1497 
Q 3034 2003 2786 2293 
Q 2538 2584 2113 2584 
z
M 3366 4563 
L 3366 3988 
Q 3128 4100 2886 4159 
Q 2644 4219 2406 4219 
Q 1781 4219 1451 3797 
Q 1122 3375 1075 2522 
Q 1259 2794 1537 2939 
Q 1816 3084 2150 3084 
Q 2853 3084 3261 2657 
Q 3669 2231 3669 1497 
Q 3669 778 3244 343 
Q 2819 -91 2113 -91 
Q 1303 -91 875 529 
Q 447 1150 447 2328 
Q 447 3434 972 4092 
Q 1497 4750 2381 4750 
Q 2619 4750 2861 4703 
Q 3103 4656 3366 4563 
z
" transform="scale(0.015625)"/>
       </defs>
       <use xlink:href="#DejaVuSans-36"/>
      </g>
     </g>
    </g>
    <g id="xtick_5">
     <g id="line2d_6">
      <g>
       <use xlink:href="#m20808a6ab3" x="369" y="192.24" style="stroke: #000000; stroke-width: 0.8"/>
      </g>
     </g>
     <g id="text_5">
      <!-- 8 -->
      <g transform="translate(365.81875 206.838437) scale(0.1 -0.1)">
       <defs>
        <path id="DejaVuSans-38" d="M 2034 2216 
Q 1584 2216 1326 1975 
Q 1069 1734 1069 1313 
Q 1069 891 1326 650 
Q 1584 409 2034 409 
Q 2484 409 2743 651 
Q 3003 894 3003 1313 
Q 3003 1734 2745 1975 
Q 2488 2216 2034 2216 
z
M 1403 2484 
Q 997 2584 770 2862 
Q 544 3141 544 3541 
Q 544 4100 942 4425 
Q 1341 4750 2034 4750 
Q 2731 4750 3128 4425 
Q 3525 4100 3525 3541 
Q 3525 3141 3298 2862 
Q 3072 2584 2669 2484 
Q 3125 2378 3379 2068 
Q 3634 1759 3634 1313 
Q 3634 634 3220 271 
Q 2806 -91 2034 -91 
Q 1263 -91 848 271 
Q 434 634 434 1313 
Q 434 1759 690 2068 
Q 947 2378 1403 2484 
z
M 1172 3481 
Q 1172 3119 1398 2916 
Q 1625 2713 2034 2713 
Q 2441 2713 2670 2916 
Q 2900 3119 2900 3481 
Q 2900 3844 2670 4047 
Q 2441 4250 2034 4250 
Q 1625 4250 1398 4047 
Q 1172 3844 1172 3481 
z
" transform="scale(0.015625)"/>
       </defs>
       <use xlink:href="#DejaVuSans-38"/>
      </g>
     </g>
    </g>
    <g id="xtick_6">
     <g id="line2d_7">
      <g>
       <use xlink:href="#m20808a6ab3" x="434.840708" y="192.24" style="stroke: #000000; stroke-width: 0.8"/>
      </g>
     </g>
     <g id="text_6">
      <!-- 10 -->
      <g transform="translate(428.478208 206.838437) scale(0.1 -0.1)">
       <defs>
        <path id="DejaVuSans-31" d="M 794 531 
L 1825 531 
L 1825 4091 
L 703 3866 
L 703 4441 
L 1819 4666 
L 2450 4666 
L 2450 531 
L 3481 531 
L 3481 0 
L 794 0 
L 794 531 
z
" transform="scale(0.015625)"/>
       </defs>
       <use xlink:href="#DejaVuSans-31"/>
       <use xlink:href="#DejaVuSans-30" x="63.623047"/>
      </g>
     </g>
    </g>
    <g id="xtick_7">
     <g id="line2d_8">
      <g>
       <use xlink:href="#m20808a6ab3" x="500.681416" y="192.24" style="stroke: #000000; stroke-width: 0.8"/>
      </g>
     </g>
     <g id="text_7">
      <!-- 12 -->
      <g transform="translate(494.318916 206.838437) scale(0.1 -0.1)">
       <use xlink:href="#DejaVuSans-31"/>
       <use xlink:href="#DejaVuSans-32" x="63.623047"/>
      </g>
     </g>
    </g>
    <g id="xtick_8">
     <g id="line2d_9">
      <g>
       <use xlink:href="#m20808a6ab3" x="566.522124" y="192.24" style="stroke: #000000; stroke-width: 0.8"/>
      </g>
     </g>
     <g id="text_8">
      <!-- 14 -->
      <g transform="translate(560.159624 206.838437) scale(0.1 -0.1)">
       <use xlink:href="#DejaVuSans-31"/>
       <use xlink:href="#DejaVuSans-34" x="63.623047"/>
      </g>
     </g>
    </g>
    <g id="xtick_9">
     <g id="line2d_10">
      <g>
       <use xlink:href="#m20808a6ab3" x="632.362832" y="192.24" style="stroke: #000000; stroke-width: 0.8"/>
      </g>
     </g>
     <g id="text_9">
      <!-- 16 -->
      <g transform="translate(626.000332 206.838437) scale(0.1 -0.1)">
       <use xlink:href="#DejaVuSans-31"/>
       <use xlink:href="#DejaVuSans-36" x="63.623047"/>
      </g>
     </g>
    </g>
   </g>
   <g id="matplotlib.axis_2">
    <g id="ytick_1">
     <g id="line2d_11">
      <defs>
       <path id="m37919e4db0" d="M 0 0 
L -3.5 0 
" style="stroke: #000000; stroke-width: 0.8"/>
      </defs>
      <g>
       <use xlink:href="#m37919e4db0" x="90" y="180.229103" style="stroke: #000000; stroke-width: 0.8"/>
      </g>
     </g>
     <g id="text_10">
      <!-- 0.0175 -->
      <g transform="translate(39.629687 184.028322) scale(0.1 -0.1)">
       <defs>
        <path id="DejaVuSans-2212" d="M 678 2272 
L 4684 2272 
L 4684 1741 
L 678 1741 
L 678 2272 
z
" transform="scale(0.015625)"/>
        <path id="DejaVuSans-2e" d="M 684 794 
L 1344 794 
L 1344 0 
L 684 0 
L 684 794 
z
" transform="scale(0.015625)"/>
        <path id="DejaVuSans-37" d="M 525 4666 
L 3525 4666 
L 3525 4397 
L 1831 0 
L 1172 0 
L 2766 4134 
L 525 4134 
L 525 4666 
z
" transform="scale(0.015625)"/>
        <path id="DejaVuSans-35" d="M 691 4666 
L 3169 4666 
L 3169 4134 
L 1269 4134 
L 1269 2991 
Q 1406 3038 1543 3061 
Q 1681 3084 1819 3084 
Q 2600 3084 3056 2656 
Q 3513 2228 3513 1497 
Q 3513 744 3044 326 
Q 2575 -91 1722 -91 
Q 1428 -91 1123 -41 
Q 819 9 494 109 
L 494 744 
Q 775 591 1075 516 
Q 1375 441 1709 441 
Q 2250 441 2565 725 
Q 2881 1009 2881 1497 
Q 2881 1984 2565 2268 
Q 2250 2553 1709 2553 
Q 1456 2553 1204 2497 
Q 953 2441 691 2322 
L 691 4666 
z
" transform="scale(0.015625)"/>
       </defs>
       <use xlink:href="#DejaVuSans-2212"/>
       <use xlink:href="#DejaVuSans-30" x="83.789062"/>
       <use xlink:href="#DejaVuSans-2e" x="147.412109"/>
       <use xlink:href="#DejaVuSans-30" x="179.199219"/>
       <use xlink:href="#DejaVuSans-31" x="242.822266"/>
       <use xlink:href="#DejaVuSans-37" x="306.445312"/>
       <use xlink:href="#DejaVuSans-35" x="370.068359"/>
      </g>
     </g>
    </g>
    <g id="ytick_2">
     <g id="line2d_12">
      <g>
       <use xlink:href="#m37919e4db0" x="90" y="157.908159" style="stroke: #000000; stroke-width: 0.8"/>
      </g>
     </g>
     <g id="text_11">
      <!-- 0.0150 -->
      <g transform="translate(39.629687 161.707378) scale(0.1 -0.1)">
       <use xlink:href="#DejaVuSans-2212"/>
       <use xlink:href="#DejaVuSans-30" x="83.789062"/>
       <use xlink:href="#DejaVuSans-2e" x="147.412109"/>
       <use xlink:href="#DejaVuSans-30" x="179.199219"/>
       <use xlink:href="#DejaVuSans-31" x="242.822266"/>
       <use xlink:href="#DejaVuSans-35" x="306.445312"/>
       <use xlink:href="#DejaVuSans-30" x="370.068359"/>
      </g>
     </g>
    </g>
    <g id="ytick_3">
     <g id="line2d_13">
      <g>
       <use xlink:href="#m37919e4db0" x="90" y="135.587215" style="stroke: #000000; stroke-width: 0.8"/>
      </g>
     </g>
     <g id="text_12">
      <!-- 0.0125 -->
      <g transform="translate(39.629687 139.386434) scale(0.1 -0.1)">
       <use xlink:href="#DejaVuSans-2212"/>
       <use xlink:href="#DejaVuSans-30" x="83.789062"/>
       <use xlink:href="#DejaVuSans-2e" x="147.412109"/>
       <use xlink:href="#DejaVuSans-30" x="179.199219"/>
       <use xlink:href="#DejaVuSans-31" x="242.822266"/>
       <use xlink:href="#DejaVuSans-32" x="306.445312"/>
       <use xlink:href="#DejaVuSans-35" x="370.068359"/>
      </g>
     </g>
    </g>
    <g id="ytick_4">
     <g id="line2d_14">
      <g>
       <use xlink:href="#m37919e4db0" x="90" y="113.266271" style="stroke: #000000; stroke-width: 0.8"/>
      </g>
     </g>
     <g id="text_13">
      <!-- 0.0100 -->
      <g transform="translate(39.629687 117.06549) scale(0.1 -0.1)">
       <use xlink:href="#DejaVuSans-2212"/>
       <use xlink:href="#DejaVuSans-30" x="83.789062"/>
       <use xlink:href="#DejaVuSans-2e" x="147.412109"/>
       <use xlink:href="#DejaVuSans-30" x="179.199219"/>
       <use xlink:href="#DejaVuSans-31" x="242.822266"/>
       <use xlink:href="#DejaVuSans-30" x="306.445312"/>
       <use xlink:href="#DejaVuSans-30" x="370.068359"/>
      </g>
     </g>
    </g>
    <g id="ytick_5">
     <g id="line2d_15">
      <g>
       <use xlink:href="#m37919e4db0" x="90" y="90.945327" style="stroke: #000000; stroke-width: 0.8"/>
      </g>
     </g>
     <g id="text_14">
      <!-- 0.0075 -->
      <g transform="translate(39.629687 94.744546) scale(0.1 -0.1)">
       <use xlink:href="#DejaVuSans-2212"/>
       <use xlink:href="#DejaVuSans-30" x="83.789062"/>
       <use xlink:href="#DejaVuSans-2e" x="147.412109"/>
       <use xlink:href="#DejaVuSans-30" x="179.199219"/>
       <use xlink:href="#DejaVuSans-30" x="242.822266"/>
       <use xlink:href="#DejaVuSans-37" x="306.445312"/>
       <use xlink:href="#DejaVuSans-35" x="370.068359"/>
      </g>
     </g>
    </g>
    <g id="ytick_6">
     <g id="line2d_16">
      <g>
       <use xlink:href="#m37919e4db0" x="90" y="68.624383" style="stroke: #000000; stroke-width: 0.8"/>
      </g>
     </g>
     <g id="text_15">
      <!-- 0.0050 -->
      <g transform="translate(39.629687 72.423602) scale(0.1 -0.1)">
       <use xlink:href="#DejaVuSans-2212"/>
       <use xlink:href="#DejaVuSans-30" x="83.789062"/>
       <use xlink:href="#DejaVuSans-2e" x="147.412109"/>
       <use xlink:href="#DejaVuSans-30" x="179.199219"/>
       <use xlink:href="#DejaVuSans-30" x="242.822266"/>
       <use xlink:href="#DejaVuSans-35" x="306.445312"/>
       <use xlink:href="#DejaVuSans-30" x="370.068359"/>
      </g>
     </g>
    </g>
    <g id="ytick_7">
     <g id="line2d_17">
      <g>
       <use xlink:href="#m37919e4db0" x="90" y="46.303439" style="stroke: #000000; stroke-width: 0.8"/>
      </g>
     </g>
     <g id="text_16">
      <!-- 0.0025 -->
      <g transform="translate(39.629687 50.102657) scale(0.1 -0.1)">
       <use xlink:href="#DejaVuSans-2212"/>
       <use xlink:href="#DejaVuSans-30" x="83.789062"/>
       <use xlink:href="#DejaVuSans-2e" x="147.412109"/>
       <use xlink:href="#DejaVuSans-30" x="179.199219"/>
       <use xlink:href="#DejaVuSans-30" x="242.822266"/>
       <use xlink:href="#DejaVuSans-32" x="306.445312"/>
       <use xlink:href="#DejaVuSans-35" x="370.068359"/>
      </g>
     </g>
    </g>
   </g>
  </g>
 </g>
 <defs>
  <clipPath id="p2cf6a50252">
   <rect x="90" y="25.92" width="558" height="166.32"/>
  </clipPath>
 </defs>
</svg>
