<?xml version="1.0" encoding="utf-8" standalone="no"?>
<!DOCTYPE svg PUBLIC "-//W3C//DTD SVG 1.1//EN"
  "http://www.w3.org/Graphics/SVG/1.1/DTD/svg11.dtd">
<svg xmlns:xlink="http://www.w3.org/1999/xlink" width="720pt" height="216pt" viewBox="0 0 720 216" xmlns="http://www.w3.org/2000/svg" version="1.1">
 <metadata>
  <rdf:RDF xmlns:dc="http://purl.org/dc/elements/1.1/" xmlns:cc="http://creativecommons.org/ns#" xmlns:rdf="http://www.w3.org/1999/02/22-rdf-syntax-ns#">
   <cc:Work>
    <dc:type rdf:resource="http://purl.org/dc/dcmitype/StillImage"/>
    <dc:date>2024-11-23T04:41:59.244444</dc:date>
    <dc:format>image/svg+xml</dc:format>
    <dc:creator>
     <cc:Agent>
      <dc:title>Matplotlib v3.7.2, https://matplotlib.org/</dc:title>
     </cc:Agent>
    </dc:creator>
   </cc:Work>
  </rdf:RDF>
 </metadata>
 <defs>
  <style type="text/css">*{stroke-linejoin: round; stroke-linecap: butt}</style>
 </defs>
 <g id="figure_1">
  <g id="patch_1">
   <path d="M 0 216 
L 720 216 
L 720 0 
L 0 0 
z
" style="fill: #ffffff"/>
  </g>
  <g id="axes_1">
   <g id="patch_2">
    <path d="M 90 192.24 
L 648 192.24 
L 648 25.92 
L 90 25.92 
z
" style="fill: #ffffff"/>
   </g>
   <g id="line2d_1">
    <path d="M 90 70.78016 
L 648 70.78016 
" clip-path="url(#p7b78aeb8ae)" style="fill: none; stroke: #000000; stroke-width: 0.5; stroke-linecap: square"/>
   </g>
   <g id="patch_3">
    <path d="M 114.150342 70.725919 
Q 112.130207 70.752805 109.945785 70.766404 
Q 107.761362 70.78016 105.382228 70.78016 
Q 98.287419 70.78016 94.143709 70.678244 
Q 90 70.576328 90 70.40204 
Q 90 70.227127 94.143709 70.125367 
Q 98.287419 70.023452 105.382228 70.023452 
Q 107.761362 70.023452 109.945785 70.037207 
Q 112.130207 70.050806 114.150342 70.077692 
L 114.150342 70.228533 
Q 112.111953 70.192894 110.134412 70.176325 
Q 108.156871 70.159756 105.972448 70.159756 
Q 102.053874 70.159756 99.808604 70.224313 
Q 97.569419 70.288714 97.569419 70.40204 
Q 97.569419 70.514898 99.808604 70.579455 
Q 102.053874 70.643855 105.972448 70.643855 
Q 108.156871 70.643855 110.134412 70.627286 
Q 112.111953 70.610561 114.150342 70.574922 
L 114.150342 70.725919 
z
" clip-path="url(#p7b78aeb8ae)" style="fill: #0000ff"/>
   </g>
   <g id="patch_4">
    <path d="M 106.728963 69.8772 
L 97.44113 69.8772 
L 95.97463 70.023452 
L 90 70.023452 
L 98.532364 69.220615 
L 105.617978 69.220615 
L 114.150342 70.023452 
L 108.18065 70.023452 
L 106.728963 69.8772 
z
M 98.922443 69.728195 
L 105.232837 69.728195 
L 102.082577 69.40885 
L 98.922443 69.728195 
z
" clip-path="url(#p7b78aeb8ae)" style="fill: #008000"/>
   </g>
   <g id="patch_5">
    <path d="M 90 65.067758 
L 114.150342 65.067758 
L 114.150342 65.877681 
L 105.461835 65.877681 
L 105.461835 69.220615 
L 98.705356 69.220615 
L 98.705356 65.877681 
L 90 65.877681 
L 90 65.067758 
z
" clip-path="url(#p7b78aeb8ae)" style="fill: #ff0000"/>
   </g>
   <g id="patch_6">
    <path d="M 132.150375 70.610507 
L 122.862542 70.610507 
L 121.396042 70.78016 
L 115.421412 70.78016 
L 123.953776 69.848865 
L 131.03939 69.848865 
L 139.571754 70.78016 
L 133.602062 70.78016 
L 132.150375 70.610507 
z
M 124.343855 70.437661 
L 130.654249 70.437661 
L 127.50399 70.067219 
L 124.343855 70.437661 
z
" clip-path="url(#p7b78aeb8ae)" style="fill: #008000"/>
   </g>
   <g id="patch_7">
    <path d="M 115.421412 61.886921 
L 139.571754 61.886921 
L 139.571754 63.439722 
L 130.883247 63.439722 
L 130.883247 69.848865 
L 124.126768 69.848865 
L 124.126768 63.439722 
L 115.421412 63.439722 
L 115.421412 61.886921 
z
" clip-path="url(#p7b78aeb8ae)" style="fill: #ff0000"/>
   </g>
   <g id="patch_8">
    <path d="M 157.571788 70.686035 
L 148.283954 70.686035 
L 146.817454 70.78016 
L 140.842825 70.78016 
L 149.375188 70.263473 
L 156.460803 70.263473 
L 164.993166 70.78016 
L 159.023474 70.78016 
L 157.571788 70.686035 
z
M 149.765267 70.590139 
L 156.075661 70.590139 
L 152.925402 70.384616 
L 149.765267 70.590139 
z
" clip-path="url(#p7b78aeb8ae)" style="fill: #008000"/>
   </g>
   <g id="patch_9">
    <path d="M 140.842825 64.303837 
L 164.993166 64.303837 
L 164.993166 65.466132 
L 156.30466 65.466132 
L 156.30466 70.263473 
L 149.54818 70.263473 
L 149.54818 65.466132 
L 140.842825 65.466132 
L 140.842825 64.303837 
z
" clip-path="url(#p7b78aeb8ae)" style="fill: #ff0000"/>
   </g>
   <g id="patch_10">
    <path d="M 166.264237 60.305789 
L 190.414579 60.305789 
L 190.414579 62.348583 
L 181.726072 62.348583 
L 181.726072 70.78016 
L 174.969593 70.78016 
L 174.969593 62.348583 
L 166.264237 62.348583 
L 166.264237 60.305789 
z
" clip-path="url(#p7b78aeb8ae)" style="fill: #ff0000"/>
   </g>
   <g id="patch_11">
    <path d="M 208.414612 70.714569 
L 199.126779 70.714569 
L 197.660279 70.78016 
L 191.685649 70.78016 
L 200.218013 70.420105 
L 207.303627 70.420105 
L 215.835991 70.78016 
L 209.866299 70.78016 
L 208.414612 70.714569 
z
M 200.608092 70.647743 
L 206.918486 70.647743 
L 203.768227 70.504524 
L 200.608092 70.647743 
z
" clip-path="url(#p7b78aeb8ae)" style="fill: #008000"/>
   </g>
   <g id="patch_12">
    <path d="M 191.685649 66.55573 
L 215.835991 66.55573 
L 215.835991 67.30939 
L 207.147484 67.30939 
L 207.147484 70.420105 
L 200.391005 70.420105 
L 200.391005 67.30939 
L 191.685649 67.30939 
L 191.685649 66.55573 
z
" clip-path="url(#p7b78aeb8ae)" style="fill: #ff0000"/>
   </g>
   <g id="patch_13">
    <path d="M 233.836024 70.62047 
L 224.548191 70.62047 
L 223.081691 70.78016 
L 217.107062 70.78016 
L 225.639425 69.903557 
L 232.72504 69.903557 
L 241.257403 70.78016 
L 235.287711 70.78016 
L 233.836024 70.62047 
z
M 226.029504 70.457774 
L 232.339898 70.457774 
L 229.189639 70.109087 
L 226.029504 70.457774 
z
" clip-path="url(#p7b78aeb8ae)" style="fill: #008000"/>
   </g>
   <g id="patch_14">
    <path d="M 217.107062 62.428834 
L 241.257403 62.428834 
L 241.257403 63.886613 
L 232.568897 63.886613 
L 232.568897 69.903557 
L 225.812417 69.903557 
L 225.812417 63.886613 
L 217.107062 63.886613 
L 217.107062 62.428834 
z
" clip-path="url(#p7b78aeb8ae)" style="fill: #ff0000"/>
   </g>
   <g id="patch_15">
    <path d="M 259.257437 70.162835 
L 249.969603 70.162835 
L 248.503103 70.78016 
L 242.528474 70.78016 
L 251.060837 67.39141 
L 258.146452 67.39141 
L 266.678815 70.78016 
L 260.709124 70.78016 
L 259.257437 70.162835 
z
M 251.450917 69.53389 
L 257.76131 69.53389 
L 254.611051 68.185943 
L 251.450917 69.53389 
z
" clip-path="url(#p7b78aeb8ae)" style="fill: #008000"/>
   </g>
   <g id="patch_16">
    <path d="M 242.528474 60.083843 
L 266.678815 60.083843 
L 266.678815 61.509022 
L 257.990309 61.509022 
L 257.990309 67.39141 
L 251.23383 67.39141 
L 251.23383 61.509022 
L 242.528474 61.509022 
L 242.528474 60.083843 
z
" clip-path="url(#p7b78aeb8ae)" style="fill: #ff0000"/>
   </g>
   <g id="patch_17">
    <path d="M 284.678849 70.698448 
L 275.391016 70.698448 
L 273.924516 70.78016 
L 267.949886 70.78016 
L 276.48225 70.331608 
L 283.567864 70.331608 
L 292.100228 70.78016 
L 286.130536 70.78016 
L 284.678849 70.698448 
z
M 276.872329 70.615197 
L 283.182723 70.615197 
L 280.032464 70.436777 
L 276.872329 70.615197 
z
" clip-path="url(#p7b78aeb8ae)" style="fill: #008000"/>
   </g>
   <g id="patch_18">
    <path d="M 267.949886 66.736934 
L 292.100228 66.736934 
L 292.100228 67.437996 
L 283.411721 67.437996 
L 283.411721 70.331608 
L 276.655242 70.331608 
L 276.655242 67.437996 
L 267.949886 67.437996 
L 267.949886 66.736934 
z
" clip-path="url(#p7b78aeb8ae)" style="fill: #ff0000"/>
   </g>
   <g id="patch_19">
    <path d="M 293.371298 70.77083 
L 317.52164 70.77083 
L 317.52164 70.77265 
L 308.833133 70.77265 
L 308.833133 70.78016 
L 302.076654 70.78016 
L 302.076654 70.77265 
L 293.371298 70.77265 
L 293.371298 70.77083 
z
" clip-path="url(#p7b78aeb8ae)" style="fill: #ff0000"/>
   </g>
   <g id="patch_20">
    <path d="M 335.521674 70.700591 
L 326.23384 70.700591 
L 324.76734 70.78016 
L 318.792711 70.78016 
L 327.325074 70.343376 
L 334.410689 70.343376 
L 342.943052 70.78016 
L 336.97336 70.78016 
L 335.521674 70.700591 
z
M 327.715153 70.619525 
L 334.025547 70.619525 
L 330.875288 70.445785 
L 327.715153 70.619525 
z
" clip-path="url(#p7b78aeb8ae)" style="fill: #008000"/>
   </g>
   <g id="patch_21">
    <path d="M 368.364465 70.686843 
Q 365.928863 70.733501 363.309239 70.756937 
Q 360.689614 70.78016 357.896791 70.78016 
Q 351.585877 70.78016 347.9 70.64125 
Q 344.214123 70.50234 344.214123 70.264787 
Q 344.214123 70.024464 347.964949 69.88662 
Q 351.721188 69.748775 358.254012 69.748775 
Q 360.770801 69.748775 363.076503 69.767524 
Q 365.387618 69.786059 367.433524 69.822704 
L 367.433524 70.028299 
Q 365.322669 69.981215 363.233464 69.957992 
Q 361.144259 69.934556 359.04423 69.934556 
Q 355.158092 69.934556 353.05265 70.020203 
Q 350.947208 70.105637 350.947208 70.264787 
Q 350.947208 70.422445 352.976876 70.508518 
Q 355.006544 70.594378 358.741133 70.594378 
Q 359.758673 70.594378 360.630077 70.589478 
Q 361.501481 70.584365 362.194274 70.573712 
L 362.194274 70.380687 
L 358.216125 70.380687 
L 358.216125 70.208754 
L 368.364465 70.208754 
L 368.364465 70.686843 
z
" clip-path="url(#p7b78aeb8ae)" style="fill: #ffa600"/>
   </g>
   <g id="patch_22">
    <path d="M 344.214123 66.262809 
L 368.364465 66.262809 
L 368.364465 66.94267 
L 359.675958 66.94267 
L 359.675958 69.748775 
L 352.919479 69.748775 
L 352.919479 66.94267 
L 344.214123 66.94267 
L 344.214123 66.262809 
z
" clip-path="url(#p7b78aeb8ae)" style="fill: #ff0000"/>
   </g>
   <g id="patch_23">
    <path d="M 393.785877 70.575969 
Q 391.350276 70.678064 388.730651 70.729345 
Q 386.111026 70.78016 383.318203 70.78016 
Q 377.007289 70.78016 373.321412 70.476204 
Q 369.635535 70.172248 369.635535 69.652446 
Q 369.635535 69.126584 373.386362 68.82496 
Q 377.1426 68.523335 383.675425 68.523335 
Q 386.192213 68.523335 388.497916 68.564359 
Q 390.809031 68.604918 392.854936 68.685103 
L 392.854936 69.134976 
Q 390.744081 69.031948 388.654877 68.981133 
Q 386.565672 68.929852 384.465642 68.929852 
Q 380.579505 68.929852 378.474062 69.117261 
Q 376.36862 69.304203 376.36862 69.652446 
Q 376.36862 69.997427 378.398288 70.185768 
Q 380.427956 70.373642 384.162545 70.373642 
Q 385.180085 70.373642 386.051489 70.36292 
Q 386.922893 70.351731 387.615687 70.328422 
L 387.615687 69.906054 
L 383.637538 69.906054 
L 383.637538 69.529839 
L 393.785877 69.529839 
L 393.785877 70.575969 
z
" clip-path="url(#p7b78aeb8ae)" style="fill: #ffa600"/>
   </g>
   <g id="patch_24">
    <path d="M 386.364498 67.990584 
L 377.076665 67.990584 
L 375.610165 68.523335 
L 369.635535 68.523335 
L 378.167899 65.598845 
L 385.253513 65.598845 
L 393.785877 68.523335 
L 387.816185 68.523335 
L 386.364498 67.990584 
z
M 378.557978 67.447805 
L 384.868372 67.447805 
L 381.718113 66.284527 
L 378.557978 67.447805 
z
" clip-path="url(#p7b78aeb8ae)" style="fill: #008000"/>
   </g>
   <g id="patch_25">
    <path d="M 369.635535 60.652009 
L 393.785877 60.652009 
L 393.785877 61.61678 
L 385.09737 61.61678 
L 385.09737 65.598845 
L 378.340891 65.598845 
L 378.340891 61.61678 
L 369.635535 61.61678 
L 369.635535 60.652009 
z
" clip-path="url(#p7b78aeb8ae)" style="fill: #ff0000"/>
   </g>
   <g id="patch_26">
    <path d="M 419.207289 70.740763 
Q 416.771688 70.760461 414.152063 70.770355 
Q 411.532438 70.78016 408.739615 70.78016 
Q 402.428701 70.78016 398.742824 70.721514 
Q 395.056948 70.662869 395.056948 70.562579 
Q 395.056948 70.461119 398.807774 70.402923 
Q 402.564013 70.344728 409.096837 70.344728 
Q 411.613625 70.344728 413.919328 70.352643 
Q 416.230443 70.360468 418.276348 70.375939 
L 418.276348 70.462738 
Q 416.165494 70.442859 414.076289 70.433055 
Q 411.987084 70.423161 409.887054 70.423161 
Q 406.000917 70.423161 403.895475 70.45932 
Q 401.790033 70.495388 401.790033 70.562579 
Q 401.790033 70.629139 403.8197 70.665478 
Q 405.849368 70.701726 409.583957 70.701726 
Q 410.601497 70.701726 411.472902 70.699657 
Q 412.344306 70.697499 413.037099 70.693001 
L 413.037099 70.61151 
L 409.05895 70.61151 
L 409.05895 70.538923 
L 419.207289 70.538923 
L 419.207289 70.740763 
z
" clip-path="url(#p7b78aeb8ae)" style="fill: #ffa600"/>
   </g>
   <g id="patch_27">
    <path d="M 395.056948 64.98099 
L 419.207289 64.98099 
L 419.207289 66.027068 
L 410.518783 66.027068 
L 410.518783 70.344728 
L 403.762303 70.344728 
L 403.762303 66.027068 
L 395.056948 66.027068 
L 395.056948 64.98099 
z
" clip-path="url(#p7b78aeb8ae)" style="fill: #ff0000"/>
   </g>
   <g id="patch_28">
    <path d="M 411.785911 63.735746 
L 402.498077 63.735746 
L 401.031577 64.98099 
L 395.056948 64.98099 
L 403.589311 58.145335 
L 410.674926 58.145335 
L 419.207289 64.98099 
L 413.237597 64.98099 
L 411.785911 63.735746 
z
M 403.97939 62.467063 
L 410.289784 62.467063 
L 407.139525 59.748036 
L 403.97939 62.467063 
z
" clip-path="url(#p7b78aeb8ae)" style="fill: #008000"/>
   </g>
   <g id="patch_29">
    <path d="M 444.628702 70.609176 
Q 442.1931 70.694668 439.573475 70.737609 
Q 436.953851 70.78016 434.161028 70.78016 
Q 427.850114 70.78016 424.164237 70.525636 
Q 420.47836 70.271112 420.47836 69.835846 
Q 420.47836 69.395505 424.229186 69.142933 
Q 427.985425 68.890361 434.518249 68.890361 
Q 437.035037 68.890361 439.34074 68.924714 
Q 441.651855 68.958676 443.697761 69.025821 
L 443.697761 69.402531 
Q 441.586906 69.316259 439.497701 69.273708 
Q 437.408496 69.230767 435.308467 69.230767 
Q 431.422329 69.230767 429.316887 69.387697 
Q 427.211445 69.544237 427.211445 69.835846 
Q 427.211445 70.124722 429.241113 70.282433 
Q 431.270781 70.439754 435.00537 70.439754 
Q 436.02291 70.439754 436.894314 70.430775 
Q 437.765718 70.421406 438.458511 70.401888 
L 438.458511 70.048209 
L 434.480362 70.048209 
L 434.480362 69.733178 
L 444.628702 69.733178 
L 444.628702 70.609176 
z
" clip-path="url(#p7b78aeb8ae)" style="fill: #ffa600"/>
   </g>
   <g id="patch_30">
    <path d="M 437.207323 68.405024 
L 427.91949 68.405024 
L 426.45299 68.890361 
L 420.47836 68.890361 
L 429.010724 66.226148 
L 436.096338 66.226148 
L 444.628702 68.890361 
L 438.65901 68.890361 
L 437.207323 68.405024 
z
M 429.400803 67.910552 
L 435.711197 67.910552 
L 432.560937 66.850805 
L 429.400803 67.910552 
z
" clip-path="url(#p7b78aeb8ae)" style="fill: #008000"/>
   </g>
   <g id="patch_31">
    <path d="M 420.47836 40.202477 
L 444.628702 40.202477 
L 444.628702 45.277817 
L 435.940195 45.277817 
L 435.940195 66.226148 
L 429.183716 66.226148 
L 429.183716 45.277817 
L 420.47836 45.277817 
L 420.47836 40.202477 
z
" clip-path="url(#p7b78aeb8ae)" style="fill: #ff0000"/>
   </g>
   <g id="patch_32">
    <path d="M 462.628735 70.235405 
L 453.340902 70.235405 
L 451.874402 70.78016 
L 445.899772 70.78016 
L 454.432136 67.789776 
L 461.51775 67.789776 
L 470.050114 70.78016 
L 464.080422 70.78016 
L 462.628735 70.235405 
z
M 454.822215 69.680396 
L 461.132609 69.680396 
L 457.98235 68.490908 
L 454.822215 69.680396 
z
" clip-path="url(#p7b78aeb8ae)" style="fill: #008000"/>
   </g>
   <g id="patch_33">
    <path d="M 470.050114 67.366334 
Q 467.614512 67.578055 464.994888 67.684399 
Q 462.375263 67.789776 459.58244 67.789776 
Q 453.271526 67.789776 449.585649 67.159447 
Q 445.899772 66.529118 445.899772 65.451178 
Q 445.899772 64.36067 449.650598 63.735175 
Q 453.406837 63.10968 459.939662 63.10968 
Q 462.45645 63.10968 464.762152 63.194755 
Q 467.073268 63.278863 469.119173 63.445147 
L 469.119173 64.378072 
Q 467.008318 64.164418 464.919113 64.059041 
Q 462.829909 63.952697 460.729879 63.952697 
Q 456.843741 63.952697 454.738299 64.341335 
Q 452.632857 64.729007 452.632857 65.451178 
Q 452.632857 66.166582 454.662525 66.557154 
Q 456.692193 66.94676 460.426782 66.94676 
Q 461.444322 66.94676 462.315726 66.924524 
Q 463.18713 66.901322 463.879924 66.852984 
L 463.879924 65.977097 
L 459.901774 65.977097 
L 459.901774 65.19692 
L 470.050114 65.19692 
L 470.050114 67.366334 
z
" clip-path="url(#p7b78aeb8ae)" style="fill: #ffa600"/>
   </g>
   <g id="patch_34">
    <path d="M 470.050114 62.47569 
Q 468.029979 62.789945 465.845557 62.948899 
Q 463.661135 63.10968 461.282 63.10968 
Q 454.187191 63.10968 450.043482 61.918437 
Q 445.899772 60.727195 445.899772 58.690024 
Q 445.899772 56.645544 450.043482 55.456129 
Q 454.187191 54.264886 461.282 54.264886 
Q 463.661135 54.264886 465.845557 54.425667 
Q 468.029979 54.584621 470.050114 54.898875 
L 470.050114 56.661988 
Q 468.011725 56.245418 466.034184 56.05175 
Q 464.056643 55.858082 461.87222 55.858082 
Q 457.953646 55.858082 455.708377 56.612657 
Q 453.469191 57.365406 453.469191 58.690024 
Q 453.469191 60.00916 455.708377 60.763736 
Q 457.953646 61.516484 461.87222 61.516484 
Q 464.056643 61.516484 466.034184 61.322816 
Q 468.011725 61.127321 470.050114 60.710751 
L 470.050114 62.47569 
z
" clip-path="url(#p7b78aeb8ae)" style="fill: #0000ff"/>
   </g>
   <g id="patch_35">
    <path d="M 445.899772 39.602337 
L 470.050114 39.602337 
L 470.050114 42.461942 
L 461.361607 42.461942 
L 461.361607 54.264886 
L 454.605128 54.264886 
L 454.605128 42.461942 
L 445.899772 42.461942 
L 445.899772 39.602337 
z
" clip-path="url(#p7b78aeb8ae)" style="fill: #ff0000"/>
   </g>
   <g id="patch_36">
    <path d="M 471.321185 68.799671 
L 495.471526 68.799671 
L 495.471526 69.185921 
L 486.78302 69.185921 
L 486.78302 70.78016 
L 480.02654 70.78016 
L 480.02654 69.185921 
L 471.321185 69.185921 
L 471.321185 68.799671 
z
" clip-path="url(#p7b78aeb8ae)" style="fill: #ff0000"/>
   </g>
   <g id="patch_37">
    <path d="M 495.471526 68.434985 
Q 493.035925 68.617328 490.4163 68.708915 
Q 487.796675 68.799671 485.003852 68.799671 
Q 478.692938 68.799671 475.007061 68.256805 
Q 471.321185 67.71394 471.321185 66.785574 
Q 471.321185 65.846384 475.072011 65.307682 
Q 478.828249 64.76898 485.361074 64.76898 
Q 487.877862 64.76898 490.183565 64.84225 
Q 492.49468 64.914688 494.540585 65.057898 
L 494.540585 65.861371 
Q 492.429731 65.677363 490.340526 65.586608 
Q 488.251321 65.495021 486.151291 65.495021 
Q 482.265154 65.495021 480.159712 65.829732 
Q 478.054269 66.163611 478.054269 66.785574 
Q 478.054269 67.40171 480.083937 67.738086 
Q 482.113605 68.07363 485.848194 68.07363 
Q 486.865734 68.07363 487.737138 68.05448 
Q 488.608542 68.034497 489.301336 67.992866 
L 489.301336 67.238517 
L 485.323187 67.238517 
L 485.323187 66.566596 
L 495.471526 66.566596 
L 495.471526 68.434985 
z
" clip-path="url(#p7b78aeb8ae)" style="fill: #ffa600"/>
   </g>
   <g id="patch_38">
    <path d="M 488.050147 63.821645 
L 478.762314 63.821645 
L 477.295814 64.76898 
L 471.321185 64.76898 
L 479.853548 59.568667 
L 486.939163 59.568667 
L 495.471526 64.76898 
L 489.501834 64.76898 
L 488.050147 63.821645 
z
M 480.243627 62.856477 
L 486.554021 62.856477 
L 483.403762 60.787943 
L 480.243627 62.856477 
z
" clip-path="url(#p7b78aeb8ae)" style="fill: #008000"/>
   </g>
   <g id="patch_39">
    <path d="M 495.471526 57.156751 
Q 493.451392 58.352283 491.266969 58.957 
Q 489.082547 59.568667 486.703413 59.568667 
Q 479.608603 59.568667 475.464894 55.036767 
Q 471.321185 50.504866 471.321185 42.75476 
Q 471.321185 34.976851 475.464894 30.451901 
Q 479.608603 25.92 486.703413 25.92 
Q 489.082547 25.92 491.266969 26.531668 
Q 493.451392 27.136384 495.471526 28.331916 
L 495.471526 35.039407 
Q 493.433138 33.454632 491.455596 32.717851 
Q 489.478055 31.98107 487.293633 31.98107 
Q 483.375059 31.98107 481.129789 34.851737 
Q 478.890604 37.715453 478.890604 42.75476 
Q 478.890604 47.773214 481.129789 50.643881 
Q 483.375059 53.507598 487.293633 53.507598 
Q 489.478055 53.507598 491.455596 52.770816 
Q 493.433138 52.027084 495.471526 50.442309 
L 495.471526 57.156751 
z
" clip-path="url(#p7b78aeb8ae)" style="fill: #0000ff"/>
   </g>
   <g id="patch_40">
    <path d="M 520.892938 70.686785 
Q 518.457337 70.733472 515.837712 70.756923 
Q 513.218088 70.78016 510.425265 70.78016 
Q 504.114351 70.78016 500.428474 70.641164 
Q 496.742597 70.502168 496.742597 70.264468 
Q 496.742597 70.023996 500.493423 69.886066 
Q 504.249662 69.748136 510.782486 69.748136 
Q 513.299274 69.748136 515.604977 69.766896 
Q 517.916092 69.785443 519.961997 69.822111 
L 519.961997 70.027834 
Q 517.851143 69.98072 515.761938 69.957483 
Q 513.672733 69.934033 511.572704 69.934033 
Q 507.686566 69.934033 505.581124 70.019733 
Q 503.475682 70.105219 503.475682 70.264468 
Q 503.475682 70.422224 505.50535 70.50835 
Q 507.535018 70.594263 511.269606 70.594263 
Q 512.287147 70.594263 513.158551 70.58936 
Q 514.029955 70.584244 514.722748 70.573584 
L 514.722748 70.38044 
L 510.744599 70.38044 
L 510.744599 70.2084 
L 520.892938 70.2084 
L 520.892938 70.686785 
z
" clip-path="url(#p7b78aeb8ae)" style="fill: #ffa600"/>
   </g>
   <g id="patch_41">
    <path d="M 496.742597 68.079469 
L 520.892938 68.079469 
L 520.892938 68.404905 
L 512.204432 68.404905 
L 512.204432 69.748136 
L 505.447953 69.748136 
L 505.447953 68.404905 
L 496.742597 68.404905 
L 496.742597 68.079469 
z
" clip-path="url(#p7b78aeb8ae)" style="fill: #ff0000"/>
   </g>
   <g id="patch_42">
    <path d="M 513.47156 65.511506 
L 504.183726 65.511506 
L 502.717226 68.079469 
L 496.742597 68.079469 
L 505.27496 53.982864 
L 512.360575 53.982864 
L 520.892938 68.079469 
L 514.923247 68.079469 
L 513.47156 65.511506 
z
M 505.66504 62.895205 
L 511.975433 62.895205 
L 508.825174 57.287983 
L 505.66504 62.895205 
z
" clip-path="url(#p7b78aeb8ae)" style="fill: #008000"/>
   </g>
   <g id="patch_43">
    <path d="M 520.892938 52.113128 
Q 518.872804 53.039914 516.688382 53.508695 
Q 514.503959 53.982864 512.124825 53.982864 
Q 505.030016 53.982864 500.886306 50.469701 
Q 496.742597 46.956537 496.742597 40.948596 
Q 496.742597 34.919102 500.886306 31.411327 
Q 505.030016 27.898163 512.124825 27.898163 
Q 514.503959 27.898163 516.688382 28.372332 
Q 518.872804 28.841113 520.892938 29.767899 
L 520.892938 34.967597 
Q 518.85455 33.739067 516.877009 33.167908 
Q 514.899467 32.59675 512.715045 32.59675 
Q 508.796471 32.59675 506.551201 34.822113 
Q 504.312016 37.042087 504.312016 40.948596 
Q 504.312016 44.83894 506.551201 47.064303 
Q 508.796471 49.284277 512.715045 49.284277 
Q 514.899467 49.284277 516.877009 48.713119 
Q 518.85455 48.136572 520.892938 46.908042 
L 520.892938 52.113128 
z
" clip-path="url(#p7b78aeb8ae)" style="fill: #0000ff"/>
   </g>
   <g id="patch_44">
    <path d="M 546.314351 70.442785 
Q 544.294216 70.610014 542.109794 70.694601 
Q 539.925372 70.78016 537.546237 70.78016 
Q 530.451428 70.78016 526.307719 70.146245 
Q 522.164009 69.51233 522.164009 68.428257 
Q 522.164009 67.340296 526.307719 66.707353 
Q 530.451428 66.073438 537.546237 66.073438 
Q 539.925372 66.073438 542.109794 66.158997 
Q 544.294216 66.243584 546.314351 66.410813 
L 546.314351 67.349046 
Q 544.275962 67.12737 542.298421 67.02431 
Q 540.32088 66.921251 538.136457 66.921251 
Q 534.217883 66.921251 531.972613 67.322795 
Q 529.733428 67.723367 529.733428 68.428257 
Q 529.733428 69.130231 531.972613 69.531775 
Q 534.217883 69.932347 538.136457 69.932347 
Q 540.32088 69.932347 542.298421 69.829287 
Q 544.275962 69.725255 546.314351 69.503579 
L 546.314351 70.442785 
z
" clip-path="url(#p7b78aeb8ae)" style="fill: #0000ff"/>
   </g>
   <g id="patch_45">
    <path d="M 522.164009 55.1564 
L 546.314351 55.1564 
L 546.314351 57.285527 
L 537.625844 57.285527 
L 537.625844 66.073438 
L 530.869365 66.073438 
L 530.869365 57.285527 
L 522.164009 57.285527 
L 522.164009 55.1564 
z
" clip-path="url(#p7b78aeb8ae)" style="fill: #ff0000"/>
   </g>
   <g id="patch_46">
    <path d="M 538.892972 50.973759 
L 529.605139 50.973759 
L 528.138639 55.1564 
L 522.164009 55.1564 
L 530.696373 32.196158 
L 537.781987 32.196158 
L 546.314351 55.1564 
L 540.344659 55.1564 
L 538.892972 50.973759 
z
M 531.086452 46.712385 
L 537.396846 46.712385 
L 534.246587 37.579464 
L 531.086452 46.712385 
z
" clip-path="url(#p7b78aeb8ae)" style="fill: #008000"/>
   </g>
   <g id="patch_47">
    <path d="M 571.735763 70.716238 
Q 569.300162 70.748199 566.680537 70.764252 
Q 564.060912 70.78016 561.268089 70.78016 
Q 554.957175 70.78016 551.271298 70.685007 
Q 547.585421 70.589855 547.585421 70.427132 
Q 547.585421 70.262513 551.336248 70.16809 
Q 555.092486 70.073667 561.625311 70.073667 
Q 564.142099 70.073667 566.447802 70.08651 
Q 568.758917 70.099206 570.804822 70.124308 
L 570.804822 70.265139 
Q 568.693967 70.232887 566.604763 70.216979 
Q 564.515558 70.200926 562.415528 70.200926 
Q 558.529391 70.200926 556.423949 70.259594 
Q 554.318506 70.318116 554.318506 70.427132 
Q 554.318506 70.535127 556.348174 70.594087 
Q 558.377842 70.652901 562.112431 70.652901 
Q 563.129971 70.652901 564.001375 70.649544 
Q 564.872779 70.646041 565.565573 70.638744 
L 565.565573 70.506523 
L 561.587424 70.506523 
L 561.587424 70.38875 
L 571.735763 70.38875 
L 571.735763 70.716238 
z
" clip-path="url(#p7b78aeb8ae)" style="fill: #ffa600"/>
   </g>
   <g id="patch_48">
    <path d="M 571.735763 69.987977 
Q 569.715629 70.030452 567.531206 70.051936 
Q 565.346784 70.073667 562.96765 70.073667 
Q 555.87284 70.073667 551.729131 69.912659 
Q 547.585421 69.751651 547.585421 69.476308 
Q 547.585421 69.199977 551.729131 69.039215 
Q 555.87284 68.878208 562.96765 68.878208 
Q 565.346784 68.878208 567.531206 68.899939 
Q 569.715629 68.921423 571.735763 68.963897 
L 571.735763 69.202199 
Q 569.697374 69.145896 567.719833 69.119719 
Q 565.742292 69.093543 563.55787 69.093543 
Q 559.639296 69.093543 557.394026 69.195532 
Q 555.154841 69.297273 555.154841 69.476308 
Q 555.154841 69.654602 557.394026 69.75659 
Q 559.639296 69.858331 563.55787 69.858331 
Q 565.742292 69.858331 567.719833 69.832155 
Q 569.697374 69.805732 571.735763 69.749429 
L 571.735763 69.987977 
z
" clip-path="url(#p7b78aeb8ae)" style="fill: #0000ff"/>
   </g>
   <g id="patch_49">
    <path d="M 547.585421 54.899189 
L 571.735763 54.899189 
L 571.735763 57.625487 
L 563.047256 57.625487 
L 563.047256 68.878208 
L 556.290777 68.878208 
L 556.290777 57.625487 
L 547.585421 57.625487 
L 547.585421 54.899189 
z
" clip-path="url(#p7b78aeb8ae)" style="fill: #ff0000"/>
   </g>
   <g id="patch_50">
    <path d="M 564.314384 51.937314 
L 555.026551 51.937314 
L 553.560051 54.899189 
L 547.585421 54.899189 
L 556.117785 38.640236 
L 563.203399 38.640236 
L 571.735763 54.899189 
L 565.766071 54.899189 
L 564.314384 51.937314 
z
M 556.507864 48.919685 
L 562.818258 48.919685 
L 559.667999 42.452344 
L 556.507864 48.919685 
z
" clip-path="url(#p7b78aeb8ae)" style="fill: #008000"/>
   </g>
   <g id="patch_51">
    <path d="M 597.157175 70.768539 
Q 595.137041 70.774299 592.952619 70.777213 
Q 590.768196 70.78016 588.389062 70.78016 
Q 581.294253 70.78016 577.150543 70.758325 
Q 573.006834 70.736491 573.006834 70.699152 
Q 573.006834 70.661678 577.150543 70.639877 
Q 581.294253 70.618043 588.389062 70.618043 
Q 590.768196 70.618043 592.952619 70.62099 
Q 595.137041 70.623903 597.157175 70.629663 
L 597.157175 70.66198 
Q 595.118787 70.654344 593.141246 70.650794 
Q 591.163704 70.647245 588.979282 70.647245 
Q 585.060708 70.647245 582.815438 70.661075 
Q 580.576253 70.674873 580.576253 70.699152 
Q 580.576253 70.72333 582.815438 70.737161 
Q 585.060708 70.750958 588.979282 70.750958 
Q 591.163704 70.750958 593.141246 70.747408 
Q 595.118787 70.743825 597.157175 70.73619 
L 597.157175 70.768539 
z
" clip-path="url(#p7b78aeb8ae)" style="fill: #0000ff"/>
   </g>
   <g id="patch_52">
    <path d="M 597.157175 70.087114 
Q 594.721574 70.352578 592.101949 70.485917 
Q 589.482325 70.618043 586.689502 70.618043 
Q 580.378587 70.618043 576.692711 69.82771 
Q 573.006834 69.037377 573.006834 67.68581 
Q 573.006834 66.318486 576.75766 65.534214 
Q 580.513899 64.749941 587.046723 64.749941 
Q 589.563511 64.749941 591.869214 64.856612 
Q 594.180329 64.962071 596.226234 65.170563 
L 596.226234 66.340305 
Q 594.11538 66.072416 592.026175 65.94029 
Q 589.93697 65.806951 587.83694 65.806951 
Q 583.950803 65.806951 581.845361 66.294242 
Q 579.739919 66.780321 579.739919 67.68581 
Q 579.739919 68.582814 581.769587 69.07253 
Q 583.799254 69.561033 587.533843 69.561033 
Q 588.551384 69.561033 589.422788 69.533153 
Q 590.294192 69.504061 590.986985 69.443453 
L 590.986985 68.345229 
L 587.008836 68.345229 
L 587.008836 67.36701 
L 597.157175 67.36701 
L 597.157175 70.087114 
z
" clip-path="url(#p7b78aeb8ae)" style="fill: #ffa600"/>
   </g>
   <g id="patch_53">
    <path d="M 573.006834 57.425686 
L 597.157175 57.425686 
L 597.157175 58.85412 
L 588.468669 58.85412 
L 588.468669 64.749941 
L 581.712189 64.749941 
L 581.712189 58.85412 
L 573.006834 58.85412 
L 573.006834 57.425686 
z
" clip-path="url(#p7b78aeb8ae)" style="fill: #ff0000"/>
   </g>
   <g id="patch_54">
    <path d="M 589.735797 55.786693 
L 580.447963 55.786693 
L 578.981463 57.425686 
L 573.006834 57.425686 
L 581.539197 48.428577 
L 588.624812 48.428577 
L 597.157175 57.425686 
L 591.187483 57.425686 
L 589.735797 55.786693 
z
M 581.929276 54.116848 
L 588.23967 54.116848 
L 585.089411 50.538058 
L 581.929276 54.116848 
z
" clip-path="url(#p7b78aeb8ae)" style="fill: #008000"/>
   </g>
   <g id="patch_55">
    <path d="M 615.157209 69.870354 
L 605.869376 69.870354 
L 604.402876 70.78016 
L 598.428246 70.78016 
L 606.96061 65.785862 
L 614.046224 65.785862 
L 622.578588 70.78016 
L 616.608896 70.78016 
L 615.157209 69.870354 
z
M 607.350689 68.943423 
L 613.661083 68.943423 
L 610.510823 66.956835 
L 607.350689 68.943423 
z
" clip-path="url(#p7b78aeb8ae)" style="fill: #008000"/>
   </g>
   <g id="patch_56">
    <path d="M 622.578588 65.388557 
Q 620.558453 65.585492 618.374031 65.685104 
Q 616.189608 65.785862 613.810474 65.785862 
Q 606.715665 65.785862 602.571955 65.039341 
Q 598.428246 64.292821 598.428246 63.016179 
Q 598.428246 61.734957 602.571955 60.989581 
Q 606.715665 60.243061 613.810474 60.243061 
Q 616.189608 60.243061 618.374031 60.343818 
Q 620.558453 60.44343 622.578588 60.640365 
L 622.578588 61.745262 
Q 620.540199 61.484208 618.562658 61.362842 
Q 616.585117 61.241475 614.400694 61.241475 
Q 610.48212 61.241475 608.23685 61.714347 
Q 605.997665 62.186075 605.997665 63.016179 
Q 605.997665 63.842847 608.23685 64.31572 
Q 610.48212 64.787448 614.400694 64.787448 
Q 616.585117 64.787448 618.562658 64.666081 
Q 620.540199 64.543569 622.578588 64.282516 
L 622.578588 65.388557 
z
" clip-path="url(#p7b78aeb8ae)" style="fill: #0000ff"/>
   </g>
   <g id="patch_57">
    <path d="M 622.578588 59.697384 
Q 620.142986 59.970223 617.523362 60.107265 
Q 614.903737 60.243061 612.110914 60.243061 
Q 605.8 60.243061 602.114123 59.430776 
Q 598.428246 58.618491 598.428246 57.229383 
Q 598.428246 55.82408 602.179072 55.018024 
Q 605.935311 54.211969 612.468135 54.211969 
Q 614.984924 54.211969 617.290626 54.321602 
Q 619.601741 54.42999 621.647647 54.644274 
L 621.647647 55.846505 
Q 619.536792 55.571176 617.447587 55.43538 
Q 615.358382 55.298338 613.258353 55.298338 
Q 609.372215 55.298338 607.266773 55.799164 
Q 605.161331 56.298744 605.161331 57.229383 
Q 605.161331 58.151302 607.190999 58.65462 
Q 609.220667 59.156692 612.955256 59.156692 
Q 613.972796 59.156692 614.8442 59.128037 
Q 615.715604 59.098137 616.408397 59.035846 
L 616.408397 57.907118 
L 612.430248 57.907118 
L 612.430248 56.901729 
L 622.578588 56.901729 
L 622.578588 59.697384 
z
" clip-path="url(#p7b78aeb8ae)" style="fill: #ffa600"/>
   </g>
   <g id="patch_58">
    <path d="M 598.428246 40.949225 
L 622.578588 40.949225 
L 622.578588 43.53583 
L 613.890081 43.53583 
L 613.890081 54.211969 
L 607.133602 54.211969 
L 607.133602 43.53583 
L 598.428246 43.53583 
L 598.428246 40.949225 
z
" clip-path="url(#p7b78aeb8ae)" style="fill: #ff0000"/>
   </g>
   <g id="patch_59">
    <path d="M 648 70.540444 
Q 645.564399 70.660302 642.944774 70.720504 
Q 640.325149 70.78016 637.532326 70.78016 
Q 631.221412 70.78016 627.535535 70.423322 
Q 623.849658 70.066485 623.849658 69.456249 
Q 623.849658 68.838899 627.600485 68.484798 
Q 631.356723 68.130697 637.889548 68.130697 
Q 640.406336 68.130697 642.712039 68.178859 
Q 645.023154 68.226474 647.069059 68.320609 
L 647.069059 68.84875 
Q 644.958204 68.727798 642.869 68.668142 
Q 640.779795 68.60794 638.679765 68.60794 
Q 634.793628 68.60794 632.688185 68.827953 
Q 630.582743 69.047419 630.582743 69.456249 
Q 630.582743 69.861249 632.612411 70.082357 
Q 634.642079 70.302917 638.376668 70.302917 
Q 639.394208 70.302917 640.265612 70.290329 
Q 641.137016 70.277194 641.82981 70.249829 
L 641.82981 69.753979 
L 637.851661 69.753979 
L 637.851661 69.31231 
L 648 69.31231 
L 648 70.540444 
z
" clip-path="url(#p7b78aeb8ae)" style="fill: #ffa600"/>
   </g>
   <g id="patch_60">
    <path d="M 648 67.83239 
Q 645.979866 67.980254 643.795443 68.055046 
Q 641.611021 68.130697 639.231887 68.130697 
Q 632.137077 68.130697 627.993368 67.570189 
Q 623.849658 67.009681 623.849658 66.051144 
Q 623.849658 65.089167 627.993368 64.529519 
Q 632.137077 63.969011 639.231887 63.969011 
Q 641.611021 63.969011 643.795443 64.044662 
Q 645.979866 64.119454 648 64.267318 
L 648 65.096904 
Q 645.961611 64.900898 643.98407 64.809773 
Q 642.006529 64.718647 639.822107 64.718647 
Q 635.903533 64.718647 633.658263 65.073693 
Q 631.419078 65.427879 631.419078 66.051144 
Q 631.419078 66.671829 633.658263 67.026875 
Q 635.903533 67.381061 639.822107 67.381061 
Q 642.006529 67.381061 643.98407 67.289935 
Q 645.961611 67.19795 648 67.001944 
L 648 67.83239 
z
" clip-path="url(#p7b78aeb8ae)" style="fill: #0000ff"/>
   </g>
   <g id="patch_61">
    <path d="M 623.849658 51.002762 
L 648 51.002762 
L 648 53.531541 
L 639.311493 53.531541 
L 639.311493 63.969011 
L 632.555014 63.969011 
L 632.555014 53.531541 
L 623.849658 53.531541 
L 623.849658 51.002762 
z
" clip-path="url(#p7b78aeb8ae)" style="fill: #ff0000"/>
   </g>
   <g id="patch_62">
    <path d="M 640.578621 48.547045 
L 631.290788 48.547045 
L 629.824288 51.002762 
L 623.849658 51.002762 
L 632.382022 37.522325 
L 639.467636 37.522325 
L 648 51.002762 
L 642.030308 51.002762 
L 640.578621 48.547045 
z
M 632.772101 46.045104 
L 639.082495 46.045104 
L 635.932236 40.682976 
L 632.772101 46.045104 
z
" clip-path="url(#p7b78aeb8ae)" style="fill: #008000"/>
   </g>
   <g id="patch_63">
    <path d="M 114.150342 72.297032 
Q 111.71474 71.538596 109.095116 71.157646 
Q 106.475491 70.78016 103.682668 70.78016 
Q 97.371754 70.78016 93.685877 73.038152 
Q 90 75.296145 90 79.157589 
Q 90 83.064054 93.750826 85.304731 
Q 97.507065 87.545407 104.039889 87.545407 
Q 106.556678 87.545407 108.86238 87.240648 
Q 111.173495 86.939351 113.219401 86.343684 
L 113.219401 83.001717 
Q 111.108546 83.767079 109.019341 84.144566 
Q 106.930136 84.525516 104.830107 84.525516 
Q 100.943969 84.525516 98.838527 83.133318 
Q 96.733085 81.744583 96.733085 79.157589 
Q 96.733085 76.594837 98.762753 75.195712 
Q 100.792421 73.800051 104.52701 73.800051 
Q 105.54455 73.800051 106.415954 73.879705 
Q 107.287358 73.962821 107.980151 74.13598 
L 107.980151 77.27362 
L 104.002002 77.27362 
L 104.002002 80.068405 
L 114.150342 80.068405 
L 114.150342 72.297032 
z
" clip-path="url(#p7b78aeb8ae)" style="fill: #ffa600"/>
   </g>
   <g id="patch_64">
    <path d="M 139.571754 70.803767 
Q 137.55162 70.792066 135.367197 70.786147 
Q 133.182775 70.78016 130.803641 70.78016 
Q 123.708831 70.78016 119.565122 70.824518 
Q 115.421412 70.868876 115.421412 70.944734 
Q 115.421412 71.020864 119.565122 71.065154 
Q 123.708831 71.109512 130.803641 71.109512 
Q 133.182775 71.109512 135.367197 71.103525 
Q 137.55162 71.097606 139.571754 71.085904 
L 139.571754 71.020251 
Q 137.533365 71.035763 135.555824 71.042975 
Q 133.578283 71.050186 131.393861 71.050186 
Q 127.475287 71.050186 125.230017 71.022088 
Q 122.990832 70.994058 122.990832 70.944734 
Q 122.990832 70.895613 125.230017 70.867515 
Q 127.475287 70.839485 131.393861 70.839485 
Q 133.578283 70.839485 135.555824 70.846697 
Q 137.533365 70.853976 139.571754 70.869488 
L 139.571754 70.803767 
z
" clip-path="url(#p7b78aeb8ae)" style="fill: #0000ff"/>
   </g>
   <g id="patch_65">
    <path d="M 139.571754 74.205361 
Q 137.136153 72.657436 134.516528 71.87994 
Q 131.896903 71.109512 129.10408 71.109512 
Q 122.793166 71.109512 119.107289 75.717945 
Q 115.421412 80.326378 115.421412 88.207364 
Q 115.421412 96.180237 119.172239 100.753329 
Q 122.928477 105.326421 129.461302 105.326421 
Q 131.97809 105.326421 134.283793 104.704424 
Q 136.594908 104.089495 138.640813 102.873774 
L 138.640813 96.05301 
Q 136.529958 97.615071 134.440754 98.385499 
Q 132.351549 99.162995 130.251519 99.162995 
Q 126.365382 99.162995 124.259939 96.321599 
Q 122.154497 93.487272 122.154497 88.207364 
Q 122.154497 82.976934 124.184165 80.121402 
Q 126.213833 77.272938 129.948422 77.272938 
Q 130.965962 77.272938 131.837366 77.435505 
Q 132.70877 77.605141 133.401564 77.958548 
L 133.401564 84.362291 
L 129.423415 84.362291 
L 129.423415 90.066288 
L 139.571754 90.066288 
L 139.571754 74.205361 
z
" clip-path="url(#p7b78aeb8ae)" style="fill: #ffa600"/>
   </g>
   <g id="patch_66">
    <path d="M 164.993166 75.041478 
Q 162.973032 74.3286 160.788609 73.968016 
Q 158.604187 73.603287 156.225053 73.603287 
Q 149.130243 73.603287 144.986534 76.305594 
Q 140.842825 79.007901 140.842825 83.629178 
Q 140.842825 88.267033 144.986534 90.965196 
Q 149.130243 93.667503 156.225053 93.667503 
Q 158.604187 93.667503 160.788609 93.302774 
Q 162.973032 92.94219 164.993166 92.229312 
L 164.993166 88.229732 
Q 162.954778 89.17471 160.977236 89.614042 
Q 158.999695 90.053374 156.815273 90.053374 
Q 152.896699 90.053374 150.651429 88.341637 
Q 148.412244 86.634044 148.412244 83.629178 
Q 148.412244 80.636746 150.651429 78.925009 
Q 152.896699 77.217416 156.815273 77.217416 
Q 158.999695 77.217416 160.977236 77.656748 
Q 162.954778 78.100225 164.993166 79.045203 
L 164.993166 75.041478 
z
" clip-path="url(#p7b78aeb8ae)" style="fill: #0000ff"/>
   </g>
   <g id="patch_67">
    <path d="M 164.993166 71.035588 
Q 162.557565 70.907874 159.93794 70.843725 
Q 157.318315 70.78016 154.525492 70.78016 
Q 148.214578 70.78016 144.528701 71.160387 
Q 140.842825 71.540614 140.842825 72.190849 
Q 140.842825 72.848665 144.593651 73.225976 
Q 148.34989 73.603287 154.882714 73.603287 
Q 157.399502 73.603287 159.705205 73.551968 
Q 162.01632 73.501232 164.062225 73.400927 
L 164.062225 72.838168 
Q 161.951371 72.967048 159.862166 73.030614 
Q 157.772961 73.094763 155.672931 73.094763 
Q 151.786794 73.094763 149.681352 72.860328 
Q 147.57591 72.626477 147.57591 72.190849 
Q 147.57591 71.759303 149.605577 71.523702 
Q 151.635245 71.288684 155.369834 71.288684 
Q 156.387374 71.288684 157.258779 71.302097 
Q 158.130183 71.316093 158.822976 71.345252 
L 158.822976 71.873604 
L 154.844827 71.873604 
L 154.844827 72.344223 
L 164.993166 72.344223 
L 164.993166 71.035588 
z
" clip-path="url(#p7b78aeb8ae)" style="fill: #ffa600"/>
   </g>
   <g id="patch_68">
    <path d="M 182.9932 70.87025 
L 173.705367 70.87025 
L 172.238867 70.78016 
L 166.264237 70.78016 
L 174.796601 71.2747 
L 181.882215 71.2747 
L 190.414579 70.78016 
L 184.444887 70.78016 
L 182.9932 70.87025 
z
M 175.18668 70.962035 
L 181.497074 70.962035 
L 178.346814 71.158749 
L 175.18668 70.962035 
z
" clip-path="url(#p7b78aeb8ae)" style="fill: #008000"/>
   </g>
   <g id="patch_69">
    <path d="M 190.414579 81.018537 
Q 188.394444 80.694057 186.210022 80.52993 
Q 184.025599 80.363917 181.646465 80.363917 
Q 174.551656 80.363917 170.407946 81.593923 
Q 166.264237 82.823928 166.264237 84.927388 
Q 166.264237 87.038395 170.407946 88.266513 
Q 174.551656 89.496519 181.646465 89.496519 
Q 184.025599 89.496519 186.210022 89.330506 
Q 188.394444 89.166379 190.414579 88.841899 
L 190.414579 87.021416 
Q 188.37619 87.45154 186.398649 87.651511 
Q 184.421108 87.851481 182.236685 87.851481 
Q 178.318111 87.851481 176.072841 87.072352 
Q 173.833656 86.295109 173.833656 84.927388 
Q 173.833656 83.565327 176.072841 82.786198 
Q 178.318111 82.008955 182.236685 82.008955 
Q 184.421108 82.008955 186.398649 82.208925 
Q 188.37619 82.410782 190.414579 82.840907 
L 190.414579 81.018537 
z
" clip-path="url(#p7b78aeb8ae)" style="fill: #0000ff"/>
   </g>
   <g id="patch_70">
    <path d="M 190.414579 72.097067 
Q 187.978977 71.685884 185.359352 71.479353 
Q 182.739728 71.2747 179.946905 71.2747 
Q 173.635991 71.2747 169.950114 72.498863 
Q 166.264237 73.723025 166.264237 75.816493 
Q 166.264237 77.934368 170.015063 79.149143 
Q 173.771302 80.363917 180.304126 80.363917 
Q 182.820914 80.363917 185.126617 80.198693 
Q 187.437732 80.035346 189.483638 79.712408 
L 189.483638 77.900572 
Q 187.372783 78.315511 185.283578 78.520164 
Q 183.194373 78.726694 181.094344 78.726694 
Q 177.208206 78.726694 175.102764 77.971919 
Q 172.997322 77.219022 172.997322 75.816493 
Q 172.997322 74.427106 175.02699 73.668576 
Q 177.056658 72.911924 180.791247 72.911924 
Q 181.808787 72.911924 182.680191 72.955107 
Q 183.551595 73.000168 184.244388 73.094046 
L 184.244388 74.795106 
L 180.266239 74.795106 
L 180.266239 76.310288 
L 190.414579 76.310288 
L 190.414579 72.097067 
z
" clip-path="url(#p7b78aeb8ae)" style="fill: #ffa600"/>
   </g>
   <g id="patch_71">
    <path d="M 215.835991 94.057027 
Q 213.815856 92.604324 211.631434 91.869526 
Q 209.447012 91.126283 207.067877 91.126283 
Q 199.973068 91.126283 195.829359 96.63304 
Q 191.685649 102.139798 191.685649 111.557029 
Q 191.685649 121.008043 195.829359 126.506355 
Q 199.973068 132.013112 207.067877 132.013112 
Q 209.447012 132.013112 211.631434 131.269869 
Q 213.815856 130.535071 215.835991 129.082368 
L 215.835991 120.93203 
Q 213.797602 122.857705 211.820061 123.752976 
Q 209.84252 124.648246 207.658097 124.648246 
Q 203.739523 124.648246 201.494254 121.16007 
Q 199.255068 117.68034 199.255068 111.557029 
Q 199.255068 105.459055 201.494254 101.970879 
Q 203.739523 98.491149 207.658097 98.491149 
Q 209.84252 98.491149 211.820061 99.386419 
Q 213.797602 100.290135 215.835991 102.215811 
L 215.835991 94.057027 
z
" clip-path="url(#p7b78aeb8ae)" style="fill: #0000ff"/>
   </g>
   <g id="patch_72">
    <path d="M 215.835991 72.621019 
Q 213.400389 71.70059 210.780765 71.238273 
Q 208.16114 70.78016 205.368317 70.78016 
Q 199.057403 70.78016 195.371526 73.520435 
Q 191.685649 76.26071 191.685649 80.946917 
Q 191.685649 85.687761 195.436475 88.407022 
Q 199.192714 91.126283 205.725539 91.126283 
Q 208.242327 91.126283 210.548029 90.75643 
Q 212.859145 90.39078 214.90505 89.667885 
L 214.90505 85.61211 
Q 212.794195 86.540945 210.70499 86.999059 
Q 208.615786 87.461375 206.515756 87.461375 
Q 202.629618 87.461375 200.524176 85.771819 
Q 198.418734 84.086465 198.418734 80.946917 
Q 198.418734 77.836789 200.448402 76.138827 
Q 202.47807 74.445068 206.212659 74.445068 
Q 207.230199 74.445068 208.101603 74.541734 
Q 208.973007 74.642603 209.6658 74.852747 
L 209.6658 78.660552 
L 205.687651 78.660552 
L 205.687651 82.052273 
L 215.835991 82.052273 
L 215.835991 72.621019 
z
" clip-path="url(#p7b78aeb8ae)" style="fill: #ffa600"/>
   </g>
   <g id="patch_73">
    <path d="M 241.257403 78.465401 
Q 239.237269 75.680736 237.052846 74.272214 
Q 234.868424 72.847502 232.48929 72.847502 
Q 225.39448 72.847502 221.250771 83.403323 
Q 217.107062 93.959143 217.107062 112.010891 
Q 217.107062 130.127399 221.250771 140.667029 
Q 225.39448 151.222849 232.48929 151.222849 
Q 234.868424 151.222849 237.052846 149.798137 
Q 239.237269 148.389615 241.257403 145.604951 
L 241.257403 129.981689 
Q 239.219015 133.672988 237.241473 135.389119 
Q 235.263932 137.105249 233.07951 137.105249 
Q 229.160936 137.105249 226.915666 130.418817 
Q 224.676481 123.748575 224.676481 112.010891 
Q 224.676481 100.321777 226.915666 93.635345 
Q 229.160936 86.965103 233.07951 86.965103 
Q 235.263932 86.965103 237.241473 88.681233 
Q 239.219015 90.413553 241.257403 94.104852 
L 241.257403 78.465401 
z
" clip-path="url(#p7b78aeb8ae)" style="fill: #0000ff"/>
   </g>
   <g id="patch_74">
    <path d="M 241.257403 70.967207 
Q 238.821802 70.873683 236.202177 70.826708 
Q 233.582552 70.78016 230.789729 70.78016 
Q 224.478815 70.78016 220.792938 71.058595 
Q 217.107062 71.337031 217.107062 71.813191 
Q 217.107062 72.294901 220.857888 72.571202 
Q 224.614126 72.847502 231.146951 72.847502 
Q 233.663739 72.847502 235.969442 72.809922 
Q 238.280557 72.772769 240.326462 72.699317 
L 240.326462 72.287215 
Q 238.215608 72.381592 236.126403 72.428141 
Q 234.037198 72.475116 231.937168 72.475116 
Q 228.051031 72.475116 225.945589 72.303442 
Q 223.840146 72.132196 223.840146 71.813191 
Q 223.840146 71.497174 225.869814 71.324647 
Q 227.899482 71.152546 231.634071 71.152546 
Q 232.651611 71.152546 233.523015 71.162368 
Q 234.394419 71.172617 235.087213 71.19397 
L 235.087213 71.580876 
L 231.109064 71.580876 
L 231.109064 71.925504 
L 241.257403 71.925504 
L 241.257403 70.967207 
z
" clip-path="url(#p7b78aeb8ae)" style="fill: #ffa600"/>
   </g>
   <g id="patch_75">
    <path d="M 266.678815 101.332647 
Q 264.658681 100.281241 262.474259 99.749426 
Q 260.289836 99.211497 257.910702 99.211497 
Q 250.815893 99.211497 246.672183 103.197058 
Q 242.528474 107.182618 242.528474 113.998415 
Q 242.528474 120.838664 246.672183 124.818111 
Q 250.815893 128.803672 257.910702 128.803672 
Q 260.289836 128.803672 262.474259 128.265743 
Q 264.658681 127.733928 266.678815 126.682522 
L 266.678815 120.783649 
Q 264.640427 122.177372 262.662886 122.825331 
Q 260.685344 123.473291 258.500922 123.473291 
Q 254.582348 123.473291 252.337078 120.948695 
Q 250.097893 118.430212 250.097893 113.998415 
Q 250.097893 109.584957 252.337078 107.060362 
Q 254.582348 104.541879 258.500922 104.541879 
Q 260.685344 104.541879 262.662886 105.189838 
Q 264.640427 105.84391 266.678815 107.237634 
L 266.678815 101.332647 
z
" clip-path="url(#p7b78aeb8ae)" style="fill: #0000ff"/>
   </g>
   <g id="patch_76">
    <path d="M 266.678815 73.352547 
Q 264.243214 72.066353 261.623589 71.42032 
Q 259.003965 70.78016 256.211142 70.78016 
Q 249.900228 70.78016 246.214351 74.609375 
Q 242.528474 78.438591 242.528474 84.987019 
Q 242.528474 91.611797 246.2793 95.411647 
Q 250.035539 99.211497 256.568363 99.211497 
Q 259.085151 99.211497 261.390854 98.694671 
Q 263.701969 98.183717 265.747874 97.173556 
L 265.747874 91.506082 
Q 263.63702 92.804022 261.547815 93.444182 
Q 259.45861 94.090215 257.358581 94.090215 
Q 253.472443 94.090215 251.367001 91.729257 
Q 249.261559 89.374172 249.261559 84.987019 
Q 249.261559 80.640977 251.291227 78.268273 
Q 253.320895 75.901442 257.055483 75.901442 
Q 258.073024 75.901442 258.944428 76.036521 
Q 259.815832 76.177474 260.508625 76.471126 
L 260.508625 81.792091 
L 256.530476 81.792091 
L 256.530476 86.531626 
L 266.678815 86.531626 
L 266.678815 73.352547 
z
" clip-path="url(#p7b78aeb8ae)" style="fill: #ffa600"/>
   </g>
   <g id="patch_77">
    <path d="M 292.100228 80.648471 
Q 290.080093 76.695445 287.895671 74.69595 
Q 285.711249 72.673472 283.332114 72.673472 
Q 276.237305 72.673472 272.093596 87.658195 
Q 267.949886 102.642919 267.949886 128.268635 
Q 267.949886 153.986281 272.093596 168.948022 
Q 276.237305 183.932746 283.332114 183.932746 
Q 285.711249 183.932746 287.895671 181.910268 
Q 290.080093 179.910772 292.100228 175.957747 
L 292.100228 153.779437 
Q 290.061839 159.019494 288.084298 161.45566 
Q 286.106757 163.891827 283.922334 163.891827 
Q 280.00376 163.891827 277.75849 154.39997 
Q 275.519305 144.931096 275.519305 128.268635 
Q 275.519305 111.675122 277.75849 102.183265 
Q 280.00376 92.71439 283.922334 92.71439 
Q 286.106757 92.71439 288.084298 95.150557 
Q 290.061839 97.609707 292.100228 102.849763 
L 292.100228 80.648471 
z
" clip-path="url(#p7b78aeb8ae)" style="fill: #0000ff"/>
   </g>
   <g id="patch_78">
    <path d="M 292.100228 70.951461 
Q 289.664626 70.86581 287.045002 70.82279 
Q 284.425377 70.78016 281.632554 70.78016 
Q 275.32164 70.78016 271.635763 71.035156 
Q 267.949886 71.290153 267.949886 71.726229 
Q 267.949886 72.167389 271.700712 72.420431 
Q 275.456951 72.673472 281.989775 72.673472 
Q 284.506564 72.673472 286.812266 72.639055 
Q 289.123382 72.60503 291.169287 72.53776 
L 291.169287 72.16035 
Q 289.058432 72.246783 286.969227 72.289412 
Q 284.880023 72.332433 282.779993 72.332433 
Q 278.893855 72.332433 276.788413 72.175211 
Q 274.682971 72.01838 274.682971 71.726229 
Q 274.682971 71.436816 276.712639 71.278811 
Q 278.742307 71.121198 282.476896 71.121198 
Q 283.494436 71.121198 284.36584 71.130194 
Q 285.237244 71.13958 285.930037 71.159135 
L 285.930037 71.513471 
L 281.951888 71.513471 
L 281.951888 71.829088 
L 292.100228 71.829088 
L 292.100228 70.951461 
z
" clip-path="url(#p7b78aeb8ae)" style="fill: #ffa600"/>
   </g>
   <g id="patch_79">
    <path d="M 310.100261 70.784311 
L 300.812428 70.784311 
L 299.345928 70.78016 
L 293.371298 70.78016 
L 301.903662 70.802948 
L 308.989276 70.802948 
L 317.52164 70.78016 
L 311.551948 70.78016 
L 310.100261 70.784311 
z
M 302.293741 70.788541 
L 308.604135 70.788541 
L 305.453876 70.797605 
L 302.293741 70.788541 
z
" clip-path="url(#p7b78aeb8ae)" style="fill: #008000"/>
   </g>
   <g id="patch_80">
    <path d="M 317.52164 80.276172 
Q 315.501506 75.990595 313.317083 73.82289 
Q 311.132661 71.63027 308.753527 71.63027 
Q 301.658717 71.63027 297.515008 87.875596 
Q 293.371298 104.120923 293.371298 131.902425 
Q 293.371298 159.783592 297.515008 176.004003 
Q 301.658717 192.249329 308.753527 192.249329 
Q 311.132661 192.249329 313.317083 190.056709 
Q 315.501506 187.889004 317.52164 183.603427 
L 317.52164 159.559347 
Q 315.483251 165.240228 313.50571 167.881339 
Q 311.528169 170.522451 309.343747 170.522451 
Q 305.425173 170.522451 303.179903 160.232083 
Q 300.940718 149.966631 300.940718 131.902425 
Q 300.940718 113.912968 303.179903 103.6226 
Q 305.425173 93.357148 309.343747 93.357148 
Q 311.528169 93.357148 313.50571 95.99826 
Q 315.483251 98.664287 317.52164 104.345169 
L 317.52164 80.276172 
z
" clip-path="url(#p7b78aeb8ae)" style="fill: #0000ff"/>
   </g>
   <g id="patch_81">
    <path d="M 317.52164 70.877802 
Q 315.086039 70.840375 312.466414 70.821576 
Q 309.846789 70.802948 307.053966 70.802948 
Q 300.743052 70.802948 297.057175 70.914374 
Q 293.371298 71.025801 293.371298 71.216353 
Q 293.371298 71.409127 297.122125 71.519698 
Q 300.878363 71.63027 307.411188 71.63027 
Q 309.927976 71.63027 312.233679 71.615231 
Q 314.544794 71.600362 316.590699 71.570968 
L 316.590699 71.40605 
Q 314.479844 71.443819 312.39064 71.462447 
Q 310.301435 71.481246 308.201405 71.481246 
Q 304.315268 71.481246 302.209826 71.412545 
Q 300.104383 71.344014 300.104383 71.216353 
Q 300.104383 71.089888 302.134051 71.020844 
Q 304.163719 70.951972 307.898308 70.951972 
Q 308.915848 70.951972 309.787252 70.955903 
Q 310.658656 70.960004 311.35145 70.968549 
L 311.35145 71.123384 
L 307.373301 71.123384 
L 307.373301 71.261299 
L 317.52164 71.261299 
L 317.52164 70.877802 
z
" clip-path="url(#p7b78aeb8ae)" style="fill: #ffa600"/>
   </g>
   <g id="patch_82">
    <path d="M 342.943052 94.896117 
Q 340.922918 93.156449 338.738496 92.276501 
Q 336.554073 91.386438 334.174939 91.386438 
Q 327.08013 91.386438 322.93642 97.980993 
Q 318.792711 104.575549 318.792711 115.853048 
Q 318.792711 127.171004 322.93642 133.755445 
Q 327.08013 140.350001 334.174939 140.350001 
Q 336.554073 140.350001 338.738496 139.459938 
Q 340.922918 138.57999 342.943052 136.840322 
L 342.943052 127.079975 
Q 340.904664 129.386047 338.927123 130.458168 
Q 336.949581 131.530289 334.765159 131.530289 
Q 330.846585 131.530289 328.601315 127.353062 
Q 326.36213 123.185951 326.36213 115.853048 
Q 326.36213 108.550488 328.601315 104.373262 
Q 330.846585 100.20615 334.765159 100.20615 
Q 336.949581 100.20615 338.927123 101.278271 
Q 340.904664 102.360506 342.943052 104.666578 
L 342.943052 94.896117 
z
" clip-path="url(#p7b78aeb8ae)" style="fill: #0000ff"/>
   </g>
   <g id="patch_83">
    <path d="M 342.943052 73.360967 
Q 340.507451 72.464402 337.887826 72.014072 
Q 335.268202 71.567836 332.475379 71.567836 
Q 326.164464 71.567836 322.478588 74.237063 
Q 318.792711 76.90629 318.792711 81.470996 
Q 318.792711 86.088923 322.543537 88.73768 
Q 326.299776 91.386438 332.8326 91.386438 
Q 335.349388 91.386438 337.655091 91.026174 
Q 339.966206 90.670004 342.012111 89.965852 
L 342.012111 86.015232 
Q 339.901257 86.919986 337.812052 87.366222 
Q 335.722847 87.816551 333.622817 87.816551 
Q 329.73668 87.816551 327.631238 86.170801 
Q 325.525796 84.529144 325.525796 81.470996 
Q 325.525796 78.441505 327.555464 76.787567 
Q 329.585131 75.137723 333.31972 75.137723 
Q 334.337261 75.137723 335.208665 75.231882 
Q 336.080069 75.330136 336.772862 75.534831 
L 336.772862 79.243911 
L 332.794713 79.243911 
L 332.794713 82.547694 
L 342.943052 82.547694 
L 342.943052 73.360967 
z
" clip-path="url(#p7b78aeb8ae)" style="fill: #ffa600"/>
   </g>
   <g id="patch_84">
    <path d="M 318.792711 71.567836 
L 342.943052 71.567836 
L 342.943052 71.414217 
L 334.254546 71.414217 
L 334.254546 70.78016 
L 327.498066 70.78016 
L 327.498066 71.414217 
L 318.792711 71.414217 
L 318.792711 71.567836 
z
" clip-path="url(#p7b78aeb8ae)" style="fill: #ff0000"/>
   </g>
   <g id="patch_85">
    <path d="M 360.943086 71.03436 
L 351.655253 71.03436 
L 350.188753 70.78016 
L 344.214123 70.78016 
L 352.746487 72.17557 
L 359.832101 72.17557 
L 368.364465 70.78016 
L 362.394773 70.78016 
L 360.943086 71.03436 
z
M 353.136566 71.293345 
L 359.44696 71.293345 
L 356.2967 71.848399 
L 353.136566 71.293345 
z
" clip-path="url(#p7b78aeb8ae)" style="fill: #008000"/>
   </g>
   <g id="patch_86">
    <path d="M 368.364465 76.769332 
Q 366.34433 74.492309 364.159908 73.340558 
Q 361.975485 72.17557 359.596351 72.17557 
Q 352.501542 72.17557 348.357832 80.807078 
Q 344.214123 89.438586 344.214123 104.199525 
Q 344.214123 119.013417 348.357832 127.631687 
Q 352.501542 136.263196 359.596351 136.263196 
Q 361.975485 136.263196 364.159908 135.098207 
Q 366.34433 133.946456 368.364465 131.669433 
L 368.364465 118.894271 
Q 366.326076 121.912651 364.348535 123.315933 
Q 362.370994 124.719215 360.186571 124.719215 
Q 356.267997 124.719215 354.022727 119.251711 
Q 351.783542 113.797444 351.783542 104.199525 
Q 351.783542 94.641321 354.022727 89.173816 
Q 356.267997 83.71955 360.186571 83.71955 
Q 362.370994 83.71955 364.348535 85.122832 
Q 366.326076 86.539353 368.364465 89.557733 
L 368.364465 76.769332 
z
" clip-path="url(#p7b78aeb8ae)" style="fill: #0000ff"/>
   </g>
   <g id="patch_87">
    <path d="M 393.785877 74.341975 
Q 391.765743 72.576464 389.58132 71.683444 
Q 387.396898 70.78016 385.017764 70.78016 
Q 377.922954 70.78016 373.779245 77.472677 
Q 369.635535 84.165194 369.635535 95.610219 
Q 369.635535 107.096302 373.779245 113.778554 
Q 377.922954 120.471071 385.017764 120.471071 
Q 387.396898 120.471071 389.58132 119.567787 
Q 391.765743 118.674767 393.785877 116.909256 
L 393.785877 107.003921 
Q 391.747488 109.344249 389.769947 110.432296 
Q 387.792406 111.520343 385.607984 111.520343 
Q 381.68941 111.520343 379.44414 107.281065 
Q 377.204955 103.052051 377.204955 95.610219 
Q 377.204955 88.19918 379.44414 83.959902 
Q 381.68941 79.730888 385.607984 79.730888 
Q 387.792406 79.730888 389.769947 80.818935 
Q 391.747488 81.917247 393.785877 84.257575 
L 393.785877 74.341975 
z
" clip-path="url(#p7b78aeb8ae)" style="fill: #0000ff"/>
   </g>
   <g id="patch_88">
    <path d="M 419.207289 72.835731 
Q 417.187155 71.816831 415.002732 71.301457 
Q 412.81831 70.78016 410.439176 70.78016 
Q 403.344366 70.78016 399.200657 74.642501 
Q 395.056948 78.504843 395.056948 85.109921 
Q 395.056948 91.738694 399.200657 95.595112 
Q 403.344366 99.457453 410.439176 99.457453 
Q 412.81831 99.457453 415.002732 98.936155 
Q 417.187155 98.420782 419.207289 97.401882 
L 419.207289 91.685379 
Q 417.168901 93.036014 415.191359 93.663941 
Q 413.213818 94.291868 411.029396 94.291868 
Q 407.110822 94.291868 404.865552 91.845323 
Q 402.626367 89.404702 402.626367 85.109921 
Q 402.626367 80.832911 404.865552 78.386366 
Q 407.110822 75.945745 411.029396 75.945745 
Q 413.213818 75.945745 415.191359 76.573672 
Q 417.168901 77.207522 419.207289 78.558157 
L 419.207289 72.835731 
z
" clip-path="url(#p7b78aeb8ae)" style="fill: #0000ff"/>
   </g>
   <g id="patch_89">
    <path d="M 444.628702 70.92733 
Q 442.608567 70.854381 440.424145 70.817482 
Q 438.239722 70.78016 435.860588 70.78016 
Q 428.765779 70.78016 424.622069 71.056687 
Q 420.47836 71.333215 420.47836 71.80611 
Q 420.47836 72.280703 424.622069 72.556806 
Q 428.765779 72.833334 435.860588 72.833334 
Q 438.239722 72.833334 440.424145 72.796011 
Q 442.608567 72.759112 444.628702 72.686163 
L 444.628702 72.276886 
Q 442.590313 72.373585 440.612772 72.418542 
Q 438.635231 72.463499 436.450808 72.463499 
Q 432.532234 72.463499 430.286964 72.288337 
Q 428.047779 72.113599 428.047779 71.80611 
Q 428.047779 71.499894 430.286964 71.324732 
Q 432.532234 71.149994 436.450808 71.149994 
Q 438.635231 71.149994 440.612772 71.194951 
Q 442.590313 71.240332 444.628702 71.337032 
L 444.628702 70.92733 
z
" clip-path="url(#p7b78aeb8ae)" style="fill: #0000ff"/>
   </g>
   <g id="patch_90">
    <path d="M 546.314351 71.055516 
Q 543.878749 70.917838 541.259125 70.848685 
Q 538.6395 70.78016 535.846677 70.78016 
Q 529.535763 70.78016 525.849886 71.190051 
Q 522.164009 71.599943 522.164009 72.300909 
Q 522.164009 73.010046 525.914835 73.416795 
Q 529.671074 73.823543 536.203898 73.823543 
Q 538.720687 73.823543 541.026389 73.768221 
Q 543.337505 73.713526 545.38341 73.605395 
L 545.38341 72.99873 
Q 543.272555 73.137666 541.18335 73.206191 
Q 539.094146 73.275345 536.994116 73.275345 
Q 533.107978 73.275345 531.002536 73.02262 
Q 528.897094 72.770524 528.897094 72.300909 
Q 528.897094 71.835694 530.926762 71.581712 
Q 532.95643 71.328359 536.691019 71.328359 
Q 537.708559 71.328359 538.579963 71.342818 
Q 539.451367 71.357906 540.14416 71.389339 
L 540.14416 71.958913 
L 536.166011 71.958913 
L 536.166011 72.466248 
L 546.314351 72.466248 
L 546.314351 71.055516 
z
" clip-path="url(#p7b78aeb8ae)" style="fill: #ffa600"/>
   </g>
   <g id="matplotlib.axis_1">
    <g id="xtick_1">
     <g id="line2d_2">
      <defs>
       <path id="m207dcdf30a" d="M 0 0 
L 0 3.5 
" style="stroke: #000000; stroke-width: 0.8"/>
      </defs>
      <g>
       <use xlink:href="#m207dcdf30a" x="102.075171" y="192.24" style="stroke: #000000; stroke-width: 0.8"/>
      </g>
     </g>
     <g id="text_1">
      <!-- 0.0 -->
      <g transform="translate(94.123608 206.838437) scale(0.1 -0.1)">
       <defs>
        <path id="DejaVuSans-30" d="M 2034 4250 
Q 1547 4250 1301 3770 
Q 1056 3291 1056 2328 
Q 1056 1369 1301 889 
Q 1547 409 2034 409 
Q 2525 409 2770 889 
Q 3016 1369 3016 2328 
Q 3016 3291 2770 3770 
Q 2525 4250 2034 4250 
z
M 2034 4750 
Q 2819 4750 3233 4129 
Q 3647 3509 3647 2328 
Q 3647 1150 3233 529 
Q 2819 -91 2034 -91 
Q 1250 -91 836 529 
Q 422 1150 422 2328 
Q 422 3509 836 4129 
Q 1250 4750 2034 4750 
z
" transform="scale(0.015625)"/>
        <path id="DejaVuSans-2e" d="M 684 794 
L 1344 794 
L 1344 0 
L 684 0 
L 684 794 
z
" transform="scale(0.015625)"/>
       </defs>
       <use xlink:href="#DejaVuSans-30"/>
       <use xlink:href="#DejaVuSans-2e" x="63.623047"/>
       <use xlink:href="#DejaVuSans-30" x="95.410156"/>
      </g>
     </g>
    </g>
    <g id="xtick_2">
     <g id="line2d_3">
      <g>
       <use xlink:href="#m207dcdf30a" x="165.628702" y="192.24" style="stroke: #000000; stroke-width: 0.8"/>
      </g>
     </g>
     <g id="text_2">
      <!-- 2.5 -->
      <g transform="translate(157.677139 206.838437) scale(0.1 -0.1)">
       <defs>
        <path id="DejaVuSans-32" d="M 1228 531 
L 3431 531 
L 3431 0 
L 469 0 
L 469 531 
Q 828 903 1448 1529 
Q 2069 2156 2228 2338 
Q 2531 2678 2651 2914 
Q 2772 3150 2772 3378 
Q 2772 3750 2511 3984 
Q 2250 4219 1831 4219 
Q 1534 4219 1204 4116 
Q 875 4013 500 3803 
L 500 4441 
Q 881 4594 1212 4672 
Q 1544 4750 1819 4750 
Q 2544 4750 2975 4387 
Q 3406 4025 3406 3419 
Q 3406 3131 3298 2873 
Q 3191 2616 2906 2266 
Q 2828 2175 2409 1742 
Q 1991 1309 1228 531 
z
" transform="scale(0.015625)"/>
        <path id="DejaVuSans-35" d="M 691 4666 
L 3169 4666 
L 3169 4134 
L 1269 4134 
L 1269 2991 
Q 1406 3038 1543 3061 
Q 1681 3084 1819 3084 
Q 2600 3084 3056 2656 
Q 3513 2228 3513 1497 
Q 3513 744 3044 326 
Q 2575 -91 1722 -91 
Q 1428 -91 1123 -41 
Q 819 9 494 109 
L 494 744 
Q 775 591 1075 516 
Q 1375 441 1709 441 
Q 2250 441 2565 725 
Q 2881 1009 2881 1497 
Q 2881 1984 2565 2268 
Q 2250 2553 1709 2553 
Q 1456 2553 1204 2497 
Q 953 2441 691 2322 
L 691 4666 
z
" transform="scale(0.015625)"/>
       </defs>
       <use xlink:href="#DejaVuSans-32"/>
       <use xlink:href="#DejaVuSans-2e" x="63.623047"/>
       <use xlink:href="#DejaVuSans-35" x="95.410156"/>
      </g>
     </g>
    </g>
    <g id="xtick_3">
     <g id="line2d_4">
      <g>
       <use xlink:href="#m207dcdf30a" x="229.182232" y="192.24" style="stroke: #000000; stroke-width: 0.8"/>
      </g>
     </g>
     <g id="text_3">
      <!-- 5.0 -->
      <g transform="translate(221.23067 206.838437) scale(0.1 -0.1)">
       <use xlink:href="#DejaVuSans-35"/>
       <use xlink:href="#DejaVuSans-2e" x="63.623047"/>
       <use xlink:href="#DejaVuSans-30" x="95.410156"/>
      </g>
     </g>
    </g>
    <g id="xtick_4">
     <g id="line2d_5">
      <g>
       <use xlink:href="#m207dcdf30a" x="292.735763" y="192.24" style="stroke: #000000; stroke-width: 0.8"/>
      </g>
     </g>
     <g id="text_4">
      <!-- 7.5 -->
      <g transform="translate(284.784201 206.838437) scale(0.1 -0.1)">
       <defs>
        <path id="DejaVuSans-37" d="M 525 4666 
L 3525 4666 
L 3525 4397 
L 1831 0 
L 1172 0 
L 2766 4134 
L 525 4134 
L 525 4666 
z
" transform="scale(0.015625)"/>
       </defs>
       <use xlink:href="#DejaVuSans-37"/>
       <use xlink:href="#DejaVuSans-2e" x="63.623047"/>
       <use xlink:href="#DejaVuSans-35" x="95.410156"/>
      </g>
     </g>
    </g>
    <g id="xtick_5">
     <g id="line2d_6">
      <g>
       <use xlink:href="#m207dcdf30a" x="356.289294" y="192.24" style="stroke: #000000; stroke-width: 0.8"/>
      </g>
     </g>
     <g id="text_5">
      <!-- 10.0 -->
      <g transform="translate(345.156481 206.838437) scale(0.1 -0.1)">
       <defs>
        <path id="DejaVuSans-31" d="M 794 531 
L 1825 531 
L 1825 4091 
L 703 3866 
L 703 4441 
L 1819 4666 
L 2450 4666 
L 2450 531 
L 3481 531 
L 3481 0 
L 794 0 
L 794 531 
z
" transform="scale(0.015625)"/>
       </defs>
       <use xlink:href="#DejaVuSans-31"/>
       <use xlink:href="#DejaVuSans-30" x="63.623047"/>
       <use xlink:href="#DejaVuSans-2e" x="127.246094"/>
       <use xlink:href="#DejaVuSans-30" x="159.033203"/>
      </g>
     </g>
    </g>
    <g id="xtick_6">
     <g id="line2d_7">
      <g>
       <use xlink:href="#m207dcdf30a" x="419.842825" y="192.24" style="stroke: #000000; stroke-width: 0.8"/>
      </g>
     </g>
     <g id="text_6">
      <!-- 12.5 -->
      <g transform="translate(408.710012 206.838437) scale(0.1 -0.1)">
       <use xlink:href="#DejaVuSans-31"/>
       <use xlink:href="#DejaVuSans-32" x="63.623047"/>
       <use xlink:href="#DejaVuSans-2e" x="127.246094"/>
       <use xlink:href="#DejaVuSans-35" x="159.033203"/>
      </g>
     </g>
    </g>
    <g id="xtick_7">
     <g id="line2d_8">
      <g>
       <use xlink:href="#m207dcdf30a" x="483.396355" y="192.24" style="stroke: #000000; stroke-width: 0.8"/>
      </g>
     </g>
     <g id="text_7">
      <!-- 15.0 -->
      <g transform="translate(472.263543 206.838437) scale(0.1 -0.1)">
       <use xlink:href="#DejaVuSans-31"/>
       <use xlink:href="#DejaVuSans-35" x="63.623047"/>
       <use xlink:href="#DejaVuSans-2e" x="127.246094"/>
       <use xlink:href="#DejaVuSans-30" x="159.033203"/>
      </g>
     </g>
    </g>
    <g id="xtick_8">
     <g id="line2d_9">
      <g>
       <use xlink:href="#m207dcdf30a" x="546.949886" y="192.24" style="stroke: #000000; stroke-width: 0.8"/>
      </g>
     </g>
     <g id="text_8">
      <!-- 17.5 -->
      <g transform="translate(535.817074 206.838437) scale(0.1 -0.1)">
       <use xlink:href="#DejaVuSans-31"/>
       <use xlink:href="#DejaVuSans-37" x="63.623047"/>
       <use xlink:href="#DejaVuSans-2e" x="127.246094"/>
       <use xlink:href="#DejaVuSans-35" x="159.033203"/>
      </g>
     </g>
    </g>
    <g id="xtick_9">
     <g id="line2d_10">
      <g>
       <use xlink:href="#m207dcdf30a" x="610.503417" y="192.24" style="stroke: #000000; stroke-width: 0.8"/>
      </g>
     </g>
     <g id="text_9">
      <!-- 20.0 -->
      <g transform="translate(599.370604 206.838437) scale(0.1 -0.1)">
       <use xlink:href="#DejaVuSans-32"/>
       <use xlink:href="#DejaVuSans-30" x="63.623047"/>
       <use xlink:href="#DejaVuSans-2e" x="127.246094"/>
       <use xlink:href="#DejaVuSans-30" x="159.033203"/>
      </g>
     </g>
    </g>
   </g>
   <g id="matplotlib.axis_2">
    <g id="ytick_1">
     <g id="line2d_11">
      <defs>
       <path id="m0620aabc0a" d="M 0 0 
L -3.5 0 
" style="stroke: #000000; stroke-width: 0.8"/>
      </defs>
      <g>
       <use xlink:href="#m0620aabc0a" x="90" y="165.081159" style="stroke: #000000; stroke-width: 0.8"/>
      </g>
     </g>
     <g id="text_10">
      <!-- 0.015 -->
      <g transform="translate(45.992188 168.880378) scale(0.1 -0.1)">
       <defs>
        <path id="DejaVuSans-2212" d="M 678 2272 
L 4684 2272 
L 4684 1741 
L 678 1741 
L 678 2272 
z
" transform="scale(0.015625)"/>
       </defs>
       <use xlink:href="#DejaVuSans-2212"/>
       <use xlink:href="#DejaVuSans-30" x="83.789062"/>
       <use xlink:href="#DejaVuSans-2e" x="147.412109"/>
       <use xlink:href="#DejaVuSans-30" x="179.199219"/>
       <use xlink:href="#DejaVuSans-31" x="242.822266"/>
       <use xlink:href="#DejaVuSans-35" x="306.445312"/>
      </g>
     </g>
    </g>
    <g id="ytick_2">
     <g id="line2d_12">
      <g>
       <use xlink:href="#m0620aabc0a" x="90" y="133.647493" style="stroke: #000000; stroke-width: 0.8"/>
      </g>
     </g>
     <g id="text_11">
      <!-- 0.010 -->
      <g transform="translate(45.992188 137.446711) scale(0.1 -0.1)">
       <use xlink:href="#DejaVuSans-2212"/>
       <use xlink:href="#DejaVuSans-30" x="83.789062"/>
       <use xlink:href="#DejaVuSans-2e" x="147.412109"/>
       <use xlink:href="#DejaVuSans-30" x="179.199219"/>
       <use xlink:href="#DejaVuSans-31" x="242.822266"/>
       <use xlink:href="#DejaVuSans-30" x="306.445312"/>
      </g>
     </g>
    </g>
    <g id="ytick_3">
     <g id="line2d_13">
      <g>
       <use xlink:href="#m0620aabc0a" x="90" y="102.213826" style="stroke: #000000; stroke-width: 0.8"/>
      </g>
     </g>
     <g id="text_12">
      <!-- 0.005 -->
      <g transform="translate(45.992188 106.013045) scale(0.1 -0.1)">
       <use xlink:href="#DejaVuSans-2212"/>
       <use xlink:href="#DejaVuSans-30" x="83.789062"/>
       <use xlink:href="#DejaVuSans-2e" x="147.412109"/>
       <use xlink:href="#DejaVuSans-30" x="179.199219"/>
       <use xlink:href="#DejaVuSans-30" x="242.822266"/>
       <use xlink:href="#DejaVuSans-35" x="306.445312"/>
      </g>
     </g>
    </g>
    <g id="ytick_4">
     <g id="line2d_14">
      <g>
       <use xlink:href="#m0620aabc0a" x="90" y="70.78016" style="stroke: #000000; stroke-width: 0.8"/>
      </g>
     </g>
     <g id="text_13">
      <!-- 0.000 -->
      <g transform="translate(54.371875 74.579378) scale(0.1 -0.1)">
       <use xlink:href="#DejaVuSans-30"/>
       <use xlink:href="#DejaVuSans-2e" x="63.623047"/>
       <use xlink:href="#DejaVuSans-30" x="95.410156"/>
       <use xlink:href="#DejaVuSans-30" x="159.033203"/>
       <use xlink:href="#DejaVuSans-30" x="222.65625"/>
      </g>
     </g>
    </g>
    <g id="ytick_5">
     <g id="line2d_15">
      <g>
       <use xlink:href="#m0620aabc0a" x="90" y="39.346493" style="stroke: #000000; stroke-width: 0.8"/>
      </g>
     </g>
     <g id="text_14">
      <!-- 0.005 -->
      <g transform="translate(54.371875 43.145712) scale(0.1 -0.1)">
       <use xlink:href="#DejaVuSans-30"/>
       <use xlink:href="#DejaVuSans-2e" x="63.623047"/>
       <use xlink:href="#DejaVuSans-30" x="95.410156"/>
       <use xlink:href="#DejaVuSans-30" x="159.033203"/>
       <use xlink:href="#DejaVuSans-35" x="222.65625"/>
      </g>
     </g>
    </g>
   </g>
  </g>
 </g>
 <defs>
  <clipPath id="p7b78aeb8ae">
   <rect x="90" y="25.92" width="558" height="166.32"/>
  </clipPath>
 </defs>
</svg>
