<?xml version="1.0" encoding="utf-8" standalone="no"?>
<!DOCTYPE svg PUBLIC "-//W3C//DTD SVG 1.1//EN"
  "http://www.w3.org/Graphics/SVG/1.1/DTD/svg11.dtd">
<svg xmlns:xlink="http://www.w3.org/1999/xlink" width="720pt" height="216pt" viewBox="0 0 720 216" xmlns="http://www.w3.org/2000/svg" version="1.1">
 <metadata>
  <rdf:RDF xmlns:dc="http://purl.org/dc/elements/1.1/" xmlns:cc="http://creativecommons.org/ns#" xmlns:rdf="http://www.w3.org/1999/02/22-rdf-syntax-ns#">
   <cc:Work>
    <dc:type rdf:resource="http://purl.org/dc/dcmitype/StillImage"/>
    <dc:date>2024-11-23T04:41:24.707290</dc:date>
    <dc:format>image/svg+xml</dc:format>
    <dc:creator>
     <cc:Agent>
      <dc:title>Matplotlib v3.7.2, https://matplotlib.org/</dc:title>
     </cc:Agent>
    </dc:creator>
   </cc:Work>
  </rdf:RDF>
 </metadata>
 <defs>
  <style type="text/css">*{stroke-linejoin: round; stroke-linecap: butt}</style>
 </defs>
 <g id="figure_1">
  <g id="patch_1">
   <path d="M 0 216 
L 720 216 
L 720 0 
L 0 0 
z
" style="fill: #ffffff"/>
  </g>
  <g id="axes_1">
   <g id="patch_2">
    <path d="M 90 192.24 
L 648 192.24 
L 648 25.92 
L 90 25.92 
z
" style="fill: #ffffff"/>
   </g>
   <g id="line2d_1">
    <path d="M 90 192.24 
L 648 192.24 
" clip-path="url(#p7ca452f253)" style="fill: none; stroke: #000000; stroke-width: 0.5; stroke-linecap: square"/>
   </g>
   <g id="patch_3">
    <path d="M 111.66376 192.209925 
L 99.636153 192.209925 
L 97.737057 192.24 
L 90 192.24 
L 101.049285 192.074905 
L 110.225051 192.074905 
L 121.274336 192.24 
L 113.543673 192.24 
L 111.66376 192.209925 
z
M 101.554432 192.179283 
L 109.726299 192.179283 
L 105.64676 192.113613 
L 101.554432 192.179283 
z
" clip-path="url(#p7ca452f253)" style="fill: #008000"/>
   </g>
   <g id="patch_4">
    <path d="M 121.274336 191.900742 
Q 118.120268 191.987823 114.727893 192.031563 
Q 111.335518 192.074905 107.718853 192.074905 
Q 99.546312 192.074905 94.773156 191.815648 
Q 90 191.556392 90 191.113032 
Q 90 190.664503 94.857265 190.407234 
Q 99.721538 190.149966 108.18145 190.149966 
Q 111.440653 190.149966 114.426504 190.184958 
Q 117.419364 190.219552 120.068781 190.287945 
L 120.068781 190.67166 
Q 117.335256 190.583783 114.629766 190.540441 
Q 111.924277 190.496702 109.204769 190.496702 
Q 104.172279 190.496702 101.445762 190.65655 
Q 98.719246 190.816001 98.719246 191.113032 
Q 98.719246 191.40728 101.347636 191.567923 
Q 103.976026 191.728169 108.812263 191.728169 
Q 110.129963 191.728169 111.258418 191.719024 
Q 112.386874 191.70948 113.284031 191.689599 
L 113.284031 191.329344 
L 108.132386 191.329344 
L 108.132386 191.008455 
L 121.274336 191.008455 
L 121.274336 191.900742 
z
" clip-path="url(#p7ca452f253)" style="fill: #ffa600"/>
   </g>
   <g id="patch_5">
    <path d="M 121.274336 189.951763 
Q 118.658292 190.050008 115.829497 190.099702 
Q 113.000702 190.149966 109.919759 190.149966 
Q 100.732085 190.149966 95.366043 189.77755 
Q 90 189.405134 90 188.768257 
Q 90 188.129096 95.366043 187.757251 
Q 100.732085 187.384835 109.919759 187.384835 
Q 113.000702 187.384835 115.829497 187.4351 
Q 118.658292 187.484793 121.274336 187.583038 
L 121.274336 188.134236 
Q 118.634653 188.004005 116.073766 187.943459 
Q 113.51288 187.882913 110.684085 187.882913 
Q 105.609589 187.882913 102.701998 188.118814 
Q 99.802286 188.354144 99.802286 188.768257 
Q 99.802286 189.180657 102.701998 189.416558 
Q 105.609589 189.651889 110.684085 189.651889 
Q 113.51288 189.651889 116.073766 189.591342 
Q 118.634653 189.530225 121.274336 189.399994 
L 121.274336 189.951763 
z
" clip-path="url(#p7ca452f253)" style="fill: #0000ff"/>
   </g>
   <g id="patch_6">
    <path d="M 90 180.730152 
L 121.274336 180.730152 
L 121.274336 182.028 
L 110.022848 182.028 
L 110.022848 187.384835 
L 101.273307 187.384835 
L 101.273307 182.028 
L 90 182.028 
L 90 180.730152 
z
" clip-path="url(#p7ca452f253)" style="fill: #ff0000"/>
   </g>
   <g id="patch_7">
    <path d="M 154.19469 191.913677 
Q 151.040622 192.076839 147.648247 192.158792 
Q 144.255872 192.24 140.639207 192.24 
Q 132.466666 192.24 127.69351 191.754241 
Q 122.920354 191.268482 122.920354 190.437774 
Q 122.920354 189.597381 127.777619 189.115347 
Q 132.641892 188.633313 141.101804 188.633313 
Q 144.361007 188.633313 147.346858 188.698876 
Q 150.339718 188.763693 152.989135 188.891838 
L 152.989135 189.610792 
Q 150.25561 189.44614 147.55012 189.364932 
Q 144.844631 189.282979 142.125123 189.282979 
Q 137.092633 189.282979 134.366116 189.58248 
Q 131.6396 189.881237 131.6396 190.437774 
Q 131.6396 190.989096 134.26799 191.290088 
Q 136.89638 191.590334 141.732617 191.590334 
Q 143.050317 191.590334 144.178772 191.573199 
Q 145.307228 191.555318 146.204385 191.518067 
L 146.204385 190.84307 
L 141.05274 190.84307 
L 141.05274 190.241831 
L 154.19469 190.241831 
L 154.19469 191.913677 
z
" clip-path="url(#p7ca452f253)" style="fill: #ffa600"/>
   </g>
   <g id="patch_8">
    <path d="M 154.19469 188.248636 
Q 151.578646 188.439312 148.749851 188.535758 
Q 145.921056 188.633313 142.840113 188.633313 
Q 133.652439 188.633313 128.286397 187.910519 
Q 122.920354 187.187725 122.920354 185.951658 
Q 122.920354 184.711157 128.286397 183.989471 
Q 133.652439 183.266677 142.840113 183.266677 
Q 145.921056 183.266677 148.749851 183.364232 
Q 151.578646 183.460679 154.19469 183.651354 
L 154.19469 184.721134 
Q 151.555007 184.468378 148.99412 184.350868 
Q 146.433234 184.233359 143.604439 184.233359 
Q 138.529943 184.233359 135.622352 184.691202 
Q 132.72264 185.147937 132.72264 185.951658 
Q 132.72264 186.752053 135.622352 187.209896 
Q 138.529943 187.666631 143.604439 187.666631 
Q 146.433234 187.666631 148.99412 187.549122 
Q 151.555007 187.430504 154.19469 187.177747 
L 154.19469 188.248636 
z
" clip-path="url(#p7ca452f253)" style="fill: #0000ff"/>
   </g>
   <g id="patch_9">
    <path d="M 122.920354 175.472801 
L 154.19469 175.472801 
L 154.19469 176.992824 
L 142.943202 176.992824 
L 142.943202 183.266677 
L 134.193661 183.266677 
L 134.193661 176.992824 
L 122.920354 176.992824 
L 122.920354 175.472801 
z
" clip-path="url(#p7ca452f253)" style="fill: #ff0000"/>
   </g>
   <g id="patch_10">
    <path d="M 187.115044 192.017132 
Q 184.499 192.127603 181.670205 192.18348 
Q 178.84141 192.24 175.760467 192.24 
Q 166.572793 192.24 161.206751 191.82124 
Q 155.840708 191.40248 155.840708 190.686349 
Q 155.840708 189.967648 161.206751 189.54953 
Q 166.572793 189.13077 175.760467 189.13077 
Q 178.84141 189.13077 181.670205 189.18729 
Q 184.499 189.243167 187.115044 189.353638 
L 187.115044 189.973429 
Q 184.475361 189.826991 181.914474 189.75891 
Q 179.353588 189.69083 176.524793 189.69083 
Q 171.450297 189.69083 168.542706 189.956087 
Q 165.642994 190.220703 165.642994 190.686349 
Q 165.642994 191.150068 168.542706 191.415325 
Q 171.450297 191.67994 176.524793 191.67994 
Q 179.353588 191.67994 181.914474 191.61186 
Q 184.475361 191.543137 187.115044 191.396699 
L 187.115044 192.017132 
z
" clip-path="url(#p7ca452f253)" style="fill: #0000ff"/>
   </g>
   <g id="patch_11">
    <path d="M 177.504468 188.179949 
L 165.476861 188.179949 
L 163.577765 189.13077 
L 155.840708 189.13077 
L 166.889993 183.911319 
L 176.065759 183.911319 
L 187.115044 189.13077 
L 179.384381 189.13077 
L 177.504468 188.179949 
z
M 167.39514 187.211229 
L 175.567007 187.211229 
L 171.487467 185.135083 
L 167.39514 187.211229 
z
" clip-path="url(#p7ca452f253)" style="fill: #008000"/>
   </g>
   <g id="patch_12">
    <path d="M 187.115044 181.465479 
Q 183.960976 182.688399 180.568601 183.302651 
Q 177.176226 183.911319 173.559561 183.911319 
Q 165.38702 183.911319 160.613864 180.270479 
Q 155.840708 176.629639 155.840708 170.403355 
Q 155.840708 164.104477 160.697973 160.491557 
Q 165.562246 156.878638 174.022158 156.878638 
Q 177.281361 156.878638 180.267212 157.370039 
Q 183.260072 157.855857 185.909489 158.816324 
L 185.909489 164.204991 
Q 183.175964 162.970903 180.470474 162.362235 
Q 177.764985 161.747982 175.045477 161.747982 
Q 170.012987 161.747982 167.28647 163.992795 
Q 164.559954 166.232024 164.559954 170.403355 
Q 164.559954 174.535597 167.188344 176.791578 
Q 169.816734 179.041975 174.652971 179.041975 
Q 175.970671 179.041975 177.099126 178.91354 
Q 178.227582 178.779521 179.124739 178.500316 
L 179.124739 173.441111 
L 173.973094 173.441111 
L 173.973094 168.934733 
L 187.115044 168.934733 
L 187.115044 181.465479 
z
" clip-path="url(#p7ca452f253)" style="fill: #ffa600"/>
   </g>
   <g id="patch_13">
    <path d="M 188.761062 191.371055 
L 220.035398 191.371055 
L 220.035398 191.540523 
L 208.78391 191.540523 
L 208.78391 192.24 
L 200.034369 192.24 
L 200.034369 191.540523 
L 188.761062 191.540523 
L 188.761062 191.371055 
z
" clip-path="url(#p7ca452f253)" style="fill: #ff0000"/>
   </g>
   <g id="patch_14">
    <path d="M 220.035398 190.714799 
Q 216.88133 191.042927 213.488955 191.20774 
Q 210.09658 191.371055 206.479915 191.371055 
Q 198.307374 191.371055 193.534218 190.394163 
Q 188.761062 189.417271 188.761062 187.746667 
Q 188.761062 186.056584 193.618327 185.087184 
Q 198.4826 184.117784 206.942512 184.117784 
Q 210.201715 184.117784 213.187566 184.249634 
Q 216.180426 184.379986 218.829843 184.637694 
L 218.829843 186.083554 
Q 216.096318 185.752429 213.390828 185.589115 
Q 210.685339 185.424302 207.965831 185.424302 
Q 202.933341 185.424302 200.206824 186.026618 
Q 197.480308 186.627437 197.480308 187.746667 
Q 197.480308 188.855409 200.108698 189.460722 
Q 202.737088 190.064537 207.573325 190.064537 
Q 208.891025 190.064537 210.01948 190.030076 
Q 211.147936 189.994117 212.045093 189.919202 
L 212.045093 188.561742 
L 206.893448 188.561742 
L 206.893448 187.352614 
L 220.035398 187.352614 
L 220.035398 190.714799 
z
" clip-path="url(#p7ca452f253)" style="fill: #ffa600"/>
   </g>
   <g id="patch_15">
    <path d="M 210.424822 176.969661 
L 198.397215 176.969661 
L 196.498119 184.117784 
L 188.761062 184.117784 
L 199.810347 144.878794 
L 208.986113 144.878794 
L 220.035398 184.117784 
L 212.304735 184.117784 
L 210.424822 176.969661 
z
M 200.315494 169.686985 
L 208.487361 169.686985 
L 204.407821 154.078849 
L 200.315494 169.686985 
z
" clip-path="url(#p7ca452f253)" style="fill: #008000"/>
   </g>
   <g id="patch_16">
    <path d="M 252.955752 192.148406 
Q 249.801684 192.194203 246.409309 192.217206 
Q 243.016934 192.24 239.400269 192.24 
Q 231.227728 192.24 226.454572 192.103655 
Q 221.681416 191.96731 221.681416 191.734143 
Q 221.681416 191.498257 226.538681 191.362958 
Q 231.402954 191.227658 239.862866 191.227658 
Q 243.122069 191.227658 246.10792 191.24606 
Q 249.10078 191.264254 251.750197 191.300222 
L 251.750197 191.502021 
Q 249.016672 191.455806 246.311182 191.433012 
Q 243.605693 191.410009 240.886185 191.410009 
Q 235.853695 191.410009 233.127178 191.494075 
Q 230.400662 191.577931 230.400662 191.734143 
Q 230.400662 191.88889 233.029052 191.973374 
Q 235.657442 192.057649 240.493679 192.057649 
Q 241.811379 192.057649 242.939834 192.052839 
Q 244.06829 192.04782 244.965447 192.037364 
L 244.965447 191.847903 
L 239.813802 191.847903 
L 239.813802 191.679145 
L 252.955752 191.679145 
L 252.955752 192.148406 
z
" clip-path="url(#p7ca452f253)" style="fill: #ffa600"/>
   </g>
   <g id="patch_17">
    <path d="M 243.345176 174.810999 
L 231.317569 174.810999 
L 229.418473 191.227658 
L 221.681416 191.227658 
L 232.730701 101.109857 
L 241.906467 101.109857 
L 252.955752 191.227658 
L 245.225089 191.227658 
L 243.345176 174.810999 
z
M 233.235848 158.085321 
L 241.407715 158.085321 
L 237.328175 122.239063 
L 233.235848 158.085321 
z
" clip-path="url(#p7ca452f253)" style="fill: #008000"/>
   </g>
   <g id="patch_18">
    <path d="M 285.876106 192.077162 
Q 283.260062 192.157877 280.431267 192.198704 
Q 277.602472 192.24 274.521529 192.24 
Q 265.333855 192.24 259.967812 191.934033 
Q 254.60177 191.628066 254.60177 191.104826 
Q 254.60177 190.579708 259.967812 190.27421 
Q 265.333855 189.968243 274.521529 189.968243 
Q 277.602472 189.968243 280.431267 190.00954 
Q 283.260062 190.050366 285.876106 190.131082 
L 285.876106 190.583931 
Q 283.236423 190.476937 280.675536 190.427194 
Q 278.11465 190.377451 275.285855 190.377451 
Q 270.211359 190.377451 267.303768 190.571261 
Q 264.404056 190.764602 264.404056 191.104826 
Q 264.404056 191.443642 267.303768 191.637452 
Q 270.211359 191.830793 275.285855 191.830793 
Q 278.11465 191.830793 280.675536 191.78105 
Q 283.236423 191.730837 285.876106 191.623843 
L 285.876106 192.077162 
z
" clip-path="url(#p7ca452f253)" style="fill: #0000ff"/>
   </g>
   <g id="patch_19">
    <path d="M 254.60177 187.563091 
L 285.876106 187.563091 
L 285.876106 188.032163 
L 274.624618 188.032163 
L 274.624618 189.968243 
L 265.875077 189.968243 
L 265.875077 188.032163 
L 254.60177 188.032163 
L 254.60177 187.563091 
z
" clip-path="url(#p7ca452f253)" style="fill: #ff0000"/>
   </g>
   <g id="patch_20">
    <path d="M 276.26553 168.474561 
L 264.237923 168.474561 
L 262.338827 187.563091 
L 254.60177 187.563091 
L 265.651055 82.778288 
L 274.826821 82.778288 
L 285.876106 187.563091 
L 278.145443 187.563091 
L 276.26553 168.474561 
z
M 266.156202 149.026717 
L 274.328069 149.026717 
L 270.248529 107.346349 
L 266.156202 149.026717 
z
" clip-path="url(#p7ca452f253)" style="fill: #008000"/>
   </g>
   <g id="patch_21">
    <path d="M 309.185884 192.209508 
L 297.158277 192.209508 
L 295.259181 192.24 
L 287.522124 192.24 
L 298.571409 192.072619 
L 307.747175 192.072619 
L 318.79646 192.24 
L 311.065797 192.24 
L 309.185884 192.209508 
z
M 299.076556 192.178443 
L 307.248423 192.178443 
L 303.168883 192.111864 
L 299.076556 192.178443 
z
" clip-path="url(#p7ca452f253)" style="fill: #008000"/>
   </g>
   <g id="patch_22">
    <path d="M 318.79646 191.713609 
Q 315.642392 191.893114 312.250017 191.983277 
Q 308.857642 192.072619 305.240977 192.072619 
Q 297.068436 192.072619 292.29528 191.538203 
Q 287.522124 191.003786 287.522124 190.089868 
Q 287.522124 189.165295 292.379389 188.634977 
Q 297.243662 188.104658 305.703574 188.104658 
Q 308.962777 188.104658 311.948628 188.176788 
Q 314.941488 188.248098 317.590905 188.38908 
L 317.590905 189.180049 
Q 314.85738 188.998905 312.15189 188.909562 
Q 309.446401 188.8194 306.726893 188.8194 
Q 301.694403 188.8194 298.967886 189.148902 
Q 296.24137 189.477584 296.24137 190.089868 
Q 296.24137 190.696415 298.86976 191.027556 
Q 301.49815 191.357878 306.334387 191.357878 
Q 307.652087 191.357878 308.780542 191.339026 
Q 309.908998 191.319354 310.806155 191.278371 
L 310.806155 190.535762 
L 305.65451 190.535762 
L 305.65451 189.874298 
L 318.79646 189.874298 
L 318.79646 191.713609 
z
" clip-path="url(#p7ca452f253)" style="fill: #ffa600"/>
   </g>
   <g id="patch_23">
    <path d="M 318.79646 185.953179 
Q 316.180416 187.019619 313.351621 187.559038 
Q 310.522826 188.104658 307.441883 188.104658 
Q 298.254209 188.104658 292.888166 184.06211 
Q 287.522124 180.019561 287.522124 173.106307 
Q 287.522124 166.168252 292.888166 162.131903 
Q 298.254209 158.089354 307.441883 158.089354 
Q 310.522826 158.089354 313.351621 158.634974 
Q 316.180416 159.174394 318.79646 160.240834 
L 318.79646 166.224054 
Q 316.156777 164.810402 313.59589 164.153177 
Q 311.035004 163.495953 308.206209 163.495953 
Q 303.131713 163.495953 300.224122 166.056647 
Q 297.32441 168.611141 297.32441 173.106307 
Q 297.32441 177.582871 300.224122 180.143566 
Q 303.131713 182.69806 308.206209 182.69806 
Q 311.035004 182.69806 313.59589 182.040835 
Q 316.156777 181.377411 318.79646 179.963759 
L 318.79646 185.953179 
z
" clip-path="url(#p7ca452f253)" style="fill: #0000ff"/>
   </g>
   <g id="patch_24">
    <path d="M 351.716814 191.479929 
Q 348.562746 191.859964 345.170371 192.05085 
Q 341.777996 192.24 338.161331 192.24 
Q 329.98879 192.24 325.215634 191.108569 
Q 320.442478 189.977139 320.442478 188.042254 
Q 320.442478 186.084809 325.299743 184.962055 
Q 330.164016 183.839301 338.623928 183.839301 
Q 341.883131 183.839301 344.868982 183.99201 
Q 347.861842 184.142983 350.511259 184.441458 
L 350.511259 186.116045 
Q 347.777734 185.732539 345.072244 185.543389 
Q 342.366755 185.352503 339.647247 185.352503 
Q 334.614757 185.352503 331.88824 186.050103 
Q 329.161724 186.745967 329.161724 188.042254 
Q 329.161724 189.326393 331.790114 190.027463 
Q 334.418504 190.726798 339.254741 190.726798 
Q 340.572441 190.726798 341.700896 190.686886 
Q 342.829351 190.645238 343.726509 190.558472 
L 343.726509 188.986269 
L 338.574864 188.986269 
L 338.574864 187.585864 
L 351.716814 187.585864 
L 351.716814 191.479929 
z
" clip-path="url(#p7ca452f253)" style="fill: #ffa600"/>
   </g>
   <g id="patch_25">
    <path d="M 351.716814 182.483907 
Q 349.10077 183.155745 346.271975 183.49557 
Q 343.44318 183.839301 340.362237 183.839301 
Q 331.174563 183.839301 325.80852 181.292565 
Q 320.442478 178.745829 320.442478 174.390598 
Q 320.442478 170.019743 325.80852 167.476913 
Q 331.174563 164.930177 340.362237 164.930177 
Q 343.44318 164.930177 346.271975 165.273908 
Q 349.10077 165.613734 351.716814 166.285572 
L 351.716814 170.054897 
Q 349.077131 169.164321 346.516244 168.750281 
Q 343.955358 168.336241 341.126563 168.336241 
Q 336.052067 168.336241 333.144476 169.949434 
Q 330.244764 171.558722 330.244764 174.390598 
Q 330.244764 177.210757 333.144476 178.82395 
Q 336.052067 180.433237 341.126563 180.433237 
Q 343.955358 180.433237 346.516244 180.019197 
Q 349.077131 179.601251 351.716814 178.710675 
L 351.716814 182.483907 
z
" clip-path="url(#p7ca452f253)" style="fill: #0000ff"/>
   </g>
   <g id="patch_26">
    <path d="M 320.442478 114.049082 
L 351.716814 114.049082 
L 351.716814 123.972313 
L 340.465326 123.972313 
L 340.465326 164.930177 
L 331.715785 164.930177 
L 331.715785 123.972313 
L 320.442478 123.972313 
L 320.442478 114.049082 
z
" clip-path="url(#p7ca452f253)" style="fill: #ff0000"/>
   </g>
   <g id="patch_27">
    <path d="M 375.026592 191.811618 
L 362.998985 191.811618 
L 361.099889 192.24 
L 353.362832 192.24 
L 364.412117 189.888436 
L 373.587883 189.888436 
L 384.637168 192.24 
L 376.906505 192.24 
L 375.026592 191.811618 
z
M 364.917264 191.375173 
L 373.089131 191.375173 
L 369.009591 190.439789 
L 364.917264 191.375173 
z
" clip-path="url(#p7ca452f253)" style="fill: #008000"/>
   </g>
   <g id="patch_28">
    <path d="M 384.637168 175.053036 
Q 381.4831 182.470736 378.090725 186.196522 
Q 374.698349 189.888436 371.081685 189.888436 
Q 362.909144 189.888436 358.135988 167.804689 
Q 353.362832 145.720942 353.362832 107.955024 
Q 353.362832 69.748787 358.220097 47.834393 
Q 363.08437 25.92 371.544282 25.92 
Q 374.803485 25.92 377.789336 28.900628 
Q 380.782196 31.847386 383.431613 37.67316 
L 383.431613 70.358461 
Q 380.698088 62.873019 377.992598 59.181104 
Q 375.287109 55.455318 372.567601 55.455318 
Q 367.535111 55.455318 364.808594 69.071371 
Q 362.082078 82.653553 362.082078 107.955024 
Q 362.082078 133.0194 364.710468 146.703194 
Q 367.338858 160.353118 372.175095 160.353118 
Q 373.492795 160.353118 374.62125 159.57409 
Q 375.749705 158.761191 376.646863 157.067653 
L 376.646863 126.380728 
L 371.495218 126.380728 
L 371.495218 99.04701 
L 384.637168 99.04701 
L 384.637168 175.053036 
z
" clip-path="url(#p7ca452f253)" style="fill: #ffa600"/>
   </g>
   <g id="patch_29">
    <path d="M 417.557522 192.210354 
Q 414.403454 192.225177 411.011079 192.232622 
Q 407.618703 192.24 404.002039 192.24 
Q 395.829498 192.24 391.056342 192.195869 
Q 386.283186 192.151738 386.283186 192.076268 
Q 386.283186 191.999918 391.140451 191.956125 
Q 396.004724 191.912332 404.464635 191.912332 
Q 407.723839 191.912332 410.70969 191.918289 
Q 413.70255 191.924177 416.351967 191.935819 
L 416.351967 192.001136 
Q 413.618442 191.986178 410.912952 191.9788 
Q 408.207463 191.971355 405.487955 191.971355 
Q 400.455465 191.971355 397.728948 191.998564 
Q 395.002432 192.025706 395.002432 192.076268 
Q 395.002432 192.126355 397.630822 192.1537 
Q 400.259212 192.180978 405.095449 192.180978 
Q 406.413149 192.180978 407.541604 192.179421 
Q 408.670059 192.177797 409.567217 192.174412 
L 409.567217 192.113089 
L 404.415572 192.113089 
L 404.415572 192.058466 
L 417.557522 192.058466 
L 417.557522 192.210354 
z
" clip-path="url(#p7ca452f253)" style="fill: #ffa600"/>
   </g>
   <g id="patch_30">
    <path d="M 417.557522 191.761271 
Q 414.941478 191.836149 412.112683 191.874023 
Q 409.283888 191.912332 406.202945 191.912332 
Q 397.015271 191.912332 391.649228 191.628494 
Q 386.283186 191.344656 386.283186 190.859258 
Q 386.283186 190.372118 391.649228 190.088716 
Q 397.015271 189.804877 406.202945 189.804877 
Q 409.283888 189.804877 412.112683 189.843187 
Q 414.941478 189.881061 417.557522 189.955939 
L 417.557522 190.376036 
Q 414.917839 190.27678 412.356952 190.230635 
Q 409.796066 190.184489 406.967271 190.184489 
Q 401.892775 190.184489 398.985184 190.364282 
Q 396.085472 190.54364 396.085472 190.859258 
Q 396.085472 191.17357 398.985184 191.353363 
Q 401.892775 191.532721 406.967271 191.532721 
Q 409.796066 191.532721 412.356952 191.486575 
Q 414.917839 191.439994 417.557522 191.340738 
L 417.557522 191.761271 
z
" clip-path="url(#p7ca452f253)" style="fill: #0000ff"/>
   </g>
   <g id="patch_31">
    <path d="M 407.946946 168.987402 
L 395.919339 168.987402 
L 394.020243 189.804877 
L 386.283186 189.804877 
L 397.332471 75.529185 
L 406.508237 75.529185 
L 417.557522 189.804877 
L 409.826859 189.804877 
L 407.946946 168.987402 
z
M 397.837618 147.778069 
L 406.009485 147.778069 
L 401.929945 102.3225 
L 397.837618 147.778069 
z
" clip-path="url(#p7ca452f253)" style="fill: #008000"/>
   </g>
   <g id="patch_32">
    <path d="M 450.477876 192.228661 
Q 447.323808 192.234331 443.931433 192.237178 
Q 440.539057 192.24 436.922393 192.24 
Q 428.749852 192.24 423.976696 192.223122 
Q 419.20354 192.206243 419.20354 192.177379 
Q 419.20354 192.148178 424.060805 192.131429 
Q 428.925078 192.11468 437.384989 192.11468 
Q 440.644193 192.11468 443.630044 192.116958 
Q 446.622904 192.119211 449.272321 192.123663 
L 449.272321 192.148644 
Q 446.538796 192.142923 443.833306 192.140102 
Q 441.127817 192.137254 438.408309 192.137254 
Q 433.375819 192.137254 430.649302 192.147661 
Q 427.922786 192.158041 427.922786 192.177379 
Q 427.922786 192.196535 430.551176 192.206994 
Q 433.179565 192.217426 438.015803 192.217426 
Q 439.333503 192.217426 440.461958 192.216831 
Q 441.590413 192.21621 442.487571 192.214915 
L 442.487571 192.191462 
L 437.335926 192.191462 
L 437.335926 192.170571 
L 450.477876 192.170571 
L 450.477876 192.228661 
z
" clip-path="url(#p7ca452f253)" style="fill: #ffa600"/>
   </g>
   <g id="patch_33">
    <path d="M 440.8673 162.910046 
L 428.839693 162.910046 
L 426.940597 192.11468 
L 419.20354 192.11468 
L 430.252825 31.798416 
L 439.428591 31.798416 
L 450.477876 192.11468 
L 442.747213 192.11468 
L 440.8673 162.910046 
z
M 430.757972 133.155677 
L 438.929839 133.155677 
L 434.850299 69.386499 
L 430.757972 133.155677 
z
" clip-path="url(#p7ca452f253)" style="fill: #008000"/>
   </g>
   <g id="patch_34">
    <path d="M 483.39823 192.231277 
Q 480.782186 192.235601 477.953391 192.237788 
Q 475.124596 192.24 472.043652 192.24 
Q 462.855979 192.24 457.489936 192.223611 
Q 452.123894 192.207221 452.123894 192.179193 
Q 452.123894 192.151065 457.489936 192.134701 
Q 462.855979 192.118311 472.043652 192.118311 
Q 475.124596 192.118311 477.953391 192.120523 
Q 480.782186 192.12271 483.39823 192.127034 
L 483.39823 192.151291 
Q 480.758547 192.14556 478.19766 192.142895 
Q 475.636773 192.140231 472.807979 192.140231 
Q 467.733483 192.140231 464.825892 192.150612 
Q 461.92618 192.160969 461.92618 192.179193 
Q 461.92618 192.197342 464.825892 192.207724 
Q 467.733483 192.21808 472.807979 192.21808 
Q 475.636773 192.21808 478.19766 192.215416 
Q 480.758547 192.212726 483.39823 192.206995 
L 483.39823 192.231277 
z
" clip-path="url(#p7ca452f253)" style="fill: #0000ff"/>
   </g>
   <g id="patch_35">
    <path d="M 473.787654 161.911316 
L 461.760047 161.911316 
L 459.860951 192.118311 
L 452.123894 192.118311 
L 463.173179 26.299676 
L 472.348945 26.299676 
L 483.39823 192.118311 
L 475.667567 192.118311 
L 473.787654 161.911316 
z
M 463.678326 131.135718 
L 471.850193 131.135718 
L 467.770653 65.177855 
L 463.678326 131.135718 
z
" clip-path="url(#p7ca452f253)" style="fill: #008000"/>
   </g>
   <g id="patch_36">
    <path d="M 516.318584 191.518285 
Q 513.164516 191.879142 509.772141 192.060395 
Q 506.379765 192.24 502.763101 192.24 
Q 494.59056 192.24 489.817404 191.165666 
Q 485.044248 190.091332 485.044248 188.25409 
Q 485.044248 186.395426 489.901512 185.329331 
Q 494.765786 184.263236 503.225697 184.263236 
Q 506.484901 184.263236 509.470752 184.408238 
Q 512.463612 184.551593 515.113029 184.835006 
L 515.113029 186.425086 
Q 512.379504 186.060933 509.674014 185.881328 
Q 506.968525 185.700075 504.249017 185.700075 
Q 499.216527 185.700075 496.49001 186.362471 
Q 493.763493 187.023219 493.763493 188.25409 
Q 493.763493 189.473426 496.391883 190.139117 
Q 499.020273 190.803161 503.856511 190.803161 
Q 505.174211 190.803161 506.302666 190.765263 
Q 507.431121 190.725717 508.328279 190.643329 
L 508.328279 189.150466 
L 503.176634 189.150466 
L 503.176634 187.820731 
L 516.318584 187.820731 
L 516.318584 191.518285 
z
" clip-path="url(#p7ca452f253)" style="fill: #ffa600"/>
   </g>
   <g id="patch_37">
    <path d="M 516.318584 180.344727 
Q 513.70254 182.287043 510.873745 183.269493 
Q 508.04495 184.263236 504.964006 184.263236 
Q 495.776333 184.263236 490.41029 176.900504 
Q 485.044248 169.537772 485.044248 156.946596 
Q 485.044248 144.310251 490.41029 136.958811 
Q 495.776333 129.596079 504.964006 129.596079 
Q 508.04495 129.596079 510.873745 130.589822 
Q 513.70254 131.572273 516.318584 133.514588 
L 516.318584 144.411884 
Q 513.678901 141.837186 511.118014 140.640177 
Q 508.557127 139.443169 505.728333 139.443169 
Q 500.653837 139.443169 497.746246 144.106985 
Q 494.846534 148.759509 494.846534 156.946596 
Q 494.846534 165.099806 497.746246 169.763622 
Q 500.653837 174.416146 505.728333 174.416146 
Q 508.557127 174.416146 511.118014 173.219138 
Q 513.678901 172.010837 516.318584 169.436139 
L 516.318584 180.344727 
z
" clip-path="url(#p7ca452f253)" style="fill: #0000ff"/>
   </g>
   <g id="patch_38">
    <path d="M 549.238938 191.145859 
Q 546.622894 191.6882 543.794099 191.962523 
Q 540.965304 192.24 537.88436 192.24 
Q 528.696687 192.24 523.330644 190.18415 
Q 517.964602 188.128299 517.964602 184.612543 
Q 517.964602 181.084174 523.330644 179.031476 
Q 528.696687 176.975626 537.88436 176.975626 
Q 540.965304 176.975626 543.794099 177.253103 
Q 546.622894 177.527426 549.238938 178.069767 
L 549.238938 181.112552 
Q 546.599255 180.393635 544.038368 180.059402 
Q 541.477481 179.725168 538.648687 179.725168 
Q 533.574191 179.725168 530.6666 181.027417 
Q 527.766888 182.326513 527.766888 184.612543 
Q 527.766888 186.889113 530.6666 188.191362 
Q 533.574191 189.490458 538.648687 189.490458 
Q 541.477481 189.490458 544.038368 189.156224 
Q 546.599255 188.818838 549.238938 188.099921 
L 549.238938 191.145859 
z
" clip-path="url(#p7ca452f253)" style="fill: #0000ff"/>
   </g>
   <g id="patch_39">
    <path d="M 517.964602 145.757649 
L 549.238938 145.757649 
L 549.238938 151.846024 
L 537.98745 151.846024 
L 537.98745 176.975626 
L 529.237909 176.975626 
L 529.237909 151.846024 
L 517.964602 151.846024 
L 517.964602 145.757649 
z
" clip-path="url(#p7ca452f253)" style="fill: #ff0000"/>
   </g>
   <g id="patch_40">
    <path d="M 550.884956 191.716602 
L 582.159292 191.716602 
L 582.159292 191.81868 
L 570.907804 191.81868 
L 570.907804 192.24 
L 562.158263 192.24 
L 562.158263 191.81868 
L 550.884956 191.81868 
L 550.884956 191.716602 
z
" clip-path="url(#p7ca452f253)" style="fill: #ff0000"/>
   </g>
   <g id="patch_41">
    <path d="M 572.548716 189.615796 
L 560.521109 189.615796 
L 558.622013 191.716602 
L 550.884956 191.716602 
L 561.934241 180.184414 
L 571.110007 180.184414 
L 582.159292 191.716602 
L 574.428629 191.716602 
L 572.548716 189.615796 
z
M 562.439387 187.475446 
L 570.611255 187.475446 
L 566.531715 182.888274 
L 562.439387 187.475446 
z
" clip-path="url(#p7ca452f253)" style="fill: #008000"/>
   </g>
   <g id="patch_42">
    <path d="M 582.159292 178.442648 
Q 579.005224 179.313531 575.612849 179.75096 
Q 572.220473 180.184414 568.603809 180.184414 
Q 560.431268 180.184414 555.658112 177.591648 
Q 550.884956 174.998882 550.884956 170.564934 
Q 550.884956 166.07929 555.74222 163.506408 
Q 560.606494 160.933525 569.066405 160.933525 
Q 572.325609 160.933525 575.31146 161.283469 
Q 578.30432 161.629436 580.953737 162.313417 
L 580.953737 166.15087 
Q 578.220212 165.272033 575.514722 164.83858 
Q 572.809233 164.40115 570.089725 164.40115 
Q 565.057235 164.40115 562.330718 165.999758 
Q 559.604201 167.594388 559.604201 170.564934 
Q 559.604201 173.507644 562.232591 175.114204 
Q 564.860981 176.716788 569.697219 176.716788 
Q 571.014919 176.716788 572.143374 176.625326 
Q 573.271829 176.529886 574.168986 176.331055 
L 574.168986 172.728223 
L 569.017342 172.728223 
L 569.017342 169.519079 
L 582.159292 169.519079 
L 582.159292 178.442648 
z
" clip-path="url(#p7ca452f253)" style="fill: #ffa600"/>
   </g>
   <g id="patch_43">
    <path d="M 615.079646 192.114964 
Q 611.925578 192.177482 608.533203 192.208884 
Q 605.140827 192.24 601.524163 192.24 
Q 593.351622 192.24 588.578466 192.053873 
Q 583.80531 191.867746 583.80531 191.549445 
Q 583.80531 191.227434 588.662574 191.042734 
Q 593.526848 190.858034 601.986759 190.858034 
Q 605.245963 190.858034 608.231814 190.883155 
Q 611.224674 190.907991 613.874091 190.957092 
L 613.874091 191.232572 
Q 611.140566 191.169483 608.435076 191.138367 
Q 605.729587 191.106965 603.010079 191.106965 
Q 597.977589 191.106965 595.251072 191.221724 
Q 592.524555 191.336198 592.524555 191.549445 
Q 592.524555 191.760694 595.152945 191.876024 
Q 597.781335 191.991069 602.617573 191.991069 
Q 603.935272 191.991069 605.063728 191.984503 
Q 606.192183 191.977652 607.08934 191.963378 
L 607.08934 191.704742 
L 601.937696 191.704742 
L 601.937696 191.474366 
L 615.079646 191.474366 
L 615.079646 192.114964 
z
" clip-path="url(#p7ca452f253)" style="fill: #ffa600"/>
   </g>
   <g id="patch_44">
    <path d="M 615.079646 190.398342 
Q 612.463602 190.626201 609.634807 190.741455 
Q 606.806012 190.858034 603.725068 190.858034 
Q 594.537395 190.858034 589.171352 189.994289 
Q 583.80531 189.130545 583.80531 187.653435 
Q 583.80531 186.171027 589.171352 185.308607 
Q 594.537395 184.444863 603.725068 184.444863 
Q 606.806012 184.444863 609.634807 184.561442 
Q 612.463602 184.676696 615.079646 184.904555 
L 615.079646 186.18295 
Q 612.439963 185.880904 609.879076 185.740479 
Q 607.318189 185.600055 604.489395 185.600055 
Q 599.414899 185.600055 596.507308 186.147181 
Q 593.607596 186.692983 593.607596 187.653435 
Q 593.607596 188.609913 596.507308 189.15704 
Q 599.414899 189.702842 604.489395 189.702842 
Q 607.318189 189.702842 609.879076 189.562417 
Q 612.439963 189.420668 615.079646 189.118622 
L 615.079646 190.398342 
z
" clip-path="url(#p7ca452f253)" style="fill: #0000ff"/>
   </g>
   <g id="patch_45">
    <path d="M 605.46907 182.323243 
L 593.441463 182.323243 
L 591.542367 184.444863 
L 583.80531 184.444863 
L 594.854595 172.798421 
L 604.030361 172.798421 
L 615.079646 184.444863 
L 607.348983 184.444863 
L 605.46907 182.323243 
z
M 595.359741 180.161688 
L 603.531609 180.161688 
L 599.452069 175.52907 
L 595.359741 180.161688 
z
" clip-path="url(#p7ca452f253)" style="fill: #008000"/>
   </g>
   <g id="patch_46">
    <path d="M 648 192.231636 
Q 644.845932 192.235818 641.453557 192.237918 
Q 638.061181 192.24 634.444517 192.24 
Q 626.271976 192.24 621.49882 192.227549 
Q 616.725664 192.215098 616.725664 192.193806 
Q 616.725664 192.172265 621.582928 192.15991 
Q 626.447202 192.147555 634.907113 192.147555 
Q 638.166317 192.147555 641.152168 192.149235 
Q 644.145028 192.150896 646.794445 192.154181 
L 646.794445 192.172609 
Q 644.06092 192.168389 641.35543 192.166307 
Q 638.649941 192.164207 635.930433 192.164207 
Q 630.897943 192.164207 628.171426 192.171883 
Q 625.444909 192.179541 625.444909 192.193806 
Q 625.444909 192.207937 628.073299 192.215652 
Q 630.701689 192.223348 635.537927 192.223348 
Q 636.855626 192.223348 637.984082 192.222909 
Q 639.112537 192.22245 640.009694 192.221496 
L 640.009694 192.204194 
L 634.85805 192.204194 
L 634.85805 192.188784 
L 648 192.188784 
L 648 192.231636 
z
" clip-path="url(#p7ca452f253)" style="fill: #ffa600"/>
   </g>
   <g id="patch_47">
    <path d="M 648 192.06666 
Q 645.383956 192.106758 642.555161 192.127039 
Q 639.726366 192.147555 636.645422 192.147555 
Q 627.457749 192.147555 622.091706 191.995556 
Q 616.725664 191.843558 616.725664 191.583623 
Q 616.725664 191.322755 622.091706 191.17099 
Q 627.457749 191.018992 636.645422 191.018992 
Q 639.726366 191.018992 642.555161 191.039507 
Q 645.383956 191.059789 648 191.099887 
L 648 191.324853 
Q 645.360317 191.2717 642.79943 191.246989 
Q 640.238543 191.222278 637.409749 191.222278 
Q 632.335253 191.222278 629.427662 191.318559 
Q 626.52795 191.414607 626.52795 191.583623 
Q 626.52795 191.75194 629.427662 191.848221 
Q 632.335253 191.944269 637.409749 191.944269 
Q 640.238543 191.944269 642.79943 191.919557 
Q 645.360317 191.894613 648 191.84146 
L 648 192.06666 
z
" clip-path="url(#p7ca452f253)" style="fill: #0000ff"/>
   </g>
   <g id="patch_48">
    <path d="M 616.725664 189.390789 
L 648 189.390789 
L 648 189.708334 
L 636.748512 189.708334 
L 636.748512 191.018992 
L 627.998971 191.018992 
L 627.998971 189.708334 
L 616.725664 189.708334 
L 616.725664 189.390789 
z
" clip-path="url(#p7ca452f253)" style="fill: #ff0000"/>
   </g>
   <g id="patch_49">
    <path d="M 638.389424 186.432316 
L 626.361817 186.432316 
L 624.462721 189.390789 
L 616.725664 189.390789 
L 627.774949 173.15051 
L 636.950715 173.15051 
L 648 189.390789 
L 640.269337 189.390789 
L 638.389424 186.432316 
z
M 628.280095 183.418153 
L 636.451963 183.418153 
L 632.372423 176.958239 
L 628.280095 183.418153 
z
" clip-path="url(#p7ca452f253)" style="fill: #008000"/>
   </g>
   <g id="patch_50">
    <path d="M 144.584114 192.794976 
L 132.556507 192.794976 
L 130.657411 192.24 
L 122.920354 192.24 
L 133.969639 195.286493 
L 143.145405 195.286493 
L 154.19469 192.24 
L 146.464027 192.24 
L 144.584114 192.794976 
z
M 134.474786 193.360399 
L 142.646653 193.360399 
L 138.567114 194.572206 
L 134.474786 193.360399 
z
" clip-path="url(#p7ca452f253)" style="fill: #008000"/>
   </g>
   <g id="patch_51">
    <path d="M 155.840708 192.303767 
L 187.115044 192.303767 
L 187.115044 192.291331 
L 175.863556 192.291331 
L 175.863556 192.24 
L 167.114015 192.24 
L 167.114015 192.291331 
L 155.840708 192.291331 
L 155.840708 192.303767 
z
" clip-path="url(#p7ca452f253)" style="fill: #ff0000"/>
   </g>
   <g id="patch_52">
    <path d="M 220.035398 192.263525 
Q 217.419354 192.251864 214.590559 192.245966 
Q 211.761764 192.24 208.680821 192.24 
Q 199.493147 192.24 194.127105 192.284203 
Q 188.761062 192.328407 188.761062 192.404 
Q 188.761062 192.479864 194.127105 192.524 
Q 199.493147 192.568203 208.680821 192.568203 
Q 211.761764 192.568203 214.590559 192.562237 
Q 217.419354 192.556339 220.035398 192.544678 
L 220.035398 192.479254 
Q 217.395715 192.494712 214.834828 192.501898 
Q 212.273942 192.509084 209.445147 192.509084 
Q 204.370651 192.509084 201.46306 192.481084 
Q 198.563348 192.453152 198.563348 192.404 
Q 198.563348 192.355051 201.46306 192.327051 
Q 204.370651 192.299119 209.445147 192.299119 
Q 212.273942 192.299119 214.834828 192.306305 
Q 217.395715 192.313559 220.035398 192.329017 
L 220.035398 192.263525 
z
" clip-path="url(#p7ca452f253)" style="fill: #0000ff"/>
   </g>
   <g id="patch_53">
    <path d="M 252.955752 192.452255 
Q 250.339708 192.440526 247.510913 192.434593 
Q 244.682118 192.428592 241.601175 192.428592 
Q 232.413501 192.428592 227.047459 192.473054 
Q 221.681416 192.517515 221.681416 192.59355 
Q 221.681416 192.669858 227.047459 192.714251 
Q 232.413501 192.758713 241.601175 192.758713 
Q 244.682118 192.758713 247.510913 192.752712 
Q 250.339708 192.746779 252.955752 192.73505 
L 252.955752 192.669244 
Q 250.316069 192.684792 247.755182 192.69202 
Q 245.194296 192.699249 242.365501 192.699249 
Q 237.291005 192.699249 234.383414 192.671085 
Q 231.483702 192.64299 231.483702 192.59355 
Q 231.483702 192.544315 234.383414 192.516152 
Q 237.291005 192.488056 242.365501 192.488056 
Q 245.194296 192.488056 247.755182 192.495285 
Q 250.316069 192.502581 252.955752 192.518129 
L 252.955752 192.452255 
z
" clip-path="url(#p7ca452f253)" style="fill: #0000ff"/>
   </g>
   <g id="patch_54">
    <path d="M 221.681416 192.428592 
L 252.955752 192.428592 
L 252.955752 192.391812 
L 241.704264 192.391812 
L 241.704264 192.24 
L 232.954723 192.24 
L 232.954723 192.391812 
L 221.681416 192.391812 
L 221.681416 192.428592 
z
" clip-path="url(#p7ca452f253)" style="fill: #ff0000"/>
   </g>
   <g id="patch_55">
    <path d="M 285.876106 192.277155 
Q 282.722038 192.258577 279.329663 192.249246 
Q 275.937288 192.24 272.320623 192.24 
Q 264.148082 192.24 259.374926 192.295308 
Q 254.60177 192.350617 254.60177 192.445201 
Q 254.60177 192.540887 259.459035 192.595772 
Q 264.323308 192.650656 272.78322 192.650656 
Q 276.042423 192.650656 279.028274 192.643191 
Q 282.021134 192.635811 284.670551 192.62122 
L 284.670551 192.53936 
Q 281.937026 192.558108 279.231536 192.567354 
Q 276.526047 192.576685 273.806539 192.576685 
Q 268.774049 192.576685 266.047532 192.542584 
Q 263.321016 192.508568 263.321016 192.445201 
Q 263.321016 192.382427 265.949406 192.348157 
Q 268.577796 192.313971 273.414033 192.313971 
Q 274.731733 192.313971 275.860188 192.315922 
Q 276.988644 192.317958 277.885801 192.322199 
L 277.885801 192.399054 
L 272.734156 192.399054 
L 272.734156 192.467511 
L 285.876106 192.467511 
L 285.876106 192.277155 
z
" clip-path="url(#p7ca452f253)" style="fill: #ffa600"/>
   </g>
   <g id="patch_56">
    <path d="M 287.522124 192.619061 
L 318.79646 192.619061 
L 318.79646 192.545134 
L 307.544972 192.545134 
L 307.544972 192.24 
L 298.795431 192.24 
L 298.795431 192.545134 
L 287.522124 192.545134 
L 287.522124 192.619061 
z
" clip-path="url(#p7ca452f253)" style="fill: #ff0000"/>
   </g>
   <g id="patch_57">
    <path d="M 342.106238 192.677306 
L 330.078631 192.677306 
L 328.179535 192.24 
L 320.442478 192.24 
L 331.491763 194.640552 
L 340.667529 194.640552 
L 351.716814 192.24 
L 343.986151 192.24 
L 342.106238 192.677306 
z
M 331.99691 193.122844 
L 340.168777 193.122844 
L 336.089237 194.077714 
L 331.99691 193.122844 
z
" clip-path="url(#p7ca452f253)" style="fill: #008000"/>
   </g>
   <g id="patch_58">
    <path d="M 483.39823 192.240468 
Q 480.244162 192.240234 476.851787 192.240117 
Q 473.459411 192.24 469.842747 192.24 
Q 461.670206 192.24 456.89705 192.240697 
Q 452.123894 192.241394 452.123894 192.242586 
Q 452.123894 192.243791 456.981158 192.244483 
Q 461.845432 192.245175 470.305343 192.245175 
Q 473.564547 192.245175 476.550398 192.245081 
Q 479.543258 192.244988 482.192675 192.244804 
L 482.192675 192.243772 
Q 479.45915 192.244008 476.75366 192.244125 
Q 474.048171 192.244242 471.328663 192.244242 
Q 466.296173 192.244242 463.569656 192.243813 
Q 460.84314 192.243384 460.84314 192.242586 
Q 460.84314 192.241795 463.471529 192.241363 
Q 466.099919 192.240932 470.936157 192.240932 
Q 472.253857 192.240932 473.382312 192.240957 
Q 474.510767 192.240982 475.407925 192.241036 
L 475.407925 192.242004 
L 470.25628 192.242004 
L 470.25628 192.242867 
L 483.39823 192.242867 
L 483.39823 192.240468 
z
" clip-path="url(#p7ca452f253)" style="fill: #ffa600"/>
   </g>
   <g id="patch_59">
    <path d="M 506.708008 192.257907 
L 494.680401 192.257907 
L 492.781305 192.24 
L 485.044248 192.24 
L 496.093533 192.3383 
L 505.269299 192.3383 
L 516.318584 192.24 
L 508.587921 192.24 
L 506.708008 192.257907 
z
M 496.59868 192.276151 
L 504.770547 192.276151 
L 500.691007 192.315252 
L 496.59868 192.276151 
z
" clip-path="url(#p7ca452f253)" style="fill: #008000"/>
   </g>
   <g id="patch_60">
    <path d="M 485.044248 192.891123 
L 516.318584 192.891123 
L 516.318584 192.783307 
L 505.067096 192.783307 
L 505.067096 192.3383 
L 496.317555 192.3383 
L 496.317555 192.783307 
L 485.044248 192.783307 
L 485.044248 192.891123 
z
" clip-path="url(#p7ca452f253)" style="fill: #ff0000"/>
   </g>
   <g id="patch_61">
    <path d="M 539.628362 192.731082 
L 527.600755 192.731082 
L 525.701659 192.289508 
L 517.964602 192.289508 
L 529.013887 194.71349 
L 538.189653 194.71349 
L 549.238938 192.289508 
L 541.508275 192.289508 
L 539.628362 192.731082 
z
M 529.519034 193.180968 
L 537.690901 193.180968 
L 533.611361 194.145158 
L 529.519034 193.180968 
z
" clip-path="url(#p7ca452f253)" style="fill: #008000"/>
   </g>
   <g id="patch_62">
    <path d="M 549.238938 192.244479 
Q 546.08487 192.24224 542.692495 192.241115 
Q 539.300119 192.24 535.683455 192.24 
Q 527.510914 192.24 522.737758 192.246668 
Q 517.964602 192.253336 517.964602 192.264739 
Q 517.964602 192.276274 522.821866 192.282891 
Q 527.68614 192.289508 536.146051 192.289508 
Q 539.405255 192.289508 542.391106 192.288608 
Q 545.383966 192.287718 548.033383 192.285959 
L 548.033383 192.27609 
Q 545.299858 192.278351 542.594368 192.279465 
Q 539.888879 192.28059 537.169371 192.28059 
Q 532.136881 192.28059 529.410364 192.276479 
Q 526.683847 192.272378 526.683847 192.264739 
Q 526.683847 192.257171 529.312237 192.253039 
Q 531.940627 192.248918 536.776865 192.248918 
Q 538.094565 192.248918 539.22302 192.249153 
Q 540.351475 192.249398 541.248633 192.24991 
L 541.248633 192.259175 
L 536.096988 192.259175 
L 536.096988 192.267428 
L 549.238938 192.267428 
L 549.238938 192.244479 
z
" clip-path="url(#p7ca452f253)" style="fill: #ffa600"/>
   </g>
   <g id="patch_63">
    <path d="M 582.159292 192.330223 
Q 579.543248 192.285502 576.714453 192.262881 
Q 573.885658 192.24 570.804714 192.24 
Q 561.617041 192.24 556.250998 192.409526 
Q 550.884956 192.579052 550.884956 192.868963 
Q 550.884956 193.159913 556.250998 193.32918 
Q 561.617041 193.498706 570.804714 193.498706 
Q 573.885658 193.498706 576.714453 193.475825 
Q 579.543248 193.453204 582.159292 193.408482 
L 582.159292 193.157573 
Q 579.519609 193.216856 576.958722 193.244417 
Q 574.397835 193.271978 571.569041 193.271978 
Q 566.494545 193.271978 563.586954 193.164594 
Q 560.687242 193.05747 560.687242 192.868963 
Q 560.687242 192.681236 563.586954 192.573852 
Q 566.494545 192.466728 571.569041 192.466728 
Q 574.397835 192.466728 576.958722 192.494289 
Q 579.519609 192.52211 582.159292 192.581392 
L 582.159292 192.330223 
z
" clip-path="url(#p7ca452f253)" style="fill: #0000ff"/>
   </g>
   <g id="patch_64">
    <path d="M 583.80531 192.569632 
L 615.079646 192.569632 
L 615.079646 192.505344 
L 603.828158 192.505344 
L 603.828158 192.24 
L 595.078617 192.24 
L 595.078617 192.505344 
L 583.80531 192.505344 
L 583.80531 192.569632 
z
" clip-path="url(#p7ca452f253)" style="fill: #ff0000"/>
   </g>
   <g id="matplotlib.axis_1">
    <g id="xtick_1">
     <g id="line2d_2">
      <defs>
       <path id="mac8214b044" d="M 0 0 
L 0 3.5 
" style="stroke: #000000; stroke-width: 0.8"/>
      </defs>
      <g>
       <use xlink:href="#mac8214b044" x="105.637168" y="192.24" style="stroke: #000000; stroke-width: 0.8"/>
      </g>
     </g>
     <g id="text_1">
      <!-- 0 -->
      <g transform="translate(102.455918 206.838437) scale(0.1 -0.1)">
       <defs>
        <path id="DejaVuSans-30" d="M 2034 4250 
Q 1547 4250 1301 3770 
Q 1056 3291 1056 2328 
Q 1056 1369 1301 889 
Q 1547 409 2034 409 
Q 2525 409 2770 889 
Q 3016 1369 3016 2328 
Q 3016 3291 2770 3770 
Q 2525 4250 2034 4250 
z
M 2034 4750 
Q 2819 4750 3233 4129 
Q 3647 3509 3647 2328 
Q 3647 1150 3233 529 
Q 2819 -91 2034 -91 
Q 1250 -91 836 529 
Q 422 1150 422 2328 
Q 422 3509 836 4129 
Q 1250 4750 2034 4750 
z
" transform="scale(0.015625)"/>
       </defs>
       <use xlink:href="#DejaVuSans-30"/>
      </g>
     </g>
    </g>
    <g id="xtick_2">
     <g id="line2d_3">
      <g>
       <use xlink:href="#mac8214b044" x="171.477876" y="192.24" style="stroke: #000000; stroke-width: 0.8"/>
      </g>
     </g>
     <g id="text_2">
      <!-- 2 -->
      <g transform="translate(168.296626 206.838437) scale(0.1 -0.1)">
       <defs>
        <path id="DejaVuSans-32" d="M 1228 531 
L 3431 531 
L 3431 0 
L 469 0 
L 469 531 
Q 828 903 1448 1529 
Q 2069 2156 2228 2338 
Q 2531 2678 2651 2914 
Q 2772 3150 2772 3378 
Q 2772 3750 2511 3984 
Q 2250 4219 1831 4219 
Q 1534 4219 1204 4116 
Q 875 4013 500 3803 
L 500 4441 
Q 881 4594 1212 4672 
Q 1544 4750 1819 4750 
Q 2544 4750 2975 4387 
Q 3406 4025 3406 3419 
Q 3406 3131 3298 2873 
Q 3191 2616 2906 2266 
Q 2828 2175 2409 1742 
Q 1991 1309 1228 531 
z
" transform="scale(0.015625)"/>
       </defs>
       <use xlink:href="#DejaVuSans-32"/>
      </g>
     </g>
    </g>
    <g id="xtick_3">
     <g id="line2d_4">
      <g>
       <use xlink:href="#mac8214b044" x="237.318584" y="192.24" style="stroke: #000000; stroke-width: 0.8"/>
      </g>
     </g>
     <g id="text_3">
      <!-- 4 -->
      <g transform="translate(234.137334 206.838437) scale(0.1 -0.1)">
       <defs>
        <path id="DejaVuSans-34" d="M 2419 4116 
L 825 1625 
L 2419 1625 
L 2419 4116 
z
M 2253 4666 
L 3047 4666 
L 3047 1625 
L 3713 1625 
L 3713 1100 
L 3047 1100 
L 3047 0 
L 2419 0 
L 2419 1100 
L 313 1100 
L 313 1709 
L 2253 4666 
z
" transform="scale(0.015625)"/>
       </defs>
       <use xlink:href="#DejaVuSans-34"/>
      </g>
     </g>
    </g>
    <g id="xtick_4">
     <g id="line2d_5">
      <g>
       <use xlink:href="#mac8214b044" x="303.159292" y="192.24" style="stroke: #000000; stroke-width: 0.8"/>
      </g>
     </g>
     <g id="text_4">
      <!-- 6 -->
      <g transform="translate(299.978042 206.838437) scale(0.1 -0.1)">
       <defs>
        <path id="DejaVuSans-36" d="M 2113 2584 
Q 1688 2584 1439 2293 
Q 1191 2003 1191 1497 
Q 1191 994 1439 701 
Q 1688 409 2113 409 
Q 2538 409 2786 701 
Q 3034 994 3034 1497 
Q 3034 2003 2786 2293 
Q 2538 2584 2113 2584 
z
M 3366 4563 
L 3366 3988 
Q 3128 4100 2886 4159 
Q 2644 4219 2406 4219 
Q 1781 4219 1451 3797 
Q 1122 3375 1075 2522 
Q 1259 2794 1537 2939 
Q 1816 3084 2150 3084 
Q 2853 3084 3261 2657 
Q 3669 2231 3669 1497 
Q 3669 778 3244 343 
Q 2819 -91 2113 -91 
Q 1303 -91 875 529 
Q 447 1150 447 2328 
Q 447 3434 972 4092 
Q 1497 4750 2381 4750 
Q 2619 4750 2861 4703 
Q 3103 4656 3366 4563 
z
" transform="scale(0.015625)"/>
       </defs>
       <use xlink:href="#DejaVuSans-36"/>
      </g>
     </g>
    </g>
    <g id="xtick_5">
     <g id="line2d_6">
      <g>
       <use xlink:href="#mac8214b044" x="369" y="192.24" style="stroke: #000000; stroke-width: 0.8"/>
      </g>
     </g>
     <g id="text_5">
      <!-- 8 -->
      <g transform="translate(365.81875 206.838437) scale(0.1 -0.1)">
       <defs>
        <path id="DejaVuSans-38" d="M 2034 2216 
Q 1584 2216 1326 1975 
Q 1069 1734 1069 1313 
Q 1069 891 1326 650 
Q 1584 409 2034 409 
Q 2484 409 2743 651 
Q 3003 894 3003 1313 
Q 3003 1734 2745 1975 
Q 2488 2216 2034 2216 
z
M 1403 2484 
Q 997 2584 770 2862 
Q 544 3141 544 3541 
Q 544 4100 942 4425 
Q 1341 4750 2034 4750 
Q 2731 4750 3128 4425 
Q 3525 4100 3525 3541 
Q 3525 3141 3298 2862 
Q 3072 2584 2669 2484 
Q 3125 2378 3379 2068 
Q 3634 1759 3634 1313 
Q 3634 634 3220 271 
Q 2806 -91 2034 -91 
Q 1263 -91 848 271 
Q 434 634 434 1313 
Q 434 1759 690 2068 
Q 947 2378 1403 2484 
z
M 1172 3481 
Q 1172 3119 1398 2916 
Q 1625 2713 2034 2713 
Q 2441 2713 2670 2916 
Q 2900 3119 2900 3481 
Q 2900 3844 2670 4047 
Q 2441 4250 2034 4250 
Q 1625 4250 1398 4047 
Q 1172 3844 1172 3481 
z
" transform="scale(0.015625)"/>
       </defs>
       <use xlink:href="#DejaVuSans-38"/>
      </g>
     </g>
    </g>
    <g id="xtick_6">
     <g id="line2d_7">
      <g>
       <use xlink:href="#mac8214b044" x="434.840708" y="192.24" style="stroke: #000000; stroke-width: 0.8"/>
      </g>
     </g>
     <g id="text_6">
      <!-- 10 -->
      <g transform="translate(428.478208 206.838437) scale(0.1 -0.1)">
       <defs>
        <path id="DejaVuSans-31" d="M 794 531 
L 1825 531 
L 1825 4091 
L 703 3866 
L 703 4441 
L 1819 4666 
L 2450 4666 
L 2450 531 
L 3481 531 
L 3481 0 
L 794 0 
L 794 531 
z
" transform="scale(0.015625)"/>
       </defs>
       <use xlink:href="#DejaVuSans-31"/>
       <use xlink:href="#DejaVuSans-30" x="63.623047"/>
      </g>
     </g>
    </g>
    <g id="xtick_7">
     <g id="line2d_8">
      <g>
       <use xlink:href="#mac8214b044" x="500.681416" y="192.24" style="stroke: #000000; stroke-width: 0.8"/>
      </g>
     </g>
     <g id="text_7">
      <!-- 12 -->
      <g transform="translate(494.318916 206.838437) scale(0.1 -0.1)">
       <use xlink:href="#DejaVuSans-31"/>
       <use xlink:href="#DejaVuSans-32" x="63.623047"/>
      </g>
     </g>
    </g>
    <g id="xtick_8">
     <g id="line2d_9">
      <g>
       <use xlink:href="#mac8214b044" x="566.522124" y="192.24" style="stroke: #000000; stroke-width: 0.8"/>
      </g>
     </g>
     <g id="text_8">
      <!-- 14 -->
      <g transform="translate(560.159624 206.838437) scale(0.1 -0.1)">
       <use xlink:href="#DejaVuSans-31"/>
       <use xlink:href="#DejaVuSans-34" x="63.623047"/>
      </g>
     </g>
    </g>
    <g id="xtick_9">
     <g id="line2d_10">
      <g>
       <use xlink:href="#mac8214b044" x="632.362832" y="192.24" style="stroke: #000000; stroke-width: 0.8"/>
      </g>
     </g>
     <g id="text_9">
      <!-- 16 -->
      <g transform="translate(626.000332 206.838437) scale(0.1 -0.1)">
       <use xlink:href="#DejaVuSans-31"/>
       <use xlink:href="#DejaVuSans-36" x="63.623047"/>
      </g>
     </g>
    </g>
   </g>
   <g id="matplotlib.axis_2">
    <g id="ytick_1">
     <g id="line2d_11">
      <defs>
       <path id="mce85d2d496" d="M 0 0 
L -3.5 0 
" style="stroke: #000000; stroke-width: 0.8"/>
      </defs>
      <g>
       <use xlink:href="#mce85d2d496" x="90" y="192.24" style="stroke: #000000; stroke-width: 0.8"/>
      </g>
     </g>
     <g id="text_10">
      <!-- 0.000 -->
      <g transform="translate(54.371875 196.039219) scale(0.1 -0.1)">
       <defs>
        <path id="DejaVuSans-2e" d="M 684 794 
L 1344 794 
L 1344 0 
L 684 0 
L 684 794 
z
" transform="scale(0.015625)"/>
       </defs>
       <use xlink:href="#DejaVuSans-30"/>
       <use xlink:href="#DejaVuSans-2e" x="63.623047"/>
       <use xlink:href="#DejaVuSans-30" x="95.410156"/>
       <use xlink:href="#DejaVuSans-30" x="159.033203"/>
       <use xlink:href="#DejaVuSans-30" x="222.65625"/>
      </g>
     </g>
    </g>
    <g id="ytick_2">
     <g id="line2d_12">
      <g>
       <use xlink:href="#mce85d2d496" x="90" y="168.952647" style="stroke: #000000; stroke-width: 0.8"/>
      </g>
     </g>
     <g id="text_11">
      <!-- 0.002 -->
      <g transform="translate(54.371875 172.751866) scale(0.1 -0.1)">
       <use xlink:href="#DejaVuSans-30"/>
       <use xlink:href="#DejaVuSans-2e" x="63.623047"/>
       <use xlink:href="#DejaVuSans-30" x="95.410156"/>
       <use xlink:href="#DejaVuSans-30" x="159.033203"/>
       <use xlink:href="#DejaVuSans-32" x="222.65625"/>
      </g>
     </g>
    </g>
    <g id="ytick_3">
     <g id="line2d_13">
      <g>
       <use xlink:href="#mce85d2d496" x="90" y="145.665294" style="stroke: #000000; stroke-width: 0.8"/>
      </g>
     </g>
     <g id="text_12">
      <!-- 0.004 -->
      <g transform="translate(54.371875 149.464512) scale(0.1 -0.1)">
       <use xlink:href="#DejaVuSans-30"/>
       <use xlink:href="#DejaVuSans-2e" x="63.623047"/>
       <use xlink:href="#DejaVuSans-30" x="95.410156"/>
       <use xlink:href="#DejaVuSans-30" x="159.033203"/>
       <use xlink:href="#DejaVuSans-34" x="222.65625"/>
      </g>
     </g>
    </g>
    <g id="ytick_4">
     <g id="line2d_14">
      <g>
       <use xlink:href="#mce85d2d496" x="90" y="122.37794" style="stroke: #000000; stroke-width: 0.8"/>
      </g>
     </g>
     <g id="text_13">
      <!-- 0.006 -->
      <g transform="translate(54.371875 126.177159) scale(0.1 -0.1)">
       <use xlink:href="#DejaVuSans-30"/>
       <use xlink:href="#DejaVuSans-2e" x="63.623047"/>
       <use xlink:href="#DejaVuSans-30" x="95.410156"/>
       <use xlink:href="#DejaVuSans-30" x="159.033203"/>
       <use xlink:href="#DejaVuSans-36" x="222.65625"/>
      </g>
     </g>
    </g>
    <g id="ytick_5">
     <g id="line2d_15">
      <g>
       <use xlink:href="#mce85d2d496" x="90" y="99.090587" style="stroke: #000000; stroke-width: 0.8"/>
      </g>
     </g>
     <g id="text_14">
      <!-- 0.008 -->
      <g transform="translate(54.371875 102.889806) scale(0.1 -0.1)">
       <use xlink:href="#DejaVuSans-30"/>
       <use xlink:href="#DejaVuSans-2e" x="63.623047"/>
       <use xlink:href="#DejaVuSans-30" x="95.410156"/>
       <use xlink:href="#DejaVuSans-30" x="159.033203"/>
       <use xlink:href="#DejaVuSans-38" x="222.65625"/>
      </g>
     </g>
    </g>
    <g id="ytick_6">
     <g id="line2d_16">
      <g>
       <use xlink:href="#mce85d2d496" x="90" y="75.803234" style="stroke: #000000; stroke-width: 0.8"/>
      </g>
     </g>
     <g id="text_15">
      <!-- 0.010 -->
      <g transform="translate(54.371875 79.602453) scale(0.1 -0.1)">
       <use xlink:href="#DejaVuSans-30"/>
       <use xlink:href="#DejaVuSans-2e" x="63.623047"/>
       <use xlink:href="#DejaVuSans-30" x="95.410156"/>
       <use xlink:href="#DejaVuSans-31" x="159.033203"/>
       <use xlink:href="#DejaVuSans-30" x="222.65625"/>
      </g>
     </g>
    </g>
    <g id="ytick_7">
     <g id="line2d_17">
      <g>
       <use xlink:href="#mce85d2d496" x="90" y="52.515881" style="stroke: #000000; stroke-width: 0.8"/>
      </g>
     </g>
     <g id="text_16">
      <!-- 0.012 -->
      <g transform="translate(54.371875 56.315099) scale(0.1 -0.1)">
       <use xlink:href="#DejaVuSans-30"/>
       <use xlink:href="#DejaVuSans-2e" x="63.623047"/>
       <use xlink:href="#DejaVuSans-30" x="95.410156"/>
       <use xlink:href="#DejaVuSans-31" x="159.033203"/>
       <use xlink:href="#DejaVuSans-32" x="222.65625"/>
      </g>
     </g>
    </g>
    <g id="ytick_8">
     <g id="line2d_18">
      <g>
       <use xlink:href="#mce85d2d496" x="90" y="29.228527" style="stroke: #000000; stroke-width: 0.8"/>
      </g>
     </g>
     <g id="text_17">
      <!-- 0.014 -->
      <g transform="translate(54.371875 33.027746) scale(0.1 -0.1)">
       <use xlink:href="#DejaVuSans-30"/>
       <use xlink:href="#DejaVuSans-2e" x="63.623047"/>
       <use xlink:href="#DejaVuSans-30" x="95.410156"/>
       <use xlink:href="#DejaVuSans-31" x="159.033203"/>
       <use xlink:href="#DejaVuSans-34" x="222.65625"/>
      </g>
     </g>
    </g>
   </g>
  </g>
 </g>
 <defs>
  <clipPath id="p7ca452f253">
   <rect x="90" y="25.92" width="558" height="166.32"/>
  </clipPath>
 </defs>
</svg>
