<?xml version="1.0" encoding="utf-8" standalone="no"?>
<!DOCTYPE svg PUBLIC "-//W3C//DTD SVG 1.1//EN"
  "http://www.w3.org/Graphics/SVG/1.1/DTD/svg11.dtd">
<svg xmlns:xlink="http://www.w3.org/1999/xlink" width="720pt" height="216pt" viewBox="0 0 720 216" xmlns="http://www.w3.org/2000/svg" version="1.1">
 <metadata>
  <rdf:RDF xmlns:dc="http://purl.org/dc/elements/1.1/" xmlns:cc="http://creativecommons.org/ns#" xmlns:rdf="http://www.w3.org/1999/02/22-rdf-syntax-ns#">
   <cc:Work>
    <dc:type rdf:resource="http://purl.org/dc/dcmitype/StillImage"/>
    <dc:date>2024-11-23T04:42:03.813934</dc:date>
    <dc:format>image/svg+xml</dc:format>
    <dc:creator>
     <cc:Agent>
      <dc:title>Matplotlib v3.7.2, https://matplotlib.org/</dc:title>
     </cc:Agent>
    </dc:creator>
   </cc:Work>
  </rdf:RDF>
 </metadata>
 <defs>
  <style type="text/css">*{stroke-linejoin: round; stroke-linecap: butt}</style>
 </defs>
 <g id="figure_1">
  <g id="patch_1">
   <path d="M 0 216 
L 720 216 
L 720 0 
L 0 0 
z
" style="fill: #ffffff"/>
  </g>
  <g id="axes_1">
   <g id="patch_2">
    <path d="M 90 192.24 
L 648 192.24 
L 648 25.92 
L 90 25.92 
z
" style="fill: #ffffff"/>
   </g>
   <g id="line2d_1">
    <path d="M 90 192.24 
L 648 192.24 
" clip-path="url(#ped698a768a)" style="fill: none; stroke: #000000; stroke-width: 0.5; stroke-linecap: square"/>
   </g>
   <g id="patch_3">
    <path d="M 107.699499 190.066051 
Q 106.218967 191.143628 104.618029 191.688681 
Q 103.017092 192.24 101.273453 192.24 
Q 96.073751 192.24 93.036876 188.155231 
Q 90 184.070462 90 177.085006 
Q 90 170.07449 93.036876 165.995986 
Q 96.073751 161.911217 101.273453 161.911217 
Q 103.017092 161.911217 104.618029 162.462536 
Q 106.218967 163.007589 107.699499 164.085166 
L 107.699499 170.130875 
Q 106.205588 168.702459 104.756272 168.03837 
Q 103.306955 167.374282 101.706018 167.374282 
Q 98.834142 167.374282 97.18861 169.96172 
Q 95.547538 172.542893 95.547538 177.085006 
Q 95.547538 181.608324 97.18861 184.195762 
Q 98.834142 186.776935 101.706018 186.776935 
Q 103.306955 186.776935 104.756272 186.112847 
Q 106.205588 185.442493 107.699499 184.014077 
L 107.699499 190.066051 
z
" clip-path="url(#ped698a768a)" style="fill: #0000ff"/>
   </g>
   <g id="patch_4">
    <path d="M 90 120.818264 
L 107.699499 120.818264 
L 107.699499 128.832535 
L 101.331796 128.832535 
L 101.331796 161.911217 
L 96.380052 161.911217 
L 96.380052 128.832535 
L 90 128.832535 
L 90 120.818264 
z
" clip-path="url(#ped698a768a)" style="fill: #ff0000"/>
   </g>
   <g id="patch_5">
    <path d="M 107.699499 113.56591 
Q 105.914476 117.192087 103.994584 119.013455 
Q 102.074692 120.818264 100.027865 120.818264 
Q 95.402671 120.818264 92.701335 110.022522 
Q 90 99.226779 90 80.764735 
Q 90 62.087438 92.748936 51.374485 
Q 95.501839 40.661532 100.289668 40.661532 
Q 102.134193 40.661532 103.824015 42.118626 
Q 105.517804 43.559162 107.017224 46.407119 
L 107.017224 62.38548 
Q 105.470203 58.726187 103.93905 56.921378 
Q 102.407896 55.10001 100.868809 55.10001 
Q 98.020705 55.10001 96.477652 61.756281 
Q 94.934598 68.395993 94.934598 80.764735 
Q 94.934598 93.017572 96.422118 99.706958 
Q 97.909637 106.379787 100.646673 106.379787 
Q 101.392416 106.379787 102.031058 105.998955 
Q 102.6697 105.601566 103.17744 104.773672 
L 103.17744 89.772226 
L 100.261901 89.772226 
L 100.261901 76.410011 
L 107.699499 76.410011 
L 107.699499 113.56591 
z
" clip-path="url(#ped698a768a)" style="fill: #ffa600"/>
   </g>
   <g id="patch_6">
    <path d="M 120.89151 190.961498 
L 114.084567 190.961498 
L 113.009787 192.24 
L 108.631052 192.24 
L 114.88432 185.221774 
L 120.077283 185.221774 
L 126.330551 192.24 
L 121.955434 192.24 
L 120.89151 190.961498 
z
M 115.170204 189.658929 
L 119.795017 189.658929 
L 117.48623 186.867282 
L 115.170204 189.658929 
z
" clip-path="url(#ped698a768a)" style="fill: #008000"/>
   </g>
   <g id="patch_7">
    <path d="M 108.631052 160.770557 
L 126.330551 160.770557 
L 126.330551 165.539225 
L 119.962847 165.539225 
L 119.962847 185.221774 
L 115.011104 185.221774 
L 115.011104 165.539225 
L 108.631052 165.539225 
L 108.631052 160.770557 
z
" clip-path="url(#ped698a768a)" style="fill: #ff0000"/>
   </g>
   <g id="patch_8">
    <path d="M 126.330551 158.977226 
Q 124.850018 159.866139 123.249081 160.315764 
Q 121.648144 160.770557 119.904504 160.770557 
Q 114.704803 160.770557 111.667927 157.400956 
Q 108.631052 154.031355 108.631052 148.268924 
Q 108.631052 142.48582 111.667927 139.121387 
Q 114.704803 135.751786 119.904504 135.751786 
Q 121.648144 135.751786 123.249081 136.206579 
Q 124.850018 136.656204 126.330551 137.545117 
L 126.330551 142.532333 
Q 124.83664 141.354006 123.387324 140.806188 
Q 121.938007 140.258369 120.33707 140.258369 
Q 117.465193 140.258369 115.819662 142.392794 
Q 114.178589 144.522051 114.178589 148.268924 
Q 114.178589 152.000292 115.819662 154.134717 
Q 117.465193 156.263974 120.33707 156.263974 
Q 121.938007 156.263974 123.387324 155.716155 
Q 124.83664 155.163169 126.330551 153.984842 
L 126.330551 158.977226 
z
" clip-path="url(#ped698a768a)" style="fill: #0000ff"/>
   </g>
   <g id="patch_9">
    <path d="M 126.330551 128.668278 
Q 124.545527 132.210032 122.625636 133.988996 
Q 120.705744 135.751786 118.658917 135.751786 
Q 114.033723 135.751786 111.332387 125.207386 
Q 108.631052 114.662985 108.631052 96.630767 
Q 108.631052 78.388307 111.379988 67.924769 
Q 114.132891 57.46123 118.92072 57.46123 
Q 120.765244 57.46123 122.455067 58.884401 
Q 124.148856 60.291399 125.648275 63.073051 
L 125.648275 78.67941 
Q 124.101255 75.105311 122.570102 73.34252 
Q 121.038948 71.563557 119.499861 71.563557 
Q 116.651757 71.563557 115.108704 78.064859 
Q 113.56565 84.549989 113.56565 96.630767 
Q 113.56565 108.598338 115.053169 115.131985 
Q 116.540689 121.649459 119.277725 121.649459 
Q 120.023468 121.649459 120.66211 121.277494 
Q 121.300752 120.889357 121.808492 120.080737 
L 121.808492 105.428549 
L 118.892953 105.428549 
L 118.892953 92.377427 
L 126.330551 92.377427 
L 126.330551 128.668278 
z
" clip-path="url(#ped698a768a)" style="fill: #ffa600"/>
   </g>
   <g id="patch_10">
    <path d="M 127.262104 186.102701 
L 144.961603 186.102701 
L 144.961603 187.299645 
L 138.593899 187.299645 
L 138.593899 192.24 
L 133.642156 192.24 
L 133.642156 187.299645 
L 127.262104 187.299645 
L 127.262104 186.102701 
z
" clip-path="url(#ped698a768a)" style="fill: #ff0000"/>
   </g>
   <g id="patch_11">
    <path d="M 144.961603 185.627651 
Q 143.48107 185.863123 141.880133 185.982227 
Q 140.279195 186.102701 138.535556 186.102701 
Q 133.335855 186.102701 130.298979 185.2101 
Q 127.262104 184.317499 127.262104 182.791041 
Q 127.262104 181.259107 130.298979 180.367874 
Q 133.335855 179.475273 138.535556 179.475273 
Q 140.279195 179.475273 141.880133 179.595747 
Q 143.48107 179.714852 144.961603 179.950323 
L 144.961603 181.271428 
Q 143.467692 180.959291 142.018375 180.814175 
Q 140.569059 180.669059 138.968121 180.669059 
Q 136.096245 180.669059 134.450713 181.234464 
Q 132.809641 181.798501 132.809641 182.791041 
Q 132.809641 183.779473 134.450713 184.344879 
Q 136.096245 184.908915 138.968121 184.908915 
Q 140.569059 184.908915 142.018375 184.763799 
Q 143.467692 184.617314 144.961603 184.305177 
L 144.961603 185.627651 
z
" clip-path="url(#ped698a768a)" style="fill: #0000ff"/>
   </g>
   <g id="patch_12">
    <path d="M 144.961603 165.938629 
Q 143.176579 172.706951 141.256687 176.106565 
Q 139.336795 179.475273 137.289969 179.475273 
Q 132.664774 179.475273 129.963439 159.324834 
Q 127.262104 139.174395 127.262104 104.714672 
Q 127.262104 69.853177 130.01104 49.857265 
Q 132.763942 29.861354 137.551772 29.861354 
Q 139.396296 29.861354 141.086118 32.581046 
Q 142.779907 35.269831 144.279327 40.585591 
L 144.279327 70.409477 
Q 142.732307 63.579344 141.201153 60.210635 
Q 139.67 56.811021 138.130913 56.811021 
Q 135.282809 56.811021 133.739755 69.235065 
Q 132.196702 81.628203 132.196702 104.714672 
Q 132.196702 127.584802 133.684221 140.070657 
Q 135.171741 152.525606 137.908777 152.525606 
Q 138.65452 152.525606 139.293162 151.814778 
Q 139.931803 151.073044 140.439543 149.527765 
L 140.439543 121.527308 
L 137.524005 121.527308 
L 137.524005 96.586504 
L 144.961603 96.586504 
L 144.961603 165.938629 
z
" clip-path="url(#ped698a768a)" style="fill: #ffa600"/>
   </g>
   <g id="patch_13">
    <path d="M 158.153614 191.27944 
L 151.346671 191.27944 
L 150.27189 192.24 
L 145.893155 192.24 
L 152.146423 186.967093 
L 157.339386 186.967093 
L 163.592654 192.24 
L 159.217538 192.24 
L 158.153614 191.27944 
z
M 152.432308 190.3008 
L 157.057121 190.3008 
L 154.748333 188.20339 
L 152.432308 190.3008 
z
" clip-path="url(#ped698a768a)" style="fill: #008000"/>
   </g>
   <g id="patch_14">
    <path d="M 163.592654 186.362975 
Q 161.807631 186.665034 159.887739 186.816753 
Q 157.967847 186.967093 155.92102 186.967093 
Q 151.295826 186.967093 148.594491 186.067812 
Q 145.893155 185.168531 145.893155 183.630651 
Q 145.893155 182.07484 148.642091 181.182455 
Q 151.394994 180.29007 156.182824 180.29007 
Q 158.027348 180.29007 159.71717 180.411446 
Q 161.410959 180.531442 162.910379 180.768675 
L 162.910379 182.099666 
Q 161.363358 181.794849 159.832205 181.644509 
Q 158.301052 181.49279 156.761965 181.49279 
Q 153.913861 181.49279 152.370807 182.047254 
Q 150.827753 182.60034 150.827753 183.630651 
Q 150.827753 184.651307 152.315273 185.20853 
Q 153.802792 185.764374 156.539828 185.764374 
Q 157.285572 185.764374 157.924213 185.732651 
Q 158.562855 185.699548 159.070595 185.630585 
L 159.070595 184.380971 
L 156.155057 184.380971 
L 156.155057 183.267904 
L 163.592654 183.267904 
L 163.592654 186.362975 
z
" clip-path="url(#ped698a768a)" style="fill: #ffa600"/>
   </g>
   <g id="patch_15">
    <path d="M 163.592654 170.738459 
Q 162.112122 175.472975 160.511185 177.86776 
Q 158.910247 180.29007 157.166608 180.29007 
Q 151.966906 180.29007 148.930031 162.34295 
Q 145.893155 144.395829 145.893155 113.70405 
Q 145.893155 82.902167 148.930031 64.982573 
Q 151.966906 47.035452 157.166608 47.035452 
Q 158.910247 47.035452 160.511185 49.457763 
Q 162.112122 51.852547 163.592654 56.587064 
L 163.592654 83.149903 
Q 162.098744 76.873916 160.649427 73.956133 
Q 159.200111 71.038349 157.599173 71.038349 
Q 154.727297 71.038349 153.081765 82.406694 
Q 151.440693 93.747513 151.440693 113.70405 
Q 151.440693 133.578009 153.081765 144.946354 
Q 154.727297 156.287173 157.599173 156.287173 
Q 159.200111 156.287173 160.649427 153.369389 
Q 162.098744 150.42408 163.592654 144.148093 
L 163.592654 170.738459 
z
" clip-path="url(#ped698a768a)" style="fill: #0000ff"/>
   </g>
   <g id="patch_16">
    <path d="M 176.784666 190.386278 
L 169.977723 190.386278 
L 168.902942 192.24 
L 164.524207 192.24 
L 170.777475 182.064155 
L 175.970438 182.064155 
L 182.223706 192.24 
L 177.84859 192.24 
L 176.784666 190.386278 
z
M 171.06336 188.497662 
L 175.688172 188.497662 
L 173.379385 184.450005 
L 171.06336 188.497662 
z
" clip-path="url(#ped698a768a)" style="fill: #008000"/>
   </g>
   <g id="patch_17">
    <path d="M 182.223706 180.338006 
Q 180.743174 181.193619 179.142236 181.6264 
Q 177.541299 182.064155 175.79766 182.064155 
Q 170.597958 182.064155 167.561083 178.820786 
Q 164.524207 175.577416 164.524207 170.030857 
Q 164.524207 164.4644 167.561083 161.226005 
Q 170.597958 157.982636 175.79766 157.982636 
Q 177.541299 157.982636 179.142236 158.420391 
Q 180.743174 158.853172 182.223706 159.708785 
L 182.223706 164.50917 
Q 180.729795 163.374986 179.280479 162.84769 
Q 177.831162 162.320393 176.230225 162.320393 
Q 173.358349 162.320393 171.712817 164.374859 
Q 170.071745 166.42435 170.071745 170.030857 
Q 170.071745 173.622441 171.712817 175.676906 
Q 173.358349 177.726397 176.230225 177.726397 
Q 177.831162 177.726397 179.280479 177.199101 
Q 180.729795 176.66683 182.223706 175.532646 
L 182.223706 180.338006 
z
" clip-path="url(#ped698a768a)" style="fill: #0000ff"/>
   </g>
   <g id="patch_18">
    <path d="M 182.223706 155.244244 
Q 180.438683 156.61344 178.518791 157.301164 
Q 176.598899 157.982636 174.552072 157.982636 
Q 169.926878 157.982636 167.225542 153.906308 
Q 164.524207 149.82998 164.524207 142.858959 
Q 164.524207 135.806662 167.273143 131.761594 
Q 170.026046 127.716527 174.813876 127.716527 
Q 176.6584 127.716527 178.348222 128.266706 
Q 180.042011 128.810633 181.541431 129.885983 
L 181.541431 135.919199 
Q 179.99441 134.537499 178.463257 133.856027 
Q 176.932103 133.168303 175.393016 133.168303 
Q 172.544912 133.168303 171.001859 135.681621 
Q 169.458805 138.188688 169.458805 142.858959 
Q 169.458805 147.485466 170.946325 150.011289 
Q 172.433844 152.53086 175.17088 152.53086 
Q 175.916623 152.53086 176.555265 152.387063 
Q 177.193907 152.237014 177.701647 151.924412 
L 177.701647 146.260067 
L 174.786108 146.260067 
L 174.786108 141.214674 
L 182.223706 141.214674 
L 182.223706 155.244244 
z
" clip-path="url(#ped698a768a)" style="fill: #ffa600"/>
   </g>
   <g id="patch_19">
    <path d="M 164.524207 91.863303 
L 182.223706 91.863303 
L 182.223706 98.85568 
L 175.856003 98.85568 
L 175.856003 127.716527 
L 170.904259 127.716527 
L 170.904259 98.85568 
L 164.524207 98.85568 
L 164.524207 91.863303 
z
" clip-path="url(#ped698a768a)" style="fill: #ff0000"/>
   </g>
   <g id="patch_20">
    <path d="M 183.155259 188.636914 
L 200.854758 188.636914 
L 200.854758 189.339617 
L 194.487054 189.339617 
L 194.487054 192.24 
L 189.535311 192.24 
L 189.535311 189.339617 
L 183.155259 189.339617 
L 183.155259 188.636914 
z
" clip-path="url(#ped698a768a)" style="fill: #ff0000"/>
   </g>
   <g id="patch_21">
    <path d="M 195.415717 187.911058 
L 188.608774 187.911058 
L 187.533994 188.636914 
L 183.155259 188.636914 
L 189.408527 184.65239 
L 194.60149 184.65239 
L 200.854758 188.636914 
L 196.479641 188.636914 
L 195.415717 187.911058 
z
M 189.694411 187.171539 
L 194.319224 187.171539 
L 192.010437 185.58661 
L 189.694411 187.171539 
z
" clip-path="url(#ped698a768a)" style="fill: #008000"/>
   </g>
   <g id="patch_22">
    <path d="M 200.854758 183.238048 
Q 199.374225 183.939105 197.773288 184.29371 
Q 196.172351 184.65239 194.428711 184.65239 
Q 189.22901 184.65239 186.192134 181.994893 
Q 183.155259 179.337396 183.155259 174.792749 
Q 183.155259 170.231799 186.192134 167.578378 
Q 189.22901 164.92088 194.428711 164.92088 
Q 196.172351 164.92088 197.773288 165.279561 
Q 199.374225 165.634165 200.854758 166.335223 
L 200.854758 170.268482 
Q 199.360847 169.339173 197.911531 168.907126 
Q 196.462214 168.475079 194.861277 168.475079 
Q 191.9894 168.475079 190.343869 170.158432 
Q 188.702796 171.83771 188.702796 174.792749 
Q 188.702796 177.735561 190.343869 179.418914 
Q 191.9894 181.098192 194.861277 181.098192 
Q 196.462214 181.098192 197.911531 180.666144 
Q 199.360847 180.230021 200.854758 179.300713 
L 200.854758 183.238048 
z
" clip-path="url(#ped698a768a)" style="fill: #0000ff"/>
   </g>
   <g id="patch_23">
    <path d="M 200.854758 155.93696 
Q 199.069734 160.42892 197.149843 162.685156 
Q 195.229951 164.92088 193.183124 164.92088 
Q 188.55793 164.92088 185.856594 151.547557 
Q 183.155259 138.174233 183.155259 115.304209 
Q 183.155259 92.167539 185.904195 78.896771 
Q 188.657098 65.626004 193.444927 65.626004 
Q 195.289451 65.626004 196.979274 67.430992 
Q 198.673063 69.215469 200.172482 72.743401 
L 200.172482 92.536741 
Q 198.625462 88.003758 197.094309 85.768034 
Q 195.563155 83.511798 194.024068 83.511798 
Q 191.175964 83.511798 189.632911 91.757314 
Q 188.089857 99.982318 188.089857 115.304209 
Q 188.089857 130.482521 189.577376 138.769059 
Q 191.064896 147.035085 193.801932 147.035085 
Q 194.547675 147.035085 195.186317 146.563327 
Q 195.824959 146.071058 196.332699 145.045496 
L 196.332699 126.462319 
L 193.41716 126.462319 
L 193.41716 109.909755 
L 200.854758 109.909755 
L 200.854758 155.93696 
z
" clip-path="url(#ped698a768a)" style="fill: #ffa600"/>
   </g>
   <g id="patch_24">
    <path d="M 214.046769 192.043961 
L 207.239826 192.043961 
L 206.165046 192.24 
L 201.786311 192.24 
L 208.039579 191.16386 
L 213.232542 191.16386 
L 219.48581 192.24 
L 215.110693 192.24 
L 214.046769 192.043961 
z
M 208.325463 191.844232 
L 212.950276 191.844232 
L 210.641488 191.416174 
L 208.325463 191.844232 
z
" clip-path="url(#ped698a768a)" style="fill: #008000"/>
   </g>
   <g id="patch_25">
    <path d="M 219.48581 190.932233 
Q 217.700786 191.048047 215.780894 191.106218 
Q 213.861002 191.16386 211.814176 191.16386 
Q 207.188981 191.16386 204.487646 190.819063 
Q 201.786311 190.474266 201.786311 189.88462 
Q 201.786311 189.2881 204.535247 188.945947 
Q 207.288149 188.603793 212.075979 188.603793 
Q 213.920503 188.603793 215.610325 188.650331 
Q 217.304114 188.696339 218.803534 188.787298 
L 218.803534 189.297619 
Q 217.256514 189.180747 215.72536 189.123105 
Q 214.194207 189.064933 212.65512 189.064933 
Q 209.807016 189.064933 208.263962 189.277523 
Q 206.720909 189.489584 206.720909 189.88462 
Q 206.720909 190.275954 208.208428 190.489602 
Q 209.695948 190.70272 212.432984 190.70272 
Q 213.178727 190.70272 213.817369 190.690557 
Q 214.45601 190.677865 214.96375 190.651424 
L 214.96375 190.172304 
L 212.048212 190.172304 
L 212.048212 189.745538 
L 219.48581 189.745538 
L 219.48581 190.932233 
z
" clip-path="url(#ped698a768a)" style="fill: #ffa600"/>
   </g>
   <g id="patch_26">
    <path d="M 201.786311 178.183676 
L 219.48581 178.183676 
L 219.48581 180.215889 
L 213.118106 180.215889 
L 213.118106 188.603793 
L 208.166363 188.603793 
L 208.166363 180.215889 
L 201.786311 180.215889 
L 201.786311 178.183676 
z
" clip-path="url(#ped698a768a)" style="fill: #ff0000"/>
   </g>
   <g id="patch_27">
    <path d="M 219.48581 168.723601 
Q 218.005277 173.412745 216.40434 175.784579 
Q 214.803402 178.183676 213.059763 178.183676 
Q 207.860062 178.183676 204.823186 160.40855 
Q 201.786311 142.633425 201.786311 112.23578 
Q 201.786311 81.729085 204.823186 63.981222 
Q 207.860062 46.206097 213.059763 46.206097 
Q 214.803402 46.206097 216.40434 48.605194 
Q 218.005277 50.977028 219.48581 55.666171 
L 219.48581 81.974447 
Q 217.991899 75.758606 216.542582 72.868785 
Q 215.093266 69.978964 213.492328 69.978964 
Q 210.620452 69.978964 208.97492 81.238361 
Q 207.333848 92.470495 207.333848 112.23578 
Q 207.333848 131.919278 208.97492 143.178674 
Q 210.620452 154.410809 213.492328 154.410809 
Q 215.093266 154.410809 216.542582 151.520988 
Q 217.991899 148.603904 219.48581 142.388063 
L 219.48581 168.723601 
z
" clip-path="url(#ped698a768a)" style="fill: #0000ff"/>
   </g>
   <g id="patch_28">
    <path d="M 232.677821 191.743075 
L 225.870878 191.743075 
L 224.796097 192.24 
L 220.417362 192.24 
L 226.67063 189.512176 
L 231.863593 189.512176 
L 238.116861 192.24 
L 233.741745 192.24 
L 232.677821 191.743075 
z
M 226.956515 191.236797 
L 231.581328 191.236797 
L 229.27254 190.151748 
L 226.956515 191.236797 
z
" clip-path="url(#ped698a768a)" style="fill: #008000"/>
   </g>
   <g id="patch_29">
    <path d="M 220.417362 168.117452 
L 238.116861 168.117452 
L 238.116861 172.290019 
L 231.749158 172.290019 
L 231.749158 189.512176 
L 226.797414 189.512176 
L 226.797414 172.290019 
L 220.417362 172.290019 
L 220.417362 168.117452 
z
" clip-path="url(#ped698a768a)" style="fill: #ff0000"/>
   </g>
   <g id="patch_30">
    <path d="M 238.116861 165.686177 
Q 236.331838 166.901815 234.411946 167.512409 
Q 232.492054 168.117452 230.445227 168.117452 
Q 225.820033 168.117452 223.118698 164.498294 
Q 220.417362 160.879137 220.417362 154.689934 
Q 220.417362 148.428569 223.166298 144.837166 
Q 225.919201 141.245763 230.707031 141.245763 
Q 232.551555 141.245763 234.241377 141.734238 
Q 235.935166 142.217163 237.434586 143.17191 
L 237.434586 148.528485 
Q 235.887565 147.301746 234.356412 146.696703 
Q 232.825259 146.086109 231.286172 146.086109 
Q 228.438068 146.086109 226.895014 148.317552 
Q 225.35196 150.543445 225.35196 154.689934 
Q 225.35196 158.797566 226.83948 161.040112 
Q 228.327 163.277106 231.064035 163.277106 
Q 231.809779 163.277106 232.44842 163.149437 
Q 233.087062 163.016216 233.594802 162.738673 
L 233.594802 157.709599 
L 230.679264 157.709599 
L 230.679264 153.230059 
L 238.116861 153.230059 
L 238.116861 165.686177 
z
" clip-path="url(#ped698a768a)" style="fill: #ffa600"/>
   </g>
   <g id="patch_31">
    <path d="M 238.116861 137.210007 
Q 236.636329 139.210439 235.035392 140.222286 
Q 233.434454 141.245763 231.690815 141.245763 
Q 226.491113 141.245763 223.454238 133.662728 
Q 220.417362 126.079693 220.417362 113.111773 
Q 220.417362 100.097331 223.454238 92.525926 
Q 226.491113 84.942891 231.690815 84.942891 
Q 233.434454 84.942891 235.035392 85.966368 
Q 236.636329 86.978215 238.116861 88.978647 
L 238.116861 100.202005 
Q 236.622951 97.550268 235.173634 96.317444 
Q 233.724318 95.084619 232.12338 95.084619 
Q 229.251504 95.084619 227.605972 99.887983 
Q 225.9649 104.679717 225.9649 113.111773 
Q 225.9649 121.508937 227.605972 126.312302 
Q 229.251504 131.104035 232.12338 131.104035 
Q 233.724318 131.104035 235.173634 129.871211 
Q 236.622951 128.626756 238.116861 125.975019 
L 238.116861 137.210007 
z
" clip-path="url(#ped698a768a)" style="fill: #0000ff"/>
   </g>
   <g id="patch_32">
    <path d="M 251.308873 192.096824 
L 244.50193 192.096824 
L 243.427149 192.24 
L 239.048414 192.24 
L 245.301682 191.454049 
L 250.494645 191.454049 
L 256.747913 192.24 
L 252.372797 192.24 
L 251.308873 192.096824 
z
M 245.587567 191.950953 
L 250.212379 191.950953 
L 247.903592 191.638325 
L 245.587567 191.950953 
z
" clip-path="url(#ped698a768a)" style="fill: #008000"/>
   </g>
   <g id="patch_33">
    <path d="M 239.048414 177.410329 
L 256.747913 177.410329 
L 256.747913 180.149245 
L 250.38021 180.149245 
L 250.38021 191.454049 
L 245.428466 191.454049 
L 245.428466 180.149245 
L 239.048414 180.149245 
L 239.048414 177.410329 
z
" clip-path="url(#ped698a768a)" style="fill: #ff0000"/>
   </g>
   <g id="patch_34">
    <path d="M 256.747913 174.747442 
Q 254.96289 176.078885 253.042998 176.747647 
Q 251.123106 177.410329 249.076279 177.410329 
Q 244.451085 177.410329 241.74975 173.446397 
Q 239.048414 169.482464 239.048414 162.703654 
Q 239.048414 155.845809 241.79735 151.912275 
Q 244.550253 147.978741 249.338083 147.978741 
Q 251.182607 147.978741 252.872429 148.51375 
Q 254.566218 149.04268 256.065638 150.08838 
L 256.065638 155.955242 
Q 254.518617 154.61164 252.987464 153.948958 
Q 251.45631 153.280196 249.917223 153.280196 
Q 247.069119 153.280196 245.526066 155.724216 
Q 243.983012 158.162155 243.983012 162.703654 
Q 243.983012 167.202596 245.470532 169.658774 
Q 246.958051 172.108873 249.695087 172.108873 
Q 250.44083 172.108873 251.079472 171.969041 
Q 251.718114 171.82313 252.225854 171.519147 
L 252.225854 166.010984 
L 249.310315 166.010984 
L 249.310315 161.104706 
L 256.747913 161.104706 
L 256.747913 174.747442 
z
" clip-path="url(#ped698a768a)" style="fill: #ffa600"/>
   </g>
   <g id="patch_35">
    <path d="M 256.747913 142.756149 
Q 255.267381 145.344869 253.666443 146.65428 
Q 252.065506 147.978741 250.321867 147.978741 
Q 245.122165 147.978741 242.08529 138.165687 
Q 239.048414 128.352633 239.048414 111.571107 
Q 239.048414 94.729377 242.08529 84.931374 
Q 245.122165 75.11832 250.321867 75.11832 
Q 252.065506 75.11832 253.666443 76.442781 
Q 255.267381 77.752192 256.747913 80.340912 
L 256.747913 94.864834 
Q 255.254002 91.433275 253.804686 89.837901 
Q 252.355369 88.242527 250.754432 88.242527 
Q 247.882556 88.242527 246.237024 94.458465 
Q 244.595952 100.659352 244.595952 111.571107 
Q 244.595952 122.437709 246.237024 128.653647 
Q 247.882556 134.854534 250.754432 134.854534 
Q 252.355369 134.854534 253.804686 133.25916 
Q 255.254002 131.648735 256.747913 128.217177 
L 256.747913 142.756149 
z
" clip-path="url(#ped698a768a)" style="fill: #0000ff"/>
   </g>
   <g id="patch_36">
    <path d="M 269.939924 191.470968 
L 263.132981 191.470968 
L 262.058201 192.24 
L 257.679466 192.24 
L 263.932734 188.018468 
L 269.125697 188.018468 
L 275.378965 192.24 
L 271.003849 192.24 
L 269.939924 191.470968 
z
M 264.218618 190.68746 
L 268.843431 190.68746 
L 266.534644 189.008257 
L 264.218618 190.68746 
z
" clip-path="url(#ped698a768a)" style="fill: #008000"/>
   </g>
   <g id="patch_37">
    <path d="M 257.679466 170.362292 
L 275.378965 170.362292 
L 275.378965 173.805738 
L 269.011261 173.805738 
L 269.011261 188.018468 
L 264.059518 188.018468 
L 264.059518 173.805738 
L 257.679466 173.805738 
L 257.679466 170.362292 
z
" clip-path="url(#ped698a768a)" style="fill: #ff0000"/>
   </g>
   <g id="patch_38">
    <path d="M 275.378965 168.700546 
Q 273.593941 169.531419 271.67405 169.948752 
Q 269.754158 170.362292 267.707331 170.362292 
Q 263.082137 170.362292 260.380801 167.888642 
Q 257.679466 165.414992 257.679466 161.184748 
Q 257.679466 156.905182 260.428402 154.450501 
Q 263.181305 151.995821 267.969134 151.995821 
Q 269.813659 151.995821 271.503481 152.329688 
Q 273.19727 152.659761 274.696689 153.312319 
L 274.696689 156.973473 
Q 273.149669 156.135011 271.618516 155.721472 
Q 270.087362 155.304138 268.548275 155.304138 
Q 265.700171 155.304138 264.157118 156.829303 
Q 262.614064 158.350673 262.614064 161.184748 
Q 262.614064 163.992264 264.101583 165.525017 
Q 265.589103 167.053975 268.326139 167.053975 
Q 269.071882 167.053975 269.710524 166.966714 
Q 270.349166 166.87566 270.856906 166.685963 
L 270.856906 163.248652 
L 267.941367 163.248652 
L 267.941367 160.186941 
L 275.378965 160.186941 
L 275.378965 168.700546 
z
" clip-path="url(#ped698a768a)" style="fill: #ffa600"/>
   </g>
   <g id="patch_39">
    <path d="M 275.378965 150.586968 
Q 273.898432 151.285304 272.297495 151.638533 
Q 270.696558 151.995821 268.952919 151.995821 
Q 263.753217 151.995821 260.716341 149.348638 
Q 257.679466 146.701454 257.679466 142.174446 
Q 257.679466 137.631197 260.716341 134.988074 
Q 263.753217 132.34089 268.952919 132.34089 
Q 270.696558 132.34089 272.297495 132.698179 
Q 273.898432 133.051407 275.378965 133.749744 
L 275.378965 137.667738 
Q 273.885054 136.742036 272.435738 136.311665 
Q 270.986421 135.881295 269.385484 135.881295 
Q 266.513607 135.881295 264.868076 137.558115 
Q 263.227003 139.230875 263.227003 142.174446 
Q 263.227003 145.105836 264.868076 146.782656 
Q 266.513607 148.455416 269.385484 148.455416 
Q 270.986421 148.455416 272.435738 148.025046 
Q 273.885054 147.590616 275.378965 146.664914 
L 275.378965 150.586968 
z
" clip-path="url(#ped698a768a)" style="fill: #0000ff"/>
   </g>
   <g id="patch_40">
    <path d="M 276.310518 188.262069 
L 294.010017 188.262069 
L 294.010017 189.037876 
L 287.642313 189.037876 
L 287.642313 192.24 
L 282.69057 192.24 
L 282.69057 189.037876 
L 276.310518 189.037876 
L 276.310518 188.262069 
z
" clip-path="url(#ped698a768a)" style="fill: #ff0000"/>
   </g>
   <g id="patch_41">
    <path d="M 294.010017 186.999482 
Q 292.529484 187.625317 290.928547 187.941874 
Q 289.32761 188.262069 287.58397 188.262069 
Q 282.384269 188.262069 279.347393 185.889716 
Q 276.310518 183.517362 276.310518 179.460348 
Q 276.310518 175.388778 279.347393 173.020064 
Q 282.384269 170.647711 287.58397 170.647711 
Q 289.32761 170.647711 290.928547 170.967906 
Q 292.529484 171.284462 294.010017 171.910298 
L 294.010017 175.421526 
Q 292.516106 174.59193 291.066789 174.20624 
Q 289.617473 173.820551 288.016535 173.820551 
Q 285.144659 173.820551 283.499127 175.323284 
Q 281.858055 176.822378 281.858055 179.460348 
Q 281.858055 182.087401 283.499127 183.590134 
Q 285.144659 185.089228 288.016535 185.089228 
Q 289.617473 185.089228 291.066789 184.703539 
Q 292.516106 184.314211 294.010017 183.484615 
L 294.010017 186.999482 
z
" clip-path="url(#ped698a768a)" style="fill: #0000ff"/>
   </g>
   <g id="patch_42">
    <path d="M 294.010017 167.523998 
Q 292.224993 169.085854 290.305101 169.870349 
Q 288.385209 170.647711 286.338383 170.647711 
Q 281.713188 170.647711 279.011853 165.9978 
Q 276.310518 161.34789 276.310518 153.395973 
Q 276.310518 145.351343 279.059454 140.737091 
Q 281.812356 136.12284 286.600186 136.12284 
Q 288.44471 136.12284 290.134532 136.750435 
Q 291.828321 137.370898 293.327741 138.597562 
L 293.327741 145.479714 
Q 291.780721 143.903594 290.249567 143.126232 
Q 288.718414 142.341738 287.179327 142.341738 
Q 284.331223 142.341738 282.788169 145.208707 
Q 281.245116 148.068545 281.245116 153.395973 
Q 281.245116 158.673478 282.732635 161.554711 
Q 284.220155 164.428812 286.957191 164.428812 
Q 287.702934 164.428812 288.341576 164.264782 
Q 288.980217 164.093619 289.487957 163.737031 
L 289.487957 157.275653 
L 286.572419 157.275653 
L 286.572419 151.520319 
L 294.010017 151.520319 
L 294.010017 167.523998 
z
" clip-path="url(#ped698a768a)" style="fill: #ffa600"/>
   </g>
   <g id="patch_43">
    <path d="M 312.641068 192.157363 
Q 310.856045 192.198682 308.936153 192.219435 
Q 307.016261 192.24 304.969434 192.24 
Q 300.34424 192.24 297.642905 192.116988 
Q 294.941569 191.993977 294.941569 191.783612 
Q 294.941569 191.570795 297.690505 191.448726 
Q 300.443408 191.326658 305.231238 191.326658 
Q 307.075762 191.326658 308.765584 191.343261 
Q 310.459373 191.359675 311.958793 191.392126 
L 311.958793 191.574191 
Q 310.411772 191.532495 308.880619 191.51193 
Q 307.349466 191.491177 305.810379 191.491177 
Q 302.962275 191.491177 301.419221 191.567021 
Q 299.876167 191.642677 299.876167 191.783612 
Q 299.876167 191.923226 301.363687 191.999448 
Q 302.851207 192.075482 305.588242 192.075482 
Q 306.333986 192.075482 306.972627 192.071142 
Q 307.611269 192.066614 308.119009 192.057181 
L 308.119009 191.886248 
L 305.203471 191.886248 
L 305.203471 191.733992 
L 312.641068 191.733992 
L 312.641068 192.157363 
z
" clip-path="url(#ped698a768a)" style="fill: #ffa600"/>
   </g>
   <g id="patch_44">
    <path d="M 294.941569 189.345189 
L 312.641068 189.345189 
L 312.641068 189.731631 
L 306.273365 189.731631 
L 306.273365 191.326658 
L 301.321621 191.326658 
L 301.321621 189.731631 
L 294.941569 189.731631 
L 294.941569 189.345189 
z
" clip-path="url(#ped698a768a)" style="fill: #ff0000"/>
   </g>
   <g id="patch_45">
    <path d="M 312.641068 184.240344 
Q 311.160536 186.7707 309.559599 188.050589 
Q 307.958661 189.345189 306.215022 189.345189 
Q 301.01532 189.345189 297.978445 179.753376 
Q 294.941569 170.161563 294.941569 153.758385 
Q 294.941569 137.296362 297.978445 127.719261 
Q 301.01532 118.127447 306.215022 118.127447 
Q 307.958661 118.127447 309.559599 119.422048 
Q 311.160536 120.701937 312.641068 123.232293 
L 312.641068 137.428765 
Q 311.147158 134.074572 309.697841 132.515167 
Q 308.248525 130.955762 306.647587 130.955762 
Q 303.775711 130.955762 302.130179 137.031558 
Q 300.489107 143.092642 300.489107 153.758385 
Q 300.489107 164.379995 302.130179 170.45579 
Q 303.775711 176.516875 306.647587 176.516875 
Q 308.248525 176.516875 309.697841 174.95747 
Q 311.147158 173.383353 312.641068 170.029161 
L 312.641068 184.240344 
z
" clip-path="url(#ped698a768a)" style="fill: #0000ff"/>
   </g>
   <g id="patch_46">
    <path d="M 325.83308 192.071117 
L 319.026137 192.071117 
L 317.951356 192.24 
L 313.572621 192.24 
L 319.825889 191.31293 
L 325.018852 191.31293 
L 331.27212 192.24 
L 326.897004 192.24 
L 325.83308 192.071117 
z
M 320.111774 191.899054 
L 324.736586 191.899054 
L 322.427799 191.530293 
L 320.111774 191.899054 
z
" clip-path="url(#ped698a768a)" style="fill: #008000"/>
   </g>
   <g id="patch_47">
    <path d="M 331.27212 190.571964 
Q 329.791588 190.939244 328.19065 191.12502 
Q 326.589713 191.31293 324.846074 191.31293 
Q 319.646372 191.31293 316.609497 189.920683 
Q 313.572621 188.528436 313.572621 186.147524 
Q 313.572621 183.758069 316.609497 182.367958 
Q 319.646372 180.975711 324.846074 180.975711 
Q 326.589713 180.975711 328.19065 181.163622 
Q 329.791588 181.349397 331.27212 181.716677 
L 331.27212 183.777287 
Q 329.778209 183.290428 328.328893 183.064081 
Q 326.879576 182.837734 325.278639 182.837734 
Q 322.406763 182.837734 320.761231 183.719633 
Q 319.120159 184.599396 319.120159 186.147524 
Q 319.120159 187.689245 320.761231 188.571143 
Q 322.406763 189.450907 325.278639 189.450907 
Q 326.879576 189.450907 328.328893 189.22456 
Q 329.778209 188.996078 331.27212 188.509218 
L 331.27212 190.571964 
z
" clip-path="url(#ped698a768a)" style="fill: #0000ff"/>
   </g>
   <g id="patch_48">
    <path d="M 313.572621 159.147367 
L 331.27212 159.147367 
L 331.27212 163.404502 
L 324.904417 163.404502 
L 324.904417 180.975711 
L 319.952673 180.975711 
L 319.952673 163.404502 
L 313.572621 163.404502 
L 313.572621 159.147367 
z
" clip-path="url(#ped698a768a)" style="fill: #ff0000"/>
   </g>
   <g id="patch_49">
    <path d="M 331.27212 153.930378 
Q 329.487097 156.538872 327.567205 157.849075 
Q 325.647313 159.147367 323.600486 159.147367 
Q 318.975292 159.147367 316.273957 151.381437 
Q 313.572621 143.615508 313.572621 130.334815 
Q 313.572621 116.89928 316.321557 109.192905 
Q 319.07446 101.48653 323.86229 101.48653 
Q 325.706814 101.48653 327.396636 102.534692 
Q 329.090425 103.570944 330.589845 105.619625 
L 330.589845 117.113677 
Q 329.042824 114.48136 327.511671 113.183068 
Q 325.980517 111.872866 324.44143 111.872866 
Q 321.593326 111.872866 320.050273 116.661061 
Q 318.507219 121.437346 318.507219 130.334815 
Q 318.507219 139.148907 319.994739 143.960925 
Q 321.482258 148.761032 324.219294 148.761032 
Q 324.965037 148.761032 325.603679 148.48708 
Q 326.242321 148.201218 326.750061 147.605671 
L 326.750061 136.814364 
L 323.834523 136.814364 
L 323.834523 127.202239 
L 331.27212 127.202239 
L 331.27212 153.930378 
z
" clip-path="url(#ped698a768a)" style="fill: #ffa600"/>
   </g>
   <g id="patch_50">
    <path d="M 332.203673 189.027498 
L 349.903172 189.027498 
L 349.903172 189.654025 
L 343.535468 189.654025 
L 343.535468 192.24 
L 338.583725 192.24 
L 338.583725 189.654025 
L 332.203673 189.654025 
L 332.203673 189.027498 
z
" clip-path="url(#ped698a768a)" style="fill: #ff0000"/>
   </g>
   <g id="patch_51">
    <path d="M 349.903172 187.553985 
Q 348.118149 188.290741 346.198257 188.660802 
Q 344.278365 189.027498 342.231538 189.027498 
Q 337.606344 189.027498 334.905008 186.83405 
Q 332.203673 184.640602 332.203673 180.889538 
Q 332.203673 177.094739 334.952609 174.918112 
Q 337.705512 172.741485 342.493341 172.741485 
Q 344.337866 172.741485 346.027688 173.037533 
Q 347.721477 173.330217 349.220896 173.908857 
L 349.220896 177.155294 
Q 347.673876 176.411809 346.142723 176.045113 
Q 344.611569 175.675053 343.072482 175.675053 
Q 340.224378 175.675053 338.681325 177.027455 
Q 337.138271 178.376492 337.138271 180.889538 
Q 337.138271 183.379033 338.62579 184.738164 
Q 340.11331 186.093929 342.850346 186.093929 
Q 343.596089 186.093929 344.234731 186.016553 
Q 344.873373 185.935813 345.381113 185.767604 
L 345.381113 182.719653 
L 342.465574 182.719653 
L 342.465574 180.004757 
L 349.903172 180.004757 
L 349.903172 187.553985 
z
" clip-path="url(#ped698a768a)" style="fill: #ffa600"/>
   </g>
   <g id="patch_52">
    <path d="M 349.903172 162.169355 
Q 348.422639 167.409719 346.821702 170.060368 
Q 345.220765 172.741485 343.477126 172.741485 
Q 338.277424 172.741485 335.240548 152.876849 
Q 332.203673 133.012213 332.203673 99.041247 
Q 332.203673 64.948413 335.240548 45.114244 
Q 338.277424 25.249608 343.477126 25.249608 
Q 345.220765 25.249608 346.821702 27.930724 
Q 348.422639 30.581374 349.903172 35.821738 
L 349.903172 65.222618 
Q 348.409261 58.276089 346.959945 55.046562 
Q 345.510628 51.817035 343.909691 51.817035 
Q 341.037814 51.817035 339.392283 64.400003 
Q 337.75121 76.952503 337.75121 99.041247 
Q 337.75121 121.03859 339.392283 133.621557 
Q 341.037814 146.174057 343.909691 146.174057 
Q 345.510628 146.174057 346.959945 142.944531 
Q 348.409261 139.684537 349.903172 132.738007 
L 349.903172 162.169355 
z
" clip-path="url(#ped698a768a)" style="fill: #0000ff"/>
   </g>
   <g id="patch_53">
    <path d="M 368.534224 192.075565 
Q 367.053691 192.157071 365.452754 192.198299 
Q 363.851817 192.24 362.108177 192.24 
Q 356.908476 192.24 353.8716 191.931032 
Q 350.834725 191.622064 350.834725 191.093691 
Q 350.834725 190.563422 353.8716 190.254928 
Q 356.908476 189.94596 362.108177 189.94596 
Q 363.851817 189.94596 365.452754 189.987662 
Q 367.053691 190.028889 368.534224 190.110396 
L 368.534224 190.567687 
Q 367.040313 190.459643 365.590996 190.409412 
Q 364.14168 190.359181 362.540743 190.359181 
Q 359.668866 190.359181 358.023334 190.554893 
Q 356.382262 190.75013 356.382262 191.093691 
Q 356.382262 191.43583 358.023334 191.631542 
Q 359.668866 191.826779 362.540743 191.826779 
Q 364.14168 191.826779 365.590996 191.776548 
Q 367.040313 191.725843 368.534224 191.617799 
L 368.534224 192.075565 
z
" clip-path="url(#ped698a768a)" style="fill: #0000ff"/>
   </g>
   <g id="patch_54">
    <path d="M 350.834725 186.527929 
L 368.534224 186.527929 
L 368.534224 187.19454 
L 362.16652 187.19454 
L 362.16652 189.94596 
L 357.214777 189.94596 
L 357.214777 187.19454 
L 350.834725 187.19454 
L 350.834725 186.527929 
z
" clip-path="url(#ped698a768a)" style="fill: #ff0000"/>
   </g>
   <g id="patch_55">
    <path d="M 368.534224 174.751092 
Q 366.7492 180.63951 364.829308 183.597163 
Q 362.909416 186.527929 360.86259 186.527929 
Q 356.237396 186.527929 353.53606 168.997112 
Q 350.834725 151.466296 350.834725 121.486449 
Q 350.834725 91.157061 353.583661 73.760683 
Q 356.336563 56.364305 361.124393 56.364305 
Q 362.968917 56.364305 364.658739 58.730428 
Q 366.352528 61.069663 367.851948 65.694357 
L 367.851948 91.64104 
Q 366.304928 85.698846 364.773774 82.768081 
Q 363.242621 79.810428 361.703534 79.810428 
Q 358.85543 79.810428 357.312376 90.619306 
Q 355.769323 101.401296 355.769323 121.486449 
Q 355.769323 141.383388 357.256842 152.246041 
Q 358.744362 163.081806 361.481398 163.081806 
Q 362.227141 163.081806 362.865783 162.463388 
Q 363.504424 161.818082 364.012164 160.473694 
L 364.012164 136.113388 
L 361.096626 136.113388 
L 361.096626 114.414969 
L 368.534224 114.414969 
L 368.534224 174.751092 
z
" clip-path="url(#ped698a768a)" style="fill: #ffa600"/>
   </g>
   <g id="patch_56">
    <path d="M 381.726235 192.225808 
L 374.919292 192.225808 
L 373.844512 192.24 
L 369.465776 192.24 
L 375.719044 192.162093 
L 380.912007 192.162093 
L 387.165275 192.24 
L 382.790159 192.24 
L 381.726235 192.225808 
z
M 376.004929 192.211349 
L 380.629742 192.211349 
L 378.320954 192.18036 
L 376.004929 192.211349 
z
" clip-path="url(#ped698a768a)" style="fill: #008000"/>
   </g>
   <g id="patch_57">
    <path d="M 369.465776 191.592163 
L 387.165275 191.592163 
L 387.165275 191.703316 
L 380.797572 191.703316 
L 380.797572 192.162093 
L 375.845828 192.162093 
L 375.845828 191.703316 
L 369.465776 191.703316 
L 369.465776 191.592163 
z
" clip-path="url(#ped698a768a)" style="fill: #ff0000"/>
   </g>
   <g id="patch_58">
    <path d="M 387.165275 191.426516 
Q 385.380252 191.50934 383.46036 191.550941 
Q 381.540468 191.592163 379.493641 191.592163 
Q 374.868447 191.592163 372.167112 191.345584 
Q 369.465776 191.099004 369.465776 190.677322 
Q 369.465776 190.250723 372.214712 190.006035 
Q 374.967615 189.761346 379.755445 189.761346 
Q 381.599969 189.761346 383.289791 189.794626 
Q 384.98358 189.827529 386.483 189.892578 
L 386.483 190.257531 
Q 384.93598 190.173951 383.404826 190.132728 
Q 381.873673 190.091127 380.334586 190.091127 
Q 377.486482 190.091127 375.943428 190.24316 
Q 374.400374 190.394814 374.400374 190.677322 
Q 374.400374 190.957182 375.887894 191.109971 
Q 377.375414 191.262382 380.112449 191.262382 
Q 380.858193 191.262382 381.496834 191.253683 
Q 382.135476 191.244607 382.643216 191.225697 
L 382.643216 190.883057 
L 379.727678 190.883057 
L 379.727678 190.577858 
L 387.165275 190.577858 
L 387.165275 191.426516 
z
" clip-path="url(#ped698a768a)" style="fill: #ffa600"/>
   </g>
   <g id="patch_59">
    <path d="M 387.165275 179.289844 
Q 385.684743 184.480329 384.083806 187.105749 
Q 382.482868 189.761346 380.739229 189.761346 
Q 375.539527 189.761346 372.502652 170.085786 
Q 369.465776 150.410226 369.465776 116.762604 
Q 369.465776 82.994274 372.502652 63.348891 
Q 375.539527 43.673331 380.739229 43.673331 
Q 382.482868 43.673331 384.083806 46.328928 
Q 385.684743 48.954348 387.165275 54.144833 
L 387.165275 83.265869 
Q 385.671365 76.385458 384.222048 73.186671 
Q 382.772732 69.987884 381.171794 69.987884 
Q 378.299918 69.987884 376.654386 82.451083 
Q 375.013314 94.884106 375.013314 116.762604 
Q 375.013314 138.550571 376.654386 151.013771 
Q 378.299918 163.446793 381.171794 163.446793 
Q 382.772732 163.446793 384.222048 160.248006 
Q 385.671365 157.019041 387.165275 150.138631 
L 387.165275 179.289844 
z
" clip-path="url(#ped698a768a)" style="fill: #0000ff"/>
   </g>
   <g id="patch_60">
    <path d="M 400.357287 191.507127 
L 393.550344 191.507127 
L 392.475563 192.24 
L 388.096828 192.24 
L 394.350096 188.216961 
L 399.543059 188.216961 
L 405.796327 192.24 
L 401.421211 192.24 
L 400.357287 191.507127 
z
M 394.635981 190.76046 
L 399.260793 190.76046 
L 396.952006 189.160211 
L 394.635981 190.76046 
z
" clip-path="url(#ped698a768a)" style="fill: #008000"/>
   </g>
   <g id="patch_61">
    <path d="M 388.096828 178.366613 
L 405.796327 178.366613 
L 405.796327 180.287705 
L 399.428624 180.287705 
L 399.428624 188.216961 
L 394.47688 188.216961 
L 394.47688 180.287705 
L 388.096828 180.287705 
L 388.096828 178.366613 
z
" clip-path="url(#ped698a768a)" style="fill: #ff0000"/>
   </g>
   <g id="patch_62">
    <path d="M 405.796327 176.533451 
Q 404.011304 177.450032 402.091412 177.910415 
Q 400.17152 178.366613 398.124693 178.366613 
Q 393.499499 178.366613 390.798164 175.637797 
Q 388.096828 172.908982 388.096828 168.242372 
Q 388.096828 163.521354 390.845764 160.813465 
Q 393.598667 158.105576 398.386497 158.105576 
Q 400.231021 158.105576 401.920843 158.473882 
Q 403.614632 158.838004 405.114052 159.557875 
L 405.114052 163.596689 
Q 403.567031 162.671738 402.035878 162.215541 
Q 400.504724 161.755158 398.965637 161.755158 
Q 396.117533 161.755158 394.57448 163.437648 
Q 393.031426 165.115953 393.031426 168.242372 
Q 393.031426 171.339494 394.518946 173.030355 
Q 396.006465 174.717031 398.743501 174.717031 
Q 399.489244 174.717031 400.127886 174.620769 
Q 400.766528 174.520322 401.274268 174.311057 
L 401.274268 170.519175 
L 398.35873 170.519175 
L 398.35873 167.141638 
L 405.796327 167.141638 
L 405.796327 176.533451 
z
" clip-path="url(#ped698a768a)" style="fill: #ffa600"/>
   </g>
   <g id="patch_63">
    <path d="M 405.796327 154.661626 
Q 404.315795 156.368714 402.714857 157.232182 
Q 401.11392 158.105576 399.370281 158.105576 
Q 394.170579 158.105576 391.133704 151.634523 
Q 388.096828 145.163471 388.096828 134.097177 
Q 388.096828 122.991183 391.133704 116.530056 
Q 394.170579 110.059003 399.370281 110.059003 
Q 401.11392 110.059003 402.714857 110.932397 
Q 404.315795 111.795865 405.796327 113.502953 
L 405.796327 123.080508 
Q 404.302416 120.817624 402.8531 119.765582 
Q 401.403783 118.71354 399.802846 118.71354 
Q 396.93097 118.71354 395.285438 122.812535 
Q 393.644366 126.901605 393.644366 134.097177 
Q 393.644366 141.262974 395.285438 145.361969 
Q 396.93097 149.451039 399.802846 149.451039 
Q 401.403783 149.451039 402.8531 148.398997 
Q 404.302416 147.33703 405.796327 145.074147 
L 405.796327 154.661626 
z
" clip-path="url(#ped698a768a)" style="fill: #0000ff"/>
   </g>
   <g id="patch_64">
    <path d="M 424.427379 191.327057 
Q 422.946846 191.779582 421.345909 192.008476 
Q 419.744972 192.24 418.001333 192.24 
Q 412.801631 192.24 409.764755 190.524614 
Q 406.72788 188.809228 406.72788 185.875707 
Q 406.72788 182.931663 409.764755 181.218908 
Q 412.801631 179.503522 418.001333 179.503522 
Q 419.744972 179.503522 421.345909 179.735046 
Q 422.946846 179.96394 424.427379 180.416465 
L 424.427379 182.955341 
Q 422.933468 182.355483 421.484152 182.076601 
Q 420.034835 181.797719 418.433898 181.797719 
Q 415.562021 181.797719 413.91649 182.884306 
Q 412.275417 183.968261 412.275417 185.875707 
Q 412.275417 187.775261 413.91649 188.861847 
Q 415.562021 189.945803 418.433898 189.945803 
Q 420.034835 189.945803 421.484152 189.666921 
Q 422.933468 189.385408 424.427379 188.785549 
L 424.427379 191.327057 
z
" clip-path="url(#ped698a768a)" style="fill: #0000ff"/>
   </g>
   <g id="patch_65">
    <path d="M 424.427379 169.637854 
Q 422.642356 174.570688 420.722464 177.048367 
Q 418.802572 179.503522 416.755745 179.503522 
Q 412.130551 179.503522 409.429215 164.817642 
Q 406.72788 150.131762 406.72788 125.017105 
Q 406.72788 99.609632 409.476816 85.036374 
Q 412.229719 70.463115 417.017548 70.463115 
Q 418.862073 70.463115 420.551895 72.445259 
Q 422.245684 74.404878 423.745103 78.279067 
L 423.745103 100.01507 
Q 422.198083 95.037188 420.66693 92.582033 
Q 419.135776 90.104354 417.596689 90.104354 
Q 414.748585 90.104354 413.205532 99.159145 
Q 411.662478 108.191411 411.662478 125.017105 
Q 411.662478 141.685128 413.149997 150.784968 
Q 414.637517 159.862283 417.374553 159.862283 
Q 418.120296 159.862283 418.758938 159.344223 
Q 419.39758 158.803639 419.90532 157.677421 
L 419.90532 137.270355 
L 416.989781 137.270355 
L 416.989781 119.0932 
L 424.427379 119.0932 
L 424.427379 169.637854 
z
" clip-path="url(#ped698a768a)" style="fill: #ffa600"/>
   </g>
   <g id="patch_66">
    <path d="M 437.61939 192.185878 
L 430.812447 192.185878 
L 429.737667 192.24 
L 425.358932 192.24 
L 431.6122 191.9429 
L 436.805163 191.9429 
L 443.058431 192.24 
L 438.683314 192.24 
L 437.61939 192.185878 
z
M 431.898084 192.130737 
L 436.522897 192.130737 
L 434.214109 192.012559 
L 431.898084 192.130737 
z
" clip-path="url(#ped698a768a)" style="fill: #008000"/>
   </g>
   <g id="patch_67">
    <path d="M 425.358932 191.497941 
L 443.058431 191.497941 
L 443.058431 191.58472 
L 436.690727 191.58472 
L 436.690727 191.9429 
L 431.738984 191.9429 
L 431.738984 191.58472 
L 425.358932 191.58472 
L 425.358932 191.497941 
z
" clip-path="url(#ped698a768a)" style="fill: #ff0000"/>
   </g>
   <g id="patch_68">
    <path d="M 443.058431 190.79638 
Q 441.273407 191.147161 439.353515 191.323352 
Q 437.433623 191.497941 435.386797 191.497941 
Q 430.761603 191.497941 428.060267 190.453609 
Q 425.358932 189.409276 425.358932 187.62334 
Q 425.358932 185.816581 428.107868 184.780258 
Q 430.86077 183.743934 435.6486 183.743934 
Q 437.493124 183.743934 439.182946 183.884887 
Q 440.876735 184.024238 442.376155 184.299737 
L 442.376155 185.845413 
Q 440.829135 185.491429 439.297981 185.31684 
Q 437.766828 185.140649 436.227741 185.140649 
Q 433.379637 185.140649 431.836583 185.784547 
Q 430.29353 186.426843 430.29353 187.62334 
Q 430.29353 188.808625 431.781049 189.455727 
Q 433.268569 190.101227 436.005605 190.101227 
Q 436.751348 190.101227 437.38999 190.064387 
Q 438.028631 190.025945 438.536371 189.945858 
L 438.536371 188.494685 
L 435.620833 188.494685 
L 435.620833 187.202084 
L 443.058431 187.202084 
L 443.058431 190.79638 
z
" clip-path="url(#ped698a768a)" style="fill: #ffa600"/>
   </g>
   <g id="patch_69">
    <path d="M 443.058431 176.16295 
Q 441.577898 179.920671 439.976961 181.821379 
Q 438.376024 183.743934 436.632384 183.743934 
Q 431.432683 183.743934 428.395807 169.499548 
Q 425.358932 155.255162 425.358932 130.895515 
Q 425.358932 106.448478 428.395807 92.22594 
Q 431.432683 77.981554 436.632384 77.981554 
Q 438.376024 77.981554 439.976961 79.904109 
Q 441.577898 81.804817 443.058431 85.562538 
L 443.058431 106.645103 
Q 441.56452 101.663938 440.115203 99.348133 
Q 438.665887 97.032327 437.06495 97.032327 
Q 434.193073 97.032327 432.547541 106.055228 
Q 430.906469 115.056282 430.906469 130.895515 
Q 430.906469 146.669206 432.547541 155.692107 
Q 434.193073 164.69316 437.06495 164.69316 
Q 438.665887 164.69316 440.115203 162.377355 
Q 441.56452 160.039703 443.058431 155.058538 
L 443.058431 176.16295 
z
" clip-path="url(#ped698a768a)" style="fill: #0000ff"/>
   </g>
   <g id="patch_70">
    <path d="M 443.989983 191.148097 
L 461.689482 191.148097 
L 461.689482 191.361049 
L 455.321779 191.361049 
L 455.321779 192.24 
L 450.370035 192.24 
L 450.370035 191.361049 
L 443.989983 191.361049 
L 443.989983 191.148097 
z
" clip-path="url(#ped698a768a)" style="fill: #ff0000"/>
   </g>
   <g id="patch_71">
    <path d="M 461.689482 189.803539 
Q 460.20895 190.470006 458.608013 190.807114 
Q 457.007075 191.148097 455.263436 191.148097 
Q 450.063734 191.148097 447.026859 188.621723 
Q 443.989983 186.095348 443.989983 181.774937 
Q 443.989983 177.439027 447.026859 174.916527 
Q 450.063734 172.390153 455.263436 172.390153 
Q 457.007075 172.390153 458.608013 172.731136 
Q 460.20895 173.068244 461.689482 173.734711 
L 461.689482 177.4739 
Q 460.195572 176.590444 458.746255 176.179715 
Q 457.296939 175.768985 455.696001 175.768985 
Q 452.824125 175.768985 451.178593 177.369281 
Q 449.537521 178.965701 449.537521 181.774937 
Q 449.537521 184.572548 451.178593 186.172844 
Q 452.824125 187.769265 455.696001 187.769265 
Q 457.296939 187.769265 458.746255 187.358535 
Q 460.195572 186.943931 461.689482 186.060475 
L 461.689482 189.803539 
z
" clip-path="url(#ped698a768a)" style="fill: #0000ff"/>
   </g>
   <g id="patch_72">
    <path d="M 461.689482 166.953933 
Q 459.904459 169.672043 457.984567 171.037304 
Q 456.064675 172.390153 454.017848 172.390153 
Q 449.392654 172.390153 446.691319 164.297881 
Q 443.989983 156.205609 443.989983 142.366831 
Q 443.989983 128.366704 446.738919 120.33649 
Q 449.491822 112.306275 454.279652 112.306275 
Q 456.124176 112.306275 457.813998 113.398484 
Q 459.507787 114.478281 461.007207 116.613052 
L 461.007207 128.590111 
Q 459.460187 125.847178 457.929033 124.494329 
Q 456.39788 123.129068 454.858793 123.129068 
Q 452.010689 123.129068 450.467635 128.118475 
Q 448.924581 133.095471 448.924581 142.366831 
Q 448.924581 151.551312 450.412101 156.565541 
Q 451.899621 161.56736 454.636656 161.56736 
Q 455.3824 161.56736 456.021041 161.281896 
Q 456.659683 160.984021 457.167423 160.363448 
L 457.167423 149.118665 
L 454.251885 149.118665 
L 454.251885 139.102617 
L 461.689482 139.102617 
L 461.689482 166.953933 
z
" clip-path="url(#ped698a768a)" style="fill: #ffa600"/>
   </g>
   <g id="patch_73">
    <path d="M 474.881494 192.112773 
L 468.074551 192.112773 
L 466.99977 192.24 
L 462.621035 192.24 
L 468.874303 191.5416 
L 474.067266 191.5416 
L 480.320534 192.24 
L 475.945418 192.24 
L 474.881494 192.112773 
z
M 469.160188 191.983152 
L 473.785 191.983152 
L 471.476213 191.705348 
L 469.160188 191.983152 
z
" clip-path="url(#ped698a768a)" style="fill: #008000"/>
   </g>
   <g id="patch_74">
    <path d="M 480.320534 190.808354 
Q 478.840002 191.171807 477.239064 191.355647 
Q 475.638127 191.5416 473.894488 191.5416 
Q 468.694786 191.5416 465.657911 190.163858 
Q 462.621035 188.786117 462.621035 186.43001 
Q 462.621035 184.06545 465.657911 182.689822 
Q 468.694786 181.31208 473.894488 181.31208 
Q 475.638127 181.31208 477.239064 181.498033 
Q 478.840002 181.681873 480.320534 182.045326 
L 480.320534 184.084468 
Q 478.826623 183.602681 477.377307 183.378692 
Q 475.92799 183.154704 474.327053 183.154704 
Q 471.455177 183.154704 469.809645 184.027414 
Q 468.168573 184.898012 468.168573 186.43001 
Q 468.168573 187.955668 469.809645 188.828379 
Q 471.455177 189.698976 474.327053 189.698976 
Q 475.92799 189.698976 477.377307 189.474987 
Q 478.826623 189.248886 480.320534 188.767099 
L 480.320534 190.808354 
z
" clip-path="url(#ped698a768a)" style="fill: #0000ff"/>
   </g>
   <g id="patch_75">
    <path d="M 480.320534 176.939469 
Q 478.535511 179.125775 476.615619 180.223919 
Q 474.695727 181.31208 472.6489 181.31208 
Q 468.023706 181.31208 465.322371 174.803079 
Q 462.621035 168.294078 462.621035 157.162888 
Q 462.621035 145.901916 465.369971 139.442831 
Q 468.122874 132.983746 472.910704 132.983746 
Q 474.755228 132.983746 476.44505 133.862261 
Q 478.138839 134.730794 479.638259 136.447892 
L 479.638259 146.081613 
Q 478.091238 143.875341 476.560085 142.78718 
Q 475.028931 141.689035 473.489844 141.689035 
Q 470.64174 141.689035 469.098687 145.702254 
Q 467.555633 149.705489 467.555633 157.162888 
Q 467.555633 164.550404 469.043153 168.583589 
Q 470.530672 172.60679 473.267708 172.60679 
Q 474.013451 172.60679 474.652093 172.377178 
Q 475.290735 172.137583 475.798475 171.638427 
L 475.798475 162.593711 
L 472.882937 162.593711 
L 472.882937 154.537324 
L 480.320534 154.537324 
L 480.320534 176.939469 
z
" clip-path="url(#ped698a768a)" style="fill: #ffa600"/>
   </g>
   <g id="patch_76">
    <path d="M 493.512545 191.385314 
L 486.705603 191.385314 
L 485.630822 192.24 
L 481.252087 192.24 
L 487.505355 187.548277 
L 492.698318 187.548277 
L 498.951586 192.24 
L 494.57647 192.24 
L 493.512545 191.385314 
z
M 487.791239 190.51454 
L 492.416052 190.51454 
L 490.107265 188.648308 
L 487.791239 190.51454 
z
" clip-path="url(#ped698a768a)" style="fill: #008000"/>
   </g>
   <g id="patch_77">
    <path d="M 498.951586 186.831007 
Q 497.166563 187.189642 495.246671 187.369778 
Q 493.326779 187.548277 491.279952 187.548277 
Q 486.654758 187.548277 483.953422 186.480559 
Q 481.252087 185.412842 481.252087 183.586913 
Q 481.252087 181.739696 484.001023 180.680166 
Q 486.753926 179.620637 491.541755 179.620637 
Q 493.38628 179.620637 495.076102 179.764746 
Q 496.769891 179.907217 498.26931 180.188885 
L 498.26931 181.769173 
Q 496.72229 181.407262 495.191137 181.228764 
Q 493.659983 181.048627 492.120896 181.048627 
Q 489.272792 181.048627 487.729739 181.706944 
Q 486.186685 182.363623 486.186685 183.586913 
Q 486.186685 184.79874 487.674205 185.460332 
Q 489.161724 186.120286 491.89876 186.120286 
Q 492.644503 186.120286 493.283145 186.082622 
Q 493.921787 186.043319 494.429527 185.961439 
L 494.429527 184.47777 
L 491.513988 184.47777 
L 491.513988 183.156223 
L 498.951586 183.156223 
L 498.951586 186.831007 
z
" clip-path="url(#ped698a768a)" style="fill: #ffa600"/>
   </g>
   <g id="patch_78">
    <path d="M 481.252087 166.971451 
L 498.951586 166.971451 
L 498.951586 169.438395 
L 492.583882 169.438395 
L 492.583882 179.620637 
L 487.632139 179.620637 
L 487.632139 169.438395 
L 481.252087 169.438395 
L 481.252087 166.971451 
z
" clip-path="url(#ped698a768a)" style="fill: #ff0000"/>
   </g>
   <g id="patch_79">
    <path d="M 498.951586 163.945558 
Q 497.471053 165.445424 495.870116 166.204078 
Q 494.269179 166.971451 492.52554 166.971451 
Q 487.325838 166.971451 484.288962 161.285912 
Q 481.252087 155.600372 481.252087 145.877401 
Q 481.252087 136.11955 484.288962 130.442731 
Q 487.325838 124.757191 492.52554 124.757191 
Q 494.269179 124.757191 495.870116 125.524565 
Q 497.471053 126.283218 498.951586 127.783084 
L 498.951586 136.198032 
Q 497.457675 134.209837 496.008359 133.285501 
Q 494.559042 132.361165 492.958105 132.361165 
Q 490.086228 132.361165 488.440697 135.962588 
Q 486.799624 139.555291 486.799624 145.877401 
Q 486.799624 152.173352 488.440697 155.774775 
Q 490.086228 159.367478 492.958105 159.367478 
Q 494.559042 159.367478 496.008359 158.443142 
Q 497.457675 157.510085 498.951586 155.521891 
L 498.951586 163.945558 
z
" clip-path="url(#ped698a768a)" style="fill: #0000ff"/>
   </g>
   <g id="patch_80">
    <path d="M 517.582638 190.659662 
Q 516.102105 191.442999 514.501168 191.839223 
Q 512.900231 192.24 511.156591 192.24 
Q 505.95689 192.24 502.920014 189.270604 
Q 499.883139 186.301207 499.883139 181.223175 
Q 499.883139 176.126925 502.920014 173.162083 
Q 505.95689 170.192687 511.156591 170.192687 
Q 512.900231 170.192687 514.501168 170.593464 
Q 516.102105 170.989687 517.582638 171.773025 
L 517.582638 176.167914 
Q 516.088727 175.129536 514.63941 174.646781 
Q 513.190094 174.164027 511.589157 174.164027 
Q 508.71728 174.164027 507.071748 176.044948 
Q 505.430676 177.921315 505.430676 181.223175 
Q 505.430676 184.511371 507.071748 186.392293 
Q 508.71728 188.26866 511.589157 188.26866 
Q 513.190094 188.26866 514.63941 187.785905 
Q 516.088727 187.298596 517.582638 186.260218 
L 517.582638 190.659662 
z
" clip-path="url(#ped698a768a)" style="fill: #0000ff"/>
   </g>
   <g id="patch_81">
    <path d="M 517.582638 167.833293 
Q 515.797614 169.01299 513.877722 169.605532 
Q 511.957831 170.192687 509.911004 170.192687 
Q 505.28581 170.192687 502.584474 166.68053 
Q 499.883139 163.168373 499.883139 157.162154 
Q 499.883139 151.085908 502.632075 147.600685 
Q 505.384978 144.115462 510.172807 144.115462 
Q 512.017331 144.115462 513.707153 144.589495 
Q 515.400942 145.058142 516.900362 145.984662 
L 516.900362 151.182869 
Q 515.353342 149.992399 513.822188 149.405244 
Q 512.291035 148.812702 510.751948 148.812702 
Q 507.903844 148.812702 506.36079 150.978173 
Q 504.817737 153.138257 504.817737 157.162154 
Q 504.817737 161.148344 506.305256 163.324589 
Q 507.792776 165.495446 510.529812 165.495446 
Q 511.275555 165.495446 511.914197 165.371551 
Q 512.552838 165.242269 513.060578 164.972932 
L 513.060578 160.092543 
L 510.14504 160.092543 
L 510.14504 155.745441 
L 517.582638 155.745441 
L 517.582638 167.833293 
z
" clip-path="url(#ped698a768a)" style="fill: #ffa600"/>
   </g>
   <g id="patch_82">
    <path d="M 530.774649 192.020075 
L 523.967706 192.020075 
L 522.892926 192.24 
L 518.51419 192.24 
L 524.767458 191.032742 
L 529.960421 191.032742 
L 536.213689 192.24 
L 531.838573 192.24 
L 530.774649 192.020075 
z
M 525.053343 191.79601 
L 529.678156 191.79601 
L 527.369368 191.315798 
L 525.053343 191.79601 
z
" clip-path="url(#ped698a768a)" style="fill: #008000"/>
   </g>
   <g id="patch_83">
    <path d="M 518.51419 185.990203 
L 536.213689 185.990203 
L 536.213689 186.973638 
L 529.845986 186.973638 
L 529.845986 191.032742 
L 524.894242 191.032742 
L 524.894242 186.973638 
L 518.51419 186.973638 
L 518.51419 185.990203 
z
" clip-path="url(#ped698a768a)" style="fill: #ff0000"/>
   </g>
   <g id="patch_84">
    <path d="M 536.213689 184.621171 
Q 534.428666 185.305687 532.508774 185.649508 
Q 530.588882 185.990203 528.542055 185.990203 
Q 523.916861 185.990203 521.215526 183.952284 
Q 518.51419 181.914366 518.51419 178.429275 
Q 518.51419 174.903551 521.263126 172.88126 
Q 524.016029 170.85897 528.803859 170.85897 
Q 530.648383 170.85897 532.338205 171.134026 
Q 534.031994 171.405957 535.531414 171.943568 
L 535.531414 174.959812 
Q 533.984394 174.269045 532.45324 173.92835 
Q 530.922087 173.58453 529.383 173.58453 
Q 526.534896 173.58453 524.991842 174.841038 
Q 523.448788 176.09442 523.448788 178.429275 
Q 523.448788 180.74225 524.936308 182.005009 
Q 526.423828 183.264643 529.160864 183.264643 
Q 529.906607 183.264643 530.545248 183.192753 
Q 531.18389 183.117738 531.69163 182.961456 
L 531.69163 180.129624 
L 528.776092 180.129624 
L 528.776092 177.607231 
L 536.213689 177.607231 
L 536.213689 184.621171 
z
" clip-path="url(#ped698a768a)" style="fill: #ffa600"/>
   </g>
   <g id="patch_85">
    <path d="M 536.213689 168.727466 
Q 534.733157 169.784004 533.13222 170.318416 
Q 531.531282 170.85897 529.787643 170.85897 
Q 524.587941 170.85897 521.551066 166.853954 
Q 518.51419 162.848939 518.51419 155.999871 
Q 518.51419 149.126232 521.551066 145.127359 
Q 524.587941 141.122343 529.787643 141.122343 
Q 531.531282 141.122343 533.13222 141.662898 
Q 534.733157 142.197309 536.213689 143.253847 
L 536.213689 149.181516 
Q 534.719779 147.780989 533.270462 147.129867 
Q 531.821146 146.478745 530.220208 146.478745 
Q 527.348332 146.478745 525.7028 149.015664 
Q 524.061728 151.546441 524.061728 155.999871 
Q 524.061728 160.434873 525.7028 162.971792 
Q 527.348332 165.502569 530.220208 165.502569 
Q 531.821146 165.502569 533.270462 164.851446 
Q 534.719779 164.194182 536.213689 162.793655 
L 536.213689 168.727466 
z
" clip-path="url(#ped698a768a)" style="fill: #0000ff"/>
   </g>
   <g id="patch_86">
    <path d="M 537.145242 185.696983 
L 554.844741 185.696983 
L 554.844741 186.973053 
L 548.477038 186.973053 
L 548.477038 192.24 
L 543.525294 192.24 
L 543.525294 186.973053 
L 537.145242 186.973053 
L 537.145242 185.696983 
z
" clip-path="url(#ped698a768a)" style="fill: #ff0000"/>
   </g>
   <g id="patch_87">
    <path d="M 554.844741 182.657056 
Q 553.059718 184.177019 551.139826 184.940471 
Q 549.219934 185.696983 547.173107 185.696983 
Q 542.547913 185.696983 539.846578 181.171795 
Q 537.145242 176.646607 537.145242 168.90798 
Q 537.145242 161.079127 539.894178 156.588642 
Q 542.647081 152.098156 547.434911 152.098156 
Q 549.279435 152.098156 550.969257 152.708918 
Q 552.663046 153.312739 554.162466 154.5065 
L 554.162466 161.204056 
Q 552.615445 159.670211 551.084292 158.9137 
Q 549.553138 158.150248 548.014052 158.150248 
Q 545.165947 158.150248 543.622894 160.940318 
Q 542.07984 163.723447 542.07984 168.90798 
Q 542.07984 174.04393 543.56736 176.847881 
Q 545.054879 179.644891 547.791915 179.644891 
Q 548.537658 179.644891 549.1763 179.48526 
Q 549.814942 179.318689 550.322682 178.971665 
L 550.322682 172.683597 
L 547.407144 172.683597 
L 547.407144 167.082636 
L 554.844741 167.082636 
L 554.844741 182.657056 
z
" clip-path="url(#ped698a768a)" style="fill: #ffa600"/>
   </g>
   <g id="patch_88">
    <path d="M 554.844741 148.975699 
Q 553.364209 150.52343 551.763271 151.306294 
Q 550.162334 152.098156 548.418695 152.098156 
Q 543.218993 152.098156 540.182118 146.231176 
Q 537.145242 140.364195 537.145242 130.330938 
Q 537.145242 120.261688 540.182118 114.403706 
Q 543.218993 108.536725 548.418695 108.536725 
Q 550.162334 108.536725 551.763271 109.328588 
Q 553.364209 110.111452 554.844741 111.659183 
L 554.844741 120.342674 
Q 553.35083 118.29103 551.901514 117.337196 
Q 550.452197 116.383362 548.85126 116.383362 
Q 545.979384 116.383362 544.333852 120.099716 
Q 542.69278 123.807072 542.69278 130.330938 
Q 542.69278 136.827809 544.333852 140.544164 
Q 545.979384 144.25152 548.85126 144.25152 
Q 550.452197 144.25152 551.901514 143.297685 
Q 553.35083 142.334853 554.844741 140.283209 
L 554.844741 148.975699 
z
" clip-path="url(#ped698a768a)" style="fill: #0000ff"/>
   </g>
   <g id="patch_89">
    <path d="M 568.036752 192.233379 
L 561.22981 192.233379 
L 560.155029 192.24 
L 555.776294 192.24 
L 562.029562 192.203654 
L 567.222525 192.203654 
L 573.475793 192.24 
L 569.100677 192.24 
L 568.036752 192.233379 
z
M 562.315446 192.226633 
L 566.940259 192.226633 
L 564.631472 192.212176 
L 562.315446 192.226633 
z
" clip-path="url(#ped698a768a)" style="fill: #008000"/>
   </g>
   <g id="patch_90">
    <path d="M 555.776294 180.918478 
L 573.475793 180.918478 
L 573.475793 183.119402 
L 567.108089 183.119402 
L 567.108089 192.203654 
L 562.156346 192.203654 
L 562.156346 183.119402 
L 555.776294 183.119402 
L 555.776294 180.918478 
z
" clip-path="url(#ped698a768a)" style="fill: #ff0000"/>
   </g>
   <g id="patch_91">
    <path d="M 573.475793 179.94498 
Q 571.99526 180.427521 570.394323 180.671597 
Q 568.793386 180.918478 567.049747 180.918478 
Q 561.850045 180.918478 558.813169 179.089312 
Q 555.776294 177.260146 555.776294 174.132048 
Q 555.776294 170.992728 558.813169 169.166367 
Q 561.850045 167.337201 567.049747 167.337201 
Q 568.793386 167.337201 570.394323 167.584082 
Q 571.99526 167.828158 573.475793 168.310699 
L 573.475793 171.017977 
Q 571.981882 170.37833 570.532566 170.08095 
Q 569.083249 169.78357 567.482312 169.78357 
Q 564.610435 169.78357 562.964904 170.942229 
Q 561.323831 172.098082 561.323831 174.132048 
Q 561.323831 176.157597 562.964904 177.316255 
Q 564.610435 178.472109 567.482312 178.472109 
Q 569.083249 178.472109 570.532566 178.174729 
Q 571.981882 177.874544 573.475793 177.234897 
L 573.475793 179.94498 
z
" clip-path="url(#ped698a768a)" style="fill: #0000ff"/>
   </g>
   <g id="patch_92">
    <path d="M 573.475793 164.901436 
Q 571.69077 166.119319 569.770878 166.73104 
Q 567.850986 167.337201 565.804159 167.337201 
Q 561.178965 167.337201 558.477629 163.711359 
Q 555.776294 160.085518 555.776294 153.884884 
Q 555.776294 147.611956 558.52523 144.01392 
Q 561.278133 140.415884 566.065962 140.415884 
Q 567.910487 140.415884 569.600309 140.905261 
Q 571.294098 141.389078 572.793517 142.345588 
L 572.793517 147.712056 
Q 571.246497 146.483051 569.715344 145.876891 
Q 568.18419 145.265169 566.645103 145.265169 
Q 563.796999 145.265169 562.253946 147.500734 
Q 560.710892 149.730737 560.710892 153.884884 
Q 560.710892 158.000103 562.198412 160.24679 
Q 563.685931 162.487916 566.422967 162.487916 
Q 567.16871 162.487916 567.807352 162.360011 
Q 568.445994 162.226544 568.953734 161.948489 
L 568.953734 156.910126 
L 566.038195 156.910126 
L 566.038195 152.422313 
L 573.475793 152.422313 
L 573.475793 164.901436 
z
" clip-path="url(#ped698a768a)" style="fill: #ffa600"/>
   </g>
   <g id="patch_93">
    <path d="M 592.106845 191.99064 
Q 590.321821 192.11532 588.401929 192.177945 
Q 586.482038 192.24 584.435211 192.24 
Q 579.810017 192.24 577.108681 191.868807 
Q 574.407346 191.497613 574.407346 190.862827 
Q 574.407346 190.22064 577.156282 189.852293 
Q 579.909185 189.483947 584.697014 189.483947 
Q 586.541538 189.483947 588.23136 189.534046 
Q 589.925149 189.583577 591.424569 189.681499 
L 591.424569 190.230888 
Q 589.877549 190.105069 588.346395 190.043014 
Q 586.815242 189.980389 585.276155 189.980389 
Q 582.428051 189.980389 580.884997 190.209254 
Q 579.341944 190.437549 579.341944 190.862827 
Q 579.341944 191.28412 580.829463 191.514124 
Q 582.316983 191.743557 585.054019 191.743557 
Q 585.799762 191.743557 586.438404 191.730463 
Q 587.077045 191.7168 587.584785 191.688334 
L 587.584785 191.172535 
L 584.669247 191.172535 
L 584.669247 190.713097 
L 592.106845 190.713097 
L 592.106845 191.99064 
z
" clip-path="url(#ped698a768a)" style="fill: #ffa600"/>
   </g>
   <g id="patch_94">
    <path d="M 592.106845 187.978923 
Q 590.626312 188.724929 589.025375 189.102269 
Q 587.424438 189.483947 585.680798 189.483947 
Q 580.481097 189.483947 577.444221 186.656064 
Q 574.407346 183.828182 574.407346 178.992157 
Q 574.407346 174.138782 577.444221 171.315237 
Q 580.481097 168.487355 585.680798 168.487355 
Q 587.424438 168.487355 589.025375 168.869032 
Q 590.626312 169.246373 592.106845 169.992378 
L 592.106845 174.177817 
Q 590.612934 173.188926 589.163617 172.729178 
Q 587.714301 172.269431 586.113364 172.269431 
Q 583.241487 172.269431 581.595955 174.060712 
Q 579.954883 175.847656 579.954883 178.992157 
Q 579.954883 182.123646 581.595955 183.914927 
Q 583.241487 185.701871 586.113364 185.701871 
Q 587.714301 185.701871 589.163617 185.242123 
Q 590.612934 184.778038 592.106845 183.789147 
L 592.106845 187.978923 
z
" clip-path="url(#ped698a768a)" style="fill: #0000ff"/>
   </g>
   <g id="patch_95">
    <path d="M 574.407346 146.194735 
L 592.106845 146.194735 
L 592.106845 150.542417 
L 585.739141 150.542417 
L 585.739141 168.487355 
L 580.787398 168.487355 
L 580.787398 150.542417 
L 574.407346 150.542417 
L 574.407346 146.194735 
z
" clip-path="url(#ped698a768a)" style="fill: #ff0000"/>
   </g>
   <g id="patch_96">
    <path d="M 586.667804 136.912677 
L 579.860861 136.912677 
L 578.786081 146.194735 
L 574.407346 146.194735 
L 580.660614 95.241693 
L 585.853577 95.241693 
L 592.106845 146.194735 
L 587.731728 146.194735 
L 586.667804 136.912677 
z
M 580.946498 127.455897 
L 585.571311 127.455897 
L 583.262523 107.188248 
L 580.946498 127.455897 
z
" clip-path="url(#ped698a768a)" style="fill: #008000"/>
   </g>
   <g id="patch_97">
    <path d="M 593.038397 192.129516 
L 610.737896 192.129516 
L 610.737896 192.151063 
L 604.370193 192.151063 
L 604.370193 192.24 
L 599.418449 192.24 
L 599.418449 192.151063 
L 593.038397 192.151063 
L 593.038397 192.129516 
z
" clip-path="url(#ped698a768a)" style="fill: #ff0000"/>
   </g>
   <g id="patch_98">
    <path d="M 605.298856 192.08414 
L 598.491913 192.08414 
L 597.417133 192.129516 
L 593.038397 192.129516 
L 599.291665 191.880427 
L 604.484628 191.880427 
L 610.737896 192.129516 
L 606.36278 192.129516 
L 605.298856 192.08414 
z
M 599.57755 192.037909 
L 604.202363 192.037909 
L 601.893575 191.938829 
L 599.57755 192.037909 
z
" clip-path="url(#ped698a768a)" style="fill: #008000"/>
   </g>
   <g id="patch_99">
    <path d="M 610.737896 188.630045 
Q 608.952873 190.255236 607.032981 191.071542 
Q 605.113089 191.880427 603.066262 191.880427 
Q 598.441068 191.880427 595.739733 187.041958 
Q 593.038397 182.203489 593.038397 173.929114 
Q 593.038397 165.558267 595.787333 160.756903 
Q 598.540236 155.955539 603.328066 155.955539 
Q 605.17259 155.955539 606.862412 156.608584 
Q 608.556201 157.254207 610.055621 158.530613 
L 610.055621 165.691844 
Q 608.508601 164.051811 606.977447 163.242926 
Q 605.446294 162.42662 603.907207 162.42662 
Q 601.059103 162.42662 599.516049 165.409847 
Q 597.972995 168.385654 597.972995 173.929114 
Q 597.972995 179.420628 599.460515 182.418697 
Q 600.948035 185.409346 603.685071 185.409346 
Q 604.430814 185.409346 605.069455 185.238664 
Q 605.708097 185.060561 606.215837 184.689513 
L 606.215837 177.966119 
L 603.300299 177.966119 
L 603.300299 171.977401 
L 610.737896 171.977401 
L 610.737896 188.630045 
z
" clip-path="url(#ped698a768a)" style="fill: #ffa600"/>
   </g>
   <g id="patch_100">
    <path d="M 610.737896 152.750043 
Q 609.257364 154.338934 607.656427 155.142617 
Q 606.055489 155.955539 604.31185 155.955539 
Q 599.112148 155.955539 596.075273 149.932531 
Q 593.038397 143.909524 593.038397 133.609443 
Q 593.038397 123.27241 596.075273 117.258641 
Q 599.112148 111.235633 604.31185 111.235633 
Q 606.055489 111.235633 607.656427 112.048555 
Q 609.257364 112.852238 610.737896 114.44113 
L 610.737896 123.35555 
Q 609.243986 121.249345 607.794669 120.270144 
Q 606.345353 119.290944 604.744415 119.290944 
Q 601.872539 119.290944 600.227007 123.106131 
Q 598.585935 126.91208 598.585935 133.609443 
Q 598.585935 140.279092 600.227007 144.094279 
Q 601.872539 147.900228 604.744415 147.900228 
Q 606.345353 147.900228 607.794669 146.921028 
Q 609.243986 145.932589 610.737896 143.826384 
L 610.737896 152.750043 
z
" clip-path="url(#ped698a768a)" style="fill: #0000ff"/>
   </g>
   <g id="patch_101">
    <path d="M 629.368948 191.915633 
Q 627.888416 192.076414 626.287478 192.15774 
Q 624.686541 192.24 622.942902 192.24 
Q 617.7432 192.24 614.706325 191.630526 
Q 611.669449 191.021051 611.669449 189.978776 
Q 611.669449 188.932761 614.706325 188.324221 
Q 617.7432 187.714747 622.942902 187.714747 
Q 624.686541 187.714747 626.287478 187.797007 
Q 627.888416 187.878333 629.368948 188.039115 
L 629.368948 188.941174 
Q 627.875037 188.728045 626.425721 188.628958 
Q 624.976404 188.529872 623.375467 188.529872 
Q 620.503591 188.529872 618.858059 188.915935 
Q 617.216987 189.301063 617.216987 189.978776 
Q 617.216987 190.653684 618.858059 191.039747 
Q 620.503591 191.424875 623.375467 191.424875 
Q 624.976404 191.424875 626.425721 191.325789 
Q 627.875037 191.225768 629.368948 191.012638 
L 629.368948 191.915633 
z
" clip-path="url(#ped698a768a)" style="fill: #0000ff"/>
   </g>
   <g id="patch_102">
    <path d="M 629.368948 186.449733 
Q 627.583925 187.08224 625.664033 187.399938 
Q 623.744141 187.714747 621.697314 187.714747 
Q 617.07212 187.714747 614.370785 185.831666 
Q 611.669449 183.948586 611.669449 180.728287 
Q 611.669449 177.470442 614.418385 175.601802 
Q 617.171288 173.733162 621.959118 173.733162 
Q 623.803642 173.733162 625.493464 173.98732 
Q 627.187253 174.23859 628.686673 174.735354 
L 628.686673 177.522428 
Q 627.139652 176.884145 625.608499 176.569336 
Q 624.077345 176.251638 622.538259 176.251638 
Q 619.690154 176.251638 618.147101 177.412678 
Q 616.604047 178.570831 616.604047 180.728287 
Q 616.604047 182.865526 618.091567 184.032342 
Q 619.579086 185.196271 622.316122 185.196271 
Q 623.061865 185.196271 623.700507 185.129843 
Q 624.339149 185.060528 624.846889 184.91612 
L 624.846889 182.299446 
L 621.931351 182.299446 
L 621.931351 179.9687 
L 629.368948 179.9687 
L 629.368948 186.449733 
z
" clip-path="url(#ped698a768a)" style="fill: #ffa600"/>
   </g>
   <g id="patch_103">
    <path d="M 611.669449 44.366293 
L 629.368948 44.366293 
L 629.368948 69.596437 
L 623.001245 69.596437 
L 623.001245 173.733162 
L 618.049501 173.733162 
L 618.049501 69.596437 
L 611.669449 69.596437 
L 611.669449 44.366293 
z
" clip-path="url(#ped698a768a)" style="fill: #ff0000"/>
   </g>
   <g id="patch_104">
    <path d="M 642.560959 191.391311 
L 635.754017 191.391311 
L 634.679236 192.24 
L 630.300501 192.24 
L 636.553769 187.581196 
L 641.746732 187.581196 
L 648 192.24 
L 643.624884 192.24 
L 642.560959 191.391311 
z
M 636.839653 190.526646 
L 641.464466 190.526646 
L 639.155679 188.673509 
L 636.839653 190.526646 
z
" clip-path="url(#ped698a768a)" style="fill: #008000"/>
   </g>
   <g id="patch_105">
    <path d="M 648 186.759686 
Q 646.519467 187.16689 644.91853 187.372859 
Q 643.317593 187.581196 641.573954 187.581196 
Q 636.374252 187.581196 633.337376 186.037609 
Q 630.300501 184.494023 630.300501 181.854301 
Q 630.300501 179.205108 633.337376 177.663889 
Q 636.374252 176.120303 641.573954 176.120303 
Q 643.317593 176.120303 644.91853 176.32864 
Q 646.519467 176.534609 648 176.941813 
L 648 179.226416 
Q 646.506089 178.686634 645.056773 178.435683 
Q 643.607456 178.184731 642.006519 178.184731 
Q 639.134642 178.184731 637.489111 179.162494 
Q 635.848038 180.137889 635.848038 181.854301 
Q 635.848038 183.56361 637.489111 184.541372 
Q 639.134642 185.516767 642.006519 185.516767 
Q 643.607456 185.516767 645.056773 185.265816 
Q 646.506089 185.012497 648 184.472716 
L 648 186.759686 
z
" clip-path="url(#ped698a768a)" style="fill: #0000ff"/>
   </g>
   <g id="patch_106">
    <path d="M 648 166.769316 
Q 646.214977 171.444809 644.295085 173.793231 
Q 642.375193 176.120303 640.328366 176.120303 
Q 635.703172 176.120303 633.001836 162.200569 
Q 630.300501 148.280835 630.300501 124.476381 
Q 630.300501 100.394387 633.049437 86.581399 
Q 635.80234 72.768412 640.590169 72.768412 
Q 642.434694 72.768412 644.124516 74.647149 
Q 645.818305 76.504537 647.317724 80.176614 
L 647.317724 100.778674 
Q 645.770704 96.060482 644.239551 93.73341 
Q 642.708397 91.384989 641.16931 91.384989 
Q 638.321206 91.384989 636.778153 99.967401 
Q 635.235099 108.528465 635.235099 124.476381 
Q 635.235099 140.274853 636.722619 148.899964 
Q 638.210138 157.503726 640.947174 157.503726 
Q 641.692917 157.503726 642.331559 157.012692 
Q 642.970201 156.500309 643.477941 155.432845 
L 643.477941 136.090393 
L 640.562402 136.090393 
L 640.562402 118.861519 
L 648 118.861519 
L 648 166.769316 
z
" clip-path="url(#ped698a768a)" style="fill: #ffa600"/>
   </g>
   <g id="patch_107">
    <path d="M 102.260459 192.333371 
L 95.453516 192.333371 
L 94.378735 192.24 
L 90 192.24 
L 96.253268 192.752555 
L 101.446231 192.752555 
L 107.699499 192.24 
L 103.324383 192.24 
L 102.260459 192.333371 
z
M 96.539153 192.428501 
L 101.163965 192.428501 
L 98.855178 192.63238 
L 96.539153 192.428501 
z
" clip-path="url(#ped698a768a)" style="fill: #008000"/>
   </g>
   <g id="patch_108">
    <path d="M 139.522562 192.538209 
L 132.715619 192.538209 
L 131.640839 192.24 
L 127.262104 192.24 
L 133.515372 193.876993 
L 138.708335 193.876993 
L 144.961603 192.24 
L 140.586486 192.24 
L 139.522562 192.538209 
z
M 133.801256 192.842032 
L 138.426069 192.842032 
L 136.117281 193.493181 
L 133.801256 192.842032 
z
" clip-path="url(#ped698a768a)" style="fill: #008000"/>
   </g>
   <g id="patch_109">
    <path d="M 145.893155 195.314497 
L 163.592654 195.314497 
L 163.592654 194.714885 
L 157.224951 194.714885 
L 157.224951 192.24 
L 152.273207 192.24 
L 152.273207 194.714885 
L 145.893155 194.714885 
L 145.893155 195.314497 
z
" clip-path="url(#ped698a768a)" style="fill: #ff0000"/>
   </g>
   <g id="patch_110">
    <path d="M 288.570976 192.906679 
L 281.764033 192.906679 
L 280.689253 192.24 
L 276.310518 192.24 
L 282.563786 195.899674 
L 287.756749 195.899674 
L 294.010017 192.24 
L 289.6349 192.24 
L 288.570976 192.906679 
z
M 282.84967 193.585907 
L 287.474483 193.585907 
L 285.165695 195.041619 
L 282.84967 193.585907 
z
" clip-path="url(#ped698a768a)" style="fill: #008000"/>
   </g>
   <g id="patch_111">
    <path d="M 307.202028 192.548831 
L 300.395085 192.548831 
L 299.320305 192.24 
L 294.941569 192.24 
L 301.194837 193.935299 
L 306.3878 193.935299 
L 312.641068 192.24 
L 308.265952 192.24 
L 307.202028 192.548831 
z
M 301.480722 192.863475 
L 306.105535 192.863475 
L 303.796747 193.537816 
L 301.480722 192.863475 
z
" clip-path="url(#ped698a768a)" style="fill: #008000"/>
   </g>
   <g id="patch_112">
    <path d="M 344.464131 192.362125 
L 337.657188 192.362125 
L 336.582408 192.24 
L 332.203673 192.24 
L 338.456941 192.910392 
L 343.649904 192.910392 
L 349.903172 192.24 
L 345.528056 192.24 
L 344.464131 192.362125 
z
M 338.742825 192.486548 
L 343.367638 192.486548 
L 341.058851 192.753211 
L 338.742825 192.486548 
z
" clip-path="url(#ped698a768a)" style="fill: #008000"/>
   </g>
   <g id="patch_113">
    <path d="M 363.095183 192.411402 
L 356.28824 192.411402 
L 355.21346 192.24 
L 350.834725 192.24 
L 357.087993 193.180899 
L 362.280956 193.180899 
L 368.534224 192.24 
L 364.159107 192.24 
L 363.095183 192.411402 
z
M 357.373877 192.586031 
L 361.99869 192.586031 
L 359.689902 192.960294 
L 357.373877 192.586031 
z
" clip-path="url(#ped698a768a)" style="fill: #008000"/>
   </g>
   <g id="patch_114">
    <path d="M 418.988338 192.2539 
L 412.181395 192.2539 
L 411.106615 192.24 
L 406.72788 192.24 
L 412.981148 192.316302 
L 418.174111 192.316302 
L 424.427379 192.24 
L 420.052263 192.24 
L 418.988338 192.2539 
z
M 413.267032 192.268061 
L 417.891845 192.268061 
L 415.583058 192.298412 
L 413.267032 192.268061 
z
" clip-path="url(#ped698a768a)" style="fill: #008000"/>
   </g>
   <g id="patch_115">
    <path d="M 406.72788 192.697052 
L 424.427379 192.697052 
L 424.427379 192.622795 
L 418.059675 192.622795 
L 418.059675 192.316302 
L 413.107932 192.316302 
L 413.107932 192.622795 
L 406.72788 192.622795 
L 406.72788 192.697052 
z
" clip-path="url(#ped698a768a)" style="fill: #ff0000"/>
   </g>
   <g id="patch_116">
    <path d="M 456.250442 192.790909 
L 449.443499 192.790909 
L 448.368719 192.24 
L 443.989983 192.24 
L 450.243251 195.264169 
L 455.436214 195.264169 
L 461.689482 192.24 
L 457.314366 192.24 
L 456.250442 192.790909 
z
M 450.529136 193.352189 
L 455.153949 193.352189 
L 452.845161 194.555116 
L 450.529136 193.352189 
z
" clip-path="url(#ped698a768a)" style="fill: #008000"/>
   </g>
   <g id="patch_117">
    <path d="M 462.621035 192.45345 
L 480.320534 192.45345 
L 480.320534 192.411821 
L 473.952831 192.411821 
L 473.952831 192.24 
L 469.001087 192.24 
L 469.001087 192.411821 
L 462.621035 192.411821 
L 462.621035 192.45345 
z
" clip-path="url(#ped698a768a)" style="fill: #ff0000"/>
   </g>
   <g id="patch_118">
    <path d="M 512.143597 192.316815 
L 505.336654 192.316815 
L 504.261874 192.24 
L 499.883139 192.24 
L 506.136407 192.661667 
L 511.32937 192.661667 
L 517.582638 192.24 
L 513.207521 192.24 
L 512.143597 192.316815 
z
M 506.422291 192.395075 
L 511.047104 192.395075 
L 508.738316 192.562802 
L 506.422291 192.395075 
z
" clip-path="url(#ped698a768a)" style="fill: #008000"/>
   </g>
   <g id="patch_119">
    <path d="M 499.883139 196.217093 
L 517.582638 196.217093 
L 517.582638 195.523686 
L 511.214934 195.523686 
L 511.214934 192.661667 
L 506.263191 192.661667 
L 506.263191 195.523686 
L 499.883139 195.523686 
L 499.883139 196.217093 
z
" clip-path="url(#ped698a768a)" style="fill: #ff0000"/>
   </g>
   <g id="patch_120">
    <path d="M 549.405701 192.88217 
L 542.598758 192.88217 
L 541.523977 192.24 
L 537.145242 192.24 
L 543.39851 195.765133 
L 548.591473 195.765133 
L 554.844741 192.24 
L 550.469625 192.24 
L 549.405701 192.88217 
z
M 543.684395 193.536427 
L 548.309208 193.536427 
L 546.00042 194.938623 
L 543.684395 193.536427 
z
" clip-path="url(#ped698a768a)" style="fill: #008000"/>
   </g>
   <g id="patch_121">
    <path d="M 623.929908 192.513722 
L 617.122965 192.513722 
L 616.048184 192.24 
L 611.669449 192.24 
L 617.922717 193.742571 
L 623.11568 193.742571 
L 629.368948 192.24 
L 624.993832 192.24 
L 623.929908 192.513722 
z
M 618.208602 192.792596 
L 622.833415 192.792596 
L 620.524627 193.390275 
L 618.208602 192.792596 
z
" clip-path="url(#ped698a768a)" style="fill: #008000"/>
   </g>
   <g id="patch_122">
    <path d="M 630.300501 195.523852 
L 648 195.523852 
L 648 194.883409 
L 641.632296 194.883409 
L 641.632296 192.24 
L 636.680553 192.24 
L 636.680553 194.883409 
L 630.300501 194.883409 
L 630.300501 195.523852 
z
" clip-path="url(#ped698a768a)" style="fill: #ff0000"/>
   </g>
   <g id="matplotlib.axis_1">
    <g id="xtick_1">
     <g id="line2d_2">
      <defs>
       <path id="mfa3029ca37" d="M 0 0 
L 0 3.5 
" style="stroke: #000000; stroke-width: 0.8"/>
      </defs>
      <g>
       <use xlink:href="#mfa3029ca37" x="98.84975" y="192.24" style="stroke: #000000; stroke-width: 0.8"/>
      </g>
     </g>
     <g id="text_1">
      <!-- 0 -->
      <g transform="translate(95.6685 206.838437) scale(0.1 -0.1)">
       <defs>
        <path id="DejaVuSans-30" d="M 2034 4250 
Q 1547 4250 1301 3770 
Q 1056 3291 1056 2328 
Q 1056 1369 1301 889 
Q 1547 409 2034 409 
Q 2525 409 2770 889 
Q 3016 1369 3016 2328 
Q 3016 3291 2770 3770 
Q 2525 4250 2034 4250 
z
M 2034 4750 
Q 2819 4750 3233 4129 
Q 3647 3509 3647 2328 
Q 3647 1150 3233 529 
Q 2819 -91 2034 -91 
Q 1250 -91 836 529 
Q 422 1150 422 2328 
Q 422 3509 836 4129 
Q 1250 4750 2034 4750 
z
" transform="scale(0.015625)"/>
       </defs>
       <use xlink:href="#DejaVuSans-30"/>
      </g>
     </g>
    </g>
    <g id="xtick_2">
     <g id="line2d_3">
      <g>
       <use xlink:href="#mfa3029ca37" x="192.005008" y="192.24" style="stroke: #000000; stroke-width: 0.8"/>
      </g>
     </g>
     <g id="text_2">
      <!-- 5 -->
      <g transform="translate(188.823758 206.838437) scale(0.1 -0.1)">
       <defs>
        <path id="DejaVuSans-35" d="M 691 4666 
L 3169 4666 
L 3169 4134 
L 1269 4134 
L 1269 2991 
Q 1406 3038 1543 3061 
Q 1681 3084 1819 3084 
Q 2600 3084 3056 2656 
Q 3513 2228 3513 1497 
Q 3513 744 3044 326 
Q 2575 -91 1722 -91 
Q 1428 -91 1123 -41 
Q 819 9 494 109 
L 494 744 
Q 775 591 1075 516 
Q 1375 441 1709 441 
Q 2250 441 2565 725 
Q 2881 1009 2881 1497 
Q 2881 1984 2565 2268 
Q 2250 2553 1709 2553 
Q 1456 2553 1204 2497 
Q 953 2441 691 2322 
L 691 4666 
z
" transform="scale(0.015625)"/>
       </defs>
       <use xlink:href="#DejaVuSans-35"/>
      </g>
     </g>
    </g>
    <g id="xtick_3">
     <g id="line2d_4">
      <g>
       <use xlink:href="#mfa3029ca37" x="285.160267" y="192.24" style="stroke: #000000; stroke-width: 0.8"/>
      </g>
     </g>
     <g id="text_3">
      <!-- 10 -->
      <g transform="translate(278.797767 206.838437) scale(0.1 -0.1)">
       <defs>
        <path id="DejaVuSans-31" d="M 794 531 
L 1825 531 
L 1825 4091 
L 703 3866 
L 703 4441 
L 1819 4666 
L 2450 4666 
L 2450 531 
L 3481 531 
L 3481 0 
L 794 0 
L 794 531 
z
" transform="scale(0.015625)"/>
       </defs>
       <use xlink:href="#DejaVuSans-31"/>
       <use xlink:href="#DejaVuSans-30" x="63.623047"/>
      </g>
     </g>
    </g>
    <g id="xtick_4">
     <g id="line2d_5">
      <g>
       <use xlink:href="#mfa3029ca37" x="378.315526" y="192.24" style="stroke: #000000; stroke-width: 0.8"/>
      </g>
     </g>
     <g id="text_4">
      <!-- 15 -->
      <g transform="translate(371.953026 206.838437) scale(0.1 -0.1)">
       <use xlink:href="#DejaVuSans-31"/>
       <use xlink:href="#DejaVuSans-35" x="63.623047"/>
      </g>
     </g>
    </g>
    <g id="xtick_5">
     <g id="line2d_6">
      <g>
       <use xlink:href="#mfa3029ca37" x="471.470785" y="192.24" style="stroke: #000000; stroke-width: 0.8"/>
      </g>
     </g>
     <g id="text_5">
      <!-- 20 -->
      <g transform="translate(465.108285 206.838437) scale(0.1 -0.1)">
       <defs>
        <path id="DejaVuSans-32" d="M 1228 531 
L 3431 531 
L 3431 0 
L 469 0 
L 469 531 
Q 828 903 1448 1529 
Q 2069 2156 2228 2338 
Q 2531 2678 2651 2914 
Q 2772 3150 2772 3378 
Q 2772 3750 2511 3984 
Q 2250 4219 1831 4219 
Q 1534 4219 1204 4116 
Q 875 4013 500 3803 
L 500 4441 
Q 881 4594 1212 4672 
Q 1544 4750 1819 4750 
Q 2544 4750 2975 4387 
Q 3406 4025 3406 3419 
Q 3406 3131 3298 2873 
Q 3191 2616 2906 2266 
Q 2828 2175 2409 1742 
Q 1991 1309 1228 531 
z
" transform="scale(0.015625)"/>
       </defs>
       <use xlink:href="#DejaVuSans-32"/>
       <use xlink:href="#DejaVuSans-30" x="63.623047"/>
      </g>
     </g>
    </g>
    <g id="xtick_6">
     <g id="line2d_7">
      <g>
       <use xlink:href="#mfa3029ca37" x="564.626043" y="192.24" style="stroke: #000000; stroke-width: 0.8"/>
      </g>
     </g>
     <g id="text_6">
      <!-- 25 -->
      <g transform="translate(558.263543 206.838437) scale(0.1 -0.1)">
       <use xlink:href="#DejaVuSans-32"/>
       <use xlink:href="#DejaVuSans-35" x="63.623047"/>
      </g>
     </g>
    </g>
   </g>
   <g id="matplotlib.axis_2">
    <g id="ytick_1">
     <g id="line2d_8">
      <defs>
       <path id="mddc1e3c5e9" d="M 0 0 
L -3.5 0 
" style="stroke: #000000; stroke-width: 0.8"/>
      </defs>
      <g>
       <use xlink:href="#mddc1e3c5e9" x="90" y="192.24" style="stroke: #000000; stroke-width: 0.8"/>
      </g>
     </g>
     <g id="text_7">
      <!-- 0.000 -->
      <g transform="translate(54.371875 196.039219) scale(0.1 -0.1)">
       <defs>
        <path id="DejaVuSans-2e" d="M 684 794 
L 1344 794 
L 1344 0 
L 684 0 
L 684 794 
z
" transform="scale(0.015625)"/>
       </defs>
       <use xlink:href="#DejaVuSans-30"/>
       <use xlink:href="#DejaVuSans-2e" x="63.623047"/>
       <use xlink:href="#DejaVuSans-30" x="95.410156"/>
       <use xlink:href="#DejaVuSans-30" x="159.033203"/>
       <use xlink:href="#DejaVuSans-30" x="222.65625"/>
      </g>
     </g>
    </g>
    <g id="ytick_2">
     <g id="line2d_9">
      <g>
       <use xlink:href="#mddc1e3c5e9" x="90" y="155.059209" style="stroke: #000000; stroke-width: 0.8"/>
      </g>
     </g>
     <g id="text_8">
      <!-- 0.002 -->
      <g transform="translate(54.371875 158.858428) scale(0.1 -0.1)">
       <use xlink:href="#DejaVuSans-30"/>
       <use xlink:href="#DejaVuSans-2e" x="63.623047"/>
       <use xlink:href="#DejaVuSans-30" x="95.410156"/>
       <use xlink:href="#DejaVuSans-30" x="159.033203"/>
       <use xlink:href="#DejaVuSans-32" x="222.65625"/>
      </g>
     </g>
    </g>
    <g id="ytick_3">
     <g id="line2d_10">
      <g>
       <use xlink:href="#mddc1e3c5e9" x="90" y="117.878418" style="stroke: #000000; stroke-width: 0.8"/>
      </g>
     </g>
     <g id="text_9">
      <!-- 0.004 -->
      <g transform="translate(54.371875 121.677636) scale(0.1 -0.1)">
       <defs>
        <path id="DejaVuSans-34" d="M 2419 4116 
L 825 1625 
L 2419 1625 
L 2419 4116 
z
M 2253 4666 
L 3047 4666 
L 3047 1625 
L 3713 1625 
L 3713 1100 
L 3047 1100 
L 3047 0 
L 2419 0 
L 2419 1100 
L 313 1100 
L 313 1709 
L 2253 4666 
z
" transform="scale(0.015625)"/>
       </defs>
       <use xlink:href="#DejaVuSans-30"/>
       <use xlink:href="#DejaVuSans-2e" x="63.623047"/>
       <use xlink:href="#DejaVuSans-30" x="95.410156"/>
       <use xlink:href="#DejaVuSans-30" x="159.033203"/>
       <use xlink:href="#DejaVuSans-34" x="222.65625"/>
      </g>
     </g>
    </g>
    <g id="ytick_4">
     <g id="line2d_11">
      <g>
       <use xlink:href="#mddc1e3c5e9" x="90" y="80.697627" style="stroke: #000000; stroke-width: 0.8"/>
      </g>
     </g>
     <g id="text_10">
      <!-- 0.006 -->
      <g transform="translate(54.371875 84.496845) scale(0.1 -0.1)">
       <defs>
        <path id="DejaVuSans-36" d="M 2113 2584 
Q 1688 2584 1439 2293 
Q 1191 2003 1191 1497 
Q 1191 994 1439 701 
Q 1688 409 2113 409 
Q 2538 409 2786 701 
Q 3034 994 3034 1497 
Q 3034 2003 2786 2293 
Q 2538 2584 2113 2584 
z
M 3366 4563 
L 3366 3988 
Q 3128 4100 2886 4159 
Q 2644 4219 2406 4219 
Q 1781 4219 1451 3797 
Q 1122 3375 1075 2522 
Q 1259 2794 1537 2939 
Q 1816 3084 2150 3084 
Q 2853 3084 3261 2657 
Q 3669 2231 3669 1497 
Q 3669 778 3244 343 
Q 2819 -91 2113 -91 
Q 1303 -91 875 529 
Q 447 1150 447 2328 
Q 447 3434 972 4092 
Q 1497 4750 2381 4750 
Q 2619 4750 2861 4703 
Q 3103 4656 3366 4563 
z
" transform="scale(0.015625)"/>
       </defs>
       <use xlink:href="#DejaVuSans-30"/>
       <use xlink:href="#DejaVuSans-2e" x="63.623047"/>
       <use xlink:href="#DejaVuSans-30" x="95.410156"/>
       <use xlink:href="#DejaVuSans-30" x="159.033203"/>
       <use xlink:href="#DejaVuSans-36" x="222.65625"/>
      </g>
     </g>
    </g>
    <g id="ytick_5">
     <g id="line2d_12">
      <g>
       <use xlink:href="#mddc1e3c5e9" x="90" y="43.516835" style="stroke: #000000; stroke-width: 0.8"/>
      </g>
     </g>
     <g id="text_11">
      <!-- 0.008 -->
      <g transform="translate(54.371875 47.316054) scale(0.1 -0.1)">
       <defs>
        <path id="DejaVuSans-38" d="M 2034 2216 
Q 1584 2216 1326 1975 
Q 1069 1734 1069 1313 
Q 1069 891 1326 650 
Q 1584 409 2034 409 
Q 2484 409 2743 651 
Q 3003 894 3003 1313 
Q 3003 1734 2745 1975 
Q 2488 2216 2034 2216 
z
M 1403 2484 
Q 997 2584 770 2862 
Q 544 3141 544 3541 
Q 544 4100 942 4425 
Q 1341 4750 2034 4750 
Q 2731 4750 3128 4425 
Q 3525 4100 3525 3541 
Q 3525 3141 3298 2862 
Q 3072 2584 2669 2484 
Q 3125 2378 3379 2068 
Q 3634 1759 3634 1313 
Q 3634 634 3220 271 
Q 2806 -91 2034 -91 
Q 1263 -91 848 271 
Q 434 634 434 1313 
Q 434 1759 690 2068 
Q 947 2378 1403 2484 
z
M 1172 3481 
Q 1172 3119 1398 2916 
Q 1625 2713 2034 2713 
Q 2441 2713 2670 2916 
Q 2900 3119 2900 3481 
Q 2900 3844 2670 4047 
Q 2441 4250 2034 4250 
Q 1625 4250 1398 4047 
Q 1172 3844 1172 3481 
z
" transform="scale(0.015625)"/>
       </defs>
       <use xlink:href="#DejaVuSans-30"/>
       <use xlink:href="#DejaVuSans-2e" x="63.623047"/>
       <use xlink:href="#DejaVuSans-30" x="95.410156"/>
       <use xlink:href="#DejaVuSans-30" x="159.033203"/>
       <use xlink:href="#DejaVuSans-38" x="222.65625"/>
      </g>
     </g>
    </g>
   </g>
  </g>
 </g>
 <defs>
  <clipPath id="ped698a768a">
   <rect x="90" y="25.92" width="558" height="166.32"/>
  </clipPath>
 </defs>
</svg>
