<?xml version="1.0" encoding="utf-8" standalone="no"?>
<!DOCTYPE svg PUBLIC "-//W3C//DTD SVG 1.1//EN"
  "http://www.w3.org/Graphics/SVG/1.1/DTD/svg11.dtd">
<svg xmlns:xlink="http://www.w3.org/1999/xlink" width="720pt" height="216pt" viewBox="0 0 720 216" xmlns="http://www.w3.org/2000/svg" version="1.1">
 <metadata>
  <rdf:RDF xmlns:dc="http://purl.org/dc/elements/1.1/" xmlns:cc="http://creativecommons.org/ns#" xmlns:rdf="http://www.w3.org/1999/02/22-rdf-syntax-ns#">
   <cc:Work>
    <dc:type rdf:resource="http://purl.org/dc/dcmitype/StillImage"/>
    <dc:date>2024-11-23T04:40:07.259167</dc:date>
    <dc:format>image/svg+xml</dc:format>
    <dc:creator>
     <cc:Agent>
      <dc:title>Matplotlib v3.7.2, https://matplotlib.org/</dc:title>
     </cc:Agent>
    </dc:creator>
   </cc:Work>
  </rdf:RDF>
 </metadata>
 <defs>
  <style type="text/css">*{stroke-linejoin: round; stroke-linecap: butt}</style>
 </defs>
 <g id="figure_1">
  <g id="patch_1">
   <path d="M 0 216 
L 720 216 
L 720 0 
L 0 0 
z
" style="fill: #ffffff"/>
  </g>
  <g id="axes_1">
   <g id="patch_2">
    <path d="M 90 192.24 
L 648 192.24 
L 648 25.92 
L 90 25.92 
z
" style="fill: #ffffff"/>
   </g>
   <g id="line2d_1">
    <path d="M 90 192.24 
L 648 192.24 
" clip-path="url(#p1830b5ae9d)" style="fill: none; stroke: #000000; stroke-width: 0.5; stroke-linecap: square"/>
   </g>
   <g id="patch_3">
    <path d="M 90 190.179965 
L 107.699499 190.179965 
L 107.699499 190.581729 
L 101.331796 190.581729 
L 101.331796 192.24 
L 96.380052 192.24 
L 96.380052 190.581729 
L 90 190.581729 
L 90 190.179965 
z
" clip-path="url(#p1830b5ae9d)" style="fill: #ff0000"/>
   </g>
   <g id="patch_4">
    <path d="M 102.260459 189.438903 
L 95.453516 189.438903 
L 94.378735 190.179965 
L 90 190.179965 
L 96.253268 186.111974 
L 101.446231 186.111974 
L 107.699499 190.179965 
L 103.324383 190.179965 
L 102.260459 189.438903 
z
M 96.539153 188.683893 
L 101.163965 188.683893 
L 98.855178 187.065763 
L 96.539153 188.683893 
z
" clip-path="url(#p1830b5ae9d)" style="fill: #008000"/>
   </g>
   <g id="patch_5">
    <path d="M 107.699499 183.779089 
Q 105.914476 184.945532 103.994584 185.531416 
Q 102.074692 186.111974 100.027865 186.111974 
Q 95.402671 186.111974 92.701335 182.639278 
Q 90 179.166582 90 173.227846 
Q 90 167.21987 92.748936 163.773805 
Q 95.501839 160.32774 100.289668 160.32774 
Q 102.134193 160.32774 103.824015 160.796448 
Q 105.517804 161.259829 107.017224 162.175939 
L 107.017224 167.315742 
Q 105.470203 166.138647 103.93905 165.558089 
Q 102.407896 164.972205 100.868809 164.972205 
Q 98.020705 164.972205 96.477652 167.113345 
Q 94.934598 169.24916 94.934598 173.227846 
Q 94.934598 177.16925 96.422118 179.321043 
Q 97.909637 181.46751 100.646673 181.46751 
Q 101.392416 181.46751 102.031058 181.345007 
Q 102.6697 181.217177 103.17744 180.950866 
L 103.17744 176.12531 
L 100.261901 176.12531 
L 100.261901 171.82705 
L 107.699499 171.82705 
L 107.699499 183.779089 
z
" clip-path="url(#p1830b5ae9d)" style="fill: #ffa600"/>
   </g>
   <g id="patch_6">
    <path d="M 107.699499 158.299894 
Q 106.218967 159.305051 104.618029 159.813474 
Q 103.017092 160.32774 101.273453 160.32774 
Q 96.073751 160.32774 93.036876 156.517493 
Q 90 152.707245 90 146.191255 
Q 90 139.651888 93.036876 135.847485 
Q 96.073751 132.037237 101.273453 132.037237 
Q 103.017092 132.037237 104.618029 132.551504 
Q 106.218967 133.059926 107.699499 134.065084 
L 107.699499 139.704484 
Q 106.205588 138.372066 104.756272 137.752608 
Q 103.306955 137.133151 101.706018 137.133151 
Q 98.834142 137.133151 97.18861 139.546697 
Q 95.547538 141.9544 95.547538 146.191255 
Q 95.547538 150.410578 97.18861 152.824124 
Q 98.834142 155.231826 101.706018 155.231826 
Q 103.306955 155.231826 104.756272 154.612369 
Q 106.205588 153.987068 107.699499 152.65465 
L 107.699499 158.299894 
z
" clip-path="url(#p1830b5ae9d)" style="fill: #0000ff"/>
   </g>
   <g id="patch_7">
    <path d="M 108.631052 187.764456 
L 126.330551 187.764456 
L 126.330551 188.637312 
L 119.962847 188.637312 
L 119.962847 192.24 
L 115.011104 192.24 
L 115.011104 188.637312 
L 108.631052 188.637312 
L 108.631052 187.764456 
z
" clip-path="url(#p1830b5ae9d)" style="fill: #ff0000"/>
   </g>
   <g id="patch_8">
    <path d="M 120.89151 186.635929 
L 114.084567 186.635929 
L 113.009787 187.764456 
L 108.631052 187.764456 
L 114.88432 181.569508 
L 120.077283 181.569508 
L 126.330551 187.764456 
L 121.955434 187.764456 
L 120.89151 186.635929 
z
M 115.170204 185.48616 
L 119.795017 185.48616 
L 117.48623 183.021988 
L 115.170204 185.48616 
z
" clip-path="url(#p1830b5ae9d)" style="fill: #008000"/>
   </g>
   <g id="patch_9">
    <path d="M 126.330551 180.008189 
Q 124.850018 180.782099 123.249081 181.173554 
Q 121.648144 181.569508 119.904504 181.569508 
Q 114.704803 181.569508 111.667927 178.635848 
Q 108.631052 175.702187 108.631052 170.685267 
Q 108.631052 165.65035 111.667927 162.721189 
Q 114.704803 159.787528 119.904504 159.787528 
Q 121.648144 159.787528 123.249081 160.183482 
Q 124.850018 160.574937 126.330551 161.348848 
L 126.330551 165.690845 
Q 124.83664 164.664964 123.387324 164.188019 
Q 121.938007 163.711074 120.33707 163.711074 
Q 117.465193 163.711074 115.819662 165.569359 
Q 114.178589 167.423145 114.178589 170.685267 
Q 114.178589 173.933892 115.819662 175.792177 
Q 117.465193 177.645962 120.33707 177.645962 
Q 121.938007 177.645962 123.387324 177.169017 
Q 124.83664 176.687573 126.330551 175.661692 
L 126.330551 180.008189 
z
" clip-path="url(#p1830b5ae9d)" style="fill: #0000ff"/>
   </g>
   <g id="patch_10">
    <path d="M 126.330551 157.289291 
Q 124.545527 158.53841 122.625636 159.165821 
Q 120.705744 159.787528 118.658917 159.787528 
Q 114.033723 159.787528 111.332387 156.068692 
Q 108.631052 152.349855 108.631052 145.990188 
Q 108.631052 139.556373 111.379988 135.866055 
Q 114.132891 132.175738 118.92072 132.175738 
Q 120.765244 132.175738 122.455067 132.677666 
Q 124.148856 133.173892 125.648275 134.154934 
L 125.648275 139.65904 
Q 124.101255 138.398515 122.570102 137.776807 
Q 121.038948 137.149396 119.499861 137.149396 
Q 116.651757 137.149396 115.108704 139.442298 
Q 113.56565 141.729497 113.56565 145.990188 
Q 113.56565 150.210954 115.053169 152.515264 
Q 116.540689 154.81387 119.277725 154.81387 
Q 120.023468 154.81387 120.66211 154.682684 
Q 121.300752 154.545794 121.808492 154.260607 
L 121.808492 149.093021 
L 118.892953 149.093021 
L 118.892953 144.490106 
L 126.330551 144.490106 
L 126.330551 157.289291 
z
" clip-path="url(#p1830b5ae9d)" style="fill: #ffa600"/>
   </g>
   <g id="patch_11">
    <path d="M 127.262104 190.086456 
L 144.961603 190.086456 
L 144.961603 190.506457 
L 138.593899 190.506457 
L 138.593899 192.24 
L 133.642156 192.24 
L 133.642156 190.506457 
L 127.262104 190.506457 
L 127.262104 190.086456 
z
" clip-path="url(#p1830b5ae9d)" style="fill: #ff0000"/>
   </g>
   <g id="patch_12">
    <path d="M 139.522562 189.525971 
L 132.715619 189.525971 
L 131.640839 190.086456 
L 127.262104 190.086456 
L 133.515372 187.009723 
L 138.708335 187.009723 
L 144.961603 190.086456 
L 140.586486 190.086456 
L 139.522562 189.525971 
z
M 133.801256 188.954936 
L 138.426069 188.954936 
L 136.117281 187.731101 
L 133.801256 188.954936 
z
" clip-path="url(#p1830b5ae9d)" style="fill: #008000"/>
   </g>
   <g id="patch_13">
    <path d="M 144.961603 185.132385 
Q 143.48107 186.062939 141.880133 186.533626 
Q 140.279195 187.009723 138.535556 187.009723 
Q 133.335855 187.009723 130.298979 183.482275 
Q 127.262104 179.954827 127.262104 173.922457 
Q 127.262104 167.868447 130.298979 164.346409 
Q 133.335855 160.818961 138.535556 160.818961 
Q 140.279195 160.818961 141.880133 161.295058 
Q 143.48107 161.765745 144.961603 162.696299 
L 144.961603 167.917139 
Q 143.467692 166.683614 142.018375 166.110133 
Q 140.569059 165.536652 138.968121 165.536652 
Q 136.096245 165.536652 134.450713 167.771064 
Q 132.809641 170.000065 132.809641 173.922457 
Q 132.809641 177.828619 134.450713 180.063031 
Q 136.096245 182.292032 138.968121 182.292032 
Q 140.569059 182.292032 142.018375 181.718551 
Q 143.467692 181.13966 144.961603 179.906135 
L 144.961603 185.132385 
z
" clip-path="url(#p1830b5ae9d)" style="fill: #0000ff"/>
   </g>
   <g id="patch_14">
    <path d="M 144.961603 158.187957 
Q 143.176579 159.503459 141.256687 160.164213 
Q 139.336795 160.818961 137.289969 160.818961 
Q 132.664774 160.818961 129.963439 156.90249 
Q 127.262104 152.986019 127.262104 146.288374 
Q 127.262104 139.51264 130.01104 135.626203 
Q 132.763942 131.739767 137.551772 131.739767 
Q 139.396296 131.739767 141.086118 132.26837 
Q 142.779907 132.790967 144.279327 133.824146 
L 144.279327 139.620763 
Q 142.732307 138.293248 141.201153 137.6385 
Q 139.67 136.977746 138.130913 136.977746 
Q 135.282809 136.977746 133.739755 139.392502 
Q 132.196702 141.801252 132.196702 146.288374 
Q 132.196702 150.733448 133.684221 153.160218 
Q 135.171741 155.580981 137.908777 155.580981 
Q 138.65452 155.580981 139.293162 155.442824 
Q 139.931803 155.298659 140.439543 154.998316 
L 140.439543 149.556104 
L 137.524005 149.556104 
L 137.524005 144.708571 
L 144.961603 144.708571 
L 144.961603 158.187957 
z
" clip-path="url(#p1830b5ae9d)" style="fill: #ffa600"/>
   </g>
   <g id="patch_15">
    <path d="M 145.893155 188.21585 
L 163.592654 188.21585 
L 163.592654 189.000671 
L 157.224951 189.000671 
L 157.224951 192.24 
L 152.273207 192.24 
L 152.273207 189.000671 
L 145.893155 189.000671 
L 145.893155 188.21585 
z
" clip-path="url(#p1830b5ae9d)" style="fill: #ff0000"/>
   </g>
   <g id="patch_16">
    <path d="M 158.153614 186.939355 
L 151.346671 186.939355 
L 150.27189 188.21585 
L 145.893155 188.21585 
L 152.146423 181.208642 
L 157.339386 181.208642 
L 163.592654 188.21585 
L 159.217538 188.21585 
L 158.153614 186.939355 
z
M 152.432308 185.638831 
L 157.057121 185.638831 
L 154.748333 182.851567 
L 152.432308 185.638831 
z
" clip-path="url(#p1830b5ae9d)" style="fill: #008000"/>
   </g>
   <g id="patch_17">
    <path d="M 163.592654 179.579402 
Q 161.807631 180.394022 159.887739 180.803192 
Q 157.967847 181.208642 155.92102 181.208642 
Q 151.295826 181.208642 148.594491 178.78338 
Q 145.893155 176.358118 145.893155 172.210623 
Q 145.893155 168.014771 148.642091 165.608107 
Q 151.394994 163.201444 156.182824 163.201444 
Q 158.027348 163.201444 159.71717 163.52878 
Q 161.410959 163.852396 162.910379 164.492189 
L 162.910379 168.081726 
Q 161.363358 167.259666 159.832205 166.854216 
Q 158.301052 166.445046 156.761965 166.445046 
Q 153.913861 166.445046 152.370807 167.940376 
Q 150.827753 169.431987 150.827753 172.210623 
Q 150.827753 174.963221 152.315273 176.465991 
Q 153.802792 177.965041 156.539828 177.965041 
Q 157.285572 177.965041 157.924213 177.879487 
Q 158.562855 177.790213 159.070595 177.604227 
L 159.070595 174.234154 
L 156.155057 174.234154 
L 156.155057 171.232335 
L 163.592654 171.232335 
L 163.592654 179.579402 
z
" clip-path="url(#p1830b5ae9d)" style="fill: #ffa600"/>
   </g>
   <g id="patch_18">
    <path d="M 163.592654 160.672603 
Q 162.112122 161.926092 160.511185 162.560124 
Q 158.910247 163.201444 157.166608 163.201444 
Q 151.966906 163.201444 148.930031 158.449847 
Q 145.893155 153.698251 145.893155 145.572437 
Q 145.893155 137.417473 148.930031 132.673164 
Q 151.966906 127.921568 157.166608 127.921568 
Q 158.910247 127.921568 160.511185 128.562887 
Q 162.112122 129.196919 163.592654 130.450408 
L 163.592654 137.483063 
Q 162.098744 135.821461 160.649427 135.048963 
Q 159.200111 134.276464 157.599173 134.276464 
Q 154.727297 134.276464 153.081765 137.286294 
Q 151.440693 140.288837 151.440693 145.572437 
Q 151.440693 150.834175 153.081765 153.844005 
Q 154.727297 156.846548 157.599173 156.846548 
Q 159.200111 156.846548 160.649427 156.074049 
Q 162.098744 155.294262 163.592654 153.632661 
L 163.592654 160.672603 
z
" clip-path="url(#p1830b5ae9d)" style="fill: #0000ff"/>
   </g>
   <g id="patch_19">
    <path d="M 164.524207 187.692913 
L 182.223706 187.692913 
L 182.223706 188.579722 
L 175.856003 188.579722 
L 175.856003 192.24 
L 170.904259 192.24 
L 170.904259 188.579722 
L 164.524207 188.579722 
L 164.524207 187.692913 
z
" clip-path="url(#p1830b5ae9d)" style="fill: #ff0000"/>
   </g>
   <g id="patch_20">
    <path d="M 176.784666 186.764405 
L 169.977723 186.764405 
L 168.902942 187.692913 
L 164.524207 187.692913 
L 170.777475 182.59595 
L 175.970438 182.59595 
L 182.223706 187.692913 
L 177.84859 187.692913 
L 176.784666 186.764405 
z
M 171.06336 185.818419 
L 175.688172 185.818419 
L 173.379385 183.790994 
L 171.06336 185.818419 
z
" clip-path="url(#p1830b5ae9d)" style="fill: #008000"/>
   </g>
   <g id="patch_21">
    <path d="M 182.223706 181.18074 
Q 180.743174 181.882228 179.142236 182.23705 
Q 177.541299 182.59595 175.79766 182.59595 
Q 170.597958 182.59595 167.561083 179.936824 
Q 164.524207 177.277698 164.524207 172.730267 
Q 164.524207 168.166522 167.561083 165.511475 
Q 170.597958 162.852349 175.79766 162.852349 
Q 177.541299 162.852349 179.142236 163.21125 
Q 180.743174 163.566072 182.223706 164.267559 
L 182.223706 168.203228 
Q 180.729795 167.27335 179.280479 166.841038 
Q 177.831162 166.408726 176.230225 166.408726 
Q 173.358349 166.408726 171.712817 168.093111 
Q 170.071745 169.773417 170.071745 172.730267 
Q 170.071745 175.674882 171.712817 177.359267 
Q 173.358349 179.039573 176.230225 179.039573 
Q 177.831162 179.039573 179.280479 178.607261 
Q 180.729795 178.170871 182.223706 177.240993 
L 182.223706 181.18074 
z
" clip-path="url(#p1830b5ae9d)" style="fill: #0000ff"/>
   </g>
   <g id="patch_22">
    <path d="M 182.223706 159.24247 
Q 180.438683 161.047409 178.518791 161.954 
Q 176.598899 162.852349 174.552072 162.852349 
Q 169.926878 162.852349 167.225542 157.478739 
Q 164.524207 152.105128 164.524207 142.915594 
Q 164.524207 133.618918 167.273143 128.286516 
Q 170.026046 122.954114 174.813876 122.954114 
Q 176.6584 122.954114 178.348222 123.679387 
Q 180.042011 124.396417 181.541431 125.813996 
L 181.541431 133.767269 
Q 179.99441 131.945846 178.463257 131.047497 
Q 176.932103 130.140906 175.393016 130.140906 
Q 172.544912 130.140906 171.001859 133.454083 
Q 169.458805 136.759019 169.458805 142.915594 
Q 169.458805 149.014478 170.946325 152.344138 
Q 172.433844 155.665557 175.17088 155.665557 
Q 175.916623 155.665557 176.555265 155.475997 
Q 177.193907 155.278196 177.701647 154.866109 
L 177.701647 147.399098 
L 174.786108 147.399098 
L 174.786108 140.748018 
L 182.223706 140.748018 
L 182.223706 159.24247 
z
" clip-path="url(#p1830b5ae9d)" style="fill: #ffa600"/>
   </g>
   <g id="patch_23">
    <path d="M 195.415717 191.770951 
L 188.608774 191.770951 
L 187.533994 192.24 
L 183.155259 192.24 
L 189.408527 189.665194 
L 194.60149 189.665194 
L 200.854758 192.24 
L 196.479641 192.24 
L 195.415717 191.770951 
z
M 189.694411 191.293072 
L 194.319224 191.293072 
L 192.010437 190.268889 
L 189.694411 191.293072 
z
" clip-path="url(#p1830b5ae9d)" style="fill: #008000"/>
   </g>
   <g id="patch_24">
    <path d="M 183.155259 186.088341 
L 200.854758 186.088341 
L 200.854758 186.785927 
L 194.487054 186.785927 
L 194.487054 189.665194 
L 189.535311 189.665194 
L 189.535311 186.785927 
L 183.155259 186.785927 
L 183.155259 186.088341 
z
" clip-path="url(#p1830b5ae9d)" style="fill: #ff0000"/>
   </g>
   <g id="patch_25">
    <path d="M 200.854758 184.482083 
Q 199.374225 185.278268 197.773288 185.68099 
Q 196.172351 186.088341 194.428711 186.088341 
Q 189.22901 186.088341 186.192134 183.070243 
Q 183.155259 180.052145 183.155259 174.890828 
Q 183.155259 169.710995 186.192134 166.697526 
Q 189.22901 163.679428 194.428711 163.679428 
Q 196.172351 163.679428 197.773288 164.086779 
Q 199.374225 164.489501 200.854758 165.285686 
L 200.854758 169.752656 
Q 199.360847 168.697247 197.911531 168.206575 
Q 196.462214 167.715903 194.861277 167.715903 
Q 191.9894 167.715903 190.343869 169.627673 
Q 188.702796 171.534814 188.702796 174.890828 
Q 188.702796 178.232955 190.343869 180.144725 
Q 191.9894 182.051866 194.861277 182.051866 
Q 196.462214 182.051866 197.911531 181.561194 
Q 199.360847 181.065893 200.854758 180.010484 
L 200.854758 184.482083 
z
" clip-path="url(#p1830b5ae9d)" style="fill: #0000ff"/>
   </g>
   <g id="patch_26">
    <path d="M 200.854758 160.182302 
Q 199.069734 161.930865 197.149843 162.809139 
Q 195.229951 163.679428 193.183124 163.679428 
Q 188.55793 163.679428 185.856594 158.473661 
Q 183.155259 153.267893 183.155259 144.365392 
Q 183.155259 135.359094 185.904195 130.193248 
Q 188.657098 125.027402 193.444927 125.027402 
Q 195.289451 125.027402 196.979274 125.730021 
Q 198.673063 126.424656 200.172482 127.797956 
L 200.172482 135.502812 
Q 198.625462 133.73828 197.094309 132.867991 
Q 195.563155 131.989717 194.024068 131.989717 
Q 191.175964 131.989717 189.632911 135.199408 
Q 188.089857 138.401115 188.089857 144.365392 
Q 188.089857 150.273778 189.577376 153.499438 
Q 191.064896 156.717113 193.801932 156.717113 
Q 194.547675 156.717113 195.186317 156.533474 
Q 195.824959 156.341851 196.332699 155.942636 
L 196.332699 148.708854 
L 193.41716 148.708854 
L 193.41716 142.265519 
L 200.854758 142.265519 
L 200.854758 160.182302 
z
" clip-path="url(#p1830b5ae9d)" style="fill: #ffa600"/>
   </g>
   <g id="patch_27">
    <path d="M 201.786311 189.445742 
L 219.48581 189.445742 
L 219.48581 189.9907 
L 213.118106 189.9907 
L 213.118106 192.24 
L 208.166363 192.24 
L 208.166363 189.9907 
L 201.786311 189.9907 
L 201.786311 189.445742 
z
" clip-path="url(#p1830b5ae9d)" style="fill: #ff0000"/>
   </g>
   <g id="patch_28">
    <path d="M 214.046769 188.674253 
L 207.239826 188.674253 
L 206.165046 189.445742 
L 201.786311 189.445742 
L 208.039579 185.210721 
L 213.232542 185.210721 
L 219.48581 189.445742 
L 215.110693 189.445742 
L 214.046769 188.674253 
z
M 208.325463 187.888242 
L 212.950276 187.888242 
L 210.641488 186.203673 
L 208.325463 187.888242 
z
" clip-path="url(#p1830b5ae9d)" style="fill: #008000"/>
   </g>
   <g id="patch_29">
    <path d="M 219.48581 182.829132 
Q 217.700786 184.019926 215.780894 184.618042 
Q 213.861002 185.210721 211.814176 185.210721 
Q 207.188981 185.210721 204.487646 181.665524 
Q 201.786311 178.120327 201.786311 172.057604 
Q 201.786311 165.924195 204.535247 162.406185 
Q 207.288149 158.888175 212.075979 158.888175 
Q 213.920503 158.888175 215.610325 159.366668 
Q 217.304114 159.839723 218.803534 160.774959 
L 218.803534 166.022069 
Q 217.256514 164.820399 215.72536 164.22772 
Q 214.194207 163.629604 212.65512 163.629604 
Q 209.807016 163.629604 208.263962 165.815447 
Q 206.720909 167.995852 206.720909 172.057604 
Q 206.720909 176.081294 208.208428 178.278012 
Q 209.695948 180.469292 212.432984 180.469292 
Q 213.178727 180.469292 213.817369 180.344231 
Q 214.45601 180.213733 214.96375 179.941862 
L 214.96375 175.01556 
L 212.048212 175.01556 
L 212.048212 170.627563 
L 219.48581 170.627563 
L 219.48581 182.829132 
z
" clip-path="url(#p1830b5ae9d)" style="fill: #ffa600"/>
   </g>
   <g id="patch_30">
    <path d="M 219.48581 156.441366 
Q 218.005277 157.654193 216.40434 158.267658 
Q 214.803402 158.888175 213.059763 158.888175 
Q 207.860062 158.888175 204.823186 154.290712 
Q 201.786311 149.693249 201.786311 141.831024 
Q 201.786311 133.940593 204.823186 129.350182 
Q 207.860062 124.752719 213.059763 124.752719 
Q 214.803402 124.752719 216.40434 125.373236 
Q 218.005277 125.986701 219.48581 127.199528 
L 219.48581 134.004055 
Q 217.991899 132.396354 216.542582 131.648913 
Q 215.093266 130.901473 213.492328 130.901473 
Q 210.620452 130.901473 208.97492 133.81367 
Q 207.333848 136.718815 207.333848 141.831024 
Q 207.333848 146.922079 208.97492 149.834276 
Q 210.620452 152.739421 213.492328 152.739421 
Q 215.093266 152.739421 216.542582 151.991981 
Q 217.991899 151.237489 219.48581 149.629787 
L 219.48581 156.441366 
z
" clip-path="url(#p1830b5ae9d)" style="fill: #0000ff"/>
   </g>
   <g id="patch_31">
    <path d="M 232.677821 191.729771 
L 225.870878 191.729771 
L 224.796097 192.24 
L 220.417362 192.24 
L 226.67063 189.439143 
L 231.863593 189.439143 
L 238.116861 192.24 
L 233.741745 192.24 
L 232.677821 191.729771 
z
M 226.956515 191.209938 
L 231.581328 191.209938 
L 229.27254 190.095838 
L 226.956515 191.209938 
z
" clip-path="url(#p1830b5ae9d)" style="fill: #008000"/>
   </g>
   <g id="patch_32">
    <path d="M 220.417362 183.815339 
L 238.116861 183.815339 
L 238.116861 184.912138 
L 231.749158 184.912138 
L 231.749158 189.439143 
L 226.797414 189.439143 
L 226.797414 184.912138 
L 220.417362 184.912138 
L 220.417362 183.815339 
z
" clip-path="url(#p1830b5ae9d)" style="fill: #ff0000"/>
   </g>
   <g id="patch_33">
    <path d="M 238.116861 182.492919 
Q 236.636329 183.148413 235.035392 183.479971 
Q 233.434454 183.815339 231.690815 183.815339 
Q 226.491113 183.815339 223.454238 181.330561 
Q 220.417362 178.845783 220.417362 174.596507 
Q 220.417362 170.331986 223.454238 167.851019 
Q 226.491113 165.366241 231.690815 165.366241 
Q 233.434454 165.366241 235.035392 165.701609 
Q 236.636329 166.033167 238.116861 166.688661 
L 238.116861 170.366286 
Q 236.622951 169.497375 235.173634 169.093408 
Q 233.724318 168.689441 232.12338 168.689441 
Q 229.251504 168.689441 227.605972 170.263388 
Q 225.9649 171.833524 225.9649 174.596507 
Q 225.9649 177.348056 227.605972 178.922003 
Q 229.251504 180.492139 232.12338 180.492139 
Q 233.724318 180.492139 235.173634 180.088172 
Q 236.622951 179.680394 238.116861 178.811483 
L 238.116861 182.492919 
z
" clip-path="url(#p1830b5ae9d)" style="fill: #0000ff"/>
   </g>
   <g id="patch_34">
    <path d="M 238.116861 160.641684 
Q 236.331838 163.003962 234.411946 164.190495 
Q 232.492054 165.366241 230.445227 165.366241 
Q 225.820033 165.366241 223.118698 158.333338 
Q 220.417362 151.300436 220.417362 139.27331 
Q 220.417362 127.105958 223.166298 120.126989 
Q 225.919201 113.14802 230.707031 113.14802 
Q 232.551555 113.14802 234.241377 114.097246 
Q 235.935166 115.035685 237.434586 116.890991 
L 237.434586 127.300118 
Q 235.887565 124.916266 234.356412 123.74052 
Q 232.825259 122.553987 231.286172 122.553987 
Q 228.438068 122.553987 226.895014 126.890225 
Q 225.35196 131.215675 225.35196 139.27331 
Q 225.35196 147.255439 226.83948 151.613249 
Q 228.327 155.960273 231.064035 155.960273 
Q 231.809779 155.960273 232.44842 155.71218 
Q 233.087062 155.4533 233.594802 154.913967 
L 233.594802 145.141253 
L 230.679264 145.141253 
L 230.679264 136.436419 
L 238.116861 136.436419 
L 238.116861 160.641684 
z
" clip-path="url(#p1830b5ae9d)" style="fill: #ffa600"/>
   </g>
   <g id="patch_35">
    <path d="M 251.308873 192.061859 
L 244.50193 192.061859 
L 243.427149 192.24 
L 239.048414 192.24 
L 245.301682 191.262112 
L 250.494645 191.262112 
L 256.747913 192.24 
L 252.372797 192.24 
L 251.308873 192.061859 
z
M 245.587567 191.880365 
L 250.212379 191.880365 
L 247.903592 191.49139 
L 245.587567 191.880365 
z
" clip-path="url(#p1830b5ae9d)" style="fill: #008000"/>
   </g>
   <g id="patch_36">
    <path d="M 239.048414 188.794844 
L 256.747913 188.794844 
L 256.747913 189.27603 
L 250.38021 189.27603 
L 250.38021 191.262112 
L 245.428466 191.262112 
L 245.428466 189.27603 
L 239.048414 189.27603 
L 239.048414 188.794844 
z
" clip-path="url(#p1830b5ae9d)" style="fill: #ff0000"/>
   </g>
   <g id="patch_37">
    <path d="M 256.747913 187.642889 
Q 254.96289 188.218867 253.042998 188.50817 
Q 251.123106 188.794844 249.076279 188.794844 
Q 244.451085 188.794844 241.74975 187.080062 
Q 239.048414 185.36528 239.048414 182.432792 
Q 239.048414 179.466114 241.79735 177.764482 
Q 244.550253 176.06285 249.338083 176.06285 
Q 251.182607 176.06285 252.872429 176.294293 
Q 254.566218 176.523106 256.065638 176.975472 
L 256.065638 179.513454 
Q 254.518617 178.932217 252.987464 178.645543 
Q 251.45631 178.35624 249.917223 178.35624 
Q 247.069119 178.35624 245.526066 179.413513 
Q 243.983012 180.468157 243.983012 182.432792 
Q 243.983012 184.379017 245.470532 185.441551 
Q 246.958051 186.501455 249.695087 186.501455 
Q 250.44083 186.501455 251.079472 186.440964 
Q 251.718114 186.377843 252.225854 186.246341 
L 252.225854 183.863531 
L 249.310315 183.863531 
L 249.310315 181.741093 
L 256.747913 181.741093 
L 256.747913 187.642889 
z
" clip-path="url(#p1830b5ae9d)" style="fill: #ffa600"/>
   </g>
   <g id="patch_38">
    <path d="M 256.747913 170.041982 
Q 255.267381 173.026389 253.666443 174.535944 
Q 252.065506 176.06285 250.321867 176.06285 
Q 245.122165 176.06285 242.08529 164.749864 
Q 239.048414 153.436877 239.048414 134.090283 
Q 239.048414 114.674283 242.08529 103.378648 
Q 245.122165 92.065661 250.321867 92.065661 
Q 252.065506 92.065661 253.666443 93.592568 
Q 255.267381 95.102122 256.747913 98.08653 
L 256.747913 114.830444 
Q 255.254002 110.874369 253.804686 109.035141 
Q 252.355369 107.195913 250.754432 107.195913 
Q 247.882556 107.195913 246.237024 114.361961 
Q 244.595952 121.510658 244.595952 134.090283 
Q 244.595952 146.617853 246.237024 153.783901 
Q 247.882556 160.932598 250.754432 160.932598 
Q 252.355369 160.932598 253.804686 159.09337 
Q 255.254002 157.236791 256.747913 153.280716 
L 256.747913 170.041982 
z
" clip-path="url(#p1830b5ae9d)" style="fill: #0000ff"/>
   </g>
   <g id="patch_39">
    <path d="M 269.939924 191.277365 
L 263.132981 191.277365 
L 262.058201 192.24 
L 257.679466 192.24 
L 263.932734 186.9557 
L 269.125697 186.9557 
L 275.378965 192.24 
L 271.003849 192.24 
L 269.939924 191.277365 
z
M 264.218618 190.29661 
L 268.843431 190.29661 
L 266.534644 188.194668 
L 264.218618 190.29661 
z
" clip-path="url(#p1830b5ae9d)" style="fill: #008000"/>
   </g>
   <g id="patch_40">
    <path d="M 257.679466 171.345874 
L 275.378965 171.345874 
L 275.378965 174.390225 
L 269.011261 174.390225 
L 269.011261 186.9557 
L 264.059518 186.9557 
L 264.059518 174.390225 
L 257.679466 174.390225 
L 257.679466 171.345874 
z
" clip-path="url(#p1830b5ae9d)" style="fill: #ff0000"/>
   </g>
   <g id="patch_41">
    <path d="M 275.378965 169.320846 
Q 273.898432 170.324606 272.297495 170.832322 
Q 270.696558 171.345874 268.952919 171.345874 
Q 263.753217 171.345874 260.716341 167.540922 
Q 257.679466 163.735971 257.679466 157.229037 
Q 257.679466 150.698759 260.716341 146.899644 
Q 263.753217 143.094692 268.952919 143.094692 
Q 270.696558 143.094692 272.297495 143.608244 
Q 273.898432 144.11596 275.378965 145.11972 
L 275.378965 150.751282 
Q 273.885054 149.420716 272.435738 148.80212 
Q 270.986421 148.183523 269.385484 148.183523 
Q 266.513607 148.183523 264.868076 150.593715 
Q 263.227003 152.998071 263.227003 157.229037 
Q 263.227003 161.442495 264.868076 163.852687 
Q 266.513607 166.257043 269.385484 166.257043 
Q 270.986421 166.257043 272.435738 165.638446 
Q 273.885054 165.014014 275.378965 163.683448 
L 275.378965 169.320846 
z
" clip-path="url(#p1830b5ae9d)" style="fill: #0000ff"/>
   </g>
   <g id="patch_42">
    <path d="M 275.378965 140.514924 
Q 273.593941 141.804808 271.67405 142.452695 
Q 269.754158 143.094692 267.707331 143.094692 
Q 263.082137 143.094692 260.380801 139.25449 
Q 257.679466 135.414288 257.679466 128.847071 
Q 257.679466 122.203285 260.428402 118.392533 
Q 263.181305 114.58178 267.969134 114.58178 
Q 269.813659 114.58178 271.503481 115.100089 
Q 273.19727 115.612509 274.696689 116.625568 
L 274.696689 122.309303 
Q 273.149669 121.00764 271.618516 120.365643 
Q 270.087362 119.717756 268.548275 119.717756 
Q 265.700171 119.717756 264.157118 122.085488 
Q 262.614064 124.44733 262.614064 128.847071 
Q 262.614064 133.205583 264.101583 135.585094 
Q 265.589103 137.958716 268.326139 137.958716 
Q 269.071882 137.958716 269.710524 137.823249 
Q 270.349166 137.681892 270.856906 137.387398 
L 270.856906 132.051166 
L 267.941367 132.051166 
L 267.941367 127.298032 
L 275.378965 127.298032 
L 275.378965 140.514924 
z
" clip-path="url(#p1830b5ae9d)" style="fill: #ffa600"/>
   </g>
   <g id="patch_43">
    <path d="M 288.570976 192.0333 
L 281.764033 192.0333 
L 280.689253 192.24 
L 276.310518 192.24 
L 282.563786 191.105341 
L 287.756749 191.105341 
L 294.010017 192.24 
L 289.6349 192.24 
L 288.570976 192.0333 
z
M 282.84967 191.82271 
L 287.474483 191.82271 
L 285.165695 191.371376 
L 282.84967 191.82271 
z
" clip-path="url(#p1830b5ae9d)" style="fill: #008000"/>
   </g>
   <g id="patch_44">
    <path d="M 276.310518 188.042256 
L 294.010017 188.042256 
L 294.010017 188.639643 
L 287.642313 188.639643 
L 287.642313 191.105341 
L 282.69057 191.105341 
L 282.69057 188.639643 
L 276.310518 188.639643 
L 276.310518 188.042256 
z
" clip-path="url(#p1830b5ae9d)" style="fill: #ff0000"/>
   </g>
   <g id="patch_45">
    <path d="M 294.010017 186.133273 
Q 292.224993 187.087765 290.305101 187.56719 
Q 288.385209 188.042256 286.338383 188.042256 
Q 281.713188 188.042256 279.011853 185.200573 
Q 276.310518 182.358889 276.310518 177.499261 
Q 276.310518 172.582973 279.059454 169.763082 
Q 281.812356 166.94319 286.600186 166.94319 
Q 288.44471 166.94319 290.134532 167.32673 
Q 291.828321 167.705912 293.327741 168.455558 
L 293.327741 172.661425 
Q 291.780721 171.698216 290.249567 171.223149 
Q 288.718414 170.743724 287.179327 170.743724 
Q 284.331223 170.743724 282.788169 172.495805 
Q 281.245116 174.243528 281.245116 177.499261 
Q 281.245116 180.724485 282.732635 182.485283 
Q 284.220155 184.241722 286.957191 184.241722 
Q 287.702934 184.241722 288.341576 184.141479 
Q 288.980217 184.036877 289.487957 183.818956 
L 289.487957 179.870236 
L 286.572419 179.870236 
L 286.572419 176.352999 
L 294.010017 176.352999 
L 294.010017 186.133273 
z
" clip-path="url(#p1830b5ae9d)" style="fill: #ffa600"/>
   </g>
   <g id="patch_46">
    <path d="M 294.010017 160.829732 
Q 292.529484 163.860034 290.928547 165.392803 
Q 289.32761 166.94319 287.58397 166.94319 
Q 282.384269 166.94319 279.347393 155.456231 
Q 276.310518 143.969273 276.310518 124.325164 
Q 276.310518 104.610583 279.347393 93.141243 
Q 282.384269 81.654284 287.58397 81.654284 
Q 289.32761 81.654284 290.928547 83.204671 
Q 292.529484 84.73744 294.010017 87.767742 
L 294.010017 104.769146 
Q 292.516106 100.752234 291.066789 98.884722 
Q 289.617473 97.01721 288.016535 97.01721 
Q 285.144659 97.01721 283.499127 104.293459 
Q 281.858055 111.552089 281.858055 124.325164 
Q 281.858055 137.045385 283.499127 144.321633 
Q 285.144659 151.580264 288.016535 151.580264 
Q 289.617473 151.580264 291.066789 149.712752 
Q 292.516106 147.827622 294.010017 143.81071 
L 294.010017 160.829732 
z
" clip-path="url(#p1830b5ae9d)" style="fill: #0000ff"/>
   </g>
   <g id="patch_47">
    <path d="M 294.941569 181.932908 
L 312.641068 181.932908 
L 312.641068 183.943078 
L 306.273365 183.943078 
L 306.273365 192.24 
L 301.321621 192.24 
L 301.321621 183.943078 
L 294.941569 183.943078 
L 294.941569 181.932908 
z
" clip-path="url(#p1830b5ae9d)" style="fill: #ff0000"/>
   </g>
   <g id="patch_48">
    <path d="M 307.202028 179.296411 
L 300.395085 179.296411 
L 299.320305 181.932908 
L 294.941569 181.932908 
L 301.194837 167.460089 
L 306.3878 167.460089 
L 312.641068 181.932908 
L 308.265952 181.932908 
L 307.202028 179.296411 
z
M 301.480722 176.610285 
L 306.105535 176.610285 
L 303.796747 170.853416 
L 301.480722 176.610285 
z
" clip-path="url(#p1830b5ae9d)" style="fill: #008000"/>
   </g>
   <g id="patch_49">
    <path d="M 312.641068 165.438401 
Q 310.856045 166.449245 308.936153 166.956975 
Q 307.016261 167.460089 304.969434 167.460089 
Q 300.34424 167.460089 297.642905 164.450635 
Q 294.941569 161.441182 294.941569 156.294646 
Q 294.941569 151.088107 297.690505 148.101731 
Q 300.443408 145.115356 305.231238 145.115356 
Q 307.075762 145.115356 308.765584 145.52154 
Q 310.459373 145.923108 311.958793 146.717013 
L 311.958793 151.17119 
Q 310.411772 150.151114 308.880619 149.648 
Q 307.349466 149.14027 305.810379 149.14027 
Q 302.962275 149.14027 301.419221 150.995792 
Q 299.876167 152.846698 299.876167 156.294646 
Q 299.876167 159.710284 301.363687 161.575038 
Q 302.851207 163.435176 305.588242 163.435176 
Q 306.333986 163.435176 306.972627 163.329014 
Q 307.611269 163.218236 308.119009 162.98745 
L 308.119009 158.805602 
L 305.203471 158.805602 
L 305.203471 155.08071 
L 312.641068 155.08071 
L 312.641068 165.438401 
z
" clip-path="url(#p1830b5ae9d)" style="fill: #ffa600"/>
   </g>
   <g id="patch_50">
    <path d="M 312.641068 141.416217 
Q 311.160536 143.249796 309.559599 144.177246 
Q 307.958661 145.115356 306.215022 145.115356 
Q 301.01532 145.115356 297.978445 138.164812 
Q 294.941569 131.214268 294.941569 119.327985 
Q 294.941569 107.39906 297.978445 100.459176 
Q 301.01532 93.508632 306.215022 93.508632 
Q 307.958661 93.508632 309.559599 94.446742 
Q 311.160536 95.374192 312.641068 97.207771 
L 312.641068 107.495003 
Q 311.147158 105.064445 309.697841 103.934448 
Q 308.248525 102.804452 306.647587 102.804452 
Q 303.775711 102.804452 302.130179 107.207174 
Q 300.489107 111.599235 300.489107 119.327985 
Q 300.489107 127.024753 302.130179 131.427475 
Q 303.775711 135.819536 306.647587 135.819536 
Q 308.248525 135.819536 309.697841 134.68954 
Q 311.147158 133.548883 312.641068 131.118325 
L 312.641068 141.416217 
z
" clip-path="url(#p1830b5ae9d)" style="fill: #0000ff"/>
   </g>
   <g id="patch_51">
    <path d="M 331.27212 192.18803 
Q 329.791588 192.21379 328.19065 192.22682 
Q 326.589713 192.24 324.846074 192.24 
Q 319.646372 192.24 316.609497 192.14235 
Q 313.572621 192.0447 313.572621 191.877707 
Q 313.572621 191.710114 316.609497 191.612614 
Q 319.646372 191.514964 324.846074 191.514964 
Q 326.589713 191.514964 328.19065 191.528144 
Q 329.791588 191.541174 331.27212 191.566934 
L 331.27212 191.711462 
Q 329.778209 191.677315 328.328893 191.661439 
Q 326.879576 191.645563 325.278639 191.645563 
Q 322.406763 191.645563 320.761231 191.707418 
Q 319.120159 191.769124 319.120159 191.877707 
Q 319.120159 191.985841 320.761231 192.047695 
Q 322.406763 192.109401 325.278639 192.109401 
Q 326.879576 192.109401 328.328893 192.093525 
Q 329.778209 192.0775 331.27212 192.043352 
L 331.27212 192.18803 
z
" clip-path="url(#p1830b5ae9d)" style="fill: #0000ff"/>
   </g>
   <g id="patch_52">
    <path d="M 325.83308 191.378031 
L 319.026137 191.378031 
L 317.951356 191.514964 
L 313.572621 191.514964 
L 319.825889 190.76328 
L 325.018852 190.76328 
L 331.27212 191.514964 
L 326.897004 191.514964 
L 325.83308 191.378031 
z
M 320.111774 191.23852 
L 324.736586 191.23852 
L 322.427799 190.939522 
L 320.111774 191.23852 
z
" clip-path="url(#p1830b5ae9d)" style="fill: #008000"/>
   </g>
   <g id="patch_53">
    <path d="M 313.572621 189.627019 
L 331.27212 189.627019 
L 331.27212 189.848622 
L 324.904417 189.848622 
L 324.904417 190.76328 
L 319.952673 190.76328 
L 319.952673 189.848622 
L 313.572621 189.848622 
L 313.572621 189.627019 
z
" clip-path="url(#p1830b5ae9d)" style="fill: #ff0000"/>
   </g>
   <g id="patch_54">
    <path d="M 331.27212 175.029919 
Q 329.487097 182.328469 327.567205 185.994407 
Q 325.647313 189.627019 323.600486 189.627019 
Q 318.975292 189.627019 316.273957 167.898003 
Q 313.572621 146.168987 313.572621 109.009703 
Q 313.572621 71.417172 316.321557 49.85479 
Q 319.07446 28.292407 323.86229 28.292407 
Q 325.706814 28.292407 327.396636 31.225158 
Q 329.090425 34.124582 330.589845 39.856776 
L 330.589845 72.017053 
Q 329.042824 64.65185 327.511671 61.019238 
Q 325.980517 57.3533 324.44143 57.3533 
Q 321.593326 57.3533 320.050273 70.750638 
Q 318.507219 84.11465 318.507219 109.009703 
Q 318.507219 133.67147 319.994739 147.135462 
Q 321.482258 160.566126 324.219294 160.566126 
Q 324.965037 160.566126 325.603679 159.799612 
Q 326.242321 158.999771 326.750061 157.333435 
L 326.750061 127.139435 
L 323.834523 127.139435 
L 323.834523 100.244778 
L 331.27212 100.244778 
L 331.27212 175.029919 
z
" clip-path="url(#p1830b5ae9d)" style="fill: #ffa600"/>
   </g>
   <g id="patch_55">
    <path d="M 349.903172 191.513929 
Q 348.118149 191.876965 346.198257 192.059311 
Q 344.278365 192.24 342.231538 192.24 
Q 337.606344 192.24 334.905008 191.159182 
Q 332.203673 190.078364 332.203673 188.230033 
Q 332.203673 186.360152 334.952609 185.287622 
Q 337.705512 184.215093 342.493341 184.215093 
Q 344.337866 184.215093 346.027688 184.36097 
Q 347.721477 184.50519 349.220896 184.790314 
L 349.220896 186.38999 
Q 347.673876 186.023639 346.142723 185.842951 
Q 344.611569 185.660604 343.072482 185.660604 
Q 340.224378 185.660604 338.681325 186.326998 
Q 337.138271 186.991734 337.138271 188.230033 
Q 337.138271 189.456728 338.62579 190.126437 
Q 340.11331 190.794489 342.850346 190.794489 
Q 343.596089 190.794489 344.234731 190.756362 
Q 344.873373 190.716577 345.381113 190.633692 
L 345.381113 189.13182 
L 342.465574 189.13182 
L 342.465574 187.794059 
L 349.903172 187.794059 
L 349.903172 191.513929 
z
" clip-path="url(#p1830b5ae9d)" style="fill: #ffa600"/>
   </g>
   <g id="patch_56">
    <path d="M 332.203673 173.701108 
L 349.903172 173.701108 
L 349.903172 175.751628 
L 343.535468 175.751628 
L 343.535468 184.215093 
L 338.583725 184.215093 
L 338.583725 175.751628 
L 332.203673 175.751628 
L 332.203673 173.701108 
z
" clip-path="url(#p1830b5ae9d)" style="fill: #ff0000"/>
   </g>
   <g id="patch_57">
    <path d="M 349.903172 171.267334 
Q 348.422639 172.4737 346.821702 173.083897 
Q 345.220765 173.701108 343.477126 173.701108 
Q 338.277424 173.701108 335.240548 169.128137 
Q 332.203673 164.555167 332.203673 156.734826 
Q 332.203673 148.88643 335.240548 144.320473 
Q 338.277424 139.747502 343.477126 139.747502 
Q 345.220765 139.747502 346.821702 140.364713 
Q 348.422639 140.97491 349.903172 142.181277 
L 349.903172 148.949554 
Q 348.409261 147.350417 346.959945 146.606958 
Q 345.510628 145.8635 343.909691 145.8635 
Q 341.037814 145.8635 339.392283 148.760182 
Q 337.75121 151.649851 337.75121 156.734826 
Q 337.75121 161.79876 339.392283 164.695442 
Q 341.037814 167.58511 343.909691 167.58511 
Q 345.510628 167.58511 346.959945 166.841652 
Q 348.409261 166.09118 349.903172 164.492043 
L 349.903172 171.267334 
z
" clip-path="url(#p1830b5ae9d)" style="fill: #0000ff"/>
   </g>
   <g id="patch_58">
    <path d="M 344.464131 132.815074 
L 337.657188 132.815074 
L 336.582408 139.747502 
L 332.203673 139.747502 
L 338.456941 101.692546 
L 343.649904 101.692546 
L 349.903172 139.747502 
L 345.528056 139.747502 
L 344.464131 132.815074 
z
M 338.742825 125.752152 
L 343.367638 125.752152 
L 341.058851 110.61499 
L 338.742825 125.752152 
z
" clip-path="url(#p1830b5ae9d)" style="fill: #008000"/>
   </g>
   <g id="patch_59">
    <path d="M 350.834725 191.264449 
L 368.534224 191.264449 
L 368.534224 191.454709 
L 362.16652 191.454709 
L 362.16652 192.24 
L 357.214777 192.24 
L 357.214777 191.454709 
L 350.834725 191.454709 
L 350.834725 191.264449 
z
" clip-path="url(#p1830b5ae9d)" style="fill: #ff0000"/>
   </g>
   <g id="patch_60">
    <path d="M 363.095183 191.066126 
L 356.28824 191.066126 
L 355.21346 191.264449 
L 350.834725 191.264449 
L 357.087993 190.175772 
L 362.280956 190.175772 
L 368.534224 191.264449 
L 364.159107 191.264449 
L 363.095183 191.066126 
z
M 357.373877 190.86407 
L 361.99869 190.86407 
L 359.689902 190.431025 
L 357.373877 190.86407 
z
" clip-path="url(#p1830b5ae9d)" style="fill: #008000"/>
   </g>
   <g id="patch_61">
    <path d="M 368.534224 190.091494 
Q 367.053691 190.133269 365.452754 190.154399 
Q 363.851817 190.175772 362.108177 190.175772 
Q 356.908476 190.175772 353.8716 190.017417 
Q 350.834725 189.859063 350.834725 189.588257 
Q 350.834725 189.31648 353.8716 189.158368 
Q 356.908476 189.000013 362.108177 189.000013 
Q 363.851817 189.000013 365.452754 189.021386 
Q 367.053691 189.042516 368.534224 189.084291 
L 368.534224 189.318665 
Q 367.040313 189.26329 365.590996 189.237545 
Q 364.14168 189.2118 362.540743 189.2118 
Q 359.668866 189.2118 358.023334 189.312108 
Q 356.382262 189.412172 356.382262 189.588257 
Q 356.382262 189.763613 358.023334 189.86392 
Q 359.668866 189.963985 362.540743 189.963985 
Q 364.14168 189.963985 365.590996 189.93824 
Q 367.040313 189.912252 368.534224 189.856877 
L 368.534224 190.091494 
z
" clip-path="url(#p1830b5ae9d)" style="fill: #0000ff"/>
   </g>
   <g id="patch_62">
    <path d="M 368.534224 174.244994 
Q 366.7492 181.622504 364.829308 185.328102 
Q 362.909416 189.000013 360.86259 189.000013 
Q 356.237396 189.000013 353.53606 167.035921 
Q 350.834725 145.07183 350.834725 107.510537 
Q 350.834725 69.511311 353.583661 47.715656 
Q 356.336563 25.92 361.124393 25.92 
Q 362.968917 25.92 364.658739 28.884479 
Q 366.352528 31.81527 367.851948 37.609478 
L 367.851948 70.117682 
Q 366.304928 62.672798 364.773774 59.000887 
Q 363.242621 55.295288 361.703534 55.295288 
Q 358.85543 55.295288 357.312376 68.837566 
Q 355.769323 82.346156 355.769323 107.510537 
Q 355.769323 132.439108 357.256842 146.04876 
Q 358.744362 159.624725 361.481398 159.624725 
Q 362.227141 159.624725 362.865783 158.849918 
Q 363.504424 158.041424 364.012164 156.357061 
L 364.012164 125.836406 
L 361.096626 125.836406 
L 361.096626 98.650789 
L 368.534224 98.650789 
L 368.534224 174.244994 
z
" clip-path="url(#p1830b5ae9d)" style="fill: #ffa600"/>
   </g>
   <g id="patch_63">
    <path d="M 387.165275 192.237269 
Q 385.380252 192.238634 383.46036 192.23932 
Q 381.540468 192.24 379.493641 192.24 
Q 374.868447 192.24 372.167112 192.235934 
Q 369.465776 192.231869 369.465776 192.224916 
Q 369.465776 192.217882 372.214712 192.213848 
Q 374.967615 192.209814 379.755445 192.209814 
Q 381.599969 192.209814 383.289791 192.210362 
Q 384.98358 192.210905 386.483 192.211977 
L 386.483 192.217995 
Q 384.93598 192.216617 383.404826 192.215937 
Q 381.873673 192.215251 380.334586 192.215251 
Q 377.486482 192.215251 375.943428 192.217758 
Q 374.400374 192.220258 374.400374 192.224916 
Q 374.400374 192.22953 375.887894 192.23205 
Q 377.375414 192.234563 380.112449 192.234563 
Q 380.858193 192.234563 381.496834 192.234419 
Q 382.135476 192.234269 382.643216 192.233958 
L 382.643216 192.228308 
L 379.727678 192.228308 
L 379.727678 192.223276 
L 387.165275 192.223276 
L 387.165275 192.237269 
z
" clip-path="url(#p1830b5ae9d)" style="fill: #ffa600"/>
   </g>
   <g id="patch_64">
    <path d="M 381.726235 191.982864 
L 374.919292 191.982864 
L 373.844512 192.209814 
L 369.465776 192.209814 
L 375.719044 190.963997 
L 380.912007 190.963997 
L 387.165275 192.209814 
L 382.790159 192.209814 
L 381.726235 191.982864 
z
M 376.004929 191.751643 
L 380.629742 191.751643 
L 378.320954 191.256093 
L 376.004929 191.751643 
z
" clip-path="url(#p1830b5ae9d)" style="fill: #008000"/>
   </g>
   <g id="patch_65">
    <path d="M 387.165275 180.321999 
Q 385.684743 185.596995 384.083806 188.265162 
Q 382.482868 190.963997 380.739229 190.963997 
Q 375.539527 190.963997 372.502652 170.968082 
Q 369.465776 150.972168 369.465776 116.776702 
Q 369.465776 82.45856 372.502652 62.493315 
Q 375.539527 42.497401 380.739229 42.497401 
Q 382.482868 42.497401 384.083806 45.196236 
Q 385.684743 47.864402 387.165275 53.139398 
L 387.165275 82.734578 
Q 385.671365 75.742141 384.222048 72.491272 
Q 382.772732 69.240402 381.171794 69.240402 
Q 378.299918 69.240402 376.654386 81.906526 
Q 375.013314 94.541981 375.013314 116.776702 
Q 375.013314 138.919416 376.654386 151.58554 
Q 378.299918 164.220995 381.171794 164.220995 
Q 382.772732 164.220995 384.222048 160.970125 
Q 385.671365 157.688587 387.165275 150.696151 
L 387.165275 180.321999 
z
" clip-path="url(#p1830b5ae9d)" style="fill: #0000ff"/>
   </g>
   <g id="patch_66">
    <path d="M 400.357287 190.280782 
L 393.550344 190.280782 
L 392.475563 192.24 
L 388.096828 192.24 
L 394.350096 181.485044 
L 399.543059 181.485044 
L 405.796327 192.24 
L 401.421211 192.24 
L 400.357287 190.280782 
z
M 394.635981 188.284684 
L 399.260793 188.284684 
L 396.952006 184.006673 
L 394.635981 188.284684 
z
" clip-path="url(#p1830b5ae9d)" style="fill: #008000"/>
   </g>
   <g id="patch_67">
    <path d="M 405.796327 180.422635 
Q 404.315795 180.949247 402.714857 181.215615 
Q 401.11392 181.485044 399.370281 181.485044 
Q 394.170579 181.485044 391.133704 179.488818 
Q 388.096828 177.492591 388.096828 174.078799 
Q 388.096828 170.65276 391.133704 168.659595 
Q 394.170579 166.663368 399.370281 166.663368 
Q 401.11392 166.663368 402.714857 166.932798 
Q 404.315795 167.199165 405.796327 167.725777 
L 405.796327 170.680315 
Q 404.302416 169.982248 402.8531 169.657708 
Q 401.403783 169.333168 399.802846 169.333168 
Q 396.93097 169.333168 395.285438 170.597649 
Q 393.644366 171.859068 393.644366 174.078799 
Q 393.644366 176.289344 395.285438 177.553825 
Q 396.93097 178.815244 399.802846 178.815244 
Q 401.403783 178.815244 402.8531 178.490704 
Q 404.302416 178.163103 405.796327 177.465036 
L 405.796327 180.422635 
z
" clip-path="url(#p1830b5ae9d)" style="fill: #0000ff"/>
   </g>
   <g id="patch_68">
    <path d="M 388.096828 151.710425 
L 405.796327 151.710425 
L 405.796327 154.626666 
L 399.428624 154.626666 
L 399.428624 166.663368 
L 394.47688 166.663368 
L 394.47688 154.626666 
L 388.096828 154.626666 
L 388.096828 151.710425 
z
" clip-path="url(#p1830b5ae9d)" style="fill: #ff0000"/>
   </g>
   <g id="patch_69">
    <path d="M 405.796327 148.577252 
Q 404.011304 150.143839 402.091412 150.930709 
Q 400.17152 151.710425 398.124693 151.710425 
Q 393.499499 151.710425 390.798164 147.046432 
Q 388.096828 142.382438 388.096828 134.406437 
Q 388.096828 126.337442 390.845764 121.709215 
Q 393.598667 117.080989 398.386497 117.080989 
Q 400.231021 117.080989 401.920843 117.710485 
Q 403.614632 118.332827 405.114052 119.563206 
L 405.114052 126.466203 
Q 403.567031 124.885309 402.035878 124.105592 
Q 400.504724 123.318722 398.965637 123.318722 
Q 396.117533 123.318722 394.57448 126.194375 
Q 393.031426 129.062874 393.031426 134.406437 
Q 393.031426 139.699927 394.518946 142.589886 
Q 396.006465 145.472692 398.743501 145.472692 
Q 399.489244 145.472692 400.127886 145.308164 
Q 400.766528 145.136484 401.274268 144.778815 
L 401.274268 138.297867 
L 398.35873 138.297867 
L 398.35873 132.525102 
L 405.796327 132.525102 
L 405.796327 148.577252 
z
" clip-path="url(#p1830b5ae9d)" style="fill: #ffa600"/>
   </g>
   <g id="patch_70">
    <path d="M 406.72788 191.376631 
L 424.427379 191.376631 
L 424.427379 191.545012 
L 418.059675 191.545012 
L 418.059675 192.24 
L 413.107932 192.24 
L 413.107932 191.545012 
L 406.72788 191.545012 
L 406.72788 191.376631 
z
" clip-path="url(#p1830b5ae9d)" style="fill: #ff0000"/>
   </g>
   <g id="patch_71">
    <path d="M 418.988338 191.077178 
L 412.181395 191.077178 
L 411.106615 191.376631 
L 406.72788 191.376631 
L 412.981148 189.732812 
L 418.174111 189.732812 
L 424.427379 191.376631 
L 420.052263 191.376631 
L 418.988338 191.077178 
z
M 413.267032 190.772089 
L 417.891845 190.772089 
L 415.583058 190.118225 
L 413.267032 190.772089 
z
" clip-path="url(#p1830b5ae9d)" style="fill: #008000"/>
   </g>
   <g id="patch_72">
    <path d="M 424.427379 189.225399 
Q 422.946846 189.476912 421.345909 189.604131 
Q 419.744972 189.732812 418.001333 189.732812 
Q 412.801631 189.732812 409.764755 188.779401 
Q 406.72788 187.82599 406.72788 186.195541 
Q 406.72788 184.559242 409.764755 183.607293 
Q 412.801631 182.653882 418.001333 182.653882 
Q 419.744972 182.653882 421.345909 182.782564 
Q 422.946846 182.909782 424.427379 183.161296 
L 424.427379 184.572402 
Q 422.933468 184.239001 421.484152 184.083999 
Q 420.034835 183.928996 418.433898 183.928996 
Q 415.562021 183.928996 413.91649 184.532921 
Q 412.275417 185.135383 412.275417 186.195541 
Q 412.275417 187.251312 413.91649 187.855236 
Q 415.562021 188.457698 418.433898 188.457698 
Q 420.034835 188.457698 421.484152 188.302696 
Q 422.933468 188.146231 424.427379 187.81283 
L 424.427379 189.225399 
z
" clip-path="url(#p1830b5ae9d)" style="fill: #0000ff"/>
   </g>
   <g id="patch_73">
    <path d="M 424.427379 173.331232 
Q 422.642356 177.992557 420.722464 180.333862 
Q 418.802572 182.653882 416.755745 182.653882 
Q 412.130551 182.653882 409.429215 168.77633 
Q 406.72788 154.898777 406.72788 131.166459 
Q 406.72788 107.157442 409.476816 93.386312 
Q 412.229719 79.615183 417.017548 79.615183 
Q 418.862073 79.615183 420.551895 81.488227 
Q 422.245684 83.339986 423.745103 87.000936 
L 423.745103 107.540565 
Q 422.198083 102.83667 420.66693 100.51665 
Q 419.135776 98.175345 417.596689 98.175345 
Q 414.748585 98.175345 413.205532 106.73175 
Q 411.662478 115.266871 411.662478 131.166459 
Q 411.662478 146.917056 413.149997 155.51603 
Q 414.637517 164.09372 417.374553 164.09372 
Q 418.120296 164.09372 418.758938 163.604174 
Q 419.39758 163.093344 419.90532 162.029115 
L 419.90532 142.745276 
L 416.989781 142.745276 
L 416.989781 125.568612 
L 424.427379 125.568612 
L 424.427379 173.331232 
z
" clip-path="url(#p1830b5ae9d)" style="fill: #ffa600"/>
   </g>
   <g id="patch_74">
    <path d="M 425.358932 190.662156 
L 443.058431 190.662156 
L 443.058431 190.96988 
L 436.690727 190.96988 
L 436.690727 192.24 
L 431.738984 192.24 
L 431.738984 190.96988 
L 425.358932 190.96988 
L 425.358932 190.662156 
z
" clip-path="url(#p1830b5ae9d)" style="fill: #ff0000"/>
   </g>
   <g id="patch_75">
    <path d="M 443.058431 190.506779 
Q 441.273407 190.584468 439.353515 190.623489 
Q 437.433623 190.662156 435.386797 190.662156 
Q 430.761603 190.662156 428.060267 190.430865 
Q 425.358932 190.199573 425.358932 189.804036 
Q 425.358932 189.403888 428.107868 189.17437 
Q 430.86077 188.944853 435.6486 188.944853 
Q 437.493124 188.944853 439.182946 188.97607 
Q 440.876735 189.006932 442.376155 189.067948 
L 442.376155 189.410273 
Q 440.829135 189.331876 439.297981 189.293209 
Q 437.766828 189.254187 436.227741 189.254187 
Q 433.379637 189.254187 431.836583 189.396793 
Q 430.29353 189.539045 430.29353 189.804036 
Q 430.29353 190.066545 431.781049 190.209861 
Q 433.268569 190.352821 436.005605 190.352821 
Q 436.751348 190.352821 437.38999 190.344662 
Q 438.028631 190.336149 438.536371 190.318412 
L 438.536371 189.997016 
L 435.620833 189.997016 
L 435.620833 189.710739 
L 443.058431 189.710739 
L 443.058431 190.506779 
z
" clip-path="url(#p1830b5ae9d)" style="fill: #ffa600"/>
   </g>
   <g id="patch_76">
    <path d="M 437.61939 188.54106 
L 430.812447 188.54106 
L 429.737667 188.944853 
L 425.358932 188.944853 
L 431.6122 186.728267 
L 436.805163 186.728267 
L 443.058431 188.944853 
L 438.683314 188.944853 
L 437.61939 188.54106 
z
M 431.898084 188.129666 
L 436.522897 188.129666 
L 434.214109 187.247972 
L 431.898084 188.129666 
z
" clip-path="url(#p1830b5ae9d)" style="fill: #008000"/>
   </g>
   <g id="patch_77">
    <path d="M 443.058431 178.687956 
Q 441.577898 182.673355 439.976961 184.689225 
Q 438.376024 186.728267 436.632384 186.728267 
Q 431.432683 186.728267 428.395807 171.620824 
Q 425.358932 156.513382 425.358932 130.677802 
Q 425.358932 104.749538 428.395807 89.665266 
Q 431.432683 74.557824 436.632384 74.557824 
Q 438.376024 74.557824 439.976961 76.596865 
Q 441.577898 78.612736 443.058431 82.598135 
L 443.058431 104.958076 
Q 441.56452 99.675106 440.115203 97.218988 
Q 438.665887 94.76287 437.06495 94.76287 
Q 434.193073 94.76287 432.547541 104.332461 
Q 430.906469 113.878882 430.906469 130.677802 
Q 430.906469 147.407209 432.547541 156.9768 
Q 434.193073 166.523221 437.06495 166.523221 
Q 438.665887 166.523221 440.115203 164.067103 
Q 441.56452 161.587814 443.058431 156.304844 
L 443.058431 178.687956 
z
" clip-path="url(#p1830b5ae9d)" style="fill: #0000ff"/>
   </g>
   <g id="patch_78">
    <path d="M 443.989983 186.377907 
L 461.689482 186.377907 
L 461.689482 187.521178 
L 455.321779 187.521178 
L 455.321779 192.24 
L 450.370035 192.24 
L 450.370035 187.521178 
L 443.989983 187.521178 
L 443.989983 186.377907 
z
" clip-path="url(#p1830b5ae9d)" style="fill: #ff0000"/>
   </g>
   <g id="patch_79">
    <path d="M 456.250442 184.555383 
L 449.443499 184.555383 
L 448.368719 186.377907 
L 443.989983 186.377907 
L 450.243251 176.373324 
L 455.436214 176.373324 
L 461.689482 186.377907 
L 457.314366 186.377907 
L 456.250442 184.555383 
z
M 450.529136 182.698553 
L 455.153949 182.698553 
L 452.845161 178.719019 
L 450.529136 182.698553 
z
" clip-path="url(#p1830b5ae9d)" style="fill: #008000"/>
   </g>
   <g id="patch_80">
    <path d="M 461.689482 174.114169 
Q 459.904459 175.243747 457.984567 175.811115 
Q 456.064675 176.373324 454.017848 176.373324 
Q 449.392654 176.373324 446.691319 173.010381 
Q 443.989983 169.647438 443.989983 163.896393 
Q 443.989983 158.078295 446.738919 154.741142 
Q 449.491822 151.403988 454.279652 151.403988 
Q 456.124176 151.403988 457.813998 151.857882 
Q 459.507787 152.306619 461.007207 153.193775 
L 461.007207 158.171137 
Q 459.460187 157.031244 457.929033 156.469034 
Q 456.39788 155.901667 454.858793 155.901667 
Q 452.010689 155.901667 450.467635 157.975138 
Q 448.924581 160.043451 448.924581 163.896393 
Q 448.924581 167.71323 450.412101 169.797017 
Q 451.899621 171.875646 454.636656 171.875646 
Q 455.3824 171.875646 456.021041 171.757015 
Q 456.659683 171.633225 457.167423 171.375331 
L 457.167423 166.702284 
L 454.251885 166.702284 
L 454.251885 162.539869 
L 461.689482 162.539869 
L 461.689482 174.114169 
z
" clip-path="url(#p1830b5ae9d)" style="fill: #ffa600"/>
   </g>
   <g id="patch_81">
    <path d="M 461.689482 149.381988 
Q 460.20895 150.384247 458.608013 150.891204 
Q 457.007075 151.403988 455.263436 151.403988 
Q 450.063734 151.403988 447.026859 147.604725 
Q 443.989983 143.805462 443.989983 137.308255 
Q 443.989983 130.78774 447.026859 126.994304 
Q 450.063734 123.195041 455.263436 123.195041 
Q 457.007075 123.195041 458.608013 123.707825 
Q 460.20895 124.214782 461.689482 125.217042 
L 461.689482 130.840184 
Q 460.195572 129.511608 458.746255 128.893936 
Q 457.296939 128.276264 455.696001 128.276264 
Q 452.824125 128.276264 451.178593 130.682853 
Q 449.537521 133.083614 449.537521 137.308255 
Q 449.537521 141.515415 451.178593 143.922003 
Q 452.824125 146.322765 455.696001 146.322765 
Q 457.296939 146.322765 458.746255 145.705093 
Q 460.195572 145.081595 461.689482 143.753018 
L 461.689482 149.381988 
z
" clip-path="url(#p1830b5ae9d)" style="fill: #0000ff"/>
   </g>
   <g id="patch_82">
    <path d="M 462.621035 190.515988 
L 480.320534 190.515988 
L 480.320534 190.852219 
L 473.952831 190.852219 
L 473.952831 192.24 
L 469.001087 192.24 
L 469.001087 190.852219 
L 462.621035 190.852219 
L 462.621035 190.515988 
z
" clip-path="url(#p1830b5ae9d)" style="fill: #ff0000"/>
   </g>
   <g id="patch_83">
    <path d="M 474.881494 190.058132 
L 468.074551 190.058132 
L 466.99977 190.515988 
L 462.621035 190.515988 
L 468.874303 188.002627 
L 474.067266 188.002627 
L 480.320534 190.515988 
L 475.945418 190.515988 
L 474.881494 190.058132 
z
M 469.160188 189.591657 
L 473.785 189.591657 
L 471.476213 188.591915 
L 469.160188 189.591657 
z
" clip-path="url(#p1830b5ae9d)" style="fill: #008000"/>
   </g>
   <g id="patch_84">
    <path d="M 480.320534 187.178399 
Q 478.840002 187.58695 477.239064 187.793601 
Q 475.638127 188.002627 473.894488 188.002627 
Q 468.694786 188.002627 465.657911 186.453934 
Q 462.621035 184.905241 462.621035 182.256787 
Q 462.621035 179.598831 465.657911 178.052513 
Q 468.694786 176.503821 473.894488 176.503821 
Q 475.638127 176.503821 477.239064 176.712847 
Q 478.840002 176.919497 480.320534 177.328048 
L 480.320534 179.620209 
Q 478.826623 179.078641 477.377307 178.82686 
Q 475.92799 178.575078 474.327053 178.575078 
Q 471.455177 178.575078 469.809645 179.556076 
Q 468.168573 180.534697 468.168573 182.256787 
Q 468.168573 183.97175 469.809645 184.952747 
Q 471.455177 185.931369 474.327053 185.931369 
Q 475.92799 185.931369 477.377307 185.679588 
Q 478.826623 185.425431 480.320534 184.883864 
L 480.320534 187.178399 
z
" clip-path="url(#p1830b5ae9d)" style="fill: #0000ff"/>
   </g>
   <g id="patch_85">
    <path d="M 480.320534 170.28756 
Q 478.535511 173.39569 476.615619 174.956852 
Q 474.695727 176.503821 472.6489 176.503821 
Q 468.023706 176.503821 465.322371 167.250392 
Q 462.621035 157.996963 462.621035 142.172465 
Q 462.621035 126.163465 465.369971 116.980999 
Q 468.122874 107.798532 472.910704 107.798532 
Q 474.755228 107.798532 476.44505 109.047461 
Q 478.138839 110.282197 479.638259 112.723286 
L 479.638259 126.418928 
Q 478.091238 123.282413 476.560085 121.735444 
Q 475.028931 120.174283 473.489844 120.174283 
Q 470.64174 120.174283 469.098687 125.879618 
Q 467.555633 131.57076 467.555633 142.172465 
Q 467.555633 152.674823 469.043153 158.408542 
Q 470.530672 164.128069 473.267708 164.128069 
Q 474.013451 164.128069 474.652093 163.801645 
Q 475.290735 163.461028 475.798475 162.751409 
L 475.798475 149.893117 
L 472.882937 149.893117 
L 472.882937 138.43987 
L 480.320534 138.43987 
L 480.320534 170.28756 
z
" clip-path="url(#p1830b5ae9d)" style="fill: #ffa600"/>
   </g>
   <g id="patch_86">
    <path d="M 493.512545 191.881834 
L 486.705603 191.881834 
L 485.630822 192.24 
L 481.252087 192.24 
L 487.505355 190.273879 
L 492.698318 190.273879 
L 498.951586 192.24 
L 494.57647 192.24 
L 493.512545 191.881834 
z
M 487.791239 191.516926 
L 492.416052 191.516926 
L 490.107265 190.73486 
L 487.791239 191.516926 
z
" clip-path="url(#p1830b5ae9d)" style="fill: #008000"/>
   </g>
   <g id="patch_87">
    <path d="M 481.252087 188.003377 
L 498.951586 188.003377 
L 498.951586 188.446188 
L 492.583882 188.446188 
L 492.583882 190.273879 
L 487.632139 190.273879 
L 487.632139 188.446188 
L 481.252087 188.446188 
L 481.252087 188.003377 
z
" clip-path="url(#p1830b5ae9d)" style="fill: #ff0000"/>
   </g>
   <g id="patch_88">
    <path d="M 498.951586 187.225856 
Q 497.166563 187.614616 495.246671 187.809884 
Q 493.326779 188.003377 491.279952 188.003377 
Q 486.654758 188.003377 483.953422 186.845971 
Q 481.252087 185.688566 481.252087 183.70926 
Q 481.252087 181.706877 484.001023 180.558348 
Q 486.753926 179.409818 491.541755 179.409818 
Q 493.38628 179.409818 495.076102 179.566032 
Q 496.769891 179.720471 498.26931 180.025799 
L 498.26931 181.73883 
Q 496.72229 181.346519 495.191137 181.153027 
Q 493.659983 180.957759 492.120896 180.957759 
Q 489.272792 180.957759 487.729739 181.671374 
Q 486.186685 182.383214 486.186685 183.70926 
Q 486.186685 185.02288 487.674205 185.740045 
Q 489.161724 186.455436 491.89876 186.455436 
Q 492.644503 186.455436 493.283145 186.414607 
Q 493.921787 186.372003 494.429527 186.283245 
L 494.429527 184.674948 
L 491.513988 184.674948 
L 491.513988 183.242392 
L 498.951586 183.242392 
L 498.951586 187.225856 
z
" clip-path="url(#p1830b5ae9d)" style="fill: #ffa600"/>
   </g>
   <g id="patch_89">
    <path d="M 498.951586 174.724412 
Q 497.471053 177.046861 495.870116 178.221588 
Q 494.269179 179.409818 492.52554 179.409818 
Q 487.325838 179.409818 484.288962 170.606117 
Q 481.252087 161.802416 481.252087 146.747006 
Q 481.252087 131.637587 484.288962 122.847388 
Q 487.325838 114.043687 492.52554 114.043687 
Q 494.269179 114.043687 495.870116 115.231917 
Q 497.471053 116.406644 498.951586 118.729093 
L 498.951586 131.75911 
Q 497.457675 128.680516 496.008359 127.249239 
Q 494.559042 125.817962 492.958105 125.817962 
Q 490.086228 125.817962 488.440697 131.39454 
Q 486.799624 136.957615 486.799624 146.747006 
Q 486.799624 156.49589 488.440697 162.072468 
Q 490.086228 167.635543 492.958105 167.635543 
Q 494.559042 167.635543 496.008359 166.204266 
Q 497.457675 164.759487 498.951586 161.680892 
L 498.951586 174.724412 
z
" clip-path="url(#p1830b5ae9d)" style="fill: #0000ff"/>
   </g>
   <g id="patch_90">
    <path d="M 499.883139 187.926404 
L 517.582638 187.926404 
L 517.582638 188.767675 
L 511.214934 188.767675 
L 511.214934 192.24 
L 506.263191 192.24 
L 506.263191 188.767675 
L 499.883139 188.767675 
L 499.883139 187.926404 
z
" clip-path="url(#p1830b5ae9d)" style="fill: #ff0000"/>
   </g>
   <g id="patch_91">
    <path d="M 512.143597 187.128438 
L 505.336654 187.128438 
L 504.261874 187.926404 
L 499.883139 187.926404 
L 506.136407 183.546044 
L 511.32937 183.546044 
L 517.582638 187.926404 
L 513.207521 187.926404 
L 512.143597 187.128438 
z
M 506.422291 186.315453 
L 511.047104 186.315453 
L 508.738316 184.573072 
L 506.422291 186.315453 
z
" clip-path="url(#p1830b5ae9d)" style="fill: #008000"/>
   </g>
   <g id="patch_92">
    <path d="M 517.582638 181.695022 
Q 515.797614 182.620533 513.877722 183.085401 
Q 511.957831 183.546044 509.911004 183.546044 
Q 505.28581 183.546044 502.584474 180.790642 
Q 499.883139 178.035241 499.883139 173.323166 
Q 499.883139 168.556152 502.632075 165.821881 
Q 505.384978 163.08761 510.172807 163.08761 
Q 512.017331 163.08761 513.707153 163.459505 
Q 515.400942 163.827173 516.900362 164.554058 
L 516.900362 168.632222 
Q 515.353342 167.698259 513.822188 167.237617 
Q 512.291035 166.772748 510.751948 166.772748 
Q 507.903844 166.772748 506.36079 168.471631 
Q 504.817737 170.166287 504.817737 173.323166 
Q 504.817737 176.450462 506.305256 178.157797 
Q 507.792776 179.860905 510.529812 179.860905 
Q 511.275555 179.860905 511.914197 179.763706 
Q 512.552838 179.66228 513.060578 179.450976 
L 513.060578 175.622151 
L 510.14504 175.622151 
L 510.14504 172.211708 
L 517.582638 172.211708 
L 517.582638 181.695022 
z
" clip-path="url(#p1830b5ae9d)" style="fill: #ffa600"/>
   </g>
   <g id="patch_93">
    <path d="M 517.582638 161.177498 
Q 516.102105 162.124297 514.501168 162.603201 
Q 512.900231 163.08761 511.156591 163.08761 
Q 505.95689 163.08761 502.920014 159.498582 
Q 499.883139 155.909554 499.883139 149.771875 
Q 499.883139 143.612178 502.920014 140.028655 
Q 505.95689 136.439627 511.156591 136.439627 
Q 512.900231 136.439627 514.501168 136.924036 
Q 516.102105 137.40294 517.582638 138.349738 
L 517.582638 143.66172 
Q 516.088727 142.406661 514.63941 141.823169 
Q 513.190094 141.239677 511.589157 141.239677 
Q 508.71728 141.239677 507.071748 143.513095 
Q 505.430676 145.781008 505.430676 149.771875 
Q 505.430676 153.746229 507.071748 156.019647 
Q 508.71728 158.28756 511.589157 158.28756 
Q 513.190094 158.28756 514.63941 157.704068 
Q 516.088727 157.115071 517.582638 155.860012 
L 517.582638 161.177498 
z
" clip-path="url(#p1830b5ae9d)" style="fill: #0000ff"/>
   </g>
   <g id="patch_94">
    <path d="M 518.51419 190.321128 
L 536.213689 190.321128 
L 536.213689 190.695361 
L 529.845986 190.695361 
L 529.845986 192.24 
L 524.894242 192.24 
L 524.894242 190.695361 
L 518.51419 190.695361 
L 518.51419 190.321128 
z
" clip-path="url(#p1830b5ae9d)" style="fill: #ff0000"/>
   </g>
   <g id="patch_95">
    <path d="M 530.774649 189.76931 
L 523.967706 189.76931 
L 522.892926 190.321128 
L 518.51419 190.321128 
L 524.767458 187.291971 
L 529.960421 187.291971 
L 536.213689 190.321128 
L 531.838573 190.321128 
L 530.774649 189.76931 
z
M 525.053343 189.207104 
L 529.678156 189.207104 
L 527.369368 188.002193 
L 525.053343 189.207104 
z
" clip-path="url(#p1830b5ae9d)" style="fill: #008000"/>
   </g>
   <g id="patch_96">
    <path d="M 536.213689 185.758189 
Q 534.733157 186.51845 533.13222 186.903 
Q 531.531282 187.291971 529.787643 187.291971 
Q 524.587941 187.291971 521.551066 184.410052 
Q 518.51419 181.528133 518.51419 176.599698 
Q 518.51419 171.653582 521.551066 168.776084 
Q 524.587941 165.894165 529.787643 165.894165 
Q 531.531282 165.894165 533.13222 166.283135 
Q 534.733157 166.667686 536.213689 167.427947 
L 536.213689 171.693364 
Q 534.719779 170.685576 533.270462 170.217043 
Q 531.821146 169.74851 530.220208 169.74851 
Q 527.348332 169.74851 525.7028 171.57402 
Q 524.061728 173.39511 524.061728 176.599698 
Q 524.061728 179.791025 525.7028 181.616535 
Q 527.348332 183.437625 530.220208 183.437625 
Q 531.821146 183.437625 533.270462 182.969092 
Q 534.719779 182.496139 536.213689 181.488352 
L 536.213689 185.758189 
z
" clip-path="url(#p1830b5ae9d)" style="fill: #0000ff"/>
   </g>
   <g id="patch_97">
    <path d="M 536.213689 162.411854 
Q 534.428666 164.15301 532.508774 165.027562 
Q 530.588882 165.894165 528.542055 165.894165 
Q 523.916861 165.894165 521.215526 160.710452 
Q 518.51419 155.526739 518.51419 146.661953 
Q 518.51419 137.693811 521.263126 132.549851 
Q 524.016029 127.40589 528.803859 127.40589 
Q 530.648383 127.40589 532.338205 128.105532 
Q 534.031994 128.797224 535.531414 130.164707 
L 535.531414 137.83692 
Q 533.984394 136.079864 532.45324 135.213262 
Q 530.922087 134.338709 529.383 134.338709 
Q 526.534896 134.338709 524.991842 137.534802 
Q 523.448788 140.722944 523.448788 146.661953 
Q 523.448788 152.545308 524.936308 155.757302 
Q 526.423828 158.961346 529.160864 158.961346 
Q 529.906607 158.961346 530.545248 158.778485 
Q 531.18389 158.587673 531.69163 158.190149 
L 531.69163 150.987014 
L 528.776092 150.987014 
L 528.776092 144.570977 
L 536.213689 144.570977 
L 536.213689 162.411854 
z
" clip-path="url(#p1830b5ae9d)" style="fill: #ffa600"/>
   </g>
   <g id="patch_98">
    <path d="M 537.145242 189.92772 
L 554.844741 189.92772 
L 554.844741 190.378679 
L 548.477038 190.378679 
L 548.477038 192.24 
L 543.525294 192.24 
L 543.525294 190.378679 
L 537.145242 190.378679 
L 537.145242 189.92772 
z
" clip-path="url(#p1830b5ae9d)" style="fill: #ff0000"/>
   </g>
   <g id="patch_99">
    <path d="M 549.405701 189.313477 
L 542.598758 189.313477 
L 541.523977 189.92772 
L 537.145242 189.92772 
L 543.39851 186.555886 
L 548.591473 186.555886 
L 554.844741 189.92772 
L 550.469625 189.92772 
L 549.405701 189.313477 
z
M 543.684395 188.687671 
L 548.309208 188.687671 
L 546.00042 187.346453 
L 543.684395 188.687671 
z
" clip-path="url(#p1830b5ae9d)" style="fill: #008000"/>
   </g>
   <g id="patch_100">
    <path d="M 554.844741 184.850768 
Q 553.059718 185.703327 551.139826 186.131553 
Q 549.219934 186.555886 547.173107 186.555886 
Q 542.547913 186.555886 539.846578 184.017673 
Q 537.145242 181.47946 537.145242 177.138805 
Q 537.145242 172.747541 539.894178 170.228793 
Q 542.647081 167.710045 547.434911 167.710045 
Q 549.279435 167.710045 550.969257 168.052626 
Q 552.663046 168.391314 554.162466 169.060904 
L 554.162466 172.817615 
Q 552.615445 171.95727 551.084292 171.532936 
Q 549.553138 171.10471 548.014052 171.10471 
Q 545.165947 171.10471 543.622894 172.669682 
Q 542.07984 174.230761 542.07984 177.138805 
Q 542.07984 180.019599 543.56736 181.592356 
Q 545.054879 183.161221 547.791915 183.161221 
Q 548.537658 183.161221 549.1763 183.071683 
Q 549.814942 182.978252 550.322682 182.783604 
L 550.322682 179.256578 
L 547.407144 179.256578 
L 547.407144 176.114956 
L 554.844741 176.114956 
L 554.844741 184.850768 
z
" clip-path="url(#p1830b5ae9d)" style="fill: #ffa600"/>
   </g>
   <g id="patch_101">
    <path d="M 554.844741 164.963984 
Q 553.364209 166.325144 551.763271 167.013638 
Q 550.162334 167.710045 548.418695 167.710045 
Q 543.218993 167.710045 540.182118 162.550299 
Q 537.145242 157.390553 537.145242 148.566753 
Q 537.145242 139.711299 540.182118 134.559466 
Q 543.218993 129.39972 548.418695 129.39972 
Q 550.162334 129.39972 551.763271 130.096127 
Q 553.364209 130.784621 554.844741 132.145781 
L 554.844741 139.782522 
Q 553.35083 137.978194 551.901514 137.139339 
Q 550.452197 136.300485 548.85126 136.300485 
Q 545.979384 136.300485 544.333852 139.568852 
Q 542.69278 142.829305 542.69278 148.566753 
Q 542.69278 154.28046 544.333852 157.548827 
Q 545.979384 160.80928 548.85126 160.80928 
Q 550.452197 160.80928 551.901514 159.970426 
Q 553.35083 159.123658 554.844741 157.319329 
L 554.844741 164.963984 
z
" clip-path="url(#p1830b5ae9d)" style="fill: #0000ff"/>
   </g>
   <g id="patch_102">
    <path d="M 555.776294 189.770797 
L 573.475793 189.770797 
L 573.475793 190.25236 
L 567.108089 190.25236 
L 567.108089 192.24 
L 562.156346 192.24 
L 562.156346 190.25236 
L 555.776294 190.25236 
L 555.776294 189.770797 
z
" clip-path="url(#p1830b5ae9d)" style="fill: #ff0000"/>
   </g>
   <g id="patch_103">
    <path d="M 568.036752 189.14686 
L 561.22981 189.14686 
L 560.155029 189.770797 
L 555.776294 189.770797 
L 562.029562 186.345749 
L 567.222525 186.345749 
L 573.475793 189.770797 
L 569.100677 189.770797 
L 568.036752 189.14686 
z
M 562.315446 188.511178 
L 566.940259 188.511178 
L 564.631472 187.148793 
L 562.315446 188.511178 
z
" clip-path="url(#p1830b5ae9d)" style="fill: #008000"/>
   </g>
   <g id="patch_104">
    <path d="M 573.475793 184.26405 
Q 571.69077 185.304899 569.770878 185.827701 
Q 567.850986 186.345749 565.804159 186.345749 
Q 561.178965 186.345749 558.477629 183.246964 
Q 555.776294 180.148179 555.776294 174.848877 
Q 555.776294 169.487789 558.52523 166.412768 
Q 561.278133 163.337747 566.065962 163.337747 
Q 567.910487 163.337747 569.600309 163.755988 
Q 571.294098 164.169476 572.793517 164.986947 
L 572.793517 169.573339 
Q 571.246497 168.522984 569.715344 168.004935 
Q 568.18419 167.482134 566.645103 167.482134 
Q 563.796999 167.482134 562.253946 169.392735 
Q 560.710892 171.298582 560.710892 174.848877 
Q 560.710892 178.365903 562.198412 180.286009 
Q 563.685931 182.201362 566.422967 182.201362 
Q 567.16871 182.201362 567.807352 182.092049 
Q 568.445994 181.977983 568.953734 181.740346 
L 568.953734 177.434366 
L 566.038195 177.434366 
L 566.038195 173.598907 
L 573.475793 173.598907 
L 573.475793 184.26405 
z
" clip-path="url(#p1830b5ae9d)" style="fill: #ffa600"/>
   </g>
   <g id="patch_105">
    <path d="M 573.475793 161.084681 
Q 571.99526 162.201474 570.394323 162.766364 
Q 568.793386 163.337747 567.049747 163.337747 
Q 561.850045 163.337747 558.813169 159.10432 
Q 555.776294 154.870893 555.776294 147.631213 
Q 555.776294 140.365561 558.813169 136.138627 
Q 561.850045 131.9052 567.049747 131.9052 
Q 568.793386 131.9052 570.394323 132.476583 
Q 571.99526 133.041473 573.475793 134.158266 
L 573.475793 140.423998 
Q 571.981882 138.943597 570.532566 138.255341 
Q 569.083249 137.567084 567.482312 137.567084 
Q 564.610435 137.567084 562.964904 140.248688 
Q 561.323831 142.923798 561.323831 147.631213 
Q 561.323831 152.319149 562.964904 155.000753 
Q 564.610435 157.675863 567.482312 157.675863 
Q 569.083249 157.675863 570.532566 156.987606 
Q 571.981882 156.292857 573.475793 154.812456 
L 573.475793 161.084681 
z
" clip-path="url(#p1830b5ae9d)" style="fill: #0000ff"/>
   </g>
   <g id="patch_106">
    <path d="M 586.667804 191.535081 
L 579.860861 191.535081 
L 578.786081 192.24 
L 574.407346 192.24 
L 580.660614 188.370407 
L 585.853577 188.370407 
L 592.106845 192.24 
L 587.731728 192.24 
L 586.667804 191.535081 
z
M 580.946498 190.816892 
L 585.571311 190.816892 
L 583.262523 189.27768 
L 580.946498 190.816892 
z
" clip-path="url(#p1830b5ae9d)" style="fill: #008000"/>
   </g>
   <g id="patch_107">
    <path d="M 574.407346 182.769555 
L 592.106845 182.769555 
L 592.106845 183.861877 
L 585.739141 183.861877 
L 585.739141 188.370407 
L 580.787398 188.370407 
L 580.787398 183.861877 
L 574.407346 183.861877 
L 574.407346 182.769555 
z
" clip-path="url(#p1830b5ae9d)" style="fill: #ff0000"/>
   </g>
   <g id="patch_108">
    <path d="M 592.106845 181.145698 
Q 590.626312 181.950607 589.025375 182.357741 
Q 587.424438 182.769555 585.680798 182.769555 
Q 580.481097 182.769555 577.444221 179.718388 
Q 574.407346 176.667221 574.407346 171.449352 
Q 574.407346 166.212763 577.444221 163.166276 
Q 580.481097 160.115109 585.680798 160.115109 
Q 587.424438 160.115109 589.025375 160.526923 
Q 590.626312 160.934057 592.106845 161.738966 
L 592.106845 166.25488 
Q 590.612934 165.187908 589.163617 164.691859 
Q 587.714301 164.19581 586.113364 164.19581 
Q 583.241487 164.19581 581.595955 166.128528 
Q 579.954883 168.056566 579.954883 171.449352 
Q 579.954883 174.828098 581.595955 176.760815 
Q 583.241487 178.688853 586.113364 178.688853 
Q 587.714301 178.688853 589.163617 178.192805 
Q 590.612934 177.692077 592.106845 176.625104 
L 592.106845 181.145698 
z
" clip-path="url(#p1830b5ae9d)" style="fill: #0000ff"/>
   </g>
   <g id="patch_109">
    <path d="M 592.106845 157.346127 
Q 590.321821 158.730618 588.401929 159.426024 
Q 586.482038 160.115109 584.435211 160.115109 
Q 579.810017 160.115109 577.108681 155.993245 
Q 574.407346 151.871381 574.407346 144.822489 
Q 574.407346 137.691412 577.156282 133.601157 
Q 579.909185 129.510903 584.697014 129.510903 
Q 586.541538 129.510903 588.23136 130.067228 
Q 589.925149 130.617232 591.424569 131.704594 
L 591.424569 137.805205 
Q 589.877549 136.408071 588.346395 135.718986 
Q 586.815242 135.02358 585.276155 135.02358 
Q 582.428051 135.02358 580.884997 137.564974 
Q 579.341944 140.100047 579.341944 144.822489 
Q 579.341944 149.500677 580.829463 152.054716 
Q 582.316983 154.602432 585.054019 154.602432 
Q 585.799762 154.602432 586.438404 154.457029 
Q 587.077045 154.305304 587.584785 153.98921 
L 587.584785 148.26159 
L 584.669247 148.26159 
L 584.669247 143.159835 
L 592.106845 143.159835 
L 592.106845 157.346127 
z
" clip-path="url(#p1830b5ae9d)" style="fill: #ffa600"/>
   </g>
   <g id="patch_110">
    <path d="M 605.298856 191.689703 
L 598.491913 191.689703 
L 597.417133 192.24 
L 593.038397 192.24 
L 599.291665 189.219193 
L 604.484628 189.219193 
L 610.737896 192.24 
L 606.36278 192.24 
L 605.298856 191.689703 
z
M 599.57755 191.129048 
L 604.202363 191.129048 
L 601.893575 189.927458 
L 599.57755 191.129048 
z
" clip-path="url(#p1830b5ae9d)" style="fill: #008000"/>
   </g>
   <g id="patch_111">
    <path d="M 593.038397 185.14179 
L 610.737896 185.14179 
L 610.737896 185.936997 
L 604.370193 185.936997 
L 604.370193 189.219193 
L 599.418449 189.219193 
L 599.418449 185.936997 
L 593.038397 185.936997 
L 593.038397 185.14179 
z
" clip-path="url(#p1830b5ae9d)" style="fill: #ff0000"/>
   </g>
   <g id="patch_112">
    <path d="M 610.737896 183.255628 
Q 608.952873 184.198709 607.032981 184.672403 
Q 605.113089 185.14179 603.066262 185.14179 
Q 598.441068 185.14179 595.739733 182.334079 
Q 593.038397 179.526368 593.038397 174.724837 
Q 593.038397 169.867325 595.787333 167.081145 
Q 598.540236 164.294965 603.328066 164.294965 
Q 605.17259 164.294965 606.862412 164.67392 
Q 608.556201 165.048569 610.055621 165.789253 
L 610.055621 169.944838 
Q 608.508601 168.993145 606.977447 168.523757 
Q 605.446294 168.050064 603.907207 168.050064 
Q 601.059103 168.050064 599.516049 169.781199 
Q 597.972995 171.508027 597.972995 174.724837 
Q 597.972995 177.911503 599.460515 179.651251 
Q 600.948035 181.386692 603.685071 181.386692 
Q 604.430814 181.386692 605.069455 181.287647 
Q 605.708097 181.184295 606.215837 180.96898 
L 606.215837 177.067467 
L 603.300299 177.067467 
L 603.300299 173.592279 
L 610.737896 173.592279 
L 610.737896 183.255628 
z
" clip-path="url(#p1830b5ae9d)" style="fill: #ffa600"/>
   </g>
   <g id="patch_113">
    <path d="M 610.737896 161.56892 
Q 609.257364 162.920159 607.656427 163.603634 
Q 606.055489 164.294965 604.31185 164.294965 
Q 599.112148 164.294965 596.075273 159.172829 
Q 593.038397 154.050692 593.038397 145.29121 
Q 593.038397 136.500304 596.075273 131.386023 
Q 599.112148 126.263887 604.31185 126.263887 
Q 606.055489 126.263887 607.656427 126.955218 
Q 609.257364 127.638693 610.737896 128.989932 
L 610.737896 136.571008 
Q 609.243986 134.779831 607.794669 133.947091 
Q 606.345353 133.114351 604.744415 133.114351 
Q 601.872539 133.114351 600.227007 136.358895 
Q 598.585935 139.595583 598.585935 145.29121 
Q 598.585935 150.963269 600.227007 154.207813 
Q 601.872539 157.4445 604.744415 157.4445 
Q 606.345353 157.4445 607.794669 156.61176 
Q 609.243986 155.771164 610.737896 153.979988 
L 610.737896 161.56892 
z
" clip-path="url(#p1830b5ae9d)" style="fill: #0000ff"/>
   </g>
   <g id="patch_114">
    <path d="M 623.929908 191.570359 
L 617.122965 191.570359 
L 616.048184 192.24 
L 611.669449 192.24 
L 617.922717 188.564067 
L 623.11568 188.564067 
L 629.368948 192.24 
L 624.993832 192.24 
L 623.929908 191.570359 
z
M 618.208602 190.888114 
L 622.833415 190.888114 
L 620.524627 189.425934 
L 618.208602 190.888114 
z
" clip-path="url(#p1830b5ae9d)" style="fill: #008000"/>
   </g>
   <g id="patch_115">
    <path d="M 611.669449 182.574636 
L 629.368948 182.574636 
L 629.368948 183.742742 
L 623.001245 183.742742 
L 623.001245 188.564067 
L 618.049501 188.564067 
L 618.049501 183.742742 
L 611.669449 183.742742 
L 611.669449 182.574636 
z
" clip-path="url(#p1830b5ae9d)" style="fill: #ff0000"/>
   </g>
   <g id="patch_116">
    <path d="M 629.368948 180.467668 
Q 627.583925 181.521152 625.664033 182.050299 
Q 623.744141 182.574636 621.697314 182.574636 
Q 617.07212 182.574636 614.370785 179.438236 
Q 611.669449 176.301837 611.669449 170.938208 
Q 611.669449 165.512044 614.418385 162.399697 
Q 617.171288 159.287349 621.959118 159.287349 
Q 623.803642 159.287349 625.493464 159.710667 
Q 627.187253 160.129174 628.686673 160.956568 
L 628.686673 165.598632 
Q 627.139652 164.535527 625.608499 164.01119 
Q 624.077345 163.482043 622.538259 163.482043 
Q 619.690154 163.482043 618.147101 165.415836 
Q 616.604047 167.344818 616.604047 170.938208 
Q 616.604047 174.497926 618.091567 176.441339 
Q 619.579086 178.379942 622.316122 178.379942 
Q 623.061865 178.379942 623.700507 178.269302 
Q 624.339149 178.153852 624.846889 177.91333 
L 624.846889 173.555082 
L 621.931351 173.555082 
L 621.931351 169.673065 
L 629.368948 169.673065 
L 629.368948 180.467668 
z
" clip-path="url(#p1830b5ae9d)" style="fill: #ffa600"/>
   </g>
   <g id="patch_117">
    <path d="M 629.368948 157.313547 
Q 627.888416 158.291916 626.287478 158.786788 
Q 624.686541 159.287349 622.942902 159.287349 
Q 617.7432 159.287349 614.706325 155.578649 
Q 611.669449 151.86995 611.669449 145.527618 
Q 611.669449 139.162534 614.706325 135.459522 
Q 617.7432 131.750823 622.942902 131.750823 
Q 624.686541 131.750823 626.287478 132.251383 
Q 627.888416 132.746256 629.368948 133.724625 
L 629.368948 139.213728 
Q 627.875037 137.91682 626.425721 137.313872 
Q 624.976404 136.710924 623.375467 136.710924 
Q 620.503591 136.710924 618.858059 139.060146 
Q 617.216987 141.403681 617.216987 145.527618 
Q 617.216987 149.634491 618.858059 151.983713 
Q 620.503591 154.327248 623.375467 154.327248 
Q 624.976404 154.327248 626.425721 153.724299 
Q 627.875037 153.115663 629.368948 151.818756 
L 629.368948 157.313547 
z
" clip-path="url(#p1830b5ae9d)" style="fill: #0000ff"/>
   </g>
   <g id="patch_118">
    <path d="M 642.560959 191.918473 
L 635.754017 191.918473 
L 634.679236 192.24 
L 630.300501 192.24 
L 636.553769 190.475005 
L 641.746732 190.475005 
L 648 192.24 
L 643.624884 192.24 
L 642.560959 191.918473 
z
M 636.839653 191.590893 
L 641.464466 191.590893 
L 639.155679 190.888829 
L 636.839653 191.590893 
z
" clip-path="url(#p1830b5ae9d)" style="fill: #008000"/>
   </g>
   <g id="patch_119">
    <path d="M 630.300501 185.632993 
L 648 185.632993 
L 648 186.57732 
L 641.632296 186.57732 
L 641.632296 190.475005 
L 636.680553 190.475005 
L 636.680553 186.57732 
L 630.300501 186.57732 
L 630.300501 185.632993 
z
" clip-path="url(#p1830b5ae9d)" style="fill: #ff0000"/>
   </g>
   <g id="patch_120">
    <path d="M 648 183.274295 
Q 646.214977 184.453644 644.295085 185.046011 
Q 642.375193 185.632993 640.328366 185.632993 
Q 635.703172 185.632993 633.001836 182.121872 
Q 630.300501 178.610752 630.300501 172.606305 
Q 630.300501 166.531851 633.049437 163.047656 
Q 635.80234 159.563462 640.590169 159.563462 
Q 642.434694 159.563462 644.124516 160.037355 
Q 645.818305 160.505863 647.317724 161.43211 
L 647.317724 166.628784 
Q 645.770704 165.438665 644.239551 164.851683 
Q 642.708397 164.259316 641.16931 164.259316 
Q 638.321206 164.259316 636.778153 166.424148 
Q 635.235099 168.583595 635.235099 172.606305 
Q 635.235099 176.591319 636.722619 178.766921 
Q 638.210138 180.937138 640.947174 180.937138 
Q 641.692917 180.937138 642.331559 180.81328 
Q 642.970201 180.684036 643.477941 180.414778 
L 643.477941 175.535829 
L 640.562402 175.535829 
L 640.562402 171.190009 
L 648 171.190009 
L 648 183.274295 
z
" clip-path="url(#p1830b5ae9d)" style="fill: #ffa600"/>
   </g>
   <g id="patch_121">
    <path d="M 648 157.578404 
Q 646.519467 158.562352 644.91853 159.060046 
Q 643.317593 159.563462 641.573954 159.563462 
Q 636.374252 159.563462 633.337376 155.833613 
Q 630.300501 152.103765 630.300501 145.725266 
Q 630.300501 139.323885 633.337376 135.599758 
Q 636.374252 131.869909 641.573954 131.869909 
Q 643.317593 131.869909 644.91853 132.373324 
Q 646.519467 132.871019 648 133.854967 
L 648 139.375371 
Q 646.506089 138.071068 645.056773 137.464682 
Q 643.607456 136.858295 642.006519 136.858295 
Q 639.134642 136.858295 637.489111 139.220914 
Q 635.848038 141.577812 635.848038 145.725266 
Q 635.848038 149.855559 637.489111 152.218177 
Q 639.134642 154.575075 642.006519 154.575075 
Q 643.607456 154.575075 645.056773 153.968689 
Q 646.506089 153.356582 648 152.052279 
L 648 157.578404 
z
" clip-path="url(#p1830b5ae9d)" style="fill: #0000ff"/>
   </g>
   <g id="patch_122">
    <path d="M 369.465776 192.383505 
L 387.165275 192.383505 
L 387.165275 192.355517 
L 380.797572 192.355517 
L 380.797572 192.24 
L 375.845828 192.24 
L 375.845828 192.355517 
L 369.465776 192.355517 
L 369.465776 192.383505 
z
" clip-path="url(#p1830b5ae9d)" style="fill: #ff0000"/>
   </g>
   <g id="matplotlib.axis_1">
    <g id="xtick_1">
     <g id="line2d_2">
      <defs>
       <path id="mc4f5543a64" d="M 0 0 
L 0 3.5 
" style="stroke: #000000; stroke-width: 0.8"/>
      </defs>
      <g>
       <use xlink:href="#mc4f5543a64" x="98.84975" y="192.24" style="stroke: #000000; stroke-width: 0.8"/>
      </g>
     </g>
     <g id="text_1">
      <!-- 0 -->
      <g transform="translate(95.6685 206.838437) scale(0.1 -0.1)">
       <defs>
        <path id="DejaVuSans-30" d="M 2034 4250 
Q 1547 4250 1301 3770 
Q 1056 3291 1056 2328 
Q 1056 1369 1301 889 
Q 1547 409 2034 409 
Q 2525 409 2770 889 
Q 3016 1369 3016 2328 
Q 3016 3291 2770 3770 
Q 2525 4250 2034 4250 
z
M 2034 4750 
Q 2819 4750 3233 4129 
Q 3647 3509 3647 2328 
Q 3647 1150 3233 529 
Q 2819 -91 2034 -91 
Q 1250 -91 836 529 
Q 422 1150 422 2328 
Q 422 3509 836 4129 
Q 1250 4750 2034 4750 
z
" transform="scale(0.015625)"/>
       </defs>
       <use xlink:href="#DejaVuSans-30"/>
      </g>
     </g>
    </g>
    <g id="xtick_2">
     <g id="line2d_3">
      <g>
       <use xlink:href="#mc4f5543a64" x="192.005008" y="192.24" style="stroke: #000000; stroke-width: 0.8"/>
      </g>
     </g>
     <g id="text_2">
      <!-- 5 -->
      <g transform="translate(188.823758 206.838437) scale(0.1 -0.1)">
       <defs>
        <path id="DejaVuSans-35" d="M 691 4666 
L 3169 4666 
L 3169 4134 
L 1269 4134 
L 1269 2991 
Q 1406 3038 1543 3061 
Q 1681 3084 1819 3084 
Q 2600 3084 3056 2656 
Q 3513 2228 3513 1497 
Q 3513 744 3044 326 
Q 2575 -91 1722 -91 
Q 1428 -91 1123 -41 
Q 819 9 494 109 
L 494 744 
Q 775 591 1075 516 
Q 1375 441 1709 441 
Q 2250 441 2565 725 
Q 2881 1009 2881 1497 
Q 2881 1984 2565 2268 
Q 2250 2553 1709 2553 
Q 1456 2553 1204 2497 
Q 953 2441 691 2322 
L 691 4666 
z
" transform="scale(0.015625)"/>
       </defs>
       <use xlink:href="#DejaVuSans-35"/>
      </g>
     </g>
    </g>
    <g id="xtick_3">
     <g id="line2d_4">
      <g>
       <use xlink:href="#mc4f5543a64" x="285.160267" y="192.24" style="stroke: #000000; stroke-width: 0.8"/>
      </g>
     </g>
     <g id="text_3">
      <!-- 10 -->
      <g transform="translate(278.797767 206.838437) scale(0.1 -0.1)">
       <defs>
        <path id="DejaVuSans-31" d="M 794 531 
L 1825 531 
L 1825 4091 
L 703 3866 
L 703 4441 
L 1819 4666 
L 2450 4666 
L 2450 531 
L 3481 531 
L 3481 0 
L 794 0 
L 794 531 
z
" transform="scale(0.015625)"/>
       </defs>
       <use xlink:href="#DejaVuSans-31"/>
       <use xlink:href="#DejaVuSans-30" x="63.623047"/>
      </g>
     </g>
    </g>
    <g id="xtick_4">
     <g id="line2d_5">
      <g>
       <use xlink:href="#mc4f5543a64" x="378.315526" y="192.24" style="stroke: #000000; stroke-width: 0.8"/>
      </g>
     </g>
     <g id="text_4">
      <!-- 15 -->
      <g transform="translate(371.953026 206.838437) scale(0.1 -0.1)">
       <use xlink:href="#DejaVuSans-31"/>
       <use xlink:href="#DejaVuSans-35" x="63.623047"/>
      </g>
     </g>
    </g>
    <g id="xtick_5">
     <g id="line2d_6">
      <g>
       <use xlink:href="#mc4f5543a64" x="471.470785" y="192.24" style="stroke: #000000; stroke-width: 0.8"/>
      </g>
     </g>
     <g id="text_5">
      <!-- 20 -->
      <g transform="translate(465.108285 206.838437) scale(0.1 -0.1)">
       <defs>
        <path id="DejaVuSans-32" d="M 1228 531 
L 3431 531 
L 3431 0 
L 469 0 
L 469 531 
Q 828 903 1448 1529 
Q 2069 2156 2228 2338 
Q 2531 2678 2651 2914 
Q 2772 3150 2772 3378 
Q 2772 3750 2511 3984 
Q 2250 4219 1831 4219 
Q 1534 4219 1204 4116 
Q 875 4013 500 3803 
L 500 4441 
Q 881 4594 1212 4672 
Q 1544 4750 1819 4750 
Q 2544 4750 2975 4387 
Q 3406 4025 3406 3419 
Q 3406 3131 3298 2873 
Q 3191 2616 2906 2266 
Q 2828 2175 2409 1742 
Q 1991 1309 1228 531 
z
" transform="scale(0.015625)"/>
       </defs>
       <use xlink:href="#DejaVuSans-32"/>
       <use xlink:href="#DejaVuSans-30" x="63.623047"/>
      </g>
     </g>
    </g>
    <g id="xtick_6">
     <g id="line2d_7">
      <g>
       <use xlink:href="#mc4f5543a64" x="564.626043" y="192.24" style="stroke: #000000; stroke-width: 0.8"/>
      </g>
     </g>
     <g id="text_6">
      <!-- 25 -->
      <g transform="translate(558.263543 206.838437) scale(0.1 -0.1)">
       <use xlink:href="#DejaVuSans-32"/>
       <use xlink:href="#DejaVuSans-35" x="63.623047"/>
      </g>
     </g>
    </g>
   </g>
   <g id="matplotlib.axis_2">
    <g id="ytick_1">
     <g id="line2d_8">
      <defs>
       <path id="mfd6f9fc312" d="M 0 0 
L -3.5 0 
" style="stroke: #000000; stroke-width: 0.8"/>
      </defs>
      <g>
       <use xlink:href="#mfd6f9fc312" x="90" y="192.24" style="stroke: #000000; stroke-width: 0.8"/>
      </g>
     </g>
     <g id="text_7">
      <!-- 0.000 -->
      <g transform="translate(54.371875 196.039219) scale(0.1 -0.1)">
       <defs>
        <path id="DejaVuSans-2e" d="M 684 794 
L 1344 794 
L 1344 0 
L 684 0 
L 684 794 
z
" transform="scale(0.015625)"/>
       </defs>
       <use xlink:href="#DejaVuSans-30"/>
       <use xlink:href="#DejaVuSans-2e" x="63.623047"/>
       <use xlink:href="#DejaVuSans-30" x="95.410156"/>
       <use xlink:href="#DejaVuSans-30" x="159.033203"/>
       <use xlink:href="#DejaVuSans-30" x="222.65625"/>
      </g>
     </g>
    </g>
    <g id="ytick_2">
     <g id="line2d_9">
      <g>
       <use xlink:href="#mfd6f9fc312" x="90" y="154.132207" style="stroke: #000000; stroke-width: 0.8"/>
      </g>
     </g>
     <g id="text_8">
      <!-- 0.002 -->
      <g transform="translate(54.371875 157.931426) scale(0.1 -0.1)">
       <use xlink:href="#DejaVuSans-30"/>
       <use xlink:href="#DejaVuSans-2e" x="63.623047"/>
       <use xlink:href="#DejaVuSans-30" x="95.410156"/>
       <use xlink:href="#DejaVuSans-30" x="159.033203"/>
       <use xlink:href="#DejaVuSans-32" x="222.65625"/>
      </g>
     </g>
    </g>
    <g id="ytick_3">
     <g id="line2d_10">
      <g>
       <use xlink:href="#mfd6f9fc312" x="90" y="116.024414" style="stroke: #000000; stroke-width: 0.8"/>
      </g>
     </g>
     <g id="text_9">
      <!-- 0.004 -->
      <g transform="translate(54.371875 119.823632) scale(0.1 -0.1)">
       <defs>
        <path id="DejaVuSans-34" d="M 2419 4116 
L 825 1625 
L 2419 1625 
L 2419 4116 
z
M 2253 4666 
L 3047 4666 
L 3047 1625 
L 3713 1625 
L 3713 1100 
L 3047 1100 
L 3047 0 
L 2419 0 
L 2419 1100 
L 313 1100 
L 313 1709 
L 2253 4666 
z
" transform="scale(0.015625)"/>
       </defs>
       <use xlink:href="#DejaVuSans-30"/>
       <use xlink:href="#DejaVuSans-2e" x="63.623047"/>
       <use xlink:href="#DejaVuSans-30" x="95.410156"/>
       <use xlink:href="#DejaVuSans-30" x="159.033203"/>
       <use xlink:href="#DejaVuSans-34" x="222.65625"/>
      </g>
     </g>
    </g>
    <g id="ytick_4">
     <g id="line2d_11">
      <g>
       <use xlink:href="#mfd6f9fc312" x="90" y="77.91662" style="stroke: #000000; stroke-width: 0.8"/>
      </g>
     </g>
     <g id="text_10">
      <!-- 0.006 -->
      <g transform="translate(54.371875 81.715839) scale(0.1 -0.1)">
       <defs>
        <path id="DejaVuSans-36" d="M 2113 2584 
Q 1688 2584 1439 2293 
Q 1191 2003 1191 1497 
Q 1191 994 1439 701 
Q 1688 409 2113 409 
Q 2538 409 2786 701 
Q 3034 994 3034 1497 
Q 3034 2003 2786 2293 
Q 2538 2584 2113 2584 
z
M 3366 4563 
L 3366 3988 
Q 3128 4100 2886 4159 
Q 2644 4219 2406 4219 
Q 1781 4219 1451 3797 
Q 1122 3375 1075 2522 
Q 1259 2794 1537 2939 
Q 1816 3084 2150 3084 
Q 2853 3084 3261 2657 
Q 3669 2231 3669 1497 
Q 3669 778 3244 343 
Q 2819 -91 2113 -91 
Q 1303 -91 875 529 
Q 447 1150 447 2328 
Q 447 3434 972 4092 
Q 1497 4750 2381 4750 
Q 2619 4750 2861 4703 
Q 3103 4656 3366 4563 
z
" transform="scale(0.015625)"/>
       </defs>
       <use xlink:href="#DejaVuSans-30"/>
       <use xlink:href="#DejaVuSans-2e" x="63.623047"/>
       <use xlink:href="#DejaVuSans-30" x="95.410156"/>
       <use xlink:href="#DejaVuSans-30" x="159.033203"/>
       <use xlink:href="#DejaVuSans-36" x="222.65625"/>
      </g>
     </g>
    </g>
    <g id="ytick_5">
     <g id="line2d_12">
      <g>
       <use xlink:href="#mfd6f9fc312" x="90" y="39.808827" style="stroke: #000000; stroke-width: 0.8"/>
      </g>
     </g>
     <g id="text_11">
      <!-- 0.008 -->
      <g transform="translate(54.371875 43.608046) scale(0.1 -0.1)">
       <defs>
        <path id="DejaVuSans-38" d="M 2034 2216 
Q 1584 2216 1326 1975 
Q 1069 1734 1069 1313 
Q 1069 891 1326 650 
Q 1584 409 2034 409 
Q 2484 409 2743 651 
Q 3003 894 3003 1313 
Q 3003 1734 2745 1975 
Q 2488 2216 2034 2216 
z
M 1403 2484 
Q 997 2584 770 2862 
Q 544 3141 544 3541 
Q 544 4100 942 4425 
Q 1341 4750 2034 4750 
Q 2731 4750 3128 4425 
Q 3525 4100 3525 3541 
Q 3525 3141 3298 2862 
Q 3072 2584 2669 2484 
Q 3125 2378 3379 2068 
Q 3634 1759 3634 1313 
Q 3634 634 3220 271 
Q 2806 -91 2034 -91 
Q 1263 -91 848 271 
Q 434 634 434 1313 
Q 434 1759 690 2068 
Q 947 2378 1403 2484 
z
M 1172 3481 
Q 1172 3119 1398 2916 
Q 1625 2713 2034 2713 
Q 2441 2713 2670 2916 
Q 2900 3119 2900 3481 
Q 2900 3844 2670 4047 
Q 2441 4250 2034 4250 
Q 1625 4250 1398 4047 
Q 1172 3844 1172 3481 
z
" transform="scale(0.015625)"/>
       </defs>
       <use xlink:href="#DejaVuSans-30"/>
       <use xlink:href="#DejaVuSans-2e" x="63.623047"/>
       <use xlink:href="#DejaVuSans-30" x="95.410156"/>
       <use xlink:href="#DejaVuSans-30" x="159.033203"/>
       <use xlink:href="#DejaVuSans-38" x="222.65625"/>
      </g>
     </g>
    </g>
   </g>
  </g>
 </g>
 <defs>
  <clipPath id="p1830b5ae9d">
   <rect x="90" y="25.92" width="558" height="166.32"/>
  </clipPath>
 </defs>
</svg>
