<?xml version="1.0" encoding="utf-8" standalone="no"?>
<!DOCTYPE svg PUBLIC "-//W3C//DTD SVG 1.1//EN"
  "http://www.w3.org/Graphics/SVG/1.1/DTD/svg11.dtd">
<svg xmlns:xlink="http://www.w3.org/1999/xlink" width="720pt" height="216pt" viewBox="0 0 720 216" xmlns="http://www.w3.org/2000/svg" version="1.1">
 <metadata>
  <rdf:RDF xmlns:dc="http://purl.org/dc/elements/1.1/" xmlns:cc="http://creativecommons.org/ns#" xmlns:rdf="http://www.w3.org/1999/02/22-rdf-syntax-ns#">
   <cc:Work>
    <dc:type rdf:resource="http://purl.org/dc/dcmitype/StillImage"/>
    <dc:date>2024-11-23T04:40:34.504696</dc:date>
    <dc:format>image/svg+xml</dc:format>
    <dc:creator>
     <cc:Agent>
      <dc:title>Matplotlib v3.7.2, https://matplotlib.org/</dc:title>
     </cc:Agent>
    </dc:creator>
   </cc:Work>
  </rdf:RDF>
 </metadata>
 <defs>
  <style type="text/css">*{stroke-linejoin: round; stroke-linecap: butt}</style>
 </defs>
 <g id="figure_1">
  <g id="patch_1">
   <path d="M 0 216 
L 720 216 
L 720 0 
L 0 0 
z
" style="fill: #ffffff"/>
  </g>
  <g id="axes_1">
   <g id="patch_2">
    <path d="M 90 192.24 
L 648 192.24 
L 648 25.92 
L 90 25.92 
z
" style="fill: #ffffff"/>
   </g>
   <g id="line2d_1">
    <path d="M 90 192.055414 
L 648 192.055414 
" clip-path="url(#pcf2ca028e0)" style="fill: none; stroke: #000000; stroke-width: 0.5; stroke-linecap: square"/>
   </g>
   <g id="patch_3">
    <path d="M 115.303103 192.045579 
Q 113.186542 192.050454 110.897851 192.05292 
Q 108.60916 192.055414 106.116463 192.055414 
Q 98.683 192.055414 94.3415 192.036934 
Q 90 192.018455 90 191.986852 
Q 90 191.955136 94.3415 191.936685 
Q 98.683 191.918206 106.116463 191.918206 
Q 108.60916 191.918206 110.897851 191.9207 
Q 113.186542 191.923166 115.303103 191.928041 
L 115.303103 191.955392 
Q 113.167416 191.948929 111.095482 191.945925 
Q 109.023547 191.942921 106.734856 191.942921 
Q 102.629238 191.942921 100.276796 191.954626 
Q 97.930728 191.966304 97.930728 191.986852 
Q 97.930728 192.007316 100.276796 192.019021 
Q 102.629238 192.030699 106.734856 192.030699 
Q 109.023547 192.030699 111.095482 192.027694 
Q 113.167416 192.024662 115.303103 192.018199 
L 115.303103 192.045579 
z
" clip-path="url(#pcf2ca028e0)" style="fill: #0000ff"/>
   </g>
   <g id="patch_4">
    <path d="M 115.303103 191.743772 
Q 112.751243 191.830989 110.006577 191.874796 
Q 107.26191 191.918206 104.335778 191.918206 
Q 97.723627 191.918206 93.861814 191.658546 
Q 90 191.398887 90 190.954838 
Q 90 190.505612 93.929863 190.247944 
Q 97.865397 189.990276 104.710051 189.990276 
Q 107.346972 189.990276 109.762733 190.025322 
Q 112.184163 190.05997 114.327725 190.128469 
L 114.327725 190.51278 
Q 112.116114 190.424767 109.927186 190.381358 
Q 107.738258 190.33755 105.537988 190.33755 
Q 101.466354 190.33755 99.260414 190.497647 
Q 97.054473 190.657345 97.054473 190.954838 
Q 97.054473 191.249543 99.181023 191.410436 
Q 101.307572 191.570931 105.220423 191.570931 
Q 106.286533 191.570931 107.199532 191.561772 
Q 108.11253 191.552214 108.838392 191.532301 
L 108.838392 191.171486 
L 104.670356 191.171486 
L 104.670356 190.850098 
L 115.303103 190.850098 
L 115.303103 191.743772 
z
" clip-path="url(#pcf2ca028e0)" style="fill: #ffa600"/>
   </g>
   <g id="patch_5">
    <path d="M 107.527481 189.118616 
L 97.796315 189.118616 
L 96.259815 189.990276 
L 90 189.990276 
L 98.939636 185.205378 
L 106.363466 185.205378 
L 115.303103 189.990276 
L 109.048461 189.990276 
L 107.527481 189.118616 
z
M 99.348335 188.230549 
L 105.959941 188.230549 
L 102.659311 186.327255 
L 99.348335 188.230549 
z
" clip-path="url(#pcf2ca028e0)" style="fill: #008000"/>
   </g>
   <g id="patch_6">
    <path d="M 116.634845 190.777843 
L 141.937947 190.777843 
L 141.937947 191.027005 
L 132.834715 191.027005 
L 132.834715 192.055414 
L 125.755731 192.055414 
L 125.755731 191.027005 
L 116.634845 191.027005 
L 116.634845 190.777843 
z
" clip-path="url(#pcf2ca028e0)" style="fill: #ff0000"/>
   </g>
   <g id="patch_7">
    <path d="M 141.937947 190.528409 
Q 139.386088 190.653126 136.641422 190.715769 
Q 133.896755 190.777843 130.970623 190.777843 
Q 124.358472 190.777843 120.496659 190.40654 
Q 116.634845 190.035237 116.634845 189.400263 
Q 116.634845 188.757887 120.564708 188.389431 
Q 124.500242 188.020976 131.344896 188.020976 
Q 133.981817 188.020976 136.397577 188.07109 
Q 138.819008 188.120635 140.96257 188.218586 
L 140.96257 188.768137 
Q 138.750959 188.642281 136.562031 188.580208 
Q 134.373102 188.517565 132.172833 188.517565 
Q 128.101199 188.517565 125.895259 188.746497 
Q 123.689318 188.97486 123.689318 189.400263 
Q 123.689318 189.821681 125.815868 190.051752 
Q 127.942417 190.281254 131.855268 190.281254 
Q 132.921378 190.281254 133.834377 190.268155 
Q 134.747375 190.254488 135.473237 190.226014 
L 135.473237 189.710062 
L 131.3052 189.710062 
L 131.3052 189.250489 
L 141.937947 189.250489 
L 141.937947 190.528409 
z
" clip-path="url(#pcf2ca028e0)" style="fill: #ffa600"/>
   </g>
   <g id="patch_8">
    <path d="M 141.937947 187.488823 
Q 139.821387 187.752599 137.532696 187.88602 
Q 135.244005 188.020976 132.751308 188.020976 
Q 125.317845 188.020976 120.976345 187.021081 
Q 116.634845 186.021186 116.634845 184.311244 
Q 116.634845 182.595167 120.976345 181.596806 
Q 125.317845 180.596912 132.751308 180.596912 
Q 135.244005 180.596912 137.532696 180.731867 
Q 139.821387 180.865288 141.937947 181.129064 
L 141.937947 182.608969 
Q 139.802261 182.259313 137.730326 182.096753 
Q 135.658392 181.934194 133.369701 181.934194 
Q 129.264083 181.934194 126.91164 182.567563 
Q 124.565573 183.199398 124.565573 184.311244 
Q 124.565573 185.418489 126.91164 186.051858 
Q 129.264083 186.683693 133.369701 186.683693 
Q 135.658392 186.683693 137.730326 186.521134 
Q 139.802261 186.35704 141.937947 186.007384 
L 141.937947 187.488823 
z
" clip-path="url(#pcf2ca028e0)" style="fill: #0000ff"/>
   </g>
   <g id="patch_9">
    <path d="M 168.572792 191.20275 
Q 166.020933 191.629082 163.276267 191.843221 
Q 160.5316 192.055414 157.605468 192.055414 
Q 150.993317 192.055414 147.131503 190.786152 
Q 143.26969 189.51689 143.26969 187.346296 
Q 143.26969 185.150395 147.199553 183.890866 
Q 151.135087 182.631338 157.979741 182.631338 
Q 160.616662 182.631338 163.032422 182.802649 
Q 165.453853 182.972014 167.597415 183.30685 
L 167.597415 185.185436 
Q 165.385804 184.75521 163.196875 184.543018 
Q 161.007947 184.328878 158.807677 184.328878 
Q 154.736044 184.328878 152.530104 185.11146 
Q 150.324163 185.892095 150.324163 187.346296 
Q 150.324163 188.786869 152.450712 189.573345 
Q 154.577262 190.357873 158.490113 190.357873 
Q 159.556223 190.357873 160.469221 190.313098 
Q 161.38222 190.266377 162.108082 190.169041 
L 162.108082 188.405312 
L 157.940045 188.405312 
L 157.940045 186.834308 
L 168.572792 186.834308 
L 168.572792 191.20275 
z
" clip-path="url(#pcf2ca028e0)" style="fill: #ffa600"/>
   </g>
   <g id="patch_10">
    <path d="M 160.797171 179.114482 
L 151.066005 179.114482 
L 149.529505 182.631338 
L 143.26969 182.631338 
L 152.209326 163.325867 
L 159.633156 163.325867 
L 168.572792 182.631338 
L 162.318151 182.631338 
L 160.797171 179.114482 
z
M 152.618025 175.531426 
L 159.229631 175.531426 
L 155.929001 167.852268 
L 152.618025 175.531426 
z
" clip-path="url(#pcf2ca028e0)" style="fill: #008000"/>
   </g>
   <g id="patch_11">
    <path d="M 195.207637 191.958924 
Q 193.091076 192.006752 190.802386 192.030944 
Q 188.513695 192.055414 186.020998 192.055414 
Q 178.587534 192.055414 174.246034 191.874112 
Q 169.904535 191.692811 169.904535 191.382764 
Q 169.904535 191.071604 174.246034 190.89058 
Q 178.587534 190.709279 186.020998 190.709279 
Q 188.513695 190.709279 190.802386 190.733749 
Q 193.091076 190.757941 195.207637 190.805769 
L 195.207637 191.074106 
Q 193.071951 191.010707 191.000016 190.981231 
Q 188.928082 190.951756 186.639391 190.951756 
Q 182.533773 190.951756 180.18133 191.066598 
Q 177.835263 191.181163 177.835263 191.382764 
Q 177.835263 191.58353 180.18133 191.698372 
Q 182.533773 191.812937 186.639391 191.812937 
Q 188.928082 191.812937 191.000016 191.783462 
Q 193.071951 191.753708 195.207637 191.690308 
L 195.207637 191.958924 
z
" clip-path="url(#pcf2ca028e0)" style="fill: #0000ff"/>
   </g>
   <g id="patch_12">
    <path d="M 187.432016 190.450684 
L 177.700849 190.450684 
L 176.164349 190.709279 
L 169.904535 190.709279 
L 178.844171 189.289746 
L 186.268001 189.289746 
L 195.207637 190.709279 
L 188.952996 190.709279 
L 187.432016 190.450684 
z
M 179.25287 190.187222 
L 185.864476 190.187222 
L 182.563846 189.622572 
L 179.25287 190.187222 
z
" clip-path="url(#pcf2ca028e0)" style="fill: #008000"/>
   </g>
   <g id="patch_13">
    <path d="M 195.207637 185.277781 
Q 192.655778 187.283763 189.911111 188.291334 
Q 187.166445 189.289746 184.240313 189.289746 
Q 177.628162 189.289746 173.766348 183.317597 
Q 169.904535 177.345448 169.904535 167.132342 
Q 169.904535 156.800158 173.834398 150.873808 
Q 177.769932 144.947458 184.614586 144.947458 
Q 187.251507 144.947458 189.667267 145.753515 
Q 192.088698 146.550412 194.23226 148.125887 
L 194.23226 156.965033 
Q 192.020649 154.940731 189.83172 153.94232 
Q 187.642792 152.934749 185.442522 152.934749 
Q 181.370889 152.934749 179.164948 156.616963 
Q 176.959008 160.290018 176.959008 167.132342 
Q 176.959008 173.910547 179.085557 177.611081 
Q 181.212107 181.302455 185.124958 181.302455 
Q 186.191068 181.302455 187.104066 181.091781 
Q 188.017065 180.871947 188.742927 180.41396 
L 188.742927 172.115239 
L 184.57489 172.115239 
L 184.57489 164.723331 
L 195.207637 164.723331 
L 195.207637 185.277781 
z
" clip-path="url(#pcf2ca028e0)" style="fill: #ffa600"/>
   </g>
   <g id="patch_14">
    <path d="M 221.842482 192.055319 
Q 219.290623 192.055366 216.545956 192.05539 
Q 213.80129 192.055414 210.875158 192.055414 
Q 204.263007 192.055414 200.401193 192.055273 
Q 196.539379 192.055132 196.539379 192.054892 
Q 196.539379 192.054649 200.469243 192.054509 
Q 204.404777 192.054369 211.249431 192.054369 
Q 213.886352 192.054369 216.302112 192.054388 
Q 218.723543 192.054407 220.867105 192.054444 
L 220.867105 192.054652 
Q 218.655493 192.054605 216.466565 192.054581 
Q 214.277637 192.054558 212.077367 192.054558 
Q 208.005734 192.054558 205.799793 192.054644 
Q 203.593853 192.054731 203.593853 192.054892 
Q 203.593853 192.055052 205.720402 192.055139 
Q 207.846952 192.055226 211.759802 192.055226 
Q 212.825913 192.055226 213.738911 192.055221 
Q 214.65191 192.055215 215.377772 192.055205 
L 215.377772 192.055009 
L 211.209735 192.055009 
L 211.209735 192.054835 
L 221.842482 192.054835 
L 221.842482 192.055319 
z
" clip-path="url(#pcf2ca028e0)" style="fill: #ffa600"/>
   </g>
   <g id="patch_15">
    <path d="M 196.539379 188.556378 
L 221.842482 188.556378 
L 221.842482 189.238584 
L 212.73925 189.238584 
L 212.73925 192.054369 
L 205.660265 192.054369 
L 205.660265 189.238584 
L 196.539379 189.238584 
L 196.539379 188.556378 
z
" clip-path="url(#pcf2ca028e0)" style="fill: #ff0000"/>
   </g>
   <g id="patch_16">
    <path d="M 221.842482 182.046568 
Q 219.725921 185.273333 217.43723 186.905475 
Q 215.14854 188.556378 212.655843 188.556378 
Q 205.222379 188.556378 200.880879 176.324689 
Q 196.539379 164.093 196.539379 143.17531 
Q 196.539379 122.18258 200.880879 109.969651 
Q 205.222379 97.737961 212.655843 97.737961 
Q 215.14854 97.737961 217.43723 99.388864 
Q 219.725921 101.021007 221.842482 104.247771 
L 221.842482 122.351422 
Q 219.706796 118.074083 217.634861 116.085495 
Q 215.562927 114.096908 213.274236 114.096908 
Q 209.168618 114.096908 206.816175 121.844895 
Q 204.470108 129.574122 204.470108 143.17531 
Q 204.470108 156.720218 206.816175 164.468205 
Q 209.168618 172.197432 213.274236 172.197432 
Q 215.562927 172.197432 217.634861 170.208844 
Q 219.706796 168.201497 221.842482 163.924157 
L 221.842482 182.046568 
z
" clip-path="url(#pcf2ca028e0)" style="fill: #0000ff"/>
   </g>
   <g id="patch_17">
    <path d="M 248.477327 191.990577 
Q 246.360766 192.022715 244.072075 192.038971 
Q 241.783384 192.055414 239.290688 192.055414 
Q 231.857224 192.055414 227.515724 191.933587 
Q 223.174224 191.81176 223.174224 191.603422 
Q 223.174224 191.394336 227.515724 191.272696 
Q 231.857224 191.15087 239.290688 191.15087 
Q 241.783384 191.15087 244.072075 191.167312 
Q 246.360766 191.183568 248.477327 191.215707 
L 248.477327 191.396018 
Q 246.341641 191.353416 244.269706 191.33361 
Q 242.197771 191.313803 239.909081 191.313803 
Q 235.803463 191.313803 233.45102 191.390973 
Q 231.104952 191.467955 231.104952 191.603422 
Q 231.104952 191.738328 233.45102 191.815497 
Q 235.803463 191.89248 239.909081 191.89248 
Q 242.197771 191.89248 244.269706 191.872674 
Q 246.341641 191.852681 248.477327 191.810079 
L 248.477327 191.990577 
z
" clip-path="url(#pcf2ca028e0)" style="fill: #0000ff"/>
   </g>
   <g id="patch_18">
    <path d="M 248.477327 180.210305 
Q 245.925468 185.680587 243.180801 188.428218 
Q 240.436135 191.15087 237.510003 191.15087 
Q 230.897852 191.15087 227.036038 174.864915 
Q 223.174224 158.57896 223.174224 130.727979 
Q 223.174224 102.552278 227.104088 86.391215 
Q 231.039622 70.230152 237.884275 70.230152 
Q 240.521197 70.230152 242.936957 72.428257 
Q 245.358388 74.601383 247.50195 78.897677 
L 247.50195 103.00189 
Q 245.290338 97.48165 243.10141 94.758998 
Q 240.912482 92.011368 238.712212 92.011368 
Q 234.640579 92.011368 232.434638 102.052708 
Q 230.228698 112.06907 230.228698 130.727979 
Q 230.228698 149.212038 232.355247 159.303335 
Q 234.481796 169.369654 238.394647 169.369654 
Q 239.460757 169.369654 240.373756 168.795149 
Q 241.286755 168.195666 242.012617 166.946743 
L 242.012617 144.31626 
L 237.84458 144.31626 
L 237.84458 124.158644 
L 248.477327 124.158644 
L 248.477327 180.210305 
z
" clip-path="url(#pcf2ca028e0)" style="fill: #ffa600"/>
   </g>
   <g id="patch_19">
    <path d="M 275.112172 183.681207 
Q 272.995611 187.832111 270.70692 189.931696 
Q 268.418229 192.055414 265.925533 192.055414 
Q 258.492069 192.055414 254.150569 176.320594 
Q 249.809069 160.585774 249.809069 133.677301 
Q 249.809069 106.672295 254.150569 90.961608 
Q 258.492069 75.226788 265.925533 75.226788 
Q 268.418229 75.226788 270.70692 77.350506 
Q 272.995611 79.450091 275.112172 83.600995 
L 275.112172 106.889494 
Q 272.976485 101.387133 270.904551 98.829018 
Q 268.832616 96.270903 266.543925 96.270903 
Q 262.438307 96.270903 260.085865 106.237898 
Q 257.739797 116.18076 257.739797 133.677301 
Q 257.739797 151.101442 260.085865 161.068437 
Q 262.438307 171.011299 266.543925 171.011299 
Q 268.832616 171.011299 270.904551 168.453184 
Q 272.976485 165.870936 275.112172 160.368575 
L 275.112172 183.681207 
z
" clip-path="url(#pcf2ca028e0)" style="fill: #0000ff"/>
   </g>
   <g id="patch_20">
    <path d="M 276.443914 191.998088 
L 301.747017 191.998088 
L 301.747017 192.009268 
L 292.643784 192.009268 
L 292.643784 192.055414 
L 285.5648 192.055414 
L 285.5648 192.009268 
L 276.443914 192.009268 
L 276.443914 191.998088 
z
" clip-path="url(#pcf2ca028e0)" style="fill: #ff0000"/>
   </g>
   <g id="patch_21">
    <path d="M 301.747017 191.98301 
Q 299.195157 191.990549 296.450491 191.994336 
Q 293.705825 191.998088 290.779693 191.998088 
Q 284.167542 191.998088 280.305728 191.975643 
Q 276.443914 191.953198 276.443914 191.914814 
Q 276.443914 191.875982 280.373777 191.853709 
Q 284.309312 191.831436 291.153965 191.831436 
Q 293.790886 191.831436 296.206647 191.834465 
Q 298.628078 191.83746 300.771639 191.843381 
L 300.771639 191.876602 
Q 298.560028 191.868994 296.3711 191.865241 
Q 294.182172 191.861455 291.981902 191.861455 
Q 287.910269 191.861455 285.704328 191.875294 
Q 283.498387 191.889098 283.498387 191.914814 
Q 283.498387 191.940288 285.624937 191.954196 
Q 287.751486 191.968069 291.664337 191.968069 
Q 292.730447 191.968069 293.643446 191.967278 
Q 294.556444 191.966451 295.282306 191.96473 
L 295.282306 191.933541 
L 291.11427 191.933541 
L 291.11427 191.90576 
L 301.747017 191.90576 
L 301.747017 191.98301 
z
" clip-path="url(#pcf2ca028e0)" style="fill: #ffa600"/>
   </g>
   <g id="patch_22">
    <path d="M 301.747017 179.938201 
Q 299.630456 185.833407 297.341765 188.815284 
Q 295.053074 191.831436 292.560378 191.831436 
Q 285.126914 191.831436 280.785414 169.484494 
Q 276.443914 147.137551 276.443914 108.921538 
Q 276.443914 70.568427 280.785414 48.255759 
Q 285.126914 25.908816 292.560378 25.908816 
Q 295.053074 25.908816 297.341765 28.924968 
Q 299.630456 31.906845 301.747017 37.802051 
L 301.747017 70.876897 
Q 299.61133 63.062322 297.539396 59.42923 
Q 295.467461 55.796138 293.17877 55.796138 
Q 289.073152 55.796138 286.72071 69.951486 
Q 284.374642 84.07256 284.374642 108.921538 
Q 284.374642 133.667692 286.72071 147.82304 
Q 289.073152 161.944114 293.17877 161.944114 
Q 295.467461 161.944114 297.539396 158.311022 
Q 299.61133 154.643656 301.747017 146.829081 
L 301.747017 179.938201 
z
" clip-path="url(#pcf2ca028e0)" style="fill: #0000ff"/>
   </g>
   <g id="patch_23">
    <path d="M 328.381862 191.958289 
Q 325.830002 192.006851 323.085336 192.031243 
Q 320.340669 192.055414 317.414537 192.055414 
Q 310.802386 192.055414 306.940573 191.910835 
Q 303.078759 191.766257 303.078759 191.519011 
Q 303.078759 191.268882 307.008622 191.125412 
Q 310.944156 190.981943 317.78881 190.981943 
Q 320.425731 190.981943 322.841492 191.001456 
Q 325.262922 191.020748 327.406484 191.058889 
L 327.406484 191.272873 
Q 325.194873 191.223867 323.005945 191.199697 
Q 320.817016 191.175305 318.616747 191.175305 
Q 314.545113 191.175305 312.339173 191.264447 
Q 310.133232 191.353367 310.133232 191.519011 
Q 310.133232 191.683103 312.259782 191.772688 
Q 314.386331 191.862051 318.299182 191.862051 
Q 319.365292 191.862051 320.278291 191.856951 
Q 321.191289 191.851629 321.917151 191.840542 
L 321.917151 191.639641 
L 317.749115 191.639641 
L 317.749115 191.460692 
L 328.381862 191.460692 
L 328.381862 191.958289 
z
" clip-path="url(#pcf2ca028e0)" style="fill: #ffa600"/>
   </g>
   <g id="patch_24">
    <path d="M 320.60624 190.474689 
L 310.875074 190.474689 
L 309.338574 190.981943 
L 303.078759 190.981943 
L 312.018395 188.19742 
L 319.442225 188.19742 
L 328.381862 190.981943 
L 322.12722 190.981943 
L 320.60624 190.474689 
z
M 312.427094 189.957888 
L 319.0387 189.957888 
L 315.73807 188.850285 
L 312.427094 189.957888 
z
" clip-path="url(#pcf2ca028e0)" style="fill: #008000"/>
   </g>
   <g id="patch_25">
    <path d="M 328.381862 184.175641 
Q 326.265301 186.169145 323.97661 187.177487 
Q 321.687919 188.19742 319.195222 188.19742 
Q 311.761759 188.19742 307.420259 180.640649 
Q 303.078759 173.083879 303.078759 160.160874 
Q 303.078759 147.191509 307.420259 139.646329 
Q 311.761759 132.089559 319.195222 132.089559 
Q 321.687919 132.089559 323.97661 133.109491 
Q 326.265301 134.117833 328.381862 136.111337 
L 328.381862 147.29582 
Q 326.246175 144.653269 324.174241 143.424714 
Q 322.102306 142.196159 319.813615 142.196159 
Q 315.707997 142.196159 313.355554 146.982887 
Q 311.009487 151.758024 311.009487 160.160874 
Q 311.009487 168.528954 313.355554 173.315682 
Q 315.707997 178.090819 319.813615 178.090819 
Q 322.102306 178.090819 324.174241 176.862264 
Q 326.246175 175.622119 328.381862 172.979568 
L 328.381862 184.175641 
z
" clip-path="url(#pcf2ca028e0)" style="fill: #0000ff"/>
   </g>
   <g id="patch_26">
    <path d="M 355.016706 192.04192 
Q 352.464847 192.048667 349.720181 192.052056 
Q 346.975514 192.055414 344.049382 192.055414 
Q 337.437231 192.055414 333.575418 192.035327 
Q 329.713604 192.01524 329.713604 191.980889 
Q 329.713604 191.946138 333.643467 191.926205 
Q 337.579001 191.906272 344.423655 191.906272 
Q 347.060576 191.906272 349.476336 191.908983 
Q 351.897767 191.911664 354.041329 191.916963 
L 354.041329 191.946692 
Q 351.829718 191.939884 349.64079 191.936526 
Q 347.451861 191.933137 345.251592 191.933137 
Q 341.179958 191.933137 338.974018 191.945522 
Q 336.768077 191.957876 336.768077 191.980889 
Q 336.768077 192.003687 338.894626 192.016134 
Q 341.021176 192.028549 344.934027 192.028549 
Q 346.000137 192.028549 346.913135 192.027841 
Q 347.826134 192.027101 348.551996 192.025561 
L 348.551996 191.997649 
L 344.383959 191.997649 
L 344.383959 191.972787 
L 355.016706 191.972787 
L 355.016706 192.04192 
z
" clip-path="url(#pcf2ca028e0)" style="fill: #ffa600"/>
   </g>
   <g id="patch_27">
    <path d="M 347.241085 191.828184 
L 337.509919 191.828184 
L 335.973419 191.906272 
L 329.713604 191.906272 
L 338.65324 191.477616 
L 346.07707 191.477616 
L 355.016706 191.906272 
L 348.762065 191.906272 
L 347.241085 191.828184 
z
M 339.061939 191.748627 
L 345.673545 191.748627 
L 342.372915 191.578119 
L 339.061939 191.748627 
z
" clip-path="url(#pcf2ca028e0)" style="fill: #008000"/>
   </g>
   <g id="patch_28">
    <path d="M 329.713604 171.24995 
L 355.016706 171.24995 
L 355.016706 175.194908 
L 345.913474 175.194908 
L 345.913474 191.477616 
L 338.83449 191.477616 
L 338.83449 175.194908 
L 329.713604 175.194908 
L 329.713604 171.24995 
z
" clip-path="url(#pcf2ca028e0)" style="fill: #ff0000"/>
   </g>
   <g id="patch_29">
    <path d="M 355.016706 166.24178 
Q 352.900146 168.724215 350.611455 169.979866 
Q 348.322764 171.24995 345.830067 171.24995 
Q 338.396604 171.24995 334.055104 161.839786 
Q 329.713604 152.429621 329.713604 136.337086 
Q 329.713604 120.18682 334.055104 110.791088 
Q 338.396604 101.380924 345.830067 101.380924 
Q 348.322764 101.380924 350.611455 102.651008 
Q 352.900146 103.906659 355.016706 106.389095 
L 355.016706 120.316715 
Q 352.88102 117.026044 350.809085 115.496171 
Q 348.737151 113.966297 346.44846 113.966297 
Q 342.342842 113.966297 339.990399 119.92703 
Q 337.644332 125.87333 337.644332 136.337086 
Q 337.644332 146.757544 339.990399 152.718277 
Q 342.342842 158.664577 346.44846 158.664577 
Q 348.737151 158.664577 350.809085 157.134703 
Q 352.88102 155.590397 355.016706 152.299727 
L 355.016706 166.24178 
z
" clip-path="url(#pcf2ca028e0)" style="fill: #0000ff"/>
   </g>
   <g id="patch_30">
    <path d="M 373.87593 192.027526 
L 364.144763 192.027526 
L 362.608263 192.055414 
L 356.348449 192.055414 
L 365.288085 191.902328 
L 372.711915 191.902328 
L 381.651551 192.055414 
L 375.39691 192.055414 
L 373.87593 192.027526 
z
M 365.696784 191.999114 
L 372.30839 191.999114 
L 369.00776 191.93822 
L 365.696784 191.999114 
z
" clip-path="url(#pcf2ca028e0)" style="fill: #008000"/>
   </g>
   <g id="patch_31">
    <path d="M 356.348449 191.743087 
L 381.651551 191.743087 
L 381.651551 191.774143 
L 372.548319 191.774143 
L 372.548319 191.902328 
L 365.469335 191.902328 
L 365.469335 191.774143 
L 356.348449 191.774143 
L 356.348449 191.743087 
z
" clip-path="url(#pcf2ca028e0)" style="fill: #ff0000"/>
   </g>
   <g id="patch_32">
    <path d="M 381.651551 180.852043 
Q 379.53499 186.250485 377.2463 188.981093 
Q 374.957609 191.743087 372.464912 191.743087 
Q 365.031448 191.743087 360.689949 171.279223 
Q 356.348449 150.81536 356.348449 115.819644 
Q 356.348449 80.698382 360.689949 60.265905 
Q 365.031448 39.802042 372.464912 39.802042 
Q 374.957609 39.802042 377.2463 42.564036 
Q 379.53499 45.294643 381.651551 50.693086 
L 381.651551 80.980858 
Q 379.515865 73.824784 377.44393 70.497837 
Q 375.371996 67.17089 373.083305 67.17089 
Q 368.977687 67.17089 366.625244 80.133429 
Q 364.279177 93.064581 364.279177 115.819644 
Q 364.279177 138.480547 366.625244 151.443086 
Q 368.977687 164.374239 373.083305 164.374239 
Q 375.371996 164.374239 377.44393 161.047292 
Q 379.515865 157.688959 381.651551 150.532884 
L 381.651551 180.852043 
z
" clip-path="url(#pcf2ca028e0)" style="fill: #0000ff"/>
   </g>
   <g id="patch_33">
    <path d="M 408.286396 192.032926 
Q 406.169835 192.044073 403.881145 192.049711 
Q 401.592454 192.055414 399.099757 192.055414 
Q 391.666293 192.055414 387.324793 192.013161 
Q 382.983294 191.970908 382.983294 191.898651 
Q 382.983294 191.826134 387.324793 191.783946 
Q 391.666293 191.741694 399.099757 191.741694 
Q 401.592454 191.741694 403.881145 191.747396 
Q 406.169835 191.753034 408.286396 191.764181 
L 408.286396 191.826717 
Q 406.15071 191.811942 404.078775 191.805073 
Q 402.006841 191.798203 399.71815 191.798203 
Q 395.612532 191.798203 393.260089 191.824968 
Q 390.914022 191.851667 390.914022 191.898651 
Q 390.914022 191.94544 393.260089 191.972204 
Q 395.612532 191.998904 399.71815 191.998904 
Q 402.006841 191.998904 404.078775 191.992035 
Q 406.15071 191.9851 408.286396 191.970325 
L 408.286396 192.032926 
z
" clip-path="url(#pcf2ca028e0)" style="fill: #0000ff"/>
   </g>
   <g id="patch_34">
    <path d="M 400.510775 191.684313 
L 390.779608 191.684313 
L 389.243108 191.741694 
L 382.983294 191.741694 
L 391.92293 191.42671 
L 399.34676 191.42671 
L 408.286396 191.741694 
L 402.031755 191.741694 
L 400.510775 191.684313 
z
M 392.331629 191.625853 
L 398.943235 191.625853 
L 395.642605 191.500562 
L 392.331629 191.625853 
z
" clip-path="url(#pcf2ca028e0)" style="fill: #008000"/>
   </g>
   <g id="patch_35">
    <path d="M 382.983294 48.99587 
L 408.286396 48.99587 
L 408.286396 76.773852 
L 399.183164 76.773852 
L 399.183164 191.42671 
L 392.104179 191.42671 
L 392.104179 76.773852 
L 382.983294 76.773852 
L 382.983294 48.99587 
z
" clip-path="url(#pcf2ca028e0)" style="fill: #ff0000"/>
   </g>
   <g id="patch_36">
    <path d="M 427.14562 188.115105 
L 417.414453 188.115105 
L 415.877953 192.055414 
L 409.618138 192.055414 
L 418.557775 170.425434 
L 425.981605 170.425434 
L 434.921241 192.055414 
L 428.6666 192.055414 
L 427.14562 188.115105 
z
M 418.966473 184.100625 
L 425.578079 184.100625 
L 422.27745 175.496844 
L 418.966473 184.100625 
z
" clip-path="url(#pcf2ca028e0)" style="fill: #008000"/>
   </g>
   <g id="patch_37">
    <path d="M 434.921241 167.110985 
Q 432.369382 168.76821 429.624715 169.600606 
Q 426.880049 170.425434 423.953917 170.425434 
Q 417.341766 170.425434 413.479952 165.491596 
Q 409.618138 160.557759 409.618138 152.12029 
Q 409.618138 143.584448 413.548002 138.688446 
Q 417.483536 133.792444 424.32819 133.792444 
Q 426.965111 133.792444 429.380871 134.458361 
Q 431.802302 135.116711 433.945864 136.418275 
L 433.945864 143.720658 
Q 431.734252 142.048299 429.545324 141.22347 
Q 427.356396 140.391074 425.156126 140.391074 
Q 421.084493 140.391074 418.878552 143.433103 
Q 416.672612 146.467565 416.672612 152.12029 
Q 416.672612 157.720045 418.799161 160.777208 
Q 420.925711 163.826805 424.838561 163.826805 
Q 425.904672 163.826805 426.81767 163.652758 
Q 427.730669 163.471144 428.456531 163.092783 
L 428.456531 156.236867 
L 424.288494 156.236867 
L 424.288494 150.130107 
L 434.921241 150.130107 
L 434.921241 167.110985 
z
" clip-path="url(#pcf2ca028e0)" style="fill: #ffa600"/>
   </g>
   <g id="patch_38">
    <path d="M 461.556086 191.96535 
Q 459.439525 192.009993 457.150834 192.032573 
Q 454.862143 192.055414 452.369447 192.055414 
Q 444.935983 192.055414 440.594483 191.886188 
Q 436.252983 191.716962 436.252983 191.427564 
Q 436.252983 191.137129 440.594483 190.968162 
Q 444.935983 190.798936 452.369447 190.798936 
Q 454.862143 190.798936 457.150834 190.821776 
Q 459.439525 190.844357 461.556086 190.889 
L 461.556086 191.139465 
Q 459.4204 191.080287 457.348465 191.052775 
Q 455.27653 191.025263 452.98784 191.025263 
Q 448.882221 191.025263 446.529779 191.132457 
Q 444.183711 191.239391 444.183711 191.427564 
Q 444.183711 191.614959 446.529779 191.722153 
Q 448.882221 191.829087 452.98784 191.829087 
Q 455.27653 191.829087 457.348465 191.801575 
Q 459.4204 191.773803 461.556086 191.714626 
L 461.556086 191.96535 
z
" clip-path="url(#pcf2ca028e0)" style="fill: #0000ff"/>
   </g>
   <g id="patch_39">
    <path d="M 436.252983 189.187095 
L 461.556086 189.187095 
L 461.556086 189.501449 
L 452.452853 189.501449 
L 452.452853 190.798936 
L 445.373869 190.798936 
L 445.373869 189.501449 
L 436.252983 189.501449 
L 436.252983 189.187095 
z
" clip-path="url(#pcf2ca028e0)" style="fill: #ff0000"/>
   </g>
   <g id="patch_40">
    <path d="M 461.556086 186.603894 
Q 459.004227 187.895495 456.25956 188.544244 
Q 453.514894 189.187095 450.588762 189.187095 
Q 443.976611 189.187095 440.114797 185.341783 
Q 436.252983 181.49647 436.252983 174.920514 
Q 436.252983 168.267888 440.182847 164.452064 
Q 444.118381 160.63624 450.963034 160.63624 
Q 453.599956 160.63624 456.015716 161.15524 
Q 458.437147 161.668341 460.580709 162.682749 
L 460.580709 168.374047 
Q 458.369097 167.070651 456.180169 166.4278 
Q 453.991241 165.779051 451.790971 165.779051 
Q 447.719338 165.779051 445.513397 168.149934 
Q 443.307457 170.514919 443.307457 174.920514 
Q 443.307457 179.284826 445.434006 181.667504 
Q 447.560555 184.044285 451.473406 184.044285 
Q 452.539516 184.044285 453.452515 183.908637 
Q 454.365514 183.767092 455.091376 183.472206 
L 455.091376 178.128873 
L 450.923339 178.128873 
L 450.923339 173.369414 
L 461.556086 173.369414 
L 461.556086 186.603894 
z
" clip-path="url(#pcf2ca028e0)" style="fill: #ffa600"/>
   </g>
   <g id="patch_41">
    <path d="M 488.190931 191.883906 
Q 485.639071 191.96966 482.894405 192.012733 
Q 480.149739 192.055414 477.223607 192.055414 
Q 470.611456 192.055414 466.749642 191.80011 
Q 462.887828 191.544806 462.887828 191.108206 
Q 462.887828 190.666515 466.817691 190.413169 
Q 470.753226 190.159823 477.597879 190.159823 
Q 480.234801 190.159823 482.650561 190.194281 
Q 485.071992 190.228348 487.215553 190.295698 
L 487.215553 190.673563 
Q 485.003942 190.587026 482.815014 190.544345 
Q 480.626086 190.501272 478.425816 190.501272 
Q 474.354183 190.501272 472.148242 190.658683 
Q 469.942301 190.815703 469.942301 191.108206 
Q 469.942301 191.397968 472.068851 191.556162 
Q 474.1954 191.713965 478.108251 191.713965 
Q 479.174361 191.713965 480.08736 191.704959 
Q 481.000358 191.695561 481.726221 191.675982 
L 481.726221 191.32122 
L 477.558184 191.32122 
L 477.558184 191.005223 
L 488.190931 191.005223 
L 488.190931 191.883906 
z
" clip-path="url(#pcf2ca028e0)" style="fill: #ffa600"/>
   </g>
   <g id="patch_42">
    <path d="M 488.190931 189.115668 
Q 486.07437 189.633232 483.785679 189.895023 
Q 481.496988 190.159823 479.004292 190.159823 
Q 471.570828 190.159823 467.229328 188.197894 
Q 462.887828 186.235965 462.887828 182.880825 
Q 462.887828 179.513648 467.229328 177.554728 
Q 471.570828 175.592799 479.004292 175.592799 
Q 481.496988 175.592799 483.785679 175.857599 
Q 486.07437 176.11939 488.190931 176.636954 
L 488.190931 179.54073 
Q 486.055244 178.854657 483.98331 178.535693 
Q 481.911375 178.216729 479.622684 178.216729 
Q 475.517066 178.216729 473.164624 179.459485 
Q 470.818556 180.699231 470.818556 182.880825 
Q 470.818556 185.053391 473.164624 186.296146 
Q 475.517066 187.535893 479.622684 187.535893 
Q 481.911375 187.535893 483.98331 187.216929 
Q 486.055244 186.894956 488.190931 186.208883 
L 488.190931 189.115668 
z
" clip-path="url(#pcf2ca028e0)" style="fill: #0000ff"/>
   </g>
   <g id="patch_43">
    <path d="M 462.887828 150.582402 
L 488.190931 150.582402 
L 488.190931 155.460126 
L 479.087698 155.460126 
L 479.087698 175.592799 
L 472.008714 175.592799 
L 472.008714 155.460126 
L 462.887828 155.460126 
L 462.887828 150.582402 
z
" clip-path="url(#pcf2ca028e0)" style="fill: #ff0000"/>
   </g>
   <g id="patch_44">
    <path d="M 507.050154 192.042052 
L 497.318988 192.042052 
L 495.782488 192.055414 
L 489.522673 192.055414 
L 498.462309 191.982068 
L 505.886139 191.982068 
L 514.825776 192.055414 
L 508.571134 192.055414 
L 507.050154 192.042052 
z
M 498.871008 192.028439 
L 505.482614 192.028439 
L 502.181984 191.999265 
L 498.871008 192.028439 
z
" clip-path="url(#pcf2ca028e0)" style="fill: #008000"/>
   </g>
   <g id="patch_45">
    <path d="M 514.825776 178.872495 
Q 512.273916 185.427281 509.52925 188.71964 
Q 506.784583 191.982068 503.858451 191.982068 
Q 497.246301 191.982068 493.384487 172.467361 
Q 489.522673 152.952655 489.522673 119.580112 
Q 489.522673 85.818473 493.452536 66.453419 
Q 497.38807 47.088365 504.232724 47.088365 
Q 506.869645 47.088365 509.285406 49.722252 
Q 511.706837 52.326208 513.850398 57.474259 
L 513.850398 86.357222 
Q 511.638787 79.742575 509.449859 76.480147 
Q 507.260931 73.187788 505.060661 73.187788 
Q 500.989027 73.187788 498.783087 85.219862 
Q 496.577146 97.222005 496.577146 119.580112 
Q 496.577146 141.728705 498.703696 153.82064 
Q 500.830245 165.882644 504.743096 165.882644 
Q 505.809206 165.882644 506.722205 165.194242 
Q 507.635203 164.475909 508.361065 162.979383 
L 508.361065 135.862321 
L 504.193029 135.862321 
L 504.193029 111.708382 
L 514.825776 111.708382 
L 514.825776 178.872495 
z
" clip-path="url(#pcf2ca028e0)" style="fill: #ffa600"/>
   </g>
   <g id="patch_46">
    <path d="M 541.460621 185.836019 
Q 538.908761 188.945716 536.164095 190.507665 
Q 533.419428 192.055414 530.493296 192.055414 
Q 523.881145 192.055414 520.019332 182.797319 
Q 516.157518 173.539224 516.157518 157.706746 
Q 516.157518 141.689673 520.087381 132.502576 
Q 524.022915 123.315479 530.867569 123.315479 
Q 533.50449 123.315479 535.92025 124.565038 
Q 538.341681 125.800397 540.485243 128.242717 
L 540.485243 141.945265 
Q 538.273632 138.807168 536.084704 137.259419 
Q 533.895775 135.697471 531.695506 135.697471 
Q 527.623872 135.697471 525.417932 141.405683 
Q 523.211991 147.099695 523.211991 157.706746 
Q 523.211991 168.214399 525.338541 173.95101 
Q 527.46509 179.673422 531.377941 179.673422 
Q 532.444051 179.673422 533.35705 179.346833 
Q 534.270048 179.006044 534.99591 178.296067 
L 534.99591 165.431291 
L 530.827873 165.431291 
L 530.827873 153.972269 
L 541.460621 153.972269 
L 541.460621 185.836019 
z
" clip-path="url(#pcf2ca028e0)" style="fill: #ffa600"/>
   </g>
   <g id="patch_47">
    <path d="M 542.792363 190.931104 
L 568.095465 190.931104 
L 568.095465 191.150376 
L 558.992233 191.150376 
L 558.992233 192.055414 
L 551.913249 192.055414 
L 551.913249 191.150376 
L 542.792363 191.150376 
L 542.792363 190.931104 
z
" clip-path="url(#pcf2ca028e0)" style="fill: #ff0000"/>
   </g>
   <g id="patch_48">
    <path d="M 568.095465 189.308272 
Q 565.978905 190.112673 563.690214 190.51955 
Q 561.401523 190.931104 558.908826 190.931104 
Q 551.475362 190.931104 547.133863 187.881863 
Q 542.792363 184.832622 542.792363 179.618045 
Q 542.792363 174.384762 547.133863 171.340198 
Q 551.475362 168.290956 558.908826 168.290956 
Q 561.401523 168.290956 563.690214 168.70251 
Q 565.978905 169.109388 568.095465 169.913789 
L 568.095465 174.426853 
Q 565.959779 173.360554 563.887844 172.864818 
Q 561.81591 172.369083 559.527219 172.369083 
Q 555.421601 172.369083 553.069158 174.30058 
Q 550.723091 176.227402 550.723091 179.618045 
Q 550.723091 182.994659 553.069158 184.926157 
Q 555.421601 186.852978 559.527219 186.852978 
Q 561.81591 186.852978 563.887844 186.357242 
Q 565.959779 185.85683 568.095465 184.790531 
L 568.095465 189.308272 
z
" clip-path="url(#pcf2ca028e0)" style="fill: #0000ff"/>
   </g>
   <g id="patch_49">
    <path d="M 586.954689 191.87876 
L 577.223522 191.87876 
L 575.687022 192.055414 
L 569.427208 192.055414 
L 578.366844 191.08569 
L 585.790674 191.08569 
L 594.73031 192.055414 
L 588.475669 192.055414 
L 586.954689 191.87876 
z
M 578.775543 191.698781 
L 585.387149 191.698781 
L 582.086519 191.313053 
L 578.775543 191.698781 
z
" clip-path="url(#pcf2ca028e0)" style="fill: #008000"/>
   </g>
   <g id="patch_50">
    <path d="M 594.73031 190.733681 
Q 592.178451 190.909685 589.433785 190.998089 
Q 586.689118 191.08569 583.762986 191.08569 
Q 577.150835 191.08569 573.289021 190.561695 
Q 569.427208 190.0377 569.427208 189.141605 
Q 569.427208 188.235062 573.357071 187.715086 
Q 577.292605 187.195109 584.137259 187.195109 
Q 586.77418 187.195109 589.18994 187.265832 
Q 591.611371 187.335752 593.754933 187.473984 
L 593.754933 188.249528 
Q 591.543322 188.071916 589.354393 187.984316 
Q 587.165465 187.895912 584.965195 187.895912 
Q 580.893562 187.895912 578.687621 188.218988 
Q 576.481681 188.541261 576.481681 189.141605 
Q 576.481681 189.736323 578.60823 190.061007 
Q 580.73478 190.384887 584.647631 190.384887 
Q 585.713741 190.384887 586.626739 190.366402 
Q 587.539738 190.347114 588.2656 190.306931 
L 588.2656 189.578803 
L 584.097563 189.578803 
L 584.097563 188.930239 
L 594.73031 188.930239 
L 594.73031 190.733681 
z
" clip-path="url(#pcf2ca028e0)" style="fill: #ffa600"/>
   </g>
   <g id="patch_51">
    <path d="M 594.73031 186.906445 
Q 592.613749 187.049529 590.325059 187.121903 
Q 588.036368 187.195109 585.543671 187.195109 
Q 578.110207 187.195109 573.768707 186.652719 
Q 569.427208 186.11033 569.427208 185.182777 
Q 569.427208 184.251896 573.768707 183.710338 
Q 578.110207 183.167948 585.543671 183.167948 
Q 588.036368 183.167948 590.325059 183.241154 
Q 592.613749 183.313528 594.73031 183.456613 
L 594.73031 184.259383 
Q 592.594624 184.069713 590.522689 183.981533 
Q 588.450755 183.893353 586.162064 183.893353 
Q 582.056446 183.893353 579.704003 184.236922 
Q 577.357936 184.579659 577.357936 185.182777 
Q 577.357936 185.783398 579.704003 186.126967 
Q 582.056446 186.469704 586.162064 186.469704 
Q 588.450755 186.469704 590.522689 186.381525 
Q 592.594624 186.292513 594.73031 186.102843 
L 594.73031 186.906445 
z
" clip-path="url(#pcf2ca028e0)" style="fill: #0000ff"/>
   </g>
   <g id="patch_52">
    <path d="M 596.062053 192.05052 
L 621.365155 192.05052 
L 621.365155 192.051474 
L 612.261923 192.051474 
L 612.261923 192.055414 
L 605.182938 192.055414 
L 605.182938 192.051474 
L 596.062053 192.051474 
L 596.062053 192.05052 
z
" clip-path="url(#pcf2ca028e0)" style="fill: #ff0000"/>
   </g>
   <g id="patch_53">
    <path d="M 613.589534 191.814892 
L 603.858367 191.814892 
L 602.321867 192.05052 
L 596.062053 192.05052 
L 605.001689 190.757062 
L 612.425519 190.757062 
L 621.365155 192.05052 
L 615.110514 192.05052 
L 613.589534 191.814892 
z
M 605.410387 191.574829 
L 612.021994 191.574829 
L 608.721364 191.060328 
L 605.410387 191.574829 
z
" clip-path="url(#pcf2ca028e0)" style="fill: #008000"/>
   </g>
   <g id="patch_54">
    <path d="M 621.365155 189.933882 
Q 618.813296 190.345472 616.068629 190.552206 
Q 613.323963 190.757062 610.397831 190.757062 
Q 603.78568 190.757062 599.923866 189.531689 
Q 596.062053 188.306317 596.062053 186.21078 
Q 596.062053 184.090811 599.991916 182.874836 
Q 603.92745 181.658861 610.772104 181.658861 
Q 613.409025 181.658861 615.824785 181.824248 
Q 618.246216 181.987757 620.389778 182.311014 
L 620.389778 184.12464 
Q 618.178166 183.709292 615.989238 183.504437 
Q 613.80031 183.297702 611.60004 183.297702 
Q 607.528407 183.297702 605.322466 184.053223 
Q 603.116526 184.806865 603.116526 186.21078 
Q 603.116526 187.60154 605.243075 188.36082 
Q 607.369625 189.11822 611.282476 189.11822 
Q 612.348586 189.11822 613.261584 189.074994 
Q 614.174583 189.029888 614.900445 188.935918 
L 614.900445 187.233177 
L 610.732408 187.233177 
L 610.732408 185.716497 
L 621.365155 185.716497 
L 621.365155 189.933882 
z
" clip-path="url(#pcf2ca028e0)" style="fill: #ffa600"/>
   </g>
   <g id="patch_55">
    <path d="M 640.224379 192.022276 
L 630.493212 192.022276 
L 628.956712 192.055414 
L 622.696897 192.055414 
L 631.636534 191.873506 
L 639.060364 191.873506 
L 648 192.055414 
L 641.745359 192.055414 
L 640.224379 192.022276 
z
M 632.045232 191.988514 
L 638.656838 191.988514 
L 635.356209 191.916156 
L 632.045232 191.988514 
z
" clip-path="url(#pcf2ca028e0)" style="fill: #008000"/>
   </g>
   <g id="patch_56">
    <path d="M 648 191.652266 
Q 645.448141 191.762886 642.703474 191.818448 
Q 639.958808 191.873506 637.032676 191.873506 
Q 630.420525 191.873506 626.558711 191.544171 
Q 622.696897 191.214837 622.696897 190.651635 
Q 622.696897 190.081866 626.626761 189.755058 
Q 630.562295 189.428249 637.406949 189.428249 
Q 640.04387 189.428249 642.45963 189.472699 
Q 644.881061 189.516644 647.024623 189.603524 
L 647.024623 190.090959 
Q 644.813011 189.979328 642.624083 189.924271 
Q 640.435155 189.868708 638.234885 189.868708 
Q 634.163252 189.868708 631.957311 190.071764 
Q 629.751371 190.274315 629.751371 190.651635 
Q 629.751371 191.025419 631.87792 191.229485 
Q 634.004469 191.433046 637.91732 191.433046 
Q 638.98343 191.433046 639.896429 191.421429 
Q 640.809428 191.409306 641.53529 191.38405 
L 641.53529 190.926417 
L 637.367253 190.926417 
L 637.367253 190.51879 
L 648 190.51879 
L 648 191.652266 
z
" clip-path="url(#pcf2ca028e0)" style="fill: #ffa600"/>
   </g>
   <g id="patch_57">
    <path d="M 90 193.266969 
L 115.303103 193.266969 
L 115.303103 193.030682 
L 106.19987 193.030682 
L 106.19987 192.055414 
L 99.120886 192.055414 
L 99.120886 193.030682 
L 90 193.030682 
L 90 193.266969 
z
" clip-path="url(#pcf2ca028e0)" style="fill: #ff0000"/>
   </g>
   <g id="patch_58">
    <path d="M 134.162326 192.327058 
L 124.43116 192.327058 
L 122.89466 192.055414 
L 116.634845 192.055414 
L 125.574481 193.546581 
L 132.998311 193.546581 
L 141.937947 192.055414 
L 135.683306 192.055414 
L 134.162326 192.327058 
z
M 125.98318 192.603816 
L 132.594786 192.603816 
L 129.294156 193.196959 
L 125.98318 192.603816 
z
" clip-path="url(#pcf2ca028e0)" style="fill: #008000"/>
   </g>
   <g id="patch_59">
    <path d="M 168.572792 192.16094 
Q 166.456231 192.108633 164.167541 192.082175 
Q 161.87885 192.055414 159.386153 192.055414 
Q 151.952689 192.055414 147.61119 192.253694 
Q 143.26969 192.451974 143.26969 192.791057 
Q 143.26969 193.131356 147.61119 193.329332 
Q 151.952689 193.527612 159.386153 193.527612 
Q 161.87885 193.527612 164.167541 193.50085 
Q 166.456231 193.474393 168.572792 193.422086 
L 168.572792 193.128619 
Q 166.437106 193.197956 164.365171 193.230192 
Q 162.293237 193.262428 160.004546 193.262428 
Q 155.898928 193.262428 153.546485 193.13683 
Q 151.200418 193.011537 151.200418 192.791057 
Q 151.200418 192.571489 153.546485 192.445891 
Q 155.898928 192.320598 160.004546 192.320598 
Q 162.293237 192.320598 164.365171 192.352834 
Q 166.437106 192.385373 168.572792 192.454711 
L 168.572792 192.16094 
z
" clip-path="url(#pcf2ca028e0)" style="fill: #0000ff"/>
   </g>
   <g id="patch_60">
    <path d="M 143.26969 195.503643 
L 168.572792 195.503643 
L 168.572792 195.118262 
L 159.46956 195.118262 
L 159.46956 193.527612 
L 152.390576 193.527612 
L 152.390576 195.118262 
L 143.26969 195.118262 
L 143.26969 195.503643 
z
" clip-path="url(#pcf2ca028e0)" style="fill: #ff0000"/>
   </g>
   <g id="patch_61">
    <path d="M 169.904535 194.168528 
L 195.207637 194.168528 
L 195.207637 193.756412 
L 186.104405 193.756412 
L 186.104405 192.055414 
L 179.02542 192.055414 
L 179.02542 193.756412 
L 169.904535 193.756412 
L 169.904535 194.168528 
z
" clip-path="url(#pcf2ca028e0)" style="fill: #ff0000"/>
   </g>
   <g id="patch_62">
    <path d="M 214.066861 192.179213 
L 204.335694 192.179213 
L 202.799194 192.055414 
L 196.539379 192.055414 
L 205.479016 192.734997 
L 212.902846 192.734997 
L 221.842482 192.055414 
L 215.587841 192.055414 
L 214.066861 192.179213 
z
M 205.887714 192.305342 
L 212.499321 192.305342 
L 209.198691 192.575661 
L 205.887714 192.305342 
z
" clip-path="url(#pcf2ca028e0)" style="fill: #008000"/>
   </g>
   <g id="patch_63">
    <path d="M 240.701706 192.190125 
L 230.970539 192.190125 
L 229.434039 192.055414 
L 223.174224 192.055414 
L 232.113861 192.794902 
L 239.537691 192.794902 
L 248.477327 192.055414 
L 242.222686 192.055414 
L 240.701706 192.190125 
z
M 232.522559 192.327373 
L 239.134165 192.327373 
L 235.833536 192.62152 
L 232.522559 192.327373 
z
" clip-path="url(#pcf2ca028e0)" style="fill: #008000"/>
   </g>
   <g id="patch_64">
    <path d="M 223.174224 194.218438 
L 248.477327 194.218438 
L 248.477327 193.940809 
L 239.374094 193.940809 
L 239.374094 192.794902 
L 232.29511 192.794902 
L 232.29511 193.940809 
L 223.174224 193.940809 
L 223.174224 194.218438 
z
" clip-path="url(#pcf2ca028e0)" style="fill: #ff0000"/>
   </g>
   <g id="patch_65">
    <path d="M 267.336551 192.390916 
L 257.605384 192.390916 
L 256.068884 192.294029 
L 249.809069 192.294029 
L 258.748706 192.825878 
L 266.172535 192.825878 
L 275.112172 192.294029 
L 268.85753 192.294029 
L 267.336551 192.390916 
z
M 259.157404 192.489626 
L 265.76901 192.489626 
L 262.468381 192.70118 
L 259.157404 192.489626 
z
" clip-path="url(#pcf2ca028e0)" style="fill: #008000"/>
   </g>
   <g id="patch_66">
    <path d="M 275.112172 192.065177 
Q 272.560313 192.060295 269.815646 192.057843 
Q 267.07098 192.055414 264.144848 192.055414 
Q 257.532697 192.055414 253.670883 192.069947 
Q 249.809069 192.08448 249.809069 192.109333 
Q 249.809069 192.134476 253.738933 192.148897 
Q 257.674467 192.163319 264.51912 192.163319 
Q 267.156042 192.163319 269.571802 192.161357 
Q 271.993233 192.159418 274.136795 192.155584 
L 274.136795 192.134075 
Q 271.925183 192.139001 269.736255 192.14143 
Q 267.547327 192.143882 265.347057 192.143882 
Q 261.275424 192.143882 259.069483 192.134922 
Q 256.863542 192.125983 256.863542 192.109333 
Q 256.863542 192.092838 258.990092 192.083833 
Q 261.116641 192.07485 265.029492 192.07485 
Q 266.095602 192.07485 267.008601 192.075363 
Q 267.921599 192.075898 268.647462 192.077013 
L 268.647462 192.097207 
L 264.479425 192.097207 
L 264.479425 192.115195 
L 275.112172 192.115195 
L 275.112172 192.065177 
z
" clip-path="url(#pcf2ca028e0)" style="fill: #ffa600"/>
   </g>
   <g id="patch_67">
    <path d="M 249.809069 192.294029 
L 275.112172 192.294029 
L 275.112172 192.268537 
L 266.008939 192.268537 
L 266.008939 192.163319 
L 258.929955 192.163319 
L 258.929955 192.268537 
L 249.809069 192.268537 
L 249.809069 192.294029 
z
" clip-path="url(#pcf2ca028e0)" style="fill: #ff0000"/>
   </g>
   <g id="patch_68">
    <path d="M 293.971396 192.057451 
L 284.240229 192.057451 
L 282.703729 192.055414 
L 276.443914 192.055414 
L 285.38355 192.066597 
L 292.80738 192.066597 
L 301.747017 192.055414 
L 295.492375 192.055414 
L 293.971396 192.057451 
z
M 285.792249 192.059527 
L 292.403855 192.059527 
L 289.103225 192.063975 
L 285.792249 192.059527 
z
" clip-path="url(#pcf2ca028e0)" style="fill: #008000"/>
   </g>
   <g id="patch_69">
    <path d="M 303.078759 193.148824 
L 328.381862 193.148824 
L 328.381862 192.935579 
L 319.278629 192.935579 
L 319.278629 192.055414 
L 312.199645 192.055414 
L 312.199645 192.935579 
L 303.078759 192.935579 
L 303.078759 193.148824 
z
" clip-path="url(#pcf2ca028e0)" style="fill: #ff0000"/>
   </g>
   <g id="patch_70">
    <path d="M 408.286396 192.073702 
Q 405.734537 192.064558 402.98987 192.059965 
Q 400.245204 192.055414 397.319072 192.055414 
Q 390.706921 192.055414 386.845107 192.082638 
Q 382.983294 192.109862 382.983294 192.156418 
Q 382.983294 192.203517 386.913157 192.230533 
Q 390.848691 192.257548 397.693345 192.257548 
Q 400.330266 192.257548 402.746026 192.253874 
Q 405.167457 192.250241 407.311019 192.243059 
L 407.311019 192.202766 
Q 405.099407 192.211994 402.910479 192.216545 
Q 400.721551 192.221138 398.521281 192.221138 
Q 394.449648 192.221138 392.243707 192.204353 
Q 390.037767 192.187609 390.037767 192.156418 
Q 390.037767 192.12552 392.164316 192.108651 
Q 394.290866 192.091824 398.203717 192.091824 
Q 399.269827 192.091824 400.182825 192.092784 
Q 401.095824 192.093786 401.821686 192.095874 
L 401.821686 192.133704 
L 397.653649 192.133704 
L 397.653649 192.1674 
L 408.286396 192.1674 
L 408.286396 192.073702 
z
" clip-path="url(#pcf2ca028e0)" style="fill: #ffa600"/>
   </g>
   <g id="patch_71">
    <path d="M 434.921241 193.489531 
Q 432.80468 193.387456 430.515989 193.335826 
Q 428.227299 193.283602 425.734602 193.283602 
Q 418.301138 193.283602 413.959638 193.670534 
Q 409.618138 194.057466 409.618138 194.719167 
Q 409.618138 195.383242 413.959638 195.76958 
Q 418.301138 196.156512 425.734602 196.156512 
Q 428.227299 196.156512 430.515989 196.104288 
Q 432.80468 196.052658 434.921241 195.950584 
L 434.921241 195.377901 
Q 432.785555 195.513208 430.71362 195.576114 
Q 428.641685 195.63902 426.352995 195.63902 
Q 422.247377 195.63902 419.894934 195.393924 
Q 417.548866 195.149421 417.548866 194.719167 
Q 417.548866 194.290693 419.894934 194.045597 
Q 422.247377 193.801094 426.352995 193.801094 
Q 428.641685 193.801094 430.71362 193.864 
Q 432.785555 193.927499 434.921241 194.062807 
L 434.921241 193.489531 
z
" clip-path="url(#pcf2ca028e0)" style="fill: #0000ff"/>
   </g>
   <g id="patch_72">
    <path d="M 409.618138 193.283602 
L 434.921241 193.283602 
L 434.921241 193.044071 
L 425.818009 193.044071 
L 425.818009 192.055414 
L 418.739024 192.055414 
L 418.739024 193.044071 
L 409.618138 193.044071 
L 409.618138 193.283602 
z
" clip-path="url(#pcf2ca028e0)" style="fill: #ff0000"/>
   </g>
   <g id="patch_73">
    <path d="M 453.780465 192.159431 
L 444.049298 192.159431 
L 442.512798 192.055414 
L 436.252983 192.055414 
L 445.19262 192.626405 
L 452.61645 192.626405 
L 461.556086 192.055414 
L 455.301445 192.055414 
L 453.780465 192.159431 
z
M 445.601318 192.265406 
L 452.212924 192.265406 
L 448.912295 192.49253 
L 445.601318 192.265406 
z
" clip-path="url(#pcf2ca028e0)" style="fill: #008000"/>
   </g>
   <g id="patch_74">
    <path d="M 480.41531 192.305052 
L 470.684143 192.305052 
L 469.147643 192.055414 
L 462.887828 192.055414 
L 471.827465 193.425781 
L 479.251294 193.425781 
L 488.190931 192.055414 
L 481.936289 192.055414 
L 480.41531 192.305052 
z
M 472.236163 192.559389 
L 478.847769 192.559389 
L 475.54714 193.104482 
L 472.236163 192.559389 
z
" clip-path="url(#pcf2ca028e0)" style="fill: #008000"/>
   </g>
   <g id="patch_75">
    <path d="M 514.825776 192.069929 
Q 512.709215 192.062734 510.420524 192.059095 
Q 508.131833 192.055414 505.639136 192.055414 
Q 498.205673 192.055414 493.864173 192.082687 
Q 489.522673 192.10996 489.522673 192.156601 
Q 489.522673 192.203409 493.864173 192.230641 
Q 498.205673 192.257914 505.639136 192.257914 
Q 508.131833 192.257914 510.420524 192.254233 
Q 512.709215 192.250594 514.825776 192.243399 
L 514.825776 192.203033 
Q 512.690089 192.21257 510.618155 192.217004 
Q 508.54622 192.221438 506.257529 192.221438 
Q 502.151911 192.221438 499.799469 192.204162 
Q 497.453401 192.186928 497.453401 192.156601 
Q 497.453401 192.1264 499.799469 192.109124 
Q 502.151911 192.09189 506.257529 192.09189 
Q 508.54622 192.09189 510.618155 192.096324 
Q 512.690089 192.100799 514.825776 192.110337 
L 514.825776 192.069929 
z
" clip-path="url(#pcf2ca028e0)" style="fill: #0000ff"/>
   </g>
   <g id="patch_76">
    <path d="M 489.522673 192.7579 
L 514.825776 192.7579 
L 514.825776 192.660388 
L 505.722543 192.660388 
L 505.722543 192.257914 
L 498.643559 192.257914 
L 498.643559 192.660388 
L 489.522673 192.660388 
L 489.522673 192.7579 
z
" clip-path="url(#pcf2ca028e0)" style="fill: #ff0000"/>
   </g>
   <g id="patch_77">
    <path d="M 533.684999 192.398134 
L 523.953833 192.398134 
L 522.417333 192.245202 
L 516.157518 192.245202 
L 525.097154 193.084709 
L 532.520984 193.084709 
L 541.460621 192.245202 
L 535.205979 192.245202 
L 533.684999 192.398134 
z
M 525.505853 192.553945 
L 532.117459 192.553945 
L 528.816829 192.887876 
L 525.505853 192.553945 
z
" clip-path="url(#pcf2ca028e0)" style="fill: #008000"/>
   </g>
   <g id="patch_78">
    <path d="M 541.460621 193.227141 
Q 539.34406 193.15654 537.055369 193.12083 
Q 534.766678 193.084709 532.273981 193.084709 
Q 524.840518 193.084709 520.499018 193.352333 
Q 516.157518 193.619957 516.157518 194.077628 
Q 516.157518 194.53694 520.499018 194.804154 
Q 524.840518 195.071778 532.273981 195.071778 
Q 534.766678 195.071778 537.055369 195.035657 
Q 539.34406 194.999946 541.460621 194.929346 
L 541.460621 194.533246 
Q 539.324934 194.626832 537.253 194.670341 
Q 535.181065 194.713851 532.892374 194.713851 
Q 528.786756 194.713851 526.434313 194.544328 
Q 524.088246 194.375216 524.088246 194.077628 
Q 524.088246 193.781271 526.434313 193.611748 
Q 528.786756 193.442636 532.892374 193.442636 
Q 535.181065 193.442636 537.253 193.486145 
Q 539.324934 193.530065 541.460621 193.623651 
L 541.460621 193.227141 
z
" clip-path="url(#pcf2ca028e0)" style="fill: #0000ff"/>
   </g>
   <g id="patch_79">
    <path d="M 516.157518 192.245202 
L 541.460621 192.245202 
L 541.460621 192.208188 
L 532.357388 192.208188 
L 532.357388 192.055414 
L 525.278404 192.055414 
L 525.278404 192.208188 
L 516.157518 192.208188 
L 516.157518 192.245202 
z
" clip-path="url(#pcf2ca028e0)" style="fill: #ff0000"/>
   </g>
   <g id="patch_80">
    <path d="M 560.319844 193.526658 
L 550.588678 193.526658 
L 549.052178 193.060554 
L 542.792363 193.060554 
L 551.731999 195.619192 
L 559.155829 195.619192 
L 568.095465 193.060554 
L 561.840824 193.060554 
L 560.319844 193.526658 
z
M 552.140698 194.001536 
L 558.752304 194.001536 
L 555.451674 195.019288 
L 552.140698 194.001536 
z
" clip-path="url(#pcf2ca028e0)" style="fill: #008000"/>
   </g>
   <g id="patch_81">
    <path d="M 568.095465 192.146356 
Q 565.543606 192.100885 562.79894 192.078045 
Q 560.054273 192.055414 557.128141 192.055414 
Q 550.51599 192.055414 546.654177 192.190789 
Q 542.792363 192.326164 542.792363 192.557672 
Q 542.792363 192.79188 546.722226 192.926217 
Q 550.65776 193.060554 557.502414 193.060554 
Q 560.139335 193.060554 562.555095 193.042283 
Q 564.976526 193.024219 567.120088 192.988506 
L 567.120088 192.788143 
Q 564.908477 192.834029 562.719548 192.856661 
Q 560.53062 192.8795 558.33035 192.8795 
Q 554.258717 192.8795 552.052777 192.796033 
Q 549.846836 192.712773 549.846836 192.557672 
Q 549.846836 192.404026 551.973385 192.320143 
Q 554.099935 192.236468 558.012786 192.236468 
Q 559.078896 192.236468 559.991894 192.241243 
Q 560.904893 192.246226 561.630755 192.256608 
L 561.630755 192.444721 
L 557.462718 192.444721 
L 557.462718 192.612279 
L 568.095465 192.612279 
L 568.095465 192.146356 
z
" clip-path="url(#pcf2ca028e0)" style="fill: #ffa600"/>
   </g>
   <g id="patch_82">
    <path d="M 569.427208 193.664809 
L 594.73031 193.664809 
L 594.73031 193.350932 
L 585.627078 193.350932 
L 585.627078 192.055414 
L 578.548093 192.055414 
L 578.548093 193.350932 
L 569.427208 193.350932 
L 569.427208 193.664809 
z
" clip-path="url(#pcf2ca028e0)" style="fill: #ff0000"/>
   </g>
   <g id="patch_83">
    <path d="M 621.365155 192.319703 
Q 619.248594 192.188701 616.959903 192.122438 
Q 614.671213 192.055414 612.178516 192.055414 
Q 604.745052 192.055414 600.403552 192.552004 
Q 596.062053 193.048594 596.062053 193.897825 
Q 596.062053 194.750102 600.403552 195.24593 
Q 604.745052 195.74252 612.178516 195.74252 
Q 614.671213 195.74252 616.959903 195.675496 
Q 619.248594 195.609233 621.365155 195.478231 
L 621.365155 194.743247 
Q 619.229469 194.916901 617.157534 194.997635 
Q 615.0856 195.078369 612.796909 195.078369 
Q 608.691291 195.078369 606.338848 194.763811 
Q 603.992781 194.450015 603.992781 193.897825 
Q 603.992781 193.347919 606.338848 193.033361 
Q 608.691291 192.719565 612.796909 192.719565 
Q 615.0856 192.719565 617.157534 192.800299 
Q 619.229469 192.881795 621.365155 193.055449 
L 621.365155 192.319703 
z
" clip-path="url(#pcf2ca028e0)" style="fill: #0000ff"/>
   </g>
   <g id="patch_84">
    <path d="M 648 192.918967 
Q 645.883439 192.844403 643.594748 192.806688 
Q 641.306058 192.768539 638.813361 192.768539 
Q 631.379897 192.768539 627.038397 193.051188 
Q 622.696897 193.333837 622.696897 193.817202 
Q 622.696897 194.3023 627.038397 194.584516 
Q 631.379897 194.867165 638.813361 194.867165 
Q 641.306058 194.867165 643.594748 194.829016 
Q 645.883439 194.7913 648 194.716736 
L 648 194.298399 
Q 645.864314 194.397239 643.792379 194.443191 
Q 641.720444 194.489143 639.431754 194.489143 
Q 635.326136 194.489143 632.973693 194.310103 
Q 630.627625 194.131497 630.627625 193.817202 
Q 630.627625 193.504207 632.973693 193.325167 
Q 635.326136 193.14656 639.431754 193.14656 
Q 641.720444 193.14656 643.792379 193.192513 
Q 645.864314 193.238898 648 193.337739 
L 648 192.918967 
z
" clip-path="url(#pcf2ca028e0)" style="fill: #0000ff"/>
   </g>
   <g id="patch_85">
    <path d="M 622.696897 192.768539 
L 648 192.768539 
L 648 192.62946 
L 638.896767 192.62946 
L 638.896767 192.055414 
L 631.817783 192.055414 
L 631.817783 192.62946 
L 622.696897 192.62946 
L 622.696897 192.768539 
z
" clip-path="url(#pcf2ca028e0)" style="fill: #ff0000"/>
   </g>
   <g id="matplotlib.axis_1">
    <g id="xtick_1">
     <g id="line2d_2">
      <defs>
       <path id="m19f23d4d8e" d="M 0 0 
L 0 3.5 
" style="stroke: #000000; stroke-width: 0.8"/>
      </defs>
      <g>
       <use xlink:href="#m19f23d4d8e" x="102.651551" y="192.24" style="stroke: #000000; stroke-width: 0.8"/>
      </g>
     </g>
     <g id="text_1">
      <!-- 0.0 -->
      <g transform="translate(94.699989 206.838437) scale(0.1 -0.1)">
       <defs>
        <path id="DejaVuSans-30" d="M 2034 4250 
Q 1547 4250 1301 3770 
Q 1056 3291 1056 2328 
Q 1056 1369 1301 889 
Q 1547 409 2034 409 
Q 2525 409 2770 889 
Q 3016 1369 3016 2328 
Q 3016 3291 2770 3770 
Q 2525 4250 2034 4250 
z
M 2034 4750 
Q 2819 4750 3233 4129 
Q 3647 3509 3647 2328 
Q 3647 1150 3233 529 
Q 2819 -91 2034 -91 
Q 1250 -91 836 529 
Q 422 1150 422 2328 
Q 422 3509 836 4129 
Q 1250 4750 2034 4750 
z
" transform="scale(0.015625)"/>
        <path id="DejaVuSans-2e" d="M 684 794 
L 1344 794 
L 1344 0 
L 684 0 
L 684 794 
z
" transform="scale(0.015625)"/>
       </defs>
       <use xlink:href="#DejaVuSans-30"/>
       <use xlink:href="#DejaVuSans-2e" x="63.623047"/>
       <use xlink:href="#DejaVuSans-30" x="95.410156"/>
      </g>
     </g>
    </g>
    <g id="xtick_2">
     <g id="line2d_3">
      <g>
       <use xlink:href="#m19f23d4d8e" x="169.238663" y="192.24" style="stroke: #000000; stroke-width: 0.8"/>
      </g>
     </g>
     <g id="text_2">
      <!-- 2.5 -->
      <g transform="translate(161.287101 206.838437) scale(0.1 -0.1)">
       <defs>
        <path id="DejaVuSans-32" d="M 1228 531 
L 3431 531 
L 3431 0 
L 469 0 
L 469 531 
Q 828 903 1448 1529 
Q 2069 2156 2228 2338 
Q 2531 2678 2651 2914 
Q 2772 3150 2772 3378 
Q 2772 3750 2511 3984 
Q 2250 4219 1831 4219 
Q 1534 4219 1204 4116 
Q 875 4013 500 3803 
L 500 4441 
Q 881 4594 1212 4672 
Q 1544 4750 1819 4750 
Q 2544 4750 2975 4387 
Q 3406 4025 3406 3419 
Q 3406 3131 3298 2873 
Q 3191 2616 2906 2266 
Q 2828 2175 2409 1742 
Q 1991 1309 1228 531 
z
" transform="scale(0.015625)"/>
        <path id="DejaVuSans-35" d="M 691 4666 
L 3169 4666 
L 3169 4134 
L 1269 4134 
L 1269 2991 
Q 1406 3038 1543 3061 
Q 1681 3084 1819 3084 
Q 2600 3084 3056 2656 
Q 3513 2228 3513 1497 
Q 3513 744 3044 326 
Q 2575 -91 1722 -91 
Q 1428 -91 1123 -41 
Q 819 9 494 109 
L 494 744 
Q 775 591 1075 516 
Q 1375 441 1709 441 
Q 2250 441 2565 725 
Q 2881 1009 2881 1497 
Q 2881 1984 2565 2268 
Q 2250 2553 1709 2553 
Q 1456 2553 1204 2497 
Q 953 2441 691 2322 
L 691 4666 
z
" transform="scale(0.015625)"/>
       </defs>
       <use xlink:href="#DejaVuSans-32"/>
       <use xlink:href="#DejaVuSans-2e" x="63.623047"/>
       <use xlink:href="#DejaVuSans-35" x="95.410156"/>
      </g>
     </g>
    </g>
    <g id="xtick_3">
     <g id="line2d_4">
      <g>
       <use xlink:href="#m19f23d4d8e" x="235.825776" y="192.24" style="stroke: #000000; stroke-width: 0.8"/>
      </g>
     </g>
     <g id="text_3">
      <!-- 5.0 -->
      <g transform="translate(227.874213 206.838437) scale(0.1 -0.1)">
       <use xlink:href="#DejaVuSans-35"/>
       <use xlink:href="#DejaVuSans-2e" x="63.623047"/>
       <use xlink:href="#DejaVuSans-30" x="95.410156"/>
      </g>
     </g>
    </g>
    <g id="xtick_4">
     <g id="line2d_5">
      <g>
       <use xlink:href="#m19f23d4d8e" x="302.412888" y="192.24" style="stroke: #000000; stroke-width: 0.8"/>
      </g>
     </g>
     <g id="text_4">
      <!-- 7.5 -->
      <g transform="translate(294.461325 206.838437) scale(0.1 -0.1)">
       <defs>
        <path id="DejaVuSans-37" d="M 525 4666 
L 3525 4666 
L 3525 4397 
L 1831 0 
L 1172 0 
L 2766 4134 
L 525 4134 
L 525 4666 
z
" transform="scale(0.015625)"/>
       </defs>
       <use xlink:href="#DejaVuSans-37"/>
       <use xlink:href="#DejaVuSans-2e" x="63.623047"/>
       <use xlink:href="#DejaVuSans-35" x="95.410156"/>
      </g>
     </g>
    </g>
    <g id="xtick_5">
     <g id="line2d_6">
      <g>
       <use xlink:href="#m19f23d4d8e" x="369" y="192.24" style="stroke: #000000; stroke-width: 0.8"/>
      </g>
     </g>
     <g id="text_5">
      <!-- 10.0 -->
      <g transform="translate(357.867188 206.838437) scale(0.1 -0.1)">
       <defs>
        <path id="DejaVuSans-31" d="M 794 531 
L 1825 531 
L 1825 4091 
L 703 3866 
L 703 4441 
L 1819 4666 
L 2450 4666 
L 2450 531 
L 3481 531 
L 3481 0 
L 794 0 
L 794 531 
z
" transform="scale(0.015625)"/>
       </defs>
       <use xlink:href="#DejaVuSans-31"/>
       <use xlink:href="#DejaVuSans-30" x="63.623047"/>
       <use xlink:href="#DejaVuSans-2e" x="127.246094"/>
       <use xlink:href="#DejaVuSans-30" x="159.033203"/>
      </g>
     </g>
    </g>
    <g id="xtick_6">
     <g id="line2d_7">
      <g>
       <use xlink:href="#m19f23d4d8e" x="435.587112" y="192.24" style="stroke: #000000; stroke-width: 0.8"/>
      </g>
     </g>
     <g id="text_6">
      <!-- 12.5 -->
      <g transform="translate(424.4543 206.838437) scale(0.1 -0.1)">
       <use xlink:href="#DejaVuSans-31"/>
       <use xlink:href="#DejaVuSans-32" x="63.623047"/>
       <use xlink:href="#DejaVuSans-2e" x="127.246094"/>
       <use xlink:href="#DejaVuSans-35" x="159.033203"/>
      </g>
     </g>
    </g>
    <g id="xtick_7">
     <g id="line2d_8">
      <g>
       <use xlink:href="#m19f23d4d8e" x="502.174224" y="192.24" style="stroke: #000000; stroke-width: 0.8"/>
      </g>
     </g>
     <g id="text_7">
      <!-- 15.0 -->
      <g transform="translate(491.041412 206.838437) scale(0.1 -0.1)">
       <use xlink:href="#DejaVuSans-31"/>
       <use xlink:href="#DejaVuSans-35" x="63.623047"/>
       <use xlink:href="#DejaVuSans-2e" x="127.246094"/>
       <use xlink:href="#DejaVuSans-30" x="159.033203"/>
      </g>
     </g>
    </g>
    <g id="xtick_8">
     <g id="line2d_9">
      <g>
       <use xlink:href="#m19f23d4d8e" x="568.761337" y="192.24" style="stroke: #000000; stroke-width: 0.8"/>
      </g>
     </g>
     <g id="text_8">
      <!-- 17.5 -->
      <g transform="translate(557.628524 206.838437) scale(0.1 -0.1)">
       <use xlink:href="#DejaVuSans-31"/>
       <use xlink:href="#DejaVuSans-37" x="63.623047"/>
       <use xlink:href="#DejaVuSans-2e" x="127.246094"/>
       <use xlink:href="#DejaVuSans-35" x="159.033203"/>
      </g>
     </g>
    </g>
    <g id="xtick_9">
     <g id="line2d_10">
      <g>
       <use xlink:href="#m19f23d4d8e" x="635.348449" y="192.24" style="stroke: #000000; stroke-width: 0.8"/>
      </g>
     </g>
     <g id="text_9">
      <!-- 20.0 -->
      <g transform="translate(624.215636 206.838437) scale(0.1 -0.1)">
       <use xlink:href="#DejaVuSans-32"/>
       <use xlink:href="#DejaVuSans-30" x="63.623047"/>
       <use xlink:href="#DejaVuSans-2e" x="127.246094"/>
       <use xlink:href="#DejaVuSans-30" x="159.033203"/>
      </g>
     </g>
    </g>
   </g>
   <g id="matplotlib.axis_2">
    <g id="ytick_1">
     <g id="line2d_11">
      <defs>
       <path id="m0560bc98f2" d="M 0 0 
L -3.5 0 
" style="stroke: #000000; stroke-width: 0.8"/>
      </defs>
      <g>
       <use xlink:href="#m0560bc98f2" x="90" y="192.055414" style="stroke: #000000; stroke-width: 0.8"/>
      </g>
     </g>
     <g id="text_10">
      <!-- 0.000 -->
      <g transform="translate(54.371875 195.854632) scale(0.1 -0.1)">
       <use xlink:href="#DejaVuSans-30"/>
       <use xlink:href="#DejaVuSans-2e" x="63.623047"/>
       <use xlink:href="#DejaVuSans-30" x="95.410156"/>
       <use xlink:href="#DejaVuSans-30" x="159.033203"/>
       <use xlink:href="#DejaVuSans-30" x="222.65625"/>
      </g>
     </g>
    </g>
    <g id="ytick_2">
     <g id="line2d_12">
      <g>
       <use xlink:href="#m0560bc98f2" x="90" y="171.053073" style="stroke: #000000; stroke-width: 0.8"/>
      </g>
     </g>
     <g id="text_11">
      <!-- 0.002 -->
      <g transform="translate(54.371875 174.852292) scale(0.1 -0.1)">
       <use xlink:href="#DejaVuSans-30"/>
       <use xlink:href="#DejaVuSans-2e" x="63.623047"/>
       <use xlink:href="#DejaVuSans-30" x="95.410156"/>
       <use xlink:href="#DejaVuSans-30" x="159.033203"/>
       <use xlink:href="#DejaVuSans-32" x="222.65625"/>
      </g>
     </g>
    </g>
    <g id="ytick_3">
     <g id="line2d_13">
      <g>
       <use xlink:href="#m0560bc98f2" x="90" y="150.050733" style="stroke: #000000; stroke-width: 0.8"/>
      </g>
     </g>
     <g id="text_12">
      <!-- 0.004 -->
      <g transform="translate(54.371875 153.849952) scale(0.1 -0.1)">
       <defs>
        <path id="DejaVuSans-34" d="M 2419 4116 
L 825 1625 
L 2419 1625 
L 2419 4116 
z
M 2253 4666 
L 3047 4666 
L 3047 1625 
L 3713 1625 
L 3713 1100 
L 3047 1100 
L 3047 0 
L 2419 0 
L 2419 1100 
L 313 1100 
L 313 1709 
L 2253 4666 
z
" transform="scale(0.015625)"/>
       </defs>
       <use xlink:href="#DejaVuSans-30"/>
       <use xlink:href="#DejaVuSans-2e" x="63.623047"/>
       <use xlink:href="#DejaVuSans-30" x="95.410156"/>
       <use xlink:href="#DejaVuSans-30" x="159.033203"/>
       <use xlink:href="#DejaVuSans-34" x="222.65625"/>
      </g>
     </g>
    </g>
    <g id="ytick_4">
     <g id="line2d_14">
      <g>
       <use xlink:href="#m0560bc98f2" x="90" y="129.048392" style="stroke: #000000; stroke-width: 0.8"/>
      </g>
     </g>
     <g id="text_13">
      <!-- 0.006 -->
      <g transform="translate(54.371875 132.847611) scale(0.1 -0.1)">
       <defs>
        <path id="DejaVuSans-36" d="M 2113 2584 
Q 1688 2584 1439 2293 
Q 1191 2003 1191 1497 
Q 1191 994 1439 701 
Q 1688 409 2113 409 
Q 2538 409 2786 701 
Q 3034 994 3034 1497 
Q 3034 2003 2786 2293 
Q 2538 2584 2113 2584 
z
M 3366 4563 
L 3366 3988 
Q 3128 4100 2886 4159 
Q 2644 4219 2406 4219 
Q 1781 4219 1451 3797 
Q 1122 3375 1075 2522 
Q 1259 2794 1537 2939 
Q 1816 3084 2150 3084 
Q 2853 3084 3261 2657 
Q 3669 2231 3669 1497 
Q 3669 778 3244 343 
Q 2819 -91 2113 -91 
Q 1303 -91 875 529 
Q 447 1150 447 2328 
Q 447 3434 972 4092 
Q 1497 4750 2381 4750 
Q 2619 4750 2861 4703 
Q 3103 4656 3366 4563 
z
" transform="scale(0.015625)"/>
       </defs>
       <use xlink:href="#DejaVuSans-30"/>
       <use xlink:href="#DejaVuSans-2e" x="63.623047"/>
       <use xlink:href="#DejaVuSans-30" x="95.410156"/>
       <use xlink:href="#DejaVuSans-30" x="159.033203"/>
       <use xlink:href="#DejaVuSans-36" x="222.65625"/>
      </g>
     </g>
    </g>
    <g id="ytick_5">
     <g id="line2d_15">
      <g>
       <use xlink:href="#m0560bc98f2" x="90" y="108.046052" style="stroke: #000000; stroke-width: 0.8"/>
      </g>
     </g>
     <g id="text_14">
      <!-- 0.008 -->
      <g transform="translate(54.371875 111.845271) scale(0.1 -0.1)">
       <defs>
        <path id="DejaVuSans-38" d="M 2034 2216 
Q 1584 2216 1326 1975 
Q 1069 1734 1069 1313 
Q 1069 891 1326 650 
Q 1584 409 2034 409 
Q 2484 409 2743 651 
Q 3003 894 3003 1313 
Q 3003 1734 2745 1975 
Q 2488 2216 2034 2216 
z
M 1403 2484 
Q 997 2584 770 2862 
Q 544 3141 544 3541 
Q 544 4100 942 4425 
Q 1341 4750 2034 4750 
Q 2731 4750 3128 4425 
Q 3525 4100 3525 3541 
Q 3525 3141 3298 2862 
Q 3072 2584 2669 2484 
Q 3125 2378 3379 2068 
Q 3634 1759 3634 1313 
Q 3634 634 3220 271 
Q 2806 -91 2034 -91 
Q 1263 -91 848 271 
Q 434 634 434 1313 
Q 434 1759 690 2068 
Q 947 2378 1403 2484 
z
M 1172 3481 
Q 1172 3119 1398 2916 
Q 1625 2713 2034 2713 
Q 2441 2713 2670 2916 
Q 2900 3119 2900 3481 
Q 2900 3844 2670 4047 
Q 2441 4250 2034 4250 
Q 1625 4250 1398 4047 
Q 1172 3844 1172 3481 
z
" transform="scale(0.015625)"/>
       </defs>
       <use xlink:href="#DejaVuSans-30"/>
       <use xlink:href="#DejaVuSans-2e" x="63.623047"/>
       <use xlink:href="#DejaVuSans-30" x="95.410156"/>
       <use xlink:href="#DejaVuSans-30" x="159.033203"/>
       <use xlink:href="#DejaVuSans-38" x="222.65625"/>
      </g>
     </g>
    </g>
    <g id="ytick_6">
     <g id="line2d_16">
      <g>
       <use xlink:href="#m0560bc98f2" x="90" y="87.043712" style="stroke: #000000; stroke-width: 0.8"/>
      </g>
     </g>
     <g id="text_15">
      <!-- 0.010 -->
      <g transform="translate(54.371875 90.84293) scale(0.1 -0.1)">
       <use xlink:href="#DejaVuSans-30"/>
       <use xlink:href="#DejaVuSans-2e" x="63.623047"/>
       <use xlink:href="#DejaVuSans-30" x="95.410156"/>
       <use xlink:href="#DejaVuSans-31" x="159.033203"/>
       <use xlink:href="#DejaVuSans-30" x="222.65625"/>
      </g>
     </g>
    </g>
    <g id="ytick_7">
     <g id="line2d_17">
      <g>
       <use xlink:href="#m0560bc98f2" x="90" y="66.041371" style="stroke: #000000; stroke-width: 0.8"/>
      </g>
     </g>
     <g id="text_16">
      <!-- 0.012 -->
      <g transform="translate(54.371875 69.84059) scale(0.1 -0.1)">
       <use xlink:href="#DejaVuSans-30"/>
       <use xlink:href="#DejaVuSans-2e" x="63.623047"/>
       <use xlink:href="#DejaVuSans-30" x="95.410156"/>
       <use xlink:href="#DejaVuSans-31" x="159.033203"/>
       <use xlink:href="#DejaVuSans-32" x="222.65625"/>
      </g>
     </g>
    </g>
    <g id="ytick_8">
     <g id="line2d_18">
      <g>
       <use xlink:href="#m0560bc98f2" x="90" y="45.039031" style="stroke: #000000; stroke-width: 0.8"/>
      </g>
     </g>
     <g id="text_17">
      <!-- 0.014 -->
      <g transform="translate(54.371875 48.83825) scale(0.1 -0.1)">
       <use xlink:href="#DejaVuSans-30"/>
       <use xlink:href="#DejaVuSans-2e" x="63.623047"/>
       <use xlink:href="#DejaVuSans-30" x="95.410156"/>
       <use xlink:href="#DejaVuSans-31" x="159.033203"/>
       <use xlink:href="#DejaVuSans-34" x="222.65625"/>
      </g>
     </g>
    </g>
   </g>
  </g>
 </g>
 <defs>
  <clipPath id="pcf2ca028e0">
   <rect x="90" y="25.92" width="558" height="166.32"/>
  </clipPath>
 </defs>
</svg>
