<?xml version="1.0" encoding="utf-8" standalone="no"?>
<!DOCTYPE svg PUBLIC "-//W3C//DTD SVG 1.1//EN"
  "http://www.w3.org/Graphics/SVG/1.1/DTD/svg11.dtd">
<svg xmlns:xlink="http://www.w3.org/1999/xlink" width="720pt" height="216pt" viewBox="0 0 720 216" xmlns="http://www.w3.org/2000/svg" version="1.1">
 <metadata>
  <rdf:RDF xmlns:dc="http://purl.org/dc/elements/1.1/" xmlns:cc="http://creativecommons.org/ns#" xmlns:rdf="http://www.w3.org/1999/02/22-rdf-syntax-ns#">
   <cc:Work>
    <dc:type rdf:resource="http://purl.org/dc/dcmitype/StillImage"/>
    <dc:date>2024-11-23T04:39:51.938700</dc:date>
    <dc:format>image/svg+xml</dc:format>
    <dc:creator>
     <cc:Agent>
      <dc:title>Matplotlib v3.7.2, https://matplotlib.org/</dc:title>
     </cc:Agent>
    </dc:creator>
   </cc:Work>
  </rdf:RDF>
 </metadata>
 <defs>
  <style type="text/css">*{stroke-linejoin: round; stroke-linecap: butt}</style>
 </defs>
 <g id="figure_1">
  <g id="patch_1">
   <path d="M 0 216 
L 720 216 
L 720 0 
L 0 0 
z
" style="fill: #ffffff"/>
  </g>
  <g id="axes_1">
   <g id="patch_2">
    <path d="M 90 192.24 
L 648 192.24 
L 648 25.92 
L 90 25.92 
z
" style="fill: #ffffff"/>
   </g>
   <g id="line2d_1">
    <path d="M 90 192.24 
L 648 192.24 
" clip-path="url(#p0b86f4f408)" style="fill: none; stroke: #000000; stroke-width: 0.5; stroke-linecap: square"/>
   </g>
   <g id="patch_3">
    <path d="M 90 184.859962 
L 125.458194 184.859962 
L 125.458194 186.299275 
L 112.70149 186.299275 
L 112.70149 192.24 
L 102.781442 192.24 
L 102.781442 186.299275 
L 90 186.299275 
L 90 184.859962 
z
" clip-path="url(#p0b86f4f408)" style="fill: #ff0000"/>
   </g>
   <g id="patch_4">
    <path d="M 114.561922 183.233227 
L 100.925271 183.233227 
L 98.772115 184.859962 
L 90 184.859962 
L 102.52745 175.930143 
L 112.930744 175.930143 
L 125.458194 184.859962 
L 116.693329 184.859962 
L 114.561922 183.233227 
z
M 103.100175 181.575871 
L 112.365269 181.575871 
L 107.739972 178.023847 
L 103.100175 181.575871 
z
" clip-path="url(#p0b86f4f408)" style="fill: #008000"/>
   </g>
   <g id="patch_5">
    <path d="M 127.324415 182.661683 
L 162.782609 182.661683 
L 162.782609 184.529722 
L 150.025905 184.529722 
L 150.025905 192.24 
L 140.105857 192.24 
L 140.105857 184.529722 
L 127.324415 184.529722 
L 127.324415 182.661683 
z
" clip-path="url(#p0b86f4f408)" style="fill: #ff0000"/>
   </g>
   <g id="patch_6">
    <path d="M 151.886337 180.824346 
L 138.249685 180.824346 
L 136.09653 182.661683 
L 127.324415 182.661683 
L 139.851865 172.575784 
L 150.255158 172.575784 
L 162.782609 182.661683 
L 154.017743 182.661683 
L 151.886337 180.824346 
z
M 140.42459 178.952424 
L 149.689683 178.952424 
L 145.064386 174.940545 
L 140.42459 178.952424 
z
" clip-path="url(#p0b86f4f408)" style="fill: #008000"/>
   </g>
   <g id="patch_7">
    <path d="M 189.210752 190.268028 
L 175.5741 190.268028 
L 173.420944 192.24 
L 164.648829 192.24 
L 177.17628 181.415033 
L 187.579573 181.415033 
L 200.107023 192.24 
L 191.342158 192.24 
L 189.210752 190.268028 
z
M 177.749005 188.258936 
L 187.014098 188.258936 
L 182.388801 183.953077 
L 177.749005 188.258936 
z
" clip-path="url(#p0b86f4f408)" style="fill: #008000"/>
   </g>
   <g id="patch_8">
    <path d="M 164.648829 169.703674 
L 200.107023 169.703674 
L 200.107023 171.987715 
L 187.35032 171.987715 
L 187.35032 181.415033 
L 177.430271 181.415033 
L 177.430271 171.987715 
L 164.648829 171.987715 
L 164.648829 169.703674 
z
" clip-path="url(#p0b86f4f408)" style="fill: #ff0000"/>
   </g>
   <g id="patch_9">
    <path d="M 226.535166 191.079809 
L 212.898515 191.079809 
L 210.745359 192.24 
L 201.973244 192.24 
L 214.500694 185.871236 
L 224.903988 185.871236 
L 237.431438 192.24 
L 228.666573 192.24 
L 226.535166 191.079809 
z
M 215.073419 189.89778 
L 224.338513 189.89778 
L 219.713216 187.36447 
L 215.073419 189.89778 
z
" clip-path="url(#p0b86f4f408)" style="fill: #008000"/>
   </g>
   <g id="patch_10">
    <path d="M 201.973244 158.204151 
L 237.431438 158.204151 
L 237.431438 163.600004 
L 224.674734 163.600004 
L 224.674734 185.871236 
L 214.754686 185.871236 
L 214.754686 163.600004 
L 201.973244 163.600004 
L 201.973244 158.204151 
z
" clip-path="url(#p0b86f4f408)" style="fill: #ff0000"/>
   </g>
   <g id="patch_11">
    <path d="M 239.297659 164.441117 
L 274.755853 164.441117 
L 274.755853 169.862674 
L 261.999149 169.862674 
L 261.999149 192.24 
L 252.079101 192.24 
L 252.079101 169.862674 
L 239.297659 169.862674 
L 239.297659 164.441117 
z
" clip-path="url(#p0b86f4f408)" style="fill: #ff0000"/>
   </g>
   <g id="patch_12">
    <path d="M 263.859581 158.017318 
L 250.222929 158.017318 
L 248.069774 164.441117 
L 239.297659 164.441117 
L 251.825109 129.17824 
L 262.228403 129.17824 
L 274.755853 164.441117 
L 265.990987 164.441117 
L 263.859581 158.017318 
z
M 252.397834 151.472601 
L 261.662927 151.472601 
L 257.03763 137.446047 
L 252.397834 151.472601 
z
" clip-path="url(#p0b86f4f408)" style="fill: #008000"/>
   </g>
   <g id="patch_13">
    <path d="M 301.183996 186.792397 
L 287.547344 186.792397 
L 285.394189 192.24 
L 276.622074 192.24 
L 289.149524 162.335863 
L 299.552817 162.335863 
L 312.080268 192.24 
L 303.315402 192.24 
L 301.183996 186.792397 
z
M 289.722249 181.242251 
L 298.987342 181.242251 
L 294.362045 169.347249 
L 289.722249 181.242251 
z
" clip-path="url(#p0b86f4f408)" style="fill: #008000"/>
   </g>
   <g id="patch_14">
    <path d="M 276.622074 92.036303 
L 312.080268 92.036303 
L 312.080268 105.746676 
L 299.323564 105.746676 
L 299.323564 162.335863 
L 289.403516 162.335863 
L 289.403516 105.746676 
L 276.622074 105.746676 
L 276.622074 92.036303 
z
" clip-path="url(#p0b86f4f408)" style="fill: #ff0000"/>
   </g>
   <g id="patch_15">
    <path d="M 338.50841 192.222227 
L 324.871759 192.222227 
L 322.718603 192.24 
L 313.946488 192.24 
L 326.473939 192.142439 
L 336.877232 192.142439 
L 349.404682 192.24 
L 340.639817 192.24 
L 338.50841 192.222227 
z
M 327.046663 192.20412 
L 336.311757 192.20412 
L 331.68646 192.165313 
L 327.046663 192.20412 
z
" clip-path="url(#p0b86f4f408)" style="fill: #008000"/>
   </g>
   <g id="patch_16">
    <path d="M 349.404682 192.100666 
Q 346.438666 192.121372 343.231437 192.131845 
Q 340.024208 192.142439 336.531098 192.142439 
Q 326.114304 192.142439 320.030396 192.063949 
Q 313.946488 191.985459 313.946488 191.851231 
Q 313.946488 191.716522 320.030396 191.638152 
Q 326.114304 191.559662 336.531098 191.559662 
Q 340.024208 191.559662 343.231437 191.570256 
Q 346.438666 191.580729 349.404682 191.601435 
L 349.404682 191.717605 
Q 346.411864 191.690158 343.508384 191.677397 
Q 340.604904 191.664636 337.397675 191.664636 
Q 331.644317 191.664636 328.34775 191.714355 
Q 325.060117 191.763953 325.060117 191.851231 
Q 325.060117 191.938148 328.34775 191.987866 
Q 331.644317 192.037464 337.397675 192.037464 
Q 340.604904 192.037464 343.508384 192.024704 
Q 346.411864 192.011823 349.404682 191.984375 
L 349.404682 192.100666 
z
" clip-path="url(#p0b86f4f408)" style="fill: #0000ff"/>
   </g>
   <g id="patch_17">
    <path d="M 313.946488 26.352097 
L 349.404682 26.352097 
L 349.404682 58.572175 
L 336.647979 58.572175 
L 336.647979 191.559662 
L 326.72793 191.559662 
L 326.72793 58.572175 
L 313.946488 58.572175 
L 313.946488 26.352097 
z
" clip-path="url(#p0b86f4f408)" style="fill: #ff0000"/>
   </g>
   <g id="patch_18">
    <path d="M 351.270903 192.151746 
L 386.729097 192.151746 
L 386.729097 192.168958 
L 373.972393 192.168958 
L 373.972393 192.24 
L 364.052345 192.24 
L 364.052345 192.168958 
L 351.270903 192.168958 
L 351.270903 192.151746 
z
" clip-path="url(#p0b86f4f408)" style="fill: #ff0000"/>
   </g>
   <g id="patch_19">
    <path d="M 375.832825 192.127779 
L 362.196174 192.127779 
L 360.043018 192.151746 
L 351.270903 192.151746 
L 363.798353 192.020183 
L 374.201647 192.020183 
L 386.729097 192.151746 
L 377.964232 192.151746 
L 375.832825 192.127779 
z
M 364.371078 192.103362 
L 373.636172 192.103362 
L 369.010875 192.05103 
L 364.371078 192.103362 
z
" clip-path="url(#p0b86f4f408)" style="fill: #008000"/>
   </g>
   <g id="patch_20">
    <path d="M 386.729097 183.3568 
Q 383.76308 187.651042 380.555851 189.823129 
Q 377.348622 192.020183 373.855512 192.020183 
Q 363.438719 192.020183 357.354811 175.742011 
Q 351.270903 159.463839 351.270903 131.626167 
Q 351.270903 103.688629 357.354811 87.435423 
Q 363.438719 71.157251 373.855512 71.157251 
Q 377.348622 71.157251 380.555851 73.354305 
Q 383.76308 75.526392 386.729097 79.820634 
L 386.729097 103.913327 
Q 383.736279 98.22096 380.832799 95.574509 
Q 377.929318 92.928058 374.72209 92.928058 
Q 368.968732 92.928058 365.672165 103.239231 
Q 362.384532 113.525438 362.384532 131.626167 
Q 362.384532 149.651996 365.672165 159.963169 
Q 368.968732 170.249376 374.72209 170.249376 
Q 377.929318 170.249376 380.832799 167.602925 
Q 383.736279 164.931507 386.729097 159.23914 
L 386.729097 183.3568 
z
" clip-path="url(#p0b86f4f408)" style="fill: #0000ff"/>
   </g>
   <g id="patch_21">
    <path d="M 424.053512 192.236819 
Q 420.477495 192.23841 416.63129 192.239208 
Q 412.785085 192.24 408.684586 192.24 
Q 399.418729 192.24 394.007023 192.235265 
Q 388.595318 192.23053 388.595318 192.222432 
Q 388.595318 192.21424 394.102384 192.209541 
Q 399.617396 192.204842 409.209068 192.204842 
Q 412.904286 192.204842 416.289582 192.205481 
Q 419.682824 192.206113 422.686679 192.207362 
L 422.686679 192.214371 
Q 419.587464 192.212766 416.520036 192.211974 
Q 413.452608 192.211175 410.369287 192.211175 
Q 404.663554 192.211175 401.572286 192.214095 
Q 398.481018 192.217007 398.481018 192.222432 
Q 398.481018 192.227806 401.461032 192.23074 
Q 404.441046 192.233667 409.924272 192.233667 
Q 411.418252 192.233667 412.697671 192.2335 
Q 413.977091 192.233326 414.994269 192.232963 
L 414.994269 192.226383 
L 409.153441 192.226383 
L 409.153441 192.220522 
L 424.053512 192.220522 
L 424.053512 192.236819 
z
" clip-path="url(#p0b86f4f408)" style="fill: #ffa600"/>
   </g>
   <g id="patch_22">
    <path d="M 413.15724 192.189536 
L 399.520588 192.189536 
L 397.367433 192.204842 
L 388.595318 192.204842 
L 401.122768 192.120819 
L 411.526061 192.120819 
L 424.053512 192.204842 
L 415.288646 192.204842 
L 413.15724 192.189536 
z
M 401.695493 192.173941 
L 410.960586 192.173941 
L 406.335289 192.140519 
L 401.695493 192.173941 
z
" clip-path="url(#p0b86f4f408)" style="fill: #008000"/>
   </g>
   <g id="patch_23">
    <path d="M 388.595318 192.02199 
L 424.053512 192.02199 
L 424.053512 192.041265 
L 411.296808 192.041265 
L 411.296808 192.120819 
L 401.37676 192.120819 
L 401.37676 192.041265 
L 388.595318 192.041265 
L 388.595318 192.02199 
z
" clip-path="url(#p0b86f4f408)" style="fill: #ff0000"/>
   </g>
   <g id="patch_24">
    <path d="M 424.053512 180.115899 
Q 421.087495 186.017477 417.880266 189.002578 
Q 414.673037 192.02199 411.179927 192.02199 
Q 400.763133 192.02199 394.679226 169.65089 
Q 388.595318 147.279789 388.595318 109.022463 
Q 388.595318 70.62789 394.679226 48.291101 
Q 400.763133 25.92 411.179927 25.92 
Q 414.673037 25.92 417.880266 28.939412 
Q 421.087495 31.924513 424.053512 37.826092 
L 424.053512 70.936693 
Q 421.060694 63.11367 418.157213 59.476651 
Q 415.253733 55.839631 412.046504 55.839631 
Q 406.293146 55.839631 402.99658 70.010283 
Q 399.708947 84.146622 399.708947 109.022463 
Q 399.708947 133.795368 402.99658 147.966019 
Q 406.293146 162.102359 412.046504 162.102359 
Q 415.253733 162.102359 418.157213 158.46534 
Q 421.060694 154.794009 424.053512 146.970986 
L 424.053512 180.115899 
z
" clip-path="url(#p0b86f4f408)" style="fill: #0000ff"/>
   </g>
   <g id="patch_25">
    <path d="M 425.919732 186.36177 
L 461.377926 186.36177 
L 461.377926 187.508189 
L 448.621223 187.508189 
L 448.621223 192.24 
L 438.701174 192.24 
L 438.701174 187.508189 
L 425.919732 187.508189 
L 425.919732 186.36177 
z
" clip-path="url(#p0b86f4f408)" style="fill: #ff0000"/>
   </g>
   <g id="patch_26">
    <path d="M 450.481655 180.327979 
L 436.845003 180.327979 
L 434.691847 186.36177 
L 425.919732 186.36177 
L 438.447183 153.239808 
L 448.850476 153.239808 
L 461.377926 186.36177 
L 452.613061 186.36177 
L 450.481655 180.327979 
z
M 439.019908 174.180611 
L 448.285001 174.180611 
L 443.659704 161.005652 
L 439.019908 174.180611 
z
" clip-path="url(#p0b86f4f408)" style="fill: #008000"/>
   </g>
   <g id="patch_27">
    <path d="M 461.377926 150.762943 
Q 458.41191 151.990668 455.204681 152.611669 
Q 451.997452 153.239808 448.504342 153.239808 
Q 438.087548 153.239808 432.00364 148.585871 
Q 425.919732 143.931934 425.919732 135.973131 
Q 425.919732 127.985776 432.00364 123.338977 
Q 438.087548 118.68504 448.504342 118.68504 
Q 451.997452 118.68504 455.204681 119.313178 
Q 458.41191 119.934179 461.377926 121.161905 
L 461.377926 128.050017 
Q 458.385108 126.422567 455.481628 125.665945 
Q 452.578148 124.909323 449.370919 124.909323 
Q 443.617561 124.909323 440.320994 127.857293 
Q 437.033361 130.798124 437.033361 135.973131 
Q 437.033361 141.126723 440.320994 144.074693 
Q 443.617561 147.015524 449.370919 147.015524 
Q 452.578148 147.015524 455.481628 146.258902 
Q 458.385108 145.495143 461.377926 143.867693 
L 461.377926 150.762943 
z
" clip-path="url(#p0b86f4f408)" style="fill: #0000ff"/>
   </g>
   <g id="patch_28">
    <path d="M 463.244147 180.984262 
L 498.702341 180.984262 
L 498.702341 183.179444 
L 485.945637 183.179444 
L 485.945637 192.24 
L 476.025589 192.24 
L 476.025589 183.179444 
L 463.244147 183.179444 
L 463.244147 180.984262 
z
" clip-path="url(#p0b86f4f408)" style="fill: #ff0000"/>
   </g>
   <g id="patch_29">
    <path d="M 487.806069 172.797684 
L 474.169418 172.797684 
L 472.016262 180.984262 
L 463.244147 180.984262 
L 475.771597 136.044765 
L 486.174891 136.044765 
L 498.702341 180.984262 
L 489.937476 180.984262 
L 487.806069 172.797684 
z
M 476.344322 164.457006 
L 485.609416 164.457006 
L 480.984119 146.581372 
L 476.344322 164.457006 
z
" clip-path="url(#p0b86f4f408)" style="fill: #008000"/>
   </g>
   <g id="patch_30">
    <path d="M 500.568562 185.623093 
L 536.026756 185.623093 
L 536.026756 186.913574 
L 523.270052 186.913574 
L 523.270052 192.24 
L 513.350004 192.24 
L 513.350004 186.913574 
L 500.568562 186.913574 
L 500.568562 185.623093 
z
" clip-path="url(#p0b86f4f408)" style="fill: #ff0000"/>
   </g>
   <g id="patch_31">
    <path d="M 525.130484 181.149294 
L 511.493832 181.149294 
L 509.340677 185.623093 
L 500.568562 185.623093 
L 513.096012 161.064567 
L 523.499306 161.064567 
L 536.026756 185.623093 
L 527.26189 185.623093 
L 525.130484 181.149294 
z
M 513.668737 176.591282 
L 522.93383 176.591282 
L 518.308533 166.82261 
L 513.668737 176.591282 
z
" clip-path="url(#p0b86f4f408)" style="fill: #008000"/>
   </g>
   <g id="patch_32">
    <path d="M 537.892977 181.109221 
L 573.351171 181.109221 
L 573.351171 183.280033 
L 560.594467 183.280033 
L 560.594467 192.24 
L 550.674419 192.24 
L 550.674419 183.280033 
L 537.892977 183.280033 
L 537.892977 181.109221 
z
" clip-path="url(#p0b86f4f408)" style="fill: #ff0000"/>
   </g>
   <g id="patch_33">
    <path d="M 562.454899 178.721734 
L 548.818247 178.721734 
L 546.665092 181.109221 
L 537.892977 181.109221 
L 550.420427 168.003322 
L 560.82372 168.003322 
L 573.351171 181.109221 
L 564.586305 181.109221 
L 562.454899 178.721734 
z
M 550.993152 176.289306 
L 560.258245 176.289306 
L 555.632948 171.076158 
L 550.993152 176.289306 
z
" clip-path="url(#p0b86f4f408)" style="fill: #008000"/>
   </g>
   <g id="patch_34">
    <path d="M 599.779313 190.23487 
L 586.142662 190.23487 
L 583.989506 192.24 
L 575.217391 192.24 
L 587.744842 181.233016 
L 598.148135 181.233016 
L 610.675585 192.24 
L 601.91072 192.24 
L 599.779313 190.23487 
z
M 588.317566 188.191996 
L 597.58266 188.191996 
L 592.957363 183.813736 
L 588.317566 188.191996 
z
" clip-path="url(#p0b86f4f408)" style="fill: #008000"/>
   </g>
   <g id="patch_35">
    <path d="M 575.217391 164.476464 
L 610.675585 164.476464 
L 610.675585 167.744458 
L 597.918882 167.744458 
L 597.918882 181.233016 
L 587.998833 181.233016 
L 587.998833 167.744458 
L 575.217391 167.744458 
L 575.217391 164.476464 
z
" clip-path="url(#p0b86f4f408)" style="fill: #ff0000"/>
   </g>
   <g id="patch_36">
    <path d="M 637.103728 190.389001 
L 623.467077 190.389001 
L 621.313921 192.24 
L 612.541806 192.24 
L 625.069256 182.079105 
L 635.47255 182.079105 
L 648 192.24 
L 639.235135 192.24 
L 637.103728 190.389001 
z
M 625.641981 188.50316 
L 634.907075 188.50316 
L 630.281778 184.46145 
L 625.641981 188.50316 
z
" clip-path="url(#p0b86f4f408)" style="fill: #008000"/>
   </g>
   <g id="patch_37">
    <path d="M 612.541806 163.203193 
L 648 163.203193 
L 648 166.884522 
L 635.243296 166.884522 
L 635.243296 182.079105 
L 625.323248 182.079105 
L 625.323248 166.884522 
L 612.541806 166.884522 
L 612.541806 163.203193 
z
" clip-path="url(#p0b86f4f408)" style="fill: #ff0000"/>
   </g>
   <g id="patch_38">
    <path d="M 125.458194 192.49878 
Q 122.492177 192.370509 119.284948 192.305627 
Q 116.077719 192.24 112.584609 192.24 
Q 102.167816 192.24 96.083908 192.726238 
Q 90 193.212477 90 194.044004 
Q 90 194.878514 96.083908 195.364007 
Q 102.167816 195.850245 112.584609 195.850245 
Q 116.077719 195.850245 119.284948 195.784618 
Q 122.492177 195.719737 125.458194 195.591465 
L 125.458194 194.871803 
Q 122.465376 195.041837 119.561896 195.120888 
Q 116.658415 195.199939 113.451186 195.199939 
Q 107.697829 195.199939 104.401262 194.891938 
Q 101.113629 194.584683 101.113629 194.044004 
Q 101.113629 193.505562 104.401262 193.197561 
Q 107.697829 192.890307 113.451186 192.890307 
Q 116.658415 192.890307 119.561896 192.969358 
Q 122.465376 193.049154 125.458194 193.219189 
L 125.458194 192.49878 
z
" clip-path="url(#p0b86f4f408)" style="fill: #0000ff"/>
   </g>
   <g id="patch_39">
    <path d="M 125.458194 196.715334 
Q 121.882177 196.28279 118.035972 196.06553 
Q 114.189767 195.850245 110.089268 195.850245 
Q 100.823411 195.850245 95.411706 197.138003 
Q 90 198.42576 90 200.627983 
Q 90 202.855882 95.507066 204.133764 
Q 101.022079 205.411646 110.613751 205.411646 
Q 114.308968 205.411646 117.694264 205.237838 
Q 121.087507 205.066005 124.091361 204.72629 
L 124.091361 202.82033 
Q 120.992146 203.256825 117.924718 203.472109 
Q 114.857291 203.689369 111.773969 203.689369 
Q 106.068236 203.689369 102.976968 202.895384 
Q 99.8857 202.103373 99.8857 200.627983 
Q 99.8857 199.166418 102.865714 198.368482 
Q 105.845728 197.572522 111.328954 197.572522 
Q 112.822934 197.572522 114.102354 197.617949 
Q 115.381773 197.665351 116.398951 197.764105 
L 116.398951 199.553535 
L 110.558124 199.553535 
L 110.558124 201.147431 
L 125.458194 201.147431 
L 125.458194 196.715334 
z
" clip-path="url(#p0b86f4f408)" style="fill: #ffa600"/>
   </g>
   <g id="patch_40">
    <path d="M 162.782609 192.735003 
Q 159.816592 192.489641 156.609363 192.365534 
Q 153.402134 192.24 149.909024 192.24 
Q 139.49223 192.24 133.408323 193.170091 
Q 127.324415 194.100182 127.324415 195.690752 
Q 127.324415 197.287028 133.408323 198.215693 
Q 139.49223 199.145784 149.909024 199.145784 
Q 153.402134 199.145784 156.609363 199.020251 
Q 159.816592 198.896143 162.782609 198.650782 
L 162.782609 197.27419 
Q 159.789791 197.599436 156.88631 197.750648 
Q 153.98283 197.901859 150.775601 197.901859 
Q 145.022243 197.901859 141.725677 197.312706 
Q 138.438044 196.72498 138.438044 195.690752 
Q 138.438044 194.660805 141.725677 194.071652 
Q 145.022243 193.483926 150.775601 193.483926 
Q 153.98283 193.483926 156.88631 193.635137 
Q 159.789791 193.787774 162.782609 194.113021 
L 162.782609 192.735003 
z
" clip-path="url(#p0b86f4f408)" style="fill: #0000ff"/>
   </g>
   <g id="patch_41">
    <path d="M 162.782609 200.024345 
Q 159.206592 199.585065 155.360387 199.364422 
Q 151.514182 199.145784 147.413683 199.145784 
Q 138.147826 199.145784 132.73612 200.453596 
Q 127.324415 201.761407 127.324415 203.997926 
Q 127.324415 206.26052 132.831481 207.558302 
Q 138.346493 208.856084 147.938165 208.856084 
Q 151.633383 208.856084 155.018679 208.67957 
Q 158.411921 208.505061 161.415776 208.160056 
L 161.415776 206.224415 
Q 158.316561 206.667707 155.249133 206.886344 
Q 152.181705 207.106987 149.098384 207.106987 
Q 143.392651 207.106987 140.301383 206.300637 
Q 137.210115 205.496293 137.210115 203.997926 
Q 137.210115 202.5136 140.190129 201.703238 
Q 143.170143 200.894882 148.653369 200.894882 
Q 150.147349 200.894882 151.426768 200.941016 
Q 152.706188 200.989157 153.723366 201.089449 
L 153.723366 202.906745 
L 147.882538 202.906745 
L 147.882538 204.525463 
L 162.782609 204.525463 
L 162.782609 200.024345 
z
" clip-path="url(#p0b86f4f408)" style="fill: #ffa600"/>
   </g>
   <g id="patch_42">
    <path d="M 200.107023 192.636342 
Q 197.141007 192.439884 193.933778 192.340513 
Q 190.726549 192.24 187.233439 192.24 
Q 176.816645 192.24 170.732737 192.984712 
Q 164.648829 193.729423 164.648829 195.002972 
Q 164.648829 196.281089 170.732737 197.024658 
Q 176.816645 197.76937 187.233439 197.76937 
Q 190.726549 197.76937 193.933778 197.668857 
Q 197.141007 197.569486 200.107023 197.373028 
L 200.107023 196.270809 
Q 197.114205 196.53123 194.210725 196.652302 
Q 191.307245 196.773375 188.100016 196.773375 
Q 182.346658 196.773375 179.050091 196.301648 
Q 175.762458 195.831064 175.762458 195.002972 
Q 175.762458 194.178306 179.050091 193.706579 
Q 182.346658 193.235995 188.100016 193.235995 
Q 191.307245 193.235995 194.210725 193.357067 
Q 197.114205 193.479282 200.107023 193.739703 
L 200.107023 192.636342 
z
" clip-path="url(#p0b86f4f408)" style="fill: #0000ff"/>
   </g>
   <g id="patch_43">
    <path d="M 200.107023 198.335989 
Q 196.531007 198.052679 192.684802 197.910378 
Q 188.838597 197.76937 184.738098 197.76937 
Q 175.472241 197.76937 170.060535 198.61283 
Q 164.648829 199.45629 164.648829 200.89871 
Q 164.648829 202.357947 170.155895 203.194939 
Q 175.670908 204.03193 185.26258 204.03193 
Q 188.957797 204.03193 192.343093 203.918089 
Q 195.736336 203.805542 198.74019 203.583034 
L 198.74019 202.334661 
Q 195.640976 202.620558 192.573548 202.761566 
Q 189.50612 202.903868 186.422799 202.903868 
Q 180.717065 202.903868 177.625797 202.38382 
Q 174.534529 201.865066 174.534529 200.89871 
Q 174.534529 199.941409 177.514543 199.418774 
Q 180.494558 198.897433 185.977783 198.897433 
Q 187.471764 198.897433 188.751183 198.927187 
Q 190.030603 198.958234 191.047781 199.022917 
L 191.047781 200.194964 
L 185.206953 200.194964 
L 185.206953 201.23894 
L 200.107023 201.23894 
L 200.107023 198.335989 
z
" clip-path="url(#p0b86f4f408)" style="fill: #ffa600"/>
   </g>
   <g id="patch_44">
    <path d="M 237.431438 196.414384 
Q 234.465421 196.191352 231.258192 196.078539 
Q 228.050964 195.964429 224.557853 195.964429 
Q 214.14106 195.964429 208.057152 196.809876 
Q 201.973244 197.655323 201.973244 199.101142 
Q 201.973244 200.552147 208.057152 201.396297 
Q 214.14106 202.241744 224.557853 202.241744 
Q 228.050964 202.241744 231.258192 202.127634 
Q 234.465421 202.014822 237.431438 201.79179 
L 237.431438 200.540476 
Q 234.43862 200.836123 231.53514 200.973573 
Q 228.63166 201.111023 225.424431 201.111023 
Q 219.671073 201.111023 216.374506 200.575487 
Q 213.086873 200.041248 213.086873 199.101142 
Q 213.086873 198.164926 216.374506 197.629389 
Q 219.671073 197.09515 225.424431 197.09515 
Q 228.63166 197.09515 231.53514 197.2326 
Q 234.43862 197.371347 237.431438 197.666994 
L 237.431438 196.414384 
z
" clip-path="url(#p0b86f4f408)" style="fill: #0000ff"/>
   </g>
   <g id="patch_45">
    <path d="M 237.431438 192.576976 
Q 233.855421 192.408488 230.009216 192.323859 
Q 226.163012 192.24 222.062512 192.24 
Q 212.796655 192.24 207.38495 192.741617 
Q 201.973244 193.243234 201.973244 194.101061 
Q 201.973244 194.968889 207.48031 195.466659 
Q 212.995323 195.964429 222.586995 195.964429 
Q 226.282212 195.964429 229.667508 195.896727 
Q 233.060751 195.829793 236.064605 195.697465 
L 236.064605 194.955041 
Q 232.96539 195.125067 229.897963 195.208926 
Q 226.830535 195.293555 223.747214 195.293555 
Q 218.04148 195.293555 214.950212 194.984276 
Q 211.858944 194.675766 211.858944 194.101061 
Q 211.858944 193.531741 214.838958 193.220923 
Q 217.818972 192.910874 223.302198 192.910874 
Q 224.796179 192.910874 226.075598 192.928569 
Q 227.355017 192.947034 228.372195 192.985501 
L 228.372195 193.682534 
L 222.531368 193.682534 
L 222.531368 194.3034 
L 237.431438 194.3034 
L 237.431438 192.576976 
z
" clip-path="url(#p0b86f4f408)" style="fill: #ffa600"/>
   </g>
   <g id="patch_46">
    <path d="M 274.755853 198.141929 
Q 271.789836 197.921869 268.582607 197.810559 
Q 265.375378 197.69797 261.882268 197.69797 
Q 251.465474 197.69797 245.381567 198.532151 
Q 239.297659 199.366332 239.297659 200.792884 
Q 239.297659 202.224554 245.381567 203.057456 
Q 251.465474 203.891637 261.882268 203.891637 
Q 265.375378 203.891637 268.582607 203.779048 
Q 271.789836 203.667739 274.755853 203.447679 
L 274.755853 202.213039 
Q 271.763035 202.504747 268.859555 202.640365 
Q 265.956074 202.775984 262.748845 202.775984 
Q 256.995488 202.775984 253.698921 202.247584 
Q 250.411288 201.720463 250.411288 200.792884 
Q 250.411288 199.869144 253.698921 199.340744 
Q 256.995488 198.813623 262.748845 198.813623 
Q 265.956074 198.813623 268.859555 198.949242 
Q 271.763035 199.08614 274.755853 199.377847 
L 274.755853 198.141929 
z
" clip-path="url(#p0b86f4f408)" style="fill: #0000ff"/>
   </g>
   <g id="patch_47">
    <path d="M 274.755853 192.733822 
Q 271.179836 192.486911 267.333631 192.362892 
Q 263.487426 192.24 259.386927 192.24 
Q 250.12107 192.24 244.709364 192.975095 
Q 239.297659 193.710191 239.297659 194.967294 
Q 239.297659 196.239054 244.804725 196.968512 
Q 250.319738 197.69797 259.911409 197.69797 
Q 263.606627 197.69797 266.991923 197.598755 
Q 270.385166 197.500667 273.38902 197.306746 
L 273.38902 196.21876 
Q 270.289805 196.467926 267.222377 196.590817 
Q 264.154949 196.714837 261.071628 196.714837 
Q 255.365895 196.714837 252.274627 196.261603 
Q 249.183359 195.809497 249.183359 194.967294 
Q 249.183359 194.132983 252.163373 193.677495 
Q 255.143387 193.223134 260.626613 193.223134 
Q 262.120593 193.223134 263.400013 193.249065 
Q 264.679432 193.276124 265.69661 193.332496 
L 265.69661 194.353963 
L 259.855783 194.353963 
L 259.855783 195.263812 
L 274.755853 195.263812 
L 274.755853 192.733822 
z
" clip-path="url(#p0b86f4f408)" style="fill: #ffa600"/>
   </g>
   <g id="patch_48">
    <path d="M 312.080268 194.774358 
Q 309.114251 194.624488 305.907022 194.548682 
Q 302.699793 194.472005 299.206683 194.472005 
Q 288.789889 194.472005 282.705981 195.040114 
Q 276.622074 195.608223 276.622074 196.579759 
Q 276.622074 197.55478 282.705981 198.122018 
Q 288.789889 198.690127 299.206683 198.690127 
Q 302.699793 198.690127 305.907022 198.61345 
Q 309.114251 198.537644 312.080268 198.387774 
L 312.080268 197.546938 
Q 309.087449 197.745602 306.183969 197.837963 
Q 303.280489 197.930325 300.07326 197.930325 
Q 294.319902 197.930325 291.023336 197.570464 
Q 287.735703 197.211475 287.735703 196.579759 
Q 287.735703 195.950657 291.023336 195.590796 
Q 294.319902 195.231807 300.07326 195.231807 
Q 303.280489 195.231807 306.183969 195.324169 
Q 309.087449 195.417401 312.080268 195.616065 
L 312.080268 194.774358 
z
" clip-path="url(#p0b86f4f408)" style="fill: #0000ff"/>
   </g>
   <g id="patch_49">
    <path d="M 312.080268 192.441946 
Q 308.504251 192.340973 304.658046 192.290256 
Q 300.811841 192.24 296.711342 192.24 
Q 287.445485 192.24 282.033779 192.540613 
Q 276.622074 192.841226 276.622074 193.355311 
Q 276.622074 193.87539 282.12914 194.173697 
Q 287.644152 194.472005 297.235824 194.472005 
Q 300.931042 194.472005 304.316338 194.431432 
Q 307.70958 194.391319 310.713434 194.312016 
L 310.713434 193.867091 
Q 307.61422 193.968986 304.546792 194.019241 
Q 301.479364 194.069958 298.396043 194.069958 
Q 292.690309 194.069958 289.599041 193.884611 
Q 286.507774 193.699725 286.507774 193.355311 
Q 286.507774 193.014124 289.487788 192.827855 
Q 292.467802 192.642047 297.951028 192.642047 
Q 299.445008 192.642047 300.724427 192.652651 
Q 302.003847 192.663717 303.021025 192.68677 
L 303.021025 193.104493 
L 297.180197 193.104493 
L 297.180197 193.47657 
L 312.080268 193.47657 
L 312.080268 192.441946 
z
" clip-path="url(#p0b86f4f408)" style="fill: #ffa600"/>
   </g>
   <g id="patch_50">
    <path d="M 349.404682 192.284736 
Q 345.828665 192.262368 341.982461 192.251133 
Q 338.136256 192.24 334.035756 192.24 
Q 324.769899 192.24 319.358194 192.306594 
Q 313.946488 192.373187 313.946488 192.48707 
Q 313.946488 192.602281 319.453554 192.668364 
Q 324.968567 192.734447 334.560239 192.734447 
Q 338.255456 192.734447 341.640752 192.725459 
Q 345.033995 192.716573 348.037849 192.699005 
L 348.037849 192.600443 
Q 344.938635 192.623015 341.871207 192.634148 
Q 338.803779 192.645383 335.720458 192.645383 
Q 330.014724 192.645383 326.923456 192.604324 
Q 323.832188 192.563367 323.832188 192.48707 
Q 323.832188 192.411489 326.812202 192.370225 
Q 329.792216 192.329064 335.275442 192.329064 
Q 336.769423 192.329064 338.048842 192.331413 
Q 339.328261 192.333864 340.34544 192.338971 
L 340.34544 192.431507 
L 334.504612 192.431507 
L 334.504612 192.513932 
L 349.404682 192.513932 
L 349.404682 192.284736 
z
" clip-path="url(#p0b86f4f408)" style="fill: #ffa600"/>
   </g>
   <g id="patch_51">
    <path d="M 386.729097 192.24128 
Q 383.15308 192.24064 379.306875 192.240319 
Q 375.46067 192.24 371.360171 192.24 
Q 362.094314 192.24 356.682609 192.241905 
Q 351.270903 192.243811 351.270903 192.247069 
Q 351.270903 192.250366 356.777969 192.252256 
Q 362.292982 192.254147 371.884654 192.254147 
Q 375.579871 192.254147 378.965167 192.25389 
Q 382.35841 192.253636 385.362264 192.253133 
L 385.362264 192.250313 
Q 382.263049 192.250959 379.195621 192.251277 
Q 376.128194 192.251599 373.044872 192.251599 
Q 367.339139 192.251599 364.247871 192.250424 
Q 361.156603 192.249252 361.156603 192.247069 
Q 361.156603 192.244907 364.136617 192.243726 
Q 367.116631 192.242548 372.599857 192.242548 
Q 374.093837 192.242548 375.373257 192.242616 
Q 376.652676 192.242686 377.669854 192.242832 
L 377.669854 192.245479 
L 371.829027 192.245479 
L 371.829027 192.247838 
L 386.729097 192.247838 
L 386.729097 192.24128 
z
" clip-path="url(#p0b86f4f408)" style="fill: #ffa600"/>
   </g>
   <g id="patch_52">
    <path d="M 461.377926 192.266746 
Q 457.80191 192.253373 453.955705 192.246656 
Q 450.1095 192.24 446.009001 192.24 
Q 436.743144 192.24 431.331438 192.279814 
Q 425.919732 192.319629 425.919732 192.387716 
Q 425.919732 192.456597 431.426798 192.496106 
Q 436.941811 192.535615 446.533483 192.535615 
Q 450.2287 192.535615 453.613996 192.530241 
Q 457.007239 192.524929 460.011093 192.514426 
L 460.011093 192.455498 
Q 456.911879 192.468993 453.844451 192.475649 
Q 450.777023 192.482367 447.693702 192.482367 
Q 441.987968 192.482367 438.8967 192.457818 
Q 435.805432 192.433331 435.805432 192.387716 
Q 435.805432 192.342528 438.785446 192.317858 
Q 441.765461 192.293249 447.248686 192.293249 
Q 448.742667 192.293249 450.022086 192.294653 
Q 451.301506 192.296119 452.318684 192.299172 
L 452.318684 192.354497 
L 446.477856 192.354497 
L 446.477856 192.403776 
L 461.377926 192.403776 
L 461.377926 192.266746 
z
" clip-path="url(#p0b86f4f408)" style="fill: #ffa600"/>
   </g>
   <g id="patch_53">
    <path d="M 498.702341 192.447866 
Q 495.736324 192.344831 492.529095 192.292715 
Q 489.321867 192.24 485.828756 192.24 
Q 475.411963 192.24 469.328055 192.630572 
Q 463.244147 193.021143 463.244147 193.689069 
Q 463.244147 194.359391 469.328055 194.749363 
Q 475.411963 195.139935 485.828756 195.139935 
Q 489.321867 195.139935 492.529095 195.08722 
Q 495.736324 195.035104 498.702341 194.932069 
L 498.702341 194.353999 
Q 495.709523 194.49058 492.806043 194.554077 
Q 489.902563 194.617575 486.695334 194.617575 
Q 480.941976 194.617575 477.645409 194.370173 
Q 474.357776 194.12337 474.357776 193.689069 
Q 474.357776 193.256565 477.645409 193.009163 
Q 480.941976 192.76236 486.695334 192.76236 
Q 489.902563 192.76236 492.806043 192.825858 
Q 495.709523 192.889954 498.702341 193.026535 
L 498.702341 192.447866 
z
" clip-path="url(#p0b86f4f408)" style="fill: #0000ff"/>
   </g>
   <g id="patch_54">
    <path d="M 498.702341 195.476546 
Q 495.126324 195.30824 491.280119 195.223703 
Q 487.433915 195.139935 483.333415 195.139935 
Q 474.067558 195.139935 468.655853 195.641009 
Q 463.244147 196.142083 463.244147 196.99898 
Q 463.244147 197.865869 468.751213 198.3631 
Q 474.266226 198.860331 483.857898 198.860331 
Q 487.553115 198.860331 490.938411 198.792702 
Q 494.331654 198.725841 497.335508 198.593655 
L 497.335508 197.852035 
Q 494.236293 198.021878 491.168866 198.105646 
Q 488.101438 198.190183 485.018117 198.190183 
Q 479.312383 198.190183 476.221115 197.881239 
Q 473.129847 197.573063 473.129847 196.99898 
Q 473.129847 196.430277 476.109861 196.119796 
Q 479.089875 195.810083 484.573101 195.810083 
Q 486.067082 195.810083 487.346501 195.827759 
Q 488.62592 195.846203 489.643098 195.884629 
L 489.643098 196.580906 
L 483.802271 196.580906 
L 483.802271 197.201101 
L 498.702341 197.201101 
L 498.702341 195.476546 
z
" clip-path="url(#p0b86f4f408)" style="fill: #ffa600"/>
   </g>
   <g id="patch_55">
    <path d="M 536.026756 193.286715 
Q 533.060739 193.083904 529.85351 192.981319 
Q 526.646281 192.877556 523.153171 192.877556 
Q 512.736377 192.877556 506.65247 193.64635 
Q 500.568562 194.415145 500.568562 195.729879 
Q 500.568562 197.049329 506.65247 197.816944 
Q 512.736377 198.585739 523.153171 198.585739 
Q 526.646281 198.585739 529.85351 198.481975 
Q 533.060739 198.379391 536.026756 198.17658 
L 536.026756 197.038716 
Q 533.033938 197.307559 530.130458 197.432547 
Q 527.226977 197.557535 524.019748 197.557535 
Q 518.266391 197.557535 514.969824 197.070553 
Q 511.682191 196.58475 511.682191 195.729879 
Q 511.682191 194.878545 514.969824 194.391563 
Q 518.266391 193.90576 524.019748 193.90576 
Q 527.226977 193.90576 530.130458 194.030748 
Q 533.033938 194.156915 536.026756 194.425757 
L 536.026756 193.286715 
z
" clip-path="url(#p0b86f4f408)" style="fill: #0000ff"/>
   </g>
   <g id="patch_56">
    <path d="M 536.026756 192.297684 
Q 532.450739 192.268842 528.604534 192.254355 
Q 524.758329 192.24 520.65783 192.24 
Q 511.391973 192.24 505.980267 192.325868 
Q 500.568562 192.411736 500.568562 192.55858 
Q 500.568562 192.707137 506.075628 192.792346 
Q 511.590641 192.877556 521.182312 192.877556 
Q 524.87753 192.877556 528.262826 192.865966 
Q 531.656069 192.854508 534.659923 192.831856 
L 534.659923 192.704766 
Q 531.560708 192.733872 528.49328 192.748227 
Q 525.425852 192.762714 522.342531 192.762714 
Q 516.636798 192.762714 513.54553 192.709771 
Q 510.454262 192.65696 510.454262 192.55858 
Q 510.454262 192.461123 513.434276 192.407916 
Q 516.41429 192.354842 521.897516 192.354842 
Q 523.391496 192.354842 524.670916 192.357871 
Q 525.950335 192.361032 526.967513 192.367617 
L 526.967513 192.486936 
L 521.126686 192.486936 
L 521.126686 192.593217 
L 536.026756 192.593217 
L 536.026756 192.297684 
z
" clip-path="url(#p0b86f4f408)" style="fill: #ffa600"/>
   </g>
   <g id="patch_57">
    <path d="M 573.351171 194.858773 
Q 570.385154 194.613438 567.177925 194.489345 
Q 563.970696 194.363825 560.477586 194.363825 
Q 550.060792 194.363825 543.976884 195.293814 
Q 537.892977 196.223804 537.892977 197.814201 
Q 537.892977 199.410303 543.976884 200.338867 
Q 550.060792 201.268857 560.477586 201.268857 
Q 563.970696 201.268857 567.177925 201.143337 
Q 570.385154 201.019243 573.351171 200.773908 
L 573.351171 199.397466 
Q 570.358352 199.722677 567.454872 199.873872 
Q 564.551392 200.025067 561.344163 200.025067 
Q 555.590805 200.025067 552.294239 199.435978 
Q 549.006606 198.848316 549.006606 197.814201 
Q 549.006606 196.784366 552.294239 196.195277 
Q 555.590805 195.607615 561.344163 195.607615 
Q 564.551392 195.607615 567.454872 195.758809 
Q 570.358352 195.91143 573.351171 196.236642 
L 573.351171 194.858773 
z
" clip-path="url(#p0b86f4f408)" style="fill: #0000ff"/>
   </g>
   <g id="patch_58">
    <path d="M 573.351171 192.432158 
Q 569.775154 192.336079 565.928949 192.28782 
Q 562.082744 192.24 557.982245 192.24 
Q 548.716388 192.24 543.304682 192.526043 
Q 537.892977 192.812086 537.892977 193.301254 
Q 537.892977 193.796126 543.400043 194.079975 
Q 548.915055 194.363825 558.506727 194.363825 
Q 562.201945 194.363825 565.587241 194.325218 
Q 568.980483 194.287049 571.984337 194.21159 
L 571.984337 193.788229 
Q 568.885123 193.885185 565.817695 193.933005 
Q 562.750267 193.981264 559.666946 193.981264 
Q 553.961212 193.981264 550.869944 193.8049 
Q 547.778677 193.628975 547.778677 193.301254 
Q 547.778677 192.976604 550.758691 192.799363 
Q 553.738705 192.62256 559.221931 192.62256 
Q 560.715911 192.62256 561.99533 192.632651 
Q 563.27475 192.64318 564.291928 192.665116 
L 564.291928 193.062593 
L 558.4511 193.062593 
L 558.4511 193.416637 
L 573.351171 193.416637 
L 573.351171 192.432158 
z
" clip-path="url(#p0b86f4f408)" style="fill: #ffa600"/>
   </g>
   <g id="patch_59">
    <path d="M 610.675585 192.477023 
Q 607.709569 192.359536 604.50234 192.30011 
Q 601.295111 192.24 597.802001 192.24 
Q 587.385207 192.24 581.301299 192.685358 
Q 575.217391 193.130716 575.217391 193.892332 
Q 575.217391 194.656681 581.301299 195.101356 
Q 587.385207 195.546714 597.802001 195.546714 
Q 601.295111 195.546714 604.50234 195.486604 
Q 607.709569 195.427177 610.675585 195.30969 
L 610.675585 194.650533 
Q 607.682767 194.806272 604.779287 194.878677 
Q 601.875807 194.951082 598.668578 194.951082 
Q 592.91522 194.951082 589.618653 194.668976 
Q 586.33102 194.387554 586.33102 193.892332 
Q 586.33102 193.39916 589.618653 193.117054 
Q 592.91522 192.835632 598.668578 192.835632 
Q 601.875807 192.835632 604.779287 192.908037 
Q 607.682767 192.981125 610.675585 193.136863 
L 610.675585 192.477023 
z
" clip-path="url(#p0b86f4f408)" style="fill: #0000ff"/>
   </g>
   <g id="patch_60">
    <path d="M 610.675585 196.118923 
Q 607.099568 195.832818 603.253364 195.689113 
Q 599.407159 195.546714 595.306659 195.546714 
Q 586.040802 195.546714 580.629097 196.398496 
Q 575.217391 197.250277 575.217391 198.706929 
Q 575.217391 200.180564 580.724457 201.025814 
Q 586.23947 201.871063 595.831142 201.871063 
Q 599.526359 201.871063 602.911655 201.756099 
Q 606.304898 201.642441 609.308752 201.417738 
L 609.308752 200.157048 
Q 606.209538 200.445766 603.14211 200.588165 
Q 600.074682 200.73187 596.991361 200.73187 
Q 591.285627 200.73187 588.194359 200.206692 
Q 585.103091 199.68282 585.103091 198.706929 
Q 585.103091 197.740183 588.083105 197.212391 
Q 591.063119 196.685907 596.546345 196.685907 
Q 598.040326 196.685907 599.319745 196.715954 
Q 600.599164 196.747308 601.616343 196.812629 
L 601.616343 197.99624 
L 595.775515 197.99624 
L 595.775515 199.050516 
L 610.675585 199.050516 
L 610.675585 196.118923 
z
" clip-path="url(#p0b86f4f408)" style="fill: #ffa600"/>
   </g>
   <g id="patch_61">
    <path d="M 648 192.417364 
Q 645.033983 192.329448 641.826754 192.28498 
Q 638.619525 192.24 635.126415 192.24 
Q 624.709622 192.24 618.625714 192.573259 
Q 612.541806 192.906519 612.541806 193.476433 
Q 612.541806 194.048392 618.625714 194.381141 
Q 624.709622 194.7144 635.126415 194.7144 
Q 638.619525 194.7144 641.826754 194.66942 
Q 645.033983 194.624952 648 194.537037 
L 648 194.043792 
Q 645.007182 194.160331 642.103702 194.214511 
Q 639.200221 194.268691 635.992993 194.268691 
Q 630.239635 194.268691 626.943068 194.057593 
Q 623.655435 193.847006 623.655435 193.476433 
Q 623.655435 193.107395 626.943068 192.896296 
Q 630.239635 192.685709 635.992993 192.685709 
Q 639.200221 192.685709 642.103702 192.739889 
Q 645.007182 192.79458 648 192.911119 
L 648 192.417364 
z
" clip-path="url(#p0b86f4f408)" style="fill: #0000ff"/>
   </g>
   <g id="patch_62">
    <path d="M 648 195.331053 
Q 644.423983 195.022727 640.577778 194.867859 
Q 636.731573 194.7144 632.631074 194.7144 
Q 623.365217 194.7144 617.953512 195.63234 
Q 612.541806 196.55028 612.541806 198.12007 
Q 612.541806 199.708163 618.048872 200.619063 
Q 623.563885 201.529964 633.155557 201.529964 
Q 636.850774 201.529964 640.23607 201.40607 
Q 643.629313 201.283584 646.633167 201.041428 
L 646.633167 199.682821 
Q 643.533952 199.993963 640.466524 200.147422 
Q 637.399097 200.30229 634.315775 200.30229 
Q 628.610042 200.30229 625.518774 199.73632 
Q 622.427506 199.171759 622.427506 198.12007 
Q 622.427506 197.078236 625.40752 196.509452 
Q 628.387534 195.942074 633.87076 195.942074 
Q 635.36474 195.942074 636.64416 195.974456 
Q 637.923579 196.008245 638.940757 196.078639 
L 638.940757 197.354182 
L 633.09993 197.354182 
L 633.09993 198.490344 
L 648 198.490344 
L 648 195.331053 
z
" clip-path="url(#p0b86f4f408)" style="fill: #ffa600"/>
   </g>
   <g id="matplotlib.axis_1">
    <g id="xtick_1">
     <g id="line2d_2">
      <defs>
       <path id="m6b3bed9d7f" d="M 0 0 
L 0 3.5 
" style="stroke: #000000; stroke-width: 0.8"/>
      </defs>
      <g>
       <use xlink:href="#m6b3bed9d7f" x="107.729097" y="192.24" style="stroke: #000000; stroke-width: 0.8"/>
      </g>
     </g>
     <g id="text_1">
      <!-- 0 -->
      <g transform="translate(104.547847 206.838437) scale(0.1 -0.1)">
       <defs>
        <path id="DejaVuSans-30" d="M 2034 4250 
Q 1547 4250 1301 3770 
Q 1056 3291 1056 2328 
Q 1056 1369 1301 889 
Q 1547 409 2034 409 
Q 2525 409 2770 889 
Q 3016 1369 3016 2328 
Q 3016 3291 2770 3770 
Q 2525 4250 2034 4250 
z
M 2034 4750 
Q 2819 4750 3233 4129 
Q 3647 3509 3647 2328 
Q 3647 1150 3233 529 
Q 2819 -91 2034 -91 
Q 1250 -91 836 529 
Q 422 1150 422 2328 
Q 422 3509 836 4129 
Q 1250 4750 2034 4750 
z
" transform="scale(0.015625)"/>
       </defs>
       <use xlink:href="#DejaVuSans-30"/>
      </g>
     </g>
    </g>
    <g id="xtick_2">
     <g id="line2d_3">
      <g>
       <use xlink:href="#m6b3bed9d7f" x="182.377926" y="192.24" style="stroke: #000000; stroke-width: 0.8"/>
      </g>
     </g>
     <g id="text_2">
      <!-- 2 -->
      <g transform="translate(179.196676 206.838437) scale(0.1 -0.1)">
       <defs>
        <path id="DejaVuSans-32" d="M 1228 531 
L 3431 531 
L 3431 0 
L 469 0 
L 469 531 
Q 828 903 1448 1529 
Q 2069 2156 2228 2338 
Q 2531 2678 2651 2914 
Q 2772 3150 2772 3378 
Q 2772 3750 2511 3984 
Q 2250 4219 1831 4219 
Q 1534 4219 1204 4116 
Q 875 4013 500 3803 
L 500 4441 
Q 881 4594 1212 4672 
Q 1544 4750 1819 4750 
Q 2544 4750 2975 4387 
Q 3406 4025 3406 3419 
Q 3406 3131 3298 2873 
Q 3191 2616 2906 2266 
Q 2828 2175 2409 1742 
Q 1991 1309 1228 531 
z
" transform="scale(0.015625)"/>
       </defs>
       <use xlink:href="#DejaVuSans-32"/>
      </g>
     </g>
    </g>
    <g id="xtick_3">
     <g id="line2d_4">
      <g>
       <use xlink:href="#m6b3bed9d7f" x="257.026756" y="192.24" style="stroke: #000000; stroke-width: 0.8"/>
      </g>
     </g>
     <g id="text_3">
      <!-- 4 -->
      <g transform="translate(253.845506 206.838437) scale(0.1 -0.1)">
       <defs>
        <path id="DejaVuSans-34" d="M 2419 4116 
L 825 1625 
L 2419 1625 
L 2419 4116 
z
M 2253 4666 
L 3047 4666 
L 3047 1625 
L 3713 1625 
L 3713 1100 
L 3047 1100 
L 3047 0 
L 2419 0 
L 2419 1100 
L 313 1100 
L 313 1709 
L 2253 4666 
z
" transform="scale(0.015625)"/>
       </defs>
       <use xlink:href="#DejaVuSans-34"/>
      </g>
     </g>
    </g>
    <g id="xtick_4">
     <g id="line2d_5">
      <g>
       <use xlink:href="#m6b3bed9d7f" x="331.675585" y="192.24" style="stroke: #000000; stroke-width: 0.8"/>
      </g>
     </g>
     <g id="text_4">
      <!-- 6 -->
      <g transform="translate(328.494335 206.838437) scale(0.1 -0.1)">
       <defs>
        <path id="DejaVuSans-36" d="M 2113 2584 
Q 1688 2584 1439 2293 
Q 1191 2003 1191 1497 
Q 1191 994 1439 701 
Q 1688 409 2113 409 
Q 2538 409 2786 701 
Q 3034 994 3034 1497 
Q 3034 2003 2786 2293 
Q 2538 2584 2113 2584 
z
M 3366 4563 
L 3366 3988 
Q 3128 4100 2886 4159 
Q 2644 4219 2406 4219 
Q 1781 4219 1451 3797 
Q 1122 3375 1075 2522 
Q 1259 2794 1537 2939 
Q 1816 3084 2150 3084 
Q 2853 3084 3261 2657 
Q 3669 2231 3669 1497 
Q 3669 778 3244 343 
Q 2819 -91 2113 -91 
Q 1303 -91 875 529 
Q 447 1150 447 2328 
Q 447 3434 972 4092 
Q 1497 4750 2381 4750 
Q 2619 4750 2861 4703 
Q 3103 4656 3366 4563 
z
" transform="scale(0.015625)"/>
       </defs>
       <use xlink:href="#DejaVuSans-36"/>
      </g>
     </g>
    </g>
    <g id="xtick_5">
     <g id="line2d_6">
      <g>
       <use xlink:href="#m6b3bed9d7f" x="406.324415" y="192.24" style="stroke: #000000; stroke-width: 0.8"/>
      </g>
     </g>
     <g id="text_5">
      <!-- 8 -->
      <g transform="translate(403.143165 206.838437) scale(0.1 -0.1)">
       <defs>
        <path id="DejaVuSans-38" d="M 2034 2216 
Q 1584 2216 1326 1975 
Q 1069 1734 1069 1313 
Q 1069 891 1326 650 
Q 1584 409 2034 409 
Q 2484 409 2743 651 
Q 3003 894 3003 1313 
Q 3003 1734 2745 1975 
Q 2488 2216 2034 2216 
z
M 1403 2484 
Q 997 2584 770 2862 
Q 544 3141 544 3541 
Q 544 4100 942 4425 
Q 1341 4750 2034 4750 
Q 2731 4750 3128 4425 
Q 3525 4100 3525 3541 
Q 3525 3141 3298 2862 
Q 3072 2584 2669 2484 
Q 3125 2378 3379 2068 
Q 3634 1759 3634 1313 
Q 3634 634 3220 271 
Q 2806 -91 2034 -91 
Q 1263 -91 848 271 
Q 434 634 434 1313 
Q 434 1759 690 2068 
Q 947 2378 1403 2484 
z
M 1172 3481 
Q 1172 3119 1398 2916 
Q 1625 2713 2034 2713 
Q 2441 2713 2670 2916 
Q 2900 3119 2900 3481 
Q 2900 3844 2670 4047 
Q 2441 4250 2034 4250 
Q 1625 4250 1398 4047 
Q 1172 3844 1172 3481 
z
" transform="scale(0.015625)"/>
       </defs>
       <use xlink:href="#DejaVuSans-38"/>
      </g>
     </g>
    </g>
    <g id="xtick_6">
     <g id="line2d_7">
      <g>
       <use xlink:href="#m6b3bed9d7f" x="480.973244" y="192.24" style="stroke: #000000; stroke-width: 0.8"/>
      </g>
     </g>
     <g id="text_6">
      <!-- 10 -->
      <g transform="translate(474.610744 206.838437) scale(0.1 -0.1)">
       <defs>
        <path id="DejaVuSans-31" d="M 794 531 
L 1825 531 
L 1825 4091 
L 703 3866 
L 703 4441 
L 1819 4666 
L 2450 4666 
L 2450 531 
L 3481 531 
L 3481 0 
L 794 0 
L 794 531 
z
" transform="scale(0.015625)"/>
       </defs>
       <use xlink:href="#DejaVuSans-31"/>
       <use xlink:href="#DejaVuSans-30" x="63.623047"/>
      </g>
     </g>
    </g>
    <g id="xtick_7">
     <g id="line2d_8">
      <g>
       <use xlink:href="#m6b3bed9d7f" x="555.622074" y="192.24" style="stroke: #000000; stroke-width: 0.8"/>
      </g>
     </g>
     <g id="text_7">
      <!-- 12 -->
      <g transform="translate(549.259574 206.838437) scale(0.1 -0.1)">
       <use xlink:href="#DejaVuSans-31"/>
       <use xlink:href="#DejaVuSans-32" x="63.623047"/>
      </g>
     </g>
    </g>
    <g id="xtick_8">
     <g id="line2d_9">
      <g>
       <use xlink:href="#m6b3bed9d7f" x="630.270903" y="192.24" style="stroke: #000000; stroke-width: 0.8"/>
      </g>
     </g>
     <g id="text_8">
      <!-- 14 -->
      <g transform="translate(623.908403 206.838437) scale(0.1 -0.1)">
       <use xlink:href="#DejaVuSans-31"/>
       <use xlink:href="#DejaVuSans-34" x="63.623047"/>
      </g>
     </g>
    </g>
   </g>
   <g id="matplotlib.axis_2">
    <g id="ytick_1">
     <g id="line2d_10">
      <defs>
       <path id="mf7c91f076a" d="M 0 0 
L -3.5 0 
" style="stroke: #000000; stroke-width: 0.8"/>
      </defs>
      <g>
       <use xlink:href="#mf7c91f076a" x="90" y="192.24" style="stroke: #000000; stroke-width: 0.8"/>
      </g>
     </g>
     <g id="text_9">
      <!-- 0.000 -->
      <g transform="translate(54.371875 196.039219) scale(0.1 -0.1)">
       <defs>
        <path id="DejaVuSans-2e" d="M 684 794 
L 1344 794 
L 1344 0 
L 684 0 
L 684 794 
z
" transform="scale(0.015625)"/>
       </defs>
       <use xlink:href="#DejaVuSans-30"/>
       <use xlink:href="#DejaVuSans-2e" x="63.623047"/>
       <use xlink:href="#DejaVuSans-30" x="95.410156"/>
       <use xlink:href="#DejaVuSans-30" x="159.033203"/>
       <use xlink:href="#DejaVuSans-30" x="222.65625"/>
      </g>
     </g>
    </g>
    <g id="ytick_2">
     <g id="line2d_11">
      <g>
       <use xlink:href="#mf7c91f076a" x="90" y="163.828635" style="stroke: #000000; stroke-width: 0.8"/>
      </g>
     </g>
     <g id="text_10">
      <!-- 0.002 -->
      <g transform="translate(54.371875 167.627853) scale(0.1 -0.1)">
       <use xlink:href="#DejaVuSans-30"/>
       <use xlink:href="#DejaVuSans-2e" x="63.623047"/>
       <use xlink:href="#DejaVuSans-30" x="95.410156"/>
       <use xlink:href="#DejaVuSans-30" x="159.033203"/>
       <use xlink:href="#DejaVuSans-32" x="222.65625"/>
      </g>
     </g>
    </g>
    <g id="ytick_3">
     <g id="line2d_12">
      <g>
       <use xlink:href="#mf7c91f076a" x="90" y="135.417269" style="stroke: #000000; stroke-width: 0.8"/>
      </g>
     </g>
     <g id="text_11">
      <!-- 0.004 -->
      <g transform="translate(54.371875 139.216488) scale(0.1 -0.1)">
       <use xlink:href="#DejaVuSans-30"/>
       <use xlink:href="#DejaVuSans-2e" x="63.623047"/>
       <use xlink:href="#DejaVuSans-30" x="95.410156"/>
       <use xlink:href="#DejaVuSans-30" x="159.033203"/>
       <use xlink:href="#DejaVuSans-34" x="222.65625"/>
      </g>
     </g>
    </g>
    <g id="ytick_4">
     <g id="line2d_13">
      <g>
       <use xlink:href="#mf7c91f076a" x="90" y="107.005904" style="stroke: #000000; stroke-width: 0.8"/>
      </g>
     </g>
     <g id="text_12">
      <!-- 0.006 -->
      <g transform="translate(54.371875 110.805123) scale(0.1 -0.1)">
       <use xlink:href="#DejaVuSans-30"/>
       <use xlink:href="#DejaVuSans-2e" x="63.623047"/>
       <use xlink:href="#DejaVuSans-30" x="95.410156"/>
       <use xlink:href="#DejaVuSans-30" x="159.033203"/>
       <use xlink:href="#DejaVuSans-36" x="222.65625"/>
      </g>
     </g>
    </g>
    <g id="ytick_5">
     <g id="line2d_14">
      <g>
       <use xlink:href="#mf7c91f076a" x="90" y="78.594539" style="stroke: #000000; stroke-width: 0.8"/>
      </g>
     </g>
     <g id="text_13">
      <!-- 0.008 -->
      <g transform="translate(54.371875 82.393758) scale(0.1 -0.1)">
       <use xlink:href="#DejaVuSans-30"/>
       <use xlink:href="#DejaVuSans-2e" x="63.623047"/>
       <use xlink:href="#DejaVuSans-30" x="95.410156"/>
       <use xlink:href="#DejaVuSans-30" x="159.033203"/>
       <use xlink:href="#DejaVuSans-38" x="222.65625"/>
      </g>
     </g>
    </g>
    <g id="ytick_6">
     <g id="line2d_15">
      <g>
       <use xlink:href="#mf7c91f076a" x="90" y="50.183174" style="stroke: #000000; stroke-width: 0.8"/>
      </g>
     </g>
     <g id="text_14">
      <!-- 0.010 -->
      <g transform="translate(54.371875 53.982392) scale(0.1 -0.1)">
       <use xlink:href="#DejaVuSans-30"/>
       <use xlink:href="#DejaVuSans-2e" x="63.623047"/>
       <use xlink:href="#DejaVuSans-30" x="95.410156"/>
       <use xlink:href="#DejaVuSans-31" x="159.033203"/>
       <use xlink:href="#DejaVuSans-30" x="222.65625"/>
      </g>
     </g>
    </g>
   </g>
  </g>
 </g>
 <defs>
  <clipPath id="p0b86f4f408">
   <rect x="90" y="25.92" width="558" height="166.32"/>
  </clipPath>
 </defs>
</svg>
