<?xml version="1.0" encoding="utf-8" standalone="no"?>
<!DOCTYPE svg PUBLIC "-//W3C//DTD SVG 1.1//EN"
  "http://www.w3.org/Graphics/SVG/1.1/DTD/svg11.dtd">
<svg xmlns:xlink="http://www.w3.org/1999/xlink" width="720pt" height="216pt" viewBox="0 0 720 216" xmlns="http://www.w3.org/2000/svg" version="1.1">
 <metadata>
  <rdf:RDF xmlns:dc="http://purl.org/dc/elements/1.1/" xmlns:cc="http://creativecommons.org/ns#" xmlns:rdf="http://www.w3.org/1999/02/22-rdf-syntax-ns#">
   <cc:Work>
    <dc:type rdf:resource="http://purl.org/dc/dcmitype/StillImage"/>
    <dc:date>2024-11-23T04:41:04.950968</dc:date>
    <dc:format>image/svg+xml</dc:format>
    <dc:creator>
     <cc:Agent>
      <dc:title>Matplotlib v3.7.2, https://matplotlib.org/</dc:title>
     </cc:Agent>
    </dc:creator>
   </cc:Work>
  </rdf:RDF>
 </metadata>
 <defs>
  <style type="text/css">*{stroke-linejoin: round; stroke-linecap: butt}</style>
 </defs>
 <g id="figure_1">
  <g id="patch_1">
   <path d="M 0 216 
L 720 216 
L 720 0 
L 0 0 
z
" style="fill: #ffffff"/>
  </g>
  <g id="axes_1">
   <g id="patch_2">
    <path d="M 90 192.24 
L 648 192.24 
L 648 25.92 
L 90 25.92 
z
" style="fill: #ffffff"/>
   </g>
   <g id="line2d_1">
    <path d="M 90 175.331158 
L 648 175.331158 
" clip-path="url(#p716e30dd34)" style="fill: none; stroke: #000000; stroke-width: 0.5; stroke-linecap: square"/>
   </g>
   <g id="patch_3">
    <path d="M 107.699499 175.094786 
Q 106.218967 175.211951 104.618029 175.271214 
Q 103.017092 175.331158 101.273453 175.331158 
Q 96.073751 175.331158 93.036876 174.887024 
Q 90 174.44289 90 173.683366 
Q 90 172.921117 93.036876 172.477664 
Q 96.073751 172.033529 101.273453 172.033529 
Q 103.017092 172.033529 104.618029 172.093474 
Q 106.218967 172.152737 107.699499 172.269902 
L 107.699499 172.927248 
Q 106.205588 172.771937 104.756272 172.699731 
Q 103.306955 172.627525 101.706018 172.627525 
Q 98.834142 172.627525 97.18861 172.908855 
Q 95.547538 173.189505 95.547538 173.683366 
Q 95.547538 174.175183 97.18861 174.456514 
Q 98.834142 174.737163 101.706018 174.737163 
Q 103.306955 174.737163 104.756272 174.664957 
Q 106.205588 174.59207 107.699499 174.436759 
L 107.699499 175.094786 
z
" clip-path="url(#p716e30dd34)" style="fill: #0000ff"/>
   </g>
   <g id="patch_4">
    <path d="M 102.260459 171.074642 
L 95.453516 171.074642 
L 94.378735 172.033529 
L 90 172.033529 
L 96.253268 166.769799 
L 101.446231 166.769799 
L 107.699499 172.033529 
L 103.324383 172.033529 
L 102.260459 171.074642 
z
M 96.539153 170.097704 
L 101.163965 170.097704 
L 98.855178 168.003944 
L 96.539153 170.097704 
z
" clip-path="url(#p716e30dd34)" style="fill: #008000"/>
   </g>
   <g id="patch_5">
    <path d="M 107.699499 163.537372 
Q 105.914476 165.153585 103.994584 165.965382 
Q 102.074692 166.769799 100.027865 166.769799 
Q 95.402671 166.769799 92.701335 161.958058 
Q 90 157.146317 90 148.917649 
Q 90 140.593042 92.748936 135.818201 
Q 95.501839 131.04336 100.289668 131.04336 
Q 102.134193 131.04336 103.824015 131.692797 
Q 105.517804 132.334854 107.017224 133.604209 
L 107.017224 140.725881 
Q 105.470203 139.094908 103.93905 138.290491 
Q 102.407896 137.478694 100.868809 137.478694 
Q 98.020705 137.478694 96.477652 140.445443 
Q 94.934598 143.404811 94.934598 148.917649 
Q 94.934598 154.378828 96.422118 157.360336 
Q 97.909637 160.334464 100.646673 160.334464 
Q 101.392416 160.334464 102.031058 160.164725 
Q 102.6697 159.987606 103.17744 159.618607 
L 103.17744 152.932353 
L 100.261901 152.932353 
L 100.261901 146.976717 
L 107.699499 146.976717 
L 107.699499 163.537372 
z
" clip-path="url(#p716e30dd34)" style="fill: #ffa600"/>
   </g>
   <g id="patch_6">
    <path d="M 108.631052 175.258798 
L 126.330551 175.258798 
L 126.330551 175.27291 
L 119.962847 175.27291 
L 119.962847 175.331158 
L 115.011104 175.331158 
L 115.011104 175.27291 
L 108.631052 175.27291 
L 108.631052 175.258798 
z
" clip-path="url(#p716e30dd34)" style="fill: #ff0000"/>
   </g>
   <g id="patch_7">
    <path d="M 126.330551 174.858154 
Q 124.850018 175.056744 123.249081 175.157194 
Q 121.648144 175.258798 119.904504 175.258798 
Q 114.704803 175.258798 111.667927 174.506003 
Q 108.631052 173.753209 108.631052 172.465837 
Q 108.631052 171.173848 111.667927 170.422208 
Q 114.704803 169.669413 119.904504 169.669413 
Q 121.648144 169.669413 123.249081 169.771017 
Q 124.850018 169.871467 126.330551 170.070057 
L 126.330551 171.184239 
Q 124.83664 170.920992 123.387324 170.798605 
Q 121.938007 170.676218 120.33707 170.676218 
Q 117.465193 170.676218 115.819662 171.153065 
Q 114.178589 171.628757 114.178589 172.465837 
Q 114.178589 173.299453 115.819662 173.7763 
Q 117.465193 174.251993 120.33707 174.251993 
Q 121.938007 174.251993 123.387324 174.129606 
Q 124.83664 174.006064 126.330551 173.742817 
L 126.330551 174.858154 
z
" clip-path="url(#p716e30dd34)" style="fill: #0000ff"/>
   </g>
   <g id="patch_8">
    <path d="M 120.89151 168.361928 
L 114.084567 168.361928 
L 113.009787 169.669413 
L 108.631052 169.669413 
L 114.88432 162.492088 
L 120.077283 162.492088 
L 126.330551 169.669413 
L 121.955434 169.669413 
L 120.89151 168.361928 
z
M 115.170204 167.029831 
L 119.795017 167.029831 
L 117.48623 164.174899 
L 115.170204 167.029831 
z
" clip-path="url(#p716e30dd34)" style="fill: #008000"/>
   </g>
   <g id="patch_9">
    <path d="M 126.330551 160.186397 
Q 124.545527 161.339243 122.625636 161.918297 
Q 120.705744 162.492088 118.658917 162.492088 
Q 114.033723 162.492088 111.332387 159.059872 
Q 108.631052 155.627655 108.631052 149.758144 
Q 108.631052 143.820199 111.379988 140.414303 
Q 114.132891 137.008407 118.92072 137.008407 
Q 120.765244 137.008407 122.455067 137.471651 
Q 124.148856 137.929631 125.648275 138.835062 
L 125.648275 143.914953 
Q 124.101255 142.751579 122.570102 142.177788 
Q 121.038948 141.598733 119.499861 141.598733 
Q 116.651757 141.598733 115.108704 143.714916 
Q 113.56565 145.825834 113.56565 149.758144 
Q 113.56565 153.653604 115.053169 155.780315 
Q 116.540689 157.901762 119.277725 157.901762 
Q 120.023468 157.901762 120.66211 157.780687 
Q 121.300752 157.654347 121.808492 157.391141 
L 121.808492 152.621834 
L 118.892953 152.621834 
L 118.892953 148.373676 
L 126.330551 148.373676 
L 126.330551 160.186397 
z
" clip-path="url(#p716e30dd34)" style="fill: #ffa600"/>
   </g>
   <g id="patch_10">
    <path d="M 127.262104 173.887413 
L 144.961603 173.887413 
L 144.961603 174.168984 
L 138.593899 174.168984 
L 138.593899 175.331158 
L 133.642156 175.331158 
L 133.642156 174.168984 
L 127.262104 174.168984 
L 127.262104 173.887413 
z
" clip-path="url(#p716e30dd34)" style="fill: #ff0000"/>
   </g>
   <g id="patch_11">
    <path d="M 144.961603 173.709254 
Q 143.48107 173.797563 141.880133 173.842232 
Q 140.279195 173.887413 138.535556 173.887413 
Q 133.335855 173.887413 130.298979 173.552659 
Q 127.262104 173.217904 127.262104 172.645432 
Q 127.262104 172.070907 130.298979 171.736665 
Q 133.335855 171.401911 138.535556 171.401911 
Q 140.279195 171.401911 141.880133 171.447092 
Q 143.48107 171.49176 144.961603 171.58007 
L 144.961603 172.075527 
Q 143.467692 171.958466 142.018375 171.904043 
Q 140.569059 171.849619 138.968121 171.849619 
Q 136.096245 171.849619 134.450713 172.061665 
Q 132.809641 172.273197 132.809641 172.645432 
Q 132.809641 173.016127 134.450713 173.228172 
Q 136.096245 173.439704 138.968121 173.439704 
Q 140.569059 173.439704 142.018375 173.385281 
Q 143.467692 173.330344 144.961603 173.213283 
L 144.961603 173.709254 
z
" clip-path="url(#p716e30dd34)" style="fill: #0000ff"/>
   </g>
   <g id="patch_12">
    <path d="M 139.522562 170.475601 
L 132.715619 170.475601 
L 131.640839 171.401911 
L 127.262104 171.401911 
L 133.515372 166.317016 
L 138.708335 166.317016 
L 144.961603 171.401911 
L 140.586486 171.401911 
L 139.522562 170.475601 
z
M 133.801256 169.531855 
L 138.426069 169.531855 
L 136.117281 167.509231 
L 133.801256 169.531855 
z
" clip-path="url(#p716e30dd34)" style="fill: #008000"/>
   </g>
   <g id="patch_13">
    <path d="M 144.961603 162.713093 
Q 143.176579 164.515054 141.256687 165.420149 
Q 139.336795 166.317016 137.289969 166.317016 
Q 132.664774 166.317016 129.963439 160.952272 
Q 127.262104 155.587528 127.262104 146.413157 
Q 127.262104 137.131821 130.01104 131.808218 
Q 132.763942 126.484615 137.551772 126.484615 
Q 139.396296 126.484615 141.086118 127.208691 
Q 142.779907 127.924538 144.279327 129.339777 
L 144.279327 137.279928 
Q 142.732307 135.46151 141.201153 134.564643 
Q 139.67 133.659548 138.130913 133.659548 
Q 135.282809 133.659548 133.739755 136.967259 
Q 132.196702 140.266741 132.196702 146.413157 
Q 132.196702 152.501977 133.684221 155.826144 
Q 135.171741 159.142082 137.908777 159.142082 
Q 138.65452 159.142082 139.293162 158.952835 
Q 139.931803 158.75536 140.439543 158.343953 
L 140.439543 150.889263 
L 137.524005 150.889263 
L 137.524005 144.249158 
L 144.961603 144.249158 
L 144.961603 162.713093 
z
" clip-path="url(#p716e30dd34)" style="fill: #ffa600"/>
   </g>
   <g id="patch_14">
    <path d="M 145.893155 175.050904 
L 163.592654 175.050904 
L 163.592654 175.105562 
L 157.224951 175.105562 
L 157.224951 175.331158 
L 152.273207 175.331158 
L 152.273207 175.105562 
L 145.893155 175.105562 
L 145.893155 175.050904 
z
" clip-path="url(#p716e30dd34)" style="fill: #ff0000"/>
   </g>
   <g id="patch_15">
    <path d="M 158.153614 174.409322 
L 151.346671 174.409322 
L 150.27189 175.050904 
L 145.893155 175.050904 
L 152.146423 171.528995 
L 157.339386 171.528995 
L 163.592654 175.050904 
L 159.217538 175.050904 
L 158.153614 174.409322 
z
M 152.432308 173.755663 
L 157.057121 173.755663 
L 154.748333 172.354749 
L 152.432308 173.755663 
z
" clip-path="url(#p716e30dd34)" style="fill: #008000"/>
   </g>
   <g id="patch_16">
    <path d="M 163.592654 171.161373 
Q 162.112122 171.343595 160.511185 171.435765 
Q 158.910247 171.528995 157.166608 171.528995 
Q 151.966906 171.528995 148.930031 170.838246 
Q 145.893155 170.147498 145.893155 168.966234 
Q 145.893155 167.780731 148.930031 167.091042 
Q 151.966906 166.400294 157.166608 166.400294 
Q 158.910247 166.400294 160.511185 166.493524 
Q 162.112122 166.585694 163.592654 166.767916 
L 163.592654 167.790266 
Q 162.098744 167.548716 160.649427 167.436416 
Q 159.200111 167.324117 157.599173 167.324117 
Q 154.727297 167.324117 153.081765 167.761662 
Q 151.440693 168.198147 151.440693 168.966234 
Q 151.440693 169.731142 153.081765 170.168687 
Q 154.727297 170.605172 157.599173 170.605172 
Q 159.200111 170.605172 160.649427 170.492872 
Q 162.098744 170.379513 163.592654 170.137963 
L 163.592654 171.161373 
z
" clip-path="url(#p716e30dd34)" style="fill: #0000ff"/>
   </g>
   <g id="patch_17">
    <path d="M 163.592654 163.789897 
Q 161.807631 165.095096 159.887739 165.750675 
Q 157.967847 166.400294 155.92102 166.400294 
Q 151.295826 166.400294 148.594491 162.514498 
Q 145.893155 158.628702 145.893155 151.983514 
Q 145.893155 145.260849 148.642091 141.404852 
Q 151.394994 137.548855 156.182824 137.548855 
Q 158.027348 137.548855 159.71717 138.073319 
Q 161.410959 138.591822 162.910379 139.616909 
L 162.910379 145.368126 
Q 161.363358 144.051008 159.832205 143.401388 
Q 158.301052 142.745809 156.761965 142.745809 
Q 153.913861 142.745809 152.370807 145.141653 
Q 150.827753 147.531536 150.827753 151.983514 
Q 150.827753 156.393773 152.315273 158.801537 
Q 153.802792 161.20334 156.539828 161.20334 
Q 157.285572 161.20334 157.924213 161.066264 
Q 158.562855 160.923229 159.070595 160.625238 
L 159.070595 155.225651 
L 156.155057 155.225651 
L 156.155057 150.416084 
L 163.592654 150.416084 
L 163.592654 163.789897 
z
" clip-path="url(#p716e30dd34)" style="fill: #ffa600"/>
   </g>
   <g id="patch_18">
    <path d="M 182.223706 175.27828 
Q 180.743174 175.304491 179.142236 175.317748 
Q 177.541299 175.331158 175.79766 175.331158 
Q 170.597958 175.331158 167.561083 175.231802 
Q 164.524207 175.132445 164.524207 174.962533 
Q 164.524207 174.792012 167.561083 174.692807 
Q 170.597958 174.593451 175.79766 174.593451 
Q 177.541299 174.593451 179.142236 174.606861 
Q 180.743174 174.620118 182.223706 174.646329 
L 182.223706 174.793383 
Q 180.729795 174.758639 179.280479 174.742486 
Q 177.831162 174.726333 176.230225 174.726333 
Q 173.358349 174.726333 171.712817 174.789269 
Q 170.071745 174.852052 170.071745 174.962533 
Q 170.071745 175.072557 171.712817 175.135493 
Q 173.358349 175.198277 176.230225 175.198277 
Q 177.831162 175.198277 179.280479 175.182124 
Q 180.729795 175.165818 182.223706 175.131074 
L 182.223706 175.27828 
z
" clip-path="url(#p716e30dd34)" style="fill: #0000ff"/>
   </g>
   <g id="patch_19">
    <path d="M 164.524207 172.160015 
L 182.223706 172.160015 
L 182.223706 172.634603 
L 175.856003 172.634603 
L 175.856003 174.593451 
L 170.904259 174.593451 
L 170.904259 172.634603 
L 164.524207 172.634603 
L 164.524207 172.160015 
z
" clip-path="url(#p716e30dd34)" style="fill: #ff0000"/>
   </g>
   <g id="patch_20">
    <path d="M 176.784666 171.110499 
L 169.977723 171.110499 
L 168.902942 172.160015 
L 164.524207 172.160015 
L 170.777475 166.398789 
L 175.970438 166.398789 
L 182.223706 172.160015 
L 177.84859 172.160015 
L 176.784666 171.110499 
z
M 171.06336 170.041227 
L 175.688172 170.041227 
L 173.379385 167.749578 
L 171.06336 170.041227 
z
" clip-path="url(#p716e30dd34)" style="fill: #008000"/>
   </g>
   <g id="patch_21">
    <path d="M 182.223706 163.131786 
Q 180.438683 164.765287 178.518791 165.585768 
Q 176.598899 166.398789 174.552072 166.398789 
Q 169.926878 166.398789 167.225542 161.535579 
Q 164.524207 156.67237 164.524207 148.355686 
Q 164.524207 139.942035 167.273143 135.11612 
Q 170.026046 130.290206 174.813876 130.290206 
Q 176.6584 130.290206 178.348222 130.94659 
Q 180.042011 131.595515 181.541431 132.878447 
L 181.541431 140.076296 
Q 179.99441 138.427876 178.463257 137.614855 
Q 176.932103 136.794375 175.393016 136.794375 
Q 172.544912 136.794375 171.001859 139.792857 
Q 169.458805 142.78388 169.458805 148.355686 
Q 169.458805 153.875279 170.946325 156.888679 
Q 172.433844 159.894619 175.17088 159.894619 
Q 175.916623 159.894619 176.555265 159.723064 
Q 177.193907 159.544051 177.701647 159.171105 
L 177.701647 152.413333 
L 174.786108 152.413333 
L 174.786108 146.393992 
L 182.223706 146.393992 
L 182.223706 163.131786 
z
" clip-path="url(#p716e30dd34)" style="fill: #ffa600"/>
   </g>
   <g id="patch_22">
    <path d="M 183.155259 170.76991 
L 200.854758 170.76991 
L 200.854758 171.659481 
L 194.487054 171.659481 
L 194.487054 175.331158 
L 189.535311 175.331158 
L 189.535311 171.659481 
L 183.155259 171.659481 
L 183.155259 170.76991 
z
" clip-path="url(#p716e30dd34)" style="fill: #ff0000"/>
   </g>
   <g id="patch_23">
    <path d="M 195.415717 169.865343 
L 188.608774 169.865343 
L 187.533994 170.76991 
L 183.155259 170.76991 
L 189.408527 165.804367 
L 194.60149 165.804367 
L 200.854758 170.76991 
L 196.479641 170.76991 
L 195.415717 169.865343 
z
M 189.694411 168.943748 
L 194.319224 168.943748 
L 192.010437 166.968598 
L 189.694411 168.943748 
z
" clip-path="url(#p716e30dd34)" style="fill: #008000"/>
   </g>
   <g id="patch_24">
    <path d="M 200.854758 162.254151 
Q 199.069734 164.029259 197.149843 164.920866 
Q 195.229951 165.804367 193.183124 165.804367 
Q 188.55793 165.804367 185.856594 160.519571 
Q 183.155259 155.234776 183.155259 146.197127 
Q 183.155259 137.054107 185.904195 131.809839 
Q 188.657098 126.565571 193.444927 126.565571 
Q 195.289451 126.565571 196.979274 127.278856 
Q 198.673063 127.984036 200.172482 129.378184 
L 200.172482 137.200006 
Q 198.625462 135.408687 197.094309 134.525186 
Q 195.563155 133.633579 194.024068 133.633579 
Q 191.175964 133.633579 189.632911 136.891996 
Q 188.089857 140.142308 188.089857 146.197127 
Q 188.089857 152.195208 189.577376 155.469836 
Q 191.064896 158.736358 193.801932 158.736358 
Q 194.547675 158.736358 195.186317 158.549931 
Q 195.824959 158.355399 196.332699 157.950123 
L 196.332699 150.606527 
L 193.41716 150.606527 
L 193.41716 144.065377 
L 200.854758 144.065377 
L 200.854758 162.254151 
z
" clip-path="url(#p716e30dd34)" style="fill: #ffa600"/>
   </g>
   <g id="patch_25">
    <path d="M 201.786311 172.825815 
L 219.48581 172.825815 
L 219.48581 173.314427 
L 213.118106 173.314427 
L 213.118106 175.331158 
L 208.166363 175.331158 
L 208.166363 173.314427 
L 201.786311 173.314427 
L 201.786311 172.825815 
z
" clip-path="url(#p716e30dd34)" style="fill: #ff0000"/>
   </g>
   <g id="patch_26">
    <path d="M 214.046769 172.066321 
L 207.239826 172.066321 
L 206.165046 172.825815 
L 201.786311 172.825815 
L 208.039579 168.656635 
L 213.232542 168.656635 
L 219.48581 172.825815 
L 215.110693 172.825815 
L 214.046769 172.066321 
z
M 208.325463 171.292529 
L 212.950276 171.292529 
L 210.641488 169.63415 
L 208.325463 171.292529 
z
" clip-path="url(#p716e30dd34)" style="fill: #008000"/>
   </g>
   <g id="patch_27">
    <path d="M 219.48581 167.574914 
Q 217.700786 168.115775 215.780894 168.38744 
Q 213.861002 168.656635 211.814176 168.656635 
Q 207.188981 168.656635 204.487646 167.046402 
Q 201.786311 165.436169 201.786311 162.682474 
Q 201.786311 159.896672 204.535247 158.298788 
Q 207.288149 156.700904 212.075979 156.700904 
Q 213.920503 156.700904 215.610325 156.918236 
Q 217.304114 157.133098 218.803534 157.557883 
L 218.803534 159.941127 
Q 217.256514 159.395327 215.72536 159.126131 
Q 214.194207 158.854466 212.65512 158.854466 
Q 209.807016 158.854466 208.263962 159.847279 
Q 206.720909 160.837621 206.720909 162.682474 
Q 206.720909 164.510039 208.208428 165.50779 
Q 209.695948 166.503072 212.432984 166.503072 
Q 213.178727 166.503072 213.817369 166.446269 
Q 214.45601 166.386997 214.96375 166.263513 
L 214.96375 164.025981 
L 212.048212 164.025981 
L 212.048212 162.032947 
L 219.48581 162.032947 
L 219.48581 167.574914 
z
" clip-path="url(#p716e30dd34)" style="fill: #ffa600"/>
   </g>
   <g id="patch_28">
    <path d="M 219.48581 154.71235 
Q 218.005277 155.698031 216.40434 156.196602 
Q 214.803402 156.700904 213.059763 156.700904 
Q 207.860062 156.700904 204.823186 152.964487 
Q 201.786311 149.22807 201.786311 142.838338 
Q 201.786311 136.425684 204.823186 132.694998 
Q 207.860062 128.958581 213.059763 128.958581 
Q 214.803402 128.958581 216.40434 129.462883 
Q 218.005277 129.961454 219.48581 130.947134 
L 219.48581 136.477261 
Q 217.991899 135.170661 216.542582 134.563207 
Q 215.093266 133.955752 213.492328 133.955752 
Q 210.620452 133.955752 208.97492 136.322532 
Q 207.333848 138.68358 207.333848 142.838338 
Q 207.333848 146.975904 208.97492 149.342684 
Q 210.620452 151.703733 213.492328 151.703733 
Q 215.093266 151.703733 216.542582 151.096278 
Q 217.991899 150.483093 219.48581 149.176494 
L 219.48581 154.71235 
z
" clip-path="url(#p716e30dd34)" style="fill: #0000ff"/>
   </g>
   <g id="patch_29">
    <path d="M 220.417362 174.216396 
L 238.116861 174.216396 
L 238.116861 174.433806 
L 231.749158 174.433806 
L 231.749158 175.331158 
L 226.797414 175.331158 
L 226.797414 174.433806 
L 220.417362 174.433806 
L 220.417362 174.216396 
z
" clip-path="url(#p716e30dd34)" style="fill: #ff0000"/>
   </g>
   <g id="patch_30">
    <path d="M 232.677821 171.915576 
L 225.870878 171.915576 
L 224.796097 174.216396 
L 220.417362 174.216396 
L 226.67063 161.586244 
L 231.863593 161.586244 
L 238.116861 174.216396 
L 233.741745 174.216396 
L 232.677821 171.915576 
z
M 226.956515 169.571445 
L 231.581328 169.571445 
L 229.27254 164.547535 
L 226.956515 169.571445 
z
" clip-path="url(#p716e30dd34)" style="fill: #008000"/>
   </g>
   <g id="patch_31">
    <path d="M 238.116861 160.121753 
Q 236.636329 160.847668 235.035392 161.214845 
Q 233.434454 161.586244 231.690815 161.586244 
Q 226.491113 161.586244 223.454238 158.83452 
Q 220.417362 156.082796 220.417362 151.377011 
Q 220.417362 146.654343 223.454238 143.90684 
Q 226.491113 141.155116 231.690815 141.155116 
Q 233.434454 141.155116 235.035392 141.526515 
Q 236.636329 141.893692 238.116861 142.619607 
L 238.116861 146.692327 
Q 236.622951 145.730068 235.173634 145.282702 
Q 233.724318 144.835336 232.12338 144.835336 
Q 229.251504 144.835336 227.605972 146.578376 
Q 225.9649 148.317195 225.9649 151.377011 
Q 225.9649 154.424165 227.605972 156.167205 
Q 229.251504 157.906024 232.12338 157.906024 
Q 233.724318 157.906024 235.173634 157.458658 
Q 236.622951 157.007071 238.116861 156.044812 
L 238.116861 160.121753 
z
" clip-path="url(#p716e30dd34)" style="fill: #0000ff"/>
   </g>
   <g id="patch_32">
    <path d="M 238.116861 139.080275 
Q 236.331838 140.117696 234.411946 140.638774 
Q 232.492054 141.155116 230.445227 141.155116 
Q 225.820033 141.155116 223.118698 138.06654 
Q 220.417362 134.977964 220.417362 129.696119 
Q 220.417362 124.352693 223.166298 121.287802 
Q 225.919201 118.222911 230.707031 118.222911 
Q 232.551555 118.222911 234.241377 118.639774 
Q 235.935166 119.0519 237.434586 119.866678 
L 237.434586 124.43796 
Q 235.887565 123.391066 234.356412 122.874724 
Q 232.825259 122.353645 231.286172 122.353645 
Q 228.438068 122.353645 226.895014 124.257951 
Q 225.35196 126.15752 225.35196 129.696119 
Q 225.35196 133.201559 226.83948 135.115339 
Q 228.327 137.024382 231.064035 137.024382 
Q 231.809779 137.024382 232.44842 136.915429 
Q 233.087062 136.80174 233.594802 136.564886 
L 233.594802 132.273091 
L 230.679264 132.273091 
L 230.679264 128.450267 
L 238.116861 128.450267 
L 238.116861 139.080275 
z
" clip-path="url(#p716e30dd34)" style="fill: #ffa600"/>
   </g>
   <g id="patch_33">
    <path d="M 239.048414 174.81663 
L 256.747913 174.81663 
L 256.747913 174.916977 
L 250.38021 174.916977 
L 250.38021 175.331158 
L 245.428466 175.331158 
L 245.428466 174.916977 
L 239.048414 174.916977 
L 239.048414 174.81663 
z
" clip-path="url(#p716e30dd34)" style="fill: #ff0000"/>
   </g>
   <g id="patch_34">
    <path d="M 256.747913 174.692981 
Q 255.267381 174.754271 253.666443 174.785272 
Q 252.065506 174.81663 250.321867 174.81663 
Q 245.122165 174.81663 242.08529 174.584298 
Q 239.048414 174.351967 239.048414 173.954652 
Q 239.048414 173.555912 242.08529 173.323937 
Q 245.122165 173.091606 250.321867 173.091606 
Q 252.065506 173.091606 253.666443 173.122963 
Q 255.267381 173.153965 256.747913 173.215254 
L 256.747913 173.559119 
Q 255.254002 173.477874 253.804686 173.440103 
Q 252.355369 173.402331 250.754432 173.402331 
Q 247.882556 173.402331 246.237024 173.549498 
Q 244.595952 173.696308 244.595952 173.954652 
Q 244.595952 174.211927 246.237024 174.359094 
Q 247.882556 174.505904 250.754432 174.505904 
Q 252.355369 174.505904 253.804686 174.468133 
Q 255.254002 174.430005 256.747913 174.34876 
L 256.747913 174.692981 
z
" clip-path="url(#p716e30dd34)" style="fill: #0000ff"/>
   </g>
   <g id="patch_35">
    <path d="M 251.308873 172.022639 
L 244.50193 172.022639 
L 243.427149 173.091606 
L 239.048414 173.091606 
L 245.301682 167.223607 
L 250.494645 167.223607 
L 256.747913 173.091606 
L 252.372797 173.091606 
L 251.308873 172.022639 
z
M 245.587567 170.933551 
L 250.212379 170.933551 
L 247.903592 168.59943 
L 245.587567 170.933551 
z
" clip-path="url(#p716e30dd34)" style="fill: #008000"/>
   </g>
   <g id="patch_36">
    <path d="M 256.747913 158.957586 
Q 254.96289 163.090597 253.042998 165.166538 
Q 251.123106 167.223607 249.076279 167.223607 
Q 244.451085 167.223607 241.74975 154.918936 
Q 239.048414 142.614264 239.048414 121.571766 
Q 239.048414 100.28393 241.79735 88.073619 
Q 244.550253 75.863309 249.338083 75.863309 
Q 251.182607 75.863309 252.872429 77.524062 
Q 254.566218 79.165943 256.065638 82.411961 
L 256.065638 100.623629 
Q 254.518617 96.452874 252.987464 94.395805 
Q 251.45631 92.319863 249.917223 92.319863 
Q 247.069119 92.319863 245.526066 99.906486 
Q 243.983012 107.474236 243.983012 121.571766 
Q 243.983012 135.537191 245.470532 143.161558 
Q 246.958051 150.767053 249.695087 150.767053 
Q 250.44083 150.767053 251.079472 150.332992 
Q 251.718114 149.88006 252.225854 148.93645 
L 252.225854 131.838241 
L 249.310315 131.838241 
L 249.310315 116.608379 
L 256.747913 116.608379 
L 256.747913 158.957586 
z
" clip-path="url(#p716e30dd34)" style="fill: #ffa600"/>
   </g>
   <g id="patch_37">
    <path d="M 257.679466 174.751309 
L 275.378965 174.751309 
L 275.378965 174.864396 
L 269.011261 174.864396 
L 269.011261 175.331158 
L 264.059518 175.331158 
L 264.059518 174.864396 
L 257.679466 174.864396 
L 257.679466 174.751309 
z
" clip-path="url(#p716e30dd34)" style="fill: #ff0000"/>
   </g>
   <g id="patch_38">
    <path d="M 269.939924 174.101575 
L 263.132981 174.101575 
L 262.058201 174.751309 
L 257.679466 174.751309 
L 263.932734 171.184648 
L 269.125697 171.184648 
L 275.378965 174.751309 
L 271.003849 174.751309 
L 269.939924 174.101575 
z
M 264.218618 173.43961 
L 268.843431 173.43961 
L 266.534644 172.020895 
L 264.218618 173.43961 
z
" clip-path="url(#p716e30dd34)" style="fill: #008000"/>
   </g>
   <g id="patch_39">
    <path d="M 275.378965 169.174088 
Q 273.898432 170.170677 272.297495 170.674765 
Q 270.696558 171.184648 268.952919 171.184648 
Q 263.753217 171.184648 260.716341 167.40688 
Q 257.679466 163.629113 257.679466 157.168667 
Q 257.679466 150.685045 260.716341 146.913071 
Q 263.753217 143.135304 268.952919 143.135304 
Q 270.696558 143.135304 272.297495 143.645187 
Q 273.898432 144.149275 275.378965 145.145864 
L 275.378965 150.737192 
Q 273.885054 149.416132 272.435738 148.801955 
Q 270.986421 148.187778 269.385484 148.187778 
Q 266.513607 148.187778 264.868076 150.580751 
Q 263.227003 152.967929 263.227003 157.168667 
Q 263.227003 161.352023 264.868076 163.744995 
Q 266.513607 166.132174 269.385484 166.132174 
Q 270.986421 166.132174 272.435738 165.517997 
Q 273.885054 164.898026 275.378965 163.576966 
L 275.378965 169.174088 
z
" clip-path="url(#p716e30dd34)" style="fill: #0000ff"/>
   </g>
   <g id="patch_40">
    <path d="M 275.378965 137.053598 
Q 273.593941 140.094451 271.67405 141.62182 
Q 269.754158 143.135304 267.707331 143.135304 
Q 263.082137 143.135304 260.380801 134.082171 
Q 257.679466 125.029038 257.679466 109.54707 
Q 257.679466 93.884594 260.428402 84.900887 
Q 263.181305 75.91718 267.969134 75.91718 
Q 269.813659 75.91718 271.503481 77.139075 
Q 273.19727 78.347085 274.696689 80.735335 
L 274.696689 94.134527 
Q 273.149669 91.065904 271.618516 89.55242 
Q 270.087362 88.025051 268.548275 88.025051 
Q 265.700171 88.025051 264.157118 93.606891 
Q 262.614064 99.174845 262.614064 109.54707 
Q 262.614064 119.822098 264.101583 125.431708 
Q 265.589103 131.027433 268.326139 131.027433 
Q 269.071882 131.027433 269.710524 130.708074 
Q 270.349166 130.37483 270.856906 129.680571 
L 270.856906 117.100604 
L 267.941367 117.100604 
L 267.941367 105.895269 
L 275.378965 105.895269 
L 275.378965 137.053598 
z
" clip-path="url(#p716e30dd34)" style="fill: #ffa600"/>
   </g>
   <g id="patch_41">
    <path d="M 276.310518 167.066598 
L 294.010017 167.066598 
L 294.010017 168.678417 
L 287.642313 168.678417 
L 287.642313 175.331158 
L 282.69057 175.331158 
L 282.69057 168.678417 
L 276.310518 168.678417 
L 276.310518 167.066598 
z
" clip-path="url(#p716e30dd34)" style="fill: #ff0000"/>
   </g>
   <g id="patch_42">
    <path d="M 294.010017 165.767926 
Q 292.529484 166.411648 290.928547 166.737252 
Q 289.32761 167.066598 287.58397 167.066598 
Q 282.384269 167.066598 279.347393 164.626443 
Q 276.310518 162.186287 276.310518 158.013323 
Q 276.310518 153.825387 279.347393 151.388975 
Q 282.384269 148.94882 287.58397 148.94882 
Q 289.32761 148.94882 290.928547 149.278166 
Q 292.529484 149.603769 294.010017 150.247491 
L 294.010017 153.859071 
Q 292.516106 153.005765 291.066789 152.609052 
Q 289.617473 152.21234 288.016535 152.21234 
Q 285.144659 152.21234 283.499127 153.758021 
Q 281.858055 155.29996 281.858055 158.013323 
Q 281.858055 160.715458 283.499127 162.261139 
Q 285.144659 163.803077 288.016535 163.803077 
Q 289.617473 163.803077 291.066789 163.406365 
Q 292.516106 163.00591 294.010017 162.152604 
L 294.010017 165.767926 
z
" clip-path="url(#p716e30dd34)" style="fill: #0000ff"/>
   </g>
   <g id="patch_43">
    <path d="M 288.570976 145.261413 
L 281.764033 145.261413 
L 280.689253 148.94882 
L 276.310518 148.94882 
L 282.563786 128.707124 
L 287.756749 128.707124 
L 294.010017 148.94882 
L 289.6349 148.94882 
L 288.570976 145.261413 
z
M 282.84967 141.504596 
L 287.474483 141.504596 
L 285.165695 133.453034 
L 282.84967 141.504596 
z
" clip-path="url(#p716e30dd34)" style="fill: #008000"/>
   </g>
   <g id="patch_44">
    <path d="M 294.010017 126.811649 
Q 292.224993 127.759387 290.305101 128.235419 
Q 288.385209 128.707124 286.338383 128.707124 
Q 281.713188 128.707124 279.011853 125.885549 
Q 276.310518 123.063973 276.310518 118.238733 
Q 276.310518 113.357234 279.059454 110.557296 
Q 281.812356 107.757358 286.600186 107.757358 
Q 288.44471 107.757358 290.134532 108.138184 
Q 291.828321 108.514683 293.327741 109.259025 
L 293.327741 113.43513 
Q 291.780721 112.478737 290.249567 112.007032 
Q 288.718414 111.530999 287.179327 111.530999 
Q 284.331223 111.530999 282.788169 113.270682 
Q 281.245116 115.006038 281.245116 118.238733 
Q 281.245116 121.441134 282.732635 123.189473 
Q 284.220155 124.933483 286.957191 124.933483 
Q 287.702934 124.933483 288.341576 124.833949 
Q 288.980217 124.730088 289.487957 124.513709 
L 289.487957 120.592931 
L 286.572419 120.592931 
L 286.572419 117.100582 
L 294.010017 117.100582 
L 294.010017 126.811649 
z
" clip-path="url(#p716e30dd34)" style="fill: #ffa600"/>
   </g>
   <g id="patch_45">
    <path d="M 312.641068 175.326482 
Q 311.160536 175.3288 309.559599 175.329972 
Q 307.958661 175.331158 306.215022 175.331158 
Q 301.01532 175.331158 297.978445 175.322371 
Q 294.941569 175.313584 294.941569 175.298557 
Q 294.941569 175.283477 297.978445 175.274703 
Q 301.01532 175.265916 306.215022 175.265916 
Q 307.958661 175.265916 309.559599 175.267102 
Q 311.160536 175.268274 312.641068 175.270593 
L 312.641068 175.283598 
Q 311.147158 175.280525 309.697841 175.279097 
Q 308.248525 175.277668 306.647587 175.277668 
Q 303.775711 175.277668 302.130179 175.283234 
Q 300.489107 175.288787 300.489107 175.298557 
Q 300.489107 175.308288 302.130179 175.313854 
Q 303.775711 175.319406 306.647587 175.319406 
Q 308.248525 175.319406 309.697841 175.317978 
Q 311.147158 175.316536 312.641068 175.313463 
L 312.641068 175.326482 
z
" clip-path="url(#p716e30dd34)" style="fill: #0000ff"/>
   </g>
   <g id="patch_46">
    <path d="M 307.202028 175.016889 
L 300.395085 175.016889 
L 299.320305 175.265916 
L 294.941569 175.265916 
L 301.194837 173.898903 
L 306.3878 173.898903 
L 312.641068 175.265916 
L 308.265952 175.265916 
L 307.202028 175.016889 
z
M 301.480722 174.763174 
L 306.105535 174.763174 
L 303.796747 174.219416 
L 301.480722 174.763174 
z
" clip-path="url(#p716e30dd34)" style="fill: #008000"/>
   </g>
   <g id="patch_47">
    <path d="M 294.941569 170.922327 
L 312.641068 170.922327 
L 312.641068 171.502842 
L 306.273365 171.502842 
L 306.273365 173.898903 
L 301.321621 173.898903 
L 301.321621 171.502842 
L 294.941569 171.502842 
L 294.941569 170.922327 
z
" clip-path="url(#p716e30dd34)" style="fill: #ff0000"/>
   </g>
   <g id="patch_48">
    <path d="M 312.641068 158.243113 
Q 310.856045 164.58272 308.936153 167.766998 
Q 307.016261 170.922327 304.969434 170.922327 
Q 300.34424 170.922327 297.642905 152.048246 
Q 294.941569 133.174165 294.941569 100.89717 
Q 294.941569 68.243851 297.690505 49.51451 
Q 300.443408 30.785169 305.231238 30.785169 
Q 307.075762 30.785169 308.765584 33.332591 
Q 310.459373 35.851065 311.958793 40.830117 
L 311.958793 68.764915 
Q 310.411772 62.367412 308.880619 59.212082 
Q 307.349466 56.027805 305.810379 56.027805 
Q 302.962275 56.027805 301.419221 67.664892 
Q 299.876167 79.273031 299.876167 100.89717 
Q 299.876167 122.318673 301.363687 134.013656 
Q 302.851207 145.679691 305.588242 145.679691 
Q 306.333986 145.679691 306.972627 145.013887 
Q 307.611269 144.319136 308.119009 142.871737 
L 308.119009 116.64487 
L 305.203471 116.64487 
L 305.203471 93.283852 
L 312.641068 93.283852 
L 312.641068 158.243113 
z
" clip-path="url(#p716e30dd34)" style="fill: #ffa600"/>
   </g>
   <g id="patch_49">
    <path d="M 325.83308 175.004844 
L 319.026137 175.004844 
L 317.951356 175.331158 
L 313.572621 175.331158 
L 319.825889 173.539885 
L 325.018852 173.539885 
L 331.27212 175.331158 
L 326.897004 175.331158 
L 325.83308 175.004844 
z
M 320.111774 174.672387 
L 324.736586 174.672387 
L 322.427799 173.959871 
L 320.111774 174.672387 
z
" clip-path="url(#p716e30dd34)" style="fill: #008000"/>
   </g>
   <g id="patch_50">
    <path d="M 331.27212 173.152712 
Q 329.487097 173.346299 327.567205 173.443534 
Q 325.647313 173.539885 323.600486 173.539885 
Q 318.975292 173.539885 316.273957 172.963546 
Q 313.572621 172.387207 313.572621 171.401597 
Q 313.572621 170.404496 316.321557 169.832577 
Q 319.07446 169.260658 323.86229 169.260658 
Q 325.706814 169.260658 327.396636 169.338446 
Q 329.090425 169.41535 330.589845 169.56739 
L 330.589845 170.420407 
Q 329.042824 170.225053 327.511671 170.128702 
Q 325.980517 170.031467 324.44143 170.031467 
Q 321.593326 170.031467 320.050273 170.386817 
Q 318.507219 170.741283 318.507219 171.401597 
Q 318.507219 172.055724 319.994739 172.412842 
Q 321.482258 172.769076 324.219294 172.769076 
Q 324.965037 172.769076 325.603679 172.748745 
Q 326.242321 172.72753 326.750061 172.683332 
L 326.750061 171.882469 
L 323.834523 171.882469 
L 323.834523 171.169117 
L 331.27212 171.169117 
L 331.27212 173.152712 
z
" clip-path="url(#p716e30dd34)" style="fill: #ffa600"/>
   </g>
   <g id="patch_51">
    <path d="M 331.27212 162.724603 
Q 329.791588 165.964376 328.19065 167.603099 
Q 326.589713 169.260658 324.846074 169.260658 
Q 319.646372 169.260658 316.609497 156.979655 
Q 313.572621 144.698652 313.572621 123.696631 
Q 313.572621 102.619266 316.609497 90.357099 
Q 319.646372 78.076096 324.846074 78.076096 
Q 326.589713 78.076096 328.19065 79.733655 
Q 329.791588 81.372377 331.27212 84.612151 
L 331.27212 102.788789 
Q 329.778209 98.494205 328.328893 96.4976 
Q 326.879576 94.500995 325.278639 94.500995 
Q 322.406763 94.500995 320.761231 102.280219 
Q 319.120159 110.040608 319.120159 123.696631 
Q 319.120159 137.296146 320.761231 145.07537 
Q 322.406763 152.835758 325.278639 152.835758 
Q 326.879576 152.835758 328.328893 150.839154 
Q 329.778209 148.823713 331.27212 144.529129 
L 331.27212 162.724603 
z
" clip-path="url(#p716e30dd34)" style="fill: #0000ff"/>
   </g>
   <g id="patch_52">
    <path d="M 332.203673 167.062786 
L 349.903172 167.062786 
L 349.903172 168.675349 
L 343.535468 168.675349 
L 343.535468 175.331158 
L 338.583725 175.331158 
L 338.583725 168.675349 
L 332.203673 168.675349 
L 332.203673 167.062786 
z
" clip-path="url(#p716e30dd34)" style="fill: #ff0000"/>
   </g>
   <g id="patch_53">
    <path d="M 349.903172 165.960485 
Q 348.118149 166.511636 346.198257 166.788469 
Q 344.278365 167.062786 342.231538 167.062786 
Q 337.606344 167.062786 334.905008 165.421919 
Q 332.203673 163.781051 332.203673 160.974966 
Q 332.203673 158.136165 334.952609 156.50788 
Q 337.705512 154.879596 342.493341 154.879596 
Q 344.337866 154.879596 346.027688 155.101063 
Q 347.721477 155.320013 349.220896 155.75288 
L 349.220896 158.181465 
Q 347.673876 157.625281 346.142723 157.350964 
Q 344.611569 157.074131 343.072482 157.074131 
Q 340.224378 157.074131 338.681325 158.085831 
Q 337.138271 159.095015 337.138271 160.974966 
Q 337.138271 162.8373 338.62579 163.854034 
Q 340.11331 164.868252 342.850346 164.868252 
Q 343.596089 164.868252 344.234731 164.810368 
Q 344.873373 164.749968 345.381113 164.624135 
L 345.381113 162.344034 
L 342.465574 162.344034 
L 342.465574 160.313082 
L 349.903172 160.313082 
L 349.903172 165.960485 
z
" clip-path="url(#p716e30dd34)" style="fill: #ffa600"/>
   </g>
   <g id="patch_54">
    <path d="M 344.464131 151.909243 
L 337.657188 151.909243 
L 336.582408 154.879596 
L 332.203673 154.879596 
L 338.456941 138.574105 
L 343.649904 138.574105 
L 349.903172 154.879596 
L 345.528056 154.879596 
L 344.464131 151.909243 
z
M 338.742825 148.882977 
L 343.367638 148.882977 
L 341.058851 142.397124 
L 338.742825 148.882977 
z
" clip-path="url(#p716e30dd34)" style="fill: #008000"/>
   </g>
   <g id="patch_55">
    <path d="M 349.903172 136.630303 
Q 348.422639 137.593801 346.821702 138.081152 
Q 345.220765 138.574105 343.477126 138.574105 
Q 338.277424 138.574105 335.240548 134.921774 
Q 332.203673 131.269444 332.203673 125.023511 
Q 332.203673 118.755171 335.240548 115.108442 
Q 338.277424 111.456112 343.477126 111.456112 
Q 345.220765 111.456112 346.821702 111.949064 
Q 348.422639 112.436415 349.903172 113.399913 
L 349.903172 118.805586 
Q 348.409261 117.528391 346.959945 116.934607 
Q 345.510628 116.340824 343.909691 116.340824 
Q 341.037814 116.340824 339.392283 118.65434 
Q 337.75121 120.962254 337.75121 125.023511 
Q 337.75121 129.067962 339.392283 131.381478 
Q 341.037814 133.689393 343.909691 133.689393 
Q 345.510628 133.689393 346.959945 133.095609 
Q 348.409261 132.496223 349.903172 131.219028 
L 349.903172 136.630303 
z
" clip-path="url(#p716e30dd34)" style="fill: #0000ff"/>
   </g>
   <g id="patch_56">
    <path d="M 368.534224 175.319251 
Q 367.053691 175.325153 365.452754 175.328139 
Q 363.851817 175.331158 362.108177 175.331158 
Q 356.908476 175.331158 353.8716 175.308785 
Q 350.834725 175.286411 350.834725 175.24815 
Q 350.834725 175.209751 353.8716 175.187412 
Q 356.908476 175.165038 362.108177 175.165038 
Q 363.851817 175.165038 365.452754 175.168058 
Q 367.053691 175.171044 368.534224 175.176946 
L 368.534224 175.21006 
Q 367.040313 175.202236 365.590996 175.198599 
Q 364.14168 175.194961 362.540743 175.194961 
Q 359.668866 175.194961 358.023334 175.209133 
Q 356.382262 175.223271 356.382262 175.24815 
Q 356.382262 175.272926 358.023334 175.287098 
Q 359.668866 175.301236 362.540743 175.301236 
Q 364.14168 175.301236 365.590996 175.297598 
Q 367.040313 175.293926 368.534224 175.286103 
L 368.534224 175.319251 
z
" clip-path="url(#p716e30dd34)" style="fill: #0000ff"/>
   </g>
   <g id="patch_57">
    <path d="M 350.834725 174.152682 
L 368.534224 174.152682 
L 368.534224 174.350119 
L 362.16652 174.350119 
L 362.16652 175.165038 
L 357.214777 175.165038 
L 357.214777 174.350119 
L 350.834725 174.350119 
L 350.834725 174.152682 
z
" clip-path="url(#p716e30dd34)" style="fill: #ff0000"/>
   </g>
   <g id="patch_58">
    <path d="M 363.095183 173.879552 
L 356.28824 173.879552 
L 355.21346 174.152682 
L 350.834725 174.152682 
L 357.087993 172.653362 
L 362.280956 172.653362 
L 368.534224 174.152682 
L 364.159107 174.152682 
L 363.095183 173.879552 
z
M 357.373877 173.601282 
L 361.99869 173.601282 
L 359.689902 173.004896 
L 357.373877 173.601282 
z
" clip-path="url(#p716e30dd34)" style="fill: #008000"/>
   </g>
   <g id="patch_59">
    <path d="M 368.534224 159.377342 
Q 366.7492 166.015352 364.829308 169.349512 
Q 362.909416 172.653362 360.86259 172.653362 
Q 356.237396 172.653362 353.53606 152.890885 
Q 350.834725 133.128408 350.834725 99.332147 
Q 350.834725 65.141849 353.583661 45.530924 
Q 356.336563 25.92 361.124393 25.92 
Q 362.968917 25.92 364.658739 28.587328 
Q 366.352528 31.224346 367.851948 36.43776 
L 367.851948 65.687439 
Q 366.304928 58.988808 364.773774 55.684958 
Q 363.242621 52.350798 361.703534 52.350798 
Q 358.85543 52.350798 357.312376 64.535638 
Q 355.769323 76.690168 355.769323 99.332147 
Q 355.769323 121.761952 357.256842 134.007414 
Q 358.744362 146.222564 361.481398 146.222564 
Q 362.227141 146.222564 362.865783 145.525422 
Q 363.504424 144.797969 364.012164 143.282441 
L 364.012164 115.821085 
L 361.096626 115.821085 
L 361.096626 91.360473 
L 368.534224 91.360473 
L 368.534224 159.377342 
z
" clip-path="url(#p716e30dd34)" style="fill: #ffa600"/>
   </g>
   <g id="patch_60">
    <path d="M 369.465776 174.376193 
L 387.165275 174.376193 
L 387.165275 174.562438 
L 380.797572 174.562438 
L 380.797572 175.331158 
L 375.845828 175.331158 
L 375.845828 174.562438 
L 369.465776 174.562438 
L 369.465776 174.376193 
z
" clip-path="url(#p716e30dd34)" style="fill: #ff0000"/>
   </g>
   <g id="patch_61">
    <path d="M 387.165275 173.948128 
Q 385.380252 174.16216 383.46036 174.269665 
Q 381.540468 174.376193 379.493641 174.376193 
Q 374.868447 174.376193 372.167112 173.738982 
Q 369.465776 173.101771 369.465776 172.012063 
Q 369.465776 170.909649 372.214712 170.277325 
Q 374.967615 169.645 379.755445 169.645 
Q 381.599969 169.645 383.289791 169.731004 
Q 384.98358 169.816031 386.483 169.98413 
L 386.483 170.927241 
Q 384.93598 170.711254 383.404826 170.604726 
Q 381.873673 170.497221 380.334586 170.497221 
Q 377.486482 170.497221 375.943428 170.890103 
Q 374.400374 171.282007 374.400374 172.012063 
Q 374.400374 172.735277 375.887894 173.130114 
Q 377.375414 173.523972 380.112449 173.523972 
Q 380.858193 173.523972 381.496834 173.501494 
Q 382.135476 173.478038 382.643216 173.429173 
L 382.643216 172.543723 
L 379.727678 172.543723 
L 379.727678 171.755028 
L 387.165275 171.755028 
L 387.165275 173.948128 
z
" clip-path="url(#p716e30dd34)" style="fill: #ffa600"/>
   </g>
   <g id="patch_62">
    <path d="M 381.726235 168.056768 
L 374.919292 168.056768 
L 373.844512 169.645 
L 369.465776 169.645 
L 375.719044 160.926537 
L 380.912007 160.926537 
L 387.165275 169.645 
L 382.790159 169.645 
L 381.726235 168.056768 
z
M 376.004929 166.438639 
L 380.629742 166.438639 
L 378.320954 162.970686 
L 376.004929 166.438639 
z
" clip-path="url(#p716e30dd34)" style="fill: #008000"/>
   </g>
   <g id="patch_63">
    <path d="M 387.165275 154.341018 
Q 385.684743 157.60531 384.083806 159.256434 
Q 382.482868 160.926537 380.739229 160.926537 
Q 375.539527 160.926537 372.502652 148.552594 
Q 369.465776 136.178652 369.465776 115.017692 
Q 369.465776 93.780818 372.502652 81.425854 
Q 375.539527 69.051912 380.739229 69.051912 
Q 382.482868 69.051912 384.083806 70.722014 
Q 385.684743 72.373139 387.165275 75.63743 
L 387.165275 93.951624 
Q 385.671365 89.62454 384.222048 87.612825 
Q 382.772732 85.601111 381.171794 85.601111 
Q 378.299918 85.601111 376.654386 93.439206 
Q 375.013314 101.258323 375.013314 115.017692 
Q 375.013314 128.720125 376.654386 136.55822 
Q 378.299918 144.377337 381.171794 144.377337 
Q 382.772732 144.377337 384.222048 142.365623 
Q 385.671365 140.33493 387.165275 136.007846 
L 387.165275 154.341018 
z
" clip-path="url(#p716e30dd34)" style="fill: #0000ff"/>
   </g>
   <g id="patch_64">
    <path d="M 405.796327 175.087613 
Q 404.315795 175.208333 402.714857 175.269395 
Q 401.11392 175.331158 399.370281 175.331158 
Q 394.170579 175.331158 391.133704 174.873545 
Q 388.096828 174.415932 388.096828 173.633357 
Q 388.096828 172.847975 391.133704 172.391064 
Q 394.170579 171.933451 399.370281 171.933451 
Q 401.11392 171.933451 402.714857 171.995214 
Q 404.315795 172.056276 405.796327 172.176996 
L 405.796327 172.854292 
Q 404.302416 172.694268 402.8531 172.61987 
Q 401.403783 172.545473 399.802846 172.545473 
Q 396.93097 172.545473 395.285438 172.835342 
Q 393.644366 173.124508 393.644366 173.633357 
Q 393.644366 174.140101 395.285438 174.429969 
Q 396.93097 174.719136 399.802846 174.719136 
Q 401.403783 174.719136 402.8531 174.644739 
Q 404.302416 174.56964 405.796327 174.409615 
L 405.796327 175.087613 
z
" clip-path="url(#p716e30dd34)" style="fill: #0000ff"/>
   </g>
   <g id="patch_65">
    <path d="M 388.096828 166.832003 
L 405.796327 166.832003 
L 405.796327 167.826927 
L 399.428624 167.826927 
L 399.428624 171.933451 
L 394.47688 171.933451 
L 394.47688 167.826927 
L 388.096828 167.826927 
L 388.096828 166.832003 
z
" clip-path="url(#p716e30dd34)" style="fill: #ff0000"/>
   </g>
   <g id="patch_66">
    <path d="M 400.357287 165.398903 
L 393.550344 165.398903 
L 392.475563 166.832003 
L 388.096828 166.832003 
L 394.350096 158.965126 
L 399.543059 158.965126 
L 405.796327 166.832003 
L 401.421211 166.832003 
L 400.357287 165.398903 
z
M 394.635981 163.938827 
L 399.260793 163.938827 
L 396.952006 160.80961 
L 394.635981 163.938827 
z
" clip-path="url(#p716e30dd34)" style="fill: #008000"/>
   </g>
   <g id="patch_67">
    <path d="M 405.796327 150.369024 
Q 404.011304 154.667075 402.091412 156.825914 
Q 400.17152 158.965126 398.124693 158.965126 
Q 393.499499 158.965126 390.798164 146.169102 
Q 388.096828 133.373078 388.096828 111.490306 
Q 388.096828 89.352399 390.845764 76.654503 
Q 393.598667 63.956608 398.386497 63.956608 
Q 400.231021 63.956608 401.920843 65.683679 
Q 403.614632 67.391124 405.114052 70.766762 
L 405.114052 89.705663 
Q 403.567031 85.36836 402.035878 83.229148 
Q 400.504724 81.070309 398.965637 81.070309 
Q 396.117533 81.070309 394.57448 88.959883 
Q 393.031426 96.82983 393.031426 111.490306 
Q 393.031426 126.013401 394.518946 133.942226 
Q 396.006465 141.851425 398.743501 141.851425 
Q 399.489244 141.851425 400.127886 141.400032 
Q 400.766528 140.929012 401.274268 139.947722 
L 401.274268 122.166743 
L 398.35873 122.166743 
L 398.35873 106.328719 
L 405.796327 106.328719 
L 405.796327 150.369024 
z
" clip-path="url(#p716e30dd34)" style="fill: #ffa600"/>
   </g>
   <g id="patch_68">
    <path d="M 406.72788 169.223496 
L 424.427379 169.223496 
L 424.427379 170.41466 
L 418.059675 170.41466 
L 418.059675 175.331158 
L 413.107932 175.331158 
L 413.107932 170.41466 
L 406.72788 170.41466 
L 406.72788 169.223496 
z
" clip-path="url(#p716e30dd34)" style="fill: #ff0000"/>
   </g>
   <g id="patch_69">
    <path d="M 424.427379 168.292864 
Q 422.642356 168.75818 420.722464 168.9919 
Q 418.802572 169.223496 416.755745 169.223496 
Q 412.130551 169.223496 409.429215 167.838173 
Q 406.72788 166.45285 406.72788 164.083777 
Q 406.72788 161.687083 409.476816 160.312384 
Q 412.229719 158.937685 417.017548 158.937685 
Q 418.862073 158.937685 420.551895 159.124661 
Q 422.245684 159.309512 423.745103 159.674965 
L 423.745103 161.725329 
Q 422.198083 161.255764 420.66693 161.024168 
Q 419.135776 160.790448 417.596689 160.790448 
Q 414.748585 160.790448 413.205532 161.644589 
Q 411.662478 162.496605 411.662478 164.083777 
Q 411.662478 165.656076 413.149997 166.514467 
Q 414.637517 167.370732 417.374553 167.370732 
Q 418.120296 167.370732 418.758938 167.321863 
Q 419.39758 167.27087 419.90532 167.164634 
L 419.90532 165.23963 
L 416.989781 165.23963 
L 416.989781 163.524974 
L 424.427379 163.524974 
L 424.427379 168.292864 
z
" clip-path="url(#p716e30dd34)" style="fill: #ffa600"/>
   </g>
   <g id="patch_70">
    <path d="M 418.988338 156.297505 
L 412.181395 156.297505 
L 411.106615 158.937685 
L 406.72788 158.937685 
L 412.981148 144.444652 
L 418.174111 144.444652 
L 424.427379 158.937685 
L 420.052263 158.937685 
L 418.988338 156.297505 
z
M 413.267032 153.607628 
L 417.891845 153.607628 
L 415.583058 147.842718 
L 413.267032 153.607628 
z
" clip-path="url(#p716e30dd34)" style="fill: #008000"/>
   </g>
   <g id="patch_71">
    <path d="M 424.427379 140.358726 
Q 422.946846 142.384026 421.345909 143.408452 
Q 419.744972 144.444652 418.001333 144.444652 
Q 412.801631 144.444652 409.764755 136.76735 
Q 406.72788 129.090049 406.72788 115.960921 
Q 406.72788 102.784694 409.764755 95.119167 
Q 412.801631 87.441866 418.001333 87.441866 
Q 419.744972 87.441866 421.345909 88.478066 
Q 422.946846 89.502491 424.427379 91.527792 
L 424.427379 102.890669 
Q 422.933468 100.205968 421.484152 98.957818 
Q 420.034835 97.709668 418.433898 97.709668 
Q 415.562021 97.709668 413.91649 102.572744 
Q 412.275417 107.424045 412.275417 115.960921 
Q 412.275417 124.462473 413.91649 129.325549 
Q 415.562021 134.17685 418.433898 134.17685 
Q 420.034835 134.17685 421.484152 132.9287 
Q 422.933468 131.668774 424.427379 128.984074 
L 424.427379 140.358726 
z
" clip-path="url(#p716e30dd34)" style="fill: #0000ff"/>
   </g>
   <g id="patch_72">
    <path d="M 443.058431 174.928548 
Q 441.577898 175.128113 439.976961 175.229056 
Q 438.376024 175.331158 436.632384 175.331158 
Q 431.432683 175.331158 428.395807 174.574668 
Q 425.358932 173.818178 425.358932 172.524487 
Q 425.358932 171.226156 428.395807 170.470826 
Q 431.432683 169.714336 436.632384 169.714336 
Q 438.376024 169.714336 439.976961 169.816439 
Q 441.577898 169.917381 443.058431 170.116946 
L 443.058431 171.236598 
Q 441.56452 170.972058 440.115203 170.849071 
Q 438.665887 170.726083 437.06495 170.726083 
Q 434.193073 170.726083 432.547541 171.205271 
Q 430.906469 171.683298 430.906469 172.524487 
Q 430.906469 173.362196 432.547541 173.841384 
Q 434.193073 174.319411 437.06495 174.319411 
Q 438.665887 174.319411 440.115203 174.196423 
Q 441.56452 174.072275 443.058431 173.807736 
L 443.058431 174.928548 
z
" clip-path="url(#p716e30dd34)" style="fill: #0000ff"/>
   </g>
   <g id="patch_73">
    <path d="M 437.61939 168.016919 
L 430.812447 168.016919 
L 429.737667 169.714336 
L 425.358932 169.714336 
L 431.6122 160.396516 
L 436.805163 160.396516 
L 443.058431 169.714336 
L 438.683314 169.714336 
L 437.61939 168.016919 
z
M 431.898084 166.287551 
L 436.522897 166.287551 
L 434.214109 162.581191 
L 431.898084 166.287551 
z
" clip-path="url(#p716e30dd34)" style="fill: #008000"/>
   </g>
   <g id="patch_74">
    <path d="M 425.358932 149.825626 
L 443.058431 149.825626 
L 443.058431 151.887244 
L 436.690727 151.887244 
L 436.690727 160.396516 
L 431.738984 160.396516 
L 431.738984 151.887244 
L 425.358932 151.887244 
L 425.358932 149.825626 
z
" clip-path="url(#p716e30dd34)" style="fill: #ff0000"/>
   </g>
   <g id="patch_75">
    <path d="M 443.058431 144.036849 
Q 441.273407 146.931237 439.353515 148.38504 
Q 437.433623 149.825626 435.386797 149.825626 
Q 430.761603 149.825626 428.060267 141.208542 
Q 425.358932 132.591459 425.358932 117.855188 
Q 425.358932 102.947105 428.107868 94.396103 
Q 430.86077 85.845102 435.6486 85.845102 
Q 437.493124 85.845102 439.182946 87.008144 
Q 440.876735 88.157969 442.376155 90.431188 
L 442.376155 103.185 
Q 440.829135 100.264179 439.297981 98.823593 
Q 437.766828 97.36979 436.227741 97.36979 
Q 433.379637 97.36979 431.836583 102.682777 
Q 430.29353 107.982548 430.29353 117.855188 
Q 430.29353 127.635314 431.781049 132.974734 
Q 433.268569 138.300937 436.005605 138.300937 
Q 436.751348 138.300937 437.38999 137.99696 
Q 438.028631 137.679767 438.536371 137.018948 
L 438.536371 125.044902 
L 435.620833 125.044902 
L 435.620833 114.379279 
L 443.058431 114.379279 
L 443.058431 144.036849 
z
" clip-path="url(#p716e30dd34)" style="fill: #ffa600"/>
   </g>
   <g id="patch_76">
    <path d="M 443.989983 175.222676 
L 461.689482 175.222676 
L 461.689482 175.243833 
L 455.321779 175.243833 
L 455.321779 175.331158 
L 450.370035 175.331158 
L 450.370035 175.243833 
L 443.989983 175.243833 
L 443.989983 175.222676 
z
" clip-path="url(#p716e30dd34)" style="fill: #ff0000"/>
   </g>
   <g id="patch_77">
    <path d="M 456.250442 173.730449 
L 449.443499 173.730449 
L 448.368719 175.222676 
L 443.989983 175.222676 
L 450.243251 167.031227 
L 455.436214 167.031227 
L 461.689482 175.222676 
L 457.314366 175.222676 
L 456.250442 173.730449 
z
M 450.529136 172.210133 
L 455.153949 172.210133 
L 452.845161 168.951811 
L 450.529136 172.210133 
z
" clip-path="url(#p716e30dd34)" style="fill: #008000"/>
   </g>
   <g id="patch_78">
    <path d="M 461.689482 163.528786 
Q 459.904459 165.280006 457.984567 166.159615 
Q 456.064675 167.031227 454.017848 167.031227 
Q 449.392654 167.031227 446.691319 161.817549 
Q 443.989983 156.60387 443.989983 147.687841 
Q 443.989983 138.667859 446.738919 133.494163 
Q 449.491822 128.320467 454.279652 128.320467 
Q 456.124176 128.320467 457.813998 129.024153 
Q 459.507787 129.719844 461.007207 131.095231 
L 461.007207 138.811794 
Q 459.460187 137.044581 457.929033 136.17297 
Q 456.39788 135.293361 454.858793 135.293361 
Q 452.010689 135.293361 450.467635 138.50793 
Q 448.924581 141.714502 448.924581 147.687841 
Q 448.924581 153.605206 450.412101 156.835767 
Q 451.899621 160.058332 454.636656 160.058332 
Q 455.3824 160.058332 456.021041 159.874414 
Q 456.659683 159.682499 457.167423 159.282677 
L 457.167423 152.037904 
L 454.251885 152.037904 
L 454.251885 145.584778 
L 461.689482 145.584778 
L 461.689482 163.528786 
z
" clip-path="url(#p716e30dd34)" style="fill: #ffa600"/>
   </g>
   <g id="patch_79">
    <path d="M 461.689482 125.019931 
Q 460.20895 126.655932 458.608013 127.483443 
Q 457.007075 128.320467 455.263436 128.320467 
Q 450.063734 128.320467 447.026859 122.118884 
Q 443.989983 115.917301 443.989983 105.311834 
Q 443.989983 94.66832 447.026859 88.476248 
Q 450.063734 82.274666 455.263436 82.274666 
Q 457.007075 82.274666 458.608013 83.111689 
Q 460.20895 83.939201 461.689482 85.575201 
L 461.689482 94.753924 
Q 460.195572 92.585273 458.746255 91.57704 
Q 457.296939 90.568807 455.696001 90.568807 
Q 452.824125 90.568807 451.178593 94.49711 
Q 449.537521 98.415902 449.537521 105.311834 
Q 449.537521 112.179231 451.178593 116.107534 
Q 452.824125 120.026325 455.696001 120.026325 
Q 457.296939 120.026325 458.746255 119.018093 
Q 460.195572 118.000348 461.689482 115.831697 
L 461.689482 125.019931 
z
" clip-path="url(#p716e30dd34)" style="fill: #0000ff"/>
   </g>
   <g id="patch_80">
    <path d="M 474.881494 173.924362 
L 468.074551 173.924362 
L 466.99977 175.331158 
L 462.621035 175.331158 
L 468.874303 167.608675 
L 474.067266 167.608675 
L 480.320534 175.331158 
L 475.945418 175.331158 
L 474.881494 173.924362 
z
M 469.160188 172.491085 
L 473.785 172.491085 
L 471.476213 169.419305 
L 469.160188 172.491085 
z
" clip-path="url(#p716e30dd34)" style="fill: #008000"/>
   </g>
   <g id="patch_81">
    <path d="M 480.320534 167.04585 
Q 478.840002 167.324829 477.239064 167.465941 
Q 475.638127 167.608675 473.894488 167.608675 
Q 468.694786 167.608675 465.657911 166.551147 
Q 462.621035 165.493619 462.621035 163.685116 
Q 462.621035 161.870125 465.657911 160.814219 
Q 468.694786 159.756691 473.894488 159.756691 
Q 475.638127 159.756691 477.239064 159.899425 
Q 478.840002 160.040537 480.320534 160.319516 
L 480.320534 161.884723 
Q 478.826623 161.514913 477.377307 161.342983 
Q 475.92799 161.171054 474.327053 161.171054 
Q 471.455177 161.171054 469.809645 161.84093 
Q 468.168573 162.509184 468.168573 163.685116 
Q 468.168573 164.856182 469.809645 165.526058 
Q 471.455177 166.194312 474.327053 166.194312 
Q 475.92799 166.194312 477.377307 166.022383 
Q 478.826623 165.848832 480.320534 165.479021 
L 480.320534 167.04585 
z
" clip-path="url(#p716e30dd34)" style="fill: #0000ff"/>
   </g>
   <g id="patch_82">
    <path d="M 462.621035 147.698499 
L 480.320534 147.698499 
L 480.320534 150.050183 
L 473.952831 150.050183 
L 473.952831 159.756691 
L 469.001087 159.756691 
L 469.001087 150.050183 
L 462.621035 150.050183 
L 462.621035 147.698499 
z
" clip-path="url(#p716e30dd34)" style="fill: #ff0000"/>
   </g>
   <g id="patch_83">
    <path d="M 480.320534 144.960465 
Q 478.535511 146.329482 476.615619 147.017116 
Q 474.695727 147.698499 472.6489 147.698499 
Q 468.023706 147.698499 465.322371 143.622703 
Q 462.621035 139.546908 462.621035 132.576797 
Q 462.621035 125.52542 465.369971 121.480881 
Q 468.122874 117.436341 472.910704 117.436341 
Q 474.755228 117.436341 476.44505 117.986448 
Q 478.138839 118.530305 479.638259 119.605515 
L 479.638259 125.637942 
Q 478.091238 124.256423 476.560085 123.57504 
Q 475.028931 122.887405 473.489844 122.887405 
Q 470.64174 122.887405 469.098687 125.400396 
Q 467.555633 127.907135 467.555633 132.576797 
Q 467.555633 137.2027 469.043153 139.728193 
Q 470.530672 142.247435 473.267708 142.247435 
Q 474.013451 142.247435 474.652093 142.103657 
Q 475.290735 141.953628 475.798475 141.641067 
L 475.798475 135.977461 
L 472.882937 135.977461 
L 472.882937 130.932726 
L 480.320534 130.932726 
L 480.320534 144.960465 
z
" clip-path="url(#p716e30dd34)" style="fill: #ffa600"/>
   </g>
   <g id="patch_84">
    <path d="M 481.252087 174.634461 
L 498.951586 174.634461 
L 498.951586 174.770337 
L 492.583882 174.770337 
L 492.583882 175.331158 
L 487.632139 175.331158 
L 487.632139 174.770337 
L 481.252087 174.770337 
L 481.252087 174.634461 
z
" clip-path="url(#p716e30dd34)" style="fill: #ff0000"/>
   </g>
   <g id="patch_85">
    <path d="M 493.512545 174.063124 
L 486.705603 174.063124 
L 485.630822 174.634461 
L 481.252087 174.634461 
L 487.505355 171.498157 
L 492.698318 171.498157 
L 498.951586 174.634461 
L 494.57647 174.634461 
L 493.512545 174.063124 
z
M 487.791239 173.481033 
L 492.416052 173.481033 
L 490.107265 172.233501 
L 487.791239 173.481033 
z
" clip-path="url(#p716e30dd34)" style="fill: #008000"/>
   </g>
   <g id="patch_86">
    <path d="M 498.951586 170.813261 
Q 497.471053 171.152748 495.870116 171.324466 
Q 494.269179 171.498157 492.52554 171.498157 
Q 487.325838 171.498157 484.288962 170.211263 
Q 481.252087 168.92437 481.252087 166.723624 
Q 481.252087 164.514983 484.288962 163.230063 
Q 487.325838 161.943169 492.52554 161.943169 
Q 494.269179 161.943169 495.870116 162.116861 
Q 497.471053 162.288578 498.951586 162.628065 
L 498.951586 164.532747 
Q 497.457675 164.082729 496.008359 163.87351 
Q 494.559042 163.664291 492.958105 163.664291 
Q 490.086228 163.664291 488.440697 164.479455 
Q 486.799624 165.292646 486.799624 166.723624 
Q 486.799624 168.148681 488.440697 168.963845 
Q 490.086228 169.777036 492.958105 169.777036 
Q 494.559042 169.777036 496.008359 169.567817 
Q 497.457675 169.356624 498.951586 168.906606 
L 498.951586 170.813261 
z
" clip-path="url(#p716e30dd34)" style="fill: #0000ff"/>
   </g>
   <g id="patch_87">
    <path d="M 498.951586 158.958176 
Q 497.166563 160.450673 495.246671 161.200329 
Q 493.326779 161.943169 491.279952 161.943169 
Q 486.654758 161.943169 483.953422 157.499754 
Q 481.252087 153.056339 481.252087 145.457555 
Q 481.252087 137.770174 484.001023 133.360834 
Q 486.753926 128.951494 491.541755 128.951494 
Q 493.38628 128.951494 495.076102 129.551219 
Q 496.769891 130.144129 498.26931 131.316318 
L 498.26931 137.892845 
Q 496.72229 136.386718 495.191137 135.643877 
Q 493.659983 134.894221 492.120896 134.894221 
Q 489.272792 134.894221 487.729739 137.633873 
Q 486.186685 140.366709 486.186685 145.457555 
Q 486.186685 150.500694 487.674205 153.253976 
Q 489.161724 156.000443 491.89876 156.000443 
Q 492.644503 156.000443 493.283145 155.843696 
Q 493.921787 155.680135 494.429527 155.339382 
L 494.429527 149.164944 
L 491.513988 149.164944 
L 491.513988 143.665195 
L 498.951586 143.665195 
L 498.951586 158.958176 
z
" clip-path="url(#p716e30dd34)" style="fill: #ffa600"/>
   </g>
   <g id="patch_88">
    <path d="M 512.143597 174.531827 
L 505.336654 174.531827 
L 504.261874 175.331158 
L 499.883139 175.331158 
L 506.136407 170.943301 
L 511.32937 170.943301 
L 517.582638 175.331158 
L 513.207521 175.331158 
L 512.143597 174.531827 
z
M 506.422291 173.71745 
L 511.047104 173.71745 
L 508.738316 171.972087 
L 506.422291 173.71745 
z
" clip-path="url(#p716e30dd34)" style="fill: #008000"/>
   </g>
   <g id="patch_89">
    <path d="M 517.582638 169.395195 
Q 515.797614 170.169248 513.877722 170.558042 
Q 511.957831 170.943301 509.911004 170.943301 
Q 505.28581 170.943301 502.584474 168.638815 
Q 499.883139 166.334329 499.883139 162.393374 
Q 499.883139 158.406471 502.632075 156.119657 
Q 505.384978 153.832843 510.172807 153.832843 
Q 512.017331 153.832843 513.707153 154.143878 
Q 515.400942 154.451379 516.900362 155.059311 
L 516.900362 158.470092 
Q 515.353342 157.68897 513.822188 157.303711 
Q 512.291035 156.914917 510.751948 156.914917 
Q 507.903844 156.914917 506.36079 158.335782 
Q 504.817737 159.753111 504.817737 162.393374 
Q 504.817737 165.008895 506.305256 166.436829 
Q 507.792776 167.861228 510.529812 167.861228 
Q 511.275555 167.861228 511.914197 167.779934 
Q 512.552838 167.695107 513.060578 167.518382 
L 513.060578 164.316136 
L 510.14504 164.316136 
L 510.14504 161.463804 
L 517.582638 161.463804 
L 517.582638 169.395195 
z
" clip-path="url(#p716e30dd34)" style="fill: #ffa600"/>
   </g>
   <g id="patch_90">
    <path d="M 530.774649 175.079328 
L 523.967706 175.079328 
L 522.892926 175.331158 
L 518.51419 175.331158 
L 524.767458 173.948756 
L 529.960421 173.948756 
L 536.213689 175.331158 
L 531.838573 175.331158 
L 530.774649 175.079328 
z
M 525.053343 174.822757 
L 529.678156 174.822757 
L 527.369368 174.272877 
L 525.053343 174.822757 
z
" clip-path="url(#p716e30dd34)" style="fill: #008000"/>
   </g>
   <g id="patch_91">
    <path d="M 536.213689 170.459497 
Q 534.428666 172.204127 532.508774 173.080425 
Q 530.588882 173.948756 528.542055 173.948756 
Q 523.916861 173.948756 521.215526 168.754699 
Q 518.51419 163.560642 518.51419 154.678167 
Q 518.51419 145.69213 521.263126 140.537904 
Q 524.016029 135.383679 528.803859 135.383679 
Q 530.648383 135.383679 532.338205 136.084717 
Q 534.031994 136.777789 535.531414 138.148001 
L 535.531414 145.835524 
Q 533.984394 144.074962 532.45324 143.20663 
Q 530.922087 142.330332 529.383 142.330332 
Q 526.534896 142.330332 524.991842 145.532803 
Q 523.448788 148.727307 523.448788 154.678167 
Q 523.448788 160.573263 524.936308 163.791666 
Q 526.423828 167.002103 529.160864 167.002103 
Q 529.906607 167.002103 530.545248 166.818877 
Q 531.18389 166.627685 531.69163 166.229368 
L 531.69163 159.011859 
L 528.776092 159.011859 
L 528.776092 152.583018 
L 536.213689 152.583018 
L 536.213689 170.459497 
z
" clip-path="url(#p716e30dd34)" style="fill: #ffa600"/>
   </g>
   <g id="patch_92">
    <path d="M 549.405701 174.780287 
L 542.598758 174.780287 
L 541.523977 175.331158 
L 537.145242 175.331158 
L 543.39851 172.3072 
L 548.591473 172.3072 
L 554.844741 175.331158 
L 550.469625 175.331158 
L 549.405701 174.780287 
z
M 543.684395 174.219047 
L 548.309208 174.219047 
L 546.00042 173.016203 
L 543.684395 174.219047 
z
" clip-path="url(#p716e30dd34)" style="fill: #008000"/>
   </g>
   <g id="patch_93">
    <path d="M 554.844741 170.366564 
Q 553.059718 171.336882 551.139826 171.824256 
Q 549.219934 172.3072 547.173107 172.3072 
Q 542.547913 172.3072 539.846578 169.4184 
Q 537.145242 166.5296 537.145242 161.589398 
Q 537.145242 156.591597 539.894178 153.724951 
Q 542.647081 150.858305 547.434911 150.858305 
Q 549.279435 150.858305 550.969257 151.248204 
Q 552.663046 151.633673 554.162466 152.395749 
L 554.162466 156.67135 
Q 552.615445 155.692171 551.084292 155.209227 
Q 549.553138 154.721853 548.014052 154.721853 
Q 545.165947 154.721853 543.622894 156.502984 
Q 542.07984 158.279684 542.07984 161.589398 
Q 542.07984 164.868097 543.56736 166.65809 
Q 545.054879 168.443651 547.791915 168.443651 
Q 548.537658 168.443651 549.1763 168.341746 
Q 549.814942 168.23541 550.322682 168.013876 
L 550.322682 163.999685 
L 547.407144 163.999685 
L 547.407144 160.424131 
L 554.844741 160.424131 
L 554.844741 170.366564 
z
" clip-path="url(#p716e30dd34)" style="fill: #ffa600"/>
   </g>
   <g id="patch_94">
    <path d="M 568.036752 174.994353 
L 561.22981 174.994353 
L 560.155029 175.331158 
L 555.776294 175.331158 
L 562.029562 173.482297 
L 567.222525 173.482297 
L 573.475793 175.331158 
L 569.100677 175.331158 
L 568.036752 174.994353 
z
M 562.315446 174.651208 
L 566.940259 174.651208 
L 564.631472 173.915785 
L 562.315446 174.651208 
z
" clip-path="url(#p716e30dd34)" style="fill: #008000"/>
   </g>
   <g id="patch_95">
    <path d="M 573.475793 171.905534 
Q 571.69077 172.693915 569.770878 173.089906 
Q 567.850986 173.482297 565.804159 173.482297 
Q 561.178965 173.482297 558.477629 171.135152 
Q 555.776294 168.788008 555.776294 164.774102 
Q 555.776294 160.713398 558.52523 158.384253 
Q 561.278133 156.055108 566.065962 156.055108 
Q 567.910487 156.055108 569.600309 156.371901 
Q 571.294098 156.685093 572.793517 157.304279 
L 572.793517 160.778197 
Q 571.246497 159.982615 569.715344 159.590225 
Q 568.18419 159.194234 566.645103 159.194234 
Q 563.796999 159.194234 562.253946 160.6414 
Q 560.710892 162.084966 560.710892 164.774102 
Q 560.710892 167.438039 562.198412 168.892405 
Q 563.685931 170.343171 566.422967 170.343171 
Q 567.16871 170.343171 567.807352 170.260373 
Q 568.445994 170.173975 568.953734 169.993979 
L 568.953734 166.732456 
L 566.038195 166.732456 
L 566.038195 163.827325 
L 573.475793 163.827325 
L 573.475793 171.905534 
z
" clip-path="url(#p716e30dd34)" style="fill: #ffa600"/>
   </g>
   <g id="patch_96">
    <path d="M 574.407346 172.280898 
L 592.106845 172.280898 
L 592.106845 172.875784 
L 585.739141 172.875784 
L 585.739141 175.331158 
L 580.787398 175.331158 
L 580.787398 172.875784 
L 574.407346 172.875784 
L 574.407346 172.280898 
z
" clip-path="url(#p716e30dd34)" style="fill: #ff0000"/>
   </g>
   <g id="patch_97">
    <path d="M 586.667804 171.356883 
L 579.860861 171.356883 
L 578.786081 172.280898 
L 574.407346 172.280898 
L 580.660614 167.208597 
L 585.853577 167.208597 
L 592.106845 172.280898 
L 587.731728 172.280898 
L 586.667804 171.356883 
z
M 580.946498 170.415474 
L 585.571311 170.415474 
L 583.262523 168.397859 
L 580.946498 170.415474 
z
" clip-path="url(#p716e30dd34)" style="fill: #008000"/>
   </g>
   <g id="patch_98">
    <path d="M 592.106845 164.99906 
Q 590.321821 166.103828 588.401929 166.658735 
Q 586.482038 167.208597 584.435211 167.208597 
Q 579.810017 167.208597 577.108681 163.919514 
Q 574.407346 160.630431 574.407346 155.005696 
Q 574.407346 149.315381 577.156282 146.051521 
Q 579.909185 142.787662 584.697014 142.787662 
Q 586.541538 142.787662 588.23136 143.231587 
Q 589.925149 143.670468 591.424569 144.53814 
L 591.424569 149.406184 
Q 589.877549 148.291326 588.346395 147.741464 
Q 586.815242 147.186558 585.276155 147.186558 
Q 582.428051 147.186558 580.884997 149.214489 
Q 579.341944 151.237376 579.341944 155.005696 
Q 579.341944 158.738704 580.829463 160.776725 
Q 582.316983 162.809701 585.054019 162.809701 
Q 585.799762 162.809701 586.438404 162.693675 
Q 587.077045 162.572604 587.584785 162.320374 
L 587.584785 157.749962 
L 584.669247 157.749962 
L 584.669247 153.678965 
L 592.106845 153.678965 
L 592.106845 164.99906 
z
" clip-path="url(#p716e30dd34)" style="fill: #ffa600"/>
   </g>
   <g id="patch_99">
    <path d="M 605.298856 174.36354 
L 598.491913 174.36354 
L 597.417133 175.331158 
L 593.038397 175.331158 
L 599.291665 170.019501 
L 604.484628 170.019501 
L 610.737896 175.331158 
L 606.36278 175.331158 
L 605.298856 174.36354 
z
M 599.57755 173.377707 
L 604.202363 173.377707 
L 601.893575 171.264883 
L 599.57755 173.377707 
z
" clip-path="url(#p716e30dd34)" style="fill: #008000"/>
   </g>
   <g id="patch_100">
    <path d="M 610.737896 168.640876 
Q 608.952873 169.330189 607.032981 169.676419 
Q 605.113089 170.019501 603.066262 170.019501 
Q 598.441068 170.019501 595.739733 167.967301 
Q 593.038397 165.9151 593.038397 162.405586 
Q 593.038397 158.855153 595.787333 156.818691 
Q 598.540236 154.782228 603.328066 154.782228 
Q 605.17259 154.782228 606.862412 155.059212 
Q 608.556201 155.333048 610.055621 155.874427 
L 610.055621 158.911809 
Q 608.508601 158.216201 606.977447 157.873119 
Q 605.446294 157.526889 603.907207 157.526889 
Q 601.059103 157.526889 599.516049 158.792202 
Q 597.972995 160.054369 597.972995 162.405586 
Q 597.972995 164.73477 599.460515 166.006379 
Q 600.948035 167.274841 603.685071 167.274841 
Q 604.430814 167.274841 605.069455 167.202447 
Q 605.708097 167.126906 606.215837 166.969529 
L 606.215837 164.117851 
L 603.300299 164.117851 
L 603.300299 161.577781 
L 610.737896 161.577781 
L 610.737896 168.640876 
z
" clip-path="url(#p716e30dd34)" style="fill: #ffa600"/>
   </g>
   <g id="patch_101">
    <path d="M 611.669449 169.859033 
L 629.368948 169.859033 
L 629.368948 170.92625 
L 623.001245 170.92625 
L 623.001245 175.331158 
L 618.049501 175.331158 
L 618.049501 170.92625 
L 611.669449 170.92625 
L 611.669449 169.859033 
z
" clip-path="url(#p716e30dd34)" style="fill: #ff0000"/>
   </g>
   <g id="patch_102">
    <path d="M 623.929908 168.486489 
L 617.122965 168.486489 
L 616.048184 169.859033 
L 611.669449 169.859033 
L 617.922717 162.324572 
L 623.11568 162.324572 
L 629.368948 169.859033 
L 624.993832 169.859033 
L 623.929908 168.486489 
z
M 618.208602 167.088108 
L 622.833415 167.088108 
L 620.524627 164.091117 
L 618.208602 167.088108 
z
" clip-path="url(#p716e30dd34)" style="fill: #008000"/>
   </g>
   <g id="patch_103">
    <path d="M 629.368948 159.750085 
Q 627.583925 161.037329 625.664033 161.683889 
Q 623.744141 162.324572 621.697314 162.324572 
Q 617.07212 162.324572 614.370785 158.492231 
Q 611.669449 154.65989 611.669449 148.106117 
Q 611.669449 141.475933 614.418385 137.672981 
Q 617.171288 133.870029 621.959118 133.870029 
Q 623.803642 133.870029 625.493464 134.387278 
Q 627.187253 134.898648 628.686673 135.909634 
L 628.686673 141.581733 
Q 627.139652 140.282734 625.608499 139.642052 
Q 624.077345 138.995491 622.538259 138.995491 
Q 619.690154 138.995491 618.147101 141.358376 
Q 616.604047 143.715383 616.604047 148.106117 
Q 616.604047 152.455707 618.091567 154.830347 
Q 619.579086 157.19911 622.316122 157.19911 
Q 623.061865 157.19911 623.700507 157.06392 
Q 624.339149 156.922852 624.846889 156.628961 
L 624.846889 151.303653 
L 621.931351 151.303653 
L 621.931351 146.56025 
L 629.368948 146.56025 
L 629.368948 159.750085 
z
" clip-path="url(#p716e30dd34)" style="fill: #ffa600"/>
   </g>
   <g id="patch_104">
    <path d="M 642.560959 175.138914 
L 635.754017 175.138914 
L 634.679236 175.331158 
L 630.300501 175.331158 
L 636.553769 174.27585 
L 641.746732 174.27585 
L 648 175.331158 
L 643.624884 175.331158 
L 642.560959 175.138914 
z
M 636.839653 174.943051 
L 641.464466 174.943051 
L 639.155679 174.52328 
L 636.839653 174.943051 
z
" clip-path="url(#p716e30dd34)" style="fill: #008000"/>
   </g>
   <g id="patch_105">
    <path d="M 630.300501 168.475524 
L 648 168.475524 
L 648 169.606749 
L 641.632296 169.606749 
L 641.632296 174.27585 
L 636.680553 174.27585 
L 636.680553 169.606749 
L 630.300501 169.606749 
L 630.300501 168.475524 
z
" clip-path="url(#p716e30dd34)" style="fill: #ff0000"/>
   </g>
   <g id="patch_106">
    <path d="M 648 167.594382 
Q 646.519467 168.031144 644.91853 168.252064 
Q 643.317593 168.475524 641.573954 168.475524 
Q 636.374252 168.475524 633.337376 166.819891 
Q 630.300501 165.164259 630.300501 162.332924 
Q 630.300501 159.491433 633.337376 157.83834 
Q 636.374252 156.182707 641.573954 156.182707 
Q 643.317593 156.182707 644.91853 156.406167 
Q 646.519467 156.627087 648 157.063849 
L 648 159.514286 
Q 646.506089 158.935323 645.056773 158.666156 
Q 643.607456 158.396989 642.006519 158.396989 
Q 639.134642 158.396989 637.489111 159.445725 
Q 635.848038 160.491922 635.848038 162.332924 
Q 635.848038 164.166309 637.489111 165.215045 
Q 639.134642 166.261242 642.006519 166.261242 
Q 643.607456 166.261242 645.056773 165.992075 
Q 646.506089 165.720369 648 165.141405 
L 648 167.594382 
z
" clip-path="url(#p716e30dd34)" style="fill: #0000ff"/>
   </g>
   <g id="patch_107">
    <path d="M 648 154.477116 
Q 646.214977 155.329912 644.295085 155.758256 
Q 642.375193 156.182707 640.328366 156.182707 
Q 635.703172 156.182707 633.001836 153.643791 
Q 630.300501 151.104875 630.300501 146.763017 
Q 630.300501 142.370536 633.049437 139.85109 
Q 635.80234 137.331644 640.590169 137.331644 
Q 642.434694 137.331644 644.124516 137.67432 
Q 645.818305 138.013102 647.317724 138.682877 
L 647.317724 142.440629 
Q 645.770704 141.580045 644.239551 141.155594 
Q 642.708397 140.72725 641.16931 140.72725 
Q 638.321206 140.72725 636.778153 142.292655 
Q 635.235099 143.854166 635.235099 146.763017 
Q 635.235099 149.644609 636.722619 151.217802 
Q 638.210138 152.787101 640.947174 152.787101 
Q 641.692917 152.787101 642.331559 152.697538 
Q 642.970201 152.604081 643.477941 152.409379 
L 643.477941 148.881376 
L 640.562402 148.881376 
L 640.562402 145.738883 
L 648 145.738883 
L 648 154.477116 
z
" clip-path="url(#p716e30dd34)" style="fill: #ffa600"/>
   </g>
   <g id="patch_108">
    <path d="M 90 175.457424 
L 107.699499 175.457424 
L 107.699499 175.432799 
L 101.331796 175.432799 
L 101.331796 175.331158 
L 96.380052 175.331158 
L 96.380052 175.432799 
L 90 175.432799 
L 90 175.457424 
z
" clip-path="url(#p716e30dd34)" style="fill: #ff0000"/>
   </g>
   <g id="patch_109">
    <path d="M 200.854758 175.395354 
Q 199.374225 175.363534 197.773288 175.347439 
Q 196.172351 175.331158 194.428711 175.331158 
Q 189.22901 175.331158 186.192134 175.45178 
Q 183.155259 175.572401 183.155259 175.778678 
Q 183.155259 175.985695 186.192134 176.106132 
Q 189.22901 176.226753 194.428711 176.226753 
Q 196.172351 176.226753 197.773288 176.210473 
Q 199.374225 176.194378 200.854758 176.162557 
L 200.854758 175.98403 
Q 199.360847 176.026211 197.911531 176.045821 
Q 196.462214 176.065431 194.861277 176.065431 
Q 191.9894 176.065431 190.343869 175.989026 
Q 188.702796 175.912805 188.702796 175.778678 
Q 188.702796 175.645107 190.343869 175.568701 
Q 191.9894 175.49248 194.861277 175.49248 
Q 196.462214 175.49248 197.911531 175.51209 
Q 199.360847 175.531886 200.854758 175.574066 
L 200.854758 175.395354 
z
" clip-path="url(#p716e30dd34)" style="fill: #0000ff"/>
   </g>
   <g id="patch_110">
    <path d="M 313.572621 176.952401 
L 331.27212 176.952401 
L 331.27212 176.636214 
L 324.904417 176.636214 
L 324.904417 175.331158 
L 319.952673 175.331158 
L 319.952673 176.636214 
L 313.572621 176.636214 
L 313.572621 176.952401 
z
" clip-path="url(#p716e30dd34)" style="fill: #ff0000"/>
   </g>
   <g id="patch_111">
    <path d="M 517.582638 176.619364 
Q 516.102105 176.573459 514.501168 176.550239 
Q 512.900231 176.526753 511.156591 176.526753 
Q 505.95689 176.526753 502.920014 176.700765 
Q 499.883139 176.874777 499.883139 177.172359 
Q 499.883139 177.471009 502.920014 177.644754 
Q 505.95689 177.818766 511.156591 177.818766 
Q 512.900231 177.818766 514.501168 177.795279 
Q 516.102105 177.77206 517.582638 177.726155 
L 517.582638 177.468607 
Q 516.088727 177.529457 514.63941 177.557748 
Q 513.190094 177.586038 511.589157 177.586038 
Q 508.71728 177.586038 507.071748 177.475813 
Q 505.430676 177.365854 505.430676 177.172359 
Q 505.430676 176.979665 507.071748 176.869439 
Q 508.71728 176.759481 511.589157 176.759481 
Q 513.190094 176.759481 514.63941 176.787771 
Q 516.088727 176.816328 517.582638 176.877179 
L 517.582638 176.619364 
z
" clip-path="url(#p716e30dd34)" style="fill: #0000ff"/>
   </g>
   <g id="patch_112">
    <path d="M 499.883139 176.526753 
L 517.582638 176.526753 
L 517.582638 176.293579 
L 511.214934 176.293579 
L 511.214934 175.331158 
L 506.263191 175.331158 
L 506.263191 176.293579 
L 499.883139 176.293579 
L 499.883139 176.526753 
z
" clip-path="url(#p716e30dd34)" style="fill: #ff0000"/>
   </g>
   <g id="patch_113">
    <path d="M 536.213689 177.854826 
Q 534.733157 176.859194 533.13222 176.355589 
Q 531.531282 175.846195 529.787643 175.846195 
Q 524.587941 175.846195 521.551066 179.620337 
Q 518.51419 183.39448 518.51419 189.848726 
Q 518.51419 196.326126 521.551066 200.09448 
Q 524.587941 203.868622 529.787643 203.868622 
Q 531.531282 203.868622 533.13222 203.359229 
Q 534.733157 202.855624 536.213689 201.859991 
L 536.213689 196.274029 
Q 534.719779 197.593821 533.270462 198.207409 
Q 531.821146 198.820996 530.220208 198.820996 
Q 527.348332 198.820996 525.7028 196.43032 
Q 524.061728 194.045433 524.061728 189.848726 
Q 524.061728 185.669384 525.7028 183.278708 
Q 527.348332 180.893821 530.220208 180.893821 
Q 531.821146 180.893821 533.270462 181.507409 
Q 534.719779 182.126785 536.213689 183.446577 
L 536.213689 177.854826 
z
" clip-path="url(#p716e30dd34)" style="fill: #0000ff"/>
   </g>
   <g id="patch_114">
    <path d="M 518.51419 175.846195 
L 536.213689 175.846195 
L 536.213689 175.745749 
L 529.845986 175.745749 
L 529.845986 175.331158 
L 524.894242 175.331158 
L 524.894242 175.745749 
L 518.51419 175.745749 
L 518.51419 175.846195 
z
" clip-path="url(#p716e30dd34)" style="fill: #ff0000"/>
   </g>
   <g id="patch_115">
    <path d="M 554.844741 182.180345 
Q 553.364209 181.026113 551.763271 180.442287 
Q 550.162334 179.85175 548.418695 179.85175 
Q 543.218993 179.85175 540.182118 184.227094 
Q 537.145242 188.602438 537.145242 196.084814 
Q 537.145242 203.594032 540.182118 207.962665 
Q 543.218993 212.33801 548.418695 212.33801 
Q 550.162334 212.33801 551.763271 211.747472 
Q 553.364209 211.163646 554.844741 210.009414 
L 554.844741 203.533636 
Q 553.35083 205.063664 551.901514 205.774993 
Q 550.452197 206.486322 548.85126 206.486322 
Q 545.979384 206.486322 544.333852 203.714823 
Q 542.69278 200.950035 542.69278 196.084814 
Q 542.69278 191.239724 544.333852 188.468225 
Q 545.979384 185.703437 548.85126 185.703437 
Q 550.452197 185.703437 551.901514 186.414766 
Q 553.35083 187.132806 554.844741 188.662834 
L 554.844741 182.180345 
z
" clip-path="url(#p716e30dd34)" style="fill: #0000ff"/>
   </g>
   <g id="patch_116">
    <path d="M 537.145242 179.85175 
L 554.844741 179.85175 
L 554.844741 178.970108 
L 548.477038 178.970108 
L 548.477038 175.331158 
L 543.525294 175.331158 
L 543.525294 178.970108 
L 537.145242 178.970108 
L 537.145242 179.85175 
z
" clip-path="url(#p716e30dd34)" style="fill: #ff0000"/>
   </g>
   <g id="patch_117">
    <path d="M 573.475793 182.36546 
Q 571.99526 181.249772 570.394323 180.685442 
Q 568.793386 180.114625 567.049747 180.114625 
Q 561.850045 180.114625 558.813169 184.34386 
Q 555.776294 188.573096 555.776294 195.805608 
Q 555.776294 203.064066 558.813169 207.286815 
Q 561.850045 211.51605 567.049747 211.51605 
Q 568.793386 211.51605 570.394323 210.945233 
Q 571.99526 210.380903 573.475793 209.265215 
L 573.475793 203.005687 
Q 571.981882 204.484622 570.532566 205.172197 
Q 569.083249 205.859772 567.482312 205.859772 
Q 564.610435 205.859772 562.964904 203.180824 
Q 561.323831 200.508362 561.323831 195.805608 
Q 561.323831 191.122313 562.964904 188.443365 
Q 564.610435 185.770903 567.482312 185.770903 
Q 569.083249 185.770903 570.532566 186.458478 
Q 571.981882 187.15254 573.475793 188.631475 
L 573.475793 182.36546 
z
" clip-path="url(#p716e30dd34)" style="fill: #0000ff"/>
   </g>
   <g id="patch_118">
    <path d="M 555.776294 180.114625 
L 573.475793 180.114625 
L 573.475793 179.181715 
L 567.108089 179.181715 
L 567.108089 175.331158 
L 562.156346 175.331158 
L 562.156346 179.181715 
L 555.776294 179.181715 
L 555.776294 180.114625 
z
" clip-path="url(#p716e30dd34)" style="fill: #ff0000"/>
   </g>
   <g id="patch_119">
    <path d="M 592.106845 177.609453 
Q 590.626312 176.480154 589.025375 175.908939 
Q 587.424438 175.331158 585.680798 175.331158 
Q 580.481097 175.331158 577.444221 179.611988 
Q 574.407346 183.892818 574.407346 191.213562 
Q 574.407346 198.560569 577.444221 202.834832 
Q 580.481097 207.115662 585.680798 207.115662 
Q 587.424438 207.115662 589.025375 206.537881 
Q 590.626312 205.966666 592.106845 204.837368 
L 592.106845 198.501477 
Q 590.612934 199.998455 589.163617 200.694418 
Q 587.714301 201.390381 586.113364 201.390381 
Q 583.241487 201.390381 581.595955 198.678751 
Q 579.954883 195.973687 579.954883 191.213562 
Q 579.954883 186.473134 581.595955 183.761504 
Q 583.241487 181.05644 586.113364 181.05644 
Q 587.714301 181.05644 589.163617 181.752403 
Q 590.612934 182.454932 592.106845 183.951909 
L 592.106845 177.609453 
z
" clip-path="url(#p716e30dd34)" style="fill: #0000ff"/>
   </g>
   <g id="patch_120">
    <path d="M 610.737896 176.125755 
Q 609.257364 175.745859 607.656427 175.553702 
Q 606.055489 175.359337 604.31185 175.359337 
Q 599.112148 175.359337 596.075273 176.799408 
Q 593.038397 178.239479 593.038397 180.702177 
Q 593.038397 183.17371 596.075273 184.611572 
Q 599.112148 186.051643 604.31185 186.051643 
Q 606.055489 186.051643 607.656427 185.857278 
Q 609.257364 185.665121 610.737896 185.285225 
L 610.737896 183.153832 
Q 609.243986 183.657415 607.794669 183.891537 
Q 606.345353 184.125659 604.744415 184.125659 
Q 601.872539 184.125659 600.227007 183.213466 
Q 598.585935 182.303483 598.585935 180.702177 
Q 598.585935 179.107497 600.227007 178.195305 
Q 601.872539 177.285321 604.744415 177.285321 
Q 606.345353 177.285321 607.794669 177.519443 
Q 609.243986 177.755774 610.737896 178.259357 
L 610.737896 176.125755 
z
" clip-path="url(#p716e30dd34)" style="fill: #0000ff"/>
   </g>
   <g id="patch_121">
    <path d="M 593.038397 175.359337 
L 610.737896 175.359337 
L 610.737896 175.353841 
L 604.370193 175.353841 
L 604.370193 175.331158 
L 599.418449 175.331158 
L 599.418449 175.353841 
L 593.038397 175.353841 
L 593.038397 175.359337 
z
" clip-path="url(#p716e30dd34)" style="fill: #ff0000"/>
   </g>
   <g id="patch_122">
    <path d="M 629.368948 176.53412 
Q 627.888416 175.937839 626.287478 175.636232 
Q 624.686541 175.331158 622.942902 175.331158 
Q 617.7432 175.331158 614.706325 177.591478 
Q 611.669449 179.851797 611.669449 183.71722 
Q 611.669449 187.59651 614.706325 189.853362 
Q 617.7432 192.113681 622.942902 192.113681 
Q 624.686541 192.113681 626.287478 191.808607 
Q 627.888416 191.507 629.368948 190.91072 
L 629.368948 187.565309 
Q 627.875037 188.355727 626.425721 188.723203 
Q 624.976404 189.090678 623.375467 189.090678 
Q 620.503591 189.090678 618.858059 187.658911 
Q 617.216987 186.230611 617.216987 183.71722 
Q 617.216987 181.214228 618.858059 179.782462 
Q 620.503591 178.354162 623.375467 178.354162 
Q 624.976404 178.354162 626.425721 178.721637 
Q 627.875037 179.092579 629.368948 179.882997 
L 629.368948 176.53412 
z
" clip-path="url(#p716e30dd34)" style="fill: #0000ff"/>
   </g>
   <g id="matplotlib.axis_1">
    <g id="xtick_1">
     <g id="line2d_2">
      <defs>
       <path id="m3245cd168a" d="M 0 0 
L 0 3.5 
" style="stroke: #000000; stroke-width: 0.8"/>
      </defs>
      <g>
       <use xlink:href="#m3245cd168a" x="98.84975" y="192.24" style="stroke: #000000; stroke-width: 0.8"/>
      </g>
     </g>
     <g id="text_1">
      <!-- 0 -->
      <g transform="translate(95.6685 206.838437) scale(0.1 -0.1)">
       <defs>
        <path id="DejaVuSans-30" d="M 2034 4250 
Q 1547 4250 1301 3770 
Q 1056 3291 1056 2328 
Q 1056 1369 1301 889 
Q 1547 409 2034 409 
Q 2525 409 2770 889 
Q 3016 1369 3016 2328 
Q 3016 3291 2770 3770 
Q 2525 4250 2034 4250 
z
M 2034 4750 
Q 2819 4750 3233 4129 
Q 3647 3509 3647 2328 
Q 3647 1150 3233 529 
Q 2819 -91 2034 -91 
Q 1250 -91 836 529 
Q 422 1150 422 2328 
Q 422 3509 836 4129 
Q 1250 4750 2034 4750 
z
" transform="scale(0.015625)"/>
       </defs>
       <use xlink:href="#DejaVuSans-30"/>
      </g>
     </g>
    </g>
    <g id="xtick_2">
     <g id="line2d_3">
      <g>
       <use xlink:href="#m3245cd168a" x="192.005008" y="192.24" style="stroke: #000000; stroke-width: 0.8"/>
      </g>
     </g>
     <g id="text_2">
      <!-- 5 -->
      <g transform="translate(188.823758 206.838437) scale(0.1 -0.1)">
       <defs>
        <path id="DejaVuSans-35" d="M 691 4666 
L 3169 4666 
L 3169 4134 
L 1269 4134 
L 1269 2991 
Q 1406 3038 1543 3061 
Q 1681 3084 1819 3084 
Q 2600 3084 3056 2656 
Q 3513 2228 3513 1497 
Q 3513 744 3044 326 
Q 2575 -91 1722 -91 
Q 1428 -91 1123 -41 
Q 819 9 494 109 
L 494 744 
Q 775 591 1075 516 
Q 1375 441 1709 441 
Q 2250 441 2565 725 
Q 2881 1009 2881 1497 
Q 2881 1984 2565 2268 
Q 2250 2553 1709 2553 
Q 1456 2553 1204 2497 
Q 953 2441 691 2322 
L 691 4666 
z
" transform="scale(0.015625)"/>
       </defs>
       <use xlink:href="#DejaVuSans-35"/>
      </g>
     </g>
    </g>
    <g id="xtick_3">
     <g id="line2d_4">
      <g>
       <use xlink:href="#m3245cd168a" x="285.160267" y="192.24" style="stroke: #000000; stroke-width: 0.8"/>
      </g>
     </g>
     <g id="text_3">
      <!-- 10 -->
      <g transform="translate(278.797767 206.838437) scale(0.1 -0.1)">
       <defs>
        <path id="DejaVuSans-31" d="M 794 531 
L 1825 531 
L 1825 4091 
L 703 3866 
L 703 4441 
L 1819 4666 
L 2450 4666 
L 2450 531 
L 3481 531 
L 3481 0 
L 794 0 
L 794 531 
z
" transform="scale(0.015625)"/>
       </defs>
       <use xlink:href="#DejaVuSans-31"/>
       <use xlink:href="#DejaVuSans-30" x="63.623047"/>
      </g>
     </g>
    </g>
    <g id="xtick_4">
     <g id="line2d_5">
      <g>
       <use xlink:href="#m3245cd168a" x="378.315526" y="192.24" style="stroke: #000000; stroke-width: 0.8"/>
      </g>
     </g>
     <g id="text_4">
      <!-- 15 -->
      <g transform="translate(371.953026 206.838437) scale(0.1 -0.1)">
       <use xlink:href="#DejaVuSans-31"/>
       <use xlink:href="#DejaVuSans-35" x="63.623047"/>
      </g>
     </g>
    </g>
    <g id="xtick_5">
     <g id="line2d_6">
      <g>
       <use xlink:href="#m3245cd168a" x="471.470785" y="192.24" style="stroke: #000000; stroke-width: 0.8"/>
      </g>
     </g>
     <g id="text_5">
      <!-- 20 -->
      <g transform="translate(465.108285 206.838437) scale(0.1 -0.1)">
       <defs>
        <path id="DejaVuSans-32" d="M 1228 531 
L 3431 531 
L 3431 0 
L 469 0 
L 469 531 
Q 828 903 1448 1529 
Q 2069 2156 2228 2338 
Q 2531 2678 2651 2914 
Q 2772 3150 2772 3378 
Q 2772 3750 2511 3984 
Q 2250 4219 1831 4219 
Q 1534 4219 1204 4116 
Q 875 4013 500 3803 
L 500 4441 
Q 881 4594 1212 4672 
Q 1544 4750 1819 4750 
Q 2544 4750 2975 4387 
Q 3406 4025 3406 3419 
Q 3406 3131 3298 2873 
Q 3191 2616 2906 2266 
Q 2828 2175 2409 1742 
Q 1991 1309 1228 531 
z
" transform="scale(0.015625)"/>
       </defs>
       <use xlink:href="#DejaVuSans-32"/>
       <use xlink:href="#DejaVuSans-30" x="63.623047"/>
      </g>
     </g>
    </g>
    <g id="xtick_6">
     <g id="line2d_7">
      <g>
       <use xlink:href="#m3245cd168a" x="564.626043" y="192.24" style="stroke: #000000; stroke-width: 0.8"/>
      </g>
     </g>
     <g id="text_6">
      <!-- 25 -->
      <g transform="translate(558.263543 206.838437) scale(0.1 -0.1)">
       <use xlink:href="#DejaVuSans-32"/>
       <use xlink:href="#DejaVuSans-35" x="63.623047"/>
      </g>
     </g>
    </g>
   </g>
   <g id="matplotlib.axis_2">
    <g id="ytick_1">
     <g id="line2d_8">
      <defs>
       <path id="m0e45c8f154" d="M 0 0 
L -3.5 0 
" style="stroke: #000000; stroke-width: 0.8"/>
      </defs>
      <g>
       <use xlink:href="#m0e45c8f154" x="90" y="175.331158" style="stroke: #000000; stroke-width: 0.8"/>
      </g>
     </g>
     <g id="text_7">
      <!-- 0.000 -->
      <g transform="translate(54.371875 179.130377) scale(0.1 -0.1)">
       <defs>
        <path id="DejaVuSans-2e" d="M 684 794 
L 1344 794 
L 1344 0 
L 684 0 
L 684 794 
z
" transform="scale(0.015625)"/>
       </defs>
       <use xlink:href="#DejaVuSans-30"/>
       <use xlink:href="#DejaVuSans-2e" x="63.623047"/>
       <use xlink:href="#DejaVuSans-30" x="95.410156"/>
       <use xlink:href="#DejaVuSans-30" x="159.033203"/>
       <use xlink:href="#DejaVuSans-30" x="222.65625"/>
      </g>
     </g>
    </g>
    <g id="ytick_2">
     <g id="line2d_9">
      <g>
       <use xlink:href="#m0e45c8f154" x="90" y="139.806257" style="stroke: #000000; stroke-width: 0.8"/>
      </g>
     </g>
     <g id="text_8">
      <!-- 0.002 -->
      <g transform="translate(54.371875 143.605475) scale(0.1 -0.1)">
       <use xlink:href="#DejaVuSans-30"/>
       <use xlink:href="#DejaVuSans-2e" x="63.623047"/>
       <use xlink:href="#DejaVuSans-30" x="95.410156"/>
       <use xlink:href="#DejaVuSans-30" x="159.033203"/>
       <use xlink:href="#DejaVuSans-32" x="222.65625"/>
      </g>
     </g>
    </g>
    <g id="ytick_3">
     <g id="line2d_10">
      <g>
       <use xlink:href="#m0e45c8f154" x="90" y="104.281355" style="stroke: #000000; stroke-width: 0.8"/>
      </g>
     </g>
     <g id="text_9">
      <!-- 0.004 -->
      <g transform="translate(54.371875 108.080573) scale(0.1 -0.1)">
       <defs>
        <path id="DejaVuSans-34" d="M 2419 4116 
L 825 1625 
L 2419 1625 
L 2419 4116 
z
M 2253 4666 
L 3047 4666 
L 3047 1625 
L 3713 1625 
L 3713 1100 
L 3047 1100 
L 3047 0 
L 2419 0 
L 2419 1100 
L 313 1100 
L 313 1709 
L 2253 4666 
z
" transform="scale(0.015625)"/>
       </defs>
       <use xlink:href="#DejaVuSans-30"/>
       <use xlink:href="#DejaVuSans-2e" x="63.623047"/>
       <use xlink:href="#DejaVuSans-30" x="95.410156"/>
       <use xlink:href="#DejaVuSans-30" x="159.033203"/>
       <use xlink:href="#DejaVuSans-34" x="222.65625"/>
      </g>
     </g>
    </g>
    <g id="ytick_4">
     <g id="line2d_11">
      <g>
       <use xlink:href="#m0e45c8f154" x="90" y="68.756453" style="stroke: #000000; stroke-width: 0.8"/>
      </g>
     </g>
     <g id="text_10">
      <!-- 0.006 -->
      <g transform="translate(54.371875 72.555672) scale(0.1 -0.1)">
       <defs>
        <path id="DejaVuSans-36" d="M 2113 2584 
Q 1688 2584 1439 2293 
Q 1191 2003 1191 1497 
Q 1191 994 1439 701 
Q 1688 409 2113 409 
Q 2538 409 2786 701 
Q 3034 994 3034 1497 
Q 3034 2003 2786 2293 
Q 2538 2584 2113 2584 
z
M 3366 4563 
L 3366 3988 
Q 3128 4100 2886 4159 
Q 2644 4219 2406 4219 
Q 1781 4219 1451 3797 
Q 1122 3375 1075 2522 
Q 1259 2794 1537 2939 
Q 1816 3084 2150 3084 
Q 2853 3084 3261 2657 
Q 3669 2231 3669 1497 
Q 3669 778 3244 343 
Q 2819 -91 2113 -91 
Q 1303 -91 875 529 
Q 447 1150 447 2328 
Q 447 3434 972 4092 
Q 1497 4750 2381 4750 
Q 2619 4750 2861 4703 
Q 3103 4656 3366 4563 
z
" transform="scale(0.015625)"/>
       </defs>
       <use xlink:href="#DejaVuSans-30"/>
       <use xlink:href="#DejaVuSans-2e" x="63.623047"/>
       <use xlink:href="#DejaVuSans-30" x="95.410156"/>
       <use xlink:href="#DejaVuSans-30" x="159.033203"/>
       <use xlink:href="#DejaVuSans-36" x="222.65625"/>
      </g>
     </g>
    </g>
    <g id="ytick_5">
     <g id="line2d_12">
      <g>
       <use xlink:href="#m0e45c8f154" x="90" y="33.231551" style="stroke: #000000; stroke-width: 0.8"/>
      </g>
     </g>
     <g id="text_11">
      <!-- 0.008 -->
      <g transform="translate(54.371875 37.03077) scale(0.1 -0.1)">
       <defs>
        <path id="DejaVuSans-38" d="M 2034 2216 
Q 1584 2216 1326 1975 
Q 1069 1734 1069 1313 
Q 1069 891 1326 650 
Q 1584 409 2034 409 
Q 2484 409 2743 651 
Q 3003 894 3003 1313 
Q 3003 1734 2745 1975 
Q 2488 2216 2034 2216 
z
M 1403 2484 
Q 997 2584 770 2862 
Q 544 3141 544 3541 
Q 544 4100 942 4425 
Q 1341 4750 2034 4750 
Q 2731 4750 3128 4425 
Q 3525 4100 3525 3541 
Q 3525 3141 3298 2862 
Q 3072 2584 2669 2484 
Q 3125 2378 3379 2068 
Q 3634 1759 3634 1313 
Q 3634 634 3220 271 
Q 2806 -91 2034 -91 
Q 1263 -91 848 271 
Q 434 634 434 1313 
Q 434 1759 690 2068 
Q 947 2378 1403 2484 
z
M 1172 3481 
Q 1172 3119 1398 2916 
Q 1625 2713 2034 2713 
Q 2441 2713 2670 2916 
Q 2900 3119 2900 3481 
Q 2900 3844 2670 4047 
Q 2441 4250 2034 4250 
Q 1625 4250 1398 4047 
Q 1172 3844 1172 3481 
z
" transform="scale(0.015625)"/>
       </defs>
       <use xlink:href="#DejaVuSans-30"/>
       <use xlink:href="#DejaVuSans-2e" x="63.623047"/>
       <use xlink:href="#DejaVuSans-30" x="95.410156"/>
       <use xlink:href="#DejaVuSans-30" x="159.033203"/>
       <use xlink:href="#DejaVuSans-38" x="222.65625"/>
      </g>
     </g>
    </g>
   </g>
  </g>
 </g>
 <defs>
  <clipPath id="p716e30dd34">
   <rect x="90" y="25.92" width="558" height="166.32"/>
  </clipPath>
 </defs>
</svg>
