<?xml version="1.0" encoding="utf-8" standalone="no"?>
<!DOCTYPE svg PUBLIC "-//W3C//DTD SVG 1.1//EN"
  "http://www.w3.org/Graphics/SVG/1.1/DTD/svg11.dtd">
<svg xmlns:xlink="http://www.w3.org/1999/xlink" width="720pt" height="216pt" viewBox="0 0 720 216" xmlns="http://www.w3.org/2000/svg" version="1.1">
 <metadata>
  <rdf:RDF xmlns:dc="http://purl.org/dc/elements/1.1/" xmlns:cc="http://creativecommons.org/ns#" xmlns:rdf="http://www.w3.org/1999/02/22-rdf-syntax-ns#">
   <cc:Work>
    <dc:type rdf:resource="http://purl.org/dc/dcmitype/StillImage"/>
    <dc:date>2024-11-23T04:40:36.924690</dc:date>
    <dc:format>image/svg+xml</dc:format>
    <dc:creator>
     <cc:Agent>
      <dc:title>Matplotlib v3.7.2, https://matplotlib.org/</dc:title>
     </cc:Agent>
    </dc:creator>
   </cc:Work>
  </rdf:RDF>
 </metadata>
 <defs>
  <style type="text/css">*{stroke-linejoin: round; stroke-linecap: butt}</style>
 </defs>
 <g id="figure_1">
  <g id="patch_1">
   <path d="M 0 216 
L 720 216 
L 720 0 
L 0 0 
z
" style="fill: #ffffff"/>
  </g>
  <g id="axes_1">
   <g id="patch_2">
    <path d="M 90 192.24 
L 648 192.24 
L 648 25.92 
L 90 25.92 
z
" style="fill: #ffffff"/>
   </g>
   <g id="line2d_1">
    <path d="M 90 192.24 
L 648 192.24 
" clip-path="url(#p4100929ca1)" style="fill: none; stroke: #000000; stroke-width: 0.5; stroke-linecap: square"/>
   </g>
   <g id="patch_3">
    <path d="M 116.571429 192.182412 
Q 113.891657 192.211206 111.009413 192.225669 
Q 108.127169 192.24 105.054364 192.24 
Q 98.110777 192.24 94.055388 192.154276 
Q 90 192.068551 90 191.921952 
Q 90 191.773643 94.126849 191.688576 
Q 98.259653 191.603509 105.447397 191.603509 
Q 108.216495 191.603509 110.753346 191.615079 
Q 113.296152 191.626518 115.54716 191.649132 
L 115.54716 191.77601 
Q 113.224691 191.746953 110.926042 191.732622 
Q 108.627393 191.718159 106.316834 191.718159 
Q 102.041109 191.718159 99.724595 191.771014 
Q 97.408081 191.823737 97.408081 191.921952 
Q 97.408081 192.019246 99.641224 192.072364 
Q 101.874368 192.12535 105.983351 192.12535 
Q 107.102901 192.12535 108.061664 192.122326 
Q 109.020426 192.119171 109.782673 192.112597 
L 109.782673 191.993477 
L 105.405712 191.993477 
L 105.405712 191.887373 
L 116.571429 191.887373 
L 116.571429 192.182412 
z
" clip-path="url(#p4100929ca1)" style="fill: #ffa600"/>
   </g>
   <g id="patch_4">
    <path d="M 108.406052 191.179565 
L 98.187108 191.179565 
L 96.57359 191.603509 
L 90 191.603509 
L 99.387738 189.276305 
L 107.18369 189.276305 
L 116.571429 191.603509 
L 110.003271 191.603509 
L 108.406052 191.179565 
z
M 99.816923 190.747641 
L 106.759938 190.747641 
L 103.293863 189.821946 
L 99.816923 190.747641 
z
" clip-path="url(#p4100929ca1)" style="fill: #008000"/>
   </g>
   <g id="patch_5">
    <path d="M 90 179.062319 
L 116.571429 179.062319 
L 116.571429 181.054331 
L 107.011894 181.054331 
L 107.011894 189.276305 
L 99.578073 189.276305 
L 99.578073 181.054331 
L 90 181.054331 
L 90 179.062319 
z
" clip-path="url(#p4100929ca1)" style="fill: #ff0000"/>
   </g>
   <g id="patch_6">
    <path d="M 116.571429 171.732267 
Q 114.348774 175.365607 111.945362 177.203401 
Q 109.54195 179.062319 106.924306 179.062319 
Q 99.118238 179.062319 94.559119 165.289425 
Q 90 151.516532 90 127.963193 
Q 90 104.325358 94.559119 90.573589 
Q 99.118238 76.800695 106.924306 76.800695 
Q 109.54195 76.800695 111.945362 78.659613 
Q 114.348774 80.497407 116.571429 84.130747 
L 116.571429 104.515475 
Q 114.32869 99.699187 112.152899 97.460036 
Q 109.977108 95.220884 107.573696 95.220884 
Q 103.262283 95.220884 100.791923 103.945125 
Q 98.328258 112.648242 98.328258 127.963193 
Q 98.328258 143.214772 100.791923 151.939013 
Q 103.262283 160.64213 107.573696 160.64213 
Q 109.977108 160.64213 112.152899 158.402979 
Q 114.32869 156.142703 116.571429 151.326415 
L 116.571429 171.732267 
z
" clip-path="url(#p4100929ca1)" style="fill: #0000ff"/>
   </g>
   <g id="patch_7">
    <path d="M 136.375977 192.214396 
L 126.157032 192.214396 
L 124.543515 192.24 
L 117.969925 192.24 
L 127.357663 192.099448 
L 135.153615 192.099448 
L 144.541353 192.24 
L 137.973196 192.24 
L 136.375977 192.214396 
z
M 127.786848 192.18831 
L 134.729863 192.18831 
L 131.263788 192.132402 
L 127.786848 192.18831 
z
" clip-path="url(#p4100929ca1)" style="fill: #008000"/>
   </g>
   <g id="patch_8">
    <path d="M 144.541353 191.99674 
Q 141.861581 192.048094 138.979338 192.073888 
Q 136.097094 192.099448 133.024289 192.099448 
Q 126.080702 192.099448 122.025313 191.946559 
Q 117.969925 191.793671 117.969925 191.532213 
Q 117.969925 191.267707 122.096774 191.115991 
Q 126.229578 190.964275 133.417322 190.964275 
Q 136.18642 190.964275 138.723271 190.98491 
Q 141.266076 191.005311 143.517085 191.045644 
L 143.517085 191.271928 
Q 141.194616 191.220105 138.895967 191.194546 
Q 136.597318 191.168751 134.286759 191.168751 
Q 130.011034 191.168751 127.69452 191.263017 
Q 125.378006 191.357048 125.378006 191.532213 
Q 125.378006 191.705737 127.611149 191.800471 
Q 129.844292 191.894971 133.953276 191.894971 
Q 135.072825 191.894971 136.031588 191.889578 
Q 136.990351 191.88395 137.752598 191.872226 
L 137.752598 191.659776 
L 133.375637 191.659776 
L 133.375637 191.470542 
L 144.541353 191.470542 
L 144.541353 191.99674 
z
" clip-path="url(#p4100929ca1)" style="fill: #ffa600"/>
   </g>
   <g id="patch_9">
    <path d="M 117.969925 189.734056 
L 144.541353 189.734056 
L 144.541353 189.973983 
L 134.981818 189.973983 
L 134.981818 190.964275 
L 127.547998 190.964275 
L 127.547998 189.973983 
L 117.969925 189.973983 
L 117.969925 189.734056 
z
" clip-path="url(#p4100929ca1)" style="fill: #ff0000"/>
   </g>
   <g id="patch_10">
    <path d="M 144.541353 180.32486 
Q 142.318699 184.988784 139.915287 187.347862 
Q 137.511875 189.734056 134.894231 189.734056 
Q 127.088163 189.734056 122.529044 172.05453 
Q 117.969925 154.375004 117.969925 124.140845 
Q 117.969925 93.798223 122.529044 76.145812 
Q 127.088163 58.466286 134.894231 58.466286 
Q 137.511875 58.466286 139.915287 60.85248 
Q 142.318699 63.211558 144.541353 67.875482 
L 144.541353 94.042265 
Q 142.298615 87.859854 140.122824 84.985575 
Q 137.947033 82.111297 135.543621 82.111297 
Q 131.232208 82.111297 128.761848 93.310138 
Q 126.298183 104.481863 126.298183 124.140845 
Q 126.298183 143.71848 128.761848 154.917321 
Q 131.232208 166.089046 135.543621 166.089046 
Q 137.947033 166.089046 140.122824 163.214767 
Q 142.298615 160.313372 144.541353 154.130961 
L 144.541353 180.32486 
z
" clip-path="url(#p4100929ca1)" style="fill: #0000ff"/>
   </g>
   <g id="patch_11">
    <path d="M 164.345902 192.098306 
L 154.126957 192.098306 
L 152.51344 192.24 
L 145.93985 192.24 
L 155.327588 191.462181 
L 163.12354 191.462181 
L 172.511278 192.24 
L 165.943121 192.24 
L 164.345902 192.098306 
z
M 155.756773 191.953944 
L 162.699788 191.953944 
L 159.233713 191.64455 
L 155.756773 191.953944 
z
" clip-path="url(#p4100929ca1)" style="fill: #008000"/>
   </g>
   <g id="patch_12">
    <path d="M 172.511278 191.178628 
Q 169.831506 191.320404 166.949262 191.391616 
Q 164.067019 191.462181 160.994213 191.462181 
Q 154.050626 191.462181 149.995238 191.040089 
Q 145.93985 190.617997 145.93985 189.896168 
Q 145.93985 189.165923 150.066699 188.747068 
Q 154.199503 188.328213 161.387247 188.328213 
Q 164.156344 188.328213 166.693195 188.385182 
Q 169.236001 188.441504 171.48701 188.552854 
L 171.48701 189.177576 
Q 169.164541 189.034505 166.865892 188.96394 
Q 164.567243 188.892729 162.256684 188.892729 
Q 157.980959 188.892729 155.664445 189.152975 
Q 153.347931 189.412575 153.347931 189.896168 
Q 153.347931 190.375229 155.581074 190.636771 
Q 157.814217 190.897665 161.923201 190.897665 
Q 163.04275 190.897665 164.001513 190.882775 
Q 164.960276 190.867238 165.722522 190.834869 
L 165.722522 190.248343 
L 161.345561 190.248343 
L 161.345561 189.725907 
L 172.511278 189.725907 
L 172.511278 191.178628 
z
" clip-path="url(#p4100929ca1)" style="fill: #ffa600"/>
   </g>
   <g id="patch_13">
    <path d="M 145.93985 175.253955 
L 172.511278 175.253955 
L 172.511278 177.8038 
L 162.951743 177.8038 
L 162.951743 188.328213 
L 155.517923 188.328213 
L 155.517923 177.8038 
L 145.93985 177.8038 
L 145.93985 175.253955 
z
" clip-path="url(#p4100929ca1)" style="fill: #ff0000"/>
   </g>
   <g id="patch_14">
    <path d="M 172.511278 169.863676 
Q 170.288624 172.535515 167.885212 173.886968 
Q 165.4818 175.253955 162.864156 175.253955 
Q 155.058087 175.253955 150.498969 165.125822 
Q 145.93985 154.997689 145.93985 137.677339 
Q 145.93985 120.294852 150.498969 110.182253 
Q 155.058087 100.05412 162.864156 100.05412 
Q 165.4818 100.05412 167.885212 101.421107 
Q 170.288624 102.772561 172.511278 105.4444 
L 172.511278 120.434658 
Q 170.26854 116.892918 168.092749 115.24632 
Q 165.916958 113.599722 163.513546 113.599722 
Q 159.202132 113.599722 156.731773 120.015241 
Q 154.268108 126.415227 154.268108 137.677339 
Q 154.268108 148.892848 156.731773 155.308368 
Q 159.202132 161.708354 163.513546 161.708354 
Q 165.916958 161.708354 168.092749 160.061756 
Q 170.26854 158.399623 172.511278 154.857884 
L 172.511278 169.863676 
z
" clip-path="url(#p4100929ca1)" style="fill: #0000ff"/>
   </g>
   <g id="patch_15">
    <path d="M 192.315826 191.707509 
L 182.096882 191.707509 
L 180.483364 192.24 
L 173.909774 192.24 
L 183.297513 189.31694 
L 191.093465 189.31694 
L 200.481203 192.24 
L 193.913046 192.24 
L 192.315826 191.707509 
z
M 183.726698 191.164995 
L 190.669713 191.164995 
L 187.203638 190.002286 
L 183.726698 191.164995 
z
" clip-path="url(#p4100929ca1)" style="fill: #008000"/>
   </g>
   <g id="patch_16">
    <path d="M 200.481203 188.461858 
Q 197.801431 188.889399 194.919187 189.104145 
Q 192.036944 189.31694 188.964138 189.31694 
Q 182.020551 189.31694 177.965163 188.044078 
Q 173.909774 186.771217 173.909774 184.594467 
Q 173.909774 182.392339 178.036623 181.129239 
Q 182.169427 179.866138 189.357172 179.866138 
Q 192.126269 179.866138 194.66312 180.037936 
Q 197.205926 180.207781 199.456935 180.543566 
L 199.456935 182.427479 
Q 197.134465 181.996034 194.835817 181.78324 
Q 192.537168 181.568493 190.226609 181.568493 
Q 185.950883 181.568493 183.634369 182.353294 
Q 181.317855 183.136143 181.317855 184.594467 
Q 181.317855 186.039126 183.550999 186.827832 
Q 185.784142 187.614585 189.893126 187.614585 
Q 191.012675 187.614585 191.971438 187.569684 
Q 192.930201 187.52283 193.692447 187.425218 
L 193.692447 185.656487 
L 189.315486 185.656487 
L 189.315486 184.081028 
L 200.481203 184.081028 
L 200.481203 188.461858 
z
" clip-path="url(#p4100929ca1)" style="fill: #ffa600"/>
   </g>
   <g id="patch_17">
    <path d="M 173.909774 163.201336 
L 200.481203 163.201336 
L 200.481203 166.451436 
L 190.921668 166.451436 
L 190.921668 179.866138 
L 183.487848 179.866138 
L 183.487848 166.451436 
L 173.909774 166.451436 
L 173.909774 163.201336 
z
" clip-path="url(#p4100929ca1)" style="fill: #ff0000"/>
   </g>
   <g id="patch_18">
    <path d="M 200.481203 161.820683 
Q 198.258549 162.505041 195.855137 162.851199 
Q 193.451725 163.201336 190.834081 163.201336 
Q 183.028012 163.201336 178.468893 160.607141 
Q 173.909774 158.012946 173.909774 153.576555 
Q 173.909774 149.124248 178.468893 146.534033 
Q 183.028012 143.939838 190.834081 143.939838 
Q 193.451725 143.939838 195.855137 144.289975 
Q 198.258549 144.636132 200.481203 145.320491 
L 200.481203 149.160058 
Q 198.238465 148.252886 196.062674 147.83113 
Q 193.886883 147.409374 191.483471 147.409374 
Q 187.172057 147.409374 184.701698 149.05263 
Q 182.238033 150.691906 182.238033 153.576555 
Q 182.238033 156.449268 184.701698 158.092523 
Q 187.172057 159.731799 191.483471 159.731799 
Q 193.886883 159.731799 196.062674 159.310044 
Q 198.238465 158.884309 200.481203 157.977137 
L 200.481203 161.820683 
z
" clip-path="url(#p4100929ca1)" style="fill: #0000ff"/>
   </g>
   <g id="patch_19">
    <path d="M 228.451128 191.942591 
Q 225.771356 192.091295 222.889112 192.165987 
Q 220.006868 192.24 216.934063 192.24 
Q 209.990476 192.24 205.935088 191.797281 
Q 201.879699 191.354563 201.879699 190.597459 
Q 201.879699 189.831529 206.006548 189.392205 
Q 210.139352 188.952881 217.327096 188.952881 
Q 220.096194 188.952881 222.633045 189.012635 
Q 225.175851 189.071709 227.426859 189.1885 
L 227.426859 189.843751 
Q 225.10439 189.693688 222.805741 189.619675 
Q 220.507092 189.544984 218.196533 189.544984 
Q 213.920808 189.544984 211.604294 189.817948 
Q 209.28778 190.090234 209.28778 190.597459 
Q 209.28778 191.099931 211.520924 191.374254 
Q 213.754067 191.647898 217.863051 191.647898 
Q 218.9826 191.647898 219.941363 191.63228 
Q 220.900126 191.615984 221.662372 191.582033 
L 221.662372 190.966844 
L 217.285411 190.966844 
L 217.285411 190.418878 
L 228.451128 190.418878 
L 228.451128 191.942591 
z
" clip-path="url(#p4100929ca1)" style="fill: #ffa600"/>
   </g>
   <g id="patch_20">
    <path d="M 220.285751 187.694795 
L 210.066807 187.694795 
L 208.453289 188.952881 
L 201.879699 188.952881 
L 211.267438 182.046725 
L 219.063389 182.046725 
L 228.451128 188.952881 
L 221.882971 188.952881 
L 220.285751 187.694795 
z
M 211.696622 186.413026 
L 218.639637 186.413026 
L 215.173563 183.665957 
L 211.696622 186.413026 
z
" clip-path="url(#p4100929ca1)" style="fill: #008000"/>
   </g>
   <g id="patch_21">
    <path d="M 201.879699 172.052345 
L 228.451128 172.052345 
L 228.451128 174.001527 
L 218.891593 174.001527 
L 218.891593 182.046725 
L 211.457772 182.046725 
L 211.457772 174.001527 
L 201.879699 174.001527 
L 201.879699 172.052345 
z
" clip-path="url(#p4100929ca1)" style="fill: #ff0000"/>
   </g>
   <g id="patch_22">
    <path d="M 228.451128 171.272602 
Q 226.228474 171.659103 223.825062 171.8546 
Q 221.421649 172.052345 218.804005 172.052345 
Q 210.997937 172.052345 206.438818 170.587238 
Q 201.879699 169.122131 201.879699 166.616618 
Q 201.879699 164.102117 206.438818 162.639257 
Q 210.997937 161.17415 218.804005 161.17415 
Q 221.421649 161.17415 223.825062 161.371895 
Q 226.228474 161.567392 228.451128 161.953893 
L 228.451128 164.122341 
Q 226.208389 163.610003 224.032599 163.371811 
Q 221.856808 163.133618 219.453395 163.133618 
Q 215.141982 163.133618 212.671622 164.061669 
Q 210.207958 164.987473 210.207958 166.616618 
Q 210.207958 168.239022 212.671622 169.167073 
Q 215.141982 170.092876 219.453395 170.092876 
Q 221.856808 170.092876 224.032599 169.854684 
Q 226.208389 169.614245 228.451128 169.101907 
L 228.451128 171.272602 
z
" clip-path="url(#p4100929ca1)" style="fill: #0000ff"/>
   </g>
   <g id="patch_23">
    <path d="M 229.849624 186.477205 
L 256.421053 186.477205 
L 256.421053 187.601111 
L 246.861518 187.601111 
L 246.861518 192.24 
L 239.427697 192.24 
L 239.427697 187.601111 
L 229.849624 187.601111 
L 229.849624 186.477205 
z
" clip-path="url(#p4100929ca1)" style="fill: #ff0000"/>
   </g>
   <g id="patch_24">
    <path d="M 248.255676 185.376961 
L 238.036732 185.376961 
L 236.423214 186.477205 
L 229.849624 186.477205 
L 239.237362 180.437514 
L 247.033314 180.437514 
L 256.421053 186.477205 
L 249.852895 186.477205 
L 248.255676 185.376961 
z
M 239.666547 184.256007 
L 246.609562 184.256007 
L 243.143487 181.853592 
L 239.666547 184.256007 
z
" clip-path="url(#p4100929ca1)" style="fill: #008000"/>
   </g>
   <g id="patch_25">
    <path d="M 256.421053 179.083792 
Q 254.198398 179.754801 251.794986 180.094207 
Q 249.391574 180.437514 246.77393 180.437514 
Q 238.967862 180.437514 234.408743 177.893921 
Q 229.849624 175.350327 229.849624 171.000471 
Q 229.849624 166.635009 234.408743 164.095318 
Q 238.967862 161.551724 246.77393 161.551724 
Q 249.391574 161.551724 251.794986 161.895031 
Q 254.198398 162.234437 256.421053 162.905446 
L 256.421053 166.67012 
Q 254.178314 165.780643 252.002523 165.367114 
Q 249.826732 164.953585 247.42332 164.953585 
Q 243.111907 164.953585 240.641547 166.564788 
Q 238.177882 168.172089 238.177882 171.000471 
Q 238.177882 173.817149 240.641547 175.428352 
Q 243.111907 177.035653 247.42332 177.035653 
Q 249.826732 177.035653 252.002523 176.622124 
Q 254.178314 176.204694 256.421053 175.315216 
L 256.421053 179.083792 
z
" clip-path="url(#p4100929ca1)" style="fill: #0000ff"/>
   </g>
   <g id="patch_26">
    <path d="M 276.225601 191.466636 
L 266.006656 191.466636 
L 264.393139 192.24 
L 257.819549 192.24 
L 267.207287 187.994685 
L 275.003239 187.994685 
L 284.390977 192.24 
L 277.82282 192.24 
L 276.225601 191.466636 
z
M 267.636472 190.678714 
L 274.579487 190.678714 
L 271.113412 188.99005 
L 267.636472 190.678714 
z
" clip-path="url(#p4100929ca1)" style="fill: #008000"/>
   </g>
   <g id="patch_27">
    <path d="M 257.819549 178.23417 
L 284.390977 178.23417 
L 284.390977 180.137743 
L 274.831443 180.137743 
L 274.831443 187.994685 
L 267.397622 187.994685 
L 267.397622 180.137743 
L 257.819549 180.137743 
L 257.819549 178.23417 
z
" clip-path="url(#p4100929ca1)" style="fill: #ff0000"/>
   </g>
   <g id="patch_28">
    <path d="M 284.390977 175.512983 
Q 282.168323 176.861813 279.764911 177.544071 
Q 277.361499 178.23417 274.743855 178.23417 
Q 266.937787 178.23417 262.378668 173.121161 
Q 257.819549 168.008151 257.819549 159.264278 
Q 257.819549 150.489036 262.378668 145.383868 
Q 266.937787 140.270859 274.743855 140.270859 
Q 277.361499 140.270859 279.764911 140.960958 
Q 282.168323 141.643216 284.390977 142.992047 
L 284.390977 150.559614 
Q 282.148239 148.771629 279.972448 147.940373 
Q 277.796657 147.109117 275.393245 147.109117 
Q 271.081832 147.109117 268.611472 150.347879 
Q 266.147807 153.578799 266.147807 159.264278 
Q 266.147807 164.92623 268.611472 168.164992 
Q 271.081832 171.395912 275.393245 171.395912 
Q 277.796657 171.395912 279.972448 170.564656 
Q 282.148239 169.725558 284.390977 167.937573 
L 284.390977 175.512983 
z
" clip-path="url(#p4100929ca1)" style="fill: #0000ff"/>
   </g>
   <g id="patch_29">
    <path d="M 304.195526 191.835676 
L 293.976581 191.835676 
L 292.363064 192.24 
L 285.789474 192.24 
L 295.177212 190.020497 
L 302.973164 190.020497 
L 312.360902 192.24 
L 305.792745 192.24 
L 304.195526 191.835676 
z
M 295.606397 191.42374 
L 302.549412 191.42374 
L 299.083337 190.540886 
L 295.606397 191.42374 
z
" clip-path="url(#p4100929ca1)" style="fill: #008000"/>
   </g>
   <g id="patch_30">
    <path d="M 285.789474 181.29538 
L 312.360902 181.29538 
L 312.360902 182.997021 
L 302.801367 182.997021 
L 302.801367 190.020497 
L 295.367547 190.020497 
L 295.367547 182.997021 
L 285.789474 182.997021 
L 285.789474 181.29538 
z
" clip-path="url(#p4100929ca1)" style="fill: #ff0000"/>
   </g>
   <g id="patch_31">
    <path d="M 312.360902 177.746944 
Q 310.138248 179.505823 307.734836 180.395488 
Q 305.331424 181.29538 302.71378 181.29538 
Q 294.907711 181.29538 290.348593 174.628001 
Q 285.789474 167.960622 285.789474 156.558586 
Q 285.789474 145.115645 290.348593 138.458492 
Q 294.907711 131.791113 302.71378 131.791113 
Q 305.331424 131.791113 307.734836 132.691005 
Q 310.138248 133.580671 312.360902 135.33955 
L 312.360902 145.20768 
Q 310.118164 142.876142 307.942373 141.792182 
Q 305.766582 140.708222 303.36317 140.708222 
Q 299.051756 140.708222 296.581397 144.931577 
Q 294.117732 149.144706 294.117732 156.558586 
Q 294.117732 163.941788 296.581397 168.165143 
Q 299.051756 172.378272 303.36317 172.378272 
Q 305.766582 172.378272 307.942373 171.294312 
Q 310.118164 170.200125 312.360902 167.868588 
L 312.360902 177.746944 
z
" clip-path="url(#p4100929ca1)" style="fill: #0000ff"/>
   </g>
   <g id="patch_32">
    <path d="M 332.16545 191.82484 
L 321.946506 191.82484 
L 320.332988 192.24 
L 313.759398 192.24 
L 323.147137 189.961016 
L 330.943089 189.961016 
L 340.330827 192.24 
L 333.76267 192.24 
L 332.16545 191.82484 
z
M 323.576322 191.401865 
L 330.519337 191.401865 
L 327.053262 190.495351 
L 323.576322 191.401865 
z
" clip-path="url(#p4100929ca1)" style="fill: #008000"/>
   </g>
   <g id="patch_33">
    <path d="M 313.759398 176.586363 
L 340.330827 176.586363 
L 340.330827 179.194793 
L 330.771292 179.194793 
L 330.771292 189.961016 
L 323.337472 189.961016 
L 323.337472 179.194793 
L 313.759398 179.194793 
L 313.759398 176.586363 
z
" clip-path="url(#p4100929ca1)" style="fill: #ff0000"/>
   </g>
   <g id="patch_34">
    <path d="M 340.330827 174.661477 
Q 338.108173 175.615599 335.704761 176.098207 
Q 333.301349 176.586363 330.683705 176.586363 
Q 322.877636 176.586363 318.318517 172.969575 
Q 313.759398 169.352787 313.759398 163.167636 
Q 313.759398 156.960297 318.318517 153.349056 
Q 322.877636 149.732268 330.683705 149.732268 
Q 333.301349 149.732268 335.704761 150.220424 
Q 338.108173 150.703032 340.330827 151.657154 
L 340.330827 157.010222 
Q 338.088089 155.745455 335.912298 155.15745 
Q 333.736507 154.569445 331.333095 154.569445 
Q 327.021681 154.569445 324.551322 156.860447 
Q 322.087657 159.145902 322.087657 163.167636 
Q 322.087657 167.17273 324.551322 169.463732 
Q 327.021681 171.749187 331.333095 171.749187 
Q 333.736507 171.749187 335.912298 171.161181 
Q 338.088089 170.567629 340.330827 169.302862 
L 340.330827 174.661477 
z
" clip-path="url(#p4100929ca1)" style="fill: #0000ff"/>
   </g>
   <g id="patch_35">
    <path d="M 368.300752 191.908778 
Q 365.62098 192.074389 362.738736 192.157572 
Q 359.856492 192.24 356.783687 192.24 
Q 349.8401 192.24 345.784712 191.746947 
Q 341.729323 191.253895 341.729323 190.410714 
Q 341.729323 189.557703 345.856172 189.068431 
Q 349.988976 188.57916 357.17672 188.57916 
Q 359.945818 188.57916 362.482669 188.645707 
Q 365.025475 188.711497 367.276483 188.841566 
L 367.276483 189.571315 
Q 364.954014 189.404191 362.655365 189.321763 
Q 360.356717 189.23858 358.046158 189.23858 
Q 353.770432 189.23858 351.453918 189.542578 
Q 349.137404 189.845821 349.137404 190.410714 
Q 349.137404 190.970314 351.370548 191.275825 
Q 353.603691 191.58058 357.712675 191.58058 
Q 358.832224 191.58058 359.790987 191.563187 
Q 360.74975 191.545038 361.511996 191.507227 
L 361.511996 190.822095 
L 357.135035 190.822095 
L 357.135035 190.211829 
L 368.300752 190.211829 
L 368.300752 191.908778 
z
" clip-path="url(#p4100929ca1)" style="fill: #ffa600"/>
   </g>
   <g id="patch_36">
    <path d="M 360.135375 187.856494 
L 349.916431 187.856494 
L 348.302913 188.57916 
L 341.729323 188.57916 
L 351.117062 184.612153 
L 358.913013 184.612153 
L 368.300752 188.57916 
L 361.732595 188.57916 
L 360.135375 187.856494 
z
M 351.546247 187.120226 
L 358.489261 187.120226 
L 355.023187 185.542265 
L 351.546247 187.120226 
z
" clip-path="url(#p4100929ca1)" style="fill: #008000"/>
   </g>
   <g id="patch_37">
    <path d="M 368.300752 183.695157 
Q 366.078098 184.149691 363.674686 184.379601 
Q 361.271273 184.612153 358.65363 184.612153 
Q 350.847561 184.612153 346.288442 182.889152 
Q 341.729323 181.166151 341.729323 178.219608 
Q 341.729323 175.262494 346.288442 173.542135 
Q 350.847561 171.819134 358.65363 171.819134 
Q 361.271273 171.819134 363.674686 172.051687 
Q 366.078098 172.281596 368.300752 172.73613 
L 368.300752 175.286277 
Q 366.058014 174.683756 363.882223 174.403636 
Q 361.706432 174.123516 359.303019 174.123516 
Q 354.991606 174.123516 352.521246 175.214926 
Q 350.057582 176.303694 350.057582 178.219608 
Q 350.057582 180.127593 352.521246 181.219004 
Q 354.991606 182.307771 359.303019 182.307771 
Q 361.706432 182.307771 363.882223 182.027651 
Q 366.058014 181.744889 368.300752 181.142367 
L 368.300752 183.695157 
z
" clip-path="url(#p4100929ca1)" style="fill: #0000ff"/>
   </g>
   <g id="patch_38">
    <path d="M 341.729323 154.992968 
L 368.300752 154.992968 
L 368.300752 158.27454 
L 358.741217 158.27454 
L 358.741217 171.819134 
L 351.307396 171.819134 
L 351.307396 158.27454 
L 341.729323 158.27454 
L 341.729323 154.992968 
z
" clip-path="url(#p4100929ca1)" style="fill: #ff0000"/>
   </g>
   <g id="patch_39">
    <path d="M 388.1053 191.196223 
L 377.886356 191.196223 
L 376.272838 192.24 
L 369.699248 192.24 
L 379.086987 186.510281 
L 386.882938 186.510281 
L 396.270677 192.24 
L 389.702519 192.24 
L 388.1053 191.196223 
z
M 379.516171 190.132799 
L 386.459186 190.132799 
L 382.993111 187.853682 
L 379.516171 190.132799 
z
" clip-path="url(#p4100929ca1)" style="fill: #008000"/>
   </g>
   <g id="patch_40">
    <path d="M 396.270677 185.917738 
Q 394.048023 186.211448 391.64461 186.360011 
Q 389.241198 186.510281 386.623554 186.510281 
Q 378.817486 186.510281 374.258367 185.396916 
Q 369.699248 184.283552 369.699248 182.379562 
Q 369.699248 180.468742 374.258367 179.357086 
Q 378.817486 178.243721 386.623554 178.243721 
Q 389.241198 178.243721 391.64461 178.393991 
Q 394.048023 178.542554 396.270677 178.836263 
L 396.270677 180.484111 
Q 394.027938 180.094775 391.852147 179.913768 
Q 389.676356 179.732761 387.272944 179.732761 
Q 382.961531 179.732761 380.491171 180.438005 
Q 378.027506 181.141542 378.027506 182.379562 
Q 378.027506 183.61246 380.491171 184.317704 
Q 382.961531 185.021241 387.272944 185.021241 
Q 389.676356 185.021241 391.852147 184.840234 
Q 394.027938 184.657519 396.270677 184.268183 
L 396.270677 185.917738 
z
" clip-path="url(#p4100929ca1)" style="fill: #0000ff"/>
   </g>
   <g id="patch_41">
    <path d="M 369.699248 168.141285 
L 396.270677 168.141285 
L 396.270677 170.111541 
L 386.711142 170.111541 
L 386.711142 178.243721 
L 379.277321 178.243721 
L 379.277321 170.111541 
L 369.699248 170.111541 
L 369.699248 168.141285 
z
" clip-path="url(#p4100929ca1)" style="fill: #ff0000"/>
   </g>
   <g id="patch_42">
    <path d="M 396.270677 166.154385 
Q 393.590905 167.147835 390.708661 167.646828 
Q 387.826417 168.141285 384.753612 168.141285 
Q 377.810025 168.141285 373.754636 165.183617 
Q 369.699248 162.22595 369.699248 157.167975 
Q 369.699248 152.051029 373.826097 149.116043 
Q 377.958901 146.181057 385.146645 146.181057 
Q 387.915743 146.181057 390.452594 146.580251 
Q 392.9954 146.974909 395.246408 147.755153 
L 395.246408 152.132682 
Q 392.923939 151.13016 390.62529 150.635703 
Q 388.326641 150.13671 386.016082 150.13671 
Q 381.740357 150.13671 379.423843 151.960303 
Q 377.107329 153.779359 377.107329 157.167975 
Q 377.107329 160.524837 379.340472 162.357502 
Q 381.573616 164.185631 385.6826 164.185631 
Q 386.802149 164.185631 387.760912 164.081296 
Q 388.719675 163.972425 389.481921 163.74561 
L 389.481921 159.635722 
L 385.10496 159.635722 
L 385.10496 155.974928 
L 396.270677 155.974928 
L 396.270677 166.154385 
z
" clip-path="url(#p4100929ca1)" style="fill: #ffa600"/>
   </g>
   <g id="patch_43">
    <path d="M 424.240602 191.537074 
Q 421.560829 191.888537 418.678586 192.065071 
Q 415.796342 192.24 412.723537 192.24 
Q 405.77995 192.24 401.724561 191.193635 
Q 397.669173 190.147271 397.669173 188.357859 
Q 397.669173 186.547584 401.796022 185.509244 
Q 405.928826 184.470904 413.11657 184.470904 
Q 415.885668 184.470904 418.422519 184.612131 
Q 420.965325 184.751753 423.216333 185.027788 
L 423.216333 186.576472 
Q 420.893864 186.221799 418.595215 186.04687 
Q 416.296566 185.870336 413.986007 185.870336 
Q 409.710282 185.870336 407.393768 186.515487 
Q 405.077254 187.159033 405.077254 188.357859 
Q 405.077254 189.545451 407.310397 190.193812 
Q 409.543541 190.840568 413.652524 190.840568 
Q 414.772074 190.840568 415.730837 190.803656 
Q 416.689599 190.76514 417.451846 190.684897 
L 417.451846 189.230899 
L 413.074885 189.230899 
L 413.074885 187.935783 
L 424.240602 187.935783 
L 424.240602 191.537074 
z
" clip-path="url(#p4100929ca1)" style="fill: #ffa600"/>
   </g>
   <g id="patch_44">
    <path d="M 424.240602 183.777111 
Q 422.017947 184.121008 419.614535 184.294956 
Q 417.211123 184.470904 414.593479 184.470904 
Q 406.787411 184.470904 402.228292 183.167293 
Q 397.669173 181.863682 397.669173 179.634347 
Q 397.669173 177.397014 402.228292 176.095402 
Q 406.787411 174.791791 414.593479 174.791791 
Q 417.211123 174.791791 419.614535 174.967739 
Q 422.017947 175.141687 424.240602 175.485584 
L 424.240602 177.415009 
Q 421.997863 176.959145 419.822072 176.747208 
Q 417.646281 176.535271 415.242869 176.535271 
Q 410.931456 176.535271 408.461096 177.361025 
Q 405.997431 178.184779 405.997431 179.634347 
Q 405.997431 181.077916 408.461096 181.90367 
Q 410.931456 182.727424 415.242869 182.727424 
Q 417.646281 182.727424 419.822072 182.515487 
Q 421.997863 182.301551 424.240602 181.845687 
L 424.240602 183.777111 
z
" clip-path="url(#p4100929ca1)" style="fill: #0000ff"/>
   </g>
   <g id="patch_45">
    <path d="M 397.669173 160.337369 
L 424.240602 160.337369 
L 424.240602 163.156384 
L 414.681067 163.156384 
L 414.681067 174.791791 
L 407.247246 174.791791 
L 407.247246 163.156384 
L 397.669173 163.156384 
L 397.669173 160.337369 
z
" clip-path="url(#p4100929ca1)" style="fill: #ff0000"/>
   </g>
   <g id="patch_46">
    <path d="M 416.075225 156.870946 
L 405.85628 156.870946 
L 404.242763 160.337369 
L 397.669173 160.337369 
L 407.056911 141.30875 
L 414.852863 141.30875 
L 424.240602 160.337369 
L 417.672444 160.337369 
L 416.075225 156.870946 
z
M 407.486096 153.339274 
L 414.429111 153.339274 
L 410.963036 145.770239 
L 407.486096 153.339274 
z
" clip-path="url(#p4100929ca1)" style="fill: #008000"/>
   </g>
   <g id="patch_47">
    <path d="M 452.210526 192.239439 
Q 449.530754 192.239719 446.648511 192.23986 
Q 443.766267 192.24 440.693462 192.24 
Q 433.749874 192.24 429.694486 192.239165 
Q 425.639098 192.23833 425.639098 192.236901 
Q 425.639098 192.235456 429.765947 192.234628 
Q 433.898751 192.233799 441.086495 192.233799 
Q 443.855593 192.233799 446.392443 192.233912 
Q 448.935249 192.234023 451.186258 192.234243 
L 451.186258 192.235479 
Q 448.863789 192.235196 446.56514 192.235057 
Q 444.266491 192.234916 441.955932 192.234916 
Q 437.680207 192.234916 435.363693 192.235431 
Q 433.047179 192.235944 433.047179 192.236901 
Q 433.047179 192.237849 435.280322 192.238367 
Q 437.513465 192.238883 441.622449 192.238883 
Q 442.741998 192.238883 443.700761 192.238854 
Q 444.659524 192.238823 445.42177 192.238759 
L 445.42177 192.237598 
L 441.044809 192.237598 
L 441.044809 192.236564 
L 452.210526 192.236564 
L 452.210526 192.239439 
z
" clip-path="url(#p4100929ca1)" style="fill: #ffa600"/>
   </g>
   <g id="patch_48">
    <path d="M 444.04515 191.883695 
L 433.826205 191.883695 
L 432.212688 192.233799 
L 425.639098 192.233799 
L 435.026836 190.311937 
L 442.822788 190.311937 
L 452.210526 192.233799 
L 445.642369 192.233799 
L 444.04515 191.883695 
z
M 435.456021 191.527002 
L 442.399036 191.527002 
L 438.932961 190.762541 
L 435.456021 191.527002 
z
" clip-path="url(#p4100929ca1)" style="fill: #008000"/>
   </g>
   <g id="patch_49">
    <path d="M 425.639098 184.286276 
L 452.210526 184.286276 
L 452.210526 185.461448 
L 442.650991 185.461448 
L 442.650991 190.311937 
L 435.217171 190.311937 
L 435.217171 185.461448 
L 425.639098 185.461448 
L 425.639098 184.286276 
z
" clip-path="url(#p4100929ca1)" style="fill: #ff0000"/>
   </g>
   <g id="patch_50">
    <path d="M 452.210526 176.651353 
Q 449.987872 180.43581 447.58446 182.350042 
Q 445.181048 184.286276 442.563404 184.286276 
Q 434.757336 184.286276 430.198217 169.940542 
Q 425.639098 155.594808 425.639098 131.061842 
Q 425.639098 106.440866 430.198217 92.117135 
Q 434.757336 77.7714 442.563404 77.7714 
Q 445.181048 77.7714 447.58446 79.707635 
Q 449.987872 81.621866 452.210526 85.406323 
L 452.210526 106.63889 
Q 449.967788 101.622284 447.791997 99.290002 
Q 445.616206 96.95772 443.212794 96.95772 
Q 438.90138 96.95772 436.431021 106.044818 
Q 433.967356 115.109914 433.967356 131.061842 
Q 433.967356 146.947762 436.431021 156.034861 
Q 438.90138 165.099956 443.212794 165.099956 
Q 445.616206 165.099956 447.791997 162.767675 
Q 449.967788 160.41339 452.210526 155.396784 
L 452.210526 176.651353 
z
" clip-path="url(#p4100929ca1)" style="fill: #0000ff"/>
   </g>
   <g id="patch_51">
    <path d="M 480.180451 192.193909 
Q 477.500679 192.216954 474.618435 192.22853 
Q 471.736192 192.24 468.663386 192.24 
Q 461.719799 192.24 457.664411 192.171389 
Q 453.609023 192.102779 453.609023 191.985446 
Q 453.609023 191.866746 457.735872 191.798661 
Q 461.868675 191.730577 469.05642 191.730577 
Q 471.825517 191.730577 474.362368 191.739837 
Q 476.905174 191.748992 479.156183 191.767092 
L 479.156183 191.86864 
Q 476.833714 191.845384 474.535065 191.833914 
Q 472.236416 191.822338 469.925857 191.822338 
Q 465.650132 191.822338 463.333618 191.864641 
Q 461.017103 191.906839 461.017103 191.985446 
Q 461.017103 192.063317 463.250247 192.105831 
Q 465.48339 192.148239 469.592374 192.148239 
Q 470.711923 192.148239 471.670686 192.145818 
Q 472.629449 192.143293 473.391695 192.138031 
L 473.391695 192.042692 
L 469.014734 192.042692 
L 469.014734 191.957771 
L 480.180451 191.957771 
L 480.180451 192.193909 
z
" clip-path="url(#p4100929ca1)" style="fill: #ffa600"/>
   </g>
   <g id="patch_52">
    <path d="M 453.609023 191.069924 
L 480.180451 191.069924 
L 480.180451 191.19877 
L 470.620916 191.19877 
L 470.620916 191.730577 
L 463.187096 191.730577 
L 463.187096 191.19877 
L 453.609023 191.19877 
L 453.609023 191.069924 
z
" clip-path="url(#p4100929ca1)" style="fill: #ff0000"/>
   </g>
   <g id="patch_53">
    <path d="M 472.015074 190.877257 
L 461.79613 190.877257 
L 460.182613 191.069924 
L 453.609023 191.069924 
L 462.996761 190.012296 
L 470.792713 190.012296 
L 480.180451 191.069924 
L 473.612294 191.069924 
L 472.015074 190.877257 
z
M 463.425946 190.680963 
L 470.368961 190.680963 
L 466.902886 190.26027 
L 463.425946 190.680963 
z
" clip-path="url(#p4100929ca1)" style="fill: #008000"/>
   </g>
   <g id="patch_54">
    <path d="M 480.180451 178.250258 
Q 477.957797 184.080433 475.554385 187.029416 
Q 473.150973 190.012296 470.533329 190.012296 
Q 462.72726 190.012296 458.168141 167.911867 
Q 453.609023 145.811438 453.609023 108.016993 
Q 453.609023 70.086962 458.168141 48.020429 
Q 462.72726 25.92 470.533329 25.92 
Q 473.150973 25.92 475.554385 28.90288 
Q 477.957797 31.851864 480.180451 37.682038 
L 480.180451 70.392029 
Q 477.937713 62.663658 475.761922 59.070644 
Q 473.586131 55.477629 471.182719 55.477629 
Q 466.871305 55.477629 464.400946 69.476827 
Q 461.937281 83.442129 461.937281 108.016993 
Q 461.937281 132.490167 464.400946 146.489365 
Q 466.871305 160.454667 471.182719 160.454667 
Q 473.586131 160.454667 475.761922 156.861653 
Q 477.937713 153.234742 480.180451 145.506371 
L 480.180451 178.250258 
z
" clip-path="url(#p4100929ca1)" style="fill: #0000ff"/>
   </g>
   <g id="patch_55">
    <path d="M 499.984999 192.192617 
L 489.766055 192.192617 
L 488.152537 192.24 
L 481.578947 192.24 
L 490.966686 191.979897 
L 498.762638 191.979897 
L 508.150376 192.24 
L 501.582219 192.24 
L 499.984999 192.192617 
z
M 491.395871 192.144343 
L 498.338885 192.144343 
L 494.872811 192.040881 
L 491.395871 192.144343 
z
" clip-path="url(#p4100929ca1)" style="fill: #008000"/>
   </g>
   <g id="patch_56">
    <path d="M 481.578947 191.690541 
L 508.150376 191.690541 
L 508.150376 191.746974 
L 498.590841 191.746974 
L 498.590841 191.979897 
L 491.15702 191.979897 
L 491.15702 191.746974 
L 481.578947 191.746974 
L 481.578947 191.690541 
z
" clip-path="url(#p4100929ca1)" style="fill: #ff0000"/>
   </g>
   <g id="patch_57">
    <path d="M 508.150376 191.52653 
Q 505.470604 191.608536 502.58836 191.649726 
Q 499.706116 191.690541 496.633311 191.690541 
Q 489.689724 191.690541 485.634336 191.446397 
Q 481.578947 191.202253 481.578947 190.784737 
Q 481.578947 190.362353 485.705796 190.120081 
Q 489.8386 189.87781 497.026344 189.87781 
Q 499.795442 189.87781 502.332293 189.910762 
Q 504.875099 189.943339 507.126108 190.007745 
L 507.126108 190.369093 
Q 504.803638 190.286339 502.50499 190.245523 
Q 500.206341 190.204334 497.895782 190.204334 
Q 493.620056 190.204334 491.303542 190.354864 
Q 488.987028 190.50502 488.987028 190.784737 
Q 488.987028 191.061833 491.220172 191.213112 
Q 493.453315 191.364017 497.562299 191.364017 
Q 498.681848 191.364017 499.640611 191.355405 
Q 500.599374 191.346418 501.36162 191.327695 
L 501.36162 190.98844 
L 496.984659 190.98844 
L 496.984659 190.686256 
L 508.150376 190.686256 
L 508.150376 191.52653 
z
" clip-path="url(#p4100929ca1)" style="fill: #ffa600"/>
   </g>
   <g id="patch_58">
    <path d="M 508.150376 179.397033 
Q 505.927722 184.592115 503.52431 187.21986 
Q 501.120897 189.87781 498.503254 189.87781 
Q 490.697185 189.87781 486.138066 170.184822 
Q 481.578947 150.491834 481.578947 116.814409 
Q 481.578947 83.016168 486.138066 63.353384 
Q 490.697185 43.660396 498.503254 43.660396 
Q 501.120897 43.660396 503.52431 46.318346 
Q 505.927722 48.946091 508.150376 54.141173 
L 508.150376 83.288003 
Q 505.907638 76.401499 503.731847 73.199878 
Q 501.556056 69.998257 499.152644 69.998257 
Q 494.84123 69.998257 492.37087 82.472496 
Q 489.907206 94.916532 489.907206 116.814409 
Q 489.907206 138.621675 492.37087 151.095914 
Q 494.84123 163.539949 499.152644 163.539949 
Q 501.556056 163.539949 503.731847 160.338328 
Q 505.907638 157.106503 508.150376 150.219999 
L 508.150376 179.397033 
z
" clip-path="url(#p4100929ca1)" style="fill: #0000ff"/>
   </g>
   <g id="patch_59">
    <path d="M 527.954924 191.916986 
L 517.73598 191.916986 
L 516.122462 192.24 
L 509.548872 192.24 
L 518.936611 190.466843 
L 526.732562 190.466843 
L 536.120301 192.24 
L 529.552143 192.24 
L 527.954924 191.916986 
z
M 519.365795 191.587892 
L 526.30881 191.587892 
L 522.842736 190.882581 
L 519.365795 191.587892 
z
" clip-path="url(#p4100929ca1)" style="fill: #008000"/>
   </g>
   <g id="patch_60">
    <path d="M 536.120301 190.168221 
Q 533.440529 190.317532 530.558285 190.392528 
Q 527.676041 190.466843 524.603236 190.466843 
Q 517.659649 190.466843 513.604261 190.02232 
Q 509.548872 189.577797 509.548872 188.817608 
Q 509.548872 188.048556 513.675721 187.607442 
Q 517.808525 187.166328 524.996269 187.166328 
Q 527.765367 187.166328 530.302218 187.226325 
Q 532.845024 187.28564 535.096032 187.402907 
L 535.096032 188.060828 
Q 532.773563 187.910154 530.474914 187.835839 
Q 528.176265 187.760843 525.865706 187.760843 
Q 521.589981 187.760843 519.273467 188.03492 
Q 516.956953 188.308315 516.956953 188.817608 
Q 516.956953 189.322128 519.190096 189.597568 
Q 521.42324 189.872327 525.532224 189.872327 
Q 526.651773 189.872327 527.610536 189.856646 
Q 528.569299 189.840283 529.331545 189.806194 
L 529.331545 189.188498 
L 524.954584 189.188498 
L 524.954584 188.638299 
L 536.120301 188.638299 
L 536.120301 190.168221 
z
" clip-path="url(#p4100929ca1)" style="fill: #ffa600"/>
   </g>
   <g id="patch_61">
    <path d="M 509.548872 175.800638 
L 536.120301 175.800638 
L 536.120301 178.017264 
L 526.560766 178.017264 
L 526.560766 187.166328 
L 519.126945 187.166328 
L 519.126945 178.017264 
L 509.548872 178.017264 
L 509.548872 175.800638 
z
" clip-path="url(#p4100929ca1)" style="fill: #ff0000"/>
   </g>
   <g id="patch_62">
    <path d="M 536.120301 171.135889 
Q 533.897647 173.448099 531.494234 174.617647 
Q 529.090822 175.800638 526.473178 175.800638 
Q 518.66711 175.800638 514.107991 167.03575 
Q 509.548872 158.270861 509.548872 143.281827 
Q 509.548872 128.23902 514.107991 119.487575 
Q 518.66711 110.722687 526.473178 110.722687 
Q 529.090822 110.722687 531.494234 111.905678 
Q 533.897647 113.075226 536.120301 115.387435 
L 536.120301 128.360008 
Q 533.877562 125.294986 531.701771 123.870019 
Q 529.52598 122.445053 527.122568 122.445053 
Q 522.811155 122.445053 520.340795 127.997045 
Q 517.87713 133.535594 517.87713 143.281827 
Q 517.87713 152.987731 520.340795 158.539723 
Q 522.811155 164.078272 527.122568 164.078272 
Q 529.52598 164.078272 531.701771 162.653305 
Q 533.877562 161.214896 536.120301 158.149874 
L 536.120301 171.135889 
z
" clip-path="url(#p4100929ca1)" style="fill: #0000ff"/>
   </g>
   <g id="patch_63">
    <path d="M 564.090226 192.089602 
Q 561.410454 192.164801 558.52821 192.202572 
Q 555.645966 192.24 552.573161 192.24 
Q 545.629574 192.24 541.574185 192.01612 
Q 537.518797 191.792239 537.518797 191.409376 
Q 537.518797 191.022049 541.645646 190.799885 
Q 545.77845 190.577722 552.966194 190.577722 
Q 555.735292 190.577722 558.272143 190.607939 
Q 560.814949 190.637812 563.065957 190.696873 
L 563.065957 191.02823 
Q 560.743488 190.952344 558.444839 190.914916 
Q 556.14619 190.877145 553.835631 190.877145 
Q 549.559906 190.877145 547.243392 191.015182 
Q 544.926878 191.152875 544.926878 191.409376 
Q 544.926878 191.663473 547.160021 191.802197 
Q 549.393165 191.940577 553.502148 191.940577 
Q 554.621698 191.940577 555.580461 191.932679 
Q 556.539223 191.924438 557.30147 191.90727 
L 557.30147 191.596172 
L 552.924509 191.596172 
L 552.924509 191.319068 
L 564.090226 191.319068 
L 564.090226 192.089602 
z
" clip-path="url(#p4100929ca1)" style="fill: #ffa600"/>
   </g>
   <g id="patch_64">
    <path d="M 555.924849 189.889576 
L 545.705905 189.889576 
L 544.092387 190.577722 
L 537.518797 190.577722 
L 546.906535 186.800206 
L 554.702487 186.800206 
L 564.090226 190.577722 
L 557.522068 190.577722 
L 555.924849 189.889576 
z
M 547.33572 189.188477 
L 554.278735 189.188477 
L 550.81266 187.68589 
L 547.33572 189.188477 
z
" clip-path="url(#p4100929ca1)" style="fill: #008000"/>
   </g>
   <g id="patch_65">
    <path d="M 537.518797 174.545537 
L 564.090226 174.545537 
L 564.090226 176.935539 
L 554.530691 176.935539 
L 554.530691 186.800206 
L 547.09687 186.800206 
L 547.09687 176.935539 
L 537.518797 176.935539 
L 537.518797 174.545537 
z
" clip-path="url(#p4100929ca1)" style="fill: #ff0000"/>
   </g>
   <g id="patch_66">
    <path d="M 564.090226 173.325926 
Q 561.867571 173.930459 559.464159 174.23624 
Q 557.060747 174.545537 554.443103 174.545537 
Q 546.637035 174.545537 542.077916 172.253933 
Q 537.518797 169.96233 537.518797 166.043406 
Q 537.518797 162.110424 542.077916 159.822335 
Q 546.637035 157.530732 554.443103 157.530732 
Q 557.060747 157.530732 559.464159 157.840028 
Q 561.867571 158.14581 564.090226 158.750343 
L 564.090226 162.142057 
Q 561.847487 161.340699 559.671696 160.968137 
Q 557.495905 160.595576 555.092493 160.595576 
Q 550.78108 160.595576 548.31072 162.047159 
Q 545.847055 163.495228 545.847055 166.043406 
Q 545.847055 168.581041 548.31072 170.032624 
Q 550.78108 171.480693 555.092493 171.480693 
Q 557.495905 171.480693 559.671696 171.108131 
Q 561.847487 170.732055 564.090226 169.930697 
L 564.090226 173.325926 
z
" clip-path="url(#p4100929ca1)" style="fill: #0000ff"/>
   </g>
   <g id="patch_67">
    <path d="M 583.894774 191.083408 
L 573.675829 191.083408 
L 572.062312 192.24 
L 565.488722 192.24 
L 574.87646 185.89099 
L 582.672412 185.89099 
L 592.06015 192.24 
L 585.491993 192.24 
L 583.894774 191.083408 
z
M 575.305645 189.905045 
L 582.24866 189.905045 
L 578.782585 187.379592 
L 575.305645 189.905045 
z
" clip-path="url(#p4100929ca1)" style="fill: #008000"/>
   </g>
   <g id="patch_68">
    <path d="M 592.06015 185.159555 
Q 589.837496 185.522111 587.434084 185.705496 
Q 585.030672 185.89099 582.413028 185.89099 
Q 574.60696 185.89099 570.047841 184.516652 
Q 565.488722 183.142315 565.488722 180.79203 
Q 565.488722 178.433313 570.047841 177.061084 
Q 574.60696 175.686747 582.413028 175.686747 
Q 585.030672 175.686747 587.434084 175.87224 
Q 589.837496 176.055625 592.06015 176.418181 
L 592.06015 178.452284 
Q 589.817412 177.971688 587.641621 177.748252 
Q 585.46583 177.524817 583.062418 177.524817 
Q 578.751004 177.524817 576.280645 178.395371 
Q 573.81698 179.263817 573.81698 180.79203 
Q 573.81698 182.313919 576.280645 183.184473 
Q 578.751004 184.052919 583.062418 184.052919 
Q 585.46583 184.052919 587.641621 183.829484 
Q 589.817412 183.603941 592.06015 183.123344 
L 592.06015 185.159555 
z
" clip-path="url(#p4100929ca1)" style="fill: #0000ff"/>
   </g>
   <g id="patch_69">
    <path d="M 565.488722 165.025383 
L 592.06015 165.025383 
L 592.06015 167.104646 
L 582.500615 167.104646 
L 582.500615 175.686747 
L 575.066795 175.686747 
L 575.066795 167.104646 
L 565.488722 167.104646 
L 565.488722 165.025383 
z
" clip-path="url(#p4100929ca1)" style="fill: #ff0000"/>
   </g>
   <g id="patch_70">
    <path d="M 611.864699 191.351899 
L 601.645754 191.351899 
L 600.032237 192.24 
L 593.458647 192.24 
L 602.846385 187.36485 
L 610.642337 187.36485 
L 620.030075 192.24 
L 613.461918 192.24 
L 611.864699 191.351899 
z
M 603.27557 190.447082 
L 610.218585 190.447082 
L 606.75251 188.507888 
L 603.27557 190.447082 
z
" clip-path="url(#p4100929ca1)" style="fill: #008000"/>
   </g>
   <g id="patch_71">
    <path d="M 593.458647 179.885103 
L 620.030075 179.885103 
L 620.030075 181.343862 
L 610.47054 181.343862 
L 610.47054 187.36485 
L 603.03672 187.36485 
L 603.03672 181.343862 
L 593.458647 181.343862 
L 593.458647 179.885103 
z
" clip-path="url(#p4100929ca1)" style="fill: #ff0000"/>
   </g>
   <g id="patch_72">
    <path d="M 620.030075 179.166873 
Q 617.807421 179.522883 615.404009 179.702958 
Q 613.000597 179.885103 610.382953 179.885103 
Q 602.576884 179.885103 598.017766 178.535576 
Q 593.458647 177.186049 593.458647 174.878192 
Q 593.458647 172.562055 598.017766 171.214598 
Q 602.576884 169.86507 610.382953 169.86507 
Q 613.000597 169.86507 615.404009 170.047215 
Q 617.807421 170.22729 620.030075 170.5833 
L 620.030075 172.580684 
Q 617.787337 172.108763 615.611546 171.889361 
Q 613.435755 171.66996 611.032343 171.66996 
Q 606.720929 171.66996 604.25057 172.524798 
Q 601.786905 173.377567 601.786905 174.878192 
Q 601.786905 176.372607 604.25057 177.227445 
Q 606.720929 178.080214 611.032343 178.080214 
Q 613.435755 178.080214 615.611546 177.860812 
Q 617.787337 177.639341 620.030075 177.16742 
L 620.030075 179.166873 
z
" clip-path="url(#p4100929ca1)" style="fill: #0000ff"/>
   </g>
   <g id="patch_73">
    <path d="M 639.834623 192.033576 
L 629.615679 192.033576 
L 628.002161 192.24 
L 621.428571 192.24 
L 630.81631 191.106854 
L 638.612262 191.106854 
L 648 192.24 
L 641.431843 192.24 
L 639.834623 192.033576 
z
M 631.245495 191.823266 
L 638.18851 191.823266 
L 634.722435 191.372534 
L 631.245495 191.823266 
z
" clip-path="url(#p4100929ca1)" style="fill: #008000"/>
   </g>
   <g id="patch_74">
    <path d="M 621.428571 183.228739 
L 648 183.228739 
L 648 184.765191 
L 638.440465 184.765191 
L 638.440465 191.106854 
L 631.006645 191.106854 
L 631.006645 184.765191 
L 621.428571 184.765191 
L 621.428571 183.228739 
z
" clip-path="url(#p4100929ca1)" style="fill: #ff0000"/>
   </g>
   <g id="patch_75">
    <path d="M 648 181.43193 
Q 645.777346 182.322568 643.373934 182.773064 
Q 640.970522 183.228739 638.352878 183.228739 
Q 630.546809 183.228739 625.98769 179.852602 
Q 621.428571 176.476466 621.428571 170.702857 
Q 621.428571 164.908536 625.98769 161.537577 
Q 630.546809 158.16144 638.352878 158.16144 
Q 640.970522 158.16144 643.373934 158.617115 
Q 645.777346 159.067612 648 159.95825 
L 648 164.955139 
Q 645.757262 163.774527 643.581471 163.225646 
Q 641.40568 162.676765 639.002268 162.676765 
Q 634.690854 162.676765 632.220495 164.81533 
Q 629.75683 166.948717 629.75683 170.702857 
Q 629.75683 174.441463 632.220495 176.580028 
Q 634.690854 178.713415 639.002268 178.713415 
Q 641.40568 178.713415 643.581471 178.164534 
Q 645.757262 177.610475 648 176.429862 
L 648 181.43193 
z
" clip-path="url(#p4100929ca1)" style="fill: #0000ff"/>
   </g>
   <g id="patch_76">
    <path d="M 256.421053 192.495278 
Q 253.741281 192.367639 250.859037 192.303528 
Q 247.976793 192.24 244.903988 192.24 
Q 237.960401 192.24 233.905012 192.620002 
Q 229.849624 193.000005 229.849624 193.649856 
Q 229.849624 194.307283 233.976473 194.684371 
Q 238.109277 195.06146 245.297021 195.06146 
Q 248.066119 195.06146 250.60297 195.010171 
Q 253.145776 194.959465 255.396784 194.859219 
L 255.396784 194.296792 
Q 253.074315 194.425597 250.775666 194.489125 
Q 248.477017 194.553236 246.166458 194.553236 
Q 241.890733 194.553236 239.574219 194.31894 
Q 237.257705 194.085227 237.257705 193.649856 
Q 237.257705 193.218565 239.490848 192.983103 
Q 241.723992 192.748224 245.832976 192.748224 
Q 246.952525 192.748224 247.911288 192.761629 
Q 248.870051 192.775617 249.632297 192.804758 
L 249.632297 193.332798 
L 245.255336 193.332798 
L 245.255336 193.803139 
L 256.421053 193.803139 
L 256.421053 192.495278 
z
" clip-path="url(#p4100929ca1)" style="fill: #ffa600"/>
   </g>
   <g id="patch_77">
    <path d="M 284.390977 192.616978 
Q 281.711205 192.428489 278.828962 192.333814 
Q 275.946718 192.24 272.873913 192.24 
Q 265.930326 192.24 261.874937 192.801163 
Q 257.819549 193.362326 257.819549 194.321984 
Q 257.819549 195.29283 261.946398 195.84969 
Q 266.079202 196.40655 273.266946 196.40655 
Q 276.036044 196.40655 278.572895 196.33081 
Q 281.115701 196.255931 283.366709 196.107894 
L 283.366709 195.277338 
Q 281.04424 195.467548 278.745591 195.561362 
Q 276.446942 195.656037 274.136383 195.656037 
Q 269.860658 195.656037 267.544144 195.310044 
Q 265.22763 194.964911 265.22763 194.321984 
Q 265.22763 193.685081 267.460773 193.337366 
Q 269.693917 192.990513 273.8029 192.990513 
Q 274.92245 192.990513 275.881212 193.010308 
Q 276.839975 193.030964 277.602222 193.073998 
L 277.602222 193.853774 
L 273.225261 193.853774 
L 273.225261 194.548342 
L 284.390977 194.548342 
L 284.390977 192.616978 
z
" clip-path="url(#p4100929ca1)" style="fill: #ffa600"/>
   </g>
   <g id="patch_78">
    <path d="M 312.360902 192.455973 
Q 309.68113 192.347987 306.798887 192.293747 
Q 303.916643 192.24 300.843838 192.24 
Q 293.90025 192.24 289.844862 192.561494 
Q 285.789474 192.882989 285.789474 193.432784 
Q 285.789474 193.988989 289.916323 194.308018 
Q 294.049127 194.627047 301.236871 194.627047 
Q 304.005969 194.627047 306.542819 194.583655 
Q 309.085625 194.540756 311.336634 194.455945 
L 311.336634 193.980113 
Q 309.014165 194.089086 306.715516 194.142833 
Q 304.416867 194.197073 302.106308 194.197073 
Q 297.830583 194.197073 295.514069 193.998851 
Q 293.197555 193.801122 293.197555 193.432784 
Q 293.197555 193.067897 295.430698 192.868689 
Q 297.663841 192.669974 301.772825 192.669974 
Q 302.892374 192.669974 303.851137 192.681315 
Q 304.8099 192.693149 305.572146 192.717804 
L 305.572146 193.164543 
L 301.195185 193.164543 
L 301.195185 193.562466 
L 312.360902 193.562466 
L 312.360902 192.455973 
z
" clip-path="url(#p4100929ca1)" style="fill: #ffa600"/>
   </g>
   <g id="patch_79">
    <path d="M 340.330827 192.322563 
Q 337.651055 192.281281 334.768811 192.260546 
Q 331.886568 192.24 328.813762 192.24 
Q 321.870175 192.24 317.814787 192.362901 
Q 313.759398 192.485803 313.759398 192.695979 
Q 313.759398 192.908606 317.886247 193.030565 
Q 322.019051 193.152524 329.206796 193.152524 
Q 331.975893 193.152524 334.512744 193.135936 
Q 337.05555 193.119537 339.306559 193.087115 
L 339.306559 192.905213 
Q 336.98409 192.946872 334.685441 192.967418 
Q 332.386792 192.988153 330.076233 192.988153 
Q 325.800508 192.988153 323.483993 192.912376 
Q 321.167479 192.836788 321.167479 192.695979 
Q 321.167479 192.55649 323.400623 192.480336 
Q 325.633766 192.404371 329.74275 192.404371 
Q 330.862299 192.404371 331.821062 192.408707 
Q 332.779825 192.413231 333.542071 192.422656 
L 333.542071 192.593436 
L 329.16511 192.593436 
L 329.16511 192.745555 
L 340.330827 192.745555 
L 340.330827 192.322563 
z
" clip-path="url(#p4100929ca1)" style="fill: #ffa600"/>
   </g>
   <g id="patch_80">
    <path d="M 592.06015 192.799432 
Q 589.380378 192.519716 586.498135 192.379219 
Q 583.615891 192.24 580.543086 192.24 
Q 573.599499 192.24 569.54411 193.072762 
Q 565.488722 193.905523 565.488722 195.329648 
Q 565.488722 196.770377 569.615571 197.596753 
Q 573.748375 198.423128 580.936119 198.423128 
Q 583.705217 198.423128 586.242068 198.310731 
Q 588.784873 198.199611 591.035882 197.979925 
L 591.035882 196.747387 
Q 588.713413 197.029657 586.414764 197.168877 
Q 584.116115 197.309373 581.805556 197.309373 
Q 577.529831 197.309373 575.213317 196.795922 
Q 572.896803 196.283748 572.896803 195.329648 
Q 572.896803 194.384489 575.129946 193.868483 
Q 577.363089 193.353755 581.472073 193.353755 
Q 582.591622 193.353755 583.550385 193.383132 
Q 584.509148 193.413785 585.271395 193.477647 
L 585.271395 194.634829 
L 580.894434 194.634829 
L 580.894434 195.665563 
L 592.06015 195.665563 
L 592.06015 192.799432 
z
" clip-path="url(#p4100929ca1)" style="fill: #ffa600"/>
   </g>
   <g id="patch_81">
    <path d="M 620.030075 192.519397 
Q 617.350303 192.379699 614.468059 192.30953 
Q 611.585816 192.24 608.51301 192.24 
Q 601.569423 192.24 597.514035 192.655906 
Q 593.458647 193.071813 593.458647 193.783063 
Q 593.458647 194.502607 597.585496 194.915324 
Q 601.7183 195.32804 608.906044 195.32804 
Q 611.675141 195.32804 614.211992 195.271906 
Q 616.754798 195.216409 619.005807 195.106691 
L 619.005807 194.491125 
Q 616.683338 194.632099 614.384689 194.701629 
Q 612.08604 194.771798 609.775481 194.771798 
Q 605.499756 194.771798 603.183242 194.515365 
Q 600.866728 194.259569 600.866728 193.783063 
Q 600.866728 193.311022 603.099871 193.053314 
Q 605.333014 192.796243 609.441998 192.796243 
Q 610.561547 192.796243 611.52031 192.810914 
Q 612.479073 192.826224 613.241319 192.858118 
L 613.241319 193.43605 
L 608.864358 193.43605 
L 608.864358 193.950829 
L 620.030075 193.950829 
L 620.030075 192.519397 
z
" clip-path="url(#p4100929ca1)" style="fill: #ffa600"/>
   </g>
   <g id="patch_82">
    <path d="M 648 193.078952 
Q 645.320228 192.659476 642.437984 192.44878 
Q 639.555741 192.24 636.482935 192.24 
Q 629.539348 192.24 625.48396 193.488851 
Q 621.428571 194.737703 621.428571 196.873392 
Q 621.428571 199.033982 625.55542 200.273256 
Q 629.688224 201.512531 636.875968 201.512531 
Q 639.645066 201.512531 642.181917 201.343974 
Q 644.724723 201.177333 646.975732 200.847881 
L 646.975732 198.999504 
Q 644.653262 199.422811 642.354614 199.631592 
Q 640.055965 199.842288 637.745406 199.842288 
Q 633.46968 199.842288 631.153166 199.07229 
Q 628.836652 198.304208 628.836652 196.873392 
Q 628.836652 195.455984 631.069796 194.682156 
Q 633.302939 193.910243 637.411923 193.910243 
Q 638.531472 193.910243 639.490235 193.954298 
Q 640.448998 194.000268 641.211244 194.096038 
L 641.211244 195.831406 
L 636.834283 195.831406 
L 636.834283 197.377147 
L 648 197.377147 
L 648 193.078952 
z
" clip-path="url(#p4100929ca1)" style="fill: #ffa600"/>
   </g>
   <g id="matplotlib.axis_1">
    <g id="xtick_1">
     <g id="line2d_2">
      <defs>
       <path id="mfc73e89a2c" d="M 0 0 
L 0 3.5 
" style="stroke: #000000; stroke-width: 0.8"/>
      </defs>
      <g>
       <use xlink:href="#mfc73e89a2c" x="103.285714" y="192.24" style="stroke: #000000; stroke-width: 0.8"/>
      </g>
     </g>
     <g id="text_1">
      <!-- 0.0 -->
      <g transform="translate(95.334152 206.838437) scale(0.1 -0.1)">
       <defs>
        <path id="DejaVuSans-30" d="M 2034 4250 
Q 1547 4250 1301 3770 
Q 1056 3291 1056 2328 
Q 1056 1369 1301 889 
Q 1547 409 2034 409 
Q 2525 409 2770 889 
Q 3016 1369 3016 2328 
Q 3016 3291 2770 3770 
Q 2525 4250 2034 4250 
z
M 2034 4750 
Q 2819 4750 3233 4129 
Q 3647 3509 3647 2328 
Q 3647 1150 3233 529 
Q 2819 -91 2034 -91 
Q 1250 -91 836 529 
Q 422 1150 422 2328 
Q 422 3509 836 4129 
Q 1250 4750 2034 4750 
z
" transform="scale(0.015625)"/>
        <path id="DejaVuSans-2e" d="M 684 794 
L 1344 794 
L 1344 0 
L 684 0 
L 684 794 
z
" transform="scale(0.015625)"/>
       </defs>
       <use xlink:href="#DejaVuSans-30"/>
       <use xlink:href="#DejaVuSans-2e" x="63.623047"/>
       <use xlink:href="#DejaVuSans-30" x="95.410156"/>
      </g>
     </g>
    </g>
    <g id="xtick_2">
     <g id="line2d_3">
      <g>
       <use xlink:href="#mfc73e89a2c" x="173.210526" y="192.24" style="stroke: #000000; stroke-width: 0.8"/>
      </g>
     </g>
     <g id="text_2">
      <!-- 2.5 -->
      <g transform="translate(165.258964 206.838437) scale(0.1 -0.1)">
       <defs>
        <path id="DejaVuSans-32" d="M 1228 531 
L 3431 531 
L 3431 0 
L 469 0 
L 469 531 
Q 828 903 1448 1529 
Q 2069 2156 2228 2338 
Q 2531 2678 2651 2914 
Q 2772 3150 2772 3378 
Q 2772 3750 2511 3984 
Q 2250 4219 1831 4219 
Q 1534 4219 1204 4116 
Q 875 4013 500 3803 
L 500 4441 
Q 881 4594 1212 4672 
Q 1544 4750 1819 4750 
Q 2544 4750 2975 4387 
Q 3406 4025 3406 3419 
Q 3406 3131 3298 2873 
Q 3191 2616 2906 2266 
Q 2828 2175 2409 1742 
Q 1991 1309 1228 531 
z
" transform="scale(0.015625)"/>
        <path id="DejaVuSans-35" d="M 691 4666 
L 3169 4666 
L 3169 4134 
L 1269 4134 
L 1269 2991 
Q 1406 3038 1543 3061 
Q 1681 3084 1819 3084 
Q 2600 3084 3056 2656 
Q 3513 2228 3513 1497 
Q 3513 744 3044 326 
Q 2575 -91 1722 -91 
Q 1428 -91 1123 -41 
Q 819 9 494 109 
L 494 744 
Q 775 591 1075 516 
Q 1375 441 1709 441 
Q 2250 441 2565 725 
Q 2881 1009 2881 1497 
Q 2881 1984 2565 2268 
Q 2250 2553 1709 2553 
Q 1456 2553 1204 2497 
Q 953 2441 691 2322 
L 691 4666 
z
" transform="scale(0.015625)"/>
       </defs>
       <use xlink:href="#DejaVuSans-32"/>
       <use xlink:href="#DejaVuSans-2e" x="63.623047"/>
       <use xlink:href="#DejaVuSans-35" x="95.410156"/>
      </g>
     </g>
    </g>
    <g id="xtick_3">
     <g id="line2d_4">
      <g>
       <use xlink:href="#mfc73e89a2c" x="243.135338" y="192.24" style="stroke: #000000; stroke-width: 0.8"/>
      </g>
     </g>
     <g id="text_3">
      <!-- 5.0 -->
      <g transform="translate(235.183776 206.838437) scale(0.1 -0.1)">
       <use xlink:href="#DejaVuSans-35"/>
       <use xlink:href="#DejaVuSans-2e" x="63.623047"/>
       <use xlink:href="#DejaVuSans-30" x="95.410156"/>
      </g>
     </g>
    </g>
    <g id="xtick_4">
     <g id="line2d_5">
      <g>
       <use xlink:href="#mfc73e89a2c" x="313.06015" y="192.24" style="stroke: #000000; stroke-width: 0.8"/>
      </g>
     </g>
     <g id="text_4">
      <!-- 7.5 -->
      <g transform="translate(305.108588 206.838437) scale(0.1 -0.1)">
       <defs>
        <path id="DejaVuSans-37" d="M 525 4666 
L 3525 4666 
L 3525 4397 
L 1831 0 
L 1172 0 
L 2766 4134 
L 525 4134 
L 525 4666 
z
" transform="scale(0.015625)"/>
       </defs>
       <use xlink:href="#DejaVuSans-37"/>
       <use xlink:href="#DejaVuSans-2e" x="63.623047"/>
       <use xlink:href="#DejaVuSans-35" x="95.410156"/>
      </g>
     </g>
    </g>
    <g id="xtick_5">
     <g id="line2d_6">
      <g>
       <use xlink:href="#mfc73e89a2c" x="382.984962" y="192.24" style="stroke: #000000; stroke-width: 0.8"/>
      </g>
     </g>
     <g id="text_5">
      <!-- 10.0 -->
      <g transform="translate(371.85215 206.838437) scale(0.1 -0.1)">
       <defs>
        <path id="DejaVuSans-31" d="M 794 531 
L 1825 531 
L 1825 4091 
L 703 3866 
L 703 4441 
L 1819 4666 
L 2450 4666 
L 2450 531 
L 3481 531 
L 3481 0 
L 794 0 
L 794 531 
z
" transform="scale(0.015625)"/>
       </defs>
       <use xlink:href="#DejaVuSans-31"/>
       <use xlink:href="#DejaVuSans-30" x="63.623047"/>
       <use xlink:href="#DejaVuSans-2e" x="127.246094"/>
       <use xlink:href="#DejaVuSans-30" x="159.033203"/>
      </g>
     </g>
    </g>
    <g id="xtick_6">
     <g id="line2d_7">
      <g>
       <use xlink:href="#mfc73e89a2c" x="452.909774" y="192.24" style="stroke: #000000; stroke-width: 0.8"/>
      </g>
     </g>
     <g id="text_6">
      <!-- 12.5 -->
      <g transform="translate(441.776962 206.838437) scale(0.1 -0.1)">
       <use xlink:href="#DejaVuSans-31"/>
       <use xlink:href="#DejaVuSans-32" x="63.623047"/>
       <use xlink:href="#DejaVuSans-2e" x="127.246094"/>
       <use xlink:href="#DejaVuSans-35" x="159.033203"/>
      </g>
     </g>
    </g>
    <g id="xtick_7">
     <g id="line2d_8">
      <g>
       <use xlink:href="#mfc73e89a2c" x="522.834586" y="192.24" style="stroke: #000000; stroke-width: 0.8"/>
      </g>
     </g>
     <g id="text_7">
      <!-- 15.0 -->
      <g transform="translate(511.701774 206.838437) scale(0.1 -0.1)">
       <use xlink:href="#DejaVuSans-31"/>
       <use xlink:href="#DejaVuSans-35" x="63.623047"/>
       <use xlink:href="#DejaVuSans-2e" x="127.246094"/>
       <use xlink:href="#DejaVuSans-30" x="159.033203"/>
      </g>
     </g>
    </g>
    <g id="xtick_8">
     <g id="line2d_9">
      <g>
       <use xlink:href="#mfc73e89a2c" x="592.759398" y="192.24" style="stroke: #000000; stroke-width: 0.8"/>
      </g>
     </g>
     <g id="text_8">
      <!-- 17.5 -->
      <g transform="translate(581.626586 206.838437) scale(0.1 -0.1)">
       <use xlink:href="#DejaVuSans-31"/>
       <use xlink:href="#DejaVuSans-37" x="63.623047"/>
       <use xlink:href="#DejaVuSans-2e" x="127.246094"/>
       <use xlink:href="#DejaVuSans-35" x="159.033203"/>
      </g>
     </g>
    </g>
   </g>
   <g id="matplotlib.axis_2">
    <g id="ytick_1">
     <g id="line2d_10">
      <defs>
       <path id="m699d93e798" d="M 0 0 
L -3.5 0 
" style="stroke: #000000; stroke-width: 0.8"/>
      </defs>
      <g>
       <use xlink:href="#m699d93e798" x="90" y="192.24" style="stroke: #000000; stroke-width: 0.8"/>
      </g>
     </g>
     <g id="text_9">
      <!-- 0.000 -->
      <g transform="translate(54.371875 196.039219) scale(0.1 -0.1)">
       <use xlink:href="#DejaVuSans-30"/>
       <use xlink:href="#DejaVuSans-2e" x="63.623047"/>
       <use xlink:href="#DejaVuSans-30" x="95.410156"/>
       <use xlink:href="#DejaVuSans-30" x="159.033203"/>
       <use xlink:href="#DejaVuSans-30" x="222.65625"/>
      </g>
     </g>
    </g>
    <g id="ytick_2">
     <g id="line2d_11">
      <g>
       <use xlink:href="#m699d93e798" x="90" y="157.071492" style="stroke: #000000; stroke-width: 0.8"/>
      </g>
     </g>
     <g id="text_10">
      <!-- 0.002 -->
      <g transform="translate(54.371875 160.870711) scale(0.1 -0.1)">
       <use xlink:href="#DejaVuSans-30"/>
       <use xlink:href="#DejaVuSans-2e" x="63.623047"/>
       <use xlink:href="#DejaVuSans-30" x="95.410156"/>
       <use xlink:href="#DejaVuSans-30" x="159.033203"/>
       <use xlink:href="#DejaVuSans-32" x="222.65625"/>
      </g>
     </g>
    </g>
    <g id="ytick_3">
     <g id="line2d_12">
      <g>
       <use xlink:href="#m699d93e798" x="90" y="121.902985" style="stroke: #000000; stroke-width: 0.8"/>
      </g>
     </g>
     <g id="text_11">
      <!-- 0.004 -->
      <g transform="translate(54.371875 125.702204) scale(0.1 -0.1)">
       <defs>
        <path id="DejaVuSans-34" d="M 2419 4116 
L 825 1625 
L 2419 1625 
L 2419 4116 
z
M 2253 4666 
L 3047 4666 
L 3047 1625 
L 3713 1625 
L 3713 1100 
L 3047 1100 
L 3047 0 
L 2419 0 
L 2419 1100 
L 313 1100 
L 313 1709 
L 2253 4666 
z
" transform="scale(0.015625)"/>
       </defs>
       <use xlink:href="#DejaVuSans-30"/>
       <use xlink:href="#DejaVuSans-2e" x="63.623047"/>
       <use xlink:href="#DejaVuSans-30" x="95.410156"/>
       <use xlink:href="#DejaVuSans-30" x="159.033203"/>
       <use xlink:href="#DejaVuSans-34" x="222.65625"/>
      </g>
     </g>
    </g>
    <g id="ytick_4">
     <g id="line2d_13">
      <g>
       <use xlink:href="#m699d93e798" x="90" y="86.734477" style="stroke: #000000; stroke-width: 0.8"/>
      </g>
     </g>
     <g id="text_12">
      <!-- 0.006 -->
      <g transform="translate(54.371875 90.533696) scale(0.1 -0.1)">
       <defs>
        <path id="DejaVuSans-36" d="M 2113 2584 
Q 1688 2584 1439 2293 
Q 1191 2003 1191 1497 
Q 1191 994 1439 701 
Q 1688 409 2113 409 
Q 2538 409 2786 701 
Q 3034 994 3034 1497 
Q 3034 2003 2786 2293 
Q 2538 2584 2113 2584 
z
M 3366 4563 
L 3366 3988 
Q 3128 4100 2886 4159 
Q 2644 4219 2406 4219 
Q 1781 4219 1451 3797 
Q 1122 3375 1075 2522 
Q 1259 2794 1537 2939 
Q 1816 3084 2150 3084 
Q 2853 3084 3261 2657 
Q 3669 2231 3669 1497 
Q 3669 778 3244 343 
Q 2819 -91 2113 -91 
Q 1303 -91 875 529 
Q 447 1150 447 2328 
Q 447 3434 972 4092 
Q 1497 4750 2381 4750 
Q 2619 4750 2861 4703 
Q 3103 4656 3366 4563 
z
" transform="scale(0.015625)"/>
       </defs>
       <use xlink:href="#DejaVuSans-30"/>
       <use xlink:href="#DejaVuSans-2e" x="63.623047"/>
       <use xlink:href="#DejaVuSans-30" x="95.410156"/>
       <use xlink:href="#DejaVuSans-30" x="159.033203"/>
       <use xlink:href="#DejaVuSans-36" x="222.65625"/>
      </g>
     </g>
    </g>
    <g id="ytick_5">
     <g id="line2d_14">
      <g>
       <use xlink:href="#m699d93e798" x="90" y="51.56597" style="stroke: #000000; stroke-width: 0.8"/>
      </g>
     </g>
     <g id="text_13">
      <!-- 0.008 -->
      <g transform="translate(54.371875 55.365189) scale(0.1 -0.1)">
       <defs>
        <path id="DejaVuSans-38" d="M 2034 2216 
Q 1584 2216 1326 1975 
Q 1069 1734 1069 1313 
Q 1069 891 1326 650 
Q 1584 409 2034 409 
Q 2484 409 2743 651 
Q 3003 894 3003 1313 
Q 3003 1734 2745 1975 
Q 2488 2216 2034 2216 
z
M 1403 2484 
Q 997 2584 770 2862 
Q 544 3141 544 3541 
Q 544 4100 942 4425 
Q 1341 4750 2034 4750 
Q 2731 4750 3128 4425 
Q 3525 4100 3525 3541 
Q 3525 3141 3298 2862 
Q 3072 2584 2669 2484 
Q 3125 2378 3379 2068 
Q 3634 1759 3634 1313 
Q 3634 634 3220 271 
Q 2806 -91 2034 -91 
Q 1263 -91 848 271 
Q 434 634 434 1313 
Q 434 1759 690 2068 
Q 947 2378 1403 2484 
z
M 1172 3481 
Q 1172 3119 1398 2916 
Q 1625 2713 2034 2713 
Q 2441 2713 2670 2916 
Q 2900 3119 2900 3481 
Q 2900 3844 2670 4047 
Q 2441 4250 2034 4250 
Q 1625 4250 1398 4047 
Q 1172 3844 1172 3481 
z
" transform="scale(0.015625)"/>
       </defs>
       <use xlink:href="#DejaVuSans-30"/>
       <use xlink:href="#DejaVuSans-2e" x="63.623047"/>
       <use xlink:href="#DejaVuSans-30" x="95.410156"/>
       <use xlink:href="#DejaVuSans-30" x="159.033203"/>
       <use xlink:href="#DejaVuSans-38" x="222.65625"/>
      </g>
     </g>
    </g>
   </g>
  </g>
 </g>
 <defs>
  <clipPath id="p4100929ca1">
   <rect x="90" y="25.92" width="558" height="166.32"/>
  </clipPath>
 </defs>
</svg>
