<?xml version="1.0" encoding="utf-8" standalone="no"?>
<!DOCTYPE svg PUBLIC "-//W3C//DTD SVG 1.1//EN"
  "http://www.w3.org/Graphics/SVG/1.1/DTD/svg11.dtd">
<svg xmlns:xlink="http://www.w3.org/1999/xlink" width="720pt" height="216pt" viewBox="0 0 720 216" xmlns="http://www.w3.org/2000/svg" version="1.1">
 <metadata>
  <rdf:RDF xmlns:dc="http://purl.org/dc/elements/1.1/" xmlns:cc="http://creativecommons.org/ns#" xmlns:rdf="http://www.w3.org/1999/02/22-rdf-syntax-ns#">
   <cc:Work>
    <dc:type rdf:resource="http://purl.org/dc/dcmitype/StillImage"/>
    <dc:date>2024-11-23T04:41:30.018660</dc:date>
    <dc:format>image/svg+xml</dc:format>
    <dc:creator>
     <cc:Agent>
      <dc:title>Matplotlib v3.7.2, https://matplotlib.org/</dc:title>
     </cc:Agent>
    </dc:creator>
   </cc:Work>
  </rdf:RDF>
 </metadata>
 <defs>
  <style type="text/css">*{stroke-linejoin: round; stroke-linecap: butt}</style>
 </defs>
 <g id="figure_1">
  <g id="patch_1">
   <path d="M 0 216 
L 720 216 
L 720 0 
L 0 0 
z
" style="fill: #ffffff"/>
  </g>
  <g id="axes_1">
   <g id="patch_2">
    <path d="M 90 192.24 
L 648 192.24 
L 648 25.92 
L 90 25.92 
z
" style="fill: #ffffff"/>
   </g>
   <g id="line2d_1">
    <path d="M 90 192.24 
L 648 192.24 
" clip-path="url(#pcce047005b)" style="fill: none; stroke: #000000; stroke-width: 0.5; stroke-linecap: square"/>
   </g>
   <g id="patch_3">
    <path d="M 90 185.274704 
L 107.699499 185.274704 
L 107.699499 186.633131 
L 101.331796 186.633131 
L 101.331796 192.24 
L 96.380052 192.24 
L 96.380052 186.633131 
L 90 186.633131 
L 90 185.274704 
z
" clip-path="url(#pcce047005b)" style="fill: #ff0000"/>
   </g>
   <g id="patch_4">
    <path d="M 102.260459 183.788796 
L 95.453516 183.788796 
L 94.378735 185.274704 
L 90 185.274704 
L 96.253268 177.117942 
L 101.446231 177.117942 
L 107.699499 185.274704 
L 103.324383 185.274704 
L 102.260459 183.788796 
z
M 96.539153 182.274918 
L 101.163965 182.274918 
L 98.855178 179.030393 
L 96.539153 182.274918 
z
" clip-path="url(#pcce047005b)" style="fill: #008000"/>
   </g>
   <g id="patch_5">
    <path d="M 107.699499 175.870595 
Q 106.218967 176.488877 104.618029 176.801612 
Q 103.017092 177.117942 101.273453 177.117942 
Q 96.073751 177.117942 93.036876 174.774224 
Q 90 172.430505 90 168.422459 
Q 90 164.400034 93.036876 162.05991 
Q 96.073751 159.716191 101.273453 159.716191 
Q 103.017092 159.716191 104.618029 160.032521 
Q 106.218967 160.345257 107.699499 160.963538 
L 107.699499 164.432386 
Q 106.205588 163.612803 104.756272 163.231769 
Q 103.306955 162.850735 101.706018 162.850735 
Q 98.834142 162.850735 97.18861 164.33533 
Q 95.547538 165.81633 95.547538 168.422459 
Q 95.547538 171.017804 97.18861 172.502398 
Q 98.834142 173.983398 101.706018 173.983398 
Q 103.306955 173.983398 104.756272 173.602364 
Q 106.205588 173.217736 107.699499 172.398153 
L 107.699499 175.870595 
z
" clip-path="url(#pcce047005b)" style="fill: #0000ff"/>
   </g>
   <g id="patch_6">
    <path d="M 107.699499 156.890931 
Q 105.914476 158.303561 103.994584 159.013101 
Q 102.074692 159.716191 100.027865 159.716191 
Q 95.402671 159.716191 92.701335 155.510553 
Q 90 151.304914 90 144.112757 
Q 90 136.836744 92.748936 132.663358 
Q 95.501839 128.489971 100.289668 128.489971 
Q 102.134193 128.489971 103.824015 129.057603 
Q 105.517804 129.618785 107.017224 130.728248 
L 107.017224 136.952851 
Q 105.470203 135.52732 103.93905 134.82423 
Q 102.407896 134.11469 100.868809 134.11469 
Q 98.020705 134.11469 96.477652 136.707737 
Q 94.934598 139.294333 94.934598 144.112757 
Q 94.934598 148.886027 96.422118 151.491975 
Q 97.909637 154.091472 100.646673 154.091472 
Q 101.392416 154.091472 102.031058 153.943114 
Q 102.6697 153.788305 103.17744 153.465787 
L 103.17744 147.621756 
L 100.261901 147.621756 
L 100.261901 142.41631 
L 107.699499 142.41631 
L 107.699499 156.890931 
z
" clip-path="url(#pcce047005b)" style="fill: #ffa600"/>
   </g>
   <g id="patch_7">
    <path d="M 120.89151 191.030732 
L 114.084567 191.030732 
L 113.009787 192.24 
L 108.631052 192.24 
L 114.88432 185.601831 
L 120.077283 185.601831 
L 126.330551 192.24 
L 121.955434 192.24 
L 120.89151 191.030732 
z
M 115.170204 189.798702 
L 119.795017 189.798702 
L 117.48623 187.15823 
L 115.170204 189.798702 
z
" clip-path="url(#pcce047005b)" style="fill: #008000"/>
   </g>
   <g id="patch_8">
    <path d="M 126.330551 184.857361 
Q 124.850018 185.226378 123.249081 185.413032 
Q 121.648144 185.601831 119.904504 185.601831 
Q 114.704803 185.601831 111.667927 184.202999 
Q 108.631052 182.804168 108.631052 180.411995 
Q 108.631052 178.011239 111.667927 176.614553 
Q 114.704803 175.215722 119.904504 175.215722 
Q 121.648144 175.215722 123.249081 175.404521 
Q 124.850018 175.591175 126.330551 175.960192 
L 126.330551 178.030548 
Q 124.83664 177.541386 123.387324 177.313969 
Q 121.938007 177.086552 120.33707 177.086552 
Q 117.465193 177.086552 115.819662 177.972621 
Q 114.178589 178.856545 114.178589 180.411995 
Q 114.178589 181.961007 115.819662 182.847077 
Q 117.465193 183.731001 120.33707 183.731001 
Q 121.938007 183.731001 123.387324 183.503584 
Q 124.83664 183.274021 126.330551 182.784859 
L 126.330551 184.857361 
z
" clip-path="url(#pcce047005b)" style="fill: #0000ff"/>
   </g>
   <g id="patch_9">
    <path d="M 126.330551 171.345413 
Q 124.545527 173.280567 122.625636 174.252563 
Q 120.705744 175.215722 118.658917 175.215722 
Q 114.033723 175.215722 111.332387 169.45444 
Q 108.631052 163.693159 108.631052 153.840661 
Q 108.631052 143.873291 111.379988 138.156191 
Q 114.132891 132.439091 118.92072 132.439091 
Q 120.765244 132.439091 122.455067 133.216687 
Q 124.148856 133.985447 125.648275 135.505295 
L 125.648275 144.032344 
Q 124.101255 142.079517 122.570102 141.116358 
Q 121.038948 140.144363 119.499861 140.144363 
Q 116.651757 140.144363 115.108704 143.696564 
Q 113.56565 147.239929 113.56565 153.840661 
Q 113.56565 160.379539 115.053169 163.949412 
Q 116.540689 167.51045 119.277725 167.51045 
Q 120.023468 167.51045 120.66211 167.307214 
Q 121.300752 167.095143 121.808492 166.653327 
L 121.808492 158.64762 
L 118.892953 158.64762 
L 118.892953 151.516708 
L 126.330551 151.516708 
L 126.330551 171.345413 
z
" clip-path="url(#pcce047005b)" style="fill: #ffa600"/>
   </g>
   <g id="patch_10">
    <path d="M 127.262104 187.961414 
L 144.961603 187.961414 
L 144.961603 188.795857 
L 138.593899 188.795857 
L 138.593899 192.24 
L 133.642156 192.24 
L 133.642156 188.795857 
L 127.262104 188.795857 
L 127.262104 187.961414 
z
" clip-path="url(#pcce047005b)" style="fill: #ff0000"/>
   </g>
   <g id="patch_11">
    <path d="M 139.522562 186.890985 
L 132.715619 186.890985 
L 131.640839 187.961414 
L 127.262104 187.961414 
L 133.515372 182.08539 
L 138.708335 182.08539 
L 144.961603 187.961414 
L 140.586486 187.961414 
L 139.522562 186.890985 
z
M 133.801256 185.800407 
L 138.426069 185.800407 
L 136.117281 183.463094 
L 133.801256 185.800407 
z
" clip-path="url(#pcce047005b)" style="fill: #008000"/>
   </g>
   <g id="patch_12">
    <path d="M 144.961603 181.637189 
Q 143.48107 181.859352 141.880133 181.971725 
Q 140.279195 182.08539 138.535556 182.08539 
Q 133.335855 182.08539 130.298979 181.243237 
Q 127.262104 180.401085 127.262104 178.960901 
Q 127.262104 177.51555 130.298979 176.674689 
Q 133.335855 175.832536 138.535556 175.832536 
Q 140.279195 175.832536 141.880133 175.946201 
Q 143.48107 176.058574 144.961603 176.280737 
L 144.961603 177.527175 
Q 143.467692 177.23268 142.018375 177.095765 
Q 140.569059 176.958851 138.968121 176.958851 
Q 136.096245 176.958851 134.450713 177.4923 
Q 132.809641 178.024458 132.809641 178.960901 
Q 132.809641 179.893468 134.450713 180.426918 
Q 136.096245 180.959075 138.968121 180.959075 
Q 140.569059 180.959075 142.018375 180.822161 
Q 143.467692 180.683955 144.961603 180.38946 
L 144.961603 181.637189 
z
" clip-path="url(#pcce047005b)" style="fill: #0000ff"/>
   </g>
   <g id="patch_13">
    <path d="M 144.961603 172.829517 
Q 143.176579 174.331027 141.256687 175.08521 
Q 139.336795 175.832536 137.289969 175.832536 
Q 132.664774 175.832536 129.963439 171.362288 
Q 127.262104 166.89204 127.262104 159.247367 
Q 127.262104 151.513564 130.01104 147.077597 
Q 132.763942 142.641629 137.551772 142.641629 
Q 139.396296 142.641629 141.086118 143.244976 
Q 142.779907 143.841466 144.279327 145.020734 
L 144.279327 151.636975 
Q 142.732307 150.121753 141.201153 149.374426 
Q 139.67 148.620244 138.130913 148.620244 
Q 135.282809 148.620244 133.739755 151.376439 
Q 132.196702 154.125779 132.196702 159.247367 
Q 132.196702 164.320962 133.684221 167.09087 
Q 135.171741 169.853922 137.908777 169.853922 
Q 138.65452 169.853922 139.293162 169.696229 
Q 139.931803 169.53168 140.439543 169.18887 
L 140.439543 162.977145 
L 137.524005 162.977145 
L 137.524005 157.444184 
L 144.961603 157.444184 
L 144.961603 172.829517 
z
" clip-path="url(#pcce047005b)" style="fill: #ffa600"/>
   </g>
   <g id="patch_14">
    <path d="M 145.893155 191.740923 
L 163.592654 191.740923 
L 163.592654 191.838257 
L 157.224951 191.838257 
L 157.224951 192.24 
L 152.273207 192.24 
L 152.273207 191.838257 
L 145.893155 191.838257 
L 145.893155 191.740923 
z
" clip-path="url(#pcce047005b)" style="fill: #ff0000"/>
   </g>
   <g id="patch_15">
    <path d="M 158.153614 191.076794 
L 151.346671 191.076794 
L 150.27189 191.740923 
L 145.893155 191.740923 
L 152.146423 188.095247 
L 157.339386 188.095247 
L 163.592654 191.740923 
L 159.217538 191.740923 
L 158.153614 191.076794 
z
M 152.432308 190.400165 
L 157.057121 190.400165 
L 154.748333 188.95002 
L 152.432308 190.400165 
z
" clip-path="url(#pcce047005b)" style="fill: #008000"/>
   </g>
   <g id="patch_16">
    <path d="M 163.592654 186.601422 
Q 162.112122 187.341877 160.511185 187.71641 
Q 158.910247 188.095247 157.166608 188.095247 
Q 151.966906 188.095247 148.930031 185.288405 
Q 145.893155 182.481563 145.893155 177.681518 
Q 145.893155 172.864253 148.930031 170.061716 
Q 151.966906 167.254874 157.166608 167.254874 
Q 158.910247 167.254874 160.511185 167.633712 
Q 162.112122 168.008244 163.592654 168.748699 
L 163.592654 172.902998 
Q 162.098744 171.921464 160.649427 171.465137 
Q 159.200111 171.00881 157.599173 171.00881 
Q 154.727297 171.00881 153.081765 172.786764 
Q 151.440693 174.560413 151.440693 177.681518 
Q 151.440693 180.789708 153.081765 182.567662 
Q 154.727297 184.341311 157.599173 184.341311 
Q 159.200111 184.341311 160.649427 183.884984 
Q 162.098744 183.424352 163.592654 182.442818 
L 163.592654 186.601422 
z
" clip-path="url(#pcce047005b)" style="fill: #0000ff"/>
   </g>
   <g id="patch_17">
    <path d="M 163.592654 164.882837 
Q 161.807631 166.068856 159.887739 166.664573 
Q 157.967847 167.254874 155.92102 167.254874 
Q 151.295826 167.254874 148.594491 163.723897 
Q 145.893155 160.192921 145.893155 154.154517 
Q 145.893155 148.045711 148.642091 144.541812 
Q 151.394994 141.037913 156.182824 141.037913 
Q 158.027348 141.037913 159.71717 141.514487 
Q 161.410959 141.985645 162.910379 142.91713 
L 162.910379 148.143192 
Q 161.363358 146.946342 159.832205 146.356041 
Q 158.301052 145.760324 156.761965 145.760324 
Q 153.913861 145.760324 152.370807 147.937399 
Q 150.827753 150.109058 150.827753 154.154517 
Q 150.827753 158.162067 152.315273 160.349973 
Q 153.802792 162.532463 156.539828 162.532463 
Q 157.285572 162.532463 157.924213 162.407904 
Q 158.562855 162.27793 159.070595 162.007149 
L 159.070595 157.100608 
L 156.155057 157.100608 
L 156.155057 152.730212 
L 163.592654 152.730212 
L 163.592654 164.882837 
z
" clip-path="url(#pcce047005b)" style="fill: #ffa600"/>
   </g>
   <g id="patch_18">
    <path d="M 176.784666 191.484707 
L 169.977723 191.484707 
L 168.902942 192.24 
L 164.524207 192.24 
L 170.777475 188.093887 
L 175.970438 188.093887 
L 182.223706 192.24 
L 177.84859 192.24 
L 176.784666 191.484707 
z
M 171.06336 190.715197 
L 175.688172 190.715197 
L 173.379385 189.065993 
L 171.06336 190.715197 
z
" clip-path="url(#pcce047005b)" style="fill: #008000"/>
   </g>
   <g id="patch_19">
    <path d="M 164.524207 181.405159 
L 182.223706 181.405159 
L 182.223706 182.709647 
L 175.856003 182.709647 
L 175.856003 188.093887 
L 170.904259 188.093887 
L 170.904259 182.709647 
L 164.524207 182.709647 
L 164.524207 181.405159 
z
" clip-path="url(#pcce047005b)" style="fill: #ff0000"/>
   </g>
   <g id="patch_20">
    <path d="M 182.223706 180.66581 
Q 180.743174 181.032288 179.142236 181.217658 
Q 177.541299 181.405159 175.79766 181.405159 
Q 170.597958 181.405159 167.561083 180.015951 
Q 164.524207 178.626743 164.524207 176.251027 
Q 164.524207 173.866788 167.561083 172.479711 
Q 170.597958 171.090503 175.79766 171.090503 
Q 177.541299 171.090503 179.142236 171.278004 
Q 180.743174 171.463374 182.223706 171.829852 
L 182.223706 173.885965 
Q 180.729795 173.400168 179.280479 173.174315 
Q 177.831162 172.948462 176.230225 172.948462 
Q 173.358349 172.948462 171.712817 173.828436 
Q 170.071745 174.706279 170.071745 176.251027 
Q 170.071745 177.789383 171.712817 178.669357 
Q 173.358349 179.5472 176.230225 179.5472 
Q 177.831162 179.5472 179.280479 179.321347 
Q 180.729795 179.093363 182.223706 178.607567 
L 182.223706 180.66581 
z
" clip-path="url(#pcce047005b)" style="fill: #0000ff"/>
   </g>
   <g id="patch_21">
    <path d="M 182.223706 167.77894 
Q 180.438683 169.434722 178.518791 170.266393 
Q 176.598899 171.090503 174.552072 171.090503 
Q 169.926878 171.090503 167.225542 166.160962 
Q 164.524207 161.23142 164.524207 152.801299 
Q 164.524207 144.27289 167.273143 139.381151 
Q 170.026046 134.489413 174.813876 134.489413 
Q 176.6584 134.489413 178.348222 135.15475 
Q 180.042011 135.812526 181.541431 137.112957 
L 181.541431 144.408981 
Q 179.99441 142.738078 178.463257 141.913968 
Q 176.932103 141.082297 175.393016 141.082297 
Q 172.544912 141.082297 171.001859 144.121677 
Q 169.458805 147.153496 169.458805 152.801299 
Q 169.458805 158.396178 170.946325 161.450679 
Q 172.433844 164.497619 175.17088 164.497619 
Q 175.916623 164.497619 176.555265 164.323725 
Q 177.193907 164.142269 177.701647 163.764237 
L 177.701647 156.914291 
L 174.786108 156.914291 
L 174.786108 150.812849 
L 182.223706 150.812849 
L 182.223706 167.77894 
z
" clip-path="url(#pcce047005b)" style="fill: #ffa600"/>
   </g>
   <g id="patch_22">
    <path d="M 183.155259 190.321227 
L 200.854758 190.321227 
L 200.854758 190.695441 
L 194.487054 190.695441 
L 194.487054 192.24 
L 189.535311 192.24 
L 189.535311 190.695441 
L 183.155259 190.695441 
L 183.155259 190.321227 
z
" clip-path="url(#pcce047005b)" style="fill: #ff0000"/>
   </g>
   <g id="patch_23">
    <path d="M 200.854758 190.157662 
Q 199.374225 190.238738 197.773288 190.279747 
Q 196.172351 190.321227 194.428711 190.321227 
Q 189.22901 190.321227 186.192134 190.013895 
Q 183.155259 189.706563 183.155259 189.180988 
Q 183.155259 188.653528 186.192134 188.346667 
Q 189.22901 188.039336 194.428711 188.039336 
Q 196.172351 188.039336 197.773288 188.080816 
Q 199.374225 188.121825 200.854758 188.2029 
L 200.854758 188.65777 
Q 199.360847 188.550298 197.911531 188.500333 
Q 196.462214 188.450368 194.861277 188.450368 
Q 191.9894 188.450368 190.343869 188.645043 
Q 188.702796 188.839247 188.702796 189.180988 
Q 188.702796 189.521316 190.343869 189.715991 
Q 191.9894 189.910194 194.861277 189.910194 
Q 196.462214 189.910194 197.911531 189.860229 
Q 199.360847 189.809793 200.854758 189.702321 
L 200.854758 190.157662 
z
" clip-path="url(#pcce047005b)" style="fill: #0000ff"/>
   </g>
   <g id="patch_24">
    <path d="M 195.415717 187.091105 
L 188.608774 187.091105 
L 187.533994 188.039336 
L 183.155259 188.039336 
L 189.408527 182.834108 
L 194.60149 182.834108 
L 200.854758 188.039336 
L 196.479641 188.039336 
L 195.415717 187.091105 
z
M 189.694411 186.125025 
L 194.319224 186.125025 
L 192.010437 184.054536 
L 189.694411 186.125025 
z
" clip-path="url(#pcce047005b)" style="fill: #008000"/>
   </g>
   <g id="patch_25">
    <path d="M 200.854758 179.523497 
Q 199.069734 181.178802 197.149843 182.010234 
Q 195.229951 182.834108 193.183124 182.834108 
Q 188.55793 182.834108 185.856594 177.905984 
Q 183.155259 172.977861 183.155259 164.550165 
Q 183.155259 156.02421 185.904195 151.133879 
Q 188.657098 146.243548 193.444927 146.243548 
Q 195.289451 146.243548 196.979274 146.908693 
Q 198.673063 147.56628 200.172482 148.866338 
L 200.172482 156.160262 
Q 198.625462 154.48984 197.094309 153.665967 
Q 195.563155 152.834535 194.024068 152.834535 
Q 191.175964 152.834535 189.632911 155.87304 
Q 188.089857 158.903987 188.089857 164.550165 
Q 188.089857 170.143434 189.577376 173.197057 
Q 191.064896 176.243121 193.801932 176.243121 
Q 194.547675 176.243121 195.186317 176.069276 
Q 195.824959 175.887872 196.332699 175.509949 
L 196.332699 168.661974 
L 193.41716 168.661974 
L 193.41716 162.562288 
L 200.854758 162.562288 
L 200.854758 179.523497 
z
" clip-path="url(#pcce047005b)" style="fill: #ffa600"/>
   </g>
   <g id="patch_26">
    <path d="M 219.48581 191.809874 
Q 217.700786 192.024937 215.780894 192.13296 
Q 213.861002 192.24 211.814176 192.24 
Q 207.188981 192.24 204.487646 191.599721 
Q 201.786311 190.959442 201.786311 189.864487 
Q 201.786311 188.756765 204.535247 188.121397 
Q 207.288149 187.486028 212.075979 187.486028 
Q 213.920503 187.486028 215.610325 187.572446 
Q 217.304114 187.657882 218.803534 187.82679 
L 218.803534 188.774442 
Q 217.256514 188.557415 215.72536 188.450374 
Q 214.194207 188.342352 212.65512 188.342352 
Q 209.807016 188.342352 208.263962 188.737125 
Q 206.720909 189.130916 206.720909 189.864487 
Q 206.720909 190.591184 208.208428 190.987921 
Q 209.695948 191.383676 212.432984 191.383676 
Q 213.178727 191.383676 213.817369 191.36109 
Q 214.45601 191.337521 214.96375 191.28842 
L 214.96375 190.398707 
L 212.048212 190.398707 
L 212.048212 189.606215 
L 219.48581 189.606215 
L 219.48581 191.809874 
z
" clip-path="url(#pcce047005b)" style="fill: #ffa600"/>
   </g>
   <g id="patch_27">
    <path d="M 214.046769 186.38653 
L 207.239826 186.38653 
L 206.165046 187.486028 
L 201.786311 187.486028 
L 208.039579 181.450429 
L 213.232542 181.450429 
L 219.48581 187.486028 
L 215.110693 187.486028 
L 214.046769 186.38653 
z
M 208.325463 185.266335 
L 212.950276 185.266335 
L 210.641488 182.865548 
L 208.325463 185.266335 
z
" clip-path="url(#pcce047005b)" style="fill: #008000"/>
   </g>
   <g id="patch_28">
    <path d="M 219.48581 178.081945 
Q 218.005277 179.751626 216.40434 180.596173 
Q 214.803402 181.450429 213.059763 181.450429 
Q 207.860062 181.450429 204.823186 175.121174 
Q 201.786311 168.79192 201.786311 157.968119 
Q 201.786311 147.105488 204.823186 140.785942 
Q 207.860062 134.456687 213.059763 134.456687 
Q 214.803402 134.456687 216.40434 135.310943 
Q 218.005277 136.15549 219.48581 137.825171 
L 219.48581 147.192855 
Q 217.991899 144.979558 216.542582 143.950569 
Q 215.093266 142.921579 213.492328 142.921579 
Q 210.620452 142.921579 208.97492 146.930754 
Q 207.333848 150.930222 207.333848 157.968119 
Q 207.333848 164.976894 208.97492 168.986069 
Q 210.620452 172.985537 213.492328 172.985537 
Q 215.093266 172.985537 216.542582 171.956547 
Q 217.991899 170.917851 219.48581 168.704553 
L 219.48581 178.081945 
z
" clip-path="url(#pcce047005b)" style="fill: #0000ff"/>
   </g>
   <g id="patch_29">
    <path d="M 238.116861 192.076084 
Q 236.636329 192.157333 235.035392 192.19843 
Q 233.434454 192.24 231.690815 192.24 
Q 226.491113 192.24 223.454238 191.932008 
Q 220.417362 191.624015 220.417362 191.097311 
Q 220.417362 190.568717 223.454238 190.261197 
Q 226.491113 189.953205 231.690815 189.953205 
Q 233.434454 189.953205 235.035392 189.994774 
Q 236.636329 190.035871 238.116861 190.117121 
L 238.116861 190.572968 
Q 236.622951 190.465265 235.173634 190.415193 
Q 233.724318 190.365121 232.12338 190.365121 
Q 229.251504 190.365121 227.605972 190.560214 
Q 225.9649 190.754835 225.9649 191.097311 
Q 225.9649 191.43837 227.605972 191.633463 
Q 229.251504 191.828084 232.12338 191.828084 
Q 233.724318 191.828084 235.173634 191.778012 
Q 236.622951 191.727467 238.116861 191.619764 
L 238.116861 192.076084 
z
" clip-path="url(#pcce047005b)" style="fill: #0000ff"/>
   </g>
   <g id="patch_30">
    <path d="M 220.417362 185.211722 
L 238.116861 185.211722 
L 238.116861 186.136443 
L 231.749158 186.136443 
L 231.749158 189.953205 
L 226.797414 189.953205 
L 226.797414 186.136443 
L 220.417362 186.136443 
L 220.417362 185.211722 
z
" clip-path="url(#pcce047005b)" style="fill: #ff0000"/>
   </g>
   <g id="patch_31">
    <path d="M 232.677821 184.133042 
L 225.870878 184.133042 
L 224.796097 185.211722 
L 220.417362 185.211722 
L 226.67063 179.290403 
L 231.863593 179.290403 
L 238.116861 185.211722 
L 233.741745 185.211722 
L 232.677821 184.133042 
z
M 226.956515 183.034057 
L 231.581328 183.034057 
L 229.27254 180.678727 
L 226.956515 183.034057 
z
" clip-path="url(#pcce047005b)" style="fill: #008000"/>
   </g>
   <g id="patch_32">
    <path d="M 238.116861 173.636022 
Q 236.331838 176.463212 234.411946 177.883262 
Q 232.492054 179.290403 230.445227 179.290403 
Q 225.820033 179.290403 223.118698 170.873379 
Q 220.417362 162.456355 220.417362 148.062212 
Q 220.417362 133.500245 223.166298 125.147769 
Q 225.919201 116.795293 230.707031 116.795293 
Q 232.551555 116.795293 234.241377 117.931333 
Q 235.935166 119.054463 237.434586 121.274905 
L 237.434586 133.732617 
Q 235.887565 130.879607 234.356412 129.472467 
Q 232.825259 128.052417 231.286172 128.052417 
Q 228.438068 128.052417 226.895014 133.242054 
Q 225.35196 138.418782 225.35196 148.062212 
Q 225.35196 157.615276 226.83948 162.830732 
Q 228.327 168.033279 231.064035 168.033279 
Q 231.809779 168.033279 232.44842 167.736359 
Q 233.087062 167.42653 233.594802 166.781053 
L 233.594802 155.085005 
L 230.679264 155.085005 
L 230.679264 144.667002 
L 238.116861 144.667002 
L 238.116861 173.636022 
z
" clip-path="url(#pcce047005b)" style="fill: #ffa600"/>
   </g>
   <g id="patch_33">
    <path d="M 239.048414 188.811205 
L 256.747913 188.811205 
L 256.747913 189.479915 
L 250.38021 189.479915 
L 250.38021 192.24 
L 245.428466 192.24 
L 245.428466 189.479915 
L 239.048414 189.479915 
L 239.048414 188.811205 
z
" clip-path="url(#pcce047005b)" style="fill: #ff0000"/>
   </g>
   <g id="patch_34">
    <path d="M 251.308873 188.170147 
L 244.50193 188.170147 
L 243.427149 188.811205 
L 239.048414 188.811205 
L 245.301682 185.292174 
L 250.494645 185.292174 
L 256.747913 188.811205 
L 252.372797 188.811205 
L 251.308873 188.170147 
z
M 245.587567 187.517022 
L 250.212379 187.517022 
L 247.903592 186.117253 
L 245.587567 187.517022 
z
" clip-path="url(#pcce047005b)" style="fill: #008000"/>
   </g>
   <g id="patch_35">
    <path d="M 256.747913 183.274655 
Q 254.96289 184.283415 253.042998 184.790097 
Q 251.123106 185.292174 249.076279 185.292174 
Q 244.451085 185.292174 241.74975 182.288927 
Q 239.048414 179.285681 239.048414 174.149761 
Q 239.048414 168.95396 241.79735 165.973745 
Q 244.550253 162.993529 249.338083 162.993529 
Q 251.182607 162.993529 252.872429 163.398876 
Q 254.566218 163.799616 256.065638 164.591883 
L 256.065638 169.036872 
Q 254.518617 168.0189 252.987464 167.516824 
Q 251.45631 167.010141 249.917223 167.010141 
Q 247.069119 167.010141 245.526066 168.861836 
Q 243.983012 170.708925 243.983012 174.149761 
Q 243.983012 177.558353 245.470532 179.419261 
Q 246.958051 181.275562 249.695087 181.275562 
Q 250.44083 181.275562 251.079472 181.169619 
Q 251.718114 181.05907 252.225854 180.82876 
L 252.225854 176.655537 
L 249.310315 176.655537 
L 249.310315 172.938329 
L 256.747913 172.938329 
L 256.747913 183.274655 
z
" clip-path="url(#pcce047005b)" style="fill: #ffa600"/>
   </g>
   <g id="patch_36">
    <path d="M 256.747913 160.052202 
Q 255.267381 161.510151 253.666443 162.247602 
Q 252.065506 162.993529 250.321867 162.993529 
Q 245.122165 162.993529 242.08529 157.466886 
Q 239.048414 151.940243 239.048414 142.489005 
Q 239.048414 133.003861 242.08529 127.485694 
Q 245.122165 121.959051 250.321867 121.959051 
Q 252.065506 121.959051 253.666443 122.704978 
Q 255.267381 123.442429 256.747913 124.900378 
L 256.747913 133.080149 
Q 255.254002 131.147519 253.804686 130.249016 
Q 252.355369 129.350513 250.754432 129.350513 
Q 247.882556 129.350513 246.237024 132.851285 
Q 244.595952 136.343581 244.595952 142.489005 
Q 244.595952 148.608999 246.237024 152.109772 
Q 247.882556 155.602068 250.754432 155.602068 
Q 252.355369 155.602068 253.804686 154.703565 
Q 255.254002 153.796585 256.747913 151.863955 
L 256.747913 160.052202 
z
" clip-path="url(#pcce047005b)" style="fill: #0000ff"/>
   </g>
   <g id="patch_37">
    <path d="M 257.679466 189.711253 
L 275.378965 189.711253 
L 275.378965 190.204429 
L 269.011261 190.204429 
L 269.011261 192.24 
L 264.059518 192.24 
L 264.059518 190.204429 
L 257.679466 190.204429 
L 257.679466 189.711253 
z
" clip-path="url(#pcce047005b)" style="fill: #ff0000"/>
   </g>
   <g id="patch_38">
    <path d="M 269.939924 187.714532 
L 263.132981 187.714532 
L 262.058201 189.711253 
L 257.679466 189.711253 
L 263.932734 178.750427 
L 269.125697 178.750427 
L 275.378965 189.711253 
L 271.003849 189.711253 
L 269.939924 187.714532 
z
M 264.218618 185.680225 
L 268.843431 185.680225 
L 266.534644 181.320325 
L 264.218618 185.680225 
z
" clip-path="url(#pcce047005b)" style="fill: #008000"/>
   </g>
   <g id="patch_39">
    <path d="M 275.378965 177.710362 
Q 273.898432 178.225898 272.297495 178.486664 
Q 270.696558 178.750427 268.952919 178.750427 
Q 263.753217 178.750427 260.716341 176.796184 
Q 257.679466 174.84194 257.679466 171.499945 
Q 257.679466 168.14596 260.716341 166.194714 
Q 263.753217 164.240471 268.952919 164.240471 
Q 270.696558 164.240471 272.297495 164.504234 
Q 273.898432 164.765 275.378965 165.280536 
L 275.378965 168.172936 
Q 273.885054 167.48955 272.435738 167.171836 
Q 270.986421 166.854121 269.385484 166.854121 
Q 266.513607 166.854121 264.868076 168.092009 
Q 263.227003 169.326898 263.227003 171.499945 
Q 263.227003 173.663999 264.868076 174.901887 
Q 266.513607 176.136776 269.385484 176.136776 
Q 270.986421 176.136776 272.435738 175.819062 
Q 273.885054 175.49835 275.378965 174.814965 
L 275.378965 177.710362 
z
" clip-path="url(#pcce047005b)" style="fill: #0000ff"/>
   </g>
   <g id="patch_40">
    <path d="M 275.378965 161.47382 
Q 273.593941 162.857146 271.67405 163.551967 
Q 269.754158 164.240471 267.707331 164.240471 
Q 263.082137 164.240471 260.380801 160.122077 
Q 257.679466 156.003683 257.679466 148.960725 
Q 257.679466 141.83565 260.428402 137.748839 
Q 263.181305 133.662028 267.969134 133.662028 
Q 269.813659 133.662028 271.503481 134.217885 
Q 273.19727 134.767425 274.696689 135.853873 
L 274.696689 141.949348 
Q 273.149669 140.55339 271.618516 139.864885 
Q 270.087362 139.170064 268.548275 139.170064 
Q 265.700171 139.170064 264.157118 141.709319 
Q 262.614064 144.242258 262.614064 148.960725 
Q 262.614064 153.634975 264.101583 156.186863 
Q 265.589103 158.732435 268.326139 158.732435 
Q 269.071882 158.732435 269.710524 158.587154 
Q 270.349166 158.435557 270.856906 158.119729 
L 270.856906 152.39693 
L 267.941367 152.39693 
L 267.941367 147.299471 
L 275.378965 147.299471 
L 275.378965 161.47382 
z
" clip-path="url(#pcce047005b)" style="fill: #ffa600"/>
   </g>
   <g id="patch_41">
    <path d="M 276.310518 189.146069 
L 294.010017 189.146069 
L 294.010017 189.749472 
L 287.642313 189.749472 
L 287.642313 192.24 
L 282.69057 192.24 
L 282.69057 189.749472 
L 276.310518 189.749472 
L 276.310518 189.146069 
z
" clip-path="url(#pcce047005b)" style="fill: #ff0000"/>
   </g>
   <g id="patch_42">
    <path d="M 288.570976 187.562327 
L 281.764033 187.562327 
L 280.689253 189.146069 
L 276.310518 189.146069 
L 282.563786 180.452261 
L 287.756749 180.452261 
L 294.010017 189.146069 
L 289.6349 189.146069 
L 288.570976 187.562327 
z
M 282.84967 185.948775 
L 287.474483 185.948775 
L 285.165695 182.490629 
L 282.84967 185.948775 
z
" clip-path="url(#pcce047005b)" style="fill: #008000"/>
   </g>
   <g id="patch_43">
    <path d="M 294.010017 178.205537 
Q 292.529484 179.319187 290.928547 179.882487 
Q 289.32761 180.452261 287.58397 180.452261 
Q 282.384269 180.452261 279.347393 176.230751 
Q 276.310518 172.009242 276.310518 164.789943 
Q 276.310518 157.544744 279.347393 153.32971 
Q 282.384269 149.1082 287.58397 149.1082 
Q 289.32761 149.1082 290.928547 149.677974 
Q 292.529484 150.241274 294.010017 151.354924 
L 294.010017 157.603017 
Q 292.516106 156.126783 291.066789 155.440464 
Q 289.617473 154.754145 288.016535 154.754145 
Q 285.144659 154.754145 283.499127 157.4282 
Q 281.858055 160.095779 281.858055 164.789943 
Q 281.858055 169.464682 283.499127 172.138736 
Q 285.144659 174.806316 288.016535 174.806316 
Q 289.617473 174.806316 291.066789 174.119997 
Q 292.516106 173.427203 294.010017 171.950969 
L 294.010017 178.205537 
z
" clip-path="url(#pcce047005b)" style="fill: #0000ff"/>
   </g>
   <g id="patch_44">
    <path d="M 294.010017 144.609376 
Q 292.224993 146.858788 290.305101 147.98863 
Q 288.385209 149.1082 286.338383 149.1082 
Q 281.713188 149.1082 279.011853 142.411321 
Q 276.310518 135.714441 276.310518 124.261956 
Q 276.310518 112.675944 279.059454 106.030421 
Q 281.812356 99.384898 286.600186 99.384898 
Q 288.44471 99.384898 290.134532 100.288771 
Q 291.828321 101.182373 293.327741 102.949035 
L 293.327741 112.860827 
Q 291.780721 110.590872 290.249567 109.471302 
Q 288.718414 108.34146 287.179327 108.34146 
Q 284.331223 108.34146 282.788169 112.470518 
Q 281.245116 116.589304 281.245116 124.261956 
Q 281.245116 131.862709 282.732635 136.012309 
Q 284.220155 140.151637 286.957191 140.151637 
Q 287.702934 140.151637 288.341576 139.915398 
Q 288.980217 139.668887 289.487957 139.155323 
L 289.487957 129.849536 
L 286.572419 129.849536 
L 286.572419 121.560607 
L 294.010017 121.560607 
L 294.010017 144.609376 
z
" clip-path="url(#pcce047005b)" style="fill: #ffa600"/>
   </g>
   <g id="patch_45">
    <path d="M 294.941569 188.795339 
L 312.641068 188.795339 
L 312.641068 189.467144 
L 306.273365 189.467144 
L 306.273365 192.24 
L 301.321621 192.24 
L 301.321621 189.467144 
L 294.941569 189.467144 
L 294.941569 188.795339 
z
" clip-path="url(#pcce047005b)" style="fill: #ff0000"/>
   </g>
   <g id="patch_46">
    <path d="M 307.202028 187.380654 
L 300.395085 187.380654 
L 299.320305 188.795339 
L 294.941569 188.795339 
L 301.194837 181.029554 
L 306.3878 181.029554 
L 312.641068 188.795339 
L 308.265952 188.795339 
L 307.202028 187.380654 
z
M 301.480722 185.939341 
L 306.105535 185.939341 
L 303.796747 182.850336 
L 301.480722 185.939341 
z
" clip-path="url(#pcce047005b)" style="fill: #008000"/>
   </g>
   <g id="patch_47">
    <path d="M 312.641068 180.016074 
Q 311.160536 180.518433 309.559599 180.772533 
Q 307.958661 181.029554 306.215022 181.029554 
Q 301.01532 181.029554 297.978445 179.125262 
Q 294.941569 177.22097 294.941569 173.964397 
Q 294.941569 170.696141 297.978445 168.794769 
Q 301.01532 166.890477 306.215022 166.890477 
Q 307.958661 166.890477 309.559599 167.147498 
Q 311.160536 167.401598 312.641068 167.903958 
L 312.641068 170.722427 
Q 311.147158 170.056509 309.697841 169.746915 
Q 308.248525 169.437322 306.647587 169.437322 
Q 303.775711 169.437322 302.130179 170.643568 
Q 300.489107 171.846894 300.489107 173.964397 
Q 300.489107 176.073137 302.130179 177.279384 
Q 303.775711 178.48271 306.647587 178.48271 
Q 308.248525 178.48271 309.697841 178.173116 
Q 311.147158 177.860602 312.641068 177.194684 
L 312.641068 180.016074 
z
" clip-path="url(#pcce047005b)" style="fill: #0000ff"/>
   </g>
   <g id="patch_48">
    <path d="M 312.641068 161.137961 
Q 310.856045 164.014219 308.936153 165.458915 
Q 307.016261 166.890477 304.969434 166.890477 
Q 300.34424 166.890477 297.642905 158.327371 
Q 294.941569 149.764264 294.941569 135.120301 
Q 294.941569 120.305601 297.690505 111.808163 
Q 300.443408 103.310724 305.231238 103.310724 
Q 307.075762 103.310724 308.765584 104.466481 
Q 310.459373 105.609104 311.958793 107.868083 
L 311.958793 120.542006 
Q 310.411772 117.639481 308.880619 116.207919 
Q 307.349466 114.763223 305.810379 114.763223 
Q 302.962275 114.763223 301.419221 120.042929 
Q 299.876167 125.309503 299.876167 135.120301 
Q 299.876167 144.839164 301.363687 150.145138 
Q 302.851207 155.437979 305.588242 155.437979 
Q 306.333986 155.437979 306.972627 155.135906 
Q 307.611269 154.8207 308.119009 154.16402 
L 308.119009 142.264979 
L 305.203471 142.264979 
L 305.203471 131.666165 
L 312.641068 131.666165 
L 312.641068 161.137961 
z
" clip-path="url(#pcce047005b)" style="fill: #ffa600"/>
   </g>
   <g id="patch_49">
    <path d="M 331.27212 192.171826 
Q 329.791588 192.205619 328.19065 192.222711 
Q 326.589713 192.24 324.846074 192.24 
Q 319.646372 192.24 316.609497 192.111905 
Q 313.572621 191.983809 313.572621 191.76475 
Q 313.572621 191.544905 316.609497 191.417006 
Q 319.646372 191.288911 324.846074 191.288911 
Q 326.589713 191.288911 328.19065 191.3062 
Q 329.791588 191.323292 331.27212 191.357084 
L 331.27212 191.546674 
Q 329.778209 191.501879 328.328893 191.481054 
Q 326.879576 191.460229 325.278639 191.460229 
Q 322.406763 191.460229 320.761231 191.541369 
Q 319.120159 191.622313 319.120159 191.76475 
Q 319.120159 191.906598 320.761231 191.987738 
Q 322.406763 192.068682 325.278639 192.068682 
Q 326.879576 192.068682 328.328893 192.047857 
Q 329.778209 192.026835 331.27212 191.982041 
L 331.27212 192.171826 
z
" clip-path="url(#pcce047005b)" style="fill: #0000ff"/>
   </g>
   <g id="patch_50">
    <path d="M 313.572621 187.970563 
L 331.27212 187.970563 
L 331.27212 188.617733 
L 324.904417 188.617733 
L 324.904417 191.288911 
L 319.952673 191.288911 
L 319.952673 188.617733 
L 313.572621 188.617733 
L 313.572621 187.970563 
z
" clip-path="url(#pcce047005b)" style="fill: #ff0000"/>
   </g>
   <g id="patch_51">
    <path d="M 331.27212 176.568969 
Q 329.487097 182.269766 327.567205 185.13318 
Q 325.647313 187.970563 323.600486 187.970563 
Q 318.975292 187.970563 316.273957 170.998328 
Q 313.572621 154.026093 313.572621 125.001489 
Q 313.572621 95.638481 316.321557 78.796401 
Q 319.07446 61.954322 323.86229 61.954322 
Q 325.706814 61.954322 327.396636 64.245053 
Q 329.090425 66.509753 330.589845 70.987091 
L 330.589845 96.10704 
Q 329.042824 90.354181 327.511671 87.516798 
Q 325.980517 84.653384 324.44143 84.653384 
Q 321.593326 84.653384 320.050273 95.11786 
Q 318.507219 105.556305 318.507219 125.001489 
Q 318.507219 144.264455 319.994739 154.780993 
Q 321.482258 165.2715 324.219294 165.2715 
Q 324.965037 165.2715 325.603679 164.672786 
Q 326.242321 164.048041 326.750061 162.74649 
L 326.750061 139.162372 
L 323.834523 139.162372 
L 323.834523 118.155326 
L 331.27212 118.155326 
L 331.27212 176.568969 
z
" clip-path="url(#pcce047005b)" style="fill: #ffa600"/>
   </g>
   <g id="patch_52">
    <path d="M 344.464131 192.136089 
L 337.657188 192.136089 
L 336.582408 192.24 
L 332.203673 192.24 
L 338.456941 191.669588 
L 343.649904 191.669588 
L 349.903172 192.24 
L 345.528056 192.24 
L 344.464131 192.136089 
z
M 338.742825 192.030221 
L 343.367638 192.030221 
L 341.058851 191.803328 
L 338.742825 192.030221 
z
" clip-path="url(#pcce047005b)" style="fill: #008000"/>
   </g>
   <g id="patch_53">
    <path d="M 332.203673 190.890455 
L 349.903172 190.890455 
L 349.903172 191.042408 
L 343.535468 191.042408 
L 343.535468 191.669588 
L 338.583725 191.669588 
L 338.583725 191.042408 
L 332.203673 191.042408 
L 332.203673 190.890455 
z
" clip-path="url(#pcce047005b)" style="fill: #ff0000"/>
   </g>
   <g id="patch_54">
    <path d="M 349.903172 190.753726 
Q 348.118149 190.82209 346.198257 190.856429 
Q 344.278365 190.890455 342.231538 190.890455 
Q 337.606344 190.890455 334.905008 190.686922 
Q 332.203673 190.483389 332.203673 190.135322 
Q 332.203673 189.783197 334.952609 189.581225 
Q 337.705512 189.379253 342.493341 189.379253 
Q 344.337866 189.379253 346.027688 189.406724 
Q 347.721477 189.433882 349.220896 189.487575 
L 349.220896 189.788816 
Q 347.673876 189.719827 346.142723 189.685801 
Q 344.611569 189.651463 343.072482 189.651463 
Q 340.224378 189.651463 338.681325 189.776954 
Q 337.138271 189.902133 337.138271 190.135322 
Q 337.138271 190.366326 338.62579 190.492442 
Q 340.11331 190.618245 342.850346 190.618245 
Q 343.596089 190.618245 344.234731 190.611065 
Q 344.873373 190.603573 345.381113 190.587965 
L 345.381113 190.305141 
L 342.465574 190.305141 
L 342.465574 190.053222 
L 349.903172 190.053222 
L 349.903172 190.753726 
z
" clip-path="url(#pcce047005b)" style="fill: #ffa600"/>
   </g>
   <g id="patch_55">
    <path d="M 349.903172 180.042914 
Q 348.422639 184.670725 346.821702 187.011536 
Q 345.220765 189.379253 343.477126 189.379253 
Q 338.277424 189.379253 335.240548 171.836622 
Q 332.203673 154.293991 332.203673 124.293939 
Q 332.203673 94.186264 335.240548 76.670539 
Q 338.277424 59.127908 343.477126 59.127908 
Q 345.220765 59.127908 346.821702 61.495625 
Q 348.422639 63.836437 349.903172 68.464247 
L 349.903172 94.428417 
Q 348.409261 88.293878 346.959945 85.441855 
Q 345.510628 82.589832 343.909691 82.589832 
Q 341.037814 82.589832 339.392283 93.701959 
Q 337.75121 104.78718 337.75121 124.293939 
Q 337.75121 143.719982 339.392283 154.832108 
Q 341.037814 165.917329 343.909691 165.917329 
Q 345.510628 165.917329 346.959945 163.065306 
Q 348.409261 160.186378 349.903172 154.051838 
L 349.903172 180.042914 
z
" clip-path="url(#pcce047005b)" style="fill: #0000ff"/>
   </g>
   <g id="patch_56">
    <path d="M 363.095183 192.108173 
L 356.28824 192.108173 
L 355.21346 192.24 
L 350.834725 192.24 
L 357.087993 191.516347 
L 362.280956 191.516347 
L 368.534224 192.24 
L 364.159107 192.24 
L 363.095183 192.108173 
z
M 357.373877 191.973864 
L 361.99869 191.973864 
L 359.689902 191.686016 
L 357.373877 191.973864 
z
" clip-path="url(#pcce047005b)" style="fill: #008000"/>
   </g>
   <g id="patch_57">
    <path d="M 350.834725 186.184516 
L 368.534224 186.184516 
L 368.534224 187.224371 
L 362.16652 187.224371 
L 362.16652 191.516347 
L 357.214777 191.516347 
L 357.214777 187.224371 
L 350.834725 187.224371 
L 350.834725 186.184516 
z
" clip-path="url(#pcce047005b)" style="fill: #ff0000"/>
   </g>
   <g id="patch_58">
    <path d="M 368.534224 171.651436 
Q 366.7492 178.917976 364.829308 182.567836 
Q 362.909416 186.184516 360.86259 186.184516 
Q 356.237396 186.184516 353.53606 164.550798 
Q 350.834725 142.917081 350.834725 105.92077 
Q 350.834725 68.493112 353.583661 47.025298 
Q 356.336563 25.557483 361.124393 25.557483 
Q 362.968917 25.557483 364.658739 28.477372 
Q 366.352528 31.364079 367.851948 37.071133 
L 367.851948 69.090362 
Q 366.304928 61.757461 364.773774 58.140781 
Q 363.242621 54.490921 361.703534 54.490921 
Q 358.85543 54.490921 357.312376 67.829501 
Q 355.769323 81.134901 355.769323 105.92077 
Q 355.769323 130.474376 357.256842 143.879317 
Q 358.744362 157.251078 361.481398 157.251078 
Q 362.227141 157.251078 362.865783 156.487925 
Q 363.504424 155.691592 364.012164 154.032565 
L 364.012164 123.970988 
L 361.096626 123.970988 
L 361.096626 97.194286 
L 368.534224 97.194286 
L 368.534224 171.651436 
z
" clip-path="url(#pcce047005b)" style="fill: #ffa600"/>
   </g>
   <g id="patch_59">
    <path d="M 387.165275 181.507615 
Q 385.684743 186.827414 384.083806 189.518242 
Q 382.482868 192.24 380.739229 192.24 
Q 375.539527 192.24 372.502652 172.07425 
Q 369.465776 151.9085 369.465776 117.422593 
Q 369.465776 82.812969 372.502652 62.678148 
Q 375.539527 42.512398 380.739229 42.512398 
Q 382.482868 42.512398 384.083806 45.234156 
Q 385.684743 47.924984 387.165275 53.244784 
L 387.165275 83.091331 
Q 385.671365 76.039504 384.222048 72.761023 
Q 382.772732 69.482542 381.171794 69.482542 
Q 378.299918 69.482542 376.654386 82.256246 
Q 375.013314 94.999021 375.013314 117.422593 
Q 375.013314 139.753377 376.654386 152.527081 
Q 378.299918 165.269856 381.171794 165.269856 
Q 382.772732 165.269856 384.222048 161.991375 
Q 385.671365 158.681965 387.165275 151.630138 
L 387.165275 181.507615 
z
" clip-path="url(#pcce047005b)" style="fill: #0000ff"/>
   </g>
   <g id="patch_60">
    <path d="M 388.096828 184.296098 
L 405.796327 184.296098 
L 405.796327 185.84538 
L 399.428624 185.84538 
L 399.428624 192.24 
L 394.47688 192.24 
L 394.47688 185.84538 
L 388.096828 185.84538 
L 388.096828 184.296098 
z
" clip-path="url(#pcce047005b)" style="fill: #ff0000"/>
   </g>
   <g id="patch_61">
    <path d="M 405.796327 183.184858 
Q 404.315795 183.735675 402.714857 184.014285 
Q 401.11392 184.296098 399.370281 184.296098 
Q 394.170579 184.296098 391.133704 182.20812 
Q 388.096828 180.120143 388.096828 176.549445 
Q 388.096828 172.965937 391.133704 170.881162 
Q 394.170579 168.793184 399.370281 168.793184 
Q 401.11392 168.793184 402.714857 169.074997 
Q 404.315795 169.353608 405.796327 169.904424 
L 405.796327 172.994759 
Q 404.302416 172.264607 402.8531 171.925151 
Q 401.403783 171.585694 399.802846 171.585694 
Q 396.93097 171.585694 395.285438 172.908293 
Q 393.644366 174.22769 393.644366 176.549445 
Q 393.644366 178.861592 395.285438 180.184191 
Q 396.93097 181.503588 399.802846 181.503588 
Q 401.403783 181.503588 402.8531 181.164132 
Q 404.302416 180.821473 405.796327 180.091321 
L 405.796327 183.184858 
z
" clip-path="url(#pcce047005b)" style="fill: #0000ff"/>
   </g>
   <g id="patch_62">
    <path d="M 400.357287 165.752377 
L 393.550344 165.752377 
L 392.475563 168.793184 
L 388.096828 168.793184 
L 394.350096 152.100943 
L 399.543059 152.100943 
L 405.796327 168.793184 
L 401.421211 168.793184 
L 400.357287 165.752377 
z
M 394.635981 162.654332 
L 399.260793 162.654332 
L 396.952006 156.014641 
L 394.635981 162.654332 
z
" clip-path="url(#pcce047005b)" style="fill: #008000"/>
   </g>
   <g id="patch_63">
    <path d="M 405.796327 148.176024 
Q 404.011304 150.138484 402.091412 151.124194 
Q 400.17152 152.100943 398.124693 152.100943 
Q 393.499499 152.100943 390.798164 146.258369 
Q 388.096828 140.415795 388.096828 130.424276 
Q 388.096828 120.316264 390.845764 114.518495 
Q 393.598667 108.720726 398.386497 108.720726 
Q 400.231021 108.720726 401.920843 109.509294 
Q 403.614632 110.288901 405.114052 111.830194 
L 405.114052 120.477562 
Q 403.567031 118.49718 402.035878 117.520431 
Q 400.504724 116.534721 398.965637 116.534721 
Q 396.117533 116.534721 394.57448 120.137044 
Q 393.031426 123.730406 393.031426 130.424276 
Q 393.031426 137.055419 394.518946 140.675664 
Q 396.006465 144.286948 398.743501 144.286948 
Q 399.489244 144.286948 400.127886 144.080845 
Q 400.766528 143.865781 401.274268 143.417731 
L 401.274268 135.299062 
L 398.35873 135.299062 
L 398.35873 128.067532 
L 405.796327 128.067532 
L 405.796327 148.176024 
z
" clip-path="url(#pcce047005b)" style="fill: #ffa600"/>
   </g>
   <g id="patch_64">
    <path d="M 424.427379 192.116887 
Q 422.946846 192.177911 421.345909 192.208778 
Q 419.744972 192.24 418.001333 192.24 
Q 412.801631 192.24 409.764755 192.008675 
Q 406.72788 191.777349 406.72788 191.381754 
Q 406.72788 190.984741 409.764755 190.75377 
Q 412.801631 190.522445 418.001333 190.522445 
Q 419.744972 190.522445 421.345909 190.553666 
Q 422.946846 190.584533 424.427379 190.645558 
L 424.427379 190.987934 
Q 422.933468 190.907041 421.484152 190.869433 
Q 420.034835 190.831825 418.433898 190.831825 
Q 415.562021 190.831825 413.91649 190.978354 
Q 412.275417 191.124529 412.275417 191.381754 
Q 412.275417 191.637915 413.91649 191.784445 
Q 415.562021 191.93062 418.433898 191.93062 
Q 420.034835 191.93062 421.484152 191.893012 
Q 422.933468 191.855049 424.427379 191.774156 
L 424.427379 192.116887 
z
" clip-path="url(#pcce047005b)" style="fill: #0000ff"/>
   </g>
   <g id="patch_65">
    <path d="M 418.988338 190.013611 
L 412.181395 190.013611 
L 411.106615 190.522445 
L 406.72788 190.522445 
L 412.981148 187.729245 
L 418.174111 187.729245 
L 424.427379 190.522445 
L 420.052263 190.522445 
L 418.988338 190.013611 
z
M 413.267032 189.495198 
L 417.891845 189.495198 
L 415.583058 188.384144 
L 413.267032 189.495198 
z
" clip-path="url(#pcce047005b)" style="fill: #008000"/>
   </g>
   <g id="patch_66">
    <path d="M 424.427379 177.585514 
Q 422.642356 182.65738 420.722464 185.204892 
Q 418.802572 187.729245 416.755745 187.729245 
Q 412.130551 187.729245 409.429215 172.629445 
Q 406.72788 157.529646 406.72788 131.707136 
Q 406.72788 105.583556 409.476816 90.599553 
Q 412.229719 75.615549 417.017548 75.615549 
Q 418.862073 75.615549 420.551895 77.653559 
Q 422.245684 79.66841 423.745103 83.651792 
L 423.745103 106.000422 
Q 422.198083 100.882238 420.66693 98.357885 
Q 419.135776 95.810373 417.596689 95.810373 
Q 414.748585 95.810373 413.205532 105.120372 
Q 411.662478 114.407212 411.662478 131.707136 
Q 411.662478 148.844945 413.149997 158.201263 
Q 414.637517 167.534421 417.374553 167.534421 
Q 418.120296 167.534421 418.758938 167.001759 
Q 419.39758 166.445938 419.90532 165.287978 
L 419.90532 144.305742 
L 416.989781 144.305742 
L 416.989781 125.616266 
L 424.427379 125.616266 
L 424.427379 177.585514 
z
" clip-path="url(#pcce047005b)" style="fill: #ffa600"/>
   </g>
   <g id="patch_67">
    <path d="M 437.61939 191.966508 
L 430.812447 191.966508 
L 429.737667 192.24 
L 425.358932 192.24 
L 431.6122 190.738691 
L 436.805163 190.738691 
L 443.058431 192.24 
L 438.683314 192.24 
L 437.61939 191.966508 
z
M 431.898084 191.687868 
L 436.522897 191.687868 
L 434.214109 191.090691 
L 431.898084 191.687868 
z
" clip-path="url(#pcce047005b)" style="fill: #008000"/>
   </g>
   <g id="patch_68">
    <path d="M 425.358932 187.789144 
L 443.058431 187.789144 
L 443.058431 188.364388 
L 436.690727 188.364388 
L 436.690727 190.738691 
L 431.738984 190.738691 
L 431.738984 188.364388 
L 425.358932 188.364388 
L 425.358932 187.789144 
z
" clip-path="url(#pcce047005b)" style="fill: #ff0000"/>
   </g>
   <g id="patch_69">
    <path d="M 443.058431 185.474855 
Q 441.273407 186.631999 439.353515 187.213213 
Q 437.433623 187.789144 435.386797 187.789144 
Q 430.761603 187.789144 428.060267 184.344129 
Q 425.358932 180.899115 425.358932 175.007718 
Q 425.358932 169.047632 428.107868 165.629037 
Q 430.86077 162.210441 435.6486 162.210441 
Q 437.493124 162.210441 439.182946 162.675413 
Q 440.876735 163.1351 442.376155 164.043908 
L 442.376155 169.14274 
Q 440.829135 167.975028 439.297981 167.399098 
Q 437.766828 166.817884 436.227741 166.817884 
Q 433.379637 166.817884 431.836583 168.941957 
Q 430.29353 171.060746 430.29353 175.007718 
Q 430.29353 178.917704 431.781049 181.052344 
Q 433.268569 183.181701 436.005605 183.181701 
Q 436.751348 183.181701 437.38999 183.060175 
Q 438.028631 182.933364 438.536371 182.669176 
L 438.536371 177.882086 
L 435.620833 177.882086 
L 435.620833 173.618088 
L 443.058431 173.618088 
L 443.058431 185.474855 
z
" clip-path="url(#pcce047005b)" style="fill: #ffa600"/>
   </g>
   <g id="patch_70">
    <path d="M 443.058431 157.966271 
Q 441.577898 160.070009 439.976961 161.13411 
Q 438.376024 162.210441 436.632384 162.210441 
Q 431.432683 162.210441 428.395807 154.235803 
Q 425.358932 146.261165 425.358932 132.623556 
Q 425.358932 118.937022 428.395807 110.974615 
Q 431.432683 102.999977 436.632384 102.999977 
Q 438.376024 102.999977 439.976961 104.076308 
Q 441.577898 105.140409 443.058431 107.244148 
L 443.058431 119.047101 
Q 441.56452 116.258424 440.115203 114.961934 
Q 438.665887 113.665444 437.06495 113.665444 
Q 434.193073 113.665444 432.547541 118.716863 
Q 430.906469 123.756052 430.906469 132.623556 
Q 430.906469 141.454367 432.547541 146.505786 
Q 434.193073 151.544975 437.06495 151.544975 
Q 438.665887 151.544975 440.115203 150.248484 
Q 441.56452 148.939763 443.058431 146.151086 
L 443.058431 157.966271 
z
" clip-path="url(#pcce047005b)" style="fill: #0000ff"/>
   </g>
   <g id="patch_71">
    <path d="M 443.989983 189.54754 
L 461.689482 189.54754 
L 461.689482 190.072644 
L 455.321779 190.072644 
L 455.321779 192.24 
L 450.370035 192.24 
L 450.370035 190.072644 
L 443.989983 190.072644 
L 443.989983 189.54754 
z
" clip-path="url(#pcce047005b)" style="fill: #ff0000"/>
   </g>
   <g id="patch_72">
    <path d="M 456.250442 186.832258 
L 449.443499 186.832258 
L 448.368719 189.54754 
L 443.989983 189.54754 
L 450.243251 174.642241 
L 455.436214 174.642241 
L 461.689482 189.54754 
L 457.314366 189.54754 
L 456.250442 186.832258 
z
M 450.529136 184.065865 
L 455.153949 184.065865 
L 452.845161 178.136968 
L 450.529136 184.065865 
z
" clip-path="url(#pcce047005b)" style="fill: #008000"/>
   </g>
   <g id="patch_73">
    <path d="M 461.689482 173.1974 
Q 459.904459 173.91982 457.984567 174.28268 
Q 456.064675 174.642241 454.017848 174.642241 
Q 449.392654 174.642241 446.691319 172.491473 
Q 443.989983 170.340706 443.989983 166.66263 
Q 443.989983 162.941671 446.738919 160.807397 
Q 449.491822 158.673124 454.279652 158.673124 
Q 456.124176 158.673124 457.813998 158.963411 
Q 459.507787 159.2504 461.007207 159.817781 
L 461.007207 163.001048 
Q 459.460187 162.27203 457.929033 161.912469 
Q 456.39788 161.54961 454.858793 161.54961 
Q 452.010689 161.54961 450.467635 162.875697 
Q 448.924581 164.198484 448.924581 166.66263 
Q 448.924581 169.103685 450.412101 170.436369 
Q 451.899621 171.765754 454.636656 171.765754 
Q 455.3824 171.765754 456.021041 171.689884 
Q 456.659683 171.610714 457.167423 171.445778 
L 457.167423 168.457135 
L 454.251885 168.457135 
L 454.251885 165.795066 
L 461.689482 165.795066 
L 461.689482 173.1974 
z
" clip-path="url(#pcce047005b)" style="fill: #ffa600"/>
   </g>
   <g id="patch_74">
    <path d="M 461.689482 156.976187 
Q 460.20895 157.81732 458.608013 158.242777 
Q 457.007075 158.673124 455.263436 158.673124 
Q 450.063734 158.673124 447.026859 155.484643 
Q 443.989983 152.296161 443.989983 146.843467 
Q 443.989983 141.371212 447.026859 138.187621 
Q 450.063734 134.99914 455.263436 134.99914 
Q 457.007075 134.99914 458.608013 135.429487 
Q 460.20895 135.854944 461.689482 136.696077 
L 461.689482 141.415225 
Q 460.195572 140.300235 458.746255 139.781862 
Q 457.296939 139.263489 455.696001 139.263489 
Q 452.824125 139.263489 451.178593 141.283187 
Q 449.537521 143.297994 449.537521 146.843467 
Q 449.537521 150.37427 451.178593 152.393968 
Q 452.824125 154.408775 455.696001 154.408775 
Q 457.296939 154.408775 458.746255 153.890402 
Q 460.195572 153.367139 461.689482 152.252149 
L 461.689482 156.976187 
z
" clip-path="url(#pcce047005b)" style="fill: #0000ff"/>
   </g>
   <g id="patch_75">
    <path d="M 462.621035 191.628845 
L 480.320534 191.628845 
L 480.320534 191.748038 
L 473.952831 191.748038 
L 473.952831 192.24 
L 469.001087 192.24 
L 469.001087 191.748038 
L 462.621035 191.748038 
L 462.621035 191.628845 
z
" clip-path="url(#pcce047005b)" style="fill: #ff0000"/>
   </g>
   <g id="patch_76">
    <path d="M 474.881494 190.439431 
L 468.074551 190.439431 
L 466.99977 191.628845 
L 462.621035 191.628845 
L 468.874303 185.099661 
L 474.067266 185.099661 
L 480.320534 191.628845 
L 475.945418 191.628845 
L 474.881494 190.439431 
z
M 469.160188 189.227628 
L 473.785 189.227628 
L 471.476213 186.630507 
L 469.160188 189.227628 
z
" clip-path="url(#pcce047005b)" style="fill: #008000"/>
   </g>
   <g id="patch_77">
    <path d="M 480.320534 179.338806 
Q 478.535511 182.219233 476.615619 183.666023 
Q 474.695727 185.099661 472.6489 185.099661 
Q 468.023706 185.099661 465.322371 176.524141 
Q 462.621035 167.948622 462.621035 153.283431 
Q 462.621035 138.447256 465.369971 129.9375 
Q 468.122874 121.427743 472.910704 121.427743 
Q 474.755228 121.427743 476.44505 122.585175 
Q 478.138839 123.729455 479.638259 125.991708 
L 479.638259 138.684004 
Q 478.091238 135.777271 476.560085 134.343633 
Q 475.028931 132.896843 473.489844 132.896843 
Q 470.64174 132.896843 469.098687 138.184203 
Q 467.555633 143.458411 467.555633 153.283431 
Q 467.555633 163.016383 469.043153 168.330048 
Q 470.530672 173.630561 473.267708 173.630561 
Q 474.013451 173.630561 474.652093 173.32805 
Q 475.290735 173.012387 475.798475 172.354755 
L 475.798475 160.438466 
L 472.882937 160.438466 
L 472.882937 149.824287 
L 480.320534 149.824287 
L 480.320534 179.338806 
z
" clip-path="url(#pcce047005b)" style="fill: #ffa600"/>
   </g>
   <g id="patch_78">
    <path d="M 493.512545 189.369205 
L 486.705603 189.369205 
L 485.630822 192.24 
L 481.252087 192.24 
L 487.505355 176.481022 
L 492.698318 176.481022 
L 498.951586 192.24 
L 494.57647 192.24 
L 493.512545 189.369205 
z
M 487.791239 186.444371 
L 492.416052 186.444371 
L 490.107265 180.175905 
L 487.791239 186.444371 
z
" clip-path="url(#pcce047005b)" style="fill: #008000"/>
   </g>
   <g id="patch_79">
    <path d="M 498.951586 175.309982 
Q 497.471053 175.89044 495.870116 176.184044 
Q 494.269179 176.481022 492.52554 176.481022 
Q 487.325838 176.481022 484.288962 174.280681 
Q 481.252087 172.08034 481.252087 168.317486 
Q 481.252087 164.541134 484.288962 162.344167 
Q 487.325838 160.143826 492.52554 160.143826 
Q 494.269179 160.143826 495.870116 160.440804 
Q 497.471053 160.734408 498.951586 161.314866 
L 498.951586 164.571506 
Q 497.457675 163.802062 496.008359 163.444338 
Q 494.559042 163.086614 492.958105 163.086614 
Q 490.086228 163.086614 488.440697 164.480388 
Q 486.799624 165.870788 486.799624 168.317486 
Q 486.799624 170.754061 488.440697 172.147835 
Q 490.086228 173.538235 492.958105 173.538235 
Q 494.559042 173.538235 496.008359 173.18051 
Q 497.457675 172.819412 498.951586 172.049967 
L 498.951586 175.309982 
z
" clip-path="url(#pcce047005b)" style="fill: #0000ff"/>
   </g>
   <g id="patch_80">
    <path d="M 498.951586 158.62318 
Q 497.166563 159.383503 495.246671 159.7654 
Q 493.326779 160.143826 491.279952 160.143826 
Q 486.654758 160.143826 483.953422 157.880216 
Q 481.252087 155.616607 481.252087 151.745557 
Q 481.252087 147.829373 484.001023 145.583122 
Q 486.753926 143.336872 491.541755 143.336872 
Q 493.38628 143.336872 495.076102 143.64239 
Q 496.769891 143.944436 498.26931 144.541584 
L 498.26931 147.891865 
Q 496.72229 147.124599 495.191137 146.746173 
Q 493.659983 146.364276 492.120896 146.364276 
Q 489.272792 146.364276 487.729739 147.759937 
Q 486.186685 149.152127 486.186685 151.745557 
Q 486.186685 154.314684 487.674205 155.717289 
Q 489.161724 157.116422 491.89876 157.116422 
Q 492.644503 157.116422 493.283145 157.03657 
Q 493.921787 156.953247 494.429527 156.779658 
L 494.429527 153.634212 
L 491.513988 153.634212 
L 491.513988 150.832475 
L 498.951586 150.832475 
L 498.951586 158.62318 
z
" clip-path="url(#pcce047005b)" style="fill: #ffa600"/>
   </g>
   <g id="patch_81">
    <path d="M 512.143597 191.881426 
L 505.336654 191.881426 
L 504.261874 192.24 
L 499.883139 192.24 
L 506.136407 190.27164 
L 511.32937 190.27164 
L 517.582638 192.24 
L 513.207521 192.24 
L 512.143597 191.881426 
z
M 506.422291 191.516103 
L 511.047104 191.516103 
L 508.738316 190.733146 
L 506.422291 191.516103 
z
" clip-path="url(#pcce047005b)" style="fill: #008000"/>
   </g>
   <g id="patch_82">
    <path d="M 499.883139 186.981675 
L 517.582638 186.981675 
L 517.582638 187.62331 
L 511.214934 187.62331 
L 511.214934 190.27164 
L 506.263191 190.27164 
L 506.263191 187.62331 
L 499.883139 187.62331 
L 499.883139 186.981675 
z
" clip-path="url(#pcce047005b)" style="fill: #ff0000"/>
   </g>
   <g id="patch_83">
    <path d="M 517.582638 180.838268 
Q 515.797614 183.909972 513.877722 185.452836 
Q 511.957831 186.981675 509.911004 186.981675 
Q 505.28581 186.981675 502.584474 177.836695 
Q 499.883139 168.691714 499.883139 153.052676 
Q 499.883139 137.231298 502.632075 128.156448 
Q 505.384978 119.081598 510.172807 119.081598 
Q 512.017331 119.081598 513.707153 120.31589 
Q 515.400942 121.536156 516.900362 123.948635 
L 516.900362 137.483767 
Q 515.353342 134.384011 513.822188 132.855173 
Q 512.291035 131.312308 510.751948 131.312308 
Q 507.903844 131.312308 506.36079 136.950777 
Q 504.817737 142.575221 504.817737 153.052676 
Q 504.817737 163.431948 506.305256 169.098469 
Q 507.792776 174.750965 510.529812 174.750965 
Q 511.275555 174.750965 511.914197 174.428366 
Q 512.552838 174.091741 513.060578 173.390439 
L 513.060578 160.682843 
L 510.14504 160.682843 
L 510.14504 149.363826 
L 517.582638 149.363826 
L 517.582638 180.838268 
z
" clip-path="url(#pcce047005b)" style="fill: #ffa600"/>
   </g>
   <g id="patch_84">
    <path d="M 518.51419 190.890142 
L 536.213689 190.890142 
L 536.213689 191.153402 
L 529.845986 191.153402 
L 529.845986 192.24 
L 524.894242 192.24 
L 524.894242 191.153402 
L 518.51419 191.153402 
L 518.51419 190.890142 
z
" clip-path="url(#pcce047005b)" style="fill: #ff0000"/>
   </g>
   <g id="patch_85">
    <path d="M 530.774649 189.68937 
L 523.967706 189.68937 
L 522.892926 190.890142 
L 518.51419 190.890142 
L 524.767458 184.29861 
L 529.960421 184.29861 
L 536.213689 190.890142 
L 531.838573 190.890142 
L 530.774649 189.68937 
z
M 525.053343 188.465995 
L 529.678156 188.465995 
L 527.369368 185.844074 
L 525.053343 188.465995 
z
" clip-path="url(#pcce047005b)" style="fill: #008000"/>
   </g>
   <g id="patch_86">
    <path d="M 536.213689 182.890715 
Q 534.428666 183.594663 532.508774 183.948244 
Q 530.588882 184.29861 528.542055 184.29861 
Q 523.916861 184.29861 521.215526 182.202839 
Q 518.51419 180.107067 518.51419 176.523041 
Q 518.51419 172.897228 521.263126 170.817528 
Q 524.016029 168.737828 528.803859 168.737828 
Q 530.648383 168.737828 532.338205 169.020693 
Q 534.031994 169.300344 535.531414 169.853216 
L 535.531414 172.955086 
Q 533.984394 172.24471 532.45324 171.894343 
Q 530.922087 171.540762 529.383 171.540762 
Q 526.534896 171.540762 524.991842 172.83294 
Q 523.448788 174.121904 523.448788 176.523041 
Q 523.448788 178.901677 524.936308 180.200284 
Q 526.423828 181.495677 529.160864 181.495677 
Q 529.906607 181.495677 530.545248 181.421746 
Q 531.18389 181.344601 531.69163 181.183882 
L 531.69163 178.27166 
L 528.776092 178.27166 
L 528.776092 175.677661 
L 536.213689 175.677661 
L 536.213689 182.890715 
z
" clip-path="url(#pcce047005b)" style="fill: #ffa600"/>
   </g>
   <g id="patch_87">
    <path d="M 549.405701 190.574942 
L 542.598758 190.574942 
L 541.523977 192.24 
L 537.145242 192.24 
L 543.39851 183.099809 
L 548.591473 183.099809 
L 554.844741 192.24 
L 550.469625 192.24 
L 549.405701 190.574942 
z
M 543.684395 188.878541 
L 548.309208 188.878541 
L 546.00042 185.242837 
L 543.684395 188.878541 
z
" clip-path="url(#pcce047005b)" style="fill: #008000"/>
   </g>
   <g id="patch_88">
    <path d="M 537.145242 173.172206 
L 554.844741 173.172206 
L 554.844741 175.108365 
L 548.477038 175.108365 
L 548.477038 183.099809 
L 543.525294 183.099809 
L 543.525294 175.108365 
L 537.145242 175.108365 
L 537.145242 173.172206 
z
" clip-path="url(#pcce047005b)" style="fill: #ff0000"/>
   </g>
   <g id="patch_89">
    <path d="M 554.844741 170.859557 
Q 553.059718 172.015882 551.139826 172.596684 
Q 549.219934 173.172206 547.173107 173.172206 
Q 542.547913 173.172206 539.846578 169.729633 
Q 537.145242 166.287061 537.145242 160.399841 
Q 537.145242 154.44398 539.894178 151.027808 
Q 542.647081 147.611636 547.434911 147.611636 
Q 549.279435 147.611636 550.969257 148.076277 
Q 552.663046 148.535639 554.162466 149.443802 
L 554.162466 154.53902 
Q 552.615445 153.372136 551.084292 152.796614 
Q 549.553138 152.215812 548.014052 152.215812 
Q 545.165947 152.215812 543.622894 154.338379 
Q 542.07984 156.455667 542.07984 160.399841 
Q 542.07984 164.307054 543.56736 166.440182 
Q 545.054879 168.568029 547.791915 168.568029 
Q 548.537658 168.568029 549.1763 168.446589 
Q 549.814942 168.319869 550.322682 168.055868 
L 550.322682 163.272171 
L 547.407144 163.272171 
L 547.407144 159.011196 
L 554.844741 159.011196 
L 554.844741 170.859557 
z
" clip-path="url(#pcce047005b)" style="fill: #ffa600"/>
   </g>
   <g id="patch_90">
    <path d="M 555.776294 190.890664 
L 573.475793 190.890664 
L 573.475793 191.153822 
L 567.108089 191.153822 
L 567.108089 192.24 
L 562.156346 192.24 
L 562.156346 191.153822 
L 555.776294 191.153822 
L 555.776294 190.890664 
z
" clip-path="url(#pcce047005b)" style="fill: #ff0000"/>
   </g>
   <g id="patch_91">
    <path d="M 568.036752 190.100022 
L 561.22981 190.100022 
L 560.155029 190.890664 
L 555.776294 190.890664 
L 562.029562 186.550502 
L 567.222525 186.550502 
L 573.475793 190.890664 
L 569.100677 190.890664 
L 568.036752 190.100022 
z
M 562.315446 189.294497 
L 566.940259 189.294497 
L 564.631472 187.568106 
L 562.315446 189.294497 
z
" clip-path="url(#pcce047005b)" style="fill: #008000"/>
   </g>
   <g id="patch_92">
    <path d="M 573.475793 186.217679 
Q 571.99526 186.382652 570.394323 186.466097 
Q 568.793386 186.550502 567.049747 186.550502 
Q 561.850045 186.550502 558.813169 185.925139 
Q 555.776294 185.299776 555.776294 184.230328 
Q 555.776294 183.157043 558.813169 182.532639 
Q 561.850045 181.907276 567.049747 181.907276 
Q 568.793386 181.907276 570.394323 181.991681 
Q 571.99526 182.075126 573.475793 182.240099 
L 573.475793 183.165676 
Q 571.981882 182.94699 570.532566 182.845321 
Q 569.083249 182.743651 567.482312 182.743651 
Q 564.610435 182.743651 562.964904 183.139779 
Q 561.323831 183.534947 561.323831 184.230328 
Q 561.323831 184.922831 562.964904 185.318959 
Q 564.610435 185.714127 567.482312 185.714127 
Q 569.083249 185.714127 570.532566 185.612457 
Q 571.981882 185.509829 573.475793 185.291143 
L 573.475793 186.217679 
z
" clip-path="url(#pcce047005b)" style="fill: #0000ff"/>
   </g>
   <g id="patch_93">
    <path d="M 573.475793 179.030639 
Q 571.69077 180.468958 569.770878 181.1914 
Q 567.850986 181.907276 565.804159 181.907276 
Q 561.178965 181.907276 558.477629 177.62516 
Q 555.776294 173.343043 555.776294 166.020099 
Q 555.776294 158.611775 558.52523 154.362497 
Q 561.278133 150.113219 566.065962 150.113219 
Q 567.910487 150.113219 569.600309 150.691174 
Q 571.294098 151.26256 572.793517 152.392198 
L 572.793517 158.729993 
Q 571.246497 157.27854 569.715344 156.562664 
Q 568.18419 155.840222 566.645103 155.840222 
Q 563.796999 155.840222 562.253946 158.480422 
Q 560.710892 161.114055 560.710892 166.020099 
Q 560.710892 170.88017 562.198412 173.533505 
Q 563.685931 176.180274 566.422967 176.180274 
Q 567.16871 176.180274 567.807352 176.029217 
Q 568.445994 175.871594 568.953734 175.54321 
L 568.953734 169.592908 
L 566.038195 169.592908 
L 566.038195 164.292804 
L 573.475793 164.292804 
L 573.475793 179.030639 
z
" clip-path="url(#pcce047005b)" style="fill: #ffa600"/>
   </g>
   <g id="patch_94">
    <path d="M 592.106845 192.068752 
Q 590.626312 192.153636 589.025375 192.196571 
Q 587.424438 192.24 585.680798 192.24 
Q 580.481097 192.24 577.444221 191.918232 
Q 574.407346 191.596465 574.407346 191.046202 
Q 574.407346 190.493966 577.444221 190.172692 
Q 580.481097 189.850924 585.680798 189.850924 
Q 587.424438 189.850924 589.025375 189.894353 
Q 590.626312 189.937288 592.106845 190.022172 
L 592.106845 190.498408 
Q 590.612934 190.385888 589.163617 190.333576 
Q 587.714301 190.281264 586.113364 190.281264 
Q 583.241487 190.281264 581.595955 190.485083 
Q 579.954883 190.688409 579.954883 191.046202 
Q 579.954883 191.402516 581.595955 191.606335 
Q 583.241487 191.80966 586.113364 191.80966 
Q 587.714301 191.80966 589.163617 191.757349 
Q 590.612934 191.704543 592.106845 191.592023 
L 592.106845 192.068752 
z
" clip-path="url(#pcce047005b)" style="fill: #0000ff"/>
   </g>
   <g id="patch_95">
    <path d="M 586.667804 189.314772 
L 579.860861 189.314772 
L 578.786081 189.850924 
L 574.407346 189.850924 
L 580.660614 186.907761 
L 585.853577 186.907761 
L 592.106845 189.850924 
L 587.731728 189.850924 
L 586.667804 189.314772 
z
M 580.946498 188.768526 
L 585.571311 188.768526 
L 583.262523 187.597821 
L 580.946498 188.768526 
z
" clip-path="url(#pcce047005b)" style="fill: #008000"/>
   </g>
   <g id="patch_96">
    <path d="M 574.407346 167.26703 
L 592.106845 167.26703 
L 592.106845 171.09752 
L 585.739141 171.09752 
L 585.739141 186.907761 
L 580.787398 186.907761 
L 580.787398 171.09752 
L 574.407346 171.09752 
L 574.407346 167.26703 
z
" clip-path="url(#pcce047005b)" style="fill: #ff0000"/>
   </g>
   <g id="patch_97">
    <path d="M 592.106845 163.532774 
Q 590.321821 165.399902 588.401929 166.337729 
Q 586.482038 167.26703 584.435211 167.26703 
Q 579.810017 167.26703 577.108681 161.708275 
Q 574.407346 156.149519 574.407346 146.643365 
Q 574.407346 137.026377 577.156282 131.51025 
Q 579.909185 125.994123 584.697014 125.994123 
Q 586.541538 125.994123 588.23136 126.744384 
Q 589.925149 127.48612 591.424569 128.95254 
L 591.424569 137.179839 
Q 589.877549 135.29566 588.346395 134.366359 
Q 586.815242 133.428532 585.276155 133.428532 
Q 582.428051 133.428532 580.884997 136.855863 
Q 579.341944 140.274668 579.341944 146.643365 
Q 579.341944 152.952382 580.829463 156.396764 
Q 582.316983 159.832621 585.054019 159.832621 
Q 585.799762 159.832621 586.438404 159.63653 
Q 587.077045 159.431913 587.584785 159.005628 
L 587.584785 151.281345 
L 584.669247 151.281345 
L 584.669247 144.401106 
L 592.106845 144.401106 
L 592.106845 163.532774 
z
" clip-path="url(#pcce047005b)" style="fill: #ffa600"/>
   </g>
   <g id="patch_98">
    <path d="M 605.298856 191.541159 
L 598.491913 191.541159 
L 597.417133 192.24 
L 593.038397 192.24 
L 599.291665 188.403774 
L 604.484628 188.403774 
L 610.737896 192.24 
L 606.36278 192.24 
L 605.298856 191.541159 
z
M 599.57755 190.829163 
L 604.202363 190.829163 
L 601.893575 189.303223 
L 599.57755 190.829163 
z
" clip-path="url(#pcce047005b)" style="fill: #008000"/>
   </g>
   <g id="patch_99">
    <path d="M 593.038397 184.25458 
L 610.737896 184.25458 
L 610.737896 185.063789 
L 604.370193 185.063789 
L 604.370193 188.403774 
L 599.418449 188.403774 
L 599.418449 185.063789 
L 593.038397 185.063789 
L 593.038397 184.25458 
z
" clip-path="url(#pcce047005b)" style="fill: #ff0000"/>
   </g>
   <g id="patch_100">
    <path d="M 610.737896 182.888738 
Q 609.257364 183.565755 607.656427 183.9082 
Q 606.055489 184.25458 604.31185 184.25458 
Q 599.112148 184.25458 596.075273 181.688215 
Q 593.038397 179.121849 593.038397 174.733049 
Q 593.038397 170.328504 596.075273 167.766075 
Q 599.112148 165.199709 604.31185 165.199709 
Q 606.055489 165.199709 607.656427 165.54609 
Q 609.257364 165.888534 610.737896 166.565551 
L 610.737896 170.363929 
Q 609.243986 169.466489 607.794669 169.049257 
Q 606.345353 168.632026 604.744415 168.632026 
Q 601.872539 168.632026 600.227007 170.257653 
Q 598.585935 171.879345 598.585935 174.733049 
Q 598.585935 177.574945 600.227007 179.200572 
Q 601.872539 180.822263 604.744415 180.822263 
Q 606.345353 180.822263 607.794669 180.405032 
Q 609.243986 179.983864 610.737896 179.086424 
L 610.737896 182.888738 
z
" clip-path="url(#pcce047005b)" style="fill: #0000ff"/>
   </g>
   <g id="patch_101">
    <path d="M 610.737896 160.718897 
Q 608.952873 162.959303 607.032981 164.084621 
Q 605.113089 165.199709 603.066262 165.199709 
Q 598.441068 165.199709 595.739733 158.529641 
Q 593.038397 151.859574 593.038397 140.45294 
Q 593.038397 128.913314 595.787333 122.294397 
Q 598.540236 115.675481 603.328066 115.675481 
Q 605.17259 115.675481 606.862412 116.575735 
Q 608.556201 117.465759 610.055621 119.225348 
L 610.055621 129.097457 
Q 608.508601 126.83659 606.977447 125.721502 
Q 605.446294 124.596184 603.907207 124.596184 
Q 601.059103 124.596184 599.516049 128.708711 
Q 597.972995 132.811007 597.972995 140.45294 
Q 597.972995 148.023262 599.460515 152.156249 
Q 600.948035 156.279005 603.685071 156.279005 
Q 604.430814 156.279005 605.069455 156.043711 
Q 605.708097 155.798187 606.215837 155.286679 
L 606.215837 146.01815 
L 603.300299 146.01815 
L 603.300299 137.762407 
L 610.737896 137.762407 
L 610.737896 160.718897 
z
" clip-path="url(#pcce047005b)" style="fill: #ffa600"/>
   </g>
   <g id="patch_102">
    <path d="M 611.669449 186.53635 
L 629.368948 186.53635 
L 629.368948 187.64872 
L 623.001245 187.64872 
L 623.001245 192.24 
L 618.049501 192.24 
L 618.049501 187.64872 
L 611.669449 187.64872 
L 611.669449 186.53635 
z
" clip-path="url(#pcce047005b)" style="fill: #ff0000"/>
   </g>
   <g id="patch_103">
    <path d="M 623.929908 184.164193 
L 617.122965 184.164193 
L 616.048184 186.53635 
L 611.669449 186.53635 
L 617.922717 173.514607 
L 623.11568 173.514607 
L 629.368948 186.53635 
L 624.993832 186.53635 
L 623.929908 184.164193 
z
M 618.208602 181.747385 
L 622.833415 181.747385 
L 620.524627 176.567712 
L 618.208602 181.747385 
z
" clip-path="url(#pcce047005b)" style="fill: #008000"/>
   </g>
   <g id="patch_104">
    <path d="M 629.368948 171.35472 
Q 627.888416 172.425327 626.287478 172.966855 
Q 624.686541 173.514607 622.942902 173.514607 
Q 617.7432 173.514607 614.706325 169.45626 
Q 611.669449 165.397912 611.669449 158.45764 
Q 611.669449 151.492471 614.706325 147.440348 
Q 617.7432 143.382 622.942902 143.382 
Q 624.686541 143.382 626.287478 143.929753 
Q 627.888416 144.47128 629.368948 145.541887 
L 629.368948 151.548491 
Q 627.875037 150.129314 626.425721 149.469521 
Q 624.976404 148.809729 623.375467 148.809729 
Q 620.503591 148.809729 618.858059 151.38043 
Q 617.216987 153.944907 617.216987 158.45764 
Q 617.216987 162.9517 618.858059 165.522402 
Q 620.503591 168.086879 623.375467 168.086879 
Q 624.976404 168.086879 626.425721 167.427086 
Q 627.875037 166.761069 629.368948 165.341892 
L 629.368948 171.35472 
z
" clip-path="url(#pcce047005b)" style="fill: #0000ff"/>
   </g>
   <g id="patch_105">
    <path d="M 629.368948 139.723552 
Q 627.583925 141.552776 625.664033 142.471564 
Q 623.744141 143.382 621.697314 143.382 
Q 617.07212 143.382 614.370785 137.936091 
Q 611.669449 132.490181 611.669449 123.177008 
Q 611.669449 113.75525 614.418385 108.351104 
Q 617.171288 102.946958 621.959118 102.946958 
Q 623.803642 102.946958 625.493464 103.681988 
Q 627.187253 104.408666 628.686673 105.845317 
L 628.686673 113.905597 
Q 627.139652 112.059668 625.608499 111.149232 
Q 624.077345 110.230444 622.538259 110.230444 
Q 619.690154 110.230444 618.147101 113.588198 
Q 616.604047 116.937599 616.604047 123.177008 
Q 616.604047 129.357948 618.091567 132.732407 
Q 619.579086 136.098514 622.316122 136.098514 
Q 623.061865 136.098514 623.700507 135.906404 
Q 624.339149 135.705941 624.846889 135.28831 
L 624.846889 127.720834 
L 621.931351 127.720834 
L 621.931351 120.980268 
L 629.368948 120.980268 
L 629.368948 139.723552 
z
" clip-path="url(#pcce047005b)" style="fill: #ffa600"/>
   </g>
   <g id="patch_106">
    <path d="M 630.300501 187.936102 
L 648 187.936102 
L 648 188.775482 
L 641.632296 188.775482 
L 641.632296 192.24 
L 636.680553 192.24 
L 636.680553 188.775482 
L 630.300501 188.775482 
L 630.300501 187.936102 
z
" clip-path="url(#pcce047005b)" style="fill: #ff0000"/>
   </g>
   <g id="patch_107">
    <path d="M 642.560959 186.892359 
L 635.754017 186.892359 
L 634.679236 187.936102 
L 630.300501 187.936102 
L 636.553769 182.206567 
L 641.746732 182.206567 
L 648 187.936102 
L 643.624884 187.936102 
L 642.560959 186.892359 
z
M 636.839653 185.828969 
L 641.464466 185.828969 
L 639.155679 183.549925 
L 636.839653 185.828969 
z
" clip-path="url(#pcce047005b)" style="fill: #008000"/>
   </g>
   <g id="patch_108">
    <path d="M 648 179.84189 
Q 646.519467 181.014007 644.91853 181.606879 
Q 643.317593 182.206567 641.573954 182.206567 
Q 636.374252 182.206567 633.337376 177.763429 
Q 630.300501 173.32029 630.300501 165.721979 
Q 630.300501 158.096409 633.337376 153.660086 
Q 636.374252 149.216947 641.573954 149.216947 
Q 643.317593 149.216947 644.91853 149.816635 
Q 646.519467 150.409507 648 151.581624 
L 648 158.157741 
Q 646.506089 156.604005 645.056773 155.881655 
Q 643.607456 155.159304 642.006519 155.159304 
Q 639.134642 155.159304 637.489111 157.973746 
Q 635.848038 160.781373 635.848038 165.721979 
Q 635.848038 170.642141 637.489111 173.456583 
Q 639.134642 176.26421 642.006519 176.26421 
Q 643.607456 176.26421 645.056773 175.541859 
Q 646.506089 174.812694 648 173.258959 
L 648 179.84189 
z
" clip-path="url(#pcce047005b)" style="fill: #0000ff"/>
   </g>
   <g id="patch_109">
    <path d="M 648 145.169568 
Q 646.214977 147.193258 644.295085 148.209723 
Q 642.375193 149.216947 640.328366 149.216947 
Q 635.703172 149.216947 633.001836 143.192081 
Q 630.300501 137.167214 630.300501 126.863954 
Q 630.300501 116.440565 633.049437 110.461901 
Q 635.80234 104.483238 640.590169 104.483238 
Q 642.434694 104.483238 644.124516 105.29641 
Q 645.818305 106.100342 647.317724 107.689724 
L 647.317724 116.606896 
Q 645.770704 114.564725 644.239551 113.5575 
Q 642.708397 112.541035 641.16931 112.541035 
Q 638.321206 112.541035 636.778153 116.255753 
Q 635.235099 119.961231 635.235099 126.863954 
Q 635.235099 133.701992 636.722619 137.435192 
Q 638.210138 141.15915 640.947174 141.15915 
Q 641.692917 141.15915 642.331559 140.946617 
Q 642.970201 140.724843 643.477941 140.262813 
L 643.477941 131.890836 
L 640.562402 131.890836 
L 640.562402 124.433678 
L 648 124.433678 
L 648 145.169568 
z
" clip-path="url(#pcce047005b)" style="fill: #ffa600"/>
   </g>
   <g id="patch_110">
    <path d="M 108.631052 193.623608 
L 126.330551 193.623608 
L 126.330551 193.353766 
L 119.962847 193.353766 
L 119.962847 192.24 
L 115.011104 192.24 
L 115.011104 193.353766 
L 108.631052 193.353766 
L 108.631052 193.623608 
z
" clip-path="url(#pcce047005b)" style="fill: #ff0000"/>
   </g>
   <g id="patch_111">
    <path d="M 201.786311 194.447228 
L 219.48581 194.447228 
L 219.48581 194.016757 
L 213.118106 194.016757 
L 213.118106 192.24 
L 208.166363 192.24 
L 208.166363 194.016757 
L 201.786311 194.016757 
L 201.786311 194.447228 
z
" clip-path="url(#pcce047005b)" style="fill: #ff0000"/>
   </g>
   <g id="patch_112">
    <path d="M 325.83308 192.434018 
L 319.026137 192.434018 
L 317.951356 192.24 
L 313.572621 192.24 
L 319.825889 193.305046 
L 325.018852 193.305046 
L 331.27212 192.24 
L 326.897004 192.24 
L 325.83308 192.434018 
z
M 320.111774 192.631689 
L 324.736586 192.631689 
L 322.427799 193.055333 
L 320.111774 192.631689 
z
" clip-path="url(#pcce047005b)" style="fill: #008000"/>
   </g>
   <g id="patch_113">
    <path d="M 368.534224 192.265985 
Q 367.053691 192.253105 365.452754 192.24659 
Q 363.851817 192.24 362.108177 192.24 
Q 356.908476 192.24 353.8716 192.288825 
Q 350.834725 192.33765 350.834725 192.421146 
Q 350.834725 192.504942 353.8716 192.553692 
Q 356.908476 192.602517 362.108177 192.602517 
Q 363.851817 192.602517 365.452754 192.595927 
Q 367.053691 192.589412 368.534224 192.576532 
L 368.534224 192.504268 
Q 367.040313 192.521342 365.590996 192.529279 
Q 364.14168 192.537217 362.540743 192.537217 
Q 359.668866 192.537217 358.023334 192.50629 
Q 356.382262 192.475437 356.382262 192.421146 
Q 356.382262 192.367079 358.023334 192.336152 
Q 359.668866 192.305299 362.540743 192.305299 
Q 364.14168 192.305299 365.590996 192.313237 
Q 367.040313 192.32125 368.534224 192.338324 
L 368.534224 192.265985 
z
" clip-path="url(#pcce047005b)" style="fill: #0000ff"/>
   </g>
   <g id="patch_114">
    <path d="M 381.726235 192.322698 
L 374.919292 192.322698 
L 373.844512 192.255411 
L 369.465776 192.255411 
L 375.719044 192.624775 
L 380.912007 192.624775 
L 387.165275 192.255411 
L 382.790159 192.255411 
L 381.726235 192.322698 
z
M 376.004929 192.391251 
L 380.629742 192.391251 
L 378.320954 192.538173 
L 376.004929 192.391251 
z
" clip-path="url(#pcce047005b)" style="fill: #008000"/>
   </g>
   <g id="patch_115">
    <path d="M 369.465776 192.255411 
L 387.165275 192.255411 
L 387.165275 192.252405 
L 380.797572 192.252405 
L 380.797572 192.24 
L 375.845828 192.24 
L 375.845828 192.252405 
L 369.465776 192.252405 
L 369.465776 192.255411 
z
" clip-path="url(#pcce047005b)" style="fill: #ff0000"/>
   </g>
   <g id="patch_116">
    <path d="M 406.72788 192.560348 
L 424.427379 192.560348 
L 424.427379 192.497871 
L 418.059675 192.497871 
L 418.059675 192.24 
L 413.107932 192.24 
L 413.107932 192.497871 
L 406.72788 192.497871 
L 406.72788 192.560348 
z
" clip-path="url(#pcce047005b)" style="fill: #ff0000"/>
   </g>
   <g id="patch_117">
    <path d="M 480.320534 192.300186 
Q 478.840002 192.270353 477.239064 192.255263 
Q 475.638127 192.24 473.894488 192.24 
Q 468.694786 192.24 465.657911 192.353087 
Q 462.621035 192.466175 462.621035 192.659568 
Q 462.621035 192.853655 465.657911 192.966569 
Q 468.694786 193.079656 473.894488 193.079656 
Q 475.638127 193.079656 477.239064 193.064393 
Q 478.840002 193.049303 480.320534 193.01947 
L 480.320534 192.852094 
Q 478.826623 192.89164 477.377307 192.910025 
Q 475.92799 192.92841 474.327053 192.92841 
Q 471.455177 192.92841 469.809645 192.856777 
Q 468.168573 192.785317 468.168573 192.659568 
Q 468.168573 192.534339 469.809645 192.462706 
Q 471.455177 192.391246 474.327053 192.391246 
Q 475.92799 192.391246 477.377307 192.409631 
Q 478.826623 192.42819 480.320534 192.467736 
L 480.320534 192.300186 
z
" clip-path="url(#pcce047005b)" style="fill: #0000ff"/>
   </g>
   <g id="patch_118">
    <path d="M 481.252087 198.929392 
L 498.951586 198.929392 
L 498.951586 197.624774 
L 492.583882 197.624774 
L 492.583882 192.24 
L 487.632139 192.24 
L 487.632139 197.624774 
L 481.252087 197.624774 
L 481.252087 198.929392 
z
" clip-path="url(#pcce047005b)" style="fill: #ff0000"/>
   </g>
   <g id="patch_119">
    <path d="M 517.582638 193.501549 
Q 516.102105 192.876228 514.501168 192.559932 
Q 512.900231 192.24 511.156591 192.24 
Q 505.95689 192.24 502.920014 194.610404 
Q 499.883139 196.980807 499.883139 201.034488 
Q 499.883139 205.102711 502.920014 207.469479 
Q 505.95689 209.839883 511.156591 209.839883 
Q 512.900231 209.839883 514.501168 209.519951 
Q 516.102105 209.203655 517.582638 208.578334 
L 517.582638 205.069991 
Q 516.088727 205.898905 514.63941 206.284277 
Q 513.190094 206.66965 511.589157 206.66965 
Q 508.71728 206.66965 507.071748 205.168152 
Q 505.430676 203.670289 505.430676 201.034488 
Q 505.430676 198.409593 507.071748 196.908095 
Q 508.71728 195.410233 511.589157 195.410233 
Q 513.190094 195.410233 514.63941 195.795605 
Q 516.088727 196.184613 517.582638 197.013527 
L 517.582638 193.501549 
z
" clip-path="url(#pcce047005b)" style="fill: #0000ff"/>
   </g>
   <g id="patch_120">
    <path d="M 536.213689 193.097787 
Q 534.733157 192.672602 533.13222 192.457537 
Q 531.531282 192.24 529.787643 192.24 
Q 524.587941 192.24 521.551066 193.851751 
Q 518.51419 195.463501 518.51419 198.219792 
Q 518.51419 200.985972 521.551066 202.59525 
Q 524.587941 204.207001 529.787643 204.207001 
Q 531.531282 204.207001 533.13222 203.989464 
Q 534.733157 203.774399 536.213689 203.349213 
L 536.213689 200.963723 
Q 534.719779 201.527342 533.270462 201.789375 
Q 531.821146 202.051408 530.220208 202.051408 
Q 527.348332 202.051408 525.7028 201.030468 
Q 524.061728 200.012 524.061728 198.219792 
Q 524.061728 196.435001 525.7028 195.414061 
Q 527.348332 194.395593 530.220208 194.395593 
Q 531.821146 194.395593 533.270462 194.657626 
Q 534.719779 194.922131 536.213689 195.485749 
L 536.213689 193.097787 
z
" clip-path="url(#pcce047005b)" style="fill: #0000ff"/>
   </g>
   <g id="patch_121">
    <path d="M 554.844741 193.779394 
Q 553.364209 193.016352 551.763271 192.630394 
Q 550.162334 192.24 548.418695 192.24 
Q 543.218993 192.24 540.182118 195.132464 
Q 537.145242 198.024928 537.145242 202.971397 
Q 537.145242 207.935611 540.182118 210.823638 
Q 543.218993 213.716102 548.418695 213.716102 
Q 550.162334 213.716102 551.763271 213.325709 
Q 553.364209 212.939751 554.844741 212.176708 
L 554.844741 207.895684 
Q 553.35083 208.907159 551.901514 209.377406 
Q 550.452197 209.847654 548.85126 209.847654 
Q 545.979384 209.847654 544.333852 208.015464 
Q 542.69278 206.18771 542.69278 202.971397 
Q 542.69278 199.768392 544.333852 197.936202 
Q 545.979384 196.108449 548.85126 196.108449 
Q 550.452197 196.108449 551.901514 196.578696 
Q 553.35083 197.05338 554.844741 198.064855 
L 554.844741 193.779394 
z
" clip-path="url(#pcce047005b)" style="fill: #0000ff"/>
   </g>
   <g id="matplotlib.axis_1">
    <g id="xtick_1">
     <g id="line2d_2">
      <defs>
       <path id="m9b0c6cf4e1" d="M 0 0 
L 0 3.5 
" style="stroke: #000000; stroke-width: 0.8"/>
      </defs>
      <g>
       <use xlink:href="#m9b0c6cf4e1" x="98.84975" y="192.24" style="stroke: #000000; stroke-width: 0.8"/>
      </g>
     </g>
     <g id="text_1">
      <!-- 0 -->
      <g transform="translate(95.6685 206.838437) scale(0.1 -0.1)">
       <defs>
        <path id="DejaVuSans-30" d="M 2034 4250 
Q 1547 4250 1301 3770 
Q 1056 3291 1056 2328 
Q 1056 1369 1301 889 
Q 1547 409 2034 409 
Q 2525 409 2770 889 
Q 3016 1369 3016 2328 
Q 3016 3291 2770 3770 
Q 2525 4250 2034 4250 
z
M 2034 4750 
Q 2819 4750 3233 4129 
Q 3647 3509 3647 2328 
Q 3647 1150 3233 529 
Q 2819 -91 2034 -91 
Q 1250 -91 836 529 
Q 422 1150 422 2328 
Q 422 3509 836 4129 
Q 1250 4750 2034 4750 
z
" transform="scale(0.015625)"/>
       </defs>
       <use xlink:href="#DejaVuSans-30"/>
      </g>
     </g>
    </g>
    <g id="xtick_2">
     <g id="line2d_3">
      <g>
       <use xlink:href="#m9b0c6cf4e1" x="192.005008" y="192.24" style="stroke: #000000; stroke-width: 0.8"/>
      </g>
     </g>
     <g id="text_2">
      <!-- 5 -->
      <g transform="translate(188.823758 206.838437) scale(0.1 -0.1)">
       <defs>
        <path id="DejaVuSans-35" d="M 691 4666 
L 3169 4666 
L 3169 4134 
L 1269 4134 
L 1269 2991 
Q 1406 3038 1543 3061 
Q 1681 3084 1819 3084 
Q 2600 3084 3056 2656 
Q 3513 2228 3513 1497 
Q 3513 744 3044 326 
Q 2575 -91 1722 -91 
Q 1428 -91 1123 -41 
Q 819 9 494 109 
L 494 744 
Q 775 591 1075 516 
Q 1375 441 1709 441 
Q 2250 441 2565 725 
Q 2881 1009 2881 1497 
Q 2881 1984 2565 2268 
Q 2250 2553 1709 2553 
Q 1456 2553 1204 2497 
Q 953 2441 691 2322 
L 691 4666 
z
" transform="scale(0.015625)"/>
       </defs>
       <use xlink:href="#DejaVuSans-35"/>
      </g>
     </g>
    </g>
    <g id="xtick_3">
     <g id="line2d_4">
      <g>
       <use xlink:href="#m9b0c6cf4e1" x="285.160267" y="192.24" style="stroke: #000000; stroke-width: 0.8"/>
      </g>
     </g>
     <g id="text_3">
      <!-- 10 -->
      <g transform="translate(278.797767 206.838437) scale(0.1 -0.1)">
       <defs>
        <path id="DejaVuSans-31" d="M 794 531 
L 1825 531 
L 1825 4091 
L 703 3866 
L 703 4441 
L 1819 4666 
L 2450 4666 
L 2450 531 
L 3481 531 
L 3481 0 
L 794 0 
L 794 531 
z
" transform="scale(0.015625)"/>
       </defs>
       <use xlink:href="#DejaVuSans-31"/>
       <use xlink:href="#DejaVuSans-30" x="63.623047"/>
      </g>
     </g>
    </g>
    <g id="xtick_4">
     <g id="line2d_5">
      <g>
       <use xlink:href="#m9b0c6cf4e1" x="378.315526" y="192.24" style="stroke: #000000; stroke-width: 0.8"/>
      </g>
     </g>
     <g id="text_4">
      <!-- 15 -->
      <g transform="translate(371.953026 206.838437) scale(0.1 -0.1)">
       <use xlink:href="#DejaVuSans-31"/>
       <use xlink:href="#DejaVuSans-35" x="63.623047"/>
      </g>
     </g>
    </g>
    <g id="xtick_5">
     <g id="line2d_6">
      <g>
       <use xlink:href="#m9b0c6cf4e1" x="471.470785" y="192.24" style="stroke: #000000; stroke-width: 0.8"/>
      </g>
     </g>
     <g id="text_5">
      <!-- 20 -->
      <g transform="translate(465.108285 206.838437) scale(0.1 -0.1)">
       <defs>
        <path id="DejaVuSans-32" d="M 1228 531 
L 3431 531 
L 3431 0 
L 469 0 
L 469 531 
Q 828 903 1448 1529 
Q 2069 2156 2228 2338 
Q 2531 2678 2651 2914 
Q 2772 3150 2772 3378 
Q 2772 3750 2511 3984 
Q 2250 4219 1831 4219 
Q 1534 4219 1204 4116 
Q 875 4013 500 3803 
L 500 4441 
Q 881 4594 1212 4672 
Q 1544 4750 1819 4750 
Q 2544 4750 2975 4387 
Q 3406 4025 3406 3419 
Q 3406 3131 3298 2873 
Q 3191 2616 2906 2266 
Q 2828 2175 2409 1742 
Q 1991 1309 1228 531 
z
" transform="scale(0.015625)"/>
       </defs>
       <use xlink:href="#DejaVuSans-32"/>
       <use xlink:href="#DejaVuSans-30" x="63.623047"/>
      </g>
     </g>
    </g>
    <g id="xtick_6">
     <g id="line2d_7">
      <g>
       <use xlink:href="#m9b0c6cf4e1" x="564.626043" y="192.24" style="stroke: #000000; stroke-width: 0.8"/>
      </g>
     </g>
     <g id="text_6">
      <!-- 25 -->
      <g transform="translate(558.263543 206.838437) scale(0.1 -0.1)">
       <use xlink:href="#DejaVuSans-32"/>
       <use xlink:href="#DejaVuSans-35" x="63.623047"/>
      </g>
     </g>
    </g>
   </g>
   <g id="matplotlib.axis_2">
    <g id="ytick_1">
     <g id="line2d_8">
      <defs>
       <path id="maebe82e284" d="M 0 0 
L -3.5 0 
" style="stroke: #000000; stroke-width: 0.8"/>
      </defs>
      <g>
       <use xlink:href="#maebe82e284" x="90" y="192.24" style="stroke: #000000; stroke-width: 0.8"/>
      </g>
     </g>
     <g id="text_7">
      <!-- 0.000 -->
      <g transform="translate(54.371875 196.039219) scale(0.1 -0.1)">
       <defs>
        <path id="DejaVuSans-2e" d="M 684 794 
L 1344 794 
L 1344 0 
L 684 0 
L 684 794 
z
" transform="scale(0.015625)"/>
       </defs>
       <use xlink:href="#DejaVuSans-30"/>
       <use xlink:href="#DejaVuSans-2e" x="63.623047"/>
       <use xlink:href="#DejaVuSans-30" x="95.410156"/>
       <use xlink:href="#DejaVuSans-30" x="159.033203"/>
       <use xlink:href="#DejaVuSans-30" x="222.65625"/>
      </g>
     </g>
    </g>
    <g id="ytick_2">
     <g id="line2d_9">
      <g>
       <use xlink:href="#maebe82e284" x="90" y="154.150737" style="stroke: #000000; stroke-width: 0.8"/>
      </g>
     </g>
     <g id="text_8">
      <!-- 0.002 -->
      <g transform="translate(54.371875 157.949956) scale(0.1 -0.1)">
       <use xlink:href="#DejaVuSans-30"/>
       <use xlink:href="#DejaVuSans-2e" x="63.623047"/>
       <use xlink:href="#DejaVuSans-30" x="95.410156"/>
       <use xlink:href="#DejaVuSans-30" x="159.033203"/>
       <use xlink:href="#DejaVuSans-32" x="222.65625"/>
      </g>
     </g>
    </g>
    <g id="ytick_3">
     <g id="line2d_10">
      <g>
       <use xlink:href="#maebe82e284" x="90" y="116.061475" style="stroke: #000000; stroke-width: 0.8"/>
      </g>
     </g>
     <g id="text_9">
      <!-- 0.004 -->
      <g transform="translate(54.371875 119.860694) scale(0.1 -0.1)">
       <defs>
        <path id="DejaVuSans-34" d="M 2419 4116 
L 825 1625 
L 2419 1625 
L 2419 4116 
z
M 2253 4666 
L 3047 4666 
L 3047 1625 
L 3713 1625 
L 3713 1100 
L 3047 1100 
L 3047 0 
L 2419 0 
L 2419 1100 
L 313 1100 
L 313 1709 
L 2253 4666 
z
" transform="scale(0.015625)"/>
       </defs>
       <use xlink:href="#DejaVuSans-30"/>
       <use xlink:href="#DejaVuSans-2e" x="63.623047"/>
       <use xlink:href="#DejaVuSans-30" x="95.410156"/>
       <use xlink:href="#DejaVuSans-30" x="159.033203"/>
       <use xlink:href="#DejaVuSans-34" x="222.65625"/>
      </g>
     </g>
    </g>
    <g id="ytick_4">
     <g id="line2d_11">
      <g>
       <use xlink:href="#maebe82e284" x="90" y="77.972212" style="stroke: #000000; stroke-width: 0.8"/>
      </g>
     </g>
     <g id="text_10">
      <!-- 0.006 -->
      <g transform="translate(54.371875 81.771431) scale(0.1 -0.1)">
       <defs>
        <path id="DejaVuSans-36" d="M 2113 2584 
Q 1688 2584 1439 2293 
Q 1191 2003 1191 1497 
Q 1191 994 1439 701 
Q 1688 409 2113 409 
Q 2538 409 2786 701 
Q 3034 994 3034 1497 
Q 3034 2003 2786 2293 
Q 2538 2584 2113 2584 
z
M 3366 4563 
L 3366 3988 
Q 3128 4100 2886 4159 
Q 2644 4219 2406 4219 
Q 1781 4219 1451 3797 
Q 1122 3375 1075 2522 
Q 1259 2794 1537 2939 
Q 1816 3084 2150 3084 
Q 2853 3084 3261 2657 
Q 3669 2231 3669 1497 
Q 3669 778 3244 343 
Q 2819 -91 2113 -91 
Q 1303 -91 875 529 
Q 447 1150 447 2328 
Q 447 3434 972 4092 
Q 1497 4750 2381 4750 
Q 2619 4750 2861 4703 
Q 3103 4656 3366 4563 
z
" transform="scale(0.015625)"/>
       </defs>
       <use xlink:href="#DejaVuSans-30"/>
       <use xlink:href="#DejaVuSans-2e" x="63.623047"/>
       <use xlink:href="#DejaVuSans-30" x="95.410156"/>
       <use xlink:href="#DejaVuSans-30" x="159.033203"/>
       <use xlink:href="#DejaVuSans-36" x="222.65625"/>
      </g>
     </g>
    </g>
    <g id="ytick_5">
     <g id="line2d_12">
      <g>
       <use xlink:href="#maebe82e284" x="90" y="39.88295" style="stroke: #000000; stroke-width: 0.8"/>
      </g>
     </g>
     <g id="text_11">
      <!-- 0.008 -->
      <g transform="translate(54.371875 43.682168) scale(0.1 -0.1)">
       <defs>
        <path id="DejaVuSans-38" d="M 2034 2216 
Q 1584 2216 1326 1975 
Q 1069 1734 1069 1313 
Q 1069 891 1326 650 
Q 1584 409 2034 409 
Q 2484 409 2743 651 
Q 3003 894 3003 1313 
Q 3003 1734 2745 1975 
Q 2488 2216 2034 2216 
z
M 1403 2484 
Q 997 2584 770 2862 
Q 544 3141 544 3541 
Q 544 4100 942 4425 
Q 1341 4750 2034 4750 
Q 2731 4750 3128 4425 
Q 3525 4100 3525 3541 
Q 3525 3141 3298 2862 
Q 3072 2584 2669 2484 
Q 3125 2378 3379 2068 
Q 3634 1759 3634 1313 
Q 3634 634 3220 271 
Q 2806 -91 2034 -91 
Q 1263 -91 848 271 
Q 434 634 434 1313 
Q 434 1759 690 2068 
Q 947 2378 1403 2484 
z
M 1172 3481 
Q 1172 3119 1398 2916 
Q 1625 2713 2034 2713 
Q 2441 2713 2670 2916 
Q 2900 3119 2900 3481 
Q 2900 3844 2670 4047 
Q 2441 4250 2034 4250 
Q 1625 4250 1398 4047 
Q 1172 3844 1172 3481 
z
" transform="scale(0.015625)"/>
       </defs>
       <use xlink:href="#DejaVuSans-30"/>
       <use xlink:href="#DejaVuSans-2e" x="63.623047"/>
       <use xlink:href="#DejaVuSans-30" x="95.410156"/>
       <use xlink:href="#DejaVuSans-30" x="159.033203"/>
       <use xlink:href="#DejaVuSans-38" x="222.65625"/>
      </g>
     </g>
    </g>
   </g>
  </g>
 </g>
 <defs>
  <clipPath id="pcce047005b">
   <rect x="90" y="25.92" width="558" height="166.32"/>
  </clipPath>
 </defs>
</svg>
