<?xml version="1.0" encoding="utf-8" standalone="no"?>
<!DOCTYPE svg PUBLIC "-//W3C//DTD SVG 1.1//EN"
  "http://www.w3.org/Graphics/SVG/1.1/DTD/svg11.dtd">
<svg xmlns:xlink="http://www.w3.org/1999/xlink" width="720pt" height="216pt" viewBox="0 0 720 216" xmlns="http://www.w3.org/2000/svg" version="1.1">
 <metadata>
  <rdf:RDF xmlns:dc="http://purl.org/dc/elements/1.1/" xmlns:cc="http://creativecommons.org/ns#" xmlns:rdf="http://www.w3.org/1999/02/22-rdf-syntax-ns#">
   <cc:Work>
    <dc:type rdf:resource="http://purl.org/dc/dcmitype/StillImage"/>
    <dc:date>2024-11-23T04:40:33.204371</dc:date>
    <dc:format>image/svg+xml</dc:format>
    <dc:creator>
     <cc:Agent>
      <dc:title>Matplotlib v3.7.2, https://matplotlib.org/</dc:title>
     </cc:Agent>
    </dc:creator>
   </cc:Work>
  </rdf:RDF>
 </metadata>
 <defs>
  <style type="text/css">*{stroke-linejoin: round; stroke-linecap: butt}</style>
 </defs>
 <g id="figure_1">
  <g id="patch_1">
   <path d="M 0 216 
L 720 216 
L 720 0 
L 0 0 
z
" style="fill: #ffffff"/>
  </g>
  <g id="axes_1">
   <g id="patch_2">
    <path d="M 90 192.24 
L 648 192.24 
L 648 25.92 
L 90 25.92 
z
" style="fill: #ffffff"/>
   </g>
   <g id="line2d_1">
    <path d="M 90 192.24 
L 648 192.24 
" clip-path="url(#p59f5fbe5f6)" style="fill: none; stroke: #000000; stroke-width: 0.5; stroke-linecap: square"/>
   </g>
   <g id="patch_3">
    <path d="M 123.23511 191.678681 
Q 119.883295 191.959341 116.278231 192.100311 
Q 112.673168 192.24 108.829753 192.24 
Q 100.144827 192.24 95.072414 191.40443 
Q 90 190.56886 90 189.139933 
Q 90 187.694345 95.161795 186.865183 
Q 100.331039 186.036021 109.321352 186.036021 
Q 112.784895 186.036021 115.957947 186.148797 
Q 119.138447 186.260292 121.953971 186.480718 
L 121.953971 187.717413 
Q 119.049065 187.434191 116.173952 187.294502 
Q 113.29884 187.153531 110.40883 187.153531 
Q 105.060823 187.153531 102.163365 187.668714 
Q 99.265907 188.182615 99.265907 189.139933 
Q 99.265907 190.088279 102.059086 190.606025 
Q 104.852266 191.122489 109.991715 191.122489 
Q 111.392029 191.122489 112.591234 191.093014 
Q 113.790439 191.062256 114.743845 190.998179 
L 114.743845 189.837095 
L 109.269213 189.837095 
L 109.269213 188.802885 
L 123.23511 188.802885 
L 123.23511 191.678681 
z
" clip-path="url(#p59f5fbe5f6)" style="fill: #ffa600"/>
   </g>
   <g id="patch_4">
    <path d="M 123.23511 185.581746 
Q 120.45505 185.80692 117.448901 185.920816 
Q 114.442753 186.036021 111.168646 186.036021 
Q 101.404943 186.036021 95.702472 185.182456 
Q 90 184.328892 90 182.869192 
Q 90 181.404256 95.702472 180.552001 
Q 101.404943 179.698437 111.168646 179.698437 
Q 114.442753 179.698437 117.448901 179.813642 
Q 120.45505 179.927538 123.23511 180.152711 
L 123.23511 181.416038 
Q 120.429929 181.117553 117.708485 180.978783 
Q 114.987041 180.840013 111.980893 180.840013 
Q 106.588247 180.840013 103.498362 181.380691 
Q 100.41685 181.92006 100.41685 182.869192 
Q 100.41685 183.814397 103.498362 184.355075 
Q 106.588247 184.894444 111.980893 184.894444 
Q 114.987041 184.894444 117.708485 184.755674 
Q 120.429929 184.615595 123.23511 184.31711 
L 123.23511 185.581746 
z
" clip-path="url(#p59f5fbe5f6)" style="fill: #0000ff"/>
   </g>
   <g id="patch_5">
    <path d="M 158.219436 192.032279 
Q 154.867621 192.136139 151.262557 192.188307 
Q 147.657494 192.24 143.814079 192.24 
Q 135.129153 192.24 130.05674 191.93079 
Q 124.984326 191.621579 124.984326 191.092792 
Q 124.984326 190.557839 130.146121 190.251 
Q 135.315365 189.944161 144.305678 189.944161 
Q 147.769221 189.944161 150.942273 189.985895 
Q 154.122773 190.027155 156.938297 190.108725 
L 156.938297 190.566376 
Q 154.033391 190.461567 151.158278 190.409873 
Q 148.283166 190.357706 145.393156 190.357706 
Q 140.045149 190.357706 137.147691 190.548354 
Q 134.250233 190.738528 134.250233 191.092792 
Q 134.250233 191.443736 137.043412 191.635333 
Q 139.836592 191.826455 144.976042 191.826455 
Q 146.376355 191.826455 147.57556 191.815547 
Q 148.774765 191.804165 149.728171 191.780453 
L 149.728171 191.350783 
L 144.253539 191.350783 
L 144.253539 190.968064 
L 158.219436 190.968064 
L 158.219436 192.032279 
z
" clip-path="url(#p59f5fbe5f6)" style="fill: #ffa600"/>
   </g>
   <g id="patch_6">
    <path d="M 158.219436 189.391996 
Q 155.439376 189.665692 152.433227 189.804131 
Q 149.427079 189.944161 146.152972 189.944161 
Q 136.389269 189.944161 130.686798 188.906664 
Q 124.984326 187.869167 124.984326 186.09492 
Q 124.984326 184.314308 130.686798 183.278403 
Q 136.389269 182.240906 146.152972 182.240906 
Q 149.427079 182.240906 152.433227 182.380936 
Q 155.439376 182.519375 158.219436 182.79307 
L 158.219436 184.328629 
Q 155.414255 183.965824 152.692811 183.797151 
Q 149.971367 183.628478 146.965219 183.628478 
Q 141.572573 183.628478 138.482688 184.285666 
Q 135.401176 184.941262 135.401176 186.09492 
Q 135.401176 187.243805 138.482688 187.900992 
Q 141.572573 188.556588 146.965219 188.556588 
Q 149.971367 188.556588 152.692811 188.387916 
Q 155.414255 188.217652 158.219436 187.854846 
L 158.219436 189.391996 
z
" clip-path="url(#p59f5fbe5f6)" style="fill: #0000ff"/>
   </g>
   <g id="patch_7">
    <path d="M 182.990642 192.109745 
L 170.208953 192.109745 
L 168.190791 192.24 
L 159.968652 192.24 
L 171.710682 191.524978 
L 181.461732 191.524978 
L 193.203762 192.24 
L 184.988418 192.24 
L 182.990642 192.109745 
z
M 172.2475 191.977039 
L 180.931709 191.977039 
L 176.5964 191.692624 
L 172.2475 191.977039 
z
" clip-path="url(#p59f5fbe5f6)" style="fill: #008000"/>
   </g>
   <g id="patch_8">
    <path d="M 193.203762 191.302115 
Q 190.423702 191.412583 187.417553 191.46846 
Q 184.411405 191.524978 181.137298 191.524978 
Q 171.373595 191.524978 165.671124 191.106226 
Q 159.968652 190.687474 159.968652 189.971356 
Q 159.968652 189.252669 165.671124 188.834559 
Q 171.373595 188.415806 181.137298 188.415806 
Q 184.411405 188.415806 187.417553 188.472325 
Q 190.423702 188.528202 193.203762 188.63867 
L 193.203762 189.258449 
Q 190.398581 189.112014 187.677137 189.043935 
Q 184.955693 188.975855 181.949545 188.975855 
Q 176.556899 188.975855 173.467014 189.241108 
Q 170.385502 189.505718 170.385502 189.971356 
Q 170.385502 190.435066 173.467014 190.700319 
Q 176.556899 190.964929 181.949545 190.964929 
Q 184.955693 190.964929 187.677137 190.89685 
Q 190.398581 190.828128 193.203762 190.681693 
L 193.203762 191.302115 
z
" clip-path="url(#p59f5fbe5f6)" style="fill: #0000ff"/>
   </g>
   <g id="patch_9">
    <path d="M 193.203762 187.953931 
Q 189.851947 188.184869 186.246883 188.300865 
Q 182.64182 188.415806 178.798405 188.415806 
Q 170.113479 188.415806 165.041066 187.728266 
Q 159.968652 187.040727 159.968652 185.864949 
Q 159.968652 184.675463 165.130447 183.993196 
Q 170.299691 183.310928 179.290004 183.310928 
Q 182.753547 183.310928 185.926599 183.403725 
Q 189.107099 183.495468 191.922624 183.676843 
L 191.922624 184.694444 
Q 189.017717 184.461398 186.142604 184.346456 
Q 183.267492 184.23046 180.377482 184.23046 
Q 175.029475 184.23046 172.132017 184.654373 
Q 169.234559 185.077231 169.234559 185.864949 
Q 169.234559 186.645286 172.027738 187.071307 
Q 174.820918 187.496275 179.960368 187.496275 
Q 181.360681 187.496275 182.559886 187.472021 
Q 183.759091 187.446713 184.712497 187.393987 
L 184.712497 186.438602 
L 179.237865 186.438602 
L 179.237865 185.587613 
L 193.203762 185.587613 
L 193.203762 187.953931 
z
" clip-path="url(#p59f5fbe5f6)" style="fill: #ffa600"/>
   </g>
   <g id="patch_10">
    <path d="M 217.974968 191.679603 
L 205.193279 191.679603 
L 203.175117 192.24 
L 194.952978 192.24 
L 206.695008 189.16375 
L 216.446058 189.16375 
L 228.188088 192.24 
L 219.972744 192.24 
L 217.974968 191.679603 
z
M 207.231826 191.108657 
L 215.916035 191.108657 
L 211.580726 189.885014 
L 207.231826 191.108657 
z
" clip-path="url(#p59f5fbe5f6)" style="fill: #008000"/>
   </g>
   <g id="patch_11">
    <path d="M 228.188088 188.630238 
Q 224.836273 188.896994 221.231209 189.030981 
Q 217.626146 189.16375 213.782731 189.16375 
Q 205.097805 189.16375 200.025392 188.369573 
Q 194.952978 187.575395 194.952978 186.217253 
Q 194.952978 184.843277 200.114773 184.055189 
Q 205.284017 183.267102 214.274331 183.267102 
Q 217.737873 183.267102 220.910925 183.374291 
Q 224.091425 183.480263 226.90695 183.68977 
L 226.90695 184.865202 
Q 224.002043 184.59601 221.12693 184.463241 
Q 218.251818 184.329254 215.361808 184.329254 
Q 210.013801 184.329254 207.116343 184.818916 
Q 204.218885 185.307359 204.218885 186.217253 
Q 204.218885 187.118621 207.012064 187.610719 
Q 209.805244 188.101599 214.944694 188.101599 
Q 216.345007 188.101599 217.544212 188.073583 
Q 218.743417 188.044349 219.696823 187.983446 
L 219.696823 186.87988 
L 214.222191 186.87988 
L 214.222191 185.896902 
L 228.188088 185.896902 
L 228.188088 188.630238 
z
" clip-path="url(#p59f5fbe5f6)" style="fill: #ffa600"/>
   </g>
   <g id="patch_12">
    <path d="M 263.172414 192.163586 
Q 259.820599 192.201793 256.215535 192.220984 
Q 252.610472 192.24 248.767057 192.24 
Q 240.082131 192.24 235.009718 192.126251 
Q 229.937304 192.012502 229.937304 191.817977 
Q 229.937304 191.621184 235.099099 191.508307 
Q 240.268343 191.39543 249.258657 191.39543 
Q 252.722199 191.39543 255.895251 191.410783 
Q 259.075751 191.425961 261.891276 191.455968 
L 261.891276 191.624324 
Q 258.986369 191.585768 256.111256 191.566752 
Q 253.236144 191.547561 250.346134 191.547561 
Q 244.998127 191.547561 242.100669 191.617694 
Q 239.203211 191.687654 239.203211 191.817977 
Q 239.203211 191.947078 241.99639 192.017561 
Q 244.78957 192.087869 249.92902 192.087869 
Q 251.329333 192.087869 252.528538 192.083857 
Q 253.727743 192.07967 254.681149 192.070946 
L 254.681149 191.912884 
L 249.206517 191.912884 
L 249.206517 191.772093 
L 263.172414 191.772093 
L 263.172414 192.163586 
z
" clip-path="url(#p59f5fbe5f6)" style="fill: #ffa600"/>
   </g>
   <g id="patch_13">
    <path d="M 229.937304 138.008372 
L 263.172414 138.008372 
L 263.172414 148.420335 
L 251.215503 148.420335 
L 251.215503 191.39543 
L 241.917402 191.39543 
L 241.917402 148.420335 
L 229.937304 148.420335 
L 229.937304 138.008372 
z
" clip-path="url(#p59f5fbe5f6)" style="fill: #ff0000"/>
   </g>
   <g id="patch_14">
    <path d="M 298.15674 192.182705 
Q 295.37668 192.211105 292.370531 192.22547 
Q 289.364383 192.24 286.090276 192.24 
Q 276.326573 192.24 270.624102 192.132344 
Q 264.92163 192.024688 264.92163 191.840583 
Q 264.92163 191.655817 270.624102 191.548327 
Q 276.326573 191.440671 286.090276 191.440671 
Q 289.364383 191.440671 292.370531 191.455201 
Q 295.37668 191.469566 298.15674 191.497966 
L 298.15674 191.657304 
Q 295.351559 191.619657 292.630115 191.602155 
Q 289.908672 191.584652 286.902523 191.584652 
Q 281.509877 191.584652 278.419992 191.652845 
Q 275.33848 191.720873 275.33848 191.840583 
Q 275.33848 191.959797 278.419992 192.02799 
Q 281.509877 192.096018 286.902523 192.096018 
Q 289.908672 192.096018 292.630115 192.078516 
Q 295.351559 192.060848 298.15674 192.023202 
L 298.15674 192.182705 
z
" clip-path="url(#p59f5fbe5f6)" style="fill: #0000ff"/>
   </g>
   <g id="patch_15">
    <path d="M 264.92163 176.751892 
L 298.15674 176.751892 
L 298.15674 179.616613 
L 286.199829 179.616613 
L 286.199829 191.440671 
L 276.901728 191.440671 
L 276.901728 179.616613 
L 264.92163 179.616613 
L 264.92163 176.751892 
z
" clip-path="url(#p59f5fbe5f6)" style="fill: #ff0000"/>
   </g>
   <g id="patch_16">
    <path d="M 298.15674 173.576586 
Q 294.804925 175.164239 291.199861 175.96169 
Q 287.594798 176.751892 283.751383 176.751892 
Q 275.066457 176.751892 269.994044 172.025181 
Q 264.92163 167.29847 264.92163 159.215215 
Q 264.92163 151.037715 270.083425 146.347252 
Q 275.252669 141.656789 284.242983 141.656789 
Q 287.706525 141.656789 290.879577 142.29475 
Q 294.060077 142.925461 296.875602 144.172385 
L 296.875602 151.168207 
Q 293.970695 149.566055 291.095582 148.775853 
Q 288.22047 147.978402 285.33046 147.978402 
Q 279.982453 147.978402 277.084995 150.892724 
Q 274.187537 153.799796 274.187537 159.215215 
Q 274.187537 164.579887 276.980716 167.508707 
Q 279.773896 170.430279 284.913346 170.430279 
Q 286.313659 170.430279 287.512864 170.263539 
Q 288.712069 170.08955 289.665475 169.727072 
L 289.665475 163.158973 
L 284.190843 163.158973 
L 284.190843 157.308581 
L 298.15674 157.308581 
L 298.15674 173.576586 
z
" clip-path="url(#p59f5fbe5f6)" style="fill: #ffa600"/>
   </g>
   <g id="patch_17">
    <path d="M 333.141066 191.14116 
Q 329.789251 191.69058 326.184187 191.966544 
Q 322.579124 192.24 318.735709 192.24 
Q 310.050783 192.24 304.97837 190.604284 
Q 299.905956 188.968568 299.905956 186.171293 
Q 299.905956 183.341404 305.067752 181.718232 
Q 310.236995 180.095059 319.227309 180.095059 
Q 322.690851 180.095059 325.863903 180.315831 
Q 329.044403 180.534094 331.859928 180.965601 
L 331.859928 183.386562 
Q 328.955021 182.832124 326.079908 182.558668 
Q 323.204796 182.282704 320.314786 182.282704 
Q 314.966779 182.282704 312.069321 183.291228 
Q 309.171863 184.297244 309.171863 186.171293 
Q 309.171863 188.02778 311.965042 189.041322 
Q 314.758222 190.052355 319.897672 190.052355 
Q 321.297985 190.052355 322.49719 189.994654 
Q 323.696395 189.934443 324.649801 189.809005 
L 324.649801 187.536062 
L 319.175169 187.536062 
L 319.175169 185.511487 
L 333.141066 185.511487 
L 333.141066 191.14116 
z
" clip-path="url(#p59f5fbe5f6)" style="fill: #ffa600"/>
   </g>
   <g id="patch_18">
    <path d="M 322.927946 164.238801 
L 310.146257 164.238801 
L 308.128095 180.095059 
L 299.905956 180.095059 
L 311.647986 93.053531 
L 321.399036 93.053531 
L 333.141066 180.095059 
L 324.925722 180.095059 
L 322.927946 164.238801 
z
M 312.184804 148.084073 
L 320.869013 148.084073 
L 316.533704 113.461467 
L 312.184804 148.084073 
z
" clip-path="url(#p59f5fbe5f6)" style="fill: #008000"/>
   </g>
   <g id="patch_19">
    <path d="M 334.890282 191.197643 
L 368.125392 191.197643 
L 368.125392 191.400932 
L 356.168481 191.400932 
L 356.168481 192.24 
L 346.87038 192.24 
L 346.87038 191.400932 
L 334.890282 191.400932 
L 334.890282 191.197643 
z
" clip-path="url(#p59f5fbe5f6)" style="fill: #ff0000"/>
   </g>
   <g id="patch_20">
    <path d="M 368.125392 181.06187 
Q 365.345332 186.085942 362.339184 188.627188 
Q 359.333035 191.197643 356.058928 191.197643 
Q 346.295225 191.197643 340.592754 172.152905 
Q 334.890282 153.108168 334.890282 120.53933 
Q 334.890282 87.853652 340.592754 68.838124 
Q 346.295225 49.793387 356.058928 49.793387 
Q 359.333035 49.793387 362.339184 52.363842 
Q 365.345332 54.905088 368.125392 59.92916 
L 368.125392 88.11654 
Q 365.320211 81.456724 362.598767 78.360493 
Q 359.877324 75.264263 356.871175 75.264263 
Q 351.478529 75.264263 348.388644 87.327877 
Q 345.307132 99.362282 345.307132 120.53933 
Q 345.307132 141.628748 348.388644 153.692362 
Q 351.478529 165.726767 356.871175 165.726767 
Q 359.877324 165.726767 362.598767 162.630537 
Q 365.320211 159.505096 368.125392 152.84528 
L 368.125392 181.06187 
z
" clip-path="url(#p59f5fbe5f6)" style="fill: #0000ff"/>
   </g>
   <g id="patch_21">
    <path d="M 392.896598 192.237964 
L 380.114909 192.237964 
L 378.096747 192.24 
L 369.874608 192.24 
L 381.616638 192.228821 
L 391.367688 192.228821 
L 403.109718 192.24 
L 394.894374 192.24 
L 392.896598 192.237964 
z
M 382.153456 192.235889 
L 390.837665 192.235889 
L 386.502356 192.231442 
L 382.153456 192.235889 
z
" clip-path="url(#p59f5fbe5f6)" style="fill: #008000"/>
   </g>
   <g id="patch_22">
    <path d="M 403.109718 177.178836 
Q 399.757903 184.703828 396.152839 188.483505 
Q 392.547776 192.228821 388.704361 192.228821 
Q 380.019435 192.228821 374.947022 169.825647 
Q 369.874608 147.422472 369.874608 109.110296 
Q 369.874608 70.35143 375.036404 48.120059 
Q 380.205647 25.888688 389.195961 25.888688 
Q 392.659503 25.888688 395.832555 28.91243 
Q 399.013055 31.90181 401.82858 37.81185 
L 401.82858 70.969922 
Q 398.923673 63.376208 396.048561 59.630893 
Q 393.173448 55.851216 390.283438 55.851216 
Q 384.935431 55.851216 382.037973 69.664216 
Q 379.140515 83.442855 379.140515 109.110296 
Q 379.140515 134.537211 381.933694 148.418933 
Q 384.726874 162.266293 389.866324 162.266293 
Q 391.266638 162.266293 392.465843 161.475997 
Q 393.665048 160.651341 394.618453 158.933306 
L 394.618453 127.802515 
L 389.143821 127.802515 
L 389.143821 100.073432 
L 403.109718 100.073432 
L 403.109718 177.178836 
z
" clip-path="url(#p59f5fbe5f6)" style="fill: #ffa600"/>
   </g>
   <g id="patch_23">
    <path d="M 427.880924 192.21882 
L 415.099235 192.21882 
L 413.081073 192.24 
L 404.858934 192.24 
L 416.600964 192.123732 
L 426.352014 192.123732 
L 438.094044 192.24 
L 429.8787 192.24 
L 427.880924 192.21882 
z
M 417.137782 192.197241 
L 425.821992 192.197241 
L 421.486682 192.150993 
L 417.137782 192.197241 
z
" clip-path="url(#p59f5fbe5f6)" style="fill: #008000"/>
   </g>
   <g id="patch_24">
    <path d="M 438.094044 192.088817 
Q 435.313984 192.106124 432.307836 192.114878 
Q 429.301687 192.123732 426.027581 192.123732 
Q 416.263877 192.123732 410.561406 192.058128 
Q 404.858934 191.992524 404.858934 191.880334 
Q 404.858934 191.76774 410.561406 191.702237 
Q 416.263877 191.636633 426.027581 191.636633 
Q 429.301687 191.636633 432.307836 191.645487 
Q 435.313984 191.654241 438.094044 191.671548 
L 438.094044 191.768646 
Q 435.288863 191.745705 432.567419 191.735039 
Q 429.845976 191.724373 426.839827 191.724373 
Q 421.447181 191.724373 418.357296 191.765929 
Q 415.275784 191.807384 415.275784 191.880334 
Q 415.275784 191.952981 418.357296 191.994537 
Q 421.447181 192.035992 426.839827 192.035992 
Q 429.845976 192.035992 432.567419 192.025326 
Q 435.288863 192.01456 438.094044 191.991619 
L 438.094044 192.088817 
z
" clip-path="url(#p59f5fbe5f6)" style="fill: #0000ff"/>
   </g>
   <g id="patch_25">
    <path d="M 404.858934 44.132095 
L 438.094044 44.132095 
L 438.094044 72.89959 
L 426.137133 72.89959 
L 426.137133 191.636633 
L 416.839032 191.636633 
L 416.839032 72.89959 
L 404.858934 72.89959 
L 404.858934 44.132095 
z
" clip-path="url(#p59f5fbe5f6)" style="fill: #ff0000"/>
   </g>
   <g id="patch_26">
    <path d="M 473.07837 192.223434 
Q 469.726555 192.231717 466.121491 192.235877 
Q 462.516428 192.24 458.673013 192.24 
Q 449.988087 192.24 444.915674 192.21534 
Q 439.84326 192.19068 439.84326 192.148508 
Q 439.84326 192.105845 445.005056 192.081374 
Q 450.174299 192.056903 459.164613 192.056903 
Q 462.628155 192.056903 465.801207 192.060231 
Q 468.981707 192.063522 471.797232 192.070027 
L 471.797232 192.106526 
Q 468.892325 192.098167 466.017213 192.094044 
Q 463.1421 192.089884 460.25209 192.089884 
Q 454.904083 192.089884 452.006625 192.105089 
Q 449.109167 192.120255 449.109167 192.148508 
Q 449.109167 192.176497 451.902346 192.191777 
Q 454.695526 192.207019 459.834976 192.207019 
Q 461.23529 192.207019 462.434495 192.206149 
Q 463.6337 192.205241 464.587105 192.20335 
L 464.587105 192.169084 
L 459.112473 192.169084 
L 459.112473 192.138561 
L 473.07837 192.138561 
L 473.07837 192.223434 
z
" clip-path="url(#p59f5fbe5f6)" style="fill: #ffa600"/>
   </g>
   <g id="patch_27">
    <path d="M 462.86525 191.693008 
L 450.083561 191.693008 
L 448.065399 192.056903 
L 439.84326 192.056903 
L 451.58529 190.059332 
L 461.33634 190.059332 
L 473.07837 192.056903 
L 464.863026 192.056903 
L 462.86525 191.693008 
z
M 452.122108 191.322263 
L 460.806318 191.322263 
L 456.471008 190.527687 
L 452.122108 191.322263 
z
" clip-path="url(#p59f5fbe5f6)" style="fill: #008000"/>
   </g>
   <g id="patch_28">
    <path d="M 473.07837 183.810362 
Q 470.29831 186.907834 467.292162 188.474579 
Q 464.286013 190.059332 461.011907 190.059332 
Q 451.248203 190.059332 445.545732 178.317752 
Q 439.84326 166.576171 439.84326 146.496628 
Q 439.84326 126.34505 445.545732 114.621478 
Q 451.248203 102.879898 461.011907 102.879898 
Q 464.286013 102.879898 467.292162 104.464651 
Q 470.29831 106.031396 473.07837 109.128868 
L 473.07837 126.507127 
Q 470.273189 122.401176 467.551745 120.492268 
Q 464.830302 118.583361 461.824153 118.583361 
Q 456.431507 118.583361 453.341622 126.020896 
Q 450.26011 133.440422 450.26011 146.496628 
Q 450.26011 159.498807 453.341622 166.936342 
Q 456.431507 174.355869 461.824153 174.355869 
Q 464.830302 174.355869 467.551745 172.446961 
Q 470.273189 170.520046 473.07837 166.414094 
L 473.07837 183.810362 
z
" clip-path="url(#p59f5fbe5f6)" style="fill: #0000ff"/>
   </g>
   <g id="patch_29">
    <path d="M 508.062696 192.237226 
Q 505.282636 192.238601 502.276488 192.239297 
Q 499.270339 192.24 495.996233 192.24 
Q 486.232529 192.24 480.530058 192.234789 
Q 474.827586 192.229577 474.827586 192.220665 
Q 474.827586 192.211721 480.530058 192.206518 
Q 486.232529 192.201307 495.996233 192.201307 
Q 499.270339 192.201307 502.276488 192.20201 
Q 505.282636 192.202705 508.062696 192.20408 
L 508.062696 192.211793 
Q 505.257515 192.209971 502.536071 192.209124 
Q 499.814628 192.208276 496.808479 192.208276 
Q 491.415833 192.208276 488.325948 192.211577 
Q 485.244436 192.21487 485.244436 192.220665 
Q 485.244436 192.226436 488.325948 192.229737 
Q 491.415833 192.23303 496.808479 192.23303 
Q 499.814628 192.23303 502.536071 192.232183 
Q 505.257515 192.231328 508.062696 192.229505 
L 508.062696 192.237226 
z
" clip-path="url(#p59f5fbe5f6)" style="fill: #0000ff"/>
   </g>
   <g id="patch_30">
    <path d="M 508.062696 192.189357 
Q 504.710881 192.195332 501.105817 192.198333 
Q 497.500754 192.201307 493.657339 192.201307 
Q 484.972414 192.201307 479.9 192.183518 
Q 474.827586 192.16573 474.827586 192.135309 
Q 474.827586 192.104534 479.989382 192.086882 
Q 485.158625 192.06923 494.148939 192.06923 
Q 497.612481 192.06923 500.785533 192.071631 
Q 503.966033 192.074004 506.781558 192.078697 
L 506.781558 192.105025 
Q 503.876651 192.098996 501.001539 192.096022 
Q 498.126426 192.093021 495.236416 192.093021 
Q 489.888409 192.093021 486.990951 192.103988 
Q 484.093493 192.114929 484.093493 192.135309 
Q 484.093493 192.155499 486.886672 192.166521 
Q 489.679852 192.177516 494.819302 192.177516 
Q 496.219616 192.177516 497.418821 192.176888 
Q 498.618026 192.176234 499.571431 192.174869 
L 499.571431 192.150151 
L 494.096799 192.150151 
L 494.096799 192.128134 
L 508.062696 192.128134 
L 508.062696 192.189357 
z
" clip-path="url(#p59f5fbe5f6)" style="fill: #ffa600"/>
   </g>
   <g id="patch_31">
    <path d="M 474.827586 191.688053 
L 508.062696 191.688053 
L 508.062696 191.762393 
L 496.105786 191.762393 
L 496.105786 192.06923 
L 486.807684 192.06923 
L 486.807684 191.762393 
L 474.827586 191.762393 
L 474.827586 191.688053 
z
" clip-path="url(#p59f5fbe5f6)" style="fill: #ff0000"/>
   </g>
   <g id="patch_32">
    <path d="M 497.849576 166.85367 
L 485.067887 166.85367 
L 483.049725 191.688053 
L 474.827586 191.688053 
L 486.569616 55.361898 
L 496.320666 55.361898 
L 508.062696 191.688053 
L 499.847352 191.688053 
L 497.849576 166.85367 
z
M 487.106434 141.551816 
L 495.790644 141.551816 
L 491.455334 87.32521 
L 487.106434 141.551816 
z
" clip-path="url(#p59f5fbe5f6)" style="fill: #008000"/>
   </g>
   <g id="patch_33">
    <path d="M 509.811912 180.335213 
L 543.047022 180.335213 
L 543.047022 182.656978 
L 531.090112 182.656978 
L 531.090112 192.24 
L 521.79201 192.24 
L 521.79201 182.656978 
L 509.811912 182.656978 
L 509.811912 180.335213 
z
" clip-path="url(#p59f5fbe5f6)" style="fill: #ff0000"/>
   </g>
   <g id="patch_34">
    <path d="M 543.047022 178.821527 
Q 540.266962 179.571827 537.260814 179.951339 
Q 534.254665 180.335213 530.980559 180.335213 
Q 521.216855 180.335213 515.514384 177.491054 
Q 509.811912 174.646895 509.811912 169.783034 
Q 509.811912 164.901724 515.514384 162.061927 
Q 521.216855 159.217768 530.980559 159.217768 
Q 534.254665 159.217768 537.260814 159.601643 
Q 540.266962 159.981155 543.047022 160.731454 
L 543.047022 164.940984 
Q 540.241841 163.946401 537.520398 163.484007 
Q 534.798954 163.021613 531.792805 163.021613 
Q 526.400159 163.021613 523.310274 164.823205 
Q 520.228762 166.620434 520.228762 169.783034 
Q 520.228762 172.932548 523.310274 174.734139 
Q 526.400159 176.531369 531.792805 176.531369 
Q 534.798954 176.531369 537.520398 176.068975 
Q 540.241841 175.602219 543.047022 174.607635 
L 543.047022 178.821527 
z
" clip-path="url(#p59f5fbe5f6)" style="fill: #0000ff"/>
   </g>
   <g id="patch_35">
    <path d="M 567.818228 191.753454 
L 555.036539 191.753454 
L 553.018377 192.24 
L 544.796238 192.24 
L 556.538268 189.569151 
L 566.289318 189.569151 
L 578.031348 192.24 
L 569.816004 192.24 
L 567.818228 191.753454 
z
M 557.075086 191.25775 
L 565.759296 191.25775 
L 561.423986 190.195364 
L 557.075086 191.25775 
z
" clip-path="url(#p59f5fbe5f6)" style="fill: #008000"/>
   </g>
   <g id="patch_36">
    <path d="M 578.031348 189.212488 
Q 574.679533 189.39082 571.074469 189.480393 
Q 567.469406 189.569151 563.625991 189.569151 
Q 554.941066 189.569151 549.868652 189.038227 
Q 544.796238 188.507303 544.796238 187.599358 
Q 544.796238 186.680827 549.958034 186.153974 
Q 555.127278 185.627122 564.117591 185.627122 
Q 567.581133 185.627122 570.754185 185.69878 
Q 573.934685 185.769624 576.75021 185.909684 
L 576.75021 186.695484 
Q 573.845303 186.515524 570.970191 186.426765 
Q 568.095078 186.337192 565.205069 186.337192 
Q 559.857061 186.337192 556.959603 186.664541 
Q 554.062145 186.991075 554.062145 187.599358 
Q 554.062145 188.20194 556.855324 188.530918 
Q 559.648504 188.859081 564.787954 188.859081 
Q 566.188268 188.859081 567.387473 188.840352 
Q 568.586678 188.820809 569.540083 188.780094 
L 569.540083 188.042338 
L 564.065451 188.042338 
L 564.065451 187.385197 
L 578.031348 187.385197 
L 578.031348 189.212488 
z
" clip-path="url(#p59f5fbe5f6)" style="fill: #ffa600"/>
   </g>
   <g id="patch_37">
    <path d="M 544.796238 179.944617 
L 578.031348 179.944617 
L 578.031348 181.052863 
L 566.074438 181.052863 
L 566.074438 185.627122 
L 556.776336 185.627122 
L 556.776336 181.052863 
L 544.796238 181.052863 
L 544.796238 179.944617 
z
" clip-path="url(#p59f5fbe5f6)" style="fill: #ff0000"/>
   </g>
   <g id="patch_38">
    <path d="M 578.031348 179.379194 
Q 575.251288 179.659461 572.24514 179.801224 
Q 569.238991 179.944617 565.964885 179.944617 
Q 556.201181 179.944617 550.49871 178.882209 
Q 544.796238 177.819802 544.796238 176.002955 
Q 544.796238 174.17959 550.49871 173.118812 
Q 556.201181 172.056404 565.964885 172.056404 
Q 569.238991 172.056404 572.24514 172.199797 
Q 575.251288 172.34156 578.031348 172.621827 
L 578.031348 174.194255 
Q 575.226167 173.822738 572.504724 173.650016 
Q 569.78328 173.477293 566.777131 173.477293 
Q 561.384485 173.477293 558.2946 174.15026 
Q 555.213088 174.821597 555.213088 176.002955 
Q 555.213088 177.179424 558.2946 177.852391 
Q 561.384485 178.523728 566.777131 178.523728 
Q 569.78328 178.523728 572.504724 178.351005 
Q 575.226167 178.176653 578.031348 177.805137 
L 578.031348 179.379194 
z
" clip-path="url(#p59f5fbe5f6)" style="fill: #0000ff"/>
   </g>
   <g id="patch_39">
    <path d="M 613.015674 192.066923 
Q 610.235614 192.152713 607.229466 192.196107 
Q 604.223317 192.24 600.949211 192.24 
Q 591.185507 192.24 585.483036 191.914795 
Q 579.780564 191.58959 579.780564 191.03345 
Q 579.780564 190.475315 585.483036 190.150609 
Q 591.185507 189.825404 600.949211 189.825404 
Q 604.223317 189.825404 607.229466 189.869296 
Q 610.235614 189.91269 613.015674 189.998481 
L 613.015674 190.479804 
Q 610.210493 190.366082 607.48905 190.313211 
Q 604.767606 190.26034 601.761457 190.26034 
Q 596.368811 190.26034 593.278926 190.466337 
Q 590.197414 190.671834 590.197414 191.03345 
Q 590.197414 191.39357 593.278926 191.599566 
Q 596.368811 191.805063 601.761457 191.805063 
Q 604.767606 191.805063 607.48905 191.752193 
Q 610.210493 191.698823 613.015674 191.585101 
L 613.015674 192.066923 
z
" clip-path="url(#p59f5fbe5f6)" style="fill: #0000ff"/>
   </g>
   <g id="patch_40">
    <path d="M 602.802554 189.172054 
L 590.020865 189.172054 
L 588.002703 189.825404 
L 579.780564 189.825404 
L 591.522594 186.2389 
L 601.273644 186.2389 
L 613.015674 189.825404 
L 604.80033 189.825404 
L 602.802554 189.172054 
z
M 592.059412 188.506407 
L 600.743622 188.506407 
L 596.408312 187.079799 
L 592.059412 188.506407 
z
" clip-path="url(#p59f5fbe5f6)" style="fill: #008000"/>
   </g>
   <g id="patch_41">
    <path d="M 579.780564 180.56434 
L 613.015674 180.56434 
L 613.015674 181.671037 
L 601.058764 181.671037 
L 601.058764 186.2389 
L 591.760662 186.2389 
L 591.760662 181.671037 
L 579.780564 181.671037 
L 579.780564 180.56434 
z
" clip-path="url(#p59f5fbe5f6)" style="fill: #ff0000"/>
   </g>
   <g id="patch_42">
    <path d="M 613.015674 179.857091 
Q 609.663859 180.210716 606.058795 180.388335 
Q 602.453732 180.56434 598.610317 180.56434 
Q 589.925392 180.56434 584.852978 179.511541 
Q 579.780564 178.458742 579.780564 176.658327 
Q 579.780564 174.83692 584.94236 173.792195 
Q 590.111604 172.74747 599.101917 172.74747 
Q 602.565459 172.74747 605.738511 172.889565 
Q 608.919011 173.030046 611.734536 173.307778 
L 611.734536 174.865985 
Q 608.829629 174.509132 605.954517 174.333127 
Q 603.079404 174.155507 600.189395 174.155507 
Q 594.841387 174.155507 591.943929 174.804626 
Q 589.046471 175.452129 589.046471 176.658327 
Q 589.046471 177.853221 591.83965 178.505569 
Q 594.63283 179.156302 599.77228 179.156302 
Q 601.172594 179.156302 602.371799 179.119163 
Q 603.571004 179.08041 604.524409 178.999674 
L 604.524409 177.536736 
L 599.049777 177.536736 
L 599.049777 176.233655 
L 613.015674 176.233655 
L 613.015674 179.857091 
z
" clip-path="url(#p59f5fbe5f6)" style="fill: #ffa600"/>
   </g>
   <g id="patch_43">
    <path d="M 648 191.791201 
Q 644.648185 192.0156 641.043121 192.128313 
Q 637.438058 192.24 633.594643 192.24 
Q 624.909718 192.24 619.837304 191.571925 
Q 614.76489 190.903849 614.76489 189.761358 
Q 614.76489 188.605547 619.926686 187.942594 
Q 625.09593 187.279642 634.086243 187.279642 
Q 637.549785 187.279642 640.722837 187.369812 
Q 643.903337 187.458957 646.718862 187.635198 
L 646.718862 188.62399 
Q 643.813955 188.397542 640.938843 188.285854 
Q 638.06373 188.173142 635.173721 188.173142 
Q 629.825713 188.173142 626.928255 188.585053 
Q 624.030797 188.99594 624.030797 189.761358 
Q 624.030797 190.519603 626.823976 190.933564 
Q 629.617156 191.3465 634.756606 191.3465 
Q 636.15692 191.3465 637.356125 191.322933 
Q 638.55533 191.298342 639.508735 191.247109 
L 639.508735 190.318771 
L 634.034103 190.318771 
L 634.034103 189.491874 
L 648 189.491874 
L 648 191.791201 
z
" clip-path="url(#p59f5fbe5f6)" style="fill: #ffa600"/>
   </g>
   <g id="patch_44">
    <path d="M 648 185.911539 
Q 645.21994 186.589677 642.213792 186.932688 
Q 639.207643 187.279642 635.933537 187.279642 
Q 626.169833 187.279642 620.467362 184.709028 
Q 614.76489 182.138414 614.76489 177.742349 
Q 614.76489 173.330513 620.467362 170.763841 
Q 626.169833 168.193227 635.933537 168.193227 
Q 639.207643 168.193227 642.213792 168.540181 
Q 645.21994 168.883193 648 169.56133 
L 648 173.365997 
Q 645.194819 172.46707 642.473376 172.049148 
Q 639.751932 171.631226 636.745783 171.631226 
Q 631.353137 171.631226 628.263252 173.259545 
Q 625.18174 174.883921 625.18174 177.742349 
Q 625.18174 180.588949 628.263252 182.217267 
Q 631.353137 183.841643 636.745783 183.841643 
Q 639.751932 183.841643 642.473376 183.423721 
Q 645.194819 183.001857 648 182.10293 
L 648 185.911539 
z
" clip-path="url(#p59f5fbe5f6)" style="fill: #0000ff"/>
   </g>
   <g id="patch_45">
    <path d="M 113.02199 192.461661 
L 100.240301 192.461661 
L 98.222139 192.24 
L 90 192.24 
L 101.74203 193.456789 
L 111.49308 193.456789 
L 123.23511 192.24 
L 115.019766 192.24 
L 113.02199 192.461661 
z
M 102.278848 192.687494 
L 110.963057 192.687494 
L 106.627748 193.171498 
L 102.278848 192.687494 
z
" clip-path="url(#p59f5fbe5f6)" style="fill: #008000"/>
   </g>
   <g id="patch_46">
    <path d="M 90 195.621968 
L 123.23511 195.621968 
L 123.23511 195.199698 
L 111.278199 195.199698 
L 111.278199 193.456789 
L 101.980098 193.456789 
L 101.980098 195.199698 
L 90 195.199698 
L 90 195.621968 
z
" clip-path="url(#p59f5fbe5f6)" style="fill: #ff0000"/>
   </g>
   <g id="patch_47">
    <path d="M 148.006316 192.386574 
L 135.224627 192.386574 
L 133.206465 192.24 
L 124.984326 192.24 
L 136.726356 193.044604 
L 146.477406 193.044604 
L 158.219436 192.24 
L 150.004092 192.24 
L 148.006316 192.386574 
z
M 137.263174 192.535907 
L 145.947383 192.535907 
L 141.612074 192.855955 
L 137.263174 192.535907 
z
" clip-path="url(#p59f5fbe5f6)" style="fill: #008000"/>
   </g>
   <g id="patch_48">
    <path d="M 124.984326 194.485887 
L 158.219436 194.485887 
L 158.219436 194.204797 
L 146.262525 194.204797 
L 146.262525 193.044604 
L 136.964424 193.044604 
L 136.964424 194.204797 
L 124.984326 194.204797 
L 124.984326 194.485887 
z
" clip-path="url(#p59f5fbe5f6)" style="fill: #ff0000"/>
   </g>
   <g id="patch_49">
    <path d="M 159.968652 192.692457 
L 193.203762 192.692457 
L 193.203762 192.604215 
L 181.246851 192.604215 
L 181.246851 192.24 
L 171.94875 192.24 
L 171.94875 192.604215 
L 159.968652 192.604215 
L 159.968652 192.692457 
z
" clip-path="url(#p59f5fbe5f6)" style="fill: #ff0000"/>
   </g>
   <g id="patch_50">
    <path d="M 228.188088 192.310393 
Q 225.408028 192.275501 222.401879 192.257852 
Q 219.395731 192.24 216.121624 192.24 
Q 206.357921 192.24 200.65545 192.372266 
Q 194.952978 192.504532 194.952978 192.730724 
Q 194.952978 192.957727 200.65545 193.08979 
Q 206.357921 193.222056 216.121624 193.222056 
Q 219.395731 193.222056 222.401879 193.204204 
Q 225.408028 193.186555 228.188088 193.151663 
L 228.188088 192.955901 
Q 225.382907 193.002153 222.661463 193.023657 
Q 219.940019 193.04516 216.933871 193.04516 
Q 211.541225 193.04516 208.45134 192.961378 
Q 205.369828 192.877799 205.369828 192.730724 
Q 205.369828 192.584257 208.45134 192.500475 
Q 211.541225 192.416896 216.933871 192.416896 
Q 219.940019 192.416896 222.661463 192.438399 
Q 225.382907 192.460106 228.188088 192.506358 
L 228.188088 192.310393 
z
" clip-path="url(#p59f5fbe5f6)" style="fill: #0000ff"/>
   </g>
   <g id="patch_51">
    <path d="M 194.952978 194.549419 
L 228.188088 194.549419 
L 228.188088 194.290546 
L 216.231177 194.290546 
L 216.231177 193.222056 
L 206.933076 193.222056 
L 206.933076 194.290546 
L 194.952978 194.290546 
L 194.952978 194.549419 
z
" clip-path="url(#p59f5fbe5f6)" style="fill: #ff0000"/>
   </g>
   <g id="patch_52">
    <path d="M 252.959294 192.843478 
L 240.177605 192.843478 
L 238.159443 192.581191 
L 229.937304 192.581191 
L 241.679334 194.02099 
L 251.430384 194.02099 
L 263.172414 192.581191 
L 254.95707 192.581191 
L 252.959294 192.843478 
z
M 242.216152 193.110701 
L 250.900361 193.110701 
L 246.565052 193.683412 
L 242.216152 193.110701 
z
" clip-path="url(#p59f5fbe5f6)" style="fill: #008000"/>
   </g>
   <g id="patch_53">
    <path d="M 263.172414 192.264456 
Q 260.392354 192.252334 257.386205 192.246202 
Q 254.380057 192.24 251.10595 192.24 
Q 241.342247 192.24 235.639776 192.285953 
Q 229.937304 192.331905 229.937304 192.41049 
Q 229.937304 192.489356 235.639776 192.535238 
Q 241.342247 192.581191 251.10595 192.581191 
Q 254.380057 192.581191 257.386205 192.574989 
Q 260.392354 192.568857 263.172414 192.556735 
L 263.172414 192.488722 
Q 260.367233 192.504791 257.645789 192.512262 
Q 254.924345 192.519733 251.918197 192.519733 
Q 246.525551 192.519733 243.435666 192.490625 
Q 240.354154 192.461587 240.354154 192.41049 
Q 240.354154 192.359604 243.435666 192.330496 
Q 246.525551 192.301458 251.918197 192.301458 
Q 254.924345 192.301458 257.645789 192.308929 
Q 260.367233 192.31647 263.172414 192.33254 
L 263.172414 192.264456 
z
" clip-path="url(#p59f5fbe5f6)" style="fill: #0000ff"/>
   </g>
   <g id="patch_54">
    <path d="M 287.94362 192.498471 
L 275.161931 192.498471 
L 273.143769 192.24 
L 264.92163 192.24 
L 276.66366 193.658853 
L 286.41471 193.658853 
L 298.15674 192.24 
L 289.941396 192.24 
L 287.94362 192.498471 
z
M 277.200478 192.761807 
L 285.884687 192.761807 
L 281.549378 193.326186 
L 277.200478 192.761807 
z
" clip-path="url(#p59f5fbe5f6)" style="fill: #008000"/>
   </g>
   <g id="patch_55">
    <path d="M 333.141066 192.270511 
Q 330.361006 192.255387 327.354858 192.247738 
Q 324.348709 192.24 321.074602 192.24 
Q 311.310899 192.24 305.608428 192.297328 
Q 299.905956 192.354657 299.905956 192.452696 
Q 299.905956 192.551086 305.608428 192.608327 
Q 311.310899 192.665655 321.074602 192.665655 
Q 324.348709 192.665655 327.354858 192.657917 
Q 330.361006 192.650268 333.141066 192.635144 
L 333.141066 192.550295 
Q 330.335885 192.570342 327.614441 192.579662 
Q 324.892998 192.588983 321.886849 192.588983 
Q 316.494203 192.588983 313.404318 192.552669 
Q 310.322806 192.516443 310.322806 192.452696 
Q 310.322806 192.389212 313.404318 192.352898 
Q 316.494203 192.316672 321.886849 192.316672 
Q 324.892998 192.316672 327.614441 192.325993 
Q 330.335885 192.335401 333.141066 192.355448 
L 333.141066 192.270511 
z
" clip-path="url(#p59f5fbe5f6)" style="fill: #0000ff"/>
   </g>
   <g id="patch_56">
    <path d="M 299.905956 193.106558 
L 333.141066 193.106558 
L 333.141066 193.020569 
L 321.184155 193.020569 
L 321.184155 192.665655 
L 311.886054 192.665655 
L 311.886054 193.020569 
L 299.905956 193.020569 
L 299.905956 193.106558 
z
" clip-path="url(#p59f5fbe5f6)" style="fill: #ff0000"/>
   </g>
   <g id="patch_57">
    <path d="M 357.912272 192.51336 
L 345.130583 192.51336 
L 343.112421 192.440794 
L 334.890282 192.440794 
L 346.632312 192.839137 
L 356.383362 192.839137 
L 368.125392 192.440794 
L 359.910048 192.440794 
L 357.912272 192.51336 
z
M 347.16913 192.587291 
L 355.853339 192.587291 
L 351.51803 192.745741 
L 347.16913 192.587291 
z
" clip-path="url(#p59f5fbe5f6)" style="fill: #008000"/>
   </g>
   <g id="patch_58">
    <path d="M 368.125392 192.258167 
Q 364.773577 192.249084 361.168513 192.244521 
Q 357.56345 192.24 353.720035 192.24 
Q 345.035109 192.24 339.962696 192.267044 
Q 334.890282 192.294087 334.890282 192.340335 
Q 334.890282 192.387122 340.052078 192.413958 
Q 345.221321 192.440794 354.211635 192.440794 
Q 357.675177 192.440794 360.848229 192.437144 
Q 364.028729 192.433536 366.844254 192.426401 
L 366.844254 192.386375 
Q 363.939347 192.395542 361.064235 192.400063 
Q 358.189122 192.404626 355.299112 192.404626 
Q 349.951105 192.404626 347.053647 192.387951 
Q 344.156189 192.371319 344.156189 192.340335 
Q 344.156189 192.309641 346.949368 192.292884 
Q 349.742548 192.276169 354.881998 192.276169 
Q 356.282312 192.276169 357.481517 192.277123 
Q 358.680721 192.278118 359.634127 192.280192 
L 359.634127 192.317771 
L 354.159495 192.317771 
L 354.159495 192.351244 
L 368.125392 192.351244 
L 368.125392 192.258167 
z
" clip-path="url(#p59f5fbe5f6)" style="fill: #ffa600"/>
   </g>
   <g id="patch_59">
    <path d="M 403.109718 192.242244 
Q 400.329658 192.241132 397.32351 192.240569 
Q 394.317361 192.24 391.043255 192.24 
Q 381.279551 192.24 375.57708 192.244217 
Q 369.874608 192.248434 369.874608 192.255646 
Q 369.874608 192.262884 375.57708 192.267094 
Q 381.279551 192.271312 391.043255 192.271312 
Q 394.317361 192.271312 397.32351 192.270742 
Q 400.329658 192.27018 403.109718 192.269067 
L 403.109718 192.262826 
Q 400.304537 192.2643 397.583093 192.264986 
Q 394.86165 192.265671 391.855501 192.265671 
Q 386.462855 192.265671 383.37297 192.263 
Q 380.291458 192.260335 380.291458 192.255646 
Q 380.291458 192.250976 383.37297 192.248305 
Q 386.462855 192.24564 391.855501 192.24564 
Q 394.86165 192.24564 397.583093 192.246326 
Q 400.304537 192.247018 403.109718 192.248492 
L 403.109718 192.242244 
z
" clip-path="url(#p59f5fbe5f6)" style="fill: #0000ff"/>
   </g>
   <g id="patch_60">
    <path d="M 439.84326 192.273448 
L 473.07837 192.273448 
L 473.07837 192.266925 
L 461.12146 192.266925 
L 461.12146 192.24 
L 451.823358 192.24 
L 451.823358 192.266925 
L 439.84326 192.266925 
L 439.84326 192.273448 
z
" clip-path="url(#p59f5fbe5f6)" style="fill: #ff0000"/>
   </g>
   <g id="patch_61">
    <path d="M 532.833902 192.478982 
L 520.052213 192.478982 
L 518.034051 192.24 
L 509.811912 192.24 
L 521.553942 193.551868 
L 531.304992 193.551868 
L 543.047022 192.24 
L 534.831678 192.24 
L 532.833902 192.478982 
z
M 522.09076 192.722462 
L 530.77497 192.722462 
L 526.43966 193.244285 
L 522.09076 192.722462 
z
" clip-path="url(#p59f5fbe5f6)" style="fill: #008000"/>
   </g>
   <g id="patch_62">
    <path d="M 543.047022 193.691522 
Q 539.695207 193.621695 536.090143 193.586622 
Q 532.48508 193.551868 528.641665 193.551868 
Q 519.95674 193.551868 514.884326 193.759755 
Q 509.811912 193.967642 509.811912 194.323155 
Q 509.811912 194.682812 514.973708 194.889105 
Q 520.142951 195.095398 529.133265 195.095398 
Q 532.596807 195.095398 535.769859 195.067339 
Q 538.950359 195.0396 541.765884 194.984759 
L 541.765884 194.677073 
Q 538.860977 194.747538 535.985865 194.782292 
Q 533.110752 194.817365 530.220742 194.817365 
Q 524.872735 194.817365 521.975277 194.689189 
Q 519.077819 194.561332 519.077819 194.323155 
Q 519.077819 194.087209 521.870998 193.958396 
Q 524.664178 193.829901 529.803628 193.829901 
Q 531.203942 193.829901 532.403147 193.837235 
Q 533.602352 193.844887 534.555757 193.860829 
L 534.555757 194.149703 
L 529.081125 194.149703 
L 529.081125 194.407011 
L 543.047022 194.407011 
L 543.047022 193.691522 
z
" clip-path="url(#p59f5fbe5f6)" style="fill: #ffa600"/>
   </g>
   <g id="patch_63">
    <path d="M 637.78688 192.377981 
L 625.005191 192.377981 
L 622.987029 192.24 
L 614.76489 192.24 
L 626.50692 192.997434 
L 636.25797 192.997434 
L 648 192.24 
L 639.784656 192.24 
L 637.78688 192.377981 
z
M 627.043738 192.518559 
L 635.727948 192.518559 
L 631.392638 192.819845 
L 627.043738 192.518559 
z
" clip-path="url(#p59f5fbe5f6)" style="fill: #008000"/>
   </g>
   <g id="patch_64">
    <path d="M 614.76489 194.737377 
L 648 194.737377 
L 648 194.39804 
L 636.04309 194.39804 
L 636.04309 192.997434 
L 626.744988 192.997434 
L 626.744988 194.39804 
L 614.76489 194.39804 
L 614.76489 194.737377 
z
" clip-path="url(#p59f5fbe5f6)" style="fill: #ff0000"/>
   </g>
   <g id="matplotlib.axis_1">
    <g id="xtick_1">
     <g id="line2d_2">
      <defs>
       <path id="m6bc3038610" d="M 0 0 
L 0 3.5 
" style="stroke: #000000; stroke-width: 0.8"/>
      </defs>
      <g>
       <use xlink:href="#m6bc3038610" x="106.617555" y="192.24" style="stroke: #000000; stroke-width: 0.8"/>
      </g>
     </g>
     <g id="text_1">
      <!-- 0 -->
      <g transform="translate(103.436305 206.838437) scale(0.1 -0.1)">
       <defs>
        <path id="DejaVuSans-30" d="M 2034 4250 
Q 1547 4250 1301 3770 
Q 1056 3291 1056 2328 
Q 1056 1369 1301 889 
Q 1547 409 2034 409 
Q 2525 409 2770 889 
Q 3016 1369 3016 2328 
Q 3016 3291 2770 3770 
Q 2525 4250 2034 4250 
z
M 2034 4750 
Q 2819 4750 3233 4129 
Q 3647 3509 3647 2328 
Q 3647 1150 3233 529 
Q 2819 -91 2034 -91 
Q 1250 -91 836 529 
Q 422 1150 422 2328 
Q 422 3509 836 4129 
Q 1250 4750 2034 4750 
z
" transform="scale(0.015625)"/>
       </defs>
       <use xlink:href="#DejaVuSans-30"/>
      </g>
     </g>
    </g>
    <g id="xtick_2">
     <g id="line2d_3">
      <g>
       <use xlink:href="#m6bc3038610" x="176.586207" y="192.24" style="stroke: #000000; stroke-width: 0.8"/>
      </g>
     </g>
     <g id="text_2">
      <!-- 2 -->
      <g transform="translate(173.404957 206.838437) scale(0.1 -0.1)">
       <defs>
        <path id="DejaVuSans-32" d="M 1228 531 
L 3431 531 
L 3431 0 
L 469 0 
L 469 531 
Q 828 903 1448 1529 
Q 2069 2156 2228 2338 
Q 2531 2678 2651 2914 
Q 2772 3150 2772 3378 
Q 2772 3750 2511 3984 
Q 2250 4219 1831 4219 
Q 1534 4219 1204 4116 
Q 875 4013 500 3803 
L 500 4441 
Q 881 4594 1212 4672 
Q 1544 4750 1819 4750 
Q 2544 4750 2975 4387 
Q 3406 4025 3406 3419 
Q 3406 3131 3298 2873 
Q 3191 2616 2906 2266 
Q 2828 2175 2409 1742 
Q 1991 1309 1228 531 
z
" transform="scale(0.015625)"/>
       </defs>
       <use xlink:href="#DejaVuSans-32"/>
      </g>
     </g>
    </g>
    <g id="xtick_3">
     <g id="line2d_4">
      <g>
       <use xlink:href="#m6bc3038610" x="246.554859" y="192.24" style="stroke: #000000; stroke-width: 0.8"/>
      </g>
     </g>
     <g id="text_3">
      <!-- 4 -->
      <g transform="translate(243.373609 206.838437) scale(0.1 -0.1)">
       <defs>
        <path id="DejaVuSans-34" d="M 2419 4116 
L 825 1625 
L 2419 1625 
L 2419 4116 
z
M 2253 4666 
L 3047 4666 
L 3047 1625 
L 3713 1625 
L 3713 1100 
L 3047 1100 
L 3047 0 
L 2419 0 
L 2419 1100 
L 313 1100 
L 313 1709 
L 2253 4666 
z
" transform="scale(0.015625)"/>
       </defs>
       <use xlink:href="#DejaVuSans-34"/>
      </g>
     </g>
    </g>
    <g id="xtick_4">
     <g id="line2d_5">
      <g>
       <use xlink:href="#m6bc3038610" x="316.523511" y="192.24" style="stroke: #000000; stroke-width: 0.8"/>
      </g>
     </g>
     <g id="text_4">
      <!-- 6 -->
      <g transform="translate(313.342261 206.838437) scale(0.1 -0.1)">
       <defs>
        <path id="DejaVuSans-36" d="M 2113 2584 
Q 1688 2584 1439 2293 
Q 1191 2003 1191 1497 
Q 1191 994 1439 701 
Q 1688 409 2113 409 
Q 2538 409 2786 701 
Q 3034 994 3034 1497 
Q 3034 2003 2786 2293 
Q 2538 2584 2113 2584 
z
M 3366 4563 
L 3366 3988 
Q 3128 4100 2886 4159 
Q 2644 4219 2406 4219 
Q 1781 4219 1451 3797 
Q 1122 3375 1075 2522 
Q 1259 2794 1537 2939 
Q 1816 3084 2150 3084 
Q 2853 3084 3261 2657 
Q 3669 2231 3669 1497 
Q 3669 778 3244 343 
Q 2819 -91 2113 -91 
Q 1303 -91 875 529 
Q 447 1150 447 2328 
Q 447 3434 972 4092 
Q 1497 4750 2381 4750 
Q 2619 4750 2861 4703 
Q 3103 4656 3366 4563 
z
" transform="scale(0.015625)"/>
       </defs>
       <use xlink:href="#DejaVuSans-36"/>
      </g>
     </g>
    </g>
    <g id="xtick_5">
     <g id="line2d_6">
      <g>
       <use xlink:href="#m6bc3038610" x="386.492163" y="192.24" style="stroke: #000000; stroke-width: 0.8"/>
      </g>
     </g>
     <g id="text_5">
      <!-- 8 -->
      <g transform="translate(383.310913 206.838437) scale(0.1 -0.1)">
       <defs>
        <path id="DejaVuSans-38" d="M 2034 2216 
Q 1584 2216 1326 1975 
Q 1069 1734 1069 1313 
Q 1069 891 1326 650 
Q 1584 409 2034 409 
Q 2484 409 2743 651 
Q 3003 894 3003 1313 
Q 3003 1734 2745 1975 
Q 2488 2216 2034 2216 
z
M 1403 2484 
Q 997 2584 770 2862 
Q 544 3141 544 3541 
Q 544 4100 942 4425 
Q 1341 4750 2034 4750 
Q 2731 4750 3128 4425 
Q 3525 4100 3525 3541 
Q 3525 3141 3298 2862 
Q 3072 2584 2669 2484 
Q 3125 2378 3379 2068 
Q 3634 1759 3634 1313 
Q 3634 634 3220 271 
Q 2806 -91 2034 -91 
Q 1263 -91 848 271 
Q 434 634 434 1313 
Q 434 1759 690 2068 
Q 947 2378 1403 2484 
z
M 1172 3481 
Q 1172 3119 1398 2916 
Q 1625 2713 2034 2713 
Q 2441 2713 2670 2916 
Q 2900 3119 2900 3481 
Q 2900 3844 2670 4047 
Q 2441 4250 2034 4250 
Q 1625 4250 1398 4047 
Q 1172 3844 1172 3481 
z
" transform="scale(0.015625)"/>
       </defs>
       <use xlink:href="#DejaVuSans-38"/>
      </g>
     </g>
    </g>
    <g id="xtick_6">
     <g id="line2d_7">
      <g>
       <use xlink:href="#m6bc3038610" x="456.460815" y="192.24" style="stroke: #000000; stroke-width: 0.8"/>
      </g>
     </g>
     <g id="text_6">
      <!-- 10 -->
      <g transform="translate(450.098315 206.838437) scale(0.1 -0.1)">
       <defs>
        <path id="DejaVuSans-31" d="M 794 531 
L 1825 531 
L 1825 4091 
L 703 3866 
L 703 4441 
L 1819 4666 
L 2450 4666 
L 2450 531 
L 3481 531 
L 3481 0 
L 794 0 
L 794 531 
z
" transform="scale(0.015625)"/>
       </defs>
       <use xlink:href="#DejaVuSans-31"/>
       <use xlink:href="#DejaVuSans-30" x="63.623047"/>
      </g>
     </g>
    </g>
    <g id="xtick_7">
     <g id="line2d_8">
      <g>
       <use xlink:href="#m6bc3038610" x="526.429467" y="192.24" style="stroke: #000000; stroke-width: 0.8"/>
      </g>
     </g>
     <g id="text_7">
      <!-- 12 -->
      <g transform="translate(520.066967 206.838437) scale(0.1 -0.1)">
       <use xlink:href="#DejaVuSans-31"/>
       <use xlink:href="#DejaVuSans-32" x="63.623047"/>
      </g>
     </g>
    </g>
    <g id="xtick_8">
     <g id="line2d_9">
      <g>
       <use xlink:href="#m6bc3038610" x="596.398119" y="192.24" style="stroke: #000000; stroke-width: 0.8"/>
      </g>
     </g>
     <g id="text_8">
      <!-- 14 -->
      <g transform="translate(590.035619 206.838437) scale(0.1 -0.1)">
       <use xlink:href="#DejaVuSans-31"/>
       <use xlink:href="#DejaVuSans-34" x="63.623047"/>
      </g>
     </g>
    </g>
   </g>
   <g id="matplotlib.axis_2">
    <g id="ytick_1">
     <g id="line2d_10">
      <defs>
       <path id="m64fa8b94de" d="M 0 0 
L -3.5 0 
" style="stroke: #000000; stroke-width: 0.8"/>
      </defs>
      <g>
       <use xlink:href="#m64fa8b94de" x="90" y="192.24" style="stroke: #000000; stroke-width: 0.8"/>
      </g>
     </g>
     <g id="text_9">
      <!-- 0.0000 -->
      <g transform="translate(48.009375 196.039219) scale(0.1 -0.1)">
       <defs>
        <path id="DejaVuSans-2e" d="M 684 794 
L 1344 794 
L 1344 0 
L 684 0 
L 684 794 
z
" transform="scale(0.015625)"/>
       </defs>
       <use xlink:href="#DejaVuSans-30"/>
       <use xlink:href="#DejaVuSans-2e" x="63.623047"/>
       <use xlink:href="#DejaVuSans-30" x="95.410156"/>
       <use xlink:href="#DejaVuSans-30" x="159.033203"/>
       <use xlink:href="#DejaVuSans-30" x="222.65625"/>
       <use xlink:href="#DejaVuSans-30" x="286.279297"/>
      </g>
     </g>
    </g>
    <g id="ytick_2">
     <g id="line2d_11">
      <g>
       <use xlink:href="#m64fa8b94de" x="90" y="168.674259" style="stroke: #000000; stroke-width: 0.8"/>
      </g>
     </g>
     <g id="text_10">
      <!-- 0.0025 -->
      <g transform="translate(48.009375 172.473478) scale(0.1 -0.1)">
       <defs>
        <path id="DejaVuSans-35" d="M 691 4666 
L 3169 4666 
L 3169 4134 
L 1269 4134 
L 1269 2991 
Q 1406 3038 1543 3061 
Q 1681 3084 1819 3084 
Q 2600 3084 3056 2656 
Q 3513 2228 3513 1497 
Q 3513 744 3044 326 
Q 2575 -91 1722 -91 
Q 1428 -91 1123 -41 
Q 819 9 494 109 
L 494 744 
Q 775 591 1075 516 
Q 1375 441 1709 441 
Q 2250 441 2565 725 
Q 2881 1009 2881 1497 
Q 2881 1984 2565 2268 
Q 2250 2553 1709 2553 
Q 1456 2553 1204 2497 
Q 953 2441 691 2322 
L 691 4666 
z
" transform="scale(0.015625)"/>
       </defs>
       <use xlink:href="#DejaVuSans-30"/>
       <use xlink:href="#DejaVuSans-2e" x="63.623047"/>
       <use xlink:href="#DejaVuSans-30" x="95.410156"/>
       <use xlink:href="#DejaVuSans-30" x="159.033203"/>
       <use xlink:href="#DejaVuSans-32" x="222.65625"/>
       <use xlink:href="#DejaVuSans-35" x="286.279297"/>
      </g>
     </g>
    </g>
    <g id="ytick_3">
     <g id="line2d_12">
      <g>
       <use xlink:href="#m64fa8b94de" x="90" y="145.108518" style="stroke: #000000; stroke-width: 0.8"/>
      </g>
     </g>
     <g id="text_11">
      <!-- 0.0050 -->
      <g transform="translate(48.009375 148.907737) scale(0.1 -0.1)">
       <use xlink:href="#DejaVuSans-30"/>
       <use xlink:href="#DejaVuSans-2e" x="63.623047"/>
       <use xlink:href="#DejaVuSans-30" x="95.410156"/>
       <use xlink:href="#DejaVuSans-30" x="159.033203"/>
       <use xlink:href="#DejaVuSans-35" x="222.65625"/>
       <use xlink:href="#DejaVuSans-30" x="286.279297"/>
      </g>
     </g>
    </g>
    <g id="ytick_4">
     <g id="line2d_13">
      <g>
       <use xlink:href="#m64fa8b94de" x="90" y="121.542777" style="stroke: #000000; stroke-width: 0.8"/>
      </g>
     </g>
     <g id="text_12">
      <!-- 0.0075 -->
      <g transform="translate(48.009375 125.341996) scale(0.1 -0.1)">
       <defs>
        <path id="DejaVuSans-37" d="M 525 4666 
L 3525 4666 
L 3525 4397 
L 1831 0 
L 1172 0 
L 2766 4134 
L 525 4134 
L 525 4666 
z
" transform="scale(0.015625)"/>
       </defs>
       <use xlink:href="#DejaVuSans-30"/>
       <use xlink:href="#DejaVuSans-2e" x="63.623047"/>
       <use xlink:href="#DejaVuSans-30" x="95.410156"/>
       <use xlink:href="#DejaVuSans-30" x="159.033203"/>
       <use xlink:href="#DejaVuSans-37" x="222.65625"/>
       <use xlink:href="#DejaVuSans-35" x="286.279297"/>
      </g>
     </g>
    </g>
    <g id="ytick_5">
     <g id="line2d_14">
      <g>
       <use xlink:href="#m64fa8b94de" x="90" y="97.977037" style="stroke: #000000; stroke-width: 0.8"/>
      </g>
     </g>
     <g id="text_13">
      <!-- 0.0100 -->
      <g transform="translate(48.009375 101.776255) scale(0.1 -0.1)">
       <use xlink:href="#DejaVuSans-30"/>
       <use xlink:href="#DejaVuSans-2e" x="63.623047"/>
       <use xlink:href="#DejaVuSans-30" x="95.410156"/>
       <use xlink:href="#DejaVuSans-31" x="159.033203"/>
       <use xlink:href="#DejaVuSans-30" x="222.65625"/>
       <use xlink:href="#DejaVuSans-30" x="286.279297"/>
      </g>
     </g>
    </g>
    <g id="ytick_6">
     <g id="line2d_15">
      <g>
       <use xlink:href="#m64fa8b94de" x="90" y="74.411296" style="stroke: #000000; stroke-width: 0.8"/>
      </g>
     </g>
     <g id="text_14">
      <!-- 0.0125 -->
      <g transform="translate(48.009375 78.210515) scale(0.1 -0.1)">
       <use xlink:href="#DejaVuSans-30"/>
       <use xlink:href="#DejaVuSans-2e" x="63.623047"/>
       <use xlink:href="#DejaVuSans-30" x="95.410156"/>
       <use xlink:href="#DejaVuSans-31" x="159.033203"/>
       <use xlink:href="#DejaVuSans-32" x="222.65625"/>
       <use xlink:href="#DejaVuSans-35" x="286.279297"/>
      </g>
     </g>
    </g>
    <g id="ytick_7">
     <g id="line2d_16">
      <g>
       <use xlink:href="#m64fa8b94de" x="90" y="50.845555" style="stroke: #000000; stroke-width: 0.8"/>
      </g>
     </g>
     <g id="text_15">
      <!-- 0.0150 -->
      <g transform="translate(48.009375 54.644774) scale(0.1 -0.1)">
       <use xlink:href="#DejaVuSans-30"/>
       <use xlink:href="#DejaVuSans-2e" x="63.623047"/>
       <use xlink:href="#DejaVuSans-30" x="95.410156"/>
       <use xlink:href="#DejaVuSans-31" x="159.033203"/>
       <use xlink:href="#DejaVuSans-35" x="222.65625"/>
       <use xlink:href="#DejaVuSans-30" x="286.279297"/>
      </g>
     </g>
    </g>
    <g id="ytick_8">
     <g id="line2d_17">
      <g>
       <use xlink:href="#m64fa8b94de" x="90" y="27.279814" style="stroke: #000000; stroke-width: 0.8"/>
      </g>
     </g>
     <g id="text_16">
      <!-- 0.0175 -->
      <g transform="translate(48.009375 31.079033) scale(0.1 -0.1)">
       <use xlink:href="#DejaVuSans-30"/>
       <use xlink:href="#DejaVuSans-2e" x="63.623047"/>
       <use xlink:href="#DejaVuSans-30" x="95.410156"/>
       <use xlink:href="#DejaVuSans-31" x="159.033203"/>
       <use xlink:href="#DejaVuSans-37" x="222.65625"/>
       <use xlink:href="#DejaVuSans-35" x="286.279297"/>
      </g>
     </g>
    </g>
   </g>
  </g>
 </g>
 <defs>
  <clipPath id="p59f5fbe5f6">
   <rect x="90" y="25.92" width="558" height="166.32"/>
  </clipPath>
 </defs>
</svg>
