<?xml version="1.0" encoding="utf-8" standalone="no"?>
<!DOCTYPE svg PUBLIC "-//W3C//DTD SVG 1.1//EN"
  "http://www.w3.org/Graphics/SVG/1.1/DTD/svg11.dtd">
<svg xmlns:xlink="http://www.w3.org/1999/xlink" width="720pt" height="216pt" viewBox="0 0 720 216" xmlns="http://www.w3.org/2000/svg" version="1.1">
 <metadata>
  <rdf:RDF xmlns:dc="http://purl.org/dc/elements/1.1/" xmlns:cc="http://creativecommons.org/ns#" xmlns:rdf="http://www.w3.org/1999/02/22-rdf-syntax-ns#">
   <cc:Work>
    <dc:type rdf:resource="http://purl.org/dc/dcmitype/StillImage"/>
    <dc:date>2024-11-23T04:41:03.252394</dc:date>
    <dc:format>image/svg+xml</dc:format>
    <dc:creator>
     <cc:Agent>
      <dc:title>Matplotlib v3.7.2, https://matplotlib.org/</dc:title>
     </cc:Agent>
    </dc:creator>
   </cc:Work>
  </rdf:RDF>
 </metadata>
 <defs>
  <style type="text/css">*{stroke-linejoin: round; stroke-linecap: butt}</style>
 </defs>
 <g id="figure_1">
  <g id="patch_1">
   <path d="M 0 216 
L 720 216 
L 720 0 
L 0 0 
z
" style="fill: #ffffff"/>
  </g>
  <g id="axes_1">
   <g id="patch_2">
    <path d="M 90 192.24 
L 648 192.24 
L 648 25.92 
L 90 25.92 
z
" style="fill: #ffffff"/>
   </g>
   <g id="line2d_1">
    <path d="M 90 175.331158 
L 648 175.331158 
" clip-path="url(#p8de0ce0041)" style="fill: none; stroke: #000000; stroke-width: 0.5; stroke-linecap: square"/>
   </g>
   <g id="patch_3">
    <path d="M 90 174.27585 
L 107.699499 174.27585 
L 107.699499 174.481665 
L 101.331796 174.481665 
L 101.331796 175.331158 
L 96.380052 175.331158 
L 96.380052 174.481665 
L 90 174.481665 
L 90 174.27585 
z
" clip-path="url(#p8de0ce0041)" style="fill: #ff0000"/>
   </g>
   <g id="patch_4">
    <path d="M 102.260459 173.219211 
L 95.453516 173.219211 
L 94.378735 174.27585 
L 90 174.27585 
L 96.253268 168.475524 
L 101.446231 168.475524 
L 107.699499 174.27585 
L 103.324383 174.27585 
L 102.260459 173.219211 
z
M 96.539153 172.142683 
L 101.163965 172.142683 
L 98.855178 169.83548 
L 96.539153 172.142683 
z
" clip-path="url(#p8de0ce0041)" style="fill: #008000"/>
   </g>
   <g id="patch_5">
    <path d="M 107.699499 167.363304 
Q 105.914476 167.919414 103.994584 168.198739 
Q 102.074692 168.475524 100.027865 168.475524 
Q 95.402671 168.475524 92.701335 166.819891 
Q 90 165.164259 90 162.332924 
Q 90 159.468579 92.748936 157.825643 
Q 95.501839 156.182707 100.289668 156.182707 
Q 102.134193 156.182707 103.824015 156.406167 
Q 105.517804 156.627087 107.017224 157.063849 
L 107.017224 159.514286 
Q 105.470203 158.953098 103.93905 158.676313 
Q 102.407896 158.396989 100.868809 158.396989 
Q 98.020705 158.396989 96.477652 159.417793 
Q 94.934598 160.436057 94.934598 162.332924 
Q 94.934598 164.212016 96.422118 165.237899 
Q 97.909637 166.261242 100.646673 166.261242 
Q 101.392416 166.261242 102.031058 166.202838 
Q 102.6697 166.141895 103.17744 166.014929 
L 103.17744 163.714311 
L 100.261901 163.714311 
L 100.261901 161.665085 
L 107.699499 161.665085 
L 107.699499 167.363304 
z
" clip-path="url(#p8de0ce0041)" style="fill: #ffa600"/>
   </g>
   <g id="patch_6">
    <path d="M 107.699499 154.831474 
Q 106.218967 155.50125 104.618029 155.840031 
Q 103.017092 156.182707 101.273453 156.182707 
Q 96.073751 156.182707 93.036876 153.643791 
Q 90 151.104875 90 146.763017 
Q 90 142.405582 93.036876 139.87056 
Q 96.073751 137.331644 101.273453 137.331644 
Q 103.017092 137.331644 104.618029 137.67432 
Q 106.218967 138.013102 107.699499 138.682877 
L 107.699499 142.440629 
Q 106.205588 141.552787 104.756272 141.140018 
Q 103.306955 140.72725 101.706018 140.72725 
Q 98.834142 140.72725 97.18861 142.335489 
Q 95.547538 143.939835 95.547538 146.763017 
Q 95.547538 149.574516 97.18861 151.182756 
Q 98.834142 152.787101 101.706018 152.787101 
Q 103.306955 152.787101 104.756272 152.374333 
Q 106.205588 151.95767 107.699499 151.069828 
L 107.699499 154.831474 
z
" clip-path="url(#p8de0ce0041)" style="fill: #0000ff"/>
   </g>
   <g id="patch_7">
    <path d="M 120.89151 174.334308 
L 114.084567 174.334308 
L 113.009787 175.331158 
L 108.631052 175.331158 
L 114.88432 169.859033 
L 120.077283 169.859033 
L 126.330551 175.331158 
L 121.955434 175.331158 
L 120.89151 174.334308 
z
M 115.170204 173.318692 
L 119.795017 173.318692 
L 117.48623 171.142039 
L 115.170204 173.318692 
z
" clip-path="url(#p8de0ce0041)" style="fill: #008000"/>
   </g>
   <g id="patch_8">
    <path d="M 108.631052 162.324572 
L 126.330551 162.324572 
L 126.330551 163.794002 
L 119.962847 163.794002 
L 119.962847 169.859033 
L 115.011104 169.859033 
L 115.011104 163.794002 
L 108.631052 163.794002 
L 108.631052 162.324572 
z
" clip-path="url(#p8de0ce0041)" style="fill: #ff0000"/>
   </g>
   <g id="patch_9">
    <path d="M 126.330551 160.284967 
Q 124.850018 161.295953 123.249081 161.807324 
Q 121.648144 162.324572 119.904504 162.324572 
Q 114.704803 162.324572 111.667927 158.492231 
Q 108.631052 154.65989 108.631052 148.106117 
Q 108.631052 141.528833 111.667927 137.70237 
Q 114.704803 133.870029 119.904504 133.870029 
Q 121.648144 133.870029 123.249081 134.387278 
Q 124.850018 134.898648 126.330551 135.909634 
L 126.330551 141.581733 
Q 124.83664 140.24159 123.387324 139.61854 
Q 121.938007 138.995491 120.33707 138.995491 
Q 117.465193 138.995491 115.819662 141.423032 
Q 114.178589 143.844695 114.178589 148.106117 
Q 114.178589 152.349906 115.819662 154.777447 
Q 117.465193 157.19911 120.33707 157.19911 
Q 121.938007 157.19911 123.387324 156.576061 
Q 124.83664 155.947134 126.330551 154.60699 
L 126.330551 160.284967 
z
" clip-path="url(#p8de0ce0041)" style="fill: #0000ff"/>
   </g>
   <g id="patch_10">
    <path d="M 127.262104 170.019501 
L 144.961603 170.019501 
L 144.961603 171.055422 
L 138.593899 171.055422 
L 138.593899 175.331158 
L 133.642156 175.331158 
L 133.642156 171.055422 
L 127.262104 171.055422 
L 127.262104 170.019501 
z
" clip-path="url(#p8de0ce0041)" style="fill: #ff0000"/>
   </g>
   <g id="patch_11">
    <path d="M 144.961603 168.927303 
Q 143.48107 169.468681 141.880133 169.742517 
Q 140.279195 170.019501 138.535556 170.019501 
Q 133.335855 170.019501 130.298979 167.967301 
Q 127.262104 165.9151 127.262104 162.405586 
Q 127.262104 158.883481 130.298979 156.834428 
Q 133.335855 154.782228 138.535556 154.782228 
Q 140.279195 154.782228 141.880133 155.059212 
Q 143.48107 155.333048 144.961603 155.874427 
L 144.961603 158.911809 
Q 143.467692 158.194168 142.018375 157.860528 
Q 140.569059 157.526889 138.968121 157.526889 
Q 136.096245 157.526889 134.450713 158.826825 
Q 132.809641 160.123615 132.809641 162.405586 
Q 132.809641 164.678115 134.450713 165.978051 
Q 136.096245 167.274841 138.968121 167.274841 
Q 140.569059 167.274841 142.018375 166.941201 
Q 143.467692 166.604413 144.961603 165.886773 
L 144.961603 168.927303 
z
" clip-path="url(#p8de0ce0041)" style="fill: #0000ff"/>
   </g>
   <g id="patch_12">
    <path d="M 158.153614 174.775496 
L 151.346671 174.775496 
L 150.27189 175.331158 
L 145.893155 175.331158 
L 152.146423 172.280898 
L 157.339386 172.280898 
L 163.592654 175.331158 
L 159.217538 175.331158 
L 158.153614 174.775496 
z
M 152.432308 174.209374 
L 157.057121 174.209374 
L 154.748333 172.996068 
L 152.432308 174.209374 
z
" clip-path="url(#p8de0ce0041)" style="fill: #008000"/>
   </g>
   <g id="patch_13">
    <path d="M 145.893155 167.208597 
L 163.592654 167.208597 
L 163.592654 168.197837 
L 157.224951 168.197837 
L 157.224951 172.280898 
L 152.273207 172.280898 
L 152.273207 168.197837 
L 145.893155 168.197837 
L 145.893155 167.208597 
z
" clip-path="url(#p8de0ce0041)" style="fill: #ff0000"/>
   </g>
   <g id="patch_14">
    <path d="M 163.592654 165.458119 
Q 162.112122 166.325791 160.511185 166.764672 
Q 158.910247 167.208597 157.166608 167.208597 
Q 151.966906 167.208597 148.930031 163.919514 
Q 145.893155 160.630431 145.893155 155.005696 
Q 145.893155 149.360783 148.930031 146.076744 
Q 151.966906 142.787662 157.166608 142.787662 
Q 158.910247 142.787662 160.511185 143.231587 
Q 162.112122 143.670468 163.592654 144.53814 
L 163.592654 149.406184 
Q 162.098744 148.256014 160.649427 147.721286 
Q 159.200111 147.186558 157.599173 147.186558 
Q 154.727297 147.186558 153.081765 149.26998 
Q 151.440693 151.348357 151.440693 155.005696 
Q 151.440693 158.647901 153.081765 160.731323 
Q 154.727297 162.809701 157.599173 162.809701 
Q 159.200111 162.809701 160.649427 162.274973 
Q 162.098744 161.7352 163.592654 160.58503 
L 163.592654 165.458119 
z
" clip-path="url(#p8de0ce0041)" style="fill: #0000ff"/>
   </g>
   <g id="patch_15">
    <path d="M 164.524207 173.482297 
L 182.223706 173.482297 
L 182.223706 173.842876 
L 175.856003 173.842876 
L 175.856003 175.331158 
L 170.904259 175.331158 
L 170.904259 173.842876 
L 164.524207 173.842876 
L 164.524207 173.482297 
z
" clip-path="url(#p8de0ce0041)" style="fill: #ff0000"/>
   </g>
   <g id="patch_16">
    <path d="M 182.223706 172.233126 
Q 180.743174 172.852312 179.142236 173.165504 
Q 177.541299 173.482297 175.79766 173.482297 
Q 170.597958 173.482297 167.561083 171.135152 
Q 164.524207 168.788008 164.524207 164.774102 
Q 164.524207 160.745797 167.561083 158.402253 
Q 170.597958 156.055108 175.79766 156.055108 
Q 177.541299 156.055108 179.142236 156.371901 
Q 180.743174 156.685093 182.223706 157.304279 
L 182.223706 160.778197 
Q 180.729795 159.957416 179.280479 159.575825 
Q 177.831162 159.194234 176.230225 159.194234 
Q 173.358349 159.194234 171.712817 160.680999 
Q 170.071745 162.164164 170.071745 164.774102 
Q 170.071745 167.373241 171.712817 168.860006 
Q 173.358349 170.343171 176.230225 170.343171 
Q 177.831162 170.343171 179.280479 169.96158 
Q 180.729795 169.576389 182.223706 168.755608 
L 182.223706 172.233126 
z
" clip-path="url(#p8de0ce0041)" style="fill: #0000ff"/>
   </g>
   <g id="patch_17">
    <path d="M 183.155259 172.3072 
L 200.854758 172.3072 
L 200.854758 172.896956 
L 194.487054 172.896956 
L 194.487054 175.331158 
L 189.535311 175.331158 
L 189.535311 172.896956 
L 183.155259 172.896956 
L 183.155259 172.3072 
z
" clip-path="url(#p8de0ce0041)" style="fill: #ff0000"/>
   </g>
   <g id="patch_18">
    <path d="M 200.854758 170.769756 
Q 199.374225 171.531832 197.773288 171.9173 
Q 196.172351 172.3072 194.428711 172.3072 
Q 189.22901 172.3072 186.192134 169.4184 
Q 183.155259 166.5296 183.155259 161.589398 
Q 183.155259 156.631473 186.192134 153.747104 
Q 189.22901 150.858305 194.428711 150.858305 
Q 196.172351 150.858305 197.773288 151.248204 
Q 199.374225 151.633673 200.854758 152.395749 
L 200.854758 156.67135 
Q 199.360847 155.661156 197.911531 155.191504 
Q 196.462214 154.721853 194.861277 154.721853 
Q 191.9894 154.721853 190.343869 156.551721 
Q 188.702796 158.377159 188.702796 161.589398 
Q 188.702796 164.788345 190.343869 166.618214 
Q 191.9894 168.443651 194.861277 168.443651 
Q 196.462214 168.443651 197.911531 167.974 
Q 199.360847 167.499918 200.854758 166.489724 
L 200.854758 170.769756 
z
" clip-path="url(#p8de0ce0041)" style="fill: #0000ff"/>
   </g>
   <g id="patch_19">
    <path d="M 201.786311 173.948756 
L 219.48581 173.948756 
L 219.48581 174.218363 
L 213.118106 174.218363 
L 213.118106 175.331158 
L 208.166363 175.331158 
L 208.166363 174.218363 
L 201.786311 174.218363 
L 201.786311 173.948756 
z
" clip-path="url(#p8de0ce0041)" style="fill: #ff0000"/>
   </g>
   <g id="patch_20">
    <path d="M 219.48581 171.184435 
Q 218.005277 172.554646 216.40434 173.247718 
Q 214.803402 173.948756 213.059763 173.948756 
Q 207.860062 173.948756 204.823186 168.754699 
Q 201.786311 163.560642 201.786311 154.678167 
Q 201.786311 145.763827 204.823186 140.577736 
Q 207.860062 135.383679 213.059763 135.383679 
Q 214.803402 135.383679 216.40434 136.084717 
Q 218.005277 136.777789 219.48581 138.148001 
L 219.48581 145.835524 
Q 217.991899 144.019197 216.542582 143.174765 
Q 215.093266 142.330332 213.492328 142.330332 
Q 210.620452 142.330332 208.97492 145.620433 
Q 207.333848 148.902567 207.333848 154.678167 
Q 207.333848 160.429869 208.97492 163.719969 
Q 210.620452 167.002103 213.492328 167.002103 
Q 215.093266 167.002103 216.542582 166.157671 
Q 217.991899 165.305272 219.48581 163.488945 
L 219.48581 171.184435 
z
" clip-path="url(#p8de0ce0041)" style="fill: #0000ff"/>
   </g>
   <g id="patch_21">
    <path d="M 220.417362 170.943301 
L 238.116861 170.943301 
L 238.116861 171.799056 
L 231.749158 171.799056 
L 231.749158 175.331158 
L 226.797414 175.331158 
L 226.797414 171.799056 
L 220.417362 171.799056 
L 220.417362 170.943301 
z
" clip-path="url(#p8de0ce0041)" style="fill: #ff0000"/>
   </g>
   <g id="patch_22">
    <path d="M 238.116861 169.716834 
Q 236.636329 170.324766 235.035392 170.632266 
Q 233.434454 170.943301 231.690815 170.943301 
Q 226.491113 170.943301 223.454238 168.638815 
Q 220.417362 166.334329 220.417362 162.393374 
Q 220.417362 158.438282 223.454238 156.13733 
Q 226.491113 153.832843 231.690815 153.832843 
Q 233.434454 153.832843 235.035392 154.143878 
Q 236.636329 154.451379 238.116861 155.059311 
L 238.116861 158.470092 
Q 236.622951 157.664229 235.173634 157.289573 
Q 233.724318 156.914917 232.12338 156.914917 
Q 229.251504 156.914917 227.605972 158.374661 
Q 225.9649 159.83087 225.9649 162.393374 
Q 225.9649 164.945275 227.605972 166.405018 
Q 229.251504 167.861228 232.12338 167.861228 
Q 233.724318 167.861228 235.173634 167.486572 
Q 236.622951 167.108382 238.116861 166.302518 
L 238.116861 169.716834 
z
" clip-path="url(#p8de0ce0041)" style="fill: #0000ff"/>
   </g>
   <g id="patch_23">
    <path d="M 251.308873 175.204242 
L 244.50193 175.204242 
L 243.427149 175.331158 
L 239.048414 175.331158 
L 245.301682 174.634461 
L 250.494645 174.634461 
L 256.747913 175.331158 
L 252.372797 175.331158 
L 251.308873 175.204242 
z
M 245.587567 175.074936 
L 250.212379 175.074936 
L 247.903592 174.79781 
L 245.587567 175.074936 
z
" clip-path="url(#p8de0ce0041)" style="fill: #008000"/>
   </g>
   <g id="patch_24">
    <path d="M 239.048414 171.498157 
L 256.747913 171.498157 
L 256.747913 172.109824 
L 250.38021 172.109824 
L 250.38021 174.634461 
L 245.428466 174.634461 
L 245.428466 172.109824 
L 239.048414 172.109824 
L 239.048414 171.498157 
z
" clip-path="url(#p8de0ce0041)" style="fill: #ff0000"/>
   </g>
   <g id="patch_25">
    <path d="M 256.747913 170.633649 
Q 254.96289 171.065903 253.042998 171.283017 
Q 251.123106 171.498157 249.076279 171.498157 
Q 244.451085 171.498157 241.74975 170.211263 
Q 239.048414 168.92437 239.048414 166.723624 
Q 239.048414 164.497219 241.79735 163.220194 
Q 244.550253 161.943169 249.338083 161.943169 
Q 251.182607 161.943169 252.872429 162.116861 
Q 254.566218 162.288578 256.065638 162.628065 
L 256.065638 164.532747 
Q 254.518617 164.096545 252.987464 163.881405 
Q 251.45631 163.664291 249.917223 163.664291 
Q 247.069119 163.664291 245.526066 164.457744 
Q 243.983012 165.249223 243.983012 166.723624 
Q 243.983012 168.184209 245.470532 168.981609 
Q 246.958051 169.777036 249.695087 169.777036 
Q 250.44083 169.777036 251.079472 169.731639 
Q 251.718114 169.684269 252.225854 169.58558 
L 252.225854 167.797351 
L 249.310315 167.797351 
L 249.310315 166.204524 
L 256.747913 166.204524 
L 256.747913 170.633649 
z
" clip-path="url(#p8de0ce0041)" style="fill: #ffa600"/>
   </g>
   <g id="patch_26">
    <path d="M 256.747913 159.578346 
Q 255.267381 160.750535 253.666443 161.343445 
Q 252.065506 161.943169 250.321867 161.943169 
Q 245.122165 161.943169 242.08529 157.499754 
Q 239.048414 153.056339 239.048414 145.457555 
Q 239.048414 137.831509 242.08529 133.394909 
Q 245.122165 128.951494 250.321867 128.951494 
Q 252.065506 128.951494 253.666443 129.551219 
Q 255.267381 130.144129 256.747913 131.316318 
L 256.747913 137.892845 
Q 255.254002 136.339013 253.804686 135.616617 
Q 252.355369 134.894221 250.754432 134.894221 
Q 247.882556 134.894221 246.237024 137.708838 
Q 244.595952 140.516641 244.595952 145.457555 
Q 244.595952 150.378023 246.237024 153.19264 
Q 247.882556 156.000443 250.754432 156.000443 
Q 252.355369 156.000443 253.804686 155.278047 
Q 255.254002 154.548836 256.747913 152.995004 
L 256.747913 159.578346 
z
" clip-path="url(#p8de0ce0041)" style="fill: #0000ff"/>
   </g>
   <g id="patch_27">
    <path d="M 257.679466 167.608675 
L 275.378965 167.608675 
L 275.378965 169.114775 
L 269.011261 169.114775 
L 269.011261 175.331158 
L 264.059518 175.331158 
L 264.059518 169.114775 
L 257.679466 169.114775 
L 257.679466 167.608675 
z
" clip-path="url(#p8de0ce0041)" style="fill: #ff0000"/>
   </g>
   <g id="patch_28">
    <path d="M 275.378965 166.89825 
Q 273.593941 167.253462 271.67405 167.43188 
Q 269.754158 167.608675 267.707331 167.608675 
Q 263.082137 167.608675 260.380801 166.551147 
Q 257.679466 165.493619 257.679466 163.685116 
Q 257.679466 161.855527 260.428402 160.806109 
Q 263.181305 159.756691 267.969134 159.756691 
Q 269.813659 159.756691 271.503481 159.899425 
Q 273.19727 160.040537 274.696689 160.319516 
L 274.696689 161.884723 
Q 273.149669 161.526266 271.618516 161.349471 
Q 270.087362 161.171054 268.548275 161.171054 
Q 265.700171 161.171054 264.157118 161.823088 
Q 262.614064 162.4735 262.614064 163.685116 
Q 262.614064 164.885378 264.101583 165.540656 
Q 265.589103 166.194312 268.326139 166.194312 
Q 269.071882 166.194312 269.710524 166.157007 
Q 270.349166 166.11808 270.856906 166.036981 
L 270.856906 164.567471 
L 267.941367 164.567471 
L 267.941367 163.258536 
L 275.378965 163.258536 
L 275.378965 166.89825 
z
" clip-path="url(#p8de0ce0041)" style="fill: #ffa600"/>
   </g>
   <g id="patch_29">
    <path d="M 269.939924 157.560064 
L 263.132981 157.560064 
L 262.058201 159.756691 
L 257.679466 159.756691 
L 263.932734 147.698499 
L 269.125697 147.698499 
L 275.378965 159.756691 
L 271.003849 159.756691 
L 269.939924 157.560064 
z
M 264.218618 155.322088 
L 268.843431 155.322088 
L 266.534644 150.525688 
L 264.218618 155.322088 
z
" clip-path="url(#p8de0ce0041)" style="fill: #008000"/>
   </g>
   <g id="patch_30">
    <path d="M 275.378965 145.529326 
Q 273.898432 146.604536 272.297495 147.148392 
Q 270.696558 147.698499 268.952919 147.698499 
Q 263.753217 147.698499 260.716341 143.622703 
Q 257.679466 139.546908 257.679466 132.576797 
Q 257.679466 125.581681 260.716341 121.512137 
Q 263.753217 117.436341 268.952919 117.436341 
Q 270.696558 117.436341 272.297495 117.986448 
Q 273.898432 118.530305 275.378965 119.605515 
L 275.378965 125.637942 
Q 273.885054 124.212664 272.435738 123.550035 
Q 270.986421 122.887405 269.385484 122.887405 
Q 266.513607 122.887405 264.868076 125.469159 
Q 263.227003 128.044662 263.227003 132.576797 
Q 263.227003 137.090178 264.868076 139.671932 
Q 266.513607 142.247435 269.385484 142.247435 
Q 270.986421 142.247435 272.435738 141.584806 
Q 273.885054 140.915925 275.378965 139.490647 
L 275.378965 145.529326 
z
" clip-path="url(#p8de0ce0041)" style="fill: #0000ff"/>
   </g>
   <g id="patch_31">
    <path d="M 288.570976 175.311396 
L 281.764033 175.311396 
L 280.689253 175.331158 
L 276.310518 175.331158 
L 282.563786 175.222676 
L 287.756749 175.222676 
L 294.010017 175.331158 
L 289.6349 175.331158 
L 288.570976 175.311396 
z
M 282.84967 175.291262 
L 287.474483 175.291262 
L 285.165695 175.248111 
L 282.84967 175.291262 
z
" clip-path="url(#p8de0ce0041)" style="fill: #008000"/>
   </g>
   <g id="patch_32">
    <path d="M 276.310518 167.031227 
L 294.010017 167.031227 
L 294.010017 168.628787 
L 287.642313 168.628787 
L 287.642313 175.222676 
L 282.69057 175.222676 
L 282.69057 168.628787 
L 276.310518 168.628787 
L 276.310518 167.031227 
z
" clip-path="url(#p8de0ce0041)" style="fill: #ff0000"/>
   </g>
   <g id="patch_33">
    <path d="M 294.010017 164.256462 
Q 292.529484 165.63185 290.928547 166.32754 
Q 289.32761 167.031227 287.58397 167.031227 
Q 282.384269 167.031227 279.347393 161.817549 
Q 276.310518 156.60387 276.310518 147.687841 
Q 276.310518 138.739826 279.347393 133.534145 
Q 282.384269 128.320467 287.58397 128.320467 
Q 289.32761 128.320467 290.928547 129.024153 
Q 292.529484 129.719844 294.010017 131.095231 
L 294.010017 138.811794 
Q 292.516106 136.988606 291.066789 136.140984 
Q 289.617473 135.293361 288.016535 135.293361 
Q 285.144659 135.293361 283.499127 138.595891 
Q 281.858055 141.890423 281.858055 147.687841 
Q 281.858055 153.46127 283.499127 156.763799 
Q 285.144659 160.058332 288.016535 160.058332 
Q 289.617473 160.058332 291.066789 159.21071 
Q 292.516106 158.355091 294.010017 156.531903 
L 294.010017 164.256462 
z
" clip-path="url(#p8de0ce0041)" style="fill: #0000ff"/>
   </g>
   <g id="patch_34">
    <path d="M 294.010017 124.154373 
Q 292.224993 126.23742 290.305101 127.283699 
Q 288.385209 128.320467 286.338383 128.320467 
Q 281.713188 128.320467 279.011853 122.118884 
Q 276.310518 115.917301 276.310518 105.311834 
Q 276.310518 94.582715 279.059454 88.42869 
Q 281.812356 82.274666 286.600186 82.274666 
Q 288.44471 82.274666 290.134532 83.111689 
Q 291.828321 83.939201 293.327741 85.575201 
L 293.327741 94.753924 
Q 291.780721 92.651854 290.249567 91.615086 
Q 288.718414 90.568807 287.179327 90.568807 
Q 284.331223 90.568807 282.788169 94.392482 
Q 281.245116 98.206646 281.245116 105.311834 
Q 281.245116 112.35044 282.732635 116.193138 
Q 284.220155 120.026325 286.957191 120.026325 
Q 287.702934 120.026325 288.341576 119.807558 
Q 288.980217 119.579279 289.487957 119.103697 
L 289.487957 110.48616 
L 286.572419 110.48616 
L 286.572419 102.810275 
L 294.010017 102.810275 
L 294.010017 124.154373 
z
" clip-path="url(#p8de0ce0041)" style="fill: #ffa600"/>
   </g>
   <g id="patch_35">
    <path d="M 312.641068 174.822964 
Q 310.856045 175.077061 308.936153 175.20469 
Q 307.016261 175.331158 304.969434 175.331158 
Q 300.34424 175.331158 297.642905 174.574668 
Q 294.941569 173.818178 294.941569 172.524487 
Q 294.941569 171.215713 297.690505 170.465025 
Q 300.443408 169.714336 305.231238 169.714336 
Q 307.075762 169.714336 308.765584 169.816439 
Q 310.459373 169.917381 311.958793 170.116946 
L 311.958793 171.236598 
Q 310.411772 170.98018 308.880619 170.853712 
Q 307.349466 170.726083 305.810379 170.726083 
Q 302.962275 170.726083 301.419221 171.192508 
Q 299.876167 171.657773 299.876167 172.524487 
Q 299.876167 173.383081 301.363687 173.851826 
Q 302.851207 174.319411 305.588242 174.319411 
Q 306.333986 174.319411 306.972627 174.292725 
Q 307.611269 174.264879 308.119009 174.206866 
L 308.119009 173.155669 
L 305.203471 173.155669 
L 305.203471 172.219339 
L 312.641068 172.219339 
L 312.641068 174.822964 
z
" clip-path="url(#p8de0ce0041)" style="fill: #ffa600"/>
   </g>
   <g id="patch_36">
    <path d="M 294.941569 160.396516 
L 312.641068 160.396516 
L 312.641068 162.21375 
L 306.273365 162.21375 
L 306.273365 169.714336 
L 301.321621 169.714336 
L 301.321621 162.21375 
L 294.941569 162.21375 
L 294.941569 160.396516 
z
" clip-path="url(#p8de0ce0041)" style="fill: #ff0000"/>
   </g>
   <g id="patch_37">
    <path d="M 307.202028 158.470829 
L 300.395085 158.470829 
L 299.320305 160.396516 
L 294.941569 160.396516 
L 301.194837 149.825626 
L 306.3878 149.825626 
L 312.641068 160.396516 
L 308.265952 160.396516 
L 307.202028 158.470829 
z
M 301.480722 156.508893 
L 306.105535 156.508893 
L 303.796747 152.304099 
L 301.480722 156.508893 
z
" clip-path="url(#p8de0ce0041)" style="fill: #008000"/>
   </g>
   <g id="patch_38">
    <path d="M 312.641068 145.23954 
Q 311.160536 147.512758 309.559599 148.662584 
Q 307.958661 149.825626 306.215022 149.825626 
Q 301.01532 149.825626 297.978445 141.208542 
Q 294.941569 132.591459 294.941569 117.855188 
Q 294.941569 103.066052 297.978445 94.462185 
Q 301.01532 85.845102 306.215022 85.845102 
Q 307.958661 85.845102 309.559599 87.008144 
Q 311.160536 88.157969 312.641068 90.431188 
L 312.641068 103.185 
Q 311.147158 100.171664 309.697841 98.770727 
Q 308.248525 97.36979 306.647587 97.36979 
Q 303.775711 97.36979 302.130179 102.828158 
Q 300.489107 108.273309 300.489107 117.855188 
Q 300.489107 127.397419 302.130179 132.855786 
Q 303.775711 138.300937 306.647587 138.300937 
Q 308.248525 138.300937 309.697841 136.9 
Q 311.147158 135.485847 312.641068 132.472511 
L 312.641068 145.23954 
z
" clip-path="url(#p8de0ce0041)" style="fill: #0000ff"/>
   </g>
   <g id="patch_39">
    <path d="M 325.83308 174.218532 
L 319.026137 174.218532 
L 317.951356 175.331158 
L 313.572621 175.331158 
L 319.825889 169.223496 
L 325.018852 169.223496 
L 331.27212 175.331158 
L 326.897004 175.331158 
L 325.83308 174.218532 
z
M 320.111774 173.084963 
L 324.736586 173.084963 
L 322.427799 170.655511 
L 320.111774 173.084963 
z
" clip-path="url(#p8de0ce0041)" style="fill: #008000"/>
   </g>
   <g id="patch_40">
    <path d="M 331.27212 168.486215 
Q 329.791588 168.851668 328.19065 169.036519 
Q 326.589713 169.223496 324.846074 169.223496 
Q 319.646372 169.223496 316.609497 167.838173 
Q 313.572621 166.45285 313.572621 164.083777 
Q 313.572621 161.706206 316.609497 160.323008 
Q 319.646372 158.937685 324.846074 158.937685 
Q 326.589713 158.937685 328.19065 159.124661 
Q 329.791588 159.309512 331.27212 159.674965 
L 331.27212 161.725329 
Q 329.778209 161.24089 328.328893 161.015669 
Q 326.879576 160.790448 325.278639 160.790448 
Q 322.406763 160.790448 320.761231 161.667961 
Q 319.120159 162.543349 319.120159 164.083777 
Q 319.120159 165.617831 320.761231 166.495344 
Q 322.406763 167.370732 325.278639 167.370732 
Q 326.879576 167.370732 328.328893 167.145511 
Q 329.778209 166.918165 331.27212 166.433727 
L 331.27212 168.486215 
z
" clip-path="url(#p8de0ce0041)" style="fill: #0000ff"/>
   </g>
   <g id="patch_41">
    <path d="M 313.572621 144.444652 
L 331.27212 144.444652 
L 331.27212 147.271197 
L 324.904417 147.271197 
L 324.904417 158.937685 
L 319.952673 158.937685 
L 319.952673 147.271197 
L 313.572621 147.271197 
L 313.572621 144.444652 
z
" clip-path="url(#p8de0ce0041)" style="fill: #ff0000"/>
   </g>
   <g id="patch_42">
    <path d="M 331.27212 139.287201 
Q 329.487097 141.865926 327.567205 143.161176 
Q 325.647313 144.444652 323.600486 144.444652 
Q 318.975292 144.444652 316.273957 136.76735 
Q 313.572621 129.090049 313.572621 115.960921 
Q 313.572621 102.678719 316.321557 95.060292 
Q 319.07446 87.441866 323.86229 87.441866 
Q 325.706814 87.441866 327.396636 88.478066 
Q 329.090425 89.502491 330.589845 91.527792 
L 330.589845 102.890669 
Q 329.042824 100.288393 327.511671 99.004918 
Q 325.980517 97.709668 324.44143 97.709668 
Q 321.593326 97.709668 320.050273 102.443219 
Q 318.507219 107.164995 318.507219 115.960921 
Q 318.507219 124.674423 319.994739 129.431524 
Q 321.482258 134.17685 324.219294 134.17685 
Q 324.965037 134.17685 325.603679 133.906025 
Q 326.242321 133.623425 326.750061 133.034675 
L 326.750061 122.366523 
L 323.834523 122.366523 
L 323.834523 112.864096 
L 331.27212 112.864096 
L 331.27212 139.287201 
z
" clip-path="url(#p8de0ce0041)" style="fill: #ffa600"/>
   </g>
   <g id="patch_43">
    <path d="M 349.903172 175.023743 
Q 348.118149 175.177451 346.198257 175.254656 
Q 344.278365 175.331158 342.231538 175.331158 
Q 337.606344 175.331158 334.905008 174.873545 
Q 332.203673 174.415932 332.203673 173.633357 
Q 332.203673 172.841658 334.952609 172.387555 
Q 337.705512 171.933451 342.493341 171.933451 
Q 344.337866 171.933451 346.027688 171.995214 
Q 347.721477 172.056276 349.220896 172.176996 
L 349.220896 172.854292 
Q 347.673876 172.699181 346.142723 172.622678 
Q 344.611569 172.545473 343.072482 172.545473 
Q 340.224378 172.545473 338.681325 172.827621 
Q 337.138271 173.109067 337.138271 173.633357 
Q 337.138271 174.152734 338.62579 174.436286 
Q 340.11331 174.719136 342.850346 174.719136 
Q 343.596089 174.719136 344.234731 174.702993 
Q 344.873373 174.686148 345.381113 174.651055 
L 345.381113 174.01517 
L 342.465574 174.01517 
L 342.465574 173.448768 
L 349.903172 173.448768 
L 349.903172 175.023743 
z
" clip-path="url(#p8de0ce0041)" style="fill: #ffa600"/>
   </g>
   <g id="patch_44">
    <path d="M 344.464131 171.004126 
L 337.657188 171.004126 
L 336.582408 171.933451 
L 332.203673 171.933451 
L 338.456941 166.832003 
L 343.649904 166.832003 
L 349.903172 171.933451 
L 345.528056 171.933451 
L 344.464131 171.004126 
z
M 338.742825 170.057307 
L 343.367638 170.057307 
L 341.058851 168.028099 
L 338.742825 170.057307 
z
" clip-path="url(#p8de0ce0041)" style="fill: #008000"/>
   </g>
   <g id="patch_45">
    <path d="M 332.203673 158.965126 
L 349.903172 158.965126 
L 349.903172 160.499386 
L 343.535468 160.499386 
L 343.535468 166.832003 
L 338.583725 166.832003 
L 338.583725 160.499386 
L 332.203673 160.499386 
L 332.203673 158.965126 
z
" clip-path="url(#p8de0ce0041)" style="fill: #ff0000"/>
   </g>
   <g id="patch_46">
    <path d="M 349.903172 152.154972 
Q 348.422639 155.530611 346.821702 157.238056 
Q 345.220765 158.965126 343.477126 158.965126 
Q 338.277424 158.965126 335.240548 146.169102 
Q 332.203673 133.373078 332.203673 111.490306 
Q 332.203673 89.529031 335.240548 76.752632 
Q 338.277424 63.956608 343.477126 63.956608 
Q 345.220765 63.956608 346.821702 65.683679 
Q 348.422639 67.391124 349.903172 70.766762 
L 349.903172 89.705663 
Q 348.409261 85.23098 346.959945 83.150645 
Q 345.510628 81.070309 343.909691 81.070309 
Q 341.037814 81.070309 339.392283 89.175766 
Q 337.75121 97.261598 337.75121 111.490306 
Q 337.75121 125.660137 339.392283 133.765594 
Q 341.037814 141.851425 343.909691 141.851425 
Q 345.510628 141.851425 346.959945 139.77109 
Q 348.409261 137.671129 349.903172 133.196445 
L 349.903172 152.154972 
z
" clip-path="url(#p8de0ce0041)" style="fill: #0000ff"/>
   </g>
   <g id="patch_47">
    <path d="M 363.095183 175.157193 
L 356.28824 175.157193 
L 355.21346 175.331158 
L 350.834725 175.331158 
L 357.087993 174.376193 
L 362.280956 174.376193 
L 368.534224 175.331158 
L 364.159107 175.331158 
L 363.095183 175.157193 
z
M 357.373877 174.979954 
L 361.99869 174.979954 
L 359.689902 174.600096 
L 357.373877 174.979954 
z
" clip-path="url(#p8de0ce0041)" style="fill: #008000"/>
   </g>
   <g id="patch_48">
    <path d="M 368.534224 174.037064 
Q 367.053691 174.205162 365.452754 174.290189 
Q 363.851817 174.376193 362.108177 174.376193 
Q 356.908476 174.376193 353.8716 173.738982 
Q 350.834725 173.101771 350.834725 172.012063 
Q 350.834725 170.918445 353.8716 170.282211 
Q 356.908476 169.645 362.108177 169.645 
Q 363.851817 169.645 365.452754 169.731004 
Q 367.053691 169.816031 368.534224 169.98413 
L 368.534224 170.927241 
Q 367.040313 170.704412 365.590996 170.600817 
Q 364.14168 170.497221 362.540743 170.497221 
Q 359.668866 170.497221 358.023334 170.900853 
Q 356.382262 171.303508 356.382262 172.012063 
Q 356.382262 172.717686 358.023334 173.121318 
Q 359.668866 173.523972 362.540743 173.523972 
Q 364.14168 173.523972 365.590996 173.420377 
Q 367.040313 173.315804 368.534224 173.092975 
L 368.534224 174.037064 
z
" clip-path="url(#p8de0ce0041)" style="fill: #0000ff"/>
   </g>
   <g id="patch_49">
    <path d="M 350.834725 160.926537 
L 368.534224 160.926537 
L 368.534224 162.62688 
L 362.16652 162.62688 
L 362.16652 169.645 
L 357.214777 169.645 
L 357.214777 162.62688 
L 350.834725 162.62688 
L 350.834725 160.926537 
z
" clip-path="url(#p8de0ce0041)" style="fill: #ff0000"/>
   </g>
   <g id="patch_50">
    <path d="M 368.534224 152.61398 
Q 366.7492 156.770258 364.829308 158.857887 
Q 362.909416 160.926537 360.86259 160.926537 
Q 356.237396 160.926537 353.53606 148.552594 
Q 350.834725 136.178652 350.834725 115.017692 
Q 350.834725 93.610012 353.583661 81.330962 
Q 356.336563 69.051912 361.124393 69.051912 
Q 362.968917 69.051912 364.658739 70.722014 
Q 366.352528 72.373139 367.851948 75.63743 
L 367.851948 93.951624 
Q 366.304928 89.757389 364.773774 87.688739 
Q 363.242621 85.601111 361.703534 85.601111 
Q 358.85543 85.601111 357.312376 93.230443 
Q 355.769323 100.840798 355.769323 115.017692 
Q 355.769323 129.061737 357.256842 136.729026 
Q 358.744362 144.377337 361.481398 144.377337 
Q 362.227141 144.377337 362.865783 143.940833 
Q 363.504424 143.485351 364.012164 142.536429 
L 364.012164 125.341963 
L 361.096626 125.341963 
L 361.096626 110.026362 
L 368.534224 110.026362 
L 368.534224 152.61398 
z
" clip-path="url(#p8de0ce0041)" style="fill: #ffa600"/>
   </g>
   <g id="patch_51">
    <path d="M 387.165275 175.316128 
Q 385.380252 175.323643 383.46036 175.327418 
Q 381.540468 175.331158 379.493641 175.331158 
Q 374.868447 175.331158 372.167112 175.308785 
Q 369.465776 175.286411 369.465776 175.24815 
Q 369.465776 175.209442 372.214712 175.18724 
Q 374.967615 175.165038 379.755445 175.165038 
Q 381.599969 175.165038 383.289791 175.168058 
Q 384.98358 175.171044 386.483 175.176946 
L 386.483 175.21006 
Q 384.93598 175.202476 383.404826 175.198736 
Q 381.873673 175.194961 380.334586 175.194961 
Q 377.486482 175.194961 375.943428 175.208756 
Q 374.400374 175.222516 374.400374 175.24815 
Q 374.400374 175.273543 375.887894 175.287407 
Q 377.375414 175.301236 380.112449 175.301236 
Q 380.858193 175.301236 381.496834 175.300446 
Q 382.135476 175.299623 382.643216 175.297907 
L 382.643216 175.266817 
L 379.727678 175.266817 
L 379.727678 175.239125 
L 387.165275 175.239125 
L 387.165275 175.316128 
z
" clip-path="url(#p8de0ce0041)" style="fill: #ffa600"/>
   </g>
   <g id="patch_52">
    <path d="M 381.726235 174.980619 
L 374.919292 174.980619 
L 373.844512 175.165038 
L 369.465776 175.165038 
L 375.719044 174.152682 
L 380.912007 174.152682 
L 387.165275 175.165038 
L 382.790159 175.165038 
L 381.726235 174.980619 
z
M 376.004929 174.792727 
L 380.629742 174.792727 
L 378.320954 174.390041 
L 376.004929 174.792727 
z
" clip-path="url(#p8de0ce0041)" style="fill: #008000"/>
   </g>
   <g id="patch_53">
    <path d="M 369.465776 172.653362 
L 387.165275 172.653362 
L 387.165275 172.945771 
L 380.797572 172.945771 
L 380.797572 174.152682 
L 375.845828 174.152682 
L 375.845828 172.945771 
L 369.465776 172.945771 
L 369.465776 172.653362 
z
" clip-path="url(#p8de0ce0041)" style="fill: #ff0000"/>
   </g>
   <g id="patch_54">
    <path d="M 387.165275 162.135602 
Q 385.684743 167.349016 384.083806 169.986034 
Q 382.482868 172.653362 380.739229 172.653362 
Q 375.539527 172.653362 372.502652 152.890885 
Q 369.465776 133.128408 369.465776 99.332147 
Q 369.465776 65.414644 372.502652 45.682477 
Q 375.539527 25.92 380.739229 25.92 
Q 382.482868 25.92 384.083806 28.587328 
Q 385.684743 31.224346 387.165275 36.43776 
L 387.165275 65.687439 
Q 385.671365 58.776634 384.222048 55.563716 
Q 382.772732 52.350798 381.171794 52.350798 
Q 378.299918 52.350798 376.654386 64.869054 
Q 375.013314 77.357 375.013314 99.332147 
Q 375.013314 121.216362 376.654386 133.734619 
Q 378.299918 146.222564 381.171794 146.222564 
Q 382.772732 146.222564 384.222048 143.009646 
Q 385.671365 139.766418 387.165275 132.855613 
L 387.165275 162.135602 
z
" clip-path="url(#p8de0ce0041)" style="fill: #0000ff"/>
   </g>
   <g id="patch_55">
    <path d="M 400.357287 173.824918 
L 393.550344 173.824918 
L 392.475563 175.331158 
L 388.096828 175.331158 
L 394.350096 167.062786 
L 399.543059 167.062786 
L 405.796327 175.331158 
L 401.421211 175.331158 
L 400.357287 173.824918 
z
M 394.635981 172.290325 
L 399.260793 172.290325 
L 396.952006 169.001406 
L 394.635981 172.290325 
z
" clip-path="url(#p8de0ce0041)" style="fill: #008000"/>
   </g>
   <g id="patch_56">
    <path d="M 405.796327 166.189502 
Q 404.315795 166.622369 402.714857 166.841319 
Q 401.11392 167.062786 399.370281 167.062786 
Q 394.170579 167.062786 391.133704 165.421919 
Q 388.096828 163.781051 388.096828 160.974966 
Q 388.096828 158.158815 391.133704 156.520464 
Q 394.170579 154.879596 399.370281 154.879596 
Q 401.11392 154.879596 402.714857 155.101063 
Q 404.315795 155.320013 405.796327 155.75288 
L 405.796327 158.181465 
Q 404.302416 157.607664 402.8531 157.340897 
Q 401.403783 157.074131 399.802846 157.074131 
Q 396.93097 157.074131 395.285438 158.113515 
Q 393.644366 159.150382 393.644366 160.974966 
Q 393.644366 162.792 395.285438 163.831384 
Q 396.93097 164.868252 399.802846 164.868252 
Q 401.403783 164.868252 402.8531 164.601485 
Q 404.302416 164.332201 405.796327 163.758401 
L 405.796327 166.189502 
z
" clip-path="url(#p8de0ce0041)" style="fill: #0000ff"/>
   </g>
   <g id="patch_57">
    <path d="M 388.096828 138.574105 
L 405.796327 138.574105 
L 405.796327 141.75413 
L 399.428624 141.75413 
L 399.428624 154.879596 
L 394.47688 154.879596 
L 394.47688 141.75413 
L 388.096828 141.75413 
L 388.096828 138.574105 
z
" clip-path="url(#p8de0ce0041)" style="fill: #ff0000"/>
   </g>
   <g id="patch_58">
    <path d="M 405.796327 136.120545 
Q 404.011304 137.347325 402.091412 137.963516 
Q 400.17152 138.574105 398.124693 138.574105 
Q 393.499499 138.574105 390.798164 134.921774 
Q 388.096828 131.269444 388.096828 125.023511 
Q 388.096828 118.704755 390.845764 115.080433 
Q 393.598667 111.456112 398.386497 111.456112 
Q 400.231021 111.456112 401.920843 111.949064 
Q 403.614632 112.436415 405.114052 113.399913 
L 405.114052 118.805586 
Q 403.567031 117.567603 402.035878 116.957014 
Q 400.504724 116.340824 398.965637 116.340824 
Q 396.117533 116.340824 394.57448 118.59272 
Q 393.031426 120.839016 393.031426 125.023511 
Q 393.031426 129.168794 394.518946 131.431894 
Q 396.006465 133.689393 398.743501 133.689393 
Q 399.489244 133.689393 400.127886 133.560553 
Q 400.766528 133.426111 401.274268 133.146025 
L 401.274268 128.070854 
L 398.35873 128.070854 
L 398.35873 123.550255 
L 405.796327 123.550255 
L 405.796327 136.120545 
z
" clip-path="url(#p8de0ce0041)" style="fill: #ffa600"/>
   </g>
   <g id="patch_59">
    <path d="M 406.72788 173.539885 
L 424.427379 173.539885 
L 424.427379 173.889233 
L 418.059675 173.889233 
L 418.059675 175.331158 
L 413.107932 175.331158 
L 413.107932 173.889233 
L 406.72788 173.889233 
L 406.72788 173.539885 
z
" clip-path="url(#p8de0ce0041)" style="fill: #ff0000"/>
   </g>
   <g id="patch_60">
    <path d="M 424.427379 173.233152 
Q 422.946846 173.385193 421.345909 173.462097 
Q 419.744972 173.539885 418.001333 173.539885 
Q 412.801631 173.539885 409.764755 172.963546 
Q 406.72788 172.387207 406.72788 171.401597 
Q 406.72788 170.412451 409.764755 169.836996 
Q 412.801631 169.260658 418.001333 169.260658 
Q 419.744972 169.260658 421.345909 169.338446 
Q 422.946846 169.41535 424.427379 169.56739 
L 424.427379 170.420407 
Q 422.933468 170.218865 421.484152 170.125166 
Q 420.034835 170.031467 418.433898 170.031467 
Q 415.562021 170.031467 413.91649 170.39654 
Q 412.275417 170.76073 412.275417 171.401597 
Q 412.275417 172.039813 413.91649 172.404886 
Q 415.562021 172.769076 418.433898 172.769076 
Q 420.034835 172.769076 421.484152 172.675377 
Q 422.933468 172.580793 424.427379 172.379252 
L 424.427379 173.233152 
z
" clip-path="url(#p8de0ce0041)" style="fill: #0000ff"/>
   </g>
   <g id="patch_61">
    <path d="M 424.427379 161.010536 
Q 422.642356 165.135597 420.722464 167.207545 
Q 418.802572 169.260658 416.755745 169.260658 
Q 412.130551 169.260658 409.429215 156.979655 
Q 406.72788 144.698652 406.72788 123.696631 
Q 406.72788 102.449742 409.476816 90.262919 
Q 412.229719 78.076096 417.017548 78.076096 
Q 418.862073 78.076096 420.551895 79.733655 
Q 422.245684 81.372377 423.745103 84.612151 
L 423.745103 102.788789 
Q 422.198083 98.626056 420.66693 96.572944 
Q 419.135776 94.500995 417.596689 94.500995 
Q 414.748585 94.500995 413.205532 102.073025 
Q 411.662478 109.626218 411.662478 123.696631 
Q 411.662478 137.635192 413.149997 145.244893 
Q 414.637517 152.835758 417.374553 152.835758 
Q 418.120296 152.835758 418.758938 152.402533 
Q 419.39758 151.950471 419.90532 151.008677 
L 419.90532 133.943357 
L 416.989781 133.943357 
L 416.989781 118.742791 
L 424.427379 118.742791 
L 424.427379 161.010536 
z
" clip-path="url(#p8de0ce0041)" style="fill: #ffa600"/>
   </g>
   <g id="patch_62">
    <path d="M 443.058431 175.325256 
Q 441.273407 175.328207 439.353515 175.329689 
Q 437.433623 175.331158 435.386797 175.331158 
Q 430.761603 175.331158 428.060267 175.322371 
Q 425.358932 175.313584 425.358932 175.298557 
Q 425.358932 175.283355 428.107868 175.274636 
Q 430.86077 175.265916 435.6486 175.265916 
Q 437.493124 175.265916 439.182946 175.267102 
Q 440.876735 175.268274 442.376155 175.270593 
L 442.376155 175.283598 
Q 440.829135 175.280619 439.297981 175.27915 
Q 437.766828 175.277668 436.227741 175.277668 
Q 433.379637 175.277668 431.836583 175.283086 
Q 430.29353 175.28849 430.29353 175.298557 
Q 430.29353 175.30853 431.781049 175.313975 
Q 433.268569 175.319406 436.005605 175.319406 
Q 436.751348 175.319406 437.38999 175.319096 
Q 438.028631 175.318773 438.536371 175.318099 
L 438.536371 175.305889 
L 435.620833 175.305889 
L 435.620833 175.295013 
L 443.058431 175.295013 
L 443.058431 175.325256 
z
" clip-path="url(#p8de0ce0041)" style="fill: #ffa600"/>
   </g>
   <g id="patch_63">
    <path d="M 425.358932 173.898903 
L 443.058431 173.898903 
L 443.058431 174.165509 
L 436.690727 174.165509 
L 436.690727 175.265916 
L 431.738984 175.265916 
L 431.738984 174.165509 
L 425.358932 174.165509 
L 425.358932 173.898903 
z
" clip-path="url(#p8de0ce0041)" style="fill: #ff0000"/>
   </g>
   <g id="patch_64">
    <path d="M 437.61939 173.356664 
L 430.812447 173.356664 
L 429.737667 173.898903 
L 425.358932 173.898903 
L 431.6122 170.922327 
L 436.805163 170.922327 
L 443.058431 173.898903 
L 438.683314 173.898903 
L 437.61939 173.356664 
z
M 431.898084 172.804217 
L 436.522897 172.804217 
L 434.214109 171.620221 
L 431.898084 172.804217 
z
" clip-path="url(#p8de0ce0041)" style="fill: #008000"/>
   </g>
   <g id="patch_65">
    <path d="M 443.058431 160.877379 
Q 441.577898 165.856431 439.976961 168.374905 
Q 438.376024 170.922327 436.632384 170.922327 
Q 431.432683 170.922327 428.395807 152.048246 
Q 425.358932 133.174165 425.358932 100.89717 
Q 425.358932 68.504383 428.395807 49.65925 
Q 431.432683 30.785169 436.632384 30.785169 
Q 438.376024 30.785169 439.976961 33.332591 
Q 441.577898 35.851065 443.058431 40.830117 
L 443.058431 68.764915 
Q 441.56452 62.164776 440.115203 59.09629 
Q 438.665887 56.027805 437.06495 56.027805 
Q 434.193073 56.027805 432.547541 67.98332 
Q 430.906469 79.909886 430.906469 100.89717 
Q 430.906469 121.797609 432.547541 133.753124 
Q 434.193073 145.679691 437.06495 145.679691 
Q 438.665887 145.679691 440.115203 142.611205 
Q 441.56452 139.513772 443.058431 132.913633 
L 443.058431 160.877379 
z
" clip-path="url(#p8de0ce0041)" style="fill: #0000ff"/>
   </g>
   <g id="patch_66">
    <path d="M 456.250442 173.825613 
L 449.443499 173.825613 
L 448.368719 175.331158 
L 443.989983 175.331158 
L 450.243251 167.066598 
L 455.436214 167.066598 
L 461.689482 175.331158 
L 457.314366 175.331158 
L 456.250442 173.825613 
z
M 450.529136 172.291727 
L 455.153949 172.291727 
L 452.845161 169.004324 
L 450.529136 172.291727 
z
" clip-path="url(#p8de0ce0041)" style="fill: #008000"/>
   </g>
   <g id="patch_67">
    <path d="M 461.689482 165.427352 
Q 459.904459 166.246975 457.984567 166.658658 
Q 456.064675 167.066598 454.017848 167.066598 
Q 449.392654 167.066598 446.691319 164.626443 
Q 443.989983 162.186287 443.989983 158.013323 
Q 443.989983 153.791704 446.738919 151.370262 
Q 449.491822 148.94882 454.279652 148.94882 
Q 456.124176 148.94882 457.813998 149.278166 
Q 459.507787 149.603769 461.007207 150.247491 
L 461.007207 153.859071 
Q 459.460187 153.031963 457.929033 152.624023 
Q 456.39788 152.21234 454.858793 152.21234 
Q 452.010689 152.21234 450.467635 153.716853 
Q 448.924581 155.217623 448.924581 158.013323 
Q 448.924581 160.782824 450.412101 162.294822 
Q 451.899621 163.803077 454.636656 163.803077 
Q 455.3824 163.803077 456.021041 163.716998 
Q 456.659683 163.627177 457.167423 163.440048 
L 457.167423 160.04928 
L 454.251885 160.04928 
L 454.251885 157.029027 
L 461.689482 157.029027 
L 461.689482 165.427352 
z
" clip-path="url(#p8de0ce0041)" style="fill: #ffa600"/>
   </g>
   <g id="patch_68">
    <path d="M 443.989983 128.707124 
L 461.689482 128.707124 
L 461.689482 132.654819 
L 455.321779 132.654819 
L 455.321779 148.94882 
L 450.370035 148.94882 
L 450.370035 132.654819 
L 443.989983 132.654819 
L 443.989983 128.707124 
z
" clip-path="url(#p8de0ce0041)" style="fill: #ff0000"/>
   </g>
   <g id="patch_69">
    <path d="M 461.689482 127.205458 
Q 460.20895 127.9498 458.608013 128.326298 
Q 457.007075 128.707124 455.263436 128.707124 
Q 450.063734 128.707124 447.026859 125.885549 
Q 443.989983 123.063973 443.989983 118.238733 
Q 443.989983 113.396182 447.026859 110.578934 
Q 450.063734 107.757358 455.263436 107.757358 
Q 457.007075 107.757358 458.608013 108.138184 
Q 460.20895 108.514683 461.689482 109.259025 
L 461.689482 113.43513 
Q 460.195572 112.448444 458.746255 111.989721 
Q 457.296939 111.530999 455.696001 111.530999 
Q 452.824125 111.530999 451.178593 113.318285 
Q 449.537521 115.101244 449.537521 118.238733 
Q 449.537521 121.363238 451.178593 123.150525 
Q 452.824125 124.933483 455.696001 124.933483 
Q 457.296939 124.933483 458.746255 124.474761 
Q 460.195572 124.011711 461.689482 123.025025 
L 461.689482 127.205458 
z
" clip-path="url(#p8de0ce0041)" style="fill: #0000ff"/>
   </g>
   <g id="patch_70">
    <path d="M 474.881494 175.225528 
L 468.074551 175.225528 
L 466.99977 175.331158 
L 462.621035 175.331158 
L 468.874303 174.751309 
L 474.067266 174.751309 
L 480.320534 175.331158 
L 475.945418 175.331158 
L 474.881494 175.225528 
z
M 469.160188 175.117909 
L 473.785 175.117909 
L 471.476213 174.887262 
L 469.160188 175.117909 
z
" clip-path="url(#p8de0ce0041)" style="fill: #008000"/>
   </g>
   <g id="patch_71">
    <path d="M 462.621035 171.184648 
L 480.320534 171.184648 
L 480.320534 171.880246 
L 473.952831 171.880246 
L 473.952831 174.751309 
L 469.001087 174.751309 
L 469.001087 171.880246 
L 462.621035 171.880246 
L 462.621035 171.184648 
z
" clip-path="url(#p8de0ce0041)" style="fill: #ff0000"/>
   </g>
   <g id="patch_72">
    <path d="M 480.320534 168.646823 
Q 478.535511 169.915735 476.615619 170.553089 
Q 474.695727 171.184648 472.6489 171.184648 
Q 468.023706 171.184648 465.322371 167.40688 
Q 462.621035 163.629113 462.621035 157.168667 
Q 462.621035 150.632898 465.369971 146.884101 
Q 468.122874 143.135304 472.910704 143.135304 
Q 474.755228 143.135304 476.44505 143.645187 
Q 478.138839 144.149275 479.638259 145.145864 
L 479.638259 150.737192 
Q 478.091238 149.456691 476.560085 148.825132 
Q 475.028931 148.187778 473.489844 148.187778 
Q 470.64174 148.187778 469.098687 150.517015 
Q 467.555633 152.840458 467.555633 157.168667 
Q 467.555633 161.456317 469.043153 163.797143 
Q 470.530672 166.132174 473.267708 166.132174 
Q 474.013451 166.132174 474.652093 165.998909 
Q 475.290735 165.85985 475.798475 165.570144 
L 475.798475 160.320669 
L 472.882937 160.320669 
L 472.882937 155.644813 
L 480.320534 155.644813 
L 480.320534 168.646823 
z
" clip-path="url(#p8de0ce0041)" style="fill: #ffa600"/>
   </g>
   <g id="patch_73">
    <path d="M 480.320534 138.317149 
Q 478.840002 140.705399 477.239064 141.913409 
Q 475.638127 143.135304 473.894488 143.135304 
Q 468.694786 143.135304 465.657911 134.082171 
Q 462.621035 125.029038 462.621035 109.54707 
Q 462.621035 94.009561 465.657911 84.970313 
Q 468.694786 75.91718 473.894488 75.91718 
Q 475.638127 75.91718 477.239064 77.139075 
Q 478.840002 78.347085 480.320534 80.735335 
L 480.320534 94.134527 
Q 478.826623 90.968708 477.377307 89.496879 
Q 475.92799 88.025051 474.327053 88.025051 
Q 471.455177 88.025051 469.809645 93.759627 
Q 468.168573 99.480319 468.168573 109.54707 
Q 468.168573 119.572165 469.809645 125.306741 
Q 471.455177 131.027433 474.327053 131.027433 
Q 475.92799 131.027433 477.377307 129.555604 
Q 478.826623 128.069891 480.320534 124.904071 
L 480.320534 138.317149 
z
" clip-path="url(#p8de0ce0041)" style="fill: #0000ff"/>
   </g>
   <g id="patch_74">
    <path d="M 493.512545 175.237427 
L 486.705603 175.237427 
L 485.630822 175.331158 
L 481.252087 175.331158 
L 487.505355 174.81663 
L 492.698318 174.81663 
L 498.951586 175.331158 
L 494.57647 175.331158 
L 493.512545 175.237427 
z
M 487.791239 175.141932 
L 492.416052 175.141932 
L 490.107265 174.937267 
L 487.791239 175.141932 
z
" clip-path="url(#p8de0ce0041)" style="fill: #008000"/>
   </g>
   <g id="patch_75">
    <path d="M 498.951586 174.660554 
Q 497.166563 174.738592 495.246671 174.777789 
Q 493.326779 174.81663 491.279952 174.81663 
Q 486.654758 174.81663 483.953422 174.584298 
Q 481.252087 174.351967 481.252087 173.954652 
Q 481.252087 173.552705 484.001023 173.322155 
Q 486.753926 173.091606 491.541755 173.091606 
Q 493.38628 173.091606 495.076102 173.122963 
Q 496.769891 173.153965 498.26931 173.215254 
L 498.26931 173.559119 
Q 496.72229 173.480369 495.191137 173.441528 
Q 493.659983 173.402331 492.120896 173.402331 
Q 489.272792 173.402331 487.729739 173.545578 
Q 486.186685 173.688469 486.186685 173.954652 
Q 486.186685 174.218341 487.674205 174.362301 
Q 489.161724 174.505904 491.89876 174.505904 
Q 492.644503 174.505904 493.283145 174.497709 
Q 493.921787 174.489157 494.429527 174.47134 
L 494.429527 174.148499 
L 491.513988 174.148499 
L 491.513988 173.860936 
L 498.951586 173.860936 
L 498.951586 174.660554 
z
" clip-path="url(#p8de0ce0041)" style="fill: #ffa600"/>
   </g>
   <g id="patch_76">
    <path d="M 481.252087 167.223607 
L 498.951586 167.223607 
L 498.951586 168.368031 
L 492.583882 168.368031 
L 492.583882 173.091606 
L 487.632139 173.091606 
L 487.632139 168.368031 
L 481.252087 168.368031 
L 481.252087 167.223607 
z
" clip-path="url(#p8de0ce0041)" style="fill: #ff0000"/>
   </g>
   <g id="patch_77">
    <path d="M 498.951586 160.674956 
Q 497.471053 163.920973 495.870116 165.562854 
Q 494.269179 167.223607 492.52554 167.223607 
Q 487.325838 167.223607 484.288962 154.918936 
Q 481.252087 142.614264 481.252087 121.571766 
Q 481.252087 100.45378 484.288962 88.16798 
Q 487.325838 75.863309 492.52554 75.863309 
Q 494.269179 75.863309 495.870116 77.524062 
Q 497.471053 79.165943 498.951586 82.411961 
L 498.951586 100.623629 
Q 497.457675 96.320769 496.008359 94.320316 
Q 494.559042 92.319863 492.958105 92.319863 
Q 490.086228 92.319863 488.440697 100.11408 
Q 486.799624 107.889425 486.799624 121.571766 
Q 486.799624 135.197492 488.440697 142.991708 
Q 490.086228 150.767053 492.958105 150.767053 
Q 494.559042 150.767053 496.008359 148.7666 
Q 497.457675 146.747275 498.951586 142.444415 
L 498.951586 160.674956 
z
" clip-path="url(#p8de0ce0041)" style="fill: #0000ff"/>
   </g>
   <g id="patch_78">
    <path d="M 512.143597 175.128084 
L 505.336654 175.128084 
L 504.261874 175.331158 
L 499.883139 175.331158 
L 506.136407 174.216396 
L 511.32937 174.216396 
L 517.582638 175.331158 
L 513.207521 175.331158 
L 512.143597 175.128084 
z
M 506.422291 174.921186 
L 511.047104 174.921186 
L 508.738316 174.477766 
L 506.422291 174.921186 
z
" clip-path="url(#p8de0ce0041)" style="fill: #008000"/>
   </g>
   <g id="patch_79">
    <path d="M 499.883139 161.586244 
L 517.582638 161.586244 
L 517.582638 164.049475 
L 511.214934 164.049475 
L 511.214934 174.216396 
L 506.263191 174.216396 
L 506.263191 164.049475 
L 499.883139 164.049475 
L 499.883139 161.586244 
z
" clip-path="url(#p8de0ce0041)" style="fill: #ff0000"/>
   </g>
   <g id="patch_80">
    <path d="M 517.582638 159.737693 
Q 515.797614 160.661968 513.877722 161.126216 
Q 511.957831 161.586244 509.911004 161.586244 
Q 505.28581 161.586244 502.584474 158.83452 
Q 499.883139 156.082796 499.883139 151.377011 
Q 499.883139 146.61636 502.632075 143.885738 
Q 505.384978 141.155116 510.172807 141.155116 
Q 512.017331 141.155116 513.707153 141.526515 
Q 515.400942 141.893692 516.900362 142.619607 
L 516.900362 146.692327 
Q 515.353342 145.759611 513.822188 145.299584 
Q 512.291035 144.835336 510.751948 144.835336 
Q 507.903844 144.835336 506.36079 146.531951 
Q 504.817737 148.224345 504.817737 151.377011 
Q 504.817737 154.500133 506.305256 156.205189 
Q 507.792776 157.906024 510.529812 157.906024 
Q 511.275555 157.906024 511.914197 157.808954 
Q 512.552838 157.707664 513.060578 157.496642 
L 513.060578 153.672927 
L 510.14504 153.672927 
L 510.14504 150.267036 
L 517.582638 150.267036 
L 517.582638 159.737693 
z
" clip-path="url(#p8de0ce0041)" style="fill: #ffa600"/>
   </g>
   <g id="patch_81">
    <path d="M 517.582638 139.511349 
Q 516.102105 140.326127 514.501168 140.738253 
Q 512.900231 141.155116 511.156591 141.155116 
Q 505.95689 141.155116 502.920014 138.06654 
Q 499.883139 134.977964 499.883139 129.696119 
Q 499.883139 124.395327 502.920014 121.311487 
Q 505.95689 118.222911 511.156591 118.222911 
Q 512.900231 118.222911 514.501168 118.639774 
Q 516.102105 119.0519 517.582638 119.866678 
L 517.582638 124.43796 
Q 516.088727 123.357906 514.63941 122.855775 
Q 513.190094 122.353645 511.589157 122.353645 
Q 508.71728 122.353645 507.071748 124.310059 
Q 505.430676 126.261736 505.430676 129.696119 
Q 505.430676 133.116291 507.071748 135.072705 
Q 508.71728 137.024382 511.589157 137.024382 
Q 513.190094 137.024382 514.63941 136.522252 
Q 516.088727 136.015384 517.582638 134.93533 
L 517.582638 139.511349 
z
" clip-path="url(#p8de0ce0041)" style="fill: #0000ff"/>
   </g>
   <g id="patch_82">
    <path d="M 530.774649 174.874763 
L 523.967706 174.874763 
L 522.892926 175.331158 
L 518.51419 175.331158 
L 524.767458 172.825815 
L 529.960421 172.825815 
L 536.213689 175.331158 
L 531.838573 175.331158 
L 530.774649 174.874763 
z
M 525.053343 174.409776 
L 529.678156 174.409776 
L 527.369368 173.413223 
L 525.053343 174.409776 
z
" clip-path="url(#p8de0ce0041)" style="fill: #008000"/>
   </g>
   <g id="patch_83">
    <path d="M 518.51419 168.656635 
L 536.213689 168.656635 
L 536.213689 169.469741 
L 529.845986 169.469741 
L 529.845986 172.825815 
L 524.894242 172.825815 
L 524.894242 169.469741 
L 518.51419 169.469741 
L 518.51419 168.656635 
z
" clip-path="url(#p8de0ce0041)" style="fill: #ff0000"/>
   </g>
   <g id="patch_84">
    <path d="M 536.213689 167.799655 
Q 534.733157 168.224441 533.13222 168.439303 
Q 531.531282 168.656635 529.787643 168.656635 
Q 524.587941 168.656635 521.551066 167.046402 
Q 518.51419 165.436169 518.51419 162.682474 
Q 518.51419 159.918899 521.551066 158.311136 
Q 524.587941 156.700904 529.787643 156.700904 
Q 531.531282 156.700904 533.13222 156.918236 
Q 534.733157 157.133098 536.213689 157.557883 
L 536.213689 159.941127 
Q 534.719779 159.378039 533.270462 159.116253 
Q 531.821146 158.854466 530.220208 158.854466 
Q 527.348332 158.854466 525.7028 159.874445 
Q 524.061728 160.891954 524.061728 162.682474 
Q 524.061728 164.465584 525.7028 165.485563 
Q 527.348332 166.503072 530.220208 166.503072 
Q 531.821146 166.503072 533.270462 166.241286 
Q 534.719779 165.97703 536.213689 165.413942 
L 536.213689 167.799655 
z
" clip-path="url(#p8de0ce0041)" style="fill: #0000ff"/>
   </g>
   <g id="patch_85">
    <path d="M 536.213689 154.190857 
Q 534.428666 155.44588 532.508774 156.076257 
Q 530.588882 156.700904 528.542055 156.700904 
Q 523.916861 156.700904 521.215526 152.964487 
Q 518.51419 149.22807 518.51419 142.838338 
Q 518.51419 136.374108 521.263126 132.666345 
Q 524.016029 128.958581 528.803859 128.958581 
Q 530.648383 128.958581 532.338205 129.462883 
Q 534.031994 129.961454 535.531414 130.947134 
L 535.531414 136.477261 
Q 533.984394 135.210776 532.45324 134.586129 
Q 530.922087 133.955752 529.383 133.955752 
Q 526.534896 133.955752 524.991842 136.259494 
Q 523.448788 138.557505 523.448788 142.838338 
Q 523.448788 147.079057 524.936308 149.39426 
Q 526.423828 151.703733 529.160864 151.703733 
Q 529.906607 151.703733 530.545248 151.571926 
Q 531.18389 151.43439 531.69163 151.147855 
L 531.69163 145.95584 
L 528.776092 145.95584 
L 528.776092 141.331164 
L 536.213689 141.331164 
L 536.213689 154.190857 
z
" clip-path="url(#p8de0ce0041)" style="fill: #ffa600"/>
   </g>
   <g id="patch_86">
    <path d="M 549.405701 174.500241 
L 542.598758 174.500241 
L 541.523977 175.331158 
L 537.145242 175.331158 
L 543.39851 170.76991 
L 548.591473 170.76991 
L 554.844741 175.331158 
L 550.469625 175.331158 
L 549.405701 174.500241 
z
M 543.684395 173.653683 
L 548.309208 173.653683 
L 546.00042 171.83935 
L 543.684395 173.653683 
z
" clip-path="url(#p8de0ce0041)" style="fill: #008000"/>
   </g>
   <g id="patch_87">
    <path d="M 537.145242 165.804367 
L 554.844741 165.804367 
L 554.844741 166.772786 
L 548.477038 166.772786 
L 548.477038 170.76991 
L 543.525294 170.76991 
L 543.525294 166.772786 
L 537.145242 166.772786 
L 537.145242 165.804367 
z
" clip-path="url(#p8de0ce0041)" style="fill: #ff0000"/>
   </g>
   <g id="patch_88">
    <path d="M 554.844741 162.991753 
Q 553.364209 164.385902 551.763271 165.091081 
Q 550.162334 165.804367 548.418695 165.804367 
Q 543.218993 165.804367 540.182118 160.519571 
Q 537.145242 155.234776 537.145242 146.197127 
Q 537.145242 137.127056 540.182118 131.850366 
Q 543.218993 126.565571 548.418695 126.565571 
Q 550.162334 126.565571 551.763271 127.278856 
Q 553.364209 127.984036 554.844741 129.378184 
L 554.844741 137.200006 
Q 553.35083 135.351949 551.901514 134.492764 
Q 550.452197 133.633579 548.85126 133.633579 
Q 545.979384 133.633579 544.333852 136.981157 
Q 542.69278 140.320629 542.69278 146.197127 
Q 542.69278 152.049308 544.333852 155.396886 
Q 545.979384 158.736358 548.85126 158.736358 
Q 550.452197 158.736358 551.901514 157.877173 
Q 553.35083 157.009883 554.844741 155.161826 
L 554.844741 162.991753 
z
" clip-path="url(#p8de0ce0041)" style="fill: #0000ff"/>
   </g>
   <g id="patch_89">
    <path d="M 573.475793 175.264413 
Q 571.69077 175.297786 569.770878 175.314548 
Q 567.850986 175.331158 565.804159 175.331158 
Q 561.178965 175.331158 558.477629 175.231802 
Q 555.776294 175.132445 555.776294 174.962533 
Q 555.776294 174.79064 558.52523 174.692045 
Q 561.278133 174.593451 566.065962 174.593451 
Q 567.910487 174.593451 569.600309 174.606861 
Q 571.294098 174.620118 572.793517 174.646329 
L 572.793517 174.793383 
Q 571.246497 174.759705 569.715344 174.743095 
Q 568.18419 174.726333 566.645103 174.726333 
Q 563.796999 174.726333 562.253946 174.787592 
Q 560.710892 174.8487 560.710892 174.962533 
Q 560.710892 175.0753 562.198412 175.136864 
Q 563.685931 175.198277 566.422967 175.198277 
Q 567.16871 175.198277 567.807352 175.194772 
Q 568.445994 175.191114 568.953734 175.183495 
L 568.953734 175.045432 
L 566.038195 175.045432 
L 566.038195 174.922455 
L 573.475793 174.922455 
L 573.475793 175.264413 
z
" clip-path="url(#p8de0ce0041)" style="fill: #ffa600"/>
   </g>
   <g id="patch_90">
    <path d="M 568.036752 174.150154 
L 561.22981 174.150154 
L 560.155029 174.593451 
L 555.776294 174.593451 
L 562.029562 172.160015 
L 567.222525 172.160015 
L 573.475793 174.593451 
L 569.100677 174.593451 
L 568.036752 174.150154 
z
M 562.315446 173.698514 
L 566.940259 173.698514 
L 564.631472 172.730563 
L 562.315446 173.698514 
z
" clip-path="url(#p8de0ce0041)" style="fill: #008000"/>
   </g>
   <g id="patch_91">
    <path d="M 555.776294 166.398789 
L 573.475793 166.398789 
L 573.475793 167.522388 
L 567.108089 167.522388 
L 567.108089 172.160015 
L 562.156346 172.160015 
L 562.156346 167.522388 
L 555.776294 167.522388 
L 555.776294 166.398789 
z
" clip-path="url(#p8de0ce0041)" style="fill: #ff0000"/>
   </g>
   <g id="patch_92">
    <path d="M 573.475793 163.810547 
Q 571.99526 165.09348 570.394323 165.742405 
Q 568.793386 166.398789 567.049747 166.398789 
Q 561.850045 166.398789 558.813169 161.535579 
Q 555.776294 156.67237 555.776294 148.355686 
Q 555.776294 140.009165 558.813169 135.153415 
Q 561.850045 130.290206 567.049747 130.290206 
Q 568.793386 130.290206 570.394323 130.94659 
Q 571.99526 131.595515 573.475793 132.878447 
L 573.475793 140.076296 
Q 571.981882 138.375664 570.532566 137.58502 
Q 569.083249 136.794375 567.482312 136.794375 
Q 564.610435 136.794375 562.964904 139.874905 
Q 561.323831 142.947976 561.323831 148.355686 
Q 561.323831 153.741019 562.964904 156.821548 
Q 564.610435 159.894619 567.482312 159.894619 
Q 569.083249 159.894619 570.532566 159.103975 
Q 571.981882 158.305871 573.475793 156.60524 
L 573.475793 163.810547 
z
" clip-path="url(#p8de0ce0041)" style="fill: #0000ff"/>
   </g>
   <g id="patch_93">
    <path d="M 586.667804 175.280105 
L 579.860861 175.280105 
L 578.786081 175.331158 
L 574.407346 175.331158 
L 580.660614 175.050904 
L 585.853577 175.050904 
L 592.106845 175.331158 
L 587.731728 175.331158 
L 586.667804 175.280105 
z
M 580.946498 175.22809 
L 585.571311 175.22809 
L 583.262523 175.116613 
L 580.946498 175.22809 
z
" clip-path="url(#p8de0ce0041)" style="fill: #008000"/>
   </g>
   <g id="patch_94">
    <path d="M 574.407346 171.528995 
L 592.106845 171.528995 
L 592.106845 172.215865 
L 585.739141 172.215865 
L 585.739141 175.050904 
L 580.787398 175.050904 
L 580.787398 172.215865 
L 574.407346 172.215865 
L 574.407346 171.528995 
z
" clip-path="url(#p8de0ce0041)" style="fill: #ff0000"/>
   </g>
   <g id="patch_95">
    <path d="M 592.106845 171.064965 
Q 590.321821 171.29698 588.401929 171.413517 
Q 586.482038 171.528995 584.435211 171.528995 
Q 579.810017 171.528995 577.108681 170.838246 
Q 574.407346 170.147498 574.407346 168.966234 
Q 574.407346 167.771196 577.156282 167.085745 
Q 579.909185 166.400294 584.697014 166.400294 
Q 586.541538 166.400294 588.23136 166.493524 
Q 589.925149 166.585694 591.424569 166.767916 
L 591.424569 167.790266 
Q 589.877549 167.556132 588.346395 167.440654 
Q 586.815242 167.324117 585.276155 167.324117 
Q 582.428051 167.324117 580.884997 167.750008 
Q 579.341944 168.174839 579.341944 168.966234 
Q 579.341944 169.750212 580.829463 170.178222 
Q 582.316983 170.605172 585.054019 170.605172 
Q 585.799762 170.605172 586.438404 170.580805 
Q 587.077045 170.555379 587.584785 170.502407 
L 587.584785 169.542563 
L 584.669247 169.542563 
L 584.669247 168.687603 
L 592.106845 168.687603 
L 592.106845 171.064965 
z
" clip-path="url(#p8de0ce0041)" style="fill: #ffa600"/>
   </g>
   <g id="patch_96">
    <path d="M 592.106845 164.33224 
Q 590.626312 165.357327 589.025375 165.875831 
Q 587.424438 166.400294 585.680798 166.400294 
Q 580.481097 166.400294 577.444221 162.514498 
Q 574.407346 158.628702 574.407346 151.983514 
Q 574.407346 145.314487 577.444221 141.434651 
Q 580.481097 137.548855 585.680798 137.548855 
Q 587.424438 137.548855 589.025375 138.073319 
Q 590.626312 138.591822 592.106845 139.616909 
L 592.106845 145.368126 
Q 590.612934 144.009289 589.163617 143.377549 
Q 587.714301 142.745809 586.113364 142.745809 
Q 583.241487 142.745809 581.595955 145.207211 
Q 579.954883 147.662652 579.954883 151.983514 
Q 579.954883 156.286497 581.595955 158.747898 
Q 583.241487 161.20334 586.113364 161.20334 
Q 587.714301 161.20334 589.163617 160.5716 
Q 590.612934 159.9339 592.106845 158.575064 
L 592.106845 164.33224 
z
" clip-path="url(#p8de0ce0041)" style="fill: #0000ff"/>
   </g>
   <g id="patch_97">
    <path d="M 605.298856 175.068153 
L 598.491913 175.068153 
L 597.417133 175.331158 
L 593.038397 175.331158 
L 599.291665 173.887413 
L 604.484628 173.887413 
L 610.737896 175.331158 
L 606.36278 175.331158 
L 605.298856 175.068153 
z
M 599.57755 174.800197 
L 604.202363 174.800197 
L 601.893575 174.225917 
L 599.57755 174.800197 
z
" clip-path="url(#p8de0ce0041)" style="fill: #008000"/>
   </g>
   <g id="patch_98">
    <path d="M 610.737896 173.662532 
Q 608.952873 173.774973 607.032981 173.83145 
Q 605.113089 173.887413 603.066262 173.887413 
Q 598.441068 173.887413 595.739733 173.552659 
Q 593.038397 173.217904 593.038397 172.645432 
Q 593.038397 172.066286 595.787333 171.734098 
Q 598.540236 171.401911 603.328066 171.401911 
Q 605.17259 171.401911 606.862412 171.447092 
Q 608.556201 171.49176 610.055621 171.58007 
L 610.055621 172.075527 
Q 608.508601 171.96206 606.977447 171.906096 
Q 605.446294 171.849619 603.907207 171.849619 
Q 601.059103 171.849619 599.516049 172.056017 
Q 597.972995 172.261902 597.972995 172.645432 
Q 597.972995 173.025368 599.460515 173.232793 
Q 600.948035 173.439704 603.685071 173.439704 
Q 604.430814 173.439704 605.069455 173.427896 
Q 605.708097 173.415573 606.215837 173.389902 
L 606.215837 172.924737 
L 603.300299 172.924737 
L 603.300299 172.510401 
L 610.737896 172.510401 
L 610.737896 173.662532 
z
" clip-path="url(#p8de0ce0041)" style="fill: #ffa600"/>
   </g>
   <g id="patch_99">
    <path d="M 593.038397 166.317016 
L 610.737896 166.317016 
L 610.737896 167.308712 
L 604.370193 167.308712 
L 604.370193 171.401911 
L 599.418449 171.401911 
L 599.418449 167.308712 
L 593.038397 167.308712 
L 593.038397 166.317016 
z
" clip-path="url(#p8de0ce0041)" style="fill: #ff0000"/>
   </g>
   <g id="patch_100">
    <path d="M 610.737896 163.461853 
Q 609.257364 164.877092 607.656427 165.59294 
Q 606.055489 166.317016 604.31185 166.317016 
Q 599.112148 166.317016 596.075273 160.952272 
Q 593.038397 155.587528 593.038397 146.413157 
Q 593.038397 137.205874 596.075273 131.849359 
Q 599.112148 126.484615 604.31185 126.484615 
Q 606.055489 126.484615 607.656427 127.208691 
Q 609.257364 127.924538 610.737896 129.339777 
L 610.737896 137.279928 
Q 609.243986 135.403913 607.794669 134.531731 
Q 606.345353 133.659548 604.744415 133.659548 
Q 601.872539 133.659548 600.227007 137.057768 
Q 598.585935 140.44776 598.585935 146.413157 
Q 598.585935 152.353871 600.227007 155.75209 
Q 601.872539 159.142082 604.744415 159.142082 
Q 606.345353 159.142082 607.794669 158.2699 
Q 609.243986 157.389489 610.737896 155.513475 
L 610.737896 163.461853 
z
" clip-path="url(#p8de0ce0041)" style="fill: #0000ff"/>
   </g>
   <g id="patch_101">
    <path d="M 623.929908 175.317977 
L 617.122965 175.317977 
L 616.048184 175.331158 
L 611.669449 175.331158 
L 617.922717 175.258798 
L 623.11568 175.258798 
L 629.368948 175.331158 
L 624.993832 175.331158 
L 623.929908 175.317977 
z
M 618.208602 175.304547 
L 622.833415 175.304547 
L 620.524627 175.275764 
L 618.208602 175.304547 
z
" clip-path="url(#p8de0ce0041)" style="fill: #008000"/>
   </g>
   <g id="patch_102">
    <path d="M 629.368948 174.753086 
Q 627.583925 175.005942 625.664033 175.132947 
Q 623.744141 175.258798 621.697314 175.258798 
Q 617.07212 175.258798 614.370785 174.506003 
Q 611.669449 173.753209 611.669449 172.465837 
Q 611.669449 171.163456 614.418385 170.416435 
Q 617.171288 169.669413 621.959118 169.669413 
Q 623.803642 169.669413 625.493464 169.771017 
Q 627.187253 169.871467 628.686673 170.070057 
L 628.686673 171.184239 
Q 627.139652 170.929074 625.608499 170.803223 
Q 624.077345 170.676218 622.538259 170.676218 
Q 619.690154 170.676218 618.147101 171.140364 
Q 616.604047 171.603356 616.604047 172.465837 
Q 616.604047 173.320236 618.091567 173.786692 
Q 619.579086 174.251993 622.316122 174.251993 
Q 623.061865 174.251993 623.700507 174.225437 
Q 624.339149 174.197727 624.846889 174.139997 
L 624.846889 173.093936 
L 621.931351 173.093936 
L 621.931351 172.162179 
L 629.368948 172.162179 
L 629.368948 174.753086 
z
" clip-path="url(#p8de0ce0041)" style="fill: #ffa600"/>
   </g>
   <g id="patch_103">
    <path d="M 611.669449 162.492088 
L 629.368948 162.492088 
L 629.368948 163.891867 
L 623.001245 163.891867 
L 623.001245 169.669413 
L 618.049501 169.669413 
L 618.049501 163.891867 
L 611.669449 163.891867 
L 611.669449 162.492088 
z
" clip-path="url(#p8de0ce0041)" style="fill: #ff0000"/>
   </g>
   <g id="patch_104">
    <path d="M 629.368948 160.665433 
Q 627.888416 161.570864 626.287478 162.028844 
Q 624.686541 162.492088 622.942902 162.492088 
Q 617.7432 162.492088 614.706325 159.059872 
Q 611.669449 155.627655 611.669449 149.758144 
Q 611.669449 143.867576 614.706325 140.440623 
Q 617.7432 137.008407 622.942902 137.008407 
Q 624.686541 137.008407 626.287478 137.471651 
Q 627.888416 137.929631 629.368948 138.835062 
L 629.368948 143.914953 
Q 627.875037 142.71473 626.425721 142.156732 
Q 624.976404 141.598733 623.375467 141.598733 
Q 620.503591 141.598733 618.858059 143.772821 
Q 617.216987 145.941645 617.216987 149.758144 
Q 617.216987 153.55885 618.858059 155.732938 
Q 620.503591 157.901762 623.375467 157.901762 
Q 624.976404 157.901762 626.425721 157.343763 
Q 627.875037 156.780501 629.368948 155.580278 
L 629.368948 160.665433 
z
" clip-path="url(#p8de0ce0041)" style="fill: #0000ff"/>
   </g>
   <g id="patch_105">
    <path d="M 648 175.032798 
Q 646.214977 175.181978 644.295085 175.256909 
Q 642.375193 175.331158 640.328366 175.331158 
Q 635.703172 175.331158 633.001836 174.887024 
Q 630.300501 174.44289 630.300501 173.683366 
Q 630.300501 172.914986 633.049437 172.474258 
Q 635.80234 172.033529 640.590169 172.033529 
Q 642.434694 172.033529 644.124516 172.093474 
Q 645.818305 172.152737 647.317724 172.269902 
L 647.317724 172.927248 
Q 645.770704 172.776705 644.239551 172.702456 
Q 642.708397 172.627525 641.16931 172.627525 
Q 638.321206 172.627525 636.778153 172.901362 
Q 635.235099 173.174519 635.235099 173.683366 
Q 635.235099 174.187445 636.722619 174.462644 
Q 638.210138 174.737163 640.947174 174.737163 
Q 641.692917 174.737163 642.331559 174.721496 
Q 642.970201 174.705147 643.477941 174.671088 
L 643.477941 174.053932 
L 640.562402 174.053932 
L 640.562402 173.504213 
L 648 173.504213 
L 648 175.032798 
z
" clip-path="url(#p8de0ce0041)" style="fill: #ffa600"/>
   </g>
   <g id="patch_106">
    <path d="M 630.300501 166.769799 
L 648 166.769799 
L 648 167.796373 
L 641.632296 167.796373 
L 641.632296 172.033529 
L 636.680553 172.033529 
L 636.680553 167.796373 
L 630.300501 167.796373 
L 630.300501 166.769799 
z
" clip-path="url(#p8de0ce0041)" style="fill: #ff0000"/>
   </g>
   <g id="patch_107">
    <path d="M 648 164.208949 
Q 646.519467 165.478304 644.91853 166.120362 
Q 643.317593 166.769799 641.573954 166.769799 
Q 636.374252 166.769799 633.337376 161.958058 
Q 630.300501 157.146317 630.300501 148.917649 
Q 630.300501 140.659462 633.337376 135.855101 
Q 636.374252 131.04336 641.573954 131.04336 
Q 643.317593 131.04336 644.91853 131.692797 
Q 646.519467 132.334854 648 133.604209 
L 648 140.725881 
Q 646.506089 139.043248 645.056773 138.260971 
Q 643.607456 137.478694 642.006519 137.478694 
Q 639.134642 137.478694 637.489111 140.526622 
Q 635.848038 143.56717 635.848038 148.917649 
Q 635.848038 154.245988 637.489111 157.293916 
Q 639.134642 160.334464 642.006519 160.334464 
Q 643.607456 160.334464 645.056773 159.552187 
Q 646.506089 158.762531 648 157.079897 
L 648 164.208949 
z
" clip-path="url(#p8de0ce0041)" style="fill: #0000ff"/>
   </g>
   <g id="patch_108">
    <path d="M 126.330551 176.849594 
Q 124.545527 176.090376 122.625636 175.709034 
Q 120.705744 175.331158 118.658917 175.331158 
Q 114.033723 175.331158 111.332387 177.591478 
Q 108.631052 179.851797 108.631052 183.71722 
Q 108.631052 187.62771 111.379988 189.870696 
Q 114.132891 192.113681 118.92072 192.113681 
Q 120.765244 192.113681 122.455067 191.808607 
Q 124.148856 191.507 125.648275 190.91072 
L 125.648275 187.565309 
Q 124.101255 188.33146 122.570102 188.709336 
Q 121.038948 189.090678 119.499861 189.090678 
Q 116.651757 189.090678 115.108704 187.697045 
Q 113.56565 186.30688 113.56565 183.71722 
Q 113.56565 181.151827 115.053169 179.751261 
Q 116.540689 178.354162 119.277725 178.354162 
Q 120.023468 178.354162 120.66211 178.433897 
Q 121.300752 178.517099 121.808492 178.690436 
L 121.808492 181.831309 
L 118.892953 181.831309 
L 118.892953 184.628974 
L 126.330551 184.628974 
L 126.330551 176.849594 
z
" clip-path="url(#p8de0ce0041)" style="fill: #ffa600"/>
   </g>
   <g id="patch_109">
    <path d="M 139.522562 175.336292 
L 132.715619 175.336292 
L 131.640839 175.331158 
L 127.262104 175.331158 
L 133.515372 175.359337 
L 138.708335 175.359337 
L 144.961603 175.331158 
L 140.586486 175.331158 
L 139.522562 175.336292 
z
M 133.801256 175.341521 
L 138.426069 175.341521 
L 136.117281 175.35273 
L 133.801256 175.341521 
z
" clip-path="url(#p8de0ce0041)" style="fill: #008000"/>
   </g>
   <g id="patch_110">
    <path d="M 144.961603 176.326746 
Q 143.176579 175.843042 141.256687 175.600085 
Q 139.336795 175.359337 137.289969 175.359337 
Q 132.664774 175.359337 129.963439 176.799408 
Q 127.262104 178.239479 127.262104 180.702177 
Q 127.262104 183.193588 130.01104 184.622616 
Q 132.763942 186.051643 137.551772 186.051643 
Q 139.396296 186.051643 141.086118 185.857278 
Q 142.779907 185.665121 144.279327 185.285225 
L 144.279327 183.153832 
Q 142.732307 183.641954 141.201153 183.882702 
Q 139.67 184.125659 138.130913 184.125659 
Q 135.282809 184.125659 133.739755 183.237762 
Q 132.196702 182.352074 132.196702 180.702177 
Q 132.196702 179.06774 133.684221 178.175427 
Q 135.171741 177.285321 137.908777 177.285321 
Q 138.65452 177.285321 139.293162 177.336121 
Q 139.931803 177.38913 140.439543 177.499565 
L 140.439543 179.500645 
L 137.524005 179.500645 
L 137.524005 181.283064 
L 144.961603 181.283064 
L 144.961603 176.326746 
z
" clip-path="url(#p8de0ce0041)" style="fill: #ffa600"/>
   </g>
   <g id="patch_111">
    <path d="M 163.592654 178.206931 
Q 161.807631 176.769045 159.887739 176.046819 
Q 157.967847 175.331158 155.92102 175.331158 
Q 151.295826 175.331158 148.594491 179.611988 
Q 145.893155 183.892818 145.893155 191.213562 
Q 145.893155 198.61966 148.642091 202.867661 
Q 151.394994 207.115662 156.182824 207.115662 
Q 158.027348 207.115662 159.71717 206.537881 
Q 161.410959 205.966666 162.910379 204.837368 
L 162.910379 198.501477 
Q 161.363358 199.952495 159.832205 200.668155 
Q 158.301052 201.390381 156.761965 201.390381 
Q 153.913861 201.390381 152.370807 198.750974 
Q 150.827753 196.118132 150.827753 191.213562 
Q 150.827753 186.354951 152.315273 183.702413 
Q 153.802792 181.05644 156.539828 181.05644 
Q 157.285572 181.05644 157.924213 181.207451 
Q 158.562855 181.365027 159.070595 181.693312 
L 159.070595 187.641827 
L 156.155057 187.641827 
L 156.155057 192.940338 
L 163.592654 192.940338 
L 163.592654 178.206931 
z
" clip-path="url(#p8de0ce0041)" style="fill: #ffa600"/>
   </g>
   <g id="patch_112">
    <path d="M 176.784666 176.202557 
L 169.977723 176.202557 
L 168.902942 175.331158 
L 164.524207 175.331158 
L 170.777475 180.114625 
L 175.970438 180.114625 
L 182.223706 175.331158 
L 177.84859 175.331158 
L 176.784666 176.202557 
z
M 171.06336 177.090359 
L 175.688172 177.090359 
L 173.379385 178.993083 
L 171.06336 177.090359 
z
" clip-path="url(#p8de0ce0041)" style="fill: #008000"/>
   </g>
   <g id="patch_113">
    <path d="M 182.223706 182.955737 
Q 180.438683 181.535181 178.518791 180.821659 
Q 176.598899 180.114625 174.552072 180.114625 
Q 169.926878 180.114625 167.225542 184.34386 
Q 164.524207 188.573096 164.524207 195.805608 
Q 164.524207 203.122445 167.273143 207.319248 
Q 170.026046 211.51605 174.813876 211.51605 
Q 176.6584 211.51605 178.348222 210.945233 
Q 180.042011 210.380903 181.541431 209.265215 
L 181.541431 203.005687 
Q 179.99441 204.439216 178.463257 205.146251 
Q 176.932103 205.859772 175.393016 205.859772 
Q 172.544912 205.859772 171.001859 203.252176 
Q 169.458805 200.651066 169.458805 195.805608 
Q 169.458805 191.005555 170.946325 188.384986 
Q 172.433844 185.770903 175.17088 185.770903 
Q 175.916623 185.770903 176.555265 185.920094 
Q 177.193907 186.075771 177.701647 186.400099 
L 177.701647 192.27692 
L 174.786108 192.27692 
L 174.786108 197.511572 
L 182.223706 197.511572 
L 182.223706 182.955737 
z
" clip-path="url(#p8de0ce0041)" style="fill: #ffa600"/>
   </g>
   <g id="patch_114">
    <path d="M 195.415717 176.154669 
L 188.608774 176.154669 
L 187.533994 175.331158 
L 183.155259 175.331158 
L 189.408527 179.85175 
L 194.60149 179.85175 
L 200.854758 175.331158 
L 196.479641 175.331158 
L 195.415717 176.154669 
z
M 189.694411 176.993682 
L 194.319224 176.993682 
L 192.010437 178.791842 
L 189.694411 176.993682 
z
" clip-path="url(#p8de0ce0041)" style="fill: #008000"/>
   </g>
   <g id="patch_115">
    <path d="M 200.854758 182.791015 
Q 199.069734 181.321382 197.149843 180.58321 
Q 195.229951 179.85175 193.183124 179.85175 
Q 188.55793 179.85175 185.856594 184.227094 
Q 183.155259 188.602438 183.155259 196.084814 
Q 183.155259 203.654428 185.904195 207.996219 
Q 188.657098 212.33801 193.444927 212.33801 
Q 195.289451 212.33801 196.979274 211.747472 
Q 198.673063 211.163646 200.172482 210.009414 
L 200.172482 203.533636 
Q 198.625462 205.01669 197.094309 205.748151 
Q 195.563155 206.486322 194.024068 206.486322 
Q 191.175964 206.486322 189.632911 203.788641 
Q 188.089857 201.09767 188.089857 196.084814 
Q 188.089857 191.118932 189.577376 188.407829 
Q 191.064896 185.703437 193.801932 185.703437 
Q 194.547675 185.703437 195.186317 185.857782 
Q 195.824959 186.018837 196.332699 186.35437 
L 196.332699 192.43422 
L 193.41716 192.43422 
L 193.41716 197.849715 
L 200.854758 197.849715 
L 200.854758 182.791015 
z
" clip-path="url(#p8de0ce0041)" style="fill: #ffa600"/>
   </g>
   <g id="patch_116">
    <path d="M 214.046769 175.424982 
L 207.239826 175.424982 
L 206.165046 175.331158 
L 201.786311 175.331158 
L 208.039579 175.846195 
L 213.232542 175.846195 
L 219.48581 175.331158 
L 215.110693 175.331158 
L 214.046769 175.424982 
z
M 208.325463 175.520572 
L 212.950276 175.520572 
L 210.641488 175.725439 
L 208.325463 175.520572 
z
" clip-path="url(#p8de0ce0041)" style="fill: #008000"/>
   </g>
   <g id="patch_117">
    <path d="M 219.48581 178.381585 
Q 217.700786 177.11389 215.780894 176.477148 
Q 213.861002 175.846195 211.814176 175.846195 
Q 207.188981 175.846195 204.487646 179.620337 
Q 201.786311 183.39448 201.786311 189.848726 
Q 201.786311 196.378223 204.535247 200.123423 
Q 207.288149 203.868622 212.075979 203.868622 
Q 213.920503 203.868622 215.610325 203.359229 
Q 217.304114 202.855624 218.803534 201.859991 
L 218.803534 196.274029 
Q 217.256514 197.553301 215.72536 198.184255 
Q 214.194207 198.820996 212.65512 198.820996 
Q 209.807016 198.820996 208.263962 196.493995 
Q 206.720909 194.172781 206.720909 189.848726 
Q 206.720909 185.56519 208.208428 183.226611 
Q 209.695948 180.893821 212.432984 180.893821 
Q 213.178727 180.893821 213.817369 181.026958 
Q 214.45601 181.165883 214.96375 181.455311 
L 214.96375 186.699748 
L 212.048212 186.699748 
L 212.048212 191.371118 
L 219.48581 191.371118 
L 219.48581 178.381585 
z
" clip-path="url(#p8de0ce0041)" style="fill: #ffa600"/>
   </g>
   <g id="patch_118">
    <path d="M 232.677821 175.548959 
L 225.870878 175.548959 
L 224.796097 175.331158 
L 220.417362 175.331158 
L 226.67063 176.526753 
L 231.863593 176.526753 
L 238.116861 175.331158 
L 233.741745 175.331158 
L 232.677821 175.548959 
z
M 226.956515 175.770859 
L 231.581328 175.770859 
L 229.27254 176.246432 
L 226.956515 175.770859 
z
" clip-path="url(#p8de0ce0041)" style="fill: #008000"/>
   </g>
   <g id="patch_119">
    <path d="M 238.116861 176.643651 
Q 236.331838 176.585202 234.411946 176.555844 
Q 232.492054 176.526753 230.445227 176.526753 
Q 225.820033 176.526753 223.118698 176.700765 
Q 220.417362 176.874777 220.417362 177.172359 
Q 220.417362 177.473411 223.166298 177.646088 
Q 225.919201 177.818766 230.707031 177.818766 
Q 232.551555 177.818766 234.241377 177.795279 
Q 235.935166 177.77206 237.434586 177.726155 
L 237.434586 177.468607 
Q 235.887565 177.527589 234.356412 177.55668 
Q 232.825259 177.586038 231.286172 177.586038 
Q 228.438068 177.586038 226.895014 177.478748 
Q 225.35196 177.371726 225.35196 177.172359 
Q 225.35196 176.974861 226.83948 176.867037 
Q 228.327 176.759481 231.064035 176.759481 
Q 231.809779 176.759481 232.44842 176.765619 
Q 233.087062 176.772025 233.594802 176.785369 
L 233.594802 177.027171 
L 230.679264 177.027171 
L 230.679264 177.242551 
L 238.116861 177.242551 
L 238.116861 176.643651 
z
" clip-path="url(#p8de0ce0041)" style="fill: #ffa600"/>
   </g>
   <g id="patch_120">
    <path d="M 418.988338 175.626498 
L 412.181395 175.626498 
L 411.106615 175.331158 
L 406.72788 175.331158 
L 412.981148 176.952401 
L 418.174111 176.952401 
L 424.427379 175.331158 
L 420.052263 175.331158 
L 418.988338 175.626498 
z
M 413.267032 175.927398 
L 417.891845 175.927398 
L 415.583058 176.572281 
L 413.267032 175.927398 
z
" clip-path="url(#p8de0ce0041)" style="fill: #008000"/>
   </g>
   <g id="patch_121">
    <path d="M 554.844741 175.412189 
Q 553.059718 175.371674 551.139826 175.351324 
Q 549.219934 175.331158 547.173107 175.331158 
Q 542.547913 175.331158 539.846578 175.45178 
Q 537.145242 175.572401 537.145242 175.778678 
Q 537.145242 175.987361 539.894178 176.107057 
Q 542.647081 176.226753 547.434911 176.226753 
Q 549.279435 176.226753 550.969257 176.210473 
Q 552.663046 176.194378 554.162466 176.162557 
L 554.162466 175.98403 
Q 552.615445 176.024916 551.084292 176.045081 
Q 549.553138 176.065431 548.014052 176.065431 
Q 545.165947 176.065431 543.622894 175.991061 
Q 542.07984 175.916875 542.07984 175.778678 
Q 542.07984 175.641777 543.56736 175.567036 
Q 545.054879 175.49248 547.791915 175.49248 
Q 548.537658 175.49248 549.1763 175.496735 
Q 549.814942 175.501175 550.322682 175.510425 
L 550.322682 175.678037 
L 547.407144 175.678037 
L 547.407144 175.827334 
L 554.844741 175.827334 
L 554.844741 175.412189 
z
" clip-path="url(#p8de0ce0041)" style="fill: #ffa600"/>
   </g>
   <g id="patch_122">
    <path d="M 642.560959 175.35416 
L 635.754017 175.35416 
L 634.679236 175.331158 
L 630.300501 175.331158 
L 636.553769 175.457424 
L 641.746732 175.457424 
L 648 175.331158 
L 643.624884 175.331158 
L 642.560959 175.35416 
z
M 636.839653 175.377595 
L 641.464466 175.377595 
L 639.155679 175.42782 
L 636.839653 175.377595 
z
" clip-path="url(#p8de0ce0041)" style="fill: #008000"/>
   </g>
   <g id="matplotlib.axis_1">
    <g id="xtick_1">
     <g id="line2d_2">
      <defs>
       <path id="m9cb4ee2e05" d="M 0 0 
L 0 3.5 
" style="stroke: #000000; stroke-width: 0.8"/>
      </defs>
      <g>
       <use xlink:href="#m9cb4ee2e05" x="98.84975" y="192.24" style="stroke: #000000; stroke-width: 0.8"/>
      </g>
     </g>
     <g id="text_1">
      <!-- 0 -->
      <g transform="translate(95.6685 206.838437) scale(0.1 -0.1)">
       <defs>
        <path id="DejaVuSans-30" d="M 2034 4250 
Q 1547 4250 1301 3770 
Q 1056 3291 1056 2328 
Q 1056 1369 1301 889 
Q 1547 409 2034 409 
Q 2525 409 2770 889 
Q 3016 1369 3016 2328 
Q 3016 3291 2770 3770 
Q 2525 4250 2034 4250 
z
M 2034 4750 
Q 2819 4750 3233 4129 
Q 3647 3509 3647 2328 
Q 3647 1150 3233 529 
Q 2819 -91 2034 -91 
Q 1250 -91 836 529 
Q 422 1150 422 2328 
Q 422 3509 836 4129 
Q 1250 4750 2034 4750 
z
" transform="scale(0.015625)"/>
       </defs>
       <use xlink:href="#DejaVuSans-30"/>
      </g>
     </g>
    </g>
    <g id="xtick_2">
     <g id="line2d_3">
      <g>
       <use xlink:href="#m9cb4ee2e05" x="192.005008" y="192.24" style="stroke: #000000; stroke-width: 0.8"/>
      </g>
     </g>
     <g id="text_2">
      <!-- 5 -->
      <g transform="translate(188.823758 206.838437) scale(0.1 -0.1)">
       <defs>
        <path id="DejaVuSans-35" d="M 691 4666 
L 3169 4666 
L 3169 4134 
L 1269 4134 
L 1269 2991 
Q 1406 3038 1543 3061 
Q 1681 3084 1819 3084 
Q 2600 3084 3056 2656 
Q 3513 2228 3513 1497 
Q 3513 744 3044 326 
Q 2575 -91 1722 -91 
Q 1428 -91 1123 -41 
Q 819 9 494 109 
L 494 744 
Q 775 591 1075 516 
Q 1375 441 1709 441 
Q 2250 441 2565 725 
Q 2881 1009 2881 1497 
Q 2881 1984 2565 2268 
Q 2250 2553 1709 2553 
Q 1456 2553 1204 2497 
Q 953 2441 691 2322 
L 691 4666 
z
" transform="scale(0.015625)"/>
       </defs>
       <use xlink:href="#DejaVuSans-35"/>
      </g>
     </g>
    </g>
    <g id="xtick_3">
     <g id="line2d_4">
      <g>
       <use xlink:href="#m9cb4ee2e05" x="285.160267" y="192.24" style="stroke: #000000; stroke-width: 0.8"/>
      </g>
     </g>
     <g id="text_3">
      <!-- 10 -->
      <g transform="translate(278.797767 206.838437) scale(0.1 -0.1)">
       <defs>
        <path id="DejaVuSans-31" d="M 794 531 
L 1825 531 
L 1825 4091 
L 703 3866 
L 703 4441 
L 1819 4666 
L 2450 4666 
L 2450 531 
L 3481 531 
L 3481 0 
L 794 0 
L 794 531 
z
" transform="scale(0.015625)"/>
       </defs>
       <use xlink:href="#DejaVuSans-31"/>
       <use xlink:href="#DejaVuSans-30" x="63.623047"/>
      </g>
     </g>
    </g>
    <g id="xtick_4">
     <g id="line2d_5">
      <g>
       <use xlink:href="#m9cb4ee2e05" x="378.315526" y="192.24" style="stroke: #000000; stroke-width: 0.8"/>
      </g>
     </g>
     <g id="text_4">
      <!-- 15 -->
      <g transform="translate(371.953026 206.838437) scale(0.1 -0.1)">
       <use xlink:href="#DejaVuSans-31"/>
       <use xlink:href="#DejaVuSans-35" x="63.623047"/>
      </g>
     </g>
    </g>
    <g id="xtick_5">
     <g id="line2d_6">
      <g>
       <use xlink:href="#m9cb4ee2e05" x="471.470785" y="192.24" style="stroke: #000000; stroke-width: 0.8"/>
      </g>
     </g>
     <g id="text_5">
      <!-- 20 -->
      <g transform="translate(465.108285 206.838437) scale(0.1 -0.1)">
       <defs>
        <path id="DejaVuSans-32" d="M 1228 531 
L 3431 531 
L 3431 0 
L 469 0 
L 469 531 
Q 828 903 1448 1529 
Q 2069 2156 2228 2338 
Q 2531 2678 2651 2914 
Q 2772 3150 2772 3378 
Q 2772 3750 2511 3984 
Q 2250 4219 1831 4219 
Q 1534 4219 1204 4116 
Q 875 4013 500 3803 
L 500 4441 
Q 881 4594 1212 4672 
Q 1544 4750 1819 4750 
Q 2544 4750 2975 4387 
Q 3406 4025 3406 3419 
Q 3406 3131 3298 2873 
Q 3191 2616 2906 2266 
Q 2828 2175 2409 1742 
Q 1991 1309 1228 531 
z
" transform="scale(0.015625)"/>
       </defs>
       <use xlink:href="#DejaVuSans-32"/>
       <use xlink:href="#DejaVuSans-30" x="63.623047"/>
      </g>
     </g>
    </g>
    <g id="xtick_6">
     <g id="line2d_7">
      <g>
       <use xlink:href="#m9cb4ee2e05" x="564.626043" y="192.24" style="stroke: #000000; stroke-width: 0.8"/>
      </g>
     </g>
     <g id="text_6">
      <!-- 25 -->
      <g transform="translate(558.263543 206.838437) scale(0.1 -0.1)">
       <use xlink:href="#DejaVuSans-32"/>
       <use xlink:href="#DejaVuSans-35" x="63.623047"/>
      </g>
     </g>
    </g>
   </g>
   <g id="matplotlib.axis_2">
    <g id="ytick_1">
     <g id="line2d_8">
      <defs>
       <path id="m7ff168c552" d="M 0 0 
L -3.5 0 
" style="stroke: #000000; stroke-width: 0.8"/>
      </defs>
      <g>
       <use xlink:href="#m7ff168c552" x="90" y="175.331158" style="stroke: #000000; stroke-width: 0.8"/>
      </g>
     </g>
     <g id="text_7">
      <!-- 0.000 -->
      <g transform="translate(54.371875 179.130377) scale(0.1 -0.1)">
       <defs>
        <path id="DejaVuSans-2e" d="M 684 794 
L 1344 794 
L 1344 0 
L 684 0 
L 684 794 
z
" transform="scale(0.015625)"/>
       </defs>
       <use xlink:href="#DejaVuSans-30"/>
       <use xlink:href="#DejaVuSans-2e" x="63.623047"/>
       <use xlink:href="#DejaVuSans-30" x="95.410156"/>
       <use xlink:href="#DejaVuSans-30" x="159.033203"/>
       <use xlink:href="#DejaVuSans-30" x="222.65625"/>
      </g>
     </g>
    </g>
    <g id="ytick_2">
     <g id="line2d_9">
      <g>
       <use xlink:href="#m7ff168c552" x="90" y="139.806257" style="stroke: #000000; stroke-width: 0.8"/>
      </g>
     </g>
     <g id="text_8">
      <!-- 0.002 -->
      <g transform="translate(54.371875 143.605475) scale(0.1 -0.1)">
       <use xlink:href="#DejaVuSans-30"/>
       <use xlink:href="#DejaVuSans-2e" x="63.623047"/>
       <use xlink:href="#DejaVuSans-30" x="95.410156"/>
       <use xlink:href="#DejaVuSans-30" x="159.033203"/>
       <use xlink:href="#DejaVuSans-32" x="222.65625"/>
      </g>
     </g>
    </g>
    <g id="ytick_3">
     <g id="line2d_10">
      <g>
       <use xlink:href="#m7ff168c552" x="90" y="104.281355" style="stroke: #000000; stroke-width: 0.8"/>
      </g>
     </g>
     <g id="text_9">
      <!-- 0.004 -->
      <g transform="translate(54.371875 108.080573) scale(0.1 -0.1)">
       <defs>
        <path id="DejaVuSans-34" d="M 2419 4116 
L 825 1625 
L 2419 1625 
L 2419 4116 
z
M 2253 4666 
L 3047 4666 
L 3047 1625 
L 3713 1625 
L 3713 1100 
L 3047 1100 
L 3047 0 
L 2419 0 
L 2419 1100 
L 313 1100 
L 313 1709 
L 2253 4666 
z
" transform="scale(0.015625)"/>
       </defs>
       <use xlink:href="#DejaVuSans-30"/>
       <use xlink:href="#DejaVuSans-2e" x="63.623047"/>
       <use xlink:href="#DejaVuSans-30" x="95.410156"/>
       <use xlink:href="#DejaVuSans-30" x="159.033203"/>
       <use xlink:href="#DejaVuSans-34" x="222.65625"/>
      </g>
     </g>
    </g>
    <g id="ytick_4">
     <g id="line2d_11">
      <g>
       <use xlink:href="#m7ff168c552" x="90" y="68.756453" style="stroke: #000000; stroke-width: 0.8"/>
      </g>
     </g>
     <g id="text_10">
      <!-- 0.006 -->
      <g transform="translate(54.371875 72.555672) scale(0.1 -0.1)">
       <defs>
        <path id="DejaVuSans-36" d="M 2113 2584 
Q 1688 2584 1439 2293 
Q 1191 2003 1191 1497 
Q 1191 994 1439 701 
Q 1688 409 2113 409 
Q 2538 409 2786 701 
Q 3034 994 3034 1497 
Q 3034 2003 2786 2293 
Q 2538 2584 2113 2584 
z
M 3366 4563 
L 3366 3988 
Q 3128 4100 2886 4159 
Q 2644 4219 2406 4219 
Q 1781 4219 1451 3797 
Q 1122 3375 1075 2522 
Q 1259 2794 1537 2939 
Q 1816 3084 2150 3084 
Q 2853 3084 3261 2657 
Q 3669 2231 3669 1497 
Q 3669 778 3244 343 
Q 2819 -91 2113 -91 
Q 1303 -91 875 529 
Q 447 1150 447 2328 
Q 447 3434 972 4092 
Q 1497 4750 2381 4750 
Q 2619 4750 2861 4703 
Q 3103 4656 3366 4563 
z
" transform="scale(0.015625)"/>
       </defs>
       <use xlink:href="#DejaVuSans-30"/>
       <use xlink:href="#DejaVuSans-2e" x="63.623047"/>
       <use xlink:href="#DejaVuSans-30" x="95.410156"/>
       <use xlink:href="#DejaVuSans-30" x="159.033203"/>
       <use xlink:href="#DejaVuSans-36" x="222.65625"/>
      </g>
     </g>
    </g>
    <g id="ytick_5">
     <g id="line2d_12">
      <g>
       <use xlink:href="#m7ff168c552" x="90" y="33.231551" style="stroke: #000000; stroke-width: 0.8"/>
      </g>
     </g>
     <g id="text_11">
      <!-- 0.008 -->
      <g transform="translate(54.371875 37.03077) scale(0.1 -0.1)">
       <defs>
        <path id="DejaVuSans-38" d="M 2034 2216 
Q 1584 2216 1326 1975 
Q 1069 1734 1069 1313 
Q 1069 891 1326 650 
Q 1584 409 2034 409 
Q 2484 409 2743 651 
Q 3003 894 3003 1313 
Q 3003 1734 2745 1975 
Q 2488 2216 2034 2216 
z
M 1403 2484 
Q 997 2584 770 2862 
Q 544 3141 544 3541 
Q 544 4100 942 4425 
Q 1341 4750 2034 4750 
Q 2731 4750 3128 4425 
Q 3525 4100 3525 3541 
Q 3525 3141 3298 2862 
Q 3072 2584 2669 2484 
Q 3125 2378 3379 2068 
Q 3634 1759 3634 1313 
Q 3634 634 3220 271 
Q 2806 -91 2034 -91 
Q 1263 -91 848 271 
Q 434 634 434 1313 
Q 434 1759 690 2068 
Q 947 2378 1403 2484 
z
M 1172 3481 
Q 1172 3119 1398 2916 
Q 1625 2713 2034 2713 
Q 2441 2713 2670 2916 
Q 2900 3119 2900 3481 
Q 2900 3844 2670 4047 
Q 2441 4250 2034 4250 
Q 1625 4250 1398 4047 
Q 1172 3844 1172 3481 
z
" transform="scale(0.015625)"/>
       </defs>
       <use xlink:href="#DejaVuSans-30"/>
       <use xlink:href="#DejaVuSans-2e" x="63.623047"/>
       <use xlink:href="#DejaVuSans-30" x="95.410156"/>
       <use xlink:href="#DejaVuSans-30" x="159.033203"/>
       <use xlink:href="#DejaVuSans-38" x="222.65625"/>
      </g>
     </g>
    </g>
   </g>
  </g>
 </g>
 <defs>
  <clipPath id="p8de0ce0041">
   <rect x="90" y="25.92" width="558" height="166.32"/>
  </clipPath>
 </defs>
</svg>
