<?xml version="1.0" encoding="utf-8" standalone="no"?>
<!DOCTYPE svg PUBLIC "-//W3C//DTD SVG 1.1//EN"
  "http://www.w3.org/Graphics/SVG/1.1/DTD/svg11.dtd">
<svg xmlns:xlink="http://www.w3.org/1999/xlink" width="720pt" height="216pt" viewBox="0 0 720 216" xmlns="http://www.w3.org/2000/svg" version="1.1">
 <metadata>
  <rdf:RDF xmlns:dc="http://purl.org/dc/elements/1.1/" xmlns:cc="http://creativecommons.org/ns#" xmlns:rdf="http://www.w3.org/1999/02/22-rdf-syntax-ns#">
   <cc:Work>
    <dc:type rdf:resource="http://purl.org/dc/dcmitype/StillImage"/>
    <dc:date>2024-11-23T04:42:11.445245</dc:date>
    <dc:format>image/svg+xml</dc:format>
    <dc:creator>
     <cc:Agent>
      <dc:title>Matplotlib v3.7.2, https://matplotlib.org/</dc:title>
     </cc:Agent>
    </dc:creator>
   </cc:Work>
  </rdf:RDF>
 </metadata>
 <defs>
  <style type="text/css">*{stroke-linejoin: round; stroke-linecap: butt}</style>
 </defs>
 <g id="figure_1">
  <g id="patch_1">
   <path d="M 0 216 
L 720 216 
L 720 0 
L 0 0 
z
" style="fill: #ffffff"/>
  </g>
  <g id="axes_1">
   <g id="patch_2">
    <path d="M 90 192.24 
L 648 192.24 
L 648 25.92 
L 90 25.92 
z
" style="fill: #ffffff"/>
   </g>
   <g id="line2d_1">
    <path d="M 90 192.24 
L 648 192.24 
" clip-path="url(#pe30712daee)" style="fill: none; stroke: #000000; stroke-width: 0.5; stroke-linecap: square"/>
   </g>
   <g id="patch_3">
    <path d="M 107.699499 190.870329 
Q 106.218967 191.549244 104.618029 191.892648 
Q 103.017092 192.24 101.273453 192.24 
Q 96.073751 192.24 93.036876 189.66644 
Q 90 187.092881 90 182.691778 
Q 90 178.274886 93.036876 175.705274 
Q 96.073751 173.131714 101.273453 173.131714 
Q 103.017092 173.131714 104.618029 173.479066 
Q 106.218967 173.82247 107.699499 174.501385 
L 107.699499 178.310411 
Q 106.205588 177.410455 104.756272 176.992054 
Q 103.306955 176.573653 101.706018 176.573653 
Q 98.834142 176.573653 97.18861 178.203837 
Q 95.547538 179.830074 95.547538 182.691778 
Q 95.547538 185.54164 97.18861 187.171824 
Q 98.834142 188.798061 101.706018 188.798061 
Q 103.306955 188.798061 104.756272 188.379661 
Q 106.205588 187.957313 107.699499 187.057356 
L 107.699499 190.870329 
z
" clip-path="url(#pe30712daee)" style="fill: #0000ff"/>
   </g>
   <g id="patch_4">
    <path d="M 90 153.939483 
L 107.699499 153.939483 
L 107.699499 157.682503 
L 101.331796 157.682503 
L 101.331796 173.131714 
L 96.380052 173.131714 
L 96.380052 157.682503 
L 90 157.682503 
L 90 153.939483 
z
" clip-path="url(#pe30712daee)" style="fill: #ff0000"/>
   </g>
   <g id="patch_5">
    <path d="M 102.260459 139.557996 
L 95.453516 139.557996 
L 94.378735 153.939483 
L 90 153.939483 
L 96.253268 74.993582 
L 101.446231 74.993582 
L 107.699499 153.939483 
L 103.324383 153.939483 
L 102.260459 139.557996 
z
M 96.539153 124.9058 
L 101.163965 124.9058 
L 98.855178 93.503401 
L 96.539153 124.9058 
z
" clip-path="url(#pe30712daee)" style="fill: #008000"/>
   </g>
   <g id="patch_6">
    <path d="M 126.330551 192.192586 
Q 124.545527 192.216293 122.625636 192.228201 
Q 120.705744 192.24 118.658917 192.24 
Q 114.033723 192.24 111.332387 192.16942 
Q 108.631052 192.09884 108.631052 191.97814 
Q 108.631052 191.856033 111.379988 191.785994 
Q 114.132891 191.715955 118.92072 191.715955 
Q 120.765244 191.715955 122.455067 191.725482 
Q 124.148856 191.734899 125.648275 191.753519 
L 125.648275 191.857981 
Q 124.101255 191.834058 122.570102 191.822258 
Q 121.038948 191.810351 119.499861 191.810351 
Q 116.651757 191.810351 115.108704 191.853868 
Q 113.56565 191.897276 113.56565 191.97814 
Q 113.56565 192.058246 115.053169 192.10198 
Q 116.540689 192.145605 119.277725 192.145605 
Q 120.023468 192.145605 120.66211 192.143115 
Q 121.300752 192.140517 121.808492 192.135104 
L 121.808492 192.037029 
L 118.892953 192.037029 
L 118.892953 191.94967 
L 126.330551 191.94967 
L 126.330551 192.192586 
z
" clip-path="url(#pe30712daee)" style="fill: #ffa600"/>
   </g>
   <g id="patch_7">
    <path d="M 120.89151 191.604984 
L 114.084567 191.604984 
L 113.009787 191.715955 
L 108.631052 191.715955 
L 114.88432 191.106786 
L 120.077283 191.106786 
L 126.330551 191.715955 
L 121.955434 191.715955 
L 120.89151 191.604984 
z
M 115.170204 191.491923 
L 119.795017 191.491923 
L 117.48623 191.249613 
L 115.170204 191.491923 
z
" clip-path="url(#pe30712daee)" style="fill: #008000"/>
   </g>
   <g id="patch_8">
    <path d="M 126.330551 189.903753 
Q 124.850018 190.500069 123.249081 190.801694 
Q 121.648144 191.106786 119.904504 191.106786 
Q 114.704803 191.106786 111.667927 188.846332 
Q 108.631052 186.585878 108.631052 182.720225 
Q 108.631052 178.840703 111.667927 176.583716 
Q 114.704803 174.323262 119.904504 174.323262 
Q 121.648144 174.323262 123.249081 174.628354 
Q 124.850018 174.929979 126.330551 175.526295 
L 126.330551 178.871906 
Q 124.83664 178.08144 123.387324 177.713943 
Q 121.938007 177.346446 120.33707 177.346446 
Q 117.465193 177.346446 115.819662 178.778298 
Q 114.178589 180.206683 114.178589 182.720225 
Q 114.178589 185.223365 115.819662 186.655217 
Q 117.465193 188.083602 120.33707 188.083602 
Q 121.938007 188.083602 123.387324 187.716105 
Q 124.83664 187.345141 126.330551 186.554676 
L 126.330551 189.903753 
z
" clip-path="url(#pe30712daee)" style="fill: #0000ff"/>
   </g>
   <g id="patch_9">
    <path d="M 108.631052 108.941489 
L 126.330551 108.941489 
L 126.330551 121.692756 
L 119.962847 121.692756 
L 119.962847 174.323262 
L 115.011104 174.323262 
L 115.011104 121.692756 
L 108.631052 121.692756 
L 108.631052 108.941489 
z
" clip-path="url(#pe30712daee)" style="fill: #ff0000"/>
   </g>
   <g id="patch_10">
    <path d="M 144.961603 191.83703 
Q 143.48107 192.036773 141.880133 192.137806 
Q 140.279195 192.24 138.535556 192.24 
Q 133.335855 192.24 130.298979 191.482834 
Q 127.262104 190.725668 127.262104 189.430821 
Q 127.262104 188.131329 130.298979 187.375324 
Q 133.335855 186.618158 138.535556 186.618158 
Q 140.279195 186.618158 141.880133 186.720353 
Q 143.48107 186.821386 144.961603 187.021129 
L 144.961603 188.141781 
Q 143.467692 187.877005 142.018375 187.753907 
Q 140.569059 187.63081 138.968121 187.63081 
Q 136.096245 187.63081 134.450713 188.110426 
Q 132.809641 188.58888 132.809641 189.430821 
Q 132.809641 190.269278 134.450713 190.748894 
Q 136.096245 191.227349 138.968121 191.227349 
Q 140.569059 191.227349 142.018375 191.104251 
Q 143.467692 190.979992 144.961603 190.715216 
L 144.961603 191.83703 
z
" clip-path="url(#pe30712daee)" style="fill: #0000ff"/>
   </g>
   <g id="patch_11">
    <path d="M 139.522562 156.478169 
L 132.715619 156.478169 
L 131.640839 186.618158 
L 127.262104 186.618158 
L 133.515372 21.167344 
L 138.708335 21.167344 
L 144.961603 186.618158 
L 140.586486 186.618158 
L 139.522562 156.478169 
z
M 133.801256 125.770838 
L 138.426069 125.770838 
L 136.117281 59.959283 
L 133.801256 125.770838 
z
" clip-path="url(#pe30712daee)" style="fill: #008000"/>
   </g>
   <g id="patch_12">
    <path d="M 163.592654 191.183044 
Q 162.112122 191.706953 160.511185 191.971954 
Q 158.910247 192.24 157.166608 192.24 
Q 151.966906 192.24 148.930031 190.25402 
Q 145.893155 188.26804 145.893155 184.871771 
Q 145.893155 181.463317 148.930031 179.480383 
Q 151.966906 177.494403 157.166608 177.494403 
Q 158.910247 177.494403 160.511185 177.76245 
Q 162.112122 178.02745 163.592654 178.551359 
L 163.592654 181.490731 
Q 162.098744 180.796247 160.649427 180.473373 
Q 159.200111 180.150499 157.599173 180.150499 
Q 154.727297 180.150499 153.081765 181.40849 
Q 151.440693 182.663434 151.440693 184.871771 
Q 151.440693 187.070969 153.081765 188.32896 
Q 154.727297 189.583904 157.599173 189.583904 
Q 159.200111 189.583904 160.649427 189.26103 
Q 162.098744 188.93511 163.592654 188.240626 
L 163.592654 191.183044 
z
" clip-path="url(#pe30712daee)" style="fill: #0000ff"/>
   </g>
   <g id="patch_13">
    <path d="M 158.153614 173.233934 
L 151.346671 173.233934 
L 150.27189 177.494403 
L 145.893155 177.494403 
L 152.146423 154.106932 
L 157.339386 154.106932 
L 163.592654 177.494403 
L 159.217538 177.494403 
L 158.153614 173.233934 
z
M 152.432308 168.893267 
L 157.057121 168.893267 
L 154.748333 159.590407 
L 152.432308 168.893267 
z
" clip-path="url(#pe30712daee)" style="fill: #008000"/>
   </g>
   <g id="patch_14">
    <path d="M 145.893155 34.89613 
L 163.592654 34.89613 
L 163.592654 58.145558 
L 157.224951 58.145558 
L 157.224951 154.106932 
L 152.273207 154.106932 
L 152.273207 58.145558 
L 145.893155 58.145558 
L 145.893155 34.89613 
z
" clip-path="url(#pe30712daee)" style="fill: #ff0000"/>
   </g>
   <g id="patch_15">
    <path d="M 182.223706 191.79433 
Q 180.743174 192.015239 179.142236 192.126977 
Q 177.541299 192.24 175.79766 192.24 
Q 170.597958 192.24 167.561083 191.402603 
Q 164.524207 190.565206 164.524207 189.133154 
Q 164.524207 187.695965 167.561083 186.859853 
Q 170.597958 186.022456 175.79766 186.022456 
Q 177.541299 186.022456 179.142236 186.135479 
Q 180.743174 186.247217 182.223706 186.468126 
L 182.223706 187.707525 
Q 180.729795 187.414693 179.280479 187.278551 
Q 177.831162 187.14241 176.230225 187.14241 
Q 173.358349 187.14241 171.712817 187.672847 
Q 170.071745 188.202 170.071745 189.133154 
Q 170.071745 190.060456 171.712817 190.590893 
Q 173.358349 191.120046 176.230225 191.120046 
Q 177.831162 191.120046 179.280479 190.983905 
Q 180.729795 190.846479 182.223706 190.553647 
L 182.223706 191.79433 
z
" clip-path="url(#pe30712daee)" style="fill: #0000ff"/>
   </g>
   <g id="patch_16">
    <path d="M 164.524207 171.551873 
L 182.223706 171.551873 
L 182.223706 174.37404 
L 175.856003 174.37404 
L 175.856003 186.022456 
L 170.904259 186.022456 
L 170.904259 174.37404 
L 164.524207 174.37404 
L 164.524207 171.551873 
z
" clip-path="url(#pe30712daee)" style="fill: #ff0000"/>
   </g>
   <g id="patch_17">
    <path d="M 176.784666 167.696869 
L 169.977723 167.696869 
L 168.902942 171.551873 
L 164.524207 171.551873 
L 170.777475 150.390165 
L 175.970438 150.390165 
L 182.223706 171.551873 
L 177.84859 171.551873 
L 176.784666 167.696869 
z
M 171.06336 163.769299 
L 175.688172 163.769299 
L 173.379385 155.351783 
L 171.06336 163.769299 
z
" clip-path="url(#pe30712daee)" style="fill: #008000"/>
   </g>
   <g id="patch_18">
    <path d="M 182.223706 141.886952 
Q 180.438683 146.138559 178.518791 148.274069 
Q 176.598899 150.390165 174.552072 150.390165 
Q 169.926878 150.390165 167.225542 137.732413 
Q 164.524207 125.074661 164.524207 103.428353 
Q 164.524207 81.529665 167.273143 68.968982 
Q 170.026046 56.408299 174.813876 56.408299 
Q 176.6584 56.408299 178.348222 58.116707 
Q 180.042011 59.805701 181.541431 63.144863 
L 181.541431 81.879112 
Q 179.99441 77.588678 178.463257 75.472581 
Q 176.932103 73.337071 175.393016 73.337071 
Q 172.544912 73.337071 171.001859 81.141391 
Q 169.458805 88.926296 169.458805 103.428353 
Q 169.458805 117.794513 170.946325 125.63766 
Q 172.433844 133.461393 175.17088 133.461393 
Q 175.916623 133.461393 176.555265 133.014877 
Q 177.193907 132.548948 177.701647 131.578261 
L 177.701647 113.989422 
L 174.786108 113.989422 
L 174.786108 98.322542 
L 182.223706 98.322542 
L 182.223706 141.886952 
z
" clip-path="url(#pe30712daee)" style="fill: #ffa600"/>
   </g>
   <g id="patch_19">
    <path d="M 200.854758 192.184436 
Q 199.374225 192.211978 197.773288 192.225909 
Q 196.172351 192.24 194.428711 192.24 
Q 189.22901 192.24 186.192134 192.135598 
Q 183.155259 192.031195 183.155259 191.852654 
Q 183.155259 191.673473 186.192134 191.569231 
Q 189.22901 191.464828 194.428711 191.464828 
Q 196.172351 191.464828 197.773288 191.478919 
Q 199.374225 191.49285 200.854758 191.520392 
L 200.854758 191.674914 
Q 199.360847 191.638405 197.911531 191.621432 
Q 196.462214 191.604458 194.861277 191.604458 
Q 191.9894 191.604458 190.343869 191.670591 
Q 188.702796 191.736563 188.702796 191.852654 
Q 188.702796 191.968266 190.343869 192.034398 
Q 191.9894 192.10037 194.861277 192.10037 
Q 196.462214 192.10037 197.911531 192.083396 
Q 199.360847 192.066263 200.854758 192.029754 
L 200.854758 192.184436 
z
" clip-path="url(#pe30712daee)" style="fill: #0000ff"/>
   </g>
   <g id="patch_20">
    <path d="M 195.415717 190.920339 
L 188.608774 190.920339 
L 187.533994 191.464828 
L 183.155259 191.464828 
L 189.408527 188.475901 
L 194.60149 188.475901 
L 200.854758 191.464828 
L 196.479641 191.464828 
L 195.415717 190.920339 
z
M 189.694411 190.3656 
L 194.319224 190.3656 
L 192.010437 189.176691 
L 189.694411 190.3656 
z
" clip-path="url(#pe30712daee)" style="fill: #008000"/>
   </g>
   <g id="patch_21">
    <path d="M 183.155259 152.328836 
L 200.854758 152.328836 
L 200.854758 159.378521 
L 194.487054 159.378521 
L 194.487054 188.475901 
L 189.535311 188.475901 
L 189.535311 159.378521 
L 183.155259 159.378521 
L 183.155259 152.328836 
z
" clip-path="url(#pe30712daee)" style="fill: #ff0000"/>
   </g>
   <g id="patch_22">
    <path d="M 200.854758 144.366474 
Q 199.069734 148.347655 197.149843 150.347335 
Q 195.229951 152.328836 193.183124 152.328836 
Q 188.55793 152.328836 185.856594 140.476188 
Q 183.155259 128.623539 183.155259 108.354055 
Q 183.155259 87.848246 185.904195 76.086492 
Q 188.657098 64.324737 193.444927 64.324737 
Q 195.289451 64.324737 196.979274 65.924481 
Q 198.673063 67.506047 200.172482 70.632819 
L 200.172482 88.175466 
Q 198.625462 84.157927 197.094309 82.176426 
Q 195.563155 80.176746 194.024068 80.176746 
Q 191.175964 80.176746 189.632911 87.484668 
Q 188.089857 94.77441 188.089857 108.354055 
Q 188.089857 121.806448 189.577376 129.150727 
Q 191.064896 136.476828 193.801932 136.476828 
Q 194.547675 136.476828 195.186317 136.058713 
Q 195.824959 135.622419 196.332699 134.713474 
L 196.332699 118.243382 
L 193.41716 118.243382 
L 193.41716 103.573002 
L 200.854758 103.573002 
L 200.854758 144.366474 
z
" clip-path="url(#pe30712daee)" style="fill: #ffa600"/>
   </g>
   <g id="patch_23">
    <path d="M 201.786311 188.307546 
L 219.48581 188.307546 
L 219.48581 189.074484 
L 213.118106 189.074484 
L 213.118106 192.24 
L 208.166363 192.24 
L 208.166363 189.074484 
L 201.786311 189.074484 
L 201.786311 188.307546 
z
" clip-path="url(#pe30712daee)" style="fill: #ff0000"/>
   </g>
   <g id="patch_24">
    <path d="M 214.046769 186.827171 
L 207.239826 186.827171 
L 206.165046 188.307546 
L 201.786311 188.307546 
L 208.039579 180.18116 
L 213.232542 180.18116 
L 219.48581 188.307546 
L 215.110693 188.307546 
L 214.046769 186.827171 
z
M 208.325463 185.31893 
L 212.950276 185.31893 
L 210.641488 182.086489 
L 208.325463 185.31893 
z
" clip-path="url(#pe30712daee)" style="fill: #008000"/>
   </g>
   <g id="patch_25">
    <path d="M 219.48581 171.025423 
Q 218.005277 175.563713 216.40434 177.859244 
Q 214.803402 180.18116 213.059763 180.18116 
Q 207.860062 180.18116 204.823186 162.977873 
Q 201.786311 145.774587 201.786311 116.354857 
Q 201.786311 86.829585 204.823186 69.652684 
Q 207.860062 52.449398 213.059763 52.449398 
Q 214.803402 52.449398 216.40434 54.771314 
Q 218.005277 57.066845 219.48581 61.605135 
L 219.48581 87.067054 
Q 217.991899 81.051181 216.542582 78.254328 
Q 215.093266 75.457474 213.492328 75.457474 
Q 210.620452 75.457474 208.97492 86.354648 
Q 207.333848 97.225436 207.333848 116.354857 
Q 207.333848 135.405122 208.97492 146.302295 
Q 210.620452 157.173084 213.492328 157.173084 
Q 215.093266 157.173084 216.542582 154.37623 
Q 217.991899 151.552992 219.48581 145.537119 
L 219.48581 171.025423 
z
" clip-path="url(#pe30712daee)" style="fill: #0000ff"/>
   </g>
   <g id="patch_26">
    <path d="M 232.677821 191.696763 
L 225.870878 191.696763 
L 224.796097 192.24 
L 220.417362 192.24 
L 226.67063 189.25795 
L 231.863593 189.25795 
L 238.116861 192.24 
L 233.741745 192.24 
L 232.677821 191.696763 
z
M 226.956515 191.143301 
L 231.581328 191.143301 
L 229.27254 189.957127 
L 226.956515 191.143301 
z
" clip-path="url(#pe30712daee)" style="fill: #008000"/>
   </g>
   <g id="patch_27">
    <path d="M 220.417362 184.344146 
L 238.116861 184.344146 
L 238.116861 185.302475 
L 231.749158 185.302475 
L 231.749158 189.25795 
L 226.797414 189.25795 
L 226.797414 185.302475 
L 220.417362 185.302475 
L 220.417362 184.344146 
z
" clip-path="url(#pe30712daee)" style="fill: #ff0000"/>
   </g>
   <g id="patch_28">
    <path d="M 238.116861 182.298119 
Q 236.636329 183.312288 235.035392 183.825269 
Q 233.434454 184.344146 231.690815 184.344146 
Q 226.491113 184.344146 223.454238 180.499738 
Q 220.417362 176.65533 220.417362 170.080921 
Q 220.417362 163.482926 223.454238 159.644414 
Q 226.491113 155.800006 231.690815 155.800006 
Q 233.434454 155.800006 235.035392 156.318883 
Q 236.636329 156.831864 238.116861 157.846033 
L 238.116861 163.535993 
Q 236.622951 162.191629 235.173634 161.566618 
Q 233.724318 160.941607 232.12338 160.941607 
Q 229.251504 160.941607 227.605972 163.376792 
Q 225.9649 165.80608 225.9649 170.080921 
Q 225.9649 174.338072 227.605972 176.773257 
Q 229.251504 179.202545 232.12338 179.202545 
Q 233.724318 179.202545 235.173634 178.577534 
Q 236.622951 177.946627 238.116861 176.602263 
L 238.116861 182.298119 
z
" clip-path="url(#pe30712daee)" style="fill: #0000ff"/>
   </g>
   <g id="patch_29">
    <path d="M 238.116861 149.85368 
Q 236.331838 152.826843 234.411946 154.320212 
Q 232.492054 155.800006 230.445227 155.800006 
Q 225.820033 155.800006 223.118698 146.948397 
Q 220.417362 138.096789 220.417362 122.959453 
Q 220.417362 107.645627 223.166298 98.861899 
Q 225.919201 90.078172 230.707031 90.078172 
Q 232.551555 90.078172 234.241377 91.272867 
Q 235.935166 92.453987 237.434586 94.789073 
L 237.434586 107.889997 
Q 235.887565 104.889682 234.356412 103.409888 
Q 232.825259 101.916519 231.286172 101.916519 
Q 228.438068 101.916519 226.895014 107.374106 
Q 225.35196 112.818116 225.35196 122.959453 
Q 225.35196 133.005757 226.83948 138.490496 
Q 228.327 143.961658 231.064035 143.961658 
Q 231.809779 143.961658 232.44842 143.649408 
Q 233.087062 143.323582 233.594802 142.644778 
L 233.594802 130.344844 
L 230.679264 130.344844 
L 230.679264 119.388942 
L 238.116861 119.388942 
L 238.116861 149.85368 
z
" clip-path="url(#pe30712daee)" style="fill: #ffa600"/>
   </g>
   <g id="patch_30">
    <path d="M 251.308873 192.110331 
L 244.50193 192.110331 
L 243.427149 192.24 
L 239.048414 192.24 
L 245.301682 191.528195 
L 250.494645 191.528195 
L 256.747913 192.24 
L 252.372797 192.24 
L 251.308873 192.110331 
z
M 245.587567 191.978222 
L 250.212379 191.978222 
L 247.903592 191.695086 
L 245.587567 191.978222 
z
" clip-path="url(#pe30712daee)" style="fill: #008000"/>
   </g>
   <g id="patch_31">
    <path d="M 239.048414 182.90877 
L 256.747913 182.90877 
L 256.747913 184.589798 
L 250.38021 184.589798 
L 250.38021 191.528195 
L 245.428466 191.528195 
L 245.428466 184.589798 
L 239.048414 184.589798 
L 239.048414 182.90877 
z
" clip-path="url(#pe30712daee)" style="fill: #ff0000"/>
   </g>
   <g id="patch_32">
    <path d="M 256.747913 182.284869 
Q 255.267381 182.594123 253.666443 182.750548 
Q 252.065506 182.90877 250.321867 182.90877 
Q 245.122165 182.90877 242.08529 181.736483 
Q 239.048414 180.564195 239.048414 178.55944 
Q 239.048414 176.547493 242.08529 175.377003 
Q 245.122165 174.204716 250.321867 174.204716 
Q 252.065506 174.204716 253.666443 174.362939 
Q 255.267381 174.519364 256.747913 174.828617 
L 256.747913 176.563675 
Q 255.254002 176.153734 253.804686 175.963147 
Q 252.355369 175.77256 250.754432 175.77256 
Q 247.882556 175.77256 246.237024 176.515129 
Q 244.595952 177.2559 244.595952 178.55944 
Q 244.595952 179.857587 246.237024 180.600155 
Q 247.882556 181.340926 250.754432 181.340926 
Q 252.355369 181.340926 253.804686 181.150339 
Q 255.254002 180.957955 256.747913 180.548014 
L 256.747913 182.284869 
z
" clip-path="url(#pe30712daee)" style="fill: #0000ff"/>
   </g>
   <g id="patch_33">
    <path d="M 256.747913 166.871149 
Q 254.96289 170.537933 253.042998 172.379696 
Q 251.123106 174.204716 249.076279 174.204716 
Q 244.451085 174.204716 241.74975 163.288082 
Q 239.048414 152.371449 239.048414 133.702666 
Q 239.048414 114.816221 241.79735 103.983304 
Q 244.550253 93.150387 249.338083 93.150387 
Q 251.182607 93.150387 252.872429 94.623798 
Q 254.566218 96.080465 256.065638 98.960313 
L 256.065638 115.1176 
Q 254.518617 111.41733 252.987464 109.59231 
Q 251.45631 107.750547 249.917223 107.750547 
Q 247.069119 107.750547 245.526066 114.481355 
Q 243.983012 121.195419 243.983012 133.702666 
Q 243.983012 146.09271 245.470532 152.857005 
Q 246.958051 159.604556 249.695087 159.604556 
Q 250.44083 159.604556 251.079472 159.21946 
Q 251.718114 158.817621 252.225854 157.980455 
L 252.225854 142.811023 
L 249.310315 142.811023 
L 249.310315 129.299178 
L 256.747913 129.299178 
L 256.747913 166.871149 
z
" clip-path="url(#pe30712daee)" style="fill: #ffa600"/>
   </g>
   <g id="patch_34">
    <path d="M 269.939924 192.003573 
L 263.132981 192.003573 
L 262.058201 192.24 
L 257.679466 192.24 
L 263.932734 190.942153 
L 269.125697 190.942153 
L 275.378965 192.24 
L 271.003849 192.24 
L 269.939924 192.003573 
z
M 264.218618 191.762695 
L 268.843431 191.762695 
L 266.534644 191.246449 
L 264.218618 191.762695 
z
" clip-path="url(#pe30712daee)" style="fill: #008000"/>
   </g>
   <g id="patch_35">
    <path d="M 257.679466 185.511602 
L 275.378965 185.511602 
L 275.378965 186.57071 
L 269.011261 186.57071 
L 269.011261 190.942153 
L 264.059518 190.942153 
L 264.059518 186.57071 
L 257.679466 186.57071 
L 257.679466 185.511602 
z
" clip-path="url(#pe30712daee)" style="fill: #ff0000"/>
   </g>
   <g id="patch_36">
    <path d="M 275.378965 184.47006 
Q 273.593941 184.990831 271.67405 185.252405 
Q 269.754158 185.511602 267.707331 185.511602 
Q 263.082137 185.511602 260.380801 183.961179 
Q 257.679466 182.410756 257.679466 179.759342 
Q 257.679466 177.077016 260.428402 175.538483 
Q 263.181305 173.999949 267.969134 173.999949 
Q 269.813659 173.999949 271.503481 174.209209 
Q 273.19727 174.416091 274.696689 174.825098 
L 274.696689 177.119819 
Q 273.149669 176.594292 271.618516 176.335096 
Q 270.087362 176.073521 268.548275 176.073521 
Q 265.700171 176.073521 264.157118 177.029457 
Q 262.614064 177.983014 262.614064 179.759342 
Q 262.614064 181.519025 264.101583 182.479716 
Q 265.589103 183.43803 268.326139 183.43803 
Q 269.071882 183.43803 269.710524 183.383337 
Q 270.349166 183.326266 270.856906 183.207369 
L 270.856906 181.052947 
L 267.941367 181.052947 
L 267.941367 179.133942 
L 275.378965 179.133942 
L 275.378965 184.47006 
z
" clip-path="url(#pe30712daee)" style="fill: #ffa600"/>
   </g>
   <g id="patch_37">
    <path d="M 275.378965 168.051723 
Q 273.898432 171.000124 272.297495 172.491466 
Q 270.696558 173.999949 268.952919 173.999949 
Q 263.753217 173.999949 260.716341 162.823455 
Q 257.679466 151.646961 257.679466 132.533785 
Q 257.679466 113.352042 260.716341 102.192689 
Q 263.753217 91.016195 268.952919 91.016195 
Q 270.696558 91.016195 272.297495 92.524679 
Q 273.898432 94.016021 275.378965 96.964421 
L 275.378965 113.506318 
Q 273.885054 109.597974 272.435738 107.780936 
Q 270.986421 105.963899 269.385484 105.963899 
Q 266.513607 105.963899 264.868076 113.043488 
Q 263.227003 120.105935 263.227003 132.533785 
Q 263.227003 144.91021 264.868076 151.989799 
Q 266.513607 159.052246 269.385484 159.052246 
Q 270.986421 159.052246 272.435738 157.235208 
Q 273.885054 155.401029 275.378965 151.492685 
L 275.378965 168.051723 
z
" clip-path="url(#pe30712daee)" style="fill: #0000ff"/>
   </g>
   <g id="patch_38">
    <path d="M 276.310518 189.64157 
L 294.010017 189.64157 
L 294.010017 190.148336 
L 287.642313 190.148336 
L 287.642313 192.24 
L 282.69057 192.24 
L 282.69057 190.148336 
L 276.310518 190.148336 
L 276.310518 189.64157 
z
" clip-path="url(#pe30712daee)" style="fill: #ff0000"/>
   </g>
   <g id="patch_39">
    <path d="M 294.010017 188.246089 
Q 292.224993 188.943829 290.305101 189.294292 
Q 288.385209 189.64157 286.338383 189.64157 
Q 281.713188 189.64157 279.011853 187.564279 
Q 276.310518 185.486989 276.310518 181.934567 
Q 276.310518 178.340727 279.059454 176.279367 
Q 281.812356 174.218007 286.600186 174.218007 
Q 288.44471 174.218007 290.134532 174.498377 
Q 291.828321 174.775562 293.327741 175.323559 
L 293.327741 178.398076 
Q 291.780721 177.693964 290.249567 177.346687 
Q 288.718414 176.996223 287.179327 176.996223 
Q 284.331223 176.996223 282.788169 178.277007 
Q 281.245116 179.554604 281.245116 181.934567 
Q 281.245116 184.292228 282.732635 185.579383 
Q 284.220155 186.863353 286.957191 186.863353 
Q 287.702934 186.863353 288.341576 186.790074 
Q 288.980217 186.71361 289.487957 186.554308 
L 289.487957 183.667767 
L 286.572419 183.667767 
L 286.572419 181.096642 
L 294.010017 181.096642 
L 294.010017 188.246089 
z
" clip-path="url(#pe30712daee)" style="fill: #ffa600"/>
   </g>
   <g id="patch_40">
    <path d="M 294.010017 169.34694 
Q 292.529484 171.761417 290.928547 172.982693 
Q 289.32761 174.218007 287.58397 174.218007 
Q 282.384269 174.218007 279.347393 165.065456 
Q 276.310518 155.912905 276.310518 140.260919 
Q 276.310518 124.552783 279.347393 115.41427 
Q 282.384269 106.261719 287.58397 106.261719 
Q 289.32761 106.261719 290.928547 107.497032 
Q 292.529484 108.718308 294.010017 111.132785 
L 294.010017 124.679122 
Q 292.516106 121.478537 291.066789 119.990545 
Q 289.617473 118.502554 288.016535 118.502554 
Q 285.144659 118.502554 283.499127 124.300105 
Q 281.858055 130.083619 281.858055 140.260919 
Q 281.858055 150.396106 283.499127 156.193658 
Q 285.144659 161.977172 288.016535 161.977172 
Q 289.617473 161.977172 291.066789 160.48918 
Q 292.516106 158.987151 294.010017 155.786566 
L 294.010017 169.34694 
z
" clip-path="url(#pe30712daee)" style="fill: #0000ff"/>
   </g>
   <g id="patch_41">
    <path d="M 294.941569 182.361511 
L 312.641068 182.361511 
L 312.641068 184.288091 
L 306.273365 184.288091 
L 306.273365 192.24 
L 301.321621 192.24 
L 301.321621 184.288091 
L 294.941569 184.288091 
L 294.941569 182.361511 
z
" clip-path="url(#pe30712daee)" style="fill: #ff0000"/>
   </g>
   <g id="patch_42">
    <path d="M 312.641068 176.105413 
Q 310.856045 179.233462 308.936153 180.804628 
Q 307.016261 182.361511 304.969434 182.361511 
Q 300.34424 182.361511 297.642905 173.048781 
Q 294.941569 163.736051 294.941569 147.81014 
Q 294.941569 131.698546 297.690505 122.457233 
Q 300.443408 113.215919 305.231238 113.215919 
Q 307.075762 113.215919 308.765584 114.472852 
Q 310.459373 115.715502 311.958793 118.172234 
L 311.958793 131.955646 
Q 310.411772 128.79903 308.880619 127.242148 
Q 307.349466 125.670982 305.810379 125.670982 
Q 302.962275 125.670982 301.419221 131.412879 
Q 299.876167 137.140494 299.876167 147.81014 
Q 299.876167 158.379803 301.363687 164.150267 
Q 302.851207 169.906448 305.588242 169.906448 
Q 306.333986 169.906448 306.972627 169.577932 
Q 307.611269 169.235132 308.119009 168.520966 
L 308.119009 155.58027 
L 305.203471 155.58027 
L 305.203471 144.053625 
L 312.641068 144.053625 
L 312.641068 176.105413 
z
" clip-path="url(#pe30712daee)" style="fill: #ffa600"/>
   </g>
   <g id="patch_43">
    <path d="M 325.83308 192.089524 
L 319.026137 192.089524 
L 317.951356 192.24 
L 313.572621 192.24 
L 319.825889 191.413975 
L 325.018852 191.413975 
L 331.27212 192.24 
L 326.897004 192.24 
L 325.83308 192.089524 
z
M 320.111774 191.936215 
L 324.736586 191.936215 
L 322.427799 191.607646 
L 320.111774 191.936215 
z
" clip-path="url(#pe30712daee)" style="fill: #008000"/>
   </g>
   <g id="patch_44">
    <path d="M 331.27212 190.684772 
Q 329.487097 191.049373 327.567205 191.232507 
Q 325.647313 191.413975 323.600486 191.413975 
Q 318.975292 191.413975 316.273957 190.328495 
Q 313.572621 189.243015 313.572621 187.386711 
Q 313.572621 185.508764 316.321557 184.431608 
Q 319.07446 183.354452 323.86229 183.354452 
Q 325.706814 183.354452 327.396636 183.500958 
Q 329.090425 183.6458 330.589845 183.932154 
L 330.589845 185.538731 
Q 329.042824 185.1708 327.511671 184.989331 
Q 325.980517 184.806198 324.44143 184.806198 
Q 321.593326 184.806198 320.050273 185.475467 
Q 318.507219 186.14307 318.507219 187.386711 
Q 318.507219 188.618697 319.994739 189.291295 
Q 321.482258 189.962229 324.219294 189.962229 
Q 324.965037 189.962229 325.603679 189.923937 
Q 326.242321 189.883981 326.750061 189.800738 
L 326.750061 188.292387 
L 323.834523 188.292387 
L 323.834523 186.948856 
L 331.27212 186.948856 
L 331.27212 190.684772 
z
" clip-path="url(#pe30712daee)" style="fill: #ffa600"/>
   </g>
   <g id="patch_45">
    <path d="M 331.27212 178.251273 
Q 329.791588 180.780803 328.19065 182.060274 
Q 326.589713 183.354452 324.846074 183.354452 
Q 319.646372 183.354452 316.609497 173.76577 
Q 313.572621 164.177089 313.572621 147.779266 
Q 313.572621 131.322618 316.609497 121.748643 
Q 319.646372 112.159961 324.846074 112.159961 
Q 326.589713 112.159961 328.19065 113.454139 
Q 329.791588 114.73361 331.27212 117.26314 
L 331.27212 131.454977 
Q 329.778209 128.10188 328.328893 126.542984 
Q 326.879576 124.984088 325.278639 124.984088 
Q 322.406763 124.984088 320.761231 131.0579 
Q 319.120159 137.117005 319.120159 147.779266 
Q 319.120159 158.397408 320.761231 164.47122 
Q 322.406763 170.530326 325.278639 170.530326 
Q 326.879576 170.530326 328.328893 168.971429 
Q 329.778209 167.397827 331.27212 164.04473 
L 331.27212 178.251273 
z
" clip-path="url(#pe30712daee)" style="fill: #0000ff"/>
   </g>
   <g id="patch_46">
    <path d="M 344.464131 191.12348 
L 337.657188 191.12348 
L 336.582408 192.24 
L 332.203673 192.24 
L 338.456941 186.110962 
L 343.649904 186.110962 
L 349.903172 192.24 
L 345.528056 192.24 
L 344.464131 191.12348 
z
M 338.742825 189.985943 
L 343.367638 189.985943 
L 341.058851 187.547989 
L 338.742825 189.985943 
z
" clip-path="url(#pe30712daee)" style="fill: #008000"/>
   </g>
   <g id="patch_47">
    <path d="M 349.903172 185.453881 
Q 348.118149 185.782421 346.198257 185.947442 
Q 344.278365 186.110962 342.231538 186.110962 
Q 337.606344 186.110962 334.905008 185.132841 
Q 332.203673 184.15472 332.203673 182.482013 
Q 332.203673 180.789803 334.952609 179.819183 
Q 337.705512 178.848563 342.493341 178.848563 
Q 344.337866 178.848563 346.027688 178.980579 
Q 347.721477 179.111096 349.220896 179.369127 
L 349.220896 180.816807 
Q 347.673876 180.485266 346.142723 180.321745 
Q 344.611569 180.156725 343.072482 180.156725 
Q 340.224378 180.156725 338.681325 180.7598 
Q 337.138271 181.361374 337.138271 182.482013 
Q 337.138271 183.59215 338.62579 184.198225 
Q 340.11331 184.8028 342.850346 184.8028 
Q 343.596089 184.8028 344.234731 184.768296 
Q 344.873373 184.732291 345.381113 184.657282 
L 345.381113 183.298114 
L 342.465574 183.298114 
L 342.465574 182.087464 
L 349.903172 182.087464 
L 349.903172 185.453881 
z
" clip-path="url(#pe30712daee)" style="fill: #ffa600"/>
   </g>
   <g id="patch_48">
    <path d="M 332.203673 163.394398 
L 349.903172 163.394398 
L 349.903172 166.408391 
L 343.535468 166.408391 
L 343.535468 178.848563 
L 338.583725 178.848563 
L 338.583725 166.408391 
L 332.203673 166.408391 
L 332.203673 163.394398 
z
" clip-path="url(#pe30712daee)" style="fill: #ff0000"/>
   </g>
   <g id="patch_49">
    <path d="M 349.903172 160.707592 
Q 348.422639 162.03938 346.821702 162.713018 
Q 345.220765 163.394398 343.477126 163.394398 
Q 338.277424 163.394398 335.240548 158.34599 
Q 332.203673 153.297581 332.203673 144.664183 
Q 332.203673 135.999813 335.240548 130.959148 
Q 338.277424 125.910739 343.477126 125.910739 
Q 345.220765 125.910739 346.821702 126.592119 
Q 348.422639 127.265757 349.903172 128.597546 
L 349.903172 136.0695 
Q 348.409261 134.304105 346.959945 133.483352 
Q 345.510628 132.662598 343.909691 132.662598 
Q 341.037814 132.662598 339.392283 135.86044 
Q 337.75121 139.050539 337.75121 144.664183 
Q 337.75121 150.254599 339.392283 153.45244 
Q 341.037814 156.642539 343.909691 156.642539 
Q 345.510628 156.642539 346.959945 155.821785 
Q 348.409261 154.993289 349.903172 153.227894 
L 349.903172 160.707592 
z
" clip-path="url(#pe30712daee)" style="fill: #0000ff"/>
   </g>
   <g id="patch_50">
    <path d="M 368.534224 191.913236 
Q 367.053691 192.075206 365.452754 192.157132 
Q 363.851817 192.24 362.108177 192.24 
Q 356.908476 192.24 353.8716 191.626023 
Q 350.834725 191.012046 350.834725 189.962071 
Q 350.834725 188.908328 353.8716 188.295293 
Q 356.908476 187.681316 362.108177 187.681316 
Q 363.851817 187.681316 365.452754 187.764184 
Q 367.053691 187.846111 368.534224 188.00808 
L 368.534224 188.916804 
Q 367.040313 188.7021 365.590996 188.602282 
Q 364.14168 188.502463 362.540743 188.502463 
Q 359.668866 188.502463 358.023334 188.891378 
Q 356.382262 189.279351 356.382262 189.962071 
Q 356.382262 190.641965 358.023334 191.03088 
Q 359.668866 191.418853 362.540743 191.418853 
Q 364.14168 191.418853 365.590996 191.319035 
Q 367.040313 191.218275 368.534224 191.003571 
L 368.534224 191.913236 
z
" clip-path="url(#pe30712daee)" style="fill: #0000ff"/>
   </g>
   <g id="patch_51">
    <path d="M 368.534224 179.063966 
Q 366.7492 183.372641 364.829308 185.536816 
Q 362.909416 187.681316 360.86259 187.681316 
Q 356.237396 187.681316 353.53606 174.853662 
Q 350.834725 162.026007 350.834725 140.089144 
Q 350.834725 117.896515 353.583661 105.167232 
Q 356.336563 92.437949 361.124393 92.437949 
Q 362.968917 92.437949 364.658739 94.169288 
Q 366.352528 95.880954 367.851948 99.264937 
L 367.851948 118.250652 
Q 366.304928 113.902628 364.773774 111.758128 
Q 363.242621 109.593953 361.703534 109.593953 
Q 358.85543 109.593953 357.312376 117.503028 
Q 355.769323 125.392429 355.769323 140.089144 
Q 355.769323 154.648138 357.256842 162.596562 
Q 358.744362 170.525312 361.481398 170.525312 
Q 362.227141 170.525312 362.865783 170.072803 
Q 363.504424 169.600619 364.012164 168.616903 
L 364.012164 150.791972 
L 361.096626 150.791972 
L 361.096626 134.914799 
L 368.534224 134.914799 
L 368.534224 179.063966 
z
" clip-path="url(#pe30712daee)" style="fill: #ffa600"/>
   </g>
   <g id="patch_52">
    <path d="M 387.165275 192.16486 
Q 385.380252 192.20243 383.46036 192.221301 
Q 381.540468 192.24 379.493641 192.24 
Q 374.868447 192.24 372.167112 192.128148 
Q 369.465776 192.016297 369.465776 191.825017 
Q 369.465776 191.631507 372.214712 191.520513 
Q 374.967615 191.409519 379.755445 191.409519 
Q 381.599969 191.409519 383.289791 191.424616 
Q 384.98358 191.439541 386.483 191.469048 
L 386.483 191.634595 
Q 384.93598 191.596682 383.404826 191.577983 
Q 381.873673 191.559112 380.334586 191.559112 
Q 377.486482 191.559112 375.943428 191.628076 
Q 374.400374 191.696868 374.400374 191.825017 
Q 374.400374 191.951965 375.887894 192.021272 
Q 377.375414 192.090407 380.112449 192.090407 
Q 380.858193 192.090407 381.496834 192.086461 
Q 382.135476 192.082344 382.643216 192.073767 
L 382.643216 191.918341 
L 379.727678 191.918341 
L 379.727678 191.779899 
L 387.165275 191.779899 
L 387.165275 192.16486 
z
" clip-path="url(#pe30712daee)" style="fill: #ffa600"/>
   </g>
   <g id="patch_53">
    <path d="M 369.465776 190.158269 
L 387.165275 190.158269 
L 387.165275 190.402297 
L 380.797572 190.402297 
L 380.797572 191.409519 
L 375.845828 191.409519 
L 375.845828 190.402297 
L 369.465776 190.402297 
L 369.465776 190.158269 
z
" clip-path="url(#pe30712daee)" style="fill: #ff0000"/>
   </g>
   <g id="patch_54">
    <path d="M 381.726235 189.448022 
L 374.919292 189.448022 
L 373.844512 190.158269 
L 369.465776 190.158269 
L 375.719044 186.259432 
L 380.912007 186.259432 
L 387.165275 190.158269 
L 382.790159 190.158269 
L 381.726235 189.448022 
z
M 376.004929 188.724406 
L 380.629742 188.724406 
L 378.320954 187.173562 
L 376.004929 188.724406 
z
" clip-path="url(#pe30712daee)" style="fill: #008000"/>
   </g>
   <g id="patch_55">
    <path d="M 387.165275 181.106781 
Q 385.684743 183.660833 384.083806 184.952708 
Q 382.482868 186.259432 380.739229 186.259432 
Q 375.539527 186.259432 372.502652 176.577793 
Q 369.465776 166.896153 369.465776 150.339362 
Q 369.465776 133.723174 372.502652 124.056383 
Q 375.539527 114.374744 380.739229 114.374744 
Q 382.482868 114.374744 384.083806 115.681468 
Q 385.684743 116.973343 387.165275 119.527395 
L 387.165275 133.856816 
Q 385.671365 130.471212 384.222048 128.897203 
Q 382.772732 127.323194 381.171794 127.323194 
Q 378.299918 127.323194 376.654386 133.455889 
Q 375.013314 139.573735 375.013314 150.339362 
Q 375.013314 161.060441 376.654386 167.193136 
Q 378.299918 173.310982 381.171794 173.310982 
Q 382.772732 173.310982 384.222048 171.736973 
Q 385.671365 170.148115 387.165275 166.762511 
L 387.165275 181.106781 
z
" clip-path="url(#pe30712daee)" style="fill: #0000ff"/>
   </g>
   <g id="patch_56">
    <path d="M 405.796327 192.094299 
Q 404.315795 192.16652 402.714857 192.20305 
Q 401.11392 192.24 399.370281 192.24 
Q 394.170579 192.24 391.133704 191.966233 
Q 388.096828 191.692466 388.096828 191.224292 
Q 388.096828 190.754437 391.133704 190.48109 
Q 394.170579 190.207323 399.370281 190.207323 
Q 401.11392 190.207323 402.714857 190.244274 
Q 404.315795 190.280804 405.796327 190.353024 
L 405.796327 190.758216 
Q 404.302416 190.662482 402.8531 190.617974 
Q 401.403783 190.573466 399.802846 190.573466 
Q 396.93097 190.573466 395.285438 190.746879 
Q 393.644366 190.919873 393.644366 191.224292 
Q 393.644366 191.52745 395.285438 191.700864 
Q 396.93097 191.873858 399.802846 191.873858 
Q 401.403783 191.873858 402.8531 191.82935 
Q 404.302416 191.784422 405.796327 191.688687 
L 405.796327 192.094299 
z
" clip-path="url(#pe30712daee)" style="fill: #0000ff"/>
   </g>
   <g id="patch_57">
    <path d="M 405.796327 184.280256 
Q 404.011304 187.24379 402.091412 188.732323 
Q 400.17152 190.207323 398.124693 190.207323 
Q 393.499499 190.207323 390.798164 181.384382 
Q 388.096828 172.561442 388.096828 157.47313 
Q 388.096828 142.208901 390.845764 133.45362 
Q 393.598667 124.69834 398.386497 124.69834 
Q 400.231021 124.69834 401.920843 125.889167 
Q 403.614632 127.066461 405.114052 129.393985 
L 405.114052 142.452479 
Q 403.567031 139.461881 402.035878 137.98688 
Q 400.504724 136.498347 398.965637 136.498347 
Q 396.117533 136.498347 394.57448 141.938258 
Q 393.031426 147.364638 393.031426 157.47313 
Q 393.031426 167.486897 394.518946 172.953873 
Q 396.006465 178.407316 398.743501 178.407316 
Q 399.489244 178.407316 400.127886 178.096078 
Q 400.766528 177.771307 401.274268 177.094701 
L 401.274268 164.834602 
L 398.35873 164.834602 
L 398.35873 153.914183 
L 405.796327 153.914183 
L 405.796327 184.280256 
z
" clip-path="url(#pe30712daee)" style="fill: #ffa600"/>
   </g>
   <g id="patch_58">
    <path d="M 424.427379 187.259917 
Q 422.946846 189.728431 421.345909 190.977039 
Q 419.744972 192.24 418.001333 192.24 
Q 412.801631 192.24 409.764755 182.88261 
Q 406.72788 173.52522 406.72788 157.522935 
Q 406.72788 141.463243 409.764755 132.120205 
Q 412.801631 122.762815 418.001333 122.762815 
Q 419.744972 122.762815 421.345909 124.025776 
Q 422.946846 125.274385 424.427379 127.742898 
L 424.427379 141.59241 
Q 422.933468 138.320194 421.484152 136.7989 
Q 420.034835 135.277607 418.433898 135.277607 
Q 415.562021 135.277607 413.91649 141.20491 
Q 412.275417 147.117862 412.275417 157.522935 
Q 412.275417 167.884953 413.91649 173.812257 
Q 415.562021 179.725209 418.433898 179.725209 
Q 420.034835 179.725209 421.484152 178.203915 
Q 422.933468 176.66827 424.427379 173.396054 
L 424.427379 187.259917 
z
" clip-path="url(#pe30712daee)" style="fill: #0000ff"/>
   </g>
   <g id="patch_59">
    <path d="M 425.358932 191.273105 
L 443.058431 191.273105 
L 443.058431 191.461676 
L 436.690727 191.461676 
L 436.690727 192.24 
L 431.738984 192.24 
L 431.738984 191.461676 
L 425.358932 191.461676 
L 425.358932 191.273105 
z
" clip-path="url(#pe30712daee)" style="fill: #ff0000"/>
   </g>
   <g id="patch_60">
    <path d="M 443.058431 189.866235 
Q 441.273407 190.56967 439.353515 190.922993 
Q 437.433623 191.273105 435.386797 191.273105 
Q 430.761603 191.273105 428.060267 189.17886 
Q 425.358932 187.084615 425.358932 183.503199 
Q 425.358932 179.880027 428.107868 177.801843 
Q 430.86077 175.723658 435.6486 175.723658 
Q 437.493124 175.723658 439.182946 176.006317 
Q 440.876735 176.285763 442.376155 176.838233 
L 442.376155 179.937844 
Q 440.829135 179.227985 439.297981 178.877873 
Q 437.766828 178.52455 436.227741 178.52455 
Q 433.379637 178.52455 431.836583 179.815787 
Q 430.29353 181.103811 430.29353 183.503199 
Q 430.29353 185.880103 431.781049 187.177764 
Q 433.268569 188.472213 436.005605 188.472213 
Q 436.751348 188.472213 437.38999 188.398336 
Q 438.028631 188.321247 438.536371 188.160646 
L 438.536371 185.250545 
L 435.620833 185.250545 
L 435.620833 182.658435 
L 443.058431 182.658435 
L 443.058431 189.866235 
z
" clip-path="url(#pe30712daee)" style="fill: #ffa600"/>
   </g>
   <g id="patch_61">
    <path d="M 443.058431 173.58946 
Q 441.577898 174.647333 439.976961 175.18242 
Q 438.376024 175.723658 436.632384 175.723658 
Q 431.432683 175.723658 428.395807 171.713581 
Q 425.358932 167.703504 425.358932 160.84578 
Q 425.358932 153.963455 428.395807 149.959528 
Q 431.432683 145.949451 436.632384 145.949451 
Q 438.376024 145.949451 439.976961 146.490689 
Q 441.577898 147.025776 443.058431 148.083649 
L 443.058431 154.018809 
Q 441.56452 152.616512 440.115203 151.964567 
Q 438.665887 151.312622 437.06495 151.312622 
Q 434.193073 151.312622 432.547541 153.852747 
Q 430.906469 156.386722 430.906469 160.84578 
Q 430.906469 165.286387 432.547541 167.826512 
Q 434.193073 170.360487 437.06495 170.360487 
Q 438.665887 170.360487 440.115203 169.708542 
Q 441.56452 169.050447 443.058431 167.64815 
L 443.058431 173.58946 
z
" clip-path="url(#pe30712daee)" style="fill: #0000ff"/>
   </g>
   <g id="patch_62">
    <path d="M 443.989983 191.04843 
L 461.689482 191.04843 
L 461.689482 191.28082 
L 455.321779 191.28082 
L 455.321779 192.24 
L 450.370035 192.24 
L 450.370035 191.28082 
L 443.989983 191.28082 
L 443.989983 191.04843 
z
" clip-path="url(#pe30712daee)" style="fill: #ff0000"/>
   </g>
   <g id="patch_63">
    <path d="M 461.689482 189.234233 
Q 459.904459 190.141332 457.984567 190.596952 
Q 456.064675 191.04843 454.017848 191.04843 
Q 449.392654 191.04843 446.691319 188.347844 
Q 443.989983 185.647258 443.989983 181.028925 
Q 443.989983 176.356745 446.738919 173.676869 
Q 449.491822 170.996993 454.279652 170.996993 
Q 456.124176 170.996993 457.813998 171.361489 
Q 459.507787 171.721843 461.007207 172.434268 
L 461.007207 176.431301 
Q 459.460187 175.515918 457.929033 175.06444 
Q 456.39788 174.60882 454.858793 174.60882 
Q 452.010689 174.60882 450.467635 176.273905 
Q 448.924581 177.934848 448.924581 181.028925 
Q 448.924581 184.094007 450.412101 185.767376 
Q 451.899621 187.436604 454.636656 187.436604 
Q 455.3824 187.436604 456.021041 187.341338 
Q 456.659683 187.241929 457.167423 187.034829 
L 457.167423 183.282174 
L 454.251885 183.282174 
L 454.251885 179.939578 
L 461.689482 179.939578 
L 461.689482 189.234233 
z
" clip-path="url(#pe30712daee)" style="fill: #ffa600"/>
   </g>
   <g id="patch_64">
    <path d="M 461.689482 168.793877 
Q 460.20895 169.885911 458.608013 170.438278 
Q 457.007075 170.996993 455.263436 170.996993 
Q 450.063734 170.996993 447.026859 166.85742 
Q 443.989983 162.717848 443.989983 155.63867 
Q 443.989983 148.534097 447.026859 144.400873 
Q 450.063734 140.261301 455.263436 140.261301 
Q 457.007075 140.261301 458.608013 140.820016 
Q 460.20895 141.372382 461.689482 142.464417 
L 461.689482 148.591238 
Q 460.195572 147.143658 458.746255 146.47066 
Q 457.296939 145.797662 455.696001 145.797662 
Q 452.824125 145.797662 451.178593 148.419814 
Q 449.537521 151.035618 449.537521 155.63867 
Q 449.537521 160.222676 451.178593 162.844828 
Q 452.824125 165.460632 455.696001 165.460632 
Q 457.296939 165.460632 458.746255 164.787634 
Q 460.195572 164.108287 461.689482 162.660706 
L 461.689482 168.793877 
z
" clip-path="url(#pe30712daee)" style="fill: #0000ff"/>
   </g>
   <g id="patch_65">
    <path d="M 474.881494 191.859121 
L 468.074551 191.859121 
L 466.99977 192.24 
L 462.621035 192.24 
L 468.874303 190.149198 
L 474.067266 190.149198 
L 480.320534 192.24 
L 475.945418 192.24 
L 474.881494 191.859121 
z
M 469.160188 191.471072 
L 473.785 191.471072 
L 471.476213 190.639412 
L 469.160188 191.471072 
z
" clip-path="url(#pe30712daee)" style="fill: #008000"/>
   </g>
   <g id="patch_66">
    <path d="M 462.621035 187.230407 
L 480.320534 187.230407 
L 480.320534 187.799653 
L 473.952831 187.799653 
L 473.952831 190.149198 
L 469.001087 190.149198 
L 469.001087 187.799653 
L 462.621035 187.799653 
L 462.621035 187.230407 
z
" clip-path="url(#pe30712daee)" style="fill: #ff0000"/>
   </g>
   <g id="patch_67">
    <path d="M 480.320534 185.860777 
Q 478.535511 186.545592 476.615619 186.889563 
Q 474.695727 187.230407 472.6489 187.230407 
Q 468.023706 187.230407 465.322371 185.191597 
Q 462.621035 183.152788 462.621035 179.666174 
Q 462.621035 176.138908 465.369971 174.115734 
Q 468.122874 172.092559 472.910704 172.092559 
Q 474.755228 172.092559 476.44505 172.367736 
Q 478.138839 172.639786 479.638259 173.177631 
L 479.638259 176.195194 
Q 478.091238 175.504125 476.560085 175.163281 
Q 475.028931 174.81931 473.489844 174.81931 
Q 470.64174 174.81931 469.098687 176.076368 
Q 467.555633 177.330298 467.555633 179.666174 
Q 467.555633 181.98016 469.043153 183.243471 
Q 470.530672 184.503656 473.267708 184.503656 
Q 474.013451 184.503656 474.652093 184.431734 
Q 475.290735 184.356686 475.798475 184.200336 
L 475.798475 181.367266 
L 472.882937 181.367266 
L 472.882937 178.84377 
L 480.320534 178.84377 
L 480.320534 185.860777 
z
" clip-path="url(#pe30712daee)" style="fill: #ffa600"/>
   </g>
   <g id="patch_68">
    <path d="M 480.320534 169.787319 
Q 478.840002 170.929974 477.239064 171.507945 
Q 475.638127 172.092559 473.894488 172.092559 
Q 468.694786 172.092559 465.657911 167.761099 
Q 462.621035 163.429638 462.621035 156.022309 
Q 462.621035 148.588407 465.657911 144.26359 
Q 468.694786 139.932129 473.894488 139.932129 
Q 475.638127 139.932129 477.239064 140.516744 
Q 478.840002 141.094715 480.320534 142.23737 
L 480.320534 148.648197 
Q 478.826623 147.133515 477.377307 146.42932 
Q 475.92799 145.725126 474.327053 145.725126 
Q 471.455177 145.725126 469.809645 148.468827 
Q 468.168573 151.205885 468.168573 156.022309 
Q 468.168573 160.818804 469.809645 163.562505 
Q 471.455177 166.299563 474.327053 166.299563 
Q 475.92799 166.299563 477.377307 165.595368 
Q 478.826623 164.884531 480.320534 163.369848 
L 480.320534 169.787319 
z
" clip-path="url(#pe30712daee)" style="fill: #0000ff"/>
   </g>
   <g id="patch_69">
    <path d="M 493.512545 191.938895 
L 486.705603 191.938895 
L 485.630822 192.24 
L 481.252087 192.24 
L 487.505355 190.58711 
L 492.698318 190.58711 
L 498.951586 192.24 
L 494.57647 192.24 
L 493.512545 191.938895 
z
M 487.791239 191.632122 
L 492.416052 191.632122 
L 490.107265 190.97465 
L 487.791239 191.632122 
z
" clip-path="url(#pe30712daee)" style="fill: #008000"/>
   </g>
   <g id="patch_70">
    <path d="M 481.252087 183.925473 
L 498.951586 183.925473 
L 498.951586 185.224678 
L 492.583882 185.224678 
L 492.583882 190.58711 
L 487.632139 190.58711 
L 487.632139 185.224678 
L 481.252087 185.224678 
L 481.252087 183.925473 
z
" clip-path="url(#pe30712daee)" style="fill: #ff0000"/>
   </g>
   <g id="patch_71">
    <path d="M 498.951586 183.333978 
Q 497.471053 183.627169 495.870116 183.775468 
Q 494.269179 183.925473 492.52554 183.925473 
Q 487.325838 183.925473 484.288962 182.814076 
Q 481.252087 181.702678 481.252087 179.802053 
Q 481.252087 177.894609 484.288962 176.784916 
Q 487.325838 175.673519 492.52554 175.673519 
Q 494.269179 175.673519 495.870116 175.823523 
Q 497.471053 175.971823 498.951586 176.265014 
L 498.951586 177.90995 
Q 497.457675 177.521302 496.008359 177.340614 
Q 494.559042 177.159927 492.958105 177.159927 
Q 490.086228 177.159927 488.440697 177.863926 
Q 486.799624 178.56622 486.799624 179.802053 
Q 486.799624 181.032772 488.440697 181.73677 
Q 490.086228 182.439064 492.958105 182.439064 
Q 494.559042 182.439064 496.008359 182.258377 
Q 497.457675 182.075985 498.951586 181.687337 
L 498.951586 183.333978 
z
" clip-path="url(#pe30712daee)" style="fill: #0000ff"/>
   </g>
   <g id="patch_72">
    <path d="M 498.951586 172.062074 
Q 497.166563 173.867796 495.246671 174.77478 
Q 493.326779 175.673519 491.279952 175.673519 
Q 486.654758 175.673519 483.953422 170.297579 
Q 481.252087 164.921639 481.252087 155.728122 
Q 481.252087 146.427417 484.001023 141.092703 
Q 486.753926 135.75799 491.541755 135.75799 
Q 493.38628 135.75799 495.076102 136.483577 
Q 496.769891 137.200919 498.26931 138.619112 
L 498.26931 146.575832 
Q 496.72229 144.75362 495.191137 143.854881 
Q 493.659983 142.947897 492.120896 142.947897 
Q 489.272792 142.947897 487.729739 146.262511 
Q 486.186685 149.568878 486.186685 155.728122 
Q 486.186685 161.829649 487.674205 165.160753 
Q 489.161724 168.483611 491.89876 168.483611 
Q 492.644503 168.483611 493.283145 168.293969 
Q 493.921787 168.096082 494.429527 167.683817 
L 494.429527 160.213569 
L 491.513988 160.213569 
L 491.513988 153.559607 
L 498.951586 153.559607 
L 498.951586 172.062074 
z
" clip-path="url(#pe30712daee)" style="fill: #ffa600"/>
   </g>
   <g id="patch_73">
    <path d="M 499.883139 188.528024 
L 517.582638 188.528024 
L 517.582638 189.251963 
L 511.214934 189.251963 
L 511.214934 192.24 
L 506.263191 192.24 
L 506.263191 189.251963 
L 499.883139 189.251963 
L 499.883139 188.528024 
z
" clip-path="url(#pe30712daee)" style="fill: #ff0000"/>
   </g>
   <g id="patch_74">
    <path d="M 512.143597 186.730516 
L 505.336654 186.730516 
L 504.261874 188.528024 
L 499.883139 188.528024 
L 506.136407 178.660764 
L 511.32937 178.660764 
L 517.582638 188.528024 
L 513.207521 188.528024 
L 512.143597 186.730516 
z
M 506.422291 184.899173 
L 511.047104 184.899173 
L 508.738316 180.974262 
L 506.422291 184.899173 
z
" clip-path="url(#pe30712daee)" style="fill: #008000"/>
   </g>
   <g id="patch_75">
    <path d="M 517.582638 177.161685 
Q 515.797614 177.911224 513.877722 178.287705 
Q 511.957831 178.660764 509.911004 178.660764 
Q 505.28581 178.660764 502.584474 176.429258 
Q 499.883139 174.197752 499.883139 170.381604 
Q 499.883139 166.520962 502.632075 164.306569 
Q 505.384978 162.092176 510.172807 162.092176 
Q 512.017331 162.092176 513.707153 162.393361 
Q 515.400942 162.691123 516.900362 163.279803 
L 516.900362 166.582568 
Q 515.353342 165.826184 513.822188 165.453125 
Q 512.291035 165.076644 510.751948 165.076644 
Q 507.903844 165.076644 506.36079 166.452511 
Q 504.817737 167.824956 504.817737 170.381604 
Q 504.817737 172.914294 506.305256 174.297007 
Q 507.792776 175.676296 510.529812 175.676296 
Q 511.275555 175.676296 511.914197 175.597577 
Q 512.552838 175.515436 513.060578 175.344308 
L 513.060578 172.243474 
L 510.14504 172.243474 
L 510.14504 169.481472 
L 517.582638 169.481472 
L 517.582638 177.161685 
z
" clip-path="url(#pe30712daee)" style="fill: #ffa600"/>
   </g>
   <g id="patch_76">
    <path d="M 517.582638 160.337722 
Q 516.102105 161.207365 514.501168 161.647243 
Q 512.900231 162.092176 511.156591 162.092176 
Q 505.95689 162.092176 502.920014 158.795623 
Q 499.883139 155.49907 499.883139 149.86156 
Q 499.883139 144.203825 502.920014 140.912328 
Q 505.95689 137.615775 511.156591 137.615775 
Q 512.900231 137.615775 514.501168 138.060709 
Q 516.102105 138.500586 517.582638 139.370229 
L 517.582638 144.24933 
Q 516.088727 143.096548 514.63941 142.560605 
Q 513.190094 142.024662 511.589157 142.024662 
Q 508.71728 142.024662 507.071748 144.112816 
Q 505.430676 146.195914 505.430676 149.86156 
Q 505.430676 153.512037 507.071748 155.600191 
Q 508.71728 157.683289 511.589157 157.683289 
Q 513.190094 157.683289 514.63941 157.147347 
Q 516.088727 156.606348 517.582638 155.453566 
L 517.582638 160.337722 
z
" clip-path="url(#pe30712daee)" style="fill: #0000ff"/>
   </g>
   <g id="patch_77">
    <path d="M 530.774649 191.879272 
L 523.967706 191.879272 
L 522.892926 192.24 
L 518.51419 192.24 
L 524.767458 190.259817 
L 529.960421 190.259817 
L 536.213689 192.24 
L 531.838573 192.24 
L 530.774649 191.879272 
z
M 525.053343 191.511754 
L 529.678156 191.511754 
L 527.369368 190.724095 
L 525.053343 191.511754 
z
" clip-path="url(#pe30712daee)" style="fill: #008000"/>
   </g>
   <g id="patch_78">
    <path d="M 518.51419 187.803756 
L 536.213689 187.803756 
L 536.213689 188.282756 
L 529.845986 188.282756 
L 529.845986 190.259817 
L 524.894242 190.259817 
L 524.894242 188.282756 
L 518.51419 188.282756 
L 518.51419 187.803756 
z
" clip-path="url(#pe30712daee)" style="fill: #ff0000"/>
   </g>
   <g id="patch_79">
    <path d="M 536.213689 187.467438 
Q 534.733157 187.634143 533.13222 187.718465 
Q 531.531282 187.803756 529.787643 187.803756 
Q 524.587941 187.803756 521.551066 187.171827 
Q 518.51419 186.539899 518.51419 185.459225 
Q 518.51419 184.374673 521.551066 183.743714 
Q 524.587941 183.111786 529.787643 183.111786 
Q 531.531282 183.111786 533.13222 183.197077 
Q 534.733157 183.281399 536.213689 183.448104 
L 536.213689 184.383396 
Q 534.719779 184.162415 533.270462 184.059678 
Q 531.821146 183.956941 530.220208 183.956941 
Q 527.348332 183.956941 525.7028 184.357227 
Q 524.061728 184.756544 524.061728 185.459225 
Q 524.061728 186.158998 525.7028 186.559284 
Q 527.348332 186.9586 530.220208 186.9586 
Q 531.821146 186.9586 533.270462 186.855863 
Q 534.719779 186.752157 536.213689 186.531176 
L 536.213689 187.467438 
z
" clip-path="url(#pe30712daee)" style="fill: #0000ff"/>
   </g>
   <g id="patch_80">
    <path d="M 536.213689 178.176563 
Q 534.428666 180.644174 532.508774 181.883614 
Q 530.588882 183.111786 528.542055 183.111786 
Q 523.916861 183.111786 521.215526 175.76529 
Q 518.51419 168.418793 518.51419 155.855383 
Q 518.51419 143.145494 521.263126 135.855336 
Q 524.016029 128.565178 528.803859 128.565178 
Q 530.648383 128.565178 532.338205 129.55673 
Q 534.031994 130.537014 535.531414 132.475046 
L 535.531414 143.348311 
Q 533.984394 140.858165 532.45324 139.629993 
Q 530.922087 138.390553 529.383 138.390553 
Q 526.534896 138.390553 524.991842 142.920141 
Q 523.448788 147.438462 523.448788 155.855383 
Q 523.448788 164.193431 524.936308 168.745555 
Q 526.423828 173.286411 529.160864 173.286411 
Q 529.906607 173.286411 530.545248 173.027255 
Q 531.18389 172.756832 531.69163 172.19345 
L 531.69163 161.984975 
L 528.776092 161.984975 
L 528.776092 152.891996 
L 536.213689 152.891996 
L 536.213689 178.176563 
z
" clip-path="url(#pe30712daee)" style="fill: #ffa600"/>
   </g>
   <g id="patch_81">
    <path d="M 537.145242 179.914999 
L 554.844741 179.914999 
L 554.844741 182.318718 
L 548.477038 182.318718 
L 548.477038 192.24 
L 543.525294 192.24 
L 543.525294 182.318718 
L 537.145242 182.318718 
L 537.145242 179.914999 
z
" clip-path="url(#pe30712daee)" style="fill: #ff0000"/>
   </g>
   <g id="patch_82">
    <path d="M 549.405701 177.431062 
L 542.598758 177.431062 
L 541.523977 179.914999 
L 537.145242 179.914999 
L 543.39851 166.279644 
L 548.591473 166.279644 
L 554.844741 179.914999 
L 550.469625 179.914999 
L 549.405701 177.431062 
z
M 543.684395 174.900368 
L 548.309208 174.900368 
L 546.00042 169.476617 
L 543.684395 174.900368 
z
" clip-path="url(#pe30712daee)" style="fill: #008000"/>
   </g>
   <g id="patch_83">
    <path d="M 554.844741 164.593425 
Q 553.059718 165.436535 551.139826 165.860014 
Q 549.219934 166.279644 547.173107 166.279644 
Q 542.547913 166.279644 539.846578 163.769565 
Q 537.145242 161.259486 537.145242 156.966943 
Q 537.145242 152.624353 539.894178 150.133523 
Q 542.647081 147.642693 547.434911 147.642693 
Q 549.279435 147.642693 550.969257 147.981477 
Q 552.663046 148.31641 554.162466 148.978579 
L 554.162466 152.693649 
Q 552.615445 151.84284 551.084292 151.423211 
Q 549.553138 150.999731 548.014052 150.999731 
Q 545.165947 150.999731 543.622894 152.547356 
Q 542.07984 154.091132 542.07984 156.966943 
Q 542.07984 159.815806 543.56736 161.371131 
Q 545.054879 162.922606 547.791915 162.922606 
Q 548.537658 162.922606 549.1763 162.83406 
Q 549.814942 162.741665 550.322682 162.549174 
L 550.322682 159.061242 
L 547.407144 159.061242 
L 547.407144 155.954442 
L 554.844741 155.954442 
L 554.844741 164.593425 
z
" clip-path="url(#pe30712daee)" style="fill: #ffa600"/>
   </g>
   <g id="patch_84">
    <path d="M 554.844741 146.010651 
Q 553.364209 146.819617 551.763271 147.228803 
Q 550.162334 147.642693 548.418695 147.642693 
Q 543.218993 147.642693 540.182118 144.576146 
Q 537.145242 141.5096 537.145242 136.265429 
Q 537.145242 131.002445 540.182118 127.940601 
Q 543.218993 124.874055 548.418695 124.874055 
Q 550.162334 124.874055 551.763271 125.287944 
Q 553.364209 125.697131 554.844741 126.506097 
L 554.844741 131.044774 
Q 553.35083 129.972423 551.901514 129.473874 
Q 550.452197 128.975325 548.85126 128.975325 
Q 545.979384 128.975325 544.333852 130.917785 
Q 542.69278 132.855542 542.69278 136.265429 
Q 542.69278 139.661206 544.333852 141.603666 
Q 545.979384 143.541422 548.85126 143.541422 
Q 550.452197 143.541422 551.901514 143.042873 
Q 553.35083 142.539621 554.844741 141.46727 
L 554.844741 146.010651 
z
" clip-path="url(#pe30712daee)" style="fill: #0000ff"/>
   </g>
   <g id="patch_85">
    <path d="M 568.036752 192.174421 
L 561.22981 192.174421 
L 560.155029 192.24 
L 555.776294 192.24 
L 562.029562 191.880008 
L 567.222525 191.880008 
L 573.475793 192.24 
L 569.100677 192.24 
L 568.036752 192.174421 
z
M 562.315446 192.107607 
L 566.940259 192.107607 
L 564.631472 191.964413 
L 562.315446 192.107607 
z
" clip-path="url(#pe30712daee)" style="fill: #008000"/>
   </g>
   <g id="patch_86">
    <path d="M 555.776294 186.652236 
L 573.475793 186.652236 
L 573.475793 187.671797 
L 567.108089 187.671797 
L 567.108089 191.880008 
L 562.156346 191.880008 
L 562.156346 187.671797 
L 555.776294 187.671797 
L 555.776294 186.652236 
z
" clip-path="url(#pe30712daee)" style="fill: #ff0000"/>
   </g>
   <g id="patch_87">
    <path d="M 573.475793 185.01564 
Q 571.99526 185.826864 570.394323 186.237192 
Q 568.793386 186.652236 567.049747 186.652236 
Q 561.850045 186.652236 558.813169 183.577134 
Q 555.776294 180.502031 555.776294 175.243229 
Q 555.776294 169.965561 558.813169 166.895175 
Q 561.850045 163.820072 567.049747 163.820072 
Q 568.793386 163.820072 570.394323 164.235117 
Q 571.99526 164.645445 573.475793 165.456668 
L 573.475793 170.008008 
Q 571.981882 168.932666 570.532566 168.432726 
Q 569.083249 167.932786 567.482312 167.932786 
Q 564.610435 167.932786 562.964904 169.880665 
Q 561.323831 171.823828 561.323831 175.243229 
Q 561.323831 178.64848 562.964904 180.59636 
Q 564.610435 182.539522 567.482312 182.539522 
Q 569.083249 182.539522 570.532566 182.039583 
Q 571.981882 181.534926 573.475793 180.459584 
L 573.475793 185.01564 
z
" clip-path="url(#pe30712daee)" style="fill: #0000ff"/>
   </g>
   <g id="patch_88">
    <path d="M 573.475793 160.642572 
Q 571.69077 162.231322 569.770878 163.029324 
Q 567.850986 163.820072 565.804159 163.820072 
Q 561.178965 163.820072 558.477629 159.090095 
Q 555.776294 154.360119 555.776294 146.271278 
Q 555.776294 138.088128 558.52523 133.394425 
Q 561.278133 128.700721 566.065962 128.700721 
Q 567.910487 128.700721 569.600309 129.339122 
Q 571.294098 129.97027 572.793517 131.218055 
L 572.793517 138.218711 
Q 571.246497 136.615452 569.715344 135.824704 
Q 568.18419 135.026702 566.645103 135.026702 
Q 563.796999 135.026702 562.253946 137.943037 
Q 560.710892 140.852118 560.710892 146.271278 
Q 560.710892 151.639657 562.198412 154.570501 
Q 563.685931 157.494091 566.422967 157.494091 
Q 567.16871 157.494091 567.807352 157.327236 
Q 568.445994 157.153126 568.953734 156.790398 
L 568.953734 150.217762 
L 566.038195 150.217762 
L 566.038195 144.363327 
L 573.475793 144.363327 
L 573.475793 160.642572 
z
" clip-path="url(#pe30712daee)" style="fill: #ffa600"/>
   </g>
   <g id="patch_89">
    <path d="M 574.407346 188.768213 
L 592.106845 188.768213 
L 592.106845 189.445308 
L 585.739141 189.445308 
L 585.739141 192.24 
L 580.787398 192.24 
L 580.787398 189.445308 
L 574.407346 189.445308 
L 574.407346 188.768213 
z
" clip-path="url(#pe30712daee)" style="fill: #ff0000"/>
   </g>
   <g id="patch_90">
    <path d="M 586.667804 187.417019 
L 579.860861 187.417019 
L 578.786081 188.768213 
L 574.407346 188.768213 
L 580.660614 181.350952 
L 585.853577 181.350952 
L 592.106845 188.768213 
L 587.731728 188.768213 
L 586.667804 187.417019 
z
M 580.946498 186.04039 
L 585.571311 186.04039 
L 583.262523 183.090018 
L 580.946498 186.04039 
z
" clip-path="url(#pe30712daee)" style="fill: #008000"/>
   </g>
   <g id="patch_91">
    <path d="M 592.106845 179.883515 
Q 590.626312 180.61089 589.025375 180.978806 
Q 587.424438 181.350952 585.680798 181.350952 
Q 580.481097 181.350952 577.444221 178.593693 
Q 574.407346 175.836435 574.407346 171.121184 
Q 574.407346 166.389018 577.444221 163.635989 
Q 580.481097 160.87873 585.680798 160.87873 
Q 587.424438 160.87873 589.025375 161.250876 
Q 590.626312 161.618792 592.106845 162.346167 
L 592.106845 166.427079 
Q 590.612934 165.462884 589.163617 165.014618 
Q 587.714301 164.566352 586.113364 164.566352 
Q 583.241487 164.566352 581.595955 166.312898 
Q 579.954883 168.055214 579.954883 171.121184 
Q 579.954883 174.174467 581.595955 175.921013 
Q 583.241487 177.66333 586.113364 177.66333 
Q 587.714301 177.66333 589.163617 177.215064 
Q 590.612934 176.762569 592.106845 175.798374 
L 592.106845 179.883515 
z
" clip-path="url(#pe30712daee)" style="fill: #0000ff"/>
   </g>
   <g id="patch_92">
    <path d="M 592.106845 158.296434 
Q 590.321821 159.587582 588.401929 160.236104 
Q 586.482038 160.87873 584.435211 160.87873 
Q 579.810017 160.87873 577.108681 157.034763 
Q 574.407346 153.190797 574.407346 146.617142 
Q 574.407346 139.966844 577.156282 136.152355 
Q 579.909185 132.337867 584.697014 132.337867 
Q 586.541538 132.337867 588.23136 132.856684 
Q 589.925149 133.369606 591.424569 134.383659 
L 591.424569 140.072965 
Q 589.877549 138.770026 588.346395 138.127399 
Q 586.815242 137.478877 585.276155 137.478877 
Q 582.428051 137.478877 580.884997 139.84893 
Q 579.341944 142.213088 579.341944 146.617142 
Q 579.341944 150.979926 580.829463 153.361771 
Q 582.316983 155.737719 585.054019 155.737719 
Q 585.799762 155.737719 586.438404 155.602119 
Q 587.077045 155.460624 587.584785 155.165841 
L 587.584785 149.824378 
L 584.669247 149.824378 
L 584.669247 145.066585 
L 592.106845 145.066585 
L 592.106845 158.296434 
z
" clip-path="url(#pe30712daee)" style="fill: #ffa600"/>
   </g>
   <g id="patch_93">
    <path d="M 605.298856 191.692578 
L 598.491913 191.692578 
L 597.417133 192.24 
L 593.038397 192.24 
L 599.291665 189.234978 
L 604.484628 189.234978 
L 610.737896 192.24 
L 606.36278 192.24 
L 605.298856 191.692578 
z
M 599.57755 191.134853 
L 604.202363 191.134853 
L 601.893575 189.939541 
L 599.57755 191.134853 
z
" clip-path="url(#pe30712daee)" style="fill: #008000"/>
   </g>
   <g id="patch_94">
    <path d="M 593.038397 183.292034 
L 610.737896 183.292034 
L 610.737896 184.451074 
L 604.370193 184.451074 
L 604.370193 189.234978 
L 599.418449 189.234978 
L 599.418449 184.451074 
L 593.038397 184.451074 
L 593.038397 183.292034 
z
" clip-path="url(#pe30712daee)" style="fill: #ff0000"/>
   </g>
   <g id="patch_95">
    <path d="M 610.737896 181.742282 
Q 608.952873 182.517158 607.032981 182.906365 
Q 605.113089 183.292034 603.066262 183.292034 
Q 598.441068 183.292034 595.739733 180.985097 
Q 593.038397 178.678159 593.038397 174.733012 
Q 593.038397 170.741867 595.787333 168.452621 
Q 598.540236 166.163374 603.328066 166.163374 
Q 605.17259 166.163374 606.862412 166.47474 
Q 608.556201 166.782567 610.055621 167.391146 
L 610.055621 170.805556 
Q 608.508601 170.023603 606.977447 169.637934 
Q 605.446294 169.248727 603.907207 169.248727 
Q 601.059103 169.248727 599.516049 170.671102 
Q 597.972995 172.08994 597.972995 174.733012 
Q 597.972995 177.351315 599.460515 178.780768 
Q 600.948035 180.206682 603.685071 180.206682 
Q 604.430814 180.206682 605.069455 180.125302 
Q 605.708097 180.040384 606.215837 179.863472 
L 606.215837 176.657819 
L 603.300299 176.657819 
L 603.300299 173.802452 
L 610.737896 173.802452 
L 610.737896 181.742282 
z
" clip-path="url(#pe30712daee)" style="fill: #ffa600"/>
   </g>
   <g id="patch_96">
    <path d="M 610.737896 164.655592 
Q 609.257364 165.402965 607.656427 165.780997 
Q 606.055489 166.163374 604.31185 166.163374 
Q 599.112148 166.163374 596.075273 163.330308 
Q 593.038397 160.497242 593.038397 155.652352 
Q 593.038397 150.790082 596.075273 147.961361 
Q 599.112148 145.128295 604.31185 145.128295 
Q 606.055489 145.128295 607.656427 145.510672 
Q 609.257364 145.888704 610.737896 146.636077 
L 610.737896 150.829188 
Q 609.243986 149.838484 607.794669 149.377894 
Q 606.345353 148.917304 604.744415 148.917304 
Q 601.872539 148.917304 600.227007 150.711868 
Q 598.585935 152.502088 598.585935 155.652352 
Q 598.585935 158.789582 600.227007 160.584146 
Q 601.872539 162.374366 604.744415 162.374366 
Q 606.345353 162.374366 607.794669 161.913775 
Q 609.243986 161.44884 610.737896 160.458136 
L 610.737896 164.655592 
z
" clip-path="url(#pe30712daee)" style="fill: #0000ff"/>
   </g>
   <g id="patch_97">
    <path d="M 629.368948 191.834872 
Q 627.583925 192.037436 625.664033 192.13918 
Q 623.744141 192.24 621.697314 192.24 
Q 617.07212 192.24 614.370785 191.636932 
Q 611.669449 191.033865 611.669449 190.002545 
Q 611.669449 188.959201 614.418385 188.360758 
Q 617.171288 187.762315 621.959118 187.762315 
Q 623.803642 187.762315 625.493464 187.843711 
Q 627.187253 187.924181 628.686673 188.083273 
L 628.686673 188.97585 
Q 627.139652 188.771436 625.608499 188.670616 
Q 624.077345 188.568872 622.538259 188.568872 
Q 619.690154 188.568872 618.147101 188.940702 
Q 616.604047 189.311607 616.604047 190.002545 
Q 616.604047 190.687008 618.091567 191.060688 
Q 619.579086 191.433443 622.316122 191.433443 
Q 623.061865 191.433443 623.700507 191.412169 
Q 624.339149 191.389971 624.846889 191.343723 
L 624.846889 190.505718 
L 621.931351 190.505718 
L 621.931351 189.759283 
L 629.368948 189.759283 
L 629.368948 191.834872 
z
" clip-path="url(#pe30712daee)" style="fill: #ffa600"/>
   </g>
   <g id="patch_98">
    <path d="M 611.669449 183.088564 
L 629.368948 183.088564 
L 629.368948 184.000076 
L 623.001245 184.000076 
L 623.001245 187.762315 
L 618.049501 187.762315 
L 618.049501 184.000076 
L 611.669449 184.000076 
L 611.669449 183.088564 
z
" clip-path="url(#pe30712daee)" style="fill: #ff0000"/>
   </g>
   <g id="patch_99">
    <path d="M 623.929908 181.99538 
L 617.122965 181.99538 
L 616.048184 183.088564 
L 611.669449 183.088564 
L 617.922717 177.087623 
L 623.11568 177.087623 
L 629.368948 183.088564 
L 624.993832 183.088564 
L 623.929908 181.99538 
z
M 618.208602 180.881617 
L 622.833415 180.881617 
L 620.524627 178.494616 
L 618.208602 180.881617 
z
" clip-path="url(#pe30712daee)" style="fill: #008000"/>
   </g>
   <g id="patch_100">
    <path d="M 629.368948 175.70001 
Q 627.888416 176.387818 626.287478 176.735721 
Q 624.686541 177.087623 622.942902 177.087623 
Q 617.7432 177.087623 614.706325 174.480349 
Q 611.669449 171.873076 611.669449 167.414318 
Q 611.669449 162.939565 614.706325 160.336291 
Q 617.7432 157.729017 622.942902 157.729017 
Q 624.686541 157.729017 626.287478 158.080919 
Q 627.888416 158.428822 629.368948 159.116631 
L 629.368948 162.975555 
Q 627.875037 162.063809 626.425721 161.639928 
Q 624.976404 161.216046 623.375467 161.216046 
Q 620.503591 161.216046 618.858059 162.867586 
Q 617.216987 164.515126 617.216987 167.414318 
Q 617.216987 170.301514 618.858059 171.953054 
Q 620.503591 173.600595 623.375467 173.600595 
Q 624.976404 173.600595 626.425721 173.176713 
Q 627.875037 172.748832 629.368948 171.837086 
L 629.368948 175.70001 
z
" clip-path="url(#pe30712daee)" style="fill: #0000ff"/>
   </g>
   <g id="patch_101">
    <path d="M 648 192.04983 
Q 646.214977 192.144915 644.295085 192.192675 
Q 642.375193 192.24 640.328366 192.24 
Q 635.703172 192.24 633.001836 191.956916 
Q 630.300501 191.673832 630.300501 191.189724 
Q 630.300501 190.699971 633.049437 190.419058 
Q 635.80234 190.138145 640.590169 190.138145 
Q 642.434694 190.138145 644.124516 190.176352 
Q 645.818305 190.214126 647.317724 190.288805 
L 647.317724 190.707786 
Q 645.770704 190.611833 644.239551 190.564507 
Q 642.708397 190.516748 641.16931 190.516748 
Q 638.321206 190.516748 636.778153 190.691287 
Q 635.235099 190.865393 635.235099 191.189724 
Q 635.235099 191.511015 636.722619 191.686423 
Q 638.210138 191.861397 640.947174 191.861397 
Q 641.692917 191.861397 642.331559 191.851411 
Q 642.970201 191.840991 643.477941 191.819282 
L 643.477941 191.425916 
L 640.562402 191.425916 
L 640.562402 191.075535 
L 648 191.075535 
L 648 192.04983 
z
" clip-path="url(#pe30712daee)" style="fill: #ffa600"/>
   </g>
   <g id="patch_102">
    <path d="M 648 189.768186 
Q 646.519467 189.951566 644.91853 190.044322 
Q 643.317593 190.138145 641.573954 190.138145 
Q 636.374252 190.138145 633.337376 189.443006 
Q 630.300501 188.747867 630.300501 187.559094 
Q 630.300501 186.366056 633.337376 185.671983 
Q 636.374252 184.976844 641.573954 184.976844 
Q 643.317593 184.976844 644.91853 185.070667 
Q 646.519467 185.163423 648 185.346803 
L 648 186.375652 
Q 646.506089 186.132566 645.056773 186.019553 
Q 643.607456 185.906539 642.006519 185.906539 
Q 639.134642 185.906539 637.489111 186.346865 
Q 635.848038 186.786125 635.848038 187.559094 
Q 635.848038 188.328864 637.489111 188.76919 
Q 639.134642 189.20845 642.006519 189.20845 
Q 643.607456 189.20845 645.056773 189.095436 
Q 646.506089 188.981357 648 188.738271 
L 648 189.768186 
z
" clip-path="url(#pe30712daee)" style="fill: #0000ff"/>
   </g>
   <g id="patch_103">
    <path d="M 630.300501 179.198206 
L 648 179.198206 
L 648 180.325201 
L 641.632296 180.325201 
L 641.632296 184.976844 
L 636.680553 184.976844 
L 636.680553 180.325201 
L 630.300501 180.325201 
L 630.300501 179.198206 
z
" clip-path="url(#pe30712daee)" style="fill: #ff0000"/>
   </g>
   <g id="patch_104">
    <path d="M 642.560959 175.863409 
L 635.754017 175.863409 
L 634.679236 179.198206 
L 630.300501 179.198206 
L 636.553769 160.89213 
L 641.746732 160.89213 
L 648 179.198206 
L 643.624884 179.198206 
L 642.560959 175.863409 
z
M 636.839653 172.465838 
L 641.464466 172.465838 
L 639.155679 165.18421 
L 636.839653 172.465838 
z
" clip-path="url(#pe30712daee)" style="fill: #008000"/>
   </g>
   <g id="patch_105">
    <path d="M 107.699499 193.864153 
Q 105.914476 193.052076 103.994584 192.644184 
Q 102.074692 192.24 100.027865 192.24 
Q 95.402671 192.24 92.701335 194.657689 
Q 90 197.075377 90 201.209922 
Q 90 205.392671 92.748936 207.79182 
Q 95.501839 210.190968 100.289668 210.190968 
Q 102.134193 210.190968 103.824015 209.864654 
Q 105.517804 209.542048 107.017224 208.904253 
L 107.017224 205.325925 
Q 105.470203 206.145418 103.93905 206.549602 
Q 102.407896 206.957494 100.868809 206.957494 
Q 98.020705 206.957494 96.477652 205.466834 
Q 94.934598 203.979881 94.934598 201.209922 
Q 94.934598 198.465919 96.422118 196.967842 
Q 97.909637 195.473473 100.646673 195.473473 
Q 101.392416 195.473473 102.031058 195.55876 
Q 102.6697 195.647754 103.17744 195.83316 
L 103.17744 199.192709 
L 100.261901 199.192709 
L 100.261901 202.185155 
L 107.699499 202.185155 
L 107.699499 193.864153 
z
" clip-path="url(#pe30712daee)" style="fill: #ffa600"/>
   </g>
   <g id="patch_106">
    <path d="M 144.961603 193.834657 
Q 143.176579 193.677582 141.256687 193.598685 
Q 139.336795 193.520506 137.289969 193.520506 
Q 132.664774 193.520506 129.963439 193.988146 
Q 127.262104 194.455785 127.262104 195.255506 
Q 127.262104 196.06455 130.01104 196.528603 
Q 132.763942 196.992656 137.551772 196.992656 
Q 139.396296 196.992656 141.086118 196.929539 
Q 142.779907 196.86714 144.279327 196.743775 
L 144.279327 196.05164 
Q 142.732307 196.21015 141.201153 196.288329 
Q 139.67 196.367225 138.130913 196.367225 
Q 135.282809 196.367225 133.739755 196.078895 
Q 132.196702 195.791282 132.196702 195.255506 
Q 132.196702 194.724749 133.684221 194.434985 
Q 135.171741 194.145938 137.908777 194.145938 
Q 138.65452 194.145938 139.293162 194.162435 
Q 139.931803 194.179648 140.439543 194.21551 
L 140.439543 194.865328 
L 137.524005 194.865328 
L 137.524005 195.444139 
L 144.961603 195.444139 
L 144.961603 193.834657 
z
" clip-path="url(#pe30712daee)" style="fill: #ffa600"/>
   </g>
   <g id="patch_107">
    <path d="M 127.262104 193.520506 
L 144.961603 193.520506 
L 144.961603 193.270772 
L 138.593899 193.270772 
L 138.593899 192.24 
L 133.642156 192.24 
L 133.642156 193.270772 
L 127.262104 193.270772 
L 127.262104 193.520506 
z
" clip-path="url(#pe30712daee)" style="fill: #ff0000"/>
   </g>
   <g id="patch_108">
    <path d="M 163.592654 192.264843 
Q 161.807631 192.252421 159.887739 192.246182 
Q 157.967847 192.24 155.92102 192.24 
Q 151.295826 192.24 148.594491 192.276981 
Q 145.893155 192.313962 145.893155 192.377203 
Q 145.893155 192.441182 148.642091 192.47788 
Q 151.394994 192.514577 156.182824 192.514577 
Q 158.027348 192.514577 159.71717 192.509586 
Q 161.410959 192.504651 162.910379 192.494895 
L 162.910379 192.440162 
Q 161.363358 192.452696 159.832205 192.458879 
Q 158.301052 192.465118 156.761965 192.465118 
Q 153.913861 192.465118 152.370807 192.442317 
Q 150.827753 192.419573 150.827753 192.377203 
Q 150.827753 192.335231 152.315273 192.312317 
Q 153.802792 192.289459 156.539828 192.289459 
Q 157.285572 192.289459 157.924213 192.290764 
Q 158.562855 192.292125 159.070595 192.294961 
L 159.070595 192.346348 
L 156.155057 192.346348 
L 156.155057 192.39212 
L 163.592654 192.39212 
L 163.592654 192.264843 
z
" clip-path="url(#pe30712daee)" style="fill: #ffa600"/>
   </g>
   <g id="patch_109">
    <path d="M 288.570976 192.266367 
L 281.764033 192.266367 
L 280.689253 192.24 
L 276.310518 192.24 
L 282.563786 192.384739 
L 287.756749 192.384739 
L 294.010017 192.24 
L 289.6349 192.24 
L 288.570976 192.266367 
z
M 282.84967 192.29323 
L 287.474483 192.29323 
L 285.165695 192.350803 
L 282.84967 192.29323 
z
" clip-path="url(#pe30712daee)" style="fill: #008000"/>
   </g>
   <g id="patch_110">
    <path d="M 307.202028 192.29813 
L 300.395085 192.29813 
L 299.320305 192.24 
L 294.941569 192.24 
L 301.194837 192.5591 
L 306.3878 192.5591 
L 312.641068 192.24 
L 308.265952 192.24 
L 307.202028 192.29813 
z
M 301.480722 192.357354 
L 306.105535 192.357354 
L 303.796747 192.484283 
L 301.480722 192.357354 
z
" clip-path="url(#pe30712daee)" style="fill: #008000"/>
   </g>
   <g id="patch_111">
    <path d="M 313.572621 196.152738 
L 331.27212 196.152738 
L 331.27212 195.389645 
L 324.904417 195.389645 
L 324.904417 192.24 
L 319.952673 192.24 
L 319.952673 195.389645 
L 313.572621 195.389645 
L 313.572621 196.152738 
z
" clip-path="url(#pe30712daee)" style="fill: #ff0000"/>
   </g>
   <g id="patch_112">
    <path d="M 363.095183 192.240404 
L 356.28824 192.240404 
L 355.21346 192.24 
L 350.834725 192.24 
L 357.087993 192.242217 
L 362.280956 192.242217 
L 368.534224 192.24 
L 364.159107 192.24 
L 363.095183 192.240404 
z
M 357.373877 192.240815 
L 361.99869 192.240815 
L 359.689902 192.241697 
L 357.373877 192.240815 
z
" clip-path="url(#pe30712daee)" style="fill: #008000"/>
   </g>
   <g id="patch_113">
    <path d="M 350.834725 193.611731 
L 368.534224 193.611731 
L 368.534224 193.344638 
L 362.16652 193.344638 
L 362.16652 192.242217 
L 357.214777 192.242217 
L 357.214777 193.344638 
L 350.834725 193.344638 
L 350.834725 193.611731 
z
" clip-path="url(#pe30712daee)" style="fill: #ff0000"/>
   </g>
   <g id="patch_114">
    <path d="M 388.096828 195.876241 
L 405.796327 195.876241 
L 405.796327 195.167072 
L 399.428624 195.167072 
L 399.428624 192.24 
L 394.47688 192.24 
L 394.47688 195.167072 
L 388.096828 195.167072 
L 388.096828 195.876241 
z
" clip-path="url(#pe30712daee)" style="fill: #ff0000"/>
   </g>
   <g id="patch_115">
    <path d="M 418.988338 193.245301 
L 412.181395 193.245301 
L 411.106615 193.078792 
L 406.72788 193.078792 
L 412.981148 193.992826 
L 418.174111 193.992826 
L 424.427379 193.078792 
L 420.052263 193.078792 
L 418.988338 193.245301 
z
M 413.267032 193.414943 
L 417.891845 193.414943 
L 415.583058 193.778519 
L 413.267032 193.414943 
z
" clip-path="url(#pe30712daee)" style="fill: #008000"/>
   </g>
   <g id="patch_116">
    <path d="M 424.427379 192.315892 
Q 422.642356 192.277946 420.722464 192.258886 
Q 418.802572 192.24 416.755745 192.24 
Q 412.130551 192.24 409.429215 192.352971 
Q 406.72788 192.465942 406.72788 192.659136 
Q 406.72788 192.854583 409.476816 192.966687 
Q 412.229719 193.078792 417.017548 193.078792 
Q 418.862073 193.078792 420.551895 193.063545 
Q 422.245684 193.04847 423.745103 193.018668 
L 423.745103 192.851464 
Q 422.198083 192.889756 420.66693 192.908643 
Q 419.135776 192.927702 417.596689 192.927702 
Q 414.748585 192.927702 413.205532 192.858048 
Q 411.662478 192.788568 411.662478 192.659136 
Q 411.662478 192.530918 413.149997 192.460917 
Q 414.637517 192.39109 417.374553 192.39109 
Q 418.120296 192.39109 418.758938 192.395075 
Q 419.39758 192.399234 419.90532 192.407897 
L 419.90532 192.564878 
L 416.989781 192.564878 
L 416.989781 192.704706 
L 424.427379 192.704706 
L 424.427379 192.315892 
z
" clip-path="url(#pe30712daee)" style="fill: #ffa600"/>
   </g>
   <g id="patch_117">
    <path d="M 406.72788 196.633255 
L 424.427379 196.633255 
L 424.427379 196.118297 
L 418.059675 196.118297 
L 418.059675 193.992826 
L 413.107932 193.992826 
L 413.107932 196.118297 
L 406.72788 196.118297 
L 406.72788 196.633255 
z
" clip-path="url(#pe30712daee)" style="fill: #ff0000"/>
   </g>
   <g id="patch_118">
    <path d="M 437.61939 192.276338 
L 430.812447 192.276338 
L 429.737667 192.24 
L 425.358932 192.24 
L 431.6122 192.439473 
L 436.805163 192.439473 
L 443.058431 192.24 
L 438.683314 192.24 
L 437.61939 192.276338 
z
M 431.898084 192.31336 
L 436.522897 192.31336 
L 434.214109 192.392704 
L 431.898084 192.31336 
z
" clip-path="url(#pe30712daee)" style="fill: #008000"/>
   </g>
   <g id="patch_119">
    <path d="M 456.250442 192.800088 
L 449.443499 192.800088 
L 448.368719 192.24 
L 443.989983 192.24 
L 450.243251 195.314554 
L 455.436214 195.314554 
L 461.689482 192.24 
L 457.314366 192.24 
L 456.250442 192.800088 
z
M 450.529136 193.370719 
L 455.153949 193.370719 
L 452.845161 194.593688 
L 450.529136 193.370719 
z
" clip-path="url(#pe30712daee)" style="fill: #008000"/>
   </g>
   <g id="matplotlib.axis_1">
    <g id="xtick_1">
     <g id="line2d_2">
      <defs>
       <path id="m18aca36bf3" d="M 0 0 
L 0 3.5 
" style="stroke: #000000; stroke-width: 0.8"/>
      </defs>
      <g>
       <use xlink:href="#m18aca36bf3" x="98.84975" y="192.24" style="stroke: #000000; stroke-width: 0.8"/>
      </g>
     </g>
     <g id="text_1">
      <!-- 0 -->
      <g transform="translate(95.6685 206.838437) scale(0.1 -0.1)">
       <defs>
        <path id="DejaVuSans-30" d="M 2034 4250 
Q 1547 4250 1301 3770 
Q 1056 3291 1056 2328 
Q 1056 1369 1301 889 
Q 1547 409 2034 409 
Q 2525 409 2770 889 
Q 3016 1369 3016 2328 
Q 3016 3291 2770 3770 
Q 2525 4250 2034 4250 
z
M 2034 4750 
Q 2819 4750 3233 4129 
Q 3647 3509 3647 2328 
Q 3647 1150 3233 529 
Q 2819 -91 2034 -91 
Q 1250 -91 836 529 
Q 422 1150 422 2328 
Q 422 3509 836 4129 
Q 1250 4750 2034 4750 
z
" transform="scale(0.015625)"/>
       </defs>
       <use xlink:href="#DejaVuSans-30"/>
      </g>
     </g>
    </g>
    <g id="xtick_2">
     <g id="line2d_3">
      <g>
       <use xlink:href="#m18aca36bf3" x="192.005008" y="192.24" style="stroke: #000000; stroke-width: 0.8"/>
      </g>
     </g>
     <g id="text_2">
      <!-- 5 -->
      <g transform="translate(188.823758 206.838437) scale(0.1 -0.1)">
       <defs>
        <path id="DejaVuSans-35" d="M 691 4666 
L 3169 4666 
L 3169 4134 
L 1269 4134 
L 1269 2991 
Q 1406 3038 1543 3061 
Q 1681 3084 1819 3084 
Q 2600 3084 3056 2656 
Q 3513 2228 3513 1497 
Q 3513 744 3044 326 
Q 2575 -91 1722 -91 
Q 1428 -91 1123 -41 
Q 819 9 494 109 
L 494 744 
Q 775 591 1075 516 
Q 1375 441 1709 441 
Q 2250 441 2565 725 
Q 2881 1009 2881 1497 
Q 2881 1984 2565 2268 
Q 2250 2553 1709 2553 
Q 1456 2553 1204 2497 
Q 953 2441 691 2322 
L 691 4666 
z
" transform="scale(0.015625)"/>
       </defs>
       <use xlink:href="#DejaVuSans-35"/>
      </g>
     </g>
    </g>
    <g id="xtick_3">
     <g id="line2d_4">
      <g>
       <use xlink:href="#m18aca36bf3" x="285.160267" y="192.24" style="stroke: #000000; stroke-width: 0.8"/>
      </g>
     </g>
     <g id="text_3">
      <!-- 10 -->
      <g transform="translate(278.797767 206.838437) scale(0.1 -0.1)">
       <defs>
        <path id="DejaVuSans-31" d="M 794 531 
L 1825 531 
L 1825 4091 
L 703 3866 
L 703 4441 
L 1819 4666 
L 2450 4666 
L 2450 531 
L 3481 531 
L 3481 0 
L 794 0 
L 794 531 
z
" transform="scale(0.015625)"/>
       </defs>
       <use xlink:href="#DejaVuSans-31"/>
       <use xlink:href="#DejaVuSans-30" x="63.623047"/>
      </g>
     </g>
    </g>
    <g id="xtick_4">
     <g id="line2d_5">
      <g>
       <use xlink:href="#m18aca36bf3" x="378.315526" y="192.24" style="stroke: #000000; stroke-width: 0.8"/>
      </g>
     </g>
     <g id="text_4">
      <!-- 15 -->
      <g transform="translate(371.953026 206.838437) scale(0.1 -0.1)">
       <use xlink:href="#DejaVuSans-31"/>
       <use xlink:href="#DejaVuSans-35" x="63.623047"/>
      </g>
     </g>
    </g>
    <g id="xtick_5">
     <g id="line2d_6">
      <g>
       <use xlink:href="#m18aca36bf3" x="471.470785" y="192.24" style="stroke: #000000; stroke-width: 0.8"/>
      </g>
     </g>
     <g id="text_5">
      <!-- 20 -->
      <g transform="translate(465.108285 206.838437) scale(0.1 -0.1)">
       <defs>
        <path id="DejaVuSans-32" d="M 1228 531 
L 3431 531 
L 3431 0 
L 469 0 
L 469 531 
Q 828 903 1448 1529 
Q 2069 2156 2228 2338 
Q 2531 2678 2651 2914 
Q 2772 3150 2772 3378 
Q 2772 3750 2511 3984 
Q 2250 4219 1831 4219 
Q 1534 4219 1204 4116 
Q 875 4013 500 3803 
L 500 4441 
Q 881 4594 1212 4672 
Q 1544 4750 1819 4750 
Q 2544 4750 2975 4387 
Q 3406 4025 3406 3419 
Q 3406 3131 3298 2873 
Q 3191 2616 2906 2266 
Q 2828 2175 2409 1742 
Q 1991 1309 1228 531 
z
" transform="scale(0.015625)"/>
       </defs>
       <use xlink:href="#DejaVuSans-32"/>
       <use xlink:href="#DejaVuSans-30" x="63.623047"/>
      </g>
     </g>
    </g>
    <g id="xtick_6">
     <g id="line2d_7">
      <g>
       <use xlink:href="#m18aca36bf3" x="564.626043" y="192.24" style="stroke: #000000; stroke-width: 0.8"/>
      </g>
     </g>
     <g id="text_6">
      <!-- 25 -->
      <g transform="translate(558.263543 206.838437) scale(0.1 -0.1)">
       <use xlink:href="#DejaVuSans-32"/>
       <use xlink:href="#DejaVuSans-35" x="63.623047"/>
      </g>
     </g>
    </g>
   </g>
   <g id="matplotlib.axis_2">
    <g id="ytick_1">
     <g id="line2d_8">
      <defs>
       <path id="ma75c713799" d="M 0 0 
L -3.5 0 
" style="stroke: #000000; stroke-width: 0.8"/>
      </defs>
      <g>
       <use xlink:href="#ma75c713799" x="90" y="192.24" style="stroke: #000000; stroke-width: 0.8"/>
      </g>
     </g>
     <g id="text_7">
      <!-- 0.000 -->
      <g transform="translate(54.371875 196.039219) scale(0.1 -0.1)">
       <defs>
        <path id="DejaVuSans-2e" d="M 684 794 
L 1344 794 
L 1344 0 
L 684 0 
L 684 794 
z
" transform="scale(0.015625)"/>
       </defs>
       <use xlink:href="#DejaVuSans-30"/>
       <use xlink:href="#DejaVuSans-2e" x="63.623047"/>
       <use xlink:href="#DejaVuSans-30" x="95.410156"/>
       <use xlink:href="#DejaVuSans-30" x="159.033203"/>
       <use xlink:href="#DejaVuSans-30" x="222.65625"/>
      </g>
     </g>
    </g>
    <g id="ytick_2">
     <g id="line2d_9">
      <g>
       <use xlink:href="#ma75c713799" x="90" y="166.490118" style="stroke: #000000; stroke-width: 0.8"/>
      </g>
     </g>
     <g id="text_8">
      <!-- 0.002 -->
      <g transform="translate(54.371875 170.289336) scale(0.1 -0.1)">
       <use xlink:href="#DejaVuSans-30"/>
       <use xlink:href="#DejaVuSans-2e" x="63.623047"/>
       <use xlink:href="#DejaVuSans-30" x="95.410156"/>
       <use xlink:href="#DejaVuSans-30" x="159.033203"/>
       <use xlink:href="#DejaVuSans-32" x="222.65625"/>
      </g>
     </g>
    </g>
    <g id="ytick_3">
     <g id="line2d_10">
      <g>
       <use xlink:href="#ma75c713799" x="90" y="140.740235" style="stroke: #000000; stroke-width: 0.8"/>
      </g>
     </g>
     <g id="text_9">
      <!-- 0.004 -->
      <g transform="translate(54.371875 144.539454) scale(0.1 -0.1)">
       <defs>
        <path id="DejaVuSans-34" d="M 2419 4116 
L 825 1625 
L 2419 1625 
L 2419 4116 
z
M 2253 4666 
L 3047 4666 
L 3047 1625 
L 3713 1625 
L 3713 1100 
L 3047 1100 
L 3047 0 
L 2419 0 
L 2419 1100 
L 313 1100 
L 313 1709 
L 2253 4666 
z
" transform="scale(0.015625)"/>
       </defs>
       <use xlink:href="#DejaVuSans-30"/>
       <use xlink:href="#DejaVuSans-2e" x="63.623047"/>
       <use xlink:href="#DejaVuSans-30" x="95.410156"/>
       <use xlink:href="#DejaVuSans-30" x="159.033203"/>
       <use xlink:href="#DejaVuSans-34" x="222.65625"/>
      </g>
     </g>
    </g>
    <g id="ytick_4">
     <g id="line2d_11">
      <g>
       <use xlink:href="#ma75c713799" x="90" y="114.990353" style="stroke: #000000; stroke-width: 0.8"/>
      </g>
     </g>
     <g id="text_10">
      <!-- 0.006 -->
      <g transform="translate(54.371875 118.789571) scale(0.1 -0.1)">
       <defs>
        <path id="DejaVuSans-36" d="M 2113 2584 
Q 1688 2584 1439 2293 
Q 1191 2003 1191 1497 
Q 1191 994 1439 701 
Q 1688 409 2113 409 
Q 2538 409 2786 701 
Q 3034 994 3034 1497 
Q 3034 2003 2786 2293 
Q 2538 2584 2113 2584 
z
M 3366 4563 
L 3366 3988 
Q 3128 4100 2886 4159 
Q 2644 4219 2406 4219 
Q 1781 4219 1451 3797 
Q 1122 3375 1075 2522 
Q 1259 2794 1537 2939 
Q 1816 3084 2150 3084 
Q 2853 3084 3261 2657 
Q 3669 2231 3669 1497 
Q 3669 778 3244 343 
Q 2819 -91 2113 -91 
Q 1303 -91 875 529 
Q 447 1150 447 2328 
Q 447 3434 972 4092 
Q 1497 4750 2381 4750 
Q 2619 4750 2861 4703 
Q 3103 4656 3366 4563 
z
" transform="scale(0.015625)"/>
       </defs>
       <use xlink:href="#DejaVuSans-30"/>
       <use xlink:href="#DejaVuSans-2e" x="63.623047"/>
       <use xlink:href="#DejaVuSans-30" x="95.410156"/>
       <use xlink:href="#DejaVuSans-30" x="159.033203"/>
       <use xlink:href="#DejaVuSans-36" x="222.65625"/>
      </g>
     </g>
    </g>
    <g id="ytick_5">
     <g id="line2d_12">
      <g>
       <use xlink:href="#ma75c713799" x="90" y="89.24047" style="stroke: #000000; stroke-width: 0.8"/>
      </g>
     </g>
     <g id="text_11">
      <!-- 0.008 -->
      <g transform="translate(54.371875 93.039689) scale(0.1 -0.1)">
       <defs>
        <path id="DejaVuSans-38" d="M 2034 2216 
Q 1584 2216 1326 1975 
Q 1069 1734 1069 1313 
Q 1069 891 1326 650 
Q 1584 409 2034 409 
Q 2484 409 2743 651 
Q 3003 894 3003 1313 
Q 3003 1734 2745 1975 
Q 2488 2216 2034 2216 
z
M 1403 2484 
Q 997 2584 770 2862 
Q 544 3141 544 3541 
Q 544 4100 942 4425 
Q 1341 4750 2034 4750 
Q 2731 4750 3128 4425 
Q 3525 4100 3525 3541 
Q 3525 3141 3298 2862 
Q 3072 2584 2669 2484 
Q 3125 2378 3379 2068 
Q 3634 1759 3634 1313 
Q 3634 634 3220 271 
Q 2806 -91 2034 -91 
Q 1263 -91 848 271 
Q 434 634 434 1313 
Q 434 1759 690 2068 
Q 947 2378 1403 2484 
z
M 1172 3481 
Q 1172 3119 1398 2916 
Q 1625 2713 2034 2713 
Q 2441 2713 2670 2916 
Q 2900 3119 2900 3481 
Q 2900 3844 2670 4047 
Q 2441 4250 2034 4250 
Q 1625 4250 1398 4047 
Q 1172 3844 1172 3481 
z
" transform="scale(0.015625)"/>
       </defs>
       <use xlink:href="#DejaVuSans-30"/>
       <use xlink:href="#DejaVuSans-2e" x="63.623047"/>
       <use xlink:href="#DejaVuSans-30" x="95.410156"/>
       <use xlink:href="#DejaVuSans-30" x="159.033203"/>
       <use xlink:href="#DejaVuSans-38" x="222.65625"/>
      </g>
     </g>
    </g>
    <g id="ytick_6">
     <g id="line2d_13">
      <g>
       <use xlink:href="#ma75c713799" x="90" y="63.490588" style="stroke: #000000; stroke-width: 0.8"/>
      </g>
     </g>
     <g id="text_12">
      <!-- 0.010 -->
      <g transform="translate(54.371875 67.289806) scale(0.1 -0.1)">
       <use xlink:href="#DejaVuSans-30"/>
       <use xlink:href="#DejaVuSans-2e" x="63.623047"/>
       <use xlink:href="#DejaVuSans-30" x="95.410156"/>
       <use xlink:href="#DejaVuSans-31" x="159.033203"/>
       <use xlink:href="#DejaVuSans-30" x="222.65625"/>
      </g>
     </g>
    </g>
    <g id="ytick_7">
     <g id="line2d_14">
      <g>
       <use xlink:href="#ma75c713799" x="90" y="37.740705" style="stroke: #000000; stroke-width: 0.8"/>
      </g>
     </g>
     <g id="text_13">
      <!-- 0.012 -->
      <g transform="translate(54.371875 41.539924) scale(0.1 -0.1)">
       <use xlink:href="#DejaVuSans-30"/>
       <use xlink:href="#DejaVuSans-2e" x="63.623047"/>
       <use xlink:href="#DejaVuSans-30" x="95.410156"/>
       <use xlink:href="#DejaVuSans-31" x="159.033203"/>
       <use xlink:href="#DejaVuSans-32" x="222.65625"/>
      </g>
     </g>
    </g>
   </g>
  </g>
 </g>
 <defs>
  <clipPath id="pe30712daee">
   <rect x="90" y="25.92" width="558" height="166.32"/>
  </clipPath>
 </defs>
</svg>
