<?xml version="1.0" encoding="utf-8" standalone="no"?>
<!DOCTYPE svg PUBLIC "-//W3C//DTD SVG 1.1//EN"
  "http://www.w3.org/Graphics/SVG/1.1/DTD/svg11.dtd">
<svg xmlns:xlink="http://www.w3.org/1999/xlink" width="720pt" height="216pt" viewBox="0 0 720 216" xmlns="http://www.w3.org/2000/svg" version="1.1">
 <metadata>
  <rdf:RDF xmlns:dc="http://purl.org/dc/elements/1.1/" xmlns:cc="http://creativecommons.org/ns#" xmlns:rdf="http://www.w3.org/1999/02/22-rdf-syntax-ns#">
   <cc:Work>
    <dc:type rdf:resource="http://purl.org/dc/dcmitype/StillImage"/>
    <dc:date>2024-11-23T04:41:48.822562</dc:date>
    <dc:format>image/svg+xml</dc:format>
    <dc:creator>
     <cc:Agent>
      <dc:title>Matplotlib v3.7.2, https://matplotlib.org/</dc:title>
     </cc:Agent>
    </dc:creator>
   </cc:Work>
  </rdf:RDF>
 </metadata>
 <defs>
  <style type="text/css">*{stroke-linejoin: round; stroke-linecap: butt}</style>
 </defs>
 <g id="figure_1">
  <g id="patch_1">
   <path d="M 0 216 
L 720 216 
L 720 0 
L 0 0 
z
" style="fill: #ffffff"/>
  </g>
  <g id="axes_1">
   <g id="patch_2">
    <path d="M 90 192.24 
L 648 192.24 
L 648 25.92 
L 90 25.92 
z
" style="fill: #ffffff"/>
   </g>
   <g id="line2d_1">
    <path d="M 90 192.24 
L 648 192.24 
" clip-path="url(#p26de46f5e0)" style="fill: none; stroke: #000000; stroke-width: 0.5; stroke-linecap: square"/>
   </g>
   <g id="patch_3">
    <path d="M 90 192.18159 
L 111.246493 192.18159 
L 111.246493 192.192982 
L 103.602697 192.192982 
L 103.602697 192.24 
L 97.65862 192.24 
L 97.65862 192.192982 
L 90 192.192982 
L 90 192.18159 
z
" clip-path="url(#p26de46f5e0)" style="fill: #ff0000"/>
   </g>
   <g id="patch_4">
    <path d="M 104.717464 191.083795 
L 96.546405 191.083795 
L 95.256237 192.18159 
L 90 192.18159 
L 97.506428 186.155341 
L 103.740065 186.155341 
L 111.246493 192.18159 
L 105.9946 192.18159 
L 104.717464 191.083795 
z
M 97.849604 189.965336 
L 103.401233 189.965336 
L 100.629762 187.568268 
L 97.849604 189.965336 
z
" clip-path="url(#p26de46f5e0)" style="fill: #008000"/>
   </g>
   <g id="patch_5">
    <path d="M 111.246493 184.013391 
Q 109.103749 185.084366 106.79911 185.622299 
Q 104.49447 186.155341 102.037457 186.155341 
Q 96.485371 186.155341 93.242685 182.966868 
Q 90 179.778396 90 174.325716 
Q 90 168.809463 93.299825 165.645442 
Q 96.604412 162.481421 102.351726 162.481421 
Q 104.565895 162.481421 106.594359 162.911767 
Q 108.627584 163.337223 110.427489 164.178354 
L 110.427489 168.897489 
Q 108.570444 167.816733 106.732447 167.283691 
Q 104.894449 166.745759 103.046928 166.745759 
Q 99.628061 166.745759 97.775778 168.711657 
Q 95.923496 170.672666 95.923496 174.325716 
Q 95.923496 177.944535 97.709115 179.920214 
Q 99.494735 181.891003 102.780275 181.891003 
Q 103.675466 181.891003 104.442092 181.778526 
Q 105.208718 181.661159 105.818209 181.416645 
L 105.818209 176.986037 
L 102.318395 176.986037 
L 102.318395 173.039569 
L 111.246493 173.039569 
L 111.246493 184.013391 
z
" clip-path="url(#p26de46f5e0)" style="fill: #ffa600"/>
   </g>
   <g id="patch_6">
    <path d="M 112.364729 191.305611 
L 133.611222 191.305611 
L 133.611222 191.487843 
L 125.967426 191.487843 
L 125.967426 192.24 
L 120.023349 192.24 
L 120.023349 191.487843 
L 112.364729 191.487843 
L 112.364729 191.305611 
z
" clip-path="url(#p26de46f5e0)" style="fill: #ff0000"/>
   </g>
   <g id="patch_7">
    <path d="M 127.082194 189.800277 
L 118.911134 189.800277 
L 117.620967 191.305611 
L 112.364729 191.305611 
L 119.871158 183.042211 
L 126.104794 183.042211 
L 133.611222 191.305611 
L 128.359329 191.305611 
L 127.082194 189.800277 
z
M 120.214333 188.266607 
L 125.765963 188.266607 
L 122.994492 184.979665 
L 120.214333 188.266607 
z
" clip-path="url(#p26de46f5e0)" style="fill: #008000"/>
   </g>
   <g id="patch_8">
    <path d="M 133.611222 180.756098 
Q 131.468479 181.899154 129.163839 182.473293 
Q 126.859199 183.042211 124.402187 183.042211 
Q 118.8501 183.042211 115.607415 179.639138 
Q 112.364729 176.236065 112.364729 170.416393 
Q 112.364729 164.528867 115.664555 161.151891 
Q 118.969141 157.774915 124.716456 157.774915 
Q 126.930624 157.774915 128.959088 158.234226 
Q 130.992314 158.688317 132.792218 159.58606 
L 132.792218 164.622817 
Q 130.935174 163.469322 129.097176 162.900403 
Q 127.259178 162.326265 125.411657 162.326265 
Q 121.992791 162.326265 120.140508 164.424479 
Q 118.288225 166.517473 118.288225 170.416393 
Q 118.288225 174.278776 120.073845 176.387429 
Q 121.859464 178.490862 125.145004 178.490862 
Q 126.040195 178.490862 126.806821 178.370815 
Q 127.573447 178.245548 128.182939 177.984577 
L 128.182939 173.255766 
L 124.683124 173.255766 
L 124.683124 169.043681 
L 133.611222 169.043681 
L 133.611222 180.756098 
z
" clip-path="url(#p26de46f5e0)" style="fill: #ffa600"/>
   </g>
   <g id="patch_9">
    <path d="M 149.446923 190.890379 
L 141.275864 190.890379 
L 139.985696 192.24 
L 134.729459 192.24 
L 142.235887 184.831374 
L 148.469524 184.831374 
L 155.975952 192.24 
L 150.724059 192.24 
L 149.446923 190.890379 
z
M 142.579063 189.515353 
L 148.130692 189.515353 
L 145.359221 186.568416 
L 142.579063 189.515353 
z
" clip-path="url(#p26de46f5e0)" style="fill: #008000"/>
   </g>
   <g id="patch_10">
    <path d="M 155.975952 181.794216 
Q 153.833208 183.312795 151.528569 184.075551 
Q 149.223929 184.831374 146.766916 184.831374 
Q 141.214829 184.831374 137.972144 180.310308 
Q 134.729459 175.789242 134.729459 168.057665 
Q 134.729459 160.235944 138.029284 155.749549 
Q 141.333871 151.263155 147.081185 151.263155 
Q 149.295354 151.263155 151.323818 151.87336 
Q 153.357043 152.476631 155.156948 153.669305 
L 155.156948 160.360759 
Q 153.299903 158.828312 151.461905 158.07249 
Q 149.623908 157.309733 147.776386 157.309733 
Q 144.35752 157.309733 142.505237 160.097261 
Q 140.652954 162.877855 140.652954 168.057665 
Q 140.652954 173.188936 142.438574 175.990333 
Q 144.224194 178.784795 147.509734 178.784795 
Q 148.404925 178.784795 149.171551 178.62531 
Q 149.938177 178.45889 150.547668 178.112183 
L 150.547668 171.829843 
L 147.047854 171.829843 
L 147.047854 166.233984 
L 155.975952 166.233984 
L 155.975952 181.794216 
z
" clip-path="url(#p26de46f5e0)" style="fill: #ffa600"/>
   </g>
   <g id="patch_11">
    <path d="M 157.094188 189.924256 
L 178.340681 189.924256 
L 178.340681 190.375891 
L 170.696885 190.375891 
L 170.696885 192.24 
L 164.752808 192.24 
L 164.752808 190.375891 
L 157.094188 190.375891 
L 157.094188 189.924256 
z
" clip-path="url(#p26de46f5e0)" style="fill: #ff0000"/>
   </g>
   <g id="patch_12">
    <path d="M 178.340681 189.724209 
Q 176.563449 189.823368 174.641682 189.873524 
Q 172.719916 189.924256 170.62685 189.924256 
Q 164.385124 189.924256 160.739656 189.548376 
Q 157.094188 189.172496 157.094188 188.529696 
Q 157.094188 187.884589 160.739656 187.509286 
Q 164.385124 187.133406 170.62685 187.133406 
Q 172.719916 187.133406 174.641682 187.184138 
Q 176.563449 187.234294 178.340681 187.333452 
L 178.340681 187.889777 
Q 176.54739 187.758335 174.807629 187.697225 
Q 173.067868 187.636116 171.146102 187.636116 
Q 167.698699 187.636116 165.723401 187.874212 
Q 163.753457 188.111731 163.753457 188.529696 
Q 163.753457 188.945931 165.723401 189.184026 
Q 167.698699 189.421545 171.146102 189.421545 
Q 173.067868 189.421545 174.807629 189.360436 
Q 176.54739 189.29875 178.340681 189.167308 
L 178.340681 189.724209 
z
" clip-path="url(#p26de46f5e0)" style="fill: #0000ff"/>
   </g>
   <g id="patch_13">
    <path d="M 171.811653 185.027155 
L 163.640593 185.027155 
L 162.350426 187.133406 
L 157.094188 187.133406 
L 164.600616 175.571328 
L 170.834253 175.571328 
L 178.340681 187.133406 
L 173.088788 187.133406 
L 171.811653 185.027155 
z
M 164.943792 182.881257 
L 170.495421 182.881257 
L 167.723951 178.282196 
L 164.943792 182.881257 
z
" clip-path="url(#p26de46f5e0)" style="fill: #008000"/>
   </g>
   <g id="patch_14">
    <path d="M 178.340681 172.868474 
Q 176.197938 174.219901 173.893298 174.8987 
Q 171.588658 175.571328 169.131646 175.571328 
Q 163.579559 175.571328 160.336874 171.547902 
Q 157.094188 167.524476 157.094188 160.643924 
Q 157.094188 153.68315 160.394013 149.690578 
Q 163.6986 145.698007 169.445915 145.698007 
Q 171.660083 145.698007 173.688547 146.241046 
Q 175.721773 146.777914 177.521677 147.839309 
L 177.521677 153.794226 
Q 175.664633 152.430457 173.826635 151.757829 
Q 171.988637 151.079031 170.141116 151.079031 
Q 166.72225 151.079031 164.869967 153.559732 
Q 163.017684 156.034262 163.017684 160.643924 
Q 163.017684 165.210389 164.803304 167.703432 
Q 166.588923 170.190304 169.874463 170.190304 
Q 170.769654 170.190304 171.53628 170.048373 
Q 172.302906 169.900272 172.912398 169.591727 
L 172.912398 164.000893 
L 169.412583 164.000893 
L 169.412583 159.020977 
L 178.340681 159.020977 
L 178.340681 172.868474 
z
" clip-path="url(#p26de46f5e0)" style="fill: #ffa600"/>
   </g>
   <g id="patch_15">
    <path d="M 179.458918 185.857692 
L 200.705411 185.857692 
L 200.705411 187.10242 
L 193.061614 187.10242 
L 193.061614 192.24 
L 187.117537 192.24 
L 187.117537 187.10242 
L 179.458918 187.10242 
L 179.458918 185.857692 
z
" clip-path="url(#p26de46f5e0)" style="fill: #ff0000"/>
   </g>
   <g id="patch_16">
    <path d="M 194.176382 184.655821 
L 186.005322 184.655821 
L 184.715155 185.857692 
L 179.458918 185.857692 
L 186.965346 179.260129 
L 193.198983 179.260129 
L 200.705411 185.857692 
L 195.453518 185.857692 
L 194.176382 184.655821 
z
M 187.308522 183.431327 
L 192.860151 183.431327 
L 190.08868 180.807007 
L 187.308522 183.431327 
z
" clip-path="url(#p26de46f5e0)" style="fill: #008000"/>
   </g>
   <g id="patch_17">
    <path d="M 200.705411 175.185097 
Q 198.562667 177.222613 196.258027 178.246022 
Q 193.953388 179.260129 191.496375 179.260129 
Q 185.944288 179.260129 182.701603 173.194099 
Q 179.458918 167.12807 179.458918 156.754415 
Q 179.458918 146.259812 182.758743 140.240301 
Q 186.06333 134.22079 191.810644 134.22079 
Q 194.024813 134.22079 196.053276 135.039518 
Q 198.086502 135.848942 199.886407 137.449183 
L 199.886407 146.427279 
Q 198.029362 144.371156 196.191364 143.357049 
Q 194.353367 142.33364 192.505845 142.33364 
Q 189.086979 142.33364 187.234696 146.073737 
Q 185.382413 149.804532 185.382413 156.754415 
Q 185.382413 163.639172 187.168033 167.397878 
Q 188.953653 171.147279 192.239193 171.147279 
Q 193.134384 171.147279 193.90101 170.933294 
Q 194.667636 170.710004 195.277127 170.244818 
L 195.277127 161.815642 
L 191.777313 161.815642 
L 191.777313 154.307535 
L 200.705411 154.307535 
L 200.705411 175.185097 
z
" clip-path="url(#p26de46f5e0)" style="fill: #ffa600"/>
   </g>
   <g id="patch_18">
    <path d="M 201.823647 191.3471 
L 223.07014 191.3471 
L 223.07014 191.52124 
L 215.426344 191.52124 
L 215.426344 192.24 
L 209.482267 192.24 
L 209.482267 191.52124 
L 201.823647 191.52124 
L 201.823647 191.3471 
z
" clip-path="url(#p26de46f5e0)" style="fill: #ff0000"/>
   </g>
   <g id="patch_19">
    <path d="M 223.07014 191.191005 
Q 221.292908 191.268378 219.371141 191.307514 
Q 217.449375 191.3471 215.356309 191.3471 
Q 209.114583 191.3471 205.469115 191.053804 
Q 201.823647 190.760508 201.823647 190.258935 
Q 201.823647 189.755563 205.469115 189.462717 
Q 209.114583 189.169421 215.356309 189.169421 
Q 217.449375 189.169421 219.371141 189.209007 
Q 221.292908 189.248143 223.07014 189.325516 
L 223.07014 189.759612 
Q 221.276848 189.657048 219.537088 189.609365 
Q 217.797327 189.561682 215.875561 189.561682 
Q 212.428158 189.561682 210.45286 189.747466 
Q 208.482916 189.932801 208.482916 190.258935 
Q 208.482916 190.58372 210.45286 190.769504 
Q 212.428158 190.954839 215.875561 190.954839 
Q 217.797327 190.954839 219.537088 190.907156 
Q 221.276848 190.859023 223.07014 190.756459 
L 223.07014 191.191005 
z
" clip-path="url(#p26de46f5e0)" style="fill: #0000ff"/>
   </g>
   <g id="patch_20">
    <path d="M 216.541112 188.082452 
L 208.370052 188.082452 
L 207.079885 189.169421 
L 201.823647 189.169421 
L 209.330075 183.202601 
L 215.563712 183.202601 
L 223.07014 189.169421 
L 217.818247 189.169421 
L 216.541112 188.082452 
z
M 209.673251 186.975022 
L 215.22488 186.975022 
L 212.45341 184.601594 
L 209.673251 186.975022 
z
" clip-path="url(#p26de46f5e0)" style="fill: #008000"/>
   </g>
   <g id="patch_21">
    <path d="M 223.07014 178.036968 
Q 220.927397 180.619785 218.622757 181.917089 
Q 216.318117 183.202601 213.861105 183.202601 
Q 208.309018 183.202601 205.066333 175.51312 
Q 201.823647 167.82364 201.823647 154.673685 
Q 201.823647 141.370413 205.123472 133.739901 
Q 208.428059 126.109389 214.175374 126.109389 
Q 216.389542 126.109389 218.418006 127.147233 
Q 220.451231 128.173283 222.251136 130.201796 
L 222.251136 141.582699 
Q 220.394092 138.976295 218.556094 137.690784 
Q 216.718096 136.393479 214.870575 136.393479 
Q 211.451708 136.393479 209.599426 141.134539 
Q 207.747143 145.863805 207.747143 154.673685 
Q 207.747143 163.40101 209.532763 168.165657 
Q 211.318382 172.918511 214.603922 172.918511 
Q 215.499113 172.918511 216.265739 172.647256 
Q 217.032365 172.364208 217.641857 171.774523 
L 217.641857 161.089448 
L 214.142042 161.089448 
L 214.142042 151.571947 
L 223.07014 151.571947 
L 223.07014 178.036968 
z
" clip-path="url(#p26de46f5e0)" style="fill: #ffa600"/>
   </g>
   <g id="patch_22">
    <path d="M 238.905841 190.837847 
L 230.734781 190.837847 
L 229.444614 192.24 
L 224.188377 192.24 
L 231.694805 184.543003 
L 237.928442 184.543003 
L 245.43487 192.24 
L 240.182976 192.24 
L 238.905841 190.837847 
z
M 232.037981 189.4093 
L 237.58961 189.4093 
L 234.818139 186.347657 
L 232.037981 189.4093 
z
" clip-path="url(#p26de46f5e0)" style="fill: #008000"/>
   </g>
   <g id="patch_23">
    <path d="M 245.43487 183.878772 
Q 243.657637 184.208017 241.735871 184.374553 
Q 239.814104 184.543003 237.721038 184.543003 
Q 231.479312 184.543003 227.833845 183.294939 
Q 224.188377 182.046874 224.188377 179.91253 
Q 224.188377 177.770529 227.833845 176.524379 
Q 231.479312 175.276314 237.721038 175.276314 
Q 239.814104 175.276314 241.735871 175.444765 
Q 243.657637 175.611301 245.43487 175.940545 
L 245.43487 177.787757 
Q 243.641578 177.351318 241.901817 177.148411 
Q 240.162057 176.945505 238.24029 176.945505 
Q 234.792887 176.945505 232.81759 177.736074 
Q 230.847645 178.524728 230.847645 179.91253 
Q 230.847645 181.294589 232.81759 182.085158 
Q 234.792887 182.873812 238.24029 182.873812 
Q 240.162057 182.873812 241.901817 182.670906 
Q 243.641578 182.466086 245.43487 182.029646 
L 245.43487 183.878772 
z
" clip-path="url(#p26de46f5e0)" style="fill: #0000ff"/>
   </g>
   <g id="patch_24">
    <path d="M 224.188377 165.054144 
L 245.43487 165.054144 
L 245.43487 167.047752 
L 237.791073 167.047752 
L 237.791073 175.276314 
L 231.846996 175.276314 
L 231.846996 167.047752 
L 224.188377 167.047752 
L 224.188377 165.054144 
z
" clip-path="url(#p26de46f5e0)" style="fill: #ff0000"/>
   </g>
   <g id="patch_25">
    <path d="M 245.43487 163.219424 
Q 243.292126 164.136784 240.987486 164.597558 
Q 238.682847 165.054144 236.225834 165.054144 
Q 230.673747 165.054144 227.431062 162.323009 
Q 224.188377 159.591874 224.188377 154.921299 
Q 224.188377 150.196268 227.488202 147.486078 
Q 230.792789 144.775888 236.540103 144.775888 
Q 238.754271 144.775888 240.782735 145.144507 
Q 242.815961 145.508938 244.615866 146.229421 
L 244.615866 150.271668 
Q 242.758821 149.34593 240.920823 148.889345 
Q 239.082825 148.428571 237.235304 148.428571 
Q 233.816438 148.428571 231.964155 150.112491 
Q 230.111872 151.792223 230.111872 154.921299 
Q 230.111872 158.021053 231.897492 159.713351 
Q 233.683112 161.40146 236.968652 161.40146 
Q 237.863842 161.40146 238.630468 161.305117 
Q 239.397095 161.204584 240.006586 160.995141 
L 240.006586 157.200037 
L 236.506771 157.200037 
L 236.506771 153.81963 
L 245.43487 153.81963 
L 245.43487 163.219424 
z
" clip-path="url(#p26de46f5e0)" style="fill: #ffa600"/>
   </g>
   <g id="patch_26">
    <path d="M 261.270571 191.446 
L 253.099511 191.446 
L 251.809343 192.24 
L 246.553106 192.24 
L 254.059534 187.881408 
L 260.293171 187.881408 
L 267.799599 192.24 
L 262.547706 192.24 
L 261.270571 191.446 
z
M 254.40271 190.637055 
L 259.954339 190.637055 
L 257.182869 188.903333 
L 254.40271 190.637055 
z
" clip-path="url(#p26de46f5e0)" style="fill: #008000"/>
   </g>
   <g id="patch_27">
    <path d="M 246.553106 182.808633 
L 267.799599 182.808633 
L 267.799599 183.797966 
L 260.155803 183.797966 
L 260.155803 187.881408 
L 254.211726 187.881408 
L 254.211726 183.797966 
L 246.553106 183.797966 
L 246.553106 182.808633 
z
" clip-path="url(#p26de46f5e0)" style="fill: #ff0000"/>
   </g>
   <g id="patch_28">
    <path d="M 267.799599 182.09841 
Q 265.656856 182.453522 263.352216 182.631888 
Q 261.047576 182.808633 258.590563 182.808633 
Q 253.038477 182.808633 249.795791 181.751407 
Q 246.553106 180.69418 246.553106 178.886193 
Q 246.553106 177.057126 249.852931 176.008007 
Q 253.157518 174.958888 258.904833 174.958888 
Q 261.119001 174.958888 263.147465 175.101582 
Q 265.18069 175.242653 266.980595 175.521554 
L 266.980595 177.086314 
Q 265.123551 176.727959 263.285553 176.551214 
Q 261.447555 176.372848 259.600034 176.372848 
Q 256.181167 176.372848 254.328885 177.024696 
Q 252.476602 177.674923 252.476602 178.886193 
Q 252.476602 180.086113 254.262221 180.741204 
Q 256.047841 181.394674 259.333381 181.394674 
Q 260.228572 181.394674 260.995198 181.357379 
Q 261.761824 181.318463 262.371315 181.237387 
L 262.371315 179.768296 
L 258.871501 179.768296 
L 258.871501 178.459735 
L 267.799599 178.459735 
L 267.799599 182.09841 
z
" clip-path="url(#p26de46f5e0)" style="fill: #ffa600"/>
   </g>
   <g id="patch_29">
    <path d="M 267.799599 172.566734 
Q 266.022367 173.75247 264.1006 174.352233 
Q 262.178834 174.958888 260.085768 174.958888 
Q 253.844042 174.958888 250.198574 170.46412 
Q 246.553106 165.969351 246.553106 158.282745 
Q 246.553106 150.568563 250.198574 146.080688 
Q 253.844042 141.585919 260.085768 141.585919 
Q 262.178834 141.585919 264.1006 142.192575 
Q 266.022367 142.792337 267.799599 143.978074 
L 267.799599 150.630608 
Q 266.006307 149.058817 264.266547 148.328073 
Q 262.526786 147.597328 260.60502 147.597328 
Q 257.157617 147.597328 255.182319 150.444474 
Q 253.212375 153.284727 253.212375 158.282745 
Q 253.212375 163.260081 255.182319 166.107227 
Q 257.157617 168.94748 260.60502 168.94748 
Q 262.526786 168.94748 264.266547 168.216735 
Q 266.006307 167.479097 267.799599 165.907306 
L 267.799599 172.566734 
z
" clip-path="url(#p26de46f5e0)" style="fill: #0000ff"/>
   </g>
   <g id="patch_30">
    <path d="M 290.164329 191.888533 
Q 288.021585 192.064267 285.716945 192.152534 
Q 283.412306 192.24 280.955293 192.24 
Q 275.403206 192.24 272.160521 191.716812 
Q 268.917836 191.193624 268.917836 190.298908 
Q 268.917836 189.39376 272.217661 188.874584 
Q 275.522248 188.355408 281.269562 188.355408 
Q 283.48373 188.355408 285.512194 188.426023 
Q 287.54542 188.495835 289.345324 188.633854 
L 289.345324 189.408204 
Q 287.48828 189.230866 285.650282 189.1434 
Q 283.812284 189.055132 281.964763 189.055132 
Q 278.545897 189.055132 276.693614 189.377712 
Q 274.841331 189.699488 274.841331 190.298908 
Q 274.841331 190.89271 276.626951 191.216894 
Q 278.412571 191.540276 281.698111 191.540276 
Q 282.593301 191.540276 283.359927 191.52182 
Q 284.126553 191.502562 284.736045 191.46244 
L 284.736045 190.735433 
L 281.23623 190.735433 
L 281.23623 190.087867 
L 290.164329 190.087867 
L 290.164329 191.888533 
z
" clip-path="url(#p26de46f5e0)" style="fill: #ffa600"/>
   </g>
   <g id="patch_31">
    <path d="M 290.164329 187.826862 
Q 288.387096 188.08885 286.46533 188.221368 
Q 284.543563 188.355408 282.450497 188.355408 
Q 276.208771 188.355408 272.563303 187.362289 
Q 268.917836 186.369169 268.917836 184.670813 
Q 268.917836 182.966364 272.563303 181.974768 
Q 276.208771 180.981648 282.450497 180.981648 
Q 284.543563 180.981648 286.46533 181.115689 
Q 288.387096 181.248206 290.164329 181.510195 
L 290.164329 182.980073 
Q 288.371037 182.632786 286.631276 182.471328 
Q 284.891515 182.309869 282.969749 182.309869 
Q 279.522346 182.309869 277.547049 182.938947 
Q 275.577104 183.566501 275.577104 184.670813 
Q 275.577104 185.770556 277.547049 186.399633 
Q 279.522346 187.027187 282.969749 187.027187 
Q 284.891515 187.027187 286.631276 186.865729 
Q 288.371037 186.702748 290.164329 186.355461 
L 290.164329 187.826862 
z
" clip-path="url(#p26de46f5e0)" style="fill: #0000ff"/>
   </g>
   <g id="patch_32">
    <path d="M 283.6353 173.170507 
L 275.46424 173.170507 
L 274.174073 180.981648 
L 268.917836 180.981648 
L 276.424264 138.103078 
L 282.657901 138.103078 
L 290.164329 180.981648 
L 284.912435 180.981648 
L 283.6353 173.170507 
z
M 276.76744 165.212333 
L 282.319069 165.212333 
L 279.547598 148.156476 
L 276.76744 165.212333 
z
" clip-path="url(#p26de46f5e0)" style="fill: #008000"/>
   </g>
   <g id="patch_33">
    <path d="M 291.282565 192.069358 
L 312.529058 192.069358 
L 312.529058 192.102638 
L 304.885262 192.102638 
L 304.885262 192.24 
L 298.941185 192.24 
L 298.941185 192.102638 
L 291.282565 192.102638 
L 291.282565 192.069358 
z
" clip-path="url(#p26de46f5e0)" style="fill: #ff0000"/>
   </g>
   <g id="patch_34">
    <path d="M 312.529058 191.728356 
Q 310.751826 191.897383 308.830059 191.982879 
Q 306.908293 192.069358 304.815227 192.069358 
Q 298.573501 192.069358 294.928033 191.428628 
Q 291.282565 190.787897 291.282565 189.69217 
Q 291.282565 188.592511 294.928033 187.952764 
Q 298.573501 187.312033 304.815227 187.312033 
Q 306.908293 187.312033 308.830059 187.398512 
Q 310.751826 187.484008 312.529058 187.653036 
L 312.529058 188.601356 
Q 310.735766 188.377297 308.996006 188.273129 
Q 307.256245 188.168961 305.334478 188.168961 
Q 301.887076 188.168961 299.911778 188.574823 
Q 297.941834 188.979701 297.941834 189.69217 
Q 297.941834 190.40169 299.911778 190.807552 
Q 301.887076 191.212431 305.334478 191.212431 
Q 307.256245 191.212431 308.996006 191.108263 
Q 310.735766 191.003112 312.529058 190.779053 
L 312.529058 191.728356 
z
" clip-path="url(#p26de46f5e0)" style="fill: #0000ff"/>
   </g>
   <g id="patch_35">
    <path d="M 312.529058 186.088614 
Q 310.386315 186.700324 308.081675 187.007575 
Q 305.777035 187.312033 303.320022 187.312033 
Q 297.767936 187.312033 294.52525 185.49087 
Q 291.282565 183.669707 291.282565 180.555295 
Q 291.282565 177.404572 294.58239 175.597375 
Q 297.886977 173.790178 303.634291 173.790178 
Q 305.84846 173.790178 307.876924 174.035979 
Q 309.910149 174.278987 311.710054 174.759416 
L 311.710054 177.454849 
Q 309.853009 176.837553 308.015012 176.533095 
Q 306.177014 176.225844 304.329493 176.225844 
Q 300.910626 176.225844 299.058343 177.348708 
Q 297.206061 178.468779 297.206061 180.555295 
Q 297.206061 182.622259 298.99168 183.75071 
Q 300.7773 184.876368 304.06284 184.876368 
Q 304.958031 184.876368 305.724657 184.812124 
Q 306.491283 184.745087 307.100774 184.605428 
L 307.100774 182.074793 
L 303.60096 182.074793 
L 303.60096 179.820685 
L 312.529058 179.820685 
L 312.529058 186.088614 
z
" clip-path="url(#p26de46f5e0)" style="fill: #ffa600"/>
   </g>
   <g id="patch_36">
    <path d="M 306.00003 165.425565 
L 297.82897 165.425565 
L 296.538802 173.790178 
L 291.282565 173.790178 
L 298.788993 127.873375 
L 305.02263 127.873375 
L 312.529058 173.790178 
L 307.277165 173.790178 
L 306.00003 165.425565 
z
M 299.132169 156.903501 
L 304.683798 156.903501 
L 301.912328 138.639123 
L 299.132169 156.903501 
z
" clip-path="url(#p26de46f5e0)" style="fill: #008000"/>
   </g>
   <g id="patch_37">
    <path d="M 328.364759 192.182326 
L 320.193699 192.182326 
L 318.903532 192.24 
L 313.647295 192.24 
L 321.153723 191.923401 
L 327.387359 191.923401 
L 334.893788 192.24 
L 329.641894 192.24 
L 328.364759 192.182326 
z
M 321.496899 192.123565 
L 327.048528 192.123565 
L 324.277057 191.997632 
L 321.496899 192.123565 
z
" clip-path="url(#p26de46f5e0)" style="fill: #008000"/>
   </g>
   <g id="patch_38">
    <path d="M 334.893788 177.340258 
Q 332.751044 184.63183 330.446404 188.294263 
Q 328.141764 191.923401 325.684752 191.923401 
Q 320.132665 191.923401 316.88998 170.215161 
Q 313.647295 148.506921 313.647295 111.383167 
Q 313.647295 73.826581 316.94712 52.284815 
Q 320.251706 30.743049 325.999021 30.743049 
Q 328.213189 30.743049 330.241653 33.672996 
Q 332.274879 36.569647 334.074783 42.296361 
L 334.074783 74.425888 
Q 332.217739 67.067727 330.379741 63.438588 
Q 328.541743 59.776155 326.694222 59.776155 
Q 323.275356 59.776155 321.423073 73.160684 
Q 319.57079 86.511917 319.57079 111.383167 
Q 319.57079 136.021354 321.35641 149.472472 
Q 323.142029 162.890295 326.42757 162.890295 
Q 327.32276 162.890295 328.089386 162.124513 
Q 328.856012 161.325437 329.465504 159.660695 
L 329.465504 129.495564 
L 325.965689 129.495564 
L 325.965689 102.626623 
L 334.893788 102.626623 
L 334.893788 177.340258 
z
" clip-path="url(#p26de46f5e0)" style="fill: #ffa600"/>
   </g>
   <g id="patch_39">
    <path d="M 350.729488 192.233858 
L 342.558429 192.233858 
L 341.268261 192.24 
L 336.012024 192.24 
L 343.518452 192.206284 
L 349.752089 192.206284 
L 357.258517 192.24 
L 352.006624 192.24 
L 350.729488 192.233858 
z
M 343.861628 192.2276 
L 349.413257 192.2276 
L 346.641787 192.214189 
L 343.861628 192.2276 
z
" clip-path="url(#p26de46f5e0)" style="fill: #008000"/>
   </g>
   <g id="patch_40">
    <path d="M 357.258517 177.161171 
Q 355.115773 184.683727 352.811134 188.46218 
Q 350.506494 192.206284 348.049481 192.206284 
Q 342.497395 192.206284 339.254709 169.810362 
Q 336.012024 147.41444 336.012024 109.114666 
Q 336.012024 70.368348 339.311849 48.144174 
Q 342.616436 25.92 348.36375 25.92 
Q 350.577919 25.92 352.606383 28.942762 
Q 354.639608 31.931175 356.439513 37.839302 
L 356.439513 70.98664 
Q 354.582468 63.395384 352.744471 59.651281 
Q 350.906473 55.872828 349.058952 55.872828 
Q 345.640085 55.872828 343.787802 69.681356 
Q 341.93552 83.455535 341.93552 109.114666 
Q 341.93552 134.53335 343.721139 148.410578 
Q 345.506759 162.253456 348.792299 162.253456 
Q 349.68749 162.253456 350.454116 161.463416 
Q 351.220742 160.639026 351.830233 158.921547 
L 351.830233 127.800834 
L 348.330419 127.800834 
L 348.330419 100.080728 
L 357.258517 100.080728 
L 357.258517 177.161171 
z
" clip-path="url(#p26de46f5e0)" style="fill: #ffa600"/>
   </g>
   <g id="patch_41">
    <path d="M 379.623246 192.118558 
Q 377.846014 192.178754 375.924248 192.209202 
Q 374.002481 192.24 371.909415 192.24 
Q 365.667689 192.24 362.022221 192.011815 
Q 358.376754 191.783629 358.376754 191.393404 
Q 358.376754 191.001779 362.022221 190.773943 
Q 365.667689 190.545758 371.909415 190.545758 
Q 374.002481 190.545758 375.924248 190.576556 
Q 377.846014 190.607004 379.623246 190.6672 
L 379.623246 191.004928 
Q 377.829955 190.925134 376.090194 190.888036 
Q 374.350433 190.850938 372.428667 190.850938 
Q 368.981264 190.850938 367.005967 190.995479 
Q 365.036022 191.13967 365.036022 191.393404 
Q 365.036022 191.646088 367.005967 191.790629 
Q 368.981264 191.934819 372.428667 191.934819 
Q 374.350433 191.934819 376.090194 191.897722 
Q 377.829955 191.860274 379.623246 191.780479 
L 379.623246 192.118558 
z
" clip-path="url(#p26de46f5e0)" style="fill: #0000ff"/>
   </g>
   <g id="patch_42">
    <path d="M 379.623246 189.812082 
Q 377.480503 190.17892 375.175863 190.363176 
Q 372.871223 190.545758 370.414211 190.545758 
Q 364.862124 190.545758 361.619439 189.453619 
Q 358.376754 188.361481 358.376754 186.493791 
Q 358.376754 184.604324 361.676579 183.520561 
Q 364.981165 182.436798 370.72848 182.436798 
Q 372.942648 182.436798 374.971112 182.584204 
Q 377.004338 182.729934 378.804242 183.018044 
L 378.804242 184.634475 
Q 376.947198 184.264287 375.1092 184.081706 
Q 373.271202 183.89745 371.423681 183.89745 
Q 368.004815 183.89745 366.152532 184.570823 
Q 364.300249 185.242522 364.300249 186.493791 
Q 364.300249 187.733334 366.085869 188.410058 
Q 367.871488 189.085106 371.157029 189.085106 
Q 372.052219 189.085106 372.818845 189.04658 
Q 373.585471 189.006379 374.194963 188.922626 
L 374.194963 187.405023 
L 370.695148 187.405023 
L 370.695148 186.05325 
L 379.623246 186.05325 
L 379.623246 189.812082 
z
" clip-path="url(#p26de46f5e0)" style="fill: #ffa600"/>
   </g>
   <g id="patch_43">
    <path d="M 358.376754 170.253628 
L 379.623246 170.253628 
L 379.623246 172.629686 
L 371.97945 172.629686 
L 371.97945 182.436798 
L 366.035373 182.436798 
L 366.035373 172.629686 
L 358.376754 172.629686 
L 358.376754 170.253628 
z
" clip-path="url(#p26de46f5e0)" style="fill: #ff0000"/>
   </g>
   <g id="patch_44">
    <path d="M 373.094218 161.70804 
L 364.923158 161.70804 
L 363.632991 170.253628 
L 358.376754 170.253628 
L 365.883182 123.343375 
L 372.116818 123.343375 
L 379.623246 170.253628 
L 374.371353 170.253628 
L 373.094218 161.70804 
z
M 366.226357 153.001594 
L 371.777987 153.001594 
L 369.006516 134.34205 
L 366.226357 153.001594 
z
" clip-path="url(#p26de46f5e0)" style="fill: #008000"/>
   </g>
   <g id="patch_45">
    <path d="M 380.741483 185.238207 
L 401.987976 185.238207 
L 401.987976 186.603752 
L 394.34418 186.603752 
L 394.34418 192.24 
L 388.400103 192.24 
L 388.400103 186.603752 
L 380.741483 186.603752 
L 380.741483 185.238207 
z
" clip-path="url(#p26de46f5e0)" style="fill: #ff0000"/>
   </g>
   <g id="patch_46">
    <path d="M 395.458947 183.920618 
L 387.287888 183.920618 
L 385.99772 185.238207 
L 380.741483 185.238207 
L 388.247911 178.005419 
L 394.481548 178.005419 
L 401.987976 185.238207 
L 396.736083 185.238207 
L 395.458947 183.920618 
z
M 388.591087 182.578228 
L 394.142716 182.578228 
L 391.371245 179.701234 
L 388.591087 182.578228 
z
" clip-path="url(#p26de46f5e0)" style="fill: #008000"/>
   </g>
   <g id="patch_47">
    <path d="M 401.987976 177.316964 
Q 400.210743 177.658215 398.288977 177.830825 
Q 396.367211 178.005419 394.274145 178.005419 
Q 388.032419 178.005419 384.386951 176.711837 
Q 380.741483 175.418254 380.741483 173.20607 
Q 380.741483 170.985949 384.386951 169.69435 
Q 388.032419 168.400768 394.274145 168.400768 
Q 396.367211 168.400768 398.288977 168.575362 
Q 400.210743 168.747972 401.987976 169.089224 
L 401.987976 171.003805 
Q 400.194684 170.551448 398.454923 170.341142 
Q 396.715163 170.130835 394.793396 170.130835 
Q 391.345994 170.130835 389.370696 170.950236 
Q 387.400752 171.767654 387.400752 173.20607 
Q 387.400752 174.638534 389.370696 175.457935 
Q 391.345994 176.275352 394.793396 176.275352 
Q 396.715163 176.275352 398.454923 176.065046 
Q 400.194684 175.852755 401.987976 175.400398 
L 401.987976 177.316964 
z
" clip-path="url(#p26de46f5e0)" style="fill: #0000ff"/>
   </g>
   <g id="patch_48">
    <path d="M 401.987976 163.777696 
Q 399.845232 166.089232 397.540593 167.250278 
Q 395.235953 168.400768 392.77894 168.400768 
Q 387.226854 168.400768 383.984168 161.518935 
Q 380.741483 154.637103 380.741483 142.868325 
Q 380.741483 130.962332 384.041308 124.133275 
Q 387.345895 117.304217 393.093209 117.304217 
Q 395.307378 117.304217 397.335842 118.233053 
Q 399.369067 119.151334 401.168972 120.966787 
L 401.168972 131.152322 
Q 399.311927 128.819676 397.473929 127.669185 
Q 395.635932 126.50814 393.788411 126.50814 
Q 390.369544 126.50814 388.517261 130.751233 
Q 386.664979 134.983771 386.664979 142.868325 
Q 386.664979 150.678994 388.450598 154.943197 
Q 390.236218 159.196845 393.521758 159.196845 
Q 394.416949 159.196845 395.183575 158.954081 
Q 395.950201 158.700762 396.559692 158.173014 
L 396.559692 148.610222 
L 393.059878 148.610222 
L 393.059878 140.092371 
L 401.987976 140.092371 
L 401.987976 163.777696 
z
" clip-path="url(#p26de46f5e0)" style="fill: #ffa600"/>
   </g>
   <g id="patch_49">
    <path d="M 417.823677 191.343131 
L 409.652617 191.343131 
L 408.36245 192.24 
L 403.106212 192.24 
L 410.612641 187.316715 
L 416.846277 187.316715 
L 424.352705 192.24 
L 419.100812 192.24 
L 417.823677 191.343131 
z
M 410.955816 190.429379 
L 416.507445 190.429379 
L 413.735975 188.471038 
L 410.955816 190.429379 
z
" clip-path="url(#p26de46f5e0)" style="fill: #008000"/>
   </g>
   <g id="patch_50">
    <path d="M 403.106212 182.255082 
L 424.352705 182.255082 
L 424.352705 183.242241 
L 416.708909 183.242241 
L 416.708909 187.316715 
L 410.764832 187.316715 
L 410.764832 183.242241 
L 403.106212 183.242241 
L 403.106212 182.255082 
z
" clip-path="url(#p26de46f5e0)" style="fill: #ff0000"/>
   </g>
   <g id="patch_51">
    <path d="M 424.352705 180.981279 
Q 422.209962 181.61818 419.905322 181.938085 
Q 417.600682 182.255082 415.14367 182.255082 
Q 409.591583 182.255082 406.348898 180.358919 
Q 403.106212 178.462756 403.106212 175.220085 
Q 403.106212 171.939607 406.406038 170.057985 
Q 409.710624 168.176363 415.457939 168.176363 
Q 417.672107 168.176363 419.700571 168.432287 
Q 421.733797 168.685303 423.533701 169.185517 
L 423.533701 171.991955 
Q 421.676657 171.349237 419.838659 171.03224 
Q 418.000661 170.712336 416.15314 170.712336 
Q 412.734274 170.712336 410.881991 171.881442 
Q 409.029708 173.04764 409.029708 175.220085 
Q 409.029708 177.372171 410.815328 178.547094 
Q 412.600947 179.719109 415.886487 179.719109 
Q 416.781678 179.719109 417.548304 179.65222 
Q 418.31493 179.582423 418.924422 179.437011 
L 418.924422 176.802159 
L 415.424607 176.802159 
L 415.424607 174.455221 
L 424.352705 174.455221 
L 424.352705 180.981279 
z
" clip-path="url(#p26de46f5e0)" style="fill: #ffa600"/>
   </g>
   <g id="patch_52">
    <path d="M 424.352705 164.600724 
Q 422.575473 166.373087 420.653707 167.269573 
Q 418.73194 168.176363 416.638874 168.176363 
Q 410.397148 168.176363 406.75168 161.457872 
Q 403.106212 154.73938 403.106212 143.249935 
Q 403.106212 131.719273 406.75168 125.011086 
Q 410.397148 118.292594 416.638874 118.292594 
Q 418.73194 118.292594 420.653707 119.199384 
Q 422.575473 120.09587 424.352705 121.868233 
L 424.352705 131.812013 
Q 422.559414 129.462601 420.819653 128.370331 
Q 419.079892 127.278061 417.158126 127.278061 
Q 413.710723 127.278061 411.735425 131.533793 
Q 409.765481 135.77922 409.765481 143.249935 
Q 409.765481 150.689737 411.735425 154.945469 
Q 413.710723 159.190896 417.158126 159.190896 
Q 419.079892 159.190896 420.819653 158.098626 
Q 422.559414 156.996051 424.352705 154.64664 
L 424.352705 164.600724 
z
" clip-path="url(#p26de46f5e0)" style="fill: #0000ff"/>
   </g>
   <g id="patch_53">
    <path d="M 446.717435 192.065658 
Q 444.940202 192.152075 443.018436 192.195786 
Q 441.09667 192.24 439.003604 192.24 
Q 432.761877 192.24 429.11641 191.912418 
Q 425.470942 191.584836 425.470942 191.02463 
Q 425.470942 190.462415 429.11641 190.135335 
Q 432.761877 189.807753 439.003604 189.807753 
Q 441.09667 189.807753 443.018436 189.851967 
Q 444.940202 189.895678 446.717435 189.982095 
L 446.717435 190.466937 
Q 444.924143 190.352384 443.184382 190.299127 
Q 441.444622 190.245869 439.522855 190.245869 
Q 436.075452 190.245869 434.100155 190.453371 
Q 432.130211 190.660371 432.130211 191.02463 
Q 432.130211 191.387382 434.100155 191.594884 
Q 436.075452 191.801884 439.522855 191.801884 
Q 441.444622 191.801884 443.184382 191.748627 
Q 444.924143 191.694867 446.717435 191.580314 
L 446.717435 192.065658 
z
" clip-path="url(#p26de46f5e0)" style="fill: #0000ff"/>
   </g>
   <g id="patch_54">
    <path d="M 425.470942 182.718898 
L 446.717435 182.718898 
L 446.717435 184.101423 
L 439.073638 184.101423 
L 439.073638 189.807753 
L 433.129561 189.807753 
L 433.129561 184.101423 
L 425.470942 184.101423 
L 425.470942 182.718898 
z
" clip-path="url(#p26de46f5e0)" style="fill: #ff0000"/>
   </g>
   <g id="patch_55">
    <path d="M 440.188406 179.454279 
L 432.017346 179.454279 
L 430.727179 182.718898 
L 425.470942 182.718898 
L 432.97737 164.798059 
L 439.211007 164.798059 
L 446.717435 182.718898 
L 441.465542 182.718898 
L 440.188406 179.454279 
z
M 433.320546 176.128208 
L 438.872175 176.128208 
L 436.100704 168.999816 
L 433.320546 176.128208 
z
" clip-path="url(#p26de46f5e0)" style="fill: #008000"/>
   </g>
   <g id="patch_56">
    <path d="M 446.717435 162.268589 
Q 444.574691 163.533324 442.270052 164.168579 
Q 439.965412 164.798059 437.508399 164.798059 
Q 431.956312 164.798059 428.713627 161.032728 
Q 425.470942 157.267398 425.470942 150.82822 
Q 425.470942 144.313966 428.770767 140.577511 
Q 432.075354 136.841055 437.822668 136.841055 
Q 440.036837 136.841055 442.0653 137.349259 
Q 444.098526 137.851688 445.898431 138.844996 
L 445.898431 144.417917 
Q 444.041386 143.141632 442.203388 142.512151 
Q 440.365391 141.876896 438.517869 141.876896 
Q 435.099003 141.876896 433.24672 144.198465 
Q 431.394437 146.514259 431.394437 150.82822 
Q 431.394437 155.101755 433.180057 157.434874 
Q 434.965677 159.762218 438.251217 159.762218 
Q 439.146408 159.762218 439.913034 159.629392 
Q 440.67966 159.490791 441.289151 159.202038 
L 441.289151 153.969845 
L 437.789337 153.969845 
L 437.789337 149.309382 
L 446.717435 149.309382 
L 446.717435 162.268589 
z
" clip-path="url(#p26de46f5e0)" style="fill: #ffa600"/>
   </g>
   <g id="patch_57">
    <path d="M 447.835671 191.809153 
L 469.082164 191.809153 
L 469.082164 191.893181 
L 461.438368 191.893181 
L 461.438368 192.24 
L 455.494291 192.24 
L 455.494291 191.893181 
L 447.835671 191.893181 
L 447.835671 191.809153 
z
" clip-path="url(#p26de46f5e0)" style="fill: #ff0000"/>
   </g>
   <g id="patch_58">
    <path d="M 462.553136 188.77208 
L 454.382076 188.77208 
L 453.091909 191.809153 
L 447.835671 191.809153 
L 455.342099 175.137405 
L 461.575736 175.137405 
L 469.082164 191.809153 
L 463.830271 191.809153 
L 462.553136 188.77208 
z
M 455.685275 185.677837 
L 461.236904 185.677837 
L 458.465434 179.046298 
L 455.685275 185.677837 
z
" clip-path="url(#p26de46f5e0)" style="fill: #008000"/>
   </g>
   <g id="patch_59">
    <path d="M 469.082164 173.736305 
Q 467.304932 174.430798 465.383165 174.782083 
Q 463.461399 175.137405 461.368333 175.137405 
Q 455.126607 175.137405 451.481139 172.504791 
Q 447.835671 169.872177 447.835671 165.370085 
Q 447.835671 160.851841 451.481139 158.223265 
Q 455.126607 155.590651 461.368333 155.590651 
Q 463.461399 155.590651 465.383165 155.945973 
Q 467.304932 156.297258 469.082164 156.991751 
L 469.082164 160.888181 
Q 467.288873 159.967574 465.549112 159.539572 
Q 463.809351 159.11157 461.887585 159.11157 
Q 458.440182 159.11157 456.464884 160.779162 
Q 454.49494 162.442715 454.49494 165.370085 
Q 454.49494 168.285341 456.464884 169.952932 
Q 458.440182 171.616486 461.887585 171.616486 
Q 463.809351 171.616486 465.549112 171.188484 
Q 467.288873 170.756445 469.082164 169.835838 
L 469.082164 173.736305 
z
" clip-path="url(#p26de46f5e0)" style="fill: #0000ff"/>
   </g>
   <g id="patch_60">
    <path d="M 469.082164 152.440688 
Q 466.939421 154.01567 464.634781 154.806756 
Q 462.330141 155.590651 459.873129 155.590651 
Q 454.321042 155.590651 451.078357 150.901665 
Q 447.835671 146.212679 447.835671 138.193937 
Q 447.835671 130.081703 451.135496 125.428675 
Q 454.440083 120.775647 460.187398 120.775647 
Q 462.401566 120.775647 464.43003 121.408517 
Q 466.463256 122.034194 468.26316 123.271166 
L 468.26316 130.211153 
Q 466.406116 128.621788 464.568118 127.837893 
Q 462.73012 127.046807 460.882599 127.046807 
Q 457.463732 127.046807 455.61145 129.937869 
Q 453.759167 132.821739 453.759167 138.193937 
Q 453.759167 143.515792 455.544787 146.421238 
Q 457.330406 149.319492 460.615946 149.319492 
Q 461.511137 149.319492 462.277763 149.154083 
Q 463.044389 148.981482 463.653881 148.621897 
L 463.653881 142.10622 
L 460.154066 142.10622 
L 460.154066 136.302521 
L 469.082164 136.302521 
L 469.082164 152.440688 
z
" clip-path="url(#p26de46f5e0)" style="fill: #ffa600"/>
   </g>
   <g id="patch_61">
    <path d="M 470.200401 190.050036 
L 491.446894 190.050036 
L 491.446894 190.47714 
L 483.803097 190.47714 
L 483.803097 192.24 
L 477.85902 192.24 
L 477.85902 190.47714 
L 470.200401 190.47714 
L 470.200401 190.050036 
z
" clip-path="url(#p26de46f5e0)" style="fill: #ff0000"/>
   </g>
   <g id="patch_62">
    <path d="M 491.446894 189.758362 
Q 489.669661 189.902938 487.747895 189.976067 
Q 485.826128 190.050036 483.733062 190.050036 
Q 477.491336 190.050036 473.845869 189.501993 
Q 470.200401 188.95395 470.200401 188.016729 
Q 470.200401 187.076146 473.845869 186.528944 
Q 477.491336 185.980901 483.733062 185.980901 
Q 485.826128 185.980901 487.747895 186.05487 
Q 489.669661 186.127998 491.446894 186.272574 
L 491.446894 187.083711 
Q 489.653602 186.892064 487.913841 186.802965 
Q 486.174081 186.713866 484.252314 186.713866 
Q 480.804911 186.713866 478.829614 187.061016 
Q 476.859669 187.407326 476.859669 188.016729 
Q 476.859669 188.623611 478.829614 188.970761 
Q 480.804911 189.31707 484.252314 189.31707 
Q 486.174081 189.31707 487.913841 189.227971 
Q 489.653602 189.138032 491.446894 188.946385 
L 491.446894 189.758362 
z
" clip-path="url(#p26de46f5e0)" style="fill: #0000ff"/>
   </g>
   <g id="patch_63">
    <path d="M 484.917865 182.735751 
L 476.746805 182.735751 
L 475.456638 185.980901 
L 470.200401 185.980901 
L 477.706829 168.166937 
L 483.940466 168.166937 
L 491.446894 185.980901 
L 486.195001 185.980901 
L 484.917865 182.735751 
z
M 478.050005 179.429516 
L 483.601634 179.429516 
L 480.830163 172.343636 
L 478.050005 179.429516 
z
" clip-path="url(#p26de46f5e0)" style="fill: #008000"/>
   </g>
   <g id="patch_64">
    <path d="M 491.446894 164.479833 
Q 489.30415 166.323385 486.99951 167.24937 
Q 484.694871 168.166937 482.237858 168.166937 
Q 476.685771 168.166937 473.443086 162.678371 
Q 470.200401 157.189805 470.200401 147.803684 
Q 470.200401 138.308128 473.500226 132.861652 
Q 476.804813 127.415176 482.552127 127.415176 
Q 484.766295 127.415176 486.794759 128.155964 
Q 488.827985 128.888334 490.62789 130.336238 
L 490.62789 138.459652 
Q 488.770845 136.599264 486.932847 135.681697 
Q 485.094849 134.755712 483.247328 134.755712 
Q 479.828462 134.755712 477.976179 138.139767 
Q 476.123896 141.515403 476.123896 147.803684 
Q 476.123896 154.033038 477.909516 157.433929 
Q 479.695136 160.826401 482.980676 160.826401 
Q 483.875866 160.826401 484.642493 160.632786 
Q 485.409119 160.430753 486.01861 160.009851 
L 486.01861 152.383101 
L 482.518796 152.383101 
L 482.518796 145.589738 
L 491.446894 145.589738 
L 491.446894 164.479833 
z
" clip-path="url(#p26de46f5e0)" style="fill: #ffa600"/>
   </g>
   <g id="patch_65">
    <path d="M 492.56513 190.579587 
L 513.811623 190.579587 
L 513.811623 190.903414 
L 506.167827 190.903414 
L 506.167827 192.24 
L 500.22375 192.24 
L 500.22375 190.903414 
L 492.56513 190.903414 
L 492.56513 190.579587 
z
" clip-path="url(#p26de46f5e0)" style="fill: #ff0000"/>
   </g>
   <g id="patch_66">
    <path d="M 513.811623 190.333064 
Q 512.034391 190.45526 510.112624 190.517068 
Q 508.190858 190.579587 506.097792 190.579587 
Q 499.856066 190.579587 496.210598 190.11638 
Q 492.56513 189.653173 492.56513 188.861032 
Q 492.56513 188.066049 496.210598 187.603552 
Q 499.856066 187.140345 506.097792 187.140345 
Q 508.190858 187.140345 510.112624 187.202864 
Q 512.034391 187.264672 513.811623 187.386868 
L 513.811623 188.072443 
Q 512.018331 187.910462 510.278571 187.835156 
Q 508.53881 187.759849 506.617044 187.759849 
Q 503.169641 187.759849 501.194343 188.053261 
Q 499.224399 188.345962 499.224399 188.861032 
Q 499.224399 189.37397 501.194343 189.667382 
Q 503.169641 189.960083 506.617044 189.960083 
Q 508.53881 189.960083 510.278571 189.884776 
Q 512.018331 189.808759 513.811623 189.646779 
L 513.811623 190.333064 
z
" clip-path="url(#p26de46f5e0)" style="fill: #0000ff"/>
   </g>
   <g id="patch_67">
    <path d="M 507.282595 184.384029 
L 499.111535 184.384029 
L 497.821368 187.140345 
L 492.56513 187.140345 
L 500.071558 172.009791 
L 506.305195 172.009791 
L 513.811623 187.140345 
L 508.55973 187.140345 
L 507.282595 184.384029 
z
M 500.414734 181.575829 
L 505.966363 181.575829 
L 503.194893 175.557332 
L 500.414734 181.575829 
z
" clip-path="url(#p26de46f5e0)" style="fill: #008000"/>
   </g>
   <g id="patch_68">
    <path d="M 513.811623 169.558868 
Q 511.66888 170.784329 509.36424 171.399858 
Q 507.0596 172.009791 504.602588 172.009791 
Q 499.050501 172.009791 495.807816 168.361385 
Q 492.56513 164.712979 492.56513 158.473758 
Q 492.56513 152.161792 495.864955 148.541365 
Q 499.169542 144.920938 504.916857 144.920938 
Q 507.131025 144.920938 509.159489 145.413361 
Q 511.192714 145.900188 512.992619 146.862651 
L 512.992619 152.262515 
Q 511.135575 151.025862 509.297577 150.41593 
Q 507.459579 149.800401 505.612058 149.800401 
Q 502.193191 149.800401 500.340909 152.049878 
Q 498.488626 154.293759 498.488626 158.473758 
Q 498.488626 162.614586 500.274245 164.875255 
Q 502.059865 167.130328 505.345405 167.130328 
Q 506.240596 167.130328 507.007222 167.001626 
Q 507.773848 166.867329 508.38334 166.587544 
L 508.38334 161.517826 
L 504.883525 161.517826 
L 504.883525 157.002085 
L 513.811623 157.002085 
L 513.811623 169.558868 
z
" clip-path="url(#p26de46f5e0)" style="fill: #ffa600"/>
   </g>
   <g id="patch_69">
    <path d="M 514.92986 190.745967 
L 536.176353 190.745967 
L 536.176353 191.037345 
L 528.532556 191.037345 
L 528.532556 192.24 
L 522.588479 192.24 
L 522.588479 191.037345 
L 514.92986 191.037345 
L 514.92986 190.745967 
z
" clip-path="url(#p26de46f5e0)" style="fill: #ff0000"/>
   </g>
   <g id="patch_70">
    <path d="M 529.647324 189.137748 
L 521.476264 189.137748 
L 520.186097 190.745967 
L 514.92986 190.745967 
L 522.436288 181.917793 
L 528.669925 181.917793 
L 536.176353 190.745967 
L 530.924459 190.745967 
L 529.647324 189.137748 
z
M 522.779464 187.499257 
L 528.331093 187.499257 
L 525.559622 183.987665 
L 522.779464 187.499257 
z
" clip-path="url(#p26de46f5e0)" style="fill: #008000"/>
   </g>
   <g id="patch_71">
    <path d="M 536.176353 177.474081 
Q 534.033609 179.695937 531.728969 180.811938 
Q 529.42433 181.917793 526.967317 181.917793 
Q 521.41523 181.917793 518.172545 175.302952 
Q 514.92986 168.68811 514.92986 157.375919 
Q 514.92986 145.931838 518.229685 139.367723 
Q 521.534272 132.803609 527.281586 132.803609 
Q 529.495754 132.803609 531.524218 133.69641 
Q 533.557444 134.579065 535.357348 136.324085 
L 535.357348 146.114456 
Q 533.500304 143.872309 531.662306 142.766453 
Q 529.824308 141.650453 527.976787 141.650453 
Q 524.557921 141.650453 522.705638 145.728928 
Q 520.853355 149.797259 520.853355 157.375919 
Q 520.853355 164.883562 522.638975 168.982328 
Q 524.424595 173.07095 527.710135 173.07095 
Q 528.605325 173.07095 529.371951 172.837604 
Q 530.138577 172.594113 530.748069 172.08684 
L 530.748069 162.895051 
L 527.248254 162.895051 
L 527.248254 154.707663 
L 536.176353 154.707663 
L 536.176353 177.474081 
z
" clip-path="url(#p26de46f5e0)" style="fill: #ffa600"/>
   </g>
   <g id="patch_72">
    <path d="M 558.541082 192.115552 
Q 556.76385 192.177238 554.842083 192.20844 
Q 552.920317 192.24 550.827251 192.24 
Q 544.585525 192.24 540.940057 192.006166 
Q 537.294589 191.772333 537.294589 191.372448 
Q 537.294589 190.97113 540.940057 190.737655 
Q 544.585525 190.503821 550.827251 190.503821 
Q 552.920317 190.503821 554.842083 190.535381 
Q 556.76385 190.566583 558.541082 190.628269 
L 558.541082 190.974357 
Q 556.74779 190.892587 555.00803 190.854571 
Q 553.268269 190.816555 551.346503 190.816555 
Q 547.8991 190.816555 545.923802 190.964674 
Q 543.953858 191.112434 543.953858 191.372448 
Q 543.953858 191.631387 545.923802 191.779505 
Q 547.8991 191.927265 551.346503 191.927265 
Q 553.268269 191.927265 555.00803 191.889249 
Q 556.74779 191.850875 558.541082 191.769105 
L 558.541082 192.115552 
z
" clip-path="url(#p26de46f5e0)" style="fill: #0000ff"/>
   </g>
   <g id="patch_73">
    <path d="M 537.294589 188.738281 
L 558.541082 188.738281 
L 558.541082 189.082611 
L 550.897286 189.082611 
L 550.897286 190.503821 
L 544.953209 190.503821 
L 544.953209 189.082611 
L 537.294589 189.082611 
L 537.294589 188.738281 
z
" clip-path="url(#p26de46f5e0)" style="fill: #ff0000"/>
   </g>
   <g id="patch_74">
    <path d="M 552.012054 187.449373 
L 543.840994 187.449373 
L 542.550826 188.738281 
L 537.294589 188.738281 
L 544.801017 181.662934 
L 551.034654 181.662934 
L 558.541082 188.738281 
L 553.289189 188.738281 
L 552.012054 187.449373 
z
M 545.144193 186.136203 
L 550.695822 186.136203 
L 547.924352 183.321834 
L 545.144193 186.136203 
z
" clip-path="url(#p26de46f5e0)" style="fill: #008000"/>
   </g>
   <g id="patch_75">
    <path d="M 558.541082 177.972593 
Q 556.398339 179.817764 554.093699 180.744561 
Q 551.789059 181.662934 549.332046 181.662934 
Q 543.77996 181.662934 540.537274 176.16955 
Q 537.294589 170.676166 537.294589 161.281805 
Q 537.294589 151.777914 540.594414 146.326657 
Q 543.899001 140.875401 549.646315 140.875401 
Q 551.860484 140.875401 553.888948 141.616839 
Q 555.922173 142.349852 557.722078 143.799027 
L 557.722078 151.929572 
Q 555.865034 150.067551 554.027036 149.149178 
Q 552.189038 148.22238 550.341517 148.22238 
Q 546.92265 148.22238 545.070368 151.609405 
Q 543.218085 154.988005 543.218085 161.281805 
Q 543.218085 167.516628 545.003704 170.920504 
Q 546.789324 174.315954 550.074864 174.315954 
Q 550.970055 174.315954 551.736681 174.122169 
Q 552.503307 173.919959 553.112798 173.498687 
L 553.112798 165.865242 
L 549.612984 165.865242 
L 549.612984 159.065916 
L 558.541082 159.065916 
L 558.541082 177.972593 
z
" clip-path="url(#p26de46f5e0)" style="fill: #ffa600"/>
   </g>
   <g id="patch_76">
    <path d="M 580.905812 191.976546 
Q 579.128579 192.107134 577.206813 192.173188 
Q 575.285046 192.24 573.19198 192.24 
Q 566.950254 192.24 563.304786 191.744981 
Q 559.659319 191.249961 559.659319 190.403417 
Q 559.659319 189.553836 563.304786 189.059576 
Q 566.950254 188.564557 573.19198 188.564557 
Q 575.285046 188.564557 577.206813 188.631369 
Q 579.128579 188.697422 580.905812 188.82801 
L 580.905812 189.560669 
Q 579.11252 189.387564 577.372759 189.307086 
Q 575.632998 189.226607 573.711232 189.226607 
Q 570.263829 189.226607 568.288532 189.54017 
Q 566.318587 189.852974 566.318587 190.403417 
Q 566.318587 190.951583 568.288532 191.265146 
Q 570.263829 191.577949 573.711232 191.577949 
Q 575.632998 191.577949 577.372759 191.497471 
Q 579.11252 191.416233 580.905812 191.243128 
L 580.905812 191.976546 
z
" clip-path="url(#p26de46f5e0)" style="fill: #0000ff"/>
   </g>
   <g id="patch_77">
    <path d="M 559.659319 183.74832 
L 580.905812 183.74832 
L 580.905812 184.687621 
L 573.262015 184.687621 
L 573.262015 188.564557 
L 567.317938 188.564557 
L 567.317938 184.687621 
L 559.659319 184.687621 
L 559.659319 183.74832 
z
" clip-path="url(#p26de46f5e0)" style="fill: #ff0000"/>
   </g>
   <g id="patch_78">
    <path d="M 574.376783 182.058468 
L 566.205723 182.058468 
L 564.915556 183.74832 
L 559.659319 183.74832 
L 567.165747 174.472024 
L 573.399384 174.472024 
L 580.905812 183.74832 
L 575.653918 183.74832 
L 574.376783 182.058468 
z
M 567.508923 180.336806 
L 573.060552 180.336806 
L 570.289081 176.646964 
L 567.508923 180.336806 
z
" clip-path="url(#p26de46f5e0)" style="fill: #008000"/>
   </g>
   <g id="patch_79">
    <path d="M 580.905812 173.114078 
Q 578.763068 173.793051 576.458428 174.134088 
Q 574.153789 174.472024 571.696776 174.472024 
Q 566.144689 174.472024 562.902004 172.450606 
Q 559.659319 170.429188 559.659319 166.972314 
Q 559.659319 163.475136 562.959144 161.46922 
Q 566.263731 159.463303 572.011045 159.463303 
Q 574.225213 159.463303 576.253677 159.736133 
Q 578.286903 160.005862 580.086807 160.539119 
L 580.086807 163.530942 
Q 578.229763 162.845768 576.391765 162.507832 
Q 574.553767 162.166795 572.706246 162.166795 
Q 569.28738 162.166795 567.435097 163.41313 
Q 565.582814 164.656364 565.582814 166.972314 
Q 565.582814 169.266562 567.368434 170.519097 
Q 569.154054 171.768532 572.439594 171.768532 
Q 573.334784 171.768532 574.10141 171.697225 
Q 574.868036 171.622817 575.477528 171.4678 
L 575.477528 168.658896 
L 571.977713 168.658896 
L 571.977713 166.156926 
L 580.905812 166.156926 
L 580.905812 173.114078 
z
" clip-path="url(#p26de46f5e0)" style="fill: #ffa600"/>
   </g>
   <g id="patch_80">
    <path d="M 603.270541 191.909575 
Q 601.493309 192.073359 599.571542 192.156203 
Q 597.649776 192.24 595.55671 192.24 
Q 589.314984 192.24 585.669516 191.619143 
Q 582.024048 190.998287 582.024048 189.936546 
Q 582.024048 188.870996 585.669516 188.251091 
Q 589.314984 187.630234 595.55671 187.630234 
Q 597.649776 187.630234 599.571542 187.714031 
Q 601.493309 187.796875 603.270541 187.96066 
L 603.270541 188.879566 
Q 601.477249 188.662456 599.737489 188.561519 
Q 597.997728 188.460583 596.075961 188.460583 
Q 592.628559 188.460583 590.653261 188.853855 
Q 588.683317 189.246176 588.683317 189.936546 
Q 588.683317 190.624059 590.653261 191.017331 
Q 592.628559 191.409652 596.075961 191.409652 
Q 597.997728 191.409652 599.737489 191.308715 
Q 601.477249 191.206826 603.270541 190.989717 
L 603.270541 191.909575 
z
" clip-path="url(#p26de46f5e0)" style="fill: #0000ff"/>
   </g>
   <g id="patch_81">
    <path d="M 596.741512 186.615313 
L 588.570453 186.615313 
L 587.280285 187.630234 
L 582.024048 187.630234 
L 589.530476 182.058915 
L 595.764113 182.058915 
L 603.270541 187.630234 
L 598.018648 187.630234 
L 596.741512 186.615313 
z
M 589.873652 185.581288 
L 595.425281 185.581288 
L 592.653811 183.365178 
L 589.873652 185.581288 
z
" clip-path="url(#p26de46f5e0)" style="fill: #008000"/>
   </g>
   <g id="patch_82">
    <path d="M 603.270541 179.291716 
Q 601.127798 180.675315 598.823158 181.370274 
Q 596.518518 182.058915 594.061505 182.058915 
Q 588.509419 182.058915 585.266733 177.939706 
Q 582.024048 173.820497 582.024048 166.776145 
Q 582.024048 159.649661 585.323873 155.562041 
Q 588.62846 151.474421 594.375774 151.474421 
Q 596.589943 151.474421 598.618407 152.030388 
Q 600.651632 152.580037 602.451537 153.6667 
L 602.451537 159.763381 
Q 600.594492 158.367147 598.756495 157.678506 
Q 596.918497 156.983547 595.070976 156.983547 
Q 591.652109 156.983547 589.799826 159.523305 
Q 587.947544 162.056745 587.947544 166.776145 
Q 587.947544 171.45132 589.733163 174.003714 
Q 591.518783 176.549789 594.804323 176.549789 
Q 595.699514 176.549789 596.46614 176.404479 
Q 597.232766 176.252852 597.842257 175.936962 
L 597.842257 170.213031 
L 594.342443 170.213031 
L 594.342443 165.114562 
L 603.270541 165.114562 
L 603.270541 179.291716 
z
" clip-path="url(#p26de46f5e0)" style="fill: #ffa600"/>
   </g>
   <g id="patch_83">
    <path d="M 625.635271 192.157984 
Q 623.858038 192.198637 621.936272 192.219201 
Q 620.014505 192.24 617.921439 192.24 
Q 611.679713 192.24 608.034245 192.085895 
Q 604.388778 191.93179 604.388778 191.668251 
Q 604.388778 191.403767 608.034245 191.249899 
Q 611.679713 191.095794 617.921439 191.095794 
Q 620.014505 191.095794 621.936272 191.116593 
Q 623.858038 191.137156 625.635271 191.17781 
L 625.635271 191.405895 
Q 623.841979 191.352005 622.102218 191.326951 
Q 620.362457 191.301897 618.440691 191.301897 
Q 614.993288 191.301897 613.017991 191.399513 
Q 611.048046 191.496892 611.048046 191.668251 
Q 611.048046 191.838901 613.017991 191.936517 
Q 614.993288 192.033896 618.440691 192.033896 
Q 620.362457 192.033896 622.102218 192.008842 
Q 623.841979 191.983552 625.635271 191.929663 
L 625.635271 192.157984 
z
" clip-path="url(#p26de46f5e0)" style="fill: #0000ff"/>
   </g>
   <g id="patch_84">
    <path d="M 604.388778 189.899625 
L 625.635271 189.899625 
L 625.635271 190.132911 
L 617.991474 190.132911 
L 617.991474 191.095794 
L 612.047397 191.095794 
L 612.047397 190.132911 
L 604.388778 190.132911 
L 604.388778 189.899625 
z
" clip-path="url(#p26de46f5e0)" style="fill: #ff0000"/>
   </g>
   <g id="patch_85">
    <path d="M 619.106242 188.903475 
L 610.935182 188.903475 
L 609.645015 189.899625 
L 604.388778 189.899625 
L 611.895206 184.431347 
L 618.128842 184.431347 
L 625.635271 189.899625 
L 620.383377 189.899625 
L 619.106242 188.903475 
z
M 612.238381 187.888574 
L 617.790011 187.888574 
L 615.01854 185.713451 
L 612.238381 187.888574 
z
" clip-path="url(#p26de46f5e0)" style="fill: #008000"/>
   </g>
   <g id="patch_86">
    <path d="M 625.635271 181.738978 
Q 623.492527 183.085163 621.187887 183.761328 
Q 618.883247 184.431347 616.426235 184.431347 
Q 610.874148 184.431347 607.631463 180.423529 
Q 604.388778 176.415711 604.388778 169.56185 
Q 604.388778 162.628079 607.688603 158.650995 
Q 610.993189 154.673912 616.740504 154.673912 
Q 618.954672 154.673912 620.983136 155.214844 
Q 623.016362 155.74963 624.816266 156.806907 
L 624.816266 162.738724 
Q 622.959222 161.380246 621.121224 160.710227 
Q 619.283226 160.034061 617.435705 160.034061 
Q 614.016839 160.034061 612.164556 162.505139 
Q 610.312273 164.97007 610.312273 169.56185 
Q 610.312273 174.110601 612.097893 176.593973 
Q 613.883512 179.071198 617.169053 179.071198 
Q 618.064243 179.071198 618.830869 178.929818 
Q 619.597495 178.78229 620.206987 178.474942 
L 620.206987 172.905796 
L 616.707172 172.905796 
L 616.707172 167.945199 
L 625.635271 167.945199 
L 625.635271 181.738978 
z
" clip-path="url(#p26de46f5e0)" style="fill: #ffa600"/>
   </g>
   <g id="patch_87">
    <path d="M 626.753507 191.309546 
L 648 191.309546 
L 648 191.49101 
L 640.356204 191.49101 
L 640.356204 192.24 
L 634.412127 192.24 
L 634.412127 191.49101 
L 626.753507 191.49101 
L 626.753507 191.309546 
z
" clip-path="url(#p26de46f5e0)" style="fill: #ff0000"/>
   </g>
   <g id="patch_88">
    <path d="M 641.470971 190.216043 
L 633.299912 190.216043 
L 632.009744 191.309546 
L 626.753507 191.309546 
L 634.259935 185.30686 
L 640.493572 185.30686 
L 648 191.309546 
L 642.748107 191.309546 
L 641.470971 190.216043 
z
M 634.603111 189.101957 
L 640.15474 189.101957 
L 637.38327 186.714262 
L 634.603111 189.101957 
z
" clip-path="url(#p26de46f5e0)" style="fill: #008000"/>
   </g>
   <g id="patch_89">
    <path d="M 648 184.639262 
Q 646.222768 184.970175 644.301001 185.137556 
Q 642.379235 185.30686 640.286169 185.30686 
Q 634.044443 185.30686 630.398975 184.052468 
Q 626.753507 182.798076 626.753507 180.652913 
Q 626.753507 178.500053 630.398975 177.247585 
Q 634.044443 175.993193 640.286169 175.993193 
Q 642.379235 175.993193 644.301001 176.162498 
Q 646.222768 176.329878 648 176.660791 
L 648 178.517368 
Q 646.206708 178.078716 644.466948 177.874781 
Q 642.727187 177.670846 640.80542 177.670846 
Q 637.358018 177.670846 635.38272 178.465423 
Q 633.412776 179.258075 633.412776 180.652913 
Q 633.412776 182.041978 635.38272 182.836555 
Q 637.358018 183.629207 640.80542 183.629207 
Q 642.727187 183.629207 644.466948 183.425272 
Q 646.206708 183.219414 648 182.780761 
L 648 184.639262 
z
" clip-path="url(#p26de46f5e0)" style="fill: #0000ff"/>
   </g>
   <g id="patch_90">
    <path d="M 648 173.739666 
Q 645.857256 174.86643 643.552617 175.432384 
Q 641.247977 175.993193 638.790964 175.993193 
Q 633.238878 175.993193 629.996192 172.638627 
Q 626.753507 169.284061 626.753507 163.547341 
Q 626.753507 157.743736 630.053332 154.414895 
Q 633.357919 151.086054 639.105233 151.086054 
Q 641.319402 151.086054 643.347866 151.538818 
Q 645.381091 151.986436 647.180996 152.871383 
L 647.180996 157.836347 
Q 645.323951 156.699293 643.485954 156.138483 
Q 641.647956 155.572529 639.800435 155.572529 
Q 636.381568 155.572529 634.529285 157.640835 
Q 632.677003 159.703996 632.677003 163.547341 
Q 632.677003 167.354671 634.462622 169.433267 
Q 636.248242 171.506718 639.533782 171.506718 
Q 640.428973 171.506718 641.195599 171.388382 
Q 641.962225 171.264901 642.571716 171.007649 
L 642.571716 166.346243 
L 639.071902 166.346243 
L 639.071902 162.194196 
L 648 162.194196 
L 648 173.739666 
z
" clip-path="url(#p26de46f5e0)" style="fill: #ffa600"/>
   </g>
   <g id="patch_91">
    <path d="M 111.246493 192.624007 
Q 109.469261 192.433664 107.547494 192.337385 
Q 105.625728 192.24 103.532662 192.24 
Q 97.290936 192.24 93.645468 192.961535 
Q 90 193.68307 90 194.916984 
Q 90 196.155324 93.645468 196.875752 
Q 97.290936 197.597287 103.532662 197.597287 
Q 105.625728 197.597287 107.547494 197.499902 
Q 109.469261 197.403624 111.246493 197.21328 
L 111.246493 196.145364 
Q 109.453201 196.39768 107.71344 196.514985 
Q 105.97368 196.63229 104.051913 196.63229 
Q 100.604511 196.63229 98.629213 196.175244 
Q 96.659269 195.719304 96.659269 194.916984 
Q 96.659269 194.117983 98.629213 193.660937 
Q 100.604511 193.204998 104.051913 193.204998 
Q 105.97368 193.204998 107.71344 193.322303 
Q 109.453201 193.440714 111.246493 193.69303 
L 111.246493 192.624007 
z
" clip-path="url(#p26de46f5e0)" style="fill: #0000ff"/>
   </g>
   <g id="patch_92">
    <path d="M 133.611222 192.472237 
Q 131.83399 192.357123 129.912224 192.298896 
Q 127.990457 192.24 125.897391 192.24 
Q 119.655665 192.24 116.010197 192.676365 
Q 112.364729 193.112731 112.364729 193.858969 
Q 112.364729 194.607884 116.010197 195.04358 
Q 119.655665 195.479945 125.897391 195.479945 
Q 127.990457 195.479945 129.912224 195.421049 
Q 131.83399 195.362823 133.611222 195.247708 
L 133.611222 194.60186 
Q 131.817931 194.754454 130.07817 194.825397 
Q 128.338409 194.89634 126.416643 194.89634 
Q 122.96924 194.89634 120.993943 194.619931 
Q 119.023998 194.344191 119.023998 193.858969 
Q 119.023998 193.375754 120.993943 193.099345 
Q 122.96924 192.823605 126.416643 192.823605 
Q 128.338409 192.823605 130.07817 192.894548 
Q 131.817931 192.96616 133.611222 193.118754 
L 133.611222 192.472237 
z
" clip-path="url(#p26de46f5e0)" style="fill: #0000ff"/>
   </g>
   <g id="patch_93">
    <path d="M 155.975952 194.691686 
Q 154.198719 194.57487 152.276953 194.515783 
Q 150.355187 194.456016 148.262121 194.456016 
Q 142.020395 194.456016 138.374927 194.898832 
Q 134.729459 195.341648 134.729459 196.098917 
Q 134.729459 196.858903 138.374927 197.30104 
Q 142.020395 197.743856 148.262121 197.743856 
Q 150.355187 197.743856 152.276953 197.684089 
Q 154.198719 197.625002 155.975952 197.508185 
L 155.975952 196.852791 
Q 154.18266 197.007641 152.442899 197.079632 
Q 150.703139 197.151624 148.781372 197.151624 
Q 145.33397 197.151624 143.358672 196.871128 
Q 141.388728 196.591312 141.388728 196.098917 
Q 141.388728 195.60856 143.358672 195.328064 
Q 145.33397 195.048248 148.781372 195.048248 
Q 150.703139 195.048248 152.442899 195.12024 
Q 154.18266 195.192911 155.975952 195.34776 
L 155.975952 194.691686 
z
" clip-path="url(#p26de46f5e0)" style="fill: #0000ff"/>
   </g>
   <g id="patch_94">
    <path d="M 134.729459 194.456016 
L 155.975952 194.456016 
L 155.975952 194.023831 
L 148.332155 194.023831 
L 148.332155 192.24 
L 142.388078 192.24 
L 142.388078 194.023831 
L 134.729459 194.023831 
L 134.729459 194.456016 
z
" clip-path="url(#p26de46f5e0)" style="fill: #ff0000"/>
   </g>
   <g id="patch_95">
    <path d="M 200.705411 192.281652 
Q 198.928178 192.261006 197.006412 192.250563 
Q 195.084645 192.24 192.99158 192.24 
Q 186.749853 192.24 183.104386 192.318262 
Q 179.458918 192.396525 179.458918 192.530363 
Q 179.458918 192.664682 183.104386 192.742824 
Q 186.749853 192.821087 192.99158 192.821087 
Q 195.084645 192.821087 197.006412 192.810524 
Q 198.928178 192.800081 200.705411 192.779435 
L 200.705411 192.663602 
Q 198.912119 192.690969 197.172358 192.703693 
Q 195.432598 192.716417 193.510831 192.716417 
Q 190.063428 192.716417 188.088131 192.666842 
Q 186.118186 192.617388 186.118186 192.530363 
Q 186.118186 192.443698 188.088131 192.394124 
Q 190.063428 192.34467 193.510831 192.34467 
Q 195.432598 192.34467 197.172358 192.357394 
Q 198.912119 192.370237 200.705411 192.397605 
L 200.705411 192.281652 
z
" clip-path="url(#p26de46f5e0)" style="fill: #0000ff"/>
   </g>
   <g id="patch_96">
    <path d="M 268.917836 192.815624 
L 290.164329 192.815624 
L 290.164329 192.703362 
L 282.520532 192.703362 
L 282.520532 192.24 
L 276.576455 192.24 
L 276.576455 192.703362 
L 268.917836 192.703362 
L 268.917836 192.815624 
z
" clip-path="url(#p26de46f5e0)" style="fill: #ff0000"/>
   </g>
   <g id="patch_97">
    <path d="M 536.176353 192.484739 
Q 534.39912 192.363427 532.477354 192.302066 
Q 530.555587 192.24 528.462521 192.24 
Q 522.220795 192.24 518.575328 192.699856 
Q 514.92986 193.159711 514.92986 193.94612 
Q 514.92986 194.735351 518.575328 195.194501 
Q 522.220795 195.654357 528.462521 195.654357 
Q 530.555587 195.654357 532.477354 195.59229 
Q 534.39912 195.530929 536.176353 195.409618 
L 536.176353 194.729003 
Q 534.383061 194.889812 532.6433 194.964573 
Q 530.90354 195.039335 528.981773 195.039335 
Q 525.53437 195.039335 523.559073 194.748046 
Q 521.589128 194.457463 521.589128 193.94612 
Q 521.589128 193.436894 523.559073 193.145605 
Q 525.53437 192.855021 528.981773 192.855021 
Q 530.90354 192.855021 532.6433 192.929783 
Q 534.383061 193.00525 536.176353 193.166059 
L 536.176353 192.484739 
z
" clip-path="url(#p26de46f5e0)" style="fill: #0000ff"/>
   </g>
   <g id="patch_98">
    <path d="M 582.024048 192.411918 
L 603.270541 192.411918 
L 603.270541 192.378389 
L 595.626745 192.378389 
L 595.626745 192.24 
L 589.682668 192.24 
L 589.682668 192.378389 
L 582.024048 192.378389 
L 582.024048 192.411918 
z
" clip-path="url(#p26de46f5e0)" style="fill: #ff0000"/>
   </g>
   <g id="matplotlib.axis_1">
    <g id="xtick_1">
     <g id="line2d_2">
      <defs>
       <path id="mddacd20e03" d="M 0 0 
L 0 3.5 
" style="stroke: #000000; stroke-width: 0.8"/>
      </defs>
      <g>
       <use xlink:href="#mddacd20e03" x="100.623246" y="192.24" style="stroke: #000000; stroke-width: 0.8"/>
      </g>
     </g>
     <g id="text_1">
      <!-- 0 -->
      <g transform="translate(97.441996 206.838437) scale(0.1 -0.1)">
       <defs>
        <path id="DejaVuSans-30" d="M 2034 4250 
Q 1547 4250 1301 3770 
Q 1056 3291 1056 2328 
Q 1056 1369 1301 889 
Q 1547 409 2034 409 
Q 2525 409 2770 889 
Q 3016 1369 3016 2328 
Q 3016 3291 2770 3770 
Q 2525 4250 2034 4250 
z
M 2034 4750 
Q 2819 4750 3233 4129 
Q 3647 3509 3647 2328 
Q 3647 1150 3233 529 
Q 2819 -91 2034 -91 
Q 1250 -91 836 529 
Q 422 1150 422 2328 
Q 422 3509 836 4129 
Q 1250 4750 2034 4750 
z
" transform="scale(0.015625)"/>
       </defs>
       <use xlink:href="#DejaVuSans-30"/>
      </g>
     </g>
    </g>
    <g id="xtick_2">
     <g id="line2d_3">
      <g>
       <use xlink:href="#mddacd20e03" x="212.446894" y="192.24" style="stroke: #000000; stroke-width: 0.8"/>
      </g>
     </g>
     <g id="text_2">
      <!-- 5 -->
      <g transform="translate(209.265644 206.838437) scale(0.1 -0.1)">
       <defs>
        <path id="DejaVuSans-35" d="M 691 4666 
L 3169 4666 
L 3169 4134 
L 1269 4134 
L 1269 2991 
Q 1406 3038 1543 3061 
Q 1681 3084 1819 3084 
Q 2600 3084 3056 2656 
Q 3513 2228 3513 1497 
Q 3513 744 3044 326 
Q 2575 -91 1722 -91 
Q 1428 -91 1123 -41 
Q 819 9 494 109 
L 494 744 
Q 775 591 1075 516 
Q 1375 441 1709 441 
Q 2250 441 2565 725 
Q 2881 1009 2881 1497 
Q 2881 1984 2565 2268 
Q 2250 2553 1709 2553 
Q 1456 2553 1204 2497 
Q 953 2441 691 2322 
L 691 4666 
z
" transform="scale(0.015625)"/>
       </defs>
       <use xlink:href="#DejaVuSans-35"/>
      </g>
     </g>
    </g>
    <g id="xtick_3">
     <g id="line2d_4">
      <g>
       <use xlink:href="#mddacd20e03" x="324.270541" y="192.24" style="stroke: #000000; stroke-width: 0.8"/>
      </g>
     </g>
     <g id="text_3">
      <!-- 10 -->
      <g transform="translate(317.908041 206.838437) scale(0.1 -0.1)">
       <defs>
        <path id="DejaVuSans-31" d="M 794 531 
L 1825 531 
L 1825 4091 
L 703 3866 
L 703 4441 
L 1819 4666 
L 2450 4666 
L 2450 531 
L 3481 531 
L 3481 0 
L 794 0 
L 794 531 
z
" transform="scale(0.015625)"/>
       </defs>
       <use xlink:href="#DejaVuSans-31"/>
       <use xlink:href="#DejaVuSans-30" x="63.623047"/>
      </g>
     </g>
    </g>
    <g id="xtick_4">
     <g id="line2d_5">
      <g>
       <use xlink:href="#mddacd20e03" x="436.094188" y="192.24" style="stroke: #000000; stroke-width: 0.8"/>
      </g>
     </g>
     <g id="text_4">
      <!-- 15 -->
      <g transform="translate(429.731688 206.838437) scale(0.1 -0.1)">
       <use xlink:href="#DejaVuSans-31"/>
       <use xlink:href="#DejaVuSans-35" x="63.623047"/>
      </g>
     </g>
    </g>
    <g id="xtick_5">
     <g id="line2d_6">
      <g>
       <use xlink:href="#mddacd20e03" x="547.917836" y="192.24" style="stroke: #000000; stroke-width: 0.8"/>
      </g>
     </g>
     <g id="text_5">
      <!-- 20 -->
      <g transform="translate(541.555336 206.838437) scale(0.1 -0.1)">
       <defs>
        <path id="DejaVuSans-32" d="M 1228 531 
L 3431 531 
L 3431 0 
L 469 0 
L 469 531 
Q 828 903 1448 1529 
Q 2069 2156 2228 2338 
Q 2531 2678 2651 2914 
Q 2772 3150 2772 3378 
Q 2772 3750 2511 3984 
Q 2250 4219 1831 4219 
Q 1534 4219 1204 4116 
Q 875 4013 500 3803 
L 500 4441 
Q 881 4594 1212 4672 
Q 1544 4750 1819 4750 
Q 2544 4750 2975 4387 
Q 3406 4025 3406 3419 
Q 3406 3131 3298 2873 
Q 3191 2616 2906 2266 
Q 2828 2175 2409 1742 
Q 1991 1309 1228 531 
z
" transform="scale(0.015625)"/>
       </defs>
       <use xlink:href="#DejaVuSans-32"/>
       <use xlink:href="#DejaVuSans-30" x="63.623047"/>
      </g>
     </g>
    </g>
   </g>
   <g id="matplotlib.axis_2">
    <g id="ytick_1">
     <g id="line2d_7">
      <defs>
       <path id="mb76a9dc531" d="M 0 0 
L -3.5 0 
" style="stroke: #000000; stroke-width: 0.8"/>
      </defs>
      <g>
       <use xlink:href="#mb76a9dc531" x="90" y="192.24" style="stroke: #000000; stroke-width: 0.8"/>
      </g>
     </g>
     <g id="text_6">
      <!-- 0.000 -->
      <g transform="translate(54.371875 196.039219) scale(0.1 -0.1)">
       <defs>
        <path id="DejaVuSans-2e" d="M 684 794 
L 1344 794 
L 1344 0 
L 684 0 
L 684 794 
z
" transform="scale(0.015625)"/>
       </defs>
       <use xlink:href="#DejaVuSans-30"/>
       <use xlink:href="#DejaVuSans-2e" x="63.623047"/>
       <use xlink:href="#DejaVuSans-30" x="95.410156"/>
       <use xlink:href="#DejaVuSans-30" x="159.033203"/>
       <use xlink:href="#DejaVuSans-30" x="222.65625"/>
      </g>
     </g>
    </g>
    <g id="ytick_2">
     <g id="line2d_8">
      <g>
       <use xlink:href="#mb76a9dc531" x="90" y="158.474584" style="stroke: #000000; stroke-width: 0.8"/>
      </g>
     </g>
     <g id="text_7">
      <!-- 0.002 -->
      <g transform="translate(54.371875 162.273803) scale(0.1 -0.1)">
       <use xlink:href="#DejaVuSans-30"/>
       <use xlink:href="#DejaVuSans-2e" x="63.623047"/>
       <use xlink:href="#DejaVuSans-30" x="95.410156"/>
       <use xlink:href="#DejaVuSans-30" x="159.033203"/>
       <use xlink:href="#DejaVuSans-32" x="222.65625"/>
      </g>
     </g>
    </g>
    <g id="ytick_3">
     <g id="line2d_9">
      <g>
       <use xlink:href="#mb76a9dc531" x="90" y="124.709168" style="stroke: #000000; stroke-width: 0.8"/>
      </g>
     </g>
     <g id="text_8">
      <!-- 0.004 -->
      <g transform="translate(54.371875 128.508387) scale(0.1 -0.1)">
       <defs>
        <path id="DejaVuSans-34" d="M 2419 4116 
L 825 1625 
L 2419 1625 
L 2419 4116 
z
M 2253 4666 
L 3047 4666 
L 3047 1625 
L 3713 1625 
L 3713 1100 
L 3047 1100 
L 3047 0 
L 2419 0 
L 2419 1100 
L 313 1100 
L 313 1709 
L 2253 4666 
z
" transform="scale(0.015625)"/>
       </defs>
       <use xlink:href="#DejaVuSans-30"/>
       <use xlink:href="#DejaVuSans-2e" x="63.623047"/>
       <use xlink:href="#DejaVuSans-30" x="95.410156"/>
       <use xlink:href="#DejaVuSans-30" x="159.033203"/>
       <use xlink:href="#DejaVuSans-34" x="222.65625"/>
      </g>
     </g>
    </g>
    <g id="ytick_4">
     <g id="line2d_10">
      <g>
       <use xlink:href="#mb76a9dc531" x="90" y="90.943753" style="stroke: #000000; stroke-width: 0.8"/>
      </g>
     </g>
     <g id="text_9">
      <!-- 0.006 -->
      <g transform="translate(54.371875 94.742971) scale(0.1 -0.1)">
       <defs>
        <path id="DejaVuSans-36" d="M 2113 2584 
Q 1688 2584 1439 2293 
Q 1191 2003 1191 1497 
Q 1191 994 1439 701 
Q 1688 409 2113 409 
Q 2538 409 2786 701 
Q 3034 994 3034 1497 
Q 3034 2003 2786 2293 
Q 2538 2584 2113 2584 
z
M 3366 4563 
L 3366 3988 
Q 3128 4100 2886 4159 
Q 2644 4219 2406 4219 
Q 1781 4219 1451 3797 
Q 1122 3375 1075 2522 
Q 1259 2794 1537 2939 
Q 1816 3084 2150 3084 
Q 2853 3084 3261 2657 
Q 3669 2231 3669 1497 
Q 3669 778 3244 343 
Q 2819 -91 2113 -91 
Q 1303 -91 875 529 
Q 447 1150 447 2328 
Q 447 3434 972 4092 
Q 1497 4750 2381 4750 
Q 2619 4750 2861 4703 
Q 3103 4656 3366 4563 
z
" transform="scale(0.015625)"/>
       </defs>
       <use xlink:href="#DejaVuSans-30"/>
       <use xlink:href="#DejaVuSans-2e" x="63.623047"/>
       <use xlink:href="#DejaVuSans-30" x="95.410156"/>
       <use xlink:href="#DejaVuSans-30" x="159.033203"/>
       <use xlink:href="#DejaVuSans-36" x="222.65625"/>
      </g>
     </g>
    </g>
    <g id="ytick_5">
     <g id="line2d_11">
      <g>
       <use xlink:href="#mb76a9dc531" x="90" y="57.178337" style="stroke: #000000; stroke-width: 0.8"/>
      </g>
     </g>
     <g id="text_10">
      <!-- 0.008 -->
      <g transform="translate(54.371875 60.977555) scale(0.1 -0.1)">
       <defs>
        <path id="DejaVuSans-38" d="M 2034 2216 
Q 1584 2216 1326 1975 
Q 1069 1734 1069 1313 
Q 1069 891 1326 650 
Q 1584 409 2034 409 
Q 2484 409 2743 651 
Q 3003 894 3003 1313 
Q 3003 1734 2745 1975 
Q 2488 2216 2034 2216 
z
M 1403 2484 
Q 997 2584 770 2862 
Q 544 3141 544 3541 
Q 544 4100 942 4425 
Q 1341 4750 2034 4750 
Q 2731 4750 3128 4425 
Q 3525 4100 3525 3541 
Q 3525 3141 3298 2862 
Q 3072 2584 2669 2484 
Q 3125 2378 3379 2068 
Q 3634 1759 3634 1313 
Q 3634 634 3220 271 
Q 2806 -91 2034 -91 
Q 1263 -91 848 271 
Q 434 634 434 1313 
Q 434 1759 690 2068 
Q 947 2378 1403 2484 
z
M 1172 3481 
Q 1172 3119 1398 2916 
Q 1625 2713 2034 2713 
Q 2441 2713 2670 2916 
Q 2900 3119 2900 3481 
Q 2900 3844 2670 4047 
Q 2441 4250 2034 4250 
Q 1625 4250 1398 4047 
Q 1172 3844 1172 3481 
z
" transform="scale(0.015625)"/>
       </defs>
       <use xlink:href="#DejaVuSans-30"/>
       <use xlink:href="#DejaVuSans-2e" x="63.623047"/>
       <use xlink:href="#DejaVuSans-30" x="95.410156"/>
       <use xlink:href="#DejaVuSans-30" x="159.033203"/>
       <use xlink:href="#DejaVuSans-38" x="222.65625"/>
      </g>
     </g>
    </g>
   </g>
  </g>
 </g>
 <defs>
  <clipPath id="p26de46f5e0">
   <rect x="90" y="25.92" width="558" height="166.32"/>
  </clipPath>
 </defs>
</svg>
