<?xml version="1.0" encoding="utf-8" standalone="no"?>
<!DOCTYPE svg PUBLIC "-//W3C//DTD SVG 1.1//EN"
  "http://www.w3.org/Graphics/SVG/1.1/DTD/svg11.dtd">
<svg xmlns:xlink="http://www.w3.org/1999/xlink" width="720pt" height="216pt" viewBox="0 0 720 216" xmlns="http://www.w3.org/2000/svg" version="1.1">
 <metadata>
  <rdf:RDF xmlns:dc="http://purl.org/dc/elements/1.1/" xmlns:cc="http://creativecommons.org/ns#" xmlns:rdf="http://www.w3.org/1999/02/22-rdf-syntax-ns#">
   <cc:Work>
    <dc:type rdf:resource="http://purl.org/dc/dcmitype/StillImage"/>
    <dc:date>2024-11-23T04:40:05.819585</dc:date>
    <dc:format>image/svg+xml</dc:format>
    <dc:creator>
     <cc:Agent>
      <dc:title>Matplotlib v3.7.2, https://matplotlib.org/</dc:title>
     </cc:Agent>
    </dc:creator>
   </cc:Work>
  </rdf:RDF>
 </metadata>
 <defs>
  <style type="text/css">*{stroke-linejoin: round; stroke-linecap: butt}</style>
 </defs>
 <g id="figure_1">
  <g id="patch_1">
   <path d="M 0 216 
L 720 216 
L 720 0 
L 0 0 
z
" style="fill: #ffffff"/>
  </g>
  <g id="axes_1">
   <g id="patch_2">
    <path d="M 90 192.24 
L 648 192.24 
L 648 25.92 
L 90 25.92 
z
" style="fill: #ffffff"/>
   </g>
   <g id="line2d_1">
    <path d="M 90 192.24 
L 648 192.24 
" clip-path="url(#p9f327899d7)" style="fill: none; stroke: #000000; stroke-width: 0.5; stroke-linecap: square"/>
   </g>
   <g id="patch_3">
    <path d="M 128 191.782716 
Q 124.167638 192.011358 120.045719 192.126201 
Q 115.923801 192.24 111.529359 192.24 
Q 101.599283 192.24 95.799641 191.559294 
Q 90 190.878588 90 189.714498 
Q 90 188.536835 95.901838 187.861349 
Q 101.812192 187.185864 112.091439 187.185864 
Q 116.051546 187.185864 119.679516 187.277738 
Q 123.316002 187.368568 126.535186 187.548141 
L 126.535186 188.555627 
Q 123.213805 188.324897 119.92649 188.211098 
Q 116.639175 188.096255 113.334827 188.096255 
Q 107.220081 188.096255 103.907216 188.515954 
Q 100.594352 188.934609 100.594352 189.714498 
Q 100.594352 190.487078 103.787987 190.908865 
Q 106.981623 191.329608 112.857911 191.329608 
Q 114.458987 191.329608 115.830121 191.305596 
Q 117.201255 191.280539 118.291349 191.228337 
L 118.291349 190.282449 
L 112.031824 190.282449 
L 112.031824 189.439919 
L 128 189.439919 
L 128 191.782716 
z
" clip-path="url(#p9f327899d7)" style="fill: #ffa600"/>
   </g>
   <g id="patch_4">
    <path d="M 128 186.822395 
Q 124.821366 187.002558 121.384228 187.093687 
Q 117.94709 187.185864 114.203578 187.185864 
Q 103.04006 187.185864 96.52003 186.502919 
Q 90 185.819974 90 184.652055 
Q 90 183.479946 96.52003 182.798049 
Q 103.04006 182.115105 114.203578 182.115105 
Q 117.94709 182.115105 121.384228 182.207281 
Q 124.821366 182.29841 128 182.478574 
L 128 183.489374 
Q 124.792643 183.250552 121.681028 183.139522 
Q 118.569413 183.028491 115.132275 183.028491 
Q 108.96649 183.028491 105.43361 183.461092 
Q 101.910305 183.892646 101.910305 184.652055 
Q 101.910305 185.408322 105.43361 185.840924 
Q 108.96649 186.272478 115.132275 186.272478 
Q 118.569413 186.272478 121.681028 186.161447 
Q 124.792643 186.049368 128 185.810547 
L 128 186.822395 
z
" clip-path="url(#p9f327899d7)" style="fill: #0000ff"/>
   </g>
   <g id="patch_5">
    <path d="M 156.322633 192.086186 
L 141.708444 192.086186 
L 139.400941 192.24 
L 130 192.24 
L 143.425475 191.395652 
L 154.574525 191.395652 
L 168 192.24 
L 158.606829 192.24 
L 156.322633 192.086186 
z
M 144.039256 191.929477 
L 153.968514 191.929477 
L 149.011654 191.59362 
L 144.039256 191.929477 
z
" clip-path="url(#p9f327899d7)" style="fill: #008000"/>
   </g>
   <g id="patch_6">
    <path d="M 130 190.353696 
L 168 190.353696 
L 168 190.556907 
L 154.328837 190.556907 
L 154.328837 191.395652 
L 143.697674 191.395652 
L 143.697674 190.556907 
L 130 190.556907 
L 130 190.353696 
z
" clip-path="url(#p9f327899d7)" style="fill: #ff0000"/>
   </g>
   <g id="patch_7">
    <path d="M 168 189.79539 
Q 164.167638 190.074543 160.045719 190.214757 
Q 155.923801 190.353696 151.529359 190.353696 
Q 141.599283 190.353696 135.799641 189.52261 
Q 130 188.691524 130 187.270264 
Q 130 185.832434 135.901838 185.007721 
Q 141.812192 184.183008 152.091439 184.183008 
Q 156.051546 184.183008 159.679516 184.295179 
Q 163.316002 184.406076 166.535186 184.625319 
L 166.535186 185.855378 
Q 163.213805 185.573676 159.92649 185.434736 
Q 156.639175 185.294522 153.334827 185.294522 
Q 147.220081 185.294522 143.907216 185.806941 
Q 140.594352 186.318084 140.594352 187.270264 
Q 140.594352 188.213522 143.787987 188.728489 
Q 146.981623 189.242182 152.857911 189.242182 
Q 154.458987 189.242182 155.830121 189.212865 
Q 157.201255 189.182273 158.291349 189.118539 
L 158.291349 187.963686 
L 152.031824 187.963686 
L 152.031824 186.935025 
L 168 186.935025 
L 168 189.79539 
z
" clip-path="url(#p9f327899d7)" style="fill: #ffa600"/>
   </g>
   <g id="patch_8">
    <path d="M 168 183.544244 
Q 164.821366 183.860865 161.384228 184.021016 
Q 157.94709 184.183008 154.203578 184.183008 
Q 143.04006 184.183008 136.52003 182.982794 
Q 130 181.782581 130 179.730068 
Q 130 177.670192 136.52003 176.471819 
Q 143.04006 175.271606 154.203578 175.271606 
Q 157.94709 175.271606 161.384228 175.433598 
Q 164.821366 175.593749 168 175.91037 
L 168 177.68676 
Q 164.792643 177.267053 161.681028 177.071926 
Q 158.569413 176.876799 155.132275 176.876799 
Q 148.96649 176.876799 145.43361 177.637057 
Q 141.910305 178.395475 141.910305 179.730068 
Q 141.910305 181.059139 145.43361 181.819397 
Q 148.96649 182.577814 155.132275 182.577814 
Q 158.569413 182.577814 161.681028 182.382688 
Q 164.792643 182.18572 168 181.766013 
L 168 183.544244 
z
" clip-path="url(#p9f327899d7)" style="fill: #0000ff"/>
   </g>
   <g id="patch_9">
    <path d="M 196.322633 192.117117 
L 181.708444 192.117117 
L 179.400941 192.24 
L 170 192.24 
L 183.425475 191.565446 
L 194.574525 191.565446 
L 208 192.24 
L 198.606829 192.24 
L 196.322633 192.117117 
z
M 184.039256 191.991922 
L 193.968514 191.991922 
L 189.011654 191.723603 
L 184.039256 191.991922 
z
" clip-path="url(#p9f327899d7)" style="fill: #008000"/>
   </g>
   <g id="patch_10">
    <path d="M 208 191.411723 
Q 204.167638 191.488585 200.045719 191.527191 
Q 195.923801 191.565446 191.529359 191.565446 
Q 181.599283 191.565446 175.799641 191.336617 
Q 170 191.107788 170 190.716461 
Q 170 190.320573 175.901838 190.093498 
Q 181.812192 189.866424 192.091439 189.866424 
Q 196.051546 189.866424 199.679516 189.897309 
Q 203.316002 189.927843 206.535186 189.988209 
L 206.535186 190.32689 
Q 203.213805 190.249327 199.92649 190.211072 
Q 196.639175 190.172465 193.334827 190.172465 
Q 187.220081 190.172465 183.907216 190.313553 
Q 180.594352 190.454291 180.594352 190.716461 
Q 180.594352 190.976176 183.787987 191.117966 
Q 186.981623 191.259405 192.857911 191.259405 
Q 194.458987 191.259405 195.830121 191.251332 
Q 197.201255 191.242909 198.291349 191.225361 
L 198.291349 190.907387 
L 192.031824 190.907387 
L 192.031824 190.624158 
L 208 190.624158 
L 208 191.411723 
z
" clip-path="url(#p9f327899d7)" style="fill: #ffa600"/>
   </g>
   <g id="patch_11">
    <path d="M 208 189.235263 
Q 204.821366 189.548115 201.384228 189.70636 
Q 197.94709 189.866424 194.203578 189.866424 
Q 183.04006 189.866424 176.52003 188.680497 
Q 170 187.49457 170 185.466489 
Q 170 183.431133 176.52003 182.247025 
Q 183.04006 181.061098 194.203578 181.061098 
Q 197.94709 181.061098 201.384228 181.221162 
Q 204.821366 181.379406 208 181.692258 
L 208 183.447503 
Q 204.792643 183.032792 201.681028 182.839988 
Q 198.569413 182.647184 195.132275 182.647184 
Q 188.96649 182.647184 185.43361 183.398393 
Q 181.910305 184.147782 181.910305 185.466489 
Q 181.910305 186.77974 185.43361 187.530948 
Q 188.96649 188.280337 195.132275 188.280337 
Q 198.569413 188.280337 201.681028 188.087533 
Q 204.792643 187.89291 208 187.4782 
L 208 189.235263 
z
" clip-path="url(#p9f327899d7)" style="fill: #0000ff"/>
   </g>
   <g id="patch_12">
    <path d="M 170 167.874916 
L 208 167.874916 
L 208 170.446589 
L 194.328837 170.446589 
L 194.328837 181.061098 
L 183.697674 181.061098 
L 183.697674 170.446589 
L 170 170.446589 
L 170 167.874916 
z
" clip-path="url(#p9f327899d7)" style="fill: #ff0000"/>
   </g>
   <g id="patch_13">
    <path d="M 248 191.669314 
Q 244.821366 191.95219 241.384228 192.095273 
Q 237.94709 192.24 234.203578 192.24 
Q 223.04006 192.24 216.52003 191.167702 
Q 210 190.095405 210 188.261645 
Q 210 186.421306 216.52003 185.350653 
Q 223.04006 184.278355 234.203578 184.278355 
Q 237.94709 184.278355 241.384228 184.423083 
Q 244.821366 184.566165 248 184.849041 
L 248 186.436107 
Q 244.792643 186.061132 241.681028 185.886802 
Q 238.569413 185.712471 235.132275 185.712471 
Q 228.96649 185.712471 225.43361 186.391702 
Q 221.910305 187.069289 221.910305 188.261645 
Q 221.910305 189.449066 225.43361 190.128298 
Q 228.96649 190.805884 235.132275 190.805884 
Q 238.569413 190.805884 241.681028 190.631554 
Q 244.792643 190.455579 248 190.080603 
L 248 191.669314 
z
" clip-path="url(#p9f327899d7)" style="fill: #0000ff"/>
   </g>
   <g id="patch_14">
    <path d="M 210 173.082857 
L 248 173.082857 
L 248 175.266291 
L 234.328837 175.266291 
L 234.328837 184.278355 
L 223.697674 184.278355 
L 223.697674 175.266291 
L 210 175.266291 
L 210 173.082857 
z
" clip-path="url(#p9f327899d7)" style="fill: #ff0000"/>
   </g>
   <g id="patch_15">
    <path d="M 236.322633 169.736015 
L 221.708444 169.736015 
L 219.400941 173.082857 
L 210 173.082857 
L 223.425475 154.710661 
L 234.574525 154.710661 
L 248 173.082857 
L 238.606829 173.082857 
L 236.322633 169.736015 
z
M 224.039256 166.326173 
L 233.968514 166.326173 
L 229.011654 159.018244 
L 224.039256 166.326173 
z
" clip-path="url(#p9f327899d7)" style="fill: #008000"/>
   </g>
   <g id="patch_16">
    <path d="M 288 192.206601 
Q 284.821366 192.223156 281.384228 192.23153 
Q 277.94709 192.24 274.203578 192.24 
Q 263.04006 192.24 256.52003 192.177244 
Q 250 192.114488 250 192.007167 
Q 250 191.899462 256.52003 191.836802 
Q 263.04006 191.774046 274.203578 191.774046 
Q 277.94709 191.774046 281.384228 191.782516 
Q 284.821366 191.79089 288 191.807445 
L 288 191.900328 
Q 284.792643 191.878383 281.681028 191.86818 
Q 278.569413 191.857977 275.132275 191.857977 
Q 268.96649 191.857977 265.43361 191.897729 
Q 261.910305 191.937385 261.910305 192.007167 
Q 261.910305 192.076661 265.43361 192.116413 
Q 268.96649 192.156069 275.132275 192.156069 
Q 278.569413 192.156069 281.681028 192.145866 
Q 284.792643 192.135567 288 192.113622 
L 288 192.206601 
z
" clip-path="url(#p9f327899d7)" style="fill: #0000ff"/>
   </g>
   <g id="patch_17">
    <path d="M 250 94.929551 
L 288 94.929551 
L 288 113.816926 
L 274.328837 113.816926 
L 274.328837 191.774046 
L 263.697674 191.774046 
L 263.697674 113.816926 
L 250 113.816926 
L 250 94.929551 
z
" clip-path="url(#p9f327899d7)" style="fill: #ff0000"/>
   </g>
   <g id="patch_18">
    <path d="M 328 192.237235 
Q 324.167638 192.238617 320.045719 192.239312 
Q 315.923801 192.24 311.529359 192.24 
Q 301.599283 192.24 295.799641 192.235884 
Q 290 192.231768 290 192.224728 
Q 290 192.217607 295.901838 192.213522 
Q 301.812192 192.209438 312.091439 192.209438 
Q 316.051546 192.209438 319.679516 192.209993 
Q 323.316002 192.210543 326.535186 192.211628 
L 326.535186 192.217721 
Q 323.213805 192.216325 319.92649 192.215637 
Q 316.639175 192.214943 313.334827 192.214943 
Q 307.220081 192.214943 303.907216 192.217481 
Q 300.594352 192.220012 300.594352 192.224728 
Q 300.594352 192.2294 303.787987 192.231951 
Q 306.981623 192.234495 312.857911 192.234495 
Q 314.458987 192.234495 315.830121 192.23435 
Q 317.201255 192.234198 318.291349 192.233882 
L 318.291349 192.228163 
L 312.031824 192.228163 
L 312.031824 192.223068 
L 328 192.223068 
L 328 192.237235 
z
" clip-path="url(#p9f327899d7)" style="fill: #ffa600"/>
   </g>
   <g id="patch_19">
    <path d="M 328 192.205284 
Q 324.821366 192.207343 321.384228 192.208384 
Q 317.94709 192.209438 314.203578 192.209438 
Q 303.04006 192.209438 296.52003 192.201634 
Q 290 192.193829 290 192.180483 
Q 290 192.16709 296.52003 192.159297 
Q 303.04006 192.151493 314.203578 192.151493 
Q 317.94709 192.151493 321.384228 192.152547 
Q 324.821366 192.153588 328 192.155647 
L 328 192.167197 
Q 324.792643 192.164468 321.681028 192.163199 
Q 318.569413 192.161931 315.132275 192.161931 
Q 308.96649 192.161931 305.43361 192.166874 
Q 301.910305 192.171806 301.910305 192.180483 
Q 301.910305 192.189125 305.43361 192.194069 
Q 308.96649 192.199 315.132275 192.199 
Q 318.569413 192.199 321.681028 192.197732 
Q 324.792643 192.196451 328 192.193722 
L 328 192.205284 
z
" clip-path="url(#p9f327899d7)" style="fill: #0000ff"/>
   </g>
   <g id="patch_20">
    <path d="M 290 190.435273 
L 328 190.435273 
L 328 190.769984 
L 314.328837 190.769984 
L 314.328837 192.151493 
L 303.697674 192.151493 
L 303.697674 190.769984 
L 290 190.769984 
L 290 190.435273 
z
" clip-path="url(#p9f327899d7)" style="fill: #ff0000"/>
   </g>
   <g id="patch_21">
    <path d="M 316.322633 163.109767 
L 301.708444 163.109767 
L 299.400941 190.435273 
L 290 190.435273 
L 303.425475 40.434319 
L 314.574525 40.434319 
L 328 190.435273 
L 318.606829 190.435273 
L 316.322633 163.109767 
z
M 304.039256 135.269899 
L 313.968514 135.269899 
L 309.011654 75.603853 
L 304.039256 135.269899 
z
" clip-path="url(#p9f327899d7)" style="fill: #008000"/>
   </g>
   <g id="patch_22">
    <path d="M 368 192.232178 
Q 364.821366 192.236055 361.384228 192.238016 
Q 357.94709 192.24 354.203578 192.24 
Q 343.04006 192.24 336.52003 192.225302 
Q 330 192.210605 330 192.18547 
Q 330 192.160245 336.52003 192.14557 
Q 343.04006 192.130872 354.203578 192.130872 
Q 357.94709 192.130872 361.384228 192.132856 
Q 364.821366 192.134817 368 192.138695 
L 368 192.160448 
Q 364.792643 192.155308 361.681028 192.152919 
Q 358.569413 192.150529 355.132275 192.150529 
Q 348.96649 192.150529 345.43361 192.159839 
Q 341.910305 192.169127 341.910305 192.18547 
Q 341.910305 192.201746 345.43361 192.211056 
Q 348.96649 192.220343 355.132275 192.220343 
Q 358.569413 192.220343 361.681028 192.217954 
Q 364.792643 192.215542 368 192.210402 
L 368 192.232178 
z
" clip-path="url(#p9f327899d7)" style="fill: #0000ff"/>
   </g>
   <g id="patch_23">
    <path d="M 356.322633 192.077169 
L 341.708444 192.077169 
L 339.400941 192.130872 
L 330 192.130872 
L 343.425475 191.836073 
L 354.574525 191.836073 
L 368 192.130872 
L 358.606829 192.130872 
L 356.322633 192.077169 
z
M 344.039256 192.022455 
L 353.968514 192.022455 
L 349.011654 191.905192 
L 344.039256 192.022455 
z
" clip-path="url(#p9f327899d7)" style="fill: #008000"/>
   </g>
   <g id="patch_24">
    <path d="M 330 29.526306 
L 368 29.526306 
L 368 61.181232 
L 354.328837 61.181232 
L 354.328837 191.836073 
L 343.697674 191.836073 
L 343.697674 61.181232 
L 330 61.181232 
L 330 29.526306 
z
" clip-path="url(#p9f327899d7)" style="fill: #ff0000"/>
   </g>
   <g id="patch_25">
    <path d="M 408 192.237699 
Q 404.167638 192.23885 400.045719 192.239427 
Q 395.923801 192.24 391.529359 192.24 
Q 381.599283 192.24 375.799641 192.236575 
Q 370 192.233151 370 192.227294 
Q 370 192.221369 375.901838 192.21797 
Q 381.812192 192.214572 392.091439 192.214572 
Q 396.051546 192.214572 399.679516 192.215034 
Q 403.316002 192.215491 406.535186 192.216394 
L 406.535186 192.221463 
Q 403.213805 192.220302 399.92649 192.21973 
Q 396.639175 192.219152 393.334827 192.219152 
Q 387.220081 192.219152 383.907216 192.221264 
Q 380.594352 192.22337 380.594352 192.227294 
Q 380.594352 192.231181 383.787987 192.233303 
Q 386.981623 192.23542 392.857911 192.23542 
Q 394.458987 192.23542 395.830121 192.235299 
Q 397.201255 192.235173 398.291349 192.23491 
L 398.291349 192.230151 
L 392.031824 192.230151 
L 392.031824 192.225912 
L 408 192.225912 
L 408 192.237699 
z
" clip-path="url(#p9f327899d7)" style="fill: #ffa600"/>
   </g>
   <g id="patch_26">
    <path d="M 370 190.707348 
L 408 190.707348 
L 408 191.001299 
L 394.328837 191.001299 
L 394.328837 192.214572 
L 383.697674 192.214572 
L 383.697674 191.001299 
L 370 191.001299 
L 370 190.707348 
z
" clip-path="url(#p9f327899d7)" style="fill: #ff0000"/>
   </g>
   <g id="patch_27">
    <path d="M 396.322633 160.686179 
L 381.708444 160.686179 
L 379.400941 190.707348 
L 370 190.707348 
L 383.425475 25.90879 
L 394.574525 25.90879 
L 408 190.707348 
L 398.606829 190.707348 
L 396.322633 160.686179 
z
M 384.039256 130.099906 
L 393.968514 130.099906 
L 389.011654 64.547801 
L 384.039256 130.099906 
z
" clip-path="url(#p9f327899d7)" style="fill: #008000"/>
   </g>
   <g id="patch_28">
    <path d="M 448 192.22955 
Q 444.167638 192.234775 440.045719 192.2374 
Q 435.923801 192.24 431.529359 192.24 
Q 421.599283 192.24 415.799641 192.224445 
Q 410 192.20889 410 192.182289 
Q 410 192.155378 415.901838 192.139942 
Q 421.812192 192.124506 432.091439 192.124506 
Q 436.051546 192.124506 439.679516 192.126606 
Q 443.316002 192.128681 446.535186 192.132785 
L 446.535186 192.155807 
Q 443.213805 192.150535 439.92649 192.147934 
Q 436.639175 192.14531 433.334827 192.14531 
Q 427.220081 192.14531 423.907216 192.154901 
Q 420.594352 192.164467 420.594352 192.182289 
Q 420.594352 192.199943 423.787987 192.209582 
Q 426.981623 192.219196 432.857911 192.219196 
Q 434.458987 192.219196 435.830121 192.218648 
Q 437.201255 192.218075 438.291349 192.216882 
L 438.291349 192.195267 
L 432.031824 192.195267 
L 432.031824 192.176014 
L 448 192.176014 
L 448 192.22955 
z
" clip-path="url(#p9f327899d7)" style="fill: #ffa600"/>
   </g>
   <g id="patch_29">
    <path d="M 410 167.895722 
L 448 167.895722 
L 448 172.62101 
L 434.328837 172.62101 
L 434.328837 192.124506 
L 423.697674 192.124506 
L 423.697674 172.62101 
L 410 172.62101 
L 410 167.895722 
z
" clip-path="url(#p9f327899d7)" style="fill: #ff0000"/>
   </g>
   <g id="patch_30">
    <path d="M 436.322633 153.970152 
L 421.708444 153.970152 
L 419.400941 167.895722 
L 410 167.895722 
L 423.425475 91.452532 
L 434.574525 91.452532 
L 448 167.895722 
L 438.606829 167.895722 
L 436.322633 153.970152 
z
M 424.039256 139.782453 
L 433.968514 139.782453 
L 429.011654 109.37556 
L 424.039256 139.782453 
z
" clip-path="url(#p9f327899d7)" style="fill: #008000"/>
   </g>
   <g id="patch_31">
    <path d="M 450 191.861598 
L 488 191.861598 
L 488 191.935397 
L 474.328837 191.935397 
L 474.328837 192.24 
L 463.697674 192.24 
L 463.697674 191.935397 
L 450 191.935397 
L 450 191.861598 
z
" clip-path="url(#p9f327899d7)" style="fill: #ff0000"/>
   </g>
   <g id="patch_32">
    <path d="M 488 191.163836 
Q 484.167638 191.512717 480.045719 191.687954 
Q 475.923801 191.861598 471.529359 191.861598 
Q 461.599283 191.861598 455.799641 190.82292 
Q 450 189.784242 450 188.007974 
Q 450 186.210997 455.901838 185.180284 
Q 461.812192 184.149571 472.091439 184.149571 
Q 476.051546 184.149571 479.679516 184.289761 
Q 483.316002 184.428357 486.535186 184.702364 
L 486.535186 186.239672 
Q 483.213805 185.887605 479.92649 185.713961 
Q 476.639175 185.538723 473.334827 185.538723 
Q 467.220081 185.538723 463.907216 186.179136 
Q 460.594352 186.817955 460.594352 188.007974 
Q 460.594352 189.186842 463.787987 189.83044 
Q 466.981623 190.472446 472.857911 190.472446 
Q 474.458987 190.472446 475.830121 190.435805 
Q 477.201255 190.397572 478.291349 190.317918 
L 478.291349 188.874601 
L 472.031824 188.874601 
L 472.031824 187.588998 
L 488 187.588998 
L 488 191.163836 
z
" clip-path="url(#p9f327899d7)" style="fill: #ffa600"/>
   </g>
   <g id="patch_33">
    <path d="M 476.322633 171.417736 
L 461.708444 171.417736 
L 459.400941 184.149571 
L 450 184.149571 
L 463.425475 114.259284 
L 474.574525 114.259284 
L 488 184.149571 
L 478.606829 184.149571 
L 476.322633 171.417736 
z
M 464.039256 158.446242 
L 473.968514 158.446242 
L 469.011654 130.645905 
L 464.039256 158.446242 
z
" clip-path="url(#p9f327899d7)" style="fill: #008000"/>
   </g>
   <g id="patch_34">
    <path d="M 528 192.213199 
Q 524.821366 192.226484 521.384228 192.233203 
Q 517.94709 192.24 514.203578 192.24 
Q 503.04006 192.24 496.52003 192.189642 
Q 490 192.139285 490 192.053167 
Q 490 191.96674 496.52003 191.916459 
Q 503.04006 191.866101 514.203578 191.866101 
Q 517.94709 191.866101 521.384228 191.872898 
Q 524.821366 191.879618 528 191.892902 
L 528 191.967435 
Q 524.792643 191.949825 521.681028 191.941638 
Q 518.569413 191.933451 515.132275 191.933451 
Q 508.96649 191.933451 505.43361 191.965349 
Q 501.910305 191.997171 501.910305 192.053167 
Q 501.910305 192.108931 505.43361 192.140829 
Q 508.96649 192.17265 515.132275 192.17265 
Q 518.569413 192.17265 521.681028 192.164463 
Q 524.792643 192.156199 528 192.138589 
L 528 192.213199 
z
" clip-path="url(#p9f327899d7)" style="fill: #0000ff"/>
   </g>
   <g id="patch_35">
    <path d="M 528 191.220933 
Q 524.167638 191.543517 520.045719 191.705546 
Q 515.923801 191.866101 511.529359 191.866101 
Q 501.599283 191.866101 495.799641 190.905714 
Q 490 189.945327 490 188.302946 
Q 490 186.641417 495.901838 185.688395 
Q 501.812192 184.735372 512.091439 184.735372 
Q 516.051546 184.735372 519.679516 184.864995 
Q 523.316002 184.993145 526.535186 185.246499 
L 526.535186 186.667931 
Q 523.213805 186.342401 519.92649 186.181845 
Q 516.639175 186.019817 513.334827 186.019817 
Q 507.220081 186.019817 503.907216 186.611958 
Q 500.594352 187.202625 500.594352 188.302946 
Q 500.594352 189.392957 503.787987 189.988043 
Q 506.981623 190.581657 512.857911 190.581657 
Q 514.458987 190.581657 515.830121 190.547778 
Q 517.201255 190.512427 518.291349 190.438777 
L 518.291349 189.104251 
L 512.031824 189.104251 
L 512.031824 187.915551 
L 528 187.915551 
L 528 191.220933 
z
" clip-path="url(#p9f327899d7)" style="fill: #ffa600"/>
   </g>
   <g id="patch_36">
    <path d="M 490 175.591366 
L 528 175.591366 
L 528 177.374702 
L 514.328837 177.374702 
L 514.328837 184.735372 
L 503.697674 184.735372 
L 503.697674 177.374702 
L 490 177.374702 
L 490 175.591366 
z
" clip-path="url(#p9f327899d7)" style="fill: #ff0000"/>
   </g>
   <g id="patch_37">
    <path d="M 516.322633 170.42625 
L 501.708444 170.42625 
L 499.400941 175.591366 
L 490 175.591366 
L 503.425475 147.237916 
L 514.574525 147.237916 
L 528 175.591366 
L 518.606829 175.591366 
L 516.322633 170.42625 
z
M 504.039256 165.163908 
L 513.968514 165.163908 
L 509.011654 153.885724 
L 504.039256 165.163908 
z
" clip-path="url(#p9f327899d7)" style="fill: #008000"/>
   </g>
   <g id="patch_38">
    <path d="M 568 192.068831 
Q 564.821366 192.153676 561.384228 192.196591 
Q 557.94709 192.24 554.203578 192.24 
Q 543.04006 192.24 536.52003 191.91838 
Q 530 191.59676 530 191.04675 
Q 530 190.494767 536.52003 190.17364 
Q 543.04006 189.85202 554.203578 189.85202 
Q 557.94709 189.85202 561.384228 189.895428 
Q 564.821366 189.938344 568 190.023189 
L 568 190.499206 
Q 564.792643 190.386738 561.681028 190.33445 
Q 558.569413 190.282162 555.132275 190.282162 
Q 548.96649 190.282162 545.43361 190.485887 
Q 541.910305 190.68912 541.910305 191.04675 
Q 541.910305 191.4029 545.43361 191.606625 
Q 548.96649 191.809858 555.132275 191.809858 
Q 558.569413 191.809858 561.681028 191.75757 
Q 564.792643 191.704789 568 191.59232 
L 568 192.068831 
z
" clip-path="url(#p9f327899d7)" style="fill: #0000ff"/>
   </g>
   <g id="patch_39">
    <path d="M 556.322633 187.897727 
L 541.708444 187.897727 
L 539.400941 189.85202 
L 530 189.85202 
L 543.425475 179.124102 
L 554.574525 179.124102 
L 568 189.85202 
L 558.606829 189.85202 
L 556.322633 187.897727 
z
M 544.039256 185.906648 
L 553.968514 185.906648 
L 549.011654 181.639392 
L 544.039256 185.906648 
z
" clip-path="url(#p9f327899d7)" style="fill: #008000"/>
   </g>
   <g id="patch_40">
    <path d="M 568 177.122973 
Q 564.167638 178.123538 560.045719 178.626105 
Q 555.923801 179.124102 551.529359 179.124102 
Q 541.599283 179.124102 535.799641 176.145252 
Q 530 173.166402 530 168.072203 
Q 530 162.91861 535.901838 159.962603 
Q 541.812192 157.006597 552.091439 157.006597 
Q 556.051546 157.006597 559.679516 157.408651 
Q 563.316002 157.806135 566.535186 158.591967 
L 566.535186 163.000848 
Q 563.213805 161.991146 559.92649 161.493148 
Q 556.639175 160.990581 553.334827 160.990581 
Q 547.220081 160.990581 543.907216 162.827234 
Q 540.594352 164.659318 540.594352 168.072203 
Q 540.594352 171.453107 543.787987 173.298897 
Q 546.981623 175.140119 552.857911 175.140119 
Q 554.458987 175.140119 555.830121 175.035037 
Q 557.201255 174.925386 558.291349 174.696946 
L 558.291349 170.557624 
L 552.031824 170.557624 
L 552.031824 166.870612 
L 568 166.870612 
L 568 177.122973 
z
" clip-path="url(#p9f327899d7)" style="fill: #ffa600"/>
   </g>
   <g id="patch_41">
    <path d="M 596.322633 192.101834 
L 581.708444 192.101834 
L 579.400941 192.24 
L 570 192.24 
L 583.425475 191.48155 
L 594.574525 191.48155 
L 608 192.24 
L 598.606829 192.24 
L 596.322633 192.101834 
z
M 584.039256 191.961067 
L 593.968514 191.961067 
L 589.011654 191.659377 
L 584.039256 191.961067 
z
" clip-path="url(#p9f327899d7)" style="fill: #008000"/>
   </g>
   <g id="patch_42">
    <path d="M 608 190.452274 
Q 604.167638 190.966912 600.045719 191.225406 
Q 595.923801 191.48155 591.529359 191.48155 
Q 581.599283 191.48155 575.799641 189.949386 
Q 570 188.417222 570 185.797034 
Q 570 183.146296 575.901838 181.625882 
Q 581.812192 180.105468 592.091439 180.105468 
Q 596.051546 180.105468 599.679516 180.312263 
Q 603.316002 180.516709 606.535186 180.920899 
L 606.535186 183.188595 
Q 603.213805 182.669258 599.92649 182.413114 
Q 596.639175 182.15462 593.334827 182.15462 
Q 587.220081 182.15462 583.907216 183.099298 
Q 580.594352 184.041625 580.594352 185.797034 
Q 580.594352 187.535993 583.787987 188.48537 
Q 586.981623 189.432398 592.857911 189.432398 
Q 594.458987 189.432398 595.830121 189.378349 
Q 597.201255 189.321951 598.291349 189.204453 
L 598.291349 187.075404 
L 592.031824 187.075404 
L 592.031824 185.178998 
L 608 185.178998 
L 608 190.452274 
z
" clip-path="url(#p9f327899d7)" style="fill: #ffa600"/>
   </g>
   <g id="patch_43">
    <path d="M 608 179.27293 
Q 604.821366 179.685601 601.384228 179.894335 
Q 597.94709 180.105468 594.203578 180.105468 
Q 583.04006 180.105468 576.52003 178.541161 
Q 570 176.976854 570 174.301696 
Q 570 171.616942 576.52003 170.055034 
Q 583.04006 168.490726 594.203578 168.490726 
Q 597.94709 168.490726 601.384228 168.70186 
Q 604.821366 168.910594 608 169.323264 
L 608 171.638535 
Q 604.792643 171.091507 601.681028 170.837187 
Q 598.569413 170.582867 595.132275 170.582867 
Q 588.96649 170.582867 585.43361 171.573755 
Q 581.910305 172.562244 581.910305 174.301696 
Q 581.910305 176.033951 585.43361 177.024838 
Q 588.96649 178.013327 595.132275 178.013327 
Q 598.569413 178.013327 601.681028 177.759007 
Q 604.792643 177.502288 608 176.95526 
L 608 179.27293 
z
" clip-path="url(#p9f327899d7)" style="fill: #0000ff"/>
   </g>
   <g id="patch_44">
    <path d="M 648 191.565084 
Q 644.167638 191.902542 640.045719 192.072041 
Q 635.923801 192.24 631.529359 192.24 
Q 621.599283 192.24 615.799641 191.235331 
Q 610 190.230661 610 188.512553 
Q 610 186.774414 615.901838 185.777449 
Q 621.812192 184.780484 632.091439 184.780484 
Q 636.051546 184.780484 639.679516 184.916084 
Q 643.316002 185.050142 646.535186 185.315178 
L 646.535186 186.80215 
Q 643.213805 186.46161 639.92649 186.293652 
Q 636.639175 186.124152 633.334827 186.124152 
Q 627.220081 186.124152 623.907216 186.743596 
Q 620.594352 187.361498 620.594352 188.512553 
Q 620.594352 189.652822 623.787987 190.275347 
Q 626.981623 190.896332 632.857911 190.896332 
Q 634.458987 190.896332 635.830121 190.860891 
Q 637.201255 190.823909 638.291349 190.746864 
L 638.291349 189.350805 
L 632.031824 189.350805 
L 632.031824 188.107296 
L 648 188.107296 
L 648 191.565084 
z
" clip-path="url(#p9f327899d7)" style="fill: #ffa600"/>
   </g>
   <g id="patch_45">
    <path d="M 648 184.132531 
Q 644.821366 184.453706 641.384228 184.616162 
Q 637.94709 184.780484 634.203578 184.780484 
Q 623.04006 184.780484 616.52003 183.563004 
Q 610 182.345524 610 180.263483 
Q 610 178.173974 616.52003 176.958361 
Q 623.04006 175.740881 634.203578 175.740881 
Q 637.94709 175.740881 641.384228 175.905203 
Q 644.821366 176.067658 648 176.388834 
L 648 178.190779 
Q 644.792643 177.765035 641.681028 177.567101 
Q 638.569413 177.369167 635.132275 177.369167 
Q 628.96649 177.369167 625.43361 178.140362 
Q 621.910305 178.90969 621.910305 180.263483 
Q 621.910305 181.611674 625.43361 182.38287 
Q 628.96649 183.152198 635.132275 183.152198 
Q 638.569413 183.152198 641.681028 182.954264 
Q 644.792643 182.754463 648 182.328718 
L 648 184.132531 
z
" clip-path="url(#p9f327899d7)" style="fill: #0000ff"/>
   </g>
   <g id="patch_46">
    <path d="M 116.322633 192.248238 
L 101.708444 192.248238 
L 99.400941 192.24 
L 90 192.24 
L 103.425475 192.28522 
L 114.574525 192.28522 
L 128 192.24 
L 118.606829 192.24 
L 116.322633 192.248238 
z
M 104.039256 192.25663 
L 113.968514 192.25663 
L 109.011654 192.274617 
L 104.039256 192.25663 
z
" clip-path="url(#p9f327899d7)" style="fill: #008000"/>
   </g>
   <g id="patch_47">
    <path d="M 90 192.921457 
L 128 192.921457 
L 128 192.797373 
L 114.328837 192.797373 
L 114.328837 192.28522 
L 103.697674 192.28522 
L 103.697674 192.797373 
L 90 192.797373 
L 90 192.921457 
z
" clip-path="url(#p9f327899d7)" style="fill: #ff0000"/>
   </g>
   <g id="patch_48">
    <path d="M 248 192.24135 
Q 244.167638 192.240675 240.045719 192.240336 
Q 235.923801 192.24 231.529359 192.24 
Q 221.599283 192.24 215.799641 192.242009 
Q 210 192.244018 210 192.247453 
Q 210 192.250929 215.901838 192.252922 
Q 221.812192 192.254915 232.091439 192.254915 
Q 236.051546 192.254915 239.679516 192.254644 
Q 243.316002 192.254376 246.535186 192.253846 
L 246.535186 192.250873 
Q 243.213805 192.251554 239.92649 192.25189 
Q 236.639175 192.252229 233.334827 192.252229 
Q 227.220081 192.252229 223.907216 192.25099 
Q 220.594352 192.249755 220.594352 192.247453 
Q 220.594352 192.245173 223.787987 192.243928 
Q 226.981623 192.242687 232.857911 192.242687 
Q 234.458987 192.242687 235.830121 192.242758 
Q 237.201255 192.242831 238.291349 192.242986 
L 238.291349 192.245777 
L 232.031824 192.245777 
L 232.031824 192.248263 
L 248 192.248263 
L 248 192.24135 
z
" clip-path="url(#p9f327899d7)" style="fill: #ffa600"/>
   </g>
   <g id="patch_49">
    <path d="M 276.322633 192.314687 
L 261.708444 192.314687 
L 259.400941 192.24 
L 250 192.24 
L 263.425475 192.649988 
L 274.574525 192.649988 
L 288 192.24 
L 278.606829 192.24 
L 276.322633 192.314687 
z
M 264.039256 192.39078 
L 273.968514 192.39078 
L 269.011654 192.553861 
L 264.039256 192.39078 
z
" clip-path="url(#p9f327899d7)" style="fill: #008000"/>
   </g>
   <g id="patch_50">
    <path d="M 288 192.807442 
Q 284.167638 192.728715 280.045719 192.689171 
Q 275.923801 192.649988 271.529359 192.649988 
Q 261.599283 192.649988 255.799641 192.884372 
Q 250 193.118756 250 193.519583 
Q 250 193.925082 255.901838 194.157669 
Q 261.812192 194.390256 272.091439 194.390256 
Q 276.051546 194.390256 279.679516 194.358621 
Q 283.316002 194.327346 286.535186 194.265515 
L 286.535186 193.918611 
Q 283.213805 193.998058 279.92649 194.037242 
Q 276.639175 194.076785 273.334827 194.076785 
Q 267.220081 194.076785 263.907216 193.932272 
Q 260.594352 193.788118 260.594352 193.519583 
Q 260.594352 193.253563 263.787987 193.108331 
Q 266.981623 192.963459 272.857911 192.963459 
Q 274.458987 192.963459 275.830121 192.971727 
Q 277.201255 192.980355 278.291349 192.998329 
L 278.291349 193.324023 
L 272.031824 193.324023 
L 272.031824 193.614127 
L 288 193.614127 
L 288 192.807442 
z
" clip-path="url(#p9f327899d7)" style="fill: #ffa600"/>
   </g>
   <g id="patch_51">
    <path d="M 368 192.309049 
Q 364.167638 192.274525 360.045719 192.257183 
Q 355.923801 192.24 351.529359 192.24 
Q 341.599283 192.24 335.799641 192.342786 
Q 330 192.445571 330 192.621348 
Q 330 192.799173 335.901838 192.901171 
Q 341.812192 193.003168 352.091439 193.003168 
Q 356.051546 193.003168 359.679516 192.989295 
Q 363.316002 192.97558 366.535186 192.948465 
L 366.535186 192.796335 
Q 363.213805 192.831175 359.92649 192.848359 
Q 356.639175 192.8657 353.334827 192.8657 
Q 347.220081 192.8657 343.907216 192.802326 
Q 340.594352 192.73911 340.594352 192.621348 
Q 340.594352 192.504689 343.787987 192.441 
Q 346.981623 192.377468 352.857911 192.377468 
Q 354.458987 192.377468 355.830121 192.381094 
Q 357.201255 192.384877 358.291349 192.39276 
L 358.291349 192.535588 
L 352.031824 192.535588 
L 352.031824 192.662809 
L 368 192.662809 
L 368 192.309049 
z
" clip-path="url(#p9f327899d7)" style="fill: #ffa600"/>
   </g>
   <g id="patch_52">
    <path d="M 408 192.240804 
Q 404.821366 192.240405 401.384228 192.240204 
Q 397.94709 192.24 394.203578 192.24 
Q 383.04006 192.24 376.52003 192.24151 
Q 370 192.24302 370 192.245601 
Q 370 192.248193 376.52003 192.2497 
Q 383.04006 192.25121 394.203578 192.25121 
Q 397.94709 192.25121 401.384228 192.251006 
Q 404.821366 192.250805 408 192.250406 
L 408 192.248172 
Q 404.792643 192.2487 401.681028 192.248945 
Q 398.569413 192.249191 395.132275 192.249191 
Q 388.96649 192.249191 385.43361 192.248234 
Q 381.910305 192.24728 381.910305 192.245601 
Q 381.910305 192.24393 385.43361 192.242973 
Q 388.96649 192.242019 395.132275 192.242019 
Q 398.569413 192.242019 401.681028 192.242265 
Q 404.792643 192.242512 408 192.24304 
L 408 192.240804 
z
" clip-path="url(#p9f327899d7)" style="fill: #0000ff"/>
   </g>
   <g id="patch_53">
    <path d="M 448 192.25039 
Q 444.821366 192.24524 441.384228 192.242635 
Q 437.94709 192.24 434.203578 192.24 
Q 423.04006 192.24 416.52003 192.259522 
Q 410 192.279045 410 192.31243 
Q 410 192.345936 416.52003 192.365428 
Q 423.04006 192.38495 434.203578 192.38495 
Q 437.94709 192.38495 441.384228 192.382315 
Q 444.821366 192.37971 448 192.37456 
L 448 192.345666 
Q 444.792643 192.352493 441.681028 192.355667 
Q 438.569413 192.358841 435.132275 192.358841 
Q 428.96649 192.358841 425.43361 192.346475 
Q 421.910305 192.334138 421.910305 192.31243 
Q 421.910305 192.290812 425.43361 192.278446 
Q 428.96649 192.26611 435.132275 192.26611 
Q 438.569413 192.26611 441.681028 192.269283 
Q 444.792643 192.272487 448 192.279314 
L 448 192.25039 
z
" clip-path="url(#p9f327899d7)" style="fill: #0000ff"/>
   </g>
   <g id="patch_54">
    <path d="M 488 192.283492 
Q 484.821366 192.261934 481.384228 192.25103 
Q 477.94709 192.24 474.203578 192.24 
Q 463.04006 192.24 456.52003 192.321719 
Q 450 192.403438 450 192.543188 
Q 450 192.683439 456.52003 192.765033 
Q 463.04006 192.846752 474.203578 192.846752 
Q 477.94709 192.846752 481.384228 192.835722 
Q 484.821366 192.824818 488 192.80326 
L 488 192.682311 
Q 484.792643 192.710888 481.681028 192.724173 
Q 478.569413 192.737459 475.132275 192.737459 
Q 468.96649 192.737459 465.43361 192.685695 
Q 461.910305 192.634057 461.910305 192.543188 
Q 461.910305 192.452695 465.43361 192.400932 
Q 468.96649 192.349293 475.132275 192.349293 
Q 478.569413 192.349293 481.681028 192.362579 
Q 484.792643 192.37599 488 192.404566 
L 488 192.283492 
z
" clip-path="url(#p9f327899d7)" style="fill: #0000ff"/>
   </g>
   <g id="patch_55">
    <path d="M 530 193.071982 
L 568 193.071982 
L 568 192.909722 
L 554.328837 192.909722 
L 554.328837 192.24 
L 543.697674 192.24 
L 543.697674 192.909722 
L 530 192.909722 
L 530 193.071982 
z
" clip-path="url(#p9f327899d7)" style="fill: #ff0000"/>
   </g>
   <g id="patch_56">
    <path d="M 570 192.895115 
L 608 192.895115 
L 608 192.76735 
L 594.328837 192.76735 
L 594.328837 192.24 
L 583.697674 192.24 
L 583.697674 192.76735 
L 570 192.76735 
L 570 192.895115 
z
" clip-path="url(#p9f327899d7)" style="fill: #ff0000"/>
   </g>
   <g id="patch_57">
    <path d="M 636.322633 192.378605 
L 621.708444 192.378605 
L 619.400941 192.24 
L 610 192.24 
L 623.425475 193.00086 
L 634.574525 193.00086 
L 648 192.24 
L 638.606829 192.24 
L 636.322633 192.378605 
z
M 624.039256 192.519819 
L 633.968514 192.519819 
L 629.011654 192.822467 
L 624.039256 192.519819 
z
" clip-path="url(#p9f327899d7)" style="fill: #008000"/>
   </g>
   <g id="patch_58">
    <path d="M 610 194.695956 
L 648 194.695956 
L 648 194.365365 
L 634.328837 194.365365 
L 634.328837 193.00086 
L 623.697674 193.00086 
L 623.697674 194.365365 
L 610 194.365365 
L 610 194.695956 
z
" clip-path="url(#p9f327899d7)" style="fill: #ff0000"/>
   </g>
   <g id="matplotlib.axis_1">
    <g id="xtick_1">
     <g id="line2d_2">
      <defs>
       <path id="m0ba85af363" d="M 0 0 
L 0 3.5 
" style="stroke: #000000; stroke-width: 0.8"/>
      </defs>
      <g>
       <use xlink:href="#m0ba85af363" x="109" y="192.24" style="stroke: #000000; stroke-width: 0.8"/>
      </g>
     </g>
     <g id="text_1">
      <!-- 0 -->
      <g transform="translate(105.81875 206.838437) scale(0.1 -0.1)">
       <defs>
        <path id="DejaVuSans-30" d="M 2034 4250 
Q 1547 4250 1301 3770 
Q 1056 3291 1056 2328 
Q 1056 1369 1301 889 
Q 1547 409 2034 409 
Q 2525 409 2770 889 
Q 3016 1369 3016 2328 
Q 3016 3291 2770 3770 
Q 2525 4250 2034 4250 
z
M 2034 4750 
Q 2819 4750 3233 4129 
Q 3647 3509 3647 2328 
Q 3647 1150 3233 529 
Q 2819 -91 2034 -91 
Q 1250 -91 836 529 
Q 422 1150 422 2328 
Q 422 3509 836 4129 
Q 1250 4750 2034 4750 
z
" transform="scale(0.015625)"/>
       </defs>
       <use xlink:href="#DejaVuSans-30"/>
      </g>
     </g>
    </g>
    <g id="xtick_2">
     <g id="line2d_3">
      <g>
       <use xlink:href="#m0ba85af363" x="189" y="192.24" style="stroke: #000000; stroke-width: 0.8"/>
      </g>
     </g>
     <g id="text_2">
      <!-- 2 -->
      <g transform="translate(185.81875 206.838437) scale(0.1 -0.1)">
       <defs>
        <path id="DejaVuSans-32" d="M 1228 531 
L 3431 531 
L 3431 0 
L 469 0 
L 469 531 
Q 828 903 1448 1529 
Q 2069 2156 2228 2338 
Q 2531 2678 2651 2914 
Q 2772 3150 2772 3378 
Q 2772 3750 2511 3984 
Q 2250 4219 1831 4219 
Q 1534 4219 1204 4116 
Q 875 4013 500 3803 
L 500 4441 
Q 881 4594 1212 4672 
Q 1544 4750 1819 4750 
Q 2544 4750 2975 4387 
Q 3406 4025 3406 3419 
Q 3406 3131 3298 2873 
Q 3191 2616 2906 2266 
Q 2828 2175 2409 1742 
Q 1991 1309 1228 531 
z
" transform="scale(0.015625)"/>
       </defs>
       <use xlink:href="#DejaVuSans-32"/>
      </g>
     </g>
    </g>
    <g id="xtick_3">
     <g id="line2d_4">
      <g>
       <use xlink:href="#m0ba85af363" x="269" y="192.24" style="stroke: #000000; stroke-width: 0.8"/>
      </g>
     </g>
     <g id="text_3">
      <!-- 4 -->
      <g transform="translate(265.81875 206.838437) scale(0.1 -0.1)">
       <defs>
        <path id="DejaVuSans-34" d="M 2419 4116 
L 825 1625 
L 2419 1625 
L 2419 4116 
z
M 2253 4666 
L 3047 4666 
L 3047 1625 
L 3713 1625 
L 3713 1100 
L 3047 1100 
L 3047 0 
L 2419 0 
L 2419 1100 
L 313 1100 
L 313 1709 
L 2253 4666 
z
" transform="scale(0.015625)"/>
       </defs>
       <use xlink:href="#DejaVuSans-34"/>
      </g>
     </g>
    </g>
    <g id="xtick_4">
     <g id="line2d_5">
      <g>
       <use xlink:href="#m0ba85af363" x="349" y="192.24" style="stroke: #000000; stroke-width: 0.8"/>
      </g>
     </g>
     <g id="text_4">
      <!-- 6 -->
      <g transform="translate(345.81875 206.838437) scale(0.1 -0.1)">
       <defs>
        <path id="DejaVuSans-36" d="M 2113 2584 
Q 1688 2584 1439 2293 
Q 1191 2003 1191 1497 
Q 1191 994 1439 701 
Q 1688 409 2113 409 
Q 2538 409 2786 701 
Q 3034 994 3034 1497 
Q 3034 2003 2786 2293 
Q 2538 2584 2113 2584 
z
M 3366 4563 
L 3366 3988 
Q 3128 4100 2886 4159 
Q 2644 4219 2406 4219 
Q 1781 4219 1451 3797 
Q 1122 3375 1075 2522 
Q 1259 2794 1537 2939 
Q 1816 3084 2150 3084 
Q 2853 3084 3261 2657 
Q 3669 2231 3669 1497 
Q 3669 778 3244 343 
Q 2819 -91 2113 -91 
Q 1303 -91 875 529 
Q 447 1150 447 2328 
Q 447 3434 972 4092 
Q 1497 4750 2381 4750 
Q 2619 4750 2861 4703 
Q 3103 4656 3366 4563 
z
" transform="scale(0.015625)"/>
       </defs>
       <use xlink:href="#DejaVuSans-36"/>
      </g>
     </g>
    </g>
    <g id="xtick_5">
     <g id="line2d_6">
      <g>
       <use xlink:href="#m0ba85af363" x="429" y="192.24" style="stroke: #000000; stroke-width: 0.8"/>
      </g>
     </g>
     <g id="text_5">
      <!-- 8 -->
      <g transform="translate(425.81875 206.838437) scale(0.1 -0.1)">
       <defs>
        <path id="DejaVuSans-38" d="M 2034 2216 
Q 1584 2216 1326 1975 
Q 1069 1734 1069 1313 
Q 1069 891 1326 650 
Q 1584 409 2034 409 
Q 2484 409 2743 651 
Q 3003 894 3003 1313 
Q 3003 1734 2745 1975 
Q 2488 2216 2034 2216 
z
M 1403 2484 
Q 997 2584 770 2862 
Q 544 3141 544 3541 
Q 544 4100 942 4425 
Q 1341 4750 2034 4750 
Q 2731 4750 3128 4425 
Q 3525 4100 3525 3541 
Q 3525 3141 3298 2862 
Q 3072 2584 2669 2484 
Q 3125 2378 3379 2068 
Q 3634 1759 3634 1313 
Q 3634 634 3220 271 
Q 2806 -91 2034 -91 
Q 1263 -91 848 271 
Q 434 634 434 1313 
Q 434 1759 690 2068 
Q 947 2378 1403 2484 
z
M 1172 3481 
Q 1172 3119 1398 2916 
Q 1625 2713 2034 2713 
Q 2441 2713 2670 2916 
Q 2900 3119 2900 3481 
Q 2900 3844 2670 4047 
Q 2441 4250 2034 4250 
Q 1625 4250 1398 4047 
Q 1172 3844 1172 3481 
z
" transform="scale(0.015625)"/>
       </defs>
       <use xlink:href="#DejaVuSans-38"/>
      </g>
     </g>
    </g>
    <g id="xtick_6">
     <g id="line2d_7">
      <g>
       <use xlink:href="#m0ba85af363" x="509" y="192.24" style="stroke: #000000; stroke-width: 0.8"/>
      </g>
     </g>
     <g id="text_6">
      <!-- 10 -->
      <g transform="translate(502.6375 206.838437) scale(0.1 -0.1)">
       <defs>
        <path id="DejaVuSans-31" d="M 794 531 
L 1825 531 
L 1825 4091 
L 703 3866 
L 703 4441 
L 1819 4666 
L 2450 4666 
L 2450 531 
L 3481 531 
L 3481 0 
L 794 0 
L 794 531 
z
" transform="scale(0.015625)"/>
       </defs>
       <use xlink:href="#DejaVuSans-31"/>
       <use xlink:href="#DejaVuSans-30" x="63.623047"/>
      </g>
     </g>
    </g>
    <g id="xtick_7">
     <g id="line2d_8">
      <g>
       <use xlink:href="#m0ba85af363" x="589" y="192.24" style="stroke: #000000; stroke-width: 0.8"/>
      </g>
     </g>
     <g id="text_7">
      <!-- 12 -->
      <g transform="translate(582.6375 206.838437) scale(0.1 -0.1)">
       <use xlink:href="#DejaVuSans-31"/>
       <use xlink:href="#DejaVuSans-32" x="63.623047"/>
      </g>
     </g>
    </g>
   </g>
   <g id="matplotlib.axis_2">
    <g id="ytick_1">
     <g id="line2d_9">
      <defs>
       <path id="mcf4f6e8314" d="M 0 0 
L -3.5 0 
" style="stroke: #000000; stroke-width: 0.8"/>
      </defs>
      <g>
       <use xlink:href="#mcf4f6e8314" x="90" y="192.24" style="stroke: #000000; stroke-width: 0.8"/>
      </g>
     </g>
     <g id="text_8">
      <!-- 0.000 -->
      <g transform="translate(54.371875 196.039219) scale(0.1 -0.1)">
       <defs>
        <path id="DejaVuSans-2e" d="M 684 794 
L 1344 794 
L 1344 0 
L 684 0 
L 684 794 
z
" transform="scale(0.015625)"/>
       </defs>
       <use xlink:href="#DejaVuSans-30"/>
       <use xlink:href="#DejaVuSans-2e" x="63.623047"/>
       <use xlink:href="#DejaVuSans-30" x="95.410156"/>
       <use xlink:href="#DejaVuSans-30" x="159.033203"/>
       <use xlink:href="#DejaVuSans-30" x="222.65625"/>
      </g>
     </g>
    </g>
    <g id="ytick_2">
     <g id="line2d_10">
      <g>
       <use xlink:href="#mcf4f6e8314" x="90" y="168.849035" style="stroke: #000000; stroke-width: 0.8"/>
      </g>
     </g>
     <g id="text_9">
      <!-- 0.005 -->
      <g transform="translate(54.371875 172.648254) scale(0.1 -0.1)">
       <defs>
        <path id="DejaVuSans-35" d="M 691 4666 
L 3169 4666 
L 3169 4134 
L 1269 4134 
L 1269 2991 
Q 1406 3038 1543 3061 
Q 1681 3084 1819 3084 
Q 2600 3084 3056 2656 
Q 3513 2228 3513 1497 
Q 3513 744 3044 326 
Q 2575 -91 1722 -91 
Q 1428 -91 1123 -41 
Q 819 9 494 109 
L 494 744 
Q 775 591 1075 516 
Q 1375 441 1709 441 
Q 2250 441 2565 725 
Q 2881 1009 2881 1497 
Q 2881 1984 2565 2268 
Q 2250 2553 1709 2553 
Q 1456 2553 1204 2497 
Q 953 2441 691 2322 
L 691 4666 
z
" transform="scale(0.015625)"/>
       </defs>
       <use xlink:href="#DejaVuSans-30"/>
       <use xlink:href="#DejaVuSans-2e" x="63.623047"/>
       <use xlink:href="#DejaVuSans-30" x="95.410156"/>
       <use xlink:href="#DejaVuSans-30" x="159.033203"/>
       <use xlink:href="#DejaVuSans-35" x="222.65625"/>
      </g>
     </g>
    </g>
    <g id="ytick_3">
     <g id="line2d_11">
      <g>
       <use xlink:href="#mcf4f6e8314" x="90" y="145.45807" style="stroke: #000000; stroke-width: 0.8"/>
      </g>
     </g>
     <g id="text_10">
      <!-- 0.010 -->
      <g transform="translate(54.371875 149.257289) scale(0.1 -0.1)">
       <use xlink:href="#DejaVuSans-30"/>
       <use xlink:href="#DejaVuSans-2e" x="63.623047"/>
       <use xlink:href="#DejaVuSans-30" x="95.410156"/>
       <use xlink:href="#DejaVuSans-31" x="159.033203"/>
       <use xlink:href="#DejaVuSans-30" x="222.65625"/>
      </g>
     </g>
    </g>
    <g id="ytick_4">
     <g id="line2d_12">
      <g>
       <use xlink:href="#mcf4f6e8314" x="90" y="122.067105" style="stroke: #000000; stroke-width: 0.8"/>
      </g>
     </g>
     <g id="text_11">
      <!-- 0.015 -->
      <g transform="translate(54.371875 125.866324) scale(0.1 -0.1)">
       <use xlink:href="#DejaVuSans-30"/>
       <use xlink:href="#DejaVuSans-2e" x="63.623047"/>
       <use xlink:href="#DejaVuSans-30" x="95.410156"/>
       <use xlink:href="#DejaVuSans-31" x="159.033203"/>
       <use xlink:href="#DejaVuSans-35" x="222.65625"/>
      </g>
     </g>
    </g>
    <g id="ytick_5">
     <g id="line2d_13">
      <g>
       <use xlink:href="#mcf4f6e8314" x="90" y="98.67614" style="stroke: #000000; stroke-width: 0.8"/>
      </g>
     </g>
     <g id="text_12">
      <!-- 0.020 -->
      <g transform="translate(54.371875 102.475359) scale(0.1 -0.1)">
       <use xlink:href="#DejaVuSans-30"/>
       <use xlink:href="#DejaVuSans-2e" x="63.623047"/>
       <use xlink:href="#DejaVuSans-30" x="95.410156"/>
       <use xlink:href="#DejaVuSans-32" x="159.033203"/>
       <use xlink:href="#DejaVuSans-30" x="222.65625"/>
      </g>
     </g>
    </g>
    <g id="ytick_6">
     <g id="line2d_14">
      <g>
       <use xlink:href="#mcf4f6e8314" x="90" y="75.285175" style="stroke: #000000; stroke-width: 0.8"/>
      </g>
     </g>
     <g id="text_13">
      <!-- 0.025 -->
      <g transform="translate(54.371875 79.084394) scale(0.1 -0.1)">
       <use xlink:href="#DejaVuSans-30"/>
       <use xlink:href="#DejaVuSans-2e" x="63.623047"/>
       <use xlink:href="#DejaVuSans-30" x="95.410156"/>
       <use xlink:href="#DejaVuSans-32" x="159.033203"/>
       <use xlink:href="#DejaVuSans-35" x="222.65625"/>
      </g>
     </g>
    </g>
    <g id="ytick_7">
     <g id="line2d_15">
      <g>
       <use xlink:href="#mcf4f6e8314" x="90" y="51.89421" style="stroke: #000000; stroke-width: 0.8"/>
      </g>
     </g>
     <g id="text_14">
      <!-- 0.030 -->
      <g transform="translate(54.371875 55.693429) scale(0.1 -0.1)">
       <defs>
        <path id="DejaVuSans-33" d="M 2597 2516 
Q 3050 2419 3304 2112 
Q 3559 1806 3559 1356 
Q 3559 666 3084 287 
Q 2609 -91 1734 -91 
Q 1441 -91 1130 -33 
Q 819 25 488 141 
L 488 750 
Q 750 597 1062 519 
Q 1375 441 1716 441 
Q 2309 441 2620 675 
Q 2931 909 2931 1356 
Q 2931 1769 2642 2001 
Q 2353 2234 1838 2234 
L 1294 2234 
L 1294 2753 
L 1863 2753 
Q 2328 2753 2575 2939 
Q 2822 3125 2822 3475 
Q 2822 3834 2567 4026 
Q 2313 4219 1838 4219 
Q 1578 4219 1281 4162 
Q 984 4106 628 3988 
L 628 4550 
Q 988 4650 1302 4700 
Q 1616 4750 1894 4750 
Q 2613 4750 3031 4423 
Q 3450 4097 3450 3541 
Q 3450 3153 3228 2886 
Q 3006 2619 2597 2516 
z
" transform="scale(0.015625)"/>
       </defs>
       <use xlink:href="#DejaVuSans-30"/>
       <use xlink:href="#DejaVuSans-2e" x="63.623047"/>
       <use xlink:href="#DejaVuSans-30" x="95.410156"/>
       <use xlink:href="#DejaVuSans-33" x="159.033203"/>
       <use xlink:href="#DejaVuSans-30" x="222.65625"/>
      </g>
     </g>
    </g>
    <g id="ytick_8">
     <g id="line2d_16">
      <g>
       <use xlink:href="#mcf4f6e8314" x="90" y="28.503245" style="stroke: #000000; stroke-width: 0.8"/>
      </g>
     </g>
     <g id="text_15">
      <!-- 0.035 -->
      <g transform="translate(54.371875 32.302464) scale(0.1 -0.1)">
       <use xlink:href="#DejaVuSans-30"/>
       <use xlink:href="#DejaVuSans-2e" x="63.623047"/>
       <use xlink:href="#DejaVuSans-30" x="95.410156"/>
       <use xlink:href="#DejaVuSans-33" x="159.033203"/>
       <use xlink:href="#DejaVuSans-35" x="222.65625"/>
      </g>
     </g>
    </g>
   </g>
  </g>
 </g>
 <defs>
  <clipPath id="p9f327899d7">
   <rect x="90" y="25.92" width="558" height="166.32"/>
  </clipPath>
 </defs>
</svg>
