<?xml version="1.0" encoding="utf-8" standalone="no"?>
<!DOCTYPE svg PUBLIC "-//W3C//DTD SVG 1.1//EN"
  "http://www.w3.org/Graphics/SVG/1.1/DTD/svg11.dtd">
<svg xmlns:xlink="http://www.w3.org/1999/xlink" width="720pt" height="216pt" viewBox="0 0 720 216" xmlns="http://www.w3.org/2000/svg" version="1.1">
 <metadata>
  <rdf:RDF xmlns:dc="http://purl.org/dc/elements/1.1/" xmlns:cc="http://creativecommons.org/ns#" xmlns:rdf="http://www.w3.org/1999/02/22-rdf-syntax-ns#">
   <cc:Work>
    <dc:type rdf:resource="http://purl.org/dc/dcmitype/StillImage"/>
    <dc:date>2024-11-23T04:39:46.549123</dc:date>
    <dc:format>image/svg+xml</dc:format>
    <dc:creator>
     <cc:Agent>
      <dc:title>Matplotlib v3.7.2, https://matplotlib.org/</dc:title>
     </cc:Agent>
    </dc:creator>
   </cc:Work>
  </rdf:RDF>
 </metadata>
 <defs>
  <style type="text/css">*{stroke-linejoin: round; stroke-linecap: butt}</style>
 </defs>
 <g id="figure_1">
  <g id="patch_1">
   <path d="M 0 216 
L 720 216 
L 720 0 
L 0 0 
z
" style="fill: #ffffff"/>
  </g>
  <g id="axes_1">
   <g id="patch_2">
    <path d="M 90 192.24 
L 648 192.24 
L 648 25.92 
L 90 25.92 
z
" style="fill: #ffffff"/>
   </g>
   <g id="line2d_1">
    <path d="M 90 192.24 
L 648 192.24 
" clip-path="url(#p7c14b29d54)" style="fill: none; stroke: #000000; stroke-width: 0.5; stroke-linecap: square"/>
   </g>
   <g id="patch_3">
    <path d="M 125.458194 191.934429 
Q 122.492177 192.085893 119.284948 192.162506 
Q 116.077719 192.24 112.584609 192.24 
Q 102.167816 192.24 96.083908 191.665843 
Q 90 191.091686 90 190.109807 
Q 90 189.124406 96.083908 188.551129 
Q 102.167816 187.976972 112.584609 187.976972 
Q 116.077719 187.976972 119.284948 188.054466 
Q 122.492177 188.131079 125.458194 188.282544 
L 125.458194 189.132331 
Q 122.465376 188.931552 119.561896 188.838208 
Q 116.658415 188.744863 113.451186 188.744863 
Q 107.697829 188.744863 104.401262 189.108555 
Q 101.113629 189.471366 101.113629 190.109807 
Q 101.113629 190.745607 104.401262 191.109298 
Q 107.697829 191.472109 113.451186 191.472109 
Q 116.658415 191.472109 119.561896 191.378764 
Q 122.465376 191.284539 125.458194 191.08376 
L 125.458194 191.934429 
z
" clip-path="url(#p7c14b29d54)" style="fill: #0000ff"/>
   </g>
   <g id="patch_4">
    <path d="M 90 183.658614 
L 125.458194 183.658614 
L 125.458194 184.500814 
L 112.70149 184.500814 
L 112.70149 187.976972 
L 102.781442 187.976972 
L 102.781442 184.500814 
L 90 184.500814 
L 90 183.658614 
z
" clip-path="url(#p7c14b29d54)" style="fill: #ff0000"/>
   </g>
   <g id="patch_5">
    <path d="M 127.324415 189.101823 
L 162.782609 189.101823 
L 162.782609 189.713855 
L 150.025905 189.713855 
L 150.025905 192.24 
L 140.105857 192.24 
L 140.105857 189.713855 
L 127.324415 189.713855 
L 127.324415 189.101823 
z
" clip-path="url(#p7c14b29d54)" style="fill: #ff0000"/>
   </g>
   <g id="patch_6">
    <path d="M 162.782609 187.982529 
Q 159.816592 188.537337 156.609363 188.817967 
Q 153.402134 189.101823 149.909024 189.101823 
Q 139.49223 189.101823 133.408323 186.998712 
Q 127.324415 184.895601 127.324415 181.299024 
Q 127.324415 177.689544 133.408323 175.589659 
Q 139.49223 173.486548 149.909024 173.486548 
Q 153.402134 173.486548 156.609363 173.770404 
Q 159.816592 174.051034 162.782609 174.605842 
L 162.782609 177.718575 
Q 159.789791 176.983131 156.88631 176.641214 
Q 153.98283 176.299298 150.775601 176.299298 
Q 145.022243 176.299298 141.725677 177.631483 
Q 138.438044 178.960442 138.438044 181.299024 
Q 138.438044 183.627929 141.725677 184.960114 
Q 145.022243 186.289073 150.775601 186.289073 
Q 153.98283 186.289073 156.88631 185.947157 
Q 159.789791 185.602014 162.782609 184.866571 
L 162.782609 187.982529 
z
" clip-path="url(#p7c14b29d54)" style="fill: #0000ff"/>
   </g>
   <g id="patch_7">
    <path d="M 200.107023 191.116 
Q 196.531007 191.678 192.684802 191.960283 
Q 188.838597 192.24 184.738098 192.24 
Q 175.472241 192.24 170.060535 190.566831 
Q 164.648829 188.893662 164.648829 186.032339 
Q 164.648829 183.137654 170.155895 181.477316 
Q 175.670908 179.816979 185.26258 179.816979 
Q 188.957797 179.816979 192.343093 180.042805 
Q 195.736336 180.266065 198.74019 180.707453 
L 198.74019 183.183846 
Q 195.640976 182.616713 192.573548 182.336997 
Q 189.50612 182.054713 186.422799 182.054713 
Q 180.717065 182.054713 177.625797 183.08633 
Q 174.534529 184.11538 174.534529 186.032339 
Q 174.534529 187.931334 177.514543 188.968083 
Q 180.494558 190.002265 185.977783 190.002265 
Q 187.471764 190.002265 188.751183 189.943242 
Q 190.030603 189.881653 191.047781 189.753343 
L 191.047781 187.428357 
L 185.206953 187.428357 
L 185.206953 185.357425 
L 200.107023 185.357425 
L 200.107023 191.116 
z
" clip-path="url(#p7c14b29d54)" style="fill: #ffa600"/>
   </g>
   <g id="patch_8">
    <path d="M 189.210752 177.005388 
L 175.5741 177.005388 
L 173.420944 179.816979 
L 164.648829 179.816979 
L 177.17628 164.382998 
L 187.579573 164.382998 
L 200.107023 179.816979 
L 191.342158 179.816979 
L 189.210752 177.005388 
z
M 177.749005 174.140873 
L 187.014098 174.140873 
L 182.388801 168.001681 
L 177.749005 174.140873 
z
" clip-path="url(#p7c14b29d54)" style="fill: #008000"/>
   </g>
   <g id="patch_9">
    <path d="M 226.535166 190.662095 
L 212.898515 190.662095 
L 210.745359 192.24 
L 201.973244 192.24 
L 214.500694 183.578228 
L 224.903988 183.578228 
L 237.431438 192.24 
L 228.666573 192.24 
L 226.535166 190.662095 
z
M 215.073419 189.054488 
L 224.338513 189.054488 
L 219.713216 185.609085 
L 215.073419 189.054488 
z
" clip-path="url(#p7c14b29d54)" style="fill: #008000"/>
   </g>
   <g id="patch_10">
    <path d="M 237.431438 182.330602 
Q 233.855421 182.954415 230.009216 183.267746 
Q 226.163012 183.578228 222.062512 183.578228 
Q 212.796655 183.578228 207.38495 181.721031 
Q 201.973244 179.863834 201.973244 176.6878 
Q 201.973244 173.474736 207.48031 171.631781 
Q 212.995323 169.788827 222.586995 169.788827 
Q 226.282212 169.788827 229.667508 170.039491 
Q 233.060751 170.287307 236.064605 170.777243 
L 236.064605 173.526008 
Q 232.96539 172.896498 229.897963 172.586016 
Q 226.830535 172.272685 223.747214 172.272685 
Q 218.04148 172.272685 214.950212 173.417766 
Q 211.858944 174.559999 211.858944 176.6878 
Q 211.858944 178.795661 214.838958 179.94644 
Q 217.818972 181.09437 223.302198 181.09437 
Q 224.796179 181.09437 226.075598 181.028855 
Q 227.355017 180.960492 228.372195 180.818069 
L 228.372195 178.237363 
L 222.531368 178.237363 
L 222.531368 175.938655 
L 237.431438 175.938655 
L 237.431438 182.330602 
z
" clip-path="url(#p7c14b29d54)" style="fill: #ffa600"/>
   </g>
   <g id="patch_11">
    <path d="M 239.297659 192.218057 
L 274.755853 192.218057 
L 274.755853 192.222336 
L 261.999149 192.222336 
L 261.999149 192.24 
L 252.079101 192.24 
L 252.079101 192.222336 
L 239.297659 192.222336 
L 239.297659 192.218057 
z
" clip-path="url(#p7c14b29d54)" style="fill: #ff0000"/>
   </g>
   <g id="patch_12">
    <path d="M 274.755853 182.331594 
Q 271.789836 187.232088 268.582607 189.710827 
Q 265.375378 192.218057 261.882268 192.218057 
Q 251.465474 192.218057 245.381567 173.641764 
Q 239.297659 155.065471 239.297659 123.29773 
Q 239.297659 91.416025 245.381567 72.868223 
Q 251.465474 54.29193 261.882268 54.29193 
Q 265.375378 54.29193 268.582607 56.79916 
Q 271.789836 59.277898 274.755853 64.178393 
L 274.755853 91.672446 
Q 271.763035 85.176442 268.859555 82.156369 
Q 265.956074 79.136297 262.748845 79.136297 
Q 256.995488 79.136297 253.698921 90.903182 
Q 250.411288 102.641576 250.411288 123.29773 
Q 250.411288 143.86841 253.698921 155.635295 
Q 256.995488 167.373689 262.748845 167.373689 
Q 265.956074 167.373689 268.859555 164.353617 
Q 271.763035 161.305054 274.755853 154.809049 
L 274.755853 182.331594 
z
" clip-path="url(#p7c14b29d54)" style="fill: #0000ff"/>
   </g>
   <g id="patch_13">
    <path d="M 301.183996 192.237615 
L 287.547344 192.237615 
L 285.394189 192.24 
L 276.622074 192.24 
L 289.149524 192.226908 
L 299.552817 192.226908 
L 312.080268 192.24 
L 303.315402 192.24 
L 301.183996 192.237615 
z
M 289.722249 192.235185 
L 298.987342 192.235185 
L 294.362045 192.229977 
L 289.722249 192.235185 
z
" clip-path="url(#p7c14b29d54)" style="fill: #008000"/>
   </g>
   <g id="patch_14">
    <path d="M 276.622074 192.169753 
L 312.080268 192.169753 
L 312.080268 192.1809 
L 299.323564 192.1809 
L 299.323564 192.226908 
L 289.403516 192.226908 
L 289.403516 192.1809 
L 276.622074 192.1809 
L 276.622074 192.169753 
z
" clip-path="url(#p7c14b29d54)" style="fill: #ff0000"/>
   </g>
   <g id="patch_15">
    <path d="M 312.080268 192.163595 
Q 308.504251 192.166674 304.658046 192.168221 
Q 300.811841 192.169753 296.711342 192.169753 
Q 287.445485 192.169753 282.033779 192.160586 
Q 276.622074 192.151418 276.622074 192.135741 
Q 276.622074 192.119881 282.12914 192.110784 
Q 287.644152 192.101687 297.235824 192.101687 
Q 300.931042 192.101687 304.316338 192.102924 
Q 307.70958 192.104147 310.713434 192.106566 
L 310.713434 192.120134 
Q 307.61422 192.117027 304.546792 192.115494 
Q 301.479364 192.113947 298.396043 192.113947 
Q 292.690309 192.113947 289.599041 192.1196 
Q 286.507774 192.125238 286.507774 192.135741 
Q 286.507774 192.146146 289.487788 192.151826 
Q 292.467802 192.157493 297.951028 192.157493 
Q 299.445008 192.157493 300.724427 192.157169 
Q 302.003847 192.156832 303.021025 192.156129 
L 303.021025 192.14339 
L 297.180197 192.14339 
L 297.180197 192.132043 
L 312.080268 192.132043 
L 312.080268 192.163595 
z
" clip-path="url(#p7c14b29d54)" style="fill: #ffa600"/>
   </g>
   <g id="patch_16">
    <path d="M 312.080268 183.562551 
Q 309.114251 187.795206 305.907022 189.936142 
Q 302.699793 192.101687 299.206683 192.101687 
Q 288.789889 192.101687 282.705981 176.056971 
Q 276.622074 160.012256 276.622074 132.573825 
Q 276.622074 105.036959 282.705981 89.016853 
Q 288.789889 72.972137 299.206683 72.972137 
Q 302.699793 72.972137 305.907022 75.137682 
Q 309.114251 77.278618 312.080268 81.511273 
L 312.080268 105.258435 
Q 309.087449 99.647707 306.183969 97.03921 
Q 303.280489 94.430714 300.07326 94.430714 
Q 294.319902 94.430714 291.023336 104.594007 
Q 287.735703 114.732692 287.735703 132.573825 
Q 287.735703 150.341132 291.023336 160.504425 
Q 294.319902 170.64311 300.07326 170.64311 
Q 303.280489 170.64311 306.183969 168.034614 
Q 309.087449 165.401509 312.080268 159.79078 
L 312.080268 183.562551 
z
" clip-path="url(#p7c14b29d54)" style="fill: #0000ff"/>
   </g>
   <g id="patch_17">
    <path d="M 349.404682 192.23646 
Q 346.438666 192.238214 343.231437 192.239102 
Q 340.024208 192.24 336.531098 192.24 
Q 326.114304 192.24 320.030396 192.233348 
Q 313.946488 192.226695 313.946488 192.215319 
Q 313.946488 192.203902 320.030396 192.197259 
Q 326.114304 192.190607 336.531098 192.190607 
Q 340.024208 192.190607 343.231437 192.191505 
Q 346.438666 192.192393 349.404682 192.194148 
L 349.404682 192.203993 
Q 346.411864 192.201667 343.508384 192.200586 
Q 340.604904 192.199504 337.397675 192.199504 
Q 331.644317 192.199504 328.34775 192.203718 
Q 325.060117 192.207922 325.060117 192.215319 
Q 325.060117 192.222685 328.34775 192.226899 
Q 331.644317 192.231103 337.397675 192.231103 
Q 340.604904 192.231103 343.508384 192.230021 
Q 346.411864 192.22893 349.404682 192.226603 
L 349.404682 192.23646 
z
" clip-path="url(#p7c14b29d54)" style="fill: #0000ff"/>
   </g>
   <g id="patch_18">
    <path d="M 313.946488 192.007947 
L 349.404682 192.007947 
L 349.404682 192.043571 
L 336.647979 192.043571 
L 336.647979 192.190607 
L 326.72793 192.190607 
L 326.72793 192.043571 
L 313.946488 192.043571 
L 313.946488 192.007947 
z
" clip-path="url(#p7c14b29d54)" style="fill: #ff0000"/>
   </g>
   <g id="patch_19">
    <path d="M 338.50841 166.493409 
L 324.871759 166.493409 
L 322.718603 192.007947 
L 313.946488 192.007947 
L 326.473939 51.94814 
L 336.877232 51.94814 
L 349.404682 192.007947 
L 340.639817 192.007947 
L 338.50841 166.493409 
z
M 327.046663 140.498597 
L 336.311757 140.498597 
L 331.68646 84.786852 
L 327.046663 140.498597 
z
" clip-path="url(#p7c14b29d54)" style="fill: #008000"/>
   </g>
   <g id="patch_20">
    <path d="M 386.729097 192.239702 
Q 383.15308 192.239851 379.306875 192.239926 
Q 375.46067 192.24 371.360171 192.24 
Q 362.094314 192.24 356.682609 192.239557 
Q 351.270903 192.239113 351.270903 192.238355 
Q 351.270903 192.237588 356.777969 192.237148 
Q 362.292982 192.236708 371.884654 192.236708 
Q 375.579871 192.236708 378.965167 192.236768 
Q 382.35841 192.236827 385.362264 192.236944 
L 385.362264 192.2376 
Q 382.263049 192.23745 379.195621 192.237376 
Q 376.128194 192.237301 373.044872 192.237301 
Q 367.339139 192.237301 364.247871 192.237574 
Q 361.156603 192.237847 361.156603 192.238355 
Q 361.156603 192.238858 364.136617 192.239133 
Q 367.116631 192.239407 372.599857 192.239407 
Q 374.093837 192.239407 375.373257 192.239391 
Q 376.652676 192.239375 377.669854 192.239341 
L 377.669854 192.238725 
L 371.829027 192.238725 
L 371.829027 192.238176 
L 386.729097 192.238176 
L 386.729097 192.239702 
z
" clip-path="url(#p7c14b29d54)" style="fill: #ffa600"/>
   </g>
   <g id="patch_21">
    <path d="M 386.729097 192.229206 
Q 383.76308 192.232925 380.555851 192.234805 
Q 377.348622 192.236708 373.855512 192.236708 
Q 363.438719 192.236708 357.354811 192.222613 
Q 351.270903 192.208518 351.270903 192.184413 
Q 351.270903 192.160223 357.354811 192.146149 
Q 363.438719 192.132054 373.855512 192.132054 
Q 377.348622 192.132054 380.555851 192.133957 
Q 383.76308 192.135837 386.729097 192.139556 
L 386.729097 192.160417 
Q 383.736279 192.155488 380.832799 192.153197 
Q 377.929318 192.150905 374.72209 192.150905 
Q 368.968732 192.150905 365.672165 192.159834 
Q 362.384532 192.16874 362.384532 192.184413 
Q 362.384532 192.200022 365.672165 192.20895 
Q 368.968732 192.217857 374.72209 192.217857 
Q 377.929318 192.217857 380.832799 192.215565 
Q 383.736279 192.213252 386.729097 192.208323 
L 386.729097 192.229206 
z
" clip-path="url(#p7c14b29d54)" style="fill: #0000ff"/>
   </g>
   <g id="patch_22">
    <path d="M 351.270903 192.02212 
L 386.729097 192.02212 
L 386.729097 192.04356 
L 373.972393 192.04356 
L 373.972393 192.132054 
L 364.052345 192.132054 
L 364.052345 192.04356 
L 351.270903 192.04356 
L 351.270903 192.02212 
z
" clip-path="url(#p7c14b29d54)" style="fill: #ff0000"/>
   </g>
   <g id="patch_23">
    <path d="M 375.832825 168.075901 
L 362.196174 168.075901 
L 360.043018 192.02212 
L 351.270903 192.02212 
L 363.798353 60.571465 
L 374.201647 60.571465 
L 386.729097 192.02212 
L 377.964232 192.02212 
L 375.832825 168.075901 
z
M 364.371078 143.67893 
L 373.636172 143.67893 
L 369.010875 91.391657 
L 364.371078 143.67893 
z
" clip-path="url(#p7c14b29d54)" style="fill: #008000"/>
   </g>
   <g id="patch_24">
    <path d="M 413.15724 192.236575 
L 399.520588 192.236575 
L 397.367433 192.24 
L 388.595318 192.24 
L 401.122768 192.221197 
L 411.526061 192.221197 
L 424.053512 192.24 
L 415.288646 192.24 
L 413.15724 192.236575 
z
M 401.695493 192.233085 
L 410.960586 192.233085 
L 406.335289 192.225605 
L 401.695493 192.233085 
z
" clip-path="url(#p7c14b29d54)" style="fill: #008000"/>
   </g>
   <g id="patch_25">
    <path d="M 424.053512 192.219349 
Q 420.477495 192.220273 416.63129 192.220737 
Q 412.785085 192.221197 408.684586 192.221197 
Q 399.418729 192.221197 394.007023 192.218446 
Q 388.595318 192.215695 388.595318 192.210991 
Q 388.595318 192.206233 394.102384 192.203503 
Q 399.617396 192.200773 409.209068 192.200773 
Q 412.904286 192.200773 416.289582 192.201145 
Q 419.682824 192.201512 422.686679 192.202237 
L 422.686679 192.206308 
Q 419.587464 192.205376 416.520036 192.204916 
Q 413.452608 192.204452 410.369287 192.204452 
Q 404.663554 192.204452 401.572286 192.206148 
Q 398.481018 192.20784 398.481018 192.210991 
Q 398.481018 192.214113 401.461032 192.215818 
Q 404.441046 192.217518 409.924272 192.217518 
Q 411.418252 192.217518 412.697671 192.217421 
Q 413.977091 192.217319 414.994269 192.217109 
L 414.994269 192.213286 
L 409.153441 192.213286 
L 409.153441 192.209882 
L 424.053512 192.209882 
L 424.053512 192.219349 
z
" clip-path="url(#p7c14b29d54)" style="fill: #ffa600"/>
   </g>
   <g id="patch_26">
    <path d="M 424.053512 192.194151 
Q 421.087495 192.197434 417.880266 192.199094 
Q 414.673037 192.200773 411.179927 192.200773 
Q 400.763133 192.200773 394.679226 192.18833 
Q 388.595318 192.175887 388.595318 192.154608 
Q 388.595318 192.133253 394.679226 192.120829 
Q 400.763133 192.108386 411.179927 192.108386 
Q 414.673037 192.108386 417.880266 192.110065 
Q 421.087495 192.111726 424.053512 192.115008 
L 424.053512 192.133425 
Q 421.060694 192.129073 418.157213 192.12705 
Q 415.253733 192.125027 412.046504 192.125027 
Q 406.293146 192.125027 402.99658 192.132909 
Q 399.708947 192.140772 399.708947 192.154608 
Q 399.708947 192.168387 402.99658 192.176269 
Q 406.293146 192.184132 412.046504 192.184132 
Q 415.253733 192.184132 418.157213 192.182109 
Q 421.060694 192.180067 424.053512 192.175716 
L 424.053512 192.194151 
z
" clip-path="url(#p7c14b29d54)" style="fill: #0000ff"/>
   </g>
   <g id="patch_27">
    <path d="M 388.595318 25.92 
L 424.053512 25.92 
L 424.053512 58.331365 
L 411.296808 58.331365 
L 411.296808 192.108386 
L 401.37676 192.108386 
L 401.37676 58.331365 
L 388.595318 58.331365 
L 388.595318 25.92 
z
" clip-path="url(#p7c14b29d54)" style="fill: #ff0000"/>
   </g>
   <g id="patch_28">
    <path d="M 461.377926 190.09137 
Q 458.41191 191.156397 455.204681 191.695103 
Q 451.997452 192.24 448.504342 192.24 
Q 438.087548 192.24 432.00364 188.202805 
Q 425.919732 184.165611 425.919732 177.261513 
Q 425.919732 170.332647 432.00364 166.301644 
Q 438.087548 162.264449 448.504342 162.264449 
Q 451.997452 162.264449 455.204681 162.809347 
Q 458.41191 163.348052 461.377926 164.413079 
L 461.377926 170.388375 
Q 458.385108 168.976595 455.481628 168.320241 
Q 452.578148 167.663888 449.370919 167.663888 
Q 443.617561 167.663888 440.320994 170.22119 
Q 437.033361 172.772301 437.033361 177.261513 
Q 437.033361 181.732148 440.320994 184.289451 
Q 443.617561 186.840562 449.370919 186.840562 
Q 452.578148 186.840562 455.481628 186.184208 
Q 458.385108 185.521662 461.377926 184.109883 
L 461.377926 190.09137 
z
" clip-path="url(#p7c14b29d54)" style="fill: #0000ff"/>
   </g>
   <g id="patch_29">
    <path d="M 498.702341 191.077776 
Q 495.126324 191.658888 491.280119 191.950771 
Q 487.433915 192.24 483.333415 192.24 
Q 474.067558 192.24 468.655853 190.509932 
Q 463.244147 188.779863 463.244147 185.821234 
Q 463.244147 182.82811 468.751213 181.111309 
Q 474.266226 179.394508 483.857898 179.394508 
Q 487.553115 179.394508 490.938411 179.628014 
Q 494.331654 179.858867 497.335508 180.315265 
L 497.335508 182.875873 
Q 494.236293 182.289454 491.168866 182.000225 
Q 488.101438 181.708342 485.018117 181.708342 
Q 479.312383 181.708342 476.221115 182.77504 
Q 473.129847 183.839086 473.129847 185.821234 
Q 473.129847 187.784809 476.109861 188.856814 
Q 479.089875 189.926166 484.573101 189.926166 
Q 486.067082 189.926166 487.346501 189.865136 
Q 488.62592 189.801453 489.643098 189.668779 
L 489.643098 187.264727 
L 483.802271 187.264727 
L 483.802271 185.123369 
L 498.702341 185.123369 
L 498.702341 191.077776 
z
" clip-path="url(#p7c14b29d54)" style="fill: #ffa600"/>
   </g>
   <g id="patch_30">
    <path d="M 487.806069 172.83352 
L 474.169418 172.83352 
L 472.016262 179.394508 
L 463.244147 179.394508 
L 475.771597 143.37854 
L 486.174891 143.37854 
L 498.702341 179.394508 
L 489.937476 179.394508 
L 487.806069 172.83352 
z
M 476.344322 166.14903 
L 485.609416 166.14903 
L 480.984119 151.822918 
L 476.344322 166.14903 
z
" clip-path="url(#p7c14b29d54)" style="fill: #008000"/>
   </g>
   <g id="patch_31">
    <path d="M 536.026756 190.697153 
Q 532.450739 191.468576 528.604534 191.856049 
Q 524.758329 192.24 520.65783 192.24 
Q 511.391973 192.24 505.980267 189.943341 
Q 500.568562 187.646683 500.568562 183.719115 
Q 500.568562 179.745755 506.075628 177.466709 
Q 511.590641 175.187663 521.182312 175.187663 
Q 524.87753 175.187663 528.262826 175.497641 
Q 531.656069 175.804097 534.659923 176.409964 
L 534.659923 179.809159 
Q 531.560708 179.030691 528.49328 178.64674 
Q 525.425852 178.259267 522.342531 178.259267 
Q 516.636798 178.259267 513.54553 179.675305 
Q 510.454262 181.087821 510.454262 183.719115 
Q 510.454262 186.325752 513.434276 187.748835 
Q 516.41429 189.168395 521.897516 189.168395 
Q 523.391496 189.168395 524.670916 189.087378 
Q 525.950335 189.002839 526.967513 188.826715 
L 526.967513 185.635345 
L 521.126686 185.635345 
L 521.126686 182.792702 
L 536.026756 182.792702 
L 536.026756 190.697153 
z
" clip-path="url(#p7c14b29d54)" style="fill: #ffa600"/>
   </g>
   <g id="patch_32">
    <path d="M 573.351171 192.224651 
Q 569.775154 192.232326 565.928949 192.23618 
Q 562.082744 192.24 557.982245 192.24 
Q 548.716388 192.24 543.304682 192.217152 
Q 537.892977 192.194304 537.892977 192.155231 
Q 537.892977 192.115702 543.400043 192.09303 
Q 548.915055 192.070357 558.506727 192.070357 
Q 562.201945 192.070357 565.587241 192.073441 
Q 568.980483 192.076489 571.984337 192.082517 
L 571.984337 192.116333 
Q 568.885123 192.108589 565.817695 192.104769 
Q 562.750267 192.100914 559.666946 192.100914 
Q 553.961212 192.100914 550.869944 192.115002 
Q 547.778677 192.129054 547.778677 192.155231 
Q 547.778677 192.181163 550.758691 192.19532 
Q 553.738705 192.209442 559.221931 192.209442 
Q 560.715911 192.209442 561.99533 192.208636 
Q 563.27475 192.207795 564.291928 192.206043 
L 564.291928 192.174294 
L 558.4511 192.174294 
L 558.4511 192.146015 
L 573.351171 192.146015 
L 573.351171 192.224651 
z
" clip-path="url(#p7c14b29d54)" style="fill: #ffa600"/>
   </g>
   <g id="patch_33">
    <path d="M 573.351171 191.879614 
Q 570.385154 191.974161 567.177925 192.021984 
Q 563.970696 192.070357 560.477586 192.070357 
Q 550.060792 192.070357 543.976884 191.711958 
Q 537.892977 191.353559 537.892977 190.740653 
Q 537.892977 190.125549 543.976884 189.7677 
Q 550.060792 189.409301 560.477586 189.409301 
Q 563.970696 189.409301 567.177925 189.457674 
Q 570.385154 189.505497 573.351171 189.600044 
L 573.351171 190.130496 
Q 570.358352 190.005166 567.454872 189.946899 
Q 564.551392 189.888632 561.344163 189.888632 
Q 555.590805 189.888632 552.294239 190.115654 
Q 549.006606 190.342127 549.006606 190.740653 
Q 549.006606 191.137531 552.294239 191.364553 
Q 555.590805 191.591026 561.344163 191.591026 
Q 564.551392 191.591026 567.454872 191.532759 
Q 570.358352 191.473942 573.351171 191.348612 
L 573.351171 191.879614 
z
" clip-path="url(#p7c14b29d54)" style="fill: #0000ff"/>
   </g>
   <g id="patch_34">
    <path d="M 562.454899 188.308037 
L 548.818247 188.308037 
L 546.665092 189.409301 
L 537.892977 189.409301 
L 550.420427 183.364007 
L 560.82372 183.364007 
L 573.351171 189.409301 
L 564.586305 189.409301 
L 562.454899 188.308037 
z
M 550.993152 187.186042 
L 560.258245 187.186042 
L 555.632948 184.781399 
L 550.993152 187.186042 
z
" clip-path="url(#p7c14b29d54)" style="fill: #008000"/>
   </g>
   <g id="patch_35">
    <path d="M 599.779313 191.674325 
L 586.142662 191.674325 
L 583.989506 192.24 
L 575.217391 192.24 
L 587.744842 189.134778 
L 598.148135 189.134778 
L 610.675585 192.24 
L 601.91072 192.24 
L 599.779313 191.674325 
z
M 588.317566 191.098002 
L 597.58266 191.098002 
L 592.957363 189.862835 
L 588.317566 191.098002 
z
" clip-path="url(#p7c14b29d54)" style="fill: #008000"/>
   </g>
   <g id="patch_36">
    <path d="M 610.675585 187.872898 
Q 607.099568 188.503838 603.253364 188.820749 
Q 599.407159 189.134778 595.306659 189.134778 
Q 586.040802 189.134778 580.629097 187.256363 
Q 575.217391 185.377948 575.217391 182.165628 
Q 575.217391 178.915856 580.724457 177.051846 
Q 586.23947 175.187836 595.831142 175.187836 
Q 599.526359 175.187836 602.911655 175.441364 
Q 606.304898 175.692012 609.308752 176.187544 
L 609.308752 178.967714 
Q 606.209538 178.331012 603.14211 178.016982 
Q 600.074682 177.700072 596.991361 177.700072 
Q 591.285627 177.700072 588.194359 178.858235 
Q 585.103091 180.013518 585.103091 182.165628 
Q 585.103091 184.297572 588.083105 185.461497 
Q 591.063119 186.622542 596.546345 186.622542 
Q 598.040326 186.622542 599.319745 186.556279 
Q 600.599164 186.487135 601.616343 186.343085 
L 601.616343 183.732895 
L 595.775515 183.732895 
L 595.775515 181.407924 
L 610.675585 181.407924 
L 610.675585 187.872898 
z
" clip-path="url(#p7c14b29d54)" style="fill: #ffa600"/>
   </g>
   <g id="patch_37">
    <path d="M 637.103728 192.134936 
L 623.467077 192.134936 
L 621.313921 192.24 
L 612.541806 192.24 
L 625.069256 191.663261 
L 635.47255 191.663261 
L 648 192.24 
L 639.235135 192.24 
L 637.103728 192.134936 
z
M 625.641981 192.027895 
L 634.907075 192.027895 
L 630.281778 191.798484 
L 625.641981 192.027895 
z
" clip-path="url(#p7c14b29d54)" style="fill: #008000"/>
   </g>
   <g id="patch_38">
    <path d="M 648 191.603758 
Q 645.033983 191.633252 641.826754 191.648171 
Q 638.619525 191.663261 635.126415 191.663261 
Q 624.709622 191.663261 618.625714 191.551456 
Q 612.541806 191.439652 612.541806 191.248452 
Q 612.541806 191.056567 618.625714 190.944934 
Q 624.709622 190.833129 635.126415 190.833129 
Q 638.619525 190.833129 641.826754 190.848219 
Q 645.033983 190.863138 648 190.892632 
L 648 191.05811 
Q 645.007182 191.019013 642.103702 191.000836 
Q 639.200221 190.982659 635.992993 190.982659 
Q 630.239635 190.982659 626.943068 191.05348 
Q 623.655435 191.12413 623.655435 191.248452 
Q 623.655435 191.37226 626.943068 191.443081 
Q 630.239635 191.513731 635.992993 191.513731 
Q 639.200221 191.513731 642.103702 191.495554 
Q 645.007182 191.477206 648 191.438108 
L 648 191.603758 
z
" clip-path="url(#p7c14b29d54)" style="fill: #0000ff"/>
   </g>
   <g id="patch_39">
    <path d="M 648 190.323692 
Q 644.423983 190.578411 640.577778 190.706351 
Q 636.731573 190.833129 632.631074 190.833129 
Q 623.365217 190.833129 617.953512 190.074789 
Q 612.541806 189.31645 612.541806 188.019596 
Q 612.541806 186.707622 618.048872 185.955098 
Q 623.563885 185.202574 633.155557 185.202574 
Q 636.850774 185.202574 640.23607 185.304926 
Q 643.629313 185.406116 646.633167 185.606169 
L 646.633167 186.728558 
Q 643.533952 186.471513 640.466524 186.344736 
Q 637.399097 186.216795 634.315775 186.216795 
Q 628.610042 186.216795 625.518774 186.68436 
Q 622.427506 187.150762 622.427506 188.019596 
Q 622.427506 188.880288 625.40752 189.35018 
Q 628.387534 189.818908 633.87076 189.818908 
Q 635.36474 189.818908 636.64416 189.792157 
Q 637.923579 189.764242 638.940757 189.706087 
L 638.940757 188.652321 
L 633.09993 188.652321 
L 633.09993 187.713701 
L 648 187.713701 
L 648 190.323692 
z
" clip-path="url(#p7c14b29d54)" style="fill: #ffa600"/>
   </g>
   <g id="patch_40">
    <path d="M 114.561922 193.663866 
L 100.925271 193.663866 
L 98.772115 193.315639 
L 90 193.315639 
L 102.52745 195.227201 
L 112.930744 195.227201 
L 125.458194 193.315639 
L 116.693329 193.315639 
L 114.561922 193.663866 
z
M 103.100175 194.018648 
L 112.365269 194.018648 
L 107.739972 194.779012 
L 103.100175 194.018648 
z
" clip-path="url(#p7c14b29d54)" style="fill: #008000"/>
   </g>
   <g id="patch_41">
    <path d="M 125.458194 192.337321 
Q 121.882177 192.28866 118.035972 192.264219 
Q 114.189767 192.24 110.089268 192.24 
Q 100.823411 192.24 95.411706 192.38487 
Q 90 192.52974 90 192.777486 
Q 90 193.028121 95.507066 193.17188 
Q 101.022079 193.315639 110.613751 193.315639 
Q 114.308968 193.315639 117.694264 193.296086 
Q 121.087507 193.276755 124.091361 193.238538 
L 124.091361 193.024121 
Q 120.992146 193.073226 117.924718 193.097445 
Q 114.857291 193.121886 111.773969 193.121886 
Q 106.068236 193.121886 102.976968 193.032564 
Q 99.8857 192.943465 99.8857 192.777486 
Q 99.8857 192.613063 102.865714 192.523297 
Q 105.845728 192.433753 111.328954 192.433753 
Q 112.822934 192.433753 114.102354 192.438863 
Q 115.381773 192.444196 116.398951 192.455306 
L 116.398951 192.656613 
L 110.558124 192.656613 
L 110.558124 192.835923 
L 125.458194 192.835923 
L 125.458194 192.337321 
z
" clip-path="url(#p7c14b29d54)" style="fill: #ffa600"/>
   </g>
   <g id="patch_42">
    <path d="M 151.886337 195.705538 
L 138.249685 195.705538 
L 136.09653 195.05712 
L 127.324415 195.05712 
L 139.851865 198.616553 
L 150.255158 198.616553 
L 162.782609 195.05712 
L 154.017743 195.05712 
L 151.886337 195.705538 
z
M 140.42459 196.366162 
L 149.689683 196.366162 
L 145.064386 197.782001 
L 140.42459 196.366162 
z
" clip-path="url(#p7c14b29d54)" style="fill: #008000"/>
   </g>
   <g id="patch_43">
    <path d="M 162.782609 192.494885 
Q 159.206592 192.367443 155.360387 192.30343 
Q 151.514182 192.24 147.413683 192.24 
Q 138.147826 192.24 132.73612 192.619418 
Q 127.324415 192.998836 127.324415 193.647687 
Q 127.324415 194.304104 132.831481 194.680612 
Q 138.346493 195.05712 147.938165 195.05712 
Q 151.633383 195.05712 155.018679 195.005911 
Q 158.411921 194.955283 161.415776 194.855191 
L 161.415776 194.293629 
Q 158.316561 194.422235 155.249133 194.485666 
Q 152.181705 194.549678 149.098384 194.549678 
Q 143.392651 194.549678 140.301383 194.315742 
Q 137.210115 194.082389 137.210115 193.647687 
Q 137.210115 193.217059 140.190129 192.98196 
Q 143.170143 192.747442 148.653369 192.747442 
Q 150.147349 192.747442 151.426768 192.760827 
Q 152.706188 192.774793 153.723366 192.80389 
L 153.723366 193.331118 
L 147.882538 193.331118 
L 147.882538 193.800735 
L 162.782609 193.800735 
L 162.782609 192.494885 
z
" clip-path="url(#p7c14b29d54)" style="fill: #ffa600"/>
   </g>
   <g id="patch_44">
    <path d="M 200.107023 192.362709 
Q 197.141007 192.301885 193.933778 192.271119 
Q 190.726549 192.24 187.233439 192.24 
Q 176.816645 192.24 170.732737 192.470565 
Q 164.648829 192.70113 164.648829 193.095425 
Q 164.648829 193.491134 170.732737 193.721346 
Q 176.816645 193.951911 187.233439 193.951911 
Q 190.726549 193.951911 193.933778 193.920792 
Q 197.141007 193.890026 200.107023 193.829202 
L 200.107023 193.487952 
Q 197.114205 193.568579 194.210725 193.606063 
Q 191.307245 193.643548 188.100016 193.643548 
Q 182.346658 193.643548 179.050091 193.497499 
Q 175.762458 193.351805 175.762458 193.095425 
Q 175.762458 192.840106 179.050091 192.694058 
Q 182.346658 192.548363 188.100016 192.548363 
Q 191.307245 192.548363 194.210725 192.585848 
Q 197.114205 192.623686 200.107023 192.704313 
L 200.107023 192.362709 
z
" clip-path="url(#p7c14b29d54)" style="fill: #0000ff"/>
   </g>
   <g id="patch_45">
    <path d="M 164.648829 195.736675 
L 200.107023 195.736675 
L 200.107023 195.388596 
L 187.35032 195.388596 
L 187.35032 193.951911 
L 177.430271 193.951911 
L 177.430271 195.388596 
L 164.648829 195.388596 
L 164.648829 195.736675 
z
" clip-path="url(#p7c14b29d54)" style="fill: #ff0000"/>
   </g>
   <g id="patch_46">
    <path d="M 237.431438 192.396288 
Q 234.465421 192.31882 231.258192 192.279635 
Q 228.050964 192.24 224.557853 192.24 
Q 214.14106 192.24 208.057152 192.53366 
Q 201.973244 192.82732 201.973244 193.329515 
Q 201.973244 193.833512 208.057152 194.126722 
Q 214.14106 194.420382 224.557853 194.420382 
Q 228.050964 194.420382 231.258192 194.380747 
Q 234.465421 194.341562 237.431438 194.264093 
L 237.431438 193.829458 
Q 234.43862 193.932149 231.53514 193.979891 
Q 228.63166 194.027634 225.424431 194.027634 
Q 219.671073 194.027634 216.374506 193.841619 
Q 213.086873 193.656055 213.086873 193.329515 
Q 213.086873 193.004327 216.374506 192.818312 
Q 219.671073 192.632748 225.424431 192.632748 
Q 228.63166 192.632748 231.53514 192.68049 
Q 234.43862 192.728683 237.431438 192.831374 
L 237.431438 192.396288 
z
" clip-path="url(#p7c14b29d54)" style="fill: #0000ff"/>
   </g>
   <g id="patch_47">
    <path d="M 201.973244 197.138085 
L 237.431438 197.138085 
L 237.431438 196.608057 
L 224.674734 196.608057 
L 224.674734 194.420382 
L 214.754686 194.420382 
L 214.754686 196.608057 
L 201.973244 196.608057 
L 201.973244 197.138085 
z
" clip-path="url(#p7c14b29d54)" style="fill: #ff0000"/>
   </g>
   <g id="patch_48">
    <path d="M 263.859581 192.246464 
L 250.222929 192.246464 
L 248.069774 192.245171 
L 239.297659 192.245171 
L 251.825109 192.25227 
L 262.228403 192.25227 
L 274.755853 192.245171 
L 265.990987 192.245171 
L 263.859581 192.246464 
z
M 252.397834 192.247782 
L 261.662927 192.247782 
L 257.03763 192.250606 
L 252.397834 192.247782 
z
" clip-path="url(#p7c14b29d54)" style="fill: #008000"/>
   </g>
   <g id="patch_49">
    <path d="M 274.755853 192.240468 
Q 271.179836 192.240234 267.333631 192.240116 
Q 263.487426 192.24 259.386927 192.24 
Q 250.12107 192.24 244.709364 192.240696 
Q 239.297659 192.241393 239.297659 192.242584 
Q 239.297659 192.243789 244.804725 192.24448 
Q 250.319738 192.245171 259.911409 192.245171 
Q 263.606627 192.245171 266.991923 192.245077 
Q 270.385166 192.244984 273.38902 192.2448 
L 273.38902 192.243769 
Q 270.289805 192.244005 267.222377 192.244122 
Q 264.154949 192.244239 261.071628 192.244239 
Q 255.365895 192.244239 252.274627 192.24381 
Q 249.183359 192.243382 249.183359 192.242584 
Q 249.183359 192.241793 252.163373 192.241362 
Q 255.143387 192.240931 260.626613 192.240931 
Q 262.120593 192.240931 263.400013 192.240956 
Q 264.679432 192.240982 265.69661 192.241035 
L 265.69661 192.242003 
L 259.855783 192.242003 
L 259.855783 192.242865 
L 274.755853 192.242865 
L 274.755853 192.240468 
z
" clip-path="url(#p7c14b29d54)" style="fill: #ffa600"/>
   </g>
   <g id="patch_50">
    <path d="M 349.404682 192.241938 
Q 345.828665 192.240969 341.982461 192.240482 
Q 338.136256 192.24 334.035756 192.24 
Q 324.769899 192.24 319.358194 192.242885 
Q 313.946488 192.245769 313.946488 192.250702 
Q 313.946488 192.255693 319.453554 192.258555 
Q 324.968567 192.261417 334.560239 192.261417 
Q 338.255456 192.261417 341.640752 192.261028 
Q 345.033995 192.260643 348.037849 192.259882 
L 348.037849 192.255613 
Q 344.938635 192.256591 341.871207 192.257073 
Q 338.803779 192.25756 335.720458 192.25756 
Q 330.014724 192.25756 326.923456 192.255781 
Q 323.832188 192.254007 323.832188 192.250702 
Q 323.832188 192.247428 326.812202 192.245641 
Q 329.792216 192.243858 335.275442 192.243858 
Q 336.769423 192.243858 338.048842 192.24396 
Q 339.328261 192.244066 340.34544 192.244287 
L 340.34544 192.248295 
L 334.504612 192.248295 
L 334.504612 192.251866 
L 349.404682 192.251866 
L 349.404682 192.241938 
z
" clip-path="url(#p7c14b29d54)" style="fill: #ffa600"/>
   </g>
   <g id="patch_51">
    <path d="M 450.481655 192.255636 
L 436.845003 192.255636 
L 434.691847 192.24 
L 425.919732 192.24 
L 438.447183 192.325835 
L 448.850476 192.325835 
L 461.377926 192.24 
L 452.613061 192.24 
L 450.481655 192.255636 
z
M 439.019908 192.271567 
L 448.285001 192.271567 
L 443.659704 192.30571 
L 439.019908 192.271567 
z
" clip-path="url(#p7c14b29d54)" style="fill: #008000"/>
   </g>
   <g id="patch_52">
    <path d="M 461.377926 193.285646 
Q 457.80191 193.229542 453.955705 193.201362 
Q 450.1095 193.173438 446.009001 193.173438 
Q 436.743144 193.173438 431.331438 193.340469 
Q 425.919732 193.507501 425.919732 193.793146 
Q 425.919732 194.082121 431.426798 194.247871 
Q 436.941811 194.413622 446.533483 194.413622 
Q 450.2287 194.413622 453.613996 194.391078 
Q 457.007239 194.36879 460.011093 194.324726 
L 460.011093 194.077509 
Q 456.911879 194.134126 453.844451 194.16205 
Q 450.777023 194.19023 447.693702 194.19023 
Q 441.987968 194.19023 438.8967 194.087244 
Q 435.805432 193.984515 435.805432 193.793146 
Q 435.805432 193.60357 438.785446 193.500072 
Q 441.765461 193.39683 447.248686 193.39683 
Q 448.742667 193.39683 450.022086 193.402722 
Q 451.301506 193.40887 452.318684 193.421679 
L 452.318684 193.653782 
L 446.477856 193.653782 
L 446.477856 193.860522 
L 461.377926 193.860522 
L 461.377926 193.285646 
z
" clip-path="url(#p7c14b29d54)" style="fill: #ffa600"/>
   </g>
   <g id="patch_53">
    <path d="M 425.919732 193.173438 
L 461.377926 193.173438 
L 461.377926 193.008131 
L 448.621223 193.008131 
L 448.621223 192.325835 
L 438.701174 192.325835 
L 438.701174 193.008131 
L 425.919732 193.008131 
L 425.919732 193.173438 
z
" clip-path="url(#p7c14b29d54)" style="fill: #ff0000"/>
   </g>
   <g id="patch_54">
    <path d="M 498.702341 193.137762 
Q 495.736324 192.997097 492.529095 192.925947 
Q 489.321867 192.853979 485.828756 192.853979 
Q 475.411963 192.853979 469.328055 193.387197 
Q 463.244147 193.920414 463.244147 194.832283 
Q 463.244147 195.747422 469.328055 196.279822 
Q 475.411963 196.81304 485.828756 196.81304 
Q 489.321867 196.81304 492.529095 196.741072 
Q 495.736324 196.669922 498.702341 196.529257 
L 498.702341 195.740062 
Q 495.709523 195.926524 492.806043 196.013213 
Q 489.902563 196.099902 486.695334 196.099902 
Q 480.941976 196.099902 477.645409 195.762143 
Q 474.357776 195.425201 474.357776 194.832283 
Q 474.357776 194.241817 477.645409 193.904058 
Q 480.941976 193.567117 486.695334 193.567117 
Q 489.902563 193.567117 492.806043 193.653806 
Q 495.709523 193.741312 498.702341 193.927775 
L 498.702341 193.137762 
z
" clip-path="url(#p7c14b29d54)" style="fill: #0000ff"/>
   </g>
   <g id="patch_55">
    <path d="M 463.244147 192.853979 
L 498.702341 192.853979 
L 498.702341 192.734236 
L 485.945637 192.734236 
L 485.945637 192.24 
L 476.025589 192.24 
L 476.025589 192.734236 
L 463.244147 192.734236 
L 463.244147 192.853979 
z
" clip-path="url(#p7c14b29d54)" style="fill: #ff0000"/>
   </g>
   <g id="patch_56">
    <path d="M 525.130484 192.275805 
L 511.493832 192.275805 
L 509.340677 192.24 
L 500.568562 192.24 
L 513.096012 192.436546 
L 523.499306 192.436546 
L 536.026756 192.24 
L 527.26189 192.24 
L 525.130484 192.275805 
z
M 513.668737 192.312283 
L 522.93383 192.312283 
L 518.308533 192.390464 
L 513.668737 192.312283 
z
" clip-path="url(#p7c14b29d54)" style="fill: #008000"/>
   </g>
   <g id="patch_57">
    <path d="M 536.026756 193.170391 
Q 533.060739 193.140781 529.85351 193.125804 
Q 526.646281 193.110655 523.153171 193.110655 
Q 512.736377 193.110655 506.65247 193.222896 
Q 500.568562 193.335137 500.568562 193.527082 
Q 500.568562 193.719716 506.65247 193.831785 
Q 512.736377 193.944025 523.153171 193.944025 
Q 526.646281 193.944025 529.85351 193.928876 
Q 533.060739 193.913899 536.026756 193.88429 
L 536.026756 193.718167 
Q 533.033938 193.757417 530.130458 193.775664 
Q 527.226977 193.793912 524.019748 193.793912 
Q 518.266391 193.793912 514.969824 193.722815 
Q 511.682191 193.65189 511.682191 193.527082 
Q 511.682191 193.402791 514.969824 193.331694 
Q 518.266391 193.260769 524.019748 193.260769 
Q 527.226977 193.260769 530.130458 193.279016 
Q 533.033938 193.297436 536.026756 193.336686 
L 536.026756 193.170391 
z
" clip-path="url(#p7c14b29d54)" style="fill: #0000ff"/>
   </g>
   <g id="patch_58">
    <path d="M 500.568562 193.110655 
L 536.026756 193.110655 
L 536.026756 192.979185 
L 523.270052 192.979185 
L 523.270052 192.436546 
L 513.350004 192.436546 
L 513.350004 192.979185 
L 500.568562 192.979185 
L 500.568562 193.110655 
z
" clip-path="url(#p7c14b29d54)" style="fill: #ff0000"/>
   </g>
   <g id="patch_59">
    <path d="M 537.892977 192.808855 
L 573.351171 192.808855 
L 573.351171 192.697912 
L 560.594467 192.697912 
L 560.594467 192.24 
L 550.674419 192.24 
L 550.674419 192.697912 
L 537.892977 192.697912 
L 537.892977 192.808855 
z
" clip-path="url(#p7c14b29d54)" style="fill: #ff0000"/>
   </g>
   <g id="patch_60">
    <path d="M 610.675585 192.304222 
Q 607.709569 192.272389 604.50234 192.256287 
Q 601.295111 192.24 597.802001 192.24 
Q 587.385207 192.24 581.301299 192.360671 
Q 575.217391 192.481342 575.217391 192.687704 
Q 575.217391 192.894807 581.301299 193.015293 
Q 587.385207 193.135964 597.802001 193.135964 
Q 601.295111 193.135964 604.50234 193.119677 
Q 607.709569 193.103575 610.675585 193.071742 
L 610.675585 192.893141 
Q 607.682767 192.935339 604.779287 192.954957 
Q 601.875807 192.974576 598.668578 192.974576 
Q 592.91522 192.974576 589.618653 192.898138 
Q 586.33102 192.821886 586.33102 192.687704 
Q 586.33102 192.554078 589.618653 192.477641 
Q 592.91522 192.401388 598.668578 192.401388 
Q 601.875807 192.401388 604.779287 192.421007 
Q 607.682767 192.44081 610.675585 192.483008 
L 610.675585 192.304222 
z
" clip-path="url(#p7c14b29d54)" style="fill: #0000ff"/>
   </g>
   <g id="patch_61">
    <path d="M 575.217391 194.066473 
L 610.675585 194.066473 
L 610.675585 193.884998 
L 597.918882 193.884998 
L 597.918882 193.135964 
L 587.998833 193.135964 
L 587.998833 193.884998 
L 575.217391 193.884998 
L 575.217391 194.066473 
z
" clip-path="url(#p7c14b29d54)" style="fill: #ff0000"/>
   </g>
   <g id="patch_62">
    <path d="M 612.541806 193.66957 
L 648 193.66957 
L 648 193.390764 
L 635.243296 193.390764 
L 635.243296 192.24 
L 625.323248 192.24 
L 625.323248 193.390764 
L 612.541806 193.390764 
L 612.541806 193.66957 
z
" clip-path="url(#p7c14b29d54)" style="fill: #ff0000"/>
   </g>
   <g id="matplotlib.axis_1">
    <g id="xtick_1">
     <g id="line2d_2">
      <defs>
       <path id="m65ae2fc88b" d="M 0 0 
L 0 3.5 
" style="stroke: #000000; stroke-width: 0.8"/>
      </defs>
      <g>
       <use xlink:href="#m65ae2fc88b" x="107.729097" y="192.24" style="stroke: #000000; stroke-width: 0.8"/>
      </g>
     </g>
     <g id="text_1">
      <!-- 0 -->
      <g transform="translate(104.547847 206.838437) scale(0.1 -0.1)">
       <defs>
        <path id="DejaVuSans-30" d="M 2034 4250 
Q 1547 4250 1301 3770 
Q 1056 3291 1056 2328 
Q 1056 1369 1301 889 
Q 1547 409 2034 409 
Q 2525 409 2770 889 
Q 3016 1369 3016 2328 
Q 3016 3291 2770 3770 
Q 2525 4250 2034 4250 
z
M 2034 4750 
Q 2819 4750 3233 4129 
Q 3647 3509 3647 2328 
Q 3647 1150 3233 529 
Q 2819 -91 2034 -91 
Q 1250 -91 836 529 
Q 422 1150 422 2328 
Q 422 3509 836 4129 
Q 1250 4750 2034 4750 
z
" transform="scale(0.015625)"/>
       </defs>
       <use xlink:href="#DejaVuSans-30"/>
      </g>
     </g>
    </g>
    <g id="xtick_2">
     <g id="line2d_3">
      <g>
       <use xlink:href="#m65ae2fc88b" x="182.377926" y="192.24" style="stroke: #000000; stroke-width: 0.8"/>
      </g>
     </g>
     <g id="text_2">
      <!-- 2 -->
      <g transform="translate(179.196676 206.838437) scale(0.1 -0.1)">
       <defs>
        <path id="DejaVuSans-32" d="M 1228 531 
L 3431 531 
L 3431 0 
L 469 0 
L 469 531 
Q 828 903 1448 1529 
Q 2069 2156 2228 2338 
Q 2531 2678 2651 2914 
Q 2772 3150 2772 3378 
Q 2772 3750 2511 3984 
Q 2250 4219 1831 4219 
Q 1534 4219 1204 4116 
Q 875 4013 500 3803 
L 500 4441 
Q 881 4594 1212 4672 
Q 1544 4750 1819 4750 
Q 2544 4750 2975 4387 
Q 3406 4025 3406 3419 
Q 3406 3131 3298 2873 
Q 3191 2616 2906 2266 
Q 2828 2175 2409 1742 
Q 1991 1309 1228 531 
z
" transform="scale(0.015625)"/>
       </defs>
       <use xlink:href="#DejaVuSans-32"/>
      </g>
     </g>
    </g>
    <g id="xtick_3">
     <g id="line2d_4">
      <g>
       <use xlink:href="#m65ae2fc88b" x="257.026756" y="192.24" style="stroke: #000000; stroke-width: 0.8"/>
      </g>
     </g>
     <g id="text_3">
      <!-- 4 -->
      <g transform="translate(253.845506 206.838437) scale(0.1 -0.1)">
       <defs>
        <path id="DejaVuSans-34" d="M 2419 4116 
L 825 1625 
L 2419 1625 
L 2419 4116 
z
M 2253 4666 
L 3047 4666 
L 3047 1625 
L 3713 1625 
L 3713 1100 
L 3047 1100 
L 3047 0 
L 2419 0 
L 2419 1100 
L 313 1100 
L 313 1709 
L 2253 4666 
z
" transform="scale(0.015625)"/>
       </defs>
       <use xlink:href="#DejaVuSans-34"/>
      </g>
     </g>
    </g>
    <g id="xtick_4">
     <g id="line2d_5">
      <g>
       <use xlink:href="#m65ae2fc88b" x="331.675585" y="192.24" style="stroke: #000000; stroke-width: 0.8"/>
      </g>
     </g>
     <g id="text_4">
      <!-- 6 -->
      <g transform="translate(328.494335 206.838437) scale(0.1 -0.1)">
       <defs>
        <path id="DejaVuSans-36" d="M 2113 2584 
Q 1688 2584 1439 2293 
Q 1191 2003 1191 1497 
Q 1191 994 1439 701 
Q 1688 409 2113 409 
Q 2538 409 2786 701 
Q 3034 994 3034 1497 
Q 3034 2003 2786 2293 
Q 2538 2584 2113 2584 
z
M 3366 4563 
L 3366 3988 
Q 3128 4100 2886 4159 
Q 2644 4219 2406 4219 
Q 1781 4219 1451 3797 
Q 1122 3375 1075 2522 
Q 1259 2794 1537 2939 
Q 1816 3084 2150 3084 
Q 2853 3084 3261 2657 
Q 3669 2231 3669 1497 
Q 3669 778 3244 343 
Q 2819 -91 2113 -91 
Q 1303 -91 875 529 
Q 447 1150 447 2328 
Q 447 3434 972 4092 
Q 1497 4750 2381 4750 
Q 2619 4750 2861 4703 
Q 3103 4656 3366 4563 
z
" transform="scale(0.015625)"/>
       </defs>
       <use xlink:href="#DejaVuSans-36"/>
      </g>
     </g>
    </g>
    <g id="xtick_5">
     <g id="line2d_6">
      <g>
       <use xlink:href="#m65ae2fc88b" x="406.324415" y="192.24" style="stroke: #000000; stroke-width: 0.8"/>
      </g>
     </g>
     <g id="text_5">
      <!-- 8 -->
      <g transform="translate(403.143165 206.838437) scale(0.1 -0.1)">
       <defs>
        <path id="DejaVuSans-38" d="M 2034 2216 
Q 1584 2216 1326 1975 
Q 1069 1734 1069 1313 
Q 1069 891 1326 650 
Q 1584 409 2034 409 
Q 2484 409 2743 651 
Q 3003 894 3003 1313 
Q 3003 1734 2745 1975 
Q 2488 2216 2034 2216 
z
M 1403 2484 
Q 997 2584 770 2862 
Q 544 3141 544 3541 
Q 544 4100 942 4425 
Q 1341 4750 2034 4750 
Q 2731 4750 3128 4425 
Q 3525 4100 3525 3541 
Q 3525 3141 3298 2862 
Q 3072 2584 2669 2484 
Q 3125 2378 3379 2068 
Q 3634 1759 3634 1313 
Q 3634 634 3220 271 
Q 2806 -91 2034 -91 
Q 1263 -91 848 271 
Q 434 634 434 1313 
Q 434 1759 690 2068 
Q 947 2378 1403 2484 
z
M 1172 3481 
Q 1172 3119 1398 2916 
Q 1625 2713 2034 2713 
Q 2441 2713 2670 2916 
Q 2900 3119 2900 3481 
Q 2900 3844 2670 4047 
Q 2441 4250 2034 4250 
Q 1625 4250 1398 4047 
Q 1172 3844 1172 3481 
z
" transform="scale(0.015625)"/>
       </defs>
       <use xlink:href="#DejaVuSans-38"/>
      </g>
     </g>
    </g>
    <g id="xtick_6">
     <g id="line2d_7">
      <g>
       <use xlink:href="#m65ae2fc88b" x="480.973244" y="192.24" style="stroke: #000000; stroke-width: 0.8"/>
      </g>
     </g>
     <g id="text_6">
      <!-- 10 -->
      <g transform="translate(474.610744 206.838437) scale(0.1 -0.1)">
       <defs>
        <path id="DejaVuSans-31" d="M 794 531 
L 1825 531 
L 1825 4091 
L 703 3866 
L 703 4441 
L 1819 4666 
L 2450 4666 
L 2450 531 
L 3481 531 
L 3481 0 
L 794 0 
L 794 531 
z
" transform="scale(0.015625)"/>
       </defs>
       <use xlink:href="#DejaVuSans-31"/>
       <use xlink:href="#DejaVuSans-30" x="63.623047"/>
      </g>
     </g>
    </g>
    <g id="xtick_7">
     <g id="line2d_8">
      <g>
       <use xlink:href="#m65ae2fc88b" x="555.622074" y="192.24" style="stroke: #000000; stroke-width: 0.8"/>
      </g>
     </g>
     <g id="text_7">
      <!-- 12 -->
      <g transform="translate(549.259574 206.838437) scale(0.1 -0.1)">
       <use xlink:href="#DejaVuSans-31"/>
       <use xlink:href="#DejaVuSans-32" x="63.623047"/>
      </g>
     </g>
    </g>
    <g id="xtick_8">
     <g id="line2d_9">
      <g>
       <use xlink:href="#m65ae2fc88b" x="630.270903" y="192.24" style="stroke: #000000; stroke-width: 0.8"/>
      </g>
     </g>
     <g id="text_8">
      <!-- 14 -->
      <g transform="translate(623.908403 206.838437) scale(0.1 -0.1)">
       <use xlink:href="#DejaVuSans-31"/>
       <use xlink:href="#DejaVuSans-34" x="63.623047"/>
      </g>
     </g>
    </g>
   </g>
   <g id="matplotlib.axis_2">
    <g id="ytick_1">
     <g id="line2d_10">
      <defs>
       <path id="m218bb719e0" d="M 0 0 
L -3.5 0 
" style="stroke: #000000; stroke-width: 0.8"/>
      </defs>
      <g>
       <use xlink:href="#m218bb719e0" x="90" y="192.24" style="stroke: #000000; stroke-width: 0.8"/>
      </g>
     </g>
     <g id="text_9">
      <!-- 0.000 -->
      <g transform="translate(54.371875 196.039219) scale(0.1 -0.1)">
       <defs>
        <path id="DejaVuSans-2e" d="M 684 794 
L 1344 794 
L 1344 0 
L 684 0 
L 684 794 
z
" transform="scale(0.015625)"/>
       </defs>
       <use xlink:href="#DejaVuSans-30"/>
       <use xlink:href="#DejaVuSans-2e" x="63.623047"/>
       <use xlink:href="#DejaVuSans-30" x="95.410156"/>
       <use xlink:href="#DejaVuSans-30" x="159.033203"/>
       <use xlink:href="#DejaVuSans-30" x="222.65625"/>
      </g>
     </g>
    </g>
    <g id="ytick_2">
     <g id="line2d_11">
      <g>
       <use xlink:href="#m218bb719e0" x="90" y="160.737103" style="stroke: #000000; stroke-width: 0.8"/>
      </g>
     </g>
     <g id="text_10">
      <!-- 0.005 -->
      <g transform="translate(54.371875 164.536322) scale(0.1 -0.1)">
       <defs>
        <path id="DejaVuSans-35" d="M 691 4666 
L 3169 4666 
L 3169 4134 
L 1269 4134 
L 1269 2991 
Q 1406 3038 1543 3061 
Q 1681 3084 1819 3084 
Q 2600 3084 3056 2656 
Q 3513 2228 3513 1497 
Q 3513 744 3044 326 
Q 2575 -91 1722 -91 
Q 1428 -91 1123 -41 
Q 819 9 494 109 
L 494 744 
Q 775 591 1075 516 
Q 1375 441 1709 441 
Q 2250 441 2565 725 
Q 2881 1009 2881 1497 
Q 2881 1984 2565 2268 
Q 2250 2553 1709 2553 
Q 1456 2553 1204 2497 
Q 953 2441 691 2322 
L 691 4666 
z
" transform="scale(0.015625)"/>
       </defs>
       <use xlink:href="#DejaVuSans-30"/>
       <use xlink:href="#DejaVuSans-2e" x="63.623047"/>
       <use xlink:href="#DejaVuSans-30" x="95.410156"/>
       <use xlink:href="#DejaVuSans-30" x="159.033203"/>
       <use xlink:href="#DejaVuSans-35" x="222.65625"/>
      </g>
     </g>
    </g>
    <g id="ytick_3">
     <g id="line2d_12">
      <g>
       <use xlink:href="#m218bb719e0" x="90" y="129.234206" style="stroke: #000000; stroke-width: 0.8"/>
      </g>
     </g>
     <g id="text_11">
      <!-- 0.010 -->
      <g transform="translate(54.371875 133.033424) scale(0.1 -0.1)">
       <use xlink:href="#DejaVuSans-30"/>
       <use xlink:href="#DejaVuSans-2e" x="63.623047"/>
       <use xlink:href="#DejaVuSans-30" x="95.410156"/>
       <use xlink:href="#DejaVuSans-31" x="159.033203"/>
       <use xlink:href="#DejaVuSans-30" x="222.65625"/>
      </g>
     </g>
    </g>
    <g id="ytick_4">
     <g id="line2d_13">
      <g>
       <use xlink:href="#m218bb719e0" x="90" y="97.731308" style="stroke: #000000; stroke-width: 0.8"/>
      </g>
     </g>
     <g id="text_12">
      <!-- 0.015 -->
      <g transform="translate(54.371875 101.530527) scale(0.1 -0.1)">
       <use xlink:href="#DejaVuSans-30"/>
       <use xlink:href="#DejaVuSans-2e" x="63.623047"/>
       <use xlink:href="#DejaVuSans-30" x="95.410156"/>
       <use xlink:href="#DejaVuSans-31" x="159.033203"/>
       <use xlink:href="#DejaVuSans-35" x="222.65625"/>
      </g>
     </g>
    </g>
    <g id="ytick_5">
     <g id="line2d_14">
      <g>
       <use xlink:href="#m218bb719e0" x="90" y="66.228411" style="stroke: #000000; stroke-width: 0.8"/>
      </g>
     </g>
     <g id="text_13">
      <!-- 0.020 -->
      <g transform="translate(54.371875 70.02763) scale(0.1 -0.1)">
       <use xlink:href="#DejaVuSans-30"/>
       <use xlink:href="#DejaVuSans-2e" x="63.623047"/>
       <use xlink:href="#DejaVuSans-30" x="95.410156"/>
       <use xlink:href="#DejaVuSans-32" x="159.033203"/>
       <use xlink:href="#DejaVuSans-30" x="222.65625"/>
      </g>
     </g>
    </g>
    <g id="ytick_6">
     <g id="line2d_15">
      <g>
       <use xlink:href="#m218bb719e0" x="90" y="34.725514" style="stroke: #000000; stroke-width: 0.8"/>
      </g>
     </g>
     <g id="text_14">
      <!-- 0.025 -->
      <g transform="translate(54.371875 38.524733) scale(0.1 -0.1)">
       <use xlink:href="#DejaVuSans-30"/>
       <use xlink:href="#DejaVuSans-2e" x="63.623047"/>
       <use xlink:href="#DejaVuSans-30" x="95.410156"/>
       <use xlink:href="#DejaVuSans-32" x="159.033203"/>
       <use xlink:href="#DejaVuSans-35" x="222.65625"/>
      </g>
     </g>
    </g>
   </g>
  </g>
 </g>
 <defs>
  <clipPath id="p7c14b29d54">
   <rect x="90" y="25.92" width="558" height="166.32"/>
  </clipPath>
 </defs>
</svg>
