<?xml version="1.0" encoding="utf-8" standalone="no"?>
<!DOCTYPE svg PUBLIC "-//W3C//DTD SVG 1.1//EN"
  "http://www.w3.org/Graphics/SVG/1.1/DTD/svg11.dtd">
<svg xmlns:xlink="http://www.w3.org/1999/xlink" width="720pt" height="216pt" viewBox="0 0 720 216" xmlns="http://www.w3.org/2000/svg" version="1.1">
 <metadata>
  <rdf:RDF xmlns:dc="http://purl.org/dc/elements/1.1/" xmlns:cc="http://creativecommons.org/ns#" xmlns:rdf="http://www.w3.org/1999/02/22-rdf-syntax-ns#">
   <cc:Work>
    <dc:type rdf:resource="http://purl.org/dc/dcmitype/StillImage"/>
    <dc:date>2024-11-23T04:40:13.836766</dc:date>
    <dc:format>image/svg+xml</dc:format>
    <dc:creator>
     <cc:Agent>
      <dc:title>Matplotlib v3.7.2, https://matplotlib.org/</dc:title>
     </cc:Agent>
    </dc:creator>
   </cc:Work>
  </rdf:RDF>
 </metadata>
 <defs>
  <style type="text/css">*{stroke-linejoin: round; stroke-linecap: butt}</style>
 </defs>
 <g id="figure_1">
  <g id="patch_1">
   <path d="M 0 216 
L 720 216 
L 720 0 
L 0 0 
z
" style="fill: #ffffff"/>
  </g>
  <g id="axes_1">
   <g id="patch_2">
    <path d="M 90 192.24 
L 648 192.24 
L 648 25.92 
L 90 25.92 
z
" style="fill: #ffffff"/>
   </g>
   <g id="line2d_1">
    <path d="M 90 192.24 
L 648 192.24 
" clip-path="url(#p1c632834f6)" style="fill: none; stroke: #000000; stroke-width: 0.5; stroke-linecap: square"/>
   </g>
   <g id="patch_3">
    <path d="M 90 190.690809 
L 119.532033 190.690809 
L 119.532033 190.992945 
L 108.907369 190.992945 
L 108.907369 192.24 
L 100.645268 192.24 
L 100.645268 190.992945 
L 90 190.992945 
L 90 190.690809 
z
" clip-path="url(#p1c632834f6)" style="fill: #ff0000"/>
   </g>
   <g id="patch_4">
    <path d="M 119.532033 190.36174 
Q 116.55368 190.526275 113.350294 190.608918 
Q 110.146909 190.690809 106.73173 190.690809 
Q 99.014484 190.690809 94.507242 190.200963 
Q 90 189.711116 90 188.873418 
Q 90 188.025953 94.586665 187.539862 
Q 99.179949 187.053772 107.168556 187.053772 
Q 110.246188 187.053772 113.065696 187.119886 
Q 115.891823 187.185249 118.39364 187.314473 
L 118.39364 188.039476 
Q 115.8124 187.873439 113.257635 187.791547 
Q 110.702869 187.708904 108.134866 187.708904 
Q 103.382737 187.708904 100.808115 188.010927 
Q 98.233494 188.312197 98.233494 188.873418 
Q 98.233494 189.429379 100.715455 189.732903 
Q 103.197417 190.035677 107.764226 190.035677 
Q 109.008516 190.035677 110.074105 190.018397 
Q 111.139694 190.000366 111.98687 189.962801 
L 111.98687 189.282124 
L 107.122226 189.282124 
L 107.122226 188.675826 
L 119.532033 188.675826 
L 119.532033 190.36174 
z
" clip-path="url(#p1c632834f6)" style="fill: #ffa600"/>
   </g>
   <g id="patch_5">
    <path d="M 119.532033 186.519491 
Q 117.06173 186.784322 114.390528 186.918277 
Q 111.719326 187.053772 108.810023 187.053772 
Q 100.134197 187.053772 95.067099 186.049877 
Q 90 185.045983 90 183.3292 
Q 90 181.606258 95.067099 180.603903 
Q 100.134197 179.600009 108.810023 179.600009 
Q 111.719326 179.600009 114.390528 179.735504 
Q 117.06173 179.869459 119.532033 180.13429 
L 119.532033 181.620115 
Q 117.039408 181.26906 114.621189 181.10585 
Q 112.20297 180.942641 109.531768 180.942641 
Q 104.739974 180.942641 101.994366 181.578543 
Q 99.256198 182.212906 99.256198 183.3292 
Q 99.256198 184.440875 101.994366 185.076777 
Q 104.739974 185.71114 109.531768 185.71114 
Q 112.20297 185.71114 114.621189 185.54793 
Q 117.039408 185.38318 119.532033 185.032125 
L 119.532033 186.519491 
z
" clip-path="url(#p1c632834f6)" style="fill: #0000ff"/>
   </g>
   <g id="patch_6">
    <path d="M 121.086351 191.446558 
L 150.618384 191.446558 
L 150.618384 191.601301 
L 139.99372 191.601301 
L 139.99372 192.24 
L 131.731619 192.24 
L 131.731619 191.601301 
L 121.086351 191.601301 
L 121.086351 191.446558 
z
" clip-path="url(#p1c632834f6)" style="fill: #ff0000"/>
   </g>
   <g id="patch_7">
    <path d="M 150.618384 191.230664 
Q 147.640031 191.338611 144.436645 191.392831 
Q 141.23326 191.446558 137.818081 191.446558 
Q 130.100835 191.446558 125.593593 191.125182 
Q 121.086351 190.803806 121.086351 190.254214 
Q 121.086351 189.698214 125.673016 189.379303 
Q 130.2663 189.060391 138.254906 189.060391 
Q 141.332539 189.060391 144.152047 189.103767 
Q 146.978174 189.14665 149.479991 189.23143 
L 149.479991 189.707086 
Q 146.898751 189.598154 144.343986 189.544427 
Q 141.78922 189.490207 139.221217 189.490207 
Q 134.469088 189.490207 131.894466 189.688356 
Q 129.319845 189.886012 129.319845 190.254214 
Q 129.319845 190.618966 131.801806 190.818101 
Q 134.283768 191.016742 138.850577 191.016742 
Q 140.094867 191.016742 141.160456 191.005406 
Q 142.226045 190.993576 143.073221 190.96893 
L 143.073221 190.522356 
L 138.208577 190.522356 
L 138.208577 190.124579 
L 150.618384 190.124579 
L 150.618384 191.230664 
z
" clip-path="url(#p1c632834f6)" style="fill: #ffa600"/>
   </g>
   <g id="patch_8">
    <path d="M 141.543216 186.88452 
L 130.185671 186.88452 
L 128.392374 189.060391 
L 121.086351 189.060391 
L 131.520077 177.116135 
L 140.184658 177.116135 
L 150.618384 189.060391 
L 143.318399 189.060391 
L 141.543216 186.88452 
z
M 131.997082 184.66769 
L 139.713692 184.66769 
L 135.861425 179.91661 
L 131.997082 184.66769 
z
" clip-path="url(#p1c632834f6)" style="fill: #008000"/>
   </g>
   <g id="patch_9">
    <path d="M 152.172702 191.600688 
L 181.704735 191.600688 
L 181.704735 191.725372 
L 171.080071 191.725372 
L 171.080071 192.24 
L 162.81797 192.24 
L 162.81797 191.725372 
L 152.172702 191.725372 
L 152.172702 191.600688 
z
" clip-path="url(#p1c632834f6)" style="fill: #ff0000"/>
   </g>
   <g id="patch_10">
    <path d="M 181.704735 191.216279 
Q 178.726381 191.408484 175.522996 191.505025 
Q 172.319611 191.600688 168.904432 191.600688 
Q 161.187186 191.600688 156.679944 191.028462 
Q 152.172702 190.456236 152.172702 189.477659 
Q 152.172702 188.487673 156.759367 187.919835 
Q 161.35265 187.351997 169.341257 187.351997 
Q 172.41889 187.351997 175.238398 187.42923 
Q 178.064525 187.505585 180.566342 187.65654 
L 180.566342 188.50347 
Q 177.985102 188.30951 175.430337 188.213847 
Q 172.875571 188.117305 170.307568 188.117305 
Q 165.555439 188.117305 162.980817 188.47012 
Q 160.406196 188.822056 160.406196 189.477659 
Q 160.406196 190.127118 162.888157 190.481688 
Q 165.370119 190.83538 169.936928 190.83538 
Q 171.181218 190.83538 172.246807 190.815194 
Q 173.312396 190.79413 174.159572 190.750248 
L 174.159572 189.955099 
L 169.294928 189.955099 
L 169.294928 189.246838 
L 181.704735 189.246838 
L 181.704735 191.216279 
z
" clip-path="url(#p1c632834f6)" style="fill: #ffa600"/>
   </g>
   <g id="patch_11">
    <path d="M 181.704735 186.748821 
Q 179.234432 187.047801 176.56323 187.19903 
Q 173.892028 187.351997 170.982725 187.351997 
Q 162.306899 187.351997 157.239801 186.218652 
Q 152.172702 185.085307 152.172702 183.147148 
Q 152.172702 181.202037 157.239801 180.07043 
Q 162.306899 178.937085 170.982725 178.937085 
Q 173.892028 178.937085 176.56323 179.090052 
Q 179.234432 179.241281 181.704735 179.540261 
L 181.704735 181.217681 
Q 179.21211 180.821358 176.793891 180.637102 
Q 174.375672 180.452847 171.70447 180.452847 
Q 166.912676 180.452847 164.167068 181.170748 
Q 161.4289 181.886911 161.4289 183.147148 
Q 161.4289 184.402171 164.167068 185.120072 
Q 166.912676 185.836235 171.70447 185.836235 
Q 174.375672 185.836235 176.793891 185.65198 
Q 179.21211 185.465986 181.704735 185.069663 
L 181.704735 186.748821 
z
" clip-path="url(#p1c632834f6)" style="fill: #0000ff"/>
   </g>
   <g id="patch_12">
    <path d="M 212.791086 191.415303 
Q 210.320783 191.824087 207.649581 192.030855 
Q 204.978379 192.24 202.069076 192.24 
Q 193.39325 192.24 188.326152 190.690426 
Q 183.259053 189.140852 183.259053 186.49089 
Q 183.259053 183.831422 188.326152 182.284224 
Q 193.39325 180.73465 202.069076 180.73465 
Q 204.978379 180.73465 207.649581 180.943795 
Q 210.320783 181.150563 212.791086 181.559347 
L 212.791086 183.852811 
Q 210.298461 183.310936 207.880242 183.059011 
Q 205.462023 182.807087 202.790821 182.807087 
Q 197.999027 182.807087 195.253419 183.788642 
Q 192.515251 184.767821 192.515251 186.49089 
Q 192.515251 188.206829 195.253419 189.188385 
Q 197.999027 190.167563 202.790821 190.167563 
Q 205.462023 190.167563 207.880242 189.915639 
Q 210.298461 189.661338 212.791086 189.119462 
L 212.791086 191.415303 
z
" clip-path="url(#p1c632834f6)" style="fill: #0000ff"/>
   </g>
   <g id="patch_13">
    <path d="M 183.259053 162.834247 
L 212.791086 162.834247 
L 212.791086 166.325324 
L 202.166422 166.325324 
L 202.166422 180.73465 
L 193.904321 180.73465 
L 193.904321 166.325324 
L 183.259053 166.325324 
L 183.259053 162.834247 
z
" clip-path="url(#p1c632834f6)" style="fill: #ff0000"/>
   </g>
   <g id="patch_14">
    <path d="M 243.877437 192.223702 
Q 241.407134 192.231781 238.735932 192.235867 
Q 236.06473 192.24 233.155427 192.24 
Q 224.479601 192.24 219.412503 192.209377 
Q 214.345404 192.178754 214.345404 192.126384 
Q 214.345404 192.073827 219.412503 192.04325 
Q 224.479601 192.012627 233.155427 192.012627 
Q 236.06473 192.012627 238.735932 192.01676 
Q 241.407134 192.020847 243.877437 192.028925 
L 243.877437 192.074249 
Q 241.384812 192.063541 238.966593 192.058562 
Q 236.548374 192.053583 233.877172 192.053583 
Q 229.085378 192.053583 226.33977 192.072981 
Q 223.601602 192.092332 223.601602 192.126384 
Q 223.601602 192.160295 226.33977 192.179693 
Q 229.085378 192.199044 233.877172 192.199044 
Q 236.548374 192.199044 238.966593 192.194065 
Q 241.384812 192.18904 243.877437 192.178331 
L 243.877437 192.223702 
z
" clip-path="url(#p1c632834f6)" style="fill: #0000ff"/>
   </g>
   <g id="patch_15">
    <path d="M 234.802269 191.477708 
L 223.444724 191.477708 
L 221.651427 192.012627 
L 214.345404 192.012627 
L 224.77913 189.076234 
L 233.443711 189.076234 
L 243.877437 192.012627 
L 236.577452 192.012627 
L 234.802269 191.477708 
z
M 225.256135 190.932719 
L 232.972745 190.932719 
L 229.120478 189.764707 
L 225.256135 190.932719 
z
" clip-path="url(#p1c632834f6)" style="fill: #008000"/>
   </g>
   <g id="patch_16">
    <path d="M 243.877437 179.569923 
Q 240.899083 184.323079 237.695698 186.710508 
Q 234.492313 189.076234 231.077134 189.076234 
Q 223.359888 189.076234 218.852646 174.925288 
Q 214.345404 160.774341 214.345404 136.574487 
Q 214.345404 112.092481 218.932069 98.050055 
Q 223.525352 84.007628 231.513959 84.007628 
Q 234.591592 84.007628 237.4111 85.917571 
Q 240.237227 87.805811 242.739044 91.538883 
L 242.739044 112.483152 
Q 240.157804 107.686589 237.603038 105.320863 
Q 235.048273 102.933433 232.48027 102.933433 
Q 227.728141 102.933433 225.153519 111.658403 
Q 222.578898 120.361669 222.578898 136.574487 
Q 222.578898 152.635377 225.060859 161.403755 
Q 227.542821 170.150428 232.10963 170.150428 
Q 233.35392 170.150428 234.419509 169.651239 
Q 235.485098 169.130345 236.332274 168.04515 
L 236.332274 148.381411 
L 231.467629 148.381411 
L 231.467629 130.86636 
L 243.877437 130.86636 
L 243.877437 179.569923 
z
" clip-path="url(#p1c632834f6)" style="fill: #ffa600"/>
   </g>
   <g id="patch_17">
    <path d="M 245.431755 191.870815 
L 274.963788 191.870815 
L 274.963788 191.942817 
L 264.339124 191.942817 
L 264.339124 192.24 
L 256.077023 192.24 
L 256.077023 191.942817 
L 245.431755 191.942817 
L 245.431755 191.870815 
z
" clip-path="url(#p1c632834f6)" style="fill: #ff0000"/>
   </g>
   <g id="patch_18">
    <path d="M 274.963788 184.476782 
Q 272.493485 188.141836 269.822283 189.995671 
Q 267.151081 191.870815 264.241778 191.870815 
Q 255.565952 191.870815 250.498854 177.977705 
Q 245.431755 164.084594 245.431755 140.32567 
Q 245.431755 116.481512 250.498854 102.60971 
Q 255.565952 88.7166 264.241778 88.7166 
Q 267.151081 88.7166 269.822283 90.591743 
Q 272.493485 92.445579 274.963788 96.110632 
L 274.963788 116.673289 
Q 272.471163 111.814962 270.052944 109.556266 
Q 267.634725 107.29757 264.963523 107.29757 
Q 260.171729 107.29757 257.426121 116.09796 
Q 254.687953 124.877043 254.687953 140.32567 
Q 254.687953 155.710372 257.426121 164.510763 
Q 260.171729 173.289845 264.963523 173.289845 
Q 267.634725 173.289845 270.052944 171.031149 
Q 272.471163 168.751145 274.963788 163.892818 
L 274.963788 184.476782 
z
" clip-path="url(#p1c632834f6)" style="fill: #0000ff"/>
   </g>
   <g id="patch_19">
    <path d="M 306.050139 192.229445 
Q 303.579836 192.234677 300.908634 192.237323 
Q 298.237432 192.24 295.328129 192.24 
Q 286.652303 192.24 281.585205 192.220167 
Q 276.518106 192.200335 276.518106 192.166419 
Q 276.518106 192.132381 281.585205 192.112578 
Q 286.652303 192.092746 295.328129 192.092746 
Q 298.237432 192.092746 300.908634 192.095423 
Q 303.579836 192.098069 306.050139 192.103301 
L 306.050139 192.132654 
Q 303.557514 192.125719 301.139295 192.122495 
Q 298.721076 192.11927 296.049874 192.11927 
Q 291.25808 192.11927 288.512472 192.131833 
Q 285.774304 192.144365 285.774304 192.166419 
Q 285.774304 192.18838 288.512472 192.200943 
Q 291.25808 192.213475 296.049874 192.213475 
Q 298.721076 192.213475 301.139295 192.210251 
Q 303.557514 192.206996 306.050139 192.200061 
L 306.050139 192.229445 
z
" clip-path="url(#p1c632834f6)" style="fill: #0000ff"/>
   </g>
   <g id="patch_20">
    <path d="M 306.050139 180.288084 
Q 303.071785 186.190415 299.8684 189.155056 
Q 296.665015 192.092746 293.249836 192.092746 
Q 285.53259 192.092746 281.025348 174.520509 
Q 276.518106 156.948273 276.518106 126.897592 
Q 276.518106 96.496545 281.104771 79.059065 
Q 285.698054 61.621584 293.686661 61.621584 
Q 296.764294 61.621584 299.583802 63.993297 
Q 302.409929 66.338059 304.911746 70.97368 
L 304.911746 96.981668 
Q 302.330506 91.025434 299.77574 88.087744 
Q 297.220975 85.123103 294.652972 85.123103 
Q 289.900843 85.123103 287.326221 95.957519 
Q 284.7516 106.764984 284.7516 126.897592 
Q 284.7516 146.841542 287.233561 157.72986 
Q 289.715523 168.591227 294.282332 168.591227 
Q 295.526622 168.591227 296.592211 167.971347 
Q 297.6578 167.324517 298.504976 165.976952 
L 298.504976 141.55909 
L 293.640331 141.55909 
L 293.640331 119.809405 
L 306.050139 119.809405 
L 306.050139 180.288084 
z
" clip-path="url(#p1c632834f6)" style="fill: #ffa600"/>
   </g>
   <g id="patch_21">
    <path d="M 337.13649 192.190478 
Q 334.158136 192.215239 330.954751 192.227676 
Q 327.751366 192.24 324.336187 192.24 
Q 316.618941 192.24 312.111699 192.166283 
Q 307.604457 192.092565 307.604457 191.966499 
Q 307.604457 191.838964 312.191122 191.765811 
Q 316.784405 191.692659 324.773012 191.692659 
Q 327.850645 191.692659 330.670153 191.702609 
Q 333.49628 191.712445 335.998097 191.731892 
L 335.998097 191.840999 
Q 333.416857 191.816012 330.862091 191.803688 
Q 328.307326 191.791251 325.739323 191.791251 
Q 320.987194 191.791251 318.412572 191.836702 
Q 315.837951 191.882041 315.837951 191.966499 
Q 315.837951 192.050166 318.319912 192.095844 
Q 320.801874 192.141409 325.368683 192.141409 
Q 326.612973 192.141409 327.678562 192.138808 
Q 328.744151 192.136095 329.591327 192.130441 
L 329.591327 192.028006 
L 324.726682 192.028006 
L 324.726682 191.936764 
L 337.13649 191.936764 
L 337.13649 192.190478 
z
" clip-path="url(#p1c632834f6)" style="fill: #ffa600"/>
   </g>
   <g id="patch_22">
    <path d="M 307.604457 191.047545 
L 337.13649 191.047545 
L 337.13649 191.173361 
L 326.511826 191.173361 
L 326.511826 191.692659 
L 318.249725 191.692659 
L 318.249725 191.173361 
L 307.604457 191.173361 
L 307.604457 191.047545 
z
" clip-path="url(#p1c632834f6)" style="fill: #ff0000"/>
   </g>
   <g id="patch_23">
    <path d="M 328.061322 190.843986 
L 316.703777 190.843986 
L 314.91048 191.047545 
L 307.604457 191.047545 
L 318.038183 189.930124 
L 326.702764 189.930124 
L 337.13649 191.047545 
L 329.836505 191.047545 
L 328.061322 190.843986 
z
M 318.515188 190.636595 
L 326.231797 190.636595 
L 322.379531 190.192117 
L 318.515188 190.636595 
z
" clip-path="url(#p1c632834f6)" style="fill: #008000"/>
   </g>
   <g id="patch_24">
    <path d="M 337.13649 182.07818 
Q 334.666187 185.97021 331.994985 187.938853 
Q 329.323783 189.930124 326.41448 189.930124 
Q 317.738654 189.930124 312.671556 175.176616 
Q 307.604457 160.423107 307.604457 135.192797 
Q 307.604457 109.871974 312.671556 95.141093 
Q 317.738654 80.387585 326.41448 80.387585 
Q 329.323783 80.387585 331.994985 82.378856 
Q 334.666187 84.347499 337.13649 88.239529 
L 337.13649 110.075627 
Q 334.643865 104.916424 332.225646 102.517848 
Q 329.807427 100.119271 327.136225 100.119271 
Q 322.344431 100.119271 319.598823 109.464669 
Q 316.860655 118.787438 316.860655 135.192797 
Q 316.860655 151.530271 319.598823 160.875668 
Q 322.344431 170.198438 327.136225 170.198438 
Q 329.807427 170.198438 332.225646 167.799861 
Q 334.643865 165.378657 337.13649 160.219454 
L 337.13649 182.07818 
z
" clip-path="url(#p1c632834f6)" style="fill: #0000ff"/>
   </g>
   <g id="patch_25">
    <path d="M 359.147673 185.090481 
L 347.790128 185.090481 
L 345.996831 192.24 
L 338.690808 192.24 
L 349.124534 152.993345 
L 357.789115 152.993345 
L 368.222841 192.24 
L 360.922856 192.24 
L 359.147673 185.090481 
z
M 349.601539 177.806382 
L 357.318148 177.806382 
L 353.465882 162.195197 
L 349.601539 177.806382 
z
" clip-path="url(#p1c632834f6)" style="fill: #008000"/>
   </g>
   <g id="patch_26">
    <path d="M 390.234024 192.184582 
L 378.876479 192.184582 
L 377.083182 192.24 
L 369.777159 192.24 
L 380.210885 191.93579 
L 388.875466 191.93579 
L 399.309192 192.24 
L 392.009207 192.24 
L 390.234024 192.184582 
z
M 380.68789 192.128121 
L 388.404499 192.128121 
L 384.552233 192.007115 
L 380.68789 192.128121 
z
" clip-path="url(#p1c632834f6)" style="fill: #008000"/>
   </g>
   <g id="patch_27">
    <path d="M 399.309192 191.88951 
Q 396.838889 191.91245 394.167687 191.924053 
Q 391.496485 191.93579 388.587182 191.93579 
Q 379.911356 191.93579 374.844257 191.848832 
Q 369.777159 191.761874 369.777159 191.613166 
Q 369.777159 191.463924 374.844257 191.377099 
Q 379.911356 191.290142 388.587182 191.290142 
Q 391.496485 191.290142 394.167687 191.301878 
Q 396.838889 191.313482 399.309192 191.336421 
L 399.309192 191.465124 
Q 396.816567 191.434716 394.398348 191.420578 
Q 391.980129 191.406441 389.308927 191.406441 
Q 384.517133 191.406441 381.771525 191.461523 
Q 379.033357 191.516472 379.033357 191.613166 
Q 379.033357 191.709459 381.771525 191.764541 
Q 384.517133 191.81949 389.308927 191.81949 
Q 391.980129 191.81949 394.398348 191.805353 
Q 396.816567 191.791082 399.309192 191.760674 
L 399.309192 191.88951 
z
" clip-path="url(#p1c632834f6)" style="fill: #0000ff"/>
   </g>
   <g id="patch_28">
    <path d="M 399.309192 191.216138 
Q 396.330838 191.25314 393.127453 191.271725 
Q 389.924068 191.290142 386.508889 191.290142 
Q 378.791643 191.290142 374.284401 191.179981 
Q 369.777159 191.069821 369.777159 190.881433 
Q 369.777159 190.690848 374.363824 190.581532 
Q 378.957107 190.472217 386.945714 190.472217 
Q 390.023347 190.472217 392.842855 190.487085 
Q 395.668982 190.501784 398.170799 190.530845 
L 398.170799 190.693889 
Q 395.589559 190.65655 393.034793 190.638133 
Q 390.480028 190.619548 387.912025 190.619548 
Q 383.159896 190.619548 380.585274 190.687469 
Q 378.010653 190.755221 378.010653 190.881433 
Q 378.010653 191.006461 380.492614 191.07472 
Q 382.974576 191.14281 387.541385 191.14281 
Q 388.785675 191.14281 389.851264 191.138924 
Q 390.916853 191.134869 391.764029 191.126421 
L 391.764029 190.973346 
L 386.899384 190.973346 
L 386.899384 190.836997 
L 399.309192 190.836997 
L 399.309192 191.216138 
z
" clip-path="url(#p1c632834f6)" style="fill: #ffa600"/>
   </g>
   <g id="patch_29">
    <path d="M 369.777159 91.649389 
L 399.309192 91.649389 
L 399.309192 110.922593 
L 388.684528 110.922593 
L 388.684528 190.472217 
L 380.422427 190.472217 
L 380.422427 110.922593 
L 369.777159 110.922593 
L 369.777159 91.649389 
z
" clip-path="url(#p1c632834f6)" style="fill: #ff0000"/>
   </g>
   <g id="patch_30">
    <path d="M 430.395543 192.23169 
Q 427.92524 192.235809 425.254038 192.237893 
Q 422.582836 192.24 419.673533 192.24 
Q 410.997707 192.24 405.930608 192.224386 
Q 400.86351 192.208773 400.86351 192.182072 
Q 400.86351 192.155275 405.930608 192.139685 
Q 410.997707 192.124072 419.673533 192.124072 
Q 422.582836 192.124072 425.254038 192.126179 
Q 427.92524 192.128262 430.395543 192.132381 
L 430.395543 192.15549 
Q 427.902918 192.15003 425.484699 192.147492 
Q 423.06648 192.144954 420.395278 192.144954 
Q 415.603484 192.144954 412.857876 192.154844 
Q 410.119708 192.16471 410.119708 192.182072 
Q 410.119708 192.199362 412.857876 192.209252 
Q 415.603484 192.219118 420.395278 192.219118 
Q 423.06648 192.219118 425.484699 192.21658 
Q 427.902918 192.214017 430.395543 192.208557 
L 430.395543 192.23169 
z
" clip-path="url(#p1c632834f6)" style="fill: #0000ff"/>
   </g>
   <g id="patch_31">
    <path d="M 421.320375 192.075088 
L 409.96283 192.075088 
L 408.169533 192.124072 
L 400.86351 192.124072 
L 411.297236 191.855181 
L 419.961817 191.855181 
L 430.395543 192.124072 
L 423.095558 192.124072 
L 421.320375 192.075088 
z
M 411.774241 192.025182 
L 419.49085 192.025182 
L 415.638584 191.918225 
L 411.774241 192.025182 
z
" clip-path="url(#p1c632834f6)" style="fill: #008000"/>
   </g>
   <g id="patch_32">
    <path d="M 430.395543 178.647966 
Q 427.417189 185.251573 424.213804 188.568454 
Q 421.010419 191.855181 417.59524 191.855181 
Q 409.877994 191.855181 405.370752 172.195126 
Q 400.86351 152.535072 400.86351 118.913966 
Q 400.86351 84.900866 405.450175 65.391578 
Q 410.043458 45.882291 418.032065 45.882291 
Q 421.109698 45.882291 423.929206 48.535796 
Q 426.755333 51.159146 429.25715 56.345541 
L 429.25715 85.443628 
Q 426.67591 78.779714 424.121144 75.492987 
Q 421.566379 72.176106 418.998376 72.176106 
Q 414.246247 72.176106 411.671625 84.297797 
Q 409.097004 96.389333 409.097004 118.913966 
Q 409.097004 141.227525 411.578965 153.409522 
Q 414.060927 165.561365 418.627736 165.561365 
Q 419.872026 165.561365 420.937615 164.867836 
Q 422.003204 164.144153 422.85038 162.63648 
L 422.85038 135.317447 
L 417.985735 135.317447 
L 417.985735 110.983607 
L 430.395543 110.983607 
L 430.395543 178.647966 
z
" clip-path="url(#p1c632834f6)" style="fill: #ffa600"/>
   </g>
   <g id="patch_33">
    <path d="M 452.406726 192.211009 
L 441.049181 192.211009 
L 439.255884 192.24 
L 431.949861 192.24 
L 442.383587 192.080856 
L 451.048168 192.080856 
L 461.481894 192.24 
L 454.181909 192.24 
L 452.406726 192.211009 
z
M 442.860592 192.181472 
L 450.577201 192.181472 
L 446.724934 192.118169 
L 442.860592 192.181472 
z
" clip-path="url(#p1c632834f6)" style="fill: #008000"/>
   </g>
   <g id="patch_34">
    <path d="M 431.949861 191.605357 
L 461.481894 191.605357 
L 461.481894 191.698092 
L 450.85723 191.698092 
L 450.85723 192.080856 
L 442.595129 192.080856 
L 442.595129 191.698092 
L 431.949861 191.698092 
L 431.949861 191.605357 
z
" clip-path="url(#p1c632834f6)" style="fill: #ff0000"/>
   </g>
   <g id="patch_35">
    <path d="M 461.481894 179.729129 
Q 459.011591 185.615905 456.340389 188.593518 
Q 453.669187 191.605357 450.759884 191.605357 
Q 442.084058 191.605357 437.016959 169.29037 
Q 431.949861 146.975382 431.949861 108.814017 
Q 431.949861 70.515749 437.016959 48.234987 
Q 442.084058 25.92 450.759884 25.92 
Q 453.669187 25.92 456.340389 28.931839 
Q 459.011591 31.909452 461.481894 37.796228 
L 461.481894 70.823778 
Q 458.989269 63.020377 456.57105 59.392481 
Q 454.152831 55.764584 451.481629 55.764584 
Q 446.689835 55.764584 443.944227 69.899691 
Q 441.206059 84.000572 441.206059 108.814017 
Q 441.206059 133.524784 443.944227 147.659891 
Q 446.689835 161.760773 451.481629 161.760773 
Q 454.152831 161.760773 456.57105 158.132876 
Q 458.989269 154.470754 461.481894 146.667354 
L 461.481894 179.729129 
z
" clip-path="url(#p1c632834f6)" style="fill: #0000ff"/>
   </g>
   <g id="patch_36">
    <path d="M 492.568245 192.227133 
Q 490.097941 192.233511 487.42674 192.236737 
Q 484.755538 192.24 481.846235 192.24 
Q 473.170409 192.24 468.10331 192.215824 
Q 463.036212 192.191648 463.036212 192.150304 
Q 463.036212 192.108811 468.10331 192.084672 
Q 473.170409 192.060496 481.846235 192.060496 
Q 484.755538 192.060496 487.42674 192.063759 
Q 490.097941 192.066985 492.568245 192.073363 
L 492.568245 192.109145 
Q 490.075619 192.100691 487.657401 192.096761 
Q 485.239182 192.09283 482.56798 192.09283 
Q 477.776186 192.09283 475.030578 192.108144 
Q 472.29241 192.123421 472.29241 192.150304 
Q 472.29241 192.177075 475.030578 192.192389 
Q 477.776186 192.207666 482.56798 192.207666 
Q 485.239182 192.207666 487.657401 192.203736 
Q 490.075619 192.199768 492.568245 192.191314 
L 492.568245 192.227133 
z
" clip-path="url(#p1c632834f6)" style="fill: #0000ff"/>
   </g>
   <g id="patch_37">
    <path d="M 463.036212 191.827703 
L 492.568245 191.827703 
L 492.568245 191.873104 
L 481.943581 191.873104 
L 481.943581 192.060496 
L 473.68148 192.060496 
L 473.68148 191.873104 
L 463.036212 191.873104 
L 463.036212 191.827703 
z
" clip-path="url(#p1c632834f6)" style="fill: #ff0000"/>
   </g>
   <g id="patch_38">
    <path d="M 483.493077 191.722511 
L 472.135532 191.722511 
L 470.342235 191.827703 
L 463.036212 191.827703 
L 473.469938 191.250258 
L 482.134519 191.250258 
L 492.568245 191.827703 
L 485.26826 191.827703 
L 483.493077 191.722511 
z
M 473.946943 191.615338 
L 481.663552 191.615338 
L 477.811285 191.385647 
L 473.946943 191.615338 
z
" clip-path="url(#p1c632834f6)" style="fill: #008000"/>
   </g>
   <g id="patch_39">
    <path d="M 492.568245 178.566561 
Q 489.589891 184.90841 486.386506 188.093813 
Q 483.183121 191.250258 479.767942 191.250258 
Q 472.050696 191.250258 467.543454 172.369504 
Q 463.036212 153.488749 463.036212 121.200343 
Q 463.036212 88.535479 467.622877 69.799516 
Q 472.21616 51.063552 480.204767 51.063552 
Q 483.2824 51.063552 486.101908 53.611875 
Q 488.928035 56.131239 491.429852 61.112052 
L 491.429852 89.056727 
Q 488.848612 82.656962 486.293846 79.500517 
Q 483.73908 76.315113 481.171078 76.315113 
Q 476.418948 76.315113 473.844327 87.956315 
Q 471.269706 99.568558 471.269706 121.200343 
Q 471.269706 142.62942 473.751667 154.328537 
Q 476.233629 165.998697 480.800438 165.998697 
Q 482.044728 165.998697 483.110317 165.332658 
Q 484.175906 164.637661 485.023082 163.18975 
L 485.023082 136.95361 
L 480.158437 136.95361 
L 480.158437 113.584333 
L 492.568245 113.584333 
L 492.568245 178.566561 
z
" clip-path="url(#p1c632834f6)" style="fill: #ffa600"/>
   </g>
   <g id="patch_40">
    <path d="M 514.579428 192.23943 
L 503.221883 192.23943 
L 501.428586 192.24 
L 494.122563 192.24 
L 504.556289 192.236871 
L 513.22087 192.236871 
L 523.654596 192.24 
L 516.354611 192.24 
L 514.579428 192.23943 
z
M 505.033293 192.238849 
L 512.749903 192.238849 
L 508.897636 192.237604 
L 505.033293 192.238849 
z
" clip-path="url(#p1c632834f6)" style="fill: #008000"/>
   </g>
   <g id="patch_41">
    <path d="M 523.654596 192.202246 
Q 520.676242 192.219558 517.472857 192.228254 
Q 514.269472 192.236871 510.854293 192.236871 
Q 503.137047 192.236871 498.629805 192.185329 
Q 494.122563 192.133787 494.122563 192.045645 
Q 494.122563 191.956475 498.709228 191.905329 
Q 503.302511 191.854182 511.291118 191.854182 
Q 514.368751 191.854182 517.188259 191.861139 
Q 520.014386 191.868016 522.516203 191.881613 
L 522.516203 191.957898 
Q 519.934963 191.940427 517.380197 191.931811 
Q 514.825431 191.923115 512.257429 191.923115 
Q 507.505299 191.923115 504.930678 191.954894 
Q 502.356057 191.986593 502.356057 192.045645 
Q 502.356057 192.104143 504.838018 192.13608 
Q 507.31998 192.167938 511.886789 192.167938 
Q 513.131079 192.167938 514.196668 192.16612 
Q 515.262257 192.164222 516.109433 192.16027 
L 516.109433 192.088649 
L 511.244788 192.088649 
L 511.244788 192.024854 
L 523.654596 192.024854 
L 523.654596 192.202246 
z
" clip-path="url(#p1c632834f6)" style="fill: #ffa600"/>
   </g>
   <g id="patch_42">
    <path d="M 494.122563 188.745085 
L 523.654596 188.745085 
L 523.654596 189.351445 
L 513.029932 189.351445 
L 513.029932 191.854182 
L 504.767831 191.854182 
L 504.767831 189.351445 
L 494.122563 189.351445 
L 494.122563 188.745085 
z
" clip-path="url(#p1c632834f6)" style="fill: #ff0000"/>
   </g>
   <g id="patch_43">
    <path d="M 523.654596 179.706425 
Q 521.184292 184.186683 518.513091 186.45286 
Q 515.841889 188.745085 512.932585 188.745085 
Q 504.25676 188.745085 499.189661 171.761782 
Q 494.122563 154.778479 494.122563 125.734948 
Q 494.122563 96.587225 499.189661 79.62997 
Q 504.25676 62.646668 512.932585 62.646668 
Q 515.841889 62.646668 518.513091 64.938892 
Q 521.184292 67.205069 523.654596 71.685327 
L 523.654596 96.821657 
Q 521.16197 90.882711 518.743752 88.121621 
Q 516.325533 85.360532 513.654331 85.360532 
Q 508.862537 85.360532 506.116928 96.118361 
Q 503.378761 106.850141 503.378761 125.734948 
Q 503.378761 144.541611 506.116928 155.29944 
Q 508.862537 166.03122 513.654331 166.03122 
Q 516.325533 166.03122 518.743752 163.270131 
Q 521.16197 160.482994 523.654596 154.544047 
L 523.654596 179.706425 
z
" clip-path="url(#p1c632834f6)" style="fill: #0000ff"/>
   </g>
   <g id="patch_44">
    <path d="M 554.740947 191.376404 
Q 551.762593 191.808202 548.559208 192.025087 
Q 545.355823 192.24 541.940644 192.24 
Q 534.223398 192.24 529.716156 190.954465 
Q 525.208914 189.66893 525.208914 187.470507 
Q 525.208914 185.246452 529.795579 183.970775 
Q 534.388862 182.695098 542.377469 182.695098 
Q 545.455102 182.695098 548.27461 182.868606 
Q 551.100737 183.040142 553.602554 183.379271 
L 553.602554 185.281942 
Q 551.021314 184.846201 548.466548 184.631288 
Q 545.911782 184.414403 543.34378 184.414403 
Q 538.59165 184.414403 536.017029 185.207018 
Q 533.442408 185.997662 533.442408 187.470507 
Q 533.442408 188.92955 535.924369 189.726108 
Q 538.406331 190.520695 542.97314 190.520695 
Q 544.21743 190.520695 545.283019 190.475347 
Q 546.348608 190.428026 547.195784 190.329442 
L 547.195784 188.5431 
L 542.331139 188.5431 
L 542.331139 186.951955 
L 554.740947 186.951955 
L 554.740947 191.376404 
z
" clip-path="url(#p1c632834f6)" style="fill: #ffa600"/>
   </g>
   <g id="patch_45">
    <path d="M 545.665779 176.255574 
L 534.308234 176.255574 
L 532.514937 182.695098 
L 525.208914 182.695098 
L 535.64264 147.345899 
L 544.307221 147.345899 
L 554.740947 182.695098 
L 547.440962 182.695098 
L 545.665779 176.255574 
z
M 536.119644 169.694835 
L 543.836254 169.694835 
L 539.983987 155.633945 
L 536.119644 169.694835 
z
" clip-path="url(#p1c632834f6)" style="fill: #008000"/>
   </g>
   <g id="patch_46">
    <path d="M 576.75213 192.12199 
L 565.394585 192.12199 
L 563.601288 192.24 
L 556.295265 192.24 
L 566.728991 191.592197 
L 575.393572 191.592197 
L 585.827298 192.24 
L 578.527313 192.24 
L 576.75213 192.12199 
z
M 567.205995 192.001759 
L 574.922605 192.001759 
L 571.070338 191.744082 
L 567.205995 192.001759 
z
" clip-path="url(#p1c632834f6)" style="fill: #008000"/>
   </g>
   <g id="patch_47">
    <path d="M 585.827298 191.221183 
Q 583.356994 191.405086 580.685793 191.498107 
Q 578.014591 191.592197 575.105287 191.592197 
Q 566.429462 191.592197 561.362363 190.895076 
Q 556.295265 190.197956 556.295265 189.005795 
Q 556.295265 187.809357 561.362363 187.113306 
Q 566.429462 186.416186 575.105287 186.416186 
Q 578.014591 186.416186 580.685793 186.510276 
Q 583.356994 186.603296 585.827298 186.787199 
L 585.827298 187.81898 
Q 583.334672 187.575202 580.916453 187.461866 
Q 578.498235 187.348531 575.827033 187.348531 
Q 571.035239 187.348531 568.28963 187.790111 
Q 565.551463 188.230623 565.551463 189.005795 
Q 565.551463 189.777759 568.28963 190.21934 
Q 571.035239 190.659852 575.827033 190.659852 
Q 578.498235 190.659852 580.916453 190.546516 
Q 583.334672 190.432111 585.827298 190.188333 
L 585.827298 191.221183 
z
" clip-path="url(#p1c632834f6)" style="fill: #0000ff"/>
   </g>
   <g id="patch_48">
    <path d="M 585.827298 185.009145 
Q 582.848944 185.712666 579.645559 186.066032 
Q 576.442174 186.416186 573.026995 186.416186 
Q 565.309749 186.416186 560.802507 184.321687 
Q 556.295265 182.227189 556.295265 178.645339 
Q 556.295265 175.021729 560.88193 172.943292 
Q 565.475213 170.864856 573.46382 170.864856 
Q 576.541452 170.864856 579.360961 171.147549 
Q 582.187088 171.42703 584.688905 171.979566 
L 584.688905 175.079552 
Q 582.107665 174.369607 579.552899 174.019453 
Q 576.998133 173.666087 574.430131 173.666087 
Q 569.678001 173.666087 567.10338 174.95748 
Q 564.528758 176.245661 564.528758 178.645339 
Q 564.528758 181.022531 567.01072 182.320349 
Q 569.492682 183.614955 574.059491 183.614955 
Q 575.303781 183.614955 576.36937 183.541069 
Q 577.434959 183.463971 578.282135 183.30335 
L 578.282135 180.392896 
L 573.41749 180.392896 
L 573.41749 177.800473 
L 585.827298 177.800473 
L 585.827298 185.009145 
z
" clip-path="url(#p1c632834f6)" style="fill: #ffa600"/>
   </g>
   <g id="patch_49">
    <path d="M 616.913649 192.099773 
Q 613.935295 192.169887 610.73191 192.205103 
Q 607.528525 192.24 604.113346 192.24 
Q 596.3961 192.24 591.888858 192.031261 
Q 587.381616 191.822521 587.381616 191.465551 
Q 587.381616 191.104419 591.968281 190.89728 
Q 596.561564 190.690141 604.550171 190.690141 
Q 607.627803 190.690141 610.447312 190.718315 
Q 613.273439 190.746168 615.775256 190.801234 
L 615.775256 191.110182 
Q 613.194016 191.039428 610.63925 191.004531 
Q 608.084484 190.969314 605.516481 190.969314 
Q 600.764352 190.969314 598.189731 191.098016 
Q 595.615109 191.226397 595.615109 191.465551 
Q 595.615109 191.702464 598.097071 191.831805 
Q 600.579033 191.960827 605.145842 191.960827 
Q 606.390132 191.960827 607.455721 191.953463 
Q 608.52131 191.94578 609.368486 191.929772 
L 609.368486 191.639714 
L 604.503841 191.639714 
L 604.503841 191.381351 
L 616.913649 191.381351 
L 616.913649 192.099773 
z
" clip-path="url(#p1c632834f6)" style="fill: #ffa600"/>
   </g>
   <g id="patch_50">
    <path d="M 616.913649 190.554481 
Q 614.443345 190.621725 611.772144 190.655738 
Q 609.100942 190.690141 606.191638 190.690141 
Q 597.515813 190.690141 592.448714 190.435241 
Q 587.381616 190.180341 587.381616 189.744431 
Q 587.381616 189.306956 592.448714 189.052447 
Q 597.515813 188.797547 606.191638 188.797547 
Q 609.100942 188.797547 611.772144 188.831951 
Q 614.443345 188.865963 616.913649 188.933207 
L 616.913649 189.310475 
Q 614.421023 189.221338 612.002804 189.179897 
Q 609.584586 189.138456 606.913384 189.138456 
Q 602.12159 189.138456 599.375981 189.299919 
Q 596.637814 189.460991 596.637814 189.744431 
Q 596.637814 190.026697 599.375981 190.18816 
Q 602.12159 190.349232 606.913384 190.349232 
Q 609.584586 190.349232 612.002804 190.307791 
Q 614.421023 190.265959 616.913649 190.176822 
L 616.913649 190.554481 
z
" clip-path="url(#p1c632834f6)" style="fill: #0000ff"/>
   </g>
   <g id="patch_51">
    <path d="M 607.838481 188.360591 
L 596.480936 188.360591 
L 594.687639 188.797547 
L 587.381616 188.797547 
L 597.815342 186.398918 
L 606.479923 186.398918 
L 616.913649 188.797547 
L 609.613664 188.797547 
L 607.838481 188.360591 
z
M 598.292346 187.915411 
L 606.008956 187.915411 
L 602.156689 186.961305 
L 598.292346 187.915411 
z
" clip-path="url(#p1c632834f6)" style="fill: #008000"/>
   </g>
   <g id="patch_52">
    <path d="M 587.381616 166.866384 
L 616.913649 166.866384 
L 616.913649 170.675772 
L 606.288985 170.675772 
L 606.288985 186.398918 
L 598.026883 186.398918 
L 598.026883 170.675772 
L 587.381616 170.675772 
L 587.381616 166.866384 
z
" clip-path="url(#p1c632834f6)" style="fill: #ff0000"/>
   </g>
   <g id="patch_53">
    <path d="M 638.924832 192.036372 
L 627.567287 192.036372 
L 625.77399 192.24 
L 618.467967 192.24 
L 628.901693 191.122204 
L 637.566274 191.122204 
L 648 192.24 
L 640.700015 192.24 
L 638.924832 192.036372 
z
M 629.378697 191.828912 
L 637.095307 191.828912 
L 633.24304 191.384285 
L 629.378697 191.828912 
z
" clip-path="url(#p1c632834f6)" style="fill: #008000"/>
   </g>
   <g id="patch_54">
    <path d="M 648 190.723082 
Q 645.529696 190.920918 642.858495 191.020986 
Q 640.187293 191.122204 637.277989 191.122204 
Q 628.602164 191.122204 623.535065 190.372269 
Q 618.467967 189.622334 618.467967 188.339853 
Q 618.467967 187.052772 623.535065 186.303987 
Q 628.602164 185.554052 637.277989 185.554052 
Q 640.187293 185.554052 642.858495 185.65527 
Q 645.529696 185.755338 648 185.953174 
L 648 187.063124 
Q 645.507374 186.800877 643.089155 186.678955 
Q 640.670937 186.557033 637.999735 186.557033 
Q 633.207941 186.557033 630.462332 187.032068 
Q 627.724165 187.505953 627.724165 188.339853 
Q 627.724165 189.170303 630.462332 189.645338 
Q 633.207941 190.119223 637.999735 190.119223 
Q 640.670937 190.119223 643.089155 189.997301 
Q 645.507374 189.874229 648 189.611982 
L 648 190.723082 
z
" clip-path="url(#p1c632834f6)" style="fill: #0000ff"/>
   </g>
   <g id="patch_55">
    <path d="M 648 184.834105 
Q 645.021646 185.194079 641.818261 185.374887 
Q 638.614876 185.554052 635.199697 185.554052 
Q 627.482451 185.554052 622.975209 184.48235 
Q 618.467967 183.410647 618.467967 181.577904 
Q 618.467967 179.723793 623.054632 178.660309 
Q 627.647915 177.596825 635.636522 177.596825 
Q 638.714154 177.596825 641.533663 177.741472 
Q 644.35979 177.884476 646.861607 178.167195 
L 646.861607 179.75338 
Q 644.280367 179.390119 641.725601 179.210954 
Q 639.170835 179.030145 636.602832 179.030145 
Q 631.850703 179.030145 629.276082 179.690919 
Q 626.70146 180.350049 626.70146 181.577904 
Q 626.70146 182.794254 629.183422 183.458315 
Q 631.665384 184.120732 636.232193 184.120732 
Q 637.476483 184.120732 638.542072 184.082927 
Q 639.607661 184.043478 640.454837 183.961292 
L 640.454837 182.472086 
L 635.590192 182.472086 
L 635.590192 181.145607 
L 648 181.145607 
L 648 184.834105 
z
" clip-path="url(#p1c632834f6)" style="fill: #ffa600"/>
   </g>
   <g id="patch_56">
    <path d="M 110.456866 192.33896 
L 99.09932 192.33896 
L 97.306023 192.24 
L 90 192.24 
L 100.433726 192.783233 
L 109.098307 192.783233 
L 119.532033 192.24 
L 112.232048 192.24 
L 110.456866 192.33896 
z
M 100.910731 192.439783 
L 108.627341 192.439783 
L 104.775074 192.655865 
L 100.910731 192.439783 
z
" clip-path="url(#p1c632834f6)" style="fill: #008000"/>
   </g>
   <g id="patch_57">
    <path d="M 150.618384 192.249879 
Q 148.148081 192.244982 145.476879 192.242505 
Q 142.805677 192.24 139.896374 192.24 
Q 131.220548 192.24 126.15345 192.258563 
Q 121.086351 192.277126 121.086351 192.308871 
Q 121.086351 192.340729 126.15345 192.359264 
Q 131.220548 192.377827 139.896374 192.377827 
Q 142.805677 192.377827 145.476879 192.375321 
Q 148.148081 192.372844 150.618384 192.367947 
L 150.618384 192.340473 
Q 148.125759 192.346964 145.70754 192.349982 
Q 143.289321 192.353 140.618119 192.353 
Q 135.826325 192.353 133.080717 192.341242 
Q 130.342549 192.329512 130.342549 192.308871 
Q 130.342549 192.288315 133.080717 192.276556 
Q 135.826325 192.264826 140.618119 192.264826 
Q 143.289321 192.264826 145.70754 192.267844 
Q 148.125759 192.270891 150.618384 192.277382 
L 150.618384 192.249879 
z
" clip-path="url(#p1c632834f6)" style="fill: #0000ff"/>
   </g>
   <g id="patch_58">
    <path d="M 172.629567 192.296907 
L 161.272022 192.296907 
L 159.478725 192.24 
L 152.172702 192.24 
L 162.606428 192.552385 
L 171.271009 192.552385 
L 181.704735 192.24 
L 174.40475 192.24 
L 172.629567 192.296907 
z
M 163.083433 192.354885 
L 170.800043 192.354885 
L 166.947776 192.479142 
L 163.083433 192.354885 
z
" clip-path="url(#p1c632834f6)" style="fill: #008000"/>
   </g>
   <g id="patch_59">
    <path d="M 203.715918 192.419145 
L 192.358373 192.419145 
L 190.565076 192.24 
L 183.259053 192.24 
L 193.692779 193.2234 
L 202.35736 193.2234 
L 212.791086 192.24 
L 205.491101 192.24 
L 203.715918 192.419145 
z
M 194.169784 192.601662 
L 201.886394 192.601662 
L 198.034127 192.99283 
L 194.169784 192.601662 
z
" clip-path="url(#p1c632834f6)" style="fill: #008000"/>
   </g>
   <g id="patch_60">
    <path d="M 212.791086 193.541512 
Q 209.812732 193.382456 206.609347 193.302565 
Q 203.405962 193.2234 199.990783 193.2234 
Q 192.273537 193.2234 187.766295 193.696937 
Q 183.259053 194.170475 183.259053 194.980282 
Q 183.259053 195.799531 187.845718 196.269437 
Q 192.439001 196.739343 200.427608 196.739343 
Q 203.505241 196.739343 206.324749 196.67543 
Q 209.150876 196.612244 211.652693 196.487323 
L 211.652693 195.786458 
Q 209.071453 195.946967 206.516687 196.026132 
Q 203.961922 196.106023 201.393919 196.106023 
Q 196.64179 196.106023 194.067168 195.814057 
Q 191.492547 195.522817 191.492547 194.980282 
Q 191.492547 194.442832 193.974508 194.149413 
Q 196.45647 193.85672 201.023279 193.85672 
Q 202.267569 193.85672 203.333158 193.873424 
Q 204.398747 193.890855 205.245923 193.92717 
L 205.245923 194.585183 
L 200.381278 194.585183 
L 200.381278 195.171295 
L 212.791086 195.171295 
L 212.791086 193.541512 
z
" clip-path="url(#p1c632834f6)" style="fill: #ffa600"/>
   </g>
   <g id="patch_61">
    <path d="M 214.345404 192.486378 
L 243.877437 192.486378 
L 243.877437 192.438328 
L 233.252773 192.438328 
L 233.252773 192.24 
L 224.990672 192.24 
L 224.990672 192.438328 
L 214.345404 192.438328 
L 214.345404 192.486378 
z
" clip-path="url(#p1c632834f6)" style="fill: #ff0000"/>
   </g>
   <g id="patch_62">
    <path d="M 265.88862 192.406823 
L 254.531075 192.406823 
L 252.737778 192.24 
L 245.431755 192.24 
L 255.865481 193.155759 
L 264.530062 193.155759 
L 274.963788 192.24 
L 267.663803 192.24 
L 265.88862 192.406823 
z
M 256.342486 192.576786 
L 264.059096 192.576786 
L 260.206829 192.941048 
L 256.342486 192.576786 
z
" clip-path="url(#p1c632834f6)" style="fill: #008000"/>
   </g>
   <g id="patch_63">
    <path d="M 274.963788 193.262014 
Q 271.985434 193.208886 268.782049 193.182201 
Q 265.578664 193.155759 262.163485 193.155759 
Q 254.446239 193.155759 249.938997 193.313929 
Q 245.431755 193.472099 245.431755 193.742589 
Q 245.431755 194.016232 250.01842 194.173189 
Q 254.611703 194.330146 262.60031 194.330146 
Q 265.677943 194.330146 268.497451 194.308798 
Q 271.323578 194.287693 273.825395 194.245967 
L 273.825395 194.011866 
Q 271.244155 194.065479 268.689389 194.091921 
Q 266.134624 194.118606 263.566621 194.118606 
Q 258.814492 194.118606 256.23987 194.021084 
Q 253.665249 193.923805 253.665249 193.742589 
Q 253.665249 193.563071 256.14721 193.465063 
Q 258.629172 193.367299 263.195981 193.367299 
Q 264.440271 193.367299 265.50586 193.372878 
Q 266.571449 193.378701 267.418625 193.39083 
L 267.418625 193.610619 
L 262.55398 193.610619 
L 262.55398 193.80639 
L 274.963788 193.80639 
L 274.963788 193.262014 
z
" clip-path="url(#p1c632834f6)" style="fill: #ffa600"/>
   </g>
   <g id="patch_64">
    <path d="M 296.974971 192.783175 
L 285.617426 192.783175 
L 283.824129 192.598018 
L 276.518106 192.598018 
L 286.951832 193.614423 
L 295.616413 193.614423 
L 306.050139 192.598018 
L 298.750154 192.598018 
L 296.974971 192.783175 
z
M 287.428837 192.971818 
L 295.145446 192.971818 
L 291.29318 193.376114 
L 287.428837 192.971818 
z
" clip-path="url(#p1c632834f6)" style="fill: #008000"/>
   </g>
   <g id="patch_65">
    <path d="M 276.518106 192.598018 
L 306.050139 192.598018 
L 306.050139 192.528195 
L 295.425475 192.528195 
L 295.425475 192.24 
L 287.163374 192.24 
L 287.163374 192.528195 
L 276.518106 192.528195 
L 276.518106 192.598018 
z
" clip-path="url(#p1c632834f6)" style="fill: #ff0000"/>
   </g>
   <g id="patch_66">
    <path d="M 368.222841 193.987453 
Q 365.752538 193.855047 363.081336 193.788074 
Q 360.410134 193.720332 357.500831 193.720332 
Q 348.825005 193.720332 343.757907 194.222242 
Q 338.690808 194.724153 338.690808 195.582481 
Q 338.690808 196.443889 343.757907 196.945029 
Q 348.825005 197.44694 357.500831 197.44694 
Q 360.410134 197.44694 363.081336 197.379197 
Q 365.752538 197.312224 368.222841 197.179819 
L 368.222841 196.43696 
Q 365.730216 196.612475 363.311997 196.694074 
Q 360.893778 196.775673 358.222576 196.775673 
Q 353.430782 196.775673 350.685174 196.457745 
Q 347.947006 196.140587 347.947006 195.582481 
Q 347.947006 195.026684 350.685174 194.708757 
Q 353.430782 194.391598 358.222576 194.391598 
Q 360.893778 194.391598 363.311997 194.473197 
Q 365.730216 194.555566 368.222841 194.731081 
L 368.222841 193.987453 
z
" clip-path="url(#p1c632834f6)" style="fill: #0000ff"/>
   </g>
   <g id="patch_67">
    <path d="M 368.222841 192.240097 
Q 365.244487 192.240048 362.041102 192.240024 
Q 358.837717 192.24 355.422538 192.24 
Q 347.705292 192.24 343.19805 192.240144 
Q 338.690808 192.240288 338.690808 192.240534 
Q 338.690808 192.240783 343.277473 192.240926 
Q 347.870756 192.241068 355.859363 192.241068 
Q 358.936996 192.241068 361.756504 192.241049 
Q 364.582631 192.24103 367.084448 192.240992 
L 367.084448 192.240779 
Q 364.503208 192.240828 361.948442 192.240852 
Q 359.393677 192.240876 356.825674 192.240876 
Q 352.073545 192.240876 349.498923 192.240787 
Q 346.924302 192.240699 346.924302 192.240534 
Q 346.924302 192.240371 349.406263 192.240281 
Q 351.888225 192.240192 356.455034 192.240192 
Q 357.699324 192.240192 358.764913 192.240198 
Q 359.830502 192.240203 360.677678 192.240214 
L 360.677678 192.240414 
L 355.813033 192.240414 
L 355.813033 192.240592 
L 368.222841 192.240592 
L 368.222841 192.240097 
z
" clip-path="url(#p1c632834f6)" style="fill: #ffa600"/>
   </g>
   <g id="patch_68">
    <path d="M 338.690808 193.720332 
L 368.222841 193.720332 
L 368.222841 193.431834 
L 357.598177 193.431834 
L 357.598177 192.241068 
L 349.336076 192.241068 
L 349.336076 193.431834 
L 338.690808 193.431834 
L 338.690808 193.720332 
z
" clip-path="url(#p1c632834f6)" style="fill: #ff0000"/>
   </g>
   <g id="patch_69">
    <path d="M 400.86351 192.242115 
L 430.395543 192.242115 
L 430.395543 192.241703 
L 419.770879 192.241703 
L 419.770879 192.24 
L 411.508778 192.24 
L 411.508778 192.241703 
L 400.86351 192.241703 
L 400.86351 192.242115 
z
" clip-path="url(#p1c632834f6)" style="fill: #ff0000"/>
   </g>
   <g id="patch_70">
    <path d="M 554.740947 192.259755 
Q 552.270643 192.249963 549.599442 192.24501 
Q 546.92824 192.24 544.018936 192.24 
Q 535.343111 192.24 530.276012 192.277118 
Q 525.208914 192.314236 525.208914 192.377713 
Q 525.208914 192.441418 530.276012 192.478479 
Q 535.343111 192.515597 544.018936 192.515597 
Q 546.92824 192.515597 549.599442 192.510587 
Q 552.270643 192.505634 554.740947 192.495842 
L 554.740947 192.440905 
Q 552.248321 192.453885 549.830103 192.45992 
Q 547.411884 192.465954 544.740682 192.465954 
Q 539.948888 192.465954 537.203279 192.442442 
Q 534.465112 192.418987 534.465112 192.377713 
Q 534.465112 192.33661 537.203279 192.313098 
Q 539.948888 192.289643 544.740682 192.289643 
Q 547.411884 192.289643 549.830103 192.295677 
Q 552.248321 192.301769 554.740947 192.314749 
L 554.740947 192.259755 
z
" clip-path="url(#p1c632834f6)" style="fill: #0000ff"/>
   </g>
   <g id="patch_71">
    <path d="M 525.208914 192.828795 
L 554.740947 192.828795 
L 554.740947 192.767713 
L 544.116283 192.767713 
L 544.116283 192.515597 
L 535.854182 192.515597 
L 535.854182 192.767713 
L 525.208914 192.767713 
L 525.208914 192.828795 
z
" clip-path="url(#p1c632834f6)" style="fill: #ff0000"/>
   </g>
   <g id="patch_72">
    <path d="M 556.295265 193.140815 
L 585.827298 193.140815 
L 585.827298 192.965131 
L 575.202634 192.965131 
L 575.202634 192.24 
L 566.940532 192.24 
L 566.940532 192.965131 
L 556.295265 192.965131 
L 556.295265 193.140815 
z
" clip-path="url(#p1c632834f6)" style="fill: #ff0000"/>
   </g>
   <g id="patch_73">
    <path d="M 618.467967 192.615322 
L 648 192.615322 
L 648 192.542124 
L 637.375336 192.542124 
L 637.375336 192.24 
L 629.113234 192.24 
L 629.113234 192.542124 
L 618.467967 192.542124 
L 618.467967 192.615322 
z
" clip-path="url(#p1c632834f6)" style="fill: #ff0000"/>
   </g>
   <g id="matplotlib.axis_1">
    <g id="xtick_1">
     <g id="line2d_2">
      <defs>
       <path id="m3fad358179" d="M 0 0 
L 0 3.5 
" style="stroke: #000000; stroke-width: 0.8"/>
      </defs>
      <g>
       <use xlink:href="#m3fad358179" x="104.766017" y="192.24" style="stroke: #000000; stroke-width: 0.8"/>
      </g>
     </g>
     <g id="text_1">
      <!-- 0 -->
      <g transform="translate(101.584767 206.838437) scale(0.1 -0.1)">
       <defs>
        <path id="DejaVuSans-30" d="M 2034 4250 
Q 1547 4250 1301 3770 
Q 1056 3291 1056 2328 
Q 1056 1369 1301 889 
Q 1547 409 2034 409 
Q 2525 409 2770 889 
Q 3016 1369 3016 2328 
Q 3016 3291 2770 3770 
Q 2525 4250 2034 4250 
z
M 2034 4750 
Q 2819 4750 3233 4129 
Q 3647 3509 3647 2328 
Q 3647 1150 3233 529 
Q 2819 -91 2034 -91 
Q 1250 -91 836 529 
Q 422 1150 422 2328 
Q 422 3509 836 4129 
Q 1250 4750 2034 4750 
z
" transform="scale(0.015625)"/>
       </defs>
       <use xlink:href="#DejaVuSans-30"/>
      </g>
     </g>
    </g>
    <g id="xtick_2">
     <g id="line2d_3">
      <g>
       <use xlink:href="#m3fad358179" x="166.938719" y="192.24" style="stroke: #000000; stroke-width: 0.8"/>
      </g>
     </g>
     <g id="text_2">
      <!-- 2 -->
      <g transform="translate(163.757469 206.838437) scale(0.1 -0.1)">
       <defs>
        <path id="DejaVuSans-32" d="M 1228 531 
L 3431 531 
L 3431 0 
L 469 0 
L 469 531 
Q 828 903 1448 1529 
Q 2069 2156 2228 2338 
Q 2531 2678 2651 2914 
Q 2772 3150 2772 3378 
Q 2772 3750 2511 3984 
Q 2250 4219 1831 4219 
Q 1534 4219 1204 4116 
Q 875 4013 500 3803 
L 500 4441 
Q 881 4594 1212 4672 
Q 1544 4750 1819 4750 
Q 2544 4750 2975 4387 
Q 3406 4025 3406 3419 
Q 3406 3131 3298 2873 
Q 3191 2616 2906 2266 
Q 2828 2175 2409 1742 
Q 1991 1309 1228 531 
z
" transform="scale(0.015625)"/>
       </defs>
       <use xlink:href="#DejaVuSans-32"/>
      </g>
     </g>
    </g>
    <g id="xtick_3">
     <g id="line2d_4">
      <g>
       <use xlink:href="#m3fad358179" x="229.111421" y="192.24" style="stroke: #000000; stroke-width: 0.8"/>
      </g>
     </g>
     <g id="text_3">
      <!-- 4 -->
      <g transform="translate(225.930171 206.838437) scale(0.1 -0.1)">
       <defs>
        <path id="DejaVuSans-34" d="M 2419 4116 
L 825 1625 
L 2419 1625 
L 2419 4116 
z
M 2253 4666 
L 3047 4666 
L 3047 1625 
L 3713 1625 
L 3713 1100 
L 3047 1100 
L 3047 0 
L 2419 0 
L 2419 1100 
L 313 1100 
L 313 1709 
L 2253 4666 
z
" transform="scale(0.015625)"/>
       </defs>
       <use xlink:href="#DejaVuSans-34"/>
      </g>
     </g>
    </g>
    <g id="xtick_4">
     <g id="line2d_5">
      <g>
       <use xlink:href="#m3fad358179" x="291.284123" y="192.24" style="stroke: #000000; stroke-width: 0.8"/>
      </g>
     </g>
     <g id="text_4">
      <!-- 6 -->
      <g transform="translate(288.102873 206.838437) scale(0.1 -0.1)">
       <defs>
        <path id="DejaVuSans-36" d="M 2113 2584 
Q 1688 2584 1439 2293 
Q 1191 2003 1191 1497 
Q 1191 994 1439 701 
Q 1688 409 2113 409 
Q 2538 409 2786 701 
Q 3034 994 3034 1497 
Q 3034 2003 2786 2293 
Q 2538 2584 2113 2584 
z
M 3366 4563 
L 3366 3988 
Q 3128 4100 2886 4159 
Q 2644 4219 2406 4219 
Q 1781 4219 1451 3797 
Q 1122 3375 1075 2522 
Q 1259 2794 1537 2939 
Q 1816 3084 2150 3084 
Q 2853 3084 3261 2657 
Q 3669 2231 3669 1497 
Q 3669 778 3244 343 
Q 2819 -91 2113 -91 
Q 1303 -91 875 529 
Q 447 1150 447 2328 
Q 447 3434 972 4092 
Q 1497 4750 2381 4750 
Q 2619 4750 2861 4703 
Q 3103 4656 3366 4563 
z
" transform="scale(0.015625)"/>
       </defs>
       <use xlink:href="#DejaVuSans-36"/>
      </g>
     </g>
    </g>
    <g id="xtick_5">
     <g id="line2d_6">
      <g>
       <use xlink:href="#m3fad358179" x="353.456825" y="192.24" style="stroke: #000000; stroke-width: 0.8"/>
      </g>
     </g>
     <g id="text_5">
      <!-- 8 -->
      <g transform="translate(350.275575 206.838437) scale(0.1 -0.1)">
       <defs>
        <path id="DejaVuSans-38" d="M 2034 2216 
Q 1584 2216 1326 1975 
Q 1069 1734 1069 1313 
Q 1069 891 1326 650 
Q 1584 409 2034 409 
Q 2484 409 2743 651 
Q 3003 894 3003 1313 
Q 3003 1734 2745 1975 
Q 2488 2216 2034 2216 
z
M 1403 2484 
Q 997 2584 770 2862 
Q 544 3141 544 3541 
Q 544 4100 942 4425 
Q 1341 4750 2034 4750 
Q 2731 4750 3128 4425 
Q 3525 4100 3525 3541 
Q 3525 3141 3298 2862 
Q 3072 2584 2669 2484 
Q 3125 2378 3379 2068 
Q 3634 1759 3634 1313 
Q 3634 634 3220 271 
Q 2806 -91 2034 -91 
Q 1263 -91 848 271 
Q 434 634 434 1313 
Q 434 1759 690 2068 
Q 947 2378 1403 2484 
z
M 1172 3481 
Q 1172 3119 1398 2916 
Q 1625 2713 2034 2713 
Q 2441 2713 2670 2916 
Q 2900 3119 2900 3481 
Q 2900 3844 2670 4047 
Q 2441 4250 2034 4250 
Q 1625 4250 1398 4047 
Q 1172 3844 1172 3481 
z
" transform="scale(0.015625)"/>
       </defs>
       <use xlink:href="#DejaVuSans-38"/>
      </g>
     </g>
    </g>
    <g id="xtick_6">
     <g id="line2d_7">
      <g>
       <use xlink:href="#m3fad358179" x="415.629526" y="192.24" style="stroke: #000000; stroke-width: 0.8"/>
      </g>
     </g>
     <g id="text_6">
      <!-- 10 -->
      <g transform="translate(409.267026 206.838437) scale(0.1 -0.1)">
       <defs>
        <path id="DejaVuSans-31" d="M 794 531 
L 1825 531 
L 1825 4091 
L 703 3866 
L 703 4441 
L 1819 4666 
L 2450 4666 
L 2450 531 
L 3481 531 
L 3481 0 
L 794 0 
L 794 531 
z
" transform="scale(0.015625)"/>
       </defs>
       <use xlink:href="#DejaVuSans-31"/>
       <use xlink:href="#DejaVuSans-30" x="63.623047"/>
      </g>
     </g>
    </g>
    <g id="xtick_7">
     <g id="line2d_8">
      <g>
       <use xlink:href="#m3fad358179" x="477.802228" y="192.24" style="stroke: #000000; stroke-width: 0.8"/>
      </g>
     </g>
     <g id="text_7">
      <!-- 12 -->
      <g transform="translate(471.439728 206.838437) scale(0.1 -0.1)">
       <use xlink:href="#DejaVuSans-31"/>
       <use xlink:href="#DejaVuSans-32" x="63.623047"/>
      </g>
     </g>
    </g>
    <g id="xtick_8">
     <g id="line2d_9">
      <g>
       <use xlink:href="#m3fad358179" x="539.97493" y="192.24" style="stroke: #000000; stroke-width: 0.8"/>
      </g>
     </g>
     <g id="text_8">
      <!-- 14 -->
      <g transform="translate(533.61243 206.838437) scale(0.1 -0.1)">
       <use xlink:href="#DejaVuSans-31"/>
       <use xlink:href="#DejaVuSans-34" x="63.623047"/>
      </g>
     </g>
    </g>
    <g id="xtick_9">
     <g id="line2d_10">
      <g>
       <use xlink:href="#m3fad358179" x="602.147632" y="192.24" style="stroke: #000000; stroke-width: 0.8"/>
      </g>
     </g>
     <g id="text_9">
      <!-- 16 -->
      <g transform="translate(595.785132 206.838437) scale(0.1 -0.1)">
       <use xlink:href="#DejaVuSans-31"/>
       <use xlink:href="#DejaVuSans-36" x="63.623047"/>
      </g>
     </g>
    </g>
   </g>
   <g id="matplotlib.axis_2">
    <g id="ytick_1">
     <g id="line2d_11">
      <defs>
       <path id="mb6785c9db2" d="M 0 0 
L -3.5 0 
" style="stroke: #000000; stroke-width: 0.8"/>
      </defs>
      <g>
       <use xlink:href="#mb6785c9db2" x="90" y="192.24" style="stroke: #000000; stroke-width: 0.8"/>
      </g>
     </g>
     <g id="text_10">
      <!-- 0.0000 -->
      <g transform="translate(48.009375 196.039219) scale(0.1 -0.1)">
       <defs>
        <path id="DejaVuSans-2e" d="M 684 794 
L 1344 794 
L 1344 0 
L 684 0 
L 684 794 
z
" transform="scale(0.015625)"/>
       </defs>
       <use xlink:href="#DejaVuSans-30"/>
       <use xlink:href="#DejaVuSans-2e" x="63.623047"/>
       <use xlink:href="#DejaVuSans-30" x="95.410156"/>
       <use xlink:href="#DejaVuSans-30" x="159.033203"/>
       <use xlink:href="#DejaVuSans-30" x="222.65625"/>
       <use xlink:href="#DejaVuSans-30" x="286.279297"/>
      </g>
     </g>
    </g>
    <g id="ytick_2">
     <g id="line2d_12">
      <g>
       <use xlink:href="#mb6785c9db2" x="90" y="168.568727" style="stroke: #000000; stroke-width: 0.8"/>
      </g>
     </g>
     <g id="text_11">
      <!-- 0.0025 -->
      <g transform="translate(48.009375 172.367946) scale(0.1 -0.1)">
       <defs>
        <path id="DejaVuSans-35" d="M 691 4666 
L 3169 4666 
L 3169 4134 
L 1269 4134 
L 1269 2991 
Q 1406 3038 1543 3061 
Q 1681 3084 1819 3084 
Q 2600 3084 3056 2656 
Q 3513 2228 3513 1497 
Q 3513 744 3044 326 
Q 2575 -91 1722 -91 
Q 1428 -91 1123 -41 
Q 819 9 494 109 
L 494 744 
Q 775 591 1075 516 
Q 1375 441 1709 441 
Q 2250 441 2565 725 
Q 2881 1009 2881 1497 
Q 2881 1984 2565 2268 
Q 2250 2553 1709 2553 
Q 1456 2553 1204 2497 
Q 953 2441 691 2322 
L 691 4666 
z
" transform="scale(0.015625)"/>
       </defs>
       <use xlink:href="#DejaVuSans-30"/>
       <use xlink:href="#DejaVuSans-2e" x="63.623047"/>
       <use xlink:href="#DejaVuSans-30" x="95.410156"/>
       <use xlink:href="#DejaVuSans-30" x="159.033203"/>
       <use xlink:href="#DejaVuSans-32" x="222.65625"/>
       <use xlink:href="#DejaVuSans-35" x="286.279297"/>
      </g>
     </g>
    </g>
    <g id="ytick_3">
     <g id="line2d_13">
      <g>
       <use xlink:href="#mb6785c9db2" x="90" y="144.897454" style="stroke: #000000; stroke-width: 0.8"/>
      </g>
     </g>
     <g id="text_12">
      <!-- 0.0050 -->
      <g transform="translate(48.009375 148.696673) scale(0.1 -0.1)">
       <use xlink:href="#DejaVuSans-30"/>
       <use xlink:href="#DejaVuSans-2e" x="63.623047"/>
       <use xlink:href="#DejaVuSans-30" x="95.410156"/>
       <use xlink:href="#DejaVuSans-30" x="159.033203"/>
       <use xlink:href="#DejaVuSans-35" x="222.65625"/>
       <use xlink:href="#DejaVuSans-30" x="286.279297"/>
      </g>
     </g>
    </g>
    <g id="ytick_4">
     <g id="line2d_14">
      <g>
       <use xlink:href="#mb6785c9db2" x="90" y="121.226181" style="stroke: #000000; stroke-width: 0.8"/>
      </g>
     </g>
     <g id="text_13">
      <!-- 0.0075 -->
      <g transform="translate(48.009375 125.0254) scale(0.1 -0.1)">
       <defs>
        <path id="DejaVuSans-37" d="M 525 4666 
L 3525 4666 
L 3525 4397 
L 1831 0 
L 1172 0 
L 2766 4134 
L 525 4134 
L 525 4666 
z
" transform="scale(0.015625)"/>
       </defs>
       <use xlink:href="#DejaVuSans-30"/>
       <use xlink:href="#DejaVuSans-2e" x="63.623047"/>
       <use xlink:href="#DejaVuSans-30" x="95.410156"/>
       <use xlink:href="#DejaVuSans-30" x="159.033203"/>
       <use xlink:href="#DejaVuSans-37" x="222.65625"/>
       <use xlink:href="#DejaVuSans-35" x="286.279297"/>
      </g>
     </g>
    </g>
    <g id="ytick_5">
     <g id="line2d_15">
      <g>
       <use xlink:href="#mb6785c9db2" x="90" y="97.554909" style="stroke: #000000; stroke-width: 0.8"/>
      </g>
     </g>
     <g id="text_14">
      <!-- 0.0100 -->
      <g transform="translate(48.009375 101.354127) scale(0.1 -0.1)">
       <use xlink:href="#DejaVuSans-30"/>
       <use xlink:href="#DejaVuSans-2e" x="63.623047"/>
       <use xlink:href="#DejaVuSans-30" x="95.410156"/>
       <use xlink:href="#DejaVuSans-31" x="159.033203"/>
       <use xlink:href="#DejaVuSans-30" x="222.65625"/>
       <use xlink:href="#DejaVuSans-30" x="286.279297"/>
      </g>
     </g>
    </g>
    <g id="ytick_6">
     <g id="line2d_16">
      <g>
       <use xlink:href="#mb6785c9db2" x="90" y="73.883636" style="stroke: #000000; stroke-width: 0.8"/>
      </g>
     </g>
     <g id="text_15">
      <!-- 0.0125 -->
      <g transform="translate(48.009375 77.682855) scale(0.1 -0.1)">
       <use xlink:href="#DejaVuSans-30"/>
       <use xlink:href="#DejaVuSans-2e" x="63.623047"/>
       <use xlink:href="#DejaVuSans-30" x="95.410156"/>
       <use xlink:href="#DejaVuSans-31" x="159.033203"/>
       <use xlink:href="#DejaVuSans-32" x="222.65625"/>
       <use xlink:href="#DejaVuSans-35" x="286.279297"/>
      </g>
     </g>
    </g>
    <g id="ytick_7">
     <g id="line2d_17">
      <g>
       <use xlink:href="#mb6785c9db2" x="90" y="50.212363" style="stroke: #000000; stroke-width: 0.8"/>
      </g>
     </g>
     <g id="text_16">
      <!-- 0.0150 -->
      <g transform="translate(48.009375 54.011582) scale(0.1 -0.1)">
       <use xlink:href="#DejaVuSans-30"/>
       <use xlink:href="#DejaVuSans-2e" x="63.623047"/>
       <use xlink:href="#DejaVuSans-30" x="95.410156"/>
       <use xlink:href="#DejaVuSans-31" x="159.033203"/>
       <use xlink:href="#DejaVuSans-35" x="222.65625"/>
       <use xlink:href="#DejaVuSans-30" x="286.279297"/>
      </g>
     </g>
    </g>
    <g id="ytick_8">
     <g id="line2d_18">
      <g>
       <use xlink:href="#mb6785c9db2" x="90" y="26.54109" style="stroke: #000000; stroke-width: 0.8"/>
      </g>
     </g>
     <g id="text_17">
      <!-- 0.0175 -->
      <g transform="translate(48.009375 30.340309) scale(0.1 -0.1)">
       <use xlink:href="#DejaVuSans-30"/>
       <use xlink:href="#DejaVuSans-2e" x="63.623047"/>
       <use xlink:href="#DejaVuSans-30" x="95.410156"/>
       <use xlink:href="#DejaVuSans-31" x="159.033203"/>
       <use xlink:href="#DejaVuSans-37" x="222.65625"/>
       <use xlink:href="#DejaVuSans-35" x="286.279297"/>
      </g>
     </g>
    </g>
   </g>
  </g>
 </g>
 <defs>
  <clipPath id="p1c632834f6">
   <rect x="90" y="25.92" width="558" height="166.32"/>
  </clipPath>
 </defs>
</svg>
