<?xml version="1.0" encoding="utf-8" standalone="no"?>
<!DOCTYPE svg PUBLIC "-//W3C//DTD SVG 1.1//EN"
  "http://www.w3.org/Graphics/SVG/1.1/DTD/svg11.dtd">
<svg xmlns:xlink="http://www.w3.org/1999/xlink" width="720pt" height="216pt" viewBox="0 0 720 216" xmlns="http://www.w3.org/2000/svg" version="1.1">
 <metadata>
  <rdf:RDF xmlns:dc="http://purl.org/dc/elements/1.1/" xmlns:cc="http://creativecommons.org/ns#" xmlns:rdf="http://www.w3.org/1999/02/22-rdf-syntax-ns#">
   <cc:Work>
    <dc:type rdf:resource="http://purl.org/dc/dcmitype/StillImage"/>
    <dc:date>2024-11-23T04:41:53.625246</dc:date>
    <dc:format>image/svg+xml</dc:format>
    <dc:creator>
     <cc:Agent>
      <dc:title>Matplotlib v3.7.2, https://matplotlib.org/</dc:title>
     </cc:Agent>
    </dc:creator>
   </cc:Work>
  </rdf:RDF>
 </metadata>
 <defs>
  <style type="text/css">*{stroke-linejoin: round; stroke-linecap: butt}</style>
 </defs>
 <g id="figure_1">
  <g id="patch_1">
   <path d="M 0 216 
L 720 216 
L 720 0 
L 0 0 
z
" style="fill: #ffffff"/>
  </g>
  <g id="axes_1">
   <g id="patch_2">
    <path d="M 90 192.24 
L 648 192.24 
L 648 25.92 
L 90 25.92 
z
" style="fill: #ffffff"/>
   </g>
   <g id="line2d_1">
    <path d="M 90 192.24 
L 648 192.24 
" clip-path="url(#p62fd8d6e21)" style="fill: none; stroke: #000000; stroke-width: 0.5; stroke-linecap: square"/>
   </g>
   <g id="patch_3">
    <path d="M 130.934363 192.031805 
Q 126.806065 192.135902 122.365852 192.188189 
Q 117.925639 192.24 113.191858 192.24 
Q 102.49498 192.24 96.24749 191.930084 
Q 90 191.620167 90 191.090173 
Q 90 190.553998 96.357578 190.246459 
Q 102.72433 189.938919 113.797341 189.938919 
Q 118.063249 189.938919 121.97137 189.980748 
Q 125.888666 190.022102 129.356436 190.103859 
L 129.356436 190.562554 
Q 125.778578 190.457506 122.237416 190.405695 
Q 118.696254 190.353408 115.136745 190.353408 
Q 108.549817 190.353408 104.981133 190.544492 
Q 101.412449 190.7351 101.412449 191.090173 
Q 101.412449 191.441918 104.852697 191.633952 
Q 108.292945 191.825511 114.623001 191.825511 
Q 116.347712 191.825511 117.824725 191.814578 
Q 119.301738 191.80317 120.476009 191.779404 
L 120.476009 191.348753 
L 113.733123 191.348753 
L 113.733123 190.96516 
L 130.934363 190.96516 
L 130.934363 192.031805 
z
" clip-path="url(#p62fd8d6e21)" style="fill: #ffa600"/>
   </g>
   <g id="patch_4">
    <path d="M 118.355269 189.388617 
L 102.612571 189.388617 
L 100.126882 189.938919 
L 90 189.938919 
L 104.462192 186.918085 
L 116.472171 186.918085 
L 130.934363 189.938919 
L 120.81585 189.938919 
L 118.355269 189.388617 
z
M 105.123368 188.827956 
L 115.819364 188.827956 
L 110.479735 187.626356 
L 105.123368 188.827956 
z
" clip-path="url(#p62fd8d6e21)" style="fill: #008000"/>
   </g>
   <g id="patch_5">
    <path d="M 90 183.488176 
L 130.934363 183.488176 
L 130.934363 184.157104 
L 116.207512 184.157104 
L 116.207512 186.918085 
L 104.75541 186.918085 
L 104.75541 184.157104 
L 90 184.157104 
L 90 183.488176 
z
" clip-path="url(#p62fd8d6e21)" style="fill: #ff0000"/>
   </g>
   <g id="patch_6">
    <path d="M 174.023166 191.816222 
Q 169.894869 192.028111 165.454655 192.134539 
Q 161.014442 192.24 156.280661 192.24 
Q 145.583783 192.24 139.336293 191.609171 
Q 133.088803 190.978343 133.088803 189.899548 
Q 133.088803 188.808176 139.446381 188.182184 
Q 145.813133 187.556193 156.886145 187.556193 
Q 161.152052 187.556193 165.060174 187.641336 
Q 168.977469 187.725511 172.445239 187.891926 
L 172.445239 188.825591 
Q 168.867381 188.611767 165.326219 188.506307 
Q 161.785058 188.399878 158.225548 188.399878 
Q 151.63862 188.399878 148.069936 188.788825 
Q 144.501252 189.176804 144.501252 189.899548 
Q 144.501252 190.615519 147.9415 191.006401 
Q 151.381748 191.396315 157.711804 191.396315 
Q 159.436515 191.396315 160.913528 191.374062 
Q 162.390541 191.350841 163.564812 191.302465 
L 163.564812 190.425884 
L 156.821927 190.425884 
L 156.821927 189.645088 
L 174.023166 189.645088 
L 174.023166 191.816222 
z
" clip-path="url(#p62fd8d6e21)" style="fill: #ffa600"/>
   </g>
   <g id="patch_7">
    <path d="M 161.444072 185.047767 
L 145.701374 185.047767 
L 143.215685 187.556193 
L 133.088803 187.556193 
L 147.550995 173.786406 
L 159.560974 173.786406 
L 174.023166 187.556193 
L 163.904653 187.556193 
L 161.444072 185.047767 
z
M 148.212171 182.492122 
L 158.908167 182.492122 
L 153.568539 177.014899 
L 148.212171 182.492122 
z
" clip-path="url(#p62fd8d6e21)" style="fill: #008000"/>
   </g>
   <g id="patch_8">
    <path d="M 217.111969 192.236989 
Q 212.983672 192.238495 208.543458 192.239251 
Q 204.103245 192.24 199.369464 192.24 
Q 188.672587 192.24 182.425096 192.235518 
Q 176.177606 192.231036 176.177606 192.223371 
Q 176.177606 192.215617 182.535184 192.211169 
Q 188.901936 192.206721 199.974948 192.206721 
Q 204.240855 192.206721 208.148977 192.207326 
Q 212.066272 192.207924 215.534042 192.209106 
L 215.534042 192.21574 
Q 211.956184 192.214221 208.415022 192.213472 
Q 204.873861 192.212716 201.314351 192.212716 
Q 194.727423 192.212716 191.158739 192.215479 
Q 187.590055 192.218236 187.590055 192.223371 
Q 187.590055 192.228458 191.030303 192.231235 
Q 194.470551 192.234006 200.800607 192.234006 
Q 202.525318 192.234006 204.002331 192.233847 
Q 205.479344 192.233682 206.653616 192.233339 
L 206.653616 192.227111 
L 199.91073 192.227111 
L 199.91073 192.221563 
L 217.111969 192.221563 
L 217.111969 192.236989 
z
" clip-path="url(#p62fd8d6e21)" style="fill: #ffa600"/>
   </g>
   <g id="patch_9">
    <path d="M 176.177606 59.944105 
L 217.111969 59.944105 
L 217.111969 85.739 
L 202.385118 85.739 
L 202.385118 192.206721 
L 190.933016 192.206721 
L 190.933016 85.739 
L 176.177606 85.739 
L 176.177606 59.944105 
z
" clip-path="url(#p62fd8d6e21)" style="fill: #ff0000"/>
   </g>
   <g id="patch_10">
    <path d="M 247.621678 192.2283 
L 231.87898 192.2283 
L 229.393291 192.24 
L 219.266409 192.24 
L 233.728601 192.175774 
L 245.738581 192.175774 
L 260.200772 192.24 
L 250.08226 192.24 
L 247.621678 192.2283 
z
M 234.389777 192.21638 
L 245.085773 192.21638 
L 239.746145 192.190833 
L 234.389777 192.21638 
z
" clip-path="url(#p62fd8d6e21)" style="fill: #008000"/>
   </g>
   <g id="patch_11">
    <path d="M 260.200772 192.104581 
Q 256.776683 192.13987 253.07413 192.157719 
Q 249.371576 192.175774 245.338989 192.175774 
Q 233.313424 192.175774 226.289917 192.042005 
Q 219.266409 191.908236 219.266409 191.679474 
Q 219.266409 191.449892 226.289917 191.316328 
Q 233.313424 191.182559 245.338989 191.182559 
Q 249.371576 191.182559 253.07413 191.200614 
Q 256.776683 191.218464 260.200772 191.253752 
L 260.200772 191.451739 
Q 256.745743 191.404961 253.393849 191.383213 
Q 250.041954 191.361465 246.339401 191.361465 
Q 239.697493 191.361465 235.891804 191.446199 
Q 232.096429 191.530728 232.096429 191.679474 
Q 232.096429 191.827605 235.891804 191.912339 
Q 239.697493 191.996868 246.339401 191.996868 
Q 250.041954 191.996868 253.393849 191.97512 
Q 256.745743 191.953167 260.200772 191.906389 
L 260.200772 192.104581 
z
" clip-path="url(#p62fd8d6e21)" style="fill: #0000ff"/>
   </g>
   <g id="patch_12">
    <path d="M 219.266409 184.411256 
L 260.200772 184.411256 
L 260.200772 185.731849 
L 245.473921 185.731849 
L 245.473921 191.182559 
L 234.021819 191.182559 
L 234.021819 185.731849 
L 219.266409 185.731849 
L 219.266409 184.411256 
z
" clip-path="url(#p62fd8d6e21)" style="fill: #ff0000"/>
   </g>
   <g id="patch_13">
    <path d="M 260.200772 179.213283 
Q 256.072475 181.812269 251.632261 183.117696 
Q 247.192048 184.411256 242.458267 184.411256 
Q 231.76139 184.411256 225.513899 176.673635 
Q 219.266409 168.936014 219.266409 155.703733 
Q 219.266409 142.317174 225.623987 134.63889 
Q 231.990739 126.960607 243.063751 126.960607 
Q 247.329658 126.960607 251.23778 128.004948 
Q 255.155075 129.037422 258.622845 131.078635 
L 258.622845 142.530789 
Q 255.044987 139.908068 251.503826 138.614508 
Q 247.962664 137.309082 244.403154 137.309082 
Q 237.816226 137.309082 234.247542 142.079823 
Q 230.678858 146.838698 230.678858 155.703733 
Q 230.678858 164.485695 234.119106 169.280172 
Q 237.559354 174.062781 243.88941 174.062781 
Q 245.614121 174.062781 247.091134 173.789828 
Q 248.568147 173.505008 249.742419 172.911632 
L 249.742419 162.159662 
L 242.999533 162.159662 
L 242.999533 152.582576 
L 260.200772 152.582576 
L 260.200772 179.213283 
z
" clip-path="url(#p62fd8d6e21)" style="fill: #ffa600"/>
   </g>
   <g id="patch_14">
    <path d="M 290.710482 169.174348 
L 274.967783 169.174348 
L 272.482094 192.24 
L 262.355212 192.24 
L 276.817404 65.62314 
L 288.827384 65.62314 
L 303.289575 192.24 
L 293.171063 192.24 
L 290.710482 169.174348 
z
M 277.478581 145.674519 
L 288.174576 145.674519 
L 282.834948 95.30999 
L 277.478581 145.674519 
z
" clip-path="url(#p62fd8d6e21)" style="fill: #008000"/>
   </g>
   <g id="patch_15">
    <path d="M 333.799285 191.638037 
L 318.056586 191.638037 
L 315.570897 192.24 
L 305.444015 192.24 
L 319.906207 188.935577 
L 331.916187 188.935577 
L 346.378378 192.24 
L 336.259866 192.24 
L 333.799285 191.638037 
z
M 320.567384 191.024743 
L 331.26338 191.024743 
L 325.923751 189.710339 
L 320.567384 191.024743 
z
" clip-path="url(#p62fd8d6e21)" style="fill: #008000"/>
   </g>
   <g id="patch_16">
    <path d="M 346.378378 186.421985 
Q 342.250081 187.678781 337.809868 188.310048 
Q 333.369654 188.935577 328.635873 188.935577 
Q 317.938996 188.935577 311.691506 185.193883 
Q 305.444015 181.452188 305.444015 175.053432 
Q 305.444015 168.580072 311.801594 164.867072 
Q 318.168346 161.154072 329.241357 161.154072 
Q 333.507264 161.154072 337.415386 161.659086 
Q 341.332681 162.158361 344.800451 163.145433 
L 344.800451 168.68337 
Q 341.222594 167.415097 337.681432 166.789568 
Q 334.14027 166.158301 330.58076 166.158301 
Q 323.993832 166.158301 320.425148 168.465296 
Q 316.856464 170.766553 316.856464 175.053432 
Q 316.856464 179.30014 320.296712 181.618613 
Q 323.73696 183.931348 330.067016 183.931348 
Q 331.791727 183.931348 333.26874 183.799355 
Q 334.745754 183.661624 335.920025 183.374685 
L 335.920025 178.175337 
L 329.177139 178.175337 
L 329.177139 173.544129 
L 346.378378 173.544129 
L 346.378378 186.421985 
z
" clip-path="url(#p62fd8d6e21)" style="fill: #ffa600"/>
   </g>
   <g id="patch_17">
    <path d="M 346.378378 158.814413 
Q 342.95429 159.974128 339.251736 160.560729 
Q 335.549182 161.154072 331.516595 161.154072 
Q 319.49103 161.154072 312.467523 156.75794 
Q 305.444015 152.361808 305.444015 144.843884 
Q 305.444015 137.298989 312.467523 132.9096 
Q 319.49103 128.513468 331.516595 128.513468 
Q 335.549182 128.513468 339.251736 129.106811 
Q 342.95429 129.693411 346.378378 130.853127 
L 346.378378 137.359672 
Q 342.923349 135.822374 339.571455 135.107666 
Q 336.219561 134.392957 332.517007 134.392957 
Q 325.8751 134.392957 322.069411 137.177623 
Q 318.274035 139.955547 318.274035 144.843884 
Q 318.274035 149.711993 322.069411 152.496659 
Q 325.8751 155.274583 332.517007 155.274583 
Q 336.219561 155.274583 339.571455 154.559874 
Q 342.923349 153.838423 346.378378 152.301125 
L 346.378378 158.814413 
z
" clip-path="url(#p62fd8d6e21)" style="fill: #0000ff"/>
   </g>
   <g id="patch_18">
    <path d="M 376.888088 192.22527 
L 361.14539 192.22527 
L 358.6597 192.24 
L 348.532819 192.24 
L 362.99501 192.159138 
L 375.00499 192.159138 
L 389.467181 192.24 
L 379.348669 192.24 
L 376.888088 192.22527 
z
M 363.656187 192.210262 
L 374.352183 192.210262 
L 369.012554 192.178097 
L 363.656187 192.210262 
z
" clip-path="url(#p62fd8d6e21)" style="fill: #008000"/>
   </g>
   <g id="patch_19">
    <path d="M 348.532819 69.669535 
L 389.467181 69.669535 
L 389.467181 93.558421 
L 374.74033 93.558421 
L 374.74033 192.159138 
L 363.288228 192.159138 
L 363.288228 93.558421 
L 348.532819 93.558421 
L 348.532819 69.669535 
z
" clip-path="url(#p62fd8d6e21)" style="fill: #ff0000"/>
   </g>
   <g id="patch_20">
    <path d="M 432.555985 192.237134 
Q 428.427687 192.238567 423.987474 192.239287 
Q 419.547261 192.24 414.813479 192.24 
Q 404.116602 192.24 397.869112 192.235733 
Q 391.621622 192.231466 391.621622 192.224169 
Q 391.621622 192.216788 397.9792 192.212553 
Q 404.345952 192.208319 415.418963 192.208319 
Q 419.68487 192.208319 423.592992 192.208895 
Q 427.510288 192.209465 430.978058 192.21059 
L 430.978058 192.216905 
Q 427.4002 192.215459 423.859038 192.214746 
Q 420.317876 192.214026 416.758366 192.214026 
Q 410.171438 192.214026 406.602754 192.216657 
Q 403.034071 192.219281 403.034071 192.224169 
Q 403.034071 192.229012 406.474319 192.231656 
Q 409.914566 192.234293 416.244623 192.234293 
Q 417.969333 192.234293 419.446347 192.234143 
Q 420.92336 192.233986 422.097631 192.233659 
L 422.097631 192.22773 
L 415.354745 192.22773 
L 415.354745 192.222448 
L 432.555985 192.222448 
L 432.555985 192.237134 
z
" clip-path="url(#p62fd8d6e21)" style="fill: #ffa600"/>
   </g>
   <g id="patch_21">
    <path d="M 432.555985 186.01566 
Q 429.131896 189.08522 425.429342 190.637847 
Q 421.726788 192.208319 417.694201 192.208319 
Q 405.668637 192.208319 398.645129 180.572544 
Q 391.621622 168.936769 391.621622 149.038166 
Q 391.621622 129.068178 398.645129 117.45025 
Q 405.668637 105.814475 417.694201 105.814475 
Q 421.726788 105.814475 425.429342 107.384947 
Q 429.131896 108.937574 432.555985 112.007134 
L 432.555985 129.228795 
Q 429.100955 125.159843 425.749061 123.268137 
Q 422.397167 121.376431 418.694613 121.376431 
Q 412.052706 121.376431 408.247017 128.746945 
Q 404.451641 136.099613 404.451641 149.038166 
Q 404.451641 161.923181 408.247017 169.293695 
Q 412.052706 176.646363 418.694613 176.646363 
Q 422.397167 176.646363 425.749061 174.754657 
Q 429.100955 172.845105 432.555985 168.776153 
L 432.555985 186.01566 
z
" clip-path="url(#p62fd8d6e21)" style="fill: #0000ff"/>
   </g>
   <g id="patch_22">
    <path d="M 463.065694 161.941672 
L 447.322996 161.941672 
L 444.837307 192.24 
L 434.710425 192.24 
L 449.172616 25.92 
L 461.182596 25.92 
L 475.644788 192.24 
L 465.526275 192.24 
L 463.065694 161.941672 
z
M 449.833793 131.073022 
L 460.529789 131.073022 
L 455.19016 64.915731 
L 449.833793 131.073022 
z
" clip-path="url(#p62fd8d6e21)" style="fill: #008000"/>
   </g>
   <g id="patch_23">
    <path d="M 518.733591 192.134907 
Q 514.605293 192.187454 510.16508 192.213847 
Q 505.724867 192.24 500.991086 192.24 
Q 490.294208 192.24 484.046718 192.08356 
Q 477.799228 191.92712 477.799228 191.659589 
Q 477.799228 191.388939 484.156806 191.233699 
Q 490.523558 191.078458 501.596569 191.078458 
Q 505.862477 191.078458 509.770598 191.099573 
Q 513.687894 191.120448 517.155664 191.161717 
L 517.155664 191.393258 
Q 513.577806 191.340231 510.036644 191.314078 
Q 506.495482 191.287685 502.935972 191.287685 
Q 496.349044 191.287685 492.780361 191.38414 
Q 489.211677 191.480355 489.211677 191.659589 
Q 489.211677 191.837144 492.651925 191.934079 
Q 496.092173 192.030774 502.422229 192.030774 
Q 504.14694 192.030774 505.623953 192.025255 
Q 507.100966 192.019497 508.275237 192.0075 
L 508.275237 191.790116 
L 501.532351 191.790116 
L 501.532351 191.596485 
L 518.733591 191.596485 
L 518.733591 192.134907 
z
" clip-path="url(#p62fd8d6e21)" style="fill: #ffa600"/>
   </g>
   <g id="patch_24">
    <path d="M 518.733591 190.73618 
Q 515.309502 190.90584 511.606948 190.991656 
Q 507.904394 191.078458 503.871808 191.078458 
Q 491.846243 191.078458 484.822735 190.43533 
Q 477.799228 189.792202 477.799228 188.692374 
Q 477.799228 187.5886 484.822735 186.946458 
Q 491.846243 186.303329 503.871808 186.303329 
Q 507.904394 186.303329 511.606948 186.390132 
Q 515.309502 186.475948 518.733591 186.645608 
L 518.733591 187.597477 
Q 515.278561 187.37258 511.926667 187.268022 
Q 508.574773 187.163464 504.872219 187.163464 
Q 498.230312 187.163464 494.424623 187.570845 
Q 490.629247 187.977239 490.629247 188.692374 
Q 490.629247 189.404549 494.424623 189.81193 
Q 498.230312 190.218324 504.872219 190.218324 
Q 508.574773 190.218324 511.926667 190.113766 
Q 515.278561 190.008222 518.733591 189.783324 
L 518.733591 190.73618 
z
" clip-path="url(#p62fd8d6e21)" style="fill: #0000ff"/>
   </g>
   <g id="patch_25">
    <path d="M 477.799228 158.527795 
L 518.733591 158.527795 
L 518.733591 163.944798 
L 504.00674 163.944798 
L 504.00674 186.303329 
L 492.554638 186.303329 
L 492.554638 163.944798 
L 477.799228 163.944798 
L 477.799228 158.527795 
z
" clip-path="url(#p62fd8d6e21)" style="fill: #ff0000"/>
   </g>
   <g id="patch_26">
    <path d="M 561.822394 192.061769 
Q 558.398305 192.150114 554.695751 192.1948 
Q 550.993197 192.24 546.960611 192.24 
Q 534.935046 192.24 527.911538 191.905111 
Q 520.888031 191.570222 520.888031 190.99752 
Q 520.888031 190.422764 527.911538 190.088388 
Q 534.935046 189.753499 546.960611 189.753499 
Q 550.993197 189.753499 554.695751 189.798699 
Q 558.398305 189.843385 561.822394 189.93173 
L 561.822394 190.427386 
Q 558.367364 190.310278 555.01547 190.255833 
Q 551.663576 190.201388 547.961022 190.201388 
Q 541.319115 190.201388 537.513426 190.413518 
Q 533.71805 190.625135 533.71805 190.99752 
Q 533.71805 191.368363 537.513426 191.580494 
Q 541.319115 191.792111 547.961022 191.792111 
Q 551.663576 191.792111 555.01547 191.737666 
Q 558.367364 191.682707 561.822394 191.565599 
L 561.822394 192.061769 
z
" clip-path="url(#p62fd8d6e21)" style="fill: #0000ff"/>
   </g>
   <g id="patch_27">
    <path d="M 520.888031 172.770432 
L 561.822394 172.770432 
L 561.822394 176.082604 
L 547.095543 176.082604 
L 547.095543 189.753499 
L 535.643441 189.753499 
L 535.643441 176.082604 
L 520.888031 176.082604 
L 520.888031 172.770432 
z
" clip-path="url(#p62fd8d6e21)" style="fill: #ff0000"/>
   </g>
   <g id="patch_28">
    <path d="M 549.2433 168.86885 
L 533.500602 168.86885 
L 531.014913 172.770432 
L 520.888031 172.770432 
L 535.350222 151.353038 
L 547.360202 151.353038 
L 561.822394 172.770432 
L 551.703881 172.770432 
L 549.2433 168.86885 
z
M 536.011399 164.893825 
L 546.707395 164.893825 
L 541.367766 156.374604 
L 536.011399 164.893825 
z
" clip-path="url(#p62fd8d6e21)" style="fill: #008000"/>
   </g>
   <g id="patch_29">
    <path d="M 604.911197 192.068676 
Q 601.487108 192.153597 597.784554 192.196552 
Q 594.082 192.24 590.049414 192.24 
Q 578.023849 192.24 571.000341 191.918088 
Q 563.976834 191.596175 563.976834 191.045666 
Q 563.976834 190.493182 571.000341 190.171763 
Q 578.023849 189.849851 590.049414 189.849851 
Q 594.082 189.849851 597.784554 189.893299 
Q 601.487108 189.936254 604.911197 190.021175 
L 604.911197 190.497625 
Q 601.456168 190.385055 598.104273 190.332719 
Q 594.752379 190.280384 591.049825 190.280384 
Q 584.407918 190.280384 580.602229 190.484294 
Q 576.806854 190.687711 576.806854 191.045666 
Q 576.806854 191.402139 580.602229 191.60605 
Q 584.407918 191.809467 591.049825 191.809467 
Q 594.752379 191.809467 598.104273 191.757132 
Q 601.456168 191.704302 604.911197 191.591732 
L 604.911197 192.068676 
z
" clip-path="url(#p62fd8d6e21)" style="fill: #0000ff"/>
   </g>
   <g id="patch_30">
    <path d="M 592.332103 188.725967 
L 576.589405 188.725967 
L 574.103716 189.849851 
L 563.976834 189.849851 
L 578.439026 183.680388 
L 590.449005 183.680388 
L 604.911197 189.849851 
L 594.792684 189.849851 
L 592.332103 188.725967 
z
M 579.100202 187.580927 
L 589.796198 187.580927 
L 584.456569 185.126893 
L 579.100202 187.580927 
z
" clip-path="url(#p62fd8d6e21)" style="fill: #008000"/>
   </g>
   <g id="patch_31">
    <path d="M 563.976834 173.58125 
L 604.911197 173.58125 
L 604.911197 175.550863 
L 590.184346 175.550863 
L 590.184346 183.680388 
L 578.732244 183.680388 
L 578.732244 175.550863 
L 563.976834 175.550863 
L 563.976834 173.58125 
z
" clip-path="url(#p62fd8d6e21)" style="fill: #ff0000"/>
   </g>
   <g id="patch_32">
    <path d="M 635.420906 191.575599 
L 619.678208 191.575599 
L 617.192519 192.24 
L 607.065637 192.24 
L 621.527829 188.592831 
L 633.537808 188.592831 
L 648 192.24 
L 637.881487 192.24 
L 635.420906 191.575599 
z
M 622.189005 190.898692 
L 632.885001 190.898692 
L 627.545373 189.447954 
L 622.189005 190.898692 
z
" clip-path="url(#p62fd8d6e21)" style="fill: #008000"/>
   </g>
   <g id="patch_33">
    <path d="M 607.065637 184.850975 
L 648 184.850975 
L 648 185.580741 
L 633.273149 185.580741 
L 633.273149 188.592831 
L 621.821047 188.592831 
L 621.821047 185.580741 
L 607.065637 185.580741 
L 607.065637 184.850975 
z
" clip-path="url(#p62fd8d6e21)" style="fill: #ff0000"/>
   </g>
   <g id="patch_34">
    <path d="M 648 184.403117 
Q 643.871703 184.627046 639.431489 184.739522 
Q 634.991276 184.850975 630.257495 184.850975 
Q 619.560617 184.850975 613.313127 184.1843 
Q 607.065637 183.517626 607.065637 182.37753 
Q 607.065637 181.224143 613.423215 180.562581 
Q 619.789967 179.901019 630.862978 179.901019 
Q 635.128886 179.901019 639.037007 179.990999 
Q 642.954303 180.079957 646.422073 180.255828 
L 646.422073 181.242548 
Q 642.844215 181.016574 639.303053 180.90512 
Q 635.761891 180.792645 632.202382 180.792645 
Q 625.615454 180.792645 622.04677 181.203692 
Q 618.478086 181.613718 618.478086 182.37753 
Q 618.478086 183.134186 621.918334 183.547278 
Q 625.358582 183.959349 631.688638 183.959349 
Q 633.413349 183.959349 634.890362 183.935831 
Q 636.367375 183.911291 637.541646 183.860166 
L 637.541646 182.933774 
L 630.798761 182.933774 
L 630.798761 182.108611 
L 648 182.108611 
L 648 184.403117 
z
" clip-path="url(#p62fd8d6e21)" style="fill: #ffa600"/>
   </g>
   <g id="patch_35">
    <path d="M 648 179.406746 
Q 644.575911 179.651746 640.873357 179.77567 
Q 637.170803 179.901019 633.138217 179.901019 
Q 621.112652 179.901019 614.089145 178.9723 
Q 607.065637 178.043581 607.065637 176.455358 
Q 607.065637 174.861437 614.089145 173.934143 
Q 621.112652 173.005424 633.138217 173.005424 
Q 637.170803 173.005424 640.873357 173.130773 
Q 644.575911 173.254697 648 173.499696 
L 648 174.874257 
Q 644.544971 174.54949 641.193076 174.398502 
Q 637.841182 174.247514 634.138628 174.247514 
Q 627.496721 174.247514 623.691032 174.835798 
Q 619.895657 175.422657 619.895657 176.455358 
Q 619.895657 177.483786 623.691032 178.072069 
Q 627.496721 178.658928 634.138628 178.658928 
Q 637.841182 178.658928 641.193076 178.50794 
Q 644.544971 178.355528 648 178.030761 
L 648 179.406746 
z
" clip-path="url(#p62fd8d6e21)" style="fill: #0000ff"/>
   </g>
   <g id="patch_36">
    <path d="M 130.934363 192.402375 
Q 127.510274 192.321889 123.80772 192.281179 
Q 120.105166 192.24 116.07258 192.24 
Q 104.047015 192.24 97.023507 192.545096 
Q 90 192.850192 90 193.371943 
Q 90 193.895566 97.023507 194.200194 
Q 104.047015 194.505289 116.07258 194.505289 
Q 120.105166 194.505289 123.80772 194.464111 
Q 127.510274 194.4234 130.934363 194.342915 
L 130.934363 193.891354 
Q 127.479334 193.998044 124.127439 194.047646 
Q 120.775545 194.097247 117.072991 194.097247 
Q 110.431084 194.097247 106.625395 193.903989 
Q 102.83002 193.711198 102.83002 193.371943 
Q 102.83002 193.034091 106.625395 192.840833 
Q 110.431084 192.648042 117.072991 192.648042 
Q 120.775545 192.648042 124.127439 192.697644 
Q 127.479334 192.747713 130.934363 192.854403 
L 130.934363 192.402375 
z
" clip-path="url(#p62fd8d6e21)" style="fill: #0000ff"/>
   </g>
   <g id="patch_37">
    <path d="M 174.023166 194.486147 
Q 170.599077 194.31856 166.896523 194.233793 
Q 163.193969 194.148051 159.161383 194.148051 
Q 147.135818 194.148051 140.112311 194.783321 
Q 133.088803 195.418591 133.088803 196.504981 
Q 133.088803 197.595268 140.112311 198.229563 
Q 147.135818 198.864833 159.161383 198.864833 
Q 163.193969 198.864833 166.896523 198.779091 
Q 170.599077 198.694324 174.023166 198.526737 
L 174.023166 197.586498 
Q 170.568137 197.808648 167.216242 197.911928 
Q 163.864348 198.015208 160.161794 198.015208 
Q 153.519887 198.015208 149.714198 197.612806 
Q 145.918823 197.211377 145.918823 196.504981 
Q 145.918823 195.801507 149.714198 195.399104 
Q 153.519887 194.997676 160.161794 194.997676 
Q 163.864348 194.997676 167.216242 195.100956 
Q 170.568137 195.20521 174.023166 195.42736 
L 174.023166 194.486147 
z
" clip-path="url(#p62fd8d6e21)" style="fill: #0000ff"/>
   </g>
   <g id="patch_38">
    <path d="M 133.088803 194.148051 
L 174.023166 194.148051 
L 174.023166 193.775928 
L 159.296315 193.775928 
L 159.296315 192.24 
L 147.844213 192.24 
L 147.844213 193.775928 
L 133.088803 193.775928 
L 133.088803 194.148051 
z
" clip-path="url(#p62fd8d6e21)" style="fill: #ff0000"/>
   </g>
   <g id="patch_39">
    <path d="M 204.532875 192.330549 
L 188.790177 192.330549 
L 186.304488 192.24456 
L 176.177606 192.24456 
L 190.639798 192.716589 
L 202.649778 192.716589 
L 217.111969 192.24456 
L 206.993457 192.24456 
L 204.532875 192.330549 
z
M 191.300974 192.418156 
L 201.99697 192.418156 
L 196.657342 192.605916 
L 191.300974 192.418156 
z
" clip-path="url(#p62fd8d6e21)" style="fill: #008000"/>
   </g>
   <g id="patch_40">
    <path d="M 217.111969 192.240327 
Q 213.68788 192.240165 209.985326 192.240083 
Q 206.282773 192.24 202.250186 192.24 
Q 190.224621 192.24 183.201114 192.240614 
Q 176.177606 192.241228 176.177606 192.242278 
Q 176.177606 192.243332 183.201114 192.243946 
Q 190.224621 192.24456 202.250186 192.24456 
Q 206.282773 192.24456 209.985326 192.244477 
Q 213.68788 192.244395 217.111969 192.244233 
L 217.111969 192.243324 
Q 213.65694 192.243539 210.305046 192.243638 
Q 206.953151 192.243738 203.250598 192.243738 
Q 196.60869 192.243738 192.803001 192.243349 
Q 189.007626 192.242961 189.007626 192.242278 
Q 189.007626 192.241598 192.803001 192.241209 
Q 196.60869 192.240821 203.250598 192.240821 
Q 206.953151 192.240821 210.305046 192.240921 
Q 213.65694 192.241022 217.111969 192.241237 
L 217.111969 192.240327 
z
" clip-path="url(#p62fd8d6e21)" style="fill: #0000ff"/>
   </g>
   <g id="patch_41">
    <path d="M 305.444015 192.508418 
L 346.378378 192.508418 
L 346.378378 192.456069 
L 331.651527 192.456069 
L 331.651527 192.24 
L 320.199425 192.24 
L 320.199425 192.456069 
L 305.444015 192.456069 
L 305.444015 192.508418 
z
" clip-path="url(#p62fd8d6e21)" style="fill: #ff0000"/>
   </g>
   <g id="patch_42">
    <path d="M 419.976891 192.241268 
L 404.234193 192.241268 
L 401.748503 192.24 
L 391.621622 192.24 
L 406.083813 192.24696 
L 418.093793 192.24696 
L 432.555985 192.24 
L 422.437472 192.24 
L 419.976891 192.241268 
z
M 406.74499 192.24256 
L 417.440986 192.24256 
L 412.101357 192.245328 
L 406.74499 192.24256 
z
" clip-path="url(#p62fd8d6e21)" style="fill: #008000"/>
   </g>
   <g id="patch_43">
    <path d="M 391.621622 192.575914 
L 432.555985 192.575914 
L 432.555985 192.511759 
L 417.829134 192.511759 
L 417.829134 192.24696 
L 406.377032 192.24696 
L 406.377032 192.511759 
L 391.621622 192.511759 
L 391.621622 192.575914 
z
" clip-path="url(#p62fd8d6e21)" style="fill: #ff0000"/>
   </g>
   <g id="patch_44">
    <path d="M 506.154497 192.645194 
L 490.411799 192.645194 
L 487.92611 192.24 
L 477.799228 192.24 
L 492.261419 194.464274 
L 504.271399 194.464274 
L 518.733591 192.24 
L 508.615078 192.24 
L 506.154497 192.645194 
z
M 492.922596 193.058014 
L 503.618592 193.058014 
L 498.278963 193.942766 
L 492.922596 193.058014 
z
" clip-path="url(#p62fd8d6e21)" style="fill: #008000"/>
   </g>
   <g id="patch_45">
    <path d="M 561.822394 192.33426 
Q 557.694096 192.28713 553.253883 192.263457 
Q 548.81367 192.24 544.079889 192.24 
Q 533.383011 192.24 527.135521 192.380314 
Q 520.888031 192.520629 520.888031 192.760584 
Q 520.888031 193.003336 527.245609 193.142575 
Q 533.612361 193.281813 544.685372 193.281813 
Q 548.95128 193.281813 552.859401 193.262875 
Q 556.776697 193.244152 560.244467 193.207136 
L 560.244467 192.999463 
Q 556.666609 193.047023 553.125447 193.070481 
Q 549.584285 193.094153 546.024775 193.094153 
Q 539.437848 193.094153 535.869164 193.00764 
Q 532.30048 192.921343 532.30048 192.760584 
Q 532.30048 192.601331 535.740728 192.514388 
Q 539.180976 192.42766 545.511032 192.42766 
Q 547.235743 192.42766 548.712756 192.43261 
Q 550.189769 192.437774 551.36404 192.448535 
L 551.36404 192.643512 
L 544.621154 192.643512 
L 544.621154 192.817183 
L 561.822394 192.817183 
L 561.822394 192.33426 
z
" clip-path="url(#p62fd8d6e21)" style="fill: #ffa600"/>
   </g>
   <g id="patch_46">
    <path d="M 604.911197 192.332404 
Q 600.782899 192.286202 596.342686 192.262995 
Q 591.902473 192.24 587.168692 192.24 
Q 576.471814 192.24 570.224324 192.377551 
Q 563.976834 192.515101 563.976834 192.75033 
Q 563.976834 192.988301 570.334412 193.124796 
Q 576.701164 193.261292 587.774175 193.261292 
Q 592.040083 193.261292 595.948204 193.242727 
Q 599.8655 193.224373 603.33327 193.188087 
L 603.33327 192.984503 
Q 599.755412 193.031127 596.21425 193.054122 
Q 592.673088 193.077329 589.113579 193.077329 
Q 582.526651 193.077329 578.957967 192.99252 
Q 575.389283 192.907922 575.389283 192.75033 
Q 575.389283 192.594214 578.829531 192.508983 
Q 582.269779 192.423963 588.599835 192.423963 
Q 590.324546 192.423963 591.801559 192.428816 
Q 593.278572 192.433879 594.452843 192.444427 
L 594.452843 192.635563 
L 587.709957 192.635563 
L 587.709957 192.805814 
L 604.911197 192.805814 
L 604.911197 192.332404 
z
" clip-path="url(#p62fd8d6e21)" style="fill: #ffa600"/>
   </g>
   <g id="matplotlib.axis_1">
    <g id="xtick_1">
     <g id="line2d_2">
      <defs>
       <path id="m5058dfd0d8" d="M 0 0 
L 0 3.5 
" style="stroke: #000000; stroke-width: 0.8"/>
      </defs>
      <g>
       <use xlink:href="#m5058dfd0d8" x="110.467181" y="192.24" style="stroke: #000000; stroke-width: 0.8"/>
      </g>
     </g>
     <g id="text_1">
      <!-- 0 -->
      <g transform="translate(107.285931 206.838437) scale(0.1 -0.1)">
       <defs>
        <path id="DejaVuSans-30" d="M 2034 4250 
Q 1547 4250 1301 3770 
Q 1056 3291 1056 2328 
Q 1056 1369 1301 889 
Q 1547 409 2034 409 
Q 2525 409 2770 889 
Q 3016 1369 3016 2328 
Q 3016 3291 2770 3770 
Q 2525 4250 2034 4250 
z
M 2034 4750 
Q 2819 4750 3233 4129 
Q 3647 3509 3647 2328 
Q 3647 1150 3233 529 
Q 2819 -91 2034 -91 
Q 1250 -91 836 529 
Q 422 1150 422 2328 
Q 422 3509 836 4129 
Q 1250 4750 2034 4750 
z
" transform="scale(0.015625)"/>
       </defs>
       <use xlink:href="#DejaVuSans-30"/>
      </g>
     </g>
    </g>
    <g id="xtick_2">
     <g id="line2d_3">
      <g>
       <use xlink:href="#m5058dfd0d8" x="196.644788" y="192.24" style="stroke: #000000; stroke-width: 0.8"/>
      </g>
     </g>
     <g id="text_2">
      <!-- 2 -->
      <g transform="translate(193.463538 206.838437) scale(0.1 -0.1)">
       <defs>
        <path id="DejaVuSans-32" d="M 1228 531 
L 3431 531 
L 3431 0 
L 469 0 
L 469 531 
Q 828 903 1448 1529 
Q 2069 2156 2228 2338 
Q 2531 2678 2651 2914 
Q 2772 3150 2772 3378 
Q 2772 3750 2511 3984 
Q 2250 4219 1831 4219 
Q 1534 4219 1204 4116 
Q 875 4013 500 3803 
L 500 4441 
Q 881 4594 1212 4672 
Q 1544 4750 1819 4750 
Q 2544 4750 2975 4387 
Q 3406 4025 3406 3419 
Q 3406 3131 3298 2873 
Q 3191 2616 2906 2266 
Q 2828 2175 2409 1742 
Q 1991 1309 1228 531 
z
" transform="scale(0.015625)"/>
       </defs>
       <use xlink:href="#DejaVuSans-32"/>
      </g>
     </g>
    </g>
    <g id="xtick_3">
     <g id="line2d_4">
      <g>
       <use xlink:href="#m5058dfd0d8" x="282.822394" y="192.24" style="stroke: #000000; stroke-width: 0.8"/>
      </g>
     </g>
     <g id="text_3">
      <!-- 4 -->
      <g transform="translate(279.641144 206.838437) scale(0.1 -0.1)">
       <defs>
        <path id="DejaVuSans-34" d="M 2419 4116 
L 825 1625 
L 2419 1625 
L 2419 4116 
z
M 2253 4666 
L 3047 4666 
L 3047 1625 
L 3713 1625 
L 3713 1100 
L 3047 1100 
L 3047 0 
L 2419 0 
L 2419 1100 
L 313 1100 
L 313 1709 
L 2253 4666 
z
" transform="scale(0.015625)"/>
       </defs>
       <use xlink:href="#DejaVuSans-34"/>
      </g>
     </g>
    </g>
    <g id="xtick_4">
     <g id="line2d_5">
      <g>
       <use xlink:href="#m5058dfd0d8" x="369" y="192.24" style="stroke: #000000; stroke-width: 0.8"/>
      </g>
     </g>
     <g id="text_4">
      <!-- 6 -->
      <g transform="translate(365.81875 206.838437) scale(0.1 -0.1)">
       <defs>
        <path id="DejaVuSans-36" d="M 2113 2584 
Q 1688 2584 1439 2293 
Q 1191 2003 1191 1497 
Q 1191 994 1439 701 
Q 1688 409 2113 409 
Q 2538 409 2786 701 
Q 3034 994 3034 1497 
Q 3034 2003 2786 2293 
Q 2538 2584 2113 2584 
z
M 3366 4563 
L 3366 3988 
Q 3128 4100 2886 4159 
Q 2644 4219 2406 4219 
Q 1781 4219 1451 3797 
Q 1122 3375 1075 2522 
Q 1259 2794 1537 2939 
Q 1816 3084 2150 3084 
Q 2853 3084 3261 2657 
Q 3669 2231 3669 1497 
Q 3669 778 3244 343 
Q 2819 -91 2113 -91 
Q 1303 -91 875 529 
Q 447 1150 447 2328 
Q 447 3434 972 4092 
Q 1497 4750 2381 4750 
Q 2619 4750 2861 4703 
Q 3103 4656 3366 4563 
z
" transform="scale(0.015625)"/>
       </defs>
       <use xlink:href="#DejaVuSans-36"/>
      </g>
     </g>
    </g>
    <g id="xtick_5">
     <g id="line2d_6">
      <g>
       <use xlink:href="#m5058dfd0d8" x="455.177606" y="192.24" style="stroke: #000000; stroke-width: 0.8"/>
      </g>
     </g>
     <g id="text_5">
      <!-- 8 -->
      <g transform="translate(451.996356 206.838437) scale(0.1 -0.1)">
       <defs>
        <path id="DejaVuSans-38" d="M 2034 2216 
Q 1584 2216 1326 1975 
Q 1069 1734 1069 1313 
Q 1069 891 1326 650 
Q 1584 409 2034 409 
Q 2484 409 2743 651 
Q 3003 894 3003 1313 
Q 3003 1734 2745 1975 
Q 2488 2216 2034 2216 
z
M 1403 2484 
Q 997 2584 770 2862 
Q 544 3141 544 3541 
Q 544 4100 942 4425 
Q 1341 4750 2034 4750 
Q 2731 4750 3128 4425 
Q 3525 4100 3525 3541 
Q 3525 3141 3298 2862 
Q 3072 2584 2669 2484 
Q 3125 2378 3379 2068 
Q 3634 1759 3634 1313 
Q 3634 634 3220 271 
Q 2806 -91 2034 -91 
Q 1263 -91 848 271 
Q 434 634 434 1313 
Q 434 1759 690 2068 
Q 947 2378 1403 2484 
z
M 1172 3481 
Q 1172 3119 1398 2916 
Q 1625 2713 2034 2713 
Q 2441 2713 2670 2916 
Q 2900 3119 2900 3481 
Q 2900 3844 2670 4047 
Q 2441 4250 2034 4250 
Q 1625 4250 1398 4047 
Q 1172 3844 1172 3481 
z
" transform="scale(0.015625)"/>
       </defs>
       <use xlink:href="#DejaVuSans-38"/>
      </g>
     </g>
    </g>
    <g id="xtick_6">
     <g id="line2d_7">
      <g>
       <use xlink:href="#m5058dfd0d8" x="541.355212" y="192.24" style="stroke: #000000; stroke-width: 0.8"/>
      </g>
     </g>
     <g id="text_6">
      <!-- 10 -->
      <g transform="translate(534.992712 206.838437) scale(0.1 -0.1)">
       <defs>
        <path id="DejaVuSans-31" d="M 794 531 
L 1825 531 
L 1825 4091 
L 703 3866 
L 703 4441 
L 1819 4666 
L 2450 4666 
L 2450 531 
L 3481 531 
L 3481 0 
L 794 0 
L 794 531 
z
" transform="scale(0.015625)"/>
       </defs>
       <use xlink:href="#DejaVuSans-31"/>
       <use xlink:href="#DejaVuSans-30" x="63.623047"/>
      </g>
     </g>
    </g>
    <g id="xtick_7">
     <g id="line2d_8">
      <g>
       <use xlink:href="#m5058dfd0d8" x="627.532819" y="192.24" style="stroke: #000000; stroke-width: 0.8"/>
      </g>
     </g>
     <g id="text_7">
      <!-- 12 -->
      <g transform="translate(621.170319 206.838437) scale(0.1 -0.1)">
       <use xlink:href="#DejaVuSans-31"/>
       <use xlink:href="#DejaVuSans-32" x="63.623047"/>
      </g>
     </g>
    </g>
   </g>
   <g id="matplotlib.axis_2">
    <g id="ytick_1">
     <g id="line2d_9">
      <defs>
       <path id="mdf0f4b2dda" d="M 0 0 
L -3.5 0 
" style="stroke: #000000; stroke-width: 0.8"/>
      </defs>
      <g>
       <use xlink:href="#mdf0f4b2dda" x="90" y="192.24" style="stroke: #000000; stroke-width: 0.8"/>
      </g>
     </g>
     <g id="text_8">
      <!-- 0.0000 -->
      <g transform="translate(48.009375 196.039219) scale(0.1 -0.1)">
       <defs>
        <path id="DejaVuSans-2e" d="M 684 794 
L 1344 794 
L 1344 0 
L 684 0 
L 684 794 
z
" transform="scale(0.015625)"/>
       </defs>
       <use xlink:href="#DejaVuSans-30"/>
       <use xlink:href="#DejaVuSans-2e" x="63.623047"/>
       <use xlink:href="#DejaVuSans-30" x="95.410156"/>
       <use xlink:href="#DejaVuSans-30" x="159.033203"/>
       <use xlink:href="#DejaVuSans-30" x="222.65625"/>
       <use xlink:href="#DejaVuSans-30" x="286.279297"/>
      </g>
     </g>
    </g>
    <g id="ytick_2">
     <g id="line2d_10">
      <g>
       <use xlink:href="#mdf0f4b2dda" x="90" y="167.475728" style="stroke: #000000; stroke-width: 0.8"/>
      </g>
     </g>
     <g id="text_9">
      <!-- 0.0025 -->
      <g transform="translate(48.009375 171.274947) scale(0.1 -0.1)">
       <defs>
        <path id="DejaVuSans-35" d="M 691 4666 
L 3169 4666 
L 3169 4134 
L 1269 4134 
L 1269 2991 
Q 1406 3038 1543 3061 
Q 1681 3084 1819 3084 
Q 2600 3084 3056 2656 
Q 3513 2228 3513 1497 
Q 3513 744 3044 326 
Q 2575 -91 1722 -91 
Q 1428 -91 1123 -41 
Q 819 9 494 109 
L 494 744 
Q 775 591 1075 516 
Q 1375 441 1709 441 
Q 2250 441 2565 725 
Q 2881 1009 2881 1497 
Q 2881 1984 2565 2268 
Q 2250 2553 1709 2553 
Q 1456 2553 1204 2497 
Q 953 2441 691 2322 
L 691 4666 
z
" transform="scale(0.015625)"/>
       </defs>
       <use xlink:href="#DejaVuSans-30"/>
       <use xlink:href="#DejaVuSans-2e" x="63.623047"/>
       <use xlink:href="#DejaVuSans-30" x="95.410156"/>
       <use xlink:href="#DejaVuSans-30" x="159.033203"/>
       <use xlink:href="#DejaVuSans-32" x="222.65625"/>
       <use xlink:href="#DejaVuSans-35" x="286.279297"/>
      </g>
     </g>
    </g>
    <g id="ytick_3">
     <g id="line2d_11">
      <g>
       <use xlink:href="#mdf0f4b2dda" x="90" y="142.711456" style="stroke: #000000; stroke-width: 0.8"/>
      </g>
     </g>
     <g id="text_10">
      <!-- 0.0050 -->
      <g transform="translate(48.009375 146.510675) scale(0.1 -0.1)">
       <use xlink:href="#DejaVuSans-30"/>
       <use xlink:href="#DejaVuSans-2e" x="63.623047"/>
       <use xlink:href="#DejaVuSans-30" x="95.410156"/>
       <use xlink:href="#DejaVuSans-30" x="159.033203"/>
       <use xlink:href="#DejaVuSans-35" x="222.65625"/>
       <use xlink:href="#DejaVuSans-30" x="286.279297"/>
      </g>
     </g>
    </g>
    <g id="ytick_4">
     <g id="line2d_12">
      <g>
       <use xlink:href="#mdf0f4b2dda" x="90" y="117.947184" style="stroke: #000000; stroke-width: 0.8"/>
      </g>
     </g>
     <g id="text_11">
      <!-- 0.0075 -->
      <g transform="translate(48.009375 121.746403) scale(0.1 -0.1)">
       <defs>
        <path id="DejaVuSans-37" d="M 525 4666 
L 3525 4666 
L 3525 4397 
L 1831 0 
L 1172 0 
L 2766 4134 
L 525 4134 
L 525 4666 
z
" transform="scale(0.015625)"/>
       </defs>
       <use xlink:href="#DejaVuSans-30"/>
       <use xlink:href="#DejaVuSans-2e" x="63.623047"/>
       <use xlink:href="#DejaVuSans-30" x="95.410156"/>
       <use xlink:href="#DejaVuSans-30" x="159.033203"/>
       <use xlink:href="#DejaVuSans-37" x="222.65625"/>
       <use xlink:href="#DejaVuSans-35" x="286.279297"/>
      </g>
     </g>
    </g>
    <g id="ytick_5">
     <g id="line2d_13">
      <g>
       <use xlink:href="#mdf0f4b2dda" x="90" y="93.182912" style="stroke: #000000; stroke-width: 0.8"/>
      </g>
     </g>
     <g id="text_12">
      <!-- 0.0100 -->
      <g transform="translate(48.009375 96.982131) scale(0.1 -0.1)">
       <use xlink:href="#DejaVuSans-30"/>
       <use xlink:href="#DejaVuSans-2e" x="63.623047"/>
       <use xlink:href="#DejaVuSans-30" x="95.410156"/>
       <use xlink:href="#DejaVuSans-31" x="159.033203"/>
       <use xlink:href="#DejaVuSans-30" x="222.65625"/>
       <use xlink:href="#DejaVuSans-30" x="286.279297"/>
      </g>
     </g>
    </g>
    <g id="ytick_6">
     <g id="line2d_14">
      <g>
       <use xlink:href="#mdf0f4b2dda" x="90" y="68.41864" style="stroke: #000000; stroke-width: 0.8"/>
      </g>
     </g>
     <g id="text_13">
      <!-- 0.0125 -->
      <g transform="translate(48.009375 72.217859) scale(0.1 -0.1)">
       <use xlink:href="#DejaVuSans-30"/>
       <use xlink:href="#DejaVuSans-2e" x="63.623047"/>
       <use xlink:href="#DejaVuSans-30" x="95.410156"/>
       <use xlink:href="#DejaVuSans-31" x="159.033203"/>
       <use xlink:href="#DejaVuSans-32" x="222.65625"/>
       <use xlink:href="#DejaVuSans-35" x="286.279297"/>
      </g>
     </g>
    </g>
    <g id="ytick_7">
     <g id="line2d_15">
      <g>
       <use xlink:href="#mdf0f4b2dda" x="90" y="43.654368" style="stroke: #000000; stroke-width: 0.8"/>
      </g>
     </g>
     <g id="text_14">
      <!-- 0.0150 -->
      <g transform="translate(48.009375 47.453587) scale(0.1 -0.1)">
       <use xlink:href="#DejaVuSans-30"/>
       <use xlink:href="#DejaVuSans-2e" x="63.623047"/>
       <use xlink:href="#DejaVuSans-30" x="95.410156"/>
       <use xlink:href="#DejaVuSans-31" x="159.033203"/>
       <use xlink:href="#DejaVuSans-35" x="222.65625"/>
       <use xlink:href="#DejaVuSans-30" x="286.279297"/>
      </g>
     </g>
    </g>
   </g>
  </g>
 </g>
 <defs>
  <clipPath id="p62fd8d6e21">
   <rect x="90" y="25.92" width="558" height="166.32"/>
  </clipPath>
 </defs>
</svg>
