<?xml version="1.0" encoding="utf-8" standalone="no"?>
<!DOCTYPE svg PUBLIC "-//W3C//DTD SVG 1.1//EN"
  "http://www.w3.org/Graphics/SVG/1.1/DTD/svg11.dtd">
<svg xmlns:xlink="http://www.w3.org/1999/xlink" width="720pt" height="216pt" viewBox="0 0 720 216" xmlns="http://www.w3.org/2000/svg" version="1.1">
 <metadata>
  <rdf:RDF xmlns:dc="http://purl.org/dc/elements/1.1/" xmlns:cc="http://creativecommons.org/ns#" xmlns:rdf="http://www.w3.org/1999/02/22-rdf-syntax-ns#">
   <cc:Work>
    <dc:type rdf:resource="http://purl.org/dc/dcmitype/StillImage"/>
    <dc:date>2024-11-23T04:41:31.512012</dc:date>
    <dc:format>image/svg+xml</dc:format>
    <dc:creator>
     <cc:Agent>
      <dc:title>Matplotlib v3.7.2, https://matplotlib.org/</dc:title>
     </cc:Agent>
    </dc:creator>
   </cc:Work>
  </rdf:RDF>
 </metadata>
 <defs>
  <style type="text/css">*{stroke-linejoin: round; stroke-linecap: butt}</style>
 </defs>
 <g id="figure_1">
  <g id="patch_1">
   <path d="M 0 216 
L 720 216 
L 720 0 
L 0 0 
z
" style="fill: #ffffff"/>
  </g>
  <g id="axes_1">
   <g id="patch_2">
    <path d="M 90 192.24 
L 648 192.24 
L 648 25.92 
L 90 25.92 
z
" style="fill: #ffffff"/>
   </g>
   <g id="line2d_1">
    <path d="M 90 192.24 
L 648 192.24 
" clip-path="url(#pa2440c461f)" style="fill: none; stroke: #000000; stroke-width: 0.5; stroke-linecap: square"/>
   </g>
   <g id="patch_3">
    <path d="M 102.260459 191.455964 
L 95.453516 191.455964 
L 94.378735 192.24 
L 90 192.24 
L 96.253268 187.936102 
L 101.446231 187.936102 
L 107.699499 192.24 
L 103.324383 192.24 
L 102.260459 191.455964 
z
M 96.539153 190.657169 
L 101.163965 190.657169 
L 98.855178 188.945203 
L 96.539153 190.657169 
z
" clip-path="url(#pa2440c461f)" style="fill: #008000"/>
   </g>
   <g id="patch_4">
    <path d="M 90 182.206567 
L 107.699499 182.206567 
L 107.699499 183.323986 
L 101.331796 183.323986 
L 101.331796 187.936102 
L 96.380052 187.936102 
L 96.380052 183.323986 
L 90 183.323986 
L 90 182.206567 
z
" clip-path="url(#pa2440c461f)" style="fill: #ff0000"/>
   </g>
   <g id="patch_5">
    <path d="M 107.699499 179.221759 
Q 105.914476 180.714163 103.994584 181.463772 
Q 102.074692 182.206567 100.027865 182.206567 
Q 95.402671 182.206567 92.701335 177.763429 
Q 90 173.32029 90 165.721979 
Q 90 158.035077 92.748936 153.626012 
Q 95.501839 149.216947 100.289668 149.216947 
Q 102.134193 149.216947 103.824015 149.816635 
Q 105.517804 150.409507 107.017224 151.581624 
L 107.017224 158.157741 
Q 105.470203 156.651708 103.93905 155.908913 
Q 102.407896 155.159304 100.868809 155.159304 
Q 98.020705 155.159304 96.477652 157.898785 
Q 94.934598 160.631451 94.934598 165.721979 
Q 94.934598 170.764804 96.422118 173.517915 
Q 97.909637 176.26421 100.646673 176.26421 
Q 101.392416 176.26421 102.031058 176.107474 
Q 102.6697 175.943923 103.17744 175.603191 
L 103.17744 169.429137 
L 100.261901 169.429137 
L 100.261901 163.929732 
L 107.699499 163.929732 
L 107.699499 179.221759 
z
" clip-path="url(#pa2440c461f)" style="fill: #ffa600"/>
   </g>
   <g id="patch_6">
    <path d="M 107.699499 146.010462 
Q 106.218967 147.599844 104.618029 148.403775 
Q 103.017092 149.216947 101.273453 149.216947 
Q 96.073751 149.216947 93.036876 143.192081 
Q 90 137.167214 90 126.863954 
Q 90 116.52373 93.036876 110.508104 
Q 96.073751 104.483238 101.273453 104.483238 
Q 103.017092 104.483238 104.618029 105.29641 
Q 106.218967 106.100342 107.699499 107.689724 
L 107.699499 116.606896 
Q 106.205588 114.50004 104.756272 113.520538 
Q 103.306955 112.541035 101.706018 112.541035 
Q 98.834142 112.541035 97.18861 116.3574 
Q 95.547538 120.164524 95.547538 126.863954 
Q 95.547538 133.535661 97.18861 137.352026 
Q 98.834142 141.15915 101.706018 141.15915 
Q 103.306955 141.15915 104.756272 140.179648 
Q 106.205588 139.190904 107.699499 137.084049 
L 107.699499 146.010462 
z
" clip-path="url(#pa2440c461f)" style="fill: #0000ff"/>
   </g>
   <g id="patch_7">
    <path d="M 120.89151 191.200972 
L 114.084567 191.200972 
L 113.009787 192.24 
L 108.631052 192.24 
L 114.88432 186.53635 
L 120.077283 186.53635 
L 126.330551 192.24 
L 121.955434 192.24 
L 120.89151 191.200972 
z
M 115.170204 190.142387 
L 119.795017 190.142387 
L 117.48623 187.873639 
L 115.170204 190.142387 
z
" clip-path="url(#pa2440c461f)" style="fill: #008000"/>
   </g>
   <g id="patch_8">
    <path d="M 108.631052 173.514607 
L 126.330551 173.514607 
L 126.330551 176.05421 
L 119.962847 176.05421 
L 119.962847 186.53635 
L 115.011104 186.53635 
L 115.011104 176.05421 
L 108.631052 176.05421 
L 108.631052 173.514607 
z
" clip-path="url(#pa2440c461f)" style="fill: #ff0000"/>
   </g>
   <g id="patch_9">
    <path d="M 126.330551 170.788294 
Q 124.545527 172.151451 122.625636 172.836141 
Q 120.705744 173.514607 118.658917 173.514607 
Q 114.033723 173.514607 111.332387 169.45626 
Q 108.631052 165.397912 108.631052 158.45764 
Q 108.631052 151.43645 111.379988 147.409225 
Q 114.132891 143.382 118.92072 143.382 
Q 120.765244 143.382 122.455067 143.929753 
Q 124.148856 144.47128 125.648275 145.541887 
L 125.648275 151.548491 
Q 124.101255 150.172885 122.570102 149.494419 
Q 121.038948 148.809729 119.499861 148.809729 
Q 116.651757 148.809729 115.108704 151.311961 
Q 113.56565 153.807969 113.56565 158.45764 
Q 113.56565 163.06374 115.053169 165.578422 
Q 116.540689 168.086879 119.277725 168.086879 
Q 120.023468 168.086879 120.66211 167.943716 
Q 121.300752 167.794329 121.808492 167.483106 
L 121.808492 161.843746 
L 118.892953 161.843746 
L 118.892953 156.820608 
L 126.330551 156.820608 
L 126.330551 170.788294 
z
" clip-path="url(#pa2440c461f)" style="fill: #ffa600"/>
   </g>
   <g id="patch_10">
    <path d="M 126.330551 140.48364 
Q 124.850018 141.920291 123.249081 142.646969 
Q 121.648144 143.382 119.904504 143.382 
Q 114.704803 143.382 111.667927 137.936091 
Q 108.631052 132.490181 108.631052 123.177008 
Q 108.631052 113.830424 111.667927 108.392867 
Q 114.704803 102.946958 119.904504 102.946958 
Q 121.648144 102.946958 123.249081 103.681988 
Q 124.850018 104.408666 126.330551 105.845317 
L 126.330551 113.905597 
Q 124.83664 112.0012 123.387324 111.115822 
Q 121.938007 110.230444 120.33707 110.230444 
Q 117.465193 110.230444 115.819662 113.680077 
Q 114.178589 117.121357 114.178589 123.177008 
Q 114.178589 129.207601 115.819662 132.657234 
Q 117.465193 136.098514 120.33707 136.098514 
Q 121.938007 136.098514 123.387324 135.213136 
Q 124.83664 134.319405 126.330551 132.415008 
L 126.330551 140.48364 
z
" clip-path="url(#pa2440c461f)" style="fill: #0000ff"/>
   </g>
   <g id="patch_11">
    <path d="M 127.262104 188.403774 
L 144.961603 188.403774 
L 144.961603 189.151945 
L 138.593899 189.151945 
L 138.593899 192.24 
L 133.642156 192.24 
L 133.642156 189.151945 
L 127.262104 189.151945 
L 127.262104 188.403774 
z
" clip-path="url(#pa2440c461f)" style="fill: #ff0000"/>
   </g>
   <g id="patch_12">
    <path d="M 139.522562 187.64792 
L 132.715619 187.64792 
L 131.640839 188.403774 
L 127.262104 188.403774 
L 133.515372 184.25458 
L 138.708335 184.25458 
L 144.961603 188.403774 
L 140.586486 188.403774 
L 139.522562 187.64792 
z
M 133.801256 186.877838 
L 138.426069 186.877838 
L 136.117281 185.227409 
L 133.801256 186.877838 
z
" clip-path="url(#pa2440c461f)" style="fill: #008000"/>
   </g>
   <g id="patch_13">
    <path d="M 144.961603 182.530549 
Q 143.176579 183.392565 141.256687 183.825541 
Q 139.336795 184.25458 137.289969 184.25458 
Q 132.664774 184.25458 129.963439 181.688215 
Q 127.262104 179.121849 127.262104 174.733049 
Q 127.262104 170.293079 130.01104 167.746394 
Q 132.763942 165.199709 137.551772 165.199709 
Q 139.396296 165.199709 141.086118 165.54609 
Q 142.779907 165.888534 144.279327 166.565551 
L 144.279327 170.363929 
Q 142.732307 169.494042 141.201153 169.065002 
Q 139.67 168.632026 138.130913 168.632026 
Q 135.282809 168.632026 133.739755 170.214356 
Q 132.196702 171.79275 132.196702 174.733049 
Q 132.196702 177.645795 133.684221 179.235997 
Q 135.171741 180.822263 137.908777 180.822263 
Q 138.65452 180.822263 139.293162 180.731732 
Q 139.931803 180.637264 140.439543 180.440457 
L 140.439543 176.874311 
L 137.524005 176.874311 
L 137.524005 173.697843 
L 144.961603 173.697843 
L 144.961603 182.530549 
z
" clip-path="url(#pa2440c461f)" style="fill: #ffa600"/>
   </g>
   <g id="patch_14">
    <path d="M 144.961603 161.649842 
Q 143.48107 163.40943 141.880133 164.299454 
Q 140.279195 165.199709 138.535556 165.199709 
Q 133.335855 165.199709 130.298979 158.529641 
Q 127.262104 151.859574 127.262104 140.45294 
Q 127.262104 129.005385 130.298979 122.345548 
Q 133.335855 115.675481 138.535556 115.675481 
Q 140.279195 115.675481 141.880133 116.575735 
Q 143.48107 117.465759 144.961603 119.225348 
L 144.961603 129.097457 
Q 143.467692 126.764979 142.018375 125.680582 
Q 140.569059 124.596184 138.968121 124.596184 
Q 136.096245 124.596184 134.450713 128.821242 
Q 132.809641 133.03607 132.809641 140.45294 
Q 132.809641 147.839119 134.450713 152.064177 
Q 136.096245 156.279005 138.968121 156.279005 
Q 140.569059 156.279005 142.018375 155.194608 
Q 143.467692 154.09998 144.961603 151.767502 
L 144.961603 161.649842 
z
" clip-path="url(#pa2440c461f)" style="fill: #0000ff"/>
   </g>
   <g id="patch_15">
    <path d="M 163.592654 192.023843 
Q 161.807631 192.131922 159.887739 192.186208 
Q 157.967847 192.24 155.92102 192.24 
Q 151.295826 192.24 148.594491 191.918232 
Q 145.893155 191.596465 145.893155 191.046202 
Q 145.893155 190.489525 148.642091 190.170225 
Q 151.394994 189.850924 156.182824 189.850924 
Q 158.027348 189.850924 159.71717 189.894353 
Q 161.410959 189.937288 162.910379 190.022172 
L 162.910379 190.498408 
Q 161.363358 190.389342 159.832205 190.33555 
Q 158.301052 190.281264 156.761965 190.281264 
Q 153.913861 190.281264 152.370807 190.479654 
Q 150.827753 190.677551 150.827753 191.046202 
Q 150.827753 191.411399 152.315273 191.610776 
Q 153.802792 191.80966 156.539828 191.80966 
Q 157.285572 191.80966 157.924213 191.79831 
Q 158.562855 191.786466 159.070595 191.76179 
L 159.070595 191.314671 
L 156.155057 191.314671 
L 156.155057 190.91641 
L 163.592654 190.91641 
L 163.592654 192.023843 
z
" clip-path="url(#pa2440c461f)" style="fill: #ffa600"/>
   </g>
   <g id="patch_16">
    <path d="M 145.893155 186.907761 
L 163.592654 186.907761 
L 163.592654 187.48176 
L 157.224951 187.48176 
L 157.224951 189.850924 
L 152.273207 189.850924 
L 152.273207 187.48176 
L 145.893155 187.48176 
L 145.893155 186.907761 
z
" clip-path="url(#pa2440c461f)" style="fill: #ff0000"/>
   </g>
   <g id="patch_17">
    <path d="M 158.153614 183.329831 
L 151.346671 183.329831 
L 150.27189 186.907761 
L 145.893155 186.907761 
L 152.146423 167.26703 
L 157.339386 167.26703 
L 163.592654 186.907761 
L 159.217538 186.907761 
L 158.153614 183.329831 
z
M 152.432308 179.684552 
L 157.057121 179.684552 
L 154.748333 171.872036 
L 152.432308 179.684552 
z
" clip-path="url(#pa2440c461f)" style="fill: #008000"/>
   </g>
   <g id="patch_18">
    <path d="M 163.592654 164.308613 
Q 162.112122 165.775033 160.511185 166.516769 
Q 158.910247 167.26703 157.166608 167.26703 
Q 151.966906 167.26703 148.930031 161.708275 
Q 145.893155 156.149519 145.893155 146.643365 
Q 145.893155 137.103108 148.930031 131.552878 
Q 151.966906 125.994123 157.166608 125.994123 
Q 158.910247 125.994123 160.511185 126.744384 
Q 162.112122 127.48612 163.592654 128.95254 
L 163.592654 137.179839 
Q 162.098744 135.23598 160.649427 134.332256 
Q 159.200111 133.428532 157.599173 133.428532 
Q 154.727297 133.428532 153.081765 136.949646 
Q 151.440693 140.462233 151.440693 146.643365 
Q 151.440693 152.798919 153.081765 156.320033 
Q 154.727297 159.832621 157.599173 159.832621 
Q 159.200111 159.832621 160.649427 158.928897 
Q 162.098744 158.016647 163.592654 156.072788 
L 163.592654 164.308613 
z
" clip-path="url(#pa2440c461f)" style="fill: #0000ff"/>
   </g>
   <g id="patch_19">
    <path d="M 176.784666 191.994193 
L 169.977723 191.994193 
L 168.902942 192.24 
L 164.524207 192.24 
L 170.777475 190.890664 
L 175.970438 190.890664 
L 182.223706 192.24 
L 177.84859 192.24 
L 176.784666 191.994193 
z
M 171.06336 191.743759 
L 175.688172 191.743759 
L 173.379385 191.207032 
L 171.06336 191.743759 
z
" clip-path="url(#pa2440c461f)" style="fill: #008000"/>
   </g>
   <g id="patch_20">
    <path d="M 164.524207 186.550502 
L 182.223706 186.550502 
L 182.223706 187.396955 
L 175.856003 187.396955 
L 175.856003 190.890664 
L 170.904259 190.890664 
L 170.904259 187.396955 
L 164.524207 187.396955 
L 164.524207 186.550502 
z
" clip-path="url(#pa2440c461f)" style="fill: #ff0000"/>
   </g>
   <g id="patch_21">
    <path d="M 182.223706 186.130396 
Q 180.438683 186.340449 178.518791 186.445955 
Q 176.598899 186.550502 174.552072 186.550502 
Q 169.926878 186.550502 167.225542 185.925139 
Q 164.524207 185.299776 164.524207 184.230328 
Q 164.524207 183.148411 167.273143 182.527843 
Q 170.026046 181.907276 174.813876 181.907276 
Q 176.6584 181.907276 178.348222 181.991681 
Q 180.042011 182.075126 181.541431 182.240099 
L 181.541431 183.165676 
Q 179.99441 182.953704 178.463257 182.849157 
Q 176.932103 182.743651 175.393016 182.743651 
Q 172.544912 182.743651 171.001859 183.129228 
Q 169.458805 183.513846 169.458805 184.230328 
Q 169.458805 184.940096 170.946325 185.327591 
Q 172.433844 185.714127 175.17088 185.714127 
Q 175.916623 185.714127 176.555265 185.692066 
Q 177.193907 185.669047 177.701647 185.62109 
L 177.701647 184.752103 
L 174.786108 184.752103 
L 174.786108 183.978072 
L 182.223706 183.978072 
L 182.223706 186.130396 
z
" clip-path="url(#pa2440c461f)" style="fill: #ffa600"/>
   </g>
   <g id="patch_22">
    <path d="M 182.223706 179.628297 
Q 180.743174 180.757935 179.142236 181.329321 
Q 177.541299 181.907276 175.79766 181.907276 
Q 170.597958 181.907276 167.561083 177.62516 
Q 164.524207 173.343043 164.524207 166.020099 
Q 164.524207 158.670884 167.561083 154.395336 
Q 170.597958 150.113219 175.79766 150.113219 
Q 177.541299 150.113219 179.142236 150.691174 
Q 180.743174 151.26256 182.223706 152.392198 
L 182.223706 158.729993 
Q 180.729795 157.232566 179.280479 156.536394 
Q 177.831162 155.840222 176.230225 155.840222 
Q 173.358349 155.840222 171.712817 158.552666 
Q 170.071745 161.258543 170.071745 166.020099 
Q 170.071745 170.761952 171.712817 173.474397 
Q 173.358349 176.180274 176.230225 176.180274 
Q 177.831162 176.180274 179.280479 175.484101 
Q 180.729795 174.781361 182.223706 173.283934 
L 182.223706 179.628297 
z
" clip-path="url(#pa2440c461f)" style="fill: #0000ff"/>
   </g>
   <g id="patch_23">
    <path d="M 183.155259 183.099809 
L 200.854758 183.099809 
L 200.854758 184.882401 
L 194.487054 184.882401 
L 194.487054 192.24 
L 189.535311 192.24 
L 189.535311 184.882401 
L 183.155259 184.882401 
L 183.155259 183.099809 
z
" clip-path="url(#pa2440c461f)" style="fill: #ff0000"/>
   </g>
   <g id="patch_24">
    <path d="M 195.415717 181.291309 
L 188.608774 181.291309 
L 187.533994 183.099809 
L 183.155259 183.099809 
L 189.408527 173.172206 
L 194.60149 173.172206 
L 200.854758 183.099809 
L 196.479641 183.099809 
L 195.415717 181.291309 
z
M 189.694411 179.448766 
L 194.319224 179.448766 
L 192.010437 175.499852 
L 189.694411 179.448766 
z
" clip-path="url(#pa2440c461f)" style="fill: #008000"/>
   </g>
   <g id="patch_25">
    <path d="M 200.854758 171.340039 
Q 199.374225 172.248202 197.773288 172.707564 
Q 196.172351 173.172206 194.428711 173.172206 
Q 189.22901 173.172206 186.192134 169.729633 
Q 183.155259 166.287061 183.155259 160.399841 
Q 183.155259 154.4915 186.192134 151.054208 
Q 189.22901 147.611636 194.428711 147.611636 
Q 196.172351 147.611636 197.773288 148.076277 
Q 199.374225 148.535639 200.854758 149.443802 
L 200.854758 154.53902 
Q 199.360847 153.335176 197.911531 152.775494 
Q 196.462214 152.215812 194.861277 152.215812 
Q 191.9894 152.215812 190.343869 154.396459 
Q 188.702796 156.571827 188.702796 160.399841 
Q 188.702796 164.212014 190.343869 166.392662 
Q 191.9894 168.568029 194.861277 168.568029 
Q 196.462214 168.568029 197.911531 168.008347 
Q 199.360847 167.443385 200.854758 166.239541 
L 200.854758 171.340039 
z
" clip-path="url(#pa2440c461f)" style="fill: #0000ff"/>
   </g>
   <g id="patch_26">
    <path d="M 214.046769 191.994098 
L 207.239826 191.994098 
L 206.165046 192.24 
L 201.786311 192.24 
L 208.039579 190.890142 
L 213.232542 190.890142 
L 219.48581 192.24 
L 215.110693 192.24 
L 214.046769 191.994098 
z
M 208.325463 191.743567 
L 212.950276 191.743567 
L 210.641488 191.206633 
L 208.325463 191.743567 
z
" clip-path="url(#pa2440c461f)" style="fill: #008000"/>
   </g>
   <g id="patch_27">
    <path d="M 201.786311 184.29861 
L 219.48581 184.29861 
L 219.48581 185.584143 
L 213.118106 185.584143 
L 213.118106 190.890142 
L 208.166363 190.890142 
L 208.166363 185.584143 
L 201.786311 185.584143 
L 201.786311 184.29861 
z
" clip-path="url(#pa2440c461f)" style="fill: #ff0000"/>
   </g>
   <g id="patch_28">
    <path d="M 219.48581 183.183223 
Q 218.005277 183.736095 216.40434 184.015745 
Q 214.803402 184.29861 213.059763 184.29861 
Q 207.860062 184.29861 204.823186 182.202839 
Q 201.786311 180.107067 201.786311 176.523041 
Q 201.786311 172.926157 204.823186 170.8336 
Q 207.860062 168.737828 213.059763 168.737828 
Q 214.803402 168.737828 216.40434 169.020693 
Q 218.005277 169.300344 219.48581 169.853216 
L 219.48581 172.955086 
Q 217.991899 172.222209 216.542582 171.881485 
Q 215.093266 171.540762 213.492328 171.540762 
Q 210.620452 171.540762 208.97492 172.868298 
Q 207.333848 174.19262 207.333848 176.523041 
Q 207.333848 178.843818 208.97492 180.171355 
Q 210.620452 181.495677 213.492328 181.495677 
Q 215.093266 181.495677 216.542582 181.154953 
Q 217.991899 180.811015 219.48581 180.078138 
L 219.48581 183.183223 
z
" clip-path="url(#pa2440c461f)" style="fill: #0000ff"/>
   </g>
   <g id="patch_29">
    <path d="M 220.417362 190.27164 
L 238.116861 190.27164 
L 238.116861 190.655525 
L 231.749158 190.655525 
L 231.749158 192.24 
L 226.797414 192.24 
L 226.797414 190.655525 
L 220.417362 190.655525 
L 220.417362 190.27164 
z
" clip-path="url(#pa2440c461f)" style="fill: #ff0000"/>
   </g>
   <g id="patch_30">
    <path d="M 232.677821 189.672311 
L 225.870878 189.672311 
L 224.796097 190.27164 
L 220.417362 190.27164 
L 226.67063 186.981675 
L 231.863593 186.981675 
L 238.116861 190.27164 
L 233.741745 190.27164 
L 232.677821 189.672311 
z
M 226.956515 189.0617 
L 231.581328 189.0617 
L 229.27254 187.753047 
L 226.956515 189.0617 
z
" clip-path="url(#pa2440c461f)" style="fill: #008000"/>
   </g>
   <g id="patch_31">
    <path d="M 238.116861 182.114638 
Q 236.636329 184.527117 235.035392 185.747383 
Q 233.434454 186.981675 231.690815 186.981675 
Q 226.491113 186.981675 223.454238 177.836695 
Q 220.417362 168.691714 220.417362 153.052676 
Q 220.417362 137.357533 223.454238 128.226578 
Q 226.491113 119.081598 231.690815 119.081598 
Q 233.434454 119.081598 235.035392 120.31589 
Q 236.636329 121.536156 238.116861 123.948635 
L 238.116861 137.483767 
Q 236.622951 134.285829 235.173634 132.799069 
Q 233.724318 131.312308 232.12338 131.312308 
Q 229.251504 131.312308 227.605972 137.105064 
Q 225.9649 142.883794 225.9649 153.052676 
Q 225.9649 163.179479 227.605972 168.972235 
Q 229.251504 174.750965 232.12338 174.750965 
Q 233.724318 174.750965 235.173634 173.264204 
Q 236.622951 171.763418 238.116861 168.56548 
L 238.116861 182.114638 
z
" clip-path="url(#pa2440c461f)" style="fill: #0000ff"/>
   </g>
   <g id="patch_32">
    <path d="M 239.048414 176.481022 
L 256.747913 176.481022 
L 256.747913 179.554462 
L 250.38021 179.554462 
L 250.38021 192.24 
L 245.428466 192.24 
L 245.428466 179.554462 
L 239.048414 179.554462 
L 239.048414 176.481022 
z
" clip-path="url(#pa2440c461f)" style="fill: #ff0000"/>
   </g>
   <g id="patch_33">
    <path d="M 256.747913 175.002879 
Q 254.96289 175.741951 253.042998 176.113174 
Q 251.123106 176.481022 249.076279 176.481022 
Q 244.451085 176.481022 241.74975 174.280681 
Q 239.048414 172.08034 239.048414 168.317486 
Q 239.048414 164.510761 241.79735 162.327293 
Q 244.550253 160.143826 249.338083 160.143826 
Q 251.182607 160.143826 252.872429 160.440804 
Q 254.566218 160.734408 256.065638 161.314866 
L 256.065638 164.571506 
Q 254.518617 163.825685 252.987464 163.457837 
Q 251.45631 163.086614 249.917223 163.086614 
Q 247.069119 163.086614 245.526066 164.443266 
Q 243.983012 165.796543 243.983012 168.317486 
Q 243.983012 170.814806 245.470532 172.178208 
Q 246.958051 173.538235 249.695087 173.538235 
Q 250.44083 173.538235 251.079472 173.460615 
Q 251.718114 173.379621 252.225854 173.210883 
L 252.225854 170.153354 
L 249.310315 170.153354 
L 249.310315 167.429925 
L 256.747913 167.429925 
L 256.747913 175.002879 
z
" clip-path="url(#pa2440c461f)" style="fill: #ffa600"/>
   </g>
   <g id="patch_34">
    <path d="M 256.747913 158.939113 
Q 255.267381 159.536262 253.666443 159.838308 
Q 252.065506 160.143826 250.321867 160.143826 
Q 245.122165 160.143826 242.08529 157.880216 
Q 239.048414 155.616607 239.048414 151.745557 
Q 239.048414 147.860619 242.08529 145.600481 
Q 245.122165 143.336872 250.321867 143.336872 
Q 252.065506 143.336872 253.666443 143.64239 
Q 255.267381 143.944436 256.747913 144.541584 
L 256.747913 147.891865 
Q 255.254002 147.100296 253.804686 146.732286 
Q 252.355369 146.364276 250.754432 146.364276 
Q 247.882556 146.364276 246.237024 147.798127 
Q 244.595952 149.228506 244.595952 151.745557 
Q 244.595952 154.252192 246.237024 155.686043 
Q 247.882556 157.116422 250.754432 157.116422 
Q 252.355369 157.116422 253.804686 156.748411 
Q 255.254002 156.37693 256.747913 155.585361 
L 256.747913 158.939113 
z
" clip-path="url(#pa2440c461f)" style="fill: #0000ff"/>
   </g>
   <g id="patch_35">
    <path d="M 269.939924 192.128667 
L 263.132981 192.128667 
L 262.058201 192.24 
L 257.679466 192.24 
L 263.932734 191.628845 
L 269.125697 191.628845 
L 275.378965 192.24 
L 271.003849 192.24 
L 269.939924 192.128667 
z
M 264.218618 192.015238 
L 268.843431 192.015238 
L 266.534644 191.772138 
L 264.218618 192.015238 
z
" clip-path="url(#pa2440c461f)" style="fill: #008000"/>
   </g>
   <g id="patch_36">
    <path d="M 257.679466 185.099661 
L 275.378965 185.099661 
L 275.378965 186.373034 
L 269.011261 186.373034 
L 269.011261 191.628845 
L 264.059518 191.628845 
L 264.059518 186.373034 
L 257.679466 186.373034 
L 257.679466 185.099661 
z
" clip-path="url(#pa2440c461f)" style="fill: #ff0000"/>
   </g>
   <g id="patch_37">
    <path d="M 275.378965 180.535696 
Q 273.898432 182.797949 272.297495 183.942229 
Q 270.696558 185.099661 268.952919 185.099661 
Q 263.753217 185.099661 260.716341 176.524141 
Q 257.679466 167.948622 257.679466 153.283431 
Q 257.679466 138.56563 260.716341 130.003263 
Q 263.753217 121.427743 268.952919 121.427743 
Q 270.696558 121.427743 272.297495 122.585175 
Q 273.898432 123.729455 275.378965 125.991708 
L 275.378965 138.684004 
Q 273.885054 135.685202 272.435738 134.291023 
Q 270.986421 132.896843 269.385484 132.896843 
Q 266.513607 132.896843 264.868076 138.328882 
Q 263.227003 143.747769 263.227003 153.283431 
Q 263.227003 162.779635 264.868076 168.211674 
Q 266.513607 173.630561 269.385484 173.630561 
Q 270.986421 173.630561 272.435738 172.236382 
Q 273.885054 170.829049 275.378965 167.830248 
L 275.378965 180.535696 
z
" clip-path="url(#pa2440c461f)" style="fill: #0000ff"/>
   </g>
   <g id="patch_38">
    <path d="M 288.570976 191.749518 
L 281.764033 191.749518 
L 280.689253 192.24 
L 276.310518 192.24 
L 282.563786 189.54754 
L 287.756749 189.54754 
L 294.010017 192.24 
L 289.6349 192.24 
L 288.570976 191.749518 
z
M 282.84967 191.249802 
L 287.474483 191.249802 
L 285.165695 190.178819 
L 282.84967 191.249802 
z
" clip-path="url(#pa2440c461f)" style="fill: #008000"/>
   </g>
   <g id="patch_39">
    <path d="M 276.310518 174.642241 
L 294.010017 174.642241 
L 294.010017 177.549189 
L 287.642313 177.549189 
L 287.642313 189.54754 
L 282.69057 189.54754 
L 282.69057 177.549189 
L 276.310518 177.549189 
L 276.310518 174.642241 
z
" clip-path="url(#pa2440c461f)" style="fill: #ff0000"/>
   </g>
   <g id="patch_40">
    <path d="M 294.010017 173.497584 
Q 292.529484 174.064964 290.928547 174.351953 
Q 289.32761 174.642241 287.58397 174.642241 
Q 282.384269 174.642241 279.347393 172.491473 
Q 276.310518 170.340706 276.310518 166.66263 
Q 276.310518 162.971359 279.347393 160.823891 
Q 282.384269 158.673124 287.58397 158.673124 
Q 289.32761 158.673124 290.928547 158.963411 
Q 292.529484 159.2504 294.010017 159.817781 
L 294.010017 163.001048 
Q 292.516106 162.248939 291.066789 161.899275 
Q 289.617473 161.54961 288.016535 161.54961 
Q 285.144659 161.54961 283.499127 162.911982 
Q 281.858055 164.271056 281.858055 166.66263 
Q 281.858055 169.044308 283.499127 170.406681 
Q 285.144659 171.765754 288.016535 171.765754 
Q 289.617473 171.765754 291.066789 171.41609 
Q 292.516106 171.063126 294.010017 170.311018 
L 294.010017 173.497584 
z
" clip-path="url(#pa2440c461f)" style="fill: #0000ff"/>
   </g>
   <g id="patch_41">
    <path d="M 294.010017 156.531169 
Q 292.224993 157.602146 290.305101 158.14008 
Q 288.385209 158.673124 286.338383 158.673124 
Q 281.713188 158.673124 279.011853 155.484643 
Q 276.310518 152.296161 276.310518 146.843467 
Q 276.310518 141.327199 279.059454 138.16317 
Q 281.812356 134.99914 286.600186 134.99914 
Q 288.44471 134.99914 290.134532 135.429487 
Q 291.828321 135.854944 293.327741 136.696077 
L 293.327741 141.415225 
Q 291.780721 140.334467 290.249567 139.801423 
Q 288.718414 139.263489 287.179327 139.263489 
Q 284.331223 139.263489 282.788169 141.229393 
Q 281.245116 143.190407 281.245116 146.843467 
Q 281.245116 150.462296 282.732635 152.43798 
Q 284.220155 154.408775 286.957191 154.408775 
Q 287.702934 154.408775 288.341576 154.296298 
Q 288.980217 154.17893 289.487957 153.934415 
L 289.487957 149.503795 
L 286.572419 149.503795 
L 286.572419 145.557316 
L 294.010017 145.557316 
L 294.010017 156.531169 
z
" clip-path="url(#pa2440c461f)" style="fill: #ffa600"/>
   </g>
   <g id="patch_42">
    <path d="M 294.941569 190.738691 
L 312.641068 190.738691 
L 312.641068 191.031488 
L 306.273365 191.031488 
L 306.273365 192.24 
L 301.321621 192.24 
L 301.321621 191.031488 
L 294.941569 191.031488 
L 294.941569 190.738691 
z
" clip-path="url(#pa2440c461f)" style="fill: #ff0000"/>
   </g>
   <g id="patch_43">
    <path d="M 307.202028 190.201376 
L 300.395085 190.201376 
L 299.320305 190.738691 
L 294.941569 190.738691 
L 301.194837 187.789144 
L 306.3878 187.789144 
L 312.641068 190.738691 
L 308.265952 190.738691 
L 307.202028 190.201376 
z
M 301.480722 189.653946 
L 306.105535 189.653946 
L 303.796747 188.480701 
L 301.480722 189.653946 
z
" clip-path="url(#pa2440c461f)" style="fill: #008000"/>
   </g>
   <g id="patch_44">
    <path d="M 312.641068 185.955678 
Q 311.160536 186.864485 309.559599 187.324172 
Q 307.958661 187.789144 306.215022 187.789144 
Q 301.01532 187.789144 297.978445 184.344129 
Q 294.941569 180.899115 294.941569 175.007718 
Q 294.941569 169.095186 297.978445 165.655456 
Q 301.01532 162.210441 306.215022 162.210441 
Q 307.958661 162.210441 309.559599 162.675413 
Q 311.160536 163.1351 312.641068 164.043908 
L 312.641068 169.14274 
Q 311.147158 167.938042 309.697841 167.377963 
Q 308.248525 166.817884 306.647587 166.817884 
Q 303.775711 166.817884 302.130179 169.000078 
Q 300.489107 171.176989 300.489107 175.007718 
Q 300.489107 178.822596 302.130179 181.004791 
Q 303.775711 183.181701 306.647587 183.181701 
Q 308.248525 183.181701 309.697841 182.621622 
Q 311.147158 182.05626 312.641068 180.851561 
L 312.641068 185.955678 
z
" clip-path="url(#pa2440c461f)" style="fill: #0000ff"/>
   </g>
   <g id="patch_45">
    <path d="M 312.641068 156.853246 
Q 310.856045 159.531844 308.936153 160.877258 
Q 307.016261 162.210441 304.969434 162.210441 
Q 300.34424 162.210441 297.642905 154.235803 
Q 294.941569 146.261165 294.941569 132.623556 
Q 294.941569 118.826943 297.690505 110.91346 
Q 300.443408 102.999977 305.231238 102.999977 
Q 307.075762 102.999977 308.765584 104.076308 
Q 310.459373 105.140409 311.958793 107.244148 
L 311.958793 119.047101 
Q 310.411772 116.344041 308.880619 115.010858 
Q 307.349466 113.665444 305.810379 113.665444 
Q 302.962275 113.665444 301.419221 118.582322 
Q 299.876167 123.486969 299.876167 132.623556 
Q 299.876167 141.674525 301.363687 146.615865 
Q 302.851207 151.544975 305.588242 151.544975 
Q 306.333986 151.544975 306.972627 151.263661 
Q 307.611269 150.970116 308.119009 150.358564 
L 308.119009 139.277241 
L 305.203471 139.277241 
L 305.203471 129.406792 
L 312.641068 129.406792 
L 312.641068 156.853246 
z
" clip-path="url(#pa2440c461f)" style="fill: #ffa600"/>
   </g>
   <g id="patch_46">
    <path d="M 331.27212 192.0846 
Q 329.487097 192.1623 327.567205 192.201328 
Q 325.647313 192.24 323.600486 192.24 
Q 318.975292 192.24 316.273957 192.008675 
Q 313.572621 191.777349 313.572621 191.381754 
Q 313.572621 190.981547 316.321557 190.751996 
Q 319.07446 190.522445 323.86229 190.522445 
Q 325.706814 190.522445 327.396636 190.553666 
Q 329.090425 190.584533 330.589845 190.645558 
L 330.589845 190.987934 
Q 329.042824 190.909524 327.511671 190.870852 
Q 325.980517 190.831825 324.44143 190.831825 
Q 321.593326 190.831825 320.050273 190.974452 
Q 318.507219 191.116724 318.507219 191.381754 
Q 318.507219 191.644302 319.994739 191.787638 
Q 321.482258 191.93062 324.219294 191.93062 
Q 324.965037 191.93062 325.603679 191.92246 
Q 326.242321 191.913945 326.750061 191.896205 
L 326.750061 191.574762 
L 323.834523 191.574762 
L 323.834523 191.288444 
L 331.27212 191.288444 
L 331.27212 192.0846 
z
" clip-path="url(#pa2440c461f)" style="fill: #ffa600"/>
   </g>
   <g id="patch_47">
    <path d="M 313.572621 187.729245 
L 331.27212 187.729245 
L 331.27212 188.273997 
L 324.904417 188.273997 
L 324.904417 190.522445 
L 319.952673 190.522445 
L 319.952673 188.273997 
L 313.572621 188.273997 
L 313.572621 187.729245 
z
" clip-path="url(#pa2440c461f)" style="fill: #ff0000"/>
   </g>
   <g id="patch_48">
    <path d="M 331.27212 179.693002 
Q 329.791588 183.676384 328.19065 185.691235 
Q 326.589713 187.729245 324.846074 187.729245 
Q 319.646372 187.729245 316.609497 172.629445 
Q 313.572621 157.529646 313.572621 131.707136 
Q 313.572621 105.791989 316.609497 90.715349 
Q 319.646372 75.615549 324.846074 75.615549 
Q 326.589713 75.615549 328.19065 77.653559 
Q 329.791588 79.66841 331.27212 83.651792 
L 331.27212 106.000422 
Q 329.778209 100.720124 328.328893 98.265249 
Q 326.879576 95.810373 325.278639 95.810373 
Q 322.406763 95.810373 320.761231 105.375124 
Q 319.120159 114.916715 319.120159 131.707136 
Q 319.120159 148.428079 320.761231 157.99283 
Q 322.406763 167.534421 325.278639 167.534421 
Q 326.879576 167.534421 328.328893 165.079546 
Q 329.778209 162.601511 331.27212 157.321213 
L 331.27212 179.693002 
z
" clip-path="url(#pa2440c461f)" style="fill: #0000ff"/>
   </g>
   <g id="patch_49">
    <path d="M 344.464131 190.792868 
L 337.657188 190.792868 
L 336.582408 192.24 
L 332.203673 192.24 
L 338.456941 184.296098 
L 343.649904 184.296098 
L 349.903172 192.24 
L 345.528056 192.24 
L 344.464131 190.792868 
z
M 338.742825 189.318496 
L 343.367638 189.318496 
L 341.058851 186.158642 
L 338.742825 189.318496 
z
" clip-path="url(#pa2440c461f)" style="fill: #008000"/>
   </g>
   <g id="patch_50">
    <path d="M 349.903172 182.893438 
Q 348.118149 183.594768 346.198257 183.947034 
Q 344.278365 184.296098 342.231538 184.296098 
Q 337.606344 184.296098 334.905008 182.20812 
Q 332.203673 180.120143 332.203673 176.549445 
Q 332.203673 172.937115 334.952609 170.86515 
Q 337.705512 168.793184 342.493341 168.793184 
Q 344.337866 168.793184 346.027688 169.074997 
Q 347.721477 169.353608 349.220896 169.904424 
L 349.220896 172.994759 
Q 347.673876 172.287024 346.142723 171.93796 
Q 344.611569 171.585694 343.072482 171.585694 
Q 340.224378 171.585694 338.681325 172.873067 
Q 337.138271 174.157237 337.138271 176.549445 
Q 337.138271 178.919235 338.62579 180.213013 
Q 340.11331 181.503588 342.850346 181.503588 
Q 343.596089 181.503588 344.234731 181.429932 
Q 344.873373 181.353074 345.381113 181.192953 
L 345.381113 178.291561 
L 342.465574 178.291561 
L 342.465574 175.707208 
L 349.903172 175.707208 
L 349.903172 182.893438 
z
" clip-path="url(#pa2440c461f)" style="fill: #ffa600"/>
   </g>
   <g id="patch_51">
    <path d="M 332.203673 152.100943 
L 349.903172 152.100943 
L 349.903172 155.356395 
L 343.535468 155.356395 
L 343.535468 168.793184 
L 338.583725 168.793184 
L 338.583725 155.356395 
L 332.203673 155.356395 
L 332.203673 152.100943 
z
" clip-path="url(#pa2440c461f)" style="fill: #ff0000"/>
   </g>
   <g id="patch_52">
    <path d="M 349.903172 148.991475 
Q 348.422639 150.532768 346.821702 151.312375 
Q 345.220765 152.100943 343.477126 152.100943 
Q 338.277424 152.100943 335.240548 146.258369 
Q 332.203673 140.415795 332.203673 130.424276 
Q 332.203673 120.396913 335.240548 114.5633 
Q 338.277424 108.720726 343.477126 108.720726 
Q 345.220765 108.720726 346.821702 109.509294 
Q 348.422639 110.288901 349.903172 111.830194 
L 349.903172 120.477562 
Q 348.409261 118.434453 346.959945 117.484587 
Q 345.510628 116.534721 343.909691 116.534721 
Q 341.037814 116.534721 339.392283 120.235615 
Q 337.75121 123.927549 337.75121 130.424276 
Q 337.75121 136.894121 339.392283 140.595015 
Q 341.037814 144.286948 343.909691 144.286948 
Q 345.510628 144.286948 346.959945 143.337082 
Q 348.409261 142.378255 349.903172 140.335146 
L 349.903172 148.991475 
z
" clip-path="url(#pa2440c461f)" style="fill: #0000ff"/>
   </g>
   <g id="patch_53">
    <path d="M 368.534224 178.69307 
Q 366.7492 185.466535 364.829308 188.868732 
Q 362.909416 192.24 360.86259 192.24 
Q 356.237396 192.24 353.53606 172.07425 
Q 350.834725 151.9085 350.834725 117.422593 
Q 350.834725 82.534608 353.583661 62.523503 
Q 356.336563 42.512398 361.124393 42.512398 
Q 362.968917 42.512398 364.658739 45.234156 
Q 366.352528 47.924984 367.851948 53.244784 
L 367.851948 83.091331 
Q 366.304928 76.256008 364.773774 72.88474 
Q 363.242621 69.482542 361.703534 69.482542 
Q 358.85543 69.482542 357.312376 81.916026 
Q 355.769323 94.318581 355.769323 117.422593 
Q 355.769323 140.3101 357.256842 152.805443 
Q 358.744362 165.269856 361.481398 165.269856 
Q 362.227141 165.269856 362.865783 164.558487 
Q 363.504424 163.81619 364.012164 162.269736 
L 364.012164 134.248004 
L 361.096626 134.248004 
L 361.096626 109.288249 
L 368.534224 109.288249 
L 368.534224 178.69307 
z
" clip-path="url(#pa2440c461f)" style="fill: #ffa600"/>
   </g>
   <g id="patch_54">
    <path d="M 369.465776 191.516347 
L 387.165275 191.516347 
L 387.165275 191.657479 
L 380.797572 191.657479 
L 380.797572 192.24 
L 375.845828 192.24 
L 375.845828 191.657479 
L 369.465776 191.657479 
L 369.465776 191.516347 
z
" clip-path="url(#pa2440c461f)" style="fill: #ff0000"/>
   </g>
   <g id="patch_55">
    <path d="M 381.726235 190.545053 
L 374.919292 190.545053 
L 373.844512 191.516347 
L 369.465776 191.516347 
L 375.719044 186.184516 
L 380.912007 186.184516 
L 387.165275 191.516347 
L 382.790159 191.516347 
L 381.726235 190.545053 
z
M 376.004929 189.555476 
L 380.629742 189.555476 
L 378.320954 187.434628 
L 376.004929 189.555476 
z
" clip-path="url(#pa2440c461f)" style="fill: #008000"/>
   </g>
   <g id="patch_56">
    <path d="M 387.165275 174.670865 
Q 385.684743 180.37792 384.083806 183.264627 
Q 382.482868 186.184516 380.739229 186.184516 
Q 375.539527 186.184516 372.502652 164.550798 
Q 369.465776 142.917081 369.465776 105.92077 
Q 369.465776 68.791737 372.502652 47.191201 
Q 375.539527 25.557483 380.739229 25.557483 
Q 382.482868 25.557483 384.083806 28.477372 
Q 385.684743 31.364079 387.165275 37.071133 
L 387.165275 69.090362 
Q 385.671365 61.525197 384.222048 58.008059 
Q 382.772732 54.490921 381.171794 54.490921 
Q 378.299918 54.490921 376.654386 68.194487 
Q 375.013314 81.864873 375.013314 105.92077 
Q 375.013314 129.877126 376.654386 143.580692 
Q 378.299918 157.251078 381.171794 157.251078 
Q 382.772732 157.251078 384.222048 153.73394 
Q 385.671365 150.183621 387.165275 142.618456 
L 387.165275 174.670865 
z
" clip-path="url(#pa2440c461f)" style="fill: #0000ff"/>
   </g>
   <g id="patch_57">
    <path d="M 388.096828 191.669588 
L 405.796327 191.669588 
L 405.796327 191.780834 
L 399.428624 191.780834 
L 399.428624 192.24 
L 394.47688 192.24 
L 394.47688 191.780834 
L 388.096828 191.780834 
L 388.096828 191.669588 
z
" clip-path="url(#pa2440c461f)" style="fill: #ff0000"/>
   </g>
   <g id="patch_58">
    <path d="M 400.357287 191.527654 
L 393.550344 191.527654 
L 392.475563 191.669588 
L 388.096828 191.669588 
L 394.350096 190.890455 
L 399.543059 190.890455 
L 405.796327 191.669588 
L 401.421211 191.669588 
L 400.357287 191.527654 
z
M 394.635981 191.383049 
L 399.260793 191.383049 
L 396.952006 191.073132 
L 394.635981 191.383049 
z
" clip-path="url(#pa2440c461f)" style="fill: #008000"/>
   </g>
   <g id="patch_59">
    <path d="M 405.796327 190.782133 
Q 404.315795 190.835826 402.714857 190.862984 
Q 401.11392 190.890455 399.370281 190.890455 
Q 394.170579 190.890455 391.133704 190.686922 
Q 388.096828 190.483389 388.096828 190.135322 
Q 388.096828 189.786007 391.133704 189.582786 
Q 394.170579 189.379253 399.370281 189.379253 
Q 401.11392 189.379253 402.714857 189.406724 
Q 404.315795 189.433882 405.796327 189.487575 
L 405.796327 189.788816 
Q 404.302416 189.717642 402.8531 189.684553 
Q 401.403783 189.651463 399.802846 189.651463 
Q 396.93097 189.651463 395.285438 189.780388 
Q 393.644366 189.909001 393.644366 190.135322 
Q 393.644366 190.360707 395.285438 190.489632 
Q 396.93097 190.618245 399.802846 190.618245 
Q 401.403783 190.618245 402.8531 190.585155 
Q 404.302416 190.551753 405.796327 190.480579 
L 405.796327 190.782133 
z
" clip-path="url(#pa2440c461f)" style="fill: #0000ff"/>
   </g>
   <g id="patch_60">
    <path d="M 405.796327 177.594479 
Q 404.011304 183.486866 402.091412 186.446512 
Q 400.17152 189.379253 398.124693 189.379253 
Q 393.499499 189.379253 390.798164 171.836622 
Q 388.096828 154.293991 388.096828 124.293939 
Q 388.096828 93.944112 390.845764 76.53601 
Q 393.598667 59.127908 398.386497 59.127908 
Q 400.231021 59.127908 401.920843 61.495625 
Q 403.614632 63.836437 405.114052 68.464247 
L 405.114052 94.428417 
Q 403.567031 88.482219 402.035878 85.549478 
Q 400.504724 82.589832 398.965637 82.589832 
Q 396.117533 82.589832 394.57448 93.405994 
Q 393.031426 104.19525 393.031426 124.293939 
Q 393.031426 144.204288 394.518946 155.074261 
Q 396.006465 165.917329 398.743501 165.917329 
Q 399.489244 165.917329 400.127886 165.298494 
Q 400.766528 164.652753 401.274268 163.307459 
L 401.274268 138.930736 
L 398.35873 138.930736 
L 398.35873 117.217694 
L 405.796327 117.217694 
L 405.796327 177.594479 
z
" clip-path="url(#pa2440c461f)" style="fill: #ffa600"/>
   </g>
   <g id="patch_61">
    <path d="M 424.427379 192.153948 
Q 422.642356 192.196974 420.722464 192.218585 
Q 418.802572 192.24 416.755745 192.24 
Q 412.130551 192.24 409.429215 192.111905 
Q 406.72788 191.983809 406.72788 191.76475 
Q 406.72788 191.543137 409.476816 191.416024 
Q 412.229719 191.288911 417.017548 191.288911 
Q 418.862073 191.288911 420.551895 191.3062 
Q 422.245684 191.323292 423.745103 191.357084 
L 423.745103 191.546674 
Q 422.198083 191.503255 420.66693 191.48184 
Q 419.135776 191.460229 417.596689 191.460229 
Q 414.748585 191.460229 413.205532 191.539208 
Q 411.662478 191.61799 411.662478 191.76475 
Q 411.662478 191.910135 413.149997 191.989507 
Q 414.637517 192.068682 417.374553 192.068682 
Q 418.120296 192.068682 418.758938 192.064163 
Q 419.39758 192.059448 419.90532 192.049625 
L 419.90532 191.871627 
L 416.989781 191.871627 
L 416.989781 191.71308 
L 424.427379 191.71308 
L 424.427379 192.153948 
z
" clip-path="url(#pa2440c461f)" style="fill: #ffa600"/>
   </g>
   <g id="patch_62">
    <path d="M 418.988338 190.684411 
L 412.181395 190.684411 
L 411.106615 191.288911 
L 406.72788 191.288911 
L 412.981148 187.970563 
L 418.174111 187.970563 
L 424.427379 191.288911 
L 420.052263 191.288911 
L 418.988338 190.684411 
z
M 413.267032 190.068532 
L 417.891845 190.068532 
L 415.583058 188.748589 
L 413.267032 190.068532 
z
" clip-path="url(#pa2440c461f)" style="fill: #008000"/>
   </g>
   <g id="patch_63">
    <path d="M 424.427379 178.937793 
Q 422.946846 183.415131 421.345909 185.679832 
Q 419.744972 187.970563 418.001333 187.970563 
Q 412.801631 187.970563 409.764755 170.998328 
Q 406.72788 154.026093 406.72788 125.001489 
Q 406.72788 95.87276 409.764755 78.926556 
Q 412.801631 61.954322 418.001333 61.954322 
Q 419.744972 61.954322 421.345909 64.245053 
Q 422.946846 66.509753 424.427379 70.987091 
L 424.427379 96.10704 
Q 422.933468 90.171964 421.484152 87.412674 
Q 420.034835 84.653384 418.433898 84.653384 
Q 415.562021 84.653384 413.91649 95.404202 
Q 412.275417 106.128988 412.275417 125.001489 
Q 412.275417 143.795896 413.91649 154.546714 
Q 415.562021 165.2715 418.433898 165.2715 
Q 420.034835 165.2715 421.484152 162.51221 
Q 422.933468 159.72689 424.427379 153.791814 
L 424.427379 178.937793 
z
" clip-path="url(#pa2440c461f)" style="fill: #0000ff"/>
   </g>
   <g id="patch_64">
    <path d="M 437.61939 191.61249 
L 430.812447 191.61249 
L 429.737667 192.24 
L 425.358932 192.24 
L 431.6122 188.795339 
L 436.805163 188.795339 
L 443.058431 192.24 
L 438.683314 192.24 
L 437.61939 191.61249 
z
M 431.898084 190.973168 
L 436.522897 190.973168 
L 434.214109 189.602981 
L 431.898084 190.973168 
z
" clip-path="url(#pa2440c461f)" style="fill: #008000"/>
   </g>
   <g id="patch_65">
    <path d="M 425.358932 181.029554 
L 443.058431 181.029554 
L 443.058431 182.544099 
L 436.690727 182.544099 
L 436.690727 188.795339 
L 431.738984 188.795339 
L 431.738984 182.544099 
L 425.358932 182.544099 
L 425.358932 181.029554 
z
" clip-path="url(#pa2440c461f)" style="fill: #ff0000"/>
   </g>
   <g id="patch_66">
    <path d="M 443.058431 179.750291 
Q 441.273407 180.389922 439.353515 180.711199 
Q 437.433623 181.029554 435.386797 181.029554 
Q 430.761603 181.029554 428.060267 179.125262 
Q 425.358932 177.22097 425.358932 173.964397 
Q 425.358932 170.669854 428.107868 168.780166 
Q 430.86077 166.890477 435.6486 166.890477 
Q 437.493124 166.890477 439.182946 167.147498 
Q 440.876735 167.401598 442.376155 167.903958 
L 442.376155 170.722427 
Q 440.829135 170.076954 439.297981 169.758598 
Q 437.766828 169.437322 436.227741 169.437322 
Q 433.379637 169.437322 431.836583 170.611441 
Q 430.29353 171.782639 430.29353 173.964397 
Q 430.29353 176.12571 431.781049 177.30567 
Q 433.268569 178.48271 436.005605 178.48271 
Q 436.751348 178.48271 437.38999 178.415534 
Q 438.028631 178.345437 438.536371 178.199402 
L 438.536371 175.553254 
L 435.620833 175.553254 
L 435.620833 173.196254 
L 443.058431 173.196254 
L 443.058431 179.750291 
z
" clip-path="url(#pa2440c461f)" style="fill: #ffa600"/>
   </g>
   <g id="patch_67">
    <path d="M 443.058431 162.333118 
Q 441.577898 164.592097 439.976961 165.73472 
Q 438.376024 166.890477 436.632384 166.890477 
Q 431.432683 166.890477 428.395807 158.327371 
Q 425.358932 149.764264 425.358932 135.120301 
Q 425.358932 120.423804 428.395807 111.873831 
Q 431.432683 103.310724 436.632384 103.310724 
Q 438.376024 103.310724 439.976961 104.466481 
Q 441.577898 105.609104 443.058431 107.868083 
L 443.058431 120.542006 
Q 441.56452 117.547546 440.115203 116.155384 
Q 438.665887 114.763223 437.06495 114.763223 
Q 434.193073 114.763223 432.547541 120.187399 
Q 430.906469 125.598442 430.906469 135.120301 
Q 430.906469 144.60276 432.547541 150.026936 
Q 434.193073 155.437979 437.06495 155.437979 
Q 438.665887 155.437979 440.115203 154.045817 
Q 441.56452 152.640522 443.058431 149.646062 
L 443.058431 162.333118 
z
" clip-path="url(#pa2440c461f)" style="fill: #0000ff"/>
   </g>
   <g id="patch_68">
    <path d="M 456.250442 191.676382 
L 449.443499 191.676382 
L 448.368719 192.24 
L 443.989983 192.24 
L 450.243251 189.146069 
L 455.436214 189.146069 
L 461.689482 192.24 
L 457.314366 192.24 
L 456.250442 191.676382 
z
M 450.529136 191.102155 
L 455.153949 191.102155 
L 452.845161 189.871478 
L 450.529136 191.102155 
z
" clip-path="url(#pa2440c461f)" style="fill: #008000"/>
   </g>
   <g id="patch_69">
    <path d="M 443.989983 180.452261 
L 461.689482 180.452261 
L 461.689482 182.147796 
L 455.321779 182.147796 
L 455.321779 189.146069 
L 450.370035 189.146069 
L 450.370035 182.147796 
L 443.989983 182.147796 
L 443.989983 180.452261 
z
" clip-path="url(#pa2440c461f)" style="fill: #ff0000"/>
   </g>
   <g id="patch_70">
    <path d="M 461.689482 177.616339 
Q 459.904459 179.0343 457.984567 179.746518 
Q 456.064675 180.452261 454.017848 180.452261 
Q 449.392654 180.452261 446.691319 176.230751 
Q 443.989983 172.009242 443.989983 164.789943 
Q 443.989983 157.486472 446.738919 153.297336 
Q 449.491822 149.1082 454.279652 149.1082 
Q 456.124176 149.1082 457.813998 149.677974 
Q 459.507787 150.241274 461.007207 151.354924 
L 461.007207 157.603017 
Q 459.460187 156.172106 457.929033 155.466363 
Q 456.39788 154.754145 454.858793 154.754145 
Q 452.010689 154.754145 450.467635 157.356978 
Q 448.924581 159.953336 448.924581 164.789943 
Q 448.924581 169.581226 450.412101 172.197008 
Q 451.899621 174.806316 454.636656 174.806316 
Q 455.3824 174.806316 456.021041 174.657397 
Q 456.659683 174.502004 457.167423 174.178269 
L 457.167423 168.312184 
L 454.251885 168.312184 
L 454.251885 163.087094 
L 461.689482 163.087094 
L 461.689482 177.616339 
z
" clip-path="url(#pa2440c461f)" style="fill: #ffa600"/>
   </g>
   <g id="patch_71">
    <path d="M 461.689482 145.544063 
Q 460.20895 147.310725 458.608013 148.204327 
Q 457.007075 149.1082 455.263436 149.1082 
Q 450.063734 149.1082 447.026859 142.411321 
Q 443.989983 135.714441 443.989983 124.261956 
Q 443.989983 112.768385 447.026859 106.081777 
Q 450.063734 99.384898 455.263436 99.384898 
Q 457.007075 99.384898 458.608013 100.288771 
Q 460.20895 101.182373 461.689482 102.949035 
L 461.689482 112.860827 
Q 460.195572 110.518973 458.746255 109.430217 
Q 457.296939 108.34146 455.696001 108.34146 
Q 452.824125 108.34146 451.178593 112.583502 
Q 449.537521 116.815273 449.537521 124.261956 
Q 449.537521 131.677825 451.178593 135.919867 
Q 452.824125 140.151637 455.696001 140.151637 
Q 457.296939 140.151637 458.746255 139.062881 
Q 460.195572 137.963853 461.689482 135.622 
L 461.689482 145.544063 
z
" clip-path="url(#pa2440c461f)" style="fill: #0000ff"/>
   </g>
   <g id="patch_72">
    <path d="M 474.881494 191.779341 
L 468.074551 191.779341 
L 466.99977 192.24 
L 462.621035 192.24 
L 468.874303 189.711253 
L 474.067266 189.711253 
L 480.320534 192.24 
L 475.945418 192.24 
L 474.881494 191.779341 
z
M 469.160188 191.310011 
L 473.785 191.310011 
L 471.476213 190.304148 
L 469.160188 191.310011 
z
" clip-path="url(#pa2440c461f)" style="fill: #008000"/>
   </g>
   <g id="patch_73">
    <path d="M 462.621035 178.750427 
L 480.320534 178.750427 
L 480.320534 180.888093 
L 473.952831 180.888093 
L 473.952831 189.711253 
L 469.001087 189.711253 
L 469.001087 180.888093 
L 462.621035 180.888093 
L 462.621035 178.750427 
z
" clip-path="url(#pa2440c461f)" style="fill: #ff0000"/>
   </g>
   <g id="patch_74">
    <path d="M 480.320534 177.437607 
Q 478.535511 178.094017 476.615619 178.42372 
Q 474.695727 178.750427 472.6489 178.750427 
Q 468.023706 178.750427 465.322371 176.796184 
Q 462.621035 174.84194 462.621035 171.499945 
Q 462.621035 168.118984 465.369971 166.179728 
Q 468.122874 164.240471 472.910704 164.240471 
Q 474.755228 164.240471 476.44505 164.504234 
Q 478.138839 164.765 479.638259 165.280536 
L 479.638259 168.172936 
Q 478.091238 167.510531 476.560085 167.183825 
Q 475.028931 166.854121 473.489844 166.854121 
Q 470.64174 166.854121 469.098687 168.059038 
Q 467.555633 169.260958 467.555633 171.499945 
Q 467.555633 173.717951 469.043153 174.928862 
Q 470.530672 176.136776 473.267708 176.136776 
Q 474.013451 176.136776 474.652093 176.067838 
Q 475.290735 175.995903 475.798475 175.846038 
L 475.798475 173.130479 
L 472.882937 173.130479 
L 472.882937 170.711654 
L 480.320534 170.711654 
L 480.320534 177.437607 
z
" clip-path="url(#pa2440c461f)" style="fill: #ffa600"/>
   </g>
   <g id="patch_75">
    <path d="M 480.320534 162.048627 
Q 478.840002 163.135074 477.239064 163.684614 
Q 475.638127 164.240471 473.894488 164.240471 
Q 468.694786 164.240471 465.657911 160.122077 
Q 462.621035 156.003683 462.621035 148.960725 
Q 462.621035 141.892499 465.657911 137.780422 
Q 468.694786 133.662028 473.894488 133.662028 
Q 475.638127 133.662028 477.239064 134.217885 
Q 478.840002 134.767425 480.320534 135.853873 
L 480.320534 141.949348 
Q 478.826623 140.509174 477.377307 139.839619 
Q 475.92799 139.170064 474.327053 139.170064 
Q 471.455177 139.170064 469.809645 141.778801 
Q 468.168573 144.381222 468.168573 148.960725 
Q 468.168573 153.521277 469.809645 156.130014 
Q 471.455177 158.732435 474.327053 158.732435 
Q 475.92799 158.732435 477.377307 158.06288 
Q 478.826623 157.387009 480.320534 155.946834 
L 480.320534 162.048627 
z
" clip-path="url(#pa2440c461f)" style="fill: #0000ff"/>
   </g>
   <g id="patch_76">
    <path d="M 493.512545 191.61538 
L 486.705603 191.61538 
L 485.630822 192.24 
L 481.252087 192.24 
L 487.505355 188.811205 
L 492.698318 188.811205 
L 498.951586 192.24 
L 494.57647 192.24 
L 493.512545 191.61538 
z
M 487.791239 190.979003 
L 492.416052 190.979003 
L 490.107265 189.615127 
L 487.791239 190.979003 
z
" clip-path="url(#pa2440c461f)" style="fill: #008000"/>
   </g>
   <g id="patch_77">
    <path d="M 481.252087 185.292174 
L 498.951586 185.292174 
L 498.951586 185.978483 
L 492.583882 185.978483 
L 492.583882 188.811205 
L 487.632139 188.811205 
L 487.632139 185.978483 
L 481.252087 185.978483 
L 481.252087 185.292174 
z
" clip-path="url(#pa2440c461f)" style="fill: #ff0000"/>
   </g>
   <g id="patch_78">
    <path d="M 498.951586 183.69382 
Q 497.471053 184.486088 495.870116 184.886828 
Q 494.269179 185.292174 492.52554 185.292174 
Q 487.325838 185.292174 484.288962 182.288927 
Q 481.252087 179.285681 481.252087 174.149761 
Q 481.252087 168.995416 484.288962 165.996776 
Q 487.325838 162.993529 492.52554 162.993529 
Q 494.269179 162.993529 495.870116 163.398876 
Q 497.471053 163.799616 498.951586 164.591883 
L 498.951586 169.036872 
Q 497.457675 167.986657 496.008359 167.498399 
Q 494.559042 167.010141 492.958105 167.010141 
Q 490.086228 167.010141 488.440697 168.912504 
Q 486.799624 170.810261 486.799624 174.149761 
Q 486.799624 177.475442 488.440697 179.377805 
Q 490.086228 181.275562 492.958105 181.275562 
Q 494.559042 181.275562 496.008359 180.787304 
Q 497.457675 180.29444 498.951586 179.244225 
L 498.951586 183.69382 
z
" clip-path="url(#pa2440c461f)" style="fill: #0000ff"/>
   </g>
   <g id="patch_79">
    <path d="M 498.951586 159.280846 
Q 497.166563 161.137188 495.246671 162.069597 
Q 493.326779 162.993529 491.279952 162.993529 
Q 486.654758 162.993529 483.953422 157.466886 
Q 481.252087 151.940243 481.252087 142.489005 
Q 481.252087 132.927573 484.001023 127.443312 
Q 486.753926 121.959051 491.541755 121.959051 
Q 493.38628 121.959051 495.076102 122.704978 
Q 496.769891 123.442429 498.26931 124.900378 
L 498.26931 133.080149 
Q 496.72229 131.206854 495.191137 130.282922 
Q 493.659983 129.350513 492.120896 129.350513 
Q 489.272792 129.350513 487.729739 132.758044 
Q 486.186685 136.157099 486.186685 142.489005 
Q 486.186685 148.761575 487.674205 152.18606 
Q 489.161724 155.602068 491.89876 155.602068 
Q 492.644503 155.602068 493.283145 155.40711 
Q 493.921787 155.203675 494.429527 154.779853 
L 494.429527 147.100192 
L 491.513988 147.100192 
L 491.513988 140.259699 
L 498.951586 140.259699 
L 498.951586 159.280846 
z
" clip-path="url(#pa2440c461f)" style="fill: #ffa600"/>
   </g>
   <g id="patch_80">
    <path d="M 517.582638 192.033097 
Q 515.797614 192.136549 513.877722 192.18851 
Q 511.957831 192.24 509.911004 192.24 
Q 505.28581 192.24 502.584474 191.932008 
Q 499.883139 191.624015 499.883139 191.097311 
Q 499.883139 190.564465 502.632075 190.258835 
Q 505.384978 189.953205 510.172807 189.953205 
Q 512.017331 189.953205 513.707153 189.994774 
Q 515.400942 190.035871 516.900362 190.117121 
L 516.900362 190.572968 
Q 515.353342 190.468572 513.822188 190.417083 
Q 512.291035 190.365121 510.751948 190.365121 
Q 507.903844 190.365121 506.36079 190.555018 
Q 504.817737 190.744443 504.817737 191.097311 
Q 504.817737 191.446873 506.305256 191.637715 
Q 507.792776 191.828084 510.529812 191.828084 
Q 511.275555 191.828084 511.914197 191.817219 
Q 512.552838 191.805882 513.060578 191.782263 
L 513.060578 191.354286 
L 510.14504 191.354286 
L 510.14504 190.973075 
L 517.582638 190.973075 
L 517.582638 192.033097 
z
" clip-path="url(#pa2440c461f)" style="fill: #ffa600"/>
   </g>
   <g id="patch_81">
    <path d="M 512.143597 189.089454 
L 505.336654 189.089454 
L 504.261874 189.953205 
L 499.883139 189.953205 
L 506.136407 185.211722 
L 511.32937 185.211722 
L 517.582638 189.953205 
L 513.207521 189.953205 
L 512.143597 189.089454 
z
M 506.422291 188.209445 
L 511.047104 188.209445 
L 508.738316 186.32342 
L 506.422291 188.209445 
z
" clip-path="url(#pa2440c461f)" style="fill: #008000"/>
   </g>
   <g id="patch_82">
    <path d="M 499.883139 179.290403 
L 517.582638 179.290403 
L 517.582638 180.445225 
L 511.214934 180.445225 
L 511.214934 185.211722 
L 506.263191 185.211722 
L 506.263191 180.445225 
L 499.883139 180.445225 
L 499.883139 179.290403 
z
" clip-path="url(#pa2440c461f)" style="fill: #ff0000"/>
   </g>
   <g id="patch_83">
    <path d="M 517.582638 174.81079 
Q 516.102105 177.031232 514.501168 178.154363 
Q 512.900231 179.290403 511.156591 179.290403 
Q 505.95689 179.290403 502.920014 170.873379 
Q 499.883139 162.456355 499.883139 148.062212 
Q 499.883139 133.616431 502.920014 125.212317 
Q 505.95689 116.795293 511.156591 116.795293 
Q 512.900231 116.795293 514.501168 117.931333 
Q 516.102105 119.054463 517.582638 121.274905 
L 517.582638 133.732617 
Q 516.088727 130.78924 514.63941 129.420828 
Q 513.190094 128.052417 511.589157 128.052417 
Q 508.71728 128.052417 507.071748 133.384059 
Q 505.430676 138.702792 505.430676 148.062212 
Q 505.430676 157.382904 507.071748 162.714546 
Q 508.71728 168.033279 511.589157 168.033279 
Q 513.190094 168.033279 514.63941 166.664867 
Q 516.088727 165.283546 517.582638 162.340169 
L 517.582638 174.81079 
z
" clip-path="url(#pa2440c461f)" style="fill: #0000ff"/>
   </g>
   <g id="patch_84">
    <path d="M 536.213689 191.899238 
Q 534.733157 192.068146 533.13222 192.153582 
Q 531.531282 192.24 529.787643 192.24 
Q 524.587941 192.24 521.551066 191.599721 
Q 518.51419 190.959442 518.51419 189.864487 
Q 518.51419 188.765604 521.551066 188.126307 
Q 524.587941 187.486028 529.787643 187.486028 
Q 531.531282 187.486028 533.13222 187.572446 
Q 534.733157 187.657882 536.213689 187.82679 
L 536.213689 188.774442 
Q 534.719779 188.550541 533.270462 188.446446 
Q 531.821146 188.342352 530.220208 188.342352 
Q 527.348332 188.342352 525.7028 188.747927 
Q 524.061728 189.152521 524.061728 189.864487 
Q 524.061728 190.573507 525.7028 190.979083 
Q 527.348332 191.383676 530.220208 191.383676 
Q 531.821146 191.383676 533.270462 191.279582 
Q 534.719779 191.174505 536.213689 190.950604 
L 536.213689 191.899238 
z
" clip-path="url(#pa2440c461f)" style="fill: #0000ff"/>
   </g>
   <g id="patch_85">
    <path d="M 518.51419 181.450429 
L 536.213689 181.450429 
L 536.213689 182.627539 
L 529.845986 182.627539 
L 529.845986 187.486028 
L 524.894242 187.486028 
L 524.894242 182.627539 
L 518.51419 182.627539 
L 518.51419 181.450429 
z
" clip-path="url(#pa2440c461f)" style="fill: #ff0000"/>
   </g>
   <g id="patch_86">
    <path d="M 536.213689 177.198568 
Q 534.428666 179.324498 532.508774 180.392317 
Q 530.588882 181.450429 528.542055 181.450429 
Q 523.916861 181.450429 521.215526 175.121174 
Q 518.51419 168.79192 518.51419 157.968119 
Q 518.51419 147.018121 521.263126 140.737404 
Q 524.016029 134.456687 528.803859 134.456687 
Q 530.648383 134.456687 532.338205 135.310943 
Q 534.031994 136.15549 535.531414 137.825171 
L 535.531414 147.192855 
Q 533.984394 145.04751 532.45324 143.989398 
Q 530.922087 142.921579 529.383 142.921579 
Q 526.534896 142.921579 524.991842 146.823972 
Q 523.448788 150.716658 523.448788 157.968119 
Q 523.448788 165.151628 524.936308 169.073436 
Q 526.423828 172.985537 529.160864 172.985537 
Q 529.906607 172.985537 530.545248 172.762265 
Q 531.18389 172.529287 531.69163 172.043914 
L 531.69163 163.248969 
L 528.776092 163.248969 
L 528.776092 155.415061 
L 536.213689 155.415061 
L 536.213689 177.198568 
z
" clip-path="url(#pa2440c461f)" style="fill: #ffa600"/>
   </g>
   <g id="patch_87">
    <path d="M 549.405701 191.890459 
L 542.598758 191.890459 
L 541.523977 192.24 
L 537.145242 192.24 
L 543.39851 190.321227 
L 548.591473 190.321227 
L 554.844741 192.24 
L 550.469625 192.24 
L 549.405701 191.890459 
z
M 543.684395 191.534339 
L 548.309208 191.534339 
L 546.00042 190.771107 
L 543.684395 191.534339 
z
" clip-path="url(#pa2440c461f)" style="fill: #008000"/>
   </g>
   <g id="patch_88">
    <path d="M 554.844741 190.114768 
Q 553.059718 190.217998 551.139826 190.269848 
Q 549.219934 190.321227 547.173107 190.321227 
Q 542.547913 190.321227 539.846578 190.013895 
Q 537.145242 189.706563 537.145242 189.180988 
Q 537.145242 188.649286 539.894178 188.344311 
Q 542.647081 188.039336 547.434911 188.039336 
Q 549.279435 188.039336 550.969257 188.080816 
Q 552.663046 188.121825 554.162466 188.2029 
L 554.162466 188.65777 
Q 552.615445 188.553598 551.084292 188.502219 
Q 549.553138 188.450368 548.014052 188.450368 
Q 545.165947 188.450368 543.622894 188.639858 
Q 542.07984 188.828877 542.07984 189.180988 
Q 542.07984 189.529801 543.56736 189.720233 
Q 545.054879 189.910194 547.791915 189.910194 
Q 548.537658 189.910194 549.1763 189.899353 
Q 549.814942 189.88804 550.322682 189.864472 
L 550.322682 189.437412 
L 547.407144 189.437412 
L 547.407144 189.057019 
L 554.844741 189.057019 
L 554.844741 190.114768 
z
" clip-path="url(#pa2440c461f)" style="fill: #ffa600"/>
   </g>
   <g id="patch_89">
    <path d="M 537.145242 182.834108 
L 554.844741 182.834108 
L 554.844741 183.849272 
L 548.477038 183.849272 
L 548.477038 188.039336 
L 543.525294 188.039336 
L 543.525294 183.849272 
L 537.145242 183.849272 
L 537.145242 182.834108 
z
" clip-path="url(#pa2440c461f)" style="fill: #ff0000"/>
   </g>
   <g id="patch_90">
    <path d="M 554.844741 180.211318 
Q 553.364209 181.511375 551.763271 182.168962 
Q 550.162334 182.834108 548.418695 182.834108 
Q 543.218993 182.834108 540.182118 177.905984 
Q 537.145242 172.977861 537.145242 164.550165 
Q 537.145242 156.092236 540.182118 151.171671 
Q 543.218993 146.243548 548.418695 146.243548 
Q 550.162334 146.243548 551.763271 146.908693 
Q 553.364209 147.56628 554.844741 148.866338 
L 554.844741 156.160262 
Q 553.35083 154.436931 551.901514 153.635733 
Q 550.452197 152.834535 548.85126 152.834535 
Q 545.979384 152.834535 544.333852 155.956184 
Q 542.69278 159.070274 542.69278 164.550165 
Q 542.69278 170.007382 544.333852 173.12903 
Q 545.979384 176.243121 548.85126 176.243121 
Q 550.452197 176.243121 551.901514 175.441923 
Q 553.35083 174.633166 554.844741 172.909835 
L 554.844741 180.211318 
z
" clip-path="url(#pa2440c461f)" style="fill: #0000ff"/>
   </g>
   <g id="patch_91">
    <path d="M 555.776294 188.093887 
L 573.475793 188.093887 
L 573.475793 188.902494 
L 567.108089 188.902494 
L 567.108089 192.24 
L 562.156346 192.24 
L 562.156346 188.902494 
L 555.776294 188.902494 
L 555.776294 188.093887 
z
" clip-path="url(#pa2440c461f)" style="fill: #ff0000"/>
   </g>
   <g id="patch_92">
    <path d="M 568.036752 186.875408 
L 561.22981 186.875408 
L 560.155029 188.093887 
L 555.776294 188.093887 
L 562.029562 181.405159 
L 567.222525 181.405159 
L 573.475793 188.093887 
L 569.100677 188.093887 
L 568.036752 186.875408 
z
M 562.315446 185.633994 
L 566.940259 185.633994 
L 564.631472 182.973411 
L 562.315446 185.633994 
z
" clip-path="url(#pa2440c461f)" style="fill: #008000"/>
   </g>
   <g id="patch_93">
    <path d="M 573.475793 180.471918 
Q 571.69077 180.938538 569.770878 181.172914 
Q 567.850986 181.405159 565.804159 181.405159 
Q 561.178965 181.405159 558.477629 180.015951 
Q 555.776294 178.626743 555.776294 176.251027 
Q 555.776294 173.847612 558.52523 172.469058 
Q 561.278133 171.090503 566.065962 171.090503 
Q 567.910487 171.090503 569.600309 171.278004 
Q 571.294098 171.463374 572.793517 171.829852 
L 572.793517 173.885965 
Q 571.246497 173.415083 569.715344 173.182838 
Q 568.18419 172.948462 566.645103 172.948462 
Q 563.796999 172.948462 562.253946 173.804998 
Q 560.710892 174.659404 560.710892 176.251027 
Q 560.710892 177.827735 562.198412 178.688533 
Q 563.685931 179.5472 566.422967 179.5472 
Q 567.16871 179.5472 567.807352 179.498194 
Q 568.445994 179.447057 568.953734 179.340523 
L 568.953734 177.410121 
L 566.038195 177.410121 
L 566.038195 175.690656 
L 573.475793 175.690656 
L 573.475793 180.471918 
z
" clip-path="url(#pa2440c461f)" style="fill: #ffa600"/>
   </g>
   <g id="patch_94">
    <path d="M 573.475793 168.466959 
Q 571.99526 169.76739 570.394323 170.425166 
Q 568.793386 171.090503 567.049747 171.090503 
Q 561.850045 171.090503 558.813169 166.160962 
Q 555.776294 161.23142 555.776294 152.801299 
Q 555.776294 144.340935 558.813169 139.418954 
Q 561.850045 134.489413 567.049747 134.489413 
Q 568.793386 134.489413 570.394323 135.15475 
Q 571.99526 135.812526 573.475793 137.112957 
L 573.475793 144.408981 
Q 571.981882 142.685154 570.532566 141.883725 
Q 569.083249 141.082297 567.482312 141.082297 
Q 564.610435 141.082297 562.964904 144.204844 
Q 561.323831 147.31983 561.323831 152.801299 
Q 561.323831 158.260086 562.964904 161.382633 
Q 564.610435 164.497619 567.482312 164.497619 
Q 569.083249 164.497619 570.532566 163.696191 
Q 571.981882 162.887202 573.475793 161.163374 
L 573.475793 168.466959 
z
" clip-path="url(#pa2440c461f)" style="fill: #0000ff"/>
   </g>
   <g id="patch_95">
    <path d="M 586.667804 192.149084 
L 579.860861 192.149084 
L 578.786081 192.24 
L 574.407346 192.24 
L 580.660614 191.740923 
L 585.853577 191.740923 
L 592.106845 192.24 
L 587.731728 192.24 
L 586.667804 192.149084 
z
M 580.946498 192.056456 
L 585.571311 192.056456 
L 583.262523 191.857938 
L 580.946498 192.056456 
z
" clip-path="url(#pa2440c461f)" style="fill: #008000"/>
   </g>
   <g id="patch_96">
    <path d="M 574.407346 188.095247 
L 592.106845 188.095247 
L 592.106845 188.806256 
L 585.739141 188.806256 
L 585.739141 191.740923 
L 580.787398 191.740923 
L 580.787398 188.806256 
L 574.407346 188.806256 
L 574.407346 188.095247 
z
" clip-path="url(#pa2440c461f)" style="fill: #ff0000"/>
   </g>
   <g id="patch_97">
    <path d="M 592.106845 186.209669 
Q 590.321821 187.152458 588.401929 187.626005 
Q 586.482038 188.095247 584.435211 188.095247 
Q 579.810017 188.095247 577.108681 185.288405 
Q 574.407346 182.481563 574.407346 177.681518 
Q 574.407346 172.825509 577.156282 170.040191 
Q 579.909185 167.254874 584.697014 167.254874 
Q 586.541538 167.254874 588.23136 167.633712 
Q 589.925149 168.008244 591.424569 168.748699 
L 591.424569 172.902998 
Q 589.877549 171.951599 588.346395 171.482357 
Q 586.815242 171.00881 585.276155 171.00881 
Q 582.428051 171.00881 580.884997 172.739409 
Q 579.341944 174.465703 579.341944 177.681518 
Q 579.341944 180.867198 580.829463 182.606407 
Q 582.316983 184.341311 585.054019 184.341311 
Q 585.799762 184.341311 586.438404 184.242297 
Q 587.077045 184.138977 587.584785 183.923729 
L 587.584785 180.023423 
L 584.669247 180.023423 
L 584.669247 176.54931 
L 592.106845 176.54931 
L 592.106845 186.209669 
z
" clip-path="url(#pa2440c461f)" style="fill: #ffa600"/>
   </g>
   <g id="patch_98">
    <path d="M 592.106845 165.375658 
Q 590.626312 166.307142 589.025375 166.7783 
Q 587.424438 167.254874 585.680798 167.254874 
Q 580.481097 167.254874 577.444221 163.723897 
Q 574.407346 160.192921 574.407346 154.154517 
Q 574.407346 148.094451 577.444221 144.56889 
Q 580.481097 141.037913 585.680798 141.037913 
Q 587.424438 141.037913 589.025375 141.514487 
Q 590.626312 141.985645 592.106845 142.91713 
L 592.106845 148.143192 
Q 590.612934 146.908433 589.163617 146.334379 
Q 587.714301 145.760324 586.113364 145.760324 
Q 583.241487 145.760324 581.595955 147.99697 
Q 579.954883 150.228201 579.954883 154.154517 
Q 579.954883 158.064586 581.595955 160.301233 
Q 583.241487 162.532463 586.113364 162.532463 
Q 587.714301 162.532463 589.163617 161.958409 
Q 590.612934 161.378939 592.106845 160.14418 
L 592.106845 165.375658 
z
" clip-path="url(#pa2440c461f)" style="fill: #0000ff"/>
   </g>
   <g id="patch_99">
    <path d="M 605.298856 191.460575 
L 598.491913 191.460575 
L 597.417133 192.24 
L 593.038397 192.24 
L 599.291665 187.961414 
L 604.484628 187.961414 
L 610.737896 192.24 
L 606.36278 192.24 
L 605.298856 191.460575 
z
M 599.57755 190.666478 
L 604.202363 190.666478 
L 601.893575 188.96458 
L 599.57755 190.666478 
z
" clip-path="url(#pa2440c461f)" style="fill: #008000"/>
   </g>
   <g id="patch_100">
    <path d="M 593.038397 182.08539 
L 610.737896 182.08539 
L 610.737896 183.231378 
L 604.370193 183.231378 
L 604.370193 187.961414 
L 599.418449 187.961414 
L 599.418449 183.231378 
L 593.038397 183.231378 
L 593.038397 182.08539 
z
" clip-path="url(#pa2440c461f)" style="fill: #ff0000"/>
   </g>
   <g id="patch_101">
    <path d="M 610.737896 181.519649 
Q 608.952873 181.80252 607.032981 181.944601 
Q 605.113089 182.08539 603.066262 182.08539 
Q 598.441068 182.08539 595.739733 181.243237 
Q 593.038397 180.401085 593.038397 178.960901 
Q 593.038397 177.503925 595.787333 176.668231 
Q 598.540236 175.832536 603.328066 175.832536 
Q 605.17259 175.832536 606.862412 175.946201 
Q 608.556201 176.058574 610.055621 176.280737 
L 610.055621 177.527175 
Q 608.508601 177.241721 606.977447 177.100932 
Q 605.446294 176.958851 603.907207 176.958851 
Q 601.059103 176.958851 599.516049 177.478092 
Q 597.972995 177.996042 597.972995 178.960901 
Q 597.972995 179.916718 599.460515 180.438542 
Q 600.948035 180.959075 603.685071 180.959075 
Q 604.430814 180.959075 605.069455 180.929368 
Q 605.708097 180.898368 606.215837 180.833786 
L 606.215837 179.663555 
L 603.300299 179.663555 
L 603.300299 178.621198 
L 610.737896 178.621198 
L 610.737896 181.519649 
z
" clip-path="url(#pa2440c461f)" style="fill: #ffa600"/>
   </g>
   <g id="patch_102">
    <path d="M 610.737896 173.453432 
Q 609.257364 174.6327 607.656427 175.22919 
Q 606.055489 175.832536 604.31185 175.832536 
Q 599.112148 175.832536 596.075273 171.362288 
Q 593.038397 166.89204 593.038397 159.247367 
Q 593.038397 151.57527 596.075273 147.111878 
Q 599.112148 142.641629 604.31185 142.641629 
Q 606.055489 142.641629 607.656427 143.244976 
Q 609.257364 143.841466 610.737896 145.020734 
L 610.737896 151.636975 
Q 609.243986 150.07376 607.794669 149.347002 
Q 606.345353 148.620244 604.744415 148.620244 
Q 601.872539 148.620244 600.227007 151.451858 
Q 598.585935 154.276616 598.585935 159.247367 
Q 598.585935 164.19755 600.227007 167.029164 
Q 601.872539 169.853922 604.744415 169.853922 
Q 606.345353 169.853922 607.794669 169.127164 
Q 609.243986 168.39355 610.737896 166.830334 
L 610.737896 173.453432 
z
" clip-path="url(#pa2440c461f)" style="fill: #0000ff"/>
   </g>
   <g id="patch_103">
    <path d="M 611.669449 185.601831 
L 629.368948 185.601831 
L 629.368948 186.896459 
L 623.001245 186.896459 
L 623.001245 192.24 
L 618.049501 192.24 
L 618.049501 186.896459 
L 611.669449 186.896459 
L 611.669449 185.601831 
z
" clip-path="url(#pa2440c461f)" style="fill: #ff0000"/>
   </g>
   <g id="patch_104">
    <path d="M 629.368948 184.662125 
Q 627.583925 185.131978 625.664033 185.367977 
Q 623.744141 185.601831 621.697314 185.601831 
Q 617.07212 185.601831 614.370785 184.202999 
Q 611.669449 182.804168 611.669449 180.411995 
Q 611.669449 177.99193 614.418385 176.603826 
Q 617.171288 175.215722 621.959118 175.215722 
Q 623.803642 175.215722 625.493464 175.404521 
Q 627.187253 175.591175 628.686673 175.960192 
L 628.686673 178.030548 
Q 627.139652 177.556405 625.608499 177.322551 
Q 624.077345 177.086552 622.538259 177.086552 
Q 619.690154 177.086552 618.147101 177.949021 
Q 616.604047 178.809346 616.604047 180.411995 
Q 616.604047 181.999625 618.091567 182.866386 
Q 619.579086 183.731001 622.316122 183.731001 
Q 623.061865 183.731001 623.700507 183.681656 
Q 624.339149 183.630165 624.846889 183.522893 
L 624.846889 181.579118 
L 621.931351 181.579118 
L 621.931351 179.847742 
L 629.368948 179.847742 
L 629.368948 184.662125 
z
" clip-path="url(#pa2440c461f)" style="fill: #ffa600"/>
   </g>
   <g id="patch_105">
    <path d="M 629.368948 172.149518 
Q 627.888416 173.669366 626.287478 174.438126 
Q 624.686541 175.215722 622.942902 175.215722 
Q 617.7432 175.215722 614.706325 169.45444 
Q 611.669449 163.693159 611.669449 153.840661 
Q 611.669449 143.952818 614.706325 138.200372 
Q 617.7432 132.439091 622.942902 132.439091 
Q 624.686541 132.439091 626.287478 133.216687 
Q 627.888416 133.985447 629.368948 135.505295 
L 629.368948 144.032344 
Q 627.875037 142.017663 626.425721 141.081013 
Q 624.976404 140.144363 623.375467 140.144363 
Q 620.503591 140.144363 618.858059 143.793764 
Q 617.216987 147.434328 617.216987 153.840661 
Q 617.216987 160.220485 618.858059 163.869885 
Q 620.503591 167.51045 623.375467 167.51045 
Q 624.976404 167.51045 626.425721 166.5738 
Q 627.875037 165.628313 629.368948 163.613632 
L 629.368948 172.149518 
z
" clip-path="url(#pa2440c461f)" style="fill: #0000ff"/>
   </g>
   <g id="patch_106">
    <path d="M 642.560959 190.97114 
L 635.754017 190.97114 
L 634.679236 192.24 
L 630.300501 192.24 
L 636.553769 185.274704 
L 641.746732 185.274704 
L 648 192.24 
L 643.624884 192.24 
L 642.560959 190.97114 
z
M 636.839653 189.678395 
L 641.464466 189.678395 
L 639.155679 186.907802 
L 636.839653 189.678395 
z
" clip-path="url(#pa2440c461f)" style="fill: #008000"/>
   </g>
   <g id="patch_107">
    <path d="M 630.300501 177.117942 
L 648 177.117942 
L 648 178.708738 
L 641.632296 178.708738 
L 641.632296 185.274704 
L 636.680553 185.274704 
L 636.680553 178.708738 
L 630.300501 178.708738 
L 630.300501 177.117942 
z
" clip-path="url(#pa2440c461f)" style="fill: #ff0000"/>
   </g>
   <g id="patch_108">
    <path d="M 648 175.543481 
Q 646.214977 176.330712 644.295085 176.726124 
Q 642.375193 177.117942 640.328366 177.117942 
Q 635.703172 177.117942 633.001836 174.774224 
Q 630.300501 172.430505 630.300501 168.422459 
Q 630.300501 164.367682 633.049437 162.041936 
Q 635.80234 159.716191 640.590169 159.716191 
Q 642.434694 159.716191 644.124516 160.032521 
Q 645.818305 160.345257 647.317724 160.963538 
L 647.317724 164.432386 
Q 645.770704 163.637966 644.239551 163.246148 
Q 642.708397 162.850735 641.16931 162.850735 
Q 638.321206 162.850735 636.778153 164.295788 
Q 635.235099 165.737247 635.235099 168.422459 
Q 635.235099 171.082507 636.722619 172.53475 
Q 638.210138 173.983398 640.947174 173.983398 
Q 641.692917 173.983398 642.331559 173.900721 
Q 642.970201 173.814449 643.477941 173.634716 
L 643.477941 170.377954 
L 640.562402 170.377954 
L 640.562402 167.477063 
L 648 167.477063 
L 648 175.543481 
z
" clip-path="url(#pa2440c461f)" style="fill: #ffa600"/>
   </g>
   <g id="patch_109">
    <path d="M 648 157.477914 
Q 646.519467 158.587377 644.91853 159.148559 
Q 643.317593 159.716191 641.573954 159.716191 
Q 636.374252 159.716191 633.337376 155.510553 
Q 630.300501 151.304914 630.300501 144.112757 
Q 630.300501 136.894797 633.337376 132.695609 
Q 636.374252 128.489971 641.573954 128.489971 
Q 643.317593 128.489971 644.91853 129.057603 
Q 646.519467 129.618785 648 130.728248 
L 648 136.952851 
Q 646.506089 135.482167 645.056773 134.798429 
Q 643.607456 134.11469 642.006519 134.11469 
Q 639.134642 134.11469 637.489111 136.778691 
Q 635.848038 139.436242 635.848038 144.112757 
Q 635.848038 148.769921 637.489111 151.433922 
Q 639.134642 154.091472 642.006519 154.091472 
Q 643.607456 154.091472 645.056773 153.407733 
Q 646.506089 152.717544 648 151.246861 
L 648 157.477914 
z
" clip-path="url(#pa2440c461f)" style="fill: #0000ff"/>
   </g>
   <g id="patch_110">
    <path d="M 200.854758 194.183097 
Q 199.069734 193.211549 197.149843 192.723556 
Q 195.229951 192.24 193.183124 192.24 
Q 188.55793 192.24 185.856594 195.132464 
Q 183.155259 198.024928 183.155259 202.971397 
Q 183.155259 207.975537 185.904195 210.84582 
Q 188.657098 213.716102 193.444927 213.716102 
Q 195.289451 213.716102 196.979274 213.325709 
Q 198.673063 212.939751 200.172482 212.176708 
L 200.172482 207.895684 
Q 198.625462 208.876105 197.094309 209.359661 
Q 195.563155 209.847654 194.024068 209.847654 
Q 191.175964 209.847654 189.632911 208.064263 
Q 188.089857 206.285309 188.089857 202.971397 
Q 188.089857 199.688539 189.577376 197.896276 
Q 191.064896 196.108449 193.801932 196.108449 
Q 194.547675 196.108449 195.186317 196.210484 
Q 195.824959 196.316955 196.332699 196.53877 
L 196.332699 200.558052 
L 193.41716 200.558052 
L 193.41716 204.138142 
L 200.854758 204.138142 
L 200.854758 194.183097 
z
" clip-path="url(#pa2440c461f)" style="fill: #ffa600"/>
   </g>
   <g id="patch_111">
    <path d="M 219.48581 193.32274 
Q 217.700786 192.78137 215.780894 192.509449 
Q 213.861002 192.24 211.814176 192.24 
Q 207.188981 192.24 204.487646 193.851751 
Q 201.786311 195.463501 201.786311 198.219792 
Q 201.786311 201.00822 204.535247 202.60761 
Q 207.288149 204.207001 212.075979 204.207001 
Q 213.920503 204.207001 215.610325 203.989464 
Q 217.304114 203.774399 218.803534 203.349213 
L 218.803534 200.963723 
Q 217.256514 201.510038 215.72536 201.779487 
Q 214.194207 202.051408 212.65512 202.051408 
Q 209.807016 202.051408 208.263962 201.05766 
Q 206.720909 200.066384 206.720909 198.219792 
Q 206.720909 196.390505 208.208428 195.391813 
Q 209.695948 194.395593 212.432984 194.395593 
Q 213.178727 194.395593 213.817369 194.452449 
Q 214.45601 194.511777 214.96375 194.635378 
L 214.96375 196.875019 
L 212.048212 196.875019 
L 212.048212 198.869931 
L 219.48581 198.869931 
L 219.48581 193.32274 
z
" clip-path="url(#pa2440c461f)" style="fill: #ffa600"/>
   </g>
   <g id="patch_112">
    <path d="M 238.116861 193.832388 
Q 236.331838 193.036194 234.411946 192.636279 
Q 232.492054 192.24 230.445227 192.24 
Q 225.820033 192.24 223.118698 194.610404 
Q 220.417362 196.980807 220.417362 201.034488 
Q 220.417362 205.135431 223.166298 207.487657 
Q 225.919201 209.839883 230.707031 209.839883 
Q 232.551555 209.839883 234.241377 209.519951 
Q 235.935166 209.203655 237.434586 208.578334 
L 237.434586 205.069991 
Q 235.887565 205.873456 234.356412 206.269735 
Q 232.825259 206.66965 231.286172 206.66965 
Q 228.438068 206.66965 226.895014 205.208143 
Q 225.35196 203.750272 225.35196 201.034488 
Q 225.35196 198.344153 226.83948 196.875375 
Q 228.327 195.410233 231.064035 195.410233 
Q 231.809779 195.410233 232.44842 195.493851 
Q 233.087062 195.581106 233.594802 195.762885 
L 233.594802 199.056728 
L 230.679264 199.056728 
L 230.679264 201.990648 
L 238.116861 201.990648 
L 238.116861 193.832388 
z
" clip-path="url(#pa2440c461f)" style="fill: #ffa600"/>
   </g>
   <g id="patch_113">
    <path d="M 251.308873 193.458599 
L 244.50193 193.458599 
L 243.427149 192.24 
L 239.048414 192.24 
L 245.301682 198.929392 
L 250.494645 198.929392 
L 256.747913 192.24 
L 252.372797 192.24 
L 251.308873 193.458599 
z
M 245.587567 194.700136 
L 250.212379 194.700136 
L 247.903592 197.360983 
L 245.587567 194.700136 
z
" clip-path="url(#pa2440c461f)" style="fill: #008000"/>
   </g>
   <g id="patch_114">
    <path d="M 275.378965 192.31597 
Q 273.593941 192.277985 271.67405 192.258906 
Q 269.754158 192.24 267.707331 192.24 
Q 263.082137 192.24 260.380801 192.353087 
Q 257.679466 192.466175 257.679466 192.659568 
Q 257.679466 192.855216 260.428402 192.967436 
Q 263.181305 193.079656 267.969134 193.079656 
Q 269.813659 193.079656 271.503481 193.064393 
Q 273.19727 193.049303 274.696689 193.01947 
L 274.696689 192.852094 
Q 273.149669 192.890426 271.618516 192.909331 
Q 270.087362 192.92841 268.548275 192.92841 
Q 265.700171 192.92841 264.157118 192.858685 
Q 262.614064 192.789133 262.614064 192.659568 
Q 262.614064 192.531217 264.101583 192.461145 
Q 265.589103 192.391246 268.326139 192.391246 
Q 269.071882 192.391246 269.710524 192.395235 
Q 270.349166 192.399398 270.856906 192.40807 
L 270.856906 192.565213 
L 267.941367 192.565213 
L 267.941367 192.705184 
L 275.378965 192.705184 
L 275.378965 192.31597 
z
" clip-path="url(#pa2440c461f)" style="fill: #ffa600"/>
   </g>
   <g id="patch_115">
    <path d="M 325.83308 192.298357 
L 319.026137 192.298357 
L 317.951356 192.24 
L 313.572621 192.24 
L 319.825889 192.560348 
L 325.018852 192.560348 
L 331.27212 192.24 
L 326.897004 192.24 
L 325.83308 192.298357 
z
M 320.111774 192.357813 
L 324.736586 192.357813 
L 322.427799 192.485238 
L 320.111774 192.357813 
z
" clip-path="url(#pa2440c461f)" style="fill: #008000"/>
   </g>
   <g id="patch_116">
    <path d="M 363.095183 192.242807 
L 356.28824 192.242807 
L 355.21346 192.24 
L 350.834725 192.24 
L 357.087993 192.255411 
L 362.280956 192.255411 
L 368.534224 192.24 
L 364.159107 192.24 
L 363.095183 192.242807 
z
M 357.373877 192.245668 
L 361.99869 192.245668 
L 359.689902 192.251798 
L 357.373877 192.245668 
z
" clip-path="url(#pa2440c461f)" style="fill: #008000"/>
   </g>
   <g id="patch_117">
    <path d="M 350.834725 192.624775 
L 368.534224 192.624775 
L 368.534224 192.552739 
L 362.16652 192.552739 
L 362.16652 192.255411 
L 357.214777 192.255411 
L 357.214777 192.552739 
L 350.834725 192.552739 
L 350.834725 192.624775 
z
" clip-path="url(#pa2440c461f)" style="fill: #ff0000"/>
   </g>
   <g id="patch_118">
    <path d="M 387.165275 192.272799 
Q 385.380252 192.2564 383.46036 192.248162 
Q 381.540468 192.24 379.493641 192.24 
Q 374.868447 192.24 372.167112 192.288825 
Q 369.465776 192.33765 369.465776 192.421146 
Q 369.465776 192.505616 372.214712 192.554066 
Q 374.967615 192.602517 379.755445 192.602517 
Q 381.599969 192.602517 383.289791 192.595927 
Q 384.98358 192.589412 386.483 192.576532 
L 386.483 192.504268 
Q 384.93598 192.520818 383.404826 192.52898 
Q 381.873673 192.537217 380.334586 192.537217 
Q 377.486482 192.537217 375.943428 192.507114 
Q 374.400374 192.477085 374.400374 192.421146 
Q 374.400374 192.365731 375.887894 192.335478 
Q 377.375414 192.305299 380.112449 192.305299 
Q 380.858193 192.305299 381.496834 192.307022 
Q 382.135476 192.308819 382.643216 192.312563 
L 382.643216 192.380409 
L 379.727678 192.380409 
L 379.727678 192.440841 
L 387.165275 192.440841 
L 387.165275 192.272799 
z
" clip-path="url(#pa2440c461f)" style="fill: #ffa600"/>
   </g>
   <g id="patch_119">
    <path d="M 406.72788 193.305046 
L 424.427379 193.305046 
L 424.427379 193.097333 
L 418.059675 193.097333 
L 418.059675 192.24 
L 413.107932 192.24 
L 413.107932 193.097333 
L 406.72788 193.097333 
L 406.72788 193.305046 
z
" clip-path="url(#pa2440c461f)" style="fill: #ff0000"/>
   </g>
   <g id="patch_120">
    <path d="M 530.774649 192.642088 
L 523.967706 192.642088 
L 522.892926 192.24 
L 518.51419 192.24 
L 524.767458 194.447228 
L 529.960421 194.447228 
L 536.213689 192.24 
L 531.838573 192.24 
L 530.774649 192.642088 
z
M 525.053343 193.051745 
L 529.678156 193.051745 
L 527.369368 193.929717 
L 525.053343 193.051745 
z
" clip-path="url(#pa2440c461f)" style="fill: #008000"/>
   </g>
   <g id="patch_121">
    <path d="M 623.929908 192.49205 
L 617.122965 192.49205 
L 616.048184 192.24 
L 611.669449 192.24 
L 617.922717 193.623608 
L 623.11568 193.623608 
L 629.368948 192.24 
L 624.993832 192.24 
L 623.929908 192.49205 
z
M 618.208602 192.748845 
L 622.833415 192.748845 
L 620.524627 193.299205 
L 618.208602 192.748845 
z
" clip-path="url(#pa2440c461f)" style="fill: #008000"/>
   </g>
   <g id="matplotlib.axis_1">
    <g id="xtick_1">
     <g id="line2d_2">
      <defs>
       <path id="m21c011dbcf" d="M 0 0 
L 0 3.5 
" style="stroke: #000000; stroke-width: 0.8"/>
      </defs>
      <g>
       <use xlink:href="#m21c011dbcf" x="98.84975" y="192.24" style="stroke: #000000; stroke-width: 0.8"/>
      </g>
     </g>
     <g id="text_1">
      <!-- 0 -->
      <g transform="translate(95.6685 206.838437) scale(0.1 -0.1)">
       <defs>
        <path id="DejaVuSans-30" d="M 2034 4250 
Q 1547 4250 1301 3770 
Q 1056 3291 1056 2328 
Q 1056 1369 1301 889 
Q 1547 409 2034 409 
Q 2525 409 2770 889 
Q 3016 1369 3016 2328 
Q 3016 3291 2770 3770 
Q 2525 4250 2034 4250 
z
M 2034 4750 
Q 2819 4750 3233 4129 
Q 3647 3509 3647 2328 
Q 3647 1150 3233 529 
Q 2819 -91 2034 -91 
Q 1250 -91 836 529 
Q 422 1150 422 2328 
Q 422 3509 836 4129 
Q 1250 4750 2034 4750 
z
" transform="scale(0.015625)"/>
       </defs>
       <use xlink:href="#DejaVuSans-30"/>
      </g>
     </g>
    </g>
    <g id="xtick_2">
     <g id="line2d_3">
      <g>
       <use xlink:href="#m21c011dbcf" x="192.005008" y="192.24" style="stroke: #000000; stroke-width: 0.8"/>
      </g>
     </g>
     <g id="text_2">
      <!-- 5 -->
      <g transform="translate(188.823758 206.838437) scale(0.1 -0.1)">
       <defs>
        <path id="DejaVuSans-35" d="M 691 4666 
L 3169 4666 
L 3169 4134 
L 1269 4134 
L 1269 2991 
Q 1406 3038 1543 3061 
Q 1681 3084 1819 3084 
Q 2600 3084 3056 2656 
Q 3513 2228 3513 1497 
Q 3513 744 3044 326 
Q 2575 -91 1722 -91 
Q 1428 -91 1123 -41 
Q 819 9 494 109 
L 494 744 
Q 775 591 1075 516 
Q 1375 441 1709 441 
Q 2250 441 2565 725 
Q 2881 1009 2881 1497 
Q 2881 1984 2565 2268 
Q 2250 2553 1709 2553 
Q 1456 2553 1204 2497 
Q 953 2441 691 2322 
L 691 4666 
z
" transform="scale(0.015625)"/>
       </defs>
       <use xlink:href="#DejaVuSans-35"/>
      </g>
     </g>
    </g>
    <g id="xtick_3">
     <g id="line2d_4">
      <g>
       <use xlink:href="#m21c011dbcf" x="285.160267" y="192.24" style="stroke: #000000; stroke-width: 0.8"/>
      </g>
     </g>
     <g id="text_3">
      <!-- 10 -->
      <g transform="translate(278.797767 206.838437) scale(0.1 -0.1)">
       <defs>
        <path id="DejaVuSans-31" d="M 794 531 
L 1825 531 
L 1825 4091 
L 703 3866 
L 703 4441 
L 1819 4666 
L 2450 4666 
L 2450 531 
L 3481 531 
L 3481 0 
L 794 0 
L 794 531 
z
" transform="scale(0.015625)"/>
       </defs>
       <use xlink:href="#DejaVuSans-31"/>
       <use xlink:href="#DejaVuSans-30" x="63.623047"/>
      </g>
     </g>
    </g>
    <g id="xtick_4">
     <g id="line2d_5">
      <g>
       <use xlink:href="#m21c011dbcf" x="378.315526" y="192.24" style="stroke: #000000; stroke-width: 0.8"/>
      </g>
     </g>
     <g id="text_4">
      <!-- 15 -->
      <g transform="translate(371.953026 206.838437) scale(0.1 -0.1)">
       <use xlink:href="#DejaVuSans-31"/>
       <use xlink:href="#DejaVuSans-35" x="63.623047"/>
      </g>
     </g>
    </g>
    <g id="xtick_5">
     <g id="line2d_6">
      <g>
       <use xlink:href="#m21c011dbcf" x="471.470785" y="192.24" style="stroke: #000000; stroke-width: 0.8"/>
      </g>
     </g>
     <g id="text_5">
      <!-- 20 -->
      <g transform="translate(465.108285 206.838437) scale(0.1 -0.1)">
       <defs>
        <path id="DejaVuSans-32" d="M 1228 531 
L 3431 531 
L 3431 0 
L 469 0 
L 469 531 
Q 828 903 1448 1529 
Q 2069 2156 2228 2338 
Q 2531 2678 2651 2914 
Q 2772 3150 2772 3378 
Q 2772 3750 2511 3984 
Q 2250 4219 1831 4219 
Q 1534 4219 1204 4116 
Q 875 4013 500 3803 
L 500 4441 
Q 881 4594 1212 4672 
Q 1544 4750 1819 4750 
Q 2544 4750 2975 4387 
Q 3406 4025 3406 3419 
Q 3406 3131 3298 2873 
Q 3191 2616 2906 2266 
Q 2828 2175 2409 1742 
Q 1991 1309 1228 531 
z
" transform="scale(0.015625)"/>
       </defs>
       <use xlink:href="#DejaVuSans-32"/>
       <use xlink:href="#DejaVuSans-30" x="63.623047"/>
      </g>
     </g>
    </g>
    <g id="xtick_6">
     <g id="line2d_7">
      <g>
       <use xlink:href="#m21c011dbcf" x="564.626043" y="192.24" style="stroke: #000000; stroke-width: 0.8"/>
      </g>
     </g>
     <g id="text_6">
      <!-- 25 -->
      <g transform="translate(558.263543 206.838437) scale(0.1 -0.1)">
       <use xlink:href="#DejaVuSans-32"/>
       <use xlink:href="#DejaVuSans-35" x="63.623047"/>
      </g>
     </g>
    </g>
   </g>
   <g id="matplotlib.axis_2">
    <g id="ytick_1">
     <g id="line2d_8">
      <defs>
       <path id="m8b232cec49" d="M 0 0 
L -3.5 0 
" style="stroke: #000000; stroke-width: 0.8"/>
      </defs>
      <g>
       <use xlink:href="#m8b232cec49" x="90" y="192.24" style="stroke: #000000; stroke-width: 0.8"/>
      </g>
     </g>
     <g id="text_7">
      <!-- 0.000 -->
      <g transform="translate(54.371875 196.039219) scale(0.1 -0.1)">
       <defs>
        <path id="DejaVuSans-2e" d="M 684 794 
L 1344 794 
L 1344 0 
L 684 0 
L 684 794 
z
" transform="scale(0.015625)"/>
       </defs>
       <use xlink:href="#DejaVuSans-30"/>
       <use xlink:href="#DejaVuSans-2e" x="63.623047"/>
       <use xlink:href="#DejaVuSans-30" x="95.410156"/>
       <use xlink:href="#DejaVuSans-30" x="159.033203"/>
       <use xlink:href="#DejaVuSans-30" x="222.65625"/>
      </g>
     </g>
    </g>
    <g id="ytick_2">
     <g id="line2d_9">
      <g>
       <use xlink:href="#m8b232cec49" x="90" y="154.150737" style="stroke: #000000; stroke-width: 0.8"/>
      </g>
     </g>
     <g id="text_8">
      <!-- 0.002 -->
      <g transform="translate(54.371875 157.949956) scale(0.1 -0.1)">
       <use xlink:href="#DejaVuSans-30"/>
       <use xlink:href="#DejaVuSans-2e" x="63.623047"/>
       <use xlink:href="#DejaVuSans-30" x="95.410156"/>
       <use xlink:href="#DejaVuSans-30" x="159.033203"/>
       <use xlink:href="#DejaVuSans-32" x="222.65625"/>
      </g>
     </g>
    </g>
    <g id="ytick_3">
     <g id="line2d_10">
      <g>
       <use xlink:href="#m8b232cec49" x="90" y="116.061475" style="stroke: #000000; stroke-width: 0.8"/>
      </g>
     </g>
     <g id="text_9">
      <!-- 0.004 -->
      <g transform="translate(54.371875 119.860694) scale(0.1 -0.1)">
       <defs>
        <path id="DejaVuSans-34" d="M 2419 4116 
L 825 1625 
L 2419 1625 
L 2419 4116 
z
M 2253 4666 
L 3047 4666 
L 3047 1625 
L 3713 1625 
L 3713 1100 
L 3047 1100 
L 3047 0 
L 2419 0 
L 2419 1100 
L 313 1100 
L 313 1709 
L 2253 4666 
z
" transform="scale(0.015625)"/>
       </defs>
       <use xlink:href="#DejaVuSans-30"/>
       <use xlink:href="#DejaVuSans-2e" x="63.623047"/>
       <use xlink:href="#DejaVuSans-30" x="95.410156"/>
       <use xlink:href="#DejaVuSans-30" x="159.033203"/>
       <use xlink:href="#DejaVuSans-34" x="222.65625"/>
      </g>
     </g>
    </g>
    <g id="ytick_4">
     <g id="line2d_11">
      <g>
       <use xlink:href="#m8b232cec49" x="90" y="77.972212" style="stroke: #000000; stroke-width: 0.8"/>
      </g>
     </g>
     <g id="text_10">
      <!-- 0.006 -->
      <g transform="translate(54.371875 81.771431) scale(0.1 -0.1)">
       <defs>
        <path id="DejaVuSans-36" d="M 2113 2584 
Q 1688 2584 1439 2293 
Q 1191 2003 1191 1497 
Q 1191 994 1439 701 
Q 1688 409 2113 409 
Q 2538 409 2786 701 
Q 3034 994 3034 1497 
Q 3034 2003 2786 2293 
Q 2538 2584 2113 2584 
z
M 3366 4563 
L 3366 3988 
Q 3128 4100 2886 4159 
Q 2644 4219 2406 4219 
Q 1781 4219 1451 3797 
Q 1122 3375 1075 2522 
Q 1259 2794 1537 2939 
Q 1816 3084 2150 3084 
Q 2853 3084 3261 2657 
Q 3669 2231 3669 1497 
Q 3669 778 3244 343 
Q 2819 -91 2113 -91 
Q 1303 -91 875 529 
Q 447 1150 447 2328 
Q 447 3434 972 4092 
Q 1497 4750 2381 4750 
Q 2619 4750 2861 4703 
Q 3103 4656 3366 4563 
z
" transform="scale(0.015625)"/>
       </defs>
       <use xlink:href="#DejaVuSans-30"/>
       <use xlink:href="#DejaVuSans-2e" x="63.623047"/>
       <use xlink:href="#DejaVuSans-30" x="95.410156"/>
       <use xlink:href="#DejaVuSans-30" x="159.033203"/>
       <use xlink:href="#DejaVuSans-36" x="222.65625"/>
      </g>
     </g>
    </g>
    <g id="ytick_5">
     <g id="line2d_12">
      <g>
       <use xlink:href="#m8b232cec49" x="90" y="39.88295" style="stroke: #000000; stroke-width: 0.8"/>
      </g>
     </g>
     <g id="text_11">
      <!-- 0.008 -->
      <g transform="translate(54.371875 43.682168) scale(0.1 -0.1)">
       <defs>
        <path id="DejaVuSans-38" d="M 2034 2216 
Q 1584 2216 1326 1975 
Q 1069 1734 1069 1313 
Q 1069 891 1326 650 
Q 1584 409 2034 409 
Q 2484 409 2743 651 
Q 3003 894 3003 1313 
Q 3003 1734 2745 1975 
Q 2488 2216 2034 2216 
z
M 1403 2484 
Q 997 2584 770 2862 
Q 544 3141 544 3541 
Q 544 4100 942 4425 
Q 1341 4750 2034 4750 
Q 2731 4750 3128 4425 
Q 3525 4100 3525 3541 
Q 3525 3141 3298 2862 
Q 3072 2584 2669 2484 
Q 3125 2378 3379 2068 
Q 3634 1759 3634 1313 
Q 3634 634 3220 271 
Q 2806 -91 2034 -91 
Q 1263 -91 848 271 
Q 434 634 434 1313 
Q 434 1759 690 2068 
Q 947 2378 1403 2484 
z
M 1172 3481 
Q 1172 3119 1398 2916 
Q 1625 2713 2034 2713 
Q 2441 2713 2670 2916 
Q 2900 3119 2900 3481 
Q 2900 3844 2670 4047 
Q 2441 4250 2034 4250 
Q 1625 4250 1398 4047 
Q 1172 3844 1172 3481 
z
" transform="scale(0.015625)"/>
       </defs>
       <use xlink:href="#DejaVuSans-30"/>
       <use xlink:href="#DejaVuSans-2e" x="63.623047"/>
       <use xlink:href="#DejaVuSans-30" x="95.410156"/>
       <use xlink:href="#DejaVuSans-30" x="159.033203"/>
       <use xlink:href="#DejaVuSans-38" x="222.65625"/>
      </g>
     </g>
    </g>
   </g>
  </g>
 </g>
 <defs>
  <clipPath id="pa2440c461f">
   <rect x="90" y="25.92" width="558" height="166.32"/>
  </clipPath>
 </defs>
</svg>
