<?xml version="1.0" encoding="utf-8" standalone="no"?>
<!DOCTYPE svg PUBLIC "-//W3C//DTD SVG 1.1//EN"
  "http://www.w3.org/Graphics/SVG/1.1/DTD/svg11.dtd">
<svg xmlns:xlink="http://www.w3.org/1999/xlink" width="720pt" height="216pt" viewBox="0 0 720 216" xmlns="http://www.w3.org/2000/svg" version="1.1">
 <metadata>
  <rdf:RDF xmlns:dc="http://purl.org/dc/elements/1.1/" xmlns:cc="http://creativecommons.org/ns#" xmlns:rdf="http://www.w3.org/1999/02/22-rdf-syntax-ns#">
   <cc:Work>
    <dc:type rdf:resource="http://purl.org/dc/dcmitype/StillImage"/>
    <dc:date>2024-11-23T04:39:41.986194</dc:date>
    <dc:format>image/svg+xml</dc:format>
    <dc:creator>
     <cc:Agent>
      <dc:title>Matplotlib v3.7.2, https://matplotlib.org/</dc:title>
     </cc:Agent>
    </dc:creator>
   </cc:Work>
  </rdf:RDF>
 </metadata>
 <defs>
  <style type="text/css">*{stroke-linejoin: round; stroke-linecap: butt}</style>
 </defs>
 <g id="figure_1">
  <g id="patch_1">
   <path d="M 0 216 
L 720 216 
L 720 0 
L 0 0 
z
" style="fill: #ffffff"/>
  </g>
  <g id="axes_1">
   <g id="patch_2">
    <path d="M 90 192.24 
L 648 192.24 
L 648 25.92 
L 90 25.92 
z
" style="fill: #ffffff"/>
   </g>
   <g id="line2d_1">
    <path d="M 90 192.24 
L 648 192.24 
" clip-path="url(#p832784634b)" style="fill: none; stroke: #000000; stroke-width: 0.5; stroke-linecap: square"/>
   </g>
   <g id="patch_3">
    <path d="M 90 189.899884 
L 134.359833 189.899884 
L 134.359833 190.356272 
L 118.400609 190.356272 
L 118.400609 192.24 
L 105.990172 192.24 
L 105.990172 190.356272 
L 90 190.356272 
L 90 189.899884 
z
" clip-path="url(#p832784634b)" style="fill: #ff0000"/>
   </g>
   <g id="patch_4">
    <path d="M 134.359833 189.599577 
Q 129.886071 189.749731 125.074292 189.82515 
Q 120.262512 189.899884 115.132599 189.899884 
Q 103.540585 189.899884 96.770293 189.452852 
Q 90 189.00582 90 188.24134 
Q 90 187.467946 96.889593 187.024342 
Q 103.789128 186.580738 115.788751 186.580738 
Q 120.411638 186.580738 124.646799 186.641074 
Q 128.891902 186.700724 132.649861 186.818653 
L 132.649861 187.480288 
Q 128.772601 187.328763 124.935108 187.254029 
Q 121.097615 187.17861 117.240238 187.17861 
Q 110.102103 187.17861 106.234784 187.454234 
Q 102.367466 187.729172 102.367466 188.24134 
Q 102.367466 188.748708 106.0956 189.025703 
Q 109.823735 189.302013 116.683503 189.302013 
Q 118.552541 189.302013 120.153154 189.286243 
Q 121.753766 189.269788 123.026303 189.235507 
L 123.026303 188.614324 
L 115.719159 188.614324 
L 115.719159 188.061018 
L 134.359833 188.061018 
L 134.359833 189.599577 
z
" clip-path="url(#p832784634b)" style="fill: #ffa600"/>
   </g>
   <g id="patch_5">
    <path d="M 120.728095 185.773325 
L 103.668016 185.773325 
L 100.97432 186.580738 
L 90 186.580738 
L 105.672417 182.148515 
L 118.687416 182.148515 
L 134.359833 186.580738 
L 123.394583 186.580738 
L 120.728095 185.773325 
z
M 106.388922 184.950714 
L 117.97998 184.950714 
L 112.193521 183.187703 
L 106.388922 184.950714 
z
" clip-path="url(#p832784634b)" style="fill: #008000"/>
   </g>
   <g id="patch_6">
    <path d="M 134.359833 181.31679 
Q 130.649209 181.729057 126.636818 181.937588 
Q 122.624427 182.148515 118.254386 182.148515 
Q 105.222497 182.148515 97.611249 180.585736 
Q 90 179.022956 90 176.350411 
Q 90 173.668279 97.611249 172.107896 
Q 105.222497 170.545116 118.254386 170.545116 
Q 122.624427 170.545116 126.636818 170.756044 
Q 130.649209 170.964574 134.359833 171.376841 
L 134.359833 173.689851 
Q 130.615679 173.143357 126.983292 172.889286 
Q 123.350905 172.635214 119.338514 172.635214 
Q 112.140798 172.635214 108.016642 173.625134 
Q 103.903661 174.612658 103.903661 176.350411 
Q 103.903661 178.080974 108.016642 179.070894 
Q 112.140798 180.058417 119.338514 180.058417 
Q 123.350905 180.058417 126.983292 179.804346 
Q 130.615679 179.547877 134.359833 179.001384 
L 134.359833 181.31679 
z
" clip-path="url(#p832784634b)" style="fill: #0000ff"/>
   </g>
   <g id="patch_7">
    <path d="M 181.054393 191.994757 
Q 176.580632 192.117379 171.768852 192.178969 
Q 166.957073 192.24 161.82716 192.24 
Q 150.235146 192.24 143.464853 191.874936 
Q 136.694561 191.509871 136.694561 190.885567 
Q 136.694561 190.253983 143.584154 189.891718 
Q 150.483688 189.529453 162.483311 189.529453 
Q 167.106199 189.529453 171.34136 189.578726 
Q 175.586462 189.627438 179.344422 189.723744 
L 179.344422 190.264061 
Q 175.467162 190.14032 171.629669 190.079289 
Q 167.792175 190.017699 163.934799 190.017699 
Q 156.796663 190.017699 152.929345 190.242785 
Q 149.062026 190.46731 149.062026 190.885567 
Q 149.062026 191.299903 152.790161 191.526109 
Q 156.518296 191.751754 163.378064 191.751754 
Q 165.247102 191.751754 166.847714 191.738876 
Q 168.448327 191.725438 169.720864 191.697443 
L 169.720864 191.19016 
L 162.41372 191.19016 
L 162.41372 190.738309 
L 181.054393 190.738309 
L 181.054393 191.994757 
z
" clip-path="url(#p832784634b)" style="fill: #ffa600"/>
   </g>
   <g id="patch_8">
    <path d="M 136.694561 182.778367 
L 181.054393 182.778367 
L 181.054393 184.095017 
L 165.09517 184.095017 
L 165.09517 189.529453 
L 152.684733 189.529453 
L 152.684733 184.095017 
L 136.694561 184.095017 
L 136.694561 182.778367 
z
" clip-path="url(#p832784634b)" style="fill: #ff0000"/>
   </g>
   <g id="patch_9">
    <path d="M 181.054393 182.164061 
Q 177.34377 182.468559 173.331379 182.622578 
Q 169.318988 182.778367 164.948946 182.778367 
Q 151.917058 182.778367 144.305809 181.624109 
Q 136.694561 180.469852 136.694561 178.49593 
Q 136.694561 176.514927 144.305809 175.36244 
Q 151.917058 174.208182 164.948946 174.208182 
Q 169.318988 174.208182 173.331379 174.363972 
Q 177.34377 174.517991 181.054393 174.822488 
L 181.054393 176.53086 
Q 177.31024 176.127224 173.677853 175.939569 
Q 170.045465 175.751913 166.033074 175.751913 
Q 158.835359 175.751913 154.711202 176.483061 
Q 150.598222 177.212438 150.598222 178.49593 
Q 150.598222 179.774111 154.711202 180.505259 
Q 158.835359 181.234636 166.033074 181.234636 
Q 170.045465 181.234636 173.677853 181.046981 
Q 177.31024 180.857555 181.054393 180.453919 
L 181.054393 182.164061 
z
" clip-path="url(#p832784634b)" style="fill: #0000ff"/>
   </g>
   <g id="patch_10">
    <path d="M 167.422656 172.437043 
L 150.362577 172.437043 
L 147.66888 174.208182 
L 136.694561 174.208182 
L 152.366978 164.485669 
L 165.381976 164.485669 
L 181.054393 174.208182 
L 170.089143 174.208182 
L 167.422656 172.437043 
z
M 153.083483 170.632565 
L 164.674541 170.632565 
L 158.888082 166.76523 
L 153.083483 170.632565 
z
" clip-path="url(#p832784634b)" style="fill: #008000"/>
   </g>
   <g id="patch_11">
    <path d="M 214.117216 191.754481 
L 197.057138 191.754481 
L 194.363441 192.24 
L 183.389121 192.24 
L 199.061538 189.574784 
L 212.076537 189.574784 
L 227.748954 192.24 
L 216.783704 192.24 
L 214.117216 191.754481 
z
M 199.778043 191.259822 
L 211.369102 191.259822 
L 205.582642 190.199676 
L 199.778043 191.259822 
z
" clip-path="url(#p832784634b)" style="fill: #008000"/>
   </g>
   <g id="patch_12">
    <path d="M 183.389121 185.729145 
L 227.748954 185.729145 
L 227.748954 186.479151 
L 211.78973 186.479151 
L 211.78973 189.574784 
L 199.379294 189.574784 
L 199.379294 186.479151 
L 183.389121 186.479151 
L 183.389121 185.729145 
z
" clip-path="url(#p832784634b)" style="fill: #ff0000"/>
   </g>
   <g id="patch_13">
    <path d="M 227.748954 185.126701 
Q 223.275192 185.427923 218.463413 185.579221 
Q 213.651634 185.729145 208.52172 185.729145 
Q 196.929707 185.729145 190.159414 184.832357 
Q 183.389121 183.935569 183.389121 182.401952 
Q 183.389121 180.850454 190.278714 179.960543 
Q 197.178249 179.070632 209.177872 179.070632 
Q 213.800759 179.070632 218.03592 179.191671 
Q 222.281023 179.311335 226.038983 179.54791 
L 226.038983 180.875212 
Q 222.161723 180.571239 218.324229 180.421316 
Q 214.486736 180.270017 210.629359 180.270017 
Q 203.491224 180.270017 199.623905 180.822945 
Q 195.756587 181.374497 195.756587 182.401952 
Q 195.756587 183.419778 199.484722 183.975457 
Q 203.212856 184.52976 210.072624 184.52976 
Q 211.941663 184.52976 213.542275 184.498124 
Q 215.142888 184.465114 216.415424 184.396342 
L 216.415424 183.150192 
L 209.10828 183.150192 
L 209.10828 182.04021 
L 227.748954 182.04021 
L 227.748954 185.126701 
z
" clip-path="url(#p832784634b)" style="fill: #ffa600"/>
   </g>
   <g id="patch_14">
    <path d="M 227.748954 177.859851 
Q 224.038331 178.460008 220.02594 178.763575 
Q 216.013549 179.070632 211.643507 179.070632 
Q 198.611619 179.070632 191.00037 176.79562 
Q 183.389121 174.520607 183.389121 170.630056 
Q 183.389121 166.725548 191.00037 164.454025 
Q 198.611619 162.179012 211.643507 162.179012 
Q 216.013549 162.179012 220.02594 162.486069 
Q 224.038331 162.789637 227.748954 163.389793 
L 227.748954 166.756952 
Q 224.004801 165.961395 220.372413 165.591531 
Q 216.740026 165.221667 212.727635 165.221667 
Q 205.52992 165.221667 201.405763 166.662741 
Q 197.292783 168.100326 197.292783 170.630056 
Q 197.292783 173.149319 201.405763 174.590393 
Q 205.52992 176.027977 212.727635 176.027977 
Q 216.740026 176.027977 220.372413 175.658113 
Q 224.004801 175.28476 227.748954 174.489203 
L 227.748954 177.859851 
z
" clip-path="url(#p832784634b)" style="fill: #0000ff"/>
   </g>
   <g id="patch_15">
    <path d="M 260.811777 191.188055 
L 243.751698 191.188055 
L 241.058002 192.24 
L 230.083682 192.24 
L 245.756099 186.465442 
L 258.771098 186.465442 
L 274.443515 192.24 
L 263.478265 192.24 
L 260.811777 191.188055 
z
M 246.472604 190.116309 
L 258.063662 190.116309 
L 252.277203 187.819357 
L 246.472604 190.116309 
z
" clip-path="url(#p832784634b)" style="fill: #008000"/>
   </g>
   <g id="patch_16">
    <path d="M 274.443515 185.82598 
Q 269.969753 186.145711 265.157974 186.306307 
Q 260.346194 186.465442 255.216281 186.465442 
Q 243.624267 186.465442 236.853975 185.513548 
Q 230.083682 184.561653 230.083682 182.933797 
Q 230.083682 181.286961 236.973275 180.342366 
Q 243.87281 179.397772 255.872433 179.397772 
Q 260.49532 179.397772 264.730481 179.526248 
Q 268.975584 179.653265 272.733544 179.904378 
L 272.733544 181.31324 
Q 268.856283 180.990589 265.01879 180.831453 
Q 261.181297 180.670858 257.32392 180.670858 
Q 250.185785 180.670858 246.318466 181.257762 
Q 242.451148 181.843206 242.451148 182.933797 
Q 242.451148 184.014168 246.179282 184.603992 
Q 249.907417 185.192356 256.767185 185.192356 
Q 258.636223 185.192356 260.236836 185.158777 
Q 261.837448 185.123738 263.109985 185.05074 
L 263.109985 183.728016 
L 255.802841 183.728016 
L 255.802841 182.549827 
L 274.443515 182.549827 
L 274.443515 185.82598 
z
" clip-path="url(#p832784634b)" style="fill: #ffa600"/>
   </g>
   <g id="patch_17">
    <path d="M 230.083682 148.450831 
L 274.443515 148.450831 
L 274.443515 154.486347 
L 258.484291 154.486347 
L 258.484291 179.397772 
L 246.073854 179.397772 
L 246.073854 154.486347 
L 230.083682 154.486347 
L 230.083682 148.450831 
z
" clip-path="url(#p832784634b)" style="fill: #ff0000"/>
   </g>
   <g id="patch_18">
    <path d="M 307.506338 192.238965 
L 290.446259 192.238965 
L 287.752562 192.24 
L 276.778243 192.24 
L 292.45066 192.23432 
L 305.465658 192.23432 
L 321.138075 192.24 
L 310.172825 192.24 
L 307.506338 192.238965 
z
M 293.167165 192.237911 
L 304.758223 192.237911 
L 298.971764 192.235652 
L 293.167165 192.237911 
z
" clip-path="url(#p832784634b)" style="fill: #008000"/>
   </g>
   <g id="patch_19">
    <path d="M 321.138075 192.219357 
Q 316.664314 192.226839 311.852534 192.230597 
Q 307.040755 192.23432 301.910842 192.23432 
Q 290.318828 192.23432 283.548535 192.212046 
Q 276.778243 192.189771 276.778243 192.151678 
Q 276.778243 192.113142 283.667836 192.091038 
Q 290.56737 192.068934 302.566993 192.068934 
Q 307.189881 192.068934 311.425042 192.07194 
Q 315.670144 192.074912 319.428104 192.080788 
L 319.428104 192.113756 
Q 315.550844 192.106206 311.713351 192.102482 
Q 307.875857 192.098724 304.018481 192.098724 
Q 296.880345 192.098724 293.013027 192.112458 
Q 289.145708 192.126158 289.145708 192.151678 
Q 289.145708 192.176959 292.873843 192.190762 
Q 296.601978 192.20453 303.461746 192.20453 
Q 305.330784 192.20453 306.931397 192.203744 
Q 308.532009 192.202924 309.804546 192.201216 
L 309.804546 192.170263 
L 302.497402 192.170263 
L 302.497402 192.142693 
L 321.138075 192.142693 
L 321.138075 192.219357 
z
" clip-path="url(#p832784634b)" style="fill: #ffa600"/>
   </g>
   <g id="patch_20">
    <path d="M 276.778243 190.203373 
L 321.138075 190.203373 
L 321.138075 190.56721 
L 305.178852 190.56721 
L 305.178852 192.068934 
L 292.768415 192.068934 
L 292.768415 190.56721 
L 276.778243 190.56721 
L 276.778243 190.203373 
z
" clip-path="url(#p832784634b)" style="fill: #ff0000"/>
   </g>
   <g id="patch_21">
    <path d="M 321.138075 183.16908 
Q 317.427452 186.655819 313.415061 188.41946 
Q 309.40267 190.203373 305.032628 190.203373 
Q 292.00074 190.203373 284.389491 176.9862 
Q 276.778243 163.769026 276.778243 141.166037 
Q 276.778243 118.481961 284.389491 105.285059 
Q 292.00074 92.067885 305.032628 92.067885 
Q 309.40267 92.067885 313.415061 93.851798 
Q 317.427452 95.615439 321.138075 99.102178 
L 321.138075 118.664407 
Q 317.393922 114.04245 313.761535 111.893646 
Q 310.129147 109.744841 306.116756 109.744841 
Q 298.919041 109.744841 294.794884 118.11707 
Q 290.681904 126.469026 290.681904 141.166037 
Q 290.681904 155.802232 294.794884 164.17446 
Q 298.919041 172.526417 306.116756 172.526417 
Q 310.129147 172.526417 313.761535 170.377613 
Q 317.393922 168.208537 321.138075 163.58658 
L 321.138075 183.16908 
z
" clip-path="url(#p832784634b)" style="fill: #0000ff"/>
   </g>
   <g id="patch_22">
    <path d="M 367.832636 192.239592 
Q 363.358874 192.239796 358.547095 192.239899 
Q 353.735316 192.24 348.605402 192.24 
Q 337.013389 192.24 330.243096 192.239393 
Q 323.472803 192.238786 323.472803 192.237748 
Q 323.472803 192.236697 330.362396 192.236095 
Q 337.261931 192.235492 349.261554 192.235492 
Q 353.884441 192.235492 358.119602 192.235574 
Q 362.364705 192.235655 366.122665 192.235816 
L 366.122665 192.236714 
Q 362.245405 192.236508 358.407911 192.236407 
Q 354.570418 192.236304 350.713041 192.236304 
Q 343.574906 192.236304 339.707587 192.236679 
Q 335.840269 192.237052 335.840269 192.237748 
Q 335.840269 192.238437 339.568404 192.238813 
Q 343.296539 192.239188 350.156306 192.239188 
Q 352.025345 192.239188 353.625957 192.239167 
Q 355.22657 192.239144 356.499106 192.239098 
L 356.499106 192.238254 
L 349.191962 192.238254 
L 349.191962 192.237503 
L 367.832636 192.237503 
L 367.832636 192.239592 
z
" clip-path="url(#p832784634b)" style="fill: #ffa600"/>
   </g>
   <g id="patch_23">
    <path d="M 367.832636 192.232122 
Q 364.122013 192.233793 360.109622 192.234638 
Q 356.097231 192.235492 351.727189 192.235492 
Q 338.695301 192.235492 331.084052 192.229159 
Q 323.472803 192.222826 323.472803 192.211996 
Q 323.472803 192.201127 331.084052 192.194804 
Q 338.695301 192.188471 351.727189 192.188471 
Q 356.097231 192.188471 360.109622 192.189325 
Q 364.122013 192.19017 367.832636 192.191841 
L 367.832636 192.201214 
Q 364.088483 192.199 360.456095 192.19797 
Q 356.823708 192.19694 352.811317 192.19694 
Q 345.613602 192.19694 341.489445 192.200952 
Q 337.376465 192.204954 337.376465 192.211996 
Q 337.376465 192.219009 341.489445 192.223021 
Q 345.613602 192.227022 352.811317 192.227022 
Q 356.823708 192.227022 360.456095 192.225993 
Q 364.088483 192.224954 367.832636 192.222739 
L 367.832636 192.232122 
z
" clip-path="url(#p832784634b)" style="fill: #0000ff"/>
   </g>
   <g id="patch_24">
    <path d="M 323.472803 192.016566 
L 367.832636 192.016566 
L 367.832636 192.050092 
L 351.873412 192.050092 
L 351.873412 192.188471 
L 339.462976 192.188471 
L 339.462976 192.050092 
L 323.472803 192.050092 
L 323.472803 192.016566 
z
" clip-path="url(#p832784634b)" style="fill: #ff0000"/>
   </g>
   <g id="patch_25">
    <path d="M 354.200898 161.75894 
L 337.14082 161.75894 
L 334.447123 192.016566 
L 323.472803 192.016566 
L 339.14522 25.92 
L 352.160219 25.92 
L 367.832636 192.016566 
L 356.867386 192.016566 
L 354.200898 161.75894 
z
M 339.861725 130.93176 
L 351.452784 130.93176 
L 345.666324 64.863344 
L 339.861725 130.93176 
z
" clip-path="url(#p832784634b)" style="fill: #008000"/>
   </g>
   <g id="patch_26">
    <path d="M 370.167364 188.025627 
L 414.527197 188.025627 
L 414.527197 188.847547 
L 398.567973 188.847547 
L 398.567973 192.24 
L 386.157536 192.24 
L 386.157536 188.847547 
L 370.167364 188.847547 
L 370.167364 188.025627 
z
" clip-path="url(#p832784634b)" style="fill: #ff0000"/>
   </g>
   <g id="patch_27">
    <path d="M 414.527197 187.275279 
Q 410.816573 187.647209 406.804182 187.835337 
Q 402.791791 188.025627 398.42175 188.025627 
Q 385.389861 188.025627 377.778613 186.61575 
Q 370.167364 185.205874 370.167364 182.794812 
Q 370.167364 180.375101 377.778613 178.967387 
Q 385.389861 177.55751 398.42175 177.55751 
Q 402.791791 177.55751 406.804182 177.747801 
Q 410.816573 177.935928 414.527197 178.307859 
L 414.527197 180.394562 
Q 410.783043 179.901538 407.150656 179.672325 
Q 403.518269 179.443112 399.505878 179.443112 
Q 392.308162 179.443112 388.184006 180.336178 
Q 384.071025 181.227082 384.071025 182.794812 
Q 384.071025 184.356056 388.184006 185.249122 
Q 392.308162 186.140025 399.505878 186.140025 
Q 403.518269 186.140025 407.150656 185.910812 
Q 410.783043 185.679437 414.527197 185.186412 
L 414.527197 187.275279 
z
" clip-path="url(#p832784634b)" style="fill: #0000ff"/>
   </g>
   <g id="patch_28">
    <path d="M 414.527197 174.218871 
Q 410.053435 175.888191 405.241656 176.726662 
Q 400.429876 177.55751 395.299963 177.55751 
Q 383.707949 177.55751 376.937657 172.587663 
Q 370.167364 167.617816 370.167364 159.118768 
Q 370.167364 150.520628 377.056957 145.588893 
Q 383.956492 140.657158 395.956115 140.657158 
Q 400.579002 140.657158 404.814163 141.327935 
Q 409.059266 141.991089 412.817226 143.302153 
L 412.817226 150.657832 
Q 408.939965 148.973267 405.102472 148.142419 
Q 401.264979 147.303947 397.407602 147.303947 
Q 390.269467 147.303947 386.402148 150.368178 
Q 382.53483 153.424787 382.53483 159.118768 
Q 382.53483 164.759392 386.262964 167.838868 
Q 389.991099 170.910721 396.850867 170.910721 
Q 398.719905 170.910721 400.320518 170.735404 
Q 401.92113 170.552465 403.193667 170.171342 
L 403.193667 163.265389 
L 395.886523 163.265389 
L 395.886523 157.11406 
L 414.527197 157.11406 
L 414.527197 174.218871 
z
" clip-path="url(#p832784634b)" style="fill: #ffa600"/>
   </g>
   <g id="patch_29">
    <path d="M 461.221757 192.239934 
Q 457.511134 192.239967 453.498743 192.239983 
Q 449.486352 192.24 445.11631 192.24 
Q 432.084422 192.24 424.473173 192.239876 
Q 416.861925 192.239753 416.861925 192.239541 
Q 416.861925 192.239329 424.473173 192.239206 
Q 432.084422 192.239082 445.11631 192.239082 
Q 449.486352 192.239082 453.498743 192.239099 
Q 457.511134 192.239115 461.221757 192.239148 
L 461.221757 192.239331 
Q 457.477604 192.239288 453.845217 192.239267 
Q 450.212829 192.239247 446.200438 192.239247 
Q 439.002723 192.239247 434.878566 192.239326 
Q 430.765586 192.239404 430.765586 192.239541 
Q 430.765586 192.239678 434.878566 192.239757 
Q 439.002723 192.239835 446.200438 192.239835 
Q 450.212829 192.239835 453.845217 192.239815 
Q 457.477604 192.239794 461.221757 192.239751 
L 461.221757 192.239934 
z
" clip-path="url(#p832784634b)" style="fill: #0000ff"/>
   </g>
   <g id="patch_30">
    <path d="M 461.221757 192.235007 
Q 456.747996 192.237044 451.936216 192.238068 
Q 447.124437 192.239082 441.994524 192.239082 
Q 430.40251 192.239082 423.632217 192.233015 
Q 416.861925 192.226949 416.861925 192.216574 
Q 416.861925 192.206078 423.751518 192.200058 
Q 430.651052 192.194037 442.650675 192.194037 
Q 447.273563 192.194037 451.508724 192.194856 
Q 455.753826 192.195666 459.511786 192.197266 
L 459.511786 192.206245 
Q 455.634526 192.204189 451.797033 192.203175 
Q 447.959539 192.202151 444.102163 192.202151 
Q 436.964027 192.202151 433.096709 192.205892 
Q 429.22939 192.209623 429.22939 192.216574 
Q 429.22939 192.223459 432.957525 192.227218 
Q 436.68566 192.230968 443.545428 192.230968 
Q 445.414466 192.230968 447.015079 192.230754 
Q 448.615691 192.230531 449.888228 192.230066 
L 449.888228 192.221636 
L 442.581084 192.221636 
L 442.581084 192.214127 
L 461.221757 192.214127 
L 461.221757 192.235007 
z
" clip-path="url(#p832784634b)" style="fill: #ffa600"/>
   </g>
   <g id="patch_31">
    <path d="M 447.59002 191.514971 
L 430.529941 191.514971 
L 427.836244 192.194037 
L 416.861925 192.194037 
L 432.534342 188.466363 
L 445.54934 188.466363 
L 461.221757 192.194037 
L 450.256507 192.194037 
L 447.59002 191.514971 
z
M 433.250847 190.823122 
L 444.841905 190.823122 
L 439.055446 189.340361 
L 433.250847 190.823122 
z
" clip-path="url(#p832784634b)" style="fill: #008000"/>
   </g>
   <g id="patch_32">
    <path d="M 416.861925 86.286626 
L 461.221757 86.286626 
L 461.221757 106.214522 
L 445.262534 106.214522 
L 445.262534 188.466363 
L 432.852097 188.466363 
L 432.852097 106.214522 
L 416.861925 106.214522 
L 416.861925 86.286626 
z
" clip-path="url(#p832784634b)" style="fill: #ff0000"/>
   </g>
   <g id="patch_33">
    <path d="M 494.28458 191.713121 
L 477.224502 191.713121 
L 474.530805 192.24 
L 463.556485 192.24 
L 479.228902 189.347742 
L 492.243901 189.347742 
L 507.916318 192.24 
L 496.951068 192.24 
L 494.28458 191.713121 
z
M 479.945407 191.176323 
L 491.536466 191.176323 
L 485.750006 190.025867 
L 479.945407 191.176323 
z
" clip-path="url(#p832784634b)" style="fill: #008000"/>
   </g>
   <g id="patch_34">
    <path d="M 463.556485 185.005004 
L 507.916318 185.005004 
L 507.916318 185.851959 
L 491.957094 185.851959 
L 491.957094 189.347742 
L 479.546658 189.347742 
L 479.546658 185.851959 
L 463.556485 185.851959 
L 463.556485 185.005004 
z
" clip-path="url(#p832784634b)" style="fill: #ff0000"/>
   </g>
   <g id="patch_35">
    <path d="M 507.916318 182.615351 
Q 504.205695 183.799848 500.193304 184.398982 
Q 496.180913 185.005004 491.810871 185.005004 
Q 478.778983 185.005004 471.167734 180.514935 
Q 463.556485 176.024866 463.556485 168.346298 
Q 463.556485 160.640182 471.167734 156.157 
Q 478.778983 151.666931 491.810871 151.666931 
Q 496.180913 151.666931 500.193304 152.272953 
Q 504.205695 152.872088 507.916318 154.056585 
L 507.916318 160.702162 
Q 504.172165 159.132015 500.539777 158.402035 
Q 496.90739 157.672054 492.894999 157.672054 
Q 485.697284 157.672054 481.573127 160.516224 
Q 477.460147 163.353506 477.460147 168.346298 
Q 477.460147 173.318429 481.573127 176.162598 
Q 485.697284 178.999881 492.894999 178.999881 
Q 496.90739 178.999881 500.539777 178.269901 
Q 504.172165 177.533034 507.916318 175.962887 
L 507.916318 182.615351 
z
" clip-path="url(#p832784634b)" style="fill: #0000ff"/>
   </g>
   <g id="patch_36">
    <path d="M 510.251046 190.279647 
L 554.610879 190.279647 
L 554.610879 190.66197 
L 538.651655 190.66197 
L 538.651655 192.24 
L 526.241218 192.24 
L 526.241218 190.66197 
L 510.251046 190.66197 
L 510.251046 190.279647 
z
" clip-path="url(#p832784634b)" style="fill: #ff0000"/>
   </g>
   <g id="patch_37">
    <path d="M 540.979141 188.928199 
L 523.919062 188.928199 
L 521.225366 190.279647 
L 510.251046 190.279647 
L 525.923463 182.860995 
L 538.938462 182.860995 
L 554.610879 190.279647 
L 543.645629 190.279647 
L 540.979141 188.928199 
z
M 526.639968 187.551313 
L 538.231026 187.551313 
L 532.444567 184.600387 
L 526.639968 187.551313 
z
" clip-path="url(#p832784634b)" style="fill: #008000"/>
   </g>
   <g id="patch_38">
    <path d="M 554.610879 181.979857 
Q 550.900255 182.416617 546.887864 182.637536 
Q 542.875473 182.860995 538.505432 182.860995 
Q 525.473543 182.860995 517.862295 181.20537 
Q 510.251046 179.549746 510.251046 176.718424 
Q 510.251046 173.876946 517.862295 172.223861 
Q 525.473543 170.568236 538.505432 170.568236 
Q 542.875473 170.568236 546.887864 170.791694 
Q 550.900255 171.012614 554.610879 171.449374 
L 554.610879 173.8998 
Q 550.866725 173.320839 547.234338 173.051673 
Q 543.601951 172.782507 539.58956 172.782507 
Q 532.391844 172.782507 528.267688 173.831238 
Q 524.154707 174.877431 524.154707 176.718424 
Q 524.154707 178.5518 528.267688 179.600532 
Q 532.391844 180.646724 539.58956 180.646724 
Q 543.601951 180.646724 547.234338 180.377558 
Q 550.866725 180.105853 554.610879 179.526892 
L 554.610879 181.979857 
z
" clip-path="url(#p832784634b)" style="fill: #0000ff"/>
   </g>
   <g id="patch_39">
    <path d="M 554.610879 169.112424 
Q 550.137117 169.84033 545.325338 170.205945 
Q 540.513558 170.568236 535.383645 170.568236 
Q 523.791631 170.568236 517.021339 168.401136 
Q 510.251046 166.234037 510.251046 162.52803 
Q 510.251046 158.778815 517.140639 156.628334 
Q 524.040174 154.477853 536.039797 154.477853 
Q 540.662684 154.477853 544.897845 154.770345 
Q 549.142948 155.059513 552.900908 155.631202 
L 552.900908 158.838643 
Q 549.023647 158.104089 545.186154 157.741798 
Q 541.348661 157.376183 537.491284 157.376183 
Q 530.353149 157.376183 526.48583 158.712339 
Q 522.618512 160.045172 522.618512 162.52803 
Q 522.618512 164.987622 526.346646 166.330426 
Q 530.074781 167.669906 536.934549 167.669906 
Q 538.803587 167.669906 540.4042 167.593459 
Q 542.004812 167.513689 543.277349 167.3475 
L 543.277349 164.336162 
L 535.970205 164.336162 
L 535.970205 161.653878 
L 554.610879 161.653878 
L 554.610879 169.112424 
z
" clip-path="url(#p832784634b)" style="fill: #ffa600"/>
   </g>
   <g id="patch_40">
    <path d="M 587.673702 191.703096 
L 570.613623 191.703096 
L 567.919926 192.24 
L 556.945607 192.24 
L 572.618024 189.292712 
L 585.633022 189.292712 
L 601.305439 192.24 
L 590.340189 192.24 
L 587.673702 191.703096 
z
M 573.334529 191.156085 
L 584.925587 191.156085 
L 579.139128 189.983739 
L 573.334529 191.156085 
z
" clip-path="url(#p832784634b)" style="fill: #008000"/>
   </g>
   <g id="patch_41">
    <path d="M 556.945607 186.273992 
L 601.305439 186.273992 
L 601.305439 186.862727 
L 585.346216 186.862727 
L 585.346216 189.292712 
L 572.935779 189.292712 
L 572.935779 186.862727 
L 556.945607 186.862727 
L 556.945607 186.273992 
z
" clip-path="url(#p832784634b)" style="fill: #ff0000"/>
   </g>
   <g id="patch_42">
    <path d="M 601.305439 185.344742 
Q 596.831678 185.809367 592.019898 186.042741 
Q 587.208119 186.273992 582.078206 186.273992 
Q 570.486192 186.273992 563.715899 184.890724 
Q 556.945607 183.507456 556.945607 181.141898 
Q 556.945607 178.748759 563.8352 177.376099 
Q 570.734734 176.003439 582.734357 176.003439 
Q 587.357245 176.003439 591.592406 176.190138 
Q 595.837508 176.374715 599.595468 176.739626 
L 599.595468 178.786948 
Q 595.718208 178.318079 591.880715 178.086827 
Q 588.043221 177.853454 584.185845 177.853454 
Q 577.047709 177.853454 573.180391 178.706328 
Q 569.313072 179.55708 569.313072 181.141898 
Q 569.313072 182.711865 573.041207 183.568982 
Q 576.769342 184.423977 583.62911 184.423977 
Q 585.498148 184.423977 587.098761 184.375181 
Q 588.699373 184.324263 589.97191 184.218184 
L 589.97191 182.296036 
L 582.664766 182.296036 
L 582.664766 180.583923 
L 601.305439 180.583923 
L 601.305439 185.344742 
z
" clip-path="url(#p832784634b)" style="fill: #ffa600"/>
   </g>
   <g id="patch_43">
    <path d="M 601.305439 174.92068 
Q 597.594816 175.457379 593.582425 175.728849 
Q 589.570034 176.003439 585.199992 176.003439 
Q 572.168104 176.003439 564.556855 173.968975 
Q 556.945607 171.934511 556.945607 168.455329 
Q 556.945607 164.963665 564.556855 162.932321 
Q 572.168104 160.897858 585.199992 160.897858 
Q 589.570034 160.897858 593.582425 161.172448 
Q 597.594816 161.443918 601.305439 161.980617 
L 601.305439 164.991748 
Q 597.561286 164.28031 593.928899 163.949553 
Q 590.296511 163.618797 586.28412 163.618797 
Q 579.086405 163.618797 574.962248 164.907499 
Q 570.849268 166.19308 570.849268 168.455329 
Q 570.849268 170.708216 574.962248 171.996918 
Q 579.086405 173.2825 586.28412 173.2825 
Q 590.296511 173.2825 593.928899 172.951743 
Q 597.561286 172.617866 601.305439 171.906428 
L 601.305439 174.92068 
z
" clip-path="url(#p832784634b)" style="fill: #0000ff"/>
   </g>
   <g id="patch_44">
    <path d="M 603.640167 188.944104 
L 648 188.944104 
L 648 189.586895 
L 632.040776 189.586895 
L 632.040776 192.24 
L 619.63034 192.24 
L 619.63034 189.586895 
L 603.640167 189.586895 
L 603.640167 188.944104 
z
" clip-path="url(#p832784634b)" style="fill: #ff0000"/>
   </g>
   <g id="patch_45">
    <path d="M 634.368262 188.051335 
L 617.308184 188.051335 
L 614.614487 188.944104 
L 603.640167 188.944104 
L 619.312584 184.043332 
L 632.327583 184.043332 
L 648 188.944104 
L 637.03475 188.944104 
L 634.368262 188.051335 
z
M 620.029089 187.141762 
L 631.620148 187.141762 
L 625.833688 185.192377 
L 620.029089 187.141762 
z
" clip-path="url(#p832784634b)" style="fill: #008000"/>
   </g>
   <g id="patch_46">
    <path d="M 648 183.409308 
Q 643.526238 183.72632 638.714459 183.88555 
Q 633.90268 184.043332 628.772766 184.043332 
Q 617.180753 184.043332 610.41046 183.099534 
Q 603.640167 182.155737 603.640167 180.541727 
Q 603.640167 178.9089 610.52976 177.97234 
Q 617.429295 177.03578 629.428918 177.03578 
Q 634.051805 177.03578 638.286966 177.163164 
Q 642.532069 177.2891 646.290029 177.538077 
L 646.290029 178.934956 
Q 642.412769 178.615049 638.575275 178.457267 
Q 634.737782 178.298037 630.880405 178.298037 
Q 623.74227 178.298037 619.874951 178.879949 
Q 616.007633 179.460413 616.007633 180.541727 
Q 616.007633 181.612909 619.735768 182.197716 
Q 623.463903 182.781075 630.32367 182.781075 
Q 632.192709 182.781075 633.793321 182.747782 
Q 635.393934 182.713041 636.66647 182.640664 
L 636.66647 181.32919 
L 629.359326 181.32919 
L 629.359326 180.161024 
L 648 180.161024 
L 648 183.409308 
z
" clip-path="url(#p832784634b)" style="fill: #ffa600"/>
   </g>
   <g id="patch_47">
    <path d="M 648 175.996349 
Q 644.289377 176.511572 640.276986 176.772178 
Q 636.264595 177.03578 631.894553 177.03578 
Q 618.862665 177.03578 611.251416 175.082728 
Q 603.640167 173.129676 603.640167 169.789718 
Q 603.640167 166.437777 611.251416 164.487721 
Q 618.862665 162.534669 631.894553 162.534669 
Q 636.264595 162.534669 640.276986 162.798271 
Q 644.289377 163.058878 648 163.5741 
L 648 166.464737 
Q 644.255847 165.781768 640.623459 165.464247 
Q 636.991072 165.146726 632.978681 165.146726 
Q 625.780966 165.146726 621.656809 166.383859 
Q 617.543829 167.617996 617.543829 169.789718 
Q 617.543829 171.952453 621.656809 173.189586 
Q 625.780966 174.423723 632.978681 174.423723 
Q 636.991072 174.423723 640.623459 174.106202 
Q 644.255847 173.785686 648 173.102717 
L 648 175.996349 
z
" clip-path="url(#p832784634b)" style="fill: #0000ff"/>
   </g>
   <g id="patch_48">
    <path d="M 274.443515 192.28855 
Q 270.732891 192.264485 266.7205 192.252313 
Q 262.708109 192.24 258.338068 192.24 
Q 245.306179 192.24 237.694931 192.331225 
Q 230.083682 192.422449 230.083682 192.578454 
Q 230.083682 192.735019 237.694931 192.826104 
Q 245.306179 192.917328 258.338068 192.917328 
Q 262.708109 192.917328 266.7205 192.905016 
Q 270.732891 192.892843 274.443515 192.868778 
L 274.443515 192.73376 
Q 270.699361 192.76566 267.066974 192.780491 
Q 263.434587 192.795322 259.422196 192.795322 
Q 252.22448 192.795322 248.100324 192.737537 
Q 243.987343 192.679893 243.987343 192.578454 
Q 243.987343 192.477436 248.100324 192.419651 
Q 252.22448 192.362006 259.422196 192.362006 
Q 263.434587 192.362006 267.066974 192.376837 
Q 270.699361 192.391808 274.443515 192.423708 
L 274.443515 192.28855 
z
" clip-path="url(#p832784634b)" style="fill: #0000ff"/>
   </g>
   <g id="patch_49">
    <path d="M 400.895459 192.315196 
L 383.83538 192.315196 
L 381.141684 192.24 
L 370.167364 192.24 
L 385.839781 192.652783 
L 398.85478 192.652783 
L 414.527197 192.24 
L 403.561947 192.24 
L 400.895459 192.315196 
z
M 386.556286 192.391808 
L 398.147344 192.391808 
L 392.360885 192.556001 
L 386.556286 192.391808 
z
" clip-path="url(#p832784634b)" style="fill: #008000"/>
   </g>
   <g id="patch_50">
    <path d="M 507.916318 192.27256 
Q 503.442556 192.25628 498.630777 192.248103 
Q 493.818998 192.24 488.689084 192.24 
Q 477.097071 192.24 470.326778 192.288468 
Q 463.556485 192.336936 463.556485 192.419822 
Q 463.556485 192.503675 470.446078 192.551771 
Q 477.345613 192.599867 489.345236 192.599867 
Q 493.968123 192.599867 498.203284 192.593326 
Q 502.448387 192.586858 506.206347 192.574072 
L 506.206347 192.502337 
Q 502.329087 192.518765 498.491593 192.526868 
Q 494.6541 192.535045 490.796723 192.535045 
Q 483.658588 192.535045 479.791269 192.505161 
Q 475.923951 192.475352 475.923951 192.419822 
Q 475.923951 192.364812 479.652086 192.33478 
Q 483.380221 192.304822 490.239988 192.304822 
Q 492.109027 192.304822 493.709639 192.306532 
Q 495.310252 192.308316 496.582788 192.312033 
L 496.582788 192.379383 
L 489.275644 192.379383 
L 489.275644 192.439373 
L 507.916318 192.439373 
L 507.916318 192.27256 
z
" clip-path="url(#p832784634b)" style="fill: #ffa600"/>
   </g>
   <g id="matplotlib.axis_1">
    <g id="xtick_1">
     <g id="line2d_2">
      <defs>
       <path id="m7bdb461c39" d="M 0 0 
L 0 3.5 
" style="stroke: #000000; stroke-width: 0.8"/>
      </defs>
      <g>
       <use xlink:href="#m7bdb461c39" x="112.179916" y="192.24" style="stroke: #000000; stroke-width: 0.8"/>
      </g>
     </g>
     <g id="text_1">
      <!-- 0 -->
      <g transform="translate(108.998666 206.838437) scale(0.1 -0.1)">
       <defs>
        <path id="DejaVuSans-30" d="M 2034 4250 
Q 1547 4250 1301 3770 
Q 1056 3291 1056 2328 
Q 1056 1369 1301 889 
Q 1547 409 2034 409 
Q 2525 409 2770 889 
Q 3016 1369 3016 2328 
Q 3016 3291 2770 3770 
Q 2525 4250 2034 4250 
z
M 2034 4750 
Q 2819 4750 3233 4129 
Q 3647 3509 3647 2328 
Q 3647 1150 3233 529 
Q 2819 -91 2034 -91 
Q 1250 -91 836 529 
Q 422 1150 422 2328 
Q 422 3509 836 4129 
Q 1250 4750 2034 4750 
z
" transform="scale(0.015625)"/>
       </defs>
       <use xlink:href="#DejaVuSans-30"/>
      </g>
     </g>
    </g>
    <g id="xtick_2">
     <g id="line2d_3">
      <g>
       <use xlink:href="#m7bdb461c39" x="205.569038" y="192.24" style="stroke: #000000; stroke-width: 0.8"/>
      </g>
     </g>
     <g id="text_2">
      <!-- 2 -->
      <g transform="translate(202.387788 206.838437) scale(0.1 -0.1)">
       <defs>
        <path id="DejaVuSans-32" d="M 1228 531 
L 3431 531 
L 3431 0 
L 469 0 
L 469 531 
Q 828 903 1448 1529 
Q 2069 2156 2228 2338 
Q 2531 2678 2651 2914 
Q 2772 3150 2772 3378 
Q 2772 3750 2511 3984 
Q 2250 4219 1831 4219 
Q 1534 4219 1204 4116 
Q 875 4013 500 3803 
L 500 4441 
Q 881 4594 1212 4672 
Q 1544 4750 1819 4750 
Q 2544 4750 2975 4387 
Q 3406 4025 3406 3419 
Q 3406 3131 3298 2873 
Q 3191 2616 2906 2266 
Q 2828 2175 2409 1742 
Q 1991 1309 1228 531 
z
" transform="scale(0.015625)"/>
       </defs>
       <use xlink:href="#DejaVuSans-32"/>
      </g>
     </g>
    </g>
    <g id="xtick_3">
     <g id="line2d_4">
      <g>
       <use xlink:href="#m7bdb461c39" x="298.958159" y="192.24" style="stroke: #000000; stroke-width: 0.8"/>
      </g>
     </g>
     <g id="text_3">
      <!-- 4 -->
      <g transform="translate(295.776909 206.838437) scale(0.1 -0.1)">
       <defs>
        <path id="DejaVuSans-34" d="M 2419 4116 
L 825 1625 
L 2419 1625 
L 2419 4116 
z
M 2253 4666 
L 3047 4666 
L 3047 1625 
L 3713 1625 
L 3713 1100 
L 3047 1100 
L 3047 0 
L 2419 0 
L 2419 1100 
L 313 1100 
L 313 1709 
L 2253 4666 
z
" transform="scale(0.015625)"/>
       </defs>
       <use xlink:href="#DejaVuSans-34"/>
      </g>
     </g>
    </g>
    <g id="xtick_4">
     <g id="line2d_5">
      <g>
       <use xlink:href="#m7bdb461c39" x="392.34728" y="192.24" style="stroke: #000000; stroke-width: 0.8"/>
      </g>
     </g>
     <g id="text_4">
      <!-- 6 -->
      <g transform="translate(389.16603 206.838437) scale(0.1 -0.1)">
       <defs>
        <path id="DejaVuSans-36" d="M 2113 2584 
Q 1688 2584 1439 2293 
Q 1191 2003 1191 1497 
Q 1191 994 1439 701 
Q 1688 409 2113 409 
Q 2538 409 2786 701 
Q 3034 994 3034 1497 
Q 3034 2003 2786 2293 
Q 2538 2584 2113 2584 
z
M 3366 4563 
L 3366 3988 
Q 3128 4100 2886 4159 
Q 2644 4219 2406 4219 
Q 1781 4219 1451 3797 
Q 1122 3375 1075 2522 
Q 1259 2794 1537 2939 
Q 1816 3084 2150 3084 
Q 2853 3084 3261 2657 
Q 3669 2231 3669 1497 
Q 3669 778 3244 343 
Q 2819 -91 2113 -91 
Q 1303 -91 875 529 
Q 447 1150 447 2328 
Q 447 3434 972 4092 
Q 1497 4750 2381 4750 
Q 2619 4750 2861 4703 
Q 3103 4656 3366 4563 
z
" transform="scale(0.015625)"/>
       </defs>
       <use xlink:href="#DejaVuSans-36"/>
      </g>
     </g>
    </g>
    <g id="xtick_5">
     <g id="line2d_6">
      <g>
       <use xlink:href="#m7bdb461c39" x="485.736402" y="192.24" style="stroke: #000000; stroke-width: 0.8"/>
      </g>
     </g>
     <g id="text_5">
      <!-- 8 -->
      <g transform="translate(482.555152 206.838437) scale(0.1 -0.1)">
       <defs>
        <path id="DejaVuSans-38" d="M 2034 2216 
Q 1584 2216 1326 1975 
Q 1069 1734 1069 1313 
Q 1069 891 1326 650 
Q 1584 409 2034 409 
Q 2484 409 2743 651 
Q 3003 894 3003 1313 
Q 3003 1734 2745 1975 
Q 2488 2216 2034 2216 
z
M 1403 2484 
Q 997 2584 770 2862 
Q 544 3141 544 3541 
Q 544 4100 942 4425 
Q 1341 4750 2034 4750 
Q 2731 4750 3128 4425 
Q 3525 4100 3525 3541 
Q 3525 3141 3298 2862 
Q 3072 2584 2669 2484 
Q 3125 2378 3379 2068 
Q 3634 1759 3634 1313 
Q 3634 634 3220 271 
Q 2806 -91 2034 -91 
Q 1263 -91 848 271 
Q 434 634 434 1313 
Q 434 1759 690 2068 
Q 947 2378 1403 2484 
z
M 1172 3481 
Q 1172 3119 1398 2916 
Q 1625 2713 2034 2713 
Q 2441 2713 2670 2916 
Q 2900 3119 2900 3481 
Q 2900 3844 2670 4047 
Q 2441 4250 2034 4250 
Q 1625 4250 1398 4047 
Q 1172 3844 1172 3481 
z
" transform="scale(0.015625)"/>
       </defs>
       <use xlink:href="#DejaVuSans-38"/>
      </g>
     </g>
    </g>
    <g id="xtick_6">
     <g id="line2d_7">
      <g>
       <use xlink:href="#m7bdb461c39" x="579.125523" y="192.24" style="stroke: #000000; stroke-width: 0.8"/>
      </g>
     </g>
     <g id="text_6">
      <!-- 10 -->
      <g transform="translate(572.763023 206.838437) scale(0.1 -0.1)">
       <defs>
        <path id="DejaVuSans-31" d="M 794 531 
L 1825 531 
L 1825 4091 
L 703 3866 
L 703 4441 
L 1819 4666 
L 2450 4666 
L 2450 531 
L 3481 531 
L 3481 0 
L 794 0 
L 794 531 
z
" transform="scale(0.015625)"/>
       </defs>
       <use xlink:href="#DejaVuSans-31"/>
       <use xlink:href="#DejaVuSans-30" x="63.623047"/>
      </g>
     </g>
    </g>
   </g>
   <g id="matplotlib.axis_2">
    <g id="ytick_1">
     <g id="line2d_8">
      <defs>
       <path id="m9722b6f13c" d="M 0 0 
L -3.5 0 
" style="stroke: #000000; stroke-width: 0.8"/>
      </defs>
      <g>
       <use xlink:href="#m9722b6f13c" x="90" y="192.24" style="stroke: #000000; stroke-width: 0.8"/>
      </g>
     </g>
     <g id="text_7">
      <!-- 0.000 -->
      <g transform="translate(54.371875 196.039219) scale(0.1 -0.1)">
       <defs>
        <path id="DejaVuSans-2e" d="M 684 794 
L 1344 794 
L 1344 0 
L 684 0 
L 684 794 
z
" transform="scale(0.015625)"/>
       </defs>
       <use xlink:href="#DejaVuSans-30"/>
       <use xlink:href="#DejaVuSans-2e" x="63.623047"/>
       <use xlink:href="#DejaVuSans-30" x="95.410156"/>
       <use xlink:href="#DejaVuSans-30" x="159.033203"/>
       <use xlink:href="#DejaVuSans-30" x="222.65625"/>
      </g>
     </g>
    </g>
    <g id="ytick_2">
     <g id="line2d_9">
      <g>
       <use xlink:href="#m9722b6f13c" x="90" y="151.828533" style="stroke: #000000; stroke-width: 0.8"/>
      </g>
     </g>
     <g id="text_8">
      <!-- 0.005 -->
      <g transform="translate(54.371875 155.627752) scale(0.1 -0.1)">
       <defs>
        <path id="DejaVuSans-35" d="M 691 4666 
L 3169 4666 
L 3169 4134 
L 1269 4134 
L 1269 2991 
Q 1406 3038 1543 3061 
Q 1681 3084 1819 3084 
Q 2600 3084 3056 2656 
Q 3513 2228 3513 1497 
Q 3513 744 3044 326 
Q 2575 -91 1722 -91 
Q 1428 -91 1123 -41 
Q 819 9 494 109 
L 494 744 
Q 775 591 1075 516 
Q 1375 441 1709 441 
Q 2250 441 2565 725 
Q 2881 1009 2881 1497 
Q 2881 1984 2565 2268 
Q 2250 2553 1709 2553 
Q 1456 2553 1204 2497 
Q 953 2441 691 2322 
L 691 4666 
z
" transform="scale(0.015625)"/>
       </defs>
       <use xlink:href="#DejaVuSans-30"/>
       <use xlink:href="#DejaVuSans-2e" x="63.623047"/>
       <use xlink:href="#DejaVuSans-30" x="95.410156"/>
       <use xlink:href="#DejaVuSans-30" x="159.033203"/>
       <use xlink:href="#DejaVuSans-35" x="222.65625"/>
      </g>
     </g>
    </g>
    <g id="ytick_3">
     <g id="line2d_10">
      <g>
       <use xlink:href="#m9722b6f13c" x="90" y="111.417066" style="stroke: #000000; stroke-width: 0.8"/>
      </g>
     </g>
     <g id="text_9">
      <!-- 0.010 -->
      <g transform="translate(54.371875 115.216284) scale(0.1 -0.1)">
       <use xlink:href="#DejaVuSans-30"/>
       <use xlink:href="#DejaVuSans-2e" x="63.623047"/>
       <use xlink:href="#DejaVuSans-30" x="95.410156"/>
       <use xlink:href="#DejaVuSans-31" x="159.033203"/>
       <use xlink:href="#DejaVuSans-30" x="222.65625"/>
      </g>
     </g>
    </g>
    <g id="ytick_4">
     <g id="line2d_11">
      <g>
       <use xlink:href="#m9722b6f13c" x="90" y="71.005599" style="stroke: #000000; stroke-width: 0.8"/>
      </g>
     </g>
     <g id="text_10">
      <!-- 0.015 -->
      <g transform="translate(54.371875 74.804817) scale(0.1 -0.1)">
       <use xlink:href="#DejaVuSans-30"/>
       <use xlink:href="#DejaVuSans-2e" x="63.623047"/>
       <use xlink:href="#DejaVuSans-30" x="95.410156"/>
       <use xlink:href="#DejaVuSans-31" x="159.033203"/>
       <use xlink:href="#DejaVuSans-35" x="222.65625"/>
      </g>
     </g>
    </g>
    <g id="ytick_5">
     <g id="line2d_12">
      <g>
       <use xlink:href="#m9722b6f13c" x="90" y="30.594131" style="stroke: #000000; stroke-width: 0.8"/>
      </g>
     </g>
     <g id="text_11">
      <!-- 0.020 -->
      <g transform="translate(54.371875 34.39335) scale(0.1 -0.1)">
       <use xlink:href="#DejaVuSans-30"/>
       <use xlink:href="#DejaVuSans-2e" x="63.623047"/>
       <use xlink:href="#DejaVuSans-30" x="95.410156"/>
       <use xlink:href="#DejaVuSans-32" x="159.033203"/>
       <use xlink:href="#DejaVuSans-30" x="222.65625"/>
      </g>
     </g>
    </g>
   </g>
  </g>
 </g>
 <defs>
  <clipPath id="p832784634b">
   <rect x="90" y="25.92" width="558" height="166.32"/>
  </clipPath>
 </defs>
</svg>
