<?xml version="1.0" encoding="utf-8" standalone="no"?>
<!DOCTYPE svg PUBLIC "-//W3C//DTD SVG 1.1//EN"
  "http://www.w3.org/Graphics/SVG/1.1/DTD/svg11.dtd">
<svg xmlns:xlink="http://www.w3.org/1999/xlink" width="720pt" height="216pt" viewBox="0 0 720 216" xmlns="http://www.w3.org/2000/svg" version="1.1">
 <metadata>
  <rdf:RDF xmlns:dc="http://purl.org/dc/elements/1.1/" xmlns:cc="http://creativecommons.org/ns#" xmlns:rdf="http://www.w3.org/1999/02/22-rdf-syntax-ns#">
   <cc:Work>
    <dc:type rdf:resource="http://purl.org/dc/dcmitype/StillImage"/>
    <dc:date>2024-11-23T04:41:23.724227</dc:date>
    <dc:format>image/svg+xml</dc:format>
    <dc:creator>
     <cc:Agent>
      <dc:title>Matplotlib v3.7.2, https://matplotlib.org/</dc:title>
     </cc:Agent>
    </dc:creator>
   </cc:Work>
  </rdf:RDF>
 </metadata>
 <defs>
  <style type="text/css">*{stroke-linejoin: round; stroke-linecap: butt}</style>
 </defs>
 <g id="figure_1">
  <g id="patch_1">
   <path d="M 0 216 
L 720 216 
L 720 0 
L 0 0 
z
" style="fill: #ffffff"/>
  </g>
  <g id="axes_1">
   <g id="patch_2">
    <path d="M 90 192.24 
L 648 192.24 
L 648 25.92 
L 90 25.92 
z
" style="fill: #ffffff"/>
   </g>
   <g id="line2d_1">
    <path d="M 90 192.24 
L 648 192.24 
" clip-path="url(#pa6be55e66a)" style="fill: none; stroke: #000000; stroke-width: 0.5; stroke-linecap: square"/>
   </g>
   <g id="patch_3">
    <path d="M 121.274336 192.233374 
Q 118.658292 192.236658 115.829497 192.23832 
Q 113.000702 192.24 109.919759 192.24 
Q 100.732085 192.24 95.366043 192.227549 
Q 90 192.215098 90 192.193806 
Q 90 192.172437 95.366043 192.160005 
Q 100.732085 192.147555 109.919759 192.147555 
Q 113.000702 192.147555 115.829497 192.149235 
Q 118.658292 192.150896 121.274336 192.154181 
L 121.274336 192.172609 
Q 118.634653 192.168255 116.073766 192.166231 
Q 113.51288 192.164207 110.684085 192.164207 
Q 105.609589 192.164207 102.701998 192.172093 
Q 99.802286 192.179961 99.802286 192.193806 
Q 99.802286 192.207593 102.701998 192.21548 
Q 105.609589 192.223348 110.684085 192.223348 
Q 113.51288 192.223348 116.073766 192.221324 
Q 118.634653 192.21928 121.274336 192.214926 
L 121.274336 192.233374 
z
" clip-path="url(#pa6be55e66a)" style="fill: #0000ff"/>
   </g>
   <g id="patch_4">
    <path d="M 121.274336 192.045445 
Q 118.120268 192.0965 114.727893 192.122144 
Q 111.335518 192.147555 107.718853 192.147555 
Q 99.546312 192.147555 94.773156 191.995556 
Q 90 191.843558 90 191.583623 
Q 90 191.320657 94.857265 191.169824 
Q 99.721538 191.018992 108.18145 191.018992 
Q 111.440653 191.018992 114.426504 191.039507 
Q 117.419364 191.059789 120.068781 191.099887 
L 120.068781 191.324853 
Q 117.335256 191.273332 114.629766 191.247922 
Q 111.924277 191.222278 109.204769 191.222278 
Q 104.172279 191.222278 101.445762 191.315994 
Q 98.719246 191.409478 98.719246 191.583623 
Q 98.719246 191.756136 101.347636 191.850319 
Q 103.976026 191.944269 108.812263 191.944269 
Q 110.129963 191.944269 111.258418 191.938907 
Q 112.386874 191.933312 113.284031 191.921656 
L 113.284031 191.710443 
L 108.132386 191.710443 
L 108.132386 191.522311 
L 121.274336 191.522311 
L 121.274336 192.045445 
z
" clip-path="url(#pa6be55e66a)" style="fill: #ffa600"/>
   </g>
   <g id="patch_5">
    <path d="M 111.66376 190.722384 
L 99.636153 190.722384 
L 97.737057 191.018992 
L 90 191.018992 
L 101.049285 189.390789 
L 110.225051 189.390789 
L 121.274336 191.018992 
L 113.543673 191.018992 
L 111.66376 190.722384 
z
M 101.554432 190.420193 
L 109.726299 190.420193 
L 105.64676 189.772541 
L 101.554432 190.420193 
z
" clip-path="url(#pa6be55e66a)" style="fill: #008000"/>
   </g>
   <g id="patch_6">
    <path d="M 90 173.15051 
L 121.274336 173.15051 
L 121.274336 176.317817 
L 110.022848 176.317817 
L 110.022848 189.390789 
L 101.273307 189.390789 
L 101.273307 176.317817 
L 90 176.317817 
L 90 173.15051 
z
" clip-path="url(#pa6be55e66a)" style="fill: #ff0000"/>
   </g>
   <g id="patch_7">
    <path d="M 154.19469 192.140941 
Q 151.578646 192.190043 148.749851 192.214879 
Q 145.921056 192.24 142.840113 192.24 
Q 133.652439 192.24 128.286397 192.053873 
Q 122.920354 191.867746 122.920354 191.549445 
Q 122.920354 191.230003 128.286397 191.044161 
Q 133.652439 190.858034 142.840113 190.858034 
Q 145.921056 190.858034 148.749851 190.883155 
Q 151.578646 190.907991 154.19469 190.957092 
L 154.19469 191.232572 
Q 151.555007 191.167485 148.99412 191.137225 
Q 146.433234 191.106965 143.604439 191.106965 
Q 138.529943 191.106965 135.622352 191.224864 
Q 132.72264 191.342479 132.72264 191.549445 
Q 132.72264 191.755555 135.622352 191.873455 
Q 138.529943 191.991069 143.604439 191.991069 
Q 146.433234 191.991069 148.99412 191.960809 
Q 151.555007 191.930264 154.19469 191.865176 
L 154.19469 192.140941 
z
" clip-path="url(#pa6be55e66a)" style="fill: #0000ff"/>
   </g>
   <g id="patch_8">
    <path d="M 154.19469 190.277788 
Q 151.040622 190.567911 147.648247 190.713635 
Q 144.255872 190.858034 140.639207 190.858034 
Q 132.466666 190.858034 127.69351 189.994289 
Q 122.920354 189.130545 122.920354 187.653435 
Q 122.920354 186.159104 127.777619 185.301983 
Q 132.641892 184.444863 141.101804 184.444863 
Q 144.361007 184.444863 147.346858 184.561442 
Q 150.339718 184.676696 152.989135 184.904555 
L 152.989135 186.18295 
Q 150.25561 185.890178 147.55012 185.745779 
Q 144.844631 185.600055 142.125123 185.600055 
Q 137.092633 185.600055 134.366116 186.132609 
Q 131.6396 186.663838 131.6396 187.653435 
Q 131.6396 188.633759 134.26799 189.168963 
Q 136.89638 189.702842 141.732617 189.702842 
Q 143.050317 189.702842 144.178772 189.672372 
Q 145.307228 189.640578 146.204385 189.57434 
L 146.204385 188.374106 
L 141.05274 188.374106 
L 141.05274 187.305023 
L 154.19469 187.305023 
L 154.19469 190.277788 
z
" clip-path="url(#pa6be55e66a)" style="fill: #ffa600"/>
   </g>
   <g id="patch_9">
    <path d="M 122.920354 172.798421 
L 154.19469 172.798421 
L 154.19469 175.069801 
L 142.943202 175.069801 
L 142.943202 184.444863 
L 134.193661 184.444863 
L 134.193661 175.069801 
L 122.920354 175.069801 
L 122.920354 172.798421 
z
" clip-path="url(#pa6be55e66a)" style="fill: #ff0000"/>
   </g>
   <g id="patch_10">
    <path d="M 177.504468 192.144653 
L 165.476861 192.144653 
L 163.577765 192.24 
L 155.840708 192.24 
L 166.889993 191.716602 
L 176.065759 191.716602 
L 187.115044 192.24 
L 179.384381 192.24 
L 177.504468 192.144653 
z
M 167.39514 192.047512 
L 175.567007 192.047512 
L 171.487467 191.839319 
L 167.39514 192.047512 
z
" clip-path="url(#pa6be55e66a)" style="fill: #008000"/>
   </g>
   <g id="patch_11">
    <path d="M 155.840708 180.184414 
L 187.115044 180.184414 
L 187.115044 182.433512 
L 175.863556 182.433512 
L 175.863556 191.716602 
L 167.114015 191.716602 
L 167.114015 182.433512 
L 155.840708 182.433512 
L 155.840708 180.184414 
z
" clip-path="url(#pa6be55e66a)" style="fill: #ff0000"/>
   </g>
   <g id="patch_12">
    <path d="M 187.115044 178.804521 
Q 184.499 179.488503 181.670205 179.83447 
Q 178.84141 180.184414 175.760467 180.184414 
Q 166.572793 180.184414 161.206751 177.591648 
Q 155.840708 174.998882 155.840708 170.564934 
Q 155.840708 166.11508 161.206751 163.526291 
Q 166.572793 160.933525 175.760467 160.933525 
Q 178.84141 160.933525 181.670205 161.283469 
Q 184.499 161.629436 187.115044 162.313417 
L 187.115044 166.15087 
Q 184.475361 165.244197 181.914474 164.822674 
Q 179.353588 164.40115 176.524793 164.40115 
Q 171.450297 164.40115 168.542706 166.043501 
Q 165.642994 167.681874 165.642994 170.564934 
Q 165.642994 173.436064 168.542706 175.078415 
Q 171.450297 176.716788 176.524793 176.716788 
Q 179.353588 176.716788 181.914474 176.295265 
Q 184.475361 175.869765 187.115044 174.963092 
L 187.115044 178.804521 
z
" clip-path="url(#pa6be55e66a)" style="fill: #0000ff"/>
   </g>
   <g id="patch_13">
    <path d="M 220.035398 190.858923 
Q 216.88133 191.549461 213.488955 191.896307 
Q 210.09658 192.24 206.479915 192.24 
Q 198.307374 192.24 193.534218 190.18415 
Q 188.761062 188.128299 188.761062 184.612543 
Q 188.761062 181.055795 193.618327 179.015711 
Q 198.4826 176.975626 206.942512 176.975626 
Q 210.201715 176.975626 213.187566 177.253103 
Q 216.180426 177.527426 218.829843 178.069767 
L 218.829843 181.112552 
Q 216.096318 180.415707 213.390828 180.072014 
Q 210.685339 179.725168 207.965831 179.725168 
Q 202.933341 179.725168 200.206824 180.992732 
Q 197.480308 182.257144 197.480308 184.612543 
Q 197.480308 186.94587 200.108698 188.21974 
Q 202.737088 189.490458 207.573325 189.490458 
Q 208.891025 189.490458 210.01948 189.417935 
Q 211.147936 189.34226 212.045093 189.184603 
L 212.045093 186.327853 
L 206.893448 186.327853 
L 206.893448 183.783266 
L 220.035398 183.783266 
L 220.035398 190.858923 
z
" clip-path="url(#pa6be55e66a)" style="fill: #ffa600"/>
   </g>
   <g id="patch_14">
    <path d="M 210.424822 171.288682 
L 198.397215 171.288682 
L 196.498119 176.975626 
L 188.761062 176.975626 
L 199.810347 145.757649 
L 208.986113 145.757649 
L 220.035398 176.975626 
L 212.304735 176.975626 
L 210.424822 171.288682 
z
M 200.315494 165.49469 
L 208.487361 165.49469 
L 204.407821 153.07708 
L 200.315494 165.49469 
z
" clip-path="url(#pa6be55e66a)" style="fill: #008000"/>
   </g>
   <g id="patch_15">
    <path d="M 252.955752 191.66823 
Q 250.339708 191.951644 247.510913 192.094998 
Q 244.682118 192.24 241.601175 192.24 
Q 232.413501 192.24 227.047459 191.165666 
Q 221.681416 190.091332 221.681416 188.25409 
Q 221.681416 186.410256 227.047459 185.33757 
Q 232.413501 184.263236 241.601175 184.263236 
Q 244.682118 184.263236 247.510913 184.408238 
Q 250.339708 184.551593 252.955752 184.835006 
L 252.955752 186.425086 
Q 250.316069 186.049398 247.755182 185.874737 
Q 245.194296 185.700075 242.365501 185.700075 
Q 237.291005 185.700075 234.383414 186.380596 
Q 231.483702 187.05947 231.483702 188.25409 
Q 231.483702 189.443766 234.383414 190.124287 
Q 237.291005 190.803161 242.365501 190.803161 
Q 245.194296 190.803161 247.755182 190.628499 
Q 250.316069 190.45219 252.955752 190.076503 
L 252.955752 191.66823 
z
" clip-path="url(#pa6be55e66a)" style="fill: #0000ff"/>
   </g>
   <g id="patch_16">
    <path d="M 252.955752 179.317106 
Q 249.801684 181.790171 246.409309 183.03235 
Q 243.016934 184.263236 239.400269 184.263236 
Q 231.227728 184.263236 226.454572 176.900504 
Q 221.681416 169.537772 221.681416 156.946596 
Q 221.681416 144.208618 226.538681 136.902349 
Q 231.402954 129.596079 239.862866 129.596079 
Q 243.122069 129.596079 246.10792 130.589822 
Q 249.10078 131.572273 251.750197 133.514588 
L 251.750197 144.411884 
Q 249.016672 141.916234 246.311182 140.685347 
Q 243.605693 139.443169 240.886185 139.443169 
Q 235.853695 139.443169 233.127178 143.982767 
Q 230.400662 148.511074 230.400662 156.946596 
Q 230.400662 165.303072 233.029052 169.865255 
Q 235.657442 174.416146 240.493679 174.416146 
Q 241.811379 174.416146 242.939834 174.156418 
Q 244.06829 173.885397 244.965447 173.320771 
L 244.965447 163.089735 
L 239.813802 163.089735 
L 239.813802 153.97666 
L 252.955752 153.97666 
L 252.955752 179.317106 
z
" clip-path="url(#pa6be55e66a)" style="fill: #ffa600"/>
   </g>
   <g id="patch_17">
    <path d="M 285.876106 192.22899 
Q 282.722038 192.234495 279.329663 192.23726 
Q 275.937288 192.24 272.320623 192.24 
Q 264.148082 192.24 259.374926 192.223611 
Q 254.60177 192.207221 254.60177 192.179193 
Q 254.60177 192.150839 259.459035 192.134575 
Q 264.323308 192.118311 272.78322 192.118311 
Q 276.042423 192.118311 279.028274 192.120523 
Q 282.021134 192.12271 284.670551 192.127034 
L 284.670551 192.151291 
Q 281.937026 192.145736 279.231536 192.142996 
Q 276.526047 192.140231 273.806539 192.140231 
Q 268.774049 192.140231 266.047532 192.150336 
Q 263.321016 192.160416 263.321016 192.179193 
Q 263.321016 192.197795 265.949406 192.20795 
Q 268.577796 192.21808 273.414033 192.21808 
Q 274.731733 192.21808 275.860188 192.217502 
Q 276.988644 192.216899 277.885801 192.215642 
L 277.885801 192.192868 
L 272.734156 192.192868 
L 272.734156 192.172582 
L 285.876106 192.172582 
L 285.876106 192.22899 
z
" clip-path="url(#pa6be55e66a)" style="fill: #ffa600"/>
   </g>
   <g id="patch_18">
    <path d="M 254.60177 26.299676 
L 285.876106 26.299676 
L 285.876106 58.638929 
L 274.624618 58.638929 
L 274.624618 192.118311 
L 265.875077 192.118311 
L 265.875077 58.638929 
L 254.60177 58.638929 
L 254.60177 26.299676 
z
" clip-path="url(#pa6be55e66a)" style="fill: #ff0000"/>
   </g>
   <g id="patch_19">
    <path d="M 318.79646 192.231017 
Q 316.180416 192.23547 313.351621 192.237722 
Q 310.522826 192.24 307.441883 192.24 
Q 298.254209 192.24 292.888166 192.223122 
Q 287.522124 192.206243 287.522124 192.177379 
Q 287.522124 192.148411 292.888166 192.131559 
Q 298.254209 192.11468 307.441883 192.11468 
Q 310.522826 192.11468 313.351621 192.116958 
Q 316.180416 192.119211 318.79646 192.123663 
L 318.79646 192.148644 
Q 316.156777 192.142742 313.59589 192.139998 
Q 311.035004 192.137254 308.206209 192.137254 
Q 303.131713 192.137254 300.224122 192.147945 
Q 297.32441 192.158611 297.32441 192.177379 
Q 297.32441 192.19607 300.224122 192.206761 
Q 303.131713 192.217426 308.206209 192.217426 
Q 311.035004 192.217426 313.59589 192.214682 
Q 316.156777 192.211912 318.79646 192.20601 
L 318.79646 192.231017 
z
" clip-path="url(#pa6be55e66a)" style="fill: #0000ff"/>
   </g>
   <g id="patch_20">
    <path d="M 287.522124 31.798416 
L 318.79646 31.798416 
L 318.79646 63.064555 
L 307.544972 63.064555 
L 307.544972 192.11468 
L 298.795431 192.11468 
L 298.795431 63.064555 
L 287.522124 63.064555 
L 287.522124 31.798416 
z
" clip-path="url(#pa6be55e66a)" style="fill: #ff0000"/>
   </g>
   <g id="patch_21">
    <path d="M 351.716814 192.216513 
Q 349.10077 192.228155 346.271975 192.234044 
Q 343.44318 192.24 340.362237 192.24 
Q 331.174563 192.24 325.80852 192.195869 
Q 320.442478 192.151738 320.442478 192.076268 
Q 320.442478 192.000527 325.80852 191.956464 
Q 331.174563 191.912332 340.362237 191.912332 
Q 343.44318 191.912332 346.271975 191.918289 
Q 349.10077 191.924177 351.716814 191.935819 
L 351.716814 192.001136 
Q 349.077131 191.985704 346.516244 191.978529 
Q 343.955358 191.971355 341.126563 191.971355 
Q 336.052067 191.971355 333.144476 191.999309 
Q 330.244764 192.027195 330.244764 192.076268 
Q 330.244764 192.125137 333.144476 192.153091 
Q 336.052067 192.180978 341.126563 192.180978 
Q 343.955358 192.180978 346.516244 192.173803 
Q 349.077131 192.166561 351.716814 192.151128 
L 351.716814 192.216513 
z
" clip-path="url(#pa6be55e66a)" style="fill: #0000ff"/>
   </g>
   <g id="patch_22">
    <path d="M 351.716814 191.721656 
Q 348.562746 191.816994 345.170371 191.864881 
Q 341.777996 191.912332 338.161331 191.912332 
Q 329.98879 191.912332 325.215634 191.628494 
Q 320.442478 191.344656 320.442478 190.859258 
Q 320.442478 190.3682 325.299743 190.086539 
Q 330.164016 189.804877 338.623928 189.804877 
Q 341.883131 189.804877 344.868982 189.843187 
Q 347.861842 189.881061 350.511259 189.955939 
L 350.511259 190.376036 
Q 347.777734 190.279828 345.072244 190.232376 
Q 342.366755 190.184489 339.647247 190.184489 
Q 334.614757 190.184489 331.88824 190.359494 
Q 329.161724 190.534063 329.161724 190.859258 
Q 329.161724 191.181406 331.790114 191.357281 
Q 334.418504 191.532721 339.254741 191.532721 
Q 340.572441 191.532721 341.700896 191.522708 
Q 342.829351 191.51226 343.726509 191.490493 
L 343.726509 191.09608 
L 338.574864 191.09608 
L 338.574864 190.744765 
L 351.716814 190.744765 
L 351.716814 191.721656 
z
" clip-path="url(#pa6be55e66a)" style="fill: #ffa600"/>
   </g>
   <g id="patch_23">
    <path d="M 320.442478 75.529185 
L 351.716814 75.529185 
L 351.716814 97.816129 
L 340.465326 97.816129 
L 340.465326 189.804877 
L 331.715785 189.804877 
L 331.715785 97.816129 
L 320.442478 97.816129 
L 320.442478 75.529185 
z
" clip-path="url(#pa6be55e66a)" style="fill: #ff0000"/>
   </g>
   <g id="patch_24">
    <path d="M 353.362832 189.888436 
L 384.637168 189.888436 
L 384.637168 190.347057 
L 373.38568 190.347057 
L 373.38568 192.24 
L 364.636139 192.24 
L 364.636139 190.347057 
L 353.362832 190.347057 
L 353.362832 189.888436 
z
" clip-path="url(#pa6be55e66a)" style="fill: #ff0000"/>
   </g>
   <g id="patch_25">
    <path d="M 384.637168 178.135276 
Q 382.021124 183.96105 379.192329 186.907808 
Q 376.363534 189.888436 373.282591 189.888436 
Q 364.094917 189.888436 358.728874 167.804689 
Q 353.362832 145.720942 353.362832 107.955024 
Q 353.362832 70.053624 358.728874 48.003747 
Q 364.094917 25.92 373.282591 25.92 
Q 376.363534 25.92 379.192329 28.900628 
Q 382.021124 31.847386 384.637168 37.67316 
L 384.637168 70.358461 
Q 381.997485 62.635923 379.436598 59.045621 
Q 376.875712 55.455318 374.046917 55.455318 
Q 368.972421 55.455318 366.06483 69.44395 
Q 363.165118 83.39871 363.165118 107.955024 
Q 363.165118 132.409726 366.06483 146.398357 
Q 368.972421 160.353118 374.046917 160.353118 
Q 376.875712 160.353118 379.436598 156.762816 
Q 381.997485 153.138642 384.637168 145.416105 
L 384.637168 178.135276 
z
" clip-path="url(#pa6be55e66a)" style="fill: #0000ff"/>
   </g>
   <g id="patch_26">
    <path d="M 417.557522 191.637843 
Q 414.941478 191.936318 412.112683 192.087292 
Q 409.283888 192.24 406.202945 192.24 
Q 397.015271 192.24 391.649228 191.108569 
Q 386.283186 189.977139 386.283186 188.042254 
Q 386.283186 186.100427 391.649228 184.970732 
Q 397.015271 183.839301 406.202945 183.839301 
Q 409.283888 183.839301 412.112683 183.99201 
Q 414.941478 184.142983 417.557522 184.441458 
L 417.557522 186.116045 
Q 414.917839 185.720391 412.356952 185.536447 
Q 409.796066 185.352503 406.967271 185.352503 
Q 401.892775 185.352503 398.985184 186.069191 
Q 396.085472 186.784144 396.085472 188.042254 
Q 396.085472 189.295157 398.985184 190.011845 
Q 401.892775 190.726798 406.967271 190.726798 
Q 409.796066 190.726798 412.356952 190.542854 
Q 414.917839 190.357175 417.557522 189.961521 
L 417.557522 191.637843 
z
" clip-path="url(#pa6be55e66a)" style="fill: #0000ff"/>
   </g>
   <g id="patch_27">
    <path d="M 417.557522 182.128457 
Q 414.403454 182.983879 411.011079 183.413543 
Q 407.618703 183.839301 404.002039 183.839301 
Q 395.829498 183.839301 391.056342 181.292565 
Q 386.283186 178.745829 386.283186 174.390598 
Q 386.283186 169.984589 391.140451 167.457383 
Q 396.004724 164.930177 404.464635 164.930177 
Q 407.723839 164.930177 410.70969 165.273908 
Q 413.70255 165.613734 416.351967 166.285572 
L 416.351967 170.054897 
Q 413.618442 169.191663 410.912952 168.765905 
Q 408.207463 168.336241 405.487955 168.336241 
Q 400.455465 168.336241 397.728948 169.906468 
Q 395.002432 171.472789 395.002432 174.390598 
Q 395.002432 177.281066 397.630822 178.859104 
Q 400.259212 180.433237 405.095449 180.433237 
Q 406.413149 180.433237 407.541604 180.343398 
Q 408.670059 180.249654 409.567217 180.054352 
L 409.567217 176.515482 
L 404.415572 176.515482 
L 404.415572 173.363311 
L 417.557522 173.363311 
L 417.557522 182.128457 
z
" clip-path="url(#pa6be55e66a)" style="fill: #ffa600"/>
   </g>
   <g id="patch_28">
    <path d="M 407.946946 155.661225 
L 395.919339 155.661225 
L 394.020243 164.930177 
L 386.283186 164.930177 
L 397.332471 114.049082 
L 406.508237 114.049082 
L 417.557522 164.930177 
L 409.826859 164.930177 
L 407.946946 155.661225 
z
M 397.837618 146.217798 
L 406.009485 146.217798 
L 401.929945 125.978769 
L 397.837618 146.217798 
z
" clip-path="url(#pa6be55e66a)" style="fill: #008000"/>
   </g>
   <g id="patch_29">
    <path d="M 419.20354 192.072619 
L 450.477876 192.072619 
L 450.477876 192.105263 
L 439.226388 192.105263 
L 439.226388 192.24 
L 430.476847 192.24 
L 430.476847 192.105263 
L 419.20354 192.105263 
L 419.20354 192.072619 
z
" clip-path="url(#pa6be55e66a)" style="fill: #ff0000"/>
   </g>
   <g id="patch_30">
    <path d="M 450.477876 191.788198 
Q 447.861832 191.929179 445.033037 192.000489 
Q 442.204242 192.072619 439.123298 192.072619 
Q 429.935625 192.072619 424.569582 191.538203 
Q 419.20354 191.003786 419.20354 190.089868 
Q 419.20354 189.172672 424.569582 188.639075 
Q 429.935625 188.104658 439.123298 188.104658 
Q 442.204242 188.104658 445.033037 188.176788 
Q 447.861832 188.248098 450.477876 188.38908 
L 450.477876 189.180049 
Q 447.838193 188.993167 445.277306 188.906283 
Q 442.71642 188.8194 439.887625 188.8194 
Q 434.813129 188.8194 431.905538 189.157918 
Q 429.005826 189.495617 429.005826 190.089868 
Q 429.005826 190.681661 431.905538 191.020179 
Q 434.813129 191.357878 439.887625 191.357878 
Q 442.71642 191.357878 445.277306 191.270994 
Q 447.838193 191.183291 450.477876 190.996409 
L 450.477876 191.788198 
z
" clip-path="url(#pa6be55e66a)" style="fill: #0000ff"/>
   </g>
   <g id="patch_31">
    <path d="M 450.477876 185.388959 
Q 447.323808 186.746809 443.931433 187.428834 
Q 440.539057 188.104658 436.922393 188.104658 
Q 428.749852 188.104658 423.976696 184.06211 
Q 419.20354 180.019561 419.20354 173.106307 
Q 419.20354 166.112449 424.060805 162.100902 
Q 428.925078 158.089354 437.384989 158.089354 
Q 440.644193 158.089354 443.630044 158.634974 
Q 446.622904 159.174394 449.272321 160.240834 
L 449.272321 166.224054 
Q 446.538796 164.853803 443.833306 164.177978 
Q 441.127817 163.495953 438.408309 163.495953 
Q 433.375819 163.495953 430.649302 165.988445 
Q 427.922786 168.474736 427.922786 173.106307 
Q 427.922786 177.694476 430.551176 180.199368 
Q 433.179565 182.69806 438.015803 182.69806 
Q 439.333503 182.69806 440.461958 182.555454 
Q 441.590413 182.406649 442.487571 182.096637 
L 442.487571 176.479231 
L 437.335926 176.479231 
L 437.335926 171.475647 
L 450.477876 171.475647 
L 450.477876 185.388959 
z
" clip-path="url(#pa6be55e66a)" style="fill: #ffa600"/>
   </g>
   <g id="patch_32">
    <path d="M 483.39823 192.034458 
Q 480.244162 192.137229 476.851787 192.188849 
Q 473.459411 192.24 469.842747 192.24 
Q 461.670206 192.24 456.89705 191.934033 
Q 452.123894 191.628066 452.123894 191.104826 
Q 452.123894 190.575484 456.981158 190.271864 
Q 461.845432 189.968243 470.305343 189.968243 
Q 473.564547 189.968243 476.550398 190.00954 
Q 479.543258 190.050366 482.192675 190.131082 
L 482.192675 190.583931 
Q 479.45915 190.480222 476.75366 190.429071 
Q 474.048171 190.377451 471.328663 190.377451 
Q 466.296173 190.377451 463.569656 190.566099 
Q 460.84314 190.754278 460.84314 191.104826 
Q 460.84314 191.452089 463.471529 191.641675 
Q 466.099919 191.830793 470.936157 191.830793 
Q 472.253857 191.830793 473.382312 191.82 
Q 474.510767 191.808737 475.407925 191.785273 
L 475.407925 191.360111 
L 470.25628 191.360111 
L 470.25628 190.981407 
L 483.39823 190.981407 
L 483.39823 192.034458 
z
" clip-path="url(#pa6be55e66a)" style="fill: #ffa600"/>
   </g>
   <g id="patch_33">
    <path d="M 473.787654 189.5301 
L 461.760047 189.5301 
L 459.860951 189.968243 
L 452.123894 189.968243 
L 463.173179 187.563091 
L 472.348945 187.563091 
L 483.39823 189.968243 
L 475.667567 189.968243 
L 473.787654 189.5301 
z
M 463.678326 189.083708 
L 471.850193 189.083708 
L 467.770653 188.127008 
L 463.678326 189.083708 
z
" clip-path="url(#pa6be55e66a)" style="fill: #008000"/>
   </g>
   <g id="patch_34">
    <path d="M 452.123894 82.778288 
L 483.39823 82.778288 
L 483.39823 103.214244 
L 472.146742 103.214244 
L 472.146742 187.563091 
L 463.397201 187.563091 
L 463.397201 103.214244 
L 452.123894 103.214244 
L 452.123894 82.778288 
z
" clip-path="url(#pa6be55e66a)" style="fill: #ff0000"/>
   </g>
   <g id="patch_35">
    <path d="M 516.318584 192.167436 
Q 513.70254 192.203404 510.873745 192.221598 
Q 508.04495 192.24 504.964006 192.24 
Q 495.776333 192.24 490.41029 192.103655 
Q 485.044248 191.96731 485.044248 191.734143 
Q 485.044248 191.500139 490.41029 191.364003 
Q 495.776333 191.227658 504.964006 191.227658 
Q 508.04495 191.227658 510.873745 191.24606 
Q 513.70254 191.264254 516.318584 191.300222 
L 516.318584 191.502021 
Q 513.678901 191.454342 511.118014 191.432176 
Q 508.557127 191.410009 505.728333 191.410009 
Q 500.653837 191.410009 497.746246 191.496375 
Q 494.846534 191.582532 494.846534 191.734143 
Q 494.846534 191.885126 497.746246 191.971492 
Q 500.653837 192.057649 505.728333 192.057649 
Q 508.557127 192.057649 511.118014 192.035482 
Q 513.678901 192.013107 516.318584 191.965428 
L 516.318584 192.167436 
z
" clip-path="url(#pa6be55e66a)" style="fill: #0000ff"/>
   </g>
   <g id="patch_36">
    <path d="M 485.044248 101.109857 
L 516.318584 101.109857 
L 516.318584 118.685339 
L 505.067096 118.685339 
L 505.067096 191.227658 
L 496.317555 191.227658 
L 496.317555 118.685339 
L 485.044248 118.685339 
L 485.044248 101.109857 
z
" clip-path="url(#pa6be55e66a)" style="fill: #ff0000"/>
   </g>
   <g id="patch_37">
    <path d="M 539.628362 192.081705 
L 527.600755 192.081705 
L 525.701659 192.24 
L 517.964602 192.24 
L 529.013887 191.371055 
L 538.189653 191.371055 
L 549.238938 192.24 
L 541.508275 192.24 
L 539.628362 192.081705 
z
M 529.519034 191.920431 
L 537.690901 191.920431 
L 533.611361 191.574789 
L 529.519034 191.920431 
z
" clip-path="url(#pa6be55e66a)" style="fill: #008000"/>
   </g>
   <g id="patch_38">
    <path d="M 549.238938 190.851144 
Q 546.622894 191.108852 543.794099 191.239204 
Q 540.965304 191.371055 537.88436 191.371055 
Q 528.696687 191.371055 523.330644 190.394163 
Q 517.964602 189.417271 517.964602 187.746667 
Q 517.964602 186.070069 523.330644 185.094676 
Q 528.696687 184.117784 537.88436 184.117784 
Q 540.965304 184.117784 543.794099 184.249634 
Q 546.622894 184.379986 549.238938 184.637694 
L 549.238938 186.083554 
Q 546.599255 185.741941 544.038368 185.583121 
Q 541.477481 185.424302 538.648687 185.424302 
Q 533.574191 185.424302 530.6666 186.0431 
Q 527.766888 186.660399 527.766888 187.746667 
Q 527.766888 188.828439 530.6666 189.447237 
Q 533.574191 190.064537 538.648687 190.064537 
Q 541.477481 190.064537 544.038368 189.905717 
Q 546.599255 189.745399 549.238938 189.403787 
L 549.238938 190.851144 
z
" clip-path="url(#pa6be55e66a)" style="fill: #0000ff"/>
   </g>
   <g id="patch_39">
    <path d="M 517.964602 144.878794 
L 549.238938 144.878794 
L 549.238938 152.531491 
L 537.98745 152.531491 
L 537.98745 184.117784 
L 529.237909 184.117784 
L 529.237909 152.531491 
L 517.964602 152.531491 
L 517.964602 144.878794 
z
" clip-path="url(#pa6be55e66a)" style="fill: #ff0000"/>
   </g>
   <g id="patch_40">
    <path d="M 582.159292 191.958686 
Q 579.005224 192.099343 575.612849 192.169993 
Q 572.220473 192.24 568.603809 192.24 
Q 560.431268 192.24 555.658112 191.82124 
Q 550.884956 191.40248 550.884956 190.686349 
Q 550.884956 189.961868 555.74222 189.546319 
Q 560.606494 189.13077 569.066405 189.13077 
Q 572.325609 189.13077 575.31146 189.18729 
Q 578.30432 189.243167 580.953737 189.353638 
L 580.953737 189.973429 
Q 578.220212 189.831487 575.514722 189.76148 
Q 572.809233 189.69083 570.089725 189.69083 
Q 565.057235 189.69083 562.330718 189.949022 
Q 559.604201 190.206573 559.604201 190.686349 
Q 559.604201 191.161628 562.232591 191.421106 
Q 564.860981 191.67994 569.697219 191.67994 
Q 571.014919 191.67994 572.143374 191.665168 
Q 573.271829 191.649754 574.168986 191.61764 
L 574.168986 191.035743 
L 569.017342 191.035743 
L 569.017342 190.517431 
L 582.159292 190.517431 
L 582.159292 191.958686 
z
" clip-path="url(#pa6be55e66a)" style="fill: #ffa600"/>
   </g>
   <g id="patch_41">
    <path d="M 550.884956 183.911319 
L 582.159292 183.911319 
L 582.159292 184.929258 
L 570.907804 184.929258 
L 570.907804 189.13077 
L 562.158263 189.13077 
L 562.158263 184.929258 
L 550.884956 184.929258 
L 550.884956 183.911319 
z
" clip-path="url(#pa6be55e66a)" style="fill: #ff0000"/>
   </g>
   <g id="patch_42">
    <path d="M 582.159292 181.973633 
Q 579.543248 182.9341 576.714453 183.419918 
Q 573.885658 183.911319 570.804714 183.911319 
Q 561.617041 183.911319 556.250998 180.270479 
Q 550.884956 176.629639 550.884956 170.403355 
Q 550.884956 164.154734 556.250998 160.519478 
Q 561.617041 156.878638 570.804714 156.878638 
Q 573.885658 156.878638 576.714453 157.370039 
Q 579.543248 157.855857 582.159292 158.816324 
L 582.159292 164.204991 
Q 579.519609 162.931814 576.958722 162.339898 
Q 574.397835 161.747982 571.569041 161.747982 
Q 566.494545 161.747982 563.586954 164.05422 
Q 560.687242 166.354874 560.687242 170.403355 
Q 560.687242 174.435083 563.586954 176.741321 
Q 566.494545 179.041975 571.569041 179.041975 
Q 574.397835 179.041975 576.958722 178.450059 
Q 579.519609 177.852559 582.159292 176.579382 
L 582.159292 181.973633 
z
" clip-path="url(#pa6be55e66a)" style="fill: #0000ff"/>
   </g>
   <g id="patch_43">
    <path d="M 615.079646 191.981475 
Q 612.463602 192.10962 609.634807 192.174437 
Q 606.806012 192.24 603.725068 192.24 
Q 594.537395 192.24 589.171352 191.754241 
Q 583.80531 191.268482 583.80531 190.437774 
Q 583.80531 189.604086 589.171352 189.119072 
Q 594.537395 188.633313 603.725068 188.633313 
Q 606.806012 188.633313 609.634807 188.698876 
Q 612.463602 188.763693 615.079646 188.891838 
L 615.079646 189.610792 
Q 612.439963 189.440925 609.879076 189.361952 
Q 607.318189 189.282979 604.489395 189.282979 
Q 599.414899 189.282979 596.507308 189.590676 
Q 593.607596 189.897628 593.607596 190.437774 
Q 593.607596 190.975685 596.507308 191.283382 
Q 599.414899 191.590334 604.489395 191.590334 
Q 607.318189 191.590334 609.879076 191.511361 
Q 612.439963 191.431643 615.079646 191.261777 
L 615.079646 191.981475 
z
" clip-path="url(#pa6be55e66a)" style="fill: #0000ff"/>
   </g>
   <g id="patch_44">
    <path d="M 615.079646 188.147755 
Q 611.925578 188.390534 608.533203 188.512478 
Q 605.140827 188.633313 601.524163 188.633313 
Q 593.351622 188.633313 588.578466 187.910519 
Q 583.80531 187.187725 583.80531 185.951658 
Q 583.80531 184.70118 588.662574 183.983928 
Q 593.526848 183.266677 601.986759 183.266677 
Q 605.245963 183.266677 608.231814 183.364232 
Q 611.224674 183.460679 613.874091 183.651354 
L 613.874091 184.721134 
Q 611.140566 184.476138 608.435076 184.355303 
Q 605.729587 184.233359 603.010079 184.233359 
Q 597.977589 184.233359 595.251072 184.679008 
Q 592.524555 185.123549 592.524555 185.951658 
Q 592.524555 186.772007 595.152945 187.219873 
Q 597.781335 187.666631 602.617573 187.666631 
Q 603.935272 187.666631 605.063728 187.641134 
Q 606.192183 187.614528 607.08934 187.559099 
L 607.08934 186.554725 
L 601.937696 186.554725 
L 601.937696 185.660101 
L 615.079646 185.660101 
L 615.079646 188.147755 
z
" clip-path="url(#pa6be55e66a)" style="fill: #ffa600"/>
   </g>
   <g id="patch_45">
    <path d="M 605.46907 181.846875 
L 593.441463 181.846875 
L 591.542367 183.266677 
L 583.80531 183.266677 
L 594.854595 175.472801 
L 604.030361 175.472801 
L 615.079646 183.266677 
L 607.348983 183.266677 
L 605.46907 181.846875 
z
M 595.359741 180.400348 
L 603.531609 180.400348 
L 599.452069 177.300169 
L 595.359741 180.400348 
z
" clip-path="url(#pa6be55e66a)" style="fill: #008000"/>
   </g>
   <g id="patch_46">
    <path d="M 616.725664 192.074905 
L 648 192.074905 
L 648 192.107103 
L 636.748512 192.107103 
L 636.748512 192.24 
L 627.998971 192.24 
L 627.998971 192.107103 
L 616.725664 192.107103 
L 616.725664 192.074905 
z
" clip-path="url(#pa6be55e66a)" style="fill: #ff0000"/>
   </g>
   <g id="patch_47">
    <path d="M 648 191.936926 
Q 645.383956 192.005319 642.555161 192.039913 
Q 639.726366 192.074905 636.645422 192.074905 
Q 627.457749 192.074905 622.091706 191.815648 
Q 616.725664 191.556392 616.725664 191.113032 
Q 616.725664 190.668081 622.091706 190.409223 
Q 627.457749 190.149966 636.645422 190.149966 
Q 639.726366 190.149966 642.555161 190.184958 
Q 645.383956 190.219552 648 190.287945 
L 648 190.67166 
Q 645.360317 190.581 642.79943 190.538851 
Q 640.238543 190.496702 637.409749 190.496702 
Q 632.335253 190.496702 629.427662 190.660924 
Q 626.52795 190.824748 626.52795 191.113032 
Q 626.52795 191.400122 629.427662 191.564345 
Q 632.335253 191.728169 637.409749 191.728169 
Q 640.238543 191.728169 642.79943 191.68602 
Q 645.360317 191.643473 648 191.552813 
L 648 191.936926 
z
" clip-path="url(#pa6be55e66a)" style="fill: #0000ff"/>
   </g>
   <g id="patch_48">
    <path d="M 648 189.899785 
Q 644.845932 190.024876 641.453557 190.087707 
Q 638.061181 190.149966 634.444517 190.149966 
Q 626.271976 190.149966 621.49882 189.77755 
Q 616.725664 189.405134 616.725664 188.768257 
Q 616.725664 188.123955 621.582928 187.754395 
Q 626.447202 187.384835 634.907113 187.384835 
Q 638.166317 187.384835 641.152168 187.4351 
Q 644.145028 187.484793 646.794445 187.583038 
L 646.794445 188.134236 
Q 644.06092 188.008003 641.35543 187.945744 
Q 638.649941 187.882913 635.930433 187.882913 
Q 630.897943 187.882913 628.171426 188.112531 
Q 625.444909 188.341578 625.444909 188.768257 
Q 625.444909 189.190938 628.073299 189.421699 
Q 630.701689 189.651889 635.537927 189.651889 
Q 636.855626 189.651889 637.984082 189.638751 
Q 639.112537 189.625043 640.009694 189.596483 
L 640.009694 189.078985 
L 634.85805 189.078985 
L 634.85805 188.618034 
L 648 188.618034 
L 648 189.899785 
z
" clip-path="url(#pa6be55e66a)" style="fill: #ffa600"/>
   </g>
   <g id="patch_49">
    <path d="M 638.389424 186.172559 
L 626.361817 186.172559 
L 624.462721 187.384835 
L 616.725664 187.384835 
L 627.774949 180.730152 
L 636.950715 180.730152 
L 648 187.384835 
L 640.269337 187.384835 
L 638.389424 186.172559 
z
M 628.280095 184.937463 
L 636.451963 184.937463 
L 632.372423 182.290423 
L 628.280095 184.937463 
z
" clip-path="url(#pa6be55e66a)" style="fill: #008000"/>
   </g>
   <g id="patch_50">
    <path d="M 144.584114 192.300049 
L 132.556507 192.300049 
L 130.657411 192.24 
L 122.920354 192.24 
L 133.969639 192.569632 
L 143.145405 192.569632 
L 154.19469 192.24 
L 146.464027 192.24 
L 144.584114 192.300049 
z
M 134.474786 192.361228 
L 142.646653 192.361228 
L 138.567114 192.492345 
L 134.474786 192.361228 
z
" clip-path="url(#pa6be55e66a)" style="fill: #008000"/>
   </g>
   <g id="patch_51">
    <path d="M 187.115044 192.353884 
Q 183.960976 192.296942 180.568601 192.268341 
Q 177.176226 192.24 173.559561 192.24 
Q 165.38702 192.24 160.613864 192.409526 
Q 155.840708 192.579052 155.840708 192.868963 
Q 155.840708 193.162254 160.697973 193.33048 
Q 165.562246 193.498706 174.022158 193.498706 
Q 177.281361 193.498706 180.267212 193.475825 
Q 183.260072 193.453204 185.909489 193.408482 
L 185.909489 193.157573 
Q 183.175964 193.215035 180.470474 193.243376 
Q 177.764985 193.271978 175.045477 193.271978 
Q 170.012987 193.271978 167.28647 193.167454 
Q 164.559954 193.06319 164.559954 192.868963 
Q 164.559954 192.676556 167.188344 192.571512 
Q 169.816734 192.466728 174.652971 192.466728 
Q 175.970671 192.466728 177.099126 192.472708 
Q 178.227582 192.478949 179.124739 192.491949 
L 179.124739 192.727518 
L 173.973094 192.727518 
L 173.973094 192.937345 
L 187.115044 192.937345 
L 187.115044 192.353884 
z
" clip-path="url(#pa6be55e66a)" style="fill: #ffa600"/>
   </g>
   <g id="patch_52">
    <path d="M 220.035398 192.243549 
Q 217.419354 192.24179 214.590559 192.2409 
Q 211.761764 192.24 208.680821 192.24 
Q 199.493147 192.24 194.127105 192.246668 
Q 188.761062 192.253336 188.761062 192.264739 
Q 188.761062 192.276182 194.127105 192.28284 
Q 199.493147 192.289508 208.680821 192.289508 
Q 211.761764 192.289508 214.590559 192.288608 
Q 217.419354 192.287718 220.035398 192.285959 
L 220.035398 192.27609 
Q 217.395715 192.278422 214.834828 192.279506 
Q 212.273942 192.28059 209.445147 192.28059 
Q 204.370651 192.28059 201.46306 192.276367 
Q 198.563348 192.272153 198.563348 192.264739 
Q 198.563348 192.257355 201.46306 192.253131 
Q 204.370651 192.248918 209.445147 192.248918 
Q 212.273942 192.248918 214.834828 192.250002 
Q 217.395715 192.251096 220.035398 192.253428 
L 220.035398 192.243549 
z
" clip-path="url(#pa6be55e66a)" style="fill: #0000ff"/>
   </g>
   <g id="patch_53">
    <path d="M 188.761062 194.71349 
L 220.035398 194.71349 
L 220.035398 194.240746 
L 208.78391 194.240746 
L 208.78391 192.289508 
L 200.034369 192.289508 
L 200.034369 194.240746 
L 188.761062 194.240746 
L 188.761062 194.71349 
z
" clip-path="url(#pa6be55e66a)" style="fill: #ff0000"/>
   </g>
   <g id="patch_54">
    <path d="M 243.345176 192.439007 
L 231.317569 192.439007 
L 229.418473 192.3383 
L 221.681416 192.3383 
L 232.730701 192.891123 
L 241.906467 192.891123 
L 252.955752 192.3383 
L 245.225089 192.3383 
L 243.345176 192.439007 
z
M 233.235848 192.54161 
L 241.407715 192.54161 
L 237.328175 192.761507 
L 233.235848 192.54161 
z
" clip-path="url(#pa6be55e66a)" style="fill: #008000"/>
   </g>
   <g id="patch_55">
    <path d="M 221.681416 192.3383 
L 252.955752 192.3383 
L 252.955752 192.319129 
L 241.704264 192.319129 
L 241.704264 192.24 
L 232.954723 192.24 
L 232.954723 192.319129 
L 221.681416 192.319129 
L 221.681416 192.3383 
z
" clip-path="url(#pa6be55e66a)" style="fill: #ff0000"/>
   </g>
   <g id="patch_56">
    <path d="M 285.876106 192.240371 
Q 283.260062 192.240187 280.431267 192.240094 
Q 277.602472 192.24 274.521529 192.24 
Q 265.333855 192.24 259.967812 192.240697 
Q 254.60177 192.241394 254.60177 192.242586 
Q 254.60177 192.243782 259.967812 192.244478 
Q 265.333855 192.245175 274.521529 192.245175 
Q 277.602472 192.245175 280.431267 192.245081 
Q 283.260062 192.244988 285.876106 192.244804 
L 285.876106 192.243772 
Q 283.236423 192.244016 280.675536 192.244129 
Q 278.11465 192.244242 275.285855 192.244242 
Q 270.211359 192.244242 267.303768 192.243801 
Q 264.404056 192.243361 264.404056 192.242586 
Q 264.404056 192.241814 267.303768 192.241372 
Q 270.211359 192.240932 275.285855 192.240932 
Q 278.11465 192.240932 280.675536 192.241045 
Q 283.236423 192.24116 285.876106 192.241403 
L 285.876106 192.240371 
z
" clip-path="url(#pa6be55e66a)" style="fill: #0000ff"/>
   </g>
   <g id="patch_57">
    <path d="M 386.283186 194.640552 
L 417.557522 194.640552 
L 417.557522 194.172378 
L 406.306034 194.172378 
L 406.306034 192.24 
L 397.556493 192.24 
L 397.556493 194.172378 
L 386.283186 194.172378 
L 386.283186 194.640552 
z
" clip-path="url(#pa6be55e66a)" style="fill: #ff0000"/>
   </g>
   <g id="patch_58">
    <path d="M 440.8673 192.309053 
L 428.839693 192.309053 
L 426.940597 192.24 
L 419.20354 192.24 
L 430.252825 192.619061 
L 439.428591 192.619061 
L 450.477876 192.24 
L 442.747213 192.24 
L 440.8673 192.309053 
z
M 430.757972 192.379406 
L 438.929839 192.379406 
L 434.850299 192.530186 
L 430.757972 192.379406 
z
" clip-path="url(#pa6be55e66a)" style="fill: #008000"/>
   </g>
   <g id="patch_59">
    <path d="M 483.39823 192.269436 
Q 480.782186 192.254845 477.953391 192.247465 
Q 475.124596 192.24 472.043652 192.24 
Q 462.855979 192.24 457.489936 192.295308 
Q 452.123894 192.350617 452.123894 192.445201 
Q 452.123894 192.540124 457.489936 192.595347 
Q 462.855979 192.650656 472.043652 192.650656 
Q 475.124596 192.650656 477.953391 192.643191 
Q 480.782186 192.635811 483.39823 192.62122 
L 483.39823 192.53936 
Q 480.758547 192.558701 478.19766 192.567693 
Q 475.636773 192.576685 472.807979 192.576685 
Q 467.733483 192.576685 464.825892 192.541651 
Q 461.92618 192.506701 461.92618 192.445201 
Q 461.92618 192.383954 464.825892 192.34892 
Q 467.733483 192.313971 472.807979 192.313971 
Q 475.636773 192.313971 478.19766 192.322962 
Q 480.758547 192.332039 483.39823 192.35138 
L 483.39823 192.269436 
z
" clip-path="url(#pa6be55e66a)" style="fill: #0000ff"/>
   </g>
   <g id="patch_60">
    <path d="M 506.708008 192.274356 
L 494.680401 192.274356 
L 492.781305 192.24 
L 485.044248 192.24 
L 496.093533 192.428592 
L 505.269299 192.428592 
L 516.318584 192.24 
L 508.587921 192.24 
L 506.708008 192.274356 
z
M 496.59868 192.309358 
L 504.770547 192.309358 
L 500.691007 192.384375 
L 496.59868 192.309358 
z
" clip-path="url(#pa6be55e66a)" style="fill: #008000"/>
   </g>
   <g id="patch_61">
    <path d="M 516.318584 192.458461 
Q 513.164516 192.443526 509.772141 192.436025 
Q 506.379765 192.428592 502.763101 192.428592 
Q 494.59056 192.428592 489.817404 192.473054 
Q 485.044248 192.517515 485.044248 192.59355 
Q 485.044248 192.670472 489.901512 192.714592 
Q 494.765786 192.758713 503.225697 192.758713 
Q 506.484901 192.758713 509.470752 192.752712 
Q 512.463612 192.746779 515.113029 192.73505 
L 515.113029 192.669244 
Q 512.379504 192.684315 509.674014 192.691748 
Q 506.968525 192.699249 504.249017 192.699249 
Q 499.216527 192.699249 496.49001 192.671835 
Q 493.763493 192.64449 493.763493 192.59355 
Q 493.763493 192.543088 496.391883 192.515538 
Q 499.020273 192.488056 503.856511 192.488056 
Q 505.174211 192.488056 506.302666 192.489625 
Q 507.431121 192.491261 508.328279 192.494671 
L 508.328279 192.556453 
L 503.176634 192.556453 
L 503.176634 192.611485 
L 516.318584 192.611485 
L 516.318584 192.458461 
z
" clip-path="url(#pa6be55e66a)" style="fill: #ffa600"/>
   </g>
   <g id="patch_62">
    <path d="M 549.238938 192.269695 
Q 546.08487 192.254847 542.692495 192.24739 
Q 539.300119 192.24 535.683455 192.24 
Q 527.510914 192.24 522.737758 192.284203 
Q 517.964602 192.328407 517.964602 192.404 
Q 517.964602 192.480474 522.821866 192.524339 
Q 527.68614 192.568203 536.146051 192.568203 
Q 539.405255 192.568203 542.391106 192.562237 
Q 545.383966 192.556339 548.033383 192.544678 
L 548.033383 192.479254 
Q 545.299858 192.494237 542.594368 192.501627 
Q 539.888879 192.509084 537.169371 192.509084 
Q 532.136881 192.509084 529.410364 192.48183 
Q 526.683847 192.454644 526.683847 192.404 
Q 526.683847 192.35383 529.312237 192.326441 
Q 531.940627 192.299119 536.776865 192.299119 
Q 538.094565 192.299119 539.22302 192.300678 
Q 540.351475 192.302305 541.248633 192.305695 
L 541.248633 192.367118 
L 536.096988 192.367118 
L 536.096988 192.42183 
L 549.238938 192.42183 
L 549.238938 192.269695 
z
" clip-path="url(#pa6be55e66a)" style="fill: #ffa600"/>
   </g>
   <g id="patch_63">
    <path d="M 572.548716 192.251616 
L 560.521109 192.251616 
L 558.622013 192.24 
L 550.884956 192.24 
L 561.934241 192.303767 
L 571.110007 192.303767 
L 582.159292 192.24 
L 574.428629 192.24 
L 572.548716 192.251616 
z
M 562.439387 192.263451 
L 570.611255 192.263451 
L 566.531715 192.288816 
L 562.439387 192.263451 
z
" clip-path="url(#pa6be55e66a)" style="fill: #008000"/>
   </g>
   <g id="patch_64">
    <path d="M 583.80531 195.286493 
L 615.079646 195.286493 
L 615.079646 194.692342 
L 603.828158 194.692342 
L 603.828158 192.24 
L 595.078617 192.24 
L 595.078617 194.692342 
L 583.80531 194.692342 
L 583.80531 195.286493 
z
" clip-path="url(#pa6be55e66a)" style="fill: #ff0000"/>
   </g>
   <g id="matplotlib.axis_1">
    <g id="xtick_1">
     <g id="line2d_2">
      <defs>
       <path id="m53cc729478" d="M 0 0 
L 0 3.5 
" style="stroke: #000000; stroke-width: 0.8"/>
      </defs>
      <g>
       <use xlink:href="#m53cc729478" x="105.637168" y="192.24" style="stroke: #000000; stroke-width: 0.8"/>
      </g>
     </g>
     <g id="text_1">
      <!-- 0 -->
      <g transform="translate(102.455918 206.838437) scale(0.1 -0.1)">
       <defs>
        <path id="DejaVuSans-30" d="M 2034 4250 
Q 1547 4250 1301 3770 
Q 1056 3291 1056 2328 
Q 1056 1369 1301 889 
Q 1547 409 2034 409 
Q 2525 409 2770 889 
Q 3016 1369 3016 2328 
Q 3016 3291 2770 3770 
Q 2525 4250 2034 4250 
z
M 2034 4750 
Q 2819 4750 3233 4129 
Q 3647 3509 3647 2328 
Q 3647 1150 3233 529 
Q 2819 -91 2034 -91 
Q 1250 -91 836 529 
Q 422 1150 422 2328 
Q 422 3509 836 4129 
Q 1250 4750 2034 4750 
z
" transform="scale(0.015625)"/>
       </defs>
       <use xlink:href="#DejaVuSans-30"/>
      </g>
     </g>
    </g>
    <g id="xtick_2">
     <g id="line2d_3">
      <g>
       <use xlink:href="#m53cc729478" x="171.477876" y="192.24" style="stroke: #000000; stroke-width: 0.8"/>
      </g>
     </g>
     <g id="text_2">
      <!-- 2 -->
      <g transform="translate(168.296626 206.838437) scale(0.1 -0.1)">
       <defs>
        <path id="DejaVuSans-32" d="M 1228 531 
L 3431 531 
L 3431 0 
L 469 0 
L 469 531 
Q 828 903 1448 1529 
Q 2069 2156 2228 2338 
Q 2531 2678 2651 2914 
Q 2772 3150 2772 3378 
Q 2772 3750 2511 3984 
Q 2250 4219 1831 4219 
Q 1534 4219 1204 4116 
Q 875 4013 500 3803 
L 500 4441 
Q 881 4594 1212 4672 
Q 1544 4750 1819 4750 
Q 2544 4750 2975 4387 
Q 3406 4025 3406 3419 
Q 3406 3131 3298 2873 
Q 3191 2616 2906 2266 
Q 2828 2175 2409 1742 
Q 1991 1309 1228 531 
z
" transform="scale(0.015625)"/>
       </defs>
       <use xlink:href="#DejaVuSans-32"/>
      </g>
     </g>
    </g>
    <g id="xtick_3">
     <g id="line2d_4">
      <g>
       <use xlink:href="#m53cc729478" x="237.318584" y="192.24" style="stroke: #000000; stroke-width: 0.8"/>
      </g>
     </g>
     <g id="text_3">
      <!-- 4 -->
      <g transform="translate(234.137334 206.838437) scale(0.1 -0.1)">
       <defs>
        <path id="DejaVuSans-34" d="M 2419 4116 
L 825 1625 
L 2419 1625 
L 2419 4116 
z
M 2253 4666 
L 3047 4666 
L 3047 1625 
L 3713 1625 
L 3713 1100 
L 3047 1100 
L 3047 0 
L 2419 0 
L 2419 1100 
L 313 1100 
L 313 1709 
L 2253 4666 
z
" transform="scale(0.015625)"/>
       </defs>
       <use xlink:href="#DejaVuSans-34"/>
      </g>
     </g>
    </g>
    <g id="xtick_4">
     <g id="line2d_5">
      <g>
       <use xlink:href="#m53cc729478" x="303.159292" y="192.24" style="stroke: #000000; stroke-width: 0.8"/>
      </g>
     </g>
     <g id="text_4">
      <!-- 6 -->
      <g transform="translate(299.978042 206.838437) scale(0.1 -0.1)">
       <defs>
        <path id="DejaVuSans-36" d="M 2113 2584 
Q 1688 2584 1439 2293 
Q 1191 2003 1191 1497 
Q 1191 994 1439 701 
Q 1688 409 2113 409 
Q 2538 409 2786 701 
Q 3034 994 3034 1497 
Q 3034 2003 2786 2293 
Q 2538 2584 2113 2584 
z
M 3366 4563 
L 3366 3988 
Q 3128 4100 2886 4159 
Q 2644 4219 2406 4219 
Q 1781 4219 1451 3797 
Q 1122 3375 1075 2522 
Q 1259 2794 1537 2939 
Q 1816 3084 2150 3084 
Q 2853 3084 3261 2657 
Q 3669 2231 3669 1497 
Q 3669 778 3244 343 
Q 2819 -91 2113 -91 
Q 1303 -91 875 529 
Q 447 1150 447 2328 
Q 447 3434 972 4092 
Q 1497 4750 2381 4750 
Q 2619 4750 2861 4703 
Q 3103 4656 3366 4563 
z
" transform="scale(0.015625)"/>
       </defs>
       <use xlink:href="#DejaVuSans-36"/>
      </g>
     </g>
    </g>
    <g id="xtick_5">
     <g id="line2d_6">
      <g>
       <use xlink:href="#m53cc729478" x="369" y="192.24" style="stroke: #000000; stroke-width: 0.8"/>
      </g>
     </g>
     <g id="text_5">
      <!-- 8 -->
      <g transform="translate(365.81875 206.838437) scale(0.1 -0.1)">
       <defs>
        <path id="DejaVuSans-38" d="M 2034 2216 
Q 1584 2216 1326 1975 
Q 1069 1734 1069 1313 
Q 1069 891 1326 650 
Q 1584 409 2034 409 
Q 2484 409 2743 651 
Q 3003 894 3003 1313 
Q 3003 1734 2745 1975 
Q 2488 2216 2034 2216 
z
M 1403 2484 
Q 997 2584 770 2862 
Q 544 3141 544 3541 
Q 544 4100 942 4425 
Q 1341 4750 2034 4750 
Q 2731 4750 3128 4425 
Q 3525 4100 3525 3541 
Q 3525 3141 3298 2862 
Q 3072 2584 2669 2484 
Q 3125 2378 3379 2068 
Q 3634 1759 3634 1313 
Q 3634 634 3220 271 
Q 2806 -91 2034 -91 
Q 1263 -91 848 271 
Q 434 634 434 1313 
Q 434 1759 690 2068 
Q 947 2378 1403 2484 
z
M 1172 3481 
Q 1172 3119 1398 2916 
Q 1625 2713 2034 2713 
Q 2441 2713 2670 2916 
Q 2900 3119 2900 3481 
Q 2900 3844 2670 4047 
Q 2441 4250 2034 4250 
Q 1625 4250 1398 4047 
Q 1172 3844 1172 3481 
z
" transform="scale(0.015625)"/>
       </defs>
       <use xlink:href="#DejaVuSans-38"/>
      </g>
     </g>
    </g>
    <g id="xtick_6">
     <g id="line2d_7">
      <g>
       <use xlink:href="#m53cc729478" x="434.840708" y="192.24" style="stroke: #000000; stroke-width: 0.8"/>
      </g>
     </g>
     <g id="text_6">
      <!-- 10 -->
      <g transform="translate(428.478208 206.838437) scale(0.1 -0.1)">
       <defs>
        <path id="DejaVuSans-31" d="M 794 531 
L 1825 531 
L 1825 4091 
L 703 3866 
L 703 4441 
L 1819 4666 
L 2450 4666 
L 2450 531 
L 3481 531 
L 3481 0 
L 794 0 
L 794 531 
z
" transform="scale(0.015625)"/>
       </defs>
       <use xlink:href="#DejaVuSans-31"/>
       <use xlink:href="#DejaVuSans-30" x="63.623047"/>
      </g>
     </g>
    </g>
    <g id="xtick_7">
     <g id="line2d_8">
      <g>
       <use xlink:href="#m53cc729478" x="500.681416" y="192.24" style="stroke: #000000; stroke-width: 0.8"/>
      </g>
     </g>
     <g id="text_7">
      <!-- 12 -->
      <g transform="translate(494.318916 206.838437) scale(0.1 -0.1)">
       <use xlink:href="#DejaVuSans-31"/>
       <use xlink:href="#DejaVuSans-32" x="63.623047"/>
      </g>
     </g>
    </g>
    <g id="xtick_8">
     <g id="line2d_9">
      <g>
       <use xlink:href="#m53cc729478" x="566.522124" y="192.24" style="stroke: #000000; stroke-width: 0.8"/>
      </g>
     </g>
     <g id="text_8">
      <!-- 14 -->
      <g transform="translate(560.159624 206.838437) scale(0.1 -0.1)">
       <use xlink:href="#DejaVuSans-31"/>
       <use xlink:href="#DejaVuSans-34" x="63.623047"/>
      </g>
     </g>
    </g>
    <g id="xtick_9">
     <g id="line2d_10">
      <g>
       <use xlink:href="#m53cc729478" x="632.362832" y="192.24" style="stroke: #000000; stroke-width: 0.8"/>
      </g>
     </g>
     <g id="text_9">
      <!-- 16 -->
      <g transform="translate(626.000332 206.838437) scale(0.1 -0.1)">
       <use xlink:href="#DejaVuSans-31"/>
       <use xlink:href="#DejaVuSans-36" x="63.623047"/>
      </g>
     </g>
    </g>
   </g>
   <g id="matplotlib.axis_2">
    <g id="ytick_1">
     <g id="line2d_11">
      <defs>
       <path id="m49b4d6f976" d="M 0 0 
L -3.5 0 
" style="stroke: #000000; stroke-width: 0.8"/>
      </defs>
      <g>
       <use xlink:href="#m49b4d6f976" x="90" y="192.24" style="stroke: #000000; stroke-width: 0.8"/>
      </g>
     </g>
     <g id="text_10">
      <!-- 0.000 -->
      <g transform="translate(54.371875 196.039219) scale(0.1 -0.1)">
       <defs>
        <path id="DejaVuSans-2e" d="M 684 794 
L 1344 794 
L 1344 0 
L 684 0 
L 684 794 
z
" transform="scale(0.015625)"/>
       </defs>
       <use xlink:href="#DejaVuSans-30"/>
       <use xlink:href="#DejaVuSans-2e" x="63.623047"/>
       <use xlink:href="#DejaVuSans-30" x="95.410156"/>
       <use xlink:href="#DejaVuSans-30" x="159.033203"/>
       <use xlink:href="#DejaVuSans-30" x="222.65625"/>
      </g>
     </g>
    </g>
    <g id="ytick_2">
     <g id="line2d_12">
      <g>
       <use xlink:href="#m49b4d6f976" x="90" y="168.952647" style="stroke: #000000; stroke-width: 0.8"/>
      </g>
     </g>
     <g id="text_11">
      <!-- 0.002 -->
      <g transform="translate(54.371875 172.751866) scale(0.1 -0.1)">
       <use xlink:href="#DejaVuSans-30"/>
       <use xlink:href="#DejaVuSans-2e" x="63.623047"/>
       <use xlink:href="#DejaVuSans-30" x="95.410156"/>
       <use xlink:href="#DejaVuSans-30" x="159.033203"/>
       <use xlink:href="#DejaVuSans-32" x="222.65625"/>
      </g>
     </g>
    </g>
    <g id="ytick_3">
     <g id="line2d_13">
      <g>
       <use xlink:href="#m49b4d6f976" x="90" y="145.665294" style="stroke: #000000; stroke-width: 0.8"/>
      </g>
     </g>
     <g id="text_12">
      <!-- 0.004 -->
      <g transform="translate(54.371875 149.464512) scale(0.1 -0.1)">
       <use xlink:href="#DejaVuSans-30"/>
       <use xlink:href="#DejaVuSans-2e" x="63.623047"/>
       <use xlink:href="#DejaVuSans-30" x="95.410156"/>
       <use xlink:href="#DejaVuSans-30" x="159.033203"/>
       <use xlink:href="#DejaVuSans-34" x="222.65625"/>
      </g>
     </g>
    </g>
    <g id="ytick_4">
     <g id="line2d_14">
      <g>
       <use xlink:href="#m49b4d6f976" x="90" y="122.37794" style="stroke: #000000; stroke-width: 0.8"/>
      </g>
     </g>
     <g id="text_13">
      <!-- 0.006 -->
      <g transform="translate(54.371875 126.177159) scale(0.1 -0.1)">
       <use xlink:href="#DejaVuSans-30"/>
       <use xlink:href="#DejaVuSans-2e" x="63.623047"/>
       <use xlink:href="#DejaVuSans-30" x="95.410156"/>
       <use xlink:href="#DejaVuSans-30" x="159.033203"/>
       <use xlink:href="#DejaVuSans-36" x="222.65625"/>
      </g>
     </g>
    </g>
    <g id="ytick_5">
     <g id="line2d_15">
      <g>
       <use xlink:href="#m49b4d6f976" x="90" y="99.090587" style="stroke: #000000; stroke-width: 0.8"/>
      </g>
     </g>
     <g id="text_14">
      <!-- 0.008 -->
      <g transform="translate(54.371875 102.889806) scale(0.1 -0.1)">
       <use xlink:href="#DejaVuSans-30"/>
       <use xlink:href="#DejaVuSans-2e" x="63.623047"/>
       <use xlink:href="#DejaVuSans-30" x="95.410156"/>
       <use xlink:href="#DejaVuSans-30" x="159.033203"/>
       <use xlink:href="#DejaVuSans-38" x="222.65625"/>
      </g>
     </g>
    </g>
    <g id="ytick_6">
     <g id="line2d_16">
      <g>
       <use xlink:href="#m49b4d6f976" x="90" y="75.803234" style="stroke: #000000; stroke-width: 0.8"/>
      </g>
     </g>
     <g id="text_15">
      <!-- 0.010 -->
      <g transform="translate(54.371875 79.602453) scale(0.1 -0.1)">
       <use xlink:href="#DejaVuSans-30"/>
       <use xlink:href="#DejaVuSans-2e" x="63.623047"/>
       <use xlink:href="#DejaVuSans-30" x="95.410156"/>
       <use xlink:href="#DejaVuSans-31" x="159.033203"/>
       <use xlink:href="#DejaVuSans-30" x="222.65625"/>
      </g>
     </g>
    </g>
    <g id="ytick_7">
     <g id="line2d_17">
      <g>
       <use xlink:href="#m49b4d6f976" x="90" y="52.515881" style="stroke: #000000; stroke-width: 0.8"/>
      </g>
     </g>
     <g id="text_16">
      <!-- 0.012 -->
      <g transform="translate(54.371875 56.315099) scale(0.1 -0.1)">
       <use xlink:href="#DejaVuSans-30"/>
       <use xlink:href="#DejaVuSans-2e" x="63.623047"/>
       <use xlink:href="#DejaVuSans-30" x="95.410156"/>
       <use xlink:href="#DejaVuSans-31" x="159.033203"/>
       <use xlink:href="#DejaVuSans-32" x="222.65625"/>
      </g>
     </g>
    </g>
    <g id="ytick_8">
     <g id="line2d_18">
      <g>
       <use xlink:href="#m49b4d6f976" x="90" y="29.228527" style="stroke: #000000; stroke-width: 0.8"/>
      </g>
     </g>
     <g id="text_17">
      <!-- 0.014 -->
      <g transform="translate(54.371875 33.027746) scale(0.1 -0.1)">
       <use xlink:href="#DejaVuSans-30"/>
       <use xlink:href="#DejaVuSans-2e" x="63.623047"/>
       <use xlink:href="#DejaVuSans-30" x="95.410156"/>
       <use xlink:href="#DejaVuSans-31" x="159.033203"/>
       <use xlink:href="#DejaVuSans-34" x="222.65625"/>
      </g>
     </g>
    </g>
   </g>
  </g>
 </g>
 <defs>
  <clipPath id="pa6be55e66a">
   <rect x="90" y="25.92" width="558" height="166.32"/>
  </clipPath>
 </defs>
</svg>
