<?xml version="1.0" encoding="utf-8" standalone="no"?>
<!DOCTYPE svg PUBLIC "-//W3C//DTD SVG 1.1//EN"
  "http://www.w3.org/Graphics/SVG/1.1/DTD/svg11.dtd">
<svg xmlns:xlink="http://www.w3.org/1999/xlink" width="720pt" height="216pt" viewBox="0 0 720 216" xmlns="http://www.w3.org/2000/svg" version="1.1">
 <metadata>
  <rdf:RDF xmlns:dc="http://purl.org/dc/elements/1.1/" xmlns:cc="http://creativecommons.org/ns#" xmlns:rdf="http://www.w3.org/1999/02/22-rdf-syntax-ns#">
   <cc:Work>
    <dc:type rdf:resource="http://purl.org/dc/dcmitype/StillImage"/>
    <dc:date>2024-11-23T04:42:26.077223</dc:date>
    <dc:format>image/svg+xml</dc:format>
    <dc:creator>
     <cc:Agent>
      <dc:title>Matplotlib v3.7.2, https://matplotlib.org/</dc:title>
     </cc:Agent>
    </dc:creator>
   </cc:Work>
  </rdf:RDF>
 </metadata>
 <defs>
  <style type="text/css">*{stroke-linejoin: round; stroke-linecap: butt}</style>
 </defs>
 <g id="figure_1">
  <g id="patch_1">
   <path d="M 0 216 
L 720 216 
L 720 0 
L 0 0 
z
" style="fill: #ffffff"/>
  </g>
  <g id="axes_1">
   <g id="patch_2">
    <path d="M 90 192.24 
L 648 192.24 
L 648 25.92 
L 90 25.92 
z
" style="fill: #ffffff"/>
   </g>
   <g id="line2d_1">
    <path d="M 90 185.115795 
L 648 185.115795 
" clip-path="url(#p7dc297af4c)" style="fill: none; stroke: #000000; stroke-width: 0.5; stroke-linecap: square"/>
   </g>
   <g id="patch_3">
    <path d="M 102.260459 185.070381 
L 95.453516 185.070381 
L 94.378735 185.115795 
L 90 185.115795 
L 96.253268 184.866497 
L 101.446231 184.866497 
L 107.699499 185.115795 
L 103.324383 185.115795 
L 102.260459 185.070381 
z
M 96.539153 185.024111 
L 101.163965 185.024111 
L 98.855178 184.924948 
L 96.539153 185.024111 
z
" clip-path="url(#p7dc297af4c)" style="fill: #008000"/>
   </g>
   <g id="patch_4">
    <path d="M 90 182.604004 
L 107.699499 182.604004 
L 107.699499 183.045254 
L 101.331796 183.045254 
L 101.331796 184.866497 
L 96.380052 184.866497 
L 96.380052 183.045254 
L 90 183.045254 
L 90 182.604004 
z
" clip-path="url(#p7dc297af4c)" style="fill: #ff0000"/>
   </g>
   <g id="patch_5">
    <path d="M 107.699499 182.057323 
Q 106.218967 182.328301 104.618029 182.465365 
Q 103.017092 182.604004 101.273453 182.604004 
Q 96.073751 182.604004 93.036876 181.576811 
Q 90 180.549617 90 178.79299 
Q 90 177.030061 93.036876 176.004443 
Q 96.073751 174.977249 101.273453 174.977249 
Q 103.017092 174.977249 104.618029 175.115889 
Q 106.218967 175.252953 107.699499 175.52393 
L 107.699499 177.04424 
Q 106.205588 176.685037 104.756272 176.51804 
Q 103.306955 176.351042 101.706018 176.351042 
Q 98.834142 176.351042 97.18861 177.001703 
Q 95.547538 177.650788 95.547538 178.79299 
Q 95.547538 179.930465 97.18861 180.581126 
Q 98.834142 181.230212 101.706018 181.230212 
Q 103.306955 181.230212 104.756272 181.063214 
Q 106.205588 180.894641 107.699499 180.535438 
L 107.699499 182.057323 
z
" clip-path="url(#p7dc297af4c)" style="fill: #0000ff"/>
   </g>
   <g id="patch_6">
    <path d="M 120.89151 183.321573 
L 114.084567 183.321573 
L 113.009787 185.115795 
L 108.631052 185.115795 
L 114.88432 175.266573 
L 120.077283 175.266573 
L 126.330551 185.115795 
L 121.955434 185.115795 
L 120.89151 183.321573 
z
M 115.170204 181.493578 
L 119.795017 181.493578 
L 117.48623 177.575842 
L 115.170204 181.493578 
z
" clip-path="url(#p7dc297af4c)" style="fill: #008000"/>
   </g>
   <g id="patch_7">
    <path d="M 126.330551 174.413612 
Q 124.850018 174.836405 123.249081 175.05026 
Q 121.648144 175.266573 119.904504 175.266573 
Q 114.704803 175.266573 111.667927 173.663892 
Q 108.631052 172.061211 108.631052 169.320429 
Q 108.631052 166.569816 111.667927 164.969593 
Q 114.704803 163.366911 119.904504 163.366911 
Q 121.648144 163.366911 123.249081 163.583224 
Q 124.850018 163.797079 126.330551 164.219872 
L 126.330551 166.591938 
Q 124.83664 166.031492 123.387324 165.770933 
Q 121.938007 165.510374 120.33707 165.510374 
Q 117.465193 165.510374 115.819662 166.52557 
Q 114.178589 167.538307 114.178589 169.320429 
Q 114.178589 171.095177 115.819662 172.110373 
Q 117.465193 173.12311 120.33707 173.12311 
Q 121.938007 173.12311 123.387324 172.862551 
Q 124.83664 172.599535 126.330551 172.039088 
L 126.330551 174.413612 
z
" clip-path="url(#p7dc297af4c)" style="fill: #0000ff"/>
   </g>
   <g id="patch_8">
    <path d="M 108.631052 144.138421 
L 126.330551 144.138421 
L 126.330551 147.888513 
L 119.962847 147.888513 
L 119.962847 163.366911 
L 115.011104 163.366911 
L 115.011104 147.888513 
L 108.631052 147.888513 
L 108.631052 144.138421 
z
" clip-path="url(#p7dc297af4c)" style="fill: #ff0000"/>
   </g>
   <g id="patch_9">
    <path d="M 144.961603 183.17182 
Q 143.176579 184.143808 141.256687 184.63202 
Q 139.336795 185.115795 137.289969 185.115795 
Q 132.664774 185.115795 129.963439 182.222025 
Q 127.262104 179.328255 127.262104 174.379553 
Q 127.262104 169.373153 130.01104 166.501575 
Q 132.763942 163.629996 137.551772 163.629996 
Q 139.396296 163.629996 141.086118 164.020566 
Q 142.779907 164.406698 144.279327 165.170085 
L 144.279327 169.453043 
Q 142.732307 168.472179 141.201153 167.988404 
Q 139.67 167.500192 138.130913 167.500192 
Q 135.282809 167.500192 133.739755 169.284387 
Q 132.196702 171.064145 132.196702 174.379553 
Q 132.196702 177.663893 133.684221 179.456965 
Q 135.171741 181.245599 137.908777 181.245599 
Q 138.65452 181.245599 139.293162 181.143518 
Q 139.931803 181.036999 140.439543 180.815084 
L 140.439543 176.793987 
L 137.524005 176.793987 
L 137.524005 173.212281 
L 144.961603 173.212281 
L 144.961603 183.17182 
z
" clip-path="url(#p7dc297af4c)" style="fill: #ffa600"/>
   </g>
   <g id="patch_10">
    <path d="M 144.961603 159.887401 
Q 143.48107 161.74252 141.880133 162.680865 
Q 140.279195 163.629996 138.535556 163.629996 
Q 133.335855 163.629996 130.298979 156.597799 
Q 127.262104 149.565603 127.262104 137.539683 
Q 127.262104 125.470622 130.298979 118.449211 
Q 133.335855 111.417014 138.535556 111.417014 
Q 140.279195 111.417014 141.880133 112.366145 
Q 143.48107 113.30449 144.961603 115.159609 
L 144.961603 125.567692 
Q 143.467692 123.10858 142.018375 121.965309 
Q 140.569059 120.822038 138.968121 120.822038 
Q 136.096245 120.822038 134.450713 125.276481 
Q 132.809641 129.72014 132.809641 137.539683 
Q 132.809641 145.326871 134.450713 149.781314 
Q 136.096245 154.224972 138.968121 154.224972 
Q 140.569059 154.224972 142.018375 153.081701 
Q 143.467692 151.927644 144.961603 149.468532 
L 144.961603 159.887401 
z
" clip-path="url(#p7dc297af4c)" style="fill: #0000ff"/>
   </g>
   <g id="patch_11">
    <path d="M 163.592654 184.40531 
Q 162.112122 184.757481 160.511185 184.935614 
Q 158.910247 185.115795 157.166608 185.115795 
Q 151.966906 185.115795 148.930031 183.780821 
Q 145.893155 182.445847 145.893155 180.162878 
Q 145.893155 177.871719 148.930031 176.538793 
Q 151.966906 175.203819 157.166608 175.203819 
Q 158.910247 175.203819 160.511185 175.384 
Q 162.112122 175.562133 163.592654 175.914304 
L 163.592654 177.890147 
Q 162.098744 177.423316 160.649427 177.20628 
Q 159.200111 176.989244 157.599173 176.989244 
Q 154.727297 176.989244 153.081765 177.834864 
Q 151.440693 178.678437 151.440693 180.162878 
Q 151.440693 181.641178 153.081765 182.486797 
Q 154.727297 183.33037 157.599173 183.33037 
Q 159.200111 183.33037 160.649427 183.113334 
Q 162.098744 182.894251 163.592654 182.42742 
L 163.592654 184.40531 
z
" clip-path="url(#p7dc297af4c)" style="fill: #0000ff"/>
   </g>
   <g id="patch_12">
    <path d="M 158.153614 173.002982 
L 151.346671 173.002982 
L 150.27189 175.203819 
L 145.893155 175.203819 
L 152.146423 163.122515 
L 157.339386 163.122515 
L 163.592654 175.203819 
L 159.217538 175.203819 
L 158.153614 173.002982 
z
M 152.432308 170.760716 
L 157.057121 170.760716 
L 154.748333 165.955122 
L 152.432308 170.760716 
z
" clip-path="url(#p7dc297af4c)" style="fill: #008000"/>
   </g>
   <g id="patch_13">
    <path d="M 163.592654 162.024117 
Q 161.807631 162.573316 159.887739 162.849169 
Q 157.967847 163.122515 155.92102 163.122515 
Q 151.295826 163.122515 148.594491 161.487457 
Q 145.893155 159.852399 145.893155 157.05625 
Q 145.893155 154.2275 148.642091 152.604981 
Q 151.394994 150.982463 156.182824 150.982463 
Q 158.027348 150.982463 159.71717 151.203145 
Q 161.410959 151.42132 162.910379 151.852654 
L 162.910379 154.27264 
Q 161.363358 153.718426 159.832205 153.44508 
Q 158.301052 153.169227 156.761965 153.169227 
Q 153.913861 153.169227 152.370807 154.177345 
Q 150.827753 155.182956 150.827753 157.05625 
Q 150.827753 158.911991 152.315273 159.925124 
Q 153.802792 160.935751 156.539828 160.935751 
Q 157.285572 160.935751 157.924213 160.878072 
Q 158.562855 160.817886 159.070595 160.692498 
L 159.070595 158.42047 
L 156.155057 158.42047 
L 156.155057 156.39671 
L 163.592654 156.39671 
L 163.592654 162.024117 
z
" clip-path="url(#p7dc297af4c)" style="fill: #ffa600"/>
   </g>
   <g id="patch_14">
    <path d="M 145.893155 138.26734 
L 163.592654 138.26734 
L 163.592654 140.747143 
L 157.224951 140.747143 
L 157.224951 150.982463 
L 152.273207 150.982463 
L 152.273207 140.747143 
L 145.893155 140.747143 
L 145.893155 138.26734 
z
" clip-path="url(#p7dc297af4c)" style="fill: #ff0000"/>
   </g>
   <g id="patch_15">
    <path d="M 176.784666 184.322009 
L 169.977723 184.322009 
L 168.902942 185.115795 
L 164.524207 185.115795 
L 170.777475 180.758377 
L 175.970438 180.758377 
L 182.223706 185.115795 
L 177.84859 185.115795 
L 176.784666 184.322009 
z
M 171.06336 183.513281 
L 175.688172 183.513281 
L 173.379385 181.780026 
L 171.06336 183.513281 
z
" clip-path="url(#p7dc297af4c)" style="fill: #008000"/>
   </g>
   <g id="patch_16">
    <path d="M 182.223706 180.074306 
Q 180.743174 180.413385 179.142236 180.584895 
Q 177.541299 180.758377 175.79766 180.758377 
Q 170.597958 180.758377 167.561083 179.473034 
Q 164.524207 178.187691 164.524207 175.989598 
Q 164.524207 173.783618 167.561083 172.500247 
Q 170.597958 171.214904 175.79766 171.214904 
Q 177.541299 171.214904 179.142236 171.388386 
Q 180.743174 171.559897 182.223706 171.898975 
L 182.223706 173.801361 
Q 180.729795 173.351885 179.280479 173.142918 
Q 177.831162 172.933952 176.230225 172.933952 
Q 173.358349 172.933952 171.712817 173.748133 
Q 170.071745 174.560344 170.071745 175.989598 
Q 170.071745 177.412937 171.712817 178.227119 
Q 173.358349 179.03933 176.230225 179.03933 
Q 177.831162 179.03933 179.280479 178.830363 
Q 180.729795 178.619425 182.223706 178.169949 
L 182.223706 180.074306 
z
" clip-path="url(#p7dc297af4c)" style="fill: #0000ff"/>
   </g>
   <g id="patch_17">
    <path d="M 182.223706 169.713242 
Q 180.438683 170.464073 178.518791 170.841203 
Q 176.598899 171.214904 174.552072 171.214904 
Q 169.926878 171.214904 167.225542 168.979553 
Q 164.524207 166.744202 164.524207 162.921476 
Q 164.524207 159.054181 167.273143 156.835972 
Q 170.026046 154.617763 174.813876 154.617763 
Q 176.6584 154.617763 178.348222 154.919467 
Q 180.042011 155.217742 181.541431 155.807436 
L 181.541431 159.115894 
Q 179.99441 158.358205 178.463257 157.984504 
Q 176.932103 157.607374 175.393016 157.607374 
Q 172.544912 157.607374 171.001859 158.985612 
Q 169.458805 160.360422 169.458805 162.921476 
Q 169.458805 165.458532 170.946325 166.843627 
Q 172.433844 168.225293 175.17088 168.225293 
Q 175.916623 168.225293 176.555265 168.146439 
Q 177.193907 168.064156 177.701647 167.892733 
L 177.701647 164.786555 
L 174.786108 164.786555 
L 174.786108 162.019793 
L 182.223706 162.019793 
L 182.223706 169.713242 
z
" clip-path="url(#p7dc297af4c)" style="fill: #ffa600"/>
   </g>
   <g id="patch_18">
    <path d="M 164.524207 135.860983 
L 182.223706 135.860983 
L 182.223706 139.519077 
L 175.856003 139.519077 
L 175.856003 154.617763 
L 170.904259 154.617763 
L 170.904259 139.519077 
L 164.524207 139.519077 
L 164.524207 135.860983 
z
" clip-path="url(#p7dc297af4c)" style="fill: #ff0000"/>
   </g>
   <g id="patch_19">
    <path d="M 183.155259 183.973366 
L 200.854758 183.973366 
L 200.854758 184.196171 
L 194.487054 184.196171 
L 194.487054 185.115795 
L 189.535311 185.115795 
L 189.535311 184.196171 
L 183.155259 184.196171 
L 183.155259 183.973366 
z
" clip-path="url(#p7dc297af4c)" style="fill: #ff0000"/>
   </g>
   <g id="patch_20">
    <path d="M 195.415717 183.118938 
L 188.608774 183.118938 
L 187.533994 183.973366 
L 183.155259 183.973366 
L 189.408527 179.283062 
L 194.60149 179.283062 
L 200.854758 183.973366 
L 196.479641 183.973366 
L 195.415717 183.118938 
z
M 189.694411 182.248428 
L 194.319224 182.248428 
L 192.010437 180.38276 
L 189.694411 182.248428 
z
" clip-path="url(#p7dc297af4c)" style="fill: #008000"/>
   </g>
   <g id="patch_21">
    <path d="M 200.854758 169.317047 
Q 199.069734 174.300055 197.149843 176.802935 
Q 195.229951 179.283062 193.183124 179.283062 
Q 188.55793 179.283062 185.856594 164.447807 
Q 183.155259 149.612553 183.155259 124.242447 
Q 183.155259 98.576546 185.904195 83.855059 
Q 188.657098 69.133572 193.444927 69.133572 
Q 195.289451 69.133572 196.979274 71.135876 
Q 198.673063 73.115427 200.172482 77.029022 
L 200.172482 98.986109 
Q 198.625462 93.957594 197.094309 91.477467 
Q 195.563155 88.974587 194.024068 88.974587 
Q 191.175964 88.974587 189.632911 98.121477 
Q 188.089857 107.245614 188.089857 124.242447 
Q 188.089857 141.080006 189.577376 150.272403 
Q 191.064896 159.442047 193.801932 159.442047 
Q 194.547675 159.442047 195.186317 158.918717 
Q 195.824959 158.372634 196.332699 157.234961 
L 196.332699 136.620328 
L 193.41716 136.620328 
L 193.41716 118.258288 
L 200.854758 118.258288 
L 200.854758 169.317047 
z
" clip-path="url(#p7dc297af4c)" style="fill: #ffa600"/>
   </g>
   <g id="patch_22">
    <path d="M 214.046769 184.341226 
L 207.239826 184.341226 
L 206.165046 185.115795 
L 201.786311 185.115795 
L 208.039579 180.863865 
L 213.232542 180.863865 
L 219.48581 185.115795 
L 215.110693 185.115795 
L 214.046769 184.341226 
z
M 208.325463 183.552076 
L 212.950276 183.552076 
L 210.641488 181.860781 
L 208.325463 183.552076 
z
" clip-path="url(#p7dc297af4c)" style="fill: #008000"/>
   </g>
   <g id="patch_23">
    <path d="M 219.48581 179.981832 
Q 217.700786 180.422849 215.780894 180.644364 
Q 213.861002 180.863865 211.814176 180.863865 
Q 207.188981 180.863865 204.487646 179.550885 
Q 201.786311 178.237905 201.786311 175.992548 
Q 201.786311 173.721011 204.535247 172.4181 
Q 207.288149 171.115189 212.075979 171.115189 
Q 213.920503 171.115189 215.610325 171.292401 
Q 217.304114 171.467599 218.803534 171.813968 
L 218.803534 173.757259 
Q 217.256514 173.312215 215.72536 173.092714 
Q 214.194207 172.871199 212.65512 172.871199 
Q 209.807016 172.871199 208.263962 173.680736 
Q 206.720909 174.488259 206.720909 175.992548 
Q 206.720909 177.48274 208.208428 178.296304 
Q 209.695948 179.107855 212.432984 179.107855 
Q 213.178727 179.107855 213.817369 179.061538 
Q 214.45601 179.013208 214.96375 178.912519 
L 214.96375 177.08804 
L 212.048212 177.08804 
L 212.048212 175.462925 
L 219.48581 175.462925 
L 219.48581 179.981832 
z
" clip-path="url(#p7dc297af4c)" style="fill: #ffa600"/>
   </g>
   <g id="patch_24">
    <path d="M 219.48581 168.692595 
Q 218.005277 169.893419 216.40434 170.500813 
Q 214.803402 171.115189 213.059763 171.115189 
Q 207.860062 171.115189 204.823186 166.563226 
Q 201.786311 162.011263 201.786311 154.226848 
Q 201.786311 146.414506 204.823186 141.869525 
Q 207.860062 137.317562 213.059763 137.317562 
Q 214.803402 137.317562 216.40434 137.931938 
Q 218.005277 138.539331 219.48581 139.740156 
L 219.48581 146.47734 
Q 217.991899 144.88555 216.542582 144.145506 
Q 215.093266 143.405463 213.492328 143.405463 
Q 210.620452 143.405463 208.97492 146.288839 
Q 207.333848 149.165232 207.333848 154.226848 
Q 207.333848 159.267518 208.97492 162.150893 
Q 210.620452 165.027287 213.492328 165.027287 
Q 215.093266 165.027287 216.542582 164.287244 
Q 217.991899 163.54022 219.48581 161.948429 
L 219.48581 168.692595 
z
" clip-path="url(#p7dc297af4c)" style="fill: #0000ff"/>
   </g>
   <g id="patch_25">
    <path d="M 201.786311 103.048678 
L 219.48581 103.048678 
L 219.48581 109.732065 
L 213.118106 109.732065 
L 213.118106 137.317562 
L 208.166363 137.317562 
L 208.166363 109.732065 
L 201.786311 109.732065 
L 201.786311 103.048678 
z
" clip-path="url(#p7dc297af4c)" style="fill: #ff0000"/>
   </g>
   <g id="patch_26">
    <path d="M 220.417362 175.93809 
L 238.116861 175.93809 
L 238.116861 177.727998 
L 231.749158 177.727998 
L 231.749158 185.115795 
L 226.797414 185.115795 
L 226.797414 177.727998 
L 220.417362 177.727998 
L 220.417362 175.93809 
z
" clip-path="url(#p7dc297af4c)" style="fill: #ff0000"/>
   </g>
   <g id="patch_27">
    <path d="M 238.116861 174.250108 
Q 236.331838 175.094099 234.411946 175.518021 
Q 232.492054 175.93809 230.445227 175.93809 
Q 225.820033 175.93809 223.118698 173.425386 
Q 220.417362 170.912683 220.417362 166.615651 
Q 220.417362 162.26852 223.166298 159.775086 
Q 225.919201 157.281651 230.707031 157.281651 
Q 232.551555 157.281651 234.241377 157.620789 
Q 235.935166 157.956073 237.434586 158.618934 
L 237.434586 162.337889 
Q 235.887565 161.486191 234.356412 161.066122 
Q 232.825259 160.6422 231.286172 160.6422 
Q 228.438068 160.6422 226.895014 162.191443 
Q 225.35196 163.736833 225.35196 166.615651 
Q 225.35196 169.467493 226.83948 171.024444 
Q 228.327 172.577542 231.064035 172.577542 
Q 231.809779 172.577542 232.44842 172.488903 
Q 233.087062 172.396411 233.594802 172.203719 
L 233.594802 168.71214 
L 230.679264 168.71214 
L 230.679264 165.602092 
L 238.116861 165.602092 
L 238.116861 174.250108 
z
" clip-path="url(#p7dc297af4c)" style="fill: #ffa600"/>
   </g>
   <g id="patch_28">
    <path d="M 238.116861 155.225269 
Q 236.636329 156.244571 235.035392 156.760148 
Q 233.434454 157.281651 231.690815 157.281651 
Q 226.491113 157.281651 223.454238 153.417785 
Q 220.417362 149.553919 220.417362 142.946234 
Q 220.417362 136.314843 223.454238 132.456903 
Q 226.491113 128.593037 231.690815 128.593037 
Q 233.434454 128.593037 235.035392 129.114541 
Q 236.636329 129.630118 238.116861 130.64942 
L 238.116861 136.368179 
Q 236.622951 135.017011 235.173634 134.388836 
Q 233.724318 133.760662 232.12338 133.760662 
Q 229.251504 133.760662 227.605972 136.208172 
Q 225.9649 138.649756 225.9649 142.946234 
Q 225.9649 147.224932 227.605972 149.672442 
Q 229.251504 152.114027 232.12338 152.114027 
Q 233.724318 152.114027 235.173634 151.485852 
Q 236.622951 150.851751 238.116861 149.500583 
L 238.116861 155.225269 
z
" clip-path="url(#p7dc297af4c)" style="fill: #0000ff"/>
   </g>
   <g id="patch_29">
    <path d="M 251.308873 184.204778 
L 244.50193 184.204778 
L 243.427149 185.115795 
L 239.048414 185.115795 
L 245.301682 180.114849 
L 250.494645 180.114849 
L 256.747913 185.115795 
L 252.372797 185.115795 
L 251.308873 184.204778 
z
M 245.587567 183.276613 
L 250.212379 183.276613 
L 247.903592 181.287381 
L 245.587567 183.276613 
z
" clip-path="url(#p7dc297af4c)" style="fill: #008000"/>
   </g>
   <g id="patch_30">
    <path d="M 239.048414 170.865226 
L 256.747913 170.865226 
L 256.747913 172.66916 
L 250.38021 172.66916 
L 250.38021 180.114849 
L 245.428466 180.114849 
L 245.428466 172.66916 
L 239.048414 172.66916 
L 239.048414 170.865226 
z
" clip-path="url(#p7dc297af4c)" style="fill: #ff0000"/>
   </g>
   <g id="patch_31">
    <path d="M 256.747913 169.261953 
Q 255.267381 170.056659 253.666443 170.458632 
Q 252.065506 170.865226 250.321867 170.865226 
Q 245.122165 170.865226 242.08529 167.852737 
Q 239.048414 164.840247 239.048414 159.688521 
Q 239.048414 154.518314 242.08529 151.510445 
Q 245.122165 148.497956 250.321867 148.497956 
Q 252.065506 148.497956 253.666443 148.904549 
Q 255.267381 149.306523 256.747913 150.101228 
L 256.747913 154.559897 
Q 255.254002 153.50645 253.804686 153.01669 
Q 252.355369 152.526929 250.754432 152.526929 
Q 247.882556 152.526929 246.237024 154.435147 
Q 244.595952 156.338744 244.595952 159.688521 
Q 244.595952 163.024437 246.237024 164.932655 
Q 247.882556 166.836253 250.754432 166.836253 
Q 252.355369 166.836253 253.804686 166.346492 
Q 255.254002 165.852111 256.747913 164.798664 
L 256.747913 169.261953 
z
" clip-path="url(#p7dc297af4c)" style="fill: #0000ff"/>
   </g>
   <g id="patch_32">
    <path d="M 256.747913 145.979277 
Q 254.96289 147.238616 253.042998 147.871161 
Q 251.123106 148.497956 249.076279 148.497956 
Q 244.451085 148.497956 241.74975 144.74869 
Q 239.048414 140.999424 239.048414 134.587719 
Q 239.048414 128.101259 241.79735 124.380745 
Q 244.550253 120.660231 249.338083 120.660231 
Q 251.182607 120.660231 252.872429 121.166266 
Q 254.566218 121.666552 256.065638 122.655622 
L 256.065638 128.204766 
Q 254.518617 126.933926 252.987464 126.307131 
Q 251.45631 125.674586 249.917223 125.674586 
Q 247.069119 125.674586 245.526066 127.98625 
Q 243.983012 130.292164 243.983012 134.587719 
Q 243.983012 138.843021 245.470532 141.166186 
Q 246.958051 143.4836 249.695087 143.4836 
Q 250.44083 143.4836 251.079472 143.351341 
Q 251.718114 143.213331 252.225854 142.92581 
L 252.225854 137.715941 
L 249.310315 137.715941 
L 249.310315 133.075361 
L 256.747913 133.075361 
L 256.747913 145.979277 
z
" clip-path="url(#p7dc297af4c)" style="fill: #ffa600"/>
   </g>
   <g id="patch_33">
    <path d="M 275.378965 182.634439 
Q 273.898432 183.864391 272.297495 184.486517 
Q 270.696558 185.115795 268.952919 185.115795 
Q 263.753217 185.115795 260.716341 180.45342 
Q 257.679466 175.791046 257.679466 167.817813 
Q 257.679466 159.815977 260.716341 155.160754 
Q 263.753217 150.498379 268.952919 150.498379 
Q 270.696558 150.498379 272.297495 151.127657 
Q 273.898432 151.749783 275.378965 152.979735 
L 275.378965 159.880335 
Q 273.885054 158.249934 272.435738 157.491941 
Q 270.986421 156.733947 269.385484 156.733947 
Q 266.513607 156.733947 264.868076 159.687261 
Q 263.227003 162.633424 263.227003 167.817813 
Q 263.227003 172.980749 264.868076 175.934063 
Q 266.513607 178.880226 269.385484 178.880226 
Q 270.986421 178.880226 272.435738 178.122233 
Q 273.885054 177.357089 275.378965 175.726688 
L 275.378965 182.634439 
z
" clip-path="url(#p7dc297af4c)" style="fill: #0000ff"/>
   </g>
   <g id="patch_34">
    <path d="M 288.570976 184.977671 
L 281.764033 184.977671 
L 280.689253 185.115795 
L 276.310518 185.115795 
L 282.563786 184.357575 
L 287.756749 184.357575 
L 294.010017 185.115795 
L 289.6349 185.115795 
L 288.570976 184.977671 
z
M 282.84967 184.836947 
L 287.474483 184.836947 
L 285.165695 184.535349 
L 282.84967 184.836947 
z
" clip-path="url(#p7dc297af4c)" style="fill: #008000"/>
   </g>
   <g id="patch_35">
    <path d="M 294.010017 183.737841 
Q 292.529484 184.045029 290.928547 184.200409 
Q 289.32761 184.357575 287.58397 184.357575 
Q 282.384269 184.357575 279.347393 183.193119 
Q 276.310518 182.028662 276.310518 180.037298 
Q 276.310518 178.038791 279.347393 176.87612 
Q 282.384269 175.711663 287.58397 175.711663 
Q 289.32761 175.711663 290.928547 175.868829 
Q 292.529484 176.024209 294.010017 176.331397 
L 294.010017 178.054864 
Q 292.516106 177.647662 291.066789 177.458348 
Q 289.617473 177.269035 288.016535 177.269035 
Q 285.144659 177.269035 283.499127 178.006643 
Q 281.858055 178.742465 281.858055 180.037298 
Q 281.858055 181.326773 283.499127 182.064381 
Q 285.144659 182.800204 288.016535 182.800204 
Q 289.617473 182.800204 291.066789 182.61089 
Q 292.516106 182.419791 294.010017 182.012588 
L 294.010017 183.737841 
z
" clip-path="url(#p7dc297af4c)" style="fill: #0000ff"/>
   </g>
   <g id="patch_36">
    <path d="M 294.010017 173.300537 
Q 292.224993 174.5061 290.305101 175.111634 
Q 288.385209 175.711663 286.338383 175.711663 
Q 281.713188 175.711663 279.011853 172.122498 
Q 276.310518 168.533333 276.310518 162.39542 
Q 276.310518 156.185944 279.059454 152.624303 
Q 281.812356 149.062662 286.600186 149.062662 
Q 288.44471 149.062662 290.134532 149.54709 
Q 291.828321 150.026012 293.327741 150.972847 
L 293.327741 156.285032 
Q 291.780721 155.068459 290.249567 154.46843 
Q 288.718414 153.862896 287.179327 153.862896 
Q 284.331223 153.862896 282.788169 156.075847 
Q 281.245116 158.283294 281.245116 162.39542 
Q 281.245116 166.469013 282.732635 168.692974 
Q 284.220155 170.91143 286.957191 170.91143 
Q 287.702934 170.91143 288.341576 170.784819 
Q 288.980217 170.652702 289.487957 170.377459 
L 289.487957 165.390061 
L 286.572419 165.390061 
L 286.572419 160.947643 
L 294.010017 160.947643 
L 294.010017 173.300537 
z
" clip-path="url(#p7dc297af4c)" style="fill: #ffa600"/>
   </g>
   <g id="patch_37">
    <path d="M 276.310518 116.827117 
L 294.010017 116.827117 
L 294.010017 123.113947 
L 287.642313 123.113947 
L 287.642313 149.062662 
L 282.69057 149.062662 
L 282.69057 123.113947 
L 276.310518 123.113947 
L 276.310518 116.827117 
z
" clip-path="url(#p7dc297af4c)" style="fill: #ff0000"/>
   </g>
   <g id="patch_38">
    <path d="M 312.641068 185.00064 
Q 311.160536 185.05772 309.559599 185.086591 
Q 307.958661 185.115795 306.215022 185.115795 
Q 301.01532 185.115795 297.978445 184.899424 
Q 294.941569 184.683053 294.941569 184.313033 
Q 294.941569 183.941685 297.978445 183.725646 
Q 301.01532 183.509275 306.215022 183.509275 
Q 307.958661 183.509275 309.559599 183.538478 
Q 311.160536 183.56735 312.641068 183.624429 
L 312.641068 183.944671 
Q 311.147158 183.869008 309.697841 183.833831 
Q 308.248525 183.798654 306.647587 183.798654 
Q 303.775711 183.798654 302.130179 183.935711 
Q 300.489107 184.072436 300.489107 184.313033 
Q 300.489107 184.552633 302.130179 184.68969 
Q 303.775711 184.826415 306.647587 184.826415 
Q 308.248525 184.826415 309.697841 184.791239 
Q 311.147158 184.75573 312.641068 184.680067 
L 312.641068 185.00064 
z
" clip-path="url(#p7dc297af4c)" style="fill: #0000ff"/>
   </g>
   <g id="patch_39">
    <path d="M 312.641068 176.826763 
Q 310.856045 180.168019 308.936153 181.846275 
Q 307.016261 183.509275 304.969434 183.509275 
Q 300.34424 183.509275 297.642905 173.561791 
Q 294.941569 163.614308 294.941569 146.602891 
Q 294.941569 129.393134 297.690505 119.521935 
Q 300.443408 109.650736 305.231238 109.650736 
Q 307.075762 109.650736 308.765584 110.993341 
Q 310.459373 112.320689 311.958793 114.944872 
L 311.958793 129.667758 
Q 310.411772 126.295988 308.880619 124.632989 
Q 307.349466 122.954732 305.810379 122.954732 
Q 302.962275 122.954732 301.419221 129.087997 
Q 299.876167 135.206004 299.876167 146.602891 
Q 299.876167 157.892979 301.363687 164.056757 
Q 302.851207 170.205279 305.588242 170.205279 
Q 306.333986 170.205279 306.972627 169.85437 
Q 307.611269 169.488205 308.119009 168.725362 
L 308.119009 154.902631 
L 305.203471 154.902631 
L 305.203471 142.590332 
L 312.641068 142.590332 
L 312.641068 176.826763 
z
" clip-path="url(#p7dc297af4c)" style="fill: #ffa600"/>
   </g>
   <g id="patch_40">
    <path d="M 331.27212 175.996793 
Q 329.791588 180.516875 328.19065 182.803195 
Q 326.589713 185.115795 324.846074 185.115795 
Q 319.646372 185.115795 316.609497 167.981532 
Q 313.572621 150.847269 313.572621 121.545576 
Q 313.572621 92.138766 316.609497 75.030782 
Q 319.646372 57.896519 324.846074 57.896519 
Q 326.589713 57.896519 328.19065 60.209119 
Q 329.791588 62.495439 331.27212 67.015521 
L 331.27212 92.375282 
Q 329.778209 86.383545 328.328893 83.597914 
Q 326.879576 80.812282 325.278639 80.812282 
Q 322.406763 80.812282 320.761231 91.665734 
Q 319.120159 102.492906 319.120159 121.545576 
Q 319.120159 140.519407 320.761231 151.372859 
Q 322.406763 162.200032 325.278639 162.200032 
Q 326.879576 162.200032 328.328893 159.4144 
Q 329.778209 156.602489 331.27212 150.610753 
L 331.27212 175.996793 
z
" clip-path="url(#p7dc297af4c)" style="fill: #0000ff"/>
   </g>
   <g id="patch_41">
    <path d="M 344.464131 184.512368 
L 337.657188 184.512368 
L 336.582408 185.115795 
L 332.203673 185.115795 
L 338.456941 181.803337 
L 343.649904 181.803337 
L 349.903172 185.115795 
L 345.528056 185.115795 
L 344.464131 184.512368 
z
M 338.742825 183.897583 
L 343.367638 183.897583 
L 341.058851 182.579983 
L 338.742825 183.897583 
z
" clip-path="url(#p7dc297af4c)" style="fill: #008000"/>
   </g>
   <g id="patch_42">
    <path d="M 349.903172 181.409533 
Q 348.118149 181.606435 346.198257 181.705336 
Q 344.278365 181.803337 342.231538 181.803337 
Q 337.606344 181.803337 334.905008 181.217127 
Q 332.203673 180.630916 332.203673 179.628424 
Q 332.203673 178.614244 334.952609 178.032528 
Q 337.705512 177.450813 342.493341 177.450813 
Q 344.337866 177.450813 346.027688 177.529934 
Q 347.721477 177.608155 349.220896 177.7628 
L 349.220896 178.630427 
Q 347.673876 178.431727 346.142723 178.333726 
Q 344.611569 178.234825 343.072482 178.234825 
Q 340.224378 178.234825 338.681325 178.596262 
Q 337.138271 178.956799 337.138271 179.628424 
Q 337.138271 180.293755 338.62579 180.65699 
Q 340.11331 181.019325 342.850346 181.019325 
Q 343.596089 181.019325 344.234731 180.998646 
Q 344.873373 180.977068 345.381113 180.932113 
L 345.381113 180.117532 
L 342.465574 180.117532 
L 342.465574 179.391962 
L 349.903172 179.391962 
L 349.903172 181.409533 
z
" clip-path="url(#p7dc297af4c)" style="fill: #ffa600"/>
   </g>
   <g id="patch_43">
    <path d="M 332.203673 170.918399 
L 349.903172 170.918399 
L 349.903172 172.192401 
L 343.535468 172.192401 
L 343.535468 177.450813 
L 338.583725 177.450813 
L 338.583725 172.192401 
L 332.203673 172.192401 
L 332.203673 170.918399 
z
" clip-path="url(#p7dc297af4c)" style="fill: #ff0000"/>
   </g>
   <g id="patch_44">
    <path d="M 349.903172 169.440889 
Q 348.422639 170.173257 346.821702 170.543699 
Q 345.220765 170.918399 343.477126 170.918399 
Q 338.277424 170.918399 335.240548 168.142213 
Q 332.203673 165.366026 332.203673 160.618408 
Q 332.203673 155.853757 335.240548 153.081829 
Q 338.277424 150.305643 343.477126 150.305643 
Q 345.220765 150.305643 346.821702 150.680343 
Q 348.422639 151.050785 349.903172 151.783153 
L 349.903172 155.892079 
Q 348.409261 154.921265 346.959945 154.469922 
Q 345.510628 154.018579 343.909691 154.018579 
Q 341.037814 154.018579 339.392283 155.777114 
Q 337.75121 157.531391 337.75121 160.618408 
Q 337.75121 163.692651 339.392283 165.451186 
Q 341.037814 167.205463 343.909691 167.205463 
Q 345.510628 167.205463 346.959945 166.75412 
Q 348.409261 166.298518 349.903172 165.327705 
L 349.903172 169.440889 
z
" clip-path="url(#p7dc297af4c)" style="fill: #0000ff"/>
   </g>
   <g id="patch_45">
    <path d="M 368.534224 175.196972 
Q 366.7492 180.156383 364.829308 182.647412 
Q 362.909416 185.115795 360.86259 185.115795 
Q 356.237396 185.115795 353.53606 170.350788 
Q 350.834725 155.585782 350.834725 130.335809 
Q 350.834725 104.791442 353.583661 90.139665 
Q 356.336563 75.487887 361.124393 75.487887 
Q 362.968917 75.487887 364.658739 77.48071 
Q 366.352528 79.450887 367.851948 83.34595 
L 367.851948 105.199065 
Q 366.304928 100.194362 364.773774 97.725979 
Q 363.242621 95.234951 361.703534 95.234951 
Q 358.85543 95.234951 357.312376 104.338528 
Q 355.769323 113.41946 355.769323 130.335809 
Q 355.769323 147.093639 357.256842 156.242508 
Q 358.744362 165.368731 361.481398 165.368731 
Q 362.227141 165.368731 362.865783 164.84788 
Q 363.504424 164.304382 364.012164 163.172097 
L 364.012164 142.655079 
L 361.096626 142.655079 
L 361.096626 124.379986 
L 368.534224 124.379986 
L 368.534224 175.196972 
z
" clip-path="url(#p7dc297af4c)" style="fill: #ffa600"/>
   </g>
   <g id="patch_46">
    <path d="M 381.726235 183.322174 
L 374.919292 183.322174 
L 373.844512 185.115795 
L 369.465776 185.115795 
L 375.719044 175.269872 
L 380.912007 175.269872 
L 387.165275 185.115795 
L 382.790159 185.115795 
L 381.726235 183.322174 
z
M 376.004929 181.494791 
L 380.629742 181.494791 
L 378.320954 177.578367 
L 376.004929 181.494791 
z
" clip-path="url(#p7dc297af4c)" style="fill: #008000"/>
   </g>
   <g id="patch_47">
    <path d="M 387.165275 174.202669 
Q 385.380252 174.73627 383.46036 175.004289 
Q 381.540468 175.269872 379.493641 175.269872 
Q 374.868447 175.269872 372.167112 173.681251 
Q 369.465776 172.09263 369.465776 169.375893 
Q 369.465776 166.627481 372.214712 165.051043 
Q 374.967615 163.474605 379.755445 163.474605 
Q 381.599969 163.474605 383.289791 163.68902 
Q 384.98358 163.900999 386.483 164.320083 
L 386.483 166.671339 
Q 384.93598 166.132865 383.404826 165.867282 
Q 381.873673 165.599264 380.334586 165.599264 
Q 377.486482 165.599264 375.943428 166.578751 
Q 374.400374 167.555801 374.400374 169.375893 
Q 374.400374 171.178929 375.887894 172.163289 
Q 377.375414 173.145213 380.112449 173.145213 
Q 380.858193 173.145213 381.496834 173.089173 
Q 382.135476 173.030696 382.643216 172.908869 
L 382.643216 170.701368 
L 379.727678 170.701368 
L 379.727678 168.735084 
L 387.165275 168.735084 
L 387.165275 174.202669 
z
" clip-path="url(#p7dc297af4c)" style="fill: #ffa600"/>
   </g>
   <g id="patch_48">
    <path d="M 387.165275 160.633665 
Q 385.684743 162.041854 384.083806 162.754136 
Q 382.482868 163.474605 380.739229 163.474605 
Q 375.539527 163.474605 372.502652 158.136585 
Q 369.465776 152.798566 369.465776 143.669897 
Q 369.465776 134.50848 372.502652 129.178647 
Q 375.539527 123.840628 380.739229 123.840628 
Q 382.482868 123.840628 384.083806 124.561097 
Q 385.684743 125.273378 387.165275 126.681568 
L 387.165275 134.582164 
Q 385.671365 132.715495 384.222048 131.847657 
Q 382.772732 130.97982 381.171794 130.97982 
Q 378.299918 130.97982 376.654386 134.361111 
Q 375.013314 137.734216 375.013314 143.669897 
Q 375.013314 149.581017 376.654386 152.962309 
Q 378.299918 156.335413 381.171794 156.335413 
Q 382.772732 156.335413 384.222048 155.467575 
Q 385.671365 154.591551 387.165275 152.724881 
L 387.165275 160.633665 
z
" clip-path="url(#p7dc297af4c)" style="fill: #0000ff"/>
   </g>
   <g id="patch_49">
    <path d="M 405.796327 175.029794 
Q 404.011304 180.072794 402.091412 182.605808 
Q 400.17152 185.115795 398.124693 185.115795 
Q 393.499499 185.115795 390.798164 170.10193 
Q 388.096828 155.088066 388.096828 129.412515 
Q 388.096828 103.437608 390.845764 88.538881 
Q 393.598667 73.640153 398.386497 73.640153 
Q 400.231021 73.640153 401.920843 75.666564 
Q 403.614632 77.669948 405.114052 81.630661 
L 405.114052 103.852102 
Q 403.567031 98.763046 402.035878 96.25306 
Q 400.504724 93.720046 398.965637 93.720046 
Q 396.117533 93.720046 394.57448 102.97706 
Q 393.031426 112.211048 393.031426 129.412515 
Q 393.031426 146.452791 394.518946 155.75586 
Q 396.006465 165.035902 398.743501 165.035902 
Q 399.489244 165.035902 400.127886 164.506272 
Q 400.766528 163.953615 401.274268 162.802245 
L 401.274268 141.939421 
L 398.35873 141.939421 
L 398.35873 123.356309 
L 405.796327 123.356309 
L 405.796327 175.029794 
z
" clip-path="url(#p7dc297af4c)" style="fill: #ffa600"/>
   </g>
   <g id="patch_50">
    <path d="M 418.988338 184.885377 
L 412.181395 184.885377 
L 411.106615 185.115795 
L 406.72788 185.115795 
L 412.981148 183.850935 
L 418.174111 183.850935 
L 424.427379 185.115795 
L 420.052263 185.115795 
L 418.988338 184.885377 
z
M 413.267032 184.650621 
L 417.891845 184.650621 
L 415.583058 184.147496 
L 413.267032 184.650621 
z
" clip-path="url(#p7dc297af4c)" style="fill: #008000"/>
   </g>
   <g id="patch_51">
    <path d="M 424.427379 180.765882 
Q 422.946846 182.295072 421.345909 183.068558 
Q 419.744972 183.850935 418.001333 183.850935 
Q 412.801631 183.850935 409.764755 178.054236 
Q 406.72788 172.257538 406.72788 162.344472 
Q 406.72788 152.395844 409.764755 146.608036 
Q 412.801631 140.811338 418.001333 140.811338 
Q 419.744972 140.811338 421.345909 141.593715 
Q 422.946846 142.3672 424.427379 143.896391 
L 424.427379 152.47586 
Q 422.933468 150.448794 421.484152 149.506386 
Q 420.034835 148.563978 418.433898 148.563978 
Q 415.562021 148.563978 413.91649 152.235813 
Q 412.275417 155.898757 412.275417 162.344472 
Q 412.275417 168.763516 413.91649 172.435351 
Q 415.562021 176.098295 418.433898 176.098295 
Q 420.034835 176.098295 421.484152 175.155887 
Q 422.933468 174.204588 424.427379 172.177522 
L 424.427379 180.765882 
z
" clip-path="url(#p7dc297af4c)" style="fill: #0000ff"/>
   </g>
   <g id="patch_52">
    <path d="M 443.058431 184.955631 
Q 441.577898 185.035021 439.976961 185.075177 
Q 438.376024 185.115795 436.632384 185.115795 
Q 431.432683 185.115795 428.395807 184.814853 
Q 425.358932 184.513912 425.358932 183.999265 
Q 425.358932 183.482771 428.395807 183.182291 
Q 431.432683 182.88135 436.632384 182.88135 
Q 438.376024 182.88135 439.976961 182.921968 
Q 441.577898 182.962124 443.058431 183.041514 
L 443.058431 183.486926 
Q 441.56452 183.381688 440.115203 183.332762 
Q 438.665887 183.283836 437.06495 183.283836 
Q 434.193073 183.283836 432.547541 183.474463 
Q 430.906469 183.664629 430.906469 183.999265 
Q 430.906469 184.332516 432.547541 184.523143 
Q 434.193073 184.713309 437.06495 184.713309 
Q 438.665887 184.713309 440.115203 184.664382 
Q 441.56452 184.614995 443.058431 184.509758 
L 443.058431 184.955631 
z
" clip-path="url(#p7dc297af4c)" style="fill: #0000ff"/>
   </g>
   <g id="patch_53">
    <path d="M 437.61939 182.232344 
L 430.812447 182.232344 
L 429.737667 182.88135 
L 425.358932 182.88135 
L 431.6122 179.318688 
L 436.805163 179.318688 
L 443.058431 182.88135 
L 438.683314 182.88135 
L 437.61939 182.232344 
z
M 431.898084 181.571121 
L 436.522897 181.571121 
L 434.214109 180.153997 
L 431.898084 181.571121 
z
" clip-path="url(#p7dc297af4c)" style="fill: #008000"/>
   </g>
   <g id="patch_54">
    <path d="M 443.058431 176.934695 
Q 441.273407 178.126691 439.353515 178.725411 
Q 437.433623 179.318688 435.386797 179.318688 
Q 430.761603 179.318688 428.060267 175.769913 
Q 425.358932 172.221139 425.358932 166.1523 
Q 425.358932 160.012703 428.107868 156.491143 
Q 430.86077 152.969584 435.6486 152.969584 
Q 437.493124 152.969584 439.182946 153.448559 
Q 440.876735 153.922092 442.376155 154.858272 
L 442.376155 160.110675 
Q 440.829135 158.907793 439.297981 158.314516 
Q 437.766828 157.715797 436.227741 157.715797 
Q 433.379637 157.715797 431.836583 159.903845 
Q 430.29353 162.08645 430.29353 166.1523 
Q 430.29353 170.18005 431.781049 172.378983 
Q 433.268569 174.572474 436.005605 174.572474 
Q 436.751348 174.572474 437.38999 174.447287 
Q 438.028631 174.316658 438.536371 174.044512 
L 438.536371 169.11324 
L 435.620833 169.11324 
L 435.620833 164.720816 
L 443.058431 164.720816 
L 443.058431 176.934695 
z
" clip-path="url(#p7dc297af4c)" style="fill: #ffa600"/>
   </g>
   <g id="patch_55">
    <path d="M 456.250442 185.034943 
L 449.443499 185.034943 
L 448.368719 185.115795 
L 443.989983 185.115795 
L 450.243251 184.671967 
L 455.436214 184.671967 
L 461.689482 185.115795 
L 457.314366 185.115795 
L 456.250442 185.034943 
z
M 450.529136 184.95257 
L 455.153949 184.95257 
L 452.845161 184.776027 
L 450.529136 184.95257 
z
" clip-path="url(#p7dc297af4c)" style="fill: #008000"/>
   </g>
   <g id="patch_56">
    <path d="M 461.689482 182.724428 
Q 459.904459 183.698197 457.984567 184.187305 
Q 456.064675 184.671967 454.017848 184.671967 
Q 449.392654 184.671967 446.691319 181.772891 
Q 443.989983 178.873816 443.989983 173.916041 
Q 443.989983 168.900462 446.738919 166.023619 
Q 449.491822 163.146776 454.279652 163.146776 
Q 456.124176 163.146776 457.813998 163.538062 
Q 459.507787 163.924902 461.007207 164.689689 
L 461.007207 168.980498 
Q 459.460187 167.997836 457.929033 167.513175 
Q 456.39788 167.024067 454.858793 167.024067 
Q 452.010689 167.024067 450.467635 168.811534 
Q 448.924581 170.594554 448.924581 173.916041 
Q 448.924581 177.206403 450.412101 179.002762 
Q 451.899621 180.794675 454.636656 180.794675 
Q 455.3824 180.794675 456.021041 180.692407 
Q 456.659683 180.585693 457.167423 180.363371 
L 457.167423 176.334901 
L 454.251885 176.334901 
L 454.251885 172.746629 
L 461.689482 172.746629 
L 461.689482 182.724428 
z
" clip-path="url(#p7dc297af4c)" style="fill: #ffa600"/>
   </g>
   <g id="patch_57">
    <path d="M 461.689482 161.166987 
Q 460.20895 162.148323 458.608013 162.644697 
Q 457.007075 163.146776 455.263436 163.146776 
Q 450.063734 163.146776 447.026859 159.426827 
Q 443.989983 155.706878 443.989983 149.34531 
Q 443.989983 142.960919 447.026859 139.246676 
Q 450.063734 135.526727 455.263436 135.526727 
Q 457.007075 135.526727 458.608013 136.028806 
Q 460.20895 136.52518 461.689482 137.506516 
L 461.689482 143.012268 
Q 460.195572 141.711427 458.746255 141.10665 
Q 457.296939 140.501873 455.696001 140.501873 
Q 452.824125 140.501873 451.178593 142.858221 
Q 449.537521 145.208864 449.537521 149.34531 
Q 449.537521 153.464639 451.178593 155.820987 
Q 452.824125 158.17163 455.696001 158.17163 
Q 457.296939 158.17163 458.746255 157.566853 
Q 460.195572 156.95637 461.689482 155.655529 
L 461.689482 161.166987 
z
" clip-path="url(#p7dc297af4c)" style="fill: #0000ff"/>
   </g>
   <g id="patch_58">
    <path d="M 474.881494 184.466992 
L 468.074551 184.466992 
L 466.99977 185.115795 
L 462.621035 185.115795 
L 468.874303 181.554249 
L 474.067266 181.554249 
L 480.320534 185.115795 
L 475.945418 185.115795 
L 474.881494 184.466992 
z
M 469.160188 183.805977 
L 473.785 183.805977 
L 471.476213 182.389297 
L 469.160188 183.805977 
z
" clip-path="url(#p7dc297af4c)" style="fill: #008000"/>
   </g>
   <g id="patch_59">
    <path d="M 462.621035 172.712796 
L 480.320534 172.712796 
L 480.320534 174.437126 
L 473.952831 174.437126 
L 473.952831 181.554249 
L 469.001087 181.554249 
L 469.001087 174.437126 
L 462.621035 174.437126 
L 462.621035 172.712796 
z
" clip-path="url(#p7dc297af4c)" style="fill: #ff0000"/>
   </g>
   <g id="patch_60">
    <path d="M 480.320534 171.020532 
Q 478.535511 171.866664 476.615619 172.291662 
Q 474.695727 172.712796 472.6489 172.712796 
Q 468.023706 172.712796 465.322371 170.193718 
Q 462.621035 167.67464 462.621035 163.366708 
Q 462.621035 159.008548 465.369971 156.508788 
Q 468.122874 154.009028 472.910704 154.009028 
Q 474.755228 154.009028 476.44505 154.349027 
Q 478.138839 154.685161 479.638259 155.349703 
L 479.638259 159.078093 
Q 478.091238 158.224234 476.560085 157.8031 
Q 475.028931 157.378102 473.489844 157.378102 
Q 470.64174 157.378102 469.098687 158.931276 
Q 467.555633 160.480586 467.555633 163.366708 
Q 467.555633 166.225784 469.043153 167.786685 
Q 470.530672 169.343723 473.267708 169.343723 
Q 474.013451 169.343723 474.652093 169.254859 
Q 475.290735 169.162133 475.798475 168.968952 
L 475.798475 165.468515 
L 472.882937 165.468515 
L 472.882937 162.350577 
L 480.320534 162.350577 
L 480.320534 171.020532 
z
" clip-path="url(#p7dc297af4c)" style="fill: #ffa600"/>
   </g>
   <g id="patch_61">
    <path d="M 480.320534 152.468626 
Q 478.840002 153.232168 477.239064 153.618379 
Q 475.638127 154.009028 473.894488 154.009028 
Q 468.694786 154.009028 465.657911 151.11467 
Q 462.621035 148.220312 462.621035 143.270605 
Q 462.621035 138.30314 465.657911 135.413221 
Q 468.694786 132.518863 473.894488 132.518863 
Q 475.638127 132.518863 477.239064 132.909513 
Q 478.840002 133.295723 480.320534 134.059265 
L 480.320534 138.343093 
Q 478.826623 137.330956 477.377307 136.8604 
Q 475.92799 136.389845 474.327053 136.389845 
Q 471.455177 136.389845 469.809645 138.223235 
Q 468.168573 140.052185 468.168573 143.270605 
Q 468.168573 146.475707 469.809645 148.309096 
Q 471.455177 150.138046 474.327053 150.138046 
Q 475.92799 150.138046 477.377307 149.667491 
Q 478.826623 149.192497 480.320534 148.180359 
L 480.320534 152.468626 
z
" clip-path="url(#p7dc297af4c)" style="fill: #0000ff"/>
   </g>
   <g id="patch_62">
    <path d="M 498.951586 184.93 
Q 497.471053 185.022094 495.870116 185.068677 
Q 494.269179 185.115795 492.52554 185.115795 
Q 487.325838 185.115795 484.288962 184.766693 
Q 481.252087 184.417591 481.252087 183.820584 
Q 481.252087 183.221434 484.288962 182.872868 
Q 487.325838 182.523766 492.52554 182.523766 
Q 494.269179 182.523766 495.870116 182.570884 
Q 497.471053 182.617467 498.951586 182.709561 
L 498.951586 183.226253 
Q 497.457675 183.104175 496.008359 183.047419 
Q 494.559042 182.990663 492.958105 182.990663 
Q 490.086228 182.990663 488.440697 183.211797 
Q 486.799624 183.432395 486.799624 183.820584 
Q 486.799624 184.207166 488.440697 184.428299 
Q 490.086228 184.648898 492.958105 184.648898 
Q 494.559042 184.648898 496.008359 184.592142 
Q 497.457675 184.534851 498.951586 184.412772 
L 498.951586 184.93 
z
" clip-path="url(#p7dc297af4c)" style="fill: #0000ff"/>
   </g>
   <g id="patch_63">
    <path d="M 493.512545 181.824171 
L 486.705603 181.824171 
L 485.630822 182.523766 
L 481.252087 182.523766 
L 487.505355 178.683401 
L 492.698318 178.683401 
L 498.951586 182.523766 
L 494.57647 182.523766 
L 493.512545 181.824171 
z
M 487.791239 181.111407 
L 492.416052 181.111407 
L 490.107265 179.583821 
L 487.791239 181.111407 
z
" clip-path="url(#p7dc297af4c)" style="fill: #008000"/>
   </g>
   <g id="patch_64">
    <path d="M 481.252087 169.170574 
L 498.951586 169.170574 
L 498.951586 171.025841 
L 492.583882 171.025841 
L 492.583882 178.683401 
L 487.632139 178.683401 
L 487.632139 171.025841 
L 481.252087 171.025841 
L 481.252087 169.170574 
z
" clip-path="url(#p7dc297af4c)" style="fill: #ff0000"/>
   </g>
   <g id="patch_65">
    <path d="M 498.951586 167.214454 
Q 497.166563 168.192514 495.246671 168.683777 
Q 493.326779 169.170574 491.279952 169.170574 
Q 486.654758 169.170574 483.953422 166.258724 
Q 481.252087 163.346874 481.252087 158.367253 
Q 481.252087 153.329574 484.001023 150.440054 
Q 486.753926 147.550534 491.541755 147.550534 
Q 493.38628 147.550534 495.076102 147.943544 
Q 496.769891 148.332089 498.26931 149.100245 
L 498.26931 153.409962 
Q 496.72229 152.42297 495.191137 151.936173 
Q 493.659983 151.44491 492.120896 151.44491 
Q 489.272792 151.44491 487.729739 153.240253 
Q 486.186685 155.03113 486.186685 158.367253 
Q 486.186685 161.672114 487.674205 163.476389 
Q 489.161724 165.276198 491.89876 165.276198 
Q 492.644503 165.276198 493.283145 165.173479 
Q 493.921787 165.066295 494.429527 164.842993 
L 494.429527 160.796772 
L 491.513988 160.796772 
L 491.513988 157.192688 
L 498.951586 157.192688 
L 498.951586 167.214454 
z
" clip-path="url(#p7dc297af4c)" style="fill: #ffa600"/>
   </g>
   <g id="patch_66">
    <path d="M 517.582638 184.69425 
Q 516.102105 184.9032 514.501168 185.00889 
Q 512.900231 185.115795 511.156591 185.115795 
Q 505.95689 185.115795 502.920014 184.323727 
Q 499.883139 183.531659 499.883139 182.177126 
Q 499.883139 180.817733 502.920014 180.02688 
Q 505.95689 179.234812 511.156591 179.234812 
Q 512.900231 179.234812 514.501168 179.341717 
Q 516.102105 179.447407 517.582638 179.656358 
L 517.582638 180.828667 
Q 516.088727 180.551686 514.63941 180.422914 
Q 513.190094 180.294142 511.589157 180.294142 
Q 508.71728 180.294142 507.071748 180.795866 
Q 505.430676 181.296376 505.430676 182.177126 
Q 505.430676 183.054232 507.071748 183.555956 
Q 508.71728 184.056465 511.589157 184.056465 
Q 513.190094 184.056465 514.63941 183.927693 
Q 516.088727 183.797706 517.582638 183.520726 
L 517.582638 184.69425 
z
" clip-path="url(#p7dc297af4c)" style="fill: #0000ff"/>
   </g>
   <g id="patch_67">
    <path d="M 517.582638 178.028953 
Q 515.797614 178.631883 513.877722 178.934724 
Q 511.957831 179.234812 509.911004 179.234812 
Q 505.28581 179.234812 502.584474 177.439789 
Q 499.883139 175.644765 499.883139 172.575055 
Q 499.883139 169.469554 502.632075 167.688296 
Q 505.384978 165.907039 510.172807 165.907039 
Q 512.017331 165.907039 513.707153 166.149312 
Q 515.400942 166.388832 516.900362 166.862365 
L 516.900362 169.51911 
Q 515.353342 168.910674 513.822188 168.610586 
Q 512.291035 168.307745 510.751948 168.307745 
Q 507.903844 168.307745 506.36079 169.414492 
Q 504.817737 170.518487 504.817737 172.575055 
Q 504.817737 174.612352 506.305256 175.724605 
Q 507.792776 176.834106 510.529812 176.834106 
Q 511.275555 176.834106 511.914197 176.770785 
Q 512.552838 176.70471 513.060578 176.567055 
L 513.060578 174.072743 
L 510.14504 174.072743 
L 510.14504 171.850989 
L 517.582638 171.850989 
L 517.582638 178.028953 
z
" clip-path="url(#p7dc297af4c)" style="fill: #ffa600"/>
   </g>
   <g id="patch_68">
    <path d="M 512.143597 161.111029 
L 505.336654 161.111029 
L 504.261874 165.907039 
L 499.883139 165.907039 
L 506.136407 139.579769 
L 511.32937 139.579769 
L 517.582638 165.907039 
L 513.207521 165.907039 
L 512.143597 161.111029 
z
M 506.422291 156.224742 
L 511.047104 156.224742 
L 508.738316 145.752515 
L 506.422291 156.224742 
z
" clip-path="url(#p7dc297af4c)" style="fill: #008000"/>
   </g>
   <g id="patch_69">
    <path d="M 499.883139 55.023869 
L 517.582638 55.023869 
L 517.582638 71.514625 
L 511.214934 71.514625 
L 511.214934 139.579769 
L 506.263191 139.579769 
L 506.263191 71.514625 
L 499.883139 71.514625 
L 499.883139 55.023869 
z
" clip-path="url(#p7dc297af4c)" style="fill: #ff0000"/>
   </g>
   <g id="patch_70">
    <path d="M 536.213689 184.109041 
Q 534.428666 184.612418 532.508774 184.865256 
Q 530.588882 185.115795 528.542055 185.115795 
Q 523.916861 185.115795 521.215526 183.617156 
Q 518.51419 182.118517 518.51419 179.555661 
Q 518.51419 176.962924 521.263126 175.475778 
Q 524.016029 173.988631 528.803859 173.988631 
Q 530.648383 173.988631 532.338205 174.190902 
Q 534.031994 174.390874 535.531414 174.78622 
L 535.531414 177.004297 
Q 533.984394 176.496323 532.45324 176.245784 
Q 530.922087 175.992946 529.383 175.992946 
Q 526.534896 175.992946 524.991842 176.916953 
Q 523.448788 177.838662 523.448788 179.555661 
Q 523.448788 181.25657 524.936308 182.185174 
Q 526.423828 183.11148 529.160864 183.11148 
Q 529.906607 183.11148 530.545248 183.058614 
Q 531.18389 183.00345 531.69163 182.888523 
L 531.69163 180.806059 
L 528.776092 180.806059 
L 528.776092 178.951149 
L 536.213689 178.951149 
L 536.213689 184.109041 
z
" clip-path="url(#p7dc297af4c)" style="fill: #ffa600"/>
   </g>
   <g id="patch_71">
    <path d="M 536.213689 171.44061 
Q 534.733157 172.703606 533.13222 173.342447 
Q 531.531282 173.988631 529.787643 173.988631 
Q 524.587941 173.988631 521.551066 169.200995 
Q 518.51419 164.413358 518.51419 156.225912 
Q 518.51419 148.009094 521.551066 143.2288 
Q 524.587941 138.441164 529.787643 138.441164 
Q 531.531282 138.441164 533.13222 139.087348 
Q 534.733157 139.726189 536.213689 140.989185 
L 536.213689 148.075181 
Q 534.719779 146.400977 533.270462 145.622619 
Q 531.821146 144.844261 530.220208 144.844261 
Q 527.348332 144.844261 525.7028 147.87692 
Q 524.061728 150.902236 524.061728 156.225912 
Q 524.061728 161.527559 525.7028 164.560218 
Q 527.348332 167.585535 530.220208 167.585535 
Q 531.821146 167.585535 533.270462 166.807177 
Q 534.719779 166.021475 536.213689 164.347271 
L 536.213689 171.44061 
z
" clip-path="url(#p7dc297af4c)" style="fill: #0000ff"/>
   </g>
   <g id="patch_72">
    <path d="M 530.774649 121.637163 
L 523.967706 121.637163 
L 522.892926 138.441164 
L 518.51419 138.441164 
L 524.767458 46.197083 
L 529.960421 46.197083 
L 536.213689 138.441164 
L 531.838573 138.441164 
L 530.774649 121.637163 
z
M 525.053343 104.516851 
L 529.678156 104.516851 
L 527.369368 67.824821 
L 525.053343 104.516851 
z
" clip-path="url(#p7dc297af4c)" style="fill: #008000"/>
   </g>
   <g id="patch_73">
    <path d="M 554.844741 184.709612 
Q 553.364209 184.910948 551.763271 185.012786 
Q 550.162334 185.115795 548.418695 185.115795 
Q 543.218993 185.115795 540.182118 184.352593 
Q 537.145242 183.58939 537.145242 182.284221 
Q 537.145242 180.97437 540.182118 180.212338 
Q 543.218993 179.449136 548.418695 179.449136 
Q 550.162334 179.449136 551.763271 179.552145 
Q 553.364209 179.653983 554.844741 179.855318 
L 554.844741 180.984905 
Q 553.35083 180.718018 551.901514 180.593939 
Q 550.452197 180.46986 548.85126 180.46986 
Q 545.979384 180.46986 544.333852 180.9533 
Q 542.69278 181.435568 542.69278 182.284221 
Q 542.69278 183.129362 544.333852 183.612802 
Q 545.979384 184.09507 548.85126 184.09507 
Q 550.452197 184.09507 551.901514 183.970992 
Q 553.35083 183.845742 554.844741 183.578855 
L 554.844741 184.709612 
z
" clip-path="url(#p7dc297af4c)" style="fill: #0000ff"/>
   </g>
   <g id="patch_74">
    <path d="M 537.145242 12.525688 
L 554.844741 12.525688 
L 554.844741 45.080411 
L 548.477038 45.080411 
L 548.477038 179.449136 
L 543.525294 179.449136 
L 543.525294 45.080411 
L 537.145242 45.080411 
L 537.145242 12.525688 
z
" clip-path="url(#p7dc297af4c)" style="fill: #ff0000"/>
   </g>
   <g id="patch_75">
    <path d="M 555.776294 184.514886 
L 573.475793 184.514886 
L 573.475793 184.63208 
L 567.108089 184.63208 
L 567.108089 185.115795 
L 562.156346 185.115795 
L 562.156346 184.63208 
L 555.776294 184.63208 
L 555.776294 184.514886 
z
" clip-path="url(#p7dc297af4c)" style="fill: #ff0000"/>
   </g>
   <g id="patch_76">
    <path d="M 568.036752 175.393622 
L 561.22981 175.393622 
L 560.155029 184.514886 
L 555.776294 184.514886 
L 562.029562 134.444514 
L 567.222525 134.444514 
L 573.475793 184.514886 
L 569.100677 184.514886 
L 568.036752 175.393622 
z
M 562.315446 166.100664 
L 566.940259 166.100664 
L 564.631472 146.184117 
L 562.315446 166.100664 
z
" clip-path="url(#p7dc297af4c)" style="fill: #008000"/>
   </g>
   <g id="patch_77">
    <path d="M 573.475793 127.198188 
Q 571.69077 130.821351 569.770878 132.641204 
Q 567.850986 134.444514 565.804159 134.444514 
Q 561.178965 134.444514 558.477629 123.657746 
Q 555.776294 112.870979 555.776294 94.424283 
Q 555.776294 75.762513 558.52523 65.058467 
Q 561.278133 54.35442 566.065962 54.35442 
Q 567.910487 54.35442 569.600309 55.810302 
Q 571.294098 57.249641 572.793517 60.09523 
L 572.793517 76.060308 
Q 571.246497 72.404057 569.715344 70.600747 
Q 568.18419 68.780894 566.645103 68.780894 
Q 563.796999 68.780894 562.253946 75.431631 
Q 560.710892 82.065824 560.710892 94.424283 
Q 560.710892 106.666933 562.198412 113.350758 
Q 563.685931 120.018039 566.422967 120.018039 
Q 567.16871 120.018039 567.807352 119.637525 
Q 568.445994 119.240466 568.953734 118.41326 
L 568.953734 103.424285 
L 566.038195 103.424285 
L 566.038195 90.073179 
L 573.475793 90.073179 
L 573.475793 127.198188 
z
" clip-path="url(#p7dc297af4c)" style="fill: #ffa600"/>
   </g>
   <g id="patch_78">
    <path d="M 592.106845 184.969349 
Q 590.626312 185.041939 589.025375 185.078656 
Q 587.424438 185.115795 585.680798 185.115795 
Q 580.481097 185.115795 577.444221 184.840629 
Q 574.407346 184.565464 574.407346 184.094897 
Q 574.407346 183.622643 577.444221 183.347899 
Q 580.481097 183.072734 585.680798 183.072734 
Q 587.424438 183.072734 589.025375 183.109873 
Q 590.626312 183.146589 592.106845 183.219179 
L 592.106845 183.626441 
Q 590.612934 183.530217 589.163617 183.485482 
Q 587.714301 183.440746 586.113364 183.440746 
Q 583.241487 183.440746 581.595955 183.615046 
Q 579.954883 183.788923 579.954883 184.094897 
Q 579.954883 184.399605 581.595955 184.573905 
Q 583.241487 184.747782 586.113364 184.747782 
Q 587.714301 184.747782 589.163617 184.703047 
Q 590.612934 184.657889 592.106845 184.561666 
L 592.106845 184.969349 
z
" clip-path="url(#p7dc297af4c)" style="fill: #0000ff"/>
   </g>
   <g id="patch_79">
    <path d="M 586.667804 177.48425 
L 579.860861 177.48425 
L 578.786081 183.072734 
L 574.407346 183.072734 
L 580.660614 152.395245 
L 585.853577 152.395245 
L 592.106845 183.072734 
L 587.731728 183.072734 
L 586.667804 177.48425 
z
M 580.946498 171.790571 
L 585.571311 171.790571 
L 583.262523 159.587953 
L 580.946498 171.790571 
z
" clip-path="url(#p7dc297af4c)" style="fill: #008000"/>
   </g>
   <g id="patch_80">
    <path d="M 592.106845 147.296967 
Q 590.321821 149.846106 588.401929 151.126496 
Q 586.482038 152.395245 584.435211 152.395245 
Q 579.810017 152.395245 577.108681 144.806028 
Q 574.407346 137.21681 574.407346 124.238317 
Q 574.407346 111.108505 577.156282 103.577487 
Q 579.909185 96.046468 584.697014 96.046468 
Q 586.541538 96.046468 588.23136 97.07078 
Q 589.925149 98.083452 591.424569 100.085515 
L 591.424569 111.318023 
Q 589.877549 108.745604 588.346395 107.476855 
Q 586.815242 106.196465 585.276155 106.196465 
Q 582.428051 106.196465 580.884997 110.875707 
Q 579.341944 115.543308 579.341944 124.238317 
Q 579.341944 132.851846 580.829463 137.554367 
Q 582.316983 142.245249 585.054019 142.245249 
Q 585.799762 142.245249 586.438404 141.977531 
Q 587.077045 141.698173 587.584785 141.116178 
L 587.584785 130.570425 
L 584.669247 130.570425 
L 584.669247 121.177022 
L 592.106845 121.177022 
L 592.106845 147.296967 
z
" clip-path="url(#p7dc297af4c)" style="fill: #ffa600"/>
   </g>
   <g id="patch_81">
    <path d="M 593.038397 182.022215 
L 610.737896 182.022215 
L 610.737896 182.625549 
L 604.370193 182.625549 
L 604.370193 185.115795 
L 599.418449 185.115795 
L 599.418449 182.625549 
L 593.038397 182.625549 
L 593.038397 182.022215 
z
" clip-path="url(#p7dc297af4c)" style="fill: #ff0000"/>
   </g>
   <g id="patch_82">
    <path d="M 610.737896 179.455884 
Q 609.257364 180.727956 607.656427 181.371387 
Q 606.055489 182.022215 604.31185 182.022215 
Q 599.112148 182.022215 596.075273 177.200175 
Q 593.038397 172.378135 593.038397 164.131855 
Q 593.038397 155.855992 596.075273 151.041348 
Q 599.112148 146.219308 604.31185 146.219308 
Q 606.055489 146.219308 607.656427 146.870136 
Q 609.257364 147.513567 610.737896 148.785639 
L 610.737896 155.922554 
Q 609.243986 154.236319 607.794669 153.452368 
Q 606.345353 152.668417 604.744415 152.668417 
Q 601.872539 152.668417 600.227007 155.722868 
Q 598.585935 158.769924 598.585935 164.131855 
Q 598.585935 169.471599 600.227007 172.52605 
Q 601.872539 175.573106 604.744415 175.573106 
Q 606.345353 175.573106 607.794669 174.789155 
Q 609.243986 173.997808 610.737896 172.311573 
L 610.737896 179.455884 
z
" clip-path="url(#p7dc297af4c)" style="fill: #0000ff"/>
   </g>
   <g id="patch_83">
    <path d="M 610.737896 140.029133 
Q 608.952873 143.124221 607.032981 144.678831 
Q 605.113089 146.219308 603.066262 146.219308 
Q 598.441068 146.219308 595.739733 137.00471 
Q 593.038397 127.790112 593.038397 112.032019 
Q 593.038397 96.090199 595.787333 86.946265 
Q 598.540236 77.802331 603.328066 77.802331 
Q 605.17259 77.802331 606.862412 79.046019 
Q 608.556201 80.275574 610.055621 82.706419 
L 610.055621 96.344589 
Q 608.508601 93.221236 606.977447 91.680759 
Q 605.446294 90.126149 603.907207 90.126149 
Q 601.059103 90.126149 599.516049 95.807542 
Q 597.972995 101.474803 597.972995 112.032019 
Q 597.972995 122.490305 599.460515 128.199964 
Q 600.948035 133.89549 603.685071 133.89549 
Q 604.430814 133.89549 605.069455 133.570435 
Q 605.708097 133.231247 606.215837 132.524606 
L 606.215837 119.720272 
L 603.300299 119.720272 
L 603.300299 108.315087 
L 610.737896 108.315087 
L 610.737896 140.029133 
z
" clip-path="url(#p7dc297af4c)" style="fill: #ffa600"/>
   </g>
   <g id="patch_84">
    <path d="M 629.368948 184.700148 
Q 627.888416 184.906175 626.287478 185.010386 
Q 624.686541 185.115795 622.942902 185.115795 
Q 617.7432 185.115795 614.706325 184.33481 
Q 611.669449 183.553826 611.669449 182.218247 
Q 611.669449 180.877876 614.706325 180.098089 
Q 617.7432 179.317105 622.942902 179.317105 
Q 624.686541 179.317105 626.287478 179.422514 
Q 627.888416 179.526725 629.368948 179.732752 
L 629.368948 180.888657 
Q 627.875037 180.615552 626.425721 180.488582 
Q 624.976404 180.361612 623.375467 180.361612 
Q 620.503591 180.361612 618.858059 180.856315 
Q 617.216987 181.349821 617.216987 182.218247 
Q 617.216987 183.083079 618.858059 183.577782 
Q 620.503591 184.071288 623.375467 184.071288 
Q 624.976404 184.071288 626.425721 183.944318 
Q 627.875037 183.81615 629.368948 183.543045 
L 629.368948 184.700148 
z
" clip-path="url(#p7dc297af4c)" style="fill: #0000ff"/>
   </g>
   <g id="patch_85">
    <path d="M 629.368948 176.773556 
Q 627.583925 178.04533 625.664033 178.684121 
Q 623.744141 179.317105 621.697314 179.317105 
Q 617.07212 179.317105 614.370785 175.530817 
Q 611.669449 171.744529 611.669449 165.269513 
Q 611.669449 158.719003 614.418385 154.961751 
Q 617.171288 151.204499 621.959118 151.204499 
Q 623.803642 151.204499 625.493464 151.715532 
Q 627.187253 152.220757 628.686673 153.219594 
L 628.686673 158.823532 
Q 627.139652 157.540143 625.608499 156.907159 
Q 624.077345 156.268368 622.538259 156.268368 
Q 619.690154 156.268368 618.147101 158.602859 
Q 616.604047 160.931542 616.604047 165.269513 
Q 616.604047 169.566833 618.091567 171.912938 
Q 619.579086 174.253235 622.316122 174.253235 
Q 623.061865 174.253235 623.700507 174.11967 
Q 624.339149 173.980297 624.846889 173.689938 
L 624.846889 168.428624 
L 621.931351 168.428624 
L 621.931351 163.742222 
L 629.368948 163.742222 
L 629.368948 176.773556 
z
" clip-path="url(#p7dc297af4c)" style="fill: #ffa600"/>
   </g>
   <g id="patch_86">
    <path d="M 611.669449 111.796792 
L 629.368948 111.796792 
L 629.368948 119.482393 
L 623.001245 119.482393 
L 623.001245 151.204499 
L 618.049501 151.204499 
L 618.049501 119.482393 
L 611.669449 119.482393 
L 611.669449 111.796792 
z
" clip-path="url(#p7dc297af4c)" style="fill: #ff0000"/>
   </g>
   <g id="patch_87">
    <path d="M 623.929908 102.344949 
L 617.122965 102.344949 
L 616.048184 111.796792 
L 611.669449 111.796792 
L 617.922717 59.911734 
L 623.11568 59.911734 
L 629.368948 111.796792 
L 624.993832 111.796792 
L 623.929908 102.344949 
z
M 618.208602 92.715189 
L 622.833415 92.715189 
L 620.524627 72.076812 
L 618.208602 92.715189 
z
" clip-path="url(#p7dc297af4c)" style="fill: #008000"/>
   </g>
   <g id="patch_88">
    <path d="M 642.560959 183.826202 
L 635.754017 183.826202 
L 634.679236 185.115795 
L 630.300501 185.115795 
L 636.553769 178.036686 
L 641.746732 178.036686 
L 648 185.115795 
L 643.624884 185.115795 
L 642.560959 183.826202 
z
M 636.839653 182.512334 
L 641.464466 182.512334 
L 639.155679 179.696469 
L 636.839653 182.512334 
z
" clip-path="url(#p7dc297af4c)" style="fill: #008000"/>
   </g>
   <g id="patch_89">
    <path d="M 648 175.185974 
Q 646.214977 176.61133 644.295085 177.327262 
Q 642.375193 178.036686 640.328366 178.036686 
Q 635.703172 178.036686 633.001836 173.79316 
Q 630.300501 169.549633 630.300501 162.292682 
Q 630.300501 154.951121 633.049437 150.740137 
Q 635.80234 146.529153 640.590169 146.529153 
Q 642.434694 146.529153 644.124516 147.101899 
Q 645.818305 147.668136 647.317724 148.787594 
L 647.317724 155.068274 
Q 645.770704 153.6299 644.239551 152.920476 
Q 642.708397 152.204544 641.16931 152.204544 
Q 638.321206 152.204544 636.778153 154.820952 
Q 635.235099 157.43085 635.235099 162.292682 
Q 635.235099 167.108955 636.722619 169.738379 
Q 638.210138 172.361295 640.947174 172.361295 
Q 641.692917 172.361295 642.331559 172.2116 
Q 642.970201 172.055397 643.477941 171.729973 
L 643.477941 165.833293 
L 640.562402 165.833293 
L 640.562402 160.580953 
L 648 160.580953 
L 648 175.185974 
z
" clip-path="url(#p7dc297af4c)" style="fill: #ffa600"/>
   </g>
   <g id="patch_90">
    <path d="M 648 142.405673 
Q 646.519467 144.449588 644.91853 145.483429 
Q 643.317593 146.529153 641.573954 146.529153 
Q 636.374252 146.529153 633.337376 138.781288 
Q 630.300501 131.033423 630.300501 117.783624 
Q 630.300501 104.486292 633.337376 96.750311 
Q 636.374252 89.002446 641.573954 89.002446 
Q 643.317593 89.002446 644.91853 90.04817 
Q 646.519467 91.082011 648 93.125926 
L 648 104.593241 
Q 646.506089 101.883865 645.056773 100.624243 
Q 643.607456 99.364621 642.006519 99.364621 
Q 639.134642 99.364621 637.489111 104.272394 
Q 635.848038 109.168284 635.848038 117.783624 
Q 635.848038 126.363315 637.489111 131.271088 
Q 639.134642 136.166978 642.006519 136.166978 
Q 643.607456 136.166978 645.056773 134.907356 
Q 646.506089 133.63585 648 130.926474 
L 648 142.405673 
z
" clip-path="url(#p7dc297af4c)" style="fill: #0000ff"/>
   </g>
   <g id="patch_91">
    <path d="M 107.699499 186.67768 
Q 105.914476 185.896737 103.994584 185.504483 
Q 102.074692 185.115795 100.027865 185.115795 
Q 95.402671 185.115795 92.701335 187.440792 
Q 90 189.76579 90 193.741821 
Q 90 197.76421 92.748936 200.071378 
Q 95.501839 202.378546 100.289668 202.378546 
Q 102.134193 202.378546 103.824015 202.064742 
Q 105.517804 201.754505 107.017224 201.141162 
L 107.017224 197.700023 
Q 105.470203 198.488097 103.93905 198.876785 
Q 102.407896 199.26904 100.868809 199.26904 
Q 98.020705 199.26904 96.477652 197.835529 
Q 94.934598 196.405584 94.934598 193.741821 
Q 94.934598 191.10302 96.422118 189.662378 
Q 97.909637 188.225301 100.646673 188.225301 
Q 101.392416 188.225301 102.031058 188.307318 
Q 102.6697 188.3929 103.17744 188.571198 
L 103.17744 191.801946 
L 100.261901 191.801946 
L 100.261901 194.679665 
L 107.699499 194.679665 
L 107.699499 186.67768 
z
" clip-path="url(#p7dc297af4c)" style="fill: #ffa600"/>
   </g>
   <g id="patch_92">
    <path d="M 126.330551 185.545973 
Q 124.545527 185.330884 122.625636 185.222848 
Q 120.705744 185.115795 118.658917 185.115795 
Q 114.033723 185.115795 111.332387 185.756151 
Q 108.631052 186.396507 108.631052 187.491594 
Q 108.631052 188.599449 111.379988 189.234894 
Q 114.132891 189.870339 118.92072 189.870339 
Q 120.765244 189.870339 122.455067 189.783911 
Q 124.148856 189.698464 125.648275 189.529536 
L 125.648275 188.58177 
Q 124.101255 188.798823 122.570102 188.905877 
Q 121.038948 189.013912 119.499861 189.013912 
Q 116.651757 189.013912 115.108704 188.619091 
Q 113.56565 188.225253 113.56565 187.491594 
Q 113.56565 186.764809 115.053169 186.368024 
Q 116.540689 185.972222 119.277725 185.972222 
Q 120.023468 185.972222 120.66211 185.994811 
Q 121.300752 186.018382 121.808492 186.067489 
L 121.808492 186.957309 
L 118.892953 186.957309 
L 118.892953 187.749897 
L 126.330551 187.749897 
L 126.330551 185.545973 
z
" clip-path="url(#p7dc297af4c)" style="fill: #ffa600"/>
   </g>
   <g id="patch_93">
    <path d="M 139.522562 185.123359 
L 132.715619 185.123359 
L 131.640839 185.115795 
L 127.262104 185.115795 
L 133.515372 185.157317 
L 138.708335 185.157317 
L 144.961603 185.115795 
L 140.586486 185.115795 
L 139.522562 185.123359 
z
M 133.801256 185.131065 
L 138.426069 185.131065 
L 136.117281 185.147582 
L 133.801256 185.131065 
z
" clip-path="url(#p7dc297af4c)" style="fill: #008000"/>
   </g>
   <g id="patch_94">
    <path d="M 269.939924 185.303999 
L 263.132981 185.303999 
L 262.058201 185.115795 
L 257.679466 185.115795 
L 263.932734 186.148928 
L 269.125697 186.148928 
L 275.378965 185.115795 
L 271.003849 185.115795 
L 269.939924 185.303999 
z
M 264.218618 185.495747 
L 268.843431 185.495747 
L 266.534644 185.906697 
L 264.218618 185.495747 
z
" clip-path="url(#p7dc297af4c)" style="fill: #008000"/>
   </g>
   <g id="patch_95">
    <path d="M 257.679466 188.042754 
L 275.378965 188.042754 
L 275.378965 187.673405 
L 269.011261 187.673405 
L 269.011261 186.148928 
L 264.059518 186.148928 
L 264.059518 187.673405 
L 257.679466 187.673405 
L 257.679466 188.042754 
z
" clip-path="url(#p7dc297af4c)" style="fill: #ff0000"/>
   </g>
   <g id="patch_96">
    <path d="M 307.202028 185.223982 
L 300.395085 185.223982 
L 299.320305 185.115795 
L 294.941569 185.115795 
L 301.194837 185.709679 
L 306.3878 185.709679 
L 312.641068 185.115795 
L 308.265952 185.115795 
L 307.202028 185.223982 
z
M 301.480722 185.334206 
L 306.105535 185.334206 
L 303.796747 185.570435 
L 301.480722 185.334206 
z
" clip-path="url(#p7dc297af4c)" style="fill: #008000"/>
   </g>
   <g id="patch_97">
    <path d="M 363.095183 185.164957 
L 356.28824 185.164957 
L 355.21346 185.115795 
L 350.834725 185.115795 
L 357.087993 185.385667 
L 362.280956 185.385667 
L 368.534224 185.115795 
L 364.159107 185.115795 
L 363.095183 185.164957 
z
M 357.373877 185.215045 
L 361.99869 185.215045 
L 359.689902 185.322392 
L 357.373877 185.215045 
z
" clip-path="url(#p7dc297af4c)" style="fill: #008000"/>
   </g>
   <g id="patch_98">
    <path d="M 369.465776 196.045087 
L 387.165275 196.045087 
L 387.165275 193.913571 
L 380.797572 193.913571 
L 380.797572 185.115795 
L 375.845828 185.115795 
L 375.845828 193.913571 
L 369.465776 193.913571 
L 369.465776 196.045087 
z
" clip-path="url(#p7dc297af4c)" style="fill: #ff0000"/>
   </g>
   <g id="patch_99">
    <path d="M 388.096828 192.928478 
L 405.796327 192.928478 
L 405.796327 191.404787 
L 399.428624 191.404787 
L 399.428624 185.115795 
L 394.47688 185.115795 
L 394.47688 191.404787 
L 388.096828 191.404787 
L 388.096828 192.928478 
z
" clip-path="url(#p7dc297af4c)" style="fill: #ff0000"/>
   </g>
   <g id="patch_100">
    <path d="M 406.72788 198.869587 
L 424.427379 198.869587 
L 424.427379 196.187214 
L 418.059675 196.187214 
L 418.059675 185.115795 
L 413.107932 185.115795 
L 413.107932 196.187214 
L 406.72788 196.187214 
L 406.72788 198.869587 
z
" clip-path="url(#p7dc297af4c)" style="fill: #ff0000"/>
   </g>
   <g id="patch_101">
    <path d="M 425.358932 194.248981 
L 443.058431 194.248981 
L 443.058431 192.467755 
L 436.690727 192.467755 
L 436.690727 185.115795 
L 431.738984 185.115795 
L 431.738984 192.467755 
L 425.358932 192.467755 
L 425.358932 194.248981 
z
" clip-path="url(#p7dc297af4c)" style="fill: #ff0000"/>
   </g>
   <g id="patch_102">
    <path d="M 443.989983 190.281141 
L 461.689482 190.281141 
L 461.689482 189.273755 
L 455.321779 189.273755 
L 455.321779 185.115795 
L 450.370035 185.115795 
L 450.370035 189.273755 
L 443.989983 189.273755 
L 443.989983 190.281141 
z
" clip-path="url(#p7dc297af4c)" style="fill: #ff0000"/>
   </g>
   <g id="patch_103">
    <path d="M 518.51419 186.803428 
L 536.213689 186.803428 
L 536.213689 186.474292 
L 529.845986 186.474292 
L 529.845986 185.115795 
L 524.894242 185.115795 
L 524.894242 186.474292 
L 518.51419 186.474292 
L 518.51419 186.803428 
z
" clip-path="url(#p7dc297af4c)" style="fill: #ff0000"/>
   </g>
   <g id="patch_104">
    <path d="M 554.844741 186.327674 
Q 553.059718 185.721735 551.139826 185.417381 
Q 549.219934 185.115795 547.173107 185.115795 
Q 542.547913 185.115795 539.846578 186.91978 
Q 537.145242 188.723765 537.145242 191.8088 
Q 537.145242 194.929805 539.894178 196.719956 
Q 542.647081 198.510106 547.434911 198.510106 
Q 549.279435 198.510106 550.969257 198.266624 
Q 552.663046 198.025908 554.162466 197.55001 
L 554.162466 194.880002 
Q 552.615445 195.491475 551.084292 195.793062 
Q 549.553138 196.097415 548.014052 196.097415 
Q 545.165947 196.097415 543.622894 194.985142 
Q 542.07984 193.875636 542.07984 191.8088 
Q 542.07984 189.761333 543.56736 188.643526 
Q 545.054879 187.528486 547.791915 187.528486 
Q 548.537658 187.528486 549.1763 187.592124 
Q 549.814942 187.658528 550.322682 187.796871 
L 550.322682 190.303635 
L 547.407144 190.303635 
L 547.407144 192.536481 
L 554.844741 192.536481 
L 554.844741 186.327674 
z
" clip-path="url(#p7dc297af4c)" style="fill: #ffa600"/>
   </g>
   <g id="matplotlib.axis_1">
    <g id="xtick_1">
     <g id="line2d_2">
      <defs>
       <path id="mdcb8a1c1e8" d="M 0 0 
L 0 3.5 
" style="stroke: #000000; stroke-width: 0.8"/>
      </defs>
      <g>
       <use xlink:href="#mdcb8a1c1e8" x="98.84975" y="192.24" style="stroke: #000000; stroke-width: 0.8"/>
      </g>
     </g>
     <g id="text_1">
      <!-- 0 -->
      <g transform="translate(95.6685 206.838437) scale(0.1 -0.1)">
       <defs>
        <path id="DejaVuSans-30" d="M 2034 4250 
Q 1547 4250 1301 3770 
Q 1056 3291 1056 2328 
Q 1056 1369 1301 889 
Q 1547 409 2034 409 
Q 2525 409 2770 889 
Q 3016 1369 3016 2328 
Q 3016 3291 2770 3770 
Q 2525 4250 2034 4250 
z
M 2034 4750 
Q 2819 4750 3233 4129 
Q 3647 3509 3647 2328 
Q 3647 1150 3233 529 
Q 2819 -91 2034 -91 
Q 1250 -91 836 529 
Q 422 1150 422 2328 
Q 422 3509 836 4129 
Q 1250 4750 2034 4750 
z
" transform="scale(0.015625)"/>
       </defs>
       <use xlink:href="#DejaVuSans-30"/>
      </g>
     </g>
    </g>
    <g id="xtick_2">
     <g id="line2d_3">
      <g>
       <use xlink:href="#mdcb8a1c1e8" x="192.005008" y="192.24" style="stroke: #000000; stroke-width: 0.8"/>
      </g>
     </g>
     <g id="text_2">
      <!-- 5 -->
      <g transform="translate(188.823758 206.838437) scale(0.1 -0.1)">
       <defs>
        <path id="DejaVuSans-35" d="M 691 4666 
L 3169 4666 
L 3169 4134 
L 1269 4134 
L 1269 2991 
Q 1406 3038 1543 3061 
Q 1681 3084 1819 3084 
Q 2600 3084 3056 2656 
Q 3513 2228 3513 1497 
Q 3513 744 3044 326 
Q 2575 -91 1722 -91 
Q 1428 -91 1123 -41 
Q 819 9 494 109 
L 494 744 
Q 775 591 1075 516 
Q 1375 441 1709 441 
Q 2250 441 2565 725 
Q 2881 1009 2881 1497 
Q 2881 1984 2565 2268 
Q 2250 2553 1709 2553 
Q 1456 2553 1204 2497 
Q 953 2441 691 2322 
L 691 4666 
z
" transform="scale(0.015625)"/>
       </defs>
       <use xlink:href="#DejaVuSans-35"/>
      </g>
     </g>
    </g>
    <g id="xtick_3">
     <g id="line2d_4">
      <g>
       <use xlink:href="#mdcb8a1c1e8" x="285.160267" y="192.24" style="stroke: #000000; stroke-width: 0.8"/>
      </g>
     </g>
     <g id="text_3">
      <!-- 10 -->
      <g transform="translate(278.797767 206.838437) scale(0.1 -0.1)">
       <defs>
        <path id="DejaVuSans-31" d="M 794 531 
L 1825 531 
L 1825 4091 
L 703 3866 
L 703 4441 
L 1819 4666 
L 2450 4666 
L 2450 531 
L 3481 531 
L 3481 0 
L 794 0 
L 794 531 
z
" transform="scale(0.015625)"/>
       </defs>
       <use xlink:href="#DejaVuSans-31"/>
       <use xlink:href="#DejaVuSans-30" x="63.623047"/>
      </g>
     </g>
    </g>
    <g id="xtick_4">
     <g id="line2d_5">
      <g>
       <use xlink:href="#mdcb8a1c1e8" x="378.315526" y="192.24" style="stroke: #000000; stroke-width: 0.8"/>
      </g>
     </g>
     <g id="text_4">
      <!-- 15 -->
      <g transform="translate(371.953026 206.838437) scale(0.1 -0.1)">
       <use xlink:href="#DejaVuSans-31"/>
       <use xlink:href="#DejaVuSans-35" x="63.623047"/>
      </g>
     </g>
    </g>
    <g id="xtick_5">
     <g id="line2d_6">
      <g>
       <use xlink:href="#mdcb8a1c1e8" x="471.470785" y="192.24" style="stroke: #000000; stroke-width: 0.8"/>
      </g>
     </g>
     <g id="text_5">
      <!-- 20 -->
      <g transform="translate(465.108285 206.838437) scale(0.1 -0.1)">
       <defs>
        <path id="DejaVuSans-32" d="M 1228 531 
L 3431 531 
L 3431 0 
L 469 0 
L 469 531 
Q 828 903 1448 1529 
Q 2069 2156 2228 2338 
Q 2531 2678 2651 2914 
Q 2772 3150 2772 3378 
Q 2772 3750 2511 3984 
Q 2250 4219 1831 4219 
Q 1534 4219 1204 4116 
Q 875 4013 500 3803 
L 500 4441 
Q 881 4594 1212 4672 
Q 1544 4750 1819 4750 
Q 2544 4750 2975 4387 
Q 3406 4025 3406 3419 
Q 3406 3131 3298 2873 
Q 3191 2616 2906 2266 
Q 2828 2175 2409 1742 
Q 1991 1309 1228 531 
z
" transform="scale(0.015625)"/>
       </defs>
       <use xlink:href="#DejaVuSans-32"/>
       <use xlink:href="#DejaVuSans-30" x="63.623047"/>
      </g>
     </g>
    </g>
    <g id="xtick_6">
     <g id="line2d_7">
      <g>
       <use xlink:href="#mdcb8a1c1e8" x="564.626043" y="192.24" style="stroke: #000000; stroke-width: 0.8"/>
      </g>
     </g>
     <g id="text_6">
      <!-- 25 -->
      <g transform="translate(558.263543 206.838437) scale(0.1 -0.1)">
       <use xlink:href="#DejaVuSans-32"/>
       <use xlink:href="#DejaVuSans-35" x="63.623047"/>
      </g>
     </g>
    </g>
   </g>
   <g id="matplotlib.axis_2">
    <g id="ytick_1">
     <g id="line2d_8">
      <defs>
       <path id="m506ed21c27" d="M 0 0 
L -3.5 0 
" style="stroke: #000000; stroke-width: 0.8"/>
      </defs>
      <g>
       <use xlink:href="#m506ed21c27" x="90" y="185.115795" style="stroke: #000000; stroke-width: 0.8"/>
      </g>
     </g>
     <g id="text_7">
      <!-- 0.000 -->
      <g transform="translate(54.371875 188.915014) scale(0.1 -0.1)">
       <defs>
        <path id="DejaVuSans-2e" d="M 684 794 
L 1344 794 
L 1344 0 
L 684 0 
L 684 794 
z
" transform="scale(0.015625)"/>
       </defs>
       <use xlink:href="#DejaVuSans-30"/>
       <use xlink:href="#DejaVuSans-2e" x="63.623047"/>
       <use xlink:href="#DejaVuSans-30" x="95.410156"/>
       <use xlink:href="#DejaVuSans-30" x="159.033203"/>
       <use xlink:href="#DejaVuSans-30" x="222.65625"/>
      </g>
     </g>
    </g>
    <g id="ytick_2">
     <g id="line2d_9">
      <g>
       <use xlink:href="#m506ed21c27" x="90" y="157.973049" style="stroke: #000000; stroke-width: 0.8"/>
      </g>
     </g>
     <g id="text_8">
      <!-- 0.002 -->
      <g transform="translate(54.371875 161.772268) scale(0.1 -0.1)">
       <use xlink:href="#DejaVuSans-30"/>
       <use xlink:href="#DejaVuSans-2e" x="63.623047"/>
       <use xlink:href="#DejaVuSans-30" x="95.410156"/>
       <use xlink:href="#DejaVuSans-30" x="159.033203"/>
       <use xlink:href="#DejaVuSans-32" x="222.65625"/>
      </g>
     </g>
    </g>
    <g id="ytick_3">
     <g id="line2d_10">
      <g>
       <use xlink:href="#m506ed21c27" x="90" y="130.830303" style="stroke: #000000; stroke-width: 0.8"/>
      </g>
     </g>
     <g id="text_9">
      <!-- 0.004 -->
      <g transform="translate(54.371875 134.629522) scale(0.1 -0.1)">
       <defs>
        <path id="DejaVuSans-34" d="M 2419 4116 
L 825 1625 
L 2419 1625 
L 2419 4116 
z
M 2253 4666 
L 3047 4666 
L 3047 1625 
L 3713 1625 
L 3713 1100 
L 3047 1100 
L 3047 0 
L 2419 0 
L 2419 1100 
L 313 1100 
L 313 1709 
L 2253 4666 
z
" transform="scale(0.015625)"/>
       </defs>
       <use xlink:href="#DejaVuSans-30"/>
       <use xlink:href="#DejaVuSans-2e" x="63.623047"/>
       <use xlink:href="#DejaVuSans-30" x="95.410156"/>
       <use xlink:href="#DejaVuSans-30" x="159.033203"/>
       <use xlink:href="#DejaVuSans-34" x="222.65625"/>
      </g>
     </g>
    </g>
    <g id="ytick_4">
     <g id="line2d_11">
      <g>
       <use xlink:href="#m506ed21c27" x="90" y="103.687557" style="stroke: #000000; stroke-width: 0.8"/>
      </g>
     </g>
     <g id="text_10">
      <!-- 0.006 -->
      <g transform="translate(54.371875 107.486776) scale(0.1 -0.1)">
       <defs>
        <path id="DejaVuSans-36" d="M 2113 2584 
Q 1688 2584 1439 2293 
Q 1191 2003 1191 1497 
Q 1191 994 1439 701 
Q 1688 409 2113 409 
Q 2538 409 2786 701 
Q 3034 994 3034 1497 
Q 3034 2003 2786 2293 
Q 2538 2584 2113 2584 
z
M 3366 4563 
L 3366 3988 
Q 3128 4100 2886 4159 
Q 2644 4219 2406 4219 
Q 1781 4219 1451 3797 
Q 1122 3375 1075 2522 
Q 1259 2794 1537 2939 
Q 1816 3084 2150 3084 
Q 2853 3084 3261 2657 
Q 3669 2231 3669 1497 
Q 3669 778 3244 343 
Q 2819 -91 2113 -91 
Q 1303 -91 875 529 
Q 447 1150 447 2328 
Q 447 3434 972 4092 
Q 1497 4750 2381 4750 
Q 2619 4750 2861 4703 
Q 3103 4656 3366 4563 
z
" transform="scale(0.015625)"/>
       </defs>
       <use xlink:href="#DejaVuSans-30"/>
       <use xlink:href="#DejaVuSans-2e" x="63.623047"/>
       <use xlink:href="#DejaVuSans-30" x="95.410156"/>
       <use xlink:href="#DejaVuSans-30" x="159.033203"/>
       <use xlink:href="#DejaVuSans-36" x="222.65625"/>
      </g>
     </g>
    </g>
    <g id="ytick_5">
     <g id="line2d_12">
      <g>
       <use xlink:href="#m506ed21c27" x="90" y="76.544811" style="stroke: #000000; stroke-width: 0.8"/>
      </g>
     </g>
     <g id="text_11">
      <!-- 0.008 -->
      <g transform="translate(54.371875 80.34403) scale(0.1 -0.1)">
       <defs>
        <path id="DejaVuSans-38" d="M 2034 2216 
Q 1584 2216 1326 1975 
Q 1069 1734 1069 1313 
Q 1069 891 1326 650 
Q 1584 409 2034 409 
Q 2484 409 2743 651 
Q 3003 894 3003 1313 
Q 3003 1734 2745 1975 
Q 2488 2216 2034 2216 
z
M 1403 2484 
Q 997 2584 770 2862 
Q 544 3141 544 3541 
Q 544 4100 942 4425 
Q 1341 4750 2034 4750 
Q 2731 4750 3128 4425 
Q 3525 4100 3525 3541 
Q 3525 3141 3298 2862 
Q 3072 2584 2669 2484 
Q 3125 2378 3379 2068 
Q 3634 1759 3634 1313 
Q 3634 634 3220 271 
Q 2806 -91 2034 -91 
Q 1263 -91 848 271 
Q 434 634 434 1313 
Q 434 1759 690 2068 
Q 947 2378 1403 2484 
z
M 1172 3481 
Q 1172 3119 1398 2916 
Q 1625 2713 2034 2713 
Q 2441 2713 2670 2916 
Q 2900 3119 2900 3481 
Q 2900 3844 2670 4047 
Q 2441 4250 2034 4250 
Q 1625 4250 1398 4047 
Q 1172 3844 1172 3481 
z
" transform="scale(0.015625)"/>
       </defs>
       <use xlink:href="#DejaVuSans-30"/>
       <use xlink:href="#DejaVuSans-2e" x="63.623047"/>
       <use xlink:href="#DejaVuSans-30" x="95.410156"/>
       <use xlink:href="#DejaVuSans-30" x="159.033203"/>
       <use xlink:href="#DejaVuSans-38" x="222.65625"/>
      </g>
     </g>
    </g>
    <g id="ytick_6">
     <g id="line2d_13">
      <g>
       <use xlink:href="#m506ed21c27" x="90" y="49.402065" style="stroke: #000000; stroke-width: 0.8"/>
      </g>
     </g>
     <g id="text_12">
      <!-- 0.010 -->
      <g transform="translate(54.371875 53.201284) scale(0.1 -0.1)">
       <use xlink:href="#DejaVuSans-30"/>
       <use xlink:href="#DejaVuSans-2e" x="63.623047"/>
       <use xlink:href="#DejaVuSans-30" x="95.410156"/>
       <use xlink:href="#DejaVuSans-31" x="159.033203"/>
       <use xlink:href="#DejaVuSans-30" x="222.65625"/>
      </g>
     </g>
    </g>
   </g>
  </g>
 </g>
 <defs>
  <clipPath id="p7dc297af4c">
   <rect x="90" y="25.92" width="558" height="166.32"/>
  </clipPath>
 </defs>
</svg>
