<?xml version="1.0" encoding="utf-8" standalone="no"?>
<!DOCTYPE svg PUBLIC "-//W3C//DTD SVG 1.1//EN"
  "http://www.w3.org/Graphics/SVG/1.1/DTD/svg11.dtd">
<svg xmlns:xlink="http://www.w3.org/1999/xlink" width="720pt" height="216pt" viewBox="0 0 720 216" xmlns="http://www.w3.org/2000/svg" version="1.1">
 <metadata>
  <rdf:RDF xmlns:dc="http://purl.org/dc/elements/1.1/" xmlns:cc="http://creativecommons.org/ns#" xmlns:rdf="http://www.w3.org/1999/02/22-rdf-syntax-ns#">
   <cc:Work>
    <dc:type rdf:resource="http://purl.org/dc/dcmitype/StillImage"/>
    <dc:date>2024-11-23T04:41:57.722413</dc:date>
    <dc:format>image/svg+xml</dc:format>
    <dc:creator>
     <cc:Agent>
      <dc:title>Matplotlib v3.7.2, https://matplotlib.org/</dc:title>
     </cc:Agent>
    </dc:creator>
   </cc:Work>
  </rdf:RDF>
 </metadata>
 <defs>
  <style type="text/css">*{stroke-linejoin: round; stroke-linecap: butt}</style>
 </defs>
 <g id="figure_1">
  <g id="patch_1">
   <path d="M 0 216 
L 720 216 
L 720 0 
L 0 0 
z
" style="fill: #ffffff"/>
  </g>
  <g id="axes_1">
   <g id="patch_2">
    <path d="M 90 192.24 
L 648 192.24 
L 648 25.92 
L 90 25.92 
z
" style="fill: #ffffff"/>
   </g>
   <g id="line2d_1">
    <path d="M 90 70.78016 
L 648 70.78016 
" clip-path="url(#p2e7fd97866)" style="fill: none; stroke: #000000; stroke-width: 0.5; stroke-linecap: square"/>
   </g>
   <g id="patch_3">
    <path d="M 114.150342 70.590248 
Q 112.130207 70.684383 109.945785 70.731998 
Q 107.761362 70.78016 105.382228 70.78016 
Q 98.287419 70.78016 94.143709 70.423322 
Q 90 70.066485 90 69.456249 
Q 90 68.843825 94.143709 68.487535 
Q 98.287419 68.130697 105.382228 68.130697 
Q 107.761362 68.130697 109.945785 68.178859 
Q 112.130207 68.226474 114.150342 68.320609 
L 114.150342 68.84875 
Q 112.111953 68.723967 110.134412 68.665953 
Q 108.156871 68.60794 105.972448 68.60794 
Q 102.053874 68.60794 99.808604 68.833973 
Q 97.569419 69.059459 97.569419 69.456249 
Q 97.569419 69.851397 99.808604 70.077431 
Q 102.053874 70.302917 105.972448 70.302917 
Q 108.156871 70.302917 110.134412 70.244904 
Q 112.111953 70.186343 114.150342 70.061559 
L 114.150342 70.590248 
z
" clip-path="url(#p2e7fd97866)" style="fill: #0000ff"/>
   </g>
   <g id="patch_4">
    <path d="M 114.150342 67.75416 
Q 111.71474 67.942428 109.095116 68.036993 
Q 106.475491 68.130697 103.682668 68.130697 
Q 97.371754 68.130697 93.685877 67.570189 
Q 90 67.009681 90 66.051144 
Q 90 65.08143 93.750826 64.525221 
Q 97.507065 63.969011 104.039889 63.969011 
Q 106.556678 63.969011 108.86238 64.044662 
Q 111.173495 64.119454 113.219401 64.267318 
L 113.219401 65.096904 
Q 111.108546 64.906916 109.019341 64.813212 
Q 106.930136 64.718647 104.830107 64.718647 
Q 100.943969 64.718647 98.838527 65.064237 
Q 96.733085 65.408966 96.733085 66.051144 
Q 96.733085 66.687303 98.762753 67.034612 
Q 100.792421 67.381061 104.52701 67.381061 
Q 105.54455 67.381061 106.415954 67.361288 
Q 107.287358 67.340656 107.980151 67.297672 
L 107.980151 66.518807 
L 104.002002 66.518807 
L 104.002002 65.825049 
L 114.150342 65.825049 
L 114.150342 67.75416 
z
" clip-path="url(#p2e7fd97866)" style="fill: #ffa600"/>
   </g>
   <g id="patch_5">
    <path d="M 106.728963 61.606964 
L 97.44113 61.606964 
L 95.97463 63.969011 
L 90 63.969011 
L 98.532364 51.002762 
L 105.617978 51.002762 
L 114.150342 63.969011 
L 108.18065 63.969011 
L 106.728963 61.606964 
z
M 98.922443 59.200455 
L 105.232837 59.200455 
L 102.082577 54.042855 
L 98.922443 59.200455 
z
" clip-path="url(#p2e7fd97866)" style="fill: #008000"/>
   </g>
   <g id="patch_6">
    <path d="M 90 37.522325 
L 114.150342 37.522325 
L 114.150342 40.151385 
L 105.461835 40.151385 
L 105.461835 51.002762 
L 98.705356 51.002762 
L 98.705356 40.151385 
L 90 40.151385 
L 90 37.522325 
z
" clip-path="url(#p2e7fd97866)" style="fill: #ff0000"/>
   </g>
   <g id="patch_7">
    <path d="M 115.421412 65.785862 
L 139.571754 65.785862 
L 139.571754 66.759889 
L 130.883247 66.759889 
L 130.883247 70.78016 
L 124.126768 70.78016 
L 124.126768 66.759889 
L 115.421412 66.759889 
L 115.421412 65.785862 
z
" clip-path="url(#p2e7fd97866)" style="fill: #ff0000"/>
   </g>
   <g id="patch_8">
    <path d="M 139.571754 65.284365 
Q 137.136153 65.535113 134.516528 65.66106 
Q 131.896903 65.785862 129.10408 65.785862 
Q 122.793166 65.785862 119.107289 65.039341 
Q 115.421412 64.292821 115.421412 63.016179 
Q 115.421412 61.724652 119.172239 60.983856 
Q 122.928477 60.243061 129.461302 60.243061 
Q 131.97809 60.243061 134.283793 60.343818 
Q 136.594908 60.44343 138.640813 60.640365 
L 138.640813 61.745262 
Q 136.529958 61.492223 134.440754 61.367421 
Q 132.351549 61.241475 130.251519 61.241475 
Q 126.365382 61.241475 124.259939 61.701753 
Q 122.154497 62.160886 122.154497 63.016179 
Q 122.154497 63.863457 124.184165 64.326025 
Q 126.213833 64.787448 129.948422 64.787448 
Q 130.965962 64.787448 131.837366 64.761113 
Q 132.70877 64.733634 133.401564 64.676386 
L 133.401564 63.639043 
L 129.423415 63.639043 
L 129.423415 62.715052 
L 139.571754 62.715052 
L 139.571754 65.284365 
z
" clip-path="url(#p2e7fd97866)" style="fill: #ffa600"/>
   </g>
   <g id="patch_9">
    <path d="M 139.571754 59.810756 
Q 137.55162 60.025039 135.367197 60.133427 
Q 133.182775 60.243061 130.803641 60.243061 
Q 123.708831 60.243061 119.565122 59.430776 
Q 115.421412 58.618491 115.421412 57.229383 
Q 115.421412 55.835293 119.565122 55.024254 
Q 123.708831 54.211969 130.803641 54.211969 
Q 133.182775 54.211969 135.367197 54.321602 
Q 137.55162 54.42999 139.571754 54.644274 
L 139.571754 55.846505 
Q 137.533365 55.562455 135.555824 55.430396 
Q 133.578283 55.298338 131.393861 55.298338 
Q 127.475287 55.298338 125.230017 55.812868 
Q 122.990832 56.326152 122.990832 57.229383 
Q 122.990832 58.128877 125.230017 58.643407 
Q 127.475287 59.156692 131.393861 59.156692 
Q 133.578283 59.156692 135.555824 59.024633 
Q 137.533365 58.891329 139.571754 58.607278 
L 139.571754 59.810756 
z
" clip-path="url(#p2e7fd97866)" style="fill: #0000ff"/>
   </g>
   <g id="patch_10">
    <path d="M 132.150375 51.795909 
L 122.862542 51.795909 
L 121.396042 54.211969 
L 115.421412 54.211969 
L 123.953776 40.949225 
L 131.03939 40.949225 
L 139.571754 54.211969 
L 133.602062 54.211969 
L 132.150375 51.795909 
z
M 124.343855 49.334372 
L 130.654249 49.334372 
L 127.50399 44.058836 
L 124.343855 49.334372 
z
" clip-path="url(#p2e7fd97866)" style="fill: #008000"/>
   </g>
   <g id="patch_11">
    <path d="M 164.993166 70.765492 
Q 162.557565 70.772826 159.93794 70.776509 
Q 157.318315 70.78016 154.525492 70.78016 
Q 148.214578 70.78016 144.528701 70.758325 
Q 140.842825 70.736491 140.842825 70.699152 
Q 140.842825 70.661377 144.593651 70.63971 
Q 148.34989 70.618043 154.882714 70.618043 
Q 157.399502 70.618043 159.705205 70.62099 
Q 162.01632 70.623903 164.062225 70.629663 
L 164.062225 70.66198 
Q 161.951371 70.654579 159.862166 70.650928 
Q 157.772961 70.647245 155.672931 70.647245 
Q 151.786794 70.647245 149.681352 70.660707 
Q 147.57591 70.674136 147.57591 70.699152 
Q 147.57591 70.723933 149.605577 70.737462 
Q 151.635245 70.750958 155.369834 70.750958 
Q 156.387374 70.750958 157.258779 70.750188 
Q 158.130183 70.749384 158.822976 70.74771 
L 158.822976 70.717369 
L 154.844827 70.717369 
L 154.844827 70.690344 
L 164.993166 70.690344 
L 164.993166 70.765492 
z
" clip-path="url(#p2e7fd97866)" style="fill: #ffa600"/>
   </g>
   <g id="patch_12">
    <path d="M 164.993166 70.197421 
Q 162.973032 70.405914 160.788609 70.511372 
Q 158.604187 70.618043 156.225053 70.618043 
Q 149.130243 70.618043 144.986534 69.82771 
Q 140.842825 69.037377 140.842825 67.68581 
Q 140.842825 66.329395 144.986534 65.540274 
Q 149.130243 64.749941 156.225053 64.749941 
Q 158.604187 64.749941 160.788609 64.856612 
Q 162.973032 64.962071 164.993166 65.170563 
L 164.993166 66.340305 
Q 162.954778 66.063931 160.977236 65.935441 
Q 158.999695 65.806951 156.815273 65.806951 
Q 152.896699 65.806951 150.651429 66.307576 
Q 148.412244 66.806989 148.412244 67.68581 
Q 148.412244 68.560995 150.651429 69.06162 
Q 152.896699 69.561033 156.815273 69.561033 
Q 158.999695 69.561033 160.977236 69.432543 
Q 162.954778 69.302842 164.993166 69.026467 
L 164.993166 70.197421 
z
" clip-path="url(#p2e7fd97866)" style="fill: #0000ff"/>
   </g>
   <g id="patch_13">
    <path d="M 157.571788 63.41569 
L 148.283954 63.41569 
L 146.817454 64.749941 
L 140.842825 64.749941 
L 149.375188 57.425686 
L 156.460803 57.425686 
L 164.993166 64.749941 
L 159.023474 64.749941 
L 157.571788 63.41569 
z
M 149.765267 62.056323 
L 156.075661 62.056323 
L 152.925402 59.142946 
L 149.765267 62.056323 
z
" clip-path="url(#p2e7fd97866)" style="fill: #008000"/>
   </g>
   <g id="patch_14">
    <path d="M 140.842825 48.428577 
L 164.993166 48.428577 
L 164.993166 50.183264 
L 156.30466 50.183264 
L 156.30466 57.425686 
L 149.54818 57.425686 
L 149.54818 50.183264 
L 140.842825 50.183264 
L 140.842825 48.428577 
z
" clip-path="url(#p2e7fd97866)" style="fill: #ff0000"/>
   </g>
   <g id="patch_15">
    <path d="M 190.414579 70.729519 
Q 188.394444 70.75462 186.210022 70.767317 
Q 184.025599 70.78016 181.646465 70.78016 
Q 174.551656 70.78016 170.407946 70.685007 
Q 166.264237 70.589855 166.264237 70.427132 
Q 166.264237 70.263826 170.407946 70.168819 
Q 174.551656 70.073667 181.646465 70.073667 
Q 184.025599 70.073667 186.210022 70.08651 
Q 188.394444 70.099206 190.414579 70.124308 
L 190.414579 70.265139 
Q 188.37619 70.231865 186.398649 70.216396 
Q 184.421108 70.200926 182.236685 70.200926 
Q 178.318111 70.200926 176.072841 70.261199 
Q 173.833656 70.321326 173.833656 70.427132 
Q 173.833656 70.5325 176.072841 70.592773 
Q 178.318111 70.652901 182.236685 70.652901 
Q 184.421108 70.652901 186.398649 70.637431 
Q 188.37619 70.621815 190.414579 70.588541 
L 190.414579 70.729519 
z
" clip-path="url(#p2e7fd97866)" style="fill: #0000ff"/>
   </g>
   <g id="patch_16">
    <path d="M 190.414579 69.965505 
Q 187.978977 70.019586 185.359352 70.04675 
Q 182.739728 70.073667 179.946905 70.073667 
Q 173.635991 70.073667 169.950114 69.912659 
Q 166.264237 69.751651 166.264237 69.476308 
Q 166.264237 69.197754 170.015063 69.037981 
Q 173.771302 68.878208 180.304126 68.878208 
Q 182.820914 68.878208 185.126617 68.899939 
Q 187.437732 68.921423 189.483638 68.963897 
L 189.483638 69.202199 
Q 187.372783 69.147624 185.283578 69.120707 
Q 183.194373 69.093543 181.094344 69.093543 
Q 177.208206 69.093543 175.102764 69.192815 
Q 172.997322 69.29184 172.997322 69.476308 
Q 172.997322 69.659047 175.02699 69.758812 
Q 177.056658 69.858331 180.791247 69.858331 
Q 181.808787 69.858331 182.680191 69.852651 
Q 183.551595 69.846725 184.244388 69.834378 
L 184.244388 69.610646 
L 180.266239 69.610646 
L 180.266239 69.411361 
L 190.414579 69.411361 
L 190.414579 69.965505 
z
" clip-path="url(#p2e7fd97866)" style="fill: #ffa600"/>
   </g>
   <g id="patch_17">
    <path d="M 182.9932 66.331665 
L 173.705367 66.331665 
L 172.238867 68.878208 
L 166.264237 68.878208 
L 174.796601 54.899189 
L 181.882215 54.899189 
L 190.414579 68.878208 
L 184.444887 68.878208 
L 182.9932 66.331665 
z
M 175.18668 63.737188 
L 181.497074 63.737188 
L 178.346814 58.176738 
L 175.18668 63.737188 
z
" clip-path="url(#p2e7fd97866)" style="fill: #008000"/>
   </g>
   <g id="patch_18">
    <path d="M 166.264237 38.640236 
L 190.414579 38.640236 
L 190.414579 41.811185 
L 181.726072 41.811185 
L 181.726072 54.899189 
L 174.969593 54.899189 
L 174.969593 41.811185 
L 166.264237 41.811185 
L 166.264237 38.640236 
z
" clip-path="url(#p2e7fd97866)" style="fill: #ff0000"/>
   </g>
   <g id="patch_19">
    <path d="M 215.835991 70.354309 
Q 213.400389 70.567234 210.780765 70.674183 
Q 208.16114 70.78016 205.368317 70.78016 
Q 199.057403 70.78016 195.371526 70.146245 
Q 191.685649 69.51233 191.685649 68.428257 
Q 191.685649 67.331545 195.436475 66.702492 
Q 199.192714 66.073438 205.725539 66.073438 
Q 208.242327 66.073438 210.548029 66.158997 
Q 212.859145 66.243584 214.90505 66.410813 
L 214.90505 67.349046 
Q 212.794195 67.134176 210.70499 67.028199 
Q 208.615786 66.921251 206.515756 66.921251 
Q 202.629618 66.921251 200.524176 67.3121 
Q 198.418734 67.701977 198.418734 68.428257 
Q 198.418734 69.147731 200.448402 69.540525 
Q 202.47807 69.932347 206.212659 69.932347 
Q 207.230199 69.932347 208.101603 69.909985 
Q 208.973007 69.886651 209.6658 69.838037 
L 209.6658 68.957168 
L 205.687651 68.957168 
L 205.687651 68.172552 
L 215.835991 68.172552 
L 215.835991 70.354309 
z
" clip-path="url(#p2e7fd97866)" style="fill: #ffa600"/>
   </g>
   <g id="patch_20">
    <path d="M 208.414612 64.084693 
L 199.126779 64.084693 
L 197.660279 66.073438 
L 191.685649 66.073438 
L 200.218013 55.1564 
L 207.303627 55.1564 
L 215.835991 66.073438 
L 209.866299 66.073438 
L 208.414612 64.084693 
z
M 200.608092 62.058514 
L 206.918486 62.058514 
L 203.768227 57.716031 
L 200.608092 62.058514 
z
" clip-path="url(#p2e7fd97866)" style="fill: #008000"/>
   </g>
   <g id="patch_21">
    <path d="M 191.685649 32.196158 
L 215.835991 32.196158 
L 215.835991 36.674045 
L 207.147484 36.674045 
L 207.147484 55.1564 
L 200.391005 55.1564 
L 200.391005 36.674045 
L 191.685649 36.674045 
L 191.685649 32.196158 
z
" clip-path="url(#p2e7fd97866)" style="fill: #ff0000"/>
   </g>
   <g id="patch_22">
    <path d="M 241.257403 70.706185 
Q 239.237269 70.742852 237.052846 70.761399 
Q 234.868424 70.78016 232.48929 70.78016 
Q 225.39448 70.78016 221.250771 70.641164 
Q 217.107062 70.502168 217.107062 70.264468 
Q 217.107062 70.025915 221.250771 69.887132 
Q 225.39448 69.748136 232.48929 69.748136 
Q 234.868424 69.748136 237.052846 69.766896 
Q 239.237269 69.785443 241.257403 69.822111 
L 241.257403 70.027834 
Q 239.219015 69.979228 237.241473 69.95663 
Q 235.263932 69.934033 233.07951 69.934033 
Q 229.160936 69.934033 226.915666 70.022078 
Q 224.676481 70.109909 224.676481 70.264468 
Q 224.676481 70.418387 226.915666 70.506432 
Q 229.160936 70.594263 233.07951 70.594263 
Q 235.263932 70.594263 237.241473 70.571666 
Q 239.219015 70.548855 241.257403 70.500249 
L 241.257403 70.706185 
z
" clip-path="url(#p2e7fd97866)" style="fill: #0000ff"/>
   </g>
   <g id="patch_23">
    <path d="M 233.836024 69.444157 
L 224.548191 69.444157 
L 223.081691 69.748136 
L 217.107062 69.748136 
L 225.639425 68.079469 
L 232.72504 68.079469 
L 241.257403 69.748136 
L 235.287711 69.748136 
L 233.836024 69.444157 
z
M 226.029504 69.134456 
L 232.339898 69.134456 
L 229.189639 68.470708 
L 226.029504 69.134456 
z
" clip-path="url(#p2e7fd97866)" style="fill: #008000"/>
   </g>
   <g id="patch_24">
    <path d="M 217.107062 53.982864 
L 241.257403 53.982864 
L 241.257403 56.732095 
L 232.568897 56.732095 
L 232.568897 68.079469 
L 225.812417 68.079469 
L 225.812417 56.732095 
L 217.107062 56.732095 
L 217.107062 53.982864 
z
" clip-path="url(#p2e7fd97866)" style="fill: #ff0000"/>
   </g>
   <g id="patch_25">
    <path d="M 241.257403 51.622794 
Q 238.821802 52.802829 236.202177 53.395541 
Q 233.582552 53.982864 230.789729 53.982864 
Q 224.478815 53.982864 220.792938 50.469701 
Q 217.107062 46.956537 217.107062 40.948596 
Q 217.107062 34.870607 220.857888 31.384385 
Q 224.614126 27.898163 231.146951 27.898163 
Q 233.663739 27.898163 235.969442 28.372332 
Q 238.280557 28.841113 240.326462 29.767899 
L 240.326462 34.967597 
Q 238.215608 33.776785 236.126403 33.189462 
Q 234.037198 32.59675 231.937168 32.59675 
Q 228.051031 32.59675 225.945589 34.762842 
Q 223.840146 36.923545 223.840146 40.948596 
Q 223.840146 44.935929 225.869814 47.112797 
Q 227.899482 49.284277 231.634071 49.284277 
Q 232.651611 49.284277 233.523015 49.160347 
Q 234.394419 49.031028 235.087213 48.761613 
L 235.087213 43.879825 
L 231.109064 43.879825 
L 231.109064 39.531476 
L 241.257403 39.531476 
L 241.257403 51.622794 
z
" clip-path="url(#p2e7fd97866)" style="fill: #ffa600"/>
   </g>
   <g id="patch_26">
    <path d="M 259.257437 70.419376 
L 249.969603 70.419376 
L 248.503103 70.78016 
L 242.528474 70.78016 
L 251.060837 68.799671 
L 258.146452 68.799671 
L 266.678815 70.78016 
L 260.709124 70.78016 
L 259.257437 70.419376 
z
M 251.450917 70.051801 
L 257.76131 70.051801 
L 254.611051 69.26402 
L 251.450917 70.051801 
z
" clip-path="url(#p2e7fd97866)" style="fill: #008000"/>
   </g>
   <g id="patch_27">
    <path d="M 266.678815 68.510753 
Q 264.658681 68.653963 262.474259 68.7264 
Q 260.289836 68.799671 257.910702 68.799671 
Q 250.815893 68.799671 246.672183 68.256805 
Q 242.528474 67.71394 242.528474 66.785574 
Q 242.528474 65.853878 246.672183 65.311845 
Q 250.815893 64.76898 257.910702 64.76898 
Q 260.289836 64.76898 262.474259 64.84225 
Q 264.658681 64.914688 266.678815 65.057898 
L 266.678815 65.861371 
Q 264.640427 65.671535 262.662886 65.583278 
Q 260.685344 65.495021 258.500922 65.495021 
Q 254.582348 65.495021 252.337078 65.838891 
Q 250.097893 66.181928 250.097893 66.785574 
Q 250.097893 67.386722 252.337078 67.730593 
Q 254.582348 68.07363 258.500922 68.07363 
Q 260.685344 68.07363 262.662886 67.985373 
Q 264.640427 67.896283 266.678815 67.706447 
L 266.678815 68.510753 
z
" clip-path="url(#p2e7fd97866)" style="fill: #0000ff"/>
   </g>
   <g id="patch_28">
    <path d="M 242.528474 59.568667 
L 266.678815 59.568667 
L 266.678815 60.582873 
L 257.990309 60.582873 
L 257.990309 64.76898 
L 251.23383 64.76898 
L 251.23383 60.582873 
L 242.528474 60.582873 
L 242.528474 59.568667 
z
" clip-path="url(#p2e7fd97866)" style="fill: #ff0000"/>
   </g>
   <g id="patch_29">
    <path d="M 266.678815 56.524231 
Q 264.243214 58.046449 261.623589 58.811034 
Q 259.003965 59.568667 256.211142 59.568667 
Q 249.900228 59.568667 246.214351 55.036767 
Q 242.528474 50.504866 242.528474 42.75476 
Q 242.528474 34.914294 246.2793 30.417147 
Q 250.035539 25.92 256.568363 25.92 
Q 259.085151 25.92 261.390854 26.531668 
Q 263.701969 27.136384 265.747874 28.331916 
L 265.747874 35.039407 
Q 263.63702 33.503288 261.547815 32.745654 
Q 259.45861 31.98107 257.358581 31.98107 
Q 253.472443 31.98107 251.367001 34.775278 
Q 249.261559 37.562536 249.261559 42.75476 
Q 249.261559 47.898328 251.291227 50.706438 
Q 253.320895 53.507598 257.055483 53.507598 
Q 258.073024 53.507598 258.944428 53.34773 
Q 259.815832 53.180912 260.508625 52.833373 
L 260.508625 46.535977 
L 256.530476 46.535977 
L 256.530476 40.926708 
L 266.678815 40.926708 
L 266.678815 56.524231 
z
" clip-path="url(#p2e7fd97866)" style="fill: #ffa600"/>
   </g>
   <g id="patch_30">
    <path d="M 267.949886 67.789776 
L 292.100228 67.789776 
L 292.100228 68.372984 
L 283.411721 68.372984 
L 283.411721 70.78016 
L 276.655242 70.78016 
L 276.655242 68.372984 
L 267.949886 68.372984 
L 267.949886 67.789776 
z
" clip-path="url(#p2e7fd97866)" style="fill: #ff0000"/>
   </g>
   <g id="patch_31">
    <path d="M 292.100228 67.45431 
Q 290.080093 67.620593 287.895671 67.704701 
Q 285.711249 67.789776 283.332114 67.789776 
Q 276.237305 67.789776 272.093596 67.159447 
Q 267.949886 66.529118 267.949886 65.451178 
Q 267.949886 64.369371 272.093596 63.740009 
Q 276.237305 63.10968 283.332114 63.10968 
Q 285.711249 63.10968 287.895671 63.194755 
Q 290.080093 63.278863 292.100228 63.445147 
L 292.100228 64.378072 
Q 290.061839 64.15765 288.084298 64.055174 
Q 286.106757 63.952697 283.922334 63.952697 
Q 280.00376 63.952697 277.75849 64.35197 
Q 275.519305 64.750276 275.519305 65.451178 
Q 275.519305 66.149181 277.75849 66.548454 
Q 280.00376 66.94676 283.922334 66.94676 
Q 286.106757 66.94676 288.084298 66.844283 
Q 290.061839 66.740839 292.100228 66.520417 
L 292.100228 67.45431 
z
" clip-path="url(#p2e7fd97866)" style="fill: #0000ff"/>
   </g>
   <g id="patch_32">
    <path d="M 292.100228 62.309428 
Q 289.664626 62.709554 287.045002 62.910531 
Q 284.425377 63.10968 281.632554 63.10968 
Q 275.32164 63.10968 271.635763 61.918437 
Q 267.949886 60.727195 267.949886 58.690024 
Q 267.949886 56.629101 271.700712 55.446993 
Q 275.456951 54.264886 281.989775 54.264886 
Q 284.506564 54.264886 286.812266 54.425667 
Q 289.123382 54.584621 291.169287 54.898875 
L 291.169287 56.661988 
Q 289.058432 56.258208 286.969227 56.059058 
Q 284.880023 55.858082 282.779993 55.858082 
Q 278.893855 55.858082 276.788413 56.592559 
Q 274.682971 57.32521 274.682971 58.690024 
Q 274.682971 60.042047 276.712639 60.780179 
Q 278.742307 61.516484 282.476896 61.516484 
Q 283.494436 61.516484 284.36584 61.474462 
Q 285.237244 61.430613 285.930037 61.33926 
L 285.930037 59.683944 
L 281.951888 59.683944 
L 281.951888 58.209507 
L 292.100228 58.209507 
L 292.100228 62.309428 
z
" clip-path="url(#p2e7fd97866)" style="fill: #ffa600"/>
   </g>
   <g id="patch_33">
    <path d="M 284.678849 51.593826 
L 275.391016 51.593826 
L 273.924516 54.264886 
L 267.949886 54.264886 
L 276.48225 39.602337 
L 283.567864 39.602337 
L 292.100228 54.264886 
L 286.130536 54.264886 
L 284.678849 51.593826 
z
M 276.872329 48.872487 
L 283.182723 48.872487 
L 280.032464 43.040148 
L 276.872329 48.872487 
z
" clip-path="url(#p2e7fd97866)" style="fill: #008000"/>
   </g>
   <g id="patch_34">
    <path d="M 317.52164 70.6447 
Q 315.501506 70.711844 313.317083 70.745807 
Q 311.132661 70.78016 308.753527 70.78016 
Q 301.658717 70.78016 297.515008 70.525636 
Q 293.371298 70.271112 293.371298 69.835846 
Q 293.371298 69.399018 297.515008 69.144885 
Q 301.658717 68.890361 308.753527 68.890361 
Q 311.132661 68.890361 313.317083 68.924714 
Q 315.501506 68.958676 317.52164 69.025821 
L 317.52164 69.402531 
Q 315.483251 69.313526 313.50571 69.272146 
Q 311.528169 69.230767 309.343747 69.230767 
Q 305.425173 69.230767 303.179903 69.391991 
Q 300.940718 69.552825 300.940718 69.835846 
Q 300.940718 70.117696 303.179903 70.27892 
Q 305.425173 70.439754 309.343747 70.439754 
Q 311.528169 70.439754 313.50571 70.398374 
Q 315.483251 70.356604 317.52164 70.267599 
L 317.52164 70.6447 
z
" clip-path="url(#p2e7fd97866)" style="fill: #0000ff"/>
   </g>
   <g id="patch_35">
    <path d="M 293.371298 66.226148 
L 317.52164 66.226148 
L 317.52164 66.745744 
L 308.833133 66.745744 
L 308.833133 68.890361 
L 302.076654 68.890361 
L 302.076654 66.745744 
L 293.371298 66.745744 
L 293.371298 66.226148 
z
" clip-path="url(#p2e7fd97866)" style="fill: #ff0000"/>
   </g>
   <g id="patch_36">
    <path d="M 310.100261 61.485445 
L 300.812428 61.485445 
L 299.345928 66.226148 
L 293.371298 66.226148 
L 301.903662 40.202477 
L 308.989276 40.202477 
L 317.52164 66.226148 
L 311.551948 66.226148 
L 310.100261 61.485445 
z
M 302.293741 56.655505 
L 308.604135 56.655505 
L 305.453876 46.30404 
L 302.293741 56.655505 
z
" clip-path="url(#p2e7fd97866)" style="fill: #008000"/>
   </g>
   <g id="patch_37">
    <path d="M 342.943052 70.748948 
Q 340.922918 70.764419 338.738496 70.772244 
Q 336.554073 70.78016 334.174939 70.78016 
Q 327.08013 70.78016 322.93642 70.721514 
Q 318.792711 70.662869 318.792711 70.562579 
Q 318.792711 70.461928 322.93642 70.403373 
Q 327.08013 70.344728 334.174939 70.344728 
Q 336.554073 70.344728 338.738496 70.352643 
Q 340.922918 70.360468 342.943052 70.375939 
L 342.943052 70.462738 
Q 340.904664 70.44223 338.927123 70.432695 
Q 336.949581 70.423161 334.765159 70.423161 
Q 330.846585 70.423161 328.601315 70.460309 
Q 326.36213 70.497367 326.36213 70.562579 
Q 326.36213 70.62752 328.601315 70.664668 
Q 330.846585 70.701726 334.765159 70.701726 
Q 336.949581 70.701726 338.927123 70.692192 
Q 340.904664 70.682567 342.943052 70.66206 
L 342.943052 70.748948 
z
" clip-path="url(#p2e7fd97866)" style="fill: #0000ff"/>
   </g>
   <g id="patch_38">
    <path d="M 335.521674 69.367622 
L 326.23384 69.367622 
L 324.76734 70.344728 
L 318.792711 70.344728 
L 327.325074 64.98099 
L 334.410689 64.98099 
L 342.943052 70.344728 
L 336.97336 70.344728 
L 335.521674 69.367622 
z
M 327.715153 68.372123 
L 334.025547 68.372123 
L 330.875288 66.238583 
L 327.715153 68.372123 
z
" clip-path="url(#p2e7fd97866)" style="fill: #008000"/>
   </g>
   <g id="patch_39">
    <path d="M 318.792711 58.145335 
L 342.943052 58.145335 
L 342.943052 59.478478 
L 334.254546 59.478478 
L 334.254546 64.98099 
L 327.498066 64.98099 
L 327.498066 59.478478 
L 318.792711 59.478478 
L 318.792711 58.145335 
z
" clip-path="url(#p2e7fd97866)" style="fill: #ff0000"/>
   </g>
   <g id="patch_40">
    <path d="M 368.364465 70.618392 
Q 366.34433 70.698576 364.159908 70.739135 
Q 361.975485 70.78016 359.596351 70.78016 
Q 352.501542 70.78016 348.357832 70.476204 
Q 344.214123 70.172248 344.214123 69.652446 
Q 344.214123 69.13078 348.357832 68.827291 
Q 352.501542 68.523335 359.596351 68.523335 
Q 361.975485 68.523335 364.159908 68.564359 
Q 366.34433 68.604918 368.364465 68.685103 
L 368.364465 69.134976 
Q 366.326076 69.028685 364.348535 68.979268 
Q 362.370994 68.929852 360.186571 68.929852 
Q 356.267997 68.929852 354.022727 69.122389 
Q 351.783542 69.314459 351.783542 69.652446 
Q 351.783542 69.989036 354.022727 70.181572 
Q 356.267997 70.373642 360.186571 70.373642 
Q 362.370994 70.373642 364.348535 70.324226 
Q 366.326076 70.274344 368.364465 70.168052 
L 368.364465 70.618392 
z
" clip-path="url(#p2e7fd97866)" style="fill: #0000ff"/>
   </g>
   <g id="patch_41">
    <path d="M 344.214123 65.598845 
L 368.364465 65.598845 
L 368.364465 66.169202 
L 359.675958 66.169202 
L 359.675958 68.523335 
L 352.919479 68.523335 
L 352.919479 66.169202 
L 344.214123 66.169202 
L 344.214123 65.598845 
z
" clip-path="url(#p2e7fd97866)" style="fill: #ff0000"/>
   </g>
   <g id="patch_42">
    <path d="M 360.943086 64.697686 
L 351.655253 64.697686 
L 350.188753 65.598845 
L 344.214123 65.598845 
L 352.746487 60.652009 
L 359.832101 60.652009 
L 368.364465 65.598845 
L 362.394773 65.598845 
L 360.943086 64.697686 
z
M 353.136566 63.779563 
L 359.44696 63.779563 
L 356.2967 61.811855 
L 353.136566 63.779563 
z
" clip-path="url(#p2e7fd97866)" style="fill: #008000"/>
   </g>
   <g id="patch_43">
    <path d="M 393.785877 70.706231 
Q 391.765743 70.742876 389.58132 70.761411 
Q 387.396898 70.78016 385.017764 70.78016 
Q 377.922954 70.78016 373.779245 70.64125 
Q 369.635535 70.50234 369.635535 70.264787 
Q 369.635535 70.026382 373.779245 69.887685 
Q 377.922954 69.748775 385.017764 69.748775 
Q 387.396898 69.748775 389.58132 69.767524 
Q 391.765743 69.786059 393.785877 69.822704 
L 393.785877 70.028299 
Q 391.747488 69.979723 389.769947 69.95714 
Q 387.792406 69.934556 385.607984 69.934556 
Q 381.68941 69.934556 379.44414 70.022547 
Q 377.204955 70.110324 377.204955 70.264787 
Q 377.204955 70.41861 379.44414 70.506601 
Q 381.68941 70.594378 385.607984 70.594378 
Q 387.792406 70.594378 389.769947 70.571795 
Q 391.747488 70.548998 393.785877 70.500422 
L 393.785877 70.706231 
z
" clip-path="url(#p2e7fd97866)" style="fill: #0000ff"/>
   </g>
   <g id="patch_44">
    <path d="M 386.364498 69.113741 
L 377.076665 69.113741 
L 375.610165 69.748775 
L 369.635535 69.748775 
L 378.167899 66.262809 
L 385.253513 66.262809 
L 393.785877 69.748775 
L 387.816185 69.748775 
L 386.364498 69.113741 
z
M 378.557978 68.466752 
L 384.868372 68.466752 
L 381.718113 67.080136 
L 378.557978 68.466752 
z
" clip-path="url(#p2e7fd97866)" style="fill: #008000"/>
   </g>
   <g id="patch_45">
    <path d="M 395.056948 70.343376 
L 419.207289 70.343376 
L 419.207289 70.428561 
L 410.518783 70.428561 
L 410.518783 70.78016 
L 403.762303 70.78016 
L 403.762303 70.428561 
L 395.056948 70.428561 
L 395.056948 70.343376 
z
" clip-path="url(#p2e7fd97866)" style="fill: #ff0000"/>
   </g>
   <g id="patch_46">
    <path d="M 437.207323 70.77846 
L 427.91949 70.77846 
L 426.45299 70.78016 
L 420.47836 70.78016 
L 429.010724 70.77083 
L 436.096338 70.77083 
L 444.628702 70.78016 
L 438.65901 70.78016 
L 437.207323 70.77846 
z
M 429.400803 70.776729 
L 435.711197 70.776729 
L 432.560937 70.773018 
L 429.400803 70.776729 
z
" clip-path="url(#p2e7fd97866)" style="fill: #008000"/>
   </g>
   <g id="patch_47">
    <path d="M 445.899772 70.331608 
L 470.050114 70.331608 
L 470.050114 70.419088 
L 461.361607 70.419088 
L 461.361607 70.78016 
L 454.605128 70.78016 
L 454.605128 70.419088 
L 445.899772 70.419088 
L 445.899772 70.331608 
z
" clip-path="url(#p2e7fd97866)" style="fill: #ff0000"/>
   </g>
   <g id="patch_48">
    <path d="M 462.628735 69.676771 
L 453.340902 69.676771 
L 451.874402 70.331608 
L 445.899772 70.331608 
L 454.432136 66.736934 
L 461.51775 66.736934 
L 470.050114 70.331608 
L 464.080422 70.331608 
L 462.628735 69.676771 
z
M 454.822215 69.009607 
L 461.132609 69.009607 
L 457.98235 67.579749 
L 454.822215 69.009607 
z
" clip-path="url(#p2e7fd97866)" style="fill: #008000"/>
   </g>
   <g id="patch_49">
    <path d="M 471.321185 67.39141 
L 495.471526 67.39141 
L 495.471526 68.052311 
L 486.78302 68.052311 
L 486.78302 70.78016 
L 480.02654 70.78016 
L 480.02654 68.052311 
L 471.321185 68.052311 
L 471.321185 67.39141 
z
" clip-path="url(#p2e7fd97866)" style="fill: #ff0000"/>
   </g>
   <g id="patch_50">
    <path d="M 488.050147 66.060199 
L 478.762314 66.060199 
L 477.295814 67.39141 
L 471.321185 67.39141 
L 479.853548 60.083843 
L 486.939163 60.083843 
L 495.471526 67.39141 
L 489.501834 67.39141 
L 488.050147 66.060199 
z
M 480.243627 64.703929 
L 486.554021 64.703929 
L 483.403762 61.797191 
L 480.243627 64.703929 
z
" clip-path="url(#p2e7fd97866)" style="fill: #008000"/>
   </g>
   <g id="patch_51">
    <path d="M 496.742597 69.903557 
L 520.892938 69.903557 
L 520.892938 70.074519 
L 512.204432 70.074519 
L 512.204432 70.78016 
L 505.447953 70.78016 
L 505.447953 70.074519 
L 496.742597 70.074519 
L 496.742597 69.903557 
z
" clip-path="url(#p2e7fd97866)" style="fill: #ff0000"/>
   </g>
   <g id="patch_52">
    <path d="M 513.47156 68.541895 
L 504.183726 68.541895 
L 502.717226 69.903557 
L 496.742597 69.903557 
L 505.27496 62.428834 
L 512.360575 62.428834 
L 520.892938 69.903557 
L 514.923247 69.903557 
L 513.47156 68.541895 
z
M 505.66504 67.154602 
L 511.975433 67.154602 
L 508.825174 64.181373 
L 505.66504 67.154602 
z
" clip-path="url(#p2e7fd97866)" style="fill: #008000"/>
   </g>
   <g id="patch_53">
    <path d="M 522.164009 70.420105 
L 546.314351 70.420105 
L 546.314351 70.490326 
L 537.625844 70.490326 
L 537.625844 70.78016 
L 530.869365 70.78016 
L 530.869365 70.490326 
L 522.164009 70.490326 
L 522.164009 70.420105 
z
" clip-path="url(#p2e7fd97866)" style="fill: #ff0000"/>
   </g>
   <g id="patch_54">
    <path d="M 538.892972 69.716136 
L 529.605139 69.716136 
L 528.138639 70.420105 
L 522.164009 70.420105 
L 530.696373 66.55573 
L 537.781987 66.55573 
L 546.314351 70.420105 
L 540.344659 70.420105 
L 538.892972 69.716136 
z
M 531.086452 68.998916 
L 537.396846 68.998916 
L 534.246587 67.461779 
L 531.086452 68.998916 
z
" clip-path="url(#p2e7fd97866)" style="fill: #008000"/>
   </g>
   <g id="patch_55">
    <path d="M 564.314384 68.872055 
L 555.026551 68.872055 
L 553.560051 70.78016 
L 547.585421 70.78016 
L 556.117785 60.305789 
L 563.203399 60.305789 
L 571.735763 70.78016 
L 565.766071 70.78016 
L 564.314384 68.872055 
z
M 556.507864 66.928034 
L 562.818258 66.928034 
L 559.667999 62.761632 
L 556.507864 66.928034 
z
" clip-path="url(#p2e7fd97866)" style="fill: #008000"/>
   </g>
   <g id="patch_56">
    <path d="M 573.006834 70.263473 
L 597.157175 70.263473 
L 597.157175 70.364241 
L 588.468669 70.364241 
L 588.468669 70.78016 
L 581.712189 70.78016 
L 581.712189 70.364241 
L 573.006834 70.364241 
L 573.006834 70.263473 
z
" clip-path="url(#p2e7fd97866)" style="fill: #ff0000"/>
   </g>
   <g id="patch_57">
    <path d="M 589.735797 69.177813 
L 580.447963 69.177813 
L 578.981463 70.263473 
L 573.006834 70.263473 
L 581.539197 64.303837 
L 588.624812 64.303837 
L 597.157175 70.263473 
L 591.187483 70.263473 
L 589.735797 69.177813 
z
M 581.929276 68.071716 
L 588.23967 68.071716 
L 585.089411 65.701145 
L 581.929276 68.071716 
z
" clip-path="url(#p2e7fd97866)" style="fill: #008000"/>
   </g>
   <g id="patch_58">
    <path d="M 598.428246 69.848865 
L 622.578588 69.848865 
L 622.578588 70.030494 
L 613.890081 70.030494 
L 613.890081 70.78016 
L 607.133602 70.78016 
L 607.133602 70.030494 
L 598.428246 70.030494 
L 598.428246 69.848865 
z
" clip-path="url(#p2e7fd97866)" style="fill: #ff0000"/>
   </g>
   <g id="patch_59">
    <path d="M 615.157209 68.398447 
L 605.869376 68.398447 
L 604.402876 69.848865 
L 598.428246 69.848865 
L 606.96061 61.886921 
L 614.046224 61.886921 
L 622.578588 69.848865 
L 616.608896 69.848865 
L 615.157209 68.398447 
z
M 607.350689 66.920726 
L 613.661083 66.920726 
L 610.510823 63.753695 
L 607.350689 66.920726 
z
" clip-path="url(#p2e7fd97866)" style="fill: #008000"/>
   </g>
   <g id="patch_60">
    <path d="M 648 70.711695 
Q 645.564399 70.745927 642.944774 70.763122 
Q 640.325149 70.78016 637.532326 70.78016 
Q 631.221412 70.78016 627.535535 70.678244 
Q 623.849658 70.576328 623.849658 70.40204 
Q 623.849658 70.22572 627.600485 70.124586 
Q 631.356723 70.023452 637.889548 70.023452 
Q 640.406336 70.023452 642.712039 70.037207 
Q 645.023154 70.050806 647.069059 70.077692 
L 647.069059 70.228533 
Q 644.958204 70.193988 642.869 70.17695 
Q 640.779795 70.159756 638.679765 70.159756 
Q 634.793628 70.159756 632.688185 70.222594 
Q 630.582743 70.285275 630.582743 70.40204 
Q 630.582743 70.517711 632.612411 70.580861 
Q 634.642079 70.643855 638.376668 70.643855 
Q 639.394208 70.643855 640.265612 70.64026 
Q 641.137016 70.636509 641.82981 70.628693 
L 641.82981 70.487074 
L 637.851661 70.487074 
L 637.851661 70.36093 
L 648 70.36093 
L 648 70.711695 
z
" clip-path="url(#p2e7fd97866)" style="fill: #ffa600"/>
   </g>
   <g id="patch_61">
    <path d="M 623.849658 69.220615 
L 648 69.220615 
L 648 69.37719 
L 639.311493 69.37719 
L 639.311493 70.023452 
L 632.555014 70.023452 
L 632.555014 69.37719 
L 623.849658 69.37719 
L 623.849658 69.220615 
z
" clip-path="url(#p2e7fd97866)" style="fill: #ff0000"/>
   </g>
   <g id="patch_62">
    <path d="M 640.578621 68.464094 
L 631.290788 68.464094 
L 629.824288 69.220615 
L 623.849658 69.220615 
L 632.382022 65.067758 
L 639.467636 65.067758 
L 648 69.220615 
L 642.030308 69.220615 
L 640.578621 68.464094 
z
M 632.772101 67.693332 
L 639.082495 67.693332 
L 635.932236 66.041446 
L 632.772101 67.693332 
z
" clip-path="url(#p2e7fd97866)" style="fill: #008000"/>
   </g>
   <g id="patch_63">
    <path d="M 215.835991 70.998308 
Q 213.815856 70.890177 211.631434 70.835482 
Q 209.447012 70.78016 207.067877 70.78016 
Q 199.973068 70.78016 195.829359 71.190051 
Q 191.685649 71.599943 191.685649 72.300909 
Q 191.685649 73.004388 195.829359 73.413652 
Q 199.973068 73.823543 207.067877 73.823543 
Q 209.447012 73.823543 211.631434 73.768221 
Q 213.815856 73.713526 215.835991 73.605395 
L 215.835991 72.99873 
Q 213.797602 73.142067 211.820061 73.208706 
Q 209.84252 73.275345 207.658097 73.275345 
Q 203.739523 73.275345 201.494254 73.015704 
Q 199.255068 72.756693 199.255068 72.300909 
Q 199.255068 71.84701 201.494254 71.58737 
Q 203.739523 71.328359 207.658097 71.328359 
Q 209.84252 71.328359 211.820061 71.394997 
Q 213.797602 71.462265 215.835991 71.605601 
L 215.835991 70.998308 
z
" clip-path="url(#p2e7fd97866)" style="fill: #0000ff"/>
   </g>
   <g id="patch_64">
    <path d="M 317.52164 70.965925 
Q 315.086039 70.873042 312.466414 70.826389 
Q 309.846789 70.78016 307.053966 70.78016 
Q 300.743052 70.78016 297.057175 71.056687 
Q 293.371298 71.333215 293.371298 71.80611 
Q 293.371298 72.28452 297.122125 72.558927 
Q 300.878363 72.833334 307.411188 72.833334 
Q 309.927976 72.833334 312.233679 72.796011 
Q 314.544794 72.759112 316.590699 72.686163 
L 316.590699 72.276886 
Q 314.479844 72.370617 312.39064 72.416846 
Q 310.301435 72.463499 308.201405 72.463499 
Q 304.315268 72.463499 302.209826 72.293002 
Q 300.104383 72.122929 300.104383 71.80611 
Q 300.104383 71.49226 302.134051 71.320915 
Q 304.163719 71.149994 307.898308 71.149994 
Q 308.915848 71.149994 309.787252 71.159749 
Q 310.658656 71.169928 311.35145 71.191134 
L 311.35145 71.575388 
L 307.373301 71.575388 
L 307.373301 71.917654 
L 317.52164 71.917654 
L 317.52164 70.965925 
z
" clip-path="url(#p2e7fd97866)" style="fill: #ffa600"/>
   </g>
   <g id="patch_65">
    <path d="M 342.943052 73.3748 
Q 340.507451 72.07748 337.887826 71.425858 
Q 335.268202 70.78016 332.475379 70.78016 
Q 326.164464 70.78016 322.478588 74.642501 
Q 318.792711 78.504843 318.792711 85.109921 
Q 318.792711 91.792008 322.543537 95.624731 
Q 326.299776 99.457453 332.8326 99.457453 
Q 335.349388 99.457453 337.655091 98.936155 
Q 339.966206 98.420782 342.012111 97.401882 
L 342.012111 91.685379 
Q 339.901257 92.994547 337.812052 93.640245 
Q 335.722847 94.291868 333.622817 94.291868 
Q 329.73668 94.291868 327.631238 91.910485 
Q 325.525796 89.535027 325.525796 85.109921 
Q 325.525796 80.726281 327.555464 78.333051 
Q 329.585131 75.945745 333.31972 75.945745 
Q 334.337261 75.945745 335.208665 76.081994 
Q 336.080069 76.224166 336.772862 76.520357 
L 336.772862 81.887353 
L 332.794713 81.887353 
L 332.794713 86.66789 
L 342.943052 86.66789 
L 342.943052 73.3748 
z
" clip-path="url(#p2e7fd97866)" style="fill: #ffa600"/>
   </g>
   <g id="patch_66">
    <path d="M 368.364465 75.276053 
Q 365.928863 73.028106 363.309239 71.899001 
Q 360.689614 70.78016 357.896791 70.78016 
Q 351.585877 70.78016 347.9 77.472677 
Q 344.214123 84.165194 344.214123 95.610219 
Q 344.214123 107.188683 347.964949 113.829877 
Q 351.721188 120.471071 358.254012 120.471071 
Q 360.770801 120.471071 363.076503 119.567787 
Q 365.387618 118.674767 367.433524 116.909256 
L 367.433524 107.003921 
Q 365.322669 109.272397 363.233464 110.391238 
Q 361.144259 111.520343 359.04423 111.520343 
Q 355.158092 111.520343 353.05265 107.393975 
Q 350.947208 103.277872 350.947208 95.610219 
Q 350.947208 88.014417 352.976876 83.86752 
Q 355.006544 79.730888 358.741133 79.730888 
Q 359.758673 79.730888 360.630077 79.966974 
Q 361.501481 80.213324 362.194274 80.726554 
L 362.194274 90.026278 
L 358.216125 90.026278 
L 358.216125 98.309807 
L 368.364465 98.309807 
L 368.364465 75.276053 
z
" clip-path="url(#p2e7fd97866)" style="fill: #ffa600"/>
   </g>
   <g id="patch_67">
    <path d="M 393.785877 77.974037 
Q 391.350276 75.074803 388.730651 73.618567 
Q 386.111026 72.17557 383.318203 72.17557 
Q 377.007289 72.17557 373.321412 80.807078 
Q 369.635535 89.438586 369.635535 104.199525 
Q 369.635535 119.132564 373.386362 127.69788 
Q 377.1426 136.263196 383.675425 136.263196 
Q 386.192213 136.263196 388.497916 135.098207 
Q 390.809031 133.946456 392.854936 131.669433 
L 392.854936 118.894271 
Q 390.744081 121.819981 388.654877 123.262979 
Q 386.565672 124.719215 384.465642 124.719215 
Q 380.579505 124.719215 378.474062 119.397334 
Q 376.36862 114.088692 376.36862 104.199525 
Q 376.36862 94.403028 378.398288 89.05467 
Q 380.427956 83.71955 384.162545 83.71955 
Q 385.180085 83.71955 386.051489 84.024036 
Q 386.922893 84.34176 387.615687 85.003686 
L 387.615687 96.997775 
L 383.637538 96.997775 
L 383.637538 107.681253 
L 393.785877 107.681253 
L 393.785877 77.974037 
z
" clip-path="url(#p2e7fd97866)" style="fill: #ffa600"/>
   </g>
   <g id="patch_68">
    <path d="M 369.635535 72.17557 
L 393.785877 72.17557 
L 393.785877 71.903426 
L 385.09737 71.903426 
L 385.09737 70.78016 
L 378.340891 70.78016 
L 378.340891 71.903426 
L 369.635535 71.903426 
L 369.635535 72.17557 
z
" clip-path="url(#p2e7fd97866)" style="fill: #ff0000"/>
   </g>
   <g id="patch_69">
    <path d="M 411.785911 70.92365 
L 402.498077 70.92365 
L 401.031577 70.78016 
L 395.056948 70.78016 
L 403.589311 71.567836 
L 410.674926 71.567836 
L 419.207289 70.78016 
L 413.237597 70.78016 
L 411.785911 70.92365 
z
M 403.97939 71.069841 
L 410.289784 71.069841 
L 407.139525 71.383156 
L 403.97939 71.069841 
z
" clip-path="url(#p2e7fd97866)" style="fill: #008000"/>
   </g>
   <g id="patch_70">
    <path d="M 419.207289 72.988422 
Q 417.187155 72.28427 415.002732 71.9281 
Q 412.81831 71.567836 410.439176 71.567836 
Q 403.344366 71.567836 399.200657 74.237063 
Q 395.056948 76.90629 395.056948 81.470996 
Q 395.056948 86.052078 399.200657 88.717211 
Q 403.344366 91.386438 410.439176 91.386438 
Q 412.81831 91.386438 415.002732 91.026174 
Q 417.187155 90.670004 419.207289 89.965852 
L 419.207289 86.015232 
Q 417.168901 86.948643 415.191359 87.382597 
Q 413.213818 87.816551 411.029396 87.816551 
Q 407.110822 87.816551 404.865552 86.125768 
Q 402.626367 84.439078 402.626367 81.470996 
Q 402.626367 78.515195 404.865552 76.824412 
Q 407.110822 75.137723 411.029396 75.137723 
Q 413.213818 75.137723 415.191359 75.571677 
Q 417.168901 76.009725 419.207289 76.943135 
L 419.207289 72.988422 
z
" clip-path="url(#p2e7fd97866)" style="fill: #0000ff"/>
   </g>
   <g id="patch_71">
    <path d="M 419.207289 95.816523 
Q 416.771688 93.60148 414.152063 92.488902 
Q 411.532438 91.386438 408.739615 91.386438 
Q 402.428701 91.386438 398.742824 97.980993 
Q 395.056948 104.575549 395.056948 115.853048 
Q 395.056948 127.262033 398.807774 133.806017 
Q 402.564013 140.350001 409.096837 140.350001 
Q 411.613625 140.350001 413.919328 139.459938 
Q 416.230443 138.57999 418.276348 136.840322 
L 418.276348 127.079975 
Q 416.165494 129.315246 414.076289 130.41771 
Q 411.987084 131.530289 409.887054 131.530289 
Q 406.000917 131.530289 403.895475 127.46432 
Q 401.790033 123.408466 401.790033 115.853048 
Q 401.790033 108.36843 403.8197 104.282233 
Q 405.849368 100.20615 409.583957 100.20615 
Q 410.601497 100.20615 411.472902 100.43878 
Q 412.344306 100.681525 413.037099 101.187242 
L 413.037099 110.350842 
L 409.05895 110.350842 
L 409.05895 118.513122 
L 419.207289 118.513122 
L 419.207289 95.816523 
z
" clip-path="url(#p2e7fd97866)" style="fill: #ffa600"/>
   </g>
   <g id="patch_72">
    <path d="M 444.628702 70.86225 
Q 442.608567 70.832856 440.424145 70.817988 
Q 438.239722 70.802948 435.860588 70.802948 
Q 428.765779 70.802948 424.622069 70.914374 
Q 420.47836 71.025801 420.47836 71.216353 
Q 420.47836 71.407588 424.622069 71.518844 
Q 428.765779 71.63027 435.860588 71.63027 
Q 438.239722 71.63027 440.424145 71.615231 
Q 442.608567 71.600362 444.628702 71.570968 
L 444.628702 71.40605 
Q 442.590313 71.445015 440.612772 71.463131 
Q 438.635231 71.481246 436.450808 71.481246 
Q 432.532234 71.481246 430.286964 71.410665 
Q 428.047779 71.340254 428.047779 71.216353 
Q 428.047779 71.092964 430.286964 71.022383 
Q 432.532234 70.951972 436.450808 70.951972 
Q 438.635231 70.951972 440.612772 70.970088 
Q 442.590313 70.988374 444.628702 71.027339 
L 444.628702 70.86225 
z
" clip-path="url(#p2e7fd97866)" style="fill: #0000ff"/>
   </g>
   <g id="patch_73">
    <path d="M 444.628702 82.543541 
Q 442.1931 77.086905 439.573475 74.34613 
Q 436.953851 71.63027 434.161028 71.63027 
Q 427.850114 71.63027 424.164237 87.875596 
Q 420.47836 104.120923 420.47836 131.902425 
Q 420.47836 160.007837 424.229186 176.128583 
Q 427.985425 192.249329 434.518249 192.249329 
Q 437.035037 192.249329 439.34074 190.056709 
Q 441.651855 187.889004 443.697761 183.603427 
L 443.697761 159.559347 
Q 441.586906 165.065815 439.497701 167.781675 
Q 437.408496 170.522451 435.308467 170.522451 
Q 431.422329 170.522451 429.316887 160.50616 
Q 427.211445 150.514786 427.211445 131.902425 
Q 427.211445 113.464478 429.241113 103.398355 
Q 431.270781 93.357148 435.00537 93.357148 
Q 436.02291 93.357148 436.894314 93.93022 
Q 437.765718 94.528207 438.458511 95.774015 
L 438.458511 118.348042 
L 434.480362 118.348042 
L 434.480362 138.455371 
L 444.628702 138.455371 
L 444.628702 82.543541 
z
" clip-path="url(#p2e7fd97866)" style="fill: #ffa600"/>
   </g>
   <g id="patch_74">
    <path d="M 420.47836 70.802948 
L 444.628702 70.802948 
L 444.628702 70.798504 
L 435.940195 70.798504 
L 435.940195 70.78016 
L 429.183716 70.78016 
L 429.183716 70.798504 
L 420.47836 70.798504 
L 420.47836 70.802948 
z
" clip-path="url(#p2e7fd97866)" style="fill: #ff0000"/>
   </g>
   <g id="patch_75">
    <path d="M 470.050114 70.915871 
Q 468.029979 70.848602 465.845557 70.814576 
Q 463.661135 70.78016 461.282 70.78016 
Q 454.187191 70.78016 450.043482 71.035156 
Q 445.899772 71.290153 445.899772 71.726229 
Q 445.899772 72.163869 450.043482 72.418475 
Q 454.187191 72.673472 461.282 72.673472 
Q 463.661135 72.673472 465.845557 72.639055 
Q 468.029979 72.60503 470.050114 72.53776 
L 470.050114 72.16035 
Q 468.011725 72.24952 466.034184 72.290977 
Q 464.056643 72.332433 461.87222 72.332433 
Q 457.953646 72.332433 455.708377 72.170909 
Q 453.469191 72.009776 453.469191 71.726229 
Q 453.469191 71.443855 455.708377 71.282331 
Q 457.953646 71.121198 461.87222 71.121198 
Q 464.056643 71.121198 466.034184 71.162655 
Q 468.011725 71.204503 470.050114 71.293673 
L 470.050114 70.915871 
z
" clip-path="url(#p2e7fd97866)" style="fill: #0000ff"/>
   </g>
   <g id="patch_76">
    <path d="M 470.050114 82.739897 
Q 467.614512 77.706684 464.994888 75.178587 
Q 462.375263 72.673472 459.58244 72.673472 
Q 453.271526 72.673472 449.585649 87.658195 
Q 445.899772 102.642919 445.899772 128.268635 
Q 445.899772 154.193126 449.650598 169.062936 
Q 453.406837 183.932746 459.939662 183.932746 
Q 462.45645 183.932746 464.762152 181.910268 
Q 467.073268 179.910772 469.119173 175.957747 
L 469.119173 153.779437 
Q 467.008318 158.858615 464.919113 161.36373 
Q 462.829909 163.891827 460.729879 163.891827 
Q 456.843741 163.891827 454.738299 154.65278 
Q 452.632857 145.436715 452.632857 128.268635 
Q 452.632857 111.261433 454.662525 101.976421 
Q 456.692193 92.71439 460.426782 92.71439 
Q 461.444322 92.71439 462.315726 93.242993 
Q 463.18713 93.794578 463.879924 94.943713 
L 463.879924 115.766043 
L 459.901774 115.766043 
L 459.901774 134.313086 
L 470.050114 134.313086 
L 470.050114 82.739897 
z
" clip-path="url(#p2e7fd97866)" style="fill: #ffa600"/>
   </g>
   <g id="patch_77">
    <path d="M 495.471526 72.818101 
Q 493.451392 71.80794 491.266969 71.296986 
Q 489.082547 70.78016 486.703413 70.78016 
Q 479.608603 70.78016 475.464894 74.609375 
Q 471.321185 78.438591 471.321185 84.987019 
Q 471.321185 91.558939 475.464894 95.382282 
Q 479.608603 99.211497 486.703413 99.211497 
Q 489.082547 99.211497 491.266969 98.694671 
Q 493.451392 98.183717 495.471526 97.173556 
L 495.471526 91.506082 
Q 493.433138 92.845133 491.455596 93.467674 
Q 489.478055 94.090215 487.293633 94.090215 
Q 483.375059 94.090215 481.129789 91.664654 
Q 478.890604 89.244966 478.890604 84.987019 
Q 478.890604 80.746691 481.129789 78.32113 
Q 483.375059 75.901442 487.293633 75.901442 
Q 489.478055 75.901442 491.455596 76.523983 
Q 493.433138 77.152397 495.471526 78.491448 
L 495.471526 72.818101 
z
" clip-path="url(#p2e7fd97866)" style="fill: #0000ff"/>
   </g>
   <g id="patch_78">
    <path d="M 495.471526 101.888914 
Q 493.035925 100.550206 490.4163 99.877795 
Q 487.796675 99.211497 485.003852 99.211497 
Q 478.692938 99.211497 475.007061 103.197058 
Q 471.321185 107.182618 471.321185 113.998415 
Q 471.321185 120.893679 475.072011 124.848676 
Q 478.828249 128.803672 485.361074 128.803672 
Q 487.877862 128.803672 490.183565 128.265743 
Q 492.49468 127.733928 494.540585 126.682522 
L 494.540585 120.783649 
Q 492.429731 122.134582 490.340526 122.80088 
Q 488.251321 123.473291 486.151291 123.473291 
Q 482.265154 123.473291 480.159712 121.015936 
Q 478.054269 118.564694 478.054269 113.998415 
Q 478.054269 109.474927 480.083937 107.005346 
Q 482.113605 104.541879 485.848194 104.541879 
Q 486.865734 104.541879 487.737138 104.682474 
Q 488.608542 104.829181 489.301336 105.134823 
L 489.301336 110.67304 
L 485.323187 110.67304 
L 485.323187 115.606088 
L 495.471526 115.606088 
L 495.471526 101.888914 
z
" clip-path="url(#p2e7fd97866)" style="fill: #ffa600"/>
   </g>
   <g id="patch_79">
    <path d="M 520.892938 70.928346 
Q 518.872804 70.854893 516.688382 70.81774 
Q 514.503959 70.78016 512.124825 70.78016 
Q 505.030016 70.78016 500.886306 71.058595 
Q 496.742597 71.337031 496.742597 71.813191 
Q 496.742597 72.291058 500.886306 72.569067 
Q 505.030016 72.847502 512.124825 72.847502 
Q 514.503959 72.847502 516.688382 72.809922 
Q 518.872804 72.772769 520.892938 72.699317 
L 520.892938 72.287215 
Q 518.85455 72.384582 516.877009 72.429849 
Q 514.899467 72.475116 512.715045 72.475116 
Q 508.796471 72.475116 506.551201 72.298745 
Q 504.312016 72.122801 504.312016 71.813191 
Q 504.312016 71.504861 506.551201 71.32849 
Q 508.796471 71.152546 512.715045 71.152546 
Q 514.899467 71.152546 516.877009 71.197813 
Q 518.85455 71.243508 520.892938 71.340875 
L 520.892938 70.928346 
z
" clip-path="url(#p2e7fd97866)" style="fill: #0000ff"/>
   </g>
   <g id="patch_80">
    <path d="M 520.892938 79.938682 
Q 518.457337 76.393092 515.837712 74.612203 
Q 513.218088 72.847502 510.425265 72.847502 
Q 504.114351 72.847502 500.428474 83.403323 
Q 496.742597 93.959143 496.742597 112.010891 
Q 496.742597 130.273108 500.493423 140.747978 
Q 504.249662 151.222849 510.782486 151.222849 
Q 513.299274 151.222849 515.604977 149.798137 
Q 517.916092 148.389615 519.961997 145.604951 
L 519.961997 129.981689 
Q 517.851143 133.559659 515.761938 135.324359 
Q 513.672733 137.105249 511.572704 137.105249 
Q 507.686566 137.105249 505.581124 130.596906 
Q 503.475682 124.104753 503.475682 112.010891 
Q 503.475682 100.030359 505.50535 93.489636 
Q 507.535018 86.965103 511.269606 86.965103 
Q 512.287147 86.965103 513.158551 87.337471 
Q 514.029955 87.726028 514.722748 88.535524 
L 514.722748 103.203581 
L 510.744599 103.203581 
L 510.744599 116.268837 
L 520.892938 116.268837 
L 520.892938 79.938682 
z
" clip-path="url(#p2e7fd97866)" style="fill: #ffa600"/>
   </g>
   <g id="patch_81">
    <path d="M 546.314351 72.238558 
Q 544.294216 71.515663 542.109794 71.150013 
Q 539.925372 70.78016 537.546237 70.78016 
Q 530.451428 70.78016 526.307719 73.520435 
Q 522.164009 76.26071 522.164009 80.946917 
Q 522.164009 85.649935 526.307719 88.386008 
Q 530.451428 91.126283 537.546237 91.126283 
Q 539.925372 91.126283 542.109794 90.75643 
Q 544.294216 90.39078 546.314351 89.667885 
L 546.314351 85.61211 
Q 544.275962 86.570365 542.298421 87.01587 
Q 540.32088 87.461375 538.136457 87.461375 
Q 534.217883 87.461375 531.972613 85.725587 
Q 529.733428 83.994002 529.733428 80.946917 
Q 529.733428 77.91244 531.972613 76.176653 
Q 534.217883 74.445068 538.136457 74.445068 
Q 540.32088 74.445068 542.298421 74.890573 
Q 544.275962 75.34028 546.314351 76.298536 
L 546.314351 72.238558 
z
" clip-path="url(#p2e7fd97866)" style="fill: #0000ff"/>
   </g>
   <g id="patch_82">
    <path d="M 546.314351 94.825608 
Q 543.878749 92.975945 541.259125 92.046891 
Q 538.6395 91.126283 535.846677 91.126283 
Q 529.535763 91.126283 525.849886 96.63304 
Q 522.164009 102.139798 522.164009 111.557029 
Q 522.164009 121.084057 525.914835 126.548584 
Q 529.671074 132.013112 536.203898 132.013112 
Q 538.720687 132.013112 541.026389 131.269869 
Q 543.337505 130.535071 545.38341 129.082368 
L 545.38341 120.93203 
Q 543.272555 122.798584 541.18335 123.719192 
Q 539.094146 124.648246 536.994116 124.648246 
Q 533.107978 124.648246 531.002536 121.252976 
Q 528.897094 117.866151 528.897094 111.557029 
Q 528.897094 105.307028 530.926762 101.894865 
Q 532.95643 98.491149 536.691019 98.491149 
Q 537.708559 98.491149 538.579963 98.685405 
Q 539.451367 98.888108 540.14416 99.310406 
L 540.14416 106.962433 
L 536.166011 106.962433 
L 536.166011 113.778313 
L 546.314351 113.778313 
L 546.314351 94.825608 
z
" clip-path="url(#p2e7fd97866)" style="fill: #ffa600"/>
   </g>
   <g id="patch_83">
    <path d="M 571.735763 71.92621 
Q 569.715629 71.603272 567.531206 71.439925 
Q 565.346784 71.2747 562.96765 71.2747 
Q 555.87284 71.2747 551.729131 72.498863 
Q 547.585421 73.723025 547.585421 75.816493 
Q 547.585421 77.91747 551.729131 79.139755 
Q 555.87284 80.363917 562.96765 80.363917 
Q 565.346784 80.363917 567.531206 80.198693 
Q 569.715629 80.035346 571.735763 79.712408 
L 571.735763 77.900572 
Q 569.697374 78.328654 567.719833 78.527674 
Q 565.742292 78.726694 563.55787 78.726694 
Q 559.639296 78.726694 557.394026 77.951266 
Q 555.154841 77.177716 555.154841 75.816493 
Q 555.154841 74.460902 557.394026 73.685474 
Q 559.639296 72.911924 563.55787 72.911924 
Q 565.742292 72.911924 567.719833 73.110944 
Q 569.697374 73.311842 571.735763 73.739923 
L 571.735763 71.92621 
z
" clip-path="url(#p2e7fd97866)" style="fill: #0000ff"/>
   </g>
   <g id="patch_84">
    <path d="M 571.735763 81.190209 
Q 569.300162 80.777063 566.680537 80.569547 
Q 564.060912 80.363917 561.268089 80.363917 
Q 554.957175 80.363917 551.271298 81.593923 
Q 547.585421 82.823928 547.585421 84.927388 
Q 547.585421 87.055373 551.336248 88.275946 
Q 555.092486 89.496519 561.625311 89.496519 
Q 564.142099 89.496519 566.447802 89.330506 
Q 568.758917 89.166379 570.804822 88.841899 
L 570.804822 87.021416 
Q 568.693967 87.438335 566.604763 87.643965 
Q 564.515558 87.851481 562.415528 87.851481 
Q 558.529391 87.851481 556.423949 87.093103 
Q 554.318506 86.336612 554.318506 84.927388 
Q 554.318506 83.53137 556.348174 82.769219 
Q 558.377842 82.008955 562.112431 82.008955 
Q 563.129971 82.008955 564.001375 82.052345 
Q 564.872779 82.097621 565.565573 82.191947 
L 565.565573 83.901126 
L 561.587424 83.901126 
L 561.587424 85.423541 
L 571.735763 85.423541 
L 571.735763 81.190209 
z
" clip-path="url(#p2e7fd97866)" style="fill: #ffa600"/>
   </g>
   <g id="patch_85">
    <path d="M 547.585421 71.2747 
L 571.735763 71.2747 
L 571.735763 71.178251 
L 563.047256 71.178251 
L 563.047256 70.78016 
L 556.290777 70.78016 
L 556.290777 71.178251 
L 547.585421 71.178251 
L 547.585421 71.2747 
z
" clip-path="url(#p2e7fd97866)" style="fill: #ff0000"/>
   </g>
   <g id="patch_86">
    <path d="M 597.157175 70.98252 
Q 595.137041 70.882214 592.952619 70.831479 
Q 590.768196 70.78016 588.389062 70.78016 
Q 581.294253 70.78016 577.150543 71.160387 
Q 573.006834 71.540614 573.006834 72.190849 
Q 573.006834 72.843416 577.150543 73.22306 
Q 581.294253 73.603287 588.389062 73.603287 
Q 590.768196 73.603287 592.952619 73.551968 
Q 595.137041 73.501232 597.157175 73.400927 
L 597.157175 72.838168 
Q 595.118787 72.971131 593.141246 73.032947 
Q 591.163704 73.094763 588.979282 73.094763 
Q 585.060708 73.094763 582.815438 72.853913 
Q 580.576253 72.613647 580.576253 72.190849 
Q 580.576253 71.7698 582.815438 71.52895 
Q 585.060708 71.288684 588.979282 71.288684 
Q 591.163704 71.288684 593.141246 71.3505 
Q 595.118787 71.412899 597.157175 71.545862 
L 597.157175 70.98252 
z
" clip-path="url(#p2e7fd97866)" style="fill: #0000ff"/>
   </g>
   <g id="patch_87">
    <path d="M 597.157175 75.418641 
Q 594.721574 74.510964 592.101949 74.055053 
Q 589.482325 73.603287 586.689502 73.603287 
Q 580.378587 73.603287 576.692711 76.305594 
Q 573.006834 79.007901 573.006834 83.629178 
Q 573.006834 88.304335 576.75766 90.985919 
Q 580.513899 93.667503 587.046723 93.667503 
Q 589.563511 93.667503 591.869214 93.302774 
Q 594.180329 92.94219 596.226234 92.229312 
L 596.226234 88.229732 
Q 594.11538 89.145698 592.026175 89.597464 
Q 589.93697 90.053374 587.83694 90.053374 
Q 583.950803 90.053374 581.845361 88.387228 
Q 579.739919 86.725226 579.739919 83.629178 
Q 579.739919 80.562143 581.769587 78.887707 
Q 583.799254 77.217416 587.533843 77.217416 
Q 588.551384 77.217416 589.422788 77.312743 
Q 590.294192 77.412214 590.986985 77.619446 
L 590.986985 81.374492 
L 587.008836 81.374492 
L 587.008836 84.719219 
L 597.157175 84.719219 
L 597.157175 75.418641 
z
" clip-path="url(#p2e7fd97866)" style="fill: #ffa600"/>
   </g>
   <g id="patch_88">
    <path d="M 622.578588 73.56216 
Q 620.558453 72.346438 618.374031 71.731509 
Q 616.189608 71.109512 613.810474 71.109512 
Q 606.715665 71.109512 602.571955 75.717945 
Q 598.428246 80.326378 598.428246 88.207364 
Q 598.428246 96.116623 602.571955 100.717988 
Q 606.715665 105.326421 613.810474 105.326421 
Q 616.189608 105.326421 618.374031 104.704424 
Q 620.558453 104.089495 622.578588 102.873774 
L 622.578588 96.05301 
Q 620.540199 97.664548 618.562658 98.413772 
Q 616.585117 99.162995 614.400694 99.162995 
Q 610.48212 99.162995 608.23685 96.24385 
Q 605.997665 93.331772 605.997665 88.207364 
Q 605.997665 83.104161 608.23685 80.185015 
Q 610.48212 77.272938 614.400694 77.272938 
Q 616.585117 77.272938 618.562658 78.022162 
Q 620.540199 78.778454 622.578588 80.389992 
L 622.578588 73.56216 
z
" clip-path="url(#p2e7fd97866)" style="fill: #0000ff"/>
   </g>
   <g id="patch_89">
    <path d="M 622.578588 70.809959 
Q 620.142986 70.795059 617.523362 70.787575 
Q 614.903737 70.78016 612.110914 70.78016 
Q 605.8 70.78016 602.114123 70.824518 
Q 598.428246 70.868876 598.428246 70.944734 
Q 598.428246 71.021476 602.179072 71.065494 
Q 605.935311 71.109512 612.468135 71.109512 
Q 614.984924 71.109512 617.290626 71.103525 
Q 619.601741 71.097606 621.647647 71.085904 
L 621.647647 71.020251 
Q 619.536792 71.035287 617.447587 71.042703 
Q 615.358382 71.050186 613.258353 71.050186 
Q 609.372215 71.050186 607.266773 71.022837 
Q 605.161331 70.995555 605.161331 70.944734 
Q 605.161331 70.894389 607.190999 70.866903 
Q 609.220667 70.839485 612.955256 70.839485 
Q 613.972796 70.839485 614.8442 70.84105 
Q 615.715604 70.842683 616.408397 70.846085 
L 616.408397 70.907723 
L 612.430248 70.907723 
L 612.430248 70.962627 
L 622.578588 70.962627 
L 622.578588 70.809959 
z
" clip-path="url(#p2e7fd97866)" style="fill: #ffa600"/>
   </g>
   <g id="patch_90">
    <path d="M 648 71.981883 
Q 645.979866 71.386216 643.795443 71.084919 
Q 641.611021 70.78016 639.231887 70.78016 
Q 632.137077 70.78016 627.993368 73.038152 
Q 623.849658 75.296145 623.849658 79.157589 
Q 623.849658 83.032886 627.993368 85.287415 
Q 632.137077 87.545407 639.231887 87.545407 
Q 641.611021 87.545407 643.795443 87.240648 
Q 645.979866 86.939351 648 86.343684 
L 648 83.001717 
Q 645.961611 83.791322 643.98407 84.158419 
Q 642.006529 84.525516 639.822107 84.525516 
Q 635.903533 84.525516 633.658263 83.095223 
Q 631.419078 81.668393 631.419078 79.157589 
Q 631.419078 76.657174 633.658263 75.226881 
Q 635.903533 73.800051 639.822107 73.800051 
Q 642.006529 73.800051 643.98407 74.167148 
Q 645.961611 74.537708 648 75.327313 
L 648 71.981883 
z
" clip-path="url(#p2e7fd97866)" style="fill: #0000ff"/>
   </g>
   <g id="matplotlib.axis_1">
    <g id="xtick_1">
     <g id="line2d_2">
      <defs>
       <path id="m949b9efcba" d="M 0 0 
L 0 3.5 
" style="stroke: #000000; stroke-width: 0.8"/>
      </defs>
      <g>
       <use xlink:href="#m949b9efcba" x="102.075171" y="192.24" style="stroke: #000000; stroke-width: 0.8"/>
      </g>
     </g>
     <g id="text_1">
      <!-- 0.0 -->
      <g transform="translate(94.123608 206.838437) scale(0.1 -0.1)">
       <defs>
        <path id="DejaVuSans-30" d="M 2034 4250 
Q 1547 4250 1301 3770 
Q 1056 3291 1056 2328 
Q 1056 1369 1301 889 
Q 1547 409 2034 409 
Q 2525 409 2770 889 
Q 3016 1369 3016 2328 
Q 3016 3291 2770 3770 
Q 2525 4250 2034 4250 
z
M 2034 4750 
Q 2819 4750 3233 4129 
Q 3647 3509 3647 2328 
Q 3647 1150 3233 529 
Q 2819 -91 2034 -91 
Q 1250 -91 836 529 
Q 422 1150 422 2328 
Q 422 3509 836 4129 
Q 1250 4750 2034 4750 
z
" transform="scale(0.015625)"/>
        <path id="DejaVuSans-2e" d="M 684 794 
L 1344 794 
L 1344 0 
L 684 0 
L 684 794 
z
" transform="scale(0.015625)"/>
       </defs>
       <use xlink:href="#DejaVuSans-30"/>
       <use xlink:href="#DejaVuSans-2e" x="63.623047"/>
       <use xlink:href="#DejaVuSans-30" x="95.410156"/>
      </g>
     </g>
    </g>
    <g id="xtick_2">
     <g id="line2d_3">
      <g>
       <use xlink:href="#m949b9efcba" x="165.628702" y="192.24" style="stroke: #000000; stroke-width: 0.8"/>
      </g>
     </g>
     <g id="text_2">
      <!-- 2.5 -->
      <g transform="translate(157.677139 206.838437) scale(0.1 -0.1)">
       <defs>
        <path id="DejaVuSans-32" d="M 1228 531 
L 3431 531 
L 3431 0 
L 469 0 
L 469 531 
Q 828 903 1448 1529 
Q 2069 2156 2228 2338 
Q 2531 2678 2651 2914 
Q 2772 3150 2772 3378 
Q 2772 3750 2511 3984 
Q 2250 4219 1831 4219 
Q 1534 4219 1204 4116 
Q 875 4013 500 3803 
L 500 4441 
Q 881 4594 1212 4672 
Q 1544 4750 1819 4750 
Q 2544 4750 2975 4387 
Q 3406 4025 3406 3419 
Q 3406 3131 3298 2873 
Q 3191 2616 2906 2266 
Q 2828 2175 2409 1742 
Q 1991 1309 1228 531 
z
" transform="scale(0.015625)"/>
        <path id="DejaVuSans-35" d="M 691 4666 
L 3169 4666 
L 3169 4134 
L 1269 4134 
L 1269 2991 
Q 1406 3038 1543 3061 
Q 1681 3084 1819 3084 
Q 2600 3084 3056 2656 
Q 3513 2228 3513 1497 
Q 3513 744 3044 326 
Q 2575 -91 1722 -91 
Q 1428 -91 1123 -41 
Q 819 9 494 109 
L 494 744 
Q 775 591 1075 516 
Q 1375 441 1709 441 
Q 2250 441 2565 725 
Q 2881 1009 2881 1497 
Q 2881 1984 2565 2268 
Q 2250 2553 1709 2553 
Q 1456 2553 1204 2497 
Q 953 2441 691 2322 
L 691 4666 
z
" transform="scale(0.015625)"/>
       </defs>
       <use xlink:href="#DejaVuSans-32"/>
       <use xlink:href="#DejaVuSans-2e" x="63.623047"/>
       <use xlink:href="#DejaVuSans-35" x="95.410156"/>
      </g>
     </g>
    </g>
    <g id="xtick_3">
     <g id="line2d_4">
      <g>
       <use xlink:href="#m949b9efcba" x="229.182232" y="192.24" style="stroke: #000000; stroke-width: 0.8"/>
      </g>
     </g>
     <g id="text_3">
      <!-- 5.0 -->
      <g transform="translate(221.23067 206.838437) scale(0.1 -0.1)">
       <use xlink:href="#DejaVuSans-35"/>
       <use xlink:href="#DejaVuSans-2e" x="63.623047"/>
       <use xlink:href="#DejaVuSans-30" x="95.410156"/>
      </g>
     </g>
    </g>
    <g id="xtick_4">
     <g id="line2d_5">
      <g>
       <use xlink:href="#m949b9efcba" x="292.735763" y="192.24" style="stroke: #000000; stroke-width: 0.8"/>
      </g>
     </g>
     <g id="text_4">
      <!-- 7.5 -->
      <g transform="translate(284.784201 206.838437) scale(0.1 -0.1)">
       <defs>
        <path id="DejaVuSans-37" d="M 525 4666 
L 3525 4666 
L 3525 4397 
L 1831 0 
L 1172 0 
L 2766 4134 
L 525 4134 
L 525 4666 
z
" transform="scale(0.015625)"/>
       </defs>
       <use xlink:href="#DejaVuSans-37"/>
       <use xlink:href="#DejaVuSans-2e" x="63.623047"/>
       <use xlink:href="#DejaVuSans-35" x="95.410156"/>
      </g>
     </g>
    </g>
    <g id="xtick_5">
     <g id="line2d_6">
      <g>
       <use xlink:href="#m949b9efcba" x="356.289294" y="192.24" style="stroke: #000000; stroke-width: 0.8"/>
      </g>
     </g>
     <g id="text_5">
      <!-- 10.0 -->
      <g transform="translate(345.156481 206.838437) scale(0.1 -0.1)">
       <defs>
        <path id="DejaVuSans-31" d="M 794 531 
L 1825 531 
L 1825 4091 
L 703 3866 
L 703 4441 
L 1819 4666 
L 2450 4666 
L 2450 531 
L 3481 531 
L 3481 0 
L 794 0 
L 794 531 
z
" transform="scale(0.015625)"/>
       </defs>
       <use xlink:href="#DejaVuSans-31"/>
       <use xlink:href="#DejaVuSans-30" x="63.623047"/>
       <use xlink:href="#DejaVuSans-2e" x="127.246094"/>
       <use xlink:href="#DejaVuSans-30" x="159.033203"/>
      </g>
     </g>
    </g>
    <g id="xtick_6">
     <g id="line2d_7">
      <g>
       <use xlink:href="#m949b9efcba" x="419.842825" y="192.24" style="stroke: #000000; stroke-width: 0.8"/>
      </g>
     </g>
     <g id="text_6">
      <!-- 12.5 -->
      <g transform="translate(408.710012 206.838437) scale(0.1 -0.1)">
       <use xlink:href="#DejaVuSans-31"/>
       <use xlink:href="#DejaVuSans-32" x="63.623047"/>
       <use xlink:href="#DejaVuSans-2e" x="127.246094"/>
       <use xlink:href="#DejaVuSans-35" x="159.033203"/>
      </g>
     </g>
    </g>
    <g id="xtick_7">
     <g id="line2d_8">
      <g>
       <use xlink:href="#m949b9efcba" x="483.396355" y="192.24" style="stroke: #000000; stroke-width: 0.8"/>
      </g>
     </g>
     <g id="text_7">
      <!-- 15.0 -->
      <g transform="translate(472.263543 206.838437) scale(0.1 -0.1)">
       <use xlink:href="#DejaVuSans-31"/>
       <use xlink:href="#DejaVuSans-35" x="63.623047"/>
       <use xlink:href="#DejaVuSans-2e" x="127.246094"/>
       <use xlink:href="#DejaVuSans-30" x="159.033203"/>
      </g>
     </g>
    </g>
    <g id="xtick_8">
     <g id="line2d_9">
      <g>
       <use xlink:href="#m949b9efcba" x="546.949886" y="192.24" style="stroke: #000000; stroke-width: 0.8"/>
      </g>
     </g>
     <g id="text_8">
      <!-- 17.5 -->
      <g transform="translate(535.817074 206.838437) scale(0.1 -0.1)">
       <use xlink:href="#DejaVuSans-31"/>
       <use xlink:href="#DejaVuSans-37" x="63.623047"/>
       <use xlink:href="#DejaVuSans-2e" x="127.246094"/>
       <use xlink:href="#DejaVuSans-35" x="159.033203"/>
      </g>
     </g>
    </g>
    <g id="xtick_9">
     <g id="line2d_10">
      <g>
       <use xlink:href="#m949b9efcba" x="610.503417" y="192.24" style="stroke: #000000; stroke-width: 0.8"/>
      </g>
     </g>
     <g id="text_9">
      <!-- 20.0 -->
      <g transform="translate(599.370604 206.838437) scale(0.1 -0.1)">
       <use xlink:href="#DejaVuSans-32"/>
       <use xlink:href="#DejaVuSans-30" x="63.623047"/>
       <use xlink:href="#DejaVuSans-2e" x="127.246094"/>
       <use xlink:href="#DejaVuSans-30" x="159.033203"/>
      </g>
     </g>
    </g>
   </g>
   <g id="matplotlib.axis_2">
    <g id="ytick_1">
     <g id="line2d_11">
      <defs>
       <path id="m507da810d5" d="M 0 0 
L -3.5 0 
" style="stroke: #000000; stroke-width: 0.8"/>
      </defs>
      <g>
       <use xlink:href="#m507da810d5" x="90" y="165.081159" style="stroke: #000000; stroke-width: 0.8"/>
      </g>
     </g>
     <g id="text_10">
      <!-- 0.015 -->
      <g transform="translate(45.992188 168.880378) scale(0.1 -0.1)">
       <defs>
        <path id="DejaVuSans-2212" d="M 678 2272 
L 4684 2272 
L 4684 1741 
L 678 1741 
L 678 2272 
z
" transform="scale(0.015625)"/>
       </defs>
       <use xlink:href="#DejaVuSans-2212"/>
       <use xlink:href="#DejaVuSans-30" x="83.789062"/>
       <use xlink:href="#DejaVuSans-2e" x="147.412109"/>
       <use xlink:href="#DejaVuSans-30" x="179.199219"/>
       <use xlink:href="#DejaVuSans-31" x="242.822266"/>
       <use xlink:href="#DejaVuSans-35" x="306.445312"/>
      </g>
     </g>
    </g>
    <g id="ytick_2">
     <g id="line2d_12">
      <g>
       <use xlink:href="#m507da810d5" x="90" y="133.647493" style="stroke: #000000; stroke-width: 0.8"/>
      </g>
     </g>
     <g id="text_11">
      <!-- 0.010 -->
      <g transform="translate(45.992188 137.446711) scale(0.1 -0.1)">
       <use xlink:href="#DejaVuSans-2212"/>
       <use xlink:href="#DejaVuSans-30" x="83.789062"/>
       <use xlink:href="#DejaVuSans-2e" x="147.412109"/>
       <use xlink:href="#DejaVuSans-30" x="179.199219"/>
       <use xlink:href="#DejaVuSans-31" x="242.822266"/>
       <use xlink:href="#DejaVuSans-30" x="306.445312"/>
      </g>
     </g>
    </g>
    <g id="ytick_3">
     <g id="line2d_13">
      <g>
       <use xlink:href="#m507da810d5" x="90" y="102.213826" style="stroke: #000000; stroke-width: 0.8"/>
      </g>
     </g>
     <g id="text_12">
      <!-- 0.005 -->
      <g transform="translate(45.992188 106.013045) scale(0.1 -0.1)">
       <use xlink:href="#DejaVuSans-2212"/>
       <use xlink:href="#DejaVuSans-30" x="83.789062"/>
       <use xlink:href="#DejaVuSans-2e" x="147.412109"/>
       <use xlink:href="#DejaVuSans-30" x="179.199219"/>
       <use xlink:href="#DejaVuSans-30" x="242.822266"/>
       <use xlink:href="#DejaVuSans-35" x="306.445312"/>
      </g>
     </g>
    </g>
    <g id="ytick_4">
     <g id="line2d_14">
      <g>
       <use xlink:href="#m507da810d5" x="90" y="70.78016" style="stroke: #000000; stroke-width: 0.8"/>
      </g>
     </g>
     <g id="text_13">
      <!-- 0.000 -->
      <g transform="translate(54.371875 74.579378) scale(0.1 -0.1)">
       <use xlink:href="#DejaVuSans-30"/>
       <use xlink:href="#DejaVuSans-2e" x="63.623047"/>
       <use xlink:href="#DejaVuSans-30" x="95.410156"/>
       <use xlink:href="#DejaVuSans-30" x="159.033203"/>
       <use xlink:href="#DejaVuSans-30" x="222.65625"/>
      </g>
     </g>
    </g>
    <g id="ytick_5">
     <g id="line2d_15">
      <g>
       <use xlink:href="#m507da810d5" x="90" y="39.346493" style="stroke: #000000; stroke-width: 0.8"/>
      </g>
     </g>
     <g id="text_14">
      <!-- 0.005 -->
      <g transform="translate(54.371875 43.145712) scale(0.1 -0.1)">
       <use xlink:href="#DejaVuSans-30"/>
       <use xlink:href="#DejaVuSans-2e" x="63.623047"/>
       <use xlink:href="#DejaVuSans-30" x="95.410156"/>
       <use xlink:href="#DejaVuSans-30" x="159.033203"/>
       <use xlink:href="#DejaVuSans-35" x="222.65625"/>
      </g>
     </g>
    </g>
   </g>
  </g>
 </g>
 <defs>
  <clipPath id="p2e7fd97866">
   <rect x="90" y="25.92" width="558" height="166.32"/>
  </clipPath>
 </defs>
</svg>
