<?xml version="1.0" encoding="utf-8" standalone="no"?>
<!DOCTYPE svg PUBLIC "-//W3C//DTD SVG 1.1//EN"
  "http://www.w3.org/Graphics/SVG/1.1/DTD/svg11.dtd">
<svg xmlns:xlink="http://www.w3.org/1999/xlink" width="720pt" height="216pt" viewBox="0 0 720 216" xmlns="http://www.w3.org/2000/svg" version="1.1">
 <metadata>
  <rdf:RDF xmlns:dc="http://purl.org/dc/elements/1.1/" xmlns:cc="http://creativecommons.org/ns#" xmlns:rdf="http://www.w3.org/1999/02/22-rdf-syntax-ns#">
   <cc:Work>
    <dc:type rdf:resource="http://purl.org/dc/dcmitype/StillImage"/>
    <dc:date>2024-11-23T04:41:51.845190</dc:date>
    <dc:format>image/svg+xml</dc:format>
    <dc:creator>
     <cc:Agent>
      <dc:title>Matplotlib v3.7.2, https://matplotlib.org/</dc:title>
     </cc:Agent>
    </dc:creator>
   </cc:Work>
  </rdf:RDF>
 </metadata>
 <defs>
  <style type="text/css">*{stroke-linejoin: round; stroke-linecap: butt}</style>
 </defs>
 <g id="figure_1">
  <g id="patch_1">
   <path d="M 0 216 
L 720 216 
L 720 0 
L 0 0 
z
" style="fill: #ffffff"/>
  </g>
  <g id="axes_1">
   <g id="patch_2">
    <path d="M 90 192.24 
L 648 192.24 
L 648 25.92 
L 90 25.92 
z
" style="fill: #ffffff"/>
   </g>
   <g id="line2d_1">
    <path d="M 90 192.24 
L 648 192.24 
" clip-path="url(#pab5b8f38f6)" style="fill: none; stroke: #000000; stroke-width: 0.5; stroke-linecap: square"/>
   </g>
   <g id="patch_3">
    <path d="M 90 191.723967 
L 115.303103 191.723967 
L 115.303103 191.824608 
L 106.19987 191.824608 
L 106.19987 192.24 
L 99.120886 192.24 
L 99.120886 191.824608 
L 90 191.824608 
L 90 191.723967 
z
" clip-path="url(#pab5b8f38f6)" style="fill: #ff0000"/>
   </g>
   <g id="patch_4">
    <path d="M 115.303103 191.613185 
Q 112.751243 191.668576 110.006577 191.696398 
Q 107.26191 191.723967 104.335778 191.723967 
Q 97.723627 191.723967 93.861814 191.559059 
Q 90 191.394151 90 191.112137 
Q 90 190.826836 93.929863 190.663193 
Q 97.865397 190.499549 104.710051 190.499549 
Q 107.346972 190.499549 109.762733 190.521807 
Q 112.184163 190.543812 114.327725 190.587315 
L 114.327725 190.831389 
Q 112.116114 190.775492 109.927186 190.747923 
Q 107.738258 190.720101 105.537988 190.720101 
Q 101.466354 190.720101 99.260414 190.821778 
Q 97.054473 190.923201 97.054473 191.112137 
Q 97.054473 191.299303 99.181023 191.401485 
Q 101.307572 191.503415 105.220423 191.503415 
Q 106.286533 191.503415 107.199532 191.497598 
Q 108.11253 191.491527 108.838392 191.478881 
L 108.838392 191.24973 
L 104.670356 191.24973 
L 104.670356 191.045618 
L 115.303103 191.045618 
L 115.303103 191.613185 
z
" clip-path="url(#pab5b8f38f6)" style="fill: #ffa600"/>
   </g>
   <g id="patch_5">
    <path d="M 107.527481 188.503367 
L 97.796315 188.503367 
L 96.259815 190.499549 
L 90 190.499549 
L 98.939636 179.541682 
L 106.363466 179.541682 
L 115.303103 190.499549 
L 109.048461 190.499549 
L 107.527481 188.503367 
z
M 99.348335 186.469609 
L 105.959941 186.469609 
L 102.659311 182.110886 
L 99.348335 186.469609 
z
" clip-path="url(#pab5b8f38f6)" style="fill: #008000"/>
   </g>
   <g id="patch_6">
    <path d="M 115.303103 178.751067 
Q 113.186542 179.142957 110.897851 179.34118 
Q 108.60916 179.541682 106.116463 179.541682 
Q 98.683 179.541682 94.3415 178.056145 
Q 90 176.570608 90 174.030158 
Q 90 171.480593 94.3415 169.997335 
Q 98.683 168.511798 106.116463 168.511798 
Q 108.60916 168.511798 110.897851 168.7123 
Q 113.186542 168.910523 115.303103 169.302413 
L 115.303103 171.501099 
Q 113.167416 170.981617 111.095482 170.740103 
Q 109.023547 170.49859 106.734856 170.49859 
Q 102.629238 170.49859 100.276796 171.439582 
Q 97.930728 172.378295 97.930728 174.030158 
Q 97.930728 175.675185 100.276796 176.616177 
Q 102.629238 177.55489 106.734856 177.55489 
Q 109.023547 177.55489 111.095482 177.313377 
Q 113.167416 177.069585 115.303103 176.550102 
L 115.303103 178.751067 
z
" clip-path="url(#pab5b8f38f6)" style="fill: #0000ff"/>
   </g>
   <g id="patch_7">
    <path d="M 134.162326 192.078298 
L 124.43116 192.078298 
L 122.89466 192.24 
L 116.634845 192.24 
L 125.574481 191.35235 
L 132.998311 191.35235 
L 141.937947 192.24 
L 135.683306 192.24 
L 134.162326 192.078298 
z
M 125.98318 191.913552 
L 132.594786 191.913552 
L 129.294156 191.56047 
L 125.98318 191.913552 
z
" clip-path="url(#pab5b8f38f6)" style="fill: #008000"/>
   </g>
   <g id="patch_8">
    <path d="M 116.634845 190.36051 
L 141.937947 190.36051 
L 141.937947 190.553947 
L 132.834715 190.553947 
L 132.834715 191.35235 
L 125.755731 191.35235 
L 125.755731 190.553947 
L 116.634845 190.553947 
L 116.634845 190.36051 
z
" clip-path="url(#pab5b8f38f6)" style="fill: #ff0000"/>
   </g>
   <g id="patch_9">
    <path d="M 141.937947 189.731591 
Q 139.821387 190.043332 137.532696 190.201015 
Q 135.244005 190.36051 132.751308 190.36051 
Q 125.317845 190.36051 120.976345 189.178794 
Q 116.634845 187.997078 116.634845 185.976199 
Q 116.634845 183.948069 120.976345 182.768166 
Q 125.317845 181.58645 132.751308 181.58645 
Q 135.244005 181.58645 137.532696 181.745945 
Q 139.821387 181.903628 141.937947 182.215369 
L 141.937947 183.964381 
Q 139.802261 183.551143 137.730326 183.359024 
Q 135.658392 183.166904 133.369701 183.166904 
Q 129.264083 183.166904 126.91164 183.915445 
Q 124.565573 184.662174 124.565573 185.976199 
Q 124.565573 187.284786 126.91164 188.033327 
Q 129.264083 188.780056 133.369701 188.780056 
Q 135.658392 188.780056 137.730326 188.587936 
Q 139.802261 188.394004 141.937947 187.980766 
L 141.937947 189.731591 
z
" clip-path="url(#pab5b8f38f6)" style="fill: #0000ff"/>
   </g>
   <g id="patch_10">
    <path d="M 141.937947 180.547275 
Q 139.386088 181.066862 136.641422 181.327842 
Q 133.896755 181.58645 130.970623 181.58645 
Q 124.358472 181.58645 120.496659 180.039551 
Q 116.634845 178.492652 116.634845 175.847265 
Q 116.634845 173.171036 120.564708 171.636 
Q 124.500242 170.100963 131.344896 170.100963 
Q 133.981817 170.100963 136.397577 170.309747 
Q 138.819008 170.516159 140.96257 170.924236 
L 140.96257 173.213741 
Q 138.750959 172.689409 136.562031 172.430802 
Q 134.373102 172.169822 132.172833 172.169822 
Q 128.101199 172.169822 125.895259 173.123585 
Q 123.689318 174.074975 123.689318 175.847265 
Q 123.689318 177.602948 125.815868 178.561456 
Q 127.942417 179.517591 131.855268 179.517591 
Q 132.921378 179.517591 133.834377 179.463023 
Q 134.747375 179.406082 135.473237 179.287454 
L 135.473237 177.137929 
L 131.3052 177.137929 
L 131.3052 175.223286 
L 141.937947 175.223286 
L 141.937947 180.547275 
z
" clip-path="url(#pab5b8f38f6)" style="fill: #ffa600"/>
   </g>
   <g id="patch_11">
    <path d="M 143.26969 190.762583 
L 168.572792 190.762583 
L 168.572792 191.05072 
L 159.46956 191.05072 
L 159.46956 192.24 
L 152.390576 192.24 
L 152.390576 191.05072 
L 143.26969 191.05072 
L 143.26969 190.762583 
z
" clip-path="url(#pab5b8f38f6)" style="fill: #ff0000"/>
   </g>
   <g id="patch_12">
    <path d="M 168.572792 190.410034 
Q 166.020933 190.586308 163.276267 190.674848 
Q 160.5316 190.762583 157.605468 190.762583 
Q 150.993317 190.762583 147.131503 190.237784 
Q 143.26969 189.712985 143.26969 188.815514 
Q 143.26969 187.907579 147.199553 187.386805 
Q 151.135087 186.86603 157.979741 186.86603 
Q 160.616662 186.86603 163.032422 186.936862 
Q 165.453853 187.006889 167.597415 187.145333 
L 167.597415 187.922068 
Q 165.385804 187.744183 163.196875 187.656449 
Q 161.007947 187.567909 158.807677 187.567909 
Q 154.736044 187.567909 152.530104 187.891481 
Q 150.324163 188.214249 150.324163 188.815514 
Q 150.324163 189.411145 152.450712 189.736327 
Q 154.577262 190.060704 158.490113 190.060704 
Q 159.556223 190.060704 160.469221 190.042191 
Q 161.38222 190.022874 162.108082 189.982628 
L 162.108082 189.253383 
L 157.940045 189.253383 
L 157.940045 188.603824 
L 168.572792 188.603824 
L 168.572792 190.410034 
z
" clip-path="url(#pab5b8f38f6)" style="fill: #ffa600"/>
   </g>
   <g id="patch_13">
    <path d="M 160.797171 185.942107 
L 151.066005 185.942107 
L 149.529505 186.86603 
L 143.26969 186.86603 
L 152.209326 181.794235 
L 159.633156 181.794235 
L 168.572792 186.86603 
L 162.318151 186.86603 
L 160.797171 185.942107 
z
M 152.618025 185.000792 
L 159.229631 185.000792 
L 155.929001 182.983379 
L 152.618025 185.000792 
z
" clip-path="url(#pab5b8f38f6)" style="fill: #008000"/>
   </g>
   <g id="patch_14">
    <path d="M 168.572792 180.102767 
Q 166.456231 180.941189 164.167541 181.365275 
Q 161.87885 181.794235 159.386153 181.794235 
Q 151.952689 181.794235 147.61119 178.616029 
Q 143.26969 175.437823 143.26969 170.002701 
Q 143.26969 164.548081 147.61119 161.37475 
Q 151.952689 158.196544 159.386153 158.196544 
Q 161.87885 158.196544 164.167541 158.625505 
Q 166.456231 159.04959 168.572792 159.888013 
L 168.572792 164.591952 
Q 166.437106 163.480555 164.365171 162.963853 
Q 162.293237 162.447151 160.004546 162.447151 
Q 155.898928 162.447151 153.546485 164.46034 
Q 151.200418 166.468654 151.200418 170.002701 
Q 151.200418 173.522126 153.546485 175.535314 
Q 155.898928 177.543628 160.004546 177.543628 
Q 162.293237 177.543628 164.365171 177.026926 
Q 166.437106 176.50535 168.572792 175.393952 
L 168.572792 180.102767 
z
" clip-path="url(#pab5b8f38f6)" style="fill: #0000ff"/>
   </g>
   <g id="patch_15">
    <path d="M 195.207637 192.164063 
Q 193.091076 192.201703 190.802386 192.220742 
Q 188.513695 192.24 186.020998 192.24 
Q 178.587534 192.24 174.246034 192.097317 
Q 169.904535 191.954635 169.904535 191.71063 
Q 169.904535 191.46575 174.246034 191.323287 
Q 178.587534 191.180604 186.020998 191.180604 
Q 188.513695 191.180604 190.802386 191.199862 
Q 193.091076 191.218901 195.207637 191.256541 
L 195.207637 191.46772 
Q 193.071951 191.417825 191.000016 191.394628 
Q 188.928082 191.371431 186.639391 191.371431 
Q 182.533773 191.371431 180.18133 191.461811 
Q 177.835263 191.551973 177.835263 191.71063 
Q 177.835263 191.868631 180.18133 191.959012 
Q 182.533773 192.049173 186.639391 192.049173 
Q 188.928082 192.049173 191.000016 192.025976 
Q 193.071951 192.00256 195.207637 191.952665 
L 195.207637 192.164063 
z
" clip-path="url(#pab5b8f38f6)" style="fill: #0000ff"/>
   </g>
   <g id="patch_16">
    <path d="M 187.432016 190.185388 
L 177.700849 190.185388 
L 176.164349 191.180604 
L 169.904535 191.180604 
L 178.844171 185.717453 
L 186.268001 185.717453 
L 195.207637 191.180604 
L 188.952996 191.180604 
L 187.432016 190.185388 
z
M 179.25287 189.171438 
L 185.864476 189.171438 
L 182.563846 186.998354 
L 179.25287 189.171438 
z
" clip-path="url(#pab5b8f38f6)" style="fill: #008000"/>
   </g>
   <g id="patch_17">
    <path d="M 195.207637 184.946128 
Q 192.655778 185.33179 189.911111 185.525502 
Q 187.166445 185.717453 184.240313 185.717453 
Q 177.628162 185.717453 173.766348 184.569271 
Q 169.904535 183.421089 169.904535 181.457557 
Q 169.904535 179.471132 173.834398 178.331755 
Q 177.769932 177.192378 184.614586 177.192378 
Q 187.251507 177.192378 189.667267 177.347347 
Q 192.088698 177.500555 194.23226 177.80345 
L 194.23226 179.50283 
Q 192.020649 179.113645 189.83172 178.921695 
Q 187.642792 178.727983 185.442522 178.727983 
Q 181.370889 178.727983 179.164948 179.435911 
Q 176.959008 180.142078 176.959008 181.457557 
Q 176.959008 182.760708 179.085557 183.472158 
Q 181.212107 184.181847 185.124958 184.181847 
Q 186.191068 184.181847 187.104066 184.141344 
Q 188.017065 184.09908 188.742927 184.011029 
L 188.742927 182.415549 
L 184.57489 182.415549 
L 184.57489 180.99441 
L 195.207637 180.99441 
L 195.207637 184.946128 
z
" clip-path="url(#pab5b8f38f6)" style="fill: #ffa600"/>
   </g>
   <g id="patch_18">
    <path d="M 169.904535 156.666108 
L 195.207637 156.666108 
L 195.207637 160.669302 
L 186.104405 160.669302 
L 186.104405 177.192378 
L 179.02542 177.192378 
L 179.02542 160.669302 
L 169.904535 160.669302 
L 169.904535 156.666108 
z
" clip-path="url(#pab5b8f38f6)" style="fill: #ff0000"/>
   </g>
   <g id="patch_19">
    <path d="M 196.539379 191.478091 
L 221.842482 191.478091 
L 221.842482 191.626684 
L 212.73925 191.626684 
L 212.73925 192.24 
L 205.660265 192.24 
L 205.660265 191.626684 
L 196.539379 191.626684 
L 196.539379 191.478091 
z
" clip-path="url(#pab5b8f38f6)" style="fill: #ff0000"/>
   </g>
   <g id="patch_20">
    <path d="M 221.842482 191.290326 
Q 219.290623 191.384208 216.545956 191.431364 
Q 213.80129 191.478091 210.875158 191.478091 
Q 204.263007 191.478091 200.401193 191.198587 
Q 196.539379 190.919083 196.539379 190.441097 
Q 196.539379 189.957538 200.469243 189.680177 
Q 204.404777 189.402817 211.249431 189.402817 
Q 213.886352 189.402817 216.302112 189.440541 
Q 218.723543 189.477837 220.867105 189.551571 
L 220.867105 189.965254 
Q 218.655493 189.870514 216.466565 189.823787 
Q 214.277637 189.776632 212.077367 189.776632 
Q 208.005734 189.776632 205.799793 189.948964 
Q 203.593853 190.120867 203.593853 190.441097 
Q 203.593853 190.758325 205.720402 190.931515 
Q 207.846952 191.104276 211.759802 191.104276 
Q 212.825913 191.104276 213.738911 191.094416 
Q 214.65191 191.084127 215.377772 191.062693 
L 215.377772 190.674302 
L 211.209735 190.674302 
L 211.209735 190.328352 
L 221.842482 190.328352 
L 221.842482 191.290326 
z
" clip-path="url(#pab5b8f38f6)" style="fill: #ffa600"/>
   </g>
   <g id="patch_21">
    <path d="M 221.842482 182.375341 
Q 219.725921 185.8587 217.43723 187.620632 
Q 215.14854 189.402817 212.655843 189.402817 
Q 205.222379 189.402817 200.880879 176.198452 
Q 196.539379 162.994088 196.539379 140.413005 
Q 196.539379 117.750914 200.880879 104.566801 
Q 205.222379 91.362437 212.655843 91.362437 
Q 215.14854 91.362437 217.43723 93.144621 
Q 219.725921 94.906553 221.842482 98.389913 
L 221.842482 117.933182 
Q 219.706796 113.315705 217.634861 111.168983 
Q 215.562927 109.022262 213.274236 109.022262 
Q 209.168618 109.022262 206.816175 117.386376 
Q 204.470108 125.730238 204.470108 140.413005 
Q 204.470108 155.035016 206.816175 163.39913 
Q 209.168618 171.742992 213.274236 171.742992 
Q 215.562927 171.742992 217.634861 169.59627 
Q 219.706796 167.429296 221.842482 162.811819 
L 221.842482 182.375341 
z
" clip-path="url(#pab5b8f38f6)" style="fill: #0000ff"/>
   </g>
   <g id="patch_22">
    <path d="M 223.174224 191.92932 
L 248.477327 191.92932 
L 248.477327 191.989911 
L 239.374094 191.989911 
L 239.374094 192.24 
L 232.29511 192.24 
L 232.29511 191.989911 
L 223.174224 191.989911 
L 223.174224 191.92932 
z
" clip-path="url(#pab5b8f38f6)" style="fill: #ff0000"/>
   </g>
   <g id="patch_23">
    <path d="M 240.701706 161.687587 
L 230.970539 161.687587 
L 229.434039 191.92932 
L 223.174224 191.92932 
L 232.113861 25.92 
L 239.537691 25.92 
L 248.477327 191.92932 
L 242.222686 191.92932 
L 240.701706 161.687587 
z
M 232.522559 130.876599 
L 239.134165 130.876599 
L 235.833536 64.842888 
L 232.522559 130.876599 
z
" clip-path="url(#pab5b8f38f6)" style="fill: #008000"/>
   </g>
   <g id="patch_24">
    <path d="M 249.809069 190.149573 
L 275.112172 190.149573 
L 275.112172 190.557265 
L 266.008939 190.557265 
L 266.008939 192.24 
L 258.929955 192.24 
L 258.929955 190.557265 
L 249.809069 190.557265 
L 249.809069 190.149573 
z
" clip-path="url(#pab5b8f38f6)" style="fill: #ff0000"/>
   </g>
   <g id="patch_25">
    <path d="M 275.112172 189.580837 
Q 272.995611 189.862747 270.70692 190.005341 
Q 268.418229 190.149573 265.925533 190.149573 
Q 258.492069 190.149573 254.150569 189.080939 
Q 249.809069 188.012306 249.809069 186.18481 
Q 249.809069 184.350759 254.150569 183.283764 
Q 258.492069 182.21513 265.925533 182.21513 
Q 268.418229 182.21513 270.70692 182.359363 
Q 272.995611 182.501957 275.112172 182.783867 
L 275.112172 184.36551 
Q 272.976485 183.991816 270.904551 183.818081 
Q 268.832616 183.644346 266.543925 183.644346 
Q 262.438307 183.644346 260.085865 184.321257 
Q 257.739797 184.996529 257.739797 186.18481 
Q 257.739797 187.368175 260.085865 188.045086 
Q 262.438307 188.720357 266.543925 188.720357 
Q 268.832616 188.720357 270.904551 188.546622 
Q 272.976485 188.371248 275.112172 187.997554 
L 275.112172 189.580837 
z
" clip-path="url(#pab5b8f38f6)" style="fill: #0000ff"/>
   </g>
   <g id="patch_26">
    <path d="M 275.112172 177.56034 
Q 272.560313 179.887735 269.815646 181.056747 
Q 267.07098 182.21513 264.144848 182.21513 
Q 257.532697 182.21513 253.670883 175.286082 
Q 249.809069 168.357034 249.809069 156.507511 
Q 249.809069 144.519832 253.738933 137.643921 
Q 257.674467 130.76801 264.51912 130.76801 
Q 267.156042 130.76801 269.571802 131.703219 
Q 271.993233 132.6278 274.136795 134.455709 
L 274.136795 144.711125 
Q 271.925183 142.362475 269.736255 141.204091 
Q 267.547327 140.03508 265.347057 140.03508 
Q 261.275424 140.03508 259.069483 144.307285 
Q 256.863542 148.568862 256.863542 156.507511 
Q 256.863542 164.371768 258.990092 168.665228 
Q 261.116641 172.94806 265.029492 172.94806 
Q 266.095602 172.94806 267.008601 172.70363 
Q 267.921599 172.448573 268.647462 171.917204 
L 268.647462 162.288803 
L 264.479425 162.288803 
L 264.479425 153.712512 
L 275.112172 153.712512 
L 275.112172 177.56034 
z
" clip-path="url(#pab5b8f38f6)" style="fill: #ffa600"/>
   </g>
   <g id="patch_27">
    <path d="M 301.747017 192.229327 
Q 299.630456 192.234617 297.341765 192.237293 
Q 295.053074 192.24 292.560378 192.24 
Q 285.126914 192.24 280.785414 192.219946 
Q 276.443914 192.199892 276.443914 192.165598 
Q 276.443914 192.13118 280.785414 192.111157 
Q 285.126914 192.091103 292.560378 192.091103 
Q 295.053074 192.091103 297.341765 192.09381 
Q 299.630456 192.096486 301.747017 192.101776 
L 301.747017 192.131457 
Q 299.61133 192.124444 297.539396 192.121184 
Q 295.467461 192.117924 293.17877 192.117924 
Q 289.073152 192.117924 286.72071 192.130626 
Q 284.374642 192.143299 284.374642 192.165598 
Q 284.374642 192.187805 286.72071 192.200507 
Q 289.073152 192.213179 293.17877 192.213179 
Q 295.467461 192.213179 297.539396 192.209919 
Q 299.61133 192.206628 301.747017 192.199615 
L 301.747017 192.229327 
z
" clip-path="url(#pab5b8f38f6)" style="fill: #0000ff"/>
   </g>
   <g id="patch_28">
    <path d="M 276.443914 154.686661 
L 301.747017 154.686661 
L 301.747017 161.981569 
L 292.643784 161.981569 
L 292.643784 192.091103 
L 285.5648 192.091103 
L 285.5648 161.981569 
L 276.443914 161.981569 
L 276.443914 154.686661 
z
" clip-path="url(#pab5b8f38f6)" style="fill: #ff0000"/>
   </g>
   <g id="patch_29">
    <path d="M 293.971396 145.394309 
L 284.240229 145.394309 
L 282.703729 154.686661 
L 276.443914 154.686661 
L 285.38355 103.677117 
L 292.80738 103.677117 
L 301.747017 154.686661 
L 295.492375 154.686661 
L 293.971396 145.394309 
z
M 285.792249 135.927043 
L 292.403855 135.927043 
L 289.103225 115.63692 
L 285.792249 135.927043 
z
" clip-path="url(#pab5b8f38f6)" style="fill: #008000"/>
   </g>
   <g id="patch_30">
    <path d="M 303.078759 192.196256 
L 328.381862 192.196256 
L 328.381862 192.204787 
L 319.278629 192.204787 
L 319.278629 192.24 
L 312.199645 192.24 
L 312.199645 192.204787 
L 303.078759 192.204787 
L 303.078759 192.196256 
z
" clip-path="url(#pab5b8f38f6)" style="fill: #ff0000"/>
   </g>
   <g id="patch_31">
    <path d="M 328.381862 191.960238 
Q 325.830002 192.078247 323.085336 192.137521 
Q 320.340669 192.196256 317.414537 192.196256 
Q 310.802386 192.196256 306.940573 191.844923 
Q 303.078759 191.49359 303.078759 190.892767 
Q 303.078759 190.284939 307.008622 189.9363 
Q 310.944156 189.587661 317.78881 189.587661 
Q 320.425731 189.587661 322.841492 189.63508 
Q 325.262922 189.681961 327.406484 189.774644 
L 327.406484 190.294638 
Q 325.194873 190.175552 323.005945 190.116816 
Q 320.817016 190.057542 318.616747 190.057542 
Q 314.545113 190.057542 312.339173 190.274162 
Q 310.133232 190.490243 310.133232 190.892767 
Q 310.133232 191.291519 312.259782 191.509217 
Q 314.386331 191.726375 318.299182 191.726375 
Q 319.365292 191.726375 320.278291 191.713981 
Q 321.191289 191.701049 321.917151 191.674106 
L 321.917151 191.185904 
L 317.749115 191.185904 
L 317.749115 190.751048 
L 328.381862 190.751048 
L 328.381862 191.960238 
z
" clip-path="url(#pab5b8f38f6)" style="fill: #ffa600"/>
   </g>
   <g id="patch_32">
    <path d="M 320.60624 188.215064 
L 310.875074 188.215064 
L 309.338574 189.587661 
L 303.078759 189.587661 
L 312.018395 182.052913 
L 319.442225 182.052913 
L 328.381862 189.587661 
L 322.12722 189.587661 
L 320.60624 188.215064 
z
M 312.427094 186.816631 
L 319.0387 186.816631 
L 315.73807 183.819526 
L 312.427094 186.816631 
z
" clip-path="url(#pab5b8f38f6)" style="fill: #008000"/>
   </g>
   <g id="patch_33">
    <path d="M 328.381862 179.985674 
Q 326.265301 181.010358 323.97661 181.528657 
Q 321.687919 182.052913 319.195222 182.052913 
Q 311.761759 182.052913 307.420259 178.168649 
Q 303.078759 174.284386 303.078759 167.641818 
Q 303.078759 160.975421 307.420259 157.097114 
Q 311.761759 153.212851 319.195222 153.212851 
Q 321.687919 153.212851 323.97661 153.737107 
Q 326.265301 154.255406 328.381862 155.280089 
L 328.381862 161.029038 
Q 326.246175 159.670737 324.174241 159.039246 
Q 322.102306 158.407755 319.813615 158.407755 
Q 315.707997 158.407755 313.355554 160.868186 
Q 311.009487 163.32266 311.009487 167.641818 
Q 311.009487 171.943104 313.355554 174.403535 
Q 315.707997 176.858008 319.813615 176.858008 
Q 322.102306 176.858008 324.174241 176.226517 
Q 326.246175 175.589069 328.381862 174.230768 
L 328.381862 179.985674 
z
" clip-path="url(#pab5b8f38f6)" style="fill: #0000ff"/>
   </g>
   <g id="patch_34">
    <path d="M 347.241085 191.814481 
L 337.509919 191.814481 
L 335.973419 192.24 
L 329.713604 192.24 
L 338.65324 189.904152 
L 346.07707 189.904152 
L 355.016706 192.24 
L 348.762065 192.24 
L 347.241085 191.814481 
z
M 339.061939 191.380952 
L 345.673545 191.380952 
L 342.372915 190.451819 
L 339.061939 191.380952 
z
" clip-path="url(#pab5b8f38f6)" style="fill: #008000"/>
   </g>
   <g id="patch_35">
    <path d="M 329.713604 187.307743 
L 355.016706 187.307743 
L 355.016706 187.814115 
L 345.913474 187.814115 
L 345.913474 189.904152 
L 338.83449 189.904152 
L 338.83449 187.814115 
L 329.713604 187.814115 
L 329.713604 187.307743 
z
" clip-path="url(#pab5b8f38f6)" style="fill: #ff0000"/>
   </g>
   <g id="patch_36">
    <path d="M 355.016706 185.830662 
Q 352.900146 186.562817 350.611455 186.933152 
Q 348.322764 187.307743 345.830067 187.307743 
Q 338.396604 187.307743 334.055104 184.532363 
Q 329.713604 181.756982 329.713604 177.010741 
Q 329.713604 172.247473 334.055104 169.476349 
Q 338.396604 166.700969 345.830067 166.700969 
Q 348.322764 166.700969 350.611455 167.07556 
Q 352.900146 167.445895 355.016706 168.17805 
L 355.016706 172.285784 
Q 352.88102 171.315252 350.809085 170.86404 
Q 348.737151 170.412827 346.44846 170.412827 
Q 342.342842 170.412827 339.990399 172.170852 
Q 337.644332 173.92462 337.644332 177.010741 
Q 337.644332 180.084092 339.990399 181.842117 
Q 342.342842 183.595885 346.44846 183.595885 
Q 348.737151 183.595885 350.809085 183.144672 
Q 352.88102 182.689204 355.016706 181.718672 
L 355.016706 185.830662 
z
" clip-path="url(#pab5b8f38f6)" style="fill: #0000ff"/>
   </g>
   <g id="patch_37">
    <path d="M 355.016706 164.773544 
Q 352.464847 165.737257 349.720181 166.221313 
Q 346.975514 166.700969 344.049382 166.700969 
Q 337.437231 166.700969 333.575418 163.831835 
Q 329.713604 160.9627 329.713604 156.056129 
Q 329.713604 151.09235 333.643467 148.245219 
Q 337.579001 145.398087 344.423655 145.398087 
Q 347.060576 145.398087 349.476336 145.785332 
Q 351.897767 146.168177 354.041329 146.925065 
L 354.041329 151.171559 
Q 351.829718 150.199046 349.64079 149.71939 
Q 347.451861 149.235334 345.251592 149.235334 
Q 341.179958 149.235334 338.974018 151.00434 
Q 336.768077 152.768946 336.768077 156.056129 
Q 336.768077 159.312508 338.894626 161.090315 
Q 341.021176 162.863722 344.934027 162.863722 
Q 346.000137 162.863722 346.913135 162.76251 
Q 347.826134 162.656898 348.551996 162.436872 
L 348.551996 158.450008 
L 344.383959 158.450008 
L 344.383959 154.898794 
L 355.016706 154.898794 
L 355.016706 164.773544 
z
" clip-path="url(#pab5b8f38f6)" style="fill: #ffa600"/>
   </g>
   <g id="patch_38">
    <path d="M 356.348449 191.196033 
L 381.651551 191.196033 
L 381.651551 191.399636 
L 372.548319 191.399636 
L 372.548319 192.24 
L 365.469335 192.24 
L 365.469335 191.399636 
L 356.348449 191.399636 
L 356.348449 191.196033 
z
" clip-path="url(#pab5b8f38f6)" style="fill: #ff0000"/>
   </g>
   <g id="patch_39">
    <path d="M 381.651551 190.907237 
Q 379.099692 191.051635 376.355026 191.124163 
Q 373.610359 191.196033 370.684227 191.196033 
Q 364.072076 191.196033 360.210262 190.766135 
Q 356.348449 190.336238 356.348449 189.601061 
Q 356.348449 188.857312 360.278312 188.430711 
Q 364.213846 188.004111 371.0585 188.004111 
Q 373.695421 188.004111 376.111181 188.062134 
Q 378.532612 188.119497 380.676174 188.232906 
L 380.676174 188.86918 
Q 378.464563 188.723463 376.275634 188.651594 
Q 374.086706 188.579065 371.886436 188.579065 
Q 367.814803 188.579065 365.608863 188.844125 
Q 363.402922 189.108525 363.402922 189.601061 
Q 363.402922 190.088981 365.529471 190.355359 
Q 367.656021 190.621078 371.568872 190.621078 
Q 372.634982 190.621078 373.54798 190.605913 
Q 374.460979 190.590088 375.186841 190.557121 
L 375.186841 189.959748 
L 371.018804 189.959748 
L 371.018804 189.427651 
L 381.651551 189.427651 
L 381.651551 190.907237 
z
" clip-path="url(#pab5b8f38f6)" style="fill: #ffa600"/>
   </g>
   <g id="patch_40">
    <path d="M 373.87593 186.786369 
L 364.144763 186.786369 
L 362.608263 188.004111 
L 356.348449 188.004111 
L 365.288085 181.319424 
L 372.711915 181.319424 
L 381.651551 188.004111 
L 375.39691 188.004111 
L 373.87593 186.786369 
z
M 365.696784 185.545705 
L 372.30839 185.545705 
L 369.00776 182.88673 
L 365.696784 185.545705 
z
" clip-path="url(#pab5b8f38f6)" style="fill: #008000"/>
   </g>
   <g id="patch_41">
    <path d="M 381.651551 178.022502 
Q 379.53499 179.656712 377.2463 180.483317 
Q 374.957609 181.319424 372.464912 181.319424 
Q 365.031448 181.319424 360.689949 175.124631 
Q 356.348449 168.929838 356.348449 158.335982 
Q 356.348449 147.70412 360.689949 141.518828 
Q 365.031448 135.324035 372.464912 135.324035 
Q 374.957609 135.324035 377.2463 136.160142 
Q 379.53499 136.986748 381.651551 138.620957 
L 381.651551 147.789631 
Q 379.515865 145.623354 377.44393 144.616225 
Q 375.371996 143.609096 373.083305 143.609096 
Q 368.977687 143.609096 366.625244 147.533098 
Q 364.279177 151.447599 364.279177 158.335982 
Q 364.279177 165.19586 366.625244 169.119862 
Q 368.977687 173.034364 373.083305 173.034364 
Q 375.371996 173.034364 377.44393 172.027235 
Q 379.515865 171.010604 381.651551 168.844327 
L 381.651551 178.022502 
z
" clip-path="url(#pab5b8f38f6)" style="fill: #0000ff"/>
   </g>
   <g id="patch_42">
    <path d="M 382.983294 184.489741 
L 408.286396 184.489741 
L 408.286396 186.001258 
L 399.183164 186.001258 
L 399.183164 192.24 
L 392.104179 192.24 
L 392.104179 186.001258 
L 382.983294 186.001258 
L 382.983294 184.489741 
z
" clip-path="url(#pab5b8f38f6)" style="fill: #ff0000"/>
   </g>
   <g id="patch_43">
    <path d="M 400.510775 182.701252 
L 390.779608 182.701252 
L 389.243108 184.489741 
L 382.983294 184.489741 
L 391.92293 174.671986 
L 399.34676 174.671986 
L 408.286396 184.489741 
L 402.031755 184.489741 
L 400.510775 182.701252 
z
M 392.331629 180.879097 
L 398.943235 180.879097 
L 395.642605 176.973877 
L 392.331629 180.879097 
z
" clip-path="url(#pab5b8f38f6)" style="fill: #008000"/>
   </g>
   <g id="patch_44">
    <path d="M 408.286396 172.961231 
Q 405.734537 173.816608 402.98987 174.24625 
Q 400.245204 174.671986 397.319072 174.671986 
Q 390.706921 174.671986 386.845107 172.125382 
Q 382.983294 169.578778 382.983294 165.223773 
Q 382.983294 160.817993 386.913157 158.290918 
Q 390.848691 155.763843 397.693345 155.763843 
Q 400.330266 155.763843 402.746026 156.107557 
Q 405.167457 156.447364 407.311019 157.119168 
L 407.311019 160.888298 
Q 405.099407 160.025108 402.910479 159.599372 
Q 400.721551 159.169731 398.521281 159.169731 
Q 394.449648 159.169731 392.243707 160.739876 
Q 390.037767 162.306115 390.037767 165.223773 
Q 390.037767 168.114091 392.164316 169.692048 
Q 394.290866 171.266099 398.203717 171.266099 
Q 399.269827 171.266099 400.182825 171.176264 
Q 401.095824 171.082524 401.821686 170.887233 
L 401.821686 167.348547 
L 397.653649 167.348547 
L 397.653649 164.196539 
L 408.286396 164.196539 
L 408.286396 172.961231 
z
" clip-path="url(#pab5b8f38f6)" style="fill: #ffa600"/>
   </g>
   <g id="patch_45">
    <path d="M 408.286396 154.342198 
Q 406.169835 155.046875 403.881145 155.403311 
Q 401.592454 155.763843 399.099757 155.763843 
Q 391.666293 155.763843 387.324793 153.092624 
Q 382.983294 150.421405 382.983294 145.853293 
Q 382.983294 141.268792 387.324793 138.60167 
Q 391.666293 135.930451 399.099757 135.930451 
Q 401.592454 135.930451 403.881145 136.290984 
Q 406.169835 136.64742 408.286396 137.352097 
L 408.286396 141.305665 
Q 406.15071 140.371558 404.078775 139.93728 
Q 402.006841 139.503002 399.71815 139.503002 
Q 395.612532 139.503002 393.260089 141.195047 
Q 390.914022 142.882995 390.914022 145.853293 
Q 390.914022 148.811299 393.260089 150.503344 
Q 395.612532 152.191293 399.71815 152.191293 
Q 402.006841 152.191293 404.078775 151.757015 
Q 406.15071 151.31864 408.286396 150.384532 
L 408.286396 154.342198 
z
" clip-path="url(#pab5b8f38f6)" style="fill: #0000ff"/>
   </g>
   <g id="patch_46">
    <path d="M 409.618138 188.210687 
L 434.921241 188.210687 
L 434.921241 188.996515 
L 425.818009 188.996515 
L 425.818009 192.24 
L 418.739024 192.24 
L 418.739024 188.996515 
L 409.618138 188.996515 
L 409.618138 188.210687 
z
" clip-path="url(#pab5b8f38f6)" style="fill: #ff0000"/>
   </g>
   <g id="patch_47">
    <path d="M 434.921241 185.316865 
Q 432.369382 186.763776 429.624715 187.490535 
Q 426.880049 188.210687 423.953917 188.210687 
Q 417.341766 188.210687 413.479952 183.902989 
Q 409.618138 179.59529 409.618138 172.228598 
Q 409.618138 164.776015 413.548002 160.501352 
Q 417.483536 156.226688 424.32819 156.226688 
Q 426.965111 156.226688 429.380871 156.808095 
Q 431.802302 157.382895 433.945864 158.519282 
L 433.945864 164.89494 
Q 431.734252 163.434815 429.545324 162.714663 
Q 427.356396 161.987904 425.156126 161.987904 
Q 421.084493 161.987904 418.878552 164.643877 
Q 416.672612 167.293244 416.672612 172.228598 
Q 416.672612 177.117703 418.799161 179.78689 
Q 420.925711 182.449471 424.838561 182.449471 
Q 425.904672 182.449471 426.81767 182.297512 
Q 427.730669 182.138947 428.456531 181.808602 
L 428.456531 175.822751 
L 424.288494 175.822751 
L 424.288494 170.490983 
L 434.921241 170.490983 
L 434.921241 185.316865 
z
" clip-path="url(#pab5b8f38f6)" style="fill: #ffa600"/>
   </g>
   <g id="patch_48">
    <path d="M 434.921241 153.789828 
Q 432.80468 154.997724 430.515989 155.608694 
Q 428.227299 156.226688 425.734602 156.226688 
Q 418.301138 156.226688 413.959638 151.647919 
Q 409.618138 147.069151 409.618138 139.238894 
Q 409.618138 131.380548 413.959638 126.808802 
Q 418.301138 122.230033 425.734602 122.230033 
Q 428.227299 122.230033 430.515989 122.848026 
Q 432.80468 123.458997 434.921241 124.666893 
L 434.921241 131.443752 
Q 432.785555 129.842587 430.71362 129.098186 
Q 428.641685 128.353785 426.352995 128.353785 
Q 422.247377 128.353785 419.894934 131.25414 
Q 417.548866 134.147472 417.548866 139.238894 
Q 417.548866 144.309249 419.894934 147.209604 
Q 422.247377 150.102936 426.352995 150.102936 
Q 428.641685 150.102936 430.71362 149.358535 
Q 432.785555 148.607111 434.921241 147.005947 
L 434.921241 153.789828 
z
" clip-path="url(#pab5b8f38f6)" style="fill: #0000ff"/>
   </g>
   <g id="patch_49">
    <path d="M 461.556086 192.117315 
Q 459.004227 192.178657 456.25956 192.209469 
Q 453.514894 192.24 450.588762 192.24 
Q 443.976611 192.24 440.114797 192.057373 
Q 436.252983 191.874745 436.252983 191.56243 
Q 436.252983 191.246474 440.182847 191.065247 
Q 444.118381 190.88402 450.963034 190.88402 
Q 453.599956 190.88402 456.015716 190.908669 
Q 458.437147 190.933038 460.580709 190.981216 
L 460.580709 191.251515 
Q 458.369097 191.189613 456.180169 191.159081 
Q 453.991241 191.12827 451.790971 191.12827 
Q 447.719338 191.12827 445.513397 191.240871 
Q 443.307457 191.353193 443.307457 191.56243 
Q 443.307457 191.769707 445.434006 191.882868 
Q 447.560555 191.99575 451.473406 191.99575 
Q 452.539516 191.99575 453.452515 191.989308 
Q 454.365514 191.982585 455.091376 191.96858 
L 455.091376 191.714806 
L 450.923339 191.714806 
L 450.923339 191.488763 
L 461.556086 191.488763 
L 461.556086 192.117315 
z
" clip-path="url(#pab5b8f38f6)" style="fill: #ffa600"/>
   </g>
   <g id="patch_50">
    <path d="M 436.252983 184.918985 
L 461.556086 184.918985 
L 461.556086 186.082333 
L 452.452853 186.082333 
L 452.452853 190.88402 
L 445.373869 190.88402 
L 445.373869 186.082333 
L 436.252983 186.082333 
L 436.252983 184.918985 
z
" clip-path="url(#pab5b8f38f6)" style="fill: #ff0000"/>
   </g>
   <g id="patch_51">
    <path d="M 461.556086 184.365897 
Q 459.439525 184.64005 457.150834 184.778721 
Q 454.862143 184.918985 452.369447 184.918985 
Q 444.935983 184.918985 440.594483 183.879754 
Q 436.252983 182.840523 436.252983 181.063309 
Q 436.252983 179.279721 440.594483 178.242083 
Q 444.935983 177.202852 452.369447 177.202852 
Q 454.862143 177.202852 457.150834 177.343116 
Q 459.439525 177.481787 461.556086 177.75594 
L 461.556086 179.294066 
Q 459.4204 178.930654 457.348465 178.761699 
Q 455.27653 178.592744 452.98784 178.592744 
Q 448.882221 178.592744 446.529779 179.25103 
Q 444.183711 179.907722 444.183711 181.063309 
Q 444.183711 182.214115 446.529779 182.872401 
Q 448.882221 183.529093 452.98784 183.529093 
Q 455.27653 183.529093 457.348465 183.360138 
Q 459.4204 183.18959 461.556086 182.826177 
L 461.556086 184.365897 
z
" clip-path="url(#pab5b8f38f6)" style="fill: #0000ff"/>
   </g>
   <g id="patch_52">
    <path d="M 453.780465 168.854967 
L 444.049298 168.854967 
L 442.512798 177.202852 
L 436.252983 177.202852 
L 445.19262 131.377876 
L 452.61645 131.377876 
L 461.556086 177.202852 
L 455.301445 177.202852 
L 453.780465 168.854967 
z
M 445.601318 160.349946 
L 452.212924 160.349946 
L 448.912295 142.122094 
L 445.601318 160.349946 
z
" clip-path="url(#pab5b8f38f6)" style="fill: #008000"/>
   </g>
   <g id="patch_53">
    <path d="M 488.190931 192.121643 
Q 486.07437 192.18031 483.785679 192.209984 
Q 481.496988 192.24 479.004292 192.24 
Q 471.570828 192.24 467.229328 192.017612 
Q 462.887828 191.795224 462.887828 191.414914 
Q 462.887828 191.033239 467.229328 190.811192 
Q 471.570828 190.588805 479.004292 190.588805 
Q 481.496988 190.588805 483.785679 190.61882 
Q 486.07437 190.648495 488.190931 190.707161 
L 488.190931 191.036309 
Q 486.055244 190.958541 483.98331 190.922386 
Q 481.911375 190.886231 479.622684 190.886231 
Q 475.517066 190.886231 473.164624 191.0271 
Q 470.818556 191.167627 470.818556 191.414914 
Q 470.818556 191.661178 473.164624 191.802046 
Q 475.517066 191.942573 479.622684 191.942573 
Q 481.911375 191.942573 483.98331 191.906418 
Q 486.055244 191.869922 488.190931 191.792155 
L 488.190931 192.121643 
z
" clip-path="url(#pab5b8f38f6)" style="fill: #0000ff"/>
   </g>
   <g id="patch_54">
    <path d="M 480.41531 189.665715 
L 470.684143 189.665715 
L 469.147643 190.588805 
L 462.887828 190.588805 
L 471.827465 185.521583 
L 479.251294 185.521583 
L 488.190931 190.588805 
L 481.936289 190.588805 
L 480.41531 189.665715 
z
M 472.236163 188.725249 
L 478.847769 188.725249 
L 475.54714 186.709654 
L 472.236163 188.725249 
z
" clip-path="url(#pab5b8f38f6)" style="fill: #008000"/>
   </g>
   <g id="patch_55">
    <path d="M 488.190931 179.574692 
Q 485.639071 182.548138 482.894405 184.041649 
Q 480.149739 185.521583 477.223607 185.521583 
Q 470.611456 185.521583 466.749642 176.669134 
Q 462.887828 167.816685 462.887828 152.67791 
Q 462.887828 137.36263 466.817691 128.578068 
Q 470.753226 119.793505 477.597879 119.793505 
Q 480.234801 119.793505 482.650561 120.988314 
Q 485.071992 122.169546 487.215553 124.504855 
L 487.215553 137.607023 
Q 485.003942 134.606423 482.815014 133.126489 
Q 480.626086 131.632977 478.425816 131.632977 
Q 474.354183 131.632977 472.148242 137.091082 
Q 469.942301 142.53561 469.942301 152.67791 
Q 469.942301 162.725169 472.068851 168.210429 
Q 474.1954 173.682111 478.108251 173.682111 
Q 479.174361 173.682111 480.08736 173.369831 
Q 481.000358 173.043974 481.726221 172.365106 
L 481.726221 160.064003 
L 477.558184 160.064003 
L 477.558184 149.10706 
L 488.190931 149.10706 
L 488.190931 179.574692 
z
" clip-path="url(#pab5b8f38f6)" style="fill: #ffa600"/>
   </g>
   <g id="patch_56">
    <path d="M 489.522673 189.944225 
L 514.825776 189.944225 
L 514.825776 190.391965 
L 505.722543 190.391965 
L 505.722543 192.24 
L 498.643559 192.24 
L 498.643559 190.391965 
L 489.522673 190.391965 
L 489.522673 189.944225 
z
" clip-path="url(#pab5b8f38f6)" style="fill: #ff0000"/>
   </g>
   <g id="patch_57">
    <path d="M 514.825776 189.276256 
Q 512.273916 189.61024 509.52925 189.777995 
Q 506.784583 189.944225 503.858451 189.944225 
Q 497.246301 189.944225 493.384487 188.949896 
Q 489.522673 187.955568 489.522673 186.255145 
Q 489.522673 184.534896 493.452536 183.548193 
Q 497.38807 182.56149 504.232724 182.56149 
Q 506.869645 182.56149 509.285406 182.695694 
Q 511.706837 182.828373 513.850398 183.09068 
L 513.850398 184.562347 
Q 511.638787 184.225312 509.449859 184.059083 
Q 507.260931 183.891328 505.060661 183.891328 
Q 500.989027 183.891328 498.783087 184.504395 
Q 496.577146 185.115938 496.577146 186.255145 
Q 496.577146 187.383677 498.703696 187.999794 
Q 500.830245 188.614387 504.743096 188.614387 
Q 505.809206 188.614387 506.722205 188.579311 
Q 507.635203 188.54271 508.361065 188.466458 
L 508.361065 187.084769 
L 504.193029 187.084769 
L 504.193029 185.854059 
L 514.825776 185.854059 
L 514.825776 189.276256 
z
" clip-path="url(#pab5b8f38f6)" style="fill: #ffa600"/>
   </g>
   <g id="patch_58">
    <path d="M 514.825776 181.706227 
Q 512.709215 182.130162 510.420524 182.344594 
Q 508.131833 182.56149 505.639136 182.56149 
Q 498.205673 182.56149 493.864173 180.954483 
Q 489.522673 179.347477 489.522673 176.599298 
Q 489.522673 173.84126 493.864173 172.236718 
Q 498.205673 170.629711 505.639136 170.629711 
Q 508.131833 170.629711 510.420524 170.846608 
Q 512.709215 171.061039 514.825776 171.484974 
L 514.825776 173.863442 
Q 512.690089 173.301483 510.618155 173.040221 
Q 508.54622 172.778959 506.257529 172.778959 
Q 502.151911 172.778959 499.799469 173.796895 
Q 497.453401 174.812365 497.453401 176.599298 
Q 497.453401 178.378836 499.799469 179.396771 
Q 502.151911 180.412242 506.257529 180.412242 
Q 508.54622 180.412242 510.618155 180.15098 
Q 512.690089 179.887253 514.825776 179.325294 
L 514.825776 181.706227 
z
" clip-path="url(#pab5b8f38f6)" style="fill: #0000ff"/>
   </g>
   <g id="patch_59">
    <path d="M 507.050154 163.303276 
L 497.318988 163.303276 
L 495.782488 170.629711 
L 489.522673 170.629711 
L 498.462309 130.411895 
L 505.886139 130.411895 
L 514.825776 170.629711 
L 508.571134 170.629711 
L 507.050154 163.303276 
z
M 498.871008 155.838933 
L 505.482614 155.838933 
L 502.181984 139.841447 
L 498.871008 155.838933 
z
" clip-path="url(#pab5b8f38f6)" style="fill: #008000"/>
   </g>
   <g id="patch_60">
    <path d="M 533.684999 191.908224 
L 523.953833 191.908224 
L 522.417333 192.24 
L 516.157518 192.24 
L 525.097154 190.418745 
L 532.520984 190.418745 
L 541.460621 192.24 
L 535.205979 192.24 
L 533.684999 191.908224 
z
M 525.505853 191.570203 
L 532.117459 191.570203 
L 528.816829 190.84576 
L 525.505853 191.570203 
z
" clip-path="url(#pab5b8f38f6)" style="fill: #008000"/>
   </g>
   <g id="patch_61">
    <path d="M 541.460621 189.720509 
Q 539.34406 190.066609 537.055369 190.241671 
Q 534.766678 190.418745 532.273981 190.418745 
Q 524.840518 190.418745 520.499018 189.106787 
Q 516.157518 187.794828 516.157518 185.551218 
Q 516.157518 183.29956 520.499018 181.989613 
Q 524.840518 180.677655 532.273981 180.677655 
Q 534.766678 180.677655 537.055369 180.854729 
Q 539.34406 181.029791 541.460621 181.37589 
L 541.460621 183.317669 
Q 539.324934 182.858886 537.253 182.645593 
Q 535.181065 182.432299 532.892374 182.432299 
Q 528.786756 182.432299 526.434313 183.26334 
Q 524.088246 184.092369 524.088246 185.551218 
Q 524.088246 187.004031 526.434313 187.835072 
Q 528.786756 188.664101 532.892374 188.664101 
Q 535.181065 188.664101 537.253 188.450807 
Q 539.324934 188.235501 541.460621 187.776718 
L 541.460621 189.720509 
z
" clip-path="url(#pab5b8f38f6)" style="fill: #0000ff"/>
   </g>
   <g id="patch_62">
    <path d="M 541.460621 176.045257 
Q 538.908761 178.361456 536.164095 179.524844 
Q 533.419428 180.677655 530.493296 180.677655 
Q 523.881145 180.677655 520.019332 173.78194 
Q 516.157518 166.886225 516.157518 155.093706 
Q 516.157518 143.163696 520.087381 136.320862 
Q 524.022915 129.478028 530.867569 129.478028 
Q 533.50449 129.478028 535.92025 130.408738 
Q 538.341681 131.328872 540.485243 133.147987 
L 540.485243 143.354068 
Q 538.273632 141.016717 536.084704 139.863906 
Q 533.895775 138.700518 531.695506 138.700518 
Q 527.623872 138.700518 525.417932 142.952171 
Q 523.211991 147.193247 523.211991 155.093706 
Q 523.211991 162.920131 525.338541 167.192936 
Q 527.46509 171.455165 531.377941 171.455165 
Q 532.444051 171.455165 533.35705 171.211911 
Q 534.270048 170.958081 534.99591 170.429268 
L 534.99591 160.847186 
L 530.827873 160.847186 
L 530.827873 152.312152 
L 541.460621 152.312152 
L 541.460621 176.045257 
z
" clip-path="url(#pab5b8f38f6)" style="fill: #ffa600"/>
   </g>
   <g id="patch_63">
    <path d="M 568.095465 191.460752 
Q 565.543606 191.850376 562.79894 192.046078 
Q 560.054273 192.24 557.128141 192.24 
Q 550.51599 192.24 546.654177 191.080023 
Q 542.792363 189.920047 542.792363 187.936344 
Q 542.792363 185.929514 546.722226 184.778433 
Q 550.65776 183.627352 557.502414 183.627352 
Q 560.139335 183.627352 562.555095 183.783913 
Q 564.976526 183.938695 567.120088 184.244701 
L 567.120088 185.961538 
Q 564.908477 185.568355 562.719548 185.374433 
Q 560.53062 185.178731 558.33035 185.178731 
Q 554.258717 185.178731 552.052777 185.893932 
Q 549.846836 186.607353 549.846836 187.936344 
Q 549.846836 189.252882 551.973385 189.971641 
Q 554.099935 190.68862 558.012786 190.68862 
Q 559.078896 190.68862 559.991894 190.647701 
Q 560.904893 190.605002 561.630755 190.516047 
L 561.630755 188.904178 
L 557.462718 188.904178 
L 557.462718 187.46844 
L 568.095465 187.46844 
L 568.095465 191.460752 
z
" clip-path="url(#pab5b8f38f6)" style="fill: #ffa600"/>
   </g>
   <g id="patch_64">
    <path d="M 560.319844 181.490704 
L 550.588678 181.490704 
L 549.052178 183.627352 
L 542.792363 183.627352 
L 551.731999 171.898414 
L 559.155829 171.898414 
L 568.095465 183.627352 
L 561.840824 183.627352 
L 560.319844 181.490704 
z
M 552.140698 179.313837 
L 558.752304 179.313837 
L 555.451674 174.648405 
L 552.140698 179.313837 
z
" clip-path="url(#pab5b8f38f6)" style="fill: #008000"/>
   </g>
   <g id="patch_65">
    <path d="M 568.095465 169.879574 
Q 565.978905 170.880267 563.690214 171.386432 
Q 561.401523 171.898414 558.908826 171.898414 
Q 551.475362 171.898414 547.133863 168.105089 
Q 542.792363 164.311764 542.792363 157.824713 
Q 542.792363 151.31439 547.133863 147.526883 
Q 551.475362 143.733558 558.908826 143.733558 
Q 561.401523 143.733558 563.690214 144.24554 
Q 565.978905 144.751705 568.095465 145.752398 
L 568.095465 151.366752 
Q 565.959779 150.040251 563.887844 149.423545 
Q 561.81591 148.806839 559.527219 148.806839 
Q 555.421601 148.806839 553.069158 151.209666 
Q 550.723091 153.606675 550.723091 157.824713 
Q 550.723091 162.025297 553.069158 164.428124 
Q 555.421601 166.825133 559.527219 166.825133 
Q 561.81591 166.825133 563.887844 166.208427 
Q 565.959779 165.585902 568.095465 164.259402 
L 568.095465 169.879574 
z
" clip-path="url(#pab5b8f38f6)" style="fill: #0000ff"/>
   </g>
   <g id="patch_66">
    <path d="M 586.954689 191.443503 
L 577.223522 191.443503 
L 575.687022 192.24 
L 569.427208 192.24 
L 578.366844 187.8677 
L 585.790674 187.8677 
L 594.73031 192.24 
L 588.475669 192.24 
L 586.954689 191.443503 
z
M 578.775543 190.632013 
L 585.387149 190.632013 
L 582.086519 188.892839 
L 578.775543 190.632013 
z
" clip-path="url(#pab5b8f38f6)" style="fill: #008000"/>
   </g>
   <g id="patch_67">
    <path d="M 594.73031 186.729068 
Q 592.613749 187.293462 590.325059 187.578941 
Q 588.036368 187.8677 585.543671 187.8677 
Q 578.110207 187.8677 573.768707 185.728253 
Q 569.427208 183.588805 569.427208 179.930087 
Q 569.427208 176.258243 573.768707 174.122076 
Q 578.110207 171.982629 585.543671 171.982629 
Q 588.036368 171.982629 590.325059 172.271388 
Q 592.613749 172.556867 594.73031 173.121261 
L 594.73031 176.287775 
Q 592.594624 175.539625 590.522689 175.1918 
Q 588.450755 174.843976 586.162064 174.843976 
Q 582.056446 174.843976 579.704003 176.199178 
Q 577.357936 177.551099 577.357936 179.930087 
Q 577.357936 182.29923 579.704003 183.654432 
Q 582.056446 185.006353 586.162064 185.006353 
Q 588.450755 185.006353 590.522689 184.658529 
Q 592.594624 184.307423 594.73031 183.559273 
L 594.73031 186.729068 
z
" clip-path="url(#pab5b8f38f6)" style="fill: #0000ff"/>
   </g>
   <g id="patch_68">
    <path d="M 594.73031 170.296774 
Q 592.178451 171.139701 589.433785 171.56309 
Q 586.689118 171.982629 583.762986 171.982629 
Q 577.150835 171.982629 573.289021 169.473092 
Q 569.427208 166.963555 569.427208 162.67194 
Q 569.427208 158.330287 573.357071 155.839995 
Q 577.292605 153.349704 584.137259 153.349704 
Q 586.77418 153.349704 589.18994 153.688414 
Q 591.611371 154.023276 593.754933 154.685301 
L 593.754933 158.399569 
Q 591.543322 157.548944 589.354393 157.129405 
Q 587.165465 156.706017 584.965195 156.706017 
Q 580.893562 156.706017 578.687621 158.253308 
Q 576.481681 159.79675 576.481681 162.67194 
Q 576.481681 165.520187 578.60823 167.075176 
Q 580.73478 168.626316 584.647631 168.626316 
Q 585.713741 168.626316 586.626739 168.537789 
Q 587.539738 168.445414 588.2656 168.252964 
L 588.2656 164.765786 
L 584.097563 164.765786 
L 584.097563 161.659657 
L 594.73031 161.659657 
L 594.73031 170.296774 
z
" clip-path="url(#pab5b8f38f6)" style="fill: #ffa600"/>
   </g>
   <g id="patch_69">
    <path d="M 596.062053 189.041304 
L 621.365155 189.041304 
L 621.365155 189.665139 
L 612.261923 189.665139 
L 612.261923 192.24 
L 605.182938 192.24 
L 605.182938 189.665139 
L 596.062053 189.665139 
L 596.062053 189.041304 
z
" clip-path="url(#pab5b8f38f6)" style="fill: #ff0000"/>
   </g>
   <g id="patch_70">
    <path d="M 621.365155 188.473979 
Q 618.813296 188.757642 616.068629 188.900121 
Q 613.323963 189.041304 610.397831 189.041304 
Q 603.78568 189.041304 599.923866 188.196793 
Q 596.062053 187.352282 596.062053 185.908064 
Q 596.062053 184.447008 599.991916 183.608973 
Q 603.92745 182.770938 610.772104 182.770938 
Q 613.409025 182.770938 615.824785 182.884921 
Q 618.246216 182.997608 620.389778 183.220394 
L 620.389778 184.470322 
Q 618.178166 184.184069 615.989238 184.042886 
Q 613.80031 183.900407 611.60004 183.900407 
Q 607.528407 183.900407 605.322466 184.421102 
Q 603.116526 184.940503 603.116526 185.908064 
Q 603.116526 186.866558 605.243075 187.389844 
Q 607.369625 187.911835 611.282476 187.911835 
Q 612.348586 187.911835 613.261584 187.882044 
Q 614.174583 187.850958 614.900445 187.786195 
L 614.900445 186.612687 
L 610.732408 186.612687 
L 610.732408 185.56741 
L 621.365155 185.56741 
L 621.365155 188.473979 
z
" clip-path="url(#pab5b8f38f6)" style="fill: #ffa600"/>
   </g>
   <g id="patch_71">
    <path d="M 621.365155 180.592491 
Q 619.248594 181.672297 616.959903 182.218478 
Q 614.671213 182.770938 612.178516 182.770938 
Q 604.745052 182.770938 600.403552 178.677718 
Q 596.062053 174.584499 596.062053 167.584592 
Q 596.062053 160.559574 600.403552 156.472632 
Q 604.745052 152.379413 612.178516 152.379413 
Q 614.671213 152.379413 616.959903 152.931872 
Q 619.248594 153.478053 621.365155 154.55786 
L 621.365155 160.616075 
Q 619.229469 159.184704 617.157534 158.519242 
Q 615.0856 157.85378 612.796909 157.85378 
Q 608.691291 157.85378 606.338848 160.446571 
Q 603.992781 163.033083 603.992781 167.584592 
Q 603.992781 172.117267 606.338848 174.710058 
Q 608.691291 177.296571 612.796909 177.296571 
Q 615.0856 177.296571 617.157534 176.631109 
Q 619.229469 175.959369 621.365155 174.527998 
L 621.365155 180.592491 
z
" clip-path="url(#pab5b8f38f6)" style="fill: #0000ff"/>
   </g>
   <g id="patch_72">
    <path d="M 640.224379 191.623162 
L 630.493212 191.623162 
L 628.956712 192.24 
L 622.696897 192.24 
L 631.636534 188.853923 
L 639.060364 188.853923 
L 648 192.24 
L 641.745359 192.24 
L 640.224379 191.623162 
z
M 632.045232 190.994713 
L 638.656838 190.994713 
L 635.356209 189.64783 
L 632.045232 190.994713 
z
" clip-path="url(#pab5b8f38f6)" style="fill: #008000"/>
   </g>
   <g id="patch_73">
    <path d="M 648 187.952083 
Q 645.448141 188.403003 642.703474 188.629493 
Q 639.958808 188.853923 637.032676 188.853923 
Q 630.420525 188.853923 626.558711 187.511458 
Q 622.696897 186.168993 622.696897 183.873212 
Q 622.696897 181.550664 626.626761 180.218494 
Q 630.562295 178.886324 637.406949 178.886324 
Q 640.04387 178.886324 642.45963 179.067515 
Q 644.881061 179.246648 647.024623 179.600795 
L 647.024623 181.587726 
Q 644.813011 181.132688 642.624083 180.908258 
Q 640.435155 180.681768 638.234885 180.681768 
Q 634.163252 180.681768 631.957311 181.509484 
Q 629.751371 182.335142 629.751371 183.873212 
Q 629.751371 185.396869 631.87792 186.228703 
Q 634.004469 187.058479 637.91732 187.058479 
Q 638.98343 187.058479 639.896429 187.011122 
Q 640.809428 186.961706 641.53529 186.858756 
L 641.53529 184.993306 
L 637.367253 184.993306 
L 637.367253 183.331696 
L 648 183.331696 
L 648 187.952083 
z
" clip-path="url(#pab5b8f38f6)" style="fill: #ffa600"/>
   </g>
   <g id="patch_74">
    <path d="M 648 177.691049 
Q 645.883439 178.283519 643.594748 178.583199 
Q 641.306058 178.886324 638.813361 178.886324 
Q 631.379897 178.886324 627.038397 176.640448 
Q 622.696897 174.394572 622.696897 170.553848 
Q 622.696897 166.699346 627.038397 164.456915 
Q 631.379897 162.211039 638.813361 162.211039 
Q 641.306058 162.211039 643.594748 162.514163 
Q 645.883439 162.813843 648 163.406313 
L 648 166.730347 
Q 645.864314 165.94498 643.792379 165.579853 
Q 641.720444 165.214726 639.431754 165.214726 
Q 635.326136 165.214726 632.973693 166.637343 
Q 630.627625 168.056516 630.627625 170.553848 
Q 630.627625 173.040846 632.973693 174.463463 
Q 635.326136 175.882637 639.431754 175.882637 
Q 641.720444 175.882637 643.792379 175.51751 
Q 645.864314 175.148938 648 174.36357 
L 648 177.691049 
z
" clip-path="url(#pab5b8f38f6)" style="fill: #0000ff"/>
   </g>
   <g id="patch_75">
    <path d="M 267.336551 192.445954 
L 257.605384 192.445954 
L 256.068884 192.24 
L 249.809069 192.24 
L 258.748706 193.370567 
L 266.172535 193.370567 
L 275.112172 192.24 
L 268.85753 192.24 
L 267.336551 192.445954 
z
M 259.157404 192.655785 
L 265.76901 192.655785 
L 262.468381 193.105492 
L 259.157404 192.655785 
z
" clip-path="url(#pab5b8f38f6)" style="fill: #008000"/>
   </g>
   <g id="patch_76">
    <path d="M 301.747017 192.610187 
Q 299.195157 192.425094 296.450491 192.332124 
Q 293.705825 192.24 290.779693 192.24 
Q 284.167542 192.24 280.305728 192.791055 
Q 276.443914 193.34211 276.443914 194.284482 
Q 276.443914 195.237842 280.373777 195.784671 
Q 284.309312 196.3315 291.153965 196.3315 
Q 293.790886 196.3315 296.206647 196.257125 
Q 298.628078 196.183594 300.771639 196.038224 
L 300.771639 195.222628 
Q 298.560028 195.409412 296.3711 195.501537 
Q 294.182172 195.594506 291.981902 195.594506 
Q 287.910269 195.594506 285.704328 195.254745 
Q 283.498387 194.915829 283.498387 194.284482 
Q 283.498387 193.659052 285.624937 193.3176 
Q 287.751486 192.976994 291.664337 192.976994 
Q 292.730447 192.976994 293.643446 192.996433 
Q 294.556444 193.016717 295.282306 193.058976 
L 295.282306 193.824706 
L 291.11427 193.824706 
L 291.11427 194.506764 
L 301.747017 194.506764 
L 301.747017 192.610187 
z
" clip-path="url(#pab5b8f38f6)" style="fill: #ffa600"/>
   </g>
   <g id="patch_77">
    <path d="M 427.14562 192.346836 
L 417.414453 192.346836 
L 415.877953 192.24 
L 409.618138 192.24 
L 418.557775 192.826466 
L 425.981605 192.826466 
L 434.921241 192.24 
L 428.6666 192.24 
L 427.14562 192.346836 
z
M 418.966473 192.455683 
L 425.578079 192.455683 
L 422.27745 192.688962 
L 418.966473 192.455683 
z
" clip-path="url(#pab5b8f38f6)" style="fill: #008000"/>
   </g>
   <g id="patch_78">
    <path d="M 462.887828 192.766981 
L 488.190931 192.766981 
L 488.190931 192.664205 
L 479.087698 192.664205 
L 479.087698 192.24 
L 472.008714 192.24 
L 472.008714 192.664205 
L 462.887828 192.664205 
L 462.887828 192.766981 
z
" clip-path="url(#pab5b8f38f6)" style="fill: #ff0000"/>
   </g>
   <g id="patch_79">
    <path d="M 516.157518 193.399441 
L 541.460621 193.399441 
L 541.460621 193.173318 
L 532.357388 193.173318 
L 532.357388 192.24 
L 525.278404 192.24 
L 525.278404 193.173318 
L 516.157518 193.173318 
L 516.157518 193.399441 
z
" clip-path="url(#pab5b8f38f6)" style="fill: #ff0000"/>
   </g>
   <g id="patch_80">
    <path d="M 542.792363 192.28753 
L 568.095465 192.28753 
L 568.095465 192.27826 
L 558.992233 192.27826 
L 558.992233 192.24 
L 551.913249 192.24 
L 551.913249 192.27826 
L 542.792363 192.27826 
L 542.792363 192.28753 
z
" clip-path="url(#pab5b8f38f6)" style="fill: #ff0000"/>
   </g>
   <g id="patch_81">
    <path d="M 569.427208 193.186669 
L 594.73031 193.186669 
L 594.73031 193.002042 
L 585.627078 193.002042 
L 585.627078 192.24 
L 578.548093 192.24 
L 578.548093 193.002042 
L 569.427208 193.002042 
L 569.427208 193.186669 
z
" clip-path="url(#pab5b8f38f6)" style="fill: #ff0000"/>
   </g>
   <g id="patch_82">
    <path d="M 613.589534 192.86716 
L 603.858367 192.86716 
L 602.321867 192.24 
L 596.062053 192.24 
L 605.001689 195.682737 
L 612.425519 195.682737 
L 621.365155 192.24 
L 615.110514 192.24 
L 613.589534 192.86716 
z
M 605.410387 193.506124 
L 612.021994 193.506124 
L 608.721364 194.875546 
L 605.410387 193.506124 
z
" clip-path="url(#pab5b8f38f6)" style="fill: #008000"/>
   </g>
   <g id="patch_83">
    <path d="M 622.696897 197.086612 
L 648 197.086612 
L 648 196.141387 
L 638.896767 196.141387 
L 638.896767 192.24 
L 631.817783 192.24 
L 631.817783 196.141387 
L 622.696897 196.141387 
L 622.696897 197.086612 
z
" clip-path="url(#pab5b8f38f6)" style="fill: #ff0000"/>
   </g>
   <g id="matplotlib.axis_1">
    <g id="xtick_1">
     <g id="line2d_2">
      <defs>
       <path id="mf075414871" d="M 0 0 
L 0 3.5 
" style="stroke: #000000; stroke-width: 0.8"/>
      </defs>
      <g>
       <use xlink:href="#mf075414871" x="102.651551" y="192.24" style="stroke: #000000; stroke-width: 0.8"/>
      </g>
     </g>
     <g id="text_1">
      <!-- 0.0 -->
      <g transform="translate(94.699989 206.838437) scale(0.1 -0.1)">
       <defs>
        <path id="DejaVuSans-30" d="M 2034 4250 
Q 1547 4250 1301 3770 
Q 1056 3291 1056 2328 
Q 1056 1369 1301 889 
Q 1547 409 2034 409 
Q 2525 409 2770 889 
Q 3016 1369 3016 2328 
Q 3016 3291 2770 3770 
Q 2525 4250 2034 4250 
z
M 2034 4750 
Q 2819 4750 3233 4129 
Q 3647 3509 3647 2328 
Q 3647 1150 3233 529 
Q 2819 -91 2034 -91 
Q 1250 -91 836 529 
Q 422 1150 422 2328 
Q 422 3509 836 4129 
Q 1250 4750 2034 4750 
z
" transform="scale(0.015625)"/>
        <path id="DejaVuSans-2e" d="M 684 794 
L 1344 794 
L 1344 0 
L 684 0 
L 684 794 
z
" transform="scale(0.015625)"/>
       </defs>
       <use xlink:href="#DejaVuSans-30"/>
       <use xlink:href="#DejaVuSans-2e" x="63.623047"/>
       <use xlink:href="#DejaVuSans-30" x="95.410156"/>
      </g>
     </g>
    </g>
    <g id="xtick_2">
     <g id="line2d_3">
      <g>
       <use xlink:href="#mf075414871" x="169.238663" y="192.24" style="stroke: #000000; stroke-width: 0.8"/>
      </g>
     </g>
     <g id="text_2">
      <!-- 2.5 -->
      <g transform="translate(161.287101 206.838437) scale(0.1 -0.1)">
       <defs>
        <path id="DejaVuSans-32" d="M 1228 531 
L 3431 531 
L 3431 0 
L 469 0 
L 469 531 
Q 828 903 1448 1529 
Q 2069 2156 2228 2338 
Q 2531 2678 2651 2914 
Q 2772 3150 2772 3378 
Q 2772 3750 2511 3984 
Q 2250 4219 1831 4219 
Q 1534 4219 1204 4116 
Q 875 4013 500 3803 
L 500 4441 
Q 881 4594 1212 4672 
Q 1544 4750 1819 4750 
Q 2544 4750 2975 4387 
Q 3406 4025 3406 3419 
Q 3406 3131 3298 2873 
Q 3191 2616 2906 2266 
Q 2828 2175 2409 1742 
Q 1991 1309 1228 531 
z
" transform="scale(0.015625)"/>
        <path id="DejaVuSans-35" d="M 691 4666 
L 3169 4666 
L 3169 4134 
L 1269 4134 
L 1269 2991 
Q 1406 3038 1543 3061 
Q 1681 3084 1819 3084 
Q 2600 3084 3056 2656 
Q 3513 2228 3513 1497 
Q 3513 744 3044 326 
Q 2575 -91 1722 -91 
Q 1428 -91 1123 -41 
Q 819 9 494 109 
L 494 744 
Q 775 591 1075 516 
Q 1375 441 1709 441 
Q 2250 441 2565 725 
Q 2881 1009 2881 1497 
Q 2881 1984 2565 2268 
Q 2250 2553 1709 2553 
Q 1456 2553 1204 2497 
Q 953 2441 691 2322 
L 691 4666 
z
" transform="scale(0.015625)"/>
       </defs>
       <use xlink:href="#DejaVuSans-32"/>
       <use xlink:href="#DejaVuSans-2e" x="63.623047"/>
       <use xlink:href="#DejaVuSans-35" x="95.410156"/>
      </g>
     </g>
    </g>
    <g id="xtick_3">
     <g id="line2d_4">
      <g>
       <use xlink:href="#mf075414871" x="235.825776" y="192.24" style="stroke: #000000; stroke-width: 0.8"/>
      </g>
     </g>
     <g id="text_3">
      <!-- 5.0 -->
      <g transform="translate(227.874213 206.838437) scale(0.1 -0.1)">
       <use xlink:href="#DejaVuSans-35"/>
       <use xlink:href="#DejaVuSans-2e" x="63.623047"/>
       <use xlink:href="#DejaVuSans-30" x="95.410156"/>
      </g>
     </g>
    </g>
    <g id="xtick_4">
     <g id="line2d_5">
      <g>
       <use xlink:href="#mf075414871" x="302.412888" y="192.24" style="stroke: #000000; stroke-width: 0.8"/>
      </g>
     </g>
     <g id="text_4">
      <!-- 7.5 -->
      <g transform="translate(294.461325 206.838437) scale(0.1 -0.1)">
       <defs>
        <path id="DejaVuSans-37" d="M 525 4666 
L 3525 4666 
L 3525 4397 
L 1831 0 
L 1172 0 
L 2766 4134 
L 525 4134 
L 525 4666 
z
" transform="scale(0.015625)"/>
       </defs>
       <use xlink:href="#DejaVuSans-37"/>
       <use xlink:href="#DejaVuSans-2e" x="63.623047"/>
       <use xlink:href="#DejaVuSans-35" x="95.410156"/>
      </g>
     </g>
    </g>
    <g id="xtick_5">
     <g id="line2d_6">
      <g>
       <use xlink:href="#mf075414871" x="369" y="192.24" style="stroke: #000000; stroke-width: 0.8"/>
      </g>
     </g>
     <g id="text_5">
      <!-- 10.0 -->
      <g transform="translate(357.867188 206.838437) scale(0.1 -0.1)">
       <defs>
        <path id="DejaVuSans-31" d="M 794 531 
L 1825 531 
L 1825 4091 
L 703 3866 
L 703 4441 
L 1819 4666 
L 2450 4666 
L 2450 531 
L 3481 531 
L 3481 0 
L 794 0 
L 794 531 
z
" transform="scale(0.015625)"/>
       </defs>
       <use xlink:href="#DejaVuSans-31"/>
       <use xlink:href="#DejaVuSans-30" x="63.623047"/>
       <use xlink:href="#DejaVuSans-2e" x="127.246094"/>
       <use xlink:href="#DejaVuSans-30" x="159.033203"/>
      </g>
     </g>
    </g>
    <g id="xtick_6">
     <g id="line2d_7">
      <g>
       <use xlink:href="#mf075414871" x="435.587112" y="192.24" style="stroke: #000000; stroke-width: 0.8"/>
      </g>
     </g>
     <g id="text_6">
      <!-- 12.5 -->
      <g transform="translate(424.4543 206.838437) scale(0.1 -0.1)">
       <use xlink:href="#DejaVuSans-31"/>
       <use xlink:href="#DejaVuSans-32" x="63.623047"/>
       <use xlink:href="#DejaVuSans-2e" x="127.246094"/>
       <use xlink:href="#DejaVuSans-35" x="159.033203"/>
      </g>
     </g>
    </g>
    <g id="xtick_7">
     <g id="line2d_8">
      <g>
       <use xlink:href="#mf075414871" x="502.174224" y="192.24" style="stroke: #000000; stroke-width: 0.8"/>
      </g>
     </g>
     <g id="text_7">
      <!-- 15.0 -->
      <g transform="translate(491.041412 206.838437) scale(0.1 -0.1)">
       <use xlink:href="#DejaVuSans-31"/>
       <use xlink:href="#DejaVuSans-35" x="63.623047"/>
       <use xlink:href="#DejaVuSans-2e" x="127.246094"/>
       <use xlink:href="#DejaVuSans-30" x="159.033203"/>
      </g>
     </g>
    </g>
    <g id="xtick_8">
     <g id="line2d_9">
      <g>
       <use xlink:href="#mf075414871" x="568.761337" y="192.24" style="stroke: #000000; stroke-width: 0.8"/>
      </g>
     </g>
     <g id="text_8">
      <!-- 17.5 -->
      <g transform="translate(557.628524 206.838437) scale(0.1 -0.1)">
       <use xlink:href="#DejaVuSans-31"/>
       <use xlink:href="#DejaVuSans-37" x="63.623047"/>
       <use xlink:href="#DejaVuSans-2e" x="127.246094"/>
       <use xlink:href="#DejaVuSans-35" x="159.033203"/>
      </g>
     </g>
    </g>
    <g id="xtick_9">
     <g id="line2d_10">
      <g>
       <use xlink:href="#mf075414871" x="635.348449" y="192.24" style="stroke: #000000; stroke-width: 0.8"/>
      </g>
     </g>
     <g id="text_9">
      <!-- 20.0 -->
      <g transform="translate(624.215636 206.838437) scale(0.1 -0.1)">
       <use xlink:href="#DejaVuSans-32"/>
       <use xlink:href="#DejaVuSans-30" x="63.623047"/>
       <use xlink:href="#DejaVuSans-2e" x="127.246094"/>
       <use xlink:href="#DejaVuSans-30" x="159.033203"/>
      </g>
     </g>
    </g>
   </g>
   <g id="matplotlib.axis_2">
    <g id="ytick_1">
     <g id="line2d_11">
      <defs>
       <path id="m15b5e77cd3" d="M 0 0 
L -3.5 0 
" style="stroke: #000000; stroke-width: 0.8"/>
      </defs>
      <g>
       <use xlink:href="#m15b5e77cd3" x="90" y="192.24" style="stroke: #000000; stroke-width: 0.8"/>
      </g>
     </g>
     <g id="text_10">
      <!-- 0.000 -->
      <g transform="translate(54.371875 196.039219) scale(0.1 -0.1)">
       <use xlink:href="#DejaVuSans-30"/>
       <use xlink:href="#DejaVuSans-2e" x="63.623047"/>
       <use xlink:href="#DejaVuSans-30" x="95.410156"/>
       <use xlink:href="#DejaVuSans-30" x="159.033203"/>
       <use xlink:href="#DejaVuSans-30" x="222.65625"/>
      </g>
     </g>
    </g>
    <g id="ytick_2">
     <g id="line2d_12">
      <g>
       <use xlink:href="#m15b5e77cd3" x="90" y="171.229221" style="stroke: #000000; stroke-width: 0.8"/>
      </g>
     </g>
     <g id="text_11">
      <!-- 0.002 -->
      <g transform="translate(54.371875 175.028439) scale(0.1 -0.1)">
       <use xlink:href="#DejaVuSans-30"/>
       <use xlink:href="#DejaVuSans-2e" x="63.623047"/>
       <use xlink:href="#DejaVuSans-30" x="95.410156"/>
       <use xlink:href="#DejaVuSans-30" x="159.033203"/>
       <use xlink:href="#DejaVuSans-32" x="222.65625"/>
      </g>
     </g>
    </g>
    <g id="ytick_3">
     <g id="line2d_13">
      <g>
       <use xlink:href="#m15b5e77cd3" x="90" y="150.218441" style="stroke: #000000; stroke-width: 0.8"/>
      </g>
     </g>
     <g id="text_12">
      <!-- 0.004 -->
      <g transform="translate(54.371875 154.01766) scale(0.1 -0.1)">
       <defs>
        <path id="DejaVuSans-34" d="M 2419 4116 
L 825 1625 
L 2419 1625 
L 2419 4116 
z
M 2253 4666 
L 3047 4666 
L 3047 1625 
L 3713 1625 
L 3713 1100 
L 3047 1100 
L 3047 0 
L 2419 0 
L 2419 1100 
L 313 1100 
L 313 1709 
L 2253 4666 
z
" transform="scale(0.015625)"/>
       </defs>
       <use xlink:href="#DejaVuSans-30"/>
       <use xlink:href="#DejaVuSans-2e" x="63.623047"/>
       <use xlink:href="#DejaVuSans-30" x="95.410156"/>
       <use xlink:href="#DejaVuSans-30" x="159.033203"/>
       <use xlink:href="#DejaVuSans-34" x="222.65625"/>
      </g>
     </g>
    </g>
    <g id="ytick_4">
     <g id="line2d_14">
      <g>
       <use xlink:href="#m15b5e77cd3" x="90" y="129.207662" style="stroke: #000000; stroke-width: 0.8"/>
      </g>
     </g>
     <g id="text_13">
      <!-- 0.006 -->
      <g transform="translate(54.371875 133.006881) scale(0.1 -0.1)">
       <defs>
        <path id="DejaVuSans-36" d="M 2113 2584 
Q 1688 2584 1439 2293 
Q 1191 2003 1191 1497 
Q 1191 994 1439 701 
Q 1688 409 2113 409 
Q 2538 409 2786 701 
Q 3034 994 3034 1497 
Q 3034 2003 2786 2293 
Q 2538 2584 2113 2584 
z
M 3366 4563 
L 3366 3988 
Q 3128 4100 2886 4159 
Q 2644 4219 2406 4219 
Q 1781 4219 1451 3797 
Q 1122 3375 1075 2522 
Q 1259 2794 1537 2939 
Q 1816 3084 2150 3084 
Q 2853 3084 3261 2657 
Q 3669 2231 3669 1497 
Q 3669 778 3244 343 
Q 2819 -91 2113 -91 
Q 1303 -91 875 529 
Q 447 1150 447 2328 
Q 447 3434 972 4092 
Q 1497 4750 2381 4750 
Q 2619 4750 2861 4703 
Q 3103 4656 3366 4563 
z
" transform="scale(0.015625)"/>
       </defs>
       <use xlink:href="#DejaVuSans-30"/>
       <use xlink:href="#DejaVuSans-2e" x="63.623047"/>
       <use xlink:href="#DejaVuSans-30" x="95.410156"/>
       <use xlink:href="#DejaVuSans-30" x="159.033203"/>
       <use xlink:href="#DejaVuSans-36" x="222.65625"/>
      </g>
     </g>
    </g>
    <g id="ytick_5">
     <g id="line2d_15">
      <g>
       <use xlink:href="#m15b5e77cd3" x="90" y="108.196883" style="stroke: #000000; stroke-width: 0.8"/>
      </g>
     </g>
     <g id="text_14">
      <!-- 0.008 -->
      <g transform="translate(54.371875 111.996101) scale(0.1 -0.1)">
       <defs>
        <path id="DejaVuSans-38" d="M 2034 2216 
Q 1584 2216 1326 1975 
Q 1069 1734 1069 1313 
Q 1069 891 1326 650 
Q 1584 409 2034 409 
Q 2484 409 2743 651 
Q 3003 894 3003 1313 
Q 3003 1734 2745 1975 
Q 2488 2216 2034 2216 
z
M 1403 2484 
Q 997 2584 770 2862 
Q 544 3141 544 3541 
Q 544 4100 942 4425 
Q 1341 4750 2034 4750 
Q 2731 4750 3128 4425 
Q 3525 4100 3525 3541 
Q 3525 3141 3298 2862 
Q 3072 2584 2669 2484 
Q 3125 2378 3379 2068 
Q 3634 1759 3634 1313 
Q 3634 634 3220 271 
Q 2806 -91 2034 -91 
Q 1263 -91 848 271 
Q 434 634 434 1313 
Q 434 1759 690 2068 
Q 947 2378 1403 2484 
z
M 1172 3481 
Q 1172 3119 1398 2916 
Q 1625 2713 2034 2713 
Q 2441 2713 2670 2916 
Q 2900 3119 2900 3481 
Q 2900 3844 2670 4047 
Q 2441 4250 2034 4250 
Q 1625 4250 1398 4047 
Q 1172 3844 1172 3481 
z
" transform="scale(0.015625)"/>
       </defs>
       <use xlink:href="#DejaVuSans-30"/>
       <use xlink:href="#DejaVuSans-2e" x="63.623047"/>
       <use xlink:href="#DejaVuSans-30" x="95.410156"/>
       <use xlink:href="#DejaVuSans-30" x="159.033203"/>
       <use xlink:href="#DejaVuSans-38" x="222.65625"/>
      </g>
     </g>
    </g>
    <g id="ytick_6">
     <g id="line2d_16">
      <g>
       <use xlink:href="#m15b5e77cd3" x="90" y="87.186103" style="stroke: #000000; stroke-width: 0.8"/>
      </g>
     </g>
     <g id="text_15">
      <!-- 0.010 -->
      <g transform="translate(54.371875 90.985322) scale(0.1 -0.1)">
       <use xlink:href="#DejaVuSans-30"/>
       <use xlink:href="#DejaVuSans-2e" x="63.623047"/>
       <use xlink:href="#DejaVuSans-30" x="95.410156"/>
       <use xlink:href="#DejaVuSans-31" x="159.033203"/>
       <use xlink:href="#DejaVuSans-30" x="222.65625"/>
      </g>
     </g>
    </g>
    <g id="ytick_7">
     <g id="line2d_17">
      <g>
       <use xlink:href="#m15b5e77cd3" x="90" y="66.175324" style="stroke: #000000; stroke-width: 0.8"/>
      </g>
     </g>
     <g id="text_16">
      <!-- 0.012 -->
      <g transform="translate(54.371875 69.974543) scale(0.1 -0.1)">
       <use xlink:href="#DejaVuSans-30"/>
       <use xlink:href="#DejaVuSans-2e" x="63.623047"/>
       <use xlink:href="#DejaVuSans-30" x="95.410156"/>
       <use xlink:href="#DejaVuSans-31" x="159.033203"/>
       <use xlink:href="#DejaVuSans-32" x="222.65625"/>
      </g>
     </g>
    </g>
    <g id="ytick_8">
     <g id="line2d_18">
      <g>
       <use xlink:href="#m15b5e77cd3" x="90" y="45.164545" style="stroke: #000000; stroke-width: 0.8"/>
      </g>
     </g>
     <g id="text_17">
      <!-- 0.014 -->
      <g transform="translate(54.371875 48.963763) scale(0.1 -0.1)">
       <use xlink:href="#DejaVuSans-30"/>
       <use xlink:href="#DejaVuSans-2e" x="63.623047"/>
       <use xlink:href="#DejaVuSans-30" x="95.410156"/>
       <use xlink:href="#DejaVuSans-31" x="159.033203"/>
       <use xlink:href="#DejaVuSans-34" x="222.65625"/>
      </g>
     </g>
    </g>
   </g>
  </g>
 </g>
 <defs>
  <clipPath id="pab5b8f38f6">
   <rect x="90" y="25.92" width="558" height="166.32"/>
  </clipPath>
 </defs>
</svg>
