<?xml version="1.0" encoding="utf-8" standalone="no"?>
<!DOCTYPE svg PUBLIC "-//W3C//DTD SVG 1.1//EN"
  "http://www.w3.org/Graphics/SVG/1.1/DTD/svg11.dtd">
<svg xmlns:xlink="http://www.w3.org/1999/xlink" width="720pt" height="216pt" viewBox="0 0 720 216" xmlns="http://www.w3.org/2000/svg" version="1.1">
 <metadata>
  <rdf:RDF xmlns:dc="http://purl.org/dc/elements/1.1/" xmlns:cc="http://creativecommons.org/ns#" xmlns:rdf="http://www.w3.org/1999/02/22-rdf-syntax-ns#">
   <cc:Work>
    <dc:type rdf:resource="http://purl.org/dc/dcmitype/StillImage"/>
    <dc:date>2024-11-23T04:41:46.253008</dc:date>
    <dc:format>image/svg+xml</dc:format>
    <dc:creator>
     <cc:Agent>
      <dc:title>Matplotlib v3.7.2, https://matplotlib.org/</dc:title>
     </cc:Agent>
    </dc:creator>
   </cc:Work>
  </rdf:RDF>
 </metadata>
 <defs>
  <style type="text/css">*{stroke-linejoin: round; stroke-linecap: butt}</style>
 </defs>
 <g id="figure_1">
  <g id="patch_1">
   <path d="M 0 216 
L 720 216 
L 720 0 
L 0 0 
z
" style="fill: #ffffff"/>
  </g>
  <g id="axes_1">
   <g id="patch_2">
    <path d="M 90 192.24 
L 648 192.24 
L 648 25.92 
L 90 25.92 
z
" style="fill: #ffffff"/>
   </g>
   <g id="line2d_1">
    <path d="M 90 192.24 
L 648 192.24 
" clip-path="url(#p55ec97598b)" style="fill: none; stroke: #000000; stroke-width: 0.5; stroke-linecap: square"/>
   </g>
   <g id="patch_3">
    <path d="M 90 185.166565 
L 107.699499 185.166565 
L 107.699499 186.546082 
L 101.331796 186.546082 
L 101.331796 192.24 
L 96.380052 192.24 
L 96.380052 186.546082 
L 90 186.546082 
L 90 185.166565 
z
" clip-path="url(#p55ec97598b)" style="fill: #ff0000"/>
   </g>
   <g id="patch_4">
    <path d="M 107.699499 183.606799 
Q 106.218967 184.379939 104.618029 184.771005 
Q 103.017092 185.166565 101.273453 185.166565 
Q 96.073751 185.166565 93.036876 182.235823 
Q 90 179.305081 90 174.293152 
Q 90 169.263244 93.036876 166.336997 
Q 96.073751 163.406255 101.273453 163.406255 
Q 103.017092 163.406255 104.618029 163.801815 
Q 106.218967 164.19288 107.699499 164.966021 
L 107.699499 169.303699 
Q 106.205588 168.278838 104.756272 167.802368 
Q 103.306955 167.325897 101.706018 167.325897 
Q 98.834142 167.325897 97.18861 169.182334 
Q 95.547538 171.034275 95.547538 174.293152 
Q 95.547538 177.538545 97.18861 179.394981 
Q 98.834142 181.246922 101.706018 181.246922 
Q 103.306955 181.246922 104.756272 180.770452 
Q 106.205588 180.289486 107.699499 179.264626 
L 107.699499 183.606799 
z
" clip-path="url(#p55ec97598b)" style="fill: #0000ff"/>
   </g>
   <g id="patch_5">
    <path d="M 107.699499 158.114639 
Q 105.914476 160.760447 103.994584 162.089392 
Q 102.074692 163.406255 100.027865 163.406255 
Q 95.402671 163.406255 92.701335 155.529238 
Q 90 147.652221 90 134.181556 
Q 90 120.553834 92.748936 112.737224 
Q 95.501839 104.920614 100.289668 104.920614 
Q 102.134193 104.920614 103.824015 105.98377 
Q 105.517804 107.034844 107.017224 109.11283 
L 107.017224 120.771298 
Q 105.470203 118.101328 103.93905 116.784464 
Q 102.407896 115.45552 100.868809 115.45552 
Q 98.020705 115.45552 96.477652 120.312208 
Q 94.934598 125.156815 94.934598 134.181556 
Q 94.934598 143.121729 96.422118 148.00258 
Q 97.909637 152.871349 100.646673 152.871349 
Q 101.392416 152.871349 102.031058 152.593479 
Q 102.6697 152.303527 103.17744 151.699462 
L 103.17744 140.753791 
L 100.261901 140.753791 
L 100.261901 131.004171 
L 107.699499 131.004171 
L 107.699499 158.114639 
z
" clip-path="url(#p55ec97598b)" style="fill: #ffa600"/>
   </g>
   <g id="patch_6">
    <path d="M 108.631052 189.255143 
L 126.330551 189.255143 
L 126.330551 189.837273 
L 119.962847 189.837273 
L 119.962847 192.24 
L 115.011104 192.24 
L 115.011104 189.837273 
L 108.631052 189.837273 
L 108.631052 189.255143 
z
" clip-path="url(#p55ec97598b)" style="fill: #ff0000"/>
   </g>
   <g id="patch_7">
    <path d="M 126.330551 186.092603 
Q 124.545527 187.673873 122.625636 188.468118 
Q 120.705744 189.255143 118.658917 189.255143 
Q 114.033723 189.255143 111.332387 184.547435 
Q 108.631052 179.839727 108.631052 171.788969 
Q 108.631052 163.644346 111.379988 158.97274 
Q 114.132891 154.301134 118.92072 154.301134 
Q 120.765244 154.301134 122.455067 154.93653 
Q 124.148856 155.564706 125.648275 156.806617 
L 125.648275 163.774313 
Q 124.101255 162.178602 122.570102 161.391578 
Q 121.038948 160.597332 119.499861 160.597332 
Q 116.651757 160.597332 115.108704 163.499938 
Q 113.56565 166.395322 113.56565 171.788969 
Q 113.56565 177.132073 115.053169 180.049119 
Q 116.540689 182.958944 119.277725 182.958944 
Q 120.023468 182.958944 120.66211 182.792875 
Q 121.300752 182.619585 121.808492 182.258565 
L 121.808492 175.716873 
L 118.892953 175.716873 
L 118.892953 169.890001 
L 126.330551 169.890001 
L 126.330551 186.092603 
z
" clip-path="url(#p55ec97598b)" style="fill: #ffa600"/>
   </g>
   <g id="patch_8">
    <path d="M 126.330551 151.728054 
Q 124.850018 153.003471 123.249081 153.648595 
Q 121.648144 154.301134 119.904504 154.301134 
Q 114.704803 154.301134 111.667927 149.466413 
Q 108.631052 144.631692 108.631052 136.363726 
Q 108.631052 128.066099 111.667927 123.238793 
Q 114.704803 118.404072 119.904504 118.404072 
Q 121.648144 118.404072 123.249081 119.056611 
Q 124.850018 119.701735 126.330551 120.977152 
L 126.330551 128.132836 
Q 124.83664 126.442166 123.387324 125.656153 
Q 121.938007 124.87014 120.33707 124.87014 
Q 117.465193 124.87014 115.819662 127.932625 
Q 114.178589 130.987694 114.178589 136.363726 
Q 114.178589 141.717512 115.819662 144.779996 
Q 117.465193 147.835066 120.33707 147.835066 
Q 121.938007 147.835066 123.387324 147.049053 
Q 124.83664 146.255625 126.330551 144.564955 
L 126.330551 151.728054 
z
" clip-path="url(#p55ec97598b)" style="fill: #0000ff"/>
   </g>
   <g id="patch_9">
    <path d="M 139.522562 191.757619 
L 132.715619 191.757619 
L 131.640839 192.24 
L 127.262104 192.24 
L 133.515372 189.592012 
L 138.708335 189.592012 
L 144.961603 192.24 
L 140.586486 192.24 
L 139.522562 191.757619 
z
M 133.801256 191.266158 
L 138.426069 191.266158 
L 136.117281 190.212865 
L 133.801256 191.266158 
z
" clip-path="url(#p55ec97598b)" style="fill: #008000"/>
   </g>
   <g id="patch_10">
    <path d="M 144.961603 189.314299 
Q 143.48107 189.451955 141.880133 189.521583 
Q 140.279195 189.592012 138.535556 189.592012 
Q 133.335855 189.592012 130.298979 189.0702 
Q 127.262104 188.548388 127.262104 187.656025 
Q 127.262104 186.760461 130.298979 186.239449 
Q 133.335855 185.717637 138.535556 185.717637 
Q 140.279195 185.717637 141.880133 185.788066 
Q 143.48107 185.857694 144.961603 185.99535 
L 144.961603 186.767664 
Q 143.467692 186.58519 142.018375 186.500355 
Q 140.569059 186.415521 138.968121 186.415521 
Q 136.096245 186.415521 134.450713 186.746055 
Q 132.809641 187.075789 132.809641 187.656025 
Q 132.809641 188.23386 134.450713 188.564394 
Q 136.096245 188.894128 138.968121 188.894128 
Q 140.569059 188.894128 142.018375 188.809294 
Q 143.467692 188.723659 144.961603 188.541185 
L 144.961603 189.314299 
z
" clip-path="url(#p55ec97598b)" style="fill: #0000ff"/>
   </g>
   <g id="patch_11">
    <path d="M 127.262104 173.643145 
L 144.961603 173.643145 
L 144.961603 175.998008 
L 138.593899 175.998008 
L 138.593899 185.717637 
L 133.642156 185.717637 
L 133.642156 175.998008 
L 127.262104 175.998008 
L 127.262104 173.643145 
z
" clip-path="url(#p55ec97598b)" style="fill: #ff0000"/>
   </g>
   <g id="patch_12">
    <path d="M 144.961603 164.22997 
Q 143.176579 168.936558 141.256687 171.300597 
Q 139.336795 173.643145 137.289969 173.643145 
Q 132.664774 173.643145 129.963439 159.630839 
Q 127.262104 145.618532 127.262104 121.655768 
Q 127.262104 97.413618 130.01104 83.508768 
Q 132.763942 69.603917 137.551772 69.603917 
Q 139.396296 69.603917 141.086118 71.495149 
Q 142.779907 73.364889 144.279327 77.061387 
L 144.279327 97.800461 
Q 142.732307 93.050891 141.201153 90.708343 
Q 139.67 88.344303 138.130913 88.344303 
Q 135.282809 88.344303 133.739755 96.983793 
Q 132.196702 105.601791 132.196702 121.655768 
Q 132.196702 137.559307 133.684221 146.241779 
Q 135.171741 154.90276 137.908777 154.90276 
Q 138.65452 154.90276 139.293162 154.408461 
Q 139.931803 153.89267 140.439543 152.818107 
L 140.439543 133.347018 
L 137.524005 133.347018 
L 137.524005 116.003565 
L 144.961603 116.003565 
L 144.961603 164.22997 
z
" clip-path="url(#p55ec97598b)" style="fill: #ffa600"/>
   </g>
   <g id="patch_13">
    <path d="M 158.153614 192.227381 
L 151.346671 192.227381 
L 150.27189 192.24 
L 145.893155 192.24 
L 152.146423 192.17073 
L 157.339386 192.17073 
L 163.592654 192.24 
L 159.217538 192.24 
L 158.153614 192.227381 
z
M 152.432308 192.214525 
L 157.057121 192.214525 
L 154.748333 192.186971 
L 152.432308 192.214525 
z
" clip-path="url(#p55ec97598b)" style="fill: #008000"/>
   </g>
   <g id="patch_14">
    <path d="M 163.592654 190.08537 
Q 161.807631 191.12805 159.887739 191.651771 
Q 157.967847 192.17073 155.92102 192.17073 
Q 151.295826 192.17073 148.594491 189.066495 
Q 145.893155 185.962261 145.893155 180.653638 
Q 145.893155 175.283122 148.642091 172.202692 
Q 151.394994 169.122263 156.182824 169.122263 
Q 158.027348 169.122263 159.71717 169.54124 
Q 161.410959 169.955455 162.910379 170.774364 
L 162.910379 175.368821 
Q 161.363358 174.316619 159.832205 173.79766 
Q 158.301052 173.273939 156.761965 173.273939 
Q 153.913861 173.273939 152.370807 175.1879 
Q 150.827753 177.097099 150.827753 180.653638 
Q 150.827753 184.17685 152.315273 186.100332 
Q 153.802792 188.019054 156.539828 188.019054 
Q 157.285572 188.019054 157.924213 187.909549 
Q 158.562855 187.795283 159.070595 187.557228 
L 159.070595 183.243675 
L 156.155057 183.243675 
L 156.155057 179.40147 
L 163.592654 179.40147 
L 163.592654 190.08537 
z
" clip-path="url(#p55ec97598b)" style="fill: #ffa600"/>
   </g>
   <g id="patch_15">
    <path d="M 163.592654 158.854676 
Q 162.112122 163.944085 160.511185 166.518379 
Q 158.910247 169.122263 157.166608 169.122263 
Q 151.966906 169.122263 148.930031 149.829852 
Q 145.893155 130.537441 145.893155 97.545052 
Q 145.893155 64.434304 148.930031 45.171482 
Q 151.966906 25.879071 157.166608 25.879071 
Q 158.910247 25.879071 160.511185 28.482955 
Q 162.112122 31.057249 163.592654 36.146658 
L 163.592654 64.70061 
Q 162.098744 57.954184 160.649427 54.817688 
Q 159.200111 51.681191 157.599173 51.681191 
Q 154.727297 51.681191 153.081765 63.901691 
Q 151.440693 76.092601 151.440693 97.545052 
Q 151.440693 118.908734 153.081765 131.129233 
Q 154.727297 143.320143 157.599173 143.320143 
Q 159.200111 143.320143 160.649427 140.183647 
Q 162.098744 137.017561 163.592654 130.271135 
L 163.592654 158.854676 
z
" clip-path="url(#p55ec97598b)" style="fill: #0000ff"/>
   </g>
   <g id="patch_16">
    <path d="M 176.784666 190.916007 
L 169.977723 190.916007 
L 168.902942 192.24 
L 164.524207 192.24 
L 170.777475 184.972058 
L 175.970438 184.972058 
L 182.223706 192.24 
L 177.84859 192.24 
L 176.784666 190.916007 
z
M 171.06336 189.567092 
L 175.688172 189.567092 
L 173.379385 186.676114 
L 171.06336 189.567092 
z
" clip-path="url(#p55ec97598b)" style="fill: #008000"/>
   </g>
   <g id="patch_17">
    <path d="M 182.223706 184.06288 
Q 180.743174 184.513539 179.142236 184.741488 
Q 177.541299 184.972058 175.79766 184.972058 
Q 170.597958 184.972058 167.561083 183.263747 
Q 164.524207 181.555437 164.524207 178.634017 
Q 164.524207 175.702116 167.561083 173.996426 
Q 170.597958 172.288116 175.79766 172.288116 
Q 177.541299 172.288116 179.142236 172.518686 
Q 180.743174 172.746635 182.223706 173.197293 
L 182.223706 175.725697 
Q 180.729795 175.128313 179.280479 174.850581 
Q 177.831162 174.57285 176.230225 174.57285 
Q 173.358349 174.57285 171.712817 175.654954 
Q 170.071745 176.734439 170.071745 178.634017 
Q 170.071745 180.525735 171.712817 181.607839 
Q 173.358349 182.687324 176.230225 182.687324 
Q 177.831162 182.687324 179.280479 182.409592 
Q 180.729795 182.129241 182.223706 181.531856 
L 182.223706 184.06288 
z
" clip-path="url(#p55ec97598b)" style="fill: #0000ff"/>
   </g>
   <g id="patch_18">
    <path d="M 182.223706 169.401681 
Q 180.438683 170.844898 178.518791 171.569802 
Q 176.598899 172.288116 174.552072 172.288116 
Q 169.926878 172.288116 167.225542 167.991413 
Q 164.524207 163.694711 164.524207 156.346822 
Q 164.524207 148.913263 167.273143 144.649511 
Q 170.026046 140.385758 174.813876 140.385758 
Q 176.6584 140.385758 178.348222 140.965681 
Q 180.042011 141.539014 181.541431 142.6725 
L 181.541431 149.031884 
Q 179.99441 147.575486 178.463257 146.857172 
Q 176.932103 146.132269 175.393016 146.132269 
Q 172.544912 146.132269 171.001859 148.781463 
Q 169.458805 151.424066 169.458805 156.346822 
Q 169.458805 161.223448 170.946325 163.885822 
Q 172.433844 166.541606 175.17088 166.541606 
Q 175.916623 166.541606 176.555265 166.390035 
Q 177.193907 166.231874 177.701647 165.902373 
L 177.701647 159.931801 
L 174.786108 159.931801 
L 174.786108 154.613643 
L 182.223706 154.613643 
L 182.223706 169.401681 
z
" clip-path="url(#p55ec97598b)" style="fill: #ffa600"/>
   </g>
   <g id="patch_19">
    <path d="M 164.524207 108.315431 
L 182.223706 108.315431 
L 182.223706 114.570039 
L 175.856003 114.570039 
L 175.856003 140.385758 
L 170.904259 140.385758 
L 170.904259 114.570039 
L 164.524207 114.570039 
L 164.524207 108.315431 
z
" clip-path="url(#p55ec97598b)" style="fill: #ff0000"/>
   </g>
   <g id="patch_20">
    <path d="M 195.415717 191.810297 
L 188.608774 191.810297 
L 187.533994 192.24 
L 183.155259 192.24 
L 189.408527 189.881183 
L 194.60149 189.881183 
L 200.854758 192.24 
L 196.479641 192.24 
L 195.415717 191.810297 
z
M 189.694411 191.372505 
L 194.319224 191.372505 
L 192.010437 190.434236 
L 189.694411 191.372505 
z
" clip-path="url(#p55ec97598b)" style="fill: #008000"/>
   </g>
   <g id="patch_21">
    <path d="M 200.854758 188.783273 
Q 199.069734 189.332228 197.149843 189.607959 
Q 195.229951 189.881183 193.183124 189.881183 
Q 188.55793 189.881183 185.856594 188.246851 
Q 183.155259 186.612519 183.155259 183.817611 
Q 183.155259 180.990117 185.904195 179.368319 
Q 188.657098 177.74652 193.444927 177.74652 
Q 195.289451 177.74652 196.979274 177.967105 
Q 198.673063 178.185183 200.172482 178.616325 
L 200.172482 181.035237 
Q 198.625462 180.481268 197.094309 180.208044 
Q 195.563155 179.932313 194.024068 179.932313 
Q 191.175964 179.932313 189.632911 180.939984 
Q 188.089857 181.945148 188.089857 183.817611 
Q 188.089857 185.672528 189.577376 186.685212 
Q 191.064896 187.69539 193.801932 187.69539 
Q 194.547675 187.69539 195.186317 187.637737 
Q 195.824959 187.577577 196.332699 187.452245 
L 196.332699 185.181226 
L 193.41716 185.181226 
L 193.41716 183.158364 
L 200.854758 183.158364 
L 200.854758 188.783273 
z
" clip-path="url(#p55ec97598b)" style="fill: #ffa600"/>
   </g>
   <g id="patch_22">
    <path d="M 200.854758 168.773659 
Q 199.374225 173.221302 197.773288 175.470982 
Q 196.172351 177.74652 194.428711 177.74652 
Q 189.22901 177.74652 186.192134 160.886851 
Q 183.155259 144.027182 183.155259 115.195079 
Q 183.155259 86.259543 186.192134 69.425732 
Q 189.22901 52.566063 194.428711 52.566063 
Q 196.172351 52.566063 197.773288 54.841601 
Q 199.374225 57.091281 200.854758 61.538924 
L 200.854758 86.492268 
Q 199.360847 80.596556 197.911531 77.855567 
Q 196.462214 75.114578 194.861277 75.114578 
Q 191.9894 75.114578 190.343869 85.794092 
Q 188.702796 96.447748 188.702796 115.195079 
Q 188.702796 133.864835 190.343869 144.54435 
Q 191.9894 155.198006 194.861277 155.198006 
Q 196.462214 155.198006 197.911531 152.457016 
Q 199.360847 149.690169 200.854758 143.794456 
L 200.854758 168.773659 
z
" clip-path="url(#p55ec97598b)" style="fill: #0000ff"/>
   </g>
   <g id="patch_23">
    <path d="M 214.046769 190.72104 
L 207.239826 190.72104 
L 206.165046 192.24 
L 201.786311 192.24 
L 208.039579 183.901803 
L 213.232542 183.901803 
L 219.48581 192.24 
L 215.110693 192.24 
L 214.046769 190.72104 
z
M 208.325463 189.173488 
L 212.950276 189.173488 
L 210.641488 185.856794 
L 208.325463 189.173488 
z
" clip-path="url(#p55ec97598b)" style="fill: #008000"/>
   </g>
   <g id="patch_24">
    <path d="M 201.786311 163.191525 
L 219.48581 163.191525 
L 219.48581 167.230606 
L 213.118106 167.230606 
L 213.118106 183.901803 
L 208.166363 183.901803 
L 208.166363 167.230606 
L 201.786311 167.230606 
L 201.786311 163.191525 
z
" clip-path="url(#p55ec97598b)" style="fill: #ff0000"/>
   </g>
   <g id="patch_25">
    <path d="M 219.48581 159.754783 
Q 217.700786 161.473154 215.780894 162.336263 
Q 213.861002 163.191525 211.814176 163.191525 
Q 207.188981 163.191525 204.487646 158.075644 
Q 201.786311 152.959763 201.786311 144.210978 
Q 201.786311 135.36019 204.535247 130.283541 
Q 207.288149 125.206892 212.075979 125.206892 
Q 213.920503 125.206892 215.610325 125.897379 
Q 217.304114 126.580019 218.803534 127.929607 
L 218.803534 135.501426 
Q 217.256514 133.767362 215.72536 132.912099 
Q 214.194207 132.04899 212.65512 132.04899 
Q 209.807016 132.04899 208.263962 135.203261 
Q 206.720909 138.349685 206.720909 144.210978 
Q 206.720909 150.017346 208.208428 153.18731 
Q 209.695948 156.349426 212.432984 156.349426 
Q 213.178727 156.349426 213.817369 156.168958 
Q 214.45601 155.980643 214.96375 155.588321 
L 214.96375 148.479443 
L 212.048212 148.479443 
L 212.048212 142.147363 
L 219.48581 142.147363 
L 219.48581 159.754783 
z
" clip-path="url(#p55ec97598b)" style="fill: #ffa600"/>
   </g>
   <g id="patch_26">
    <path d="M 219.48581 121.969836 
Q 218.005277 123.574371 216.40434 124.385967 
Q 214.803402 125.206892 213.059763 125.206892 
Q 207.860062 125.206892 204.823186 119.124585 
Q 201.786311 113.042278 201.786311 102.640787 
Q 201.786311 92.201981 204.823186 86.129003 
Q 207.860062 80.046697 213.059763 80.046697 
Q 214.803402 80.046697 216.40434 80.867621 
Q 218.005277 81.679218 219.48581 83.283752 
L 219.48581 92.28594 
Q 217.991899 90.158998 216.542582 89.170157 
Q 215.093266 88.181315 213.492328 88.181315 
Q 210.620452 88.181315 208.97492 92.034065 
Q 207.333848 95.877486 207.333848 102.640787 
Q 207.333848 109.376102 208.97492 113.228852 
Q 210.620452 117.072273 213.492328 117.072273 
Q 215.093266 117.072273 216.542582 116.083431 
Q 217.991899 115.085261 219.48581 112.95832 
L 219.48581 121.969836 
z
" clip-path="url(#p55ec97598b)" style="fill: #0000ff"/>
   </g>
   <g id="patch_27">
    <path d="M 232.677821 191.888404 
L 225.870878 191.888404 
L 224.796097 192.24 
L 220.417362 192.24 
L 226.67063 190.309943 
L 231.863593 190.309943 
L 238.116861 192.24 
L 233.741745 192.24 
L 232.677821 191.888404 
z
M 226.956515 191.530189 
L 231.581328 191.530189 
L 229.27254 190.762468 
L 226.956515 191.530189 
z
" clip-path="url(#p55ec97598b)" style="fill: #008000"/>
   </g>
   <g id="patch_28">
    <path d="M 238.116861 189.700355 
Q 236.636329 190.002514 235.035392 190.15535 
Q 233.434454 190.309943 231.690815 190.309943 
Q 226.491113 190.309943 223.454238 189.16455 
Q 220.417362 188.019157 220.417362 186.060395 
Q 220.417362 184.094605 223.454238 182.950969 
Q 226.491113 181.805576 231.690815 181.805576 
Q 233.434454 181.805576 235.035392 181.960169 
Q 236.636329 182.113005 238.116861 182.415164 
L 238.116861 184.110416 
Q 236.622951 183.70988 235.173634 183.523665 
Q 233.724318 183.337451 232.12338 183.337451 
Q 229.251504 183.337451 227.605972 184.062984 
Q 225.9649 184.78676 225.9649 186.060395 
Q 225.9649 187.328759 227.605972 188.054292 
Q 229.251504 188.778068 232.12338 188.778068 
Q 233.724318 188.778068 235.173634 188.591853 
Q 236.622951 188.403882 238.116861 188.003346 
L 238.116861 189.700355 
z
" clip-path="url(#p55ec97598b)" style="fill: #0000ff"/>
   </g>
   <g id="patch_29">
    <path d="M 220.417362 171.27767 
L 238.116861 171.27767 
L 238.116861 173.330905 
L 231.749158 173.330905 
L 231.749158 181.805576 
L 226.797414 181.805576 
L 226.797414 173.330905 
L 220.417362 173.330905 
L 220.417362 171.27767 
z
" clip-path="url(#p55ec97598b)" style="fill: #ff0000"/>
   </g>
   <g id="patch_30">
    <path d="M 238.116861 164.026151 
Q 236.331838 167.65191 234.411946 169.473068 
Q 232.492054 171.27767 230.445227 171.27767 
Q 225.820033 171.27767 223.118698 160.483171 
Q 220.417362 149.688673 220.417362 131.228756 
Q 220.417362 112.553612 223.166298 101.841893 
Q 225.919201 91.130175 230.707031 91.130175 
Q 232.551555 91.130175 234.241377 92.587101 
Q 235.935166 94.027471 237.434586 96.8751 
L 237.434586 112.851619 
Q 235.887565 109.192748 234.356412 107.388146 
Q 232.825259 105.566989 231.286172 105.566989 
Q 228.438068 105.566989 226.895014 112.222492 
Q 225.35196 118.86144 225.35196 131.228756 
Q 225.35196 143.480181 226.83948 150.168796 
Q 228.327 156.840856 231.064035 156.840856 
Q 231.809779 156.840856 232.44842 156.460068 
Q 233.087062 156.062725 233.594802 155.234926 
L 233.594802 140.235209 
L 230.679264 140.235209 
L 230.679264 126.874534 
L 238.116861 126.874534 
L 238.116861 164.026151 
z
" clip-path="url(#p55ec97598b)" style="fill: #ffa600"/>
   </g>
   <g id="patch_31">
    <path d="M 239.048414 188.640686 
L 256.747913 188.640686 
L 256.747913 189.342653 
L 250.38021 189.342653 
L 250.38021 192.24 
L 245.428466 192.24 
L 245.428466 189.342653 
L 239.048414 189.342653 
L 239.048414 188.640686 
z
" clip-path="url(#p55ec97598b)" style="fill: #ff0000"/>
   </g>
   <g id="patch_32">
    <path d="M 251.308873 187.934555 
L 244.50193 187.934555 
L 243.427149 188.640686 
L 239.048414 188.640686 
L 245.301682 184.764442 
L 250.494645 184.764442 
L 256.747913 188.640686 
L 252.372797 188.640686 
L 251.308873 187.934555 
z
M 245.587567 187.215132 
L 250.212379 187.215132 
L 247.903592 185.673274 
L 245.587567 187.215132 
z
" clip-path="url(#p55ec97598b)" style="fill: #008000"/>
   </g>
   <g id="patch_33">
    <path d="M 256.747913 184.344108 
Q 255.267381 184.552458 253.666443 184.657844 
Q 252.065506 184.764442 250.321867 184.764442 
Q 245.122165 184.764442 242.08529 183.97465 
Q 239.048414 183.184858 239.048414 181.834217 
Q 239.048414 180.478731 242.08529 179.69015 
Q 245.122165 178.900358 250.321867 178.900358 
Q 252.065506 178.900358 253.666443 179.006956 
Q 255.267381 179.112342 256.747913 179.320692 
L 256.747913 180.489633 
Q 255.254002 180.213448 253.804686 180.085046 
Q 252.355369 179.956644 250.754432 179.956644 
Q 247.882556 179.956644 246.237024 180.456927 
Q 244.595952 180.955997 244.595952 181.834217 
Q 244.595952 182.708803 246.237024 183.209085 
Q 247.882556 183.708156 250.754432 183.708156 
Q 252.355369 183.708156 253.804686 183.579754 
Q 255.254002 183.450141 256.747913 183.173956 
L 256.747913 184.344108 
z
" clip-path="url(#p55ec97598b)" style="fill: #0000ff"/>
   </g>
   <g id="patch_34">
    <path d="M 256.747913 169.689286 
Q 254.96289 174.294822 253.042998 176.608105 
Q 251.123106 178.900358 249.076279 178.900358 
Q 244.451085 178.900358 241.74975 165.1889 
Q 239.048414 151.477441 239.048414 128.029165 
Q 239.048414 104.3075 241.79735 90.701191 
Q 244.550253 77.094882 249.338083 77.094882 
Q 251.182607 77.094882 252.872429 78.945508 
Q 254.566218 80.775104 256.065638 84.392238 
L 256.065638 104.686037 
Q 254.518617 100.038442 252.987464 97.746189 
Q 251.45631 95.432906 249.917223 95.432906 
Q 247.069119 95.432906 245.526066 103.886903 
Q 243.983012 112.319871 243.983012 128.029165 
Q 243.983012 143.59125 245.470532 152.087307 
Q 246.958051 160.562334 249.695087 160.562334 
Q 250.44083 160.562334 251.079472 160.078647 
Q 251.718114 159.573931 252.225854 158.522439 
L 252.225854 139.4694 
L 249.310315 139.4694 
L 249.310315 122.498316 
L 256.747913 122.498316 
L 256.747913 169.689286 
z
" clip-path="url(#p55ec97598b)" style="fill: #ffa600"/>
   </g>
   <g id="patch_35">
    <path d="M 275.378965 191.643041 
Q 273.593941 191.94152 271.67405 192.091442 
Q 269.754158 192.24 267.707331 192.24 
Q 263.082137 192.24 260.380801 191.351376 
Q 257.679466 190.462751 257.679466 188.943095 
Q 257.679466 187.40572 260.428402 186.523911 
Q 263.181305 185.642101 267.969134 185.642101 
Q 269.813659 185.642101 271.503481 185.762038 
Q 273.19727 185.880612 274.696689 186.115034 
L 274.696689 187.430253 
Q 273.149669 187.129047 271.618516 186.980489 
Q 270.087362 186.830568 268.548275 186.830568 
Q 265.700171 186.830568 264.157118 187.378462 
Q 262.614064 187.924993 262.614064 188.943095 
Q 262.614064 189.951656 264.101583 190.502276 
Q 265.589103 191.051533 268.326139 191.051533 
Q 269.071882 191.051533 269.710524 191.020186 
Q 270.349166 190.987476 270.856906 190.91933 
L 270.856906 189.684524 
L 267.941367 189.684524 
L 267.941367 188.584647 
L 275.378965 188.584647 
L 275.378965 191.643041 
z
" clip-path="url(#p55ec97598b)" style="fill: #ffa600"/>
   </g>
   <g id="patch_36">
    <path d="M 275.378965 176.328551 
Q 273.898432 180.945066 272.297495 183.280163 
Q 270.696558 185.642101 268.952919 185.642101 
Q 263.753217 185.642101 260.716341 168.14229 
Q 257.679466 150.64248 257.679466 120.715656 
Q 257.679466 90.681472 260.716341 73.208501 
Q 263.753217 55.70869 268.952919 55.70869 
Q 270.696558 55.70869 272.297495 58.070628 
Q 273.898432 60.405726 275.378965 65.02224 
L 275.378965 90.923033 
Q 273.885054 84.803468 272.435738 81.958407 
Q 270.986421 79.113345 269.385484 79.113345 
Q 266.513607 79.113345 264.868076 90.198348 
Q 263.227003 101.256511 263.227003 120.715656 
Q 263.227003 140.094281 264.868076 151.179284 
Q 266.513607 162.237446 269.385484 162.237446 
Q 270.986421 162.237446 272.435738 159.392385 
Q 273.885054 156.520483 275.378965 150.400918 
L 275.378965 176.328551 
z
" clip-path="url(#p55ec97598b)" style="fill: #0000ff"/>
   </g>
   <g id="patch_37">
    <path d="M 276.310518 188.906745 
L 294.010017 188.906745 
L 294.010017 189.556823 
L 287.642313 189.556823 
L 287.642313 192.24 
L 282.69057 192.24 
L 282.69057 189.556823 
L 276.310518 189.556823 
L 276.310518 188.906745 
z
" clip-path="url(#p55ec97598b)" style="fill: #ff0000"/>
   </g>
   <g id="patch_38">
    <path d="M 288.570976 188.278033 
L 281.764033 188.278033 
L 280.689253 188.906745 
L 276.310518 188.906745 
L 282.563786 185.455485 
L 287.756749 185.455485 
L 294.010017 188.906745 
L 289.6349 188.906745 
L 288.570976 188.278033 
z
M 282.84967 187.637486 
L 287.474483 187.637486 
L 285.165695 186.264675 
L 282.84967 187.637486 
z
" clip-path="url(#p55ec97598b)" style="fill: #008000"/>
   </g>
   <g id="patch_39">
    <path d="M 294.010017 184.305343 
Q 292.529484 184.875442 290.928547 185.163807 
Q 289.32761 185.455485 287.58397 185.455485 
Q 282.384269 185.455485 279.347393 183.294411 
Q 276.310518 181.133336 276.310518 177.437634 
Q 276.310518 173.728673 279.347393 171.570913 
Q 282.384269 169.409838 287.58397 169.409838 
Q 289.32761 169.409838 290.928547 169.701517 
Q 292.529484 169.989881 294.010017 170.559981 
L 294.010017 173.758504 
Q 292.516106 173.00279 291.066789 172.65145 
Q 289.617473 172.30011 288.016535 172.30011 
Q 285.144659 172.30011 283.499127 173.669011 
Q 281.858055 175.034598 281.858055 177.437634 
Q 281.858055 179.830725 283.499127 181.199627 
Q 285.144659 182.565214 288.016535 182.565214 
Q 289.617473 182.565214 291.066789 182.213874 
Q 292.516106 181.859219 294.010017 181.103506 
L 294.010017 184.305343 
z
" clip-path="url(#p55ec97598b)" style="fill: #0000ff"/>
   </g>
   <g id="patch_40">
    <path d="M 294.010017 164.948425 
Q 292.224993 167.179132 290.305101 168.299578 
Q 288.385209 169.409838 286.338383 169.409838 
Q 281.713188 169.409838 279.011853 162.768648 
Q 276.310518 156.127457 276.310518 144.770207 
Q 276.310518 133.28054 279.059454 126.690279 
Q 281.812356 120.100017 286.600186 120.100017 
Q 288.44471 120.100017 290.134532 120.996374 
Q 291.828321 121.882546 293.327741 123.634516 
L 293.327741 133.463885 
Q 291.780721 131.212807 290.249567 130.102547 
Q 288.718414 128.9821 287.179327 128.9821 
Q 284.331223 128.9821 282.788169 133.076822 
Q 281.245116 137.161358 281.245116 144.770207 
Q 281.245116 152.307754 282.732635 156.422848 
Q 284.220155 160.527755 286.957191 160.527755 
Q 287.702934 160.527755 288.341576 160.29348 
Q 288.980217 160.049019 289.487957 159.539725 
L 289.487957 150.311323 
L 286.572419 150.311323 
L 286.572419 142.091322 
L 294.010017 142.091322 
L 294.010017 164.948425 
z
" clip-path="url(#p55ec97598b)" style="fill: #ffa600"/>
   </g>
   <g id="patch_41">
    <path d="M 307.202028 191.974798 
L 300.395085 191.974798 
L 299.320305 192.24 
L 294.941569 192.24 
L 301.194837 190.784199 
L 306.3878 190.784199 
L 312.641068 192.24 
L 308.265952 192.24 
L 307.202028 191.974798 
z
M 301.480722 191.704605 
L 306.105535 191.704605 
L 303.796747 191.125529 
L 301.480722 191.704605 
z
" clip-path="url(#p55ec97598b)" style="fill: #008000"/>
   </g>
   <g id="patch_42">
    <path d="M 312.641068 190.041628 
Q 311.160536 190.409704 309.559599 190.595881 
Q 307.958661 190.784199 306.215022 190.784199 
Q 301.01532 190.784199 297.978445 189.388937 
Q 294.941569 187.993675 294.941569 185.607605 
Q 294.941569 183.212976 297.978445 181.819854 
Q 301.01532 180.424592 306.215022 180.424592 
Q 307.958661 180.424592 309.559599 180.612909 
Q 311.160536 180.799087 312.641068 181.167162 
L 312.641068 183.232236 
Q 311.147158 182.744322 309.697841 182.517485 
Q 308.248525 182.290648 306.647587 182.290648 
Q 303.775711 182.290648 302.130179 183.174456 
Q 300.489107 184.056125 300.489107 185.607605 
Q 300.489107 187.152665 302.130179 188.036474 
Q 303.775711 188.918143 306.647587 188.918143 
Q 308.248525 188.918143 309.697841 188.691306 
Q 311.147158 188.462329 312.641068 187.974415 
L 312.641068 190.041628 
z
" clip-path="url(#p55ec97598b)" style="fill: #0000ff"/>
   </g>
   <g id="patch_43">
    <path d="M 312.641068 170.346306 
Q 310.856045 175.385449 308.936153 177.916525 
Q 307.016261 180.424592 304.969434 180.424592 
Q 300.34424 180.424592 297.642905 165.422212 
Q 294.941569 150.419833 294.941569 124.763923 
Q 294.941569 98.808886 297.690505 83.921555 
Q 300.443408 69.034224 305.231238 69.034224 
Q 307.075762 69.034224 308.765584 71.059085 
Q 310.459373 73.060937 311.958793 77.01862 
L 311.958793 99.223062 
Q 310.411772 94.137899 308.880619 91.629833 
Q 307.349466 89.098756 305.810379 89.098756 
Q 302.962275 89.098756 301.419221 98.34869 
Q 299.876167 107.575614 299.876167 124.763923 
Q 299.876167 141.791163 301.363687 151.087116 
Q 302.851207 160.360059 305.588242 160.360059 
Q 306.333986 160.360059 306.972627 159.830834 
Q 307.611269 159.2786 308.119009 158.12811 
L 308.119009 137.281245 
L 305.203471 137.281245 
L 305.203471 118.712349 
L 312.641068 118.712349 
L 312.641068 170.346306 
z
" clip-path="url(#p55ec97598b)" style="fill: #ffa600"/>
   </g>
   <g id="patch_44">
    <path d="M 331.27212 192.07553 
Q 329.487097 192.157765 327.567205 192.19907 
Q 325.647313 192.24 323.600486 192.24 
Q 318.975292 192.24 316.273957 191.995173 
Q 313.572621 191.750346 313.572621 191.331662 
Q 313.572621 190.908096 316.321557 190.665146 
Q 319.07446 190.422197 323.86229 190.422197 
Q 325.706814 190.422197 327.396636 190.455241 
Q 329.090425 190.487909 330.589845 190.552496 
L 330.589845 190.914855 
Q 329.042824 190.831869 327.511671 190.790939 
Q 325.980517 190.749634 324.44143 190.749634 
Q 321.593326 190.749634 320.050273 190.900586 
Q 318.507219 191.051162 318.507219 191.331662 
Q 318.507219 191.609533 319.994739 191.761235 
Q 321.482258 191.912563 324.219294 191.912563 
Q 324.965037 191.912563 325.603679 191.903926 
Q 326.242321 191.894914 326.750061 191.876139 
L 326.750061 191.535934 
L 323.834523 191.535934 
L 323.834523 191.232905 
L 331.27212 191.232905 
L 331.27212 192.07553 
z
" clip-path="url(#p55ec97598b)" style="fill: #ffa600"/>
   </g>
   <g id="patch_45">
    <path d="M 325.83308 189.905459 
L 319.026137 189.905459 
L 317.951356 190.422197 
L 313.572621 190.422197 
L 319.825889 187.58561 
L 325.018852 187.58561 
L 331.27212 190.422197 
L 326.897004 190.422197 
L 325.83308 189.905459 
z
M 320.111774 189.378994 
L 324.736586 189.378994 
L 322.427799 188.250682 
L 320.111774 189.378994 
z
" clip-path="url(#p55ec97598b)" style="fill: #008000"/>
   </g>
   <g id="patch_46">
    <path d="M 331.27212 177.471103 
Q 329.791588 182.484634 328.19065 185.020547 
Q 326.589713 187.58561 324.846074 187.58561 
Q 319.646372 187.58561 316.609497 168.580831 
Q 313.572621 149.576052 313.572621 117.075548 
Q 313.572621 84.458451 316.609497 65.482821 
Q 319.646372 46.478042 324.846074 46.478042 
Q 326.589713 46.478042 328.19065 49.043104 
Q 329.791588 51.579018 331.27212 56.592548 
L 331.27212 84.720787 
Q 329.778209 78.074944 328.328893 74.98521 
Q 326.879576 71.895476 325.278639 71.895476 
Q 322.406763 71.895476 320.761231 83.933779 
Q 319.120159 95.942934 319.120159 117.075548 
Q 319.120159 138.120718 320.761231 150.159021 
Q 322.406763 162.168175 325.278639 162.168175 
Q 326.879576 162.168175 328.328893 159.078441 
Q 329.778209 155.959559 331.27212 149.313716 
L 331.27212 177.471103 
z
" clip-path="url(#p55ec97598b)" style="fill: #0000ff"/>
   </g>
   <g id="patch_47">
    <path d="M 332.203673 185.572846 
L 349.903172 185.572846 
L 349.903172 186.873127 
L 343.535468 186.873127 
L 343.535468 192.24 
L 338.583725 192.24 
L 338.583725 186.873127 
L 332.203673 186.873127 
L 332.203673 185.572846 
z
" clip-path="url(#p55ec97598b)" style="fill: #ff0000"/>
   </g>
   <g id="patch_48">
    <path d="M 344.464131 183.848833 
L 337.657188 183.848833 
L 336.582408 185.572846 
L 332.203673 185.572846 
L 338.456941 176.109032 
L 343.649904 176.109032 
L 349.903172 185.572846 
L 345.528056 185.572846 
L 344.464131 183.848833 
z
M 338.742825 182.092369 
L 343.367638 182.092369 
L 341.058851 178.327937 
L 338.742825 182.092369 
z
" clip-path="url(#p55ec97598b)" style="fill: #008000"/>
   </g>
   <g id="patch_49">
    <path d="M 349.903172 174.465639 
Q 348.118149 175.287336 346.198257 175.70006 
Q 344.278365 176.109032 342.231538 176.109032 
Q 337.606344 176.109032 334.905008 173.662703 
Q 332.203673 171.216374 332.203673 167.032851 
Q 332.203673 162.800552 334.952609 160.372983 
Q 337.705512 157.945414 342.493341 157.945414 
Q 344.337866 157.945414 346.027688 158.275594 
Q 347.721477 158.602021 349.220896 159.247372 
L 349.220896 162.868089 
Q 347.673876 162.038888 346.142723 161.629916 
Q 344.611569 161.217192 343.072482 161.217192 
Q 340.224378 161.217192 338.681325 162.725511 
Q 337.138271 164.230079 337.138271 167.032851 
Q 337.138271 169.80936 338.62579 171.325183 
Q 340.11331 172.837255 342.850346 172.837255 
Q 343.596089 172.837255 344.234731 172.750958 
Q 344.873373 172.660909 345.381113 172.473307 
L 345.381113 169.07396 
L 342.465574 169.07396 
L 342.465574 166.046065 
L 349.903172 166.046065 
L 349.903172 174.465639 
z
" clip-path="url(#p55ec97598b)" style="fill: #ffa600"/>
   </g>
   <g id="patch_50">
    <path d="M 349.903172 155.750041 
Q 348.422639 156.838238 346.821702 157.388663 
Q 345.220765 157.945414 343.477126 157.945414 
Q 338.277424 157.945414 335.240548 153.82039 
Q 332.203673 149.695366 332.203673 142.641068 
Q 332.203673 135.561464 335.240548 131.442766 
Q 338.277424 127.317742 343.477126 127.317742 
Q 345.220765 127.317742 346.821702 127.874494 
Q 348.422639 128.424919 349.903172 129.513115 
L 349.903172 135.618404 
Q 348.409261 134.175911 346.959945 133.505278 
Q 345.510628 132.834646 343.909691 132.834646 
Q 341.037814 132.834646 339.392283 135.447583 
Q 337.75121 138.054193 337.75121 142.641068 
Q 337.75121 147.208963 339.392283 149.8219 
Q 341.037814 152.428511 343.909691 152.428511 
Q 345.510628 152.428511 346.959945 151.757878 
Q 348.409261 151.080918 349.903172 149.638425 
L 349.903172 155.750041 
z
" clip-path="url(#p55ec97598b)" style="fill: #0000ff"/>
   </g>
   <g id="patch_51">
    <path d="M 363.095183 192.21835 
L 356.28824 192.21835 
L 355.21346 192.24 
L 350.834725 192.24 
L 357.087993 192.121152 
L 362.280956 192.121152 
L 368.534224 192.24 
L 364.159107 192.24 
L 363.095183 192.21835 
z
M 357.373877 192.196292 
L 361.99869 192.196292 
L 359.689902 192.149017 
L 357.373877 192.196292 
z
" clip-path="url(#p55ec97598b)" style="fill: #008000"/>
   </g>
   <g id="patch_52">
    <path d="M 368.534224 192.058211 
Q 367.053691 192.089409 365.452754 192.10519 
Q 363.851817 192.121152 362.108177 192.121152 
Q 356.908476 192.121152 353.8716 192.002889 
Q 350.834725 191.884625 350.834725 191.682381 
Q 350.834725 191.479411 353.8716 191.361329 
Q 356.908476 191.243066 362.108177 191.243066 
Q 363.851817 191.243066 365.452754 191.259027 
Q 367.053691 191.274808 368.534224 191.306006 
L 368.534224 191.481043 
Q 367.040313 191.439687 365.590996 191.42046 
Q 364.14168 191.401234 362.540743 191.401234 
Q 359.668866 191.401234 358.023334 191.476146 
Q 356.382262 191.550876 356.382262 191.682381 
Q 356.382262 191.813341 358.023334 191.888253 
Q 359.668866 191.962984 362.540743 191.962984 
Q 364.14168 191.962984 365.590996 191.943757 
Q 367.040313 191.924349 368.534224 191.882993 
L 368.534224 192.058211 
z
" clip-path="url(#p55ec97598b)" style="fill: #0000ff"/>
   </g>
   <g id="patch_53">
    <path d="M 368.534224 176.189308 
Q 366.7492 183.716187 364.829308 187.496811 
Q 362.909416 191.243066 360.86259 191.243066 
Q 356.237396 191.243066 353.53606 168.834275 
Q 350.834725 146.425485 350.834725 108.103703 
Q 350.834725 69.335121 353.583661 47.098177 
Q 356.336563 24.861233 361.124393 24.861233 
Q 362.968917 24.861233 364.658739 27.885732 
Q 366.352528 30.875862 367.851948 36.787384 
L 367.851948 69.953768 
Q 366.304928 62.358151 364.773774 58.611896 
Q 363.242621 54.831272 361.703534 54.831272 
Q 358.85543 54.831272 357.312376 68.647735 
Q 355.769323 82.429828 355.769323 108.103703 
Q 355.769323 133.536993 357.256842 147.422195 
Q 358.744362 161.273027 361.481398 161.273027 
Q 362.227141 161.273027 362.865783 160.482533 
Q 363.504424 159.657669 364.012164 157.939204 
L 364.012164 126.800608 
L 361.096626 126.800608 
L 361.096626 99.064574 
L 368.534224 99.064574 
L 368.534224 176.189308 
z
" clip-path="url(#p55ec97598b)" style="fill: #ffa600"/>
   </g>
   <g id="patch_54">
    <path d="M 381.726235 191.887021 
L 374.919292 191.887021 
L 373.844512 192.24 
L 369.465776 192.24 
L 375.719044 190.302352 
L 380.912007 190.302352 
L 387.165275 192.24 
L 382.790159 192.24 
L 381.726235 191.887021 
z
M 376.004929 191.527397 
L 380.629742 191.527397 
L 378.320954 190.756657 
L 376.004929 191.527397 
z
" clip-path="url(#p55ec97598b)" style="fill: #008000"/>
   </g>
   <g id="patch_55">
    <path d="M 387.165275 189.911136 
Q 385.380252 190.106744 383.46036 190.204994 
Q 381.540468 190.302352 379.493641 190.302352 
Q 374.868447 190.302352 372.167112 189.719994 
Q 369.465776 189.137637 369.465776 188.141734 
Q 369.465776 187.13422 372.214712 186.556328 
Q 374.967615 185.978437 379.755445 185.978437 
Q 381.599969 185.978437 383.289791 186.057037 
Q 384.98358 186.134745 386.483 186.288373 
L 386.483 187.150297 
Q 384.93598 186.952903 383.404826 186.855546 
Q 381.873673 186.757295 380.334586 186.757295 
Q 377.486482 186.757295 375.943428 187.116356 
Q 374.400374 187.474524 374.400374 188.141734 
Q 374.400374 188.802692 375.887894 189.163539 
Q 377.375414 189.523493 380.112449 189.523493 
Q 380.858193 189.523493 381.496834 189.50295 
Q 382.135476 189.481514 382.643216 189.436854 
L 382.643216 188.627627 
L 379.727678 188.627627 
L 379.727678 187.906826 
L 387.165275 187.906826 
L 387.165275 189.911136 
z
" clip-path="url(#p55ec97598b)" style="fill: #ffa600"/>
   </g>
   <g id="patch_56">
    <path d="M 369.465776 178.265315 
L 387.165275 178.265315 
L 387.165275 179.769589 
L 380.797572 179.769589 
L 380.797572 185.978437 
L 375.845828 185.978437 
L 375.845828 179.769589 
L 369.465776 179.769589 
L 369.465776 178.265315 
z
" clip-path="url(#p55ec97598b)" style="fill: #ff0000"/>
   </g>
   <g id="patch_57">
    <path d="M 387.165275 167.724882 
Q 385.684743 172.949535 384.083806 175.592237 
Q 382.482868 178.265315 380.739229 178.265315 
Q 375.539527 178.265315 372.502652 158.460236 
Q 369.465776 138.655156 369.465776 104.78604 
Q 369.465776 70.79542 372.502652 51.020716 
Q 375.539527 31.215636 380.739229 31.215636 
Q 382.482868 31.215636 384.083806 33.888714 
Q 385.684743 36.531417 387.165275 41.75607 
L 387.165275 71.068803 
Q 385.671365 64.1431 384.222048 60.923256 
Q 382.772732 57.703411 381.171794 57.703411 
Q 378.299918 57.703411 376.654386 70.248654 
Q 375.013314 82.76352 375.013314 104.78604 
Q 375.013314 126.717432 376.654386 139.262674 
Q 378.299918 151.77754 381.171794 151.77754 
Q 382.772732 151.77754 384.222048 148.557696 
Q 385.671365 145.307476 387.165275 138.381773 
L 387.165275 167.724882 
z
" clip-path="url(#p55ec97598b)" style="fill: #0000ff"/>
   </g>
   <g id="patch_58">
    <path d="M 388.096828 191.394296 
L 405.796327 191.394296 
L 405.796327 191.559232 
L 399.428624 191.559232 
L 399.428624 192.24 
L 394.47688 192.24 
L 394.47688 191.559232 
L 388.096828 191.559232 
L 388.096828 191.394296 
z
" clip-path="url(#p55ec97598b)" style="fill: #ff0000"/>
   </g>
   <g id="patch_59">
    <path d="M 400.357287 190.585786 
L 393.550344 190.585786 
L 392.475563 191.394296 
L 388.096828 191.394296 
L 394.350096 186.956048 
L 399.543059 186.956048 
L 405.796327 191.394296 
L 401.421211 191.394296 
L 400.357287 190.585786 
z
M 394.635981 189.762056 
L 399.260793 189.762056 
L 396.952006 187.996649 
L 394.635981 189.762056 
z
" clip-path="url(#p55ec97598b)" style="fill: #008000"/>
   </g>
   <g id="patch_60">
    <path d="M 405.796327 185.986455 
Q 404.315795 186.46706 402.714857 186.710157 
Q 401.11392 186.956048 399.370281 186.956048 
Q 394.170579 186.956048 391.133704 185.134219 
Q 388.096828 183.31239 388.096828 180.196838 
Q 388.096828 177.07011 391.133704 175.251075 
Q 394.170579 173.429245 399.370281 173.429245 
Q 401.11392 173.429245 402.714857 173.675136 
Q 404.315795 173.918233 405.796327 174.398838 
L 405.796327 177.095258 
Q 404.302416 176.458176 402.8531 176.161989 
Q 401.403783 175.865802 399.802846 175.865802 
Q 396.93097 175.865802 395.285438 177.019814 
Q 393.644366 178.171031 393.644366 180.196838 
Q 393.644366 182.214263 395.285438 183.368274 
Q 396.93097 184.519491 399.802846 184.519491 
Q 401.403783 184.519491 402.8531 184.223304 
Q 404.302416 183.924323 405.796327 183.287242 
L 405.796327 185.986455 
z
" clip-path="url(#p55ec97598b)" style="fill: #0000ff"/>
   </g>
   <g id="patch_61">
    <path d="M 405.796327 163.41526 
Q 404.011304 168.422253 402.091412 170.937181 
Q 400.17152 173.429245 398.124693 173.429245 
Q 393.499499 173.429245 390.798164 158.522583 
Q 388.096828 143.61592 388.096828 118.123698 
Q 388.096828 92.334258 390.845764 77.54191 
Q 393.598667 62.749563 398.386497 62.749563 
Q 400.231021 62.749563 401.920843 64.761505 
Q 403.614632 66.750584 405.114052 70.683017 
L 405.114052 92.745792 
Q 403.567031 87.693073 402.035878 85.201008 
Q 400.504724 82.686081 398.965637 82.686081 
Q 396.117533 82.686081 394.57448 91.876998 
Q 393.031426 101.045053 393.031426 118.123698 
Q 393.031426 135.042303 394.518946 144.278947 
Q 396.006465 153.492727 398.743501 153.492727 
Q 399.489244 153.492727 400.127886 152.966879 
Q 400.766528 152.418167 401.274268 151.275018 
L 401.274268 130.561159 
L 398.35873 130.561159 
L 398.35873 112.110735 
L 405.796327 112.110735 
L 405.796327 163.41526 
z
" clip-path="url(#p55ec97598b)" style="fill: #ffa600"/>
   </g>
   <g id="patch_62">
    <path d="M 418.988338 190.878197 
L 412.181395 190.878197 
L 411.106615 192.24 
L 406.72788 192.24 
L 412.981148 184.764501 
L 418.174111 184.764501 
L 424.427379 192.24 
L 420.052263 192.24 
L 418.988338 190.878197 
z
M 413.267032 189.490759 
L 417.891845 189.490759 
L 415.583058 186.517222 
L 413.267032 189.490759 
z
" clip-path="url(#p55ec97598b)" style="fill: #008000"/>
   </g>
   <g id="patch_63">
    <path d="M 424.427379 183.387009 
Q 422.642356 184.075755 420.722464 184.4217 
Q 418.802572 184.764501 416.755745 184.764501 
Q 412.130551 184.764501 409.429215 182.713988 
Q 406.72788 180.663476 406.72788 177.156849 
Q 406.72788 173.609337 409.476816 171.57455 
Q 412.229719 169.539763 417.017548 169.539763 
Q 418.862073 169.539763 420.551895 169.816519 
Q 422.245684 170.09013 423.745103 170.631063 
L 423.745103 173.665947 
Q 422.198083 172.970911 420.66693 172.628111 
Q 419.135776 172.282165 417.596689 172.282165 
Q 414.748585 172.282165 413.205532 173.546438 
Q 411.662478 174.807566 411.662478 177.156849 
Q 411.662478 179.484117 413.149997 180.75468 
Q 414.637517 182.022098 417.374553 182.022098 
Q 418.120296 182.022098 418.758938 181.949764 
Q 419.39758 181.874285 419.90532 181.717037 
L 419.90532 178.867706 
L 416.989781 178.867706 
L 416.989781 176.329725 
L 424.427379 176.329725 
L 424.427379 183.387009 
z
" clip-path="url(#p55ec97598b)" style="fill: #ffa600"/>
   </g>
   <g id="patch_64">
    <path d="M 424.427379 166.233297 
Q 422.946846 167.872237 421.345909 168.701235 
Q 419.744972 169.539763 418.001333 169.539763 
Q 412.801631 169.539763 409.764755 163.327037 
Q 406.72788 157.114312 406.72788 146.489789 
Q 406.72788 135.827152 409.764755 129.623955 
Q 412.801631 123.411229 418.001333 123.411229 
Q 419.744972 123.411229 421.345909 124.249757 
Q 422.946846 125.078755 424.427379 126.717695 
L 424.427379 135.91291 
Q 422.933468 133.740362 421.484152 132.730318 
Q 420.034835 131.720273 418.433898 131.720273 
Q 415.562021 131.720273 413.91649 135.655635 
Q 412.275417 139.581467 412.275417 146.489789 
Q 412.275417 153.369525 413.91649 157.304886 
Q 415.562021 161.230719 418.433898 161.230719 
Q 420.034835 161.230719 421.484152 160.220675 
Q 422.933468 159.201102 424.427379 157.028553 
L 424.427379 166.233297 
z
" clip-path="url(#p55ec97598b)" style="fill: #0000ff"/>
   </g>
   <g id="patch_65">
    <path d="M 437.61939 190.967301 
L 430.812447 190.967301 
L 429.737667 192.24 
L 425.358932 192.24 
L 431.6122 185.253632 
L 436.805163 185.253632 
L 443.058431 192.24 
L 438.683314 192.24 
L 437.61939 190.967301 
z
M 431.898084 189.670646 
L 436.522897 189.670646 
L 434.214109 186.89167 
L 431.898084 189.670646 
z
" clip-path="url(#p55ec97598b)" style="fill: #008000"/>
   </g>
   <g id="patch_66">
    <path d="M 443.058431 183.704602 
Q 441.577898 184.472421 439.976961 184.860794 
Q 438.376024 185.253632 436.632384 185.253632 
Q 431.432683 185.253632 428.395807 182.343063 
Q 425.358932 179.432493 425.358932 174.455063 
Q 425.358932 169.459776 428.395807 166.553671 
Q 431.432683 163.643102 436.632384 163.643102 
Q 438.376024 163.643102 439.976961 164.035939 
Q 441.577898 164.424313 443.058431 165.192132 
L 443.058431 169.499953 
Q 441.56452 168.482146 440.115203 168.008955 
Q 438.665887 167.535765 437.06495 167.535765 
Q 434.193073 167.535765 432.547541 169.379423 
Q 430.906469 171.218617 430.906469 174.455063 
Q 430.906469 177.678116 432.547541 179.521775 
Q 434.193073 181.360969 437.06495 181.360969 
Q 438.665887 181.360969 440.115203 180.887778 
Q 441.56452 180.410123 443.058431 179.392317 
L 443.058431 183.704602 
z
" clip-path="url(#p55ec97598b)" style="fill: #0000ff"/>
   </g>
   <g id="patch_67">
    <path d="M 443.058431 153.96126 
Q 441.273407 158.802181 439.353515 161.233694 
Q 437.433623 163.643102 435.386797 163.643102 
Q 430.761603 163.643102 428.060267 149.230863 
Q 425.358932 134.818624 425.358932 110.171927 
Q 425.358932 85.23787 428.107868 70.936154 
Q 430.86077 56.634439 435.6486 56.634439 
Q 437.493124 56.634439 439.182946 58.579649 
Q 440.876735 60.502754 442.376155 64.304756 
L 442.376155 85.635754 
Q 440.829135 80.750624 439.297981 78.341216 
Q 437.766828 75.909703 436.227741 75.909703 
Q 433.379637 75.909703 431.836583 84.795776 
Q 430.29353 93.659745 430.29353 110.171927 
Q 430.29353 126.529376 431.781049 135.459659 
Q 433.268569 144.367837 436.005605 144.367837 
Q 436.751348 144.367837 437.38999 143.85943 
Q 438.028631 143.328918 438.536371 142.223685 
L 438.536371 122.196863 
L 435.620833 122.196863 
L 435.620833 104.358401 
L 443.058431 104.358401 
L 443.058431 153.96126 
z
" clip-path="url(#p55ec97598b)" style="fill: #ffa600"/>
   </g>
   <g id="patch_68">
    <path d="M 443.989983 190.520869 
L 461.689482 190.520869 
L 461.689482 190.856148 
L 455.321779 190.856148 
L 455.321779 192.24 
L 450.370035 192.24 
L 450.370035 190.856148 
L 443.989983 190.856148 
L 443.989983 190.520869 
z
" clip-path="url(#p55ec97598b)" style="fill: #ff0000"/>
   </g>
   <g id="patch_69">
    <path d="M 461.689482 189.094319 
Q 459.904459 189.807594 457.984567 190.16586 
Q 456.064675 190.520869 454.017848 190.520869 
Q 449.392654 190.520869 446.691319 188.397328 
Q 443.989983 186.273787 443.989983 182.64227 
Q 443.989983 178.968414 446.738919 176.861157 
Q 449.491822 174.753901 454.279652 174.753901 
Q 456.124176 174.753901 457.813998 175.040514 
Q 459.507787 175.32387 461.007207 175.884068 
L 461.007207 179.027039 
Q 459.460187 178.30725 457.929033 177.952241 
Q 456.39788 177.593974 454.858793 177.593974 
Q 452.010689 177.593974 450.467635 178.903274 
Q 448.924581 180.209317 448.924581 182.64227 
Q 448.924581 185.052425 450.412101 186.368239 
Q 451.899621 187.680796 454.636656 187.680796 
Q 455.3824 187.680796 456.021041 187.605885 
Q 456.659683 187.527718 457.167423 187.36487 
L 457.167423 184.41406 
L 454.251885 184.41406 
L 454.251885 181.785689 
L 461.689482 181.785689 
L 461.689482 189.094319 
z
" clip-path="url(#p55ec97598b)" style="fill: #ffa600"/>
   </g>
   <g id="patch_70">
    <path d="M 461.689482 170.255815 
Q 460.20895 172.485414 458.608013 173.613176 
Q 457.007075 174.753901 455.263436 174.753901 
Q 450.063734 174.753901 447.026859 166.302166 
Q 443.989983 157.850432 443.989983 143.396929 
Q 443.989983 128.891575 447.026859 120.452803 
Q 450.063734 112.001069 455.263436 112.001069 
Q 457.007075 112.001069 458.608013 113.141794 
Q 460.20895 114.269556 461.689482 116.499154 
L 461.689482 129.00824 
Q 460.195572 126.052725 458.746255 124.67867 
Q 457.296939 123.304615 455.696001 123.304615 
Q 452.824125 123.304615 451.178593 128.658245 
Q 449.537521 133.998911 449.537521 143.396929 
Q 449.537521 152.756058 451.178593 158.109688 
Q 452.824125 163.450354 455.696001 163.450354 
Q 457.296939 163.450354 458.746255 162.076299 
Q 460.195572 160.689281 461.689482 157.733767 
L 461.689482 170.255815 
z
" clip-path="url(#p55ec97598b)" style="fill: #0000ff"/>
   </g>
   <g id="patch_71">
    <path d="M 462.621035 187.139899 
L 480.320534 187.139899 
L 480.320534 188.134561 
L 473.952831 188.134561 
L 473.952831 192.24 
L 469.001087 192.24 
L 469.001087 188.134561 
L 462.621035 188.134561 
L 462.621035 187.139899 
z
" clip-path="url(#p55ec97598b)" style="fill: #ff0000"/>
   </g>
   <g id="patch_72">
    <path d="M 474.881494 185.238189 
L 468.074551 185.238189 
L 466.99977 187.139899 
L 462.621035 187.139899 
L 468.874303 176.70063 
L 474.067266 176.70063 
L 480.320534 187.139899 
L 475.945418 187.139899 
L 474.881494 185.238189 
z
M 469.160188 183.300682 
L 473.785 183.300682 
L 471.476213 179.148243 
L 469.160188 183.300682 
z
" clip-path="url(#p55ec97598b)" style="fill: #008000"/>
   </g>
   <g id="patch_73">
    <path d="M 480.320534 174.709168 
Q 478.840002 175.696291 477.239064 176.195591 
Q 475.638127 176.70063 473.894488 176.70063 
Q 468.694786 176.70063 465.657911 172.958748 
Q 462.621035 169.216866 462.621035 162.817789 
Q 462.621035 156.395755 465.657911 152.659612 
Q 468.694786 148.917731 473.894488 148.917731 
Q 475.638127 148.917731 477.239064 149.42277 
Q 478.840002 149.92207 480.320534 150.909192 
L 480.320534 156.447407 
Q 478.826623 155.138896 477.377307 154.530553 
Q 475.92799 153.922211 474.327053 153.922211 
Q 471.455177 153.922211 469.809645 156.292452 
Q 468.168573 158.656954 468.168573 162.817789 
Q 468.168573 166.961407 469.809645 169.331648 
Q 471.455177 171.69615 474.327053 171.69615 
Q 475.92799 171.69615 477.377307 171.087807 
Q 478.826623 170.473725 480.320534 169.165214 
L 480.320534 174.709168 
z
" clip-path="url(#p55ec97598b)" style="fill: #0000ff"/>
   </g>
   <g id="patch_74">
    <path d="M 480.320534 144.632519 
Q 478.535511 146.775125 476.615619 147.851319 
Q 474.695727 148.917731 472.6489 148.917731 
Q 468.023706 148.917731 465.322371 142.538831 
Q 462.621035 136.159931 462.621035 125.251229 
Q 462.621035 114.21534 465.369971 107.885358 
Q 468.122874 101.555376 472.910704 101.555376 
Q 474.755228 101.555376 476.44505 102.416332 
Q 478.138839 103.267504 479.638259 104.950282 
L 479.638259 114.391445 
Q 478.091238 112.229272 476.560085 111.162861 
Q 475.028931 110.086666 473.489844 110.086666 
Q 470.64174 110.086666 469.098687 114.019669 
Q 467.555633 117.942888 467.555633 125.251229 
Q 467.555633 132.491085 469.043153 136.443655 
Q 470.530672 140.386441 473.267708 140.386441 
Q 474.013451 140.386441 474.652093 140.161418 
Q 475.290735 139.926612 475.798475 139.437433 
L 475.798475 130.573501 
L 472.882937 130.573501 
L 472.882937 122.678145 
L 480.320534 122.678145 
L 480.320534 144.632519 
z
" clip-path="url(#p55ec97598b)" style="fill: #ffa600"/>
   </g>
   <g id="patch_75">
    <path d="M 493.512545 191.525125 
L 486.705603 191.525125 
L 485.630822 192.24 
L 481.252087 192.24 
L 487.505355 188.315755 
L 492.698318 188.315755 
L 498.951586 192.24 
L 494.57647 192.24 
L 493.512545 191.525125 
z
M 487.791239 190.796793 
L 492.416052 190.796793 
L 490.107265 189.235841 
L 487.791239 190.796793 
z
" clip-path="url(#p55ec97598b)" style="fill: #008000"/>
   </g>
   <g id="patch_76">
    <path d="M 481.252087 184.340611 
L 498.951586 184.340611 
L 498.951586 185.115875 
L 492.583882 185.115875 
L 492.583882 188.315755 
L 487.632139 188.315755 
L 487.632139 185.115875 
L 481.252087 185.115875 
L 481.252087 184.340611 
z
" clip-path="url(#p55ec97598b)" style="fill: #ff0000"/>
   </g>
   <g id="patch_77">
    <path d="M 498.951586 182.574212 
Q 497.471053 183.449776 495.870116 183.892648 
Q 494.269179 184.340611 492.52554 184.340611 
Q 487.325838 184.340611 484.288962 181.021612 
Q 481.252087 177.702614 481.252087 172.026718 
Q 481.252087 166.33046 484.288962 163.016552 
Q 487.325838 159.697553 492.52554 159.697553 
Q 494.269179 159.697553 495.870116 160.145516 
Q 497.471053 160.588389 498.951586 161.463953 
L 498.951586 166.376275 
Q 497.457675 165.215643 496.008359 164.676051 
Q 494.559042 164.13646 492.958105 164.13646 
Q 490.086228 164.13646 488.440697 166.238832 
Q 486.799624 168.336113 486.799624 172.026718 
Q 486.799624 175.702051 488.440697 177.804423 
Q 490.086228 179.901705 492.958105 179.901705 
Q 494.559042 179.901705 496.008359 179.362113 
Q 497.457675 178.817431 498.951586 177.656799 
L 498.951586 182.574212 
z
" clip-path="url(#p55ec97598b)" style="fill: #0000ff"/>
   </g>
   <g id="patch_78">
    <path d="M 498.951586 153.818064 
Q 497.166563 156.757808 495.246671 158.234392 
Q 493.326779 159.697553 491.279952 159.697553 
Q 486.654758 159.697553 483.953422 150.945436 
Q 481.252087 142.19332 481.252087 127.226126 
Q 481.252087 112.084427 484.001023 103.399428 
Q 486.753926 94.714429 491.541755 94.714429 
Q 493.38628 94.714429 495.076102 95.895696 
Q 496.769891 97.06354 498.26931 99.37238 
L 498.26931 112.32605 
Q 496.72229 109.359458 495.191137 107.896298 
Q 493.659983 106.419714 492.120896 106.419714 
Q 489.272792 106.419714 487.729739 111.815957 
Q 486.186685 117.198778 486.186685 127.226126 
Q 486.186685 137.15951 487.674205 142.582601 
Q 489.161724 147.992268 491.89876 147.992268 
Q 492.644503 147.992268 493.283145 147.683528 
Q 493.921787 147.361364 494.429527 146.690189 
L 494.429527 134.528506 
L 491.513988 134.528506 
L 491.513988 123.695748 
L 498.951586 123.695748 
L 498.951586 153.818064 
z
" clip-path="url(#p55ec97598b)" style="fill: #ffa600"/>
   </g>
   <g id="patch_79">
    <path d="M 499.883139 190.442847 
L 517.582638 190.442847 
L 517.582638 190.793342 
L 511.214934 190.793342 
L 511.214934 192.24 
L 506.263191 192.24 
L 506.263191 190.793342 
L 499.883139 190.793342 
L 499.883139 190.442847 
z
" clip-path="url(#p55ec97598b)" style="fill: #ff0000"/>
   </g>
   <g id="patch_80">
    <path d="M 517.582638 189.700197 
Q 515.797614 190.071522 513.877722 190.258032 
Q 511.957831 190.442847 509.911004 190.442847 
Q 505.28581 190.442847 502.584474 189.33735 
Q 499.883139 188.231853 499.883139 186.341318 
Q 499.883139 184.42874 502.632075 183.331721 
Q 505.384978 182.234701 510.172807 182.234701 
Q 512.017331 182.234701 513.707153 182.38391 
Q 515.400942 182.531422 516.900362 182.823056 
L 516.900362 184.45926 
Q 515.353342 184.084544 513.822188 183.899729 
Q 512.291035 183.713219 510.751948 183.713219 
Q 507.903844 183.713219 506.36079 184.394829 
Q 504.817737 185.074744 504.817737 186.341318 
Q 504.817737 187.596023 506.305256 188.281024 
Q 507.792776 188.96433 510.529812 188.96433 
Q 511.275555 188.96433 511.914197 188.925332 
Q 512.552838 188.884639 513.060578 188.799862 
L 513.060578 187.263695 
L 510.14504 187.263695 
L 510.14504 185.895389 
L 517.582638 185.895389 
L 517.582638 189.700197 
z
" clip-path="url(#p55ec97598b)" style="fill: #ffa600"/>
   </g>
   <g id="patch_81">
    <path d="M 512.143597 179.728816 
L 505.336654 179.728816 
L 504.261874 182.234701 
L 499.883139 182.234701 
L 506.136407 168.478863 
L 511.32937 168.478863 
L 517.582638 182.234701 
L 513.207521 182.234701 
L 512.143597 179.728816 
z
M 506.422291 177.17576 
L 511.047104 177.17576 
L 508.738316 171.704086 
L 506.422291 177.17576 
z
" clip-path="url(#p55ec97598b)" style="fill: #008000"/>
   </g>
   <g id="patch_82">
    <path d="M 517.582638 161.671471 
Q 516.102105 165.045741 514.501168 166.752493 
Q 512.900231 168.478863 511.156591 168.478863 
Q 505.95689 168.478863 502.920014 155.688029 
Q 499.883139 142.897194 499.883139 121.023298 
Q 499.883139 99.07093 502.920014 86.299714 
Q 505.95689 73.508879 511.156591 73.508879 
Q 512.900231 73.508879 514.501168 75.23525 
Q 516.102105 76.942002 517.582638 80.316271 
L 517.582638 99.247491 
Q 516.088727 94.774622 514.63941 92.695131 
Q 513.190094 90.615639 511.589157 90.615639 
Q 508.71728 90.615639 507.071748 98.717809 
Q 505.430676 106.800361 505.430676 121.023298 
Q 505.430676 135.187382 507.071748 143.289551 
Q 508.71728 151.372103 511.589157 151.372103 
Q 513.190094 151.372103 514.63941 149.292612 
Q 516.088727 147.193502 517.582638 142.720634 
L 517.582638 161.671471 
z
" clip-path="url(#p55ec97598b)" style="fill: #0000ff"/>
   </g>
   <g id="patch_83">
    <path d="M 518.51419 187.335602 
L 536.213689 187.335602 
L 536.213689 188.292096 
L 529.845986 188.292096 
L 529.845986 192.24 
L 524.894242 192.24 
L 524.894242 188.292096 
L 518.51419 188.292096 
L 518.51419 187.335602 
z
" clip-path="url(#p55ec97598b)" style="fill: #ff0000"/>
   </g>
   <g id="patch_84">
    <path d="M 536.213689 186.281541 
Q 534.733157 186.804015 533.13222 187.06829 
Q 531.531282 187.335602 529.787643 187.335602 
Q 524.587941 187.335602 521.551066 185.355062 
Q 518.51419 183.374521 518.51419 179.987554 
Q 518.51419 176.588437 521.551066 174.610934 
Q 524.587941 172.630394 529.787643 172.630394 
Q 531.531282 172.630394 533.13222 172.897706 
Q 534.733157 173.161981 536.213689 173.684454 
L 536.213689 176.615776 
Q 534.719779 175.923194 533.270462 175.601204 
Q 531.821146 175.279215 530.220208 175.279215 
Q 527.348332 175.279215 525.7028 176.533759 
Q 524.061728 177.785266 524.061728 179.987554 
Q 524.061728 182.180729 525.7028 183.435274 
Q 527.348332 184.686781 530.220208 184.686781 
Q 531.821146 184.686781 533.270462 184.364791 
Q 534.719779 184.039764 536.213689 183.347183 
L 536.213689 186.281541 
z
" clip-path="url(#p55ec97598b)" style="fill: #0000ff"/>
   </g>
   <g id="patch_85">
    <path d="M 536.213689 169.14778 
Q 534.428666 170.889087 532.508774 171.763716 
Q 530.588882 172.630394 528.542055 172.630394 
Q 523.916861 172.630394 521.215526 167.446229 
Q 518.51419 162.262065 518.51419 153.396507 
Q 518.51419 144.427584 521.263126 139.283175 
Q 524.016029 134.138766 528.803859 134.138766 
Q 530.648383 134.138766 532.338205 134.838469 
Q 534.031994 135.530221 535.531414 136.897823 
L 535.531414 144.570705 
Q 533.984394 142.813496 532.45324 141.946818 
Q 530.922087 141.072189 529.383 141.072189 
Q 526.534896 141.072189 524.991842 144.26856 
Q 523.448788 147.456981 523.448788 153.396507 
Q 523.448788 159.280375 524.936308 162.492649 
Q 526.423828 165.696971 529.160864 165.696971 
Q 529.906607 165.696971 530.545248 165.514094 
Q 531.18389 165.323266 531.69163 164.925707 
L 531.69163 157.721945 
L 528.776092 157.721945 
L 528.776092 151.305348 
L 536.213689 151.305348 
L 536.213689 169.14778 
z
" clip-path="url(#p55ec97598b)" style="fill: #ffa600"/>
   </g>
   <g id="patch_86">
    <path d="M 549.405701 191.279144 
L 542.598758 191.279144 
L 541.523977 192.24 
L 537.145242 192.24 
L 543.39851 186.965464 
L 548.591473 186.965464 
L 554.844741 192.24 
L 550.469625 192.24 
L 549.405701 191.279144 
z
M 543.684395 190.300201 
L 548.309208 190.300201 
L 546.00042 188.202143 
L 543.684395 190.300201 
z
" clip-path="url(#p55ec97598b)" style="fill: #008000"/>
   </g>
   <g id="patch_87">
    <path d="M 554.844741 186.314694 
Q 553.059718 186.640079 551.139826 186.803514 
Q 549.219934 186.965464 547.173107 186.965464 
Q 542.547913 186.965464 539.846578 185.996739 
Q 537.145242 185.028013 537.145242 183.371374 
Q 537.145242 181.69542 539.894178 180.734123 
Q 542.647081 179.772826 547.434911 179.772826 
Q 549.279435 179.772826 550.969257 179.903575 
Q 552.663046 180.032837 554.162466 180.28839 
L 554.162466 181.722163 
Q 552.615445 181.393807 551.084292 181.231858 
Q 549.553138 181.068422 548.014052 181.068422 
Q 545.165947 181.068422 543.622894 181.665704 
Q 542.07984 182.2615 542.07984 183.371374 
Q 542.07984 184.470847 543.56736 185.071101 
Q 545.054879 185.669868 547.791915 185.669868 
Q 548.537658 185.669868 549.1763 185.635695 
Q 549.814942 185.600037 550.322682 185.525748 
L 550.322682 184.179636 
L 547.407144 184.179636 
L 547.407144 182.980615 
L 554.844741 182.980615 
L 554.844741 186.314694 
z
" clip-path="url(#p55ec97598b)" style="fill: #ffa600"/>
   </g>
   <g id="patch_88">
    <path d="M 554.844741 178.558094 
Q 553.364209 179.160209 551.763271 179.464768 
Q 550.162334 179.772826 548.418695 179.772826 
Q 543.218993 179.772826 540.182118 177.49039 
Q 537.145242 175.207954 537.145242 171.304707 
Q 537.145242 167.387458 540.182118 165.108523 
Q 543.218993 162.826086 548.418695 162.826086 
Q 550.162334 162.826086 551.763271 163.134145 
Q 553.364209 163.438703 554.844741 164.040818 
L 554.844741 167.418964 
Q 553.35083 166.620812 551.901514 166.249741 
Q 550.452197 165.87867 548.85126 165.87867 
Q 545.979384 165.87867 544.333852 167.324446 
Q 542.69278 168.766722 542.69278 171.304707 
Q 542.69278 173.832191 544.333852 175.277967 
Q 545.979384 176.720243 548.85126 176.720243 
Q 550.452197 176.720243 551.901514 176.349172 
Q 553.35083 175.9746 554.844741 175.176448 
L 554.844741 178.558094 
z
" clip-path="url(#p55ec97598b)" style="fill: #0000ff"/>
   </g>
   <g id="patch_89">
    <path d="M 568.036752 192.131633 
L 561.22981 192.131633 
L 560.155029 192.24 
L 555.776294 192.24 
L 562.029562 191.645127 
L 567.222525 191.645127 
L 573.475793 192.24 
L 569.100677 192.24 
L 568.036752 192.131633 
z
M 562.315446 192.021226 
L 566.940259 192.021226 
L 564.631472 191.784602 
L 562.315446 192.021226 
z
" clip-path="url(#p55ec97598b)" style="fill: #008000"/>
   </g>
   <g id="patch_90">
    <path d="M 573.475793 190.98556 
Q 571.99526 191.312493 570.394323 191.47786 
Q 568.793386 191.645127 567.049747 191.645127 
Q 561.850045 191.645127 558.813169 190.405826 
Q 555.776294 189.166525 555.776294 187.047168 
Q 555.776294 184.920208 558.813169 183.682808 
Q 561.850045 182.443507 567.049747 182.443507 
Q 568.793386 182.443507 570.394323 182.610774 
Q 571.99526 182.776141 573.475793 183.103073 
L 573.475793 184.937315 
Q 571.981882 184.50394 570.532566 184.302458 
Q 569.083249 184.100977 567.482312 184.100977 
Q 564.610435 184.100977 562.964904 184.885994 
Q 561.323831 185.669111 561.323831 187.047168 
Q 561.323831 188.419523 562.964904 189.20454 
Q 564.610435 189.987657 567.482312 189.987657 
Q 569.083249 189.987657 570.532566 189.786176 
Q 571.981882 189.582793 573.475793 189.149418 
L 573.475793 190.98556 
z
" clip-path="url(#p55ec97598b)" style="fill: #0000ff"/>
   </g>
   <g id="patch_91">
    <path d="M 573.475793 179.269356 
Q 571.69077 180.856431 569.770878 181.653592 
Q 567.850986 182.443507 565.804159 182.443507 
Q 561.178965 182.443507 558.477629 177.718515 
Q 555.776294 172.993524 555.776294 164.913209 
Q 555.776294 156.738685 558.52523 152.049928 
Q 561.278133 147.361171 566.065962 147.361171 
Q 567.910487 147.361171 569.600309 147.9989 
Q 571.294098 148.629382 572.793517 149.875852 
L 572.793517 156.869129 
Q 571.246497 155.26756 569.715344 154.477646 
Q 568.18419 153.680485 566.645103 153.680485 
Q 563.796999 153.680485 562.253946 156.593746 
Q 560.710892 159.499761 560.710892 164.913209 
Q 560.710892 170.275929 562.198412 173.203685 
Q 563.685931 176.124193 566.422967 176.124193 
Q 567.16871 176.124193 567.807352 175.957514 
Q 568.445994 175.783588 568.953734 175.421242 
L 568.953734 168.855533 
L 566.038195 168.855533 
L 566.038195 163.00727 
L 573.475793 163.00727 
L 573.475793 179.269356 
z
" clip-path="url(#p55ec97598b)" style="fill: #ffa600"/>
   </g>
   <g id="patch_92">
    <path d="M 592.106845 190.404069 
Q 590.321821 191.322035 588.401929 191.783113 
Q 586.482038 192.24 584.435211 192.24 
Q 579.810017 192.24 577.108681 189.507062 
Q 574.407346 186.774125 574.407346 182.100466 
Q 574.407346 177.372316 577.156282 174.660336 
Q 579.909185 171.948357 584.697014 171.948357 
Q 586.541538 171.948357 588.23136 172.317219 
Q 589.925149 172.681891 591.424569 173.40285 
L 591.424569 177.447765 
Q 589.877549 176.521417 588.346395 176.06453 
Q 586.815242 175.603451 585.276155 175.603451 
Q 582.428051 175.603451 580.884997 177.288483 
Q 579.341944 178.969324 579.341944 182.100466 
Q 579.341944 185.202266 580.829463 186.895682 
Q 582.316983 188.584905 585.054019 188.584905 
Q 585.799762 188.584905 586.438404 188.488498 
Q 587.077045 188.387899 587.584785 188.178318 
L 587.584785 184.380708 
L 584.669247 184.380708 
L 584.669247 180.998069 
L 592.106845 180.998069 
L 592.106845 190.404069 
z
" clip-path="url(#p55ec97598b)" style="fill: #ffa600"/>
   </g>
   <g id="patch_93">
    <path d="M 592.106845 169.611592 
Q 590.626312 170.769873 589.025375 171.355748 
Q 587.424438 171.948357 585.680798 171.948357 
Q 580.481097 171.948357 577.444221 167.557663 
Q 574.407346 163.166969 574.407346 155.658344 
Q 574.407346 148.122782 577.444221 143.738822 
Q 580.481097 139.348128 585.680798 139.348128 
Q 587.424438 139.348128 589.025375 139.940737 
Q 590.626312 140.526612 592.106845 141.684893 
L 592.106845 148.183389 
Q 590.612934 146.647993 589.163617 145.934169 
Q 587.714301 145.220344 586.113364 145.220344 
Q 583.241487 145.220344 581.595955 148.001566 
Q 579.954883 150.776054 579.954883 155.658344 
Q 579.954883 160.520431 581.595955 163.301653 
Q 583.241487 166.07614 586.113364 166.07614 
Q 587.714301 166.07614 589.163617 165.362316 
Q 590.612934 164.641757 592.106845 163.106361 
L 592.106845 169.611592 
z
" clip-path="url(#p55ec97598b)" style="fill: #0000ff"/>
   </g>
   <g id="patch_94">
    <path d="M 593.038397 190.259881 
L 610.737896 190.259881 
L 610.737896 190.64606 
L 604.370193 190.64606 
L 604.370193 192.24 
L 599.418449 192.24 
L 599.418449 190.64606 
L 593.038397 190.64606 
L 593.038397 190.259881 
z
" clip-path="url(#p55ec97598b)" style="fill: #ff0000"/>
   </g>
   <g id="patch_95">
    <path d="M 610.737896 189.740677 
Q 609.257364 189.998035 607.656427 190.12821 
Q 606.055489 190.259881 604.31185 190.259881 
Q 599.112148 190.259881 596.075273 189.284316 
Q 593.038397 188.308751 593.038397 186.640416 
Q 593.038397 184.966095 596.075273 183.992026 
Q 599.112148 183.016461 604.31185 183.016461 
Q 606.055489 183.016461 607.656427 183.148133 
Q 609.257364 183.278308 610.737896 183.535665 
L 610.737896 184.979561 
Q 609.243986 184.638413 607.794669 184.479809 
Q 606.345353 184.321205 604.744415 184.321205 
Q 601.872539 184.321205 600.227007 184.939162 
Q 598.585935 185.555623 598.585935 186.640416 
Q 598.585935 187.720719 600.227007 188.338677 
Q 601.872539 188.955138 604.744415 188.955138 
Q 606.345353 188.955138 607.794669 188.796534 
Q 609.243986 188.636434 610.737896 188.295285 
L 610.737896 189.740677 
z
" clip-path="url(#p55ec97598b)" style="fill: #0000ff"/>
   </g>
   <g id="patch_96">
    <path d="M 610.737896 179.299899 
Q 608.952873 181.15818 607.032981 182.091563 
Q 605.113089 183.016461 603.066262 183.016461 
Q 598.441068 183.016461 595.739733 177.484044 
Q 593.038397 171.951627 593.038397 162.490514 
Q 593.038397 152.919092 595.787333 147.429102 
Q 598.540236 141.939111 603.328066 141.939111 
Q 605.17259 141.939111 606.862412 142.685817 
Q 608.556201 143.424039 610.055621 144.883511 
L 610.055621 153.071828 
Q 608.508601 151.196576 606.977447 150.271678 
Q 605.446294 149.338295 603.907207 149.338295 
Q 601.059103 149.338295 599.516049 152.749386 
Q 597.972995 156.151993 597.972995 162.490514 
Q 597.972995 168.769638 599.460515 172.1977 
Q 600.948035 175.617277 603.685071 175.617277 
Q 604.430814 175.617277 605.069455 175.422115 
Q 605.708097 175.218468 606.215837 174.794203 
L 606.215837 167.106519 
L 603.300299 167.106519 
L 603.300299 160.258879 
L 610.737896 160.258879 
L 610.737896 179.299899 
z
" clip-path="url(#p55ec97598b)" style="fill: #ffa600"/>
   </g>
   <g id="patch_97">
    <path d="M 611.669449 190.858354 
L 629.368948 190.858354 
L 629.368948 191.127814 
L 623.001245 191.127814 
L 623.001245 192.24 
L 618.049501 192.24 
L 618.049501 191.127814 
L 611.669449 191.127814 
L 611.669449 190.858354 
z
" clip-path="url(#p55ec97598b)" style="fill: #ff0000"/>
   </g>
   <g id="patch_98">
    <path d="M 623.929908 190.017784 
L 617.122965 190.017784 
L 616.048184 190.858354 
L 611.669449 190.858354 
L 617.922717 186.244117 
L 623.11568 186.244117 
L 629.368948 190.858354 
L 624.993832 190.858354 
L 623.929908 190.017784 
z
M 618.208602 189.161391 
L 622.833415 189.161391 
L 620.524627 187.325981 
L 618.208602 189.161391 
z
" clip-path="url(#p55ec97598b)" style="fill: #008000"/>
   </g>
   <g id="patch_99">
    <path d="M 629.368948 184.41388 
Q 627.583925 185.328998 625.664033 185.788647 
Q 623.744141 186.244117 621.697314 186.244117 
Q 617.07212 186.244117 614.370785 183.519655 
Q 611.669449 180.795192 611.669449 176.136028 
Q 611.669449 171.422541 614.418385 168.718972 
Q 617.171288 166.015403 621.959118 166.015403 
Q 623.803642 166.015403 625.493464 166.383122 
Q 627.187253 166.746662 628.686673 167.465385 
L 628.686673 171.497756 
Q 627.139652 170.57428 625.608499 170.118811 
Q 624.077345 169.659162 622.538259 169.659162 
Q 619.690154 169.659162 618.147101 171.338968 
Q 616.604047 173.014596 616.604047 176.136028 
Q 616.604047 179.228209 618.091567 180.916372 
Q 619.579086 182.600358 622.316122 182.600358 
Q 623.061865 182.600358 623.700507 182.504249 
Q 624.339149 182.403962 624.846889 182.195031 
L 624.846889 178.409199 
L 621.931351 178.409199 
L 621.931351 175.03705 
L 629.368948 175.03705 
L 629.368948 184.41388 
z
" clip-path="url(#p55ec97598b)" style="fill: #ffa600"/>
   </g>
   <g id="patch_100">
    <path d="M 629.368948 162.331406 
Q 627.888416 164.157479 626.287478 165.081133 
Q 624.686541 166.015403 622.942902 166.015403 
Q 617.7432 166.015403 614.706325 159.093311 
Q 611.669449 152.171219 611.669449 140.333592 
Q 611.669449 128.453499 614.706325 121.542024 
Q 617.7432 114.619932 622.942902 114.619932 
Q 624.686541 114.619932 626.287478 115.554202 
Q 627.888416 116.477856 629.368948 118.303929 
L 629.368948 128.54905 
Q 627.875037 126.128441 626.425721 125.00307 
Q 624.976404 123.877699 623.375467 123.877699 
Q 620.503591 123.877699 618.858059 128.262398 
Q 617.216987 132.636481 617.216987 140.333592 
Q 617.216987 147.998854 618.858059 152.383553 
Q 620.503591 156.757636 623.375467 156.757636 
Q 624.976404 156.757636 626.425721 155.632265 
Q 627.875037 154.496277 629.368948 152.075669 
L 629.368948 162.331406 
z
" clip-path="url(#p55ec97598b)" style="fill: #0000ff"/>
   </g>
   <g id="patch_101">
    <path d="M 630.300501 181.862084 
L 648 181.862084 
L 648 183.886067 
L 641.632296 183.886067 
L 641.632296 192.24 
L 636.680553 192.24 
L 636.680553 183.886067 
L 630.300501 183.886067 
L 630.300501 181.862084 
z
" clip-path="url(#p55ec97598b)" style="fill: #ff0000"/>
   </g>
   <g id="patch_102">
    <path d="M 648 179.735741 
Q 646.519467 180.789721 644.91853 181.322838 
Q 643.317593 181.862084 641.573954 181.862084 
Q 636.374252 181.862084 633.337376 177.866766 
Q 630.300501 173.871447 630.300501 167.038963 
Q 630.300501 160.181968 633.337376 156.192777 
Q 636.374252 152.197459 641.573954 152.197459 
Q 643.317593 152.197459 644.91853 152.736704 
Q 646.519467 153.269822 648 154.323802 
L 648 160.237118 
Q 646.506089 158.839982 645.056773 158.190436 
Q 643.607456 157.540891 642.006519 157.540891 
Q 639.134642 157.540891 637.489111 160.071667 
Q 635.848038 162.596316 635.848038 167.038963 
Q 635.848038 171.463226 637.489111 173.994003 
Q 639.134642 176.518652 642.006519 176.518652 
Q 643.607456 176.518652 645.056773 175.869106 
Q 646.506089 175.213433 648 173.816297 
L 648 179.735741 
z
" clip-path="url(#p55ec97598b)" style="fill: #0000ff"/>
   </g>
   <g id="patch_103">
    <path d="M 648 147.090233 
Q 646.214977 149.643846 644.295085 150.926483 
Q 642.375193 152.197459 640.328366 152.197459 
Q 635.703172 152.197459 633.001836 144.594921 
Q 630.300501 136.992384 630.300501 123.991111 
Q 630.300501 110.838255 633.049437 103.294019 
Q 635.80234 95.749783 640.590169 95.749783 
Q 642.434694 95.749783 644.124516 96.775892 
Q 645.818305 97.790341 647.317724 99.795919 
L 647.317724 111.048141 
Q 645.770704 108.471207 644.239551 107.200231 
Q 642.708397 105.917594 641.16931 105.917594 
Q 638.321206 105.917594 636.778153 110.605048 
Q 635.235099 115.280842 635.235099 123.991111 
Q 635.235099 132.619758 636.722619 137.330533 
Q 638.210138 142.029648 640.947174 142.029648 
Q 641.692917 142.029648 642.331559 141.76146 
Q 642.970201 141.481612 643.477941 140.898595 
L 643.477941 130.334333 
L 640.562402 130.334333 
L 640.562402 120.924443 
L 648 120.924443 
L 648 147.090233 
z
" clip-path="url(#p55ec97598b)" style="fill: #ffa600"/>
   </g>
   <g id="patch_104">
    <path d="M 102.260459 192.288361 
L 95.453516 192.288361 
L 94.378735 192.24 
L 90 192.24 
L 96.253268 192.505471 
L 101.446231 192.505471 
L 107.699499 192.24 
L 103.324383 192.24 
L 102.260459 192.288361 
z
M 96.539153 192.337631 
L 101.163965 192.337631 
L 98.855178 192.443228 
L 96.539153 192.337631 
z
" clip-path="url(#p55ec97598b)" style="fill: #008000"/>
   </g>
   <g id="patch_105">
    <path d="M 120.89151 193.162161 
L 114.084567 193.162161 
L 113.009787 192.24 
L 108.631052 192.24 
L 114.88432 197.302122 
L 120.077283 197.302122 
L 126.330551 192.24 
L 121.955434 192.24 
L 120.89151 193.162161 
z
M 115.170204 194.101681 
L 119.795017 194.101681 
L 117.48623 196.115247 
L 115.170204 194.101681 
z
" clip-path="url(#p55ec97598b)" style="fill: #008000"/>
   </g>
   <g id="patch_106">
    <path d="M 145.893155 192.524269 
L 163.592654 192.524269 
L 163.592654 192.468829 
L 157.224951 192.468829 
L 157.224951 192.24 
L 152.273207 192.24 
L 152.273207 192.468829 
L 145.893155 192.468829 
L 145.893155 192.524269 
z
" clip-path="url(#p55ec97598b)" style="fill: #ff0000"/>
   </g>
   <g id="patch_107">
    <path d="M 183.155259 194.436301 
L 200.854758 194.436301 
L 200.854758 194.007961 
L 194.487054 194.007961 
L 194.487054 192.24 
L 189.535311 192.24 
L 189.535311 194.007961 
L 183.155259 194.007961 
L 183.155259 194.436301 
z
" clip-path="url(#p55ec97598b)" style="fill: #ff0000"/>
   </g>
   <g id="patch_108">
    <path d="M 269.939924 192.584081 
L 263.132981 192.584081 
L 262.058201 192.24 
L 257.679466 192.24 
L 263.932734 194.128803 
L 269.125697 194.128803 
L 275.378965 192.24 
L 271.003849 192.24 
L 269.939924 192.584081 
z
M 264.218618 192.934639 
L 268.843431 192.934639 
L 266.534644 193.68595 
L 264.218618 192.934639 
z
" clip-path="url(#p55ec97598b)" style="fill: #008000"/>
   </g>
   <g id="patch_109">
    <path d="M 257.679466 200.713574 
L 275.378965 200.713574 
L 275.378965 199.42936 
L 269.011261 199.42936 
L 269.011261 194.128803 
L 264.059518 194.128803 
L 264.059518 199.42936 
L 257.679466 199.42936 
L 257.679466 200.713574 
z
" clip-path="url(#p55ec97598b)" style="fill: #ff0000"/>
   </g>
   <g id="patch_110">
    <path d="M 294.941569 193.951374 
L 312.641068 193.951374 
L 312.641068 193.617608 
L 306.273365 193.617608 
L 306.273365 192.24 
L 301.321621 192.24 
L 301.321621 193.617608 
L 294.941569 193.617608 
L 294.941569 193.951374 
z
" clip-path="url(#p55ec97598b)" style="fill: #ff0000"/>
   </g>
   <g id="patch_111">
    <path d="M 313.572621 193.229471 
L 331.27212 193.229471 
L 331.27212 193.036497 
L 324.904417 193.036497 
L 324.904417 192.24 
L 319.952673 192.24 
L 319.952673 193.036497 
L 313.572621 193.036497 
L 313.572621 193.229471 
z
" clip-path="url(#p55ec97598b)" style="fill: #ff0000"/>
   </g>
   <g id="patch_112">
    <path d="M 350.834725 193.298767 
L 368.534224 193.298767 
L 368.534224 193.092278 
L 362.16652 193.092278 
L 362.16652 192.24 
L 357.214777 192.24 
L 357.214777 193.092278 
L 350.834725 193.092278 
L 350.834725 193.298767 
z
" clip-path="url(#p55ec97598b)" style="fill: #ff0000"/>
   </g>
   <g id="patch_113">
    <path d="M 406.72788 194.561084 
L 424.427379 194.561084 
L 424.427379 194.108408 
L 418.059675 194.108408 
L 418.059675 192.24 
L 413.107932 192.24 
L 413.107932 194.108408 
L 406.72788 194.108408 
L 406.72788 194.561084 
z
" clip-path="url(#p55ec97598b)" style="fill: #ff0000"/>
   </g>
   <g id="patch_114">
    <path d="M 425.358932 192.765253 
L 443.058431 192.765253 
L 443.058431 192.662814 
L 436.690727 192.662814 
L 436.690727 192.24 
L 431.738984 192.24 
L 431.738984 192.662814 
L 425.358932 192.662814 
L 425.358932 192.765253 
z
" clip-path="url(#p55ec97598b)" style="fill: #ff0000"/>
   </g>
   <g id="patch_115">
    <path d="M 456.250442 192.348699 
L 449.443499 192.348699 
L 448.368719 192.24 
L 443.989983 192.24 
L 450.243251 192.836692 
L 455.436214 192.836692 
L 461.689482 192.24 
L 457.314366 192.24 
L 456.250442 192.348699 
z
M 450.529136 192.459444 
L 455.153949 192.459444 
L 452.845161 192.69679 
L 450.529136 192.459444 
z
" clip-path="url(#p55ec97598b)" style="fill: #008000"/>
   </g>
   <g id="patch_116">
    <path d="M 530.774649 192.514 
L 523.967706 192.514 
L 522.892926 192.24 
L 518.51419 192.24 
L 524.767458 193.744097 
L 529.960421 193.744097 
L 536.213689 192.24 
L 531.838573 192.24 
L 530.774649 192.514 
z
M 525.053343 192.793157 
L 529.678156 192.793157 
L 527.369368 193.391443 
L 525.053343 192.793157 
z
" clip-path="url(#p55ec97598b)" style="fill: #008000"/>
   </g>
   <g id="patch_117">
    <path d="M 537.145242 193.236745 
L 554.844741 193.236745 
L 554.844741 193.042352 
L 548.477038 193.042352 
L 548.477038 192.24 
L 543.525294 192.24 
L 543.525294 193.042352 
L 537.145242 193.042352 
L 537.145242 193.236745 
z
" clip-path="url(#p55ec97598b)" style="fill: #ff0000"/>
   </g>
   <g id="patch_118">
    <path d="M 555.776294 193.657263 
L 573.475793 193.657263 
L 573.475793 193.380857 
L 567.108089 193.380857 
L 567.108089 192.24 
L 562.156346 192.24 
L 562.156346 193.380857 
L 555.776294 193.380857 
L 555.776294 193.657263 
z
" clip-path="url(#p55ec97598b)" style="fill: #ff0000"/>
   </g>
   <g id="patch_119">
    <path d="M 586.667804 193.021604 
L 579.860861 193.021604 
L 578.786081 192.24 
L 574.407346 192.24 
L 580.660614 196.530544 
L 585.853577 196.530544 
L 592.106845 192.24 
L 587.731728 192.24 
L 586.667804 193.021604 
z
M 580.946498 193.81792 
L 585.571311 193.81792 
L 583.262523 195.524574 
L 580.946498 193.81792 
z
" clip-path="url(#p55ec97598b)" style="fill: #008000"/>
   </g>
   <g id="patch_120">
    <path d="M 574.407346 201.592894 
L 592.106845 201.592894 
L 592.106845 200.605594 
L 585.739141 200.605594 
L 585.739141 196.530544 
L 580.787398 196.530544 
L 580.787398 200.605594 
L 574.407346 200.605594 
L 574.407346 201.592894 
z
" clip-path="url(#p55ec97598b)" style="fill: #ff0000"/>
   </g>
   <g id="patch_121">
    <path d="M 605.298856 192.632922 
L 598.491913 192.632922 
L 597.417133 192.24 
L 593.038397 192.24 
L 599.291665 194.39691 
L 604.484628 194.39691 
L 610.737896 192.24 
L 606.36278 192.24 
L 605.298856 192.632922 
z
M 599.57755 193.03324 
L 604.202363 193.03324 
L 601.893575 193.891197 
L 599.57755 193.03324 
z
" clip-path="url(#p55ec97598b)" style="fill: #008000"/>
   </g>
   <g id="patch_122">
    <path d="M 642.560959 192.608105 
L 635.754017 192.608105 
L 634.679236 192.24 
L 630.300501 192.24 
L 636.553769 194.260678 
L 641.746732 194.260678 
L 648 192.24 
L 643.624884 192.24 
L 642.560959 192.608105 
z
M 636.839653 192.983138 
L 641.464466 192.983138 
L 639.155679 193.786906 
L 636.839653 192.983138 
z
" clip-path="url(#p55ec97598b)" style="fill: #008000"/>
   </g>
   <g id="matplotlib.axis_1">
    <g id="xtick_1">
     <g id="line2d_2">
      <defs>
       <path id="m766f216052" d="M 0 0 
L 0 3.5 
" style="stroke: #000000; stroke-width: 0.8"/>
      </defs>
      <g>
       <use xlink:href="#m766f216052" x="98.84975" y="192.24" style="stroke: #000000; stroke-width: 0.8"/>
      </g>
     </g>
     <g id="text_1">
      <!-- 0 -->
      <g transform="translate(95.6685 206.838437) scale(0.1 -0.1)">
       <defs>
        <path id="DejaVuSans-30" d="M 2034 4250 
Q 1547 4250 1301 3770 
Q 1056 3291 1056 2328 
Q 1056 1369 1301 889 
Q 1547 409 2034 409 
Q 2525 409 2770 889 
Q 3016 1369 3016 2328 
Q 3016 3291 2770 3770 
Q 2525 4250 2034 4250 
z
M 2034 4750 
Q 2819 4750 3233 4129 
Q 3647 3509 3647 2328 
Q 3647 1150 3233 529 
Q 2819 -91 2034 -91 
Q 1250 -91 836 529 
Q 422 1150 422 2328 
Q 422 3509 836 4129 
Q 1250 4750 2034 4750 
z
" transform="scale(0.015625)"/>
       </defs>
       <use xlink:href="#DejaVuSans-30"/>
      </g>
     </g>
    </g>
    <g id="xtick_2">
     <g id="line2d_3">
      <g>
       <use xlink:href="#m766f216052" x="192.005008" y="192.24" style="stroke: #000000; stroke-width: 0.8"/>
      </g>
     </g>
     <g id="text_2">
      <!-- 5 -->
      <g transform="translate(188.823758 206.838437) scale(0.1 -0.1)">
       <defs>
        <path id="DejaVuSans-35" d="M 691 4666 
L 3169 4666 
L 3169 4134 
L 1269 4134 
L 1269 2991 
Q 1406 3038 1543 3061 
Q 1681 3084 1819 3084 
Q 2600 3084 3056 2656 
Q 3513 2228 3513 1497 
Q 3513 744 3044 326 
Q 2575 -91 1722 -91 
Q 1428 -91 1123 -41 
Q 819 9 494 109 
L 494 744 
Q 775 591 1075 516 
Q 1375 441 1709 441 
Q 2250 441 2565 725 
Q 2881 1009 2881 1497 
Q 2881 1984 2565 2268 
Q 2250 2553 1709 2553 
Q 1456 2553 1204 2497 
Q 953 2441 691 2322 
L 691 4666 
z
" transform="scale(0.015625)"/>
       </defs>
       <use xlink:href="#DejaVuSans-35"/>
      </g>
     </g>
    </g>
    <g id="xtick_3">
     <g id="line2d_4">
      <g>
       <use xlink:href="#m766f216052" x="285.160267" y="192.24" style="stroke: #000000; stroke-width: 0.8"/>
      </g>
     </g>
     <g id="text_3">
      <!-- 10 -->
      <g transform="translate(278.797767 206.838437) scale(0.1 -0.1)">
       <defs>
        <path id="DejaVuSans-31" d="M 794 531 
L 1825 531 
L 1825 4091 
L 703 3866 
L 703 4441 
L 1819 4666 
L 2450 4666 
L 2450 531 
L 3481 531 
L 3481 0 
L 794 0 
L 794 531 
z
" transform="scale(0.015625)"/>
       </defs>
       <use xlink:href="#DejaVuSans-31"/>
       <use xlink:href="#DejaVuSans-30" x="63.623047"/>
      </g>
     </g>
    </g>
    <g id="xtick_4">
     <g id="line2d_5">
      <g>
       <use xlink:href="#m766f216052" x="378.315526" y="192.24" style="stroke: #000000; stroke-width: 0.8"/>
      </g>
     </g>
     <g id="text_4">
      <!-- 15 -->
      <g transform="translate(371.953026 206.838437) scale(0.1 -0.1)">
       <use xlink:href="#DejaVuSans-31"/>
       <use xlink:href="#DejaVuSans-35" x="63.623047"/>
      </g>
     </g>
    </g>
    <g id="xtick_5">
     <g id="line2d_6">
      <g>
       <use xlink:href="#m766f216052" x="471.470785" y="192.24" style="stroke: #000000; stroke-width: 0.8"/>
      </g>
     </g>
     <g id="text_5">
      <!-- 20 -->
      <g transform="translate(465.108285 206.838437) scale(0.1 -0.1)">
       <defs>
        <path id="DejaVuSans-32" d="M 1228 531 
L 3431 531 
L 3431 0 
L 469 0 
L 469 531 
Q 828 903 1448 1529 
Q 2069 2156 2228 2338 
Q 2531 2678 2651 2914 
Q 2772 3150 2772 3378 
Q 2772 3750 2511 3984 
Q 2250 4219 1831 4219 
Q 1534 4219 1204 4116 
Q 875 4013 500 3803 
L 500 4441 
Q 881 4594 1212 4672 
Q 1544 4750 1819 4750 
Q 2544 4750 2975 4387 
Q 3406 4025 3406 3419 
Q 3406 3131 3298 2873 
Q 3191 2616 2906 2266 
Q 2828 2175 2409 1742 
Q 1991 1309 1228 531 
z
" transform="scale(0.015625)"/>
       </defs>
       <use xlink:href="#DejaVuSans-32"/>
       <use xlink:href="#DejaVuSans-30" x="63.623047"/>
      </g>
     </g>
    </g>
    <g id="xtick_6">
     <g id="line2d_7">
      <g>
       <use xlink:href="#m766f216052" x="564.626043" y="192.24" style="stroke: #000000; stroke-width: 0.8"/>
      </g>
     </g>
     <g id="text_6">
      <!-- 25 -->
      <g transform="translate(558.263543 206.838437) scale(0.1 -0.1)">
       <use xlink:href="#DejaVuSans-32"/>
       <use xlink:href="#DejaVuSans-35" x="63.623047"/>
      </g>
     </g>
    </g>
   </g>
   <g id="matplotlib.axis_2">
    <g id="ytick_1">
     <g id="line2d_8">
      <defs>
       <path id="m17886f789f" d="M 0 0 
L -3.5 0 
" style="stroke: #000000; stroke-width: 0.8"/>
      </defs>
      <g>
       <use xlink:href="#m17886f789f" x="90" y="192.24" style="stroke: #000000; stroke-width: 0.8"/>
      </g>
     </g>
     <g id="text_7">
      <!-- 0.000 -->
      <g transform="translate(54.371875 196.039219) scale(0.1 -0.1)">
       <defs>
        <path id="DejaVuSans-2e" d="M 684 794 
L 1344 794 
L 1344 0 
L 684 0 
L 684 794 
z
" transform="scale(0.015625)"/>
       </defs>
       <use xlink:href="#DejaVuSans-30"/>
       <use xlink:href="#DejaVuSans-2e" x="63.623047"/>
       <use xlink:href="#DejaVuSans-30" x="95.410156"/>
       <use xlink:href="#DejaVuSans-30" x="159.033203"/>
       <use xlink:href="#DejaVuSans-30" x="222.65625"/>
      </g>
     </g>
    </g>
    <g id="ytick_2">
     <g id="line2d_9">
      <g>
       <use xlink:href="#m17886f789f" x="90" y="170.243437" style="stroke: #000000; stroke-width: 0.8"/>
      </g>
     </g>
     <g id="text_8">
      <!-- 0.001 -->
      <g transform="translate(54.371875 174.042656) scale(0.1 -0.1)">
       <use xlink:href="#DejaVuSans-30"/>
       <use xlink:href="#DejaVuSans-2e" x="63.623047"/>
       <use xlink:href="#DejaVuSans-30" x="95.410156"/>
       <use xlink:href="#DejaVuSans-30" x="159.033203"/>
       <use xlink:href="#DejaVuSans-31" x="222.65625"/>
      </g>
     </g>
    </g>
    <g id="ytick_3">
     <g id="line2d_10">
      <g>
       <use xlink:href="#m17886f789f" x="90" y="148.246875" style="stroke: #000000; stroke-width: 0.8"/>
      </g>
     </g>
     <g id="text_9">
      <!-- 0.002 -->
      <g transform="translate(54.371875 152.046093) scale(0.1 -0.1)">
       <use xlink:href="#DejaVuSans-30"/>
       <use xlink:href="#DejaVuSans-2e" x="63.623047"/>
       <use xlink:href="#DejaVuSans-30" x="95.410156"/>
       <use xlink:href="#DejaVuSans-30" x="159.033203"/>
       <use xlink:href="#DejaVuSans-32" x="222.65625"/>
      </g>
     </g>
    </g>
    <g id="ytick_4">
     <g id="line2d_11">
      <g>
       <use xlink:href="#m17886f789f" x="90" y="126.250312" style="stroke: #000000; stroke-width: 0.8"/>
      </g>
     </g>
     <g id="text_10">
      <!-- 0.003 -->
      <g transform="translate(54.371875 130.049531) scale(0.1 -0.1)">
       <defs>
        <path id="DejaVuSans-33" d="M 2597 2516 
Q 3050 2419 3304 2112 
Q 3559 1806 3559 1356 
Q 3559 666 3084 287 
Q 2609 -91 1734 -91 
Q 1441 -91 1130 -33 
Q 819 25 488 141 
L 488 750 
Q 750 597 1062 519 
Q 1375 441 1716 441 
Q 2309 441 2620 675 
Q 2931 909 2931 1356 
Q 2931 1769 2642 2001 
Q 2353 2234 1838 2234 
L 1294 2234 
L 1294 2753 
L 1863 2753 
Q 2328 2753 2575 2939 
Q 2822 3125 2822 3475 
Q 2822 3834 2567 4026 
Q 2313 4219 1838 4219 
Q 1578 4219 1281 4162 
Q 984 4106 628 3988 
L 628 4550 
Q 988 4650 1302 4700 
Q 1616 4750 1894 4750 
Q 2613 4750 3031 4423 
Q 3450 4097 3450 3541 
Q 3450 3153 3228 2886 
Q 3006 2619 2597 2516 
z
" transform="scale(0.015625)"/>
       </defs>
       <use xlink:href="#DejaVuSans-30"/>
       <use xlink:href="#DejaVuSans-2e" x="63.623047"/>
       <use xlink:href="#DejaVuSans-30" x="95.410156"/>
       <use xlink:href="#DejaVuSans-30" x="159.033203"/>
       <use xlink:href="#DejaVuSans-33" x="222.65625"/>
      </g>
     </g>
    </g>
    <g id="ytick_5">
     <g id="line2d_12">
      <g>
       <use xlink:href="#m17886f789f" x="90" y="104.253749" style="stroke: #000000; stroke-width: 0.8"/>
      </g>
     </g>
     <g id="text_11">
      <!-- 0.004 -->
      <g transform="translate(54.371875 108.052968) scale(0.1 -0.1)">
       <defs>
        <path id="DejaVuSans-34" d="M 2419 4116 
L 825 1625 
L 2419 1625 
L 2419 4116 
z
M 2253 4666 
L 3047 4666 
L 3047 1625 
L 3713 1625 
L 3713 1100 
L 3047 1100 
L 3047 0 
L 2419 0 
L 2419 1100 
L 313 1100 
L 313 1709 
L 2253 4666 
z
" transform="scale(0.015625)"/>
       </defs>
       <use xlink:href="#DejaVuSans-30"/>
       <use xlink:href="#DejaVuSans-2e" x="63.623047"/>
       <use xlink:href="#DejaVuSans-30" x="95.410156"/>
       <use xlink:href="#DejaVuSans-30" x="159.033203"/>
       <use xlink:href="#DejaVuSans-34" x="222.65625"/>
      </g>
     </g>
    </g>
    <g id="ytick_6">
     <g id="line2d_13">
      <g>
       <use xlink:href="#m17886f789f" x="90" y="82.257186" style="stroke: #000000; stroke-width: 0.8"/>
      </g>
     </g>
     <g id="text_12">
      <!-- 0.005 -->
      <g transform="translate(54.371875 86.056405) scale(0.1 -0.1)">
       <use xlink:href="#DejaVuSans-30"/>
       <use xlink:href="#DejaVuSans-2e" x="63.623047"/>
       <use xlink:href="#DejaVuSans-30" x="95.410156"/>
       <use xlink:href="#DejaVuSans-30" x="159.033203"/>
       <use xlink:href="#DejaVuSans-35" x="222.65625"/>
      </g>
     </g>
    </g>
    <g id="ytick_7">
     <g id="line2d_14">
      <g>
       <use xlink:href="#m17886f789f" x="90" y="60.260624" style="stroke: #000000; stroke-width: 0.8"/>
      </g>
     </g>
     <g id="text_13">
      <!-- 0.006 -->
      <g transform="translate(54.371875 64.059842) scale(0.1 -0.1)">
       <defs>
        <path id="DejaVuSans-36" d="M 2113 2584 
Q 1688 2584 1439 2293 
Q 1191 2003 1191 1497 
Q 1191 994 1439 701 
Q 1688 409 2113 409 
Q 2538 409 2786 701 
Q 3034 994 3034 1497 
Q 3034 2003 2786 2293 
Q 2538 2584 2113 2584 
z
M 3366 4563 
L 3366 3988 
Q 3128 4100 2886 4159 
Q 2644 4219 2406 4219 
Q 1781 4219 1451 3797 
Q 1122 3375 1075 2522 
Q 1259 2794 1537 2939 
Q 1816 3084 2150 3084 
Q 2853 3084 3261 2657 
Q 3669 2231 3669 1497 
Q 3669 778 3244 343 
Q 2819 -91 2113 -91 
Q 1303 -91 875 529 
Q 447 1150 447 2328 
Q 447 3434 972 4092 
Q 1497 4750 2381 4750 
Q 2619 4750 2861 4703 
Q 3103 4656 3366 4563 
z
" transform="scale(0.015625)"/>
       </defs>
       <use xlink:href="#DejaVuSans-30"/>
       <use xlink:href="#DejaVuSans-2e" x="63.623047"/>
       <use xlink:href="#DejaVuSans-30" x="95.410156"/>
       <use xlink:href="#DejaVuSans-30" x="159.033203"/>
       <use xlink:href="#DejaVuSans-36" x="222.65625"/>
      </g>
     </g>
    </g>
    <g id="ytick_8">
     <g id="line2d_15">
      <g>
       <use xlink:href="#m17886f789f" x="90" y="38.264061" style="stroke: #000000; stroke-width: 0.8"/>
      </g>
     </g>
     <g id="text_14">
      <!-- 0.007 -->
      <g transform="translate(54.371875 42.06328) scale(0.1 -0.1)">
       <defs>
        <path id="DejaVuSans-37" d="M 525 4666 
L 3525 4666 
L 3525 4397 
L 1831 0 
L 1172 0 
L 2766 4134 
L 525 4134 
L 525 4666 
z
" transform="scale(0.015625)"/>
       </defs>
       <use xlink:href="#DejaVuSans-30"/>
       <use xlink:href="#DejaVuSans-2e" x="63.623047"/>
       <use xlink:href="#DejaVuSans-30" x="95.410156"/>
       <use xlink:href="#DejaVuSans-30" x="159.033203"/>
       <use xlink:href="#DejaVuSans-37" x="222.65625"/>
      </g>
     </g>
    </g>
   </g>
  </g>
 </g>
 <defs>
  <clipPath id="p55ec97598b">
   <rect x="90" y="25.92" width="558" height="166.32"/>
  </clipPath>
 </defs>
</svg>
