<?xml version="1.0" encoding="utf-8" standalone="no"?>
<!DOCTYPE svg PUBLIC "-//W3C//DTD SVG 1.1//EN"
  "http://www.w3.org/Graphics/SVG/1.1/DTD/svg11.dtd">
<svg xmlns:xlink="http://www.w3.org/1999/xlink" width="720pt" height="216pt" viewBox="0 0 720 216" xmlns="http://www.w3.org/2000/svg" version="1.1">
 <metadata>
  <rdf:RDF xmlns:dc="http://purl.org/dc/elements/1.1/" xmlns:cc="http://creativecommons.org/ns#" xmlns:rdf="http://www.w3.org/1999/02/22-rdf-syntax-ns#">
   <cc:Work>
    <dc:type rdf:resource="http://purl.org/dc/dcmitype/StillImage"/>
    <dc:date>2024-11-23T04:42:47.222212</dc:date>
    <dc:format>image/svg+xml</dc:format>
    <dc:creator>
     <cc:Agent>
      <dc:title>Matplotlib v3.7.2, https://matplotlib.org/</dc:title>
     </cc:Agent>
    </dc:creator>
   </cc:Work>
  </rdf:RDF>
 </metadata>
 <defs>
  <style type="text/css">*{stroke-linejoin: round; stroke-linecap: butt}</style>
 </defs>
 <g id="figure_1">
  <g id="patch_1">
   <path d="M 0 216 
L 720 216 
L 720 0 
L 0 0 
z
" style="fill: #ffffff"/>
  </g>
  <g id="axes_1">
   <g id="patch_2">
    <path d="M 90 192.24 
L 648 192.24 
L 648 25.92 
L 90 25.92 
z
" style="fill: #ffffff"/>
   </g>
   <g id="line2d_1">
    <path d="M 90 191.300588 
L 648 191.300588 
" clip-path="url(#p526e96a08e)" style="fill: none; stroke: #000000; stroke-width: 0.5; stroke-linecap: square"/>
   </g>
   <g id="patch_3">
    <path d="M 107.699499 190.677588 
Q 105.914476 190.989088 103.994584 191.145549 
Q 102.074692 191.300588 100.027865 191.300588 
Q 95.402671 191.300588 92.701335 190.3732 
Q 90 189.445813 90 187.859866 
Q 90 186.255429 92.748936 185.335154 
Q 95.501839 184.414878 100.289668 184.414878 
Q 102.134193 184.414878 103.824015 184.540047 
Q 105.517804 184.663793 107.017224 184.908442 
L 107.017224 186.281032 
Q 105.470203 185.966687 103.93905 185.811649 
Q 102.407896 185.655188 100.868809 185.655188 
Q 98.020705 185.655188 96.477652 186.226982 
Q 94.934598 186.797354 94.934598 187.859866 
Q 94.934598 188.912423 96.422118 189.487062 
Q 97.909637 190.060278 100.646673 190.060278 
Q 101.392416 190.060278 102.031058 190.027564 
Q 102.6697 189.993427 103.17744 189.922308 
L 103.17744 188.633638 
L 100.261901 188.633638 
L 100.261901 187.485782 
L 107.699499 187.485782 
L 107.699499 190.677588 
z
" clip-path="url(#p526e96a08e)" style="fill: #ffa600"/>
   </g>
   <g id="patch_4">
    <path d="M 102.260459 176.51397 
L 95.453516 176.51397 
L 94.378735 184.414878 
L 90 184.414878 
L 96.253268 141.043541 
L 101.446231 141.043541 
L 107.699499 184.414878 
L 103.324383 184.414878 
L 102.260459 176.51397 
z
M 96.539153 168.464339 
L 101.163965 168.464339 
L 98.855178 151.212474 
L 96.539153 168.464339 
z
" clip-path="url(#p526e96a08e)" style="fill: #008000"/>
   </g>
   <g id="patch_5">
    <path d="M 126.330551 191.099534 
Q 124.850018 191.199192 123.249081 191.2496 
Q 121.648144 191.300588 119.904504 191.300588 
Q 114.704803 191.300588 111.667927 190.922815 
Q 108.631052 190.545042 108.631052 189.899004 
Q 108.631052 189.250648 111.667927 188.873455 
Q 114.704803 188.495682 119.904504 188.495682 
Q 121.648144 188.495682 123.249081 188.54667 
Q 124.850018 188.597078 126.330551 188.696736 
L 126.330551 189.255863 
Q 124.83664 189.123758 123.387324 189.062341 
Q 121.938007 189.000924 120.33707 189.000924 
Q 117.465193 189.000924 115.819662 189.240219 
Q 114.178589 189.478935 114.178589 189.899004 
Q 114.178589 190.317335 115.819662 190.55663 
Q 117.465193 190.795346 120.33707 190.795346 
Q 121.938007 190.795346 123.387324 190.733929 
Q 124.83664 190.671932 126.330551 190.539827 
L 126.330551 191.099534 
z
" clip-path="url(#p526e96a08e)" style="fill: #0000ff"/>
   </g>
   <g id="patch_6">
    <path d="M 120.89151 174.802809 
L 114.084567 174.802809 
L 113.009787 188.495682 
L 108.631052 188.495682 
L 114.88432 113.329863 
L 120.077283 113.329863 
L 126.330551 188.495682 
L 121.955434 188.495682 
L 120.89151 174.802809 
z
M 115.170204 160.852187 
L 119.795017 160.852187 
L 117.48623 130.953396 
L 115.170204 160.852187 
z
" clip-path="url(#p526e96a08e)" style="fill: #008000"/>
   </g>
   <g id="patch_7">
    <path d="M 144.961603 181.985912 
Q 143.176579 186.64325 141.256687 188.982552 
Q 139.336795 191.300588 137.289969 191.300588 
Q 132.664774 191.300588 129.963439 177.434906 
Q 127.262104 163.569225 127.262104 139.857208 
Q 127.262104 115.868729 130.01104 102.109379 
Q 132.763942 88.350029 137.551772 88.350029 
Q 139.396296 88.350029 141.086118 90.221471 
Q 142.779907 92.071646 144.279327 95.729464 
L 144.279327 116.251523 
Q 142.732307 111.551653 141.201153 109.233617 
Q 139.67 106.894315 138.130913 106.894315 
Q 135.282809 106.894315 133.739755 115.443401 
Q 132.196702 123.97122 132.196702 139.857208 
Q 132.196702 155.594331 133.684221 164.18595 
Q 135.171741 172.756302 137.908777 172.756302 
Q 138.65452 172.756302 139.293162 172.267175 
Q 139.931803 171.756782 140.439543 170.693463 
L 140.439543 151.42612 
L 137.524005 151.42612 
L 137.524005 134.26415 
L 144.961603 134.26415 
L 144.961603 181.985912 
z
" clip-path="url(#p526e96a08e)" style="fill: #ffa600"/>
   </g>
   <g id="patch_8">
    <path d="M 163.592654 179.907046 
Q 161.807631 185.603817 159.887739 188.465209 
Q 157.967847 191.300588 155.92102 191.300588 
Q 151.295826 191.300588 148.594491 174.340338 
Q 145.893155 157.380089 145.893155 128.375982 
Q 145.893155 99.03371 148.642091 82.203524 
Q 151.394994 65.373338 156.182824 65.373338 
Q 158.027348 65.373338 159.71717 67.662451 
Q 161.410959 69.925552 162.910379 74.399728 
L 162.910379 99.501938 
Q 161.363358 93.753141 159.832205 90.917762 
Q 158.301052 88.056371 156.761965 88.056371 
Q 153.913861 88.056371 152.370807 98.513457 
Q 150.827753 108.94453 150.827753 128.375982 
Q 150.827753 147.625344 152.315273 158.134456 
Q 153.802792 168.617555 156.539828 168.617555 
Q 157.285572 168.617555 157.924213 168.019264 
Q 158.562855 167.39496 159.070595 166.094328 
L 159.070595 142.526865 
L 156.155057 142.526865 
L 156.155057 121.534654 
L 163.592654 121.534654 
L 163.592654 179.907046 
z
" clip-path="url(#p526e96a08e)" style="fill: #ffa600"/>
   </g>
   <g id="patch_9">
    <path d="M 182.223706 188.875887 
Q 180.438683 190.088237 178.518791 190.69718 
Q 176.598899 191.300588 174.552072 191.300588 
Q 169.926878 191.300588 167.225542 187.691215 
Q 164.524207 184.081843 164.524207 177.909372 
Q 164.524207 171.664936 167.273143 168.083243 
Q 170.026046 164.50155 174.813876 164.50155 
Q 176.6584 164.50155 178.348222 164.988704 
Q 180.042011 165.470323 181.541431 166.422489 
L 181.541431 171.764582 
Q 179.99441 170.541159 178.463257 169.937752 
Q 176.932103 169.328809 175.393016 169.328809 
Q 172.544912 169.328809 171.001859 171.554219 
Q 169.458805 173.774094 169.458805 177.909372 
Q 169.458805 182.0059 170.946325 184.242382 
Q 172.433844 186.473329 175.17088 186.473329 
Q 175.916623 186.473329 176.555265 186.346004 
Q 177.193907 186.213144 177.701647 185.936352 
L 177.701647 180.920874 
L 174.786108 180.920874 
L 174.786108 176.453445 
L 182.223706 176.453445 
L 182.223706 188.875887 
z
" clip-path="url(#p526e96a08e)" style="fill: #ffa600"/>
   </g>
   <g id="patch_10">
    <path d="M 200.854758 186.779289 
Q 199.069734 189.039938 197.149843 190.175424 
Q 195.229951 191.300588 193.183124 191.300588 
Q 188.55793 191.300588 185.856594 184.570252 
Q 183.155259 177.839916 183.155259 166.330216 
Q 183.155259 154.686322 185.904195 148.007599 
Q 188.657098 141.328876 193.444927 141.328876 
Q 195.289451 141.328876 196.979274 142.237265 
Q 198.673063 143.135332 200.172482 144.910819 
L 200.172482 154.872129 
Q 198.625462 152.590834 197.094309 151.465671 
Q 195.563155 150.330185 194.024068 150.330185 
Q 191.175964 150.330185 189.632911 154.47987 
Q 188.089857 158.619233 188.089857 166.330216 
Q 188.089857 173.968941 189.577376 178.139272 
Q 191.064896 182.29928 193.801932 182.29928 
Q 194.547675 182.29928 195.186317 182.06186 
Q 195.824959 181.814118 196.332699 181.297987 
L 196.332699 171.945711 
L 193.41716 171.945711 
L 193.41716 163.615372 
L 200.854758 163.615372 
L 200.854758 186.779289 
z
" clip-path="url(#p526e96a08e)" style="fill: #ffa600"/>
   </g>
   <g id="patch_11">
    <path d="M 214.046769 191.175206 
L 207.239826 191.175206 
L 206.165046 191.300588 
L 201.786311 191.300588 
L 208.039579 190.612317 
L 213.232542 190.612317 
L 219.48581 191.300588 
L 215.110693 191.300588 
L 214.046769 191.175206 
z
M 208.325463 191.047465 
L 212.950276 191.047465 
L 210.641488 190.77369 
L 208.325463 191.047465 
z
" clip-path="url(#p526e96a08e)" style="fill: #008000"/>
   </g>
   <g id="patch_12">
    <path d="M 201.786311 185.899617 
L 219.48581 185.899617 
L 219.48581 186.818725 
L 213.118106 186.818725 
L 213.118106 190.612317 
L 208.166363 190.612317 
L 208.166363 186.818725 
L 201.786311 186.818725 
L 201.786311 185.899617 
z
" clip-path="url(#p526e96a08e)" style="fill: #ff0000"/>
   </g>
   <g id="patch_13">
    <path d="M 219.48581 185.15049 
Q 217.700786 185.525054 215.780894 185.713191 
Q 213.861002 185.899617 211.814176 185.899617 
Q 207.188981 185.899617 204.487646 184.784478 
Q 201.786311 183.669339 201.786311 181.762315 
Q 201.786311 179.833056 204.535247 178.726469 
Q 207.288149 177.619882 212.075979 177.619882 
Q 213.920503 177.619882 215.610325 177.770391 
Q 217.304114 177.919191 218.803534 178.213368 
L 218.803534 179.863842 
Q 217.256514 179.485858 215.72536 179.299432 
Q 214.194207 179.111295 212.65512 179.111295 
Q 209.807016 179.111295 208.263962 179.79885 
Q 206.720909 180.484694 206.720909 181.762315 
Q 206.720909 183.027964 208.208428 183.718939 
Q 209.695948 184.408205 212.432984 184.408205 
Q 213.178727 184.408205 213.817369 184.368867 
Q 214.45601 184.327819 214.96375 184.242302 
L 214.96375 182.692738 
L 212.048212 182.692738 
L 212.048212 181.312497 
L 219.48581 181.312497 
L 219.48581 185.15049 
z
" clip-path="url(#p526e96a08e)" style="fill: #ffa600"/>
   </g>
   <g id="patch_14">
    <path d="M 238.116861 190.965676 
Q 236.636329 191.131684 235.035392 191.215653 
Q 233.434454 191.300588 231.690815 191.300588 
Q 226.491113 191.300588 223.454238 190.671301 
Q 220.417362 190.042015 220.417362 188.965857 
Q 220.417362 187.885839 223.454238 187.257518 
Q 226.491113 186.628231 231.690815 186.628231 
Q 233.434454 186.628231 235.035392 186.713166 
Q 236.636329 186.797135 238.116861 186.963143 
L 238.116861 187.894526 
Q 236.622951 187.674469 235.173634 187.572161 
Q 233.724318 187.469854 232.12338 187.469854 
Q 229.251504 187.469854 227.605972 187.868467 
Q 225.9649 188.266114 225.9649 188.965857 
Q 225.9649 189.662705 227.605972 190.061318 
Q 229.251504 190.458965 232.12338 190.458965 
Q 233.724318 190.458965 235.173634 190.356658 
Q 236.622951 190.253385 238.116861 190.033328 
L 238.116861 190.965676 
z
" clip-path="url(#p526e96a08e)" style="fill: #0000ff"/>
   </g>
   <g id="patch_15">
    <path d="M 220.417362 145.622698 
L 238.116861 145.622698 
L 238.116861 153.619919 
L 231.749158 153.619919 
L 231.749158 186.628231 
L 226.797414 186.628231 
L 226.797414 153.619919 
L 220.417362 153.619919 
L 220.417362 145.622698 
z
" clip-path="url(#p526e96a08e)" style="fill: #ff0000"/>
   </g>
   <g id="patch_16">
    <path d="M 256.747913 180.777849 
Q 254.96289 186.039219 253.042998 188.681915 
Q 251.123106 191.300588 249.076279 191.300588 
Q 244.451085 191.300588 241.74975 175.636603 
Q 239.048414 159.972618 239.048414 133.185281 
Q 239.048414 106.085626 241.79735 90.541763 
Q 244.550253 74.997901 249.338083 74.997901 
Q 251.182607 74.997901 252.872429 77.112058 
Q 254.566218 79.202191 256.065638 83.334408 
L 256.065638 106.518067 
Q 254.518617 101.208649 252.987464 98.589977 
Q 251.45631 95.94728 249.917223 95.94728 
Q 247.069119 95.94728 245.526066 105.605136 
Q 243.983012 115.238967 243.983012 133.185281 
Q 243.983012 150.963424 245.470532 160.669329 
Q 246.958051 170.351209 249.695087 170.351209 
Q 250.44083 170.351209 251.079472 169.798645 
Q 251.718114 169.222057 252.225854 168.020831 
L 252.225854 146.254618 
L 249.310315 146.254618 
L 249.310315 126.866833 
L 256.747913 126.866833 
L 256.747913 180.777849 
z
" clip-path="url(#p526e96a08e)" style="fill: #ffa600"/>
   </g>
   <g id="patch_17">
    <path d="M 275.378965 180.696089 
Q 273.593941 185.998338 271.67405 188.661569 
Q 269.754158 191.300588 267.707331 191.300588 
Q 263.082137 191.300588 260.380801 175.514896 
Q 257.679466 159.729203 257.679466 132.733733 
Q 257.679466 105.423517 260.428402 89.75888 
Q 263.181305 74.094244 267.969134 74.094244 
Q 269.813659 74.094244 271.503481 76.224828 
Q 273.19727 78.331201 274.696689 82.495525 
L 274.696689 105.859318 
Q 273.149669 100.508646 271.618516 97.869627 
Q 270.087362 95.206397 268.548275 95.206397 
Q 265.700171 95.206397 264.157118 104.939293 
Q 262.614064 114.647978 262.614064 132.733733 
Q 262.614064 150.650009 264.101583 160.431328 
Q 265.589103 170.188435 268.326139 170.188435 
Q 269.071882 170.188435 269.710524 169.631578 
Q 270.349166 169.050509 270.856906 167.83995 
L 270.856906 145.904617 
L 267.941367 145.904617 
L 267.941367 126.366191 
L 275.378965 126.366191 
L 275.378965 180.696089 
z
" clip-path="url(#p526e96a08e)" style="fill: #ffa600"/>
   </g>
   <g id="patch_18">
    <path d="M 276.310518 187.004513 
L 294.010017 187.004513 
L 294.010017 187.842368 
L 287.642313 187.842368 
L 287.642313 191.300588 
L 282.69057 191.300588 
L 282.69057 187.842368 
L 276.310518 187.842368 
L 276.310518 187.004513 
z
" clip-path="url(#p526e96a08e)" style="fill: #ff0000"/>
   </g>
   <g id="patch_19">
    <path d="M 288.570976 169.674677 
L 281.764033 169.674677 
L 280.689253 187.004513 
L 276.310518 187.004513 
L 282.563786 91.873908 
L 287.756749 91.873908 
L 294.010017 187.004513 
L 289.6349 187.004513 
L 288.570976 169.674677 
z
M 282.84967 152.018633 
L 287.474483 152.018633 
L 285.165695 114.178426 
L 282.84967 152.018633 
z
" clip-path="url(#p526e96a08e)" style="fill: #008000"/>
   </g>
   <g id="patch_20">
    <path d="M 294.941569 183.646404 
L 312.641068 183.646404 
L 312.641068 185.139183 
L 306.273365 185.139183 
L 306.273365 191.300588 
L 301.321621 191.300588 
L 301.321621 185.139183 
L 294.941569 185.139183 
L 294.941569 183.646404 
z
" clip-path="url(#p526e96a08e)" style="fill: #ff0000"/>
   </g>
   <g id="patch_21">
    <path d="M 307.202028 165.840286 
L 300.395085 165.840286 
L 299.320305 183.646404 
L 294.941569 183.646404 
L 301.194837 85.901289 
L 306.3878 85.901289 
L 312.641068 183.646404 
L 308.265952 183.646404 
L 307.202028 165.840286 
z
M 301.480722 147.698994 
L 306.105535 147.698994 
L 303.796747 108.818811 
L 301.480722 147.698994 
z
" clip-path="url(#p526e96a08e)" style="fill: #008000"/>
   </g>
   <g id="patch_22">
    <path d="M 331.27212 191.297749 
Q 329.791588 191.299156 328.19065 191.299868 
Q 326.589713 191.300588 324.846074 191.300588 
Q 319.646372 191.300588 316.609497 191.295255 
Q 313.572621 191.289921 313.572621 191.280801 
Q 313.572621 191.271648 316.609497 191.266323 
Q 319.646372 191.26099 324.846074 191.26099 
Q 326.589713 191.26099 328.19065 191.261709 
Q 329.791588 191.262421 331.27212 191.263828 
L 331.27212 191.271721 
Q 329.778209 191.269856 328.328893 191.268989 
Q 326.879576 191.268122 325.278639 191.268122 
Q 322.406763 191.268122 320.761231 191.271501 
Q 319.120159 191.274871 319.120159 191.280801 
Q 319.120159 191.286707 320.761231 191.290085 
Q 322.406763 191.293455 325.278639 191.293455 
Q 326.879576 191.293455 328.328893 191.292588 
Q 329.778209 191.291713 331.27212 191.289848 
L 331.27212 191.297749 
z
" clip-path="url(#p526e96a08e)" style="fill: #0000ff"/>
   </g>
   <g id="patch_23">
    <path d="M 325.83308 190.72289 
L 319.026137 190.72289 
L 317.951356 191.26099 
L 313.572621 191.26099 
L 319.825889 188.307138 
L 325.018852 188.307138 
L 331.27212 191.26099 
L 326.897004 191.26099 
L 325.83308 190.72289 
z
M 320.111774 190.174661 
L 324.736586 190.174661 
L 322.427799 188.999704 
L 320.111774 190.174661 
z
" clip-path="url(#p526e96a08e)" style="fill: #008000"/>
   </g>
   <g id="patch_24">
    <path d="M 313.572621 144.460052 
L 331.27212 144.460052 
L 331.27212 153.011455 
L 324.904417 153.011455 
L 324.904417 188.307138 
L 319.952673 188.307138 
L 319.952673 153.011455 
L 313.572621 153.011455 
L 313.572621 144.460052 
z
" clip-path="url(#p526e96a08e)" style="fill: #ff0000"/>
   </g>
   <g id="patch_25">
    <path d="M 349.903172 186.732788 
Q 348.118149 189.016688 346.198257 190.163852 
Q 344.278365 191.300588 342.231538 191.300588 
Q 337.606344 191.300588 334.905008 184.501033 
Q 332.203673 177.701477 332.203673 166.073404 
Q 332.203673 154.309756 334.952609 147.562344 
Q 337.705512 140.814933 342.493341 140.814933 
Q 344.337866 140.814933 346.027688 141.732664 
Q 347.721477 142.639967 349.220896 144.433715 
L 349.220896 154.497474 
Q 347.673876 152.192716 346.142723 151.055981 
Q 344.611569 149.908817 343.072482 149.908817 
Q 340.224378 149.908817 338.681325 154.10118 
Q 337.138271 158.283116 337.138271 166.073404 
Q 337.138271 173.79069 338.62579 178.003912 
Q 340.11331 182.206704 342.850346 182.206704 
Q 343.596089 182.206704 344.234731 181.966843 
Q 344.873373 181.716552 345.381113 181.195114 
L 345.381113 171.746652 
L 342.465574 171.746652 
L 342.465574 163.330638 
L 349.903172 163.330638 
L 349.903172 186.732788 
z
" clip-path="url(#p526e96a08e)" style="fill: #ffa600"/>
   </g>
   <g id="patch_26">
    <path d="M 368.534224 189.479237 
Q 367.053691 190.382039 365.452754 190.838689 
Q 363.851817 191.300588 362.108177 191.300588 
Q 356.908476 191.300588 353.8716 187.878338 
Q 350.834725 184.456089 350.834725 178.603623 
Q 350.834725 172.730161 353.8716 169.31316 
Q 356.908476 165.890911 362.108177 165.890911 
Q 363.851817 165.890911 365.452754 166.35281 
Q 367.053691 166.80946 368.534224 167.712262 
L 368.534224 172.777401 
Q 367.040313 171.580663 365.590996 171.024285 
Q 364.14168 170.467907 362.540743 170.467907 
Q 359.668866 170.467907 358.023334 172.635682 
Q 356.382262 174.798207 356.382262 178.603623 
Q 356.382262 182.393292 358.023334 184.561066 
Q 359.668866 186.723592 362.540743 186.723592 
Q 364.14168 186.723592 365.590996 186.167214 
Q 367.040313 185.605587 368.534224 184.408849 
L 368.534224 189.479237 
z
" clip-path="url(#p526e96a08e)" style="fill: #0000ff"/>
   </g>
   <g id="patch_27">
    <path d="M 387.165275 179.999023 
Q 385.380252 185.649805 383.46036 188.488098 
Q 381.540468 191.300588 379.493641 191.300588 
Q 374.868447 191.300588 372.167112 174.477254 
Q 369.465776 157.65392 369.465776 128.883955 
Q 369.465776 99.778555 372.214712 83.084234 
Q 374.967615 66.389913 379.755445 66.389913 
Q 381.599969 66.389913 383.289791 68.660548 
Q 384.98358 70.905379 386.483 75.343436 
L 386.483 100.243003 
Q 384.93598 94.540615 383.404826 91.728125 
Q 381.873673 88.889833 380.334586 88.889833 
Q 377.486482 88.889833 375.943428 99.262502 
Q 374.400374 109.609368 374.400374 128.883955 
Q 374.400374 147.977923 375.887894 158.402197 
Q 377.375414 168.800669 380.112449 168.800669 
Q 380.858193 168.800669 381.496834 168.207208 
Q 382.135476 167.587944 382.643216 166.297811 
L 382.643216 142.920601 
L 379.727678 142.920601 
L 379.727678 122.097855 
L 387.165275 122.097855 
L 387.165275 179.999023 
z
" clip-path="url(#p526e96a08e)" style="fill: #ffa600"/>
   </g>
   <g id="patch_28">
    <path d="M 405.796327 191.099336 
Q 404.315795 191.199092 402.714857 191.24955 
Q 401.11392 191.300588 399.370281 191.300588 
Q 394.170579 191.300588 391.133704 190.922442 
Q 388.096828 190.544297 388.096828 189.897622 
Q 388.096828 189.248626 391.133704 188.871061 
Q 394.170579 188.492915 399.370281 188.492915 
Q 401.11392 188.492915 402.714857 188.543953 
Q 404.315795 188.594412 405.796327 188.694168 
L 405.796327 189.253846 
Q 404.302416 189.121611 402.8531 189.060134 
Q 401.403783 188.998656 399.802846 188.998656 
Q 396.93097 188.998656 395.285438 189.238187 
Q 393.644366 189.477138 393.644366 189.897622 
Q 393.644366 190.316366 395.285438 190.555896 
Q 396.93097 190.794847 399.802846 190.794847 
Q 401.403783 190.794847 402.8531 190.73337 
Q 404.302416 190.671312 405.796327 190.539077 
L 405.796327 191.099336 
z
" clip-path="url(#p526e96a08e)" style="fill: #0000ff"/>
   </g>
   <g id="patch_29">
    <path d="M 405.796327 173.783777 
Q 404.011304 181.138346 402.091412 184.832422 
Q 400.17152 188.492915 398.124693 188.492915 
Q 393.499499 188.492915 390.798164 166.597121 
Q 388.096828 144.701327 388.096828 107.256831 
Q 388.096828 69.375764 390.845764 47.647882 
Q 393.598667 25.92 398.386497 25.92 
Q 400.231021 25.92 401.920843 28.875261 
Q 403.614632 31.796939 405.114052 37.57313 
L 405.114052 69.980249 
Q 403.567031 62.558515 402.035878 58.898022 
Q 400.504724 55.203946 398.965637 55.203946 
Q 396.117533 55.203946 394.57448 68.704114 
Q 393.031426 82.170699 393.031426 107.256831 
Q 393.031426 132.107886 394.518946 145.675219 
Q 396.006465 159.208969 398.743501 159.208969 
Q 399.489244 159.208969 400.127886 158.436572 
Q 400.766528 157.630592 401.274268 155.951466 
L 401.274268 125.525715 
L 398.35873 125.525715 
L 398.35873 98.424632 
L 405.796327 98.424632 
L 405.796327 173.783777 
z
" clip-path="url(#p526e96a08e)" style="fill: #ffa600"/>
   </g>
   <g id="patch_30">
    <path d="M 418.988338 190.639935 
L 412.181395 190.639935 
L 411.106615 191.300588 
L 406.72788 191.300588 
L 412.981148 187.673992 
L 418.174111 187.673992 
L 424.427379 191.300588 
L 420.052263 191.300588 
L 418.988338 190.639935 
z
M 413.267032 189.966846 
L 417.891845 189.966846 
L 415.583058 188.524291 
L 413.267032 189.966846 
z
" clip-path="url(#p526e96a08e)" style="fill: #008000"/>
   </g>
   <g id="patch_31">
    <path d="M 424.427379 176.583109 
Q 422.642356 182.128551 420.722464 184.913932 
Q 418.802572 187.673992 416.755745 187.673992 
Q 412.130551 187.673992 409.429215 171.164276 
Q 406.72788 154.654561 406.72788 126.420922 
Q 406.72788 97.858101 409.476816 81.474994 
Q 412.229719 65.091886 417.017548 65.091886 
Q 418.862073 65.091886 420.551895 67.320191 
Q 422.245684 69.523175 423.745103 73.878499 
L 423.745103 98.313891 
Q 422.198083 92.717806 420.66693 89.957746 
Q 419.135776 87.172365 417.596689 87.172365 
Q 414.748585 87.172365 413.205532 97.351668 
Q 411.662478 107.505649 411.662478 126.420922 
Q 411.662478 145.158942 413.149997 155.388889 
Q 414.637517 165.593513 417.374553 165.593513 
Q 418.120296 165.593513 418.758938 165.011116 
Q 419.39758 164.403396 419.90532 163.137313 
L 419.90532 140.195899 
L 416.989781 140.195899 
L 416.989781 119.761328 
L 424.427379 119.761328 
L 424.427379 176.583109 
z
" clip-path="url(#p526e96a08e)" style="fill: #ffa600"/>
   </g>
   <g id="patch_32">
    <path d="M 443.058431 191.27115 
Q 441.577898 191.285742 439.976961 191.293122 
Q 438.376024 191.300588 436.632384 191.300588 
Q 431.432683 191.300588 428.395807 191.245276 
Q 425.358932 191.189964 425.358932 191.095374 
Q 425.358932 191.000444 428.395807 190.945217 
Q 431.432683 190.889905 436.632384 190.889905 
Q 438.376024 190.889905 439.976961 190.89737 
Q 441.577898 190.904751 443.058431 190.919342 
L 443.058431 191.001207 
Q 441.56452 190.981865 440.115203 190.972873 
Q 438.665887 190.96388 437.06495 190.96388 
Q 434.193073 190.96388 432.547541 190.998917 
Q 430.906469 191.033869 430.906469 191.095374 
Q 430.906469 191.156624 432.547541 191.191661 
Q 434.193073 191.226612 437.06495 191.226612 
Q 438.665887 191.226612 440.115203 191.21762 
Q 441.56452 191.208543 443.058431 191.1892 
L 443.058431 191.27115 
z
" clip-path="url(#p526e96a08e)" style="fill: #0000ff"/>
   </g>
   <g id="patch_33">
    <path d="M 437.61939 190.797781 
L 430.812447 190.797781 
L 429.737667 190.889905 
L 425.358932 190.889905 
L 431.6122 190.384199 
L 436.805163 190.384199 
L 443.058431 190.889905 
L 438.683314 190.889905 
L 437.61939 190.797781 
z
M 431.898084 190.703923 
L 436.522897 190.703923 
L 434.214109 190.502768 
L 431.898084 190.703923 
z
" clip-path="url(#p526e96a08e)" style="fill: #008000"/>
   </g>
   <g id="patch_34">
    <path d="M 425.358932 185.082725 
L 443.058431 185.082725 
L 443.058431 186.11666 
L 436.690727 186.11666 
L 436.690727 190.384199 
L 431.738984 190.384199 
L 431.738984 186.11666 
L 425.358932 186.11666 
L 425.358932 185.082725 
z
" clip-path="url(#p526e96a08e)" style="fill: #ff0000"/>
   </g>
   <g id="patch_35">
    <path d="M 461.689482 190.995197 
Q 460.20895 191.146572 458.608013 191.22314 
Q 457.007075 191.300588 455.263436 191.300588 
Q 450.063734 191.300588 447.026859 190.72677 
Q 443.989983 190.152953 443.989983 189.171655 
Q 443.989983 188.186837 447.026859 187.613899 
Q 450.063734 187.040082 455.263436 187.040082 
Q 457.007075 187.040082 458.608013 187.11753 
Q 460.20895 187.194097 461.689482 187.345473 
L 461.689482 188.194757 
Q 460.195572 187.994097 458.746255 187.900808 
Q 457.296939 187.807519 455.696001 187.807519 
Q 452.824125 187.807519 451.178593 188.170995 
Q 449.537521 188.533591 449.537521 189.171655 
Q 449.537521 189.807079 451.178593 190.170555 
Q 452.824125 190.533151 455.696001 190.533151 
Q 457.296939 190.533151 458.746255 190.439862 
Q 460.195572 190.345692 461.689482 190.145032 
L 461.689482 190.995197 
z
" clip-path="url(#p526e96a08e)" style="fill: #0000ff"/>
   </g>
   <g id="patch_36">
    <path d="M 461.689482 185.302553 
Q 459.904459 186.171317 457.984567 186.607683 
Q 456.064675 187.040082 454.017848 187.040082 
Q 449.392654 187.040082 446.691319 184.453623 
Q 443.989983 181.867163 443.989983 177.444001 
Q 443.989983 172.969268 446.738919 170.402643 
Q 449.491822 167.836019 454.279652 167.836019 
Q 456.124176 167.836019 457.813998 168.185111 
Q 459.507787 168.530237 461.007207 169.212554 
L 461.007207 173.040673 
Q 459.460187 172.163974 457.929033 171.731575 
Q 456.39788 171.29521 454.858793 171.29521 
Q 452.010689 171.29521 450.467635 172.889928 
Q 448.924581 174.48068 448.924581 177.444001 
Q 448.924581 180.379553 450.412101 181.982205 
Q 451.899621 183.580891 454.636656 183.580891 
Q 455.3824 183.580891 456.021041 183.489651 
Q 456.659683 183.394444 457.167423 183.196096 
L 457.167423 179.602028 
L 454.251885 179.602028 
L 454.251885 176.40069 
L 461.689482 176.40069 
L 461.689482 185.302553 
z
" clip-path="url(#p526e96a08e)" style="fill: #ffa600"/>
   </g>
   <g id="patch_37">
    <path d="M 443.989983 111.330759 
L 461.689482 111.330759 
L 461.689482 122.350859 
L 455.321779 122.350859 
L 455.321779 167.836019 
L 450.370035 167.836019 
L 450.370035 122.350859 
L 443.989983 122.350859 
L 443.989983 111.330759 
z
" clip-path="url(#p526e96a08e)" style="fill: #ff0000"/>
   </g>
   <g id="patch_38">
    <path d="M 474.881494 190.496342 
L 468.074551 190.496342 
L 466.99977 191.300588 
L 462.621035 191.300588 
L 468.874303 186.885752 
L 474.067266 186.885752 
L 480.320534 191.300588 
L 475.945418 191.300588 
L 474.881494 190.496342 
z
M 469.160188 189.676958 
L 473.785 189.676958 
L 471.476213 187.920864 
L 469.160188 189.676958 
z
" clip-path="url(#p526e96a08e)" style="fill: #008000"/>
   </g>
   <g id="patch_39">
    <path d="M 462.621035 178.329748 
L 480.320534 178.329748 
L 480.320534 179.998407 
L 473.952831 179.998407 
L 473.952831 186.885752 
L 469.001087 186.885752 
L 469.001087 179.998407 
L 462.621035 179.998407 
L 462.621035 178.329748 
z
" clip-path="url(#p526e96a08e)" style="fill: #ff0000"/>
   </g>
   <g id="patch_40">
    <path d="M 480.320534 174.41236 
Q 478.840002 176.35412 477.239064 177.336289 
Q 475.638127 178.329748 473.894488 178.329748 
Q 468.694786 178.329748 465.657911 170.969123 
Q 462.621035 163.608498 462.621035 151.020926 
Q 462.621035 138.388197 465.657911 131.038861 
Q 468.694786 123.678236 473.894488 123.678236 
Q 475.638127 123.678236 477.239064 124.671694 
Q 478.840002 125.653864 480.320534 127.595624 
L 480.320534 138.4898 
Q 478.826623 135.915839 477.377307 134.719173 
Q 475.92799 133.522507 474.327053 133.522507 
Q 471.455177 133.522507 469.809645 138.184989 
Q 468.168573 142.836182 468.168573 151.020926 
Q 468.168573 159.171802 469.809645 163.834284 
Q 471.455177 168.485476 474.327053 168.485476 
Q 475.92799 168.485476 477.377307 167.28881 
Q 478.826623 166.080855 480.320534 163.506894 
L 480.320534 174.41236 
z
" clip-path="url(#p526e96a08e)" style="fill: #0000ff"/>
   </g>
   <g id="patch_41">
    <path d="M 493.512545 190.264901 
L 486.705603 190.264901 
L 485.630822 191.300588 
L 481.252087 191.300588 
L 487.505355 185.615279 
L 492.698318 185.615279 
L 498.951586 191.300588 
L 494.57647 191.300588 
L 493.512545 190.264901 
z
M 487.791239 189.20972 
L 492.416052 189.20972 
L 490.107265 186.948268 
L 487.791239 189.20972 
z
" clip-path="url(#p526e96a08e)" style="fill: #008000"/>
   </g>
   <g id="patch_42">
    <path d="M 498.951586 184.080385 
Q 497.471053 184.841197 495.870116 185.226026 
Q 494.269179 185.615279 492.52554 185.615279 
Q 487.325838 185.615279 484.288962 182.731271 
Q 481.252087 179.847264 481.252087 174.915257 
Q 481.252087 169.965556 484.288962 167.085972 
Q 487.325838 164.201964 492.52554 164.201964 
Q 494.269179 164.201964 495.870116 164.591217 
Q 497.471053 164.976046 498.951586 165.736858 
L 498.951586 170.005366 
Q 497.457675 168.996848 496.008359 168.527976 
Q 494.559042 168.059103 492.958105 168.059103 
Q 490.086228 168.059103 488.440697 169.885937 
Q 486.799624 171.708346 486.799624 174.915257 
Q 486.799624 178.108897 488.440697 179.93573 
Q 490.086228 181.75814 492.958105 181.75814 
Q 494.559042 181.75814 496.008359 181.289267 
Q 497.457675 180.815972 498.951586 179.807454 
L 498.951586 184.080385 
z
" clip-path="url(#p526e96a08e)" style="fill: #0000ff"/>
   </g>
   <g id="patch_43">
    <path d="M 498.951586 158.591503 
Q 497.166563 161.396734 495.246671 162.805754 
Q 493.326779 164.201964 491.279952 164.201964 
Q 486.654758 164.201964 483.953422 155.850318 
Q 481.252087 147.498672 481.252087 133.216332 
Q 481.252087 118.767471 484.001023 110.479871 
Q 486.753926 102.192271 491.541755 102.192271 
Q 493.38628 102.192271 495.076102 103.319487 
Q 496.769891 104.433894 498.26931 106.637089 
L 498.26931 118.998038 
Q 496.72229 116.167189 495.191137 114.770978 
Q 493.659983 113.361958 492.120896 113.361958 
Q 489.272792 113.361958 487.729739 118.511286 
Q 486.186685 123.647805 486.186685 133.216332 
Q 486.186685 142.695194 487.674205 147.870141 
Q 489.161724 153.032278 491.89876 153.032278 
Q 492.644503 153.032278 493.283145 152.737665 
Q 493.921787 152.430242 494.429527 151.789778 
L 494.429527 140.184577 
L 491.513988 140.184577 
L 491.513988 129.847493 
L 498.951586 129.847493 
L 498.951586 158.591503 
z
" clip-path="url(#p526e96a08e)" style="fill: #ffa600"/>
   </g>
   <g id="patch_44">
    <path d="M 517.582638 190.882303 
Q 515.797614 191.091445 513.877722 191.196494 
Q 511.957831 191.300588 509.911004 191.300588 
Q 505.28581 191.300588 502.584474 190.677935 
Q 499.883139 190.055282 499.883139 188.990469 
Q 499.883139 187.913241 502.632075 187.295363 
Q 505.384978 186.677485 510.172807 186.677485 
Q 512.017331 186.677485 513.707153 186.761524 
Q 515.400942 186.844608 516.900362 187.008866 
L 516.900362 187.930431 
Q 515.353342 187.719378 513.822188 187.615284 
Q 512.291035 187.510235 510.751948 187.510235 
Q 507.903844 187.510235 506.36079 187.894141 
Q 504.817737 188.277092 504.817737 188.990469 
Q 504.817737 189.697161 506.305256 190.082977 
Q 507.792776 190.467837 510.529812 190.467837 
Q 511.275555 190.467837 511.914197 190.445872 
Q 512.552838 190.422953 513.060578 190.375203 
L 513.060578 189.509983 
L 510.14504 189.509983 
L 510.14504 188.739307 
L 517.582638 188.739307 
L 517.582638 190.882303 
z
" clip-path="url(#p526e96a08e)" style="fill: #ffa600"/>
   </g>
   <g id="patch_45">
    <path d="M 499.883139 179.88517 
L 517.582638 179.88517 
L 517.582638 181.209861 
L 511.214934 181.209861 
L 511.214934 186.677485 
L 506.263191 186.677485 
L 506.263191 181.209861 
L 499.883139 181.209861 
L 499.883139 179.88517 
z
" clip-path="url(#p526e96a08e)" style="fill: #ff0000"/>
   </g>
   <g id="patch_46">
    <path d="M 512.143597 178.083823 
L 505.336654 178.083823 
L 504.261874 179.88517 
L 499.883139 179.88517 
L 506.136407 169.996834 
L 511.32937 169.996834 
L 517.582638 179.88517 
L 513.207521 179.88517 
L 512.143597 178.083823 
z
M 506.422291 176.248568 
L 511.047104 176.248568 
L 508.738316 172.315274 
L 506.422291 176.248568 
z
" clip-path="url(#p526e96a08e)" style="fill: #008000"/>
   </g>
   <g id="patch_47">
    <path d="M 517.582638 168.446586 
Q 516.102105 169.215009 514.501168 169.603688 
Q 512.900231 169.996834 511.156591 169.996834 
Q 505.95689 169.996834 502.920014 167.083977 
Q 499.883139 164.171119 499.883139 159.189775 
Q 499.883139 154.190561 502.920014 151.282171 
Q 505.95689 148.369314 511.156591 148.369314 
Q 512.900231 148.369314 514.501168 148.76246 
Q 516.102105 149.151139 517.582638 149.919561 
L 517.582638 154.230769 
Q 516.088727 153.212163 514.63941 152.7386 
Q 513.190094 152.265037 511.589157 152.265037 
Q 508.71728 152.265037 507.071748 154.110145 
Q 505.430676 155.950785 505.430676 159.189775 
Q 505.430676 162.415363 507.071748 164.26047 
Q 508.71728 166.101111 511.589157 166.101111 
Q 513.190094 166.101111 514.63941 165.627548 
Q 516.088727 165.149517 517.582638 164.130911 
L 517.582638 168.446586 
z
" clip-path="url(#p526e96a08e)" style="fill: #0000ff"/>
   </g>
   <g id="patch_48">
    <path d="M 536.213689 191.142549 
Q 534.733157 191.220885 533.13222 191.260509 
Q 531.531282 191.300588 529.787643 191.300588 
Q 524.587941 191.300588 521.551066 191.003639 
Q 518.51419 190.70669 518.51419 190.198871 
Q 518.51419 189.689231 521.551066 189.392737 
Q 524.587941 189.095789 529.787643 189.095789 
Q 531.531282 189.095789 533.13222 189.135868 
Q 534.733157 189.175491 536.213689 189.253827 
L 536.213689 189.69333 
Q 534.719779 189.589489 533.270462 189.541212 
Q 531.821146 189.492935 530.220208 189.492935 
Q 527.348332 189.492935 525.7028 189.681033 
Q 524.061728 189.868675 524.061728 190.198871 
Q 524.061728 190.527701 525.7028 190.715799 
Q 527.348332 190.903442 530.220208 190.903442 
Q 531.821146 190.903442 533.270462 190.855165 
Q 534.719779 190.806432 536.213689 190.702591 
L 536.213689 191.142549 
z
" clip-path="url(#p526e96a08e)" style="fill: #0000ff"/>
   </g>
   <g id="patch_49">
    <path d="M 530.774649 178.678629 
L 523.967706 178.678629 
L 522.892926 189.095789 
L 518.51419 189.095789 
L 524.767458 131.911712 
L 529.960421 131.911712 
L 536.213689 189.095789 
L 531.838573 189.095789 
L 530.774649 178.678629 
z
M 525.053343 168.065382 
L 529.678156 168.065382 
L 527.369368 145.319209 
L 525.053343 168.065382 
z
" clip-path="url(#p526e96a08e)" style="fill: #008000"/>
   </g>
   <g id="patch_50">
    <path d="M 536.213689 125.264263 
Q 534.428666 128.587988 532.508774 130.257438 
Q 530.588882 131.911712 528.542055 131.911712 
Q 523.916861 131.911712 521.215526 122.016423 
Q 518.51419 112.121134 518.51419 95.198975 
Q 518.51419 78.079518 521.263126 68.260113 
Q 524.016029 58.440708 528.803859 58.440708 
Q 530.648383 58.440708 532.338205 59.776268 
Q 534.031994 61.096652 535.531414 63.707066 
L 535.531414 78.352701 
Q 533.984394 74.998623 532.45324 73.344349 
Q 530.922087 71.674898 529.383 71.674898 
Q 526.534896 71.674898 524.991842 77.775981 
Q 523.448788 83.861888 523.448788 95.198975 
Q 523.448788 106.429825 524.936308 112.561262 
Q 526.423828 118.677522 529.160864 118.677522 
Q 529.906607 118.677522 530.545248 118.328455 
Q 531.18389 117.964211 531.69163 117.20537 
L 531.69163 103.455167 
L 528.776092 103.455167 
L 528.776092 91.20747 
L 536.213689 91.20747 
L 536.213689 125.264263 
z
" clip-path="url(#p526e96a08e)" style="fill: #ffa600"/>
   </g>
   <g id="patch_51">
    <path d="M 549.405701 191.030569 
L 542.598758 191.030569 
L 541.523977 191.300588 
L 537.145242 191.300588 
L 543.39851 189.818345 
L 548.591473 189.818345 
L 554.844741 191.300588 
L 550.469625 191.300588 
L 549.405701 191.030569 
z
M 543.684395 190.755468 
L 548.309208 190.755468 
L 546.00042 190.165875 
L 543.684395 190.755468 
z
" clip-path="url(#p526e96a08e)" style="fill: #008000"/>
   </g>
   <g id="patch_52">
    <path d="M 537.145242 132.532381 
L 554.844741 132.532381 
L 554.844741 143.70474 
L 548.477038 143.70474 
L 548.477038 189.818345 
L 543.525294 189.818345 
L 543.525294 143.70474 
L 537.145242 143.70474 
L 537.145242 132.532381 
z
" clip-path="url(#p526e96a08e)" style="fill: #ff0000"/>
   </g>
   <g id="patch_53">
    <path d="M 573.475793 190.134277 
Q 571.99526 190.712391 570.394323 191.004809 
Q 568.793386 191.300588 567.049747 191.300588 
Q 561.850045 191.300588 558.813169 189.109134 
Q 555.776294 186.91768 555.776294 183.170025 
Q 555.776294 179.408926 558.813169 177.220834 
Q 561.850045 175.02938 567.049747 175.02938 
Q 568.793386 175.02938 570.394323 175.325159 
Q 571.99526 175.617577 573.475793 176.19569 
L 573.475793 179.439176 
Q 571.981882 178.67284 570.532566 178.31656 
Q 569.083249 177.960281 567.482312 177.960281 
Q 564.610435 177.960281 562.964904 179.348426 
Q 561.323831 180.73321 561.323831 183.170025 
Q 561.323831 185.596758 562.964904 186.984903 
Q 564.610435 188.369686 567.482312 188.369686 
Q 569.083249 188.369686 570.532566 188.013407 
Q 571.981882 187.653767 573.475793 186.88743 
L 573.475793 190.134277 
z
" clip-path="url(#p526e96a08e)" style="fill: #0000ff"/>
   </g>
   <g id="patch_54">
    <path d="M 573.475793 168.778328 
Q 571.69077 171.903854 569.770878 173.473753 
Q 567.850986 175.02938 565.804159 175.02938 
Q 561.178965 175.02938 558.477629 165.724161 
Q 555.776294 156.418943 555.776294 140.505878 
Q 555.776294 124.407279 558.52523 115.17342 
Q 561.278133 105.93956 566.065962 105.93956 
Q 567.910487 105.93956 569.600309 107.195479 
Q 571.294098 108.437126 572.793517 110.891877 
L 572.793517 124.664171 
Q 571.246497 121.510102 569.715344 119.954475 
Q 568.18419 118.384576 566.645103 118.384576 
Q 563.796999 118.384576 562.253946 124.121843 
Q 560.710892 129.844838 560.710892 140.505878 
Q 560.710892 151.067015 562.198412 156.832825 
Q 563.685931 162.584364 566.422967 162.584364 
Q 567.16871 162.584364 567.807352 162.256112 
Q 568.445994 161.913589 568.953734 161.199998 
L 568.953734 148.269741 
L 566.038195 148.269741 
L 566.038195 136.752392 
L 573.475793 136.752392 
L 573.475793 168.778328 
z
" clip-path="url(#p526e96a08e)" style="fill: #ffa600"/>
   </g>
   <g id="patch_55">
    <path d="M 586.667804 190.618905 
L 579.860861 190.618905 
L 578.786081 191.300588 
L 574.407346 191.300588 
L 580.660614 187.55855 
L 585.853577 187.55855 
L 592.106845 191.300588 
L 587.731728 191.300588 
L 586.667804 190.618905 
z
M 580.946498 189.92439 
L 585.571311 189.92439 
L 583.262523 188.435916 
L 580.946498 189.92439 
z
" clip-path="url(#p526e96a08e)" style="fill: #008000"/>
   </g>
   <g id="patch_56">
    <path d="M 592.106845 186.913071 
Q 590.321821 187.23581 588.401929 187.397917 
Q 586.482038 187.55855 584.435211 187.55855 
Q 579.810017 187.55855 577.108681 186.5977 
Q 574.407346 185.636849 574.407346 183.993677 
Q 574.407346 182.331348 577.156282 181.377866 
Q 579.909185 180.424384 584.697014 180.424384 
Q 586.541538 180.424384 588.23136 180.554069 
Q 589.925149 180.682281 591.424569 180.935757 
L 591.424569 182.357874 
Q 589.877549 182.032187 588.346395 181.871554 
Q 586.815242 181.709448 585.276155 181.709448 
Q 582.428051 181.709448 580.884997 182.301874 
Q 579.341944 182.892826 579.341944 183.993677 
Q 579.341944 185.084213 580.829463 185.679587 
Q 582.316983 186.273486 585.054019 186.273486 
Q 585.799762 186.273486 586.438404 186.239591 
Q 587.077045 186.204223 587.584785 186.130538 
L 587.584785 184.795369 
L 584.669247 184.795369 
L 584.669247 183.606095 
L 592.106845 183.606095 
L 592.106845 186.913071 
z
" clip-path="url(#p526e96a08e)" style="fill: #ffa600"/>
   </g>
   <g id="patch_57">
    <path d="M 593.038397 187.216445 
L 610.737896 187.216445 
L 610.737896 188.012967 
L 604.370193 188.012967 
L 604.370193 191.300588 
L 599.418449 191.300588 
L 599.418449 188.012967 
L 593.038397 188.012967 
L 593.038397 187.216445 
z
" clip-path="url(#p526e96a08e)" style="fill: #ff0000"/>
   </g>
   <g id="patch_58">
    <path d="M 610.737896 181.094493 
Q 609.257364 184.129005 607.656427 185.663904 
Q 606.055489 187.216445 604.31185 187.216445 
Q 599.112148 187.216445 596.075273 175.713526 
Q 593.038397 164.210606 593.038397 144.539202 
Q 593.038397 124.797228 596.075273 113.311951 
Q 599.112148 101.809032 604.31185 101.809032 
Q 606.055489 101.809032 607.656427 103.361573 
Q 609.257364 104.896472 610.737896 107.930984 
L 610.737896 124.956011 
Q 609.243986 120.933518 607.794669 119.063411 
Q 606.345353 117.193305 604.744415 117.193305 
Q 601.872539 117.193305 600.227007 124.479663 
Q 598.585935 131.748379 598.585935 144.539202 
Q 598.585935 157.277098 600.227007 164.563456 
Q 601.872539 171.832172 604.744415 171.832172 
Q 606.345353 171.832172 607.794669 169.962066 
Q 609.243986 168.074317 610.737896 164.051823 
L 610.737896 181.094493 
z
" clip-path="url(#p526e96a08e)" style="fill: #0000ff"/>
   </g>
   <g id="patch_59">
    <path d="M 611.669449 186.389304 
L 629.368948 186.389304 
L 629.368948 187.347141 
L 623.001245 187.347141 
L 623.001245 191.300588 
L 618.049501 191.300588 
L 618.049501 187.347141 
L 611.669449 187.347141 
L 611.669449 186.389304 
z
" clip-path="url(#p526e96a08e)" style="fill: #ff0000"/>
   </g>
   <g id="patch_60">
    <path d="M 629.368948 184.220168 
Q 627.583925 185.304736 625.664033 185.849496 
Q 623.744141 186.389304 621.697314 186.389304 
Q 617.07212 186.389304 614.370785 183.160362 
Q 611.669449 179.931421 611.669449 174.409535 
Q 611.669449 168.823268 614.418385 165.619089 
Q 617.171288 162.414909 621.959118 162.414909 
Q 623.803642 162.414909 625.493464 162.850717 
Q 627.187253 163.281573 628.686673 164.133379 
L 628.686673 168.912411 
Q 627.139652 167.817938 625.608499 167.278131 
Q 624.077345 166.733371 622.538259 166.733371 
Q 619.690154 166.733371 618.147101 168.724221 
Q 616.604047 170.710119 616.604047 174.409535 
Q 616.604047 178.074284 618.091567 180.075039 
Q 619.579086 182.070842 622.316122 182.070842 
Q 623.061865 182.070842 623.700507 181.956938 
Q 624.339149 181.838081 624.846889 181.590463 
L 624.846889 177.103621 
L 621.931351 177.103621 
L 621.931351 173.107063 
L 629.368948 173.107063 
L 629.368948 184.220168 
z
" clip-path="url(#p526e96a08e)" style="fill: #ffa600"/>
   </g>
   <g id="patch_61">
    <path d="M 623.929908 157.207222 
L 617.122965 157.207222 
L 616.048184 162.414909 
L 611.669449 162.414909 
L 617.922717 133.827772 
L 623.11568 133.827772 
L 629.368948 162.414909 
L 624.993832 162.414909 
L 623.929908 157.207222 
z
M 618.208602 151.901509 
L 622.833415 151.901509 
L 620.524627 140.530372 
L 618.208602 151.901509 
z
" clip-path="url(#p526e96a08e)" style="fill: #008000"/>
   </g>
   <g id="patch_62">
    <path d="M 642.560959 187.654907 
L 635.754017 187.654907 
L 634.679236 191.300588 
L 630.300501 191.300588 
L 636.553769 171.287945 
L 641.746732 171.287945 
L 648 191.300588 
L 643.624884 191.300588 
L 642.560959 187.654907 
z
M 636.839653 183.940602 
L 641.464466 183.940602 
L 639.155679 175.98015 
L 636.839653 183.940602 
z
" clip-path="url(#p526e96a08e)" style="fill: #008000"/>
   </g>
   <g id="patch_63">
    <path d="M 648 158.439315 
Q 646.214977 164.86363 644.295085 168.090455 
Q 642.375193 171.287945 640.328366 171.287945 
Q 635.703172 171.287945 633.001836 152.161674 
Q 630.300501 133.035404 630.300501 100.327135 
Q 630.300501 67.237514 633.049437 48.257917 
Q 635.80234 29.278321 640.590169 29.278321 
Q 642.434694 29.278321 644.124516 31.85978 
Q 645.818305 34.411905 647.317724 39.457486 
L 647.317724 67.765539 
Q 645.770704 61.282555 644.239551 58.085065 
Q 642.708397 54.85824 641.16931 54.85824 
Q 638.321206 54.85824 636.778153 66.650818 
Q 635.235099 78.414061 635.235099 100.327135 
Q 635.235099 122.034865 636.722619 133.886112 
Q 638.210138 145.708025 640.947174 145.708025 
Q 641.692917 145.708025 642.331559 145.033325 
Q 642.970201 144.329291 643.477941 142.862552 
L 643.477941 116.28525 
L 640.562402 116.28525 
L 640.562402 92.61209 
L 648 92.61209 
L 648 158.439315 
z
" clip-path="url(#p526e96a08e)" style="fill: #ffa600"/>
   </g>
   <g id="patch_64">
    <path d="M 107.699499 192.252633 
Q 106.218967 191.780726 104.618029 191.542029 
Q 103.017092 191.300588 101.273453 191.300588 
Q 96.073751 191.300588 93.036876 193.089446 
Q 90 194.878304 90 197.93747 
Q 90 201.007611 93.036876 202.793726 
Q 96.073751 204.582584 101.273453 204.582584 
Q 103.017092 204.582584 104.618029 204.341143 
Q 106.218967 204.102445 107.699499 203.630538 
L 107.699499 200.982919 
Q 106.205588 201.60847 104.756272 201.899297 
Q 103.306955 202.190123 101.706018 202.190123 
Q 98.834142 202.190123 97.18861 201.056997 
Q 95.547538 199.926614 95.547538 197.93747 
Q 95.547538 195.956557 97.18861 194.823431 
Q 98.834142 193.693048 101.706018 193.693048 
Q 103.306955 193.693048 104.756272 193.983875 
Q 106.205588 194.277445 107.699499 194.902997 
L 107.699499 192.252633 
z
" clip-path="url(#p526e96a08e)" style="fill: #0000ff"/>
   </g>
   <g id="patch_65">
    <path d="M 108.631052 191.30227 
L 126.330551 191.30227 
L 126.330551 191.301942 
L 119.962847 191.301942 
L 119.962847 191.300588 
L 115.011104 191.300588 
L 115.011104 191.301942 
L 108.631052 191.301942 
L 108.631052 191.30227 
z
" clip-path="url(#p526e96a08e)" style="fill: #ff0000"/>
   </g>
   <g id="patch_66">
    <path d="M 163.592654 191.347346 
Q 162.112122 191.324169 160.511185 191.312446 
Q 158.910247 191.300588 157.166608 191.300588 
Q 151.966906 191.300588 148.930031 191.388445 
Q 145.893155 191.476302 145.893155 191.626549 
Q 145.893155 191.777334 148.930031 191.865057 
Q 151.966906 191.952914 157.166608 191.952914 
Q 158.910247 191.952914 160.511185 191.941056 
Q 162.112122 191.929333 163.592654 191.906155 
L 163.592654 191.776121 
Q 162.098744 191.806845 160.649427 191.821128 
Q 159.200111 191.835412 157.599173 191.835412 
Q 154.727297 191.835412 153.081765 191.77976 
Q 151.440693 191.724243 151.440693 191.626549 
Q 151.440693 191.529259 153.081765 191.473607 
Q 154.727297 191.41809 157.599173 191.41809 
Q 159.200111 191.41809 160.649427 191.432374 
Q 162.098744 191.446792 163.592654 191.477515 
L 163.592654 191.347346 
z
" clip-path="url(#p526e96a08e)" style="fill: #0000ff"/>
   </g>
   <g id="patch_67">
    <path d="M 176.784666 191.387984 
L 169.977723 191.387984 
L 168.902942 191.300588 
L 164.524207 191.300588 
L 170.777475 191.780344 
L 175.970438 191.780344 
L 182.223706 191.300588 
L 177.84859 191.300588 
L 176.784666 191.387984 
z
M 171.06336 191.477026 
L 175.688172 191.477026 
L 173.379385 191.667859 
L 171.06336 191.477026 
z
" clip-path="url(#p526e96a08e)" style="fill: #008000"/>
   </g>
   <g id="patch_68">
    <path d="M 164.524207 194.007466 
L 182.223706 194.007466 
L 182.223706 193.573115 
L 175.856003 193.573115 
L 175.856003 191.780344 
L 170.904259 191.780344 
L 170.904259 193.573115 
L 164.524207 193.573115 
L 164.524207 194.007466 
z
" clip-path="url(#p526e96a08e)" style="fill: #ff0000"/>
   </g>
   <g id="patch_69">
    <path d="M 195.415717 191.517179 
L 188.608774 191.517179 
L 187.533994 191.300588 
L 183.155259 191.300588 
L 189.408527 192.489543 
L 194.60149 192.489543 
L 200.854758 191.300588 
L 196.479641 191.300588 
L 195.415717 191.517179 
z
M 189.694411 191.737846 
L 194.319224 191.737846 
L 192.010437 192.210778 
L 189.694411 191.737846 
z
" clip-path="url(#p526e96a08e)" style="fill: #008000"/>
   </g>
   <g id="patch_70">
    <path d="M 294.010017 191.30197 
Q 292.529484 191.301285 290.928547 191.300938 
Q 289.32761 191.300588 287.58397 191.300588 
Q 282.384269 191.300588 279.347393 191.303185 
Q 276.310518 191.305781 276.310518 191.310222 
Q 276.310518 191.314679 279.347393 191.317271 
Q 282.384269 191.319868 287.58397 191.319868 
Q 289.32761 191.319868 290.928547 191.319517 
Q 292.529484 191.319171 294.010017 191.318486 
L 294.010017 191.314643 
Q 292.516106 191.315551 291.066789 191.315973 
Q 289.617473 191.316395 288.016535 191.316395 
Q 285.144659 191.316395 283.499127 191.31475 
Q 281.858055 191.313109 281.858055 191.310222 
Q 281.858055 191.307346 283.499127 191.305702 
Q 285.144659 191.304061 288.016535 191.304061 
Q 289.617473 191.304061 291.066789 191.304483 
Q 292.516106 191.304909 294.010017 191.305817 
L 294.010017 191.30197 
z
" clip-path="url(#p526e96a08e)" style="fill: #0000ff"/>
   </g>
   <g id="patch_71">
    <path d="M 349.903172 191.498425 
Q 348.422639 191.400362 346.821702 191.35076 
Q 345.220765 191.300588 343.477126 191.300588 
Q 338.277424 191.300588 335.240548 191.672317 
Q 332.203673 192.044047 332.203673 192.67975 
Q 332.203673 193.317733 335.240548 193.688892 
Q 338.277424 194.060622 343.477126 194.060622 
Q 345.220765 194.060622 346.821702 194.01045 
Q 348.422639 193.960848 349.903172 193.862784 
L 349.903172 193.312602 
Q 348.409261 193.442593 346.959945 193.503028 
Q 345.510628 193.563462 343.909691 193.563462 
Q 341.037814 193.563462 339.392283 193.327995 
Q 337.75121 193.093099 337.75121 192.67975 
Q 337.75121 192.268111 339.392283 192.032644 
Q 341.037814 191.797747 343.909691 191.797747 
Q 345.510628 191.797747 346.959945 191.858182 
Q 348.409261 191.919187 349.903172 192.049178 
L 349.903172 191.498425 
z
" clip-path="url(#p526e96a08e)" style="fill: #0000ff"/>
   </g>
   <g id="patch_72">
    <path d="M 350.834725 199.130245 
L 368.534224 199.130245 
L 368.534224 197.603244 
L 362.16652 197.603244 
L 362.16652 191.300588 
L 357.214777 191.300588 
L 357.214777 197.603244 
L 350.834725 197.603244 
L 350.834725 199.130245 
z
" clip-path="url(#p526e96a08e)" style="fill: #ff0000"/>
   </g>
   <g id="patch_73">
    <path d="M 574.407346 203.116204 
L 592.106845 203.116204 
L 592.106845 200.81183 
L 585.739141 200.81183 
L 585.739141 191.300588 
L 580.787398 191.300588 
L 580.787398 200.81183 
L 574.407346 200.81183 
L 574.407346 203.116204 
z
" clip-path="url(#p526e96a08e)" style="fill: #ff0000"/>
   </g>
   <g id="matplotlib.axis_1">
    <g id="xtick_1">
     <g id="line2d_2">
      <defs>
       <path id="m6bd77ca114" d="M 0 0 
L 0 3.5 
" style="stroke: #000000; stroke-width: 0.8"/>
      </defs>
      <g>
       <use xlink:href="#m6bd77ca114" x="98.84975" y="192.24" style="stroke: #000000; stroke-width: 0.8"/>
      </g>
     </g>
     <g id="text_1">
      <!-- 0 -->
      <g transform="translate(95.6685 206.838437) scale(0.1 -0.1)">
       <defs>
        <path id="DejaVuSans-30" d="M 2034 4250 
Q 1547 4250 1301 3770 
Q 1056 3291 1056 2328 
Q 1056 1369 1301 889 
Q 1547 409 2034 409 
Q 2525 409 2770 889 
Q 3016 1369 3016 2328 
Q 3016 3291 2770 3770 
Q 2525 4250 2034 4250 
z
M 2034 4750 
Q 2819 4750 3233 4129 
Q 3647 3509 3647 2328 
Q 3647 1150 3233 529 
Q 2819 -91 2034 -91 
Q 1250 -91 836 529 
Q 422 1150 422 2328 
Q 422 3509 836 4129 
Q 1250 4750 2034 4750 
z
" transform="scale(0.015625)"/>
       </defs>
       <use xlink:href="#DejaVuSans-30"/>
      </g>
     </g>
    </g>
    <g id="xtick_2">
     <g id="line2d_3">
      <g>
       <use xlink:href="#m6bd77ca114" x="192.005008" y="192.24" style="stroke: #000000; stroke-width: 0.8"/>
      </g>
     </g>
     <g id="text_2">
      <!-- 5 -->
      <g transform="translate(188.823758 206.838437) scale(0.1 -0.1)">
       <defs>
        <path id="DejaVuSans-35" d="M 691 4666 
L 3169 4666 
L 3169 4134 
L 1269 4134 
L 1269 2991 
Q 1406 3038 1543 3061 
Q 1681 3084 1819 3084 
Q 2600 3084 3056 2656 
Q 3513 2228 3513 1497 
Q 3513 744 3044 326 
Q 2575 -91 1722 -91 
Q 1428 -91 1123 -41 
Q 819 9 494 109 
L 494 744 
Q 775 591 1075 516 
Q 1375 441 1709 441 
Q 2250 441 2565 725 
Q 2881 1009 2881 1497 
Q 2881 1984 2565 2268 
Q 2250 2553 1709 2553 
Q 1456 2553 1204 2497 
Q 953 2441 691 2322 
L 691 4666 
z
" transform="scale(0.015625)"/>
       </defs>
       <use xlink:href="#DejaVuSans-35"/>
      </g>
     </g>
    </g>
    <g id="xtick_3">
     <g id="line2d_4">
      <g>
       <use xlink:href="#m6bd77ca114" x="285.160267" y="192.24" style="stroke: #000000; stroke-width: 0.8"/>
      </g>
     </g>
     <g id="text_3">
      <!-- 10 -->
      <g transform="translate(278.797767 206.838437) scale(0.1 -0.1)">
       <defs>
        <path id="DejaVuSans-31" d="M 794 531 
L 1825 531 
L 1825 4091 
L 703 3866 
L 703 4441 
L 1819 4666 
L 2450 4666 
L 2450 531 
L 3481 531 
L 3481 0 
L 794 0 
L 794 531 
z
" transform="scale(0.015625)"/>
       </defs>
       <use xlink:href="#DejaVuSans-31"/>
       <use xlink:href="#DejaVuSans-30" x="63.623047"/>
      </g>
     </g>
    </g>
    <g id="xtick_4">
     <g id="line2d_5">
      <g>
       <use xlink:href="#m6bd77ca114" x="378.315526" y="192.24" style="stroke: #000000; stroke-width: 0.8"/>
      </g>
     </g>
     <g id="text_4">
      <!-- 15 -->
      <g transform="translate(371.953026 206.838437) scale(0.1 -0.1)">
       <use xlink:href="#DejaVuSans-31"/>
       <use xlink:href="#DejaVuSans-35" x="63.623047"/>
      </g>
     </g>
    </g>
    <g id="xtick_5">
     <g id="line2d_6">
      <g>
       <use xlink:href="#m6bd77ca114" x="471.470785" y="192.24" style="stroke: #000000; stroke-width: 0.8"/>
      </g>
     </g>
     <g id="text_5">
      <!-- 20 -->
      <g transform="translate(465.108285 206.838437) scale(0.1 -0.1)">
       <defs>
        <path id="DejaVuSans-32" d="M 1228 531 
L 3431 531 
L 3431 0 
L 469 0 
L 469 531 
Q 828 903 1448 1529 
Q 2069 2156 2228 2338 
Q 2531 2678 2651 2914 
Q 2772 3150 2772 3378 
Q 2772 3750 2511 3984 
Q 2250 4219 1831 4219 
Q 1534 4219 1204 4116 
Q 875 4013 500 3803 
L 500 4441 
Q 881 4594 1212 4672 
Q 1544 4750 1819 4750 
Q 2544 4750 2975 4387 
Q 3406 4025 3406 3419 
Q 3406 3131 3298 2873 
Q 3191 2616 2906 2266 
Q 2828 2175 2409 1742 
Q 1991 1309 1228 531 
z
" transform="scale(0.015625)"/>
       </defs>
       <use xlink:href="#DejaVuSans-32"/>
       <use xlink:href="#DejaVuSans-30" x="63.623047"/>
      </g>
     </g>
    </g>
    <g id="xtick_6">
     <g id="line2d_7">
      <g>
       <use xlink:href="#m6bd77ca114" x="564.626043" y="192.24" style="stroke: #000000; stroke-width: 0.8"/>
      </g>
     </g>
     <g id="text_6">
      <!-- 25 -->
      <g transform="translate(558.263543 206.838437) scale(0.1 -0.1)">
       <use xlink:href="#DejaVuSans-32"/>
       <use xlink:href="#DejaVuSans-35" x="63.623047"/>
      </g>
     </g>
    </g>
   </g>
   <g id="matplotlib.axis_2">
    <g id="ytick_1">
     <g id="line2d_8">
      <defs>
       <path id="m37f5702ed9" d="M 0 0 
L -3.5 0 
" style="stroke: #000000; stroke-width: 0.8"/>
      </defs>
      <g>
       <use xlink:href="#m37f5702ed9" x="90" y="191.300588" style="stroke: #000000; stroke-width: 0.8"/>
      </g>
     </g>
     <g id="text_7">
      <!-- 0.000 -->
      <g transform="translate(54.371875 195.099807) scale(0.1 -0.1)">
       <defs>
        <path id="DejaVuSans-2e" d="M 684 794 
L 1344 794 
L 1344 0 
L 684 0 
L 684 794 
z
" transform="scale(0.015625)"/>
       </defs>
       <use xlink:href="#DejaVuSans-30"/>
       <use xlink:href="#DejaVuSans-2e" x="63.623047"/>
       <use xlink:href="#DejaVuSans-30" x="95.410156"/>
       <use xlink:href="#DejaVuSans-30" x="159.033203"/>
       <use xlink:href="#DejaVuSans-30" x="222.65625"/>
      </g>
     </g>
    </g>
    <g id="ytick_2">
     <g id="line2d_9">
      <g>
       <use xlink:href="#m37f5702ed9" x="90" y="157.713338" style="stroke: #000000; stroke-width: 0.8"/>
      </g>
     </g>
     <g id="text_8">
      <!-- 0.002 -->
      <g transform="translate(54.371875 161.512557) scale(0.1 -0.1)">
       <use xlink:href="#DejaVuSans-30"/>
       <use xlink:href="#DejaVuSans-2e" x="63.623047"/>
       <use xlink:href="#DejaVuSans-30" x="95.410156"/>
       <use xlink:href="#DejaVuSans-30" x="159.033203"/>
       <use xlink:href="#DejaVuSans-32" x="222.65625"/>
      </g>
     </g>
    </g>
    <g id="ytick_3">
     <g id="line2d_10">
      <g>
       <use xlink:href="#m37f5702ed9" x="90" y="124.126089" style="stroke: #000000; stroke-width: 0.8"/>
      </g>
     </g>
     <g id="text_9">
      <!-- 0.004 -->
      <g transform="translate(54.371875 127.925308) scale(0.1 -0.1)">
       <defs>
        <path id="DejaVuSans-34" d="M 2419 4116 
L 825 1625 
L 2419 1625 
L 2419 4116 
z
M 2253 4666 
L 3047 4666 
L 3047 1625 
L 3713 1625 
L 3713 1100 
L 3047 1100 
L 3047 0 
L 2419 0 
L 2419 1100 
L 313 1100 
L 313 1709 
L 2253 4666 
z
" transform="scale(0.015625)"/>
       </defs>
       <use xlink:href="#DejaVuSans-30"/>
       <use xlink:href="#DejaVuSans-2e" x="63.623047"/>
       <use xlink:href="#DejaVuSans-30" x="95.410156"/>
       <use xlink:href="#DejaVuSans-30" x="159.033203"/>
       <use xlink:href="#DejaVuSans-34" x="222.65625"/>
      </g>
     </g>
    </g>
    <g id="ytick_4">
     <g id="line2d_11">
      <g>
       <use xlink:href="#m37f5702ed9" x="90" y="90.538839" style="stroke: #000000; stroke-width: 0.8"/>
      </g>
     </g>
     <g id="text_10">
      <!-- 0.006 -->
      <g transform="translate(54.371875 94.338058) scale(0.1 -0.1)">
       <defs>
        <path id="DejaVuSans-36" d="M 2113 2584 
Q 1688 2584 1439 2293 
Q 1191 2003 1191 1497 
Q 1191 994 1439 701 
Q 1688 409 2113 409 
Q 2538 409 2786 701 
Q 3034 994 3034 1497 
Q 3034 2003 2786 2293 
Q 2538 2584 2113 2584 
z
M 3366 4563 
L 3366 3988 
Q 3128 4100 2886 4159 
Q 2644 4219 2406 4219 
Q 1781 4219 1451 3797 
Q 1122 3375 1075 2522 
Q 1259 2794 1537 2939 
Q 1816 3084 2150 3084 
Q 2853 3084 3261 2657 
Q 3669 2231 3669 1497 
Q 3669 778 3244 343 
Q 2819 -91 2113 -91 
Q 1303 -91 875 529 
Q 447 1150 447 2328 
Q 447 3434 972 4092 
Q 1497 4750 2381 4750 
Q 2619 4750 2861 4703 
Q 3103 4656 3366 4563 
z
" transform="scale(0.015625)"/>
       </defs>
       <use xlink:href="#DejaVuSans-30"/>
       <use xlink:href="#DejaVuSans-2e" x="63.623047"/>
       <use xlink:href="#DejaVuSans-30" x="95.410156"/>
       <use xlink:href="#DejaVuSans-30" x="159.033203"/>
       <use xlink:href="#DejaVuSans-36" x="222.65625"/>
      </g>
     </g>
    </g>
    <g id="ytick_5">
     <g id="line2d_12">
      <g>
       <use xlink:href="#m37f5702ed9" x="90" y="56.95159" style="stroke: #000000; stroke-width: 0.8"/>
      </g>
     </g>
     <g id="text_11">
      <!-- 0.008 -->
      <g transform="translate(54.371875 60.750809) scale(0.1 -0.1)">
       <defs>
        <path id="DejaVuSans-38" d="M 2034 2216 
Q 1584 2216 1326 1975 
Q 1069 1734 1069 1313 
Q 1069 891 1326 650 
Q 1584 409 2034 409 
Q 2484 409 2743 651 
Q 3003 894 3003 1313 
Q 3003 1734 2745 1975 
Q 2488 2216 2034 2216 
z
M 1403 2484 
Q 997 2584 770 2862 
Q 544 3141 544 3541 
Q 544 4100 942 4425 
Q 1341 4750 2034 4750 
Q 2731 4750 3128 4425 
Q 3525 4100 3525 3541 
Q 3525 3141 3298 2862 
Q 3072 2584 2669 2484 
Q 3125 2378 3379 2068 
Q 3634 1759 3634 1313 
Q 3634 634 3220 271 
Q 2806 -91 2034 -91 
Q 1263 -91 848 271 
Q 434 634 434 1313 
Q 434 1759 690 2068 
Q 947 2378 1403 2484 
z
M 1172 3481 
Q 1172 3119 1398 2916 
Q 1625 2713 2034 2713 
Q 2441 2713 2670 2916 
Q 2900 3119 2900 3481 
Q 2900 3844 2670 4047 
Q 2441 4250 2034 4250 
Q 1625 4250 1398 4047 
Q 1172 3844 1172 3481 
z
" transform="scale(0.015625)"/>
       </defs>
       <use xlink:href="#DejaVuSans-30"/>
       <use xlink:href="#DejaVuSans-2e" x="63.623047"/>
       <use xlink:href="#DejaVuSans-30" x="95.410156"/>
       <use xlink:href="#DejaVuSans-30" x="159.033203"/>
       <use xlink:href="#DejaVuSans-38" x="222.65625"/>
      </g>
     </g>
    </g>
   </g>
  </g>
 </g>
 <defs>
  <clipPath id="p526e96a08e">
   <rect x="90" y="25.92" width="558" height="166.32"/>
  </clipPath>
 </defs>
</svg>
