<?xml version="1.0" encoding="utf-8" standalone="no"?>
<!DOCTYPE svg PUBLIC "-//W3C//DTD SVG 1.1//EN"
  "http://www.w3.org/Graphics/SVG/1.1/DTD/svg11.dtd">
<svg xmlns:xlink="http://www.w3.org/1999/xlink" width="720pt" height="216pt" viewBox="0 0 720 216" xmlns="http://www.w3.org/2000/svg" version="1.1">
 <metadata>
  <rdf:RDF xmlns:dc="http://purl.org/dc/elements/1.1/" xmlns:cc="http://creativecommons.org/ns#" xmlns:rdf="http://www.w3.org/1999/02/22-rdf-syntax-ns#">
   <cc:Work>
    <dc:type rdf:resource="http://purl.org/dc/dcmitype/StillImage"/>
    <dc:date>2024-11-23T04:42:06.819122</dc:date>
    <dc:format>image/svg+xml</dc:format>
    <dc:creator>
     <cc:Agent>
      <dc:title>Matplotlib v3.7.2, https://matplotlib.org/</dc:title>
     </cc:Agent>
    </dc:creator>
   </cc:Work>
  </rdf:RDF>
 </metadata>
 <defs>
  <style type="text/css">*{stroke-linejoin: round; stroke-linecap: butt}</style>
 </defs>
 <g id="figure_1">
  <g id="patch_1">
   <path d="M 0 216 
L 720 216 
L 720 0 
L 0 0 
z
" style="fill: #ffffff"/>
  </g>
  <g id="axes_1">
   <g id="patch_2">
    <path d="M 90 192.24 
L 648 192.24 
L 648 25.92 
L 90 25.92 
z
" style="fill: #ffffff"/>
   </g>
   <g id="line2d_1">
    <path d="M 90 192.24 
L 648 192.24 
" clip-path="url(#p4ed016bf39)" style="fill: none; stroke: #000000; stroke-width: 0.5; stroke-linecap: square"/>
   </g>
   <g id="patch_3">
    <path d="M 107.699499 191.667622 
Q 105.914476 191.953811 103.994584 192.097559 
Q 102.074692 192.24 100.027865 192.24 
Q 95.402671 192.24 92.701335 191.387966 
Q 90 190.535933 90 189.078851 
Q 90 187.604781 92.748936 186.759281 
Q 95.501839 185.913782 100.289668 185.913782 
Q 102.134193 185.913782 103.824015 186.02878 
Q 105.517804 186.142472 107.017224 186.367241 
L 107.017224 187.628303 
Q 105.470203 187.3395 103.93905 187.197059 
Q 102.407896 187.053311 100.868809 187.053311 
Q 98.020705 187.053311 96.477652 187.578645 
Q 94.934598 188.102672 94.934598 189.078851 
Q 94.934598 190.045883 96.422118 190.57383 
Q 97.909637 191.100471 100.646673 191.100471 
Q 101.392416 191.100471 102.031058 191.070414 
Q 102.6697 191.039051 103.17744 190.973711 
L 103.17744 189.78975 
L 100.261901 189.78975 
L 100.261901 188.735163 
L 107.699499 188.735163 
L 107.699499 191.667622 
z
" clip-path="url(#p4ed016bf39)" style="fill: #ffa600"/>
   </g>
   <g id="patch_4">
    <path d="M 107.699499 184.597975 
Q 106.218967 185.250191 104.618029 185.58009 
Q 103.017092 185.913782 101.273453 185.913782 
Q 96.073751 185.913782 93.036876 183.441431 
Q 90 180.96908 90 176.741057 
Q 90 172.497866 93.036876 170.029307 
Q 96.073751 167.556956 101.273453 167.556956 
Q 103.017092 167.556956 104.618029 167.890647 
Q 106.218967 168.220547 107.699499 168.872762 
L 107.699499 172.531993 
Q 106.205588 171.667429 104.756272 171.265482 
Q 103.306955 170.863535 101.706018 170.863535 
Q 98.834142 170.863535 97.18861 172.42961 
Q 95.547538 173.991894 95.547538 176.741057 
Q 95.547538 179.478844 97.18861 181.044919 
Q 98.834142 182.607202 101.706018 182.607202 
Q 103.306955 182.607202 104.756272 182.205255 
Q 106.205588 181.799517 107.699499 180.934953 
L 107.699499 184.597975 
z
" clip-path="url(#p4ed016bf39)" style="fill: #0000ff"/>
   </g>
   <g id="patch_5">
    <path d="M 102.260459 148.022384 
L 95.453516 148.022384 
L 94.378735 167.556956 
L 90 167.556956 
L 96.253268 60.32365 
L 101.446231 60.32365 
L 107.699499 167.556956 
L 103.324383 167.556956 
L 102.260459 148.022384 
z
M 96.539153 128.120104 
L 101.163965 128.120104 
L 98.855178 85.465793 
L 96.539153 128.120104 
z
" clip-path="url(#p4ed016bf39)" style="fill: #008000"/>
   </g>
   <g id="patch_6">
    <path d="M 120.89151 191.766827 
L 114.084567 191.766827 
L 113.009787 192.24 
L 108.631052 192.24 
L 114.88432 189.642559 
L 120.077283 189.642559 
L 126.330551 192.24 
L 121.955434 192.24 
L 120.89151 191.766827 
z
M 115.170204 191.284747 
L 119.795017 191.284747 
L 117.48623 190.25156 
L 115.170204 191.284747 
z
" clip-path="url(#p4ed016bf39)" style="fill: #008000"/>
   </g>
   <g id="patch_7">
    <path d="M 108.631052 187.041193 
L 126.330551 187.041193 
L 126.330551 187.548532 
L 119.962847 187.548532 
L 119.962847 189.642559 
L 115.011104 189.642559 
L 115.011104 187.548532 
L 108.631052 187.548532 
L 108.631052 187.041193 
z
" clip-path="url(#p4ed016bf39)" style="fill: #ff0000"/>
   </g>
   <g id="patch_8">
    <path d="M 126.330551 186.699569 
Q 124.850018 186.868905 123.249081 186.954557 
Q 121.648144 187.041193 119.904504 187.041193 
Q 114.704803 187.041193 111.667927 186.399295 
Q 108.631052 185.757396 108.631052 184.659671 
Q 108.631052 183.558008 111.667927 182.917094 
Q 114.704803 182.275195 119.904504 182.275195 
Q 121.648144 182.275195 123.249081 182.361832 
Q 124.850018 182.447484 126.330551 182.616819 
L 126.330551 183.566868 
Q 124.83664 183.342401 123.387324 183.238043 
Q 121.938007 183.133685 120.33707 183.133685 
Q 117.465193 183.133685 115.819662 183.540287 
Q 114.178589 183.945903 114.178589 184.659671 
Q 114.178589 185.370485 115.819662 185.777086 
Q 117.465193 186.182703 120.33707 186.182703 
Q 121.938007 186.182703 123.387324 186.078345 
Q 124.83664 185.973003 126.330551 185.748536 
L 126.330551 186.699569 
z
" clip-path="url(#p4ed016bf39)" style="fill: #0000ff"/>
   </g>
   <g id="patch_9">
    <path d="M 126.330551 168.799726 
Q 124.545527 175.53746 122.625636 178.921711 
Q 120.705744 182.275195 118.658917 182.275195 
Q 114.033723 182.275195 111.332387 162.21582 
Q 108.631052 142.156446 108.631052 107.852454 
Q 108.631052 73.148505 111.379988 53.24296 
Q 114.132891 33.337415 118.92072 33.337415 
Q 120.765244 33.337415 122.455067 36.044815 
Q 124.148856 38.721449 125.648275 44.013186 
L 125.648275 73.702291 
Q 124.101255 66.903025 122.570102 63.54954 
Q 121.038948 60.16529 119.499861 60.16529 
Q 116.651757 60.16529 115.108704 72.533187 
Q 113.56565 84.870317 113.56565 107.852454 
Q 113.56565 130.619229 115.053169 143.048657 
Q 116.540689 155.44732 119.277725 155.44732 
Q 120.023468 155.44732 120.66211 154.739704 
Q 121.300752 154.001322 121.808492 152.463026 
L 121.808492 124.58911 
L 118.892953 124.58911 
L 118.892953 99.761019 
L 126.330551 99.761019 
L 126.330551 168.799726 
z
" clip-path="url(#p4ed016bf39)" style="fill: #ffa600"/>
   </g>
   <g id="patch_10">
    <path d="M 144.961603 191.938161 
Q 143.176579 192.08908 141.256687 192.164885 
Q 139.336795 192.24 137.289969 192.24 
Q 132.664774 192.24 129.963439 191.790687 
Q 127.262104 191.341373 127.262104 190.572992 
Q 127.262104 189.795652 130.01104 189.349784 
Q 132.763942 188.903917 137.551772 188.903917 
Q 139.396296 188.903917 141.086118 188.96456 
Q 142.779907 189.024515 144.279327 189.143045 
L 144.279327 189.808057 
Q 142.732307 189.655759 141.201153 189.580643 
Q 139.67 189.504839 138.130913 189.504839 
Q 135.282809 189.504839 133.739755 189.78187 
Q 132.196702 190.058211 132.196702 190.572992 
Q 132.196702 191.082949 133.684221 191.361358 
Q 135.171741 191.639078 137.908777 191.639078 
Q 138.65452 191.639078 139.293162 191.623228 
Q 139.931803 191.606689 140.439543 191.572232 
L 140.439543 190.947879 
L 137.524005 190.947879 
L 137.524005 190.391751 
L 144.961603 190.391751 
L 144.961603 191.938161 
z
" clip-path="url(#p4ed016bf39)" style="fill: #ffa600"/>
   </g>
   <g id="patch_11">
    <path d="M 139.522562 187.607446 
L 132.715619 187.607446 
L 131.640839 188.903917 
L 127.262104 188.903917 
L 133.515372 181.787056 
L 138.708335 181.787056 
L 144.961603 188.903917 
L 140.586486 188.903917 
L 139.522562 187.607446 
z
M 133.801256 186.286571 
L 138.426069 186.286571 
L 136.117281 183.45569 
L 133.801256 186.286571 
z
" clip-path="url(#p4ed016bf39)" style="fill: #008000"/>
   </g>
   <g id="patch_12">
    <path d="M 144.961603 180.633654 
Q 143.48107 181.205369 141.880133 181.494551 
Q 140.279195 181.787056 138.535556 181.787056 
Q 133.335855 181.787056 130.298979 179.619857 
Q 127.262104 177.452658 127.262104 173.746482 
Q 127.262104 170.027011 130.298979 167.863136 
Q 133.335855 165.695937 138.535556 165.695937 
Q 140.279195 165.695937 141.880133 165.988442 
Q 143.48107 166.277624 144.961603 166.849339 
L 144.961603 170.056926 
Q 143.467692 169.299071 142.018375 168.946735 
Q 140.569059 168.594399 138.968121 168.594399 
Q 136.096245 168.594399 134.450713 169.96718 
Q 132.809641 171.336637 132.809641 173.746482 
Q 132.809641 176.146356 134.450713 177.519137 
Q 136.096245 178.888594 138.968121 178.888594 
Q 140.569059 178.888594 142.018375 178.536258 
Q 143.467692 178.180598 144.961603 177.422743 
L 144.961603 180.633654 
z
" clip-path="url(#p4ed016bf39)" style="fill: #0000ff"/>
   </g>
   <g id="patch_13">
    <path d="M 127.262104 74.105881 
L 144.961603 74.105881 
L 144.961603 91.968493 
L 138.593899 91.968493 
L 138.593899 165.695937 
L 133.642156 165.695937 
L 133.642156 91.968493 
L 127.262104 91.968493 
L 127.262104 74.105881 
z
" clip-path="url(#p4ed016bf39)" style="fill: #ff0000"/>
   </g>
   <g id="patch_14">
    <path d="M 158.153614 191.563988 
L 151.346671 191.563988 
L 150.27189 192.24 
L 145.893155 192.24 
L 152.146423 188.529093 
L 157.339386 188.529093 
L 163.592654 192.24 
L 159.217538 192.24 
L 158.153614 191.563988 
z
M 152.432308 190.875252 
L 157.057121 190.875252 
L 154.748333 189.39916 
L 152.432308 190.875252 
z
" clip-path="url(#p4ed016bf39)" style="fill: #008000"/>
   </g>
   <g id="patch_15">
    <path d="M 145.893155 184.695806 
L 163.592654 184.695806 
L 163.592654 185.443404 
L 157.224951 185.443404 
L 157.224951 188.529093 
L 152.273207 188.529093 
L 152.273207 185.443404 
L 145.893155 185.443404 
L 145.893155 184.695806 
z
" clip-path="url(#p4ed016bf39)" style="fill: #ff0000"/>
   </g>
   <g id="patch_16">
    <path d="M 163.592654 183.581817 
Q 161.807631 184.138812 159.887739 184.418581 
Q 157.967847 184.695806 155.92102 184.695806 
Q 151.295826 184.695806 148.594491 183.037539 
Q 145.893155 181.379272 145.893155 178.543432 
Q 145.893155 175.674528 148.642091 174.028978 
Q 151.394994 172.383427 156.182824 172.383427 
Q 158.027348 172.383427 159.71717 172.607242 
Q 161.410959 172.828514 162.910379 173.265971 
L 162.910379 175.720308 
Q 161.363358 175.158227 159.832205 174.881001 
Q 158.301052 174.601232 156.761965 174.601232 
Q 153.913861 174.601232 152.370807 175.623661 
Q 150.827753 176.643546 150.827753 178.543432 
Q 150.827753 180.425514 152.315273 181.453029 
Q 153.802792 182.478001 156.539828 182.478001 
Q 157.285572 182.478001 157.924213 182.419504 
Q 158.562855 182.358464 159.070595 182.231296 
L 159.070595 179.927017 
L 156.155057 179.927017 
L 156.155057 177.87453 
L 163.592654 177.87453 
L 163.592654 183.581817 
z
" clip-path="url(#p4ed016bf39)" style="fill: #ffa600"/>
   </g>
   <g id="patch_17">
    <path d="M 163.592654 166.233067 
Q 162.112122 169.28166 160.511185 170.823682 
Q 158.910247 172.383427 157.166608 172.383427 
Q 151.966906 172.383427 148.930031 160.82713 
Q 145.893155 149.270833 145.893155 129.508148 
Q 145.893155 109.674565 148.930031 98.135992 
Q 151.966906 86.579695 157.166608 86.579695 
Q 158.910247 86.579695 160.511185 88.139441 
Q 162.112122 89.681462 163.592654 92.730056 
L 163.592654 109.834084 
Q 162.098744 105.792925 160.649427 103.914141 
Q 159.200111 102.035356 157.599173 102.035356 
Q 154.727297 102.035356 153.081765 109.355526 
Q 151.440693 116.657971 151.440693 129.508148 
Q 151.440693 142.305151 153.081765 149.625321 
Q 154.727297 156.927766 157.599173 156.927766 
Q 159.200111 156.927766 160.649427 155.048982 
Q 162.098744 153.152473 163.592654 149.111314 
L 163.592654 166.233067 
z
" clip-path="url(#p4ed016bf39)" style="fill: #0000ff"/>
   </g>
   <g id="patch_18">
    <path d="M 164.524207 178.590804 
L 182.223706 178.590804 
L 182.223706 181.252777 
L 175.856003 181.252777 
L 175.856003 192.24 
L 170.904259 192.24 
L 170.904259 181.252777 
L 164.524207 181.252777 
L 164.524207 178.590804 
z
" clip-path="url(#p4ed016bf39)" style="fill: #ff0000"/>
   </g>
   <g id="patch_19">
    <path d="M 182.223706 177.336104 
Q 180.438683 177.963454 178.518791 178.278561 
Q 176.598899 178.590804 174.552072 178.590804 
Q 169.926878 178.590804 167.225542 176.723077 
Q 164.524207 174.855351 164.524207 171.66131 
Q 164.524207 168.430029 167.273143 166.576625 
Q 170.026046 164.723222 174.813876 164.723222 
Q 176.6584 164.723222 178.348222 164.975308 
Q 180.042011 165.224529 181.541431 165.717242 
L 181.541431 168.481592 
Q 179.99441 167.848513 178.463257 167.53627 
Q 176.932103 167.221163 175.393016 167.221163 
Q 172.544912 167.221163 171.001859 168.372736 
Q 169.458805 169.521445 169.458805 171.66131 
Q 169.458805 173.781122 170.946325 174.938425 
Q 172.433844 176.092863 175.17088 176.092863 
Q 175.916623 176.092863 176.555265 176.026977 
Q 177.193907 175.958226 177.701647 175.814996 
L 177.701647 173.219658 
L 174.786108 173.219658 
L 174.786108 170.907917 
L 182.223706 170.907917 
L 182.223706 177.336104 
z
" clip-path="url(#p4ed016bf39)" style="fill: #ffa600"/>
   </g>
   <g id="patch_20">
    <path d="M 182.223706 163.460223 
Q 180.743174 164.086263 179.142236 164.402922 
Q 177.541299 164.723222 175.79766 164.723222 
Q 170.597958 164.723222 167.561083 162.350094 
Q 164.524207 159.976967 164.524207 155.918627 
Q 164.524207 151.845729 167.561083 149.476241 
Q 170.597958 147.103113 175.79766 147.103113 
Q 177.541299 147.103113 179.142236 147.423412 
Q 180.743174 147.740072 182.223706 148.366112 
L 182.223706 151.878486 
Q 180.729795 151.04862 179.280479 150.662804 
Q 177.831162 150.276989 176.230225 150.276989 
Q 173.358349 150.276989 171.712817 151.780213 
Q 170.071745 153.279796 170.071745 155.918627 
Q 170.071745 158.546538 171.712817 160.049762 
Q 173.358349 161.549346 176.230225 161.549346 
Q 177.831162 161.549346 179.280479 161.16353 
Q 180.729795 160.774075 182.223706 159.944209 
L 182.223706 163.460223 
z
" clip-path="url(#p4ed016bf39)" style="fill: #0000ff"/>
   </g>
   <g id="patch_21">
    <path d="M 200.854758 191.707136 
Q 199.069734 191.973568 197.149843 192.107392 
Q 195.229951 192.24 193.183124 192.24 
Q 188.55793 192.24 185.856594 191.446787 
Q 183.155259 190.653574 183.155259 189.297083 
Q 183.155259 187.924776 185.904195 187.137646 
Q 188.657098 186.350516 193.444927 186.350516 
Q 195.289451 186.350516 196.979274 186.457575 
Q 198.673063 186.563418 200.172482 186.772671 
L 200.172482 187.946674 
Q 198.625462 187.677809 197.094309 187.545202 
Q 195.563155 187.411377 194.024068 187.411377 
Q 191.175964 187.411377 189.632911 187.900444 
Q 188.089857 188.388295 188.089857 189.297083 
Q 188.089857 190.197355 189.577376 190.688855 
Q 191.064896 191.179139 193.801932 191.179139 
Q 194.547675 191.179139 195.186317 191.151157 
Q 195.824959 191.121959 196.332699 191.06113 
L 196.332699 189.958905 
L 193.41716 189.958905 
L 193.41716 188.977121 
L 200.854758 188.977121 
L 200.854758 191.707136 
z
" clip-path="url(#p4ed016bf39)" style="fill: #ffa600"/>
   </g>
   <g id="patch_22">
    <path d="M 200.854758 184.392522 
Q 199.374225 185.363055 197.773288 185.853964 
Q 196.172351 186.350516 194.428711 186.350516 
Q 189.22901 186.350516 186.192134 182.671519 
Q 183.155259 178.992522 183.155259 172.700985 
Q 183.155259 166.386878 186.192134 162.713523 
Q 189.22901 159.034526 194.428711 159.034526 
Q 196.172351 159.034526 197.773288 159.531078 
Q 199.374225 160.021987 200.854758 160.99252 
L 200.854758 166.437662 
Q 199.360847 165.151141 197.911531 164.553022 
Q 196.462214 163.954903 194.861277 163.954903 
Q 191.9894 163.954903 190.343869 166.285311 
Q 188.702796 168.610076 188.702796 172.700985 
Q 188.702796 176.774967 190.343869 179.105374 
Q 191.9894 181.430139 194.861277 181.430139 
Q 196.462214 181.430139 197.911531 180.83202 
Q 199.360847 180.228258 200.854758 178.941738 
L 200.854758 184.392522 
z
" clip-path="url(#p4ed016bf39)" style="fill: #0000ff"/>
   </g>
   <g id="patch_23">
    <path d="M 183.155259 128.334391 
L 200.854758 128.334391 
L 200.854758 134.321772 
L 194.487054 134.321772 
L 194.487054 159.034526 
L 189.535311 159.034526 
L 189.535311 134.321772 
L 183.155259 134.321772 
L 183.155259 128.334391 
z
" clip-path="url(#p4ed016bf39)" style="fill: #ff0000"/>
   </g>
   <g id="patch_24">
    <path d="M 219.48581 191.417287 
Q 218.005277 191.825087 216.40434 192.031358 
Q 214.803402 192.24 213.059763 192.24 
Q 207.860062 192.24 204.823186 190.694153 
Q 201.786311 189.148306 201.786311 186.504719 
Q 201.786311 183.851647 204.823186 182.308171 
Q 207.860062 180.762324 213.059763 180.762324 
Q 214.803402 180.762324 216.40434 180.970966 
Q 218.005277 181.177237 219.48581 181.585037 
L 219.48581 183.872985 
Q 217.991899 183.332413 216.542582 183.081095 
Q 215.093266 182.829776 213.492328 182.829776 
Q 210.620452 182.829776 208.97492 183.80897 
Q 207.333848 184.785794 207.333848 186.504719 
Q 207.333848 188.216531 208.97492 189.195725 
Q 210.620452 190.172548 213.492328 190.172548 
Q 215.093266 190.172548 216.542582 189.92123 
Q 217.991899 189.66754 219.48581 189.126968 
L 219.48581 191.417287 
z
" clip-path="url(#p4ed016bf39)" style="fill: #0000ff"/>
   </g>
   <g id="patch_25">
    <path d="M 201.786311 165.872463 
L 219.48581 165.872463 
L 219.48581 168.776401 
L 213.118106 168.776401 
L 213.118106 180.762324 
L 208.166363 180.762324 
L 208.166363 168.776401 
L 201.786311 168.776401 
L 201.786311 165.872463 
z
" clip-path="url(#p4ed016bf39)" style="fill: #ff0000"/>
   </g>
   <g id="patch_26">
    <path d="M 219.48581 161.889227 
Q 217.700786 163.880845 215.780894 164.881201 
Q 213.861002 165.872463 211.814176 165.872463 
Q 207.188981 165.872463 204.487646 159.943079 
Q 201.786311 154.013696 201.786311 143.873723 
Q 201.786311 133.615526 204.535247 127.731614 
Q 207.288149 121.847701 212.075979 121.847701 
Q 213.920503 121.847701 215.610325 122.647986 
Q 217.304114 123.439177 218.803534 125.00337 
L 218.803534 133.779221 
Q 217.256514 131.769415 215.72536 130.778153 
Q 214.194207 129.777797 212.65512 129.777797 
Q 209.807016 129.777797 208.263962 133.433644 
Q 206.720909 137.080396 206.720909 143.873723 
Q 206.720909 150.603391 208.208428 154.277426 
Q 209.695948 157.942367 212.432984 157.942367 
Q 213.178727 157.942367 213.817369 157.733202 
Q 214.45601 157.514942 214.96375 157.060235 
L 214.96375 148.820939 
L 212.048212 148.820939 
L 212.048212 141.481963 
L 219.48581 141.481963 
L 219.48581 161.889227 
z
" clip-path="url(#p4ed016bf39)" style="fill: #ffa600"/>
   </g>
   <g id="patch_27">
    <path d="M 232.677821 191.809297 
L 225.870878 191.809297 
L 224.796097 192.24 
L 220.417362 192.24 
L 226.67063 189.875695 
L 231.863593 189.875695 
L 238.116861 192.24 
L 233.741745 192.24 
L 232.677821 191.809297 
z
M 226.956515 191.370487 
L 231.581328 191.370487 
L 229.27254 190.430035 
L 226.956515 191.370487 
z
" clip-path="url(#p4ed016bf39)" style="fill: #008000"/>
   </g>
   <g id="patch_28">
    <path d="M 220.417362 161.141494 
L 238.116861 161.141494 
L 238.116861 166.745464 
L 231.749158 166.745464 
L 231.749158 189.875695 
L 226.797414 189.875695 
L 226.797414 166.745464 
L 220.417362 166.745464 
L 220.417362 161.141494 
z
" clip-path="url(#p4ed016bf39)" style="fill: #ff0000"/>
   </g>
   <g id="patch_29">
    <path d="M 238.116861 159.055174 
Q 236.636329 160.089316 235.035392 160.612399 
Q 233.434454 161.141494 231.690815 161.141494 
Q 226.491113 161.141494 223.454238 157.221377 
Q 220.417362 153.301261 220.417362 146.59738 
Q 220.417362 139.86945 223.454238 135.955346 
Q 226.491113 132.035229 231.690815 132.035229 
Q 233.434454 132.035229 235.035392 132.564324 
Q 236.636329 133.087407 238.116861 134.121549 
L 238.116861 139.923562 
Q 236.622951 138.552724 235.173634 137.915404 
Q 233.724318 137.278084 232.12338 137.278084 
Q 229.251504 137.278084 227.605972 139.761226 
Q 225.9649 142.238355 225.9649 146.59738 
Q 225.9649 150.938368 227.605972 153.42151 
Q 229.251504 155.898639 232.12338 155.898639 
Q 233.724318 155.898639 235.173634 155.261319 
Q 236.622951 154.617987 238.116861 153.247149 
L 238.116861 159.055174 
z
" clip-path="url(#p4ed016bf39)" style="fill: #0000ff"/>
   </g>
   <g id="patch_30">
    <path d="M 256.747913 192.026949 
Q 254.96289 192.133475 253.042998 192.186981 
Q 251.123106 192.24 249.076279 192.24 
Q 244.451085 192.24 241.74975 191.922856 
Q 239.048414 191.605712 239.048414 191.063358 
Q 239.048414 190.51468 241.79735 190.199968 
Q 244.550253 189.885256 249.338083 189.885256 
Q 251.182607 189.885256 252.872429 189.928061 
Q 254.566218 189.970379 256.065638 190.054043 
L 256.065638 190.523435 
Q 254.518617 190.415937 252.987464 190.362917 
Q 251.45631 190.309412 249.917223 190.309412 
Q 247.069119 190.309412 245.526066 190.504951 
Q 243.983012 190.700004 243.983012 191.063358 
Q 243.983012 191.423306 245.470532 191.619819 
Q 246.958051 191.815845 249.695087 191.815845 
Q 250.44083 191.815845 251.079472 191.804657 
Q 251.718114 191.792983 252.225854 191.768662 
L 252.225854 191.327968 
L 249.310315 191.327968 
L 249.310315 190.93543 
L 256.747913 190.93543 
L 256.747913 192.026949 
z
" clip-path="url(#p4ed016bf39)" style="fill: #ffa600"/>
   </g>
   <g id="patch_31">
    <path d="M 256.747913 184.448455 
Q 255.267381 187.143353 253.666443 188.506471 
Q 252.065506 189.885256 250.321867 189.885256 
Q 245.122165 189.885256 242.08529 179.66971 
Q 239.048414 169.454163 239.048414 151.984325 
Q 239.048414 134.451815 242.08529 124.251936 
Q 245.122165 114.036389 250.321867 114.036389 
Q 252.065506 114.036389 253.666443 115.415175 
Q 255.267381 116.778292 256.747913 119.473191 
L 256.747913 134.592827 
Q 255.254002 131.020519 253.804686 129.359709 
Q 252.355369 127.6989 250.754432 127.6989 
Q 247.882556 127.6989 246.237024 134.16979 
Q 244.595952 140.625013 244.595952 151.984325 
Q 244.595952 163.296633 246.237024 169.767523 
Q 247.882556 176.222746 250.754432 176.222746 
Q 252.355369 176.222746 253.804686 174.561936 
Q 255.254002 172.885459 256.747913 169.313151 
L 256.747913 184.448455 
z
" clip-path="url(#p4ed016bf39)" style="fill: #0000ff"/>
   </g>
   <g id="patch_32">
    <path d="M 275.378965 192.163884 
Q 273.593941 192.201942 271.67405 192.221058 
Q 269.754158 192.24 267.707331 192.24 
Q 263.082137 192.24 260.380801 192.126696 
Q 257.679466 192.013391 257.679466 191.819627 
Q 257.679466 191.623603 260.428402 191.511167 
Q 263.181305 191.398732 267.969134 191.398732 
Q 269.813659 191.398732 271.503481 191.414024 
Q 273.19727 191.429143 274.696689 191.459033 
L 274.696689 191.626731 
Q 273.149669 191.588326 271.618516 191.569384 
Q 270.087362 191.550268 268.548275 191.550268 
Q 265.700171 191.550268 264.157118 191.620127 
Q 262.614064 191.689813 262.614064 191.819627 
Q 262.614064 191.948224 264.101583 192.018431 
Q 265.589103 192.088464 268.326139 192.088464 
Q 269.071882 192.088464 269.710524 192.084467 
Q 270.349166 192.080296 270.856906 192.071607 
L 270.856906 191.914163 
L 267.941367 191.914163 
L 267.941367 191.773922 
L 275.378965 191.773922 
L 275.378965 192.163884 
z
" clip-path="url(#p4ed016bf39)" style="fill: #ffa600"/>
   </g>
   <g id="patch_33">
    <path d="M 269.939924 190.938091 
L 263.132981 190.938091 
L 262.058201 191.398732 
L 257.679466 191.398732 
L 263.932734 188.870086 
L 269.125697 188.870086 
L 275.378965 191.398732 
L 271.003849 191.398732 
L 269.939924 190.938091 
z
M 264.218618 190.46878 
L 268.843431 190.46878 
L 266.534644 189.462958 
L 264.218618 190.46878 
z
" clip-path="url(#p4ed016bf39)" style="fill: #008000"/>
   </g>
   <g id="patch_34">
    <path d="M 275.378965 188.205827 
Q 273.898432 188.535085 272.297495 188.701629 
Q 270.696558 188.870086 268.952919 188.870086 
Q 263.753217 188.870086 260.716341 187.621968 
Q 257.679466 186.373849 257.679466 184.239414 
Q 257.679466 182.097321 260.716341 180.851117 
Q 263.753217 179.602999 268.952919 179.602999 
Q 270.696558 179.602999 272.297495 179.771456 
Q 273.898432 179.938 275.378965 180.267258 
L 275.378965 182.11455 
Q 273.885054 181.678091 272.435738 181.475176 
Q 270.986421 181.272261 269.385484 181.272261 
Q 266.513607 181.272261 264.868076 182.062864 
Q 263.227003 182.851552 263.227003 184.239414 
Q 263.227003 185.621533 264.868076 186.412135 
Q 266.513607 187.200824 269.385484 187.200824 
Q 270.986421 187.200824 272.435738 186.997909 
Q 273.885054 186.793079 275.378965 186.356621 
L 275.378965 188.205827 
z
" clip-path="url(#p4ed016bf39)" style="fill: #0000ff"/>
   </g>
   <g id="patch_35">
    <path d="M 257.679466 146.101179 
L 275.378965 146.101179 
L 275.378965 152.634967 
L 269.011261 152.634967 
L 269.011261 179.602999 
L 264.059518 179.602999 
L 264.059518 152.634967 
L 257.679466 152.634967 
L 257.679466 146.101179 
z
" clip-path="url(#p4ed016bf39)" style="fill: #ff0000"/>
   </g>
   <g id="patch_36">
    <path d="M 294.010017 191.703602 
Q 292.529484 191.969482 290.928547 192.103968 
Q 289.32761 192.24 287.58397 192.24 
Q 282.384269 192.24 279.347393 191.232127 
Q 276.310518 190.224255 276.310518 188.500669 
Q 276.310518 186.7709 279.347393 185.764573 
Q 282.384269 184.7567 287.58397 184.7567 
Q 289.32761 184.7567 290.928547 184.892732 
Q 292.529484 185.027218 294.010017 185.293099 
L 294.010017 186.784812 
Q 292.516106 186.432366 291.066789 186.268509 
Q 289.617473 186.104653 288.016535 186.104653 
Q 285.144659 186.104653 283.499127 186.743075 
Q 281.858055 187.379952 281.858055 188.500669 
Q 281.858055 189.616749 283.499127 190.255171 
Q 285.144659 190.892048 288.016535 190.892048 
Q 289.617473 190.892048 291.066789 190.728191 
Q 292.516106 190.562789 294.010017 190.210342 
L 294.010017 191.703602 
z
" clip-path="url(#p4ed016bf39)" style="fill: #0000ff"/>
   </g>
   <g id="patch_37">
    <path d="M 294.010017 183.348303 
Q 292.224993 184.052502 290.305101 184.406209 
Q 288.385209 184.7567 286.338383 184.7567 
Q 281.713188 184.7567 279.011853 182.660181 
Q 276.310518 180.563662 276.310518 176.978357 
Q 276.310518 173.35125 279.059454 171.270809 
Q 281.812356 169.190367 286.600186 169.190367 
Q 288.44471 169.190367 290.134532 169.473333 
Q 291.828321 169.753083 293.327741 170.306153 
L 293.327741 173.40913 
Q 291.780721 172.6985 290.249567 172.348008 
Q 288.718414 171.994301 287.179327 171.994301 
Q 284.331223 171.994301 282.788169 173.28694 
Q 281.245116 174.576364 281.245116 176.978357 
Q 281.245116 179.357842 282.732635 180.656912 
Q 284.220155 181.952767 286.957191 181.952767 
Q 287.702934 181.952767 288.341576 181.87881 
Q 288.980217 181.801637 289.487957 181.640861 
L 289.487957 178.7276 
L 286.572419 178.7276 
L 286.572419 176.132675 
L 294.010017 176.132675 
L 294.010017 183.348303 
z
" clip-path="url(#p4ed016bf39)" style="fill: #ffa600"/>
   </g>
   <g id="patch_38">
    <path d="M 276.310518 130.91201 
L 294.010017 130.91201 
L 294.010017 138.377356 
L 287.642313 138.377356 
L 287.642313 169.190367 
L 282.69057 169.190367 
L 282.69057 138.377356 
L 276.310518 138.377356 
L 276.310518 130.91201 
z
" clip-path="url(#p4ed016bf39)" style="fill: #ff0000"/>
   </g>
   <g id="patch_39">
    <path d="M 307.202028 191.939132 
L 300.395085 191.939132 
L 299.320305 192.24 
L 294.941569 192.24 
L 301.194837 190.588413 
L 306.3878 190.588413 
L 312.641068 192.24 
L 308.265952 192.24 
L 307.202028 191.939132 
z
M 301.480722 191.632601 
L 306.105535 191.632601 
L 303.796747 190.975647 
L 301.480722 191.632601 
z
" clip-path="url(#p4ed016bf39)" style="fill: #008000"/>
   </g>
   <g id="patch_40">
    <path d="M 294.941569 180.143746 
L 312.641068 180.143746 
L 312.641068 182.180747 
L 306.273365 182.180747 
L 306.273365 190.588413 
L 301.321621 190.588413 
L 301.321621 182.180747 
L 294.941569 182.180747 
L 294.941569 180.143746 
z
" clip-path="url(#p4ed016bf39)" style="fill: #ff0000"/>
   </g>
   <g id="patch_41">
    <path d="M 312.641068 178.83208 
Q 310.856045 179.487913 308.936153 179.817327 
Q 307.016261 180.143746 304.969434 180.143746 
Q 300.34424 180.143746 297.642905 178.191221 
Q 294.941569 176.238697 294.941569 172.899641 
Q 294.941569 169.521654 297.690505 167.584103 
Q 300.443408 165.646553 305.231238 165.646553 
Q 307.075762 165.646553 308.765584 165.910083 
Q 310.459373 166.17062 311.958793 166.685703 
L 311.958793 169.575558 
Q 310.411772 168.913737 308.880619 168.587318 
Q 307.349466 168.257904 305.810379 168.257904 
Q 302.962275 168.257904 301.419221 169.461761 
Q 299.876167 170.662623 299.876167 172.899641 
Q 299.876167 175.115696 301.363687 176.325542 
Q 302.851207 177.532394 305.588242 177.532394 
Q 306.333986 177.532394 306.972627 177.463517 
Q 307.611269 177.391645 308.119009 177.241911 
L 308.119009 174.528741 
L 305.203471 174.528741 
L 305.203471 172.112043 
L 312.641068 172.112043 
L 312.641068 178.83208 
z
" clip-path="url(#p4ed016bf39)" style="fill: #ffa600"/>
   </g>
   <g id="patch_42">
    <path d="M 312.641068 163.673826 
Q 311.160536 164.651662 309.559599 165.146265 
Q 307.958661 165.646553 306.215022 165.646553 
Q 301.01532 165.646553 297.978445 161.939873 
Q 294.941569 158.233194 294.941569 151.894318 
Q 294.941569 145.532701 297.978445 141.831707 
Q 301.01532 138.125028 306.215022 138.125028 
Q 307.958661 138.125028 309.559599 138.625316 
Q 311.160536 139.119919 312.641068 140.097755 
L 312.641068 145.583867 
Q 311.147158 144.287666 309.697841 143.685047 
Q 308.248525 143.082427 306.647587 143.082427 
Q 303.775711 143.082427 302.130179 145.43037 
Q 300.489107 147.772627 300.489107 151.894318 
Q 300.489107 155.998953 302.130179 158.346896 
Q 303.775711 160.689153 306.647587 160.689153 
Q 308.248525 160.689153 309.697841 160.086534 
Q 311.147158 159.478229 312.641068 158.182028 
L 312.641068 163.673826 
z
" clip-path="url(#p4ed016bf39)" style="fill: #0000ff"/>
   </g>
   <g id="patch_43">
    <path d="M 313.572621 184.22773 
L 331.27212 184.22773 
L 331.27212 185.790346 
L 324.904417 185.790346 
L 324.904417 192.24 
L 319.952673 192.24 
L 319.952673 185.790346 
L 313.572621 185.790346 
L 313.572621 184.22773 
z
" clip-path="url(#p4ed016bf39)" style="fill: #ff0000"/>
   </g>
   <g id="patch_44">
    <path d="M 331.27212 182.784133 
Q 329.791588 183.499691 328.19065 183.861631 
Q 326.589713 184.22773 324.846074 184.22773 
Q 319.646372 184.22773 316.609497 181.515265 
Q 313.572621 178.802799 313.572621 174.16415 
Q 313.572621 169.508861 316.609497 166.800555 
Q 319.646372 164.08809 324.846074 164.08809 
Q 326.589713 164.08809 328.19065 164.454189 
Q 329.791588 164.816129 331.27212 165.531687 
L 331.27212 169.546303 
Q 329.778209 168.597772 328.328893 168.156788 
Q 326.879576 167.715804 325.278639 167.715804 
Q 322.406763 167.715804 320.761231 169.433977 
Q 319.120159 171.147989 319.120159 174.16415 
Q 319.120159 177.167832 320.761231 178.886004 
Q 322.406763 180.600016 325.278639 180.600016 
Q 326.879576 180.600016 328.328893 180.159032 
Q 329.778209 179.713888 331.27212 178.765357 
L 331.27212 182.784133 
z
" clip-path="url(#p4ed016bf39)" style="fill: #0000ff"/>
   </g>
   <g id="patch_45">
    <path d="M 331.27212 158.184033 
Q 329.487097 161.136062 327.567205 162.618815 
Q 325.647313 164.08809 323.600486 164.08809 
Q 318.975292 164.08809 316.273957 155.299403 
Q 313.572621 146.510716 313.572621 131.480983 
Q 313.572621 116.276016 316.321557 107.554727 
Q 319.07446 98.833438 323.86229 98.833438 
Q 325.706814 98.833438 327.396636 100.019641 
Q 329.090425 101.192365 330.589845 103.510853 
L 330.589845 116.518648 
Q 329.042824 113.539661 327.511671 112.070387 
Q 325.980517 110.587633 324.44143 110.587633 
Q 321.593326 110.587633 320.050273 116.006424 
Q 318.507219 121.411736 318.507219 131.480983 
Q 318.507219 141.455873 319.994739 146.901624 
Q 321.482258 152.333895 324.219294 152.333895 
Q 324.965037 152.333895 325.603679 152.023865 
Q 326.242321 151.700355 326.750061 151.026376 
L 326.750061 138.813875 
L 323.834523 138.813875 
L 323.834523 127.935853 
L 331.27212 127.935853 
L 331.27212 158.184033 
z
" clip-path="url(#p4ed016bf39)" style="fill: #ffa600"/>
   </g>
   <g id="patch_46">
    <path d="M 332.203673 189.178031 
L 349.903172 189.178031 
L 349.903172 189.775201 
L 343.535468 189.775201 
L 343.535468 192.24 
L 338.583725 192.24 
L 338.583725 189.775201 
L 332.203673 189.775201 
L 332.203673 189.178031 
z
" clip-path="url(#p4ed016bf39)" style="fill: #ff0000"/>
   </g>
   <g id="patch_47">
    <path d="M 349.903172 179.002248 
Q 348.422639 184.046152 346.821702 186.597429 
Q 345.220765 189.178031 343.477126 189.178031 
Q 338.277424 189.178031 335.240548 170.058115 
Q 332.203673 150.938199 332.203673 118.240796 
Q 332.203673 85.426094 335.240548 66.335503 
Q 338.277424 47.215587 343.477126 47.215587 
Q 345.220765 47.215587 346.821702 49.796189 
Q 348.422639 52.347466 349.903172 57.39137 
L 349.903172 85.690019 
Q 348.409261 79.003913 346.959945 75.895461 
Q 345.510628 72.787008 343.909691 72.787008 
Q 341.037814 72.787008 339.392283 84.898243 
Q 337.75121 96.980154 337.75121 118.240796 
Q 337.75121 139.413464 339.392283 151.5247 
Q 341.037814 163.60661 343.909691 163.60661 
Q 345.510628 163.60661 346.959945 160.498157 
Q 348.409261 157.36038 349.903172 150.674274 
L 349.903172 179.002248 
z
" clip-path="url(#p4ed016bf39)" style="fill: #0000ff"/>
   </g>
   <g id="patch_48">
    <path d="M 363.095183 192.168085 
L 356.28824 192.168085 
L 355.21346 192.24 
L 350.834725 192.24 
L 357.087993 191.845231 
L 362.280956 191.845231 
L 368.534224 192.24 
L 364.159107 192.24 
L 363.095183 192.168085 
z
M 357.373877 192.094817 
L 361.99869 192.094817 
L 359.689902 191.937789 
L 357.373877 192.094817 
z
" clip-path="url(#p4ed016bf39)" style="fill: #008000"/>
   </g>
   <g id="patch_49">
    <path d="M 368.534224 191.411306 
Q 367.053691 191.626393 365.452754 191.735186 
Q 363.851817 191.845231 362.108177 191.845231 
Q 356.908476 191.845231 353.8716 191.029903 
Q 350.834725 190.214575 350.834725 188.820264 
Q 350.834725 187.420952 353.8716 186.606875 
Q 356.908476 185.791547 362.108177 185.791547 
Q 363.851817 185.791547 365.452754 185.901591 
Q 367.053691 186.010385 368.534224 186.225471 
L 368.534224 187.432206 
Q 367.040313 187.147092 365.590996 187.014538 
Q 364.14168 186.881985 362.540743 186.881985 
Q 359.668866 186.881985 358.023334 187.398443 
Q 356.382262 187.91365 356.382262 188.820264 
Q 356.382262 189.723127 358.023334 190.239585 
Q 359.668866 190.754792 362.540743 190.754792 
Q 364.14168 190.754792 365.590996 190.622239 
Q 367.040313 190.488435 368.534224 190.20332 
L 368.534224 191.411306 
z
" clip-path="url(#p4ed016bf39)" style="fill: #0000ff"/>
   </g>
   <g id="patch_50">
    <path d="M 350.834725 170.321163 
L 368.534224 170.321163 
L 368.534224 173.338319 
L 362.16652 173.338319 
L 362.16652 185.791547 
L 357.214777 185.791547 
L 357.214777 173.338319 
L 350.834725 173.338319 
L 350.834725 170.321163 
z
" clip-path="url(#p4ed016bf39)" style="fill: #ff0000"/>
   </g>
   <g id="patch_51">
    <path d="M 368.534224 164.122027 
Q 366.7492 167.221595 364.829308 168.778456 
Q 362.909416 170.321163 360.86259 170.321163 
Q 356.237396 170.321163 353.53606 161.093225 
Q 350.834725 151.865287 350.834725 136.084381 
Q 350.834725 120.119483 353.583661 110.962311 
Q 356.336563 101.80514 361.124393 101.80514 
Q 362.968917 101.80514 364.658739 103.050628 
Q 366.352528 104.281964 367.851948 106.716327 
L 367.851948 120.374242 
Q 366.304928 117.246367 364.773774 115.70366 
Q 363.242621 114.146799 361.703534 114.146799 
Q 358.85543 114.146799 357.312376 119.836417 
Q 355.769323 125.511882 355.769323 136.084381 
Q 355.769323 146.557808 357.256842 152.275732 
Q 358.744362 157.979504 361.481398 157.979504 
Q 362.227141 157.979504 362.865783 157.653978 
Q 363.504424 157.3143 364.012164 156.606636 
L 364.012164 143.783765 
L 361.096626 143.783765 
L 361.096626 132.362069 
L 368.534224 132.362069 
L 368.534224 164.122027 
z
" clip-path="url(#p4ed016bf39)" style="fill: #ffa600"/>
   </g>
   <g id="patch_52">
    <path d="M 369.465776 192.066146 
L 387.165275 192.066146 
L 387.165275 192.100052 
L 380.797572 192.100052 
L 380.797572 192.24 
L 375.845828 192.24 
L 375.845828 192.100052 
L 369.465776 192.100052 
L 369.465776 192.066146 
z
" clip-path="url(#p4ed016bf39)" style="fill: #ff0000"/>
   </g>
   <g id="patch_53">
    <path d="M 387.165275 180.109205 
Q 385.684743 186.035988 384.083806 189.033838 
Q 382.482868 192.066146 380.739229 192.066146 
Q 375.539527 192.066146 372.502652 169.599501 
Q 369.465776 147.132856 369.465776 108.712137 
Q 369.465776 70.153585 372.502652 47.721399 
Q 375.539527 25.254754 380.739229 25.254754 
Q 382.482868 25.254754 384.083806 28.287062 
Q 385.684743 31.284911 387.165275 37.211695 
L 387.165275 70.463708 
Q 385.671365 62.607274 384.222048 58.954721 
Q 382.772732 55.302168 381.171794 55.302168 
Q 378.299918 55.302168 376.654386 69.533341 
Q 375.013314 83.730055 375.013314 108.712137 
Q 375.013314 133.590845 376.654386 147.822017 
Q 378.299918 162.018731 381.171794 162.018731 
Q 382.772732 162.018731 384.222048 158.366179 
Q 385.671365 154.679168 387.165275 146.822734 
L 387.165275 180.109205 
z
" clip-path="url(#p4ed016bf39)" style="fill: #0000ff"/>
   </g>
   <g id="patch_54">
    <path d="M 405.796327 191.897549 
Q 404.315795 192.067294 402.714857 192.153154 
Q 401.11392 192.24 399.370281 192.24 
Q 394.170579 192.24 391.133704 191.596548 
Q 388.096828 190.953095 388.096828 189.852712 
Q 388.096828 188.748382 391.133704 188.105917 
Q 394.170579 187.462464 399.370281 187.462464 
Q 401.11392 187.462464 402.714857 187.54931 
Q 404.315795 187.63517 405.796327 187.804915 
L 405.796327 188.757264 
Q 404.302416 188.532253 402.8531 188.427643 
Q 401.403783 188.323032 399.802846 188.323032 
Q 396.93097 188.323032 395.285438 188.730618 
Q 393.644366 189.137217 393.644366 189.852712 
Q 393.644366 190.565247 395.285438 190.972833 
Q 396.93097 191.379432 399.802846 191.379432 
Q 401.403783 191.379432 402.8531 191.274821 
Q 404.302416 191.169224 405.796327 190.944213 
L 405.796327 191.897549 
z
" clip-path="url(#p4ed016bf39)" style="fill: #0000ff"/>
   </g>
   <g id="patch_55">
    <path d="M 405.796327 185.556506 
Q 404.011304 186.509485 402.091412 186.98815 
Q 400.17152 187.462464 398.124693 187.462464 
Q 393.499499 187.462464 390.798164 184.625284 
Q 388.096828 181.788104 388.096828 176.936179 
Q 388.096828 172.027684 390.845764 169.212261 
Q 393.598667 166.396839 398.386497 166.396839 
Q 400.231021 166.396839 401.920843 166.779771 
Q 403.614632 167.158352 405.114052 167.906811 
L 405.114052 172.106011 
Q 403.567031 171.144329 402.035878 170.670015 
Q 400.504724 170.19135 398.965637 170.19135 
Q 396.117533 170.19135 394.57448 171.940654 
Q 393.031426 173.685606 393.031426 176.936179 
Q 393.031426 180.156291 394.518946 181.914298 
Q 396.006465 183.667954 398.743501 183.667954 
Q 399.489244 183.667954 400.127886 183.567869 
Q 400.766528 183.463433 401.274268 183.245858 
L 401.274268 179.303396 
L 398.35873 179.303396 
L 398.35873 175.791734 
L 405.796327 175.791734 
L 405.796327 185.556506 
z
" clip-path="url(#p4ed016bf39)" style="fill: #ffa600"/>
   </g>
   <g id="patch_56">
    <path d="M 388.096828 122.668731 
L 405.796327 122.668731 
L 405.796327 131.19693 
L 399.428624 131.19693 
L 399.428624 166.396839 
L 394.47688 166.396839 
L 394.47688 131.19693 
L 388.096828 131.19693 
L 388.096828 122.668731 
z
" clip-path="url(#p4ed016bf39)" style="fill: #ff0000"/>
   </g>
   <g id="patch_57">
    <path d="M 406.72788 189.150965 
L 424.427379 189.150965 
L 424.427379 189.753413 
L 418.059675 189.753413 
L 418.059675 192.24 
L 413.107932 192.24 
L 413.107932 189.753413 
L 406.72788 189.753413 
L 406.72788 189.150965 
z
" clip-path="url(#p4ed016bf39)" style="fill: #ff0000"/>
   </g>
   <g id="patch_58">
    <path d="M 424.427379 188.323634 
Q 422.946846 188.733723 421.345909 188.941152 
Q 419.744972 189.150965 418.001333 189.150965 
Q 412.801631 189.150965 409.764755 187.596442 
Q 406.72788 186.041919 406.72788 183.383494 
Q 406.72788 180.715532 409.764755 179.163393 
Q 412.801631 177.60887 418.001333 177.60887 
Q 419.744972 177.60887 421.345909 177.818683 
Q 422.946846 178.026112 424.427379 178.436201 
L 424.427379 180.73699 
Q 422.933468 180.193384 421.484152 179.940655 
Q 420.034835 179.687925 418.433898 179.687925 
Q 415.562021 179.687925 413.91649 180.672616 
Q 412.275417 181.654922 412.275417 183.383494 
Q 412.275417 185.104913 413.91649 186.089604 
Q 415.562021 187.07191 418.433898 187.07191 
Q 420.034835 187.07191 421.484152 186.81918 
Q 422.933468 186.564067 424.427379 186.020461 
L 424.427379 188.323634 
z
" clip-path="url(#p4ed016bf39)" style="fill: #0000ff"/>
   </g>
   <g id="patch_59">
    <path d="M 424.427379 172.120919 
Q 422.642356 174.864895 420.722464 176.243147 
Q 418.802572 177.60887 416.755745 177.60887 
Q 412.130551 177.60887 409.429215 169.439592 
Q 406.72788 161.270313 406.72788 147.299844 
Q 406.72788 133.166491 409.476816 125.05986 
Q 412.229719 116.95323 417.017548 116.95323 
Q 418.862073 116.95323 420.551895 118.055832 
Q 422.245684 119.145904 423.745103 121.30099 
L 423.745103 133.392023 
Q 422.198083 130.622989 420.66693 129.257266 
Q 419.135776 127.879013 417.596689 127.879013 
Q 414.748585 127.879013 413.205532 132.9159 
Q 411.662478 137.940257 411.662478 147.299844 
Q 411.662478 156.571725 413.149997 161.63367 
Q 414.637517 166.683087 417.374553 166.683087 
Q 418.120296 166.683087 418.758938 166.394906 
Q 419.39758 166.094197 419.90532 165.467718 
L 419.90532 154.115929 
L 416.989781 154.115929 
L 416.989781 144.004568 
L 424.427379 144.004568 
L 424.427379 172.120919 
z
" clip-path="url(#p4ed016bf39)" style="fill: #ffa600"/>
   </g>
   <g id="patch_60">
    <path d="M 443.058431 192.179173 
Q 441.273407 192.209586 439.353515 192.224863 
Q 437.433623 192.24 435.386797 192.24 
Q 430.761603 192.24 428.060267 192.149453 
Q 425.358932 192.058906 425.358932 191.90406 
Q 425.358932 191.747409 428.107868 191.657556 
Q 430.86077 191.567704 435.6486 191.567704 
Q 437.493124 191.567704 439.182946 191.579925 
Q 440.876735 191.592007 442.376155 191.615894 
L 442.376155 191.749909 
Q 440.829135 191.719217 439.297981 191.70408 
Q 437.766828 191.688803 436.227741 191.688803 
Q 433.379637 191.688803 431.836583 191.744631 
Q 430.29353 191.80032 430.29353 191.90406 
Q 430.29353 192.006828 431.781049 192.062934 
Q 433.268569 192.118901 436.005605 192.118901 
Q 436.751348 192.118901 437.38999 192.115706 
Q 438.028631 192.112373 438.536371 192.10543 
L 438.536371 191.979609 
L 435.620833 191.979609 
L 435.620833 191.867536 
L 443.058431 191.867536 
L 443.058431 192.179173 
z
" clip-path="url(#p4ed016bf39)" style="fill: #ffa600"/>
   </g>
   <g id="patch_61">
    <path d="M 443.058431 182.08306 
Q 441.577898 186.784382 439.976961 189.162376 
Q 438.376024 191.567704 436.632384 191.567704 
Q 431.432683 191.567704 428.395807 173.746414 
Q 425.358932 155.925123 425.358932 125.44853 
Q 425.358932 94.862603 428.395807 77.068646 
Q 431.432683 59.247356 436.632384 59.247356 
Q 438.376024 59.247356 439.976961 61.652683 
Q 441.577898 64.030678 443.058431 68.732 
L 443.058431 95.108603 
Q 441.56452 88.876618 440.115203 85.979292 
Q 438.665887 83.081965 437.06495 83.081965 
Q 434.193073 83.081965 432.547541 94.370605 
Q 430.906469 105.631911 430.906469 125.44853 
Q 430.906469 145.183149 432.547541 156.471789 
Q 434.193073 167.733095 437.06495 167.733095 
Q 438.665887 167.733095 440.115203 164.835768 
Q 441.56452 161.911109 443.058431 155.679124 
L 443.058431 182.08306 
z
" clip-path="url(#p4ed016bf39)" style="fill: #0000ff"/>
   </g>
   <g id="patch_62">
    <path d="M 461.689482 192.159529 
Q 460.20895 192.199417 458.608013 192.219592 
Q 457.007075 192.24 455.263436 192.24 
Q 450.063734 192.24 447.026859 192.088798 
Q 443.989983 191.937595 443.989983 191.679021 
Q 443.989983 191.419518 447.026859 191.268548 
Q 450.063734 191.117346 455.263436 191.117346 
Q 457.007075 191.117346 458.608013 191.137753 
Q 460.20895 191.157929 461.689482 191.197817 
L 461.689482 191.421606 
Q 460.195572 191.368731 458.746255 191.344149 
Q 457.296939 191.319567 455.696001 191.319567 
Q 452.824125 191.319567 451.178593 191.415344 
Q 449.537521 191.510889 449.537521 191.679021 
Q 449.537521 191.846456 451.178593 191.942233 
Q 452.824125 192.037778 455.696001 192.037778 
Q 457.296939 192.037778 458.746255 192.013196 
Q 460.195572 191.988383 461.689482 191.935508 
L 461.689482 192.159529 
z
" clip-path="url(#p4ed016bf39)" style="fill: #0000ff"/>
   </g>
   <g id="patch_63">
    <path d="M 461.689482 189.987652 
Q 459.904459 190.552499 457.984567 190.836212 
Q 456.064675 191.117346 454.017848 191.117346 
Q 449.392654 191.117346 446.691319 189.435701 
Q 443.989983 187.754056 443.989983 184.878237 
Q 443.989983 181.968889 446.738919 180.30014 
Q 449.491822 178.631392 454.279652 178.631392 
Q 456.124176 178.631392 457.813998 178.858362 
Q 459.507787 179.082753 461.007207 179.526377 
L 461.007207 182.015315 
Q 459.460187 181.445309 457.929033 181.164175 
Q 456.39788 180.880462 454.858793 180.880462 
Q 452.010689 180.880462 450.467635 181.917305 
Q 448.924581 182.951568 448.924581 184.878237 
Q 448.924581 186.786853 450.412101 187.828853 
Q 451.899621 188.868275 454.636656 188.868275 
Q 455.3824 188.868275 456.021041 188.808953 
Q 456.659683 188.747052 457.167423 188.618091 
L 457.167423 186.281327 
L 454.251885 186.281327 
L 454.251885 184.199905 
L 461.689482 184.199905 
L 461.689482 189.987652 
z
" clip-path="url(#p4ed016bf39)" style="fill: #ffa600"/>
   </g>
   <g id="patch_64">
    <path d="M 443.989983 160.747398 
L 461.689482 160.747398 
L 461.689482 164.235275 
L 455.321779 164.235275 
L 455.321779 178.631392 
L 450.370035 178.631392 
L 450.370035 164.235275 
L 443.989983 164.235275 
L 443.989983 160.747398 
z
" clip-path="url(#p4ed016bf39)" style="fill: #ff0000"/>
   </g>
   <g id="patch_65">
    <path d="M 480.320534 192.099824 
Q 478.840002 192.169306 477.239064 192.204451 
Q 475.638127 192.24 473.894488 192.24 
Q 468.694786 192.24 465.657911 191.976614 
Q 462.621035 191.713227 462.621035 191.262804 
Q 462.621035 190.810766 465.657911 190.547783 
Q 468.694786 190.284397 473.894488 190.284397 
Q 475.638127 190.284397 477.239064 190.319946 
Q 478.840002 190.355091 480.320534 190.424573 
L 480.320534 190.814401 
Q 478.826623 190.722297 477.377307 190.679476 
Q 475.92799 190.636656 474.327053 190.636656 
Q 471.455177 190.636656 469.809645 190.803494 
Q 468.168573 190.969929 468.168573 191.262804 
Q 468.168573 191.554468 469.809645 191.721307 
Q 471.455177 191.887741 474.327053 191.887741 
Q 475.92799 191.887741 477.377307 191.844921 
Q 478.826623 191.801696 480.320534 191.709592 
L 480.320534 192.099824 
z
" clip-path="url(#p4ed016bf39)" style="fill: #0000ff"/>
   </g>
   <g id="patch_66">
    <path d="M 480.320534 186.833721 
Q 478.535511 188.559059 476.615619 189.425667 
Q 474.695727 190.284397 472.6489 190.284397 
Q 468.023706 190.284397 465.322371 185.147775 
Q 462.621035 180.011153 462.621035 171.226898 
Q 462.621035 162.340227 465.369971 157.242996 
Q 468.122874 152.145765 472.910704 152.145765 
Q 474.755228 152.145765 476.44505 152.839051 
Q 478.138839 153.52446 479.638259 154.879519 
L 479.638259 162.482035 
Q 478.091238 160.740941 476.560085 159.882211 
Q 475.028931 159.015603 473.489844 159.015603 
Q 470.64174 159.015603 469.098687 162.182662 
Q 467.555633 165.341842 467.555633 171.226898 
Q 467.555633 177.056807 469.043153 180.239622 
Q 470.530672 183.414559 473.267708 183.414559 
Q 474.013451 183.414559 474.652093 183.233359 
Q 475.290735 183.044281 475.798475 182.650368 
L 475.798475 175.512669 
L 472.882937 175.512669 
L 472.882937 169.154917 
L 480.320534 169.154917 
L 480.320534 186.833721 
z
" clip-path="url(#p4ed016bf39)" style="fill: #ffa600"/>
   </g>
   <g id="patch_67">
    <path d="M 481.252087 190.034346 
L 498.951586 190.034346 
L 498.951586 190.46451 
L 492.583882 190.46451 
L 492.583882 192.24 
L 487.632139 192.24 
L 487.632139 190.46451 
L 481.252087 190.46451 
L 481.252087 190.034346 
z
" clip-path="url(#p4ed016bf39)" style="fill: #ff0000"/>
   </g>
   <g id="patch_68">
    <path d="M 498.951586 189.266143 
Q 497.166563 189.650245 495.246671 189.843173 
Q 493.326779 190.034346 491.279952 190.034346 
Q 486.654758 190.034346 483.953422 188.890811 
Q 481.252087 187.747276 481.252087 185.79169 
Q 481.252087 183.813303 484.001023 182.678537 
Q 486.753926 181.543771 491.541755 181.543771 
Q 493.38628 181.543771 495.076102 181.698113 
Q 496.769891 181.850701 498.26931 182.15237 
L 498.26931 183.844873 
Q 496.72229 183.457264 495.191137 183.26609 
Q 493.659983 183.073162 492.120896 183.073162 
Q 489.272792 183.073162 487.729739 183.778225 
Q 486.186685 184.481535 486.186685 185.79169 
Q 486.186685 187.089567 487.674205 187.798138 
Q 489.161724 188.504955 491.89876 188.504955 
Q 492.644503 188.504955 493.283145 188.464616 
Q 493.921787 188.422523 494.429527 188.334828 
L 494.429527 186.745805 
L 491.513988 186.745805 
L 491.513988 185.330417 
L 498.951586 185.330417 
L 498.951586 189.266143 
z
" clip-path="url(#p4ed016bf39)" style="fill: #ffa600"/>
   </g>
   <g id="patch_69">
    <path d="M 498.951586 180.665104 
Q 497.471053 181.100639 495.870116 181.320939 
Q 494.269179 181.543771 492.52554 181.543771 
Q 487.325838 181.543771 484.288962 179.892789 
Q 481.252087 178.241807 481.252087 175.418425 
Q 481.252087 172.584915 484.288962 170.936465 
Q 487.325838 169.285483 492.52554 169.285483 
Q 494.269179 169.285483 495.870116 169.508315 
Q 497.471053 169.728615 498.951586 170.16415 
L 498.951586 172.607705 
Q 497.457675 172.030368 496.008359 171.761956 
Q 494.559042 171.493545 492.958105 171.493545 
Q 490.086228 171.493545 488.440697 172.539336 
Q 486.799624 173.582594 486.799624 175.418425 
Q 486.799624 177.24666 488.440697 178.292451 
Q 490.086228 179.335709 492.958105 179.335709 
Q 494.559042 179.335709 496.008359 179.067298 
Q 497.457675 178.796355 498.951586 178.219017 
L 498.951586 180.665104 
z
" clip-path="url(#p4ed016bf39)" style="fill: #0000ff"/>
   </g>
   <g id="patch_70">
    <path d="M 512.143597 192.217487 
L 505.336654 192.217487 
L 504.261874 192.24 
L 499.883139 192.24 
L 506.136407 192.116417 
L 511.32937 192.116417 
L 517.582638 192.24 
L 513.207521 192.24 
L 512.143597 192.217487 
z
M 506.422291 192.19455 
L 511.047104 192.19455 
L 508.738316 192.145392 
L 506.422291 192.19455 
z
" clip-path="url(#p4ed016bf39)" style="fill: #008000"/>
   </g>
   <g id="patch_71">
    <path d="M 499.883139 191.653223 
L 517.582638 191.653223 
L 517.582638 191.743559 
L 511.214934 191.743559 
L 511.214934 192.116417 
L 506.263191 192.116417 
L 506.263191 191.743559 
L 499.883139 191.743559 
L 499.883139 191.653223 
z
" clip-path="url(#p4ed016bf39)" style="fill: #ff0000"/>
   </g>
   <g id="patch_72">
    <path d="M 517.582638 189.026736 
Q 516.102105 190.328626 514.501168 190.98714 
Q 512.900231 191.653223 511.156591 191.653223 
Q 505.95689 191.653223 502.920014 186.718153 
Q 499.883139 181.783082 499.883139 173.343506 
Q 499.883139 164.873654 502.920014 159.946153 
Q 505.95689 155.011082 511.156591 155.011082 
Q 512.900231 155.011082 514.501168 155.677165 
Q 516.102105 156.335679 517.582638 157.637569 
L 517.582638 164.941776 
Q 516.088727 163.216015 514.63941 162.413688 
Q 513.190094 161.611361 511.589157 161.611361 
Q 508.71728 161.611361 507.071748 164.73741 
Q 505.430676 167.85589 505.430676 173.343506 
Q 505.430676 178.808416 507.071748 181.934465 
Q 508.71728 185.052945 511.589157 185.052945 
Q 513.190094 185.052945 514.63941 184.250617 
Q 516.088727 183.440721 517.582638 181.71496 
L 517.582638 189.026736 
z
" clip-path="url(#p4ed016bf39)" style="fill: #0000ff"/>
   </g>
   <g id="patch_73">
    <path d="M 518.51419 190.969258 
L 536.213689 190.969258 
L 536.213689 191.217088 
L 529.845986 191.217088 
L 529.845986 192.24 
L 524.894242 192.24 
L 524.894242 191.217088 
L 518.51419 191.217088 
L 518.51419 190.969258 
z
" clip-path="url(#p4ed016bf39)" style="fill: #ff0000"/>
   </g>
   <g id="patch_74">
    <path d="M 536.213689 190.816443 
Q 534.733157 190.89219 533.13222 190.930504 
Q 531.531282 190.969258 529.787643 190.969258 
Q 524.587941 190.969258 521.551066 190.682124 
Q 518.51419 190.39499 518.51419 189.903955 
Q 518.51419 189.411159 521.551066 189.124466 
Q 524.587941 188.837331 529.787643 188.837331 
Q 531.531282 188.837331 533.13222 188.876086 
Q 534.733157 188.9144 536.213689 188.990147 
L 536.213689 189.415123 
Q 534.719779 189.314714 533.270462 189.268033 
Q 531.821146 189.221351 530.220208 189.221351 
Q 527.348332 189.221351 525.7028 189.403232 
Q 524.061728 189.584673 524.061728 189.903955 
Q 524.061728 190.221917 525.7028 190.403798 
Q 527.348332 190.585238 530.220208 190.585238 
Q 531.821146 190.585238 533.270462 190.538557 
Q 534.719779 190.491435 536.213689 190.391026 
L 536.213689 190.816443 
z
" clip-path="url(#p4ed016bf39)" style="fill: #0000ff"/>
   </g>
   <g id="patch_75">
    <path d="M 530.774649 187.288929 
L 523.967706 187.288929 
L 522.892926 188.837331 
L 518.51419 188.837331 
L 524.767458 180.337511 
L 529.960421 180.337511 
L 536.213689 188.837331 
L 531.838573 188.837331 
L 530.774649 187.288929 
z
M 525.053343 185.711379 
L 529.678156 185.711379 
L 527.369368 182.330396 
L 525.053343 185.711379 
z
" clip-path="url(#p4ed016bf39)" style="fill: #008000"/>
   </g>
   <g id="patch_76">
    <path d="M 549.405701 192.059473 
L 542.598758 192.059473 
L 541.523977 192.24 
L 537.145242 192.24 
L 543.39851 191.249011 
L 548.591473 191.249011 
L 554.844741 192.24 
L 550.469625 192.24 
L 549.405701 192.059473 
z
M 543.684395 191.875547 
L 548.309208 191.875547 
L 546.00042 191.48136 
L 543.684395 191.875547 
z
" clip-path="url(#p4ed016bf39)" style="fill: #008000"/>
   </g>
   <g id="patch_77">
    <path d="M 554.844741 190.732767 
Q 553.059718 190.990889 551.139826 191.120539 
Q 549.219934 191.249011 547.173107 191.249011 
Q 542.547913 191.249011 539.846578 190.480539 
Q 537.145242 189.712067 537.145242 188.397886 
Q 537.145242 187.068382 539.894178 186.305804 
Q 542.647081 185.543225 547.434911 185.543225 
Q 549.279435 185.543225 550.969257 185.646945 
Q 552.663046 185.749487 554.162466 185.952212 
L 554.162466 187.089598 
Q 552.615445 186.829119 551.084292 186.700647 
Q 549.553138 186.570997 548.014052 186.570997 
Q 545.165947 186.570997 543.622894 187.04481 
Q 542.07984 187.517443 542.07984 188.397886 
Q 542.07984 189.270078 543.56736 189.746248 
Q 545.054879 190.221239 547.791915 190.221239 
Q 548.537658 190.221239 549.1763 190.19413 
Q 549.814942 190.165843 550.322682 190.106911 
L 550.322682 189.039065 
L 547.407144 189.039065 
L 547.407144 188.087904 
L 554.844741 188.087904 
L 554.844741 190.732767 
z
" clip-path="url(#p4ed016bf39)" style="fill: #ffa600"/>
   </g>
   <g id="patch_78">
    <path d="M 554.844741 181.000747 
Q 553.364209 183.25235 551.763271 184.391242 
Q 550.162334 185.543225 548.418695 185.543225 
Q 543.218993 185.543225 540.182118 177.008079 
Q 537.145242 168.472932 537.145242 153.876785 
Q 537.145242 139.228275 540.182118 130.706219 
Q 543.218993 122.171073 548.418695 122.171073 
Q 550.162334 122.171073 551.763271 123.323056 
Q 553.364209 124.461948 554.844741 126.713551 
L 554.844741 139.346091 
Q 553.35083 136.361408 551.901514 134.973792 
Q 550.452197 133.586177 548.85126 133.586177 
Q 545.979384 133.586177 544.333852 138.992642 
Q 542.69278 144.386017 542.69278 153.876785 
Q 542.69278 163.328281 544.333852 168.734747 
Q 545.979384 174.128121 548.85126 174.128121 
Q 550.452197 174.128121 551.901514 172.740506 
Q 553.35083 171.339799 554.844741 168.355116 
L 554.844741 181.000747 
z
" clip-path="url(#p4ed016bf39)" style="fill: #0000ff"/>
   </g>
   <g id="patch_79">
    <path d="M 568.036752 191.484537 
L 561.22981 191.484537 
L 560.155029 192.24 
L 555.776294 192.24 
L 562.029562 188.092951 
L 567.222525 188.092951 
L 573.475793 192.24 
L 569.100677 192.24 
L 568.036752 191.484537 
z
M 562.315446 190.714853 
L 566.940259 190.714853 
L 564.631472 189.065276 
L 562.315446 190.714853 
z
" clip-path="url(#p4ed016bf39)" style="fill: #008000"/>
   </g>
   <g id="patch_80">
    <path d="M 555.776294 178.909741 
L 573.475793 178.909741 
L 573.475793 180.700723 
L 567.108089 180.700723 
L 567.108089 188.092951 
L 562.156346 188.092951 
L 562.156346 180.700723 
L 555.776294 180.700723 
L 555.776294 178.909741 
z
" clip-path="url(#p4ed016bf39)" style="fill: #ff0000"/>
   </g>
   <g id="patch_81">
    <path d="M 573.475793 177.522651 
Q 571.99526 178.2102 570.394323 178.557972 
Q 568.793386 178.909741 567.049747 178.909741 
Q 561.850045 178.909741 558.813169 176.303451 
Q 555.776294 173.697161 555.776294 169.240085 
Q 555.776294 164.76702 558.813169 162.164727 
Q 561.850045 159.558437 567.049747 159.558437 
Q 568.793386 159.558437 570.394323 159.910206 
Q 571.99526 160.257978 573.475793 160.945527 
L 573.475793 164.802996 
Q 571.981882 163.891594 570.532566 163.467872 
Q 569.083249 163.04415 567.482312 163.04415 
Q 564.610435 163.04415 562.964904 164.695067 
Q 561.323831 166.341987 561.323831 169.240085 
Q 561.323831 172.126192 562.964904 173.777109 
Q 564.610435 175.424028 567.482312 175.424028 
Q 569.083249 175.424028 570.532566 175.000306 
Q 571.981882 174.572587 573.475793 173.661185 
L 573.475793 177.522651 
z
" clip-path="url(#p4ed016bf39)" style="fill: #0000ff"/>
   </g>
   <g id="patch_82">
    <path d="M 586.667804 192.00355 
L 579.860861 192.00355 
L 578.786081 192.24 
L 574.407346 192.24 
L 580.660614 190.942026 
L 585.853577 190.942026 
L 592.106845 192.24 
L 587.731728 192.24 
L 586.667804 192.00355 
z
M 580.946498 191.762648 
L 585.571311 191.762648 
L 583.262523 191.246352 
L 580.946498 191.762648 
z
" clip-path="url(#p4ed016bf39)" style="fill: #008000"/>
   </g>
   <g id="patch_83">
    <path d="M 574.407346 186.014534 
L 592.106845 186.014534 
L 592.106845 186.975533 
L 585.739141 186.975533 
L 585.739141 190.942026 
L 580.787398 190.942026 
L 580.787398 186.975533 
L 574.407346 186.975533 
L 574.407346 186.014534 
z
" clip-path="url(#p4ed016bf39)" style="fill: #ff0000"/>
   </g>
   <g id="patch_84">
    <path d="M 592.106845 183.892591 
Q 590.626312 184.94439 589.025375 185.476405 
Q 587.424438 186.014534 585.680798 186.014534 
Q 580.481097 186.014534 577.444221 182.027483 
Q 574.407346 178.040432 574.407346 171.222085 
Q 574.407346 164.379278 577.444221 160.398342 
Q 580.481097 156.411291 585.680798 156.411291 
Q 587.424438 156.411291 589.025375 156.94942 
Q 590.626312 157.481435 592.106845 158.533234 
L 592.106845 164.434314 
Q 590.612934 163.040069 589.163617 162.391867 
Q 587.714301 161.743666 586.113364 161.743666 
Q 583.241487 161.743666 581.595955 164.269206 
Q 579.954883 166.788631 579.954883 171.222085 
Q 579.954883 175.637194 581.595955 178.162734 
Q 583.241487 180.682159 586.113364 180.682159 
Q 587.714301 180.682159 589.163617 180.033958 
Q 590.612934 179.379641 592.106845 177.985396 
L 592.106845 183.892591 
z
" clip-path="url(#p4ed016bf39)" style="fill: #0000ff"/>
   </g>
   <g id="patch_85">
    <path d="M 593.038397 191.717556 
L 610.737896 191.717556 
L 610.737896 191.819447 
L 604.370193 191.819447 
L 604.370193 192.24 
L 599.418449 192.24 
L 599.418449 191.819447 
L 593.038397 191.819447 
L 593.038397 191.717556 
z
" clip-path="url(#p4ed016bf39)" style="fill: #ff0000"/>
   </g>
   <g id="patch_86">
    <path d="M 605.298856 191.404541 
L 598.491913 191.404541 
L 597.417133 191.717556 
L 593.038397 191.717556 
L 599.291665 189.999286 
L 604.484628 189.999286 
L 610.737896 191.717556 
L 606.36278 191.717556 
L 605.298856 191.404541 
z
M 599.57755 191.085634 
L 604.202363 191.085634 
L 601.893575 190.402155 
L 599.57755 191.085634 
z
" clip-path="url(#p4ed016bf39)" style="fill: #008000"/>
   </g>
   <g id="patch_87">
    <path d="M 610.737896 188.635817 
Q 609.257364 189.311658 607.656427 189.653507 
Q 606.055489 189.999286 604.31185 189.999286 
Q 599.112148 189.999286 596.075273 187.437379 
Q 593.038397 184.875472 593.038397 180.494297 
Q 593.038397 176.097404 596.075273 173.539426 
Q 599.112148 170.977519 604.31185 170.977519 
Q 606.055489 170.977519 607.656427 171.323298 
Q 609.257364 171.665147 610.737896 172.340988 
L 610.737896 176.132768 
Q 609.243986 175.236886 607.794669 174.82038 
Q 606.345353 174.403873 604.744415 174.403873 
Q 601.872539 174.403873 600.227007 176.026676 
Q 598.585935 177.64555 598.585935 180.494297 
Q 598.585935 183.331255 600.227007 184.954058 
Q 601.872539 186.572932 604.744415 186.572932 
Q 606.345353 186.572932 607.794669 186.156426 
Q 609.243986 185.73599 610.737896 184.840108 
L 610.737896 188.635817 
z
" clip-path="url(#p4ed016bf39)" style="fill: #0000ff"/>
   </g>
   <g id="patch_88">
    <path d="M 610.737896 168.872285 
Q 608.952873 169.924902 607.032981 170.453614 
Q 605.113089 170.977519 603.066262 170.977519 
Q 598.441068 170.977519 595.739733 167.843701 
Q 593.038397 164.709883 593.038397 159.350669 
Q 593.038397 153.928971 595.787333 150.819185 
Q 598.540236 147.709399 603.328066 147.709399 
Q 605.17259 147.709399 606.862412 148.132369 
Q 608.556201 148.550531 610.055621 149.377244 
L 610.055621 154.015487 
Q 608.508601 152.953258 606.977447 152.429352 
Q 605.446294 151.900641 603.907207 151.900641 
Q 601.059103 151.900641 599.516049 153.832842 
Q 597.972995 155.760236 597.972995 159.350669 
Q 597.972995 162.907456 599.460515 164.84927 
Q 600.948035 166.786277 603.685071 166.786277 
Q 604.430814 166.786277 605.069455 166.675729 
Q 605.708097 166.560373 606.215837 166.32005 
L 606.215837 161.965388 
L 603.300299 161.965388 
L 603.300299 158.086567 
L 610.737896 158.086567 
L 610.737896 168.872285 
z
" clip-path="url(#p4ed016bf39)" style="fill: #ffa600"/>
   </g>
   <g id="patch_89">
    <path d="M 629.368948 192.151299 
Q 627.583925 192.195649 625.664033 192.217926 
Q 623.744141 192.24 621.697314 192.24 
Q 617.07212 192.24 614.370785 192.107961 
Q 611.669449 191.975921 611.669449 191.750118 
Q 611.669449 191.521682 614.418385 191.390655 
Q 617.171288 191.259628 621.959118 191.259628 
Q 623.803642 191.259628 625.493464 191.27745 
Q 627.187253 191.295068 628.686673 191.329901 
L 628.686673 191.525327 
Q 627.139652 191.480572 625.608499 191.458497 
Q 624.077345 191.436221 622.538259 191.436221 
Q 619.690154 191.436221 618.147101 191.517632 
Q 616.604047 191.59884 616.604047 191.750118 
Q 616.604047 191.899979 618.091567 191.981794 
Q 619.579086 192.063408 622.316122 192.063408 
Q 623.061865 192.063408 623.700507 192.05875 
Q 624.339149 192.053889 624.846889 192.043764 
L 624.846889 191.860286 
L 621.931351 191.860286 
L 621.931351 191.696857 
L 629.368948 191.696857 
L 629.368948 192.151299 
z
" clip-path="url(#p4ed016bf39)" style="fill: #ffa600"/>
   </g>
   <g id="patch_90">
    <path d="M 629.368948 190.675192 
Q 627.888416 190.964884 626.287478 191.111414 
Q 624.686541 191.259628 622.942902 191.259628 
Q 617.7432 191.259628 614.706325 190.161495 
Q 611.669449 189.063361 611.669449 187.185418 
Q 611.669449 185.300737 614.706325 184.204288 
Q 617.7432 183.106154 622.942902 183.106154 
Q 624.686541 183.106154 626.287478 183.254369 
Q 627.888416 183.400899 629.368948 183.69059 
L 629.368948 185.315896 
Q 627.875037 184.931886 626.425721 184.753355 
Q 624.976404 184.574824 623.375467 184.574824 
Q 620.503591 184.574824 618.858059 185.270421 
Q 617.216987 185.964334 617.216987 187.185418 
Q 617.216987 188.401449 618.858059 189.097046 
Q 620.503591 189.790959 623.375467 189.790959 
Q 624.976404 189.790959 626.425721 189.612428 
Q 627.875037 189.432213 629.368948 189.048203 
L 629.368948 190.675192 
z
" clip-path="url(#p4ed016bf39)" style="fill: #0000ff"/>
   </g>
   <g id="patch_91">
    <path d="M 623.929908 178.657864 
L 617.122965 178.657864 
L 616.048184 183.106154 
L 611.669449 183.106154 
L 617.922717 158.68766 
L 623.11568 158.68766 
L 629.368948 183.106154 
L 624.993832 183.106154 
L 623.929908 178.657864 
z
M 618.208602 174.125842 
L 622.833415 174.125842 
L 620.524627 164.412871 
L 618.208602 174.125842 
z
" clip-path="url(#p4ed016bf39)" style="fill: #008000"/>
   </g>
   <g id="patch_92">
    <path d="M 648 191.962175 
Q 646.214977 192.101087 644.295085 192.170861 
Q 642.375193 192.24 640.328366 192.24 
Q 635.703172 192.24 633.001836 191.826434 
Q 630.300501 191.412867 630.300501 190.705618 
Q 630.300501 189.990123 633.049437 189.579728 
Q 635.80234 189.169334 640.590169 189.169334 
Q 642.434694 189.169334 644.124516 189.225152 
Q 645.818305 189.280337 647.317724 189.389437 
L 647.317724 190.001541 
Q 645.770704 189.86136 644.239551 189.79222 
Q 642.708397 189.722447 641.16931 189.722447 
Q 638.321206 189.722447 636.778153 189.977437 
Q 635.235099 190.231793 635.235099 190.705618 
Q 635.235099 191.175003 636.722619 191.431262 
Q 638.210138 191.686887 640.947174 191.686887 
Q 641.692917 191.686887 642.331559 191.672298 
Q 642.970201 191.657075 643.477941 191.625359 
L 643.477941 191.05068 
L 640.562402 191.05068 
L 640.562402 190.538796 
L 648 190.538796 
L 648 191.962175 
z
" clip-path="url(#p4ed016bf39)" style="fill: #ffa600"/>
   </g>
   <g id="patch_93">
    <path d="M 642.560959 188.466479 
L 635.754017 188.466479 
L 634.679236 189.169334 
L 630.300501 189.169334 
L 636.553769 185.311077 
L 641.746732 185.311077 
L 648 189.169334 
L 643.624884 189.169334 
L 642.560959 188.466479 
z
M 636.839653 187.750395 
L 641.464466 187.750395 
L 639.155679 186.215691 
L 636.839653 187.750395 
z
" clip-path="url(#p4ed016bf39)" style="fill: #008000"/>
   </g>
   <g id="patch_94">
    <path d="M 630.300501 181.096545 
L 648 181.096545 
L 648 181.918496 
L 641.632296 181.918496 
L 641.632296 185.311077 
L 636.680553 185.311077 
L 636.680553 181.918496 
L 630.300501 181.918496 
L 630.300501 181.096545 
z
" clip-path="url(#p4ed016bf39)" style="fill: #ff0000"/>
   </g>
   <g id="patch_95">
    <path d="M 648 180.168505 
Q 646.519467 180.628513 644.91853 180.861192 
Q 643.317593 181.096545 641.573954 181.096545 
Q 636.374252 181.096545 633.337376 179.352794 
Q 630.300501 177.609042 630.300501 174.627013 
Q 630.300501 171.634287 633.337376 169.89321 
Q 636.374252 168.149459 641.573954 168.149459 
Q 643.317593 168.149459 644.91853 168.384812 
Q 646.519467 168.61749 648 169.077498 
L 648 171.658357 
Q 646.506089 171.048579 645.056773 170.765086 
Q 643.607456 170.481592 642.006519 170.481592 
Q 639.134642 170.481592 637.489111 171.586146 
Q 635.848038 172.688026 635.848038 174.627013 
Q 635.848038 176.557977 637.489111 177.662532 
Q 639.134642 178.764411 642.006519 178.764411 
Q 643.607456 178.764411 645.056773 178.480918 
Q 646.506089 178.19475 648 177.584972 
L 648 180.168505 
z
" clip-path="url(#p4ed016bf39)" style="fill: #0000ff"/>
   </g>
   <g id="patch_96">
    <path d="M 90 196.733557 
L 107.699499 196.733557 
L 107.699499 195.857189 
L 101.331796 195.857189 
L 101.331796 192.24 
L 96.380052 192.24 
L 96.380052 195.857189 
L 90 195.857189 
L 90 196.733557 
z
" clip-path="url(#p4ed016bf39)" style="fill: #ff0000"/>
   </g>
   <g id="patch_97">
    <path d="M 176.784666 193.56274 
L 169.977723 193.56274 
L 168.902942 192.24 
L 164.524207 192.24 
L 170.777475 199.501066 
L 175.970438 199.501066 
L 182.223706 192.24 
L 177.84859 192.24 
L 176.784666 193.56274 
z
M 171.06336 194.910379 
L 175.688172 194.910379 
L 173.379385 197.798622 
L 171.06336 194.910379 
z
" clip-path="url(#p4ed016bf39)" style="fill: #008000"/>
   </g>
   <g id="patch_98">
    <path d="M 195.415717 192.850184 
L 188.608774 192.850184 
L 187.533994 192.24 
L 183.155259 192.24 
L 189.408527 195.589551 
L 194.60149 195.589551 
L 200.854758 192.24 
L 196.479641 192.24 
L 195.415717 192.850184 
z
M 189.694411 193.471854 
L 194.319224 193.471854 
L 192.010437 194.804208 
L 189.694411 193.471854 
z
" clip-path="url(#p4ed016bf39)" style="fill: #008000"/>
   </g>
   <g id="patch_99">
    <path d="M 214.046769 192.839864 
L 207.239826 192.839864 
L 206.165046 192.24 
L 201.786311 192.24 
L 208.039579 195.532901 
L 213.232542 195.532901 
L 219.48581 192.24 
L 215.110693 192.24 
L 214.046769 192.839864 
z
M 208.325463 193.45102 
L 212.950276 193.45102 
L 210.641488 194.76084 
L 208.325463 193.45102 
z
" clip-path="url(#p4ed016bf39)" style="fill: #008000"/>
   </g>
   <g id="patch_100">
    <path d="M 238.116861 192.261781 
Q 236.331838 192.25089 234.411946 192.24542 
Q 232.492054 192.24 230.445227 192.24 
Q 225.820033 192.24 223.118698 192.272422 
Q 220.417362 192.304844 220.417362 192.36029 
Q 220.417362 192.416382 223.166298 192.448556 
Q 225.919201 192.48073 230.707031 192.48073 
Q 232.551555 192.48073 234.241377 192.476354 
Q 235.935166 192.472027 237.434586 192.463474 
L 237.434586 192.415487 
Q 235.887565 192.426477 234.356412 192.431897 
Q 232.825259 192.437367 231.286172 192.437367 
Q 228.438068 192.437367 226.895014 192.417377 
Q 225.35196 192.397436 225.35196 192.36029 
Q 225.35196 192.323492 226.83948 192.303402 
Q 228.327 192.283362 231.064035 192.283362 
Q 231.809779 192.283362 232.44842 192.284506 
Q 233.087062 192.285699 233.594802 192.288186 
L 233.594802 192.333239 
L 230.679264 192.333239 
L 230.679264 192.373368 
L 238.116861 192.373368 
L 238.116861 192.261781 
z
" clip-path="url(#p4ed016bf39)" style="fill: #ffa600"/>
   </g>
   <g id="patch_101">
    <path d="M 251.308873 192.635752 
L 244.50193 192.635752 
L 243.427149 192.24 
L 239.048414 192.24 
L 245.301682 194.412448 
L 250.494645 194.412448 
L 256.747913 192.24 
L 252.372797 192.24 
L 251.308873 192.635752 
z
M 245.587567 193.038954 
L 250.212379 193.038954 
L 247.903592 193.903091 
L 245.587567 193.038954 
z
" clip-path="url(#p4ed016bf39)" style="fill: #008000"/>
   </g>
   <g id="patch_102">
    <path d="M 239.048414 197.523946 
L 256.747913 197.523946 
L 256.747913 196.917117 
L 250.38021 196.917117 
L 250.38021 194.412448 
L 245.428466 194.412448 
L 245.428466 196.917117 
L 239.048414 196.917117 
L 239.048414 197.523946 
z
" clip-path="url(#p4ed016bf39)" style="fill: #ff0000"/>
   </g>
   <g id="patch_103">
    <path d="M 288.570976 192.965458 
L 281.764033 192.965458 
L 280.689253 192.24 
L 276.310518 192.24 
L 282.563786 196.222336 
L 287.756749 196.222336 
L 294.010017 192.24 
L 289.6349 192.24 
L 288.570976 192.965458 
z
M 282.84967 193.704571 
L 287.474483 193.704571 
L 285.165695 195.288629 
L 282.84967 193.704571 
z
" clip-path="url(#p4ed016bf39)" style="fill: #008000"/>
   </g>
   <g id="patch_104">
    <path d="M 325.83308 193.332792 
L 319.026137 193.332792 
L 317.951356 192.24 
L 313.572621 192.24 
L 319.825889 198.238784 
L 325.018852 198.238784 
L 331.27212 192.24 
L 326.897004 192.24 
L 325.83308 193.332792 
z
M 320.111774 194.446154 
L 324.736586 194.446154 
L 322.427799 196.832297 
L 320.111774 194.446154 
z
" clip-path="url(#p4ed016bf39)" style="fill: #008000"/>
   </g>
   <g id="patch_105">
    <path d="M 344.464131 192.405611 
L 337.657188 192.405611 
L 336.582408 192.24 
L 332.203673 192.24 
L 338.456941 193.149107 
L 343.649904 193.149107 
L 349.903172 192.24 
L 345.528056 192.24 
L 344.464131 192.405611 
z
M 338.742825 192.57434 
L 343.367638 192.57434 
L 341.058851 192.935956 
L 338.742825 192.57434 
z
" clip-path="url(#p4ed016bf39)" style="fill: #008000"/>
   </g>
   <g id="patch_106">
    <path d="M 349.903172 193.311612 
Q 348.118149 193.230359 346.198257 193.189548 
Q 344.278365 193.149107 342.231538 193.149107 
Q 337.606344 193.149107 334.905008 193.391009 
Q 332.203673 193.63291 332.203673 194.046591 
Q 332.203673 194.465095 334.952609 194.705141 
Q 337.705512 194.945187 342.493341 194.945187 
Q 344.337866 194.945187 346.027688 194.912538 
Q 347.721477 194.880259 349.220896 194.816445 
L 349.220896 194.458416 
Q 347.673876 194.54041 346.142723 194.580851 
Q 344.611569 194.621663 343.072482 194.621663 
Q 340.224378 194.621663 338.681325 194.472515 
Q 337.138271 194.323738 337.138271 194.046591 
Q 337.138271 193.77204 338.62579 193.62215 
Q 340.11331 193.472632 342.850346 193.472632 
Q 343.596089 193.472632 344.234731 193.481165 
Q 344.873373 193.490069 345.381113 193.50862 
L 345.381113 193.844759 
L 342.465574 193.844759 
L 342.465574 194.144167 
L 349.903172 194.144167 
L 349.903172 193.311612 
z
" clip-path="url(#p4ed016bf39)" style="fill: #ffa600"/>
   </g>
   <g id="patch_107">
    <path d="M 381.726235 192.361187 
L 374.919292 192.361187 
L 373.844512 192.24 
L 369.465776 192.24 
L 375.719044 192.905246 
L 380.912007 192.905246 
L 387.165275 192.24 
L 382.790159 192.24 
L 381.726235 192.361187 
z
M 376.004929 192.484656 
L 380.629742 192.484656 
L 378.320954 192.749271 
L 376.004929 192.484656 
z
" clip-path="url(#p4ed016bf39)" style="fill: #008000"/>
   </g>
   <g id="patch_108">
    <path d="M 400.357287 192.577503 
L 393.550344 192.577503 
L 392.475563 192.24 
L 388.096828 192.24 
L 394.350096 194.09269 
L 399.543059 194.09269 
L 405.796327 192.24 
L 401.421211 192.24 
L 400.357287 192.577503 
z
M 394.635981 192.921358 
L 399.260793 192.921358 
L 396.952006 193.658305 
L 394.635981 192.921358 
z
" clip-path="url(#p4ed016bf39)" style="fill: #008000"/>
   </g>
   <g id="patch_109">
    <path d="M 418.988338 192.407817 
L 412.181395 192.407817 
L 411.106615 192.24 
L 406.72788 192.24 
L 412.981148 193.161216 
L 418.174111 193.161216 
L 424.427379 192.24 
L 420.052263 192.24 
L 418.988338 192.407817 
z
M 413.267032 192.578793 
L 417.891845 192.578793 
L 415.583058 192.945226 
L 413.267032 192.578793 
z
" clip-path="url(#p4ed016bf39)" style="fill: #008000"/>
   </g>
   <g id="patch_110">
    <path d="M 425.358932 193.136868 
L 443.058431 193.136868 
L 443.058431 192.961954 
L 436.690727 192.961954 
L 436.690727 192.24 
L 431.738984 192.24 
L 431.738984 192.961954 
L 425.358932 192.961954 
L 425.358932 193.136868 
z
" clip-path="url(#p4ed016bf39)" style="fill: #ff0000"/>
   </g>
   <g id="patch_111">
    <path d="M 456.250442 195.179754 
L 449.443499 195.179754 
L 448.368719 192.24 
L 443.989983 192.24 
L 450.243251 208.377522 
L 455.436214 208.377522 
L 461.689482 192.24 
L 457.314366 192.24 
L 456.250442 195.179754 
z
M 450.529136 198.174845 
L 455.153949 198.174845 
L 452.845161 204.593885 
L 450.529136 198.174845 
z
" clip-path="url(#p4ed016bf39)" style="fill: #008000"/>
   </g>
   <g id="patch_112">
    <path d="M 474.881494 195.704487 
L 468.074551 195.704487 
L 466.99977 193.096538 
L 462.621035 193.096538 
L 468.874303 207.412646 
L 474.067266 207.412646 
L 480.320534 193.096538 
L 475.945418 193.096538 
L 474.881494 195.704487 
z
M 469.160188 198.361527 
L 473.785 198.361527 
L 471.476213 204.056061 
L 469.160188 198.361527 
z
" clip-path="url(#p4ed016bf39)" style="fill: #008000"/>
   </g>
   <g id="patch_113">
    <path d="M 462.621035 193.096538 
L 480.320534 193.096538 
L 480.320534 192.929489 
L 473.952831 192.929489 
L 473.952831 192.24 
L 469.001087 192.24 
L 469.001087 192.929489 
L 462.621035 192.929489 
L 462.621035 193.096538 
z
" clip-path="url(#p4ed016bf39)" style="fill: #ff0000"/>
   </g>
   <g id="patch_114">
    <path d="M 493.512545 194.888453 
L 486.705603 194.888453 
L 485.630822 192.24 
L 481.252087 192.24 
L 487.505355 206.778449 
L 492.698318 206.778449 
L 498.951586 192.24 
L 494.57647 192.24 
L 493.512545 194.888453 
z
M 487.791239 197.586759 
L 492.416052 197.586759 
L 490.107265 203.369734 
L 487.791239 197.586759 
z
" clip-path="url(#p4ed016bf39)" style="fill: #008000"/>
   </g>
   <g id="patch_115">
    <path d="M 517.582638 192.3434 
Q 515.797614 192.2917 513.877722 192.265732 
Q 511.957831 192.24 509.911004 192.24 
Q 505.28581 192.24 502.584474 192.393919 
Q 499.883139 192.547839 499.883139 192.811059 
Q 499.883139 193.077349 502.632075 193.230088 
Q 505.384978 193.382827 510.172807 193.382827 
Q 512.017331 193.382827 513.707153 193.362053 
Q 515.400942 193.341514 516.900362 193.30091 
L 516.900362 193.0731 
Q 515.353342 193.125272 513.822188 193.151004 
Q 512.291035 193.176972 510.751948 193.176972 
Q 507.903844 193.176972 506.36079 193.082071 
Q 504.817737 192.987406 504.817737 192.811059 
Q 504.817737 192.636366 506.305256 192.540992 
Q 507.792776 192.445855 510.529812 192.445855 
Q 511.275555 192.445855 511.914197 192.451285 
Q 512.552838 192.456951 513.060578 192.468754 
L 513.060578 192.682636 
L 510.14504 192.682636 
L 510.14504 192.873147 
L 517.582638 192.873147 
L 517.582638 192.3434 
z
" clip-path="url(#p4ed016bf39)" style="fill: #ffa600"/>
   </g>
   <g id="patch_116">
    <path d="M 536.213689 192.414805 
Q 534.428666 192.327402 532.508774 192.283502 
Q 530.588882 192.24 528.542055 192.24 
Q 523.916861 192.24 521.215526 192.500212 
Q 518.51419 192.760423 518.51419 193.205417 
Q 518.51419 193.6556 521.263126 193.913816 
Q 524.016029 194.172032 528.803859 194.172032 
Q 530.648383 194.172032 532.338205 194.136911 
Q 534.031994 194.10219 535.531414 194.033545 
L 535.531414 193.648416 
Q 533.984394 193.736616 532.45324 193.780118 
Q 530.922087 193.824019 529.383 193.824019 
Q 526.534896 193.824019 524.991842 193.663581 
Q 523.448788 193.503543 523.448788 193.205417 
Q 523.448788 192.910085 524.936308 192.74885 
Q 526.423828 192.588013 529.160864 192.588013 
Q 529.906607 192.588013 530.545248 192.597192 
Q 531.18389 192.606771 531.69163 192.626726 
L 531.69163 192.988308 
L 528.776092 192.988308 
L 528.776092 193.31038 
L 536.213689 193.31038 
L 536.213689 192.414805 
z
" clip-path="url(#p4ed016bf39)" style="fill: #ffa600"/>
   </g>
   <g id="patch_117">
    <path d="M 537.145242 193.495505 
L 554.844741 193.495505 
L 554.844741 193.250646 
L 548.477038 193.250646 
L 548.477038 192.24 
L 543.525294 192.24 
L 543.525294 193.250646 
L 537.145242 193.250646 
L 537.145242 193.495505 
z
" clip-path="url(#p4ed016bf39)" style="fill: #ff0000"/>
   </g>
   <g id="patch_118">
    <path d="M 573.475793 192.774254 
Q 571.69077 192.507127 569.770878 192.372954 
Q 567.850986 192.24 565.804159 192.24 
Q 561.178965 192.24 558.477629 193.035282 
Q 555.776294 193.830564 555.776294 195.190594 
Q 555.776294 196.56648 558.52523 197.355664 
Q 561.278133 198.144847 566.065962 198.144847 
Q 567.910487 198.144847 569.600309 198.037508 
Q 571.294098 197.931389 572.793517 197.721591 
L 572.793517 196.544525 
Q 571.246497 196.814091 569.715344 196.947045 
Q 568.18419 197.081218 566.645103 197.081218 
Q 563.796999 197.081218 562.253946 196.590876 
Q 560.710892 196.101753 560.710892 195.190594 
Q 560.710892 194.287973 562.198412 193.795191 
Q 563.685931 193.303629 566.422967 193.303629 
Q 567.16871 193.303629 567.807352 193.331683 
Q 568.445994 193.360957 568.953734 193.421945 
L 568.953734 194.527046 
L 566.038195 194.527046 
L 566.038195 195.51139 
L 573.475793 195.51139 
L 573.475793 192.774254 
z
" clip-path="url(#p4ed016bf39)" style="fill: #ffa600"/>
   </g>
   <g id="patch_119">
    <path d="M 592.106845 193.791211 
Q 590.321821 193.015606 588.401929 192.626032 
Q 586.482038 192.24 584.435211 192.24 
Q 579.810017 192.24 577.108681 194.549109 
Q 574.407346 196.858218 574.407346 200.807077 
Q 574.407346 204.801977 577.156282 207.093378 
Q 579.909185 209.384779 584.697014 209.384779 
Q 586.541538 209.384779 588.23136 209.073121 
Q 589.925149 208.765003 591.424569 208.155852 
L 591.424569 204.738229 
Q 589.877549 205.520918 588.346395 205.90695 
Q 586.815242 206.296523 585.276155 206.296523 
Q 582.428051 206.296523 580.884997 204.872809 
Q 579.341944 203.452636 579.341944 200.807077 
Q 579.341944 198.18631 580.829463 196.755512 
Q 582.316983 195.328256 585.054019 195.328256 
Q 585.799762 195.328256 586.438404 195.409712 
Q 587.077045 195.49471 587.584785 195.671789 
L 587.584785 198.880459 
L 584.669247 198.880459 
L 584.669247 201.738512 
L 592.106845 201.738512 
L 592.106845 193.791211 
z
" clip-path="url(#p4ed016bf39)" style="fill: #ffa600"/>
   </g>
   <g id="patch_120">
    <path d="M 611.669449 192.4996 
L 629.368948 192.4996 
L 629.368948 192.44897 
L 623.001245 192.44897 
L 623.001245 192.24 
L 618.049501 192.24 
L 618.049501 192.44897 
L 611.669449 192.44897 
L 611.669449 192.4996 
z
" clip-path="url(#p4ed016bf39)" style="fill: #ff0000"/>
   </g>
   <g id="matplotlib.axis_1">
    <g id="xtick_1">
     <g id="line2d_2">
      <defs>
       <path id="m2f0cbccb5d" d="M 0 0 
L 0 3.5 
" style="stroke: #000000; stroke-width: 0.8"/>
      </defs>
      <g>
       <use xlink:href="#m2f0cbccb5d" x="98.84975" y="192.24" style="stroke: #000000; stroke-width: 0.8"/>
      </g>
     </g>
     <g id="text_1">
      <!-- 0 -->
      <g transform="translate(95.6685 206.838437) scale(0.1 -0.1)">
       <defs>
        <path id="DejaVuSans-30" d="M 2034 4250 
Q 1547 4250 1301 3770 
Q 1056 3291 1056 2328 
Q 1056 1369 1301 889 
Q 1547 409 2034 409 
Q 2525 409 2770 889 
Q 3016 1369 3016 2328 
Q 3016 3291 2770 3770 
Q 2525 4250 2034 4250 
z
M 2034 4750 
Q 2819 4750 3233 4129 
Q 3647 3509 3647 2328 
Q 3647 1150 3233 529 
Q 2819 -91 2034 -91 
Q 1250 -91 836 529 
Q 422 1150 422 2328 
Q 422 3509 836 4129 
Q 1250 4750 2034 4750 
z
" transform="scale(0.015625)"/>
       </defs>
       <use xlink:href="#DejaVuSans-30"/>
      </g>
     </g>
    </g>
    <g id="xtick_2">
     <g id="line2d_3">
      <g>
       <use xlink:href="#m2f0cbccb5d" x="192.005008" y="192.24" style="stroke: #000000; stroke-width: 0.8"/>
      </g>
     </g>
     <g id="text_2">
      <!-- 5 -->
      <g transform="translate(188.823758 206.838437) scale(0.1 -0.1)">
       <defs>
        <path id="DejaVuSans-35" d="M 691 4666 
L 3169 4666 
L 3169 4134 
L 1269 4134 
L 1269 2991 
Q 1406 3038 1543 3061 
Q 1681 3084 1819 3084 
Q 2600 3084 3056 2656 
Q 3513 2228 3513 1497 
Q 3513 744 3044 326 
Q 2575 -91 1722 -91 
Q 1428 -91 1123 -41 
Q 819 9 494 109 
L 494 744 
Q 775 591 1075 516 
Q 1375 441 1709 441 
Q 2250 441 2565 725 
Q 2881 1009 2881 1497 
Q 2881 1984 2565 2268 
Q 2250 2553 1709 2553 
Q 1456 2553 1204 2497 
Q 953 2441 691 2322 
L 691 4666 
z
" transform="scale(0.015625)"/>
       </defs>
       <use xlink:href="#DejaVuSans-35"/>
      </g>
     </g>
    </g>
    <g id="xtick_3">
     <g id="line2d_4">
      <g>
       <use xlink:href="#m2f0cbccb5d" x="285.160267" y="192.24" style="stroke: #000000; stroke-width: 0.8"/>
      </g>
     </g>
     <g id="text_3">
      <!-- 10 -->
      <g transform="translate(278.797767 206.838437) scale(0.1 -0.1)">
       <defs>
        <path id="DejaVuSans-31" d="M 794 531 
L 1825 531 
L 1825 4091 
L 703 3866 
L 703 4441 
L 1819 4666 
L 2450 4666 
L 2450 531 
L 3481 531 
L 3481 0 
L 794 0 
L 794 531 
z
" transform="scale(0.015625)"/>
       </defs>
       <use xlink:href="#DejaVuSans-31"/>
       <use xlink:href="#DejaVuSans-30" x="63.623047"/>
      </g>
     </g>
    </g>
    <g id="xtick_4">
     <g id="line2d_5">
      <g>
       <use xlink:href="#m2f0cbccb5d" x="378.315526" y="192.24" style="stroke: #000000; stroke-width: 0.8"/>
      </g>
     </g>
     <g id="text_4">
      <!-- 15 -->
      <g transform="translate(371.953026 206.838437) scale(0.1 -0.1)">
       <use xlink:href="#DejaVuSans-31"/>
       <use xlink:href="#DejaVuSans-35" x="63.623047"/>
      </g>
     </g>
    </g>
    <g id="xtick_5">
     <g id="line2d_6">
      <g>
       <use xlink:href="#m2f0cbccb5d" x="471.470785" y="192.24" style="stroke: #000000; stroke-width: 0.8"/>
      </g>
     </g>
     <g id="text_5">
      <!-- 20 -->
      <g transform="translate(465.108285 206.838437) scale(0.1 -0.1)">
       <defs>
        <path id="DejaVuSans-32" d="M 1228 531 
L 3431 531 
L 3431 0 
L 469 0 
L 469 531 
Q 828 903 1448 1529 
Q 2069 2156 2228 2338 
Q 2531 2678 2651 2914 
Q 2772 3150 2772 3378 
Q 2772 3750 2511 3984 
Q 2250 4219 1831 4219 
Q 1534 4219 1204 4116 
Q 875 4013 500 3803 
L 500 4441 
Q 881 4594 1212 4672 
Q 1544 4750 1819 4750 
Q 2544 4750 2975 4387 
Q 3406 4025 3406 3419 
Q 3406 3131 3298 2873 
Q 3191 2616 2906 2266 
Q 2828 2175 2409 1742 
Q 1991 1309 1228 531 
z
" transform="scale(0.015625)"/>
       </defs>
       <use xlink:href="#DejaVuSans-32"/>
       <use xlink:href="#DejaVuSans-30" x="63.623047"/>
      </g>
     </g>
    </g>
    <g id="xtick_6">
     <g id="line2d_7">
      <g>
       <use xlink:href="#m2f0cbccb5d" x="564.626043" y="192.24" style="stroke: #000000; stroke-width: 0.8"/>
      </g>
     </g>
     <g id="text_6">
      <!-- 25 -->
      <g transform="translate(558.263543 206.838437) scale(0.1 -0.1)">
       <use xlink:href="#DejaVuSans-32"/>
       <use xlink:href="#DejaVuSans-35" x="63.623047"/>
      </g>
     </g>
    </g>
   </g>
   <g id="matplotlib.axis_2">
    <g id="ytick_1">
     <g id="line2d_8">
      <defs>
       <path id="mfb5557dc3d" d="M 0 0 
L -3.5 0 
" style="stroke: #000000; stroke-width: 0.8"/>
      </defs>
      <g>
       <use xlink:href="#mfb5557dc3d" x="90" y="192.24" style="stroke: #000000; stroke-width: 0.8"/>
      </g>
     </g>
     <g id="text_7">
      <!-- 0.000 -->
      <g transform="translate(54.371875 196.039219) scale(0.1 -0.1)">
       <defs>
        <path id="DejaVuSans-2e" d="M 684 794 
L 1344 794 
L 1344 0 
L 684 0 
L 684 794 
z
" transform="scale(0.015625)"/>
       </defs>
       <use xlink:href="#DejaVuSans-30"/>
       <use xlink:href="#DejaVuSans-2e" x="63.623047"/>
       <use xlink:href="#DejaVuSans-30" x="95.410156"/>
       <use xlink:href="#DejaVuSans-30" x="159.033203"/>
       <use xlink:href="#DejaVuSans-30" x="222.65625"/>
      </g>
     </g>
    </g>
    <g id="ytick_2">
     <g id="line2d_9">
      <g>
       <use xlink:href="#mfb5557dc3d" x="90" y="164.238843" style="stroke: #000000; stroke-width: 0.8"/>
      </g>
     </g>
     <g id="text_8">
      <!-- 0.002 -->
      <g transform="translate(54.371875 168.038062) scale(0.1 -0.1)">
       <use xlink:href="#DejaVuSans-30"/>
       <use xlink:href="#DejaVuSans-2e" x="63.623047"/>
       <use xlink:href="#DejaVuSans-30" x="95.410156"/>
       <use xlink:href="#DejaVuSans-30" x="159.033203"/>
       <use xlink:href="#DejaVuSans-32" x="222.65625"/>
      </g>
     </g>
    </g>
    <g id="ytick_3">
     <g id="line2d_10">
      <g>
       <use xlink:href="#mfb5557dc3d" x="90" y="136.237686" style="stroke: #000000; stroke-width: 0.8"/>
      </g>
     </g>
     <g id="text_9">
      <!-- 0.004 -->
      <g transform="translate(54.371875 140.036905) scale(0.1 -0.1)">
       <defs>
        <path id="DejaVuSans-34" d="M 2419 4116 
L 825 1625 
L 2419 1625 
L 2419 4116 
z
M 2253 4666 
L 3047 4666 
L 3047 1625 
L 3713 1625 
L 3713 1100 
L 3047 1100 
L 3047 0 
L 2419 0 
L 2419 1100 
L 313 1100 
L 313 1709 
L 2253 4666 
z
" transform="scale(0.015625)"/>
       </defs>
       <use xlink:href="#DejaVuSans-30"/>
       <use xlink:href="#DejaVuSans-2e" x="63.623047"/>
       <use xlink:href="#DejaVuSans-30" x="95.410156"/>
       <use xlink:href="#DejaVuSans-30" x="159.033203"/>
       <use xlink:href="#DejaVuSans-34" x="222.65625"/>
      </g>
     </g>
    </g>
    <g id="ytick_4">
     <g id="line2d_11">
      <g>
       <use xlink:href="#mfb5557dc3d" x="90" y="108.23653" style="stroke: #000000; stroke-width: 0.8"/>
      </g>
     </g>
     <g id="text_10">
      <!-- 0.006 -->
      <g transform="translate(54.371875 112.035748) scale(0.1 -0.1)">
       <defs>
        <path id="DejaVuSans-36" d="M 2113 2584 
Q 1688 2584 1439 2293 
Q 1191 2003 1191 1497 
Q 1191 994 1439 701 
Q 1688 409 2113 409 
Q 2538 409 2786 701 
Q 3034 994 3034 1497 
Q 3034 2003 2786 2293 
Q 2538 2584 2113 2584 
z
M 3366 4563 
L 3366 3988 
Q 3128 4100 2886 4159 
Q 2644 4219 2406 4219 
Q 1781 4219 1451 3797 
Q 1122 3375 1075 2522 
Q 1259 2794 1537 2939 
Q 1816 3084 2150 3084 
Q 2853 3084 3261 2657 
Q 3669 2231 3669 1497 
Q 3669 778 3244 343 
Q 2819 -91 2113 -91 
Q 1303 -91 875 529 
Q 447 1150 447 2328 
Q 447 3434 972 4092 
Q 1497 4750 2381 4750 
Q 2619 4750 2861 4703 
Q 3103 4656 3366 4563 
z
" transform="scale(0.015625)"/>
       </defs>
       <use xlink:href="#DejaVuSans-30"/>
       <use xlink:href="#DejaVuSans-2e" x="63.623047"/>
       <use xlink:href="#DejaVuSans-30" x="95.410156"/>
       <use xlink:href="#DejaVuSans-30" x="159.033203"/>
       <use xlink:href="#DejaVuSans-36" x="222.65625"/>
      </g>
     </g>
    </g>
    <g id="ytick_5">
     <g id="line2d_12">
      <g>
       <use xlink:href="#mfb5557dc3d" x="90" y="80.235373" style="stroke: #000000; stroke-width: 0.8"/>
      </g>
     </g>
     <g id="text_11">
      <!-- 0.008 -->
      <g transform="translate(54.371875 84.034592) scale(0.1 -0.1)">
       <defs>
        <path id="DejaVuSans-38" d="M 2034 2216 
Q 1584 2216 1326 1975 
Q 1069 1734 1069 1313 
Q 1069 891 1326 650 
Q 1584 409 2034 409 
Q 2484 409 2743 651 
Q 3003 894 3003 1313 
Q 3003 1734 2745 1975 
Q 2488 2216 2034 2216 
z
M 1403 2484 
Q 997 2584 770 2862 
Q 544 3141 544 3541 
Q 544 4100 942 4425 
Q 1341 4750 2034 4750 
Q 2731 4750 3128 4425 
Q 3525 4100 3525 3541 
Q 3525 3141 3298 2862 
Q 3072 2584 2669 2484 
Q 3125 2378 3379 2068 
Q 3634 1759 3634 1313 
Q 3634 634 3220 271 
Q 2806 -91 2034 -91 
Q 1263 -91 848 271 
Q 434 634 434 1313 
Q 434 1759 690 2068 
Q 947 2378 1403 2484 
z
M 1172 3481 
Q 1172 3119 1398 2916 
Q 1625 2713 2034 2713 
Q 2441 2713 2670 2916 
Q 2900 3119 2900 3481 
Q 2900 3844 2670 4047 
Q 2441 4250 2034 4250 
Q 1625 4250 1398 4047 
Q 1172 3844 1172 3481 
z
" transform="scale(0.015625)"/>
       </defs>
       <use xlink:href="#DejaVuSans-30"/>
       <use xlink:href="#DejaVuSans-2e" x="63.623047"/>
       <use xlink:href="#DejaVuSans-30" x="95.410156"/>
       <use xlink:href="#DejaVuSans-30" x="159.033203"/>
       <use xlink:href="#DejaVuSans-38" x="222.65625"/>
      </g>
     </g>
    </g>
    <g id="ytick_6">
     <g id="line2d_13">
      <g>
       <use xlink:href="#mfb5557dc3d" x="90" y="52.234216" style="stroke: #000000; stroke-width: 0.8"/>
      </g>
     </g>
     <g id="text_12">
      <!-- 0.010 -->
      <g transform="translate(54.371875 56.033435) scale(0.1 -0.1)">
       <use xlink:href="#DejaVuSans-30"/>
       <use xlink:href="#DejaVuSans-2e" x="63.623047"/>
       <use xlink:href="#DejaVuSans-30" x="95.410156"/>
       <use xlink:href="#DejaVuSans-31" x="159.033203"/>
       <use xlink:href="#DejaVuSans-30" x="222.65625"/>
      </g>
     </g>
    </g>
   </g>
  </g>
 </g>
 <defs>
  <clipPath id="p4ed016bf39">
   <rect x="90" y="25.92" width="558" height="166.32"/>
  </clipPath>
 </defs>
</svg>
