<?xml version="1.0" encoding="utf-8" standalone="no"?>
<!DOCTYPE svg PUBLIC "-//W3C//DTD SVG 1.1//EN"
  "http://www.w3.org/Graphics/SVG/1.1/DTD/svg11.dtd">
<svg xmlns:xlink="http://www.w3.org/1999/xlink" width="720pt" height="216pt" viewBox="0 0 720 216" xmlns="http://www.w3.org/2000/svg" version="1.1">
 <metadata>
  <rdf:RDF xmlns:dc="http://purl.org/dc/elements/1.1/" xmlns:cc="http://creativecommons.org/ns#" xmlns:rdf="http://www.w3.org/1999/02/22-rdf-syntax-ns#">
   <cc:Work>
    <dc:type rdf:resource="http://purl.org/dc/dcmitype/StillImage"/>
    <dc:date>2024-11-23T05:02:36.879735</dc:date>
    <dc:format>image/svg+xml</dc:format>
    <dc:creator>
     <cc:Agent>
      <dc:title>Matplotlib v3.7.2, https://matplotlib.org/</dc:title>
     </cc:Agent>
    </dc:creator>
   </cc:Work>
  </rdf:RDF>
 </metadata>
 <defs>
  <style type="text/css">*{stroke-linejoin: round; stroke-linecap: butt}</style>
 </defs>
 <g id="figure_1">
  <g id="patch_1">
   <path d="M 0 216 
L 720 216 
L 720 0 
L 0 0 
z
" style="fill: #ffffff"/>
  </g>
  <g id="axes_1">
   <g id="patch_2">
    <path d="M 90 192.24 
L 648 192.24 
L 648 25.92 
L 90 25.92 
z
" style="fill: #ffffff"/>
   </g>
   <g id="line2d_1">
    <path d="M 90 192.24 
L 648 192.24 
" clip-path="url(#p32ec7a62fa)" style="fill: none; stroke: #000000; stroke-width: 0.5; stroke-linecap: square"/>
   </g>
   <g id="patch_3">
    <path d="M 118.355269 191.72161 
L 102.612571 191.72161 
L 100.126882 192.24 
L 90 192.24 
L 104.462192 189.394345 
L 116.472171 189.394345 
L 130.934363 192.24 
L 120.81585 192.24 
L 118.355269 191.72161 
z
M 105.123368 191.193462 
L 115.819364 191.193462 
L 110.479735 190.061543 
L 105.123368 191.193462 
z
" clip-path="url(#p32ec7a62fa)" style="fill: #008000"/>
   </g>
   <g id="patch_4">
    <path d="M 130.934363 189.017062 
Q 126.806065 189.205703 122.365852 189.300455 
Q 117.925639 189.394345 113.191858 189.394345 
Q 102.49498 189.394345 96.24749 188.832728 
Q 90 188.27111 90 187.310676 
Q 90 186.339044 96.357578 185.781734 
Q 102.72433 185.224424 113.797341 185.224424 
Q 118.063249 185.224424 121.97137 185.300225 
Q 125.888666 185.375164 129.356436 185.523321 
L 129.356436 186.354549 
Q 125.778578 186.164185 122.237416 186.070295 
Q 118.696254 185.975543 115.136745 185.975543 
Q 108.549817 185.975543 104.981133 186.321817 
Q 101.412449 186.667228 101.412449 187.310676 
Q 101.412449 187.948094 104.852697 188.29609 
Q 108.292945 188.643225 114.623001 188.643225 
Q 116.347712 188.643225 117.824725 188.623413 
Q 119.301738 188.60274 120.476009 188.559671 
L 120.476009 187.779265 
L 113.733123 187.779265 
L 113.733123 187.084134 
L 130.934363 187.084134 
L 130.934363 189.017062 
z
" clip-path="url(#p32ec7a62fa)" style="fill: #ffa600"/>
   </g>
   <g id="patch_5">
    <path d="M 130.934363 184.622605 
Q 127.510274 184.920913 123.80772 185.071801 
Q 120.105166 185.224424 116.07258 185.224424 
Q 104.047015 185.224424 97.023507 184.09363 
Q 90 182.962836 90 181.029039 
Q 90 179.088305 97.023507 177.959245 
Q 104.047015 176.828451 116.07258 176.828451 
Q 120.105166 176.828451 123.80772 176.981074 
Q 127.510274 177.131962 130.934363 177.43027 
L 130.934363 179.103914 
Q 127.479334 178.708483 124.127439 178.524642 
Q 120.775545 178.340802 117.072991 178.340802 
Q 110.431084 178.340802 106.625395 179.057087 
Q 102.83002 179.771638 102.83002 181.029039 
Q 102.83002 182.281237 106.625395 182.997522 
Q 110.431084 183.712073 117.072991 183.712073 
Q 120.775545 183.712073 124.127439 183.528233 
Q 127.479334 183.342657 130.934363 182.947226 
L 130.934363 184.622605 
z
" clip-path="url(#p32ec7a62fa)" style="fill: #0000ff"/>
   </g>
   <g id="patch_6">
    <path d="M 90 157.070678 
L 130.934363 157.070678 
L 130.934363 160.923994 
L 116.207512 160.923994 
L 116.207512 176.828451 
L 104.75541 176.828451 
L 104.75541 160.923994 
L 90 160.923994 
L 90 157.070678 
z
" clip-path="url(#p32ec7a62fa)" style="fill: #ff0000"/>
   </g>
   <g id="patch_7">
    <path d="M 161.444072 191.920123 
L 145.701374 191.920123 
L 143.215685 192.24 
L 133.088803 192.24 
L 147.550995 190.484062 
L 159.560974 190.484062 
L 174.023166 192.24 
L 163.904653 192.24 
L 161.444072 191.920123 
z
M 148.212171 191.594224 
L 158.908167 191.594224 
L 153.568539 190.895763 
L 148.212171 191.594224 
z
" clip-path="url(#p32ec7a62fa)" style="fill: #008000"/>
   </g>
   <g id="patch_8">
    <path d="M 133.088803 186.504318 
L 174.023166 186.504318 
L 174.023166 187.280479 
L 159.296315 187.280479 
L 159.296315 190.484062 
L 147.844213 190.484062 
L 147.844213 187.280479 
L 133.088803 187.280479 
L 133.088803 186.504318 
z
" clip-path="url(#p32ec7a62fa)" style="fill: #ff0000"/>
   </g>
   <g id="patch_9">
    <path d="M 174.023166 185.782925 
Q 169.894869 186.143622 165.454655 186.324793 
Q 161.014442 186.504318 156.280661 186.504318 
Q 145.583783 186.504318 139.336293 185.430463 
Q 133.088803 184.356608 133.088803 182.520183 
Q 133.088803 180.662348 139.446381 179.596727 
Q 145.813133 178.531107 156.886145 178.531107 
Q 161.152052 178.531107 165.060174 178.676045 
Q 168.977469 178.819335 172.445239 179.102622 
L 172.445239 180.691994 
Q 168.867381 180.328003 165.326219 180.148478 
Q 161.785058 179.967306 158.225548 179.967306 
Q 151.63862 179.967306 148.069936 180.629407 
Q 144.501252 181.289861 144.501252 182.520183 
Q 144.501252 183.738976 147.9415 184.404371 
Q 151.381748 185.068119 157.711804 185.068119 
Q 159.436515 185.068119 160.913528 185.030238 
Q 162.390541 184.990709 163.564812 184.908358 
L 163.564812 183.416161 
L 156.821927 183.416161 
L 156.821927 182.087018 
L 174.023166 182.087018 
L 174.023166 185.782925 
z
" clip-path="url(#p32ec7a62fa)" style="fill: #ffa600"/>
   </g>
   <g id="patch_10">
    <path d="M 174.023166 170.570686 
Q 170.599077 174.516485 166.896523 176.512326 
Q 163.193969 178.531107 159.161383 178.531107 
Q 147.135818 178.531107 140.112311 163.573773 
Q 133.088803 148.61644 133.088803 123.037564 
Q 133.088803 97.366926 140.112311 82.432533 
Q 147.135818 67.4752 159.161383 67.4752 
Q 163.193969 67.4752 166.896523 69.493981 
Q 170.599077 71.489822 174.023166 75.435621 
L 174.023166 97.573392 
Q 170.568137 92.342914 167.216242 89.9112 
Q 163.864348 87.479486 160.161794 87.479486 
Q 153.519887 87.479486 149.714198 96.953994 
Q 145.918823 106.40556 145.918823 123.037564 
Q 145.918823 139.600747 149.714198 149.075254 
Q 153.519887 158.52682 160.161794 158.52682 
Q 163.864348 158.52682 167.216242 156.095107 
Q 170.568137 153.640452 174.023166 148.409974 
L 174.023166 170.570686 
z
" clip-path="url(#p32ec7a62fa)" style="fill: #0000ff"/>
   </g>
   <g id="patch_11">
    <path d="M 217.111969 192.027716 
Q 213.68788 192.132941 209.985326 192.186164 
Q 206.282773 192.24 202.250186 192.24 
Q 190.224621 192.24 183.201114 191.841127 
Q 176.177606 191.442254 176.177606 190.760132 
Q 176.177606 190.075564 183.201114 189.677302 
Q 190.224621 189.278429 202.250186 189.278429 
Q 206.282773 189.278429 209.985326 189.332265 
Q 213.68788 189.385489 217.111969 189.490713 
L 217.111969 190.08107 
Q 213.65694 189.941586 210.305046 189.876739 
Q 206.953151 189.811891 203.250598 189.811891 
Q 196.60869 189.811891 192.803001 190.064552 
Q 189.007626 190.3166 189.007626 190.760132 
Q 189.007626 191.201829 192.803001 191.454489 
Q 196.60869 191.706538 203.250598 191.706538 
Q 206.953151 191.706538 210.305046 191.641691 
Q 213.65694 191.576231 217.111969 191.436748 
L 217.111969 192.027716 
z
" clip-path="url(#p32ec7a62fa)" style="fill: #0000ff"/>
   </g>
   <g id="patch_12">
    <path d="M 217.111969 188.988839 
Q 212.983672 189.133634 208.543458 189.206362 
Q 204.103245 189.278429 199.369464 189.278429 
Q 188.672587 189.278429 182.425096 188.84735 
Q 176.177606 188.41627 176.177606 187.67907 
Q 176.177606 186.933276 182.535184 186.505502 
Q 188.901936 186.077727 199.974948 186.077727 
Q 204.240855 186.077727 208.148977 186.13591 
Q 212.066272 186.193431 215.534042 186.307152 
L 215.534042 186.945177 
Q 211.956184 186.799059 208.415022 186.726992 
Q 204.873861 186.654264 201.314351 186.654264 
Q 194.727423 186.654264 191.158739 186.920052 
Q 187.590055 187.18518 187.590055 187.67907 
Q 187.590055 188.168333 191.030303 188.435443 
Q 194.470551 188.701893 200.800607 188.701893 
Q 202.525318 188.701893 204.002331 188.686686 
Q 205.479344 188.670818 206.653616 188.63776 
L 206.653616 188.038744 
L 199.91073 188.038744 
L 199.91073 187.505184 
L 217.111969 187.505184 
L 217.111969 188.988839 
z
" clip-path="url(#p32ec7a62fa)" style="fill: #ffa600"/>
   </g>
   <g id="patch_13">
    <path d="M 176.177606 179.748089 
L 217.111969 179.748089 
L 217.111969 180.982545 
L 202.385118 180.982545 
L 202.385118 186.077727 
L 190.933016 186.077727 
L 190.933016 180.982545 
L 176.177606 180.982545 
L 176.177606 179.748089 
z
" clip-path="url(#p32ec7a62fa)" style="fill: #ff0000"/>
   </g>
   <g id="patch_14">
    <path d="M 204.532875 158.552657 
L 188.790177 158.552657 
L 186.304488 179.748089 
L 176.177606 179.748089 
L 190.639798 63.397637 
L 202.649778 63.397637 
L 217.111969 179.748089 
L 206.993457 179.748089 
L 204.532875 158.552657 
z
M 191.300974 136.958253 
L 201.99697 136.958253 
L 196.657342 90.677405 
L 191.300974 136.958253 
z
" clip-path="url(#p32ec7a62fa)" style="fill: #008000"/>
   </g>
   <g id="patch_15">
    <path d="M 247.621678 192.062875 
L 231.87898 192.062875 
L 229.393291 192.24 
L 219.266409 192.24 
L 233.728601 191.267689 
L 245.738581 191.267689 
L 260.200772 192.24 
L 250.08226 192.24 
L 247.621678 192.062875 
z
M 234.389777 191.882416 
L 245.085773 191.882416 
L 239.746145 191.495659 
L 234.389777 191.882416 
z
" clip-path="url(#p32ec7a62fa)" style="fill: #008000"/>
   </g>
   <g id="patch_16">
    <path d="M 219.266409 185.389123 
L 260.200772 185.389123 
L 260.200772 186.535607 
L 245.473921 186.535607 
L 245.473921 191.267689 
L 234.021819 191.267689 
L 234.021819 186.535607 
L 219.266409 186.535607 
L 219.266409 185.389123 
z
" clip-path="url(#p32ec7a62fa)" style="fill: #ff0000"/>
   </g>
   <g id="patch_17">
    <path d="M 260.200772 184.463044 
Q 256.072475 184.926084 251.632261 185.158661 
Q 247.192048 185.389123 242.458267 185.389123 
Q 231.76139 185.389123 225.513899 184.010576 
Q 219.266409 182.632028 219.266409 180.274542 
Q 219.266409 177.88957 225.623987 176.521594 
Q 231.990739 175.153618 243.063751 175.153618 
Q 247.329658 175.153618 251.23778 175.33968 
Q 255.155075 175.523627 258.622845 175.887293 
L 258.622845 177.927628 
Q 255.044987 177.46036 251.503826 177.229897 
Q 247.962664 176.99732 244.403154 176.99732 
Q 237.816226 176.99732 234.247542 177.847284 
Q 230.678858 178.695133 230.678858 180.274542 
Q 230.678858 181.839152 234.119106 182.693344 
Q 237.559354 183.545422 243.88941 183.545422 
Q 245.614121 183.545422 247.091134 183.496792 
Q 248.568147 183.446048 249.742419 183.340331 
L 249.742419 181.424742 
L 242.999533 181.424742 
L 242.999533 179.718472 
L 260.200772 179.718472 
L 260.200772 184.463044 
z
" clip-path="url(#p32ec7a62fa)" style="fill: #ffa600"/>
   </g>
   <g id="patch_18">
    <path d="M 260.200772 168.525438 
Q 256.776683 171.810876 253.07413 173.472697 
Q 249.371576 175.153618 245.338989 175.153618 
Q 233.313424 175.153618 226.289917 162.699516 
Q 219.266409 150.245414 219.266409 128.947372 
Q 219.266409 107.572924 226.289917 95.137923 
Q 233.313424 82.683821 245.338989 82.683821 
Q 249.371576 82.683821 253.07413 84.364743 
Q 256.776683 86.026563 260.200772 89.312001 
L 260.200772 107.744836 
Q 256.745743 103.389721 253.393849 101.364974 
Q 250.041954 99.340227 246.339401 99.340227 
Q 239.697493 99.340227 235.891804 107.229099 
Q 232.096429 115.098869 232.096429 128.947372 
Q 232.096429 142.738571 235.891804 150.627442 
Q 239.697493 158.497212 246.339401 158.497212 
Q 250.041954 158.497212 253.393849 156.472465 
Q 256.745743 154.428617 260.200772 150.073502 
L 260.200772 168.525438 
z
" clip-path="url(#p32ec7a62fa)" style="fill: #0000ff"/>
   </g>
   <g id="patch_19">
    <path d="M 303.289575 192.154629 
Q 299.161278 192.197315 294.721065 192.218755 
Q 290.280851 192.24 285.54707 192.24 
Q 274.850193 192.24 268.602703 192.112918 
Q 262.355212 191.985836 262.355212 191.768511 
Q 262.355212 191.548652 268.71279 191.422544 
Q 275.079543 191.296437 286.152554 191.296437 
Q 290.418461 191.296437 294.326583 191.313589 
Q 298.243878 191.330546 301.711648 191.364071 
L 301.711648 191.55216 
Q 298.13379 191.509085 294.592629 191.487839 
Q 291.051467 191.466399 287.491957 191.466399 
Q 280.905029 191.466399 277.336345 191.544753 
Q 273.767661 191.622913 273.767661 191.768511 
Q 273.767661 191.912745 277.207909 191.991489 
Q 280.648157 192.070038 286.978213 192.070038 
Q 288.702924 192.070038 290.179937 192.065555 
Q 291.65695 192.060877 292.831222 192.051131 
L 292.831222 191.874542 
L 286.088336 191.874542 
L 286.088336 191.717249 
L 303.289575 191.717249 
L 303.289575 192.154629 
z
" clip-path="url(#p32ec7a62fa)" style="fill: #ffa600"/>
   </g>
   <g id="patch_20">
    <path d="M 303.289575 191.194777 
Q 299.865486 191.245168 296.162933 191.270656 
Q 292.460379 191.296437 288.427792 191.296437 
Q 276.402227 191.296437 269.37872 191.105422 
Q 262.355212 190.914407 262.355212 190.587748 
Q 262.355212 190.259917 269.37872 190.069195 
Q 276.402227 189.878179 288.427792 189.878179 
Q 292.460379 189.878179 296.162933 189.903961 
Q 299.865486 189.929449 303.289575 189.979839 
L 303.289575 190.262553 
Q 299.834546 190.195757 296.482652 190.164702 
Q 293.130758 190.133647 289.428204 190.133647 
Q 282.786297 190.133647 278.980607 190.254643 
Q 275.185232 190.375346 275.185232 190.587748 
Q 275.185232 190.799271 278.980607 190.920266 
Q 282.786297 191.040969 289.428204 191.040969 
Q 293.130758 191.040969 296.482652 191.009914 
Q 299.834546 190.978567 303.289575 190.91177 
L 303.289575 191.194777 
z
" clip-path="url(#p32ec7a62fa)" style="fill: #0000ff"/>
   </g>
   <g id="patch_21">
    <path d="M 290.710482 189.385513 
L 274.967783 189.385513 
L 272.482094 189.878179 
L 262.355212 189.878179 
L 276.817404 187.173731 
L 288.827384 187.173731 
L 303.289575 189.878179 
L 293.171063 189.878179 
L 290.710482 189.385513 
z
M 277.478581 188.883573 
L 288.174576 188.883573 
L 282.834948 187.807821 
L 277.478581 188.883573 
z
" clip-path="url(#p32ec7a62fa)" style="fill: #008000"/>
   </g>
   <g id="patch_22">
    <path d="M 262.355212 30.393873 
L 303.289575 30.393873 
L 303.289575 60.970313 
L 288.562724 60.970313 
L 288.562724 187.173731 
L 277.110622 187.173731 
L 277.110622 60.970313 
L 262.355212 60.970313 
L 262.355212 30.393873 
z
" clip-path="url(#p32ec7a62fa)" style="fill: #ff0000"/>
   </g>
   <g id="patch_23">
    <path d="M 333.799285 192.026245 
L 318.056586 192.026245 
L 315.570897 192.24 
L 305.444015 192.24 
L 319.906207 191.066612 
L 331.916187 191.066612 
L 346.378378 192.24 
L 336.259866 192.24 
L 333.799285 192.026245 
z
M 320.567384 191.808467 
L 331.26338 191.808467 
L 325.923751 191.341727 
L 320.567384 191.808467 
z
" clip-path="url(#p32ec7a62fa)" style="fill: #008000"/>
   </g>
   <g id="patch_24">
    <path d="M 346.378378 190.97807 
Q 342.95429 191.021958 339.251736 191.044158 
Q 335.549182 191.066612 331.516595 191.066612 
Q 319.49103 191.066612 312.467523 190.900244 
Q 305.444015 190.733876 305.444015 190.449366 
Q 305.444015 190.163835 312.467523 189.997722 
Q 319.49103 189.831354 331.516595 189.831354 
Q 335.549182 189.831354 339.251736 189.853808 
Q 342.95429 189.876008 346.378378 189.919896 
L 346.378378 190.166132 
Q 342.923349 190.107954 339.571455 190.080906 
Q 336.219561 190.053859 332.517007 190.053859 
Q 325.8751 190.053859 322.069411 190.159242 
Q 318.274035 190.26437 318.274035 190.449366 
Q 318.274035 190.633596 322.069411 190.738979 
Q 325.8751 190.844108 332.517007 190.844108 
Q 336.219561 190.844108 339.571455 190.81706 
Q 342.923349 190.789757 346.378378 190.731579 
L 346.378378 190.97807 
z
" clip-path="url(#p32ec7a62fa)" style="fill: #0000ff"/>
   </g>
   <g id="patch_25">
    <path d="M 346.378378 189.695574 
Q 342.250081 189.763464 337.809868 189.797564 
Q 333.369654 189.831354 328.635873 189.831354 
Q 317.938996 189.831354 311.691506 189.629234 
Q 305.444015 189.427115 305.444015 189.081466 
Q 305.444015 188.731787 311.801594 188.531218 
Q 318.168346 188.330648 329.241357 188.330648 
Q 333.507264 188.330648 337.415386 188.357928 
Q 341.332681 188.384898 344.800451 188.438218 
L 344.800451 188.737367 
Q 341.222594 188.668857 337.681432 188.635067 
Q 334.14027 188.600968 330.58076 188.600968 
Q 323.993832 188.600968 320.425148 188.725587 
Q 316.856464 188.849897 316.856464 189.081466 
Q 316.856464 189.310865 320.296712 189.436105 
Q 323.73696 189.561035 330.067016 189.561035 
Q 331.791727 189.561035 333.26874 189.553905 
Q 334.745754 189.546465 335.920025 189.530965 
L 335.920025 189.250106 
L 329.177139 189.250106 
L 329.177139 188.999936 
L 346.378378 188.999936 
L 346.378378 189.695574 
z
" clip-path="url(#p32ec7a62fa)" style="fill: #ffa600"/>
   </g>
   <g id="patch_26">
    <path d="M 305.444015 25.92 
L 346.378378 25.92 
L 346.378378 57.594601 
L 331.651527 57.594601 
L 331.651527 188.330648 
L 320.199425 188.330648 
L 320.199425 57.594601 
L 305.444015 57.594601 
L 305.444015 25.92 
z
" clip-path="url(#p32ec7a62fa)" style="fill: #ff0000"/>
   </g>
   <g id="patch_27">
    <path d="M 389.467181 192.156146 
Q 385.338884 192.198073 380.898671 192.219132 
Q 376.458457 192.24 371.724676 192.24 
Q 361.027799 192.24 354.780309 192.115177 
Q 348.532819 191.990353 348.532819 191.77689 
Q 348.532819 191.560938 354.890397 191.437071 
Q 361.257149 191.313205 372.33016 191.313205 
Q 376.596067 191.313205 380.504189 191.330053 
Q 384.421485 191.346708 387.889254 191.379637 
L 387.889254 191.564384 
Q 384.311397 191.522074 380.770235 191.501206 
Q 377.229073 191.480147 373.669563 191.480147 
Q 367.082635 191.480147 363.513951 191.557109 
Q 359.945268 191.633879 359.945268 191.77689 
Q 359.945268 191.918561 363.385515 191.995905 
Q 366.825763 192.073058 373.155819 192.073058 
Q 374.88053 192.073058 376.357543 192.068655 
Q 377.834557 192.06406 379.008828 192.054488 
L 379.008828 191.881037 
L 372.265942 191.881037 
L 372.265942 191.726539 
L 389.467181 191.726539 
L 389.467181 192.156146 
z
" clip-path="url(#p32ec7a62fa)" style="fill: #ffa600"/>
   </g>
   <g id="patch_28">
    <path d="M 376.888088 191.085885 
L 361.14539 191.085885 
L 358.6597 191.313205 
L 348.532819 191.313205 
L 362.99501 190.065352 
L 375.00499 190.065352 
L 389.467181 191.313205 
L 379.348669 191.313205 
L 376.888088 191.085885 
z
M 363.656187 190.854286 
L 374.352183 190.854286 
L 369.012554 190.357926 
L 363.656187 190.854286 
z
" clip-path="url(#p32ec7a62fa)" style="fill: #008000"/>
   </g>
   <g id="patch_29">
    <path d="M 348.532819 187.484651 
L 389.467181 187.484651 
L 389.467181 187.987959 
L 374.74033 187.987959 
L 374.74033 190.065352 
L 363.288228 190.065352 
L 363.288228 187.987959 
L 348.532819 187.987959 
L 348.532819 187.484651 
z
" clip-path="url(#p32ec7a62fa)" style="fill: #ff0000"/>
   </g>
   <g id="patch_30">
    <path d="M 389.467181 176.131791 
Q 386.043093 181.759145 382.340539 184.605539 
Q 378.637985 187.484651 374.605398 187.484651 
Q 362.579833 187.484651 355.556326 166.153052 
Q 348.532819 144.821453 348.532819 108.341801 
Q 348.532819 71.731281 355.556326 50.432399 
Q 362.579833 29.1008 374.605398 29.1008 
Q 378.637985 29.1008 382.340539 31.979911 
Q 386.043093 34.826306 389.467181 40.45366 
L 389.467181 72.025735 
Q 386.012152 64.566219 382.660258 61.098198 
Q 379.308364 57.630178 375.60581 57.630178 
Q 368.963903 57.630178 365.158214 71.142372 
Q 361.362838 84.621848 361.362838 108.341801 
Q 361.362838 131.963602 365.158214 145.475796 
Q 368.963903 158.955273 375.60581 158.955273 
Q 379.308364 158.955273 382.660258 155.487252 
Q 386.012152 151.986514 389.467181 144.526998 
L 389.467181 176.131791 
z
" clip-path="url(#p32ec7a62fa)" style="fill: #0000ff"/>
   </g>
   <g id="patch_31">
    <path d="M 432.555985 192.174406 
Q 428.427687 192.207203 423.987474 192.223676 
Q 419.547261 192.24 414.813479 192.24 
Q 404.116602 192.24 397.869112 192.142358 
Q 391.621622 192.044717 391.621622 191.877737 
Q 391.621622 191.708811 397.9792 191.611918 
Q 404.345952 191.515025 415.418963 191.515025 
Q 419.68487 191.515025 423.592992 191.528204 
Q 427.510288 191.541233 430.978058 191.566991 
L 430.978058 191.711507 
Q 427.4002 191.67841 423.859038 191.662087 
Q 420.317876 191.645614 416.758366 191.645614 
Q 410.171438 191.645614 406.602754 191.705816 
Q 403.034071 191.765869 403.034071 191.877737 
Q 403.034071 191.988558 406.474319 192.04906 
Q 409.914566 192.109412 416.244623 192.109412 
Q 417.969333 192.109412 419.446347 192.105967 
Q 420.92336 192.102373 422.097631 192.094885 
L 422.097631 191.959205 
L 415.354745 191.959205 
L 415.354745 191.838351 
L 432.555985 191.838351 
L 432.555985 192.174406 
z
" clip-path="url(#p32ec7a62fa)" style="fill: #ffa600"/>
   </g>
   <g id="patch_32">
    <path d="M 419.976891 191.233464 
L 404.234193 191.233464 
L 401.748503 191.515025 
L 391.621622 191.515025 
L 406.083813 189.969422 
L 418.093793 189.969422 
L 432.555985 191.515025 
L 422.437472 191.515025 
L 419.976891 191.233464 
z
M 406.74499 190.946604 
L 417.440986 190.946604 
L 412.101357 190.331807 
L 406.74499 190.946604 
z
" clip-path="url(#p32ec7a62fa)" style="fill: #008000"/>
   </g>
   <g id="patch_33">
    <path d="M 391.621622 184.158121 
L 432.555985 184.158121 
L 432.555985 185.291487 
L 417.829134 185.291487 
L 417.829134 189.969422 
L 406.377032 189.969422 
L 406.377032 185.291487 
L 391.621622 185.291487 
L 391.621622 184.158121 
z
" clip-path="url(#p32ec7a62fa)" style="fill: #ff0000"/>
   </g>
   <g id="patch_34">
    <path d="M 432.555985 173.888625 
Q 429.131896 178.97898 425.429342 181.553753 
Q 421.726788 184.158121 417.694201 184.158121 
Q 405.668637 184.158121 398.645129 164.862122 
Q 391.621622 145.566123 391.621622 112.567597 
Q 391.621622 79.450691 398.645129 60.184287 
Q 405.668637 40.888288 417.694201 40.888288 
Q 421.726788 40.888288 425.429342 43.492656 
Q 429.131896 46.067429 432.555985 51.157785 
L 432.555985 79.717047 
Q 429.100955 72.969366 425.749061 69.832287 
Q 422.397167 66.695207 418.694613 66.695207 
Q 412.052706 66.695207 408.247017 78.91798 
Q 404.451641 91.111157 404.451641 112.567597 
Q 404.451641 133.935253 408.247017 146.158025 
Q 412.052706 158.351202 418.694613 158.351202 
Q 422.397167 158.351202 425.749061 155.214123 
Q 429.100955 152.047448 432.555985 145.299767 
L 432.555985 173.888625 
z
" clip-path="url(#p32ec7a62fa)" style="fill: #0000ff"/>
   </g>
   <g id="patch_35">
    <path d="M 463.065694 191.799394 
L 447.322996 191.799394 
L 444.837307 192.24 
L 434.710425 192.24 
L 449.172616 189.821333 
L 461.182596 189.821333 
L 475.644788 192.24 
L 465.526275 192.24 
L 463.065694 191.799394 
z
M 449.833793 191.350494 
L 460.529789 191.350494 
L 455.19016 190.388419 
L 449.833793 191.350494 
z
" clip-path="url(#p32ec7a62fa)" style="fill: #008000"/>
   </g>
   <g id="patch_36">
    <path d="M 475.644788 189.358613 
Q 471.51649 189.589973 467.076277 189.706181 
Q 462.636064 189.821333 457.902283 189.821333 
Q 447.205405 189.821333 440.957915 189.132535 
Q 434.710425 188.443738 434.710425 187.26581 
Q 434.710425 186.074148 441.068003 185.390632 
Q 447.434755 184.707117 458.507766 184.707117 
Q 462.773674 184.707117 466.681795 184.800084 
Q 470.599091 184.891994 474.066861 185.073701 
L 474.066861 186.093164 
Q 470.489003 185.859691 466.947841 185.744539 
Q 463.406679 185.628331 459.847169 185.628331 
Q 453.260241 185.628331 449.691558 186.053019 
Q 446.122874 186.476651 446.122874 187.26581 
Q 446.122874 188.047574 449.563122 188.474375 
Q 453.00337 188.900119 459.333426 188.900119 
Q 461.058137 188.900119 462.53515 188.875821 
Q 464.012163 188.850467 465.186434 188.797645 
L 465.186434 187.840512 
L 458.443548 187.840512 
L 458.443548 186.987967 
L 475.644788 186.987967 
L 475.644788 189.358613 
z
" clip-path="url(#p32ec7a62fa)" style="fill: #ffa600"/>
   </g>
   <g id="patch_37">
    <path d="M 475.644788 183.801784 
Q 472.220699 184.250537 468.518145 184.477523 
Q 464.815591 184.707117 460.783005 184.707117 
Q 448.75744 184.707117 441.733932 183.006031 
Q 434.710425 181.304944 434.710425 178.395877 
Q 434.710425 175.476375 441.733932 173.777897 
Q 448.75744 172.076811 460.783005 172.076811 
Q 464.815591 172.076811 468.518145 172.306405 
Q 472.220699 172.533391 475.644788 172.982143 
L 475.644788 175.499856 
Q 472.189758 174.904997 468.837864 174.62844 
Q 465.48597 174.351883 461.783416 174.351883 
Q 455.141509 174.351883 451.33582 175.429412 
Q 447.540444 176.504332 447.540444 178.395877 
Q 447.540444 180.279596 451.33582 181.357125 
Q 455.141509 182.432044 461.783416 182.432044 
Q 465.48597 182.432044 468.837864 182.155487 
Q 472.189758 181.876321 475.644788 181.281463 
L 475.644788 183.801784 
z
" clip-path="url(#p32ec7a62fa)" style="fill: #0000ff"/>
   </g>
   <g id="patch_38">
    <path d="M 434.710425 116.939033 
L 475.644788 116.939033 
L 475.644788 127.692435 
L 460.917937 127.692435 
L 460.917937 172.076811 
L 449.465835 172.076811 
L 449.465835 127.692435 
L 434.710425 127.692435 
L 434.710425 116.939033 
z
" clip-path="url(#p32ec7a62fa)" style="fill: #ff0000"/>
   </g>
   <g id="patch_39">
    <path d="M 506.154497 191.717363 
L 490.411799 191.717363 
L 487.92611 192.24 
L 477.799228 192.24 
L 492.261419 189.371028 
L 504.271399 189.371028 
L 518.733591 192.24 
L 508.615078 192.24 
L 506.154497 191.717363 
z
M 492.922596 191.184887 
L 503.618592 191.184887 
L 498.278963 190.043693 
L 492.922596 191.184887 
z
" clip-path="url(#p32ec7a62fa)" style="fill: #008000"/>
   </g>
   <g id="patch_40">
    <path d="M 518.733591 188.781636 
Q 514.605293 189.076332 510.16508 189.224353 
Q 505.724867 189.371028 500.991086 189.371028 
Q 490.294208 189.371028 484.046718 188.493667 
Q 477.799228 187.616307 477.799228 186.115912 
Q 477.799228 184.598024 484.156806 183.727392 
Q 490.523558 182.856759 501.596569 182.856759 
Q 505.862477 182.856759 509.770598 182.975176 
Q 513.687894 183.092247 517.155664 183.323698 
L 517.155664 184.622246 
Q 513.577806 184.324858 510.036644 184.178183 
Q 506.495482 184.030162 502.935972 184.030162 
Q 496.349044 184.030162 492.780361 184.571111 
Q 489.211677 185.110715 489.211677 186.115912 
Q 489.211677 187.11169 492.651925 187.65533 
Q 496.092173 188.197626 502.422229 188.197626 
Q 504.14694 188.197626 505.623953 188.166676 
Q 507.100966 188.13438 508.275237 188.067098 
L 508.275237 186.847943 
L 501.532351 186.847943 
L 501.532351 185.762008 
L 518.733591 185.762008 
L 518.733591 188.781636 
z
" clip-path="url(#p32ec7a62fa)" style="fill: #ffa600"/>
   </g>
   <g id="patch_41">
    <path d="M 477.799228 173.0657 
L 518.733591 173.0657 
L 518.733591 174.975229 
L 504.00674 174.975229 
L 504.00674 182.856759 
L 492.554638 182.856759 
L 492.554638 174.975229 
L 477.799228 174.975229 
L 477.799228 173.0657 
z
" clip-path="url(#p32ec7a62fa)" style="fill: #ff0000"/>
   </g>
   <g id="patch_42">
    <path d="M 518.733591 169.010643 
Q 515.309502 171.020643 511.606948 172.037328 
Q 507.904394 173.0657 503.871808 173.0657 
Q 491.846243 173.0657 484.822735 165.4464 
Q 477.799228 157.827101 477.799228 144.797164 
Q 477.799228 131.720482 484.822735 124.112869 
Q 491.846243 116.493569 503.871808 116.493569 
Q 507.904394 116.493569 511.606948 117.521941 
Q 515.309502 118.538627 518.733591 120.548626 
L 518.733591 131.825657 
Q 515.278561 129.161239 511.926667 127.922519 
Q 508.574773 126.683798 504.872219 126.683798 
Q 498.230312 126.683798 494.424623 131.510134 
Q 490.629247 136.324783 490.629247 144.797164 
Q 490.629247 153.234486 494.424623 158.060822 
Q 498.230312 162.875471 504.872219 162.875471 
Q 508.574773 162.875471 511.926667 161.636751 
Q 515.278561 160.386344 518.733591 157.721926 
L 518.733591 169.010643 
z
" clip-path="url(#p32ec7a62fa)" style="fill: #0000ff"/>
   </g>
   <g id="patch_43">
    <path d="M 561.822394 192.098041 
Q 557.694096 192.169021 553.253883 192.204672 
Q 548.81367 192.24 544.079889 192.24 
Q 533.383011 192.24 527.135521 192.028682 
Q 520.888031 191.817365 520.888031 191.455985 
Q 520.888031 191.090393 527.245609 190.880696 
Q 533.612361 190.670998 544.685372 190.670998 
Q 548.95128 190.670998 552.859401 190.69952 
Q 556.776697 190.727717 560.244467 190.783464 
L 560.244467 191.096227 
Q 556.666609 191.024599 553.125447 190.989271 
Q 549.584285 190.95362 546.024775 190.95362 
Q 539.437848 190.95362 535.869164 191.083911 
Q 532.30048 191.213878 532.30048 191.455985 
Q 532.30048 191.695824 535.740728 191.826764 
Q 539.180976 191.957379 545.511032 191.957379 
Q 547.235743 191.957379 548.712756 191.949924 
Q 550.189769 191.942146 551.36404 191.92594 
L 551.36404 191.6323 
L 544.621154 191.6323 
L 544.621154 191.370745 
L 561.822394 191.370745 
L 561.822394 192.098041 
z
" clip-path="url(#p32ec7a62fa)" style="fill: #ffa600"/>
   </g>
   <g id="patch_44">
    <path d="M 561.822394 190.106222 
Q 558.398305 190.386169 554.695751 190.52777 
Q 550.993197 190.670998 546.960611 190.670998 
Q 534.935046 190.670998 527.911538 189.609805 
Q 520.888031 188.548611 520.888031 186.73384 
Q 520.888031 184.912558 527.911538 183.852992 
Q 534.935046 182.791798 546.960611 182.791798 
Q 550.993197 182.791798 554.695751 182.935027 
Q 558.398305 183.076628 561.822394 183.356575 
L 561.822394 184.927206 
Q 558.367364 184.556114 555.01547 184.383589 
Q 551.663576 184.211063 547.961022 184.211063 
Q 541.319115 184.211063 537.513426 184.883261 
Q 533.71805 185.553831 533.71805 186.73384 
Q 533.71805 187.908965 537.513426 188.581163 
Q 541.319115 189.251733 547.961022 189.251733 
Q 551.663576 189.251733 555.01547 189.079208 
Q 558.367364 188.905055 561.822394 188.533963 
L 561.822394 190.106222 
z
" clip-path="url(#p32ec7a62fa)" style="fill: #0000ff"/>
   </g>
   <g id="patch_45">
    <path d="M 549.2433 180.975474 
L 533.500602 180.975474 
L 531.014913 182.791798 
L 520.888031 182.791798 
L 535.350222 172.821245 
L 547.360202 172.821245 
L 561.822394 182.791798 
L 551.703881 182.791798 
L 549.2433 180.975474 
z
M 536.011399 179.12496 
L 546.707395 179.12496 
L 541.367766 175.158962 
L 536.011399 179.12496 
z
" clip-path="url(#p32ec7a62fa)" style="fill: #008000"/>
   </g>
   <g id="patch_46">
    <path d="M 520.888031 138.138363 
L 561.822394 138.138363 
L 561.822394 144.902491 
L 547.095543 144.902491 
L 547.095543 172.821245 
L 535.643441 172.821245 
L 535.643441 144.902491 
L 520.888031 144.902491 
L 520.888031 138.138363 
z
" clip-path="url(#p32ec7a62fa)" style="fill: #ff0000"/>
   </g>
   <g id="patch_47">
    <path d="M 604.911197 191.932298 
Q 600.782899 192.086149 596.342686 192.163426 
Q 591.902473 192.24 587.168692 192.24 
Q 576.471814 192.24 570.224324 191.781959 
Q 563.976834 191.323918 563.976834 190.540612 
Q 563.976834 189.748174 570.334412 189.293646 
Q 576.701164 188.839117 587.774175 188.839117 
Q 592.040083 188.839117 595.948204 188.900939 
Q 599.8655 188.962058 603.33327 189.082891 
L 603.33327 189.760819 
Q 599.755412 189.605563 596.21425 189.528989 
Q 592.673088 189.451712 589.113579 189.451712 
Q 582.526651 189.451712 578.957967 189.734124 
Q 575.389283 190.015833 575.389283 190.540612 
Q 575.389283 191.060475 578.829531 191.344291 
Q 582.269779 191.627406 588.599835 191.627406 
Q 590.324546 191.627406 591.801559 191.611248 
Q 593.278572 191.594387 594.452843 191.559261 
L 594.452843 190.922781 
L 587.709957 190.922781 
L 587.709957 190.355851 
L 604.911197 190.355851 
L 604.911197 191.932298 
z
" clip-path="url(#p32ec7a62fa)" style="fill: #ffa600"/>
   </g>
   <g id="patch_48">
    <path d="M 592.332103 187.996645 
L 576.589405 187.996645 
L 574.103716 188.839117 
L 563.976834 188.839117 
L 578.439026 184.21444 
L 590.449005 184.21444 
L 604.911197 188.839117 
L 594.792684 188.839117 
L 592.332103 187.996645 
z
M 579.100202 187.138315 
L 589.796198 187.138315 
L 584.456569 185.298752 
L 579.100202 187.138315 
z
" clip-path="url(#p32ec7a62fa)" style="fill: #008000"/>
   </g>
   <g id="patch_49">
    <path d="M 604.911197 183.580769 
Q 601.487108 183.894865 597.784554 184.05374 
Q 594.082 184.21444 590.049414 184.21444 
Q 578.023849 184.21444 571.000341 183.023795 
Q 563.976834 181.833151 563.976834 179.797002 
Q 563.976834 177.753549 571.000341 176.56473 
Q 578.023849 175.374085 590.049414 175.374085 
Q 594.082 175.374085 597.784554 175.534786 
Q 601.487108 175.69366 604.911197 176.007757 
L 604.911197 177.769984 
Q 601.456168 177.353624 598.104273 177.160052 
Q 594.752379 176.966481 591.049825 176.966481 
Q 584.407918 176.966481 580.602229 177.720678 
Q 576.806854 178.473049 576.806854 179.797002 
Q 576.806854 181.115477 580.602229 181.869673 
Q 584.407918 182.622044 591.049825 182.622044 
Q 594.752379 182.622044 598.104273 182.428473 
Q 601.456168 182.233076 604.911197 181.816715 
L 604.911197 183.580769 
z
" clip-path="url(#p32ec7a62fa)" style="fill: #0000ff"/>
   </g>
   <g id="patch_50">
    <path d="M 563.976834 148.355989 
L 604.911197 148.355989 
L 604.911197 153.625271 
L 590.184346 153.625271 
L 590.184346 175.374085 
L 578.732244 175.374085 
L 578.732244 153.625271 
L 563.976834 153.625271 
L 563.976834 148.355989 
z
" clip-path="url(#p32ec7a62fa)" style="fill: #ff0000"/>
   </g>
   <g id="patch_51">
    <path d="M 648 192.012464 
Q 643.871703 192.126232 639.431489 192.183376 
Q 634.991276 192.24 630.257495 192.24 
Q 619.560617 192.24 613.313127 191.901294 
Q 607.065637 191.562588 607.065637 190.983359 
Q 607.065637 190.397376 613.423215 190.061267 
Q 619.789967 189.725159 630.862978 189.725159 
Q 635.128886 189.725159 639.037007 189.770874 
Q 642.954303 189.816069 646.422073 189.905421 
L 646.422073 190.406727 
Q 642.844215 190.29192 639.303053 190.235296 
Q 635.761891 190.178152 632.202382 190.178152 
Q 625.615454 190.178152 622.04677 190.386986 
Q 618.478086 190.595301 618.478086 190.983359 
Q 618.478086 191.36778 621.918334 191.577653 
Q 625.358582 191.787006 631.688638 191.787006 
Q 633.413349 191.787006 634.890362 191.775058 
Q 636.367375 191.762591 637.541646 191.736616 
L 637.541646 191.26596 
L 630.798761 191.26596 
L 630.798761 190.846733 
L 648 190.846733 
L 648 192.012464 
z
" clip-path="url(#p32ec7a62fa)" style="fill: #ffa600"/>
   </g>
   <g id="patch_52">
    <path d="M 635.420906 188.934232 
L 619.678208 188.934232 
L 617.192519 189.725159 
L 607.065637 189.725159 
L 621.527829 185.383435 
L 633.537808 185.383435 
L 648 189.725159 
L 637.881487 189.725159 
L 635.420906 188.934232 
z
M 622.189005 188.128417 
L 632.885001 188.128417 
L 627.545373 186.401405 
L 622.189005 188.128417 
z
" clip-path="url(#p32ec7a62fa)" style="fill: #008000"/>
   </g>
   <g id="patch_53">
    <path d="M 648 184.932292 
Q 644.575911 185.155913 640.873357 185.269024 
Q 637.170803 185.383435 633.138217 185.383435 
Q 621.112652 185.383435 614.089145 184.535753 
Q 607.065637 183.688072 607.065637 182.238432 
Q 607.065637 180.783592 614.089145 179.93721 
Q 621.112652 179.089528 633.138217 179.089528 
Q 637.170803 179.089528 640.873357 179.203939 
Q 644.575911 179.31705 648 179.540672 
L 648 180.795293 
Q 644.544971 180.498864 641.193076 180.361051 
Q 637.841182 180.223238 634.138628 180.223238 
Q 627.496721 180.223238 623.691032 180.760189 
Q 619.895657 181.295841 619.895657 182.238432 
Q 619.895657 183.177122 623.691032 183.714074 
Q 627.496721 184.249726 634.138628 184.249726 
Q 637.841182 184.249726 641.193076 184.111913 
Q 644.544971 183.972799 648 183.676371 
L 648 184.932292 
z
" clip-path="url(#p32ec7a62fa)" style="fill: #0000ff"/>
   </g>
   <g id="patch_54">
    <path d="M 607.065637 164.126765 
L 648 164.126765 
L 648 167.044921 
L 633.273149 167.044921 
L 633.273149 179.089528 
L 621.821047 179.089528 
L 621.821047 167.044921 
L 607.065637 167.044921 
L 607.065637 164.126765 
z
" clip-path="url(#p32ec7a62fa)" style="fill: #ff0000"/>
   </g>
   <g id="matplotlib.axis_1">
    <g id="xtick_1">
     <g id="line2d_2">
      <defs>
       <path id="m515b442754" d="M 0 0 
L 0 3.5 
" style="stroke: #000000; stroke-width: 0.8"/>
      </defs>
      <g>
       <use xlink:href="#m515b442754" x="110.467181" y="192.24" style="stroke: #000000; stroke-width: 0.8"/>
      </g>
     </g>
     <g id="text_1">
      <!-- 0 -->
      <g transform="translate(107.285931 206.838437) scale(0.1 -0.1)">
       <defs>
        <path id="DejaVuSans-30" d="M 2034 4250 
Q 1547 4250 1301 3770 
Q 1056 3291 1056 2328 
Q 1056 1369 1301 889 
Q 1547 409 2034 409 
Q 2525 409 2770 889 
Q 3016 1369 3016 2328 
Q 3016 3291 2770 3770 
Q 2525 4250 2034 4250 
z
M 2034 4750 
Q 2819 4750 3233 4129 
Q 3647 3509 3647 2328 
Q 3647 1150 3233 529 
Q 2819 -91 2034 -91 
Q 1250 -91 836 529 
Q 422 1150 422 2328 
Q 422 3509 836 4129 
Q 1250 4750 2034 4750 
z
" transform="scale(0.015625)"/>
       </defs>
       <use xlink:href="#DejaVuSans-30"/>
      </g>
     </g>
    </g>
    <g id="xtick_2">
     <g id="line2d_3">
      <g>
       <use xlink:href="#m515b442754" x="196.644788" y="192.24" style="stroke: #000000; stroke-width: 0.8"/>
      </g>
     </g>
     <g id="text_2">
      <!-- 2 -->
      <g transform="translate(193.463538 206.838437) scale(0.1 -0.1)">
       <defs>
        <path id="DejaVuSans-32" d="M 1228 531 
L 3431 531 
L 3431 0 
L 469 0 
L 469 531 
Q 828 903 1448 1529 
Q 2069 2156 2228 2338 
Q 2531 2678 2651 2914 
Q 2772 3150 2772 3378 
Q 2772 3750 2511 3984 
Q 2250 4219 1831 4219 
Q 1534 4219 1204 4116 
Q 875 4013 500 3803 
L 500 4441 
Q 881 4594 1212 4672 
Q 1544 4750 1819 4750 
Q 2544 4750 2975 4387 
Q 3406 4025 3406 3419 
Q 3406 3131 3298 2873 
Q 3191 2616 2906 2266 
Q 2828 2175 2409 1742 
Q 1991 1309 1228 531 
z
" transform="scale(0.015625)"/>
       </defs>
       <use xlink:href="#DejaVuSans-32"/>
      </g>
     </g>
    </g>
    <g id="xtick_3">
     <g id="line2d_4">
      <g>
       <use xlink:href="#m515b442754" x="282.822394" y="192.24" style="stroke: #000000; stroke-width: 0.8"/>
      </g>
     </g>
     <g id="text_3">
      <!-- 4 -->
      <g transform="translate(279.641144 206.838437) scale(0.1 -0.1)">
       <defs>
        <path id="DejaVuSans-34" d="M 2419 4116 
L 825 1625 
L 2419 1625 
L 2419 4116 
z
M 2253 4666 
L 3047 4666 
L 3047 1625 
L 3713 1625 
L 3713 1100 
L 3047 1100 
L 3047 0 
L 2419 0 
L 2419 1100 
L 313 1100 
L 313 1709 
L 2253 4666 
z
" transform="scale(0.015625)"/>
       </defs>
       <use xlink:href="#DejaVuSans-34"/>
      </g>
     </g>
    </g>
    <g id="xtick_4">
     <g id="line2d_5">
      <g>
       <use xlink:href="#m515b442754" x="369" y="192.24" style="stroke: #000000; stroke-width: 0.8"/>
      </g>
     </g>
     <g id="text_4">
      <!-- 6 -->
      <g transform="translate(365.81875 206.838437) scale(0.1 -0.1)">
       <defs>
        <path id="DejaVuSans-36" d="M 2113 2584 
Q 1688 2584 1439 2293 
Q 1191 2003 1191 1497 
Q 1191 994 1439 701 
Q 1688 409 2113 409 
Q 2538 409 2786 701 
Q 3034 994 3034 1497 
Q 3034 2003 2786 2293 
Q 2538 2584 2113 2584 
z
M 3366 4563 
L 3366 3988 
Q 3128 4100 2886 4159 
Q 2644 4219 2406 4219 
Q 1781 4219 1451 3797 
Q 1122 3375 1075 2522 
Q 1259 2794 1537 2939 
Q 1816 3084 2150 3084 
Q 2853 3084 3261 2657 
Q 3669 2231 3669 1497 
Q 3669 778 3244 343 
Q 2819 -91 2113 -91 
Q 1303 -91 875 529 
Q 447 1150 447 2328 
Q 447 3434 972 4092 
Q 1497 4750 2381 4750 
Q 2619 4750 2861 4703 
Q 3103 4656 3366 4563 
z
" transform="scale(0.015625)"/>
       </defs>
       <use xlink:href="#DejaVuSans-36"/>
      </g>
     </g>
    </g>
    <g id="xtick_5">
     <g id="line2d_6">
      <g>
       <use xlink:href="#m515b442754" x="455.177606" y="192.24" style="stroke: #000000; stroke-width: 0.8"/>
      </g>
     </g>
     <g id="text_5">
      <!-- 8 -->
      <g transform="translate(451.996356 206.838437) scale(0.1 -0.1)">
       <defs>
        <path id="DejaVuSans-38" d="M 2034 2216 
Q 1584 2216 1326 1975 
Q 1069 1734 1069 1313 
Q 1069 891 1326 650 
Q 1584 409 2034 409 
Q 2484 409 2743 651 
Q 3003 894 3003 1313 
Q 3003 1734 2745 1975 
Q 2488 2216 2034 2216 
z
M 1403 2484 
Q 997 2584 770 2862 
Q 544 3141 544 3541 
Q 544 4100 942 4425 
Q 1341 4750 2034 4750 
Q 2731 4750 3128 4425 
Q 3525 4100 3525 3541 
Q 3525 3141 3298 2862 
Q 3072 2584 2669 2484 
Q 3125 2378 3379 2068 
Q 3634 1759 3634 1313 
Q 3634 634 3220 271 
Q 2806 -91 2034 -91 
Q 1263 -91 848 271 
Q 434 634 434 1313 
Q 434 1759 690 2068 
Q 947 2378 1403 2484 
z
M 1172 3481 
Q 1172 3119 1398 2916 
Q 1625 2713 2034 2713 
Q 2441 2713 2670 2916 
Q 2900 3119 2900 3481 
Q 2900 3844 2670 4047 
Q 2441 4250 2034 4250 
Q 1625 4250 1398 4047 
Q 1172 3844 1172 3481 
z
" transform="scale(0.015625)"/>
       </defs>
       <use xlink:href="#DejaVuSans-38"/>
      </g>
     </g>
    </g>
    <g id="xtick_6">
     <g id="line2d_7">
      <g>
       <use xlink:href="#m515b442754" x="541.355212" y="192.24" style="stroke: #000000; stroke-width: 0.8"/>
      </g>
     </g>
     <g id="text_6">
      <!-- 10 -->
      <g transform="translate(534.992712 206.838437) scale(0.1 -0.1)">
       <defs>
        <path id="DejaVuSans-31" d="M 794 531 
L 1825 531 
L 1825 4091 
L 703 3866 
L 703 4441 
L 1819 4666 
L 2450 4666 
L 2450 531 
L 3481 531 
L 3481 0 
L 794 0 
L 794 531 
z
" transform="scale(0.015625)"/>
       </defs>
       <use xlink:href="#DejaVuSans-31"/>
       <use xlink:href="#DejaVuSans-30" x="63.623047"/>
      </g>
     </g>
    </g>
    <g id="xtick_7">
     <g id="line2d_8">
      <g>
       <use xlink:href="#m515b442754" x="627.532819" y="192.24" style="stroke: #000000; stroke-width: 0.8"/>
      </g>
     </g>
     <g id="text_7">
      <!-- 12 -->
      <g transform="translate(621.170319 206.838437) scale(0.1 -0.1)">
       <use xlink:href="#DejaVuSans-31"/>
       <use xlink:href="#DejaVuSans-32" x="63.623047"/>
      </g>
     </g>
    </g>
   </g>
   <g id="matplotlib.axis_2">
    <g id="ytick_1">
     <g id="line2d_9">
      <defs>
       <path id="mfdcc763a68" d="M 0 0 
L -3.5 0 
" style="stroke: #000000; stroke-width: 0.8"/>
      </defs>
      <g>
       <use xlink:href="#mfdcc763a68" x="90" y="192.24" style="stroke: #000000; stroke-width: 0.8"/>
      </g>
     </g>
     <g id="text_8">
      <!-- 0.00 -->
      <g transform="translate(60.734375 196.039219) scale(0.1 -0.1)">
       <defs>
        <path id="DejaVuSans-2e" d="M 684 794 
L 1344 794 
L 1344 0 
L 684 0 
L 684 794 
z
" transform="scale(0.015625)"/>
       </defs>
       <use xlink:href="#DejaVuSans-30"/>
       <use xlink:href="#DejaVuSans-2e" x="63.623047"/>
       <use xlink:href="#DejaVuSans-30" x="95.410156"/>
       <use xlink:href="#DejaVuSans-30" x="159.033203"/>
      </g>
     </g>
    </g>
    <g id="ytick_2">
     <g id="line2d_10">
      <g>
       <use xlink:href="#mfdcc763a68" x="90" y="169.165698" style="stroke: #000000; stroke-width: 0.8"/>
      </g>
     </g>
     <g id="text_9">
      <!-- 0.25 -->
      <g transform="translate(60.734375 172.964916) scale(0.1 -0.1)">
       <defs>
        <path id="DejaVuSans-35" d="M 691 4666 
L 3169 4666 
L 3169 4134 
L 1269 4134 
L 1269 2991 
Q 1406 3038 1543 3061 
Q 1681 3084 1819 3084 
Q 2600 3084 3056 2656 
Q 3513 2228 3513 1497 
Q 3513 744 3044 326 
Q 2575 -91 1722 -91 
Q 1428 -91 1123 -41 
Q 819 9 494 109 
L 494 744 
Q 775 591 1075 516 
Q 1375 441 1709 441 
Q 2250 441 2565 725 
Q 2881 1009 2881 1497 
Q 2881 1984 2565 2268 
Q 2250 2553 1709 2553 
Q 1456 2553 1204 2497 
Q 953 2441 691 2322 
L 691 4666 
z
" transform="scale(0.015625)"/>
       </defs>
       <use xlink:href="#DejaVuSans-30"/>
       <use xlink:href="#DejaVuSans-2e" x="63.623047"/>
       <use xlink:href="#DejaVuSans-32" x="95.410156"/>
       <use xlink:href="#DejaVuSans-35" x="159.033203"/>
      </g>
     </g>
    </g>
    <g id="ytick_3">
     <g id="line2d_11">
      <g>
       <use xlink:href="#mfdcc763a68" x="90" y="146.091395" style="stroke: #000000; stroke-width: 0.8"/>
      </g>
     </g>
     <g id="text_10">
      <!-- 0.50 -->
      <g transform="translate(60.734375 149.890614) scale(0.1 -0.1)">
       <use xlink:href="#DejaVuSans-30"/>
       <use xlink:href="#DejaVuSans-2e" x="63.623047"/>
       <use xlink:href="#DejaVuSans-35" x="95.410156"/>
       <use xlink:href="#DejaVuSans-30" x="159.033203"/>
      </g>
     </g>
    </g>
    <g id="ytick_4">
     <g id="line2d_12">
      <g>
       <use xlink:href="#mfdcc763a68" x="90" y="123.017093" style="stroke: #000000; stroke-width: 0.8"/>
      </g>
     </g>
     <g id="text_11">
      <!-- 0.75 -->
      <g transform="translate(60.734375 126.816312) scale(0.1 -0.1)">
       <defs>
        <path id="DejaVuSans-37" d="M 525 4666 
L 3525 4666 
L 3525 4397 
L 1831 0 
L 1172 0 
L 2766 4134 
L 525 4134 
L 525 4666 
z
" transform="scale(0.015625)"/>
       </defs>
       <use xlink:href="#DejaVuSans-30"/>
       <use xlink:href="#DejaVuSans-2e" x="63.623047"/>
       <use xlink:href="#DejaVuSans-37" x="95.410156"/>
       <use xlink:href="#DejaVuSans-35" x="159.033203"/>
      </g>
     </g>
    </g>
    <g id="ytick_5">
     <g id="line2d_13">
      <g>
       <use xlink:href="#mfdcc763a68" x="90" y="99.94279" style="stroke: #000000; stroke-width: 0.8"/>
      </g>
     </g>
     <g id="text_12">
      <!-- 1.00 -->
      <g transform="translate(60.734375 103.742009) scale(0.1 -0.1)">
       <use xlink:href="#DejaVuSans-31"/>
       <use xlink:href="#DejaVuSans-2e" x="63.623047"/>
       <use xlink:href="#DejaVuSans-30" x="95.410156"/>
       <use xlink:href="#DejaVuSans-30" x="159.033203"/>
      </g>
     </g>
    </g>
    <g id="ytick_6">
     <g id="line2d_14">
      <g>
       <use xlink:href="#mfdcc763a68" x="90" y="76.868488" style="stroke: #000000; stroke-width: 0.8"/>
      </g>
     </g>
     <g id="text_13">
      <!-- 1.25 -->
      <g transform="translate(60.734375 80.667707) scale(0.1 -0.1)">
       <use xlink:href="#DejaVuSans-31"/>
       <use xlink:href="#DejaVuSans-2e" x="63.623047"/>
       <use xlink:href="#DejaVuSans-32" x="95.410156"/>
       <use xlink:href="#DejaVuSans-35" x="159.033203"/>
      </g>
     </g>
    </g>
    <g id="ytick_7">
     <g id="line2d_15">
      <g>
       <use xlink:href="#mfdcc763a68" x="90" y="53.794186" style="stroke: #000000; stroke-width: 0.8"/>
      </g>
     </g>
     <g id="text_14">
      <!-- 1.50 -->
      <g transform="translate(60.734375 57.593404) scale(0.1 -0.1)">
       <use xlink:href="#DejaVuSans-31"/>
       <use xlink:href="#DejaVuSans-2e" x="63.623047"/>
       <use xlink:href="#DejaVuSans-35" x="95.410156"/>
       <use xlink:href="#DejaVuSans-30" x="159.033203"/>
      </g>
     </g>
    </g>
    <g id="ytick_8">
     <g id="line2d_16">
      <g>
       <use xlink:href="#mfdcc763a68" x="90" y="30.719883" style="stroke: #000000; stroke-width: 0.8"/>
      </g>
     </g>
     <g id="text_15">
      <!-- 1.75 -->
      <g transform="translate(60.734375 34.519102) scale(0.1 -0.1)">
       <use xlink:href="#DejaVuSans-31"/>
       <use xlink:href="#DejaVuSans-2e" x="63.623047"/>
       <use xlink:href="#DejaVuSans-37" x="95.410156"/>
       <use xlink:href="#DejaVuSans-35" x="159.033203"/>
      </g>
     </g>
    </g>
   </g>
  </g>
 </g>
 <defs>
  <clipPath id="p32ec7a62fa">
   <rect x="90" y="25.92" width="558" height="166.32"/>
  </clipPath>
 </defs>
</svg>
