<?xml version="1.0" encoding="utf-8" standalone="no"?>
<!DOCTYPE svg PUBLIC "-//W3C//DTD SVG 1.1//EN"
  "http://www.w3.org/Graphics/SVG/1.1/DTD/svg11.dtd">
<svg xmlns:xlink="http://www.w3.org/1999/xlink" width="720pt" height="216pt" viewBox="0 0 720 216" xmlns="http://www.w3.org/2000/svg" version="1.1">
 <metadata>
  <rdf:RDF xmlns:dc="http://purl.org/dc/elements/1.1/" xmlns:cc="http://creativecommons.org/ns#" xmlns:rdf="http://www.w3.org/1999/02/22-rdf-syntax-ns#">
   <cc:Work>
    <dc:type rdf:resource="http://purl.org/dc/dcmitype/StillImage"/>
    <dc:date>2024-11-23T05:01:40.794962</dc:date>
    <dc:format>image/svg+xml</dc:format>
    <dc:creator>
     <cc:Agent>
      <dc:title>Matplotlib v3.7.2, https://matplotlib.org/</dc:title>
     </cc:Agent>
    </dc:creator>
   </cc:Work>
  </rdf:RDF>
 </metadata>
 <defs>
  <style type="text/css">*{stroke-linejoin: round; stroke-linecap: butt}</style>
 </defs>
 <g id="figure_1">
  <g id="patch_1">
   <path d="M 0 216 
L 720 216 
L 720 0 
L 0 0 
z
" style="fill: #ffffff"/>
  </g>
  <g id="axes_1">
   <g id="patch_2">
    <path d="M 90 192.24 
L 648 192.24 
L 648 25.92 
L 90 25.92 
z
" style="fill: #ffffff"/>
   </g>
   <g id="line2d_1">
    <path d="M 90 192.24 
L 648 192.24 
" clip-path="url(#p226799ac3c)" style="fill: none; stroke: #000000; stroke-width: 0.5; stroke-linecap: square"/>
   </g>
   <g id="patch_3">
    <path d="M 128 192.035368 
Q 124.167638 192.137684 120.045719 192.189076 
Q 115.923801 192.24 111.529359 192.24 
Q 101.599283 192.24 95.799641 191.935387 
Q 90 191.630775 90 191.10985 
Q 90 190.582852 95.901838 190.280575 
Q 101.812192 189.978299 112.091439 189.978299 
Q 116.051546 189.978299 119.679516 190.019412 
Q 123.316002 190.060058 126.535186 190.140416 
L 126.535186 190.591261 
Q 123.213805 190.488011 119.92649 190.437086 
Q 116.639175 190.385695 113.334827 190.385695 
Q 107.220081 190.385695 103.907216 190.573508 
Q 100.594352 190.760854 100.594352 191.10985 
Q 100.594352 191.455576 103.787987 191.644324 
Q 106.981623 191.832604 112.857911 191.832604 
Q 114.458987 191.832604 115.830121 191.821859 
Q 117.201255 191.810646 118.291349 191.787286 
L 118.291349 191.364005 
L 112.031824 191.364005 
L 112.031824 190.986977 
L 128 190.986977 
L 128 192.035368 
z
" clip-path="url(#p226799ac3c)" style="fill: #ffa600"/>
   </g>
   <g id="patch_4">
    <path d="M 128 189.703947 
Q 124.821366 189.839937 121.384228 189.908723 
Q 117.94709 189.978299 114.203578 189.978299 
Q 103.04006 189.978299 96.52003 189.462803 
Q 90 188.947307 90 188.065746 
Q 90 187.181022 96.52003 186.666317 
Q 103.04006 186.150821 114.203578 186.150821 
Q 117.94709 186.150821 121.384228 186.220397 
Q 124.821366 186.289183 128 186.425172 
L 128 187.188138 
Q 124.792643 187.007872 121.681028 186.924065 
Q 118.569413 186.840257 115.132275 186.840257 
Q 108.96649 186.840257 105.43361 187.166791 
Q 101.910305 187.492533 101.910305 188.065746 
Q 101.910305 188.636586 105.43361 188.96312 
Q 108.96649 189.288863 115.132275 189.288863 
Q 118.569413 189.288863 121.681028 189.205055 
Q 124.792643 189.120457 128 188.940191 
L 128 189.703947 
z
" clip-path="url(#p226799ac3c)" style="fill: #0000ff"/>
   </g>
   <g id="patch_5">
    <path d="M 90 171.362835 
L 128 171.362835 
L 128 174.246905 
L 114.328837 174.246905 
L 114.328837 186.150821 
L 103.697674 186.150821 
L 103.697674 174.246905 
L 90 174.246905 
L 90 171.362835 
z
" clip-path="url(#p226799ac3c)" style="fill: #ff0000"/>
   </g>
   <g id="patch_6">
    <path d="M 116.322633 168.637227 
L 101.708444 168.637227 
L 99.400941 171.362835 
L 90 171.362835 
L 103.425475 156.400851 
L 114.574525 156.400851 
L 128 171.362835 
L 118.606829 171.362835 
L 116.322633 168.637227 
z
M 104.039256 165.860314 
L 113.968514 165.860314 
L 109.011654 159.908869 
L 104.039256 165.860314 
z
" clip-path="url(#p226799ac3c)" style="fill: #008000"/>
   </g>
   <g id="patch_7">
    <path d="M 168 192.000335 
Q 164.821366 192.119131 161.384228 192.17922 
Q 157.94709 192.24 154.203578 192.24 
Q 143.04006 192.24 136.52003 191.789678 
Q 130 191.339355 130 190.569249 
Q 130 189.796379 136.52003 189.346748 
Q 143.04006 188.896425 154.203578 188.896425 
Q 157.94709 188.896425 161.384228 188.957205 
Q 164.821366 189.017294 168 189.136091 
L 168 189.802595 
Q 164.792643 189.645121 161.681028 189.571909 
Q 158.569413 189.498697 155.132275 189.498697 
Q 148.96649 189.498697 145.43361 189.783947 
Q 141.910305 190.068507 141.910305 190.569249 
Q 141.910305 191.067919 145.43361 191.353169 
Q 148.96649 191.637728 155.132275 191.637728 
Q 158.569413 191.637728 161.681028 191.564516 
Q 164.792643 191.490614 168 191.333139 
L 168 192.000335 
z
" clip-path="url(#p226799ac3c)" style="fill: #0000ff"/>
   </g>
   <g id="patch_8">
    <path d="M 130 184.569478 
L 168 184.569478 
L 168 185.413353 
L 154.328837 185.413353 
L 154.328837 188.896425 
L 143.697674 188.896425 
L 143.697674 185.413353 
L 130 185.413353 
L 130 184.569478 
z
" clip-path="url(#p226799ac3c)" style="fill: #ff0000"/>
   </g>
   <g id="patch_9">
    <path d="M 168 183.644136 
Q 164.167638 184.106807 160.045719 184.339199 
Q 155.923801 184.569478 151.529359 184.569478 
Q 141.599283 184.569478 135.799641 183.192029 
Q 130 181.814579 130 179.458972 
Q 130 177.075901 135.901838 175.709015 
Q 141.812192 174.342129 152.091439 174.342129 
Q 156.051546 174.342129 159.679516 174.528042 
Q 163.316002 174.711843 166.535186 175.075219 
L 166.535186 177.113928 
Q 163.213805 176.647032 159.92649 176.416753 
Q 156.639175 176.184361 153.334827 176.184361 
Q 147.220081 176.184361 143.907216 177.033648 
Q 140.594352 177.880821 140.594352 179.458972 
Q 140.594352 181.022335 143.787987 181.875846 
Q 146.981623 182.727245 152.857911 182.727245 
Q 154.458987 182.727245 155.830121 182.678654 
Q 157.201255 182.627951 158.291349 182.522318 
L 158.291349 180.608255 
L 152.031824 180.608255 
L 152.031824 178.903345 
L 168 178.903345 
L 168 183.644136 
z
" clip-path="url(#p226799ac3c)" style="fill: #ffa600"/>
   </g>
   <g id="patch_10">
    <path d="M 156.322633 170.042651 
L 141.708444 170.042651 
L 139.400941 174.342129 
L 130 174.342129 
L 143.425475 150.740522 
L 154.574525 150.740522 
L 168 174.342129 
L 158.606829 174.342129 
L 156.322633 170.042651 
z
M 144.039256 165.662241 
L 153.968514 165.662241 
L 149.011654 156.274204 
L 144.039256 165.662241 
z
" clip-path="url(#p226799ac3c)" style="fill: #008000"/>
   </g>
   <g id="patch_11">
    <path d="M 208 192.147583 
Q 204.821366 192.193392 201.384228 192.216563 
Q 197.94709 192.24 194.203578 192.24 
Q 183.04006 192.24 176.52003 192.066351 
Q 170 191.892703 170 191.595742 
Q 170 191.297716 176.52003 191.124334 
Q 183.04006 190.950685 194.203578 190.950685 
Q 197.94709 190.950685 201.384228 190.974122 
Q 204.821366 190.997293 208 191.043102 
L 208 191.300113 
Q 204.792643 191.239389 201.681028 191.211158 
Q 198.569413 191.182927 195.132275 191.182927 
Q 188.96649 191.182927 185.43361 191.292922 
Q 181.910305 191.402651 181.910305 191.595742 
Q 181.910305 191.788034 185.43361 191.898029 
Q 188.96649 192.007758 195.132275 192.007758 
Q 198.569413 192.007758 201.681028 191.979527 
Q 204.792643 191.951029 208 191.890306 
L 208 192.147583 
z
" clip-path="url(#p226799ac3c)" style="fill: #0000ff"/>
   </g>
   <g id="patch_12">
    <path d="M 208 190.834031 
Q 204.167638 190.892358 200.045719 190.921655 
Q 195.923801 190.950685 191.529359 190.950685 
Q 181.599283 190.950685 175.799641 190.777036 
Q 170 190.603388 170 190.306427 
Q 170 190.006004 175.901838 189.833687 
Q 181.812192 189.66137 192.091439 189.66137 
Q 196.051546 189.66137 199.679516 189.684807 
Q 203.316002 189.707978 206.535186 189.753787 
L 206.535186 190.010798 
Q 203.213805 189.951939 199.92649 189.922908 
Q 196.639175 189.893612 193.334827 189.893612 
Q 187.220081 189.893612 183.907216 190.000677 
Q 180.594352 190.107477 180.594352 190.306427 
Q 180.594352 190.503513 183.787987 190.611111 
Q 186.981623 190.718443 192.857911 190.718443 
Q 194.458987 190.718443 195.830121 190.712318 
Q 197.201255 190.705926 198.291349 190.692609 
L 198.291349 190.451312 
L 192.031824 190.451312 
L 192.031824 190.236382 
L 208 190.236382 
L 208 190.834031 
z
" clip-path="url(#p226799ac3c)" style="fill: #ffa600"/>
   </g>
   <g id="patch_13">
    <path d="M 170 187.340609 
L 208 187.340609 
L 208 187.793222 
L 194.328837 187.793222 
L 194.328837 189.66137 
L 183.697674 189.66137 
L 183.697674 187.793222 
L 170 187.793222 
L 170 187.340609 
z
" clip-path="url(#p226799ac3c)" style="fill: #ff0000"/>
   </g>
   <g id="patch_14">
    <path d="M 196.322633 186.865645 
L 181.708444 186.865645 
L 179.400941 187.340609 
L 170 187.340609 
L 183.425475 184.733334 
L 194.574525 184.733334 
L 208 187.340609 
L 198.606829 187.340609 
L 196.322633 186.865645 
z
M 184.039256 186.38174 
L 193.968514 186.38174 
L 189.011654 185.344641 
L 184.039256 186.38174 
z
" clip-path="url(#p226799ac3c)" style="fill: #008000"/>
   </g>
   <g id="patch_15">
    <path d="M 210 189.61956 
L 248 189.61956 
L 248 190.130619 
L 234.328837 190.130619 
L 234.328837 192.24 
L 223.697674 192.24 
L 223.697674 190.130619 
L 210 190.130619 
L 210 189.61956 
z
" clip-path="url(#p226799ac3c)" style="fill: #ff0000"/>
   </g>
   <g id="patch_16">
    <path d="M 248 189.300245 
Q 244.821366 189.458522 241.384228 189.538581 
Q 237.94709 189.61956 234.203578 189.61956 
Q 223.04006 189.61956 216.52003 189.019579 
Q 210 188.419597 210 187.393554 
Q 210 186.363831 216.52003 185.764769 
Q 223.04006 185.164787 234.203578 185.164787 
Q 237.94709 185.164787 241.384228 185.245766 
Q 244.821366 185.325825 248 185.484103 
L 248 186.372113 
Q 244.792643 186.162303 241.681028 186.06476 
Q 238.569413 185.967217 235.132275 185.967217 
Q 228.96649 185.967217 225.43361 186.347267 
Q 221.910305 186.726396 221.910305 187.393554 
Q 221.910305 188.057951 225.43361 188.438001 
Q 228.96649 188.817131 235.132275 188.817131 
Q 238.569413 188.817131 241.681028 188.719588 
Q 244.792643 188.621124 248 188.411315 
L 248 189.300245 
z
" clip-path="url(#p226799ac3c)" style="fill: #0000ff"/>
   </g>
   <g id="patch_17">
    <path d="M 236.322633 182.491557 
L 221.708444 182.491557 
L 219.400941 185.164787 
L 210 185.164787 
L 223.425475 170.490325 
L 234.574525 170.490325 
L 248 185.164787 
L 238.606829 185.164787 
L 236.322633 182.491557 
z
M 224.039256 179.768007 
L 233.968514 179.768007 
L 229.011654 173.93093 
L 224.039256 179.768007 
z
" clip-path="url(#p226799ac3c)" style="fill: #008000"/>
   </g>
   <g id="patch_18">
    <path d="M 248 167.763788 
Q 244.167638 169.127057 240.045719 169.811803 
Q 235.923801 170.490325 231.529359 170.490325 
Q 221.599283 170.490325 215.799641 166.431645 
Q 210 162.372964 210 155.432122 
Q 210 148.410355 215.901838 144.382799 
Q 221.812192 140.355244 232.091439 140.355244 
Q 236.051546 140.355244 239.679516 140.903041 
Q 243.316002 141.444613 246.535186 142.515308 
L 246.535186 148.522405 
Q 243.213805 147.146686 239.92649 146.468165 
Q 236.639175 145.783418 233.334827 145.783418 
Q 227.220081 145.783418 223.907216 148.285856 
Q 220.594352 150.782069 220.594352 155.432122 
Q 220.594352 160.0386 223.787987 162.553488 
Q 226.981623 165.062151 232.857911 165.062151 
Q 234.458987 165.062151 235.830121 164.918977 
Q 237.201255 164.769577 238.291349 164.458329 
L 238.291349 158.818506 
L 232.031824 158.818506 
L 232.031824 153.794955 
L 248 153.794955 
L 248 167.763788 
z
" clip-path="url(#p226799ac3c)" style="fill: #ffa600"/>
   </g>
   <g id="patch_19">
    <path d="M 288 192.173944 
Q 284.167638 192.206972 280.045719 192.223561 
Q 275.923801 192.24 271.529359 192.24 
Q 261.599283 192.24 255.799641 192.14167 
Q 250 192.043341 250 191.875185 
Q 250 191.705069 255.901838 191.607494 
Q 261.812192 191.509918 272.091439 191.509918 
Q 276.051546 191.509918 279.679516 191.523189 
Q 283.316002 191.53631 286.535186 191.56225 
L 286.535186 191.707784 
Q 283.213805 191.674454 279.92649 191.658016 
Q 276.639175 191.641426 273.334827 191.641426 
Q 267.220081 191.641426 263.907216 191.702053 
Q 260.594352 191.762528 260.594352 191.875185 
Q 260.594352 191.986786 263.787987 192.047714 
Q 266.981623 192.108492 272.857911 192.108492 
Q 274.458987 192.108492 275.830121 192.105023 
Q 277.201255 192.101404 278.291349 192.093863 
L 278.291349 191.957227 
L 272.031824 191.957227 
L 272.031824 191.835522 
L 288 191.835522 
L 288 192.173944 
z
" clip-path="url(#p226799ac3c)" style="fill: #ffa600"/>
   </g>
   <g id="patch_20">
    <path d="M 276.322633 189.864078 
L 261.708444 189.864078 
L 259.400941 191.509918 
L 250 191.509918 
L 263.425475 182.475224 
L 274.574525 182.475224 
L 288 191.509918 
L 278.606829 191.509918 
L 276.322633 189.864078 
z
M 264.039256 188.187257 
L 273.968514 188.187257 
L 269.011654 184.593517 
L 264.039256 188.187257 
z
" clip-path="url(#p226799ac3c)" style="fill: #008000"/>
   </g>
   <g id="patch_21">
    <path d="M 288 181.762207 
Q 284.821366 182.115633 281.384228 182.294401 
Q 277.94709 182.475224 274.203578 182.475224 
Q 263.04006 182.475224 256.52003 181.135493 
Q 250 179.795762 250 177.504658 
Q 250 175.205334 256.52003 173.867658 
Q 263.04006 172.527927 274.203578 172.527927 
Q 277.94709 172.527927 281.384228 172.70875 
Q 284.821366 172.887517 288 173.240943 
L 288 175.223827 
Q 284.792643 174.755332 281.681028 174.537523 
Q 278.569413 174.319714 275.132275 174.319714 
Q 268.96649 174.319714 265.43361 175.168348 
Q 261.910305 176.014926 261.910305 177.504658 
Q 261.910305 178.988225 265.43361 179.836858 
Q 268.96649 180.683436 275.132275 180.683436 
Q 278.569413 180.683436 281.681028 180.465627 
Q 284.792643 180.245763 288 179.777269 
L 288 181.762207 
z
" clip-path="url(#p226799ac3c)" style="fill: #0000ff"/>
   </g>
   <g id="patch_22">
    <path d="M 250 156.922565 
L 288 156.922565 
L 288 159.966046 
L 274.328837 159.966046 
L 274.328837 172.527927 
L 263.697674 172.527927 
L 263.697674 159.966046 
L 250 159.966046 
L 250 156.922565 
z
" clip-path="url(#p226799ac3c)" style="fill: #ff0000"/>
   </g>
   <g id="patch_23">
    <path d="M 328 192.186839 
Q 324.167638 192.21342 320.045719 192.22677 
Q 315.923801 192.24 311.529359 192.24 
Q 301.599283 192.24 295.799641 192.160866 
Q 290 192.081731 290 191.946402 
Q 290 191.809494 295.901838 191.730967 
Q 301.812192 191.652439 312.091439 191.652439 
Q 316.051546 191.652439 319.679516 191.66312 
Q 323.316002 191.673679 326.535186 191.694555 
L 326.535186 191.811679 
Q 323.213805 191.784856 319.92649 191.771626 
Q 316.639175 191.758275 313.334827 191.758275 
Q 307.220081 191.758275 303.907216 191.807067 
Q 300.594352 191.855737 300.594352 191.946402 
Q 300.594352 192.036217 303.787987 192.085251 
Q 306.981623 192.134164 312.857911 192.134164 
Q 314.458987 192.134164 315.830121 192.131372 
Q 317.201255 192.128459 318.291349 192.122391 
L 318.291349 192.012428 
L 312.031824 192.012428 
L 312.031824 191.914481 
L 328 191.914481 
L 328 192.186839 
z
" clip-path="url(#p226799ac3c)" style="fill: #ffa600"/>
   </g>
   <g id="patch_24">
    <path d="M 290 190.477194 
L 328 190.477194 
L 328 190.706399 
L 314.328837 190.706399 
L 314.328837 191.652439 
L 303.697674 191.652439 
L 303.697674 190.706399 
L 290 190.706399 
L 290 190.477194 
z
" clip-path="url(#p226799ac3c)" style="fill: #ff0000"/>
   </g>
   <g id="patch_25">
    <path d="M 328 188.918795 
Q 324.821366 189.691258 321.384228 190.08198 
Q 317.94709 190.477194 314.203578 190.477194 
Q 303.04006 190.477194 296.52003 187.54902 
Q 290 184.620847 290 179.613312 
Q 290 174.587812 296.52003 171.66413 
Q 303.04006 168.735956 314.203578 168.735956 
Q 317.94709 168.735956 321.384228 169.13117 
Q 324.821366 169.521892 328 170.294355 
L 328 174.628231 
Q 324.792643 173.604269 321.681028 173.128216 
Q 318.569413 172.652164 315.132275 172.652164 
Q 308.96649 172.652164 305.43361 174.506973 
Q 301.910305 176.357291 301.910305 179.613312 
Q 301.910305 182.855859 305.43361 184.710668 
Q 308.96649 186.560986 315.132275 186.560986 
Q 318.569413 186.560986 321.681028 186.084934 
Q 324.792643 185.60439 328 184.580428 
L 328 188.918795 
z
" clip-path="url(#p226799ac3c)" style="fill: #0000ff"/>
   </g>
   <g id="patch_26">
    <path d="M 316.322633 150.431611 
L 301.708444 150.431611 
L 299.400941 168.735956 
L 290 168.735956 
L 303.425475 68.255869 
L 314.574525 68.255869 
L 328 168.735956 
L 318.606829 168.735956 
L 316.322633 150.431611 
z
M 304.039256 131.782714 
L 313.968514 131.782714 
L 309.011654 91.814638 
L 304.039256 131.782714 
z
" clip-path="url(#p226799ac3c)" style="fill: #008000"/>
   </g>
   <g id="patch_27">
    <path d="M 330 186.418793 
L 368 186.418793 
L 368 187.554091 
L 354.328837 187.554091 
L 354.328837 192.24 
L 343.697674 192.24 
L 343.697674 187.554091 
L 330 187.554091 
L 330 186.418793 
z
" clip-path="url(#p226799ac3c)" style="fill: #ff0000"/>
   </g>
   <g id="patch_28">
    <path d="M 368 185.941916 
Q 364.821366 186.178293 361.384228 186.297856 
Q 357.94709 186.418793 354.203578 186.418793 
Q 343.04006 186.418793 336.52003 185.522759 
Q 330 184.626725 330 183.094396 
Q 330 181.55657 336.52003 180.66191 
Q 343.04006 179.765876 354.203578 179.765876 
Q 357.94709 179.765876 361.384228 179.886813 
Q 364.821366 180.006376 368 180.242753 
L 368 181.568939 
Q 364.792643 181.255601 361.681028 181.109927 
Q 358.569413 180.964253 355.132275 180.964253 
Q 348.96649 180.964253 345.43361 181.531833 
Q 341.910305 182.098039 341.910305 183.094396 
Q 341.910305 184.08663 345.43361 184.65421 
Q 348.96649 185.220416 355.132275 185.220416 
Q 358.569413 185.220416 361.681028 185.074742 
Q 364.792643 184.927693 368 184.614356 
L 368 185.941916 
z
" clip-path="url(#p226799ac3c)" style="fill: #0000ff"/>
   </g>
   <g id="patch_29">
    <path d="M 356.322633 153.86049 
L 341.708444 153.86049 
L 339.400941 179.765876 
L 330 179.765876 
L 343.425475 37.560548 
L 354.574525 37.560548 
L 368 179.765876 
L 358.606829 179.765876 
L 356.322633 153.86049 
z
M 344.039256 127.467474 
L 353.968514 127.467474 
L 349.011654 70.902303 
L 344.039256 127.467474 
z
" clip-path="url(#p226799ac3c)" style="fill: #008000"/>
   </g>
   <g id="patch_30">
    <path d="M 408 192.174133 
Q 404.821366 192.206782 401.384228 192.223296 
Q 397.94709 192.24 394.203578 192.24 
Q 383.04006 192.24 376.52003 192.116237 
Q 370 191.992475 370 191.780826 
Q 370 191.568417 376.52003 191.444845 
Q 383.04006 191.321082 394.203578 191.321082 
Q 397.94709 191.321082 401.384228 191.337786 
Q 404.821366 191.3543 408 191.386949 
L 408 191.570126 
Q 404.792643 191.526847 401.681028 191.506726 
Q 398.569413 191.486605 395.132275 191.486605 
Q 388.96649 191.486605 385.43361 191.565001 
Q 381.910305 191.643206 381.910305 191.780826 
Q 381.910305 191.917876 385.43361 191.996271 
Q 388.96649 192.074477 395.132275 192.074477 
Q 398.569413 192.074477 401.681028 192.054356 
Q 404.792643 192.034045 408 191.990767 
L 408 192.174133 
z
" clip-path="url(#p226799ac3c)" style="fill: #0000ff"/>
   </g>
   <g id="patch_31">
    <path d="M 370 189.483246 
L 408 189.483246 
L 408 189.841675 
L 394.328837 189.841675 
L 394.328837 191.321082 
L 383.697674 191.321082 
L 383.697674 189.841675 
L 370 189.841675 
L 370 189.483246 
z
" clip-path="url(#p226799ac3c)" style="fill: #ff0000"/>
   </g>
   <g id="patch_32">
    <path d="M 408 188.901273 
Q 404.167638 189.19226 400.045719 189.338417 
Q 395.923801 189.483246 391.529359 189.483246 
Q 381.599283 189.483246 375.799641 188.616931 
Q 370 187.750615 370 186.269109 
Q 370 184.77033 375.901838 183.910658 
Q 381.812192 183.050986 392.091439 183.050986 
Q 396.051546 183.050986 399.679516 183.167912 
Q 403.316002 183.28351 406.535186 183.512047 
L 406.535186 184.794247 
Q 403.213805 184.500603 399.92649 184.355774 
Q 396.639175 184.209617 393.334827 184.209617 
Q 387.220081 184.209617 383.907216 184.743756 
Q 380.594352 185.276567 380.594352 186.269109 
Q 380.594352 187.252351 383.787987 187.789147 
Q 386.981623 188.324615 392.857911 188.324615 
Q 394.458987 188.324615 395.830121 188.294055 
Q 397.201255 188.262166 398.291349 188.195731 
L 398.291349 186.991925 
L 392.031824 186.991925 
L 392.031824 185.91966 
L 408 185.91966 
L 408 188.901273 
z
" clip-path="url(#p226799ac3c)" style="fill: #ffa600"/>
   </g>
   <g id="patch_33">
    <path d="M 396.322633 154.42661 
L 381.708444 154.42661 
L 379.400941 183.050986 
L 370 183.050986 
L 383.425475 25.92 
L 394.574525 25.92 
L 408 183.050986 
L 398.606829 183.050986 
L 396.322633 154.42661 
z
M 384.039256 125.263423 
L 393.968514 125.263423 
L 389.011654 62.761256 
L 384.039256 125.263423 
z
" clip-path="url(#p226799ac3c)" style="fill: #008000"/>
   </g>
   <g id="patch_34">
    <path d="M 448 190.060077 
Q 444.821366 191.140615 441.384228 191.687167 
Q 437.94709 192.24 434.203578 192.24 
Q 423.04006 192.24 416.52003 188.144007 
Q 410 184.048013 410 177.043362 
Q 410 170.013582 416.52003 165.923871 
Q 423.04006 161.827878 434.203578 161.827878 
Q 437.94709 161.827878 441.384228 162.380711 
Q 444.821366 162.927262 448 164.0078 
L 448 170.070122 
Q 444.792643 168.637781 441.681028 167.971868 
Q 438.569413 167.305955 435.132275 167.305955 
Q 428.96649 167.305955 425.43361 169.900502 
Q 421.910305 172.488768 421.910305 177.043362 
Q 421.910305 181.579109 425.43361 184.173657 
Q 428.96649 186.761923 435.132275 186.761923 
Q 438.569413 186.761923 441.681028 186.09601 
Q 444.792643 185.423815 448 183.991473 
L 448 190.060077 
z
" clip-path="url(#p226799ac3c)" style="fill: #0000ff"/>
   </g>
   <g id="patch_35">
    <path d="M 410 71.298774 
L 448 71.298774 
L 448 88.954472 
L 434.328837 88.954472 
L 434.328837 161.827878 
L 423.697674 161.827878 
L 423.697674 88.954472 
L 410 88.954472 
L 410 71.298774 
z
" clip-path="url(#p226799ac3c)" style="fill: #ff0000"/>
   </g>
   <g id="patch_36">
    <path d="M 488 192.086111 
Q 484.167638 192.163055 480.045719 192.201703 
Q 475.923801 192.24 471.529359 192.24 
Q 461.599283 192.24 455.799641 192.010923 
Q 450 191.781846 450 191.390096 
Q 450 190.993779 455.901838 190.766459 
Q 461.812192 190.539139 472.091439 190.539139 
Q 476.051546 190.539139 479.679516 190.570057 
Q 483.316002 190.600624 486.535186 190.661056 
L 486.535186 191.000104 
Q 483.213805 190.922456 479.92649 190.88416 
Q 476.639175 190.845512 473.334827 190.845512 
Q 467.220081 190.845512 463.907216 190.986752 
Q 460.594352 191.127642 460.594352 191.390096 
Q 460.594352 191.650092 463.787987 191.792035 
Q 466.981623 191.933627 472.857911 191.933627 
Q 474.458987 191.933627 475.830121 191.925546 
Q 477.201255 191.917114 478.291349 191.899547 
L 478.291349 191.581228 
L 472.031824 191.581228 
L 472.031824 191.297693 
L 488 191.297693 
L 488 192.086111 
z
" clip-path="url(#p226799ac3c)" style="fill: #ffa600"/>
   </g>
   <g id="patch_37">
    <path d="M 488 190.295317 
Q 484.821366 190.416174 481.384228 190.477305 
Q 477.94709 190.539139 474.203578 190.539139 
Q 463.04006 190.539139 456.52003 190.081006 
Q 450 189.622873 450 188.83941 
Q 450 188.053136 456.52003 187.595706 
Q 463.04006 187.137573 474.203578 187.137573 
Q 477.94709 187.137573 481.384228 187.199407 
Q 484.821366 187.260538 488 187.381395 
L 488 188.05946 
Q 484.792643 187.899254 481.681028 187.824772 
Q 478.569413 187.750291 475.132275 187.750291 
Q 468.96649 187.750291 465.43361 188.040488 
Q 461.910305 188.329983 461.910305 188.83941 
Q 461.910305 189.346729 465.43361 189.636927 
Q 468.96649 189.926421 475.132275 189.926421 
Q 478.569413 189.926421 481.681028 189.85194 
Q 484.792643 189.776755 488 189.616549 
L 488 190.295317 
z
" clip-path="url(#p226799ac3c)" style="fill: #0000ff"/>
   </g>
   <g id="patch_38">
    <path d="M 450 181.184872 
L 488 181.184872 
L 488 182.345815 
L 474.328837 182.345815 
L 474.328837 187.137573 
L 463.697674 187.137573 
L 463.697674 182.345815 
L 450 182.345815 
L 450 181.184872 
z
" clip-path="url(#p226799ac3c)" style="fill: #ff0000"/>
   </g>
   <g id="patch_39">
    <path d="M 476.322633 154.694269 
L 461.708444 154.694269 
L 459.400941 181.184872 
L 450 181.184872 
L 463.425475 35.76704 
L 474.574525 35.76704 
L 488 181.184872 
L 478.606829 181.184872 
L 476.322633 154.694269 
z
M 464.039256 127.705018 
L 473.968514 127.705018 
L 469.011654 69.862006 
L 464.039256 127.705018 
z
" clip-path="url(#p226799ac3c)" style="fill: #008000"/>
   </g>
   <g id="patch_40">
    <path d="M 528 191.813997 
Q 524.167638 192.026999 520.045719 192.133986 
Q 515.923801 192.24 511.529359 192.24 
Q 501.599283 192.24 495.799641 191.605859 
Q 490 190.971717 490 189.887258 
Q 490 188.790154 495.901838 188.160876 
Q 501.812192 187.531597 512.091439 187.531597 
Q 516.051546 187.531597 519.679516 187.617187 
Q 523.316002 187.701804 526.535186 187.869093 
L 526.535186 188.807661 
Q 523.213805 188.592714 519.92649 188.4867 
Q 516.639175 188.379713 513.334827 188.379713 
Q 507.220081 188.379713 503.907216 188.770702 
Q 500.594352 189.160718 500.594352 189.887258 
Q 500.594352 190.606989 503.787987 190.999923 
Q 506.981623 191.391884 512.857911 191.391884 
Q 514.458987 191.391884 515.830121 191.369514 
Q 517.201255 191.346172 518.291349 191.297541 
L 518.291349 190.416357 
L 512.031824 190.416357 
L 512.031824 189.631461 
L 528 189.631461 
L 528 191.813997 
z
" clip-path="url(#p226799ac3c)" style="fill: #ffa600"/>
   </g>
   <g id="patch_41">
    <path d="M 528 187.067544 
Q 524.821366 187.297565 521.384228 187.413912 
Q 517.94709 187.531597 514.203578 187.531597 
Q 503.04006 187.531597 496.52003 186.659659 
Q 490 185.78772 490 184.296599 
Q 490 182.800127 496.52003 181.929526 
Q 503.04006 181.057588 514.203578 181.057588 
Q 517.94709 181.057588 521.384228 181.175273 
Q 524.821366 181.29162 528 181.521641 
L 528 182.812163 
Q 524.792643 182.507252 521.681028 182.365496 
Q 518.569413 182.223739 515.132275 182.223739 
Q 508.96649 182.223739 505.43361 182.776056 
Q 501.910305 183.327035 501.910305 184.296599 
Q 501.910305 185.26215 505.43361 185.814467 
Q 508.96649 186.365446 515.132275 186.365446 
Q 518.569413 186.365446 521.681028 186.22369 
Q 524.792643 186.080595 528 185.775684 
L 528 187.067544 
z
" clip-path="url(#p226799ac3c)" style="fill: #0000ff"/>
   </g>
   <g id="patch_42">
    <path d="M 490 174.583578 
L 528 174.583578 
L 528 175.846191 
L 514.328837 175.846191 
L 514.328837 181.057588 
L 503.697674 181.057588 
L 503.697674 175.846191 
L 490 175.846191 
L 490 174.583578 
z
" clip-path="url(#p226799ac3c)" style="fill: #ff0000"/>
   </g>
   <g id="patch_43">
    <path d="M 516.322633 156.249726 
L 501.708444 156.249726 
L 499.400941 174.583578 
L 490 174.583578 
L 503.425475 73.941514 
L 514.574525 73.941514 
L 528 174.583578 
L 518.606829 174.583578 
L 516.322633 156.249726 
z
M 504.039256 137.570766 
L 513.968514 137.570766 
L 509.011654 97.538261 
L 504.039256 137.570766 
z
" clip-path="url(#p226799ac3c)" style="fill: #008000"/>
   </g>
   <g id="patch_44">
    <path d="M 568 191.893806 
Q 564.821366 192.065407 561.384228 192.152205 
Q 557.94709 192.24 554.203578 192.24 
Q 543.04006 192.24 536.52003 191.589515 
Q 530 190.93903 530 189.826622 
Q 530 188.710222 536.52003 188.060735 
Q 543.04006 187.41025 554.203578 187.41025 
Q 557.94709 187.41025 561.384228 187.498046 
Q 564.821366 187.584843 568 187.756444 
L 568 188.719201 
Q 564.792643 188.491731 561.681028 188.385977 
Q 558.569413 188.280224 555.132275 188.280224 
Q 548.96649 188.280224 545.43361 188.692264 
Q 541.910305 189.103306 541.910305 189.826622 
Q 541.910305 190.546944 545.43361 190.958984 
Q 548.96649 191.370026 555.132275 191.370026 
Q 558.569413 191.370026 561.681028 191.264273 
Q 564.792643 191.157521 568 190.930051 
L 568 191.893806 
z
" clip-path="url(#p226799ac3c)" style="fill: #0000ff"/>
   </g>
   <g id="patch_45">
    <path d="M 568 186.896152 
Q 564.167638 187.153201 560.045719 187.282312 
Q 555.923801 187.41025 551.529359 187.41025 
Q 541.599283 187.41025 535.799641 186.644971 
Q 530 185.879692 530 184.570971 
Q 530 183.246992 535.901838 182.487581 
Q 541.812192 181.728171 552.091439 181.728171 
Q 556.051546 181.728171 559.679516 181.83146 
Q 563.316002 181.933576 566.535186 182.135459 
L 566.535186 183.268119 
Q 563.213805 183.008722 559.92649 182.880785 
Q 556.639175 182.751673 553.334827 182.751673 
Q 547.220081 182.751673 543.907216 183.223517 
Q 540.594352 183.694187 540.594352 184.570971 
Q 540.594352 185.439539 543.787987 185.913731 
Q 546.981623 186.386748 552.857911 186.386748 
Q 554.458987 186.386748 555.830121 186.359752 
Q 557.201255 186.331582 558.291349 186.272895 
L 558.291349 185.209486 
L 552.031824 185.209486 
L 552.031824 184.262277 
L 568 184.262277 
L 568 186.896152 
z
" clip-path="url(#p226799ac3c)" style="fill: #ffa600"/>
   </g>
   <g id="patch_46">
    <path d="M 530 171.784585 
L 568 171.784585 
L 568 173.723861 
L 554.328837 173.723861 
L 554.328837 181.728171 
L 543.697674 181.728171 
L 543.697674 173.723861 
L 530 173.723861 
L 530 171.784585 
z
" clip-path="url(#p226799ac3c)" style="fill: #ff0000"/>
   </g>
   <g id="patch_47">
    <path d="M 556.322633 162.934544 
L 541.708444 162.934544 
L 539.400941 171.784585 
L 530 171.784585 
L 543.425475 123.203068 
L 554.574525 123.203068 
L 568 171.784585 
L 558.606829 171.784585 
L 556.322633 162.934544 
z
M 544.039256 153.917915 
L 553.968514 153.917915 
L 549.011654 134.593591 
L 544.039256 153.917915 
z
" clip-path="url(#p226799ac3c)" style="fill: #008000"/>
   </g>
   <g id="patch_48">
    <path d="M 596.322633 191.351264 
L 581.708444 191.351264 
L 579.400941 192.24 
L 570 192.24 
L 583.425475 187.361361 
L 594.574525 187.361361 
L 608 192.24 
L 598.606829 192.24 
L 596.322633 191.351264 
z
M 584.039256 190.445799 
L 593.968514 190.445799 
L 589.011654 188.505217 
L 584.039256 190.445799 
z
" clip-path="url(#p226799ac3c)" style="fill: #008000"/>
   </g>
   <g id="patch_49">
    <path d="M 608 186.919956 
Q 604.167638 187.140659 600.045719 187.251514 
Q 595.923801 187.361361 591.529359 187.361361 
Q 581.599283 187.361361 575.799641 186.704292 
Q 570 186.047223 570 184.923554 
Q 570 183.786783 575.901838 183.134753 
Q 581.812192 182.482723 592.091439 182.482723 
Q 596.051546 182.482723 599.679516 182.571407 
Q 603.316002 182.659083 606.535186 182.832421 
L 606.535186 183.804923 
Q 603.213805 183.582205 599.92649 183.472358 
Q 596.639175 183.361502 593.334827 183.361502 
Q 587.220081 183.361502 583.907216 183.766628 
Q 580.594352 184.170746 580.594352 184.923554 
Q 580.594352 185.669307 583.787987 186.076448 
Q 586.981623 186.482582 592.857911 186.482582 
Q 594.458987 186.482582 595.830121 186.459403 
Q 597.201255 186.435216 598.291349 186.384827 
L 598.291349 185.471783 
L 592.031824 185.471783 
L 592.031824 184.658509 
L 608 184.658509 
L 608 186.919956 
z
" clip-path="url(#p226799ac3c)" style="fill: #ffa600"/>
   </g>
   <g id="patch_50">
    <path d="M 570 171.224345 
L 608 171.224345 
L 608 173.420043 
L 594.328837 173.420043 
L 594.328837 182.482723 
L 583.697674 182.482723 
L 583.697674 173.420043 
L 570 173.420043 
L 570 171.224345 
z
" clip-path="url(#p226799ac3c)" style="fill: #ff0000"/>
   </g>
   <g id="patch_51">
    <path d="M 608 166.624495 
Q 604.821366 168.904536 601.384228 170.057813 
Q 597.94709 171.224345 594.203578 171.224345 
Q 583.04006 171.224345 576.52003 162.581399 
Q 570 153.938452 570 139.157952 
Q 570 124.324429 576.52003 115.694738 
Q 583.04006 107.051791 594.203578 107.051791 
Q 597.94709 107.051791 601.384228 108.218324 
Q 604.821366 109.3716 608 111.651641 
L 608 124.443733 
Q 604.792643 121.421353 601.681028 120.016211 
Q 598.569413 118.61107 595.132275 118.61107 
Q 588.96649 118.61107 585.43361 124.08582 
Q 581.910305 129.547314 581.910305 139.157952 
Q 581.910305 148.728823 585.43361 154.203573 
Q 588.96649 159.665067 595.132275 159.665067 
Q 598.569413 159.665067 601.681028 158.259925 
Q 604.792643 156.841527 608 153.819147 
L 608 166.624495 
z
" clip-path="url(#p226799ac3c)" style="fill: #0000ff"/>
   </g>
   <g id="patch_52">
    <path d="M 648 192.004963 
Q 644.821366 192.121466 641.384228 192.180394 
Q 637.94709 192.24 634.203578 192.24 
Q 623.04006 192.24 616.52003 191.798375 
Q 610 191.35675 610 190.601518 
Q 610 189.843576 616.52003 189.402628 
Q 623.04006 188.961003 634.203578 188.961003 
Q 637.94709 188.961003 641.384228 189.020609 
Q 644.821366 189.079537 648 189.19604 
L 648 189.849672 
Q 644.792643 189.695238 641.681028 189.62344 
Q 638.569413 189.551643 635.132275 189.551643 
Q 628.96649 189.551643 625.43361 189.831383 
Q 621.910305 190.110447 621.910305 190.601518 
Q 621.910305 191.090556 625.43361 191.370297 
Q 628.96649 191.649361 635.132275 191.649361 
Q 638.569413 191.649361 641.681028 191.577563 
Q 644.792643 191.505087 648 191.350654 
L 648 192.004963 
z
" clip-path="url(#p226799ac3c)" style="fill: #0000ff"/>
   </g>
   <g id="patch_53">
    <path d="M 648 188.515992 
Q 644.167638 188.738497 640.045719 188.850258 
Q 635.923801 188.961003 631.529359 188.961003 
Q 621.599283 188.961003 615.799641 188.298566 
Q 610 187.636129 610 186.50328 
Q 610 185.357222 615.901838 184.699865 
Q 621.812192 184.042508 632.091439 184.042508 
Q 636.051546 184.042508 639.679516 184.131917 
Q 643.316002 184.220309 646.535186 184.395063 
L 646.535186 185.375511 
Q 643.213805 185.150973 639.92649 185.040228 
Q 636.639175 184.928467 633.334827 184.928467 
Q 627.220081 184.928467 623.907216 185.336902 
Q 620.594352 185.744321 620.594352 186.50328 
Q 620.594352 187.255126 623.787987 187.665593 
Q 626.981623 188.075044 632.857911 188.075044 
Q 634.458987 188.075044 635.830121 188.051676 
Q 637.201255 188.027292 638.291349 187.976491 
L 638.291349 187.055988 
L 632.031824 187.055988 
L 632.031824 186.236069 
L 648 186.236069 
L 648 188.515992 
z
" clip-path="url(#p226799ac3c)" style="fill: #ffa600"/>
   </g>
   <g id="patch_54">
    <path d="M 610 176.336847 
L 648 176.336847 
L 648 177.839666 
L 634.328837 177.839666 
L 634.328837 184.042508 
L 623.697674 184.042508 
L 623.697674 177.839666 
L 610 177.839666 
L 610 176.336847 
z
" clip-path="url(#p226799ac3c)" style="fill: #ff0000"/>
   </g>
   <g id="patch_55">
    <path d="M 636.322633 172.603524 
L 621.708444 172.603524 
L 619.400941 176.336847 
L 610 176.336847 
L 623.425475 155.843099 
L 634.574525 155.843099 
L 648 176.336847 
L 638.606829 176.336847 
L 636.322633 172.603524 
z
M 624.039256 168.799926 
L 633.968514 168.799926 
L 629.011654 160.648105 
L 624.039256 168.799926 
z
" clip-path="url(#p226799ac3c)" style="fill: #008000"/>
   </g>
   <g id="matplotlib.axis_1">
    <g id="xtick_1">
     <g id="line2d_2">
      <defs>
       <path id="m7835d975ff" d="M 0 0 
L 0 3.5 
" style="stroke: #000000; stroke-width: 0.8"/>
      </defs>
      <g>
       <use xlink:href="#m7835d975ff" x="109" y="192.24" style="stroke: #000000; stroke-width: 0.8"/>
      </g>
     </g>
     <g id="text_1">
      <!-- 0 -->
      <g transform="translate(105.81875 206.838437) scale(0.1 -0.1)">
       <defs>
        <path id="DejaVuSans-30" d="M 2034 4250 
Q 1547 4250 1301 3770 
Q 1056 3291 1056 2328 
Q 1056 1369 1301 889 
Q 1547 409 2034 409 
Q 2525 409 2770 889 
Q 3016 1369 3016 2328 
Q 3016 3291 2770 3770 
Q 2525 4250 2034 4250 
z
M 2034 4750 
Q 2819 4750 3233 4129 
Q 3647 3509 3647 2328 
Q 3647 1150 3233 529 
Q 2819 -91 2034 -91 
Q 1250 -91 836 529 
Q 422 1150 422 2328 
Q 422 3509 836 4129 
Q 1250 4750 2034 4750 
z
" transform="scale(0.015625)"/>
       </defs>
       <use xlink:href="#DejaVuSans-30"/>
      </g>
     </g>
    </g>
    <g id="xtick_2">
     <g id="line2d_3">
      <g>
       <use xlink:href="#m7835d975ff" x="189" y="192.24" style="stroke: #000000; stroke-width: 0.8"/>
      </g>
     </g>
     <g id="text_2">
      <!-- 2 -->
      <g transform="translate(185.81875 206.838437) scale(0.1 -0.1)">
       <defs>
        <path id="DejaVuSans-32" d="M 1228 531 
L 3431 531 
L 3431 0 
L 469 0 
L 469 531 
Q 828 903 1448 1529 
Q 2069 2156 2228 2338 
Q 2531 2678 2651 2914 
Q 2772 3150 2772 3378 
Q 2772 3750 2511 3984 
Q 2250 4219 1831 4219 
Q 1534 4219 1204 4116 
Q 875 4013 500 3803 
L 500 4441 
Q 881 4594 1212 4672 
Q 1544 4750 1819 4750 
Q 2544 4750 2975 4387 
Q 3406 4025 3406 3419 
Q 3406 3131 3298 2873 
Q 3191 2616 2906 2266 
Q 2828 2175 2409 1742 
Q 1991 1309 1228 531 
z
" transform="scale(0.015625)"/>
       </defs>
       <use xlink:href="#DejaVuSans-32"/>
      </g>
     </g>
    </g>
    <g id="xtick_3">
     <g id="line2d_4">
      <g>
       <use xlink:href="#m7835d975ff" x="269" y="192.24" style="stroke: #000000; stroke-width: 0.8"/>
      </g>
     </g>
     <g id="text_3">
      <!-- 4 -->
      <g transform="translate(265.81875 206.838437) scale(0.1 -0.1)">
       <defs>
        <path id="DejaVuSans-34" d="M 2419 4116 
L 825 1625 
L 2419 1625 
L 2419 4116 
z
M 2253 4666 
L 3047 4666 
L 3047 1625 
L 3713 1625 
L 3713 1100 
L 3047 1100 
L 3047 0 
L 2419 0 
L 2419 1100 
L 313 1100 
L 313 1709 
L 2253 4666 
z
" transform="scale(0.015625)"/>
       </defs>
       <use xlink:href="#DejaVuSans-34"/>
      </g>
     </g>
    </g>
    <g id="xtick_4">
     <g id="line2d_5">
      <g>
       <use xlink:href="#m7835d975ff" x="349" y="192.24" style="stroke: #000000; stroke-width: 0.8"/>
      </g>
     </g>
     <g id="text_4">
      <!-- 6 -->
      <g transform="translate(345.81875 206.838437) scale(0.1 -0.1)">
       <defs>
        <path id="DejaVuSans-36" d="M 2113 2584 
Q 1688 2584 1439 2293 
Q 1191 2003 1191 1497 
Q 1191 994 1439 701 
Q 1688 409 2113 409 
Q 2538 409 2786 701 
Q 3034 994 3034 1497 
Q 3034 2003 2786 2293 
Q 2538 2584 2113 2584 
z
M 3366 4563 
L 3366 3988 
Q 3128 4100 2886 4159 
Q 2644 4219 2406 4219 
Q 1781 4219 1451 3797 
Q 1122 3375 1075 2522 
Q 1259 2794 1537 2939 
Q 1816 3084 2150 3084 
Q 2853 3084 3261 2657 
Q 3669 2231 3669 1497 
Q 3669 778 3244 343 
Q 2819 -91 2113 -91 
Q 1303 -91 875 529 
Q 447 1150 447 2328 
Q 447 3434 972 4092 
Q 1497 4750 2381 4750 
Q 2619 4750 2861 4703 
Q 3103 4656 3366 4563 
z
" transform="scale(0.015625)"/>
       </defs>
       <use xlink:href="#DejaVuSans-36"/>
      </g>
     </g>
    </g>
    <g id="xtick_5">
     <g id="line2d_6">
      <g>
       <use xlink:href="#m7835d975ff" x="429" y="192.24" style="stroke: #000000; stroke-width: 0.8"/>
      </g>
     </g>
     <g id="text_5">
      <!-- 8 -->
      <g transform="translate(425.81875 206.838437) scale(0.1 -0.1)">
       <defs>
        <path id="DejaVuSans-38" d="M 2034 2216 
Q 1584 2216 1326 1975 
Q 1069 1734 1069 1313 
Q 1069 891 1326 650 
Q 1584 409 2034 409 
Q 2484 409 2743 651 
Q 3003 894 3003 1313 
Q 3003 1734 2745 1975 
Q 2488 2216 2034 2216 
z
M 1403 2484 
Q 997 2584 770 2862 
Q 544 3141 544 3541 
Q 544 4100 942 4425 
Q 1341 4750 2034 4750 
Q 2731 4750 3128 4425 
Q 3525 4100 3525 3541 
Q 3525 3141 3298 2862 
Q 3072 2584 2669 2484 
Q 3125 2378 3379 2068 
Q 3634 1759 3634 1313 
Q 3634 634 3220 271 
Q 2806 -91 2034 -91 
Q 1263 -91 848 271 
Q 434 634 434 1313 
Q 434 1759 690 2068 
Q 947 2378 1403 2484 
z
M 1172 3481 
Q 1172 3119 1398 2916 
Q 1625 2713 2034 2713 
Q 2441 2713 2670 2916 
Q 2900 3119 2900 3481 
Q 2900 3844 2670 4047 
Q 2441 4250 2034 4250 
Q 1625 4250 1398 4047 
Q 1172 3844 1172 3481 
z
" transform="scale(0.015625)"/>
       </defs>
       <use xlink:href="#DejaVuSans-38"/>
      </g>
     </g>
    </g>
    <g id="xtick_6">
     <g id="line2d_7">
      <g>
       <use xlink:href="#m7835d975ff" x="509" y="192.24" style="stroke: #000000; stroke-width: 0.8"/>
      </g>
     </g>
     <g id="text_6">
      <!-- 10 -->
      <g transform="translate(502.6375 206.838437) scale(0.1 -0.1)">
       <defs>
        <path id="DejaVuSans-31" d="M 794 531 
L 1825 531 
L 1825 4091 
L 703 3866 
L 703 4441 
L 1819 4666 
L 2450 4666 
L 2450 531 
L 3481 531 
L 3481 0 
L 794 0 
L 794 531 
z
" transform="scale(0.015625)"/>
       </defs>
       <use xlink:href="#DejaVuSans-31"/>
       <use xlink:href="#DejaVuSans-30" x="63.623047"/>
      </g>
     </g>
    </g>
    <g id="xtick_7">
     <g id="line2d_8">
      <g>
       <use xlink:href="#m7835d975ff" x="589" y="192.24" style="stroke: #000000; stroke-width: 0.8"/>
      </g>
     </g>
     <g id="text_7">
      <!-- 12 -->
      <g transform="translate(582.6375 206.838437) scale(0.1 -0.1)">
       <use xlink:href="#DejaVuSans-31"/>
       <use xlink:href="#DejaVuSans-32" x="63.623047"/>
      </g>
     </g>
    </g>
   </g>
   <g id="matplotlib.axis_2">
    <g id="ytick_1">
     <g id="line2d_9">
      <defs>
       <path id="m798ccd28fb" d="M 0 0 
L -3.5 0 
" style="stroke: #000000; stroke-width: 0.8"/>
      </defs>
      <g>
       <use xlink:href="#m798ccd28fb" x="90" y="192.24" style="stroke: #000000; stroke-width: 0.8"/>
      </g>
     </g>
     <g id="text_8">
      <!-- 0.00 -->
      <g transform="translate(60.734375 196.039219) scale(0.1 -0.1)">
       <defs>
        <path id="DejaVuSans-2e" d="M 684 794 
L 1344 794 
L 1344 0 
L 684 0 
L 684 794 
z
" transform="scale(0.015625)"/>
       </defs>
       <use xlink:href="#DejaVuSans-30"/>
       <use xlink:href="#DejaVuSans-2e" x="63.623047"/>
       <use xlink:href="#DejaVuSans-30" x="95.410156"/>
       <use xlink:href="#DejaVuSans-30" x="159.033203"/>
      </g>
     </g>
    </g>
    <g id="ytick_2">
     <g id="line2d_10">
      <g>
       <use xlink:href="#m798ccd28fb" x="90" y="166.693394" style="stroke: #000000; stroke-width: 0.8"/>
      </g>
     </g>
     <g id="text_9">
      <!-- 0.25 -->
      <g transform="translate(60.734375 170.492613) scale(0.1 -0.1)">
       <defs>
        <path id="DejaVuSans-35" d="M 691 4666 
L 3169 4666 
L 3169 4134 
L 1269 4134 
L 1269 2991 
Q 1406 3038 1543 3061 
Q 1681 3084 1819 3084 
Q 2600 3084 3056 2656 
Q 3513 2228 3513 1497 
Q 3513 744 3044 326 
Q 2575 -91 1722 -91 
Q 1428 -91 1123 -41 
Q 819 9 494 109 
L 494 744 
Q 775 591 1075 516 
Q 1375 441 1709 441 
Q 2250 441 2565 725 
Q 2881 1009 2881 1497 
Q 2881 1984 2565 2268 
Q 2250 2553 1709 2553 
Q 1456 2553 1204 2497 
Q 953 2441 691 2322 
L 691 4666 
z
" transform="scale(0.015625)"/>
       </defs>
       <use xlink:href="#DejaVuSans-30"/>
       <use xlink:href="#DejaVuSans-2e" x="63.623047"/>
       <use xlink:href="#DejaVuSans-32" x="95.410156"/>
       <use xlink:href="#DejaVuSans-35" x="159.033203"/>
      </g>
     </g>
    </g>
    <g id="ytick_3">
     <g id="line2d_11">
      <g>
       <use xlink:href="#m798ccd28fb" x="90" y="141.146788" style="stroke: #000000; stroke-width: 0.8"/>
      </g>
     </g>
     <g id="text_10">
      <!-- 0.50 -->
      <g transform="translate(60.734375 144.946007) scale(0.1 -0.1)">
       <use xlink:href="#DejaVuSans-30"/>
       <use xlink:href="#DejaVuSans-2e" x="63.623047"/>
       <use xlink:href="#DejaVuSans-35" x="95.410156"/>
       <use xlink:href="#DejaVuSans-30" x="159.033203"/>
      </g>
     </g>
    </g>
    <g id="ytick_4">
     <g id="line2d_12">
      <g>
       <use xlink:href="#m798ccd28fb" x="90" y="115.600183" style="stroke: #000000; stroke-width: 0.8"/>
      </g>
     </g>
     <g id="text_11">
      <!-- 0.75 -->
      <g transform="translate(60.734375 119.399401) scale(0.1 -0.1)">
       <defs>
        <path id="DejaVuSans-37" d="M 525 4666 
L 3525 4666 
L 3525 4397 
L 1831 0 
L 1172 0 
L 2766 4134 
L 525 4134 
L 525 4666 
z
" transform="scale(0.015625)"/>
       </defs>
       <use xlink:href="#DejaVuSans-30"/>
       <use xlink:href="#DejaVuSans-2e" x="63.623047"/>
       <use xlink:href="#DejaVuSans-37" x="95.410156"/>
       <use xlink:href="#DejaVuSans-35" x="159.033203"/>
      </g>
     </g>
    </g>
    <g id="ytick_5">
     <g id="line2d_13">
      <g>
       <use xlink:href="#m798ccd28fb" x="90" y="90.053577" style="stroke: #000000; stroke-width: 0.8"/>
      </g>
     </g>
     <g id="text_12">
      <!-- 1.00 -->
      <g transform="translate(60.734375 93.852796) scale(0.1 -0.1)">
       <use xlink:href="#DejaVuSans-31"/>
       <use xlink:href="#DejaVuSans-2e" x="63.623047"/>
       <use xlink:href="#DejaVuSans-30" x="95.410156"/>
       <use xlink:href="#DejaVuSans-30" x="159.033203"/>
      </g>
     </g>
    </g>
    <g id="ytick_6">
     <g id="line2d_14">
      <g>
       <use xlink:href="#m798ccd28fb" x="90" y="64.506971" style="stroke: #000000; stroke-width: 0.8"/>
      </g>
     </g>
     <g id="text_13">
      <!-- 1.25 -->
      <g transform="translate(60.734375 68.30619) scale(0.1 -0.1)">
       <use xlink:href="#DejaVuSans-31"/>
       <use xlink:href="#DejaVuSans-2e" x="63.623047"/>
       <use xlink:href="#DejaVuSans-32" x="95.410156"/>
       <use xlink:href="#DejaVuSans-35" x="159.033203"/>
      </g>
     </g>
    </g>
    <g id="ytick_7">
     <g id="line2d_15">
      <g>
       <use xlink:href="#m798ccd28fb" x="90" y="38.960365" style="stroke: #000000; stroke-width: 0.8"/>
      </g>
     </g>
     <g id="text_14">
      <!-- 1.50 -->
      <g transform="translate(60.734375 42.759584) scale(0.1 -0.1)">
       <use xlink:href="#DejaVuSans-31"/>
       <use xlink:href="#DejaVuSans-2e" x="63.623047"/>
       <use xlink:href="#DejaVuSans-35" x="95.410156"/>
       <use xlink:href="#DejaVuSans-30" x="159.033203"/>
      </g>
     </g>
    </g>
   </g>
  </g>
 </g>
 <defs>
  <clipPath id="p226799ac3c">
   <rect x="90" y="25.92" width="558" height="166.32"/>
  </clipPath>
 </defs>
</svg>
