<?xml version="1.0" encoding="utf-8" standalone="no"?>
<!DOCTYPE svg PUBLIC "-//W3C//DTD SVG 1.1//EN"
  "http://www.w3.org/Graphics/SVG/1.1/DTD/svg11.dtd">
<svg xmlns:xlink="http://www.w3.org/1999/xlink" width="720pt" height="216pt" viewBox="0 0 720 216" xmlns="http://www.w3.org/2000/svg" version="1.1">
 <metadata>
  <rdf:RDF xmlns:dc="http://purl.org/dc/elements/1.1/" xmlns:cc="http://creativecommons.org/ns#" xmlns:rdf="http://www.w3.org/1999/02/22-rdf-syntax-ns#">
   <cc:Work>
    <dc:type rdf:resource="http://purl.org/dc/dcmitype/StillImage"/>
    <dc:date>2024-11-23T05:03:18.808374</dc:date>
    <dc:format>image/svg+xml</dc:format>
    <dc:creator>
     <cc:Agent>
      <dc:title>Matplotlib v3.7.2, https://matplotlib.org/</dc:title>
     </cc:Agent>
    </dc:creator>
   </cc:Work>
  </rdf:RDF>
 </metadata>
 <defs>
  <style type="text/css">*{stroke-linejoin: round; stroke-linecap: butt}</style>
 </defs>
 <g id="figure_1">
  <g id="patch_1">
   <path d="M 0 216 
L 720 216 
L 720 0 
L 0 0 
z
" style="fill: #ffffff"/>
  </g>
  <g id="axes_1">
   <g id="patch_2">
    <path d="M 90 192.24 
L 648 192.24 
L 648 25.92 
L 90 25.92 
z
" style="fill: #ffffff"/>
   </g>
   <g id="line2d_1">
    <path d="M 90 192.24 
L 648 192.24 
" clip-path="url(#p4cb3e3467d)" style="fill: none; stroke: #000000; stroke-width: 0.5; stroke-linecap: square"/>
   </g>
   <g id="patch_3">
    <path d="M 120.728095 191.537919 
L 103.668016 191.537919 
L 100.97432 192.24 
L 90 192.24 
L 105.672417 188.385989 
L 118.687416 188.385989 
L 134.359833 192.24 
L 123.394583 192.24 
L 120.728095 191.537919 
z
M 106.388922 190.822622 
L 117.97998 190.822622 
L 112.193521 189.289608 
L 106.388922 190.822622 
z
" clip-path="url(#p4cb3e3467d)" style="fill: #008000"/>
   </g>
   <g id="patch_4">
    <path d="M 134.359833 186.991197 
Q 129.886071 187.688593 125.074292 188.038883 
Q 120.262512 188.385989 115.132599 188.385989 
Q 103.540585 188.385989 96.770293 186.309723 
Q 90 184.233457 90 180.682789 
Q 90 177.090722 96.889593 175.030379 
Q 103.789128 172.970035 115.788751 172.970035 
Q 120.411638 172.970035 124.646799 173.250267 
Q 128.891902 173.527315 132.649861 174.075042 
L 132.649861 177.148042 
Q 128.772601 176.444277 124.935108 176.097171 
Q 121.097615 175.746881 117.240238 175.746881 
Q 110.102103 175.746881 106.234784 177.027033 
Q 102.367466 178.304 102.367466 180.682789 
Q 102.367466 183.039286 106.0956 184.325807 
Q 109.823735 185.609143 116.683503 185.609143 
Q 118.552541 185.609143 120.153154 185.5359 
Q 121.753766 185.459473 123.026303 185.30025 
L 123.026303 182.415133 
L 115.719159 182.415133 
L 115.719159 179.845277 
L 134.359833 179.845277 
L 134.359833 186.991197 
z
" clip-path="url(#p4cb3e3467d)" style="fill: #ffa600"/>
   </g>
   <g id="patch_5">
    <path d="M 90 99.744373 
L 134.359833 99.744373 
L 134.359833 114.025417 
L 118.400609 114.025417 
L 118.400609 172.970035 
L 105.990172 172.970035 
L 105.990172 114.025417 
L 90 114.025417 
L 90 99.744373 
z
" clip-path="url(#p4cb3e3467d)" style="fill: #ff0000"/>
   </g>
   <g id="patch_6">
    <path d="M 136.694561 173.528797 
L 181.054393 173.528797 
L 181.054393 177.178003 
L 165.09517 177.178003 
L 165.09517 192.24 
L 152.684733 192.24 
L 152.684733 177.178003 
L 136.694561 177.178003 
L 136.694561 173.528797 
z
" clip-path="url(#p4cb3e3467d)" style="fill: #ff0000"/>
   </g>
   <g id="patch_7">
    <path d="M 181.054393 165.064133 
Q 176.580632 169.296465 171.768852 171.422294 
Q 166.957073 173.528797 161.82716 173.528797 
Q 150.235146 173.528797 143.464853 160.92843 
Q 136.694561 148.328063 136.694561 126.77989 
Q 136.694561 104.980483 143.584154 92.476744 
Q 150.483688 79.973006 162.483311 79.973006 
Q 167.106199 79.973006 171.34136 81.673669 
Q 175.586462 83.355007 179.344422 86.67903 
L 179.344422 105.328346 
Q 175.467162 101.057362 171.629669 98.950859 
Q 167.792175 96.825031 163.934799 96.825031 
Q 156.796663 96.825031 152.929345 104.593968 
Q 149.062026 112.34358 149.062026 126.77989 
Q 149.062026 141.08092 152.790161 148.888509 
Q 156.518296 156.676773 163.378064 156.676773 
Q 165.247102 156.676773 166.847714 156.232281 
Q 168.448327 155.768464 169.720864 154.802178 
L 169.720864 137.29308 
L 162.41372 137.29308 
L 162.41372 121.697227 
L 181.054393 121.697227 
L 181.054393 165.064133 
z
" clip-path="url(#p4cb3e3467d)" style="fill: #ffa600"/>
   </g>
   <g id="patch_8">
    <path d="M 227.748954 191.659277 
Q 223.275192 191.949638 218.463413 192.095482 
Q 213.651634 192.24 208.52172 192.24 
Q 196.929707 192.24 190.159414 191.375545 
Q 183.389121 190.511089 183.389121 189.032765 
Q 183.389121 187.537204 190.278714 186.679378 
Q 197.178249 185.821552 209.177872 185.821552 
Q 213.800759 185.821552 218.03592 185.938227 
Q 222.281023 186.053576 226.038983 186.281622 
L 226.038983 187.561069 
Q 222.161723 187.268056 218.324229 187.123538 
Q 214.486736 186.977694 210.629359 186.977694 
Q 203.491224 186.977694 199.623905 187.510687 
Q 195.756587 188.042353 195.756587 189.032765 
Q 195.756587 190.013895 199.484722 190.549539 
Q 203.212856 191.083857 210.072624 191.083857 
Q 211.941663 191.083857 213.542275 191.053363 
Q 215.142888 191.021542 216.415424 190.95525 
L 216.415424 189.754028 
L 209.10828 189.754028 
L 209.10828 188.684066 
L 227.748954 188.684066 
L 227.748954 191.659277 
z
" clip-path="url(#p4cb3e3467d)" style="fill: #ffa600"/>
   </g>
   <g id="patch_9">
    <path d="M 227.748954 184.594698 
Q 224.038331 185.202821 220.02594 185.510419 
Q 216.013549 185.821552 211.643507 185.821552 
Q 198.611619 185.821552 191.00037 183.51634 
Q 183.389121 181.211128 183.389121 177.268933 
Q 183.389121 173.312595 191.00037 171.010919 
Q 198.611619 168.705707 211.643507 168.705707 
Q 216.013549 168.705707 220.02594 169.016839 
Q 224.038331 169.324437 227.748954 169.93256 
L 227.748954 173.344415 
Q 224.004801 172.538298 220.372413 172.163524 
Q 216.740026 171.788751 212.727635 171.788751 
Q 205.52992 171.788751 201.405763 173.248954 
Q 197.292783 174.705622 197.292783 177.268933 
Q 197.292783 179.821637 201.405763 181.28184 
Q 205.52992 182.738507 212.727635 182.738507 
Q 216.740026 182.738507 220.372413 182.363734 
Q 224.004801 181.985424 227.748954 181.179307 
L 227.748954 184.594698 
z
" clip-path="url(#p4cb3e3467d)" style="fill: #0000ff"/>
   </g>
   <g id="patch_10">
    <path d="M 183.389121 140.892413 
L 227.748954 140.892413 
L 227.748954 146.31678 
L 211.78973 146.31678 
L 211.78973 168.705707 
L 199.379294 168.705707 
L 199.379294 146.31678 
L 183.389121 146.31678 
L 183.389121 140.892413 
z
" clip-path="url(#p4cb3e3467d)" style="fill: #ff0000"/>
   </g>
   <g id="patch_11">
    <path d="M 230.083682 184.950216 
L 274.443515 184.950216 
L 274.443515 186.371927 
L 258.484291 186.371927 
L 258.484291 192.24 
L 246.073854 192.24 
L 246.073854 186.371927 
L 230.083682 186.371927 
L 230.083682 184.950216 
z
" clip-path="url(#p4cb3e3467d)" style="fill: #ff0000"/>
   </g>
   <g id="patch_12">
    <path d="M 260.811777 182.294272 
L 243.751698 182.294272 
L 241.058002 184.950216 
L 230.083682 184.950216 
L 245.756099 170.370648 
L 258.771098 170.370648 
L 274.443515 184.950216 
L 263.478265 184.950216 
L 260.811777 182.294272 
z
M 246.472604 179.588335 
L 258.063662 179.588335 
L 252.277203 173.789004 
L 246.472604 179.588335 
z
" clip-path="url(#p4cb3e3467d)" style="fill: #008000"/>
   </g>
   <g id="patch_13">
    <path d="M 274.443515 167.758011 
Q 270.732891 169.053036 266.7205 169.708077 
Q 262.708109 170.370648 258.338068 170.370648 
Q 245.306179 170.370648 237.694931 165.461601 
Q 230.083682 160.552555 230.083682 152.157482 
Q 230.083682 143.732293 237.694931 138.830775 
Q 245.306179 133.921728 258.338068 133.921728 
Q 262.708109 133.921728 266.7205 134.584299 
Q 270.732891 135.239341 274.443515 136.534365 
L 274.443515 143.800056 
Q 270.699361 142.083395 267.066974 141.285299 
Q 263.434587 140.487202 259.422196 140.487202 
Q 252.22448 140.487202 248.100324 143.596767 
Q 243.987343 146.698803 243.987343 152.157482 
Q 243.987343 157.593574 248.100324 160.703139 
Q 252.22448 163.805175 259.422196 163.805175 
Q 263.434587 163.805175 267.066974 163.007078 
Q 270.699361 162.201452 274.443515 160.484792 
L 274.443515 167.758011 
z
" clip-path="url(#p4cb3e3467d)" style="fill: #0000ff"/>
   </g>
   <g id="patch_14">
    <path d="M 276.778243 162.270241 
L 321.138075 162.270241 
L 321.138075 168.115179 
L 305.178852 168.115179 
L 305.178852 192.24 
L 292.768415 192.24 
L 292.768415 168.115179 
L 276.778243 168.115179 
L 276.778243 162.270241 
z
" clip-path="url(#p4cb3e3467d)" style="fill: #ff0000"/>
   </g>
   <g id="patch_15">
    <path d="M 307.506338 151.351109 
L 290.446259 151.351109 
L 287.752562 162.270241 
L 276.778243 162.270241 
L 292.45066 102.330632 
L 305.465658 102.330632 
L 321.138075 162.270241 
L 310.172825 162.270241 
L 307.506338 151.351109 
z
M 293.167165 140.226441 
L 304.758223 140.226441 
L 298.971764 116.384197 
L 293.167165 140.226441 
z
" clip-path="url(#p4cb3e3467d)" style="fill: #008000"/>
   </g>
   <g id="patch_16">
    <path d="M 367.832636 177.191836 
Q 363.358874 184.715918 358.547095 188.495137 
Q 353.735316 192.24 348.605402 192.24 
Q 337.013389 192.24 330.243096 169.839537 
Q 323.472803 147.439075 323.472803 109.131535 
Q 323.472803 70.37736 330.362396 48.14868 
Q 337.261931 25.92 349.261554 25.92 
Q 353.884441 25.92 358.119602 28.943375 
Q 362.364705 31.932394 366.122665 37.841719 
L 366.122665 70.995778 
Q 362.245405 63.402983 358.407911 59.65812 
Q 354.570418 55.878901 350.713041 55.878901 
Q 343.574906 55.878901 339.707587 69.690229 
Q 335.840269 83.467201 335.840269 109.131535 
Q 335.840269 134.555373 339.568404 148.435414 
Q 343.296539 162.281099 350.156306 162.281099 
Q 352.025345 162.281099 353.625957 161.490899 
Q 355.22657 160.666342 356.499106 158.948515 
L 356.499106 127.821491 
L 349.191962 127.821491 
L 349.191962 100.095765 
L 367.832636 100.095765 
L 367.832636 177.191836 
z
" clip-path="url(#p4cb3e3467d)" style="fill: #ffa600"/>
   </g>
   <g id="patch_17">
    <path d="M 414.527197 191.805101 
Q 410.816573 192.020671 406.804182 192.129709 
Q 402.791791 192.24 398.42175 192.24 
Q 385.389861 192.24 377.778613 191.422841 
Q 370.167364 190.605682 370.167364 189.208241 
Q 370.167364 187.805786 377.778613 186.98988 
Q 385.389861 186.172721 398.42175 186.172721 
Q 402.791791 186.172721 406.804182 186.283013 
Q 410.816573 186.392051 414.527197 186.60762 
L 414.527197 187.817065 
Q 410.783043 187.531311 407.150656 187.39846 
Q 403.518269 187.265609 399.505878 187.265609 
Q 392.308162 187.265609 388.184006 187.783226 
Q 384.071025 188.29959 384.071025 189.208241 
Q 384.071025 190.113131 388.184006 190.630749 
Q 392.308162 191.147113 399.505878 191.147113 
Q 403.518269 191.147113 407.150656 191.014262 
Q 410.783043 190.880158 414.527197 190.594403 
L 414.527197 191.805101 
z
" clip-path="url(#p4cb3e3467d)" style="fill: #0000ff"/>
   </g>
   <g id="patch_18">
    <path d="M 414.527197 173.546972 
Q 410.053435 179.859847 405.241656 183.030697 
Q 400.429876 186.172721 395.299963 186.172721 
Q 383.707949 186.172721 376.937657 167.378227 
Q 370.167364 148.583732 370.167364 116.44284 
Q 370.167364 83.927211 377.056957 65.276845 
Q 383.956492 46.62648 395.956115 46.62648 
Q 400.579002 46.62648 404.814163 49.16316 
Q 409.059266 51.671015 412.817226 56.629072 
L 412.817226 84.446077 
Q 408.939965 78.07555 405.102472 74.933526 
Q 401.264979 71.762676 397.407602 71.762676 
Q 390.269467 71.762676 386.402148 83.350692 
Q 382.53483 94.909883 382.53483 116.44284 
Q 382.53483 137.774015 386.262964 149.419683 
Q 389.991099 161.036526 396.850867 161.036526 
Q 398.719905 161.036526 400.320518 160.37353 
Q 401.92113 159.681708 403.193667 158.240412 
L 403.193667 132.124136 
L 395.886523 132.124136 
L 395.886523 108.861625 
L 414.527197 108.861625 
L 414.527197 173.546972 
z
" clip-path="url(#p4cb3e3467d)" style="fill: #ffa600"/>
   </g>
   <g id="patch_19">
    <path d="M 461.221757 177.191836 
Q 456.747996 184.715918 451.936216 188.495137 
Q 447.124437 192.24 441.994524 192.24 
Q 430.40251 192.24 423.632217 169.839537 
Q 416.861925 147.439075 416.861925 109.131535 
Q 416.861925 70.37736 423.751518 48.14868 
Q 430.651052 25.92 442.650675 25.92 
Q 447.273563 25.92 451.508724 28.943375 
Q 455.753826 31.932394 459.511786 37.841719 
L 459.511786 70.995778 
Q 455.634526 63.402983 451.797033 59.65812 
Q 447.959539 55.878901 444.102163 55.878901 
Q 436.964027 55.878901 433.096709 69.690229 
Q 429.22939 83.467201 429.22939 109.131535 
Q 429.22939 134.555373 432.957525 148.435414 
Q 436.68566 162.281099 443.545428 162.281099 
Q 445.414466 162.281099 447.015079 161.490899 
Q 448.615691 160.666342 449.888228 158.948515 
L 449.888228 127.821491 
L 442.581084 127.821491 
L 442.581084 100.095765 
L 461.221757 100.095765 
L 461.221757 177.191836 
z
" clip-path="url(#p4cb3e3467d)" style="fill: #ffa600"/>
   </g>
   <g id="patch_20">
    <path d="M 507.916318 177.191836 
Q 503.442556 184.715918 498.630777 188.495137 
Q 493.818998 192.24 488.689084 192.24 
Q 477.097071 192.24 470.326778 169.839537 
Q 463.556485 147.439075 463.556485 109.131535 
Q 463.556485 70.37736 470.446078 48.14868 
Q 477.345613 25.92 489.345236 25.92 
Q 493.968123 25.92 498.203284 28.943375 
Q 502.448387 31.932394 506.206347 37.841719 
L 506.206347 70.995778 
Q 502.329087 63.402983 498.491593 59.65812 
Q 494.6541 55.878901 490.796723 55.878901 
Q 483.658588 55.878901 479.791269 69.690229 
Q 475.923951 83.467201 475.923951 109.131535 
Q 475.923951 134.555373 479.652086 148.435414 
Q 483.380221 162.281099 490.239988 162.281099 
Q 492.109027 162.281099 493.709639 161.490899 
Q 495.310252 160.666342 496.582788 158.948515 
L 496.582788 127.821491 
L 489.275644 127.821491 
L 489.275644 100.095765 
L 507.916318 100.095765 
L 507.916318 177.191836 
z
" clip-path="url(#p4cb3e3467d)" style="fill: #ffa600"/>
   </g>
   <g id="patch_21">
    <path d="M 554.610879 191.836855 
Q 550.900255 192.036685 546.887864 192.137762 
Q 542.875473 192.24 538.505432 192.24 
Q 525.473543 192.24 517.862295 191.482506 
Q 510.251046 190.725012 510.251046 189.429604 
Q 510.251046 188.129549 517.862295 187.373216 
Q 525.473543 186.615722 538.505432 186.615722 
Q 542.875473 186.615722 546.887864 186.717961 
Q 550.900255 186.819037 554.610879 187.018867 
L 554.610879 188.140005 
Q 550.866725 187.875114 547.234338 187.751964 
Q 543.601951 187.628813 539.58956 187.628813 
Q 532.391844 187.628813 528.267688 188.108636 
Q 524.154707 188.587298 524.154707 189.429604 
Q 524.154707 190.268424 528.267688 190.748248 
Q 532.391844 191.22691 539.58956 191.22691 
Q 543.601951 191.22691 547.234338 191.103759 
Q 550.866725 190.979446 554.610879 190.714556 
L 554.610879 191.836855 
z
" clip-path="url(#p4cb3e3467d)" style="fill: #0000ff"/>
   </g>
   <g id="patch_22">
    <path d="M 510.251046 169.742822 
L 554.610879 169.742822 
L 554.610879 173.033508 
L 538.651655 173.033508 
L 538.651655 186.615722 
L 526.241218 186.615722 
L 526.241218 173.033508 
L 510.251046 173.033508 
L 510.251046 169.742822 
z
" clip-path="url(#p4cb3e3467d)" style="fill: #ff0000"/>
   </g>
   <g id="patch_23">
    <path d="M 554.610879 165.671854 
Q 550.137117 167.707338 545.325338 168.729727 
Q 540.513558 169.742822 535.383645 169.742822 
Q 523.791631 169.742822 517.021339 163.682842 
Q 510.251046 157.622861 510.251046 147.259552 
Q 510.251046 136.775414 517.140639 130.761906 
Q 524.040174 124.748398 536.039797 124.748398 
Q 540.662684 124.748398 544.897845 125.566309 
Q 549.142948 126.374926 552.900908 127.973572 
L 552.900908 136.942714 
Q 549.023647 134.888641 545.186154 133.875546 
Q 541.348661 132.853157 537.491284 132.853157 
Q 530.353149 132.853157 526.48583 136.589525 
Q 522.618512 140.316599 522.618512 147.259552 
Q 522.618512 154.137443 526.346646 157.8924 
Q 530.074781 161.638063 536.934549 161.638063 
Q 538.803587 161.638063 540.4042 161.424291 
Q 542.004812 161.201224 543.277349 160.736502 
L 543.277349 152.315731 
L 535.970205 152.315731 
L 535.970205 144.815112 
L 554.610879 144.815112 
L 554.610879 165.671854 
z
" clip-path="url(#p4cb3e3467d)" style="fill: #ffa600"/>
   </g>
   <g id="patch_24">
    <path d="M 587.673702 190.793695 
L 570.613623 190.793695 
L 567.919926 192.24 
L 556.945607 192.24 
L 572.618024 184.300639 
L 585.633022 184.300639 
L 601.305439 192.24 
L 590.340189 192.24 
L 587.673702 190.793695 
z
M 573.334529 189.320166 
L 584.925587 189.320166 
L 579.139128 186.162118 
L 573.334529 189.320166 
z
" clip-path="url(#p4cb3e3467d)" style="fill: #008000"/>
   </g>
   <g id="patch_25">
    <path d="M 556.945607 171.068391 
L 601.305439 171.068391 
L 601.305439 173.649048 
L 585.346216 173.649048 
L 585.346216 184.300639 
L 572.935779 184.300639 
L 572.935779 173.649048 
L 556.945607 173.649048 
L 556.945607 171.068391 
z
" clip-path="url(#p4cb3e3467d)" style="fill: #ff0000"/>
   </g>
   <g id="patch_26">
    <path d="M 601.305439 168.03325 
Q 597.594816 169.537701 593.582425 170.298673 
Q 589.570034 171.068391 585.199992 171.068391 
Q 572.168104 171.068391 564.556855 165.365475 
Q 556.945607 159.662558 556.945607 149.909871 
Q 556.945607 140.122197 564.556855 134.428027 
Q 572.168104 128.725111 585.199992 128.725111 
Q 589.570034 128.725111 593.582425 129.49483 
Q 597.594816 130.255802 601.305439 131.760252 
L 601.305439 140.200918 
Q 597.561286 138.206647 593.928899 137.279486 
Q 590.296511 136.352324 586.28412 136.352324 
Q 579.086405 136.352324 574.962248 139.964755 
Q 570.849268 143.568438 570.849268 149.909871 
Q 570.849268 156.225064 574.962248 159.837494 
Q 579.086405 163.441178 586.28412 163.441178 
Q 590.296511 163.441178 593.928899 162.514017 
Q 597.561286 161.578109 601.305439 159.583837 
L 601.305439 168.03325 
z
" clip-path="url(#p4cb3e3467d)" style="fill: #0000ff"/>
   </g>
   <g id="patch_27">
    <path d="M 603.640167 187.562243 
L 648 187.562243 
L 648 188.474536 
L 632.040776 188.474536 
L 632.040776 192.24 
L 619.63034 192.24 
L 619.63034 188.474536 
L 603.640167 188.474536 
L 603.640167 187.562243 
z
" clip-path="url(#p4cb3e3467d)" style="fill: #ff0000"/>
   </g>
   <g id="patch_28">
    <path d="M 634.368262 183.301514 
L 617.308184 183.301514 
L 614.614487 187.562243 
L 603.640167 187.562243 
L 619.312584 164.173345 
L 632.327583 164.173345 
L 648 187.562243 
L 637.03475 187.562243 
L 634.368262 183.301514 
z
M 620.029089 178.960582 
L 631.620148 178.960582 
L 625.833688 169.657155 
L 620.029089 178.960582 
z
" clip-path="url(#p4cb3e3467d)" style="fill: #008000"/>
   </g>
   <g id="patch_29">
    <path d="M 648 161.633954 
Q 643.526238 162.90365 638.714459 163.541396 
Q 633.90268 164.173345 628.772766 164.173345 
Q 617.180753 164.173345 610.41046 160.393247 
Q 603.640167 156.613148 603.640167 150.148715 
Q 603.640167 143.608912 610.52976 139.857801 
Q 617.429295 136.106691 629.428918 136.106691 
Q 634.051805 136.106691 638.286966 136.616888 
Q 642.532069 137.121288 646.290029 138.118492 
L 646.290029 143.71327 
Q 642.412769 142.431979 638.575275 141.80003 
Q 634.737782 141.162283 630.880405 141.162283 
Q 623.74227 141.162283 619.874951 143.492958 
Q 616.007633 145.817835 616.007633 150.148715 
Q 616.007633 154.439011 619.735768 156.781281 
Q 623.463903 159.117753 630.32367 159.117753 
Q 632.192709 159.117753 633.793321 158.984406 
Q 635.393934 158.845261 636.66647 158.555376 
L 636.66647 153.302662 
L 629.359326 153.302662 
L 629.359326 148.62392 
L 648 148.62392 
L 648 161.633954 
z
" clip-path="url(#p4cb3e3467d)" style="fill: #ffa600"/>
   </g>
   <g id="matplotlib.axis_1">
    <g id="xtick_1">
     <g id="line2d_2">
      <defs>
       <path id="m001d23b8a7" d="M 0 0 
L 0 3.5 
" style="stroke: #000000; stroke-width: 0.8"/>
      </defs>
      <g>
       <use xlink:href="#m001d23b8a7" x="112.179916" y="192.24" style="stroke: #000000; stroke-width: 0.8"/>
      </g>
     </g>
     <g id="text_1">
      <!-- 0 -->
      <g transform="translate(108.998666 206.838437) scale(0.1 -0.1)">
       <defs>
        <path id="DejaVuSans-30" d="M 2034 4250 
Q 1547 4250 1301 3770 
Q 1056 3291 1056 2328 
Q 1056 1369 1301 889 
Q 1547 409 2034 409 
Q 2525 409 2770 889 
Q 3016 1369 3016 2328 
Q 3016 3291 2770 3770 
Q 2525 4250 2034 4250 
z
M 2034 4750 
Q 2819 4750 3233 4129 
Q 3647 3509 3647 2328 
Q 3647 1150 3233 529 
Q 2819 -91 2034 -91 
Q 1250 -91 836 529 
Q 422 1150 422 2328 
Q 422 3509 836 4129 
Q 1250 4750 2034 4750 
z
" transform="scale(0.015625)"/>
       </defs>
       <use xlink:href="#DejaVuSans-30"/>
      </g>
     </g>
    </g>
    <g id="xtick_2">
     <g id="line2d_3">
      <g>
       <use xlink:href="#m001d23b8a7" x="205.569038" y="192.24" style="stroke: #000000; stroke-width: 0.8"/>
      </g>
     </g>
     <g id="text_2">
      <!-- 2 -->
      <g transform="translate(202.387788 206.838437) scale(0.1 -0.1)">
       <defs>
        <path id="DejaVuSans-32" d="M 1228 531 
L 3431 531 
L 3431 0 
L 469 0 
L 469 531 
Q 828 903 1448 1529 
Q 2069 2156 2228 2338 
Q 2531 2678 2651 2914 
Q 2772 3150 2772 3378 
Q 2772 3750 2511 3984 
Q 2250 4219 1831 4219 
Q 1534 4219 1204 4116 
Q 875 4013 500 3803 
L 500 4441 
Q 881 4594 1212 4672 
Q 1544 4750 1819 4750 
Q 2544 4750 2975 4387 
Q 3406 4025 3406 3419 
Q 3406 3131 3298 2873 
Q 3191 2616 2906 2266 
Q 2828 2175 2409 1742 
Q 1991 1309 1228 531 
z
" transform="scale(0.015625)"/>
       </defs>
       <use xlink:href="#DejaVuSans-32"/>
      </g>
     </g>
    </g>
    <g id="xtick_3">
     <g id="line2d_4">
      <g>
       <use xlink:href="#m001d23b8a7" x="298.958159" y="192.24" style="stroke: #000000; stroke-width: 0.8"/>
      </g>
     </g>
     <g id="text_3">
      <!-- 4 -->
      <g transform="translate(295.776909 206.838437) scale(0.1 -0.1)">
       <defs>
        <path id="DejaVuSans-34" d="M 2419 4116 
L 825 1625 
L 2419 1625 
L 2419 4116 
z
M 2253 4666 
L 3047 4666 
L 3047 1625 
L 3713 1625 
L 3713 1100 
L 3047 1100 
L 3047 0 
L 2419 0 
L 2419 1100 
L 313 1100 
L 313 1709 
L 2253 4666 
z
" transform="scale(0.015625)"/>
       </defs>
       <use xlink:href="#DejaVuSans-34"/>
      </g>
     </g>
    </g>
    <g id="xtick_4">
     <g id="line2d_5">
      <g>
       <use xlink:href="#m001d23b8a7" x="392.34728" y="192.24" style="stroke: #000000; stroke-width: 0.8"/>
      </g>
     </g>
     <g id="text_4">
      <!-- 6 -->
      <g transform="translate(389.16603 206.838437) scale(0.1 -0.1)">
       <defs>
        <path id="DejaVuSans-36" d="M 2113 2584 
Q 1688 2584 1439 2293 
Q 1191 2003 1191 1497 
Q 1191 994 1439 701 
Q 1688 409 2113 409 
Q 2538 409 2786 701 
Q 3034 994 3034 1497 
Q 3034 2003 2786 2293 
Q 2538 2584 2113 2584 
z
M 3366 4563 
L 3366 3988 
Q 3128 4100 2886 4159 
Q 2644 4219 2406 4219 
Q 1781 4219 1451 3797 
Q 1122 3375 1075 2522 
Q 1259 2794 1537 2939 
Q 1816 3084 2150 3084 
Q 2853 3084 3261 2657 
Q 3669 2231 3669 1497 
Q 3669 778 3244 343 
Q 2819 -91 2113 -91 
Q 1303 -91 875 529 
Q 447 1150 447 2328 
Q 447 3434 972 4092 
Q 1497 4750 2381 4750 
Q 2619 4750 2861 4703 
Q 3103 4656 3366 4563 
z
" transform="scale(0.015625)"/>
       </defs>
       <use xlink:href="#DejaVuSans-36"/>
      </g>
     </g>
    </g>
    <g id="xtick_5">
     <g id="line2d_6">
      <g>
       <use xlink:href="#m001d23b8a7" x="485.736402" y="192.24" style="stroke: #000000; stroke-width: 0.8"/>
      </g>
     </g>
     <g id="text_5">
      <!-- 8 -->
      <g transform="translate(482.555152 206.838437) scale(0.1 -0.1)">
       <defs>
        <path id="DejaVuSans-38" d="M 2034 2216 
Q 1584 2216 1326 1975 
Q 1069 1734 1069 1313 
Q 1069 891 1326 650 
Q 1584 409 2034 409 
Q 2484 409 2743 651 
Q 3003 894 3003 1313 
Q 3003 1734 2745 1975 
Q 2488 2216 2034 2216 
z
M 1403 2484 
Q 997 2584 770 2862 
Q 544 3141 544 3541 
Q 544 4100 942 4425 
Q 1341 4750 2034 4750 
Q 2731 4750 3128 4425 
Q 3525 4100 3525 3541 
Q 3525 3141 3298 2862 
Q 3072 2584 2669 2484 
Q 3125 2378 3379 2068 
Q 3634 1759 3634 1313 
Q 3634 634 3220 271 
Q 2806 -91 2034 -91 
Q 1263 -91 848 271 
Q 434 634 434 1313 
Q 434 1759 690 2068 
Q 947 2378 1403 2484 
z
M 1172 3481 
Q 1172 3119 1398 2916 
Q 1625 2713 2034 2713 
Q 2441 2713 2670 2916 
Q 2900 3119 2900 3481 
Q 2900 3844 2670 4047 
Q 2441 4250 2034 4250 
Q 1625 4250 1398 4047 
Q 1172 3844 1172 3481 
z
" transform="scale(0.015625)"/>
       </defs>
       <use xlink:href="#DejaVuSans-38"/>
      </g>
     </g>
    </g>
    <g id="xtick_6">
     <g id="line2d_7">
      <g>
       <use xlink:href="#m001d23b8a7" x="579.125523" y="192.24" style="stroke: #000000; stroke-width: 0.8"/>
      </g>
     </g>
     <g id="text_6">
      <!-- 10 -->
      <g transform="translate(572.763023 206.838437) scale(0.1 -0.1)">
       <defs>
        <path id="DejaVuSans-31" d="M 794 531 
L 1825 531 
L 1825 4091 
L 703 3866 
L 703 4441 
L 1819 4666 
L 2450 4666 
L 2450 531 
L 3481 531 
L 3481 0 
L 794 0 
L 794 531 
z
" transform="scale(0.015625)"/>
       </defs>
       <use xlink:href="#DejaVuSans-31"/>
       <use xlink:href="#DejaVuSans-30" x="63.623047"/>
      </g>
     </g>
    </g>
   </g>
   <g id="matplotlib.axis_2">
    <g id="ytick_1">
     <g id="line2d_8">
      <defs>
       <path id="mcab9037039" d="M 0 0 
L -3.5 0 
" style="stroke: #000000; stroke-width: 0.8"/>
      </defs>
      <g>
       <use xlink:href="#mcab9037039" x="90" y="192.24" style="stroke: #000000; stroke-width: 0.8"/>
      </g>
     </g>
     <g id="text_7">
      <!-- 0.00 -->
      <g transform="translate(60.734375 196.039219) scale(0.1 -0.1)">
       <defs>
        <path id="DejaVuSans-2e" d="M 684 794 
L 1344 794 
L 1344 0 
L 684 0 
L 684 794 
z
" transform="scale(0.015625)"/>
       </defs>
       <use xlink:href="#DejaVuSans-30"/>
       <use xlink:href="#DejaVuSans-2e" x="63.623047"/>
       <use xlink:href="#DejaVuSans-30" x="95.410156"/>
       <use xlink:href="#DejaVuSans-30" x="159.033203"/>
      </g>
     </g>
    </g>
    <g id="ytick_2">
     <g id="line2d_9">
      <g>
       <use xlink:href="#mcab9037039" x="90" y="171.405025" style="stroke: #000000; stroke-width: 0.8"/>
      </g>
     </g>
     <g id="text_8">
      <!-- 0.25 -->
      <g transform="translate(60.734375 175.204243) scale(0.1 -0.1)">
       <defs>
        <path id="DejaVuSans-35" d="M 691 4666 
L 3169 4666 
L 3169 4134 
L 1269 4134 
L 1269 2991 
Q 1406 3038 1543 3061 
Q 1681 3084 1819 3084 
Q 2600 3084 3056 2656 
Q 3513 2228 3513 1497 
Q 3513 744 3044 326 
Q 2575 -91 1722 -91 
Q 1428 -91 1123 -41 
Q 819 9 494 109 
L 494 744 
Q 775 591 1075 516 
Q 1375 441 1709 441 
Q 2250 441 2565 725 
Q 2881 1009 2881 1497 
Q 2881 1984 2565 2268 
Q 2250 2553 1709 2553 
Q 1456 2553 1204 2497 
Q 953 2441 691 2322 
L 691 4666 
z
" transform="scale(0.015625)"/>
       </defs>
       <use xlink:href="#DejaVuSans-30"/>
       <use xlink:href="#DejaVuSans-2e" x="63.623047"/>
       <use xlink:href="#DejaVuSans-32" x="95.410156"/>
       <use xlink:href="#DejaVuSans-35" x="159.033203"/>
      </g>
     </g>
    </g>
    <g id="ytick_3">
     <g id="line2d_10">
      <g>
       <use xlink:href="#mcab9037039" x="90" y="150.570049" style="stroke: #000000; stroke-width: 0.8"/>
      </g>
     </g>
     <g id="text_9">
      <!-- 0.50 -->
      <g transform="translate(60.734375 154.369268) scale(0.1 -0.1)">
       <use xlink:href="#DejaVuSans-30"/>
       <use xlink:href="#DejaVuSans-2e" x="63.623047"/>
       <use xlink:href="#DejaVuSans-35" x="95.410156"/>
       <use xlink:href="#DejaVuSans-30" x="159.033203"/>
      </g>
     </g>
    </g>
    <g id="ytick_4">
     <g id="line2d_11">
      <g>
       <use xlink:href="#mcab9037039" x="90" y="129.735074" style="stroke: #000000; stroke-width: 0.8"/>
      </g>
     </g>
     <g id="text_10">
      <!-- 0.75 -->
      <g transform="translate(60.734375 133.534293) scale(0.1 -0.1)">
       <defs>
        <path id="DejaVuSans-37" d="M 525 4666 
L 3525 4666 
L 3525 4397 
L 1831 0 
L 1172 0 
L 2766 4134 
L 525 4134 
L 525 4666 
z
" transform="scale(0.015625)"/>
       </defs>
       <use xlink:href="#DejaVuSans-30"/>
       <use xlink:href="#DejaVuSans-2e" x="63.623047"/>
       <use xlink:href="#DejaVuSans-37" x="95.410156"/>
       <use xlink:href="#DejaVuSans-35" x="159.033203"/>
      </g>
     </g>
    </g>
    <g id="ytick_5">
     <g id="line2d_12">
      <g>
       <use xlink:href="#mcab9037039" x="90" y="108.900099" style="stroke: #000000; stroke-width: 0.8"/>
      </g>
     </g>
     <g id="text_11">
      <!-- 1.00 -->
      <g transform="translate(60.734375 112.699317) scale(0.1 -0.1)">
       <use xlink:href="#DejaVuSans-31"/>
       <use xlink:href="#DejaVuSans-2e" x="63.623047"/>
       <use xlink:href="#DejaVuSans-30" x="95.410156"/>
       <use xlink:href="#DejaVuSans-30" x="159.033203"/>
      </g>
     </g>
    </g>
    <g id="ytick_6">
     <g id="line2d_13">
      <g>
       <use xlink:href="#mcab9037039" x="90" y="88.065123" style="stroke: #000000; stroke-width: 0.8"/>
      </g>
     </g>
     <g id="text_12">
      <!-- 1.25 -->
      <g transform="translate(60.734375 91.864342) scale(0.1 -0.1)">
       <use xlink:href="#DejaVuSans-31"/>
       <use xlink:href="#DejaVuSans-2e" x="63.623047"/>
       <use xlink:href="#DejaVuSans-32" x="95.410156"/>
       <use xlink:href="#DejaVuSans-35" x="159.033203"/>
      </g>
     </g>
    </g>
    <g id="ytick_7">
     <g id="line2d_14">
      <g>
       <use xlink:href="#mcab9037039" x="90" y="67.230148" style="stroke: #000000; stroke-width: 0.8"/>
      </g>
     </g>
     <g id="text_13">
      <!-- 1.50 -->
      <g transform="translate(60.734375 71.029367) scale(0.1 -0.1)">
       <use xlink:href="#DejaVuSans-31"/>
       <use xlink:href="#DejaVuSans-2e" x="63.623047"/>
       <use xlink:href="#DejaVuSans-35" x="95.410156"/>
       <use xlink:href="#DejaVuSans-30" x="159.033203"/>
      </g>
     </g>
    </g>
    <g id="ytick_8">
     <g id="line2d_15">
      <g>
       <use xlink:href="#mcab9037039" x="90" y="46.395172" style="stroke: #000000; stroke-width: 0.8"/>
      </g>
     </g>
     <g id="text_14">
      <!-- 1.75 -->
      <g transform="translate(60.734375 50.194391) scale(0.1 -0.1)">
       <use xlink:href="#DejaVuSans-31"/>
       <use xlink:href="#DejaVuSans-2e" x="63.623047"/>
       <use xlink:href="#DejaVuSans-37" x="95.410156"/>
       <use xlink:href="#DejaVuSans-35" x="159.033203"/>
      </g>
     </g>
    </g>
   </g>
  </g>
 </g>
 <defs>
  <clipPath id="p4cb3e3467d">
   <rect x="90" y="25.92" width="558" height="166.32"/>
  </clipPath>
 </defs>
</svg>
