<?xml version="1.0" encoding="utf-8" standalone="no"?>
<!DOCTYPE svg PUBLIC "-//W3C//DTD SVG 1.1//EN"
  "http://www.w3.org/Graphics/SVG/1.1/DTD/svg11.dtd">
<svg xmlns:xlink="http://www.w3.org/1999/xlink" width="720pt" height="216pt" viewBox="0 0 720 216" xmlns="http://www.w3.org/2000/svg" version="1.1">
 <metadata>
  <rdf:RDF xmlns:dc="http://purl.org/dc/elements/1.1/" xmlns:cc="http://creativecommons.org/ns#" xmlns:rdf="http://www.w3.org/1999/02/22-rdf-syntax-ns#">
   <cc:Work>
    <dc:type rdf:resource="http://purl.org/dc/dcmitype/StillImage"/>
    <dc:date>2024-11-23T05:00:35.591501</dc:date>
    <dc:format>image/svg+xml</dc:format>
    <dc:creator>
     <cc:Agent>
      <dc:title>Matplotlib v3.7.2, https://matplotlib.org/</dc:title>
     </cc:Agent>
    </dc:creator>
   </cc:Work>
  </rdf:RDF>
 </metadata>
 <defs>
  <style type="text/css">*{stroke-linejoin: round; stroke-linecap: butt}</style>
 </defs>
 <g id="figure_1">
  <g id="patch_1">
   <path d="M 0 216 
L 720 216 
L 720 0 
L 0 0 
z
" style="fill: #ffffff"/>
  </g>
  <g id="axes_1">
   <g id="patch_2">
    <path d="M 90 192.24 
L 648 192.24 
L 648 25.92 
L 90 25.92 
z
" style="fill: #ffffff"/>
   </g>
   <g id="line2d_1">
    <path d="M 90 192.24 
L 648 192.24 
" clip-path="url(#p6664a7304e)" style="fill: none; stroke: #000000; stroke-width: 0.5; stroke-linecap: square"/>
   </g>
   <g id="patch_3">
    <path d="M 119.532033 177.191836 
Q 116.55368 184.715918 113.350294 188.495137 
Q 110.146909 192.24 106.73173 192.24 
Q 99.014484 192.24 94.507242 169.839537 
Q 90 147.439075 90 109.131535 
Q 90 70.37736 94.586665 48.14868 
Q 99.179949 25.92 107.168556 25.92 
Q 110.246188 25.92 113.065696 28.943375 
Q 115.891823 31.932394 118.39364 37.841719 
L 118.39364 70.995778 
Q 115.8124 63.402983 113.257635 59.65812 
Q 110.702869 55.878901 108.134866 55.878901 
Q 103.382737 55.878901 100.808115 69.690229 
Q 98.233494 83.467201 98.233494 109.131535 
Q 98.233494 134.555373 100.715455 148.435414 
Q 103.197417 162.281099 107.764226 162.281099 
Q 109.008516 162.281099 110.074105 161.490899 
Q 111.139694 160.666342 111.98687 158.948515 
L 111.98687 127.821491 
L 107.122226 127.821491 
L 107.122226 100.095765 
L 119.532033 100.095765 
L 119.532033 177.191836 
z
" clip-path="url(#p6664a7304e)" style="fill: #ffa600"/>
   </g>
   <g id="patch_4">
    <path d="M 141.543216 191.701818 
L 130.185671 191.701818 
L 128.392374 192.24 
L 121.086351 192.24 
L 131.520077 189.285696 
L 140.184658 189.285696 
L 150.618384 192.24 
L 143.318399 192.24 
L 141.543216 191.701818 
z
M 131.997082 191.153505 
L 139.713692 191.153505 
L 135.861425 189.978369 
L 131.997082 191.153505 
z
" clip-path="url(#p6664a7304e)" style="fill: #008000"/>
   </g>
   <g id="patch_5">
    <path d="M 150.618384 175.52018 
Q 147.640031 182.402938 144.436645 185.860031 
Q 141.23326 189.285696 137.818081 189.285696 
Q 130.100835 189.285696 125.593593 168.794562 
Q 121.086351 148.303427 121.086351 113.261073 
Q 121.086351 77.810153 125.673016 57.476159 
Q 130.2663 37.142165 138.254906 37.142165 
Q 141.332539 37.142165 144.152047 39.90784 
Q 146.978174 42.642086 149.479991 48.047723 
L 149.479991 78.375859 
Q 146.898751 71.430244 144.343986 68.004579 
Q 141.78922 64.547486 139.221217 64.547486 
Q 134.469088 64.547486 131.894466 77.181591 
Q 129.319845 89.784267 129.319845 113.261073 
Q 129.319845 136.517882 131.801806 149.214843 
Q 134.283768 161.880375 138.850577 161.880375 
Q 140.094867 161.880375 141.160456 161.157529 
Q 142.226045 160.403254 143.073221 158.831848 
L 143.073221 130.35797 
L 138.208577 130.35797 
L 138.208577 104.995477 
L 150.618384 104.995477 
L 150.618384 175.52018 
z
" clip-path="url(#p6664a7304e)" style="fill: #ffa600"/>
   </g>
   <g id="patch_6">
    <path d="M 181.704735 192.102157 
Q 178.726381 192.171079 175.522996 192.205697 
Q 172.319611 192.24 168.904432 192.24 
Q 161.187186 192.24 156.679944 192.034809 
Q 152.172702 191.829618 152.172702 191.478717 
Q 152.172702 191.123724 156.759367 190.920107 
Q 161.35265 190.716489 169.341257 190.716489 
Q 172.41889 190.716489 175.238398 190.744184 
Q 178.064525 190.771564 180.566342 190.825694 
L 180.566342 191.129389 
Q 177.985102 191.059838 175.430337 191.025534 
Q 172.875571 190.990916 170.307568 190.990916 
Q 165.555439 190.990916 162.980817 191.11743 
Q 160.406196 191.243628 160.406196 191.478717 
Q 160.406196 191.711602 162.888157 191.838745 
Q 165.370119 191.965573 169.936928 191.965573 
Q 171.181218 191.965573 172.246807 191.958335 
Q 173.312396 191.950782 174.159572 191.935046 
L 174.159572 191.649919 
L 169.294928 191.649919 
L 169.294928 191.395948 
L 181.704735 191.395948 
L 181.704735 192.102157 
z
" clip-path="url(#p6664a7304e)" style="fill: #ffa600"/>
   </g>
   <g id="patch_7">
    <path d="M 172.629567 161.853304 
L 161.272022 161.853304 
L 159.478725 190.716489 
L 152.172702 190.716489 
L 162.606428 32.274578 
L 171.271009 32.274578 
L 181.704735 190.716489 
L 174.40475 190.716489 
L 172.629567 161.853304 
z
M 163.083433 132.446811 
L 170.800043 132.446811 
L 166.947776 69.423196 
L 163.083433 132.446811 
z
" clip-path="url(#p6664a7304e)" style="fill: #008000"/>
   </g>
   <g id="patch_8">
    <path d="M 212.791086 192.102157 
Q 209.812732 192.171079 206.609347 192.205697 
Q 203.405962 192.24 199.990783 192.24 
Q 192.273537 192.24 187.766295 192.034809 
Q 183.259053 191.829618 183.259053 191.478717 
Q 183.259053 191.123724 187.845718 190.920107 
Q 192.439001 190.716489 200.427608 190.716489 
Q 203.505241 190.716489 206.324749 190.744184 
Q 209.150876 190.771564 211.652693 190.825694 
L 211.652693 191.129389 
Q 209.071453 191.059838 206.516687 191.025534 
Q 203.961922 190.990916 201.393919 190.990916 
Q 196.64179 190.990916 194.067168 191.11743 
Q 191.492547 191.243628 191.492547 191.478717 
Q 191.492547 191.711602 193.974508 191.838745 
Q 196.45647 191.965573 201.023279 191.965573 
Q 202.267569 191.965573 203.333158 191.958335 
Q 204.398747 191.950782 205.245923 191.935046 
L 205.245923 191.649919 
L 200.381278 191.649919 
L 200.381278 191.395948 
L 212.791086 191.395948 
L 212.791086 192.102157 
z
" clip-path="url(#p6664a7304e)" style="fill: #ffa600"/>
   </g>
   <g id="patch_9">
    <path d="M 203.715918 161.853304 
L 192.358373 161.853304 
L 190.565076 190.716489 
L 183.259053 190.716489 
L 193.692779 32.274578 
L 202.35736 32.274578 
L 212.791086 190.716489 
L 205.491101 190.716489 
L 203.715918 161.853304 
z
M 194.169784 132.446811 
L 201.886394 132.446811 
L 198.034127 69.423196 
L 194.169784 132.446811 
z
" clip-path="url(#p6664a7304e)" style="fill: #008000"/>
   </g>
   <g id="patch_10">
    <path d="M 234.802269 191.962464 
L 223.444724 191.962464 
L 221.651427 192.24 
L 214.345404 192.24 
L 224.77913 190.716489 
L 233.443711 190.716489 
L 243.877437 192.24 
L 236.577452 192.24 
L 234.802269 191.962464 
z
M 225.256135 191.679703 
L 232.972745 191.679703 
L 229.120478 191.073695 
L 225.256135 191.679703 
z
" clip-path="url(#p6664a7304e)" style="fill: #008000"/>
   </g>
   <g id="patch_11">
    <path d="M 243.877437 176.381113 
Q 240.899083 183.548801 237.695698 187.14901 
Q 234.492313 190.716489 231.077134 190.716489 
Q 223.359888 190.716489 218.852646 169.377071 
Q 214.345404 148.037652 214.345404 111.544627 
Q 214.345404 74.626124 218.932069 53.450351 
Q 223.525352 32.274578 231.513959 32.274578 
Q 234.591592 32.274578 237.4111 35.154745 
Q 240.237227 38.002182 242.739044 43.6316 
L 242.739044 75.215249 
Q 240.157804 67.982102 237.603038 64.414623 
Q 235.048273 60.814414 232.48027 60.814414 
Q 227.728141 60.814414 225.153519 73.97154 
Q 222.578898 87.095937 222.578898 111.544627 
Q 222.578898 135.764213 225.060859 148.986798 
Q 227.542821 162.176653 232.10963 162.176653 
Q 233.35392 162.176653 234.419509 161.423882 
Q 235.485098 160.638382 236.332274 159.001924 
L 236.332274 129.349296 
L 231.467629 129.349296 
L 231.467629 102.936856 
L 243.877437 102.936856 
L 243.877437 176.381113 
z
" clip-path="url(#p6664a7304e)" style="fill: #ffa600"/>
   </g>
   <g id="patch_12">
    <path d="M 245.431755 190.823157 
L 274.963788 190.823157 
L 274.963788 191.099481 
L 264.339124 191.099481 
L 264.339124 192.24 
L 256.077023 192.24 
L 256.077023 191.099481 
L 245.431755 191.099481 
L 245.431755 190.823157 
z
" clip-path="url(#p6664a7304e)" style="fill: #ff0000"/>
   </g>
   <g id="patch_13">
    <path d="M 265.88862 190.306948 
L 254.531075 190.306948 
L 252.737778 190.823157 
L 245.431755 190.823157 
L 255.865481 187.989472 
L 264.530062 187.989472 
L 274.963788 190.823157 
L 267.663803 190.823157 
L 265.88862 190.306948 
z
M 256.342486 189.781022 
L 264.059096 189.781022 
L 260.206829 188.653864 
L 256.342486 189.781022 
z
" clip-path="url(#p6664a7304e)" style="fill: #008000"/>
   </g>
   <g id="patch_14">
    <path d="M 274.963788 174.914152 
Q 271.985434 181.451812 268.782049 184.735568 
Q 265.578664 187.989472 262.163485 187.989472 
Q 254.446239 187.989472 249.938997 168.525754 
Q 245.431755 149.062035 245.431755 115.776689 
Q 245.431755 82.103262 250.01842 62.788805 
Q 254.611703 43.474349 262.60031 43.474349 
Q 265.677943 43.474349 268.497451 46.101354 
Q 271.323578 48.698506 273.825395 53.833107 
L 273.825395 82.640604 
Q 271.244155 76.043239 268.689389 72.789335 
Q 266.134624 69.505579 263.566621 69.505579 
Q 258.814492 69.505579 256.23987 81.506215 
Q 253.665249 93.476999 253.665249 115.776689 
Q 253.665249 137.867412 256.14721 149.927753 
Q 258.629172 161.958241 263.195981 161.958241 
Q 264.440271 161.958241 265.50586 161.271638 
Q 266.571449 160.555182 267.418625 159.062566 
L 267.418625 132.016356 
L 262.55398 132.016356 
L 262.55398 107.925526 
L 274.963788 107.925526 
L 274.963788 174.914152 
z
" clip-path="url(#p6664a7304e)" style="fill: #ffa600"/>
   </g>
   <g id="patch_15">
    <path d="M 306.050139 191.972703 
Q 303.071785 192.106351 299.8684 192.173481 
Q 296.665015 192.24 293.249836 192.24 
Q 285.53259 192.24 281.025348 191.842106 
Q 276.518106 191.444212 276.518106 190.763764 
Q 276.518106 190.075382 281.104771 189.680539 
Q 285.698054 189.285696 293.686661 189.285696 
Q 296.764294 189.285696 299.583802 189.3394 
Q 302.409929 189.392493 304.911746 189.497459 
L 304.911746 190.086367 
Q 302.330506 189.951498 299.77574 189.884979 
Q 297.220975 189.817849 294.652972 189.817849 
Q 289.900843 189.817849 287.326221 190.063177 
Q 284.7516 190.307894 284.7516 190.763764 
Q 284.7516 191.215361 287.233561 191.461909 
Q 289.715523 191.707847 294.282332 191.707847 
Q 295.526622 191.707847 296.592211 191.693811 
Q 297.6578 191.679164 298.504976 191.648651 
L 298.504976 191.095749 
L 293.640331 191.095749 
L 293.640331 190.603263 
L 306.050139 190.603263 
L 306.050139 191.972703 
z
" clip-path="url(#p6664a7304e)" style="fill: #ffa600"/>
   </g>
   <g id="patch_16">
    <path d="M 296.974971 161.56988 
L 285.617426 161.56988 
L 283.824129 189.285696 
L 276.518106 189.285696 
L 286.951832 37.142165 
L 295.616413 37.142165 
L 306.050139 189.285696 
L 298.750154 189.285696 
L 296.974971 161.56988 
z
M 287.428837 133.332353 
L 295.145446 133.332353 
L 291.29318 72.814052 
L 287.428837 133.332353 
z
" clip-path="url(#p6664a7304e)" style="fill: #008000"/>
   </g>
   <g id="patch_17">
    <path d="M 337.13649 191.850077 
Q 334.158136 192.045039 330.954751 192.142964 
Q 327.751366 192.24 324.336187 192.24 
Q 316.618941 192.24 312.111699 191.659567 
Q 307.604457 191.079135 307.604457 190.086523 
Q 307.604457 189.082339 312.191122 188.506357 
Q 316.784405 187.930376 324.773012 187.930376 
Q 327.850645 187.930376 330.670153 188.008716 
Q 333.49628 188.086167 335.998097 188.239287 
L 335.998097 189.098363 
Q 333.416857 188.901621 330.862091 188.804586 
Q 328.307326 188.70666 325.739323 188.70666 
Q 320.987194 188.70666 318.412572 189.064534 
Q 315.837951 189.421518 315.837951 190.086523 
Q 315.837951 190.745297 318.319912 191.104951 
Q 320.801874 191.463716 325.368683 191.463716 
Q 326.612973 191.463716 327.678562 191.44324 
Q 328.744151 191.421875 329.591327 191.377363 
L 329.591327 190.570811 
L 324.726682 190.570811 
L 324.726682 189.852392 
L 337.13649 189.852392 
L 337.13649 191.850077 
z
" clip-path="url(#p6664a7304e)" style="fill: #ffa600"/>
   </g>
   <g id="patch_18">
    <path d="M 328.061322 161.237264 
L 316.703777 161.237264 
L 314.91048 187.930376 
L 307.604457 187.930376 
L 318.038183 41.400893 
L 326.702764 41.400893 
L 337.13649 187.930376 
L 329.836505 187.930376 
L 328.061322 161.237264 
z
M 318.515188 134.041693 
L 326.231797 134.041693 
L 322.379531 75.756498 
L 318.515188 134.041693 
z
" clip-path="url(#p6664a7304e)" style="fill: #008000"/>
   </g>
   <g id="patch_19">
    <path d="M 338.690808 190.716489 
L 368.222841 190.716489 
L 368.222841 191.013616 
L 357.598177 191.013616 
L 357.598177 192.24 
L 349.336076 192.24 
L 349.336076 191.013616 
L 338.690808 191.013616 
L 338.690808 190.716489 
z
" clip-path="url(#p6664a7304e)" style="fill: #ff0000"/>
   </g>
   <g id="patch_20">
    <path d="M 368.222841 176.381113 
Q 365.244487 183.548801 362.041102 187.14901 
Q 358.837717 190.716489 355.422538 190.716489 
Q 347.705292 190.716489 343.19805 169.377071 
Q 338.690808 148.037652 338.690808 111.544627 
Q 338.690808 74.626124 343.277473 53.450351 
Q 347.870756 32.274578 355.859363 32.274578 
Q 358.936996 32.274578 361.756504 35.154745 
Q 364.582631 38.002182 367.084448 43.6316 
L 367.084448 75.215249 
Q 364.503208 67.982102 361.948442 64.414623 
Q 359.393677 60.814414 356.825674 60.814414 
Q 352.073545 60.814414 349.498923 73.97154 
Q 346.924302 87.095937 346.924302 111.544627 
Q 346.924302 135.764213 349.406263 148.986798 
Q 351.888225 162.176653 356.455034 162.176653 
Q 357.699324 162.176653 358.764913 161.423882 
Q 359.830502 160.638382 360.677678 159.001924 
L 360.677678 129.349296 
L 355.813033 129.349296 
L 355.813033 102.936856 
L 368.222841 102.936856 
L 368.222841 176.381113 
z
" clip-path="url(#p6664a7304e)" style="fill: #ffa600"/>
   </g>
   <g id="patch_21">
    <path d="M 399.309192 192.028237 
Q 396.838889 192.133203 394.167687 192.186296 
Q 391.496485 192.24 388.587182 192.24 
Q 379.911356 192.24 374.844257 191.842106 
Q 369.777159 191.444212 369.777159 190.763764 
Q 369.777159 190.080875 374.844257 189.683591 
Q 379.911356 189.285696 388.587182 189.285696 
Q 391.496485 189.285696 394.167687 189.3394 
Q 396.838889 189.392493 399.309192 189.497459 
L 399.309192 190.086367 
Q 396.816567 189.947226 394.398348 189.882538 
Q 391.980129 189.817849 389.308927 189.817849 
Q 384.517133 189.817849 381.771525 190.06989 
Q 379.033357 190.32132 379.033357 190.763764 
Q 379.033357 191.204377 381.771525 191.456417 
Q 384.517133 191.707847 389.308927 191.707847 
Q 391.980129 191.707847 394.398348 191.643159 
Q 396.816567 191.57786 399.309192 191.438719 
L 399.309192 192.028237 
z
" clip-path="url(#p6664a7304e)" style="fill: #0000ff"/>
   </g>
   <g id="patch_22">
    <path d="M 399.309192 175.52018 
Q 396.330838 182.402938 393.127453 185.860031 
Q 389.924068 189.285696 386.508889 189.285696 
Q 378.791643 189.285696 374.284401 168.794562 
Q 369.777159 148.303427 369.777159 113.261073 
Q 369.777159 77.810153 374.363824 57.476159 
Q 378.957107 37.142165 386.945714 37.142165 
Q 390.023347 37.142165 392.842855 39.90784 
Q 395.668982 42.642086 398.170799 48.047723 
L 398.170799 78.375859 
Q 395.589559 71.430244 393.034793 68.004579 
Q 390.480028 64.547486 387.912025 64.547486 
Q 383.159896 64.547486 380.585274 77.181591 
Q 378.010653 89.784267 378.010653 113.261073 
Q 378.010653 136.517882 380.492614 149.214843 
Q 382.974576 161.880375 387.541385 161.880375 
Q 388.785675 161.880375 389.851264 161.157529 
Q 390.916853 160.403254 391.764029 158.831848 
L 391.764029 130.35797 
L 386.899384 130.35797 
L 386.899384 104.995477 
L 399.309192 104.995477 
L 399.309192 175.52018 
z
" clip-path="url(#p6664a7304e)" style="fill: #ffa600"/>
   </g>
   <g id="patch_23">
    <path d="M 430.395543 192.005879 
Q 427.417189 192.12294 424.213804 192.181737 
Q 421.010419 192.24 417.59524 192.24 
Q 409.877994 192.24 405.370752 191.891492 
Q 400.86351 191.542983 400.86351 190.946991 
Q 400.86351 190.34405 405.450175 189.998214 
Q 410.043458 189.652378 418.032065 189.652378 
Q 421.109698 189.652378 423.929206 189.699416 
Q 426.755333 189.74592 429.25715 189.837857 
L 429.25715 190.353671 
Q 426.67591 190.235542 424.121144 190.177279 
Q 421.566379 190.118482 418.998376 190.118482 
Q 414.246247 190.118482 411.671625 190.333359 
Q 409.097004 190.547703 409.097004 190.946991 
Q 409.097004 191.342537 411.578965 191.558484 
Q 414.060927 191.773897 418.627736 191.773897 
Q 419.872026 191.773897 420.937615 191.761603 
Q 422.003204 191.748774 422.85038 191.722048 
L 422.85038 191.237771 
L 417.985735 191.237771 
L 417.985735 190.806412 
L 430.395543 190.806412 
L 430.395543 192.005879 
z
" clip-path="url(#p6664a7304e)" style="fill: #ffa600"/>
   </g>
   <g id="patch_24">
    <path d="M 430.395543 189.28143 
Q 427.92524 189.4653 425.254038 189.558305 
Q 422.582836 189.652378 419.673533 189.652378 
Q 410.997707 189.652378 405.930608 188.95538 
Q 400.86351 188.258381 400.86351 187.066428 
Q 400.86351 185.870199 405.930608 185.174269 
Q 410.997707 184.477271 419.673533 184.477271 
Q 422.582836 184.477271 425.254038 184.571344 
Q 427.92524 184.664348 430.395543 184.848219 
L 430.395543 185.87982 
Q 427.902918 185.636084 425.484699 185.522768 
Q 423.06648 185.409453 420.395278 185.409453 
Q 415.603484 185.409453 412.857876 185.850956 
Q 410.119708 186.291391 410.119708 187.066428 
Q 410.119708 187.838258 412.857876 188.279761 
Q 415.603484 188.720196 420.395278 188.720196 
Q 423.06648 188.720196 425.484699 188.60688 
Q 427.902918 188.492496 430.395543 188.24876 
L 430.395543 189.28143 
z
" clip-path="url(#p6664a7304e)" style="fill: #0000ff"/>
   </g>
   <g id="patch_25">
    <path d="M 421.320375 161.144225 
L 409.96283 161.144225 
L 408.169533 184.477271 
L 400.86351 184.477271 
L 411.297236 56.392575 
L 419.961817 56.392575 
L 430.395543 184.477271 
L 423.095558 184.477271 
L 421.320375 161.144225 
z
M 411.774241 137.371969 
L 419.49085 137.371969 
L 415.638584 86.423577 
L 411.774241 137.371969 
z
" clip-path="url(#p6664a7304e)" style="fill: #008000"/>
   </g>
   <g id="patch_26">
    <path d="M 452.406726 161.941672 
L 441.049181 161.941672 
L 439.255884 192.24 
L 431.949861 192.24 
L 442.383587 25.92 
L 451.048168 25.92 
L 461.481894 192.24 
L 454.181909 192.24 
L 452.406726 161.941672 
z
M 442.860592 131.073022 
L 450.577201 131.073022 
L 446.724934 64.915731 
L 442.860592 131.073022 
z
" clip-path="url(#p6664a7304e)" style="fill: #008000"/>
   </g>
   <g id="patch_27">
    <path d="M 492.568245 177.191836 
Q 489.589891 184.715918 486.386506 188.495137 
Q 483.183121 192.24 479.767942 192.24 
Q 472.050696 192.24 467.543454 169.839537 
Q 463.036212 147.439075 463.036212 109.131535 
Q 463.036212 70.37736 467.622877 48.14868 
Q 472.21616 25.92 480.204767 25.92 
Q 483.2824 25.92 486.101908 28.943375 
Q 488.928035 31.932394 491.429852 37.841719 
L 491.429852 70.995778 
Q 488.848612 63.402983 486.293846 59.65812 
Q 483.73908 55.878901 481.171078 55.878901 
Q 476.418948 55.878901 473.844327 69.690229 
Q 471.269706 83.467201 471.269706 109.131535 
Q 471.269706 134.555373 473.751667 148.435414 
Q 476.233629 162.281099 480.800438 162.281099 
Q 482.044728 162.281099 483.110317 161.490899 
Q 484.175906 160.666342 485.023082 158.948515 
L 485.023082 127.821491 
L 480.158437 127.821491 
L 480.158437 100.095765 
L 492.568245 100.095765 
L 492.568245 177.191836 
z
" clip-path="url(#p6664a7304e)" style="fill: #ffa600"/>
   </g>
   <g id="patch_28">
    <path d="M 523.654596 192.028237 
Q 521.184292 192.133203 518.513091 192.186296 
Q 515.841889 192.24 512.932585 192.24 
Q 504.25676 192.24 499.189661 191.842106 
Q 494.122563 191.444212 494.122563 190.763764 
Q 494.122563 190.080875 499.189661 189.683591 
Q 504.25676 189.285696 512.932585 189.285696 
Q 515.841889 189.285696 518.513091 189.3394 
Q 521.184292 189.392493 523.654596 189.497459 
L 523.654596 190.086367 
Q 521.16197 189.947226 518.743752 189.882538 
Q 516.325533 189.817849 513.654331 189.817849 
Q 508.862537 189.817849 506.116928 190.06989 
Q 503.378761 190.32132 503.378761 190.763764 
Q 503.378761 191.204377 506.116928 191.456417 
Q 508.862537 191.707847 513.654331 191.707847 
Q 516.325533 191.707847 518.743752 191.643159 
Q 521.16197 191.57786 523.654596 191.438719 
L 523.654596 192.028237 
z
" clip-path="url(#p6664a7304e)" style="fill: #0000ff"/>
   </g>
   <g id="patch_29">
    <path d="M 523.654596 175.52018 
Q 520.676242 182.402938 517.472857 185.860031 
Q 514.269472 189.285696 510.854293 189.285696 
Q 503.137047 189.285696 498.629805 168.794562 
Q 494.122563 148.303427 494.122563 113.261073 
Q 494.122563 77.810153 498.709228 57.476159 
Q 503.302511 37.142165 511.291118 37.142165 
Q 514.368751 37.142165 517.188259 39.90784 
Q 520.014386 42.642086 522.516203 48.047723 
L 522.516203 78.375859 
Q 519.934963 71.430244 517.380197 68.004579 
Q 514.825431 64.547486 512.257429 64.547486 
Q 507.505299 64.547486 504.930678 77.181591 
Q 502.356057 89.784267 502.356057 113.261073 
Q 502.356057 136.517882 504.838018 149.214843 
Q 507.31998 161.880375 511.886789 161.880375 
Q 513.131079 161.880375 514.196668 161.157529 
Q 515.262257 160.403254 516.109433 158.831848 
L 516.109433 130.35797 
L 511.244788 130.35797 
L 511.244788 104.995477 
L 523.654596 104.995477 
L 523.654596 175.52018 
z
" clip-path="url(#p6664a7304e)" style="fill: #ffa600"/>
   </g>
   <g id="patch_30">
    <path d="M 525.208914 189.5793 
L 554.740947 189.5793 
L 554.740947 190.09821 
L 544.116283 190.09821 
L 544.116283 192.24 
L 535.854182 192.24 
L 535.854182 190.09821 
L 525.208914 190.09821 
L 525.208914 189.5793 
z
" clip-path="url(#p6664a7304e)" style="fill: #ff0000"/>
   </g>
   <g id="patch_31">
    <path d="M 554.740947 189.293233 
Q 552.270643 189.43503 549.599442 189.506753 
Q 546.92824 189.5793 544.018936 189.5793 
Q 535.343111 189.5793 530.276012 189.041792 
Q 525.208914 188.504285 525.208914 187.585081 
Q 525.208914 186.662579 530.276012 186.125896 
Q 535.343111 185.588389 544.018936 185.588389 
Q 546.92824 185.588389 549.599442 185.660936 
Q 552.270643 185.732658 554.740947 185.874455 
L 554.740947 186.669999 
Q 552.248321 186.482036 549.830103 186.39465 
Q 547.411884 186.307264 544.740682 186.307264 
Q 539.948888 186.307264 537.203279 186.64774 
Q 534.465112 186.987392 534.465112 187.585081 
Q 534.465112 188.180296 537.203279 188.520772 
Q 539.948888 188.860424 544.740682 188.860424 
Q 547.411884 188.860424 549.830103 188.773038 
Q 552.248321 188.684828 554.740947 188.496865 
L 554.740947 189.293233 
z
" clip-path="url(#p6664a7304e)" style="fill: #0000ff"/>
   </g>
   <g id="patch_32">
    <path d="M 545.665779 161.354031 
L 534.308234 161.354031 
L 532.514937 185.588389 
L 525.208914 185.588389 
L 535.64264 52.556021 
L 544.307221 52.556021 
L 554.740947 185.588389 
L 547.440962 185.588389 
L 545.665779 161.354031 
z
M 536.119644 136.663497 
L 543.836254 136.663497 
L 539.983987 83.747065 
L 536.119644 136.663497 
z
" clip-path="url(#p6664a7304e)" style="fill: #008000"/>
   </g>
   <g id="patch_33">
    <path d="M 556.295265 190.823157 
L 585.827298 190.823157 
L 585.827298 191.099481 
L 575.202634 191.099481 
L 575.202634 192.24 
L 566.940532 192.24 
L 566.940532 191.099481 
L 556.295265 191.099481 
L 556.295265 190.823157 
z
" clip-path="url(#p6664a7304e)" style="fill: #ff0000"/>
   </g>
   <g id="patch_34">
    <path d="M 585.827298 190.566774 
Q 582.848944 190.694965 579.645559 190.759354 
Q 576.442174 190.823157 573.026995 190.823157 
Q 565.309749 190.823157 560.802507 190.441508 
Q 556.295265 190.059859 556.295265 189.407193 
Q 556.295265 188.746917 560.88193 188.368194 
Q 565.475213 187.989472 573.46382 187.989472 
Q 576.541452 187.989472 579.360961 188.040983 
Q 582.187088 188.091909 584.688905 188.192589 
L 584.688905 188.757453 
Q 582.107665 188.62809 579.552899 188.564287 
Q 576.998133 188.499898 574.430131 188.499898 
Q 569.678001 188.499898 567.10338 188.73521 
Q 564.528758 188.969935 564.528758 189.407193 
Q 564.528758 189.840353 567.01072 190.076835 
Q 569.492682 190.312731 574.059491 190.312731 
Q 575.303781 190.312731 576.36937 190.299268 
Q 577.434959 190.28522 578.282135 190.255952 
L 578.282135 189.725624 
L 573.41749 189.725624 
L 573.41749 189.253245 
L 585.827298 189.253245 
L 585.827298 190.566774 
z
" clip-path="url(#p6664a7304e)" style="fill: #ffa600"/>
   </g>
   <g id="patch_35">
    <path d="M 576.75213 161.663314 
L 565.394585 161.663314 
L 563.601288 187.989472 
L 556.295265 187.989472 
L 566.728991 43.474349 
L 575.393572 43.474349 
L 585.827298 187.989472 
L 578.527313 187.989472 
L 576.75213 161.663314 
z
M 567.205995 134.841604 
L 574.922605 134.841604 
L 571.070338 77.357663 
L 567.205995 134.841604 
z
" clip-path="url(#p6664a7304e)" style="fill: #008000"/>
   </g>
   <g id="patch_36">
    <path d="M 587.381616 188.579766 
L 616.913649 188.579766 
L 616.913649 189.293613 
L 606.288985 189.293613 
L 606.288985 192.24 
L 598.026883 192.24 
L 598.026883 189.293613 
L 587.381616 189.293613 
L 587.381616 188.579766 
z
" clip-path="url(#p6664a7304e)" style="fill: #ff0000"/>
   </g>
   <g id="patch_37">
    <path d="M 607.838481 187.468449 
L 596.480936 187.468449 
L 594.687639 188.579766 
L 587.381616 188.579766 
L 597.815342 182.47929 
L 606.479923 182.47929 
L 616.913649 188.579766 
L 609.613664 188.579766 
L 607.838481 187.468449 
z
M 598.292346 186.336213 
L 606.008956 186.336213 
L 602.156689 183.90962 
L 598.292346 186.336213 
z
" clip-path="url(#p6664a7304e)" style="fill: #008000"/>
   </g>
   <g id="patch_38">
    <path d="M 616.913649 171.77137 
Q 613.935295 177.12533 610.73191 179.814534 
Q 607.528525 182.47929 604.113346 182.47929 
Q 596.3961 182.47929 591.888858 166.539647 
Q 587.381616 150.600003 587.381616 123.341258 
Q 587.381616 95.764697 591.968281 79.94729 
Q 596.561564 64.129883 604.550171 64.129883 
Q 607.627803 64.129883 610.447312 66.281246 
Q 613.273439 68.408162 615.775256 72.613098 
L 615.775256 96.204748 
Q 613.194016 90.801894 610.63925 88.137137 
Q 608.084484 85.447934 605.516481 85.447934 
Q 600.764352 85.447934 598.189731 95.275751 
Q 595.615109 105.07912 595.615109 123.341258 
Q 595.615109 141.432264 598.097071 151.308975 
Q 600.579033 161.16124 605.145842 161.16124 
Q 606.390132 161.16124 607.455721 160.598952 
Q 608.52131 160.012216 609.368486 158.789851 
L 609.368486 136.640592 
L 604.503841 136.640592 
L 604.503841 116.911616 
L 616.913649 116.911616 
L 616.913649 171.77137 
z
" clip-path="url(#p6664a7304e)" style="fill: #ffa600"/>
   </g>
   <g id="patch_39">
    <path d="M 618.467967 189.870939 
L 648 189.870939 
L 648 190.332972 
L 637.375336 190.332972 
L 637.375336 192.24 
L 629.113234 192.24 
L 629.113234 190.332972 
L 618.467967 190.332972 
L 618.467967 189.870939 
z
" clip-path="url(#p6664a7304e)" style="fill: #ff0000"/>
   </g>
   <g id="patch_40">
    <path d="M 638.924832 189.223608 
L 627.567287 189.223608 
L 625.77399 189.870939 
L 618.467967 189.870939 
L 628.901693 186.317473 
L 637.566274 186.317473 
L 648 189.870939 
L 640.700015 189.870939 
L 638.924832 189.223608 
z
M 629.378697 188.564092 
L 637.095307 188.564092 
L 633.24304 187.150626 
L 629.378697 188.564092 
z
" clip-path="url(#p6664a7304e)" style="fill: #008000"/>
   </g>
   <g id="patch_41">
    <path d="M 648 186.062763 
Q 645.529696 186.189017 642.858495 186.252878 
Q 640.187293 186.317473 637.277989 186.317473 
Q 628.602164 186.317473 623.535065 185.838882 
Q 618.467967 185.360291 618.467967 184.541841 
Q 618.467967 183.720455 623.535065 183.242598 
Q 628.602164 182.764006 637.277989 182.764006 
Q 640.187293 182.764006 642.858495 182.828602 
Q 645.529696 182.892463 648 183.018717 
L 648 183.727061 
Q 645.507374 183.559701 643.089155 183.481893 
Q 640.670937 183.404086 637.999735 183.404086 
Q 633.207941 183.404086 630.462332 183.707242 
Q 627.724165 184.009665 627.724165 184.541841 
Q 627.724165 185.071815 630.462332 185.374971 
Q 633.207941 185.677394 637.999735 185.677394 
Q 640.670937 185.677394 643.089155 185.599586 
Q 645.507374 185.521044 648 185.353684 
L 648 186.062763 
z
" clip-path="url(#p6664a7304e)" style="fill: #0000ff"/>
   </g>
   <g id="patch_42">
    <path d="M 648 172.368433 
Q 645.021646 177.56622 641.818261 180.17698 
Q 638.614876 182.764006 635.199697 182.764006 
Q 627.482451 182.764006 622.975209 167.289317 
Q 618.467967 151.814627 618.467967 125.351008 
Q 618.467967 98.578846 623.054632 83.222827 
Q 627.647915 67.866808 635.636522 67.866808 
Q 638.714154 67.866808 641.533663 69.955416 
Q 644.35979 72.020291 646.861607 76.102571 
L 646.861607 99.006061 
Q 644.280367 93.760806 641.725601 91.173779 
Q 639.170835 88.563019 636.602832 88.563019 
Q 631.850703 88.563019 629.276082 98.104162 
Q 626.70146 107.621571 626.70146 125.351008 
Q 626.70146 142.914307 629.183422 152.502918 
Q 631.665384 162.067796 636.232193 162.067796 
Q 637.476483 162.067796 638.542072 161.521909 
Q 639.607661 160.952289 640.454837 159.765579 
L 640.454837 138.262406 
L 635.590192 138.262406 
L 635.590192 119.108917 
L 648 119.108917 
L 648 172.368433 
z
" clip-path="url(#p6664a7304e)" style="fill: #ffa600"/>
   </g>
   <g id="matplotlib.axis_1">
    <g id="xtick_1">
     <g id="line2d_2">
      <defs>
       <path id="mb1a2c1ee66" d="M 0 0 
L 0 3.5 
" style="stroke: #000000; stroke-width: 0.8"/>
      </defs>
      <g>
       <use xlink:href="#mb1a2c1ee66" x="104.766017" y="192.24" style="stroke: #000000; stroke-width: 0.8"/>
      </g>
     </g>
     <g id="text_1">
      <!-- 0 -->
      <g transform="translate(101.584767 206.838437) scale(0.1 -0.1)">
       <defs>
        <path id="DejaVuSans-30" d="M 2034 4250 
Q 1547 4250 1301 3770 
Q 1056 3291 1056 2328 
Q 1056 1369 1301 889 
Q 1547 409 2034 409 
Q 2525 409 2770 889 
Q 3016 1369 3016 2328 
Q 3016 3291 2770 3770 
Q 2525 4250 2034 4250 
z
M 2034 4750 
Q 2819 4750 3233 4129 
Q 3647 3509 3647 2328 
Q 3647 1150 3233 529 
Q 2819 -91 2034 -91 
Q 1250 -91 836 529 
Q 422 1150 422 2328 
Q 422 3509 836 4129 
Q 1250 4750 2034 4750 
z
" transform="scale(0.015625)"/>
       </defs>
       <use xlink:href="#DejaVuSans-30"/>
      </g>
     </g>
    </g>
    <g id="xtick_2">
     <g id="line2d_3">
      <g>
       <use xlink:href="#mb1a2c1ee66" x="166.938719" y="192.24" style="stroke: #000000; stroke-width: 0.8"/>
      </g>
     </g>
     <g id="text_2">
      <!-- 2 -->
      <g transform="translate(163.757469 206.838437) scale(0.1 -0.1)">
       <defs>
        <path id="DejaVuSans-32" d="M 1228 531 
L 3431 531 
L 3431 0 
L 469 0 
L 469 531 
Q 828 903 1448 1529 
Q 2069 2156 2228 2338 
Q 2531 2678 2651 2914 
Q 2772 3150 2772 3378 
Q 2772 3750 2511 3984 
Q 2250 4219 1831 4219 
Q 1534 4219 1204 4116 
Q 875 4013 500 3803 
L 500 4441 
Q 881 4594 1212 4672 
Q 1544 4750 1819 4750 
Q 2544 4750 2975 4387 
Q 3406 4025 3406 3419 
Q 3406 3131 3298 2873 
Q 3191 2616 2906 2266 
Q 2828 2175 2409 1742 
Q 1991 1309 1228 531 
z
" transform="scale(0.015625)"/>
       </defs>
       <use xlink:href="#DejaVuSans-32"/>
      </g>
     </g>
    </g>
    <g id="xtick_3">
     <g id="line2d_4">
      <g>
       <use xlink:href="#mb1a2c1ee66" x="229.111421" y="192.24" style="stroke: #000000; stroke-width: 0.8"/>
      </g>
     </g>
     <g id="text_3">
      <!-- 4 -->
      <g transform="translate(225.930171 206.838437) scale(0.1 -0.1)">
       <defs>
        <path id="DejaVuSans-34" d="M 2419 4116 
L 825 1625 
L 2419 1625 
L 2419 4116 
z
M 2253 4666 
L 3047 4666 
L 3047 1625 
L 3713 1625 
L 3713 1100 
L 3047 1100 
L 3047 0 
L 2419 0 
L 2419 1100 
L 313 1100 
L 313 1709 
L 2253 4666 
z
" transform="scale(0.015625)"/>
       </defs>
       <use xlink:href="#DejaVuSans-34"/>
      </g>
     </g>
    </g>
    <g id="xtick_4">
     <g id="line2d_5">
      <g>
       <use xlink:href="#mb1a2c1ee66" x="291.284123" y="192.24" style="stroke: #000000; stroke-width: 0.8"/>
      </g>
     </g>
     <g id="text_4">
      <!-- 6 -->
      <g transform="translate(288.102873 206.838437) scale(0.1 -0.1)">
       <defs>
        <path id="DejaVuSans-36" d="M 2113 2584 
Q 1688 2584 1439 2293 
Q 1191 2003 1191 1497 
Q 1191 994 1439 701 
Q 1688 409 2113 409 
Q 2538 409 2786 701 
Q 3034 994 3034 1497 
Q 3034 2003 2786 2293 
Q 2538 2584 2113 2584 
z
M 3366 4563 
L 3366 3988 
Q 3128 4100 2886 4159 
Q 2644 4219 2406 4219 
Q 1781 4219 1451 3797 
Q 1122 3375 1075 2522 
Q 1259 2794 1537 2939 
Q 1816 3084 2150 3084 
Q 2853 3084 3261 2657 
Q 3669 2231 3669 1497 
Q 3669 778 3244 343 
Q 2819 -91 2113 -91 
Q 1303 -91 875 529 
Q 447 1150 447 2328 
Q 447 3434 972 4092 
Q 1497 4750 2381 4750 
Q 2619 4750 2861 4703 
Q 3103 4656 3366 4563 
z
" transform="scale(0.015625)"/>
       </defs>
       <use xlink:href="#DejaVuSans-36"/>
      </g>
     </g>
    </g>
    <g id="xtick_5">
     <g id="line2d_6">
      <g>
       <use xlink:href="#mb1a2c1ee66" x="353.456825" y="192.24" style="stroke: #000000; stroke-width: 0.8"/>
      </g>
     </g>
     <g id="text_5">
      <!-- 8 -->
      <g transform="translate(350.275575 206.838437) scale(0.1 -0.1)">
       <defs>
        <path id="DejaVuSans-38" d="M 2034 2216 
Q 1584 2216 1326 1975 
Q 1069 1734 1069 1313 
Q 1069 891 1326 650 
Q 1584 409 2034 409 
Q 2484 409 2743 651 
Q 3003 894 3003 1313 
Q 3003 1734 2745 1975 
Q 2488 2216 2034 2216 
z
M 1403 2484 
Q 997 2584 770 2862 
Q 544 3141 544 3541 
Q 544 4100 942 4425 
Q 1341 4750 2034 4750 
Q 2731 4750 3128 4425 
Q 3525 4100 3525 3541 
Q 3525 3141 3298 2862 
Q 3072 2584 2669 2484 
Q 3125 2378 3379 2068 
Q 3634 1759 3634 1313 
Q 3634 634 3220 271 
Q 2806 -91 2034 -91 
Q 1263 -91 848 271 
Q 434 634 434 1313 
Q 434 1759 690 2068 
Q 947 2378 1403 2484 
z
M 1172 3481 
Q 1172 3119 1398 2916 
Q 1625 2713 2034 2713 
Q 2441 2713 2670 2916 
Q 2900 3119 2900 3481 
Q 2900 3844 2670 4047 
Q 2441 4250 2034 4250 
Q 1625 4250 1398 4047 
Q 1172 3844 1172 3481 
z
" transform="scale(0.015625)"/>
       </defs>
       <use xlink:href="#DejaVuSans-38"/>
      </g>
     </g>
    </g>
    <g id="xtick_6">
     <g id="line2d_7">
      <g>
       <use xlink:href="#mb1a2c1ee66" x="415.629526" y="192.24" style="stroke: #000000; stroke-width: 0.8"/>
      </g>
     </g>
     <g id="text_6">
      <!-- 10 -->
      <g transform="translate(409.267026 206.838437) scale(0.1 -0.1)">
       <defs>
        <path id="DejaVuSans-31" d="M 794 531 
L 1825 531 
L 1825 4091 
L 703 3866 
L 703 4441 
L 1819 4666 
L 2450 4666 
L 2450 531 
L 3481 531 
L 3481 0 
L 794 0 
L 794 531 
z
" transform="scale(0.015625)"/>
       </defs>
       <use xlink:href="#DejaVuSans-31"/>
       <use xlink:href="#DejaVuSans-30" x="63.623047"/>
      </g>
     </g>
    </g>
    <g id="xtick_7">
     <g id="line2d_8">
      <g>
       <use xlink:href="#mb1a2c1ee66" x="477.802228" y="192.24" style="stroke: #000000; stroke-width: 0.8"/>
      </g>
     </g>
     <g id="text_7">
      <!-- 12 -->
      <g transform="translate(471.439728 206.838437) scale(0.1 -0.1)">
       <use xlink:href="#DejaVuSans-31"/>
       <use xlink:href="#DejaVuSans-32" x="63.623047"/>
      </g>
     </g>
    </g>
    <g id="xtick_8">
     <g id="line2d_9">
      <g>
       <use xlink:href="#mb1a2c1ee66" x="539.97493" y="192.24" style="stroke: #000000; stroke-width: 0.8"/>
      </g>
     </g>
     <g id="text_8">
      <!-- 14 -->
      <g transform="translate(533.61243 206.838437) scale(0.1 -0.1)">
       <use xlink:href="#DejaVuSans-31"/>
       <use xlink:href="#DejaVuSans-34" x="63.623047"/>
      </g>
     </g>
    </g>
    <g id="xtick_9">
     <g id="line2d_10">
      <g>
       <use xlink:href="#mb1a2c1ee66" x="602.147632" y="192.24" style="stroke: #000000; stroke-width: 0.8"/>
      </g>
     </g>
     <g id="text_9">
      <!-- 16 -->
      <g transform="translate(595.785132 206.838437) scale(0.1 -0.1)">
       <use xlink:href="#DejaVuSans-31"/>
       <use xlink:href="#DejaVuSans-36" x="63.623047"/>
      </g>
     </g>
    </g>
   </g>
   <g id="matplotlib.axis_2">
    <g id="ytick_1">
     <g id="line2d_11">
      <defs>
       <path id="m1139b46dce" d="M 0 0 
L -3.5 0 
" style="stroke: #000000; stroke-width: 0.8"/>
      </defs>
      <g>
       <use xlink:href="#m1139b46dce" x="90" y="192.24" style="stroke: #000000; stroke-width: 0.8"/>
      </g>
     </g>
     <g id="text_10">
      <!-- 0.00 -->
      <g transform="translate(60.734375 196.039219) scale(0.1 -0.1)">
       <defs>
        <path id="DejaVuSans-2e" d="M 684 794 
L 1344 794 
L 1344 0 
L 684 0 
L 684 794 
z
" transform="scale(0.015625)"/>
       </defs>
       <use xlink:href="#DejaVuSans-30"/>
       <use xlink:href="#DejaVuSans-2e" x="63.623047"/>
       <use xlink:href="#DejaVuSans-30" x="95.410156"/>
       <use xlink:href="#DejaVuSans-30" x="159.033203"/>
      </g>
     </g>
    </g>
    <g id="ytick_2">
     <g id="line2d_12">
      <g>
       <use xlink:href="#m1139b46dce" x="90" y="171.405025" style="stroke: #000000; stroke-width: 0.8"/>
      </g>
     </g>
     <g id="text_11">
      <!-- 0.25 -->
      <g transform="translate(60.734375 175.204243) scale(0.1 -0.1)">
       <defs>
        <path id="DejaVuSans-35" d="M 691 4666 
L 3169 4666 
L 3169 4134 
L 1269 4134 
L 1269 2991 
Q 1406 3038 1543 3061 
Q 1681 3084 1819 3084 
Q 2600 3084 3056 2656 
Q 3513 2228 3513 1497 
Q 3513 744 3044 326 
Q 2575 -91 1722 -91 
Q 1428 -91 1123 -41 
Q 819 9 494 109 
L 494 744 
Q 775 591 1075 516 
Q 1375 441 1709 441 
Q 2250 441 2565 725 
Q 2881 1009 2881 1497 
Q 2881 1984 2565 2268 
Q 2250 2553 1709 2553 
Q 1456 2553 1204 2497 
Q 953 2441 691 2322 
L 691 4666 
z
" transform="scale(0.015625)"/>
       </defs>
       <use xlink:href="#DejaVuSans-30"/>
       <use xlink:href="#DejaVuSans-2e" x="63.623047"/>
       <use xlink:href="#DejaVuSans-32" x="95.410156"/>
       <use xlink:href="#DejaVuSans-35" x="159.033203"/>
      </g>
     </g>
    </g>
    <g id="ytick_3">
     <g id="line2d_13">
      <g>
       <use xlink:href="#m1139b46dce" x="90" y="150.570049" style="stroke: #000000; stroke-width: 0.8"/>
      </g>
     </g>
     <g id="text_12">
      <!-- 0.50 -->
      <g transform="translate(60.734375 154.369268) scale(0.1 -0.1)">
       <use xlink:href="#DejaVuSans-30"/>
       <use xlink:href="#DejaVuSans-2e" x="63.623047"/>
       <use xlink:href="#DejaVuSans-35" x="95.410156"/>
       <use xlink:href="#DejaVuSans-30" x="159.033203"/>
      </g>
     </g>
    </g>
    <g id="ytick_4">
     <g id="line2d_14">
      <g>
       <use xlink:href="#m1139b46dce" x="90" y="129.735074" style="stroke: #000000; stroke-width: 0.8"/>
      </g>
     </g>
     <g id="text_13">
      <!-- 0.75 -->
      <g transform="translate(60.734375 133.534293) scale(0.1 -0.1)">
       <defs>
        <path id="DejaVuSans-37" d="M 525 4666 
L 3525 4666 
L 3525 4397 
L 1831 0 
L 1172 0 
L 2766 4134 
L 525 4134 
L 525 4666 
z
" transform="scale(0.015625)"/>
       </defs>
       <use xlink:href="#DejaVuSans-30"/>
       <use xlink:href="#DejaVuSans-2e" x="63.623047"/>
       <use xlink:href="#DejaVuSans-37" x="95.410156"/>
       <use xlink:href="#DejaVuSans-35" x="159.033203"/>
      </g>
     </g>
    </g>
    <g id="ytick_5">
     <g id="line2d_15">
      <g>
       <use xlink:href="#m1139b46dce" x="90" y="108.900099" style="stroke: #000000; stroke-width: 0.8"/>
      </g>
     </g>
     <g id="text_14">
      <!-- 1.00 -->
      <g transform="translate(60.734375 112.699317) scale(0.1 -0.1)">
       <use xlink:href="#DejaVuSans-31"/>
       <use xlink:href="#DejaVuSans-2e" x="63.623047"/>
       <use xlink:href="#DejaVuSans-30" x="95.410156"/>
       <use xlink:href="#DejaVuSans-30" x="159.033203"/>
      </g>
     </g>
    </g>
    <g id="ytick_6">
     <g id="line2d_16">
      <g>
       <use xlink:href="#m1139b46dce" x="90" y="88.065123" style="stroke: #000000; stroke-width: 0.8"/>
      </g>
     </g>
     <g id="text_15">
      <!-- 1.25 -->
      <g transform="translate(60.734375 91.864342) scale(0.1 -0.1)">
       <use xlink:href="#DejaVuSans-31"/>
       <use xlink:href="#DejaVuSans-2e" x="63.623047"/>
       <use xlink:href="#DejaVuSans-32" x="95.410156"/>
       <use xlink:href="#DejaVuSans-35" x="159.033203"/>
      </g>
     </g>
    </g>
    <g id="ytick_7">
     <g id="line2d_17">
      <g>
       <use xlink:href="#m1139b46dce" x="90" y="67.230148" style="stroke: #000000; stroke-width: 0.8"/>
      </g>
     </g>
     <g id="text_16">
      <!-- 1.50 -->
      <g transform="translate(60.734375 71.029367) scale(0.1 -0.1)">
       <use xlink:href="#DejaVuSans-31"/>
       <use xlink:href="#DejaVuSans-2e" x="63.623047"/>
       <use xlink:href="#DejaVuSans-35" x="95.410156"/>
       <use xlink:href="#DejaVuSans-30" x="159.033203"/>
      </g>
     </g>
    </g>
    <g id="ytick_8">
     <g id="line2d_18">
      <g>
       <use xlink:href="#m1139b46dce" x="90" y="46.395172" style="stroke: #000000; stroke-width: 0.8"/>
      </g>
     </g>
     <g id="text_17">
      <!-- 1.75 -->
      <g transform="translate(60.734375 50.194391) scale(0.1 -0.1)">
       <use xlink:href="#DejaVuSans-31"/>
       <use xlink:href="#DejaVuSans-2e" x="63.623047"/>
       <use xlink:href="#DejaVuSans-37" x="95.410156"/>
       <use xlink:href="#DejaVuSans-35" x="159.033203"/>
      </g>
     </g>
    </g>
   </g>
  </g>
 </g>
 <defs>
  <clipPath id="p6664a7304e">
   <rect x="90" y="25.92" width="558" height="166.32"/>
  </clipPath>
 </defs>
</svg>
