<?xml version="1.0" encoding="utf-8" standalone="no"?>
<!DOCTYPE svg PUBLIC "-//W3C//DTD SVG 1.1//EN"
  "http://www.w3.org/Graphics/SVG/1.1/DTD/svg11.dtd">
<svg xmlns:xlink="http://www.w3.org/1999/xlink" width="720pt" height="216pt" viewBox="0 0 720 216" xmlns="http://www.w3.org/2000/svg" version="1.1">
 <metadata>
  <rdf:RDF xmlns:dc="http://purl.org/dc/elements/1.1/" xmlns:cc="http://creativecommons.org/ns#" xmlns:rdf="http://www.w3.org/1999/02/22-rdf-syntax-ns#">
   <cc:Work>
    <dc:type rdf:resource="http://purl.org/dc/dcmitype/StillImage"/>
    <dc:date>2024-11-23T05:03:34.119793</dc:date>
    <dc:format>image/svg+xml</dc:format>
    <dc:creator>
     <cc:Agent>
      <dc:title>Matplotlib v3.7.2, https://matplotlib.org/</dc:title>
     </cc:Agent>
    </dc:creator>
   </cc:Work>
  </rdf:RDF>
 </metadata>
 <defs>
  <style type="text/css">*{stroke-linejoin: round; stroke-linecap: butt}</style>
 </defs>
 <g id="figure_1">
  <g id="patch_1">
   <path d="M 0 216 
L 720 216 
L 720 0 
L 0 0 
z
" style="fill: #ffffff"/>
  </g>
  <g id="axes_1">
   <g id="patch_2">
    <path d="M 90 192.24 
L 648 192.24 
L 648 25.92 
L 90 25.92 
z
" style="fill: #ffffff"/>
   </g>
   <g id="line2d_1">
    <path d="M 90 192.24 
L 648 192.24 
" clip-path="url(#pd6b04de866)" style="fill: none; stroke: #000000; stroke-width: 0.5; stroke-linecap: square"/>
   </g>
   <g id="patch_3">
    <path d="M 131.028015 191.898501 
L 108.249474 191.898501 
L 104.652863 192.24 
L 90 192.24 
L 110.925741 190.365369 
L 128.303309 190.365369 
L 149.22905 192.24 
L 134.588298 192.24 
L 131.028015 191.898501 
z
M 111.882415 191.550573 
L 127.358745 191.550573 
L 119.63269 190.804899 
L 111.882415 191.550573 
z
" clip-path="url(#pd6b04de866)" style="fill: #008000"/>
   </g>
   <g id="patch_4">
    <path d="M 149.22905 190.016462 
Q 143.255704 190.190915 136.831038 190.27854 
Q 130.406371 190.365369 123.556934 190.365369 
Q 108.079329 190.365369 99.039665 189.845991 
Q 90 189.326614 90 188.438415 
Q 90 187.53986 99.198954 187.024466 
Q 108.411182 186.509071 124.433025 186.509071 
Q 130.605483 186.509071 136.260251 186.579171 
Q 141.928293 186.648475 146.945904 186.785489 
L 146.945904 187.554199 
Q 141.769004 187.378152 136.6452 187.291324 
Q 131.521396 187.203699 126.371044 187.203699 
Q 116.840237 187.203699 111.676611 187.523928 
Q 106.512985 187.843362 106.512985 188.438415 
Q 106.512985 189.027892 111.490774 189.349715 
Q 116.468563 189.670741 125.627694 189.670741 
Q 128.123226 189.670741 130.260356 189.65242 
Q 132.397487 189.633302 134.096572 189.593472 
L 134.096572 188.871761 
L 124.340106 188.871761 
L 124.340106 188.228912 
L 149.22905 188.228912 
L 149.22905 190.016462 
z
" clip-path="url(#pd6b04de866)" style="fill: #ffa600"/>
   </g>
   <g id="patch_5">
    <path d="M 149.22905 185.67921 
Q 144.274642 186.090553 138.917316 186.298617 
Q 133.559989 186.509071 127.72513 186.509071 
Q 110.32501 186.509071 100.162505 184.949792 
Q 90 183.390513 90 180.723954 
Q 90 178.047828 100.162505 176.49094 
Q 110.32501 174.931661 127.72513 174.931661 
Q 133.559989 174.931661 138.917316 175.142116 
Q 144.274642 175.350179 149.22905 175.761523 
L 149.22905 178.069352 
Q 144.229874 177.524083 139.379926 177.27058 
Q 134.529979 177.017078 129.172652 177.017078 
Q 119.562295 177.017078 114.055739 178.004781 
Q 108.564106 178.990092 108.564106 180.723954 
Q 108.564106 182.45064 114.055739 183.438343 
Q 119.562295 184.423655 129.172652 184.423655 
Q 134.529979 184.423655 139.379926 184.170152 
Q 144.229874 183.914258 149.22905 183.368989 
L 149.22905 185.67921 
z
" clip-path="url(#pd6b04de866)" style="fill: #0000ff"/>
   </g>
   <g id="patch_6">
    <path d="M 90 160.336847 
L 149.22905 160.336847 
L 149.22905 163.183243 
L 127.920366 163.183243 
L 127.920366 174.931661 
L 111.350006 174.931661 
L 111.350006 163.183243 
L 90 163.183243 
L 90 160.336847 
z
" clip-path="url(#pd6b04de866)" style="fill: #ff0000"/>
   </g>
   <g id="patch_7">
    <path d="M 193.374384 191.860229 
L 170.595843 191.860229 
L 166.999231 192.24 
L 152.346369 192.24 
L 173.27211 190.15528 
L 190.649678 190.15528 
L 211.575419 192.24 
L 196.934666 192.24 
L 193.374384 191.860229 
z
M 174.228784 191.473309 
L 189.705113 191.473309 
L 181.979059 190.644068 
L 174.228784 191.473309 
z
" clip-path="url(#pd6b04de866)" style="fill: #008000"/>
   </g>
   <g id="patch_8">
    <path d="M 152.346369 186.558308 
L 211.575419 186.558308 
L 211.575419 187.259818 
L 190.266735 187.259818 
L 190.266735 190.15528 
L 173.696375 190.15528 
L 173.696375 187.259818 
L 152.346369 187.259818 
L 152.346369 186.558308 
z
" clip-path="url(#pd6b04de866)" style="fill: #ff0000"/>
   </g>
   <g id="patch_9">
    <path d="M 211.575419 185.110916 
Q 205.602072 185.834612 199.177406 186.198112 
Q 192.75274 186.558308 185.903303 186.558308 
Q 170.425698 186.558308 161.386033 184.403742 
Q 152.346369 182.249176 152.346369 178.564604 
Q 152.346369 174.837073 161.545323 172.69903 
Q 170.75755 170.560987 186.779393 170.560987 
Q 192.951852 170.560987 198.60662 170.851787 
Q 204.274662 171.139283 209.292273 171.707665 
L 209.292273 174.896555 
Q 204.115373 174.16625 198.991569 173.806054 
Q 193.867765 173.442553 188.717413 173.442553 
Q 179.186606 173.442553 174.02298 174.770982 
Q 168.859354 176.096106 168.859354 178.564604 
Q 168.859354 181.00997 173.837142 182.345008 
Q 178.814931 183.676741 187.974063 183.676741 
Q 190.469594 183.676741 192.606725 183.600737 
Q 194.743856 183.521428 196.442941 183.3562 
L 196.442941 180.362279 
L 186.686475 180.362279 
L 186.686475 177.695508 
L 211.575419 177.695508 
L 211.575419 185.110916 
z
" clip-path="url(#pd6b04de866)" style="fill: #ffa600"/>
   </g>
   <g id="patch_10">
    <path d="M 211.575419 166.343587 
Q 206.621011 168.434056 201.263685 169.491444 
Q 195.906358 170.560987 190.071498 170.560987 
Q 172.671379 170.560987 162.508874 162.63665 
Q 152.346369 154.712313 152.346369 141.160725 
Q 152.346369 127.560521 162.508874 119.648338 
Q 172.671379 111.724001 190.071498 111.724001 
Q 195.906358 111.724001 201.263685 112.793544 
Q 206.621011 113.850932 211.575419 115.941401 
L 211.575419 127.669906 
Q 206.576242 124.898819 201.726295 123.610506 
Q 196.876348 122.322194 191.519021 122.322194 
Q 181.908664 122.322194 176.402108 127.341751 
Q 170.910475 132.349154 170.910475 141.160725 
Q 170.910475 149.935834 176.402108 154.955391 
Q 181.908664 159.962794 191.519021 159.962794 
Q 196.876348 159.962794 201.726295 158.674482 
Q 206.576242 157.374015 211.575419 154.602928 
L 211.575419 166.343587 
z
" clip-path="url(#pd6b04de866)" style="fill: #0000ff"/>
   </g>
   <g id="patch_11">
    <path d="M 273.921788 192.139293 
Q 267.948441 192.189646 261.523775 192.214938 
Q 255.099109 192.24 248.249671 192.24 
Q 232.772067 192.24 223.732402 192.090089 
Q 214.692737 191.940177 214.692737 191.68381 
Q 214.692737 191.424455 223.891691 191.275693 
Q 233.103919 191.126931 249.125762 191.126931 
Q 255.29822 191.126931 260.952988 191.147164 
Q 266.621031 191.167168 271.638642 191.206715 
L 271.638642 191.428593 
Q 266.461741 191.37778 261.337937 191.352718 
Q 256.214134 191.327426 251.063781 191.327426 
Q 241.532975 191.327426 236.369349 191.419856 
Q 231.205722 191.512056 231.205722 191.68381 
Q 231.205722 191.853955 236.183511 191.946845 
Q 241.1613 192.039505 250.320432 192.039505 
Q 252.815963 192.039505 254.953094 192.034217 
Q 257.090224 192.028699 258.78931 192.017202 
L 258.78931 191.80889 
L 249.032843 191.80889 
L 249.032843 191.62334 
L 273.921788 191.62334 
L 273.921788 192.139293 
z
" clip-path="url(#pd6b04de866)" style="fill: #ffa600"/>
   </g>
   <g id="patch_12">
    <path d="M 273.921788 190.873588 
Q 268.96738 190.999164 263.610053 191.062683 
Q 258.252727 191.126931 252.417867 191.126931 
Q 235.017748 191.126931 224.855243 190.650908 
Q 214.692737 190.174885 214.692737 189.360827 
Q 214.692737 188.543849 224.855243 188.068556 
Q 235.017748 187.592533 252.417867 187.592533 
Q 258.252727 187.592533 263.610053 187.656782 
Q 268.96738 187.7203 273.921788 187.845877 
L 273.921788 188.55042 
Q 268.922611 188.383958 264.072664 188.306568 
Q 259.222716 188.229178 253.86539 188.229178 
Q 244.255032 188.229178 238.748477 188.530707 
Q 233.256844 188.831507 233.256844 189.360827 
Q 233.256844 189.887957 238.748477 190.189487 
Q 244.255032 190.490287 253.86539 190.490287 
Q 259.222716 190.490287 264.072664 190.412897 
Q 268.922611 190.334776 273.921788 190.168314 
L 273.921788 190.873588 
z
" clip-path="url(#pd6b04de866)" style="fill: #0000ff"/>
   </g>
   <g id="patch_13">
    <path d="M 214.692737 183.042735 
L 273.921788 183.042735 
L 273.921788 183.930072 
L 252.613104 183.930072 
L 252.613104 187.592533 
L 236.042744 187.592533 
L 236.042744 183.930072 
L 214.692737 183.930072 
L 214.692737 183.042735 
z
" clip-path="url(#pd6b04de866)" style="fill: #ff0000"/>
   </g>
   <g id="patch_14">
    <path d="M 255.720753 158.20239 
L 232.942212 158.20239 
L 229.3456 183.042735 
L 214.692737 183.042735 
L 235.618478 46.683857 
L 252.996047 46.683857 
L 273.921788 183.042735 
L 259.281035 183.042735 
L 255.720753 158.20239 
z
M 236.575153 132.894463 
L 252.051482 132.894463 
L 244.325427 78.654841 
L 236.575153 132.894463 
z
" clip-path="url(#pd6b04de866)" style="fill: #008000"/>
   </g>
   <g id="patch_15">
    <path d="M 318.067121 191.793906 
L 295.28858 191.793906 
L 291.691969 192.24 
L 277.039106 192.24 
L 297.964847 189.791207 
L 315.342415 189.791207 
L 336.268156 192.24 
L 321.627404 192.24 
L 318.067121 191.793906 
z
M 298.921522 191.339415 
L 314.397851 191.339415 
L 306.671796 190.365356 
L 298.921522 191.339415 
z
" clip-path="url(#pd6b04de866)" style="fill: #008000"/>
   </g>
   <g id="patch_16">
    <path d="M 336.268156 189.415886 
Q 330.29481 189.603547 323.870144 189.697805 
Q 317.445478 189.791207 310.59604 189.791207 
Q 295.118435 189.791207 286.078771 189.232509 
Q 277.039106 188.673811 277.039106 187.718368 
Q 277.039106 186.751786 286.23806 186.197372 
Q 295.450288 185.642958 311.472131 185.642958 
Q 317.644589 185.642958 323.299357 185.718365 
Q 328.967399 185.792915 333.985011 185.940302 
L 333.985011 186.76721 
Q 328.80811 186.577835 323.684306 186.484433 
Q 318.560502 186.390174 313.41015 186.390174 
Q 303.879344 186.390174 298.715717 186.734648 
Q 293.552091 187.078264 293.552091 187.718368 
Q 293.552091 188.352474 298.52988 188.698661 
Q 303.507669 189.043991 312.6668 189.043991 
Q 315.162332 189.043991 317.299462 189.024283 
Q 319.436593 189.003717 321.135678 188.960872 
L 321.135678 188.184521 
L 311.379212 188.184521 
L 311.379212 187.493004 
L 336.268156 187.493004 
L 336.268156 189.415886 
z
" clip-path="url(#pd6b04de866)" style="fill: #ffa600"/>
   </g>
   <g id="patch_17">
    <path d="M 336.268156 185.327267 
Q 331.313749 185.483748 325.956422 185.562898 
Q 320.599096 185.642958 314.764236 185.642958 
Q 297.364117 185.642958 287.201611 185.049787 
Q 277.039106 184.456616 277.039106 183.442221 
Q 277.039106 182.424187 287.201611 181.831926 
Q 297.364117 181.238755 314.764236 181.238755 
Q 320.599096 181.238755 325.956422 181.318815 
Q 331.313749 181.397965 336.268156 181.554446 
L 336.268156 182.432375 
Q 331.26898 182.224947 326.419032 182.128511 
Q 321.569085 182.032075 316.211758 182.032075 
Q 306.601401 182.032075 301.094845 182.407811 
Q 295.603213 182.782637 295.603213 183.442221 
Q 295.603213 184.099076 301.094845 184.474812 
Q 306.601401 184.849637 316.211758 184.849637 
Q 321.569085 184.849637 326.419032 184.753202 
Q 331.26898 184.655856 336.268156 184.448428 
L 336.268156 185.327267 
z
" clip-path="url(#pd6b04de866)" style="fill: #0000ff"/>
   </g>
   <g id="patch_18">
    <path d="M 277.039106 56.021913 
L 336.268156 56.021913 
L 336.268156 80.442686 
L 314.959473 80.442686 
L 314.959473 181.238755 
L 298.389113 181.238755 
L 298.389113 80.442686 
L 277.039106 80.442686 
L 277.039106 56.021913 
z
" clip-path="url(#pd6b04de866)" style="fill: #ff0000"/>
   </g>
   <g id="patch_19">
    <path d="M 398.614525 192.181938 
Q 393.660117 192.210718 388.302791 192.225275 
Q 382.945464 192.24 377.110604 192.24 
Q 359.710485 192.24 349.54798 192.130904 
Q 339.385475 192.021807 339.385475 191.835239 
Q 339.385475 191.648002 349.54798 191.539073 
Q 359.710485 191.429976 377.110604 191.429976 
Q 382.945464 191.429976 388.302791 191.444701 
Q 393.660117 191.459258 398.614525 191.488038 
L 398.614525 191.649508 
Q 393.615349 191.611357 388.765401 191.593621 
Q 383.915454 191.575884 378.558127 191.575884 
Q 368.94777 191.575884 363.441214 191.64499 
Q 357.949581 191.713928 357.949581 191.835239 
Q 357.949581 191.956048 363.441214 192.025154 
Q 368.94777 192.094092 378.558127 192.094092 
Q 383.915454 192.094092 388.765401 192.076355 
Q 393.615349 192.058452 398.614525 192.020301 
L 398.614525 192.181938 
z
" clip-path="url(#pd6b04de866)" style="fill: #0000ff"/>
   </g>
   <g id="patch_20">
    <path d="M 380.41349 191.094991 
L 357.634949 191.094991 
L 354.038337 191.429976 
L 339.385475 191.429976 
L 360.311216 189.591105 
L 377.688784 189.591105 
L 398.614525 191.429976 
L 383.973772 191.429976 
L 380.41349 191.094991 
z
M 361.26789 190.7537 
L 376.74422 190.7537 
L 369.018165 190.02225 
L 361.26789 190.7537 
z
" clip-path="url(#pd6b04de866)" style="fill: #008000"/>
   </g>
   <g id="patch_21">
    <path d="M 398.614525 189.389073 
Q 392.641179 189.490089 386.216512 189.540827 
Q 379.791846 189.591105 372.942409 189.591105 
Q 357.464804 189.591105 348.425139 189.290364 
Q 339.385475 188.989624 339.385475 188.475321 
Q 339.385475 187.955022 348.584429 187.656588 
Q 357.796657 187.358154 373.8185 187.358154 
Q 379.990958 187.358154 385.645726 187.398745 
Q 391.313768 187.438874 396.331379 187.518211 
L 396.331379 187.963325 
Q 391.154479 187.861387 386.030675 187.811109 
Q 380.906871 187.760371 375.756519 187.760371 
Q 366.225712 187.760371 361.062086 187.945797 
Q 355.89846 188.130761 355.89846 188.475321 
Q 355.89846 188.816652 360.876249 189.003 
Q 365.854037 189.188887 375.013169 189.188887 
Q 377.5087 189.188887 379.645831 189.178278 
Q 381.782962 189.167208 383.482047 189.144145 
L 383.482047 188.726246 
L 373.725581 188.726246 
L 373.725581 188.35401 
L 398.614525 188.35401 
L 398.614525 189.389073 
z
" clip-path="url(#pd6b04de866)" style="fill: #ffa600"/>
   </g>
   <g id="patch_22">
    <path d="M 339.385475 29.060335 
L 398.614525 29.060335 
L 398.614525 59.93282 
L 377.305841 59.93282 
L 377.305841 187.358154 
L 360.735481 187.358154 
L 360.735481 59.93282 
L 339.385475 59.93282 
L 339.385475 29.060335 
z
" clip-path="url(#pd6b04de866)" style="fill: #ff0000"/>
   </g>
   <g id="patch_23">
    <path d="M 460.960894 192.175032 
Q 456.006486 192.207235 450.649159 192.223524 
Q 445.291833 192.24 439.456973 192.24 
Q 422.056854 192.24 411.894349 192.117928 
Q 401.731844 191.995857 401.731844 191.7871 
Q 401.731844 191.577594 411.894349 191.455709 
Q 422.056854 191.333638 439.456973 191.333638 
Q 445.291833 191.333638 450.649159 191.350114 
Q 456.006486 191.366402 460.960894 191.398605 
L 460.960894 191.579279 
Q 455.961717 191.536591 451.11177 191.516745 
Q 446.261822 191.496899 440.904496 191.496899 
Q 431.294139 191.496899 425.787583 191.574223 
Q 420.29595 191.651361 420.29595 191.7871 
Q 420.29595 191.922277 425.787583 191.999601 
Q 431.294139 192.076739 440.904496 192.076739 
Q 446.261822 192.076739 451.11177 192.056893 
Q 455.961717 192.03686 460.960894 191.994172 
L 460.960894 192.175032 
z
" clip-path="url(#pd6b04de866)" style="fill: #0000ff"/>
   </g>
   <g id="patch_24">
    <path d="M 442.759859 191.120194 
L 419.981318 191.120194 
L 416.384706 191.333638 
L 401.731844 191.333638 
L 422.657585 190.161958 
L 440.035153 190.161958 
L 460.960894 191.333638 
L 446.320141 191.333638 
L 442.759859 191.120194 
z
M 423.614259 190.902733 
L 439.090588 190.902733 
L 431.364533 190.436673 
L 423.614259 190.902733 
z
" clip-path="url(#pd6b04de866)" style="fill: #008000"/>
   </g>
   <g id="patch_25">
    <path d="M 401.731844 187.730106 
L 460.960894 187.730106 
L 460.960894 188.204385 
L 439.65221 188.204385 
L 439.65221 190.161958 
L 423.08185 190.161958 
L 423.08185 188.204385 
L 401.731844 188.204385 
L 401.731844 187.730106 
z
" clip-path="url(#pd6b04de866)" style="fill: #ff0000"/>
   </g>
   <g id="patch_26">
    <path d="M 460.960894 173.228145 
Q 454.987547 180.479126 448.562881 184.121171 
Q 442.138215 187.730106 435.288777 187.730106 
Q 419.811173 187.730106 410.771508 166.142713 
Q 401.731844 144.555319 401.731844 107.638227 
Q 401.731844 70.290712 410.930797 48.868866 
Q 420.143025 27.44702 436.164868 27.44702 
Q 442.337326 27.44702 447.992095 30.360656 
Q 453.660137 33.241183 458.677748 38.936017 
L 458.677748 70.886683 
Q 453.500848 63.569484 448.377044 59.960549 
Q 443.25324 56.318504 438.102887 56.318504 
Q 428.572081 56.318504 423.408455 69.628522 
Q 418.244828 82.905432 418.244828 107.638227 
Q 418.244828 132.139257 423.222617 145.515495 
Q 428.200406 158.858623 437.359538 158.858623 
Q 439.855069 158.858623 441.9922 158.097104 
Q 444.12933 157.302476 445.828416 155.647001 
L 445.828416 125.649795 
L 436.07195 125.649795 
L 436.07195 98.930429 
L 460.960894 98.930429 
L 460.960894 173.228145 
z
" clip-path="url(#pd6b04de866)" style="fill: #ffa600"/>
   </g>
   <g id="patch_27">
    <path d="M 523.307263 192.147237 
Q 518.352855 192.193218 512.995528 192.216475 
Q 507.638202 192.24 501.803342 192.24 
Q 484.403223 192.24 474.240718 192.065702 
Q 464.078212 191.891404 464.078212 191.593334 
Q 464.078212 191.294194 474.240718 191.120163 
Q 484.403223 190.945865 501.803342 190.945865 
Q 507.638202 190.945865 512.995528 190.96939 
Q 518.352855 190.992648 523.307263 191.038628 
L 523.307263 191.2966 
Q 518.308086 191.235649 513.458139 191.207312 
Q 508.608191 191.178975 503.250865 191.178975 
Q 493.640507 191.178975 488.133952 191.289382 
Q 482.642319 191.399521 482.642319 191.593334 
Q 482.642319 191.786344 488.133952 191.896751 
Q 493.640507 192.00689 503.250865 192.00689 
Q 508.608191 192.00689 513.458139 191.978553 
Q 518.308086 191.949949 523.307263 191.888998 
L 523.307263 192.147237 
z
" clip-path="url(#pd6b04de866)" style="fill: #0000ff"/>
   </g>
   <g id="patch_28">
    <path d="M 464.078212 189.584704 
L 523.307263 189.584704 
L 523.307263 189.850168 
L 501.998579 189.850168 
L 501.998579 190.945865 
L 485.428219 190.945865 
L 485.428219 189.850168 
L 464.078212 189.850168 
L 464.078212 189.584704 
z
" clip-path="url(#pd6b04de866)" style="fill: #ff0000"/>
   </g>
   <g id="patch_29">
    <path d="M 505.106227 189.328623 
L 482.327687 189.328623 
L 478.731075 189.584704 
L 464.078212 189.584704 
L 485.003953 188.178969 
L 502.381522 188.178969 
L 523.307263 189.584704 
L 508.66651 189.584704 
L 505.106227 189.328623 
z
M 485.960628 189.067721 
L 501.436957 189.067721 
L 493.710902 188.50856 
L 485.960628 189.067721 
z
" clip-path="url(#pd6b04de866)" style="fill: #008000"/>
   </g>
   <g id="patch_30">
    <path d="M 523.307263 173.498236 
Q 517.333916 180.838602 510.90925 184.525544 
Q 504.484584 188.178969 497.635146 188.178969 
Q 482.157541 188.178969 473.117877 166.325457 
Q 464.078212 144.471946 464.078212 107.099761 
Q 464.078212 69.291846 473.277166 47.605923 
Q 482.489394 25.92 498.511237 25.92 
Q 504.683695 25.92 510.338463 28.869554 
Q 516.006506 31.78559 521.024117 37.550626 
L 521.024117 69.895164 
Q 515.847216 62.487762 510.723412 58.834337 
Q 505.599608 55.147395 500.449256 55.147395 
Q 490.91845 55.147395 485.754823 68.621493 
Q 480.591197 82.062072 480.591197 107.099761 
Q 480.591197 131.902826 485.568986 145.443958 
Q 490.546775 158.951573 499.705906 158.951573 
Q 502.201438 158.951573 504.338569 158.180667 
Q 506.475699 157.376244 508.174784 155.700361 
L 508.174784 125.333365 
L 498.418318 125.333365 
L 498.418318 98.284617 
L 523.307263 98.284617 
L 523.307263 173.498236 
z
" clip-path="url(#pd6b04de866)" style="fill: #ffa600"/>
   </g>
   <g id="patch_31">
    <path d="M 567.452596 191.793695 
L 544.674055 191.793695 
L 541.077444 192.24 
L 526.424581 192.24 
L 547.350322 189.79005 
L 564.72789 189.79005 
L 585.653631 192.24 
L 571.012879 192.24 
L 567.452596 191.793695 
z
M 548.306996 191.33899 
L 563.783326 191.33899 
L 556.057271 190.36447 
L 548.306996 191.33899 
z
" clip-path="url(#pd6b04de866)" style="fill: #008000"/>
   </g>
   <g id="patch_32">
    <path d="M 585.653631 189.541037 
Q 579.680285 189.665544 573.255619 189.728081 
Q 566.830952 189.79005 559.981515 189.79005 
Q 544.50391 189.79005 535.464246 189.419373 
Q 526.424581 189.048696 526.424581 188.414792 
Q 526.424581 187.773498 535.623535 187.405664 
Q 544.835763 187.037829 560.857606 187.037829 
Q 567.030064 187.037829 572.684832 187.087859 
Q 578.352874 187.137321 583.370485 187.235107 
L 583.370485 187.783732 
Q 578.193585 187.658088 573.069781 187.596119 
Q 567.945977 187.533581 562.795625 187.533581 
Q 553.264818 187.533581 548.101192 187.762128 
Q 542.937566 187.990106 542.937566 188.414792 
Q 542.937566 188.8355 547.915355 189.065183 
Q 552.893144 189.294298 562.052275 189.294298 
Q 564.547807 189.294298 566.684937 189.281222 
Q 568.822068 189.267577 570.521153 189.239151 
L 570.521153 188.724069 
L 560.764687 188.724069 
L 560.764687 188.265271 
L 585.653631 188.265271 
L 585.653631 189.541037 
z
" clip-path="url(#pd6b04de866)" style="fill: #ffa600"/>
   </g>
   <g id="patch_33">
    <path d="M 526.424581 176.872079 
L 585.653631 176.872079 
L 585.653631 178.854683 
L 564.344947 178.854683 
L 564.344947 187.037829 
L 547.774588 187.037829 
L 547.774588 178.854683 
L 526.424581 178.854683 
L 526.424581 176.872079 
z
" clip-path="url(#pd6b04de866)" style="fill: #ff0000"/>
   </g>
   <g id="patch_34">
    <path d="M 585.653631 169.473596 
Q 580.699223 173.140856 575.341897 174.995806 
Q 569.98457 176.872079 564.149711 176.872079 
Q 546.749591 176.872079 536.587086 162.970607 
Q 526.424581 149.069136 526.424581 125.295914 
Q 526.424581 101.437407 536.587086 87.557257 
Q 546.749591 73.655785 564.149711 73.655785 
Q 569.98457 73.655785 575.341897 75.532058 
Q 580.699223 77.387009 585.653631 81.054268 
L 585.653631 101.629298 
Q 580.654455 96.768048 575.804507 94.507993 
Q 570.95456 92.247937 565.597233 92.247937 
Q 555.986876 92.247937 550.48032 101.053624 
Q 544.988687 109.837989 544.988687 125.295914 
Q 544.988687 140.689875 550.48032 149.495561 
Q 555.986876 158.279927 565.597233 158.279927 
Q 570.95456 158.279927 575.804507 156.019872 
Q 580.654455 153.738495 585.653631 148.877244 
L 585.653631 169.473596 
z
" clip-path="url(#pd6b04de866)" style="fill: #0000ff"/>
   </g>
   <g id="patch_35">
    <path d="M 648 192.07526 
Q 642.026653 192.15763 635.601987 192.199003 
Q 629.177321 192.24 622.327884 192.24 
Q 606.850279 192.24 597.810614 191.994771 
Q 588.77095 191.749542 588.77095 191.33017 
Q 588.77095 190.905908 597.969904 190.66256 
Q 607.182131 190.419211 623.203974 190.419211 
Q 629.376433 190.419211 635.031201 190.45231 
Q 640.699243 190.485032 645.716854 190.549724 
L 645.716854 190.912679 
Q 640.539954 190.829556 635.41615 190.78856 
Q 630.292346 190.747187 625.141994 190.747187 
Q 615.611187 190.747187 610.447561 190.898386 
Q 605.283935 191.04921 605.283935 191.33017 
Q 605.283935 191.608497 610.261723 191.760449 
Q 615.239512 191.912025 624.398644 191.912025 
Q 626.894175 191.912025 629.031306 191.903374 
Q 631.168437 191.894347 632.867522 191.875541 
L 632.867522 191.534778 
L 623.111056 191.534778 
L 623.111056 191.231251 
L 648 191.231251 
L 648 192.07526 
z
" clip-path="url(#pd6b04de866)" style="fill: #ffa600"/>
   </g>
   <g id="patch_36">
    <path d="M 629.798965 190.051733 
L 607.020424 190.051733 
L 603.423812 190.419211 
L 588.77095 190.419211 
L 609.696691 188.401971 
L 627.074259 188.401971 
L 648 190.419211 
L 633.359247 190.419211 
L 629.798965 190.051733 
z
M 610.653365 189.677337 
L 626.129694 189.677337 
L 618.40364 188.874938 
L 610.653365 189.677337 
z
" clip-path="url(#pd6b04de866)" style="fill: #008000"/>
   </g>
   <g id="patch_37">
    <path d="M 588.77095 170.875514 
L 648 170.875514 
L 648 174.293662 
L 626.691316 174.293662 
L 626.691316 188.401971 
L 610.120956 188.401971 
L 610.120956 174.293662 
L 588.77095 174.293662 
L 588.77095 170.875514 
z
" clip-path="url(#pd6b04de866)" style="fill: #ff0000"/>
   </g>
   <g id="patch_38">
    <path d="M 648 165.408139 
Q 643.045592 168.118193 637.688266 169.488975 
Q 632.330939 170.875514 626.496079 170.875514 
Q 609.09596 170.875514 598.933455 160.602521 
Q 588.77095 150.329528 588.77095 132.761449 
Q 588.77095 115.130345 598.933455 104.873108 
Q 609.09596 94.600115 626.496079 94.600115 
Q 632.330939 94.600115 637.688266 95.986654 
Q 643.045592 97.357437 648 100.06749 
L 648 115.27215 
Q 643.000823 111.679754 638.150876 110.009605 
Q 633.300929 108.339456 627.943602 108.339456 
Q 618.333245 108.339456 612.826689 114.846735 
Q 607.335056 121.338258 607.335056 132.761449 
Q 607.335056 144.137371 612.826689 150.64465 
Q 618.333245 157.136174 627.943602 157.136174 
Q 633.300929 157.136174 638.150876 155.466024 
Q 643.000823 153.780119 648 150.187723 
L 648 165.408139 
z
" clip-path="url(#pd6b04de866)" style="fill: #0000ff"/>
   </g>
   <g id="matplotlib.axis_1">
    <g id="xtick_1">
     <g id="line2d_2">
      <defs>
       <path id="m86a22c184a" d="M 0 0 
L 0 3.5 
" style="stroke: #000000; stroke-width: 0.8"/>
      </defs>
      <g>
       <use xlink:href="#m86a22c184a" x="119.614525" y="192.24" style="stroke: #000000; stroke-width: 0.8"/>
      </g>
     </g>
     <g id="text_1">
      <!-- 0 -->
      <g transform="translate(116.433275 206.838437) scale(0.1 -0.1)">
       <defs>
        <path id="DejaVuSans-30" d="M 2034 4250 
Q 1547 4250 1301 3770 
Q 1056 3291 1056 2328 
Q 1056 1369 1301 889 
Q 1547 409 2034 409 
Q 2525 409 2770 889 
Q 3016 1369 3016 2328 
Q 3016 3291 2770 3770 
Q 2525 4250 2034 4250 
z
M 2034 4750 
Q 2819 4750 3233 4129 
Q 3647 3509 3647 2328 
Q 3647 1150 3233 529 
Q 2819 -91 2034 -91 
Q 1250 -91 836 529 
Q 422 1150 422 2328 
Q 422 3509 836 4129 
Q 1250 4750 2034 4750 
z
" transform="scale(0.015625)"/>
       </defs>
       <use xlink:href="#DejaVuSans-30"/>
      </g>
     </g>
    </g>
    <g id="xtick_2">
     <g id="line2d_3">
      <g>
       <use xlink:href="#m86a22c184a" x="181.960894" y="192.24" style="stroke: #000000; stroke-width: 0.8"/>
      </g>
     </g>
     <g id="text_2">
      <!-- 1 -->
      <g transform="translate(178.779644 206.838437) scale(0.1 -0.1)">
       <defs>
        <path id="DejaVuSans-31" d="M 794 531 
L 1825 531 
L 1825 4091 
L 703 3866 
L 703 4441 
L 1819 4666 
L 2450 4666 
L 2450 531 
L 3481 531 
L 3481 0 
L 794 0 
L 794 531 
z
" transform="scale(0.015625)"/>
       </defs>
       <use xlink:href="#DejaVuSans-31"/>
      </g>
     </g>
    </g>
    <g id="xtick_3">
     <g id="line2d_4">
      <g>
       <use xlink:href="#m86a22c184a" x="244.307263" y="192.24" style="stroke: #000000; stroke-width: 0.8"/>
      </g>
     </g>
     <g id="text_3">
      <!-- 2 -->
      <g transform="translate(241.126013 206.838437) scale(0.1 -0.1)">
       <defs>
        <path id="DejaVuSans-32" d="M 1228 531 
L 3431 531 
L 3431 0 
L 469 0 
L 469 531 
Q 828 903 1448 1529 
Q 2069 2156 2228 2338 
Q 2531 2678 2651 2914 
Q 2772 3150 2772 3378 
Q 2772 3750 2511 3984 
Q 2250 4219 1831 4219 
Q 1534 4219 1204 4116 
Q 875 4013 500 3803 
L 500 4441 
Q 881 4594 1212 4672 
Q 1544 4750 1819 4750 
Q 2544 4750 2975 4387 
Q 3406 4025 3406 3419 
Q 3406 3131 3298 2873 
Q 3191 2616 2906 2266 
Q 2828 2175 2409 1742 
Q 1991 1309 1228 531 
z
" transform="scale(0.015625)"/>
       </defs>
       <use xlink:href="#DejaVuSans-32"/>
      </g>
     </g>
    </g>
    <g id="xtick_4">
     <g id="line2d_5">
      <g>
       <use xlink:href="#m86a22c184a" x="306.653631" y="192.24" style="stroke: #000000; stroke-width: 0.8"/>
      </g>
     </g>
     <g id="text_4">
      <!-- 3 -->
      <g transform="translate(303.472381 206.838437) scale(0.1 -0.1)">
       <defs>
        <path id="DejaVuSans-33" d="M 2597 2516 
Q 3050 2419 3304 2112 
Q 3559 1806 3559 1356 
Q 3559 666 3084 287 
Q 2609 -91 1734 -91 
Q 1441 -91 1130 -33 
Q 819 25 488 141 
L 488 750 
Q 750 597 1062 519 
Q 1375 441 1716 441 
Q 2309 441 2620 675 
Q 2931 909 2931 1356 
Q 2931 1769 2642 2001 
Q 2353 2234 1838 2234 
L 1294 2234 
L 1294 2753 
L 1863 2753 
Q 2328 2753 2575 2939 
Q 2822 3125 2822 3475 
Q 2822 3834 2567 4026 
Q 2313 4219 1838 4219 
Q 1578 4219 1281 4162 
Q 984 4106 628 3988 
L 628 4550 
Q 988 4650 1302 4700 
Q 1616 4750 1894 4750 
Q 2613 4750 3031 4423 
Q 3450 4097 3450 3541 
Q 3450 3153 3228 2886 
Q 3006 2619 2597 2516 
z
" transform="scale(0.015625)"/>
       </defs>
       <use xlink:href="#DejaVuSans-33"/>
      </g>
     </g>
    </g>
    <g id="xtick_5">
     <g id="line2d_6">
      <g>
       <use xlink:href="#m86a22c184a" x="369" y="192.24" style="stroke: #000000; stroke-width: 0.8"/>
      </g>
     </g>
     <g id="text_5">
      <!-- 4 -->
      <g transform="translate(365.81875 206.838437) scale(0.1 -0.1)">
       <defs>
        <path id="DejaVuSans-34" d="M 2419 4116 
L 825 1625 
L 2419 1625 
L 2419 4116 
z
M 2253 4666 
L 3047 4666 
L 3047 1625 
L 3713 1625 
L 3713 1100 
L 3047 1100 
L 3047 0 
L 2419 0 
L 2419 1100 
L 313 1100 
L 313 1709 
L 2253 4666 
z
" transform="scale(0.015625)"/>
       </defs>
       <use xlink:href="#DejaVuSans-34"/>
      </g>
     </g>
    </g>
    <g id="xtick_6">
     <g id="line2d_7">
      <g>
       <use xlink:href="#m86a22c184a" x="431.346369" y="192.24" style="stroke: #000000; stroke-width: 0.8"/>
      </g>
     </g>
     <g id="text_6">
      <!-- 5 -->
      <g transform="translate(428.165119 206.838437) scale(0.1 -0.1)">
       <defs>
        <path id="DejaVuSans-35" d="M 691 4666 
L 3169 4666 
L 3169 4134 
L 1269 4134 
L 1269 2991 
Q 1406 3038 1543 3061 
Q 1681 3084 1819 3084 
Q 2600 3084 3056 2656 
Q 3513 2228 3513 1497 
Q 3513 744 3044 326 
Q 2575 -91 1722 -91 
Q 1428 -91 1123 -41 
Q 819 9 494 109 
L 494 744 
Q 775 591 1075 516 
Q 1375 441 1709 441 
Q 2250 441 2565 725 
Q 2881 1009 2881 1497 
Q 2881 1984 2565 2268 
Q 2250 2553 1709 2553 
Q 1456 2553 1204 2497 
Q 953 2441 691 2322 
L 691 4666 
z
" transform="scale(0.015625)"/>
       </defs>
       <use xlink:href="#DejaVuSans-35"/>
      </g>
     </g>
    </g>
    <g id="xtick_7">
     <g id="line2d_8">
      <g>
       <use xlink:href="#m86a22c184a" x="493.692737" y="192.24" style="stroke: #000000; stroke-width: 0.8"/>
      </g>
     </g>
     <g id="text_7">
      <!-- 6 -->
      <g transform="translate(490.511487 206.838437) scale(0.1 -0.1)">
       <defs>
        <path id="DejaVuSans-36" d="M 2113 2584 
Q 1688 2584 1439 2293 
Q 1191 2003 1191 1497 
Q 1191 994 1439 701 
Q 1688 409 2113 409 
Q 2538 409 2786 701 
Q 3034 994 3034 1497 
Q 3034 2003 2786 2293 
Q 2538 2584 2113 2584 
z
M 3366 4563 
L 3366 3988 
Q 3128 4100 2886 4159 
Q 2644 4219 2406 4219 
Q 1781 4219 1451 3797 
Q 1122 3375 1075 2522 
Q 1259 2794 1537 2939 
Q 1816 3084 2150 3084 
Q 2853 3084 3261 2657 
Q 3669 2231 3669 1497 
Q 3669 778 3244 343 
Q 2819 -91 2113 -91 
Q 1303 -91 875 529 
Q 447 1150 447 2328 
Q 447 3434 972 4092 
Q 1497 4750 2381 4750 
Q 2619 4750 2861 4703 
Q 3103 4656 3366 4563 
z
" transform="scale(0.015625)"/>
       </defs>
       <use xlink:href="#DejaVuSans-36"/>
      </g>
     </g>
    </g>
    <g id="xtick_8">
     <g id="line2d_9">
      <g>
       <use xlink:href="#m86a22c184a" x="556.039106" y="192.24" style="stroke: #000000; stroke-width: 0.8"/>
      </g>
     </g>
     <g id="text_8">
      <!-- 7 -->
      <g transform="translate(552.857856 206.838437) scale(0.1 -0.1)">
       <defs>
        <path id="DejaVuSans-37" d="M 525 4666 
L 3525 4666 
L 3525 4397 
L 1831 0 
L 1172 0 
L 2766 4134 
L 525 4134 
L 525 4666 
z
" transform="scale(0.015625)"/>
       </defs>
       <use xlink:href="#DejaVuSans-37"/>
      </g>
     </g>
    </g>
    <g id="xtick_9">
     <g id="line2d_10">
      <g>
       <use xlink:href="#m86a22c184a" x="618.385475" y="192.24" style="stroke: #000000; stroke-width: 0.8"/>
      </g>
     </g>
     <g id="text_9">
      <!-- 8 -->
      <g transform="translate(615.204225 206.838437) scale(0.1 -0.1)">
       <defs>
        <path id="DejaVuSans-38" d="M 2034 2216 
Q 1584 2216 1326 1975 
Q 1069 1734 1069 1313 
Q 1069 891 1326 650 
Q 1584 409 2034 409 
Q 2484 409 2743 651 
Q 3003 894 3003 1313 
Q 3003 1734 2745 1975 
Q 2488 2216 2034 2216 
z
M 1403 2484 
Q 997 2584 770 2862 
Q 544 3141 544 3541 
Q 544 4100 942 4425 
Q 1341 4750 2034 4750 
Q 2731 4750 3128 4425 
Q 3525 4100 3525 3541 
Q 3525 3141 3298 2862 
Q 3072 2584 2669 2484 
Q 3125 2378 3379 2068 
Q 3634 1759 3634 1313 
Q 3634 634 3220 271 
Q 2806 -91 2034 -91 
Q 1263 -91 848 271 
Q 434 634 434 1313 
Q 434 1759 690 2068 
Q 947 2378 1403 2484 
z
M 1172 3481 
Q 1172 3119 1398 2916 
Q 1625 2713 2034 2713 
Q 2441 2713 2670 2916 
Q 2900 3119 2900 3481 
Q 2900 3844 2670 4047 
Q 2441 4250 2034 4250 
Q 1625 4250 1398 4047 
Q 1172 3844 1172 3481 
z
" transform="scale(0.015625)"/>
       </defs>
       <use xlink:href="#DejaVuSans-38"/>
      </g>
     </g>
    </g>
   </g>
   <g id="matplotlib.axis_2">
    <g id="ytick_1">
     <g id="line2d_11">
      <defs>
       <path id="m693ec001f1" d="M 0 0 
L -3.5 0 
" style="stroke: #000000; stroke-width: 0.8"/>
      </defs>
      <g>
       <use xlink:href="#m693ec001f1" x="90" y="192.24" style="stroke: #000000; stroke-width: 0.8"/>
      </g>
     </g>
     <g id="text_10">
      <!-- 0.00 -->
      <g transform="translate(60.734375 196.039219) scale(0.1 -0.1)">
       <defs>
        <path id="DejaVuSans-2e" d="M 684 794 
L 1344 794 
L 1344 0 
L 684 0 
L 684 794 
z
" transform="scale(0.015625)"/>
       </defs>
       <use xlink:href="#DejaVuSans-30"/>
       <use xlink:href="#DejaVuSans-2e" x="63.623047"/>
       <use xlink:href="#DejaVuSans-30" x="95.410156"/>
       <use xlink:href="#DejaVuSans-30" x="159.033203"/>
      </g>
     </g>
    </g>
    <g id="ytick_2">
     <g id="line2d_12">
      <g>
       <use xlink:href="#m693ec001f1" x="90" y="169.082346" style="stroke: #000000; stroke-width: 0.8"/>
      </g>
     </g>
     <g id="text_11">
      <!-- 0.25 -->
      <g transform="translate(60.734375 172.881564) scale(0.1 -0.1)">
       <use xlink:href="#DejaVuSans-30"/>
       <use xlink:href="#DejaVuSans-2e" x="63.623047"/>
       <use xlink:href="#DejaVuSans-32" x="95.410156"/>
       <use xlink:href="#DejaVuSans-35" x="159.033203"/>
      </g>
     </g>
    </g>
    <g id="ytick_3">
     <g id="line2d_13">
      <g>
       <use xlink:href="#m693ec001f1" x="90" y="145.924691" style="stroke: #000000; stroke-width: 0.8"/>
      </g>
     </g>
     <g id="text_12">
      <!-- 0.50 -->
      <g transform="translate(60.734375 149.72391) scale(0.1 -0.1)">
       <use xlink:href="#DejaVuSans-30"/>
       <use xlink:href="#DejaVuSans-2e" x="63.623047"/>
       <use xlink:href="#DejaVuSans-35" x="95.410156"/>
       <use xlink:href="#DejaVuSans-30" x="159.033203"/>
      </g>
     </g>
    </g>
    <g id="ytick_4">
     <g id="line2d_14">
      <g>
       <use xlink:href="#m693ec001f1" x="90" y="122.767037" style="stroke: #000000; stroke-width: 0.8"/>
      </g>
     </g>
     <g id="text_13">
      <!-- 0.75 -->
      <g transform="translate(60.734375 126.566256) scale(0.1 -0.1)">
       <use xlink:href="#DejaVuSans-30"/>
       <use xlink:href="#DejaVuSans-2e" x="63.623047"/>
       <use xlink:href="#DejaVuSans-37" x="95.410156"/>
       <use xlink:href="#DejaVuSans-35" x="159.033203"/>
      </g>
     </g>
    </g>
    <g id="ytick_5">
     <g id="line2d_15">
      <g>
       <use xlink:href="#m693ec001f1" x="90" y="99.609382" style="stroke: #000000; stroke-width: 0.8"/>
      </g>
     </g>
     <g id="text_14">
      <!-- 1.00 -->
      <g transform="translate(60.734375 103.408601) scale(0.1 -0.1)">
       <use xlink:href="#DejaVuSans-31"/>
       <use xlink:href="#DejaVuSans-2e" x="63.623047"/>
       <use xlink:href="#DejaVuSans-30" x="95.410156"/>
       <use xlink:href="#DejaVuSans-30" x="159.033203"/>
      </g>
     </g>
    </g>
    <g id="ytick_6">
     <g id="line2d_16">
      <g>
       <use xlink:href="#m693ec001f1" x="90" y="76.451728" style="stroke: #000000; stroke-width: 0.8"/>
      </g>
     </g>
     <g id="text_15">
      <!-- 1.25 -->
      <g transform="translate(60.734375 80.250947) scale(0.1 -0.1)">
       <use xlink:href="#DejaVuSans-31"/>
       <use xlink:href="#DejaVuSans-2e" x="63.623047"/>
       <use xlink:href="#DejaVuSans-32" x="95.410156"/>
       <use xlink:href="#DejaVuSans-35" x="159.033203"/>
      </g>
     </g>
    </g>
    <g id="ytick_7">
     <g id="line2d_17">
      <g>
       <use xlink:href="#m693ec001f1" x="90" y="53.294074" style="stroke: #000000; stroke-width: 0.8"/>
      </g>
     </g>
     <g id="text_16">
      <!-- 1.50 -->
      <g transform="translate(60.734375 57.093292) scale(0.1 -0.1)">
       <use xlink:href="#DejaVuSans-31"/>
       <use xlink:href="#DejaVuSans-2e" x="63.623047"/>
       <use xlink:href="#DejaVuSans-35" x="95.410156"/>
       <use xlink:href="#DejaVuSans-30" x="159.033203"/>
      </g>
     </g>
    </g>
    <g id="ytick_8">
     <g id="line2d_18">
      <g>
       <use xlink:href="#m693ec001f1" x="90" y="30.136419" style="stroke: #000000; stroke-width: 0.8"/>
      </g>
     </g>
     <g id="text_17">
      <!-- 1.75 -->
      <g transform="translate(60.734375 33.935638) scale(0.1 -0.1)">
       <use xlink:href="#DejaVuSans-31"/>
       <use xlink:href="#DejaVuSans-2e" x="63.623047"/>
       <use xlink:href="#DejaVuSans-37" x="95.410156"/>
       <use xlink:href="#DejaVuSans-35" x="159.033203"/>
      </g>
     </g>
    </g>
   </g>
  </g>
 </g>
 <defs>
  <clipPath id="pd6b04de866">
   <rect x="90" y="25.92" width="558" height="166.32"/>
  </clipPath>
 </defs>
</svg>
