<?xml version="1.0" encoding="utf-8" standalone="no"?>
<!DOCTYPE svg PUBLIC "-//W3C//DTD SVG 1.1//EN"
  "http://www.w3.org/Graphics/SVG/1.1/DTD/svg11.dtd">
<svg xmlns:xlink="http://www.w3.org/1999/xlink" width="720pt" height="216pt" viewBox="0 0 720 216" xmlns="http://www.w3.org/2000/svg" version="1.1">
 <metadata>
  <rdf:RDF xmlns:dc="http://purl.org/dc/elements/1.1/" xmlns:cc="http://creativecommons.org/ns#" xmlns:rdf="http://www.w3.org/1999/02/22-rdf-syntax-ns#">
   <cc:Work>
    <dc:type rdf:resource="http://purl.org/dc/dcmitype/StillImage"/>
    <dc:date>2024-11-23T05:04:01.706127</dc:date>
    <dc:format>image/svg+xml</dc:format>
    <dc:creator>
     <cc:Agent>
      <dc:title>Matplotlib v3.7.2, https://matplotlib.org/</dc:title>
     </cc:Agent>
    </dc:creator>
   </cc:Work>
  </rdf:RDF>
 </metadata>
 <defs>
  <style type="text/css">*{stroke-linejoin: round; stroke-linecap: butt}</style>
 </defs>
 <g id="figure_1">
  <g id="patch_1">
   <path d="M 0 216 
L 720 216 
L 720 0 
L 0 0 
z
" style="fill: #ffffff"/>
  </g>
  <g id="axes_1">
   <g id="patch_2">
    <path d="M 90 192.24 
L 648 192.24 
L 648 25.92 
L 90 25.92 
z
" style="fill: #ffffff"/>
   </g>
   <g id="line2d_1">
    <path d="M 90 192.24 
L 648 192.24 
" clip-path="url(#p00017fe434)" style="fill: none; stroke: #000000; stroke-width: 0.5; stroke-linecap: square"/>
   </g>
   <g id="patch_3">
    <path d="M 90 189.234981 
L 143.276382 189.234981 
L 143.276382 189.821043 
L 124.109274 189.821043 
L 124.109274 192.24 
L 109.204277 192.24 
L 109.204277 189.821043 
L 90 189.821043 
L 90 189.234981 
z
" clip-path="url(#p00017fe434)" style="fill: #ff0000"/>
   </g>
   <g id="patch_4">
    <path d="M 143.276382 188.644816 
Q 138.819905 188.937347 134.001003 189.085314 
Q 129.182101 189.234981 123.933659 189.234981 
Q 108.282296 189.234981 99.141148 188.126083 
Q 90 187.017185 90 185.120834 
Q 90 183.217679 99.141148 182.110482 
Q 108.282296 181.001584 123.933659 181.001584 
Q 129.182101 181.001584 134.001003 181.151251 
Q 138.819905 181.299217 143.276382 181.591749 
L 143.276382 183.232986 
Q 138.779635 182.845212 134.41712 182.664931 
Q 130.054604 182.48465 125.235702 182.48465 
Q 116.59121 182.48465 111.638077 183.187065 
Q 106.698367 183.88778 106.698367 185.120834 
Q 106.698367 186.348785 111.638077 187.0512 
Q 116.59121 187.751915 125.235702 187.751915 
Q 130.054604 187.751915 134.41712 187.571634 
Q 138.779635 187.389652 143.276382 187.001878 
L 143.276382 188.644816 
z
" clip-path="url(#p00017fe434)" style="fill: #0000ff"/>
   </g>
   <g id="patch_5">
    <path d="M 126.904597 178.961935 
L 106.415356 178.961935 
L 103.180213 181.001584 
L 90 181.001584 
L 108.822651 169.805114 
L 124.453731 169.805114 
L 143.276382 181.001584 
L 130.107062 181.001584 
L 126.904597 178.961935 
z
M 109.683178 176.883894 
L 123.604097 176.883894 
L 116.65453 172.430261 
L 109.683178 176.883894 
z
" clip-path="url(#p00017fe434)" style="fill: #008000"/>
   </g>
   <g id="patch_6">
    <path d="M 143.276382 165.960035 
Q 137.903372 167.882574 132.124401 168.848233 
Q 126.34543 169.805114 120.184378 169.805114 
Q 106.262311 169.805114 98.131156 164.081389 
Q 90 158.357663 90 148.569391 
Q 90 138.666995 98.274436 132.987164 
Q 106.560812 127.307332 120.972419 127.307332 
Q 126.52453 127.307332 131.61098 128.079859 
Q 136.709369 128.843608 141.222698 130.353548 
L 141.222698 138.825012 
Q 136.566089 136.884915 131.95724 135.928035 
Q 127.348391 134.962376 122.715663 134.962376 
Q 114.142726 134.962376 109.498057 138.491421 
Q 104.853388 142.011687 104.853388 148.569391 
Q 104.853388 155.065644 109.330897 158.612246 
Q 113.808406 162.15007 122.047021 162.15007 
Q 124.291746 162.15007 126.214089 161.94816 
Q 128.136433 161.737471 129.664756 161.298535 
L 129.664756 153.345015 
L 120.888839 153.345015 
L 120.888839 146.260588 
L 143.276382 146.260588 
L 143.276382 165.960035 
z
" clip-path="url(#p00017fe434)" style="fill: #ffa600"/>
   </g>
   <g id="patch_7">
    <path d="M 199.356784 191.83363 
Q 193.983774 192.036815 188.204803 192.138871 
Q 182.425832 192.24 176.26478 192.24 
Q 162.342713 192.24 154.211558 191.635084 
Q 146.080402 191.030168 146.080402 189.995688 
Q 146.080402 188.949146 154.354838 188.348869 
Q 162.641214 187.748592 177.052821 187.748592 
Q 182.604932 187.748592 187.691382 187.830237 
Q 192.789771 187.910954 197.3031 188.070533 
L 197.3031 188.965846 
Q 192.646491 188.760806 188.037642 188.659677 
Q 183.428793 188.557621 178.796065 188.557621 
Q 170.223128 188.557621 165.578459 188.93059 
Q 160.93379 189.302632 160.93379 189.995688 
Q 160.93379 190.682249 165.411299 191.057074 
Q 169.888808 191.430971 178.127423 191.430971 
Q 180.372148 191.430971 182.294491 191.409632 
Q 184.216835 191.387365 185.745158 191.340976 
L 185.745158 190.500403 
L 176.969241 190.500403 
L 176.969241 189.75168 
L 199.356784 189.75168 
L 199.356784 191.83363 
z
" clip-path="url(#p00017fe434)" style="fill: #ffa600"/>
   </g>
   <g id="patch_8">
    <path d="M 182.984999 186.844718 
L 162.495758 186.844718 
L 159.260615 187.748592 
L 146.080402 187.748592 
L 164.903053 182.786854 
L 180.534133 182.786854 
L 199.356784 187.748592 
L 186.187464 187.748592 
L 182.984999 186.844718 
z
M 165.76358 185.923829 
L 179.684499 185.923829 
L 172.734932 183.950193 
L 165.76358 185.923829 
z
" clip-path="url(#p00017fe434)" style="fill: #008000"/>
   </g>
   <g id="patch_9">
    <path d="M 199.356784 182.322401 
Q 194.900307 182.55262 190.081405 182.669068 
Q 185.262503 182.786854 180.014061 182.786854 
Q 164.362698 182.786854 155.22155 181.914165 
Q 146.080402 181.041477 146.080402 179.549072 
Q 146.080402 178.051313 155.22155 177.179963 
Q 164.362698 176.307274 180.014061 176.307274 
Q 185.262503 176.307274 190.081405 176.425061 
Q 194.900307 176.541508 199.356784 176.771727 
L 199.356784 178.06336 
Q 194.860037 177.758186 190.497522 177.616307 
Q 186.135006 177.474429 181.316104 177.474429 
Q 172.671612 177.474429 167.718479 178.027221 
Q 162.778769 178.578674 162.778769 179.549072 
Q 162.778769 180.515454 167.718479 181.068246 
Q 172.671612 181.6197 181.316104 181.6197 
Q 186.135006 181.6197 190.497522 181.477821 
Q 194.860037 181.334604 199.356784 181.02943 
L 199.356784 182.322401 
z
" clip-path="url(#p00017fe434)" style="fill: #0000ff"/>
   </g>
   <g id="patch_10">
    <path d="M 146.080402 41.105733 
L 199.356784 41.105733 
L 199.356784 67.473801 
L 180.189676 67.473801 
L 180.189676 176.307274 
L 165.284679 176.307274 
L 165.284679 67.473801 
L 146.080402 67.473801 
L 146.080402 41.105733 
z
" clip-path="url(#p00017fe434)" style="fill: #ff0000"/>
   </g>
   <g id="patch_11">
    <path d="M 239.065401 191.581726 
L 218.57616 191.581726 
L 215.341017 192.24 
L 202.160804 192.24 
L 220.983455 188.626466 
L 236.614535 188.626466 
L 255.437186 192.24 
L 242.267866 192.24 
L 239.065401 191.581726 
z
M 221.843982 190.911062 
L 235.764901 190.911062 
L 228.815334 189.473702 
L 221.843982 190.911062 
z
" clip-path="url(#p00017fe434)" style="fill: #008000"/>
   </g>
   <g id="patch_12">
    <path d="M 202.160804 183.031293 
L 255.437186 183.031293 
L 255.437186 184.122507 
L 236.270078 184.122507 
L 236.270078 188.626466 
L 221.365081 188.626466 
L 221.365081 184.122507 
L 202.160804 184.122507 
L 202.160804 183.031293 
z
" clip-path="url(#p00017fe434)" style="fill: #ff0000"/>
   </g>
   <g id="patch_13">
    <path d="M 255.437186 182.411805 
Q 250.980709 182.718871 246.161807 182.874189 
Q 241.342905 183.031293 236.094463 183.031293 
Q 220.4431 183.031293 211.301952 181.867298 
Q 202.160804 180.703303 202.160804 178.712729 
Q 202.160804 176.715013 211.301952 175.552804 
Q 220.4431 174.388809 236.094463 174.388809 
Q 241.342905 174.388809 246.161807 174.545912 
Q 250.980709 174.701231 255.437186 175.008297 
L 255.437186 176.731081 
Q 250.940439 176.324039 246.577924 176.134801 
Q 242.215408 175.945563 237.396506 175.945563 
Q 228.752014 175.945563 223.798881 176.682878 
Q 218.859171 177.418409 218.859171 178.712729 
Q 218.859171 180.001692 223.798881 180.739008 
Q 228.752014 181.474539 237.396506 181.474539 
Q 242.215408 181.474539 246.577924 181.2853 
Q 250.940439 181.094277 255.437186 180.687235 
L 255.437186 182.411805 
z
" clip-path="url(#p00017fe434)" style="fill: #0000ff"/>
   </g>
   <g id="patch_14">
    <path d="M 255.437186 163.177131 
Q 250.064176 168.78297 244.285205 171.598688 
Q 238.506234 174.388809 232.345182 174.388809 
Q 218.423115 174.388809 210.29196 157.69928 
Q 202.160804 141.009751 202.160804 112.468608 
Q 202.160804 83.594699 210.43524 67.033157 
Q 218.721616 50.471616 233.133223 50.471616 
Q 238.685334 50.471616 243.771784 52.72419 
Q 248.870173 54.951167 253.383502 59.353926 
L 253.383502 84.055453 
Q 248.726893 78.398419 244.118044 75.608299 
Q 239.509195 72.792581 234.876467 72.792581 
Q 226.30353 72.792581 221.658861 83.08275 
Q 217.014192 93.347323 217.014192 112.468608 
Q 217.014192 131.410712 221.491701 141.752076 
Q 225.96921 152.067843 234.207825 152.067843 
Q 236.45255 152.067843 238.374893 151.479102 
Q 240.297237 150.864764 241.82556 149.584892 
L 241.82556 126.393614 
L 233.049643 126.393614 
L 233.049643 105.736482 
L 255.437186 105.736482 
L 255.437186 163.177131 
z
" clip-path="url(#p00017fe434)" style="fill: #ffa600"/>
   </g>
   <g id="patch_15">
    <path d="M 311.517588 192.020843 
Q 307.061111 192.129474 302.242209 192.184421 
Q 297.423307 192.24 292.174865 192.24 
Q 276.523502 192.24 267.382354 191.828213 
Q 258.241206 191.416425 258.241206 190.712219 
Q 258.241206 190.005486 267.382354 189.59433 
Q 276.523502 189.182542 292.174865 189.182542 
Q 297.423307 189.182542 302.242209 189.238121 
Q 307.061111 189.293068 311.517588 189.401699 
L 311.517588 190.01117 
Q 307.020841 189.86717 302.658326 189.800223 
Q 298.29581 189.733276 293.476908 189.733276 
Q 284.832416 189.733276 279.879283 189.994117 
Q 274.939573 190.254326 274.939573 190.712219 
Q 274.939573 191.168216 279.879283 191.429057 
Q 284.832416 191.689266 293.476908 191.689266 
Q 298.29581 191.689266 302.658326 191.622319 
Q 307.020841 191.55474 311.517588 191.410741 
L 311.517588 192.020843 
z
" clip-path="url(#p00017fe434)" style="fill: #0000ff"/>
   </g>
   <g id="patch_16">
    <path d="M 258.241206 185.265544 
L 311.517588 185.265544 
L 311.517588 186.029468 
L 292.35048 186.029468 
L 292.35048 189.182542 
L 277.445483 189.182542 
L 277.445483 186.029468 
L 258.241206 186.029468 
L 258.241206 185.265544 
z
" clip-path="url(#p00017fe434)" style="fill: #ff0000"/>
   </g>
   <g id="patch_17">
    <path d="M 311.517588 184.718484 
Q 306.144578 184.992014 300.365607 185.129403 
Q 294.586636 185.265544 288.425584 185.265544 
Q 274.503517 185.265544 266.372362 184.451198 
Q 258.241206 183.636853 258.241206 182.244222 
Q 258.241206 180.835354 266.515642 180.027253 
Q 274.802018 179.219153 289.213625 179.219153 
Q 294.765736 179.219153 299.852186 179.329065 
Q 304.950575 179.437727 309.463904 179.652555 
L 309.463904 180.857836 
Q 304.807295 180.581808 300.198446 180.445667 
Q 295.589597 180.308278 290.956869 180.308278 
Q 282.383932 180.308278 277.739263 180.810374 
Q 273.094594 181.311222 273.094594 182.244222 
Q 273.094594 183.168479 277.572103 183.673074 
Q 282.049612 184.176419 290.288227 184.176419 
Q 292.532952 184.176419 294.455295 184.147692 
Q 296.377639 184.117716 297.905962 184.055267 
L 297.905962 182.923676 
L 289.130045 182.923676 
L 289.130045 181.915736 
L 311.517588 181.915736 
L 311.517588 184.718484 
z
" clip-path="url(#p00017fe434)" style="fill: #ffa600"/>
   </g>
   <g id="patch_18">
    <path d="M 295.145803 151.292818 
L 274.656562 151.292818 
L 271.421419 179.219153 
L 258.241206 179.219153 
L 277.063857 25.92 
L 292.694937 25.92 
L 311.517588 179.219153 
L 298.348268 179.219153 
L 295.145803 151.292818 
z
M 277.924384 122.84081 
L 291.845303 122.84081 
L 284.895736 61.862836 
L 277.924384 122.84081 
z
" clip-path="url(#p00017fe434)" style="fill: #008000"/>
   </g>
   <g id="patch_19">
    <path d="M 351.226205 191.573975 
L 330.736964 191.573975 
L 327.501821 192.24 
L 314.321608 192.24 
L 333.144259 188.583915 
L 348.775339 188.583915 
L 367.59799 192.24 
L 354.42867 192.24 
L 351.226205 191.573975 
z
M 334.004786 190.895413 
L 347.925705 190.895413 
L 340.976138 189.441128 
L 334.004786 190.895413 
z
" clip-path="url(#p00017fe434)" style="fill: #008000"/>
   </g>
   <g id="patch_20">
    <path d="M 367.59799 188.009996 
Q 362.22498 188.296955 356.446009 188.44109 
Q 350.667038 188.583915 344.505986 188.583915 
Q 330.583919 188.583915 322.452764 187.729588 
Q 314.321608 186.875262 314.321608 185.414259 
Q 314.321608 183.936222 322.596044 183.088447 
Q 330.88242 182.240672 345.294027 182.240672 
Q 350.846138 182.240672 355.932588 182.35598 
Q 361.030977 182.469977 365.544306 182.695352 
L 365.544306 183.959807 
Q 360.887697 183.670227 356.278848 183.527403 
Q 351.669999 183.383268 347.037271 183.383268 
Q 338.464334 183.383268 333.819665 183.910015 
Q 329.174996 184.435452 329.174996 185.414259 
Q 329.174996 186.383893 333.652505 186.913261 
Q 338.130014 187.441319 346.368629 187.441319 
Q 348.613354 187.441319 350.535697 187.411181 
Q 352.458041 187.379734 353.986364 187.314218 
L 353.986364 186.127071 
L 345.210447 186.127071 
L 345.210447 185.069646 
L 367.59799 185.069646 
L 367.59799 188.009996 
z
" clip-path="url(#p00017fe434)" style="fill: #ffa600"/>
   </g>
   <g id="patch_21">
    <path d="M 314.321608 171.053393 
L 367.59799 171.053393 
L 367.59799 173.235224 
L 348.430882 173.235224 
L 348.430882 182.240672 
L 333.525885 182.240672 
L 333.525885 173.235224 
L 314.321608 173.235224 
L 314.321608 171.053393 
z
" clip-path="url(#p00017fe434)" style="fill: #ff0000"/>
   </g>
   <g id="patch_22">
    <path d="M 367.59799 163.941223 
Q 363.141513 167.466564 358.322611 169.24973 
Q 353.503709 171.053393 348.255267 171.053393 
Q 332.603904 171.053393 323.462756 157.689892 
Q 314.321608 144.326391 314.321608 121.473165 
Q 314.321608 98.537955 323.462756 85.19495 
Q 332.603904 71.831449 348.255267 71.831449 
Q 353.503709 71.831449 358.322611 73.635112 
Q 363.141513 75.418279 367.59799 78.943619 
L 367.59799 98.72242 
Q 363.101243 94.049294 358.738728 91.876701 
Q 354.376212 89.704107 349.55731 89.704107 
Q 340.912818 89.704107 335.959685 98.169024 
Q 331.019975 106.613444 331.019975 121.473165 
Q 331.019975 136.271398 335.959685 144.736315 
Q 340.912818 153.180736 349.55731 153.180736 
Q 354.376212 153.180736 358.738728 151.008142 
Q 363.101243 148.815052 367.59799 144.141926 
L 367.59799 163.941223 
z
" clip-path="url(#p00017fe434)" style="fill: #0000ff"/>
   </g>
   <g id="patch_23">
    <path d="M 370.40201 188.581047 
L 423.678392 188.581047 
L 423.678392 189.294645 
L 404.511284 189.294645 
L 404.511284 192.24 
L 389.606287 192.24 
L 389.606287 189.294645 
L 370.40201 189.294645 
L 370.40201 188.581047 
z
" clip-path="url(#p00017fe434)" style="fill: #ff0000"/>
   </g>
   <g id="patch_24">
    <path d="M 423.678392 188.124852 
Q 419.221915 188.350978 414.403013 188.465355 
Q 409.584111 188.581047 404.335669 188.581047 
Q 388.684306 188.581047 379.543158 187.723874 
Q 370.40201 186.866701 370.40201 185.40083 
Q 370.40201 183.9297 379.543158 183.073841 
Q 388.684306 182.216668 404.335669 182.216668 
Q 409.584111 182.216668 414.403013 182.33236 
Q 419.221915 182.446738 423.678392 182.672863 
L 423.678392 183.941532 
Q 419.181645 183.641784 414.81913 183.502428 
Q 410.456614 183.363072 405.637712 183.363072 
Q 396.99322 183.363072 392.040087 183.906035 
Q 387.100377 184.447685 387.100377 185.40083 
Q 387.100377 186.350031 392.040087 186.892995 
Q 396.99322 187.434644 405.637712 187.434644 
Q 410.456614 187.434644 414.81913 187.295288 
Q 419.181645 187.154617 423.678392 186.854869 
L 423.678392 188.124852 
z
" clip-path="url(#p00017fe434)" style="fill: #0000ff"/>
   </g>
   <g id="patch_25">
    <path d="M 407.306607 180.180984 
L 386.817366 180.180984 
L 383.582223 182.216668 
L 370.40201 182.216668 
L 389.224661 171.041961 
L 404.855741 171.041961 
L 423.678392 182.216668 
L 410.509072 182.216668 
L 407.306607 180.180984 
z
M 390.085188 178.106981 
L 404.006107 178.106981 
L 397.05654 173.662006 
L 390.085188 178.106981 
z
" clip-path="url(#p00017fe434)" style="fill: #008000"/>
   </g>
   <g id="patch_26">
    <path d="M 423.678392 162.077916 
Q 418.305382 166.559938 412.526411 168.811182 
Q 406.74744 171.041961 400.586388 171.041961 
Q 386.664321 171.041961 378.533166 157.698223 
Q 370.40201 144.354485 370.40201 121.535056 
Q 370.40201 98.449571 378.676446 85.208162 
Q 386.962822 71.966754 401.374429 71.966754 
Q 406.92654 71.966754 412.01299 73.767749 
Q 417.111379 75.548278 421.624708 79.068405 
L 421.624708 98.817956 
Q 416.968099 94.295002 412.35925 92.064224 
Q 407.750401 89.81298 403.117673 89.81298 
Q 394.544736 89.81298 389.900067 98.040254 
Q 385.255398 106.247062 385.255398 121.535056 
Q 385.255398 136.679789 389.732907 144.947995 
Q 394.210416 153.195734 402.449031 153.195734 
Q 404.693756 153.195734 406.616099 152.72502 
Q 408.538443 152.233839 410.066766 151.210546 
L 410.066766 132.668481 
L 401.290849 132.668481 
L 401.290849 116.152536 
L 423.678392 116.152536 
L 423.678392 162.077916 
z
" clip-path="url(#p00017fe434)" style="fill: #ffa600"/>
   </g>
   <g id="patch_27">
    <path d="M 479.758794 191.962654 
Q 474.385784 192.101327 468.606813 192.17098 
Q 462.827842 192.24 456.66679 192.24 
Q 442.744723 192.24 434.613568 191.827147 
Q 426.482412 191.414293 426.482412 190.708264 
Q 426.482412 189.994002 434.756848 189.584315 
Q 443.043224 189.174627 457.454831 189.174627 
Q 463.006942 189.174627 468.093392 189.23035 
Q 473.191781 189.285439 477.70511 189.394352 
L 477.70511 190.0054 
Q 473.048501 189.86546 468.439652 189.79644 
Q 463.830804 189.726787 459.198075 189.726787 
Q 450.625138 189.726787 445.980469 189.981338 
Q 441.3358 190.235255 441.3358 190.708264 
Q 441.3358 191.176839 445.813309 191.432656 
Q 450.290818 191.68784 458.529433 191.68784 
Q 460.774158 191.68784 462.696501 191.673277 
Q 464.618845 191.658079 466.147168 191.626419 
L 466.147168 191.05273 
L 457.371251 191.05273 
L 457.371251 190.541729 
L 479.758794 190.541729 
L 479.758794 191.962654 
z
" clip-path="url(#p00017fe434)" style="fill: #ffa600"/>
   </g>
   <g id="patch_28">
    <path d="M 463.387009 188.463262 
L 442.897768 188.463262 
L 439.662625 189.174627 
L 426.482412 189.174627 
L 445.305063 185.269648 
L 460.936143 185.269648 
L 479.758794 189.174627 
L 466.589474 189.174627 
L 463.387009 188.463262 
z
M 446.16559 187.738505 
L 460.086509 187.738505 
L 453.136942 186.185217 
L 446.16559 187.738505 
z
" clip-path="url(#p00017fe434)" style="fill: #008000"/>
   </g>
   <g id="patch_29">
    <path d="M 479.758794 184.834394 
Q 475.302317 185.050139 470.483415 185.159266 
Q 465.664513 185.269648 460.416071 185.269648 
Q 444.764708 185.269648 435.62356 184.451821 
Q 426.482412 183.633995 426.482412 182.235412 
Q 426.482412 180.831812 435.62356 180.01524 
Q 444.764708 179.197414 460.416071 179.197414 
Q 465.664513 179.197414 470.483415 179.307795 
Q 475.302317 179.416923 479.758794 179.632668 
L 479.758794 180.843101 
Q 475.262047 180.557113 470.899532 180.424153 
Q 466.537016 180.291194 461.718114 180.291194 
Q 453.073622 180.291194 448.120489 180.809234 
Q 443.180779 181.32602 443.180779 182.235412 
Q 443.180779 183.141042 448.120489 183.659082 
Q 453.073622 184.175868 461.718114 184.175868 
Q 466.537016 184.175868 470.899532 184.042908 
Q 475.262047 183.908695 479.758794 183.622706 
L 479.758794 184.834394 
z
" clip-path="url(#p00017fe434)" style="fill: #0000ff"/>
   </g>
   <g id="patch_30">
    <path d="M 426.482412 26.014226 
L 479.758794 26.014226 
L 479.758794 55.889215 
L 460.591686 55.889215 
L 460.591686 179.197414 
L 445.686689 179.197414 
L 445.686689 55.889215 
L 426.482412 55.889215 
L 426.482412 26.014226 
z
" clip-path="url(#p00017fe434)" style="fill: #ff0000"/>
   </g>
   <g id="patch_31">
    <path d="M 482.562814 188.634618 
L 535.839196 188.634618 
L 535.839196 189.337768 
L 516.672088 189.337768 
L 516.672088 192.24 
L 501.767091 192.24 
L 501.767091 189.337768 
L 482.562814 189.337768 
L 482.562814 188.634618 
z
" clip-path="url(#p00017fe434)" style="fill: #ff0000"/>
   </g>
   <g id="patch_32">
    <path d="M 519.467411 187.615292 
L 498.97817 187.615292 
L 495.743027 188.634618 
L 482.562814 188.634618 
L 501.385465 183.039117 
L 517.016545 183.039117 
L 535.839196 188.634618 
L 522.669876 188.634618 
L 519.467411 187.615292 
z
M 502.245992 186.576778 
L 516.166911 186.576778 
L 509.217344 184.35105 
L 502.245992 186.576778 
z
" clip-path="url(#p00017fe434)" style="fill: #008000"/>
   </g>
   <g id="patch_33">
    <path d="M 535.839196 182.256366 
Q 530.466186 182.647742 524.687215 182.844323 
Q 518.908244 183.039117 512.747192 183.039117 
Q 498.825125 183.039117 490.69397 181.873927 
Q 482.562814 180.708737 482.562814 178.716119 
Q 482.562814 176.700269 490.83725 175.544015 
Q 499.123626 174.38776 513.535233 174.38776 
Q 519.087344 174.38776 524.173794 174.545025 
Q 529.272183 174.700503 533.785512 175.007884 
L 533.785512 176.732437 
Q 529.128903 176.337487 524.520054 176.142693 
Q 519.911206 175.946112 515.278477 175.946112 
Q 506.70554 175.946112 502.060871 176.664527 
Q 497.416202 177.381155 497.416202 178.716119 
Q 497.416202 180.038574 501.893711 180.760563 
Q 506.37122 181.480765 514.609835 181.480765 
Q 516.85456 181.480765 518.776903 181.439661 
Q 520.699247 181.396771 522.22757 181.307416 
L 522.22757 179.688302 
L 513.451653 179.688302 
L 513.451653 178.246111 
L 535.839196 178.246111 
L 535.839196 182.256366 
z
" clip-path="url(#p00017fe434)" style="fill: #ffa600"/>
   </g>
   <g id="patch_34">
    <path d="M 535.839196 165.504928 
Q 531.382719 169.907945 526.563817 172.135053 
Q 521.744915 174.38776 516.496473 174.38776 
Q 500.84511 174.38776 491.703962 157.697251 
Q 482.562814 141.006742 482.562814 112.463923 
Q 482.562814 83.818708 491.703962 67.153798 
Q 500.84511 50.463289 516.496473 50.463289 
Q 521.744915 50.463289 526.563817 52.715996 
Q 531.382719 54.943103 535.839196 59.346121 
L 535.839196 84.049099 
Q 531.342449 78.21254 526.979934 75.499053 
Q 522.617418 72.785565 517.798516 72.785565 
Q 509.154024 72.785565 504.200891 83.357927 
Q 499.261181 93.904691 499.261181 112.463923 
Q 499.261181 130.946358 504.200891 141.51872 
Q 509.154024 152.065484 517.798516 152.065484 
Q 522.617418 152.065484 526.979934 149.351996 
Q 531.342449 146.61291 535.839196 140.776351 
L 535.839196 165.504928 
z
" clip-path="url(#p00017fe434)" style="fill: #0000ff"/>
   </g>
   <g id="patch_35">
    <path d="M 591.919598 191.917063 
Q 587.463121 192.077136 582.644219 192.158103 
Q 577.825317 192.24 572.576875 192.24 
Q 556.925512 192.24 547.784364 191.633214 
Q 538.643216 191.026428 538.643216 189.98875 
Q 538.643216 188.947349 547.784364 188.341494 
Q 556.925512 187.734708 572.576875 187.734708 
Q 577.825317 187.734708 582.644219 187.816606 
Q 587.463121 187.897573 591.919598 188.057645 
L 591.919598 188.955725 
Q 587.422851 188.743536 583.060336 188.644887 
Q 578.69782 188.546238 573.878918 188.546238 
Q 565.234426 188.546238 560.281293 188.930598 
Q 555.341583 189.314027 555.341583 189.98875 
Q 555.341583 190.660682 560.281293 191.045041 
Q 565.234426 191.428471 573.878918 191.428471 
Q 578.69782 191.428471 583.060336 191.329821 
Q 587.422851 191.230241 591.919598 191.018052 
L 591.919598 191.917063 
z
" clip-path="url(#p00017fe434)" style="fill: #0000ff"/>
   </g>
   <g id="patch_36">
    <path d="M 538.643216 182.759332 
L 591.919598 182.759332 
L 591.919598 183.729669 
L 572.75249 183.729669 
L 572.75249 187.734708 
L 557.847493 187.734708 
L 557.847493 183.729669 
L 538.643216 183.729669 
L 538.643216 182.759332 
z
" clip-path="url(#p00017fe434)" style="fill: #ff0000"/>
   </g>
   <g id="patch_37">
    <path d="M 591.919598 182.173572 
Q 586.546588 182.466452 580.767617 182.613561 
Q 574.988646 182.759332 568.827594 182.759332 
Q 554.905527 182.759332 546.774372 181.887379 
Q 538.643216 181.015426 538.643216 179.524278 
Q 538.643216 178.015746 546.917652 177.150479 
Q 555.204028 176.285212 569.615635 176.285212 
Q 575.167746 176.285212 580.254196 176.402899 
Q 585.352585 176.519249 589.865914 176.749273 
L 589.865914 178.039818 
Q 585.209305 177.744263 580.600456 177.598492 
Q 575.991608 177.451383 571.358879 177.451383 
Q 562.785942 177.451383 558.141273 177.988998 
Q 553.496604 178.525277 553.496604 179.524278 
Q 553.496604 180.513919 557.974113 181.054209 
Q 562.451622 181.593162 570.690237 181.593162 
Q 572.934962 181.593162 574.857305 181.562402 
Q 576.779649 181.530306 578.307972 181.463438 
L 578.307972 180.251798 
L 569.532055 180.251798 
L 569.532055 179.172555 
L 591.919598 179.172555 
L 591.919598 182.173572 
z
" clip-path="url(#p00017fe434)" style="fill: #ffa600"/>
   </g>
   <g id="patch_38">
    <path d="M 575.547813 151.682916 
L 555.058572 151.682916 
L 551.823429 176.285212 
L 538.643216 176.285212 
L 557.465867 41.233075 
L 573.096947 41.233075 
L 591.919598 176.285212 
L 578.750278 176.285212 
L 575.547813 151.682916 
z
M 558.326394 126.617517 
L 572.247313 126.617517 
L 565.297746 72.897678 
L 558.326394 126.617517 
z
" clip-path="url(#p00017fe434)" style="fill: #008000"/>
   </g>
   <g id="patch_39">
    <path d="M 631.628215 191.691699 
L 611.138974 191.691699 
L 607.903831 192.24 
L 594.723618 192.24 
L 613.546269 189.230148 
L 629.177349 189.230148 
L 648 192.24 
L 634.83068 192.24 
L 631.628215 191.691699 
z
M 614.406796 191.133076 
L 628.327715 191.133076 
L 621.378148 189.935844 
L 614.406796 191.133076 
z
" clip-path="url(#p00017fe434)" style="fill: #008000"/>
   </g>
   <g id="patch_40">
    <path d="M 648 188.486005 
Q 642.62699 188.858076 636.848019 189.044962 
Q 631.069048 189.230148 624.907996 189.230148 
Q 610.985929 189.230148 602.854774 188.122429 
Q 594.723618 187.01471 594.723618 185.120375 
Q 594.723618 183.203953 602.998054 182.104729 
Q 611.28443 181.005504 625.696037 181.005504 
Q 631.248148 181.005504 636.334598 181.155013 
Q 641.432987 181.302822 645.946316 181.595042 
L 645.946316 183.234534 
Q 641.289707 182.859065 636.680858 182.673879 
Q 632.07201 182.486994 627.439281 182.486994 
Q 618.866344 182.486994 614.221675 183.169974 
Q 609.577007 183.851255 609.577007 185.120375 
Q 609.577007 186.377602 614.054515 187.06398 
Q 618.532024 187.748659 626.770639 187.748659 
Q 629.015364 187.748659 630.937707 187.709583 
Q 632.860051 187.668808 634.388374 187.58386 
L 634.388374 186.044606 
L 625.612457 186.044606 
L 625.612457 184.673549 
L 648 184.673549 
L 648 188.486005 
z
" clip-path="url(#p00017fe434)" style="fill: #ffa600"/>
   </g>
   <g id="patch_41">
    <path d="M 594.723618 169.805305 
L 648 169.805305 
L 648 171.989656 
L 628.832892 171.989656 
L 628.832892 181.005504 
L 613.927895 181.005504 
L 613.927895 171.989656 
L 594.723618 171.989656 
L 594.723618 169.805305 
z
" clip-path="url(#p00017fe434)" style="fill: #ff0000"/>
   </g>
   <g id="patch_42">
    <path d="M 648 166.75753 
Q 643.543523 168.268242 638.724621 169.032382 
Q 633.905719 169.805305 628.657277 169.805305 
Q 613.005914 169.805305 603.864766 164.078649 
Q 594.723618 158.351994 594.723618 148.55871 
Q 594.723618 138.730294 603.864766 133.012422 
Q 613.005914 127.285766 628.657277 127.285766 
Q 633.905719 127.285766 638.724621 128.058689 
Q 643.543523 128.822829 648 130.333541 
L 648 138.809343 
Q 643.503253 136.80677 639.140738 135.875749 
Q 634.778222 134.944729 629.95932 134.944729 
Q 621.314828 134.944729 616.361695 138.572196 
Q 611.421985 142.19088 611.421985 148.55871 
Q 611.421985 154.900191 616.361695 158.527658 
Q 621.314828 162.146342 629.95932 162.146342 
Q 634.778222 162.146342 639.140738 161.215322 
Q 643.503253 160.275518 648 158.272945 
L 648 166.75753 
z
" clip-path="url(#p00017fe434)" style="fill: #0000ff"/>
   </g>
   <g id="matplotlib.axis_1">
    <g id="xtick_1">
     <g id="line2d_2">
      <defs>
       <path id="mba021e980a" d="M 0 0 
L 0 3.5 
" style="stroke: #000000; stroke-width: 0.8"/>
      </defs>
      <g>
       <use xlink:href="#mba021e980a" x="116.638191" y="192.24" style="stroke: #000000; stroke-width: 0.8"/>
      </g>
     </g>
     <g id="text_1">
      <!-- 0 -->
      <g transform="translate(113.456941 206.838437) scale(0.1 -0.1)">
       <defs>
        <path id="DejaVuSans-30" d="M 2034 4250 
Q 1547 4250 1301 3770 
Q 1056 3291 1056 2328 
Q 1056 1369 1301 889 
Q 1547 409 2034 409 
Q 2525 409 2770 889 
Q 3016 1369 3016 2328 
Q 3016 3291 2770 3770 
Q 2525 4250 2034 4250 
z
M 2034 4750 
Q 2819 4750 3233 4129 
Q 3647 3509 3647 2328 
Q 3647 1150 3233 529 
Q 2819 -91 2034 -91 
Q 1250 -91 836 529 
Q 422 1150 422 2328 
Q 422 3509 836 4129 
Q 1250 4750 2034 4750 
z
" transform="scale(0.015625)"/>
       </defs>
       <use xlink:href="#DejaVuSans-30"/>
      </g>
     </g>
    </g>
    <g id="xtick_2">
     <g id="line2d_3">
      <g>
       <use xlink:href="#mba021e980a" x="228.798995" y="192.24" style="stroke: #000000; stroke-width: 0.8"/>
      </g>
     </g>
     <g id="text_2">
      <!-- 2 -->
      <g transform="translate(225.617745 206.838437) scale(0.1 -0.1)">
       <defs>
        <path id="DejaVuSans-32" d="M 1228 531 
L 3431 531 
L 3431 0 
L 469 0 
L 469 531 
Q 828 903 1448 1529 
Q 2069 2156 2228 2338 
Q 2531 2678 2651 2914 
Q 2772 3150 2772 3378 
Q 2772 3750 2511 3984 
Q 2250 4219 1831 4219 
Q 1534 4219 1204 4116 
Q 875 4013 500 3803 
L 500 4441 
Q 881 4594 1212 4672 
Q 1544 4750 1819 4750 
Q 2544 4750 2975 4387 
Q 3406 4025 3406 3419 
Q 3406 3131 3298 2873 
Q 3191 2616 2906 2266 
Q 2828 2175 2409 1742 
Q 1991 1309 1228 531 
z
" transform="scale(0.015625)"/>
       </defs>
       <use xlink:href="#DejaVuSans-32"/>
      </g>
     </g>
    </g>
    <g id="xtick_3">
     <g id="line2d_4">
      <g>
       <use xlink:href="#mba021e980a" x="340.959799" y="192.24" style="stroke: #000000; stroke-width: 0.8"/>
      </g>
     </g>
     <g id="text_3">
      <!-- 4 -->
      <g transform="translate(337.778549 206.838437) scale(0.1 -0.1)">
       <defs>
        <path id="DejaVuSans-34" d="M 2419 4116 
L 825 1625 
L 2419 1625 
L 2419 4116 
z
M 2253 4666 
L 3047 4666 
L 3047 1625 
L 3713 1625 
L 3713 1100 
L 3047 1100 
L 3047 0 
L 2419 0 
L 2419 1100 
L 313 1100 
L 313 1709 
L 2253 4666 
z
" transform="scale(0.015625)"/>
       </defs>
       <use xlink:href="#DejaVuSans-34"/>
      </g>
     </g>
    </g>
    <g id="xtick_4">
     <g id="line2d_5">
      <g>
       <use xlink:href="#mba021e980a" x="453.120603" y="192.24" style="stroke: #000000; stroke-width: 0.8"/>
      </g>
     </g>
     <g id="text_4">
      <!-- 6 -->
      <g transform="translate(449.939353 206.838437) scale(0.1 -0.1)">
       <defs>
        <path id="DejaVuSans-36" d="M 2113 2584 
Q 1688 2584 1439 2293 
Q 1191 2003 1191 1497 
Q 1191 994 1439 701 
Q 1688 409 2113 409 
Q 2538 409 2786 701 
Q 3034 994 3034 1497 
Q 3034 2003 2786 2293 
Q 2538 2584 2113 2584 
z
M 3366 4563 
L 3366 3988 
Q 3128 4100 2886 4159 
Q 2644 4219 2406 4219 
Q 1781 4219 1451 3797 
Q 1122 3375 1075 2522 
Q 1259 2794 1537 2939 
Q 1816 3084 2150 3084 
Q 2853 3084 3261 2657 
Q 3669 2231 3669 1497 
Q 3669 778 3244 343 
Q 2819 -91 2113 -91 
Q 1303 -91 875 529 
Q 447 1150 447 2328 
Q 447 3434 972 4092 
Q 1497 4750 2381 4750 
Q 2619 4750 2861 4703 
Q 3103 4656 3366 4563 
z
" transform="scale(0.015625)"/>
       </defs>
       <use xlink:href="#DejaVuSans-36"/>
      </g>
     </g>
    </g>
    <g id="xtick_5">
     <g id="line2d_6">
      <g>
       <use xlink:href="#mba021e980a" x="565.281407" y="192.24" style="stroke: #000000; stroke-width: 0.8"/>
      </g>
     </g>
     <g id="text_5">
      <!-- 8 -->
      <g transform="translate(562.100157 206.838437) scale(0.1 -0.1)">
       <defs>
        <path id="DejaVuSans-38" d="M 2034 2216 
Q 1584 2216 1326 1975 
Q 1069 1734 1069 1313 
Q 1069 891 1326 650 
Q 1584 409 2034 409 
Q 2484 409 2743 651 
Q 3003 894 3003 1313 
Q 3003 1734 2745 1975 
Q 2488 2216 2034 2216 
z
M 1403 2484 
Q 997 2584 770 2862 
Q 544 3141 544 3541 
Q 544 4100 942 4425 
Q 1341 4750 2034 4750 
Q 2731 4750 3128 4425 
Q 3525 4100 3525 3541 
Q 3525 3141 3298 2862 
Q 3072 2584 2669 2484 
Q 3125 2378 3379 2068 
Q 3634 1759 3634 1313 
Q 3634 634 3220 271 
Q 2806 -91 2034 -91 
Q 1263 -91 848 271 
Q 434 634 434 1313 
Q 434 1759 690 2068 
Q 947 2378 1403 2484 
z
M 1172 3481 
Q 1172 3119 1398 2916 
Q 1625 2713 2034 2713 
Q 2441 2713 2670 2916 
Q 2900 3119 2900 3481 
Q 2900 3844 2670 4047 
Q 2441 4250 2034 4250 
Q 1625 4250 1398 4047 
Q 1172 3844 1172 3481 
z
" transform="scale(0.015625)"/>
       </defs>
       <use xlink:href="#DejaVuSans-38"/>
      </g>
     </g>
    </g>
   </g>
   <g id="matplotlib.axis_2">
    <g id="ytick_1">
     <g id="line2d_7">
      <defs>
       <path id="m351bb4b9c3" d="M 0 0 
L -3.5 0 
" style="stroke: #000000; stroke-width: 0.8"/>
      </defs>
      <g>
       <use xlink:href="#m351bb4b9c3" x="90" y="192.24" style="stroke: #000000; stroke-width: 0.8"/>
      </g>
     </g>
     <g id="text_6">
      <!-- 0.0 -->
      <g transform="translate(67.096875 196.039219) scale(0.1 -0.1)">
       <defs>
        <path id="DejaVuSans-2e" d="M 684 794 
L 1344 794 
L 1344 0 
L 684 0 
L 684 794 
z
" transform="scale(0.015625)"/>
       </defs>
       <use xlink:href="#DejaVuSans-30"/>
       <use xlink:href="#DejaVuSans-2e" x="63.623047"/>
       <use xlink:href="#DejaVuSans-30" x="95.410156"/>
      </g>
     </g>
    </g>
    <g id="ytick_2">
     <g id="line2d_8">
      <g>
       <use xlink:href="#m351bb4b9c3" x="90" y="169.829952" style="stroke: #000000; stroke-width: 0.8"/>
      </g>
     </g>
     <g id="text_7">
      <!-- 0.2 -->
      <g transform="translate(67.096875 173.629171) scale(0.1 -0.1)">
       <use xlink:href="#DejaVuSans-30"/>
       <use xlink:href="#DejaVuSans-2e" x="63.623047"/>
       <use xlink:href="#DejaVuSans-32" x="95.410156"/>
      </g>
     </g>
    </g>
    <g id="ytick_3">
     <g id="line2d_9">
      <g>
       <use xlink:href="#m351bb4b9c3" x="90" y="147.419905" style="stroke: #000000; stroke-width: 0.8"/>
      </g>
     </g>
     <g id="text_8">
      <!-- 0.4 -->
      <g transform="translate(67.096875 151.219123) scale(0.1 -0.1)">
       <use xlink:href="#DejaVuSans-30"/>
       <use xlink:href="#DejaVuSans-2e" x="63.623047"/>
       <use xlink:href="#DejaVuSans-34" x="95.410156"/>
      </g>
     </g>
    </g>
    <g id="ytick_4">
     <g id="line2d_10">
      <g>
       <use xlink:href="#m351bb4b9c3" x="90" y="125.009857" style="stroke: #000000; stroke-width: 0.8"/>
      </g>
     </g>
     <g id="text_9">
      <!-- 0.6 -->
      <g transform="translate(67.096875 128.809076) scale(0.1 -0.1)">
       <use xlink:href="#DejaVuSans-30"/>
       <use xlink:href="#DejaVuSans-2e" x="63.623047"/>
       <use xlink:href="#DejaVuSans-36" x="95.410156"/>
      </g>
     </g>
    </g>
    <g id="ytick_5">
     <g id="line2d_11">
      <g>
       <use xlink:href="#m351bb4b9c3" x="90" y="102.599809" style="stroke: #000000; stroke-width: 0.8"/>
      </g>
     </g>
     <g id="text_10">
      <!-- 0.8 -->
      <g transform="translate(67.096875 106.399028) scale(0.1 -0.1)">
       <use xlink:href="#DejaVuSans-30"/>
       <use xlink:href="#DejaVuSans-2e" x="63.623047"/>
       <use xlink:href="#DejaVuSans-38" x="95.410156"/>
      </g>
     </g>
    </g>
    <g id="ytick_6">
     <g id="line2d_12">
      <g>
       <use xlink:href="#m351bb4b9c3" x="90" y="80.189761" style="stroke: #000000; stroke-width: 0.8"/>
      </g>
     </g>
     <g id="text_11">
      <!-- 1.0 -->
      <g transform="translate(67.096875 83.98898) scale(0.1 -0.1)">
       <defs>
        <path id="DejaVuSans-31" d="M 794 531 
L 1825 531 
L 1825 4091 
L 703 3866 
L 703 4441 
L 1819 4666 
L 2450 4666 
L 2450 531 
L 3481 531 
L 3481 0 
L 794 0 
L 794 531 
z
" transform="scale(0.015625)"/>
       </defs>
       <use xlink:href="#DejaVuSans-31"/>
       <use xlink:href="#DejaVuSans-2e" x="63.623047"/>
       <use xlink:href="#DejaVuSans-30" x="95.410156"/>
      </g>
     </g>
    </g>
    <g id="ytick_7">
     <g id="line2d_13">
      <g>
       <use xlink:href="#m351bb4b9c3" x="90" y="57.779714" style="stroke: #000000; stroke-width: 0.8"/>
      </g>
     </g>
     <g id="text_12">
      <!-- 1.2 -->
      <g transform="translate(67.096875 61.578932) scale(0.1 -0.1)">
       <use xlink:href="#DejaVuSans-31"/>
       <use xlink:href="#DejaVuSans-2e" x="63.623047"/>
       <use xlink:href="#DejaVuSans-32" x="95.410156"/>
      </g>
     </g>
    </g>
    <g id="ytick_8">
     <g id="line2d_14">
      <g>
       <use xlink:href="#m351bb4b9c3" x="90" y="35.369666" style="stroke: #000000; stroke-width: 0.8"/>
      </g>
     </g>
     <g id="text_13">
      <!-- 1.4 -->
      <g transform="translate(67.096875 39.168885) scale(0.1 -0.1)">
       <use xlink:href="#DejaVuSans-31"/>
       <use xlink:href="#DejaVuSans-2e" x="63.623047"/>
       <use xlink:href="#DejaVuSans-34" x="95.410156"/>
      </g>
     </g>
    </g>
   </g>
  </g>
 </g>
 <defs>
  <clipPath id="p00017fe434">
   <rect x="90" y="25.92" width="558" height="166.32"/>
  </clipPath>
 </defs>
</svg>
