<?xml version="1.0" encoding="utf-8" standalone="no"?>
<!DOCTYPE svg PUBLIC "-//W3C//DTD SVG 1.1//EN"
  "http://www.w3.org/Graphics/SVG/1.1/DTD/svg11.dtd">
<svg xmlns:xlink="http://www.w3.org/1999/xlink" width="720pt" height="216pt" viewBox="0 0 720 216" xmlns="http://www.w3.org/2000/svg" version="1.1">
 <metadata>
  <rdf:RDF xmlns:dc="http://purl.org/dc/elements/1.1/" xmlns:cc="http://creativecommons.org/ns#" xmlns:rdf="http://www.w3.org/1999/02/22-rdf-syntax-ns#">
   <cc:Work>
    <dc:type rdf:resource="http://purl.org/dc/dcmitype/StillImage"/>
    <dc:date>2024-11-23T05:03:42.262651</dc:date>
    <dc:format>image/svg+xml</dc:format>
    <dc:creator>
     <cc:Agent>
      <dc:title>Matplotlib v3.7.2, https://matplotlib.org/</dc:title>
     </cc:Agent>
    </dc:creator>
   </cc:Work>
  </rdf:RDF>
 </metadata>
 <defs>
  <style type="text/css">*{stroke-linejoin: round; stroke-linecap: butt}</style>
 </defs>
 <g id="figure_1">
  <g id="patch_1">
   <path d="M 0 216 
L 720 216 
L 720 0 
L 0 0 
z
" style="fill: #ffffff"/>
  </g>
  <g id="axes_1">
   <g id="patch_2">
    <path d="M 90 192.24 
L 648 192.24 
L 648 25.92 
L 90 25.92 
z
" style="fill: #ffffff"/>
   </g>
   <g id="line2d_1">
    <path d="M 90 192.24 
L 648 192.24 
" clip-path="url(#p0d52e46642)" style="fill: none; stroke: #000000; stroke-width: 0.5; stroke-linecap: square"/>
   </g>
   <g id="patch_3">
    <path d="M 116.322633 191.969593 
L 101.708444 191.969593 
L 99.400941 192.24 
L 90 192.24 
L 103.425475 190.755624 
L 114.574525 190.755624 
L 128 192.24 
L 118.606829 192.24 
L 116.322633 191.969593 
z
M 104.039256 191.694096 
L 113.968514 191.694096 
L 109.011654 191.103654 
L 104.039256 191.694096 
z
" clip-path="url(#p0d52e46642)" style="fill: #008000"/>
   </g>
   <g id="patch_4">
    <path d="M 128 190.379547 
Q 124.821366 190.56596 121.384228 190.66025 
Q 117.94709 190.755624 114.203578 190.755624 
Q 103.04006 190.755624 96.52003 190.048989 
Q 90 189.342353 90 188.13392 
Q 90 186.921152 96.52003 186.215601 
Q 103.04006 185.508965 114.203578 185.508965 
Q 117.94709 185.508965 121.384228 185.604339 
Q 124.821366 185.69863 128 185.885043 
L 128 186.930906 
Q 124.792643 186.683801 121.681028 186.568918 
Q 118.569413 186.454036 115.132275 186.454036 
Q 108.96649 186.454036 105.43361 186.901644 
Q 101.910305 187.348168 101.910305 188.13392 
Q 101.910305 188.916421 105.43361 189.364029 
Q 108.96649 189.810554 115.132275 189.810554 
Q 118.569413 189.810554 121.681028 189.695671 
Q 124.792643 189.579705 128 189.332599 
L 128 190.379547 
z
" clip-path="url(#p0d52e46642)" style="fill: #0000ff"/>
   </g>
   <g id="patch_5">
    <path d="M 90 173.559287 
L 128 173.559287 
L 128 175.889807 
L 114.328837 175.889807 
L 114.328837 185.508965 
L 103.697674 185.508965 
L 103.697674 175.889807 
L 90 175.889807 
L 90 173.559287 
z
" clip-path="url(#p0d52e46642)" style="fill: #ff0000"/>
   </g>
   <g id="patch_6">
    <path d="M 128 170.457918 
Q 124.167638 172.008602 120.045719 172.787485 
Q 115.923801 173.559287 111.529359 173.559287 
Q 101.599283 173.559287 95.799641 168.942637 
Q 90 164.325988 90 156.430951 
Q 90 148.443864 95.901838 143.862619 
Q 101.812192 139.281373 112.091439 139.281373 
Q 116.051546 139.281373 119.679516 139.904479 
Q 123.316002 140.520504 126.535186 141.738394 
L 126.535186 148.571318 
Q 123.213805 147.006472 119.92649 146.23467 
Q 116.639175 145.455788 113.334827 145.455788 
Q 107.220081 145.455788 103.907216 148.302249 
Q 100.594352 151.14163 100.594352 156.430951 
Q 100.594352 161.670706 103.787987 164.53133 
Q 106.981623 167.384872 112.857911 167.384872 
Q 114.458987 167.384872 115.830121 167.222015 
Q 117.201255 167.052077 118.291349 166.698039 
L 118.291349 160.282879 
L 112.031824 160.282879 
L 112.031824 154.568714 
L 128 154.568714 
L 128 170.457918 
z
" clip-path="url(#p0d52e46642)" style="fill: #ffa600"/>
   </g>
   <g id="patch_7">
    <path d="M 130 192.190449 
L 168 192.190449 
L 168 192.200113 
L 154.328837 192.200113 
L 154.328837 192.24 
L 143.697674 192.24 
L 143.697674 192.200113 
L 130 192.200113 
L 130 192.190449 
z
" clip-path="url(#p0d52e46642)" style="fill: #ff0000"/>
   </g>
   <g id="patch_8">
    <path d="M 168 191.779716 
Q 164.821366 191.983307 161.384228 192.086286 
Q 157.94709 192.190449 154.203578 192.190449 
Q 143.04006 192.190449 136.52003 191.418696 
Q 130 190.646944 130 189.327152 
Q 130 188.002625 136.52003 187.232056 
Q 143.04006 186.460303 154.203578 186.460303 
Q 157.94709 186.460303 161.384228 186.564466 
Q 164.821366 186.667445 168 186.871037 
L 168 188.013278 
Q 164.792643 187.743401 161.681028 187.617932 
Q 158.569413 187.492463 155.132275 187.492463 
Q 148.96649 187.492463 145.43361 187.981319 
Q 141.910305 188.468991 141.910305 189.327152 
Q 141.910305 190.181761 145.43361 190.670617 
Q 148.96649 191.158289 155.132275 191.158289 
Q 158.569413 191.158289 161.681028 191.03282 
Q 164.792643 190.906167 168 190.636291 
L 168 191.779716 
z
" clip-path="url(#p0d52e46642)" style="fill: #0000ff"/>
   </g>
   <g id="patch_9">
    <path d="M 168 185.01644 
Q 164.167638 185.738372 160.045719 186.100986 
Q 155.923801 186.460303 151.529359 186.460303 
Q 141.599283 186.460303 135.799641 184.310991 
Q 130 182.161679 130 178.486091 
Q 130 174.767649 135.901838 172.634819 
Q 141.812192 170.50199 152.091439 170.50199 
Q 156.051546 170.50199 159.679516 170.792081 
Q 163.316002 171.078876 166.535186 171.645872 
L 166.535186 174.826986 
Q 163.213805 174.098462 159.92649 173.739144 
Q 156.639175 173.37653 153.334827 173.37653 
Q 147.220081 173.37653 143.907216 174.701719 
Q 140.594352 176.023612 140.594352 178.486091 
Q 140.594352 180.925495 143.787987 182.257277 
Q 146.981623 183.585763 152.857911 183.585763 
Q 154.458987 183.585763 155.830121 183.509944 
Q 157.201255 183.430828 158.291349 183.266003 
L 158.291349 180.279382 
L 152.031824 180.279382 
L 152.031824 177.619114 
L 168 177.619114 
L 168 185.01644 
z
" clip-path="url(#p0d52e46642)" style="fill: #ffa600"/>
   </g>
   <g id="patch_10">
    <path d="M 156.322633 161.585235 
L 141.708444 161.585235 
L 139.400941 170.50199 
L 130 170.50199 
L 143.425475 121.55425 
L 154.574525 121.55425 
L 168 170.50199 
L 158.606829 170.50199 
L 156.322633 161.585235 
z
M 144.039256 152.500635 
L 153.968514 152.500635 
L 149.011654 133.030639 
L 144.039256 152.500635 
z
" clip-path="url(#p0d52e46642)" style="fill: #008000"/>
   </g>
   <g id="patch_11">
    <path d="M 208 192.214312 
Q 204.167638 192.227156 200.045719 192.233607 
Q 195.923801 192.24 191.529359 192.24 
Q 181.599283 192.24 175.799641 192.201762 
Q 170 192.163524 170 192.098132 
Q 170 192.031978 175.901838 191.994033 
Q 181.812192 191.956088 192.091439 191.956088 
Q 196.051546 191.956088 199.679516 191.961249 
Q 203.316002 191.966351 206.535186 191.976438 
L 206.535186 192.033033 
Q 203.213805 192.020072 199.92649 192.01368 
Q 196.639175 192.007228 193.334827 192.007228 
Q 187.220081 192.007228 183.907216 192.030805 
Q 180.594352 192.054322 180.594352 192.098132 
Q 180.594352 192.141531 183.787987 192.165225 
Q 186.981623 192.188859 192.857911 192.188859 
Q 194.458987 192.188859 195.830121 192.187511 
Q 197.201255 192.186103 198.291349 192.183171 
L 198.291349 192.130036 
L 192.031824 192.130036 
L 192.031824 192.082708 
L 208 192.082708 
L 208 192.214312 
z
" clip-path="url(#p0d52e46642)" style="fill: #ffa600"/>
   </g>
   <g id="patch_12">
    <path d="M 170 191.344099 
L 208 191.344099 
L 208 191.463454 
L 194.328837 191.463454 
L 194.328837 191.956088 
L 183.697674 191.956088 
L 183.697674 191.463454 
L 170 191.463454 
L 170 191.344099 
z
" clip-path="url(#p0d52e46642)" style="fill: #ff0000"/>
   </g>
   <g id="patch_13">
    <path d="M 196.322633 190.598476 
L 181.708444 190.598476 
L 179.400941 191.344099 
L 170 191.344099 
L 183.425475 187.251067 
L 194.574525 187.251067 
L 208 191.344099 
L 198.606829 191.344099 
L 196.322633 190.598476 
z
M 184.039256 189.838818 
L 193.968514 189.838818 
L 189.011654 188.210728 
L 184.039256 189.838818 
z
" clip-path="url(#p0d52e46642)" style="fill: #008000"/>
   </g>
   <g id="patch_14">
    <path d="M 208 177.091543 
Q 204.821366 182.127388 201.384228 184.674588 
Q 197.94709 187.251067 194.203578 187.251067 
Q 183.04006 187.251067 176.52003 168.161701 
Q 170 149.072336 170 116.427178 
Q 170 83.664908 176.52003 64.604821 
Q 183.04006 45.515455 194.203578 45.515455 
Q 197.94709 45.515455 201.384228 48.091934 
Q 204.821366 50.639135 208 55.674979 
L 208 83.928412 
Q 204.792643 77.252989 201.681028 74.149504 
Q 198.569413 71.046018 195.132275 71.046018 
Q 188.96649 71.046018 185.43361 83.137901 
Q 181.910305 95.200506 181.910305 116.427178 
Q 181.910305 137.566016 185.43361 149.657899 
Q 188.96649 161.720504 195.132275 161.720504 
Q 198.569413 161.720504 201.681028 158.617019 
Q 204.792643 155.484255 208 148.808832 
L 208 177.091543 
z
" clip-path="url(#p0d52e46642)" style="fill: #0000ff"/>
   </g>
   <g id="patch_15">
    <path d="M 248 192.159206 
Q 244.167638 192.199603 240.045719 192.219894 
Q 235.923801 192.24 231.529359 192.24 
Q 221.599283 192.24 215.799641 192.119732 
Q 210 191.999463 210 191.793789 
Q 210 191.585718 215.901838 191.466372 
Q 221.812192 191.347026 232.091439 191.347026 
Q 236.051546 191.347026 239.679516 191.363258 
Q 243.316002 191.379306 246.535186 191.411033 
L 246.535186 191.589038 
Q 243.213805 191.548272 239.92649 191.528166 
Q 236.639175 191.507875 233.334827 191.507875 
Q 227.220081 191.507875 223.907216 191.582029 
Q 220.594352 191.655997 220.594352 191.793789 
Q 220.594352 191.93029 223.787987 192.004813 
Q 226.981623 192.07915 232.857911 192.07915 
Q 234.458987 192.07915 235.830121 192.074908 
Q 237.201255 192.070481 238.291349 192.061258 
L 238.291349 191.894136 
L 232.031824 191.894136 
L 232.031824 191.745276 
L 248 191.745276 
L 248 192.159206 
z
" clip-path="url(#p0d52e46642)" style="fill: #ffa600"/>
   </g>
   <g id="patch_16">
    <path d="M 210 190.117085 
L 248 190.117085 
L 248 190.356958 
L 234.328837 190.356958 
L 234.328837 191.347026 
L 223.697674 191.347026 
L 223.697674 190.356958 
L 210 190.356958 
L 210 190.117085 
z
" clip-path="url(#p0d52e46642)" style="fill: #ff0000"/>
   </g>
   <g id="patch_17">
    <path d="M 236.322633 189.109174 
L 221.708444 189.109174 
L 219.400941 190.117085 
L 210 190.117085 
L 223.425475 184.584249 
L 234.574525 184.584249 
L 248 190.117085 
L 238.606829 190.117085 
L 236.322633 189.109174 
z
M 224.039256 188.082291 
L 233.968514 188.082291 
L 229.011654 185.881489 
L 224.039256 188.082291 
z
" clip-path="url(#p0d52e46642)" style="fill: #008000"/>
   </g>
   <g id="patch_18">
    <path d="M 248 175.417181 
Q 244.821366 179.961088 241.384228 182.259459 
Q 237.94709 184.584249 234.203578 184.584249 
Q 223.04006 184.584249 216.52003 167.359671 
Q 210 150.135093 210 120.678952 
Q 210 91.117138 216.52003 73.918978 
Q 223.04006 56.6944 234.203578 56.6944 
Q 237.94709 56.6944 241.384228 59.01919 
Q 244.821366 61.317562 248 65.861469 
L 248 91.354901 
Q 244.792643 85.331582 241.681028 82.531267 
Q 238.569413 79.730952 235.132275 79.730952 
Q 228.96649 79.730952 225.43361 90.641613 
Q 221.910305 101.525855 221.910305 120.678952 
Q 221.910305 139.752794 225.43361 150.663455 
Q 228.96649 161.547697 235.132275 161.547697 
Q 238.569413 161.547697 241.681028 158.747382 
Q 244.792643 155.920649 248 149.897331 
L 248 175.417181 
z
" clip-path="url(#p0d52e46642)" style="fill: #0000ff"/>
   </g>
   <g id="patch_19">
    <path d="M 288 192.132046 
Q 284.167638 192.186023 280.045719 192.213135 
Q 275.923801 192.24 271.529359 192.24 
Q 261.599283 192.24 255.799641 192.079302 
Q 250 191.918604 250 191.64379 
Q 250 191.365772 255.901838 191.206307 
Q 261.812192 191.046841 272.091439 191.046841 
Q 276.051546 191.046841 279.679516 191.06853 
Q 283.316002 191.089973 286.535186 191.132366 
L 286.535186 191.370209 
Q 283.213805 191.315739 279.92649 191.288874 
Q 276.639175 191.261762 273.334827 191.261762 
Q 267.220081 191.261762 263.907216 191.360843 
Q 260.594352 191.459677 260.594352 191.64379 
Q 260.594352 191.826178 263.787987 191.925751 
Q 266.981623 192.025079 272.857911 192.025079 
Q 274.458987 192.025079 275.830121 192.01941 
Q 277.201255 192.013494 278.291349 192.001171 
L 278.291349 191.77787 
L 272.031824 191.77787 
L 272.031824 191.578969 
L 288 191.578969 
L 288 192.132046 
z
" clip-path="url(#p0d52e46642)" style="fill: #ffa600"/>
   </g>
   <g id="patch_20">
    <path d="M 250 187.664239 
L 288 187.664239 
L 288 188.323941 
L 274.328837 188.323941 
L 274.328837 191.046841 
L 263.697674 191.046841 
L 263.697674 188.323941 
L 250 188.323941 
L 250 187.664239 
z
" clip-path="url(#p0d52e46642)" style="fill: #ff0000"/>
   </g>
   <g id="patch_21">
    <path d="M 276.322633 185.93197 
L 261.708444 185.93197 
L 259.400941 187.664239 
L 250 187.664239 
L 263.425475 178.155102 
L 274.574525 178.155102 
L 288 187.664239 
L 278.606829 187.664239 
L 276.322633 185.93197 
z
M 264.039256 184.167094 
L 273.968514 184.167094 
L 269.011654 180.384634 
L 264.039256 184.167094 
z
" clip-path="url(#p0d52e46642)" style="fill: #008000"/>
   </g>
   <g id="patch_22">
    <path d="M 288 171.478445 
Q 284.821366 174.787912 281.384228 176.461886 
Q 277.94709 178.155102 274.203578 178.155102 
Q 263.04006 178.155102 256.52003 165.609914 
Q 250 153.064727 250 131.610917 
Q 250 110.080142 256.52003 97.554196 
Q 263.04006 85.009008 274.203578 85.009008 
Q 277.94709 85.009008 281.384228 86.702224 
Q 284.821366 88.376198 288 91.685665 
L 288 110.253312 
Q 284.792643 105.866345 281.681028 103.82679 
Q 278.569413 101.787235 275.132275 101.787235 
Q 268.96649 101.787235 265.43361 109.733803 
Q 261.910305 117.66113 261.910305 131.610917 
Q 261.910305 145.50298 265.43361 153.449549 
Q 268.96649 161.376876 275.132275 161.376876 
Q 278.569413 161.376876 281.681028 159.337321 
Q 284.792643 157.278524 288 152.891557 
L 288 171.478445 
z
" clip-path="url(#p0d52e46642)" style="fill: #0000ff"/>
   </g>
   <g id="patch_23">
    <path d="M 328 192.237953 
Q 324.167638 192.238977 320.045719 192.239491 
Q 315.923801 192.24 311.529359 192.24 
Q 301.599283 192.24 295.799641 192.236954 
Q 290 192.233907 290 192.228697 
Q 290 192.223427 295.901838 192.220404 
Q 301.812192 192.21738 312.091439 192.21738 
Q 316.051546 192.21738 319.679516 192.217792 
Q 323.316002 192.218198 326.535186 192.219002 
L 326.535186 192.223511 
Q 323.213805 192.222478 319.92649 192.221969 
Q 316.639175 192.221455 313.334827 192.221455 
Q 307.220081 192.221455 303.907216 192.223333 
Q 300.594352 192.225207 300.594352 192.228697 
Q 300.594352 192.232155 303.787987 192.234043 
Q 306.981623 192.235926 312.857911 192.235926 
Q 314.458987 192.235926 315.830121 192.235818 
Q 317.201255 192.235706 318.291349 192.235472 
L 318.291349 192.231239 
L 312.031824 192.231239 
L 312.031824 192.227468 
L 328 192.227468 
L 328 192.237953 
z
" clip-path="url(#p0d52e46642)" style="fill: #ffa600"/>
   </g>
   <g id="patch_24">
    <path d="M 290 192.177796 
L 328 192.177796 
L 328 192.185516 
L 314.328837 192.185516 
L 314.328837 192.21738 
L 303.697674 192.21738 
L 303.697674 192.185516 
L 290 192.185516 
L 290 192.177796 
z
" clip-path="url(#p0d52e46642)" style="fill: #ff0000"/>
   </g>
   <g id="patch_25">
    <path d="M 328 180.260536 
Q 324.821366 186.167651 321.384228 189.155552 
Q 317.94709 192.177796 314.203578 192.177796 
Q 303.04006 192.177796 296.52003 169.785711 
Q 290 147.393626 290 109.100414 
Q 290 70.669826 296.52003 48.312085 
Q 303.04006 25.92 314.203578 25.92 
Q 317.94709 25.92 321.384228 28.942245 
Q 324.821366 31.930145 328 37.83726 
L 328 70.978919 
Q 324.792643 63.148558 321.681028 59.508127 
Q 318.569413 55.867696 315.132275 55.867696 
Q 308.96649 55.867696 305.43361 70.05164 
Q 301.910305 84.201239 301.910305 109.100414 
Q 301.910305 133.896557 305.43361 148.0805 
Q 308.96649 162.2301 315.132275 162.2301 
Q 318.569413 162.2301 321.681028 158.589669 
Q 324.792643 154.914894 328 147.084533 
L 328 180.260536 
z
" clip-path="url(#p0d52e46642)" style="fill: #0000ff"/>
   </g>
   <g id="patch_26">
    <path d="M 368 192.235091 
Q 364.167638 192.237545 360.045719 192.238778 
Q 355.923801 192.24 351.529359 192.24 
Q 341.599283 192.24 335.799641 192.232692 
Q 330 192.225384 330 192.212886 
Q 330 192.200243 335.901838 192.192991 
Q 341.812192 192.185739 352.091439 192.185739 
Q 356.051546 192.185739 359.679516 192.186725 
Q 363.316002 192.187701 366.535186 192.189628 
L 366.535186 192.200445 
Q 363.213805 192.197968 359.92649 192.196746 
Q 356.639175 192.195513 353.334827 192.195513 
Q 347.220081 192.195513 343.907216 192.200019 
Q 340.594352 192.204513 340.594352 192.212886 
Q 340.594352 192.221181 343.787987 192.225709 
Q 346.981623 192.230226 352.857911 192.230226 
Q 354.458987 192.230226 355.830121 192.229968 
Q 357.201255 192.229699 358.291349 192.229139 
L 358.291349 192.218984 
L 352.031824 192.218984 
L 352.031824 192.209938 
L 368 192.209938 
L 368 192.235091 
z
" clip-path="url(#p0d52e46642)" style="fill: #ffa600"/>
   </g>
   <g id="patch_27">
    <path d="M 330 192.109677 
L 368 192.109677 
L 368 192.124511 
L 354.328837 192.124511 
L 354.328837 192.185739 
L 343.697674 192.185739 
L 343.697674 192.124511 
L 330 192.124511 
L 330 192.109677 
z
" clip-path="url(#p0d52e46642)" style="fill: #ff0000"/>
   </g>
   <g id="patch_28">
    <path d="M 356.322633 191.926693 
L 341.708444 191.926693 
L 339.400941 192.109677 
L 330 192.109677 
L 343.425475 191.105202 
L 354.574525 191.105202 
L 368 192.109677 
L 358.606829 192.109677 
L 356.322633 191.926693 
z
M 344.039256 191.740264 
L 353.968514 191.740264 
L 349.011654 191.340713 
L 344.039256 191.740264 
z
" clip-path="url(#p0d52e46642)" style="fill: #008000"/>
   </g>
   <g id="patch_29">
    <path d="M 368 179.610958 
Q 364.821366 185.308393 361.384228 188.190235 
Q 357.94709 191.105202 354.203578 191.105202 
Q 343.04006 191.105202 336.52003 169.507948 
Q 330 147.910694 330 110.976739 
Q 330 73.910286 336.52003 52.346156 
Q 343.04006 30.748902 354.203578 30.748902 
Q 357.94709 30.748902 361.384228 33.663869 
Q 364.821366 36.545711 368 42.243146 
L 368 74.208408 
Q 364.792643 66.655993 361.681028 63.144783 
Q 358.569413 59.633573 355.132275 59.633573 
Q 348.96649 59.633573 345.43361 73.314043 
Q 341.910305 86.961387 341.910305 110.976739 
Q 341.910305 134.892717 345.43361 148.573186 
Q 348.96649 162.220531 355.132275 162.220531 
Q 358.569413 162.220531 361.681028 158.709321 
Q 364.792643 155.164986 368 147.612572 
L 368 179.610958 
z
" clip-path="url(#p0d52e46642)" style="fill: #0000ff"/>
   </g>
   <g id="patch_30">
    <path d="M 396.322633 192.227804 
L 381.708444 192.227804 
L 379.400941 192.24 
L 370 192.24 
L 383.425475 192.173053 
L 394.574525 192.173053 
L 408 192.24 
L 398.606829 192.24 
L 396.322633 192.227804 
z
M 384.039256 192.215379 
L 393.968514 192.215379 
L 389.011654 192.18875 
L 384.039256 192.215379 
z
" clip-path="url(#p0d52e46642)" style="fill: #008000"/>
   </g>
   <g id="patch_31">
    <path d="M 370 160.778 
L 408 160.778 
L 408 166.90091 
L 394.328837 166.90091 
L 394.328837 192.173053 
L 383.697674 192.173053 
L 383.697674 166.90091 
L 370 166.90091 
L 370 160.778 
z
" clip-path="url(#p0d52e46642)" style="fill: #ff0000"/>
   </g>
   <g id="patch_32">
    <path d="M 408 156.760351 
Q 404.821366 158.751808 401.384228 159.759115 
Q 397.94709 160.778 394.203578 160.778 
Q 383.04006 160.778 376.52003 153.228988 
Q 370 145.679976 370 132.770239 
Q 370 119.81419 376.52003 112.276756 
Q 383.04006 104.727744 394.203578 104.727744 
Q 397.94709 104.727744 401.384228 105.746629 
Q 404.821366 106.753936 408 108.745393 
L 408 119.918394 
Q 404.792643 117.278555 401.681028 116.051262 
Q 398.569413 114.823968 395.132275 114.823968 
Q 388.96649 114.823968 385.43361 119.605781 
Q 381.910305 124.376016 381.910305 132.770239 
Q 381.910305 141.129728 385.43361 145.911541 
Q 388.96649 150.681775 395.132275 150.681775 
Q 398.569413 150.681775 401.681028 149.454482 
Q 404.792643 148.21561 408 145.575772 
L 408 156.760351 
z
" clip-path="url(#p0d52e46642)" style="fill: #0000ff"/>
   </g>
   <g id="patch_33">
    <path d="M 410 192.183979 
L 448 192.183979 
L 448 192.194905 
L 434.328837 192.194905 
L 434.328837 192.24 
L 423.697674 192.24 
L 423.697674 192.194905 
L 410 192.194905 
L 410 192.183979 
z
" clip-path="url(#p0d52e46642)" style="fill: #ff0000"/>
   </g>
   <g id="patch_34">
    <path d="M 448 192.171069 
Q 444.821366 192.177468 441.384228 192.180705 
Q 437.94709 192.183979 434.203578 192.183979 
Q 423.04006 192.183979 416.52003 192.159721 
Q 410 192.135462 410 192.093978 
Q 410 192.052344 416.52003 192.028123 
Q 423.04006 192.003864 434.203578 192.003864 
Q 437.94709 192.003864 441.384228 192.007138 
Q 444.821366 192.010375 448 192.016775 
L 448 192.052679 
Q 444.792643 192.044196 441.681028 192.040252 
Q 438.569413 192.036308 435.132275 192.036308 
Q 428.96649 192.036308 425.43361 192.051674 
Q 421.910305 192.067003 421.910305 192.093978 
Q 421.910305 192.12084 425.43361 192.136207 
Q 428.96649 192.151536 435.132275 192.151536 
Q 438.569413 192.151536 441.681028 192.147592 
Q 444.792643 192.143611 448 192.135128 
L 448 192.171069 
z
" clip-path="url(#p0d52e46642)" style="fill: #0000ff"/>
   </g>
   <g id="patch_35">
    <path d="M 436.322633 190.431338 
L 421.708444 190.431338 
L 419.400941 192.003864 
L 410 192.003864 
L 423.425475 183.371619 
L 434.574525 183.371619 
L 448 192.003864 
L 438.606829 192.003864 
L 436.322633 190.431338 
z
M 424.039256 188.829211 
L 433.968514 188.829211 
L 429.011654 185.395553 
L 424.039256 188.829211 
z
" clip-path="url(#p0d52e46642)" style="fill: #008000"/>
   </g>
   <g id="patch_36">
    <path d="M 448 171.781368 
Q 444.167638 177.576494 440.045719 180.487287 
Q 435.923801 183.371619 431.529359 183.371619 
Q 421.599283 183.371619 415.799641 166.118552 
Q 410 148.865485 410 119.360623 
Q 410 89.511759 415.901838 72.391 
Q 421.812192 55.270242 432.091439 55.270242 
Q 436.051546 55.270242 439.679516 57.598877 
Q 443.316002 59.90105 446.535186 64.452473 
L 446.535186 89.98807 
Q 443.213805 84.140022 439.92649 81.25569 
Q 436.639175 78.344896 433.334827 78.344896 
Q 427.220081 78.344896 423.907216 88.982524 
Q 420.594352 99.593689 420.594352 119.360623 
Q 420.594352 138.942325 423.787987 149.632876 
Q 426.981623 160.296965 432.857911 160.296965 
Q 434.458987 160.296965 435.830121 159.688344 
Q 437.201255 159.053262 438.291349 157.730174 
L 438.291349 133.75582 
L 432.031824 133.75582 
L 432.031824 112.401181 
L 448 112.401181 
L 448 171.781368 
z
" clip-path="url(#p0d52e46642)" style="fill: #ffa600"/>
   </g>
   <g id="patch_37">
    <path d="M 476.322633 192.228012 
L 461.708444 192.228012 
L 459.400941 192.24 
L 450 192.24 
L 463.425475 192.174192 
L 474.574525 192.174192 
L 488 192.24 
L 478.606829 192.24 
L 476.322633 192.228012 
z
M 464.039256 192.215798 
L 473.968514 192.215798 
L 469.011654 192.189622 
L 464.039256 192.215798 
z
" clip-path="url(#p0d52e46642)" style="fill: #008000"/>
   </g>
   <g id="patch_38">
    <path d="M 488 192.0605 
Q 484.167638 192.117346 480.045719 192.145899 
Q 475.923801 192.174192 471.529359 192.174192 
Q 461.599283 192.174192 455.799641 192.004951 
Q 450 191.83571 450 191.546286 
Q 450 191.253489 455.901838 191.085545 
Q 461.812192 190.917602 472.091439 190.917602 
Q 476.051546 190.917602 479.679516 190.940444 
Q 483.316002 190.963027 486.535186 191.007673 
L 486.535186 191.258161 
Q 483.213805 191.200795 479.92649 191.172502 
Q 476.639175 191.143949 473.334827 191.143949 
Q 467.220081 191.143949 463.907216 191.248297 
Q 460.594352 191.352386 460.594352 191.546286 
Q 460.594352 191.73837 463.787987 191.843237 
Q 466.981623 191.947845 472.857911 191.947845 
Q 474.458987 191.947845 475.830121 191.941875 
Q 477.201255 191.935645 478.291349 191.922667 
L 478.291349 191.687494 
L 472.031824 191.687494 
L 472.031824 191.478019 
L 488 191.478019 
L 488 192.0605 
z
" clip-path="url(#p0d52e46642)" style="fill: #ffa600"/>
   </g>
   <g id="patch_39">
    <path d="M 450 171.638714 
L 488 171.638714 
L 488 175.398634 
L 474.328837 175.398634 
L 474.328837 190.917602 
L 463.697674 190.917602 
L 463.697674 175.398634 
L 450 175.398634 
L 450 171.638714 
z
" clip-path="url(#p0d52e46642)" style="fill: #ff0000"/>
   </g>
   <g id="patch_40">
    <path d="M 488 166.011406 
Q 484.821366 168.800734 481.384228 170.211616 
Q 477.94709 171.638714 474.203578 171.638714 
Q 463.04006 171.638714 456.52003 161.065212 
Q 450 150.49171 450 132.409725 
Q 450 114.262871 456.52003 103.705586 
Q 463.04006 93.132084 474.203578 93.132084 
Q 477.94709 93.132084 481.384228 94.559183 
Q 484.821366 95.970064 488 98.759393 
L 488 114.408824 
Q 484.792643 110.711342 481.681028 108.992337 
Q 478.569413 107.273332 475.132275 107.273332 
Q 468.96649 107.273332 465.43361 113.970965 
Q 461.910305 120.65238 461.910305 132.409725 
Q 461.910305 144.118419 465.43361 150.816051 
Q 468.96649 157.497466 475.132275 157.497466 
Q 478.569413 157.497466 481.681028 155.778461 
Q 484.792643 154.043239 488 150.345757 
L 488 166.011406 
z
" clip-path="url(#p0d52e46642)" style="fill: #0000ff"/>
   </g>
   <g id="patch_41">
    <path d="M 516.322633 191.771413 
L 501.708444 191.771413 
L 499.400941 192.24 
L 490 192.24 
L 503.425475 189.667731 
L 514.574525 189.667731 
L 528 192.24 
L 518.606829 192.24 
L 516.322633 191.771413 
z
M 504.039256 191.294005 
L 513.968514 191.294005 
L 509.011654 190.270831 
L 504.039256 191.294005 
z
" clip-path="url(#p0d52e46642)" style="fill: #008000"/>
   </g>
   <g id="patch_42">
    <path d="M 528 189.401105 
Q 524.821366 189.533266 521.384228 189.600114 
Q 517.94709 189.667731 514.203578 189.667731 
Q 503.04006 189.667731 496.52003 189.166751 
Q 490 188.665771 490 187.809033 
Q 490 186.949222 496.52003 186.44901 
Q 503.04006 185.948029 514.203578 185.948029 
Q 517.94709 185.948029 521.384228 186.015646 
Q 524.821366 186.082495 528 186.214655 
L 528 186.956137 
Q 524.792643 186.780947 521.681028 186.6995 
Q 518.569413 186.618052 515.132275 186.618052 
Q 508.96649 186.618052 505.43361 186.935391 
Q 501.910305 187.251961 501.910305 187.809033 
Q 501.910305 188.363799 505.43361 188.681138 
Q 508.96649 188.997708 515.132275 188.997708 
Q 518.569413 188.997708 521.681028 188.916261 
Q 524.792643 188.834045 528 188.658855 
L 528 189.401105 
z
" clip-path="url(#p0d52e46642)" style="fill: #0000ff"/>
   </g>
   <g id="patch_43">
    <path d="M 528 184.888583 
Q 524.167638 185.418306 520.045719 185.684377 
Q 515.923801 185.948029 511.529359 185.948029 
Q 501.599283 185.948029 495.799641 184.370954 
Q 490 182.793879 490 180.096887 
Q 490 177.36845 495.901838 175.803469 
Q 501.812192 174.238488 512.091439 174.238488 
Q 516.051546 174.238488 519.679516 174.451344 
Q 523.316002 174.661782 526.535186 175.077821 
L 526.535186 177.411989 
Q 523.213805 176.877428 519.92649 176.613776 
Q 516.639175 176.347705 513.334827 176.347705 
Q 507.220081 176.347705 503.907216 177.320073 
Q 500.594352 178.290023 500.594352 180.096887 
Q 500.594352 181.886819 503.787987 182.864025 
Q 506.981623 183.838812 512.857911 183.838812 
Q 514.458987 183.838812 515.830121 183.783179 
Q 517.201255 183.725127 518.291349 183.604186 
L 518.291349 181.412729 
L 512.031824 181.412729 
L 512.031824 179.460735 
L 528 179.460735 
L 528 184.888583 
z
" clip-path="url(#p0d52e46642)" style="fill: #ffa600"/>
   </g>
   <g id="patch_44">
    <path d="M 490 116.89969 
L 528 116.89969 
L 528 128.082353 
L 514.328837 128.082353 
L 514.328837 174.238488 
L 503.697674 174.238488 
L 503.697674 128.082353 
L 490 128.082353 
L 490 116.89969 
z
" clip-path="url(#p0d52e46642)" style="fill: #ff0000"/>
   </g>
   <g id="patch_45">
    <path d="M 530 192.235235 
L 568 192.235235 
L 568 192.236164 
L 554.328837 192.236164 
L 554.328837 192.24 
L 543.697674 192.24 
L 543.697674 192.236164 
L 530 192.236164 
L 530 192.235235 
z
" clip-path="url(#p0d52e46642)" style="fill: #ff0000"/>
   </g>
   <g id="patch_46">
    <path d="M 568 192.227097 
Q 564.821366 192.231131 561.384228 192.233171 
Q 557.94709 192.235235 554.203578 192.235235 
Q 543.04006 192.235235 536.52003 192.219943 
Q 530 192.204651 530 192.178501 
Q 530 192.152256 536.52003 192.136988 
Q 543.04006 192.121696 554.203578 192.121696 
Q 557.94709 192.121696 561.384228 192.12376 
Q 564.821366 192.1258 568 192.129834 
L 568 192.152467 
Q 564.792643 192.14712 561.681028 192.144634 
Q 558.569413 192.142147 555.132275 192.142147 
Q 548.96649 192.142147 545.43361 192.151834 
Q 541.910305 192.161497 541.910305 192.178501 
Q 541.910305 192.195434 545.43361 192.20512 
Q 548.96649 192.214783 555.132275 192.214783 
Q 558.569413 192.214783 561.681028 192.212297 
Q 564.792643 192.209788 568 192.20444 
L 568 192.227097 
z
" clip-path="url(#p0d52e46642)" style="fill: #0000ff"/>
   </g>
   <g id="patch_47">
    <path d="M 556.322633 192.058808 
L 541.708444 192.058808 
L 539.400941 192.121696 
L 530 192.121696 
L 543.425475 191.776478 
L 554.574525 191.776478 
L 568 192.121696 
L 558.606829 192.121696 
L 556.322633 192.058808 
z
M 544.039256 191.994736 
L 553.968514 191.994736 
L 549.011654 191.857418 
L 544.039256 191.994736 
z
" clip-path="url(#p0d52e46642)" style="fill: #008000"/>
   </g>
   <g id="patch_48">
    <path d="M 568 176.951982 
Q 564.167638 184.36423 560.045719 188.087277 
Q 555.923801 191.776478 551.529359 191.776478 
Q 541.599283 191.776478 535.799641 169.708963 
Q 530 147.641449 530 109.903291 
Q 530 71.725138 535.901838 49.826852 
Q 541.812192 27.928567 552.091439 27.928567 
Q 556.051546 27.928567 559.679516 30.907005 
Q 563.316002 33.851597 566.535186 39.673088 
L 566.535186 72.334363 
Q 563.213805 64.854424 559.92649 61.165223 
Q 556.639175 57.442176 553.334827 57.442176 
Q 547.220081 57.442176 543.907216 71.04822 
Q 540.594352 84.620418 540.594352 109.903291 
Q 540.594352 134.949243 543.787987 148.622979 
Q 546.981623 162.26287 552.857911 162.26287 
Q 554.458987 162.26287 555.830121 161.484414 
Q 557.201255 160.672113 558.291349 158.979819 
L 558.291349 128.315451 
L 552.031824 128.315451 
L 552.031824 101.001825 
L 568 101.001825 
L 568 176.951982 
z
" clip-path="url(#p0d52e46642)" style="fill: #ffa600"/>
   </g>
   <g id="patch_49">
    <path d="M 608 192.045874 
Q 604.167638 192.142937 600.045719 192.19169 
Q 595.923801 192.24 591.529359 192.24 
Q 581.599283 192.24 575.799641 191.951027 
Q 570 191.662055 570 191.167876 
Q 570 190.667936 575.901838 190.381179 
Q 581.812192 190.094423 592.091439 190.094423 
Q 596.051546 190.094423 599.679516 190.133425 
Q 603.316002 190.171984 606.535186 190.248216 
L 606.535186 190.675914 
Q 603.213805 190.577964 599.92649 190.529654 
Q 596.639175 190.480901 593.334827 190.480901 
Q 587.220081 190.480901 583.907216 190.659072 
Q 580.594352 190.836799 580.594352 191.167876 
Q 580.594352 191.495851 583.787987 191.674908 
Q 586.981623 191.853521 592.857911 191.853521 
Q 594.458987 191.853521 595.830121 191.843327 
Q 597.201255 191.83269 598.291349 191.81053 
L 598.291349 191.408982 
L 592.031824 191.408982 
L 592.031824 191.051312 
L 608 191.051312 
L 608 192.045874 
z
" clip-path="url(#p0d52e46642)" style="fill: #ffa600"/>
   </g>
   <g id="patch_50">
    <path d="M 596.322633 189.372607 
L 581.708444 189.372607 
L 579.400941 190.094423 
L 570 190.094423 
L 583.425475 186.132079 
L 594.574525 186.132079 
L 608 190.094423 
L 598.606829 190.094423 
L 596.322633 189.372607 
z
M 584.039256 188.637204 
L 593.968514 188.637204 
L 589.011654 187.061098 
L 584.039256 188.637204 
z
" clip-path="url(#p0d52e46642)" style="fill: #008000"/>
   </g>
   <g id="patch_51">
    <path d="M 608 185.431995 
Q 604.821366 185.77901 601.384228 185.954536 
Q 597.94709 186.132079 594.203578 186.132079 
Q 583.04006 186.132079 576.52003 184.816647 
Q 570 183.501215 570 181.251664 
Q 570 178.994044 576.52003 177.680629 
Q 583.04006 176.365197 594.203578 176.365197 
Q 597.94709 176.365197 601.384228 176.54274 
Q 604.821366 176.718266 608 177.065281 
L 608 179.012202 
Q 604.792643 178.552204 601.681028 178.338345 
Q 598.569413 178.124487 595.132275 178.124487 
Q 588.96649 178.124487 585.43361 178.957728 
Q 581.910305 179.788952 581.910305 181.251664 
Q 581.910305 182.708324 585.43361 183.541565 
Q 588.96649 184.372789 595.132275 184.372789 
Q 598.569413 184.372789 601.681028 184.158931 
Q 604.792643 183.943054 608 183.483057 
L 608 185.431995 
z
" clip-path="url(#p0d52e46642)" style="fill: #0000ff"/>
   </g>
   <g id="patch_52">
    <path d="M 570 155.810721 
L 608 155.810721 
L 608 159.819416 
L 594.328837 159.819416 
L 594.328837 176.365197 
L 583.697674 176.365197 
L 583.697674 159.819416 
L 570 159.819416 
L 570 155.810721 
z
" clip-path="url(#p0d52e46642)" style="fill: #ff0000"/>
   </g>
   <g id="patch_53">
    <path d="M 636.322633 192.218665 
L 621.708444 192.218665 
L 619.400941 192.24 
L 610 192.24 
L 623.425475 192.122884 
L 634.574525 192.122884 
L 648 192.24 
L 638.606829 192.24 
L 636.322633 192.218665 
z
M 624.039256 192.196929 
L 633.968514 192.196929 
L 629.011654 192.150343 
L 624.039256 192.196929 
z
" clip-path="url(#p0d52e46642)" style="fill: #008000"/>
   </g>
   <g id="patch_54">
    <path d="M 648 191.998147 
Q 644.821366 192.059977 641.384228 192.091251 
Q 637.94709 192.122884 634.203578 192.122884 
Q 623.04006 192.122884 616.52003 191.888508 
Q 610 191.654132 610 191.253321 
Q 610 190.851072 616.52003 190.617055 
Q 623.04006 190.382679 634.203578 190.382679 
Q 637.94709 190.382679 641.384228 190.414313 
Q 644.821366 190.445587 648 190.507416 
L 648 190.854307 
Q 644.792643 190.772347 641.681028 190.734243 
Q 638.569413 190.696139 635.132275 190.696139 
Q 628.96649 190.696139 625.43361 190.844601 
Q 621.910305 190.992704 621.910305 191.253321 
Q 621.910305 191.51286 625.43361 191.661322 
Q 628.96649 191.809424 635.132275 191.809424 
Q 638.569413 191.809424 641.681028 191.77132 
Q 644.792643 191.732857 648 191.650897 
L 648 191.998147 
z
" clip-path="url(#p0d52e46642)" style="fill: #0000ff"/>
   </g>
   <g id="patch_55">
    <path d="M 610 181.263295 
L 648 181.263295 
L 648 183.041829 
L 634.328837 183.041829 
L 634.328837 190.382679 
L 623.697674 190.382679 
L 623.697674 183.041829 
L 610 183.041829 
L 610 181.263295 
z
" clip-path="url(#p0d52e46642)" style="fill: #ff0000"/>
   </g>
   <g id="patch_56">
    <path d="M 648 170.838001 
Q 644.167638 176.050648 640.045719 178.668873 
Q 635.923801 181.263295 631.529359 181.263295 
Q 621.599283 181.263295 615.799641 165.744364 
Q 610 150.225434 610 123.686158 
Q 610 96.837455 615.901838 81.437535 
Q 621.812192 66.037614 632.091439 66.037614 
Q 636.051546 66.037614 639.679516 68.132194 
Q 643.316002 70.202971 646.535186 74.296923 
L 646.535186 97.265892 
Q 643.213805 92.005641 639.92649 89.411219 
Q 636.639175 86.792994 633.334827 86.792994 
Q 627.220081 86.792994 623.907216 96.361415 
Q 620.594352 105.906033 620.594352 123.686158 
Q 620.594352 141.299668 623.787987 150.915693 
Q 626.981623 160.507915 632.857911 160.507915 
Q 634.458987 160.507915 635.830121 159.960468 
Q 637.201255 159.389219 638.291349 158.199117 
L 638.291349 136.634468 
L 632.031824 136.634468 
L 632.031824 117.426221 
L 648 117.426221 
L 648 170.838001 
z
" clip-path="url(#p0d52e46642)" style="fill: #ffa600"/>
   </g>
   <g id="matplotlib.axis_1">
    <g id="xtick_1">
     <g id="line2d_2">
      <defs>
       <path id="mf1757d8318" d="M 0 0 
L 0 3.5 
" style="stroke: #000000; stroke-width: 0.8"/>
      </defs>
      <g>
       <use xlink:href="#mf1757d8318" x="109" y="192.24" style="stroke: #000000; stroke-width: 0.8"/>
      </g>
     </g>
     <g id="text_1">
      <!-- 0 -->
      <g transform="translate(105.81875 206.838437) scale(0.1 -0.1)">
       <defs>
        <path id="DejaVuSans-30" d="M 2034 4250 
Q 1547 4250 1301 3770 
Q 1056 3291 1056 2328 
Q 1056 1369 1301 889 
Q 1547 409 2034 409 
Q 2525 409 2770 889 
Q 3016 1369 3016 2328 
Q 3016 3291 2770 3770 
Q 2525 4250 2034 4250 
z
M 2034 4750 
Q 2819 4750 3233 4129 
Q 3647 3509 3647 2328 
Q 3647 1150 3233 529 
Q 2819 -91 2034 -91 
Q 1250 -91 836 529 
Q 422 1150 422 2328 
Q 422 3509 836 4129 
Q 1250 4750 2034 4750 
z
" transform="scale(0.015625)"/>
       </defs>
       <use xlink:href="#DejaVuSans-30"/>
      </g>
     </g>
    </g>
    <g id="xtick_2">
     <g id="line2d_3">
      <g>
       <use xlink:href="#mf1757d8318" x="189" y="192.24" style="stroke: #000000; stroke-width: 0.8"/>
      </g>
     </g>
     <g id="text_2">
      <!-- 2 -->
      <g transform="translate(185.81875 206.838437) scale(0.1 -0.1)">
       <defs>
        <path id="DejaVuSans-32" d="M 1228 531 
L 3431 531 
L 3431 0 
L 469 0 
L 469 531 
Q 828 903 1448 1529 
Q 2069 2156 2228 2338 
Q 2531 2678 2651 2914 
Q 2772 3150 2772 3378 
Q 2772 3750 2511 3984 
Q 2250 4219 1831 4219 
Q 1534 4219 1204 4116 
Q 875 4013 500 3803 
L 500 4441 
Q 881 4594 1212 4672 
Q 1544 4750 1819 4750 
Q 2544 4750 2975 4387 
Q 3406 4025 3406 3419 
Q 3406 3131 3298 2873 
Q 3191 2616 2906 2266 
Q 2828 2175 2409 1742 
Q 1991 1309 1228 531 
z
" transform="scale(0.015625)"/>
       </defs>
       <use xlink:href="#DejaVuSans-32"/>
      </g>
     </g>
    </g>
    <g id="xtick_3">
     <g id="line2d_4">
      <g>
       <use xlink:href="#mf1757d8318" x="269" y="192.24" style="stroke: #000000; stroke-width: 0.8"/>
      </g>
     </g>
     <g id="text_3">
      <!-- 4 -->
      <g transform="translate(265.81875 206.838437) scale(0.1 -0.1)">
       <defs>
        <path id="DejaVuSans-34" d="M 2419 4116 
L 825 1625 
L 2419 1625 
L 2419 4116 
z
M 2253 4666 
L 3047 4666 
L 3047 1625 
L 3713 1625 
L 3713 1100 
L 3047 1100 
L 3047 0 
L 2419 0 
L 2419 1100 
L 313 1100 
L 313 1709 
L 2253 4666 
z
" transform="scale(0.015625)"/>
       </defs>
       <use xlink:href="#DejaVuSans-34"/>
      </g>
     </g>
    </g>
    <g id="xtick_4">
     <g id="line2d_5">
      <g>
       <use xlink:href="#mf1757d8318" x="349" y="192.24" style="stroke: #000000; stroke-width: 0.8"/>
      </g>
     </g>
     <g id="text_4">
      <!-- 6 -->
      <g transform="translate(345.81875 206.838437) scale(0.1 -0.1)">
       <defs>
        <path id="DejaVuSans-36" d="M 2113 2584 
Q 1688 2584 1439 2293 
Q 1191 2003 1191 1497 
Q 1191 994 1439 701 
Q 1688 409 2113 409 
Q 2538 409 2786 701 
Q 3034 994 3034 1497 
Q 3034 2003 2786 2293 
Q 2538 2584 2113 2584 
z
M 3366 4563 
L 3366 3988 
Q 3128 4100 2886 4159 
Q 2644 4219 2406 4219 
Q 1781 4219 1451 3797 
Q 1122 3375 1075 2522 
Q 1259 2794 1537 2939 
Q 1816 3084 2150 3084 
Q 2853 3084 3261 2657 
Q 3669 2231 3669 1497 
Q 3669 778 3244 343 
Q 2819 -91 2113 -91 
Q 1303 -91 875 529 
Q 447 1150 447 2328 
Q 447 3434 972 4092 
Q 1497 4750 2381 4750 
Q 2619 4750 2861 4703 
Q 3103 4656 3366 4563 
z
" transform="scale(0.015625)"/>
       </defs>
       <use xlink:href="#DejaVuSans-36"/>
      </g>
     </g>
    </g>
    <g id="xtick_5">
     <g id="line2d_6">
      <g>
       <use xlink:href="#mf1757d8318" x="429" y="192.24" style="stroke: #000000; stroke-width: 0.8"/>
      </g>
     </g>
     <g id="text_5">
      <!-- 8 -->
      <g transform="translate(425.81875 206.838437) scale(0.1 -0.1)">
       <defs>
        <path id="DejaVuSans-38" d="M 2034 2216 
Q 1584 2216 1326 1975 
Q 1069 1734 1069 1313 
Q 1069 891 1326 650 
Q 1584 409 2034 409 
Q 2484 409 2743 651 
Q 3003 894 3003 1313 
Q 3003 1734 2745 1975 
Q 2488 2216 2034 2216 
z
M 1403 2484 
Q 997 2584 770 2862 
Q 544 3141 544 3541 
Q 544 4100 942 4425 
Q 1341 4750 2034 4750 
Q 2731 4750 3128 4425 
Q 3525 4100 3525 3541 
Q 3525 3141 3298 2862 
Q 3072 2584 2669 2484 
Q 3125 2378 3379 2068 
Q 3634 1759 3634 1313 
Q 3634 634 3220 271 
Q 2806 -91 2034 -91 
Q 1263 -91 848 271 
Q 434 634 434 1313 
Q 434 1759 690 2068 
Q 947 2378 1403 2484 
z
M 1172 3481 
Q 1172 3119 1398 2916 
Q 1625 2713 2034 2713 
Q 2441 2713 2670 2916 
Q 2900 3119 2900 3481 
Q 2900 3844 2670 4047 
Q 2441 4250 2034 4250 
Q 1625 4250 1398 4047 
Q 1172 3844 1172 3481 
z
" transform="scale(0.015625)"/>
       </defs>
       <use xlink:href="#DejaVuSans-38"/>
      </g>
     </g>
    </g>
    <g id="xtick_6">
     <g id="line2d_7">
      <g>
       <use xlink:href="#mf1757d8318" x="509" y="192.24" style="stroke: #000000; stroke-width: 0.8"/>
      </g>
     </g>
     <g id="text_6">
      <!-- 10 -->
      <g transform="translate(502.6375 206.838437) scale(0.1 -0.1)">
       <defs>
        <path id="DejaVuSans-31" d="M 794 531 
L 1825 531 
L 1825 4091 
L 703 3866 
L 703 4441 
L 1819 4666 
L 2450 4666 
L 2450 531 
L 3481 531 
L 3481 0 
L 794 0 
L 794 531 
z
" transform="scale(0.015625)"/>
       </defs>
       <use xlink:href="#DejaVuSans-31"/>
       <use xlink:href="#DejaVuSans-30" x="63.623047"/>
      </g>
     </g>
    </g>
    <g id="xtick_7">
     <g id="line2d_8">
      <g>
       <use xlink:href="#mf1757d8318" x="589" y="192.24" style="stroke: #000000; stroke-width: 0.8"/>
      </g>
     </g>
     <g id="text_7">
      <!-- 12 -->
      <g transform="translate(582.6375 206.838437) scale(0.1 -0.1)">
       <use xlink:href="#DejaVuSans-31"/>
       <use xlink:href="#DejaVuSans-32" x="63.623047"/>
      </g>
     </g>
    </g>
   </g>
   <g id="matplotlib.axis_2">
    <g id="ytick_1">
     <g id="line2d_9">
      <defs>
       <path id="mf2a1a8acf8" d="M 0 0 
L -3.5 0 
" style="stroke: #000000; stroke-width: 0.8"/>
      </defs>
      <g>
       <use xlink:href="#mf2a1a8acf8" x="90" y="192.24" style="stroke: #000000; stroke-width: 0.8"/>
      </g>
     </g>
     <g id="text_8">
      <!-- 0.00 -->
      <g transform="translate(60.734375 196.039219) scale(0.1 -0.1)">
       <defs>
        <path id="DejaVuSans-2e" d="M 684 794 
L 1344 794 
L 1344 0 
L 684 0 
L 684 794 
z
" transform="scale(0.015625)"/>
       </defs>
       <use xlink:href="#DejaVuSans-30"/>
       <use xlink:href="#DejaVuSans-2e" x="63.623047"/>
       <use xlink:href="#DejaVuSans-30" x="95.410156"/>
       <use xlink:href="#DejaVuSans-30" x="159.033203"/>
      </g>
     </g>
    </g>
    <g id="ytick_2">
     <g id="line2d_10">
      <g>
       <use xlink:href="#mf2a1a8acf8" x="90" y="171.361416" style="stroke: #000000; stroke-width: 0.8"/>
      </g>
     </g>
     <g id="text_9">
      <!-- 0.25 -->
      <g transform="translate(60.734375 175.160635) scale(0.1 -0.1)">
       <defs>
        <path id="DejaVuSans-35" d="M 691 4666 
L 3169 4666 
L 3169 4134 
L 1269 4134 
L 1269 2991 
Q 1406 3038 1543 3061 
Q 1681 3084 1819 3084 
Q 2600 3084 3056 2656 
Q 3513 2228 3513 1497 
Q 3513 744 3044 326 
Q 2575 -91 1722 -91 
Q 1428 -91 1123 -41 
Q 819 9 494 109 
L 494 744 
Q 775 591 1075 516 
Q 1375 441 1709 441 
Q 2250 441 2565 725 
Q 2881 1009 2881 1497 
Q 2881 1984 2565 2268 
Q 2250 2553 1709 2553 
Q 1456 2553 1204 2497 
Q 953 2441 691 2322 
L 691 4666 
z
" transform="scale(0.015625)"/>
       </defs>
       <use xlink:href="#DejaVuSans-30"/>
       <use xlink:href="#DejaVuSans-2e" x="63.623047"/>
       <use xlink:href="#DejaVuSans-32" x="95.410156"/>
       <use xlink:href="#DejaVuSans-35" x="159.033203"/>
      </g>
     </g>
    </g>
    <g id="ytick_3">
     <g id="line2d_11">
      <g>
       <use xlink:href="#mf2a1a8acf8" x="90" y="150.482832" style="stroke: #000000; stroke-width: 0.8"/>
      </g>
     </g>
     <g id="text_10">
      <!-- 0.50 -->
      <g transform="translate(60.734375 154.282051) scale(0.1 -0.1)">
       <use xlink:href="#DejaVuSans-30"/>
       <use xlink:href="#DejaVuSans-2e" x="63.623047"/>
       <use xlink:href="#DejaVuSans-35" x="95.410156"/>
       <use xlink:href="#DejaVuSans-30" x="159.033203"/>
      </g>
     </g>
    </g>
    <g id="ytick_4">
     <g id="line2d_12">
      <g>
       <use xlink:href="#mf2a1a8acf8" x="90" y="129.604248" style="stroke: #000000; stroke-width: 0.8"/>
      </g>
     </g>
     <g id="text_11">
      <!-- 0.75 -->
      <g transform="translate(60.734375 133.403467) scale(0.1 -0.1)">
       <defs>
        <path id="DejaVuSans-37" d="M 525 4666 
L 3525 4666 
L 3525 4397 
L 1831 0 
L 1172 0 
L 2766 4134 
L 525 4134 
L 525 4666 
z
" transform="scale(0.015625)"/>
       </defs>
       <use xlink:href="#DejaVuSans-30"/>
       <use xlink:href="#DejaVuSans-2e" x="63.623047"/>
       <use xlink:href="#DejaVuSans-37" x="95.410156"/>
       <use xlink:href="#DejaVuSans-35" x="159.033203"/>
      </g>
     </g>
    </g>
    <g id="ytick_5">
     <g id="line2d_13">
      <g>
       <use xlink:href="#mf2a1a8acf8" x="90" y="108.725664" style="stroke: #000000; stroke-width: 0.8"/>
      </g>
     </g>
     <g id="text_12">
      <!-- 1.00 -->
      <g transform="translate(60.734375 112.524882) scale(0.1 -0.1)">
       <use xlink:href="#DejaVuSans-31"/>
       <use xlink:href="#DejaVuSans-2e" x="63.623047"/>
       <use xlink:href="#DejaVuSans-30" x="95.410156"/>
       <use xlink:href="#DejaVuSans-30" x="159.033203"/>
      </g>
     </g>
    </g>
    <g id="ytick_6">
     <g id="line2d_14">
      <g>
       <use xlink:href="#mf2a1a8acf8" x="90" y="87.84708" style="stroke: #000000; stroke-width: 0.8"/>
      </g>
     </g>
     <g id="text_13">
      <!-- 1.25 -->
      <g transform="translate(60.734375 91.646298) scale(0.1 -0.1)">
       <use xlink:href="#DejaVuSans-31"/>
       <use xlink:href="#DejaVuSans-2e" x="63.623047"/>
       <use xlink:href="#DejaVuSans-32" x="95.410156"/>
       <use xlink:href="#DejaVuSans-35" x="159.033203"/>
      </g>
     </g>
    </g>
    <g id="ytick_7">
     <g id="line2d_15">
      <g>
       <use xlink:href="#mf2a1a8acf8" x="90" y="66.968496" style="stroke: #000000; stroke-width: 0.8"/>
      </g>
     </g>
     <g id="text_14">
      <!-- 1.50 -->
      <g transform="translate(60.734375 70.767714) scale(0.1 -0.1)">
       <use xlink:href="#DejaVuSans-31"/>
       <use xlink:href="#DejaVuSans-2e" x="63.623047"/>
       <use xlink:href="#DejaVuSans-35" x="95.410156"/>
       <use xlink:href="#DejaVuSans-30" x="159.033203"/>
      </g>
     </g>
    </g>
    <g id="ytick_8">
     <g id="line2d_16">
      <g>
       <use xlink:href="#mf2a1a8acf8" x="90" y="46.089911" style="stroke: #000000; stroke-width: 0.8"/>
      </g>
     </g>
     <g id="text_15">
      <!-- 1.75 -->
      <g transform="translate(60.734375 49.88913) scale(0.1 -0.1)">
       <use xlink:href="#DejaVuSans-31"/>
       <use xlink:href="#DejaVuSans-2e" x="63.623047"/>
       <use xlink:href="#DejaVuSans-37" x="95.410156"/>
       <use xlink:href="#DejaVuSans-35" x="159.033203"/>
      </g>
     </g>
    </g>
   </g>
  </g>
 </g>
 <defs>
  <clipPath id="p0d52e46642">
   <rect x="90" y="25.92" width="558" height="166.32"/>
  </clipPath>
 </defs>
</svg>
