<?xml version="1.0" encoding="utf-8" standalone="no"?>
<!DOCTYPE svg PUBLIC "-//W3C//DTD SVG 1.1//EN"
  "http://www.w3.org/Graphics/SVG/1.1/DTD/svg11.dtd">
<svg xmlns:xlink="http://www.w3.org/1999/xlink" width="720pt" height="216pt" viewBox="0 0 720 216" xmlns="http://www.w3.org/2000/svg" version="1.1">
 <metadata>
  <rdf:RDF xmlns:dc="http://purl.org/dc/elements/1.1/" xmlns:cc="http://creativecommons.org/ns#" xmlns:rdf="http://www.w3.org/1999/02/22-rdf-syntax-ns#">
   <cc:Work>
    <dc:type rdf:resource="http://purl.org/dc/dcmitype/StillImage"/>
    <dc:date>2024-11-23T05:02:52.852699</dc:date>
    <dc:format>image/svg+xml</dc:format>
    <dc:creator>
     <cc:Agent>
      <dc:title>Matplotlib v3.7.2, https://matplotlib.org/</dc:title>
     </cc:Agent>
    </dc:creator>
   </cc:Work>
  </rdf:RDF>
 </metadata>
 <defs>
  <style type="text/css">*{stroke-linejoin: round; stroke-linecap: butt}</style>
 </defs>
 <g id="figure_1">
  <g id="patch_1">
   <path d="M 0 216 
L 720 216 
L 720 0 
L 0 0 
z
" style="fill: #ffffff"/>
  </g>
  <g id="axes_1">
   <g id="patch_2">
    <path d="M 90 192.24 
L 648 192.24 
L 648 25.92 
L 90 25.92 
z
" style="fill: #ffffff"/>
   </g>
   <g id="line2d_1">
    <path d="M 90 192.24 
L 648 192.24 
" clip-path="url(#pd947f1a796)" style="fill: none; stroke: #000000; stroke-width: 0.5; stroke-linecap: square"/>
   </g>
   <g id="patch_3">
    <path d="M 134.359833 192.187162 
Q 130.649209 192.213353 126.636818 192.2266 
Q 122.624427 192.24 118.254386 192.24 
Q 105.222497 192.24 97.611249 192.14072 
Q 90 192.041439 90 191.871658 
Q 90 191.701267 97.611249 191.602139 
Q 105.222497 191.502858 118.254386 191.502858 
Q 122.624427 191.502858 126.636818 191.516258 
Q 130.649209 191.529506 134.359833 191.555696 
L 134.359833 191.702637 
Q 130.615679 191.667919 126.983292 191.651779 
Q 123.350905 191.635638 119.338514 191.635638 
Q 112.140798 191.635638 108.016642 191.698526 
Q 103.903661 191.761261 103.903661 191.871658 
Q 103.903661 191.981597 108.016642 192.044485 
Q 112.140798 192.10722 119.338514 192.10722 
Q 123.350905 192.10722 126.983292 192.091079 
Q 130.615679 192.074786 134.359833 192.040069 
L 134.359833 192.187162 
z
" clip-path="url(#pd947f1a796)" style="fill: #0000ff"/>
   </g>
   <g id="patch_4">
    <path d="M 90 186.33256 
L 134.359833 186.33256 
L 134.359833 187.340912 
L 118.400609 187.340912 
L 118.400609 191.502858 
L 105.990172 191.502858 
L 105.990172 187.340912 
L 90 187.340912 
L 90 186.33256 
z
" clip-path="url(#pd947f1a796)" style="fill: #ff0000"/>
   </g>
   <g id="patch_5">
    <path d="M 120.728095 183.749411 
L 103.668016 183.749411 
L 100.97432 186.33256 
L 90 186.33256 
L 105.672417 172.15259 
L 118.687416 172.15259 
L 134.359833 186.33256 
L 123.394583 186.33256 
L 120.728095 183.749411 
z
M 106.388922 181.117638 
L 117.97998 181.117638 
L 112.193521 175.477255 
L 106.388922 181.117638 
z
" clip-path="url(#pd947f1a796)" style="fill: #008000"/>
   </g>
   <g id="patch_6">
    <path d="M 134.359833 170.516698 
Q 129.886071 171.334644 125.074292 171.745485 
Q 120.262512 172.15259 115.132599 172.15259 
Q 103.540585 172.15259 96.770293 169.717426 
Q 90 167.282262 90 163.117833 
Q 90 158.90485 96.889593 156.488361 
Q 103.789128 154.071872 115.788751 154.071872 
Q 120.411638 154.071872 124.646799 154.400544 
Q 128.891902 154.725482 132.649861 155.367887 
L 132.649861 158.972079 
Q 128.772601 158.146663 124.935108 157.739557 
Q 121.097615 157.328717 117.240238 157.328717 
Q 110.102103 157.328717 106.234784 158.830152 
Q 102.367466 160.327853 102.367466 163.117833 
Q 102.367466 165.88167 106.0956 167.390575 
Q 109.823735 168.895745 116.683503 168.895745 
Q 118.552541 168.895745 120.153154 168.809842 
Q 121.753766 168.720204 123.026303 168.533459 
L 123.026303 165.149627 
L 115.719159 165.149627 
L 115.719159 162.135551 
L 134.359833 162.135551 
L 134.359833 170.516698 
z
" clip-path="url(#pd947f1a796)" style="fill: #ffa600"/>
   </g>
   <g id="patch_7">
    <path d="M 136.694561 191.638593 
L 181.054393 191.638593 
L 181.054393 191.755884 
L 165.09517 191.755884 
L 165.09517 192.24 
L 152.684733 192.24 
L 152.684733 191.755884 
L 136.694561 191.755884 
L 136.694561 191.638593 
z
" clip-path="url(#pd947f1a796)" style="fill: #ff0000"/>
   </g>
   <g id="patch_8">
    <path d="M 167.422656 191.474285 
L 150.362577 191.474285 
L 147.66888 191.638593 
L 136.694561 191.638593 
L 152.366978 190.736641 
L 165.381976 190.736641 
L 181.054393 191.638593 
L 170.089143 191.638593 
L 167.422656 191.474285 
z
M 153.083483 191.306885 
L 164.674541 191.306885 
L 158.888082 190.948115 
L 153.083483 191.306885 
z
" clip-path="url(#pd947f1a796)" style="fill: #008000"/>
   </g>
   <g id="patch_9">
    <path d="M 181.054393 179.421904 
Q 177.34377 185.030362 173.331379 187.867198 
Q 169.318988 190.736641 164.948946 190.736641 
Q 151.917058 190.736641 144.305809 169.476673 
Q 136.694561 148.216704 136.694561 111.859549 
Q 136.694561 75.371964 144.305809 54.144603 
Q 151.917058 32.884634 164.948946 32.884634 
Q 169.318988 32.884634 173.331379 35.754078 
Q 177.34377 38.590914 181.054393 44.199372 
L 181.054393 75.66543 
Q 177.31024 68.230963 173.677853 64.774587 
Q 170.045465 61.318212 166.033074 61.318212 
Q 158.835359 61.318212 154.711202 74.785033 
Q 150.598222 88.219246 150.598222 111.859549 
Q 150.598222 135.40203 154.711202 148.86885 
Q 158.835359 162.303064 166.033074 162.303064 
Q 170.045465 162.303064 173.677853 158.846688 
Q 177.31024 155.357706 181.054393 147.923238 
L 181.054393 179.421904 
z
" clip-path="url(#pd947f1a796)" style="fill: #0000ff"/>
   </g>
   <g id="patch_10">
    <path d="M 227.748954 192.149185 
Q 224.038331 192.1942 220.02594 192.216969 
Q 216.013549 192.24 211.643507 192.24 
Q 198.611619 192.24 191.00037 192.069362 
Q 183.389121 191.898725 183.389121 191.606913 
Q 183.389121 191.314055 191.00037 191.143679 
Q 198.611619 190.973041 211.643507 190.973041 
Q 216.013549 190.973041 220.02594 190.996072 
Q 224.038331 191.018841 227.748954 191.063856 
L 227.748954 191.31641 
Q 224.004801 191.256739 220.372413 191.228998 
Q 216.740026 191.201256 212.727635 191.201256 
Q 205.52992 191.201256 201.405763 191.309344 
Q 197.292783 191.41717 197.292783 191.606913 
Q 197.292783 191.795871 201.405763 191.903959 
Q 205.52992 192.011785 212.727635 192.011785 
Q 216.740026 192.011785 220.372413 191.984043 
Q 224.004801 191.95604 227.748954 191.896369 
L 227.748954 192.149185 
z
" clip-path="url(#pd947f1a796)" style="fill: #0000ff"/>
   </g>
   <g id="patch_11">
    <path d="M 183.389121 31.335902 
L 227.748954 31.335902 
L 227.748954 62.469592 
L 211.78973 62.469592 
L 211.78973 190.973041 
L 199.379294 190.973041 
L 199.379294 62.469592 
L 183.389121 62.469592 
L 183.389121 31.335902 
z
" clip-path="url(#pd947f1a796)" style="fill: #ff0000"/>
   </g>
   <g id="patch_12">
    <path d="M 230.083682 191.468438 
L 274.443515 191.468438 
L 274.443515 191.618914 
L 258.484291 191.618914 
L 258.484291 192.24 
L 246.073854 192.24 
L 246.073854 191.618914 
L 230.083682 191.618914 
L 230.083682 191.468438 
z
" clip-path="url(#pd947f1a796)" style="fill: #ff0000"/>
   </g>
   <g id="patch_13">
    <path d="M 260.811777 161.949861 
L 243.751698 161.949861 
L 241.058002 191.468438 
L 230.083682 191.468438 
L 245.756099 29.428818 
L 258.771098 29.428818 
L 274.443515 191.468438 
L 263.478265 191.468438 
L 260.811777 161.949861 
z
M 246.472604 131.875641 
L 258.063662 131.875641 
L 252.277203 67.420962 
L 246.472604 131.875641 
z
" clip-path="url(#pd947f1a796)" style="fill: #008000"/>
   </g>
   <g id="patch_14">
    <path d="M 321.138075 192.236234 
Q 317.427452 192.238101 313.415061 192.239045 
Q 309.40267 192.24 305.032628 192.24 
Q 292.00074 192.24 284.389491 192.232924 
Q 276.778243 192.225847 276.778243 192.213746 
Q 276.778243 192.201601 284.389491 192.194535 
Q 292.00074 192.187459 305.032628 192.187459 
Q 309.40267 192.187459 313.415061 192.188414 
Q 317.427452 192.189358 321.138075 192.191225 
L 321.138075 192.201698 
Q 317.393922 192.199224 313.761535 192.198073 
Q 310.129147 192.196923 306.116756 192.196923 
Q 298.919041 192.196923 294.794884 192.201405 
Q 290.681904 192.205877 290.681904 192.213746 
Q 290.681904 192.221582 294.794884 192.226064 
Q 298.919041 192.230536 306.116756 192.230536 
Q 310.129147 192.230536 313.761535 192.229385 
Q 317.393922 192.228224 321.138075 192.22575 
L 321.138075 192.236234 
z
" clip-path="url(#pd947f1a796)" style="fill: #0000ff"/>
   </g>
   <g id="patch_15">
    <path d="M 307.506338 185.0383 
L 290.446259 185.0383 
L 287.752562 192.187459 
L 276.778243 192.187459 
L 292.45066 152.942784 
L 305.465658 152.942784 
L 321.138075 192.187459 
L 310.172825 192.187459 
L 307.506338 185.0383 
z
M 293.167165 177.75457 
L 304.758223 177.75457 
L 298.971764 162.144172 
L 293.167165 177.75457 
z
" clip-path="url(#pd947f1a796)" style="fill: #008000"/>
   </g>
   <g id="patch_16">
    <path d="M 276.778243 109.498046 
L 321.138075 109.498046 
L 321.138075 117.97098 
L 305.178852 117.97098 
L 305.178852 152.942784 
L 292.768415 152.942784 
L 292.768415 117.97098 
L 276.778243 117.97098 
L 276.778243 109.498046 
z
" clip-path="url(#pd947f1a796)" style="fill: #ff0000"/>
   </g>
   <g id="patch_17">
    <path d="M 367.832636 192.210052 
Q 363.358874 192.225026 358.547095 192.232547 
Q 353.735316 192.24 348.605402 192.24 
Q 337.013389 192.24 330.243096 192.19542 
Q 323.472803 192.15084 323.472803 192.074603 
Q 323.472803 191.997477 330.362396 191.953239 
Q 337.261931 191.909001 349.261554 191.909001 
Q 353.884441 191.909001 358.119602 191.915018 
Q 362.364705 191.920967 366.122665 191.932727 
L 366.122665 191.998708 
Q 362.245405 191.983597 358.407911 191.976145 
Q 354.570418 191.968623 350.713041 191.968623 
Q 343.574906 191.968623 339.707587 191.99611 
Q 335.840269 192.023528 335.840269 192.074603 
Q 335.840269 192.1252 339.568404 192.152823 
Q 343.296539 192.180378 350.156306 192.180378 
Q 352.025345 192.180378 353.625957 192.178805 
Q 355.22657 192.177164 356.499106 192.173746 
L 356.499106 192.111799 
L 349.191962 192.111799 
L 349.191962 192.056621 
L 367.832636 192.056621 
L 367.832636 192.210052 
z
" clip-path="url(#pd947f1a796)" style="fill: #ffa600"/>
   </g>
   <g id="patch_18">
    <path d="M 323.472803 172.323784 
L 367.832636 172.323784 
L 367.832636 176.143447 
L 351.873412 176.143447 
L 351.873412 191.909001 
L 339.462976 191.909001 
L 339.462976 176.143447 
L 323.472803 176.143447 
L 323.472803 172.323784 
z
" clip-path="url(#pd947f1a796)" style="fill: #ff0000"/>
   </g>
   <g id="patch_19">
    <path d="M 354.200898 156.494758 
L 337.14082 156.494758 
L 334.447123 172.323784 
L 323.472803 172.323784 
L 339.14522 85.431741 
L 352.160219 85.431741 
L 367.832636 172.323784 
L 356.867386 172.323784 
L 354.200898 156.494758 
z
M 339.861725 140.367774 
L 351.452784 140.367774 
L 345.666324 105.804629 
L 339.861725 140.367774 
z
" clip-path="url(#pd947f1a796)" style="fill: #008000"/>
   </g>
   <g id="patch_20">
    <path d="M 414.527197 192.232124 
Q 410.053435 192.236062 405.241656 192.23804 
Q 400.429876 192.24 395.299963 192.24 
Q 383.707949 192.24 376.937657 192.228275 
Q 370.167364 192.216551 370.167364 192.1965 
Q 370.167364 192.176216 377.056957 192.164582 
Q 383.956492 192.152947 395.956115 192.152947 
Q 400.579002 192.152947 404.814163 192.154529 
Q 409.059266 192.156094 412.817226 192.159187 
L 412.817226 192.17654 
Q 408.939965 192.172566 405.102472 192.170606 
Q 401.264979 192.168628 397.407602 192.168628 
Q 390.269467 192.168628 386.402148 192.175857 
Q 382.53483 192.183068 382.53483 192.1965 
Q 382.53483 192.209807 386.262964 192.217072 
Q 389.991099 192.224319 396.850867 192.224319 
Q 398.719905 192.224319 400.320518 192.223906 
Q 401.92113 192.223474 403.193667 192.222575 
L 403.193667 192.206283 
L 395.886523 192.206283 
L 395.886523 192.191771 
L 414.527197 192.191771 
L 414.527197 192.232124 
z
" clip-path="url(#pd947f1a796)" style="fill: #ffa600"/>
   </g>
   <g id="patch_21">
    <path d="M 414.527197 192.143577 
Q 410.816573 192.148221 406.804182 192.150571 
Q 402.791791 192.152947 398.42175 192.152947 
Q 385.389861 192.152947 377.778613 192.135341 
Q 370.167364 192.117735 370.167364 192.087626 
Q 370.167364 192.057409 377.778613 192.03983 
Q 385.389861 192.022224 398.42175 192.022224 
Q 402.791791 192.022224 406.804182 192.0246 
Q 410.816573 192.02695 414.527197 192.031594 
L 414.527197 192.057652 
Q 410.783043 192.051496 407.150656 192.048633 
Q 403.518269 192.045771 399.505878 192.045771 
Q 392.308162 192.045771 388.184006 192.056923 
Q 384.071025 192.068049 384.071025 192.087626 
Q 384.071025 192.107122 388.184006 192.118275 
Q 392.308162 192.1294 399.505878 192.1294 
Q 403.518269 192.1294 407.150656 192.126538 
Q 410.783043 192.123648 414.527197 192.117492 
L 414.527197 192.143577 
z
" clip-path="url(#pd947f1a796)" style="fill: #0000ff"/>
   </g>
   <g id="patch_22">
    <path d="M 370.167364 185.793484 
L 414.527197 185.793484 
L 414.527197 187.008262 
L 398.567973 187.008262 
L 398.567973 192.022224 
L 386.157536 192.022224 
L 386.157536 187.008262 
L 370.167364 187.008262 
L 370.167364 185.793484 
z
" clip-path="url(#pd947f1a796)" style="fill: #ff0000"/>
   </g>
   <g id="patch_23">
    <path d="M 400.895459 160.798961 
L 383.83538 160.798961 
L 381.141684 185.793484 
L 370.167364 185.793484 
L 385.839781 48.588254 
L 398.85478 48.588254 
L 414.527197 185.793484 
L 403.561947 185.793484 
L 400.895459 160.798961 
z
M 386.556286 135.333952 
L 398.147344 135.333952 
L 392.360885 80.757676 
L 386.556286 135.333952 
z
" clip-path="url(#pd947f1a796)" style="fill: #008000"/>
   </g>
   <g id="patch_24">
    <path d="M 416.861925 190.021107 
L 461.221757 190.021107 
L 461.221757 190.453853 
L 445.262534 190.453853 
L 445.262534 192.24 
L 432.852097 192.24 
L 432.852097 190.453853 
L 416.861925 190.453853 
L 416.861925 190.021107 
z
" clip-path="url(#pd947f1a796)" style="fill: #ff0000"/>
   </g>
   <g id="patch_25">
    <path d="M 447.59002 161.727188 
L 430.529941 161.727188 
L 427.836244 190.021107 
L 416.861925 190.021107 
L 432.534342 34.704132 
L 445.54934 34.704132 
L 461.221757 190.021107 
L 450.256507 190.021107 
L 447.59002 161.727188 
z
M 433.250847 132.900677 
L 444.841905 132.900677 
L 439.055446 71.120071 
L 433.250847 132.900677 
z
" clip-path="url(#pd947f1a796)" style="fill: #008000"/>
   </g>
   <g id="patch_26">
    <path d="M 463.556485 25.92 
L 507.916318 25.92 
L 507.916318 58.357034 
L 491.957094 58.357034 
L 491.957094 192.24 
L 479.546658 192.24 
L 479.546658 58.357034 
L 463.556485 58.357034 
L 463.556485 25.92 
z
" clip-path="url(#pd947f1a796)" style="fill: #ff0000"/>
   </g>
   <g id="patch_27">
    <path d="M 554.610879 192.230602 
Q 550.137117 192.235301 545.325338 192.237661 
Q 540.513558 192.24 535.383645 192.24 
Q 523.791631 192.24 517.021339 192.22601 
Q 510.251046 192.212019 510.251046 192.188094 
Q 510.251046 192.16389 517.140639 192.150007 
Q 524.040174 192.136123 536.039797 192.136123 
Q 540.662684 192.136123 544.897845 192.138012 
Q 549.142948 192.139879 552.900908 192.143569 
L 552.900908 192.164276 
Q 549.023647 192.159534 545.186154 192.157195 
Q 541.348661 192.154835 537.491284 192.154835 
Q 530.353149 192.154835 526.48583 192.163461 
Q 522.618512 192.172065 522.618512 192.188094 
Q 522.618512 192.203973 526.346646 192.212641 
Q 530.074781 192.221289 536.934549 192.221289 
Q 538.803587 192.221289 540.4042 192.220795 
Q 542.004812 192.22028 543.277349 192.219208 
L 543.277349 192.199767 
L 535.970205 192.199767 
L 535.970205 192.182451 
L 554.610879 192.182451 
L 554.610879 192.230602 
z
" clip-path="url(#pd947f1a796)" style="fill: #ffa600"/>
   </g>
   <g id="patch_28">
    <path d="M 554.610879 192.124949 
Q 550.900255 192.130488 546.887864 192.13329 
Q 542.875473 192.136123 538.505432 192.136123 
Q 525.473543 192.136123 517.862295 192.115127 
Q 510.251046 192.09413 510.251046 192.058223 
Q 510.251046 192.022188 517.862295 192.001223 
Q 525.473543 191.980227 538.505432 191.980227 
Q 542.875473 191.980227 546.887864 191.983061 
Q 550.900255 191.985862 554.610879 191.991401 
L 554.610879 192.022478 
Q 550.866725 192.015135 547.234338 192.011722 
Q 543.601951 192.008308 539.58956 192.008308 
Q 532.391844 192.008308 528.267688 192.021608 
Q 524.154707 192.034876 524.154707 192.058223 
Q 524.154707 192.081474 528.267688 192.094774 
Q 532.391844 192.108042 539.58956 192.108042 
Q 543.601951 192.108042 547.234338 192.104629 
Q 550.866725 192.101183 554.610879 192.09384 
L 554.610879 192.124949 
z
" clip-path="url(#pd947f1a796)" style="fill: #0000ff"/>
   </g>
   <g id="patch_29">
    <path d="M 510.251046 191.82433 
L 554.610879 191.82433 
L 554.610879 191.854734 
L 538.651655 191.854734 
L 538.651655 191.980227 
L 526.241218 191.980227 
L 526.241218 191.854734 
L 510.251046 191.854734 
L 510.251046 191.82433 
z
" clip-path="url(#pd947f1a796)" style="fill: #ff0000"/>
   </g>
   <g id="patch_30">
    <path d="M 540.979141 162.005785 
L 523.919062 162.005785 
L 521.225366 191.82433 
L 510.251046 191.82433 
L 525.923463 28.138057 
L 538.938462 28.138057 
L 554.610879 191.82433 
L 543.645629 191.82433 
L 540.979141 162.005785 
z
M 526.639968 131.625949 
L 538.231026 131.625949 
L 532.444567 66.516279 
L 526.639968 131.625949 
z
" clip-path="url(#pd947f1a796)" style="fill: #008000"/>
   </g>
   <g id="patch_31">
    <path d="M 556.945607 192.106766 
L 601.305439 192.106766 
L 601.305439 192.13275 
L 585.346216 192.13275 
L 585.346216 192.24 
L 572.935779 192.24 
L 572.935779 192.13275 
L 556.945607 192.13275 
L 556.945607 192.106766 
z
" clip-path="url(#pd947f1a796)" style="fill: #ff0000"/>
   </g>
   <g id="patch_32">
    <path d="M 601.305439 192.046257 
Q 597.594816 192.07625 593.582425 192.09142 
Q 589.570034 192.106766 585.199992 192.106766 
Q 572.168104 192.106766 564.556855 191.993072 
Q 556.945607 191.879378 556.945607 191.684948 
Q 556.945607 191.489821 564.556855 191.376302 
Q 572.168104 191.262608 585.199992 191.262608 
Q 589.570034 191.262608 593.582425 191.277953 
Q 597.594816 191.293124 601.305439 191.323117 
L 601.305439 191.49139 
Q 597.561286 191.451632 593.928899 191.433148 
Q 590.296511 191.414664 586.28412 191.414664 
Q 579.086405 191.414664 574.962248 191.486682 
Q 570.849268 191.558525 570.849268 191.684948 
Q 570.849268 191.810848 574.962248 191.882866 
Q 579.086405 191.954709 586.28412 191.954709 
Q 590.296511 191.954709 593.928899 191.936225 
Q 597.561286 191.917567 601.305439 191.877809 
L 601.305439 192.046257 
z
" clip-path="url(#pd947f1a796)" style="fill: #0000ff"/>
   </g>
   <g id="patch_33">
    <path d="M 587.673702 190.469388 
L 570.613623 190.469388 
L 567.919926 191.262608 
L 556.945607 191.262608 
L 572.618024 186.908295 
L 585.633022 186.908295 
L 601.305439 191.262608 
L 590.340189 191.262608 
L 587.673702 190.469388 
z
M 573.334529 189.661236 
L 584.925587 189.661236 
L 579.139128 187.929217 
L 573.334529 189.661236 
z
" clip-path="url(#pd947f1a796)" style="fill: #008000"/>
   </g>
   <g id="patch_34">
    <path d="M 601.305439 174.244926 
Q 596.831678 180.576611 592.019898 183.756909 
Q 587.208119 186.908295 582.078206 186.908295 
Q 570.486192 186.908295 563.715899 168.0578 
Q 556.945607 149.207304 556.945607 116.970644 
Q 556.945607 84.35813 563.8352 65.652193 
Q 570.734734 46.946256 582.734357 46.946256 
Q 587.357245 46.946256 591.592406 49.490495 
Q 595.837508 52.005822 599.595468 56.978652 
L 599.595468 84.878542 
Q 595.718208 78.489034 591.880715 75.337647 
Q 588.043221 72.157349 584.185845 72.157349 
Q 577.047709 72.157349 573.180391 83.779894 
Q 569.313072 95.373527 569.313072 116.970644 
Q 569.313072 138.365378 573.041207 150.045746 
Q 576.769342 161.697203 583.62911 161.697203 
Q 585.498148 161.697203 587.098761 161.032232 
Q 588.699373 160.338348 589.97191 158.892758 
L 589.97191 132.698665 
L 582.664766 132.698665 
L 582.664766 109.366839 
L 601.305439 109.366839 
L 601.305439 174.244926 
z
" clip-path="url(#pd947f1a796)" style="fill: #ffa600"/>
   </g>
   <g id="patch_35">
    <path d="M 648 192.140729 
Q 643.526238 192.190364 638.714459 192.215296 
Q 633.90268 192.24 628.772766 192.24 
Q 617.180753 192.24 610.41046 192.092227 
Q 603.640167 191.944453 603.640167 191.691743 
Q 603.640167 191.436086 610.52976 191.289446 
Q 617.429295 191.142806 629.428918 191.142806 
Q 634.051805 191.142806 638.286966 191.162751 
Q 642.532069 191.182469 646.290029 191.221452 
L 646.290029 191.440166 
Q 642.412769 191.390077 638.575275 191.365372 
Q 634.737782 191.340441 630.880405 191.340441 
Q 623.74227 191.340441 619.874951 191.431553 
Q 616.007633 191.522438 616.007633 191.691743 
Q 616.007633 191.859461 619.735768 191.951026 
Q 623.463903 192.042365 630.32367 192.042365 
Q 632.192709 192.042365 633.793321 192.037152 
Q 635.393934 192.031712 636.66647 192.02038 
L 636.66647 191.815038 
L 629.359326 191.815038 
L 629.359326 191.632135 
L 648 191.632135 
L 648 192.140729 
z
" clip-path="url(#pd947f1a796)" style="fill: #ffa600"/>
   </g>
   <g id="patch_36">
    <path d="M 603.640167 185.534952 
L 648 185.534952 
L 648 186.628639 
L 632.040776 186.628639 
L 632.040776 191.142806 
L 619.63034 191.142806 
L 619.63034 186.628639 
L 603.640167 186.628639 
L 603.640167 185.534952 
z
" clip-path="url(#pd947f1a796)" style="fill: #ff0000"/>
   </g>
   <g id="patch_37">
    <path d="M 634.368262 183.489781 
L 617.308184 183.489781 
L 614.614487 185.534952 
L 603.640167 185.534952 
L 619.312584 174.308171 
L 632.327583 174.308171 
L 648 185.534952 
L 637.03475 185.534952 
L 634.368262 183.489781 
z
M 620.029089 181.406114 
L 631.620148 181.406114 
L 625.833688 176.940425 
L 620.029089 181.406114 
z
" clip-path="url(#pd947f1a796)" style="fill: #008000"/>
   </g>
   <g id="patch_38">
    <path d="M 648 172.60974 
Q 644.289377 173.451613 640.276986 173.877445 
Q 636.264595 174.308171 631.894553 174.308171 
Q 618.862665 174.308171 611.251416 171.116882 
Q 603.640167 167.925594 603.640167 162.4681 
Q 603.640167 156.991027 611.251416 153.804633 
Q 618.862665 150.613345 631.894553 150.613345 
Q 636.264595 150.613345 640.276986 151.044071 
Q 644.289377 151.469902 648 152.311776 
L 648 157.035078 
Q 644.255847 155.919106 640.623459 155.400277 
Q 636.991072 154.881448 632.978681 154.881448 
Q 625.780966 154.881448 621.656809 156.902924 
Q 617.543829 158.919505 617.543829 162.4681 
Q 617.543829 166.002011 621.656809 168.023486 
Q 625.780966 170.040067 632.978681 170.040067 
Q 636.991072 170.040067 640.623459 169.521238 
Q 644.255847 168.997515 648 167.881543 
L 648 172.60974 
z
" clip-path="url(#pd947f1a796)" style="fill: #0000ff"/>
   </g>
   <g id="matplotlib.axis_1">
    <g id="xtick_1">
     <g id="line2d_2">
      <defs>
       <path id="m2a2ea804db" d="M 0 0 
L 0 3.5 
" style="stroke: #000000; stroke-width: 0.8"/>
      </defs>
      <g>
       <use xlink:href="#m2a2ea804db" x="112.179916" y="192.24" style="stroke: #000000; stroke-width: 0.8"/>
      </g>
     </g>
     <g id="text_1">
      <!-- 0 -->
      <g transform="translate(108.998666 206.838437) scale(0.1 -0.1)">
       <defs>
        <path id="DejaVuSans-30" d="M 2034 4250 
Q 1547 4250 1301 3770 
Q 1056 3291 1056 2328 
Q 1056 1369 1301 889 
Q 1547 409 2034 409 
Q 2525 409 2770 889 
Q 3016 1369 3016 2328 
Q 3016 3291 2770 3770 
Q 2525 4250 2034 4250 
z
M 2034 4750 
Q 2819 4750 3233 4129 
Q 3647 3509 3647 2328 
Q 3647 1150 3233 529 
Q 2819 -91 2034 -91 
Q 1250 -91 836 529 
Q 422 1150 422 2328 
Q 422 3509 836 4129 
Q 1250 4750 2034 4750 
z
" transform="scale(0.015625)"/>
       </defs>
       <use xlink:href="#DejaVuSans-30"/>
      </g>
     </g>
    </g>
    <g id="xtick_2">
     <g id="line2d_3">
      <g>
       <use xlink:href="#m2a2ea804db" x="205.569038" y="192.24" style="stroke: #000000; stroke-width: 0.8"/>
      </g>
     </g>
     <g id="text_2">
      <!-- 2 -->
      <g transform="translate(202.387788 206.838437) scale(0.1 -0.1)">
       <defs>
        <path id="DejaVuSans-32" d="M 1228 531 
L 3431 531 
L 3431 0 
L 469 0 
L 469 531 
Q 828 903 1448 1529 
Q 2069 2156 2228 2338 
Q 2531 2678 2651 2914 
Q 2772 3150 2772 3378 
Q 2772 3750 2511 3984 
Q 2250 4219 1831 4219 
Q 1534 4219 1204 4116 
Q 875 4013 500 3803 
L 500 4441 
Q 881 4594 1212 4672 
Q 1544 4750 1819 4750 
Q 2544 4750 2975 4387 
Q 3406 4025 3406 3419 
Q 3406 3131 3298 2873 
Q 3191 2616 2906 2266 
Q 2828 2175 2409 1742 
Q 1991 1309 1228 531 
z
" transform="scale(0.015625)"/>
       </defs>
       <use xlink:href="#DejaVuSans-32"/>
      </g>
     </g>
    </g>
    <g id="xtick_3">
     <g id="line2d_4">
      <g>
       <use xlink:href="#m2a2ea804db" x="298.958159" y="192.24" style="stroke: #000000; stroke-width: 0.8"/>
      </g>
     </g>
     <g id="text_3">
      <!-- 4 -->
      <g transform="translate(295.776909 206.838437) scale(0.1 -0.1)">
       <defs>
        <path id="DejaVuSans-34" d="M 2419 4116 
L 825 1625 
L 2419 1625 
L 2419 4116 
z
M 2253 4666 
L 3047 4666 
L 3047 1625 
L 3713 1625 
L 3713 1100 
L 3047 1100 
L 3047 0 
L 2419 0 
L 2419 1100 
L 313 1100 
L 313 1709 
L 2253 4666 
z
" transform="scale(0.015625)"/>
       </defs>
       <use xlink:href="#DejaVuSans-34"/>
      </g>
     </g>
    </g>
    <g id="xtick_4">
     <g id="line2d_5">
      <g>
       <use xlink:href="#m2a2ea804db" x="392.34728" y="192.24" style="stroke: #000000; stroke-width: 0.8"/>
      </g>
     </g>
     <g id="text_4">
      <!-- 6 -->
      <g transform="translate(389.16603 206.838437) scale(0.1 -0.1)">
       <defs>
        <path id="DejaVuSans-36" d="M 2113 2584 
Q 1688 2584 1439 2293 
Q 1191 2003 1191 1497 
Q 1191 994 1439 701 
Q 1688 409 2113 409 
Q 2538 409 2786 701 
Q 3034 994 3034 1497 
Q 3034 2003 2786 2293 
Q 2538 2584 2113 2584 
z
M 3366 4563 
L 3366 3988 
Q 3128 4100 2886 4159 
Q 2644 4219 2406 4219 
Q 1781 4219 1451 3797 
Q 1122 3375 1075 2522 
Q 1259 2794 1537 2939 
Q 1816 3084 2150 3084 
Q 2853 3084 3261 2657 
Q 3669 2231 3669 1497 
Q 3669 778 3244 343 
Q 2819 -91 2113 -91 
Q 1303 -91 875 529 
Q 447 1150 447 2328 
Q 447 3434 972 4092 
Q 1497 4750 2381 4750 
Q 2619 4750 2861 4703 
Q 3103 4656 3366 4563 
z
" transform="scale(0.015625)"/>
       </defs>
       <use xlink:href="#DejaVuSans-36"/>
      </g>
     </g>
    </g>
    <g id="xtick_5">
     <g id="line2d_6">
      <g>
       <use xlink:href="#m2a2ea804db" x="485.736402" y="192.24" style="stroke: #000000; stroke-width: 0.8"/>
      </g>
     </g>
     <g id="text_5">
      <!-- 8 -->
      <g transform="translate(482.555152 206.838437) scale(0.1 -0.1)">
       <defs>
        <path id="DejaVuSans-38" d="M 2034 2216 
Q 1584 2216 1326 1975 
Q 1069 1734 1069 1313 
Q 1069 891 1326 650 
Q 1584 409 2034 409 
Q 2484 409 2743 651 
Q 3003 894 3003 1313 
Q 3003 1734 2745 1975 
Q 2488 2216 2034 2216 
z
M 1403 2484 
Q 997 2584 770 2862 
Q 544 3141 544 3541 
Q 544 4100 942 4425 
Q 1341 4750 2034 4750 
Q 2731 4750 3128 4425 
Q 3525 4100 3525 3541 
Q 3525 3141 3298 2862 
Q 3072 2584 2669 2484 
Q 3125 2378 3379 2068 
Q 3634 1759 3634 1313 
Q 3634 634 3220 271 
Q 2806 -91 2034 -91 
Q 1263 -91 848 271 
Q 434 634 434 1313 
Q 434 1759 690 2068 
Q 947 2378 1403 2484 
z
M 1172 3481 
Q 1172 3119 1398 2916 
Q 1625 2713 2034 2713 
Q 2441 2713 2670 2916 
Q 2900 3119 2900 3481 
Q 2900 3844 2670 4047 
Q 2441 4250 2034 4250 
Q 1625 4250 1398 4047 
Q 1172 3844 1172 3481 
z
" transform="scale(0.015625)"/>
       </defs>
       <use xlink:href="#DejaVuSans-38"/>
      </g>
     </g>
    </g>
    <g id="xtick_6">
     <g id="line2d_7">
      <g>
       <use xlink:href="#m2a2ea804db" x="579.125523" y="192.24" style="stroke: #000000; stroke-width: 0.8"/>
      </g>
     </g>
     <g id="text_6">
      <!-- 10 -->
      <g transform="translate(572.763023 206.838437) scale(0.1 -0.1)">
       <defs>
        <path id="DejaVuSans-31" d="M 794 531 
L 1825 531 
L 1825 4091 
L 703 3866 
L 703 4441 
L 1819 4666 
L 2450 4666 
L 2450 531 
L 3481 531 
L 3481 0 
L 794 0 
L 794 531 
z
" transform="scale(0.015625)"/>
       </defs>
       <use xlink:href="#DejaVuSans-31"/>
       <use xlink:href="#DejaVuSans-30" x="63.623047"/>
      </g>
     </g>
    </g>
   </g>
   <g id="matplotlib.axis_2">
    <g id="ytick_1">
     <g id="line2d_8">
      <defs>
       <path id="m2be71244ef" d="M 0 0 
L -3.5 0 
" style="stroke: #000000; stroke-width: 0.8"/>
      </defs>
      <g>
       <use xlink:href="#m2be71244ef" x="90" y="192.24" style="stroke: #000000; stroke-width: 0.8"/>
      </g>
     </g>
     <g id="text_7">
      <!-- 0.00 -->
      <g transform="translate(60.734375 196.039219) scale(0.1 -0.1)">
       <defs>
        <path id="DejaVuSans-2e" d="M 684 794 
L 1344 794 
L 1344 0 
L 684 0 
L 684 794 
z
" transform="scale(0.015625)"/>
       </defs>
       <use xlink:href="#DejaVuSans-30"/>
       <use xlink:href="#DejaVuSans-2e" x="63.623047"/>
       <use xlink:href="#DejaVuSans-30" x="95.410156"/>
       <use xlink:href="#DejaVuSans-30" x="159.033203"/>
      </g>
     </g>
    </g>
    <g id="ytick_2">
     <g id="line2d_9">
      <g>
       <use xlink:href="#m2be71244ef" x="90" y="171.405025" style="stroke: #000000; stroke-width: 0.8"/>
      </g>
     </g>
     <g id="text_8">
      <!-- 0.25 -->
      <g transform="translate(60.734375 175.204243) scale(0.1 -0.1)">
       <defs>
        <path id="DejaVuSans-35" d="M 691 4666 
L 3169 4666 
L 3169 4134 
L 1269 4134 
L 1269 2991 
Q 1406 3038 1543 3061 
Q 1681 3084 1819 3084 
Q 2600 3084 3056 2656 
Q 3513 2228 3513 1497 
Q 3513 744 3044 326 
Q 2575 -91 1722 -91 
Q 1428 -91 1123 -41 
Q 819 9 494 109 
L 494 744 
Q 775 591 1075 516 
Q 1375 441 1709 441 
Q 2250 441 2565 725 
Q 2881 1009 2881 1497 
Q 2881 1984 2565 2268 
Q 2250 2553 1709 2553 
Q 1456 2553 1204 2497 
Q 953 2441 691 2322 
L 691 4666 
z
" transform="scale(0.015625)"/>
       </defs>
       <use xlink:href="#DejaVuSans-30"/>
       <use xlink:href="#DejaVuSans-2e" x="63.623047"/>
       <use xlink:href="#DejaVuSans-32" x="95.410156"/>
       <use xlink:href="#DejaVuSans-35" x="159.033203"/>
      </g>
     </g>
    </g>
    <g id="ytick_3">
     <g id="line2d_10">
      <g>
       <use xlink:href="#m2be71244ef" x="90" y="150.570049" style="stroke: #000000; stroke-width: 0.8"/>
      </g>
     </g>
     <g id="text_9">
      <!-- 0.50 -->
      <g transform="translate(60.734375 154.369268) scale(0.1 -0.1)">
       <use xlink:href="#DejaVuSans-30"/>
       <use xlink:href="#DejaVuSans-2e" x="63.623047"/>
       <use xlink:href="#DejaVuSans-35" x="95.410156"/>
       <use xlink:href="#DejaVuSans-30" x="159.033203"/>
      </g>
     </g>
    </g>
    <g id="ytick_4">
     <g id="line2d_11">
      <g>
       <use xlink:href="#m2be71244ef" x="90" y="129.735074" style="stroke: #000000; stroke-width: 0.8"/>
      </g>
     </g>
     <g id="text_10">
      <!-- 0.75 -->
      <g transform="translate(60.734375 133.534293) scale(0.1 -0.1)">
       <defs>
        <path id="DejaVuSans-37" d="M 525 4666 
L 3525 4666 
L 3525 4397 
L 1831 0 
L 1172 0 
L 2766 4134 
L 525 4134 
L 525 4666 
z
" transform="scale(0.015625)"/>
       </defs>
       <use xlink:href="#DejaVuSans-30"/>
       <use xlink:href="#DejaVuSans-2e" x="63.623047"/>
       <use xlink:href="#DejaVuSans-37" x="95.410156"/>
       <use xlink:href="#DejaVuSans-35" x="159.033203"/>
      </g>
     </g>
    </g>
    <g id="ytick_5">
     <g id="line2d_12">
      <g>
       <use xlink:href="#m2be71244ef" x="90" y="108.900099" style="stroke: #000000; stroke-width: 0.8"/>
      </g>
     </g>
     <g id="text_11">
      <!-- 1.00 -->
      <g transform="translate(60.734375 112.699317) scale(0.1 -0.1)">
       <use xlink:href="#DejaVuSans-31"/>
       <use xlink:href="#DejaVuSans-2e" x="63.623047"/>
       <use xlink:href="#DejaVuSans-30" x="95.410156"/>
       <use xlink:href="#DejaVuSans-30" x="159.033203"/>
      </g>
     </g>
    </g>
    <g id="ytick_6">
     <g id="line2d_13">
      <g>
       <use xlink:href="#m2be71244ef" x="90" y="88.065123" style="stroke: #000000; stroke-width: 0.8"/>
      </g>
     </g>
     <g id="text_12">
      <!-- 1.25 -->
      <g transform="translate(60.734375 91.864342) scale(0.1 -0.1)">
       <use xlink:href="#DejaVuSans-31"/>
       <use xlink:href="#DejaVuSans-2e" x="63.623047"/>
       <use xlink:href="#DejaVuSans-32" x="95.410156"/>
       <use xlink:href="#DejaVuSans-35" x="159.033203"/>
      </g>
     </g>
    </g>
    <g id="ytick_7">
     <g id="line2d_14">
      <g>
       <use xlink:href="#m2be71244ef" x="90" y="67.230148" style="stroke: #000000; stroke-width: 0.8"/>
      </g>
     </g>
     <g id="text_13">
      <!-- 1.50 -->
      <g transform="translate(60.734375 71.029367) scale(0.1 -0.1)">
       <use xlink:href="#DejaVuSans-31"/>
       <use xlink:href="#DejaVuSans-2e" x="63.623047"/>
       <use xlink:href="#DejaVuSans-35" x="95.410156"/>
       <use xlink:href="#DejaVuSans-30" x="159.033203"/>
      </g>
     </g>
    </g>
    <g id="ytick_8">
     <g id="line2d_15">
      <g>
       <use xlink:href="#m2be71244ef" x="90" y="46.395172" style="stroke: #000000; stroke-width: 0.8"/>
      </g>
     </g>
     <g id="text_14">
      <!-- 1.75 -->
      <g transform="translate(60.734375 50.194391) scale(0.1 -0.1)">
       <use xlink:href="#DejaVuSans-31"/>
       <use xlink:href="#DejaVuSans-2e" x="63.623047"/>
       <use xlink:href="#DejaVuSans-37" x="95.410156"/>
       <use xlink:href="#DejaVuSans-35" x="159.033203"/>
      </g>
     </g>
    </g>
   </g>
  </g>
 </g>
 <defs>
  <clipPath id="pd947f1a796">
   <rect x="90" y="25.92" width="558" height="166.32"/>
  </clipPath>
 </defs>
</svg>
