<?xml version="1.0" encoding="utf-8" standalone="no"?>
<!DOCTYPE svg PUBLIC "-//W3C//DTD SVG 1.1//EN"
  "http://www.w3.org/Graphics/SVG/1.1/DTD/svg11.dtd">
<svg xmlns:xlink="http://www.w3.org/1999/xlink" width="720pt" height="216pt" viewBox="0 0 720 216" xmlns="http://www.w3.org/2000/svg" version="1.1">
 <metadata>
  <rdf:RDF xmlns:dc="http://purl.org/dc/elements/1.1/" xmlns:cc="http://creativecommons.org/ns#" xmlns:rdf="http://www.w3.org/1999/02/22-rdf-syntax-ns#">
   <cc:Work>
    <dc:type rdf:resource="http://purl.org/dc/dcmitype/StillImage"/>
    <dc:date>2024-11-23T05:02:49.015041</dc:date>
    <dc:format>image/svg+xml</dc:format>
    <dc:creator>
     <cc:Agent>
      <dc:title>Matplotlib v3.7.2, https://matplotlib.org/</dc:title>
     </cc:Agent>
    </dc:creator>
   </cc:Work>
  </rdf:RDF>
 </metadata>
 <defs>
  <style type="text/css">*{stroke-linejoin: round; stroke-linecap: butt}</style>
 </defs>
 <g id="figure_1">
  <g id="patch_1">
   <path d="M 0 216 
L 720 216 
L 720 0 
L 0 0 
z
" style="fill: #ffffff"/>
  </g>
  <g id="axes_1">
   <g id="patch_2">
    <path d="M 90 192.24 
L 648 192.24 
L 648 25.92 
L 90 25.92 
z
" style="fill: #ffffff"/>
   </g>
   <g id="line2d_1">
    <path d="M 90 192.24 
L 648 192.24 
" clip-path="url(#p58e2fc9f01)" style="fill: none; stroke: #000000; stroke-width: 0.5; stroke-linecap: square"/>
   </g>
   <g id="patch_3">
    <path d="M 125.458194 192.179102 
Q 121.882177 192.209551 118.035972 192.224845 
Q 114.189767 192.24 110.089268 192.24 
Q 100.823411 192.24 95.411706 192.149348 
Q 90 192.058697 90 191.903672 
Q 90 191.746839 95.507066 191.656882 
Q 101.022079 191.566926 110.613751 191.566926 
Q 114.308968 191.566926 117.694264 191.579161 
Q 121.087507 191.591257 124.091361 191.615172 
L 124.091361 191.749341 
Q 120.992146 191.718614 117.924718 191.703459 
Q 114.857291 191.688166 111.773969 191.688166 
Q 106.068236 191.688166 102.976968 191.744058 
Q 99.8857 191.799812 99.8857 191.903672 
Q 99.8857 192.006558 102.865714 192.062729 
Q 105.845728 192.11876 111.328954 192.11876 
Q 112.822934 192.11876 114.102354 192.115563 
Q 115.381773 192.112226 116.398951 192.105274 
L 116.398951 191.979307 
L 110.558124 191.979307 
L 110.558124 191.867105 
L 125.458194 191.867105 
L 125.458194 192.179102 
z
" clip-path="url(#p58e2fc9f01)" style="fill: #ffa600"/>
   </g>
   <g id="patch_4">
    <path d="M 90 185.569758 
L 125.458194 185.569758 
L 125.458194 186.739373 
L 112.70149 186.739373 
L 112.70149 191.566926 
L 102.781442 191.566926 
L 102.781442 186.739373 
L 90 186.739373 
L 90 185.569758 
z
" clip-path="url(#p58e2fc9f01)" style="fill: #ff0000"/>
   </g>
   <g id="patch_5">
    <path d="M 125.458194 184.681064 
Q 122.492177 185.121569 119.284948 185.344383 
Q 116.077719 185.569758 112.584609 185.569758 
Q 102.167816 185.569758 96.083908 183.899936 
Q 90 182.230114 90 179.374513 
Q 90 176.508668 96.083908 174.841407 
Q 102.167816 173.171585 112.584609 173.171585 
Q 116.077719 173.171585 119.284948 173.39696 
Q 122.492177 173.619773 125.458194 174.060279 
L 125.458194 176.531718 
Q 122.465376 175.947792 119.561896 175.676318 
Q 116.658415 175.404844 113.451186 175.404844 
Q 107.697829 175.404844 104.401262 176.462569 
Q 101.113629 177.517732 101.113629 179.374513 
Q 101.113629 181.22361 104.401262 182.281335 
Q 107.697829 183.336499 113.451186 183.336499 
Q 116.658415 183.336499 119.561896 183.065025 
Q 122.465376 182.790989 125.458194 182.207064 
L 125.458194 184.681064 
z
" clip-path="url(#p58e2fc9f01)" style="fill: #0000ff"/>
   </g>
   <g id="patch_6">
    <path d="M 114.561922 169.203777 
L 100.925271 169.203777 
L 98.772115 173.171585 
L 90 173.171585 
L 102.52745 151.390654 
L 112.930744 151.390654 
L 125.458194 173.171585 
L 116.693329 173.171585 
L 114.561922 169.203777 
z
M 103.100175 165.161281 
L 112.365269 165.161281 
L 107.739972 156.497456 
L 103.100175 165.161281 
z
" clip-path="url(#p58e2fc9f01)" style="fill: #008000"/>
   </g>
   <g id="patch_7">
    <path d="M 151.886337 192.233085 
L 138.249685 192.233085 
L 136.09653 192.24 
L 127.324415 192.24 
L 139.851865 192.202039 
L 150.255158 192.202039 
L 162.782609 192.24 
L 154.017743 192.24 
L 151.886337 192.233085 
z
M 140.42459 192.226039 
L 149.689683 192.226039 
L 145.064386 192.210939 
L 140.42459 192.226039 
z
" clip-path="url(#p58e2fc9f01)" style="fill: #008000"/>
   </g>
   <g id="patch_8">
    <path d="M 162.782609 192.162145 
Q 159.816592 192.181919 156.609363 192.191921 
Q 153.402134 192.202039 149.909024 192.202039 
Q 139.49223 192.202039 133.408323 192.127079 
Q 127.324415 192.05212 127.324415 191.92393 
Q 127.324415 191.79528 133.408323 191.720435 
Q 139.49223 191.645476 149.909024 191.645476 
Q 153.402134 191.645476 156.609363 191.655593 
Q 159.816592 191.665595 162.782609 191.68537 
L 162.782609 191.796314 
Q 159.789791 191.770102 156.88631 191.757915 
Q 153.98283 191.745728 150.775601 191.745728 
Q 145.022243 191.745728 141.725677 191.79321 
Q 138.438044 191.840577 138.438044 191.92393 
Q 138.438044 192.006937 141.725677 192.054419 
Q 145.022243 192.101786 150.775601 192.101786 
Q 153.98283 192.101786 156.88631 192.089599 
Q 159.789791 192.077298 162.782609 192.051085 
L 162.782609 192.162145 
z
" clip-path="url(#p58e2fc9f01)" style="fill: #0000ff"/>
   </g>
   <g id="patch_9">
    <path d="M 127.324415 178.792606 
L 162.782609 178.792606 
L 162.782609 181.299274 
L 150.025905 181.299274 
L 150.025905 191.645476 
L 140.105857 191.645476 
L 140.105857 181.299274 
L 127.324415 181.299274 
L 127.324415 178.792606 
z
" clip-path="url(#p58e2fc9f01)" style="fill: #ff0000"/>
   </g>
   <g id="patch_10">
    <path d="M 162.782609 168.929807 
Q 159.206592 173.861206 155.360387 176.338165 
Q 151.514182 178.792606 147.413683 178.792606 
Q 138.147826 178.792606 132.73612 164.110996 
Q 127.324415 149.429386 127.324415 124.322031 
Q 127.324415 98.921945 132.831481 84.352924 
Q 138.346493 69.783903 147.938165 69.783903 
Q 151.633383 69.783903 155.018679 71.76547 
Q 158.411921 73.724519 161.415776 77.597582 
L 161.415776 99.327265 
Q 158.316561 94.35083 155.249133 91.896389 
Q 152.181705 89.41943 149.098384 89.41943 
Q 143.392651 89.41943 140.301383 98.471589 
Q 137.210115 107.501229 137.210115 124.322031 
Q 137.210115 140.985208 140.190129 150.082402 
Q 143.170143 159.157078 148.653369 159.157078 
Q 150.147349 159.157078 151.426768 158.639169 
Q 152.706188 158.098741 153.723366 156.972851 
L 153.723366 136.571718 
L 147.882538 136.571718 
L 147.882538 118.399848 
L 162.782609 118.399848 
L 162.782609 168.929807 
z
" clip-path="url(#p58e2fc9f01)" style="fill: #ffa600"/>
   </g>
   <g id="patch_11">
    <path d="M 200.107023 192.225898 
Q 196.531007 192.232949 192.684802 192.23649 
Q 188.838597 192.24 184.738098 192.24 
Q 175.472241 192.24 170.060535 192.219007 
Q 164.648829 192.198015 164.648829 192.162114 
Q 164.648829 192.125796 170.155895 192.104964 
Q 175.670908 192.084132 185.26258 192.084132 
Q 188.957797 192.084132 192.343093 192.086966 
Q 195.736336 192.089767 198.74019 192.095305 
L 198.74019 192.126375 
Q 195.640976 192.11926 192.573548 192.11575 
Q 189.50612 192.112208 186.422799 192.112208 
Q 180.717065 192.112208 177.625797 192.125152 
Q 174.534529 192.138063 174.534529 192.162114 
Q 174.534529 192.185941 177.514543 192.198948 
Q 180.494558 192.211924 185.977783 192.211924 
Q 187.471764 192.211924 188.751183 192.211183 
Q 190.030603 192.210411 191.047781 192.208801 
L 191.047781 192.17963 
L 185.206953 192.17963 
L 185.206953 192.153647 
L 200.107023 192.153647 
L 200.107023 192.225898 
z
" clip-path="url(#p58e2fc9f01)" style="fill: #ffa600"/>
   </g>
   <g id="patch_12">
    <path d="M 164.648829 191.876309 
L 200.107023 191.876309 
L 200.107023 191.91684 
L 187.35032 191.91684 
L 187.35032 192.084132 
L 177.430271 192.084132 
L 177.430271 191.91684 
L 164.648829 191.91684 
L 164.648829 191.876309 
z
" clip-path="url(#p58e2fc9f01)" style="fill: #ff0000"/>
   </g>
   <g id="patch_13">
    <path d="M 189.210752 161.990837 
L 175.5741 161.990837 
L 173.420944 191.876309 
L 164.648829 191.876309 
L 177.17628 27.822647 
L 187.579573 27.822647 
L 200.107023 191.876309 
L 191.342158 191.876309 
L 189.210752 161.990837 
z
M 177.749005 131.542815 
L 187.014098 131.542815 
L 182.388801 66.287007 
L 177.749005 131.542815 
z
" clip-path="url(#p58e2fc9f01)" style="fill: #008000"/>
   </g>
   <g id="patch_14">
    <path d="M 237.431438 192.233754 
Q 233.855421 192.236877 230.009216 192.238446 
Q 226.163012 192.24 222.062512 192.24 
Q 212.796655 192.24 207.38495 192.230703 
Q 201.973244 192.221405 201.973244 192.205505 
Q 201.973244 192.18942 207.48031 192.180194 
Q 212.995323 192.170968 222.586995 192.170968 
Q 226.282212 192.170968 229.667508 192.172223 
Q 233.060751 192.173464 236.064605 192.175916 
L 236.064605 192.189677 
Q 232.96539 192.186526 229.897963 192.184971 
Q 226.830535 192.183403 223.747214 192.183403 
Q 218.04148 192.183403 214.950212 192.189135 
Q 211.858944 192.194853 211.858944 192.205505 
Q 211.858944 192.216058 214.838958 192.221819 
Q 217.818972 192.227565 223.302198 192.227565 
Q 224.796179 192.227565 226.075598 192.227237 
Q 227.355017 192.226895 228.372195 192.226182 
L 228.372195 192.213263 
L 222.531368 192.213263 
L 222.531368 192.201755 
L 237.431438 192.201755 
L 237.431438 192.233754 
z
" clip-path="url(#p58e2fc9f01)" style="fill: #ffa600"/>
   </g>
   <g id="patch_15">
    <path d="M 237.431438 180.281301 
Q 234.465421 186.174738 231.258192 189.155721 
Q 228.050964 192.170968 224.557853 192.170968 
Q 214.14106 192.170968 208.057152 169.830729 
Q 201.973244 147.490489 201.973244 109.285939 
Q 201.973244 70.944332 208.057152 48.638356 
Q 214.14106 26.298117 224.557853 26.298117 
Q 228.050964 26.298117 231.258192 29.313364 
Q 234.465421 32.294347 237.431438 38.187784 
L 237.431438 71.252709 
Q 234.43862 63.440478 231.53514 59.808476 
Q 228.63166 56.176474 225.424431 56.176474 
Q 219.671073 56.176474 216.374506 70.327576 
Q 213.086873 84.444415 213.086873 109.285939 
Q 213.086873 134.02467 216.374506 148.175773 
Q 219.671073 162.292611 225.424431 162.292611 
Q 228.63166 162.292611 231.53514 158.660609 
Q 234.43862 154.994343 237.431438 147.182112 
L 237.431438 180.281301 
z
" clip-path="url(#p58e2fc9f01)" style="fill: #0000ff"/>
   </g>
   <g id="patch_16">
    <path d="M 274.755853 192.233758 
Q 271.179836 192.236879 267.333631 192.238447 
Q 263.487426 192.24 259.386927 192.24 
Q 250.12107 192.24 244.709364 192.230709 
Q 239.297659 192.221418 239.297659 192.205528 
Q 239.297659 192.189454 244.804725 192.180234 
Q 250.319738 192.171014 259.911409 192.171014 
Q 263.606627 192.171014 266.991923 192.172268 
Q 270.385166 192.173508 273.38902 192.175959 
L 273.38902 192.18971 
Q 270.289805 192.186561 267.222377 192.185008 
Q 264.154949 192.18344 261.071628 192.18344 
Q 255.365895 192.18344 252.274627 192.189169 
Q 249.183359 192.194883 249.183359 192.205528 
Q 249.183359 192.216074 252.163373 192.221831 
Q 255.143387 192.227574 260.626613 192.227574 
Q 262.120593 192.227574 263.400013 192.227246 
Q 264.679432 192.226904 265.69661 192.226191 
L 265.69661 192.213281 
L 259.855783 192.213281 
L 259.855783 192.20178 
L 274.755853 192.20178 
L 274.755853 192.233758 
z
" clip-path="url(#p58e2fc9f01)" style="fill: #ffa600"/>
   </g>
   <g id="patch_17">
    <path d="M 239.297659 192.067617 
L 274.755853 192.067617 
L 274.755853 192.087782 
L 261.999149 192.087782 
L 261.999149 192.171014 
L 252.079101 192.171014 
L 252.079101 192.087782 
L 239.297659 192.087782 
L 239.297659 192.067617 
z
" clip-path="url(#p58e2fc9f01)" style="fill: #ff0000"/>
   </g>
   <g id="patch_18">
    <path d="M 263.859581 192.042513 
L 250.222929 192.042513 
L 248.069774 192.067617 
L 239.297659 192.067617 
L 251.825109 191.92981 
L 262.228403 191.92981 
L 274.755853 192.067617 
L 265.990987 192.067617 
L 263.859581 192.042513 
z
M 252.397834 192.016936 
L 261.662927 192.016936 
L 257.03763 191.96212 
L 252.397834 192.016936 
z
" clip-path="url(#p58e2fc9f01)" style="fill: #008000"/>
   </g>
   <g id="patch_19">
    <path d="M 274.755853 180.150419 
Q 271.789836 185.989195 268.582607 188.942529 
Q 265.375378 191.92981 261.882268 191.92981 
Q 251.465474 191.92981 245.381567 169.796776 
Q 239.297659 147.663743 239.297659 109.81354 
Q 239.297659 71.827551 245.381567 49.728464 
Q 251.465474 27.59543 261.882268 27.59543 
Q 265.375378 27.59543 268.582607 30.582711 
Q 271.789836 33.536045 274.755853 39.374821 
L 274.755853 72.133068 
Q 271.763035 64.393296 268.859555 60.794981 
Q 265.956074 57.196665 262.748845 57.196665 
Q 256.995488 57.196665 253.698921 71.216516 
Q 250.411288 85.202421 250.411288 109.81354 
Q 250.411288 134.322819 253.698921 148.34267 
Q 256.995488 162.328575 262.748845 162.328575 
Q 265.956074 162.328575 268.859555 158.730259 
Q 271.763035 155.097998 274.755853 147.358225 
L 274.755853 180.150419 
z
" clip-path="url(#p58e2fc9f01)" style="fill: #0000ff"/>
   </g>
   <g id="patch_20">
    <path d="M 312.080268 192.205952 
Q 308.504251 192.222976 304.658046 192.231527 
Q 300.811841 192.24 296.711342 192.24 
Q 287.445485 192.24 282.033779 192.189317 
Q 276.622074 192.138634 276.622074 192.05196 
Q 276.622074 191.964276 282.12914 191.913981 
Q 287.644152 191.863687 297.235824 191.863687 
Q 300.931042 191.863687 304.316338 191.870528 
Q 307.70958 191.877291 310.713434 191.890661 
L 310.713434 191.965675 
Q 307.61422 191.948496 304.546792 191.940023 
Q 301.479364 191.931472 298.396043 191.931472 
Q 292.690309 191.931472 289.599041 191.962721 
Q 286.507774 191.993893 286.507774 192.05196 
Q 286.507774 192.109484 289.487788 192.140888 
Q 292.467802 192.172216 297.951028 192.172216 
Q 299.445008 192.172216 300.724427 192.170428 
Q 302.003847 192.168562 303.021025 192.164675 
L 303.021025 192.094248 
L 297.180197 192.094248 
L 297.180197 192.031516 
L 312.080268 192.031516 
L 312.080268 192.205952 
z
" clip-path="url(#p58e2fc9f01)" style="fill: #ffa600"/>
   </g>
   <g id="patch_21">
    <path d="M 312.080268 180.10138 
Q 309.114251 185.931688 305.907022 188.880739 
Q 302.699793 191.863687 299.206683 191.863687 
Q 288.789889 191.863687 282.705981 169.762752 
Q 276.622074 147.661817 276.622074 109.866506 
Q 276.622074 71.935606 282.705981 49.868568 
Q 288.789889 27.767633 299.206683 27.767633 
Q 302.699793 27.767633 305.907022 30.750581 
Q 309.114251 33.699632 312.080268 39.52994 
L 312.080268 72.24068 
Q 309.087449 64.512132 306.183969 60.919036 
Q 303.280489 57.325939 300.07326 57.325939 
Q 294.319902 57.325939 291.023336 71.325458 
Q 287.735703 85.291079 287.735703 109.866506 
Q 287.735703 134.340241 291.023336 148.33976 
Q 294.319902 162.305381 300.07326 162.305381 
Q 303.280489 162.305381 306.183969 158.712284 
Q 309.087449 155.08529 312.080268 147.356742 
L 312.080268 180.10138 
z
" clip-path="url(#p58e2fc9f01)" style="fill: #0000ff"/>
   </g>
   <g id="patch_22">
    <path d="M 313.946488 192.1719 
L 349.404682 192.1719 
L 349.404682 192.185182 
L 336.647979 192.185182 
L 336.647979 192.24 
L 326.72793 192.24 
L 326.72793 192.185182 
L 313.946488 192.185182 
L 313.946488 192.1719 
z
" clip-path="url(#p58e2fc9f01)" style="fill: #ff0000"/>
   </g>
   <g id="patch_23">
    <path d="M 338.50841 192.153262 
L 324.871759 192.153262 
L 322.718603 192.1719 
L 313.946488 192.1719 
L 326.473939 192.069586 
L 336.877232 192.069586 
L 349.404682 192.1719 
L 340.639817 192.1719 
L 338.50841 192.153262 
z
M 327.046663 192.134272 
L 336.311757 192.134272 
L 331.68646 192.093575 
L 327.046663 192.134272 
z
" clip-path="url(#p58e2fc9f01)" style="fill: #008000"/>
   </g>
   <g id="patch_24">
    <path d="M 349.404682 192.054167 
Q 345.828665 192.061877 341.982461 192.065749 
Q 338.136256 192.069586 334.035756 192.069586 
Q 324.769899 192.069586 319.358194 192.046634 
Q 313.946488 192.023682 313.946488 191.984432 
Q 313.946488 191.944724 319.453554 191.921948 
Q 324.968567 191.899172 334.560239 191.899172 
Q 338.255456 191.899172 341.640752 191.90227 
Q 345.033995 191.905333 348.037849 191.911387 
L 348.037849 191.945357 
Q 344.938635 191.937578 341.871207 191.933741 
Q 338.803779 191.929868 335.720458 191.929868 
Q 330.014724 191.929868 326.923456 191.94402 
Q 323.832188 191.958136 323.832188 191.984432 
Q 323.832188 192.010482 326.812202 192.024703 
Q 329.792216 192.03889 335.275442 192.03889 
Q 336.769423 192.03889 338.048842 192.03808 
Q 339.328261 192.037235 340.34544 192.035475 
L 340.34544 192.003582 
L 334.504612 192.003582 
L 334.504612 191.975174 
L 349.404682 191.975174 
L 349.404682 192.054167 
z
" clip-path="url(#p58e2fc9f01)" style="fill: #ffa600"/>
   </g>
   <g id="patch_25">
    <path d="M 349.404682 180.132898 
Q 346.438666 185.965172 343.231437 188.915218 
Q 340.024208 191.899172 336.531098 191.899172 
Q 326.114304 191.899172 320.030396 169.790784 
Q 313.946488 147.682397 313.946488 109.874341 
Q 313.946488 71.930651 320.030396 49.856172 
Q 326.114304 27.747784 336.531098 27.747784 
Q 340.024208 27.747784 343.231437 30.731738 
Q 346.438666 33.681784 349.404682 39.514058 
L 349.404682 72.235828 
Q 346.411864 64.504674 343.508384 60.910366 
Q 340.604904 57.316057 337.397675 57.316057 
Q 331.644317 57.316057 328.34775 71.320297 
Q 325.060117 85.290628 325.060117 109.874341 
Q 325.060117 134.356329 328.34775 148.360568 
Q 331.644317 162.330899 337.397675 162.330899 
Q 340.604904 162.330899 343.508384 158.736591 
Q 346.411864 155.108374 349.404682 147.37722 
L 349.404682 180.132898 
z
" clip-path="url(#p58e2fc9f01)" style="fill: #0000ff"/>
   </g>
   <g id="patch_26">
    <path d="M 351.270903 191.994542 
L 386.729097 191.994542 
L 386.729097 192.042413 
L 373.972393 192.042413 
L 373.972393 192.24 
L 364.052345 192.24 
L 364.052345 192.042413 
L 351.270903 192.042413 
L 351.270903 191.994542 
z
" clip-path="url(#p58e2fc9f01)" style="fill: #ff0000"/>
   </g>
   <g id="patch_27">
    <path d="M 386.729097 180.180074 
Q 383.76308 186.036237 380.555851 188.998366 
Q 377.348622 191.994542 373.855512 191.994542 
Q 363.438719 191.994542 357.354811 169.795598 
Q 351.270903 147.596655 351.270903 109.633737 
Q 351.270903 71.53463 357.354811 49.369733 
Q 363.438719 27.17079 373.855512 27.17079 
Q 377.348622 27.17079 380.555851 30.166966 
Q 383.76308 33.129095 386.729097 38.985258 
L 386.729097 71.841057 
Q 383.736279 64.078236 380.832799 60.469205 
Q 377.929318 56.860174 374.72209 56.860174 
Q 368.968732 56.860174 365.672165 70.921775 
Q 362.384532 84.949329 362.384532 109.633737 
Q 362.384532 134.216003 365.672165 148.277604 
Q 368.968732 162.305157 374.72209 162.305157 
Q 377.929318 162.305157 380.832799 158.696126 
Q 383.736279 155.053048 386.729097 147.290227 
L 386.729097 180.180074 
z
" clip-path="url(#p58e2fc9f01)" style="fill: #0000ff"/>
   </g>
   <g id="patch_28">
    <path d="M 388.595318 192.16742 
L 424.053512 192.16742 
L 424.053512 192.181575 
L 411.296808 192.181575 
L 411.296808 192.24 
L 401.37676 192.24 
L 401.37676 192.181575 
L 388.595318 192.181575 
L 388.595318 192.16742 
z
" clip-path="url(#p58e2fc9f01)" style="fill: #ff0000"/>
   </g>
   <g id="patch_29">
    <path d="M 424.053512 192.15101 
Q 420.477495 192.159215 416.63129 192.163336 
Q 412.785085 192.16742 408.684586 192.16742 
Q 399.418729 192.16742 394.007023 192.142993 
Q 388.595318 192.118565 388.595318 192.076792 
Q 388.595318 192.034531 394.102384 192.010291 
Q 399.617396 191.986051 409.209068 191.986051 
Q 412.904286 191.986051 416.289582 191.989348 
Q 419.682824 191.992608 422.686679 191.999052 
L 422.686679 192.035205 
Q 419.587464 192.026926 416.520036 192.022842 
Q 413.452608 192.018721 410.369287 192.018721 
Q 404.663554 192.018721 401.572286 192.033782 
Q 398.481018 192.048805 398.481018 192.076792 
Q 398.481018 192.104516 401.461032 192.119652 
Q 404.441046 192.13475 409.924272 192.13475 
Q 411.418252 192.13475 412.697671 192.133889 
Q 413.977091 192.132989 414.994269 192.131116 
L 414.994269 192.097173 
L 409.153441 192.097173 
L 409.153441 192.066938 
L 424.053512 192.066938 
L 424.053512 192.15101 
z
" clip-path="url(#p58e2fc9f01)" style="fill: #ffa600"/>
   </g>
   <g id="patch_30">
    <path d="M 413.15724 191.946416 
L 399.520588 191.946416 
L 397.367433 191.986051 
L 388.595318 191.986051 
L 401.122768 191.768474 
L 411.526061 191.768474 
L 424.053512 191.986051 
L 415.288646 191.986051 
L 413.15724 191.946416 
z
M 401.695493 191.906034 
L 410.960586 191.906034 
L 406.335289 191.819488 
L 401.695493 191.906034 
z
" clip-path="url(#p58e2fc9f01)" style="fill: #008000"/>
   </g>
   <g id="patch_31">
    <path d="M 424.053512 180.058457 
Q 421.087495 185.862846 417.880266 188.798787 
Q 414.673037 191.768474 411.179927 191.768474 
Q 400.763133 191.768474 394.679226 169.76579 
Q 388.595318 147.763106 388.595318 110.135816 
Q 388.595318 72.37354 394.679226 50.404602 
Q 400.763133 28.401917 411.179927 28.401917 
Q 414.673037 28.401917 417.880266 31.371605 
Q 421.087495 34.307546 424.053512 40.111935 
L 424.053512 72.677258 
Q 421.060694 64.983067 418.157213 61.405944 
Q 415.253733 57.82882 412.046504 57.82882 
Q 406.293146 57.82882 402.99658 71.766104 
Q 399.708947 85.66964 399.708947 110.135816 
Q 399.708947 134.500751 402.99658 148.438035 
Q 406.293146 162.341571 412.046504 162.341571 
Q 415.253733 162.341571 418.157213 158.764448 
Q 421.060694 155.153578 424.053512 147.459388 
L 424.053512 180.058457 
z
" clip-path="url(#p58e2fc9f01)" style="fill: #0000ff"/>
   </g>
   <g id="patch_32">
    <path d="M 461.377926 192.23529 
Q 458.41191 192.237624 455.204681 192.238805 
Q 451.997452 192.24 448.504342 192.24 
Q 438.087548 192.24 432.00364 192.231149 
Q 425.919732 192.222299 425.919732 192.207163 
Q 425.919732 192.191973 432.00364 192.183136 
Q 438.087548 192.174285 448.504342 192.174285 
Q 451.997452 192.174285 455.204681 192.175479 
Q 458.41191 192.17666 461.377926 192.178995 
L 461.377926 192.192095 
Q 458.385108 192.189 455.481628 192.187561 
Q 452.578148 192.186122 449.370919 192.186122 
Q 443.617561 192.186122 440.320994 192.191728 
Q 437.033361 192.197321 437.033361 192.207163 
Q 437.033361 192.216964 440.320994 192.22257 
Q 443.617561 192.228163 449.370919 192.228163 
Q 452.578148 192.228163 455.481628 192.226724 
Q 458.385108 192.225271 461.377926 192.222176 
L 461.377926 192.23529 
z
" clip-path="url(#p58e2fc9f01)" style="fill: #0000ff"/>
   </g>
   <g id="patch_33">
    <path d="M 425.919732 192.043007 
L 461.377926 192.043007 
L 461.377926 192.06861 
L 448.621223 192.06861 
L 448.621223 192.174285 
L 438.701174 192.174285 
L 438.701174 192.06861 
L 425.919732 192.06861 
L 425.919732 192.043007 
z
" clip-path="url(#p58e2fc9f01)" style="fill: #ff0000"/>
   </g>
   <g id="patch_34">
    <path d="M 461.377926 191.726149 
Q 457.80191 191.884578 453.955705 191.964154 
Q 450.1095 192.043007 446.009001 192.043007 
Q 436.743144 192.043007 431.331438 191.571338 
Q 425.919732 191.099669 425.919732 190.293057 
Q 425.919732 189.477041 431.426798 189.008989 
Q 436.941811 188.540938 446.533483 188.540938 
Q 450.2287 188.540938 453.613996 188.604598 
Q 457.007239 188.667536 460.011093 188.791964 
L 460.011093 189.490063 
Q 456.911879 189.330187 453.844451 189.251335 
Q 450.777023 189.171758 447.693702 189.171758 
Q 441.987968 189.171758 438.8967 189.462573 
Q 435.805432 189.752664 435.805432 190.293057 
Q 435.805432 190.828387 438.785446 191.120648 
Q 441.765461 191.412186 447.248686 191.412186 
Q 448.742667 191.412186 450.022086 191.395547 
Q 451.301506 191.378185 452.318684 191.342014 
L 452.318684 190.686597 
L 446.477856 190.686597 
L 446.477856 190.102798 
L 461.377926 190.102798 
L 461.377926 191.726149 
z
" clip-path="url(#p58e2fc9f01)" style="fill: #ffa600"/>
   </g>
   <g id="patch_35">
    <path d="M 450.481655 161.503558 
L 436.845003 161.503558 
L 434.691847 188.540938 
L 425.919732 188.540938 
L 438.447183 40.121626 
L 448.850476 40.121626 
L 461.377926 188.540938 
L 452.613061 188.540938 
L 450.481655 161.503558 
z
M 439.019908 133.957239 
L 448.285001 133.957239 
L 443.659704 74.920325 
L 439.019908 133.957239 
z
" clip-path="url(#p58e2fc9f01)" style="fill: #008000"/>
   </g>
   <g id="patch_36">
    <path d="M 498.702341 180.318281 
Q 495.736324 186.227606 492.529095 189.216625 
Q 489.321867 192.24 485.828756 192.24 
Q 475.411963 192.24 469.328055 169.839537 
Q 463.244147 147.439075 463.244147 109.131535 
Q 463.244147 70.686569 469.328055 48.320463 
Q 475.411963 25.92 485.828756 25.92 
Q 489.321867 25.92 492.529095 28.943375 
Q 495.736324 31.932394 498.702341 37.841719 
L 498.702341 70.995778 
Q 495.709523 63.162487 492.806043 59.520694 
Q 489.902563 55.878901 486.695334 55.878901 
Q 480.941976 55.878901 477.645409 70.068151 
Q 474.357776 84.223045 474.357776 109.131535 
Q 474.357776 133.936955 477.645409 148.126205 
Q 480.941976 162.281099 486.695334 162.281099 
Q 489.902563 162.281099 492.806043 158.639306 
Q 495.709523 154.963156 498.702341 147.129866 
L 498.702341 180.318281 
z
" clip-path="url(#p58e2fc9f01)" style="fill: #0000ff"/>
   </g>
   <g id="patch_37">
    <path d="M 525.130484 192.219635 
L 511.493832 192.219635 
L 509.340677 192.24 
L 500.568562 192.24 
L 513.096012 192.128211 
L 523.499306 192.128211 
L 536.026756 192.24 
L 527.26189 192.24 
L 525.130484 192.219635 
z
M 513.668737 192.198888 
L 522.93383 192.198888 
L 518.308533 192.154421 
L 513.668737 192.198888 
z
" clip-path="url(#p58e2fc9f01)" style="fill: #008000"/>
   </g>
   <g id="patch_38">
    <path d="M 500.568562 191.313282 
L 536.026756 191.313282 
L 536.026756 191.472216 
L 523.270052 191.472216 
L 523.270052 192.128211 
L 513.350004 192.128211 
L 513.350004 191.472216 
L 500.568562 191.472216 
L 500.568562 191.313282 
z
" clip-path="url(#p58e2fc9f01)" style="fill: #ff0000"/>
   </g>
   <g id="patch_39">
    <path d="M 536.026756 176.73859 
Q 532.450739 184.025936 528.604534 187.686247 
Q 524.758329 191.313282 520.65783 191.313282 
Q 511.391973 191.313282 505.980267 169.617622 
Q 500.568562 147.921962 500.568562 110.819722 
Q 500.568562 73.2849 506.075628 51.755618 
Q 511.590641 30.226336 521.182312 30.226336 
Q 524.87753 30.226336 528.262826 33.154584 
Q 531.656069 36.049557 534.659923 41.772952 
L 534.659923 73.88386 
Q 531.560708 66.529963 528.49328 62.902928 
Q 525.425852 59.242617 522.342531 59.242617 
Q 516.636798 59.242617 513.54553 72.619389 
Q 510.454262 85.962885 510.454262 110.819722 
Q 510.454262 135.44363 513.434276 148.886953 
Q 516.41429 162.297001 521.897516 162.297001 
Q 523.391496 162.297001 524.670916 161.531663 
Q 525.950335 160.73305 526.967513 159.069272 
L 526.967513 128.921622 
L 521.126686 128.921622 
L 521.126686 102.068252 
L 536.026756 102.068252 
L 536.026756 176.73859 
z
" clip-path="url(#p58e2fc9f01)" style="fill: #ffa600"/>
   </g>
   <g id="patch_40">
    <path d="M 573.351171 192.236539 
Q 570.385154 192.238255 567.177925 192.239122 
Q 563.970696 192.24 560.477586 192.24 
Q 550.060792 192.24 543.976884 192.233497 
Q 537.892977 192.226995 537.892977 192.215874 
Q 537.892977 192.204714 543.976884 192.198222 
Q 550.060792 192.191719 560.477586 192.191719 
Q 563.970696 192.191719 567.177925 192.192597 
Q 570.385154 192.193464 573.351171 192.19518 
L 573.351171 192.204804 
Q 570.358352 192.20253 567.454872 192.201473 
Q 564.551392 192.200416 561.344163 192.200416 
Q 555.590805 192.200416 552.294239 192.204535 
Q 549.006606 192.208644 549.006606 192.215874 
Q 549.006606 192.223075 552.294239 192.227194 
Q 555.590805 192.231303 561.344163 192.231303 
Q 564.551392 192.231303 567.454872 192.230246 
Q 570.358352 192.229179 573.351171 192.226905 
L 573.351171 192.236539 
z
" clip-path="url(#p58e2fc9f01)" style="fill: #0000ff"/>
   </g>
   <g id="patch_41">
    <path d="M 573.351171 192.156798 
Q 569.775154 192.174258 565.928949 192.183028 
Q 562.082744 192.191719 557.982245 192.191719 
Q 548.716388 192.191719 543.304682 192.139736 
Q 537.892977 192.087753 537.892977 191.998855 
Q 537.892977 191.908922 543.400043 191.857337 
Q 548.915055 191.805753 558.506727 191.805753 
Q 562.201945 191.805753 565.587241 191.812769 
Q 568.980483 191.819705 571.984337 191.833419 
L 571.984337 191.910357 
Q 568.885123 191.892737 565.817695 191.884046 
Q 562.750267 191.875276 559.666946 191.875276 
Q 553.961212 191.875276 550.869944 191.907327 
Q 547.778677 191.939298 547.778677 191.998855 
Q 547.778677 192.057855 550.758691 192.090065 
Q 553.738705 192.122196 559.221931 192.122196 
Q 560.715911 192.122196 561.99533 192.120362 
Q 563.27475 192.118448 564.291928 192.114462 
L 564.291928 192.042228 
L 558.4511 192.042228 
L 558.4511 191.977887 
L 573.351171 191.977887 
L 573.351171 192.156798 
z
" clip-path="url(#p58e2fc9f01)" style="fill: #ffa600"/>
   </g>
   <g id="patch_42">
    <path d="M 537.892977 167.395785 
L 573.351171 167.395785 
L 573.351171 172.156409 
L 560.594467 172.156409 
L 560.594467 191.805753 
L 550.674419 191.805753 
L 550.674419 172.156409 
L 537.892977 172.156409 
L 537.892977 167.395785 
z
" clip-path="url(#p58e2fc9f01)" style="fill: #ff0000"/>
   </g>
   <g id="patch_43">
    <path d="M 562.454899 154.743259 
L 548.818247 154.743259 
L 546.665092 167.395785 
L 537.892977 167.395785 
L 550.420427 97.940861 
L 560.82372 97.940861 
L 573.351171 167.395785 
L 564.586305 167.395785 
L 562.454899 154.743259 
z
M 550.993152 141.852568 
L 560.258245 141.852568 
L 555.632948 114.225406 
L 550.993152 141.852568 
z
" clip-path="url(#p58e2fc9f01)" style="fill: #008000"/>
   </g>
   <g id="patch_44">
    <path d="M 610.675585 191.683406 
Q 607.709569 191.959297 604.50234 192.098847 
Q 601.295111 192.24 597.802001 192.24 
Q 587.385207 192.24 581.301299 191.194181 
Q 575.217391 190.148362 575.217391 188.359884 
Q 575.217391 186.564989 581.301299 185.520774 
Q 587.385207 184.474955 597.802001 184.474955 
Q 601.295111 184.474955 604.50234 184.616108 
Q 607.709569 184.755658 610.675585 185.031549 
L 610.675585 186.579425 
Q 607.682767 186.213709 604.779287 186.043683 
Q 601.875807 185.873658 598.668578 185.873658 
Q 592.91522 185.873658 589.618653 186.536116 
Q 586.33102 187.196971 586.33102 188.359884 
Q 586.33102 189.517984 589.618653 190.180443 
Q 592.91522 190.841297 598.668578 190.841297 
Q 601.875807 190.841297 604.779287 190.671272 
Q 607.682767 190.499642 610.675585 190.133926 
L 610.675585 191.683406 
z
" clip-path="url(#p58e2fc9f01)" style="fill: #0000ff"/>
   </g>
   <g id="patch_45">
    <path d="M 575.217391 168.330601 
L 610.675585 168.330601 
L 610.675585 171.4792 
L 597.918882 171.4792 
L 597.918882 184.474955 
L 587.998833 184.474955 
L 587.998833 171.4792 
L 575.217391 171.4792 
L 575.217391 168.330601 
z
" clip-path="url(#p58e2fc9f01)" style="fill: #ff0000"/>
   </g>
   <g id="patch_46">
    <path d="M 599.779313 165.326262 
L 586.142662 165.326262 
L 583.989506 168.330601 
L 575.217391 168.330601 
L 587.744842 151.838551 
L 598.148135 151.838551 
L 610.675585 168.330601 
L 601.91072 168.330601 
L 599.779313 165.326262 
z
M 588.317566 162.265372 
L 597.58266 162.265372 
L 592.957363 155.705311 
L 588.317566 162.265372 
z
" clip-path="url(#p58e2fc9f01)" style="fill: #008000"/>
   </g>
   <g id="patch_47">
    <path d="M 648 192.233917 
Q 645.033983 192.236932 641.826754 192.238457 
Q 638.619525 192.24 635.126415 192.24 
Q 624.709622 192.24 618.625714 192.22857 
Q 612.541806 192.217139 612.541806 192.197592 
Q 612.541806 192.177975 618.625714 192.166562 
Q 624.709622 192.155132 635.126415 192.155132 
Q 638.619525 192.155132 641.826754 192.156674 
Q 645.033983 192.1582 648 192.161215 
L 648 192.178132 
Q 645.007182 192.174135 642.103702 192.172277 
Q 639.200221 192.170419 635.992993 192.170419 
Q 630.239635 192.170419 626.943068 192.177659 
Q 623.655435 192.184882 623.655435 192.197592 
Q 623.655435 192.21025 626.943068 192.21749 
Q 630.239635 192.224713 635.992993 192.224713 
Q 639.200221 192.224713 642.103702 192.222855 
Q 645.007182 192.220979 648 192.216982 
L 648 192.233917 
z
" clip-path="url(#p58e2fc9f01)" style="fill: #0000ff"/>
   </g>
   <g id="patch_48">
    <path d="M 637.103728 192.133457 
L 623.467077 192.133457 
L 621.313921 192.155132 
L 612.541806 192.155132 
L 625.069256 192.036153 
L 635.47255 192.036153 
L 648 192.155132 
L 639.235135 192.155132 
L 637.103728 192.133457 
z
M 625.641981 192.111375 
L 634.907075 192.111375 
L 630.281778 192.064049 
L 625.641981 192.111375 
z
" clip-path="url(#p58e2fc9f01)" style="fill: #008000"/>
   </g>
   <g id="patch_49">
    <path d="M 612.541806 191.628458 
L 648 191.628458 
L 648 191.70797 
L 635.243296 191.70797 
L 635.243296 192.036153 
L 625.323248 192.036153 
L 625.323248 191.70797 
L 612.541806 191.70797 
L 612.541806 191.628458 
z
" clip-path="url(#p58e2fc9f01)" style="fill: #ff0000"/>
   </g>
   <g id="patch_50">
    <path d="M 648 176.917142 
Q 644.423983 184.2728 640.577778 187.967422 
Q 636.731573 191.628458 632.631074 191.628458 
Q 623.365217 191.628458 617.953512 169.729422 
Q 612.541806 147.830386 612.541806 110.380347 
Q 612.541806 72.493671 618.048872 50.762572 
Q 623.563885 29.031474 633.155557 29.031474 
Q 636.850774 29.031474 640.23607 31.987172 
Q 643.629313 34.909282 646.633167 40.686329 
L 646.633167 73.098246 
Q 643.533952 65.675413 640.466524 62.014378 
Q 637.399097 58.319755 634.315775 58.319755 
Q 628.610042 58.319755 625.518774 71.821921 
Q 622.427506 85.2905 622.427506 110.380347 
Q 622.427506 135.235081 625.40752 148.804422 
Q 628.387534 162.340176 633.87076 162.340176 
Q 635.36474 162.340176 636.64416 161.567664 
Q 637.923579 160.761565 638.940757 159.082191 
L 638.940757 128.651935 
L 633.09993 128.651935 
L 633.09993 101.54684 
L 648 101.54684 
L 648 176.917142 
z
" clip-path="url(#p58e2fc9f01)" style="fill: #ffa600"/>
   </g>
   <g id="matplotlib.axis_1">
    <g id="xtick_1">
     <g id="line2d_2">
      <defs>
       <path id="m3f96df49fe" d="M 0 0 
L 0 3.5 
" style="stroke: #000000; stroke-width: 0.8"/>
      </defs>
      <g>
       <use xlink:href="#m3f96df49fe" x="107.729097" y="192.24" style="stroke: #000000; stroke-width: 0.8"/>
      </g>
     </g>
     <g id="text_1">
      <!-- 0 -->
      <g transform="translate(104.547847 206.838437) scale(0.1 -0.1)">
       <defs>
        <path id="DejaVuSans-30" d="M 2034 4250 
Q 1547 4250 1301 3770 
Q 1056 3291 1056 2328 
Q 1056 1369 1301 889 
Q 1547 409 2034 409 
Q 2525 409 2770 889 
Q 3016 1369 3016 2328 
Q 3016 3291 2770 3770 
Q 2525 4250 2034 4250 
z
M 2034 4750 
Q 2819 4750 3233 4129 
Q 3647 3509 3647 2328 
Q 3647 1150 3233 529 
Q 2819 -91 2034 -91 
Q 1250 -91 836 529 
Q 422 1150 422 2328 
Q 422 3509 836 4129 
Q 1250 4750 2034 4750 
z
" transform="scale(0.015625)"/>
       </defs>
       <use xlink:href="#DejaVuSans-30"/>
      </g>
     </g>
    </g>
    <g id="xtick_2">
     <g id="line2d_3">
      <g>
       <use xlink:href="#m3f96df49fe" x="182.377926" y="192.24" style="stroke: #000000; stroke-width: 0.8"/>
      </g>
     </g>
     <g id="text_2">
      <!-- 2 -->
      <g transform="translate(179.196676 206.838437) scale(0.1 -0.1)">
       <defs>
        <path id="DejaVuSans-32" d="M 1228 531 
L 3431 531 
L 3431 0 
L 469 0 
L 469 531 
Q 828 903 1448 1529 
Q 2069 2156 2228 2338 
Q 2531 2678 2651 2914 
Q 2772 3150 2772 3378 
Q 2772 3750 2511 3984 
Q 2250 4219 1831 4219 
Q 1534 4219 1204 4116 
Q 875 4013 500 3803 
L 500 4441 
Q 881 4594 1212 4672 
Q 1544 4750 1819 4750 
Q 2544 4750 2975 4387 
Q 3406 4025 3406 3419 
Q 3406 3131 3298 2873 
Q 3191 2616 2906 2266 
Q 2828 2175 2409 1742 
Q 1991 1309 1228 531 
z
" transform="scale(0.015625)"/>
       </defs>
       <use xlink:href="#DejaVuSans-32"/>
      </g>
     </g>
    </g>
    <g id="xtick_3">
     <g id="line2d_4">
      <g>
       <use xlink:href="#m3f96df49fe" x="257.026756" y="192.24" style="stroke: #000000; stroke-width: 0.8"/>
      </g>
     </g>
     <g id="text_3">
      <!-- 4 -->
      <g transform="translate(253.845506 206.838437) scale(0.1 -0.1)">
       <defs>
        <path id="DejaVuSans-34" d="M 2419 4116 
L 825 1625 
L 2419 1625 
L 2419 4116 
z
M 2253 4666 
L 3047 4666 
L 3047 1625 
L 3713 1625 
L 3713 1100 
L 3047 1100 
L 3047 0 
L 2419 0 
L 2419 1100 
L 313 1100 
L 313 1709 
L 2253 4666 
z
" transform="scale(0.015625)"/>
       </defs>
       <use xlink:href="#DejaVuSans-34"/>
      </g>
     </g>
    </g>
    <g id="xtick_4">
     <g id="line2d_5">
      <g>
       <use xlink:href="#m3f96df49fe" x="331.675585" y="192.24" style="stroke: #000000; stroke-width: 0.8"/>
      </g>
     </g>
     <g id="text_4">
      <!-- 6 -->
      <g transform="translate(328.494335 206.838437) scale(0.1 -0.1)">
       <defs>
        <path id="DejaVuSans-36" d="M 2113 2584 
Q 1688 2584 1439 2293 
Q 1191 2003 1191 1497 
Q 1191 994 1439 701 
Q 1688 409 2113 409 
Q 2538 409 2786 701 
Q 3034 994 3034 1497 
Q 3034 2003 2786 2293 
Q 2538 2584 2113 2584 
z
M 3366 4563 
L 3366 3988 
Q 3128 4100 2886 4159 
Q 2644 4219 2406 4219 
Q 1781 4219 1451 3797 
Q 1122 3375 1075 2522 
Q 1259 2794 1537 2939 
Q 1816 3084 2150 3084 
Q 2853 3084 3261 2657 
Q 3669 2231 3669 1497 
Q 3669 778 3244 343 
Q 2819 -91 2113 -91 
Q 1303 -91 875 529 
Q 447 1150 447 2328 
Q 447 3434 972 4092 
Q 1497 4750 2381 4750 
Q 2619 4750 2861 4703 
Q 3103 4656 3366 4563 
z
" transform="scale(0.015625)"/>
       </defs>
       <use xlink:href="#DejaVuSans-36"/>
      </g>
     </g>
    </g>
    <g id="xtick_5">
     <g id="line2d_6">
      <g>
       <use xlink:href="#m3f96df49fe" x="406.324415" y="192.24" style="stroke: #000000; stroke-width: 0.8"/>
      </g>
     </g>
     <g id="text_5">
      <!-- 8 -->
      <g transform="translate(403.143165 206.838437) scale(0.1 -0.1)">
       <defs>
        <path id="DejaVuSans-38" d="M 2034 2216 
Q 1584 2216 1326 1975 
Q 1069 1734 1069 1313 
Q 1069 891 1326 650 
Q 1584 409 2034 409 
Q 2484 409 2743 651 
Q 3003 894 3003 1313 
Q 3003 1734 2745 1975 
Q 2488 2216 2034 2216 
z
M 1403 2484 
Q 997 2584 770 2862 
Q 544 3141 544 3541 
Q 544 4100 942 4425 
Q 1341 4750 2034 4750 
Q 2731 4750 3128 4425 
Q 3525 4100 3525 3541 
Q 3525 3141 3298 2862 
Q 3072 2584 2669 2484 
Q 3125 2378 3379 2068 
Q 3634 1759 3634 1313 
Q 3634 634 3220 271 
Q 2806 -91 2034 -91 
Q 1263 -91 848 271 
Q 434 634 434 1313 
Q 434 1759 690 2068 
Q 947 2378 1403 2484 
z
M 1172 3481 
Q 1172 3119 1398 2916 
Q 1625 2713 2034 2713 
Q 2441 2713 2670 2916 
Q 2900 3119 2900 3481 
Q 2900 3844 2670 4047 
Q 2441 4250 2034 4250 
Q 1625 4250 1398 4047 
Q 1172 3844 1172 3481 
z
" transform="scale(0.015625)"/>
       </defs>
       <use xlink:href="#DejaVuSans-38"/>
      </g>
     </g>
    </g>
    <g id="xtick_6">
     <g id="line2d_7">
      <g>
       <use xlink:href="#m3f96df49fe" x="480.973244" y="192.24" style="stroke: #000000; stroke-width: 0.8"/>
      </g>
     </g>
     <g id="text_6">
      <!-- 10 -->
      <g transform="translate(474.610744 206.838437) scale(0.1 -0.1)">
       <defs>
        <path id="DejaVuSans-31" d="M 794 531 
L 1825 531 
L 1825 4091 
L 703 3866 
L 703 4441 
L 1819 4666 
L 2450 4666 
L 2450 531 
L 3481 531 
L 3481 0 
L 794 0 
L 794 531 
z
" transform="scale(0.015625)"/>
       </defs>
       <use xlink:href="#DejaVuSans-31"/>
       <use xlink:href="#DejaVuSans-30" x="63.623047"/>
      </g>
     </g>
    </g>
    <g id="xtick_7">
     <g id="line2d_8">
      <g>
       <use xlink:href="#m3f96df49fe" x="555.622074" y="192.24" style="stroke: #000000; stroke-width: 0.8"/>
      </g>
     </g>
     <g id="text_7">
      <!-- 12 -->
      <g transform="translate(549.259574 206.838437) scale(0.1 -0.1)">
       <use xlink:href="#DejaVuSans-31"/>
       <use xlink:href="#DejaVuSans-32" x="63.623047"/>
      </g>
     </g>
    </g>
    <g id="xtick_8">
     <g id="line2d_9">
      <g>
       <use xlink:href="#m3f96df49fe" x="630.270903" y="192.24" style="stroke: #000000; stroke-width: 0.8"/>
      </g>
     </g>
     <g id="text_8">
      <!-- 14 -->
      <g transform="translate(623.908403 206.838437) scale(0.1 -0.1)">
       <use xlink:href="#DejaVuSans-31"/>
       <use xlink:href="#DejaVuSans-34" x="63.623047"/>
      </g>
     </g>
    </g>
   </g>
   <g id="matplotlib.axis_2">
    <g id="ytick_1">
     <g id="line2d_10">
      <defs>
       <path id="m01527fc562" d="M 0 0 
L -3.5 0 
" style="stroke: #000000; stroke-width: 0.8"/>
      </defs>
      <g>
       <use xlink:href="#m01527fc562" x="90" y="192.24" style="stroke: #000000; stroke-width: 0.8"/>
      </g>
     </g>
     <g id="text_9">
      <!-- 0.00 -->
      <g transform="translate(60.734375 196.039219) scale(0.1 -0.1)">
       <defs>
        <path id="DejaVuSans-2e" d="M 684 794 
L 1344 794 
L 1344 0 
L 684 0 
L 684 794 
z
" transform="scale(0.015625)"/>
       </defs>
       <use xlink:href="#DejaVuSans-30"/>
       <use xlink:href="#DejaVuSans-2e" x="63.623047"/>
       <use xlink:href="#DejaVuSans-30" x="95.410156"/>
       <use xlink:href="#DejaVuSans-30" x="159.033203"/>
      </g>
     </g>
    </g>
    <g id="ytick_2">
     <g id="line2d_11">
      <g>
       <use xlink:href="#m01527fc562" x="90" y="171.405025" style="stroke: #000000; stroke-width: 0.8"/>
      </g>
     </g>
     <g id="text_10">
      <!-- 0.25 -->
      <g transform="translate(60.734375 175.204243) scale(0.1 -0.1)">
       <defs>
        <path id="DejaVuSans-35" d="M 691 4666 
L 3169 4666 
L 3169 4134 
L 1269 4134 
L 1269 2991 
Q 1406 3038 1543 3061 
Q 1681 3084 1819 3084 
Q 2600 3084 3056 2656 
Q 3513 2228 3513 1497 
Q 3513 744 3044 326 
Q 2575 -91 1722 -91 
Q 1428 -91 1123 -41 
Q 819 9 494 109 
L 494 744 
Q 775 591 1075 516 
Q 1375 441 1709 441 
Q 2250 441 2565 725 
Q 2881 1009 2881 1497 
Q 2881 1984 2565 2268 
Q 2250 2553 1709 2553 
Q 1456 2553 1204 2497 
Q 953 2441 691 2322 
L 691 4666 
z
" transform="scale(0.015625)"/>
       </defs>
       <use xlink:href="#DejaVuSans-30"/>
       <use xlink:href="#DejaVuSans-2e" x="63.623047"/>
       <use xlink:href="#DejaVuSans-32" x="95.410156"/>
       <use xlink:href="#DejaVuSans-35" x="159.033203"/>
      </g>
     </g>
    </g>
    <g id="ytick_3">
     <g id="line2d_12">
      <g>
       <use xlink:href="#m01527fc562" x="90" y="150.570049" style="stroke: #000000; stroke-width: 0.8"/>
      </g>
     </g>
     <g id="text_11">
      <!-- 0.50 -->
      <g transform="translate(60.734375 154.369268) scale(0.1 -0.1)">
       <use xlink:href="#DejaVuSans-30"/>
       <use xlink:href="#DejaVuSans-2e" x="63.623047"/>
       <use xlink:href="#DejaVuSans-35" x="95.410156"/>
       <use xlink:href="#DejaVuSans-30" x="159.033203"/>
      </g>
     </g>
    </g>
    <g id="ytick_4">
     <g id="line2d_13">
      <g>
       <use xlink:href="#m01527fc562" x="90" y="129.735074" style="stroke: #000000; stroke-width: 0.8"/>
      </g>
     </g>
     <g id="text_12">
      <!-- 0.75 -->
      <g transform="translate(60.734375 133.534293) scale(0.1 -0.1)">
       <defs>
        <path id="DejaVuSans-37" d="M 525 4666 
L 3525 4666 
L 3525 4397 
L 1831 0 
L 1172 0 
L 2766 4134 
L 525 4134 
L 525 4666 
z
" transform="scale(0.015625)"/>
       </defs>
       <use xlink:href="#DejaVuSans-30"/>
       <use xlink:href="#DejaVuSans-2e" x="63.623047"/>
       <use xlink:href="#DejaVuSans-37" x="95.410156"/>
       <use xlink:href="#DejaVuSans-35" x="159.033203"/>
      </g>
     </g>
    </g>
    <g id="ytick_5">
     <g id="line2d_14">
      <g>
       <use xlink:href="#m01527fc562" x="90" y="108.900099" style="stroke: #000000; stroke-width: 0.8"/>
      </g>
     </g>
     <g id="text_13">
      <!-- 1.00 -->
      <g transform="translate(60.734375 112.699317) scale(0.1 -0.1)">
       <use xlink:href="#DejaVuSans-31"/>
       <use xlink:href="#DejaVuSans-2e" x="63.623047"/>
       <use xlink:href="#DejaVuSans-30" x="95.410156"/>
       <use xlink:href="#DejaVuSans-30" x="159.033203"/>
      </g>
     </g>
    </g>
    <g id="ytick_6">
     <g id="line2d_15">
      <g>
       <use xlink:href="#m01527fc562" x="90" y="88.065123" style="stroke: #000000; stroke-width: 0.8"/>
      </g>
     </g>
     <g id="text_14">
      <!-- 1.25 -->
      <g transform="translate(60.734375 91.864342) scale(0.1 -0.1)">
       <use xlink:href="#DejaVuSans-31"/>
       <use xlink:href="#DejaVuSans-2e" x="63.623047"/>
       <use xlink:href="#DejaVuSans-32" x="95.410156"/>
       <use xlink:href="#DejaVuSans-35" x="159.033203"/>
      </g>
     </g>
    </g>
    <g id="ytick_7">
     <g id="line2d_16">
      <g>
       <use xlink:href="#m01527fc562" x="90" y="67.230148" style="stroke: #000000; stroke-width: 0.8"/>
      </g>
     </g>
     <g id="text_15">
      <!-- 1.50 -->
      <g transform="translate(60.734375 71.029367) scale(0.1 -0.1)">
       <use xlink:href="#DejaVuSans-31"/>
       <use xlink:href="#DejaVuSans-2e" x="63.623047"/>
       <use xlink:href="#DejaVuSans-35" x="95.410156"/>
       <use xlink:href="#DejaVuSans-30" x="159.033203"/>
      </g>
     </g>
    </g>
    <g id="ytick_8">
     <g id="line2d_17">
      <g>
       <use xlink:href="#m01527fc562" x="90" y="46.395172" style="stroke: #000000; stroke-width: 0.8"/>
      </g>
     </g>
     <g id="text_16">
      <!-- 1.75 -->
      <g transform="translate(60.734375 50.194391) scale(0.1 -0.1)">
       <use xlink:href="#DejaVuSans-31"/>
       <use xlink:href="#DejaVuSans-2e" x="63.623047"/>
       <use xlink:href="#DejaVuSans-37" x="95.410156"/>
       <use xlink:href="#DejaVuSans-35" x="159.033203"/>
      </g>
     </g>
    </g>
   </g>
  </g>
 </g>
 <defs>
  <clipPath id="p58e2fc9f01">
   <rect x="90" y="25.92" width="558" height="166.32"/>
  </clipPath>
 </defs>
</svg>
