<?xml version="1.0" encoding="utf-8" standalone="no"?>
<!DOCTYPE svg PUBLIC "-//W3C//DTD SVG 1.1//EN"
  "http://www.w3.org/Graphics/SVG/1.1/DTD/svg11.dtd">
<svg xmlns:xlink="http://www.w3.org/1999/xlink" width="720pt" height="216pt" viewBox="0 0 720 216" xmlns="http://www.w3.org/2000/svg" version="1.1">
 <metadata>
  <rdf:RDF xmlns:dc="http://purl.org/dc/elements/1.1/" xmlns:cc="http://creativecommons.org/ns#" xmlns:rdf="http://www.w3.org/1999/02/22-rdf-syntax-ns#">
   <cc:Work>
    <dc:type rdf:resource="http://purl.org/dc/dcmitype/StillImage"/>
    <dc:date>2024-11-23T05:03:34.784754</dc:date>
    <dc:format>image/svg+xml</dc:format>
    <dc:creator>
     <cc:Agent>
      <dc:title>Matplotlib v3.7.2, https://matplotlib.org/</dc:title>
     </cc:Agent>
    </dc:creator>
   </cc:Work>
  </rdf:RDF>
 </metadata>
 <defs>
  <style type="text/css">*{stroke-linejoin: round; stroke-linecap: butt}</style>
 </defs>
 <g id="figure_1">
  <g id="patch_1">
   <path d="M 0 216 
L 720 216 
L 720 0 
L 0 0 
z
" style="fill: #ffffff"/>
  </g>
  <g id="axes_1">
   <g id="patch_2">
    <path d="M 90 192.24 
L 648 192.24 
L 648 25.92 
L 90 25.92 
z
" style="fill: #ffffff"/>
   </g>
   <g id="line2d_1">
    <path d="M 90 192.24 
L 648 192.24 
" clip-path="url(#p9edf1cee27)" style="fill: none; stroke: #000000; stroke-width: 0.5; stroke-linecap: square"/>
   </g>
   <g id="patch_3">
    <path d="M 136.188772 191.455689 
L 110.545006 191.455689 
L 106.49599 192.24 
L 90 192.24 
L 113.55791 187.934593 
L 133.121336 187.934593 
L 156.679245 192.24 
L 140.196888 192.24 
L 136.188772 191.455689 
z
M 114.634921 190.656614 
L 132.057958 190.656614 
L 123.360072 188.944048 
L 114.634921 190.656614 
z
" clip-path="url(#p9edf1cee27)" style="fill: #008000"/>
   </g>
   <g id="patch_4">
    <path d="M 156.679245 187.610092 
Q 151.101641 187.77094 145.070437 187.852299 
Q 139.039233 187.934593 132.470429 187.934593 
Q 112.881616 187.934593 101.440808 187.324867 
Q 90 186.715141 90 185.672435 
Q 90 184.625989 101.440808 184.017198 
Q 112.881616 183.407472 132.470429 183.407472 
Q 139.039233 183.407472 145.070437 183.489766 
Q 151.101641 183.571125 156.679245 183.731973 
L 156.679245 184.634405 
Q 151.051241 184.421188 145.591238 184.322061 
Q 140.131234 184.222934 134.10003 184.222934 
Q 123.280823 184.222934 117.081618 184.609156 
Q 110.899214 184.994443 110.899214 185.672435 
Q 110.899214 186.347623 117.081618 186.733845 
Q 123.280823 187.119132 134.10003 187.119132 
Q 140.131234 187.119132 145.591238 187.020004 
Q 151.051241 186.919942 156.679245 186.706725 
L 156.679245 187.610092 
z
" clip-path="url(#p9edf1cee27)" style="fill: #0000ff"/>
   </g>
   <g id="patch_5">
    <path d="M 90 177.911932 
L 156.679245 177.911932 
L 156.679245 178.983716 
L 132.690224 178.983716 
L 132.690224 183.407472 
L 114.035542 183.407472 
L 114.035542 178.983716 
L 90 178.983716 
L 90 177.911932 
z
" clip-path="url(#p9edf1cee27)" style="fill: #ff0000"/>
   </g>
   <g id="patch_6">
    <path d="M 156.679245 175.738893 
Q 149.954534 176.825413 142.721734 177.371153 
Q 135.488934 177.911932 127.777932 177.911932 
Q 110.353459 177.911932 100.176729 174.67718 
Q 90 171.442427 90 165.910603 
Q 90 160.314282 100.356055 157.104336 
Q 110.727054 153.894389 128.764223 153.894389 
Q 135.713091 153.894389 142.079151 154.330982 
Q 148.460154 154.762613 154.108911 155.615953 
L 154.108911 160.403585 
Q 148.280828 159.307143 142.512521 158.766364 
Q 136.744213 158.220623 130.946018 158.220623 
Q 120.216368 158.220623 114.403229 160.215057 
Q 108.59009 162.204529 108.59009 165.910603 
Q 108.59009 169.581948 114.194016 171.586304 
Q 119.797942 173.585699 130.109165 173.585699 
Q 132.9186 173.585699 135.324552 173.471589 
Q 137.730504 173.352519 139.643311 173.104455 
L 139.643311 168.609538 
L 128.659616 168.609538 
L 128.659616 164.605787 
L 156.679245 164.605787 
L 156.679245 175.738893 
z
" clip-path="url(#p9edf1cee27)" style="fill: #ffa600"/>
   </g>
   <g id="patch_7">
    <path d="M 226.867925 192.113211 
Q 221.290321 192.176057 215.259117 192.207846 
Q 209.227913 192.24 202.659108 192.24 
Q 183.070295 192.24 171.629487 192.001768 
Q 160.188679 191.763536 160.188679 191.356129 
Q 160.188679 190.947261 171.629487 190.709394 
Q 183.070295 190.471162 202.659108 190.471162 
Q 209.227913 190.471162 215.259117 190.503316 
Q 221.290321 190.535105 226.867925 190.597951 
L 226.867925 190.95055 
Q 221.239921 190.867242 215.779917 190.828511 
Q 210.319913 190.78978 204.288709 190.78978 
Q 193.469502 190.78978 187.270298 190.940684 
Q 181.087893 191.091224 181.087893 191.356129 
Q 181.087893 191.619938 187.270298 191.770843 
Q 193.469502 191.921383 204.288709 191.921383 
Q 210.319913 191.921383 215.779917 191.882652 
Q 221.239921 191.843555 226.867925 191.760247 
L 226.867925 192.113211 
z
" clip-path="url(#p9edf1cee27)" style="fill: #0000ff"/>
   </g>
   <g id="patch_8">
    <path d="M 206.377451 189.56015 
L 180.733685 189.56015 
L 176.684669 190.471162 
L 160.188679 190.471162 
L 183.746589 185.470243 
L 203.310015 185.470243 
L 226.867925 190.471162 
L 210.385568 190.471162 
L 206.377451 189.56015 
z
M 184.8236 188.63199 
L 202.246637 188.63199 
L 193.548751 186.642769 
L 184.8236 188.63199 
z
" clip-path="url(#p9edf1cee27)" style="fill: #008000"/>
   </g>
   <g id="patch_9">
    <path d="M 160.188679 178.63473 
L 226.867925 178.63473 
L 226.867925 179.967845 
L 202.878903 179.967845 
L 202.878903 185.470243 
L 184.224221 185.470243 
L 184.224221 179.967845 
L 160.188679 179.967845 
L 160.188679 178.63473 
z
" clip-path="url(#p9edf1cee27)" style="fill: #ff0000"/>
   </g>
   <g id="patch_10">
    <path d="M 226.867925 177.203787 
Q 220.143214 177.919259 212.910413 178.278628 
Q 205.677613 178.63473 197.966611 178.63473 
Q 180.542138 178.63473 170.365409 176.504651 
Q 160.188679 174.374572 160.188679 170.731876 
Q 160.188679 167.046709 170.544734 164.932965 
Q 180.915733 162.819222 198.952902 162.819222 
Q 205.90177 162.819222 212.26783 163.106717 
Q 218.648833 163.390945 224.297591 163.952868 
L 224.297591 167.105515 
Q 218.469508 166.38351 212.7012 166.027408 
Q 206.932892 165.668039 201.134697 165.668039 
Q 190.405047 165.668039 184.591908 166.981369 
Q 178.778769 168.291433 178.778769 170.731876 
Q 178.778769 173.14945 184.382695 174.469315 
Q 189.986621 175.785913 200.297844 175.785913 
Q 203.107279 175.785913 205.513231 175.710772 
Q 207.919183 175.632364 209.83199 175.469015 
L 209.83199 172.50912 
L 198.848295 172.50912 
L 198.848295 169.872657 
L 226.867925 169.872657 
L 226.867925 177.203787 
z
" clip-path="url(#p9edf1cee27)" style="fill: #ffa600"/>
   </g>
   <g id="patch_11">
    <path d="M 230.377358 192.09538 
L 297.056604 192.09538 
L 297.056604 192.123585 
L 273.067582 192.123585 
L 273.067582 192.24 
L 254.4129 192.24 
L 254.4129 192.123585 
L 230.377358 192.123585 
L 230.377358 192.09538 
z
" clip-path="url(#p9edf1cee27)" style="fill: #ff0000"/>
   </g>
   <g id="patch_12">
    <path d="M 276.56613 191.416273 
L 250.922364 191.416273 
L 246.873348 192.09538 
L 230.377358 192.09538 
L 253.935268 188.367482 
L 273.498694 188.367482 
L 297.056604 192.09538 
L 280.574247 192.09538 
L 276.56613 191.416273 
z
M 255.012279 190.724383 
L 272.435316 190.724383 
L 263.737431 189.241533 
L 255.012279 190.724383 
z
" clip-path="url(#p9edf1cee27)" style="fill: #008000"/>
   </g>
   <g id="patch_13">
    <path d="M 297.056604 177.698623 
Q 291.479 182.986934 285.447796 185.661835 
Q 279.416592 188.367482 272.847787 188.367482 
Q 253.258974 188.367482 241.818166 168.321096 
Q 230.377358 148.274711 230.377358 113.992931 
Q 230.377358 79.588168 241.818166 59.572528 
Q 253.258974 39.526142 272.847787 39.526142 
Q 279.416592 39.526142 285.447796 42.23179 
Q 291.479 44.906691 297.056604 50.195001 
L 297.056604 79.864882 
Q 291.4286 72.854796 285.968596 69.595721 
Q 280.508593 66.336646 274.477388 66.336646 
Q 263.658181 66.336646 257.458977 79.03474 
Q 251.276573 91.702088 251.276573 113.992931 
Q 251.276573 136.191536 257.458977 148.88963 
Q 263.658181 161.556978 274.477388 161.556978 
Q 280.508593 161.556978 285.968596 158.297903 
Q 291.4286 155.008082 297.056604 147.997997 
L 297.056604 177.698623 
z
" clip-path="url(#p9edf1cee27)" style="fill: #0000ff"/>
   </g>
   <g id="patch_14">
    <path d="M 300.566038 191.291341 
L 367.245283 191.291341 
L 367.245283 191.476356 
L 343.256262 191.476356 
L 343.256262 192.24 
L 324.60158 192.24 
L 324.60158 191.476356 
L 300.566038 191.476356 
L 300.566038 191.291341 
z
" clip-path="url(#p9edf1cee27)" style="fill: #ff0000"/>
   </g>
   <g id="patch_15">
    <path d="M 367.245283 187.931573 
Q 360.520572 189.611457 353.287772 190.455234 
Q 346.054972 191.291341 338.34397 191.291341 
Q 320.919496 191.291341 310.742767 186.290043 
Q 300.566038 181.288745 300.566038 172.735913 
Q 300.566038 164.083361 310.922093 159.120416 
Q 321.293091 154.157472 339.330261 154.157472 
Q 346.279129 154.157472 352.645188 154.832494 
Q 359.026192 155.499845 364.674949 156.819206 
L 364.674949 164.221433 
Q 358.846866 162.526208 353.078559 161.690102 
Q 347.310251 160.846324 341.512056 160.846324 
Q 330.782406 160.846324 324.969267 163.929947 
Q 319.156128 167.005898 319.156128 172.735913 
Q 319.156128 178.412232 324.760053 181.511196 
Q 330.363979 184.602489 340.675203 184.602489 
Q 343.484638 184.602489 345.89059 184.426062 
Q 348.296542 184.241966 350.209349 183.85843 
L 350.209349 176.908774 
L 339.225654 176.908774 
L 339.225654 170.718518 
L 367.245283 170.718518 
L 367.245283 187.931573 
z
" clip-path="url(#p9edf1cee27)" style="fill: #ffa600"/>
   </g>
   <g id="patch_16">
    <path d="M 346.75481 147.120945 
L 321.111043 147.120945 
L 317.062028 154.157472 
L 300.566038 154.157472 
L 324.123947 115.531078 
L 343.687373 115.531078 
L 367.245283 154.157472 
L 350.762926 154.157472 
L 346.75481 147.120945 
z
M 325.200958 139.951966 
L 342.623996 139.951966 
L 333.92611 124.587502 
L 325.200958 139.951966 
z
" clip-path="url(#p9edf1cee27)" style="fill: #008000"/>
   </g>
   <g id="patch_17">
    <path d="M 370.754717 186.231128 
L 437.433962 186.231128 
L 437.433962 187.403026 
L 413.444941 187.403026 
L 413.444941 192.24 
L 394.790259 192.24 
L 394.790259 187.403026 
L 370.754717 187.403026 
L 370.754717 186.231128 
z
" clip-path="url(#p9edf1cee27)" style="fill: #ff0000"/>
   </g>
   <g id="patch_18">
    <path d="M 437.433962 176.143321 
Q 431.856358 181.143617 425.825154 183.672837 
Q 419.79395 186.231128 413.225146 186.231128 
Q 393.636333 186.231128 382.195525 167.276516 
Q 370.754717 148.321904 370.754717 115.907191 
Q 370.754717 83.376192 382.195525 64.450652 
Q 393.636333 45.496039 413.225146 45.496039 
Q 419.79395 45.496039 425.825154 48.054331 
Q 431.856358 50.58355 437.433962 55.583847 
L 437.433962 83.637836 
Q 431.805958 77.009536 426.345955 73.927958 
Q 420.885951 70.84638 414.854747 70.84638 
Q 404.03554 70.84638 397.836335 82.852906 
Q 391.653931 94.83036 391.653931 115.907191 
Q 391.653931 136.896808 397.836335 148.903334 
Q 404.03554 160.880788 414.854747 160.880788 
Q 420.885951 160.880788 426.345955 157.79921 
Q 431.805958 154.68856 437.433962 148.06026 
L 437.433962 176.143321 
z
" clip-path="url(#p9edf1cee27)" style="fill: #0000ff"/>
   </g>
   <g id="patch_19">
    <path d="M 487.132168 192.205702 
L 461.488402 192.205702 
L 457.439386 192.24 
L 440.943396 192.24 
L 464.501306 192.051726 
L 484.064732 192.051726 
L 507.622642 192.24 
L 491.140285 192.24 
L 487.132168 192.205702 
z
M 465.578317 192.170759 
L 483.001354 192.170759 
L 474.303468 192.095869 
L 465.578317 192.170759 
z
" clip-path="url(#p9edf1cee27)" style="fill: #008000"/>
   </g>
   <g id="patch_20">
    <path d="M 507.622642 177.020597 
Q 500.897931 184.536161 493.66513 188.311102 
Q 486.43233 192.051726 478.721328 192.051726 
Q 461.296855 192.051726 451.120126 169.67662 
Q 440.943396 147.301515 440.943396 109.037339 
Q 440.943396 70.327034 451.299451 48.123517 
Q 461.67045 25.92 479.707619 25.92 
Q 486.656487 25.92 493.022547 28.939953 
Q 499.40355 31.925588 505.052308 37.828223 
L 505.052308 70.944752 
Q 499.224225 63.360552 493.455917 59.619929 
Q 487.687609 55.844988 481.889414 55.844988 
Q 471.159764 55.844988 465.346625 69.640681 
Q 459.533486 83.402058 459.533486 109.037339 
Q 459.533486 134.432398 465.137412 148.296727 
Q 470.741338 162.126738 481.052561 162.126738 
Q 483.861996 162.126738 486.267948 161.337432 
Q 488.6739 160.513809 490.586707 158.797926 
L 490.586707 127.706139 
L 479.603012 127.706139 
L 479.603012 100.011798 
L 507.622642 100.011798 
L 507.622642 177.020597 
z
" clip-path="url(#p9edf1cee27)" style="fill: #ffa600"/>
   </g>
   <g id="patch_21">
    <path d="M 557.320847 192.030397 
L 531.677081 192.030397 
L 527.628065 192.24 
L 511.132075 192.24 
L 534.689985 191.089403 
L 554.253411 191.089403 
L 577.811321 192.24 
L 561.328964 192.24 
L 557.320847 192.030397 
z
M 535.766996 191.816848 
L 553.190033 191.816848 
L 544.492148 191.359174 
L 535.766996 191.816848 
z
" clip-path="url(#p9edf1cee27)" style="fill: #008000"/>
   </g>
   <g id="patch_22">
    <path d="M 577.811321 189.766884 
Q 572.233717 190.422426 566.202513 190.754009 
Q 560.171309 191.089403 553.602504 191.089403 
Q 534.013691 191.089403 522.572883 188.604439 
Q 511.132075 186.119475 511.132075 181.869882 
Q 511.132075 177.605043 522.572883 175.123891 
Q 534.013691 172.638927 553.602504 172.638927 
Q 560.171309 172.638927 566.202513 172.974321 
Q 572.233717 173.305903 577.811321 173.961446 
L 577.811321 177.639345 
Q 572.183317 176.77037 566.723313 176.366373 
Q 561.26331 175.962375 555.232105 175.962375 
Q 544.412898 175.962375 538.213694 177.53644 
Q 532.03129 179.106693 532.03129 181.869882 
Q 532.03129 184.621636 538.213694 186.195701 
Q 544.412898 187.765954 555.232105 187.765954 
Q 561.26331 187.765954 566.723313 187.361957 
Q 572.183317 186.954148 577.811321 186.085173 
L 577.811321 189.766884 
z
" clip-path="url(#p9edf1cee27)" style="fill: #0000ff"/>
   </g>
   <g id="patch_23">
    <path d="M 511.132075 88.386101 
L 577.811321 88.386101 
L 577.811321 104.817749 
L 553.822299 104.817749 
L 553.822299 172.638927 
L 535.167617 172.638927 
L 535.167617 104.817749 
L 511.132075 104.817749 
L 511.132075 88.386101 
z
" clip-path="url(#p9edf1cee27)" style="fill: #ff0000"/>
   </g>
   <g id="patch_24">
    <path d="M 627.509527 192.238377 
L 601.86576 192.238377 
L 597.816745 192.24 
L 581.320755 192.24 
L 604.878664 192.231091 
L 624.44209 192.231091 
L 648 192.24 
L 631.517643 192.24 
L 627.509527 192.238377 
z
M 605.955675 192.236723 
L 623.378713 192.236723 
L 614.680827 192.23318 
L 605.955675 192.236723 
z
" clip-path="url(#p9edf1cee27)" style="fill: #008000"/>
   </g>
   <g id="patch_25">
    <path d="M 581.320755 191.760388 
L 648 191.760388 
L 648 191.852188 
L 624.010978 191.852188 
L 624.010978 192.231091 
L 605.356297 192.231091 
L 605.356297 191.852188 
L 581.320755 191.852188 
L 581.320755 191.760388 
z
" clip-path="url(#p9edf1cee27)" style="fill: #ff0000"/>
   </g>
   <g id="patch_26">
    <path d="M 648 176.876382 
Q 641.275289 184.318385 634.042489 188.056378 
Q 626.809689 191.760388 619.098687 191.760388 
Q 601.674213 191.760388 591.497484 169.604287 
Q 581.320755 147.448186 581.320755 109.558535 
Q 581.320755 71.227121 591.67681 49.240929 
Q 602.047808 27.254737 620.084978 27.254737 
Q 627.033846 27.254737 633.399905 30.245131 
Q 639.780909 33.201543 645.429666 39.046404 
L 645.429666 71.838793 
Q 639.601583 64.328826 633.833276 60.624815 
Q 628.064968 56.886823 622.266773 56.886823 
Q 611.537123 56.886823 605.723984 70.547486 
Q 599.910845 84.174168 599.910845 109.558535 
Q 599.910845 134.70503 605.51477 148.433657 
Q 611.118696 162.128302 621.42992 162.128302 
Q 624.239355 162.128302 626.645307 161.346722 
Q 629.051259 160.53116 630.964066 158.832073 
L 630.964066 128.044607 
L 619.980371 128.044607 
L 619.980371 100.621335 
L 648 100.621335 
L 648 176.876382 
z
" clip-path="url(#p9edf1cee27)" style="fill: #ffa600"/>
   </g>
   <g id="matplotlib.axis_1">
    <g id="xtick_1">
     <g id="line2d_2">
      <defs>
       <path id="m6198d2c21b" d="M 0 0 
L 0 3.5 
" style="stroke: #000000; stroke-width: 0.8"/>
      </defs>
      <g>
       <use xlink:href="#m6198d2c21b" x="123.339623" y="192.24" style="stroke: #000000; stroke-width: 0.8"/>
      </g>
     </g>
     <g id="text_1">
      <!-- 0 -->
      <g transform="translate(120.158373 206.838437) scale(0.1 -0.1)">
       <defs>
        <path id="DejaVuSans-30" d="M 2034 4250 
Q 1547 4250 1301 3770 
Q 1056 3291 1056 2328 
Q 1056 1369 1301 889 
Q 1547 409 2034 409 
Q 2525 409 2770 889 
Q 3016 1369 3016 2328 
Q 3016 3291 2770 3770 
Q 2525 4250 2034 4250 
z
M 2034 4750 
Q 2819 4750 3233 4129 
Q 3647 3509 3647 2328 
Q 3647 1150 3233 529 
Q 2819 -91 2034 -91 
Q 1250 -91 836 529 
Q 422 1150 422 2328 
Q 422 3509 836 4129 
Q 1250 4750 2034 4750 
z
" transform="scale(0.015625)"/>
       </defs>
       <use xlink:href="#DejaVuSans-30"/>
      </g>
     </g>
    </g>
    <g id="xtick_2">
     <g id="line2d_3">
      <g>
       <use xlink:href="#m6198d2c21b" x="193.528302" y="192.24" style="stroke: #000000; stroke-width: 0.8"/>
      </g>
     </g>
     <g id="text_2">
      <!-- 1 -->
      <g transform="translate(190.347052 206.838437) scale(0.1 -0.1)">
       <defs>
        <path id="DejaVuSans-31" d="M 794 531 
L 1825 531 
L 1825 4091 
L 703 3866 
L 703 4441 
L 1819 4666 
L 2450 4666 
L 2450 531 
L 3481 531 
L 3481 0 
L 794 0 
L 794 531 
z
" transform="scale(0.015625)"/>
       </defs>
       <use xlink:href="#DejaVuSans-31"/>
      </g>
     </g>
    </g>
    <g id="xtick_3">
     <g id="line2d_4">
      <g>
       <use xlink:href="#m6198d2c21b" x="263.716981" y="192.24" style="stroke: #000000; stroke-width: 0.8"/>
      </g>
     </g>
     <g id="text_3">
      <!-- 2 -->
      <g transform="translate(260.535731 206.838437) scale(0.1 -0.1)">
       <defs>
        <path id="DejaVuSans-32" d="M 1228 531 
L 3431 531 
L 3431 0 
L 469 0 
L 469 531 
Q 828 903 1448 1529 
Q 2069 2156 2228 2338 
Q 2531 2678 2651 2914 
Q 2772 3150 2772 3378 
Q 2772 3750 2511 3984 
Q 2250 4219 1831 4219 
Q 1534 4219 1204 4116 
Q 875 4013 500 3803 
L 500 4441 
Q 881 4594 1212 4672 
Q 1544 4750 1819 4750 
Q 2544 4750 2975 4387 
Q 3406 4025 3406 3419 
Q 3406 3131 3298 2873 
Q 3191 2616 2906 2266 
Q 2828 2175 2409 1742 
Q 1991 1309 1228 531 
z
" transform="scale(0.015625)"/>
       </defs>
       <use xlink:href="#DejaVuSans-32"/>
      </g>
     </g>
    </g>
    <g id="xtick_4">
     <g id="line2d_5">
      <g>
       <use xlink:href="#m6198d2c21b" x="333.90566" y="192.24" style="stroke: #000000; stroke-width: 0.8"/>
      </g>
     </g>
     <g id="text_4">
      <!-- 3 -->
      <g transform="translate(330.72441 206.838437) scale(0.1 -0.1)">
       <defs>
        <path id="DejaVuSans-33" d="M 2597 2516 
Q 3050 2419 3304 2112 
Q 3559 1806 3559 1356 
Q 3559 666 3084 287 
Q 2609 -91 1734 -91 
Q 1441 -91 1130 -33 
Q 819 25 488 141 
L 488 750 
Q 750 597 1062 519 
Q 1375 441 1716 441 
Q 2309 441 2620 675 
Q 2931 909 2931 1356 
Q 2931 1769 2642 2001 
Q 2353 2234 1838 2234 
L 1294 2234 
L 1294 2753 
L 1863 2753 
Q 2328 2753 2575 2939 
Q 2822 3125 2822 3475 
Q 2822 3834 2567 4026 
Q 2313 4219 1838 4219 
Q 1578 4219 1281 4162 
Q 984 4106 628 3988 
L 628 4550 
Q 988 4650 1302 4700 
Q 1616 4750 1894 4750 
Q 2613 4750 3031 4423 
Q 3450 4097 3450 3541 
Q 3450 3153 3228 2886 
Q 3006 2619 2597 2516 
z
" transform="scale(0.015625)"/>
       </defs>
       <use xlink:href="#DejaVuSans-33"/>
      </g>
     </g>
    </g>
    <g id="xtick_5">
     <g id="line2d_6">
      <g>
       <use xlink:href="#m6198d2c21b" x="404.09434" y="192.24" style="stroke: #000000; stroke-width: 0.8"/>
      </g>
     </g>
     <g id="text_5">
      <!-- 4 -->
      <g transform="translate(400.91309 206.838437) scale(0.1 -0.1)">
       <defs>
        <path id="DejaVuSans-34" d="M 2419 4116 
L 825 1625 
L 2419 1625 
L 2419 4116 
z
M 2253 4666 
L 3047 4666 
L 3047 1625 
L 3713 1625 
L 3713 1100 
L 3047 1100 
L 3047 0 
L 2419 0 
L 2419 1100 
L 313 1100 
L 313 1709 
L 2253 4666 
z
" transform="scale(0.015625)"/>
       </defs>
       <use xlink:href="#DejaVuSans-34"/>
      </g>
     </g>
    </g>
    <g id="xtick_6">
     <g id="line2d_7">
      <g>
       <use xlink:href="#m6198d2c21b" x="474.283019" y="192.24" style="stroke: #000000; stroke-width: 0.8"/>
      </g>
     </g>
     <g id="text_6">
      <!-- 5 -->
      <g transform="translate(471.101769 206.838437) scale(0.1 -0.1)">
       <defs>
        <path id="DejaVuSans-35" d="M 691 4666 
L 3169 4666 
L 3169 4134 
L 1269 4134 
L 1269 2991 
Q 1406 3038 1543 3061 
Q 1681 3084 1819 3084 
Q 2600 3084 3056 2656 
Q 3513 2228 3513 1497 
Q 3513 744 3044 326 
Q 2575 -91 1722 -91 
Q 1428 -91 1123 -41 
Q 819 9 494 109 
L 494 744 
Q 775 591 1075 516 
Q 1375 441 1709 441 
Q 2250 441 2565 725 
Q 2881 1009 2881 1497 
Q 2881 1984 2565 2268 
Q 2250 2553 1709 2553 
Q 1456 2553 1204 2497 
Q 953 2441 691 2322 
L 691 4666 
z
" transform="scale(0.015625)"/>
       </defs>
       <use xlink:href="#DejaVuSans-35"/>
      </g>
     </g>
    </g>
    <g id="xtick_7">
     <g id="line2d_8">
      <g>
       <use xlink:href="#m6198d2c21b" x="544.471698" y="192.24" style="stroke: #000000; stroke-width: 0.8"/>
      </g>
     </g>
     <g id="text_7">
      <!-- 6 -->
      <g transform="translate(541.290448 206.838437) scale(0.1 -0.1)">
       <defs>
        <path id="DejaVuSans-36" d="M 2113 2584 
Q 1688 2584 1439 2293 
Q 1191 2003 1191 1497 
Q 1191 994 1439 701 
Q 1688 409 2113 409 
Q 2538 409 2786 701 
Q 3034 994 3034 1497 
Q 3034 2003 2786 2293 
Q 2538 2584 2113 2584 
z
M 3366 4563 
L 3366 3988 
Q 3128 4100 2886 4159 
Q 2644 4219 2406 4219 
Q 1781 4219 1451 3797 
Q 1122 3375 1075 2522 
Q 1259 2794 1537 2939 
Q 1816 3084 2150 3084 
Q 2853 3084 3261 2657 
Q 3669 2231 3669 1497 
Q 3669 778 3244 343 
Q 2819 -91 2113 -91 
Q 1303 -91 875 529 
Q 447 1150 447 2328 
Q 447 3434 972 4092 
Q 1497 4750 2381 4750 
Q 2619 4750 2861 4703 
Q 3103 4656 3366 4563 
z
" transform="scale(0.015625)"/>
       </defs>
       <use xlink:href="#DejaVuSans-36"/>
      </g>
     </g>
    </g>
    <g id="xtick_8">
     <g id="line2d_9">
      <g>
       <use xlink:href="#m6198d2c21b" x="614.660377" y="192.24" style="stroke: #000000; stroke-width: 0.8"/>
      </g>
     </g>
     <g id="text_8">
      <!-- 7 -->
      <g transform="translate(611.479127 206.838437) scale(0.1 -0.1)">
       <defs>
        <path id="DejaVuSans-37" d="M 525 4666 
L 3525 4666 
L 3525 4397 
L 1831 0 
L 1172 0 
L 2766 4134 
L 525 4134 
L 525 4666 
z
" transform="scale(0.015625)"/>
       </defs>
       <use xlink:href="#DejaVuSans-37"/>
      </g>
     </g>
    </g>
   </g>
   <g id="matplotlib.axis_2">
    <g id="ytick_1">
     <g id="line2d_10">
      <defs>
       <path id="m6b7e74d1be" d="M 0 0 
L -3.5 0 
" style="stroke: #000000; stroke-width: 0.8"/>
      </defs>
      <g>
       <use xlink:href="#m6b7e74d1be" x="90" y="192.24" style="stroke: #000000; stroke-width: 0.8"/>
      </g>
     </g>
     <g id="text_9">
      <!-- 0.00 -->
      <g transform="translate(60.734375 196.039219) scale(0.1 -0.1)">
       <defs>
        <path id="DejaVuSans-2e" d="M 684 794 
L 1344 794 
L 1344 0 
L 684 0 
L 684 794 
z
" transform="scale(0.015625)"/>
       </defs>
       <use xlink:href="#DejaVuSans-30"/>
       <use xlink:href="#DejaVuSans-2e" x="63.623047"/>
       <use xlink:href="#DejaVuSans-30" x="95.410156"/>
       <use xlink:href="#DejaVuSans-30" x="159.033203"/>
      </g>
     </g>
    </g>
    <g id="ytick_2">
     <g id="line2d_11">
      <g>
       <use xlink:href="#m6b7e74d1be" x="90" y="171.282398" style="stroke: #000000; stroke-width: 0.8"/>
      </g>
     </g>
     <g id="text_10">
      <!-- 0.25 -->
      <g transform="translate(60.734375 175.081617) scale(0.1 -0.1)">
       <use xlink:href="#DejaVuSans-30"/>
       <use xlink:href="#DejaVuSans-2e" x="63.623047"/>
       <use xlink:href="#DejaVuSans-32" x="95.410156"/>
       <use xlink:href="#DejaVuSans-35" x="159.033203"/>
      </g>
     </g>
    </g>
    <g id="ytick_3">
     <g id="line2d_12">
      <g>
       <use xlink:href="#m6b7e74d1be" x="90" y="150.324796" style="stroke: #000000; stroke-width: 0.8"/>
      </g>
     </g>
     <g id="text_11">
      <!-- 0.50 -->
      <g transform="translate(60.734375 154.124015) scale(0.1 -0.1)">
       <use xlink:href="#DejaVuSans-30"/>
       <use xlink:href="#DejaVuSans-2e" x="63.623047"/>
       <use xlink:href="#DejaVuSans-35" x="95.410156"/>
       <use xlink:href="#DejaVuSans-30" x="159.033203"/>
      </g>
     </g>
    </g>
    <g id="ytick_4">
     <g id="line2d_13">
      <g>
       <use xlink:href="#m6b7e74d1be" x="90" y="129.367194" style="stroke: #000000; stroke-width: 0.8"/>
      </g>
     </g>
     <g id="text_12">
      <!-- 0.75 -->
      <g transform="translate(60.734375 133.166413) scale(0.1 -0.1)">
       <use xlink:href="#DejaVuSans-30"/>
       <use xlink:href="#DejaVuSans-2e" x="63.623047"/>
       <use xlink:href="#DejaVuSans-37" x="95.410156"/>
       <use xlink:href="#DejaVuSans-35" x="159.033203"/>
      </g>
     </g>
    </g>
    <g id="ytick_5">
     <g id="line2d_14">
      <g>
       <use xlink:href="#m6b7e74d1be" x="90" y="108.409592" style="stroke: #000000; stroke-width: 0.8"/>
      </g>
     </g>
     <g id="text_13">
      <!-- 1.00 -->
      <g transform="translate(60.734375 112.208811) scale(0.1 -0.1)">
       <use xlink:href="#DejaVuSans-31"/>
       <use xlink:href="#DejaVuSans-2e" x="63.623047"/>
       <use xlink:href="#DejaVuSans-30" x="95.410156"/>
       <use xlink:href="#DejaVuSans-30" x="159.033203"/>
      </g>
     </g>
    </g>
    <g id="ytick_6">
     <g id="line2d_15">
      <g>
       <use xlink:href="#m6b7e74d1be" x="90" y="87.45199" style="stroke: #000000; stroke-width: 0.8"/>
      </g>
     </g>
     <g id="text_14">
      <!-- 1.25 -->
      <g transform="translate(60.734375 91.251209) scale(0.1 -0.1)">
       <use xlink:href="#DejaVuSans-31"/>
       <use xlink:href="#DejaVuSans-2e" x="63.623047"/>
       <use xlink:href="#DejaVuSans-32" x="95.410156"/>
       <use xlink:href="#DejaVuSans-35" x="159.033203"/>
      </g>
     </g>
    </g>
    <g id="ytick_7">
     <g id="line2d_16">
      <g>
       <use xlink:href="#m6b7e74d1be" x="90" y="66.494388" style="stroke: #000000; stroke-width: 0.8"/>
      </g>
     </g>
     <g id="text_15">
      <!-- 1.50 -->
      <g transform="translate(60.734375 70.293607) scale(0.1 -0.1)">
       <use xlink:href="#DejaVuSans-31"/>
       <use xlink:href="#DejaVuSans-2e" x="63.623047"/>
       <use xlink:href="#DejaVuSans-35" x="95.410156"/>
       <use xlink:href="#DejaVuSans-30" x="159.033203"/>
      </g>
     </g>
    </g>
    <g id="ytick_8">
     <g id="line2d_17">
      <g>
       <use xlink:href="#m6b7e74d1be" x="90" y="45.536786" style="stroke: #000000; stroke-width: 0.8"/>
      </g>
     </g>
     <g id="text_16">
      <!-- 1.75 -->
      <g transform="translate(60.734375 49.336004) scale(0.1 -0.1)">
       <use xlink:href="#DejaVuSans-31"/>
       <use xlink:href="#DejaVuSans-2e" x="63.623047"/>
       <use xlink:href="#DejaVuSans-37" x="95.410156"/>
       <use xlink:href="#DejaVuSans-35" x="159.033203"/>
      </g>
     </g>
    </g>
   </g>
  </g>
 </g>
 <defs>
  <clipPath id="p9edf1cee27">
   <rect x="90" y="25.92" width="558" height="166.32"/>
  </clipPath>
 </defs>
</svg>
