<?xml version="1.0" encoding="utf-8" standalone="no"?>
<!DOCTYPE svg PUBLIC "-//W3C//DTD SVG 1.1//EN"
  "http://www.w3.org/Graphics/SVG/1.1/DTD/svg11.dtd">
<svg xmlns:xlink="http://www.w3.org/1999/xlink" width="720pt" height="216pt" viewBox="0 0 720 216" xmlns="http://www.w3.org/2000/svg" version="1.1">
 <metadata>
  <rdf:RDF xmlns:dc="http://purl.org/dc/elements/1.1/" xmlns:cc="http://creativecommons.org/ns#" xmlns:rdf="http://www.w3.org/1999/02/22-rdf-syntax-ns#">
   <cc:Work>
    <dc:type rdf:resource="http://purl.org/dc/dcmitype/StillImage"/>
    <dc:date>2024-11-23T05:02:05.918126</dc:date>
    <dc:format>image/svg+xml</dc:format>
    <dc:creator>
     <cc:Agent>
      <dc:title>Matplotlib v3.7.2, https://matplotlib.org/</dc:title>
     </cc:Agent>
    </dc:creator>
   </cc:Work>
  </rdf:RDF>
 </metadata>
 <defs>
  <style type="text/css">*{stroke-linejoin: round; stroke-linecap: butt}</style>
 </defs>
 <g id="figure_1">
  <g id="patch_1">
   <path d="M 0 216 
L 720 216 
L 720 0 
L 0 0 
z
" style="fill: #ffffff"/>
  </g>
  <g id="axes_1">
   <g id="patch_2">
    <path d="M 90 192.24 
L 648 192.24 
L 648 25.92 
L 90 25.92 
z
" style="fill: #ffffff"/>
   </g>
   <g id="line2d_1">
    <path d="M 90 192.24 
L 648 192.24 
" clip-path="url(#pd4beb8ca3b)" style="fill: none; stroke: #000000; stroke-width: 0.5; stroke-linecap: square"/>
   </g>
   <g id="patch_3">
    <path d="M 136.188772 191.402992 
L 110.545006 191.402992 
L 106.49599 192.24 
L 90 192.24 
L 113.55791 187.645321 
L 133.121336 187.645321 
L 156.679245 192.24 
L 140.196888 192.24 
L 136.188772 191.402992 
z
M 114.634921 190.55023 
L 132.057958 190.55023 
L 123.360072 188.722599 
L 114.634921 190.55023 
z
" clip-path="url(#pd4beb8ca3b)" style="fill: #008000"/>
   </g>
   <g id="patch_4">
    <path d="M 90 181.161237 
L 156.679245 181.161237 
L 156.679245 182.425814 
L 132.690224 182.425814 
L 132.690224 187.645321 
L 114.035542 187.645321 
L 114.035542 182.425814 
L 90 182.425814 
L 90 181.161237 
z
" clip-path="url(#pd4beb8ca3b)" style="fill: #ff0000"/>
   </g>
   <g id="patch_5">
    <path d="M 156.679245 180.511628 
Q 149.954534 180.836433 142.721734 180.999576 
Q 135.488934 181.161237 127.777932 181.161237 
Q 110.353459 181.161237 100.176729 180.194239 
Q 90 179.22724 90 177.573554 
Q 90 175.900588 100.356055 174.941005 
Q 110.727054 173.981422 128.764223 173.981422 
Q 135.713091 173.981422 142.079151 174.111937 
Q 148.460154 174.240969 154.108911 174.496067 
L 154.108911 175.927284 
Q 148.280828 175.599513 142.512521 175.437852 
Q 136.744213 175.274709 130.946018 175.274709 
Q 120.216368 175.274709 114.403229 175.870925 
Q 108.59009 176.465659 108.59009 177.573554 
Q 108.59009 178.671068 114.194016 179.270251 
Q 119.797942 179.867951 130.109165 179.867951 
Q 132.9186 179.867951 135.324552 179.833839 
Q 137.730504 179.798244 139.643311 179.724088 
L 139.643311 178.380375 
L 128.659616 178.380375 
L 128.659616 177.183492 
L 156.679245 177.183492 
L 156.679245 180.511628 
z
" clip-path="url(#pd4beb8ca3b)" style="fill: #ffa600"/>
   </g>
   <g id="patch_6">
    <path d="M 156.679245 170.724206 
Q 151.101641 172.338734 145.070437 173.155385 
Q 139.039233 173.981422 132.470429 173.981422 
Q 112.881616 173.981422 101.440808 167.861234 
Q 90 161.741046 90 151.274774 
Q 90 140.770954 101.440808 134.660153 
Q 112.881616 128.539965 132.470429 128.539965 
Q 139.039233 128.539965 145.070437 129.366002 
Q 151.101641 130.182653 156.679245 131.797181 
L 156.679245 140.855435 
Q 151.051241 138.715247 145.591238 137.720247 
Q 140.131234 136.725247 134.10003 136.725247 
Q 123.280823 136.725247 117.081618 140.601992 
Q 110.899214 144.46935 110.899214 151.274774 
Q 110.899214 158.052037 117.081618 161.928782 
Q 123.280823 165.79614 134.10003 165.79614 
Q 140.131234 165.79614 145.591238 164.80114 
Q 151.051241 163.796754 156.679245 161.656565 
L 156.679245 170.724206 
z
" clip-path="url(#pd4beb8ca3b)" style="fill: #0000ff"/>
   </g>
   <g id="patch_7">
    <path d="M 160.188679 192.022409 
L 226.867925 192.022409 
L 226.867925 192.064845 
L 202.878903 192.064845 
L 202.878903 192.24 
L 184.224221 192.24 
L 184.224221 192.064845 
L 160.188679 192.064845 
L 160.188679 192.022409 
z
" clip-path="url(#pd4beb8ca3b)" style="fill: #ff0000"/>
   </g>
   <g id="patch_8">
    <path d="M 226.867925 191.763325 
Q 220.143214 191.892867 212.910413 191.957934 
Q 205.677613 192.022409 197.966611 192.022409 
Q 180.542138 192.022409 170.365409 191.63674 
Q 160.188679 191.251071 160.188679 190.591529 
Q 160.188679 189.924298 170.544734 189.541587 
Q 180.915733 189.158875 198.952902 189.158875 
Q 205.90177 189.158875 212.26783 189.210929 
Q 218.648833 189.262391 224.297591 189.364132 
L 224.297591 189.934946 
Q 218.469508 189.80422 212.7012 189.739745 
Q 206.932892 189.674678 201.134697 189.674678 
Q 190.405047 189.674678 184.591908 189.912468 
Q 178.778769 190.149666 178.778769 190.591529 
Q 178.778769 191.029252 184.382695 191.268225 
Q 189.986621 191.506606 200.297844 191.506606 
Q 203.107279 191.506606 205.513231 191.493001 
Q 207.919183 191.478805 209.83199 191.449229 
L 209.83199 190.913315 
L 198.848295 190.913315 
L 198.848295 190.43596 
L 226.867925 190.43596 
L 226.867925 191.763325 
z
" clip-path="url(#pd4beb8ca3b)" style="fill: #ffa600"/>
   </g>
   <g id="patch_9">
    <path d="M 226.867925 188.901213 
Q 221.290321 189.02893 215.259117 189.093532 
Q 209.227913 189.158875 202.659108 189.158875 
Q 183.070295 189.158875 171.629487 188.674738 
Q 160.188679 188.190601 160.188679 187.362666 
Q 160.188679 186.531762 171.629487 186.048367 
Q 183.070295 185.56423 202.659108 185.56423 
Q 209.227913 185.56423 215.259117 185.629573 
Q 221.290321 185.694175 226.867925 185.821892 
L 226.867925 186.538445 
Q 221.239921 186.369145 215.779917 186.290436 
Q 210.319913 186.211726 204.288709 186.211726 
Q 193.469502 186.211726 187.270298 186.518396 
Q 181.087893 186.824323 181.087893 187.362666 
Q 181.087893 187.898782 187.270298 188.205451 
Q 193.469502 188.511379 204.288709 188.511379 
Q 210.319913 188.511379 215.779917 188.432669 
Q 221.239921 188.353217 226.867925 188.183918 
L 226.867925 188.901213 
z
" clip-path="url(#pd4beb8ca3b)" style="fill: #0000ff"/>
   </g>
   <g id="patch_10">
    <path d="M 206.377451 158.181321 
L 180.733685 158.181321 
L 176.684669 185.56423 
L 160.188679 185.56423 
L 183.746589 35.248171 
L 203.310015 35.248171 
L 226.867925 185.56423 
L 210.385568 185.56423 
L 206.377451 158.181321 
z
M 184.8236 130.28297 
L 202.246637 130.28297 
L 193.548751 70.491585 
L 184.8236 130.28297 
z
" clip-path="url(#pd4beb8ca3b)" style="fill: #008000"/>
   </g>
   <g id="patch_11">
    <path d="M 276.56613 192.103587 
L 250.922364 192.103587 
L 246.873348 192.24 
L 230.377358 192.24 
L 253.935268 191.491173 
L 273.498694 191.491173 
L 297.056604 192.24 
L 280.574247 192.24 
L 276.56613 192.103587 
z
M 255.012279 191.964606 
L 272.435316 191.964606 
L 263.737431 191.666744 
L 255.012279 191.964606 
z
" clip-path="url(#pd4beb8ca3b)" style="fill: #008000"/>
   </g>
   <g id="patch_12">
    <path d="M 230.377358 189.880284 
L 297.056604 189.880284 
L 297.056604 190.194452 
L 273.067582 190.194452 
L 273.067582 191.491173 
L 254.4129 191.491173 
L 254.4129 190.194452 
L 230.377358 190.194452 
L 230.377358 189.880284 
z
" clip-path="url(#pd4beb8ca3b)" style="fill: #ff0000"/>
   </g>
   <g id="patch_13">
    <path d="M 297.056604 189.580082 
Q 291.479 189.728885 285.447796 189.804152 
Q 279.416592 189.880284 272.847787 189.880284 
Q 253.258974 189.880284 241.818166 189.316215 
Q 230.377358 188.752147 230.377358 187.78752 
Q 230.377358 186.819433 241.818166 186.256229 
Q 253.258974 185.692161 272.847787 185.692161 
Q 279.416592 185.692161 285.447796 185.768293 
Q 291.479 185.84356 297.056604 185.992363 
L 297.056604 186.827219 
Q 291.4286 186.629968 285.968596 186.538264 
Q 280.508593 186.446559 274.477388 186.446559 
Q 263.658181 186.446559 257.458977 186.803861 
Q 251.276573 187.160297 251.276573 187.78752 
Q 251.276573 188.412148 257.458977 188.769449 
Q 263.658181 189.125885 274.477388 189.125885 
Q 280.508593 189.125885 285.968596 189.034181 
Q 291.4286 188.941611 297.056604 188.74436 
L 297.056604 189.580082 
z
" clip-path="url(#pd4beb8ca3b)" style="fill: #0000ff"/>
   </g>
   <g id="patch_14">
    <path d="M 297.056604 172.074911 
Q 290.331893 178.883536 283.099093 182.303393 
Q 275.866292 185.692161 268.15529 185.692161 
Q 250.730817 185.692161 240.554088 165.421734 
Q 230.377358 145.151307 230.377358 110.486389 
Q 230.377358 75.417306 240.733413 55.302327 
Q 251.104412 35.187348 269.141581 35.187348 
Q 276.090449 35.187348 282.456509 37.923234 
Q 288.837513 40.62803 294.48627 45.975444 
L 294.48627 75.976919 
Q 288.658187 69.106115 282.889879 65.717347 
Q 277.121572 62.29749 271.323376 62.29749 
Q 260.593726 62.29749 254.780587 74.795514 
Q 248.967448 87.262449 248.967448 110.486389 
Q 248.967448 133.492702 254.571374 146.052905 
Q 260.1753 158.582019 270.486524 158.582019 
Q 273.295958 158.582019 275.70191 157.866958 
Q 278.107863 157.120807 280.020669 155.566327 
L 280.020669 127.399138 
L 269.036975 127.399138 
L 269.036975 102.309821 
L 297.056604 102.309821 
L 297.056604 172.074911 
z
" clip-path="url(#pd4beb8ca3b)" style="fill: #ffa600"/>
   </g>
   <g id="patch_15">
    <path d="M 300.566038 190.43029 
L 367.245283 190.43029 
L 367.245283 190.783234 
L 343.256262 190.783234 
L 343.256262 192.24 
L 324.60158 192.24 
L 324.60158 190.783234 
L 300.566038 190.783234 
L 300.566038 190.43029 
z
" clip-path="url(#pd4beb8ca3b)" style="fill: #ff0000"/>
   </g>
   <g id="patch_16">
    <path d="M 367.245283 190.108675 
Q 361.667679 190.268092 355.636475 190.348727 
Q 349.605271 190.43029 343.036467 190.43029 
Q 323.447653 190.43029 312.006846 189.825988 
Q 300.566038 189.221687 300.566038 188.188257 
Q 300.566038 187.15112 312.006846 186.547745 
Q 323.447653 185.943443 343.036467 185.943443 
Q 349.605271 185.943443 355.636475 186.025006 
Q 361.667679 186.105641 367.245283 186.265058 
L 367.245283 187.159461 
Q 361.617279 186.948141 356.157275 186.849896 
Q 350.697272 186.75165 344.666068 186.75165 
Q 333.84686 186.75165 327.647656 187.134436 
Q 321.465252 187.516296 321.465252 188.188257 
Q 321.465252 188.857437 327.647656 189.240223 
Q 333.84686 189.622083 344.666068 189.622083 
Q 350.697272 189.622083 356.157275 189.523837 
Q 361.617279 189.424665 367.245283 189.213345 
L 367.245283 190.108675 
z
" clip-path="url(#pd4beb8ca3b)" style="fill: #0000ff"/>
   </g>
   <g id="patch_17">
    <path d="M 346.75481 185.011651 
L 321.111043 185.011651 
L 317.062028 185.943443 
L 300.566038 185.943443 
L 324.123947 180.828452 
L 343.687373 180.828452 
L 367.245283 185.943443 
L 350.762926 185.943443 
L 346.75481 185.011651 
z
M 325.200958 184.062319 
L 342.623996 184.062319 
L 333.92611 182.027724 
L 325.200958 184.062319 
z
" clip-path="url(#pd4beb8ca3b)" style="fill: #008000"/>
   </g>
   <g id="patch_18">
    <path d="M 367.245283 169.657204 
Q 360.520572 175.242828 353.287772 178.048393 
Q 346.054972 180.828452 338.34397 180.828452 
Q 320.919496 180.828452 310.742767 164.199106 
Q 300.566038 147.569759 300.566038 119.131537 
Q 300.566038 90.361747 310.922093 73.859927 
Q 321.293091 57.358106 339.330261 57.358106 
Q 346.279129 57.358106 352.645188 59.602558 
Q 359.026192 61.821504 364.674949 66.208387 
L 364.674949 90.82084 
Q 358.846866 85.184205 353.078559 82.404146 
Q 347.310251 79.598581 341.512056 79.598581 
Q 330.782406 79.598581 324.969267 89.851645 
Q 319.156128 100.079203 319.156128 119.131537 
Q 319.156128 138.005335 324.760053 148.309408 
Q 330.363979 158.587977 340.675203 158.587977 
Q 343.484638 158.587977 345.89059 158.001359 
Q 348.296542 157.389235 350.209349 156.113979 
L 350.209349 133.006329 
L 339.225654 133.006329 
L 339.225654 112.423687 
L 367.245283 112.423687 
L 367.245283 169.657204 
z
" clip-path="url(#pd4beb8ca3b)" style="fill: #ffa600"/>
   </g>
   <g id="patch_19">
    <path d="M 416.943489 191.849955 
L 391.299723 191.849955 
L 387.250707 192.24 
L 370.754717 192.24 
L 394.312627 190.09888 
L 413.876053 190.09888 
L 437.433962 192.24 
L 420.951605 192.24 
L 416.943489 191.849955 
z
M 395.389637 191.452567 
L 412.812675 191.452567 
L 404.114789 190.600892 
L 395.389637 191.452567 
z
" clip-path="url(#pd4beb8ca3b)" style="fill: #008000"/>
   </g>
   <g id="patch_20">
    <path d="M 370.754717 183.215406 
L 437.433962 183.215406 
L 437.433962 184.557875 
L 413.444941 184.557875 
L 413.444941 190.09888 
L 394.790259 190.09888 
L 394.790259 184.557875 
L 370.754717 184.557875 
L 370.754717 183.215406 
z
" clip-path="url(#pd4beb8ca3b)" style="fill: #ff0000"/>
   </g>
   <g id="patch_21">
    <path d="M 437.433962 182.713643 
Q 431.856358 182.962355 425.825154 183.088158 
Q 419.79395 183.215406 413.225146 183.215406 
Q 393.636333 183.215406 382.195525 182.272611 
Q 370.754717 181.329816 370.754717 179.717521 
Q 370.754717 178.099442 382.195525 177.158093 
Q 393.636333 176.215298 413.225146 176.215298 
Q 419.79395 176.215298 425.825154 176.342547 
Q 431.856358 176.468349 437.433962 176.717062 
L 437.433962 178.112456 
Q 431.805958 177.782767 426.345955 177.629491 
Q 420.885951 177.476214 414.854747 177.476214 
Q 404.03554 177.476214 397.836335 178.073414 
Q 391.653931 178.669168 391.653931 179.717521 
Q 391.653931 180.761537 397.836335 181.358736 
Q 404.03554 181.95449 414.854747 181.95449 
Q 420.885951 181.95449 426.345955 181.801214 
Q 431.805958 181.646491 437.433962 181.316802 
L 437.433962 182.713643 
z
" clip-path="url(#pd4beb8ca3b)" style="fill: #0000ff"/>
   </g>
   <g id="patch_22">
    <path d="M 437.433962 167.653155 
Q 430.709251 171.934227 423.476451 174.084537 
Q 416.243651 176.215298 408.532649 176.215298 
Q 391.108176 176.215298 380.931446 163.469824 
Q 370.754717 150.72435 370.754717 128.928025 
Q 370.754717 106.877573 381.110772 94.22984 
Q 391.481771 81.582107 409.51894 81.582107 
Q 416.467808 81.582107 422.833868 83.302355 
Q 429.214871 85.003055 434.863628 88.365358 
L 434.863628 107.229441 
Q 429.035545 102.909273 423.267238 100.778511 
Q 417.49893 98.628201 411.700735 98.628201 
Q 400.971085 98.628201 395.157946 106.486607 
Q 389.344807 114.325465 389.344807 128.928025 
Q 389.344807 143.393747 394.948733 151.29125 
Q 400.552659 159.169204 410.863882 159.169204 
Q 413.673317 159.169204 416.079269 158.719594 
Q 418.485221 158.250435 420.398028 157.273022 
L 420.398028 139.562286 
L 409.414333 139.562286 
L 409.414333 123.786829 
L 437.433962 123.786829 
L 437.433962 167.653155 
z
" clip-path="url(#pd4beb8ca3b)" style="fill: #ffa600"/>
   </g>
   <g id="patch_23">
    <path d="M 487.132168 191.959582 
L 461.488402 191.959582 
L 457.439386 192.24 
L 440.943396 192.24 
L 464.501306 190.700669 
L 484.064732 190.700669 
L 507.622642 192.24 
L 491.140285 192.24 
L 487.132168 191.959582 
z
M 465.578317 191.673885 
L 483.001354 191.673885 
L 474.303468 191.061584 
L 465.578317 191.673885 
z
" clip-path="url(#pd4beb8ca3b)" style="fill: #008000"/>
   </g>
   <g id="patch_24">
    <path d="M 440.943396 188.642858 
L 507.622642 188.642858 
L 507.622642 189.044188 
L 483.63362 189.044188 
L 483.63362 190.700669 
L 464.978938 190.700669 
L 464.978938 189.044188 
L 440.943396 189.044188 
L 440.943396 188.642858 
z
" clip-path="url(#pd4beb8ca3b)" style="fill: #ff0000"/>
   </g>
   <g id="patch_25">
    <path d="M 507.622642 188.20435 
Q 502.045038 188.421708 496.013834 188.531651 
Q 489.98263 188.642858 483.413825 188.642858 
Q 463.825012 188.642858 452.384204 187.818919 
Q 440.943396 186.994981 440.943396 185.585945 
Q 440.943396 184.171854 452.384204 183.349179 
Q 463.825012 182.525241 483.413825 182.525241 
Q 489.98263 182.525241 496.013834 182.636447 
Q 502.045038 182.74639 507.622642 182.963748 
L 507.622642 184.183228 
Q 501.994638 183.895102 496.534634 183.761149 
Q 491.07463 183.627195 485.043426 183.627195 
Q 474.224219 183.627195 468.025015 184.149107 
Q 461.84261 184.669756 461.84261 185.585945 
Q 461.84261 186.498343 468.025015 187.020255 
Q 474.224219 187.540903 485.043426 187.540903 
Q 491.07463 187.540903 496.534634 187.40695 
Q 501.994638 187.271733 507.622642 186.983607 
L 507.622642 188.20435 
z
" clip-path="url(#pd4beb8ca3b)" style="fill: #0000ff"/>
   </g>
   <g id="patch_26">
    <path d="M 507.622642 170.387916 
Q 500.897931 176.456579 493.66513 179.504765 
Q 486.43233 182.525241 478.721328 182.525241 
Q 461.296855 182.525241 451.120126 164.457808 
Q 440.943396 146.390375 440.943396 115.492847 
Q 440.943396 84.235079 451.299451 66.3062 
Q 461.67045 48.377321 479.707619 48.377321 
Q 486.656487 48.377321 493.022547 50.81587 
Q 499.40355 53.226709 505.052308 57.992964 
L 505.052308 84.733874 
Q 499.224225 78.60979 493.455917 75.589314 
Q 487.687609 72.541127 481.889414 72.541127 
Q 471.159764 72.541127 465.346625 83.680864 
Q 459.533486 94.792889 459.533486 115.492847 
Q 459.533486 135.99883 465.137412 147.193988 
Q 470.741338 158.361435 481.052561 158.361435 
Q 483.861996 158.361435 486.267948 157.724087 
Q 488.6739 157.059028 490.586707 155.673488 
L 490.586707 130.567515 
L 479.603012 130.567515 
L 479.603012 108.20491 
L 507.622642 108.20491 
L 507.622642 170.387916 
z
" clip-path="url(#pd4beb8ca3b)" style="fill: #ffa600"/>
   </g>
   <g id="patch_27">
    <path d="M 577.811321 192.081816 
Q 572.233717 192.160224 566.202513 192.199884 
Q 560.171309 192.24 553.602504 192.24 
Q 534.013691 192.24 522.572883 191.942778 
Q 511.132075 191.645556 511.132075 191.13727 
Q 511.132075 190.627161 522.572883 190.330394 
Q 534.013691 190.033172 553.602504 190.033172 
Q 560.171309 190.033172 566.202513 190.073288 
Q 572.233717 190.112948 577.811321 190.191357 
L 577.811321 190.631263 
Q 572.183317 190.527327 566.723313 190.479005 
Q 561.26331 190.430684 555.232105 190.430684 
Q 544.412898 190.430684 538.213694 190.618955 
Q 532.03129 190.80677 532.03129 191.13727 
Q 532.03129 191.466402 538.213694 191.654673 
Q 544.412898 191.842488 555.232105 191.842488 
Q 561.26331 191.842488 566.723313 191.794167 
Q 572.183317 191.74539 577.811321 191.641453 
L 577.811321 192.081816 
z
" clip-path="url(#pd4beb8ca3b)" style="fill: #0000ff"/>
   </g>
   <g id="patch_28">
    <path d="M 557.320847 189.510545 
L 531.677081 189.510545 
L 527.628065 190.033172 
L 511.132075 190.033172 
L 534.689985 187.164252 
L 554.253411 187.164252 
L 577.811321 190.033172 
L 561.328964 190.033172 
L 557.320847 189.510545 
z
M 535.766996 188.978079 
L 553.190033 188.978079 
L 544.492148 187.836905 
L 535.766996 188.978079 
z
" clip-path="url(#pd4beb8ca3b)" style="fill: #008000"/>
   </g>
   <g id="patch_29">
    <path d="M 511.132075 183.772263 
L 577.811321 183.772263 
L 577.811321 184.433796 
L 553.822299 184.433796 
L 553.822299 187.164252 
L 535.167617 187.164252 
L 535.167617 184.433796 
L 511.132075 184.433796 
L 511.132075 183.772263 
z
" clip-path="url(#pd4beb8ca3b)" style="fill: #ff0000"/>
   </g>
   <g id="patch_30">
    <path d="M 577.811321 171.199666 
Q 571.08661 177.485964 563.85381 180.643466 
Q 556.621009 183.772263 548.910007 183.772263 
Q 531.485534 183.772263 521.308805 165.056889 
Q 511.132075 146.341516 511.132075 114.33593 
Q 511.132075 81.957186 521.48813 63.385335 
Q 531.859129 44.813484 549.896298 44.813484 
Q 556.845166 44.813484 563.211226 47.339485 
Q 569.59223 49.836782 575.240987 54.773966 
L 575.240987 82.473868 
Q 569.412904 76.13016 563.644596 73.001363 
Q 557.876289 69.843861 552.078093 69.843861 
Q 541.348443 69.843861 535.535304 81.383094 
Q 529.722165 92.893623 529.722165 114.33593 
Q 529.722165 135.577305 535.326091 147.173948 
Q 540.930017 158.741886 551.24124 158.741886 
Q 554.050675 158.741886 556.456627 158.081681 
Q 558.86258 157.392772 560.775386 155.957544 
L 560.775386 129.951211 
L 549.791692 129.951211 
L 549.791692 106.786631 
L 577.811321 106.786631 
L 577.811321 171.199666 
z
" clip-path="url(#pd4beb8ca3b)" style="fill: #ffa600"/>
   </g>
   <g id="patch_31">
    <path d="M 648 192.183268 
Q 641.275289 192.211634 634.042489 192.225882 
Q 626.809689 192.24 619.098687 192.24 
Q 601.674213 192.24 591.497484 192.15555 
Q 581.320755 192.071101 581.320755 191.926681 
Q 581.320755 191.780578 591.67681 191.696776 
Q 602.047808 191.612974 620.084978 191.612974 
Q 627.033846 191.612974 633.399905 191.624372 
Q 639.780909 191.63564 645.429666 191.657918 
L 645.429666 191.782909 
Q 639.601583 191.754284 633.833276 191.740166 
Q 628.064968 191.725919 622.266773 191.725919 
Q 611.537123 191.725919 605.723984 191.777987 
Q 599.910845 191.829927 599.910845 191.926681 
Q 599.910845 192.022529 605.51477 192.074857 
Q 611.118696 192.127055 621.42992 192.127055 
Q 624.239355 192.127055 626.645307 192.124076 
Q 629.051259 192.120967 630.964066 192.114491 
L 630.964066 191.997142 
L 619.980371 191.997142 
L 619.980371 191.892616 
L 648 191.892616 
L 648 192.183268 
z
" clip-path="url(#pd4beb8ca3b)" style="fill: #ffa600"/>
   </g>
   <g id="patch_32">
    <path d="M 627.509527 191.30893 
L 601.86576 191.30893 
L 597.816745 191.612974 
L 581.320755 191.612974 
L 604.878664 189.943952 
L 624.44209 189.943952 
L 648 191.612974 
L 631.517643 191.612974 
L 627.509527 191.30893 
z
M 605.955675 190.999163 
L 623.378713 190.999163 
L 614.680827 190.335275 
L 605.955675 190.999163 
z
" clip-path="url(#pd4beb8ca3b)" style="fill: #008000"/>
   </g>
   <g id="patch_33">
    <path d="M 581.320755 188.145867 
L 648 188.145867 
L 648 188.496544 
L 624.010978 188.496544 
L 624.010978 189.943952 
L 605.356297 189.943952 
L 605.356297 188.496544 
L 581.320755 188.496544 
L 581.320755 188.145867 
z
" clip-path="url(#pd4beb8ca3b)" style="fill: #ff0000"/>
   </g>
   <g id="patch_34">
    <path d="M 648 176.517613 
Q 642.422396 182.281474 636.391192 185.196915 
Q 630.359988 188.145867 623.791184 188.145867 
Q 604.20237 188.145867 592.761562 166.296814 
Q 581.320755 144.447761 581.320755 107.0832 
Q 581.320755 69.584595 592.761562 47.769053 
Q 604.20237 25.92 623.791184 25.92 
Q 630.359988 25.92 636.391192 28.868952 
Q 642.422396 31.784393 648 37.548254 
L 648 69.886192 
Q 642.371996 62.245726 636.911992 58.693579 
Q 631.451989 55.141433 625.420785 55.141433 
Q 614.601577 55.141433 608.402373 68.9814 
Q 602.219969 82.787857 602.219969 107.0832 
Q 602.219969 131.27801 608.402373 145.117977 
Q 614.601577 158.924434 625.420785 158.924434 
Q 631.451989 158.924434 636.911992 155.372287 
Q 642.371996 151.78663 648 144.146164 
L 648 176.517613 
z
" clip-path="url(#pd4beb8ca3b)" style="fill: #0000ff"/>
   </g>
   <g id="matplotlib.axis_1">
    <g id="xtick_1">
     <g id="line2d_2">
      <defs>
       <path id="m0df9007129" d="M 0 0 
L 0 3.5 
" style="stroke: #000000; stroke-width: 0.8"/>
      </defs>
      <g>
       <use xlink:href="#m0df9007129" x="123.339623" y="192.24" style="stroke: #000000; stroke-width: 0.8"/>
      </g>
     </g>
     <g id="text_1">
      <!-- 0 -->
      <g transform="translate(120.158373 206.838437) scale(0.1 -0.1)">
       <defs>
        <path id="DejaVuSans-30" d="M 2034 4250 
Q 1547 4250 1301 3770 
Q 1056 3291 1056 2328 
Q 1056 1369 1301 889 
Q 1547 409 2034 409 
Q 2525 409 2770 889 
Q 3016 1369 3016 2328 
Q 3016 3291 2770 3770 
Q 2525 4250 2034 4250 
z
M 2034 4750 
Q 2819 4750 3233 4129 
Q 3647 3509 3647 2328 
Q 3647 1150 3233 529 
Q 2819 -91 2034 -91 
Q 1250 -91 836 529 
Q 422 1150 422 2328 
Q 422 3509 836 4129 
Q 1250 4750 2034 4750 
z
" transform="scale(0.015625)"/>
       </defs>
       <use xlink:href="#DejaVuSans-30"/>
      </g>
     </g>
    </g>
    <g id="xtick_2">
     <g id="line2d_3">
      <g>
       <use xlink:href="#m0df9007129" x="193.528302" y="192.24" style="stroke: #000000; stroke-width: 0.8"/>
      </g>
     </g>
     <g id="text_2">
      <!-- 1 -->
      <g transform="translate(190.347052 206.838437) scale(0.1 -0.1)">
       <defs>
        <path id="DejaVuSans-31" d="M 794 531 
L 1825 531 
L 1825 4091 
L 703 3866 
L 703 4441 
L 1819 4666 
L 2450 4666 
L 2450 531 
L 3481 531 
L 3481 0 
L 794 0 
L 794 531 
z
" transform="scale(0.015625)"/>
       </defs>
       <use xlink:href="#DejaVuSans-31"/>
      </g>
     </g>
    </g>
    <g id="xtick_3">
     <g id="line2d_4">
      <g>
       <use xlink:href="#m0df9007129" x="263.716981" y="192.24" style="stroke: #000000; stroke-width: 0.8"/>
      </g>
     </g>
     <g id="text_3">
      <!-- 2 -->
      <g transform="translate(260.535731 206.838437) scale(0.1 -0.1)">
       <defs>
        <path id="DejaVuSans-32" d="M 1228 531 
L 3431 531 
L 3431 0 
L 469 0 
L 469 531 
Q 828 903 1448 1529 
Q 2069 2156 2228 2338 
Q 2531 2678 2651 2914 
Q 2772 3150 2772 3378 
Q 2772 3750 2511 3984 
Q 2250 4219 1831 4219 
Q 1534 4219 1204 4116 
Q 875 4013 500 3803 
L 500 4441 
Q 881 4594 1212 4672 
Q 1544 4750 1819 4750 
Q 2544 4750 2975 4387 
Q 3406 4025 3406 3419 
Q 3406 3131 3298 2873 
Q 3191 2616 2906 2266 
Q 2828 2175 2409 1742 
Q 1991 1309 1228 531 
z
" transform="scale(0.015625)"/>
       </defs>
       <use xlink:href="#DejaVuSans-32"/>
      </g>
     </g>
    </g>
    <g id="xtick_4">
     <g id="line2d_5">
      <g>
       <use xlink:href="#m0df9007129" x="333.90566" y="192.24" style="stroke: #000000; stroke-width: 0.8"/>
      </g>
     </g>
     <g id="text_4">
      <!-- 3 -->
      <g transform="translate(330.72441 206.838437) scale(0.1 -0.1)">
       <defs>
        <path id="DejaVuSans-33" d="M 2597 2516 
Q 3050 2419 3304 2112 
Q 3559 1806 3559 1356 
Q 3559 666 3084 287 
Q 2609 -91 1734 -91 
Q 1441 -91 1130 -33 
Q 819 25 488 141 
L 488 750 
Q 750 597 1062 519 
Q 1375 441 1716 441 
Q 2309 441 2620 675 
Q 2931 909 2931 1356 
Q 2931 1769 2642 2001 
Q 2353 2234 1838 2234 
L 1294 2234 
L 1294 2753 
L 1863 2753 
Q 2328 2753 2575 2939 
Q 2822 3125 2822 3475 
Q 2822 3834 2567 4026 
Q 2313 4219 1838 4219 
Q 1578 4219 1281 4162 
Q 984 4106 628 3988 
L 628 4550 
Q 988 4650 1302 4700 
Q 1616 4750 1894 4750 
Q 2613 4750 3031 4423 
Q 3450 4097 3450 3541 
Q 3450 3153 3228 2886 
Q 3006 2619 2597 2516 
z
" transform="scale(0.015625)"/>
       </defs>
       <use xlink:href="#DejaVuSans-33"/>
      </g>
     </g>
    </g>
    <g id="xtick_5">
     <g id="line2d_6">
      <g>
       <use xlink:href="#m0df9007129" x="404.09434" y="192.24" style="stroke: #000000; stroke-width: 0.8"/>
      </g>
     </g>
     <g id="text_5">
      <!-- 4 -->
      <g transform="translate(400.91309 206.838437) scale(0.1 -0.1)">
       <defs>
        <path id="DejaVuSans-34" d="M 2419 4116 
L 825 1625 
L 2419 1625 
L 2419 4116 
z
M 2253 4666 
L 3047 4666 
L 3047 1625 
L 3713 1625 
L 3713 1100 
L 3047 1100 
L 3047 0 
L 2419 0 
L 2419 1100 
L 313 1100 
L 313 1709 
L 2253 4666 
z
" transform="scale(0.015625)"/>
       </defs>
       <use xlink:href="#DejaVuSans-34"/>
      </g>
     </g>
    </g>
    <g id="xtick_6">
     <g id="line2d_7">
      <g>
       <use xlink:href="#m0df9007129" x="474.283019" y="192.24" style="stroke: #000000; stroke-width: 0.8"/>
      </g>
     </g>
     <g id="text_6">
      <!-- 5 -->
      <g transform="translate(471.101769 206.838437) scale(0.1 -0.1)">
       <defs>
        <path id="DejaVuSans-35" d="M 691 4666 
L 3169 4666 
L 3169 4134 
L 1269 4134 
L 1269 2991 
Q 1406 3038 1543 3061 
Q 1681 3084 1819 3084 
Q 2600 3084 3056 2656 
Q 3513 2228 3513 1497 
Q 3513 744 3044 326 
Q 2575 -91 1722 -91 
Q 1428 -91 1123 -41 
Q 819 9 494 109 
L 494 744 
Q 775 591 1075 516 
Q 1375 441 1709 441 
Q 2250 441 2565 725 
Q 2881 1009 2881 1497 
Q 2881 1984 2565 2268 
Q 2250 2553 1709 2553 
Q 1456 2553 1204 2497 
Q 953 2441 691 2322 
L 691 4666 
z
" transform="scale(0.015625)"/>
       </defs>
       <use xlink:href="#DejaVuSans-35"/>
      </g>
     </g>
    </g>
    <g id="xtick_7">
     <g id="line2d_8">
      <g>
       <use xlink:href="#m0df9007129" x="544.471698" y="192.24" style="stroke: #000000; stroke-width: 0.8"/>
      </g>
     </g>
     <g id="text_7">
      <!-- 6 -->
      <g transform="translate(541.290448 206.838437) scale(0.1 -0.1)">
       <defs>
        <path id="DejaVuSans-36" d="M 2113 2584 
Q 1688 2584 1439 2293 
Q 1191 2003 1191 1497 
Q 1191 994 1439 701 
Q 1688 409 2113 409 
Q 2538 409 2786 701 
Q 3034 994 3034 1497 
Q 3034 2003 2786 2293 
Q 2538 2584 2113 2584 
z
M 3366 4563 
L 3366 3988 
Q 3128 4100 2886 4159 
Q 2644 4219 2406 4219 
Q 1781 4219 1451 3797 
Q 1122 3375 1075 2522 
Q 1259 2794 1537 2939 
Q 1816 3084 2150 3084 
Q 2853 3084 3261 2657 
Q 3669 2231 3669 1497 
Q 3669 778 3244 343 
Q 2819 -91 2113 -91 
Q 1303 -91 875 529 
Q 447 1150 447 2328 
Q 447 3434 972 4092 
Q 1497 4750 2381 4750 
Q 2619 4750 2861 4703 
Q 3103 4656 3366 4563 
z
" transform="scale(0.015625)"/>
       </defs>
       <use xlink:href="#DejaVuSans-36"/>
      </g>
     </g>
    </g>
    <g id="xtick_8">
     <g id="line2d_9">
      <g>
       <use xlink:href="#m0df9007129" x="614.660377" y="192.24" style="stroke: #000000; stroke-width: 0.8"/>
      </g>
     </g>
     <g id="text_8">
      <!-- 7 -->
      <g transform="translate(611.479127 206.838437) scale(0.1 -0.1)">
       <defs>
        <path id="DejaVuSans-37" d="M 525 4666 
L 3525 4666 
L 3525 4397 
L 1831 0 
L 1172 0 
L 2766 4134 
L 525 4134 
L 525 4666 
z
" transform="scale(0.015625)"/>
       </defs>
       <use xlink:href="#DejaVuSans-37"/>
      </g>
     </g>
    </g>
   </g>
   <g id="matplotlib.axis_2">
    <g id="ytick_1">
     <g id="line2d_10">
      <defs>
       <path id="m41c2549e9c" d="M 0 0 
L -3.5 0 
" style="stroke: #000000; stroke-width: 0.8"/>
      </defs>
      <g>
       <use xlink:href="#m41c2549e9c" x="90" y="192.24" style="stroke: #000000; stroke-width: 0.8"/>
      </g>
     </g>
     <g id="text_9">
      <!-- 0.00 -->
      <g transform="translate(60.734375 196.039219) scale(0.1 -0.1)">
       <defs>
        <path id="DejaVuSans-2e" d="M 684 794 
L 1344 794 
L 1344 0 
L 684 0 
L 684 794 
z
" transform="scale(0.015625)"/>
       </defs>
       <use xlink:href="#DejaVuSans-30"/>
       <use xlink:href="#DejaVuSans-2e" x="63.623047"/>
       <use xlink:href="#DejaVuSans-30" x="95.410156"/>
       <use xlink:href="#DejaVuSans-30" x="159.033203"/>
      </g>
     </g>
    </g>
    <g id="ytick_2">
     <g id="line2d_11">
      <g>
       <use xlink:href="#m41c2549e9c" x="90" y="169.102217" style="stroke: #000000; stroke-width: 0.8"/>
      </g>
     </g>
     <g id="text_10">
      <!-- 0.25 -->
      <g transform="translate(60.734375 172.901435) scale(0.1 -0.1)">
       <use xlink:href="#DejaVuSans-30"/>
       <use xlink:href="#DejaVuSans-2e" x="63.623047"/>
       <use xlink:href="#DejaVuSans-32" x="95.410156"/>
       <use xlink:href="#DejaVuSans-35" x="159.033203"/>
      </g>
     </g>
    </g>
    <g id="ytick_3">
     <g id="line2d_12">
      <g>
       <use xlink:href="#m41c2549e9c" x="90" y="145.964433" style="stroke: #000000; stroke-width: 0.8"/>
      </g>
     </g>
     <g id="text_11">
      <!-- 0.50 -->
      <g transform="translate(60.734375 149.763652) scale(0.1 -0.1)">
       <use xlink:href="#DejaVuSans-30"/>
       <use xlink:href="#DejaVuSans-2e" x="63.623047"/>
       <use xlink:href="#DejaVuSans-35" x="95.410156"/>
       <use xlink:href="#DejaVuSans-30" x="159.033203"/>
      </g>
     </g>
    </g>
    <g id="ytick_4">
     <g id="line2d_13">
      <g>
       <use xlink:href="#m41c2549e9c" x="90" y="122.82665" style="stroke: #000000; stroke-width: 0.8"/>
      </g>
     </g>
     <g id="text_12">
      <!-- 0.75 -->
      <g transform="translate(60.734375 126.625868) scale(0.1 -0.1)">
       <use xlink:href="#DejaVuSans-30"/>
       <use xlink:href="#DejaVuSans-2e" x="63.623047"/>
       <use xlink:href="#DejaVuSans-37" x="95.410156"/>
       <use xlink:href="#DejaVuSans-35" x="159.033203"/>
      </g>
     </g>
    </g>
    <g id="ytick_5">
     <g id="line2d_14">
      <g>
       <use xlink:href="#m41c2549e9c" x="90" y="99.688866" style="stroke: #000000; stroke-width: 0.8"/>
      </g>
     </g>
     <g id="text_13">
      <!-- 1.00 -->
      <g transform="translate(60.734375 103.488085) scale(0.1 -0.1)">
       <use xlink:href="#DejaVuSans-31"/>
       <use xlink:href="#DejaVuSans-2e" x="63.623047"/>
       <use xlink:href="#DejaVuSans-30" x="95.410156"/>
       <use xlink:href="#DejaVuSans-30" x="159.033203"/>
      </g>
     </g>
    </g>
    <g id="ytick_6">
     <g id="line2d_15">
      <g>
       <use xlink:href="#m41c2549e9c" x="90" y="76.551083" style="stroke: #000000; stroke-width: 0.8"/>
      </g>
     </g>
     <g id="text_14">
      <!-- 1.25 -->
      <g transform="translate(60.734375 80.350301) scale(0.1 -0.1)">
       <use xlink:href="#DejaVuSans-31"/>
       <use xlink:href="#DejaVuSans-2e" x="63.623047"/>
       <use xlink:href="#DejaVuSans-32" x="95.410156"/>
       <use xlink:href="#DejaVuSans-35" x="159.033203"/>
      </g>
     </g>
    </g>
    <g id="ytick_7">
     <g id="line2d_16">
      <g>
       <use xlink:href="#m41c2549e9c" x="90" y="53.413299" style="stroke: #000000; stroke-width: 0.8"/>
      </g>
     </g>
     <g id="text_15">
      <!-- 1.50 -->
      <g transform="translate(60.734375 57.212518) scale(0.1 -0.1)">
       <use xlink:href="#DejaVuSans-31"/>
       <use xlink:href="#DejaVuSans-2e" x="63.623047"/>
       <use xlink:href="#DejaVuSans-35" x="95.410156"/>
       <use xlink:href="#DejaVuSans-30" x="159.033203"/>
      </g>
     </g>
    </g>
    <g id="ytick_8">
     <g id="line2d_17">
      <g>
       <use xlink:href="#m41c2549e9c" x="90" y="30.275516" style="stroke: #000000; stroke-width: 0.8"/>
      </g>
     </g>
     <g id="text_16">
      <!-- 1.75 -->
      <g transform="translate(60.734375 34.074734) scale(0.1 -0.1)">
       <use xlink:href="#DejaVuSans-31"/>
       <use xlink:href="#DejaVuSans-2e" x="63.623047"/>
       <use xlink:href="#DejaVuSans-37" x="95.410156"/>
       <use xlink:href="#DejaVuSans-35" x="159.033203"/>
      </g>
     </g>
    </g>
   </g>
  </g>
 </g>
 <defs>
  <clipPath id="pd4beb8ca3b">
   <rect x="90" y="25.92" width="558" height="166.32"/>
  </clipPath>
 </defs>
</svg>
