<?xml version="1.0" encoding="utf-8" standalone="no"?>
<!DOCTYPE svg PUBLIC "-//W3C//DTD SVG 1.1//EN"
  "http://www.w3.org/Graphics/SVG/1.1/DTD/svg11.dtd">
<svg xmlns:xlink="http://www.w3.org/1999/xlink" width="720pt" height="216pt" viewBox="0 0 720 216" xmlns="http://www.w3.org/2000/svg" version="1.1">
 <metadata>
  <rdf:RDF xmlns:dc="http://purl.org/dc/elements/1.1/" xmlns:cc="http://creativecommons.org/ns#" xmlns:rdf="http://www.w3.org/1999/02/22-rdf-syntax-ns#">
   <cc:Work>
    <dc:type rdf:resource="http://purl.org/dc/dcmitype/StillImage"/>
    <dc:date>2024-11-23T05:01:20.394827</dc:date>
    <dc:format>image/svg+xml</dc:format>
    <dc:creator>
     <cc:Agent>
      <dc:title>Matplotlib v3.7.2, https://matplotlib.org/</dc:title>
     </cc:Agent>
    </dc:creator>
   </cc:Work>
  </rdf:RDF>
 </metadata>
 <defs>
  <style type="text/css">*{stroke-linejoin: round; stroke-linecap: butt}</style>
 </defs>
 <g id="figure_1">
  <g id="patch_1">
   <path d="M 0 216 
L 720 216 
L 720 0 
L 0 0 
z
" style="fill: #ffffff"/>
  </g>
  <g id="axes_1">
   <g id="patch_2">
    <path d="M 90 192.24 
L 648 192.24 
L 648 25.92 
L 90 25.92 
z
" style="fill: #ffffff"/>
   </g>
   <g id="line2d_1">
    <path d="M 90 192.24 
L 648 192.24 
" clip-path="url(#p1cedd9f216)" style="fill: none; stroke: #000000; stroke-width: 0.5; stroke-linecap: square"/>
   </g>
   <g id="patch_3">
    <path d="M 90 189.572632 
L 128 189.572632 
L 128 190.092843 
L 114.328837 190.092843 
L 114.328837 192.24 
L 103.697674 192.24 
L 103.697674 190.092843 
L 90 190.092843 
L 90 189.572632 
z
" clip-path="url(#p1cedd9f216)" style="fill: #ff0000"/>
   </g>
   <g id="patch_4">
    <path d="M 128 189.227865 
Q 124.167638 189.400249 120.045719 189.486834 
Q 115.923801 189.572632 111.529359 189.572632 
Q 101.599283 189.572632 95.799641 189.059417 
Q 90 188.546202 90 187.668541 
Q 90 186.780648 95.901838 186.271368 
Q 101.812192 185.762089 112.091439 185.762089 
Q 116.051546 185.762089 119.679516 185.831357 
Q 123.316002 185.899838 126.535186 186.035226 
L 126.535186 186.794816 
Q 123.213805 186.620858 119.92649 186.53506 
Q 116.639175 186.448475 113.334827 186.448475 
Q 107.220081 186.448475 103.907216 186.764905 
Q 100.594352 187.080548 100.594352 187.668541 
Q 100.594352 188.251025 103.787987 188.569029 
Q 106.981623 188.886246 112.857911 188.886246 
Q 114.458987 188.886246 115.830121 188.868142 
Q 117.201255 188.849251 118.291349 188.809894 
L 118.291349 188.096745 
L 112.031824 188.096745 
L 112.031824 187.461524 
L 128 187.461524 
L 128 189.227865 
z
" clip-path="url(#p1cedd9f216)" style="fill: #ffa600"/>
   </g>
   <g id="patch_5">
    <path d="M 128 185.243125 
Q 124.821366 185.500364 121.384228 185.630479 
Q 117.94709 185.762089 114.203578 185.762089 
Q 103.04006 185.762089 96.52003 184.786975 
Q 90 183.811862 90 182.144297 
Q 90 180.470751 96.52003 179.497133 
Q 103.04006 178.522019 114.203578 178.522019 
Q 117.94709 178.522019 121.384228 178.653629 
Q 124.821366 178.783744 128 179.040983 
L 128 180.484211 
Q 124.792643 180.14322 121.681028 179.98469 
Q 118.569413 179.826159 115.132275 179.826159 
Q 108.96649 179.826159 105.43361 180.443831 
Q 101.910305 181.060007 101.910305 182.144297 
Q 101.910305 183.224101 105.43361 183.841773 
Q 108.96649 184.457949 115.132275 184.457949 
Q 118.569413 184.457949 121.681028 184.299418 
Q 124.792643 184.139392 128 183.798401 
L 128 185.243125 
z
" clip-path="url(#p1cedd9f216)" style="fill: #0000ff"/>
   </g>
   <g id="patch_6">
    <path d="M 116.322633 158.113626 
L 101.708444 158.113626 
L 99.400941 178.522019 
L 90 178.522019 
L 103.425475 66.491946 
L 114.574525 66.491946 
L 128 178.522019 
L 118.606829 178.522019 
L 116.322633 158.113626 
z
M 104.039256 137.321075 
L 113.968514 137.321075 
L 109.011654 92.758748 
L 104.039256 137.321075 
z
" clip-path="url(#p1cedd9f216)" style="fill: #008000"/>
   </g>
   <g id="patch_7">
    <path d="M 168 191.907679 
Q 164.167638 192.073839 160.045719 192.157299 
Q 155.923801 192.24 151.529359 192.24 
Q 141.599283 192.24 135.799641 191.745312 
Q 130 191.250623 130 190.404646 
Q 130 189.548805 135.901838 189.05791 
Q 141.812192 188.567016 152.091439 188.567016 
Q 156.051546 188.567016 159.679516 188.633783 
Q 163.316002 188.699792 166.535186 188.830293 
L 166.535186 189.562462 
Q 163.213805 189.394784 159.92649 189.312083 
Q 156.639175 189.228623 153.334827 189.228623 
Q 147.220081 189.228623 143.907216 189.53363 
Q 140.594352 189.837879 140.594352 190.404646 
Q 140.594352 190.966102 143.787987 191.272626 
Q 146.981623 191.578392 152.857911 191.578392 
Q 154.458987 191.578392 155.830121 191.560942 
Q 157.201255 191.542732 158.291349 191.504796 
L 158.291349 190.817392 
L 152.031824 190.817392 
L 152.031824 190.205101 
L 168 190.205101 
L 168 191.907679 
z
" clip-path="url(#p1cedd9f216)" style="fill: #ffa600"/>
   </g>
   <g id="patch_8">
    <path d="M 130 184.689999 
L 168 184.689999 
L 168 185.446125 
L 154.328837 185.446125 
L 154.328837 188.567016 
L 143.697674 188.567016 
L 143.697674 185.446125 
L 130 185.446125 
L 130 184.689999 
z
" clip-path="url(#p1cedd9f216)" style="fill: #ff0000"/>
   </g>
   <g id="patch_9">
    <path d="M 156.322633 183.946559 
L 141.708444 183.946559 
L 139.400941 184.689999 
L 130 184.689999 
L 143.425475 180.60895 
L 154.574525 180.60895 
L 168 184.689999 
L 158.606829 184.689999 
L 156.322633 183.946559 
z
M 144.039256 183.189124 
L 153.968514 183.189124 
L 149.011654 181.565801 
L 144.039256 183.189124 
z
" clip-path="url(#p1cedd9f216)" style="fill: #008000"/>
   </g>
   <g id="patch_10">
    <path d="M 168 171.789251 
Q 164.821366 176.160975 161.384228 178.372254 
Q 157.94709 180.60895 154.203578 180.60895 
Q 143.04006 180.60895 136.52003 164.037065 
Q 130 147.465181 130 119.125225 
Q 130 90.683601 136.52003 74.137134 
Q 143.04006 57.56525 154.203578 57.56525 
Q 157.94709 57.56525 161.384228 59.801946 
Q 164.821366 62.013225 168 66.384949 
L 168 90.912354 
Q 164.792643 85.117278 161.681028 82.423076 
Q 158.569413 79.728874 155.132275 79.728874 
Q 148.96649 79.728874 145.43361 90.226095 
Q 141.910305 100.6979 141.910305 119.125225 
Q 141.910305 137.4763 145.43361 147.973521 
Q 148.96649 158.445325 155.132275 158.445325 
Q 158.569413 158.445325 161.681028 155.751123 
Q 164.792643 153.031504 168 147.236428 
L 168 171.789251 
z
" clip-path="url(#p1cedd9f216)" style="fill: #0000ff"/>
   </g>
   <g id="patch_11">
    <path d="M 196.322633 192.041259 
L 181.708444 192.041259 
L 179.400941 192.24 
L 170 192.24 
L 183.425475 191.14903 
L 194.574525 191.14903 
L 208 192.24 
L 198.606829 192.24 
L 196.322633 192.041259 
z
M 184.039256 191.838777 
L 193.968514 191.838777 
L 189.011654 191.404821 
L 184.039256 191.838777 
z
" clip-path="url(#p1cedd9f216)" style="fill: #008000"/>
   </g>
   <g id="patch_12">
    <path d="M 208 191.030583 
Q 204.167638 191.089806 200.045719 191.119553 
Q 195.923801 191.14903 191.529359 191.14903 
Q 181.599283 191.14903 175.799641 190.972711 
Q 170 190.796393 170 190.494867 
Q 170 190.189826 175.901838 190.01486 
Q 181.812192 189.839894 192.091439 189.839894 
Q 196.051546 189.839894 199.679516 189.863691 
Q 203.316002 189.887218 206.535186 189.933732 
L 206.535186 190.194694 
Q 203.213805 190.134929 199.92649 190.105453 
Q 196.639175 190.075706 193.334827 190.075706 
Q 187.220081 190.075706 183.907216 190.184417 
Q 180.594352 190.292859 180.594352 190.494867 
Q 180.594352 190.694983 183.787987 190.804235 
Q 186.981623 190.913217 192.857911 190.913217 
Q 194.458987 190.913217 195.830121 190.906998 
Q 197.201255 190.900507 198.291349 190.886986 
L 198.291349 190.641979 
L 192.031824 190.641979 
L 192.031824 190.423745 
L 208 190.423745 
L 208 191.030583 
z
" clip-path="url(#p1cedd9f216)" style="fill: #ffa600"/>
   </g>
   <g id="patch_13">
    <path d="M 208 189.229952 
Q 204.821366 189.532286 201.384228 189.685211 
Q 197.94709 189.839894 194.203578 189.839894 
Q 183.04006 189.839894 176.52003 188.693835 
Q 170 187.547776 170 185.587875 
Q 170 183.620943 176.52003 182.476642 
Q 183.04006 181.330584 194.203578 181.330584 
Q 197.94709 181.330584 201.384228 181.485266 
Q 204.821366 181.638191 208 181.940526 
L 208 183.636763 
Q 204.792643 183.235994 201.681028 183.049672 
Q 198.569413 182.863349 195.132275 182.863349 
Q 188.96649 182.863349 185.43361 183.589304 
Q 181.910305 184.3135 181.910305 185.587875 
Q 181.910305 186.856977 185.43361 187.582932 
Q 188.96649 188.307128 195.132275 188.307128 
Q 198.569413 188.307128 201.681028 188.120806 
Q 204.792643 187.932726 208 187.531957 
L 208 189.229952 
z
" clip-path="url(#p1cedd9f216)" style="fill: #0000ff"/>
   </g>
   <g id="patch_14">
    <path d="M 170 48.236509 
L 208 48.236509 
L 208 74.193562 
L 194.328837 74.193562 
L 194.328837 181.330584 
L 183.697674 181.330584 
L 183.697674 74.193562 
L 170 74.193562 
L 170 48.236509 
z
" clip-path="url(#p1cedd9f216)" style="fill: #ff0000"/>
   </g>
   <g id="patch_15">
    <path d="M 210 190.844307 
L 248 190.844307 
L 248 191.116506 
L 234.328837 191.116506 
L 234.328837 192.24 
L 223.697674 192.24 
L 223.697674 191.116506 
L 210 191.116506 
L 210 190.844307 
z
" clip-path="url(#p1cedd9f216)" style="fill: #ff0000"/>
   </g>
   <g id="patch_16">
    <path d="M 248 190.633839 
Q 244.167638 190.739073 240.045719 190.79193 
Q 235.923801 190.844307 231.529359 190.844307 
Q 221.599283 190.844307 215.799641 190.531007 
Q 210 190.217707 210 189.681925 
Q 210 189.139897 215.901838 188.828999 
Q 221.812192 188.518101 232.091439 188.518101 
Q 236.051546 188.518101 239.679516 188.560387 
Q 243.316002 188.602193 246.535186 188.684843 
L 246.535186 189.148546 
Q 243.213805 189.042351 239.92649 188.989974 
Q 236.639175 188.937116 233.334827 188.937116 
Q 227.220081 188.937116 223.907216 189.130286 
Q 220.594352 189.322975 220.594352 189.681925 
Q 220.594352 190.037511 223.787987 190.231642 
Q 226.981623 190.425292 232.857911 190.425292 
Q 234.458987 190.425292 235.830121 190.41424 
Q 237.201255 190.402708 238.291349 190.378682 
L 238.291349 189.943329 
L 232.031824 189.943329 
L 232.031824 189.555548 
L 248 189.555548 
L 248 190.633839 
z
" clip-path="url(#p1cedd9f216)" style="fill: #ffa600"/>
   </g>
   <g id="patch_17">
    <path d="M 248 188.234646 
Q 244.821366 188.375148 241.384228 188.446217 
Q 237.94709 188.518101 234.203578 188.518101 
Q 223.04006 188.518101 216.52003 187.985499 
Q 210 187.452897 210 186.542083 
Q 210 185.628 216.52003 185.096215 
Q 223.04006 184.563613 234.203578 184.563613 
Q 237.94709 184.563613 241.384228 184.635498 
Q 244.821366 184.706566 248 184.847068 
L 248 185.635352 
Q 244.792643 185.449105 241.681028 185.362516 
Q 238.569413 185.275927 235.132275 185.275927 
Q 228.96649 185.275927 225.43361 185.613297 
Q 221.910305 185.949849 221.910305 186.542083 
Q 221.910305 187.131866 225.43361 187.469235 
Q 228.96649 187.805787 235.132275 187.805787 
Q 238.569413 187.805787 241.681028 187.719198 
Q 244.792643 187.631793 248 187.445546 
L 248 188.234646 
z
" clip-path="url(#p1cedd9f216)" style="fill: #0000ff"/>
   </g>
   <g id="patch_18">
    <path d="M 236.322633 157.994567 
L 221.708444 157.994567 
L 219.400941 184.563613 
L 210 184.563613 
L 223.425475 38.715178 
L 234.574525 38.715178 
L 248 184.563613 
L 238.606829 184.563613 
L 236.322633 157.994567 
z
M 224.039256 130.925397 
L 233.968514 130.925397 
L 229.011654 72.911104 
L 224.039256 130.925397 
z
" clip-path="url(#p1cedd9f216)" style="fill: #008000"/>
   </g>
   <g id="patch_19">
    <path d="M 276.322633 192.059333 
L 261.708444 192.059333 
L 259.400941 192.24 
L 250 192.24 
L 263.425475 191.248242 
L 274.574525 191.248242 
L 288 192.24 
L 278.606829 192.24 
L 276.322633 192.059333 
z
M 264.039256 191.875264 
L 273.968514 191.875264 
L 269.011654 191.480772 
L 264.039256 191.875264 
z
" clip-path="url(#p1cedd9f216)" style="fill: #008000"/>
   </g>
   <g id="patch_20">
    <path d="M 250 189.264891 
L 288 189.264891 
L 288 189.6517 
L 274.328837 189.6517 
L 274.328837 191.248242 
L 263.697674 191.248242 
L 263.697674 189.6517 
L 250 189.6517 
L 250 189.264891 
z
" clip-path="url(#p1cedd9f216)" style="fill: #ff0000"/>
   </g>
   <g id="patch_21">
    <path d="M 288 189.063013 
Q 284.167638 189.163952 280.045719 189.214652 
Q 275.923801 189.264891 271.529359 189.264891 
Q 261.599283 189.264891 255.799641 188.964379 
Q 250 188.663868 250 188.149957 
Q 250 187.630054 255.901838 187.331847 
Q 261.812192 187.03364 272.091439 187.03364 
Q 276.051546 187.03364 279.679516 187.0742 
Q 283.316002 187.114299 286.535186 187.193575 
L 286.535186 187.63835 
Q 283.213805 187.53649 279.92649 187.486251 
Q 276.639175 187.435551 273.334827 187.435551 
Q 267.220081 187.435551 263.907216 187.620836 
Q 260.594352 187.805659 260.594352 188.149957 
Q 260.594352 188.491028 263.787987 188.677234 
Q 266.981623 188.86298 272.857911 188.86298 
Q 274.458987 188.86298 275.830121 188.852379 
Q 277.201255 188.841317 278.291349 188.818272 
L 278.291349 188.40069 
L 272.031824 188.40069 
L 272.031824 188.028738 
L 288 188.028738 
L 288 189.063013 
z
" clip-path="url(#p1cedd9f216)" style="fill: #ffa600"/>
   </g>
   <g id="patch_22">
    <path d="M 288 175.677973 
Q 284.821366 181.306719 281.384228 184.153817 
Q 277.94709 187.03364 274.203578 187.03364 
Q 263.04006 187.03364 256.52003 165.696766 
Q 250 144.359892 250 107.87122 
Q 250 71.251646 256.52003 49.947497 
Q 263.04006 28.610623 274.203578 28.610623 
Q 277.94709 28.610623 281.384228 31.490446 
Q 284.821366 34.337545 288 39.966291 
L 288 71.546173 
Q 284.792643 64.084812 281.681028 60.615934 
Q 278.569413 57.147056 275.132275 57.147056 
Q 268.96649 57.147056 265.43361 70.662591 
Q 261.910305 84.145401 261.910305 107.87122 
Q 261.910305 131.498862 265.43361 145.014398 
Q 268.96649 158.497208 275.132275 158.497208 
Q 278.569413 158.497208 281.681028 155.028329 
Q 284.792643 151.526726 288 144.065365 
L 288 175.677973 
z
" clip-path="url(#p1cedd9f216)" style="fill: #0000ff"/>
   </g>
   <g id="patch_23">
    <path d="M 290 190.327373 
L 328 190.327373 
L 328 190.700389 
L 314.328837 190.700389 
L 314.328837 192.24 
L 303.697674 192.24 
L 303.697674 190.700389 
L 290 190.700389 
L 290 190.327373 
z
" clip-path="url(#p1cedd9f216)" style="fill: #ff0000"/>
   </g>
   <g id="patch_24">
    <path d="M 328 190.12934 
Q 324.821366 190.227501 321.384228 190.277152 
Q 317.94709 190.327373 314.203578 190.327373 
Q 303.04006 190.327373 296.52003 189.955276 
Q 290 189.58318 290 188.946849 
Q 290 188.308235 296.52003 187.936709 
Q 303.04006 187.564612 314.203578 187.564612 
Q 317.94709 187.564612 321.384228 187.614834 
Q 324.821366 187.664485 328 187.762645 
L 328 188.313371 
Q 324.792643 188.183251 321.681028 188.122757 
Q 318.569413 188.062263 315.132275 188.062263 
Q 308.96649 188.062263 305.43361 188.297962 
Q 301.910305 188.533091 301.910305 188.946849 
Q 301.910305 189.358894 305.43361 189.594594 
Q 308.96649 189.829722 315.132275 189.829722 
Q 318.569413 189.829722 321.681028 189.769228 
Q 324.792643 189.708163 328 189.578043 
L 328 190.12934 
z
" clip-path="url(#p1cedd9f216)" style="fill: #0000ff"/>
   </g>
   <g id="patch_25">
    <path d="M 328 187.007 
Q 324.167638 187.285806 320.045719 187.425846 
Q 315.923801 187.564612 311.529359 187.564612 
Q 301.599283 187.564612 295.799641 186.734559 
Q 290 185.904506 290 184.485013 
Q 290 183.04897 295.901838 182.225282 
Q 301.812192 181.401594 312.091439 181.401594 
Q 316.051546 181.401594 319.679516 181.513626 
Q 323.316002 181.624385 326.535186 181.843356 
L 326.535186 183.071885 
Q 323.213805 182.790533 319.92649 182.651767 
Q 316.639175 182.511727 313.334827 182.511727 
Q 307.220081 182.511727 303.907216 183.023508 
Q 300.594352 183.534016 300.594352 184.485013 
Q 300.594352 185.427098 303.787987 185.941425 
Q 306.981623 186.45448 312.857911 186.45448 
Q 314.458987 186.45448 315.830121 186.425199 
Q 317.201255 186.394644 318.291349 186.33099 
L 318.291349 185.177573 
L 312.031824 185.177573 
L 312.031824 184.150191 
L 328 184.150191 
L 328 187.007 
z
" clip-path="url(#p1cedd9f216)" style="fill: #ffa600"/>
   </g>
   <g id="patch_26">
    <path d="M 316.322633 157.824479 
L 301.708444 157.824479 
L 299.400941 181.401594 
L 290 181.401594 
L 303.425475 51.9771 
L 314.574525 51.9771 
L 328 181.401594 
L 318.606829 181.401594 
L 316.322633 157.824479 
z
M 304.039256 133.803559 
L 313.968514 133.803559 
L 309.011654 82.322235 
L 304.039256 133.803559 
z
" clip-path="url(#p1cedd9f216)" style="fill: #008000"/>
   </g>
   <g id="patch_27">
    <path d="M 368 191.992691 
Q 364.821366 192.115276 361.384228 192.177282 
Q 357.94709 192.24 354.203578 192.24 
Q 343.04006 192.24 336.52003 191.775315 
Q 330 191.310631 330 190.515963 
Q 330 189.718445 336.52003 189.254473 
Q 343.04006 188.789789 354.203578 188.789789 
Q 357.94709 188.789789 361.384228 188.852507 
Q 364.821366 188.914512 368 189.037098 
L 368 189.724859 
Q 364.792643 189.562362 361.681028 189.486815 
Q 358.569413 189.411269 355.132275 189.411269 
Q 348.96649 189.411269 345.43361 189.705616 
Q 341.910305 189.999251 341.910305 190.515963 
Q 341.910305 191.030537 345.43361 191.324885 
Q 348.96649 191.61852 355.132275 191.61852 
Q 358.569413 191.61852 361.681028 191.542973 
Q 364.792643 191.466714 368 191.304217 
L 368 191.992691 
z
" clip-path="url(#p1cedd9f216)" style="fill: #0000ff"/>
   </g>
   <g id="patch_28">
    <path d="M 368 188.409763 
Q 364.167638 188.599776 360.045719 188.695216 
Q 355.923801 188.789789 351.529359 188.789789 
Q 341.599283 188.789789 335.799641 188.224089 
Q 330 187.65839 330 186.690974 
Q 330 185.71228 335.901838 185.150918 
Q 341.812192 184.589557 352.091439 184.589557 
Q 356.051546 184.589557 359.679516 184.665909 
Q 363.316002 184.741394 366.535186 184.890627 
L 366.535186 185.727897 
Q 363.213805 185.536149 359.92649 185.441577 
Q 356.639175 185.346137 353.334827 185.346137 
Q 347.220081 185.346137 343.907216 185.694927 
Q 340.594352 186.042849 340.594352 186.690974 
Q 340.594352 187.333026 343.787987 187.683551 
Q 346.981623 188.033209 352.857911 188.033209 
Q 354.458987 188.033209 355.830121 188.013253 
Q 357.201255 187.99243 358.291349 187.949048 
L 358.291349 187.162969 
L 352.031824 187.162969 
L 352.031824 186.462786 
L 368 186.462786 
L 368 188.409763 
z
" clip-path="url(#p1cedd9f216)" style="fill: #ffa600"/>
   </g>
   <g id="patch_29">
    <path d="M 330 173.788891 
L 368 173.788891 
L 368 175.895322 
L 354.328837 175.895322 
L 354.328837 184.589557 
L 343.697674 184.589557 
L 343.697674 175.895322 
L 330 175.895322 
L 330 173.788891 
z
" clip-path="url(#p1cedd9f216)" style="fill: #ff0000"/>
   </g>
   <g id="patch_30">
    <path d="M 356.322633 168.1322 
L 341.708444 168.1322 
L 339.400941 173.788891 
L 330 173.788891 
L 343.425475 142.736988 
L 354.574525 142.736988 
L 368 173.788891 
L 358.606829 173.788891 
L 356.322633 168.1322 
z
M 344.039256 162.369031 
L 353.968514 162.369031 
L 349.011654 150.017481 
L 344.039256 162.369031 
z
" clip-path="url(#p1cedd9f216)" style="fill: #008000"/>
   </g>
   <g id="patch_31">
    <path d="M 396.322633 192.052014 
L 381.708444 192.052014 
L 379.400941 192.24 
L 370 192.24 
L 383.425475 191.20807 
L 394.574525 191.20807 
L 408 192.24 
L 398.606829 192.24 
L 396.322633 192.052014 
z
M 384.039256 191.86049 
L 393.968514 191.86049 
L 389.011654 191.450018 
L 384.039256 191.86049 
z
" clip-path="url(#p1cedd9f216)" style="fill: #008000"/>
   </g>
   <g id="patch_32">
    <path d="M 408 190.987994 
Q 404.167638 191.098032 400.045719 191.153302 
Q 395.923801 191.20807 391.529359 191.20807 
Q 381.599283 191.20807 375.799641 190.880468 
Q 370 190.552865 370 189.992625 
Q 370 189.425853 375.901838 189.100763 
Q 381.812192 188.775673 392.091439 188.775673 
Q 396.051546 188.775673 399.679516 188.819889 
Q 403.316002 188.863603 406.535186 188.950026 
L 406.535186 189.434897 
Q 403.213805 189.323854 399.92649 189.269086 
Q 396.639175 189.213816 393.334827 189.213816 
Q 387.220081 189.213816 383.907216 189.415804 
Q 380.594352 189.617289 380.594352 189.992625 
Q 380.594352 190.364444 383.787987 190.567437 
Q 386.981623 190.769927 392.857911 190.769927 
Q 394.458987 190.769927 395.830121 190.75837 
Q 397.201255 190.746312 398.291349 190.721189 
L 398.291349 190.265962 
L 392.031824 190.265962 
L 392.031824 189.860479 
L 408 189.860479 
L 408 190.987994 
z
" clip-path="url(#p1cedd9f216)" style="fill: #ffa600"/>
   </g>
   <g id="patch_33">
    <path d="M 408 188.554826 
Q 404.821366 188.664295 401.384228 188.719665 
Q 397.94709 188.775673 394.203578 188.775673 
Q 383.04006 188.775673 376.52003 188.360709 
Q 370 187.945746 370 187.236108 
Q 370 186.523923 376.52003 186.109596 
Q 383.04006 185.694633 394.203578 185.694633 
Q 397.94709 185.694633 401.384228 185.75064 
Q 404.821366 185.806011 408 185.91548 
L 408 186.529651 
Q 404.792643 186.384541 401.681028 186.317078 
Q 398.569413 186.249615 395.132275 186.249615 
Q 388.96649 186.249615 385.43361 186.512467 
Q 381.910305 186.774683 381.910305 187.236108 
Q 381.910305 187.695622 385.43361 187.958475 
Q 388.96649 188.220691 395.132275 188.220691 
Q 398.569413 188.220691 401.681028 188.153228 
Q 404.792643 188.085128 408 187.940018 
L 408 188.554826 
z
" clip-path="url(#p1cedd9f216)" style="fill: #0000ff"/>
   </g>
   <g id="patch_34">
    <path d="M 370 182.510401 
L 408 182.510401 
L 408 183.131415 
L 394.328837 183.131415 
L 394.328837 185.694633 
L 383.697674 185.694633 
L 383.697674 183.131415 
L 370 183.131415 
L 370 182.510401 
z
" clip-path="url(#p1cedd9f216)" style="fill: #ff0000"/>
   </g>
   <g id="patch_35">
    <path d="M 436.322633 191.570897 
L 421.708444 191.570897 
L 419.400941 192.24 
L 410 192.24 
L 423.425475 188.567016 
L 434.574525 188.567016 
L 448 192.24 
L 438.606829 192.24 
L 436.322633 191.570897 
z
M 424.039256 190.889198 
L 433.968514 190.889198 
L 429.011654 189.428191 
L 424.039256 190.889198 
z
" clip-path="url(#p1cedd9f216)" style="fill: #008000"/>
   </g>
   <g id="patch_36">
    <path d="M 448 188.216234 
Q 444.167638 188.391625 440.045719 188.479721 
Q 435.923801 188.567016 431.529359 188.567016 
Q 421.599283 188.567016 415.799641 188.044848 
Q 410 187.52268 410 186.629708 
Q 410 185.726326 415.901838 185.208162 
Q 421.812192 184.689999 432.091439 184.689999 
Q 436.051546 184.689999 439.679516 184.760475 
Q 443.316002 184.830151 446.535186 184.967901 
L 446.535186 185.740742 
Q 443.213805 185.563749 439.92649 185.476454 
Q 436.639175 185.388358 433.334827 185.388358 
Q 427.220081 185.388358 423.907216 185.710309 
Q 420.594352 186.031458 420.594352 186.629708 
Q 420.594352 187.222353 423.787987 187.545905 
Q 426.981623 187.868656 432.857911 187.868656 
Q 434.458987 187.868656 435.830121 187.850236 
Q 437.201255 187.831015 438.291349 187.790971 
L 438.291349 187.065382 
L 432.031824 187.065382 
L 432.031824 186.419079 
L 448 186.419079 
L 448 188.216234 
z
" clip-path="url(#p1cedd9f216)" style="fill: #ffa600"/>
   </g>
   <g id="patch_37">
    <path d="M 448 184.397472 
Q 444.821366 184.542471 441.384228 184.615813 
Q 437.94709 184.689999 434.203578 184.689999 
Q 423.04006 184.689999 416.52003 184.140351 
Q 410 183.590704 410 182.650739 
Q 410 181.707402 416.52003 181.158597 
Q 423.04006 180.60895 434.203578 180.60895 
Q 437.94709 180.60895 441.384228 180.683135 
Q 444.821366 180.756478 448 180.901477 
L 448 181.714989 
Q 444.792643 181.522781 441.681028 181.433421 
Q 438.569413 181.344061 435.132275 181.344061 
Q 428.96649 181.344061 425.43361 181.692228 
Q 421.910305 182.039551 421.910305 182.650739 
Q 421.910305 183.259398 425.43361 183.607564 
Q 428.96649 183.954887 435.132275 183.954887 
Q 438.569413 183.954887 441.681028 183.865527 
Q 444.792643 183.775325 448 183.583117 
L 448 184.397472 
z
" clip-path="url(#p1cedd9f216)" style="fill: #0000ff"/>
   </g>
   <g id="patch_38">
    <path d="M 410 57.56525 
L 448 57.56525 
L 448 81.562199 
L 434.328837 81.562199 
L 434.328837 180.60895 
L 423.697674 180.60895 
L 423.697674 81.562199 
L 410 81.562199 
L 410 57.56525 
z
" clip-path="url(#p1cedd9f216)" style="fill: #ff0000"/>
   </g>
   <g id="patch_39">
    <path d="M 488 192.196498 
Q 484.167638 192.218249 480.045719 192.229174 
Q 475.923801 192.24 471.529359 192.24 
Q 461.599283 192.24 455.799641 192.175244 
Q 450 192.110488 450 191.999748 
Q 450 191.887716 455.901838 191.823457 
Q 461.812192 191.759197 472.091439 191.759197 
Q 476.051546 191.759197 479.679516 191.767937 
Q 483.316002 191.776578 486.535186 191.793661 
L 486.535186 191.889504 
Q 483.213805 191.867554 479.92649 191.856728 
Q 476.639175 191.845803 473.334827 191.845803 
Q 467.220081 191.845803 463.907216 191.88573 
Q 460.594352 191.925556 460.594352 191.999748 
Q 460.594352 192.073244 463.787987 192.113368 
Q 466.981623 192.153394 472.857911 192.153394 
Q 474.458987 192.153394 475.830121 192.15111 
Q 477.201255 192.148726 478.291349 192.14376 
L 478.291349 192.053777 
L 472.031824 192.053777 
L 472.031824 191.973627 
L 488 191.973627 
L 488 192.196498 
z
" clip-path="url(#p1cedd9f216)" style="fill: #ffa600"/>
   </g>
   <g id="patch_40">
    <path d="M 476.322633 191.5402 
L 461.708444 191.5402 
L 459.400941 191.759197 
L 450 191.759197 
L 463.425475 190.557032 
L 474.574525 190.557032 
L 488 191.759197 
L 478.606829 191.759197 
L 476.322633 191.5402 
z
M 464.039256 191.317081 
L 473.968514 191.317081 
L 469.011654 190.838894 
L 464.039256 191.317081 
z
" clip-path="url(#p1cedd9f216)" style="fill: #008000"/>
   </g>
   <g id="patch_41">
    <path d="M 450 185.267727 
L 488 185.267727 
L 488 186.299289 
L 474.328837 186.299289 
L 474.328837 190.557032 
L 463.697674 190.557032 
L 463.697674 186.299289 
L 450 186.299289 
L 450 185.267727 
z
" clip-path="url(#p1cedd9f216)" style="fill: #ff0000"/>
   </g>
   <g id="patch_42">
    <path d="M 488 174.393355 
Q 484.821366 179.783534 481.384228 182.509961 
Q 477.94709 185.267727 474.203578 185.267727 
Q 463.04006 185.267727 456.52003 164.835189 
Q 450 144.402651 450 109.460503 
Q 450 74.393003 456.52003 53.991803 
Q 463.04006 33.559264 474.203578 33.559264 
Q 477.94709 33.559264 481.384228 36.31703 
Q 484.821366 39.043458 488 44.433637 
L 488 74.675047 
Q 484.792643 67.529926 481.681028 64.208072 
Q 478.569413 60.886217 475.132275 60.886217 
Q 468.96649 60.886217 465.43361 73.828914 
Q 461.910305 86.740273 461.910305 109.460503 
Q 461.910305 132.086719 465.43361 145.029416 
Q 468.96649 157.940774 475.132275 157.940774 
Q 478.569413 157.940774 481.681028 154.61892 
Q 484.792643 151.265727 488 144.120606 
L 488 174.393355 
z
" clip-path="url(#p1cedd9f216)" style="fill: #0000ff"/>
   </g>
   <g id="patch_43">
    <path d="M 528 192.125995 
Q 524.167638 192.182998 520.045719 192.211629 
Q 515.923801 192.24 511.529359 192.24 
Q 501.599283 192.24 495.799641 192.070294 
Q 490 191.900588 490 191.61037 
Q 490 191.316769 495.901838 191.148364 
Q 501.812192 190.97996 512.091439 190.97996 
Q 516.051546 190.97996 519.679516 191.002865 
Q 523.316002 191.02551 526.535186 191.070279 
L 526.535186 191.321454 
Q 523.213805 191.263931 519.92649 191.23556 
Q 516.639175 191.206928 513.334827 191.206928 
Q 507.220081 191.206928 503.907216 191.311563 
Q 500.594352 191.415937 500.594352 191.61037 
Q 500.594352 191.802981 503.787987 191.908136 
Q 506.981623 192.013031 512.857911 192.013031 
Q 514.458987 192.013031 515.830121 192.007045 
Q 517.201255 192.000798 518.291349 191.987784 
L 518.291349 191.751965 
L 512.031824 191.751965 
L 512.031824 191.541915 
L 528 191.541915 
L 528 192.125995 
z
" clip-path="url(#p1cedd9f216)" style="fill: #ffa600"/>
   </g>
   <g id="patch_44">
    <path d="M 490 189.719919 
L 528 189.719919 
L 528 189.965662 
L 514.328837 189.965662 
L 514.328837 190.97996 
L 503.697674 190.97996 
L 503.697674 189.965662 
L 490 189.965662 
L 490 189.719919 
z
" clip-path="url(#p1cedd9f216)" style="fill: #ff0000"/>
   </g>
   <g id="patch_45">
    <path d="M 516.322633 189.352673 
L 501.708444 189.352673 
L 499.400941 189.719919 
L 490 189.719919 
L 503.425475 187.703955 
L 514.574525 187.703955 
L 528 189.719919 
L 518.606829 189.719919 
L 516.322633 189.352673 
z
M 504.039256 188.978514 
L 513.968514 188.978514 
L 509.011654 188.176622 
L 504.039256 188.978514 
z
" clip-path="url(#p1cedd9f216)" style="fill: #008000"/>
   </g>
   <g id="patch_46">
    <path d="M 528 176.107377 
Q 524.821366 181.855537 521.384228 184.763036 
Q 517.94709 187.703955 514.203578 187.703955 
Q 503.04006 187.703955 496.52003 165.91442 
Q 490 144.124885 490 106.862107 
Q 490 69.46565 496.52003 47.709535 
Q 503.04006 25.92 514.203578 25.92 
Q 517.94709 25.92 521.384228 28.860919 
Q 524.821366 31.768418 528 37.516578 
L 528 69.766426 
Q 524.792643 62.146773 521.681028 58.604302 
Q 518.569413 55.061832 515.132275 55.061832 
Q 508.96649 55.061832 505.43361 68.864099 
Q 501.910305 82.632946 501.910305 106.862107 
Q 501.910305 130.991009 505.43361 144.793275 
Q 508.96649 158.562123 515.132275 158.562123 
Q 518.569413 158.562123 521.681028 155.019652 
Q 524.792643 151.443762 528 143.824109 
L 528 176.107377 
z
" clip-path="url(#p1cedd9f216)" style="fill: #0000ff"/>
   </g>
   <g id="patch_47">
    <path d="M 556.322633 191.868987 
L 541.708444 191.868987 
L 539.400941 192.24 
L 530 192.24 
L 543.425475 190.203356 
L 554.574525 190.203356 
L 568 192.24 
L 558.606829 192.24 
L 556.322633 191.868987 
z
M 544.039256 191.49099 
L 553.968514 191.49099 
L 549.011654 190.680872 
L 544.039256 191.49099 
z
" clip-path="url(#p1cedd9f216)" style="fill: #008000"/>
   </g>
   <g id="patch_48">
    <path d="M 568 189.998599 
Q 564.167638 190.100978 560.045719 190.1524 
Q 555.923801 190.203356 551.529359 190.203356 
Q 541.599283 190.203356 535.799641 189.898559 
Q 530 189.593762 530 189.072522 
Q 530 188.545204 535.901838 188.242744 
Q 541.812192 187.940285 552.091439 187.940285 
Q 556.051546 187.940285 559.679516 187.981423 
Q 563.316002 188.022094 566.535186 188.1025 
L 566.535186 188.553619 
Q 563.213805 188.450306 559.92649 188.39935 
Q 556.639175 188.347927 553.334827 188.347927 
Q 547.220081 188.347927 543.907216 188.535854 
Q 540.594352 188.723314 540.594352 189.072522 
Q 540.594352 189.418457 543.787987 189.607319 
Q 546.981623 189.795713 552.857911 189.795713 
Q 554.458987 189.795713 555.830121 189.784961 
Q 557.201255 189.773742 558.291349 189.750368 
L 558.291349 189.326831 
L 552.031824 189.326831 
L 552.031824 188.949574 
L 568 188.949574 
L 568 189.998599 
z
" clip-path="url(#p1cedd9f216)" style="fill: #ffa600"/>
   </g>
   <g id="patch_49">
    <path d="M 530 183.64057 
L 568 183.64057 
L 568 184.479134 
L 554.328837 184.479134 
L 554.328837 187.940285 
L 543.697674 187.940285 
L 543.697674 184.479134 
L 530 184.479134 
L 530 183.64057 
z
" clip-path="url(#p1cedd9f216)" style="fill: #ff0000"/>
   </g>
   <g id="patch_50">
    <path d="M 568 173.551087 
Q 564.821366 178.552214 561.384228 181.081854 
Q 557.94709 183.64057 554.203578 183.64057 
Q 543.04006 183.64057 536.52003 164.682809 
Q 530 145.725048 530 113.304951 
Q 530 80.768549 536.52003 61.839864 
Q 543.04006 42.882104 554.203578 42.882104 
Q 557.94709 42.882104 561.384228 45.44082 
Q 564.821366 47.97046 568 52.971587 
L 568 81.030236 
Q 564.792643 74.400835 561.681028 71.318745 
Q 558.569413 68.236655 555.132275 68.236655 
Q 548.96649 68.236655 545.43361 80.245175 
Q 541.910305 92.224619 541.910305 113.304951 
Q 541.910305 134.298054 545.43361 146.306575 
Q 548.96649 158.286019 555.132275 158.286019 
Q 558.569413 158.286019 561.681028 155.203929 
Q 564.792643 152.092762 568 145.463361 
L 568 173.551087 
z
" clip-path="url(#p1cedd9f216)" style="fill: #0000ff"/>
   </g>
   <g id="patch_51">
    <path d="M 608 192.096526 
Q 604.821366 192.167643 601.384228 192.203615 
Q 597.94709 192.24 594.203578 192.24 
Q 583.04006 192.24 576.52003 191.970417 
Q 570 191.700835 570 191.239816 
Q 570 190.777143 576.52003 190.507974 
Q 583.04006 190.238391 594.203578 190.238391 
Q 597.94709 190.238391 601.384228 190.274776 
Q 604.821366 190.310748 608 190.381865 
L 608 190.780864 
Q 604.792643 190.686593 601.681028 190.642765 
Q 598.569413 190.598937 595.132275 190.598937 
Q 588.96649 190.598937 585.43361 190.7697 
Q 581.910305 190.94005 581.910305 191.239816 
Q 581.910305 191.538341 585.43361 191.709104 
Q 588.96649 191.879454 595.132275 191.879454 
Q 598.569413 191.879454 601.681028 191.835626 
Q 604.792643 191.791385 608 191.697114 
L 608 192.096526 
z
" clip-path="url(#p1cedd9f216)" style="fill: #0000ff"/>
   </g>
   <g id="patch_52">
    <path d="M 570 187.486158 
L 608 187.486158 
L 608 188.02292 
L 594.328837 188.02292 
L 594.328837 190.238391 
L 583.697674 190.238391 
L 583.697674 188.02292 
L 570 188.02292 
L 570 187.486158 
z
" clip-path="url(#p1cedd9f216)" style="fill: #ff0000"/>
   </g>
   <g id="patch_53">
    <path d="M 608 185.822275 
Q 604.167638 186.654217 600.045719 187.072087 
Q 595.923801 187.486158 591.529359 187.486158 
Q 581.599283 187.486158 575.799641 185.009328 
Q 570 182.532498 570 178.296815 
Q 570 174.011747 575.901838 171.553911 
Q 581.812192 169.096076 592.091439 169.096076 
Q 596.051546 169.096076 599.679516 169.430372 
Q 603.316002 169.760869 606.535186 170.414266 
L 606.535186 174.080126 
Q 603.213805 173.240587 599.92649 172.826516 
Q 596.639175 172.408646 593.334827 172.408646 
Q 587.220081 172.408646 583.907216 173.935771 
Q 580.594352 175.459097 580.594352 178.296815 
Q 580.594352 181.107941 583.787987 182.642664 
Q 586.981623 184.173588 592.857911 184.173588 
Q 594.458987 184.173588 595.830121 184.086215 
Q 597.201255 183.995043 598.291349 183.805102 
L 598.291349 180.363372 
L 592.031824 180.363372 
L 592.031824 177.297726 
L 608 177.297726 
L 608 185.822275 
z
" clip-path="url(#p1cedd9f216)" style="fill: #ffa600"/>
   </g>
   <g id="patch_54">
    <path d="M 596.322633 158.270906 
L 581.708444 158.270906 
L 579.400941 169.096076 
L 570 169.096076 
L 583.425475 109.672265 
L 594.574525 109.672265 
L 608 169.096076 
L 598.606829 169.096076 
L 596.322633 158.270906 
z
M 584.039256 147.241969 
L 593.968514 147.241969 
L 589.011654 123.604894 
L 584.039256 147.241969 
z
" clip-path="url(#p1cedd9f216)" style="fill: #008000"/>
   </g>
   <g id="patch_55">
    <path d="M 648 191.90278 
Q 644.821366 192.069932 641.384228 192.15448 
Q 637.94709 192.24 634.203578 192.24 
Q 623.04006 192.24 616.52003 191.606376 
Q 610 190.972752 610 189.889177 
Q 610 188.801715 616.52003 188.169062 
Q 623.04006 187.535438 634.203578 187.535438 
Q 637.94709 187.535438 641.384228 187.620958 
Q 644.821366 187.705506 648 187.872658 
L 648 188.810461 
Q 644.792643 188.588887 641.681028 188.485874 
Q 638.569413 188.382862 635.132275 188.382862 
Q 628.96649 188.382862 625.43361 188.784222 
Q 621.910305 189.18461 621.910305 189.889177 
Q 621.910305 190.590828 625.43361 190.992188 
Q 628.96649 191.392576 635.132275 191.392576 
Q 638.569413 191.392576 641.681028 191.289564 
Q 644.792643 191.18558 648 190.964005 
L 648 191.90278 
z
" clip-path="url(#p1cedd9f216)" style="fill: #0000ff"/>
   </g>
   <g id="patch_56">
    <path d="M 636.322633 186.602793 
L 621.708444 186.602793 
L 619.400941 187.535438 
L 610 187.535438 
L 623.425475 182.415763 
L 634.574525 182.415763 
L 648 187.535438 
L 638.606829 187.535438 
L 636.322633 186.602793 
z
M 624.039256 185.652592 
L 633.968514 185.652592 
L 629.011654 183.616133 
L 624.039256 185.652592 
z
" clip-path="url(#p1cedd9f216)" style="fill: #008000"/>
   </g>
   <g id="patch_57">
    <path d="M 610 175.70481 
L 648 175.70481 
L 648 177.013633 
L 634.328837 177.013633 
L 634.328837 182.415763 
L 623.697674 182.415763 
L 623.697674 177.013633 
L 610 177.013633 
L 610 175.70481 
z
" clip-path="url(#p1cedd9f216)" style="fill: #ff0000"/>
   </g>
   <g id="patch_58">
    <path d="M 648 173.069494 
Q 644.167638 174.387152 640.045719 175.04899 
Q 635.923801 175.70481 631.529359 175.70481 
Q 621.599283 175.70481 615.799641 171.781919 
Q 610 167.859028 610 161.150402 
Q 610 154.363559 615.901838 150.470751 
Q 621.812192 146.577943 632.091439 146.577943 
Q 636.051546 146.577943 639.679516 147.107413 
Q 643.316002 147.630867 646.535186 148.66574 
L 646.535186 154.47186 
Q 643.213805 153.142168 639.92649 152.486347 
Q 636.639175 151.82451 633.334827 151.82451 
Q 627.220081 151.82451 623.907216 154.243225 
Q 620.594352 156.655924 620.594352 161.150402 
Q 620.594352 165.602763 623.787987 168.033512 
Q 626.981623 170.458244 632.857911 170.458244 
Q 634.458987 170.458244 635.830121 170.31986 
Q 637.201255 170.175459 638.291349 169.874624 
L 638.291349 164.423489 
L 632.031824 164.423489 
L 632.031824 159.568009 
L 648 159.568009 
L 648 173.069494 
z
" clip-path="url(#p1cedd9f216)" style="fill: #ffa600"/>
   </g>
   <g id="matplotlib.axis_1">
    <g id="xtick_1">
     <g id="line2d_2">
      <defs>
       <path id="m84977e0b67" d="M 0 0 
L 0 3.5 
" style="stroke: #000000; stroke-width: 0.8"/>
      </defs>
      <g>
       <use xlink:href="#m84977e0b67" x="109" y="192.24" style="stroke: #000000; stroke-width: 0.8"/>
      </g>
     </g>
     <g id="text_1">
      <!-- 0 -->
      <g transform="translate(105.81875 206.838437) scale(0.1 -0.1)">
       <defs>
        <path id="DejaVuSans-30" d="M 2034 4250 
Q 1547 4250 1301 3770 
Q 1056 3291 1056 2328 
Q 1056 1369 1301 889 
Q 1547 409 2034 409 
Q 2525 409 2770 889 
Q 3016 1369 3016 2328 
Q 3016 3291 2770 3770 
Q 2525 4250 2034 4250 
z
M 2034 4750 
Q 2819 4750 3233 4129 
Q 3647 3509 3647 2328 
Q 3647 1150 3233 529 
Q 2819 -91 2034 -91 
Q 1250 -91 836 529 
Q 422 1150 422 2328 
Q 422 3509 836 4129 
Q 1250 4750 2034 4750 
z
" transform="scale(0.015625)"/>
       </defs>
       <use xlink:href="#DejaVuSans-30"/>
      </g>
     </g>
    </g>
    <g id="xtick_2">
     <g id="line2d_3">
      <g>
       <use xlink:href="#m84977e0b67" x="189" y="192.24" style="stroke: #000000; stroke-width: 0.8"/>
      </g>
     </g>
     <g id="text_2">
      <!-- 2 -->
      <g transform="translate(185.81875 206.838437) scale(0.1 -0.1)">
       <defs>
        <path id="DejaVuSans-32" d="M 1228 531 
L 3431 531 
L 3431 0 
L 469 0 
L 469 531 
Q 828 903 1448 1529 
Q 2069 2156 2228 2338 
Q 2531 2678 2651 2914 
Q 2772 3150 2772 3378 
Q 2772 3750 2511 3984 
Q 2250 4219 1831 4219 
Q 1534 4219 1204 4116 
Q 875 4013 500 3803 
L 500 4441 
Q 881 4594 1212 4672 
Q 1544 4750 1819 4750 
Q 2544 4750 2975 4387 
Q 3406 4025 3406 3419 
Q 3406 3131 3298 2873 
Q 3191 2616 2906 2266 
Q 2828 2175 2409 1742 
Q 1991 1309 1228 531 
z
" transform="scale(0.015625)"/>
       </defs>
       <use xlink:href="#DejaVuSans-32"/>
      </g>
     </g>
    </g>
    <g id="xtick_3">
     <g id="line2d_4">
      <g>
       <use xlink:href="#m84977e0b67" x="269" y="192.24" style="stroke: #000000; stroke-width: 0.8"/>
      </g>
     </g>
     <g id="text_3">
      <!-- 4 -->
      <g transform="translate(265.81875 206.838437) scale(0.1 -0.1)">
       <defs>
        <path id="DejaVuSans-34" d="M 2419 4116 
L 825 1625 
L 2419 1625 
L 2419 4116 
z
M 2253 4666 
L 3047 4666 
L 3047 1625 
L 3713 1625 
L 3713 1100 
L 3047 1100 
L 3047 0 
L 2419 0 
L 2419 1100 
L 313 1100 
L 313 1709 
L 2253 4666 
z
" transform="scale(0.015625)"/>
       </defs>
       <use xlink:href="#DejaVuSans-34"/>
      </g>
     </g>
    </g>
    <g id="xtick_4">
     <g id="line2d_5">
      <g>
       <use xlink:href="#m84977e0b67" x="349" y="192.24" style="stroke: #000000; stroke-width: 0.8"/>
      </g>
     </g>
     <g id="text_4">
      <!-- 6 -->
      <g transform="translate(345.81875 206.838437) scale(0.1 -0.1)">
       <defs>
        <path id="DejaVuSans-36" d="M 2113 2584 
Q 1688 2584 1439 2293 
Q 1191 2003 1191 1497 
Q 1191 994 1439 701 
Q 1688 409 2113 409 
Q 2538 409 2786 701 
Q 3034 994 3034 1497 
Q 3034 2003 2786 2293 
Q 2538 2584 2113 2584 
z
M 3366 4563 
L 3366 3988 
Q 3128 4100 2886 4159 
Q 2644 4219 2406 4219 
Q 1781 4219 1451 3797 
Q 1122 3375 1075 2522 
Q 1259 2794 1537 2939 
Q 1816 3084 2150 3084 
Q 2853 3084 3261 2657 
Q 3669 2231 3669 1497 
Q 3669 778 3244 343 
Q 2819 -91 2113 -91 
Q 1303 -91 875 529 
Q 447 1150 447 2328 
Q 447 3434 972 4092 
Q 1497 4750 2381 4750 
Q 2619 4750 2861 4703 
Q 3103 4656 3366 4563 
z
" transform="scale(0.015625)"/>
       </defs>
       <use xlink:href="#DejaVuSans-36"/>
      </g>
     </g>
    </g>
    <g id="xtick_5">
     <g id="line2d_6">
      <g>
       <use xlink:href="#m84977e0b67" x="429" y="192.24" style="stroke: #000000; stroke-width: 0.8"/>
      </g>
     </g>
     <g id="text_5">
      <!-- 8 -->
      <g transform="translate(425.81875 206.838437) scale(0.1 -0.1)">
       <defs>
        <path id="DejaVuSans-38" d="M 2034 2216 
Q 1584 2216 1326 1975 
Q 1069 1734 1069 1313 
Q 1069 891 1326 650 
Q 1584 409 2034 409 
Q 2484 409 2743 651 
Q 3003 894 3003 1313 
Q 3003 1734 2745 1975 
Q 2488 2216 2034 2216 
z
M 1403 2484 
Q 997 2584 770 2862 
Q 544 3141 544 3541 
Q 544 4100 942 4425 
Q 1341 4750 2034 4750 
Q 2731 4750 3128 4425 
Q 3525 4100 3525 3541 
Q 3525 3141 3298 2862 
Q 3072 2584 2669 2484 
Q 3125 2378 3379 2068 
Q 3634 1759 3634 1313 
Q 3634 634 3220 271 
Q 2806 -91 2034 -91 
Q 1263 -91 848 271 
Q 434 634 434 1313 
Q 434 1759 690 2068 
Q 947 2378 1403 2484 
z
M 1172 3481 
Q 1172 3119 1398 2916 
Q 1625 2713 2034 2713 
Q 2441 2713 2670 2916 
Q 2900 3119 2900 3481 
Q 2900 3844 2670 4047 
Q 2441 4250 2034 4250 
Q 1625 4250 1398 4047 
Q 1172 3844 1172 3481 
z
" transform="scale(0.015625)"/>
       </defs>
       <use xlink:href="#DejaVuSans-38"/>
      </g>
     </g>
    </g>
    <g id="xtick_6">
     <g id="line2d_7">
      <g>
       <use xlink:href="#m84977e0b67" x="509" y="192.24" style="stroke: #000000; stroke-width: 0.8"/>
      </g>
     </g>
     <g id="text_6">
      <!-- 10 -->
      <g transform="translate(502.6375 206.838437) scale(0.1 -0.1)">
       <defs>
        <path id="DejaVuSans-31" d="M 794 531 
L 1825 531 
L 1825 4091 
L 703 3866 
L 703 4441 
L 1819 4666 
L 2450 4666 
L 2450 531 
L 3481 531 
L 3481 0 
L 794 0 
L 794 531 
z
" transform="scale(0.015625)"/>
       </defs>
       <use xlink:href="#DejaVuSans-31"/>
       <use xlink:href="#DejaVuSans-30" x="63.623047"/>
      </g>
     </g>
    </g>
    <g id="xtick_7">
     <g id="line2d_8">
      <g>
       <use xlink:href="#m84977e0b67" x="589" y="192.24" style="stroke: #000000; stroke-width: 0.8"/>
      </g>
     </g>
     <g id="text_7">
      <!-- 12 -->
      <g transform="translate(582.6375 206.838437) scale(0.1 -0.1)">
       <use xlink:href="#DejaVuSans-31"/>
       <use xlink:href="#DejaVuSans-32" x="63.623047"/>
      </g>
     </g>
    </g>
   </g>
   <g id="matplotlib.axis_2">
    <g id="ytick_1">
     <g id="line2d_9">
      <defs>
       <path id="m9981de25d3" d="M 0 0 
L -3.5 0 
" style="stroke: #000000; stroke-width: 0.8"/>
      </defs>
      <g>
       <use xlink:href="#m9981de25d3" x="90" y="192.24" style="stroke: #000000; stroke-width: 0.8"/>
      </g>
     </g>
     <g id="text_8">
      <!-- 0.00 -->
      <g transform="translate(60.734375 196.039219) scale(0.1 -0.1)">
       <defs>
        <path id="DejaVuSans-2e" d="M 684 794 
L 1344 794 
L 1344 0 
L 684 0 
L 684 794 
z
" transform="scale(0.015625)"/>
       </defs>
       <use xlink:href="#DejaVuSans-30"/>
       <use xlink:href="#DejaVuSans-2e" x="63.623047"/>
       <use xlink:href="#DejaVuSans-30" x="95.410156"/>
       <use xlink:href="#DejaVuSans-30" x="159.033203"/>
      </g>
     </g>
    </g>
    <g id="ytick_2">
     <g id="line2d_10">
      <g>
       <use xlink:href="#m9981de25d3" x="90" y="168.841955" style="stroke: #000000; stroke-width: 0.8"/>
      </g>
     </g>
     <g id="text_9">
      <!-- 0.25 -->
      <g transform="translate(60.734375 172.641174) scale(0.1 -0.1)">
       <defs>
        <path id="DejaVuSans-35" d="M 691 4666 
L 3169 4666 
L 3169 4134 
L 1269 4134 
L 1269 2991 
Q 1406 3038 1543 3061 
Q 1681 3084 1819 3084 
Q 2600 3084 3056 2656 
Q 3513 2228 3513 1497 
Q 3513 744 3044 326 
Q 2575 -91 1722 -91 
Q 1428 -91 1123 -41 
Q 819 9 494 109 
L 494 744 
Q 775 591 1075 516 
Q 1375 441 1709 441 
Q 2250 441 2565 725 
Q 2881 1009 2881 1497 
Q 2881 1984 2565 2268 
Q 2250 2553 1709 2553 
Q 1456 2553 1204 2497 
Q 953 2441 691 2322 
L 691 4666 
z
" transform="scale(0.015625)"/>
       </defs>
       <use xlink:href="#DejaVuSans-30"/>
       <use xlink:href="#DejaVuSans-2e" x="63.623047"/>
       <use xlink:href="#DejaVuSans-32" x="95.410156"/>
       <use xlink:href="#DejaVuSans-35" x="159.033203"/>
      </g>
     </g>
    </g>
    <g id="ytick_3">
     <g id="line2d_11">
      <g>
       <use xlink:href="#m9981de25d3" x="90" y="145.443911" style="stroke: #000000; stroke-width: 0.8"/>
      </g>
     </g>
     <g id="text_10">
      <!-- 0.50 -->
      <g transform="translate(60.734375 149.24313) scale(0.1 -0.1)">
       <use xlink:href="#DejaVuSans-30"/>
       <use xlink:href="#DejaVuSans-2e" x="63.623047"/>
       <use xlink:href="#DejaVuSans-35" x="95.410156"/>
       <use xlink:href="#DejaVuSans-30" x="159.033203"/>
      </g>
     </g>
    </g>
    <g id="ytick_4">
     <g id="line2d_12">
      <g>
       <use xlink:href="#m9981de25d3" x="90" y="122.045866" style="stroke: #000000; stroke-width: 0.8"/>
      </g>
     </g>
     <g id="text_11">
      <!-- 0.75 -->
      <g transform="translate(60.734375 125.845085) scale(0.1 -0.1)">
       <defs>
        <path id="DejaVuSans-37" d="M 525 4666 
L 3525 4666 
L 3525 4397 
L 1831 0 
L 1172 0 
L 2766 4134 
L 525 4134 
L 525 4666 
z
" transform="scale(0.015625)"/>
       </defs>
       <use xlink:href="#DejaVuSans-30"/>
       <use xlink:href="#DejaVuSans-2e" x="63.623047"/>
       <use xlink:href="#DejaVuSans-37" x="95.410156"/>
       <use xlink:href="#DejaVuSans-35" x="159.033203"/>
      </g>
     </g>
    </g>
    <g id="ytick_5">
     <g id="line2d_13">
      <g>
       <use xlink:href="#m9981de25d3" x="90" y="98.647822" style="stroke: #000000; stroke-width: 0.8"/>
      </g>
     </g>
     <g id="text_12">
      <!-- 1.00 -->
      <g transform="translate(60.734375 102.447041) scale(0.1 -0.1)">
       <use xlink:href="#DejaVuSans-31"/>
       <use xlink:href="#DejaVuSans-2e" x="63.623047"/>
       <use xlink:href="#DejaVuSans-30" x="95.410156"/>
       <use xlink:href="#DejaVuSans-30" x="159.033203"/>
      </g>
     </g>
    </g>
    <g id="ytick_6">
     <g id="line2d_14">
      <g>
       <use xlink:href="#m9981de25d3" x="90" y="75.249777" style="stroke: #000000; stroke-width: 0.8"/>
      </g>
     </g>
     <g id="text_13">
      <!-- 1.25 -->
      <g transform="translate(60.734375 79.048996) scale(0.1 -0.1)">
       <use xlink:href="#DejaVuSans-31"/>
       <use xlink:href="#DejaVuSans-2e" x="63.623047"/>
       <use xlink:href="#DejaVuSans-32" x="95.410156"/>
       <use xlink:href="#DejaVuSans-35" x="159.033203"/>
      </g>
     </g>
    </g>
    <g id="ytick_7">
     <g id="line2d_15">
      <g>
       <use xlink:href="#m9981de25d3" x="90" y="51.851733" style="stroke: #000000; stroke-width: 0.8"/>
      </g>
     </g>
     <g id="text_14">
      <!-- 1.50 -->
      <g transform="translate(60.734375 55.650952) scale(0.1 -0.1)">
       <use xlink:href="#DejaVuSans-31"/>
       <use xlink:href="#DejaVuSans-2e" x="63.623047"/>
       <use xlink:href="#DejaVuSans-35" x="95.410156"/>
       <use xlink:href="#DejaVuSans-30" x="159.033203"/>
      </g>
     </g>
    </g>
    <g id="ytick_8">
     <g id="line2d_16">
      <g>
       <use xlink:href="#m9981de25d3" x="90" y="28.453688" style="stroke: #000000; stroke-width: 0.8"/>
      </g>
     </g>
     <g id="text_15">
      <!-- 1.75 -->
      <g transform="translate(60.734375 32.252907) scale(0.1 -0.1)">
       <use xlink:href="#DejaVuSans-31"/>
       <use xlink:href="#DejaVuSans-2e" x="63.623047"/>
       <use xlink:href="#DejaVuSans-37" x="95.410156"/>
       <use xlink:href="#DejaVuSans-35" x="159.033203"/>
      </g>
     </g>
    </g>
   </g>
  </g>
 </g>
 <defs>
  <clipPath id="p1cedd9f216">
   <rect x="90" y="25.92" width="558" height="166.32"/>
  </clipPath>
 </defs>
</svg>
