<?xml version="1.0" encoding="utf-8" standalone="no"?>
<!DOCTYPE svg PUBLIC "-//W3C//DTD SVG 1.1//EN"
  "http://www.w3.org/Graphics/SVG/1.1/DTD/svg11.dtd">
<svg xmlns:xlink="http://www.w3.org/1999/xlink" width="720pt" height="216pt" viewBox="0 0 720 216" xmlns="http://www.w3.org/2000/svg" version="1.1">
 <metadata>
  <rdf:RDF xmlns:dc="http://purl.org/dc/elements/1.1/" xmlns:cc="http://creativecommons.org/ns#" xmlns:rdf="http://www.w3.org/1999/02/22-rdf-syntax-ns#">
   <cc:Work>
    <dc:type rdf:resource="http://purl.org/dc/dcmitype/StillImage"/>
    <dc:date>2024-11-23T05:03:49.024638</dc:date>
    <dc:format>image/svg+xml</dc:format>
    <dc:creator>
     <cc:Agent>
      <dc:title>Matplotlib v3.7.2, https://matplotlib.org/</dc:title>
     </cc:Agent>
    </dc:creator>
   </cc:Work>
  </rdf:RDF>
 </metadata>
 <defs>
  <style type="text/css">*{stroke-linejoin: round; stroke-linecap: butt}</style>
 </defs>
 <g id="figure_1">
  <g id="patch_1">
   <path d="M 0 216 
L 720 216 
L 720 0 
L 0 0 
z
" style="fill: #ffffff"/>
  </g>
  <g id="axes_1">
   <g id="patch_2">
    <path d="M 90 192.24 
L 648 192.24 
L 648 25.92 
L 90 25.92 
z
" style="fill: #ffffff"/>
   </g>
   <g id="line2d_1">
    <path d="M 90 192.24 
L 648 192.24 
" clip-path="url(#p3865bdac23)" style="fill: none; stroke: #000000; stroke-width: 0.5; stroke-linecap: square"/>
   </g>
   <g id="patch_3">
    <path d="M 123.23511 192.076344 
Q 120.45505 192.157465 117.448901 192.198497 
Q 114.442753 192.24 111.168646 192.24 
Q 101.404943 192.24 95.702472 191.932497 
Q 90 191.624994 90 191.099125 
Q 90 190.571371 95.702472 190.264339 
Q 101.404943 189.956836 111.168646 189.956836 
Q 114.442753 189.956836 117.448901 189.99834 
Q 120.45505 190.039371 123.23511 190.120492 
L 123.23511 190.575615 
Q 120.429929 190.468084 117.708485 190.418091 
Q 114.987041 190.368098 111.980893 190.368098 
Q 106.588247 190.368098 103.498362 190.562881 
Q 100.41685 190.757193 100.41685 191.099125 
Q 100.41685 191.439643 103.498362 191.634426 
Q 106.588247 191.828738 111.980893 191.828738 
Q 114.987041 191.828738 117.708485 191.778745 
Q 120.429929 191.728281 123.23511 191.620749 
L 123.23511 192.076344 
z
" clip-path="url(#p3865bdac23)" style="fill: #0000ff"/>
   </g>
   <g id="patch_4">
    <path d="M 113.02199 189.148607 
L 100.240301 189.148607 
L 98.222139 189.956836 
L 90 189.956836 
L 101.74203 185.520133 
L 111.49308 185.520133 
L 123.23511 189.956836 
L 115.019766 189.956836 
L 113.02199 189.148607 
z
M 102.278848 188.325164 
L 110.963057 188.325164 
L 106.627748 186.560372 
L 102.278848 188.325164 
z
" clip-path="url(#p3865bdac23)" style="fill: #008000"/>
   </g>
   <g id="patch_5">
    <path d="M 90 180.17181 
L 123.23511 180.17181 
L 123.23511 181.214882 
L 111.278199 181.214882 
L 111.278199 185.520133 
L 101.980098 185.520133 
L 101.980098 181.214882 
L 90 181.214882 
L 90 180.17181 
z
" clip-path="url(#p3865bdac23)" style="fill: #ff0000"/>
   </g>
   <g id="patch_6">
    <path d="M 123.23511 178.877526 
Q 119.883295 179.524668 116.278231 179.849717 
Q 112.673168 180.17181 108.829753 180.17181 
Q 100.144827 180.17181 95.072414 178.245158 
Q 90 176.318506 90 173.023695 
Q 90 169.690469 95.161795 167.778592 
Q 100.331039 165.866715 109.321352 165.866715 
Q 112.784895 165.866715 115.957947 166.126754 
Q 119.138447 166.383838 121.953971 166.892096 
L 121.953971 169.743659 
Q 119.049065 169.090607 116.173952 168.768513 
Q 113.29884 168.443465 110.40883 168.443465 
Q 105.060823 168.443465 102.163365 169.63137 
Q 99.265907 170.81632 99.265907 173.023695 
Q 99.265907 175.210386 102.059086 176.404201 
Q 104.852266 177.595061 109.991715 177.595061 
Q 111.392029 177.595061 112.591234 177.527096 
Q 113.790439 177.456177 114.743845 177.308427 
L 114.743845 174.631209 
L 109.269213 174.631209 
L 109.269213 172.246534 
L 123.23511 172.246534 
L 123.23511 178.877526 
z
" clip-path="url(#p3865bdac23)" style="fill: #ffa600"/>
   </g>
   <g id="patch_7">
    <path d="M 158.219436 192.06539 
Q 155.439376 192.15194 152.433227 192.195718 
Q 149.427079 192.24 146.152972 192.24 
Q 136.389269 192.24 130.686798 191.911913 
Q 124.984326 191.583827 124.984326 191.022759 
Q 124.984326 190.459677 130.686798 190.132094 
Q 136.389269 189.804007 146.152972 189.804007 
Q 149.427079 189.804007 152.433227 189.848289 
Q 155.439376 189.892067 158.219436 189.978618 
L 158.219436 190.464206 
Q 155.414255 190.349477 152.692811 190.296137 
Q 149.971367 190.242798 146.965219 190.242798 
Q 141.572573 190.242798 138.482688 190.45062 
Q 135.401176 190.657938 135.401176 191.022759 
Q 135.401176 191.386069 138.482688 191.593891 
Q 141.572573 191.801209 146.965219 191.801209 
Q 149.971367 191.801209 152.692811 191.74787 
Q 155.414255 191.694028 158.219436 191.579298 
L 158.219436 192.06539 
z
" clip-path="url(#p3865bdac23)" style="fill: #0000ff"/>
   </g>
   <g id="patch_8">
    <path d="M 124.984326 183.484186 
L 158.219436 183.484186 
L 158.219436 184.716727 
L 146.262525 184.716727 
L 146.262525 189.804007 
L 136.964424 189.804007 
L 136.964424 184.716727 
L 124.984326 184.716727 
L 124.984326 183.484186 
z
" clip-path="url(#p3865bdac23)" style="fill: #ff0000"/>
   </g>
   <g id="patch_9">
    <path d="M 148.006316 181.925403 
L 135.224627 181.925403 
L 133.206465 183.484186 
L 124.984326 183.484186 
L 136.726356 174.927384 
L 146.477406 174.927384 
L 158.219436 183.484186 
L 150.004092 183.484186 
L 148.006316 181.925403 
z
M 137.263174 180.337278 
L 145.947383 180.337278 
L 141.612074 176.93363 
L 137.263174 180.337278 
z
" clip-path="url(#p3865bdac23)" style="fill: #008000"/>
   </g>
   <g id="patch_10">
    <path d="M 158.219436 171.109193 
Q 154.867621 173.018289 151.262557 173.977195 
Q 147.657494 174.927384 143.814079 174.927384 
Q 135.129153 174.927384 130.05674 169.243684 
Q 124.984326 163.559984 124.984326 153.840159 
Q 124.984326 144.007009 130.146121 138.366896 
Q 135.315365 132.726782 144.305678 132.726782 
Q 147.769221 132.726782 150.942273 133.493907 
Q 154.122773 134.252315 156.938297 135.751696 
L 156.938297 144.163921 
Q 154.033391 142.237391 151.158278 141.287202 
Q 148.283166 140.328295 145.393156 140.328295 
Q 140.045149 140.328295 137.147691 143.832663 
Q 134.250233 147.328313 134.250233 153.840159 
Q 134.250233 160.290985 137.043412 163.812787 
Q 139.836592 167.325871 144.976042 167.325871 
Q 146.376355 167.325871 147.57556 167.125373 
Q 148.774765 166.916157 149.728171 166.48029 
L 149.728171 158.582388 
L 144.253539 158.582388 
L 144.253539 151.547501 
L 158.219436 151.547501 
L 158.219436 171.109193 
z
" clip-path="url(#p3865bdac23)" style="fill: #ffa600"/>
   </g>
   <g id="patch_11">
    <path d="M 193.203762 192.229186 
Q 189.851947 192.234593 186.246883 192.237309 
Q 182.64182 192.24 178.798405 192.24 
Q 170.113479 192.24 165.041066 192.223902 
Q 159.968652 192.207804 159.968652 192.180274 
Q 159.968652 192.152423 165.130447 192.136448 
Q 170.299691 192.120473 179.290004 192.120473 
Q 182.753547 192.120473 185.926599 192.122646 
Q 189.107099 192.124794 191.922624 192.129041 
L 191.922624 192.152867 
Q 189.017717 192.14741 186.142604 192.144719 
Q 183.267492 192.142003 180.377482 192.142003 
Q 175.029475 192.142003 172.132017 192.151929 
Q 169.234559 192.16183 169.234559 192.180274 
Q 169.234559 192.198545 172.027738 192.20852 
Q 174.820918 192.21847 179.960368 192.21847 
Q 181.360681 192.21847 182.559886 192.217902 
Q 183.759091 192.217309 184.712497 192.216075 
L 184.712497 192.193705 
L 179.237865 192.193705 
L 179.237865 192.17378 
L 193.203762 192.17378 
L 193.203762 192.229186 
z
" clip-path="url(#p3865bdac23)" style="fill: #ffa600"/>
   </g>
   <g id="patch_12">
    <path d="M 182.990642 192.098641 
L 170.208953 192.098641 
L 168.190791 192.120473 
L 159.968652 192.120473 
L 171.710682 192.000629 
L 181.461732 192.000629 
L 193.203762 192.120473 
L 184.988418 192.120473 
L 182.990642 192.098641 
z
M 172.2475 192.076398 
L 180.931709 192.076398 
L 176.5964 192.028728 
L 172.2475 192.076398 
z
" clip-path="url(#p3865bdac23)" style="fill: #008000"/>
   </g>
   <g id="patch_13">
    <path d="M 159.968652 191.869266 
L 193.203762 191.869266 
L 193.203762 191.894885 
L 181.246851 191.894885 
L 181.246851 192.000629 
L 171.94875 192.000629 
L 171.94875 191.894885 
L 159.968652 191.894885 
L 159.968652 191.869266 
z
" clip-path="url(#p3865bdac23)" style="fill: #ff0000"/>
   </g>
   <g id="patch_14">
    <path d="M 193.203762 191.858546 
Q 190.423702 191.86386 187.417553 191.866547 
Q 184.411405 191.869266 181.137298 191.869266 
Q 171.373595 191.869266 165.671124 191.849124 
Q 159.968652 191.828981 159.968652 191.794535 
Q 159.968652 191.759965 165.671124 191.739854 
Q 171.373595 191.719711 181.137298 191.719711 
Q 184.411405 191.719711 187.417553 191.72243 
Q 190.423702 191.725117 193.203762 191.730431 
L 193.203762 191.760243 
Q 190.398581 191.753199 187.677137 191.749925 
Q 184.955693 191.74665 181.949545 191.74665 
Q 176.556899 191.74665 173.467014 191.759409 
Q 170.385502 191.772137 170.385502 191.794535 
Q 170.385502 191.81684 173.467014 191.829599 
Q 176.556899 191.842327 181.949545 191.842327 
Q 184.955693 191.842327 187.677137 191.839052 
Q 190.398581 191.835747 193.203762 191.828703 
L 193.203762 191.858546 
z
" clip-path="url(#p3865bdac23)" style="fill: #0000ff"/>
   </g>
   <g id="patch_15">
    <path d="M 194.952978 191.699784 
L 228.188088 191.699784 
L 228.188088 191.805141 
L 216.231177 191.805141 
L 216.231177 192.24 
L 206.933076 192.24 
L 206.933076 191.805141 
L 194.952978 191.805141 
L 194.952978 191.699784 
z
" clip-path="url(#p3865bdac23)" style="fill: #ff0000"/>
   </g>
   <g id="patch_16">
    <path d="M 228.188088 191.482601 
Q 224.836273 191.591192 221.231209 191.645736 
Q 217.626146 191.699784 213.782731 191.699784 
Q 205.097805 191.699784 200.025392 191.376489 
Q 194.952978 191.053194 194.952978 190.50032 
Q 194.952978 189.941001 200.114773 189.620185 
Q 205.284017 189.29937 214.274331 189.29937 
Q 217.737873 189.29937 220.910925 189.343004 
Q 224.091425 189.386143 226.90695 189.47143 
L 226.90695 189.949926 
Q 224.002043 189.840343 221.12693 189.786295 
Q 218.251818 189.731752 215.361808 189.731752 
Q 210.013801 189.731752 207.116343 189.931084 
Q 204.218885 190.12992 204.218885 190.50032 
Q 204.218885 190.86725 207.012064 191.067574 
Q 209.805244 191.267402 214.944694 191.267402 
Q 216.345007 191.267402 217.544212 191.255997 
Q 218.743417 191.244097 219.696823 191.219304 
L 219.696823 190.770063 
L 214.222191 190.770063 
L 214.222191 190.369912 
L 228.188088 190.369912 
L 228.188088 191.482601 
z
" clip-path="url(#p3865bdac23)" style="fill: #ffa600"/>
   </g>
   <g id="patch_17">
    <path d="M 217.974968 185.647998 
L 205.193279 185.647998 
L 203.175117 189.29937 
L 194.952978 189.29937 
L 206.695008 169.255486 
L 216.446058 169.255486 
L 228.188088 189.29937 
L 219.972744 189.29937 
L 217.974968 185.647998 
z
M 207.231826 181.927894 
L 215.916035 181.927894 
L 211.580726 173.955016 
L 207.231826 181.927894 
z
" clip-path="url(#p3865bdac23)" style="fill: #008000"/>
   </g>
   <g id="patch_18">
    <path d="M 228.188088 165.2935 
Q 225.408028 167.257366 222.401879 168.250717 
Q 219.395731 169.255486 216.121624 169.255486 
Q 206.357921 169.255486 200.65545 161.811064 
Q 194.952978 154.366641 194.952978 141.635766 
Q 194.952978 128.859219 200.65545 121.426214 
Q 206.357921 113.981792 216.121624 113.981792 
Q 219.395731 113.981792 222.401879 114.98656 
Q 225.408028 115.979911 228.188088 117.943777 
L 228.188088 128.961979 
Q 225.382907 126.358715 222.661463 125.148425 
Q 219.940019 123.938136 216.933871 123.938136 
Q 211.541225 123.938136 208.45134 128.653698 
Q 205.369828 133.357842 205.369828 141.635766 
Q 205.369828 149.879436 208.45134 154.594998 
Q 211.541225 159.299142 216.933871 159.299142 
Q 219.940019 159.299142 222.661463 158.088852 
Q 225.382907 156.867145 228.188088 154.263881 
L 228.188088 165.2935 
z
" clip-path="url(#p3865bdac23)" style="fill: #0000ff"/>
   </g>
   <g id="patch_19">
    <path d="M 263.172414 191.868001 
Q 260.392354 192.052393 257.386205 192.14566 
Q 254.380057 192.24 251.10595 192.24 
Q 241.342247 192.24 235.639776 191.541029 
Q 229.937304 190.842057 229.937304 189.64673 
Q 229.937304 188.447115 235.639776 187.749216 
Q 241.342247 187.050244 251.10595 187.050244 
Q 254.380057 187.050244 257.386205 187.144584 
Q 260.392354 187.237852 263.172414 187.422243 
L 263.172414 188.456763 
Q 260.367233 188.212338 257.645789 188.098701 
Q 254.924345 187.985065 251.918197 187.985065 
Q 246.525551 187.985065 243.435666 188.427818 
Q 240.354154 188.8695 240.354154 189.64673 
Q 240.354154 190.420745 243.435666 190.863498 
Q 246.525551 191.305179 251.918197 191.305179 
Q 254.924345 191.305179 257.645789 191.191543 
Q 260.367233 191.076834 263.172414 190.832409 
L 263.172414 191.868001 
z
" clip-path="url(#p3865bdac23)" style="fill: #0000ff"/>
   </g>
   <g id="patch_20">
    <path d="M 252.959294 186.082863 
L 240.177605 186.082863 
L 238.159443 187.050244 
L 229.937304 187.050244 
L 241.679334 181.739893 
L 251.430384 181.739893 
L 263.172414 187.050244 
L 254.95707 187.050244 
L 252.959294 186.082863 
z
M 242.216152 185.097273 
L 250.900361 185.097273 
L 246.565052 182.984969 
L 242.216152 185.097273 
z
" clip-path="url(#p3865bdac23)" style="fill: #008000"/>
   </g>
   <g id="patch_21">
    <path d="M 229.937304 175.85783 
L 263.172414 175.85783 
L 263.172414 177.004996 
L 251.215503 177.004996 
L 251.215503 181.739893 
L 241.917402 181.739893 
L 241.917402 177.004996 
L 229.937304 177.004996 
L 229.937304 175.85783 
z
" clip-path="url(#p3865bdac23)" style="fill: #ff0000"/>
   </g>
   <g id="patch_22">
    <path d="M 263.172414 172.033083 
Q 259.820599 173.945456 256.215535 174.906009 
Q 252.610472 175.85783 248.767057 175.85783 
Q 240.082131 175.85783 235.009718 170.164371 
Q 229.937304 164.470912 229.937304 154.7344 
Q 229.937304 144.884367 235.099099 139.23457 
Q 240.268343 133.584773 249.258657 133.584773 
Q 252.722199 133.584773 255.895251 134.353215 
Q 259.075751 135.112925 261.891276 136.61488 
L 261.891276 145.041548 
Q 258.986369 143.11171 256.111256 142.15989 
Q 253.236144 141.199337 250.346134 141.199337 
Q 244.998127 141.199337 242.100669 144.709721 
Q 239.203211 148.211373 239.203211 154.7344 
Q 239.203211 161.196301 241.99639 164.724149 
Q 244.78957 168.243265 249.92902 168.243265 
Q 251.329333 168.243265 252.528538 168.042423 
Q 253.727743 167.832847 254.681149 167.396232 
L 254.681149 159.48477 
L 249.206517 159.48477 
L 249.206517 152.437805 
L 263.172414 152.437805 
L 263.172414 172.033083 
z
" clip-path="url(#p3865bdac23)" style="fill: #ffa600"/>
   </g>
   <g id="patch_23">
    <path d="M 287.94362 192.237157 
L 275.161931 192.237157 
L 273.143769 192.24 
L 264.92163 192.24 
L 276.66366 192.224395 
L 286.41471 192.224395 
L 298.15674 192.24 
L 289.941396 192.24 
L 287.94362 192.237157 
z
M 277.200478 192.234261 
L 285.884687 192.234261 
L 281.549378 192.228053 
L 277.200478 192.234261 
z
" clip-path="url(#p3865bdac23)" style="fill: #008000"/>
   </g>
   <g id="patch_24">
    <path d="M 298.15674 192.222983 
Q 294.804925 192.223689 291.199861 192.224043 
Q 287.594798 192.224395 283.751383 192.224395 
Q 275.066457 192.224395 269.994044 192.222293 
Q 264.92163 192.220191 264.92163 192.216597 
Q 264.92163 192.212961 270.083425 192.210875 
Q 275.252669 192.208789 284.242983 192.208789 
Q 287.706525 192.208789 290.879577 192.209073 
Q 294.060077 192.209353 296.875602 192.209908 
L 296.875602 192.213019 
Q 293.970695 192.212306 291.095582 192.211955 
Q 288.22047 192.2116 285.33046 192.2116 
Q 279.982453 192.2116 277.084995 192.212896 
Q 274.187537 192.214189 274.187537 192.216597 
Q 274.187537 192.218982 276.980716 192.220285 
Q 279.773896 192.221584 284.913346 192.221584 
Q 286.313659 192.221584 287.512864 192.221509 
Q 288.712069 192.221432 289.665475 192.221271 
L 289.665475 192.21835 
L 284.190843 192.21835 
L 284.190843 192.215749 
L 298.15674 192.215749 
L 298.15674 192.222983 
z
" clip-path="url(#p3865bdac23)" style="fill: #ffa600"/>
   </g>
   <g id="patch_25">
    <path d="M 264.92163 192.169942 
L 298.15674 192.169942 
L 298.15674 192.177518 
L 286.199829 192.177518 
L 286.199829 192.208789 
L 276.901728 192.208789 
L 276.901728 192.177518 
L 264.92163 192.177518 
L 264.92163 192.169942 
z
" clip-path="url(#p3865bdac23)" style="fill: #ff0000"/>
   </g>
   <g id="patch_26">
    <path d="M 298.15674 180.275092 
Q 295.37668 186.171098 292.370531 189.15338 
Q 289.364383 192.169942 286.090276 192.169942 
Q 276.326573 192.169942 270.624102 169.819965 
Q 264.92163 147.469988 264.92163 109.248785 
Q 264.92163 70.890466 270.624102 48.574768 
Q 276.326573 26.224791 286.090276 26.224791 
Q 289.364383 26.224791 292.370531 29.241353 
Q 295.37668 32.223635 298.15674 38.119641 
L 298.15674 71.198978 
Q 295.351559 63.383342 292.630115 59.749757 
Q 289.908672 56.116172 286.902523 56.116172 
Q 281.509877 56.116172 278.419992 70.273442 
Q 275.33848 84.396434 275.33848 109.248785 
Q 275.33848 133.998299 278.419992 148.15557 
Q 281.509877 162.278562 286.902523 162.278562 
Q 289.908672 162.278562 292.630115 158.644976 
Q 295.351559 154.977112 298.15674 147.161476 
L 298.15674 180.275092 
z
" clip-path="url(#p3865bdac23)" style="fill: #0000ff"/>
   </g>
   <g id="patch_27">
    <path d="M 299.905956 192.23223 
L 333.141066 192.23223 
L 333.141066 192.233745 
L 321.184155 192.233745 
L 321.184155 192.24 
L 311.886054 192.24 
L 311.886054 192.233745 
L 299.905956 192.233745 
L 299.905956 192.23223 
z
" clip-path="url(#p3865bdac23)" style="fill: #ff0000"/>
   </g>
   <g id="patch_28">
    <path d="M 333.141066 192.214056 
Q 329.789251 192.223143 326.184187 192.227707 
Q 322.579124 192.23223 318.735709 192.23223 
Q 310.050783 192.23223 304.97837 192.205176 
Q 299.905956 192.178122 299.905956 192.131857 
Q 299.905956 192.085053 305.067752 192.058207 
Q 310.236995 192.031361 319.227309 192.031361 
Q 322.690851 192.031361 325.863903 192.035012 
Q 329.044403 192.038622 331.859928 192.045759 
L 331.859928 192.0858 
Q 328.955021 192.07663 326.079908 192.072107 
Q 323.204796 192.067543 320.314786 192.067543 
Q 314.966779 192.067543 312.069321 192.084223 
Q 309.171863 192.100862 309.171863 192.131857 
Q 309.171863 192.162562 311.965042 192.179326 
Q 314.758222 192.196048 319.897672 192.196048 
Q 321.297985 192.196048 322.49719 192.195093 
Q 323.696395 192.194097 324.649801 192.192023 
L 324.649801 192.15443 
L 319.175169 192.15443 
L 319.175169 192.120945 
L 333.141066 192.120945 
L 333.141066 192.214056 
z
" clip-path="url(#p3865bdac23)" style="fill: #ffa600"/>
   </g>
   <g id="patch_29">
    <path d="M 322.927946 161.952394 
L 310.146257 161.952394 
L 308.128095 192.031361 
L 299.905956 192.031361 
L 311.647986 26.915528 
L 321.399036 26.915528 
L 333.141066 192.031361 
L 324.925722 192.031361 
L 322.927946 161.952394 
z
M 312.184804 131.307235 
L 320.869013 131.307235 
L 316.533704 65.628928 
L 312.184804 131.307235 
z
" clip-path="url(#p3865bdac23)" style="fill: #008000"/>
   </g>
   <g id="patch_30">
    <path d="M 357.912272 192.235147 
L 345.130583 192.235147 
L 343.112421 192.24 
L 334.890282 192.24 
L 346.632312 192.213357 
L 356.383362 192.213357 
L 368.125392 192.24 
L 359.910048 192.24 
L 357.912272 192.235147 
z
M 347.16913 192.230202 
L 355.853339 192.230202 
L 351.51803 192.219604 
L 347.16913 192.230202 
z
" clip-path="url(#p3865bdac23)" style="fill: #008000"/>
   </g>
   <g id="patch_31">
    <path d="M 334.890282 187.531664 
L 368.125392 187.531664 
L 368.125392 188.444725 
L 356.168481 188.444725 
L 356.168481 192.213357 
L 346.87038 192.213357 
L 346.87038 188.444725 
L 334.890282 188.444725 
L 334.890282 187.531664 
z
" clip-path="url(#p3865bdac23)" style="fill: #ff0000"/>
   </g>
   <g id="patch_32">
    <path d="M 368.125392 186.748752 
Q 365.345332 187.136824 362.339184 187.333116 
Q 359.333035 187.531664 356.058928 187.531664 
Q 346.295225 187.531664 340.592754 186.060602 
Q 334.890282 184.58954 334.890282 182.073843 
Q 334.890282 179.549121 340.592754 178.080315 
Q 346.295225 176.609253 356.058928 176.609253 
Q 359.333035 176.609253 362.339184 176.807801 
Q 365.345332 177.004093 368.125392 177.392165 
L 368.125392 179.569427 
Q 365.320211 179.055006 362.598767 178.815846 
Q 359.877324 178.576686 356.871175 178.576686 
Q 351.478529 178.576686 348.388644 179.508509 
Q 345.307132 180.438076 345.307132 182.073843 
Q 345.307132 183.702841 348.388644 184.634664 
Q 351.478529 185.564231 356.871175 185.564231 
Q 359.877324 185.564231 362.598767 185.325071 
Q 365.320211 185.083654 368.125392 184.569234 
L 368.125392 186.748752 
z
" clip-path="url(#p3865bdac23)" style="fill: #0000ff"/>
   </g>
   <g id="patch_33">
    <path d="M 368.125392 168.533039 
Q 364.773577 172.571146 361.168513 174.599419 
Q 357.56345 176.609253 353.720035 176.609253 
Q 345.035109 176.609253 339.962696 164.587127 
Q 334.890282 152.565001 334.890282 132.005691 
Q 334.890282 111.206677 340.052078 99.276745 
Q 345.221321 87.346814 354.211635 87.346814 
Q 357.675177 87.346814 360.848229 88.969432 
Q 364.028729 90.573611 366.844254 93.745092 
L 366.844254 111.538576 
Q 363.939347 107.463591 361.064235 105.453758 
Q 358.189122 103.425485 355.299112 103.425485 
Q 349.951105 103.425485 347.053647 110.8379 
Q 344.156189 118.231876 344.156189 132.005691 
Q 344.156189 145.650435 346.949368 153.099728 
Q 349.742548 160.530582 354.881998 160.530582 
Q 356.282312 160.530582 357.481517 160.106488 
Q 358.680721 159.663956 359.634127 158.742014 
L 359.634127 142.036422 
L 354.159495 142.036422 
L 354.159495 127.156276 
L 368.125392 127.156276 
L 368.125392 168.533039 
z
" clip-path="url(#p3865bdac23)" style="fill: #ffa600"/>
   </g>
   <g id="patch_34">
    <path d="M 392.896598 191.76212 
L 380.114909 191.76212 
L 378.096747 192.24 
L 369.874608 192.24 
L 381.616638 189.61672 
L 391.367688 189.61672 
L 403.109718 192.24 
L 394.894374 192.24 
L 392.896598 191.76212 
z
M 382.153456 191.275245 
L 390.837665 191.275245 
L 386.502356 190.23178 
L 382.153456 191.275245 
z
" clip-path="url(#p3865bdac23)" style="fill: #008000"/>
   </g>
   <g id="patch_35">
    <path d="M 403.109718 188.592296 
Q 399.757903 189.104508 396.152839 189.361783 
Q 392.547776 189.61672 388.704361 189.61672 
Q 380.019435 189.61672 374.947022 188.091778 
Q 369.874608 186.566837 369.874608 183.958999 
Q 369.874608 181.320756 375.036404 179.807509 
Q 380.205647 178.294262 389.195961 178.294262 
Q 392.659503 178.294262 395.832555 178.500082 
Q 399.013055 178.703564 401.82858 179.105849 
L 401.82858 181.362856 
Q 398.923673 180.845966 396.048561 180.59103 
Q 393.173448 180.333754 390.283438 180.333754 
Q 384.935431 180.333754 382.037973 181.273979 
Q 379.140515 182.211865 379.140515 183.958999 
Q 379.140515 185.689761 381.933694 186.634664 
Q 384.726874 187.577227 389.866324 187.577227 
Q 391.266638 187.577227 392.465843 187.523433 
Q 393.665048 187.467301 394.618453 187.350357 
L 394.618453 185.231343 
L 389.143821 185.231343 
L 389.143821 183.343877 
L 403.109718 183.343877 
L 403.109718 188.592296 
z
" clip-path="url(#p3865bdac23)" style="fill: #ffa600"/>
   </g>
   <g id="patch_36">
    <path d="M 403.109718 171.035129 
Q 400.329658 174.633316 397.32351 176.453329 
Q 394.317361 178.294262 391.043255 178.294262 
Q 381.279551 178.294262 375.57708 164.654623 
Q 369.874608 151.014983 369.874608 127.689527 
Q 369.874608 104.280392 375.57708 90.661672 
Q 381.279551 77.022033 391.043255 77.022033 
Q 394.317361 77.022033 397.32351 78.862966 
Q 400.329658 80.682979 403.109718 84.281166 
L 403.109718 104.468669 
Q 400.304537 99.698979 397.583093 97.481492 
Q 394.86165 95.264005 391.855501 95.264005 
Q 386.462855 95.264005 383.37297 103.903837 
Q 380.291458 112.52275 380.291458 127.689527 
Q 380.291458 142.793545 383.37297 151.433377 
Q 386.462855 160.05229 391.855501 160.05229 
Q 394.86165 160.05229 397.583093 157.834803 
Q 400.304537 155.596396 403.109718 150.826706 
L 403.109718 171.035129 
z
" clip-path="url(#p3865bdac23)" style="fill: #0000ff"/>
   </g>
   <g id="patch_37">
    <path d="M 438.094044 192.237901 
Q 434.742229 192.238951 431.137165 192.239478 
Q 427.532102 192.24 423.688687 192.24 
Q 415.003761 192.24 409.931348 192.236876 
Q 404.858934 192.233751 404.858934 192.228409 
Q 404.858934 192.223003 410.02073 192.219903 
Q 415.189973 192.216803 424.180287 192.216803 
Q 427.643829 192.216803 430.816881 192.217225 
Q 433.997381 192.217641 436.812906 192.218466 
L 436.812906 192.22309 
Q 433.907999 192.222031 431.032887 192.221508 
Q 428.157774 192.220981 425.267764 192.220981 
Q 419.919757 192.220981 417.022299 192.222908 
Q 414.124841 192.224829 414.124841 192.228409 
Q 414.124841 192.231955 416.91802 192.23389 
Q 419.7112 192.235822 424.85065 192.235822 
Q 426.250964 192.235822 427.450169 192.235711 
Q 428.649374 192.235596 429.602779 192.235357 
L 429.602779 192.231015 
L 424.128147 192.231015 
L 424.128147 192.227148 
L 438.094044 192.227148 
L 438.094044 192.237901 
z
" clip-path="url(#p3865bdac23)" style="fill: #ffa600"/>
   </g>
   <g id="patch_38">
    <path d="M 438.094044 192.209023 
Q 435.313984 192.21288 432.307836 192.21483 
Q 429.301687 192.216803 426.027581 192.216803 
Q 416.263877 192.216803 410.561406 192.202186 
Q 404.858934 192.187569 404.858934 192.162572 
Q 404.858934 192.137485 410.561406 192.12289 
Q 416.263877 192.108273 426.027581 192.108273 
Q 429.301687 192.108273 432.307836 192.110246 
Q 435.313984 192.112197 438.094044 192.116053 
L 438.094044 192.137687 
Q 435.288863 192.132575 432.567419 192.130199 
Q 429.845976 192.127822 426.839827 192.127822 
Q 421.447181 192.127822 418.357296 192.137081 
Q 415.275784 192.146318 415.275784 192.162572 
Q 415.275784 192.178758 418.357296 192.188017 
Q 421.447181 192.197254 426.839827 192.197254 
Q 429.845976 192.197254 432.567419 192.194877 
Q 435.288863 192.192478 438.094044 192.187367 
L 438.094044 192.209023 
z
" clip-path="url(#p3865bdac23)" style="fill: #0000ff"/>
   </g>
   <g id="patch_39">
    <path d="M 404.858934 26.545927 
L 438.094044 26.545927 
L 438.094044 58.835197 
L 426.137133 58.835197 
L 426.137133 192.108273 
L 416.839032 192.108273 
L 416.839032 58.835197 
L 404.858934 58.835197 
L 404.858934 26.545927 
z
" clip-path="url(#p3865bdac23)" style="fill: #ff0000"/>
   </g>
   <g id="patch_40">
    <path d="M 473.07837 192.238879 
Q 470.29831 192.239435 467.292162 192.239716 
Q 464.286013 192.24 461.011907 192.24 
Q 451.248203 192.24 445.545732 192.237894 
Q 439.84326 192.235789 439.84326 192.232188 
Q 439.84326 192.228574 445.545732 192.226472 
Q 451.248203 192.224366 461.011907 192.224366 
Q 464.286013 192.224366 467.292162 192.22465 
Q 470.29831 192.224931 473.07837 192.225487 
L 473.07837 192.228603 
Q 470.273189 192.227867 467.551745 192.227524 
Q 464.830302 192.227182 461.824153 192.227182 
Q 456.431507 192.227182 453.341622 192.228516 
Q 450.26011 192.229846 450.26011 192.232188 
Q 450.26011 192.23452 453.341622 192.235853 
Q 456.431507 192.237184 461.824153 192.237184 
Q 464.830302 192.237184 467.551745 192.236842 
Q 470.273189 192.236496 473.07837 192.23576 
L 473.07837 192.238879 
z
" clip-path="url(#p3865bdac23)" style="fill: #0000ff"/>
   </g>
   <g id="patch_41">
    <path d="M 473.07837 177.177617 
Q 469.726555 184.700991 466.121491 188.479855 
Q 462.516428 192.224366 458.673013 192.224366 
Q 449.988087 192.224366 444.915674 169.826009 
Q 439.84326 147.427652 439.84326 109.123713 
Q 439.84326 70.373181 445.005056 48.146591 
Q 450.174299 25.92 459.164613 25.92 
Q 462.628155 25.92 465.801207 28.943091 
Q 468.981707 31.931829 471.797232 37.840598 
L 471.797232 70.991541 
Q 468.892325 63.399459 466.017213 59.654949 
Q 463.1421 55.876085 460.25209 55.876085 
Q 454.904083 55.876085 452.006625 69.686115 
Q 449.109167 83.461792 449.109167 109.123713 
Q 449.109167 134.545161 451.902346 148.423898 
Q 454.695526 162.268281 459.834976 162.268281 
Q 461.23529 162.268281 462.434495 161.478155 
Q 463.6337 160.653676 464.587105 158.93601 
L 464.587105 127.811913 
L 459.112473 127.811913 
L 459.112473 100.088793 
L 473.07837 100.088793 
L 473.07837 177.177617 
z
" clip-path="url(#p3865bdac23)" style="fill: #ffa600"/>
   </g>
   <g id="patch_42">
    <path d="M 508.062696 192.111685 
Q 504.710881 192.175843 501.105817 192.208068 
Q 497.500754 192.24 493.657339 192.24 
Q 484.972414 192.24 479.9 192.048993 
Q 474.827586 191.857985 474.827586 191.53134 
Q 474.827586 191.200885 479.989382 191.011343 
Q 485.158625 190.8218 494.148939 190.8218 
Q 497.612481 190.8218 500.785533 190.84758 
Q 503.966033 190.873068 506.781558 190.923456 
L 506.781558 191.206158 
Q 503.876651 191.141415 501.001539 191.109483 
Q 498.126426 191.077258 495.236416 191.077258 
Q 489.888409 191.077258 486.990951 191.195026 
Q 484.093493 191.312501 484.093493 191.53134 
Q 484.093493 191.748127 486.886672 191.866481 
Q 489.679852 191.984542 494.819302 191.984542 
Q 496.219616 191.984542 497.418821 191.977804 
Q 498.618026 191.970773 499.571431 191.956126 
L 499.571431 191.690708 
L 494.096799 191.690708 
L 494.096799 191.454292 
L 508.062696 191.454292 
L 508.062696 192.111685 
z
" clip-path="url(#p3865bdac23)" style="fill: #ffa600"/>
   </g>
   <g id="patch_43">
    <path d="M 497.849576 190.170767 
L 485.067887 190.170767 
L 483.049725 190.8218 
L 474.827586 190.8218 
L 486.569616 187.248012 
L 496.320666 187.248012 
L 508.062696 190.8218 
L 499.847352 190.8218 
L 497.849576 190.170767 
z
M 487.106434 189.50748 
L 495.790644 189.50748 
L 491.455334 188.08593 
L 487.106434 189.50748 
z
" clip-path="url(#p3865bdac23)" style="fill: #008000"/>
   </g>
   <g id="patch_44">
    <path d="M 474.827586 180.904989 
L 508.062696 180.904989 
L 508.062696 182.142055 
L 496.105786 182.142055 
L 496.105786 187.248012 
L 486.807684 187.248012 
L 486.807684 182.142055 
L 474.827586 182.142055 
L 474.827586 180.904989 
z
" clip-path="url(#p3865bdac23)" style="fill: #ff0000"/>
   </g>
   <g id="patch_45">
    <path d="M 508.062696 173.286206 
Q 505.282636 177.062663 502.276488 178.972848 
Q 499.270339 180.904989 495.996233 180.904989 
Q 486.232529 180.904989 480.530058 166.589582 
Q 474.827586 152.274176 474.827586 127.793074 
Q 474.827586 103.224148 480.530058 88.930697 
Q 486.232529 74.615291 495.996233 74.615291 
Q 499.270339 74.615291 502.276488 76.547432 
Q 505.282636 78.457616 508.062696 82.234073 
L 508.062696 103.421753 
Q 505.257515 98.415752 502.536071 96.088401 
Q 499.814628 93.761049 496.808479 93.761049 
Q 491.415833 93.761049 488.325948 102.828937 
Q 485.244436 111.874869 485.244436 127.793074 
Q 485.244436 143.645411 488.325948 152.713299 
Q 491.415833 161.75923 496.808479 161.75923 
Q 499.814628 161.75923 502.536071 159.431879 
Q 505.257515 157.082571 508.062696 152.07657 
L 508.062696 173.286206 
z
" clip-path="url(#p3865bdac23)" style="fill: #0000ff"/>
   </g>
   <g id="patch_46">
    <path d="M 543.047022 192.149831 
Q 540.266962 192.194526 537.260814 192.217133 
Q 534.254665 192.24 530.980559 192.24 
Q 521.216855 192.24 515.514384 192.070575 
Q 509.811912 191.901151 509.811912 191.611414 
Q 509.811912 191.320637 515.514384 191.151472 
Q 521.216855 190.982048 530.980559 190.982048 
Q 534.254665 190.982048 537.260814 191.004915 
Q 540.266962 191.027522 543.047022 191.072217 
L 543.047022 191.322976 
Q 540.241841 191.263729 537.520398 191.236185 
Q 534.798954 191.20864 531.792805 191.20864 
Q 526.400159 191.20864 523.310274 191.31596 
Q 520.228762 191.42302 520.228762 191.611414 
Q 520.228762 191.799028 523.310274 191.906348 
Q 526.400159 192.013407 531.792805 192.013407 
Q 534.798954 192.013407 537.520398 191.985863 
Q 540.241841 191.958059 543.047022 191.898812 
L 543.047022 192.149831 
z
" clip-path="url(#p3865bdac23)" style="fill: #0000ff"/>
   </g>
   <g id="patch_47">
    <path d="M 532.833902 190.746151 
L 520.052213 190.746151 
L 518.034051 190.982048 
L 509.811912 190.982048 
L 521.553942 189.687113 
L 531.304992 189.687113 
L 543.047022 190.982048 
L 534.831678 190.982048 
L 532.833902 190.746151 
z
M 522.09076 190.505813 
L 530.77497 190.505813 
L 526.43966 189.990726 
L 522.09076 190.505813 
z
" clip-path="url(#p3865bdac23)" style="fill: #008000"/>
   </g>
   <g id="patch_48">
    <path d="M 509.811912 185.124067 
L 543.047022 185.124067 
L 543.047022 186.013988 
L 531.090112 186.013988 
L 531.090112 189.687113 
L 521.79201 189.687113 
L 521.79201 186.013988 
L 509.811912 186.013988 
L 509.811912 185.124067 
z
" clip-path="url(#p3865bdac23)" style="fill: #ff0000"/>
   </g>
   <g id="patch_49">
    <path d="M 543.047022 173.420752 
Q 539.695207 179.272409 536.090143 182.211598 
Q 532.48508 185.124067 528.641665 185.124067 
Q 519.95674 185.124067 514.884326 167.702694 
Q 509.811912 150.281321 509.811912 120.488635 
Q 509.811912 90.34859 514.973708 73.060817 
Q 520.142951 55.773043 529.133265 55.773043 
Q 532.596807 55.773043 535.769859 58.124394 
Q 538.950359 60.449025 541.765884 65.044847 
L 541.765884 90.829549 
Q 538.860977 84.924451 535.985865 82.011982 
Q 533.110752 79.072794 530.220742 79.072794 
Q 524.872735 79.072794 521.975277 89.814192 
Q 519.077819 100.528871 519.077819 120.488635 
Q 519.077819 140.261359 521.870998 151.056198 
Q 524.664178 161.824316 529.803628 161.824316 
Q 531.203942 161.824316 532.403147 161.209759 
Q 533.602352 160.568481 534.555757 159.232486 
L 534.555757 135.024259 
L 529.081125 135.024259 
L 529.081125 113.461302 
L 543.047022 113.461302 
L 543.047022 173.420752 
z
" clip-path="url(#p3865bdac23)" style="fill: #ffa600"/>
   </g>
   <g id="patch_50">
    <path d="M 567.818228 191.821417 
L 555.036539 191.821417 
L 553.018377 192.24 
L 544.796238 192.24 
L 556.538268 189.942224 
L 566.289318 189.942224 
L 578.031348 192.24 
L 569.816004 192.24 
L 567.818228 191.821417 
z
M 557.075086 191.394954 
L 565.759296 191.394954 
L 561.423986 190.480965 
L 557.075086 191.394954 
z
" clip-path="url(#p3865bdac23)" style="fill: #008000"/>
   </g>
   <g id="patch_51">
    <path d="M 578.031348 189.675332 
Q 574.679533 189.808778 571.074469 189.875806 
Q 567.469406 189.942224 563.625991 189.942224 
Q 554.941066 189.942224 549.868652 189.544932 
Q 544.796238 189.14764 544.796238 188.468223 
Q 544.796238 187.780884 549.958034 187.386639 
Q 555.127278 186.992394 564.117591 186.992394 
Q 567.581133 186.992394 570.754185 187.046016 
Q 573.934685 187.099029 576.75021 187.203836 
L 576.75021 187.791852 
Q 573.845303 187.657187 570.970191 187.590769 
Q 568.095078 187.523741 565.205069 187.523741 
Q 559.857061 187.523741 556.959603 187.768697 
Q 554.062145 188.013043 554.062145 188.468223 
Q 554.062145 188.919137 556.855324 189.165311 
Q 559.648504 189.410877 564.787954 189.410877 
Q 566.188268 189.410877 567.387473 189.396862 
Q 568.586678 189.382238 569.540083 189.35177 
L 569.540083 188.799705 
L 564.065451 188.799705 
L 564.065451 188.307966 
L 578.031348 188.307966 
L 578.031348 189.675332 
z
" clip-path="url(#p3865bdac23)" style="fill: #ffa600"/>
   </g>
   <g id="patch_52">
    <path d="M 578.031348 185.989846 
Q 575.251288 186.486786 572.24514 186.738145 
Q 569.238991 186.992394 565.964885 186.992394 
Q 556.201181 186.992394 550.49871 185.108645 
Q 544.796238 183.224897 544.796238 180.003455 
Q 544.796238 176.770458 550.49871 174.889598 
Q 556.201181 173.00585 565.964885 173.00585 
Q 569.238991 173.00585 572.24514 173.260098 
Q 575.251288 173.511457 578.031348 174.008397 
L 578.031348 176.79646 
Q 575.226167 176.137726 572.504724 175.831472 
Q 569.78328 175.525219 566.777131 175.525219 
Q 561.384485 175.525219 558.2946 176.718452 
Q 555.213088 177.908796 555.213088 180.003455 
Q 555.213088 182.089447 558.2946 183.28268 
Q 561.384485 184.473024 566.777131 184.473024 
Q 569.78328 184.473024 572.504724 184.166771 
Q 575.226167 183.857628 578.031348 183.198894 
L 578.031348 185.989846 
z
" clip-path="url(#p3865bdac23)" style="fill: #0000ff"/>
   </g>
   <g id="patch_53">
    <path d="M 544.796238 146.800715 
L 578.031348 146.800715 
L 578.031348 151.911447 
L 566.074438 151.911447 
L 566.074438 173.00585 
L 556.776336 173.00585 
L 556.776336 151.911447 
L 544.796238 151.911447 
L 544.796238 146.800715 
z
" clip-path="url(#p3865bdac23)" style="fill: #ff0000"/>
   </g>
   <g id="patch_54">
    <path d="M 613.015674 191.993915 
Q 609.663859 192.116957 606.058795 192.17876 
Q 602.453732 192.24 598.610317 192.24 
Q 589.925392 192.24 584.852978 191.873681 
Q 579.780564 191.507363 579.780564 190.880913 
Q 579.780564 190.247159 584.94236 189.883649 
Q 590.111604 189.52014 599.101917 189.52014 
Q 602.565459 189.52014 605.738511 189.569581 
Q 608.919011 189.618461 611.734536 189.715098 
L 611.734536 190.257272 
Q 608.829629 190.133105 605.954517 190.071865 
Q 603.079404 190.010063 600.189395 190.010063 
Q 594.841387 190.010063 591.943929 190.235922 
Q 589.046471 190.461219 589.046471 190.880913 
Q 589.046471 191.296673 591.83965 191.523656 
Q 594.63283 191.750077 599.77228 191.750077 
Q 601.172594 191.750077 602.371799 191.737155 
Q 603.571004 191.72367 604.524409 191.695578 
L 604.524409 191.186553 
L 599.049777 191.186553 
L 599.049777 190.733149 
L 613.015674 190.733149 
L 613.015674 191.993915 
z
" clip-path="url(#p3865bdac23)" style="fill: #ffa600"/>
   </g>
   <g id="patch_55">
    <path d="M 579.780564 183.696441 
L 613.015674 183.696441 
L 613.015674 184.832224 
L 601.058764 184.832224 
L 601.058764 189.52014 
L 591.760662 189.52014 
L 591.760662 184.832224 
L 579.780564 184.832224 
L 579.780564 183.696441 
z
" clip-path="url(#p3865bdac23)" style="fill: #ff0000"/>
   </g>
   <g id="patch_56">
    <path d="M 602.802554 182.119123 
L 590.020865 182.119123 
L 588.002703 183.696441 
L 579.780564 183.696441 
L 591.522594 175.037896 
L 601.273644 175.037896 
L 613.015674 183.696441 
L 604.80033 183.696441 
L 602.802554 182.119123 
z
M 592.059412 180.512115 
L 600.743622 180.512115 
L 596.408312 177.067996 
L 592.059412 180.512115 
z
" clip-path="url(#p3865bdac23)" style="fill: #008000"/>
   </g>
   <g id="patch_57">
    <path d="M 613.015674 172.01365 
Q 610.235614 173.5127 607.229466 174.27094 
Q 604.223317 175.037896 600.949211 175.037896 
Q 591.185507 175.037896 585.483036 169.355452 
Q 579.780564 163.673008 579.780564 153.955332 
Q 579.780564 144.202794 585.483036 138.529065 
Q 591.185507 132.846622 600.949211 132.846622 
Q 604.223317 132.846622 607.229466 133.613577 
Q 610.235614 134.371817 613.015674 135.870867 
L 613.015674 144.281233 
Q 610.210493 142.29412 607.48905 141.370287 
Q 604.767606 140.446454 601.761457 140.446454 
Q 596.368811 140.446454 593.278926 144.045917 
Q 590.197414 147.636663 590.197414 153.955332 
Q 590.197414 160.247854 593.278926 163.847316 
Q 596.368811 167.438063 601.761457 167.438063 
Q 604.767606 167.438063 607.48905 166.51423 
Q 610.210493 165.581682 613.015674 163.594569 
L 613.015674 172.01365 
z
" clip-path="url(#p3865bdac23)" style="fill: #0000ff"/>
   </g>
   <g id="patch_58">
    <path d="M 648 192.05952 
Q 644.648185 192.14976 641.043121 192.195086 
Q 637.438058 192.24 633.594643 192.24 
Q 624.909718 192.24 619.837304 191.97134 
Q 614.76489 191.70268 614.76489 191.243238 
Q 614.76489 190.77844 619.926686 190.51184 
Q 625.09593 190.24524 634.086243 190.24524 
Q 637.549785 190.24524 640.722837 190.281501 
Q 643.903337 190.31735 646.718862 190.388223 
L 646.718862 190.785857 
Q 643.813955 190.694792 640.938843 190.649878 
Q 638.06373 190.604552 635.173721 190.604552 
Q 629.825713 190.604552 626.928255 190.770198 
Q 624.030797 190.935433 624.030797 191.243238 
Q 624.030797 191.548159 626.823976 191.714629 
Q 629.617156 191.880688 634.756606 191.880688 
Q 636.15692 191.880688 637.356125 191.87121 
Q 638.55533 191.861321 639.508735 191.840718 
L 639.508735 191.467396 
L 634.034103 191.467396 
L 634.034103 191.134867 
L 648 191.134867 
L 648 192.05952 
z
" clip-path="url(#p3865bdac23)" style="fill: #ffa600"/>
   </g>
   <g id="patch_59">
    <path d="M 614.76489 186.038393 
L 648 186.038393 
L 648 186.858845 
L 636.04309 186.858845 
L 636.04309 190.24524 
L 626.744988 190.24524 
L 626.744988 186.858845 
L 614.76489 186.858845 
L 614.76489 186.038393 
z
" clip-path="url(#p3865bdac23)" style="fill: #ff0000"/>
   </g>
   <g id="patch_60">
    <path d="M 637.78688 184.567359 
L 625.005191 184.567359 
L 622.987029 186.038393 
L 614.76489 186.038393 
L 626.50692 177.963281 
L 636.25797 177.963281 
L 648 186.038393 
L 639.784656 186.038393 
L 637.78688 184.567359 
z
M 627.043738 183.068635 
L 635.727948 183.068635 
L 631.392638 179.856588 
L 627.043738 183.068635 
z
" clip-path="url(#p3865bdac23)" style="fill: #008000"/>
   </g>
   <g id="patch_61">
    <path d="M 648 176.744246 
Q 645.21994 177.348494 642.213792 177.654131 
Q 639.207643 177.963281 635.933537 177.963281 
Q 626.169833 177.963281 620.467362 175.67276 
Q 614.76489 173.382239 614.76489 169.465167 
Q 614.76489 165.534043 620.467362 163.247036 
Q 626.169833 160.956515 635.933537 160.956515 
Q 639.207643 160.956515 642.213792 161.265665 
Q 645.21994 161.571302 648 162.17555 
L 648 165.565661 
Q 645.194819 164.764681 642.473376 164.392296 
Q 639.751932 164.019911 636.745783 164.019911 
Q 631.353137 164.019911 628.263252 165.470808 
Q 625.18174 166.918193 625.18174 169.465167 
Q 625.18174 172.001603 628.263252 173.452501 
Q 631.353137 174.899885 636.745783 174.899885 
Q 639.751932 174.899885 642.473376 174.5275 
Q 645.194819 174.151601 648 173.350622 
L 648 176.744246 
z
" clip-path="url(#p3865bdac23)" style="fill: #0000ff"/>
   </g>
   <g id="matplotlib.axis_1">
    <g id="xtick_1">
     <g id="line2d_2">
      <defs>
       <path id="mdb3cfea778" d="M 0 0 
L 0 3.5 
" style="stroke: #000000; stroke-width: 0.8"/>
      </defs>
      <g>
       <use xlink:href="#mdb3cfea778" x="106.617555" y="192.24" style="stroke: #000000; stroke-width: 0.8"/>
      </g>
     </g>
     <g id="text_1">
      <!-- 0 -->
      <g transform="translate(103.436305 206.838437) scale(0.1 -0.1)">
       <defs>
        <path id="DejaVuSans-30" d="M 2034 4250 
Q 1547 4250 1301 3770 
Q 1056 3291 1056 2328 
Q 1056 1369 1301 889 
Q 1547 409 2034 409 
Q 2525 409 2770 889 
Q 3016 1369 3016 2328 
Q 3016 3291 2770 3770 
Q 2525 4250 2034 4250 
z
M 2034 4750 
Q 2819 4750 3233 4129 
Q 3647 3509 3647 2328 
Q 3647 1150 3233 529 
Q 2819 -91 2034 -91 
Q 1250 -91 836 529 
Q 422 1150 422 2328 
Q 422 3509 836 4129 
Q 1250 4750 2034 4750 
z
" transform="scale(0.015625)"/>
       </defs>
       <use xlink:href="#DejaVuSans-30"/>
      </g>
     </g>
    </g>
    <g id="xtick_2">
     <g id="line2d_3">
      <g>
       <use xlink:href="#mdb3cfea778" x="176.586207" y="192.24" style="stroke: #000000; stroke-width: 0.8"/>
      </g>
     </g>
     <g id="text_2">
      <!-- 2 -->
      <g transform="translate(173.404957 206.838437) scale(0.1 -0.1)">
       <defs>
        <path id="DejaVuSans-32" d="M 1228 531 
L 3431 531 
L 3431 0 
L 469 0 
L 469 531 
Q 828 903 1448 1529 
Q 2069 2156 2228 2338 
Q 2531 2678 2651 2914 
Q 2772 3150 2772 3378 
Q 2772 3750 2511 3984 
Q 2250 4219 1831 4219 
Q 1534 4219 1204 4116 
Q 875 4013 500 3803 
L 500 4441 
Q 881 4594 1212 4672 
Q 1544 4750 1819 4750 
Q 2544 4750 2975 4387 
Q 3406 4025 3406 3419 
Q 3406 3131 3298 2873 
Q 3191 2616 2906 2266 
Q 2828 2175 2409 1742 
Q 1991 1309 1228 531 
z
" transform="scale(0.015625)"/>
       </defs>
       <use xlink:href="#DejaVuSans-32"/>
      </g>
     </g>
    </g>
    <g id="xtick_3">
     <g id="line2d_4">
      <g>
       <use xlink:href="#mdb3cfea778" x="246.554859" y="192.24" style="stroke: #000000; stroke-width: 0.8"/>
      </g>
     </g>
     <g id="text_3">
      <!-- 4 -->
      <g transform="translate(243.373609 206.838437) scale(0.1 -0.1)">
       <defs>
        <path id="DejaVuSans-34" d="M 2419 4116 
L 825 1625 
L 2419 1625 
L 2419 4116 
z
M 2253 4666 
L 3047 4666 
L 3047 1625 
L 3713 1625 
L 3713 1100 
L 3047 1100 
L 3047 0 
L 2419 0 
L 2419 1100 
L 313 1100 
L 313 1709 
L 2253 4666 
z
" transform="scale(0.015625)"/>
       </defs>
       <use xlink:href="#DejaVuSans-34"/>
      </g>
     </g>
    </g>
    <g id="xtick_4">
     <g id="line2d_5">
      <g>
       <use xlink:href="#mdb3cfea778" x="316.523511" y="192.24" style="stroke: #000000; stroke-width: 0.8"/>
      </g>
     </g>
     <g id="text_4">
      <!-- 6 -->
      <g transform="translate(313.342261 206.838437) scale(0.1 -0.1)">
       <defs>
        <path id="DejaVuSans-36" d="M 2113 2584 
Q 1688 2584 1439 2293 
Q 1191 2003 1191 1497 
Q 1191 994 1439 701 
Q 1688 409 2113 409 
Q 2538 409 2786 701 
Q 3034 994 3034 1497 
Q 3034 2003 2786 2293 
Q 2538 2584 2113 2584 
z
M 3366 4563 
L 3366 3988 
Q 3128 4100 2886 4159 
Q 2644 4219 2406 4219 
Q 1781 4219 1451 3797 
Q 1122 3375 1075 2522 
Q 1259 2794 1537 2939 
Q 1816 3084 2150 3084 
Q 2853 3084 3261 2657 
Q 3669 2231 3669 1497 
Q 3669 778 3244 343 
Q 2819 -91 2113 -91 
Q 1303 -91 875 529 
Q 447 1150 447 2328 
Q 447 3434 972 4092 
Q 1497 4750 2381 4750 
Q 2619 4750 2861 4703 
Q 3103 4656 3366 4563 
z
" transform="scale(0.015625)"/>
       </defs>
       <use xlink:href="#DejaVuSans-36"/>
      </g>
     </g>
    </g>
    <g id="xtick_5">
     <g id="line2d_6">
      <g>
       <use xlink:href="#mdb3cfea778" x="386.492163" y="192.24" style="stroke: #000000; stroke-width: 0.8"/>
      </g>
     </g>
     <g id="text_5">
      <!-- 8 -->
      <g transform="translate(383.310913 206.838437) scale(0.1 -0.1)">
       <defs>
        <path id="DejaVuSans-38" d="M 2034 2216 
Q 1584 2216 1326 1975 
Q 1069 1734 1069 1313 
Q 1069 891 1326 650 
Q 1584 409 2034 409 
Q 2484 409 2743 651 
Q 3003 894 3003 1313 
Q 3003 1734 2745 1975 
Q 2488 2216 2034 2216 
z
M 1403 2484 
Q 997 2584 770 2862 
Q 544 3141 544 3541 
Q 544 4100 942 4425 
Q 1341 4750 2034 4750 
Q 2731 4750 3128 4425 
Q 3525 4100 3525 3541 
Q 3525 3141 3298 2862 
Q 3072 2584 2669 2484 
Q 3125 2378 3379 2068 
Q 3634 1759 3634 1313 
Q 3634 634 3220 271 
Q 2806 -91 2034 -91 
Q 1263 -91 848 271 
Q 434 634 434 1313 
Q 434 1759 690 2068 
Q 947 2378 1403 2484 
z
M 1172 3481 
Q 1172 3119 1398 2916 
Q 1625 2713 2034 2713 
Q 2441 2713 2670 2916 
Q 2900 3119 2900 3481 
Q 2900 3844 2670 4047 
Q 2441 4250 2034 4250 
Q 1625 4250 1398 4047 
Q 1172 3844 1172 3481 
z
" transform="scale(0.015625)"/>
       </defs>
       <use xlink:href="#DejaVuSans-38"/>
      </g>
     </g>
    </g>
    <g id="xtick_6">
     <g id="line2d_7">
      <g>
       <use xlink:href="#mdb3cfea778" x="456.460815" y="192.24" style="stroke: #000000; stroke-width: 0.8"/>
      </g>
     </g>
     <g id="text_6">
      <!-- 10 -->
      <g transform="translate(450.098315 206.838437) scale(0.1 -0.1)">
       <defs>
        <path id="DejaVuSans-31" d="M 794 531 
L 1825 531 
L 1825 4091 
L 703 3866 
L 703 4441 
L 1819 4666 
L 2450 4666 
L 2450 531 
L 3481 531 
L 3481 0 
L 794 0 
L 794 531 
z
" transform="scale(0.015625)"/>
       </defs>
       <use xlink:href="#DejaVuSans-31"/>
       <use xlink:href="#DejaVuSans-30" x="63.623047"/>
      </g>
     </g>
    </g>
    <g id="xtick_7">
     <g id="line2d_8">
      <g>
       <use xlink:href="#mdb3cfea778" x="526.429467" y="192.24" style="stroke: #000000; stroke-width: 0.8"/>
      </g>
     </g>
     <g id="text_7">
      <!-- 12 -->
      <g transform="translate(520.066967 206.838437) scale(0.1 -0.1)">
       <use xlink:href="#DejaVuSans-31"/>
       <use xlink:href="#DejaVuSans-32" x="63.623047"/>
      </g>
     </g>
    </g>
    <g id="xtick_8">
     <g id="line2d_9">
      <g>
       <use xlink:href="#mdb3cfea778" x="596.398119" y="192.24" style="stroke: #000000; stroke-width: 0.8"/>
      </g>
     </g>
     <g id="text_8">
      <!-- 14 -->
      <g transform="translate(590.035619 206.838437) scale(0.1 -0.1)">
       <use xlink:href="#DejaVuSans-31"/>
       <use xlink:href="#DejaVuSans-34" x="63.623047"/>
      </g>
     </g>
    </g>
   </g>
   <g id="matplotlib.axis_2">
    <g id="ytick_1">
     <g id="line2d_10">
      <defs>
       <path id="m344a127405" d="M 0 0 
L -3.5 0 
" style="stroke: #000000; stroke-width: 0.8"/>
      </defs>
      <g>
       <use xlink:href="#m344a127405" x="90" y="192.24" style="stroke: #000000; stroke-width: 0.8"/>
      </g>
     </g>
     <g id="text_9">
      <!-- 0.00 -->
      <g transform="translate(60.734375 196.039219) scale(0.1 -0.1)">
       <defs>
        <path id="DejaVuSans-2e" d="M 684 794 
L 1344 794 
L 1344 0 
L 684 0 
L 684 794 
z
" transform="scale(0.015625)"/>
       </defs>
       <use xlink:href="#DejaVuSans-30"/>
       <use xlink:href="#DejaVuSans-2e" x="63.623047"/>
       <use xlink:href="#DejaVuSans-30" x="95.410156"/>
       <use xlink:href="#DejaVuSans-30" x="159.033203"/>
      </g>
     </g>
    </g>
    <g id="ytick_2">
     <g id="line2d_11">
      <g>
       <use xlink:href="#m344a127405" x="90" y="171.39395" style="stroke: #000000; stroke-width: 0.8"/>
      </g>
     </g>
     <g id="text_10">
      <!-- 0.25 -->
      <g transform="translate(60.734375 175.193169) scale(0.1 -0.1)">
       <defs>
        <path id="DejaVuSans-35" d="M 691 4666 
L 3169 4666 
L 3169 4134 
L 1269 4134 
L 1269 2991 
Q 1406 3038 1543 3061 
Q 1681 3084 1819 3084 
Q 2600 3084 3056 2656 
Q 3513 2228 3513 1497 
Q 3513 744 3044 326 
Q 2575 -91 1722 -91 
Q 1428 -91 1123 -41 
Q 819 9 494 109 
L 494 744 
Q 775 591 1075 516 
Q 1375 441 1709 441 
Q 2250 441 2565 725 
Q 2881 1009 2881 1497 
Q 2881 1984 2565 2268 
Q 2250 2553 1709 2553 
Q 1456 2553 1204 2497 
Q 953 2441 691 2322 
L 691 4666 
z
" transform="scale(0.015625)"/>
       </defs>
       <use xlink:href="#DejaVuSans-30"/>
       <use xlink:href="#DejaVuSans-2e" x="63.623047"/>
       <use xlink:href="#DejaVuSans-32" x="95.410156"/>
       <use xlink:href="#DejaVuSans-35" x="159.033203"/>
      </g>
     </g>
    </g>
    <g id="ytick_3">
     <g id="line2d_12">
      <g>
       <use xlink:href="#m344a127405" x="90" y="150.5479" style="stroke: #000000; stroke-width: 0.8"/>
      </g>
     </g>
     <g id="text_11">
      <!-- 0.50 -->
      <g transform="translate(60.734375 154.347119) scale(0.1 -0.1)">
       <use xlink:href="#DejaVuSans-30"/>
       <use xlink:href="#DejaVuSans-2e" x="63.623047"/>
       <use xlink:href="#DejaVuSans-35" x="95.410156"/>
       <use xlink:href="#DejaVuSans-30" x="159.033203"/>
      </g>
     </g>
    </g>
    <g id="ytick_4">
     <g id="line2d_13">
      <g>
       <use xlink:href="#m344a127405" x="90" y="129.70185" style="stroke: #000000; stroke-width: 0.8"/>
      </g>
     </g>
     <g id="text_12">
      <!-- 0.75 -->
      <g transform="translate(60.734375 133.501069) scale(0.1 -0.1)">
       <defs>
        <path id="DejaVuSans-37" d="M 525 4666 
L 3525 4666 
L 3525 4397 
L 1831 0 
L 1172 0 
L 2766 4134 
L 525 4134 
L 525 4666 
z
" transform="scale(0.015625)"/>
       </defs>
       <use xlink:href="#DejaVuSans-30"/>
       <use xlink:href="#DejaVuSans-2e" x="63.623047"/>
       <use xlink:href="#DejaVuSans-37" x="95.410156"/>
       <use xlink:href="#DejaVuSans-35" x="159.033203"/>
      </g>
     </g>
    </g>
    <g id="ytick_5">
     <g id="line2d_14">
      <g>
       <use xlink:href="#m344a127405" x="90" y="108.855801" style="stroke: #000000; stroke-width: 0.8"/>
      </g>
     </g>
     <g id="text_13">
      <!-- 1.00 -->
      <g transform="translate(60.734375 112.655019) scale(0.1 -0.1)">
       <use xlink:href="#DejaVuSans-31"/>
       <use xlink:href="#DejaVuSans-2e" x="63.623047"/>
       <use xlink:href="#DejaVuSans-30" x="95.410156"/>
       <use xlink:href="#DejaVuSans-30" x="159.033203"/>
      </g>
     </g>
    </g>
    <g id="ytick_6">
     <g id="line2d_15">
      <g>
       <use xlink:href="#m344a127405" x="90" y="88.009751" style="stroke: #000000; stroke-width: 0.8"/>
      </g>
     </g>
     <g id="text_14">
      <!-- 1.25 -->
      <g transform="translate(60.734375 91.80897) scale(0.1 -0.1)">
       <use xlink:href="#DejaVuSans-31"/>
       <use xlink:href="#DejaVuSans-2e" x="63.623047"/>
       <use xlink:href="#DejaVuSans-32" x="95.410156"/>
       <use xlink:href="#DejaVuSans-35" x="159.033203"/>
      </g>
     </g>
    </g>
    <g id="ytick_7">
     <g id="line2d_16">
      <g>
       <use xlink:href="#m344a127405" x="90" y="67.163701" style="stroke: #000000; stroke-width: 0.8"/>
      </g>
     </g>
     <g id="text_15">
      <!-- 1.50 -->
      <g transform="translate(60.734375 70.96292) scale(0.1 -0.1)">
       <use xlink:href="#DejaVuSans-31"/>
       <use xlink:href="#DejaVuSans-2e" x="63.623047"/>
       <use xlink:href="#DejaVuSans-35" x="95.410156"/>
       <use xlink:href="#DejaVuSans-30" x="159.033203"/>
      </g>
     </g>
    </g>
    <g id="ytick_8">
     <g id="line2d_17">
      <g>
       <use xlink:href="#m344a127405" x="90" y="46.317651" style="stroke: #000000; stroke-width: 0.8"/>
      </g>
     </g>
     <g id="text_16">
      <!-- 1.75 -->
      <g transform="translate(60.734375 50.11687) scale(0.1 -0.1)">
       <use xlink:href="#DejaVuSans-31"/>
       <use xlink:href="#DejaVuSans-2e" x="63.623047"/>
       <use xlink:href="#DejaVuSans-37" x="95.410156"/>
       <use xlink:href="#DejaVuSans-35" x="159.033203"/>
      </g>
     </g>
    </g>
   </g>
  </g>
 </g>
 <defs>
  <clipPath id="p3865bdac23">
   <rect x="90" y="25.92" width="558" height="166.32"/>
  </clipPath>
 </defs>
</svg>
