<?xml version="1.0" encoding="utf-8" standalone="no"?>
<!DOCTYPE svg PUBLIC "-//W3C//DTD SVG 1.1//EN"
  "http://www.w3.org/Graphics/SVG/1.1/DTD/svg11.dtd">
<svg xmlns:xlink="http://www.w3.org/1999/xlink" width="720pt" height="216pt" viewBox="0 0 720 216" xmlns="http://www.w3.org/2000/svg" version="1.1">
 <metadata>
  <rdf:RDF xmlns:dc="http://purl.org/dc/elements/1.1/" xmlns:cc="http://creativecommons.org/ns#" xmlns:rdf="http://www.w3.org/1999/02/22-rdf-syntax-ns#">
   <cc:Work>
    <dc:type rdf:resource="http://purl.org/dc/dcmitype/StillImage"/>
    <dc:date>2024-11-23T05:01:16.878869</dc:date>
    <dc:format>image/svg+xml</dc:format>
    <dc:creator>
     <cc:Agent>
      <dc:title>Matplotlib v3.7.2, https://matplotlib.org/</dc:title>
     </cc:Agent>
    </dc:creator>
   </cc:Work>
  </rdf:RDF>
 </metadata>
 <defs>
  <style type="text/css">*{stroke-linejoin: round; stroke-linecap: butt}</style>
 </defs>
 <g id="figure_1">
  <g id="patch_1">
   <path d="M 0 216 
L 720 216 
L 720 0 
L 0 0 
z
" style="fill: #ffffff"/>
  </g>
  <g id="axes_1">
   <g id="patch_2">
    <path d="M 90 192.24 
L 648 192.24 
L 648 25.92 
L 90 25.92 
z
" style="fill: #ffffff"/>
   </g>
   <g id="line2d_1">
    <path d="M 90 192.24 
L 648 192.24 
" clip-path="url(#p79121cb349)" style="fill: none; stroke: #000000; stroke-width: 0.5; stroke-linecap: square"/>
   </g>
   <g id="patch_3">
    <path d="M 149.22905 192.08823 
Q 144.274642 192.163459 138.917316 192.201511 
Q 133.559989 192.24 127.72513 192.24 
Q 110.32501 192.24 100.162505 191.954829 
Q 90 191.669659 90 191.181982 
Q 90 190.692555 100.162505 190.407822 
Q 110.32501 190.122651 127.72513 190.122651 
Q 133.559989 190.122651 138.917316 190.161141 
Q 144.274642 190.199193 149.22905 190.274422 
L 149.22905 190.696492 
Q 144.229874 190.59677 139.379926 190.550407 
Q 134.529979 190.504045 129.172652 190.504045 
Q 119.562295 190.504045 114.055739 190.684683 
Q 108.564106 190.864882 108.564106 191.181982 
Q 108.564106 191.497769 114.055739 191.678406 
Q 119.562295 191.858606 129.172652 191.858606 
Q 134.529979 191.858606 139.379926 191.812244 
Q 144.229874 191.765445 149.22905 191.665722 
L 149.22905 192.08823 
z
" clip-path="url(#p79121cb349)" style="fill: #0000ff"/>
   </g>
   <g id="patch_4">
    <path d="M 90 186.865182 
L 149.22905 186.865182 
L 149.22905 187.500479 
L 127.920366 187.500479 
L 127.920366 190.122651 
L 111.350006 190.122651 
L 111.350006 187.500479 
L 90 187.500479 
L 90 186.865182 
z
" clip-path="url(#p79121cb349)" style="fill: #ff0000"/>
   </g>
   <g id="patch_5">
    <path d="M 131.028015 186.153075 
L 108.249474 186.153075 
L 104.652863 186.865182 
L 90 186.865182 
L 110.925741 182.956135 
L 128.303309 182.956135 
L 149.22905 186.865182 
L 134.588298 186.865182 
L 131.028015 186.153075 
z
M 111.882415 185.427564 
L 127.358745 185.427564 
L 119.63269 183.872658 
L 111.882415 185.427564 
z
" clip-path="url(#p79121cb349)" style="fill: #008000"/>
   </g>
   <g id="patch_6">
    <path d="M 149.22905 171.284898 
Q 143.255704 177.120516 136.831038 180.051649 
Q 130.406371 182.956135 123.556934 182.956135 
Q 108.079329 182.956135 99.039665 165.582513 
Q 90 148.208892 90 118.497868 
Q 90 88.440437 99.198954 71.200049 
Q 108.411182 53.959661 124.433025 53.959661 
Q 130.605483 53.959661 136.260251 56.304567 
Q 141.928293 58.622826 146.945904 63.206052 
L 146.945904 88.920077 
Q 141.769004 83.031166 136.6452 80.12668 
Q 131.521396 77.195547 126.371044 77.195547 
Q 116.840237 77.195547 111.676611 87.907504 
Q 106.512985 98.592814 106.512985 118.497868 
Q 106.512985 138.216395 111.490774 148.981645 
Q 116.468563 159.720248 125.627694 159.720248 
Q 128.123226 159.720248 130.260356 159.107375 
Q 132.397487 158.467856 134.096572 157.135523 
L 134.096572 132.99365 
L 124.340106 132.99365 
L 124.340106 111.489797 
L 149.22905 111.489797 
L 149.22905 171.284898 
z
" clip-path="url(#p79121cb349)" style="fill: #ffa600"/>
   </g>
   <g id="patch_7">
    <path d="M 152.346369 191.652225 
L 211.575419 191.652225 
L 211.575419 191.766858 
L 190.266735 191.766858 
L 190.266735 192.24 
L 173.696375 192.24 
L 173.696375 191.766858 
L 152.346369 191.766858 
L 152.346369 191.652225 
z
" clip-path="url(#p79121cb349)" style="fill: #ff0000"/>
   </g>
   <g id="patch_8">
    <path d="M 211.575419 191.581333 
Q 205.602072 191.616779 199.177406 191.634583 
Q 192.75274 191.652225 185.903303 191.652225 
Q 170.425698 191.652225 161.386033 191.546697 
Q 152.346369 191.441168 152.346369 191.260701 
Q 152.346369 191.07813 161.545323 190.973411 
Q 170.75755 190.868692 186.779393 190.868692 
Q 192.951852 190.868692 198.60662 190.882935 
Q 204.274662 190.897016 209.292273 190.924855 
L 209.292273 191.081044 
Q 204.115373 191.045274 198.991569 191.027632 
Q 193.867765 191.009828 188.717413 191.009828 
Q 179.186606 191.009828 174.02298 191.074893 
Q 168.859354 191.139796 168.859354 191.260701 
Q 168.859354 191.380473 173.837142 191.445862 
Q 178.814931 191.511089 187.974063 191.511089 
Q 190.469594 191.511089 192.606725 191.507366 
Q 194.743856 191.503482 196.442941 191.495389 
L 196.442941 191.34875 
L 186.686475 191.34875 
L 186.686475 191.218134 
L 211.575419 191.218134 
L 211.575419 191.581333 
z
" clip-path="url(#p79121cb349)" style="fill: #ffa600"/>
   </g>
   <g id="patch_9">
    <path d="M 193.374384 190.618882 
L 170.595843 190.618882 
L 166.999231 190.868692 
L 152.346369 190.868692 
L 173.27211 189.497383 
L 190.649678 189.497383 
L 211.575419 190.868692 
L 196.934666 190.868692 
L 193.374384 190.618882 
z
M 174.228784 190.36437 
L 189.705113 190.36437 
L 181.979059 189.818903 
L 174.228784 190.36437 
z
" clip-path="url(#p79121cb349)" style="fill: #008000"/>
   </g>
   <g id="patch_10">
    <path d="M 211.575419 177.772254 
Q 206.621011 183.584133 201.263685 186.523863 
Q 195.906358 189.497383 190.071498 189.497383 
Q 172.671379 189.497383 162.508874 167.466304 
Q 152.346369 145.435225 152.346369 107.759377 
Q 152.346369 69.948368 162.508874 47.951079 
Q 172.671379 25.92 190.071498 25.92 
Q 195.906358 25.92 201.263685 28.89352 
Q 206.621011 31.83325 211.575419 37.64513 
L 211.575419 70.252478 
Q 206.576242 62.548358 201.726295 58.966619 
Q 196.876348 55.384879 191.519021 55.384879 
Q 181.908664 55.384879 176.402108 69.340148 
Q 170.910475 83.261628 170.910475 107.759377 
Q 170.910475 132.155756 176.402108 146.111025 
Q 181.908664 160.032504 191.519021 160.032504 
Q 196.876348 160.032504 201.726295 156.450765 
Q 206.576242 152.835235 211.575419 145.131115 
L 211.575419 177.772254 
z
" clip-path="url(#p79121cb349)" style="fill: #0000ff"/>
   </g>
   <g id="patch_11">
    <path d="M 255.720753 192.035949 
L 232.942212 192.035949 
L 229.3456 192.24 
L 214.692737 192.24 
L 235.618478 191.119879 
L 252.996047 191.119879 
L 273.921788 192.24 
L 259.281035 192.24 
L 255.720753 192.035949 
z
M 236.575153 191.828057 
L 252.051482 191.828057 
L 244.325427 191.382505 
L 236.575153 191.828057 
z
" clip-path="url(#p79121cb349)" style="fill: #008000"/>
   </g>
   <g id="patch_12">
    <path d="M 273.921788 191.004054 
Q 267.948441 191.061967 261.523775 191.091055 
Q 255.099109 191.119879 248.249671 191.119879 
Q 232.772067 191.119879 223.732402 190.947464 
Q 214.692737 190.775048 214.692737 190.480197 
Q 214.692737 190.181908 223.891691 190.010815 
Q 233.103919 189.839722 249.125762 189.839722 
Q 255.29822 189.839722 260.952988 189.862992 
Q 266.621031 189.885999 271.638642 189.931482 
L 271.638642 190.186668 
Q 266.461741 190.128226 261.337937 190.099402 
Q 256.214134 190.070314 251.063781 190.070314 
Q 241.532975 190.070314 236.369349 190.176619 
Q 231.205722 190.28266 231.205722 190.480197 
Q 231.205722 190.675883 236.183511 190.782717 
Q 241.1613 190.889287 250.320432 190.889287 
Q 252.815963 190.889287 254.953094 190.883205 
Q 257.090224 190.876858 258.78931 190.863636 
L 258.78931 190.624053 
L 249.032843 190.624053 
L 249.032843 190.410649 
L 273.921788 190.410649 
L 273.921788 191.004054 
z
" clip-path="url(#p79121cb349)" style="fill: #ffa600"/>
   </g>
   <g id="patch_13">
    <path d="M 273.921788 189.220347 
Q 268.96738 189.527357 263.610053 189.682647 
Q 258.252727 189.839722 252.417867 189.839722 
Q 235.017748 189.839722 224.855243 188.675941 
Q 214.692737 187.51216 214.692737 185.521952 
Q 214.692737 183.524604 224.855243 182.362608 
Q 235.017748 181.198828 252.417867 181.198828 
Q 258.252727 181.198828 263.610053 181.355902 
Q 268.96738 181.511192 273.921788 181.818202 
L 273.921788 183.540669 
Q 268.922611 183.133702 264.072664 182.944499 
Q 259.222716 182.755295 253.86539 182.755295 
Q 244.255032 182.755295 238.748477 183.492475 
Q 233.256844 184.227871 233.256844 185.521952 
Q 233.256844 186.810679 238.748477 187.547859 
Q 244.255032 188.283254 253.86539 188.283254 
Q 259.222716 188.283254 264.072664 188.09405 
Q 268.922611 187.903062 273.921788 187.496095 
L 273.921788 189.220347 
z
" clip-path="url(#p79121cb349)" style="fill: #0000ff"/>
   </g>
   <g id="patch_14">
    <path d="M 214.692737 56.385433 
L 273.921788 56.385433 
L 273.921788 80.727522 
L 252.613104 80.727522 
L 252.613104 181.198828 
L 236.042744 181.198828 
L 236.042744 80.727522 
L 214.692737 80.727522 
L 214.692737 56.385433 
z
" clip-path="url(#p79121cb349)" style="fill: #ff0000"/>
   </g>
   <g id="patch_15">
    <path d="M 277.039106 191.861038 
L 336.268156 191.861038 
L 336.268156 191.934946 
L 314.959473 191.934946 
L 314.959473 192.24 
L 298.389113 192.24 
L 298.389113 191.934946 
L 277.039106 191.934946 
L 277.039106 191.861038 
z
" clip-path="url(#p79121cb349)" style="fill: #ff0000"/>
   </g>
   <g id="patch_16">
    <path d="M 336.268156 191.765976 
Q 331.313749 191.813096 325.956422 191.83693 
Q 320.599096 191.861038 314.764236 191.861038 
Q 297.364117 191.861038 287.201611 191.682421 
Q 277.039106 191.503803 277.039106 191.198346 
Q 277.039106 190.891792 287.201611 190.713449 
Q 297.364117 190.534832 314.764236 190.534832 
Q 320.599096 190.534832 325.956422 190.55894 
Q 331.313749 190.582774 336.268156 190.629893 
L 336.268156 190.894258 
Q 331.26898 190.831797 326.419032 190.802758 
Q 321.569085 190.773719 316.211758 190.773719 
Q 306.601401 190.773719 301.094845 190.886861 
Q 295.603213 190.99973 295.603213 191.198346 
Q 295.603213 191.39614 301.094845 191.509282 
Q 306.601401 191.622151 316.211758 191.622151 
Q 321.569085 191.622151 326.419032 191.593112 
Q 331.26898 191.563799 336.268156 191.501338 
L 336.268156 191.765976 
z
" clip-path="url(#p79121cb349)" style="fill: #0000ff"/>
   </g>
   <g id="patch_17">
    <path d="M 318.067121 190.086162 
L 295.28858 190.086162 
L 291.691969 190.534832 
L 277.039106 190.534832 
L 297.964847 188.0719 
L 315.342415 188.0719 
L 336.268156 190.534832 
L 321.627404 190.534832 
L 318.067121 190.086162 
z
M 298.921522 189.629047 
L 314.397851 189.629047 
L 306.671796 188.649364 
L 298.921522 189.629047 
z
" clip-path="url(#p79121cb349)" style="fill: #008000"/>
   </g>
   <g id="patch_18">
    <path d="M 336.268156 173.895787 
Q 330.29481 180.983844 323.870144 184.544055 
Q 317.445478 188.0719 310.59604 188.0719 
Q 295.118435 188.0719 286.078771 166.969558 
Q 277.039106 145.867216 277.039106 109.779622 
Q 277.039106 73.271275 286.23806 52.330761 
Q 295.450288 31.390247 311.472131 31.390247 
Q 317.644589 31.390247 323.299357 34.238416 
Q 328.967399 37.054219 333.985011 42.621094 
L 333.985011 73.853855 
Q 328.80811 66.701068 323.684306 63.173222 
Q 318.560502 59.613011 313.41015 59.613011 
Q 303.879344 59.613011 298.715717 72.623964 
Q 293.552091 85.602552 293.552091 109.779622 
Q 293.552091 133.730133 298.52988 146.805817 
Q 303.507669 159.849136 312.6668 159.849136 
Q 315.162332 159.849136 317.299462 159.104728 
Q 319.436593 158.327955 321.135678 156.709677 
L 321.135678 127.386484 
L 311.379212 127.386484 
L 311.379212 101.267481 
L 336.268156 101.267481 
L 336.268156 173.895787 
z
" clip-path="url(#p79121cb349)" style="fill: #ffa600"/>
   </g>
   <g id="patch_19">
    <path d="M 380.41349 191.914204 
L 357.634949 191.914204 
L 354.038337 192.24 
L 339.385475 192.24 
L 360.311216 190.45157 
L 377.688784 190.45157 
L 398.614525 192.24 
L 383.973772 192.24 
L 380.41349 191.914204 
z
M 361.26789 191.582275 
L 376.74422 191.582275 
L 369.018165 190.870889 
L 361.26789 191.582275 
z
" clip-path="url(#p79121cb349)" style="fill: #008000"/>
   </g>
   <g id="patch_20">
    <path d="M 398.614525 190.172071 
Q 392.641179 190.311821 386.216512 190.382014 
Q 379.791846 190.45157 372.942409 190.45157 
Q 357.464804 190.45157 348.425139 190.035512 
Q 339.385475 189.619454 339.385475 188.907943 
Q 339.385475 188.188137 348.584429 187.775269 
Q 357.796657 187.362402 373.8185 187.362402 
Q 379.990958 187.362402 385.645726 187.418557 
Q 391.313768 187.474074 396.331379 187.583831 
L 396.331379 188.199623 
Q 391.154479 188.058597 386.030675 187.989041 
Q 380.906871 187.918848 375.756519 187.918848 
Q 366.225712 187.918848 361.062086 188.175374 
Q 355.89846 188.431263 355.89846 188.907943 
Q 355.89846 189.380156 360.876249 189.637959 
Q 365.854037 189.895124 375.013169 189.895124 
Q 377.5087 189.895124 379.645831 189.880447 
Q 381.782962 189.865132 383.482047 189.833226 
L 383.482047 189.255084 
L 373.725581 189.255084 
L 373.725581 188.740116 
L 398.614525 188.740116 
L 398.614525 190.172071 
z
" clip-path="url(#p79121cb349)" style="fill: #ffa600"/>
   </g>
   <g id="patch_21">
    <path d="M 398.614525 187.03608 
Q 393.660117 187.19783 388.302791 187.279646 
Q 382.945464 187.362402 377.110604 187.362402 
Q 359.710485 187.362402 349.54798 186.749255 
Q 339.385475 186.136109 339.385475 185.087553 
Q 339.385475 184.035236 349.54798 183.423031 
Q 359.710485 182.809884 377.110604 182.809884 
Q 382.945464 182.809884 388.302791 182.89264 
Q 393.660117 182.974456 398.614525 183.136206 
L 398.614525 184.0437 
Q 393.615349 183.829287 388.765401 183.729604 
Q 383.915454 183.62992 378.558127 183.62992 
Q 368.94777 183.62992 363.441214 184.018309 
Q 357.949581 184.405757 357.949581 185.087553 
Q 357.949581 185.766528 363.441214 186.154917 
Q 368.94777 186.542365 378.558127 186.542365 
Q 383.915454 186.542365 388.765401 186.442682 
Q 393.615349 186.342058 398.614525 186.127645 
L 398.614525 187.03608 
z
" clip-path="url(#p79121cb349)" style="fill: #0000ff"/>
   </g>
   <g id="patch_22">
    <path d="M 339.385475 54.201409 
L 398.614525 54.201409 
L 398.614525 79.283645 
L 377.305841 79.283645 
L 377.305841 182.809884 
L 360.735481 182.809884 
L 360.735481 79.283645 
L 339.385475 79.283645 
L 339.385475 54.201409 
z
" clip-path="url(#p79121cb349)" style="fill: #ff0000"/>
   </g>
   <g id="patch_23">
    <path d="M 460.960894 192.212464 
Q 456.006486 192.226113 450.649159 192.233017 
Q 445.291833 192.24 439.456973 192.24 
Q 422.056854 192.24 411.894349 192.188261 
Q 401.731844 192.136523 401.731844 192.048043 
Q 401.731844 191.959246 411.894349 191.907587 
Q 422.056854 191.855848 439.456973 191.855848 
Q 445.291833 191.855848 450.649159 191.862831 
Q 456.006486 191.869735 460.960894 191.883384 
L 460.960894 191.95996 
Q 455.961717 191.941868 451.11177 191.933456 
Q 446.261822 191.925045 440.904496 191.925045 
Q 431.294139 191.925045 425.787583 191.957818 
Q 420.29595 191.990512 420.29595 192.048043 
Q 420.29595 192.105337 425.787583 192.13811 
Q 431.294139 192.170803 440.904496 192.170803 
Q 446.261822 192.170803 451.11177 192.162392 
Q 455.961717 192.153901 460.960894 192.135808 
L 460.960894 192.212464 
z
" clip-path="url(#p79121cb349)" style="fill: #0000ff"/>
   </g>
   <g id="patch_24">
    <path d="M 401.731844 191.279579 
L 460.960894 191.279579 
L 460.960894 191.391968 
L 439.65221 191.391968 
L 439.65221 191.855848 
L 423.08185 191.855848 
L 423.08185 191.391968 
L 401.731844 191.391968 
L 401.731844 191.279579 
z
" clip-path="url(#p79121cb349)" style="fill: #ff0000"/>
   </g>
   <g id="patch_25">
    <path d="M 442.759859 184.228406 
L 419.981318 184.228406 
L 416.384706 191.279579 
L 401.731844 191.279579 
L 422.657585 152.572784 
L 440.035153 152.572784 
L 460.960894 191.279579 
L 446.320141 191.279579 
L 442.759859 184.228406 
z
M 423.614259 177.044504 
L 439.090588 177.044504 
L 431.364533 161.648059 
L 423.614259 177.044504 
z
" clip-path="url(#p79121cb349)" style="fill: #008000"/>
   </g>
   <g id="patch_26">
    <path d="M 460.960894 148.783934 
Q 454.987547 150.678359 448.562881 151.629897 
Q 442.138215 152.572784 435.288777 152.572784 
Q 419.811173 152.572784 410.771508 146.93276 
Q 401.731844 141.292736 401.731844 131.647603 
Q 401.731844 121.890015 410.930797 116.293243 
Q 420.143025 110.69647 436.164868 110.69647 
Q 442.337326 110.69647 447.992095 111.457701 
Q 453.660137 112.21028 458.677748 113.69814 
L 458.677748 122.045721 
Q 453.500848 120.133995 448.377044 119.191108 
Q 443.25324 118.23957 438.102887 118.23957 
Q 428.572081 118.23957 423.408455 121.717008 
Q 418.244828 125.185796 418.244828 131.647603 
Q 418.244828 138.048857 423.222617 141.543596 
Q 428.200406 145.029684 437.359538 145.029684 
Q 439.855069 145.029684 441.9922 144.830727 
Q 444.12933 144.623118 445.828416 144.190601 
L 445.828416 136.35339 
L 436.07195 136.35339 
L 436.07195 129.372562 
L 460.960894 129.372562 
L 460.960894 148.783934 
z
" clip-path="url(#p79121cb349)" style="fill: #ffa600"/>
   </g>
   <g id="patch_27">
    <path d="M 505.106227 192.100719 
L 482.327687 192.100719 
L 478.731075 192.24 
L 464.078212 192.24 
L 485.003953 191.47543 
L 502.381522 191.47543 
L 523.307263 192.24 
L 508.66651 192.24 
L 505.106227 192.100719 
z
M 485.960628 191.958817 
L 501.436957 191.958817 
L 493.710902 191.654693 
L 485.960628 191.958817 
z
" clip-path="url(#p79121cb349)" style="fill: #008000"/>
   </g>
   <g id="patch_28">
    <path d="M 464.078212 187.805261 
L 523.307263 187.805261 
L 523.307263 188.521046 
L 501.998579 188.521046 
L 501.998579 191.47543 
L 485.428219 191.47543 
L 485.428219 188.521046 
L 464.078212 188.521046 
L 464.078212 187.805261 
z
" clip-path="url(#p79121cb349)" style="fill: #ff0000"/>
   </g>
   <g id="patch_29">
    <path d="M 523.307263 187.127302 
Q 517.333916 187.466282 510.90925 187.636546 
Q 504.484584 187.805261 497.635146 187.805261 
Q 482.157541 187.805261 473.117877 186.796062 
Q 464.078212 185.786863 464.078212 184.061009 
Q 464.078212 182.315033 473.277166 181.313573 
Q 482.489394 180.312113 498.511237 180.312113 
Q 504.683695 180.312113 510.338463 180.448324 
Q 516.006506 180.582987 521.024117 180.849218 
L 521.024117 182.342894 
Q 515.847216 182.000819 510.723412 181.832103 
Q 505.599608 181.66184 500.449256 181.66184 
Q 490.91845 181.66184 485.754823 182.284076 
Q 480.591197 182.904764 480.591197 184.061009 
Q 480.591197 185.206419 485.568986 185.831751 
Q 490.546775 186.455535 499.705906 186.455535 
Q 502.201438 186.455535 504.338569 186.419934 
Q 506.475699 186.382786 508.174784 186.305393 
L 508.174784 184.90304 
L 498.418318 184.90304 
L 498.418318 183.653924 
L 523.307263 183.653924 
L 523.307263 187.127302 
z
" clip-path="url(#p79121cb349)" style="fill: #ffa600"/>
   </g>
   <g id="patch_30">
    <path d="M 523.307263 171.860948 
Q 518.352855 176.049999 512.995528 178.168879 
Q 507.638202 180.312113 501.803342 180.312113 
Q 484.403223 180.312113 474.240718 164.432691 
Q 464.078212 148.553269 464.078212 121.397508 
Q 464.078212 94.144327 474.240718 78.28926 
Q 484.403223 62.409837 501.803342 62.409837 
Q 507.638202 62.409837 512.995528 64.553072 
Q 518.352855 66.671952 523.307263 70.861002 
L 523.307263 94.363522 
Q 518.308086 88.810595 513.458139 86.228971 
Q 508.608191 83.647347 503.250865 83.647347 
Q 493.640507 83.647347 488.133952 93.705938 
Q 482.642319 103.740175 482.642319 121.397508 
Q 482.642319 138.981776 488.133952 149.040367 
Q 493.640507 159.074604 503.250865 159.074604 
Q 508.608191 159.074604 513.458139 156.49298 
Q 518.308086 153.887001 523.307263 148.334074 
L 523.307263 171.860948 
z
" clip-path="url(#p79121cb349)" style="fill: #0000ff"/>
   </g>
   <g id="patch_31">
    <path d="M 567.452596 192.10159 
L 544.674055 192.10159 
L 541.077444 192.24 
L 526.424581 192.24 
L 547.350322 191.480208 
L 564.72789 191.480208 
L 585.653631 192.24 
L 571.012879 192.24 
L 567.452596 192.10159 
z
M 548.306996 191.960574 
L 563.783326 191.960574 
L 556.057271 191.65835 
L 548.306996 191.960574 
z
" clip-path="url(#p79121cb349)" style="fill: #008000"/>
   </g>
   <g id="patch_32">
    <path d="M 526.424581 190.530427 
L 585.653631 190.530427 
L 585.653631 190.715661 
L 564.344947 190.715661 
L 564.344947 191.480208 
L 547.774588 191.480208 
L 547.774588 190.715661 
L 526.424581 190.715661 
L 526.424581 190.530427 
z
" clip-path="url(#p79121cb349)" style="fill: #ff0000"/>
   </g>
   <g id="patch_33">
    <path d="M 585.653631 190.324181 
Q 579.680285 190.427304 573.255619 190.479101 
Q 566.830952 190.530427 559.981515 190.530427 
Q 544.50391 190.530427 535.464246 190.223412 
Q 526.424581 189.916398 526.424581 189.391365 
Q 526.424581 188.86021 535.623535 188.55555 
Q 544.835763 188.250889 560.857606 188.250889 
Q 567.030064 188.250889 572.684832 188.292327 
Q 578.352874 188.333294 583.370485 188.414285 
L 583.370485 188.868686 
Q 578.193585 188.764621 573.069781 188.713295 
Q 567.945977 188.661498 562.795625 188.661498 
Q 553.264818 188.661498 548.101192 188.850793 
Q 542.937566 189.039616 542.937566 189.391365 
Q 542.937566 189.739817 547.915355 189.930053 
Q 552.893144 190.119818 562.052275 190.119818 
Q 564.547807 190.119818 566.684937 190.108988 
Q 568.822068 190.097687 570.521153 190.074143 
L 570.521153 189.647524 
L 560.764687 189.647524 
L 560.764687 189.267523 
L 585.653631 189.267523 
L 585.653631 190.324181 
z
" clip-path="url(#p79121cb349)" style="fill: #ffa600"/>
   </g>
   <g id="patch_34">
    <path d="M 585.653631 176.976351 
Q 580.699223 182.564883 575.341897 185.391641 
Q 569.98457 188.250889 564.149711 188.250889 
Q 546.749591 188.250889 536.587086 167.066455 
Q 526.424581 145.882021 526.424581 109.654038 
Q 526.424581 73.29609 536.587086 52.144148 
Q 546.749591 30.959713 564.149711 30.959713 
Q 569.98457 30.959713 575.341897 33.818962 
Q 580.699223 36.645719 585.653631 42.234251 
L 585.653631 73.588514 
Q 580.654455 66.18046 575.804507 62.736365 
Q 570.95456 59.29227 565.597233 59.29227 
Q 555.986876 59.29227 550.48032 72.711244 
Q 544.988687 86.097727 544.988687 109.654038 
Q 544.988687 133.112875 550.48032 146.53185 
Q 555.986876 159.918333 565.597233 159.918333 
Q 570.95456 159.918333 575.804507 156.474238 
Q 580.654455 152.997651 585.653631 145.589597 
L 585.653631 176.976351 
z
" clip-path="url(#p79121cb349)" style="fill: #0000ff"/>
   </g>
   <g id="patch_35">
    <path d="M 629.798965 192.08516 
L 607.020424 192.08516 
L 603.423812 192.24 
L 588.77095 192.24 
L 609.696691 191.390017 
L 627.074259 191.390017 
L 648 192.24 
L 633.359247 192.24 
L 629.798965 192.08516 
z
M 610.653365 191.927404 
L 626.129694 191.927404 
L 618.40364 191.589306 
L 610.653365 191.927404 
z
" clip-path="url(#p79121cb349)" style="fill: #008000"/>
   </g>
   <g id="patch_36">
    <path d="M 648 191.190059 
Q 642.026653 191.290038 635.601987 191.340256 
Q 629.177321 191.390017 622.327884 191.390017 
Q 606.850279 191.390017 597.810614 191.092362 
Q 588.77095 190.794707 588.77095 190.285681 
Q 588.77095 189.770719 597.969904 189.475347 
Q 607.182131 189.179975 623.203974 189.179975 
Q 629.376433 189.179975 635.031201 189.220149 
Q 640.699243 189.259867 645.716854 189.338389 
L 645.716854 189.778937 
Q 640.539954 189.678044 635.41615 189.628283 
Q 630.292346 189.578065 625.141994 189.578065 
Q 615.611187 189.578065 610.447561 189.761589 
Q 605.283935 189.944656 605.283935 190.285681 
Q 605.283935 190.62351 610.261723 190.807946 
Q 615.239512 190.991926 624.398644 190.991926 
Q 626.894175 190.991926 629.031306 190.981426 
Q 631.168437 190.97047 632.867522 190.947643 
L 632.867522 190.534031 
L 623.111056 190.534031 
L 623.111056 190.165614 
L 648 190.165614 
L 648 191.190059 
z
" clip-path="url(#p79121cb349)" style="fill: #ffa600"/>
   </g>
   <g id="patch_37">
    <path d="M 648 188.802209 
Q 643.045592 188.989459 637.688266 189.084172 
Q 632.330939 189.179975 626.496079 189.179975 
Q 609.09596 189.179975 598.933455 188.470167 
Q 588.77095 187.760359 588.77095 186.546501 
Q 588.77095 185.328289 598.933455 184.61957 
Q 609.09596 183.909762 626.496079 183.909762 
Q 632.330939 183.909762 637.688266 184.005565 
Q 643.045592 184.100278 648 184.287528 
L 648 185.338087 
Q 643.000823 185.089872 638.150876 184.974474 
Q 633.300929 184.859075 627.943602 184.859075 
Q 618.333245 184.859075 612.826689 185.308693 
Q 607.335056 185.757222 607.335056 186.546501 
Q 607.335056 187.332515 612.826689 187.782133 
Q 618.333245 188.230661 627.943602 188.230661 
Q 633.300929 188.230661 638.150876 188.115263 
Q 643.000823 187.998776 648 187.750561 
L 648 188.802209 
z
" clip-path="url(#p79121cb349)" style="fill: #0000ff"/>
   </g>
   <g id="patch_38">
    <path d="M 588.77095 47.905984 
L 648 47.905984 
L 648 74.43051 
L 626.691316 74.43051 
L 626.691316 183.909762 
L 610.120956 183.909762 
L 610.120956 74.43051 
L 588.77095 74.43051 
L 588.77095 47.905984 
z
" clip-path="url(#p79121cb349)" style="fill: #ff0000"/>
   </g>
   <g id="matplotlib.axis_1">
    <g id="xtick_1">
     <g id="line2d_2">
      <defs>
       <path id="mec5d91b0e9" d="M 0 0 
L 0 3.5 
" style="stroke: #000000; stroke-width: 0.8"/>
      </defs>
      <g>
       <use xlink:href="#mec5d91b0e9" x="119.614525" y="192.24" style="stroke: #000000; stroke-width: 0.8"/>
      </g>
     </g>
     <g id="text_1">
      <!-- 0 -->
      <g transform="translate(116.433275 206.838437) scale(0.1 -0.1)">
       <defs>
        <path id="DejaVuSans-30" d="M 2034 4250 
Q 1547 4250 1301 3770 
Q 1056 3291 1056 2328 
Q 1056 1369 1301 889 
Q 1547 409 2034 409 
Q 2525 409 2770 889 
Q 3016 1369 3016 2328 
Q 3016 3291 2770 3770 
Q 2525 4250 2034 4250 
z
M 2034 4750 
Q 2819 4750 3233 4129 
Q 3647 3509 3647 2328 
Q 3647 1150 3233 529 
Q 2819 -91 2034 -91 
Q 1250 -91 836 529 
Q 422 1150 422 2328 
Q 422 3509 836 4129 
Q 1250 4750 2034 4750 
z
" transform="scale(0.015625)"/>
       </defs>
       <use xlink:href="#DejaVuSans-30"/>
      </g>
     </g>
    </g>
    <g id="xtick_2">
     <g id="line2d_3">
      <g>
       <use xlink:href="#mec5d91b0e9" x="181.960894" y="192.24" style="stroke: #000000; stroke-width: 0.8"/>
      </g>
     </g>
     <g id="text_2">
      <!-- 1 -->
      <g transform="translate(178.779644 206.838437) scale(0.1 -0.1)">
       <defs>
        <path id="DejaVuSans-31" d="M 794 531 
L 1825 531 
L 1825 4091 
L 703 3866 
L 703 4441 
L 1819 4666 
L 2450 4666 
L 2450 531 
L 3481 531 
L 3481 0 
L 794 0 
L 794 531 
z
" transform="scale(0.015625)"/>
       </defs>
       <use xlink:href="#DejaVuSans-31"/>
      </g>
     </g>
    </g>
    <g id="xtick_3">
     <g id="line2d_4">
      <g>
       <use xlink:href="#mec5d91b0e9" x="244.307263" y="192.24" style="stroke: #000000; stroke-width: 0.8"/>
      </g>
     </g>
     <g id="text_3">
      <!-- 2 -->
      <g transform="translate(241.126013 206.838437) scale(0.1 -0.1)">
       <defs>
        <path id="DejaVuSans-32" d="M 1228 531 
L 3431 531 
L 3431 0 
L 469 0 
L 469 531 
Q 828 903 1448 1529 
Q 2069 2156 2228 2338 
Q 2531 2678 2651 2914 
Q 2772 3150 2772 3378 
Q 2772 3750 2511 3984 
Q 2250 4219 1831 4219 
Q 1534 4219 1204 4116 
Q 875 4013 500 3803 
L 500 4441 
Q 881 4594 1212 4672 
Q 1544 4750 1819 4750 
Q 2544 4750 2975 4387 
Q 3406 4025 3406 3419 
Q 3406 3131 3298 2873 
Q 3191 2616 2906 2266 
Q 2828 2175 2409 1742 
Q 1991 1309 1228 531 
z
" transform="scale(0.015625)"/>
       </defs>
       <use xlink:href="#DejaVuSans-32"/>
      </g>
     </g>
    </g>
    <g id="xtick_4">
     <g id="line2d_5">
      <g>
       <use xlink:href="#mec5d91b0e9" x="306.653631" y="192.24" style="stroke: #000000; stroke-width: 0.8"/>
      </g>
     </g>
     <g id="text_4">
      <!-- 3 -->
      <g transform="translate(303.472381 206.838437) scale(0.1 -0.1)">
       <defs>
        <path id="DejaVuSans-33" d="M 2597 2516 
Q 3050 2419 3304 2112 
Q 3559 1806 3559 1356 
Q 3559 666 3084 287 
Q 2609 -91 1734 -91 
Q 1441 -91 1130 -33 
Q 819 25 488 141 
L 488 750 
Q 750 597 1062 519 
Q 1375 441 1716 441 
Q 2309 441 2620 675 
Q 2931 909 2931 1356 
Q 2931 1769 2642 2001 
Q 2353 2234 1838 2234 
L 1294 2234 
L 1294 2753 
L 1863 2753 
Q 2328 2753 2575 2939 
Q 2822 3125 2822 3475 
Q 2822 3834 2567 4026 
Q 2313 4219 1838 4219 
Q 1578 4219 1281 4162 
Q 984 4106 628 3988 
L 628 4550 
Q 988 4650 1302 4700 
Q 1616 4750 1894 4750 
Q 2613 4750 3031 4423 
Q 3450 4097 3450 3541 
Q 3450 3153 3228 2886 
Q 3006 2619 2597 2516 
z
" transform="scale(0.015625)"/>
       </defs>
       <use xlink:href="#DejaVuSans-33"/>
      </g>
     </g>
    </g>
    <g id="xtick_5">
     <g id="line2d_6">
      <g>
       <use xlink:href="#mec5d91b0e9" x="369" y="192.24" style="stroke: #000000; stroke-width: 0.8"/>
      </g>
     </g>
     <g id="text_5">
      <!-- 4 -->
      <g transform="translate(365.81875 206.838437) scale(0.1 -0.1)">
       <defs>
        <path id="DejaVuSans-34" d="M 2419 4116 
L 825 1625 
L 2419 1625 
L 2419 4116 
z
M 2253 4666 
L 3047 4666 
L 3047 1625 
L 3713 1625 
L 3713 1100 
L 3047 1100 
L 3047 0 
L 2419 0 
L 2419 1100 
L 313 1100 
L 313 1709 
L 2253 4666 
z
" transform="scale(0.015625)"/>
       </defs>
       <use xlink:href="#DejaVuSans-34"/>
      </g>
     </g>
    </g>
    <g id="xtick_6">
     <g id="line2d_7">
      <g>
       <use xlink:href="#mec5d91b0e9" x="431.346369" y="192.24" style="stroke: #000000; stroke-width: 0.8"/>
      </g>
     </g>
     <g id="text_6">
      <!-- 5 -->
      <g transform="translate(428.165119 206.838437) scale(0.1 -0.1)">
       <defs>
        <path id="DejaVuSans-35" d="M 691 4666 
L 3169 4666 
L 3169 4134 
L 1269 4134 
L 1269 2991 
Q 1406 3038 1543 3061 
Q 1681 3084 1819 3084 
Q 2600 3084 3056 2656 
Q 3513 2228 3513 1497 
Q 3513 744 3044 326 
Q 2575 -91 1722 -91 
Q 1428 -91 1123 -41 
Q 819 9 494 109 
L 494 744 
Q 775 591 1075 516 
Q 1375 441 1709 441 
Q 2250 441 2565 725 
Q 2881 1009 2881 1497 
Q 2881 1984 2565 2268 
Q 2250 2553 1709 2553 
Q 1456 2553 1204 2497 
Q 953 2441 691 2322 
L 691 4666 
z
" transform="scale(0.015625)"/>
       </defs>
       <use xlink:href="#DejaVuSans-35"/>
      </g>
     </g>
    </g>
    <g id="xtick_7">
     <g id="line2d_8">
      <g>
       <use xlink:href="#mec5d91b0e9" x="493.692737" y="192.24" style="stroke: #000000; stroke-width: 0.8"/>
      </g>
     </g>
     <g id="text_7">
      <!-- 6 -->
      <g transform="translate(490.511487 206.838437) scale(0.1 -0.1)">
       <defs>
        <path id="DejaVuSans-36" d="M 2113 2584 
Q 1688 2584 1439 2293 
Q 1191 2003 1191 1497 
Q 1191 994 1439 701 
Q 1688 409 2113 409 
Q 2538 409 2786 701 
Q 3034 994 3034 1497 
Q 3034 2003 2786 2293 
Q 2538 2584 2113 2584 
z
M 3366 4563 
L 3366 3988 
Q 3128 4100 2886 4159 
Q 2644 4219 2406 4219 
Q 1781 4219 1451 3797 
Q 1122 3375 1075 2522 
Q 1259 2794 1537 2939 
Q 1816 3084 2150 3084 
Q 2853 3084 3261 2657 
Q 3669 2231 3669 1497 
Q 3669 778 3244 343 
Q 2819 -91 2113 -91 
Q 1303 -91 875 529 
Q 447 1150 447 2328 
Q 447 3434 972 4092 
Q 1497 4750 2381 4750 
Q 2619 4750 2861 4703 
Q 3103 4656 3366 4563 
z
" transform="scale(0.015625)"/>
       </defs>
       <use xlink:href="#DejaVuSans-36"/>
      </g>
     </g>
    </g>
    <g id="xtick_8">
     <g id="line2d_9">
      <g>
       <use xlink:href="#mec5d91b0e9" x="556.039106" y="192.24" style="stroke: #000000; stroke-width: 0.8"/>
      </g>
     </g>
     <g id="text_8">
      <!-- 7 -->
      <g transform="translate(552.857856 206.838437) scale(0.1 -0.1)">
       <defs>
        <path id="DejaVuSans-37" d="M 525 4666 
L 3525 4666 
L 3525 4397 
L 1831 0 
L 1172 0 
L 2766 4134 
L 525 4134 
L 525 4666 
z
" transform="scale(0.015625)"/>
       </defs>
       <use xlink:href="#DejaVuSans-37"/>
      </g>
     </g>
    </g>
    <g id="xtick_9">
     <g id="line2d_10">
      <g>
       <use xlink:href="#mec5d91b0e9" x="618.385475" y="192.24" style="stroke: #000000; stroke-width: 0.8"/>
      </g>
     </g>
     <g id="text_9">
      <!-- 8 -->
      <g transform="translate(615.204225 206.838437) scale(0.1 -0.1)">
       <defs>
        <path id="DejaVuSans-38" d="M 2034 2216 
Q 1584 2216 1326 1975 
Q 1069 1734 1069 1313 
Q 1069 891 1326 650 
Q 1584 409 2034 409 
Q 2484 409 2743 651 
Q 3003 894 3003 1313 
Q 3003 1734 2745 1975 
Q 2488 2216 2034 2216 
z
M 1403 2484 
Q 997 2584 770 2862 
Q 544 3141 544 3541 
Q 544 4100 942 4425 
Q 1341 4750 2034 4750 
Q 2731 4750 3128 4425 
Q 3525 4100 3525 3541 
Q 3525 3141 3298 2862 
Q 3072 2584 2669 2484 
Q 3125 2378 3379 2068 
Q 3634 1759 3634 1313 
Q 3634 634 3220 271 
Q 2806 -91 2034 -91 
Q 1263 -91 848 271 
Q 434 634 434 1313 
Q 434 1759 690 2068 
Q 947 2378 1403 2484 
z
M 1172 3481 
Q 1172 3119 1398 2916 
Q 1625 2713 2034 2713 
Q 2441 2713 2670 2916 
Q 2900 3119 2900 3481 
Q 2900 3844 2670 4047 
Q 2441 4250 2034 4250 
Q 1625 4250 1398 4047 
Q 1172 3844 1172 3481 
z
" transform="scale(0.015625)"/>
       </defs>
       <use xlink:href="#DejaVuSans-38"/>
      </g>
     </g>
    </g>
   </g>
   <g id="matplotlib.axis_2">
    <g id="ytick_1">
     <g id="line2d_11">
      <defs>
       <path id="m7f1f6873cd" d="M 0 0 
L -3.5 0 
" style="stroke: #000000; stroke-width: 0.8"/>
      </defs>
      <g>
       <use xlink:href="#m7f1f6873cd" x="90" y="192.24" style="stroke: #000000; stroke-width: 0.8"/>
      </g>
     </g>
     <g id="text_10">
      <!-- 0.00 -->
      <g transform="translate(60.734375 196.039219) scale(0.1 -0.1)">
       <defs>
        <path id="DejaVuSans-2e" d="M 684 794 
L 1344 794 
L 1344 0 
L 684 0 
L 684 794 
z
" transform="scale(0.015625)"/>
       </defs>
       <use xlink:href="#DejaVuSans-30"/>
       <use xlink:href="#DejaVuSans-2e" x="63.623047"/>
       <use xlink:href="#DejaVuSans-30" x="95.410156"/>
       <use xlink:href="#DejaVuSans-30" x="159.033203"/>
      </g>
     </g>
    </g>
    <g id="ytick_2">
     <g id="line2d_12">
      <g>
       <use xlink:href="#m7f1f6873cd" x="90" y="169.809897" style="stroke: #000000; stroke-width: 0.8"/>
      </g>
     </g>
     <g id="text_11">
      <!-- 0.25 -->
      <g transform="translate(60.734375 173.609116) scale(0.1 -0.1)">
       <use xlink:href="#DejaVuSans-30"/>
       <use xlink:href="#DejaVuSans-2e" x="63.623047"/>
       <use xlink:href="#DejaVuSans-32" x="95.410156"/>
       <use xlink:href="#DejaVuSans-35" x="159.033203"/>
      </g>
     </g>
    </g>
    <g id="ytick_3">
     <g id="line2d_13">
      <g>
       <use xlink:href="#m7f1f6873cd" x="90" y="147.379794" style="stroke: #000000; stroke-width: 0.8"/>
      </g>
     </g>
     <g id="text_12">
      <!-- 0.50 -->
      <g transform="translate(60.734375 151.179013) scale(0.1 -0.1)">
       <use xlink:href="#DejaVuSans-30"/>
       <use xlink:href="#DejaVuSans-2e" x="63.623047"/>
       <use xlink:href="#DejaVuSans-35" x="95.410156"/>
       <use xlink:href="#DejaVuSans-30" x="159.033203"/>
      </g>
     </g>
    </g>
    <g id="ytick_4">
     <g id="line2d_14">
      <g>
       <use xlink:href="#m7f1f6873cd" x="90" y="124.949691" style="stroke: #000000; stroke-width: 0.8"/>
      </g>
     </g>
     <g id="text_13">
      <!-- 0.75 -->
      <g transform="translate(60.734375 128.748909) scale(0.1 -0.1)">
       <use xlink:href="#DejaVuSans-30"/>
       <use xlink:href="#DejaVuSans-2e" x="63.623047"/>
       <use xlink:href="#DejaVuSans-37" x="95.410156"/>
       <use xlink:href="#DejaVuSans-35" x="159.033203"/>
      </g>
     </g>
    </g>
    <g id="ytick_5">
     <g id="line2d_15">
      <g>
       <use xlink:href="#m7f1f6873cd" x="90" y="102.519588" style="stroke: #000000; stroke-width: 0.8"/>
      </g>
     </g>
     <g id="text_14">
      <!-- 1.00 -->
      <g transform="translate(60.734375 106.318806) scale(0.1 -0.1)">
       <use xlink:href="#DejaVuSans-31"/>
       <use xlink:href="#DejaVuSans-2e" x="63.623047"/>
       <use xlink:href="#DejaVuSans-30" x="95.410156"/>
       <use xlink:href="#DejaVuSans-30" x="159.033203"/>
      </g>
     </g>
    </g>
    <g id="ytick_6">
     <g id="line2d_16">
      <g>
       <use xlink:href="#m7f1f6873cd" x="90" y="80.089484" style="stroke: #000000; stroke-width: 0.8"/>
      </g>
     </g>
     <g id="text_15">
      <!-- 1.25 -->
      <g transform="translate(60.734375 83.888703) scale(0.1 -0.1)">
       <use xlink:href="#DejaVuSans-31"/>
       <use xlink:href="#DejaVuSans-2e" x="63.623047"/>
       <use xlink:href="#DejaVuSans-32" x="95.410156"/>
       <use xlink:href="#DejaVuSans-35" x="159.033203"/>
      </g>
     </g>
    </g>
    <g id="ytick_7">
     <g id="line2d_17">
      <g>
       <use xlink:href="#m7f1f6873cd" x="90" y="57.659381" style="stroke: #000000; stroke-width: 0.8"/>
      </g>
     </g>
     <g id="text_16">
      <!-- 1.50 -->
      <g transform="translate(60.734375 61.4586) scale(0.1 -0.1)">
       <use xlink:href="#DejaVuSans-31"/>
       <use xlink:href="#DejaVuSans-2e" x="63.623047"/>
       <use xlink:href="#DejaVuSans-35" x="95.410156"/>
       <use xlink:href="#DejaVuSans-30" x="159.033203"/>
      </g>
     </g>
    </g>
    <g id="ytick_8">
     <g id="line2d_18">
      <g>
       <use xlink:href="#m7f1f6873cd" x="90" y="35.229278" style="stroke: #000000; stroke-width: 0.8"/>
      </g>
     </g>
     <g id="text_17">
      <!-- 1.75 -->
      <g transform="translate(60.734375 39.028497) scale(0.1 -0.1)">
       <use xlink:href="#DejaVuSans-31"/>
       <use xlink:href="#DejaVuSans-2e" x="63.623047"/>
       <use xlink:href="#DejaVuSans-37" x="95.410156"/>
       <use xlink:href="#DejaVuSans-35" x="159.033203"/>
      </g>
     </g>
    </g>
   </g>
  </g>
 </g>
 <defs>
  <clipPath id="p79121cb349">
   <rect x="90" y="25.92" width="558" height="166.32"/>
  </clipPath>
 </defs>
</svg>
