<?xml version="1.0" encoding="utf-8" standalone="no"?>
<!DOCTYPE svg PUBLIC "-//W3C//DTD SVG 1.1//EN"
  "http://www.w3.org/Graphics/SVG/1.1/DTD/svg11.dtd">
<svg xmlns:xlink="http://www.w3.org/1999/xlink" width="720pt" height="216pt" viewBox="0 0 720 216" xmlns="http://www.w3.org/2000/svg" version="1.1">
 <metadata>
  <rdf:RDF xmlns:dc="http://purl.org/dc/elements/1.1/" xmlns:cc="http://creativecommons.org/ns#" xmlns:rdf="http://www.w3.org/1999/02/22-rdf-syntax-ns#">
   <cc:Work>
    <dc:type rdf:resource="http://purl.org/dc/dcmitype/StillImage"/>
    <dc:date>2024-11-23T05:03:02.911871</dc:date>
    <dc:format>image/svg+xml</dc:format>
    <dc:creator>
     <cc:Agent>
      <dc:title>Matplotlib v3.7.2, https://matplotlib.org/</dc:title>
     </cc:Agent>
    </dc:creator>
   </cc:Work>
  </rdf:RDF>
 </metadata>
 <defs>
  <style type="text/css">*{stroke-linejoin: round; stroke-linecap: butt}</style>
 </defs>
 <g id="figure_1">
  <g id="patch_1">
   <path d="M 0 216 
L 720 216 
L 720 0 
L 0 0 
z
" style="fill: #ffffff"/>
  </g>
  <g id="axes_1">
   <g id="patch_2">
    <path d="M 90 192.24 
L 648 192.24 
L 648 25.92 
L 90 25.92 
z
" style="fill: #ffffff"/>
   </g>
   <g id="line2d_1">
    <path d="M 90 192.24 
L 648 192.24 
" clip-path="url(#p4d27840ce1)" style="fill: none; stroke: #000000; stroke-width: 0.5; stroke-linecap: square"/>
   </g>
   <g id="patch_3">
    <path d="M 90 189.418846 
L 128 189.418846 
L 128 189.96905 
L 114.328837 189.96905 
L 114.328837 192.24 
L 103.697674 192.24 
L 103.697674 189.96905 
L 90 189.96905 
L 90 189.418846 
z
" clip-path="url(#p4d27840ce1)" style="fill: #ff0000"/>
   </g>
   <g id="patch_4">
    <path d="M 128 189.02431 
Q 124.821366 189.219873 121.384228 189.318791 
Q 117.94709 189.418846 114.203578 189.418846 
Q 103.04006 189.418846 96.52003 188.677528 
Q 90 187.936209 90 186.668463 
Q 90 185.396169 96.52003 184.655987 
Q 103.04006 183.914669 114.203578 183.914669 
Q 117.94709 183.914669 121.384228 184.014724 
Q 124.821366 184.113642 128 184.309205 
L 128 185.406402 
Q 124.792643 185.147168 121.681028 185.026647 
Q 118.569413 184.906126 115.132275 184.906126 
Q 108.96649 184.906126 105.43361 185.375703 
Q 101.910305 185.844144 101.910305 186.668463 
Q 101.910305 187.489371 105.43361 187.958949 
Q 108.96649 188.427389 115.132275 188.427389 
Q 118.569413 188.427389 121.681028 188.306868 
Q 124.792643 188.18521 128 187.925976 
L 128 189.02431 
z
" clip-path="url(#p4d27840ce1)" style="fill: #0000ff"/>
   </g>
   <g id="patch_5">
    <path d="M 116.322633 182.23633 
L 101.708444 182.23633 
L 99.400941 183.914669 
L 90 183.914669 
L 103.425475 174.701576 
L 114.574525 174.701576 
L 128 183.914669 
L 118.606829 183.914669 
L 116.322633 182.23633 
z
M 104.039256 180.526399 
L 113.968514 180.526399 
L 109.011654 176.861697 
L 104.039256 180.526399 
z
" clip-path="url(#p4d27840ce1)" style="fill: #008000"/>
   </g>
   <g id="patch_6">
    <path d="M 128 172.025924 
Q 124.167638 173.36375 120.045719 174.035718 
Q 115.923801 174.701576 111.529359 174.701576 
Q 101.599283 174.701576 95.799641 170.718643 
Q 90 166.735709 90 159.924404 
Q 90 153.033685 95.901838 149.081295 
Q 101.812192 145.128906 112.091439 145.128906 
Q 116.051546 145.128906 119.679516 145.66648 
Q 123.316002 146.197945 126.535186 147.248657 
L 126.535186 153.143643 
Q 123.213805 151.7936 119.92649 151.127741 
Q 116.639175 150.455774 113.334827 150.455774 
Q 107.220081 150.455774 103.907216 152.911509 
Q 100.594352 155.361135 100.594352 159.924404 
Q 100.594352 164.444911 103.787987 166.912864 
Q 106.981623 169.374708 112.857911 169.374708 
Q 114.458987 169.374708 115.830121 169.234206 
Q 117.201255 169.087595 118.291349 168.782155 
L 118.291349 163.247588 
L 112.031824 163.247588 
L 112.031824 158.317791 
L 128 158.317791 
L 128 172.025924 
z
" clip-path="url(#p4d27840ce1)" style="fill: #ffa600"/>
   </g>
   <g id="patch_7">
    <path d="M 130 188.01138 
L 168 188.01138 
L 168 188.836079 
L 154.328837 188.836079 
L 154.328837 192.24 
L 143.697674 192.24 
L 143.697674 188.836079 
L 130 188.836079 
L 130 188.01138 
z
" clip-path="url(#p4d27840ce1)" style="fill: #ff0000"/>
   </g>
   <g id="patch_8">
    <path d="M 156.322633 186.915403 
L 141.708444 186.915403 
L 139.400941 188.01138 
L 130 188.01138 
L 143.425475 181.995111 
L 154.574525 181.995111 
L 168 188.01138 
L 158.606829 188.01138 
L 156.322633 186.915403 
z
M 144.039256 185.798796 
L 153.968514 185.798796 
L 149.011654 183.405698 
L 144.039256 185.798796 
z
" clip-path="url(#p4d27840ce1)" style="fill: #008000"/>
   </g>
   <g id="patch_9">
    <path d="M 168 181.420943 
Q 164.821366 181.705545 161.384228 181.8495 
Q 157.94709 181.995111 154.203578 181.995111 
Q 143.04006 181.995111 136.52003 180.91627 
Q 130 179.83743 130 177.99248 
Q 130 176.140912 136.52003 175.063726 
Q 143.04006 173.984885 154.203578 173.984885 
Q 157.94709 173.984885 161.384228 174.130496 
Q 164.821366 174.274451 168 174.559053 
L 168 176.155804 
Q 164.792643 175.77854 161.681028 175.603146 
Q 158.569413 175.427752 155.132275 175.427752 
Q 148.96649 175.427752 145.43361 176.111128 
Q 141.910305 176.792849 141.910305 177.99248 
Q 141.910305 179.187147 145.43361 179.870523 
Q 148.96649 180.552244 155.132275 180.552244 
Q 158.569413 180.552244 161.681028 180.37685 
Q 164.792643 180.199801 168 179.822538 
L 168 181.420943 
z
" clip-path="url(#p4d27840ce1)" style="fill: #0000ff"/>
   </g>
   <g id="patch_10">
    <path d="M 168 168.208708 
Q 164.167638 171.096797 160.045719 172.547435 
Q 155.923801 173.984885 151.529359 173.984885 
Q 141.599283 173.984885 135.799641 165.386558 
Q 130 156.78823 130 142.084035 
Q 130 127.208401 135.901838 118.676011 
Q 141.812192 110.143622 152.091439 110.143622 
Q 156.051546 110.143622 159.679516 111.304132 
Q 163.316002 112.451455 166.535186 114.719726 
L 166.535186 127.445778 
Q 163.213805 124.531314 159.92649 123.093864 
Q 156.639175 121.643226 153.334827 121.643226 
Q 147.220081 121.643226 143.907216 126.944648 
Q 140.594352 132.232884 140.594352 142.084035 
Q 140.594352 151.842873 143.787987 157.170671 
Q 146.981623 162.485281 152.857911 162.485281 
Q 154.458987 162.485281 155.830121 162.181966 
Q 157.201255 161.865463 158.291349 161.206082 
L 158.291349 149.2581 
L 152.031824 149.2581 
L 152.031824 138.615691 
L 168 138.615691 
L 168 168.208708 
z
" clip-path="url(#p4d27840ce1)" style="fill: #ffa600"/>
   </g>
   <g id="patch_11">
    <path d="M 196.322633 191.88268 
L 181.708444 191.88268 
L 179.400941 192.24 
L 170 192.24 
L 183.425475 190.278524 
L 194.574525 190.278524 
L 208 192.24 
L 198.606829 192.24 
L 196.322633 191.88268 
z
M 184.039256 191.518634 
L 193.968514 191.518634 
L 189.011654 190.738416 
L 184.039256 191.518634 
z
" clip-path="url(#p4d27840ce1)" style="fill: #008000"/>
   </g>
   <g id="patch_12">
    <path d="M 208 189.958476 
Q 204.167638 190.1185 200.045719 190.198878 
Q 195.923801 190.278524 191.529359 190.278524 
Q 181.599283 190.278524 175.799641 189.802105 
Q 170 189.325685 170 188.51095 
Q 170 187.686715 175.901838 187.213949 
Q 181.812192 186.741183 192.091439 186.741183 
Q 196.051546 186.741183 199.679516 186.805485 
Q 203.316002 186.869056 206.535186 186.994737 
L 206.535186 187.699867 
Q 203.213805 187.538381 199.92649 187.458735 
Q 196.639175 187.378357 193.334827 187.378357 
Q 187.220081 187.378357 183.907216 187.6721 
Q 180.594352 187.965113 180.594352 188.51095 
Q 180.594352 189.051671 183.787987 189.346876 
Q 186.981623 189.64135 192.857911 189.64135 
Q 194.458987 189.64135 195.830121 189.624544 
Q 197.201255 189.607007 198.291349 189.570471 
L 198.291349 188.908453 
L 192.031824 188.908453 
L 192.031824 188.318774 
L 208 188.318774 
L 208 189.958476 
z
" clip-path="url(#p4d27840ce1)" style="fill: #ffa600"/>
   </g>
   <g id="patch_13">
    <path d="M 170 170.98232 
L 208 170.98232 
L 208 174.055738 
L 194.328837 174.055738 
L 194.328837 186.741183 
L 183.697674 186.741183 
L 183.697674 174.055738 
L 170 174.055738 
L 170 170.98232 
z
" clip-path="url(#p4d27840ce1)" style="fill: #ff0000"/>
   </g>
   <g id="patch_14">
    <path d="M 208 169.636431 
Q 204.821366 170.303558 201.384228 170.641 
Q 197.94709 170.98232 194.203578 170.98232 
Q 183.04006 170.98232 176.52003 168.453444 
Q 170 165.924568 170 161.599878 
Q 170 157.259675 176.52003 154.734677 
Q 183.04006 152.2058 194.203578 152.2058 
Q 197.94709 152.2058 201.384228 152.547121 
Q 204.821366 152.884563 208 153.55169 
L 208 157.294583 
Q 204.792643 156.410252 201.681028 155.999115 
Q 198.569413 155.587979 195.132275 155.587979 
Q 188.96649 155.587979 185.43361 157.189859 
Q 181.910305 158.787861 181.910305 161.599878 
Q 181.910305 164.40026 185.43361 166.00214 
Q 188.96649 167.600142 195.132275 167.600142 
Q 198.569413 167.600142 201.681028 167.189006 
Q 204.792643 166.773991 208 165.88966 
L 208 169.636431 
z
" clip-path="url(#p4d27840ce1)" style="fill: #0000ff"/>
   </g>
   <g id="patch_15">
    <path d="M 210 190.126774 
L 248 190.126774 
L 248 190.538912 
L 234.328837 190.538912 
L 234.328837 192.24 
L 223.697674 192.24 
L 223.697674 190.538912 
L 210 190.538912 
L 210 190.126774 
z
" clip-path="url(#p4d27840ce1)" style="fill: #ff0000"/>
   </g>
   <g id="patch_16">
    <path d="M 248 189.838484 
Q 244.821366 189.981383 241.384228 190.053663 
Q 237.94709 190.126774 234.203578 190.126774 
Q 223.04006 190.126774 216.52003 189.585088 
Q 210 189.043401 210 188.117051 
Q 210 187.187378 216.52003 186.646522 
Q 223.04006 186.104836 234.203578 186.104836 
Q 237.94709 186.104836 241.384228 186.177947 
Q 244.821366 186.250227 248 186.393126 
L 248 187.194855 
Q 244.792643 187.005431 241.681028 186.917365 
Q 238.569413 186.8293 235.132275 186.8293 
Q 228.96649 186.8293 225.43361 187.172423 
Q 221.910305 187.514716 221.910305 188.117051 
Q 221.910305 188.716894 225.43361 189.060018 
Q 228.96649 189.40231 235.132275 189.40231 
Q 238.569413 189.40231 241.681028 189.314245 
Q 244.792643 189.225348 248 189.035924 
L 248 189.838484 
z
" clip-path="url(#p4d27840ce1)" style="fill: #0000ff"/>
   </g>
   <g id="patch_17">
    <path d="M 248 184.741785 
Q 244.167638 185.42331 240.045719 185.765629 
Q 235.923801 186.104836 231.529359 186.104836 
Q 221.599283 186.104836 215.799641 184.075819 
Q 210 182.046803 210 178.576935 
Q 210 175.066612 215.901838 173.053156 
Q 221.812192 171.039699 232.091439 171.039699 
Q 236.051546 171.039699 239.679516 171.313554 
Q 243.316002 171.584297 246.535186 172.119559 
L 246.535186 175.122628 
Q 243.213805 174.434878 239.92649 174.095672 
Q 236.639175 173.753353 233.334827 173.753353 
Q 227.220081 173.753353 223.907216 175.004372 
Q 220.594352 176.25228 220.594352 178.576935 
Q 220.594352 180.879807 223.787987 182.13705 
Q 226.981623 183.391182 232.857911 183.391182 
Q 234.458987 183.391182 235.830121 183.319606 
Q 237.201255 183.244918 238.291349 183.089319 
L 238.291349 180.269857 
L 232.031824 180.269857 
L 232.031824 177.758482 
L 248 177.758482 
L 248 184.741785 
z
" clip-path="url(#p4d27840ce1)" style="fill: #ffa600"/>
   </g>
   <g id="patch_18">
    <path d="M 236.322633 165.016923 
L 221.708444 165.016923 
L 219.400941 171.039699 
L 210 171.039699 
L 223.425475 137.978203 
L 234.574525 137.978203 
L 248 171.039699 
L 238.606829 171.039699 
L 236.322633 165.016923 
z
M 224.039256 158.880778 
L 233.968514 158.880778 
L 229.011654 145.72987 
L 224.039256 158.880778 
z
" clip-path="url(#p4d27840ce1)" style="fill: #008000"/>
   </g>
   <g id="patch_19">
    <path d="M 276.322633 191.938244 
L 261.708444 191.938244 
L 259.400941 192.24 
L 250 192.24 
L 263.425475 190.583536 
L 274.574525 190.583536 
L 288 192.24 
L 278.606829 192.24 
L 276.322633 191.938244 
z
M 264.039256 191.630808 
L 273.968514 191.630808 
L 269.011654 190.971914 
L 264.039256 191.630808 
z
" clip-path="url(#p4d27840ce1)" style="fill: #008000"/>
   </g>
   <g id="patch_20">
    <path d="M 288 190.361634 
Q 284.821366 190.471626 281.384228 190.527261 
Q 277.94709 190.583536 274.203578 190.583536 
Q 263.04006 190.583536 256.52003 190.166591 
Q 250 189.749646 250 189.036619 
Q 250 188.321034 256.52003 187.904728 
Q 263.04006 187.487783 274.203578 187.487783 
Q 277.94709 187.487783 281.384228 187.544058 
Q 284.821366 187.599693 288 187.709685 
L 288 188.326789 
Q 284.792643 188.180986 281.681028 188.1132 
Q 278.569413 188.045415 275.132275 188.045415 
Q 268.96649 188.045415 265.43361 188.309523 
Q 261.910305 188.572991 261.910305 189.036619 
Q 261.910305 189.498328 265.43361 189.762436 
Q 268.96649 190.025904 275.132275 190.025904 
Q 278.569413 190.025904 281.681028 189.958119 
Q 284.792643 189.889694 288 189.743891 
L 288 190.361634 
z
" clip-path="url(#p4d27840ce1)" style="fill: #0000ff"/>
   </g>
   <g id="patch_21">
    <path d="M 250 167.664235 
L 288 167.664235 
L 288 171.530379 
L 274.328837 171.530379 
L 274.328837 187.487783 
L 263.697674 187.487783 
L 263.697674 171.530379 
L 250 171.530379 
L 250 167.664235 
z
" clip-path="url(#p4d27840ce1)" style="fill: #ff0000"/>
   </g>
   <g id="patch_22">
    <path d="M 288 164.020565 
Q 284.167638 165.8424 280.045719 166.757477 
Q 275.923801 167.664235 271.529359 167.664235 
Q 261.599283 167.664235 255.799641 162.240324 
Q 250 156.816414 250 147.540861 
Q 250 138.157162 255.901838 132.774846 
Q 261.812192 127.392529 272.091439 127.392529 
Q 276.051546 127.392529 279.679516 128.124591 
Q 283.316002 128.848333 286.535186 130.279181 
L 286.535186 138.306902 
Q 283.213805 136.468429 279.92649 135.561671 
Q 276.639175 134.646594 273.334827 134.646594 
Q 267.220081 134.646594 263.907216 137.990784 
Q 260.594352 141.326656 260.594352 147.540861 
Q 260.594352 153.696833 263.787987 157.057661 
Q 266.981623 160.41017 272.857911 160.41017 
Q 274.458987 160.41017 275.830121 160.218836 
Q 277.201255 160.019183 278.291349 159.603239 
L 278.291349 152.066332 
L 272.031824 152.066332 
L 272.031824 145.352995 
L 288 145.352995 
L 288 164.020565 
z
" clip-path="url(#p4d27840ce1)" style="fill: #ffa600"/>
   </g>
   <g id="patch_23">
    <path d="M 328 192.112804 
Q 324.167638 192.176402 320.045719 192.208346 
Q 315.923801 192.24 311.529359 192.24 
Q 301.599283 192.24 295.799641 192.050658 
Q 290 191.861315 290 191.537517 
Q 290 191.209943 295.901838 191.022053 
Q 301.812192 190.834163 312.091439 190.834163 
Q 316.051546 190.834163 319.679516 190.859718 
Q 323.316002 190.884983 326.535186 190.934932 
L 326.535186 191.21517 
Q 323.213805 191.150992 319.92649 191.119338 
Q 316.639175 191.087393 313.334827 191.087393 
Q 307.220081 191.087393 303.907216 191.204135 
Q 300.594352 191.320586 300.594352 191.537517 
Q 300.594352 191.752415 303.787987 191.869737 
Q 306.981623 191.986769 312.857911 191.986769 
Q 314.458987 191.986769 315.830121 191.98009 
Q 317.201255 191.97312 318.291349 191.9586 
L 318.291349 191.695496 
L 312.031824 191.695496 
L 312.031824 191.461141 
L 328 191.461141 
L 328 192.112804 
z
" clip-path="url(#p4d27840ce1)" style="fill: #ffa600"/>
   </g>
   <g id="patch_24">
    <path d="M 316.322633 190.391819 
L 301.708444 190.391819 
L 299.400941 190.834163 
L 290 190.834163 
L 303.425475 188.405954 
L 314.574525 188.405954 
L 328 190.834163 
L 318.606829 190.834163 
L 316.322633 190.391819 
z
M 304.039256 189.941148 
L 313.968514 189.941148 
L 309.011654 188.975277 
L 304.039256 189.941148 
z
" clip-path="url(#p4d27840ce1)" style="fill: #008000"/>
   </g>
   <g id="patch_25">
    <path d="M 290 185.210966 
L 328 185.210966 
L 328 185.834078 
L 314.328837 185.834078 
L 314.328837 188.405954 
L 303.697674 188.405954 
L 303.697674 185.834078 
L 290 185.834078 
L 290 185.210966 
z
" clip-path="url(#p4d27840ce1)" style="fill: #ff0000"/>
   </g>
   <g id="patch_26">
    <path d="M 328 174.777043 
Q 324.821366 179.948901 321.384228 182.564899 
Q 317.94709 185.210966 314.203578 185.210966 
Q 303.04006 185.210966 296.52003 165.606015 
Q 290 146.001065 290 112.474194 
Q 290 78.827047 296.52003 59.252165 
Q 303.04006 39.647215 314.203578 39.647215 
Q 317.94709 39.647215 321.384228 42.293282 
Q 324.821366 44.90928 328 50.081138 
L 328 79.097667 
Q 324.792643 72.241949 321.681028 69.054641 
Q 318.569413 65.867333 315.132275 65.867333 
Q 308.96649 65.867333 305.43361 78.285806 
Q 301.910305 90.67421 301.910305 112.474194 
Q 301.910305 134.18397 305.43361 146.602444 
Q 308.96649 158.990848 315.132275 158.990848 
Q 318.569413 158.990848 321.681028 155.80354 
Q 324.792643 152.586163 328 145.730444 
L 328 174.777043 
z
" clip-path="url(#p4d27840ce1)" style="fill: #0000ff"/>
   </g>
   <g id="patch_27">
    <path d="M 330 191.348949 
L 368 191.348949 
L 368 191.522729 
L 354.328837 191.522729 
L 354.328837 192.24 
L 343.697674 192.24 
L 343.697674 191.522729 
L 330 191.522729 
L 330 191.348949 
z
" clip-path="url(#p4d27840ce1)" style="fill: #ff0000"/>
   </g>
   <g id="patch_28">
    <path d="M 368 191.165318 
Q 364.821366 191.25634 361.384228 191.30238 
Q 357.94709 191.348949 354.203578 191.348949 
Q 343.04006 191.348949 336.52003 191.003913 
Q 330 190.658877 330 190.068823 
Q 330 189.476653 336.52003 189.132146 
Q 343.04006 188.78711 354.203578 188.78711 
Q 357.94709 188.78711 361.384228 188.83368 
Q 364.821366 188.87972 368 188.970741 
L 368 189.481416 
Q 364.792643 189.360759 361.681028 189.304664 
Q 358.569413 189.248569 355.132275 189.248569 
Q 348.96649 189.248569 345.43361 189.467127 
Q 341.910305 189.685156 341.910305 190.068823 
Q 341.910305 190.450903 345.43361 190.669461 
Q 348.96649 190.88749 355.132275 190.88749 
Q 358.569413 190.88749 361.681028 190.831395 
Q 364.792643 190.774771 368 190.654114 
L 368 191.165318 
z
" clip-path="url(#p4d27840ce1)" style="fill: #0000ff"/>
   </g>
   <g id="patch_29">
    <path d="M 356.322633 183.709358 
L 341.708444 183.709358 
L 339.400941 188.78711 
L 330 188.78711 
L 343.425475 160.913236 
L 354.574525 160.913236 
L 368 188.78711 
L 358.606829 188.78711 
L 356.322633 183.709358 
z
M 344.039256 178.536024 
L 353.968514 178.536024 
L 349.011654 167.448602 
L 344.039256 178.536024 
z
" clip-path="url(#p4d27840ce1)" style="fill: #008000"/>
   </g>
   <g id="patch_30">
    <path d="M 368 157.731197 
Q 364.167638 159.322216 360.045719 160.121358 
Q 355.923801 160.913236 351.529359 160.913236 
Q 341.599283 160.913236 335.799641 156.176502 
Q 330 151.439768 330 143.339372 
Q 330 135.144532 335.901838 130.444123 
Q 341.812192 125.743714 352.091439 125.743714 
Q 356.051546 125.743714 359.679516 126.383027 
Q 363.316002 127.015076 366.535186 128.264644 
L 366.535186 135.275301 
Q 363.213805 133.669751 359.92649 132.877874 
Q 356.639175 132.078732 353.334827 132.078732 
Q 347.220081 132.078732 343.907216 134.999233 
Q 340.594352 137.91247 340.594352 143.339372 
Q 340.594352 148.71542 343.787987 151.650451 
Q 346.981623 154.578217 352.857911 154.578217 
Q 354.458987 154.578217 355.830121 154.411124 
Q 357.201255 154.236766 358.291349 153.873519 
L 358.291349 147.291493 
L 352.031824 147.291493 
L 352.031824 141.428696 
L 368 141.428696 
L 368 157.731197 
z
" clip-path="url(#p4d27840ce1)" style="fill: #ffa600"/>
   </g>
   <g id="patch_31">
    <path d="M 370 191.543453 
L 408 191.543453 
L 408 191.679299 
L 394.328837 191.679299 
L 394.328837 192.24 
L 383.697674 192.24 
L 383.697674 191.679299 
L 370 191.679299 
L 370 191.543453 
z
" clip-path="url(#p4d27840ce1)" style="fill: #ff0000"/>
   </g>
   <g id="patch_32">
    <path d="M 396.322633 191.315064 
L 381.708444 191.315064 
L 379.400941 191.543453 
L 370 191.543453 
L 383.425475 190.289734 
L 394.574525 190.289734 
L 408 191.543453 
L 398.606829 191.543453 
L 396.322633 191.315064 
z
M 384.039256 191.082376 
L 393.968514 191.082376 
L 389.011654 190.583683 
L 384.039256 191.082376 
z
" clip-path="url(#p4d27840ce1)" style="fill: #008000"/>
   </g>
   <g id="patch_33">
    <path d="M 408 190.15993 
Q 404.821366 190.224271 401.384228 190.256815 
Q 397.94709 190.289734 394.203578 190.289734 
Q 383.04006 190.289734 376.52003 190.045838 
Q 370 189.801942 370 189.38485 
Q 370 188.966261 376.52003 188.722739 
Q 383.04006 188.478843 394.203578 188.478843 
Q 397.94709 188.478843 401.384228 188.511762 
Q 404.821366 188.544306 408 188.608647 
L 408 188.969628 
Q 404.792643 188.884339 401.681028 188.844687 
Q 398.569413 188.805035 395.132275 188.805035 
Q 388.96649 188.805035 385.43361 188.959528 
Q 381.910305 189.113646 381.910305 189.38485 
Q 381.910305 189.654931 385.43361 189.809423 
Q 388.96649 189.963541 395.132275 189.963541 
Q 398.569413 189.963541 401.681028 189.92389 
Q 404.792643 189.883864 408 189.798575 
L 408 190.15993 
z
" clip-path="url(#p4d27840ce1)" style="fill: #0000ff"/>
   </g>
   <g id="patch_34">
    <path d="M 408 173.770979 
Q 404.167638 181.124911 400.045719 184.818667 
Q 395.923801 188.478843 391.529359 188.478843 
Q 381.599283 188.478843 375.799641 166.584944 
Q 370 144.691045 370 107.249791 
Q 370 69.372002 375.901838 47.646001 
Q 381.812192 25.92 392.091439 25.92 
Q 396.051546 25.92 399.679516 28.875005 
Q 403.316002 31.79643 406.535186 37.572121 
L 406.535186 69.976435 
Q 403.213805 62.555344 399.92649 58.895167 
Q 396.639175 55.201411 393.334827 55.201411 
Q 387.220081 55.201411 383.907216 68.70041 
Q 380.594352 82.16583 380.594352 107.249791 
Q 380.594352 132.098695 383.787987 145.664853 
Q 386.981623 159.197432 392.857911 159.197432 
Q 394.458987 159.197432 395.830121 158.425101 
Q 397.201255 157.619191 398.291349 155.940211 
L 398.291349 125.517093 
L 392.031824 125.517093 
L 392.031824 98.418356 
L 408 98.418356 
L 408 173.770979 
z
" clip-path="url(#p4d27840ce1)" style="fill: #ffa600"/>
   </g>
   <g id="patch_35">
    <path d="M 436.322633 191.972036 
L 421.708444 191.972036 
L 419.400941 192.24 
L 410 192.24 
L 423.425475 190.769033 
L 434.574525 190.769033 
L 448 192.24 
L 438.606829 192.24 
L 436.322633 191.972036 
z
M 424.039256 191.699027 
L 433.968514 191.699027 
L 429.011654 191.113919 
L 424.039256 191.699027 
z
" clip-path="url(#p4d27840ce1)" style="fill: #008000"/>
   </g>
   <g id="patch_36">
    <path d="M 448 190.525988 
Q 444.167638 190.647511 440.045719 190.70855 
Q 435.923801 190.769033 431.529359 190.769033 
Q 421.599283 190.769033 415.799641 190.40724 
Q 410 190.045447 410 189.426736 
Q 410 188.800812 415.901838 188.441793 
Q 421.812192 188.082775 432.091439 188.082775 
Q 436.051546 188.082775 439.679516 188.131606 
Q 443.316002 188.179882 446.535186 188.275324 
L 446.535186 188.8108 
Q 443.213805 188.688168 439.92649 188.627684 
Q 436.639175 188.566645 433.334827 188.566645 
Q 427.220081 188.566645 423.907216 188.789714 
Q 420.594352 189.012228 420.594352 189.426736 
Q 420.594352 189.837361 423.787987 190.061539 
Q 426.981623 190.285163 432.857911 190.285163 
Q 434.458987 190.285163 435.830121 190.2724 
Q 437.201255 190.259083 438.291349 190.231338 
L 438.291349 189.728601 
L 432.031824 189.728601 
L 432.031824 189.280798 
L 448 189.280798 
L 448 190.525988 
z
" clip-path="url(#p4d27840ce1)" style="fill: #ffa600"/>
   </g>
   <g id="patch_37">
    <path d="M 410 185.268679 
L 448 185.268679 
L 448 185.817506 
L 434.328837 185.817506 
L 434.328837 188.082775 
L 423.697674 188.082775 
L 423.697674 185.817506 
L 410 185.817506 
L 410 185.268679 
z
" clip-path="url(#p4d27840ce1)" style="fill: #ff0000"/>
   </g>
   <g id="patch_38">
    <path d="M 448 174.820617 
Q 444.821366 179.999483 441.384228 182.619026 
Q 437.94709 185.268679 434.203578 185.268679 
Q 423.04006 185.268679 416.52003 165.637161 
Q 410 146.005644 410 112.433341 
Q 410 78.740599 416.52003 59.139191 
Q 423.04006 39.507674 434.203578 39.507674 
Q 437.94709 39.507674 441.384228 42.157326 
Q 444.821366 44.776869 448 49.955736 
L 448 79.011586 
Q 444.792643 72.146577 441.681028 68.95495 
Q 438.569413 65.763323 435.132275 65.763323 
Q 428.96649 65.763323 425.43361 78.198624 
Q 421.910305 90.603816 421.910305 112.433341 
Q 421.910305 134.172536 425.43361 146.607838 
Q 428.96649 159.01303 435.132275 159.01303 
Q 438.569413 159.01303 441.681028 155.821403 
Q 444.792643 152.599666 448 145.734657 
L 448 174.820617 
z
" clip-path="url(#p4d27840ce1)" style="fill: #0000ff"/>
   </g>
   <g id="patch_39">
    <path d="M 450 190.430745 
L 488 190.430745 
L 488 190.7836 
L 474.328837 190.7836 
L 474.328837 192.24 
L 463.697674 192.24 
L 463.697674 190.7836 
L 450 190.7836 
L 450 190.430745 
z
" clip-path="url(#p4d27840ce1)" style="fill: #ff0000"/>
   </g>
   <g id="patch_40">
    <path d="M 488 190.212323 
Q 484.821366 190.32059 481.384228 190.375353 
Q 477.94709 190.430745 474.203578 190.430745 
Q 463.04006 190.430745 456.52003 190.020338 
Q 450 189.609931 450 188.908084 
Q 450 188.203719 456.52003 187.793942 
Q 463.04006 187.383534 474.203578 187.383534 
Q 477.94709 187.383534 481.384228 187.438927 
Q 484.821366 187.49369 488 187.601957 
L 488 188.209385 
Q 484.792643 188.065868 481.681028 187.999145 
Q 478.569413 187.932423 475.132275 187.932423 
Q 468.96649 187.932423 465.43361 188.192389 
Q 461.910305 188.451726 461.910305 188.908084 
Q 461.910305 189.362553 465.43361 189.62252 
Q 468.96649 189.881857 475.132275 189.881857 
Q 478.569413 189.881857 481.681028 189.815134 
Q 484.792643 189.747782 488 189.604265 
L 488 190.212323 
z
" clip-path="url(#p4d27840ce1)" style="fill: #0000ff"/>
   </g>
   <g id="patch_41">
    <path d="M 488 185.729317 
Q 484.167638 186.556426 480.045719 186.971868 
Q 475.923801 187.383534 471.529359 187.383534 
Q 461.599283 187.383534 455.799641 184.921091 
Q 450 182.458648 450 178.247568 
Q 450 173.987391 455.901838 171.543831 
Q 461.812192 169.100272 472.091439 169.100272 
Q 476.051546 169.100272 479.679516 169.432626 
Q 483.316002 169.761204 486.535186 170.410805 
L 486.535186 174.055372 
Q 483.213805 173.22071 479.92649 172.809044 
Q 476.639175 172.393601 473.334827 172.393601 
Q 467.220081 172.393601 463.907216 173.911856 
Q 460.594352 175.426334 460.594352 178.247568 
Q 460.594352 181.042366 463.787987 182.568174 
Q 466.981623 184.090206 472.857911 184.090206 
Q 474.458987 184.090206 475.830121 184.00334 
Q 477.201255 183.912698 478.291349 183.723861 
L 478.291349 180.302122 
L 472.031824 180.302122 
L 472.031824 177.254282 
L 488 177.254282 
L 488 185.729317 
z
" clip-path="url(#p4d27840ce1)" style="fill: #ffa600"/>
   </g>
   <g id="patch_42">
    <path d="M 476.322633 159.507324 
L 461.708444 159.507324 
L 459.400941 169.100272 
L 450 169.100272 
L 463.425475 116.440632 
L 474.574525 116.440632 
L 488 169.100272 
L 478.606829 169.100272 
L 476.322633 159.507324 
z
M 464.039256 149.733803 
L 473.968514 149.733803 
L 469.011654 128.78732 
L 464.039256 149.733803 
z
" clip-path="url(#p4d27840ce1)" style="fill: #008000"/>
   </g>
   <g id="patch_43">
    <path d="M 490 191.549794 
L 528 191.549794 
L 528 191.684404 
L 514.328837 191.684404 
L 514.328837 192.24 
L 503.697674 192.24 
L 503.697674 191.684404 
L 490 191.684404 
L 490 191.549794 
z
" clip-path="url(#p4d27840ce1)" style="fill: #ff0000"/>
   </g>
   <g id="patch_44">
    <path d="M 528 191.450859 
Q 524.821366 191.499899 521.384228 191.524704 
Q 517.94709 191.549794 514.203578 191.549794 
Q 503.04006 191.549794 496.52003 191.363899 
Q 490 191.178003 490 190.860099 
Q 490 190.541054 496.52003 190.355443 
Q 503.04006 190.169548 514.203578 190.169548 
Q 517.94709 190.169548 521.384228 190.194638 
Q 524.821366 190.219443 528 190.268483 
L 528 190.54362 
Q 524.792643 190.478613 521.681028 190.448391 
Q 518.569413 190.418169 515.132275 190.418169 
Q 508.96649 190.418169 505.43361 190.535922 
Q 501.910305 190.653389 501.910305 190.860099 
Q 501.910305 191.065952 505.43361 191.183705 
Q 508.96649 191.301173 515.132275 191.301173 
Q 518.569413 191.301173 521.681028 191.270951 
Q 524.792643 191.240443 528 191.175437 
L 528 191.450859 
z
" clip-path="url(#p4d27840ce1)" style="fill: #0000ff"/>
   </g>
   <g id="patch_45">
    <path d="M 516.322633 189.792376 
L 501.708444 189.792376 
L 499.400941 190.169548 
L 490 190.169548 
L 503.425475 188.099095 
L 514.574525 188.099095 
L 528 190.169548 
L 518.606829 190.169548 
L 516.322633 189.792376 
z
M 504.039256 189.408104 
L 513.968514 189.408104 
L 509.011654 188.584538 
L 504.039256 189.408104 
z
" clip-path="url(#p4d27840ce1)" style="fill: #008000"/>
   </g>
   <g id="patch_46">
    <path d="M 528 173.56261 
Q 524.167638 180.830852 520.045719 184.481568 
Q 515.923801 188.099095 511.529359 188.099095 
Q 501.599283 188.099095 495.799641 166.460309 
Q 490 144.821522 490 107.816542 
Q 490 70.380114 495.901838 48.90727 
Q 501.812192 27.434425 512.091439 27.434425 
Q 516.051546 27.434425 519.679516 30.354997 
Q 523.316002 33.242381 526.535186 38.950773 
L 526.535186 70.977504 
Q 523.213805 63.642885 519.92649 60.025358 
Q 516.639175 56.374642 513.334827 56.374642 
Q 507.220081 56.374642 503.907216 69.716348 
Q 500.594352 83.024865 500.594352 107.816542 
Q 500.594352 132.375901 503.787987 145.783984 
Q 506.981623 159.158878 512.857911 159.158878 
Q 514.458987 159.158878 515.830121 158.395546 
Q 517.201255 157.599027 518.291349 155.93961 
L 518.291349 125.87099 
L 512.031824 125.87099 
L 512.031824 99.088014 
L 528 99.088014 
L 528 173.56261 
z
" clip-path="url(#p4d27840ce1)" style="fill: #ffa600"/>
   </g>
   <g id="patch_47">
    <path d="M 556.322633 192.014155 
L 541.708444 192.014155 
L 539.400941 192.24 
L 530 192.24 
L 543.425475 191.000245 
L 554.574525 191.000245 
L 568 192.24 
L 558.606829 192.24 
L 556.322633 192.014155 
z
M 544.039256 191.784059 
L 553.968514 191.784059 
L 549.011654 191.290921 
L 544.039256 191.784059 
z
" clip-path="url(#p4d27840ce1)" style="fill: #008000"/>
   </g>
   <g id="patch_48">
    <path d="M 568 190.805415 
Q 564.167638 190.90283 560.045719 190.95176 
Q 555.923801 191.000245 551.529359 191.000245 
Q 541.599283 191.000245 535.799641 190.710224 
Q 530 190.420202 530 189.92423 
Q 530 189.422475 535.901838 189.134677 
Q 541.812192 188.84688 552.091439 188.84688 
Q 556.051546 188.84688 559.679516 188.886024 
Q 563.316002 188.924723 566.535186 189.001232 
L 566.535186 189.430482 
Q 563.213805 189.332177 559.92649 189.283692 
Q 556.639175 189.234762 553.334827 189.234762 
Q 547.220081 189.234762 543.907216 189.413578 
Q 540.594352 189.591951 540.594352 189.92423 
Q 540.594352 190.253395 543.787987 190.433102 
Q 546.981623 190.612364 552.857911 190.612364 
Q 554.458987 190.612364 555.830121 190.602133 
Q 557.201255 190.591457 558.291349 190.569216 
L 558.291349 190.166211 
L 552.031824 190.166211 
L 552.031824 189.807243 
L 568 189.807243 
L 568 190.805415 
z
" clip-path="url(#p4d27840ce1)" style="fill: #ffa600"/>
   </g>
   <g id="patch_49">
    <path d="M 530 185.975779 
L 568 185.975779 
L 568 186.535723 
L 554.328837 186.535723 
L 554.328837 188.84688 
L 543.697674 188.84688 
L 543.697674 186.535723 
L 530 186.535723 
L 530 185.975779 
z
" clip-path="url(#p4d27840ce1)" style="fill: #ff0000"/>
   </g>
   <g id="patch_50">
    <path d="M 568 175.255261 
Q 564.821366 180.569178 561.384228 183.257031 
Q 557.94709 185.975779 554.203578 185.975779 
Q 543.04006 185.975779 536.52003 165.832328 
Q 530 145.688878 530 111.241107 
Q 530 76.669756 536.52003 56.557201 
Q 543.04006 36.413751 554.203578 36.413751 
Q 557.94709 36.413751 561.384228 39.132499 
Q 564.821366 41.820352 568 47.134268 
L 568 76.94781 
Q 564.792643 69.903781 561.681028 66.628926 
Q 558.569413 63.354071 555.132275 63.354071 
Q 548.96649 63.354071 545.43361 76.113649 
Q 541.910305 88.842332 541.910305 111.241107 
Q 541.910305 133.547197 545.43361 146.306776 
Q 548.96649 159.035459 555.132275 159.035459 
Q 558.569413 159.035459 561.681028 155.760603 
Q 564.792643 152.454853 568 145.410825 
L 568 175.255261 
z
" clip-path="url(#p4d27840ce1)" style="fill: #0000ff"/>
   </g>
   <g id="patch_51">
    <path d="M 570 188.246985 
L 608 188.246985 
L 608 189.025734 
L 594.328837 189.025734 
L 594.328837 192.24 
L 583.697674 192.24 
L 583.697674 189.025734 
L 570 189.025734 
L 570 188.246985 
z
" clip-path="url(#p4d27840ce1)" style="fill: #ff0000"/>
   </g>
   <g id="patch_52">
    <path d="M 608 187.93351 
Q 604.821366 188.088892 601.384228 188.167487 
Q 597.94709 188.246985 594.203578 188.246985 
Q 583.04006 188.246985 576.52003 187.657977 
Q 570 187.068969 570 186.061694 
Q 570 185.050805 576.52003 184.4627 
Q 583.04006 183.873693 594.203578 183.873693 
Q 597.94709 183.873693 601.384228 183.953191 
Q 604.821366 184.031785 608 184.187168 
L 608 185.058935 
Q 604.792643 184.852963 601.681028 184.757204 
Q 598.569413 184.661445 595.132275 184.661445 
Q 588.96649 184.661445 585.43361 185.034544 
Q 581.910305 185.406739 581.910305 186.061694 
Q 581.910305 186.713938 585.43361 187.087037 
Q 588.96649 187.459232 595.132275 187.459232 
Q 598.569413 187.459232 601.681028 187.363473 
Q 604.792643 187.266811 608 187.060839 
L 608 187.93351 
z
" clip-path="url(#p4d27840ce1)" style="fill: #0000ff"/>
   </g>
   <g id="patch_53">
    <path d="M 596.322633 181.91086 
L 581.708444 181.91086 
L 579.400941 183.873693 
L 570 183.873693 
L 583.425475 173.098893 
L 594.574525 173.098893 
L 608 183.873693 
L 598.606829 183.873693 
L 596.322633 181.91086 
z
M 584.039256 179.911079 
L 593.968514 179.911079 
L 589.011654 175.625175 
L 584.039256 179.911079 
z
" clip-path="url(#p4d27840ce1)" style="fill: #008000"/>
   </g>
   <g id="patch_54">
    <path d="M 608 167.983688 
Q 604.167638 170.54129 600.045719 171.825931 
Q 595.923801 173.098893 591.529359 173.098893 
Q 581.599283 173.098893 575.799641 165.484479 
Q 570 157.870064 570 144.848481 
Q 570 131.675077 575.901838 124.119056 
Q 581.812192 116.563034 592.091439 116.563034 
Q 596.051546 116.563034 599.679516 117.590747 
Q 603.316002 118.60678 606.535186 120.615491 
L 606.535186 131.885291 
Q 603.213805 129.304332 599.92649 128.03137 
Q 596.639175 126.746729 593.334827 126.746729 
Q 587.220081 126.746729 583.907216 131.441506 
Q 580.594352 136.124605 580.594352 144.848481 
Q 580.594352 153.490608 583.787987 158.208742 
Q 586.981623 162.915198 592.857911 162.915198 
Q 594.458987 162.915198 595.830121 162.646591 
Q 597.201255 162.366306 598.291349 161.782378 
L 598.291349 151.201612 
L 592.031824 151.201612 
L 592.031824 141.777023 
L 608 141.777023 
L 608 167.983688 
z
" clip-path="url(#p4d27840ce1)" style="fill: #ffa600"/>
   </g>
   <g id="patch_55">
    <path d="M 610 190.272334 
L 648 190.272334 
L 648 190.656083 
L 634.328837 190.656083 
L 634.328837 192.24 
L 623.697674 192.24 
L 623.697674 190.656083 
L 610 190.656083 
L 610 190.272334 
z
" clip-path="url(#p4d27840ce1)" style="fill: #ff0000"/>
   </g>
   <g id="patch_56">
    <path d="M 636.322633 189.574802 
L 621.708444 189.574802 
L 619.400941 190.272334 
L 610 190.272334 
L 623.425475 186.443296 
L 634.574525 186.443296 
L 648 190.272334 
L 638.606829 190.272334 
L 636.322633 189.574802 
z
M 624.039256 188.86414 
L 633.968514 188.86414 
L 629.011654 187.34106 
L 624.039256 188.86414 
z
" clip-path="url(#p4d27840ce1)" style="fill: #008000"/>
   </g>
   <g id="patch_57">
    <path d="M 648 185.932493 
Q 644.821366 186.185686 641.384228 186.313755 
Q 637.94709 186.443296 634.203578 186.443296 
Q 623.04006 186.443296 616.52003 185.483516 
Q 610 184.523736 610 182.882394 
Q 610 181.235165 616.52003 180.276857 
Q 623.04006 179.317077 634.203578 179.317077 
Q 637.94709 179.317077 641.384228 179.446617 
Q 644.821366 179.574686 648 179.82788 
L 648 181.248413 
Q 644.792643 180.912784 641.681028 180.756747 
Q 638.569413 180.600709 635.132275 180.600709 
Q 628.96649 180.600709 625.43361 181.208668 
Q 621.910305 181.815154 621.910305 182.882394 
Q 621.910305 183.945218 625.43361 184.553177 
Q 628.96649 185.159664 635.132275 185.159664 
Q 638.569413 185.159664 641.681028 185.003626 
Q 644.792643 184.846116 648 184.510487 
L 648 185.932493 
z
" clip-path="url(#p4d27840ce1)" style="fill: #0000ff"/>
   </g>
   <g id="patch_58">
    <path d="M 648 168.996123 
Q 644.167638 174.1566 640.045719 176.74862 
Q 635.923801 179.317077 631.529359 179.317077 
Q 621.599283 179.317077 615.799641 163.953465 
Q 610 148.589853 610 122.316192 
Q 610 95.736201 615.901838 80.490408 
Q 621.812192 65.244615 632.091439 65.244615 
Q 636.051546 65.244615 639.679516 67.318231 
Q 643.316002 69.368284 646.535186 73.421261 
L 646.535186 96.160349 
Q 643.213805 90.952745 639.92649 88.384288 
Q 636.639175 85.792268 633.334827 85.792268 
Q 627.220081 85.792268 623.907216 95.264924 
Q 620.594352 104.714017 620.594352 122.316192 
Q 620.594352 139.75342 623.787987 149.273204 
Q 626.981623 158.769424 632.857911 158.769424 
Q 634.458987 158.769424 635.830121 158.227456 
Q 637.201255 157.661924 638.291349 156.483733 
L 638.291349 135.134911 
L 632.031824 135.134911 
L 632.031824 116.118906 
L 648 116.118906 
L 648 168.996123 
z
" clip-path="url(#p4d27840ce1)" style="fill: #ffa600"/>
   </g>
   <g id="matplotlib.axis_1">
    <g id="xtick_1">
     <g id="line2d_2">
      <defs>
       <path id="m3bb343b0ff" d="M 0 0 
L 0 3.5 
" style="stroke: #000000; stroke-width: 0.8"/>
      </defs>
      <g>
       <use xlink:href="#m3bb343b0ff" x="109" y="192.24" style="stroke: #000000; stroke-width: 0.8"/>
      </g>
     </g>
     <g id="text_1">
      <!-- 0 -->
      <g transform="translate(105.81875 206.838437) scale(0.1 -0.1)">
       <defs>
        <path id="DejaVuSans-30" d="M 2034 4250 
Q 1547 4250 1301 3770 
Q 1056 3291 1056 2328 
Q 1056 1369 1301 889 
Q 1547 409 2034 409 
Q 2525 409 2770 889 
Q 3016 1369 3016 2328 
Q 3016 3291 2770 3770 
Q 2525 4250 2034 4250 
z
M 2034 4750 
Q 2819 4750 3233 4129 
Q 3647 3509 3647 2328 
Q 3647 1150 3233 529 
Q 2819 -91 2034 -91 
Q 1250 -91 836 529 
Q 422 1150 422 2328 
Q 422 3509 836 4129 
Q 1250 4750 2034 4750 
z
" transform="scale(0.015625)"/>
       </defs>
       <use xlink:href="#DejaVuSans-30"/>
      </g>
     </g>
    </g>
    <g id="xtick_2">
     <g id="line2d_3">
      <g>
       <use xlink:href="#m3bb343b0ff" x="189" y="192.24" style="stroke: #000000; stroke-width: 0.8"/>
      </g>
     </g>
     <g id="text_2">
      <!-- 2 -->
      <g transform="translate(185.81875 206.838437) scale(0.1 -0.1)">
       <defs>
        <path id="DejaVuSans-32" d="M 1228 531 
L 3431 531 
L 3431 0 
L 469 0 
L 469 531 
Q 828 903 1448 1529 
Q 2069 2156 2228 2338 
Q 2531 2678 2651 2914 
Q 2772 3150 2772 3378 
Q 2772 3750 2511 3984 
Q 2250 4219 1831 4219 
Q 1534 4219 1204 4116 
Q 875 4013 500 3803 
L 500 4441 
Q 881 4594 1212 4672 
Q 1544 4750 1819 4750 
Q 2544 4750 2975 4387 
Q 3406 4025 3406 3419 
Q 3406 3131 3298 2873 
Q 3191 2616 2906 2266 
Q 2828 2175 2409 1742 
Q 1991 1309 1228 531 
z
" transform="scale(0.015625)"/>
       </defs>
       <use xlink:href="#DejaVuSans-32"/>
      </g>
     </g>
    </g>
    <g id="xtick_3">
     <g id="line2d_4">
      <g>
       <use xlink:href="#m3bb343b0ff" x="269" y="192.24" style="stroke: #000000; stroke-width: 0.8"/>
      </g>
     </g>
     <g id="text_3">
      <!-- 4 -->
      <g transform="translate(265.81875 206.838437) scale(0.1 -0.1)">
       <defs>
        <path id="DejaVuSans-34" d="M 2419 4116 
L 825 1625 
L 2419 1625 
L 2419 4116 
z
M 2253 4666 
L 3047 4666 
L 3047 1625 
L 3713 1625 
L 3713 1100 
L 3047 1100 
L 3047 0 
L 2419 0 
L 2419 1100 
L 313 1100 
L 313 1709 
L 2253 4666 
z
" transform="scale(0.015625)"/>
       </defs>
       <use xlink:href="#DejaVuSans-34"/>
      </g>
     </g>
    </g>
    <g id="xtick_4">
     <g id="line2d_5">
      <g>
       <use xlink:href="#m3bb343b0ff" x="349" y="192.24" style="stroke: #000000; stroke-width: 0.8"/>
      </g>
     </g>
     <g id="text_4">
      <!-- 6 -->
      <g transform="translate(345.81875 206.838437) scale(0.1 -0.1)">
       <defs>
        <path id="DejaVuSans-36" d="M 2113 2584 
Q 1688 2584 1439 2293 
Q 1191 2003 1191 1497 
Q 1191 994 1439 701 
Q 1688 409 2113 409 
Q 2538 409 2786 701 
Q 3034 994 3034 1497 
Q 3034 2003 2786 2293 
Q 2538 2584 2113 2584 
z
M 3366 4563 
L 3366 3988 
Q 3128 4100 2886 4159 
Q 2644 4219 2406 4219 
Q 1781 4219 1451 3797 
Q 1122 3375 1075 2522 
Q 1259 2794 1537 2939 
Q 1816 3084 2150 3084 
Q 2853 3084 3261 2657 
Q 3669 2231 3669 1497 
Q 3669 778 3244 343 
Q 2819 -91 2113 -91 
Q 1303 -91 875 529 
Q 447 1150 447 2328 
Q 447 3434 972 4092 
Q 1497 4750 2381 4750 
Q 2619 4750 2861 4703 
Q 3103 4656 3366 4563 
z
" transform="scale(0.015625)"/>
       </defs>
       <use xlink:href="#DejaVuSans-36"/>
      </g>
     </g>
    </g>
    <g id="xtick_5">
     <g id="line2d_6">
      <g>
       <use xlink:href="#m3bb343b0ff" x="429" y="192.24" style="stroke: #000000; stroke-width: 0.8"/>
      </g>
     </g>
     <g id="text_5">
      <!-- 8 -->
      <g transform="translate(425.81875 206.838437) scale(0.1 -0.1)">
       <defs>
        <path id="DejaVuSans-38" d="M 2034 2216 
Q 1584 2216 1326 1975 
Q 1069 1734 1069 1313 
Q 1069 891 1326 650 
Q 1584 409 2034 409 
Q 2484 409 2743 651 
Q 3003 894 3003 1313 
Q 3003 1734 2745 1975 
Q 2488 2216 2034 2216 
z
M 1403 2484 
Q 997 2584 770 2862 
Q 544 3141 544 3541 
Q 544 4100 942 4425 
Q 1341 4750 2034 4750 
Q 2731 4750 3128 4425 
Q 3525 4100 3525 3541 
Q 3525 3141 3298 2862 
Q 3072 2584 2669 2484 
Q 3125 2378 3379 2068 
Q 3634 1759 3634 1313 
Q 3634 634 3220 271 
Q 2806 -91 2034 -91 
Q 1263 -91 848 271 
Q 434 634 434 1313 
Q 434 1759 690 2068 
Q 947 2378 1403 2484 
z
M 1172 3481 
Q 1172 3119 1398 2916 
Q 1625 2713 2034 2713 
Q 2441 2713 2670 2916 
Q 2900 3119 2900 3481 
Q 2900 3844 2670 4047 
Q 2441 4250 2034 4250 
Q 1625 4250 1398 4047 
Q 1172 3844 1172 3481 
z
" transform="scale(0.015625)"/>
       </defs>
       <use xlink:href="#DejaVuSans-38"/>
      </g>
     </g>
    </g>
    <g id="xtick_6">
     <g id="line2d_7">
      <g>
       <use xlink:href="#m3bb343b0ff" x="509" y="192.24" style="stroke: #000000; stroke-width: 0.8"/>
      </g>
     </g>
     <g id="text_6">
      <!-- 10 -->
      <g transform="translate(502.6375 206.838437) scale(0.1 -0.1)">
       <defs>
        <path id="DejaVuSans-31" d="M 794 531 
L 1825 531 
L 1825 4091 
L 703 3866 
L 703 4441 
L 1819 4666 
L 2450 4666 
L 2450 531 
L 3481 531 
L 3481 0 
L 794 0 
L 794 531 
z
" transform="scale(0.015625)"/>
       </defs>
       <use xlink:href="#DejaVuSans-31"/>
       <use xlink:href="#DejaVuSans-30" x="63.623047"/>
      </g>
     </g>
    </g>
    <g id="xtick_7">
     <g id="line2d_8">
      <g>
       <use xlink:href="#m3bb343b0ff" x="589" y="192.24" style="stroke: #000000; stroke-width: 0.8"/>
      </g>
     </g>
     <g id="text_7">
      <!-- 12 -->
      <g transform="translate(582.6375 206.838437) scale(0.1 -0.1)">
       <use xlink:href="#DejaVuSans-31"/>
       <use xlink:href="#DejaVuSans-32" x="63.623047"/>
      </g>
     </g>
    </g>
   </g>
   <g id="matplotlib.axis_2">
    <g id="ytick_1">
     <g id="line2d_9">
      <defs>
       <path id="me069e0eaea" d="M 0 0 
L -3.5 0 
" style="stroke: #000000; stroke-width: 0.8"/>
      </defs>
      <g>
       <use xlink:href="#me069e0eaea" x="90" y="192.24" style="stroke: #000000; stroke-width: 0.8"/>
      </g>
     </g>
     <g id="text_8">
      <!-- 0.00 -->
      <g transform="translate(60.734375 196.039219) scale(0.1 -0.1)">
       <defs>
        <path id="DejaVuSans-2e" d="M 684 794 
L 1344 794 
L 1344 0 
L 684 0 
L 684 794 
z
" transform="scale(0.015625)"/>
       </defs>
       <use xlink:href="#DejaVuSans-30"/>
       <use xlink:href="#DejaVuSans-2e" x="63.623047"/>
       <use xlink:href="#DejaVuSans-30" x="95.410156"/>
       <use xlink:href="#DejaVuSans-30" x="159.033203"/>
      </g>
     </g>
    </g>
    <g id="ytick_2">
     <g id="line2d_10">
      <g>
       <use xlink:href="#me069e0eaea" x="90" y="169.27043" style="stroke: #000000; stroke-width: 0.8"/>
      </g>
     </g>
     <g id="text_9">
      <!-- 0.25 -->
      <g transform="translate(60.734375 173.069649) scale(0.1 -0.1)">
       <defs>
        <path id="DejaVuSans-35" d="M 691 4666 
L 3169 4666 
L 3169 4134 
L 1269 4134 
L 1269 2991 
Q 1406 3038 1543 3061 
Q 1681 3084 1819 3084 
Q 2600 3084 3056 2656 
Q 3513 2228 3513 1497 
Q 3513 744 3044 326 
Q 2575 -91 1722 -91 
Q 1428 -91 1123 -41 
Q 819 9 494 109 
L 494 744 
Q 775 591 1075 516 
Q 1375 441 1709 441 
Q 2250 441 2565 725 
Q 2881 1009 2881 1497 
Q 2881 1984 2565 2268 
Q 2250 2553 1709 2553 
Q 1456 2553 1204 2497 
Q 953 2441 691 2322 
L 691 4666 
z
" transform="scale(0.015625)"/>
       </defs>
       <use xlink:href="#DejaVuSans-30"/>
       <use xlink:href="#DejaVuSans-2e" x="63.623047"/>
       <use xlink:href="#DejaVuSans-32" x="95.410156"/>
       <use xlink:href="#DejaVuSans-35" x="159.033203"/>
      </g>
     </g>
    </g>
    <g id="ytick_3">
     <g id="line2d_11">
      <g>
       <use xlink:href="#me069e0eaea" x="90" y="146.30086" style="stroke: #000000; stroke-width: 0.8"/>
      </g>
     </g>
     <g id="text_10">
      <!-- 0.50 -->
      <g transform="translate(60.734375 150.100079) scale(0.1 -0.1)">
       <use xlink:href="#DejaVuSans-30"/>
       <use xlink:href="#DejaVuSans-2e" x="63.623047"/>
       <use xlink:href="#DejaVuSans-35" x="95.410156"/>
       <use xlink:href="#DejaVuSans-30" x="159.033203"/>
      </g>
     </g>
    </g>
    <g id="ytick_4">
     <g id="line2d_12">
      <g>
       <use xlink:href="#me069e0eaea" x="90" y="123.33129" style="stroke: #000000; stroke-width: 0.8"/>
      </g>
     </g>
     <g id="text_11">
      <!-- 0.75 -->
      <g transform="translate(60.734375 127.130509) scale(0.1 -0.1)">
       <defs>
        <path id="DejaVuSans-37" d="M 525 4666 
L 3525 4666 
L 3525 4397 
L 1831 0 
L 1172 0 
L 2766 4134 
L 525 4134 
L 525 4666 
z
" transform="scale(0.015625)"/>
       </defs>
       <use xlink:href="#DejaVuSans-30"/>
       <use xlink:href="#DejaVuSans-2e" x="63.623047"/>
       <use xlink:href="#DejaVuSans-37" x="95.410156"/>
       <use xlink:href="#DejaVuSans-35" x="159.033203"/>
      </g>
     </g>
    </g>
    <g id="ytick_5">
     <g id="line2d_13">
      <g>
       <use xlink:href="#me069e0eaea" x="90" y="100.36172" style="stroke: #000000; stroke-width: 0.8"/>
      </g>
     </g>
     <g id="text_12">
      <!-- 1.00 -->
      <g transform="translate(60.734375 104.160938) scale(0.1 -0.1)">
       <use xlink:href="#DejaVuSans-31"/>
       <use xlink:href="#DejaVuSans-2e" x="63.623047"/>
       <use xlink:href="#DejaVuSans-30" x="95.410156"/>
       <use xlink:href="#DejaVuSans-30" x="159.033203"/>
      </g>
     </g>
    </g>
    <g id="ytick_6">
     <g id="line2d_14">
      <g>
       <use xlink:href="#me069e0eaea" x="90" y="77.39215" style="stroke: #000000; stroke-width: 0.8"/>
      </g>
     </g>
     <g id="text_13">
      <!-- 1.25 -->
      <g transform="translate(60.734375 81.191368) scale(0.1 -0.1)">
       <use xlink:href="#DejaVuSans-31"/>
       <use xlink:href="#DejaVuSans-2e" x="63.623047"/>
       <use xlink:href="#DejaVuSans-32" x="95.410156"/>
       <use xlink:href="#DejaVuSans-35" x="159.033203"/>
      </g>
     </g>
    </g>
    <g id="ytick_7">
     <g id="line2d_15">
      <g>
       <use xlink:href="#me069e0eaea" x="90" y="54.42258" style="stroke: #000000; stroke-width: 0.8"/>
      </g>
     </g>
     <g id="text_14">
      <!-- 1.50 -->
      <g transform="translate(60.734375 58.221798) scale(0.1 -0.1)">
       <use xlink:href="#DejaVuSans-31"/>
       <use xlink:href="#DejaVuSans-2e" x="63.623047"/>
       <use xlink:href="#DejaVuSans-35" x="95.410156"/>
       <use xlink:href="#DejaVuSans-30" x="159.033203"/>
      </g>
     </g>
    </g>
    <g id="ytick_8">
     <g id="line2d_16">
      <g>
       <use xlink:href="#me069e0eaea" x="90" y="31.453009" style="stroke: #000000; stroke-width: 0.8"/>
      </g>
     </g>
     <g id="text_15">
      <!-- 1.75 -->
      <g transform="translate(60.734375 35.252228) scale(0.1 -0.1)">
       <use xlink:href="#DejaVuSans-31"/>
       <use xlink:href="#DejaVuSans-2e" x="63.623047"/>
       <use xlink:href="#DejaVuSans-37" x="95.410156"/>
       <use xlink:href="#DejaVuSans-35" x="159.033203"/>
      </g>
     </g>
    </g>
   </g>
  </g>
 </g>
 <defs>
  <clipPath id="p4d27840ce1">
   <rect x="90" y="25.92" width="558" height="166.32"/>
  </clipPath>
 </defs>
</svg>
