<?xml version="1.0" encoding="utf-8" standalone="no"?>
<!DOCTYPE svg PUBLIC "-//W3C//DTD SVG 1.1//EN"
  "http://www.w3.org/Graphics/SVG/1.1/DTD/svg11.dtd">
<svg xmlns:xlink="http://www.w3.org/1999/xlink" width="720pt" height="216pt" viewBox="0 0 720 216" xmlns="http://www.w3.org/2000/svg" version="1.1">
 <metadata>
  <rdf:RDF xmlns:dc="http://purl.org/dc/elements/1.1/" xmlns:cc="http://creativecommons.org/ns#" xmlns:rdf="http://www.w3.org/1999/02/22-rdf-syntax-ns#">
   <cc:Work>
    <dc:type rdf:resource="http://purl.org/dc/dcmitype/StillImage"/>
    <dc:date>2024-11-23T05:00:47.982962</dc:date>
    <dc:format>image/svg+xml</dc:format>
    <dc:creator>
     <cc:Agent>
      <dc:title>Matplotlib v3.7.2, https://matplotlib.org/</dc:title>
     </cc:Agent>
    </dc:creator>
   </cc:Work>
  </rdf:RDF>
 </metadata>
 <defs>
  <style type="text/css">*{stroke-linejoin: round; stroke-linecap: butt}</style>
 </defs>
 <g id="figure_1">
  <g id="patch_1">
   <path d="M 0 216 
L 720 216 
L 720 0 
L 0 0 
z
" style="fill: #ffffff"/>
  </g>
  <g id="axes_1">
   <g id="patch_2">
    <path d="M 90 192.24 
L 648 192.24 
L 648 25.92 
L 90 25.92 
z
" style="fill: #ffffff"/>
   </g>
   <g id="line2d_1">
    <path d="M 90 192.24 
L 648 192.24 
" clip-path="url(#p31a405d585)" style="fill: none; stroke: #000000; stroke-width: 0.5; stroke-linecap: square"/>
   </g>
   <g id="patch_3">
    <path d="M 121.274336 192.083571 
Q 118.120268 192.161786 114.727893 192.201071 
Q 111.335518 192.24 107.718853 192.24 
Q 99.546312 192.24 94.773156 192.007142 
Q 90 191.774285 90 191.37607 
Q 90 190.973211 94.857265 190.74214 
Q 99.721538 190.511068 108.18145 190.511068 
Q 111.440653 190.511068 114.426504 190.542496 
Q 117.419364 190.573568 120.068781 190.634996 
L 120.068781 190.97964 
Q 117.335256 190.900711 114.629766 190.861783 
Q 111.924277 190.822497 109.204769 190.822497 
Q 104.172279 190.822497 101.445762 190.966069 
Q 98.719246 191.109283 98.719246 191.37607 
Q 98.719246 191.640356 101.347636 191.784642 
Q 103.976026 191.928571 108.812263 191.928571 
Q 110.129963 191.928571 111.258418 191.920356 
Q 112.386874 191.911785 113.284031 191.893928 
L 113.284031 191.570356 
L 108.132386 191.570356 
L 108.132386 191.282141 
L 121.274336 191.282141 
L 121.274336 192.083571 
z
" clip-path="url(#p31a405d585)" style="fill: #ffa600"/>
   </g>
   <g id="patch_4">
    <path d="M 121.274336 190.259693 
Q 118.658292 190.384294 115.829497 190.447318 
Q 113.000702 190.511068 109.919759 190.511068 
Q 100.732085 190.511068 95.366043 190.038744 
Q 90 189.566421 90 188.75869 
Q 90 187.948061 95.366043 187.476462 
Q 100.732085 187.004138 109.919759 187.004138 
Q 113.000702 187.004138 115.829497 187.067887 
Q 118.658292 187.130912 121.274336 187.255513 
L 121.274336 187.954581 
Q 118.634653 187.789412 116.073766 187.712623 
Q 113.51288 187.635835 110.684085 187.635835 
Q 105.609589 187.635835 102.701998 187.935021 
Q 99.802286 188.233483 99.802286 188.75869 
Q 99.802286 189.281723 102.701998 189.580909 
Q 105.609589 189.879371 110.684085 189.879371 
Q 113.51288 189.879371 116.073766 189.802582 
Q 118.634653 189.725069 121.274336 189.559901 
L 121.274336 190.259693 
z
" clip-path="url(#p31a405d585)" style="fill: #0000ff"/>
   </g>
   <g id="patch_5">
    <path d="M 90 176.434255 
L 121.274336 176.434255 
L 121.274336 178.495677 
L 110.022848 178.495677 
L 110.022848 187.004138 
L 101.273307 187.004138 
L 101.273307 178.495677 
L 90 178.495677 
L 90 176.434255 
z
" clip-path="url(#p31a405d585)" style="fill: #ff0000"/>
   </g>
   <g id="patch_6">
    <path d="M 111.66376 173.890004 
L 99.636153 173.890004 
L 97.737057 176.434255 
L 90 176.434255 
L 101.049285 162.467809 
L 110.225051 162.467809 
L 121.274336 176.434255 
L 113.543673 176.434255 
L 111.66376 173.890004 
z
M 101.554432 171.29786 
L 109.726299 171.29786 
L 105.64676 165.742411 
L 101.554432 171.29786 
z
" clip-path="url(#p31a405d585)" style="fill: #008000"/>
   </g>
   <g id="patch_7">
    <path d="M 122.920354 191.814408 
L 154.19469 191.814408 
L 154.19469 191.89741 
L 142.943202 191.89741 
L 142.943202 192.24 
L 134.193661 192.24 
L 134.193661 191.89741 
L 122.920354 191.89741 
L 122.920354 191.814408 
z
" clip-path="url(#p31a405d585)" style="fill: #ff0000"/>
   </g>
   <g id="patch_8">
    <path d="M 144.584114 191.219939 
L 132.556507 191.219939 
L 130.657411 191.814408 
L 122.920354 191.814408 
L 133.969639 188.551127 
L 143.145405 188.551127 
L 154.19469 191.814408 
L 146.464027 191.814408 
L 144.584114 191.219939 
z
M 134.474786 190.614281 
L 142.646653 190.614281 
L 138.567114 189.316242 
L 134.474786 190.614281 
z
" clip-path="url(#p31a405d585)" style="fill: #008000"/>
   </g>
   <g id="patch_9">
    <path d="M 154.19469 177.877512 
Q 151.578646 183.16818 148.749851 185.844273 
Q 145.921056 188.551127 142.840113 188.551127 
Q 133.652439 188.551127 128.286397 168.495804 
Q 122.920354 148.44048 122.920354 114.143417 
Q 122.920354 79.723315 128.286397 59.698751 
Q 133.652439 39.643428 142.840113 39.643428 
Q 145.921056 39.643428 148.749851 42.350282 
Q 151.578646 45.026375 154.19469 50.317043 
L 154.19469 80.000152 
Q 151.555007 72.986941 148.99412 69.726413 
Q 146.433234 66.465885 143.604439 66.465885 
Q 138.529943 66.465885 135.622352 79.16964 
Q 132.72264 91.842636 132.72264 114.143417 
Q 132.72264 136.351919 135.622352 149.055674 
Q 138.529943 161.72867 143.604439 161.72867 
Q 146.433234 161.72867 148.99412 158.468142 
Q 151.555007 155.176854 154.19469 148.163643 
L 154.19469 177.877512 
z
" clip-path="url(#p31a405d585)" style="fill: #0000ff"/>
   </g>
   <g id="patch_10">
    <path d="M 177.504468 192.225639 
L 165.476861 192.225639 
L 163.577765 192.24 
L 155.840708 192.24 
L 166.889993 192.161164 
L 176.065759 192.161164 
L 187.115044 192.24 
L 179.384381 192.24 
L 177.504468 192.225639 
z
M 167.39514 192.211007 
L 175.567007 192.211007 
L 171.487467 192.179648 
L 167.39514 192.211007 
z
" clip-path="url(#p31a405d585)" style="fill: #008000"/>
   </g>
   <g id="patch_11">
    <path d="M 187.115044 192.154031 
Q 183.960976 192.157598 180.568601 192.159389 
Q 177.176226 192.161164 173.559561 192.161164 
Q 165.38702 192.161164 160.613864 192.150546 
Q 155.840708 192.139929 155.840708 192.121771 
Q 155.840708 192.103401 160.697973 192.092865 
Q 165.562246 192.082328 174.022158 192.082328 
Q 177.281361 192.082328 180.267212 192.083762 
Q 183.260072 192.085178 185.909489 192.087979 
L 185.909489 192.103694 
Q 183.175964 192.100095 180.470474 192.09832 
Q 177.764985 192.096529 175.045477 192.096529 
Q 170.012987 192.096529 167.28647 192.103076 
Q 164.559954 192.109606 164.559954 192.121771 
Q 164.559954 192.133822 167.188344 192.140401 
Q 169.816734 192.146964 174.652971 192.146964 
Q 175.970671 192.146964 177.099126 192.146589 
Q 178.227582 192.146198 179.124739 192.145384 
L 179.124739 192.13063 
L 173.973094 192.13063 
L 173.973094 192.117488 
L 187.115044 192.117488 
L 187.115044 192.154031 
z
" clip-path="url(#p31a405d585)" style="fill: #ffa600"/>
   </g>
   <g id="patch_12">
    <path d="M 187.115044 180.171912 
Q 184.499 186.075634 181.670205 189.061819 
Q 178.84141 192.082328 175.760467 192.082328 
Q 166.572793 192.082328 161.206751 169.703101 
Q 155.840708 147.323874 155.840708 109.05265 
Q 155.840708 70.64413 161.206751 48.299227 
Q 166.572793 25.92 175.760467 25.92 
Q 178.84141 25.92 181.670205 28.940509 
Q 184.499 31.926694 187.115044 37.830417 
L 187.115044 70.953046 
Q 184.475361 63.127181 181.914474 59.488841 
Q 179.353588 55.8505 176.524793 55.8505 
Q 171.450297 55.8505 168.542706 70.026299 
Q 165.642994 84.167773 165.642994 109.05265 
Q 165.642994 133.834555 168.542706 148.010354 
Q 171.450297 162.151828 176.524793 162.151828 
Q 179.353588 162.151828 181.914474 158.513488 
Q 184.475361 154.840823 187.115044 147.014959 
L 187.115044 180.171912 
z
" clip-path="url(#p31a405d585)" style="fill: #0000ff"/>
   </g>
   <g id="patch_13">
    <path d="M 210.424822 192.22571 
L 198.397215 192.22571 
L 196.498119 192.24 
L 188.761062 192.24 
L 199.810347 192.161557 
L 208.986113 192.161557 
L 220.035398 192.24 
L 212.304735 192.24 
L 210.424822 192.22571 
z
M 200.315494 192.211151 
L 208.487361 192.211151 
L 204.407821 192.179949 
L 200.315494 192.211151 
z
" clip-path="url(#p31a405d585)" style="fill: #008000"/>
   </g>
   <g id="patch_14">
    <path d="M 220.035398 192.15446 
Q 216.88133 192.158008 213.488955 192.159791 
Q 210.09658 192.161557 206.479915 192.161557 
Q 198.307374 192.161557 193.534218 192.150992 
Q 188.761062 192.140427 188.761062 192.12236 
Q 188.761062 192.104082 193.618327 192.093598 
Q 198.4826 192.083114 206.942512 192.083114 
Q 210.201715 192.083114 213.187566 192.08454 
Q 216.180426 192.08595 218.829843 192.088737 
L 218.829843 192.104373 
Q 216.096318 192.100792 213.390828 192.099026 
Q 210.685339 192.097244 207.965831 192.097244 
Q 202.933341 192.097244 200.206824 192.103758 
Q 197.480308 192.110255 197.480308 192.12236 
Q 197.480308 192.134351 200.108698 192.140897 
Q 202.737088 192.147427 207.573325 192.147427 
Q 208.891025 192.147427 210.01948 192.147054 
Q 211.147936 192.146666 212.045093 192.145855 
L 212.045093 192.131175 
L 206.893448 192.131175 
L 206.893448 192.118098 
L 220.035398 192.118098 
L 220.035398 192.15446 
z
" clip-path="url(#p31a405d585)" style="fill: #ffa600"/>
   </g>
   <g id="patch_15">
    <path d="M 188.761062 191.926393 
L 220.035398 191.926393 
L 220.035398 191.956958 
L 208.78391 191.956958 
L 208.78391 192.083114 
L 200.034369 192.083114 
L 200.034369 191.956958 
L 188.761062 191.956958 
L 188.761062 191.926393 
z
" clip-path="url(#p31a405d585)" style="fill: #ff0000"/>
   </g>
   <g id="patch_16">
    <path d="M 220.035398 180.086529 
Q 217.419354 185.95528 214.590559 188.923777 
Q 211.761764 191.926393 208.680821 191.926393 
Q 199.493147 191.926393 194.127105 169.679732 
Q 188.761062 147.433072 188.761062 109.388552 
Q 188.761062 71.207549 194.127105 48.995009 
Q 199.493147 26.748348 208.680821 26.748348 
Q 211.761764 26.748348 214.590559 29.750965 
Q 217.419354 32.719461 220.035398 38.588212 
L 220.035398 71.514635 
Q 217.395715 63.735128 214.834828 60.11834 
Q 212.273942 56.501551 209.445147 56.501551 
Q 204.370651 56.501551 201.46306 70.593378 
Q 198.563348 84.651084 198.563348 109.388552 
Q 198.563348 134.023658 201.46306 148.115484 
Q 204.370651 162.17319 209.445147 162.17319 
Q 212.273942 162.17319 214.834828 158.556402 
Q 217.395715 154.905493 220.035398 147.125986 
L 220.035398 180.086529 
z
" clip-path="url(#p31a405d585)" style="fill: #0000ff"/>
   </g>
   <g id="patch_17">
    <path d="M 221.681416 191.582911 
L 252.955752 191.582911 
L 252.955752 191.711062 
L 241.704264 191.711062 
L 241.704264 192.24 
L 232.954723 192.24 
L 232.954723 191.711062 
L 221.681416 191.711062 
L 221.681416 191.582911 
z
" clip-path="url(#p31a405d585)" style="fill: #ff0000"/>
   </g>
   <g id="patch_18">
    <path d="M 252.955752 191.522961 
Q 250.339708 191.552677 247.510913 191.567707 
Q 244.682118 191.582911 241.601175 191.582911 
Q 232.413501 191.582911 227.047459 191.470266 
Q 221.681416 191.357622 221.681416 191.164986 
Q 221.681416 190.971659 227.047459 190.859187 
Q 232.413501 190.746543 241.601175 190.746543 
Q 244.682118 190.746543 247.510913 190.761746 
Q 250.339708 190.776777 252.955752 190.806493 
L 252.955752 190.973214 
Q 250.316069 190.933823 247.755182 190.91551 
Q 245.194296 190.897196 242.365501 190.897196 
Q 237.291005 190.897196 234.383414 190.968549 
Q 231.483702 191.039729 231.483702 191.164986 
Q 231.483702 191.289724 234.383414 191.361077 
Q 237.291005 191.432258 242.365501 191.432258 
Q 245.194296 191.432258 247.755182 191.413944 
Q 250.316069 191.395458 252.955752 191.356067 
L 252.955752 191.522961 
z
" clip-path="url(#p31a405d585)" style="fill: #0000ff"/>
   </g>
   <g id="patch_19">
    <path d="M 252.955752 190.087157 
Q 249.801684 190.41685 246.409309 190.582449 
Q 243.016934 190.746543 239.400269 190.746543 
Q 231.227728 190.746543 226.454572 189.764991 
Q 221.681416 188.783439 221.681416 187.104864 
Q 221.681416 185.406719 226.538681 184.432694 
Q 231.402954 183.45867 239.862866 183.45867 
Q 243.122069 183.45867 246.10792 183.591149 
Q 249.10078 183.722123 251.750197 183.98106 
L 251.750197 185.433817 
Q 249.016672 185.101113 246.311182 184.937019 
Q 243.605693 184.77142 240.886185 184.77142 
Q 235.853695 184.77142 233.127178 185.37661 
Q 230.400662 185.980295 230.400662 187.104864 
Q 230.400662 188.218896 233.029052 188.827097 
Q 235.657442 189.433792 240.493679 189.433792 
Q 241.811379 189.433792 242.939834 189.399167 
Q 244.06829 189.363036 244.965447 189.287764 
L 244.965447 187.923828 
L 239.813802 187.923828 
L 239.813802 186.708932 
L 252.955752 186.708932 
L 252.955752 190.087157 
z
" clip-path="url(#p31a405d585)" style="fill: #ffa600"/>
   </g>
   <g id="patch_20">
    <path d="M 243.345176 160.704096 
L 231.317569 160.704096 
L 229.418473 183.45867 
L 221.681416 183.45867 
L 232.730701 58.549445 
L 241.906467 58.549445 
L 252.955752 183.45867 
L 245.225089 183.45867 
L 243.345176 160.704096 
z
M 233.235848 137.521201 
L 241.407715 137.521201 
L 237.328175 87.83592 
L 233.235848 137.521201 
z
" clip-path="url(#p31a405d585)" style="fill: #008000"/>
   </g>
   <g id="patch_21">
    <path d="M 276.26553 192.021444 
L 264.237923 192.021444 
L 262.338827 192.24 
L 254.60177 192.24 
L 265.651055 191.040254 
L 274.826821 191.040254 
L 285.876106 192.24 
L 278.145443 192.24 
L 276.26553 192.021444 
z
M 266.156202 191.798773 
L 274.328069 191.798773 
L 270.248529 191.321549 
L 266.156202 191.798773 
z
" clip-path="url(#p31a405d585)" style="fill: #008000"/>
   </g>
   <g id="patch_22">
    <path d="M 285.876106 190.646877 
Q 282.722038 190.843565 279.329663 190.942359 
Q 275.937288 191.040254 272.320623 191.040254 
Q 264.148082 191.040254 259.374926 190.454679 
Q 254.60177 189.869104 254.60177 188.867699 
Q 254.60177 187.854618 259.459035 187.273534 
Q 264.323308 186.69245 272.78322 186.69245 
Q 276.042423 186.69245 279.028274 186.771484 
Q 282.021134 186.849621 284.670551 187.004098 
L 284.670551 187.870784 
Q 281.937026 187.6723 279.231536 187.574404 
Q 276.526047 187.475611 273.806539 187.475611 
Q 268.774049 187.475611 266.047532 187.836656 
Q 263.321016 188.196802 263.321016 188.867699 
Q 263.321016 189.532308 265.949406 189.895149 
Q 268.577796 190.257092 273.414033 190.257092 
Q 274.731733 190.257092 275.860188 190.236435 
Q 276.988644 190.21488 277.885801 190.169974 
L 277.885801 189.356277 
L 272.734156 189.356277 
L 272.734156 188.631493 
L 285.876106 188.631493 
L 285.876106 190.646877 
z
" clip-path="url(#p31a405d585)" style="fill: #ffa600"/>
   </g>
   <g id="patch_23">
    <path d="M 254.60177 177.34059 
L 285.876106 177.34059 
L 285.876106 179.164463 
L 274.624618 179.164463 
L 274.624618 186.69245 
L 265.875077 186.69245 
L 265.875077 179.164463 
L 254.60177 179.164463 
L 254.60177 177.34059 
z
" clip-path="url(#p31a405d585)" style="fill: #ff0000"/>
   </g>
   <g id="patch_24">
    <path d="M 285.876106 176.527661 
Q 283.260062 176.930611 280.431267 177.134429 
Q 277.602472 177.34059 274.521529 177.34059 
Q 265.333855 177.34059 259.967812 175.813126 
Q 254.60177 174.285662 254.60177 171.673512 
Q 254.60177 169.05199 259.967812 167.526869 
Q 265.333855 165.999405 274.521529 165.999405 
Q 277.602472 165.999405 280.431267 166.205566 
Q 283.260062 166.409384 285.876106 166.812334 
L 285.876106 169.073075 
Q 283.236423 168.538931 280.675536 168.290601 
Q 278.11465 168.042271 275.285855 168.042271 
Q 270.211359 168.042271 267.303768 169.009821 
Q 264.404056 169.975028 264.404056 171.673512 
Q 264.404056 173.364967 267.303768 174.332517 
Q 270.211359 175.297724 275.285855 175.297724 
Q 278.11465 175.297724 280.675536 175.049394 
Q 283.236423 174.798721 285.876106 174.264578 
L 285.876106 176.527661 
z
" clip-path="url(#p31a405d585)" style="fill: #0000ff"/>
   </g>
   <g id="patch_25">
    <path d="M 287.522124 191.949012 
L 318.79646 191.949012 
L 318.79646 192.005763 
L 307.544972 192.005763 
L 307.544972 192.24 
L 298.795431 192.24 
L 298.795431 192.005763 
L 287.522124 192.005763 
L 287.522124 191.949012 
z
" clip-path="url(#p31a405d585)" style="fill: #ff0000"/>
   </g>
   <g id="patch_26">
    <path d="M 318.79646 191.340899 
Q 315.642392 191.644956 312.250017 191.797678 
Q 308.857642 191.949012 305.240977 191.949012 
Q 297.068436 191.949012 292.29528 191.043785 
Q 287.522124 190.138558 287.522124 188.590508 
Q 287.522124 187.02441 292.379389 186.126124 
Q 297.243662 185.227839 305.703574 185.227839 
Q 308.962777 185.227839 311.948628 185.350017 
Q 314.941488 185.470807 317.590905 185.709609 
L 317.590905 187.049401 
Q 314.85738 186.742567 312.15189 186.591233 
Q 309.446401 186.438511 306.726893 186.438511 
Q 301.694403 186.438511 298.967886 186.996642 
Q 296.24137 187.553384 296.24137 188.590508 
Q 296.24137 189.617913 298.86976 190.178821 
Q 301.49815 190.73834 306.334387 190.73834 
Q 307.652087 190.73834 308.780542 190.706407 
Q 309.908998 190.673086 310.806155 190.603667 
L 310.806155 189.34579 
L 305.65451 189.34579 
L 305.65451 188.225363 
L 318.79646 188.225363 
L 318.79646 191.340899 
z
" clip-path="url(#p31a405d585)" style="fill: #ffa600"/>
   </g>
   <g id="patch_27">
    <path d="M 318.79646 184.322701 
Q 316.180416 184.771357 313.351621 184.998294 
Q 310.522826 185.227839 307.441883 185.227839 
Q 298.254209 185.227839 292.888166 183.527118 
Q 287.522124 181.826396 287.522124 178.917954 
Q 287.522124 175.999078 292.888166 174.300965 
Q 298.254209 172.600243 307.441883 172.600243 
Q 310.522826 172.600243 313.351621 172.829788 
Q 316.180416 173.056725 318.79646 173.505382 
L 318.79646 176.022554 
Q 316.156777 175.427823 313.59589 175.151325 
Q 311.035004 174.874828 308.206209 174.874828 
Q 303.131713 174.874828 300.224122 175.952125 
Q 297.32441 177.026814 297.32441 178.917954 
Q 297.32441 180.801268 300.224122 181.878566 
Q 303.131713 182.953255 308.206209 182.953255 
Q 311.035004 182.953255 313.59589 182.676757 
Q 316.156777 182.397651 318.79646 181.80292 
L 318.79646 184.322701 
z
" clip-path="url(#p31a405d585)" style="fill: #0000ff"/>
   </g>
   <g id="patch_28">
    <path d="M 309.185884 162.20622 
L 297.158277 162.20622 
L 295.259181 172.600243 
L 287.522124 172.600243 
L 298.571409 115.543172 
L 307.747175 115.543172 
L 318.79646 172.600243 
L 311.065797 172.600243 
L 309.185884 162.20622 
z
M 299.076556 151.616545 
L 307.248423 151.616545 
L 303.168883 128.920891 
L 299.076556 151.616545 
z
" clip-path="url(#p31a405d585)" style="fill: #008000"/>
   </g>
   <g id="patch_29">
    <path d="M 320.442478 191.296219 
L 351.716814 191.296219 
L 351.716814 191.480283 
L 340.465326 191.480283 
L 340.465326 192.24 
L 331.715785 192.24 
L 331.715785 191.480283 
L 320.442478 191.480283 
L 320.442478 191.296219 
z
" clip-path="url(#p31a405d585)" style="fill: #ff0000"/>
   </g>
   <g id="patch_30">
    <path d="M 351.716814 191.018108 
Q 349.10077 191.155961 346.271975 191.22569 
Q 343.44318 191.296219 340.362237 191.296219 
Q 331.174563 191.296219 325.80852 190.773659 
Q 320.442478 190.251098 320.442478 189.357455 
Q 320.442478 188.460606 325.80852 187.938846 
Q 331.174563 187.416285 340.362237 187.416285 
Q 343.44318 187.416285 346.271975 187.486815 
Q 349.10077 187.556543 351.716814 187.694397 
L 351.716814 188.467819 
Q 349.077131 188.285083 346.516244 188.200127 
Q 343.955358 188.11517 341.126563 188.11517 
Q 336.052067 188.11517 333.144476 188.446179 
Q 330.244764 188.776386 330.244764 189.357455 
Q 330.244764 189.936119 333.144476 190.267127 
Q 336.052067 190.597334 341.126563 190.597334 
Q 343.955358 190.597334 346.516244 190.512378 
Q 349.077131 190.42662 351.716814 190.243884 
L 351.716814 191.018108 
z
" clip-path="url(#p31a405d585)" style="fill: #0000ff"/>
   </g>
   <g id="patch_31">
    <path d="M 351.716814 186.818551 
Q 348.562746 187.117418 345.170371 187.267534 
Q 341.777996 187.416285 338.161331 187.416285 
Q 329.98879 187.416285 325.215634 186.526507 
Q 320.442478 185.63673 320.442478 184.1151 
Q 320.442478 182.57573 325.299743 181.692775 
Q 330.164016 180.809821 338.623928 180.809821 
Q 341.883131 180.809821 344.868982 180.929914 
Q 347.861842 181.048642 350.511259 181.283368 
L 350.511259 182.600294 
Q 347.777734 182.298698 345.072244 182.149947 
Q 342.366755 181.999831 339.647247 181.999831 
Q 334.614757 181.999831 331.88824 182.548436 
Q 329.161724 183.095677 329.161724 184.1151 
Q 329.161724 185.124971 331.790114 185.676306 
Q 334.418504 186.226276 339.254741 186.226276 
Q 340.572441 186.226276 341.700896 186.194888 
Q 342.829351 186.162135 343.726509 186.093901 
L 343.726509 184.857492 
L 338.574864 184.857492 
L 338.574864 183.756187 
L 351.716814 183.756187 
L 351.716814 186.818551 
z
" clip-path="url(#p31a405d585)" style="fill: #ffa600"/>
   </g>
   <g id="patch_32">
    <path d="M 342.106238 161.219627 
L 330.078631 161.219627 
L 328.179535 180.809821 
L 320.442478 180.809821 
L 331.491763 73.271178 
L 340.667529 73.271178 
L 351.716814 180.809821 
L 343.986151 180.809821 
L 342.106238 161.219627 
z
M 331.99691 141.260676 
L 340.168777 141.260676 
L 336.089237 98.48491 
L 331.99691 141.260676 
z
" clip-path="url(#p31a405d585)" style="fill: #008000"/>
   </g>
   <g id="patch_33">
    <path d="M 375.026592 191.888832 
L 362.998985 191.888832 
L 361.099889 192.24 
L 353.362832 192.24 
L 364.412117 190.312294 
L 373.587883 190.312294 
L 384.637168 192.24 
L 376.906505 192.24 
L 375.026592 191.888832 
z
M 364.917264 191.531054 
L 373.089131 191.531054 
L 369.009591 190.764268 
L 364.917264 191.531054 
z
" clip-path="url(#p31a405d585)" style="fill: #008000"/>
   </g>
   <g id="patch_34">
    <path d="M 384.637168 190.141604 
Q 382.021124 190.226211 379.192329 190.269006 
Q 376.363534 190.312294 373.282591 190.312294 
Q 364.094917 190.312294 358.728874 189.991573 
Q 353.362832 189.670853 353.362832 189.122382 
Q 353.362832 188.571943 358.728874 188.251715 
Q 364.094917 187.930995 373.282591 187.930995 
Q 376.363534 187.930995 379.192329 187.974282 
Q 382.021124 188.017078 384.637168 188.101685 
L 384.637168 188.576371 
Q 381.997485 188.464217 379.436598 188.412075 
Q 376.875712 188.359934 374.046917 188.359934 
Q 368.972421 188.359934 366.06483 188.563089 
Q 363.165118 188.765753 363.165118 189.122382 
Q 363.165118 189.477536 366.06483 189.680691 
Q 368.972421 189.883355 374.046917 189.883355 
Q 376.875712 189.883355 379.436598 189.831213 
Q 381.997485 189.77858 384.637168 189.666426 
L 384.637168 190.141604 
z
" clip-path="url(#p31a405d585)" style="fill: #0000ff"/>
   </g>
   <g id="patch_35">
    <path d="M 384.637168 187.469314 
Q 381.4831 187.700154 378.090725 187.816102 
Q 374.698349 187.930995 371.081685 187.930995 
Q 362.909144 187.930995 358.135988 187.243744 
Q 353.362832 186.556494 353.362832 185.381211 
Q 353.362832 184.192226 358.220097 183.510245 
Q 363.08437 182.828265 371.544282 182.828265 
Q 374.803485 182.828265 377.789336 182.921023 
Q 380.782196 183.012727 383.431613 183.194026 
L 383.431613 184.211199 
Q 380.698088 183.97825 377.992598 183.863357 
Q 375.287109 183.74741 372.567601 183.74741 
Q 367.535111 183.74741 364.808594 184.171144 
Q 362.082078 184.593824 362.082078 185.381211 
Q 362.082078 186.161219 364.710468 186.587062 
Q 367.338858 187.01185 372.175095 187.01185 
Q 373.492795 187.01185 374.62125 186.987606 
Q 375.749705 186.962309 376.646863 186.909606 
L 376.646863 185.954623 
L 371.495218 185.954623 
L 371.495218 185.103992 
L 384.637168 185.103992 
L 384.637168 187.469314 
z
" clip-path="url(#p31a405d585)" style="fill: #ffa600"/>
   </g>
   <g id="patch_36">
    <path d="M 353.362832 65.749963 
L 384.637168 65.749963 
L 384.637168 88.583494 
L 373.38568 88.583494 
L 373.38568 182.828265 
L 364.636139 182.828265 
L 364.636139 88.583494 
L 353.362832 88.583494 
L 353.362832 65.749963 
z
" clip-path="url(#p31a405d585)" style="fill: #ff0000"/>
   </g>
   <g id="patch_37">
    <path d="M 386.283186 188.636948 
L 417.557522 188.636948 
L 417.557522 189.339643 
L 406.306034 189.339643 
L 406.306034 192.24 
L 397.556493 192.24 
L 397.556493 189.339643 
L 386.283186 189.339643 
L 386.283186 188.636948 
z
" clip-path="url(#p31a405d585)" style="fill: #ff0000"/>
   </g>
   <g id="patch_38">
    <path d="M 407.946946 187.71233 
L 395.919339 187.71233 
L 394.020243 188.636948 
L 386.283186 188.636948 
L 397.332471 183.561338 
L 406.508237 183.561338 
L 417.557522 188.636948 
L 409.826859 188.636948 
L 407.946946 187.71233 
z
M 397.837618 186.770307 
L 406.009485 186.770307 
L 401.929945 184.751376 
L 397.837618 186.770307 
z
" clip-path="url(#p31a405d585)" style="fill: #008000"/>
   </g>
   <g id="patch_39">
    <path d="M 417.557522 182.995401 
Q 414.941478 183.275923 412.112683 183.417815 
Q 409.283888 183.561338 406.202945 183.561338 
Q 397.015271 183.561338 391.649228 182.497963 
Q 386.283186 181.434589 386.283186 179.616088 
Q 386.283186 177.791063 391.649228 176.729319 
Q 397.015271 175.665944 406.202945 175.665944 
Q 409.283888 175.665944 412.112683 175.809467 
Q 414.941478 175.951359 417.557522 176.231881 
L 417.557522 177.805741 
Q 414.917839 177.433886 412.356952 177.261006 
Q 409.796066 177.088126 406.967271 177.088126 
Q 401.892775 177.088126 398.985184 177.761706 
Q 396.085472 178.433654 396.085472 179.616088 
Q 396.085472 180.793628 398.985184 181.467207 
Q 401.892775 182.139156 406.967271 182.139156 
Q 409.796066 182.139156 412.356952 181.966276 
Q 414.917839 181.791765 417.557522 181.41991 
L 417.557522 182.995401 
z
" clip-path="url(#p31a405d585)" style="fill: #0000ff"/>
   </g>
   <g id="patch_40">
    <path d="M 417.557522 170.05598 
Q 414.403454 172.860962 411.011079 174.269857 
Q 407.618703 175.665944 404.002039 175.665944 
Q 395.829498 175.665944 391.056342 167.315038 
Q 386.283186 158.964133 386.283186 144.683059 
Q 386.283186 130.235479 391.140451 121.948614 
Q 396.004724 113.661749 404.464635 113.661749 
Q 407.723839 113.661749 410.70969 114.788865 
Q 413.70255 115.903173 416.351967 118.106173 
L 416.351967 130.466026 
Q 413.618442 127.635427 410.912952 126.23934 
Q 408.207463 124.830445 405.487955 124.830445 
Q 400.455465 124.830445 397.728948 129.979317 
Q 395.002432 135.11538 395.002432 144.683059 
Q 395.002432 154.161081 397.630822 159.335569 
Q 400.259212 164.497248 405.095449 164.497248 
Q 406.413149 164.497248 407.541604 164.202661 
Q 408.670059 163.895266 409.567217 163.254859 
L 409.567217 151.650686 
L 404.415572 151.650686 
L 404.415572 141.314519 
L 417.557522 141.314519 
L 417.557522 170.05598 
z
" clip-path="url(#p31a405d585)" style="fill: #ffa600"/>
   </g>
   <g id="patch_41">
    <path d="M 440.8673 192.21148 
L 428.839693 192.21148 
L 426.940597 192.24 
L 419.20354 192.24 
L 430.252825 192.083442 
L 439.428591 192.083442 
L 450.477876 192.24 
L 442.747213 192.24 
L 440.8673 192.21148 
z
M 430.757972 192.182423 
L 438.929839 192.182423 
L 434.850299 192.120149 
L 430.757972 192.182423 
z
" clip-path="url(#p31a405d585)" style="fill: #008000"/>
   </g>
   <g id="patch_42">
    <path d="M 450.477876 192.062195 
Q 447.323808 192.072818 443.931433 192.078154 
Q 440.539057 192.083442 436.922393 192.083442 
Q 428.749852 192.083442 423.976696 192.051814 
Q 419.20354 192.020185 419.20354 191.966096 
Q 419.20354 191.911377 424.060805 191.879991 
Q 428.925078 191.848605 437.384989 191.848605 
Q 440.644193 191.848605 443.630044 191.852874 
Q 446.622904 191.857094 449.272321 191.865438 
L 449.272321 191.91225 
Q 446.538796 191.90153 443.833306 191.896242 
Q 441.127817 191.890906 438.408309 191.890906 
Q 433.375819 191.890906 430.649302 191.910407 
Q 427.922786 191.929859 427.922786 191.966096 
Q 427.922786 192.001994 430.551176 192.021592 
Q 433.179565 192.041141 438.015803 192.041141 
Q 439.333503 192.041141 440.461958 192.040026 
Q 441.590413 192.038861 442.487571 192.036436 
L 442.487571 191.992486 
L 437.335926 191.992486 
L 437.335926 191.953338 
L 450.477876 191.953338 
L 450.477876 192.062195 
z
" clip-path="url(#p31a405d585)" style="fill: #ffa600"/>
   </g>
   <g id="patch_43">
    <path d="M 450.477876 180.039127 
Q 447.861832 185.892816 445.033037 188.853694 
Q 442.204242 191.848605 439.123298 191.848605 
Q 429.935625 191.848605 424.569582 169.659038 
Q 419.20354 147.469471 419.20354 109.522589 
Q 419.20354 71.439575 424.569582 49.284041 
Q 429.935625 27.094474 439.123298 27.094474 
Q 442.204242 27.094474 445.033037 30.089385 
Q 447.861832 33.050263 450.477876 38.903952 
L 450.477876 71.745873 
Q 447.838193 63.986331 445.277306 60.378825 
Q 442.71642 56.771318 439.887625 56.771318 
Q 434.813129 56.771318 431.905538 70.82698 
Q 429.005826 84.848608 429.005826 109.522589 
Q 429.005826 134.094472 431.905538 148.150133 
Q 434.813129 162.171761 439.887625 162.171761 
Q 442.71642 162.171761 445.277306 158.564255 
Q 447.838193 154.922715 450.477876 147.163174 
L 450.477876 180.039127 
z
" clip-path="url(#p31a405d585)" style="fill: #0000ff"/>
   </g>
   <g id="patch_44">
    <path d="M 483.39823 192.138953 
Q 480.244162 192.189477 476.851787 192.214854 
Q 473.459411 192.24 469.842747 192.24 
Q 461.670206 192.24 456.89705 192.089584 
Q 452.123894 191.939167 452.123894 191.681937 
Q 452.123894 191.421708 456.981158 191.272445 
Q 461.845432 191.123182 470.305343 191.123182 
Q 473.564547 191.123182 476.550398 191.143484 
Q 479.543258 191.163554 482.192675 191.203235 
L 482.192675 191.42586 
Q 479.45915 191.374876 476.75366 191.349729 
Q 474.048171 191.324352 471.328663 191.324352 
Q 466.296173 191.324352 463.569656 191.417094 
Q 460.84314 191.509604 460.84314 191.681937 
Q 460.84314 191.852655 463.471529 191.945858 
Q 466.099919 192.03883 470.936157 192.03883 
Q 472.253857 192.03883 473.382312 192.033524 
Q 474.510767 192.027987 475.407925 192.016452 
L 475.407925 191.807438 
L 470.25628 191.807438 
L 470.25628 191.621263 
L 483.39823 191.621263 
L 483.39823 192.138953 
z
" clip-path="url(#p31a405d585)" style="fill: #ffa600"/>
   </g>
   <g id="patch_45">
    <path d="M 452.123894 183.097422 
L 483.39823 183.097422 
L 483.39823 184.662669 
L 472.146742 184.662669 
L 472.146742 191.123182 
L 463.397201 191.123182 
L 463.397201 184.662669 
L 452.123894 184.662669 
L 452.123894 183.097422 
z
" clip-path="url(#p31a405d585)" style="fill: #ff0000"/>
   </g>
   <g id="patch_46">
    <path d="M 483.39823 182.432775 
Q 480.782186 182.762225 477.953391 182.928866 
Q 475.124596 183.097422 472.043652 183.097422 
Q 462.855979 183.097422 457.489936 181.848575 
Q 452.123894 180.599729 452.123894 178.464048 
Q 452.123894 176.320705 457.489936 175.073774 
Q 462.855979 173.824928 472.043652 173.824928 
Q 475.124596 173.824928 477.953391 173.993484 
Q 480.782186 174.160124 483.39823 174.489575 
L 483.39823 176.337944 
Q 480.758547 175.901231 478.19766 175.698198 
Q 475.636773 175.495164 472.807979 175.495164 
Q 467.733483 175.495164 464.825892 176.286228 
Q 461.92618 177.075377 461.92618 178.464048 
Q 461.92618 179.846973 464.825892 180.638037 
Q 467.733483 181.427185 472.807979 181.427185 
Q 475.636773 181.427185 478.19766 181.224152 
Q 480.758547 181.019203 483.39823 180.58249 
L 483.39823 182.432775 
z
" clip-path="url(#p31a405d585)" style="fill: #0000ff"/>
   </g>
   <g id="patch_47">
    <path d="M 473.787654 164.428125 
L 461.760047 164.428125 
L 459.860951 173.824928 
L 452.123894 173.824928 
L 463.173179 122.242006 
L 472.348945 122.242006 
L 483.39823 173.824928 
L 475.667567 173.824928 
L 473.787654 164.428125 
z
M 463.678326 154.85444 
L 471.850193 154.85444 
L 467.770653 134.336244 
L 463.678326 154.85444 
z
" clip-path="url(#p31a405d585)" style="fill: #008000"/>
   </g>
   <g id="patch_48">
    <path d="M 516.318584 192.132544 
Q 513.164516 192.186272 509.772141 192.213259 
Q 506.379765 192.24 502.763101 192.24 
Q 494.59056 192.24 489.817404 192.080042 
Q 485.044248 191.920084 485.044248 191.646536 
Q 485.044248 191.369799 489.901512 191.211068 
Q 494.765786 191.052336 503.225697 191.052336 
Q 506.484901 191.052336 509.470752 191.073926 
Q 512.463612 191.09527 515.113029 191.137467 
L 515.113029 191.374215 
Q 512.379504 191.319996 509.674014 191.293255 
Q 506.968525 191.266268 504.249017 191.266268 
Q 499.216527 191.266268 496.49001 191.364892 
Q 493.763493 191.463271 493.763493 191.646536 
Q 493.763493 191.828084 496.391883 191.927199 
Q 499.020273 192.026068 503.856511 192.026068 
Q 505.174211 192.026068 506.302666 192.020426 
Q 507.431121 192.014538 508.328279 192.002271 
L 508.328279 191.779998 
L 503.176634 191.779998 
L 503.176634 191.582013 
L 516.318584 191.582013 
L 516.318584 192.132544 
z
" clip-path="url(#p31a405d585)" style="fill: #ffa600"/>
   </g>
   <g id="patch_49">
    <path d="M 506.708008 190.412285 
L 494.680401 190.412285 
L 492.781305 191.052336 
L 485.044248 191.052336 
L 496.093533 187.538833 
L 505.269299 187.538833 
L 516.318584 191.052336 
L 508.587921 191.052336 
L 506.708008 190.412285 
z
M 496.59868 189.760186 
L 504.770547 189.760186 
L 500.691007 188.362616 
L 496.59868 189.760186 
z
" clip-path="url(#p31a405d585)" style="fill: #008000"/>
   </g>
   <g id="patch_50">
    <path d="M 485.044248 183.445627 
L 516.318584 183.445627 
L 516.318584 184.243916 
L 505.067096 184.243916 
L 505.067096 187.538833 
L 496.317555 187.538833 
L 496.317555 184.243916 
L 485.044248 184.243916 
L 485.044248 183.445627 
z
" clip-path="url(#p31a405d585)" style="fill: #ff0000"/>
   </g>
   <g id="patch_51">
    <path d="M 516.318584 183.008823 
Q 513.70254 183.225337 510.873745 183.334853 
Q 508.04495 183.445627 504.964006 183.445627 
Q 495.776333 183.445627 490.41029 182.624889 
Q 485.044248 181.804151 485.044248 180.400587 
Q 485.044248 178.991989 490.41029 178.172509 
Q 495.776333 177.351771 504.964006 177.351771 
Q 508.04495 177.351771 510.873745 177.462545 
Q 513.70254 177.572061 516.318584 177.788575 
L 516.318584 179.003318 
Q 513.678901 178.716311 511.118014 178.582878 
Q 508.557127 178.449446 505.728333 178.449446 
Q 500.653837 178.449446 497.746246 178.96933 
Q 494.846534 179.487956 494.846534 180.400587 
Q 494.846534 181.309442 497.746246 181.829327 
Q 500.653837 182.347953 505.728333 182.347953 
Q 508.557127 182.347953 511.118014 182.21452 
Q 513.678901 182.079828 516.318584 181.792821 
L 516.318584 183.008823 
z
" clip-path="url(#p31a405d585)" style="fill: #0000ff"/>
   </g>
   <g id="patch_52">
    <path d="M 549.238938 192.168876 
Q 546.08487 192.204438 542.692495 192.2223 
Q 539.300119 192.24 535.683455 192.24 
Q 527.510914 192.24 522.737758 192.134125 
Q 517.964602 192.028251 517.964602 191.847192 
Q 517.964602 191.664022 522.821866 191.558959 
Q 527.68614 191.453897 536.146051 191.453897 
Q 539.405255 191.453897 542.391106 191.468186 
Q 545.383966 191.482314 548.033383 191.510244 
L 548.033383 191.666945 
Q 545.299858 191.631058 542.594368 191.613358 
Q 539.888879 191.595496 537.169371 191.595496 
Q 532.136881 191.595496 529.410364 191.660774 
Q 526.683847 191.725891 526.683847 191.847192 
Q 526.683847 191.967356 529.312237 192.03296 
Q 531.940627 192.098401 536.776865 192.098401 
Q 538.094565 192.098401 539.22302 192.094666 
Q 540.351475 192.090769 541.248633 192.082649 
L 541.248633 191.935529 
L 536.096988 191.935529 
L 536.096988 191.804485 
L 549.238938 191.804485 
L 549.238938 192.168876 
z
" clip-path="url(#p31a405d585)" style="fill: #ffa600"/>
   </g>
   <g id="patch_53">
    <path d="M 539.628362 190.581928 
L 527.600755 190.581928 
L 525.701659 191.453897 
L 517.964602 191.453897 
L 529.013887 186.6673 
L 538.189653 186.6673 
L 549.238938 191.453897 
L 541.508275 191.453897 
L 539.628362 190.581928 
z
M 529.519034 189.693545 
L 537.690901 189.693545 
L 533.611361 187.789575 
L 529.519034 189.693545 
z
" clip-path="url(#p31a405d585)" style="fill: #008000"/>
   </g>
   <g id="patch_54">
    <path d="M 517.964602 170.770169 
L 549.238938 170.770169 
L 549.238938 173.870553 
L 537.98745 173.870553 
L 537.98745 186.6673 
L 529.237909 186.6673 
L 529.237909 173.870553 
L 517.964602 173.870553 
L 517.964602 170.770169 
z
" clip-path="url(#p31a405d585)" style="fill: #ff0000"/>
   </g>
   <g id="patch_55">
    <path d="M 549.238938 169.382738 
Q 546.622894 170.070456 543.794099 170.418314 
Q 540.965304 170.770169 537.88436 170.770169 
Q 528.696687 170.770169 523.330644 168.163238 
Q 517.964602 165.556306 517.964602 161.098133 
Q 517.964602 156.623967 523.330644 154.021034 
Q 528.696687 151.414102 537.88436 151.414102 
Q 540.965304 151.414102 543.794099 151.765958 
Q 546.622894 152.113815 549.238938 152.801533 
L 549.238938 156.659952 
Q 546.599255 155.748326 544.038368 155.324499 
Q 541.477481 154.900673 538.648687 154.900673 
Q 533.574191 154.900673 530.6666 156.551996 
Q 527.766888 158.199321 527.766888 161.098133 
Q 527.766888 163.98495 530.6666 165.636273 
Q 533.574191 167.283598 538.648687 167.283598 
Q 541.477481 167.283598 544.038368 166.859772 
Q 546.599255 166.431947 549.238938 165.520321 
L 549.238938 169.382738 
z
" clip-path="url(#p31a405d585)" style="fill: #0000ff"/>
   </g>
   <g id="patch_56">
    <path d="M 582.159292 192.163869 
Q 579.543248 192.201606 576.714453 192.220693 
Q 573.885658 192.24 570.804714 192.24 
Q 561.617041 192.24 556.250998 192.096954 
Q 550.884956 191.953907 550.884956 191.70928 
Q 550.884956 191.463775 556.250998 191.320948 
Q 561.617041 191.177902 570.804714 191.177902 
Q 573.885658 191.177902 576.714453 191.197209 
Q 579.543248 191.216296 582.159292 191.254032 
L 582.159292 191.46575 
Q 579.519609 191.415727 576.958722 191.392471 
Q 574.397835 191.369215 571.569041 191.369215 
Q 566.494545 191.369215 563.586954 191.459826 
Q 560.687242 191.550217 560.687242 191.70928 
Q 560.687242 191.867684 563.586954 191.958295 
Q 566.494545 192.048686 571.569041 192.048686 
Q 574.397835 192.048686 576.958722 192.02543 
Q 579.519609 192.001955 582.159292 191.951932 
L 582.159292 192.163869 
z
" clip-path="url(#p31a405d585)" style="fill: #0000ff"/>
   </g>
   <g id="patch_57">
    <path d="M 550.884956 184.264112 
L 582.159292 184.264112 
L 582.159292 185.612494 
L 570.907804 185.612494 
L 570.907804 191.177902 
L 562.158263 191.177902 
L 562.158263 185.612494 
L 550.884956 185.612494 
L 550.884956 184.264112 
z
" clip-path="url(#p31a405d585)" style="fill: #ff0000"/>
   </g>
   <g id="patch_58">
    <path d="M 572.548716 182.289101 
L 560.521109 182.289101 
L 558.622013 184.264112 
L 550.884956 184.264112 
L 561.934241 173.422464 
L 571.110007 173.422464 
L 582.159292 184.264112 
L 574.428629 184.264112 
L 572.548716 182.289101 
z
M 562.439387 180.276914 
L 570.611255 180.276914 
L 566.531715 175.96442 
L 562.439387 180.276914 
z
" clip-path="url(#p31a405d585)" style="fill: #008000"/>
   </g>
   <g id="patch_59">
    <path d="M 582.159292 170.022783 
Q 579.005224 171.722624 575.612849 172.576425 
Q 572.220473 173.422464 568.603809 173.422464 
Q 560.431268 173.422464 555.658112 168.361752 
Q 550.884956 163.30104 550.884956 154.646601 
Q 550.884956 145.891258 555.74222 140.869355 
Q 560.606494 135.847451 569.066405 135.847451 
Q 572.325609 135.847451 575.31146 136.530492 
Q 578.30432 137.205772 580.953737 138.540806 
L 580.953737 146.030971 
Q 578.220212 144.315607 575.514722 143.469567 
Q 572.809233 142.615766 570.089725 142.615766 
Q 565.057235 142.615766 562.330718 145.736021 
Q 559.604201 148.848515 559.604201 154.646601 
Q 559.604201 160.390354 562.232591 163.526133 
Q 564.860981 166.65415 569.697219 166.65415 
Q 571.014919 166.65415 572.143374 166.475628 
Q 573.271829 166.289344 574.168986 165.901252 
L 574.168986 158.869036 
L 569.017342 158.869036 
L 569.017342 152.60524 
L 582.159292 152.60524 
L 582.159292 170.022783 
z
" clip-path="url(#p31a405d585)" style="fill: #ffa600"/>
   </g>
   <g id="patch_60">
    <path d="M 605.46907 192.07732 
L 593.441463 192.07732 
L 591.542367 192.24 
L 583.80531 192.24 
L 594.854595 191.346984 
L 604.030361 191.346984 
L 615.079646 192.24 
L 607.348983 192.24 
L 605.46907 192.07732 
z
M 595.359741 191.911578 
L 603.531609 191.911578 
L 599.452069 191.556363 
L 595.359741 191.911578 
z
" clip-path="url(#p31a405d585)" style="fill: #008000"/>
   </g>
   <g id="patch_61">
    <path d="M 583.80531 186.167705 
L 615.079646 186.167705 
L 615.079646 187.177808 
L 603.828158 187.177808 
L 603.828158 191.346984 
L 595.078617 191.346984 
L 595.078617 187.177808 
L 583.80531 187.177808 
L 583.80531 186.167705 
z
" clip-path="url(#p31a405d585)" style="fill: #ff0000"/>
   </g>
   <g id="patch_62">
    <path d="M 615.079646 185.432481 
Q 611.925578 185.800093 608.533203 185.984738 
Q 605.140827 186.167705 601.524163 186.167705 
Q 593.351622 186.167705 588.578466 185.073261 
Q 583.80531 183.978818 583.80531 182.107186 
Q 583.80531 180.213732 588.662574 179.127682 
Q 593.526848 178.041632 601.986759 178.041632 
Q 605.245963 178.041632 608.231814 178.189348 
Q 611.224674 178.335386 613.874091 178.624104 
L 613.874091 180.243947 
Q 611.140566 179.872978 608.435076 179.690011 
Q 605.729587 179.505366 603.010079 179.505366 
Q 597.977589 179.505366 595.251072 180.18016 
Q 592.524555 180.853277 592.524555 182.107186 
Q 592.524555 183.349346 595.152945 184.027497 
Q 597.781335 184.703971 602.617573 184.703971 
Q 603.935272 184.703971 605.063728 184.665363 
Q 606.192183 184.625077 607.08934 184.541147 
L 607.08934 183.020341 
L 601.937696 183.020341 
L 601.937696 181.665716 
L 615.079646 181.665716 
L 615.079646 185.432481 
z
" clip-path="url(#p31a405d585)" style="fill: #ffa600"/>
   </g>
   <g id="patch_63">
    <path d="M 615.079646 171.461629 
Q 612.463602 174.723187 609.634807 176.372928 
Q 606.806012 178.041632 603.725068 178.041632 
Q 594.537395 178.041632 589.171352 165.678053 
Q 583.80531 153.314474 583.80531 132.171237 
Q 583.80531 110.95215 589.171352 98.607534 
Q 594.537395 86.243955 603.725068 86.243955 
Q 606.806012 86.243955 609.634807 87.912659 
Q 612.463602 89.5624 615.079646 92.823958 
L 615.079646 111.122813 
Q 612.439963 106.799353 609.879076 104.789323 
Q 607.318189 102.779293 604.489395 102.779293 
Q 599.414899 102.779293 596.507308 110.610824 
Q 593.607596 118.423392 593.607596 132.171237 
Q 593.607596 145.862194 596.507308 153.693725 
Q 599.414899 161.506293 604.489395 161.506293 
Q 607.318189 161.506293 609.879076 159.496264 
Q 612.439963 157.467271 615.079646 153.143811 
L 615.079646 171.461629 
z
" clip-path="url(#p31a405d585)" style="fill: #0000ff"/>
   </g>
   <g id="patch_64">
    <path d="M 648 191.971756 
Q 645.383956 192.104718 642.555161 192.171973 
Q 639.726366 192.24 636.645422 192.24 
Q 627.457749 192.24 622.091706 191.735979 
Q 616.725664 191.231959 616.725664 190.370022 
Q 616.725664 189.504993 622.091706 189.001746 
Q 627.457749 188.497725 636.645422 188.497725 
Q 639.726366 188.497725 642.555161 188.565752 
Q 645.383956 188.633007 648 188.765969 
L 648 189.51195 
Q 645.360317 189.335698 642.79943 189.253756 
Q 640.238543 189.171814 637.409749 189.171814 
Q 632.335253 189.171814 629.427662 189.491078 
Q 626.52795 189.80957 626.52795 190.370022 
Q 626.52795 190.928155 629.427662 191.24742 
Q 632.335253 191.565911 637.409749 191.565911 
Q 640.238543 191.565911 642.79943 191.483969 
Q 645.360317 191.401254 648 191.225002 
L 648 191.971756 
z
" clip-path="url(#p31a405d585)" style="fill: #0000ff"/>
   </g>
   <g id="patch_65">
    <path d="M 616.725664 184.313301 
L 648 184.313301 
L 648 185.12938 
L 636.748512 185.12938 
L 636.748512 188.497725 
L 627.998971 188.497725 
L 627.998971 185.12938 
L 616.725664 185.12938 
L 616.725664 184.313301 
z
" clip-path="url(#p31a405d585)" style="fill: #ff0000"/>
   </g>
   <g id="patch_66">
    <path d="M 638.389424 182.866431 
L 626.361817 182.866431 
L 624.462721 184.313301 
L 616.725664 184.313301 
L 627.774949 176.370837 
L 636.950715 176.370837 
L 648 184.313301 
L 640.269337 184.313301 
L 638.389424 182.866431 
z
M 628.280095 181.392326 
L 636.451963 181.392326 
L 632.372423 178.233044 
L 628.280095 181.392326 
z
" clip-path="url(#p31a405d585)" style="fill: #008000"/>
   </g>
   <g id="patch_67">
    <path d="M 648 173.707823 
Q 644.845932 175.03933 641.453557 175.708124 
Q 638.061181 176.370837 634.444517 176.370837 
Q 626.271976 176.370837 621.49882 172.406716 
Q 616.725664 168.442595 616.725664 161.663462 
Q 616.725664 154.80529 621.582928 150.871568 
Q 626.447202 146.937847 634.907113 146.937847 
Q 638.166317 146.937847 641.152168 147.472882 
Q 644.145028 148.001837 646.794445 149.047586 
L 646.794445 154.914729 
Q 644.06092 153.571062 641.35543 152.908348 
Q 638.649941 152.239555 635.930433 152.239555 
Q 630.897943 152.239555 628.171426 154.683691 
Q 625.444909 157.121747 625.444909 161.663462 
Q 625.444909 166.162618 628.073299 168.618913 
Q 630.701689 171.069129 635.537927 171.069129 
Q 636.855626 171.069129 637.984082 170.929291 
Q 639.112537 170.783372 640.009694 170.479375 
L 640.009694 164.970949 
L 634.85805 164.970949 
L 634.85805 160.064438 
L 648 160.064438 
L 648 173.707823 
z
" clip-path="url(#p31a405d585)" style="fill: #ffa600"/>
   </g>
   <g id="matplotlib.axis_1">
    <g id="xtick_1">
     <g id="line2d_2">
      <defs>
       <path id="m7de8348d06" d="M 0 0 
L 0 3.5 
" style="stroke: #000000; stroke-width: 0.8"/>
      </defs>
      <g>
       <use xlink:href="#m7de8348d06" x="105.637168" y="192.24" style="stroke: #000000; stroke-width: 0.8"/>
      </g>
     </g>
     <g id="text_1">
      <!-- 0 -->
      <g transform="translate(102.455918 206.838437) scale(0.1 -0.1)">
       <defs>
        <path id="DejaVuSans-30" d="M 2034 4250 
Q 1547 4250 1301 3770 
Q 1056 3291 1056 2328 
Q 1056 1369 1301 889 
Q 1547 409 2034 409 
Q 2525 409 2770 889 
Q 3016 1369 3016 2328 
Q 3016 3291 2770 3770 
Q 2525 4250 2034 4250 
z
M 2034 4750 
Q 2819 4750 3233 4129 
Q 3647 3509 3647 2328 
Q 3647 1150 3233 529 
Q 2819 -91 2034 -91 
Q 1250 -91 836 529 
Q 422 1150 422 2328 
Q 422 3509 836 4129 
Q 1250 4750 2034 4750 
z
" transform="scale(0.015625)"/>
       </defs>
       <use xlink:href="#DejaVuSans-30"/>
      </g>
     </g>
    </g>
    <g id="xtick_2">
     <g id="line2d_3">
      <g>
       <use xlink:href="#m7de8348d06" x="171.477876" y="192.24" style="stroke: #000000; stroke-width: 0.8"/>
      </g>
     </g>
     <g id="text_2">
      <!-- 2 -->
      <g transform="translate(168.296626 206.838437) scale(0.1 -0.1)">
       <defs>
        <path id="DejaVuSans-32" d="M 1228 531 
L 3431 531 
L 3431 0 
L 469 0 
L 469 531 
Q 828 903 1448 1529 
Q 2069 2156 2228 2338 
Q 2531 2678 2651 2914 
Q 2772 3150 2772 3378 
Q 2772 3750 2511 3984 
Q 2250 4219 1831 4219 
Q 1534 4219 1204 4116 
Q 875 4013 500 3803 
L 500 4441 
Q 881 4594 1212 4672 
Q 1544 4750 1819 4750 
Q 2544 4750 2975 4387 
Q 3406 4025 3406 3419 
Q 3406 3131 3298 2873 
Q 3191 2616 2906 2266 
Q 2828 2175 2409 1742 
Q 1991 1309 1228 531 
z
" transform="scale(0.015625)"/>
       </defs>
       <use xlink:href="#DejaVuSans-32"/>
      </g>
     </g>
    </g>
    <g id="xtick_3">
     <g id="line2d_4">
      <g>
       <use xlink:href="#m7de8348d06" x="237.318584" y="192.24" style="stroke: #000000; stroke-width: 0.8"/>
      </g>
     </g>
     <g id="text_3">
      <!-- 4 -->
      <g transform="translate(234.137334 206.838437) scale(0.1 -0.1)">
       <defs>
        <path id="DejaVuSans-34" d="M 2419 4116 
L 825 1625 
L 2419 1625 
L 2419 4116 
z
M 2253 4666 
L 3047 4666 
L 3047 1625 
L 3713 1625 
L 3713 1100 
L 3047 1100 
L 3047 0 
L 2419 0 
L 2419 1100 
L 313 1100 
L 313 1709 
L 2253 4666 
z
" transform="scale(0.015625)"/>
       </defs>
       <use xlink:href="#DejaVuSans-34"/>
      </g>
     </g>
    </g>
    <g id="xtick_4">
     <g id="line2d_5">
      <g>
       <use xlink:href="#m7de8348d06" x="303.159292" y="192.24" style="stroke: #000000; stroke-width: 0.8"/>
      </g>
     </g>
     <g id="text_4">
      <!-- 6 -->
      <g transform="translate(299.978042 206.838437) scale(0.1 -0.1)">
       <defs>
        <path id="DejaVuSans-36" d="M 2113 2584 
Q 1688 2584 1439 2293 
Q 1191 2003 1191 1497 
Q 1191 994 1439 701 
Q 1688 409 2113 409 
Q 2538 409 2786 701 
Q 3034 994 3034 1497 
Q 3034 2003 2786 2293 
Q 2538 2584 2113 2584 
z
M 3366 4563 
L 3366 3988 
Q 3128 4100 2886 4159 
Q 2644 4219 2406 4219 
Q 1781 4219 1451 3797 
Q 1122 3375 1075 2522 
Q 1259 2794 1537 2939 
Q 1816 3084 2150 3084 
Q 2853 3084 3261 2657 
Q 3669 2231 3669 1497 
Q 3669 778 3244 343 
Q 2819 -91 2113 -91 
Q 1303 -91 875 529 
Q 447 1150 447 2328 
Q 447 3434 972 4092 
Q 1497 4750 2381 4750 
Q 2619 4750 2861 4703 
Q 3103 4656 3366 4563 
z
" transform="scale(0.015625)"/>
       </defs>
       <use xlink:href="#DejaVuSans-36"/>
      </g>
     </g>
    </g>
    <g id="xtick_5">
     <g id="line2d_6">
      <g>
       <use xlink:href="#m7de8348d06" x="369" y="192.24" style="stroke: #000000; stroke-width: 0.8"/>
      </g>
     </g>
     <g id="text_5">
      <!-- 8 -->
      <g transform="translate(365.81875 206.838437) scale(0.1 -0.1)">
       <defs>
        <path id="DejaVuSans-38" d="M 2034 2216 
Q 1584 2216 1326 1975 
Q 1069 1734 1069 1313 
Q 1069 891 1326 650 
Q 1584 409 2034 409 
Q 2484 409 2743 651 
Q 3003 894 3003 1313 
Q 3003 1734 2745 1975 
Q 2488 2216 2034 2216 
z
M 1403 2484 
Q 997 2584 770 2862 
Q 544 3141 544 3541 
Q 544 4100 942 4425 
Q 1341 4750 2034 4750 
Q 2731 4750 3128 4425 
Q 3525 4100 3525 3541 
Q 3525 3141 3298 2862 
Q 3072 2584 2669 2484 
Q 3125 2378 3379 2068 
Q 3634 1759 3634 1313 
Q 3634 634 3220 271 
Q 2806 -91 2034 -91 
Q 1263 -91 848 271 
Q 434 634 434 1313 
Q 434 1759 690 2068 
Q 947 2378 1403 2484 
z
M 1172 3481 
Q 1172 3119 1398 2916 
Q 1625 2713 2034 2713 
Q 2441 2713 2670 2916 
Q 2900 3119 2900 3481 
Q 2900 3844 2670 4047 
Q 2441 4250 2034 4250 
Q 1625 4250 1398 4047 
Q 1172 3844 1172 3481 
z
" transform="scale(0.015625)"/>
       </defs>
       <use xlink:href="#DejaVuSans-38"/>
      </g>
     </g>
    </g>
    <g id="xtick_6">
     <g id="line2d_7">
      <g>
       <use xlink:href="#m7de8348d06" x="434.840708" y="192.24" style="stroke: #000000; stroke-width: 0.8"/>
      </g>
     </g>
     <g id="text_6">
      <!-- 10 -->
      <g transform="translate(428.478208 206.838437) scale(0.1 -0.1)">
       <defs>
        <path id="DejaVuSans-31" d="M 794 531 
L 1825 531 
L 1825 4091 
L 703 3866 
L 703 4441 
L 1819 4666 
L 2450 4666 
L 2450 531 
L 3481 531 
L 3481 0 
L 794 0 
L 794 531 
z
" transform="scale(0.015625)"/>
       </defs>
       <use xlink:href="#DejaVuSans-31"/>
       <use xlink:href="#DejaVuSans-30" x="63.623047"/>
      </g>
     </g>
    </g>
    <g id="xtick_7">
     <g id="line2d_8">
      <g>
       <use xlink:href="#m7de8348d06" x="500.681416" y="192.24" style="stroke: #000000; stroke-width: 0.8"/>
      </g>
     </g>
     <g id="text_7">
      <!-- 12 -->
      <g transform="translate(494.318916 206.838437) scale(0.1 -0.1)">
       <use xlink:href="#DejaVuSans-31"/>
       <use xlink:href="#DejaVuSans-32" x="63.623047"/>
      </g>
     </g>
    </g>
    <g id="xtick_8">
     <g id="line2d_9">
      <g>
       <use xlink:href="#m7de8348d06" x="566.522124" y="192.24" style="stroke: #000000; stroke-width: 0.8"/>
      </g>
     </g>
     <g id="text_8">
      <!-- 14 -->
      <g transform="translate(560.159624 206.838437) scale(0.1 -0.1)">
       <use xlink:href="#DejaVuSans-31"/>
       <use xlink:href="#DejaVuSans-34" x="63.623047"/>
      </g>
     </g>
    </g>
    <g id="xtick_9">
     <g id="line2d_10">
      <g>
       <use xlink:href="#m7de8348d06" x="632.362832" y="192.24" style="stroke: #000000; stroke-width: 0.8"/>
      </g>
     </g>
     <g id="text_9">
      <!-- 16 -->
      <g transform="translate(626.000332 206.838437) scale(0.1 -0.1)">
       <use xlink:href="#DejaVuSans-31"/>
       <use xlink:href="#DejaVuSans-36" x="63.623047"/>
      </g>
     </g>
    </g>
   </g>
   <g id="matplotlib.axis_2">
    <g id="ytick_1">
     <g id="line2d_11">
      <defs>
       <path id="m17dcaf2cdf" d="M 0 0 
L -3.5 0 
" style="stroke: #000000; stroke-width: 0.8"/>
      </defs>
      <g>
       <use xlink:href="#m17dcaf2cdf" x="90" y="192.24" style="stroke: #000000; stroke-width: 0.8"/>
      </g>
     </g>
     <g id="text_10">
      <!-- 0.00 -->
      <g transform="translate(60.734375 196.039219) scale(0.1 -0.1)">
       <defs>
        <path id="DejaVuSans-2e" d="M 684 794 
L 1344 794 
L 1344 0 
L 684 0 
L 684 794 
z
" transform="scale(0.015625)"/>
       </defs>
       <use xlink:href="#DejaVuSans-30"/>
       <use xlink:href="#DejaVuSans-2e" x="63.623047"/>
       <use xlink:href="#DejaVuSans-30" x="95.410156"/>
       <use xlink:href="#DejaVuSans-30" x="159.033203"/>
      </g>
     </g>
    </g>
    <g id="ytick_2">
     <g id="line2d_12">
      <g>
       <use xlink:href="#m17dcaf2cdf" x="90" y="171.297068" style="stroke: #000000; stroke-width: 0.8"/>
      </g>
     </g>
     <g id="text_11">
      <!-- 0.25 -->
      <g transform="translate(60.734375 175.096286) scale(0.1 -0.1)">
       <defs>
        <path id="DejaVuSans-35" d="M 691 4666 
L 3169 4666 
L 3169 4134 
L 1269 4134 
L 1269 2991 
Q 1406 3038 1543 3061 
Q 1681 3084 1819 3084 
Q 2600 3084 3056 2656 
Q 3513 2228 3513 1497 
Q 3513 744 3044 326 
Q 2575 -91 1722 -91 
Q 1428 -91 1123 -41 
Q 819 9 494 109 
L 494 744 
Q 775 591 1075 516 
Q 1375 441 1709 441 
Q 2250 441 2565 725 
Q 2881 1009 2881 1497 
Q 2881 1984 2565 2268 
Q 2250 2553 1709 2553 
Q 1456 2553 1204 2497 
Q 953 2441 691 2322 
L 691 4666 
z
" transform="scale(0.015625)"/>
       </defs>
       <use xlink:href="#DejaVuSans-30"/>
       <use xlink:href="#DejaVuSans-2e" x="63.623047"/>
       <use xlink:href="#DejaVuSans-32" x="95.410156"/>
       <use xlink:href="#DejaVuSans-35" x="159.033203"/>
      </g>
     </g>
    </g>
    <g id="ytick_3">
     <g id="line2d_13">
      <g>
       <use xlink:href="#m17dcaf2cdf" x="90" y="150.354135" style="stroke: #000000; stroke-width: 0.8"/>
      </g>
     </g>
     <g id="text_12">
      <!-- 0.50 -->
      <g transform="translate(60.734375 154.153354) scale(0.1 -0.1)">
       <use xlink:href="#DejaVuSans-30"/>
       <use xlink:href="#DejaVuSans-2e" x="63.623047"/>
       <use xlink:href="#DejaVuSans-35" x="95.410156"/>
       <use xlink:href="#DejaVuSans-30" x="159.033203"/>
      </g>
     </g>
    </g>
    <g id="ytick_4">
     <g id="line2d_14">
      <g>
       <use xlink:href="#m17dcaf2cdf" x="90" y="129.411203" style="stroke: #000000; stroke-width: 0.8"/>
      </g>
     </g>
     <g id="text_13">
      <!-- 0.75 -->
      <g transform="translate(60.734375 133.210422) scale(0.1 -0.1)">
       <defs>
        <path id="DejaVuSans-37" d="M 525 4666 
L 3525 4666 
L 3525 4397 
L 1831 0 
L 1172 0 
L 2766 4134 
L 525 4134 
L 525 4666 
z
" transform="scale(0.015625)"/>
       </defs>
       <use xlink:href="#DejaVuSans-30"/>
       <use xlink:href="#DejaVuSans-2e" x="63.623047"/>
       <use xlink:href="#DejaVuSans-37" x="95.410156"/>
       <use xlink:href="#DejaVuSans-35" x="159.033203"/>
      </g>
     </g>
    </g>
    <g id="ytick_5">
     <g id="line2d_15">
      <g>
       <use xlink:href="#m17dcaf2cdf" x="90" y="108.46827" style="stroke: #000000; stroke-width: 0.8"/>
      </g>
     </g>
     <g id="text_14">
      <!-- 1.00 -->
      <g transform="translate(60.734375 112.267489) scale(0.1 -0.1)">
       <use xlink:href="#DejaVuSans-31"/>
       <use xlink:href="#DejaVuSans-2e" x="63.623047"/>
       <use xlink:href="#DejaVuSans-30" x="95.410156"/>
       <use xlink:href="#DejaVuSans-30" x="159.033203"/>
      </g>
     </g>
    </g>
    <g id="ytick_6">
     <g id="line2d_16">
      <g>
       <use xlink:href="#m17dcaf2cdf" x="90" y="87.525338" style="stroke: #000000; stroke-width: 0.8"/>
      </g>
     </g>
     <g id="text_15">
      <!-- 1.25 -->
      <g transform="translate(60.734375 91.324557) scale(0.1 -0.1)">
       <use xlink:href="#DejaVuSans-31"/>
       <use xlink:href="#DejaVuSans-2e" x="63.623047"/>
       <use xlink:href="#DejaVuSans-32" x="95.410156"/>
       <use xlink:href="#DejaVuSans-35" x="159.033203"/>
      </g>
     </g>
    </g>
    <g id="ytick_7">
     <g id="line2d_17">
      <g>
       <use xlink:href="#m17dcaf2cdf" x="90" y="66.582406" style="stroke: #000000; stroke-width: 0.8"/>
      </g>
     </g>
     <g id="text_16">
      <!-- 1.50 -->
      <g transform="translate(60.734375 70.381624) scale(0.1 -0.1)">
       <use xlink:href="#DejaVuSans-31"/>
       <use xlink:href="#DejaVuSans-2e" x="63.623047"/>
       <use xlink:href="#DejaVuSans-35" x="95.410156"/>
       <use xlink:href="#DejaVuSans-30" x="159.033203"/>
      </g>
     </g>
    </g>
    <g id="ytick_8">
     <g id="line2d_18">
      <g>
       <use xlink:href="#m17dcaf2cdf" x="90" y="45.639473" style="stroke: #000000; stroke-width: 0.8"/>
      </g>
     </g>
     <g id="text_17">
      <!-- 1.75 -->
      <g transform="translate(60.734375 49.438692) scale(0.1 -0.1)">
       <use xlink:href="#DejaVuSans-31"/>
       <use xlink:href="#DejaVuSans-2e" x="63.623047"/>
       <use xlink:href="#DejaVuSans-37" x="95.410156"/>
       <use xlink:href="#DejaVuSans-35" x="159.033203"/>
      </g>
     </g>
    </g>
   </g>
  </g>
 </g>
 <defs>
  <clipPath id="p31a405d585">
   <rect x="90" y="25.92" width="558" height="166.32"/>
  </clipPath>
 </defs>
</svg>
